<?xml version="1.0" encoding="utf-8" standalone="no"?>
<!DOCTYPE svg PUBLIC "-//W3C//DTD SVG 1.1//EN"
  "http://www.w3.org/Graphics/SVG/1.1/DTD/svg11.dtd">
<svg xmlns:xlink="http://www.w3.org/1999/xlink" width="388.965625pt" height="266.794375pt" viewBox="0 0 388.965625 266.794375" xmlns="http://www.w3.org/2000/svg" version="1.1">
 <metadata>
  <rdf:RDF xmlns:dc="http://purl.org/dc/elements/1.1/" xmlns:cc="http://creativecommons.org/ns#" xmlns:rdf="http://www.w3.org/1999/02/22-rdf-syntax-ns#">
   <cc:Work>
    <dc:type rdf:resource="http://purl.org/dc/dcmitype/StillImage"/>
    <dc:date>2025-05-26T10:49:47.804879</dc:date>
    <dc:format>image/svg+xml</dc:format>
    <dc:creator>
     <cc:Agent>
      <dc:title>Matplotlib v3.10.3, https://matplotlib.org/</dc:title>
     </cc:Agent>
    </dc:creator>
   </cc:Work>
  </rdf:RDF>
 </metadata>
 <defs>
  <style type="text/css">*{stroke-linejoin: round; stroke-linecap: butt}</style>
 </defs>
 <g id="figure_1">
  <g id="patch_1">
   <path d="M 0 266.794375 
L 388.965625 266.794375 
L 388.965625 0 
L 0 0 
z
" style="fill: #ffffff"/>
  </g>
  <g id="axes_1">
   <g id="patch_2">
    <path d="M 46.965625 228.96 
L 381.765625 228.96 
L 381.765625 7.2 
L 46.965625 7.2 
z
" style="fill: #ffffff"/>
   </g>
   <g id="matplotlib.axis_1">
    <g id="xtick_1">
     <g id="line2d_1">
      <defs>
       <path id="m78f6f04fe7" d="M 0 0 
L 0 3.5 
" style="stroke: #000000; stroke-width: 0.8"/>
      </defs>
      <g>
       <use xlink:href="#m78f6f04fe7" x="62.180583" y="228.96" style="stroke: #000000; stroke-width: 0.8"/>
      </g>
     </g>
     <g id="text_1">
      <!-- 0 -->
      <g transform="translate(58.999333 243.558437) scale(0.1 -0.1)">
       <defs>
        <path id="DejaVuSans-30" d="M 2034 4250 
Q 1547 4250 1301 3770 
Q 1056 3291 1056 2328 
Q 1056 1369 1301 889 
Q 1547 409 2034 409 
Q 2525 409 2770 889 
Q 3016 1369 3016 2328 
Q 3016 3291 2770 3770 
Q 2525 4250 2034 4250 
z
M 2034 4750 
Q 2819 4750 3233 4129 
Q 3647 3509 3647 2328 
Q 3647 1150 3233 529 
Q 2819 -91 2034 -91 
Q 1250 -91 836 529 
Q 422 1150 422 2328 
Q 422 3509 836 4129 
Q 1250 4750 2034 4750 
z
" transform="scale(0.015625)"/>
       </defs>
       <use xlink:href="#DejaVuSans-30"/>
      </g>
     </g>
    </g>
    <g id="xtick_2">
     <g id="line2d_2">
      <g>
       <use xlink:href="#m78f6f04fe7" x="104.792445" y="228.96" style="stroke: #000000; stroke-width: 0.8"/>
      </g>
     </g>
     <g id="text_2">
      <!-- 10000 -->
      <g transform="translate(88.886195 243.558437) scale(0.1 -0.1)">
       <defs>
        <path id="DejaVuSans-31" d="M 794 531 
L 1825 531 
L 1825 4091 
L 703 3866 
L 703 4441 
L 1819 4666 
L 2450 4666 
L 2450 531 
L 3481 531 
L 3481 0 
L 794 0 
L 794 531 
z
" transform="scale(0.015625)"/>
       </defs>
       <use xlink:href="#DejaVuSans-31"/>
       <use xlink:href="#DejaVuSans-30" transform="translate(63.623047 0)"/>
       <use xlink:href="#DejaVuSans-30" transform="translate(127.246094 0)"/>
       <use xlink:href="#DejaVuSans-30" transform="translate(190.869141 0)"/>
       <use xlink:href="#DejaVuSans-30" transform="translate(254.492188 0)"/>
      </g>
     </g>
    </g>
    <g id="xtick_3">
     <g id="line2d_3">
      <g>
       <use xlink:href="#m78f6f04fe7" x="147.404307" y="228.96" style="stroke: #000000; stroke-width: 0.8"/>
      </g>
     </g>
     <g id="text_3">
      <!-- 20000 -->
      <g transform="translate(131.498057 243.558437) scale(0.1 -0.1)">
       <defs>
        <path id="DejaVuSans-32" d="M 1228 531 
L 3431 531 
L 3431 0 
L 469 0 
L 469 531 
Q 828 903 1448 1529 
Q 2069 2156 2228 2338 
Q 2531 2678 2651 2914 
Q 2772 3150 2772 3378 
Q 2772 3750 2511 3984 
Q 2250 4219 1831 4219 
Q 1534 4219 1204 4116 
Q 875 4013 500 3803 
L 500 4441 
Q 881 4594 1212 4672 
Q 1544 4750 1819 4750 
Q 2544 4750 2975 4387 
Q 3406 4025 3406 3419 
Q 3406 3131 3298 2873 
Q 3191 2616 2906 2266 
Q 2828 2175 2409 1742 
Q 1991 1309 1228 531 
z
" transform="scale(0.015625)"/>
       </defs>
       <use xlink:href="#DejaVuSans-32"/>
       <use xlink:href="#DejaVuSans-30" transform="translate(63.623047 0)"/>
       <use xlink:href="#DejaVuSans-30" transform="translate(127.246094 0)"/>
       <use xlink:href="#DejaVuSans-30" transform="translate(190.869141 0)"/>
       <use xlink:href="#DejaVuSans-30" transform="translate(254.492188 0)"/>
      </g>
     </g>
    </g>
    <g id="xtick_4">
     <g id="line2d_4">
      <g>
       <use xlink:href="#m78f6f04fe7" x="190.016169" y="228.96" style="stroke: #000000; stroke-width: 0.8"/>
      </g>
     </g>
     <g id="text_4">
      <!-- 30000 -->
      <g transform="translate(174.109919 243.558437) scale(0.1 -0.1)">
       <defs>
        <path id="DejaVuSans-33" d="M 2597 2516 
Q 3050 2419 3304 2112 
Q 3559 1806 3559 1356 
Q 3559 666 3084 287 
Q 2609 -91 1734 -91 
Q 1441 -91 1130 -33 
Q 819 25 488 141 
L 488 750 
Q 750 597 1062 519 
Q 1375 441 1716 441 
Q 2309 441 2620 675 
Q 2931 909 2931 1356 
Q 2931 1769 2642 2001 
Q 2353 2234 1838 2234 
L 1294 2234 
L 1294 2753 
L 1863 2753 
Q 2328 2753 2575 2939 
Q 2822 3125 2822 3475 
Q 2822 3834 2567 4026 
Q 2313 4219 1838 4219 
Q 1578 4219 1281 4162 
Q 984 4106 628 3988 
L 628 4550 
Q 988 4650 1302 4700 
Q 1616 4750 1894 4750 
Q 2613 4750 3031 4423 
Q 3450 4097 3450 3541 
Q 3450 3153 3228 2886 
Q 3006 2619 2597 2516 
z
" transform="scale(0.015625)"/>
       </defs>
       <use xlink:href="#DejaVuSans-33"/>
       <use xlink:href="#DejaVuSans-30" transform="translate(63.623047 0)"/>
       <use xlink:href="#DejaVuSans-30" transform="translate(127.246094 0)"/>
       <use xlink:href="#DejaVuSans-30" transform="translate(190.869141 0)"/>
       <use xlink:href="#DejaVuSans-30" transform="translate(254.492188 0)"/>
      </g>
     </g>
    </g>
    <g id="xtick_5">
     <g id="line2d_5">
      <g>
       <use xlink:href="#m78f6f04fe7" x="232.628031" y="228.96" style="stroke: #000000; stroke-width: 0.8"/>
      </g>
     </g>
     <g id="text_5">
      <!-- 40000 -->
      <g transform="translate(216.721781 243.558437) scale(0.1 -0.1)">
       <defs>
        <path id="DejaVuSans-34" d="M 2419 4116 
L 825 1625 
L 2419 1625 
L 2419 4116 
z
M 2253 4666 
L 3047 4666 
L 3047 1625 
L 3713 1625 
L 3713 1100 
L 3047 1100 
L 3047 0 
L 2419 0 
L 2419 1100 
L 313 1100 
L 313 1709 
L 2253 4666 
z
" transform="scale(0.015625)"/>
       </defs>
       <use xlink:href="#DejaVuSans-34"/>
       <use xlink:href="#DejaVuSans-30" transform="translate(63.623047 0)"/>
       <use xlink:href="#DejaVuSans-30" transform="translate(127.246094 0)"/>
       <use xlink:href="#DejaVuSans-30" transform="translate(190.869141 0)"/>
       <use xlink:href="#DejaVuSans-30" transform="translate(254.492188 0)"/>
      </g>
     </g>
    </g>
    <g id="xtick_6">
     <g id="line2d_6">
      <g>
       <use xlink:href="#m78f6f04fe7" x="275.239893" y="228.96" style="stroke: #000000; stroke-width: 0.8"/>
      </g>
     </g>
     <g id="text_6">
      <!-- 50000 -->
      <g transform="translate(259.333643 243.558437) scale(0.1 -0.1)">
       <defs>
        <path id="DejaVuSans-35" d="M 691 4666 
L 3169 4666 
L 3169 4134 
L 1269 4134 
L 1269 2991 
Q 1406 3038 1543 3061 
Q 1681 3084 1819 3084 
Q 2600 3084 3056 2656 
Q 3513 2228 3513 1497 
Q 3513 744 3044 326 
Q 2575 -91 1722 -91 
Q 1428 -91 1123 -41 
Q 819 9 494 109 
L 494 744 
Q 775 591 1075 516 
Q 1375 441 1709 441 
Q 2250 441 2565 725 
Q 2881 1009 2881 1497 
Q 2881 1984 2565 2268 
Q 2250 2553 1709 2553 
Q 1456 2553 1204 2497 
Q 953 2441 691 2322 
L 691 4666 
z
" transform="scale(0.015625)"/>
       </defs>
       <use xlink:href="#DejaVuSans-35"/>
       <use xlink:href="#DejaVuSans-30" transform="translate(63.623047 0)"/>
       <use xlink:href="#DejaVuSans-30" transform="translate(127.246094 0)"/>
       <use xlink:href="#DejaVuSans-30" transform="translate(190.869141 0)"/>
       <use xlink:href="#DejaVuSans-30" transform="translate(254.492188 0)"/>
      </g>
     </g>
    </g>
    <g id="xtick_7">
     <g id="line2d_7">
      <g>
       <use xlink:href="#m78f6f04fe7" x="317.851755" y="228.96" style="stroke: #000000; stroke-width: 0.8"/>
      </g>
     </g>
     <g id="text_7">
      <!-- 60000 -->
      <g transform="translate(301.945505 243.558437) scale(0.1 -0.1)">
       <defs>
        <path id="DejaVuSans-36" d="M 2113 2584 
Q 1688 2584 1439 2293 
Q 1191 2003 1191 1497 
Q 1191 994 1439 701 
Q 1688 409 2113 409 
Q 2538 409 2786 701 
Q 3034 994 3034 1497 
Q 3034 2003 2786 2293 
Q 2538 2584 2113 2584 
z
M 3366 4563 
L 3366 3988 
Q 3128 4100 2886 4159 
Q 2644 4219 2406 4219 
Q 1781 4219 1451 3797 
Q 1122 3375 1075 2522 
Q 1259 2794 1537 2939 
Q 1816 3084 2150 3084 
Q 2853 3084 3261 2657 
Q 3669 2231 3669 1497 
Q 3669 778 3244 343 
Q 2819 -91 2113 -91 
Q 1303 -91 875 529 
Q 447 1150 447 2328 
Q 447 3434 972 4092 
Q 1497 4750 2381 4750 
Q 2619 4750 2861 4703 
Q 3103 4656 3366 4563 
z
" transform="scale(0.015625)"/>
       </defs>
       <use xlink:href="#DejaVuSans-36"/>
       <use xlink:href="#DejaVuSans-30" transform="translate(63.623047 0)"/>
       <use xlink:href="#DejaVuSans-30" transform="translate(127.246094 0)"/>
       <use xlink:href="#DejaVuSans-30" transform="translate(190.869141 0)"/>
       <use xlink:href="#DejaVuSans-30" transform="translate(254.492188 0)"/>
      </g>
     </g>
    </g>
    <g id="xtick_8">
     <g id="line2d_8">
      <g>
       <use xlink:href="#m78f6f04fe7" x="360.463617" y="228.96" style="stroke: #000000; stroke-width: 0.8"/>
      </g>
     </g>
     <g id="text_8">
      <!-- 70000 -->
      <g transform="translate(344.557367 243.558437) scale(0.1 -0.1)">
       <defs>
        <path id="DejaVuSans-37" d="M 525 4666 
L 3525 4666 
L 3525 4397 
L 1831 0 
L 1172 0 
L 2766 4134 
L 525 4134 
L 525 4666 
z
" transform="scale(0.015625)"/>
       </defs>
       <use xlink:href="#DejaVuSans-37"/>
       <use xlink:href="#DejaVuSans-30" transform="translate(63.623047 0)"/>
       <use xlink:href="#DejaVuSans-30" transform="translate(127.246094 0)"/>
       <use xlink:href="#DejaVuSans-30" transform="translate(190.869141 0)"/>
       <use xlink:href="#DejaVuSans-30" transform="translate(254.492188 0)"/>
      </g>
     </g>
    </g>
    <g id="text_9">
     <!-- event_time_offset [µs] -->
     <g transform="translate(158.330469 257.236562) scale(0.1 -0.1)">
      <defs>
       <path id="DejaVuSans-65" d="M 3597 1894 
L 3597 1613 
L 953 1613 
Q 991 1019 1311 708 
Q 1631 397 2203 397 
Q 2534 397 2845 478 
Q 3156 559 3463 722 
L 3463 178 
Q 3153 47 2828 -22 
Q 2503 -91 2169 -91 
Q 1331 -91 842 396 
Q 353 884 353 1716 
Q 353 2575 817 3079 
Q 1281 3584 2069 3584 
Q 2775 3584 3186 3129 
Q 3597 2675 3597 1894 
z
M 3022 2063 
Q 3016 2534 2758 2815 
Q 2500 3097 2075 3097 
Q 1594 3097 1305 2825 
Q 1016 2553 972 2059 
L 3022 2063 
z
" transform="scale(0.015625)"/>
       <path id="DejaVuSans-76" d="M 191 3500 
L 800 3500 
L 1894 563 
L 2988 3500 
L 3597 3500 
L 2284 0 
L 1503 0 
L 191 3500 
z
" transform="scale(0.015625)"/>
       <path id="DejaVuSans-6e" d="M 3513 2113 
L 3513 0 
L 2938 0 
L 2938 2094 
Q 2938 2591 2744 2837 
Q 2550 3084 2163 3084 
Q 1697 3084 1428 2787 
Q 1159 2491 1159 1978 
L 1159 0 
L 581 0 
L 581 3500 
L 1159 3500 
L 1159 2956 
Q 1366 3272 1645 3428 
Q 1925 3584 2291 3584 
Q 2894 3584 3203 3211 
Q 3513 2838 3513 2113 
z
" transform="scale(0.015625)"/>
       <path id="DejaVuSans-74" d="M 1172 4494 
L 1172 3500 
L 2356 3500 
L 2356 3053 
L 1172 3053 
L 1172 1153 
Q 1172 725 1289 603 
Q 1406 481 1766 481 
L 2356 481 
L 2356 0 
L 1766 0 
Q 1100 0 847 248 
Q 594 497 594 1153 
L 594 3053 
L 172 3053 
L 172 3500 
L 594 3500 
L 594 4494 
L 1172 4494 
z
" transform="scale(0.015625)"/>
       <path id="DejaVuSans-5f" d="M 3263 -1063 
L 3263 -1509 
L -63 -1509 
L -63 -1063 
L 3263 -1063 
z
" transform="scale(0.015625)"/>
       <path id="DejaVuSans-69" d="M 603 3500 
L 1178 3500 
L 1178 0 
L 603 0 
L 603 3500 
z
M 603 4863 
L 1178 4863 
L 1178 4134 
L 603 4134 
L 603 4863 
z
" transform="scale(0.015625)"/>
       <path id="DejaVuSans-6d" d="M 3328 2828 
Q 3544 3216 3844 3400 
Q 4144 3584 4550 3584 
Q 5097 3584 5394 3201 
Q 5691 2819 5691 2113 
L 5691 0 
L 5113 0 
L 5113 2094 
Q 5113 2597 4934 2840 
Q 4756 3084 4391 3084 
Q 3944 3084 3684 2787 
Q 3425 2491 3425 1978 
L 3425 0 
L 2847 0 
L 2847 2094 
Q 2847 2600 2669 2842 
Q 2491 3084 2119 3084 
Q 1678 3084 1418 2786 
Q 1159 2488 1159 1978 
L 1159 0 
L 581 0 
L 581 3500 
L 1159 3500 
L 1159 2956 
Q 1356 3278 1631 3431 
Q 1906 3584 2284 3584 
Q 2666 3584 2933 3390 
Q 3200 3197 3328 2828 
z
" transform="scale(0.015625)"/>
       <path id="DejaVuSans-6f" d="M 1959 3097 
Q 1497 3097 1228 2736 
Q 959 2375 959 1747 
Q 959 1119 1226 758 
Q 1494 397 1959 397 
Q 2419 397 2687 759 
Q 2956 1122 2956 1747 
Q 2956 2369 2687 2733 
Q 2419 3097 1959 3097 
z
M 1959 3584 
Q 2709 3584 3137 3096 
Q 3566 2609 3566 1747 
Q 3566 888 3137 398 
Q 2709 -91 1959 -91 
Q 1206 -91 779 398 
Q 353 888 353 1747 
Q 353 2609 779 3096 
Q 1206 3584 1959 3584 
z
" transform="scale(0.015625)"/>
       <path id="DejaVuSans-66" d="M 2375 4863 
L 2375 4384 
L 1825 4384 
Q 1516 4384 1395 4259 
Q 1275 4134 1275 3809 
L 1275 3500 
L 2222 3500 
L 2222 3053 
L 1275 3053 
L 1275 0 
L 697 0 
L 697 3053 
L 147 3053 
L 147 3500 
L 697 3500 
L 697 3744 
Q 697 4328 969 4595 
Q 1241 4863 1831 4863 
L 2375 4863 
z
" transform="scale(0.015625)"/>
       <path id="DejaVuSans-73" d="M 2834 3397 
L 2834 2853 
Q 2591 2978 2328 3040 
Q 2066 3103 1784 3103 
Q 1356 3103 1142 2972 
Q 928 2841 928 2578 
Q 928 2378 1081 2264 
Q 1234 2150 1697 2047 
L 1894 2003 
Q 2506 1872 2764 1633 
Q 3022 1394 3022 966 
Q 3022 478 2636 193 
Q 2250 -91 1575 -91 
Q 1294 -91 989 -36 
Q 684 19 347 128 
L 347 722 
Q 666 556 975 473 
Q 1284 391 1588 391 
Q 1994 391 2212 530 
Q 2431 669 2431 922 
Q 2431 1156 2273 1281 
Q 2116 1406 1581 1522 
L 1381 1569 
Q 847 1681 609 1914 
Q 372 2147 372 2553 
Q 372 3047 722 3315 
Q 1072 3584 1716 3584 
Q 2034 3584 2315 3537 
Q 2597 3491 2834 3397 
z
" transform="scale(0.015625)"/>
       <path id="DejaVuSans-20" transform="scale(0.015625)"/>
       <path id="DejaVuSans-5b" d="M 550 4863 
L 1875 4863 
L 1875 4416 
L 1125 4416 
L 1125 -397 
L 1875 -397 
L 1875 -844 
L 550 -844 
L 550 4863 
z
" transform="scale(0.015625)"/>
       <path id="DejaVuSans-b5" d="M 544 -1331 
L 544 3500 
L 1119 3500 
L 1119 1325 
Q 1119 872 1334 640 
Q 1550 409 1972 409 
Q 2434 409 2667 671 
Q 2900 934 2900 1459 
L 2900 3500 
L 3475 3500 
L 3475 806 
Q 3475 619 3529 530 
Q 3584 441 3700 441 
Q 3728 441 3778 458 
Q 3828 475 3916 513 
L 3916 50 
Q 3788 -22 3673 -56 
Q 3559 -91 3450 -91 
Q 3234 -91 3106 31 
Q 2978 153 2931 403 
Q 2775 156 2548 32 
Q 2322 -91 2016 -91 
Q 1697 -91 1473 31 
Q 1250 153 1119 397 
L 1119 -1331 
L 544 -1331 
z
" transform="scale(0.015625)"/>
       <path id="DejaVuSans-5d" d="M 1947 4863 
L 1947 -844 
L 622 -844 
L 622 -397 
L 1369 -397 
L 1369 4416 
L 622 4416 
L 622 4863 
L 1947 4863 
z
" transform="scale(0.015625)"/>
      </defs>
      <use xlink:href="#DejaVuSans-65"/>
      <use xlink:href="#DejaVuSans-76" transform="translate(61.523438 0)"/>
      <use xlink:href="#DejaVuSans-65" transform="translate(120.703125 0)"/>
      <use xlink:href="#DejaVuSans-6e" transform="translate(182.226562 0)"/>
      <use xlink:href="#DejaVuSans-74" transform="translate(245.605469 0)"/>
      <use xlink:href="#DejaVuSans-5f" transform="translate(284.814453 0)"/>
      <use xlink:href="#DejaVuSans-74" transform="translate(334.814453 0)"/>
      <use xlink:href="#DejaVuSans-69" transform="translate(374.023438 0)"/>
      <use xlink:href="#DejaVuSans-6d" transform="translate(401.806641 0)"/>
      <use xlink:href="#DejaVuSans-65" transform="translate(499.21875 0)"/>
      <use xlink:href="#DejaVuSans-5f" transform="translate(560.742188 0)"/>
      <use xlink:href="#DejaVuSans-6f" transform="translate(610.742188 0)"/>
      <use xlink:href="#DejaVuSans-66" transform="translate(671.923828 0)"/>
      <use xlink:href="#DejaVuSans-66" transform="translate(707.128906 0)"/>
      <use xlink:href="#DejaVuSans-73" transform="translate(742.333984 0)"/>
      <use xlink:href="#DejaVuSans-65" transform="translate(794.433594 0)"/>
      <use xlink:href="#DejaVuSans-74" transform="translate(855.957031 0)"/>
      <use xlink:href="#DejaVuSans-20" transform="translate(895.166016 0)"/>
      <use xlink:href="#DejaVuSans-5b" transform="translate(926.953125 0)"/>
      <use xlink:href="#DejaVuSans-b5" transform="translate(965.966797 0)"/>
      <use xlink:href="#DejaVuSans-73" transform="translate(1029.589844 0)"/>
      <use xlink:href="#DejaVuSans-5d" transform="translate(1081.689453 0)"/>
     </g>
    </g>
   </g>
   <g id="matplotlib.axis_2">
    <g id="ytick_1">
     <g id="line2d_9">
      <defs>
       <path id="mb7ca26f9cc" d="M 0 0 
L -3.5 0 
" style="stroke: #000000; stroke-width: 0.8"/>
      </defs>
      <g>
       <use xlink:href="#mb7ca26f9cc" x="46.965625" y="218.88" style="stroke: #000000; stroke-width: 0.8"/>
      </g>
     </g>
     <g id="text_10">
      <!-- 0 -->
      <g transform="translate(33.603125 222.679219) scale(0.1 -0.1)">
       <use xlink:href="#DejaVuSans-30"/>
      </g>
     </g>
    </g>
    <g id="ytick_2">
     <g id="line2d_10">
      <g>
       <use xlink:href="#mb7ca26f9cc" x="46.965625" y="183.44942" style="stroke: #000000; stroke-width: 0.8"/>
      </g>
     </g>
     <g id="text_11">
      <!-- 100 -->
      <g transform="translate(20.878125 187.248639) scale(0.1 -0.1)">
       <use xlink:href="#DejaVuSans-31"/>
       <use xlink:href="#DejaVuSans-30" transform="translate(63.623047 0)"/>
       <use xlink:href="#DejaVuSans-30" transform="translate(127.246094 0)"/>
      </g>
     </g>
    </g>
    <g id="ytick_3">
     <g id="line2d_11">
      <g>
       <use xlink:href="#mb7ca26f9cc" x="46.965625" y="148.01884" style="stroke: #000000; stroke-width: 0.8"/>
      </g>
     </g>
     <g id="text_12">
      <!-- 200 -->
      <g transform="translate(20.878125 151.818059) scale(0.1 -0.1)">
       <use xlink:href="#DejaVuSans-32"/>
       <use xlink:href="#DejaVuSans-30" transform="translate(63.623047 0)"/>
       <use xlink:href="#DejaVuSans-30" transform="translate(127.246094 0)"/>
      </g>
     </g>
    </g>
    <g id="ytick_4">
     <g id="line2d_12">
      <g>
       <use xlink:href="#mb7ca26f9cc" x="46.965625" y="112.58826" style="stroke: #000000; stroke-width: 0.8"/>
      </g>
     </g>
     <g id="text_13">
      <!-- 300 -->
      <g transform="translate(20.878125 116.387479) scale(0.1 -0.1)">
       <use xlink:href="#DejaVuSans-33"/>
       <use xlink:href="#DejaVuSans-30" transform="translate(63.623047 0)"/>
       <use xlink:href="#DejaVuSans-30" transform="translate(127.246094 0)"/>
      </g>
     </g>
    </g>
    <g id="ytick_5">
     <g id="line2d_13">
      <g>
       <use xlink:href="#mb7ca26f9cc" x="46.965625" y="77.15768" style="stroke: #000000; stroke-width: 0.8"/>
      </g>
     </g>
     <g id="text_14">
      <!-- 400 -->
      <g transform="translate(20.878125 80.956899) scale(0.1 -0.1)">
       <use xlink:href="#DejaVuSans-34"/>
       <use xlink:href="#DejaVuSans-30" transform="translate(63.623047 0)"/>
       <use xlink:href="#DejaVuSans-30" transform="translate(127.246094 0)"/>
      </g>
     </g>
    </g>
    <g id="ytick_6">
     <g id="line2d_14">
      <g>
       <use xlink:href="#mb7ca26f9cc" x="46.965625" y="41.7271" style="stroke: #000000; stroke-width: 0.8"/>
      </g>
     </g>
     <g id="text_15">
      <!-- 500 -->
      <g transform="translate(20.878125 45.526319) scale(0.1 -0.1)">
       <use xlink:href="#DejaVuSans-35"/>
       <use xlink:href="#DejaVuSans-30" transform="translate(63.623047 0)"/>
       <use xlink:href="#DejaVuSans-30" transform="translate(127.246094 0)"/>
      </g>
     </g>
    </g>
    <g id="text_16">
     <!-- [counts] -->
     <g transform="translate(14.798438 138.6925) rotate(-90) scale(0.1 -0.1)">
      <defs>
       <path id="DejaVuSans-63" d="M 3122 3366 
L 3122 2828 
Q 2878 2963 2633 3030 
Q 2388 3097 2138 3097 
Q 1578 3097 1268 2742 
Q 959 2388 959 1747 
Q 959 1106 1268 751 
Q 1578 397 2138 397 
Q 2388 397 2633 464 
Q 2878 531 3122 666 
L 3122 134 
Q 2881 22 2623 -34 
Q 2366 -91 2075 -91 
Q 1284 -91 818 406 
Q 353 903 353 1747 
Q 353 2603 823 3093 
Q 1294 3584 2113 3584 
Q 2378 3584 2631 3529 
Q 2884 3475 3122 3366 
z
" transform="scale(0.015625)"/>
       <path id="DejaVuSans-75" d="M 544 1381 
L 544 3500 
L 1119 3500 
L 1119 1403 
Q 1119 906 1312 657 
Q 1506 409 1894 409 
Q 2359 409 2629 706 
Q 2900 1003 2900 1516 
L 2900 3500 
L 3475 3500 
L 3475 0 
L 2900 0 
L 2900 538 
Q 2691 219 2414 64 
Q 2138 -91 1772 -91 
Q 1169 -91 856 284 
Q 544 659 544 1381 
z
M 1991 3584 
L 1991 3584 
z
" transform="scale(0.015625)"/>
      </defs>
      <use xlink:href="#DejaVuSans-5b"/>
      <use xlink:href="#DejaVuSans-63" transform="translate(39.013672 0)"/>
      <use xlink:href="#DejaVuSans-6f" transform="translate(93.994141 0)"/>
      <use xlink:href="#DejaVuSans-75" transform="translate(155.175781 0)"/>
      <use xlink:href="#DejaVuSans-6e" transform="translate(218.554688 0)"/>
      <use xlink:href="#DejaVuSans-74" transform="translate(281.933594 0)"/>
      <use xlink:href="#DejaVuSans-73" transform="translate(321.142578 0)"/>
      <use xlink:href="#DejaVuSans-5d" transform="translate(373.242188 0)"/>
     </g>
    </g>
   </g>
   <g id="line2d_15">
    <path d="M 62.183807 114.005483 
L 63.198352 114.005483 
L 63.198352 110.816731 
L 64.212898 110.816731 
L 64.212898 125.343269 
L 65.227443 125.343269 
L 65.227443 126.05188 
L 66.241989 126.05188 
L 66.241989 121.445905 
L 67.256534 121.445905 
L 67.256534 117.548541 
L 68.27108 117.548541 
L 68.27108 118.611459 
L 69.285625 118.611459 
L 69.285625 123.57174 
L 70.30017 123.57174 
L 70.30017 128.177715 
L 71.314716 128.177715 
L 71.314716 130.657856 
L 72.329261 130.657856 
L 72.329261 123.926046 
L 73.343807 123.926046 
L 73.343807 129.240633 
L 74.358352 129.240633 
L 74.358352 131.366467 
L 75.372898 131.366467 
L 75.372898 135.263831 
L 76.387443 135.263831 
L 76.387443 148.727452 
L 77.401989 148.727452 
L 77.401989 135.972443 
L 78.416534 135.972443 
L 78.416534 144.475782 
L 79.43108 144.475782 
L 79.43108 144.121476 
L 80.445625 144.121476 
L 80.445625 138.806889 
L 81.46017 138.806889 
L 81.46017 138.098278 
L 82.474716 138.098278 
L 82.474716 147.664534 
L 83.489261 147.664534 
L 83.489261 157.230791 
L 84.503807 157.230791 
L 84.503807 148.727452 
L 85.518352 148.727452 
L 85.518352 145.893005 
L 86.532898 145.893005 
L 86.532898 149.436063 
L 87.547443 149.436063 
L 87.547443 143.412865 
L 88.561989 143.412865 
L 88.561989 155.813568 
L 89.576534 155.813568 
L 89.576534 154.042039 
L 90.59108 154.042039 
L 90.59108 152.27051 
L 91.605625 152.27051 
L 91.605625 154.396344 
L 92.62017 154.396344 
L 92.62017 148.373146 
L 93.634716 148.373146 
L 93.634716 153.687733 
L 94.649261 153.687733 
L 94.649261 168.214271 
L 95.663807 168.214271 
L 95.663807 156.522179 
L 96.678352 156.522179 
L 96.678352 159.00232 
L 97.692898 159.00232 
L 97.692898 169.631494 
L 98.707443 169.631494 
L 98.707443 160.419543 
L 99.721989 160.419543 
L 99.721989 171.757329 
L 100.736534 171.757329 
L 100.736534 173.174552 
L 101.75108 173.174552 
L 101.75108 174.591775 
L 102.765625 174.591775 
L 102.765625 171.403023 
L 103.78017 171.403023 
L 103.78017 177.071916 
L 104.794716 177.071916 
L 104.794716 177.426221 
L 105.809261 177.426221 
L 105.809261 177.071916 
L 106.823807 177.071916 
L 106.823807 175.654692 
L 107.838352 175.654692 
L 107.838352 180.614974 
L 108.852898 180.614974 
L 108.852898 186.283866 
L 109.867443 186.283866 
L 109.867443 188.055395 
L 110.881989 188.055395 
L 110.881989 193.724288 
L 111.896534 193.724288 
L 111.896534 190.889842 
L 112.91108 190.889842 
L 112.91108 191.598453 
L 113.925625 191.598453 
L 113.925625 197.975958 
L 114.94017 197.975958 
L 114.94017 200.101793 
L 115.954716 200.101793 
L 115.954716 203.290545 
L 116.969261 203.290545 
L 116.969261 203.999156 
L 118.998352 203.999156 
L 118.998352 206.479297 
L 120.012898 206.479297 
L 120.012898 205.770685 
L 121.027443 205.770685 
L 121.027443 208.250826 
L 124.07108 208.250826 
L 124.07108 209.668049 
L 125.085625 209.668049 
L 125.085625 214.62833 
L 126.10017 214.62833 
L 126.10017 212.856801 
L 127.114716 212.856801 
L 127.114716 214.274025 
L 128.129261 214.274025 
L 128.129261 217.108471 
L 129.143807 217.108471 
L 129.143807 214.982636 
L 130.158352 214.982636 
L 130.158352 216.754165 
L 131.172898 216.754165 
L 131.172898 218.171388 
L 134.216534 218.171388 
L 134.216534 218.525694 
L 135.23108 218.525694 
L 135.23108 218.88 
L 148.42017 218.88 
L 148.42017 218.525694 
L 149.434716 218.525694 
L 149.434716 216.399859 
L 150.449261 216.399859 
L 150.449261 210.022355 
L 151.463807 210.022355 
L 151.463807 207.542214 
L 152.478352 207.542214 
L 152.478352 199.747487 
L 153.492898 199.747487 
L 153.492898 195.141511 
L 154.507443 195.141511 
L 154.507443 191.952759 
L 155.521989 191.952759 
L 155.521989 177.426221 
L 156.536534 177.426221 
L 156.536534 176.008998 
L 158.565625 176.008998 
L 158.565625 168.922882 
L 159.58017 168.922882 
L 159.58017 168.568576 
L 160.594716 168.568576 
L 160.594716 154.042039 
L 161.609261 154.042039 
L 161.609261 148.727452 
L 162.623807 148.727452 
L 162.623807 140.932724 
L 163.638352 140.932724 
L 163.638352 133.137996 
L 164.652898 133.137996 
L 164.652898 144.121476 
L 165.667443 144.121476 
L 165.667443 129.949244 
L 167.696534 129.949244 
L 167.696534 123.217434 
L 168.71108 123.217434 
L 168.71108 108.336591 
L 170.74017 108.336591 
L 170.74017 104.793533 
L 171.754716 104.793533 
L 171.754716 97.353111 
L 172.769261 97.353111 
L 172.769261 93.455747 
L 173.783807 93.455747 
L 173.783807 91.329912 
L 174.798352 91.329912 
L 174.798352 75.740457 
L 175.812898 75.740457 
L 175.812898 83.535185 
L 176.827443 83.535185 
L 176.827443 78.220598 
L 177.841989 78.220598 
L 177.841989 66.882812 
L 178.856534 66.882812 
L 178.856534 69.717258 
L 179.87108 69.717258 
L 179.87108 65.111283 
L 180.885625 65.111283 
L 180.885625 69.362953 
L 181.90017 69.362953 
L 181.90017 67.237118 
L 182.914716 67.237118 
L 182.914716 48.104605 
L 183.929261 48.104605 
L 183.929261 40.309877 
L 184.943807 40.309877 
L 184.943807 44.915852 
L 185.958352 44.915852 
L 185.958352 37.829736 
L 186.972898 37.829736 
L 186.972898 46.687381 
L 187.987443 46.687381 
L 187.987443 36.058207 
L 189.001989 36.058207 
L 189.001989 35.349596 
L 190.016534 35.349596 
L 190.016534 42.081406 
L 191.03108 42.081406 
L 191.03108 33.223761 
L 192.045625 33.223761 
L 192.045625 24.366116 
L 193.06017 24.366116 
L 193.06017 38.892654 
L 194.074716 38.892654 
L 194.074716 30.389315 
L 195.089261 30.389315 
L 195.089261 27.909174 
L 196.103807 27.909174 
L 196.103807 43.498629 
L 197.118352 43.498629 
L 197.118352 17.28 
L 198.132898 17.28 
L 198.132898 39.955571 
L 199.147443 39.955571 
L 199.147443 30.74362 
L 200.161989 30.74362 
L 200.161989 31.806538 
L 201.176534 31.806538 
L 201.176534 37.475431 
L 202.19108 37.475431 
L 202.19108 43.498629 
L 203.205625 43.498629 
L 203.205625 36.058207 
L 204.22017 36.058207 
L 204.22017 44.561547 
L 205.234716 44.561547 
L 205.234716 35.703902 
L 206.249261 35.703902 
L 206.249261 43.852935 
L 207.263807 43.852935 
L 207.263807 47.041687 
L 208.278352 47.041687 
L 208.278352 59.088084 
L 209.292898 59.088084 
L 209.292898 48.104605 
L 210.307443 48.104605 
L 210.307443 44.915852 
L 211.321989 44.915852 
L 211.321989 62.985448 
L 212.336534 62.985448 
L 212.336534 44.561547 
L 213.35108 44.561547 
L 213.35108 61.922531 
L 214.365625 61.922531 
L 214.365625 58.733779 
L 215.38017 58.733779 
L 215.38017 59.088084 
L 216.394716 59.088084 
L 216.394716 54.482109 
L 217.409261 54.482109 
L 217.409261 56.253638 
L 218.423807 56.253638 
L 218.423807 46.687381 
L 219.438352 46.687381 
L 219.438352 64.756977 
L 220.452898 64.756977 
L 220.452898 54.836415 
L 221.467443 54.836415 
L 221.467443 68.654341 
L 222.481989 68.654341 
L 222.481989 57.316555 
L 223.496534 57.316555 
L 223.496534 62.985448 
L 224.51108 62.985448 
L 224.51108 64.048366 
L 225.525625 64.048366 
L 225.525625 69.008647 
L 226.54017 69.008647 
L 226.54017 58.379473 
L 227.554716 58.379473 
L 227.554716 62.631142 
L 228.569261 62.631142 
L 228.569261 73.614622 
L 229.583807 73.614622 
L 229.583807 70.42587 
L 230.598352 70.42587 
L 230.598352 76.803374 
L 231.612898 76.803374 
L 231.612898 88.14116 
L 232.627443 88.14116 
L 232.627443 86.015325 
L 233.641989 86.015325 
L 233.641989 64.048366 
L 234.656534 64.048366 
L 234.656534 77.511986 
L 235.67108 77.511986 
L 235.67108 61.568225 
L 236.685625 61.568225 
L 236.685625 71.843093 
L 237.70017 71.843093 
L 237.70017 65.465589 
L 238.714716 65.465589 
L 238.714716 63.69406 
L 239.729261 63.69406 
L 239.729261 73.260316 
L 240.743807 73.260316 
L 240.743807 78.574903 
L 241.758352 78.574903 
L 241.758352 66.528506 
L 242.772898 66.528506 
L 242.772898 88.849772 
L 243.787443 88.849772 
L 243.787443 84.243796 
L 244.801989 84.243796 
L 244.801989 79.992127 
L 245.816534 79.992127 
L 245.816534 81.763656 
L 246.83108 81.763656 
L 246.83108 75.031845 
L 247.845625 75.031845 
L 247.845625 81.763656 
L 248.86017 81.763656 
L 248.86017 76.449069 
L 249.874716 76.449069 
L 249.874716 82.117961 
L 250.889261 82.117961 
L 250.889261 102.667698 
L 251.903807 102.667698 
L 251.903807 95.227276 
L 252.918352 95.227276 
L 252.918352 94.518664 
L 253.932898 94.518664 
L 253.932898 85.661019 
L 254.947443 85.661019 
L 254.947443 115.068401 
L 255.961989 115.068401 
L 255.961989 102.313392 
L 256.976534 102.313392 
L 256.976534 105.502144 
L 257.99108 105.502144 
L 257.99108 117.194236 
L 259.005625 117.194236 
L 259.005625 108.336591 
L 260.02017 108.336591 
L 260.02017 113.651178 
L 261.034716 113.651178 
L 261.034716 120.382988 
L 262.049261 120.382988 
L 262.049261 128.532021 
L 263.063807 128.532021 
L 263.063807 143.76717 
L 264.078352 143.76717 
L 264.078352 144.121476 
L 265.092898 144.121476 
L 265.092898 139.869807 
L 266.107443 139.869807 
L 266.107443 144.121476 
L 267.121989 144.121476 
L 267.121989 156.167873 
L 268.136534 156.167873 
L 268.136534 155.459262 
L 269.15108 155.459262 
L 269.15108 146.247311 
L 270.165625 146.247311 
L 270.165625 168.922882 
L 271.18017 168.922882 
L 271.18017 172.46594 
L 272.194716 172.46594 
L 272.194716 175.300387 
L 273.209261 175.300387 
L 273.209261 179.19775 
L 274.223807 179.19775 
L 274.223807 182.032197 
L 275.238352 182.032197 
L 275.238352 184.512337 
L 276.252898 184.512337 
L 276.252898 182.740808 
L 277.267443 182.740808 
L 277.267443 197.621652 
L 278.281989 197.621652 
L 278.281989 203.999156 
L 279.296534 203.999156 
L 279.296534 207.542214 
L 280.31108 207.542214 
L 280.31108 204.353462 
L 281.325625 204.353462 
L 281.325625 207.187909 
L 282.34017 207.187909 
L 282.34017 214.982636 
L 283.354716 214.982636 
L 283.354716 213.919719 
L 284.369261 213.919719 
L 284.369261 215.691248 
L 285.383807 215.691248 
L 285.383807 216.399859 
L 286.398352 216.399859 
L 286.398352 218.88 
L 298.572898 218.88 
L 298.572898 217.108471 
L 299.587443 217.108471 
L 299.587443 210.022355 
L 300.601989 210.022355 
L 300.601989 202.227627 
L 301.616534 202.227627 
L 301.616534 200.456098 
L 302.63108 200.456098 
L 302.63108 195.141511 
L 303.645625 195.141511 
L 303.645625 188.055395 
L 304.66017 188.055395 
L 304.66017 185.929561 
L 305.674716 185.929561 
L 305.674716 189.472619 
L 306.689261 189.472619 
L 306.689261 169.9858 
L 307.703807 169.9858 
L 307.703807 173.528858 
L 308.718352 173.528858 
L 308.718352 168.214271 
L 309.732898 168.214271 
L 309.732898 165.025518 
L 310.747443 165.025518 
L 310.747443 161.836766 
L 311.761989 161.836766 
L 311.761989 161.48246 
L 312.776534 161.48246 
L 312.776534 157.230791 
L 313.79108 157.230791 
L 313.79108 146.247311 
L 314.805625 146.247311 
L 314.805625 153.333427 
L 315.82017 153.333427 
L 315.82017 151.561898 
L 316.834716 151.561898 
L 316.834716 143.412865 
L 317.849261 143.412865 
L 317.849261 149.436063 
L 318.863807 149.436063 
L 318.863807 136.326749 
L 319.878352 136.326749 
L 319.878352 129.949244 
L 320.892898 129.949244 
L 320.892898 136.326749 
L 321.907443 136.326749 
L 321.907443 130.30355 
L 322.921989 130.30355 
L 322.921989 126.760492 
L 323.936534 126.760492 
L 323.936534 124.988963 
L 324.95108 124.988963 
L 324.95108 133.492302 
L 325.965625 133.492302 
L 325.965625 112.942566 
L 326.98017 112.942566 
L 326.98017 117.194236 
L 327.994716 117.194236 
L 327.994716 113.296872 
L 329.009261 113.296872 
L 329.009261 107.273673 
L 330.023807 107.273673 
L 330.023807 109.399508 
L 331.038352 109.399508 
L 331.038352 101.60478 
L 332.052898 101.60478 
L 332.052898 114.359789 
L 333.067443 114.359789 
L 333.067443 114.005483 
L 334.081989 114.005483 
L 334.081989 105.502144 
L 335.096534 105.502144 
L 335.096534 108.690896 
L 336.11108 108.690896 
L 336.11108 85.661019 
L 337.125625 85.661019 
L 337.125625 97.353111 
L 338.14017 97.353111 
L 338.14017 89.204077 
L 339.154716 89.204077 
L 339.154716 77.511986 
L 340.169261 77.511986 
L 340.169261 97.707417 
L 341.183807 97.707417 
L 341.183807 103.022004 
L 342.198352 103.022004 
L 342.198352 82.472267 
L 343.212898 82.472267 
L 343.212898 101.250475 
L 344.227443 101.250475 
L 344.227443 94.518664 
L 345.241989 94.518664 
L 345.241989 84.598102 
L 346.256534 84.598102 
L 346.256534 101.250475 
L 347.27108 101.250475 
L 347.27108 89.558383 
L 348.285625 89.558383 
L 348.285625 99.833251 
L 349.30017 99.833251 
L 349.30017 91.684218 
L 350.314716 91.684218 
L 350.314716 107.273673 
L 351.329261 107.273673 
L 351.329261 96.290193 
L 352.343807 96.290193 
L 352.343807 95.581582 
L 353.358352 95.581582 
L 353.358352 100.187557 
L 354.372898 100.187557 
L 354.372898 107.627979 
L 355.387443 107.627979 
L 355.387443 108.690896 
L 356.401989 108.690896 
L 356.401989 102.313392 
L 357.416534 102.313392 
L 357.416534 112.58826 
L 358.43108 112.58826 
L 358.43108 114.005483 
L 359.445625 114.005483 
L 359.445625 121.091599 
L 360.46017 121.091599 
L 360.46017 113.296872 
L 361.474716 113.296872 
L 361.474716 116.485624 
L 362.489261 116.485624 
L 362.489261 103.730615 
L 363.503807 103.730615 
L 363.503807 113.651178 
L 365.532898 113.651178 
L 365.532898 122.154517 
L 366.547443 122.154517 
L 366.547443 122.154517 
" clip-path="url(#p183fcebd78)" style="fill: none; stroke: #1f77b4; stroke-width: 1.5; stroke-linecap: square"/>
   </g>
   <g id="patch_3">
    <path d="M 46.965625 228.96 
L 46.965625 7.2 
" style="fill: none; stroke: #000000; stroke-width: 0.8; stroke-linejoin: miter; stroke-linecap: square"/>
   </g>
   <g id="patch_4">
    <path d="M 381.765625 228.96 
L 381.765625 7.2 
" style="fill: none; stroke: #000000; stroke-width: 0.8; stroke-linejoin: miter; stroke-linecap: square"/>
   </g>
   <g id="patch_5">
    <path d="M 46.965625 228.96 
L 381.765625 228.96 
" style="fill: none; stroke: #000000; stroke-width: 0.8; stroke-linejoin: miter; stroke-linecap: square"/>
   </g>
   <g id="patch_6">
    <path d="M 46.965625 7.2 
L 381.765625 7.2 
" style="fill: none; stroke: #000000; stroke-width: 0.8; stroke-linejoin: miter; stroke-linecap: square"/>
   </g>
  </g>
 </g>
 <defs>
  <clipPath id="p183fcebd78">
   <rect x="46.965625" y="7.2" width="334.8" height="221.76"/>
  </clipPath>
 </defs>
</svg>
