<?xml version="1.0" encoding="utf-8" standalone="no"?>
<!DOCTYPE svg PUBLIC "-//W3C//DTD SVG 1.1//EN"
  "http://www.w3.org/Graphics/SVG/1.1/DTD/svg11.dtd">
<svg xmlns:xlink="http://www.w3.org/1999/xlink" width="395.328125pt" height="266.51625pt" viewBox="0 0 395.328125 266.51625" xmlns="http://www.w3.org/2000/svg" version="1.1">
 <metadata>
  <rdf:RDF xmlns:dc="http://purl.org/dc/elements/1.1/" xmlns:cc="http://creativecommons.org/ns#" xmlns:rdf="http://www.w3.org/1999/02/22-rdf-syntax-ns#">
   <cc:Work>
    <dc:type rdf:resource="http://purl.org/dc/dcmitype/StillImage"/>
    <dc:date>2025-04-10T08:51:09.707019</dc:date>
    <dc:format>image/svg+xml</dc:format>
    <dc:creator>
     <cc:Agent>
      <dc:title>Matplotlib v3.10.1, https://matplotlib.org/</dc:title>
     </cc:Agent>
    </dc:creator>
   </cc:Work>
  </rdf:RDF>
 </metadata>
 <defs>
  <style type="text/css">*{stroke-linejoin: round; stroke-linecap: butt}</style>
 </defs>
 <g id="figure_1">
  <g id="patch_1">
   <path d="M 0 266.51625 
L 395.328125 266.51625 
L 395.328125 0 
L 0 0 
z
" style="fill: #ffffff"/>
  </g>
  <g id="axes_1">
   <g id="patch_2">
    <path d="M 53.328125 228.96 
L 388.128125 228.96 
L 388.128125 7.2 
L 53.328125 7.2 
z
" style="fill: #ffffff"/>
   </g>
   <g id="matplotlib.axis_1">
    <g id="xtick_1">
     <g id="line2d_1">
      <defs>
       <path id="m44206f2811" d="M 0 0 
L 0 3.5 
" style="stroke: #000000; stroke-width: 0.8"/>
      </defs>
      <g>
       <use xlink:href="#m44206f2811" x="59.159168" y="228.96" style="stroke: #000000; stroke-width: 0.8"/>
      </g>
     </g>
     <g id="text_1">
      <!-- 25000 -->
      <g transform="translate(43.252918 243.558437) scale(0.1 -0.1)">
       <defs>
        <path id="DejaVuSans-32" d="M 1228 531 
L 3431 531 
L 3431 0 
L 469 0 
L 469 531 
Q 828 903 1448 1529 
Q 2069 2156 2228 2338 
Q 2531 2678 2651 2914 
Q 2772 3150 2772 3378 
Q 2772 3750 2511 3984 
Q 2250 4219 1831 4219 
Q 1534 4219 1204 4116 
Q 875 4013 500 3803 
L 500 4441 
Q 881 4594 1212 4672 
Q 1544 4750 1819 4750 
Q 2544 4750 2975 4387 
Q 3406 4025 3406 3419 
Q 3406 3131 3298 2873 
Q 3191 2616 2906 2266 
Q 2828 2175 2409 1742 
Q 1991 1309 1228 531 
z
" transform="scale(0.015625)"/>
        <path id="DejaVuSans-35" d="M 691 4666 
L 3169 4666 
L 3169 4134 
L 1269 4134 
L 1269 2991 
Q 1406 3038 1543 3061 
Q 1681 3084 1819 3084 
Q 2600 3084 3056 2656 
Q 3513 2228 3513 1497 
Q 3513 744 3044 326 
Q 2575 -91 1722 -91 
Q 1428 -91 1123 -41 
Q 819 9 494 109 
L 494 744 
Q 775 591 1075 516 
Q 1375 441 1709 441 
Q 2250 441 2565 725 
Q 2881 1009 2881 1497 
Q 2881 1984 2565 2268 
Q 2250 2553 1709 2553 
Q 1456 2553 1204 2497 
Q 953 2441 691 2322 
L 691 4666 
z
" transform="scale(0.015625)"/>
        <path id="DejaVuSans-30" d="M 2034 4250 
Q 1547 4250 1301 3770 
Q 1056 3291 1056 2328 
Q 1056 1369 1301 889 
Q 1547 409 2034 409 
Q 2525 409 2770 889 
Q 3016 1369 3016 2328 
Q 3016 3291 2770 3770 
Q 2525 4250 2034 4250 
z
M 2034 4750 
Q 2819 4750 3233 4129 
Q 3647 3509 3647 2328 
Q 3647 1150 3233 529 
Q 2819 -91 2034 -91 
Q 1250 -91 836 529 
Q 422 1150 422 2328 
Q 422 3509 836 4129 
Q 1250 4750 2034 4750 
z
" transform="scale(0.015625)"/>
       </defs>
       <use xlink:href="#DejaVuSans-32"/>
       <use xlink:href="#DejaVuSans-35" transform="translate(63.623047 0)"/>
       <use xlink:href="#DejaVuSans-30" transform="translate(127.246094 0)"/>
       <use xlink:href="#DejaVuSans-30" transform="translate(190.869141 0)"/>
       <use xlink:href="#DejaVuSans-30" transform="translate(254.492188 0)"/>
      </g>
     </g>
    </g>
    <g id="xtick_2">
     <g id="line2d_2">
      <g>
       <use xlink:href="#m44206f2811" x="96.734925" y="228.96" style="stroke: #000000; stroke-width: 0.8"/>
      </g>
     </g>
     <g id="text_2">
      <!-- 50000 -->
      <g transform="translate(80.828675 243.558437) scale(0.1 -0.1)">
       <use xlink:href="#DejaVuSans-35"/>
       <use xlink:href="#DejaVuSans-30" transform="translate(63.623047 0)"/>
       <use xlink:href="#DejaVuSans-30" transform="translate(127.246094 0)"/>
       <use xlink:href="#DejaVuSans-30" transform="translate(190.869141 0)"/>
       <use xlink:href="#DejaVuSans-30" transform="translate(254.492188 0)"/>
      </g>
     </g>
    </g>
    <g id="xtick_3">
     <g id="line2d_3">
      <g>
       <use xlink:href="#m44206f2811" x="134.310683" y="228.96" style="stroke: #000000; stroke-width: 0.8"/>
      </g>
     </g>
     <g id="text_3">
      <!-- 75000 -->
      <g transform="translate(118.404433 243.558437) scale(0.1 -0.1)">
       <defs>
        <path id="DejaVuSans-37" d="M 525 4666 
L 3525 4666 
L 3525 4397 
L 1831 0 
L 1172 0 
L 2766 4134 
L 525 4134 
L 525 4666 
z
" transform="scale(0.015625)"/>
       </defs>
       <use xlink:href="#DejaVuSans-37"/>
       <use xlink:href="#DejaVuSans-35" transform="translate(63.623047 0)"/>
       <use xlink:href="#DejaVuSans-30" transform="translate(127.246094 0)"/>
       <use xlink:href="#DejaVuSans-30" transform="translate(190.869141 0)"/>
       <use xlink:href="#DejaVuSans-30" transform="translate(254.492188 0)"/>
      </g>
     </g>
    </g>
    <g id="xtick_4">
     <g id="line2d_4">
      <g>
       <use xlink:href="#m44206f2811" x="171.886441" y="228.96" style="stroke: #000000; stroke-width: 0.8"/>
      </g>
     </g>
     <g id="text_4">
      <!-- 100000 -->
      <g transform="translate(152.798941 243.558437) scale(0.1 -0.1)">
       <defs>
        <path id="DejaVuSans-31" d="M 794 531 
L 1825 531 
L 1825 4091 
L 703 3866 
L 703 4441 
L 1819 4666 
L 2450 4666 
L 2450 531 
L 3481 531 
L 3481 0 
L 794 0 
L 794 531 
z
" transform="scale(0.015625)"/>
       </defs>
       <use xlink:href="#DejaVuSans-31"/>
       <use xlink:href="#DejaVuSans-30" transform="translate(63.623047 0)"/>
       <use xlink:href="#DejaVuSans-30" transform="translate(127.246094 0)"/>
       <use xlink:href="#DejaVuSans-30" transform="translate(190.869141 0)"/>
       <use xlink:href="#DejaVuSans-30" transform="translate(254.492188 0)"/>
       <use xlink:href="#DejaVuSans-30" transform="translate(318.115234 0)"/>
      </g>
     </g>
    </g>
    <g id="xtick_5">
     <g id="line2d_5">
      <g>
       <use xlink:href="#m44206f2811" x="209.462198" y="228.96" style="stroke: #000000; stroke-width: 0.8"/>
      </g>
     </g>
     <g id="text_5">
      <!-- 125000 -->
      <g transform="translate(190.374698 243.558437) scale(0.1 -0.1)">
       <use xlink:href="#DejaVuSans-31"/>
       <use xlink:href="#DejaVuSans-32" transform="translate(63.623047 0)"/>
       <use xlink:href="#DejaVuSans-35" transform="translate(127.246094 0)"/>
       <use xlink:href="#DejaVuSans-30" transform="translate(190.869141 0)"/>
       <use xlink:href="#DejaVuSans-30" transform="translate(254.492188 0)"/>
       <use xlink:href="#DejaVuSans-30" transform="translate(318.115234 0)"/>
      </g>
     </g>
    </g>
    <g id="xtick_6">
     <g id="line2d_6">
      <g>
       <use xlink:href="#m44206f2811" x="247.037956" y="228.96" style="stroke: #000000; stroke-width: 0.8"/>
      </g>
     </g>
     <g id="text_6">
      <!-- 150000 -->
      <g transform="translate(227.950456 243.558437) scale(0.1 -0.1)">
       <use xlink:href="#DejaVuSans-31"/>
       <use xlink:href="#DejaVuSans-35" transform="translate(63.623047 0)"/>
       <use xlink:href="#DejaVuSans-30" transform="translate(127.246094 0)"/>
       <use xlink:href="#DejaVuSans-30" transform="translate(190.869141 0)"/>
       <use xlink:href="#DejaVuSans-30" transform="translate(254.492188 0)"/>
       <use xlink:href="#DejaVuSans-30" transform="translate(318.115234 0)"/>
      </g>
     </g>
    </g>
    <g id="xtick_7">
     <g id="line2d_7">
      <g>
       <use xlink:href="#m44206f2811" x="284.613713" y="228.96" style="stroke: #000000; stroke-width: 0.8"/>
      </g>
     </g>
     <g id="text_7">
      <!-- 175000 -->
      <g transform="translate(265.526213 243.558437) scale(0.1 -0.1)">
       <use xlink:href="#DejaVuSans-31"/>
       <use xlink:href="#DejaVuSans-37" transform="translate(63.623047 0)"/>
       <use xlink:href="#DejaVuSans-35" transform="translate(127.246094 0)"/>
       <use xlink:href="#DejaVuSans-30" transform="translate(190.869141 0)"/>
       <use xlink:href="#DejaVuSans-30" transform="translate(254.492188 0)"/>
       <use xlink:href="#DejaVuSans-30" transform="translate(318.115234 0)"/>
      </g>
     </g>
    </g>
    <g id="xtick_8">
     <g id="line2d_8">
      <g>
       <use xlink:href="#m44206f2811" x="322.189471" y="228.96" style="stroke: #000000; stroke-width: 0.8"/>
      </g>
     </g>
     <g id="text_8">
      <!-- 200000 -->
      <g transform="translate(303.101971 243.558437) scale(0.1 -0.1)">
       <use xlink:href="#DejaVuSans-32"/>
       <use xlink:href="#DejaVuSans-30" transform="translate(63.623047 0)"/>
       <use xlink:href="#DejaVuSans-30" transform="translate(127.246094 0)"/>
       <use xlink:href="#DejaVuSans-30" transform="translate(190.869141 0)"/>
       <use xlink:href="#DejaVuSans-30" transform="translate(254.492188 0)"/>
       <use xlink:href="#DejaVuSans-30" transform="translate(318.115234 0)"/>
      </g>
     </g>
    </g>
    <g id="xtick_9">
     <g id="line2d_9">
      <g>
       <use xlink:href="#m44206f2811" x="359.765228" y="228.96" style="stroke: #000000; stroke-width: 0.8"/>
      </g>
     </g>
     <g id="text_9">
      <!-- 225000 -->
      <g transform="translate(340.677728 243.558437) scale(0.1 -0.1)">
       <use xlink:href="#DejaVuSans-32"/>
       <use xlink:href="#DejaVuSans-32" transform="translate(63.623047 0)"/>
       <use xlink:href="#DejaVuSans-35" transform="translate(127.246094 0)"/>
       <use xlink:href="#DejaVuSans-30" transform="translate(190.869141 0)"/>
       <use xlink:href="#DejaVuSans-30" transform="translate(254.492188 0)"/>
       <use xlink:href="#DejaVuSans-30" transform="translate(318.115234 0)"/>
      </g>
     </g>
    </g>
    <g id="text_10">
     <!-- tof [µs] -->
     <g transform="translate(202.671875 257.236562) scale(0.1 -0.1)">
      <defs>
       <path id="DejaVuSans-74" d="M 1172 4494 
L 1172 3500 
L 2356 3500 
L 2356 3053 
L 1172 3053 
L 1172 1153 
Q 1172 725 1289 603 
Q 1406 481 1766 481 
L 2356 481 
L 2356 0 
L 1766 0 
Q 1100 0 847 248 
Q 594 497 594 1153 
L 594 3053 
L 172 3053 
L 172 3500 
L 594 3500 
L 594 4494 
L 1172 4494 
z
" transform="scale(0.015625)"/>
       <path id="DejaVuSans-6f" d="M 1959 3097 
Q 1497 3097 1228 2736 
Q 959 2375 959 1747 
Q 959 1119 1226 758 
Q 1494 397 1959 397 
Q 2419 397 2687 759 
Q 2956 1122 2956 1747 
Q 2956 2369 2687 2733 
Q 2419 3097 1959 3097 
z
M 1959 3584 
Q 2709 3584 3137 3096 
Q 3566 2609 3566 1747 
Q 3566 888 3137 398 
Q 2709 -91 1959 -91 
Q 1206 -91 779 398 
Q 353 888 353 1747 
Q 353 2609 779 3096 
Q 1206 3584 1959 3584 
z
" transform="scale(0.015625)"/>
       <path id="DejaVuSans-66" d="M 2375 4863 
L 2375 4384 
L 1825 4384 
Q 1516 4384 1395 4259 
Q 1275 4134 1275 3809 
L 1275 3500 
L 2222 3500 
L 2222 3053 
L 1275 3053 
L 1275 0 
L 697 0 
L 697 3053 
L 147 3053 
L 147 3500 
L 697 3500 
L 697 3744 
Q 697 4328 969 4595 
Q 1241 4863 1831 4863 
L 2375 4863 
z
" transform="scale(0.015625)"/>
       <path id="DejaVuSans-20" transform="scale(0.015625)"/>
       <path id="DejaVuSans-5b" d="M 550 4863 
L 1875 4863 
L 1875 4416 
L 1125 4416 
L 1125 -397 
L 1875 -397 
L 1875 -844 
L 550 -844 
L 550 4863 
z
" transform="scale(0.015625)"/>
       <path id="DejaVuSans-b5" d="M 544 -1331 
L 544 3500 
L 1119 3500 
L 1119 1325 
Q 1119 872 1334 640 
Q 1550 409 1972 409 
Q 2434 409 2667 671 
Q 2900 934 2900 1459 
L 2900 3500 
L 3475 3500 
L 3475 806 
Q 3475 619 3529 530 
Q 3584 441 3700 441 
Q 3728 441 3778 458 
Q 3828 475 3916 513 
L 3916 50 
Q 3788 -22 3673 -56 
Q 3559 -91 3450 -91 
Q 3234 -91 3106 31 
Q 2978 153 2931 403 
Q 2775 156 2548 32 
Q 2322 -91 2016 -91 
Q 1697 -91 1473 31 
Q 1250 153 1119 397 
L 1119 -1331 
L 544 -1331 
z
" transform="scale(0.015625)"/>
       <path id="DejaVuSans-73" d="M 2834 3397 
L 2834 2853 
Q 2591 2978 2328 3040 
Q 2066 3103 1784 3103 
Q 1356 3103 1142 2972 
Q 928 2841 928 2578 
Q 928 2378 1081 2264 
Q 1234 2150 1697 2047 
L 1894 2003 
Q 2506 1872 2764 1633 
Q 3022 1394 3022 966 
Q 3022 478 2636 193 
Q 2250 -91 1575 -91 
Q 1294 -91 989 -36 
Q 684 19 347 128 
L 347 722 
Q 666 556 975 473 
Q 1284 391 1588 391 
Q 1994 391 2212 530 
Q 2431 669 2431 922 
Q 2431 1156 2273 1281 
Q 2116 1406 1581 1522 
L 1381 1569 
Q 847 1681 609 1914 
Q 372 2147 372 2553 
Q 372 3047 722 3315 
Q 1072 3584 1716 3584 
Q 2034 3584 2315 3537 
Q 2597 3491 2834 3397 
z
" transform="scale(0.015625)"/>
       <path id="DejaVuSans-5d" d="M 1947 4863 
L 1947 -844 
L 622 -844 
L 622 -397 
L 1369 -397 
L 1369 4416 
L 622 4416 
L 622 4863 
L 1947 4863 
z
" transform="scale(0.015625)"/>
      </defs>
      <use xlink:href="#DejaVuSans-74"/>
      <use xlink:href="#DejaVuSans-6f" transform="translate(39.208984 0)"/>
      <use xlink:href="#DejaVuSans-66" transform="translate(100.390625 0)"/>
      <use xlink:href="#DejaVuSans-20" transform="translate(135.595703 0)"/>
      <use xlink:href="#DejaVuSans-5b" transform="translate(167.382812 0)"/>
      <use xlink:href="#DejaVuSans-b5" transform="translate(206.396484 0)"/>
      <use xlink:href="#DejaVuSans-73" transform="translate(270.019531 0)"/>
      <use xlink:href="#DejaVuSans-5d" transform="translate(322.119141 0)"/>
     </g>
    </g>
   </g>
   <g id="matplotlib.axis_2">
    <g id="ytick_1">
     <g id="line2d_10">
      <defs>
       <path id="m54aa3b149f" d="M 0 0 
L -3.5 0 
" style="stroke: #000000; stroke-width: 0.8"/>
      </defs>
      <g>
       <use xlink:href="#m54aa3b149f" x="53.328125" y="218.88" style="stroke: #000000; stroke-width: 0.8"/>
      </g>
     </g>
     <g id="text_11">
      <!-- 0 -->
      <g transform="translate(39.965625 222.679219) scale(0.1 -0.1)">
       <use xlink:href="#DejaVuSans-30"/>
      </g>
     </g>
    </g>
    <g id="ytick_2">
     <g id="line2d_11">
      <g>
       <use xlink:href="#m54aa3b149f" x="53.328125" y="190.565393" style="stroke: #000000; stroke-width: 0.8"/>
      </g>
     </g>
     <g id="text_12">
      <!-- 200 -->
      <g transform="translate(27.240625 194.364612) scale(0.1 -0.1)">
       <use xlink:href="#DejaVuSans-32"/>
       <use xlink:href="#DejaVuSans-30" transform="translate(63.623047 0)"/>
       <use xlink:href="#DejaVuSans-30" transform="translate(127.246094 0)"/>
      </g>
     </g>
    </g>
    <g id="ytick_3">
     <g id="line2d_12">
      <g>
       <use xlink:href="#m54aa3b149f" x="53.328125" y="162.250787" style="stroke: #000000; stroke-width: 0.8"/>
      </g>
     </g>
     <g id="text_13">
      <!-- 400 -->
      <g transform="translate(27.240625 166.050005) scale(0.1 -0.1)">
       <defs>
        <path id="DejaVuSans-34" d="M 2419 4116 
L 825 1625 
L 2419 1625 
L 2419 4116 
z
M 2253 4666 
L 3047 4666 
L 3047 1625 
L 3713 1625 
L 3713 1100 
L 3047 1100 
L 3047 0 
L 2419 0 
L 2419 1100 
L 313 1100 
L 313 1709 
L 2253 4666 
z
" transform="scale(0.015625)"/>
       </defs>
       <use xlink:href="#DejaVuSans-34"/>
       <use xlink:href="#DejaVuSans-30" transform="translate(63.623047 0)"/>
       <use xlink:href="#DejaVuSans-30" transform="translate(127.246094 0)"/>
      </g>
     </g>
    </g>
    <g id="ytick_4">
     <g id="line2d_13">
      <g>
       <use xlink:href="#m54aa3b149f" x="53.328125" y="133.93618" style="stroke: #000000; stroke-width: 0.8"/>
      </g>
     </g>
     <g id="text_14">
      <!-- 600 -->
      <g transform="translate(27.240625 137.735399) scale(0.1 -0.1)">
       <defs>
        <path id="DejaVuSans-36" d="M 2113 2584 
Q 1688 2584 1439 2293 
Q 1191 2003 1191 1497 
Q 1191 994 1439 701 
Q 1688 409 2113 409 
Q 2538 409 2786 701 
Q 3034 994 3034 1497 
Q 3034 2003 2786 2293 
Q 2538 2584 2113 2584 
z
M 3366 4563 
L 3366 3988 
Q 3128 4100 2886 4159 
Q 2644 4219 2406 4219 
Q 1781 4219 1451 3797 
Q 1122 3375 1075 2522 
Q 1259 2794 1537 2939 
Q 1816 3084 2150 3084 
Q 2853 3084 3261 2657 
Q 3669 2231 3669 1497 
Q 3669 778 3244 343 
Q 2819 -91 2113 -91 
Q 1303 -91 875 529 
Q 447 1150 447 2328 
Q 447 3434 972 4092 
Q 1497 4750 2381 4750 
Q 2619 4750 2861 4703 
Q 3103 4656 3366 4563 
z
" transform="scale(0.015625)"/>
       </defs>
       <use xlink:href="#DejaVuSans-36"/>
       <use xlink:href="#DejaVuSans-30" transform="translate(63.623047 0)"/>
       <use xlink:href="#DejaVuSans-30" transform="translate(127.246094 0)"/>
      </g>
     </g>
    </g>
    <g id="ytick_5">
     <g id="line2d_14">
      <g>
       <use xlink:href="#m54aa3b149f" x="53.328125" y="105.621573" style="stroke: #000000; stroke-width: 0.8"/>
      </g>
     </g>
     <g id="text_15">
      <!-- 800 -->
      <g transform="translate(27.240625 109.420792) scale(0.1 -0.1)">
       <defs>
        <path id="DejaVuSans-38" d="M 2034 2216 
Q 1584 2216 1326 1975 
Q 1069 1734 1069 1313 
Q 1069 891 1326 650 
Q 1584 409 2034 409 
Q 2484 409 2743 651 
Q 3003 894 3003 1313 
Q 3003 1734 2745 1975 
Q 2488 2216 2034 2216 
z
M 1403 2484 
Q 997 2584 770 2862 
Q 544 3141 544 3541 
Q 544 4100 942 4425 
Q 1341 4750 2034 4750 
Q 2731 4750 3128 4425 
Q 3525 4100 3525 3541 
Q 3525 3141 3298 2862 
Q 3072 2584 2669 2484 
Q 3125 2378 3379 2068 
Q 3634 1759 3634 1313 
Q 3634 634 3220 271 
Q 2806 -91 2034 -91 
Q 1263 -91 848 271 
Q 434 634 434 1313 
Q 434 1759 690 2068 
Q 947 2378 1403 2484 
z
M 1172 3481 
Q 1172 3119 1398 2916 
Q 1625 2713 2034 2713 
Q 2441 2713 2670 2916 
Q 2900 3119 2900 3481 
Q 2900 3844 2670 4047 
Q 2441 4250 2034 4250 
Q 1625 4250 1398 4047 
Q 1172 3844 1172 3481 
z
" transform="scale(0.015625)"/>
       </defs>
       <use xlink:href="#DejaVuSans-38"/>
       <use xlink:href="#DejaVuSans-30" transform="translate(63.623047 0)"/>
       <use xlink:href="#DejaVuSans-30" transform="translate(127.246094 0)"/>
      </g>
     </g>
    </g>
    <g id="ytick_6">
     <g id="line2d_15">
      <g>
       <use xlink:href="#m54aa3b149f" x="53.328125" y="77.306966" style="stroke: #000000; stroke-width: 0.8"/>
      </g>
     </g>
     <g id="text_16">
      <!-- 1000 -->
      <g transform="translate(20.878125 81.106185) scale(0.1 -0.1)">
       <use xlink:href="#DejaVuSans-31"/>
       <use xlink:href="#DejaVuSans-30" transform="translate(63.623047 0)"/>
       <use xlink:href="#DejaVuSans-30" transform="translate(127.246094 0)"/>
       <use xlink:href="#DejaVuSans-30" transform="translate(190.869141 0)"/>
      </g>
     </g>
    </g>
    <g id="ytick_7">
     <g id="line2d_16">
      <g>
       <use xlink:href="#m54aa3b149f" x="53.328125" y="48.99236" style="stroke: #000000; stroke-width: 0.8"/>
      </g>
     </g>
     <g id="text_17">
      <!-- 1200 -->
      <g transform="translate(20.878125 52.791578) scale(0.1 -0.1)">
       <use xlink:href="#DejaVuSans-31"/>
       <use xlink:href="#DejaVuSans-32" transform="translate(63.623047 0)"/>
       <use xlink:href="#DejaVuSans-30" transform="translate(127.246094 0)"/>
       <use xlink:href="#DejaVuSans-30" transform="translate(190.869141 0)"/>
      </g>
     </g>
    </g>
    <g id="ytick_8">
     <g id="line2d_17">
      <g>
       <use xlink:href="#m54aa3b149f" x="53.328125" y="20.677753" style="stroke: #000000; stroke-width: 0.8"/>
      </g>
     </g>
     <g id="text_18">
      <!-- 1400 -->
      <g transform="translate(20.878125 24.476972) scale(0.1 -0.1)">
       <use xlink:href="#DejaVuSans-31"/>
       <use xlink:href="#DejaVuSans-34" transform="translate(63.623047 0)"/>
       <use xlink:href="#DejaVuSans-30" transform="translate(127.246094 0)"/>
       <use xlink:href="#DejaVuSans-30" transform="translate(190.869141 0)"/>
      </g>
     </g>
    </g>
    <g id="text_19">
     <!-- [counts] -->
     <g transform="translate(14.798438 138.6925) rotate(-90) scale(0.1 -0.1)">
      <defs>
       <path id="DejaVuSans-63" d="M 3122 3366 
L 3122 2828 
Q 2878 2963 2633 3030 
Q 2388 3097 2138 3097 
Q 1578 3097 1268 2742 
Q 959 2388 959 1747 
Q 959 1106 1268 751 
Q 1578 397 2138 397 
Q 2388 397 2633 464 
Q 2878 531 3122 666 
L 3122 134 
Q 2881 22 2623 -34 
Q 2366 -91 2075 -91 
Q 1284 -91 818 406 
Q 353 903 353 1747 
Q 353 2603 823 3093 
Q 1294 3584 2113 3584 
Q 2378 3584 2631 3529 
Q 2884 3475 3122 3366 
z
" transform="scale(0.015625)"/>
       <path id="DejaVuSans-75" d="M 544 1381 
L 544 3500 
L 1119 3500 
L 1119 1403 
Q 1119 906 1312 657 
Q 1506 409 1894 409 
Q 2359 409 2629 706 
Q 2900 1003 2900 1516 
L 2900 3500 
L 3475 3500 
L 3475 0 
L 2900 0 
L 2900 538 
Q 2691 219 2414 64 
Q 2138 -91 1772 -91 
Q 1169 -91 856 284 
Q 544 659 544 1381 
z
M 1991 3584 
L 1991 3584 
z
" transform="scale(0.015625)"/>
       <path id="DejaVuSans-6e" d="M 3513 2113 
L 3513 0 
L 2938 0 
L 2938 2094 
Q 2938 2591 2744 2837 
Q 2550 3084 2163 3084 
Q 1697 3084 1428 2787 
Q 1159 2491 1159 1978 
L 1159 0 
L 581 0 
L 581 3500 
L 1159 3500 
L 1159 2956 
Q 1366 3272 1645 3428 
Q 1925 3584 2291 3584 
Q 2894 3584 3203 3211 
Q 3513 2838 3513 2113 
z
" transform="scale(0.015625)"/>
      </defs>
      <use xlink:href="#DejaVuSans-5b"/>
      <use xlink:href="#DejaVuSans-63" transform="translate(39.013672 0)"/>
      <use xlink:href="#DejaVuSans-6f" transform="translate(93.994141 0)"/>
      <use xlink:href="#DejaVuSans-75" transform="translate(155.175781 0)"/>
      <use xlink:href="#DejaVuSans-6e" transform="translate(218.554688 0)"/>
      <use xlink:href="#DejaVuSans-74" transform="translate(281.933594 0)"/>
      <use xlink:href="#DejaVuSans-73" transform="translate(321.142578 0)"/>
      <use xlink:href="#DejaVuSans-5d" transform="translate(373.242188 0)"/>
     </g>
    </g>
   </g>
   <g id="patch_3">
    <path d="M 53.328125 228.96 
L 53.328125 7.2 
" style="fill: none; stroke: #000000; stroke-width: 0.8; stroke-linejoin: miter; stroke-linecap: square"/>
   </g>
   <g id="patch_4">
    <path d="M 388.128125 228.96 
L 388.128125 7.2 
" style="fill: none; stroke: #000000; stroke-width: 0.8; stroke-linejoin: miter; stroke-linecap: square"/>
   </g>
   <g id="patch_5">
    <path d="M 53.328125 228.96 
L 388.128125 228.96 
" style="fill: none; stroke: #000000; stroke-width: 0.8; stroke-linejoin: miter; stroke-linecap: square"/>
   </g>
   <g id="patch_6">
    <path d="M 53.328125 7.2 
L 388.128125 7.2 
" style="fill: none; stroke: #000000; stroke-width: 0.8; stroke-linejoin: miter; stroke-linecap: square"/>
   </g>
   <g id="legend_1">
    <g id="patch_7">
     <path d="M 306.904688 73.9125 
L 381.128125 73.9125 
Q 383.128125 73.9125 383.128125 71.9125 
L 383.128125 14.2 
Q 383.128125 12.2 381.128125 12.2 
L 306.904688 12.2 
Q 304.904688 12.2 304.904688 14.2 
L 304.904688 71.9125 
Q 304.904688 73.9125 306.904688 73.9125 
z
" style="fill: #ffffff; opacity: 0.8; stroke: #cccccc; stroke-linejoin: miter"/>
    </g>
    <g id="line2d_18">
     <path d="M 308.904688 20.298437 
L 308.904688 20.298437 
L 318.904688 20.298437 
L 318.904688 20.298437 
L 328.904688 20.298437 
" style="fill: none; stroke: #1f77b4; stroke-width: 1.5; stroke-linecap: square"/>
    </g>
    <g id="text_20">
     <!-- beam -->
     <g transform="translate(336.904688 23.798437) scale(0.1 -0.1)">
      <defs>
       <path id="DejaVuSans-62" d="M 3116 1747 
Q 3116 2381 2855 2742 
Q 2594 3103 2138 3103 
Q 1681 3103 1420 2742 
Q 1159 2381 1159 1747 
Q 1159 1113 1420 752 
Q 1681 391 2138 391 
Q 2594 391 2855 752 
Q 3116 1113 3116 1747 
z
M 1159 2969 
Q 1341 3281 1617 3432 
Q 1894 3584 2278 3584 
Q 2916 3584 3314 3078 
Q 3713 2572 3713 1747 
Q 3713 922 3314 415 
Q 2916 -91 2278 -91 
Q 1894 -91 1617 61 
Q 1341 213 1159 525 
L 1159 0 
L 581 0 
L 581 4863 
L 1159 4863 
L 1159 2969 
z
" transform="scale(0.015625)"/>
       <path id="DejaVuSans-65" d="M 3597 1894 
L 3597 1613 
L 953 1613 
Q 991 1019 1311 708 
Q 1631 397 2203 397 
Q 2534 397 2845 478 
Q 3156 559 3463 722 
L 3463 178 
Q 3153 47 2828 -22 
Q 2503 -91 2169 -91 
Q 1331 -91 842 396 
Q 353 884 353 1716 
Q 353 2575 817 3079 
Q 1281 3584 2069 3584 
Q 2775 3584 3186 3129 
Q 3597 2675 3597 1894 
z
M 3022 2063 
Q 3016 2534 2758 2815 
Q 2500 3097 2075 3097 
Q 1594 3097 1305 2825 
Q 1016 2553 972 2059 
L 3022 2063 
z
" transform="scale(0.015625)"/>
       <path id="DejaVuSans-61" d="M 2194 1759 
Q 1497 1759 1228 1600 
Q 959 1441 959 1056 
Q 959 750 1161 570 
Q 1363 391 1709 391 
Q 2188 391 2477 730 
Q 2766 1069 2766 1631 
L 2766 1759 
L 2194 1759 
z
M 3341 1997 
L 3341 0 
L 2766 0 
L 2766 531 
Q 2569 213 2275 61 
Q 1981 -91 1556 -91 
Q 1019 -91 701 211 
Q 384 513 384 1019 
Q 384 1609 779 1909 
Q 1175 2209 1959 2209 
L 2766 2209 
L 2766 2266 
Q 2766 2663 2505 2880 
Q 2244 3097 1772 3097 
Q 1472 3097 1187 3025 
Q 903 2953 641 2809 
L 641 3341 
Q 956 3463 1253 3523 
Q 1550 3584 1831 3584 
Q 2591 3584 2966 3190 
Q 3341 2797 3341 1997 
z
" transform="scale(0.015625)"/>
       <path id="DejaVuSans-6d" d="M 3328 2828 
Q 3544 3216 3844 3400 
Q 4144 3584 4550 3584 
Q 5097 3584 5394 3201 
Q 5691 2819 5691 2113 
L 5691 0 
L 5113 0 
L 5113 2094 
Q 5113 2597 4934 2840 
Q 4756 3084 4391 3084 
Q 3944 3084 3684 2787 
Q 3425 2491 3425 1978 
L 3425 0 
L 2847 0 
L 2847 2094 
Q 2847 2600 2669 2842 
Q 2491 3084 2119 3084 
Q 1678 3084 1418 2786 
Q 1159 2488 1159 1978 
L 1159 0 
L 581 0 
L 581 3500 
L 1159 3500 
L 1159 2956 
Q 1356 3278 1631 3431 
Q 1906 3584 2284 3584 
Q 2666 3584 2933 3390 
Q 3200 3197 3328 2828 
z
" transform="scale(0.015625)"/>
      </defs>
      <use xlink:href="#DejaVuSans-62"/>
      <use xlink:href="#DejaVuSans-65" transform="translate(63.476562 0)"/>
      <use xlink:href="#DejaVuSans-61" transform="translate(125 0)"/>
      <use xlink:href="#DejaVuSans-6d" transform="translate(186.279297 0)"/>
     </g>
    </g>
    <g id="line2d_19">
     <path d="M 308.904688 34.976562 
L 308.904688 34.976562 
L 318.904688 34.976562 
L 318.904688 34.976562 
L 328.904688 34.976562 
" style="fill: none; stroke: #ff7f0e; stroke-width: 1.5; stroke-linecap: square"/>
    </g>
    <g id="text_21">
     <!-- sample -->
     <g transform="translate(336.904688 38.476562) scale(0.1 -0.1)">
      <defs>
       <path id="DejaVuSans-70" d="M 1159 525 
L 1159 -1331 
L 581 -1331 
L 581 3500 
L 1159 3500 
L 1159 2969 
Q 1341 3281 1617 3432 
Q 1894 3584 2278 3584 
Q 2916 3584 3314 3078 
Q 3713 2572 3713 1747 
Q 3713 922 3314 415 
Q 2916 -91 2278 -91 
Q 1894 -91 1617 61 
Q 1341 213 1159 525 
z
M 3116 1747 
Q 3116 2381 2855 2742 
Q 2594 3103 2138 3103 
Q 1681 3103 1420 2742 
Q 1159 2381 1159 1747 
Q 1159 1113 1420 752 
Q 1681 391 2138 391 
Q 2594 391 2855 752 
Q 3116 1113 3116 1747 
z
" transform="scale(0.015625)"/>
       <path id="DejaVuSans-6c" d="M 603 4863 
L 1178 4863 
L 1178 0 
L 603 0 
L 603 4863 
z
" transform="scale(0.015625)"/>
      </defs>
      <use xlink:href="#DejaVuSans-73"/>
      <use xlink:href="#DejaVuSans-61" transform="translate(52.099609 0)"/>
      <use xlink:href="#DejaVuSans-6d" transform="translate(113.378906 0)"/>
      <use xlink:href="#DejaVuSans-70" transform="translate(210.791016 0)"/>
      <use xlink:href="#DejaVuSans-6c" transform="translate(274.267578 0)"/>
      <use xlink:href="#DejaVuSans-65" transform="translate(302.050781 0)"/>
     </g>
    </g>
    <g id="line2d_20">
     <path d="M 308.904688 49.654687 
L 308.904688 49.654687 
L 318.904688 49.654687 
L 318.904688 49.654687 
L 328.904688 49.654687 
" style="fill: none; stroke: #2ca02c; stroke-width: 1.5; stroke-linecap: square"/>
    </g>
    <g id="text_22">
     <!-- monitor -->
     <g transform="translate(336.904688 53.154687) scale(0.1 -0.1)">
      <defs>
       <path id="DejaVuSans-69" d="M 603 3500 
L 1178 3500 
L 1178 0 
L 603 0 
L 603 3500 
z
M 603 4863 
L 1178 4863 
L 1178 4134 
L 603 4134 
L 603 4863 
z
" transform="scale(0.015625)"/>
       <path id="DejaVuSans-72" d="M 2631 2963 
Q 2534 3019 2420 3045 
Q 2306 3072 2169 3072 
Q 1681 3072 1420 2755 
Q 1159 2438 1159 1844 
L 1159 0 
L 581 0 
L 581 3500 
L 1159 3500 
L 1159 2956 
Q 1341 3275 1631 3429 
Q 1922 3584 2338 3584 
Q 2397 3584 2469 3576 
Q 2541 3569 2628 3553 
L 2631 2963 
z
" transform="scale(0.015625)"/>
      </defs>
      <use xlink:href="#DejaVuSans-6d"/>
      <use xlink:href="#DejaVuSans-6f" transform="translate(97.412109 0)"/>
      <use xlink:href="#DejaVuSans-6e" transform="translate(158.59375 0)"/>
      <use xlink:href="#DejaVuSans-69" transform="translate(221.972656 0)"/>
      <use xlink:href="#DejaVuSans-74" transform="translate(249.755859 0)"/>
      <use xlink:href="#DejaVuSans-6f" transform="translate(288.964844 0)"/>
      <use xlink:href="#DejaVuSans-72" transform="translate(350.146484 0)"/>
     </g>
    </g>
    <g id="line2d_21">
     <path d="M 308.904688 64.332812 
L 308.904688 64.332812 
L 318.904688 64.332812 
L 318.904688 64.332812 
L 328.904688 64.332812 
" style="fill: none; stroke: #d62728; stroke-width: 1.5; stroke-linecap: square"/>
    </g>
    <g id="text_23">
     <!-- detector -->
     <g transform="translate(336.904688 67.832812) scale(0.1 -0.1)">
      <defs>
       <path id="DejaVuSans-64" d="M 2906 2969 
L 2906 4863 
L 3481 4863 
L 3481 0 
L 2906 0 
L 2906 525 
Q 2725 213 2448 61 
Q 2172 -91 1784 -91 
Q 1150 -91 751 415 
Q 353 922 353 1747 
Q 353 2572 751 3078 
Q 1150 3584 1784 3584 
Q 2172 3584 2448 3432 
Q 2725 3281 2906 2969 
z
M 947 1747 
Q 947 1113 1208 752 
Q 1469 391 1925 391 
Q 2381 391 2643 752 
Q 2906 1113 2906 1747 
Q 2906 2381 2643 2742 
Q 2381 3103 1925 3103 
Q 1469 3103 1208 2742 
Q 947 2381 947 1747 
z
" transform="scale(0.015625)"/>
      </defs>
      <use xlink:href="#DejaVuSans-64"/>
      <use xlink:href="#DejaVuSans-65" transform="translate(63.476562 0)"/>
      <use xlink:href="#DejaVuSans-74" transform="translate(125 0)"/>
      <use xlink:href="#DejaVuSans-65" transform="translate(164.208984 0)"/>
      <use xlink:href="#DejaVuSans-63" transform="translate(225.732422 0)"/>
      <use xlink:href="#DejaVuSans-74" transform="translate(280.712891 0)"/>
      <use xlink:href="#DejaVuSans-6f" transform="translate(319.921875 0)"/>
      <use xlink:href="#DejaVuSans-72" transform="translate(381.103516 0)"/>
     </g>
    </g>
   </g>
   <g id="line2d_22">
    <path d="M 68.546307 217.888989 
L 69.297822 217.888989 
L 69.297822 215.62382 
L 70.049337 215.62382 
L 70.049337 212.650787 
L 70.800852 212.650787 
L 70.800852 209.111461 
L 71.552367 209.111461 
L 71.552367 202.882247 
L 72.303883 202.882247 
L 72.303883 191.556404 
L 73.055398 191.556404 
L 73.055398 165.365393 
L 73.806913 165.365393 
L 73.806913 113.549663 
L 74.558428 113.549663 
L 74.558428 58.902472 
L 75.309943 58.902472 
L 75.309943 32.003596 
L 76.061458 32.003596 
L 76.061458 17.28 
L 76.812973 17.28 
L 76.812973 17.846292 
L 77.564489 17.846292 
L 77.564489 49.275506 
L 78.316004 49.275506 
L 78.316004 51.115955 
L 79.067519 51.115955 
L 79.067519 56.778876 
L 79.819034 56.778876 
L 79.819034 59.893483 
L 80.570549 59.893483 
L 80.570549 81.554157 
L 81.322064 81.554157 
L 81.322064 101.799101 
L 82.07358 101.799101 
L 82.07358 105.338427 
L 82.825095 105.338427 
L 82.825095 111.850787 
L 83.57661 111.850787 
L 83.57661 114.965393 
L 84.328125 114.965393 
L 84.328125 161.118202 
L 85.07964 161.118202 
L 85.07964 179.522697 
L 85.831155 179.522697 
L 85.831155 210.95191 
L 86.58267 210.95191 
L 86.58267 218.88 
L 372.909943 218.88 
L 372.909943 218.88 
" clip-path="url(#p4a5729a2f7)" style="fill: none; stroke: #1f77b4; stroke-width: 1.5; stroke-linecap: square"/>
   </g>
   <g id="line2d_23">
    <path d="M 68.546307 218.88 
L 166.243277 218.88 
L 166.243277 218.596854 
L 166.994792 218.596854 
L 166.994792 218.455281 
L 167.746307 218.455281 
L 167.746307 216.190112 
L 168.497822 216.190112 
L 168.497822 218.88 
L 169.249337 218.88 
L 169.249337 217.46427 
L 170.000852 217.46427 
L 170.000852 217.039551 
L 170.752367 217.039551 
L 170.752367 216.614831 
L 171.503883 216.614831 
L 171.503883 216.331685 
L 172.255398 216.331685 
L 172.255398 213.783371 
L 173.006913 213.783371 
L 173.006913 211.376629 
L 173.758428 211.376629 
L 173.758428 211.093483 
L 174.509943 211.093483 
L 174.509943 206.28 
L 175.261458 206.28 
L 175.261458 208.828315 
L 176.012973 208.828315 
L 176.012973 204.581124 
L 176.764489 204.581124 
L 176.764489 203.306966 
L 177.516004 203.306966 
L 177.516004 192.547416 
L 178.267519 192.547416 
L 178.267519 186.884494 
L 179.019034 186.884494 
L 179.019034 184.194607 
L 179.770549 184.194607 
L 179.770549 179.805843 
L 180.522064 179.805843 
L 180.522064 167.913708 
L 181.27358 167.913708 
L 181.27358 172.019326 
L 182.025095 172.019326 
L 182.025095 165.365393 
L 182.77661 165.365393 
L 182.77661 150.358652 
L 183.528125 150.358652 
L 183.528125 154.888989 
L 184.27964 154.888989 
L 184.27964 161.118202 
L 185.031155 161.118202 
L 185.031155 151.491236 
L 185.78267 151.491236 
L 185.78267 146.819326 
L 186.534186 146.819326 
L 186.534186 155.596854 
L 187.285701 155.596854 
L 187.285701 146.960899 
L 188.037216 146.960899 
L 188.037216 161.401348 
L 188.788731 161.401348 
L 188.788731 158.994607 
L 189.540246 158.994607 
L 189.540246 155.738427 
L 190.291761 155.738427 
L 190.291761 160.268764 
L 191.043277 160.268764 
L 191.043277 161.684494 
L 191.794792 161.684494 
L 191.794792 163.80809 
L 192.546307 163.80809 
L 192.546307 160.127191 
L 193.297822 160.127191 
L 193.297822 169.612584 
L 194.049337 169.612584 
L 194.049337 164.091236 
L 194.800852 164.091236 
L 194.800852 162.39236 
L 195.552367 162.39236 
L 195.552367 169.187865 
L 196.303883 169.187865 
L 196.303883 170.178876 
L 197.055398 170.178876 
L 197.055398 161.826067 
L 197.806913 161.826067 
L 197.806913 172.868764 
L 198.558428 172.868764 
L 198.558428 167.205843 
L 199.309943 167.205843 
L 199.309943 173.435056 
L 200.061458 173.435056 
L 200.061458 172.302472 
L 200.812973 172.302472 
L 200.812973 179.522697 
L 201.564489 179.522697 
L 201.564489 171.73618 
L 202.316004 171.73618 
L 202.316004 181.787865 
L 203.067519 181.787865 
L 203.067519 177.399101 
L 203.819034 177.399101 
L 203.819034 181.363146 
L 204.570549 181.363146 
L 204.570549 185.327191 
L 205.322064 185.327191 
L 205.322064 180.230562 
L 206.07358 180.230562 
L 206.07358 186.035056 
L 206.825095 186.035056 
L 206.825095 183.203596 
L 207.57661 183.203596 
L 207.57661 188.441798 
L 208.328125 188.441798 
L 208.328125 186.884494 
L 209.07964 186.884494 
L 209.07964 187.16764 
L 209.831155 187.16764 
L 209.831155 193.68 
L 210.58267 193.68 
L 210.58267 196.653034 
L 211.334186 196.653034 
L 211.334186 200.050787 
L 212.085701 200.050787 
L 212.085701 200.617079 
L 212.837216 200.617079 
L 212.837216 206.987865 
L 213.588731 206.987865 
L 213.588731 209.960899 
L 214.340246 209.960899 
L 214.340246 210.95191 
L 215.091761 210.95191 
L 215.091761 217.46427 
L 215.843277 217.46427 
L 215.843277 218.88 
L 372.909943 218.88 
L 372.909943 218.88 
" clip-path="url(#p4a5729a2f7)" style="fill: none; stroke: #ff7f0e; stroke-width: 1.5; stroke-linecap: square"/>
   </g>
   <g id="line2d_24">
    <path d="M 68.546307 218.88 
L 215.091761 218.88 
L 215.091761 218.455281 
L 215.843277 218.455281 
L 215.843277 218.88 
L 218.097822 218.88 
L 218.097822 217.46427 
L 218.849337 217.46427 
L 218.849337 217.039551 
L 219.600852 217.039551 
L 219.600852 217.605843 
L 220.352367 217.605843 
L 220.352367 217.322697 
L 221.103883 217.322697 
L 221.103883 215.906966 
L 221.855398 215.906966 
L 221.855398 216.473258 
L 222.606913 216.473258 
L 222.606913 214.774382 
L 223.358428 214.774382 
L 223.358428 211.801348 
L 224.109943 211.801348 
L 224.109943 215.199101 
L 224.861458 215.199101 
L 224.861458 212.650787 
L 225.612973 212.650787 
L 225.612973 208.828315 
L 226.364489 208.828315 
L 226.364489 212.79236 
L 227.116004 212.79236 
L 227.116004 208.545169 
L 227.867519 208.545169 
L 227.867519 207.554157 
L 228.619034 207.554157 
L 228.619034 206.846292 
L 229.370549 206.846292 
L 229.370549 202.174382 
L 230.122064 202.174382 
L 230.122064 196.511461 
L 230.87358 196.511461 
L 230.87358 193.538427 
L 231.625095 193.538427 
L 231.625095 193.963146 
L 232.37661 193.963146 
L 232.37661 189.149663 
L 233.128125 189.149663 
L 233.128125 187.875506 
L 233.87964 187.875506 
L 233.87964 181.363146 
L 234.631155 181.363146 
L 234.631155 183.345169 
L 235.38267 183.345169 
L 235.38267 176.974382 
L 236.134186 176.974382 
L 236.134186 172.444045 
L 236.885701 172.444045 
L 236.885701 169.89573 
L 237.637216 169.89573 
L 237.637216 171.028315 
L 238.388731 171.028315 
L 238.388731 173.15191 
L 239.140246 173.15191 
L 239.140246 172.585618 
L 239.891761 172.585618 
L 239.891761 165.506966 
L 240.643277 165.506966 
L 240.643277 166.497978 
L 241.394792 166.497978 
L 241.394792 165.365393 
L 242.146307 165.365393 
L 242.146307 169.471011 
L 242.897822 169.471011 
L 242.897822 172.302472 
L 243.649337 172.302472 
L 243.649337 172.585618 
L 244.400852 172.585618 
L 244.400852 175.841798 
L 245.152367 175.841798 
L 245.152367 173.718202 
L 246.655398 173.718202 
L 246.655398 177.399101 
L 247.406913 177.399101 
L 247.406913 169.329438 
L 248.158428 169.329438 
L 248.158428 175.983371 
L 248.909943 175.983371 
L 248.909943 177.115955 
L 249.661458 177.115955 
L 249.661458 176.549663 
L 250.412973 176.549663 
L 250.412973 183.345169 
L 251.164489 183.345169 
L 251.164489 171.028315 
L 251.916004 171.028315 
L 251.916004 187.16764 
L 252.667519 187.16764 
L 252.667519 171.877753 
L 253.419034 171.877753 
L 253.419034 178.531685 
L 254.170549 178.531685 
L 254.170549 186.884494 
L 254.922064 186.884494 
L 254.922064 180.796854 
L 255.67358 180.796854 
L 255.67358 173.718202 
L 256.425095 173.718202 
L 256.425095 182.354157 
L 257.17661 182.354157 
L 257.17661 182.212584 
L 257.928125 182.212584 
L 257.928125 183.486742 
L 258.67964 183.486742 
L 258.67964 189.432809 
L 259.431155 189.432809 
L 259.431155 179.097978 
L 260.18267 179.097978 
L 260.18267 183.345169 
L 260.934186 183.345169 
L 260.934186 193.538427 
L 261.685701 193.538427 
L 261.685701 182.778876 
L 262.437216 182.778876 
L 262.437216 191.414831 
L 263.188731 191.414831 
L 263.188731 185.610337 
L 263.940246 185.610337 
L 263.940246 186.176629 
L 264.691761 186.176629 
L 264.691761 192.972135 
L 265.443277 192.972135 
L 265.443277 195.378876 
L 266.194792 195.378876 
L 266.194792 190.140674 
L 266.946307 190.140674 
L 266.946307 189.149663 
L 267.697822 189.149663 
L 267.697822 195.662022 
L 268.449337 195.662022 
L 268.449337 193.396854 
L 269.200852 193.396854 
L 269.200852 193.821573 
L 269.952367 193.821573 
L 269.952367 195.237303 
L 270.703883 195.237303 
L 270.703883 193.821573 
L 271.455398 193.821573 
L 271.455398 200.050787 
L 272.206913 200.050787 
L 272.206913 194.246292 
L 272.958428 194.246292 
L 272.958428 201.891236 
L 273.709943 201.891236 
L 273.709943 200.475506 
L 274.461458 200.475506 
L 274.461458 203.448539 
L 275.212973 203.448539 
L 275.212973 204.439551 
L 275.964489 204.439551 
L 275.964489 208.120449 
L 276.716004 208.120449 
L 276.716004 209.960899 
L 277.467519 209.960899 
L 277.467519 211.235056 
L 278.219034 211.235056 
L 278.219034 213.075506 
L 278.970549 213.075506 
L 278.970549 212.650787 
L 279.722064 212.650787 
L 279.722064 218.313708 
L 280.47358 218.313708 
L 280.47358 218.88 
L 372.909943 218.88 
L 372.909943 218.88 
" clip-path="url(#p4a5729a2f7)" style="fill: none; stroke: #2ca02c; stroke-width: 1.5; stroke-linecap: square"/>
   </g>
   <g id="line2d_25">
    <path d="M 68.546307 218.88 
L 282.728125 218.88 
L 282.728125 218.596854 
L 283.47964 218.596854 
L 283.47964 218.738427 
L 284.231155 218.738427 
L 284.231155 218.88 
L 286.485701 218.88 
L 286.485701 218.596854 
L 287.237216 218.596854 
L 287.237216 217.605843 
L 287.988731 217.605843 
L 287.988731 218.030562 
L 288.740246 218.030562 
L 288.740246 216.756404 
L 289.491761 216.756404 
L 289.491761 218.596854 
L 290.243277 218.596854 
L 290.243277 216.048539 
L 290.994792 216.048539 
L 290.994792 216.473258 
L 291.746307 216.473258 
L 291.746307 218.313708 
L 292.497822 218.313708 
L 292.497822 216.190112 
L 293.249337 216.190112 
L 293.249337 215.340674 
L 294.000852 215.340674 
L 294.000852 213.783371 
L 294.752367 213.783371 
L 294.752367 216.190112 
L 295.503883 216.190112 
L 295.503883 214.774382 
L 296.255398 214.774382 
L 296.255398 213.500225 
L 297.006913 213.500225 
L 297.006913 211.376629 
L 297.758428 211.376629 
L 297.758428 213.500225 
L 298.509943 213.500225 
L 298.509943 212.650787 
L 299.261458 212.650787 
L 299.261458 213.217079 
L 300.012973 213.217079 
L 300.012973 210.810337 
L 300.764489 210.810337 
L 300.764489 208.403596 
L 301.516004 208.403596 
L 301.516004 210.668764 
L 302.267519 210.668764 
L 302.267519 203.731685 
L 303.019034 203.731685 
L 303.019034 207.129438 
L 303.770549 207.129438 
L 303.770549 201.324944 
L 304.522064 201.324944 
L 304.522064 199.059775 
L 305.27358 199.059775 
L 305.27358 198.493483 
L 306.025095 198.493483 
L 306.025095 197.785618 
L 306.77661 197.785618 
L 306.77661 195.803596 
L 307.528125 195.803596 
L 307.528125 195.09573 
L 308.27964 195.09573 
L 308.27964 192.405843 
L 309.031155 192.405843 
L 309.031155 191.981124 
L 309.78267 191.981124 
L 309.78267 189.00809 
L 310.534186 189.00809 
L 310.534186 188.866517 
L 311.285701 188.866517 
L 311.285701 186.884494 
L 312.037216 186.884494 
L 312.037216 180.088989 
L 312.788731 180.088989 
L 312.788731 185.185618 
L 313.540246 185.185618 
L 313.540246 184.053034 
L 314.291761 184.053034 
L 314.291761 181.787865 
L 315.043277 181.787865 
L 315.043277 188.583371 
L 315.794792 188.583371 
L 315.794792 182.212584 
L 316.546307 182.212584 
L 316.546307 176.266517 
L 317.297822 176.266517 
L 317.297822 181.929438 
L 318.049337 181.929438 
L 318.049337 178.673258 
L 318.800852 178.673258 
L 318.800852 180.372135 
L 319.552367 180.372135 
L 319.552367 182.354157 
L 320.303883 182.354157 
L 320.303883 184.619326 
L 321.055398 184.619326 
L 321.055398 185.468764 
L 321.806913 185.468764 
L 321.806913 186.601348 
L 322.558428 186.601348 
L 322.558428 188.017079 
L 323.309943 188.017079 
L 323.309943 180.796854 
L 324.061458 180.796854 
L 324.061458 187.026067 
L 324.812973 187.026067 
L 324.812973 186.459775 
L 325.564489 186.459775 
L 325.564489 188.583371 
L 326.316004 188.583371 
L 326.316004 181.363146 
L 327.067519 181.363146 
L 327.067519 185.610337 
L 327.819034 185.610337 
L 327.819034 187.309213 
L 328.570549 187.309213 
L 328.570549 188.724944 
L 329.322064 188.724944 
L 329.322064 182.778876 
L 330.07358 182.778876 
L 330.07358 191.981124 
L 330.825095 191.981124 
L 330.825095 191.273258 
L 331.57661 191.273258 
L 331.57661 185.185618 
L 332.328125 185.185618 
L 332.328125 189.149663 
L 333.07964 189.149663 
L 333.07964 192.26427 
L 333.831155 192.26427 
L 333.831155 188.724944 
L 334.58267 188.724944 
L 334.58267 186.318202 
L 335.334186 186.318202 
L 335.334186 192.688989 
L 336.085701 192.688989 
L 336.085701 193.538427 
L 336.837216 193.538427 
L 336.837216 189.715955 
L 337.588731 189.715955 
L 337.588731 186.742921 
L 338.340246 186.742921 
L 338.340246 189.857528 
L 339.091761 189.857528 
L 339.091761 192.972135 
L 339.843277 192.972135 
L 339.843277 191.697978 
L 340.594792 191.697978 
L 340.594792 191.273258 
L 341.346307 191.273258 
L 341.346307 196.511461 
L 342.097822 196.511461 
L 342.097822 192.830562 
L 342.849337 192.830562 
L 342.849337 191.697978 
L 343.600852 191.697978 
L 343.600852 194.529438 
L 344.352367 194.529438 
L 344.352367 194.954157 
L 345.103883 194.954157 
L 345.103883 197.219326 
L 345.855398 197.219326 
L 345.855398 192.547416 
L 346.606913 192.547416 
L 346.606913 196.228315 
L 347.358428 196.228315 
L 347.358428 197.077753 
L 348.109943 197.077753 
L 348.109943 195.945169 
L 348.861458 195.945169 
L 348.861458 193.68 
L 349.612973 193.68 
L 349.612973 199.059775 
L 350.364489 199.059775 
L 350.364489 198.210337 
L 351.116004 198.210337 
L 351.116004 202.032809 
L 351.867519 202.032809 
L 351.867519 194.812584 
L 352.619034 194.812584 
L 352.619034 200.475506 
L 353.370549 200.475506 
L 353.370549 197.785618 
L 354.122064 197.785618 
L 354.122064 201.466517 
L 354.87358 201.466517 
L 354.87358 198.635056 
L 355.625095 198.635056 
L 355.625095 199.76764 
L 356.37661 199.76764 
L 356.37661 202.740674 
L 357.128125 202.740674 
L 357.128125 200.617079 
L 357.87964 200.617079 
L 357.87964 202.032809 
L 358.631155 202.032809 
L 358.631155 201.891236 
L 359.38267 201.891236 
L 359.38267 204.86427 
L 360.134186 204.86427 
L 360.134186 201.041798 
L 360.885701 201.041798 
L 360.885701 205.147416 
L 361.637216 205.147416 
L 361.637216 206.28 
L 362.388731 206.28 
L 362.388731 203.873258 
L 363.140246 203.873258 
L 363.140246 207.978876 
L 363.891761 207.978876 
L 363.891761 209.253034 
L 364.643277 209.253034 
L 364.643277 208.403596 
L 365.394792 208.403596 
L 365.394792 211.518202 
L 366.897822 211.518202 
L 366.897822 213.075506 
L 367.649337 213.075506 
L 367.649337 218.88 
L 368.400852 218.88 
L 368.400852 214.491236 
L 369.152367 214.491236 
L 369.152367 214.915955 
L 369.903883 214.915955 
L 369.903883 218.596854 
L 370.655398 218.596854 
L 370.655398 218.88 
L 372.158428 218.88 
L 372.158428 218.738427 
L 372.909943 218.738427 
L 372.909943 218.738427 
" clip-path="url(#p4a5729a2f7)" style="fill: none; stroke: #d62728; stroke-width: 1.5; stroke-linecap: square"/>
   </g>
  </g>
 </g>
 <defs>
  <clipPath id="p4a5729a2f7">
   <rect x="53.328125" y="7.2" width="334.8" height="221.76"/>
  </clipPath>
 </defs>
</svg>
