<?xml version="1.0" encoding="utf-8" standalone="no"?>
<!DOCTYPE svg PUBLIC "-//W3C//DTD SVG 1.1//EN"
  "http://www.w3.org/Graphics/SVG/1.1/DTD/svg11.dtd">
<svg xmlns:xlink="http://www.w3.org/1999/xlink" width="388.965625pt" height="270.382125pt" viewBox="0 0 388.965625 270.382125" xmlns="http://www.w3.org/2000/svg" version="1.1">
 <metadata>
  <rdf:RDF xmlns:dc="http://purl.org/dc/elements/1.1/" xmlns:cc="http://creativecommons.org/ns#" xmlns:rdf="http://www.w3.org/1999/02/22-rdf-syntax-ns#">
   <cc:Work>
    <dc:type rdf:resource="http://purl.org/dc/dcmitype/StillImage"/>
    <dc:date>2025-05-07T16:06:52.263198</dc:date>
    <dc:format>image/svg+xml</dc:format>
    <dc:creator>
     <cc:Agent>
      <dc:title>Matplotlib v3.10.1, https://matplotlib.org/</dc:title>
     </cc:Agent>
    </dc:creator>
   </cc:Work>
  </rdf:RDF>
 </metadata>
 <defs>
  <style type="text/css">*{stroke-linejoin: round; stroke-linecap: butt}</style>
 </defs>
 <g id="figure_1">
  <g id="patch_1">
   <path d="M 0 270.382125 
L 388.965625 270.382125 
L 388.965625 0 
L 0 0 
z
" style="fill: #ffffff"/>
  </g>
  <g id="axes_1">
   <g id="patch_2">
    <path d="M 46.965625 232.54775 
L 381.765625 232.54775 
L 381.765625 10.78775 
L 46.965625 10.78775 
z
" style="fill: #ffffff"/>
   </g>
   <g id="matplotlib.axis_1">
    <g id="xtick_1">
     <g id="line2d_1">
      <defs>
       <path id="mdbd957f974" d="M 0 0 
L 0 3.5 
" style="stroke: #000000; stroke-width: 0.8"/>
      </defs>
      <g>
       <use xlink:href="#mdbd957f974" x="62.181615" y="232.54775" style="stroke: #000000; stroke-width: 0.8"/>
      </g>
     </g>
     <g id="text_1">
      <!-- 0 -->
      <g transform="translate(59.000365 247.146188) scale(0.1 -0.1)">
       <defs>
        <path id="DejaVuSans-30" d="M 2034 4250 
Q 1547 4250 1301 3770 
Q 1056 3291 1056 2328 
Q 1056 1369 1301 889 
Q 1547 409 2034 409 
Q 2525 409 2770 889 
Q 3016 1369 3016 2328 
Q 3016 3291 2770 3770 
Q 2525 4250 2034 4250 
z
M 2034 4750 
Q 2819 4750 3233 4129 
Q 3647 3509 3647 2328 
Q 3647 1150 3233 529 
Q 2819 -91 2034 -91 
Q 1250 -91 836 529 
Q 422 1150 422 2328 
Q 422 3509 836 4129 
Q 1250 4750 2034 4750 
z
" transform="scale(0.015625)"/>
       </defs>
       <use xlink:href="#DejaVuSans-30"/>
      </g>
     </g>
    </g>
    <g id="xtick_2">
     <g id="line2d_2">
      <g>
       <use xlink:href="#mdbd957f974" x="104.792838" y="232.54775" style="stroke: #000000; stroke-width: 0.8"/>
      </g>
     </g>
     <g id="text_2">
      <!-- 10000 -->
      <g transform="translate(88.886588 247.146188) scale(0.1 -0.1)">
       <defs>
        <path id="DejaVuSans-31" d="M 794 531 
L 1825 531 
L 1825 4091 
L 703 3866 
L 703 4441 
L 1819 4666 
L 2450 4666 
L 2450 531 
L 3481 531 
L 3481 0 
L 794 0 
L 794 531 
z
" transform="scale(0.015625)"/>
       </defs>
       <use xlink:href="#DejaVuSans-31"/>
       <use xlink:href="#DejaVuSans-30" transform="translate(63.623047 0)"/>
       <use xlink:href="#DejaVuSans-30" transform="translate(127.246094 0)"/>
       <use xlink:href="#DejaVuSans-30" transform="translate(190.869141 0)"/>
       <use xlink:href="#DejaVuSans-30" transform="translate(254.492188 0)"/>
      </g>
     </g>
    </g>
    <g id="xtick_3">
     <g id="line2d_3">
      <g>
       <use xlink:href="#mdbd957f974" x="147.404062" y="232.54775" style="stroke: #000000; stroke-width: 0.8"/>
      </g>
     </g>
     <g id="text_3">
      <!-- 20000 -->
      <g transform="translate(131.497812 247.146188) scale(0.1 -0.1)">
       <defs>
        <path id="DejaVuSans-32" d="M 1228 531 
L 3431 531 
L 3431 0 
L 469 0 
L 469 531 
Q 828 903 1448 1529 
Q 2069 2156 2228 2338 
Q 2531 2678 2651 2914 
Q 2772 3150 2772 3378 
Q 2772 3750 2511 3984 
Q 2250 4219 1831 4219 
Q 1534 4219 1204 4116 
Q 875 4013 500 3803 
L 500 4441 
Q 881 4594 1212 4672 
Q 1544 4750 1819 4750 
Q 2544 4750 2975 4387 
Q 3406 4025 3406 3419 
Q 3406 3131 3298 2873 
Q 3191 2616 2906 2266 
Q 2828 2175 2409 1742 
Q 1991 1309 1228 531 
z
" transform="scale(0.015625)"/>
       </defs>
       <use xlink:href="#DejaVuSans-32"/>
       <use xlink:href="#DejaVuSans-30" transform="translate(63.623047 0)"/>
       <use xlink:href="#DejaVuSans-30" transform="translate(127.246094 0)"/>
       <use xlink:href="#DejaVuSans-30" transform="translate(190.869141 0)"/>
       <use xlink:href="#DejaVuSans-30" transform="translate(254.492188 0)"/>
      </g>
     </g>
    </g>
    <g id="xtick_4">
     <g id="line2d_4">
      <g>
       <use xlink:href="#mdbd957f974" x="190.015285" y="232.54775" style="stroke: #000000; stroke-width: 0.8"/>
      </g>
     </g>
     <g id="text_4">
      <!-- 30000 -->
      <g transform="translate(174.109035 247.146188) scale(0.1 -0.1)">
       <defs>
        <path id="DejaVuSans-33" d="M 2597 2516 
Q 3050 2419 3304 2112 
Q 3559 1806 3559 1356 
Q 3559 666 3084 287 
Q 2609 -91 1734 -91 
Q 1441 -91 1130 -33 
Q 819 25 488 141 
L 488 750 
Q 750 597 1062 519 
Q 1375 441 1716 441 
Q 2309 441 2620 675 
Q 2931 909 2931 1356 
Q 2931 1769 2642 2001 
Q 2353 2234 1838 2234 
L 1294 2234 
L 1294 2753 
L 1863 2753 
Q 2328 2753 2575 2939 
Q 2822 3125 2822 3475 
Q 2822 3834 2567 4026 
Q 2313 4219 1838 4219 
Q 1578 4219 1281 4162 
Q 984 4106 628 3988 
L 628 4550 
Q 988 4650 1302 4700 
Q 1616 4750 1894 4750 
Q 2613 4750 3031 4423 
Q 3450 4097 3450 3541 
Q 3450 3153 3228 2886 
Q 3006 2619 2597 2516 
z
" transform="scale(0.015625)"/>
       </defs>
       <use xlink:href="#DejaVuSans-33"/>
       <use xlink:href="#DejaVuSans-30" transform="translate(63.623047 0)"/>
       <use xlink:href="#DejaVuSans-30" transform="translate(127.246094 0)"/>
       <use xlink:href="#DejaVuSans-30" transform="translate(190.869141 0)"/>
       <use xlink:href="#DejaVuSans-30" transform="translate(254.492188 0)"/>
      </g>
     </g>
    </g>
    <g id="xtick_5">
     <g id="line2d_5">
      <g>
       <use xlink:href="#mdbd957f974" x="232.626509" y="232.54775" style="stroke: #000000; stroke-width: 0.8"/>
      </g>
     </g>
     <g id="text_5">
      <!-- 40000 -->
      <g transform="translate(216.720259 247.146188) scale(0.1 -0.1)">
       <defs>
        <path id="DejaVuSans-34" d="M 2419 4116 
L 825 1625 
L 2419 1625 
L 2419 4116 
z
M 2253 4666 
L 3047 4666 
L 3047 1625 
L 3713 1625 
L 3713 1100 
L 3047 1100 
L 3047 0 
L 2419 0 
L 2419 1100 
L 313 1100 
L 313 1709 
L 2253 4666 
z
" transform="scale(0.015625)"/>
       </defs>
       <use xlink:href="#DejaVuSans-34"/>
       <use xlink:href="#DejaVuSans-30" transform="translate(63.623047 0)"/>
       <use xlink:href="#DejaVuSans-30" transform="translate(127.246094 0)"/>
       <use xlink:href="#DejaVuSans-30" transform="translate(190.869141 0)"/>
       <use xlink:href="#DejaVuSans-30" transform="translate(254.492188 0)"/>
      </g>
     </g>
    </g>
    <g id="xtick_6">
     <g id="line2d_6">
      <g>
       <use xlink:href="#mdbd957f974" x="275.237732" y="232.54775" style="stroke: #000000; stroke-width: 0.8"/>
      </g>
     </g>
     <g id="text_6">
      <!-- 50000 -->
      <g transform="translate(259.331482 247.146188) scale(0.1 -0.1)">
       <defs>
        <path id="DejaVuSans-35" d="M 691 4666 
L 3169 4666 
L 3169 4134 
L 1269 4134 
L 1269 2991 
Q 1406 3038 1543 3061 
Q 1681 3084 1819 3084 
Q 2600 3084 3056 2656 
Q 3513 2228 3513 1497 
Q 3513 744 3044 326 
Q 2575 -91 1722 -91 
Q 1428 -91 1123 -41 
Q 819 9 494 109 
L 494 744 
Q 775 591 1075 516 
Q 1375 441 1709 441 
Q 2250 441 2565 725 
Q 2881 1009 2881 1497 
Q 2881 1984 2565 2268 
Q 2250 2553 1709 2553 
Q 1456 2553 1204 2497 
Q 953 2441 691 2322 
L 691 4666 
z
" transform="scale(0.015625)"/>
       </defs>
       <use xlink:href="#DejaVuSans-35"/>
       <use xlink:href="#DejaVuSans-30" transform="translate(63.623047 0)"/>
       <use xlink:href="#DejaVuSans-30" transform="translate(127.246094 0)"/>
       <use xlink:href="#DejaVuSans-30" transform="translate(190.869141 0)"/>
       <use xlink:href="#DejaVuSans-30" transform="translate(254.492188 0)"/>
      </g>
     </g>
    </g>
    <g id="xtick_7">
     <g id="line2d_7">
      <g>
       <use xlink:href="#mdbd957f974" x="317.848955" y="232.54775" style="stroke: #000000; stroke-width: 0.8"/>
      </g>
     </g>
     <g id="text_7">
      <!-- 60000 -->
      <g transform="translate(301.942705 247.146188) scale(0.1 -0.1)">
       <defs>
        <path id="DejaVuSans-36" d="M 2113 2584 
Q 1688 2584 1439 2293 
Q 1191 2003 1191 1497 
Q 1191 994 1439 701 
Q 1688 409 2113 409 
Q 2538 409 2786 701 
Q 3034 994 3034 1497 
Q 3034 2003 2786 2293 
Q 2538 2584 2113 2584 
z
M 3366 4563 
L 3366 3988 
Q 3128 4100 2886 4159 
Q 2644 4219 2406 4219 
Q 1781 4219 1451 3797 
Q 1122 3375 1075 2522 
Q 1259 2794 1537 2939 
Q 1816 3084 2150 3084 
Q 2853 3084 3261 2657 
Q 3669 2231 3669 1497 
Q 3669 778 3244 343 
Q 2819 -91 2113 -91 
Q 1303 -91 875 529 
Q 447 1150 447 2328 
Q 447 3434 972 4092 
Q 1497 4750 2381 4750 
Q 2619 4750 2861 4703 
Q 3103 4656 3366 4563 
z
" transform="scale(0.015625)"/>
       </defs>
       <use xlink:href="#DejaVuSans-36"/>
       <use xlink:href="#DejaVuSans-30" transform="translate(63.623047 0)"/>
       <use xlink:href="#DejaVuSans-30" transform="translate(127.246094 0)"/>
       <use xlink:href="#DejaVuSans-30" transform="translate(190.869141 0)"/>
       <use xlink:href="#DejaVuSans-30" transform="translate(254.492188 0)"/>
      </g>
     </g>
    </g>
    <g id="xtick_8">
     <g id="line2d_8">
      <g>
       <use xlink:href="#mdbd957f974" x="360.460179" y="232.54775" style="stroke: #000000; stroke-width: 0.8"/>
      </g>
     </g>
     <g id="text_8">
      <!-- 70000 -->
      <g transform="translate(344.553929 247.146188) scale(0.1 -0.1)">
       <defs>
        <path id="DejaVuSans-37" d="M 525 4666 
L 3525 4666 
L 3525 4397 
L 1831 0 
L 1172 0 
L 2766 4134 
L 525 4134 
L 525 4666 
z
" transform="scale(0.015625)"/>
       </defs>
       <use xlink:href="#DejaVuSans-37"/>
       <use xlink:href="#DejaVuSans-30" transform="translate(63.623047 0)"/>
       <use xlink:href="#DejaVuSans-30" transform="translate(127.246094 0)"/>
       <use xlink:href="#DejaVuSans-30" transform="translate(190.869141 0)"/>
       <use xlink:href="#DejaVuSans-30" transform="translate(254.492188 0)"/>
      </g>
     </g>
    </g>
    <g id="text_9">
     <!-- event_time_offset [µs] -->
     <g transform="translate(158.330469 260.824313) scale(0.1 -0.1)">
      <defs>
       <path id="DejaVuSans-65" d="M 3597 1894 
L 3597 1613 
L 953 1613 
Q 991 1019 1311 708 
Q 1631 397 2203 397 
Q 2534 397 2845 478 
Q 3156 559 3463 722 
L 3463 178 
Q 3153 47 2828 -22 
Q 2503 -91 2169 -91 
Q 1331 -91 842 396 
Q 353 884 353 1716 
Q 353 2575 817 3079 
Q 1281 3584 2069 3584 
Q 2775 3584 3186 3129 
Q 3597 2675 3597 1894 
z
M 3022 2063 
Q 3016 2534 2758 2815 
Q 2500 3097 2075 3097 
Q 1594 3097 1305 2825 
Q 1016 2553 972 2059 
L 3022 2063 
z
" transform="scale(0.015625)"/>
       <path id="DejaVuSans-76" d="M 191 3500 
L 800 3500 
L 1894 563 
L 2988 3500 
L 3597 3500 
L 2284 0 
L 1503 0 
L 191 3500 
z
" transform="scale(0.015625)"/>
       <path id="DejaVuSans-6e" d="M 3513 2113 
L 3513 0 
L 2938 0 
L 2938 2094 
Q 2938 2591 2744 2837 
Q 2550 3084 2163 3084 
Q 1697 3084 1428 2787 
Q 1159 2491 1159 1978 
L 1159 0 
L 581 0 
L 581 3500 
L 1159 3500 
L 1159 2956 
Q 1366 3272 1645 3428 
Q 1925 3584 2291 3584 
Q 2894 3584 3203 3211 
Q 3513 2838 3513 2113 
z
" transform="scale(0.015625)"/>
       <path id="DejaVuSans-74" d="M 1172 4494 
L 1172 3500 
L 2356 3500 
L 2356 3053 
L 1172 3053 
L 1172 1153 
Q 1172 725 1289 603 
Q 1406 481 1766 481 
L 2356 481 
L 2356 0 
L 1766 0 
Q 1100 0 847 248 
Q 594 497 594 1153 
L 594 3053 
L 172 3053 
L 172 3500 
L 594 3500 
L 594 4494 
L 1172 4494 
z
" transform="scale(0.015625)"/>
       <path id="DejaVuSans-5f" d="M 3263 -1063 
L 3263 -1509 
L -63 -1509 
L -63 -1063 
L 3263 -1063 
z
" transform="scale(0.015625)"/>
       <path id="DejaVuSans-69" d="M 603 3500 
L 1178 3500 
L 1178 0 
L 603 0 
L 603 3500 
z
M 603 4863 
L 1178 4863 
L 1178 4134 
L 603 4134 
L 603 4863 
z
" transform="scale(0.015625)"/>
       <path id="DejaVuSans-6d" d="M 3328 2828 
Q 3544 3216 3844 3400 
Q 4144 3584 4550 3584 
Q 5097 3584 5394 3201 
Q 5691 2819 5691 2113 
L 5691 0 
L 5113 0 
L 5113 2094 
Q 5113 2597 4934 2840 
Q 4756 3084 4391 3084 
Q 3944 3084 3684 2787 
Q 3425 2491 3425 1978 
L 3425 0 
L 2847 0 
L 2847 2094 
Q 2847 2600 2669 2842 
Q 2491 3084 2119 3084 
Q 1678 3084 1418 2786 
Q 1159 2488 1159 1978 
L 1159 0 
L 581 0 
L 581 3500 
L 1159 3500 
L 1159 2956 
Q 1356 3278 1631 3431 
Q 1906 3584 2284 3584 
Q 2666 3584 2933 3390 
Q 3200 3197 3328 2828 
z
" transform="scale(0.015625)"/>
       <path id="DejaVuSans-6f" d="M 1959 3097 
Q 1497 3097 1228 2736 
Q 959 2375 959 1747 
Q 959 1119 1226 758 
Q 1494 397 1959 397 
Q 2419 397 2687 759 
Q 2956 1122 2956 1747 
Q 2956 2369 2687 2733 
Q 2419 3097 1959 3097 
z
M 1959 3584 
Q 2709 3584 3137 3096 
Q 3566 2609 3566 1747 
Q 3566 888 3137 398 
Q 2709 -91 1959 -91 
Q 1206 -91 779 398 
Q 353 888 353 1747 
Q 353 2609 779 3096 
Q 1206 3584 1959 3584 
z
" transform="scale(0.015625)"/>
       <path id="DejaVuSans-66" d="M 2375 4863 
L 2375 4384 
L 1825 4384 
Q 1516 4384 1395 4259 
Q 1275 4134 1275 3809 
L 1275 3500 
L 2222 3500 
L 2222 3053 
L 1275 3053 
L 1275 0 
L 697 0 
L 697 3053 
L 147 3053 
L 147 3500 
L 697 3500 
L 697 3744 
Q 697 4328 969 4595 
Q 1241 4863 1831 4863 
L 2375 4863 
z
" transform="scale(0.015625)"/>
       <path id="DejaVuSans-73" d="M 2834 3397 
L 2834 2853 
Q 2591 2978 2328 3040 
Q 2066 3103 1784 3103 
Q 1356 3103 1142 2972 
Q 928 2841 928 2578 
Q 928 2378 1081 2264 
Q 1234 2150 1697 2047 
L 1894 2003 
Q 2506 1872 2764 1633 
Q 3022 1394 3022 966 
Q 3022 478 2636 193 
Q 2250 -91 1575 -91 
Q 1294 -91 989 -36 
Q 684 19 347 128 
L 347 722 
Q 666 556 975 473 
Q 1284 391 1588 391 
Q 1994 391 2212 530 
Q 2431 669 2431 922 
Q 2431 1156 2273 1281 
Q 2116 1406 1581 1522 
L 1381 1569 
Q 847 1681 609 1914 
Q 372 2147 372 2553 
Q 372 3047 722 3315 
Q 1072 3584 1716 3584 
Q 2034 3584 2315 3537 
Q 2597 3491 2834 3397 
z
" transform="scale(0.015625)"/>
       <path id="DejaVuSans-20" transform="scale(0.015625)"/>
       <path id="DejaVuSans-5b" d="M 550 4863 
L 1875 4863 
L 1875 4416 
L 1125 4416 
L 1125 -397 
L 1875 -397 
L 1875 -844 
L 550 -844 
L 550 4863 
z
" transform="scale(0.015625)"/>
       <path id="DejaVuSans-b5" d="M 544 -1331 
L 544 3500 
L 1119 3500 
L 1119 1325 
Q 1119 872 1334 640 
Q 1550 409 1972 409 
Q 2434 409 2667 671 
Q 2900 934 2900 1459 
L 2900 3500 
L 3475 3500 
L 3475 806 
Q 3475 619 3529 530 
Q 3584 441 3700 441 
Q 3728 441 3778 458 
Q 3828 475 3916 513 
L 3916 50 
Q 3788 -22 3673 -56 
Q 3559 -91 3450 -91 
Q 3234 -91 3106 31 
Q 2978 153 2931 403 
Q 2775 156 2548 32 
Q 2322 -91 2016 -91 
Q 1697 -91 1473 31 
Q 1250 153 1119 397 
L 1119 -1331 
L 544 -1331 
z
" transform="scale(0.015625)"/>
       <path id="DejaVuSans-5d" d="M 1947 4863 
L 1947 -844 
L 622 -844 
L 622 -397 
L 1369 -397 
L 1369 4416 
L 622 4416 
L 622 4863 
L 1947 4863 
z
" transform="scale(0.015625)"/>
      </defs>
      <use xlink:href="#DejaVuSans-65"/>
      <use xlink:href="#DejaVuSans-76" transform="translate(61.523438 0)"/>
      <use xlink:href="#DejaVuSans-65" transform="translate(120.703125 0)"/>
      <use xlink:href="#DejaVuSans-6e" transform="translate(182.226562 0)"/>
      <use xlink:href="#DejaVuSans-74" transform="translate(245.605469 0)"/>
      <use xlink:href="#DejaVuSans-5f" transform="translate(284.814453 0)"/>
      <use xlink:href="#DejaVuSans-74" transform="translate(334.814453 0)"/>
      <use xlink:href="#DejaVuSans-69" transform="translate(374.023438 0)"/>
      <use xlink:href="#DejaVuSans-6d" transform="translate(401.806641 0)"/>
      <use xlink:href="#DejaVuSans-65" transform="translate(499.21875 0)"/>
      <use xlink:href="#DejaVuSans-5f" transform="translate(560.742188 0)"/>
      <use xlink:href="#DejaVuSans-6f" transform="translate(610.742188 0)"/>
      <use xlink:href="#DejaVuSans-66" transform="translate(671.923828 0)"/>
      <use xlink:href="#DejaVuSans-66" transform="translate(707.128906 0)"/>
      <use xlink:href="#DejaVuSans-73" transform="translate(742.333984 0)"/>
      <use xlink:href="#DejaVuSans-65" transform="translate(794.433594 0)"/>
      <use xlink:href="#DejaVuSans-74" transform="translate(855.957031 0)"/>
      <use xlink:href="#DejaVuSans-20" transform="translate(895.166016 0)"/>
      <use xlink:href="#DejaVuSans-5b" transform="translate(926.953125 0)"/>
      <use xlink:href="#DejaVuSans-b5" transform="translate(965.966797 0)"/>
      <use xlink:href="#DejaVuSans-73" transform="translate(1029.589844 0)"/>
      <use xlink:href="#DejaVuSans-5d" transform="translate(1081.689453 0)"/>
     </g>
    </g>
   </g>
   <g id="matplotlib.axis_2">
    <g id="ytick_1">
     <g id="line2d_9">
      <defs>
       <path id="mb73406dc0d" d="M 0 0 
L -3.5 0 
" style="stroke: #000000; stroke-width: 0.8"/>
      </defs>
      <g>
       <use xlink:href="#mb73406dc0d" x="46.965625" y="222.46775" style="stroke: #000000; stroke-width: 0.8"/>
      </g>
     </g>
     <g id="text_10">
      <!-- 0 -->
      <g transform="translate(33.603125 226.266969) scale(0.1 -0.1)">
       <use xlink:href="#DejaVuSans-30"/>
      </g>
     </g>
    </g>
    <g id="ytick_2">
     <g id="line2d_10">
      <g>
       <use xlink:href="#mb73406dc0d" x="46.965625" y="187.222995" style="stroke: #000000; stroke-width: 0.8"/>
      </g>
     </g>
     <g id="text_11">
      <!-- 100 -->
      <g transform="translate(20.878125 191.022214) scale(0.1 -0.1)">
       <use xlink:href="#DejaVuSans-31"/>
       <use xlink:href="#DejaVuSans-30" transform="translate(63.623047 0)"/>
       <use xlink:href="#DejaVuSans-30" transform="translate(127.246094 0)"/>
      </g>
     </g>
    </g>
    <g id="ytick_3">
     <g id="line2d_11">
      <g>
       <use xlink:href="#mb73406dc0d" x="46.965625" y="151.97824" style="stroke: #000000; stroke-width: 0.8"/>
      </g>
     </g>
     <g id="text_12">
      <!-- 200 -->
      <g transform="translate(20.878125 155.777458) scale(0.1 -0.1)">
       <use xlink:href="#DejaVuSans-32"/>
       <use xlink:href="#DejaVuSans-30" transform="translate(63.623047 0)"/>
       <use xlink:href="#DejaVuSans-30" transform="translate(127.246094 0)"/>
      </g>
     </g>
    </g>
    <g id="ytick_4">
     <g id="line2d_12">
      <g>
       <use xlink:href="#mb73406dc0d" x="46.965625" y="116.733484" style="stroke: #000000; stroke-width: 0.8"/>
      </g>
     </g>
     <g id="text_13">
      <!-- 300 -->
      <g transform="translate(20.878125 120.532703) scale(0.1 -0.1)">
       <use xlink:href="#DejaVuSans-33"/>
       <use xlink:href="#DejaVuSans-30" transform="translate(63.623047 0)"/>
       <use xlink:href="#DejaVuSans-30" transform="translate(127.246094 0)"/>
      </g>
     </g>
    </g>
    <g id="ytick_5">
     <g id="line2d_13">
      <g>
       <use xlink:href="#mb73406dc0d" x="46.965625" y="81.488729" style="stroke: #000000; stroke-width: 0.8"/>
      </g>
     </g>
     <g id="text_14">
      <!-- 400 -->
      <g transform="translate(20.878125 85.287948) scale(0.1 -0.1)">
       <use xlink:href="#DejaVuSans-34"/>
       <use xlink:href="#DejaVuSans-30" transform="translate(63.623047 0)"/>
       <use xlink:href="#DejaVuSans-30" transform="translate(127.246094 0)"/>
      </g>
     </g>
    </g>
    <g id="ytick_6">
     <g id="line2d_14">
      <g>
       <use xlink:href="#mb73406dc0d" x="46.965625" y="46.243974" style="stroke: #000000; stroke-width: 0.8"/>
      </g>
     </g>
     <g id="text_15">
      <!-- 500 -->
      <g transform="translate(20.878125 50.043193) scale(0.1 -0.1)">
       <use xlink:href="#DejaVuSans-35"/>
       <use xlink:href="#DejaVuSans-30" transform="translate(63.623047 0)"/>
       <use xlink:href="#DejaVuSans-30" transform="translate(127.246094 0)"/>
      </g>
     </g>
    </g>
    <g id="ytick_7">
     <g id="line2d_15">
      <g>
       <use xlink:href="#mb73406dc0d" x="46.965625" y="10.999219" style="stroke: #000000; stroke-width: 0.8"/>
      </g>
     </g>
     <g id="text_16">
      <!-- 600 -->
      <g transform="translate(20.878125 14.798437) scale(0.1 -0.1)">
       <use xlink:href="#DejaVuSans-36"/>
       <use xlink:href="#DejaVuSans-30" transform="translate(63.623047 0)"/>
       <use xlink:href="#DejaVuSans-30" transform="translate(127.246094 0)"/>
      </g>
     </g>
    </g>
    <g id="text_17">
     <!-- [counts] -->
     <g transform="translate(14.798438 142.28025) rotate(-90) scale(0.1 -0.1)">
      <defs>
       <path id="DejaVuSans-63" d="M 3122 3366 
L 3122 2828 
Q 2878 2963 2633 3030 
Q 2388 3097 2138 3097 
Q 1578 3097 1268 2742 
Q 959 2388 959 1747 
Q 959 1106 1268 751 
Q 1578 397 2138 397 
Q 2388 397 2633 464 
Q 2878 531 3122 666 
L 3122 134 
Q 2881 22 2623 -34 
Q 2366 -91 2075 -91 
Q 1284 -91 818 406 
Q 353 903 353 1747 
Q 353 2603 823 3093 
Q 1294 3584 2113 3584 
Q 2378 3584 2631 3529 
Q 2884 3475 3122 3366 
z
" transform="scale(0.015625)"/>
       <path id="DejaVuSans-75" d="M 544 1381 
L 544 3500 
L 1119 3500 
L 1119 1403 
Q 1119 906 1312 657 
Q 1506 409 1894 409 
Q 2359 409 2629 706 
Q 2900 1003 2900 1516 
L 2900 3500 
L 3475 3500 
L 3475 0 
L 2900 0 
L 2900 538 
Q 2691 219 2414 64 
Q 2138 -91 1772 -91 
Q 1169 -91 856 284 
Q 544 659 544 1381 
z
M 1991 3584 
L 1991 3584 
z
" transform="scale(0.015625)"/>
      </defs>
      <use xlink:href="#DejaVuSans-5b"/>
      <use xlink:href="#DejaVuSans-63" transform="translate(39.013672 0)"/>
      <use xlink:href="#DejaVuSans-6f" transform="translate(93.994141 0)"/>
      <use xlink:href="#DejaVuSans-75" transform="translate(155.175781 0)"/>
      <use xlink:href="#DejaVuSans-6e" transform="translate(218.554688 0)"/>
      <use xlink:href="#DejaVuSans-74" transform="translate(281.933594 0)"/>
      <use xlink:href="#DejaVuSans-73" transform="translate(321.142578 0)"/>
      <use xlink:href="#DejaVuSans-5d" transform="translate(373.242188 0)"/>
     </g>
    </g>
   </g>
   <g id="line2d_16">
    <path d="M 62.183807 120.962855 
L 63.198352 120.962855 
L 63.198352 120.25796 
L 64.212898 120.25796 
L 64.212898 122.725093 
L 65.227443 122.725093 
L 65.227443 118.143275 
L 66.241989 118.143275 
L 66.241989 129.421596 
L 67.256534 129.421596 
L 67.256534 128.011806 
L 68.27108 128.011806 
L 68.27108 123.429988 
L 69.285625 123.429988 
L 69.285625 128.716701 
L 70.30017 128.716701 
L 70.30017 119.553065 
L 71.314716 119.553065 
L 71.314716 136.822995 
L 72.329261 136.822995 
L 72.329261 137.52789 
L 73.343807 137.52789 
L 73.343807 141.052366 
L 74.358352 141.052366 
L 74.358352 132.946072 
L 75.372898 132.946072 
L 75.372898 141.757261 
L 76.387443 141.757261 
L 76.387443 137.175443 
L 77.401989 137.175443 
L 77.401989 141.404813 
L 78.416534 141.404813 
L 78.416534 140.699918 
L 79.43108 140.699918 
L 79.43108 149.511107 
L 80.445625 149.511107 
L 80.445625 147.043974 
L 81.46017 147.043974 
L 81.46017 137.175443 
L 82.474716 137.175443 
L 82.474716 144.576841 
L 83.489261 144.576841 
L 83.489261 136.822995 
L 84.503807 136.822995 
L 84.503807 146.691526 
L 85.518352 146.691526 
L 85.518352 148.806212 
L 86.532898 148.806212 
L 86.532898 150.216002 
L 87.547443 150.216002 
L 87.547443 154.79782 
L 88.561989 154.79782 
L 88.561989 147.043974 
L 89.576534 147.043974 
L 89.576534 154.092925 
L 90.59108 154.092925 
L 90.59108 159.732086 
L 91.605625 159.732086 
L 91.605625 169.953065 
L 92.62017 169.953065 
L 92.62017 159.379638 
L 93.634716 159.379638 
L 93.634716 160.789429 
L 94.649261 160.789429 
L 94.649261 157.617401 
L 95.663807 157.617401 
L 95.663807 155.502715 
L 96.678352 155.502715 
L 96.678352 176.649568 
L 97.692898 176.649568 
L 97.692898 166.428589 
L 99.721989 166.428589 
L 99.721989 173.829988 
L 100.736534 173.829988 
L 100.736534 174.534883 
L 101.75108 174.534883 
L 101.75108 176.297121 
L 102.765625 176.297121 
L 102.765625 178.059359 
L 103.78017 178.059359 
L 103.78017 184.050967 
L 104.794716 184.050967 
L 104.794716 177.354464 
L 105.809261 177.354464 
L 105.809261 182.641177 
L 106.823807 182.641177 
L 106.823807 192.509708 
L 107.838352 192.509708 
L 107.838352 188.280338 
L 108.852898 188.280338 
L 108.852898 190.74747 
L 109.867443 190.74747 
L 109.867443 192.157261 
L 110.881989 192.157261 
L 110.881989 196.739079 
L 111.896534 196.739079 
L 111.896534 199.558659 
L 112.91108 199.558659 
L 112.91108 201.320897 
L 113.925625 201.320897 
L 113.925625 202.37824 
L 114.94017 202.37824 
L 114.94017 204.492925 
L 115.954716 204.492925 
L 115.954716 203.083135 
L 116.969261 203.083135 
L 116.969261 205.550268 
L 117.983807 205.550268 
L 117.983807 205.902715 
L 118.998352 205.902715 
L 118.998352 208.369848 
L 120.012898 208.369848 
L 120.012898 211.894324 
L 121.027443 211.894324 
L 121.027443 212.246771 
L 122.041989 212.246771 
L 122.041989 212.599219 
L 123.056534 212.599219 
L 123.056534 213.304114 
L 124.07108 213.304114 
L 124.07108 216.476142 
L 126.10017 216.476142 
L 126.10017 215.771247 
L 127.114716 215.771247 
L 127.114716 220.000617 
L 128.129261 220.000617 
L 128.129261 219.64817 
L 129.143807 219.64817 
L 129.143807 220.353065 
L 130.158352 220.353065 
L 130.158352 219.295722 
L 131.172898 219.295722 
L 131.172898 222.115303 
L 132.187443 222.115303 
L 132.187443 221.05796 
L 134.216534 221.05796 
L 134.216534 221.410408 
L 135.23108 221.410408 
L 135.23108 221.762855 
L 136.245625 221.762855 
L 136.245625 222.46775 
L 149.434716 222.46775 
L 149.434716 217.181037 
L 150.449261 217.181037 
L 150.449261 214.713904 
L 151.463807 214.713904 
L 151.463807 214.009009 
L 152.478352 214.009009 
L 152.478352 200.96845 
L 153.492898 200.96845 
L 153.492898 199.911107 
L 154.507443 199.911107 
L 154.507443 196.386631 
L 155.521989 196.386631 
L 155.521989 186.870547 
L 156.536534 186.870547 
L 156.536534 174.182436 
L 157.55108 174.182436 
L 157.55108 173.125093 
L 158.565625 173.125093 
L 158.565625 171.715303 
L 159.58017 171.715303 
L 159.58017 167.83838 
L 160.594716 167.83838 
L 160.594716 158.322296 
L 161.609261 158.322296 
L 161.609261 151.273345 
L 162.623807 151.273345 
L 162.623807 144.576841 
L 163.638352 144.576841 
L 163.638352 144.224394 
L 165.667443 144.224394 
L 165.667443 136.470547 
L 166.681989 136.470547 
L 166.681989 128.364254 
L 167.696534 128.364254 
L 167.696534 130.831387 
L 168.71108 130.831387 
L 168.71108 103.692925 
L 169.725625 103.692925 
L 169.725625 105.102715 
L 170.74017 105.102715 
L 170.74017 111.446771 
L 171.754716 111.446771 
L 171.754716 92.767051 
L 172.769261 92.767051 
L 172.769261 83.603415 
L 173.783807 83.603415 
L 173.783807 91.004813 
L 174.798352 91.004813 
L 174.798352 86.422995 
L 175.812898 86.422995 
L 175.812898 82.193624 
L 176.827443 82.193624 
L 176.827443 93.119498 
L 177.841989 93.119498 
L 177.841989 86.422995 
L 178.856534 86.422995 
L 178.856534 75.144673 
L 179.87108 75.144673 
L 179.87108 64.923694 
L 180.885625 64.923694 
L 180.885625 59.284533 
L 181.90017 59.284533 
L 181.90017 64.571247 
L 182.914716 64.571247 
L 182.914716 43.776841 
L 183.929261 43.776841 
L 183.929261 56.112505 
L 184.943807 56.112505 
L 184.943807 59.284533 
L 185.958352 59.284533 
L 185.958352 57.874743 
L 186.972898 57.874743 
L 186.972898 26.506911 
L 187.987443 26.506911 
L 187.987443 33.555862 
L 189.001989 33.555862 
L 189.001989 46.948869 
L 190.016534 46.948869 
L 190.016534 30.031387 
L 191.03108 30.031387 
L 191.03108 27.211806 
L 192.045625 27.211806 
L 192.045625 31.793624 
L 193.06017 31.793624 
L 193.06017 26.506911 
L 194.074716 26.506911 
L 194.074716 34.260757 
L 195.089261 34.260757 
L 195.089261 26.154464 
L 196.103807 26.154464 
L 196.103807 40.252366 
L 197.118352 40.252366 
L 197.118352 30.031387 
L 198.132898 30.031387 
L 198.132898 39.195023 
L 199.147443 39.195023 
L 199.147443 46.948869 
L 200.161989 46.948869 
L 200.161989 38.842575 
L 201.176534 38.842575 
L 201.176534 51.17824 
L 202.19108 51.17824 
L 202.19108 47.301317 
L 203.205625 47.301317 
L 203.205625 54.702715 
L 204.22017 54.702715 
L 204.22017 28.974044 
L 205.234716 28.974044 
L 205.234716 47.301317 
L 206.249261 47.301317 
L 206.249261 45.891526 
L 207.263807 45.891526 
L 207.263807 63.161457 
L 208.278352 63.161457 
L 208.278352 59.989429 
L 209.292898 59.989429 
L 209.292898 44.834184 
L 210.307443 44.834184 
L 210.307443 63.866352 
L 211.321989 63.866352 
L 211.321989 54.350268 
L 212.336534 54.350268 
L 212.336534 77.611806 
L 213.35108 77.611806 
L 213.35108 58.227191 
L 214.365625 58.227191 
L 214.365625 67.743275 
L 215.38017 67.743275 
L 215.38017 64.571247 
L 216.394716 64.571247 
L 216.394716 63.866352 
L 217.409261 63.866352 
L 217.409261 72.325093 
L 218.423807 72.325093 
L 218.423807 68.800617 
L 219.438352 68.800617 
L 219.438352 63.513904 
L 220.452898 63.513904 
L 220.452898 67.743275 
L 221.467443 67.743275 
L 221.467443 73.382436 
L 222.481989 73.382436 
L 222.481989 68.095722 
L 223.496534 68.095722 
L 223.496534 74.792226 
L 224.51108 74.792226 
L 224.51108 61.046771 
L 225.525625 61.046771 
L 225.525625 69.85796 
L 226.54017 69.85796 
L 226.54017 65.628589 
L 227.554716 65.628589 
L 227.554716 69.85796 
L 228.569261 69.85796 
L 228.569261 76.906911 
L 229.583807 76.906911 
L 229.583807 60.694324 
L 230.598352 60.694324 
L 230.598352 57.874743 
L 231.612898 57.874743 
L 231.612898 77.259359 
L 232.627443 77.259359 
L 232.627443 68.44817 
L 233.641989 68.44817 
L 233.641989 75.849568 
L 234.656534 75.849568 
L 234.656534 72.67754 
L 235.67108 72.67754 
L 235.67108 64.923694 
L 236.685625 64.923694 
L 236.685625 68.800617 
L 237.70017 68.800617 
L 237.70017 80.783834 
L 238.714716 80.783834 
L 238.714716 62.104114 
L 239.729261 62.104114 
L 239.729261 84.30831 
L 240.743807 84.30831 
L 240.743807 77.259359 
L 241.758352 77.259359 
L 241.758352 67.390827 
L 242.772898 67.390827 
L 242.772898 81.841177 
L 243.787443 81.841177 
L 243.787443 80.431387 
L 244.801989 80.431387 
L 244.801989 76.554464 
L 245.816534 76.554464 
L 245.816534 82.546072 
L 246.83108 82.546072 
L 246.83108 98.053764 
L 247.845625 98.053764 
L 247.845625 81.841177 
L 248.86017 81.841177 
L 248.86017 93.119498 
L 249.874716 93.119498 
L 249.874716 94.529289 
L 250.889261 94.529289 
L 250.889261 88.890128 
L 251.903807 88.890128 
L 251.903807 98.406212 
L 252.918352 98.406212 
L 252.918352 95.586631 
L 253.932898 95.586631 
L 253.932898 100.16845 
L 254.947443 100.16845 
L 254.947443 106.512505 
L 255.961989 106.512505 
L 255.961989 107.217401 
L 256.976534 107.217401 
L 256.976534 110.389429 
L 257.99108 110.389429 
L 257.99108 122.020198 
L 259.005625 122.020198 
L 259.005625 117.790827 
L 260.02017 117.790827 
L 260.02017 117.085932 
L 261.034716 117.085932 
L 261.034716 131.183834 
L 262.049261 131.183834 
L 262.049261 131.888729 
L 263.063807 131.888729 
L 263.063807 141.757261 
L 264.078352 141.757261 
L 264.078352 141.052366 
L 265.092898 141.052366 
L 265.092898 148.806212 
L 266.107443 148.806212 
L 266.107443 159.379638 
L 267.121989 159.379638 
L 267.121989 165.723694 
L 268.136534 165.723694 
L 268.136534 162.904114 
L 269.15108 162.904114 
L 269.15108 171.010408 
L 270.165625 171.010408 
L 270.165625 167.83838 
L 271.18017 167.83838 
L 271.18017 169.600617 
L 272.194716 169.600617 
L 272.194716 177.706911 
L 273.209261 177.706911 
L 273.209261 183.698519 
L 274.223807 183.698519 
L 274.223807 185.10831 
L 275.238352 185.10831 
L 275.238352 199.206212 
L 276.252898 199.206212 
L 276.252898 197.091526 
L 277.267443 197.091526 
L 277.267443 200.616002 
L 278.281989 200.616002 
L 278.281989 207.312505 
L 279.296534 207.312505 
L 279.296534 204.140477 
L 280.31108 204.140477 
L 280.31108 209.074743 
L 281.325625 209.074743 
L 281.325625 215.418799 
L 283.354716 215.418799 
L 283.354716 219.295722 
L 284.369261 219.295722 
L 284.369261 219.64817 
L 286.398352 219.64817 
L 286.398352 221.762855 
L 287.412898 221.762855 
L 287.412898 222.46775 
L 297.558352 222.46775 
L 297.558352 221.410408 
L 298.572898 221.410408 
L 298.572898 216.123694 
L 299.587443 216.123694 
L 299.587443 215.066352 
L 300.601989 215.066352 
L 300.601989 207.664953 
L 301.616534 207.664953 
L 301.616534 198.853764 
L 302.63108 198.853764 
L 302.63108 200.96845 
L 303.645625 200.96845 
L 303.645625 199.558659 
L 304.66017 199.558659 
L 304.66017 193.919498 
L 305.674716 193.919498 
L 305.674716 189.690128 
L 306.689261 189.690128 
L 306.689261 177.002016 
L 307.703807 177.002016 
L 307.703807 188.985233 
L 308.718352 188.985233 
L 308.718352 181.231387 
L 309.732898 181.231387 
L 309.732898 163.961457 
L 310.747443 163.961457 
L 310.747443 176.297121 
L 311.761989 176.297121 
L 311.761989 167.83838 
L 312.776534 167.83838 
L 312.776534 159.732086 
L 313.79108 159.732086 
L 313.79108 157.264953 
L 314.805625 157.264953 
L 314.805625 163.961457 
L 315.82017 163.961457 
L 315.82017 148.453764 
L 316.834716 148.453764 
L 316.834716 151.97824 
L 318.863807 151.97824 
L 318.863807 139.995023 
L 319.878352 139.995023 
L 319.878352 131.183834 
L 320.892898 131.183834 
L 320.892898 139.642575 
L 321.907443 139.642575 
L 321.907443 124.487331 
L 322.921989 124.487331 
L 322.921989 146.691526 
L 323.936534 146.691526 
L 323.936534 122.725093 
L 324.95108 122.725093 
L 324.95108 119.553065 
L 325.965625 119.553065 
L 325.965625 128.364254 
L 326.98017 128.364254 
L 326.98017 118.495722 
L 327.994716 118.495722 
L 327.994716 117.790827 
L 329.009261 117.790827 
L 329.009261 128.716701 
L 330.023807 128.716701 
L 330.023807 110.036981 
L 331.038352 110.036981 
L 331.038352 118.143275 
L 332.052898 118.143275 
L 332.052898 96.996422 
L 333.067443 96.996422 
L 333.067443 103.340477 
L 334.081989 103.340477 
L 334.081989 112.856561 
L 335.096534 112.856561 
L 335.096534 104.39782 
L 336.11108 104.39782 
L 336.11108 100.873345 
L 337.125625 100.873345 
L 337.125625 93.824394 
L 338.14017 93.824394 
L 338.14017 90.299918 
L 339.154716 90.299918 
L 339.154716 94.881736 
L 340.169261 94.881736 
L 340.169261 108.979638 
L 341.183807 108.979638 
L 341.183807 96.643974 
L 342.198352 96.643974 
L 342.198352 83.603415 
L 343.212898 83.603415 
L 343.212898 87.832785 
L 344.227443 87.832785 
L 344.227443 102.635582 
L 345.241989 102.635582 
L 345.241989 89.94747 
L 346.256534 89.94747 
L 346.256534 96.291526 
L 347.27108 96.291526 
L 347.27108 88.185233 
L 348.285625 88.185233 
L 348.285625 103.692925 
L 349.30017 103.692925 
L 349.30017 98.406212 
L 350.314716 98.406212 
L 350.314716 100.16845 
L 351.329261 100.16845 
L 351.329261 95.586631 
L 352.343807 95.586631 
L 352.343807 122.020198 
L 353.358352 122.020198 
L 353.358352 114.266352 
L 354.372898 114.266352 
L 354.372898 98.053764 
L 355.387443 98.053764 
L 355.387443 104.045373 
L 356.401989 104.045373 
L 356.401989 108.979638 
L 357.416534 108.979638 
L 357.416534 111.094324 
L 358.43108 111.094324 
L 358.43108 108.979638 
L 359.445625 108.979638 
L 359.445625 113.561457 
L 360.46017 113.561457 
L 360.46017 111.446771 
L 362.489261 111.446771 
L 362.489261 122.725093 
L 363.503807 122.725093 
L 363.503807 111.094324 
L 364.518352 111.094324 
L 364.518352 123.782436 
L 365.532898 123.782436 
L 365.532898 126.602016 
L 366.547443 126.602016 
L 366.547443 126.602016 
" clip-path="url(#p8b5225504b)" style="fill: none; stroke: #1f77b4; stroke-width: 1.5; stroke-linecap: square"/>
   </g>
   <g id="line2d_17">
    <path d="M 62.183807 126.249568 
L 63.198352 126.249568 
L 63.198352 118.143275 
L 64.212898 118.143275 
L 64.212898 129.069149 
L 65.227443 129.069149 
L 65.227443 136.470547 
L 66.241989 136.470547 
L 66.241989 135.060757 
L 67.256534 135.060757 
L 67.256534 135.765652 
L 68.27108 135.765652 
L 68.27108 137.52789 
L 69.285625 137.52789 
L 69.285625 138.585233 
L 70.30017 138.585233 
L 70.30017 137.880338 
L 71.314716 137.880338 
L 71.314716 137.175443 
L 72.329261 137.175443 
L 72.329261 147.396422 
L 73.343807 147.396422 
L 73.343807 142.462156 
L 74.358352 142.462156 
L 74.358352 138.232785 
L 75.372898 138.232785 
L 75.372898 138.93768 
L 76.387443 138.93768 
L 76.387443 138.585233 
L 77.401989 138.585233 
L 77.401989 141.404813 
L 78.416534 141.404813 
L 78.416534 149.863554 
L 79.43108 149.863554 
L 79.43108 144.929289 
L 80.445625 144.929289 
L 80.445625 153.38803 
L 81.46017 153.38803 
L 81.46017 146.691526 
L 82.474716 146.691526 
L 82.474716 153.035582 
L 83.489261 153.035582 
L 83.489261 157.969848 
L 84.503807 157.969848 
L 84.503807 168.190827 
L 85.518352 168.190827 
L 85.518352 157.617401 
L 86.532898 157.617401 
L 86.532898 159.732086 
L 87.547443 159.732086 
L 87.547443 155.855163 
L 88.561989 155.855163 
L 88.561989 159.379638 
L 89.576534 159.379638 
L 89.576534 172.420198 
L 90.59108 172.420198 
L 90.59108 163.961457 
L 91.605625 163.961457 
L 91.605625 167.133484 
L 92.62017 167.133484 
L 92.62017 175.239778 
L 93.634716 175.239778 
L 93.634716 170.305512 
L 94.649261 170.305512 
L 94.649261 175.592226 
L 95.663807 175.592226 
L 95.663807 179.116701 
L 96.678352 179.116701 
L 96.678352 178.059359 
L 97.692898 178.059359 
L 97.692898 182.288729 
L 98.707443 182.288729 
L 98.707443 184.755862 
L 99.721989 184.755862 
L 99.721989 190.395023 
L 100.736534 190.395023 
L 100.736534 184.403415 
L 101.75108 184.403415 
L 101.75108 190.74747 
L 102.765625 190.74747 
L 102.765625 197.091526 
L 103.78017 197.091526 
L 103.78017 197.796422 
L 104.794716 197.796422 
L 104.794716 202.37824 
L 105.809261 202.37824 
L 105.809261 200.263554 
L 106.823807 200.263554 
L 106.823807 202.37824 
L 107.838352 202.37824 
L 107.838352 200.96845 
L 108.852898 200.96845 
L 108.852898 205.902715 
L 109.867443 205.902715 
L 109.867443 205.19782 
L 110.881989 205.19782 
L 110.881989 208.369848 
L 111.896534 208.369848 
L 111.896534 209.074743 
L 112.91108 209.074743 
L 112.91108 211.541876 
L 113.925625 211.541876 
L 113.925625 212.599219 
L 114.94017 212.599219 
L 114.94017 213.656561 
L 115.954716 213.656561 
L 115.954716 215.066352 
L 116.969261 215.066352 
L 116.969261 216.828589 
L 117.983807 216.828589 
L 117.983807 216.123694 
L 118.998352 216.123694 
L 118.998352 218.590827 
L 120.012898 218.590827 
L 120.012898 220.000617 
L 123.056534 220.000617 
L 123.056534 221.410408 
L 125.085625 221.410408 
L 125.085625 220.705512 
L 126.10017 220.705512 
L 126.10017 221.410408 
L 127.114716 221.410408 
L 127.114716 221.762855 
L 128.129261 221.762855 
L 128.129261 222.46775 
L 147.405625 222.46775 
L 147.405625 219.295722 
L 148.42017 219.295722 
L 148.42017 216.123694 
L 149.434716 216.123694 
L 149.434716 214.009009 
L 150.449261 214.009009 
L 150.449261 203.083135 
L 151.463807 203.083135 
L 151.463807 200.263554 
L 152.478352 200.263554 
L 152.478352 196.739079 
L 153.492898 196.739079 
L 153.492898 190.042575 
L 154.507443 190.042575 
L 154.507443 176.649568 
L 155.521989 176.649568 
L 155.521989 172.420198 
L 156.536534 172.420198 
L 156.536534 168.895722 
L 157.55108 168.895722 
L 157.55108 167.133484 
L 158.565625 167.133484 
L 158.565625 156.912505 
L 159.58017 156.912505 
L 159.58017 151.625792 
L 160.594716 151.625792 
L 160.594716 143.167051 
L 161.609261 143.167051 
L 161.609261 140.699918 
L 162.623807 140.699918 
L 162.623807 142.814603 
L 163.638352 142.814603 
L 163.638352 135.060757 
L 164.652898 135.060757 
L 164.652898 125.897121 
L 165.667443 125.897121 
L 165.667443 128.364254 
L 166.681989 128.364254 
L 166.681989 102.283135 
L 167.696534 102.283135 
L 167.696534 100.520897 
L 168.71108 100.520897 
L 168.71108 110.741876 
L 169.725625 110.741876 
L 169.725625 85.7181 
L 170.74017 85.7181 
L 170.74017 79.021596 
L 171.754716 79.021596 
L 171.754716 85.7181 
L 172.769261 85.7181 
L 172.769261 89.595023 
L 173.783807 89.595023 
L 173.783807 75.144673 
L 174.798352 75.144673 
L 174.798352 91.709708 
L 175.812898 91.709708 
L 175.812898 82.898519 
L 176.827443 82.898519 
L 176.827443 60.694324 
L 177.841989 60.694324 
L 177.841989 58.227191 
L 178.856534 58.227191 
L 178.856534 52.58803 
L 179.87108 52.58803 
L 179.87108 67.03838 
L 180.885625 67.03838 
L 180.885625 30.383834 
L 181.90017 30.383834 
L 181.90017 62.104114 
L 182.914716 62.104114 
L 182.914716 52.940477 
L 183.929261 52.940477 
L 183.929261 32.498519 
L 184.943807 32.498519 
L 184.943807 30.031387 
L 185.958352 30.031387 
L 185.958352 32.146072 
L 186.972898 32.146072 
L 186.972898 39.899918 
L 187.987443 39.899918 
L 187.987443 21.220198 
L 189.001989 21.220198 
L 189.001989 25.449568 
L 190.016534 25.449568 
L 190.016534 20.86775 
L 191.03108 20.86775 
L 191.03108 28.621596 
L 192.045625 28.621596 
L 192.045625 24.744673 
L 193.06017 24.744673 
L 193.06017 31.793624 
L 194.074716 31.793624 
L 194.074716 33.555862 
L 195.089261 33.555862 
L 195.089261 28.269149 
L 196.103807 28.269149 
L 196.103807 35.3181 
L 197.118352 35.3181 
L 197.118352 38.842575 
L 198.132898 38.842575 
L 198.132898 44.481736 
L 199.147443 44.481736 
L 199.147443 46.596422 
L 201.176534 46.596422 
L 201.176534 33.203415 
L 202.19108 33.203415 
L 202.19108 34.965652 
L 203.205625 34.965652 
L 203.205625 43.071946 
L 204.22017 43.071946 
L 204.22017 59.636981 
L 205.234716 59.636981 
L 205.234716 56.112505 
L 206.249261 56.112505 
L 206.249261 40.252366 
L 207.263807 40.252366 
L 207.263807 60.341876 
L 208.278352 60.341876 
L 208.278352 52.940477 
L 209.292898 52.940477 
L 209.292898 71.620198 
L 210.307443 71.620198 
L 210.307443 53.645373 
L 211.321989 53.645373 
L 211.321989 62.104114 
L 212.336534 62.104114 
L 212.336534 65.628589 
L 213.35108 65.628589 
L 213.35108 58.227191 
L 214.365625 58.227191 
L 214.365625 70.562855 
L 215.38017 70.562855 
L 215.38017 56.817401 
L 216.394716 56.817401 
L 216.394716 71.620198 
L 217.409261 71.620198 
L 217.409261 64.218799 
L 218.423807 64.218799 
L 218.423807 61.751666 
L 219.438352 61.751666 
L 219.438352 67.743275 
L 220.452898 67.743275 
L 220.452898 69.505512 
L 221.467443 69.505512 
L 221.467443 55.055163 
L 222.481989 55.055163 
L 222.481989 65.276142 
L 223.496534 65.276142 
L 223.496534 64.571247 
L 224.51108 64.571247 
L 224.51108 75.497121 
L 225.525625 75.497121 
L 225.525625 67.743275 
L 226.54017 67.743275 
L 226.54017 49.76845 
L 227.554716 49.76845 
L 227.554716 59.284533 
L 228.569261 59.284533 
L 228.569261 75.497121 
L 229.583807 75.497121 
L 229.583807 67.743275 
L 231.612898 67.743275 
L 231.612898 64.218799 
L 232.627443 64.218799 
L 232.627443 68.44817 
L 233.641989 68.44817 
L 233.641989 71.620198 
L 234.656534 71.620198 
L 234.656534 59.989429 
L 235.67108 59.989429 
L 235.67108 80.078939 
L 236.685625 80.078939 
L 236.685625 71.972645 
L 237.70017 71.972645 
L 237.70017 72.325093 
L 238.714716 72.325093 
L 238.714716 70.915303 
L 239.729261 70.915303 
L 239.729261 76.906911 
L 240.743807 76.906911 
L 240.743807 72.325093 
L 241.758352 72.325093 
L 241.758352 81.136282 
L 242.772898 81.136282 
L 242.772898 94.529289 
L 243.787443 94.529289 
L 243.787443 78.316701 
L 244.801989 78.316701 
L 244.801989 89.94747 
L 245.816534 89.94747 
L 245.816534 87.480338 
L 246.83108 87.480338 
L 246.83108 89.94747 
L 247.845625 89.94747 
L 247.845625 94.529289 
L 248.86017 94.529289 
L 248.86017 93.119498 
L 249.874716 93.119498 
L 249.874716 96.996422 
L 250.889261 96.996422 
L 250.889261 100.873345 
L 251.903807 100.873345 
L 251.903807 103.692925 
L 252.918352 103.692925 
L 252.918352 115.323694 
L 254.947443 115.323694 
L 254.947443 114.266352 
L 255.961989 114.266352 
L 255.961989 117.085932 
L 256.976534 117.085932 
L 256.976534 135.060757 
L 257.99108 135.060757 
L 257.99108 129.421596 
L 259.005625 129.421596 
L 259.005625 135.060757 
L 260.02017 135.060757 
L 260.02017 142.814603 
L 261.034716 142.814603 
L 261.034716 147.396422 
L 262.049261 147.396422 
L 262.049261 167.83838 
L 263.063807 167.83838 
L 263.063807 160.436981 
L 264.078352 160.436981 
L 264.078352 167.83838 
L 265.092898 167.83838 
L 265.092898 164.666352 
L 266.107443 164.666352 
L 266.107443 172.420198 
L 267.121989 172.420198 
L 267.121989 169.24817 
L 268.136534 169.24817 
L 268.136534 179.821596 
L 269.15108 179.821596 
L 269.15108 183.698519 
L 270.165625 183.698519 
L 270.165625 191.099918 
L 271.18017 191.099918 
L 271.18017 197.091526 
L 272.194716 197.091526 
L 272.194716 201.320897 
L 273.209261 201.320897 
L 273.209261 199.911107 
L 274.223807 199.911107 
L 274.223807 204.845373 
L 275.238352 204.845373 
L 275.238352 209.074743 
L 276.252898 209.074743 
L 276.252898 213.304114 
L 277.267443 213.304114 
L 277.267443 215.066352 
L 278.281989 215.066352 
L 278.281989 217.181037 
L 279.296534 217.181037 
L 279.296534 219.64817 
L 280.31108 219.64817 
L 280.31108 219.295722 
L 281.325625 219.295722 
L 281.325625 221.410408 
L 282.34017 221.410408 
L 282.34017 222.46775 
L 293.50017 222.46775 
L 293.50017 216.476142 
L 294.514716 216.476142 
L 294.514716 216.123694 
L 295.529261 216.123694 
L 295.529261 209.074743 
L 296.543807 209.074743 
L 296.543807 197.091526 
L 297.558352 197.091526 
L 297.558352 201.320897 
L 298.572898 201.320897 
L 298.572898 199.558659 
L 299.587443 199.558659 
L 299.587443 192.509708 
L 300.601989 192.509708 
L 300.601989 189.33768 
L 301.616534 189.33768 
L 301.616534 176.297121 
L 302.63108 176.297121 
L 302.63108 188.985233 
L 303.645625 188.985233 
L 303.645625 179.821596 
L 304.66017 179.821596 
L 304.66017 161.846771 
L 305.674716 161.846771 
L 305.674716 175.592226 
L 306.689261 175.592226 
L 306.689261 166.428589 
L 307.703807 166.428589 
L 307.703807 156.912505 
L 308.718352 156.912505 
L 308.718352 151.97824 
L 309.732898 151.97824 
L 309.732898 165.018799 
L 310.747443 165.018799 
L 310.747443 144.576841 
L 311.761989 144.576841 
L 311.761989 151.273345 
L 312.776534 151.273345 
L 312.776534 148.453764 
L 313.79108 148.453764 
L 313.79108 134.355862 
L 314.805625 134.355862 
L 314.805625 129.774044 
L 315.82017 129.774044 
L 315.82017 134.003415 
L 316.834716 134.003415 
L 316.834716 131.183834 
L 317.849261 131.183834 
L 317.849261 137.52789 
L 318.863807 137.52789 
L 318.863807 116.381037 
L 319.878352 116.381037 
L 319.878352 124.134883 
L 320.892898 124.134883 
L 320.892898 118.143275 
L 321.907443 118.143275 
L 321.907443 118.84817 
L 322.921989 118.84817 
L 322.921989 118.143275 
L 323.936534 118.143275 
L 323.936534 116.733484 
L 324.95108 116.733484 
L 324.95108 110.036981 
L 325.965625 110.036981 
L 325.965625 105.102715 
L 326.98017 105.102715 
L 326.98017 94.881736 
L 327.994716 94.881736 
L 327.994716 111.446771 
L 329.009261 111.446771 
L 329.009261 101.57824 
L 330.023807 101.57824 
L 330.023807 99.111107 
L 331.038352 99.111107 
L 331.038352 92.062156 
L 332.052898 92.062156 
L 332.052898 80.783834 
L 333.067443 80.783834 
L 333.067443 100.873345 
L 334.081989 100.873345 
L 334.081989 98.406212 
L 335.096534 98.406212 
L 335.096534 98.053764 
L 336.11108 98.053764 
L 336.11108 85.7181 
L 337.125625 85.7181 
L 337.125625 79.021596 
L 338.14017 79.021596 
L 338.14017 102.98803 
L 339.154716 102.98803 
L 339.154716 84.30831 
L 340.169261 84.30831 
L 340.169261 96.291526 
L 341.183807 96.291526 
L 341.183807 81.488729 
L 342.198352 81.488729 
L 342.198352 104.39782 
L 343.212898 104.39782 
L 343.212898 94.176841 
L 344.227443 94.176841 
L 344.227443 98.053764 
L 345.241989 98.053764 
L 345.241989 92.767051 
L 346.256534 92.767051 
L 346.256534 116.028589 
L 347.27108 116.028589 
L 347.27108 113.561457 
L 348.285625 113.561457 
L 348.285625 98.406212 
L 349.30017 98.406212 
L 349.30017 98.758659 
L 350.314716 98.758659 
L 350.314716 104.750268 
L 351.329261 104.750268 
L 351.329261 110.389429 
L 352.343807 110.389429 
L 352.343807 105.455163 
L 353.358352 105.455163 
L 353.358352 107.922296 
L 354.372898 107.922296 
L 354.372898 112.151666 
L 355.387443 112.151666 
L 355.387443 111.094324 
L 356.401989 111.094324 
L 356.401989 121.315303 
L 357.416534 121.315303 
L 357.416534 110.036981 
L 358.43108 110.036981 
L 358.43108 118.495722 
L 359.445625 118.495722 
L 359.445625 121.66775 
L 360.46017 121.66775 
L 360.46017 124.134883 
L 361.474716 124.134883 
L 361.474716 123.07754 
L 362.489261 123.07754 
L 362.489261 111.094324 
L 363.503807 111.094324 
L 363.503807 121.66775 
L 364.518352 121.66775 
L 364.518352 126.954464 
L 365.532898 126.954464 
L 365.532898 121.66775 
L 366.547443 121.66775 
L 366.547443 121.66775 
" clip-path="url(#p8b5225504b)" style="fill: none; stroke: #ff7f0e; stroke-width: 1.5; stroke-linecap: square"/>
   </g>
   <g id="patch_3">
    <path d="M 46.965625 232.54775 
L 46.965625 10.78775 
" style="fill: none; stroke: #000000; stroke-width: 0.8; stroke-linejoin: miter; stroke-linecap: square"/>
   </g>
   <g id="patch_4">
    <path d="M 381.765625 232.54775 
L 381.765625 10.78775 
" style="fill: none; stroke: #000000; stroke-width: 0.8; stroke-linejoin: miter; stroke-linecap: square"/>
   </g>
   <g id="patch_5">
    <path d="M 46.965625 232.54775 
L 381.765625 232.54775 
" style="fill: none; stroke: #000000; stroke-width: 0.8; stroke-linejoin: miter; stroke-linecap: square"/>
   </g>
   <g id="patch_6">
    <path d="M 46.965625 10.78775 
L 381.765625 10.78775 
" style="fill: none; stroke: #000000; stroke-width: 0.8; stroke-linejoin: miter; stroke-linecap: square"/>
   </g>
   <g id="legend_1">
    <g id="patch_7">
     <path d="M 246.957813 48.70025 
L 374.765625 48.70025 
Q 376.765625 48.70025 376.765625 46.70025 
L 376.765625 17.78775 
Q 376.765625 15.78775 374.765625 15.78775 
L 246.957813 15.78775 
Q 244.957813 15.78775 244.957813 17.78775 
L 244.957813 46.70025 
Q 244.957813 48.70025 246.957813 48.70025 
z
" style="fill: #ffffff; opacity: 0.8; stroke: #cccccc; stroke-linejoin: miter"/>
    </g>
    <g id="line2d_18">
     <path d="M 248.957813 23.886188 
L 248.957813 23.886188 
L 258.957813 23.886188 
L 258.957813 23.886188 
L 268.957813 23.886188 
" style="fill: none; stroke: #1f77b4; stroke-width: 1.5; stroke-linecap: square"/>
    </g>
    <g id="text_18">
     <!-- detector_number:0 -->
     <g transform="translate(276.957813 27.386188) scale(0.1 -0.1)">
      <defs>
       <path id="DejaVuSans-64" d="M 2906 2969 
L 2906 4863 
L 3481 4863 
L 3481 0 
L 2906 0 
L 2906 525 
Q 2725 213 2448 61 
Q 2172 -91 1784 -91 
Q 1150 -91 751 415 
Q 353 922 353 1747 
Q 353 2572 751 3078 
Q 1150 3584 1784 3584 
Q 2172 3584 2448 3432 
Q 2725 3281 2906 2969 
z
M 947 1747 
Q 947 1113 1208 752 
Q 1469 391 1925 391 
Q 2381 391 2643 752 
Q 2906 1113 2906 1747 
Q 2906 2381 2643 2742 
Q 2381 3103 1925 3103 
Q 1469 3103 1208 2742 
Q 947 2381 947 1747 
z
" transform="scale(0.015625)"/>
       <path id="DejaVuSans-72" d="M 2631 2963 
Q 2534 3019 2420 3045 
Q 2306 3072 2169 3072 
Q 1681 3072 1420 2755 
Q 1159 2438 1159 1844 
L 1159 0 
L 581 0 
L 581 3500 
L 1159 3500 
L 1159 2956 
Q 1341 3275 1631 3429 
Q 1922 3584 2338 3584 
Q 2397 3584 2469 3576 
Q 2541 3569 2628 3553 
L 2631 2963 
z
" transform="scale(0.015625)"/>
       <path id="DejaVuSans-62" d="M 3116 1747 
Q 3116 2381 2855 2742 
Q 2594 3103 2138 3103 
Q 1681 3103 1420 2742 
Q 1159 2381 1159 1747 
Q 1159 1113 1420 752 
Q 1681 391 2138 391 
Q 2594 391 2855 752 
Q 3116 1113 3116 1747 
z
M 1159 2969 
Q 1341 3281 1617 3432 
Q 1894 3584 2278 3584 
Q 2916 3584 3314 3078 
Q 3713 2572 3713 1747 
Q 3713 922 3314 415 
Q 2916 -91 2278 -91 
Q 1894 -91 1617 61 
Q 1341 213 1159 525 
L 1159 0 
L 581 0 
L 581 4863 
L 1159 4863 
L 1159 2969 
z
" transform="scale(0.015625)"/>
       <path id="DejaVuSans-3a" d="M 750 794 
L 1409 794 
L 1409 0 
L 750 0 
L 750 794 
z
M 750 3309 
L 1409 3309 
L 1409 2516 
L 750 2516 
L 750 3309 
z
" transform="scale(0.015625)"/>
      </defs>
      <use xlink:href="#DejaVuSans-64"/>
      <use xlink:href="#DejaVuSans-65" transform="translate(63.476562 0)"/>
      <use xlink:href="#DejaVuSans-74" transform="translate(125 0)"/>
      <use xlink:href="#DejaVuSans-65" transform="translate(164.208984 0)"/>
      <use xlink:href="#DejaVuSans-63" transform="translate(225.732422 0)"/>
      <use xlink:href="#DejaVuSans-74" transform="translate(280.712891 0)"/>
      <use xlink:href="#DejaVuSans-6f" transform="translate(319.921875 0)"/>
      <use xlink:href="#DejaVuSans-72" transform="translate(381.103516 0)"/>
      <use xlink:href="#DejaVuSans-5f" transform="translate(422.216797 0)"/>
      <use xlink:href="#DejaVuSans-6e" transform="translate(472.216797 0)"/>
      <use xlink:href="#DejaVuSans-75" transform="translate(535.595703 0)"/>
      <use xlink:href="#DejaVuSans-6d" transform="translate(598.974609 0)"/>
      <use xlink:href="#DejaVuSans-62" transform="translate(696.386719 0)"/>
      <use xlink:href="#DejaVuSans-65" transform="translate(759.863281 0)"/>
      <use xlink:href="#DejaVuSans-72" transform="translate(821.386719 0)"/>
      <use xlink:href="#DejaVuSans-3a" transform="translate(860.75 0)"/>
      <use xlink:href="#DejaVuSans-30" transform="translate(894.441406 0)"/>
     </g>
    </g>
    <g id="line2d_19">
     <path d="M 248.957813 38.842438 
L 248.957813 38.842438 
L 258.957813 38.842438 
L 258.957813 38.842438 
L 268.957813 38.842438 
" style="fill: none; stroke: #ff7f0e; stroke-width: 1.5; stroke-linecap: square"/>
    </g>
    <g id="text_19">
     <!-- detector_number:1 -->
     <g transform="translate(276.957813 42.342438) scale(0.1 -0.1)">
      <use xlink:href="#DejaVuSans-64"/>
      <use xlink:href="#DejaVuSans-65" transform="translate(63.476562 0)"/>
      <use xlink:href="#DejaVuSans-74" transform="translate(125 0)"/>
      <use xlink:href="#DejaVuSans-65" transform="translate(164.208984 0)"/>
      <use xlink:href="#DejaVuSans-63" transform="translate(225.732422 0)"/>
      <use xlink:href="#DejaVuSans-74" transform="translate(280.712891 0)"/>
      <use xlink:href="#DejaVuSans-6f" transform="translate(319.921875 0)"/>
      <use xlink:href="#DejaVuSans-72" transform="translate(381.103516 0)"/>
      <use xlink:href="#DejaVuSans-5f" transform="translate(422.216797 0)"/>
      <use xlink:href="#DejaVuSans-6e" transform="translate(472.216797 0)"/>
      <use xlink:href="#DejaVuSans-75" transform="translate(535.595703 0)"/>
      <use xlink:href="#DejaVuSans-6d" transform="translate(598.974609 0)"/>
      <use xlink:href="#DejaVuSans-62" transform="translate(696.386719 0)"/>
      <use xlink:href="#DejaVuSans-65" transform="translate(759.863281 0)"/>
      <use xlink:href="#DejaVuSans-72" transform="translate(821.386719 0)"/>
      <use xlink:href="#DejaVuSans-3a" transform="translate(860.75 0)"/>
      <use xlink:href="#DejaVuSans-31" transform="translate(894.441406 0)"/>
     </g>
    </g>
   </g>
  </g>
 </g>
 <defs>
  <clipPath id="p8b5225504b">
   <rect x="46.965625" y="10.78775" width="334.8" height="221.76"/>
  </clipPath>
 </defs>
</svg>
