<?xml version="1.0" encoding="utf-8" standalone="no"?>
<!DOCTYPE svg PUBLIC "-//W3C//DTD SVG 1.1//EN"
  "http://www.w3.org/Graphics/SVG/1.1/DTD/svg11.dtd">
<svg xmlns:xlink="http://www.w3.org/1999/xlink" width="398.214092pt" height="266.51625pt" viewBox="0 0 398.214092 266.51625" xmlns="http://www.w3.org/2000/svg" version="1.1">
 <metadata>
  <rdf:RDF xmlns:dc="http://purl.org/dc/elements/1.1/" xmlns:cc="http://creativecommons.org/ns#" xmlns:rdf="http://www.w3.org/1999/02/22-rdf-syntax-ns#">
   <cc:Work>
    <dc:type rdf:resource="http://purl.org/dc/dcmitype/StillImage"/>
    <dc:date>2025-05-26T10:49:51.553117</dc:date>
    <dc:format>image/svg+xml</dc:format>
    <dc:creator>
     <cc:Agent>
      <dc:title>Matplotlib v3.10.3, https://matplotlib.org/</dc:title>
     </cc:Agent>
    </dc:creator>
   </cc:Work>
  </rdf:RDF>
 </metadata>
 <defs>
  <style type="text/css">*{stroke-linejoin: round; stroke-linecap: butt}</style>
 </defs>
 <g id="figure_1">
  <g id="patch_1">
   <path d="M 0 266.51625 
L 398.214092 266.51625 
L 398.214092 0 
L 0 0 
z
" style="fill: #ffffff"/>
  </g>
  <g id="axes_1">
   <g id="patch_2">
    <path d="M 46.965625 228.96 
L 381.765625 228.96 
L 381.765625 7.2 
L 46.965625 7.2 
z
" style="fill: #ffffff"/>
   </g>
   <g id="matplotlib.axis_1">
    <g id="xtick_1">
     <g id="line2d_1">
      <defs>
       <path id="m3d0a2092ee" d="M 0 0 
L 0 3.5 
" style="stroke: #000000; stroke-width: 0.8"/>
      </defs>
      <g>
       <use xlink:href="#m3d0a2092ee" x="71.870322" y="228.96" style="stroke: #000000; stroke-width: 0.8"/>
      </g>
     </g>
     <g id="text_1">
      <!-- 20000 -->
      <g transform="translate(55.964072 243.558437) scale(0.1 -0.1)">
       <defs>
        <path id="DejaVuSans-32" d="M 1228 531 
L 3431 531 
L 3431 0 
L 469 0 
L 469 531 
Q 828 903 1448 1529 
Q 2069 2156 2228 2338 
Q 2531 2678 2651 2914 
Q 2772 3150 2772 3378 
Q 2772 3750 2511 3984 
Q 2250 4219 1831 4219 
Q 1534 4219 1204 4116 
Q 875 4013 500 3803 
L 500 4441 
Q 881 4594 1212 4672 
Q 1544 4750 1819 4750 
Q 2544 4750 2975 4387 
Q 3406 4025 3406 3419 
Q 3406 3131 3298 2873 
Q 3191 2616 2906 2266 
Q 2828 2175 2409 1742 
Q 1991 1309 1228 531 
z
" transform="scale(0.015625)"/>
        <path id="DejaVuSans-30" d="M 2034 4250 
Q 1547 4250 1301 3770 
Q 1056 3291 1056 2328 
Q 1056 1369 1301 889 
Q 1547 409 2034 409 
Q 2525 409 2770 889 
Q 3016 1369 3016 2328 
Q 3016 3291 2770 3770 
Q 2525 4250 2034 4250 
z
M 2034 4750 
Q 2819 4750 3233 4129 
Q 3647 3509 3647 2328 
Q 3647 1150 3233 529 
Q 2819 -91 2034 -91 
Q 1250 -91 836 529 
Q 422 1150 422 2328 
Q 422 3509 836 4129 
Q 1250 4750 2034 4750 
z
" transform="scale(0.015625)"/>
       </defs>
       <use xlink:href="#DejaVuSans-32"/>
       <use xlink:href="#DejaVuSans-30" transform="translate(63.623047 0)"/>
       <use xlink:href="#DejaVuSans-30" transform="translate(127.246094 0)"/>
       <use xlink:href="#DejaVuSans-30" transform="translate(190.869141 0)"/>
       <use xlink:href="#DejaVuSans-30" transform="translate(254.492188 0)"/>
      </g>
     </g>
    </g>
    <g id="xtick_2">
     <g id="line2d_2">
      <g>
       <use xlink:href="#m3d0a2092ee" x="115.189967" y="228.96" style="stroke: #000000; stroke-width: 0.8"/>
      </g>
     </g>
     <g id="text_2">
      <!-- 30000 -->
      <g transform="translate(99.283717 243.558437) scale(0.1 -0.1)">
       <defs>
        <path id="DejaVuSans-33" d="M 2597 2516 
Q 3050 2419 3304 2112 
Q 3559 1806 3559 1356 
Q 3559 666 3084 287 
Q 2609 -91 1734 -91 
Q 1441 -91 1130 -33 
Q 819 25 488 141 
L 488 750 
Q 750 597 1062 519 
Q 1375 441 1716 441 
Q 2309 441 2620 675 
Q 2931 909 2931 1356 
Q 2931 1769 2642 2001 
Q 2353 2234 1838 2234 
L 1294 2234 
L 1294 2753 
L 1863 2753 
Q 2328 2753 2575 2939 
Q 2822 3125 2822 3475 
Q 2822 3834 2567 4026 
Q 2313 4219 1838 4219 
Q 1578 4219 1281 4162 
Q 984 4106 628 3988 
L 628 4550 
Q 988 4650 1302 4700 
Q 1616 4750 1894 4750 
Q 2613 4750 3031 4423 
Q 3450 4097 3450 3541 
Q 3450 3153 3228 2886 
Q 3006 2619 2597 2516 
z
" transform="scale(0.015625)"/>
       </defs>
       <use xlink:href="#DejaVuSans-33"/>
       <use xlink:href="#DejaVuSans-30" transform="translate(63.623047 0)"/>
       <use xlink:href="#DejaVuSans-30" transform="translate(127.246094 0)"/>
       <use xlink:href="#DejaVuSans-30" transform="translate(190.869141 0)"/>
       <use xlink:href="#DejaVuSans-30" transform="translate(254.492188 0)"/>
      </g>
     </g>
    </g>
    <g id="xtick_3">
     <g id="line2d_3">
      <g>
       <use xlink:href="#m3d0a2092ee" x="158.509613" y="228.96" style="stroke: #000000; stroke-width: 0.8"/>
      </g>
     </g>
     <g id="text_3">
      <!-- 40000 -->
      <g transform="translate(142.603363 243.558437) scale(0.1 -0.1)">
       <defs>
        <path id="DejaVuSans-34" d="M 2419 4116 
L 825 1625 
L 2419 1625 
L 2419 4116 
z
M 2253 4666 
L 3047 4666 
L 3047 1625 
L 3713 1625 
L 3713 1100 
L 3047 1100 
L 3047 0 
L 2419 0 
L 2419 1100 
L 313 1100 
L 313 1709 
L 2253 4666 
z
" transform="scale(0.015625)"/>
       </defs>
       <use xlink:href="#DejaVuSans-34"/>
       <use xlink:href="#DejaVuSans-30" transform="translate(63.623047 0)"/>
       <use xlink:href="#DejaVuSans-30" transform="translate(127.246094 0)"/>
       <use xlink:href="#DejaVuSans-30" transform="translate(190.869141 0)"/>
       <use xlink:href="#DejaVuSans-30" transform="translate(254.492188 0)"/>
      </g>
     </g>
    </g>
    <g id="xtick_4">
     <g id="line2d_4">
      <g>
       <use xlink:href="#m3d0a2092ee" x="201.829259" y="228.96" style="stroke: #000000; stroke-width: 0.8"/>
      </g>
     </g>
     <g id="text_4">
      <!-- 50000 -->
      <g transform="translate(185.923009 243.558437) scale(0.1 -0.1)">
       <defs>
        <path id="DejaVuSans-35" d="M 691 4666 
L 3169 4666 
L 3169 4134 
L 1269 4134 
L 1269 2991 
Q 1406 3038 1543 3061 
Q 1681 3084 1819 3084 
Q 2600 3084 3056 2656 
Q 3513 2228 3513 1497 
Q 3513 744 3044 326 
Q 2575 -91 1722 -91 
Q 1428 -91 1123 -41 
Q 819 9 494 109 
L 494 744 
Q 775 591 1075 516 
Q 1375 441 1709 441 
Q 2250 441 2565 725 
Q 2881 1009 2881 1497 
Q 2881 1984 2565 2268 
Q 2250 2553 1709 2553 
Q 1456 2553 1204 2497 
Q 953 2441 691 2322 
L 691 4666 
z
" transform="scale(0.015625)"/>
       </defs>
       <use xlink:href="#DejaVuSans-35"/>
       <use xlink:href="#DejaVuSans-30" transform="translate(63.623047 0)"/>
       <use xlink:href="#DejaVuSans-30" transform="translate(127.246094 0)"/>
       <use xlink:href="#DejaVuSans-30" transform="translate(190.869141 0)"/>
       <use xlink:href="#DejaVuSans-30" transform="translate(254.492188 0)"/>
      </g>
     </g>
    </g>
    <g id="xtick_5">
     <g id="line2d_5">
      <g>
       <use xlink:href="#m3d0a2092ee" x="245.148905" y="228.96" style="stroke: #000000; stroke-width: 0.8"/>
      </g>
     </g>
     <g id="text_5">
      <!-- 60000 -->
      <g transform="translate(229.242655 243.558437) scale(0.1 -0.1)">
       <defs>
        <path id="DejaVuSans-36" d="M 2113 2584 
Q 1688 2584 1439 2293 
Q 1191 2003 1191 1497 
Q 1191 994 1439 701 
Q 1688 409 2113 409 
Q 2538 409 2786 701 
Q 3034 994 3034 1497 
Q 3034 2003 2786 2293 
Q 2538 2584 2113 2584 
z
M 3366 4563 
L 3366 3988 
Q 3128 4100 2886 4159 
Q 2644 4219 2406 4219 
Q 1781 4219 1451 3797 
Q 1122 3375 1075 2522 
Q 1259 2794 1537 2939 
Q 1816 3084 2150 3084 
Q 2853 3084 3261 2657 
Q 3669 2231 3669 1497 
Q 3669 778 3244 343 
Q 2819 -91 2113 -91 
Q 1303 -91 875 529 
Q 447 1150 447 2328 
Q 447 3434 972 4092 
Q 1497 4750 2381 4750 
Q 2619 4750 2861 4703 
Q 3103 4656 3366 4563 
z
" transform="scale(0.015625)"/>
       </defs>
       <use xlink:href="#DejaVuSans-36"/>
       <use xlink:href="#DejaVuSans-30" transform="translate(63.623047 0)"/>
       <use xlink:href="#DejaVuSans-30" transform="translate(127.246094 0)"/>
       <use xlink:href="#DejaVuSans-30" transform="translate(190.869141 0)"/>
       <use xlink:href="#DejaVuSans-30" transform="translate(254.492188 0)"/>
      </g>
     </g>
    </g>
    <g id="xtick_6">
     <g id="line2d_6">
      <g>
       <use xlink:href="#m3d0a2092ee" x="288.468551" y="228.96" style="stroke: #000000; stroke-width: 0.8"/>
      </g>
     </g>
     <g id="text_6">
      <!-- 70000 -->
      <g transform="translate(272.562301 243.558437) scale(0.1 -0.1)">
       <defs>
        <path id="DejaVuSans-37" d="M 525 4666 
L 3525 4666 
L 3525 4397 
L 1831 0 
L 1172 0 
L 2766 4134 
L 525 4134 
L 525 4666 
z
" transform="scale(0.015625)"/>
       </defs>
       <use xlink:href="#DejaVuSans-37"/>
       <use xlink:href="#DejaVuSans-30" transform="translate(63.623047 0)"/>
       <use xlink:href="#DejaVuSans-30" transform="translate(127.246094 0)"/>
       <use xlink:href="#DejaVuSans-30" transform="translate(190.869141 0)"/>
       <use xlink:href="#DejaVuSans-30" transform="translate(254.492188 0)"/>
      </g>
     </g>
    </g>
    <g id="xtick_7">
     <g id="line2d_7">
      <g>
       <use xlink:href="#m3d0a2092ee" x="331.788196" y="228.96" style="stroke: #000000; stroke-width: 0.8"/>
      </g>
     </g>
     <g id="text_7">
      <!-- 80000 -->
      <g transform="translate(315.881946 243.558437) scale(0.1 -0.1)">
       <defs>
        <path id="DejaVuSans-38" d="M 2034 2216 
Q 1584 2216 1326 1975 
Q 1069 1734 1069 1313 
Q 1069 891 1326 650 
Q 1584 409 2034 409 
Q 2484 409 2743 651 
Q 3003 894 3003 1313 
Q 3003 1734 2745 1975 
Q 2488 2216 2034 2216 
z
M 1403 2484 
Q 997 2584 770 2862 
Q 544 3141 544 3541 
Q 544 4100 942 4425 
Q 1341 4750 2034 4750 
Q 2731 4750 3128 4425 
Q 3525 4100 3525 3541 
Q 3525 3141 3298 2862 
Q 3072 2584 2669 2484 
Q 3125 2378 3379 2068 
Q 3634 1759 3634 1313 
Q 3634 634 3220 271 
Q 2806 -91 2034 -91 
Q 1263 -91 848 271 
Q 434 634 434 1313 
Q 434 1759 690 2068 
Q 947 2378 1403 2484 
z
M 1172 3481 
Q 1172 3119 1398 2916 
Q 1625 2713 2034 2713 
Q 2441 2713 2670 2916 
Q 2900 3119 2900 3481 
Q 2900 3844 2670 4047 
Q 2441 4250 2034 4250 
Q 1625 4250 1398 4047 
Q 1172 3844 1172 3481 
z
" transform="scale(0.015625)"/>
       </defs>
       <use xlink:href="#DejaVuSans-38"/>
       <use xlink:href="#DejaVuSans-30" transform="translate(63.623047 0)"/>
       <use xlink:href="#DejaVuSans-30" transform="translate(127.246094 0)"/>
       <use xlink:href="#DejaVuSans-30" transform="translate(190.869141 0)"/>
       <use xlink:href="#DejaVuSans-30" transform="translate(254.492188 0)"/>
      </g>
     </g>
    </g>
    <g id="xtick_8">
     <g id="line2d_8">
      <g>
       <use xlink:href="#m3d0a2092ee" x="375.107842" y="228.96" style="stroke: #000000; stroke-width: 0.8"/>
      </g>
     </g>
     <g id="text_8">
      <!-- 90000 -->
      <g transform="translate(359.201592 243.558437) scale(0.1 -0.1)">
       <defs>
        <path id="DejaVuSans-39" d="M 703 97 
L 703 672 
Q 941 559 1184 500 
Q 1428 441 1663 441 
Q 2288 441 2617 861 
Q 2947 1281 2994 2138 
Q 2813 1869 2534 1725 
Q 2256 1581 1919 1581 
Q 1219 1581 811 2004 
Q 403 2428 403 3163 
Q 403 3881 828 4315 
Q 1253 4750 1959 4750 
Q 2769 4750 3195 4129 
Q 3622 3509 3622 2328 
Q 3622 1225 3098 567 
Q 2575 -91 1691 -91 
Q 1453 -91 1209 -44 
Q 966 3 703 97 
z
M 1959 2075 
Q 2384 2075 2632 2365 
Q 2881 2656 2881 3163 
Q 2881 3666 2632 3958 
Q 2384 4250 1959 4250 
Q 1534 4250 1286 3958 
Q 1038 3666 1038 3163 
Q 1038 2656 1286 2365 
Q 1534 2075 1959 2075 
z
" transform="scale(0.015625)"/>
       </defs>
       <use xlink:href="#DejaVuSans-39"/>
       <use xlink:href="#DejaVuSans-30" transform="translate(63.623047 0)"/>
       <use xlink:href="#DejaVuSans-30" transform="translate(127.246094 0)"/>
       <use xlink:href="#DejaVuSans-30" transform="translate(190.869141 0)"/>
       <use xlink:href="#DejaVuSans-30" transform="translate(254.492188 0)"/>
      </g>
     </g>
    </g>
    <g id="text_9">
     <!-- tof [µs] -->
     <g transform="translate(196.309375 257.236562) scale(0.1 -0.1)">
      <defs>
       <path id="DejaVuSans-74" d="M 1172 4494 
L 1172 3500 
L 2356 3500 
L 2356 3053 
L 1172 3053 
L 1172 1153 
Q 1172 725 1289 603 
Q 1406 481 1766 481 
L 2356 481 
L 2356 0 
L 1766 0 
Q 1100 0 847 248 
Q 594 497 594 1153 
L 594 3053 
L 172 3053 
L 172 3500 
L 594 3500 
L 594 4494 
L 1172 4494 
z
" transform="scale(0.015625)"/>
       <path id="DejaVuSans-6f" d="M 1959 3097 
Q 1497 3097 1228 2736 
Q 959 2375 959 1747 
Q 959 1119 1226 758 
Q 1494 397 1959 397 
Q 2419 397 2687 759 
Q 2956 1122 2956 1747 
Q 2956 2369 2687 2733 
Q 2419 3097 1959 3097 
z
M 1959 3584 
Q 2709 3584 3137 3096 
Q 3566 2609 3566 1747 
Q 3566 888 3137 398 
Q 2709 -91 1959 -91 
Q 1206 -91 779 398 
Q 353 888 353 1747 
Q 353 2609 779 3096 
Q 1206 3584 1959 3584 
z
" transform="scale(0.015625)"/>
       <path id="DejaVuSans-66" d="M 2375 4863 
L 2375 4384 
L 1825 4384 
Q 1516 4384 1395 4259 
Q 1275 4134 1275 3809 
L 1275 3500 
L 2222 3500 
L 2222 3053 
L 1275 3053 
L 1275 0 
L 697 0 
L 697 3053 
L 147 3053 
L 147 3500 
L 697 3500 
L 697 3744 
Q 697 4328 969 4595 
Q 1241 4863 1831 4863 
L 2375 4863 
z
" transform="scale(0.015625)"/>
       <path id="DejaVuSans-20" transform="scale(0.015625)"/>
       <path id="DejaVuSans-5b" d="M 550 4863 
L 1875 4863 
L 1875 4416 
L 1125 4416 
L 1125 -397 
L 1875 -397 
L 1875 -844 
L 550 -844 
L 550 4863 
z
" transform="scale(0.015625)"/>
       <path id="DejaVuSans-b5" d="M 544 -1331 
L 544 3500 
L 1119 3500 
L 1119 1325 
Q 1119 872 1334 640 
Q 1550 409 1972 409 
Q 2434 409 2667 671 
Q 2900 934 2900 1459 
L 2900 3500 
L 3475 3500 
L 3475 806 
Q 3475 619 3529 530 
Q 3584 441 3700 441 
Q 3728 441 3778 458 
Q 3828 475 3916 513 
L 3916 50 
Q 3788 -22 3673 -56 
Q 3559 -91 3450 -91 
Q 3234 -91 3106 31 
Q 2978 153 2931 403 
Q 2775 156 2548 32 
Q 2322 -91 2016 -91 
Q 1697 -91 1473 31 
Q 1250 153 1119 397 
L 1119 -1331 
L 544 -1331 
z
" transform="scale(0.015625)"/>
       <path id="DejaVuSans-73" d="M 2834 3397 
L 2834 2853 
Q 2591 2978 2328 3040 
Q 2066 3103 1784 3103 
Q 1356 3103 1142 2972 
Q 928 2841 928 2578 
Q 928 2378 1081 2264 
Q 1234 2150 1697 2047 
L 1894 2003 
Q 2506 1872 2764 1633 
Q 3022 1394 3022 966 
Q 3022 478 2636 193 
Q 2250 -91 1575 -91 
Q 1294 -91 989 -36 
Q 684 19 347 128 
L 347 722 
Q 666 556 975 473 
Q 1284 391 1588 391 
Q 1994 391 2212 530 
Q 2431 669 2431 922 
Q 2431 1156 2273 1281 
Q 2116 1406 1581 1522 
L 1381 1569 
Q 847 1681 609 1914 
Q 372 2147 372 2553 
Q 372 3047 722 3315 
Q 1072 3584 1716 3584 
Q 2034 3584 2315 3537 
Q 2597 3491 2834 3397 
z
" transform="scale(0.015625)"/>
       <path id="DejaVuSans-5d" d="M 1947 4863 
L 1947 -844 
L 622 -844 
L 622 -397 
L 1369 -397 
L 1369 4416 
L 622 4416 
L 622 4863 
L 1947 4863 
z
" transform="scale(0.015625)"/>
      </defs>
      <use xlink:href="#DejaVuSans-74"/>
      <use xlink:href="#DejaVuSans-6f" transform="translate(39.208984 0)"/>
      <use xlink:href="#DejaVuSans-66" transform="translate(100.390625 0)"/>
      <use xlink:href="#DejaVuSans-20" transform="translate(135.595703 0)"/>
      <use xlink:href="#DejaVuSans-5b" transform="translate(167.382812 0)"/>
      <use xlink:href="#DejaVuSans-b5" transform="translate(206.396484 0)"/>
      <use xlink:href="#DejaVuSans-73" transform="translate(270.019531 0)"/>
      <use xlink:href="#DejaVuSans-5d" transform="translate(322.119141 0)"/>
     </g>
    </g>
   </g>
   <g id="matplotlib.axis_2">
    <g id="ytick_1">
     <g id="line2d_9">
      <defs>
       <path id="medcf1f4842" d="M 0 0 
L -3.5 0 
" style="stroke: #000000; stroke-width: 0.8"/>
      </defs>
      <g>
       <use xlink:href="#medcf1f4842" x="46.965625" y="219.979636" style="stroke: #000000; stroke-width: 0.8"/>
      </g>
     </g>
     <g id="text_10">
      <!-- 0 -->
      <g transform="translate(33.603125 223.778855) scale(0.1 -0.1)">
       <use xlink:href="#DejaVuSans-30"/>
      </g>
     </g>
    </g>
    <g id="ytick_2">
     <g id="line2d_10">
      <g>
       <use xlink:href="#medcf1f4842" x="46.965625" y="183.325091" style="stroke: #000000; stroke-width: 0.8"/>
      </g>
     </g>
     <g id="text_11">
      <!-- 100 -->
      <g transform="translate(20.878125 187.12431) scale(0.1 -0.1)">
       <defs>
        <path id="DejaVuSans-31" d="M 794 531 
L 1825 531 
L 1825 4091 
L 703 3866 
L 703 4441 
L 1819 4666 
L 2450 4666 
L 2450 531 
L 3481 531 
L 3481 0 
L 794 0 
L 794 531 
z
" transform="scale(0.015625)"/>
       </defs>
       <use xlink:href="#DejaVuSans-31"/>
       <use xlink:href="#DejaVuSans-30" transform="translate(63.623047 0)"/>
       <use xlink:href="#DejaVuSans-30" transform="translate(127.246094 0)"/>
      </g>
     </g>
    </g>
    <g id="ytick_3">
     <g id="line2d_11">
      <g>
       <use xlink:href="#medcf1f4842" x="46.965625" y="146.670545" style="stroke: #000000; stroke-width: 0.8"/>
      </g>
     </g>
     <g id="text_12">
      <!-- 200 -->
      <g transform="translate(20.878125 150.469764) scale(0.1 -0.1)">
       <use xlink:href="#DejaVuSans-32"/>
       <use xlink:href="#DejaVuSans-30" transform="translate(63.623047 0)"/>
       <use xlink:href="#DejaVuSans-30" transform="translate(127.246094 0)"/>
      </g>
     </g>
    </g>
    <g id="ytick_4">
     <g id="line2d_12">
      <g>
       <use xlink:href="#medcf1f4842" x="46.965625" y="110.016" style="stroke: #000000; stroke-width: 0.8"/>
      </g>
     </g>
     <g id="text_13">
      <!-- 300 -->
      <g transform="translate(20.878125 113.815219) scale(0.1 -0.1)">
       <use xlink:href="#DejaVuSans-33"/>
       <use xlink:href="#DejaVuSans-30" transform="translate(63.623047 0)"/>
       <use xlink:href="#DejaVuSans-30" transform="translate(127.246094 0)"/>
      </g>
     </g>
    </g>
    <g id="ytick_5">
     <g id="line2d_13">
      <g>
       <use xlink:href="#medcf1f4842" x="46.965625" y="73.361455" style="stroke: #000000; stroke-width: 0.8"/>
      </g>
     </g>
     <g id="text_14">
      <!-- 400 -->
      <g transform="translate(20.878125 77.160673) scale(0.1 -0.1)">
       <use xlink:href="#DejaVuSans-34"/>
       <use xlink:href="#DejaVuSans-30" transform="translate(63.623047 0)"/>
       <use xlink:href="#DejaVuSans-30" transform="translate(127.246094 0)"/>
      </g>
     </g>
    </g>
    <g id="ytick_6">
     <g id="line2d_14">
      <g>
       <use xlink:href="#medcf1f4842" x="46.965625" y="36.706909" style="stroke: #000000; stroke-width: 0.8"/>
      </g>
     </g>
     <g id="text_15">
      <!-- 500 -->
      <g transform="translate(20.878125 40.506128) scale(0.1 -0.1)">
       <use xlink:href="#DejaVuSans-35"/>
       <use xlink:href="#DejaVuSans-30" transform="translate(63.623047 0)"/>
       <use xlink:href="#DejaVuSans-30" transform="translate(127.246094 0)"/>
      </g>
     </g>
    </g>
    <g id="text_16">
     <!-- [counts] -->
     <g transform="translate(14.798438 138.6925) rotate(-90) scale(0.1 -0.1)">
      <defs>
       <path id="DejaVuSans-63" d="M 3122 3366 
L 3122 2828 
Q 2878 2963 2633 3030 
Q 2388 3097 2138 3097 
Q 1578 3097 1268 2742 
Q 959 2388 959 1747 
Q 959 1106 1268 751 
Q 1578 397 2138 397 
Q 2388 397 2633 464 
Q 2878 531 3122 666 
L 3122 134 
Q 2881 22 2623 -34 
Q 2366 -91 2075 -91 
Q 1284 -91 818 406 
Q 353 903 353 1747 
Q 353 2603 823 3093 
Q 1294 3584 2113 3584 
Q 2378 3584 2631 3529 
Q 2884 3475 3122 3366 
z
" transform="scale(0.015625)"/>
       <path id="DejaVuSans-75" d="M 544 1381 
L 544 3500 
L 1119 3500 
L 1119 1403 
Q 1119 906 1312 657 
Q 1506 409 1894 409 
Q 2359 409 2629 706 
Q 2900 1003 2900 1516 
L 2900 3500 
L 3475 3500 
L 3475 0 
L 2900 0 
L 2900 538 
Q 2691 219 2414 64 
Q 2138 -91 1772 -91 
Q 1169 -91 856 284 
Q 544 659 544 1381 
z
M 1991 3584 
L 1991 3584 
z
" transform="scale(0.015625)"/>
       <path id="DejaVuSans-6e" d="M 3513 2113 
L 3513 0 
L 2938 0 
L 2938 2094 
Q 2938 2591 2744 2837 
Q 2550 3084 2163 3084 
Q 1697 3084 1428 2787 
Q 1159 2491 1159 1978 
L 1159 0 
L 581 0 
L 581 3500 
L 1159 3500 
L 1159 2956 
Q 1366 3272 1645 3428 
Q 1925 3584 2291 3584 
Q 2894 3584 3203 3211 
Q 3513 2838 3513 2113 
z
" transform="scale(0.015625)"/>
      </defs>
      <use xlink:href="#DejaVuSans-5b"/>
      <use xlink:href="#DejaVuSans-63" transform="translate(39.013672 0)"/>
      <use xlink:href="#DejaVuSans-6f" transform="translate(93.994141 0)"/>
      <use xlink:href="#DejaVuSans-75" transform="translate(155.175781 0)"/>
      <use xlink:href="#DejaVuSans-6e" transform="translate(218.554688 0)"/>
      <use xlink:href="#DejaVuSans-74" transform="translate(281.933594 0)"/>
      <use xlink:href="#DejaVuSans-73" transform="translate(321.142578 0)"/>
      <use xlink:href="#DejaVuSans-5d" transform="translate(373.242188 0)"/>
     </g>
    </g>
   </g>
   <g id="line2d_15">
    <path d="M 62.183807 216.314182 
L 63.198352 216.314182 
L 63.198352 210.816 
L 64.212898 210.816 
L 64.212898 209.716364 
L 65.227443 209.716364 
L 65.227443 203.851636 
L 66.241989 203.851636 
L 66.241989 197.620364 
L 67.256534 197.620364 
L 67.256534 198.353455 
L 68.27108 198.353455 
L 68.27108 182.958545 
L 69.285625 182.958545 
L 69.285625 185.524364 
L 70.30017 185.524364 
L 70.30017 178.56 
L 71.314716 178.56 
L 71.314716 177.460364 
L 72.329261 177.460364 
L 72.329261 176.360727 
L 73.343807 176.360727 
L 73.343807 172.695273 
L 74.358352 172.695273 
L 74.358352 163.531636 
L 75.372898 163.531636 
L 75.372898 152.535273 
L 76.387443 152.535273 
L 76.387443 154.001455 
L 77.401989 154.001455 
L 77.401989 140.805818 
L 78.416534 140.805818 
L 78.416534 147.770182 
L 79.43108 147.770182 
L 79.43108 145.570909 
L 81.46017 145.570909 
L 81.46017 135.307636 
L 82.474716 135.307636 
L 82.474716 132.008727 
L 83.489261 132.008727 
L 83.489261 125.777455 
L 84.503807 125.777455 
L 84.503807 117.346909 
L 85.518352 117.346909 
L 85.518352 115.514182 
L 86.532898 115.514182 
L 86.532898 112.581818 
L 87.547443 112.581818 
L 87.547443 107.450182 
L 88.561989 107.450182 
L 88.561989 103.418182 
L 89.576534 103.418182 
L 89.576534 100.119273 
L 90.59108 100.119273 
L 90.59108 91.322182 
L 91.605625 91.322182 
L 91.605625 102.318545 
L 92.62017 102.318545 
L 92.62017 90.222545 
L 93.634716 90.222545 
L 93.634716 81.058909 
L 94.649261 81.058909 
L 94.649261 82.158545 
L 95.663807 82.158545 
L 95.663807 83.991273 
L 96.678352 83.991273 
L 96.678352 79.959273 
L 97.692898 79.959273 
L 97.692898 82.891636 
L 98.707443 82.891636 
L 98.707443 79.226182 
L 99.721989 79.226182 
L 99.721989 59.432727 
L 100.736534 59.432727 
L 100.736534 64.197818 
L 101.75108 64.197818 
L 101.75108 61.998545 
L 102.765625 61.998545 
L 102.765625 46.237091 
L 103.78017 46.237091 
L 103.78017 67.130182 
L 104.794716 67.130182 
L 104.794716 56.866909 
L 105.809261 56.866909 
L 105.809261 53.201455 
L 106.823807 53.201455 
L 106.823807 58.333091 
L 107.838352 58.333091 
L 107.838352 57.233455 
L 108.852898 57.233455 
L 108.852898 47.703273 
L 109.867443 47.703273 
L 109.867443 44.037818 
L 110.881989 44.037818 
L 110.881989 53.934545 
L 111.896534 53.934545 
L 111.896534 43.304727 
L 112.91108 43.304727 
L 112.91108 38.173091 
L 113.925625 38.173091 
L 113.925625 47.336727 
L 114.94017 47.336727 
L 114.94017 66.397091 
L 115.954716 66.397091 
L 115.954716 17.28 
L 116.969261 17.28 
L 116.969261 59.432727 
L 117.983807 59.432727 
L 117.983807 44.770909 
L 118.998352 44.770909 
L 118.998352 41.472 
L 120.012898 41.472 
L 120.012898 51.002182 
L 121.027443 51.002182 
L 121.027443 46.603636 
L 122.041989 46.603636 
L 122.041989 46.970182 
L 123.056534 46.970182 
L 123.056534 75.927273 
L 124.07108 75.927273 
L 124.07108 48.802909 
L 125.085625 48.802909 
L 125.085625 40.738909 
L 126.10017 40.738909 
L 126.10017 63.098182 
L 127.114716 63.098182 
L 127.114716 56.866909 
L 128.129261 56.866909 
L 128.129261 67.130182 
L 129.143807 67.130182 
L 129.143807 64.930909 
L 130.158352 64.930909 
L 130.158352 58.333091 
L 131.172898 58.333091 
L 131.172898 70.795636 
L 132.187443 70.795636 
L 132.187443 64.930909 
L 133.201989 64.930909 
L 133.201989 57.233455 
L 134.216534 57.233455 
L 134.216534 79.226182 
L 135.23108 79.226182 
L 135.23108 64.564364 
L 136.245625 64.564364 
L 136.245625 68.962909 
L 137.26017 68.962909 
L 137.26017 65.664 
L 138.274716 65.664 
L 138.274716 72.628364 
L 139.289261 72.628364 
L 139.289261 53.201455 
L 140.303807 53.201455 
L 140.303807 78.126545 
L 141.318352 78.126545 
L 141.318352 67.130182 
L 143.347443 67.130182 
L 143.347443 75.560727 
L 144.361989 75.560727 
L 144.361989 82.525091 
L 145.376534 82.525091 
L 145.376534 61.265455 
L 146.39108 61.265455 
L 146.39108 82.525091 
L 147.405625 82.525091 
L 147.405625 77.026909 
L 148.42017 77.026909 
L 148.42017 64.930909 
L 149.434716 64.930909 
L 149.434716 76.293818 
L 150.449261 76.293818 
L 150.449261 90.222545 
L 151.463807 90.222545 
L 151.463807 77.026909 
L 152.478352 77.026909 
L 152.478352 78.493091 
L 153.492898 78.493091 
L 153.492898 96.820364 
L 154.507443 96.820364 
L 154.507443 102.318545 
L 155.521989 102.318545 
L 155.521989 79.592727 
L 156.536534 79.592727 
L 156.536534 80.692364 
L 157.55108 80.692364 
L 157.55108 84.357818 
L 158.565625 84.357818 
L 158.565625 71.162182 
L 159.58017 71.162182 
L 159.58017 73.728 
L 160.594716 73.728 
L 160.594716 83.258182 
L 161.609261 83.258182 
L 161.609261 74.094545 
L 162.623807 74.094545 
L 162.623807 85.090909 
L 163.638352 85.090909 
L 163.638352 82.891636 
L 164.652898 82.891636 
L 164.652898 84.357818 
L 165.667443 84.357818 
L 165.667443 85.457455 
L 166.681989 85.457455 
L 166.681989 99.386182 
L 167.696534 99.386182 
L 167.696534 89.489455 
L 168.71108 89.489455 
L 168.71108 86.190545 
L 169.725625 86.190545 
L 169.725625 87.290182 
L 170.74017 87.290182 
L 170.74017 85.457455 
L 171.754716 85.457455 
L 171.754716 93.888 
L 172.769261 93.888 
L 172.769261 79.592727 
L 173.783807 79.592727 
L 173.783807 92.055273 
L 174.798352 92.055273 
L 174.798352 108.916364 
L 175.812898 108.916364 
L 175.812898 100.852364 
L 176.827443 100.852364 
L 176.827443 105.250909 
L 177.841989 105.250909 
L 177.841989 95.720727 
L 178.856534 95.720727 
L 178.856534 99.386182 
L 179.87108 99.386182 
L 179.87108 119.179636 
L 180.885625 119.179636 
L 180.885625 117.713455 
L 181.90017 117.713455 
L 181.90017 111.115636 
L 182.914716 111.115636 
L 182.914716 114.414545 
L 183.929261 114.414545 
L 183.929261 112.948364 
L 184.943807 112.948364 
L 184.943807 120.279273 
L 185.958352 120.279273 
L 185.958352 126.510545 
L 186.972898 126.510545 
L 186.972898 130.542545 
L 187.987443 130.542545 
L 187.987443 151.435636 
L 189.001989 151.435636 
L 189.001989 144.471273 
L 190.016534 144.471273 
L 190.016534 142.272 
L 191.03108 142.272 
L 191.03108 147.770182 
L 192.045625 147.770182 
L 192.045625 158.033455 
L 194.074716 158.033455 
L 194.074716 152.535273 
L 195.089261 152.535273 
L 195.089261 159.866182 
L 196.103807 159.866182 
L 196.103807 169.762909 
L 197.118352 169.762909 
L 197.118352 180.026182 
L 198.132898 180.026182 
L 198.132898 183.691636 
L 199.147443 183.691636 
L 199.147443 175.261091 
L 200.161989 175.261091 
L 200.161989 186.624 
L 201.176534 186.624 
L 201.176534 187.357091 
L 202.19108 187.357091 
L 202.19108 184.058182 
L 203.205625 184.058182 
L 203.205625 200.552727 
L 204.22017 200.552727 
L 204.22017 205.317818 
L 205.234716 205.317818 
L 205.234716 207.517091 
L 207.263807 207.517091 
L 207.263807 206.417455 
L 208.278352 206.417455 
L 208.278352 215.214545 
L 209.292898 215.214545 
L 209.292898 215.947636 
L 210.307443 215.947636 
L 210.307443 215.581091 
L 211.321989 215.581091 
L 211.321989 217.047273 
L 212.336534 217.047273 
L 212.336534 218.88 
L 213.35108 218.88 
L 213.35108 217.780364 
L 214.365625 217.780364 
L 214.365625 211.182545 
L 215.38017 211.182545 
L 215.38017 205.684364 
L 216.394716 205.684364 
L 216.394716 204.218182 
L 217.409261 204.218182 
L 217.409261 200.919273 
L 218.423807 200.919273 
L 218.423807 193.954909 
L 219.438352 193.954909 
L 219.438352 188.823273 
L 220.452898 188.823273 
L 220.452898 192.488727 
L 221.467443 192.488727 
L 221.467443 188.456727 
L 222.481989 188.456727 
L 222.481989 174.161455 
L 223.496534 174.161455 
L 223.496534 178.56 
L 224.51108 178.56 
L 224.51108 173.794909 
L 225.525625 173.794909 
L 225.525625 172.328727 
L 226.54017 172.328727 
L 226.54017 166.097455 
L 227.554716 166.097455 
L 227.554716 167.930182 
L 229.583807 167.930182 
L 229.583807 162.798545 
L 230.598352 162.798545 
L 230.598352 151.802182 
L 231.612898 151.802182 
L 231.612898 160.965818 
L 232.627443 160.965818 
L 232.627443 158.766545 
L 233.641989 158.766545 
L 233.641989 147.770182 
L 234.656534 147.770182 
L 234.656534 161.332364 
L 235.67108 161.332364 
L 235.67108 143.738182 
L 236.685625 143.738182 
L 236.685625 141.905455 
L 238.714716 141.905455 
L 238.714716 144.104727 
L 239.729261 144.104727 
L 239.729261 142.638545 
L 240.743807 142.638545 
L 240.743807 132.741818 
L 241.758352 132.741818 
L 241.758352 136.773818 
L 242.772898 136.773818 
L 242.772898 143.738182 
L 243.787443 143.738182 
L 243.787443 127.610182 
L 244.801989 127.610182 
L 244.801989 123.578182 
L 245.816534 123.578182 
L 245.816534 115.514182 
L 246.83108 115.514182 
L 246.83108 128.709818 
L 247.845625 128.709818 
L 247.845625 120.279273 
L 248.86017 120.279273 
L 248.86017 121.378909 
L 249.874716 121.378909 
L 249.874716 111.848727 
L 250.889261 111.848727 
L 250.889261 122.112 
L 251.903807 122.112 
L 251.903807 123.211636 
L 252.918352 123.211636 
L 252.918352 118.813091 
L 253.932898 118.813091 
L 253.932898 122.478545 
L 254.947443 122.478545 
L 254.947443 111.482182 
L 255.961989 111.482182 
L 255.961989 97.92 
L 256.976534 97.92 
L 256.976534 108.916364 
L 257.99108 108.916364 
L 257.99108 103.051636 
L 259.005625 103.051636 
L 259.005625 89.856 
L 260.02017 89.856 
L 260.02017 110.382545 
L 261.034716 110.382545 
L 261.034716 101.585455 
L 262.049261 101.585455 
L 262.049261 110.749091 
L 263.063807 110.749091 
L 263.063807 96.820364 
L 264.078352 96.820364 
L 264.078352 107.816727 
L 265.092898 107.816727 
L 265.092898 102.685091 
L 266.107443 102.685091 
L 266.107443 95.354182 
L 267.121989 95.354182 
L 267.121989 109.649455 
L 268.136534 109.649455 
L 268.136534 98.653091 
L 269.15108 98.653091 
L 269.15108 105.250909 
L 270.165625 105.250909 
L 270.165625 108.183273 
L 271.18017 108.183273 
L 271.18017 108.549818 
L 272.194716 108.549818 
L 272.194716 107.450182 
L 273.209261 107.450182 
L 273.209261 96.820364 
L 274.223807 96.820364 
L 274.223807 117.346909 
L 275.238352 117.346909 
L 275.238352 109.649455 
L 276.252898 109.649455 
L 276.252898 116.980364 
L 277.267443 116.980364 
L 277.267443 110.016 
L 278.281989 110.016 
L 278.281989 114.048 
L 279.296534 114.048 
L 279.296534 119.179636 
L 280.31108 119.179636 
L 280.31108 131.642182 
L 281.325625 131.642182 
L 281.325625 118.446545 
L 282.34017 118.446545 
L 282.34017 127.243636 
L 283.354716 127.243636 
L 283.354716 122.845091 
L 284.369261 122.845091 
L 284.369261 115.147636 
L 285.383807 115.147636 
L 285.383807 122.112 
L 286.398352 122.112 
L 286.398352 117.346909 
L 288.427443 117.346909 
L 288.427443 126.144 
L 289.441989 126.144 
L 289.441989 126.877091 
L 290.456534 126.877091 
L 290.456534 117.713455 
L 291.47108 117.713455 
L 291.47108 130.909091 
L 292.485625 130.909091 
L 292.485625 129.076364 
L 293.50017 129.076364 
L 293.50017 127.976727 
L 294.514716 127.976727 
L 294.514716 133.841455 
L 295.529261 133.841455 
L 295.529261 121.378909 
L 296.543807 121.378909 
L 296.543807 129.442909 
L 297.558352 129.442909 
L 297.558352 138.24 
L 298.572898 138.24 
L 298.572898 133.474909 
L 299.587443 133.474909 
L 299.587443 133.841455 
L 300.601989 133.841455 
L 300.601989 126.877091 
L 301.616534 126.877091 
L 301.616534 134.574545 
L 302.63108 134.574545 
L 302.63108 140.805818 
L 303.645625 140.805818 
L 303.645625 140.439273 
L 304.66017 140.439273 
L 304.66017 147.770182 
L 305.674716 147.770182 
L 305.674716 153.268364 
L 306.689261 153.268364 
L 306.689261 149.236364 
L 307.703807 149.236364 
L 307.703807 151.069091 
L 308.718352 151.069091 
L 308.718352 143.738182 
L 309.732898 143.738182 
L 309.732898 145.570909 
L 310.747443 145.570909 
L 310.747443 140.072727 
L 311.761989 140.072727 
L 311.761989 157.666909 
L 312.776534 157.666909 
L 312.776534 160.599273 
L 313.79108 160.599273 
L 313.79108 152.901818 
L 314.805625 152.901818 
L 314.805625 148.503273 
L 315.82017 148.503273 
L 315.82017 157.300364 
L 316.834716 157.300364 
L 316.834716 153.634909 
L 318.863807 153.634909 
L 318.863807 152.168727 
L 319.878352 152.168727 
L 319.878352 163.898182 
L 320.892898 163.898182 
L 320.892898 154.734545 
L 321.907443 154.734545 
L 321.907443 161.332364 
L 322.921989 161.332364 
L 322.921989 155.101091 
L 323.936534 155.101091 
L 323.936534 157.300364 
L 324.95108 157.300364 
L 324.95108 171.962182 
L 325.965625 171.962182 
L 325.965625 157.300364 
L 326.98017 157.300364 
L 326.98017 163.531636 
L 327.994716 163.531636 
L 327.994716 169.029818 
L 329.009261 169.029818 
L 329.009261 169.396364 
L 330.023807 169.396364 
L 330.023807 169.029818 
L 331.038352 169.029818 
L 331.038352 176.360727 
L 332.052898 176.360727 
L 332.052898 178.56 
L 333.067443 178.56 
L 333.067443 175.994182 
L 334.081989 175.994182 
L 334.081989 172.695273 
L 335.096534 172.695273 
L 335.096534 180.026182 
L 336.11108 180.026182 
L 336.11108 181.858909 
L 337.125625 181.858909 
L 337.125625 181.125818 
L 338.14017 181.125818 
L 338.14017 177.826909 
L 339.154716 177.826909 
L 339.154716 181.125818 
L 340.169261 181.125818 
L 340.169261 183.325091 
L 341.183807 183.325091 
L 341.183807 191.389091 
L 342.198352 191.389091 
L 342.198352 196.154182 
L 343.212898 196.154182 
L 343.212898 194.688 
L 344.227443 194.688 
L 344.227443 191.022545 
L 345.241989 191.022545 
L 345.241989 196.154182 
L 346.256534 196.154182 
L 346.256534 201.285818 
L 347.27108 201.285818 
L 347.27108 200.552727 
L 348.285625 200.552727 
L 348.285625 206.050909 
L 349.30017 206.050909 
L 349.30017 205.317818 
L 350.314716 205.317818 
L 350.314716 204.584727 
L 351.329261 204.584727 
L 351.329261 209.716364 
L 352.343807 209.716364 
L 352.343807 206.417455 
L 353.358352 206.417455 
L 353.358352 208.250182 
L 354.372898 208.250182 
L 354.372898 209.349818 
L 355.387443 209.349818 
L 355.387443 210.816 
L 356.401989 210.816 
L 356.401989 211.549091 
L 358.43108 211.549091 
L 358.43108 215.581091 
L 359.445625 215.581091 
L 359.445625 215.214545 
L 360.46017 215.214545 
L 360.46017 215.947636 
L 361.474716 215.947636 
L 361.474716 218.88 
L 362.489261 218.88 
L 362.489261 215.947636 
L 363.503807 215.947636 
L 363.503807 218.146909 
L 364.518352 218.146909 
L 364.518352 218.88 
L 366.547443 218.88 
L 366.547443 218.88 
" clip-path="url(#p8ce925cfd7)" style="fill: none; stroke: #1f77b4; stroke-width: 1.5; stroke-linecap: square"/>
   </g>
   <g id="patch_3">
    <path d="M 46.965625 228.96 
L 46.965625 7.2 
" style="fill: none; stroke: #000000; stroke-width: 0.8; stroke-linejoin: miter; stroke-linecap: square"/>
   </g>
   <g id="patch_4">
    <path d="M 381.765625 228.96 
L 381.765625 7.2 
" style="fill: none; stroke: #000000; stroke-width: 0.8; stroke-linejoin: miter; stroke-linecap: square"/>
   </g>
   <g id="patch_5">
    <path d="M 46.965625 228.96 
L 381.765625 228.96 
" style="fill: none; stroke: #000000; stroke-width: 0.8; stroke-linejoin: miter; stroke-linecap: square"/>
   </g>
   <g id="patch_6">
    <path d="M 46.965625 7.2 
L 381.765625 7.2 
" style="fill: none; stroke: #000000; stroke-width: 0.8; stroke-linejoin: miter; stroke-linecap: square"/>
   </g>
  </g>
 </g>
 <defs>
  <clipPath id="p8ce925cfd7">
   <rect x="46.965625" y="7.2" width="334.8" height="221.76"/>
  </clipPath>
 </defs>
</svg>
