<?xml version="1.0" encoding="utf-8" standalone="no"?>
<!DOCTYPE svg PUBLIC "-//W3C//DTD SVG 1.1//EN"
  "http://www.w3.org/Graphics/SVG/1.1/DTD/svg11.dtd">
<svg xmlns:xlink="http://www.w3.org/1999/xlink" width="395.328125pt" height="268.200625pt" viewBox="0 0 395.328125 268.200625" xmlns="http://www.w3.org/2000/svg" version="1.1">
 <metadata>
  <rdf:RDF xmlns:dc="http://purl.org/dc/elements/1.1/" xmlns:cc="http://creativecommons.org/ns#" xmlns:rdf="http://www.w3.org/1999/02/22-rdf-syntax-ns#">
   <cc:Work>
    <dc:type rdf:resource="http://purl.org/dc/dcmitype/StillImage"/>
    <dc:date>2025-05-14T12:11:27.047123</dc:date>
    <dc:format>image/svg+xml</dc:format>
    <dc:creator>
     <cc:Agent>
      <dc:title>Matplotlib v3.10.1, https://matplotlib.org/</dc:title>
     </cc:Agent>
    </dc:creator>
   </cc:Work>
  </rdf:RDF>
 </metadata>
 <defs>
  <style type="text/css">*{stroke-linejoin: round; stroke-linecap: butt}</style>
 </defs>
 <g id="figure_1">
  <g id="patch_1">
   <path d="M 0 268.200625 
L 395.328125 268.200625 
L 395.328125 0 
L 0 0 
z
" style="fill: #ffffff"/>
  </g>
  <g id="axes_1">
   <g id="patch_2">
    <path d="M 53.328125 228.96 
L 388.128125 228.96 
L 388.128125 7.2 
L 53.328125 7.2 
z
" style="fill: #ffffff"/>
   </g>
   <g id="matplotlib.axis_1">
    <g id="xtick_1">
     <g id="line2d_1">
      <defs>
       <path id="m52d7c613e0" d="M 0 0 
L 0 3.5 
" style="stroke: #000000; stroke-width: 0.8"/>
      </defs>
      <g>
       <use xlink:href="#m52d7c613e0" x="68.546307" y="228.96" style="stroke: #000000; stroke-width: 0.8"/>
      </g>
     </g>
     <g id="text_1">
      <!-- 2 -->
      <g transform="translate(65.365057 243.558437) scale(0.1 -0.1)">
       <defs>
        <path id="DejaVuSans-32" d="M 1228 531 
L 3431 531 
L 3431 0 
L 469 0 
L 469 531 
Q 828 903 1448 1529 
Q 2069 2156 2228 2338 
Q 2531 2678 2651 2914 
Q 2772 3150 2772 3378 
Q 2772 3750 2511 3984 
Q 2250 4219 1831 4219 
Q 1534 4219 1204 4116 
Q 875 4013 500 3803 
L 500 4441 
Q 881 4594 1212 4672 
Q 1544 4750 1819 4750 
Q 2544 4750 2975 4387 
Q 3406 4025 3406 3419 
Q 3406 3131 3298 2873 
Q 3191 2616 2906 2266 
Q 2828 2175 2409 1742 
Q 1991 1309 1228 531 
z
" transform="scale(0.015625)"/>
       </defs>
       <use xlink:href="#DejaVuSans-32"/>
      </g>
     </g>
    </g>
    <g id="xtick_2">
     <g id="line2d_2">
      <g>
       <use xlink:href="#m52d7c613e0" x="106.591761" y="228.96" style="stroke: #000000; stroke-width: 0.8"/>
      </g>
     </g>
     <g id="text_2">
      <!-- 3 -->
      <g transform="translate(103.410511 243.558437) scale(0.1 -0.1)">
       <defs>
        <path id="DejaVuSans-33" d="M 2597 2516 
Q 3050 2419 3304 2112 
Q 3559 1806 3559 1356 
Q 3559 666 3084 287 
Q 2609 -91 1734 -91 
Q 1441 -91 1130 -33 
Q 819 25 488 141 
L 488 750 
Q 750 597 1062 519 
Q 1375 441 1716 441 
Q 2309 441 2620 675 
Q 2931 909 2931 1356 
Q 2931 1769 2642 2001 
Q 2353 2234 1838 2234 
L 1294 2234 
L 1294 2753 
L 1863 2753 
Q 2328 2753 2575 2939 
Q 2822 3125 2822 3475 
Q 2822 3834 2567 4026 
Q 2313 4219 1838 4219 
Q 1578 4219 1281 4162 
Q 984 4106 628 3988 
L 628 4550 
Q 988 4650 1302 4700 
Q 1616 4750 1894 4750 
Q 2613 4750 3031 4423 
Q 3450 4097 3450 3541 
Q 3450 3153 3228 2886 
Q 3006 2619 2597 2516 
z
" transform="scale(0.015625)"/>
       </defs>
       <use xlink:href="#DejaVuSans-33"/>
      </g>
     </g>
    </g>
    <g id="xtick_3">
     <g id="line2d_3">
      <g>
       <use xlink:href="#m52d7c613e0" x="144.637216" y="228.96" style="stroke: #000000; stroke-width: 0.8"/>
      </g>
     </g>
     <g id="text_3">
      <!-- 4 -->
      <g transform="translate(141.455966 243.558437) scale(0.1 -0.1)">
       <defs>
        <path id="DejaVuSans-34" d="M 2419 4116 
L 825 1625 
L 2419 1625 
L 2419 4116 
z
M 2253 4666 
L 3047 4666 
L 3047 1625 
L 3713 1625 
L 3713 1100 
L 3047 1100 
L 3047 0 
L 2419 0 
L 2419 1100 
L 313 1100 
L 313 1709 
L 2253 4666 
z
" transform="scale(0.015625)"/>
       </defs>
       <use xlink:href="#DejaVuSans-34"/>
      </g>
     </g>
    </g>
    <g id="xtick_4">
     <g id="line2d_4">
      <g>
       <use xlink:href="#m52d7c613e0" x="182.68267" y="228.96" style="stroke: #000000; stroke-width: 0.8"/>
      </g>
     </g>
     <g id="text_4">
      <!-- 5 -->
      <g transform="translate(179.50142 243.558437) scale(0.1 -0.1)">
       <defs>
        <path id="DejaVuSans-35" d="M 691 4666 
L 3169 4666 
L 3169 4134 
L 1269 4134 
L 1269 2991 
Q 1406 3038 1543 3061 
Q 1681 3084 1819 3084 
Q 2600 3084 3056 2656 
Q 3513 2228 3513 1497 
Q 3513 744 3044 326 
Q 2575 -91 1722 -91 
Q 1428 -91 1123 -41 
Q 819 9 494 109 
L 494 744 
Q 775 591 1075 516 
Q 1375 441 1709 441 
Q 2250 441 2565 725 
Q 2881 1009 2881 1497 
Q 2881 1984 2565 2268 
Q 2250 2553 1709 2553 
Q 1456 2553 1204 2497 
Q 953 2441 691 2322 
L 691 4666 
z
" transform="scale(0.015625)"/>
       </defs>
       <use xlink:href="#DejaVuSans-35"/>
      </g>
     </g>
    </g>
    <g id="xtick_5">
     <g id="line2d_5">
      <g>
       <use xlink:href="#m52d7c613e0" x="220.728125" y="228.96" style="stroke: #000000; stroke-width: 0.8"/>
      </g>
     </g>
     <g id="text_5">
      <!-- 6 -->
      <g transform="translate(217.546875 243.558437) scale(0.1 -0.1)">
       <defs>
        <path id="DejaVuSans-36" d="M 2113 2584 
Q 1688 2584 1439 2293 
Q 1191 2003 1191 1497 
Q 1191 994 1439 701 
Q 1688 409 2113 409 
Q 2538 409 2786 701 
Q 3034 994 3034 1497 
Q 3034 2003 2786 2293 
Q 2538 2584 2113 2584 
z
M 3366 4563 
L 3366 3988 
Q 3128 4100 2886 4159 
Q 2644 4219 2406 4219 
Q 1781 4219 1451 3797 
Q 1122 3375 1075 2522 
Q 1259 2794 1537 2939 
Q 1816 3084 2150 3084 
Q 2853 3084 3261 2657 
Q 3669 2231 3669 1497 
Q 3669 778 3244 343 
Q 2819 -91 2113 -91 
Q 1303 -91 875 529 
Q 447 1150 447 2328 
Q 447 3434 972 4092 
Q 1497 4750 2381 4750 
Q 2619 4750 2861 4703 
Q 3103 4656 3366 4563 
z
" transform="scale(0.015625)"/>
       </defs>
       <use xlink:href="#DejaVuSans-36"/>
      </g>
     </g>
    </g>
    <g id="xtick_6">
     <g id="line2d_6">
      <g>
       <use xlink:href="#m52d7c613e0" x="258.77358" y="228.96" style="stroke: #000000; stroke-width: 0.8"/>
      </g>
     </g>
     <g id="text_6">
      <!-- 7 -->
      <g transform="translate(255.59233 243.558437) scale(0.1 -0.1)">
       <defs>
        <path id="DejaVuSans-37" d="M 525 4666 
L 3525 4666 
L 3525 4397 
L 1831 0 
L 1172 0 
L 2766 4134 
L 525 4134 
L 525 4666 
z
" transform="scale(0.015625)"/>
       </defs>
       <use xlink:href="#DejaVuSans-37"/>
      </g>
     </g>
    </g>
    <g id="xtick_7">
     <g id="line2d_7">
      <g>
       <use xlink:href="#m52d7c613e0" x="296.819034" y="228.96" style="stroke: #000000; stroke-width: 0.8"/>
      </g>
     </g>
     <g id="text_7">
      <!-- 8 -->
      <g transform="translate(293.637784 243.558437) scale(0.1 -0.1)">
       <defs>
        <path id="DejaVuSans-38" d="M 2034 2216 
Q 1584 2216 1326 1975 
Q 1069 1734 1069 1313 
Q 1069 891 1326 650 
Q 1584 409 2034 409 
Q 2484 409 2743 651 
Q 3003 894 3003 1313 
Q 3003 1734 2745 1975 
Q 2488 2216 2034 2216 
z
M 1403 2484 
Q 997 2584 770 2862 
Q 544 3141 544 3541 
Q 544 4100 942 4425 
Q 1341 4750 2034 4750 
Q 2731 4750 3128 4425 
Q 3525 4100 3525 3541 
Q 3525 3141 3298 2862 
Q 3072 2584 2669 2484 
Q 3125 2378 3379 2068 
Q 3634 1759 3634 1313 
Q 3634 634 3220 271 
Q 2806 -91 2034 -91 
Q 1263 -91 848 271 
Q 434 634 434 1313 
Q 434 1759 690 2068 
Q 947 2378 1403 2484 
z
M 1172 3481 
Q 1172 3119 1398 2916 
Q 1625 2713 2034 2713 
Q 2441 2713 2670 2916 
Q 2900 3119 2900 3481 
Q 2900 3844 2670 4047 
Q 2441 4250 2034 4250 
Q 1625 4250 1398 4047 
Q 1172 3844 1172 3481 
z
" transform="scale(0.015625)"/>
       </defs>
       <use xlink:href="#DejaVuSans-38"/>
      </g>
     </g>
    </g>
    <g id="xtick_8">
     <g id="line2d_8">
      <g>
       <use xlink:href="#m52d7c613e0" x="334.864489" y="228.96" style="stroke: #000000; stroke-width: 0.8"/>
      </g>
     </g>
     <g id="text_8">
      <!-- 9 -->
      <g transform="translate(331.683239 243.558437) scale(0.1 -0.1)">
       <defs>
        <path id="DejaVuSans-39" d="M 703 97 
L 703 672 
Q 941 559 1184 500 
Q 1428 441 1663 441 
Q 2288 441 2617 861 
Q 2947 1281 2994 2138 
Q 2813 1869 2534 1725 
Q 2256 1581 1919 1581 
Q 1219 1581 811 2004 
Q 403 2428 403 3163 
Q 403 3881 828 4315 
Q 1253 4750 1959 4750 
Q 2769 4750 3195 4129 
Q 3622 3509 3622 2328 
Q 3622 1225 3098 567 
Q 2575 -91 1691 -91 
Q 1453 -91 1209 -44 
Q 966 3 703 97 
z
M 1959 2075 
Q 2384 2075 2632 2365 
Q 2881 2656 2881 3163 
Q 2881 3666 2632 3958 
Q 2384 4250 1959 4250 
Q 1534 4250 1286 3958 
Q 1038 3666 1038 3163 
Q 1038 2656 1286 2365 
Q 1534 2075 1959 2075 
z
" transform="scale(0.015625)"/>
       </defs>
       <use xlink:href="#DejaVuSans-39"/>
      </g>
     </g>
    </g>
    <g id="xtick_9">
     <g id="line2d_9">
      <g>
       <use xlink:href="#m52d7c613e0" x="372.909943" y="228.96" style="stroke: #000000; stroke-width: 0.8"/>
      </g>
     </g>
     <g id="text_9">
      <!-- 10 -->
      <g transform="translate(366.547443 243.558437) scale(0.1 -0.1)">
       <defs>
        <path id="DejaVuSans-31" d="M 794 531 
L 1825 531 
L 1825 4091 
L 703 3866 
L 703 4441 
L 1819 4666 
L 2450 4666 
L 2450 531 
L 3481 531 
L 3481 0 
L 794 0 
L 794 531 
z
" transform="scale(0.015625)"/>
        <path id="DejaVuSans-30" d="M 2034 4250 
Q 1547 4250 1301 3770 
Q 1056 3291 1056 2328 
Q 1056 1369 1301 889 
Q 1547 409 2034 409 
Q 2525 409 2770 889 
Q 3016 1369 3016 2328 
Q 3016 3291 2770 3770 
Q 2525 4250 2034 4250 
z
M 2034 4750 
Q 2819 4750 3233 4129 
Q 3647 3509 3647 2328 
Q 3647 1150 3233 529 
Q 2819 -91 2034 -91 
Q 1250 -91 836 529 
Q 422 1150 422 2328 
Q 422 3509 836 4129 
Q 1250 4750 2034 4750 
z
" transform="scale(0.015625)"/>
       </defs>
       <use xlink:href="#DejaVuSans-31"/>
       <use xlink:href="#DejaVuSans-30" transform="translate(63.623047 0)"/>
      </g>
     </g>
    </g>
    <g id="text_10">
     <!-- wavelength [Å] -->
     <g transform="translate(182.690625 258.920937) scale(0.1 -0.1)">
      <defs>
       <path id="DejaVuSans-77" d="M 269 3500 
L 844 3500 
L 1563 769 
L 2278 3500 
L 2956 3500 
L 3675 769 
L 4391 3500 
L 4966 3500 
L 4050 0 
L 3372 0 
L 2619 2869 
L 1863 0 
L 1184 0 
L 269 3500 
z
" transform="scale(0.015625)"/>
       <path id="DejaVuSans-61" d="M 2194 1759 
Q 1497 1759 1228 1600 
Q 959 1441 959 1056 
Q 959 750 1161 570 
Q 1363 391 1709 391 
Q 2188 391 2477 730 
Q 2766 1069 2766 1631 
L 2766 1759 
L 2194 1759 
z
M 3341 1997 
L 3341 0 
L 2766 0 
L 2766 531 
Q 2569 213 2275 61 
Q 1981 -91 1556 -91 
Q 1019 -91 701 211 
Q 384 513 384 1019 
Q 384 1609 779 1909 
Q 1175 2209 1959 2209 
L 2766 2209 
L 2766 2266 
Q 2766 2663 2505 2880 
Q 2244 3097 1772 3097 
Q 1472 3097 1187 3025 
Q 903 2953 641 2809 
L 641 3341 
Q 956 3463 1253 3523 
Q 1550 3584 1831 3584 
Q 2591 3584 2966 3190 
Q 3341 2797 3341 1997 
z
" transform="scale(0.015625)"/>
       <path id="DejaVuSans-76" d="M 191 3500 
L 800 3500 
L 1894 563 
L 2988 3500 
L 3597 3500 
L 2284 0 
L 1503 0 
L 191 3500 
z
" transform="scale(0.015625)"/>
       <path id="DejaVuSans-65" d="M 3597 1894 
L 3597 1613 
L 953 1613 
Q 991 1019 1311 708 
Q 1631 397 2203 397 
Q 2534 397 2845 478 
Q 3156 559 3463 722 
L 3463 178 
Q 3153 47 2828 -22 
Q 2503 -91 2169 -91 
Q 1331 -91 842 396 
Q 353 884 353 1716 
Q 353 2575 817 3079 
Q 1281 3584 2069 3584 
Q 2775 3584 3186 3129 
Q 3597 2675 3597 1894 
z
M 3022 2063 
Q 3016 2534 2758 2815 
Q 2500 3097 2075 3097 
Q 1594 3097 1305 2825 
Q 1016 2553 972 2059 
L 3022 2063 
z
" transform="scale(0.015625)"/>
       <path id="DejaVuSans-6c" d="M 603 4863 
L 1178 4863 
L 1178 0 
L 603 0 
L 603 4863 
z
" transform="scale(0.015625)"/>
       <path id="DejaVuSans-6e" d="M 3513 2113 
L 3513 0 
L 2938 0 
L 2938 2094 
Q 2938 2591 2744 2837 
Q 2550 3084 2163 3084 
Q 1697 3084 1428 2787 
Q 1159 2491 1159 1978 
L 1159 0 
L 581 0 
L 581 3500 
L 1159 3500 
L 1159 2956 
Q 1366 3272 1645 3428 
Q 1925 3584 2291 3584 
Q 2894 3584 3203 3211 
Q 3513 2838 3513 2113 
z
" transform="scale(0.015625)"/>
       <path id="DejaVuSans-67" d="M 2906 1791 
Q 2906 2416 2648 2759 
Q 2391 3103 1925 3103 
Q 1463 3103 1205 2759 
Q 947 2416 947 1791 
Q 947 1169 1205 825 
Q 1463 481 1925 481 
Q 2391 481 2648 825 
Q 2906 1169 2906 1791 
z
M 3481 434 
Q 3481 -459 3084 -895 
Q 2688 -1331 1869 -1331 
Q 1566 -1331 1297 -1286 
Q 1028 -1241 775 -1147 
L 775 -588 
Q 1028 -725 1275 -790 
Q 1522 -856 1778 -856 
Q 2344 -856 2625 -561 
Q 2906 -266 2906 331 
L 2906 616 
Q 2728 306 2450 153 
Q 2172 0 1784 0 
Q 1141 0 747 490 
Q 353 981 353 1791 
Q 353 2603 747 3093 
Q 1141 3584 1784 3584 
Q 2172 3584 2450 3431 
Q 2728 3278 2906 2969 
L 2906 3500 
L 3481 3500 
L 3481 434 
z
" transform="scale(0.015625)"/>
       <path id="DejaVuSans-74" d="M 1172 4494 
L 1172 3500 
L 2356 3500 
L 2356 3053 
L 1172 3053 
L 1172 1153 
Q 1172 725 1289 603 
Q 1406 481 1766 481 
L 2356 481 
L 2356 0 
L 1766 0 
Q 1100 0 847 248 
Q 594 497 594 1153 
L 594 3053 
L 172 3053 
L 172 3500 
L 594 3500 
L 594 4494 
L 1172 4494 
z
" transform="scale(0.015625)"/>
       <path id="DejaVuSans-68" d="M 3513 2113 
L 3513 0 
L 2938 0 
L 2938 2094 
Q 2938 2591 2744 2837 
Q 2550 3084 2163 3084 
Q 1697 3084 1428 2787 
Q 1159 2491 1159 1978 
L 1159 0 
L 581 0 
L 581 4863 
L 1159 4863 
L 1159 2956 
Q 1366 3272 1645 3428 
Q 1925 3584 2291 3584 
Q 2894 3584 3203 3211 
Q 3513 2838 3513 2113 
z
" transform="scale(0.015625)"/>
       <path id="DejaVuSans-20" transform="scale(0.015625)"/>
       <path id="DejaVuSans-5b" d="M 550 4863 
L 1875 4863 
L 1875 4416 
L 1125 4416 
L 1125 -397 
L 1875 -397 
L 1875 -844 
L 550 -844 
L 550 4863 
z
" transform="scale(0.015625)"/>
       <path id="DejaVuSans-c5" d="M 2663 5081 
Q 2663 5278 2523 5417 
Q 2384 5556 2188 5556 
Q 1988 5556 1852 5420 
Q 1716 5284 1716 5081 
Q 1716 4884 1853 4746 
Q 1991 4609 2188 4609 
Q 2384 4609 2523 4746 
Q 2663 4884 2663 5081 
z
M 2188 4044 
L 1338 1722 
L 3041 1722 
L 2188 4044 
z
M 1716 4366 
Q 1525 4494 1428 4673 
Q 1331 4853 1331 5081 
Q 1331 5441 1579 5691 
Q 1828 5941 2188 5941 
Q 2544 5941 2795 5689 
Q 3047 5438 3047 5081 
Q 3047 4863 2948 4678 
Q 2850 4494 2663 4366 
L 4325 0 
L 3669 0 
L 3244 1197 
L 1141 1197 
L 716 0 
L 50 0 
L 1716 4366 
z
" transform="scale(0.015625)"/>
       <path id="DejaVuSans-5d" d="M 1947 4863 
L 1947 -844 
L 622 -844 
L 622 -397 
L 1369 -397 
L 1369 4416 
L 622 4416 
L 622 4863 
L 1947 4863 
z
" transform="scale(0.015625)"/>
      </defs>
      <use xlink:href="#DejaVuSans-77"/>
      <use xlink:href="#DejaVuSans-61" transform="translate(81.787109 0)"/>
      <use xlink:href="#DejaVuSans-76" transform="translate(143.066406 0)"/>
      <use xlink:href="#DejaVuSans-65" transform="translate(202.246094 0)"/>
      <use xlink:href="#DejaVuSans-6c" transform="translate(263.769531 0)"/>
      <use xlink:href="#DejaVuSans-65" transform="translate(291.552734 0)"/>
      <use xlink:href="#DejaVuSans-6e" transform="translate(353.076172 0)"/>
      <use xlink:href="#DejaVuSans-67" transform="translate(416.455078 0)"/>
      <use xlink:href="#DejaVuSans-74" transform="translate(479.931641 0)"/>
      <use xlink:href="#DejaVuSans-68" transform="translate(519.140625 0)"/>
      <use xlink:href="#DejaVuSans-20" transform="translate(582.519531 0)"/>
      <use xlink:href="#DejaVuSans-5b" transform="translate(614.306641 0)"/>
      <use xlink:href="#DejaVuSans-c5" transform="translate(653.320312 0)"/>
      <use xlink:href="#DejaVuSans-5d" transform="translate(721.728516 0)"/>
     </g>
    </g>
   </g>
   <g id="matplotlib.axis_2">
    <g id="ytick_1">
     <g id="line2d_10">
      <defs>
       <path id="me977975ea4" d="M 0 0 
L -3.5 0 
" style="stroke: #000000; stroke-width: 0.8"/>
      </defs>
      <g>
       <use xlink:href="#me977975ea4" x="53.328125" y="218.88" style="stroke: #000000; stroke-width: 0.8"/>
      </g>
     </g>
     <g id="text_11">
      <!-- 0 -->
      <g transform="translate(39.965625 222.679219) scale(0.1 -0.1)">
       <use xlink:href="#DejaVuSans-30"/>
      </g>
     </g>
    </g>
    <g id="ytick_2">
     <g id="line2d_11">
      <g>
       <use xlink:href="#me977975ea4" x="53.328125" y="181.560489" style="stroke: #000000; stroke-width: 0.8"/>
      </g>
     </g>
     <g id="text_12">
      <!-- 500 -->
      <g transform="translate(27.240625 185.359707) scale(0.1 -0.1)">
       <use xlink:href="#DejaVuSans-35"/>
       <use xlink:href="#DejaVuSans-30" transform="translate(63.623047 0)"/>
       <use xlink:href="#DejaVuSans-30" transform="translate(127.246094 0)"/>
      </g>
     </g>
    </g>
    <g id="ytick_3">
     <g id="line2d_12">
      <g>
       <use xlink:href="#me977975ea4" x="53.328125" y="144.240977" style="stroke: #000000; stroke-width: 0.8"/>
      </g>
     </g>
     <g id="text_13">
      <!-- 1000 -->
      <g transform="translate(20.878125 148.040196) scale(0.1 -0.1)">
       <use xlink:href="#DejaVuSans-31"/>
       <use xlink:href="#DejaVuSans-30" transform="translate(63.623047 0)"/>
       <use xlink:href="#DejaVuSans-30" transform="translate(127.246094 0)"/>
       <use xlink:href="#DejaVuSans-30" transform="translate(190.869141 0)"/>
      </g>
     </g>
    </g>
    <g id="ytick_4">
     <g id="line2d_13">
      <g>
       <use xlink:href="#me977975ea4" x="53.328125" y="106.921466" style="stroke: #000000; stroke-width: 0.8"/>
      </g>
     </g>
     <g id="text_14">
      <!-- 1500 -->
      <g transform="translate(20.878125 110.720685) scale(0.1 -0.1)">
       <use xlink:href="#DejaVuSans-31"/>
       <use xlink:href="#DejaVuSans-35" transform="translate(63.623047 0)"/>
       <use xlink:href="#DejaVuSans-30" transform="translate(127.246094 0)"/>
       <use xlink:href="#DejaVuSans-30" transform="translate(190.869141 0)"/>
      </g>
     </g>
    </g>
    <g id="ytick_5">
     <g id="line2d_14">
      <g>
       <use xlink:href="#me977975ea4" x="53.328125" y="69.601955" style="stroke: #000000; stroke-width: 0.8"/>
      </g>
     </g>
     <g id="text_15">
      <!-- 2000 -->
      <g transform="translate(20.878125 73.401174) scale(0.1 -0.1)">
       <use xlink:href="#DejaVuSans-32"/>
       <use xlink:href="#DejaVuSans-30" transform="translate(63.623047 0)"/>
       <use xlink:href="#DejaVuSans-30" transform="translate(127.246094 0)"/>
       <use xlink:href="#DejaVuSans-30" transform="translate(190.869141 0)"/>
      </g>
     </g>
    </g>
    <g id="ytick_6">
     <g id="line2d_15">
      <g>
       <use xlink:href="#me977975ea4" x="53.328125" y="32.282444" style="stroke: #000000; stroke-width: 0.8"/>
      </g>
     </g>
     <g id="text_16">
      <!-- 2500 -->
      <g transform="translate(20.878125 36.081662) scale(0.1 -0.1)">
       <use xlink:href="#DejaVuSans-32"/>
       <use xlink:href="#DejaVuSans-35" transform="translate(63.623047 0)"/>
       <use xlink:href="#DejaVuSans-30" transform="translate(127.246094 0)"/>
       <use xlink:href="#DejaVuSans-30" transform="translate(190.869141 0)"/>
      </g>
     </g>
    </g>
    <g id="text_17">
     <!-- [counts] -->
     <g transform="translate(14.798438 138.6925) rotate(-90) scale(0.1 -0.1)">
      <defs>
       <path id="DejaVuSans-63" d="M 3122 3366 
L 3122 2828 
Q 2878 2963 2633 3030 
Q 2388 3097 2138 3097 
Q 1578 3097 1268 2742 
Q 959 2388 959 1747 
Q 959 1106 1268 751 
Q 1578 397 2138 397 
Q 2388 397 2633 464 
Q 2878 531 3122 666 
L 3122 134 
Q 2881 22 2623 -34 
Q 2366 -91 2075 -91 
Q 1284 -91 818 406 
Q 353 903 353 1747 
Q 353 2603 823 3093 
Q 1294 3584 2113 3584 
Q 2378 3584 2631 3529 
Q 2884 3475 3122 3366 
z
" transform="scale(0.015625)"/>
       <path id="DejaVuSans-6f" d="M 1959 3097 
Q 1497 3097 1228 2736 
Q 959 2375 959 1747 
Q 959 1119 1226 758 
Q 1494 397 1959 397 
Q 2419 397 2687 759 
Q 2956 1122 2956 1747 
Q 2956 2369 2687 2733 
Q 2419 3097 1959 3097 
z
M 1959 3584 
Q 2709 3584 3137 3096 
Q 3566 2609 3566 1747 
Q 3566 888 3137 398 
Q 2709 -91 1959 -91 
Q 1206 -91 779 398 
Q 353 888 353 1747 
Q 353 2609 779 3096 
Q 1206 3584 1959 3584 
z
" transform="scale(0.015625)"/>
       <path id="DejaVuSans-75" d="M 544 1381 
L 544 3500 
L 1119 3500 
L 1119 1403 
Q 1119 906 1312 657 
Q 1506 409 1894 409 
Q 2359 409 2629 706 
Q 2900 1003 2900 1516 
L 2900 3500 
L 3475 3500 
L 3475 0 
L 2900 0 
L 2900 538 
Q 2691 219 2414 64 
Q 2138 -91 1772 -91 
Q 1169 -91 856 284 
Q 544 659 544 1381 
z
M 1991 3584 
L 1991 3584 
z
" transform="scale(0.015625)"/>
       <path id="DejaVuSans-73" d="M 2834 3397 
L 2834 2853 
Q 2591 2978 2328 3040 
Q 2066 3103 1784 3103 
Q 1356 3103 1142 2972 
Q 928 2841 928 2578 
Q 928 2378 1081 2264 
Q 1234 2150 1697 2047 
L 1894 2003 
Q 2506 1872 2764 1633 
Q 3022 1394 3022 966 
Q 3022 478 2636 193 
Q 2250 -91 1575 -91 
Q 1294 -91 989 -36 
Q 684 19 347 128 
L 347 722 
Q 666 556 975 473 
Q 1284 391 1588 391 
Q 1994 391 2212 530 
Q 2431 669 2431 922 
Q 2431 1156 2273 1281 
Q 2116 1406 1581 1522 
L 1381 1569 
Q 847 1681 609 1914 
Q 372 2147 372 2553 
Q 372 3047 722 3315 
Q 1072 3584 1716 3584 
Q 2034 3584 2315 3537 
Q 2597 3491 2834 3397 
z
" transform="scale(0.015625)"/>
      </defs>
      <use xlink:href="#DejaVuSans-5b"/>
      <use xlink:href="#DejaVuSans-63" transform="translate(39.013672 0)"/>
      <use xlink:href="#DejaVuSans-6f" transform="translate(93.994141 0)"/>
      <use xlink:href="#DejaVuSans-75" transform="translate(155.175781 0)"/>
      <use xlink:href="#DejaVuSans-6e" transform="translate(218.554688 0)"/>
      <use xlink:href="#DejaVuSans-74" transform="translate(281.933594 0)"/>
      <use xlink:href="#DejaVuSans-73" transform="translate(321.142578 0)"/>
      <use xlink:href="#DejaVuSans-5d" transform="translate(373.242188 0)"/>
     </g>
    </g>
   </g>
   <g id="line2d_16">
    <path d="M 68.546307 218.88 
L 69.560852 218.88 
L 69.560852 200.966635 
L 70.575398 200.966635 
L 70.575398 155.586109 
L 71.589943 155.586109 
L 71.589943 115.281037 
L 72.604489 115.281037 
L 72.604489 101.323539 
L 73.619034 101.323539 
L 73.619034 92.665413 
L 74.63358 92.665413 
L 74.63358 94.307471 
L 75.648125 94.307471 
L 75.648125 91.023354 
L 76.66267 91.023354 
L 76.66267 85.425428 
L 77.677216 85.425428 
L 77.677216 77.513691 
L 78.691761 77.513691 
L 78.691761 68.034535 
L 79.706307 68.034535 
L 79.706307 67.810618 
L 80.720852 67.810618 
L 80.720852 64.750418 
L 81.735398 64.750418 
L 81.735398 60.495994 
L 82.749943 60.495994 
L 82.749943 60.346716 
L 83.764489 60.346716 
L 83.764489 50.345087 
L 84.779034 50.345087 
L 84.779034 47.284887 
L 85.79358 47.284887 
L 85.79358 41.910877 
L 86.808125 41.910877 
L 86.808125 35.118726 
L 87.82267 35.118726 
L 87.82267 27.430907 
L 88.837216 27.430907 
L 88.837216 30.043273 
L 89.851761 30.043273 
L 89.851761 23.4004 
L 90.866307 23.4004 
L 90.866307 20.713395 
L 91.880852 20.713395 
L 91.880852 26.684517 
L 92.895398 26.684517 
L 92.895398 21.683702 
L 93.909943 21.683702 
L 93.909943 28.625131 
L 94.924489 28.625131 
L 94.924489 28.401214 
L 95.939034 28.401214 
L 95.939034 34.297697 
L 96.95358 34.297697 
L 96.95358 38.253565 
L 97.968125 38.253565 
L 97.968125 31.312136 
L 98.98267 31.312136 
L 98.98267 39.298512 
L 99.997216 39.298512 
L 99.997216 46.31458 
L 101.011761 46.31458 
L 101.011761 41.537682 
L 102.026307 41.537682 
L 102.026307 56.540126 
L 103.040852 56.540126 
L 103.040852 61.018467 
L 104.055398 61.018467 
L 104.055398 69.527316 
L 105.069943 69.527316 
L 105.069943 86.246457 
L 106.084489 86.246457 
L 106.084489 90.053047 
L 107.099034 90.053047 
L 107.099034 98.039422 
L 108.11358 98.039422 
L 108.11358 112.519393 
L 109.128125 112.519393 
L 109.128125 115.728871 
L 110.14267 115.728871 
L 110.14267 123.939163 
L 111.157216 123.939163 
L 111.157216 132.373373 
L 112.171761 132.373373 
L 112.171761 139.538719 
L 113.186307 139.538719 
L 113.186307 143.569226 
L 114.200852 143.569226 
L 114.200852 155.138275 
L 115.215398 155.138275 
L 115.215398 155.884665 
L 116.229943 155.884665 
L 116.229943 166.408767 
L 117.244489 166.408767 
L 117.244489 174.992255 
L 118.259034 174.992255 
L 118.259034 180.440903 
L 119.27358 180.440903 
L 119.27358 187.60625 
L 120.288125 187.60625 
L 120.288125 188.427279 
L 121.30267 188.427279 
L 121.30267 168.349382 
L 122.317216 168.349382 
L 122.317216 149.241792 
L 123.331761 149.241792 
L 123.331761 132.149456 
L 124.346307 132.149456 
L 124.346307 103.56271 
L 125.360852 103.56271 
L 125.360852 94.979223 
L 126.375398 94.979223 
L 126.375398 85.27615 
L 127.389943 85.27615 
L 127.389943 95.352418 
L 128.404489 95.352418 
L 128.404489 94.307471 
L 129.419034 94.307471 
L 129.419034 93.859637 
L 130.43358 93.859637 
L 130.43358 101.472817 
L 131.448125 101.472817 
L 131.448125 98.412618 
L 132.46267 98.412618 
L 132.46267 100.203954 
L 133.477216 100.203954 
L 133.477216 97.516949 
L 134.491761 97.516949 
L 134.491761 105.951159 
L 135.506307 105.951159 
L 135.506307 96.546642 
L 136.520852 96.546642 
L 136.520852 114.833203 
L 137.535398 114.833203 
L 137.535398 109.011359 
L 138.549943 109.011359 
L 138.549943 106.249715 
L 139.564489 106.249715 
L 139.564489 108.414247 
L 140.579034 108.414247 
L 140.579034 108.11569 
L 141.59358 108.11569 
L 141.59358 114.609285 
L 142.608125 114.609285 
L 142.608125 117.744124 
L 143.62267 117.744124 
L 143.62267 111.773003 
L 144.637216 111.773003 
L 144.637216 120.431129 
L 145.651761 120.431129 
L 145.651761 121.326797 
L 146.666307 121.326797 
L 146.666307 119.236905 
L 147.680852 119.236905 
L 147.680852 123.565968 
L 148.695398 123.565968 
L 148.695398 122.968856 
L 149.709943 122.968856 
L 149.709943 123.789885 
L 150.724489 123.789885 
L 150.724489 125.133388 
L 151.739034 125.133388 
L 151.739034 119.759378 
L 152.75358 119.759378 
L 152.75358 132.224095 
L 153.768125 132.224095 
L 153.768125 124.760193 
L 154.78267 124.760193 
L 154.78267 129.835646 
L 155.797216 129.835646 
L 155.797216 130.731314 
L 156.811761 130.731314 
L 156.811761 126.999363 
L 157.826307 126.999363 
L 157.826307 130.582036 
L 158.840852 130.582036 
L 158.840852 129.163895 
L 159.855398 129.163895 
L 159.855398 136.478519 
L 160.869943 136.478519 
L 160.869943 139.389441 
L 161.884489 139.389441 
L 161.884489 149.838904 
L 162.899034 149.838904 
L 162.899034 152.45127 
L 163.91358 152.45127 
L 163.91358 154.242606 
L 164.928125 154.242606 
L 164.928125 154.914358 
L 165.94267 154.914358 
L 165.94267 153.720133 
L 166.957216 153.720133 
L 166.957216 153.346938 
L 167.971761 153.346938 
L 167.971761 161.930426 
L 168.986307 161.930426 
L 168.986307 158.720948 
L 170.000852 158.720948 
L 170.000852 156.631055 
L 171.015398 156.631055 
L 171.015398 151.480963 
L 172.029943 151.480963 
L 172.029943 152.152714 
L 173.044489 152.152714 
L 173.044489 147.89829 
L 174.059034 147.89829 
L 174.059034 140.434387 
L 175.07358 140.434387 
L 175.07358 137.075631 
L 176.088125 137.075631 
L 176.088125 131.8509 
L 177.10267 131.8509 
L 177.10267 140.807582 
L 178.117216 140.807582 
L 178.117216 144.464894 
L 179.131761 144.464894 
L 179.131761 147.301177 
L 180.146307 147.301177 
L 180.146307 151.182407 
L 181.160852 151.182407 
L 181.160852 155.586109 
L 182.175398 155.586109 
L 182.175398 157.153528 
L 183.189943 157.153528 
L 183.189943 155.436831 
L 184.204489 155.436831 
L 184.204489 157.00425 
L 185.219034 157.00425 
L 185.219034 152.525909 
L 186.23358 152.525909 
L 186.23358 159.019504 
L 187.248125 159.019504 
L 187.248125 158.422392 
L 188.26267 158.422392 
L 188.26267 157.078889 
L 189.277216 157.078889 
L 189.277216 163.273928 
L 190.291761 163.273928 
L 190.291761 162.005065 
L 191.306307 162.005065 
L 191.306307 164.244235 
L 192.320852 164.244235 
L 192.320852 166.558045 
L 193.335398 166.558045 
L 193.335398 162.602177 
L 194.349943 162.602177 
L 194.349943 166.334128 
L 195.364489 166.334128 
L 195.364489 168.49866 
L 196.379034 168.49866 
L 196.379034 171.782777 
L 197.39358 171.782777 
L 197.39358 174.992255 
L 198.408125 174.992255 
L 198.408125 177.529981 
L 199.42267 177.529981 
L 199.42267 174.544421 
L 200.437216 174.544421 
L 200.437216 176.11184 
L 201.451761 176.11184 
L 201.451761 179.91843 
L 202.466307 179.91843 
L 202.466307 181.859045 
L 203.480852 181.859045 
L 203.480852 180.366264 
L 204.495398 180.366264 
L 204.495398 181.560489 
L 205.509943 181.560489 
L 205.509943 190.815728 
L 207.539034 190.815728 
L 207.539034 194.174484 
L 208.55358 194.174484 
L 208.55358 191.786035 
L 209.568125 191.786035 
L 209.568125 192.383147 
L 210.58267 192.383147 
L 210.58267 193.950566 
L 211.597216 193.950566 
L 211.597216 196.413654 
L 212.611761 196.413654 
L 212.611761 198.652825 
L 213.626307 198.652825 
L 213.626307 195.144791 
L 214.640852 195.144791 
L 214.640852 198.27963 
L 215.655398 198.27963 
L 215.655398 195.667264 
L 216.669943 195.667264 
L 216.669943 192.233869 
L 217.684489 192.233869 
L 217.684489 192.681703 
L 218.699034 192.681703 
L 218.699034 191.039645 
L 219.71358 191.039645 
L 219.71358 185.814913 
L 220.728125 185.814913 
L 220.728125 184.471411 
L 221.74267 184.471411 
L 221.74267 184.322133 
L 222.757216 184.322133 
L 222.757216 184.172854 
L 223.771761 184.172854 
L 223.771761 194.099845 
L 225.800852 194.025205 
L 225.800852 196.861488 
L 226.815398 196.861488 
L 226.815398 195.741903 
L 227.829943 195.741903 
L 227.829943 197.085405 
L 228.844489 197.085405 
L 228.844489 196.488293 
L 229.859034 196.488293 
L 229.859034 198.876742 
L 230.87358 198.876742 
L 230.87358 199.175298 
L 231.888125 199.175298 
L 231.888125 199.623132 
L 232.90267 199.623132 
L 232.90267 199.996327 
L 233.917216 199.996327 
L 233.917216 200.593439 
L 234.931761 200.593439 
L 234.931761 200.817357 
L 235.946307 200.817357 
L 235.946307 203.205805 
L 236.960852 203.205805 
L 236.960852 204.101474 
L 237.975398 204.101474 
L 237.975398 206.266005 
L 238.989943 206.266005 
L 238.989943 205.14642 
L 240.004489 205.14642 
L 240.004489 203.653639 
L 241.019034 203.653639 
L 241.019034 206.266005 
L 242.03358 206.266005 
L 242.03358 207.236312 
L 243.048125 207.236312 
L 243.048125 206.266005 
L 244.06267 206.266005 
L 244.06267 205.89281 
L 245.077216 205.89281 
L 245.077216 210.072595 
L 246.091761 210.072595 
L 246.091761 209.251566 
L 247.106307 209.251566 
L 247.106307 210.818986 
L 248.120852 210.818986 
L 248.120852 212.461044 
L 249.135398 212.461044 
L 249.135398 210.669708 
L 250.149943 210.669708 
L 250.149943 211.341459 
L 251.164489 211.341459 
L 251.164489 212.162488 
L 252.179034 212.162488 
L 252.179034 211.863932 
L 253.19358 211.863932 
L 253.19358 213.058156 
L 254.208125 213.058156 
L 254.208125 213.879185 
L 255.22267 213.879185 
L 255.22267 214.550937 
L 256.237216 214.550937 
L 256.237216 214.177742 
L 257.251761 214.177742 
L 257.251761 213.431351 
L 258.266307 213.431351 
L 258.266307 210.669708 
L 259.280852 210.669708 
L 259.280852 209.400844 
L 260.295398 209.400844 
L 260.295398 208.654454 
L 261.309943 208.654454 
L 261.309943 204.997142 
L 262.324489 204.997142 
L 262.324489 204.847864 
L 263.339034 204.847864 
L 263.339034 204.549308 
L 264.35358 204.549308 
L 264.35358 204.997142 
L 265.368125 204.997142 
L 265.368125 205.967449 
L 266.38267 205.967449 
L 266.38267 206.863117 
L 267.397216 206.863117 
L 267.397216 207.833425 
L 268.411761 207.833425 
L 268.411761 206.489922 
L 269.426307 206.489922 
L 269.426307 209.624761 
L 270.440852 209.624761 
L 270.440852 208.654454 
L 271.455398 208.654454 
L 271.455398 209.848678 
L 272.469943 209.848678 
L 272.469943 208.878371 
L 273.484489 208.878371 
L 273.484489 210.371151 
L 274.499034 210.371151 
L 274.499034 209.774039 
L 275.51358 209.774039 
L 275.51358 212.461044 
L 276.528125 212.461044 
L 276.528125 212.087849 
L 277.54267 212.087849 
L 277.54267 211.042903 
L 278.557216 211.042903 
L 278.557216 210.893625 
L 279.571761 210.893625 
L 279.571761 211.26682 
L 280.586307 211.26682 
L 280.586307 214.252381 
L 282.615398 214.252381 
L 282.615398 212.386405 
L 283.629943 212.386405 
L 283.629943 214.028464 
L 284.644489 214.028464 
L 284.644489 213.729907 
L 285.659034 213.729907 
L 285.659034 214.924132 
L 286.67358 214.924132 
L 286.67358 214.550937 
L 287.688125 214.550937 
L 287.688125 214.401659 
L 288.70267 214.401659 
L 288.70267 215.894439 
L 289.717216 215.894439 
L 289.717216 215.297327 
L 290.731761 215.297327 
L 290.731761 215.446605 
L 291.746307 215.446605 
L 291.746307 215.595883 
L 292.760852 215.595883 
L 292.760852 216.491551 
L 293.775398 216.491551 
L 293.775398 216.118356 
L 294.789943 216.118356 
L 294.789943 216.939385 
L 297.83358 216.864746 
L 297.83358 217.835054 
L 298.848125 217.835054 
L 298.848125 216.192995 
L 299.86267 216.192995 
L 299.86267 214.849493 
L 300.877216 214.849493 
L 300.877216 213.282073 
L 301.891761 213.282073 
L 301.891761 212.386405 
L 303.920852 212.461044 
L 303.920852 210.595068 
L 304.935398 210.595068 
L 304.935398 209.624761 
L 305.949943 209.624761 
L 305.949943 208.430537 
L 306.964489 208.430537 
L 306.964489 205.818171 
L 307.979034 205.818171 
L 307.979034 206.340644 
L 308.99358 206.340644 
L 308.99358 203.205805 
L 310.008125 203.205805 
L 310.008125 203.877556 
L 311.02267 203.877556 
L 311.02267 201.862303 
L 312.037216 201.862303 
L 312.037216 201.414469 
L 313.051761 201.414469 
L 313.051761 204.40003 
L 314.066307 204.40003 
L 314.066307 205.295698 
L 315.080852 205.295698 
L 315.080852 204.325391 
L 316.095398 204.325391 
L 316.095398 204.997142 
L 317.109943 204.997142 
L 317.109943 204.101474 
L 318.124489 204.101474 
L 318.124489 205.594254 
L 319.139034 205.594254 
L 319.139034 203.952195 
L 320.15358 203.952195 
L 320.15358 204.698586 
L 321.168125 204.698586 
L 321.168125 202.608693 
L 322.18267 202.608693 
L 322.18267 205.818171 
L 323.197216 205.818171 
L 323.197216 203.504361 
L 324.211761 203.504361 
L 324.211761 204.623947 
L 325.226307 204.623947 
L 325.226307 206.042088 
L 326.240852 206.042088 
L 326.240852 207.46023 
L 327.255398 207.46023 
L 327.255398 206.863117 
L 328.269943 206.863117 
L 328.269943 207.982703 
L 330.299034 208.057342 
L 330.299034 206.937756 
L 331.31358 206.937756 
L 331.31358 206.788478 
L 332.328125 206.788478 
L 332.328125 208.803732 
L 333.34267 208.803732 
L 333.34267 210.595068 
L 334.357216 210.595068 
L 334.357216 208.355898 
L 335.371761 208.355898 
L 335.371761 208.505176 
L 336.386307 208.505176 
L 336.386307 209.774039 
L 337.400852 209.774039 
L 337.400852 210.072595 
L 338.415398 210.072595 
L 338.415398 211.789293 
L 339.429943 211.789293 
L 339.429943 212.834239 
L 340.444489 212.834239 
L 340.444489 211.938571 
L 341.459034 211.938571 
L 341.459034 211.565376 
L 342.47358 211.565376 
L 342.47358 210.595068 
L 343.488125 210.595068 
L 343.488125 213.50599 
L 344.50267 213.50599 
L 344.50267 212.237127 
L 345.517216 212.237127 
L 345.517216 213.953825 
L 346.531761 213.953825 
L 346.531761 213.804546 
L 347.546307 213.804546 
L 347.546307 214.625576 
L 348.560852 214.625576 
L 348.560852 215.521244 
L 349.575398 215.521244 
L 349.575398 216.267634 
L 350.589943 216.267634 
L 350.589943 217.014024 
L 351.604489 217.014024 
L 351.604489 218.282888 
L 352.619034 218.282888 
L 352.619034 218.88 
L 372.909943 218.88 
L 372.909943 218.88 
" clip-path="url(#pd23fa3b9da)" style="fill: none; stroke: #1f77b4; stroke-width: 1.5; stroke-linecap: square"/>
   </g>
   <g id="line2d_17">
    <path d="M 68.546307 209.997956 
L 69.560852 209.997956 
L 69.560852 187.755528 
L 70.575398 187.755528 
L 70.575398 156.481777 
L 71.589943 156.481777 
L 71.589943 132.746568 
L 72.604489 132.746568 
L 72.604489 102.741681 
L 73.619034 102.741681 
L 73.619034 92.963969 
L 74.63358 92.963969 
L 74.63358 96.173447 
L 75.648125 96.173447 
L 75.648125 85.500067 
L 76.66267 85.500067 
L 76.66267 88.037793 
L 77.677216 88.037793 
L 77.677216 75.423799 
L 78.691761 75.423799 
L 78.691761 72.960711 
L 79.706307 72.960711 
L 79.706307 63.705472 
L 80.720852 63.705472 
L 80.720852 67.810618 
L 81.735398 67.810618 
L 81.735398 63.182999 
L 82.749943 63.182999 
L 82.749943 58.630019 
L 83.764489 58.630019 
L 83.764489 43.478297 
L 84.779034 43.478297 
L 84.779034 49.449419 
L 85.79358 49.449419 
L 85.79358 43.478297 
L 86.808125 43.478297 
L 86.808125 35.342643 
L 87.82267 35.342643 
L 87.82267 34.148419 
L 88.837216 34.148419 
L 88.837216 31.312136 
L 89.851761 31.312136 
L 89.851761 17.28 
L 90.866307 17.28 
L 90.866307 22.056897 
L 91.880852 22.056897 
L 91.880852 22.877927 
L 92.895398 22.877927 
L 92.895398 26.087405 
L 93.909943 26.087405 
L 93.909943 28.177297 
L 94.924489 28.177297 
L 94.924489 28.475853 
L 95.939034 28.475853 
L 95.939034 38.701399 
L 96.95358 38.701399 
L 96.95358 27.580185 
L 97.968125 27.580185 
L 97.968125 36.686146 
L 98.98267 36.686146 
L 98.98267 40.119541 
L 99.997216 40.119541 
L 99.997216 45.120355 
L 101.011761 45.120355 
L 101.011761 46.762414 
L 102.026307 46.762414 
L 102.026307 54.226316 
L 103.040852 54.226316 
L 103.040852 68.40773 
L 104.055398 68.40773 
L 104.055398 71.841126 
L 105.069943 71.841126 
L 105.069943 82.290589 
L 106.084489 82.290589 
L 106.084489 92.14294 
L 107.099034 92.14294 
L 107.099034 98.561896 
L 108.11358 98.561896 
L 108.11358 106.175076 
L 109.128125 106.175076 
L 109.128125 116.5499 
L 110.14267 116.5499 
L 110.14267 123.192773 
L 111.157216 123.192773 
L 111.157216 131.925539 
L 112.171761 131.925539 
L 112.171761 137.000992 
L 113.186307 137.000992 
L 113.186307 147.525094 
L 114.200852 147.525094 
L 114.200852 152.376631 
L 115.215398 152.376631 
L 115.215398 158.273114 
L 116.229943 158.273114 
L 116.229943 168.647938 
L 117.244489 168.647938 
L 117.244489 172.529167 
L 118.259034 172.529167 
L 118.259034 178.798845 
L 119.27358 178.798845 
L 119.27358 184.993884 
L 120.288125 184.993884 
L 120.288125 176.186479 
L 121.30267 176.186479 
L 121.30267 159.989811 
L 122.317216 159.989811 
L 122.317216 147.002621 
L 123.331761 147.002621 
L 123.331761 132.970485 
L 124.346307 132.970485 
L 124.346307 118.191959 
L 125.360852 118.191959 
L 125.360852 100.129315 
L 126.375398 100.129315 
L 126.375398 98.26334 
L 127.389943 98.26334 
L 127.389943 90.276964 
L 128.404489 90.276964 
L 128.404489 91.471188 
L 129.419034 91.471188 
L 129.419034 92.814691 
L 130.43358 92.814691 
L 130.43358 94.232832 
L 131.448125 94.232832 
L 131.448125 97.666227 
L 132.46267 97.666227 
L 132.46267 97.516949 
L 133.477216 97.516949 
L 133.477216 103.264154 
L 134.491761 103.264154 
L 134.491761 101.323539 
L 135.506307 101.323539 
L 135.506307 106.473632 
L 136.520852 106.473632 
L 136.520852 108.93672 
L 137.535398 108.93672 
L 137.535398 110.205583 
L 138.549943 110.205583 
L 138.549943 108.19033 
L 139.564489 108.19033 
L 139.564489 103.56271 
L 140.579034 103.56271 
L 140.579034 108.787442 
L 141.59358 108.787442 
L 141.59358 112.370115 
L 142.608125 112.370115 
L 142.608125 111.623725 
L 143.62267 111.623725 
L 143.62267 119.087627 
L 144.637216 119.087627 
L 144.637216 120.878963 
L 145.651761 120.878963 
L 145.651761 114.833203 
L 146.666307 114.833203 
L 146.666307 121.326797 
L 147.680852 121.326797 
L 147.680852 125.208027 
L 148.695398 125.208027 
L 148.695398 125.581222 
L 149.709943 125.581222 
L 149.709943 121.849271 
L 150.724489 121.849271 
L 150.724489 121.252158 
L 151.739034 121.252158 
L 151.739034 125.879778 
L 152.75358 125.879778 
L 152.75358 128.566783 
L 153.768125 128.566783 
L 153.768125 127.447197 
L 154.78267 127.447197 
L 154.78267 134.9111 
L 155.797216 134.9111 
L 155.797216 130.955231 
L 156.811761 130.955231 
L 156.811761 136.254602 
L 157.826307 136.254602 
L 157.826307 137.822021 
L 158.840852 137.822021 
L 158.840852 135.433573 
L 159.855398 135.433573 
L 159.855398 142.076446 
L 160.869943 142.076446 
L 160.869943 138.195217 
L 161.884489 138.195217 
L 161.884489 147.599733 
L 162.899034 147.599733 
L 162.899034 144.688812 
L 163.91358 144.688812 
L 163.91358 146.33087 
L 164.928125 146.33087 
L 164.928125 148.793958 
L 165.94267 148.793958 
L 165.94267 156.780333 
L 166.957216 156.780333 
L 166.957216 157.899919 
L 167.971761 157.899919 
L 167.971761 154.167967 
L 168.986307 154.167967 
L 168.986307 157.526723 
L 170.000852 157.526723 
L 170.000852 153.94405 
L 171.015398 153.94405 
L 171.015398 151.480963 
L 172.029943 151.480963 
L 172.029943 146.853343 
L 173.044489 146.853343 
L 173.044489 144.464894 
L 174.059034 144.464894 
L 174.059034 142.449641 
L 175.07358 142.449641 
L 175.07358 140.359748 
L 176.088125 140.359748 
L 176.088125 142.001807 
L 177.10267 142.001807 
L 177.10267 139.687997 
L 178.117216 139.687997 
L 178.117216 143.345309 
L 179.131761 143.345309 
L 179.131761 143.718504 
L 180.146307 143.718504 
L 180.146307 149.465709 
L 181.160852 149.465709 
L 181.160852 160.139089 
L 182.175398 160.139089 
L 182.175398 148.570041 
L 183.189943 148.570041 
L 183.189943 156.481777 
L 184.204489 156.481777 
L 184.204489 156.108582 
L 187.248125 156.033943 
L 187.248125 158.347753 
L 188.26267 158.347753 
L 188.26267 161.557231 
L 189.277216 161.557231 
L 189.277216 161.184036 
L 190.291761 161.184036 
L 190.291761 161.855787 
L 191.306307 161.855787 
L 191.306307 164.169596 
L 192.320852 164.169596 
L 192.320852 165.065265 
L 193.335398 165.065265 
L 193.335398 166.259489 
L 194.349943 166.259489 
L 194.349943 167.602991 
L 195.364489 167.602991 
L 195.364489 172.006694 
L 196.379034 172.006694 
L 196.379034 171.857416 
L 197.39358 171.857416 
L 197.39358 170.887108 
L 198.408125 170.887108 
L 198.408125 177.156786 
L 199.42267 177.156786 
L 199.42267 180.66482 
L 200.437216 180.66482 
L 200.437216 178.052455 
L 201.451761 178.052455 
L 201.451761 179.993069 
L 202.466307 179.993069 
L 202.466307 183.277186 
L 203.480852 183.277186 
L 203.480852 183.127908 
L 204.495398 183.127908 
L 204.495398 184.322133 
L 205.509943 184.322133 
L 205.509943 184.023576 
L 206.524489 184.023576 
L 206.524489 189.770781 
L 207.539034 189.770781 
L 207.539034 190.293254 
L 208.55358 190.293254 
L 208.55358 190.666449 
L 209.568125 190.666449 
L 209.568125 192.308508 
L 210.58267 192.308508 
L 210.58267 194.622318 
L 211.597216 194.622318 
L 211.597216 196.786849 
L 212.611761 196.786849 
L 212.611761 195.21943 
L 213.626307 195.21943 
L 213.626307 197.757157 
L 214.640852 197.757157 
L 214.640852 194.099845 
L 215.655398 194.099845 
L 215.655398 194.846235 
L 216.669943 194.846235 
L 216.669943 192.756342 
L 217.684489 192.756342 
L 217.684489 191.338201 
L 218.699034 191.338201 
L 218.699034 189.472225 
L 220.728125 189.546864 
L 220.728125 187.083776 
L 221.74267 187.083776 
L 221.74267 184.695328 
L 222.757216 184.695328 
L 222.757216 185.814913 
L 223.771761 185.814913 
L 223.771761 189.920059 
L 225.800852 189.994698 
L 225.800852 196.115098 
L 226.815398 196.115098 
L 226.815398 195.592625 
L 227.829943 195.592625 
L 227.829943 194.696957 
L 228.844489 194.696957 
L 228.844489 196.861488 
L 229.859034 196.861488 
L 229.859034 197.831796 
L 230.87358 197.831796 
L 230.87358 200.891996 
L 231.888125 200.891996 
L 231.888125 199.399215 
L 233.917216 199.399215 
L 233.917216 202.011581 
L 234.931761 202.011581 
L 234.931761 203.355083 
L 235.946307 203.355083 
L 235.946307 204.549308 
L 236.960852 204.549308 
L 236.960852 203.131166 
L 237.975398 203.131166 
L 237.975398 205.370337 
L 238.989943 205.370337 
L 238.989943 204.773225 
L 240.004489 204.773225 
L 240.004489 206.042088 
L 241.019034 206.042088 
L 241.019034 206.937756 
L 242.03358 206.937756 
L 242.03358 205.89281 
L 243.048125 205.89281 
L 243.048125 208.430537 
L 244.06267 208.430537 
L 244.06267 208.131981 
L 246.091761 208.131981 
L 246.091761 209.550122 
L 247.106307 209.550122 
L 247.106307 208.95301 
L 248.120852 208.95301 
L 248.120852 209.550122 
L 249.135398 209.550122 
L 249.135398 210.520429 
L 250.149943 210.520429 
L 250.149943 211.26682 
L 251.164489 211.26682 
L 251.164489 212.01321 
L 252.179034 212.01321 
L 252.179034 213.058156 
L 253.19358 213.058156 
L 253.19358 212.684961 
L 254.208125 212.684961 
L 254.208125 213.655268 
L 255.22267 213.655268 
L 255.22267 213.50599 
L 256.237216 213.50599 
L 256.237216 212.01321 
L 257.251761 212.01321 
L 257.251761 211.490737 
L 258.266307 211.490737 
L 258.266307 210.818986 
L 259.280852 210.818986 
L 259.280852 208.729093 
L 260.295398 208.729093 
L 260.295398 207.46023 
L 261.309943 207.46023 
L 261.309943 208.281259 
L 262.324489 208.281259 
L 262.324489 204.176113 
L 263.339034 204.176113 
L 263.339034 205.444976 
L 264.35358 205.444976 
L 264.35358 204.773225 
L 265.368125 204.773225 
L 265.368125 206.191366 
L 266.38267 206.191366 
L 266.38267 207.758786 
L 267.397216 207.758786 
L 267.397216 208.131981 
L 268.411761 208.131981 
L 268.411761 207.385591 
L 269.426307 207.385591 
L 269.426307 208.654454 
L 270.440852 208.654454 
L 270.440852 209.550122 
L 271.455398 209.550122 
L 271.455398 208.803732 
L 272.469943 208.803732 
L 272.469943 209.624761 
L 273.484489 209.624761 
L 273.484489 208.579815 
L 274.499034 208.579815 
L 274.499034 209.550122 
L 275.51358 209.550122 
L 275.51358 212.908878 
L 276.528125 212.908878 
L 276.528125 211.789293 
L 277.54267 211.789293 
L 277.54267 210.669708 
L 278.557216 210.669708 
L 278.557216 211.565376 
L 279.571761 211.565376 
L 279.571761 212.535683 
L 280.586307 212.535683 
L 280.586307 213.580629 
L 282.615398 213.580629 
L 282.615398 213.282073 
L 284.644489 213.207434 
L 284.644489 214.401659 
L 285.659034 214.401659 
L 285.659034 214.252381 
L 286.67358 214.252381 
L 286.67358 213.879185 
L 287.688125 213.879185 
L 287.688125 214.849493 
L 288.70267 214.849493 
L 288.70267 216.118356 
L 290.731761 216.043717 
L 290.731761 214.550937 
L 291.746307 214.550937 
L 291.746307 215.670522 
L 292.760852 215.670522 
L 292.760852 216.267634 
L 293.775398 216.267634 
L 293.775398 216.864746 
L 294.789943 216.864746 
L 294.789943 216.267634 
L 295.804489 216.267634 
L 295.804489 216.640829 
L 296.819034 216.640829 
L 296.819034 216.491551 
L 298.848125 216.416912 
L 298.848125 214.700215 
L 300.877216 214.625576 
L 300.877216 212.311766 
L 302.906307 212.386405 
L 302.906307 211.789293 
L 303.920852 211.789293 
L 303.920852 209.774039 
L 304.935398 209.774039 
L 304.935398 209.027649 
L 305.949943 209.027649 
L 305.949943 207.310951 
L 306.964489 207.310951 
L 306.964489 206.266005 
L 307.979034 206.266005 
L 307.979034 207.609508 
L 308.99358 207.609508 
L 308.99358 205.295698 
L 310.008125 205.295698 
L 310.008125 203.802917 
L 311.02267 203.802917 
L 311.02267 204.176113 
L 312.037216 204.176113 
L 312.037216 202.235498 
L 313.051761 202.235498 
L 313.051761 204.176113 
L 314.066307 204.176113 
L 314.066307 203.355083 
L 315.080852 203.355083 
L 315.080852 204.623947 
L 316.095398 204.623947 
L 316.095398 205.444976 
L 317.109943 205.444976 
L 317.109943 205.594254 
L 318.124489 205.594254 
L 318.124489 203.205805 
L 319.139034 203.205805 
L 319.139034 203.728278 
L 320.15358 203.728278 
L 320.15358 203.131166 
L 321.168125 203.131166 
L 321.168125 205.594254 
L 322.18267 205.594254 
L 322.18267 205.370337 
L 323.197216 205.370337 
L 323.197216 205.071781 
L 324.211761 205.071781 
L 324.211761 206.937756 
L 325.226307 206.937756 
L 325.226307 205.221059 
L 326.240852 205.221059 
L 326.240852 206.489922 
L 327.255398 206.489922 
L 327.255398 206.788478 
L 328.269943 206.788478 
L 328.269943 208.20662 
L 329.284489 208.20662 
L 329.284489 207.758786 
L 330.299034 207.758786 
L 330.299034 209.624761 
L 331.31358 209.624761 
L 331.31358 207.161673 
L 332.328125 207.161673 
L 332.328125 207.908064 
L 333.34267 207.908064 
L 333.34267 208.430537 
L 334.357216 208.430537 
L 334.357216 209.251566 
L 335.371761 209.251566 
L 335.371761 208.95301 
L 336.386307 208.95301 
L 336.386307 209.176927 
L 337.400852 209.176927 
L 337.400852 210.669708 
L 338.415398 210.669708 
L 338.415398 211.26682 
L 339.429943 211.26682 
L 339.429943 211.640015 
L 340.444489 211.640015 
L 340.444489 211.042903 
L 341.459034 211.042903 
L 341.459034 213.207434 
L 342.47358 213.207434 
L 342.47358 211.863932 
L 343.488125 211.863932 
L 343.488125 212.535683 
L 344.50267 212.535683 
L 344.50267 211.640015 
L 345.517216 211.640015 
L 345.517216 214.924132 
L 346.531761 214.924132 
L 346.531761 213.580629 
L 347.546307 213.580629 
L 347.546307 215.521244 
L 348.560852 215.521244 
L 348.560852 214.700215 
L 349.575398 214.700215 
L 349.575398 216.267634 
L 350.589943 216.267634 
L 350.589943 216.56619 
L 351.604489 216.56619 
L 351.604489 217.685776 
L 352.619034 217.685776 
L 352.619034 218.506805 
L 353.63358 218.506805 
L 353.63358 218.656083 
L 354.648125 218.656083 
L 354.648125 218.88 
L 372.909943 218.88 
L 372.909943 218.88 
" clip-path="url(#pd23fa3b9da)" style="fill: none; stroke: #ff7f0e; stroke-width: 1.5; stroke-linecap: square"/>
   </g>
   <g id="patch_3">
    <path d="M 53.328125 228.96 
L 53.328125 7.2 
" style="fill: none; stroke: #000000; stroke-width: 0.8; stroke-linejoin: miter; stroke-linecap: square"/>
   </g>
   <g id="patch_4">
    <path d="M 388.128125 228.96 
L 388.128125 7.2 
" style="fill: none; stroke: #000000; stroke-width: 0.8; stroke-linejoin: miter; stroke-linecap: square"/>
   </g>
   <g id="patch_5">
    <path d="M 53.328125 228.96 
L 388.128125 228.96 
" style="fill: none; stroke: #000000; stroke-width: 0.8; stroke-linejoin: miter; stroke-linecap: square"/>
   </g>
   <g id="patch_6">
    <path d="M 53.328125 7.2 
L 388.128125 7.2 
" style="fill: none; stroke: #000000; stroke-width: 0.8; stroke-linejoin: miter; stroke-linecap: square"/>
   </g>
   <g id="legend_1">
    <g id="patch_7">
     <path d="M 284.125 44.834375 
L 381.128125 44.834375 
Q 383.128125 44.834375 383.128125 42.834375 
L 383.128125 14.2 
Q 383.128125 12.2 381.128125 12.2 
L 284.125 12.2 
Q 282.125 12.2 282.125 14.2 
L 282.125 42.834375 
Q 282.125 44.834375 284.125 44.834375 
z
" style="fill: #ffffff; opacity: 0.8; stroke: #cccccc; stroke-linejoin: miter"/>
    </g>
    <g id="line2d_18">
     <path d="M 286.125 20.298437 
L 286.125 20.298437 
L 296.125 20.298437 
L 296.125 20.298437 
L 306.125 20.298437 
" style="fill: none; stroke: #1f77b4; stroke-width: 1.5; stroke-linecap: square"/>
    </g>
    <g id="text_18">
     <!-- wfm -->
     <g transform="translate(314.125 23.798437) scale(0.1 -0.1)">
      <defs>
       <path id="DejaVuSans-66" d="M 2375 4863 
L 2375 4384 
L 1825 4384 
Q 1516 4384 1395 4259 
Q 1275 4134 1275 3809 
L 1275 3500 
L 2222 3500 
L 2222 3053 
L 1275 3053 
L 1275 0 
L 697 0 
L 697 3053 
L 147 3053 
L 147 3500 
L 697 3500 
L 697 3744 
Q 697 4328 969 4595 
Q 1241 4863 1831 4863 
L 2375 4863 
z
" transform="scale(0.015625)"/>
       <path id="DejaVuSans-6d" d="M 3328 2828 
Q 3544 3216 3844 3400 
Q 4144 3584 4550 3584 
Q 5097 3584 5394 3201 
Q 5691 2819 5691 2113 
L 5691 0 
L 5113 0 
L 5113 2094 
Q 5113 2597 4934 2840 
Q 4756 3084 4391 3084 
Q 3944 3084 3684 2787 
Q 3425 2491 3425 1978 
L 3425 0 
L 2847 0 
L 2847 2094 
Q 2847 2600 2669 2842 
Q 2491 3084 2119 3084 
Q 1678 3084 1418 2786 
Q 1159 2488 1159 1978 
L 1159 0 
L 581 0 
L 581 3500 
L 1159 3500 
L 1159 2956 
Q 1356 3278 1631 3431 
Q 1906 3584 2284 3584 
Q 2666 3584 2933 3390 
Q 3200 3197 3328 2828 
z
" transform="scale(0.015625)"/>
      </defs>
      <use xlink:href="#DejaVuSans-77"/>
      <use xlink:href="#DejaVuSans-66" transform="translate(81.787109 0)"/>
      <use xlink:href="#DejaVuSans-6d" transform="translate(116.992188 0)"/>
     </g>
    </g>
    <g id="line2d_19">
     <path d="M 286.125 34.976562 
L 286.125 34.976562 
L 296.125 34.976562 
L 296.125 34.976562 
L 306.125 34.976562 
" style="fill: none; stroke: #ff7f0e; stroke-width: 1.5; stroke-linecap: square"/>
    </g>
    <g id="text_19">
     <!-- ground_truth -->
     <g transform="translate(314.125 38.476562) scale(0.1 -0.1)">
      <defs>
       <path id="DejaVuSans-72" d="M 2631 2963 
Q 2534 3019 2420 3045 
Q 2306 3072 2169 3072 
Q 1681 3072 1420 2755 
Q 1159 2438 1159 1844 
L 1159 0 
L 581 0 
L 581 3500 
L 1159 3500 
L 1159 2956 
Q 1341 3275 1631 3429 
Q 1922 3584 2338 3584 
Q 2397 3584 2469 3576 
Q 2541 3569 2628 3553 
L 2631 2963 
z
" transform="scale(0.015625)"/>
       <path id="DejaVuSans-64" d="M 2906 2969 
L 2906 4863 
L 3481 4863 
L 3481 0 
L 2906 0 
L 2906 525 
Q 2725 213 2448 61 
Q 2172 -91 1784 -91 
Q 1150 -91 751 415 
Q 353 922 353 1747 
Q 353 2572 751 3078 
Q 1150 3584 1784 3584 
Q 2172 3584 2448 3432 
Q 2725 3281 2906 2969 
z
M 947 1747 
Q 947 1113 1208 752 
Q 1469 391 1925 391 
Q 2381 391 2643 752 
Q 2906 1113 2906 1747 
Q 2906 2381 2643 2742 
Q 2381 3103 1925 3103 
Q 1469 3103 1208 2742 
Q 947 2381 947 1747 
z
" transform="scale(0.015625)"/>
       <path id="DejaVuSans-5f" d="M 3263 -1063 
L 3263 -1509 
L -63 -1509 
L -63 -1063 
L 3263 -1063 
z
" transform="scale(0.015625)"/>
      </defs>
      <use xlink:href="#DejaVuSans-67"/>
      <use xlink:href="#DejaVuSans-72" transform="translate(63.476562 0)"/>
      <use xlink:href="#DejaVuSans-6f" transform="translate(102.339844 0)"/>
      <use xlink:href="#DejaVuSans-75" transform="translate(163.521484 0)"/>
      <use xlink:href="#DejaVuSans-6e" transform="translate(226.900391 0)"/>
      <use xlink:href="#DejaVuSans-64" transform="translate(290.279297 0)"/>
      <use xlink:href="#DejaVuSans-5f" transform="translate(353.755859 0)"/>
      <use xlink:href="#DejaVuSans-74" transform="translate(403.755859 0)"/>
      <use xlink:href="#DejaVuSans-72" transform="translate(442.964844 0)"/>
      <use xlink:href="#DejaVuSans-75" transform="translate(484.078125 0)"/>
      <use xlink:href="#DejaVuSans-74" transform="translate(547.457031 0)"/>
      <use xlink:href="#DejaVuSans-68" transform="translate(586.666016 0)"/>
     </g>
    </g>
   </g>
  </g>
 </g>
 <defs>
  <clipPath id="pd23fa3b9da">
   <rect x="53.328125" y="7.2" width="334.8" height="221.76"/>
  </clipPath>
 </defs>
</svg>
