<?xml version="1.0" encoding="utf-8" standalone="no"?>
<!DOCTYPE svg PUBLIC "-//W3C//DTD SVG 1.1//EN"
  "http://www.w3.org/Graphics/SVG/1.1/DTD/svg11.dtd">
<svg xmlns:xlink="http://www.w3.org/1999/xlink" width="872.39952pt" height="296.39952pt" viewBox="0 0 872.39952 296.39952" xmlns="http://www.w3.org/2000/svg" version="1.1">
 <metadata>
  <rdf:RDF xmlns:dc="http://purl.org/dc/elements/1.1/" xmlns:cc="http://creativecommons.org/ns#" xmlns:rdf="http://www.w3.org/1999/02/22-rdf-syntax-ns#">
   <cc:Work>
    <dc:type rdf:resource="http://purl.org/dc/dcmitype/StillImage"/>
    <dc:date>2025-02-17T17:52:59.485994</dc:date>
    <dc:format>image/svg+xml</dc:format>
    <dc:creator>
     <cc:Agent>
      <dc:title>Matplotlib v3.10.0, https://matplotlib.org/</dc:title>
     </cc:Agent>
    </dc:creator>
   </cc:Work>
  </rdf:RDF>
 </metadata>
 <defs>
  <style type="text/css">*{stroke-linejoin: round; stroke-linecap: butt}</style>
 </defs>
 <g id="figure_1">
  <g id="patch_1">
   <path d="M 0 296.39952 
L 872.39952 296.39952 
L 872.39952 0 
L 0 0 
z
" style="fill: #ffffff"/>
  </g>
  <g id="axes_1">
   <g id="patch_2">
    <path d="M 46.965625 257.158895 
L 431.87976 257.158895 
L 431.87976 22.318125 
L 46.965625 22.318125 
z
" style="fill: #ffffff"/>
   </g>
   <g id="matplotlib.axis_1">
    <g id="xtick_1">
     <g id="line2d_1">
      <defs>
       <path id="medd9215f91" d="M 0 0 
L 0 3.5 
" style="stroke: #000000; stroke-width: 0.8"/>
      </defs>
      <g>
       <use xlink:href="#medd9215f91" x="82.878666" y="257.158895" style="stroke: #000000; stroke-width: 0.8"/>
      </g>
     </g>
     <g id="text_1">
      <!-- 1.0 -->
      <g transform="translate(74.927104 271.757332) scale(0.1 -0.1)">
       <defs>
        <path id="DejaVuSans-31" d="M 794 531 
L 1825 531 
L 1825 4091 
L 703 3866 
L 703 4441 
L 1819 4666 
L 2450 4666 
L 2450 531 
L 3481 531 
L 3481 0 
L 794 0 
L 794 531 
z
" transform="scale(0.015625)"/>
        <path id="DejaVuSans-2e" d="M 684 794 
L 1344 794 
L 1344 0 
L 684 0 
L 684 794 
z
" transform="scale(0.015625)"/>
        <path id="DejaVuSans-30" d="M 2034 4250 
Q 1547 4250 1301 3770 
Q 1056 3291 1056 2328 
Q 1056 1369 1301 889 
Q 1547 409 2034 409 
Q 2525 409 2770 889 
Q 3016 1369 3016 2328 
Q 3016 3291 2770 3770 
Q 2525 4250 2034 4250 
z
M 2034 4750 
Q 2819 4750 3233 4129 
Q 3647 3509 3647 2328 
Q 3647 1150 3233 529 
Q 2819 -91 2034 -91 
Q 1250 -91 836 529 
Q 422 1150 422 2328 
Q 422 3509 836 4129 
Q 1250 4750 2034 4750 
z
" transform="scale(0.015625)"/>
       </defs>
       <use xlink:href="#DejaVuSans-31"/>
       <use xlink:href="#DejaVuSans-2e" transform="translate(63.623047 0)"/>
       <use xlink:href="#DejaVuSans-30" transform="translate(95.410156 0)"/>
      </g>
     </g>
    </g>
    <g id="xtick_2">
     <g id="line2d_2">
      <g>
       <use xlink:href="#medd9215f91" x="128.921027" y="257.158895" style="stroke: #000000; stroke-width: 0.8"/>
      </g>
     </g>
     <g id="text_2">
      <!-- 1.5 -->
      <g transform="translate(120.969464 271.757332) scale(0.1 -0.1)">
       <defs>
        <path id="DejaVuSans-35" d="M 691 4666 
L 3169 4666 
L 3169 4134 
L 1269 4134 
L 1269 2991 
Q 1406 3038 1543 3061 
Q 1681 3084 1819 3084 
Q 2600 3084 3056 2656 
Q 3513 2228 3513 1497 
Q 3513 744 3044 326 
Q 2575 -91 1722 -91 
Q 1428 -91 1123 -41 
Q 819 9 494 109 
L 494 744 
Q 775 591 1075 516 
Q 1375 441 1709 441 
Q 2250 441 2565 725 
Q 2881 1009 2881 1497 
Q 2881 1984 2565 2268 
Q 2250 2553 1709 2553 
Q 1456 2553 1204 2497 
Q 953 2441 691 2322 
L 691 4666 
z
" transform="scale(0.015625)"/>
       </defs>
       <use xlink:href="#DejaVuSans-31"/>
       <use xlink:href="#DejaVuSans-2e" transform="translate(63.623047 0)"/>
       <use xlink:href="#DejaVuSans-35" transform="translate(95.410156 0)"/>
      </g>
     </g>
    </g>
    <g id="xtick_3">
     <g id="line2d_3">
      <g>
       <use xlink:href="#medd9215f91" x="174.963388" y="257.158895" style="stroke: #000000; stroke-width: 0.8"/>
      </g>
     </g>
     <g id="text_3">
      <!-- 2.0 -->
      <g transform="translate(167.011825 271.757332) scale(0.1 -0.1)">
       <defs>
        <path id="DejaVuSans-32" d="M 1228 531 
L 3431 531 
L 3431 0 
L 469 0 
L 469 531 
Q 828 903 1448 1529 
Q 2069 2156 2228 2338 
Q 2531 2678 2651 2914 
Q 2772 3150 2772 3378 
Q 2772 3750 2511 3984 
Q 2250 4219 1831 4219 
Q 1534 4219 1204 4116 
Q 875 4013 500 3803 
L 500 4441 
Q 881 4594 1212 4672 
Q 1544 4750 1819 4750 
Q 2544 4750 2975 4387 
Q 3406 4025 3406 3419 
Q 3406 3131 3298 2873 
Q 3191 2616 2906 2266 
Q 2828 2175 2409 1742 
Q 1991 1309 1228 531 
z
" transform="scale(0.015625)"/>
       </defs>
       <use xlink:href="#DejaVuSans-32"/>
       <use xlink:href="#DejaVuSans-2e" transform="translate(63.623047 0)"/>
       <use xlink:href="#DejaVuSans-30" transform="translate(95.410156 0)"/>
      </g>
     </g>
    </g>
    <g id="xtick_4">
     <g id="line2d_4">
      <g>
       <use xlink:href="#medd9215f91" x="221.005748" y="257.158895" style="stroke: #000000; stroke-width: 0.8"/>
      </g>
     </g>
     <g id="text_4">
      <!-- 2.5 -->
      <g transform="translate(213.054186 271.757332) scale(0.1 -0.1)">
       <use xlink:href="#DejaVuSans-32"/>
       <use xlink:href="#DejaVuSans-2e" transform="translate(63.623047 0)"/>
       <use xlink:href="#DejaVuSans-35" transform="translate(95.410156 0)"/>
      </g>
     </g>
    </g>
    <g id="xtick_5">
     <g id="line2d_5">
      <g>
       <use xlink:href="#medd9215f91" x="267.048109" y="257.158895" style="stroke: #000000; stroke-width: 0.8"/>
      </g>
     </g>
     <g id="text_5">
      <!-- 3.0 -->
      <g transform="translate(259.096546 271.757332) scale(0.1 -0.1)">
       <defs>
        <path id="DejaVuSans-33" d="M 2597 2516 
Q 3050 2419 3304 2112 
Q 3559 1806 3559 1356 
Q 3559 666 3084 287 
Q 2609 -91 1734 -91 
Q 1441 -91 1130 -33 
Q 819 25 488 141 
L 488 750 
Q 750 597 1062 519 
Q 1375 441 1716 441 
Q 2309 441 2620 675 
Q 2931 909 2931 1356 
Q 2931 1769 2642 2001 
Q 2353 2234 1838 2234 
L 1294 2234 
L 1294 2753 
L 1863 2753 
Q 2328 2753 2575 2939 
Q 2822 3125 2822 3475 
Q 2822 3834 2567 4026 
Q 2313 4219 1838 4219 
Q 1578 4219 1281 4162 
Q 984 4106 628 3988 
L 628 4550 
Q 988 4650 1302 4700 
Q 1616 4750 1894 4750 
Q 2613 4750 3031 4423 
Q 3450 4097 3450 3541 
Q 3450 3153 3228 2886 
Q 3006 2619 2597 2516 
z
" transform="scale(0.015625)"/>
       </defs>
       <use xlink:href="#DejaVuSans-33"/>
       <use xlink:href="#DejaVuSans-2e" transform="translate(63.623047 0)"/>
       <use xlink:href="#DejaVuSans-30" transform="translate(95.410156 0)"/>
      </g>
     </g>
    </g>
    <g id="xtick_6">
     <g id="line2d_6">
      <g>
       <use xlink:href="#medd9215f91" x="313.09047" y="257.158895" style="stroke: #000000; stroke-width: 0.8"/>
      </g>
     </g>
     <g id="text_6">
      <!-- 3.5 -->
      <g transform="translate(305.138907 271.757332) scale(0.1 -0.1)">
       <use xlink:href="#DejaVuSans-33"/>
       <use xlink:href="#DejaVuSans-2e" transform="translate(63.623047 0)"/>
       <use xlink:href="#DejaVuSans-35" transform="translate(95.410156 0)"/>
      </g>
     </g>
    </g>
    <g id="xtick_7">
     <g id="line2d_7">
      <g>
       <use xlink:href="#medd9215f91" x="359.13283" y="257.158895" style="stroke: #000000; stroke-width: 0.8"/>
      </g>
     </g>
     <g id="text_7">
      <!-- 4.0 -->
      <g transform="translate(351.181268 271.757332) scale(0.1 -0.1)">
       <defs>
        <path id="DejaVuSans-34" d="M 2419 4116 
L 825 1625 
L 2419 1625 
L 2419 4116 
z
M 2253 4666 
L 3047 4666 
L 3047 1625 
L 3713 1625 
L 3713 1100 
L 3047 1100 
L 3047 0 
L 2419 0 
L 2419 1100 
L 313 1100 
L 313 1709 
L 2253 4666 
z
" transform="scale(0.015625)"/>
       </defs>
       <use xlink:href="#DejaVuSans-34"/>
       <use xlink:href="#DejaVuSans-2e" transform="translate(63.623047 0)"/>
       <use xlink:href="#DejaVuSans-30" transform="translate(95.410156 0)"/>
      </g>
     </g>
    </g>
    <g id="xtick_8">
     <g id="line2d_8">
      <g>
       <use xlink:href="#medd9215f91" x="405.175191" y="257.158895" style="stroke: #000000; stroke-width: 0.8"/>
      </g>
     </g>
     <g id="text_8">
      <!-- 4.5 -->
      <g transform="translate(397.223628 271.757332) scale(0.1 -0.1)">
       <use xlink:href="#DejaVuSans-34"/>
       <use xlink:href="#DejaVuSans-2e" transform="translate(63.623047 0)"/>
       <use xlink:href="#DejaVuSans-35" transform="translate(95.410156 0)"/>
      </g>
     </g>
    </g>
    <g id="text_9">
     <!-- wavelength [Å] -->
     <g transform="translate(201.385193 287.119832) scale(0.1 -0.1)">
      <defs>
       <path id="DejaVuSans-77" d="M 269 3500 
L 844 3500 
L 1563 769 
L 2278 3500 
L 2956 3500 
L 3675 769 
L 4391 3500 
L 4966 3500 
L 4050 0 
L 3372 0 
L 2619 2869 
L 1863 0 
L 1184 0 
L 269 3500 
z
" transform="scale(0.015625)"/>
       <path id="DejaVuSans-61" d="M 2194 1759 
Q 1497 1759 1228 1600 
Q 959 1441 959 1056 
Q 959 750 1161 570 
Q 1363 391 1709 391 
Q 2188 391 2477 730 
Q 2766 1069 2766 1631 
L 2766 1759 
L 2194 1759 
z
M 3341 1997 
L 3341 0 
L 2766 0 
L 2766 531 
Q 2569 213 2275 61 
Q 1981 -91 1556 -91 
Q 1019 -91 701 211 
Q 384 513 384 1019 
Q 384 1609 779 1909 
Q 1175 2209 1959 2209 
L 2766 2209 
L 2766 2266 
Q 2766 2663 2505 2880 
Q 2244 3097 1772 3097 
Q 1472 3097 1187 3025 
Q 903 2953 641 2809 
L 641 3341 
Q 956 3463 1253 3523 
Q 1550 3584 1831 3584 
Q 2591 3584 2966 3190 
Q 3341 2797 3341 1997 
z
" transform="scale(0.015625)"/>
       <path id="DejaVuSans-76" d="M 191 3500 
L 800 3500 
L 1894 563 
L 2988 3500 
L 3597 3500 
L 2284 0 
L 1503 0 
L 191 3500 
z
" transform="scale(0.015625)"/>
       <path id="DejaVuSans-65" d="M 3597 1894 
L 3597 1613 
L 953 1613 
Q 991 1019 1311 708 
Q 1631 397 2203 397 
Q 2534 397 2845 478 
Q 3156 559 3463 722 
L 3463 178 
Q 3153 47 2828 -22 
Q 2503 -91 2169 -91 
Q 1331 -91 842 396 
Q 353 884 353 1716 
Q 353 2575 817 3079 
Q 1281 3584 2069 3584 
Q 2775 3584 3186 3129 
Q 3597 2675 3597 1894 
z
M 3022 2063 
Q 3016 2534 2758 2815 
Q 2500 3097 2075 3097 
Q 1594 3097 1305 2825 
Q 1016 2553 972 2059 
L 3022 2063 
z
" transform="scale(0.015625)"/>
       <path id="DejaVuSans-6c" d="M 603 4863 
L 1178 4863 
L 1178 0 
L 603 0 
L 603 4863 
z
" transform="scale(0.015625)"/>
       <path id="DejaVuSans-6e" d="M 3513 2113 
L 3513 0 
L 2938 0 
L 2938 2094 
Q 2938 2591 2744 2837 
Q 2550 3084 2163 3084 
Q 1697 3084 1428 2787 
Q 1159 2491 1159 1978 
L 1159 0 
L 581 0 
L 581 3500 
L 1159 3500 
L 1159 2956 
Q 1366 3272 1645 3428 
Q 1925 3584 2291 3584 
Q 2894 3584 3203 3211 
Q 3513 2838 3513 2113 
z
" transform="scale(0.015625)"/>
       <path id="DejaVuSans-67" d="M 2906 1791 
Q 2906 2416 2648 2759 
Q 2391 3103 1925 3103 
Q 1463 3103 1205 2759 
Q 947 2416 947 1791 
Q 947 1169 1205 825 
Q 1463 481 1925 481 
Q 2391 481 2648 825 
Q 2906 1169 2906 1791 
z
M 3481 434 
Q 3481 -459 3084 -895 
Q 2688 -1331 1869 -1331 
Q 1566 -1331 1297 -1286 
Q 1028 -1241 775 -1147 
L 775 -588 
Q 1028 -725 1275 -790 
Q 1522 -856 1778 -856 
Q 2344 -856 2625 -561 
Q 2906 -266 2906 331 
L 2906 616 
Q 2728 306 2450 153 
Q 2172 0 1784 0 
Q 1141 0 747 490 
Q 353 981 353 1791 
Q 353 2603 747 3093 
Q 1141 3584 1784 3584 
Q 2172 3584 2450 3431 
Q 2728 3278 2906 2969 
L 2906 3500 
L 3481 3500 
L 3481 434 
z
" transform="scale(0.015625)"/>
       <path id="DejaVuSans-74" d="M 1172 4494 
L 1172 3500 
L 2356 3500 
L 2356 3053 
L 1172 3053 
L 1172 1153 
Q 1172 725 1289 603 
Q 1406 481 1766 481 
L 2356 481 
L 2356 0 
L 1766 0 
Q 1100 0 847 248 
Q 594 497 594 1153 
L 594 3053 
L 172 3053 
L 172 3500 
L 594 3500 
L 594 4494 
L 1172 4494 
z
" transform="scale(0.015625)"/>
       <path id="DejaVuSans-68" d="M 3513 2113 
L 3513 0 
L 2938 0 
L 2938 2094 
Q 2938 2591 2744 2837 
Q 2550 3084 2163 3084 
Q 1697 3084 1428 2787 
Q 1159 2491 1159 1978 
L 1159 0 
L 581 0 
L 581 4863 
L 1159 4863 
L 1159 2956 
Q 1366 3272 1645 3428 
Q 1925 3584 2291 3584 
Q 2894 3584 3203 3211 
Q 3513 2838 3513 2113 
z
" transform="scale(0.015625)"/>
       <path id="DejaVuSans-20" transform="scale(0.015625)"/>
       <path id="DejaVuSans-5b" d="M 550 4863 
L 1875 4863 
L 1875 4416 
L 1125 4416 
L 1125 -397 
L 1875 -397 
L 1875 -844 
L 550 -844 
L 550 4863 
z
" transform="scale(0.015625)"/>
       <path id="DejaVuSans-c5" d="M 2663 5081 
Q 2663 5278 2523 5417 
Q 2384 5556 2188 5556 
Q 1988 5556 1852 5420 
Q 1716 5284 1716 5081 
Q 1716 4884 1853 4746 
Q 1991 4609 2188 4609 
Q 2384 4609 2523 4746 
Q 2663 4884 2663 5081 
z
M 2188 4044 
L 1338 1722 
L 3041 1722 
L 2188 4044 
z
M 1716 4366 
Q 1525 4494 1428 4673 
Q 1331 4853 1331 5081 
Q 1331 5441 1579 5691 
Q 1828 5941 2188 5941 
Q 2544 5941 2795 5689 
Q 3047 5438 3047 5081 
Q 3047 4863 2948 4678 
Q 2850 4494 2663 4366 
L 4325 0 
L 3669 0 
L 3244 1197 
L 1141 1197 
L 716 0 
L 50 0 
L 1716 4366 
z
" transform="scale(0.015625)"/>
       <path id="DejaVuSans-5d" d="M 1947 4863 
L 1947 -844 
L 622 -844 
L 622 -397 
L 1369 -397 
L 1369 4416 
L 622 4416 
L 622 4863 
L 1947 4863 
z
" transform="scale(0.015625)"/>
      </defs>
      <use xlink:href="#DejaVuSans-77"/>
      <use xlink:href="#DejaVuSans-61" transform="translate(81.787109 0)"/>
      <use xlink:href="#DejaVuSans-76" transform="translate(143.066406 0)"/>
      <use xlink:href="#DejaVuSans-65" transform="translate(202.246094 0)"/>
      <use xlink:href="#DejaVuSans-6c" transform="translate(263.769531 0)"/>
      <use xlink:href="#DejaVuSans-65" transform="translate(291.552734 0)"/>
      <use xlink:href="#DejaVuSans-6e" transform="translate(353.076172 0)"/>
      <use xlink:href="#DejaVuSans-67" transform="translate(416.455078 0)"/>
      <use xlink:href="#DejaVuSans-74" transform="translate(479.931641 0)"/>
      <use xlink:href="#DejaVuSans-68" transform="translate(519.140625 0)"/>
      <use xlink:href="#DejaVuSans-20" transform="translate(582.519531 0)"/>
      <use xlink:href="#DejaVuSans-5b" transform="translate(614.306641 0)"/>
      <use xlink:href="#DejaVuSans-c5" transform="translate(653.320312 0)"/>
      <use xlink:href="#DejaVuSans-5d" transform="translate(721.728516 0)"/>
     </g>
    </g>
   </g>
   <g id="matplotlib.axis_2">
    <g id="ytick_1">
     <g id="line2d_9">
      <defs>
       <path id="m347c3498fb" d="M 0 0 
L -3.5 0 
" style="stroke: #000000; stroke-width: 0.8"/>
      </defs>
      <g>
       <use xlink:href="#m347c3498fb" x="46.965625" y="246.484315" style="stroke: #000000; stroke-width: 0.8"/>
      </g>
     </g>
     <g id="text_10">
      <!-- 0 -->
      <g transform="translate(33.603125 250.283533) scale(0.1 -0.1)">
       <use xlink:href="#DejaVuSans-30"/>
      </g>
     </g>
    </g>
    <g id="ytick_2">
     <g id="line2d_10">
      <g>
       <use xlink:href="#m347c3498fb" x="46.965625" y="219.630024" style="stroke: #000000; stroke-width: 0.8"/>
      </g>
     </g>
     <g id="text_11">
      <!-- 100 -->
      <g transform="translate(20.878125 223.429243) scale(0.1 -0.1)">
       <use xlink:href="#DejaVuSans-31"/>
       <use xlink:href="#DejaVuSans-30" transform="translate(63.623047 0)"/>
       <use xlink:href="#DejaVuSans-30" transform="translate(127.246094 0)"/>
      </g>
     </g>
    </g>
    <g id="ytick_3">
     <g id="line2d_11">
      <g>
       <use xlink:href="#m347c3498fb" x="46.965625" y="192.775734" style="stroke: #000000; stroke-width: 0.8"/>
      </g>
     </g>
     <g id="text_12">
      <!-- 200 -->
      <g transform="translate(20.878125 196.574952) scale(0.1 -0.1)">
       <use xlink:href="#DejaVuSans-32"/>
       <use xlink:href="#DejaVuSans-30" transform="translate(63.623047 0)"/>
       <use xlink:href="#DejaVuSans-30" transform="translate(127.246094 0)"/>
      </g>
     </g>
    </g>
    <g id="ytick_4">
     <g id="line2d_12">
      <g>
       <use xlink:href="#m347c3498fb" x="46.965625" y="165.921443" style="stroke: #000000; stroke-width: 0.8"/>
      </g>
     </g>
     <g id="text_13">
      <!-- 300 -->
      <g transform="translate(20.878125 169.720662) scale(0.1 -0.1)">
       <use xlink:href="#DejaVuSans-33"/>
       <use xlink:href="#DejaVuSans-30" transform="translate(63.623047 0)"/>
       <use xlink:href="#DejaVuSans-30" transform="translate(127.246094 0)"/>
      </g>
     </g>
    </g>
    <g id="ytick_5">
     <g id="line2d_13">
      <g>
       <use xlink:href="#m347c3498fb" x="46.965625" y="139.067153" style="stroke: #000000; stroke-width: 0.8"/>
      </g>
     </g>
     <g id="text_14">
      <!-- 400 -->
      <g transform="translate(20.878125 142.866371) scale(0.1 -0.1)">
       <use xlink:href="#DejaVuSans-34"/>
       <use xlink:href="#DejaVuSans-30" transform="translate(63.623047 0)"/>
       <use xlink:href="#DejaVuSans-30" transform="translate(127.246094 0)"/>
      </g>
     </g>
    </g>
    <g id="ytick_6">
     <g id="line2d_14">
      <g>
       <use xlink:href="#m347c3498fb" x="46.965625" y="112.212862" style="stroke: #000000; stroke-width: 0.8"/>
      </g>
     </g>
     <g id="text_15">
      <!-- 500 -->
      <g transform="translate(20.878125 116.012081) scale(0.1 -0.1)">
       <use xlink:href="#DejaVuSans-35"/>
       <use xlink:href="#DejaVuSans-30" transform="translate(63.623047 0)"/>
       <use xlink:href="#DejaVuSans-30" transform="translate(127.246094 0)"/>
      </g>
     </g>
    </g>
    <g id="ytick_7">
     <g id="line2d_15">
      <g>
       <use xlink:href="#m347c3498fb" x="46.965625" y="85.358572" style="stroke: #000000; stroke-width: 0.8"/>
      </g>
     </g>
     <g id="text_16">
      <!-- 600 -->
      <g transform="translate(20.878125 89.157791) scale(0.1 -0.1)">
       <defs>
        <path id="DejaVuSans-36" d="M 2113 2584 
Q 1688 2584 1439 2293 
Q 1191 2003 1191 1497 
Q 1191 994 1439 701 
Q 1688 409 2113 409 
Q 2538 409 2786 701 
Q 3034 994 3034 1497 
Q 3034 2003 2786 2293 
Q 2538 2584 2113 2584 
z
M 3366 4563 
L 3366 3988 
Q 3128 4100 2886 4159 
Q 2644 4219 2406 4219 
Q 1781 4219 1451 3797 
Q 1122 3375 1075 2522 
Q 1259 2794 1537 2939 
Q 1816 3084 2150 3084 
Q 2853 3084 3261 2657 
Q 3669 2231 3669 1497 
Q 3669 778 3244 343 
Q 2819 -91 2113 -91 
Q 1303 -91 875 529 
Q 447 1150 447 2328 
Q 447 3434 972 4092 
Q 1497 4750 2381 4750 
Q 2619 4750 2861 4703 
Q 3103 4656 3366 4563 
z
" transform="scale(0.015625)"/>
       </defs>
       <use xlink:href="#DejaVuSans-36"/>
       <use xlink:href="#DejaVuSans-30" transform="translate(63.623047 0)"/>
       <use xlink:href="#DejaVuSans-30" transform="translate(127.246094 0)"/>
      </g>
     </g>
    </g>
    <g id="ytick_8">
     <g id="line2d_16">
      <g>
       <use xlink:href="#m347c3498fb" x="46.965625" y="58.504281" style="stroke: #000000; stroke-width: 0.8"/>
      </g>
     </g>
     <g id="text_17">
      <!-- 700 -->
      <g transform="translate(20.878125 62.3035) scale(0.1 -0.1)">
       <defs>
        <path id="DejaVuSans-37" d="M 525 4666 
L 3525 4666 
L 3525 4397 
L 1831 0 
L 1172 0 
L 2766 4134 
L 525 4134 
L 525 4666 
z
" transform="scale(0.015625)"/>
       </defs>
       <use xlink:href="#DejaVuSans-37"/>
       <use xlink:href="#DejaVuSans-30" transform="translate(63.623047 0)"/>
       <use xlink:href="#DejaVuSans-30" transform="translate(127.246094 0)"/>
      </g>
     </g>
    </g>
    <g id="ytick_9">
     <g id="line2d_17">
      <g>
       <use xlink:href="#m347c3498fb" x="46.965625" y="31.649991" style="stroke: #000000; stroke-width: 0.8"/>
      </g>
     </g>
     <g id="text_18">
      <!-- 800 -->
      <g transform="translate(20.878125 35.44921) scale(0.1 -0.1)">
       <defs>
        <path id="DejaVuSans-38" d="M 2034 2216 
Q 1584 2216 1326 1975 
Q 1069 1734 1069 1313 
Q 1069 891 1326 650 
Q 1584 409 2034 409 
Q 2484 409 2743 651 
Q 3003 894 3003 1313 
Q 3003 1734 2745 1975 
Q 2488 2216 2034 2216 
z
M 1403 2484 
Q 997 2584 770 2862 
Q 544 3141 544 3541 
Q 544 4100 942 4425 
Q 1341 4750 2034 4750 
Q 2731 4750 3128 4425 
Q 3525 4100 3525 3541 
Q 3525 3141 3298 2862 
Q 3072 2584 2669 2484 
Q 3125 2378 3379 2068 
Q 3634 1759 3634 1313 
Q 3634 634 3220 271 
Q 2806 -91 2034 -91 
Q 1263 -91 848 271 
Q 434 634 434 1313 
Q 434 1759 690 2068 
Q 947 2378 1403 2484 
z
M 1172 3481 
Q 1172 3119 1398 2916 
Q 1625 2713 2034 2713 
Q 2441 2713 2670 2916 
Q 2900 3119 2900 3481 
Q 2900 3844 2670 4047 
Q 2441 4250 2034 4250 
Q 1625 4250 1398 4047 
Q 1172 3844 1172 3481 
z
" transform="scale(0.015625)"/>
       </defs>
       <use xlink:href="#DejaVuSans-38"/>
       <use xlink:href="#DejaVuSans-30" transform="translate(63.623047 0)"/>
       <use xlink:href="#DejaVuSans-30" transform="translate(127.246094 0)"/>
      </g>
     </g>
    </g>
    <g id="text_19">
     <!-- [counts] -->
     <g transform="translate(14.798437 160.35101) rotate(-90) scale(0.1 -0.1)">
      <defs>
       <path id="DejaVuSans-63" d="M 3122 3366 
L 3122 2828 
Q 2878 2963 2633 3030 
Q 2388 3097 2138 3097 
Q 1578 3097 1268 2742 
Q 959 2388 959 1747 
Q 959 1106 1268 751 
Q 1578 397 2138 397 
Q 2388 397 2633 464 
Q 2878 531 3122 666 
L 3122 134 
Q 2881 22 2623 -34 
Q 2366 -91 2075 -91 
Q 1284 -91 818 406 
Q 353 903 353 1747 
Q 353 2603 823 3093 
Q 1294 3584 2113 3584 
Q 2378 3584 2631 3529 
Q 2884 3475 3122 3366 
z
" transform="scale(0.015625)"/>
       <path id="DejaVuSans-6f" d="M 1959 3097 
Q 1497 3097 1228 2736 
Q 959 2375 959 1747 
Q 959 1119 1226 758 
Q 1494 397 1959 397 
Q 2419 397 2687 759 
Q 2956 1122 2956 1747 
Q 2956 2369 2687 2733 
Q 2419 3097 1959 3097 
z
M 1959 3584 
Q 2709 3584 3137 3096 
Q 3566 2609 3566 1747 
Q 3566 888 3137 398 
Q 2709 -91 1959 -91 
Q 1206 -91 779 398 
Q 353 888 353 1747 
Q 353 2609 779 3096 
Q 1206 3584 1959 3584 
z
" transform="scale(0.015625)"/>
       <path id="DejaVuSans-75" d="M 544 1381 
L 544 3500 
L 1119 3500 
L 1119 1403 
Q 1119 906 1312 657 
Q 1506 409 1894 409 
Q 2359 409 2629 706 
Q 2900 1003 2900 1516 
L 2900 3500 
L 3475 3500 
L 3475 0 
L 2900 0 
L 2900 538 
Q 2691 219 2414 64 
Q 2138 -91 1772 -91 
Q 1169 -91 856 284 
Q 544 659 544 1381 
z
M 1991 3584 
L 1991 3584 
z
" transform="scale(0.015625)"/>
       <path id="DejaVuSans-73" d="M 2834 3397 
L 2834 2853 
Q 2591 2978 2328 3040 
Q 2066 3103 1784 3103 
Q 1356 3103 1142 2972 
Q 928 2841 928 2578 
Q 928 2378 1081 2264 
Q 1234 2150 1697 2047 
L 1894 2003 
Q 2506 1872 2764 1633 
Q 3022 1394 3022 966 
Q 3022 478 2636 193 
Q 2250 -91 1575 -91 
Q 1294 -91 989 -36 
Q 684 19 347 128 
L 347 722 
Q 666 556 975 473 
Q 1284 391 1588 391 
Q 1994 391 2212 530 
Q 2431 669 2431 922 
Q 2431 1156 2273 1281 
Q 2116 1406 1581 1522 
L 1381 1569 
Q 847 1681 609 1914 
Q 372 2147 372 2553 
Q 372 3047 722 3315 
Q 1072 3584 1716 3584 
Q 2034 3584 2315 3537 
Q 2597 3491 2834 3397 
z
" transform="scale(0.015625)"/>
      </defs>
      <use xlink:href="#DejaVuSans-5b"/>
      <use xlink:href="#DejaVuSans-63" transform="translate(39.013672 0)"/>
      <use xlink:href="#DejaVuSans-6f" transform="translate(93.994141 0)"/>
      <use xlink:href="#DejaVuSans-75" transform="translate(155.175781 0)"/>
      <use xlink:href="#DejaVuSans-6e" transform="translate(218.554688 0)"/>
      <use xlink:href="#DejaVuSans-74" transform="translate(281.933594 0)"/>
      <use xlink:href="#DejaVuSans-73" transform="translate(321.142578 0)"/>
      <use xlink:href="#DejaVuSans-5d" transform="translate(373.242188 0)"/>
     </g>
    </g>
   </g>
   <g id="patch_3">
    <path d="M 46.965625 257.158895 
L 46.965625 22.318125 
" style="fill: none; stroke: #000000; stroke-width: 0.8; stroke-linejoin: miter; stroke-linecap: square"/>
   </g>
   <g id="patch_4">
    <path d="M 431.87976 257.158895 
L 431.87976 22.318125 
" style="fill: none; stroke: #000000; stroke-width: 0.8; stroke-linejoin: miter; stroke-linecap: square"/>
   </g>
   <g id="patch_5">
    <path d="M 46.965625 257.158895 
L 431.87976 257.158895 
" style="fill: none; stroke: #000000; stroke-width: 0.8; stroke-linejoin: miter; stroke-linecap: square"/>
   </g>
   <g id="patch_6">
    <path d="M 46.965625 22.318125 
L 431.87976 22.318125 
" style="fill: none; stroke: #000000; stroke-width: 0.8; stroke-linejoin: miter; stroke-linecap: square"/>
   </g>
   <g id="text_20">
    <!-- Pixel 1 -->
    <g transform="translate(219.82613 16.318125) scale(0.12 -0.12)">
     <defs>
      <path id="DejaVuSans-50" d="M 1259 4147 
L 1259 2394 
L 2053 2394 
Q 2494 2394 2734 2622 
Q 2975 2850 2975 3272 
Q 2975 3691 2734 3919 
Q 2494 4147 2053 4147 
L 1259 4147 
z
M 628 4666 
L 2053 4666 
Q 2838 4666 3239 4311 
Q 3641 3956 3641 3272 
Q 3641 2581 3239 2228 
Q 2838 1875 2053 1875 
L 1259 1875 
L 1259 0 
L 628 0 
L 628 4666 
z
" transform="scale(0.015625)"/>
      <path id="DejaVuSans-69" d="M 603 3500 
L 1178 3500 
L 1178 0 
L 603 0 
L 603 3500 
z
M 603 4863 
L 1178 4863 
L 1178 4134 
L 603 4134 
L 603 4863 
z
" transform="scale(0.015625)"/>
      <path id="DejaVuSans-78" d="M 3513 3500 
L 2247 1797 
L 3578 0 
L 2900 0 
L 1881 1375 
L 863 0 
L 184 0 
L 1544 1831 
L 300 3500 
L 978 3500 
L 1906 2253 
L 2834 3500 
L 3513 3500 
z
" transform="scale(0.015625)"/>
     </defs>
     <use xlink:href="#DejaVuSans-50"/>
     <use xlink:href="#DejaVuSans-69" transform="translate(58.052734 0)"/>
     <use xlink:href="#DejaVuSans-78" transform="translate(85.835938 0)"/>
     <use xlink:href="#DejaVuSans-65" transform="translate(141.890625 0)"/>
     <use xlink:href="#DejaVuSans-6c" transform="translate(203.414062 0)"/>
     <use xlink:href="#DejaVuSans-20" transform="translate(231.197266 0)"/>
     <use xlink:href="#DejaVuSans-31" transform="translate(262.984375 0)"/>
    </g>
   </g>
   <g id="legend_1">
    <g id="patch_7">
     <path d="M 327.876635 59.9525 
L 424.87976 59.9525 
Q 426.87976 59.9525 426.87976 57.9525 
L 426.87976 29.318125 
Q 426.87976 27.318125 424.87976 27.318125 
L 327.876635 27.318125 
Q 325.876635 27.318125 325.876635 29.318125 
L 325.876635 57.9525 
Q 325.876635 59.9525 327.876635 59.9525 
z
" style="fill: #ffffff; opacity: 0.8; stroke: #cccccc; stroke-linejoin: miter"/>
    </g>
    <g id="line2d_18">
     <path d="M 329.876635 35.416562 
L 329.876635 35.416562 
L 339.876635 35.416562 
L 339.876635 35.416562 
L 349.876635 35.416562 
" style="fill: none; stroke: #1f77b4; stroke-width: 1.5; stroke-linecap: square"/>
    </g>
    <g id="text_21">
     <!-- wfm -->
     <g transform="translate(357.876635 38.916562) scale(0.1 -0.1)">
      <defs>
       <path id="DejaVuSans-66" d="M 2375 4863 
L 2375 4384 
L 1825 4384 
Q 1516 4384 1395 4259 
Q 1275 4134 1275 3809 
L 1275 3500 
L 2222 3500 
L 2222 3053 
L 1275 3053 
L 1275 0 
L 697 0 
L 697 3053 
L 147 3053 
L 147 3500 
L 697 3500 
L 697 3744 
Q 697 4328 969 4595 
Q 1241 4863 1831 4863 
L 2375 4863 
z
" transform="scale(0.015625)"/>
       <path id="DejaVuSans-6d" d="M 3328 2828 
Q 3544 3216 3844 3400 
Q 4144 3584 4550 3584 
Q 5097 3584 5394 3201 
Q 5691 2819 5691 2113 
L 5691 0 
L 5113 0 
L 5113 2094 
Q 5113 2597 4934 2840 
Q 4756 3084 4391 3084 
Q 3944 3084 3684 2787 
Q 3425 2491 3425 1978 
L 3425 0 
L 2847 0 
L 2847 2094 
Q 2847 2600 2669 2842 
Q 2491 3084 2119 3084 
Q 1678 3084 1418 2786 
Q 1159 2488 1159 1978 
L 1159 0 
L 581 0 
L 581 3500 
L 1159 3500 
L 1159 2956 
Q 1356 3278 1631 3431 
Q 1906 3584 2284 3584 
Q 2666 3584 2933 3390 
Q 3200 3197 3328 2828 
z
" transform="scale(0.015625)"/>
      </defs>
      <use xlink:href="#DejaVuSans-77"/>
      <use xlink:href="#DejaVuSans-66" transform="translate(81.787109 0)"/>
      <use xlink:href="#DejaVuSans-6d" transform="translate(116.992188 0)"/>
     </g>
    </g>
    <g id="line2d_19">
     <path d="M 329.876635 50.094687 
L 329.876635 50.094687 
L 339.876635 50.094687 
L 339.876635 50.094687 
L 349.876635 50.094687 
" style="fill: none; stroke: #ff7f0e; stroke-width: 1.5; stroke-linecap: square"/>
    </g>
    <g id="text_22">
     <!-- ground_truth -->
     <g transform="translate(357.876635 53.594687) scale(0.1 -0.1)">
      <defs>
       <path id="DejaVuSans-72" d="M 2631 2963 
Q 2534 3019 2420 3045 
Q 2306 3072 2169 3072 
Q 1681 3072 1420 2755 
Q 1159 2438 1159 1844 
L 1159 0 
L 581 0 
L 581 3500 
L 1159 3500 
L 1159 2956 
Q 1341 3275 1631 3429 
Q 1922 3584 2338 3584 
Q 2397 3584 2469 3576 
Q 2541 3569 2628 3553 
L 2631 2963 
z
" transform="scale(0.015625)"/>
       <path id="DejaVuSans-64" d="M 2906 2969 
L 2906 4863 
L 3481 4863 
L 3481 0 
L 2906 0 
L 2906 525 
Q 2725 213 2448 61 
Q 2172 -91 1784 -91 
Q 1150 -91 751 415 
Q 353 922 353 1747 
Q 353 2572 751 3078 
Q 1150 3584 1784 3584 
Q 2172 3584 2448 3432 
Q 2725 3281 2906 2969 
z
M 947 1747 
Q 947 1113 1208 752 
Q 1469 391 1925 391 
Q 2381 391 2643 752 
Q 2906 1113 2906 1747 
Q 2906 2381 2643 2742 
Q 2381 3103 1925 3103 
Q 1469 3103 1208 2742 
Q 947 2381 947 1747 
z
" transform="scale(0.015625)"/>
       <path id="DejaVuSans-5f" d="M 3263 -1063 
L 3263 -1509 
L -63 -1509 
L -63 -1063 
L 3263 -1063 
z
" transform="scale(0.015625)"/>
      </defs>
      <use xlink:href="#DejaVuSans-67"/>
      <use xlink:href="#DejaVuSans-72" transform="translate(63.476562 0)"/>
      <use xlink:href="#DejaVuSans-6f" transform="translate(102.339844 0)"/>
      <use xlink:href="#DejaVuSans-75" transform="translate(163.521484 0)"/>
      <use xlink:href="#DejaVuSans-6e" transform="translate(226.900391 0)"/>
      <use xlink:href="#DejaVuSans-64" transform="translate(290.279297 0)"/>
      <use xlink:href="#DejaVuSans-5f" transform="translate(353.755859 0)"/>
      <use xlink:href="#DejaVuSans-74" transform="translate(403.755859 0)"/>
      <use xlink:href="#DejaVuSans-72" transform="translate(442.964844 0)"/>
      <use xlink:href="#DejaVuSans-75" transform="translate(484.078125 0)"/>
      <use xlink:href="#DejaVuSans-74" transform="translate(547.457031 0)"/>
      <use xlink:href="#DejaVuSans-68" transform="translate(586.666016 0)"/>
     </g>
    </g>
   </g>
   <g id="line2d_20">
    <path d="M 64.461722 246.484315 
L 73.209771 246.484315 
L 73.209771 245.410143 
L 74.95938 245.410143 
L 74.95938 234.399884 
L 76.70899 234.399884 
L 76.70899 231.714455 
L 78.4586 231.714455 
L 78.4586 219.092938 
L 80.208209 219.092938 
L 80.208209 210.768108 
L 81.957819 210.768108 
L 81.957819 202.443278 
L 83.707429 202.443278 
L 83.707429 195.998248 
L 85.457039 195.998248 
L 85.457039 179.617131 
L 87.206648 179.617131 
L 87.206648 176.663159 
L 88.956258 176.663159 
L 88.956258 171.829387 
L 90.705868 171.829387 
L 90.705868 158.670785 
L 92.455477 158.670785 
L 92.455477 147.660526 
L 94.205087 147.660526 
L 94.205087 133.159209 
L 95.954697 133.159209 
L 95.954697 136.381724 
L 97.704306 136.381724 
L 97.704306 129.668151 
L 99.453916 129.668151 
L 99.453916 127.251265 
L 101.203526 127.251265 
L 101.203526 113.555577 
L 102.953136 113.555577 
L 102.953136 111.944319 
L 104.702745 111.944319 
L 104.702745 104.693661 
L 106.452355 104.693661 
L 106.452355 97.17446 
L 108.201965 97.17446 
L 108.201965 77.570828 
L 109.951574 77.570828 
L 109.951574 79.719171 
L 111.701184 79.719171 
L 111.701184 74.07977 
L 113.450794 74.07977 
L 113.450794 76.228113 
L 115.200403 76.228113 
L 115.200403 76.765199 
L 116.950013 76.765199 
L 116.950013 64.680768 
L 118.699623 64.680768 
L 118.699623 55.818852 
L 120.449233 55.818852 
L 120.449233 62.532425 
L 122.198842 62.532425 
L 122.198842 58.504281 
L 123.948452 58.504281 
L 123.948452 46.419851 
L 125.698062 46.419851 
L 125.698062 48.299651 
L 127.447671 48.299651 
L 127.447671 34.603963 
L 129.197281 34.603963 
L 129.197281 43.465879 
L 130.946891 43.465879 
L 130.946891 50.716537 
L 132.696501 50.716537 
L 132.696501 39.169192 
L 134.44611 39.169192 
L 134.44611 44.271507 
L 136.19572 44.271507 
L 136.19572 63.606597 
L 137.94533 63.606597 
L 137.94533 42.123164 
L 139.694939 42.123164 
L 139.694939 52.327795 
L 141.444549 52.327795 
L 141.444549 49.910908 
L 143.194159 49.910908 
L 143.194159 58.504281 
L 144.943768 58.504281 
L 144.943768 58.772824 
L 148.442988 58.772824 
L 148.442988 66.023483 
L 150.192598 66.023483 
L 150.192598 76.496656 
L 151.942207 76.496656 
L 151.942207 72.468512 
L 153.691817 72.468512 
L 153.691817 71.662884 
L 155.441427 71.662884 
L 155.441427 64.680768 
L 157.191036 64.680768 
L 157.191036 79.719171 
L 158.940646 79.719171 
L 158.940646 73.005598 
L 160.690256 73.005598 
L 160.690256 71.662884 
L 162.439866 71.662884 
L 162.439866 81.330428 
L 164.189475 81.330428 
L 164.189475 90.72943 
L 165.939085 90.72943 
L 165.939085 74.616856 
L 167.688695 74.616856 
L 167.688695 94.757573 
L 169.438304 94.757573 
L 169.438304 77.570828 
L 171.187914 77.570828 
L 171.187914 97.711545 
L 172.937524 97.711545 
L 172.937524 92.072144 
L 174.687133 92.072144 
L 174.687133 86.432743 
L 176.436743 86.432743 
L 176.436743 82.4046 
L 178.186353 82.4046 
L 178.186353 77.302285 
L 179.935963 77.302285 
L 179.935963 95.563202 
L 181.685572 95.563202 
L 181.685572 85.627115 
L 183.435182 85.627115 
L 183.435182 78.913542 
L 185.184792 78.913542 
L 185.184792 82.136057 
L 186.934401 82.136057 
L 186.934401 98.785717 
L 188.684011 98.785717 
L 188.684011 93.951945 
L 190.433621 93.951945 
L 190.433621 104.425118 
L 192.18323 104.425118 
L 192.18323 92.072144 
L 193.93284 92.072144 
L 193.93284 97.17446 
L 195.68245 97.17446 
L 195.68245 102.813861 
L 197.43206 102.813861 
L 197.43206 110.333062 
L 199.181669 110.333062 
L 199.181669 111.944319 
L 200.931279 111.944319 
L 200.931279 109.25889 
L 202.680889 109.25889 
L 202.680889 119.732064 
L 204.430498 119.732064 
L 204.430498 126.445636 
L 206.180108 126.445636 
L 206.180108 130.742323 
L 207.929718 130.742323 
L 207.929718 144.975097 
L 209.679328 144.975097 
L 209.679328 154.374098 
L 211.428937 154.374098 
L 211.428937 158.939328 
L 213.178547 158.939328 
L 213.178547 171.292301 
L 214.928157 171.292301 
L 214.928157 167.801244 
L 216.677766 167.801244 
L 216.677766 183.376732 
L 218.427376 183.376732 
L 218.427376 190.358848 
L 220.176986 190.358848 
L 220.176986 195.998248 
L 221.926595 195.998248 
L 221.926595 199.757849 
L 223.676205 199.757849 
L 223.676205 208.082679 
L 225.425815 208.082679 
L 225.425815 213.72208 
L 227.175425 213.72208 
L 227.175425 221.509824 
L 228.925034 221.509824 
L 228.925034 229.566112 
L 230.674644 229.566112 
L 230.674644 235.474055 
L 232.424254 235.474055 
L 232.424254 237.890942 
L 234.173863 237.890942 
L 234.173863 241.650542 
L 235.923473 241.650542 
L 235.923473 244.335971 
L 237.673083 244.335971 
L 237.673083 241.919085 
L 239.422693 241.919085 
L 239.422693 232.788626 
L 241.172302 232.788626 
L 241.172302 225.537968 
L 242.921912 225.537968 
L 242.921912 218.018767 
L 244.671522 218.018767 
L 244.671522 213.990623 
L 246.421131 213.990623 
L 246.421131 208.619765 
L 248.170741 208.619765 
L 248.170741 202.443278 
L 249.920351 202.443278 
L 249.920351 196.266791 
L 251.66996 196.266791 
L 251.66996 195.729706 
L 253.41957 195.729706 
L 253.41957 181.496932 
L 255.16918 181.496932 
L 255.16918 170.755215 
L 256.91879 170.755215 
L 256.91879 170.21813 
L 258.668399 170.21813 
L 258.668399 167.264158 
L 260.418009 167.264158 
L 260.418009 173.172102 
L 262.167619 173.172102 
L 262.167619 161.8933 
L 263.917228 161.8933 
L 263.917228 152.225755 
L 265.666838 152.225755 
L 265.666838 152.762841 
L 267.416448 152.762841 
L 267.416448 147.391983 
L 269.166057 147.391983 
L 269.166057 136.650267 
L 270.915667 136.650267 
L 270.915667 137.992981 
L 272.665277 137.992981 
L 272.665277 127.519808 
L 274.414887 127.519808 
L 274.414887 129.936694 
L 276.164496 129.936694 
L 276.164496 130.742323 
L 277.914106 130.742323 
L 277.914106 119.732064 
L 279.663716 119.732064 
L 279.663716 129.668151 
L 281.413325 129.668151 
L 281.413325 116.509549 
L 283.162935 116.509549 
L 283.162935 110.601605 
L 284.912545 110.601605 
L 284.912545 111.675776 
L 286.662155 111.675776 
L 286.662155 109.527433 
L 288.411764 109.527433 
L 288.411764 110.064519 
L 290.161374 110.064519 
L 290.161374 104.693661 
L 291.910984 104.693661 
L 291.910984 106.573461 
L 293.660593 106.573461 
L 293.660593 107.647633 
L 295.410203 107.647633 
L 295.410203 103.350946 
L 297.159813 103.350946 
L 297.159813 98.517174 
L 298.909422 98.517174 
L 298.909422 108.990347 
L 300.659032 108.990347 
L 300.659032 112.212862 
L 302.408642 112.212862 
L 302.408642 122.14895 
L 304.158252 122.14895 
L 304.158252 122.686036 
L 305.907861 122.686036 
L 305.907861 116.241006 
L 307.657471 116.241006 
L 307.657471 119.463521 
L 309.407081 119.463521 
L 309.407081 121.880407 
L 311.15669 121.880407 
L 311.15669 133.427752 
L 312.9063 133.427752 
L 312.9063 123.491664 
L 314.65591 123.491664 
L 314.65591 125.102922 
L 316.405519 125.102922 
L 316.405519 132.35358 
L 318.155129 132.35358 
L 318.155129 139.604239 
L 319.904739 139.604239 
L 319.904739 126.714179 
L 321.654349 126.714179 
L 321.654349 139.604239 
L 323.403958 139.604239 
L 323.403958 139.872781 
L 325.153568 139.872781 
L 325.153568 147.929069 
L 326.903178 147.929069 
L 326.903178 135.576095 
L 328.652787 135.576095 
L 328.652787 155.179727 
L 330.402397 155.179727 
L 330.402397 146.854897 
L 332.152007 146.854897 
L 332.152007 151.151583 
L 333.901617 151.151583 
L 333.901617 152.762841 
L 335.651226 152.762841 
L 335.651226 147.660526 
L 337.400836 147.660526 
L 337.400836 155.716813 
L 339.150446 155.716813 
L 339.150446 154.911184 
L 340.900055 154.911184 
L 340.900055 151.151583 
L 342.649665 151.151583 
L 342.649665 160.550585 
L 344.399275 160.550585 
L 344.399275 166.189986 
L 346.148884 166.189986 
L 346.148884 164.041643 
L 347.898494 164.041643 
L 347.898494 172.366473 
L 349.648104 172.366473 
L 349.648104 166.727072 
L 351.397714 166.727072 
L 351.397714 175.320445 
L 353.147323 175.320445 
L 353.147323 180.154217 
L 354.896933 180.154217 
L 354.896933 174.514816 
L 356.646543 174.514816 
L 356.646543 186.330704 
L 358.396152 186.330704 
L 358.396152 175.588988 
L 360.145762 175.588988 
L 360.145762 186.062161 
L 361.895372 186.062161 
L 361.895372 184.987989 
L 363.644982 184.987989 
L 363.644982 199.489306 
L 365.394591 199.489306 
L 365.394591 188.479047 
L 367.144201 188.479047 
L 367.144201 196.535334 
L 368.893811 196.535334 
L 368.893811 197.878049 
L 370.64342 197.878049 
L 370.64342 204.591621 
L 372.39303 204.591621 
L 372.39303 201.906192 
L 374.14264 201.906192 
L 374.14264 211.84228 
L 375.892249 211.84228 
L 375.892249 212.110823 
L 377.641859 212.110823 
L 377.641859 213.184994 
L 379.391469 213.184994 
L 379.391469 218.018767 
L 381.141079 218.018767 
L 381.141079 218.555852 
L 382.890688 218.555852 
L 382.890688 225.537968 
L 384.640298 225.537968 
L 384.640298 224.732339 
L 386.389908 224.732339 
L 386.389908 229.566112 
L 388.139517 229.566112 
L 388.139517 233.057169 
L 389.889127 233.057169 
L 389.889127 232.251541 
L 391.638737 232.251541 
L 391.638737 237.890942 
L 395.137956 237.890942 
L 395.137956 240.039285 
L 396.887566 240.039285 
L 396.887566 243.798886 
L 398.637176 243.798886 
L 398.637176 242.724714 
L 400.386785 242.724714 
L 400.386785 243.530343 
L 402.136395 243.530343 
L 402.136395 246.215772 
L 403.886005 246.215772 
L 403.886005 246.484315 
L 414.383663 246.484315 
L 414.383663 246.484315 
" clip-path="url(#pd19d64ef9b)" style="fill: none; stroke: #1f77b4; stroke-width: 1.5; stroke-linecap: square"/>
   </g>
   <g id="line2d_21">
    <path d="M 64.461722 246.484315 
L 73.209771 246.484315 
L 73.209771 245.1416 
L 74.95938 245.1416 
L 74.95938 234.131341 
L 76.70899 234.131341 
L 76.70899 231.177369 
L 78.4586 231.177369 
L 78.4586 216.944595 
L 80.208209 216.944595 
L 80.208209 214.527709 
L 81.957819 214.527709 
L 81.957819 201.906192 
L 83.707429 201.906192 
L 83.707429 194.118448 
L 85.457039 194.118448 
L 85.457039 180.691303 
L 87.206648 180.691303 
L 87.206648 175.051902 
L 88.956258 175.051902 
L 88.956258 172.366473 
L 90.705868 172.366473 
L 90.705868 156.253899 
L 92.455477 156.253899 
L 92.455477 148.734697 
L 94.205087 148.734697 
L 94.205087 137.992981 
L 95.954697 137.992981 
L 95.954697 133.159209 
L 97.704306 133.159209 
L 97.704306 128.862522 
L 99.453916 128.862522 
L 99.453916 125.371465 
L 101.203526 125.371465 
L 101.203526 116.509549 
L 102.953136 116.509549 
L 102.953136 113.82412 
L 104.702745 113.82412 
L 104.702745 102.545318 
L 106.452355 102.545318 
L 106.452355 90.460887 
L 108.201965 90.460887 
L 108.201965 83.747314 
L 109.951574 83.747314 
L 109.951574 83.478772 
L 111.701184 83.478772 
L 111.701184 76.228113 
L 113.450794 76.228113 
L 113.450794 69.245998 
L 115.200403 69.245998 
L 115.200403 79.719171 
L 116.950013 79.719171 
L 116.950013 62.800968 
L 118.699623 62.800968 
L 118.699623 55.550309 
L 120.449233 55.550309 
L 120.449233 57.43011 
L 122.198842 57.43011 
L 122.198842 65.217854 
L 123.948452 65.217854 
L 123.948452 52.059252 
L 125.698062 52.059252 
L 125.698062 44.002965 
L 127.447671 44.002965 
L 127.447671 32.992705 
L 129.197281 32.992705 
L 129.197281 44.54005 
L 130.946891 44.54005 
L 130.946891 46.956936 
L 132.696501 46.956936 
L 132.696501 43.197336 
L 134.44611 43.197336 
L 134.44611 48.299651 
L 136.19572 48.299651 
L 136.19572 51.790709 
L 137.94533 51.790709 
L 137.94533 53.133423 
L 139.694939 53.133423 
L 139.694939 50.716537 
L 141.444549 50.716537 
L 141.444549 52.327795 
L 143.194159 52.327795 
L 143.194159 53.670509 
L 144.943768 53.670509 
L 144.943768 57.967196 
L 146.693378 57.967196 
L 146.693378 63.338054 
L 148.442988 63.338054 
L 148.442988 62.532425 
L 150.192598 62.532425 
L 150.192598 74.07977 
L 151.942207 74.07977 
L 151.942207 68.171826 
L 153.691817 68.171826 
L 153.691817 71.662884 
L 155.441427 71.662884 
L 155.441427 70.857255 
L 157.191036 70.857255 
L 157.191036 69.51454 
L 158.940646 69.51454 
L 158.940646 88.581087 
L 160.690256 88.581087 
L 160.690256 73.811227 
L 162.439866 73.811227 
L 162.439866 78.107913 
L 164.189475 78.107913 
L 164.189475 77.033742 
L 165.939085 77.033742 
L 165.939085 87.775458 
L 167.688695 87.775458 
L 167.688695 91.266516 
L 169.438304 91.266516 
L 169.438304 80.793342 
L 171.187914 80.793342 
L 171.187914 92.877773 
L 172.937524 92.877773 
L 172.937524 93.951945 
L 174.687133 93.951945 
L 174.687133 79.987714 
L 176.436743 79.987714 
L 176.436743 89.386715 
L 178.186353 89.386715 
L 178.186353 81.867514 
L 179.935963 81.867514 
L 179.935963 89.118172 
L 181.685572 89.118172 
L 181.685572 74.07977 
L 183.435182 74.07977 
L 183.435182 89.386715 
L 185.184792 89.386715 
L 185.184792 89.118172 
L 186.934401 89.118172 
L 186.934401 95.026116 
L 188.684011 95.026116 
L 188.684011 98.785717 
L 190.433621 98.785717 
L 190.433621 94.220488 
L 192.18323 94.220488 
L 192.18323 101.202603 
L 193.93284 101.202603 
L 193.93284 90.192344 
L 195.68245 90.192344 
L 195.68245 106.573461 
L 197.43206 106.573461 
L 197.43206 107.110547 
L 199.181669 107.110547 
L 199.181669 114.361206 
L 200.931279 114.361206 
L 200.931279 110.064519 
L 202.680889 110.064519 
L 202.680889 119.194978 
L 204.430498 119.194978 
L 204.430498 125.640008 
L 206.180108 125.640008 
L 206.180108 135.576095 
L 207.929718 135.576095 
L 207.929718 140.141324 
L 209.679328 140.141324 
L 209.679328 154.374098 
L 211.428937 154.374098 
L 211.428937 161.624757 
L 213.178547 161.624757 
L 213.178547 170.21813 
L 214.928157 170.21813 
L 214.928157 164.847272 
L 216.677766 164.847272 
L 216.677766 188.479047 
L 218.427376 188.479047 
L 218.427376 187.136333 
L 220.176986 187.136333 
L 220.176986 195.461163 
L 221.926595 195.461163 
L 221.926595 200.294935 
L 223.676205 200.294935 
L 223.676205 207.008508 
L 225.425815 207.008508 
L 225.425815 213.72208 
L 227.175425 213.72208 
L 227.175425 222.583996 
L 228.925034 222.583996 
L 228.925034 229.029026 
L 230.674644 229.029026 
L 230.674644 235.205513 
L 232.424254 235.205513 
L 232.424254 238.69657 
L 234.173863 238.69657 
L 234.173863 241.113456 
L 235.923473 241.113456 
L 235.923473 243.798886 
L 237.673083 243.798886 
L 237.673083 241.650542 
L 239.422693 241.650542 
L 239.422693 233.325712 
L 241.172302 233.325712 
L 241.172302 225.000882 
L 242.921912 225.000882 
L 242.921912 217.481681 
L 244.671522 217.481681 
L 244.671522 214.527709 
L 246.421131 214.527709 
L 246.421131 208.619765 
L 248.170741 208.619765 
L 248.170741 201.906192 
L 249.920351 201.906192 
L 249.920351 198.95222 
L 251.66996 198.95222 
L 251.66996 193.312819 
L 253.41957 193.312819 
L 253.41957 184.182361 
L 255.16918 184.182361 
L 255.16918 164.847272 
L 256.91879 164.847272 
L 256.91879 173.97773 
L 258.668399 173.97773 
L 258.668399 170.755215 
L 260.418009 170.755215 
L 260.418009 169.681044 
L 262.167619 169.681044 
L 262.167619 160.013499 
L 263.917228 160.013499 
L 263.917228 155.716813 
L 265.666838 155.716813 
L 265.666838 153.837012 
L 267.416448 153.837012 
L 267.416448 139.604239 
L 269.166057 139.604239 
L 269.166057 143.632382 
L 270.915667 143.632382 
L 270.915667 128.056894 
L 272.665277 128.056894 
L 272.665277 136.650267 
L 274.414887 136.650267 
L 274.414887 123.491664 
L 276.164496 123.491664 
L 276.164496 128.862522 
L 277.914106 128.862522 
L 277.914106 134.770466 
L 279.663716 134.770466 
L 279.663716 124.02875 
L 281.413325 124.02875 
L 281.413325 115.166834 
L 283.162935 115.166834 
L 283.162935 114.898291 
L 284.912545 114.898291 
L 284.912545 107.110547 
L 286.662155 107.110547 
L 286.662155 112.749948 
L 288.411764 112.749948 
L 288.411764 110.870148 
L 290.161374 110.870148 
L 290.161374 98.517174 
L 291.910984 98.517174 
L 291.910984 108.453262 
L 293.660593 108.453262 
L 293.660593 107.647633 
L 295.410203 107.647633 
L 295.410203 102.813861 
L 297.159813 102.813861 
L 297.159813 103.888032 
L 298.909422 103.888032 
L 298.909422 99.859889 
L 300.659032 99.859889 
L 300.659032 112.749948 
L 302.408642 112.749948 
L 302.408642 123.223121 
L 304.158252 123.223121 
L 304.158252 124.297293 
L 305.907861 124.297293 
L 305.907861 118.120806 
L 307.657471 118.120806 
L 307.657471 120.537692 
L 309.407081 120.537692 
L 309.407081 122.417493 
L 311.15669 122.417493 
L 311.15669 135.307552 
L 312.9063 135.307552 
L 312.9063 123.491664 
L 314.65591 123.491664 
L 314.65591 121.880407 
L 316.405519 121.880407 
L 316.405519 135.039009 
L 318.155129 135.039009 
L 318.155129 141.484039 
L 319.904739 141.484039 
L 319.904739 125.102922 
L 321.654349 125.102922 
L 321.654349 140.67841 
L 323.403958 140.67841 
L 323.403958 133.696295 
L 325.153568 133.696295 
L 325.153568 144.975097 
L 326.903178 144.975097 
L 326.903178 147.391983 
L 328.652787 147.391983 
L 328.652787 144.706554 
L 330.402397 144.706554 
L 330.402397 148.197611 
L 332.152007 148.197611 
L 332.152007 151.420126 
L 333.901617 151.420126 
L 333.901617 146.317811 
L 335.651226 146.317811 
L 335.651226 155.985356 
L 337.400836 155.985356 
L 337.400836 157.32807 
L 339.150446 157.32807 
L 339.150446 154.642641 
L 340.900055 154.642641 
L 340.900055 154.911184 
L 342.649665 154.911184 
L 342.649665 160.013499 
L 344.399275 160.013499 
L 344.399275 159.476413 
L 346.148884 159.476413 
L 346.148884 170.486673 
L 347.898494 170.486673 
L 347.898494 164.578729 
L 349.648104 164.578729 
L 349.648104 168.875415 
L 351.397714 168.875415 
L 351.397714 178.811503 
L 353.147323 178.811503 
L 353.147323 172.366473 
L 354.896933 172.366473 
L 354.896933 182.034017 
L 358.396152 182.034017 
L 358.396152 173.97773 
L 360.145762 173.97773 
L 360.145762 190.358848 
L 361.895372 190.358848 
L 361.895372 187.404876 
L 363.644982 187.404876 
L 363.644982 195.729706 
L 365.394591 195.729706 
L 365.394591 189.284676 
L 367.144201 189.284676 
L 367.144201 194.655534 
L 368.893811 194.655534 
L 368.893811 205.128707 
L 370.64342 205.128707 
L 370.64342 199.757849 
L 372.39303 199.757849 
L 372.39303 204.323079 
L 374.14264 204.323079 
L 374.14264 206.739965 
L 375.892249 206.739965 
L 375.892249 214.527709 
L 377.641859 214.527709 
L 377.641859 213.990623 
L 379.391469 213.990623 
L 379.391469 220.435653 
L 381.141079 220.435653 
L 381.141079 215.333338 
L 382.890688 215.333338 
L 382.890688 225.269425 
L 384.640298 225.269425 
L 384.640298 223.658168 
L 386.389908 223.658168 
L 386.389908 229.566112 
L 388.139517 229.566112 
L 388.139517 234.399884 
L 389.889127 234.399884 
L 389.889127 231.982998 
L 391.638737 231.982998 
L 391.638737 237.353856 
L 393.388347 237.353856 
L 393.388347 238.69657 
L 395.137956 238.69657 
L 395.137956 239.233656 
L 396.887566 239.233656 
L 396.887566 243.798886 
L 398.637176 243.798886 
L 398.637176 242.187628 
L 400.386785 242.187628 
L 400.386785 244.067428 
L 402.136395 244.067428 
L 402.136395 246.215772 
L 405.635614 246.215772 
L 405.635614 246.484315 
L 414.383663 246.484315 
L 414.383663 246.484315 
" clip-path="url(#pd19d64ef9b)" style="fill: none; stroke: #ff7f0e; stroke-width: 1.5; stroke-linecap: square"/>
   </g>
  </g>
  <g id="axes_2">
   <g id="patch_8">
    <path d="M 480.285385 257.158895 
L 865.19952 257.158895 
L 865.19952 22.318125 
L 480.285385 22.318125 
z
" style="fill: #ffffff"/>
   </g>
   <g id="matplotlib.axis_3">
    <g id="xtick_9">
     <g id="line2d_22">
      <g>
       <use xlink:href="#medd9215f91" x="516.198426" y="257.158895" style="stroke: #000000; stroke-width: 0.8"/>
      </g>
     </g>
     <g id="text_23">
      <!-- 1.0 -->
      <g transform="translate(508.246864 271.757332) scale(0.1 -0.1)">
       <use xlink:href="#DejaVuSans-31"/>
       <use xlink:href="#DejaVuSans-2e" transform="translate(63.623047 0)"/>
       <use xlink:href="#DejaVuSans-30" transform="translate(95.410156 0)"/>
      </g>
     </g>
    </g>
    <g id="xtick_10">
     <g id="line2d_23">
      <g>
       <use xlink:href="#medd9215f91" x="562.240787" y="257.158895" style="stroke: #000000; stroke-width: 0.8"/>
      </g>
     </g>
     <g id="text_24">
      <!-- 1.5 -->
      <g transform="translate(554.289224 271.757332) scale(0.1 -0.1)">
       <use xlink:href="#DejaVuSans-31"/>
       <use xlink:href="#DejaVuSans-2e" transform="translate(63.623047 0)"/>
       <use xlink:href="#DejaVuSans-35" transform="translate(95.410156 0)"/>
      </g>
     </g>
    </g>
    <g id="xtick_11">
     <g id="line2d_24">
      <g>
       <use xlink:href="#medd9215f91" x="608.283148" y="257.158895" style="stroke: #000000; stroke-width: 0.8"/>
      </g>
     </g>
     <g id="text_25">
      <!-- 2.0 -->
      <g transform="translate(600.331585 271.757332) scale(0.1 -0.1)">
       <use xlink:href="#DejaVuSans-32"/>
       <use xlink:href="#DejaVuSans-2e" transform="translate(63.623047 0)"/>
       <use xlink:href="#DejaVuSans-30" transform="translate(95.410156 0)"/>
      </g>
     </g>
    </g>
    <g id="xtick_12">
     <g id="line2d_25">
      <g>
       <use xlink:href="#medd9215f91" x="654.325508" y="257.158895" style="stroke: #000000; stroke-width: 0.8"/>
      </g>
     </g>
     <g id="text_26">
      <!-- 2.5 -->
      <g transform="translate(646.373946 271.757332) scale(0.1 -0.1)">
       <use xlink:href="#DejaVuSans-32"/>
       <use xlink:href="#DejaVuSans-2e" transform="translate(63.623047 0)"/>
       <use xlink:href="#DejaVuSans-35" transform="translate(95.410156 0)"/>
      </g>
     </g>
    </g>
    <g id="xtick_13">
     <g id="line2d_26">
      <g>
       <use xlink:href="#medd9215f91" x="700.367869" y="257.158895" style="stroke: #000000; stroke-width: 0.8"/>
      </g>
     </g>
     <g id="text_27">
      <!-- 3.0 -->
      <g transform="translate(692.416306 271.757332) scale(0.1 -0.1)">
       <use xlink:href="#DejaVuSans-33"/>
       <use xlink:href="#DejaVuSans-2e" transform="translate(63.623047 0)"/>
       <use xlink:href="#DejaVuSans-30" transform="translate(95.410156 0)"/>
      </g>
     </g>
    </g>
    <g id="xtick_14">
     <g id="line2d_27">
      <g>
       <use xlink:href="#medd9215f91" x="746.41023" y="257.158895" style="stroke: #000000; stroke-width: 0.8"/>
      </g>
     </g>
     <g id="text_28">
      <!-- 3.5 -->
      <g transform="translate(738.458667 271.757332) scale(0.1 -0.1)">
       <use xlink:href="#DejaVuSans-33"/>
       <use xlink:href="#DejaVuSans-2e" transform="translate(63.623047 0)"/>
       <use xlink:href="#DejaVuSans-35" transform="translate(95.410156 0)"/>
      </g>
     </g>
    </g>
    <g id="xtick_15">
     <g id="line2d_28">
      <g>
       <use xlink:href="#medd9215f91" x="792.45259" y="257.158895" style="stroke: #000000; stroke-width: 0.8"/>
      </g>
     </g>
     <g id="text_29">
      <!-- 4.0 -->
      <g transform="translate(784.501028 271.757332) scale(0.1 -0.1)">
       <use xlink:href="#DejaVuSans-34"/>
       <use xlink:href="#DejaVuSans-2e" transform="translate(63.623047 0)"/>
       <use xlink:href="#DejaVuSans-30" transform="translate(95.410156 0)"/>
      </g>
     </g>
    </g>
    <g id="xtick_16">
     <g id="line2d_29">
      <g>
       <use xlink:href="#medd9215f91" x="838.494951" y="257.158895" style="stroke: #000000; stroke-width: 0.8"/>
      </g>
     </g>
     <g id="text_30">
      <!-- 4.5 -->
      <g transform="translate(830.543388 271.757332) scale(0.1 -0.1)">
       <use xlink:href="#DejaVuSans-34"/>
       <use xlink:href="#DejaVuSans-2e" transform="translate(63.623047 0)"/>
       <use xlink:href="#DejaVuSans-35" transform="translate(95.410156 0)"/>
      </g>
     </g>
    </g>
    <g id="text_31">
     <!-- wavelength [Å] -->
     <g transform="translate(634.704952 287.119832) scale(0.1 -0.1)">
      <use xlink:href="#DejaVuSans-77"/>
      <use xlink:href="#DejaVuSans-61" transform="translate(81.787109 0)"/>
      <use xlink:href="#DejaVuSans-76" transform="translate(143.066406 0)"/>
      <use xlink:href="#DejaVuSans-65" transform="translate(202.246094 0)"/>
      <use xlink:href="#DejaVuSans-6c" transform="translate(263.769531 0)"/>
      <use xlink:href="#DejaVuSans-65" transform="translate(291.552734 0)"/>
      <use xlink:href="#DejaVuSans-6e" transform="translate(353.076172 0)"/>
      <use xlink:href="#DejaVuSans-67" transform="translate(416.455078 0)"/>
      <use xlink:href="#DejaVuSans-74" transform="translate(479.931641 0)"/>
      <use xlink:href="#DejaVuSans-68" transform="translate(519.140625 0)"/>
      <use xlink:href="#DejaVuSans-20" transform="translate(582.519531 0)"/>
      <use xlink:href="#DejaVuSans-5b" transform="translate(614.306641 0)"/>
      <use xlink:href="#DejaVuSans-c5" transform="translate(653.320312 0)"/>
      <use xlink:href="#DejaVuSans-5d" transform="translate(721.728516 0)"/>
     </g>
    </g>
   </g>
   <g id="matplotlib.axis_4">
    <g id="ytick_10">
     <g id="line2d_30">
      <g>
       <use xlink:href="#m347c3498fb" x="480.285385" y="246.484315" style="stroke: #000000; stroke-width: 0.8"/>
      </g>
     </g>
     <g id="text_32">
      <!-- 0 -->
      <g transform="translate(466.922885 250.283533) scale(0.1 -0.1)">
       <use xlink:href="#DejaVuSans-30"/>
      </g>
     </g>
    </g>
    <g id="ytick_11">
     <g id="line2d_31">
      <g>
       <use xlink:href="#m347c3498fb" x="480.285385" y="219.630024" style="stroke: #000000; stroke-width: 0.8"/>
      </g>
     </g>
     <g id="text_33">
      <!-- 100 -->
      <g transform="translate(454.197885 223.429243) scale(0.1 -0.1)">
       <use xlink:href="#DejaVuSans-31"/>
       <use xlink:href="#DejaVuSans-30" transform="translate(63.623047 0)"/>
       <use xlink:href="#DejaVuSans-30" transform="translate(127.246094 0)"/>
      </g>
     </g>
    </g>
    <g id="ytick_12">
     <g id="line2d_32">
      <g>
       <use xlink:href="#m347c3498fb" x="480.285385" y="192.775734" style="stroke: #000000; stroke-width: 0.8"/>
      </g>
     </g>
     <g id="text_34">
      <!-- 200 -->
      <g transform="translate(454.197885 196.574952) scale(0.1 -0.1)">
       <use xlink:href="#DejaVuSans-32"/>
       <use xlink:href="#DejaVuSans-30" transform="translate(63.623047 0)"/>
       <use xlink:href="#DejaVuSans-30" transform="translate(127.246094 0)"/>
      </g>
     </g>
    </g>
    <g id="ytick_13">
     <g id="line2d_33">
      <g>
       <use xlink:href="#m347c3498fb" x="480.285385" y="165.921443" style="stroke: #000000; stroke-width: 0.8"/>
      </g>
     </g>
     <g id="text_35">
      <!-- 300 -->
      <g transform="translate(454.197885 169.720662) scale(0.1 -0.1)">
       <use xlink:href="#DejaVuSans-33"/>
       <use xlink:href="#DejaVuSans-30" transform="translate(63.623047 0)"/>
       <use xlink:href="#DejaVuSans-30" transform="translate(127.246094 0)"/>
      </g>
     </g>
    </g>
    <g id="ytick_14">
     <g id="line2d_34">
      <g>
       <use xlink:href="#m347c3498fb" x="480.285385" y="139.067153" style="stroke: #000000; stroke-width: 0.8"/>
      </g>
     </g>
     <g id="text_36">
      <!-- 400 -->
      <g transform="translate(454.197885 142.866371) scale(0.1 -0.1)">
       <use xlink:href="#DejaVuSans-34"/>
       <use xlink:href="#DejaVuSans-30" transform="translate(63.623047 0)"/>
       <use xlink:href="#DejaVuSans-30" transform="translate(127.246094 0)"/>
      </g>
     </g>
    </g>
    <g id="ytick_15">
     <g id="line2d_35">
      <g>
       <use xlink:href="#m347c3498fb" x="480.285385" y="112.212862" style="stroke: #000000; stroke-width: 0.8"/>
      </g>
     </g>
     <g id="text_37">
      <!-- 500 -->
      <g transform="translate(454.197885 116.012081) scale(0.1 -0.1)">
       <use xlink:href="#DejaVuSans-35"/>
       <use xlink:href="#DejaVuSans-30" transform="translate(63.623047 0)"/>
       <use xlink:href="#DejaVuSans-30" transform="translate(127.246094 0)"/>
      </g>
     </g>
    </g>
    <g id="ytick_16">
     <g id="line2d_36">
      <g>
       <use xlink:href="#m347c3498fb" x="480.285385" y="85.358572" style="stroke: #000000; stroke-width: 0.8"/>
      </g>
     </g>
     <g id="text_38">
      <!-- 600 -->
      <g transform="translate(454.197885 89.157791) scale(0.1 -0.1)">
       <use xlink:href="#DejaVuSans-36"/>
       <use xlink:href="#DejaVuSans-30" transform="translate(63.623047 0)"/>
       <use xlink:href="#DejaVuSans-30" transform="translate(127.246094 0)"/>
      </g>
     </g>
    </g>
    <g id="ytick_17">
     <g id="line2d_37">
      <g>
       <use xlink:href="#m347c3498fb" x="480.285385" y="58.504281" style="stroke: #000000; stroke-width: 0.8"/>
      </g>
     </g>
     <g id="text_39">
      <!-- 700 -->
      <g transform="translate(454.197885 62.3035) scale(0.1 -0.1)">
       <use xlink:href="#DejaVuSans-37"/>
       <use xlink:href="#DejaVuSans-30" transform="translate(63.623047 0)"/>
       <use xlink:href="#DejaVuSans-30" transform="translate(127.246094 0)"/>
      </g>
     </g>
    </g>
    <g id="ytick_18">
     <g id="line2d_38">
      <g>
       <use xlink:href="#m347c3498fb" x="480.285385" y="31.649991" style="stroke: #000000; stroke-width: 0.8"/>
      </g>
     </g>
     <g id="text_40">
      <!-- 800 -->
      <g transform="translate(454.197885 35.44921) scale(0.1 -0.1)">
       <use xlink:href="#DejaVuSans-38"/>
       <use xlink:href="#DejaVuSans-30" transform="translate(63.623047 0)"/>
       <use xlink:href="#DejaVuSans-30" transform="translate(127.246094 0)"/>
      </g>
     </g>
    </g>
    <g id="text_41">
     <!-- [counts] -->
     <g transform="translate(448.118198 160.35101) rotate(-90) scale(0.1 -0.1)">
      <use xlink:href="#DejaVuSans-5b"/>
      <use xlink:href="#DejaVuSans-63" transform="translate(39.013672 0)"/>
      <use xlink:href="#DejaVuSans-6f" transform="translate(93.994141 0)"/>
      <use xlink:href="#DejaVuSans-75" transform="translate(155.175781 0)"/>
      <use xlink:href="#DejaVuSans-6e" transform="translate(218.554688 0)"/>
      <use xlink:href="#DejaVuSans-74" transform="translate(281.933594 0)"/>
      <use xlink:href="#DejaVuSans-73" transform="translate(321.142578 0)"/>
      <use xlink:href="#DejaVuSans-5d" transform="translate(373.242188 0)"/>
     </g>
    </g>
   </g>
   <g id="patch_9">
    <path d="M 480.285385 257.158895 
L 480.285385 22.318125 
" style="fill: none; stroke: #000000; stroke-width: 0.8; stroke-linejoin: miter; stroke-linecap: square"/>
   </g>
   <g id="patch_10">
    <path d="M 865.19952 257.158895 
L 865.19952 22.318125 
" style="fill: none; stroke: #000000; stroke-width: 0.8; stroke-linejoin: miter; stroke-linecap: square"/>
   </g>
   <g id="patch_11">
    <path d="M 480.285385 257.158895 
L 865.19952 257.158895 
" style="fill: none; stroke: #000000; stroke-width: 0.8; stroke-linejoin: miter; stroke-linecap: square"/>
   </g>
   <g id="patch_12">
    <path d="M 480.285385 22.318125 
L 865.19952 22.318125 
" style="fill: none; stroke: #000000; stroke-width: 0.8; stroke-linejoin: miter; stroke-linecap: square"/>
   </g>
   <g id="text_42">
    <!-- Pixel 2 -->
    <g transform="translate(653.14589 16.318125) scale(0.12 -0.12)">
     <use xlink:href="#DejaVuSans-50"/>
     <use xlink:href="#DejaVuSans-69" transform="translate(58.052734 0)"/>
     <use xlink:href="#DejaVuSans-78" transform="translate(85.835938 0)"/>
     <use xlink:href="#DejaVuSans-65" transform="translate(141.890625 0)"/>
     <use xlink:href="#DejaVuSans-6c" transform="translate(203.414062 0)"/>
     <use xlink:href="#DejaVuSans-20" transform="translate(231.197266 0)"/>
     <use xlink:href="#DejaVuSans-32" transform="translate(262.984375 0)"/>
    </g>
   </g>
   <g id="legend_2">
    <g id="patch_13">
     <path d="M 761.196395 59.9525 
L 858.19952 59.9525 
Q 860.19952 59.9525 860.19952 57.9525 
L 860.19952 29.318125 
Q 860.19952 27.318125 858.19952 27.318125 
L 761.196395 27.318125 
Q 759.196395 27.318125 759.196395 29.318125 
L 759.196395 57.9525 
Q 759.196395 59.9525 761.196395 59.9525 
z
" style="fill: #ffffff; opacity: 0.8; stroke: #cccccc; stroke-linejoin: miter"/>
    </g>
    <g id="line2d_39">
     <path d="M 763.196395 35.416562 
L 763.196395 35.416562 
L 773.196395 35.416562 
L 773.196395 35.416562 
L 783.196395 35.416562 
" style="fill: none; stroke: #1f77b4; stroke-width: 1.5; stroke-linecap: square"/>
    </g>
    <g id="text_43">
     <!-- wfm -->
     <g transform="translate(791.196395 38.916562) scale(0.1 -0.1)">
      <use xlink:href="#DejaVuSans-77"/>
      <use xlink:href="#DejaVuSans-66" transform="translate(81.787109 0)"/>
      <use xlink:href="#DejaVuSans-6d" transform="translate(116.992188 0)"/>
     </g>
    </g>
    <g id="line2d_40">
     <path d="M 763.196395 50.094687 
L 763.196395 50.094687 
L 773.196395 50.094687 
L 773.196395 50.094687 
L 783.196395 50.094687 
" style="fill: none; stroke: #ff7f0e; stroke-width: 1.5; stroke-linecap: square"/>
    </g>
    <g id="text_44">
     <!-- ground_truth -->
     <g transform="translate(791.196395 53.594687) scale(0.1 -0.1)">
      <use xlink:href="#DejaVuSans-67"/>
      <use xlink:href="#DejaVuSans-72" transform="translate(63.476562 0)"/>
      <use xlink:href="#DejaVuSans-6f" transform="translate(102.339844 0)"/>
      <use xlink:href="#DejaVuSans-75" transform="translate(163.521484 0)"/>
      <use xlink:href="#DejaVuSans-6e" transform="translate(226.900391 0)"/>
      <use xlink:href="#DejaVuSans-64" transform="translate(290.279297 0)"/>
      <use xlink:href="#DejaVuSans-5f" transform="translate(353.755859 0)"/>
      <use xlink:href="#DejaVuSans-74" transform="translate(403.755859 0)"/>
      <use xlink:href="#DejaVuSans-72" transform="translate(442.964844 0)"/>
      <use xlink:href="#DejaVuSans-75" transform="translate(484.078125 0)"/>
      <use xlink:href="#DejaVuSans-74" transform="translate(547.457031 0)"/>
      <use xlink:href="#DejaVuSans-68" transform="translate(586.666016 0)"/>
     </g>
    </g>
   </g>
   <g id="line2d_41">
    <path d="M 497.781482 246.484315 
L 506.529531 246.484315 
L 506.529531 245.678686 
L 508.27914 245.678686 
L 508.27914 233.594255 
L 510.02875 233.594255 
L 510.02875 232.520084 
L 511.77836 232.520084 
L 511.77836 218.28731 
L 513.527969 218.28731 
L 513.527969 211.84228 
L 515.277579 211.84228 
L 515.277579 201.100564 
L 517.027189 201.100564 
L 517.027189 197.609506 
L 518.776799 197.609506 
L 518.776799 179.348588 
L 520.526408 179.348588 
L 520.526408 176.931702 
L 522.276018 176.931702 
L 522.276018 171.292301 
L 524.025628 171.292301 
L 524.025628 158.402242 
L 525.775237 158.402242 
L 525.775237 147.660526 
L 527.524847 147.660526 
L 527.524847 134.501923 
L 529.274457 134.501923 
L 529.274457 135.844638 
L 531.024066 135.844638 
L 531.024066 129.131065 
L 532.773676 129.131065 
L 532.773676 128.325437 
L 534.523286 128.325437 
L 534.523286 113.82412 
L 536.272896 113.82412 
L 536.272896 110.064519 
L 538.022505 110.064519 
L 538.022505 105.49929 
L 539.772115 105.49929 
L 539.772115 97.711545 
L 541.521725 97.711545 
L 541.521725 75.422484 
L 543.271334 75.422484 
L 543.271334 81.330428 
L 545.020944 81.330428 
L 545.020944 75.422484 
L 546.770554 75.422484 
L 546.770554 74.348313 
L 548.520163 74.348313 
L 548.520163 75.422484 
L 550.269773 75.422484 
L 550.269773 67.366197 
L 552.019383 67.366197 
L 552.019383 53.401966 
L 553.768993 53.401966 
L 553.768993 64.412225 
L 555.518602 64.412225 
L 555.518602 56.355938 
L 557.268212 56.355938 
L 557.268212 51.253623 
L 559.017822 51.253623 
L 559.017822 45.345679 
L 560.767431 45.345679 
L 560.767431 34.066877 
L 562.517041 34.066877 
L 562.517041 45.882765 
L 564.266651 45.882765 
L 564.266651 45.614222 
L 566.016261 45.614222 
L 566.016261 38.632106 
L 567.76587 38.632106 
L 567.76587 49.910908 
L 569.51548 49.910908 
L 569.51548 60.115539 
L 571.26509 60.115539 
L 571.26509 40.243364 
L 573.014699 40.243364 
L 573.014699 58.235738 
L 574.764309 58.235738 
L 574.764309 45.882765 
L 576.513919 45.882765 
L 576.513919 60.652625 
L 578.263528 60.652625 
L 578.263528 59.041367 
L 580.013138 59.041367 
L 580.013138 57.967196 
L 581.762748 57.967196 
L 581.762748 64.949311 
L 583.512358 64.949311 
L 583.512358 77.033742 
L 585.261967 77.033742 
L 585.261967 73.005598 
L 587.011577 73.005598 
L 587.011577 70.857255 
L 588.761187 70.857255 
L 588.761187 63.606597 
L 590.510796 63.606597 
L 590.510796 81.061885 
L 592.260406 81.061885 
L 592.260406 73.005598 
L 595.759626 73.005598 
L 595.759626 80.5248 
L 597.509235 80.5248 
L 597.509235 90.460887 
L 599.258845 90.460887 
L 599.258845 77.302285 
L 601.008455 77.302285 
L 601.008455 90.72943 
L 602.758064 90.72943 
L 602.758064 78.913542 
L 604.507674 78.913542 
L 604.507674 99.05426 
L 606.257284 99.05426 
L 606.257284 88.044001 
L 608.006893 88.044001 
L 608.006893 88.581087 
L 609.756503 88.581087 
L 609.756503 81.330428 
L 611.506113 81.330428 
L 611.506113 82.941686 
L 613.255723 82.941686 
L 613.255723 91.266516 
L 615.005332 91.266516 
L 615.005332 81.867514 
L 616.754942 81.867514 
L 616.754942 83.210229 
L 618.504552 83.210229 
L 618.504552 83.478772 
L 620.254161 83.478772 
L 620.254161 95.831745 
L 622.003771 95.831745 
L 622.003771 97.711545 
L 623.753381 97.711545 
L 623.753381 103.619489 
L 625.50299 103.619489 
L 625.50299 90.460887 
L 627.2526 90.460887 
L 627.2526 95.563202 
L 629.00221 95.563202 
L 629.00221 104.962204 
L 630.75182 104.962204 
L 630.75182 109.795976 
L 632.501429 109.795976 
L 632.501429 112.749948 
L 634.251039 112.749948 
L 634.251039 108.721805 
L 636.000649 108.721805 
L 636.000649 120.000607 
L 637.750258 120.000607 
L 637.750258 126.445636 
L 639.499868 126.445636 
L 639.499868 131.010866 
L 641.249478 131.010866 
L 641.249478 144.438011 
L 642.999088 144.438011 
L 642.999088 153.56847 
L 644.748697 153.56847 
L 644.748697 159.744956 
L 646.498307 159.744956 
L 646.498307 170.755215 
L 648.247917 170.755215 
L 648.247917 165.921443 
L 649.997526 165.921443 
L 649.997526 185.256532 
L 651.747136 185.256532 
L 651.747136 190.358848 
L 653.496746 190.358848 
L 653.496746 196.266791 
L 655.246355 196.266791 
L 655.246355 199.757849 
L 656.995965 199.757849 
L 656.995965 207.814136 
L 658.745575 207.814136 
L 658.745575 213.990623 
L 660.495185 213.990623 
L 660.495185 221.509824 
L 662.244794 221.509824 
L 662.244794 229.297569 
L 663.994404 229.297569 
L 663.994404 235.742598 
L 665.744014 235.742598 
L 665.744014 237.890942 
L 667.493623 237.890942 
L 667.493623 241.650542 
L 669.243233 241.650542 
L 669.243233 244.604514 
L 670.992843 244.604514 
L 670.992843 241.919085 
L 672.742453 241.919085 
L 672.742453 233.594255 
L 674.492062 233.594255 
L 674.492062 225.537968 
L 676.241672 225.537968 
L 676.241672 218.555852 
L 677.991282 218.555852 
L 677.991282 213.453537 
L 679.740891 213.453537 
L 679.740891 208.619765 
L 681.490501 208.619765 
L 681.490501 202.443278 
L 683.240111 202.443278 
L 683.240111 196.266791 
L 684.98972 196.266791 
L 684.98972 195.729706 
L 686.73933 195.729706 
L 686.73933 181.496932 
L 688.48894 181.496932 
L 688.48894 169.949587 
L 690.23855 169.949587 
L 690.23855 170.755215 
L 691.988159 170.755215 
L 691.988159 166.995615 
L 693.737769 166.995615 
L 693.737769 173.97773 
L 695.487379 173.97773 
L 695.487379 161.624757 
L 697.236988 161.624757 
L 697.236988 152.762841 
L 698.986598 152.762841 
L 698.986598 153.837012 
L 700.736208 153.837012 
L 700.736208 144.706554 
L 702.485817 144.706554 
L 702.485817 137.724438 
L 704.235427 137.724438 
L 704.235427 138.261524 
L 705.985037 138.261524 
L 705.985037 128.325437 
L 707.734647 128.325437 
L 707.734647 128.056894 
L 709.484256 128.056894 
L 709.484256 129.131065 
L 711.233866 129.131065 
L 711.233866 121.880407 
L 712.983476 121.880407 
L 712.983476 129.131065 
L 714.733085 129.131065 
L 714.733085 118.120806 
L 716.482695 118.120806 
L 716.482695 108.184719 
L 718.232305 108.184719 
L 718.232305 112.481405 
L 719.981915 112.481405 
L 719.981915 110.870148 
L 723.481134 110.870148 
L 723.481134 103.888032 
L 725.230744 103.888032 
L 725.230744 106.573461 
L 726.980353 106.573461 
L 726.980353 106.304918 
L 728.729963 106.304918 
L 728.729963 103.888032 
L 730.479573 103.888032 
L 730.479573 100.665517 
L 732.229182 100.665517 
L 732.229182 110.064519 
L 733.978792 110.064519 
L 733.978792 109.25889 
L 735.728402 109.25889 
L 735.728402 121.880407 
L 737.478012 121.880407 
L 737.478012 122.686036 
L 739.227621 122.686036 
L 739.227621 117.852263 
L 740.977231 117.852263 
L 740.977231 117.58372 
L 742.726841 117.58372 
L 742.726841 123.223121 
L 744.47645 123.223121 
L 744.47645 132.35358 
L 746.22606 132.35358 
L 746.22606 123.760207 
L 747.97567 123.760207 
L 747.97567 125.371465 
L 749.725279 125.371465 
L 749.725279 132.890666 
L 751.474889 132.890666 
L 751.474889 137.992981 
L 753.224499 137.992981 
L 753.224499 127.788351 
L 754.974109 127.788351 
L 754.974109 139.604239 
L 756.723718 139.604239 
L 756.723718 138.530067 
L 758.473328 138.530067 
L 758.473328 146.854897 
L 760.222938 146.854897 
L 760.222938 139.067153 
L 761.972547 139.067153 
L 761.972547 152.225755 
L 763.722157 152.225755 
L 763.722157 148.197611 
L 765.471767 148.197611 
L 765.471767 150.077412 
L 767.221377 150.077412 
L 767.221377 154.105555 
L 768.970986 154.105555 
L 768.970986 148.197611 
L 770.720596 148.197611 
L 770.720596 155.179727 
L 772.470206 155.179727 
L 772.470206 154.911184 
L 774.219815 154.911184 
L 774.219815 151.151583 
L 775.969425 151.151583 
L 775.969425 161.087671 
L 777.719035 161.087671 
L 777.719035 162.698928 
L 779.468644 162.698928 
L 779.468644 168.338329 
L 781.218254 168.338329 
L 781.218254 169.681044 
L 782.967864 169.681044 
L 782.967864 171.560844 
L 786.467083 171.560844 
L 786.467083 180.691303 
L 788.216693 180.691303 
L 788.216693 173.709187 
L 789.966303 173.709187 
L 789.966303 186.062161 
L 791.715912 186.062161 
L 791.715912 177.737331 
L 793.465522 177.737331 
L 793.465522 184.719447 
L 795.215132 184.719447 
L 795.215132 185.256532 
L 796.964742 185.256532 
L 796.964742 199.489306 
L 798.714351 199.489306 
L 798.714351 188.479047 
L 800.463961 188.479047 
L 800.463961 195.729706 
L 802.213571 195.729706 
L 802.213571 198.415135 
L 803.96318 198.415135 
L 803.96318 204.323079 
L 805.71279 204.323079 
L 805.71279 202.443278 
L 807.4624 202.443278 
L 807.4624 211.84228 
L 810.961619 211.84228 
L 810.961619 212.916451 
L 812.711229 212.916451 
L 812.711229 218.555852 
L 814.460839 218.555852 
L 814.460839 218.28731 
L 816.210448 218.28731 
L 816.210448 225.806511 
L 817.960058 225.806511 
L 817.960058 224.463796 
L 819.709668 224.463796 
L 819.709668 229.297569 
L 821.459277 229.297569 
L 821.459277 233.325712 
L 823.208887 233.325712 
L 823.208887 232.251541 
L 824.958497 232.251541 
L 824.958497 237.622399 
L 826.708106 237.622399 
L 826.708106 238.428027 
L 828.457716 238.428027 
L 828.457716 239.770742 
L 830.207326 239.770742 
L 830.207326 243.798886 
L 831.956936 243.798886 
L 831.956936 242.724714 
L 833.706545 242.724714 
L 833.706545 243.530343 
L 835.456155 243.530343 
L 835.456155 246.215772 
L 837.205765 246.215772 
L 837.205765 246.484315 
L 847.703423 246.484315 
L 847.703423 246.484315 
" clip-path="url(#pb405f4b2a0)" style="fill: none; stroke: #1f77b4; stroke-width: 1.5; stroke-linecap: square"/>
   </g>
   <g id="line2d_42">
    <path d="M 497.781482 246.484315 
L 506.529531 246.484315 
L 506.529531 245.1416 
L 508.27914 245.1416 
L 508.27914 234.131341 
L 510.02875 234.131341 
L 510.02875 231.177369 
L 511.77836 231.177369 
L 511.77836 216.944595 
L 513.527969 216.944595 
L 513.527969 214.527709 
L 515.277579 214.527709 
L 515.277579 201.906192 
L 517.027189 201.906192 
L 517.027189 194.118448 
L 518.776799 194.118448 
L 518.776799 180.691303 
L 520.526408 180.691303 
L 520.526408 175.051902 
L 522.276018 175.051902 
L 522.276018 172.366473 
L 524.025628 172.366473 
L 524.025628 156.253899 
L 525.775237 156.253899 
L 525.775237 148.734697 
L 527.524847 148.734697 
L 527.524847 137.992981 
L 529.274457 137.992981 
L 529.274457 133.159209 
L 531.024066 133.159209 
L 531.024066 128.862522 
L 532.773676 128.862522 
L 532.773676 125.371465 
L 534.523286 125.371465 
L 534.523286 116.509549 
L 536.272896 116.509549 
L 536.272896 113.82412 
L 538.022505 113.82412 
L 538.022505 102.545318 
L 539.772115 102.545318 
L 539.772115 90.460887 
L 541.521725 90.460887 
L 541.521725 83.747314 
L 543.271334 83.747314 
L 543.271334 83.478772 
L 545.020944 83.478772 
L 545.020944 76.228113 
L 546.770554 76.228113 
L 546.770554 69.245998 
L 548.520163 69.245998 
L 548.520163 79.719171 
L 550.269773 79.719171 
L 550.269773 62.800968 
L 552.019383 62.800968 
L 552.019383 55.550309 
L 553.768993 55.550309 
L 553.768993 57.43011 
L 555.518602 57.43011 
L 555.518602 65.217854 
L 557.268212 65.217854 
L 557.268212 52.059252 
L 559.017822 52.059252 
L 559.017822 44.002965 
L 560.767431 44.002965 
L 560.767431 32.992705 
L 562.517041 32.992705 
L 562.517041 44.54005 
L 564.266651 44.54005 
L 564.266651 46.956936 
L 566.016261 46.956936 
L 566.016261 43.197336 
L 567.76587 43.197336 
L 567.76587 48.299651 
L 569.51548 48.299651 
L 569.51548 51.790709 
L 571.26509 51.790709 
L 571.26509 53.133423 
L 573.014699 53.133423 
L 573.014699 50.716537 
L 574.764309 50.716537 
L 574.764309 52.327795 
L 576.513919 52.327795 
L 576.513919 53.670509 
L 578.263528 53.670509 
L 578.263528 57.967196 
L 580.013138 57.967196 
L 580.013138 63.338054 
L 581.762748 63.338054 
L 581.762748 62.532425 
L 583.512358 62.532425 
L 583.512358 74.07977 
L 585.261967 74.07977 
L 585.261967 68.171826 
L 587.011577 68.171826 
L 587.011577 71.662884 
L 588.761187 71.662884 
L 588.761187 70.857255 
L 590.510796 70.857255 
L 590.510796 69.51454 
L 592.260406 69.51454 
L 592.260406 88.581087 
L 594.010016 88.581087 
L 594.010016 73.811227 
L 595.759626 73.811227 
L 595.759626 78.107913 
L 597.509235 78.107913 
L 597.509235 77.033742 
L 599.258845 77.033742 
L 599.258845 87.775458 
L 601.008455 87.775458 
L 601.008455 91.266516 
L 602.758064 91.266516 
L 602.758064 80.793342 
L 604.507674 80.793342 
L 604.507674 92.877773 
L 606.257284 92.877773 
L 606.257284 93.951945 
L 608.006893 93.951945 
L 608.006893 79.987714 
L 609.756503 79.987714 
L 609.756503 89.386715 
L 611.506113 89.386715 
L 611.506113 81.867514 
L 613.255723 81.867514 
L 613.255723 89.118172 
L 615.005332 89.118172 
L 615.005332 74.07977 
L 616.754942 74.07977 
L 616.754942 89.386715 
L 618.504552 89.386715 
L 618.504552 89.118172 
L 620.254161 89.118172 
L 620.254161 95.026116 
L 622.003771 95.026116 
L 622.003771 98.785717 
L 623.753381 98.785717 
L 623.753381 94.220488 
L 625.50299 94.220488 
L 625.50299 101.202603 
L 627.2526 101.202603 
L 627.2526 90.192344 
L 629.00221 90.192344 
L 629.00221 106.573461 
L 630.75182 106.573461 
L 630.75182 107.110547 
L 632.501429 107.110547 
L 632.501429 114.361206 
L 634.251039 114.361206 
L 634.251039 110.064519 
L 636.000649 110.064519 
L 636.000649 119.194978 
L 637.750258 119.194978 
L 637.750258 125.640008 
L 639.499868 125.640008 
L 639.499868 135.576095 
L 641.249478 135.576095 
L 641.249478 140.141324 
L 642.999088 140.141324 
L 642.999088 154.374098 
L 644.748697 154.374098 
L 644.748697 161.624757 
L 646.498307 161.624757 
L 646.498307 170.21813 
L 648.247917 170.21813 
L 648.247917 164.847272 
L 649.997526 164.847272 
L 649.997526 188.479047 
L 651.747136 188.479047 
L 651.747136 187.136333 
L 653.496746 187.136333 
L 653.496746 195.461163 
L 655.246355 195.461163 
L 655.246355 200.294935 
L 656.995965 200.294935 
L 656.995965 207.008508 
L 658.745575 207.008508 
L 658.745575 213.72208 
L 660.495185 213.72208 
L 660.495185 222.583996 
L 662.244794 222.583996 
L 662.244794 229.029026 
L 663.994404 229.029026 
L 663.994404 235.205513 
L 665.744014 235.205513 
L 665.744014 238.69657 
L 667.493623 238.69657 
L 667.493623 241.113456 
L 669.243233 241.113456 
L 669.243233 243.798886 
L 670.992843 243.798886 
L 670.992843 241.650542 
L 672.742453 241.650542 
L 672.742453 233.325712 
L 674.492062 233.325712 
L 674.492062 225.000882 
L 676.241672 225.000882 
L 676.241672 217.481681 
L 677.991282 217.481681 
L 677.991282 214.527709 
L 679.740891 214.527709 
L 679.740891 208.619765 
L 681.490501 208.619765 
L 681.490501 201.906192 
L 683.240111 201.906192 
L 683.240111 198.95222 
L 684.98972 198.95222 
L 684.98972 193.312819 
L 686.73933 193.312819 
L 686.73933 184.182361 
L 688.48894 184.182361 
L 688.48894 164.847272 
L 690.23855 164.847272 
L 690.23855 173.97773 
L 691.988159 173.97773 
L 691.988159 170.755215 
L 693.737769 170.755215 
L 693.737769 169.681044 
L 695.487379 169.681044 
L 695.487379 160.013499 
L 697.236988 160.013499 
L 697.236988 155.716813 
L 698.986598 155.716813 
L 698.986598 153.837012 
L 700.736208 153.837012 
L 700.736208 139.604239 
L 702.485817 139.604239 
L 702.485817 143.632382 
L 704.235427 143.632382 
L 704.235427 128.056894 
L 705.985037 128.056894 
L 705.985037 136.650267 
L 707.734647 136.650267 
L 707.734647 123.491664 
L 709.484256 123.491664 
L 709.484256 128.862522 
L 711.233866 128.862522 
L 711.233866 134.770466 
L 712.983476 134.770466 
L 712.983476 124.02875 
L 714.733085 124.02875 
L 714.733085 115.166834 
L 716.482695 115.166834 
L 716.482695 114.898291 
L 718.232305 114.898291 
L 718.232305 107.110547 
L 719.981915 107.110547 
L 719.981915 112.749948 
L 721.731524 112.749948 
L 721.731524 110.870148 
L 723.481134 110.870148 
L 723.481134 98.517174 
L 725.230744 98.517174 
L 725.230744 108.453262 
L 726.980353 108.453262 
L 726.980353 107.647633 
L 728.729963 107.647633 
L 728.729963 102.813861 
L 730.479573 102.813861 
L 730.479573 103.888032 
L 732.229182 103.888032 
L 732.229182 99.859889 
L 733.978792 99.859889 
L 733.978792 112.749948 
L 735.728402 112.749948 
L 735.728402 123.223121 
L 737.478012 123.223121 
L 737.478012 124.297293 
L 739.227621 124.297293 
L 739.227621 118.120806 
L 740.977231 118.120806 
L 740.977231 120.537692 
L 742.726841 120.537692 
L 742.726841 122.417493 
L 744.47645 122.417493 
L 744.47645 135.307552 
L 746.22606 135.307552 
L 746.22606 123.491664 
L 747.97567 123.491664 
L 747.97567 121.880407 
L 749.725279 121.880407 
L 749.725279 135.039009 
L 751.474889 135.039009 
L 751.474889 141.484039 
L 753.224499 141.484039 
L 753.224499 125.102922 
L 754.974109 125.102922 
L 754.974109 140.67841 
L 756.723718 140.67841 
L 756.723718 133.696295 
L 758.473328 133.696295 
L 758.473328 144.975097 
L 760.222938 144.975097 
L 760.222938 147.391983 
L 761.972547 147.391983 
L 761.972547 144.706554 
L 763.722157 144.706554 
L 763.722157 148.197611 
L 765.471767 148.197611 
L 765.471767 151.420126 
L 767.221377 151.420126 
L 767.221377 146.317811 
L 768.970986 146.317811 
L 768.970986 155.985356 
L 770.720596 155.985356 
L 770.720596 157.32807 
L 772.470206 157.32807 
L 772.470206 154.642641 
L 774.219815 154.642641 
L 774.219815 154.911184 
L 775.969425 154.911184 
L 775.969425 160.013499 
L 777.719035 160.013499 
L 777.719035 159.476413 
L 779.468644 159.476413 
L 779.468644 170.486673 
L 781.218254 170.486673 
L 781.218254 164.578729 
L 782.967864 164.578729 
L 782.967864 168.875415 
L 784.717474 168.875415 
L 784.717474 178.811503 
L 786.467083 178.811503 
L 786.467083 172.366473 
L 788.216693 172.366473 
L 788.216693 182.034017 
L 791.715912 182.034017 
L 791.715912 173.97773 
L 793.465522 173.97773 
L 793.465522 190.358848 
L 795.215132 190.358848 
L 795.215132 187.404876 
L 796.964742 187.404876 
L 796.964742 195.729706 
L 798.714351 195.729706 
L 798.714351 189.284676 
L 800.463961 189.284676 
L 800.463961 194.655534 
L 802.213571 194.655534 
L 802.213571 205.128707 
L 803.96318 205.128707 
L 803.96318 199.757849 
L 805.71279 199.757849 
L 805.71279 204.323079 
L 807.4624 204.323079 
L 807.4624 206.739965 
L 809.212009 206.739965 
L 809.212009 214.527709 
L 810.961619 214.527709 
L 810.961619 213.990623 
L 812.711229 213.990623 
L 812.711229 220.435653 
L 814.460839 220.435653 
L 814.460839 215.333338 
L 816.210448 215.333338 
L 816.210448 225.269425 
L 817.960058 225.269425 
L 817.960058 223.658168 
L 819.709668 223.658168 
L 819.709668 229.566112 
L 821.459277 229.566112 
L 821.459277 234.399884 
L 823.208887 234.399884 
L 823.208887 231.982998 
L 824.958497 231.982998 
L 824.958497 237.353856 
L 826.708106 237.353856 
L 826.708106 238.69657 
L 828.457716 238.69657 
L 828.457716 239.233656 
L 830.207326 239.233656 
L 830.207326 243.798886 
L 831.956936 243.798886 
L 831.956936 242.187628 
L 833.706545 242.187628 
L 833.706545 244.067428 
L 835.456155 244.067428 
L 835.456155 246.215772 
L 838.955374 246.215772 
L 838.955374 246.484315 
L 847.703423 246.484315 
L 847.703423 246.484315 
" clip-path="url(#pb405f4b2a0)" style="fill: none; stroke: #ff7f0e; stroke-width: 1.5; stroke-linecap: square"/>
   </g>
  </g>
 </g>
 <defs>
  <clipPath id="pd19d64ef9b">
   <rect x="46.965625" y="22.318125" width="384.914135" height="234.84077"/>
  </clipPath>
  <clipPath id="pb405f4b2a0">
   <rect x="480.285385" y="22.318125" width="384.914135" height="234.84077"/>
  </clipPath>
 </defs>
</svg>
