<?xml version="1.0" encoding="utf-8" standalone="no"?>
<!DOCTYPE svg PUBLIC "-//W3C//DTD SVG 1.1//EN"
  "http://www.w3.org/Graphics/SVG/1.1/DTD/svg11.dtd">
<svg xmlns:xlink="http://www.w3.org/1999/xlink" width="395.328125pt" height="266.794375pt" viewBox="0 0 395.328125 266.794375" xmlns="http://www.w3.org/2000/svg" version="1.1">
 <metadata>
  <rdf:RDF xmlns:dc="http://purl.org/dc/elements/1.1/" xmlns:cc="http://creativecommons.org/ns#" xmlns:rdf="http://www.w3.org/1999/02/22-rdf-syntax-ns#">
   <cc:Work>
    <dc:type rdf:resource="http://purl.org/dc/dcmitype/StillImage"/>
    <dc:date>2026-01-15T09:10:40.774229</dc:date>
    <dc:format>image/svg+xml</dc:format>
    <dc:creator>
     <cc:Agent>
      <dc:title>Matplotlib v3.10.7, https://matplotlib.org/</dc:title>
     </cc:Agent>
    </dc:creator>
   </cc:Work>
  </rdf:RDF>
 </metadata>
 <defs>
  <style type="text/css">*{stroke-linejoin: round; stroke-linecap: butt}</style>
 </defs>
 <g id="figure_1">
  <g id="patch_1">
   <path d="M 0 266.794375 
L 395.328125 266.794375 
L 395.328125 0 
L 0 0 
z
" style="fill: #ffffff"/>
  </g>
  <g id="axes_1">
   <g id="patch_2">
    <path d="M 53.328125 228.96 
L 388.128125 228.96 
L 388.128125 7.2 
L 53.328125 7.2 
z
" style="fill: #ffffff"/>
   </g>
   <g id="matplotlib.axis_1">
    <g id="xtick_1">
     <g id="line2d_1">
      <defs>
       <path id="m5eaf5fe19c" d="M 0 0 
L 0 3.5 
" style="stroke: #000000; stroke-width: 0.8"/>
      </defs>
      <g>
       <use xlink:href="#m5eaf5fe19c" x="94.19015" y="228.96" style="stroke: #000000; stroke-width: 0.8"/>
      </g>
     </g>
     <g id="text_1">
      <!-- 20000 -->
      <g transform="translate(78.2839 243.558437) scale(0.1 -0.1)">
       <defs>
        <path id="DejaVuSans-32" d="M 1228 531 
L 3431 531 
L 3431 0 
L 469 0 
L 469 531 
Q 828 903 1448 1529 
Q 2069 2156 2228 2338 
Q 2531 2678 2651 2914 
Q 2772 3150 2772 3378 
Q 2772 3750 2511 3984 
Q 2250 4219 1831 4219 
Q 1534 4219 1204 4116 
Q 875 4013 500 3803 
L 500 4441 
Q 881 4594 1212 4672 
Q 1544 4750 1819 4750 
Q 2544 4750 2975 4387 
Q 3406 4025 3406 3419 
Q 3406 3131 3298 2873 
Q 3191 2616 2906 2266 
Q 2828 2175 2409 1742 
Q 1991 1309 1228 531 
z
" transform="scale(0.015625)"/>
        <path id="DejaVuSans-30" d="M 2034 4250 
Q 1547 4250 1301 3770 
Q 1056 3291 1056 2328 
Q 1056 1369 1301 889 
Q 1547 409 2034 409 
Q 2525 409 2770 889 
Q 3016 1369 3016 2328 
Q 3016 3291 2770 3770 
Q 2525 4250 2034 4250 
z
M 2034 4750 
Q 2819 4750 3233 4129 
Q 3647 3509 3647 2328 
Q 3647 1150 3233 529 
Q 2819 -91 2034 -91 
Q 1250 -91 836 529 
Q 422 1150 422 2328 
Q 422 3509 836 4129 
Q 1250 4750 2034 4750 
z
" transform="scale(0.015625)"/>
       </defs>
       <use xlink:href="#DejaVuSans-32"/>
       <use xlink:href="#DejaVuSans-30" transform="translate(63.623047 0)"/>
       <use xlink:href="#DejaVuSans-30" transform="translate(127.246094 0)"/>
       <use xlink:href="#DejaVuSans-30" transform="translate(190.869141 0)"/>
       <use xlink:href="#DejaVuSans-30" transform="translate(254.492188 0)"/>
      </g>
     </g>
    </g>
    <g id="xtick_2">
     <g id="line2d_2">
      <g>
       <use xlink:href="#m5eaf5fe19c" x="159.636297" y="228.96" style="stroke: #000000; stroke-width: 0.8"/>
      </g>
     </g>
     <g id="text_2">
      <!-- 30000 -->
      <g transform="translate(143.730047 243.558437) scale(0.1 -0.1)">
       <defs>
        <path id="DejaVuSans-33" d="M 2597 2516 
Q 3050 2419 3304 2112 
Q 3559 1806 3559 1356 
Q 3559 666 3084 287 
Q 2609 -91 1734 -91 
Q 1441 -91 1130 -33 
Q 819 25 488 141 
L 488 750 
Q 750 597 1062 519 
Q 1375 441 1716 441 
Q 2309 441 2620 675 
Q 2931 909 2931 1356 
Q 2931 1769 2642 2001 
Q 2353 2234 1838 2234 
L 1294 2234 
L 1294 2753 
L 1863 2753 
Q 2328 2753 2575 2939 
Q 2822 3125 2822 3475 
Q 2822 3834 2567 4026 
Q 2313 4219 1838 4219 
Q 1578 4219 1281 4162 
Q 984 4106 628 3988 
L 628 4550 
Q 988 4650 1302 4700 
Q 1616 4750 1894 4750 
Q 2613 4750 3031 4423 
Q 3450 4097 3450 3541 
Q 3450 3153 3228 2886 
Q 3006 2619 2597 2516 
z
" transform="scale(0.015625)"/>
       </defs>
       <use xlink:href="#DejaVuSans-33"/>
       <use xlink:href="#DejaVuSans-30" transform="translate(63.623047 0)"/>
       <use xlink:href="#DejaVuSans-30" transform="translate(127.246094 0)"/>
       <use xlink:href="#DejaVuSans-30" transform="translate(190.869141 0)"/>
       <use xlink:href="#DejaVuSans-30" transform="translate(254.492188 0)"/>
      </g>
     </g>
    </g>
    <g id="xtick_3">
     <g id="line2d_3">
      <g>
       <use xlink:href="#m5eaf5fe19c" x="225.082445" y="228.96" style="stroke: #000000; stroke-width: 0.8"/>
      </g>
     </g>
     <g id="text_3">
      <!-- 40000 -->
      <g transform="translate(209.176195 243.558437) scale(0.1 -0.1)">
       <defs>
        <path id="DejaVuSans-34" d="M 2419 4116 
L 825 1625 
L 2419 1625 
L 2419 4116 
z
M 2253 4666 
L 3047 4666 
L 3047 1625 
L 3713 1625 
L 3713 1100 
L 3047 1100 
L 3047 0 
L 2419 0 
L 2419 1100 
L 313 1100 
L 313 1709 
L 2253 4666 
z
" transform="scale(0.015625)"/>
       </defs>
       <use xlink:href="#DejaVuSans-34"/>
       <use xlink:href="#DejaVuSans-30" transform="translate(63.623047 0)"/>
       <use xlink:href="#DejaVuSans-30" transform="translate(127.246094 0)"/>
       <use xlink:href="#DejaVuSans-30" transform="translate(190.869141 0)"/>
       <use xlink:href="#DejaVuSans-30" transform="translate(254.492188 0)"/>
      </g>
     </g>
    </g>
    <g id="xtick_4">
     <g id="line2d_4">
      <g>
       <use xlink:href="#m5eaf5fe19c" x="290.528592" y="228.96" style="stroke: #000000; stroke-width: 0.8"/>
      </g>
     </g>
     <g id="text_4">
      <!-- 50000 -->
      <g transform="translate(274.622342 243.558437) scale(0.1 -0.1)">
       <defs>
        <path id="DejaVuSans-35" d="M 691 4666 
L 3169 4666 
L 3169 4134 
L 1269 4134 
L 1269 2991 
Q 1406 3038 1543 3061 
Q 1681 3084 1819 3084 
Q 2600 3084 3056 2656 
Q 3513 2228 3513 1497 
Q 3513 744 3044 326 
Q 2575 -91 1722 -91 
Q 1428 -91 1123 -41 
Q 819 9 494 109 
L 494 744 
Q 775 591 1075 516 
Q 1375 441 1709 441 
Q 2250 441 2565 725 
Q 2881 1009 2881 1497 
Q 2881 1984 2565 2268 
Q 2250 2553 1709 2553 
Q 1456 2553 1204 2497 
Q 953 2441 691 2322 
L 691 4666 
z
" transform="scale(0.015625)"/>
       </defs>
       <use xlink:href="#DejaVuSans-35"/>
       <use xlink:href="#DejaVuSans-30" transform="translate(63.623047 0)"/>
       <use xlink:href="#DejaVuSans-30" transform="translate(127.246094 0)"/>
       <use xlink:href="#DejaVuSans-30" transform="translate(190.869141 0)"/>
       <use xlink:href="#DejaVuSans-30" transform="translate(254.492188 0)"/>
      </g>
     </g>
    </g>
    <g id="xtick_5">
     <g id="line2d_5">
      <g>
       <use xlink:href="#m5eaf5fe19c" x="355.974739" y="228.96" style="stroke: #000000; stroke-width: 0.8"/>
      </g>
     </g>
     <g id="text_5">
      <!-- 60000 -->
      <g transform="translate(340.068489 243.558437) scale(0.1 -0.1)">
       <defs>
        <path id="DejaVuSans-36" d="M 2113 2584 
Q 1688 2584 1439 2293 
Q 1191 2003 1191 1497 
Q 1191 994 1439 701 
Q 1688 409 2113 409 
Q 2538 409 2786 701 
Q 3034 994 3034 1497 
Q 3034 2003 2786 2293 
Q 2538 2584 2113 2584 
z
M 3366 4563 
L 3366 3988 
Q 3128 4100 2886 4159 
Q 2644 4219 2406 4219 
Q 1781 4219 1451 3797 
Q 1122 3375 1075 2522 
Q 1259 2794 1537 2939 
Q 1816 3084 2150 3084 
Q 2853 3084 3261 2657 
Q 3669 2231 3669 1497 
Q 3669 778 3244 343 
Q 2819 -91 2113 -91 
Q 1303 -91 875 529 
Q 447 1150 447 2328 
Q 447 3434 972 4092 
Q 1497 4750 2381 4750 
Q 2619 4750 2861 4703 
Q 3103 4656 3366 4563 
z
" transform="scale(0.015625)"/>
       </defs>
       <use xlink:href="#DejaVuSans-36"/>
       <use xlink:href="#DejaVuSans-30" transform="translate(63.623047 0)"/>
       <use xlink:href="#DejaVuSans-30" transform="translate(127.246094 0)"/>
       <use xlink:href="#DejaVuSans-30" transform="translate(190.869141 0)"/>
       <use xlink:href="#DejaVuSans-30" transform="translate(254.492188 0)"/>
      </g>
     </g>
    </g>
    <g id="text_6">
     <!-- event_time_offset [µs] -->
     <g transform="translate(164.692969 257.236562) scale(0.1 -0.1)">
      <defs>
       <path id="DejaVuSans-65" d="M 3597 1894 
L 3597 1613 
L 953 1613 
Q 991 1019 1311 708 
Q 1631 397 2203 397 
Q 2534 397 2845 478 
Q 3156 559 3463 722 
L 3463 178 
Q 3153 47 2828 -22 
Q 2503 -91 2169 -91 
Q 1331 -91 842 396 
Q 353 884 353 1716 
Q 353 2575 817 3079 
Q 1281 3584 2069 3584 
Q 2775 3584 3186 3129 
Q 3597 2675 3597 1894 
z
M 3022 2063 
Q 3016 2534 2758 2815 
Q 2500 3097 2075 3097 
Q 1594 3097 1305 2825 
Q 1016 2553 972 2059 
L 3022 2063 
z
" transform="scale(0.015625)"/>
       <path id="DejaVuSans-76" d="M 191 3500 
L 800 3500 
L 1894 563 
L 2988 3500 
L 3597 3500 
L 2284 0 
L 1503 0 
L 191 3500 
z
" transform="scale(0.015625)"/>
       <path id="DejaVuSans-6e" d="M 3513 2113 
L 3513 0 
L 2938 0 
L 2938 2094 
Q 2938 2591 2744 2837 
Q 2550 3084 2163 3084 
Q 1697 3084 1428 2787 
Q 1159 2491 1159 1978 
L 1159 0 
L 581 0 
L 581 3500 
L 1159 3500 
L 1159 2956 
Q 1366 3272 1645 3428 
Q 1925 3584 2291 3584 
Q 2894 3584 3203 3211 
Q 3513 2838 3513 2113 
z
" transform="scale(0.015625)"/>
       <path id="DejaVuSans-74" d="M 1172 4494 
L 1172 3500 
L 2356 3500 
L 2356 3053 
L 1172 3053 
L 1172 1153 
Q 1172 725 1289 603 
Q 1406 481 1766 481 
L 2356 481 
L 2356 0 
L 1766 0 
Q 1100 0 847 248 
Q 594 497 594 1153 
L 594 3053 
L 172 3053 
L 172 3500 
L 594 3500 
L 594 4494 
L 1172 4494 
z
" transform="scale(0.015625)"/>
       <path id="DejaVuSans-5f" d="M 3263 -1063 
L 3263 -1509 
L -63 -1509 
L -63 -1063 
L 3263 -1063 
z
" transform="scale(0.015625)"/>
       <path id="DejaVuSans-69" d="M 603 3500 
L 1178 3500 
L 1178 0 
L 603 0 
L 603 3500 
z
M 603 4863 
L 1178 4863 
L 1178 4134 
L 603 4134 
L 603 4863 
z
" transform="scale(0.015625)"/>
       <path id="DejaVuSans-6d" d="M 3328 2828 
Q 3544 3216 3844 3400 
Q 4144 3584 4550 3584 
Q 5097 3584 5394 3201 
Q 5691 2819 5691 2113 
L 5691 0 
L 5113 0 
L 5113 2094 
Q 5113 2597 4934 2840 
Q 4756 3084 4391 3084 
Q 3944 3084 3684 2787 
Q 3425 2491 3425 1978 
L 3425 0 
L 2847 0 
L 2847 2094 
Q 2847 2600 2669 2842 
Q 2491 3084 2119 3084 
Q 1678 3084 1418 2786 
Q 1159 2488 1159 1978 
L 1159 0 
L 581 0 
L 581 3500 
L 1159 3500 
L 1159 2956 
Q 1356 3278 1631 3431 
Q 1906 3584 2284 3584 
Q 2666 3584 2933 3390 
Q 3200 3197 3328 2828 
z
" transform="scale(0.015625)"/>
       <path id="DejaVuSans-6f" d="M 1959 3097 
Q 1497 3097 1228 2736 
Q 959 2375 959 1747 
Q 959 1119 1226 758 
Q 1494 397 1959 397 
Q 2419 397 2687 759 
Q 2956 1122 2956 1747 
Q 2956 2369 2687 2733 
Q 2419 3097 1959 3097 
z
M 1959 3584 
Q 2709 3584 3137 3096 
Q 3566 2609 3566 1747 
Q 3566 888 3137 398 
Q 2709 -91 1959 -91 
Q 1206 -91 779 398 
Q 353 888 353 1747 
Q 353 2609 779 3096 
Q 1206 3584 1959 3584 
z
" transform="scale(0.015625)"/>
       <path id="DejaVuSans-66" d="M 2375 4863 
L 2375 4384 
L 1825 4384 
Q 1516 4384 1395 4259 
Q 1275 4134 1275 3809 
L 1275 3500 
L 2222 3500 
L 2222 3053 
L 1275 3053 
L 1275 0 
L 697 0 
L 697 3053 
L 147 3053 
L 147 3500 
L 697 3500 
L 697 3744 
Q 697 4328 969 4595 
Q 1241 4863 1831 4863 
L 2375 4863 
z
" transform="scale(0.015625)"/>
       <path id="DejaVuSans-73" d="M 2834 3397 
L 2834 2853 
Q 2591 2978 2328 3040 
Q 2066 3103 1784 3103 
Q 1356 3103 1142 2972 
Q 928 2841 928 2578 
Q 928 2378 1081 2264 
Q 1234 2150 1697 2047 
L 1894 2003 
Q 2506 1872 2764 1633 
Q 3022 1394 3022 966 
Q 3022 478 2636 193 
Q 2250 -91 1575 -91 
Q 1294 -91 989 -36 
Q 684 19 347 128 
L 347 722 
Q 666 556 975 473 
Q 1284 391 1588 391 
Q 1994 391 2212 530 
Q 2431 669 2431 922 
Q 2431 1156 2273 1281 
Q 2116 1406 1581 1522 
L 1381 1569 
Q 847 1681 609 1914 
Q 372 2147 372 2553 
Q 372 3047 722 3315 
Q 1072 3584 1716 3584 
Q 2034 3584 2315 3537 
Q 2597 3491 2834 3397 
z
" transform="scale(0.015625)"/>
       <path id="DejaVuSans-20" transform="scale(0.015625)"/>
       <path id="DejaVuSans-5b" d="M 550 4863 
L 1875 4863 
L 1875 4416 
L 1125 4416 
L 1125 -397 
L 1875 -397 
L 1875 -844 
L 550 -844 
L 550 4863 
z
" transform="scale(0.015625)"/>
       <path id="DejaVuSans-b5" d="M 544 -1331 
L 544 3500 
L 1119 3500 
L 1119 1325 
Q 1119 872 1334 640 
Q 1550 409 1972 409 
Q 2434 409 2667 671 
Q 2900 934 2900 1459 
L 2900 3500 
L 3475 3500 
L 3475 806 
Q 3475 619 3529 530 
Q 3584 441 3700 441 
Q 3728 441 3778 458 
Q 3828 475 3916 513 
L 3916 50 
Q 3788 -22 3673 -56 
Q 3559 -91 3450 -91 
Q 3234 -91 3106 31 
Q 2978 153 2931 403 
Q 2775 156 2548 32 
Q 2322 -91 2016 -91 
Q 1697 -91 1473 31 
Q 1250 153 1119 397 
L 1119 -1331 
L 544 -1331 
z
" transform="scale(0.015625)"/>
       <path id="DejaVuSans-5d" d="M 1947 4863 
L 1947 -844 
L 622 -844 
L 622 -397 
L 1369 -397 
L 1369 4416 
L 622 4416 
L 622 4863 
L 1947 4863 
z
" transform="scale(0.015625)"/>
      </defs>
      <use xlink:href="#DejaVuSans-65"/>
      <use xlink:href="#DejaVuSans-76" transform="translate(61.523438 0)"/>
      <use xlink:href="#DejaVuSans-65" transform="translate(120.703125 0)"/>
      <use xlink:href="#DejaVuSans-6e" transform="translate(182.226562 0)"/>
      <use xlink:href="#DejaVuSans-74" transform="translate(245.605469 0)"/>
      <use xlink:href="#DejaVuSans-5f" transform="translate(284.814453 0)"/>
      <use xlink:href="#DejaVuSans-74" transform="translate(334.814453 0)"/>
      <use xlink:href="#DejaVuSans-69" transform="translate(374.023438 0)"/>
      <use xlink:href="#DejaVuSans-6d" transform="translate(401.806641 0)"/>
      <use xlink:href="#DejaVuSans-65" transform="translate(499.21875 0)"/>
      <use xlink:href="#DejaVuSans-5f" transform="translate(560.742188 0)"/>
      <use xlink:href="#DejaVuSans-6f" transform="translate(610.742188 0)"/>
      <use xlink:href="#DejaVuSans-66" transform="translate(671.923828 0)"/>
      <use xlink:href="#DejaVuSans-66" transform="translate(707.128906 0)"/>
      <use xlink:href="#DejaVuSans-73" transform="translate(742.333984 0)"/>
      <use xlink:href="#DejaVuSans-65" transform="translate(794.433594 0)"/>
      <use xlink:href="#DejaVuSans-74" transform="translate(855.957031 0)"/>
      <use xlink:href="#DejaVuSans-20" transform="translate(895.166016 0)"/>
      <use xlink:href="#DejaVuSans-5b" transform="translate(926.953125 0)"/>
      <use xlink:href="#DejaVuSans-b5" transform="translate(965.966797 0)"/>
      <use xlink:href="#DejaVuSans-73" transform="translate(1029.589844 0)"/>
      <use xlink:href="#DejaVuSans-5d" transform="translate(1081.689453 0)"/>
     </g>
    </g>
   </g>
   <g id="matplotlib.axis_2">
    <g id="ytick_1">
     <g id="line2d_6">
      <defs>
       <path id="mf857f62533" d="M 0 0 
L -3.5 0 
" style="stroke: #000000; stroke-width: 0.8"/>
      </defs>
      <g>
       <use xlink:href="#mf857f62533" x="53.328125" y="218.88" style="stroke: #000000; stroke-width: 0.8"/>
      </g>
     </g>
     <g id="text_7">
      <!-- 0 -->
      <g transform="translate(39.965625 222.679219) scale(0.1 -0.1)">
       <use xlink:href="#DejaVuSans-30"/>
      </g>
     </g>
    </g>
    <g id="ytick_2">
     <g id="line2d_7">
      <g>
       <use xlink:href="#mf857f62533" x="53.328125" y="186.869838" style="stroke: #000000; stroke-width: 0.8"/>
      </g>
     </g>
     <g id="text_8">
      <!-- 500 -->
      <g transform="translate(27.240625 190.669057) scale(0.1 -0.1)">
       <use xlink:href="#DejaVuSans-35"/>
       <use xlink:href="#DejaVuSans-30" transform="translate(63.623047 0)"/>
       <use xlink:href="#DejaVuSans-30" transform="translate(127.246094 0)"/>
      </g>
     </g>
    </g>
    <g id="ytick_3">
     <g id="line2d_8">
      <g>
       <use xlink:href="#mf857f62533" x="53.328125" y="154.859676" style="stroke: #000000; stroke-width: 0.8"/>
      </g>
     </g>
     <g id="text_9">
      <!-- 1000 -->
      <g transform="translate(20.878125 158.658895) scale(0.1 -0.1)">
       <defs>
        <path id="DejaVuSans-31" d="M 794 531 
L 1825 531 
L 1825 4091 
L 703 3866 
L 703 4441 
L 1819 4666 
L 2450 4666 
L 2450 531 
L 3481 531 
L 3481 0 
L 794 0 
L 794 531 
z
" transform="scale(0.015625)"/>
       </defs>
       <use xlink:href="#DejaVuSans-31"/>
       <use xlink:href="#DejaVuSans-30" transform="translate(63.623047 0)"/>
       <use xlink:href="#DejaVuSans-30" transform="translate(127.246094 0)"/>
       <use xlink:href="#DejaVuSans-30" transform="translate(190.869141 0)"/>
      </g>
     </g>
    </g>
    <g id="ytick_4">
     <g id="line2d_9">
      <g>
       <use xlink:href="#mf857f62533" x="53.328125" y="122.849514" style="stroke: #000000; stroke-width: 0.8"/>
      </g>
     </g>
     <g id="text_10">
      <!-- 1500 -->
      <g transform="translate(20.878125 126.648733) scale(0.1 -0.1)">
       <use xlink:href="#DejaVuSans-31"/>
       <use xlink:href="#DejaVuSans-35" transform="translate(63.623047 0)"/>
       <use xlink:href="#DejaVuSans-30" transform="translate(127.246094 0)"/>
       <use xlink:href="#DejaVuSans-30" transform="translate(190.869141 0)"/>
      </g>
     </g>
    </g>
    <g id="ytick_5">
     <g id="line2d_10">
      <g>
       <use xlink:href="#mf857f62533" x="53.328125" y="90.839352" style="stroke: #000000; stroke-width: 0.8"/>
      </g>
     </g>
     <g id="text_11">
      <!-- 2000 -->
      <g transform="translate(20.878125 94.638571) scale(0.1 -0.1)">
       <use xlink:href="#DejaVuSans-32"/>
       <use xlink:href="#DejaVuSans-30" transform="translate(63.623047 0)"/>
       <use xlink:href="#DejaVuSans-30" transform="translate(127.246094 0)"/>
       <use xlink:href="#DejaVuSans-30" transform="translate(190.869141 0)"/>
      </g>
     </g>
    </g>
    <g id="ytick_6">
     <g id="line2d_11">
      <g>
       <use xlink:href="#mf857f62533" x="53.328125" y="58.82919" style="stroke: #000000; stroke-width: 0.8"/>
      </g>
     </g>
     <g id="text_12">
      <!-- 2500 -->
      <g transform="translate(20.878125 62.628409) scale(0.1 -0.1)">
       <use xlink:href="#DejaVuSans-32"/>
       <use xlink:href="#DejaVuSans-35" transform="translate(63.623047 0)"/>
       <use xlink:href="#DejaVuSans-30" transform="translate(127.246094 0)"/>
       <use xlink:href="#DejaVuSans-30" transform="translate(190.869141 0)"/>
      </g>
     </g>
    </g>
    <g id="ytick_7">
     <g id="line2d_12">
      <g>
       <use xlink:href="#mf857f62533" x="53.328125" y="26.819028" style="stroke: #000000; stroke-width: 0.8"/>
      </g>
     </g>
     <g id="text_13">
      <!-- 3000 -->
      <g transform="translate(20.878125 30.618247) scale(0.1 -0.1)">
       <use xlink:href="#DejaVuSans-33"/>
       <use xlink:href="#DejaVuSans-30" transform="translate(63.623047 0)"/>
       <use xlink:href="#DejaVuSans-30" transform="translate(127.246094 0)"/>
       <use xlink:href="#DejaVuSans-30" transform="translate(190.869141 0)"/>
      </g>
     </g>
    </g>
    <g id="text_14">
     <!-- [counts] -->
     <g transform="translate(14.798438 138.6925) rotate(-90) scale(0.1 -0.1)">
      <defs>
       <path id="DejaVuSans-63" d="M 3122 3366 
L 3122 2828 
Q 2878 2963 2633 3030 
Q 2388 3097 2138 3097 
Q 1578 3097 1268 2742 
Q 959 2388 959 1747 
Q 959 1106 1268 751 
Q 1578 397 2138 397 
Q 2388 397 2633 464 
Q 2878 531 3122 666 
L 3122 134 
Q 2881 22 2623 -34 
Q 2366 -91 2075 -91 
Q 1284 -91 818 406 
Q 353 903 353 1747 
Q 353 2603 823 3093 
Q 1294 3584 2113 3584 
Q 2378 3584 2631 3529 
Q 2884 3475 3122 3366 
z
" transform="scale(0.015625)"/>
       <path id="DejaVuSans-75" d="M 544 1381 
L 544 3500 
L 1119 3500 
L 1119 1403 
Q 1119 906 1312 657 
Q 1506 409 1894 409 
Q 2359 409 2629 706 
Q 2900 1003 2900 1516 
L 2900 3500 
L 3475 3500 
L 3475 0 
L 2900 0 
L 2900 538 
Q 2691 219 2414 64 
Q 2138 -91 1772 -91 
Q 1169 -91 856 284 
Q 544 659 544 1381 
z
M 1991 3584 
L 1991 3584 
z
" transform="scale(0.015625)"/>
      </defs>
      <use xlink:href="#DejaVuSans-5b"/>
      <use xlink:href="#DejaVuSans-63" transform="translate(39.013672 0)"/>
      <use xlink:href="#DejaVuSans-6f" transform="translate(93.994141 0)"/>
      <use xlink:href="#DejaVuSans-75" transform="translate(155.175781 0)"/>
      <use xlink:href="#DejaVuSans-6e" transform="translate(218.554688 0)"/>
      <use xlink:href="#DejaVuSans-74" transform="translate(281.933594 0)"/>
      <use xlink:href="#DejaVuSans-73" transform="translate(321.142578 0)"/>
      <use xlink:href="#DejaVuSans-5d" transform="translate(373.242188 0)"/>
     </g>
    </g>
   </g>
   <g id="line2d_13">
    <path d="M 68.546307 182.772537 
L 69.560852 182.772537 
L 69.560852 119.008295 
L 70.575398 119.008295 
L 70.575398 96.729222 
L 71.589943 96.729222 
L 71.589943 89.751007 
L 72.604489 89.751007 
L 72.604489 89.622966 
L 73.619034 89.622966 
L 73.619034 82.45269 
L 74.63358 82.45269 
L 74.63358 77.074983 
L 75.648125 77.074983 
L 75.648125 75.154373 
L 76.66267 75.154373 
L 76.66267 66.575649 
L 77.677216 66.575649 
L 77.677216 56.84456 
L 78.691761 56.84456 
L 78.691761 48.265837 
L 79.706307 48.265837 
L 79.706307 43.656373 
L 80.720852 43.656373 
L 80.720852 39.751134 
L 81.735398 39.751134 
L 81.735398 32.708898 
L 82.749943 32.708898 
L 82.749943 26.819028 
L 83.764489 26.819028 
L 83.764489 18.496386 
L 84.779034 18.496386 
L 84.779034 17.28 
L 85.79358 17.28 
L 85.79358 22.401626 
L 86.808125 22.401626 
L 86.808125 25.410581 
L 87.82267 25.410581 
L 87.82267 25.730683 
L 88.837216 25.730683 
L 88.837216 27.459232 
L 89.851761 27.459232 
L 89.851761 24.322236 
L 90.866307 24.322236 
L 90.866307 26.755008 
L 91.880852 26.755008 
L 91.880852 21.825443 
L 92.895398 21.825443 
L 92.895398 30.340146 
L 93.909943 30.340146 
L 93.909943 37.766504 
L 94.924489 37.766504 
L 94.924489 43.080191 
L 95.939034 43.080191 
L 95.939034 48.97006 
L 96.95358 48.97006 
L 96.95358 60.81382 
L 97.968125 60.81382 
L 97.968125 74.962312 
L 98.98267 74.962312 
L 98.98267 84.181238 
L 99.997216 84.181238 
L 99.997216 99.674157 
L 101.011761 99.674157 
L 101.011761 109.725348 
L 102.026307 109.725348 
L 102.026307 119.648498 
L 103.040852 119.648498 
L 103.040852 126.562693 
L 104.055398 126.562693 
L 104.055398 144.936526 
L 105.069943 144.936526 
L 105.069943 151.72268 
L 106.084489 151.72268 
L 106.084489 160.365424 
L 107.099034 160.365424 
L 107.099034 173.041448 
L 108.11358 173.041448 
L 108.11358 179.827602 
L 109.128125 179.827602 
L 109.128125 186.357675 
L 110.14267 186.357675 
L 110.14267 196.664948 
L 111.157216 196.664948 
L 111.157216 204.859549 
L 112.171761 204.859549 
L 112.171761 212.413947 
L 113.186307 212.413947 
L 113.186307 218.111756 
L 114.200852 218.111756 
L 114.200852 218.88 
L 126.375398 218.88 
L 126.375398 216.95939 
L 127.389943 216.95939 
L 127.389943 187.510041 
L 128.404489 187.510041 
L 128.404489 139.622839 
L 129.419034 139.622839 
L 129.419034 99.161994 
L 130.43358 99.161994 
L 130.43358 83.733096 
L 131.448125 83.733096 
L 131.448125 84.181238 
L 133.477216 84.117218 
L 133.477216 91.479555 
L 134.491761 91.479555 
L 134.491761 95.448815 
L 135.506307 95.448815 
L 135.506307 98.26571 
L 136.520852 98.26571 
L 136.520852 100.570441 
L 137.535398 100.570441 
L 137.535398 98.073649 
L 138.549943 98.073649 
L 138.549943 100.954563 
L 139.564489 100.954563 
L 139.564489 101.850848 
L 140.579034 101.850848 
L 140.579034 110.877714 
L 141.59358 110.877714 
L 141.59358 109.469266 
L 142.608125 109.469266 
L 142.608125 107.036494 
L 143.62267 107.036494 
L 143.62267 108.637002 
L 144.637216 108.637002 
L 144.637216 108.893084 
L 145.651761 108.893084 
L 145.651761 111.838018 
L 146.666307 111.838018 
L 146.666307 119.136335 
L 147.680852 119.136335 
L 147.680852 121.697148 
L 148.695398 121.697148 
L 148.695398 120.672823 
L 149.709943 120.672823 
L 149.709943 116.511502 
L 150.724489 116.511502 
L 150.724489 120.992925 
L 151.739034 120.992925 
L 151.739034 120.800864 
L 152.75358 120.800864 
L 152.75358 121.889209 
L 154.78267 121.889209 
L 154.78267 131.87638 
L 155.797216 131.87638 
L 155.797216 132.132461 
L 156.811761 132.132461 
L 156.811761 129.507628 
L 157.826307 129.507628 
L 157.826307 131.428238 
L 158.840852 131.428238 
L 158.840852 138.086351 
L 159.855398 138.086351 
L 159.855398 134.565233 
L 160.869943 134.565233 
L 160.869943 136.613884 
L 161.884489 136.613884 
L 161.884489 145.576729 
L 162.899034 145.576729 
L 162.899034 143.78416 
L 163.91358 143.78416 
L 163.91358 147.177237 
L 165.94267 147.241258 
L 165.94267 154.411534 
L 166.957216 154.411534 
L 166.957216 160.173363 
L 167.971761 160.173363 
L 167.971761 169.136208 
L 168.986307 169.136208 
L 168.986307 175.538241 
L 170.000852 175.538241 
L 170.000852 182.580476 
L 171.015398 182.580476 
L 171.015398 190.006834 
L 172.029943 190.006834 
L 172.029943 197.881334 
L 173.044489 197.881334 
L 173.044489 201.850594 
L 174.059034 201.850594 
L 174.059034 207.932525 
L 175.07358 207.932525 
L 175.07358 211.325602 
L 176.088125 211.325602 
L 176.088125 215.422903 
L 177.10267 215.422903 
L 177.10267 217.151451 
L 178.117216 217.151451 
L 178.117216 218.88 
L 182.175398 218.88 
L 182.175398 217.407533 
L 183.189943 217.407533 
L 183.189943 207.228301 
L 184.204489 207.228301 
L 184.204489 187.25396 
L 185.219034 187.25396 
L 185.219034 170.608676 
L 186.23358 170.608676 
L 186.23358 154.539574 
L 187.248125 154.539574 
L 187.248125 150.826396 
L 188.26267 150.826396 
L 188.26267 149.994131 
L 189.277216 149.994131 
L 189.277216 152.939066 
L 190.291761 152.939066 
L 190.291761 152.362883 
L 191.306307 152.362883 
L 191.306307 148.521664 
L 192.320852 148.521664 
L 192.320852 155.371839 
L 193.335398 155.371839 
L 193.335398 156.652245 
L 194.349943 156.652245 
L 194.349943 155.62792 
L 195.364489 155.62792 
L 195.364489 157.036367 
L 196.379034 157.036367 
L 196.379034 154.539574 
L 197.39358 154.539574 
L 197.39358 160.045322 
L 198.408125 160.045322 
L 198.408125 153.835351 
L 199.42267 153.835351 
L 199.42267 161.51779 
L 200.437216 161.51779 
L 200.437216 162.542115 
L 201.451761 162.542115 
L 201.451761 161.709851 
L 202.466307 161.709851 
L 202.466307 164.782826 
L 204.495398 164.846847 
L 204.495398 170.544655 
L 205.509943 170.544655 
L 205.509943 163.950562 
L 206.524489 163.950562 
L 206.524489 172.657326 
L 207.539034 172.657326 
L 207.539034 175.026078 
L 208.55358 175.026078 
L 208.55358 173.42557 
L 209.568125 173.42557 
L 209.568125 176.050403 
L 210.58267 176.050403 
L 210.58267 179.187399 
L 211.597216 179.187399 
L 211.597216 184.757167 
L 212.611761 184.757167 
L 212.611761 186.869838 
L 213.626307 186.869838 
L 213.626307 187.31798 
L 214.640852 187.31798 
L 214.640852 188.214265 
L 215.655398 188.214265 
L 215.655398 190.583017 
L 216.669943 190.583017 
L 216.669943 192.567647 
L 217.684489 192.567647 
L 217.684489 197.241131 
L 218.699034 197.241131 
L 218.699034 197.497212 
L 219.71358 197.497212 
L 219.71358 198.777618 
L 220.728125 198.777618 
L 220.728125 202.106675 
L 221.74267 202.106675 
L 221.74267 203.323061 
L 222.757216 203.323061 
L 222.757216 207.612423 
L 223.771761 207.612423 
L 223.771761 209.533033 
L 224.786307 209.533033 
L 224.786307 212.285907 
L 225.800852 212.285907 
L 225.800852 215.166821 
L 226.815398 215.166821 
L 226.815398 218.175776 
L 227.829943 218.175776 
L 227.829943 218.88 
L 232.90267 218.88 
L 232.90267 218.687939 
L 233.917216 218.687939 
L 233.917216 215.358882 
L 234.931761 215.358882 
L 234.931761 206.588098 
L 235.946307 206.588098 
L 235.946307 199.929984 
L 236.960852 199.929984 
L 236.960852 191.543322 
L 237.975398 191.543322 
L 237.975398 187.638082 
L 238.989943 187.638082 
L 238.989943 186.357675 
L 240.004489 186.357675 
L 240.004489 191.031159 
L 241.019034 191.031159 
L 241.019034 189.942814 
L 242.03358 189.942814 
L 242.03358 191.543322 
L 243.048125 191.543322 
L 243.048125 196.216805 
L 244.06267 196.216805 
L 244.06267 194.872379 
L 245.077216 194.872379 
L 245.077216 196.408866 
L 246.091761 196.408866 
L 246.091761 196.985049 
L 247.106307 196.985049 
L 247.106307 198.713598 
L 248.120852 198.713598 
L 248.120852 198.585557 
L 249.135398 198.585557 
L 249.135398 199.417822 
L 250.149943 199.417822 
L 250.149943 201.978634 
L 251.164489 201.978634 
L 251.164489 203.387082 
L 252.179034 203.387082 
L 252.179034 203.259041 
L 253.19358 203.259041 
L 253.19358 204.859549 
L 254.208125 204.859549 
L 254.208125 204.667488 
L 255.22267 204.667488 
L 255.22267 205.691813 
L 256.237216 205.691813 
L 256.237216 207.932525 
L 257.251761 207.932525 
L 257.251761 207.164281 
L 258.266307 207.164281 
L 258.266307 208.444687 
L 259.280852 208.444687 
L 259.280852 209.789114 
L 260.295398 209.789114 
L 260.295398 212.029825 
L 262.324489 211.965805 
L 262.324489 212.734049 
L 263.339034 212.734049 
L 263.339034 212.99013 
L 264.35358 212.99013 
L 264.35358 213.886415 
L 265.368125 213.886415 
L 265.368125 214.398577 
L 266.38267 214.398577 
L 266.38267 215.807024 
L 267.397216 215.807024 
L 267.397216 215.422903 
L 268.411761 215.422903 
L 268.411761 216.447228 
L 269.426307 216.447228 
L 269.426307 217.087431 
L 270.440852 217.087431 
L 270.440852 216.95939 
L 271.455398 216.95939 
L 271.455398 217.599594 
L 272.469943 217.599594 
L 272.469943 218.495878 
L 274.499034 218.559898 
L 274.499034 218.88 
L 280.586307 218.88 
L 280.586307 217.727634 
L 281.600852 217.727634 
L 281.600852 213.566313 
L 282.615398 213.566313 
L 282.615398 210.87746 
L 283.629943 210.87746 
L 283.629943 206.908199 
L 284.644489 206.908199 
L 284.644489 203.451102 
L 285.659034 203.451102 
L 285.659034 203.06698 
L 286.67358 203.06698 
L 286.67358 207.03624 
L 288.70267 207.03624 
L 288.70267 206.139956 
L 289.717216 206.139956 
L 289.717216 206.524077 
L 290.731761 206.524077 
L 290.731761 208.892829 
L 291.746307 208.892829 
L 291.746307 206.780159 
L 292.760852 206.780159 
L 292.760852 209.597053 
L 293.775398 209.597053 
L 293.775398 209.789114 
L 294.789943 209.789114 
L 294.789943 210.429317 
L 295.804489 210.429317 
L 295.804489 211.06952 
L 296.819034 211.06952 
L 296.819034 210.301277 
L 298.848125 210.365297 
L 298.848125 211.325602 
L 299.86267 211.325602 
L 299.86267 211.837764 
L 300.877216 211.837764 
L 300.877216 213.438272 
L 301.891761 213.438272 
L 301.891761 213.182191 
L 302.906307 213.182191 
L 302.906307 213.630333 
L 303.920852 213.630333 
L 303.920852 215.038781 
L 304.935398 215.038781 
L 304.935398 214.84672 
L 305.949943 214.84672 
L 305.949943 215.550943 
L 306.964489 215.550943 
L 306.964489 215.358882 
L 307.979034 215.358882 
L 307.979034 215.486923 
L 308.99358 215.486923 
L 308.99358 216.639289 
L 310.008125 216.639289 
L 310.008125 216.255167 
L 311.02267 216.255167 
L 311.02267 216.575268 
L 312.037216 216.575268 
L 312.037216 216.95939 
L 313.051761 216.95939 
L 313.051761 217.663614 
L 314.066307 217.663614 
L 314.066307 218.047736 
L 316.095398 218.047736 
L 316.095398 218.431858 
L 317.109943 218.431858 
L 317.109943 218.623919 
L 319.139034 218.687939 
L 319.139034 218.88 
L 327.255398 218.88 
L 327.255398 218.559898 
L 328.269943 218.559898 
L 328.269943 218.431858 
L 329.284489 218.431858 
L 329.284489 216.511248 
L 330.299034 216.511248 
L 330.299034 214.078476 
L 331.31358 214.078476 
L 331.31358 211.389622 
L 332.328125 211.389622 
L 332.328125 209.789114 
L 333.34267 209.789114 
L 333.34267 205.755834 
L 334.357216 205.755834 
L 334.357216 202.298736 
L 335.371761 202.298736 
L 335.371761 202.874919 
L 336.386307 202.874919 
L 336.386307 204.283366 
L 337.400852 204.283366 
L 337.400852 202.938939 
L 338.415398 202.938939 
L 338.415398 203.643163 
L 341.459034 203.579143 
L 341.459034 203.131 
L 342.47358 203.131 
L 342.47358 202.362756 
L 343.488125 202.362756 
L 343.488125 203.00296 
L 344.50267 203.00296 
L 344.50267 202.618838 
L 345.517216 202.618838 
L 345.517216 204.475427 
L 346.531761 204.475427 
L 346.531761 203.899244 
L 347.546307 203.899244 
L 347.546307 204.795529 
L 348.560852 204.795529 
L 348.560852 205.947895 
L 349.575398 205.947895 
L 349.575398 205.243671 
L 350.589943 205.243671 
L 350.589943 204.731508 
L 351.604489 204.731508 
L 351.604489 206.267996 
L 352.619034 206.267996 
L 352.619034 208.764789 
L 353.63358 208.764789 
L 353.63358 206.460057 
L 354.648125 206.460057 
L 354.648125 207.676443 
L 355.66267 207.676443 
L 355.66267 207.548403 
L 356.677216 207.548403 
L 356.677216 208.636748 
L 357.691761 208.636748 
L 357.691761 208.188606 
L 358.706307 208.188606 
L 358.706307 209.597053 
L 359.720852 209.597053 
L 359.720852 210.109216 
L 360.735398 210.109216 
L 360.735398 211.261581 
L 361.749943 211.261581 
L 361.749943 211.837764 
L 362.764489 211.837764 
L 362.764489 212.477968 
L 363.779034 212.477968 
L 363.779034 212.093846 
L 364.79358 212.093846 
L 364.79358 214.718679 
L 365.808125 214.718679 
L 365.808125 213.886415 
L 366.82267 213.886415 
L 366.82267 214.142496 
L 367.837216 214.142496 
L 367.837216 215.102801 
L 368.851761 215.102801 
L 368.851761 215.358882 
L 369.866307 215.358882 
L 369.866307 216.255167 
L 370.880852 216.255167 
L 370.880852 217.407533 
L 371.895398 217.407533 
L 371.895398 218.495878 
L 372.909943 218.495878 
L 372.909943 218.495878 
" clip-path="url(#pbc5155d35a)" style="fill: none; stroke: #1f77b4; stroke-width: 1.5; stroke-linecap: square"/>
   </g>
   <g id="patch_3">
    <path d="M 53.328125 228.96 
L 53.328125 7.2 
" style="fill: none; stroke: #000000; stroke-width: 0.8; stroke-linejoin: miter; stroke-linecap: square"/>
   </g>
   <g id="patch_4">
    <path d="M 388.128125 228.96 
L 388.128125 7.2 
" style="fill: none; stroke: #000000; stroke-width: 0.8; stroke-linejoin: miter; stroke-linecap: square"/>
   </g>
   <g id="patch_5">
    <path d="M 53.328125 228.96 
L 388.128125 228.96 
" style="fill: none; stroke: #000000; stroke-width: 0.8; stroke-linejoin: miter; stroke-linecap: square"/>
   </g>
   <g id="patch_6">
    <path d="M 53.328125 7.2 
L 388.128125 7.2 
" style="fill: none; stroke: #000000; stroke-width: 0.8; stroke-linejoin: miter; stroke-linecap: square"/>
   </g>
  </g>
 </g>
 <defs>
  <clipPath id="pbc5155d35a">
   <rect x="53.328125" y="7.2" width="334.8" height="221.76"/>
  </clipPath>
 </defs>
</svg>
