<?xml version="1.0" encoding="utf-8" standalone="no"?>
<!DOCTYPE svg PUBLIC "-//W3C//DTD SVG 1.1//EN"
  "http://www.w3.org/Graphics/SVG/1.1/DTD/svg11.dtd">
<svg xmlns:xlink="http://www.w3.org/1999/xlink" width="395.328125pt" height="266.51625pt" viewBox="0 0 395.328125 266.51625" xmlns="http://www.w3.org/2000/svg" version="1.1">
 <metadata>
  <rdf:RDF xmlns:dc="http://purl.org/dc/elements/1.1/" xmlns:cc="http://creativecommons.org/ns#" xmlns:rdf="http://www.w3.org/1999/02/22-rdf-syntax-ns#">
   <cc:Work>
    <dc:type rdf:resource="http://purl.org/dc/dcmitype/StillImage"/>
    <dc:date>2025-03-02T06:37:28.603539</dc:date>
    <dc:format>image/svg+xml</dc:format>
    <dc:creator>
     <cc:Agent>
      <dc:title>Matplotlib v3.10.0, https://matplotlib.org/</dc:title>
     </cc:Agent>
    </dc:creator>
   </cc:Work>
  </rdf:RDF>
 </metadata>
 <defs>
  <style type="text/css">*{stroke-linejoin: round; stroke-linecap: butt}</style>
 </defs>
 <g id="figure_1">
  <g id="patch_1">
   <path d="M 0 266.51625 
L 395.328125 266.51625 
L 395.328125 0 
L 0 0 
z
" style="fill: #ffffff"/>
  </g>
  <g id="axes_1">
   <g id="patch_2">
    <path d="M 53.328125 228.96 
L 388.128125 228.96 
L 388.128125 7.2 
L 53.328125 7.2 
z
" style="fill: #ffffff"/>
   </g>
   <g id="matplotlib.axis_1">
    <g id="xtick_1">
     <g id="line2d_1">
      <defs>
       <path id="m3f50fdbcfc" d="M 0 0 
L 0 3.5 
" style="stroke: #000000; stroke-width: 0.8"/>
      </defs>
      <g>
       <use xlink:href="#m3f50fdbcfc" x="109.995165" y="228.96" style="stroke: #000000; stroke-width: 0.8"/>
      </g>
     </g>
     <g id="text_1">
      <!-- 20000 -->
      <g transform="translate(94.088915 243.558438) scale(0.1 -0.1)">
       <defs>
        <path id="DejaVuSans-32" d="M 1228 531 
L 3431 531 
L 3431 0 
L 469 0 
L 469 531 
Q 828 903 1448 1529 
Q 2069 2156 2228 2338 
Q 2531 2678 2651 2914 
Q 2772 3150 2772 3378 
Q 2772 3750 2511 3984 
Q 2250 4219 1831 4219 
Q 1534 4219 1204 4116 
Q 875 4013 500 3803 
L 500 4441 
Q 881 4594 1212 4672 
Q 1544 4750 1819 4750 
Q 2544 4750 2975 4387 
Q 3406 4025 3406 3419 
Q 3406 3131 3298 2873 
Q 3191 2616 2906 2266 
Q 2828 2175 2409 1742 
Q 1991 1309 1228 531 
z
" transform="scale(0.015625)"/>
        <path id="DejaVuSans-30" d="M 2034 4250 
Q 1547 4250 1301 3770 
Q 1056 3291 1056 2328 
Q 1056 1369 1301 889 
Q 1547 409 2034 409 
Q 2525 409 2770 889 
Q 3016 1369 3016 2328 
Q 3016 3291 2770 3770 
Q 2525 4250 2034 4250 
z
M 2034 4750 
Q 2819 4750 3233 4129 
Q 3647 3509 3647 2328 
Q 3647 1150 3233 529 
Q 2819 -91 2034 -91 
Q 1250 -91 836 529 
Q 422 1150 422 2328 
Q 422 3509 836 4129 
Q 1250 4750 2034 4750 
z
" transform="scale(0.015625)"/>
       </defs>
       <use xlink:href="#DejaVuSans-32"/>
       <use xlink:href="#DejaVuSans-30" transform="translate(63.623047 0)"/>
       <use xlink:href="#DejaVuSans-30" transform="translate(127.246094 0)"/>
       <use xlink:href="#DejaVuSans-30" transform="translate(190.869141 0)"/>
       <use xlink:href="#DejaVuSans-30" transform="translate(254.492188 0)"/>
      </g>
     </g>
    </g>
    <g id="xtick_2">
     <g id="line2d_2">
      <g>
       <use xlink:href="#m3f50fdbcfc" x="172.421093" y="228.96" style="stroke: #000000; stroke-width: 0.8"/>
      </g>
     </g>
     <g id="text_2">
      <!-- 30000 -->
      <g transform="translate(156.514843 243.558438) scale(0.1 -0.1)">
       <defs>
        <path id="DejaVuSans-33" d="M 2597 2516 
Q 3050 2419 3304 2112 
Q 3559 1806 3559 1356 
Q 3559 666 3084 287 
Q 2609 -91 1734 -91 
Q 1441 -91 1130 -33 
Q 819 25 488 141 
L 488 750 
Q 750 597 1062 519 
Q 1375 441 1716 441 
Q 2309 441 2620 675 
Q 2931 909 2931 1356 
Q 2931 1769 2642 2001 
Q 2353 2234 1838 2234 
L 1294 2234 
L 1294 2753 
L 1863 2753 
Q 2328 2753 2575 2939 
Q 2822 3125 2822 3475 
Q 2822 3834 2567 4026 
Q 2313 4219 1838 4219 
Q 1578 4219 1281 4162 
Q 984 4106 628 3988 
L 628 4550 
Q 988 4650 1302 4700 
Q 1616 4750 1894 4750 
Q 2613 4750 3031 4423 
Q 3450 4097 3450 3541 
Q 3450 3153 3228 2886 
Q 3006 2619 2597 2516 
z
" transform="scale(0.015625)"/>
       </defs>
       <use xlink:href="#DejaVuSans-33"/>
       <use xlink:href="#DejaVuSans-30" transform="translate(63.623047 0)"/>
       <use xlink:href="#DejaVuSans-30" transform="translate(127.246094 0)"/>
       <use xlink:href="#DejaVuSans-30" transform="translate(190.869141 0)"/>
       <use xlink:href="#DejaVuSans-30" transform="translate(254.492188 0)"/>
      </g>
     </g>
    </g>
    <g id="xtick_3">
     <g id="line2d_3">
      <g>
       <use xlink:href="#m3f50fdbcfc" x="234.84702" y="228.96" style="stroke: #000000; stroke-width: 0.8"/>
      </g>
     </g>
     <g id="text_3">
      <!-- 40000 -->
      <g transform="translate(218.94077 243.558438) scale(0.1 -0.1)">
       <defs>
        <path id="DejaVuSans-34" d="M 2419 4116 
L 825 1625 
L 2419 1625 
L 2419 4116 
z
M 2253 4666 
L 3047 4666 
L 3047 1625 
L 3713 1625 
L 3713 1100 
L 3047 1100 
L 3047 0 
L 2419 0 
L 2419 1100 
L 313 1100 
L 313 1709 
L 2253 4666 
z
" transform="scale(0.015625)"/>
       </defs>
       <use xlink:href="#DejaVuSans-34"/>
       <use xlink:href="#DejaVuSans-30" transform="translate(63.623047 0)"/>
       <use xlink:href="#DejaVuSans-30" transform="translate(127.246094 0)"/>
       <use xlink:href="#DejaVuSans-30" transform="translate(190.869141 0)"/>
       <use xlink:href="#DejaVuSans-30" transform="translate(254.492188 0)"/>
      </g>
     </g>
    </g>
    <g id="xtick_4">
     <g id="line2d_4">
      <g>
       <use xlink:href="#m3f50fdbcfc" x="297.272947" y="228.96" style="stroke: #000000; stroke-width: 0.8"/>
      </g>
     </g>
     <g id="text_4">
      <!-- 50000 -->
      <g transform="translate(281.366697 243.558438) scale(0.1 -0.1)">
       <defs>
        <path id="DejaVuSans-35" d="M 691 4666 
L 3169 4666 
L 3169 4134 
L 1269 4134 
L 1269 2991 
Q 1406 3038 1543 3061 
Q 1681 3084 1819 3084 
Q 2600 3084 3056 2656 
Q 3513 2228 3513 1497 
Q 3513 744 3044 326 
Q 2575 -91 1722 -91 
Q 1428 -91 1123 -41 
Q 819 9 494 109 
L 494 744 
Q 775 591 1075 516 
Q 1375 441 1709 441 
Q 2250 441 2565 725 
Q 2881 1009 2881 1497 
Q 2881 1984 2565 2268 
Q 2250 2553 1709 2553 
Q 1456 2553 1204 2497 
Q 953 2441 691 2322 
L 691 4666 
z
" transform="scale(0.015625)"/>
       </defs>
       <use xlink:href="#DejaVuSans-35"/>
       <use xlink:href="#DejaVuSans-30" transform="translate(63.623047 0)"/>
       <use xlink:href="#DejaVuSans-30" transform="translate(127.246094 0)"/>
       <use xlink:href="#DejaVuSans-30" transform="translate(190.869141 0)"/>
       <use xlink:href="#DejaVuSans-30" transform="translate(254.492188 0)"/>
      </g>
     </g>
    </g>
    <g id="xtick_5">
     <g id="line2d_5">
      <g>
       <use xlink:href="#m3f50fdbcfc" x="359.698874" y="228.96" style="stroke: #000000; stroke-width: 0.8"/>
      </g>
     </g>
     <g id="text_5">
      <!-- 60000 -->
      <g transform="translate(343.792624 243.558438) scale(0.1 -0.1)">
       <defs>
        <path id="DejaVuSans-36" d="M 2113 2584 
Q 1688 2584 1439 2293 
Q 1191 2003 1191 1497 
Q 1191 994 1439 701 
Q 1688 409 2113 409 
Q 2538 409 2786 701 
Q 3034 994 3034 1497 
Q 3034 2003 2786 2293 
Q 2538 2584 2113 2584 
z
M 3366 4563 
L 3366 3988 
Q 3128 4100 2886 4159 
Q 2644 4219 2406 4219 
Q 1781 4219 1451 3797 
Q 1122 3375 1075 2522 
Q 1259 2794 1537 2939 
Q 1816 3084 2150 3084 
Q 2853 3084 3261 2657 
Q 3669 2231 3669 1497 
Q 3669 778 3244 343 
Q 2819 -91 2113 -91 
Q 1303 -91 875 529 
Q 447 1150 447 2328 
Q 447 3434 972 4092 
Q 1497 4750 2381 4750 
Q 2619 4750 2861 4703 
Q 3103 4656 3366 4563 
z
" transform="scale(0.015625)"/>
       </defs>
       <use xlink:href="#DejaVuSans-36"/>
       <use xlink:href="#DejaVuSans-30" transform="translate(63.623047 0)"/>
       <use xlink:href="#DejaVuSans-30" transform="translate(127.246094 0)"/>
       <use xlink:href="#DejaVuSans-30" transform="translate(190.869141 0)"/>
       <use xlink:href="#DejaVuSans-30" transform="translate(254.492188 0)"/>
      </g>
     </g>
    </g>
    <g id="text_6">
     <!-- tof [µs] -->
     <g transform="translate(202.671875 257.236562) scale(0.1 -0.1)">
      <defs>
       <path id="DejaVuSans-74" d="M 1172 4494 
L 1172 3500 
L 2356 3500 
L 2356 3053 
L 1172 3053 
L 1172 1153 
Q 1172 725 1289 603 
Q 1406 481 1766 481 
L 2356 481 
L 2356 0 
L 1766 0 
Q 1100 0 847 248 
Q 594 497 594 1153 
L 594 3053 
L 172 3053 
L 172 3500 
L 594 3500 
L 594 4494 
L 1172 4494 
z
" transform="scale(0.015625)"/>
       <path id="DejaVuSans-6f" d="M 1959 3097 
Q 1497 3097 1228 2736 
Q 959 2375 959 1747 
Q 959 1119 1226 758 
Q 1494 397 1959 397 
Q 2419 397 2687 759 
Q 2956 1122 2956 1747 
Q 2956 2369 2687 2733 
Q 2419 3097 1959 3097 
z
M 1959 3584 
Q 2709 3584 3137 3096 
Q 3566 2609 3566 1747 
Q 3566 888 3137 398 
Q 2709 -91 1959 -91 
Q 1206 -91 779 398 
Q 353 888 353 1747 
Q 353 2609 779 3096 
Q 1206 3584 1959 3584 
z
" transform="scale(0.015625)"/>
       <path id="DejaVuSans-66" d="M 2375 4863 
L 2375 4384 
L 1825 4384 
Q 1516 4384 1395 4259 
Q 1275 4134 1275 3809 
L 1275 3500 
L 2222 3500 
L 2222 3053 
L 1275 3053 
L 1275 0 
L 697 0 
L 697 3053 
L 147 3053 
L 147 3500 
L 697 3500 
L 697 3744 
Q 697 4328 969 4595 
Q 1241 4863 1831 4863 
L 2375 4863 
z
" transform="scale(0.015625)"/>
       <path id="DejaVuSans-20" transform="scale(0.015625)"/>
       <path id="DejaVuSans-5b" d="M 550 4863 
L 1875 4863 
L 1875 4416 
L 1125 4416 
L 1125 -397 
L 1875 -397 
L 1875 -844 
L 550 -844 
L 550 4863 
z
" transform="scale(0.015625)"/>
       <path id="DejaVuSans-b5" d="M 544 -1331 
L 544 3500 
L 1119 3500 
L 1119 1325 
Q 1119 872 1334 640 
Q 1550 409 1972 409 
Q 2434 409 2667 671 
Q 2900 934 2900 1459 
L 2900 3500 
L 3475 3500 
L 3475 806 
Q 3475 619 3529 530 
Q 3584 441 3700 441 
Q 3728 441 3778 458 
Q 3828 475 3916 513 
L 3916 50 
Q 3788 -22 3673 -56 
Q 3559 -91 3450 -91 
Q 3234 -91 3106 31 
Q 2978 153 2931 403 
Q 2775 156 2548 32 
Q 2322 -91 2016 -91 
Q 1697 -91 1473 31 
Q 1250 153 1119 397 
L 1119 -1331 
L 544 -1331 
z
" transform="scale(0.015625)"/>
       <path id="DejaVuSans-73" d="M 2834 3397 
L 2834 2853 
Q 2591 2978 2328 3040 
Q 2066 3103 1784 3103 
Q 1356 3103 1142 2972 
Q 928 2841 928 2578 
Q 928 2378 1081 2264 
Q 1234 2150 1697 2047 
L 1894 2003 
Q 2506 1872 2764 1633 
Q 3022 1394 3022 966 
Q 3022 478 2636 193 
Q 2250 -91 1575 -91 
Q 1294 -91 989 -36 
Q 684 19 347 128 
L 347 722 
Q 666 556 975 473 
Q 1284 391 1588 391 
Q 1994 391 2212 530 
Q 2431 669 2431 922 
Q 2431 1156 2273 1281 
Q 2116 1406 1581 1522 
L 1381 1569 
Q 847 1681 609 1914 
Q 372 2147 372 2553 
Q 372 3047 722 3315 
Q 1072 3584 1716 3584 
Q 2034 3584 2315 3537 
Q 2597 3491 2834 3397 
z
" transform="scale(0.015625)"/>
       <path id="DejaVuSans-5d" d="M 1947 4863 
L 1947 -844 
L 622 -844 
L 622 -397 
L 1369 -397 
L 1369 4416 
L 622 4416 
L 622 4863 
L 1947 4863 
z
" transform="scale(0.015625)"/>
      </defs>
      <use xlink:href="#DejaVuSans-74"/>
      <use xlink:href="#DejaVuSans-6f" transform="translate(39.208984 0)"/>
      <use xlink:href="#DejaVuSans-66" transform="translate(100.390625 0)"/>
      <use xlink:href="#DejaVuSans-20" transform="translate(135.595703 0)"/>
      <use xlink:href="#DejaVuSans-5b" transform="translate(167.382812 0)"/>
      <use xlink:href="#DejaVuSans-b5" transform="translate(206.396484 0)"/>
      <use xlink:href="#DejaVuSans-73" transform="translate(270.019531 0)"/>
      <use xlink:href="#DejaVuSans-5d" transform="translate(322.119141 0)"/>
     </g>
    </g>
   </g>
   <g id="matplotlib.axis_2">
    <g id="ytick_1">
     <g id="line2d_6">
      <defs>
       <path id="mf1db0a4f3d" d="M 0 0 
L -3.5 0 
" style="stroke: #000000; stroke-width: 0.8"/>
      </defs>
      <g>
       <use xlink:href="#mf1db0a4f3d" x="53.328125" y="219.861818" style="stroke: #000000; stroke-width: 0.8"/>
      </g>
     </g>
     <g id="text_7">
      <!-- 0 -->
      <g transform="translate(39.965625 223.661037) scale(0.1 -0.1)">
       <use xlink:href="#DejaVuSans-30"/>
      </g>
     </g>
    </g>
    <g id="ytick_2">
     <g id="line2d_7">
      <g>
       <use xlink:href="#mf1db0a4f3d" x="53.328125" y="178.952727" style="stroke: #000000; stroke-width: 0.8"/>
      </g>
     </g>
     <g id="text_8">
      <!-- 500 -->
      <g transform="translate(27.240625 182.751946) scale(0.1 -0.1)">
       <use xlink:href="#DejaVuSans-35"/>
       <use xlink:href="#DejaVuSans-30" transform="translate(63.623047 0)"/>
       <use xlink:href="#DejaVuSans-30" transform="translate(127.246094 0)"/>
      </g>
     </g>
    </g>
    <g id="ytick_3">
     <g id="line2d_8">
      <g>
       <use xlink:href="#mf1db0a4f3d" x="53.328125" y="138.043636" style="stroke: #000000; stroke-width: 0.8"/>
      </g>
     </g>
     <g id="text_9">
      <!-- 1000 -->
      <g transform="translate(20.878125 141.842855) scale(0.1 -0.1)">
       <defs>
        <path id="DejaVuSans-31" d="M 794 531 
L 1825 531 
L 1825 4091 
L 703 3866 
L 703 4441 
L 1819 4666 
L 2450 4666 
L 2450 531 
L 3481 531 
L 3481 0 
L 794 0 
L 794 531 
z
" transform="scale(0.015625)"/>
       </defs>
       <use xlink:href="#DejaVuSans-31"/>
       <use xlink:href="#DejaVuSans-30" transform="translate(63.623047 0)"/>
       <use xlink:href="#DejaVuSans-30" transform="translate(127.246094 0)"/>
       <use xlink:href="#DejaVuSans-30" transform="translate(190.869141 0)"/>
      </g>
     </g>
    </g>
    <g id="ytick_4">
     <g id="line2d_9">
      <g>
       <use xlink:href="#mf1db0a4f3d" x="53.328125" y="97.134545" style="stroke: #000000; stroke-width: 0.8"/>
      </g>
     </g>
     <g id="text_10">
      <!-- 1500 -->
      <g transform="translate(20.878125 100.933764) scale(0.1 -0.1)">
       <use xlink:href="#DejaVuSans-31"/>
       <use xlink:href="#DejaVuSans-35" transform="translate(63.623047 0)"/>
       <use xlink:href="#DejaVuSans-30" transform="translate(127.246094 0)"/>
       <use xlink:href="#DejaVuSans-30" transform="translate(190.869141 0)"/>
      </g>
     </g>
    </g>
    <g id="ytick_5">
     <g id="line2d_10">
      <g>
       <use xlink:href="#mf1db0a4f3d" x="53.328125" y="56.225455" style="stroke: #000000; stroke-width: 0.8"/>
      </g>
     </g>
     <g id="text_11">
      <!-- 2000 -->
      <g transform="translate(20.878125 60.024673) scale(0.1 -0.1)">
       <use xlink:href="#DejaVuSans-32"/>
       <use xlink:href="#DejaVuSans-30" transform="translate(63.623047 0)"/>
       <use xlink:href="#DejaVuSans-30" transform="translate(127.246094 0)"/>
       <use xlink:href="#DejaVuSans-30" transform="translate(190.869141 0)"/>
      </g>
     </g>
    </g>
    <g id="ytick_6">
     <g id="line2d_11">
      <g>
       <use xlink:href="#mf1db0a4f3d" x="53.328125" y="15.316364" style="stroke: #000000; stroke-width: 0.8"/>
      </g>
     </g>
     <g id="text_12">
      <!-- 2500 -->
      <g transform="translate(20.878125 19.115582) scale(0.1 -0.1)">
       <use xlink:href="#DejaVuSans-32"/>
       <use xlink:href="#DejaVuSans-35" transform="translate(63.623047 0)"/>
       <use xlink:href="#DejaVuSans-30" transform="translate(127.246094 0)"/>
       <use xlink:href="#DejaVuSans-30" transform="translate(190.869141 0)"/>
      </g>
     </g>
    </g>
    <g id="text_13">
     <!-- [counts] -->
     <g transform="translate(14.798438 138.6925) rotate(-90) scale(0.1 -0.1)">
      <defs>
       <path id="DejaVuSans-63" d="M 3122 3366 
L 3122 2828 
Q 2878 2963 2633 3030 
Q 2388 3097 2138 3097 
Q 1578 3097 1268 2742 
Q 959 2388 959 1747 
Q 959 1106 1268 751 
Q 1578 397 2138 397 
Q 2388 397 2633 464 
Q 2878 531 3122 666 
L 3122 134 
Q 2881 22 2623 -34 
Q 2366 -91 2075 -91 
Q 1284 -91 818 406 
Q 353 903 353 1747 
Q 353 2603 823 3093 
Q 1294 3584 2113 3584 
Q 2378 3584 2631 3529 
Q 2884 3475 3122 3366 
z
" transform="scale(0.015625)"/>
       <path id="DejaVuSans-75" d="M 544 1381 
L 544 3500 
L 1119 3500 
L 1119 1403 
Q 1119 906 1312 657 
Q 1506 409 1894 409 
Q 2359 409 2629 706 
Q 2900 1003 2900 1516 
L 2900 3500 
L 3475 3500 
L 3475 0 
L 2900 0 
L 2900 538 
Q 2691 219 2414 64 
Q 2138 -91 1772 -91 
Q 1169 -91 856 284 
Q 544 659 544 1381 
z
M 1991 3584 
L 1991 3584 
z
" transform="scale(0.015625)"/>
       <path id="DejaVuSans-6e" d="M 3513 2113 
L 3513 0 
L 2938 0 
L 2938 2094 
Q 2938 2591 2744 2837 
Q 2550 3084 2163 3084 
Q 1697 3084 1428 2787 
Q 1159 2491 1159 1978 
L 1159 0 
L 581 0 
L 581 3500 
L 1159 3500 
L 1159 2956 
Q 1366 3272 1645 3428 
Q 1925 3584 2291 3584 
Q 2894 3584 3203 3211 
Q 3513 2838 3513 2113 
z
" transform="scale(0.015625)"/>
      </defs>
      <use xlink:href="#DejaVuSans-5b"/>
      <use xlink:href="#DejaVuSans-63" transform="translate(39.013672 0)"/>
      <use xlink:href="#DejaVuSans-6f" transform="translate(93.994141 0)"/>
      <use xlink:href="#DejaVuSans-75" transform="translate(155.175781 0)"/>
      <use xlink:href="#DejaVuSans-6e" transform="translate(218.554688 0)"/>
      <use xlink:href="#DejaVuSans-74" transform="translate(281.933594 0)"/>
      <use xlink:href="#DejaVuSans-73" transform="translate(321.142578 0)"/>
      <use xlink:href="#DejaVuSans-5d" transform="translate(373.242188 0)"/>
     </g>
    </g>
   </g>
   <g id="patch_3">
    <path d="M 53.328125 228.96 
L 53.328125 7.2 
" style="fill: none; stroke: #000000; stroke-width: 0.8; stroke-linejoin: miter; stroke-linecap: square"/>
   </g>
   <g id="patch_4">
    <path d="M 388.128125 228.96 
L 388.128125 7.2 
" style="fill: none; stroke: #000000; stroke-width: 0.8; stroke-linejoin: miter; stroke-linecap: square"/>
   </g>
   <g id="patch_5">
    <path d="M 53.328125 228.96 
L 388.128125 228.96 
" style="fill: none; stroke: #000000; stroke-width: 0.8; stroke-linejoin: miter; stroke-linecap: square"/>
   </g>
   <g id="patch_6">
    <path d="M 53.328125 7.2 
L 388.128125 7.2 
" style="fill: none; stroke: #000000; stroke-width: 0.8; stroke-linejoin: miter; stroke-linecap: square"/>
   </g>
   <g id="line2d_12">
    <path d="M 68.546307 192.698182 
L 69.560852 192.698182 
L 69.560852 151.134545 
L 70.575398 151.134545 
L 70.575398 106.625455 
L 71.589943 106.625455 
L 71.589943 97.298182 
L 72.604489 97.298182 
L 72.604489 90.834545 
L 73.619034 90.834545 
L 73.619034 86.252727 
L 74.63358 86.252727 
L 74.63358 90.670909 
L 75.648125 90.670909 
L 75.648125 87.725455 
L 76.66267 87.725455 
L 76.66267 84.043636 
L 77.677216 84.043636 
L 77.677216 77.170909 
L 78.691761 77.170909 
L 78.691761 71.852727 
L 79.706307 71.852727 
L 79.706307 67.843636 
L 80.720852 67.843636 
L 80.720852 60.561818 
L 81.735398 60.561818 
L 81.735398 54.752727 
L 82.749943 54.752727 
L 82.749943 52.216364 
L 83.764489 52.216364 
L 83.764489 43.38 
L 84.779034 43.38 
L 84.779034 37.652727 
L 85.79358 37.652727 
L 85.79358 38.552727 
L 86.808125 38.552727 
L 86.808125 36.261818 
L 87.82267 36.261818 
L 87.82267 20.798182 
L 88.837216 20.798182 
L 88.837216 26.525455 
L 89.851761 26.525455 
L 89.851761 17.28 
L 90.866307 17.28 
L 90.866307 23.661818 
L 91.880852 23.661818 
L 91.880852 30.943636 
L 92.895398 30.943636 
L 92.895398 20.389091 
L 93.909943 20.389091 
L 93.909943 33.316364 
L 94.924489 33.316364 
L 94.924489 27.589091 
L 95.939034 27.589091 
L 95.939034 28.98 
L 96.95358 28.98 
L 96.95358 23.416364 
L 97.968125 23.416364 
L 97.968125 36.589091 
L 98.98267 36.589091 
L 98.98267 36.998182 
L 99.997216 36.998182 
L 99.997216 37.816364 
L 101.011761 37.816364 
L 101.011761 41.089091 
L 102.026307 41.089091 
L 102.026307 44.770909 
L 103.040852 44.770909 
L 103.040852 42.970909 
L 104.055398 42.970909 
L 104.055398 60.643636 
L 105.069943 60.643636 
L 105.069943 69.807273 
L 106.084489 69.807273 
L 106.084489 70.870909 
L 107.099034 70.870909 
L 107.099034 90.18 
L 108.11358 90.18 
L 108.11358 90.670909 
L 109.128125 90.670909 
L 109.128125 99.425455 
L 110.14267 99.425455 
L 110.14267 109.652727 
L 111.157216 109.652727 
L 111.157216 117.670909 
L 112.171761 117.670909 
L 112.171761 126.425455 
L 113.186307 126.425455 
L 113.186307 131.007273 
L 114.200852 131.007273 
L 114.200852 138.943636 
L 115.215398 138.943636 
L 115.215398 144.261818 
L 116.229943 144.261818 
L 116.229943 151.298182 
L 117.244489 151.298182 
L 117.244489 157.107273 
L 118.259034 157.107273 
L 118.259034 163.325455 
L 119.27358 163.325455 
L 119.27358 173.88 
L 120.288125 173.88 
L 120.288125 179.689091 
L 121.30267 179.689091 
L 121.30267 184.598182 
L 122.317216 184.598182 
L 122.317216 189.752727 
L 123.331761 189.752727 
L 123.331761 179.28 
L 124.346307 179.28 
L 124.346307 157.843636 
L 125.360852 157.843636 
L 125.360852 148.025455 
L 126.375398 148.025455 
L 126.375398 131.416364 
L 127.389943 131.416364 
L 127.389943 101.552727 
L 128.404489 101.552727 
L 128.404489 94.516364 
L 129.419034 94.516364 
L 129.419034 86.252727 
L 130.43358 86.252727 
L 130.43358 93.452727 
L 131.448125 93.452727 
L 131.448125 88.952727 
L 132.46267 88.952727 
L 132.46267 91.98 
L 133.477216 91.98 
L 133.477216 92.307273 
L 134.491761 92.307273 
L 134.491761 98.28 
L 135.506307 98.28 
L 135.506307 99.916364 
L 136.520852 99.916364 
L 136.520852 109.407273 
L 137.535398 109.407273 
L 137.535398 104.416364 
L 138.549943 104.416364 
L 138.549943 104.007273 
L 139.564489 104.007273 
L 139.564489 98.443636 
L 140.579034 98.443636 
L 140.579034 106.789091 
L 141.59358 106.789091 
L 141.59358 102.861818 
L 142.608125 102.861818 
L 142.608125 108.916364 
L 143.62267 108.916364 
L 143.62267 112.189091 
L 144.637216 112.189091 
L 144.637216 109.734545 
L 145.651761 109.734545 
L 145.651761 112.025455 
L 146.666307 112.025455 
L 146.666307 113.089091 
L 147.680852 113.089091 
L 147.680852 119.061818 
L 148.695398 119.061818 
L 148.695398 114.234545 
L 149.709943 114.234545 
L 149.709943 117.343636 
L 150.724489 117.343636 
L 150.724489 121.434545 
L 151.739034 121.434545 
L 151.739034 119.552727 
L 152.75358 119.552727 
L 152.75358 113.989091 
L 153.768125 113.989091 
L 153.768125 116.934545 
L 154.78267 116.934545 
L 154.78267 118.652727 
L 155.797216 118.652727 
L 155.797216 123.807273 
L 156.811761 123.807273 
L 156.811761 125.198182 
L 157.826307 125.198182 
L 157.826307 130.598182 
L 158.840852 130.598182 
L 158.840852 125.934545 
L 159.855398 125.934545 
L 159.855398 118.898182 
L 160.869943 118.898182 
L 160.869943 122.743636 
L 161.884489 122.743636 
L 161.884489 129.78 
L 162.899034 129.78 
L 162.899034 130.516364 
L 163.91358 130.516364 
L 163.91358 132.48 
L 164.928125 132.48 
L 164.928125 134.770909 
L 165.94267 134.770909 
L 165.94267 130.925455 
L 166.957216 130.925455 
L 166.957216 135.752727 
L 167.971761 135.752727 
L 167.971761 144.343636 
L 168.986307 144.343636 
L 168.986307 153.998182 
L 170.000852 153.998182 
L 170.000852 150.807273 
L 171.015398 150.807273 
L 171.015398 154.652727 
L 172.029943 154.652727 
L 172.029943 151.052727 
L 173.044489 151.052727 
L 173.044489 155.389091 
L 174.059034 155.389091 
L 174.059034 156.043636 
L 175.07358 156.043636 
L 175.07358 160.461818 
L 176.088125 160.461818 
L 176.088125 157.598182 
L 177.10267 157.598182 
L 177.10267 158.170909 
L 178.117216 158.170909 
L 178.117216 151.707273 
L 179.131761 151.707273 
L 179.131761 151.461818 
L 180.146307 151.461818 
L 180.146307 146.307273 
L 181.160852 146.307273 
L 181.160852 138.78 
L 182.175398 138.78 
L 182.175398 129.370909 
L 183.189943 129.370909 
L 183.189943 133.298182 
L 184.204489 133.298182 
L 184.204489 135.261818 
L 185.219034 135.261818 
L 185.219034 147.207273 
L 186.23358 147.207273 
L 186.23358 147.78 
L 187.248125 147.78 
L 187.248125 150.643636 
L 188.26267 150.643636 
L 188.26267 157.352727 
L 189.277216 157.352727 
L 189.277216 161.198182 
L 190.291761 161.198182 
L 190.291761 153.998182 
L 191.306307 153.998182 
L 191.306307 155.634545 
L 192.320852 155.634545 
L 192.320852 157.434545 
L 193.335398 157.434545 
L 193.335398 159.234545 
L 194.349943 159.234545 
L 194.349943 154.816364 
L 195.364489 154.816364 
L 195.364489 158.252727 
L 196.379034 158.252727 
L 196.379034 161.607273 
L 197.39358 161.607273 
L 197.39358 163.816364 
L 198.408125 163.816364 
L 198.408125 159.970909 
L 199.42267 159.970909 
L 199.42267 166.025455 
L 200.437216 166.025455 
L 200.437216 163.652727 
L 201.451761 163.652727 
L 201.451761 166.843636 
L 202.466307 166.843636 
L 202.466307 167.089091 
L 203.480852 167.089091 
L 203.480852 165.125455 
L 204.495398 165.125455 
L 204.495398 171.916364 
L 205.509943 171.916364 
L 205.509943 174.452727 
L 206.524489 174.452727 
L 206.524489 174.616364 
L 207.539034 174.616364 
L 207.539034 176.743636 
L 208.55358 176.743636 
L 208.55358 176.416364 
L 209.568125 176.416364 
L 209.568125 178.461818 
L 210.58267 178.461818 
L 210.58267 177.234545 
L 211.597216 177.234545 
L 211.597216 175.761818 
L 212.611761 175.761818 
L 212.611761 187.870909 
L 213.626307 187.870909 
L 213.626307 185.825455 
L 214.640852 185.825455 
L 214.640852 191.061818 
L 216.669943 191.061818 
L 216.669943 192.207273 
L 217.684489 192.207273 
L 217.684489 193.516364 
L 218.699034 193.516364 
L 218.699034 192.534545 
L 219.71358 192.534545 
L 219.71358 193.270909 
L 220.728125 193.270909 
L 220.728125 194.825455 
L 221.74267 194.825455 
L 221.74267 196.38 
L 222.757216 196.38 
L 222.757216 196.052727 
L 223.771761 196.052727 
L 223.771761 199.734545 
L 224.786307 199.734545 
L 224.786307 200.143636 
L 225.800852 200.143636 
L 225.800852 194.416364 
L 226.815398 194.416364 
L 226.815398 194.089091 
L 227.829943 194.089091 
L 227.829943 190.816364 
L 228.844489 190.816364 
L 228.844489 189.834545 
L 229.859034 189.834545 
L 229.859034 189.261818 
L 230.87358 189.261818 
L 230.87358 179.852727 
L 231.888125 179.852727 
L 231.888125 188.443636 
L 232.90267 188.443636 
L 232.90267 186.889091 
L 233.917216 186.889091 
L 233.917216 189.343636 
L 234.931761 189.343636 
L 234.931761 193.270909 
L 235.946307 193.270909 
L 235.946307 196.38 
L 236.960852 196.38 
L 236.960852 196.707273 
L 237.975398 196.707273 
L 237.975398 197.607273 
L 238.989943 197.607273 
L 238.989943 196.38 
L 240.004489 196.38 
L 240.004489 198.670909 
L 241.019034 198.670909 
L 241.019034 195.970909 
L 242.03358 195.970909 
L 242.03358 198.261818 
L 243.048125 198.261818 
L 243.048125 200.88 
L 244.06267 200.88 
L 244.06267 202.598182 
L 245.077216 202.598182 
L 245.077216 199.898182 
L 246.091761 199.898182 
L 246.091761 204.316364 
L 247.106307 204.316364 
L 247.106307 202.516364 
L 248.120852 202.516364 
L 248.120852 202.68 
L 249.135398 202.68 
L 249.135398 204.398182 
L 250.149943 204.398182 
L 250.149943 205.052727 
L 251.164489 205.052727 
L 251.164489 205.789091 
L 252.179034 205.789091 
L 252.179034 206.361818 
L 253.19358 206.361818 
L 253.19358 207.834545 
L 254.208125 207.834545 
L 254.208125 208.407273 
L 255.22267 208.407273 
L 255.22267 207.507273 
L 256.237216 207.507273 
L 256.237216 208.243636 
L 257.251761 208.243636 
L 257.251761 211.025455 
L 258.266307 211.025455 
L 258.266307 210.78 
L 259.280852 210.78 
L 259.280852 210.207273 
L 260.295398 210.207273 
L 260.295398 212.661818 
L 262.324489 212.743636 
L 262.324489 212.089091 
L 263.339034 212.089091 
L 263.339034 213.725455 
L 264.35358 213.725455 
L 264.35358 213.889091 
L 265.368125 213.889091 
L 265.368125 214.952727 
L 266.38267 214.952727 
L 266.38267 214.707273 
L 267.397216 214.707273 
L 267.397216 213.970909 
L 268.411761 213.970909 
L 268.411761 215.689091 
L 269.426307 215.689091 
L 269.426307 215.361818 
L 270.440852 215.361818 
L 270.440852 216.18 
L 271.455398 216.18 
L 271.455398 214.625455 
L 272.469943 214.625455 
L 272.469943 210.452727 
L 273.484489 210.452727 
L 273.484489 210.289091 
L 274.499034 210.289091 
L 274.499034 208.407273 
L 275.51358 208.407273 
L 275.51358 208.652727 
L 276.528125 208.652727 
L 276.528125 205.789091 
L 277.54267 205.789091 
L 277.54267 205.625455 
L 279.571761 205.625455 
L 279.571761 207.016364 
L 280.586307 207.016364 
L 280.586307 207.670909 
L 281.600852 207.670909 
L 281.600852 209.634545 
L 283.629943 209.552727 
L 283.629943 208.816364 
L 284.644489 208.816364 
L 284.644489 208.407273 
L 285.659034 208.407273 
L 285.659034 209.470909 
L 286.67358 209.470909 
L 286.67358 211.598182 
L 287.688125 211.598182 
L 287.688125 210.207273 
L 288.70267 210.207273 
L 288.70267 210.698182 
L 289.717216 210.698182 
L 289.717216 211.761818 
L 290.731761 211.761818 
L 290.731761 212.416364 
L 291.746307 212.416364 
L 291.746307 212.58 
L 292.760852 212.58 
L 292.760852 212.334545 
L 293.775398 212.334545 
L 293.775398 212.989091 
L 294.789943 212.989091 
L 294.789943 212.416364 
L 296.819034 212.498182 
L 296.819034 212.825455 
L 297.83358 212.825455 
L 297.83358 214.216364 
L 298.848125 214.216364 
L 298.848125 214.625455 
L 299.86267 214.625455 
L 299.86267 214.134545 
L 300.877216 214.134545 
L 300.877216 214.38 
L 301.891761 214.38 
L 301.891761 216.18 
L 303.920852 216.098182 
L 303.920852 215.28 
L 304.935398 215.28 
L 304.935398 216.261818 
L 305.949943 216.261818 
L 305.949943 216.589091 
L 306.964489 216.589091 
L 306.964489 216.752727 
L 307.979034 216.752727 
L 307.979034 217.407273 
L 308.99358 217.407273 
L 308.99358 217.734545 
L 310.008125 217.734545 
L 310.008125 217.407273 
L 311.02267 217.407273 
L 311.02267 217.243636 
L 312.037216 217.243636 
L 312.037216 217.898182 
L 313.051761 217.898182 
L 313.051761 218.470909 
L 314.066307 218.470909 
L 314.066307 218.061818 
L 315.080852 218.061818 
L 315.080852 217.325455 
L 316.095398 217.325455 
L 316.095398 216.752727 
L 317.109943 216.752727 
L 317.109943 215.198182 
L 318.124489 215.198182 
L 318.124489 214.298182 
L 319.139034 214.298182 
L 319.139034 214.625455 
L 320.15358 214.625455 
L 320.15358 213.48 
L 321.168125 213.48 
L 321.168125 210.043636 
L 322.18267 210.043636 
L 322.18267 209.552727 
L 323.197216 209.552727 
L 323.197216 208.489091 
L 324.211761 208.489091 
L 324.211761 205.625455 
L 325.226307 205.625455 
L 325.226307 202.925455 
L 326.240852 202.925455 
L 326.240852 204.889091 
L 327.255398 204.889091 
L 327.255398 202.925455 
L 328.269943 202.925455 
L 328.269943 203.743636 
L 329.284489 203.743636 
L 329.284489 205.707273 
L 330.299034 205.707273 
L 330.299034 206.116364 
L 331.31358 206.116364 
L 331.31358 204.889091 
L 332.328125 204.889091 
L 332.328125 203.498182 
L 333.34267 203.498182 
L 333.34267 205.461818 
L 334.357216 205.461818 
L 334.357216 204.970909 
L 335.371761 204.970909 
L 335.371761 205.789091 
L 336.386307 205.789091 
L 336.386307 204.725455 
L 337.400852 204.725455 
L 337.400852 206.689091 
L 339.429943 206.689091 
L 339.429943 206.034545 
L 340.444489 206.034545 
L 340.444489 206.525455 
L 341.459034 206.525455 
L 341.459034 205.789091 
L 342.47358 205.789091 
L 342.47358 204.398182 
L 343.488125 204.398182 
L 343.488125 204.561818 
L 344.50267 204.561818 
L 344.50267 205.461818 
L 345.517216 205.461818 
L 345.517216 208.08 
L 346.531761 208.08 
L 346.531761 208.325455 
L 347.546307 208.325455 
L 347.546307 207.998182 
L 348.560852 207.998182 
L 348.560852 210.370909 
L 349.575398 210.370909 
L 349.575398 208.734545 
L 350.589943 208.734545 
L 350.589943 209.470909 
L 351.604489 209.470909 
L 351.604489 210.534545 
L 352.619034 210.534545 
L 352.619034 209.634545 
L 353.63358 209.634545 
L 353.63358 211.189091 
L 354.648125 211.189091 
L 354.648125 210.861818 
L 355.66267 210.861818 
L 355.66267 208.652727 
L 356.677216 208.652727 
L 356.677216 211.434545 
L 357.691761 211.434545 
L 357.691761 208.816364 
L 358.706307 208.816364 
L 358.706307 210.861818 
L 359.720852 210.861818 
L 359.720852 212.007273 
L 360.735398 212.007273 
L 360.735398 211.434545 
L 361.749943 211.434545 
L 361.749943 212.907273 
L 362.764489 212.907273 
L 362.764489 212.089091 
L 363.779034 212.089091 
L 363.779034 212.907273 
L 364.79358 212.907273 
L 364.79358 212.661818 
L 365.808125 212.661818 
L 365.808125 215.034545 
L 366.82267 215.034545 
L 366.82267 214.543636 
L 367.837216 214.543636 
L 367.837216 215.852727 
L 369.866307 215.770909 
L 369.866307 216.589091 
L 370.880852 216.589091 
L 370.880852 218.143636 
L 371.895398 218.143636 
L 371.895398 218.88 
L 372.909943 218.88 
L 372.909943 218.88 
" clip-path="url(#p56b32f787b)" style="fill: none; stroke: #1f77b4; stroke-width: 1.5; stroke-linecap: square"/>
   </g>
  </g>
 </g>
 <defs>
  <clipPath id="p56b32f787b">
   <rect x="53.328125" y="7.2" width="334.8" height="221.76"/>
  </clipPath>
 </defs>
</svg>
