<?xml version="1.0" encoding="utf-8" standalone="no"?>
<!DOCTYPE svg PUBLIC "-//W3C//DTD SVG 1.1//EN"
  "http://www.w3.org/Graphics/SVG/1.1/DTD/svg11.dtd">
<svg xmlns:xlink="http://www.w3.org/1999/xlink" width="395.328125pt" height="268.200625pt" viewBox="0 0 395.328125 268.200625" xmlns="http://www.w3.org/2000/svg" version="1.1">
 <metadata>
  <rdf:RDF xmlns:dc="http://purl.org/dc/elements/1.1/" xmlns:cc="http://creativecommons.org/ns#" xmlns:rdf="http://www.w3.org/1999/02/22-rdf-syntax-ns#">
   <cc:Work>
    <dc:type rdf:resource="http://purl.org/dc/dcmitype/StillImage"/>
    <dc:date>2025-02-17T17:53:36.632433</dc:date>
    <dc:format>image/svg+xml</dc:format>
    <dc:creator>
     <cc:Agent>
      <dc:title>Matplotlib v3.10.0, https://matplotlib.org/</dc:title>
     </cc:Agent>
    </dc:creator>
   </cc:Work>
  </rdf:RDF>
 </metadata>
 <defs>
  <style type="text/css">*{stroke-linejoin: round; stroke-linecap: butt}</style>
 </defs>
 <g id="figure_1">
  <g id="patch_1">
   <path d="M 0 268.200625 
L 395.328125 268.200625 
L 395.328125 0 
L 0 0 
z
" style="fill: #ffffff"/>
  </g>
  <g id="axes_1">
   <g id="patch_2">
    <path d="M 53.328125 228.96 
L 388.128125 228.96 
L 388.128125 7.2 
L 53.328125 7.2 
z
" style="fill: #ffffff"/>
   </g>
   <g id="matplotlib.axis_1">
    <g id="xtick_1">
     <g id="line2d_1">
      <defs>
       <path id="me8bd8e2cc9" d="M 0 0 
L 0 3.5 
" style="stroke: #000000; stroke-width: 0.8"/>
      </defs>
      <g>
       <use xlink:href="#me8bd8e2cc9" x="68.546307" y="228.96" style="stroke: #000000; stroke-width: 0.8"/>
      </g>
     </g>
     <g id="text_1">
      <!-- 2 -->
      <g transform="translate(65.365057 243.558437) scale(0.1 -0.1)">
       <defs>
        <path id="DejaVuSans-32" d="M 1228 531 
L 3431 531 
L 3431 0 
L 469 0 
L 469 531 
Q 828 903 1448 1529 
Q 2069 2156 2228 2338 
Q 2531 2678 2651 2914 
Q 2772 3150 2772 3378 
Q 2772 3750 2511 3984 
Q 2250 4219 1831 4219 
Q 1534 4219 1204 4116 
Q 875 4013 500 3803 
L 500 4441 
Q 881 4594 1212 4672 
Q 1544 4750 1819 4750 
Q 2544 4750 2975 4387 
Q 3406 4025 3406 3419 
Q 3406 3131 3298 2873 
Q 3191 2616 2906 2266 
Q 2828 2175 2409 1742 
Q 1991 1309 1228 531 
z
" transform="scale(0.015625)"/>
       </defs>
       <use xlink:href="#DejaVuSans-32"/>
      </g>
     </g>
    </g>
    <g id="xtick_2">
     <g id="line2d_2">
      <g>
       <use xlink:href="#me8bd8e2cc9" x="106.591761" y="228.96" style="stroke: #000000; stroke-width: 0.8"/>
      </g>
     </g>
     <g id="text_2">
      <!-- 3 -->
      <g transform="translate(103.410511 243.558437) scale(0.1 -0.1)">
       <defs>
        <path id="DejaVuSans-33" d="M 2597 2516 
Q 3050 2419 3304 2112 
Q 3559 1806 3559 1356 
Q 3559 666 3084 287 
Q 2609 -91 1734 -91 
Q 1441 -91 1130 -33 
Q 819 25 488 141 
L 488 750 
Q 750 597 1062 519 
Q 1375 441 1716 441 
Q 2309 441 2620 675 
Q 2931 909 2931 1356 
Q 2931 1769 2642 2001 
Q 2353 2234 1838 2234 
L 1294 2234 
L 1294 2753 
L 1863 2753 
Q 2328 2753 2575 2939 
Q 2822 3125 2822 3475 
Q 2822 3834 2567 4026 
Q 2313 4219 1838 4219 
Q 1578 4219 1281 4162 
Q 984 4106 628 3988 
L 628 4550 
Q 988 4650 1302 4700 
Q 1616 4750 1894 4750 
Q 2613 4750 3031 4423 
Q 3450 4097 3450 3541 
Q 3450 3153 3228 2886 
Q 3006 2619 2597 2516 
z
" transform="scale(0.015625)"/>
       </defs>
       <use xlink:href="#DejaVuSans-33"/>
      </g>
     </g>
    </g>
    <g id="xtick_3">
     <g id="line2d_3">
      <g>
       <use xlink:href="#me8bd8e2cc9" x="144.637216" y="228.96" style="stroke: #000000; stroke-width: 0.8"/>
      </g>
     </g>
     <g id="text_3">
      <!-- 4 -->
      <g transform="translate(141.455966 243.558437) scale(0.1 -0.1)">
       <defs>
        <path id="DejaVuSans-34" d="M 2419 4116 
L 825 1625 
L 2419 1625 
L 2419 4116 
z
M 2253 4666 
L 3047 4666 
L 3047 1625 
L 3713 1625 
L 3713 1100 
L 3047 1100 
L 3047 0 
L 2419 0 
L 2419 1100 
L 313 1100 
L 313 1709 
L 2253 4666 
z
" transform="scale(0.015625)"/>
       </defs>
       <use xlink:href="#DejaVuSans-34"/>
      </g>
     </g>
    </g>
    <g id="xtick_4">
     <g id="line2d_4">
      <g>
       <use xlink:href="#me8bd8e2cc9" x="182.68267" y="228.96" style="stroke: #000000; stroke-width: 0.8"/>
      </g>
     </g>
     <g id="text_4">
      <!-- 5 -->
      <g transform="translate(179.50142 243.558437) scale(0.1 -0.1)">
       <defs>
        <path id="DejaVuSans-35" d="M 691 4666 
L 3169 4666 
L 3169 4134 
L 1269 4134 
L 1269 2991 
Q 1406 3038 1543 3061 
Q 1681 3084 1819 3084 
Q 2600 3084 3056 2656 
Q 3513 2228 3513 1497 
Q 3513 744 3044 326 
Q 2575 -91 1722 -91 
Q 1428 -91 1123 -41 
Q 819 9 494 109 
L 494 744 
Q 775 591 1075 516 
Q 1375 441 1709 441 
Q 2250 441 2565 725 
Q 2881 1009 2881 1497 
Q 2881 1984 2565 2268 
Q 2250 2553 1709 2553 
Q 1456 2553 1204 2497 
Q 953 2441 691 2322 
L 691 4666 
z
" transform="scale(0.015625)"/>
       </defs>
       <use xlink:href="#DejaVuSans-35"/>
      </g>
     </g>
    </g>
    <g id="xtick_5">
     <g id="line2d_5">
      <g>
       <use xlink:href="#me8bd8e2cc9" x="220.728125" y="228.96" style="stroke: #000000; stroke-width: 0.8"/>
      </g>
     </g>
     <g id="text_5">
      <!-- 6 -->
      <g transform="translate(217.546875 243.558437) scale(0.1 -0.1)">
       <defs>
        <path id="DejaVuSans-36" d="M 2113 2584 
Q 1688 2584 1439 2293 
Q 1191 2003 1191 1497 
Q 1191 994 1439 701 
Q 1688 409 2113 409 
Q 2538 409 2786 701 
Q 3034 994 3034 1497 
Q 3034 2003 2786 2293 
Q 2538 2584 2113 2584 
z
M 3366 4563 
L 3366 3988 
Q 3128 4100 2886 4159 
Q 2644 4219 2406 4219 
Q 1781 4219 1451 3797 
Q 1122 3375 1075 2522 
Q 1259 2794 1537 2939 
Q 1816 3084 2150 3084 
Q 2853 3084 3261 2657 
Q 3669 2231 3669 1497 
Q 3669 778 3244 343 
Q 2819 -91 2113 -91 
Q 1303 -91 875 529 
Q 447 1150 447 2328 
Q 447 3434 972 4092 
Q 1497 4750 2381 4750 
Q 2619 4750 2861 4703 
Q 3103 4656 3366 4563 
z
" transform="scale(0.015625)"/>
       </defs>
       <use xlink:href="#DejaVuSans-36"/>
      </g>
     </g>
    </g>
    <g id="xtick_6">
     <g id="line2d_6">
      <g>
       <use xlink:href="#me8bd8e2cc9" x="258.77358" y="228.96" style="stroke: #000000; stroke-width: 0.8"/>
      </g>
     </g>
     <g id="text_6">
      <!-- 7 -->
      <g transform="translate(255.59233 243.558437) scale(0.1 -0.1)">
       <defs>
        <path id="DejaVuSans-37" d="M 525 4666 
L 3525 4666 
L 3525 4397 
L 1831 0 
L 1172 0 
L 2766 4134 
L 525 4134 
L 525 4666 
z
" transform="scale(0.015625)"/>
       </defs>
       <use xlink:href="#DejaVuSans-37"/>
      </g>
     </g>
    </g>
    <g id="xtick_7">
     <g id="line2d_7">
      <g>
       <use xlink:href="#me8bd8e2cc9" x="296.819034" y="228.96" style="stroke: #000000; stroke-width: 0.8"/>
      </g>
     </g>
     <g id="text_7">
      <!-- 8 -->
      <g transform="translate(293.637784 243.558437) scale(0.1 -0.1)">
       <defs>
        <path id="DejaVuSans-38" d="M 2034 2216 
Q 1584 2216 1326 1975 
Q 1069 1734 1069 1313 
Q 1069 891 1326 650 
Q 1584 409 2034 409 
Q 2484 409 2743 651 
Q 3003 894 3003 1313 
Q 3003 1734 2745 1975 
Q 2488 2216 2034 2216 
z
M 1403 2484 
Q 997 2584 770 2862 
Q 544 3141 544 3541 
Q 544 4100 942 4425 
Q 1341 4750 2034 4750 
Q 2731 4750 3128 4425 
Q 3525 4100 3525 3541 
Q 3525 3141 3298 2862 
Q 3072 2584 2669 2484 
Q 3125 2378 3379 2068 
Q 3634 1759 3634 1313 
Q 3634 634 3220 271 
Q 2806 -91 2034 -91 
Q 1263 -91 848 271 
Q 434 634 434 1313 
Q 434 1759 690 2068 
Q 947 2378 1403 2484 
z
M 1172 3481 
Q 1172 3119 1398 2916 
Q 1625 2713 2034 2713 
Q 2441 2713 2670 2916 
Q 2900 3119 2900 3481 
Q 2900 3844 2670 4047 
Q 2441 4250 2034 4250 
Q 1625 4250 1398 4047 
Q 1172 3844 1172 3481 
z
" transform="scale(0.015625)"/>
       </defs>
       <use xlink:href="#DejaVuSans-38"/>
      </g>
     </g>
    </g>
    <g id="xtick_8">
     <g id="line2d_8">
      <g>
       <use xlink:href="#me8bd8e2cc9" x="334.864489" y="228.96" style="stroke: #000000; stroke-width: 0.8"/>
      </g>
     </g>
     <g id="text_8">
      <!-- 9 -->
      <g transform="translate(331.683239 243.558437) scale(0.1 -0.1)">
       <defs>
        <path id="DejaVuSans-39" d="M 703 97 
L 703 672 
Q 941 559 1184 500 
Q 1428 441 1663 441 
Q 2288 441 2617 861 
Q 2947 1281 2994 2138 
Q 2813 1869 2534 1725 
Q 2256 1581 1919 1581 
Q 1219 1581 811 2004 
Q 403 2428 403 3163 
Q 403 3881 828 4315 
Q 1253 4750 1959 4750 
Q 2769 4750 3195 4129 
Q 3622 3509 3622 2328 
Q 3622 1225 3098 567 
Q 2575 -91 1691 -91 
Q 1453 -91 1209 -44 
Q 966 3 703 97 
z
M 1959 2075 
Q 2384 2075 2632 2365 
Q 2881 2656 2881 3163 
Q 2881 3666 2632 3958 
Q 2384 4250 1959 4250 
Q 1534 4250 1286 3958 
Q 1038 3666 1038 3163 
Q 1038 2656 1286 2365 
Q 1534 2075 1959 2075 
z
" transform="scale(0.015625)"/>
       </defs>
       <use xlink:href="#DejaVuSans-39"/>
      </g>
     </g>
    </g>
    <g id="xtick_9">
     <g id="line2d_9">
      <g>
       <use xlink:href="#me8bd8e2cc9" x="372.909943" y="228.96" style="stroke: #000000; stroke-width: 0.8"/>
      </g>
     </g>
     <g id="text_9">
      <!-- 10 -->
      <g transform="translate(366.547443 243.558437) scale(0.1 -0.1)">
       <defs>
        <path id="DejaVuSans-31" d="M 794 531 
L 1825 531 
L 1825 4091 
L 703 3866 
L 703 4441 
L 1819 4666 
L 2450 4666 
L 2450 531 
L 3481 531 
L 3481 0 
L 794 0 
L 794 531 
z
" transform="scale(0.015625)"/>
        <path id="DejaVuSans-30" d="M 2034 4250 
Q 1547 4250 1301 3770 
Q 1056 3291 1056 2328 
Q 1056 1369 1301 889 
Q 1547 409 2034 409 
Q 2525 409 2770 889 
Q 3016 1369 3016 2328 
Q 3016 3291 2770 3770 
Q 2525 4250 2034 4250 
z
M 2034 4750 
Q 2819 4750 3233 4129 
Q 3647 3509 3647 2328 
Q 3647 1150 3233 529 
Q 2819 -91 2034 -91 
Q 1250 -91 836 529 
Q 422 1150 422 2328 
Q 422 3509 836 4129 
Q 1250 4750 2034 4750 
z
" transform="scale(0.015625)"/>
       </defs>
       <use xlink:href="#DejaVuSans-31"/>
       <use xlink:href="#DejaVuSans-30" transform="translate(63.623047 0)"/>
      </g>
     </g>
    </g>
    <g id="text_10">
     <!-- wavelength [Å] -->
     <g transform="translate(182.690625 258.920937) scale(0.1 -0.1)">
      <defs>
       <path id="DejaVuSans-77" d="M 269 3500 
L 844 3500 
L 1563 769 
L 2278 3500 
L 2956 3500 
L 3675 769 
L 4391 3500 
L 4966 3500 
L 4050 0 
L 3372 0 
L 2619 2869 
L 1863 0 
L 1184 0 
L 269 3500 
z
" transform="scale(0.015625)"/>
       <path id="DejaVuSans-61" d="M 2194 1759 
Q 1497 1759 1228 1600 
Q 959 1441 959 1056 
Q 959 750 1161 570 
Q 1363 391 1709 391 
Q 2188 391 2477 730 
Q 2766 1069 2766 1631 
L 2766 1759 
L 2194 1759 
z
M 3341 1997 
L 3341 0 
L 2766 0 
L 2766 531 
Q 2569 213 2275 61 
Q 1981 -91 1556 -91 
Q 1019 -91 701 211 
Q 384 513 384 1019 
Q 384 1609 779 1909 
Q 1175 2209 1959 2209 
L 2766 2209 
L 2766 2266 
Q 2766 2663 2505 2880 
Q 2244 3097 1772 3097 
Q 1472 3097 1187 3025 
Q 903 2953 641 2809 
L 641 3341 
Q 956 3463 1253 3523 
Q 1550 3584 1831 3584 
Q 2591 3584 2966 3190 
Q 3341 2797 3341 1997 
z
" transform="scale(0.015625)"/>
       <path id="DejaVuSans-76" d="M 191 3500 
L 800 3500 
L 1894 563 
L 2988 3500 
L 3597 3500 
L 2284 0 
L 1503 0 
L 191 3500 
z
" transform="scale(0.015625)"/>
       <path id="DejaVuSans-65" d="M 3597 1894 
L 3597 1613 
L 953 1613 
Q 991 1019 1311 708 
Q 1631 397 2203 397 
Q 2534 397 2845 478 
Q 3156 559 3463 722 
L 3463 178 
Q 3153 47 2828 -22 
Q 2503 -91 2169 -91 
Q 1331 -91 842 396 
Q 353 884 353 1716 
Q 353 2575 817 3079 
Q 1281 3584 2069 3584 
Q 2775 3584 3186 3129 
Q 3597 2675 3597 1894 
z
M 3022 2063 
Q 3016 2534 2758 2815 
Q 2500 3097 2075 3097 
Q 1594 3097 1305 2825 
Q 1016 2553 972 2059 
L 3022 2063 
z
" transform="scale(0.015625)"/>
       <path id="DejaVuSans-6c" d="M 603 4863 
L 1178 4863 
L 1178 0 
L 603 0 
L 603 4863 
z
" transform="scale(0.015625)"/>
       <path id="DejaVuSans-6e" d="M 3513 2113 
L 3513 0 
L 2938 0 
L 2938 2094 
Q 2938 2591 2744 2837 
Q 2550 3084 2163 3084 
Q 1697 3084 1428 2787 
Q 1159 2491 1159 1978 
L 1159 0 
L 581 0 
L 581 3500 
L 1159 3500 
L 1159 2956 
Q 1366 3272 1645 3428 
Q 1925 3584 2291 3584 
Q 2894 3584 3203 3211 
Q 3513 2838 3513 2113 
z
" transform="scale(0.015625)"/>
       <path id="DejaVuSans-67" d="M 2906 1791 
Q 2906 2416 2648 2759 
Q 2391 3103 1925 3103 
Q 1463 3103 1205 2759 
Q 947 2416 947 1791 
Q 947 1169 1205 825 
Q 1463 481 1925 481 
Q 2391 481 2648 825 
Q 2906 1169 2906 1791 
z
M 3481 434 
Q 3481 -459 3084 -895 
Q 2688 -1331 1869 -1331 
Q 1566 -1331 1297 -1286 
Q 1028 -1241 775 -1147 
L 775 -588 
Q 1028 -725 1275 -790 
Q 1522 -856 1778 -856 
Q 2344 -856 2625 -561 
Q 2906 -266 2906 331 
L 2906 616 
Q 2728 306 2450 153 
Q 2172 0 1784 0 
Q 1141 0 747 490 
Q 353 981 353 1791 
Q 353 2603 747 3093 
Q 1141 3584 1784 3584 
Q 2172 3584 2450 3431 
Q 2728 3278 2906 2969 
L 2906 3500 
L 3481 3500 
L 3481 434 
z
" transform="scale(0.015625)"/>
       <path id="DejaVuSans-74" d="M 1172 4494 
L 1172 3500 
L 2356 3500 
L 2356 3053 
L 1172 3053 
L 1172 1153 
Q 1172 725 1289 603 
Q 1406 481 1766 481 
L 2356 481 
L 2356 0 
L 1766 0 
Q 1100 0 847 248 
Q 594 497 594 1153 
L 594 3053 
L 172 3053 
L 172 3500 
L 594 3500 
L 594 4494 
L 1172 4494 
z
" transform="scale(0.015625)"/>
       <path id="DejaVuSans-68" d="M 3513 2113 
L 3513 0 
L 2938 0 
L 2938 2094 
Q 2938 2591 2744 2837 
Q 2550 3084 2163 3084 
Q 1697 3084 1428 2787 
Q 1159 2491 1159 1978 
L 1159 0 
L 581 0 
L 581 4863 
L 1159 4863 
L 1159 2956 
Q 1366 3272 1645 3428 
Q 1925 3584 2291 3584 
Q 2894 3584 3203 3211 
Q 3513 2838 3513 2113 
z
" transform="scale(0.015625)"/>
       <path id="DejaVuSans-20" transform="scale(0.015625)"/>
       <path id="DejaVuSans-5b" d="M 550 4863 
L 1875 4863 
L 1875 4416 
L 1125 4416 
L 1125 -397 
L 1875 -397 
L 1875 -844 
L 550 -844 
L 550 4863 
z
" transform="scale(0.015625)"/>
       <path id="DejaVuSans-c5" d="M 2663 5081 
Q 2663 5278 2523 5417 
Q 2384 5556 2188 5556 
Q 1988 5556 1852 5420 
Q 1716 5284 1716 5081 
Q 1716 4884 1853 4746 
Q 1991 4609 2188 4609 
Q 2384 4609 2523 4746 
Q 2663 4884 2663 5081 
z
M 2188 4044 
L 1338 1722 
L 3041 1722 
L 2188 4044 
z
M 1716 4366 
Q 1525 4494 1428 4673 
Q 1331 4853 1331 5081 
Q 1331 5441 1579 5691 
Q 1828 5941 2188 5941 
Q 2544 5941 2795 5689 
Q 3047 5438 3047 5081 
Q 3047 4863 2948 4678 
Q 2850 4494 2663 4366 
L 4325 0 
L 3669 0 
L 3244 1197 
L 1141 1197 
L 716 0 
L 50 0 
L 1716 4366 
z
" transform="scale(0.015625)"/>
       <path id="DejaVuSans-5d" d="M 1947 4863 
L 1947 -844 
L 622 -844 
L 622 -397 
L 1369 -397 
L 1369 4416 
L 622 4416 
L 622 4863 
L 1947 4863 
z
" transform="scale(0.015625)"/>
      </defs>
      <use xlink:href="#DejaVuSans-77"/>
      <use xlink:href="#DejaVuSans-61" transform="translate(81.787109 0)"/>
      <use xlink:href="#DejaVuSans-76" transform="translate(143.066406 0)"/>
      <use xlink:href="#DejaVuSans-65" transform="translate(202.246094 0)"/>
      <use xlink:href="#DejaVuSans-6c" transform="translate(263.769531 0)"/>
      <use xlink:href="#DejaVuSans-65" transform="translate(291.552734 0)"/>
      <use xlink:href="#DejaVuSans-6e" transform="translate(353.076172 0)"/>
      <use xlink:href="#DejaVuSans-67" transform="translate(416.455078 0)"/>
      <use xlink:href="#DejaVuSans-74" transform="translate(479.931641 0)"/>
      <use xlink:href="#DejaVuSans-68" transform="translate(519.140625 0)"/>
      <use xlink:href="#DejaVuSans-20" transform="translate(582.519531 0)"/>
      <use xlink:href="#DejaVuSans-5b" transform="translate(614.306641 0)"/>
      <use xlink:href="#DejaVuSans-c5" transform="translate(653.320312 0)"/>
      <use xlink:href="#DejaVuSans-5d" transform="translate(721.728516 0)"/>
     </g>
    </g>
   </g>
   <g id="matplotlib.axis_2">
    <g id="ytick_1">
     <g id="line2d_10">
      <defs>
       <path id="m14b58ff565" d="M 0 0 
L -3.5 0 
" style="stroke: #000000; stroke-width: 0.8"/>
      </defs>
      <g>
       <use xlink:href="#m14b58ff565" x="53.328125" y="218.88" style="stroke: #000000; stroke-width: 0.8"/>
      </g>
     </g>
     <g id="text_11">
      <!-- 0 -->
      <g transform="translate(39.965625 222.679219) scale(0.1 -0.1)">
       <use xlink:href="#DejaVuSans-30"/>
      </g>
     </g>
    </g>
    <g id="ytick_2">
     <g id="line2d_11">
      <g>
       <use xlink:href="#m14b58ff565" x="53.328125" y="181.027953" style="stroke: #000000; stroke-width: 0.8"/>
      </g>
     </g>
     <g id="text_12">
      <!-- 500 -->
      <g transform="translate(27.240625 184.827172) scale(0.1 -0.1)">
       <use xlink:href="#DejaVuSans-35"/>
       <use xlink:href="#DejaVuSans-30" transform="translate(63.623047 0)"/>
       <use xlink:href="#DejaVuSans-30" transform="translate(127.246094 0)"/>
      </g>
     </g>
    </g>
    <g id="ytick_3">
     <g id="line2d_12">
      <g>
       <use xlink:href="#m14b58ff565" x="53.328125" y="143.175907" style="stroke: #000000; stroke-width: 0.8"/>
      </g>
     </g>
     <g id="text_13">
      <!-- 1000 -->
      <g transform="translate(20.878125 146.975126) scale(0.1 -0.1)">
       <use xlink:href="#DejaVuSans-31"/>
       <use xlink:href="#DejaVuSans-30" transform="translate(63.623047 0)"/>
       <use xlink:href="#DejaVuSans-30" transform="translate(127.246094 0)"/>
       <use xlink:href="#DejaVuSans-30" transform="translate(190.869141 0)"/>
      </g>
     </g>
    </g>
    <g id="ytick_4">
     <g id="line2d_13">
      <g>
       <use xlink:href="#m14b58ff565" x="53.328125" y="105.32386" style="stroke: #000000; stroke-width: 0.8"/>
      </g>
     </g>
     <g id="text_14">
      <!-- 1500 -->
      <g transform="translate(20.878125 109.123079) scale(0.1 -0.1)">
       <use xlink:href="#DejaVuSans-31"/>
       <use xlink:href="#DejaVuSans-35" transform="translate(63.623047 0)"/>
       <use xlink:href="#DejaVuSans-30" transform="translate(127.246094 0)"/>
       <use xlink:href="#DejaVuSans-30" transform="translate(190.869141 0)"/>
      </g>
     </g>
    </g>
    <g id="ytick_5">
     <g id="line2d_14">
      <g>
       <use xlink:href="#m14b58ff565" x="53.328125" y="67.471814" style="stroke: #000000; stroke-width: 0.8"/>
      </g>
     </g>
     <g id="text_15">
      <!-- 2000 -->
      <g transform="translate(20.878125 71.271032) scale(0.1 -0.1)">
       <use xlink:href="#DejaVuSans-32"/>
       <use xlink:href="#DejaVuSans-30" transform="translate(63.623047 0)"/>
       <use xlink:href="#DejaVuSans-30" transform="translate(127.246094 0)"/>
       <use xlink:href="#DejaVuSans-30" transform="translate(190.869141 0)"/>
      </g>
     </g>
    </g>
    <g id="ytick_6">
     <g id="line2d_15">
      <g>
       <use xlink:href="#m14b58ff565" x="53.328125" y="29.619767" style="stroke: #000000; stroke-width: 0.8"/>
      </g>
     </g>
     <g id="text_16">
      <!-- 2500 -->
      <g transform="translate(20.878125 33.418986) scale(0.1 -0.1)">
       <use xlink:href="#DejaVuSans-32"/>
       <use xlink:href="#DejaVuSans-35" transform="translate(63.623047 0)"/>
       <use xlink:href="#DejaVuSans-30" transform="translate(127.246094 0)"/>
       <use xlink:href="#DejaVuSans-30" transform="translate(190.869141 0)"/>
      </g>
     </g>
    </g>
    <g id="text_17">
     <!-- [counts] -->
     <g transform="translate(14.798438 138.6925) rotate(-90) scale(0.1 -0.1)">
      <defs>
       <path id="DejaVuSans-63" d="M 3122 3366 
L 3122 2828 
Q 2878 2963 2633 3030 
Q 2388 3097 2138 3097 
Q 1578 3097 1268 2742 
Q 959 2388 959 1747 
Q 959 1106 1268 751 
Q 1578 397 2138 397 
Q 2388 397 2633 464 
Q 2878 531 3122 666 
L 3122 134 
Q 2881 22 2623 -34 
Q 2366 -91 2075 -91 
Q 1284 -91 818 406 
Q 353 903 353 1747 
Q 353 2603 823 3093 
Q 1294 3584 2113 3584 
Q 2378 3584 2631 3529 
Q 2884 3475 3122 3366 
z
" transform="scale(0.015625)"/>
       <path id="DejaVuSans-6f" d="M 1959 3097 
Q 1497 3097 1228 2736 
Q 959 2375 959 1747 
Q 959 1119 1226 758 
Q 1494 397 1959 397 
Q 2419 397 2687 759 
Q 2956 1122 2956 1747 
Q 2956 2369 2687 2733 
Q 2419 3097 1959 3097 
z
M 1959 3584 
Q 2709 3584 3137 3096 
Q 3566 2609 3566 1747 
Q 3566 888 3137 398 
Q 2709 -91 1959 -91 
Q 1206 -91 779 398 
Q 353 888 353 1747 
Q 353 2609 779 3096 
Q 1206 3584 1959 3584 
z
" transform="scale(0.015625)"/>
       <path id="DejaVuSans-75" d="M 544 1381 
L 544 3500 
L 1119 3500 
L 1119 1403 
Q 1119 906 1312 657 
Q 1506 409 1894 409 
Q 2359 409 2629 706 
Q 2900 1003 2900 1516 
L 2900 3500 
L 3475 3500 
L 3475 0 
L 2900 0 
L 2900 538 
Q 2691 219 2414 64 
Q 2138 -91 1772 -91 
Q 1169 -91 856 284 
Q 544 659 544 1381 
z
M 1991 3584 
L 1991 3584 
z
" transform="scale(0.015625)"/>
       <path id="DejaVuSans-73" d="M 2834 3397 
L 2834 2853 
Q 2591 2978 2328 3040 
Q 2066 3103 1784 3103 
Q 1356 3103 1142 2972 
Q 928 2841 928 2578 
Q 928 2378 1081 2264 
Q 1234 2150 1697 2047 
L 1894 2003 
Q 2506 1872 2764 1633 
Q 3022 1394 3022 966 
Q 3022 478 2636 193 
Q 2250 -91 1575 -91 
Q 1294 -91 989 -36 
Q 684 19 347 128 
L 347 722 
Q 666 556 975 473 
Q 1284 391 1588 391 
Q 1994 391 2212 530 
Q 2431 669 2431 922 
Q 2431 1156 2273 1281 
Q 2116 1406 1581 1522 
L 1381 1569 
Q 847 1681 609 1914 
Q 372 2147 372 2553 
Q 372 3047 722 3315 
Q 1072 3584 1716 3584 
Q 2034 3584 2315 3537 
Q 2597 3491 2834 3397 
z
" transform="scale(0.015625)"/>
      </defs>
      <use xlink:href="#DejaVuSans-5b"/>
      <use xlink:href="#DejaVuSans-63" transform="translate(39.013672 0)"/>
      <use xlink:href="#DejaVuSans-6f" transform="translate(93.994141 0)"/>
      <use xlink:href="#DejaVuSans-75" transform="translate(155.175781 0)"/>
      <use xlink:href="#DejaVuSans-6e" transform="translate(218.554688 0)"/>
      <use xlink:href="#DejaVuSans-74" transform="translate(281.933594 0)"/>
      <use xlink:href="#DejaVuSans-73" transform="translate(321.142578 0)"/>
      <use xlink:href="#DejaVuSans-5d" transform="translate(373.242188 0)"/>
     </g>
    </g>
   </g>
   <g id="patch_3">
    <path d="M 53.328125 228.96 
L 53.328125 7.2 
" style="fill: none; stroke: #000000; stroke-width: 0.8; stroke-linejoin: miter; stroke-linecap: square"/>
   </g>
   <g id="patch_4">
    <path d="M 388.128125 228.96 
L 388.128125 7.2 
" style="fill: none; stroke: #000000; stroke-width: 0.8; stroke-linejoin: miter; stroke-linecap: square"/>
   </g>
   <g id="patch_5">
    <path d="M 53.328125 228.96 
L 388.128125 228.96 
" style="fill: none; stroke: #000000; stroke-width: 0.8; stroke-linejoin: miter; stroke-linecap: square"/>
   </g>
   <g id="patch_6">
    <path d="M 53.328125 7.2 
L 388.128125 7.2 
" style="fill: none; stroke: #000000; stroke-width: 0.8; stroke-linejoin: miter; stroke-linecap: square"/>
   </g>
   <g id="line2d_16">
    <path d="M 68.546307 218.88 
L 69.560852 218.88 
L 69.560852 200.93813 
L 70.575398 200.93813 
L 70.575398 152.411806 
L 71.589943 152.411806 
L 71.589943 109.866106 
L 72.604489 109.866106 
L 72.604489 102.068584 
L 73.619034 102.068584 
L 73.619034 98.207676 
L 74.63358 98.207676 
L 74.63358 90.71297 
L 75.648125 90.71297 
L 75.648125 91.470011 
L 76.66267 91.470011 
L 76.66267 85.035163 
L 77.677216 85.035163 
L 77.677216 78.373203 
L 78.691761 78.373203 
L 78.691761 70.575682 
L 79.706307 70.575682 
L 79.706307 72.695396 
L 80.720852 72.695396 
L 80.720852 58.463027 
L 81.735398 58.463027 
L 81.735398 51.573954 
L 82.749943 51.573954 
L 82.749943 55.510567 
L 83.764489 55.510567 
L 83.764489 53.315148 
L 84.779034 53.315148 
L 84.779034 43.322208 
L 85.79358 43.322208 
L 85.79358 42.262351 
L 86.808125 42.262351 
L 86.808125 29.771175 
L 87.82267 29.771175 
L 87.82267 29.392655 
L 88.837216 29.392655 
L 88.837216 21.443725 
L 89.851761 21.443725 
L 89.851761 19.248306 
L 90.866307 19.248306 
L 90.866307 23.109215 
L 91.880852 23.109215 
L 91.880852 17.28 
L 92.895398 17.28 
L 92.895398 26.515899 
L 93.909943 26.515899 
L 93.909943 25.910267 
L 94.924489 25.910267 
L 94.924489 32.118002 
L 95.939034 32.118002 
L 95.939034 29.316951 
L 96.95358 29.316951 
L 96.95358 33.17786 
L 97.968125 33.17786 
L 97.968125 39.234187 
L 98.98267 39.234187 
L 98.98267 37.341585 
L 99.997216 37.341585 
L 99.997216 44.079249 
L 101.011761 44.079249 
L 101.011761 42.338055 
L 102.026307 42.338055 
L 102.026307 42.035238 
L 103.040852 42.035238 
L 103.040852 58.614435 
L 104.055398 58.614435 
L 104.055398 70.72709 
L 105.069943 70.72709 
L 105.069943 76.632009 
L 106.084489 76.632009 
L 106.084489 92.37846 
L 107.099034 92.37846 
L 107.099034 99.267533 
L 108.11358 99.267533 
L 108.11358 107.292167 
L 109.128125 107.292167 
L 109.128125 111.985821 
L 110.14267 111.985821 
L 110.14267 120.616087 
L 111.157216 120.616087 
L 111.157216 126.823823 
L 112.171761 126.823823 
L 112.171761 134.394232 
L 113.186307 134.394232 
L 113.186307 141.737529 
L 114.200852 141.737529 
L 114.200852 145.82555 
L 115.215398 145.82555 
L 115.215398 155.515674 
L 116.229943 155.515674 
L 116.229943 167.022696 
L 117.244489 167.022696 
L 117.244489 173.911769 
L 118.259034 173.911769 
L 118.259034 180.422321 
L 119.27358 180.422321 
L 119.27358 187.99273 
L 120.288125 187.99273 
L 120.288125 186.70576 
L 121.30267 186.70576 
L 121.30267 166.871288 
L 122.317216 166.871288 
L 122.317216 146.279775 
L 123.331761 146.279775 
L 123.331761 124.174179 
L 124.346307 124.174179 
L 124.346307 95.179512 
L 125.360852 95.179512 
L 125.360852 91.242899 
L 126.375398 91.242899 
L 126.375398 86.473541 
L 127.389943 86.473541 
L 127.389943 86.322133 
L 128.404489 86.322133 
L 128.404489 93.816838 
L 129.419034 93.816838 
L 129.419034 102.295697 
L 130.43358 102.295697 
L 130.43358 95.70944 
L 131.448125 95.70944 
L 131.448125 94.119655 
L 132.46267 94.119655 
L 132.46267 95.785145 
L 133.477216 95.785145 
L 133.477216 97.526339 
L 134.491761 97.526339 
L 134.491761 101.917176 
L 135.506307 101.917176 
L 135.506307 100.857319 
L 136.520852 100.857319 
L 136.520852 108.200616 
L 137.535398 108.200616 
L 137.535398 107.594983 
L 138.549943 107.594983 
L 138.549943 110.623147 
L 139.564489 110.623147 
L 139.564489 112.667157 
L 140.579034 112.667157 
L 140.579034 110.32033 
L 141.59358 110.32033 
L 141.59358 114.93828 
L 142.608125 114.93828 
L 142.608125 108.881953 
L 143.62267 108.881953 
L 143.62267 111.985821 
L 144.637216 111.985821 
L 144.637216 113.575606 
L 145.651761 113.575606 
L 145.651761 116.60377 
L 146.666307 116.60377 
L 146.666307 125.385445 
L 147.680852 125.385445 
L 147.680852 123.114322 
L 148.695398 123.114322 
L 148.695398 121.373128 
L 149.709943 121.373128 
L 149.709943 122.660098 
L 150.724489 122.660098 
L 150.724489 126.823823 
L 151.739034 126.823823 
L 151.739034 121.827353 
L 152.75358 121.827353 
L 152.75358 125.688261 
L 153.768125 125.688261 
L 153.768125 121.524536 
L 154.78267 121.524536 
L 154.78267 129.019241 
L 155.797216 129.019241 
L 155.797216 130.911844 
L 156.811761 130.911844 
L 156.811761 135.302681 
L 157.826307 135.302681 
L 157.826307 125.006925 
L 158.840852 125.006925 
L 158.840852 129.851986 
L 159.855398 129.851986 
L 159.855398 134.015712 
L 160.869943 134.015712 
L 160.869943 139.769223 
L 161.884489 139.769223 
L 161.884489 138.633661 
L 162.899034 138.633661 
L 162.899034 151.200541 
L 163.91358 151.200541 
L 163.91358 151.806173 
L 164.928125 151.806173 
L 164.928125 151.276245 
L 165.94267 151.276245 
L 165.94267 148.475193 
L 166.957216 148.475193 
L 166.957216 155.288562 
L 167.971761 155.288562 
L 167.971761 163.237492 
L 168.986307 163.237492 
L 168.986307 162.707563 
L 170.000852 162.707563 
L 170.000852 157.559685 
L 171.015398 157.559685 
L 171.015398 155.137154 
L 172.029943 155.137154 
L 172.029943 153.395959 
L 173.044489 153.395959 
L 173.044489 145.976958 
L 174.059034 145.976958 
L 174.059034 138.860774 
L 175.07358 138.860774 
L 175.07358 136.589651 
L 176.088125 136.589651 
L 176.088125 136.438243 
L 177.10267 136.438243 
L 177.10267 134.091416 
L 178.117216 134.091416 
L 178.117216 140.82908 
L 179.131761 140.82908 
L 179.131761 144.917101 
L 180.146307 144.917101 
L 180.146307 152.638919 
L 181.160852 152.638919 
L 181.160852 155.742786 
L 182.175398 155.742786 
L 182.175398 150.064979 
L 183.189943 150.064979 
L 183.189943 155.43997 
L 184.204489 155.43997 
L 184.204489 155.591378 
L 185.219034 155.591378 
L 185.219034 158.998062 
L 186.23358 158.998062 
L 186.23358 158.39243 
L 187.248125 158.39243 
L 187.248125 157.786797 
L 188.26267 157.786797 
L 188.26267 156.72694 
L 189.277216 156.72694 
L 189.277216 162.026226 
L 190.291761 162.026226 
L 190.291761 162.329042 
L 191.306307 162.329042 
L 191.306307 159.300879 
L 192.320852 159.300879 
L 192.320852 158.165317 
L 193.335398 158.165317 
L 193.335398 160.512144 
L 194.349943 160.512144 
L 194.349943 163.464604 
L 195.364489 163.464604 
L 195.364489 170.732197 
L 196.379034 170.732197 
L 196.379034 169.218115 
L 197.39358 169.218115 
L 197.39358 167.628329 
L 198.408125 167.628329 
L 198.408125 173.836065 
L 199.42267 173.836065 
L 199.42267 176.864228 
L 200.437216 176.864228 
L 200.437216 179.286759 
L 201.451761 179.286759 
L 201.451761 176.637116 
L 202.466307 176.637116 
L 202.466307 181.027953 
L 203.480852 181.027953 
L 203.480852 187.159985 
L 204.495398 187.159985 
L 204.495398 184.358934 
L 205.509943 184.358934 
L 205.509943 189.582516 
L 207.539034 189.506812 
L 207.539034 188.144138 
L 208.55358 188.144138 
L 208.55358 188.295546 
L 209.568125 188.295546 
L 209.568125 190.415261 
L 210.58267 190.415261 
L 210.58267 194.200466 
L 211.597216 194.200466 
L 211.597216 196.698701 
L 212.611761 196.698701 
L 212.611761 198.439895 
L 213.626307 198.439895 
L 213.626307 196.925813 
L 214.640852 196.925813 
L 214.640852 197.228629 
L 215.655398 197.228629 
L 215.655398 193.519129 
L 216.669943 193.519129 
L 216.669943 195.260323 
L 217.684489 195.260323 
L 217.684489 188.522659 
L 218.699034 188.522659 
L 218.699034 189.885332 
L 219.71358 189.885332 
L 219.71358 190.188149 
L 220.728125 190.188149 
L 220.728125 182.466331 
L 221.74267 182.466331 
L 221.74267 185.721607 
L 222.757216 185.721607 
L 222.757216 184.056117 
L 223.771761 184.056117 
L 223.771761 191.929343 
L 224.786307 191.929343 
L 224.786307 194.881802 
L 225.800852 194.881802 
L 225.800852 192.232159 
L 226.815398 192.232159 
L 226.815398 196.168772 
L 227.829943 196.168772 
L 227.829943 195.638843 
L 228.844489 195.638843 
L 228.844489 198.061374 
L 229.859034 198.061374 
L 229.859034 198.288487 
L 230.87358 198.288487 
L 230.87358 198.667007 
L 231.888125 198.667007 
L 231.888125 201.31665 
L 232.90267 201.31665 
L 232.90267 201.089538 
L 233.917216 201.089538 
L 233.917216 203.057845 
L 234.931761 203.057845 
L 234.931761 203.209253 
L 235.946307 203.209253 
L 235.946307 202.452212 
L 236.960852 202.452212 
L 236.960852 201.165242 
L 237.975398 201.165242 
L 237.975398 203.436365 
L 238.989943 203.436365 
L 238.989943 203.209253 
L 240.004489 203.209253 
L 240.004489 204.344814 
L 241.019034 204.344814 
L 241.019034 205.101855 
L 242.03358 205.101855 
L 242.03358 204.950447 
L 243.048125 204.950447 
L 243.048125 208.054315 
L 244.06267 208.054315 
L 244.06267 206.540233 
L 245.077216 206.540233 
L 245.077216 209.114172 
L 246.091761 209.114172 
L 246.091761 208.88706 
L 247.106307 208.88706 
L 247.106307 209.416988 
L 248.120852 209.416988 
L 248.120852 211.006774 
L 250.149943 211.082478 
L 250.149943 211.158183 
L 251.164489 211.158183 
L 251.164489 212.369448 
L 252.179034 212.369448 
L 252.179034 214.489163 
L 253.19358 214.489163 
L 253.19358 213.807826 
L 255.22267 213.732122 
L 255.22267 214.489163 
L 256.237216 214.489163 
L 256.237216 214.640571 
L 257.251761 214.640571 
L 257.251761 213.88353 
L 258.266307 213.88353 
L 258.266307 209.795509 
L 259.280852 209.795509 
L 259.280852 208.811356 
L 260.295398 208.811356 
L 260.295398 208.962764 
L 261.309943 208.962764 
L 261.309943 206.388825 
L 262.324489 206.388825 
L 262.324489 204.26911 
L 263.339034 204.26911 
L 263.339034 207.372978 
L 264.35358 207.372978 
L 264.35358 205.707488 
L 265.368125 205.707488 
L 265.368125 207.070161 
L 266.38267 207.070161 
L 266.38267 208.88706 
L 267.397216 208.88706 
L 267.397216 206.540233 
L 268.411761 206.540233 
L 268.411761 208.054315 
L 269.426307 208.054315 
L 269.426307 208.205723 
L 270.440852 208.205723 
L 270.440852 209.038468 
L 271.455398 209.038468 
L 271.455398 207.372978 
L 272.469943 207.372978 
L 272.469943 210.855366 
L 273.484489 210.855366 
L 273.484489 209.416988 
L 274.499034 209.416988 
L 274.499034 210.855366 
L 276.528125 210.93107 
L 276.528125 211.915223 
L 277.54267 211.915223 
L 277.54267 211.385295 
L 279.571761 211.309591 
L 279.571761 212.672264 
L 280.586307 212.672264 
L 280.586307 211.915223 
L 281.600852 211.915223 
L 281.600852 213.807826 
L 282.615398 213.807826 
L 282.615398 213.656418 
L 283.629943 213.656418 
L 283.629943 213.353601 
L 284.644489 213.353601 
L 284.644489 214.337754 
L 286.67358 214.26205 
L 286.67358 214.716275 
L 287.688125 214.716275 
L 287.688125 214.867683 
L 288.70267 214.867683 
L 288.70267 214.564867 
L 289.717216 214.564867 
L 289.717216 214.716275 
L 290.731761 214.716275 
L 290.731761 215.246204 
L 291.746307 215.246204 
L 291.746307 215.397612 
L 292.760852 215.397612 
L 292.760852 216.078949 
L 293.775398 216.078949 
L 293.775398 216.230357 
L 294.789943 216.230357 
L 294.789943 216.835989 
L 295.804489 216.835989 
L 295.804489 217.365918 
L 296.819034 217.365918 
L 296.819034 217.517326 
L 297.83358 217.517326 
L 297.83358 217.138806 
L 298.848125 217.138806 
L 298.848125 215.624724 
L 299.86267 215.624724 
L 299.86267 214.337754 
L 300.877216 214.337754 
L 300.877216 212.520856 
L 301.891761 212.520856 
L 301.891761 212.672264 
L 302.906307 212.672264 
L 302.906307 211.763815 
L 303.920852 211.763815 
L 303.920852 210.476846 
L 304.935398 210.476846 
L 304.935398 210.022621 
L 305.949943 210.022621 
L 305.949943 206.086008 
L 306.964489 206.086008 
L 306.964489 205.858896 
L 307.979034 205.858896 
L 307.979034 205.631784 
L 308.99358 205.631784 
L 308.99358 203.284957 
L 310.008125 203.284957 
L 310.008125 202.452212 
L 311.02267 202.452212 
L 311.02267 201.392354 
L 312.037216 201.392354 
L 312.037216 204.117702 
L 313.051761 204.117702 
L 313.051761 204.26911 
L 315.080852 204.344814 
L 315.080852 203.663477 
L 316.095398 203.663477 
L 316.095398 203.512069 
L 317.109943 203.512069 
L 317.109943 202.376508 
L 318.124489 202.376508 
L 318.124489 202.755028 
L 319.139034 202.755028 
L 319.139034 202.2251 
L 320.15358 202.2251 
L 320.15358 205.404671 
L 321.168125 205.404671 
L 321.168125 203.512069 
L 322.18267 203.512069 
L 322.18267 206.086008 
L 323.197216 206.086008 
L 323.197216 205.026151 
L 324.211761 205.026151 
L 324.211761 207.297274 
L 325.226307 207.297274 
L 325.226307 208.357131 
L 326.240852 208.357131 
L 326.240852 205.631784 
L 327.255398 205.631784 
L 327.255398 207.372978 
L 329.284489 207.297274 
L 329.284489 209.189876 
L 330.299034 209.189876 
L 330.299034 206.237416 
L 331.31358 206.237416 
L 331.31358 209.416988 
L 332.328125 209.416988 
L 332.328125 209.568397 
L 333.34267 209.568397 
L 333.34267 211.385295 
L 334.357216 211.385295 
L 334.357216 209.568397 
L 335.371761 209.568397 
L 335.371761 210.401142 
L 336.386307 210.401142 
L 336.386307 207.827202 
L 337.400852 207.827202 
L 337.400852 210.703958 
L 338.415398 210.703958 
L 338.415398 210.476846 
L 339.429943 210.476846 
L 339.429943 210.174029 
L 340.444489 210.174029 
L 340.444489 209.644101 
L 341.459034 209.644101 
L 341.459034 211.082478 
L 342.47358 211.082478 
L 342.47358 210.55255 
L 343.488125 210.55255 
L 343.488125 213.505009 
L 346.531761 213.429305 
L 346.531761 214.489163 
L 347.546307 214.489163 
L 347.546307 215.776132 
L 348.560852 215.776132 
L 348.560852 215.321908 
L 349.575398 215.321908 
L 349.575398 216.003244 
L 350.589943 216.003244 
L 350.589943 217.517326 
L 351.604489 217.517326 
L 351.604489 218.198663 
L 352.619034 218.198663 
L 352.619034 218.88 
L 372.909943 218.88 
L 372.909943 218.88 
" clip-path="url(#p331a671546)" style="fill: none; stroke: #1f77b4; stroke-width: 1.5; stroke-linecap: square"/>
   </g>
  </g>
 </g>
 <defs>
  <clipPath id="p331a671546">
   <rect x="53.328125" y="7.2" width="334.8" height="221.76"/>
  </clipPath>
 </defs>
</svg>
