<?xml version="1.0" encoding="utf-8" standalone="no"?>
<!DOCTYPE svg PUBLIC "-//W3C//DTD SVG 1.1//EN"
  "http://www.w3.org/Graphics/SVG/1.1/DTD/svg11.dtd">
<svg xmlns:xlink="http://www.w3.org/1999/xlink" width="401.690625pt" height="266.51625pt" viewBox="0 0 401.690625 266.51625" xmlns="http://www.w3.org/2000/svg" version="1.1">
 <metadata>
  <rdf:RDF xmlns:dc="http://purl.org/dc/elements/1.1/" xmlns:cc="http://creativecommons.org/ns#" xmlns:rdf="http://www.w3.org/1999/02/22-rdf-syntax-ns#">
   <cc:Work>
    <dc:type rdf:resource="http://purl.org/dc/dcmitype/StillImage"/>
    <dc:date>2026-01-15T09:10:30.797504</dc:date>
    <dc:format>image/svg+xml</dc:format>
    <dc:creator>
     <cc:Agent>
      <dc:title>Matplotlib v3.10.7, https://matplotlib.org/</dc:title>
     </cc:Agent>
    </dc:creator>
   </cc:Work>
  </rdf:RDF>
 </metadata>
 <defs>
  <style type="text/css">*{stroke-linejoin: round; stroke-linecap: butt}</style>
 </defs>
 <g id="figure_1">
  <g id="patch_1">
   <path d="M 0 266.51625 
L 401.690625 266.51625 
L 401.690625 0 
L 0 0 
z
" style="fill: #ffffff"/>
  </g>
  <g id="axes_1">
   <g id="patch_2">
    <path d="M 59.690625 228.96 
L 394.490625 228.96 
L 394.490625 7.2 
L 59.690625 7.2 
z
" style="fill: #ffffff"/>
   </g>
   <g id="matplotlib.axis_1">
    <g id="xtick_1">
     <g id="line2d_1">
      <defs>
       <path id="md0d018211d" d="M 0 0 
L 0 3.5 
" style="stroke: #000000; stroke-width: 0.8"/>
      </defs>
      <g>
       <use xlink:href="#md0d018211d" x="81.17892" y="228.96" style="stroke: #000000; stroke-width: 0.8"/>
      </g>
     </g>
     <g id="text_1">
      <!-- 20000 -->
      <g transform="translate(65.27267 243.558437) scale(0.1 -0.1)">
       <defs>
        <path id="DejaVuSans-32" d="M 1228 531 
L 3431 531 
L 3431 0 
L 469 0 
L 469 531 
Q 828 903 1448 1529 
Q 2069 2156 2228 2338 
Q 2531 2678 2651 2914 
Q 2772 3150 2772 3378 
Q 2772 3750 2511 3984 
Q 2250 4219 1831 4219 
Q 1534 4219 1204 4116 
Q 875 4013 500 3803 
L 500 4441 
Q 881 4594 1212 4672 
Q 1544 4750 1819 4750 
Q 2544 4750 2975 4387 
Q 3406 4025 3406 3419 
Q 3406 3131 3298 2873 
Q 3191 2616 2906 2266 
Q 2828 2175 2409 1742 
Q 1991 1309 1228 531 
z
" transform="scale(0.015625)"/>
        <path id="DejaVuSans-30" d="M 2034 4250 
Q 1547 4250 1301 3770 
Q 1056 3291 1056 2328 
Q 1056 1369 1301 889 
Q 1547 409 2034 409 
Q 2525 409 2770 889 
Q 3016 1369 3016 2328 
Q 3016 3291 2770 3770 
Q 2525 4250 2034 4250 
z
M 2034 4750 
Q 2819 4750 3233 4129 
Q 3647 3509 3647 2328 
Q 3647 1150 3233 529 
Q 2819 -91 2034 -91 
Q 1250 -91 836 529 
Q 422 1150 422 2328 
Q 422 3509 836 4129 
Q 1250 4750 2034 4750 
z
" transform="scale(0.015625)"/>
       </defs>
       <use xlink:href="#DejaVuSans-32"/>
       <use xlink:href="#DejaVuSans-30" transform="translate(63.623047 0)"/>
       <use xlink:href="#DejaVuSans-30" transform="translate(127.246094 0)"/>
       <use xlink:href="#DejaVuSans-30" transform="translate(190.869141 0)"/>
       <use xlink:href="#DejaVuSans-30" transform="translate(254.492188 0)"/>
      </g>
     </g>
    </g>
    <g id="xtick_2">
     <g id="line2d_2">
      <g>
       <use xlink:href="#md0d018211d" x="121.760738" y="228.96" style="stroke: #000000; stroke-width: 0.8"/>
      </g>
     </g>
     <g id="text_2">
      <!-- 40000 -->
      <g transform="translate(105.854488 243.558437) scale(0.1 -0.1)">
       <defs>
        <path id="DejaVuSans-34" d="M 2419 4116 
L 825 1625 
L 2419 1625 
L 2419 4116 
z
M 2253 4666 
L 3047 4666 
L 3047 1625 
L 3713 1625 
L 3713 1100 
L 3047 1100 
L 3047 0 
L 2419 0 
L 2419 1100 
L 313 1100 
L 313 1709 
L 2253 4666 
z
" transform="scale(0.015625)"/>
       </defs>
       <use xlink:href="#DejaVuSans-34"/>
       <use xlink:href="#DejaVuSans-30" transform="translate(63.623047 0)"/>
       <use xlink:href="#DejaVuSans-30" transform="translate(127.246094 0)"/>
       <use xlink:href="#DejaVuSans-30" transform="translate(190.869141 0)"/>
       <use xlink:href="#DejaVuSans-30" transform="translate(254.492188 0)"/>
      </g>
     </g>
    </g>
    <g id="xtick_3">
     <g id="line2d_3">
      <g>
       <use xlink:href="#md0d018211d" x="162.342556" y="228.96" style="stroke: #000000; stroke-width: 0.8"/>
      </g>
     </g>
     <g id="text_3">
      <!-- 60000 -->
      <g transform="translate(146.436306 243.558437) scale(0.1 -0.1)">
       <defs>
        <path id="DejaVuSans-36" d="M 2113 2584 
Q 1688 2584 1439 2293 
Q 1191 2003 1191 1497 
Q 1191 994 1439 701 
Q 1688 409 2113 409 
Q 2538 409 2786 701 
Q 3034 994 3034 1497 
Q 3034 2003 2786 2293 
Q 2538 2584 2113 2584 
z
M 3366 4563 
L 3366 3988 
Q 3128 4100 2886 4159 
Q 2644 4219 2406 4219 
Q 1781 4219 1451 3797 
Q 1122 3375 1075 2522 
Q 1259 2794 1537 2939 
Q 1816 3084 2150 3084 
Q 2853 3084 3261 2657 
Q 3669 2231 3669 1497 
Q 3669 778 3244 343 
Q 2819 -91 2113 -91 
Q 1303 -91 875 529 
Q 447 1150 447 2328 
Q 447 3434 972 4092 
Q 1497 4750 2381 4750 
Q 2619 4750 2861 4703 
Q 3103 4656 3366 4563 
z
" transform="scale(0.015625)"/>
       </defs>
       <use xlink:href="#DejaVuSans-36"/>
       <use xlink:href="#DejaVuSans-30" transform="translate(63.623047 0)"/>
       <use xlink:href="#DejaVuSans-30" transform="translate(127.246094 0)"/>
       <use xlink:href="#DejaVuSans-30" transform="translate(190.869141 0)"/>
       <use xlink:href="#DejaVuSans-30" transform="translate(254.492188 0)"/>
      </g>
     </g>
    </g>
    <g id="xtick_4">
     <g id="line2d_4">
      <g>
       <use xlink:href="#md0d018211d" x="202.924374" y="228.96" style="stroke: #000000; stroke-width: 0.8"/>
      </g>
     </g>
     <g id="text_4">
      <!-- 80000 -->
      <g transform="translate(187.018124 243.558437) scale(0.1 -0.1)">
       <defs>
        <path id="DejaVuSans-38" d="M 2034 2216 
Q 1584 2216 1326 1975 
Q 1069 1734 1069 1313 
Q 1069 891 1326 650 
Q 1584 409 2034 409 
Q 2484 409 2743 651 
Q 3003 894 3003 1313 
Q 3003 1734 2745 1975 
Q 2488 2216 2034 2216 
z
M 1403 2484 
Q 997 2584 770 2862 
Q 544 3141 544 3541 
Q 544 4100 942 4425 
Q 1341 4750 2034 4750 
Q 2731 4750 3128 4425 
Q 3525 4100 3525 3541 
Q 3525 3141 3298 2862 
Q 3072 2584 2669 2484 
Q 3125 2378 3379 2068 
Q 3634 1759 3634 1313 
Q 3634 634 3220 271 
Q 2806 -91 2034 -91 
Q 1263 -91 848 271 
Q 434 634 434 1313 
Q 434 1759 690 2068 
Q 947 2378 1403 2484 
z
M 1172 3481 
Q 1172 3119 1398 2916 
Q 1625 2713 2034 2713 
Q 2441 2713 2670 2916 
Q 2900 3119 2900 3481 
Q 2900 3844 2670 4047 
Q 2441 4250 2034 4250 
Q 1625 4250 1398 4047 
Q 1172 3844 1172 3481 
z
" transform="scale(0.015625)"/>
       </defs>
       <use xlink:href="#DejaVuSans-38"/>
       <use xlink:href="#DejaVuSans-30" transform="translate(63.623047 0)"/>
       <use xlink:href="#DejaVuSans-30" transform="translate(127.246094 0)"/>
       <use xlink:href="#DejaVuSans-30" transform="translate(190.869141 0)"/>
       <use xlink:href="#DejaVuSans-30" transform="translate(254.492188 0)"/>
      </g>
     </g>
    </g>
    <g id="xtick_5">
     <g id="line2d_5">
      <g>
       <use xlink:href="#md0d018211d" x="243.506192" y="228.96" style="stroke: #000000; stroke-width: 0.8"/>
      </g>
     </g>
     <g id="text_5">
      <!-- 100000 -->
      <g transform="translate(224.418692 243.558437) scale(0.1 -0.1)">
       <defs>
        <path id="DejaVuSans-31" d="M 794 531 
L 1825 531 
L 1825 4091 
L 703 3866 
L 703 4441 
L 1819 4666 
L 2450 4666 
L 2450 531 
L 3481 531 
L 3481 0 
L 794 0 
L 794 531 
z
" transform="scale(0.015625)"/>
       </defs>
       <use xlink:href="#DejaVuSans-31"/>
       <use xlink:href="#DejaVuSans-30" transform="translate(63.623047 0)"/>
       <use xlink:href="#DejaVuSans-30" transform="translate(127.246094 0)"/>
       <use xlink:href="#DejaVuSans-30" transform="translate(190.869141 0)"/>
       <use xlink:href="#DejaVuSans-30" transform="translate(254.492188 0)"/>
       <use xlink:href="#DejaVuSans-30" transform="translate(318.115234 0)"/>
      </g>
     </g>
    </g>
    <g id="xtick_6">
     <g id="line2d_6">
      <g>
       <use xlink:href="#md0d018211d" x="284.08801" y="228.96" style="stroke: #000000; stroke-width: 0.8"/>
      </g>
     </g>
     <g id="text_6">
      <!-- 120000 -->
      <g transform="translate(265.00051 243.558437) scale(0.1 -0.1)">
       <use xlink:href="#DejaVuSans-31"/>
       <use xlink:href="#DejaVuSans-32" transform="translate(63.623047 0)"/>
       <use xlink:href="#DejaVuSans-30" transform="translate(127.246094 0)"/>
       <use xlink:href="#DejaVuSans-30" transform="translate(190.869141 0)"/>
       <use xlink:href="#DejaVuSans-30" transform="translate(254.492188 0)"/>
       <use xlink:href="#DejaVuSans-30" transform="translate(318.115234 0)"/>
      </g>
     </g>
    </g>
    <g id="xtick_7">
     <g id="line2d_7">
      <g>
       <use xlink:href="#md0d018211d" x="324.669829" y="228.96" style="stroke: #000000; stroke-width: 0.8"/>
      </g>
     </g>
     <g id="text_7">
      <!-- 140000 -->
      <g transform="translate(305.582329 243.558437) scale(0.1 -0.1)">
       <use xlink:href="#DejaVuSans-31"/>
       <use xlink:href="#DejaVuSans-34" transform="translate(63.623047 0)"/>
       <use xlink:href="#DejaVuSans-30" transform="translate(127.246094 0)"/>
       <use xlink:href="#DejaVuSans-30" transform="translate(190.869141 0)"/>
       <use xlink:href="#DejaVuSans-30" transform="translate(254.492188 0)"/>
       <use xlink:href="#DejaVuSans-30" transform="translate(318.115234 0)"/>
      </g>
     </g>
    </g>
    <g id="xtick_8">
     <g id="line2d_8">
      <g>
       <use xlink:href="#md0d018211d" x="365.251647" y="228.96" style="stroke: #000000; stroke-width: 0.8"/>
      </g>
     </g>
     <g id="text_8">
      <!-- 160000 -->
      <g transform="translate(346.164147 243.558437) scale(0.1 -0.1)">
       <use xlink:href="#DejaVuSans-31"/>
       <use xlink:href="#DejaVuSans-36" transform="translate(63.623047 0)"/>
       <use xlink:href="#DejaVuSans-30" transform="translate(127.246094 0)"/>
       <use xlink:href="#DejaVuSans-30" transform="translate(190.869141 0)"/>
       <use xlink:href="#DejaVuSans-30" transform="translate(254.492188 0)"/>
       <use xlink:href="#DejaVuSans-30" transform="translate(318.115234 0)"/>
      </g>
     </g>
    </g>
    <g id="text_9">
     <!-- tof [µs] -->
     <g transform="translate(209.034375 257.236562) scale(0.1 -0.1)">
      <defs>
       <path id="DejaVuSans-74" d="M 1172 4494 
L 1172 3500 
L 2356 3500 
L 2356 3053 
L 1172 3053 
L 1172 1153 
Q 1172 725 1289 603 
Q 1406 481 1766 481 
L 2356 481 
L 2356 0 
L 1766 0 
Q 1100 0 847 248 
Q 594 497 594 1153 
L 594 3053 
L 172 3053 
L 172 3500 
L 594 3500 
L 594 4494 
L 1172 4494 
z
" transform="scale(0.015625)"/>
       <path id="DejaVuSans-6f" d="M 1959 3097 
Q 1497 3097 1228 2736 
Q 959 2375 959 1747 
Q 959 1119 1226 758 
Q 1494 397 1959 397 
Q 2419 397 2687 759 
Q 2956 1122 2956 1747 
Q 2956 2369 2687 2733 
Q 2419 3097 1959 3097 
z
M 1959 3584 
Q 2709 3584 3137 3096 
Q 3566 2609 3566 1747 
Q 3566 888 3137 398 
Q 2709 -91 1959 -91 
Q 1206 -91 779 398 
Q 353 888 353 1747 
Q 353 2609 779 3096 
Q 1206 3584 1959 3584 
z
" transform="scale(0.015625)"/>
       <path id="DejaVuSans-66" d="M 2375 4863 
L 2375 4384 
L 1825 4384 
Q 1516 4384 1395 4259 
Q 1275 4134 1275 3809 
L 1275 3500 
L 2222 3500 
L 2222 3053 
L 1275 3053 
L 1275 0 
L 697 0 
L 697 3053 
L 147 3053 
L 147 3500 
L 697 3500 
L 697 3744 
Q 697 4328 969 4595 
Q 1241 4863 1831 4863 
L 2375 4863 
z
" transform="scale(0.015625)"/>
       <path id="DejaVuSans-20" transform="scale(0.015625)"/>
       <path id="DejaVuSans-5b" d="M 550 4863 
L 1875 4863 
L 1875 4416 
L 1125 4416 
L 1125 -397 
L 1875 -397 
L 1875 -844 
L 550 -844 
L 550 4863 
z
" transform="scale(0.015625)"/>
       <path id="DejaVuSans-b5" d="M 544 -1331 
L 544 3500 
L 1119 3500 
L 1119 1325 
Q 1119 872 1334 640 
Q 1550 409 1972 409 
Q 2434 409 2667 671 
Q 2900 934 2900 1459 
L 2900 3500 
L 3475 3500 
L 3475 806 
Q 3475 619 3529 530 
Q 3584 441 3700 441 
Q 3728 441 3778 458 
Q 3828 475 3916 513 
L 3916 50 
Q 3788 -22 3673 -56 
Q 3559 -91 3450 -91 
Q 3234 -91 3106 31 
Q 2978 153 2931 403 
Q 2775 156 2548 32 
Q 2322 -91 2016 -91 
Q 1697 -91 1473 31 
Q 1250 153 1119 397 
L 1119 -1331 
L 544 -1331 
z
" transform="scale(0.015625)"/>
       <path id="DejaVuSans-73" d="M 2834 3397 
L 2834 2853 
Q 2591 2978 2328 3040 
Q 2066 3103 1784 3103 
Q 1356 3103 1142 2972 
Q 928 2841 928 2578 
Q 928 2378 1081 2264 
Q 1234 2150 1697 2047 
L 1894 2003 
Q 2506 1872 2764 1633 
Q 3022 1394 3022 966 
Q 3022 478 2636 193 
Q 2250 -91 1575 -91 
Q 1294 -91 989 -36 
Q 684 19 347 128 
L 347 722 
Q 666 556 975 473 
Q 1284 391 1588 391 
Q 1994 391 2212 530 
Q 2431 669 2431 922 
Q 2431 1156 2273 1281 
Q 2116 1406 1581 1522 
L 1381 1569 
Q 847 1681 609 1914 
Q 372 2147 372 2553 
Q 372 3047 722 3315 
Q 1072 3584 1716 3584 
Q 2034 3584 2315 3537 
Q 2597 3491 2834 3397 
z
" transform="scale(0.015625)"/>
       <path id="DejaVuSans-5d" d="M 1947 4863 
L 1947 -844 
L 622 -844 
L 622 -397 
L 1369 -397 
L 1369 4416 
L 622 4416 
L 622 4863 
L 1947 4863 
z
" transform="scale(0.015625)"/>
      </defs>
      <use xlink:href="#DejaVuSans-74"/>
      <use xlink:href="#DejaVuSans-6f" transform="translate(39.208984 0)"/>
      <use xlink:href="#DejaVuSans-66" transform="translate(100.390625 0)"/>
      <use xlink:href="#DejaVuSans-20" transform="translate(135.595703 0)"/>
      <use xlink:href="#DejaVuSans-5b" transform="translate(167.382812 0)"/>
      <use xlink:href="#DejaVuSans-b5" transform="translate(206.396484 0)"/>
      <use xlink:href="#DejaVuSans-73" transform="translate(270.019531 0)"/>
      <use xlink:href="#DejaVuSans-5d" transform="translate(322.119141 0)"/>
     </g>
    </g>
   </g>
   <g id="matplotlib.axis_2">
    <g id="ytick_1">
     <g id="line2d_9">
      <defs>
       <path id="m7df33e7fe6" d="M 0 0 
L -3.5 0 
" style="stroke: #000000; stroke-width: 0.8"/>
      </defs>
      <g>
       <use xlink:href="#m7df33e7fe6" x="59.690625" y="218.88" style="stroke: #000000; stroke-width: 0.8"/>
      </g>
     </g>
     <g id="text_10">
      <!-- 0 -->
      <g transform="translate(46.328125 222.679219) scale(0.1 -0.1)">
       <use xlink:href="#DejaVuSans-30"/>
      </g>
     </g>
    </g>
    <g id="ytick_2">
     <g id="line2d_10">
      <g>
       <use xlink:href="#m7df33e7fe6" x="59.690625" y="186.253361" style="stroke: #000000; stroke-width: 0.8"/>
      </g>
     </g>
     <g id="text_11">
      <!-- 2000 -->
      <g transform="translate(27.240625 190.05258) scale(0.1 -0.1)">
       <use xlink:href="#DejaVuSans-32"/>
       <use xlink:href="#DejaVuSans-30" transform="translate(63.623047 0)"/>
       <use xlink:href="#DejaVuSans-30" transform="translate(127.246094 0)"/>
       <use xlink:href="#DejaVuSans-30" transform="translate(190.869141 0)"/>
      </g>
     </g>
    </g>
    <g id="ytick_3">
     <g id="line2d_11">
      <g>
       <use xlink:href="#m7df33e7fe6" x="59.690625" y="153.626723" style="stroke: #000000; stroke-width: 0.8"/>
      </g>
     </g>
     <g id="text_12">
      <!-- 4000 -->
      <g transform="translate(27.240625 157.425942) scale(0.1 -0.1)">
       <use xlink:href="#DejaVuSans-34"/>
       <use xlink:href="#DejaVuSans-30" transform="translate(63.623047 0)"/>
       <use xlink:href="#DejaVuSans-30" transform="translate(127.246094 0)"/>
       <use xlink:href="#DejaVuSans-30" transform="translate(190.869141 0)"/>
      </g>
     </g>
    </g>
    <g id="ytick_4">
     <g id="line2d_12">
      <g>
       <use xlink:href="#m7df33e7fe6" x="59.690625" y="121.000084" style="stroke: #000000; stroke-width: 0.8"/>
      </g>
     </g>
     <g id="text_13">
      <!-- 6000 -->
      <g transform="translate(27.240625 124.799303) scale(0.1 -0.1)">
       <use xlink:href="#DejaVuSans-36"/>
       <use xlink:href="#DejaVuSans-30" transform="translate(63.623047 0)"/>
       <use xlink:href="#DejaVuSans-30" transform="translate(127.246094 0)"/>
       <use xlink:href="#DejaVuSans-30" transform="translate(190.869141 0)"/>
      </g>
     </g>
    </g>
    <g id="ytick_5">
     <g id="line2d_13">
      <g>
       <use xlink:href="#m7df33e7fe6" x="59.690625" y="88.373446" style="stroke: #000000; stroke-width: 0.8"/>
      </g>
     </g>
     <g id="text_14">
      <!-- 8000 -->
      <g transform="translate(27.240625 92.172664) scale(0.1 -0.1)">
       <use xlink:href="#DejaVuSans-38"/>
       <use xlink:href="#DejaVuSans-30" transform="translate(63.623047 0)"/>
       <use xlink:href="#DejaVuSans-30" transform="translate(127.246094 0)"/>
       <use xlink:href="#DejaVuSans-30" transform="translate(190.869141 0)"/>
      </g>
     </g>
    </g>
    <g id="ytick_6">
     <g id="line2d_14">
      <g>
       <use xlink:href="#m7df33e7fe6" x="59.690625" y="55.746807" style="stroke: #000000; stroke-width: 0.8"/>
      </g>
     </g>
     <g id="text_15">
      <!-- 10000 -->
      <g transform="translate(20.878125 59.546026) scale(0.1 -0.1)">
       <use xlink:href="#DejaVuSans-31"/>
       <use xlink:href="#DejaVuSans-30" transform="translate(63.623047 0)"/>
       <use xlink:href="#DejaVuSans-30" transform="translate(127.246094 0)"/>
       <use xlink:href="#DejaVuSans-30" transform="translate(190.869141 0)"/>
       <use xlink:href="#DejaVuSans-30" transform="translate(254.492188 0)"/>
      </g>
     </g>
    </g>
    <g id="ytick_7">
     <g id="line2d_15">
      <g>
       <use xlink:href="#m7df33e7fe6" x="59.690625" y="23.120168" style="stroke: #000000; stroke-width: 0.8"/>
      </g>
     </g>
     <g id="text_16">
      <!-- 12000 -->
      <g transform="translate(20.878125 26.919387) scale(0.1 -0.1)">
       <use xlink:href="#DejaVuSans-31"/>
       <use xlink:href="#DejaVuSans-32" transform="translate(63.623047 0)"/>
       <use xlink:href="#DejaVuSans-30" transform="translate(127.246094 0)"/>
       <use xlink:href="#DejaVuSans-30" transform="translate(190.869141 0)"/>
       <use xlink:href="#DejaVuSans-30" transform="translate(254.492188 0)"/>
      </g>
     </g>
    </g>
    <g id="text_17">
     <!-- [counts] -->
     <g transform="translate(14.798438 138.6925) rotate(-90) scale(0.1 -0.1)">
      <defs>
       <path id="DejaVuSans-63" d="M 3122 3366 
L 3122 2828 
Q 2878 2963 2633 3030 
Q 2388 3097 2138 3097 
Q 1578 3097 1268 2742 
Q 959 2388 959 1747 
Q 959 1106 1268 751 
Q 1578 397 2138 397 
Q 2388 397 2633 464 
Q 2878 531 3122 666 
L 3122 134 
Q 2881 22 2623 -34 
Q 2366 -91 2075 -91 
Q 1284 -91 818 406 
Q 353 903 353 1747 
Q 353 2603 823 3093 
Q 1294 3584 2113 3584 
Q 2378 3584 2631 3529 
Q 2884 3475 3122 3366 
z
" transform="scale(0.015625)"/>
       <path id="DejaVuSans-75" d="M 544 1381 
L 544 3500 
L 1119 3500 
L 1119 1403 
Q 1119 906 1312 657 
Q 1506 409 1894 409 
Q 2359 409 2629 706 
Q 2900 1003 2900 1516 
L 2900 3500 
L 3475 3500 
L 3475 0 
L 2900 0 
L 2900 538 
Q 2691 219 2414 64 
Q 2138 -91 1772 -91 
Q 1169 -91 856 284 
Q 544 659 544 1381 
z
M 1991 3584 
L 1991 3584 
z
" transform="scale(0.015625)"/>
       <path id="DejaVuSans-6e" d="M 3513 2113 
L 3513 0 
L 2938 0 
L 2938 2094 
Q 2938 2591 2744 2837 
Q 2550 3084 2163 3084 
Q 1697 3084 1428 2787 
Q 1159 2491 1159 1978 
L 1159 0 
L 581 0 
L 581 3500 
L 1159 3500 
L 1159 2956 
Q 1366 3272 1645 3428 
Q 1925 3584 2291 3584 
Q 2894 3584 3203 3211 
Q 3513 2838 3513 2113 
z
" transform="scale(0.015625)"/>
      </defs>
      <use xlink:href="#DejaVuSans-5b"/>
      <use xlink:href="#DejaVuSans-63" transform="translate(39.013672 0)"/>
      <use xlink:href="#DejaVuSans-6f" transform="translate(93.994141 0)"/>
      <use xlink:href="#DejaVuSans-75" transform="translate(155.175781 0)"/>
      <use xlink:href="#DejaVuSans-6e" transform="translate(218.554688 0)"/>
      <use xlink:href="#DejaVuSans-74" transform="translate(281.933594 0)"/>
      <use xlink:href="#DejaVuSans-73" transform="translate(321.142578 0)"/>
      <use xlink:href="#DejaVuSans-5d" transform="translate(373.242188 0)"/>
     </g>
    </g>
   </g>
   <g id="line2d_16">
    <path d="M 74.908807 218.765807 
L 77.952443 218.78212 
L 77.952443 218.58636 
L 78.966989 218.58636 
L 78.966989 218.765807 
L 80.99608 218.667927 
L 80.99608 218.58636 
L 82.010625 218.58636 
L 82.010625 218.309034 
L 83.02517 218.309034 
L 83.02517 218.455854 
L 84.039716 218.455854 
L 84.039716 218.080647 
L 86.068807 218.178527 
L 86.068807 217.803321 
L 88.097898 217.835948 
L 88.097898 217.395488 
L 89.112443 217.395488 
L 89.112443 217.150788 
L 90.126989 217.150788 
L 90.126989 216.661389 
L 91.141534 216.661389 
L 91.141534 215.959916 
L 92.15608 215.959916 
L 92.15608 216.074109 
L 93.170625 216.074109 
L 93.170625 215.24213 
L 94.18517 215.24213 
L 94.18517 214.834297 
L 95.199716 214.834297 
L 95.199716 213.170338 
L 96.214261 213.170338 
L 96.214261 211.31062 
L 97.228807 211.31062 
L 97.228807 210.168687 
L 98.243352 210.168687 
L 98.243352 208.357909 
L 99.257898 208.357909 
L 99.257898 205.062619 
L 100.272443 205.062619 
L 100.272443 201.963088 
L 101.286989 201.963088 
L 101.286989 196.302366 
L 102.301534 196.302366 
L 102.301534 194.018501 
L 103.31608 194.018501 
L 103.31608 187.020087 
L 104.330625 187.020087 
L 104.330625 182.109778 
L 105.34517 182.109778 
L 105.34517 173.920492 
L 106.359716 173.920492 
L 106.359716 167.444104 
L 107.374261 167.444104 
L 107.374261 160.98403 
L 108.388807 160.98403 
L 108.388807 153.936676 
L 109.403352 153.936676 
L 109.403352 148.830607 
L 110.417898 148.830607 
L 110.417898 136.383544 
L 111.432443 136.383544 
L 111.432443 126.840252 
L 112.446989 126.840252 
L 112.446989 115.942955 
L 113.461534 115.942955 
L 113.461534 105.747131 
L 114.47608 105.747131 
L 114.47608 103.642712 
L 115.490625 103.642712 
L 115.490625 90.053717 
L 116.50517 90.053717 
L 116.50517 81.342405 
L 117.519716 81.342405 
L 117.519716 70.804001 
L 118.534261 70.804001 
L 118.534261 57.508645 
L 119.548807 57.508645 
L 119.548807 53.348749 
L 120.563352 53.348749 
L 120.563352 46.529782 
L 121.577898 46.529782 
L 121.577898 51.750044 
L 122.592443 51.750044 
L 122.592443 38.634135 
L 123.606989 38.634135 
L 123.606989 30.493789 
L 124.621534 30.493789 
L 124.621534 37.687962 
L 125.63608 37.687962 
L 125.63608 27.410571 
L 126.650625 27.410571 
L 126.650625 28.275177 
L 127.66517 28.275177 
L 127.66517 31.342081 
L 128.679716 31.342081 
L 128.679716 29.694436 
L 129.694261 29.694436 
L 129.694261 22.467636 
L 130.708807 22.467636 
L 130.708807 28.764577 
L 131.723352 28.764577 
L 131.723352 30.917935 
L 132.737898 30.917935 
L 132.737898 24.588367 
L 133.752443 24.588367 
L 133.752443 26.203386 
L 134.766989 26.203386 
L 134.766989 30.722175 
L 135.781534 30.722175 
L 135.781534 17.28 
L 136.79608 17.28 
L 136.79608 28.144671 
L 137.810625 28.144671 
L 137.810625 25.38772 
L 138.82517 25.38772 
L 138.82517 23.381181 
L 139.839716 23.381181 
L 139.839716 34.882072 
L 140.854261 34.882072 
L 140.854261 29.678123 
L 141.868807 29.678123 
L 141.868807 37.785842 
L 142.883352 37.785842 
L 142.883352 40.885373 
L 143.897898 40.885373 
L 143.897898 37.394323 
L 144.912443 37.394323 
L 144.912443 38.356809 
L 145.926989 38.356809 
L 145.926989 49.400926 
L 146.941534 49.400926 
L 146.941534 56.725606 
L 147.95608 56.725606 
L 147.95608 58.895278 
L 148.970625 58.895278 
L 148.970625 60.559236 
L 149.98517 60.559236 
L 149.98517 57.965418 
L 150.999716 57.965418 
L 150.999716 63.72402 
L 152.014261 63.72402 
L 152.014261 75.632743 
L 153.028807 75.632743 
L 153.028807 77.753475 
L 154.043352 77.753475 
L 154.043352 85.698061 
L 155.057898 85.698061 
L 155.057898 73.299939 
L 156.072443 73.299939 
L 156.072443 91.472976 
L 157.086989 91.472976 
L 157.086989 101.538294 
L 158.101534 101.538294 
L 158.101534 93.561081 
L 159.11608 93.561081 
L 159.11608 90.820443 
L 160.130625 90.820443 
L 160.130625 97.541531 
L 161.14517 97.541531 
L 161.14517 103.577459 
L 162.159716 103.577459 
L 162.159716 104.686765 
L 163.174261 104.686765 
L 163.174261 106.073397 
L 164.188807 106.073397 
L 164.188807 112.631351 
L 165.203352 112.631351 
L 165.203352 116.008208 
L 166.217898 116.008208 
L 166.217898 117.248021 
L 167.232443 117.248021 
L 167.232443 118.341013 
L 168.246989 118.341013 
L 168.246989 113.463331 
L 169.261534 113.463331 
L 169.261534 122.664043 
L 170.27608 122.664043 
L 170.27608 132.027888 
L 171.290625 132.027888 
L 171.290625 125.779887 
L 172.30517 125.779887 
L 172.30517 125.437307 
L 173.319716 125.437307 
L 173.319716 128.863104 
L 174.334261 128.863104 
L 174.334261 136.171471 
L 175.348807 136.171471 
L 175.348807 135.208985 
L 176.363352 135.208985 
L 176.363352 138.634782 
L 177.377898 138.634782 
L 177.377898 139.564642 
L 178.392443 139.564642 
L 178.392443 138.651096 
L 179.406989 138.651096 
L 179.406989 140.119294 
L 180.421534 140.119294 
L 180.421534 144.752277 
L 181.43608 144.752277 
L 181.43608 148.422774 
L 182.450625 148.422774 
L 182.450625 149.124247 
L 183.46517 149.124247 
L 183.46517 148.096508 
L 184.479716 148.096508 
L 184.479716 155.453815 
L 185.494261 155.453815 
L 185.494261 151.081845 
L 186.508807 151.081845 
L 186.508807 153.545156 
L 187.523352 153.545156 
L 187.523352 155.225428 
L 188.537898 155.225428 
L 188.537898 156.481554 
L 189.552443 156.481554 
L 189.552443 156.970953 
L 190.566989 156.970953 
L 190.566989 162.077022 
L 191.581534 162.077022 
L 191.581534 155.176488 
L 192.59608 155.176488 
L 192.59608 162.321722 
L 193.610625 162.321722 
L 193.610625 168.569723 
L 194.62517 168.569723 
L 194.62517 167.313598 
L 195.639716 167.313598 
L 195.639716 166.563185 
L 196.654261 166.563185 
L 196.654261 168.292397 
L 197.668807 168.292397 
L 197.668807 169.287509 
L 198.683352 169.287509 
L 198.683352 172.223907 
L 199.697898 172.223907 
L 199.697898 173.186393 
L 200.712443 173.186393 
L 200.712443 176.775323 
L 201.726989 176.775323 
L 201.726989 178.961308 
L 202.741534 178.961308 
L 202.741534 178.765548 
L 203.75608 178.765548 
L 203.75608 182.566551 
L 204.770625 182.566551 
L 204.770625 179.287574 
L 205.78517 179.287574 
L 205.78517 185.682395 
L 206.799716 185.682395 
L 206.799716 188.11308 
L 207.814261 188.11308 
L 207.814261 188.618793 
L 208.828807 188.618793 
L 208.828807 190.021738 
L 209.843352 190.021738 
L 209.843352 189.516025 
L 210.857898 189.516025 
L 210.857898 194.932047 
L 211.872443 194.932047 
L 211.872443 194.214261 
L 212.886989 194.214261 
L 212.886989 196.971212 
L 213.901534 196.971212 
L 213.901534 198.455724 
L 214.91608 198.455724 
L 214.91608 197.688998 
L 215.930625 197.688998 
L 215.930625 199.41821 
L 217.959716 199.41821 
L 217.959716 201.979401 
L 218.974261 201.979401 
L 218.974261 203.382347 
L 219.988807 203.382347 
L 219.988807 203.953313 
L 221.003352 203.953313 
L 221.003352 204.589532 
L 222.017898 204.589532 
L 222.017898 205.535705 
L 223.032443 205.535705 
L 223.032443 207.786943 
L 224.046989 207.786943 
L 224.046989 207.656436 
L 225.061534 207.656436 
L 225.061534 208.814682 
L 226.07608 208.814682 
L 226.07608 209.597721 
L 227.090625 209.597721 
L 227.090625 210.641774 
L 228.10517 210.641774 
L 228.10517 210.902787 
L 229.119716 210.902787 
L 229.119716 211.979466 
L 230.134261 211.979466 
L 230.134261 212.990892 
L 231.148807 212.990892 
L 231.148807 213.659738 
L 232.163352 213.659738 
L 232.163352 214.442777 
L 233.177898 214.442777 
L 233.177898 214.589597 
L 234.192443 214.589597 
L 234.192443 214.80167 
L 235.206989 214.80167 
L 235.206989 215.959916 
L 237.23608 216.008856 
L 237.23608 216.775582 
L 238.250625 216.775582 
L 238.250625 217.232355 
L 239.26517 217.232355 
L 239.26517 217.640188 
L 240.279716 217.640188 
L 240.279716 218.015394 
L 241.294261 218.015394 
L 241.294261 218.145901 
L 242.308807 218.145901 
L 242.308807 218.651614 
L 243.323352 218.651614 
L 243.323352 218.88 
L 379.272443 218.88 
L 379.272443 218.88 
" clip-path="url(#p5b9fad28ab)" style="fill: none; stroke: #1f77b4; stroke-width: 1.5; stroke-linecap: square"/>
   </g>
   <g id="line2d_17">
    <path d="M 74.908807 218.88 
L 102.301534 218.863687 
L 102.301534 218.749493 
L 109.403352 218.73318 
L 109.403352 218.6353 
L 110.417898 218.6353 
L 110.417898 218.521107 
L 113.461534 218.53742 
L 113.461534 218.325347 
L 114.47608 218.325347 
L 114.47608 218.504794 
L 116.50517 218.43954 
L 116.50517 218.064334 
L 117.519716 218.064334 
L 117.519716 218.504794 
L 118.534261 218.504794 
L 118.534261 218.129587 
L 119.548807 218.129587 
L 119.548807 217.950141 
L 122.592443 217.884888 
L 122.592443 217.705441 
L 123.606989 217.705441 
L 123.606989 217.591248 
L 124.621534 217.591248 
L 124.621534 217.411801 
L 125.63608 217.411801 
L 125.63608 217.118162 
L 126.650625 217.118162 
L 126.650625 216.840835 
L 127.66517 216.840835 
L 127.66517 217.346548 
L 128.679716 217.346548 
L 128.679716 216.645075 
L 129.694261 216.645075 
L 129.694261 216.302496 
L 131.723352 216.253556 
L 131.723352 215.633649 
L 132.737898 215.633649 
L 132.737898 215.09531 
L 133.752443 215.09531 
L 133.752443 214.051257 
L 134.766989 214.051257 
L 134.766989 214.361211 
L 135.781534 214.361211 
L 135.781534 213.235592 
L 136.79608 213.235592 
L 136.79608 212.338359 
L 137.810625 212.338359 
L 137.810625 211.522693 
L 138.82517 211.522693 
L 138.82517 210.543894 
L 139.839716 210.543894 
L 139.839716 209.108322 
L 140.854261 209.108322 
L 140.854261 208.080583 
L 141.868807 208.080583 
L 141.868807 205.861971 
L 142.883352 205.861971 
L 142.883352 204.981052 
L 143.897898 204.981052 
L 143.897898 203.708613 
L 144.912443 203.708613 
L 144.912443 201.180049 
L 145.926989 201.180049 
L 145.926989 199.255077 
L 146.941534 199.255077 
L 146.941534 195.92716 
L 147.95608 195.92716 
L 147.95608 195.53564 
L 148.970625 195.53564 
L 148.970625 190.184871 
L 149.98517 190.184871 
L 149.98517 188.879806 
L 150.999716 188.879806 
L 150.999716 187.346354 
L 152.014261 187.346354 
L 152.014261 185.290876 
L 153.028807 185.290876 
L 153.028807 181.685632 
L 154.043352 181.685632 
L 154.043352 179.842227 
L 155.057898 179.842227 
L 155.057898 178.912368 
L 156.072443 178.912368 
L 156.072443 172.648053 
L 157.086989 172.648053 
L 157.086989 168.243457 
L 158.101534 168.243457 
L 158.101534 168.99387 
L 159.11608 168.99387 
L 159.11608 163.643101 
L 160.130625 163.643101 
L 160.130625 157.183026 
L 161.14517 157.183026 
L 161.14517 152.990503 
L 162.159716 152.990503 
L 162.159716 153.626723 
L 163.174261 153.626723 
L 163.174261 152.696864 
L 164.188807 152.696864 
L 164.188807 144.81753 
L 165.203352 144.81753 
L 165.203352 142.957812 
L 167.232443 142.974125 
L 167.232443 134.638019 
L 168.246989 134.638019 
L 168.246989 135.845205 
L 169.261534 135.845205 
L 169.261534 127.770112 
L 170.27608 127.770112 
L 170.27608 122.321463 
L 171.290625 122.321463 
L 171.290625 122.45197 
L 172.30517 122.45197 
L 172.30517 117.362214 
L 173.319716 117.362214 
L 173.319716 119.939718 
L 174.334261 119.939718 
L 174.334261 119.058799 
L 176.363352 119.042486 
L 176.363352 110.820573 
L 177.377898 110.820573 
L 177.377898 112.892364 
L 178.392443 112.892364 
L 178.392443 107.933115 
L 179.406989 107.933115 
L 179.406989 109.287121 
L 180.421534 109.287121 
L 180.421534 106.72593 
L 181.43608 106.72593 
L 181.43608 111.130526 
L 182.450625 111.130526 
L 182.450625 104.213679 
L 183.46517 104.213679 
L 183.46517 102.35396 
L 184.479716 102.35396 
L 184.479716 108.145189 
L 185.494261 108.145189 
L 185.494261 104.278932 
L 186.508807 104.278932 
L 186.508807 107.982055 
L 187.523352 107.982055 
L 187.523352 99.711202 
L 188.537898 99.711202 
L 188.537898 104.539945 
L 189.552443 104.539945 
L 189.552443 105.910264 
L 190.566989 105.910264 
L 190.566989 99.352309 
L 191.581534 99.352309 
L 191.581534 105.306671 
L 192.59608 105.306671 
L 192.59608 101.619861 
L 193.610625 101.619861 
L 193.610625 104.246305 
L 194.62517 104.246305 
L 194.62517 106.497543 
L 195.639716 106.497543 
L 195.639716 107.574222 
L 196.654261 107.574222 
L 196.654261 99.825396 
L 197.668807 99.825396 
L 197.668807 103.104373 
L 198.683352 103.104373 
L 198.683352 102.875986 
L 199.697898 102.875986 
L 199.697898 107.052196 
L 200.712443 107.052196 
L 200.712443 103.838472 
L 201.726989 103.838472 
L 201.726989 101.619861 
L 202.741534 101.619861 
L 202.741534 97.035818 
L 203.75608 97.035818 
L 203.75608 105.812384 
L 204.770625 105.812384 
L 204.770625 107.639476 
L 205.78517 107.639476 
L 205.78517 105.322984 
L 206.799716 105.322984 
L 206.799716 105.861324 
L 207.814261 105.861324 
L 207.814261 116.595488 
L 208.828807 116.595488 
L 208.828807 105.486117 
L 209.843352 105.486117 
L 209.843352 107.150076 
L 210.857898 107.150076 
L 210.857898 103.169626 
L 211.872443 103.169626 
L 211.872443 108.210442 
L 212.886989 108.210442 
L 212.886989 113.495957 
L 213.901534 113.495957 
L 213.901534 113.838537 
L 214.91608 113.838537 
L 214.91608 112.402965 
L 215.930625 112.402965 
L 215.930625 122.174643 
L 216.94517 122.174643 
L 216.94517 114.44213 
L 217.959716 114.44213 
L 217.959716 123.757035 
L 218.974261 123.757035 
L 218.974261 119.238246 
L 219.988807 119.238246 
L 219.988807 121.440544 
L 221.003352 121.440544 
L 221.003352 125.812513 
L 222.017898 125.812513 
L 222.017898 121.000084 
L 223.032443 121.000084 
L 223.032443 120.445431 
L 224.046989 120.445431 
L 224.046989 126.823939 
L 225.061534 126.823939 
L 225.061534 127.933245 
L 226.07608 127.933245 
L 226.07608 130.429183 
L 227.090625 130.429183 
L 227.090625 138.145383 
L 228.10517 138.145383 
L 228.10517 135.959398 
L 229.119716 135.959398 
L 229.119716 135.176359 
L 230.134261 135.176359 
L 230.134261 137.215524 
L 231.148807 137.215524 
L 231.148807 133.789726 
L 232.163352 133.789726 
L 232.163352 131.326415 
L 233.177898 131.326415 
L 233.177898 140.78814 
L 235.206989 140.755514 
L 235.206989 147.656048 
L 236.221534 147.656048 
L 236.221534 143.479838 
L 237.23608 143.479838 
L 237.23608 143.903984 
L 238.250625 143.903984 
L 238.250625 145.437436 
L 239.26517 145.437436 
L 239.26517 146.220476 
L 240.279716 146.220476 
L 240.279716 144.71965 
L 241.294261 144.71965 
L 241.294261 151.342858 
L 242.308807 151.342858 
L 242.308807 148.373834 
L 243.323352 148.373834 
L 243.323352 149.744153 
L 244.337898 149.744153 
L 244.337898 150.902398 
L 245.352443 150.902398 
L 245.352443 147.443975 
L 246.366989 147.443975 
L 246.366989 153.724603 
L 247.381534 153.724603 
L 247.381534 156.873073 
L 248.39608 156.873073 
L 248.39608 158.373899 
L 249.410625 158.373899 
L 249.410625 158.161826 
L 250.42517 158.161826 
L 250.42517 154.377135 
L 251.439716 154.377135 
L 251.439716 158.390212 
L 252.454261 158.390212 
L 252.454261 156.008467 
L 253.468807 156.008467 
L 253.468807 157.998692 
L 254.483352 157.998692 
L 254.483352 163.398401 
L 255.497898 163.398401 
L 255.497898 158.651225 
L 256.512443 158.651225 
L 256.512443 164.76872 
L 258.541534 164.785033 
L 258.541534 167.607237 
L 259.55608 167.607237 
L 259.55608 160.478317 
L 260.570625 160.478317 
L 260.570625 165.731206 
L 261.58517 165.731206 
L 261.58517 160.951403 
L 262.599716 160.951403 
L 262.599716 162.044396 
L 263.614261 162.044396 
L 263.614261 172.43598 
L 264.628807 172.43598 
L 264.628807 166.318485 
L 265.643352 166.318485 
L 265.643352 168.35765 
L 266.657898 168.35765 
L 266.657898 169.776909 
L 267.672443 169.776909 
L 267.672443 173.789985 
L 268.686989 173.789985 
L 268.686989 172.794873 
L 269.701534 172.794873 
L 269.701534 170.869901 
L 270.71608 170.869901 
L 270.71608 169.972669 
L 271.730625 169.972669 
L 271.730625 174.312012 
L 272.74517 174.312012 
L 272.74517 173.202706 
L 273.759716 173.202706 
L 273.759716 171.930267 
L 274.774261 171.930267 
L 274.774261 176.497996 
L 275.788807 176.497996 
L 275.788807 176.726383 
L 276.803352 176.726383 
L 276.803352 176.057537 
L 277.817898 176.057537 
L 277.817898 177.672555 
L 278.832443 177.672555 
L 278.832443 177.329976 
L 279.846989 177.329976 
L 279.846989 176.008597 
L 280.861534 176.008597 
L 280.861534 175.290811 
L 281.87608 175.290811 
L 281.87608 178.798174 
L 282.890625 178.798174 
L 282.890625 184.638343 
L 283.90517 184.638343 
L 283.90517 181.016786 
L 284.919716 181.016786 
L 284.919716 178.145642 
L 285.934261 178.145642 
L 285.934261 179.581214 
L 287.963352 179.499647 
L 287.963352 183.855303 
L 288.977898 183.855303 
L 288.977898 184.116317 
L 289.992443 184.116317 
L 289.992443 178.847114 
L 291.006989 178.847114 
L 291.006989 182.599178 
L 292.021534 182.599178 
L 292.021534 181.701945 
L 293.03608 181.701945 
L 293.03608 188.178333 
L 294.050625 188.178333 
L 294.050625 183.724797 
L 295.06517 183.724797 
L 295.06517 186.155481 
L 296.079716 186.155481 
L 296.079716 186.367555 
L 297.094261 186.367555 
L 297.094261 186.204421 
L 298.108807 186.204421 
L 298.108807 188.194646 
L 299.123352 188.194646 
L 299.123352 193.219149 
L 300.137898 193.219149 
L 300.137898 185.405069 
L 301.152443 185.405069 
L 301.152443 188.047827 
L 302.166989 188.047827 
L 302.166989 189.564965 
L 303.181534 189.564965 
L 303.181534 187.998887 
L 304.19608 187.998887 
L 304.19608 189.255012 
L 305.210625 189.255012 
L 305.210625 191.55519 
L 306.22517 191.55519 
L 306.22517 193.431222 
L 307.239716 193.431222 
L 307.239716 193.545415 
L 308.254261 193.545415 
L 308.254261 194.915734 
L 309.268807 194.915734 
L 309.268807 194.083755 
L 310.283352 194.083755 
L 310.283352 194.491588 
L 312.312443 194.475274 
L 312.312443 193.578042 
L 313.326989 193.578042 
L 313.326989 197.917385 
L 314.341534 197.917385 
L 314.341534 196.351306 
L 315.35608 196.351306 
L 315.35608 197.966325 
L 316.370625 197.966325 
L 316.370625 199.22245 
L 317.38517 199.22245 
L 317.38517 199.85867 
L 318.399716 199.85867 
L 318.399716 199.71185 
L 319.414261 199.71185 
L 319.414261 201.832581 
L 320.428807 201.832581 
L 320.428807 198.651484 
L 321.443352 198.651484 
L 321.443352 203.186587 
L 322.457898 203.186587 
L 322.457898 202.207788 
L 323.472443 202.207788 
L 323.472443 200.658022 
L 324.486989 200.658022 
L 324.486989 204.524279 
L 325.501534 204.524279 
L 325.501534 202.109908 
L 326.51608 202.109908 
L 326.51608 206.090358 
L 327.530625 206.090358 
L 327.530625 204.671099 
L 328.54517 204.671099 
L 328.54517 206.69395 
L 329.559716 206.69395 
L 329.559716 205.274692 
L 330.574261 205.274692 
L 330.574261 205.731465 
L 331.588807 205.731465 
L 331.588807 206.661324 
L 332.603352 206.661324 
L 332.603352 207.444363 
L 333.617898 207.444363 
L 333.617898 206.906024 
L 334.632443 206.906024 
L 334.632443 207.362797 
L 335.646989 207.362797 
L 335.646989 207.835883 
L 336.661534 207.835883 
L 336.661534 208.455789 
L 338.690625 208.423162 
L 338.690625 209.989241 
L 339.70517 209.989241 
L 339.70517 210.413387 
L 340.719716 210.413387 
L 340.719716 209.711915 
L 341.734261 209.711915 
L 341.734261 210.168687 
L 342.748807 210.168687 
L 342.748807 211.11486 
L 343.763352 211.11486 
L 343.763352 211.392186 
L 344.777898 211.392186 
L 344.777898 211.55532 
L 345.792443 211.55532 
L 345.792443 211.816333 
L 346.806989 211.816333 
L 346.806989 212.990892 
L 347.821534 212.990892 
L 347.821534 212.370986 
L 348.83608 212.370986 
L 348.83608 213.300845 
L 350.86517 213.349785 
L 350.86517 213.643425 
L 351.879716 213.643425 
L 351.879716 213.382411 
L 352.894261 213.382411 
L 352.894261 213.839184 
L 353.908807 213.839184 
L 353.908807 214.89955 
L 354.923352 214.89955 
L 354.923352 214.230704 
L 355.937898 214.230704 
L 355.937898 215.078997 
L 356.952443 215.078997 
L 356.952443 215.372636 
L 357.966989 215.372636 
L 357.966989 215.649963 
L 359.99608 215.649963 
L 359.99608 216.041482 
L 361.010625 216.041482 
L 361.010625 216.253556 
L 362.02517 216.253556 
L 362.02517 216.922402 
L 363.039716 216.922402 
L 363.039716 216.188302 
L 364.054261 216.188302 
L 364.054261 216.433002 
L 365.068807 216.433002 
L 365.068807 216.840835 
L 366.083352 216.840835 
L 366.083352 217.379175 
L 367.097898 217.379175 
L 367.097898 217.264981 
L 369.126989 217.313921 
L 369.126989 217.689128 
L 370.141534 217.689128 
L 370.141534 217.852261 
L 371.15608 217.852261 
L 371.15608 218.031707 
L 372.170625 218.031707 
L 372.170625 218.162214 
L 374.199716 218.194841 
L 374.199716 218.553734 
L 375.214261 218.553734 
L 375.214261 218.325347 
L 376.228807 218.325347 
L 376.228807 218.602674 
L 377.243352 218.602674 
L 377.243352 218.73318 
L 378.257898 218.73318 
L 378.257898 218.863687 
L 379.272443 218.863687 
L 379.272443 218.863687 
" clip-path="url(#p5b9fad28ab)" style="fill: none; stroke: #ff7f0e; stroke-width: 1.5; stroke-linecap: square"/>
   </g>
   <g id="patch_3">
    <path d="M 59.690625 228.96 
L 59.690625 7.2 
" style="fill: none; stroke: #000000; stroke-width: 0.8; stroke-linejoin: miter; stroke-linecap: square"/>
   </g>
   <g id="patch_4">
    <path d="M 394.490625 228.96 
L 394.490625 7.2 
" style="fill: none; stroke: #000000; stroke-width: 0.8; stroke-linejoin: miter; stroke-linecap: square"/>
   </g>
   <g id="patch_5">
    <path d="M 59.690625 228.96 
L 394.490625 228.96 
" style="fill: none; stroke: #000000; stroke-width: 0.8; stroke-linejoin: miter; stroke-linecap: square"/>
   </g>
   <g id="patch_6">
    <path d="M 59.690625 7.2 
L 394.490625 7.2 
" style="fill: none; stroke: #000000; stroke-width: 0.8; stroke-linejoin: miter; stroke-linecap: square"/>
   </g>
   <g id="legend_1">
    <g id="patch_7">
     <path d="M 313.267188 44.55625 
L 387.490625 44.55625 
Q 389.490625 44.55625 389.490625 42.55625 
L 389.490625 14.2 
Q 389.490625 12.2 387.490625 12.2 
L 313.267188 12.2 
Q 311.267188 12.2 311.267188 14.2 
L 311.267188 42.55625 
Q 311.267188 44.55625 313.267188 44.55625 
z
" style="fill: #ffffff; opacity: 0.8; stroke: #cccccc; stroke-linejoin: miter"/>
    </g>
    <g id="line2d_18">
     <path d="M 315.267188 20.298437 
L 315.267188 20.298437 
L 325.267188 20.298437 
L 325.267188 20.298437 
L 335.267188 20.298437 
" style="fill: none; stroke: #1f77b4; stroke-width: 1.5; stroke-linecap: square"/>
    </g>
    <g id="text_18">
     <!-- monitor -->
     <g transform="translate(343.267188 23.798437) scale(0.1 -0.1)">
      <defs>
       <path id="DejaVuSans-6d" d="M 3328 2828 
Q 3544 3216 3844 3400 
Q 4144 3584 4550 3584 
Q 5097 3584 5394 3201 
Q 5691 2819 5691 2113 
L 5691 0 
L 5113 0 
L 5113 2094 
Q 5113 2597 4934 2840 
Q 4756 3084 4391 3084 
Q 3944 3084 3684 2787 
Q 3425 2491 3425 1978 
L 3425 0 
L 2847 0 
L 2847 2094 
Q 2847 2600 2669 2842 
Q 2491 3084 2119 3084 
Q 1678 3084 1418 2786 
Q 1159 2488 1159 1978 
L 1159 0 
L 581 0 
L 581 3500 
L 1159 3500 
L 1159 2956 
Q 1356 3278 1631 3431 
Q 1906 3584 2284 3584 
Q 2666 3584 2933 3390 
Q 3200 3197 3328 2828 
z
" transform="scale(0.015625)"/>
       <path id="DejaVuSans-69" d="M 603 3500 
L 1178 3500 
L 1178 0 
L 603 0 
L 603 3500 
z
M 603 4863 
L 1178 4863 
L 1178 4134 
L 603 4134 
L 603 4863 
z
" transform="scale(0.015625)"/>
       <path id="DejaVuSans-72" d="M 2631 2963 
Q 2534 3019 2420 3045 
Q 2306 3072 2169 3072 
Q 1681 3072 1420 2755 
Q 1159 2438 1159 1844 
L 1159 0 
L 581 0 
L 581 3500 
L 1159 3500 
L 1159 2956 
Q 1341 3275 1631 3429 
Q 1922 3584 2338 3584 
Q 2397 3584 2469 3576 
Q 2541 3569 2628 3553 
L 2631 2963 
z
" transform="scale(0.015625)"/>
      </defs>
      <use xlink:href="#DejaVuSans-6d"/>
      <use xlink:href="#DejaVuSans-6f" transform="translate(97.412109 0)"/>
      <use xlink:href="#DejaVuSans-6e" transform="translate(158.59375 0)"/>
      <use xlink:href="#DejaVuSans-69" transform="translate(221.972656 0)"/>
      <use xlink:href="#DejaVuSans-74" transform="translate(249.755859 0)"/>
      <use xlink:href="#DejaVuSans-6f" transform="translate(288.964844 0)"/>
      <use xlink:href="#DejaVuSans-72" transform="translate(350.146484 0)"/>
     </g>
    </g>
    <g id="line2d_19">
     <path d="M 315.267188 34.976562 
L 315.267188 34.976562 
L 325.267188 34.976562 
L 325.267188 34.976562 
L 335.267188 34.976562 
" style="fill: none; stroke: #ff7f0e; stroke-width: 1.5; stroke-linecap: square"/>
    </g>
    <g id="text_19">
     <!-- detector -->
     <g transform="translate(343.267188 38.476562) scale(0.1 -0.1)">
      <defs>
       <path id="DejaVuSans-64" d="M 2906 2969 
L 2906 4863 
L 3481 4863 
L 3481 0 
L 2906 0 
L 2906 525 
Q 2725 213 2448 61 
Q 2172 -91 1784 -91 
Q 1150 -91 751 415 
Q 353 922 353 1747 
Q 353 2572 751 3078 
Q 1150 3584 1784 3584 
Q 2172 3584 2448 3432 
Q 2725 3281 2906 2969 
z
M 947 1747 
Q 947 1113 1208 752 
Q 1469 391 1925 391 
Q 2381 391 2643 752 
Q 2906 1113 2906 1747 
Q 2906 2381 2643 2742 
Q 2381 3103 1925 3103 
Q 1469 3103 1208 2742 
Q 947 2381 947 1747 
z
" transform="scale(0.015625)"/>
       <path id="DejaVuSans-65" d="M 3597 1894 
L 3597 1613 
L 953 1613 
Q 991 1019 1311 708 
Q 1631 397 2203 397 
Q 2534 397 2845 478 
Q 3156 559 3463 722 
L 3463 178 
Q 3153 47 2828 -22 
Q 2503 -91 2169 -91 
Q 1331 -91 842 396 
Q 353 884 353 1716 
Q 353 2575 817 3079 
Q 1281 3584 2069 3584 
Q 2775 3584 3186 3129 
Q 3597 2675 3597 1894 
z
M 3022 2063 
Q 3016 2534 2758 2815 
Q 2500 3097 2075 3097 
Q 1594 3097 1305 2825 
Q 1016 2553 972 2059 
L 3022 2063 
z
" transform="scale(0.015625)"/>
      </defs>
      <use xlink:href="#DejaVuSans-64"/>
      <use xlink:href="#DejaVuSans-65" transform="translate(63.476562 0)"/>
      <use xlink:href="#DejaVuSans-74" transform="translate(125 0)"/>
      <use xlink:href="#DejaVuSans-65" transform="translate(164.208984 0)"/>
      <use xlink:href="#DejaVuSans-63" transform="translate(225.732422 0)"/>
      <use xlink:href="#DejaVuSans-74" transform="translate(280.712891 0)"/>
      <use xlink:href="#DejaVuSans-6f" transform="translate(319.921875 0)"/>
      <use xlink:href="#DejaVuSans-72" transform="translate(381.103516 0)"/>
     </g>
    </g>
   </g>
  </g>
 </g>
 <defs>
  <clipPath id="p5b9fad28ab">
   <rect x="59.690625" y="7.2" width="334.8" height="221.76"/>
  </clipPath>
 </defs>
</svg>
