<?xml version="1.0" encoding="utf-8" standalone="no"?>
<!DOCTYPE svg PUBLIC "-//W3C//DTD SVG 1.1//EN"
  "http://www.w3.org/Graphics/SVG/1.1/DTD/svg11.dtd">
<svg xmlns:xlink="http://www.w3.org/1999/xlink" width="872.39952pt" height="296.39952pt" viewBox="0 0 872.39952 296.39952" xmlns="http://www.w3.org/2000/svg" version="1.1">
 <metadata>
  <rdf:RDF xmlns:dc="http://purl.org/dc/elements/1.1/" xmlns:cc="http://creativecommons.org/ns#" xmlns:rdf="http://www.w3.org/1999/02/22-rdf-syntax-ns#">
   <cc:Work>
    <dc:type rdf:resource="http://purl.org/dc/dcmitype/StillImage"/>
    <dc:date>2025-02-27T10:09:17.236769</dc:date>
    <dc:format>image/svg+xml</dc:format>
    <dc:creator>
     <cc:Agent>
      <dc:title>Matplotlib v3.10.0, https://matplotlib.org/</dc:title>
     </cc:Agent>
    </dc:creator>
   </cc:Work>
  </rdf:RDF>
 </metadata>
 <defs>
  <style type="text/css">*{stroke-linejoin: round; stroke-linecap: butt}</style>
 </defs>
 <g id="figure_1">
  <g id="patch_1">
   <path d="M 0 296.39952 
L 872.39952 296.39952 
L 872.39952 0 
L 0 0 
z
" style="fill: #ffffff"/>
  </g>
  <g id="axes_1">
   <g id="patch_2">
    <path d="M 53.328125 257.158895 
L 431.87976 257.158895 
L 431.87976 7.2 
L 53.328125 7.2 
z
" style="fill: #ffffff"/>
   </g>
   <g id="matplotlib.axis_1">
    <g id="xtick_1">
     <g id="line2d_1">
      <defs>
       <path id="me02eb17d0e" d="M 0 0 
L 0 3.5 
" style="stroke: #000000; stroke-width: 0.8"/>
      </defs>
      <g>
       <use xlink:href="#me02eb17d0e" x="69.658907" y="257.158895" style="stroke: #000000; stroke-width: 0.8"/>
      </g>
     </g>
     <g id="text_1">
      <!-- 0 -->
      <g transform="translate(66.477657 271.757332) scale(0.1 -0.1)">
       <defs>
        <path id="DejaVuSans-30" d="M 2034 4250 
Q 1547 4250 1301 3770 
Q 1056 3291 1056 2328 
Q 1056 1369 1301 889 
Q 1547 409 2034 409 
Q 2525 409 2770 889 
Q 3016 1369 3016 2328 
Q 3016 3291 2770 3770 
Q 2525 4250 2034 4250 
z
M 2034 4750 
Q 2819 4750 3233 4129 
Q 3647 3509 3647 2328 
Q 3647 1150 3233 529 
Q 2819 -91 2034 -91 
Q 1250 -91 836 529 
Q 422 1150 422 2328 
Q 422 3509 836 4129 
Q 1250 4750 2034 4750 
z
" transform="scale(0.015625)"/>
       </defs>
       <use xlink:href="#DejaVuSans-30"/>
      </g>
     </g>
    </g>
    <g id="xtick_2">
     <g id="line2d_2">
      <g>
       <use xlink:href="#me02eb17d0e" x="139.028067" y="257.158895" style="stroke: #000000; stroke-width: 0.8"/>
      </g>
     </g>
     <g id="text_2">
      <!-- 1000 -->
      <g transform="translate(126.303067 271.757332) scale(0.1 -0.1)">
       <defs>
        <path id="DejaVuSans-31" d="M 794 531 
L 1825 531 
L 1825 4091 
L 703 3866 
L 703 4441 
L 1819 4666 
L 2450 4666 
L 2450 531 
L 3481 531 
L 3481 0 
L 794 0 
L 794 531 
z
" transform="scale(0.015625)"/>
       </defs>
       <use xlink:href="#DejaVuSans-31"/>
       <use xlink:href="#DejaVuSans-30" transform="translate(63.623047 0)"/>
       <use xlink:href="#DejaVuSans-30" transform="translate(127.246094 0)"/>
       <use xlink:href="#DejaVuSans-30" transform="translate(190.869141 0)"/>
      </g>
     </g>
    </g>
    <g id="xtick_3">
     <g id="line2d_3">
      <g>
       <use xlink:href="#me02eb17d0e" x="208.397228" y="257.158895" style="stroke: #000000; stroke-width: 0.8"/>
      </g>
     </g>
     <g id="text_3">
      <!-- 2000 -->
      <g transform="translate(195.672228 271.757332) scale(0.1 -0.1)">
       <defs>
        <path id="DejaVuSans-32" d="M 1228 531 
L 3431 531 
L 3431 0 
L 469 0 
L 469 531 
Q 828 903 1448 1529 
Q 2069 2156 2228 2338 
Q 2531 2678 2651 2914 
Q 2772 3150 2772 3378 
Q 2772 3750 2511 3984 
Q 2250 4219 1831 4219 
Q 1534 4219 1204 4116 
Q 875 4013 500 3803 
L 500 4441 
Q 881 4594 1212 4672 
Q 1544 4750 1819 4750 
Q 2544 4750 2975 4387 
Q 3406 4025 3406 3419 
Q 3406 3131 3298 2873 
Q 3191 2616 2906 2266 
Q 2828 2175 2409 1742 
Q 1991 1309 1228 531 
z
" transform="scale(0.015625)"/>
       </defs>
       <use xlink:href="#DejaVuSans-32"/>
       <use xlink:href="#DejaVuSans-30" transform="translate(63.623047 0)"/>
       <use xlink:href="#DejaVuSans-30" transform="translate(127.246094 0)"/>
       <use xlink:href="#DejaVuSans-30" transform="translate(190.869141 0)"/>
      </g>
     </g>
    </g>
    <g id="xtick_4">
     <g id="line2d_4">
      <g>
       <use xlink:href="#me02eb17d0e" x="277.766388" y="257.158895" style="stroke: #000000; stroke-width: 0.8"/>
      </g>
     </g>
     <g id="text_4">
      <!-- 3000 -->
      <g transform="translate(265.041388 271.757332) scale(0.1 -0.1)">
       <defs>
        <path id="DejaVuSans-33" d="M 2597 2516 
Q 3050 2419 3304 2112 
Q 3559 1806 3559 1356 
Q 3559 666 3084 287 
Q 2609 -91 1734 -91 
Q 1441 -91 1130 -33 
Q 819 25 488 141 
L 488 750 
Q 750 597 1062 519 
Q 1375 441 1716 441 
Q 2309 441 2620 675 
Q 2931 909 2931 1356 
Q 2931 1769 2642 2001 
Q 2353 2234 1838 2234 
L 1294 2234 
L 1294 2753 
L 1863 2753 
Q 2328 2753 2575 2939 
Q 2822 3125 2822 3475 
Q 2822 3834 2567 4026 
Q 2313 4219 1838 4219 
Q 1578 4219 1281 4162 
Q 984 4106 628 3988 
L 628 4550 
Q 988 4650 1302 4700 
Q 1616 4750 1894 4750 
Q 2613 4750 3031 4423 
Q 3450 4097 3450 3541 
Q 3450 3153 3228 2886 
Q 3006 2619 2597 2516 
z
" transform="scale(0.015625)"/>
       </defs>
       <use xlink:href="#DejaVuSans-33"/>
       <use xlink:href="#DejaVuSans-30" transform="translate(63.623047 0)"/>
       <use xlink:href="#DejaVuSans-30" transform="translate(127.246094 0)"/>
       <use xlink:href="#DejaVuSans-30" transform="translate(190.869141 0)"/>
      </g>
     </g>
    </g>
    <g id="xtick_5">
     <g id="line2d_5">
      <g>
       <use xlink:href="#me02eb17d0e" x="347.135549" y="257.158895" style="stroke: #000000; stroke-width: 0.8"/>
      </g>
     </g>
     <g id="text_5">
      <!-- 4000 -->
      <g transform="translate(334.410549 271.757332) scale(0.1 -0.1)">
       <defs>
        <path id="DejaVuSans-34" d="M 2419 4116 
L 825 1625 
L 2419 1625 
L 2419 4116 
z
M 2253 4666 
L 3047 4666 
L 3047 1625 
L 3713 1625 
L 3713 1100 
L 3047 1100 
L 3047 0 
L 2419 0 
L 2419 1100 
L 313 1100 
L 313 1709 
L 2253 4666 
z
" transform="scale(0.015625)"/>
       </defs>
       <use xlink:href="#DejaVuSans-34"/>
       <use xlink:href="#DejaVuSans-30" transform="translate(63.623047 0)"/>
       <use xlink:href="#DejaVuSans-30" transform="translate(127.246094 0)"/>
       <use xlink:href="#DejaVuSans-30" transform="translate(190.869141 0)"/>
      </g>
     </g>
    </g>
    <g id="xtick_6">
     <g id="line2d_6">
      <g>
       <use xlink:href="#me02eb17d0e" x="416.50471" y="257.158895" style="stroke: #000000; stroke-width: 0.8"/>
      </g>
     </g>
     <g id="text_6">
      <!-- 5000 -->
      <g transform="translate(403.77971 271.757332) scale(0.1 -0.1)">
       <defs>
        <path id="DejaVuSans-35" d="M 691 4666 
L 3169 4666 
L 3169 4134 
L 1269 4134 
L 1269 2991 
Q 1406 3038 1543 3061 
Q 1681 3084 1819 3084 
Q 2600 3084 3056 2656 
Q 3513 2228 3513 1497 
Q 3513 744 3044 326 
Q 2575 -91 1722 -91 
Q 1428 -91 1123 -41 
Q 819 9 494 109 
L 494 744 
Q 775 591 1075 516 
Q 1375 441 1709 441 
Q 2250 441 2565 725 
Q 2881 1009 2881 1497 
Q 2881 1984 2565 2268 
Q 2250 2553 1709 2553 
Q 1456 2553 1204 2497 
Q 953 2441 691 2322 
L 691 4666 
z
" transform="scale(0.015625)"/>
       </defs>
       <use xlink:href="#DejaVuSans-35"/>
       <use xlink:href="#DejaVuSans-30" transform="translate(63.623047 0)"/>
       <use xlink:href="#DejaVuSans-30" transform="translate(127.246094 0)"/>
       <use xlink:href="#DejaVuSans-30" transform="translate(190.869141 0)"/>
      </g>
     </g>
    </g>
    <g id="text_7">
     <!-- time [µs] -->
     <g transform="translate(220.031286 285.435457) scale(0.1 -0.1)">
      <defs>
       <path id="DejaVuSans-74" d="M 1172 4494 
L 1172 3500 
L 2356 3500 
L 2356 3053 
L 1172 3053 
L 1172 1153 
Q 1172 725 1289 603 
Q 1406 481 1766 481 
L 2356 481 
L 2356 0 
L 1766 0 
Q 1100 0 847 248 
Q 594 497 594 1153 
L 594 3053 
L 172 3053 
L 172 3500 
L 594 3500 
L 594 4494 
L 1172 4494 
z
" transform="scale(0.015625)"/>
       <path id="DejaVuSans-69" d="M 603 3500 
L 1178 3500 
L 1178 0 
L 603 0 
L 603 3500 
z
M 603 4863 
L 1178 4863 
L 1178 4134 
L 603 4134 
L 603 4863 
z
" transform="scale(0.015625)"/>
       <path id="DejaVuSans-6d" d="M 3328 2828 
Q 3544 3216 3844 3400 
Q 4144 3584 4550 3584 
Q 5097 3584 5394 3201 
Q 5691 2819 5691 2113 
L 5691 0 
L 5113 0 
L 5113 2094 
Q 5113 2597 4934 2840 
Q 4756 3084 4391 3084 
Q 3944 3084 3684 2787 
Q 3425 2491 3425 1978 
L 3425 0 
L 2847 0 
L 2847 2094 
Q 2847 2600 2669 2842 
Q 2491 3084 2119 3084 
Q 1678 3084 1418 2786 
Q 1159 2488 1159 1978 
L 1159 0 
L 581 0 
L 581 3500 
L 1159 3500 
L 1159 2956 
Q 1356 3278 1631 3431 
Q 1906 3584 2284 3584 
Q 2666 3584 2933 3390 
Q 3200 3197 3328 2828 
z
" transform="scale(0.015625)"/>
       <path id="DejaVuSans-65" d="M 3597 1894 
L 3597 1613 
L 953 1613 
Q 991 1019 1311 708 
Q 1631 397 2203 397 
Q 2534 397 2845 478 
Q 3156 559 3463 722 
L 3463 178 
Q 3153 47 2828 -22 
Q 2503 -91 2169 -91 
Q 1331 -91 842 396 
Q 353 884 353 1716 
Q 353 2575 817 3079 
Q 1281 3584 2069 3584 
Q 2775 3584 3186 3129 
Q 3597 2675 3597 1894 
z
M 3022 2063 
Q 3016 2534 2758 2815 
Q 2500 3097 2075 3097 
Q 1594 3097 1305 2825 
Q 1016 2553 972 2059 
L 3022 2063 
z
" transform="scale(0.015625)"/>
       <path id="DejaVuSans-20" transform="scale(0.015625)"/>
       <path id="DejaVuSans-5b" d="M 550 4863 
L 1875 4863 
L 1875 4416 
L 1125 4416 
L 1125 -397 
L 1875 -397 
L 1875 -844 
L 550 -844 
L 550 4863 
z
" transform="scale(0.015625)"/>
       <path id="DejaVuSans-b5" d="M 544 -1331 
L 544 3500 
L 1119 3500 
L 1119 1325 
Q 1119 872 1334 640 
Q 1550 409 1972 409 
Q 2434 409 2667 671 
Q 2900 934 2900 1459 
L 2900 3500 
L 3475 3500 
L 3475 806 
Q 3475 619 3529 530 
Q 3584 441 3700 441 
Q 3728 441 3778 458 
Q 3828 475 3916 513 
L 3916 50 
Q 3788 -22 3673 -56 
Q 3559 -91 3450 -91 
Q 3234 -91 3106 31 
Q 2978 153 2931 403 
Q 2775 156 2548 32 
Q 2322 -91 2016 -91 
Q 1697 -91 1473 31 
Q 1250 153 1119 397 
L 1119 -1331 
L 544 -1331 
z
" transform="scale(0.015625)"/>
       <path id="DejaVuSans-73" d="M 2834 3397 
L 2834 2853 
Q 2591 2978 2328 3040 
Q 2066 3103 1784 3103 
Q 1356 3103 1142 2972 
Q 928 2841 928 2578 
Q 928 2378 1081 2264 
Q 1234 2150 1697 2047 
L 1894 2003 
Q 2506 1872 2764 1633 
Q 3022 1394 3022 966 
Q 3022 478 2636 193 
Q 2250 -91 1575 -91 
Q 1294 -91 989 -36 
Q 684 19 347 128 
L 347 722 
Q 666 556 975 473 
Q 1284 391 1588 391 
Q 1994 391 2212 530 
Q 2431 669 2431 922 
Q 2431 1156 2273 1281 
Q 2116 1406 1581 1522 
L 1381 1569 
Q 847 1681 609 1914 
Q 372 2147 372 2553 
Q 372 3047 722 3315 
Q 1072 3584 1716 3584 
Q 2034 3584 2315 3537 
Q 2597 3491 2834 3397 
z
" transform="scale(0.015625)"/>
       <path id="DejaVuSans-5d" d="M 1947 4863 
L 1947 -844 
L 622 -844 
L 622 -397 
L 1369 -397 
L 1369 4416 
L 622 4416 
L 622 4863 
L 1947 4863 
z
" transform="scale(0.015625)"/>
      </defs>
      <use xlink:href="#DejaVuSans-74"/>
      <use xlink:href="#DejaVuSans-69" transform="translate(39.208984 0)"/>
      <use xlink:href="#DejaVuSans-6d" transform="translate(66.992188 0)"/>
      <use xlink:href="#DejaVuSans-65" transform="translate(164.404297 0)"/>
      <use xlink:href="#DejaVuSans-20" transform="translate(225.927734 0)"/>
      <use xlink:href="#DejaVuSans-5b" transform="translate(257.714844 0)"/>
      <use xlink:href="#DejaVuSans-b5" transform="translate(296.728516 0)"/>
      <use xlink:href="#DejaVuSans-73" transform="translate(360.351562 0)"/>
      <use xlink:href="#DejaVuSans-5d" transform="translate(412.451172 0)"/>
     </g>
    </g>
   </g>
   <g id="matplotlib.axis_2">
    <g id="ytick_1">
     <g id="line2d_7">
      <defs>
       <path id="m4ad310f1d9" d="M 0 0 
L -3.5 0 
" style="stroke: #000000; stroke-width: 0.8"/>
      </defs>
      <g>
       <use xlink:href="#m4ad310f1d9" x="53.328125" y="245.797127" style="stroke: #000000; stroke-width: 0.8"/>
      </g>
     </g>
     <g id="text_8">
      <!-- 0 -->
      <g transform="translate(39.965625 249.596346) scale(0.1 -0.1)">
       <use xlink:href="#DejaVuSans-30"/>
      </g>
     </g>
    </g>
    <g id="ytick_2">
     <g id="line2d_8">
      <g>
       <use xlink:href="#m4ad310f1d9" x="53.328125" y="208.997879" style="stroke: #000000; stroke-width: 0.8"/>
      </g>
     </g>
     <g id="text_9">
      <!-- 200 -->
      <g transform="translate(27.240625 212.797097) scale(0.1 -0.1)">
       <use xlink:href="#DejaVuSans-32"/>
       <use xlink:href="#DejaVuSans-30" transform="translate(63.623047 0)"/>
       <use xlink:href="#DejaVuSans-30" transform="translate(127.246094 0)"/>
      </g>
     </g>
    </g>
    <g id="ytick_3">
     <g id="line2d_9">
      <g>
       <use xlink:href="#m4ad310f1d9" x="53.328125" y="172.19863" style="stroke: #000000; stroke-width: 0.8"/>
      </g>
     </g>
     <g id="text_10">
      <!-- 400 -->
      <g transform="translate(27.240625 175.997849) scale(0.1 -0.1)">
       <use xlink:href="#DejaVuSans-34"/>
       <use xlink:href="#DejaVuSans-30" transform="translate(63.623047 0)"/>
       <use xlink:href="#DejaVuSans-30" transform="translate(127.246094 0)"/>
      </g>
     </g>
    </g>
    <g id="ytick_4">
     <g id="line2d_10">
      <g>
       <use xlink:href="#m4ad310f1d9" x="53.328125" y="135.399382" style="stroke: #000000; stroke-width: 0.8"/>
      </g>
     </g>
     <g id="text_11">
      <!-- 600 -->
      <g transform="translate(27.240625 139.1986) scale(0.1 -0.1)">
       <defs>
        <path id="DejaVuSans-36" d="M 2113 2584 
Q 1688 2584 1439 2293 
Q 1191 2003 1191 1497 
Q 1191 994 1439 701 
Q 1688 409 2113 409 
Q 2538 409 2786 701 
Q 3034 994 3034 1497 
Q 3034 2003 2786 2293 
Q 2538 2584 2113 2584 
z
M 3366 4563 
L 3366 3988 
Q 3128 4100 2886 4159 
Q 2644 4219 2406 4219 
Q 1781 4219 1451 3797 
Q 1122 3375 1075 2522 
Q 1259 2794 1537 2939 
Q 1816 3084 2150 3084 
Q 2853 3084 3261 2657 
Q 3669 2231 3669 1497 
Q 3669 778 3244 343 
Q 2819 -91 2113 -91 
Q 1303 -91 875 529 
Q 447 1150 447 2328 
Q 447 3434 972 4092 
Q 1497 4750 2381 4750 
Q 2619 4750 2861 4703 
Q 3103 4656 3366 4563 
z
" transform="scale(0.015625)"/>
       </defs>
       <use xlink:href="#DejaVuSans-36"/>
       <use xlink:href="#DejaVuSans-30" transform="translate(63.623047 0)"/>
       <use xlink:href="#DejaVuSans-30" transform="translate(127.246094 0)"/>
      </g>
     </g>
    </g>
    <g id="ytick_5">
     <g id="line2d_11">
      <g>
       <use xlink:href="#m4ad310f1d9" x="53.328125" y="98.600133" style="stroke: #000000; stroke-width: 0.8"/>
      </g>
     </g>
     <g id="text_12">
      <!-- 800 -->
      <g transform="translate(27.240625 102.399352) scale(0.1 -0.1)">
       <defs>
        <path id="DejaVuSans-38" d="M 2034 2216 
Q 1584 2216 1326 1975 
Q 1069 1734 1069 1313 
Q 1069 891 1326 650 
Q 1584 409 2034 409 
Q 2484 409 2743 651 
Q 3003 894 3003 1313 
Q 3003 1734 2745 1975 
Q 2488 2216 2034 2216 
z
M 1403 2484 
Q 997 2584 770 2862 
Q 544 3141 544 3541 
Q 544 4100 942 4425 
Q 1341 4750 2034 4750 
Q 2731 4750 3128 4425 
Q 3525 4100 3525 3541 
Q 3525 3141 3298 2862 
Q 3072 2584 2669 2484 
Q 3125 2378 3379 2068 
Q 3634 1759 3634 1313 
Q 3634 634 3220 271 
Q 2806 -91 2034 -91 
Q 1263 -91 848 271 
Q 434 634 434 1313 
Q 434 1759 690 2068 
Q 947 2378 1403 2484 
z
M 1172 3481 
Q 1172 3119 1398 2916 
Q 1625 2713 2034 2713 
Q 2441 2713 2670 2916 
Q 2900 3119 2900 3481 
Q 2900 3844 2670 4047 
Q 2441 4250 2034 4250 
Q 1625 4250 1398 4047 
Q 1172 3844 1172 3481 
z
" transform="scale(0.015625)"/>
       </defs>
       <use xlink:href="#DejaVuSans-38"/>
       <use xlink:href="#DejaVuSans-30" transform="translate(63.623047 0)"/>
       <use xlink:href="#DejaVuSans-30" transform="translate(127.246094 0)"/>
      </g>
     </g>
    </g>
    <g id="ytick_6">
     <g id="line2d_12">
      <g>
       <use xlink:href="#m4ad310f1d9" x="53.328125" y="61.800885" style="stroke: #000000; stroke-width: 0.8"/>
      </g>
     </g>
     <g id="text_13">
      <!-- 1000 -->
      <g transform="translate(20.878125 65.600104) scale(0.1 -0.1)">
       <use xlink:href="#DejaVuSans-31"/>
       <use xlink:href="#DejaVuSans-30" transform="translate(63.623047 0)"/>
       <use xlink:href="#DejaVuSans-30" transform="translate(127.246094 0)"/>
       <use xlink:href="#DejaVuSans-30" transform="translate(190.869141 0)"/>
      </g>
     </g>
    </g>
    <g id="ytick_7">
     <g id="line2d_13">
      <g>
       <use xlink:href="#m4ad310f1d9" x="53.328125" y="25.001636" style="stroke: #000000; stroke-width: 0.8"/>
      </g>
     </g>
     <g id="text_14">
      <!-- 1200 -->
      <g transform="translate(20.878125 28.800855) scale(0.1 -0.1)">
       <use xlink:href="#DejaVuSans-31"/>
       <use xlink:href="#DejaVuSans-32" transform="translate(63.623047 0)"/>
       <use xlink:href="#DejaVuSans-30" transform="translate(127.246094 0)"/>
       <use xlink:href="#DejaVuSans-30" transform="translate(190.869141 0)"/>
      </g>
     </g>
    </g>
    <g id="text_15">
     <!-- [counts] -->
     <g transform="translate(14.798438 152.791947) rotate(-90) scale(0.1 -0.1)">
      <defs>
       <path id="DejaVuSans-63" d="M 3122 3366 
L 3122 2828 
Q 2878 2963 2633 3030 
Q 2388 3097 2138 3097 
Q 1578 3097 1268 2742 
Q 959 2388 959 1747 
Q 959 1106 1268 751 
Q 1578 397 2138 397 
Q 2388 397 2633 464 
Q 2878 531 3122 666 
L 3122 134 
Q 2881 22 2623 -34 
Q 2366 -91 2075 -91 
Q 1284 -91 818 406 
Q 353 903 353 1747 
Q 353 2603 823 3093 
Q 1294 3584 2113 3584 
Q 2378 3584 2631 3529 
Q 2884 3475 3122 3366 
z
" transform="scale(0.015625)"/>
       <path id="DejaVuSans-6f" d="M 1959 3097 
Q 1497 3097 1228 2736 
Q 959 2375 959 1747 
Q 959 1119 1226 758 
Q 1494 397 1959 397 
Q 2419 397 2687 759 
Q 2956 1122 2956 1747 
Q 2956 2369 2687 2733 
Q 2419 3097 1959 3097 
z
M 1959 3584 
Q 2709 3584 3137 3096 
Q 3566 2609 3566 1747 
Q 3566 888 3137 398 
Q 2709 -91 1959 -91 
Q 1206 -91 779 398 
Q 353 888 353 1747 
Q 353 2609 779 3096 
Q 1206 3584 1959 3584 
z
" transform="scale(0.015625)"/>
       <path id="DejaVuSans-75" d="M 544 1381 
L 544 3500 
L 1119 3500 
L 1119 1403 
Q 1119 906 1312 657 
Q 1506 409 1894 409 
Q 2359 409 2629 706 
Q 2900 1003 2900 1516 
L 2900 3500 
L 3475 3500 
L 3475 0 
L 2900 0 
L 2900 538 
Q 2691 219 2414 64 
Q 2138 -91 1772 -91 
Q 1169 -91 856 284 
Q 544 659 544 1381 
z
M 1991 3584 
L 1991 3584 
z
" transform="scale(0.015625)"/>
       <path id="DejaVuSans-6e" d="M 3513 2113 
L 3513 0 
L 2938 0 
L 2938 2094 
Q 2938 2591 2744 2837 
Q 2550 3084 2163 3084 
Q 1697 3084 1428 2787 
Q 1159 2491 1159 1978 
L 1159 0 
L 581 0 
L 581 3500 
L 1159 3500 
L 1159 2956 
Q 1366 3272 1645 3428 
Q 1925 3584 2291 3584 
Q 2894 3584 3203 3211 
Q 3513 2838 3513 2113 
z
" transform="scale(0.015625)"/>
      </defs>
      <use xlink:href="#DejaVuSans-5b"/>
      <use xlink:href="#DejaVuSans-63" transform="translate(39.013672 0)"/>
      <use xlink:href="#DejaVuSans-6f" transform="translate(93.994141 0)"/>
      <use xlink:href="#DejaVuSans-75" transform="translate(155.175781 0)"/>
      <use xlink:href="#DejaVuSans-6e" transform="translate(218.554688 0)"/>
      <use xlink:href="#DejaVuSans-74" transform="translate(281.933594 0)"/>
      <use xlink:href="#DejaVuSans-73" transform="translate(321.142578 0)"/>
      <use xlink:href="#DejaVuSans-5d" transform="translate(373.242188 0)"/>
     </g>
    </g>
   </g>
   <g id="patch_3">
    <path d="M 53.328125 257.158895 
L 53.328125 7.2 
" style="fill: none; stroke: #000000; stroke-width: 0.8; stroke-linejoin: miter; stroke-linecap: square"/>
   </g>
   <g id="patch_4">
    <path d="M 431.87976 257.158895 
L 431.87976 7.2 
" style="fill: none; stroke: #000000; stroke-width: 0.8; stroke-linejoin: miter; stroke-linecap: square"/>
   </g>
   <g id="patch_5">
    <path d="M 53.328125 257.158895 
L 431.87976 257.158895 
" style="fill: none; stroke: #000000; stroke-width: 0.8; stroke-linejoin: miter; stroke-linecap: square"/>
   </g>
   <g id="patch_6">
    <path d="M 53.328125 7.2 
L 431.87976 7.2 
" style="fill: none; stroke: #000000; stroke-width: 0.8; stroke-linejoin: miter; stroke-linecap: square"/>
   </g>
   <g id="line2d_14">
    <path d="M 70.535017 232.549398 
L 71.682144 232.549398 
L 71.682144 227.581499 
L 72.82927 227.581499 
L 72.82927 221.509623 
L 73.976396 221.509623 
L 73.976396 213.965777 
L 75.123522 213.965777 
L 75.123522 206.789924 
L 76.270648 206.789924 
L 76.270648 193.174202 
L 77.417774 193.174202 
L 77.417774 179.190487 
L 78.564901 179.190487 
L 78.564901 179.374484 
L 79.712027 179.374484 
L 79.712027 175.326566 
L 80.859153 175.326566 
L 80.859153 163.366811 
L 82.006279 163.366811 
L 82.006279 157.846923 
L 83.153405 157.846923 
L 83.153405 142.023246 
L 84.300531 142.023246 
L 84.300531 144.415198 
L 85.447658 144.415198 
L 85.447658 140.551277 
L 86.594784 140.551277 
L 86.594784 140.183284 
L 87.74191 140.183284 
L 87.74191 127.119551 
L 88.889036 127.119551 
L 88.889036 117.919739 
L 90.036162 117.919739 
L 90.036162 106.327975 
L 91.183288 106.327975 
L 91.183288 103.384036 
L 92.330415 103.384036 
L 92.330415 111.111878 
L 93.477541 111.111878 
L 93.477541 93.816231 
L 94.624667 93.816231 
L 94.624667 104.120021 
L 95.771793 104.120021 
L 95.771793 103.384036 
L 96.918919 103.384036 
L 96.918919 96.392178 
L 98.066045 96.392178 
L 98.066045 86.088389 
L 99.213172 86.088389 
L 99.213172 87.00837 
L 100.360298 87.00837 
L 100.360298 83.512441 
L 101.507424 83.512441 
L 101.507424 87.00837 
L 102.65455 87.00837 
L 102.65455 79.64852 
L 103.801676 79.64852 
L 103.801676 81.488483 
L 104.948802 81.488483 
L 104.948802 75.784599 
L 106.095929 75.784599 
L 106.095929 73.024656 
L 107.243055 73.024656 
L 107.243055 69.344731 
L 108.390181 69.344731 
L 108.390181 71.920678 
L 109.537307 71.920678 
L 109.537307 67.320772 
L 110.684433 67.320772 
L 110.684433 57.016983 
L 111.831559 57.016983 
L 111.831559 67.136776 
L 112.978686 67.136776 
L 112.978686 61.432892 
L 114.125812 61.432892 
L 114.125812 63.456851 
L 115.272938 63.456851 
L 115.272938 50.025125 
L 116.420064 50.025125 
L 116.420064 61.248896 
L 117.56719 61.248896 
L 117.56719 64.928821 
L 118.714316 64.928821 
L 118.714316 52.969065 
L 119.861443 52.969065 
L 119.861443 50.577114 
L 121.008569 50.577114 
L 121.008569 54.441035 
L 122.155695 54.441035 
L 122.155695 51.681092 
L 123.302821 51.681092 
L 123.302821 54.257039 
L 124.449947 54.257039 
L 124.449947 44.137246 
L 125.597073 44.137246 
L 125.597073 51.497095 
L 126.7442 51.497095 
L 126.7442 59.040941 
L 127.891326 59.040941 
L 127.891326 48.001167 
L 129.038452 48.001167 
L 129.038452 43.401261 
L 130.185578 43.401261 
L 130.185578 35.305426 
L 131.332704 35.305426 
L 131.332704 38.249366 
L 132.47983 38.249366 
L 132.47983 51.681092 
L 133.626957 51.681092 
L 133.626957 35.489422 
L 134.774083 35.489422 
L 134.774083 47.81717 
L 135.921209 47.81717 
L 135.921209 40.089328 
L 137.068335 40.089328 
L 137.068335 41.377302 
L 138.215461 41.377302 
L 138.215461 50.76111 
L 139.362587 50.76111 
L 139.362587 34.017452 
L 140.509714 34.017452 
L 140.509714 37.513381 
L 141.65684 37.513381 
L 141.65684 29.049554 
L 142.803966 29.049554 
L 142.803966 37.697377 
L 143.951092 37.697377 
L 143.951092 35.857415 
L 145.098218 35.857415 
L 145.098218 42.113287 
L 146.245344 42.113287 
L 146.245344 45.793212 
L 147.392471 45.793212 
L 147.392471 28.313569 
L 148.539597 28.313569 
L 148.539597 29.601542 
L 149.686723 29.601542 
L 149.686723 44.505238 
L 150.833849 44.505238 
L 150.833849 40.641317 
L 151.980975 40.641317 
L 151.980975 45.425219 
L 153.128101 45.425219 
L 153.128101 44.873231 
L 154.275228 44.873231 
L 154.275228 34.569441 
L 155.422354 34.569441 
L 155.422354 28.497565 
L 156.56948 28.497565 
L 156.56948 36.225407 
L 157.716606 36.225407 
L 157.716606 40.457321 
L 158.863732 40.457321 
L 158.863732 27.209591 
L 160.010858 27.209591 
L 160.010858 36.777396 
L 161.157985 36.777396 
L 161.157985 33.833456 
L 162.305111 33.833456 
L 162.305111 38.801355 
L 163.452237 38.801355 
L 163.452237 33.64946 
L 164.599363 33.64946 
L 164.599363 39.169347 
L 165.746489 39.169347 
L 165.746489 34.017452 
L 166.893615 34.017452 
L 166.893615 43.217264 
L 168.040742 43.217264 
L 168.040742 34.385445 
L 169.187868 34.385445 
L 169.187868 23.34567 
L 170.334994 23.34567 
L 170.334994 27.76158 
L 171.48212 27.76158 
L 171.48212 30.153531 
L 172.629246 30.153531 
L 172.629246 33.833456 
L 173.776372 33.833456 
L 173.776372 20.769723 
L 174.923499 20.769723 
L 174.923499 35.489422 
L 176.070625 35.489422 
L 176.070625 43.585257 
L 177.217751 43.585257 
L 177.217751 34.017452 
L 178.364877 34.017452 
L 178.364877 45.425219 
L 179.512003 45.425219 
L 179.512003 35.12143 
L 180.659129 35.12143 
L 180.659129 27.945576 
L 181.806256 27.945576 
L 181.806256 31.993494 
L 182.953382 31.993494 
L 182.953382 36.409403 
L 184.100508 36.409403 
L 184.100508 37.145388 
L 185.247634 37.145388 
L 185.247634 23.897659 
L 186.39476 23.897659 
L 186.39476 28.313569 
L 187.541886 28.313569 
L 187.541886 33.833456 
L 188.689013 33.833456 
L 188.689013 32.17749 
L 189.836139 32.17749 
L 189.836139 37.145388 
L 190.983265 37.145388 
L 190.983265 33.097471 
L 192.130391 33.097471 
L 192.130391 23.713663 
L 193.277517 23.713663 
L 193.277517 29.785539 
L 194.424643 29.785539 
L 194.424643 35.673418 
L 195.57177 35.673418 
L 195.57177 28.865558 
L 196.718896 28.865558 
L 196.718896 43.953249 
L 197.866022 43.953249 
L 197.866022 36.409403 
L 199.013148 36.409403 
L 199.013148 35.305426 
L 200.160274 35.305426 
L 200.160274 37.145388 
L 201.3074 37.145388 
L 201.3074 33.465464 
L 202.454527 33.465464 
L 202.454527 35.489422 
L 203.601653 35.489422 
L 203.601653 32.17749 
L 204.748779 32.17749 
L 204.748779 34.017452 
L 205.895905 34.017452 
L 205.895905 31.257509 
L 207.043031 31.257509 
L 207.043031 28.129573 
L 208.190157 28.129573 
L 208.190157 27.025595 
L 209.337284 27.025595 
L 209.337284 24.265651 
L 210.48441 24.265651 
L 210.48441 23.34567 
L 211.631536 23.34567 
L 211.631536 32.545482 
L 212.778662 32.545482 
L 212.778662 27.209591 
L 213.925788 27.209591 
L 213.925788 31.257509 
L 215.072914 31.257509 
L 215.072914 27.025595 
L 216.220041 27.025595 
L 216.220041 33.281467 
L 217.367167 33.281467 
L 217.367167 33.097471 
L 218.514293 33.097471 
L 218.514293 41.193306 
L 219.661419 41.193306 
L 219.661419 32.545482 
L 220.808545 32.545482 
L 220.808545 30.70552 
L 221.955671 30.70552 
L 221.955671 24.81764 
L 223.102798 24.81764 
L 223.102798 34.937434 
L 224.249924 34.937434 
L 224.249924 32.913475 
L 225.39705 32.913475 
L 225.39705 23.161674 
L 226.544176 23.161674 
L 226.544176 33.281467 
L 227.691302 33.281467 
L 227.691302 39.353343 
L 228.838428 39.353343 
L 228.838428 20.40173 
L 229.985555 20.40173 
L 229.985555 40.089328 
L 231.132681 40.089328 
L 231.132681 28.865558 
L 232.279807 28.865558 
L 232.279807 38.433362 
L 233.426933 38.433362 
L 233.426933 29.417546 
L 234.574059 29.417546 
L 234.574059 30.521524 
L 235.721185 30.521524 
L 235.721185 48.553155 
L 236.868312 48.553155 
L 236.868312 38.985351 
L 238.015438 38.985351 
L 238.015438 35.305426 
L 239.162564 35.305426 
L 239.162564 24.81764 
L 240.30969 24.81764 
L 240.30969 34.753437 
L 241.456816 34.753437 
L 241.456816 35.857415 
L 242.603942 35.857415 
L 242.603942 28.497565 
L 243.751069 28.497565 
L 243.751069 35.489422 
L 244.898195 35.489422 
L 244.898195 30.521524 
L 246.045321 30.521524 
L 246.045321 33.281467 
L 247.192447 33.281467 
L 247.192447 35.489422 
L 248.339573 35.489422 
L 248.339573 34.569441 
L 249.486699 34.569441 
L 249.486699 22.241693 
L 250.633826 22.241693 
L 250.633826 36.5934 
L 251.780952 36.5934 
L 251.780952 37.697377 
L 252.928078 37.697377 
L 252.928078 33.281467 
L 254.075204 33.281467 
L 254.075204 34.937434 
L 255.22233 34.937434 
L 255.22233 23.161674 
L 256.369456 23.161674 
L 256.369456 36.041411 
L 257.516583 36.041411 
L 257.516583 39.905332 
L 258.663709 39.905332 
L 258.663709 33.281467 
L 259.810835 33.281467 
L 259.810835 18.561768 
L 260.957961 18.561768 
L 260.957961 33.097471 
L 262.105087 33.097471 
L 262.105087 37.145388 
L 263.252213 37.145388 
L 263.252213 38.801355 
L 264.39934 38.801355 
L 264.39934 32.17749 
L 265.546466 32.17749 
L 265.546466 31.993494 
L 266.693592 31.993494 
L 266.693592 29.23355 
L 267.840718 29.23355 
L 267.840718 43.769253 
L 268.987844 43.769253 
L 268.987844 48.921148 
L 270.13497 48.921148 
L 270.13497 44.873231 
L 271.282097 44.873231 
L 271.282097 67.320772 
L 272.429223 67.320772 
L 272.429223 73.576644 
L 273.576349 73.576644 
L 273.576349 83.696438 
L 274.723475 83.696438 
L 274.723475 84.800415 
L 275.870601 84.800415 
L 275.870601 97.864148 
L 277.017727 97.864148 
L 277.017727 107.06396 
L 278.164854 107.06396 
L 278.164854 113.687825 
L 279.31198 113.687825 
L 279.31198 130.063491 
L 280.459106 130.063491 
L 280.459106 127.119551 
L 281.606232 127.119551 
L 281.606232 136.871352 
L 282.753358 136.871352 
L 282.753358 139.999288 
L 285.047611 139.999288 
L 285.047611 144.415198 
L 286.194737 144.415198 
L 286.194737 154.534991 
L 287.341863 154.534991 
L 287.341863 158.582908 
L 288.488989 158.582908 
L 288.488989 161.158856 
L 289.636115 161.158856 
L 289.636115 165.206773 
L 290.783241 165.206773 
L 290.783241 167.230732 
L 291.930368 167.230732 
L 291.930368 182.134427 
L 293.077494 182.134427 
L 293.077494 180.294465 
L 294.22462 180.294465 
L 294.22462 182.50242 
L 295.371746 182.50242 
L 295.371746 183.054408 
L 296.518872 183.054408 
L 296.518872 193.174202 
L 297.665998 193.174202 
L 297.665998 188.390299 
L 298.813125 188.390299 
L 298.813125 197.038123 
L 299.960251 197.038123 
L 299.960251 195.566153 
L 301.107377 195.566153 
L 301.107377 205.869942 
L 302.254503 205.869942 
L 302.254503 203.477991 
L 303.401629 203.477991 
L 303.401629 213.045796 
L 304.548755 213.045796 
L 304.548755 211.38983 
L 305.695882 211.38983 
L 305.695882 207.525909 
L 306.843008 207.525909 
L 306.843008 212.8618 
L 307.990134 212.8618 
L 307.990134 211.941818 
L 309.13726 211.941818 
L 309.13726 215.989736 
L 310.284386 215.989736 
L 310.284386 213.229792 
L 311.431512 213.229792 
L 311.431512 216.541725 
L 312.578639 216.541725 
L 312.578639 215.621743 
L 313.725765 215.621743 
L 313.725765 220.221649 
L 314.872891 220.221649 
L 314.872891 224.08557 
L 316.020017 224.08557 
L 316.020017 223.165589 
L 317.167143 223.165589 
L 317.167143 222.061612 
L 318.314269 222.061612 
L 318.314269 225.925533 
L 319.461396 225.925533 
L 319.461396 226.845514 
L 320.608522 226.845514 
L 320.608522 224.269567 
L 321.755648 224.269567 
L 321.755648 226.661518 
L 322.902774 226.661518 
L 322.902774 231.077428 
L 324.0499 231.077428 
L 324.0499 231.44542 
L 325.197026 231.44542 
L 325.197026 232.181405 
L 326.344153 232.181405 
L 326.344153 230.709435 
L 327.491279 230.709435 
L 327.491279 231.44542 
L 328.638405 231.44542 
L 328.638405 233.101386 
L 329.785531 233.101386 
L 329.785531 230.525439 
L 330.932657 230.525439 
L 330.932657 235.125345 
L 332.079783 235.125345 
L 332.079783 237.149304 
L 333.22691 237.149304 
L 333.22691 238.253281 
L 334.374036 238.253281 
L 334.374036 236.965307 
L 335.521162 236.965307 
L 335.521162 234.021368 
L 336.668288 234.021368 
L 336.668288 236.781311 
L 337.815414 236.781311 
L 337.815414 236.965307 
L 338.96254 236.965307 
L 338.96254 238.989266 
L 340.109667 238.989266 
L 340.109667 237.3333 
L 341.256793 237.3333 
L 341.256793 240.27724 
L 342.403919 240.27724 
L 342.403919 239.909247 
L 343.551045 239.909247 
L 343.551045 240.093244 
L 344.698171 240.093244 
L 344.698171 240.461236 
L 345.845297 240.461236 
L 345.845297 241.013225 
L 346.992424 241.013225 
L 346.992424 241.565213 
L 348.13955 241.565213 
L 348.13955 240.093244 
L 349.286676 240.093244 
L 349.286676 241.74921 
L 350.433802 241.74921 
L 350.433802 242.301198 
L 351.580928 242.301198 
L 351.580928 241.197221 
L 352.728054 241.197221 
L 352.728054 242.117202 
L 353.875181 242.117202 
L 353.875181 242.853187 
L 355.022307 242.853187 
L 355.022307 243.405176 
L 356.169433 243.405176 
L 356.169433 241.197221 
L 357.316559 241.197221 
L 357.316559 243.037183 
L 358.463685 243.037183 
L 358.463685 242.853187 
L 359.610811 242.853187 
L 359.610811 243.405176 
L 360.757938 243.405176 
L 360.757938 242.669191 
L 361.905064 242.669191 
L 361.905064 243.037183 
L 363.05219 243.037183 
L 363.05219 242.853187 
L 364.199316 242.853187 
L 364.199316 243.957165 
L 365.346442 243.957165 
L 365.346442 243.22118 
L 366.493568 243.22118 
L 366.493568 244.325157 
L 367.640695 244.325157 
L 367.640695 244.509153 
L 369.934947 244.509153 
L 369.934947 243.773168 
L 371.082073 243.773168 
L 371.082073 244.509153 
L 372.229199 244.509153 
L 372.229199 244.325157 
L 373.376325 244.325157 
L 373.376325 243.773168 
L 375.670578 243.773168 
L 375.670578 244.325157 
L 376.817704 244.325157 
L 376.817704 244.509153 
L 377.96483 244.509153 
L 377.96483 243.773168 
L 379.111956 243.773168 
L 379.111956 244.69315 
L 380.259082 244.69315 
L 380.259082 244.325157 
L 381.406209 244.325157 
L 381.406209 245.061142 
L 383.700461 245.061142 
L 383.700461 244.325157 
L 384.847587 244.325157 
L 384.847587 244.877146 
L 385.994713 244.877146 
L 385.994713 245.061142 
L 387.141839 245.061142 
L 387.141839 244.325157 
L 388.288966 244.325157 
L 388.288966 245.245138 
L 389.436092 245.245138 
L 389.436092 245.429135 
L 390.583218 245.429135 
L 390.583218 245.061142 
L 391.730344 245.061142 
L 391.730344 244.325157 
L 392.87747 244.325157 
L 392.87747 245.061142 
L 394.024596 245.061142 
L 394.024596 244.877146 
L 395.171723 244.877146 
L 395.171723 245.429135 
L 396.318849 245.429135 
L 396.318849 244.509153 
L 397.465975 244.509153 
L 397.465975 245.245138 
L 398.613101 245.245138 
L 398.613101 245.061142 
L 400.907353 245.061142 
L 400.907353 245.613131 
L 403.201606 245.613131 
L 403.201606 245.061142 
L 404.348732 245.061142 
L 404.348732 244.877146 
L 405.495858 244.877146 
L 405.495858 245.429135 
L 406.642984 245.429135 
L 406.642984 245.613131 
L 407.79011 245.613131 
L 407.79011 245.061142 
L 408.937237 245.061142 
L 408.937237 245.245138 
L 410.084363 245.245138 
L 410.084363 245.797127 
L 412.378615 245.797127 
L 412.378615 245.613131 
L 413.525741 245.613131 
L 413.525741 245.429135 
L 414.672867 245.429135 
L 414.672867 245.429135 
" clip-path="url(#p28e93d42b9)" style="fill: none; stroke: #1f77b4; stroke-width: 1.5; stroke-linecap: square"/>
   </g>
  </g>
  <g id="axes_2">
   <g id="patch_7">
    <path d="M 486.647885 257.158895 
L 865.19952 257.158895 
L 865.19952 7.2 
L 486.647885 7.2 
z
" style="fill: #ffffff"/>
   </g>
   <g id="matplotlib.axis_3">
    <g id="xtick_7">
     <g id="line2d_15">
      <g>
       <use xlink:href="#me02eb17d0e" x="500.382381" y="257.158895" style="stroke: #000000; stroke-width: 0.8"/>
      </g>
     </g>
     <g id="text_16">
      <!-- 0.0 -->
      <g transform="translate(492.430818 271.757332) scale(0.1 -0.1)">
       <defs>
        <path id="DejaVuSans-2e" d="M 684 794 
L 1344 794 
L 1344 0 
L 684 0 
L 684 794 
z
" transform="scale(0.015625)"/>
       </defs>
       <use xlink:href="#DejaVuSans-30"/>
       <use xlink:href="#DejaVuSans-2e" transform="translate(63.623047 0)"/>
       <use xlink:href="#DejaVuSans-30" transform="translate(95.410156 0)"/>
      </g>
     </g>
    </g>
    <g id="xtick_8">
     <g id="line2d_16">
      <g>
       <use xlink:href="#me02eb17d0e" x="544.084961" y="257.158895" style="stroke: #000000; stroke-width: 0.8"/>
      </g>
     </g>
     <g id="text_17">
      <!-- 2.5 -->
      <g transform="translate(536.133398 271.757332) scale(0.1 -0.1)">
       <use xlink:href="#DejaVuSans-32"/>
       <use xlink:href="#DejaVuSans-2e" transform="translate(63.623047 0)"/>
       <use xlink:href="#DejaVuSans-35" transform="translate(95.410156 0)"/>
      </g>
     </g>
    </g>
    <g id="xtick_9">
     <g id="line2d_17">
      <g>
       <use xlink:href="#me02eb17d0e" x="587.78754" y="257.158895" style="stroke: #000000; stroke-width: 0.8"/>
      </g>
     </g>
     <g id="text_18">
      <!-- 5.0 -->
      <g transform="translate(579.835978 271.757332) scale(0.1 -0.1)">
       <use xlink:href="#DejaVuSans-35"/>
       <use xlink:href="#DejaVuSans-2e" transform="translate(63.623047 0)"/>
       <use xlink:href="#DejaVuSans-30" transform="translate(95.410156 0)"/>
      </g>
     </g>
    </g>
    <g id="xtick_10">
     <g id="line2d_18">
      <g>
       <use xlink:href="#me02eb17d0e" x="631.49012" y="257.158895" style="stroke: #000000; stroke-width: 0.8"/>
      </g>
     </g>
     <g id="text_19">
      <!-- 7.5 -->
      <g transform="translate(623.538557 271.757332) scale(0.1 -0.1)">
       <defs>
        <path id="DejaVuSans-37" d="M 525 4666 
L 3525 4666 
L 3525 4397 
L 1831 0 
L 1172 0 
L 2766 4134 
L 525 4134 
L 525 4666 
z
" transform="scale(0.015625)"/>
       </defs>
       <use xlink:href="#DejaVuSans-37"/>
       <use xlink:href="#DejaVuSans-2e" transform="translate(63.623047 0)"/>
       <use xlink:href="#DejaVuSans-35" transform="translate(95.410156 0)"/>
      </g>
     </g>
    </g>
    <g id="xtick_11">
     <g id="line2d_19">
      <g>
       <use xlink:href="#me02eb17d0e" x="675.192699" y="257.158895" style="stroke: #000000; stroke-width: 0.8"/>
      </g>
     </g>
     <g id="text_20">
      <!-- 10.0 -->
      <g transform="translate(664.059887 271.757332) scale(0.1 -0.1)">
       <use xlink:href="#DejaVuSans-31"/>
       <use xlink:href="#DejaVuSans-30" transform="translate(63.623047 0)"/>
       <use xlink:href="#DejaVuSans-2e" transform="translate(127.246094 0)"/>
       <use xlink:href="#DejaVuSans-30" transform="translate(159.033203 0)"/>
      </g>
     </g>
    </g>
    <g id="xtick_12">
     <g id="line2d_20">
      <g>
       <use xlink:href="#me02eb17d0e" x="718.895279" y="257.158895" style="stroke: #000000; stroke-width: 0.8"/>
      </g>
     </g>
     <g id="text_21">
      <!-- 12.5 -->
      <g transform="translate(707.762466 271.757332) scale(0.1 -0.1)">
       <use xlink:href="#DejaVuSans-31"/>
       <use xlink:href="#DejaVuSans-32" transform="translate(63.623047 0)"/>
       <use xlink:href="#DejaVuSans-2e" transform="translate(127.246094 0)"/>
       <use xlink:href="#DejaVuSans-35" transform="translate(159.033203 0)"/>
      </g>
     </g>
    </g>
    <g id="xtick_13">
     <g id="line2d_21">
      <g>
       <use xlink:href="#me02eb17d0e" x="762.597858" y="257.158895" style="stroke: #000000; stroke-width: 0.8"/>
      </g>
     </g>
     <g id="text_22">
      <!-- 15.0 -->
      <g transform="translate(751.465046 271.757332) scale(0.1 -0.1)">
       <use xlink:href="#DejaVuSans-31"/>
       <use xlink:href="#DejaVuSans-35" transform="translate(63.623047 0)"/>
       <use xlink:href="#DejaVuSans-2e" transform="translate(127.246094 0)"/>
       <use xlink:href="#DejaVuSans-30" transform="translate(159.033203 0)"/>
      </g>
     </g>
    </g>
    <g id="xtick_14">
     <g id="line2d_22">
      <g>
       <use xlink:href="#me02eb17d0e" x="806.300438" y="257.158895" style="stroke: #000000; stroke-width: 0.8"/>
      </g>
     </g>
     <g id="text_23">
      <!-- 17.5 -->
      <g transform="translate(795.167625 271.757332) scale(0.1 -0.1)">
       <use xlink:href="#DejaVuSans-31"/>
       <use xlink:href="#DejaVuSans-37" transform="translate(63.623047 0)"/>
       <use xlink:href="#DejaVuSans-2e" transform="translate(127.246094 0)"/>
       <use xlink:href="#DejaVuSans-35" transform="translate(159.033203 0)"/>
      </g>
     </g>
    </g>
    <g id="xtick_15">
     <g id="line2d_23">
      <g>
       <use xlink:href="#me02eb17d0e" x="850.003017" y="257.158895" style="stroke: #000000; stroke-width: 0.8"/>
      </g>
     </g>
     <g id="text_24">
      <!-- 20.0 -->
      <g transform="translate(838.870205 271.757332) scale(0.1 -0.1)">
       <use xlink:href="#DejaVuSans-32"/>
       <use xlink:href="#DejaVuSans-30" transform="translate(63.623047 0)"/>
       <use xlink:href="#DejaVuSans-2e" transform="translate(127.246094 0)"/>
       <use xlink:href="#DejaVuSans-30" transform="translate(159.033203 0)"/>
      </g>
     </g>
    </g>
    <g id="text_25">
     <!-- wavelength [Å] -->
     <g transform="translate(637.886202 287.119832) scale(0.1 -0.1)">
      <defs>
       <path id="DejaVuSans-77" d="M 269 3500 
L 844 3500 
L 1563 769 
L 2278 3500 
L 2956 3500 
L 3675 769 
L 4391 3500 
L 4966 3500 
L 4050 0 
L 3372 0 
L 2619 2869 
L 1863 0 
L 1184 0 
L 269 3500 
z
" transform="scale(0.015625)"/>
       <path id="DejaVuSans-61" d="M 2194 1759 
Q 1497 1759 1228 1600 
Q 959 1441 959 1056 
Q 959 750 1161 570 
Q 1363 391 1709 391 
Q 2188 391 2477 730 
Q 2766 1069 2766 1631 
L 2766 1759 
L 2194 1759 
z
M 3341 1997 
L 3341 0 
L 2766 0 
L 2766 531 
Q 2569 213 2275 61 
Q 1981 -91 1556 -91 
Q 1019 -91 701 211 
Q 384 513 384 1019 
Q 384 1609 779 1909 
Q 1175 2209 1959 2209 
L 2766 2209 
L 2766 2266 
Q 2766 2663 2505 2880 
Q 2244 3097 1772 3097 
Q 1472 3097 1187 3025 
Q 903 2953 641 2809 
L 641 3341 
Q 956 3463 1253 3523 
Q 1550 3584 1831 3584 
Q 2591 3584 2966 3190 
Q 3341 2797 3341 1997 
z
" transform="scale(0.015625)"/>
       <path id="DejaVuSans-76" d="M 191 3500 
L 800 3500 
L 1894 563 
L 2988 3500 
L 3597 3500 
L 2284 0 
L 1503 0 
L 191 3500 
z
" transform="scale(0.015625)"/>
       <path id="DejaVuSans-6c" d="M 603 4863 
L 1178 4863 
L 1178 0 
L 603 0 
L 603 4863 
z
" transform="scale(0.015625)"/>
       <path id="DejaVuSans-67" d="M 2906 1791 
Q 2906 2416 2648 2759 
Q 2391 3103 1925 3103 
Q 1463 3103 1205 2759 
Q 947 2416 947 1791 
Q 947 1169 1205 825 
Q 1463 481 1925 481 
Q 2391 481 2648 825 
Q 2906 1169 2906 1791 
z
M 3481 434 
Q 3481 -459 3084 -895 
Q 2688 -1331 1869 -1331 
Q 1566 -1331 1297 -1286 
Q 1028 -1241 775 -1147 
L 775 -588 
Q 1028 -725 1275 -790 
Q 1522 -856 1778 -856 
Q 2344 -856 2625 -561 
Q 2906 -266 2906 331 
L 2906 616 
Q 2728 306 2450 153 
Q 2172 0 1784 0 
Q 1141 0 747 490 
Q 353 981 353 1791 
Q 353 2603 747 3093 
Q 1141 3584 1784 3584 
Q 2172 3584 2450 3431 
Q 2728 3278 2906 2969 
L 2906 3500 
L 3481 3500 
L 3481 434 
z
" transform="scale(0.015625)"/>
       <path id="DejaVuSans-68" d="M 3513 2113 
L 3513 0 
L 2938 0 
L 2938 2094 
Q 2938 2591 2744 2837 
Q 2550 3084 2163 3084 
Q 1697 3084 1428 2787 
Q 1159 2491 1159 1978 
L 1159 0 
L 581 0 
L 581 4863 
L 1159 4863 
L 1159 2956 
Q 1366 3272 1645 3428 
Q 1925 3584 2291 3584 
Q 2894 3584 3203 3211 
Q 3513 2838 3513 2113 
z
" transform="scale(0.015625)"/>
       <path id="DejaVuSans-c5" d="M 2663 5081 
Q 2663 5278 2523 5417 
Q 2384 5556 2188 5556 
Q 1988 5556 1852 5420 
Q 1716 5284 1716 5081 
Q 1716 4884 1853 4746 
Q 1991 4609 2188 4609 
Q 2384 4609 2523 4746 
Q 2663 4884 2663 5081 
z
M 2188 4044 
L 1338 1722 
L 3041 1722 
L 2188 4044 
z
M 1716 4366 
Q 1525 4494 1428 4673 
Q 1331 4853 1331 5081 
Q 1331 5441 1579 5691 
Q 1828 5941 2188 5941 
Q 2544 5941 2795 5689 
Q 3047 5438 3047 5081 
Q 3047 4863 2948 4678 
Q 2850 4494 2663 4366 
L 4325 0 
L 3669 0 
L 3244 1197 
L 1141 1197 
L 716 0 
L 50 0 
L 1716 4366 
z
" transform="scale(0.015625)"/>
      </defs>
      <use xlink:href="#DejaVuSans-77"/>
      <use xlink:href="#DejaVuSans-61" transform="translate(81.787109 0)"/>
      <use xlink:href="#DejaVuSans-76" transform="translate(143.066406 0)"/>
      <use xlink:href="#DejaVuSans-65" transform="translate(202.246094 0)"/>
      <use xlink:href="#DejaVuSans-6c" transform="translate(263.769531 0)"/>
      <use xlink:href="#DejaVuSans-65" transform="translate(291.552734 0)"/>
      <use xlink:href="#DejaVuSans-6e" transform="translate(353.076172 0)"/>
      <use xlink:href="#DejaVuSans-67" transform="translate(416.455078 0)"/>
      <use xlink:href="#DejaVuSans-74" transform="translate(479.931641 0)"/>
      <use xlink:href="#DejaVuSans-68" transform="translate(519.140625 0)"/>
      <use xlink:href="#DejaVuSans-20" transform="translate(582.519531 0)"/>
      <use xlink:href="#DejaVuSans-5b" transform="translate(614.306641 0)"/>
      <use xlink:href="#DejaVuSans-c5" transform="translate(653.320312 0)"/>
      <use xlink:href="#DejaVuSans-5d" transform="translate(721.728516 0)"/>
     </g>
    </g>
   </g>
   <g id="matplotlib.axis_4">
    <g id="ytick_8">
     <g id="line2d_24">
      <g>
       <use xlink:href="#m4ad310f1d9" x="486.647885" y="245.797127" style="stroke: #000000; stroke-width: 0.8"/>
      </g>
     </g>
     <g id="text_26">
      <!-- 0 -->
      <g transform="translate(473.285385 249.596346) scale(0.1 -0.1)">
       <use xlink:href="#DejaVuSans-30"/>
      </g>
     </g>
    </g>
    <g id="ytick_9">
     <g id="line2d_25">
      <g>
       <use xlink:href="#m4ad310f1d9" x="486.647885" y="193.354164" style="stroke: #000000; stroke-width: 0.8"/>
      </g>
     </g>
     <g id="text_27">
      <!-- 1000 -->
      <g transform="translate(454.197885 197.153383) scale(0.1 -0.1)">
       <use xlink:href="#DejaVuSans-31"/>
       <use xlink:href="#DejaVuSans-30" transform="translate(63.623047 0)"/>
       <use xlink:href="#DejaVuSans-30" transform="translate(127.246094 0)"/>
       <use xlink:href="#DejaVuSans-30" transform="translate(190.869141 0)"/>
      </g>
     </g>
    </g>
    <g id="ytick_10">
     <g id="line2d_26">
      <g>
       <use xlink:href="#m4ad310f1d9" x="486.647885" y="140.911201" style="stroke: #000000; stroke-width: 0.8"/>
      </g>
     </g>
     <g id="text_28">
      <!-- 2000 -->
      <g transform="translate(454.197885 144.71042) scale(0.1 -0.1)">
       <use xlink:href="#DejaVuSans-32"/>
       <use xlink:href="#DejaVuSans-30" transform="translate(63.623047 0)"/>
       <use xlink:href="#DejaVuSans-30" transform="translate(127.246094 0)"/>
       <use xlink:href="#DejaVuSans-30" transform="translate(190.869141 0)"/>
      </g>
     </g>
    </g>
    <g id="ytick_11">
     <g id="line2d_27">
      <g>
       <use xlink:href="#m4ad310f1d9" x="486.647885" y="88.468238" style="stroke: #000000; stroke-width: 0.8"/>
      </g>
     </g>
     <g id="text_29">
      <!-- 3000 -->
      <g transform="translate(454.197885 92.267457) scale(0.1 -0.1)">
       <use xlink:href="#DejaVuSans-33"/>
       <use xlink:href="#DejaVuSans-30" transform="translate(63.623047 0)"/>
       <use xlink:href="#DejaVuSans-30" transform="translate(127.246094 0)"/>
       <use xlink:href="#DejaVuSans-30" transform="translate(190.869141 0)"/>
      </g>
     </g>
    </g>
    <g id="ytick_12">
     <g id="line2d_28">
      <g>
       <use xlink:href="#m4ad310f1d9" x="486.647885" y="36.025275" style="stroke: #000000; stroke-width: 0.8"/>
      </g>
     </g>
     <g id="text_30">
      <!-- 4000 -->
      <g transform="translate(454.197885 39.824493) scale(0.1 -0.1)">
       <use xlink:href="#DejaVuSans-34"/>
       <use xlink:href="#DejaVuSans-30" transform="translate(63.623047 0)"/>
       <use xlink:href="#DejaVuSans-30" transform="translate(127.246094 0)"/>
       <use xlink:href="#DejaVuSans-30" transform="translate(190.869141 0)"/>
      </g>
     </g>
    </g>
    <g id="text_31">
     <!-- [counts] -->
     <g transform="translate(448.118197 152.791947) rotate(-90) scale(0.1 -0.1)">
      <use xlink:href="#DejaVuSans-5b"/>
      <use xlink:href="#DejaVuSans-63" transform="translate(39.013672 0)"/>
      <use xlink:href="#DejaVuSans-6f" transform="translate(93.994141 0)"/>
      <use xlink:href="#DejaVuSans-75" transform="translate(155.175781 0)"/>
      <use xlink:href="#DejaVuSans-6e" transform="translate(218.554688 0)"/>
      <use xlink:href="#DejaVuSans-74" transform="translate(281.933594 0)"/>
      <use xlink:href="#DejaVuSans-73" transform="translate(321.142578 0)"/>
      <use xlink:href="#DejaVuSans-5d" transform="translate(373.242188 0)"/>
     </g>
    </g>
   </g>
   <g id="patch_8">
    <path d="M 486.647885 257.158895 
L 486.647885 7.2 
" style="fill: none; stroke: #000000; stroke-width: 0.8; stroke-linejoin: miter; stroke-linecap: square"/>
   </g>
   <g id="patch_9">
    <path d="M 865.19952 257.158895 
L 865.19952 7.2 
" style="fill: none; stroke: #000000; stroke-width: 0.8; stroke-linejoin: miter; stroke-linecap: square"/>
   </g>
   <g id="patch_10">
    <path d="M 486.647885 257.158895 
L 865.19952 257.158895 
" style="fill: none; stroke: #000000; stroke-width: 0.8; stroke-linejoin: miter; stroke-linecap: square"/>
   </g>
   <g id="patch_11">
    <path d="M 486.647885 7.2 
L 865.19952 7.2 
" style="fill: none; stroke: #000000; stroke-width: 0.8; stroke-linejoin: miter; stroke-linecap: square"/>
   </g>
   <g id="line2d_29">
    <path d="M 503.854777 157.220962 
L 505.001904 157.220962 
L 505.001904 147.571457 
L 506.14903 147.571457 
L 506.14903 138.970811 
L 507.296156 138.970811 
L 507.296156 136.558435 
L 508.443282 136.558435 
L 508.443282 146.260383 
L 509.590408 146.260383 
L 509.590408 159.213795 
L 510.737534 159.213795 
L 510.737534 148.987417 
L 511.884661 148.987417 
L 511.884661 126.856487 
L 513.031787 126.856487 
L 513.031787 105.459758 
L 514.178913 105.459758 
L 514.178913 83.119056 
L 515.326039 83.119056 
L 515.326039 66.966623 
L 516.473165 66.966623 
L 516.473165 35.605731 
L 517.620291 35.605731 
L 517.620291 23.334078 
L 518.767418 23.334078 
L 518.767418 23.543849 
L 519.914544 23.543849 
L 519.914544 18.561768 
L 521.06167 18.561768 
L 521.06167 27.896615 
L 522.208796 27.896615 
L 522.208796 32.301824 
L 523.355922 32.301824 
L 523.355922 42.685531 
L 524.503048 42.685531 
L 524.503048 47.405398 
L 525.650175 47.405398 
L 525.650175 63.033401 
L 526.797301 63.033401 
L 526.797301 68.959455 
L 527.944427 68.959455 
L 527.944427 77.035672 
L 529.091553 77.035672 
L 529.091553 88.363352 
L 530.238679 88.363352 
L 530.238679 93.764977 
L 531.385805 93.764977 
L 531.385805 94.132078 
L 532.532932 94.132078 
L 532.532932 96.072467 
L 533.680058 96.072467 
L 533.680058 95.652924 
L 534.827184 95.652924 
L 534.827184 98.537287 
L 535.97431 98.537287 
L 535.97431 86.370519 
L 537.121436 86.370519 
L 537.121436 87.576707 
L 538.268562 87.576707 
L 538.268562 83.223941 
L 539.415689 83.223941 
L 539.415689 67.333724 
L 540.562815 67.333724 
L 540.562815 61.093011 
L 541.709941 61.093011 
L 541.709941 49.817774 
L 542.857067 49.817774 
L 542.857067 43.839276 
L 544.004193 43.839276 
L 544.004193 36.549704 
L 545.151319 36.549704 
L 545.151319 31.882281 
L 546.298446 31.882281 
L 546.298446 43.262404 
L 547.445572 43.262404 
L 547.445572 51.33862 
L 548.592698 51.33862 
L 548.592698 65.655549 
L 549.739824 65.655549 
L 549.739824 73.574436 
L 550.88695 73.574436 
L 550.88695 80.968894 
L 552.034076 80.968894 
L 552.034076 88.048694 
L 553.181203 88.048694 
L 553.181203 99.533703 
L 554.328329 99.533703 
L 554.328329 106.403731 
L 555.475455 106.403731 
L 555.475455 111.752913 
L 556.622581 111.752913 
L 556.622581 124.863654 
L 557.769707 124.863654 
L 557.769707 126.646715 
L 558.916833 126.646715 
L 558.916833 129.688407 
L 560.06396 129.688407 
L 560.06396 135.509576 
L 561.211086 135.509576 
L 561.211086 143.008919 
L 562.358212 143.008919 
L 562.358212 147.728786 
L 563.505338 147.728786 
L 563.505338 153.392626 
L 564.652464 153.392626 
L 564.652464 155.385459 
L 565.79959 155.385459 
L 565.79959 162.360373 
L 566.946717 162.360373 
L 566.946717 164.667863 
L 568.093843 164.667863 
L 568.093843 170.331703 
L 569.240969 170.331703 
L 569.240969 170.174374 
L 570.388095 170.174374 
L 570.388095 177.673718 
L 571.535221 177.673718 
L 571.535221 181.502054 
L 573.829474 181.554497 
L 573.829474 185.487719 
L 574.9766 185.487719 
L 574.9766 187.218337 
L 576.123726 187.218337 
L 576.123726 189.892928 
L 577.270852 189.892928 
L 577.270852 191.046674 
L 578.417978 191.046674 
L 578.417978 195.504325 
L 579.565104 195.504325 
L 579.565104 197.392272 
L 580.712231 197.392272 
L 580.712231 200.958394 
L 581.859357 200.958394 
L 581.859357 205.835589 
L 583.006483 205.835589 
L 583.006483 206.412462 
L 584.153609 206.412462 
L 584.153609 208.719952 
L 585.300735 208.719952 
L 585.300735 205.625817 
L 586.447861 205.625817 
L 586.447861 208.038194 
L 587.594988 208.038194 
L 587.594988 211.551872 
L 588.742114 211.551872 
L 588.742114 212.548288 
L 589.88924 212.548288 
L 589.88924 213.964248 
L 591.036366 213.964248 
L 591.036366 216.166853 
L 592.183492 216.166853 
L 592.183492 216.429068 
L 593.330618 216.429068 
L 593.330618 218.002357 
L 594.477745 218.002357 
L 594.477745 220.257404 
L 595.624871 220.257404 
L 595.624871 218.789001 
L 596.771997 218.789001 
L 596.771997 223.089324 
L 597.919123 223.089324 
L 597.919123 221.306263 
L 599.066249 221.306263 
L 599.066249 222.722223 
L 600.213375 222.722223 
L 600.213375 224.767499 
L 601.360502 224.767499 
L 601.360502 224.924828 
L 602.507628 224.924828 
L 602.507628 226.235902 
L 603.654754 226.235902 
L 603.654754 225.606586 
L 604.80188 225.606586 
L 604.80188 227.756748 
L 605.949006 227.756748 
L 605.949006 230.483782 
L 607.096132 230.483782 
L 607.096132 228.438506 
L 608.243259 228.438506 
L 608.243259 230.431339 
L 610.537511 230.536225 
L 610.537511 230.850883 
L 611.684637 230.850883 
L 611.684637 231.532641 
L 613.978889 231.480198 
L 613.978889 232.843715 
L 615.126016 232.843715 
L 615.126016 231.217983 
L 616.273142 231.217983 
L 616.273142 233.787688 
L 617.420268 233.787688 
L 617.420268 232.5815 
L 618.567394 232.5815 
L 618.567394 233.420588 
L 619.71452 233.420588 
L 619.71452 235.360977 
L 620.861646 235.360977 
L 620.861646 233.263259 
L 622.008773 233.263259 
L 622.008773 234.626776 
L 623.155899 234.626776 
L 623.155899 235.098763 
L 624.303025 235.098763 
L 624.303025 236.200065 
L 625.450151 236.200065 
L 625.450151 237.511139 
L 627.744403 237.616025 
L 627.744403 237.248924 
L 628.89153 237.248924 
L 628.89153 236.934266 
L 631.185782 236.986709 
L 631.185782 237.196481 
L 632.332908 237.196481 
L 632.332908 238.455112 
L 633.480034 238.455112 
L 633.480034 238.088011 
L 634.62716 238.088011 
L 634.62716 237.511139 
L 635.774287 237.511139 
L 635.774287 238.612441 
L 636.921413 238.612441 
L 636.921413 239.2942 
L 638.068539 239.2942 
L 638.068539 239.503971 
L 640.362791 239.556414 
L 640.362791 239.713743 
L 641.509917 239.713743 
L 641.509917 239.871072 
L 642.657044 239.871072 
L 642.657044 239.608857 
L 643.80417 239.608857 
L 643.80417 240.238173 
L 644.951296 240.238173 
L 644.951296 240.500388 
L 646.098422 240.500388 
L 646.098422 240.867489 
L 648.392674 240.815046 
L 648.392674 241.287032 
L 649.539801 241.287032 
L 649.539801 241.549247 
L 650.686927 241.549247 
L 650.686927 240.552831 
L 651.834053 240.552831 
L 651.834053 241.339475 
L 654.128305 241.444361 
L 654.128305 242.231006 
L 655.275431 242.231006 
L 655.275431 241.863905 
L 656.422558 241.863905 
L 656.422558 242.231006 
L 658.71681 242.12612 
L 658.71681 242.021234 
L 659.863936 242.021234 
L 659.863936 241.60169 
L 661.011062 241.60169 
L 661.011062 241.968791 
L 662.158188 241.968791 
L 662.158188 242.49322 
L 664.452441 242.388334 
L 664.452441 242.965207 
L 666.746693 242.860321 
L 666.746693 242.335891 
L 667.893819 242.335891 
L 667.893819 242.860321 
L 669.040945 242.860321 
L 669.040945 243.332308 
L 670.188072 243.332308 
L 670.188072 242.702992 
L 671.335198 242.702992 
L 671.335198 242.912764 
L 672.482324 242.912764 
L 672.482324 243.122536 
L 674.776576 243.122536 
L 674.776576 243.279865 
L 675.923702 243.279865 
L 675.923702 243.594523 
L 677.070829 243.594523 
L 677.070829 243.279865 
L 679.365081 243.332308 
L 679.365081 243.54208 
L 680.512207 243.54208 
L 680.512207 243.384751 
L 681.659333 243.384751 
L 681.659333 243.804294 
L 682.806459 243.804294 
L 682.806459 243.332308 
L 686.247838 243.332308 
L 686.247838 244.171395 
L 688.54209 244.276281 
L 688.54209 243.804294 
L 689.689216 243.804294 
L 689.689216 243.646966 
L 690.836343 243.646966 
L 690.836343 244.118952 
L 691.983469 244.118952 
L 691.983469 243.699409 
L 693.130595 243.699409 
L 693.130595 244.748268 
L 694.277721 244.748268 
L 694.277721 243.751851 
L 695.424847 243.751851 
L 695.424847 244.118952 
L 697.7191 244.118952 
L 697.7191 244.276281 
L 700.013352 244.276281 
L 700.013352 244.014066 
L 701.160478 244.014066 
L 701.160478 244.223838 
L 703.45473 244.276281 
L 703.45473 244.800711 
L 705.748983 244.853154 
L 705.748983 243.90918 
L 706.896109 243.90918 
L 706.896109 244.171395 
L 708.043235 244.171395 
L 708.043235 244.905597 
L 709.190361 244.905597 
L 709.190361 244.590939 
L 711.484614 244.538496 
L 711.484614 244.43361 
L 712.63174 244.43361 
L 712.63174 244.748268 
L 713.778866 244.748268 
L 713.778866 243.961623 
L 714.925992 243.961623 
L 714.925992 244.328724 
L 716.073118 244.328724 
L 716.073118 243.961623 
L 717.220244 243.961623 
L 717.220244 244.643382 
L 718.367371 244.643382 
L 718.367371 245.062926 
L 719.514497 245.062926 
L 719.514497 244.905597 
L 721.808749 244.853154 
L 721.808749 244.590939 
L 724.103001 244.643382 
L 724.103001 244.748268 
L 725.250128 244.748268 
L 725.250128 245.062926 
L 728.691506 245.062926 
L 728.691506 245.220254 
L 729.838632 245.220254 
L 729.838632 244.853154 
L 730.985758 244.853154 
L 730.985758 245.115369 
L 733.280011 245.220254 
L 733.280011 244.486053 
L 734.427137 244.486053 
L 734.427137 245.32514 
L 735.574263 245.32514 
L 735.574263 245.115369 
L 736.721389 245.115369 
L 736.721389 245.377583 
L 737.868515 245.377583 
L 737.868515 245.115369 
L 739.015642 245.115369 
L 739.015642 245.377583 
L 740.162768 245.377583 
L 740.162768 245.167811 
L 745.898399 245.272697 
L 745.898399 245.32514 
L 747.045525 245.32514 
L 747.045525 244.95804 
L 748.192651 244.95804 
L 748.192651 245.32514 
L 751.634029 245.430026 
L 751.634029 245.482469 
L 753.928282 245.534912 
L 753.928282 245.272697 
L 755.075408 245.272697 
L 755.075408 245.482469 
L 756.222534 245.482469 
L 756.222534 245.115369 
L 757.36966 245.115369 
L 757.36966 245.377583 
L 760.811039 245.430026 
L 760.811039 245.639798 
L 761.958165 245.639798 
L 761.958165 245.32514 
L 766.54667 245.377583 
L 766.54667 245.534912 
L 767.693796 245.534912 
L 767.693796 245.377583 
L 768.840922 245.377583 
L 768.840922 245.167811 
L 769.988048 245.167811 
L 769.988048 245.377583 
L 778.017931 245.377583 
L 778.017931 245.534912 
L 783.753562 245.534912 
L 783.753562 245.32514 
L 784.900688 245.32514 
L 784.900688 245.744684 
L 786.047814 245.744684 
L 786.047814 245.587355 
L 789.489193 245.534912 
L 789.489193 245.377583 
L 790.636319 245.377583 
L 790.636319 245.587355 
L 792.930572 245.692241 
L 792.930572 245.430026 
L 796.37195 245.377583 
L 796.37195 245.797127 
L 797.519076 245.797127 
L 797.519076 245.639798 
L 798.666202 245.639798 
L 798.666202 245.482469 
L 799.813328 245.482469 
L 799.813328 245.744684 
L 804.401833 245.639798 
L 804.401833 245.482469 
L 805.548959 245.482469 
L 805.548959 245.692241 
L 806.696085 245.692241 
L 806.696085 245.482469 
L 807.843212 245.482469 
L 807.843212 245.639798 
L 808.990338 245.639798 
L 808.990338 245.377583 
L 810.137464 245.377583 
L 810.137464 245.534912 
L 811.28459 245.534912 
L 811.28459 245.692241 
L 822.755852 245.744684 
L 822.755852 245.534912 
L 826.19723 245.639798 
L 826.19723 245.797127 
L 827.344357 245.797127 
L 827.344357 245.534912 
L 828.491483 245.534912 
L 828.491483 245.744684 
L 831.932861 245.797127 
L 831.932861 245.430026 
L 833.079987 245.430026 
L 833.079987 245.692241 
L 838.815618 245.639798 
L 838.815618 245.534912 
L 839.962744 245.534912 
L 839.962744 245.692241 
L 845.698375 245.744684 
L 845.698375 245.430026 
L 846.845501 245.430026 
L 846.845501 245.639798 
L 847.992628 245.639798 
L 847.992628 245.639798 
" clip-path="url(#p4e7ecf9a2f)" style="fill: none; stroke: #1f77b4; stroke-width: 1.5; stroke-linecap: square"/>
   </g>
  </g>
 </g>
 <defs>
  <clipPath id="p28e93d42b9">
   <rect x="53.328125" y="7.2" width="378.551635" height="249.958895"/>
  </clipPath>
  <clipPath id="p4e7ecf9a2f">
   <rect x="486.647885" y="7.2" width="378.551635" height="249.958895"/>
  </clipPath>
 </defs>
</svg>
