<?xml version="1.0" encoding="utf-8" standalone="no"?>
<!DOCTYPE svg PUBLIC "-//W3C//DTD SVG 1.1//EN"
  "http://www.w3.org/Graphics/SVG/1.1/DTD/svg11.dtd">
<svg xmlns:xlink="http://www.w3.org/1999/xlink" width="395.328125pt" height="266.51625pt" viewBox="0 0 395.328125 266.51625" xmlns="http://www.w3.org/2000/svg" version="1.1">
 <metadata>
  <rdf:RDF xmlns:dc="http://purl.org/dc/elements/1.1/" xmlns:cc="http://creativecommons.org/ns#" xmlns:rdf="http://www.w3.org/1999/02/22-rdf-syntax-ns#">
   <cc:Work>
    <dc:type rdf:resource="http://purl.org/dc/dcmitype/StillImage"/>
    <dc:date>2025-05-26T10:50:03.989962</dc:date>
    <dc:format>image/svg+xml</dc:format>
    <dc:creator>
     <cc:Agent>
      <dc:title>Matplotlib v3.10.3, https://matplotlib.org/</dc:title>
     </cc:Agent>
    </dc:creator>
   </cc:Work>
  </rdf:RDF>
 </metadata>
 <defs>
  <style type="text/css">*{stroke-linejoin: round; stroke-linecap: butt}</style>
 </defs>
 <g id="figure_1">
  <g id="patch_1">
   <path d="M 0 266.51625 
L 395.328125 266.51625 
L 395.328125 0 
L 0 0 
z
" style="fill: #ffffff"/>
  </g>
  <g id="axes_1">
   <g id="patch_2">
    <path d="M 53.328125 228.96 
L 388.128125 228.96 
L 388.128125 7.2 
L 53.328125 7.2 
z
" style="fill: #ffffff"/>
   </g>
   <g id="matplotlib.axis_1">
    <g id="xtick_1">
     <g id="line2d_1">
      <defs>
       <path id="m43fda0d147" d="M 0 0 
L 0 3.5 
" style="stroke: #000000; stroke-width: 0.8"/>
      </defs>
      <g>
       <use xlink:href="#m43fda0d147" x="57.233461" y="228.96" style="stroke: #000000; stroke-width: 0.8"/>
      </g>
     </g>
     <g id="text_1">
      <!-- 25000 -->
      <g transform="translate(41.327211 243.558437) scale(0.1 -0.1)">
       <defs>
        <path id="DejaVuSans-32" d="M 1228 531 
L 3431 531 
L 3431 0 
L 469 0 
L 469 531 
Q 828 903 1448 1529 
Q 2069 2156 2228 2338 
Q 2531 2678 2651 2914 
Q 2772 3150 2772 3378 
Q 2772 3750 2511 3984 
Q 2250 4219 1831 4219 
Q 1534 4219 1204 4116 
Q 875 4013 500 3803 
L 500 4441 
Q 881 4594 1212 4672 
Q 1544 4750 1819 4750 
Q 2544 4750 2975 4387 
Q 3406 4025 3406 3419 
Q 3406 3131 3298 2873 
Q 3191 2616 2906 2266 
Q 2828 2175 2409 1742 
Q 1991 1309 1228 531 
z
" transform="scale(0.015625)"/>
        <path id="DejaVuSans-35" d="M 691 4666 
L 3169 4666 
L 3169 4134 
L 1269 4134 
L 1269 2991 
Q 1406 3038 1543 3061 
Q 1681 3084 1819 3084 
Q 2600 3084 3056 2656 
Q 3513 2228 3513 1497 
Q 3513 744 3044 326 
Q 2575 -91 1722 -91 
Q 1428 -91 1123 -41 
Q 819 9 494 109 
L 494 744 
Q 775 591 1075 516 
Q 1375 441 1709 441 
Q 2250 441 2565 725 
Q 2881 1009 2881 1497 
Q 2881 1984 2565 2268 
Q 2250 2553 1709 2553 
Q 1456 2553 1204 2497 
Q 953 2441 691 2322 
L 691 4666 
z
" transform="scale(0.015625)"/>
        <path id="DejaVuSans-30" d="M 2034 4250 
Q 1547 4250 1301 3770 
Q 1056 3291 1056 2328 
Q 1056 1369 1301 889 
Q 1547 409 2034 409 
Q 2525 409 2770 889 
Q 3016 1369 3016 2328 
Q 3016 3291 2770 3770 
Q 2525 4250 2034 4250 
z
M 2034 4750 
Q 2819 4750 3233 4129 
Q 3647 3509 3647 2328 
Q 3647 1150 3233 529 
Q 2819 -91 2034 -91 
Q 1250 -91 836 529 
Q 422 1150 422 2328 
Q 422 3509 836 4129 
Q 1250 4750 2034 4750 
z
" transform="scale(0.015625)"/>
       </defs>
       <use xlink:href="#DejaVuSans-32"/>
       <use xlink:href="#DejaVuSans-35" transform="translate(63.623047 0)"/>
       <use xlink:href="#DejaVuSans-30" transform="translate(127.246094 0)"/>
       <use xlink:href="#DejaVuSans-30" transform="translate(190.869141 0)"/>
       <use xlink:href="#DejaVuSans-30" transform="translate(254.492188 0)"/>
      </g>
     </g>
    </g>
    <g id="xtick_2">
     <g id="line2d_2">
      <g>
       <use xlink:href="#m43fda0d147" x="95.278915" y="228.96" style="stroke: #000000; stroke-width: 0.8"/>
      </g>
     </g>
     <g id="text_2">
      <!-- 50000 -->
      <g transform="translate(79.372665 243.558437) scale(0.1 -0.1)">
       <use xlink:href="#DejaVuSans-35"/>
       <use xlink:href="#DejaVuSans-30" transform="translate(63.623047 0)"/>
       <use xlink:href="#DejaVuSans-30" transform="translate(127.246094 0)"/>
       <use xlink:href="#DejaVuSans-30" transform="translate(190.869141 0)"/>
       <use xlink:href="#DejaVuSans-30" transform="translate(254.492188 0)"/>
      </g>
     </g>
    </g>
    <g id="xtick_3">
     <g id="line2d_3">
      <g>
       <use xlink:href="#m43fda0d147" x="133.32437" y="228.96" style="stroke: #000000; stroke-width: 0.8"/>
      </g>
     </g>
     <g id="text_3">
      <!-- 75000 -->
      <g transform="translate(117.41812 243.558437) scale(0.1 -0.1)">
       <defs>
        <path id="DejaVuSans-37" d="M 525 4666 
L 3525 4666 
L 3525 4397 
L 1831 0 
L 1172 0 
L 2766 4134 
L 525 4134 
L 525 4666 
z
" transform="scale(0.015625)"/>
       </defs>
       <use xlink:href="#DejaVuSans-37"/>
       <use xlink:href="#DejaVuSans-35" transform="translate(63.623047 0)"/>
       <use xlink:href="#DejaVuSans-30" transform="translate(127.246094 0)"/>
       <use xlink:href="#DejaVuSans-30" transform="translate(190.869141 0)"/>
       <use xlink:href="#DejaVuSans-30" transform="translate(254.492188 0)"/>
      </g>
     </g>
    </g>
    <g id="xtick_4">
     <g id="line2d_4">
      <g>
       <use xlink:href="#m43fda0d147" x="171.369824" y="228.96" style="stroke: #000000; stroke-width: 0.8"/>
      </g>
     </g>
     <g id="text_4">
      <!-- 100000 -->
      <g transform="translate(152.282324 243.558437) scale(0.1 -0.1)">
       <defs>
        <path id="DejaVuSans-31" d="M 794 531 
L 1825 531 
L 1825 4091 
L 703 3866 
L 703 4441 
L 1819 4666 
L 2450 4666 
L 2450 531 
L 3481 531 
L 3481 0 
L 794 0 
L 794 531 
z
" transform="scale(0.015625)"/>
       </defs>
       <use xlink:href="#DejaVuSans-31"/>
       <use xlink:href="#DejaVuSans-30" transform="translate(63.623047 0)"/>
       <use xlink:href="#DejaVuSans-30" transform="translate(127.246094 0)"/>
       <use xlink:href="#DejaVuSans-30" transform="translate(190.869141 0)"/>
       <use xlink:href="#DejaVuSans-30" transform="translate(254.492188 0)"/>
       <use xlink:href="#DejaVuSans-30" transform="translate(318.115234 0)"/>
      </g>
     </g>
    </g>
    <g id="xtick_5">
     <g id="line2d_5">
      <g>
       <use xlink:href="#m43fda0d147" x="209.415279" y="228.96" style="stroke: #000000; stroke-width: 0.8"/>
      </g>
     </g>
     <g id="text_5">
      <!-- 125000 -->
      <g transform="translate(190.327779 243.558437) scale(0.1 -0.1)">
       <use xlink:href="#DejaVuSans-31"/>
       <use xlink:href="#DejaVuSans-32" transform="translate(63.623047 0)"/>
       <use xlink:href="#DejaVuSans-35" transform="translate(127.246094 0)"/>
       <use xlink:href="#DejaVuSans-30" transform="translate(190.869141 0)"/>
       <use xlink:href="#DejaVuSans-30" transform="translate(254.492188 0)"/>
       <use xlink:href="#DejaVuSans-30" transform="translate(318.115234 0)"/>
      </g>
     </g>
    </g>
    <g id="xtick_6">
     <g id="line2d_6">
      <g>
       <use xlink:href="#m43fda0d147" x="247.460734" y="228.96" style="stroke: #000000; stroke-width: 0.8"/>
      </g>
     </g>
     <g id="text_6">
      <!-- 150000 -->
      <g transform="translate(228.373234 243.558437) scale(0.1 -0.1)">
       <use xlink:href="#DejaVuSans-31"/>
       <use xlink:href="#DejaVuSans-35" transform="translate(63.623047 0)"/>
       <use xlink:href="#DejaVuSans-30" transform="translate(127.246094 0)"/>
       <use xlink:href="#DejaVuSans-30" transform="translate(190.869141 0)"/>
       <use xlink:href="#DejaVuSans-30" transform="translate(254.492188 0)"/>
       <use xlink:href="#DejaVuSans-30" transform="translate(318.115234 0)"/>
      </g>
     </g>
    </g>
    <g id="xtick_7">
     <g id="line2d_7">
      <g>
       <use xlink:href="#m43fda0d147" x="285.506188" y="228.96" style="stroke: #000000; stroke-width: 0.8"/>
      </g>
     </g>
     <g id="text_7">
      <!-- 175000 -->
      <g transform="translate(266.418688 243.558437) scale(0.1 -0.1)">
       <use xlink:href="#DejaVuSans-31"/>
       <use xlink:href="#DejaVuSans-37" transform="translate(63.623047 0)"/>
       <use xlink:href="#DejaVuSans-35" transform="translate(127.246094 0)"/>
       <use xlink:href="#DejaVuSans-30" transform="translate(190.869141 0)"/>
       <use xlink:href="#DejaVuSans-30" transform="translate(254.492188 0)"/>
       <use xlink:href="#DejaVuSans-30" transform="translate(318.115234 0)"/>
      </g>
     </g>
    </g>
    <g id="xtick_8">
     <g id="line2d_8">
      <g>
       <use xlink:href="#m43fda0d147" x="323.551643" y="228.96" style="stroke: #000000; stroke-width: 0.8"/>
      </g>
     </g>
     <g id="text_8">
      <!-- 200000 -->
      <g transform="translate(304.464143 243.558437) scale(0.1 -0.1)">
       <use xlink:href="#DejaVuSans-32"/>
       <use xlink:href="#DejaVuSans-30" transform="translate(63.623047 0)"/>
       <use xlink:href="#DejaVuSans-30" transform="translate(127.246094 0)"/>
       <use xlink:href="#DejaVuSans-30" transform="translate(190.869141 0)"/>
       <use xlink:href="#DejaVuSans-30" transform="translate(254.492188 0)"/>
       <use xlink:href="#DejaVuSans-30" transform="translate(318.115234 0)"/>
      </g>
     </g>
    </g>
    <g id="xtick_9">
     <g id="line2d_9">
      <g>
       <use xlink:href="#m43fda0d147" x="361.597097" y="228.96" style="stroke: #000000; stroke-width: 0.8"/>
      </g>
     </g>
     <g id="text_9">
      <!-- 225000 -->
      <g transform="translate(342.509597 243.558437) scale(0.1 -0.1)">
       <use xlink:href="#DejaVuSans-32"/>
       <use xlink:href="#DejaVuSans-32" transform="translate(63.623047 0)"/>
       <use xlink:href="#DejaVuSans-35" transform="translate(127.246094 0)"/>
       <use xlink:href="#DejaVuSans-30" transform="translate(190.869141 0)"/>
       <use xlink:href="#DejaVuSans-30" transform="translate(254.492188 0)"/>
       <use xlink:href="#DejaVuSans-30" transform="translate(318.115234 0)"/>
      </g>
     </g>
    </g>
    <g id="text_10">
     <!-- tof [µs] -->
     <g transform="translate(202.671875 257.236562) scale(0.1 -0.1)">
      <defs>
       <path id="DejaVuSans-74" d="M 1172 4494 
L 1172 3500 
L 2356 3500 
L 2356 3053 
L 1172 3053 
L 1172 1153 
Q 1172 725 1289 603 
Q 1406 481 1766 481 
L 2356 481 
L 2356 0 
L 1766 0 
Q 1100 0 847 248 
Q 594 497 594 1153 
L 594 3053 
L 172 3053 
L 172 3500 
L 594 3500 
L 594 4494 
L 1172 4494 
z
" transform="scale(0.015625)"/>
       <path id="DejaVuSans-6f" d="M 1959 3097 
Q 1497 3097 1228 2736 
Q 959 2375 959 1747 
Q 959 1119 1226 758 
Q 1494 397 1959 397 
Q 2419 397 2687 759 
Q 2956 1122 2956 1747 
Q 2956 2369 2687 2733 
Q 2419 3097 1959 3097 
z
M 1959 3584 
Q 2709 3584 3137 3096 
Q 3566 2609 3566 1747 
Q 3566 888 3137 398 
Q 2709 -91 1959 -91 
Q 1206 -91 779 398 
Q 353 888 353 1747 
Q 353 2609 779 3096 
Q 1206 3584 1959 3584 
z
" transform="scale(0.015625)"/>
       <path id="DejaVuSans-66" d="M 2375 4863 
L 2375 4384 
L 1825 4384 
Q 1516 4384 1395 4259 
Q 1275 4134 1275 3809 
L 1275 3500 
L 2222 3500 
L 2222 3053 
L 1275 3053 
L 1275 0 
L 697 0 
L 697 3053 
L 147 3053 
L 147 3500 
L 697 3500 
L 697 3744 
Q 697 4328 969 4595 
Q 1241 4863 1831 4863 
L 2375 4863 
z
" transform="scale(0.015625)"/>
       <path id="DejaVuSans-20" transform="scale(0.015625)"/>
       <path id="DejaVuSans-5b" d="M 550 4863 
L 1875 4863 
L 1875 4416 
L 1125 4416 
L 1125 -397 
L 1875 -397 
L 1875 -844 
L 550 -844 
L 550 4863 
z
" transform="scale(0.015625)"/>
       <path id="DejaVuSans-b5" d="M 544 -1331 
L 544 3500 
L 1119 3500 
L 1119 1325 
Q 1119 872 1334 640 
Q 1550 409 1972 409 
Q 2434 409 2667 671 
Q 2900 934 2900 1459 
L 2900 3500 
L 3475 3500 
L 3475 806 
Q 3475 619 3529 530 
Q 3584 441 3700 441 
Q 3728 441 3778 458 
Q 3828 475 3916 513 
L 3916 50 
Q 3788 -22 3673 -56 
Q 3559 -91 3450 -91 
Q 3234 -91 3106 31 
Q 2978 153 2931 403 
Q 2775 156 2548 32 
Q 2322 -91 2016 -91 
Q 1697 -91 1473 31 
Q 1250 153 1119 397 
L 1119 -1331 
L 544 -1331 
z
" transform="scale(0.015625)"/>
       <path id="DejaVuSans-73" d="M 2834 3397 
L 2834 2853 
Q 2591 2978 2328 3040 
Q 2066 3103 1784 3103 
Q 1356 3103 1142 2972 
Q 928 2841 928 2578 
Q 928 2378 1081 2264 
Q 1234 2150 1697 2047 
L 1894 2003 
Q 2506 1872 2764 1633 
Q 3022 1394 3022 966 
Q 3022 478 2636 193 
Q 2250 -91 1575 -91 
Q 1294 -91 989 -36 
Q 684 19 347 128 
L 347 722 
Q 666 556 975 473 
Q 1284 391 1588 391 
Q 1994 391 2212 530 
Q 2431 669 2431 922 
Q 2431 1156 2273 1281 
Q 2116 1406 1581 1522 
L 1381 1569 
Q 847 1681 609 1914 
Q 372 2147 372 2553 
Q 372 3047 722 3315 
Q 1072 3584 1716 3584 
Q 2034 3584 2315 3537 
Q 2597 3491 2834 3397 
z
" transform="scale(0.015625)"/>
       <path id="DejaVuSans-5d" d="M 1947 4863 
L 1947 -844 
L 622 -844 
L 622 -397 
L 1369 -397 
L 1369 4416 
L 622 4416 
L 622 4863 
L 1947 4863 
z
" transform="scale(0.015625)"/>
      </defs>
      <use xlink:href="#DejaVuSans-74"/>
      <use xlink:href="#DejaVuSans-6f" transform="translate(39.208984 0)"/>
      <use xlink:href="#DejaVuSans-66" transform="translate(100.390625 0)"/>
      <use xlink:href="#DejaVuSans-20" transform="translate(135.595703 0)"/>
      <use xlink:href="#DejaVuSans-5b" transform="translate(167.382812 0)"/>
      <use xlink:href="#DejaVuSans-b5" transform="translate(206.396484 0)"/>
      <use xlink:href="#DejaVuSans-73" transform="translate(270.019531 0)"/>
      <use xlink:href="#DejaVuSans-5d" transform="translate(322.119141 0)"/>
     </g>
    </g>
   </g>
   <g id="matplotlib.axis_2">
    <g id="ytick_1">
     <g id="line2d_10">
      <defs>
       <path id="mdf1305f6cb" d="M 0 0 
L -3.5 0 
" style="stroke: #000000; stroke-width: 0.8"/>
      </defs>
      <g>
       <use xlink:href="#mdf1305f6cb" x="53.328125" y="218.88" style="stroke: #000000; stroke-width: 0.8"/>
      </g>
     </g>
     <g id="text_11">
      <!-- 0 -->
      <g transform="translate(39.965625 222.679219) scale(0.1 -0.1)">
       <use xlink:href="#DejaVuSans-30"/>
      </g>
     </g>
    </g>
    <g id="ytick_2">
     <g id="line2d_11">
      <g>
       <use xlink:href="#mdf1305f6cb" x="53.328125" y="190.664465" style="stroke: #000000; stroke-width: 0.8"/>
      </g>
     </g>
     <g id="text_12">
      <!-- 200 -->
      <g transform="translate(27.240625 194.463683) scale(0.1 -0.1)">
       <use xlink:href="#DejaVuSans-32"/>
       <use xlink:href="#DejaVuSans-30" transform="translate(63.623047 0)"/>
       <use xlink:href="#DejaVuSans-30" transform="translate(127.246094 0)"/>
      </g>
     </g>
    </g>
    <g id="ytick_3">
     <g id="line2d_12">
      <g>
       <use xlink:href="#mdf1305f6cb" x="53.328125" y="162.448929" style="stroke: #000000; stroke-width: 0.8"/>
      </g>
     </g>
     <g id="text_13">
      <!-- 400 -->
      <g transform="translate(27.240625 166.248148) scale(0.1 -0.1)">
       <defs>
        <path id="DejaVuSans-34" d="M 2419 4116 
L 825 1625 
L 2419 1625 
L 2419 4116 
z
M 2253 4666 
L 3047 4666 
L 3047 1625 
L 3713 1625 
L 3713 1100 
L 3047 1100 
L 3047 0 
L 2419 0 
L 2419 1100 
L 313 1100 
L 313 1709 
L 2253 4666 
z
" transform="scale(0.015625)"/>
       </defs>
       <use xlink:href="#DejaVuSans-34"/>
       <use xlink:href="#DejaVuSans-30" transform="translate(63.623047 0)"/>
       <use xlink:href="#DejaVuSans-30" transform="translate(127.246094 0)"/>
      </g>
     </g>
    </g>
    <g id="ytick_4">
     <g id="line2d_13">
      <g>
       <use xlink:href="#mdf1305f6cb" x="53.328125" y="134.233394" style="stroke: #000000; stroke-width: 0.8"/>
      </g>
     </g>
     <g id="text_14">
      <!-- 600 -->
      <g transform="translate(27.240625 138.032613) scale(0.1 -0.1)">
       <defs>
        <path id="DejaVuSans-36" d="M 2113 2584 
Q 1688 2584 1439 2293 
Q 1191 2003 1191 1497 
Q 1191 994 1439 701 
Q 1688 409 2113 409 
Q 2538 409 2786 701 
Q 3034 994 3034 1497 
Q 3034 2003 2786 2293 
Q 2538 2584 2113 2584 
z
M 3366 4563 
L 3366 3988 
Q 3128 4100 2886 4159 
Q 2644 4219 2406 4219 
Q 1781 4219 1451 3797 
Q 1122 3375 1075 2522 
Q 1259 2794 1537 2939 
Q 1816 3084 2150 3084 
Q 2853 3084 3261 2657 
Q 3669 2231 3669 1497 
Q 3669 778 3244 343 
Q 2819 -91 2113 -91 
Q 1303 -91 875 529 
Q 447 1150 447 2328 
Q 447 3434 972 4092 
Q 1497 4750 2381 4750 
Q 2619 4750 2861 4703 
Q 3103 4656 3366 4563 
z
" transform="scale(0.015625)"/>
       </defs>
       <use xlink:href="#DejaVuSans-36"/>
       <use xlink:href="#DejaVuSans-30" transform="translate(63.623047 0)"/>
       <use xlink:href="#DejaVuSans-30" transform="translate(127.246094 0)"/>
      </g>
     </g>
    </g>
    <g id="ytick_5">
     <g id="line2d_14">
      <g>
       <use xlink:href="#mdf1305f6cb" x="53.328125" y="106.017859" style="stroke: #000000; stroke-width: 0.8"/>
      </g>
     </g>
     <g id="text_15">
      <!-- 800 -->
      <g transform="translate(27.240625 109.817077) scale(0.1 -0.1)">
       <defs>
        <path id="DejaVuSans-38" d="M 2034 2216 
Q 1584 2216 1326 1975 
Q 1069 1734 1069 1313 
Q 1069 891 1326 650 
Q 1584 409 2034 409 
Q 2484 409 2743 651 
Q 3003 894 3003 1313 
Q 3003 1734 2745 1975 
Q 2488 2216 2034 2216 
z
M 1403 2484 
Q 997 2584 770 2862 
Q 544 3141 544 3541 
Q 544 4100 942 4425 
Q 1341 4750 2034 4750 
Q 2731 4750 3128 4425 
Q 3525 4100 3525 3541 
Q 3525 3141 3298 2862 
Q 3072 2584 2669 2484 
Q 3125 2378 3379 2068 
Q 3634 1759 3634 1313 
Q 3634 634 3220 271 
Q 2806 -91 2034 -91 
Q 1263 -91 848 271 
Q 434 634 434 1313 
Q 434 1759 690 2068 
Q 947 2378 1403 2484 
z
M 1172 3481 
Q 1172 3119 1398 2916 
Q 1625 2713 2034 2713 
Q 2441 2713 2670 2916 
Q 2900 3119 2900 3481 
Q 2900 3844 2670 4047 
Q 2441 4250 2034 4250 
Q 1625 4250 1398 4047 
Q 1172 3844 1172 3481 
z
" transform="scale(0.015625)"/>
       </defs>
       <use xlink:href="#DejaVuSans-38"/>
       <use xlink:href="#DejaVuSans-30" transform="translate(63.623047 0)"/>
       <use xlink:href="#DejaVuSans-30" transform="translate(127.246094 0)"/>
      </g>
     </g>
    </g>
    <g id="ytick_6">
     <g id="line2d_15">
      <g>
       <use xlink:href="#mdf1305f6cb" x="53.328125" y="77.802323" style="stroke: #000000; stroke-width: 0.8"/>
      </g>
     </g>
     <g id="text_16">
      <!-- 1000 -->
      <g transform="translate(20.878125 81.601542) scale(0.1 -0.1)">
       <use xlink:href="#DejaVuSans-31"/>
       <use xlink:href="#DejaVuSans-30" transform="translate(63.623047 0)"/>
       <use xlink:href="#DejaVuSans-30" transform="translate(127.246094 0)"/>
       <use xlink:href="#DejaVuSans-30" transform="translate(190.869141 0)"/>
      </g>
     </g>
    </g>
    <g id="ytick_7">
     <g id="line2d_16">
      <g>
       <use xlink:href="#mdf1305f6cb" x="53.328125" y="49.586788" style="stroke: #000000; stroke-width: 0.8"/>
      </g>
     </g>
     <g id="text_17">
      <!-- 1200 -->
      <g transform="translate(20.878125 53.386007) scale(0.1 -0.1)">
       <use xlink:href="#DejaVuSans-31"/>
       <use xlink:href="#DejaVuSans-32" transform="translate(63.623047 0)"/>
       <use xlink:href="#DejaVuSans-30" transform="translate(127.246094 0)"/>
       <use xlink:href="#DejaVuSans-30" transform="translate(190.869141 0)"/>
      </g>
     </g>
    </g>
    <g id="ytick_8">
     <g id="line2d_17">
      <g>
       <use xlink:href="#mdf1305f6cb" x="53.328125" y="21.371253" style="stroke: #000000; stroke-width: 0.8"/>
      </g>
     </g>
     <g id="text_18">
      <!-- 1400 -->
      <g transform="translate(20.878125 25.170471) scale(0.1 -0.1)">
       <use xlink:href="#DejaVuSans-31"/>
       <use xlink:href="#DejaVuSans-34" transform="translate(63.623047 0)"/>
       <use xlink:href="#DejaVuSans-30" transform="translate(127.246094 0)"/>
       <use xlink:href="#DejaVuSans-30" transform="translate(190.869141 0)"/>
      </g>
     </g>
    </g>
    <g id="text_19">
     <!-- [counts] -->
     <g transform="translate(14.798438 138.6925) rotate(-90) scale(0.1 -0.1)">
      <defs>
       <path id="DejaVuSans-63" d="M 3122 3366 
L 3122 2828 
Q 2878 2963 2633 3030 
Q 2388 3097 2138 3097 
Q 1578 3097 1268 2742 
Q 959 2388 959 1747 
Q 959 1106 1268 751 
Q 1578 397 2138 397 
Q 2388 397 2633 464 
Q 2878 531 3122 666 
L 3122 134 
Q 2881 22 2623 -34 
Q 2366 -91 2075 -91 
Q 1284 -91 818 406 
Q 353 903 353 1747 
Q 353 2603 823 3093 
Q 1294 3584 2113 3584 
Q 2378 3584 2631 3529 
Q 2884 3475 3122 3366 
z
" transform="scale(0.015625)"/>
       <path id="DejaVuSans-75" d="M 544 1381 
L 544 3500 
L 1119 3500 
L 1119 1403 
Q 1119 906 1312 657 
Q 1506 409 1894 409 
Q 2359 409 2629 706 
Q 2900 1003 2900 1516 
L 2900 3500 
L 3475 3500 
L 3475 0 
L 2900 0 
L 2900 538 
Q 2691 219 2414 64 
Q 2138 -91 1772 -91 
Q 1169 -91 856 284 
Q 544 659 544 1381 
z
M 1991 3584 
L 1991 3584 
z
" transform="scale(0.015625)"/>
       <path id="DejaVuSans-6e" d="M 3513 2113 
L 3513 0 
L 2938 0 
L 2938 2094 
Q 2938 2591 2744 2837 
Q 2550 3084 2163 3084 
Q 1697 3084 1428 2787 
Q 1159 2491 1159 1978 
L 1159 0 
L 581 0 
L 581 3500 
L 1159 3500 
L 1159 2956 
Q 1366 3272 1645 3428 
Q 1925 3584 2291 3584 
Q 2894 3584 3203 3211 
Q 3513 2838 3513 2113 
z
" transform="scale(0.015625)"/>
      </defs>
      <use xlink:href="#DejaVuSans-5b"/>
      <use xlink:href="#DejaVuSans-63" transform="translate(39.013672 0)"/>
      <use xlink:href="#DejaVuSans-6f" transform="translate(93.994141 0)"/>
      <use xlink:href="#DejaVuSans-75" transform="translate(155.175781 0)"/>
      <use xlink:href="#DejaVuSans-6e" transform="translate(218.554688 0)"/>
      <use xlink:href="#DejaVuSans-74" transform="translate(281.933594 0)"/>
      <use xlink:href="#DejaVuSans-73" transform="translate(321.142578 0)"/>
      <use xlink:href="#DejaVuSans-5d" transform="translate(373.242188 0)"/>
     </g>
    </g>
   </g>
   <g id="line2d_18">
    <path d="M 68.546307 210.97965 
L 69.307216 210.97965 
L 69.307216 209.992106 
L 70.068125 209.992106 
L 70.068125 193.909251 
L 70.829034 193.909251 
L 70.829034 185.303513 
L 71.589943 185.303513 
L 71.589943 152.996725 
L 72.350852 152.996725 
L 72.350852 89.935003 
L 73.111761 89.935003 
L 73.111761 51.702953 
L 73.87267 51.702953 
L 73.87267 17.28 
L 74.63358 17.28 
L 74.63358 23.628495 
L 75.394489 23.628495 
L 75.394489 46.059846 
L 76.155398 46.059846 
L 76.155398 46.342001 
L 76.916307 46.342001 
L 76.916307 60.873002 
L 77.677216 60.873002 
L 77.677216 65.387488 
L 78.438125 65.387488 
L 78.438125 72.018139 
L 79.199034 72.018139 
L 79.199034 76.250469 
L 79.959943 76.250469 
L 79.959943 92.897635 
L 80.720852 92.897635 
L 80.720852 103.196305 
L 81.481761 103.196305 
L 81.481761 111.519888 
L 82.24267 111.519888 
L 82.24267 135.785248 
L 83.00358 135.785248 
L 83.00358 166.116949 
L 83.764489 166.116949 
L 83.764489 190.382309 
L 84.525398 190.382309 
L 84.525398 218.315689 
L 85.286307 218.315689 
L 85.286307 218.88 
L 372.909943 218.88 
L 372.909943 218.88 
" clip-path="url(#p6d2764844a)" style="fill: none; stroke: #1f77b4; stroke-width: 1.5; stroke-linecap: square"/>
   </g>
   <g id="line2d_19">
    <path d="M 68.546307 218.88 
L 165.94267 218.88 
L 165.94267 217.610301 
L 166.70358 217.610301 
L 166.70358 218.88 
L 168.986307 218.88 
L 168.986307 214.224437 
L 169.747216 214.224437 
L 169.747216 218.033534 
L 170.508125 218.033534 
L 170.508125 214.506592 
L 171.269034 214.506592 
L 171.269034 210.97965 
L 172.029943 210.97965 
L 172.029943 213.377971 
L 172.790852 213.377971 
L 172.790852 211.402883 
L 173.551761 211.402883 
L 173.551761 210.556417 
L 174.31267 210.556417 
L 174.31267 206.183009 
L 175.07358 206.183009 
L 175.07358 207.875941 
L 175.834489 207.875941 
L 175.834489 199.834514 
L 176.595398 199.834514 
L 176.595398 203.361456 
L 177.356307 203.361456 
L 177.356307 191.652008 
L 178.117216 191.652008 
L 178.117216 186.996445 
L 178.878125 186.996445 
L 178.878125 181.353338 
L 179.639034 181.353338 
L 179.639034 182.058726 
L 180.399943 182.058726 
L 180.399943 170.349279 
L 181.160852 170.349279 
L 181.160852 162.166774 
L 181.921761 162.166774 
L 181.921761 163.01324 
L 182.68267 163.01324 
L 182.68267 157.511211 
L 183.44358 157.511211 
L 183.44358 152.291337 
L 184.204489 152.291337 
L 184.204489 153.984269 
L 184.965398 153.984269 
L 184.965398 148.905472 
L 185.726307 148.905472 
L 185.726307 155.818279 
L 186.487216 155.818279 
L 186.487216 150.175171 
L 187.248125 150.175171 
L 187.248125 160.473842 
L 188.009034 160.473842 
L 188.009034 160.897075 
L 188.769943 160.897075 
L 188.769943 163.577551 
L 189.530852 163.577551 
L 189.530852 159.486298 
L 190.291761 159.486298 
L 190.291761 166.399104 
L 191.05267 166.399104 
L 191.05267 165.270483 
L 191.81358 165.270483 
L 191.81358 153.419958 
L 192.574489 153.419958 
L 192.574489 165.975871 
L 193.335398 165.975871 
L 193.335398 171.477901 
L 194.096307 171.477901 
L 194.096307 165.975871 
L 194.857216 165.975871 
L 194.857216 168.092036 
L 195.618125 168.092036 
L 195.618125 167.24557 
L 196.379034 167.24557 
L 196.379034 166.540182 
L 197.139943 166.540182 
L 197.139943 167.24557 
L 197.900852 167.24557 
L 197.900852 165.693716 
L 198.661761 165.693716 
L 198.661761 175.14592 
L 199.42267 175.14592 
L 199.42267 174.299454 
L 200.18358 174.299454 
L 200.18358 173.594066 
L 200.944489 173.594066 
L 200.944489 176.133464 
L 201.705398 176.133464 
L 201.705398 179.801484 
L 202.466307 179.801484 
L 202.466307 170.067124 
L 203.227216 170.067124 
L 203.227216 178.390707 
L 203.988125 178.390707 
L 203.988125 180.930105 
L 204.749034 180.930105 
L 204.749034 182.199804 
L 205.509943 182.199804 
L 205.509943 182.764115 
L 206.270852 182.764115 
L 206.270852 179.096095 
L 207.031761 179.096095 
L 207.031761 188.830455 
L 207.79267 188.830455 
L 207.79267 185.726746 
L 208.55358 185.726746 
L 208.55358 190.100154 
L 209.314489 190.100154 
L 209.314489 189.253688 
L 210.075398 189.253688 
L 210.075398 192.921707 
L 210.836307 192.921707 
L 210.836307 195.743261 
L 211.597216 195.743261 
L 211.597216 202.656067 
L 212.358125 202.656067 
L 212.358125 203.784689 
L 213.119034 203.784689 
L 213.119034 207.170553 
L 213.879943 207.170553 
L 213.879943 210.556417 
L 214.640852 210.556417 
L 214.640852 212.108272 
L 215.401761 212.108272 
L 215.401761 218.88 
L 372.909943 218.88 
L 372.909943 218.88 
" clip-path="url(#p6d2764844a)" style="fill: none; stroke: #ff7f0e; stroke-width: 1.5; stroke-linecap: square"/>
   </g>
   <g id="line2d_20">
    <path d="M 68.546307 218.88 
L 216.92358 218.88 
L 216.92358 218.033534 
L 217.684489 218.033534 
L 217.684489 218.88 
L 221.489034 218.88 
L 221.489034 213.519048 
L 222.249943 213.519048 
L 222.249943 212.672582 
L 223.010852 212.672582 
L 223.010852 215.776291 
L 223.771761 215.776291 
L 223.771761 212.672582 
L 224.53267 212.672582 
L 224.53267 214.083359 
L 225.29358 214.083359 
L 225.29358 211.261805 
L 226.054489 211.261805 
L 226.054489 210.697495 
L 226.815398 210.697495 
L 226.815398 211.402883 
L 227.576307 211.402883 
L 227.576307 206.74732 
L 228.337216 206.74732 
L 228.337216 204.772232 
L 229.098125 204.772232 
L 229.098125 208.722407 
L 229.859034 208.722407 
L 229.859034 198.564815 
L 230.619943 198.564815 
L 230.619943 200.116669 
L 231.380852 200.116669 
L 231.380852 191.087698 
L 232.141761 191.087698 
L 232.141761 194.191407 
L 232.90267 194.191407 
L 232.90267 190.100154 
L 233.66358 190.100154 
L 233.66358 186.008901 
L 234.424489 186.008901 
L 234.424489 183.610581 
L 235.185398 183.610581 
L 235.185398 176.415619 
L 235.946307 176.415619 
L 235.946307 175.569153 
L 236.707216 175.569153 
L 236.707216 179.378251 
L 237.468125 179.378251 
L 237.468125 164.988328 
L 238.229034 164.988328 
L 238.229034 170.349279 
L 238.989943 170.349279 
L 238.989943 177.121008 
L 239.750852 177.121008 
L 239.750852 166.116949 
L 240.511761 166.116949 
L 240.511761 167.104493 
L 241.27267 167.104493 
L 241.27267 171.618978 
L 242.03358 171.618978 
L 242.03358 165.270483 
L 242.794489 165.270483 
L 242.794489 173.452988 
L 243.555398 173.452988 
L 243.555398 175.428076 
L 244.316307 175.428076 
L 244.316307 174.299454 
L 245.077216 174.299454 
L 245.077216 174.017299 
L 245.838125 174.017299 
L 245.838125 175.851309 
L 246.599034 175.851309 
L 246.599034 177.967474 
L 247.359943 177.967474 
L 247.359943 175.710231 
L 248.120852 175.710231 
L 248.120852 181.917649 
L 248.881761 181.917649 
L 248.881761 174.299454 
L 249.64267 174.299454 
L 249.64267 172.042211 
L 250.40358 172.042211 
L 250.40358 176.838852 
L 251.164489 176.838852 
L 251.164489 182.905192 
L 251.925398 182.905192 
L 251.925398 182.481959 
L 252.686307 182.481959 
L 252.686307 178.531784 
L 253.447216 178.531784 
L 253.447216 179.237173 
L 254.208125 179.237173 
L 254.208125 182.481959 
L 254.969034 182.481959 
L 254.969034 178.531784 
L 255.729943 178.531784 
L 255.729943 181.494416 
L 256.490852 181.494416 
L 256.490852 179.801484 
L 257.251761 179.801484 
L 257.251761 183.751659 
L 258.01267 183.751659 
L 258.01267 175.14592 
L 258.77358 175.14592 
L 258.77358 186.71429 
L 259.534489 186.71429 
L 259.534489 186.149979 
L 260.295398 186.149979 
L 260.295398 187.2786 
L 261.056307 187.2786 
L 261.056307 184.315969 
L 261.817216 184.315969 
L 261.817216 186.71429 
L 262.578125 186.71429 
L 262.578125 190.805542 
L 263.339034 190.805542 
L 263.339034 184.315969 
L 264.099943 184.315969 
L 264.099943 181.494416 
L 264.860852 181.494416 
L 264.860852 192.498474 
L 265.621761 192.498474 
L 265.621761 190.100154 
L 266.38267 190.100154 
L 266.38267 186.149979 
L 267.14358 186.149979 
L 267.14358 194.896795 
L 267.904489 194.896795 
L 267.904489 191.087698 
L 268.665398 191.087698 
L 268.665398 188.971533 
L 269.426307 188.971533 
L 269.426307 194.050329 
L 270.187216 194.050329 
L 270.187216 195.17895 
L 270.948125 195.17895 
L 270.948125 195.884339 
L 271.709034 195.884339 
L 271.709034 197.436193 
L 272.469943 197.436193 
L 272.469943 194.896795 
L 273.230852 194.896795 
L 273.230852 199.693436 
L 273.991761 199.693436 
L 273.991761 200.68098 
L 274.75267 200.68098 
L 274.75267 202.232834 
L 275.51358 202.232834 
L 275.51358 201.950679 
L 276.274489 201.950679 
L 276.274489 208.440252 
L 277.035398 208.440252 
L 277.035398 207.311631 
L 277.796307 207.311631 
L 277.796307 208.863485 
L 278.557216 208.863485 
L 278.557216 212.390427 
L 279.318125 212.390427 
L 279.318125 213.377971 
L 280.079034 213.377971 
L 280.079034 213.660126 
L 280.839943 213.660126 
L 280.839943 217.892456 
L 281.600852 217.892456 
L 281.600852 218.88 
L 372.909943 218.88 
L 372.909943 218.88 
" clip-path="url(#p6d2764844a)" style="fill: none; stroke: #2ca02c; stroke-width: 1.5; stroke-linecap: square"/>
   </g>
   <g id="line2d_21">
    <path d="M 68.546307 218.88 
L 286.166307 218.88 
L 286.166307 218.315689 
L 286.927216 218.315689 
L 286.927216 218.88 
L 292.25358 218.88 
L 292.25358 214.788747 
L 293.014489 214.788747 
L 293.014489 214.224437 
L 293.775398 214.224437 
L 293.775398 215.494136 
L 294.536307 215.494136 
L 294.536307 217.469223 
L 295.297216 217.469223 
L 295.297216 218.033534 
L 296.058125 218.033534 
L 296.058125 213.942281 
L 296.819034 213.942281 
L 296.819034 214.64767 
L 297.579943 214.64767 
L 297.579943 214.506592 
L 298.340852 214.506592 
L 298.340852 211.967194 
L 299.101761 211.967194 
L 299.101761 212.954738 
L 299.86267 212.954738 
L 299.86267 213.801204 
L 300.62358 213.801204 
L 300.62358 206.74732 
L 301.384489 206.74732 
L 301.384489 212.249349 
L 302.145398 212.249349 
L 302.145398 209.427796 
L 302.906307 209.427796 
L 302.906307 209.709951 
L 303.667216 209.709951 
L 303.667216 204.490077 
L 304.428125 204.490077 
L 304.428125 205.195465 
L 305.189034 205.195465 
L 305.189034 203.361456 
L 305.949943 203.361456 
L 305.949943 195.743261 
L 306.710852 195.743261 
L 306.710852 205.195465 
L 307.471761 205.195465 
L 307.471761 191.793086 
L 308.23267 191.793086 
L 308.23267 198.84697 
L 308.99358 198.84697 
L 308.99358 195.743261 
L 309.754489 195.743261 
L 309.754489 191.934164 
L 310.515398 191.934164 
L 310.515398 185.726746 
L 311.276307 185.726746 
L 311.276307 188.971533 
L 312.037216 188.971533 
L 312.037216 189.535843 
L 312.798125 189.535843 
L 312.798125 187.2786 
L 313.559034 187.2786 
L 313.559034 183.610581 
L 314.319943 183.610581 
L 314.319943 184.598125 
L 315.080852 184.598125 
L 315.080852 180.789027 
L 315.841761 180.789027 
L 315.841761 189.11261 
L 316.60267 189.11261 
L 316.60267 175.428076 
L 317.36358 175.428076 
L 317.36358 185.867824 
L 318.124489 185.867824 
L 318.124489 178.108551 
L 318.885398 178.108551 
L 318.885398 183.469503 
L 319.646307 183.469503 
L 319.646307 185.303513 
L 320.407216 185.303513 
L 320.407216 176.838852 
L 321.168125 176.838852 
L 321.168125 187.842911 
L 321.929034 187.842911 
L 321.929034 183.610581 
L 322.689943 183.610581 
L 322.689943 188.407222 
L 323.450852 188.407222 
L 323.450852 183.610581 
L 324.211761 183.610581 
L 324.211761 187.701833 
L 324.97267 187.701833 
L 324.97267 186.996445 
L 325.73358 186.996445 
L 325.73358 186.149979 
L 326.494489 186.149979 
L 326.494489 186.855367 
L 327.255398 186.855367 
L 327.255398 188.266144 
L 328.016307 188.266144 
L 328.016307 191.228775 
L 329.538125 191.228775 
L 329.538125 182.058726 
L 330.299034 182.058726 
L 330.299034 183.469503 
L 331.059943 183.469503 
L 331.059943 188.689377 
L 331.820852 188.689377 
L 331.820852 187.842911 
L 332.581761 187.842911 
L 332.581761 196.025416 
L 333.34267 196.025416 
L 333.34267 187.842911 
L 334.10358 187.842911 
L 334.10358 192.075241 
L 334.864489 192.075241 
L 334.864489 188.5483 
L 335.625398 188.5483 
L 335.625398 192.216319 
L 336.386307 192.216319 
L 336.386307 187.560756 
L 337.147216 187.560756 
L 337.147216 194.61464 
L 337.908125 194.61464 
L 337.908125 185.444591 
L 338.669034 185.444591 
L 338.669034 192.921707 
L 339.429943 192.921707 
L 339.429943 190.523387 
L 340.190852 190.523387 
L 340.190852 188.266144 
L 340.951761 188.266144 
L 340.951761 191.793086 
L 341.71267 191.793086 
L 341.71267 188.266144 
L 342.47358 188.266144 
L 342.47358 194.61464 
L 343.234489 194.61464 
L 343.234489 192.921707 
L 343.995398 192.921707 
L 343.995398 196.589727 
L 344.756307 196.589727 
L 344.756307 196.730805 
L 345.517216 196.730805 
L 345.517216 191.087698 
L 346.278125 191.087698 
L 346.278125 196.166494 
L 347.039034 196.166494 
L 347.039034 196.448649 
L 347.799943 196.448649 
L 347.799943 195.743261 
L 348.560852 195.743261 
L 348.560852 191.369853 
L 349.321761 191.369853 
L 349.321761 196.871882 
L 350.08267 196.871882 
L 350.08267 191.793086 
L 350.84358 191.793086 
L 350.84358 198.141582 
L 351.604489 198.141582 
L 351.604489 194.050329 
L 352.365398 194.050329 
L 352.365398 198.282659 
L 353.126307 198.282659 
L 353.126307 198.84697 
L 353.887216 198.84697 
L 353.887216 197.436193 
L 354.648125 197.436193 
L 354.648125 199.552358 
L 355.409034 199.552358 
L 355.409034 196.025416 
L 356.169943 196.025416 
L 356.169943 200.822057 
L 356.930852 200.822057 
L 356.930852 200.398824 
L 357.691761 200.398824 
L 357.691761 199.834514 
L 358.45267 199.834514 
L 358.45267 199.975591 
L 359.21358 199.975591 
L 359.21358 204.348999 
L 359.974489 204.348999 
L 359.974489 201.527446 
L 360.735398 201.527446 
L 360.735398 203.0793 
L 361.496307 203.0793 
L 361.496307 201.104213 
L 362.257216 201.104213 
L 362.257216 203.784689 
L 363.018125 203.784689 
L 363.018125 205.054388 
L 363.779034 205.054388 
L 363.779034 206.465164 
L 364.539943 206.465164 
L 364.539943 204.490077 
L 365.300852 204.490077 
L 365.300852 206.183009 
L 366.061761 206.183009 
L 366.061761 211.826116 
L 366.82267 211.826116 
L 366.82267 210.556417 
L 367.58358 210.556417 
L 367.58358 212.249349 
L 368.344489 212.249349 
L 368.344489 209.992106 
L 369.105398 209.992106 
L 369.105398 213.377971 
L 369.866307 213.377971 
L 369.866307 213.801204 
L 370.627216 213.801204 
L 370.627216 214.929825 
L 371.388125 214.929825 
L 371.388125 214.788747 
L 372.149034 214.788747 
L 372.149034 217.328146 
L 372.909943 217.328146 
L 372.909943 217.328146 
" clip-path="url(#p6d2764844a)" style="fill: none; stroke: #d62728; stroke-width: 1.5; stroke-linecap: square"/>
   </g>
   <g id="patch_3">
    <path d="M 53.328125 228.96 
L 53.328125 7.2 
" style="fill: none; stroke: #000000; stroke-width: 0.8; stroke-linejoin: miter; stroke-linecap: square"/>
   </g>
   <g id="patch_4">
    <path d="M 388.128125 228.96 
L 388.128125 7.2 
" style="fill: none; stroke: #000000; stroke-width: 0.8; stroke-linejoin: miter; stroke-linecap: square"/>
   </g>
   <g id="patch_5">
    <path d="M 53.328125 228.96 
L 388.128125 228.96 
" style="fill: none; stroke: #000000; stroke-width: 0.8; stroke-linejoin: miter; stroke-linecap: square"/>
   </g>
   <g id="patch_6">
    <path d="M 53.328125 7.2 
L 388.128125 7.2 
" style="fill: none; stroke: #000000; stroke-width: 0.8; stroke-linejoin: miter; stroke-linecap: square"/>
   </g>
   <g id="legend_1">
    <g id="patch_7">
     <path d="M 306.904688 73.9125 
L 381.128125 73.9125 
Q 383.128125 73.9125 383.128125 71.9125 
L 383.128125 14.2 
Q 383.128125 12.2 381.128125 12.2 
L 306.904688 12.2 
Q 304.904688 12.2 304.904688 14.2 
L 304.904688 71.9125 
Q 304.904688 73.9125 306.904688 73.9125 
z
" style="fill: #ffffff; opacity: 0.8; stroke: #cccccc; stroke-linejoin: miter"/>
    </g>
    <g id="line2d_22">
     <path d="M 308.904688 20.298437 
L 308.904688 20.298437 
L 318.904688 20.298437 
L 318.904688 20.298437 
L 328.904688 20.298437 
" style="fill: none; stroke: #1f77b4; stroke-width: 1.5; stroke-linecap: square"/>
    </g>
    <g id="text_20">
     <!-- beam -->
     <g transform="translate(336.904688 23.798437) scale(0.1 -0.1)">
      <defs>
       <path id="DejaVuSans-62" d="M 3116 1747 
Q 3116 2381 2855 2742 
Q 2594 3103 2138 3103 
Q 1681 3103 1420 2742 
Q 1159 2381 1159 1747 
Q 1159 1113 1420 752 
Q 1681 391 2138 391 
Q 2594 391 2855 752 
Q 3116 1113 3116 1747 
z
M 1159 2969 
Q 1341 3281 1617 3432 
Q 1894 3584 2278 3584 
Q 2916 3584 3314 3078 
Q 3713 2572 3713 1747 
Q 3713 922 3314 415 
Q 2916 -91 2278 -91 
Q 1894 -91 1617 61 
Q 1341 213 1159 525 
L 1159 0 
L 581 0 
L 581 4863 
L 1159 4863 
L 1159 2969 
z
" transform="scale(0.015625)"/>
       <path id="DejaVuSans-65" d="M 3597 1894 
L 3597 1613 
L 953 1613 
Q 991 1019 1311 708 
Q 1631 397 2203 397 
Q 2534 397 2845 478 
Q 3156 559 3463 722 
L 3463 178 
Q 3153 47 2828 -22 
Q 2503 -91 2169 -91 
Q 1331 -91 842 396 
Q 353 884 353 1716 
Q 353 2575 817 3079 
Q 1281 3584 2069 3584 
Q 2775 3584 3186 3129 
Q 3597 2675 3597 1894 
z
M 3022 2063 
Q 3016 2534 2758 2815 
Q 2500 3097 2075 3097 
Q 1594 3097 1305 2825 
Q 1016 2553 972 2059 
L 3022 2063 
z
" transform="scale(0.015625)"/>
       <path id="DejaVuSans-61" d="M 2194 1759 
Q 1497 1759 1228 1600 
Q 959 1441 959 1056 
Q 959 750 1161 570 
Q 1363 391 1709 391 
Q 2188 391 2477 730 
Q 2766 1069 2766 1631 
L 2766 1759 
L 2194 1759 
z
M 3341 1997 
L 3341 0 
L 2766 0 
L 2766 531 
Q 2569 213 2275 61 
Q 1981 -91 1556 -91 
Q 1019 -91 701 211 
Q 384 513 384 1019 
Q 384 1609 779 1909 
Q 1175 2209 1959 2209 
L 2766 2209 
L 2766 2266 
Q 2766 2663 2505 2880 
Q 2244 3097 1772 3097 
Q 1472 3097 1187 3025 
Q 903 2953 641 2809 
L 641 3341 
Q 956 3463 1253 3523 
Q 1550 3584 1831 3584 
Q 2591 3584 2966 3190 
Q 3341 2797 3341 1997 
z
" transform="scale(0.015625)"/>
       <path id="DejaVuSans-6d" d="M 3328 2828 
Q 3544 3216 3844 3400 
Q 4144 3584 4550 3584 
Q 5097 3584 5394 3201 
Q 5691 2819 5691 2113 
L 5691 0 
L 5113 0 
L 5113 2094 
Q 5113 2597 4934 2840 
Q 4756 3084 4391 3084 
Q 3944 3084 3684 2787 
Q 3425 2491 3425 1978 
L 3425 0 
L 2847 0 
L 2847 2094 
Q 2847 2600 2669 2842 
Q 2491 3084 2119 3084 
Q 1678 3084 1418 2786 
Q 1159 2488 1159 1978 
L 1159 0 
L 581 0 
L 581 3500 
L 1159 3500 
L 1159 2956 
Q 1356 3278 1631 3431 
Q 1906 3584 2284 3584 
Q 2666 3584 2933 3390 
Q 3200 3197 3328 2828 
z
" transform="scale(0.015625)"/>
      </defs>
      <use xlink:href="#DejaVuSans-62"/>
      <use xlink:href="#DejaVuSans-65" transform="translate(63.476562 0)"/>
      <use xlink:href="#DejaVuSans-61" transform="translate(125 0)"/>
      <use xlink:href="#DejaVuSans-6d" transform="translate(186.279297 0)"/>
     </g>
    </g>
    <g id="line2d_23">
     <path d="M 308.904688 34.976562 
L 308.904688 34.976562 
L 318.904688 34.976562 
L 318.904688 34.976562 
L 328.904688 34.976562 
" style="fill: none; stroke: #ff7f0e; stroke-width: 1.5; stroke-linecap: square"/>
    </g>
    <g id="text_21">
     <!-- sample -->
     <g transform="translate(336.904688 38.476562) scale(0.1 -0.1)">
      <defs>
       <path id="DejaVuSans-70" d="M 1159 525 
L 1159 -1331 
L 581 -1331 
L 581 3500 
L 1159 3500 
L 1159 2969 
Q 1341 3281 1617 3432 
Q 1894 3584 2278 3584 
Q 2916 3584 3314 3078 
Q 3713 2572 3713 1747 
Q 3713 922 3314 415 
Q 2916 -91 2278 -91 
Q 1894 -91 1617 61 
Q 1341 213 1159 525 
z
M 3116 1747 
Q 3116 2381 2855 2742 
Q 2594 3103 2138 3103 
Q 1681 3103 1420 2742 
Q 1159 2381 1159 1747 
Q 1159 1113 1420 752 
Q 1681 391 2138 391 
Q 2594 391 2855 752 
Q 3116 1113 3116 1747 
z
" transform="scale(0.015625)"/>
       <path id="DejaVuSans-6c" d="M 603 4863 
L 1178 4863 
L 1178 0 
L 603 0 
L 603 4863 
z
" transform="scale(0.015625)"/>
      </defs>
      <use xlink:href="#DejaVuSans-73"/>
      <use xlink:href="#DejaVuSans-61" transform="translate(52.099609 0)"/>
      <use xlink:href="#DejaVuSans-6d" transform="translate(113.378906 0)"/>
      <use xlink:href="#DejaVuSans-70" transform="translate(210.791016 0)"/>
      <use xlink:href="#DejaVuSans-6c" transform="translate(274.267578 0)"/>
      <use xlink:href="#DejaVuSans-65" transform="translate(302.050781 0)"/>
     </g>
    </g>
    <g id="line2d_24">
     <path d="M 308.904688 49.654687 
L 308.904688 49.654687 
L 318.904688 49.654687 
L 318.904688 49.654687 
L 328.904688 49.654687 
" style="fill: none; stroke: #2ca02c; stroke-width: 1.5; stroke-linecap: square"/>
    </g>
    <g id="text_22">
     <!-- monitor -->
     <g transform="translate(336.904688 53.154687) scale(0.1 -0.1)">
      <defs>
       <path id="DejaVuSans-69" d="M 603 3500 
L 1178 3500 
L 1178 0 
L 603 0 
L 603 3500 
z
M 603 4863 
L 1178 4863 
L 1178 4134 
L 603 4134 
L 603 4863 
z
" transform="scale(0.015625)"/>
       <path id="DejaVuSans-72" d="M 2631 2963 
Q 2534 3019 2420 3045 
Q 2306 3072 2169 3072 
Q 1681 3072 1420 2755 
Q 1159 2438 1159 1844 
L 1159 0 
L 581 0 
L 581 3500 
L 1159 3500 
L 1159 2956 
Q 1341 3275 1631 3429 
Q 1922 3584 2338 3584 
Q 2397 3584 2469 3576 
Q 2541 3569 2628 3553 
L 2631 2963 
z
" transform="scale(0.015625)"/>
      </defs>
      <use xlink:href="#DejaVuSans-6d"/>
      <use xlink:href="#DejaVuSans-6f" transform="translate(97.412109 0)"/>
      <use xlink:href="#DejaVuSans-6e" transform="translate(158.59375 0)"/>
      <use xlink:href="#DejaVuSans-69" transform="translate(221.972656 0)"/>
      <use xlink:href="#DejaVuSans-74" transform="translate(249.755859 0)"/>
      <use xlink:href="#DejaVuSans-6f" transform="translate(288.964844 0)"/>
      <use xlink:href="#DejaVuSans-72" transform="translate(350.146484 0)"/>
     </g>
    </g>
    <g id="line2d_25">
     <path d="M 308.904688 64.332812 
L 308.904688 64.332812 
L 318.904688 64.332812 
L 318.904688 64.332812 
L 328.904688 64.332812 
" style="fill: none; stroke: #d62728; stroke-width: 1.5; stroke-linecap: square"/>
    </g>
    <g id="text_23">
     <!-- detector -->
     <g transform="translate(336.904688 67.832812) scale(0.1 -0.1)">
      <defs>
       <path id="DejaVuSans-64" d="M 2906 2969 
L 2906 4863 
L 3481 4863 
L 3481 0 
L 2906 0 
L 2906 525 
Q 2725 213 2448 61 
Q 2172 -91 1784 -91 
Q 1150 -91 751 415 
Q 353 922 353 1747 
Q 353 2572 751 3078 
Q 1150 3584 1784 3584 
Q 2172 3584 2448 3432 
Q 2725 3281 2906 2969 
z
M 947 1747 
Q 947 1113 1208 752 
Q 1469 391 1925 391 
Q 2381 391 2643 752 
Q 2906 1113 2906 1747 
Q 2906 2381 2643 2742 
Q 2381 3103 1925 3103 
Q 1469 3103 1208 2742 
Q 947 2381 947 1747 
z
" transform="scale(0.015625)"/>
      </defs>
      <use xlink:href="#DejaVuSans-64"/>
      <use xlink:href="#DejaVuSans-65" transform="translate(63.476562 0)"/>
      <use xlink:href="#DejaVuSans-74" transform="translate(125 0)"/>
      <use xlink:href="#DejaVuSans-65" transform="translate(164.208984 0)"/>
      <use xlink:href="#DejaVuSans-63" transform="translate(225.732422 0)"/>
      <use xlink:href="#DejaVuSans-74" transform="translate(280.712891 0)"/>
      <use xlink:href="#DejaVuSans-6f" transform="translate(319.921875 0)"/>
      <use xlink:href="#DejaVuSans-72" transform="translate(381.103516 0)"/>
     </g>
    </g>
   </g>
  </g>
 </g>
 <defs>
  <clipPath id="p6d2764844a">
   <rect x="53.328125" y="7.2" width="334.8" height="221.76"/>
  </clipPath>
 </defs>
</svg>
