<?xml version="1.0" encoding="utf-8" standalone="no"?>
<!DOCTYPE svg PUBLIC "-//W3C//DTD SVG 1.1//EN"
  "http://www.w3.org/Graphics/SVG/1.1/DTD/svg11.dtd">
<svg xmlns:xlink="http://www.w3.org/1999/xlink" width="395.328125pt" height="268.200625pt" viewBox="0 0 395.328125 268.200625" xmlns="http://www.w3.org/2000/svg" version="1.1">
 <metadata>
  <rdf:RDF xmlns:dc="http://purl.org/dc/elements/1.1/" xmlns:cc="http://creativecommons.org/ns#" xmlns:rdf="http://www.w3.org/1999/02/22-rdf-syntax-ns#">
   <cc:Work>
    <dc:type rdf:resource="http://purl.org/dc/dcmitype/StillImage"/>
    <dc:date>2025-04-10T08:51:27.390189</dc:date>
    <dc:format>image/svg+xml</dc:format>
    <dc:creator>
     <cc:Agent>
      <dc:title>Matplotlib v3.10.1, https://matplotlib.org/</dc:title>
     </cc:Agent>
    </dc:creator>
   </cc:Work>
  </rdf:RDF>
 </metadata>
 <defs>
  <style type="text/css">*{stroke-linejoin: round; stroke-linecap: butt}</style>
 </defs>
 <g id="figure_1">
  <g id="patch_1">
   <path d="M 0 268.200625 
L 395.328125 268.200625 
L 395.328125 0 
L 0 0 
z
" style="fill: #ffffff"/>
  </g>
  <g id="axes_1">
   <g id="patch_2">
    <path d="M 53.328125 228.96 
L 388.128125 228.96 
L 388.128125 7.2 
L 53.328125 7.2 
z
" style="fill: #ffffff"/>
   </g>
   <g id="matplotlib.axis_1">
    <g id="xtick_1">
     <g id="line2d_1">
      <defs>
       <path id="m54ab0b03fc" d="M 0 0 
L 0 3.5 
" style="stroke: #000000; stroke-width: 0.8"/>
      </defs>
      <g>
       <use xlink:href="#m54ab0b03fc" x="68.546307" y="228.96" style="stroke: #000000; stroke-width: 0.8"/>
      </g>
     </g>
     <g id="text_1">
      <!-- 2 -->
      <g transform="translate(65.365057 243.558437) scale(0.1 -0.1)">
       <defs>
        <path id="DejaVuSans-32" d="M 1228 531 
L 3431 531 
L 3431 0 
L 469 0 
L 469 531 
Q 828 903 1448 1529 
Q 2069 2156 2228 2338 
Q 2531 2678 2651 2914 
Q 2772 3150 2772 3378 
Q 2772 3750 2511 3984 
Q 2250 4219 1831 4219 
Q 1534 4219 1204 4116 
Q 875 4013 500 3803 
L 500 4441 
Q 881 4594 1212 4672 
Q 1544 4750 1819 4750 
Q 2544 4750 2975 4387 
Q 3406 4025 3406 3419 
Q 3406 3131 3298 2873 
Q 3191 2616 2906 2266 
Q 2828 2175 2409 1742 
Q 1991 1309 1228 531 
z
" transform="scale(0.015625)"/>
       </defs>
       <use xlink:href="#DejaVuSans-32"/>
      </g>
     </g>
    </g>
    <g id="xtick_2">
     <g id="line2d_2">
      <g>
       <use xlink:href="#m54ab0b03fc" x="106.591761" y="228.96" style="stroke: #000000; stroke-width: 0.8"/>
      </g>
     </g>
     <g id="text_2">
      <!-- 3 -->
      <g transform="translate(103.410511 243.558437) scale(0.1 -0.1)">
       <defs>
        <path id="DejaVuSans-33" d="M 2597 2516 
Q 3050 2419 3304 2112 
Q 3559 1806 3559 1356 
Q 3559 666 3084 287 
Q 2609 -91 1734 -91 
Q 1441 -91 1130 -33 
Q 819 25 488 141 
L 488 750 
Q 750 597 1062 519 
Q 1375 441 1716 441 
Q 2309 441 2620 675 
Q 2931 909 2931 1356 
Q 2931 1769 2642 2001 
Q 2353 2234 1838 2234 
L 1294 2234 
L 1294 2753 
L 1863 2753 
Q 2328 2753 2575 2939 
Q 2822 3125 2822 3475 
Q 2822 3834 2567 4026 
Q 2313 4219 1838 4219 
Q 1578 4219 1281 4162 
Q 984 4106 628 3988 
L 628 4550 
Q 988 4650 1302 4700 
Q 1616 4750 1894 4750 
Q 2613 4750 3031 4423 
Q 3450 4097 3450 3541 
Q 3450 3153 3228 2886 
Q 3006 2619 2597 2516 
z
" transform="scale(0.015625)"/>
       </defs>
       <use xlink:href="#DejaVuSans-33"/>
      </g>
     </g>
    </g>
    <g id="xtick_3">
     <g id="line2d_3">
      <g>
       <use xlink:href="#m54ab0b03fc" x="144.637216" y="228.96" style="stroke: #000000; stroke-width: 0.8"/>
      </g>
     </g>
     <g id="text_3">
      <!-- 4 -->
      <g transform="translate(141.455966 243.558437) scale(0.1 -0.1)">
       <defs>
        <path id="DejaVuSans-34" d="M 2419 4116 
L 825 1625 
L 2419 1625 
L 2419 4116 
z
M 2253 4666 
L 3047 4666 
L 3047 1625 
L 3713 1625 
L 3713 1100 
L 3047 1100 
L 3047 0 
L 2419 0 
L 2419 1100 
L 313 1100 
L 313 1709 
L 2253 4666 
z
" transform="scale(0.015625)"/>
       </defs>
       <use xlink:href="#DejaVuSans-34"/>
      </g>
     </g>
    </g>
    <g id="xtick_4">
     <g id="line2d_4">
      <g>
       <use xlink:href="#m54ab0b03fc" x="182.68267" y="228.96" style="stroke: #000000; stroke-width: 0.8"/>
      </g>
     </g>
     <g id="text_4">
      <!-- 5 -->
      <g transform="translate(179.50142 243.558437) scale(0.1 -0.1)">
       <defs>
        <path id="DejaVuSans-35" d="M 691 4666 
L 3169 4666 
L 3169 4134 
L 1269 4134 
L 1269 2991 
Q 1406 3038 1543 3061 
Q 1681 3084 1819 3084 
Q 2600 3084 3056 2656 
Q 3513 2228 3513 1497 
Q 3513 744 3044 326 
Q 2575 -91 1722 -91 
Q 1428 -91 1123 -41 
Q 819 9 494 109 
L 494 744 
Q 775 591 1075 516 
Q 1375 441 1709 441 
Q 2250 441 2565 725 
Q 2881 1009 2881 1497 
Q 2881 1984 2565 2268 
Q 2250 2553 1709 2553 
Q 1456 2553 1204 2497 
Q 953 2441 691 2322 
L 691 4666 
z
" transform="scale(0.015625)"/>
       </defs>
       <use xlink:href="#DejaVuSans-35"/>
      </g>
     </g>
    </g>
    <g id="xtick_5">
     <g id="line2d_5">
      <g>
       <use xlink:href="#m54ab0b03fc" x="220.728125" y="228.96" style="stroke: #000000; stroke-width: 0.8"/>
      </g>
     </g>
     <g id="text_5">
      <!-- 6 -->
      <g transform="translate(217.546875 243.558437) scale(0.1 -0.1)">
       <defs>
        <path id="DejaVuSans-36" d="M 2113 2584 
Q 1688 2584 1439 2293 
Q 1191 2003 1191 1497 
Q 1191 994 1439 701 
Q 1688 409 2113 409 
Q 2538 409 2786 701 
Q 3034 994 3034 1497 
Q 3034 2003 2786 2293 
Q 2538 2584 2113 2584 
z
M 3366 4563 
L 3366 3988 
Q 3128 4100 2886 4159 
Q 2644 4219 2406 4219 
Q 1781 4219 1451 3797 
Q 1122 3375 1075 2522 
Q 1259 2794 1537 2939 
Q 1816 3084 2150 3084 
Q 2853 3084 3261 2657 
Q 3669 2231 3669 1497 
Q 3669 778 3244 343 
Q 2819 -91 2113 -91 
Q 1303 -91 875 529 
Q 447 1150 447 2328 
Q 447 3434 972 4092 
Q 1497 4750 2381 4750 
Q 2619 4750 2861 4703 
Q 3103 4656 3366 4563 
z
" transform="scale(0.015625)"/>
       </defs>
       <use xlink:href="#DejaVuSans-36"/>
      </g>
     </g>
    </g>
    <g id="xtick_6">
     <g id="line2d_6">
      <g>
       <use xlink:href="#m54ab0b03fc" x="258.77358" y="228.96" style="stroke: #000000; stroke-width: 0.8"/>
      </g>
     </g>
     <g id="text_6">
      <!-- 7 -->
      <g transform="translate(255.59233 243.558437) scale(0.1 -0.1)">
       <defs>
        <path id="DejaVuSans-37" d="M 525 4666 
L 3525 4666 
L 3525 4397 
L 1831 0 
L 1172 0 
L 2766 4134 
L 525 4134 
L 525 4666 
z
" transform="scale(0.015625)"/>
       </defs>
       <use xlink:href="#DejaVuSans-37"/>
      </g>
     </g>
    </g>
    <g id="xtick_7">
     <g id="line2d_7">
      <g>
       <use xlink:href="#m54ab0b03fc" x="296.819034" y="228.96" style="stroke: #000000; stroke-width: 0.8"/>
      </g>
     </g>
     <g id="text_7">
      <!-- 8 -->
      <g transform="translate(293.637784 243.558437) scale(0.1 -0.1)">
       <defs>
        <path id="DejaVuSans-38" d="M 2034 2216 
Q 1584 2216 1326 1975 
Q 1069 1734 1069 1313 
Q 1069 891 1326 650 
Q 1584 409 2034 409 
Q 2484 409 2743 651 
Q 3003 894 3003 1313 
Q 3003 1734 2745 1975 
Q 2488 2216 2034 2216 
z
M 1403 2484 
Q 997 2584 770 2862 
Q 544 3141 544 3541 
Q 544 4100 942 4425 
Q 1341 4750 2034 4750 
Q 2731 4750 3128 4425 
Q 3525 4100 3525 3541 
Q 3525 3141 3298 2862 
Q 3072 2584 2669 2484 
Q 3125 2378 3379 2068 
Q 3634 1759 3634 1313 
Q 3634 634 3220 271 
Q 2806 -91 2034 -91 
Q 1263 -91 848 271 
Q 434 634 434 1313 
Q 434 1759 690 2068 
Q 947 2378 1403 2484 
z
M 1172 3481 
Q 1172 3119 1398 2916 
Q 1625 2713 2034 2713 
Q 2441 2713 2670 2916 
Q 2900 3119 2900 3481 
Q 2900 3844 2670 4047 
Q 2441 4250 2034 4250 
Q 1625 4250 1398 4047 
Q 1172 3844 1172 3481 
z
" transform="scale(0.015625)"/>
       </defs>
       <use xlink:href="#DejaVuSans-38"/>
      </g>
     </g>
    </g>
    <g id="xtick_8">
     <g id="line2d_8">
      <g>
       <use xlink:href="#m54ab0b03fc" x="334.864489" y="228.96" style="stroke: #000000; stroke-width: 0.8"/>
      </g>
     </g>
     <g id="text_8">
      <!-- 9 -->
      <g transform="translate(331.683239 243.558437) scale(0.1 -0.1)">
       <defs>
        <path id="DejaVuSans-39" d="M 703 97 
L 703 672 
Q 941 559 1184 500 
Q 1428 441 1663 441 
Q 2288 441 2617 861 
Q 2947 1281 2994 2138 
Q 2813 1869 2534 1725 
Q 2256 1581 1919 1581 
Q 1219 1581 811 2004 
Q 403 2428 403 3163 
Q 403 3881 828 4315 
Q 1253 4750 1959 4750 
Q 2769 4750 3195 4129 
Q 3622 3509 3622 2328 
Q 3622 1225 3098 567 
Q 2575 -91 1691 -91 
Q 1453 -91 1209 -44 
Q 966 3 703 97 
z
M 1959 2075 
Q 2384 2075 2632 2365 
Q 2881 2656 2881 3163 
Q 2881 3666 2632 3958 
Q 2384 4250 1959 4250 
Q 1534 4250 1286 3958 
Q 1038 3666 1038 3163 
Q 1038 2656 1286 2365 
Q 1534 2075 1959 2075 
z
" transform="scale(0.015625)"/>
       </defs>
       <use xlink:href="#DejaVuSans-39"/>
      </g>
     </g>
    </g>
    <g id="xtick_9">
     <g id="line2d_9">
      <g>
       <use xlink:href="#m54ab0b03fc" x="372.909943" y="228.96" style="stroke: #000000; stroke-width: 0.8"/>
      </g>
     </g>
     <g id="text_9">
      <!-- 10 -->
      <g transform="translate(366.547443 243.558437) scale(0.1 -0.1)">
       <defs>
        <path id="DejaVuSans-31" d="M 794 531 
L 1825 531 
L 1825 4091 
L 703 3866 
L 703 4441 
L 1819 4666 
L 2450 4666 
L 2450 531 
L 3481 531 
L 3481 0 
L 794 0 
L 794 531 
z
" transform="scale(0.015625)"/>
        <path id="DejaVuSans-30" d="M 2034 4250 
Q 1547 4250 1301 3770 
Q 1056 3291 1056 2328 
Q 1056 1369 1301 889 
Q 1547 409 2034 409 
Q 2525 409 2770 889 
Q 3016 1369 3016 2328 
Q 3016 3291 2770 3770 
Q 2525 4250 2034 4250 
z
M 2034 4750 
Q 2819 4750 3233 4129 
Q 3647 3509 3647 2328 
Q 3647 1150 3233 529 
Q 2819 -91 2034 -91 
Q 1250 -91 836 529 
Q 422 1150 422 2328 
Q 422 3509 836 4129 
Q 1250 4750 2034 4750 
z
" transform="scale(0.015625)"/>
       </defs>
       <use xlink:href="#DejaVuSans-31"/>
       <use xlink:href="#DejaVuSans-30" transform="translate(63.623047 0)"/>
      </g>
     </g>
    </g>
    <g id="text_10">
     <!-- wavelength [Å] -->
     <g transform="translate(182.690625 258.920937) scale(0.1 -0.1)">
      <defs>
       <path id="DejaVuSans-77" d="M 269 3500 
L 844 3500 
L 1563 769 
L 2278 3500 
L 2956 3500 
L 3675 769 
L 4391 3500 
L 4966 3500 
L 4050 0 
L 3372 0 
L 2619 2869 
L 1863 0 
L 1184 0 
L 269 3500 
z
" transform="scale(0.015625)"/>
       <path id="DejaVuSans-61" d="M 2194 1759 
Q 1497 1759 1228 1600 
Q 959 1441 959 1056 
Q 959 750 1161 570 
Q 1363 391 1709 391 
Q 2188 391 2477 730 
Q 2766 1069 2766 1631 
L 2766 1759 
L 2194 1759 
z
M 3341 1997 
L 3341 0 
L 2766 0 
L 2766 531 
Q 2569 213 2275 61 
Q 1981 -91 1556 -91 
Q 1019 -91 701 211 
Q 384 513 384 1019 
Q 384 1609 779 1909 
Q 1175 2209 1959 2209 
L 2766 2209 
L 2766 2266 
Q 2766 2663 2505 2880 
Q 2244 3097 1772 3097 
Q 1472 3097 1187 3025 
Q 903 2953 641 2809 
L 641 3341 
Q 956 3463 1253 3523 
Q 1550 3584 1831 3584 
Q 2591 3584 2966 3190 
Q 3341 2797 3341 1997 
z
" transform="scale(0.015625)"/>
       <path id="DejaVuSans-76" d="M 191 3500 
L 800 3500 
L 1894 563 
L 2988 3500 
L 3597 3500 
L 2284 0 
L 1503 0 
L 191 3500 
z
" transform="scale(0.015625)"/>
       <path id="DejaVuSans-65" d="M 3597 1894 
L 3597 1613 
L 953 1613 
Q 991 1019 1311 708 
Q 1631 397 2203 397 
Q 2534 397 2845 478 
Q 3156 559 3463 722 
L 3463 178 
Q 3153 47 2828 -22 
Q 2503 -91 2169 -91 
Q 1331 -91 842 396 
Q 353 884 353 1716 
Q 353 2575 817 3079 
Q 1281 3584 2069 3584 
Q 2775 3584 3186 3129 
Q 3597 2675 3597 1894 
z
M 3022 2063 
Q 3016 2534 2758 2815 
Q 2500 3097 2075 3097 
Q 1594 3097 1305 2825 
Q 1016 2553 972 2059 
L 3022 2063 
z
" transform="scale(0.015625)"/>
       <path id="DejaVuSans-6c" d="M 603 4863 
L 1178 4863 
L 1178 0 
L 603 0 
L 603 4863 
z
" transform="scale(0.015625)"/>
       <path id="DejaVuSans-6e" d="M 3513 2113 
L 3513 0 
L 2938 0 
L 2938 2094 
Q 2938 2591 2744 2837 
Q 2550 3084 2163 3084 
Q 1697 3084 1428 2787 
Q 1159 2491 1159 1978 
L 1159 0 
L 581 0 
L 581 3500 
L 1159 3500 
L 1159 2956 
Q 1366 3272 1645 3428 
Q 1925 3584 2291 3584 
Q 2894 3584 3203 3211 
Q 3513 2838 3513 2113 
z
" transform="scale(0.015625)"/>
       <path id="DejaVuSans-67" d="M 2906 1791 
Q 2906 2416 2648 2759 
Q 2391 3103 1925 3103 
Q 1463 3103 1205 2759 
Q 947 2416 947 1791 
Q 947 1169 1205 825 
Q 1463 481 1925 481 
Q 2391 481 2648 825 
Q 2906 1169 2906 1791 
z
M 3481 434 
Q 3481 -459 3084 -895 
Q 2688 -1331 1869 -1331 
Q 1566 -1331 1297 -1286 
Q 1028 -1241 775 -1147 
L 775 -588 
Q 1028 -725 1275 -790 
Q 1522 -856 1778 -856 
Q 2344 -856 2625 -561 
Q 2906 -266 2906 331 
L 2906 616 
Q 2728 306 2450 153 
Q 2172 0 1784 0 
Q 1141 0 747 490 
Q 353 981 353 1791 
Q 353 2603 747 3093 
Q 1141 3584 1784 3584 
Q 2172 3584 2450 3431 
Q 2728 3278 2906 2969 
L 2906 3500 
L 3481 3500 
L 3481 434 
z
" transform="scale(0.015625)"/>
       <path id="DejaVuSans-74" d="M 1172 4494 
L 1172 3500 
L 2356 3500 
L 2356 3053 
L 1172 3053 
L 1172 1153 
Q 1172 725 1289 603 
Q 1406 481 1766 481 
L 2356 481 
L 2356 0 
L 1766 0 
Q 1100 0 847 248 
Q 594 497 594 1153 
L 594 3053 
L 172 3053 
L 172 3500 
L 594 3500 
L 594 4494 
L 1172 4494 
z
" transform="scale(0.015625)"/>
       <path id="DejaVuSans-68" d="M 3513 2113 
L 3513 0 
L 2938 0 
L 2938 2094 
Q 2938 2591 2744 2837 
Q 2550 3084 2163 3084 
Q 1697 3084 1428 2787 
Q 1159 2491 1159 1978 
L 1159 0 
L 581 0 
L 581 4863 
L 1159 4863 
L 1159 2956 
Q 1366 3272 1645 3428 
Q 1925 3584 2291 3584 
Q 2894 3584 3203 3211 
Q 3513 2838 3513 2113 
z
" transform="scale(0.015625)"/>
       <path id="DejaVuSans-20" transform="scale(0.015625)"/>
       <path id="DejaVuSans-5b" d="M 550 4863 
L 1875 4863 
L 1875 4416 
L 1125 4416 
L 1125 -397 
L 1875 -397 
L 1875 -844 
L 550 -844 
L 550 4863 
z
" transform="scale(0.015625)"/>
       <path id="DejaVuSans-c5" d="M 2663 5081 
Q 2663 5278 2523 5417 
Q 2384 5556 2188 5556 
Q 1988 5556 1852 5420 
Q 1716 5284 1716 5081 
Q 1716 4884 1853 4746 
Q 1991 4609 2188 4609 
Q 2384 4609 2523 4746 
Q 2663 4884 2663 5081 
z
M 2188 4044 
L 1338 1722 
L 3041 1722 
L 2188 4044 
z
M 1716 4366 
Q 1525 4494 1428 4673 
Q 1331 4853 1331 5081 
Q 1331 5441 1579 5691 
Q 1828 5941 2188 5941 
Q 2544 5941 2795 5689 
Q 3047 5438 3047 5081 
Q 3047 4863 2948 4678 
Q 2850 4494 2663 4366 
L 4325 0 
L 3669 0 
L 3244 1197 
L 1141 1197 
L 716 0 
L 50 0 
L 1716 4366 
z
" transform="scale(0.015625)"/>
       <path id="DejaVuSans-5d" d="M 1947 4863 
L 1947 -844 
L 622 -844 
L 622 -397 
L 1369 -397 
L 1369 4416 
L 622 4416 
L 622 4863 
L 1947 4863 
z
" transform="scale(0.015625)"/>
      </defs>
      <use xlink:href="#DejaVuSans-77"/>
      <use xlink:href="#DejaVuSans-61" transform="translate(81.787109 0)"/>
      <use xlink:href="#DejaVuSans-76" transform="translate(143.066406 0)"/>
      <use xlink:href="#DejaVuSans-65" transform="translate(202.246094 0)"/>
      <use xlink:href="#DejaVuSans-6c" transform="translate(263.769531 0)"/>
      <use xlink:href="#DejaVuSans-65" transform="translate(291.552734 0)"/>
      <use xlink:href="#DejaVuSans-6e" transform="translate(353.076172 0)"/>
      <use xlink:href="#DejaVuSans-67" transform="translate(416.455078 0)"/>
      <use xlink:href="#DejaVuSans-74" transform="translate(479.931641 0)"/>
      <use xlink:href="#DejaVuSans-68" transform="translate(519.140625 0)"/>
      <use xlink:href="#DejaVuSans-20" transform="translate(582.519531 0)"/>
      <use xlink:href="#DejaVuSans-5b" transform="translate(614.306641 0)"/>
      <use xlink:href="#DejaVuSans-c5" transform="translate(653.320312 0)"/>
      <use xlink:href="#DejaVuSans-5d" transform="translate(721.728516 0)"/>
     </g>
    </g>
   </g>
   <g id="matplotlib.axis_2">
    <g id="ytick_1">
     <g id="line2d_10">
      <defs>
       <path id="m592b90b721" d="M 0 0 
L -3.5 0 
" style="stroke: #000000; stroke-width: 0.8"/>
      </defs>
      <g>
       <use xlink:href="#m592b90b721" x="53.328125" y="218.88" style="stroke: #000000; stroke-width: 0.8"/>
      </g>
     </g>
     <g id="text_11">
      <!-- 0 -->
      <g transform="translate(39.965625 222.679219) scale(0.1 -0.1)">
       <use xlink:href="#DejaVuSans-30"/>
      </g>
     </g>
    </g>
    <g id="ytick_2">
     <g id="line2d_11">
      <g>
       <use xlink:href="#m592b90b721" x="53.328125" y="181.601893" style="stroke: #000000; stroke-width: 0.8"/>
      </g>
     </g>
     <g id="text_12">
      <!-- 500 -->
      <g transform="translate(27.240625 185.401112) scale(0.1 -0.1)">
       <use xlink:href="#DejaVuSans-35"/>
       <use xlink:href="#DejaVuSans-30" transform="translate(63.623047 0)"/>
       <use xlink:href="#DejaVuSans-30" transform="translate(127.246094 0)"/>
      </g>
     </g>
    </g>
    <g id="ytick_3">
     <g id="line2d_12">
      <g>
       <use xlink:href="#m592b90b721" x="53.328125" y="144.323787" style="stroke: #000000; stroke-width: 0.8"/>
      </g>
     </g>
     <g id="text_13">
      <!-- 1000 -->
      <g transform="translate(20.878125 148.123006) scale(0.1 -0.1)">
       <use xlink:href="#DejaVuSans-31"/>
       <use xlink:href="#DejaVuSans-30" transform="translate(63.623047 0)"/>
       <use xlink:href="#DejaVuSans-30" transform="translate(127.246094 0)"/>
       <use xlink:href="#DejaVuSans-30" transform="translate(190.869141 0)"/>
      </g>
     </g>
    </g>
    <g id="ytick_4">
     <g id="line2d_13">
      <g>
       <use xlink:href="#m592b90b721" x="53.328125" y="107.04568" style="stroke: #000000; stroke-width: 0.8"/>
      </g>
     </g>
     <g id="text_14">
      <!-- 1500 -->
      <g transform="translate(20.878125 110.844899) scale(0.1 -0.1)">
       <use xlink:href="#DejaVuSans-31"/>
       <use xlink:href="#DejaVuSans-35" transform="translate(63.623047 0)"/>
       <use xlink:href="#DejaVuSans-30" transform="translate(127.246094 0)"/>
       <use xlink:href="#DejaVuSans-30" transform="translate(190.869141 0)"/>
      </g>
     </g>
    </g>
    <g id="ytick_5">
     <g id="line2d_14">
      <g>
       <use xlink:href="#m592b90b721" x="53.328125" y="69.767574" style="stroke: #000000; stroke-width: 0.8"/>
      </g>
     </g>
     <g id="text_15">
      <!-- 2000 -->
      <g transform="translate(20.878125 73.566793) scale(0.1 -0.1)">
       <use xlink:href="#DejaVuSans-32"/>
       <use xlink:href="#DejaVuSans-30" transform="translate(63.623047 0)"/>
       <use xlink:href="#DejaVuSans-30" transform="translate(127.246094 0)"/>
       <use xlink:href="#DejaVuSans-30" transform="translate(190.869141 0)"/>
      </g>
     </g>
    </g>
    <g id="ytick_6">
     <g id="line2d_15">
      <g>
       <use xlink:href="#m592b90b721" x="53.328125" y="32.489467" style="stroke: #000000; stroke-width: 0.8"/>
      </g>
     </g>
     <g id="text_16">
      <!-- 2500 -->
      <g transform="translate(20.878125 36.288686) scale(0.1 -0.1)">
       <use xlink:href="#DejaVuSans-32"/>
       <use xlink:href="#DejaVuSans-35" transform="translate(63.623047 0)"/>
       <use xlink:href="#DejaVuSans-30" transform="translate(127.246094 0)"/>
       <use xlink:href="#DejaVuSans-30" transform="translate(190.869141 0)"/>
      </g>
     </g>
    </g>
    <g id="text_17">
     <!-- [counts] -->
     <g transform="translate(14.798438 138.6925) rotate(-90) scale(0.1 -0.1)">
      <defs>
       <path id="DejaVuSans-63" d="M 3122 3366 
L 3122 2828 
Q 2878 2963 2633 3030 
Q 2388 3097 2138 3097 
Q 1578 3097 1268 2742 
Q 959 2388 959 1747 
Q 959 1106 1268 751 
Q 1578 397 2138 397 
Q 2388 397 2633 464 
Q 2878 531 3122 666 
L 3122 134 
Q 2881 22 2623 -34 
Q 2366 -91 2075 -91 
Q 1284 -91 818 406 
Q 353 903 353 1747 
Q 353 2603 823 3093 
Q 1294 3584 2113 3584 
Q 2378 3584 2631 3529 
Q 2884 3475 3122 3366 
z
" transform="scale(0.015625)"/>
       <path id="DejaVuSans-6f" d="M 1959 3097 
Q 1497 3097 1228 2736 
Q 959 2375 959 1747 
Q 959 1119 1226 758 
Q 1494 397 1959 397 
Q 2419 397 2687 759 
Q 2956 1122 2956 1747 
Q 2956 2369 2687 2733 
Q 2419 3097 1959 3097 
z
M 1959 3584 
Q 2709 3584 3137 3096 
Q 3566 2609 3566 1747 
Q 3566 888 3137 398 
Q 2709 -91 1959 -91 
Q 1206 -91 779 398 
Q 353 888 353 1747 
Q 353 2609 779 3096 
Q 1206 3584 1959 3584 
z
" transform="scale(0.015625)"/>
       <path id="DejaVuSans-75" d="M 544 1381 
L 544 3500 
L 1119 3500 
L 1119 1403 
Q 1119 906 1312 657 
Q 1506 409 1894 409 
Q 2359 409 2629 706 
Q 2900 1003 2900 1516 
L 2900 3500 
L 3475 3500 
L 3475 0 
L 2900 0 
L 2900 538 
Q 2691 219 2414 64 
Q 2138 -91 1772 -91 
Q 1169 -91 856 284 
Q 544 659 544 1381 
z
M 1991 3584 
L 1991 3584 
z
" transform="scale(0.015625)"/>
       <path id="DejaVuSans-73" d="M 2834 3397 
L 2834 2853 
Q 2591 2978 2328 3040 
Q 2066 3103 1784 3103 
Q 1356 3103 1142 2972 
Q 928 2841 928 2578 
Q 928 2378 1081 2264 
Q 1234 2150 1697 2047 
L 1894 2003 
Q 2506 1872 2764 1633 
Q 3022 1394 3022 966 
Q 3022 478 2636 193 
Q 2250 -91 1575 -91 
Q 1294 -91 989 -36 
Q 684 19 347 128 
L 347 722 
Q 666 556 975 473 
Q 1284 391 1588 391 
Q 1994 391 2212 530 
Q 2431 669 2431 922 
Q 2431 1156 2273 1281 
Q 2116 1406 1581 1522 
L 1381 1569 
Q 847 1681 609 1914 
Q 372 2147 372 2553 
Q 372 3047 722 3315 
Q 1072 3584 1716 3584 
Q 2034 3584 2315 3537 
Q 2597 3491 2834 3397 
z
" transform="scale(0.015625)"/>
      </defs>
      <use xlink:href="#DejaVuSans-5b"/>
      <use xlink:href="#DejaVuSans-63" transform="translate(39.013672 0)"/>
      <use xlink:href="#DejaVuSans-6f" transform="translate(93.994141 0)"/>
      <use xlink:href="#DejaVuSans-75" transform="translate(155.175781 0)"/>
      <use xlink:href="#DejaVuSans-6e" transform="translate(218.554688 0)"/>
      <use xlink:href="#DejaVuSans-74" transform="translate(281.933594 0)"/>
      <use xlink:href="#DejaVuSans-73" transform="translate(321.142578 0)"/>
      <use xlink:href="#DejaVuSans-5d" transform="translate(373.242188 0)"/>
     </g>
    </g>
   </g>
   <g id="patch_3">
    <path d="M 53.328125 228.96 
L 53.328125 7.2 
" style="fill: none; stroke: #000000; stroke-width: 0.8; stroke-linejoin: miter; stroke-linecap: square"/>
   </g>
   <g id="patch_4">
    <path d="M 388.128125 228.96 
L 388.128125 7.2 
" style="fill: none; stroke: #000000; stroke-width: 0.8; stroke-linejoin: miter; stroke-linecap: square"/>
   </g>
   <g id="patch_5">
    <path d="M 53.328125 228.96 
L 388.128125 228.96 
" style="fill: none; stroke: #000000; stroke-width: 0.8; stroke-linejoin: miter; stroke-linecap: square"/>
   </g>
   <g id="patch_6">
    <path d="M 53.328125 7.2 
L 388.128125 7.2 
" style="fill: none; stroke: #000000; stroke-width: 0.8; stroke-linejoin: miter; stroke-linecap: square"/>
   </g>
   <g id="legend_1">
    <g id="patch_7">
     <path d="M 284.125 44.834375 
L 381.128125 44.834375 
Q 383.128125 44.834375 383.128125 42.834375 
L 383.128125 14.2 
Q 383.128125 12.2 381.128125 12.2 
L 284.125 12.2 
Q 282.125 12.2 282.125 14.2 
L 282.125 42.834375 
Q 282.125 44.834375 284.125 44.834375 
z
" style="fill: #ffffff; opacity: 0.8; stroke: #cccccc; stroke-linejoin: miter"/>
    </g>
    <g id="line2d_16">
     <path d="M 286.125 20.298437 
L 286.125 20.298437 
L 296.125 20.298437 
L 296.125 20.298437 
L 306.125 20.298437 
" style="fill: none; stroke: #1f77b4; stroke-width: 1.5; stroke-linecap: square"/>
    </g>
    <g id="text_18">
     <!-- wfm -->
     <g transform="translate(314.125 23.798437) scale(0.1 -0.1)">
      <defs>
       <path id="DejaVuSans-66" d="M 2375 4863 
L 2375 4384 
L 1825 4384 
Q 1516 4384 1395 4259 
Q 1275 4134 1275 3809 
L 1275 3500 
L 2222 3500 
L 2222 3053 
L 1275 3053 
L 1275 0 
L 697 0 
L 697 3053 
L 147 3053 
L 147 3500 
L 697 3500 
L 697 3744 
Q 697 4328 969 4595 
Q 1241 4863 1831 4863 
L 2375 4863 
z
" transform="scale(0.015625)"/>
       <path id="DejaVuSans-6d" d="M 3328 2828 
Q 3544 3216 3844 3400 
Q 4144 3584 4550 3584 
Q 5097 3584 5394 3201 
Q 5691 2819 5691 2113 
L 5691 0 
L 5113 0 
L 5113 2094 
Q 5113 2597 4934 2840 
Q 4756 3084 4391 3084 
Q 3944 3084 3684 2787 
Q 3425 2491 3425 1978 
L 3425 0 
L 2847 0 
L 2847 2094 
Q 2847 2600 2669 2842 
Q 2491 3084 2119 3084 
Q 1678 3084 1418 2786 
Q 1159 2488 1159 1978 
L 1159 0 
L 581 0 
L 581 3500 
L 1159 3500 
L 1159 2956 
Q 1356 3278 1631 3431 
Q 1906 3584 2284 3584 
Q 2666 3584 2933 3390 
Q 3200 3197 3328 2828 
z
" transform="scale(0.015625)"/>
      </defs>
      <use xlink:href="#DejaVuSans-77"/>
      <use xlink:href="#DejaVuSans-66" transform="translate(81.787109 0)"/>
      <use xlink:href="#DejaVuSans-6d" transform="translate(116.992188 0)"/>
     </g>
    </g>
    <g id="line2d_17">
     <path d="M 286.125 34.976562 
L 286.125 34.976562 
L 296.125 34.976562 
L 296.125 34.976562 
L 306.125 34.976562 
" style="fill: none; stroke: #ff7f0e; stroke-width: 1.5; stroke-linecap: square"/>
    </g>
    <g id="text_19">
     <!-- ground_truth -->
     <g transform="translate(314.125 38.476562) scale(0.1 -0.1)">
      <defs>
       <path id="DejaVuSans-72" d="M 2631 2963 
Q 2534 3019 2420 3045 
Q 2306 3072 2169 3072 
Q 1681 3072 1420 2755 
Q 1159 2438 1159 1844 
L 1159 0 
L 581 0 
L 581 3500 
L 1159 3500 
L 1159 2956 
Q 1341 3275 1631 3429 
Q 1922 3584 2338 3584 
Q 2397 3584 2469 3576 
Q 2541 3569 2628 3553 
L 2631 2963 
z
" transform="scale(0.015625)"/>
       <path id="DejaVuSans-64" d="M 2906 2969 
L 2906 4863 
L 3481 4863 
L 3481 0 
L 2906 0 
L 2906 525 
Q 2725 213 2448 61 
Q 2172 -91 1784 -91 
Q 1150 -91 751 415 
Q 353 922 353 1747 
Q 353 2572 751 3078 
Q 1150 3584 1784 3584 
Q 2172 3584 2448 3432 
Q 2725 3281 2906 2969 
z
M 947 1747 
Q 947 1113 1208 752 
Q 1469 391 1925 391 
Q 2381 391 2643 752 
Q 2906 1113 2906 1747 
Q 2906 2381 2643 2742 
Q 2381 3103 1925 3103 
Q 1469 3103 1208 2742 
Q 947 2381 947 1747 
z
" transform="scale(0.015625)"/>
       <path id="DejaVuSans-5f" d="M 3263 -1063 
L 3263 -1509 
L -63 -1509 
L -63 -1063 
L 3263 -1063 
z
" transform="scale(0.015625)"/>
      </defs>
      <use xlink:href="#DejaVuSans-67"/>
      <use xlink:href="#DejaVuSans-72" transform="translate(63.476562 0)"/>
      <use xlink:href="#DejaVuSans-6f" transform="translate(102.339844 0)"/>
      <use xlink:href="#DejaVuSans-75" transform="translate(163.521484 0)"/>
      <use xlink:href="#DejaVuSans-6e" transform="translate(226.900391 0)"/>
      <use xlink:href="#DejaVuSans-64" transform="translate(290.279297 0)"/>
      <use xlink:href="#DejaVuSans-5f" transform="translate(353.755859 0)"/>
      <use xlink:href="#DejaVuSans-74" transform="translate(403.755859 0)"/>
      <use xlink:href="#DejaVuSans-72" transform="translate(442.964844 0)"/>
      <use xlink:href="#DejaVuSans-75" transform="translate(484.078125 0)"/>
      <use xlink:href="#DejaVuSans-74" transform="translate(547.457031 0)"/>
      <use xlink:href="#DejaVuSans-68" transform="translate(586.666016 0)"/>
     </g>
    </g>
   </g>
   <g id="line2d_18">
    <path d="M 68.546307 218.88 
L 69.560852 218.88 
L 69.560852 203.446864 
L 70.575398 203.446864 
L 70.575398 155.358107 
L 71.589943 155.358107 
L 71.589943 115.992426 
L 72.604489 115.992426 
L 72.604489 105.256331 
L 73.619034 105.256331 
L 73.619034 96.607811 
L 74.63358 96.607811 
L 74.63358 92.059882 
L 75.648125 92.059882 
L 75.648125 91.836213 
L 76.66267 91.836213 
L 76.66267 88.182959 
L 77.677216 88.182959 
L 77.677216 80.801893 
L 78.691761 80.801893 
L 78.691761 82.665799 
L 79.706307 82.665799 
L 79.706307 73.19716 
L 80.720852 73.19716 
L 80.720852 62.013728 
L 81.735398 62.013728 
L 81.735398 58.509586 
L 82.749943 58.509586 
L 82.749943 56.049231 
L 83.764489 56.049231 
L 83.764489 54.110769 
L 84.779034 54.110769 
L 84.779034 47.698935 
L 85.79358 47.698935 
L 85.79358 38.15574 
L 86.808125 38.15574 
L 86.808125 31.594793 
L 87.82267 31.594793 
L 87.82267 30.47645 
L 88.837216 30.47645 
L 88.837216 24.36284 
L 89.851761 24.36284 
L 89.851761 25.704852 
L 90.866307 25.704852 
L 90.866307 19.740355 
L 91.880852 19.740355 
L 91.880852 24.884734 
L 92.895398 24.884734 
L 92.895398 21.231479 
L 93.909943 21.231479 
L 93.909943 30.47645 
L 94.924489 30.47645 
L 94.924489 22.349822 
L 95.939034 22.349822 
L 95.939034 29.432663 
L 96.95358 29.432663 
L 96.95358 37.782959 
L 97.968125 37.782959 
L 97.968125 38.603077 
L 98.98267 38.603077 
L 98.98267 41.361657 
L 99.997216 41.361657 
L 99.997216 40.839763 
L 101.011761 40.839763 
L 101.011761 37.261065 
L 102.026307 37.261065 
L 102.026307 49.115503 
L 103.040852 49.115503 
L 103.040852 56.272899 
L 104.055398 56.272899 
L 104.055398 78.788876 
L 105.069943 78.788876 
L 105.069943 85.424379 
L 106.084489 85.424379 
L 106.084489 94.743905 
L 107.099034 94.743905 
L 107.099034 98.546272 
L 108.11358 98.546272 
L 108.11358 105.554556 
L 109.128125 105.554556 
L 109.128125 113.457515 
L 110.14267 113.457515 
L 110.14267 121.882367 
L 111.157216 121.882367 
L 111.157216 132.469349 
L 112.171761 132.469349 
L 112.171761 139.92497 
L 113.186307 139.92497 
L 113.186307 141.71432 
L 114.200852 141.71432 
L 114.200852 156.029112 
L 115.215398 156.029112 
L 115.215398 160.949822 
L 116.229943 160.949822 
L 116.229943 166.243314 
L 117.244489 166.243314 
L 117.244489 170.64213 
L 118.259034 170.64213 
L 118.259034 182.272899 
L 119.27358 182.272899 
L 119.27358 190.623195 
L 120.288125 190.623195 
L 120.288125 188.982959 
L 121.30267 188.982959 
L 121.30267 168.48 
L 122.317216 168.48 
L 122.317216 153.345089 
L 123.331761 153.345089 
L 123.331761 131.798343 
L 124.346307 131.798343 
L 124.346307 100.186509 
L 125.360852 100.186509 
L 125.360852 87.064615 
L 126.375398 87.064615 
L 126.375398 87.810178 
L 127.389943 87.810178 
L 127.389943 91.836213 
L 128.404489 91.836213 
L 128.404489 100.111953 
L 129.419034 100.111953 
L 129.419034 96.831479 
L 131.448125 96.906036 
L 131.448125 94.371124 
L 132.46267 94.371124 
L 132.46267 103.243314 
L 134.491761 103.31787 
L 134.491761 106.151006 
L 135.506307 106.151006 
L 135.506307 109.058698 
L 136.520852 109.058698 
L 136.520852 111.295385 
L 137.535398 111.295385 
L 137.535398 110.475266 
L 138.549943 110.475266 
L 138.549943 107.343905 
L 139.564489 107.343905 
L 139.564489 111.220828 
L 140.579034 111.220828 
L 140.579034 117.408994 
L 141.59358 117.408994 
L 141.59358 112.861065 
L 142.608125 112.861065 
L 142.608125 116.439763 
L 143.62267 116.439763 
L 143.62267 113.233846 
L 144.637216 113.233846 
L 144.637216 118.751006 
L 145.651761 118.751006 
L 145.651761 116.066982 
L 146.666307 116.066982 
L 146.666307 120.83858 
L 147.680852 120.83858 
L 147.680852 124.119053 
L 148.695398 124.119053 
L 148.695398 118.900118 
L 149.709943 118.900118 
L 149.709943 123.671716 
L 150.724489 123.671716 
L 150.724489 126.35574 
L 151.739034 126.35574 
L 151.739034 128.741538 
L 152.75358 128.741538 
L 152.75358 129.487101 
L 153.768125 129.487101 
L 153.768125 130.68 
L 154.78267 130.68 
L 154.78267 131.649231 
L 155.797216 131.649231 
L 155.797216 130.381775 
L 156.811761 130.381775 
L 156.811761 132.84213 
L 157.826307 132.84213 
L 157.826307 127.846864 
L 158.840852 127.846864 
L 158.840852 134.407811 
L 159.855398 134.407811 
L 159.855398 132.096568 
L 160.869943 132.096568 
L 160.869943 138.657515 
L 161.884489 138.657515 
L 161.884489 147.678817 
L 162.899034 147.678817 
L 162.899034 151.630296 
L 163.91358 151.630296 
L 163.91358 152.599527 
L 164.928125 152.599527 
L 164.928125 155.28355 
L 165.94267 155.28355 
L 165.94267 151.55574 
L 166.957216 151.55574 
L 166.957216 154.165207 
L 167.971761 154.165207 
L 167.971761 158.191243 
L 168.986307 158.191243 
L 168.986307 164.230296 
L 170.000852 164.230296 
L 170.000852 158.265799 
L 171.015398 158.265799 
L 171.015398 155.358107 
L 172.029943 155.358107 
L 172.029943 150.213728 
L 173.044489 150.213728 
L 173.044489 145.591243 
L 174.059034 145.591243 
L 174.059034 137.390059 
L 175.07358 137.390059 
L 175.07358 135.898935 
L 176.088125 135.898935 
L 176.088125 128.443314 
L 177.10267 128.443314 
L 177.10267 140.223195 
L 178.117216 140.223195 
L 178.117216 146.560473 
L 179.131761 146.560473 
L 179.131761 144.398343 
L 180.146307 144.398343 
L 180.146307 150.95929 
L 181.160852 150.95929 
L 181.160852 161.098935 
L 182.175398 161.098935 
L 182.175398 156.252781 
L 183.189943 156.252781 
L 183.189943 157.147456 
L 184.204489 157.147456 
L 184.204489 154.165207 
L 185.219034 154.165207 
L 185.219034 158.63858 
L 186.23358 158.63858 
L 186.23358 159.384142 
L 187.248125 159.384142 
L 187.248125 160.055148 
L 188.26267 160.055148 
L 188.26267 157.818462 
L 189.277216 157.818462 
L 189.277216 165.795976 
L 190.291761 165.795976 
L 190.291761 165.274083 
L 191.306307 165.274083 
L 191.306307 160.502485 
L 193.335398 160.577041 
L 193.335398 167.212544 
L 194.349943 167.212544 
L 194.349943 168.778225 
L 195.364489 168.778225 
L 195.364489 165.572308 
L 196.379034 165.572308 
L 196.379034 174.817278 
L 197.39358 174.817278 
L 197.39358 168.778225 
L 198.408125 168.778225 
L 198.408125 173.99716 
L 199.42267 173.99716 
L 199.42267 176.830296 
L 200.437216 176.830296 
L 200.437216 178.32142 
L 201.451761 178.32142 
L 201.451761 176.457515 
L 202.466307 176.457515 
L 202.466307 182.720237 
L 203.480852 182.720237 
L 203.480852 183.614911 
L 204.495398 183.614911 
L 204.495398 184.509586 
L 205.509943 184.509586 
L 205.509943 192.487101 
L 206.524489 192.487101 
L 206.524489 190.250414 
L 207.539034 190.250414 
L 207.539034 193.829112 
L 208.55358 193.829112 
L 208.55358 194.500118 
L 210.58267 194.500118 
L 210.58267 192.188876 
L 211.597216 192.188876 
L 211.597216 194.947456 
L 212.611761 194.947456 
L 212.611761 197.706036 
L 213.626307 197.706036 
L 213.626307 196.587692 
L 214.640852 196.587692 
L 214.640852 197.482367 
L 215.655398 197.482367 
L 215.655398 193.829112 
L 216.669943 193.829112 
L 216.669943 190.846864 
L 217.684489 190.846864 
L 217.684489 191.443314 
L 218.699034 191.443314 
L 218.699034 188.610178 
L 219.71358 188.610178 
L 219.71358 185.702485 
L 220.728125 185.702485 
L 220.728125 183.689467 
L 221.74267 183.689467 
L 221.74267 185.627929 
L 222.757216 185.627929 
L 222.757216 184.211361 
L 223.771761 184.211361 
L 223.771761 192.188876 
L 224.786307 192.188876 
L 224.786307 193.456331 
L 225.800852 193.456331 
L 225.800852 193.68 
L 226.815398 193.68 
L 226.815398 194.723787 
L 227.829943 194.723787 
L 227.829943 195.916686 
L 228.844489 195.916686 
L 228.844489 199.346272 
L 229.859034 199.346272 
L 229.859034 196.885917 
L 230.87358 196.885917 
L 230.87358 197.706036 
L 231.888125 197.706036 
L 231.888125 199.048047 
L 232.90267 199.048047 
L 232.90267 200.837396 
L 233.917216 200.837396 
L 233.917216 201.210178 
L 234.931761 201.210178 
L 234.931761 203.446864 
L 235.946307 203.446864 
L 235.946307 201.433846 
L 236.960852 201.433846 
L 236.960852 203.223195 
L 237.975398 203.223195 
L 237.975398 205.608994 
L 238.989943 205.608994 
L 238.989943 203.894201 
L 240.004489 203.894201 
L 240.004489 204.11787 
L 241.019034 204.11787 
L 241.019034 205.236213 
L 242.03358 205.236213 
L 242.03358 207.472899 
L 243.048125 207.472899 
L 243.048125 207.771124 
L 244.06267 207.771124 
L 244.06267 208.516686 
L 245.077216 208.516686 
L 245.077216 208.889467 
L 246.091761 208.889467 
L 246.091761 210.529704 
L 248.120852 210.529704 
L 248.120852 209.933254 
L 249.135398 209.933254 
L 249.135398 212.020828 
L 250.149943 212.020828 
L 250.149943 212.244497 
L 251.164489 212.244497 
L 251.164489 211.946272 
L 252.179034 211.946272 
L 252.179034 212.095385 
L 253.19358 212.095385 
L 253.19358 213.288284 
L 254.208125 213.288284 
L 254.208125 213.511953 
L 255.22267 213.511953 
L 255.22267 214.108402 
L 257.251761 214.033846 
L 257.251761 214.630296 
L 258.266307 214.630296 
L 258.266307 209.933254 
L 259.280852 209.933254 
L 259.280852 207.920237 
L 260.295398 207.920237 
L 260.295398 207.472899 
L 261.309943 207.472899 
L 261.309943 208.293018 
L 262.324489 208.293018 
L 262.324489 206.801893 
L 263.339034 206.801893 
L 263.339034 204.639763 
L 264.35358 204.639763 
L 264.35358 207.025562 
L 265.368125 207.025562 
L 265.368125 205.608994 
L 266.38267 205.608994 
L 266.38267 206.727337 
L 267.397216 206.727337 
L 267.397216 206.354556 
L 268.411761 206.354556 
L 268.411761 208.218462 
L 269.426307 208.218462 
L 269.426307 208.665799 
L 270.440852 208.665799 
L 270.440852 209.485917 
L 271.455398 209.485917 
L 271.455398 208.889467 
L 273.484489 208.814911 
L 273.484489 209.709586 
L 274.499034 209.709586 
L 274.499034 209.933254 
L 275.51358 209.933254 
L 275.51358 211.126154 
L 276.528125 211.126154 
L 276.528125 210.977041 
L 277.54267 210.977041 
L 277.54267 212.244497 
L 278.557216 212.244497 
L 278.557216 211.871716 
L 279.571761 211.871716 
L 279.571761 212.617278 
L 280.586307 212.617278 
L 280.586307 211.20071 
L 281.600852 211.20071 
L 281.600852 213.36284 
L 282.615398 213.36284 
L 282.615398 213.139172 
L 283.629943 213.139172 
L 283.629943 213.95929 
L 284.644489 213.95929 
L 284.644489 214.779408 
L 285.659034 214.779408 
L 285.659034 213.95929 
L 286.67358 213.95929 
L 286.67358 214.108402 
L 287.688125 214.108402 
L 287.688125 214.630296 
L 289.717216 214.55574 
L 289.717216 215.003077 
L 290.731761 215.003077 
L 290.731761 214.853964 
L 291.746307 214.853964 
L 291.746307 216.71787 
L 293.775398 216.643314 
L 293.775398 216.419645 
L 294.789943 216.419645 
L 294.789943 216.866982 
L 295.804489 216.866982 
L 295.804489 217.016095 
L 297.83358 217.090651 
L 297.83358 215.599527 
L 298.848125 215.599527 
L 298.848125 216.12142 
L 299.86267 216.12142 
L 299.86267 215.52497 
L 300.877216 215.52497 
L 300.877216 213.437396 
L 301.891761 213.437396 
L 301.891761 212.766391 
L 302.906307 212.766391 
L 302.906307 211.498935 
L 303.920852 211.498935 
L 303.920852 210.977041 
L 304.935398 210.977041 
L 304.935398 209.485917 
L 305.949943 209.485917 
L 305.949943 207.025562 
L 306.964489 207.025562 
L 306.964489 204.788876 
L 307.979034 204.788876 
L 307.979034 203.745089 
L 308.99358 203.745089 
L 308.99358 204.11787 
L 310.008125 204.11787 
L 310.008125 203.372308 
L 311.02267 203.372308 
L 311.02267 204.192426 
L 312.037216 204.192426 
L 312.037216 205.236213 
L 313.051761 205.236213 
L 313.051761 203.745089 
L 314.066307 203.745089 
L 314.066307 204.266982 
L 315.080852 204.266982 
L 315.080852 203.745089 
L 316.095398 203.745089 
L 316.095398 203.446864 
L 317.109943 203.446864 
L 317.109943 206.056331 
L 319.139034 205.981775 
L 319.139034 204.416095 
L 320.15358 204.416095 
L 320.15358 205.758107 
L 321.168125 205.758107 
L 321.168125 204.266982 
L 323.197216 204.266982 
L 323.197216 205.087101 
L 324.211761 205.087101 
L 324.211761 205.310769 
L 325.226307 205.310769 
L 325.226307 204.565207 
L 326.240852 204.565207 
L 326.240852 205.758107 
L 328.269943 205.832663 
L 328.269943 207.025562 
L 329.284489 207.025562 
L 329.284489 206.652781 
L 330.299034 206.652781 
L 330.299034 208.516686 
L 331.31358 208.516686 
L 331.31358 208.665799 
L 332.328125 208.665799 
L 332.328125 210.60426 
L 333.34267 210.60426 
L 333.34267 210.455148 
L 334.357216 210.455148 
L 334.357216 209.336805 
L 335.371761 209.336805 
L 335.371761 209.187692 
L 336.386307 209.187692 
L 336.386307 209.709586 
L 337.400852 209.709586 
L 337.400852 210.827929 
L 338.415398 210.827929 
L 338.415398 210.977041 
L 339.429943 210.977041 
L 339.429943 211.648047 
L 340.444489 211.648047 
L 340.444489 211.349822 
L 341.459034 211.349822 
L 341.459034 212.990059 
L 342.47358 212.990059 
L 342.47358 212.840947 
L 345.517216 212.766391 
L 345.517216 212.990059 
L 346.531761 212.990059 
L 346.531761 214.108402 
L 347.546307 214.108402 
L 347.546307 215.52497 
L 348.560852 215.52497 
L 348.560852 215.972308 
L 349.575398 215.972308 
L 349.575398 216.792426 
L 350.589943 216.792426 
L 350.589943 217.537988 
L 351.604489 217.537988 
L 351.604489 218.730888 
L 352.619034 218.730888 
L 352.619034 218.88 
L 372.909943 218.88 
L 372.909943 218.88 
" clip-path="url(#p0c3810ae35)" style="fill: none; stroke: #1f77b4; stroke-width: 1.5; stroke-linecap: square"/>
   </g>
   <g id="line2d_19">
    <path d="M 68.546307 212.095385 
L 69.560852 212.095385 
L 69.560852 186.00071 
L 70.575398 186.00071 
L 70.575398 157.222012 
L 71.589943 157.222012 
L 71.589943 134.855148 
L 72.604489 134.855148 
L 72.604489 102.72142 
L 73.619034 102.72142 
L 73.619034 97.949822 
L 74.63358 97.949822 
L 74.63358 92.358107 
L 75.648125 92.358107 
L 75.648125 90.71787 
L 76.66267 90.71787 
L 76.66267 87.511953 
L 77.677216 87.511953 
L 77.677216 84.753373 
L 78.691761 84.753373 
L 78.691761 86.766391 
L 79.706307 86.766391 
L 79.706307 68.425562 
L 80.720852 68.425562 
L 80.720852 63.877633 
L 81.735398 63.877633 
L 81.735398 57.614911 
L 82.749943 57.614911 
L 82.749943 60.969941 
L 83.764489 60.969941 
L 83.764489 47.99716 
L 84.779034 47.99716 
L 84.779034 46.058698 
L 85.79358 46.058698 
L 85.79358 38.230296 
L 86.808125 38.230296 
L 86.808125 33.533254 
L 87.82267 33.533254 
L 87.82267 26.674083 
L 88.837216 26.674083 
L 88.837216 28.910769 
L 89.851761 28.910769 
L 89.851761 29.656331 
L 90.866307 29.656331 
L 90.866307 23.169941 
L 91.880852 23.169941 
L 91.880852 22.275266 
L 92.895398 22.275266 
L 92.895398 17.28 
L 93.909943 17.28 
L 93.909943 24.064615 
L 94.924489 24.064615 
L 94.924489 35.173491 
L 95.939034 35.173491 
L 95.939034 27.71787 
L 96.95358 27.71787 
L 96.95358 34.20426 
L 97.968125 34.20426 
L 97.968125 42.554556 
L 98.98267 42.554556 
L 98.98267 36.068166 
L 99.997216 36.068166 
L 99.997216 39.12497 
L 101.011761 39.12497 
L 101.011761 44.04568 
L 102.026307 44.04568 
L 102.026307 54.259882 
L 103.040852 54.259882 
L 103.040852 62.908402 
L 104.055398 62.908402 
L 104.055398 70.587692 
L 105.069943 70.587692 
L 105.069943 86.691834 
L 106.084489 86.691834 
L 106.084489 92.656331 
L 107.099034 92.656331 
L 107.099034 98.39716 
L 108.11358 98.39716 
L 108.11358 105.032663 
L 109.128125 105.032663 
L 109.128125 118.303669 
L 110.14267 118.303669 
L 110.14267 125.088284 
L 111.157216 125.088284 
L 111.157216 128.890651 
L 112.171761 128.890651 
L 112.171761 136.942722 
L 113.186307 136.942722 
L 113.186307 142.385325 
L 114.200852 142.385325 
L 114.200852 152.375858 
L 115.215398 152.375858 
L 115.215398 159.533254 
L 116.229943 159.533254 
L 116.229943 166.019645 
L 117.244489 166.019645 
L 117.244489 172.207811 
L 118.259034 172.207811 
L 118.259034 182.347456 
L 119.27358 182.347456 
L 119.27358 184.509586 
L 120.288125 184.509586 
L 120.288125 179.588876 
L 121.30267 179.588876 
L 121.30267 164.901302 
L 122.317216 164.901302 
L 122.317216 146.411361 
L 123.331761 146.411361 
L 123.331761 129.039763 
L 124.346307 129.039763 
L 124.346307 116.141538 
L 125.360852 116.141538 
L 125.360852 101.975858 
L 126.375398 101.975858 
L 126.375398 89.152189 
L 127.389943 89.152189 
L 127.389943 91.31432 
L 128.404489 91.31432 
L 128.404489 93.625562 
L 129.419034 93.625562 
L 129.419034 95.489467 
L 130.43358 95.489467 
L 130.43358 97.949822 
L 131.448125 97.949822 
L 131.448125 94.44568 
L 132.46267 94.44568 
L 132.46267 104.734438 
L 133.477216 104.734438 
L 133.477216 99.515503 
L 134.491761 99.515503 
L 134.491761 104.212544 
L 135.506307 104.212544 
L 135.506307 106.896568 
L 136.520852 106.896568 
L 136.520852 111.519053 
L 137.535398 111.519053 
L 137.535398 107.493018 
L 138.549943 107.493018 
L 138.549943 111.966391 
L 140.579034 111.891834 
L 140.579034 112.339172 
L 141.59358 112.339172 
L 141.59358 115.172308 
L 142.608125 115.172308 
L 142.608125 116.961657 
L 143.62267 116.961657 
L 143.62267 114.277633 
L 144.637216 114.277633 
L 144.637216 116.141538 
L 145.651761 116.141538 
L 145.651761 118.303669 
L 146.666307 118.303669 
L 146.666307 119.272899 
L 147.680852 119.272899 
L 147.680852 120.24213 
L 148.695398 120.24213 
L 148.695398 123.149822 
L 149.709943 123.149822 
L 149.709943 129.487101 
L 150.724489 129.487101 
L 150.724489 125.237396 
L 151.739034 125.237396 
L 151.739034 130.381775 
L 152.75358 130.381775 
L 152.75358 129.337988 
L 153.768125 129.337988 
L 153.768125 130.605444 
L 154.78267 130.605444 
L 154.78267 132.022012 
L 155.797216 132.022012 
L 155.797216 133.736805 
L 156.811761 133.736805 
L 156.811761 134.482367 
L 157.826307 134.482367 
L 157.826307 139.179408 
L 158.840852 139.179408 
L 158.840852 137.613728 
L 159.855398 137.613728 
L 159.855398 136.495385 
L 160.869943 136.495385 
L 160.869943 141.341538 
L 161.884489 141.341538 
L 161.884489 140.148639 
L 162.899034 140.148639 
L 162.899034 147.007811 
L 163.91358 147.007811 
L 163.91358 142.907219 
L 164.928125 142.907219 
L 164.928125 148.349822 
L 165.94267 148.349822 
L 165.94267 154.537988 
L 166.957216 154.537988 
L 166.957216 158.116686 
L 167.971761 158.116686 
L 167.971761 157.669349 
L 168.986307 157.669349 
L 168.986307 161.844497 
L 170.000852 161.844497 
L 170.000852 152.003077 
L 171.015398 152.003077 
L 171.015398 154.239763 
L 172.029943 154.239763 
L 172.029943 147.380592 
L 173.044489 147.380592 
L 173.044489 143.503669 
L 174.059034 143.503669 
L 174.059034 141.937988 
L 175.07358 141.937988 
L 175.07358 139.030296 
L 176.088125 139.030296 
L 176.088125 139.328521 
L 177.10267 139.328521 
L 177.10267 134.258698 
L 178.117216 134.258698 
L 178.117216 142.758107 
L 179.131761 142.758107 
L 179.131761 149.468166 
L 180.146307 149.468166 
L 180.146307 150.884734 
L 181.160852 150.884734 
L 181.160852 152.897751 
L 182.175398 152.897751 
L 182.175398 155.507219 
L 183.189943 155.507219 
L 183.189943 158.63858 
L 184.204489 158.63858 
L 184.204489 155.954556 
L 185.219034 155.954556 
L 185.219034 159.756923 
L 186.23358 159.756923 
L 186.23358 156.774675 
L 187.248125 156.774675 
L 187.248125 159.085917 
L 188.26267 159.085917 
L 188.26267 159.458698 
L 189.277216 159.458698 
L 189.277216 162.217278 
L 190.291761 162.217278 
L 190.291761 163.633846 
L 191.306307 163.633846 
L 191.306307 162.515503 
L 192.320852 162.515503 
L 192.320852 166.616095 
L 193.335398 166.616095 
L 193.335398 163.932071 
L 194.349943 163.932071 
L 194.349943 170.940355 
L 195.364489 170.940355 
L 195.364489 170.194793 
L 196.379034 170.194793 
L 196.379034 169.374675 
L 197.39358 169.374675 
L 197.39358 174.071716 
L 198.408125 174.071716 
L 198.408125 175.264615 
L 199.42267 175.264615 
L 199.42267 178.694201 
L 200.437216 178.694201 
L 200.437216 182.123787 
L 201.451761 182.123787 
L 201.451761 179.216095 
L 202.466307 179.216095 
L 202.466307 183.018462 
L 204.495398 183.018462 
L 204.495398 186.224379 
L 205.509943 186.224379 
L 205.509943 185.851598 
L 206.524489 185.851598 
L 206.524489 188.013728 
L 207.539034 188.013728 
L 207.539034 189.504852 
L 208.55358 189.504852 
L 208.55358 192.934438 
L 210.58267 192.859882 
L 210.58267 194.27645 
L 211.597216 194.27645 
L 211.597216 195.767574 
L 212.611761 195.767574 
L 212.611761 194.500118 
L 213.626307 194.500118 
L 213.626307 196.065799 
L 214.640852 196.065799 
L 214.640852 195.394793 
L 215.655398 195.394793 
L 215.655398 193.456331 
L 216.669943 193.456331 
L 216.669943 192.636213 
L 217.684489 192.636213 
L 217.684489 185.926154 
L 218.699034 185.926154 
L 218.699034 188.16284 
L 219.71358 188.16284 
L 219.71358 189.057515 
L 220.728125 189.057515 
L 220.728125 185.926154 
L 221.74267 185.926154 
L 221.74267 186.59716 
L 222.757216 186.59716 
L 222.757216 186.075266 
L 223.771761 186.075266 
L 223.771761 190.623195 
L 224.786307 190.623195 
L 224.786307 192.859882 
L 225.800852 192.859882 
L 225.800852 189.803077 
L 226.815398 189.803077 
L 226.815398 195.693018 
L 227.829943 195.693018 
L 227.829943 196.960473 
L 228.844489 196.960473 
L 228.844489 197.855148 
L 229.859034 197.855148 
L 229.859034 197.333254 
L 230.87358 197.333254 
L 230.87358 198.153373 
L 231.888125 198.153373 
L 231.888125 200.688284 
L 232.90267 200.688284 
L 232.90267 200.837396 
L 233.917216 200.837396 
L 233.917216 202.104852 
L 234.931761 202.104852 
L 234.931761 203.52142 
L 235.946307 203.52142 
L 235.946307 202.477633 
L 236.960852 202.477633 
L 236.960852 201.881183 
L 237.975398 201.881183 
L 237.975398 204.043314 
L 238.989943 204.043314 
L 238.989943 204.937988 
L 240.004489 204.937988 
L 240.004489 204.341538 
L 241.019034 204.341538 
L 241.019034 206.578225 
L 242.03358 206.578225 
L 242.03358 206.205444 
L 243.048125 206.205444 
L 243.048125 209.187692 
L 244.06267 209.187692 
L 244.06267 208.740355 
L 245.077216 208.740355 
L 245.077216 208.293018 
L 246.091761 208.293018 
L 246.091761 210.007811 
L 247.106307 210.007811 
L 247.106307 210.231479 
L 248.120852 210.231479 
L 248.120852 208.814911 
L 249.135398 208.814911 
L 249.135398 211.126154 
L 250.149943 211.126154 
L 250.149943 211.79716 
L 251.164489 211.79716 
L 251.164489 211.648047 
L 252.179034 211.648047 
L 252.179034 212.840947 
L 253.19358 212.840947 
L 253.19358 213.288284 
L 254.208125 213.288284 
L 254.208125 213.661065 
L 255.22267 213.661065 
L 255.22267 212.766391 
L 257.251761 212.766391 
L 257.251761 211.648047 
L 258.266307 211.648047 
L 258.266307 209.411361 
L 259.280852 209.411361 
L 259.280852 208.665799 
L 260.295398 208.665799 
L 260.295398 208.516686 
L 261.309943 208.516686 
L 261.309943 208.218462 
L 262.324489 208.218462 
L 262.324489 206.056331 
L 263.339034 206.056331 
L 263.339034 206.801893 
L 264.35358 206.801893 
L 264.35358 206.429112 
L 265.368125 206.429112 
L 265.368125 205.832663 
L 266.38267 205.832663 
L 266.38267 205.68355 
L 267.397216 205.68355 
L 267.397216 207.025562 
L 268.411761 207.025562 
L 268.411761 206.801893 
L 269.426307 206.801893 
L 269.426307 208.143905 
L 270.440852 208.143905 
L 270.440852 210.529704 
L 271.455398 210.529704 
L 271.455398 208.889467 
L 272.469943 208.889467 
L 272.469943 209.560473 
L 273.484489 209.560473 
L 273.484489 210.380592 
L 274.499034 210.380592 
L 274.499034 210.156923 
L 275.51358 210.156923 
L 275.51358 209.560473 
L 276.528125 209.560473 
L 276.528125 211.946272 
L 277.54267 211.946272 
L 277.54267 211.79716 
L 278.557216 211.79716 
L 278.557216 212.542722 
L 280.586307 212.617278 
L 280.586307 211.871716 
L 281.600852 211.871716 
L 281.600852 212.617278 
L 282.615398 212.617278 
L 282.615398 212.915503 
L 283.629943 212.915503 
L 283.629943 213.735621 
L 284.644489 213.735621 
L 284.644489 214.257515 
L 286.67358 214.257515 
L 286.67358 213.884734 
L 287.688125 213.884734 
L 287.688125 214.928521 
L 288.70267 214.928521 
L 288.70267 214.55574 
L 289.717216 214.55574 
L 289.717216 214.928521 
L 291.746307 214.928521 
L 291.746307 216.419645 
L 292.760852 216.419645 
L 292.760852 216.71787 
L 293.775398 216.71787 
L 293.775398 216.345089 
L 294.789943 216.345089 
L 294.789943 217.016095 
L 295.804489 217.016095 
L 295.804489 216.270533 
L 296.819034 216.270533 
L 296.819034 216.941538 
L 297.83358 216.941538 
L 297.83358 215.450414 
L 298.848125 215.450414 
L 298.848125 216.046864 
L 299.86267 216.046864 
L 299.86267 214.257515 
L 300.877216 214.257515 
L 300.877216 213.213728 
L 301.891761 213.213728 
L 301.891761 211.871716 
L 302.906307 211.871716 
L 302.906307 210.306036 
L 303.920852 210.306036 
L 303.920852 210.007811 
L 304.935398 210.007811 
L 304.935398 208.665799 
L 305.949943 208.665799 
L 305.949943 207.920237 
L 306.964489 207.920237 
L 306.964489 205.832663 
L 307.979034 205.832663 
L 307.979034 205.608994 
L 308.99358 205.608994 
L 308.99358 205.981775 
L 310.008125 205.981775 
L 310.008125 203.148639 
L 311.02267 203.148639 
L 311.02267 203.894201 
L 312.037216 203.894201 
L 312.037216 205.68355 
L 313.051761 205.68355 
L 313.051761 206.130888 
L 314.066307 206.130888 
L 314.066307 203.595976 
L 315.080852 203.595976 
L 315.080852 204.043314 
L 316.095398 204.043314 
L 316.095398 204.490651 
L 318.124489 204.490651 
L 318.124489 205.087101 
L 319.139034 205.087101 
L 319.139034 203.819645 
L 320.15358 203.819645 
L 320.15358 204.416095 
L 321.168125 204.416095 
L 321.168125 203.894201 
L 322.18267 203.894201 
L 322.18267 204.416095 
L 323.197216 204.416095 
L 323.197216 205.907219 
L 325.226307 205.907219 
L 325.226307 207.100118 
L 326.240852 207.100118 
L 326.240852 206.354556 
L 327.255398 206.354556 
L 327.255398 205.68355 
L 328.269943 205.68355 
L 328.269943 208.293018 
L 329.284489 208.293018 
L 329.284489 207.323787 
L 331.31358 207.249231 
L 331.31358 208.665799 
L 332.328125 208.665799 
L 332.328125 208.516686 
L 333.34267 208.516686 
L 333.34267 208.964024 
L 334.357216 208.964024 
L 334.357216 210.60426 
L 335.371761 210.60426 
L 335.371761 209.187692 
L 336.386307 209.187692 
L 336.386307 210.827929 
L 337.400852 210.827929 
L 337.400852 212.169941 
L 338.415398 212.169941 
L 338.415398 209.933254 
L 339.429943 209.933254 
L 339.429943 210.753373 
L 340.444489 210.753373 
L 340.444489 211.648047 
L 341.459034 211.648047 
L 341.459034 211.79716 
L 342.47358 211.79716 
L 342.47358 213.661065 
L 343.488125 213.661065 
L 343.488125 213.511953 
L 344.50267 213.511953 
L 344.50267 212.691834 
L 345.517216 212.691834 
L 345.517216 212.393609 
L 346.531761 212.393609 
L 346.531761 214.182959 
L 347.546307 214.182959 
L 347.546307 215.226746 
L 348.560852 215.226746 
L 348.560852 215.674083 
L 349.575398 215.674083 
L 349.575398 216.568757 
L 350.589943 216.568757 
L 350.589943 217.687101 
L 351.604489 217.687101 
L 351.604489 218.134438 
L 352.619034 218.134438 
L 352.619034 218.730888 
L 353.63358 218.730888 
L 353.63358 218.88 
L 372.909943 218.88 
L 372.909943 218.88 
" clip-path="url(#p0c3810ae35)" style="fill: none; stroke: #ff7f0e; stroke-width: 1.5; stroke-linecap: square"/>
   </g>
  </g>
 </g>
 <defs>
  <clipPath id="p0c3810ae35">
   <rect x="53.328125" y="7.2" width="334.8" height="221.76"/>
  </clipPath>
 </defs>
</svg>
