<?xml version="1.0" encoding="UTF-8" standalone="no"?>
<!DOCTYPE svg PUBLIC "-//W3C//DTD SVG 1.1//EN"
 "http://www.w3.org/Graphics/SVG/1.1/DTD/svg11.dtd">
<!-- Generated by graphviz version 2.43.0 (0)
 -->
<!-- Title: %3 Pages: 1 -->
<svg width="810pt" height="238pt"
 viewBox="0.00 0.00 809.50 238.00" xmlns="http://www.w3.org/2000/svg" xmlns:xlink="http://www.w3.org/1999/xlink">
<g id="graph0" class="graph" transform="scale(1 1) rotate(0) translate(4 234)">
<title>%3</title>
<polygon fill="white" stroke="transparent" points="-4,4 -4,-234 805.5,-234 805.5,4 -4,4"/>
<!-- DetectorLtotal[SampleRun] -->
<g id="node1" class="node">
<title>DetectorLtotal[SampleRun]</title>
<polygon fill="none" stroke="black" points="213,-97 0,-97 0,-74 213,-74 213,-97"/>
<text text-anchor="middle" x="106.5" y="-81.8" font-family="Times,serif" font-size="14.00">DetectorLtotal[SampleRun]</text>
</g>
<!-- TofDetector[SampleRun] -->
<g id="node7" class="node">
<title>TofDetector[SampleRun]</title>
<polygon fill="none" stroke="black" points="523.5,-33 327.5,-33 327.5,0 523.5,0 523.5,-33"/>
<text text-anchor="start" x="337" y="-18.8" font-family="Times,serif" font-size="14.00">TofDetector[SampleRun]</text>
<text text-anchor="start" x="335.5" y="-7.2" font-family="Times,serif" font-size="11.00">via:</text>
<text text-anchor="start" x="356.5" y="-7.2" font-family="Times,serif" font-style="italic" font-size="11.00">detector_time_of_flight_data</text>
</g>
<!-- DetectorLtotal[SampleRun]&#45;&gt;TofDetector[SampleRun] -->
<g id="edge5" class="edge">
<title>DetectorLtotal[SampleRun]&#45;&gt;TofDetector[SampleRun]</title>
<path fill="none" stroke="black" d="M156.69,-73.96C206.2,-63.56 282.79,-47.47 341.57,-35.13"/>
<polygon fill="black" stroke="black" points="342.51,-38.51 351.58,-33.03 341.07,-31.66 342.51,-38.51"/>
</g>
<!-- TofLookupTable -->
<g id="node2" class="node">
<title>TofLookupTable</title>
<polygon fill="none" stroke="black" points="297.5,-171 139.5,-171 139.5,-138 297.5,-138 297.5,-171"/>
<text text-anchor="start" x="162.5" y="-156.8" font-family="Times,serif" font-size="14.00">TofLookupTable</text>
<text text-anchor="start" x="147.5" y="-145.2" font-family="Times,serif" font-size="11.00">via:</text>
<text text-anchor="start" x="168.5" y="-145.2" font-family="Times,serif" font-style="italic" font-size="11.00">load_tof_lookup_table</text>
</g>
<!-- ErrorLimitedTofLookupTable -->
<g id="node3" class="node">
<title>ErrorLimitedTofLookupTable</title>
<polygon fill="none" stroke="black" points="441.5,-102 219.5,-102 219.5,-69 441.5,-69 441.5,-102"/>
<text text-anchor="start" x="227.5" y="-87.8" font-family="Times,serif" font-size="14.00">ErrorLimitedTofLookupTable</text>
<text text-anchor="start" x="235" y="-76.2" font-family="Times,serif" font-size="11.00">via:</text>
<text text-anchor="start" x="256" y="-76.2" font-family="Times,serif" font-style="italic" font-size="11.00">mask_large_uncertainty_in_lut</text>
</g>
<!-- TofLookupTable&#45;&gt;ErrorLimitedTofLookupTable -->
<g id="edge1" class="edge">
<title>TofLookupTable&#45;&gt;ErrorLimitedTofLookupTable</title>
<path fill="none" stroke="black" d="M244.48,-137.96C259.63,-128.89 278.96,-117.33 295.45,-107.47"/>
<polygon fill="black" stroke="black" points="297.49,-110.32 304.28,-102.19 293.9,-104.32 297.49,-110.32"/>
</g>
<!-- ErrorLimitedTofLookupTable&#45;&gt;TofDetector[SampleRun] -->
<g id="edge4" class="edge">
<title>ErrorLimitedTofLookupTable&#45;&gt;TofDetector[SampleRun]</title>
<path fill="none" stroke="black" d="M352.53,-68.96C365.15,-60.06 381.18,-48.76 394.99,-39.02"/>
<polygon fill="black" stroke="black" points="397.1,-41.81 403.26,-33.19 393.07,-36.09 397.1,-41.81"/>
</g>
<!-- LookupTableRelativeErrorThreshold -->
<g id="node4" class="node">
<title>LookupTableRelativeErrorThreshold</title>
<polygon fill="none" stroke="black" points="580,-166 305,-166 305,-143 580,-143 580,-166"/>
<text text-anchor="middle" x="442.5" y="-150.8" font-family="Times,serif" font-size="14.00">LookupTableRelativeErrorThreshold</text>
</g>
<!-- LookupTableRelativeErrorThreshold&#45;&gt;ErrorLimitedTofLookupTable -->
<g id="edge2" class="edge">
<title>LookupTableRelativeErrorThreshold&#45;&gt;ErrorLimitedTofLookupTable</title>
<path fill="none" stroke="black" d="M424.51,-142.74C408.63,-133.24 385.05,-119.13 365.47,-107.42"/>
<polygon fill="black" stroke="black" points="367.18,-104.37 356.8,-102.23 363.59,-110.37 367.18,-104.37"/>
</g>
<!-- PulseStrideOffset -->
<g id="node5" class="node">
<title>PulseStrideOffset</title>
<polygon fill="none" stroke="black" points="592,-97 449,-97 449,-74 592,-74 592,-97"/>
<text text-anchor="middle" x="520.5" y="-81.8" font-family="Times,serif" font-size="14.00">PulseStrideOffset</text>
</g>
<!-- PulseStrideOffset&#45;&gt;TofDetector[SampleRun] -->
<g id="edge6" class="edge">
<title>PulseStrideOffset&#45;&gt;TofDetector[SampleRun]</title>
<path fill="none" stroke="black" d="M505.24,-73.74C492.02,-64.41 472.49,-50.64 456.07,-39.06"/>
<polygon fill="black" stroke="black" points="458,-36.14 447.81,-33.23 453.97,-41.86 458,-36.14"/>
</g>
<!-- RawDetector[SampleRun] -->
<g id="node6" class="node">
<title>RawDetector[SampleRun]</title>
<polygon fill="none" stroke="black" points="801.5,-97 599.5,-97 599.5,-74 801.5,-74 801.5,-97"/>
<text text-anchor="middle" x="700.5" y="-81.8" font-family="Times,serif" font-size="14.00">RawDetector[SampleRun]</text>
</g>
<!-- RawDetector[SampleRun]&#45;&gt;TofDetector[SampleRun] -->
<g id="edge3" class="edge">
<title>RawDetector[SampleRun]&#45;&gt;TofDetector[SampleRun]</title>
<path fill="none" stroke="black" d="M657.23,-73.96C614.9,-63.64 549.62,-47.74 499.12,-35.44"/>
<polygon fill="black" stroke="black" points="499.77,-31.99 489.22,-33.03 498.11,-38.79 499.77,-31.99"/>
</g>
<!-- TofLookupTableFilename -->
<g id="node8" class="node">
<title>TofLookupTableFilename</title>
<polygon fill="none" stroke="red" stroke-dasharray="5,2" points="315.5,-230 121.5,-230 121.5,-207 315.5,-207 315.5,-230"/>
<text text-anchor="middle" x="218.5" y="-214.8" font-family="Times,serif" font-size="14.00" fill="red">TofLookupTableFilename</text>
</g>
<!-- TofLookupTableFilename&#45;&gt;TofLookupTable -->
<g id="edge7" class="edge">
<title>TofLookupTableFilename&#45;&gt;TofLookupTable</title>
<path fill="none" stroke="black" d="M218.5,-206.98C218.5,-199.93 218.5,-190.32 218.5,-181.31"/>
<polygon fill="black" stroke="black" points="222,-181.2 218.5,-171.2 215,-181.2 222,-181.2"/>
</g>
</g>
</svg>
