<?xml version="1.0" encoding="utf-8" standalone="no"?>
<!DOCTYPE svg PUBLIC "-//W3C//DTD SVG 1.1//EN"
  "http://www.w3.org/Graphics/SVG/1.1/DTD/svg11.dtd">
<svg xmlns:xlink="http://www.w3.org/1999/xlink" width="395.328125pt" height="268.200625pt" viewBox="0 0 395.328125 268.200625" xmlns="http://www.w3.org/2000/svg" version="1.1">
 <metadata>
  <rdf:RDF xmlns:dc="http://purl.org/dc/elements/1.1/" xmlns:cc="http://creativecommons.org/ns#" xmlns:rdf="http://www.w3.org/1999/02/22-rdf-syntax-ns#">
   <cc:Work>
    <dc:type rdf:resource="http://purl.org/dc/dcmitype/StillImage"/>
    <dc:date>2025-05-26T10:50:09.502559</dc:date>
    <dc:format>image/svg+xml</dc:format>
    <dc:creator>
     <cc:Agent>
      <dc:title>Matplotlib v3.10.3, https://matplotlib.org/</dc:title>
     </cc:Agent>
    </dc:creator>
   </cc:Work>
  </rdf:RDF>
 </metadata>
 <defs>
  <style type="text/css">*{stroke-linejoin: round; stroke-linecap: butt}</style>
 </defs>
 <g id="figure_1">
  <g id="patch_1">
   <path d="M 0 268.200625 
L 395.328125 268.200625 
L 395.328125 0 
L 0 0 
z
" style="fill: #ffffff"/>
  </g>
  <g id="axes_1">
   <g id="patch_2">
    <path d="M 53.328125 228.96 
L 388.128125 228.96 
L 388.128125 7.2 
L 53.328125 7.2 
z
" style="fill: #ffffff"/>
   </g>
   <g id="matplotlib.axis_1">
    <g id="xtick_1">
     <g id="line2d_1">
      <defs>
       <path id="m8c87e79b6e" d="M 0 0 
L 0 3.5 
" style="stroke: #000000; stroke-width: 0.8"/>
      </defs>
      <g>
       <use xlink:href="#m8c87e79b6e" x="68.546307" y="228.96" style="stroke: #000000; stroke-width: 0.8"/>
      </g>
     </g>
     <g id="text_1">
      <!-- 1 -->
      <g transform="translate(65.365057 243.558437) scale(0.1 -0.1)">
       <defs>
        <path id="DejaVuSans-31" d="M 794 531 
L 1825 531 
L 1825 4091 
L 703 3866 
L 703 4441 
L 1819 4666 
L 2450 4666 
L 2450 531 
L 3481 531 
L 3481 0 
L 794 0 
L 794 531 
z
" transform="scale(0.015625)"/>
       </defs>
       <use xlink:href="#DejaVuSans-31"/>
      </g>
     </g>
    </g>
    <g id="xtick_2">
     <g id="line2d_2">
      <g>
       <use xlink:href="#m8c87e79b6e" x="112.026826" y="228.96" style="stroke: #000000; stroke-width: 0.8"/>
      </g>
     </g>
     <g id="text_2">
      <!-- 2 -->
      <g transform="translate(108.845576 243.558437) scale(0.1 -0.1)">
       <defs>
        <path id="DejaVuSans-32" d="M 1228 531 
L 3431 531 
L 3431 0 
L 469 0 
L 469 531 
Q 828 903 1448 1529 
Q 2069 2156 2228 2338 
Q 2531 2678 2651 2914 
Q 2772 3150 2772 3378 
Q 2772 3750 2511 3984 
Q 2250 4219 1831 4219 
Q 1534 4219 1204 4116 
Q 875 4013 500 3803 
L 500 4441 
Q 881 4594 1212 4672 
Q 1544 4750 1819 4750 
Q 2544 4750 2975 4387 
Q 3406 4025 3406 3419 
Q 3406 3131 3298 2873 
Q 3191 2616 2906 2266 
Q 2828 2175 2409 1742 
Q 1991 1309 1228 531 
z
" transform="scale(0.015625)"/>
       </defs>
       <use xlink:href="#DejaVuSans-32"/>
      </g>
     </g>
    </g>
    <g id="xtick_3">
     <g id="line2d_3">
      <g>
       <use xlink:href="#m8c87e79b6e" x="155.507346" y="228.96" style="stroke: #000000; stroke-width: 0.8"/>
      </g>
     </g>
     <g id="text_3">
      <!-- 3 -->
      <g transform="translate(152.326096 243.558437) scale(0.1 -0.1)">
       <defs>
        <path id="DejaVuSans-33" d="M 2597 2516 
Q 3050 2419 3304 2112 
Q 3559 1806 3559 1356 
Q 3559 666 3084 287 
Q 2609 -91 1734 -91 
Q 1441 -91 1130 -33 
Q 819 25 488 141 
L 488 750 
Q 750 597 1062 519 
Q 1375 441 1716 441 
Q 2309 441 2620 675 
Q 2931 909 2931 1356 
Q 2931 1769 2642 2001 
Q 2353 2234 1838 2234 
L 1294 2234 
L 1294 2753 
L 1863 2753 
Q 2328 2753 2575 2939 
Q 2822 3125 2822 3475 
Q 2822 3834 2567 4026 
Q 2313 4219 1838 4219 
Q 1578 4219 1281 4162 
Q 984 4106 628 3988 
L 628 4550 
Q 988 4650 1302 4700 
Q 1616 4750 1894 4750 
Q 2613 4750 3031 4423 
Q 3450 4097 3450 3541 
Q 3450 3153 3228 2886 
Q 3006 2619 2597 2516 
z
" transform="scale(0.015625)"/>
       </defs>
       <use xlink:href="#DejaVuSans-33"/>
      </g>
     </g>
    </g>
    <g id="xtick_4">
     <g id="line2d_4">
      <g>
       <use xlink:href="#m8c87e79b6e" x="198.987865" y="228.96" style="stroke: #000000; stroke-width: 0.8"/>
      </g>
     </g>
     <g id="text_4">
      <!-- 4 -->
      <g transform="translate(195.806615 243.558437) scale(0.1 -0.1)">
       <defs>
        <path id="DejaVuSans-34" d="M 2419 4116 
L 825 1625 
L 2419 1625 
L 2419 4116 
z
M 2253 4666 
L 3047 4666 
L 3047 1625 
L 3713 1625 
L 3713 1100 
L 3047 1100 
L 3047 0 
L 2419 0 
L 2419 1100 
L 313 1100 
L 313 1709 
L 2253 4666 
z
" transform="scale(0.015625)"/>
       </defs>
       <use xlink:href="#DejaVuSans-34"/>
      </g>
     </g>
    </g>
    <g id="xtick_5">
     <g id="line2d_5">
      <g>
       <use xlink:href="#m8c87e79b6e" x="242.468385" y="228.96" style="stroke: #000000; stroke-width: 0.8"/>
      </g>
     </g>
     <g id="text_5">
      <!-- 5 -->
      <g transform="translate(239.287135 243.558437) scale(0.1 -0.1)">
       <defs>
        <path id="DejaVuSans-35" d="M 691 4666 
L 3169 4666 
L 3169 4134 
L 1269 4134 
L 1269 2991 
Q 1406 3038 1543 3061 
Q 1681 3084 1819 3084 
Q 2600 3084 3056 2656 
Q 3513 2228 3513 1497 
Q 3513 744 3044 326 
Q 2575 -91 1722 -91 
Q 1428 -91 1123 -41 
Q 819 9 494 109 
L 494 744 
Q 775 591 1075 516 
Q 1375 441 1709 441 
Q 2250 441 2565 725 
Q 2881 1009 2881 1497 
Q 2881 1984 2565 2268 
Q 2250 2553 1709 2553 
Q 1456 2553 1204 2497 
Q 953 2441 691 2322 
L 691 4666 
z
" transform="scale(0.015625)"/>
       </defs>
       <use xlink:href="#DejaVuSans-35"/>
      </g>
     </g>
    </g>
    <g id="xtick_6">
     <g id="line2d_6">
      <g>
       <use xlink:href="#m8c87e79b6e" x="285.948904" y="228.96" style="stroke: #000000; stroke-width: 0.8"/>
      </g>
     </g>
     <g id="text_6">
      <!-- 6 -->
      <g transform="translate(282.767654 243.558437) scale(0.1 -0.1)">
       <defs>
        <path id="DejaVuSans-36" d="M 2113 2584 
Q 1688 2584 1439 2293 
Q 1191 2003 1191 1497 
Q 1191 994 1439 701 
Q 1688 409 2113 409 
Q 2538 409 2786 701 
Q 3034 994 3034 1497 
Q 3034 2003 2786 2293 
Q 2538 2584 2113 2584 
z
M 3366 4563 
L 3366 3988 
Q 3128 4100 2886 4159 
Q 2644 4219 2406 4219 
Q 1781 4219 1451 3797 
Q 1122 3375 1075 2522 
Q 1259 2794 1537 2939 
Q 1816 3084 2150 3084 
Q 2853 3084 3261 2657 
Q 3669 2231 3669 1497 
Q 3669 778 3244 343 
Q 2819 -91 2113 -91 
Q 1303 -91 875 529 
Q 447 1150 447 2328 
Q 447 3434 972 4092 
Q 1497 4750 2381 4750 
Q 2619 4750 2861 4703 
Q 3103 4656 3366 4563 
z
" transform="scale(0.015625)"/>
       </defs>
       <use xlink:href="#DejaVuSans-36"/>
      </g>
     </g>
    </g>
    <g id="xtick_7">
     <g id="line2d_7">
      <g>
       <use xlink:href="#m8c87e79b6e" x="329.429424" y="228.96" style="stroke: #000000; stroke-width: 0.8"/>
      </g>
     </g>
     <g id="text_7">
      <!-- 7 -->
      <g transform="translate(326.248174 243.558437) scale(0.1 -0.1)">
       <defs>
        <path id="DejaVuSans-37" d="M 525 4666 
L 3525 4666 
L 3525 4397 
L 1831 0 
L 1172 0 
L 2766 4134 
L 525 4134 
L 525 4666 
z
" transform="scale(0.015625)"/>
       </defs>
       <use xlink:href="#DejaVuSans-37"/>
      </g>
     </g>
    </g>
    <g id="xtick_8">
     <g id="line2d_8">
      <g>
       <use xlink:href="#m8c87e79b6e" x="372.909943" y="228.96" style="stroke: #000000; stroke-width: 0.8"/>
      </g>
     </g>
     <g id="text_8">
      <!-- 8 -->
      <g transform="translate(369.728693 243.558437) scale(0.1 -0.1)">
       <defs>
        <path id="DejaVuSans-38" d="M 2034 2216 
Q 1584 2216 1326 1975 
Q 1069 1734 1069 1313 
Q 1069 891 1326 650 
Q 1584 409 2034 409 
Q 2484 409 2743 651 
Q 3003 894 3003 1313 
Q 3003 1734 2745 1975 
Q 2488 2216 2034 2216 
z
M 1403 2484 
Q 997 2584 770 2862 
Q 544 3141 544 3541 
Q 544 4100 942 4425 
Q 1341 4750 2034 4750 
Q 2731 4750 3128 4425 
Q 3525 4100 3525 3541 
Q 3525 3141 3298 2862 
Q 3072 2584 2669 2484 
Q 3125 2378 3379 2068 
Q 3634 1759 3634 1313 
Q 3634 634 3220 271 
Q 2806 -91 2034 -91 
Q 1263 -91 848 271 
Q 434 634 434 1313 
Q 434 1759 690 2068 
Q 947 2378 1403 2484 
z
M 1172 3481 
Q 1172 3119 1398 2916 
Q 1625 2713 2034 2713 
Q 2441 2713 2670 2916 
Q 2900 3119 2900 3481 
Q 2900 3844 2670 4047 
Q 2441 4250 2034 4250 
Q 1625 4250 1398 4047 
Q 1172 3844 1172 3481 
z
" transform="scale(0.015625)"/>
       </defs>
       <use xlink:href="#DejaVuSans-38"/>
      </g>
     </g>
    </g>
    <g id="text_9">
     <!-- wavelength [Å] -->
     <g transform="translate(182.690625 258.920937) scale(0.1 -0.1)">
      <defs>
       <path id="DejaVuSans-77" d="M 269 3500 
L 844 3500 
L 1563 769 
L 2278 3500 
L 2956 3500 
L 3675 769 
L 4391 3500 
L 4966 3500 
L 4050 0 
L 3372 0 
L 2619 2869 
L 1863 0 
L 1184 0 
L 269 3500 
z
" transform="scale(0.015625)"/>
       <path id="DejaVuSans-61" d="M 2194 1759 
Q 1497 1759 1228 1600 
Q 959 1441 959 1056 
Q 959 750 1161 570 
Q 1363 391 1709 391 
Q 2188 391 2477 730 
Q 2766 1069 2766 1631 
L 2766 1759 
L 2194 1759 
z
M 3341 1997 
L 3341 0 
L 2766 0 
L 2766 531 
Q 2569 213 2275 61 
Q 1981 -91 1556 -91 
Q 1019 -91 701 211 
Q 384 513 384 1019 
Q 384 1609 779 1909 
Q 1175 2209 1959 2209 
L 2766 2209 
L 2766 2266 
Q 2766 2663 2505 2880 
Q 2244 3097 1772 3097 
Q 1472 3097 1187 3025 
Q 903 2953 641 2809 
L 641 3341 
Q 956 3463 1253 3523 
Q 1550 3584 1831 3584 
Q 2591 3584 2966 3190 
Q 3341 2797 3341 1997 
z
" transform="scale(0.015625)"/>
       <path id="DejaVuSans-76" d="M 191 3500 
L 800 3500 
L 1894 563 
L 2988 3500 
L 3597 3500 
L 2284 0 
L 1503 0 
L 191 3500 
z
" transform="scale(0.015625)"/>
       <path id="DejaVuSans-65" d="M 3597 1894 
L 3597 1613 
L 953 1613 
Q 991 1019 1311 708 
Q 1631 397 2203 397 
Q 2534 397 2845 478 
Q 3156 559 3463 722 
L 3463 178 
Q 3153 47 2828 -22 
Q 2503 -91 2169 -91 
Q 1331 -91 842 396 
Q 353 884 353 1716 
Q 353 2575 817 3079 
Q 1281 3584 2069 3584 
Q 2775 3584 3186 3129 
Q 3597 2675 3597 1894 
z
M 3022 2063 
Q 3016 2534 2758 2815 
Q 2500 3097 2075 3097 
Q 1594 3097 1305 2825 
Q 1016 2553 972 2059 
L 3022 2063 
z
" transform="scale(0.015625)"/>
       <path id="DejaVuSans-6c" d="M 603 4863 
L 1178 4863 
L 1178 0 
L 603 0 
L 603 4863 
z
" transform="scale(0.015625)"/>
       <path id="DejaVuSans-6e" d="M 3513 2113 
L 3513 0 
L 2938 0 
L 2938 2094 
Q 2938 2591 2744 2837 
Q 2550 3084 2163 3084 
Q 1697 3084 1428 2787 
Q 1159 2491 1159 1978 
L 1159 0 
L 581 0 
L 581 3500 
L 1159 3500 
L 1159 2956 
Q 1366 3272 1645 3428 
Q 1925 3584 2291 3584 
Q 2894 3584 3203 3211 
Q 3513 2838 3513 2113 
z
" transform="scale(0.015625)"/>
       <path id="DejaVuSans-67" d="M 2906 1791 
Q 2906 2416 2648 2759 
Q 2391 3103 1925 3103 
Q 1463 3103 1205 2759 
Q 947 2416 947 1791 
Q 947 1169 1205 825 
Q 1463 481 1925 481 
Q 2391 481 2648 825 
Q 2906 1169 2906 1791 
z
M 3481 434 
Q 3481 -459 3084 -895 
Q 2688 -1331 1869 -1331 
Q 1566 -1331 1297 -1286 
Q 1028 -1241 775 -1147 
L 775 -588 
Q 1028 -725 1275 -790 
Q 1522 -856 1778 -856 
Q 2344 -856 2625 -561 
Q 2906 -266 2906 331 
L 2906 616 
Q 2728 306 2450 153 
Q 2172 0 1784 0 
Q 1141 0 747 490 
Q 353 981 353 1791 
Q 353 2603 747 3093 
Q 1141 3584 1784 3584 
Q 2172 3584 2450 3431 
Q 2728 3278 2906 2969 
L 2906 3500 
L 3481 3500 
L 3481 434 
z
" transform="scale(0.015625)"/>
       <path id="DejaVuSans-74" d="M 1172 4494 
L 1172 3500 
L 2356 3500 
L 2356 3053 
L 1172 3053 
L 1172 1153 
Q 1172 725 1289 603 
Q 1406 481 1766 481 
L 2356 481 
L 2356 0 
L 1766 0 
Q 1100 0 847 248 
Q 594 497 594 1153 
L 594 3053 
L 172 3053 
L 172 3500 
L 594 3500 
L 594 4494 
L 1172 4494 
z
" transform="scale(0.015625)"/>
       <path id="DejaVuSans-68" d="M 3513 2113 
L 3513 0 
L 2938 0 
L 2938 2094 
Q 2938 2591 2744 2837 
Q 2550 3084 2163 3084 
Q 1697 3084 1428 2787 
Q 1159 2491 1159 1978 
L 1159 0 
L 581 0 
L 581 4863 
L 1159 4863 
L 1159 2956 
Q 1366 3272 1645 3428 
Q 1925 3584 2291 3584 
Q 2894 3584 3203 3211 
Q 3513 2838 3513 2113 
z
" transform="scale(0.015625)"/>
       <path id="DejaVuSans-20" transform="scale(0.015625)"/>
       <path id="DejaVuSans-5b" d="M 550 4863 
L 1875 4863 
L 1875 4416 
L 1125 4416 
L 1125 -397 
L 1875 -397 
L 1875 -844 
L 550 -844 
L 550 4863 
z
" transform="scale(0.015625)"/>
       <path id="DejaVuSans-c5" d="M 2663 5081 
Q 2663 5278 2523 5417 
Q 2384 5556 2188 5556 
Q 1988 5556 1852 5420 
Q 1716 5284 1716 5081 
Q 1716 4884 1853 4746 
Q 1991 4609 2188 4609 
Q 2384 4609 2523 4746 
Q 2663 4884 2663 5081 
z
M 2188 4044 
L 1338 1722 
L 3041 1722 
L 2188 4044 
z
M 1716 4366 
Q 1525 4494 1428 4673 
Q 1331 4853 1331 5081 
Q 1331 5441 1579 5691 
Q 1828 5941 2188 5941 
Q 2544 5941 2795 5689 
Q 3047 5438 3047 5081 
Q 3047 4863 2948 4678 
Q 2850 4494 2663 4366 
L 4325 0 
L 3669 0 
L 3244 1197 
L 1141 1197 
L 716 0 
L 50 0 
L 1716 4366 
z
" transform="scale(0.015625)"/>
       <path id="DejaVuSans-5d" d="M 1947 4863 
L 1947 -844 
L 622 -844 
L 622 -397 
L 1369 -397 
L 1369 4416 
L 622 4416 
L 622 4863 
L 1947 4863 
z
" transform="scale(0.015625)"/>
      </defs>
      <use xlink:href="#DejaVuSans-77"/>
      <use xlink:href="#DejaVuSans-61" transform="translate(81.787109 0)"/>
      <use xlink:href="#DejaVuSans-76" transform="translate(143.066406 0)"/>
      <use xlink:href="#DejaVuSans-65" transform="translate(202.246094 0)"/>
      <use xlink:href="#DejaVuSans-6c" transform="translate(263.769531 0)"/>
      <use xlink:href="#DejaVuSans-65" transform="translate(291.552734 0)"/>
      <use xlink:href="#DejaVuSans-6e" transform="translate(353.076172 0)"/>
      <use xlink:href="#DejaVuSans-67" transform="translate(416.455078 0)"/>
      <use xlink:href="#DejaVuSans-74" transform="translate(479.931641 0)"/>
      <use xlink:href="#DejaVuSans-68" transform="translate(519.140625 0)"/>
      <use xlink:href="#DejaVuSans-20" transform="translate(582.519531 0)"/>
      <use xlink:href="#DejaVuSans-5b" transform="translate(614.306641 0)"/>
      <use xlink:href="#DejaVuSans-c5" transform="translate(653.320312 0)"/>
      <use xlink:href="#DejaVuSans-5d" transform="translate(721.728516 0)"/>
     </g>
    </g>
   </g>
   <g id="matplotlib.axis_2">
    <g id="ytick_1">
     <g id="line2d_9">
      <defs>
       <path id="me63a208ffa" d="M 0 0 
L -3.5 0 
" style="stroke: #000000; stroke-width: 0.8"/>
      </defs>
      <g>
       <use xlink:href="#me63a208ffa" x="53.328125" y="218.88" style="stroke: #000000; stroke-width: 0.8"/>
      </g>
     </g>
     <g id="text_10">
      <!-- 0 -->
      <g transform="translate(39.965625 222.679219) scale(0.1 -0.1)">
       <defs>
        <path id="DejaVuSans-30" d="M 2034 4250 
Q 1547 4250 1301 3770 
Q 1056 3291 1056 2328 
Q 1056 1369 1301 889 
Q 1547 409 2034 409 
Q 2525 409 2770 889 
Q 3016 1369 3016 2328 
Q 3016 3291 2770 3770 
Q 2525 4250 2034 4250 
z
M 2034 4750 
Q 2819 4750 3233 4129 
Q 3647 3509 3647 2328 
Q 3647 1150 3233 529 
Q 2819 -91 2034 -91 
Q 1250 -91 836 529 
Q 422 1150 422 2328 
Q 422 3509 836 4129 
Q 1250 4750 2034 4750 
z
" transform="scale(0.015625)"/>
       </defs>
       <use xlink:href="#DejaVuSans-30"/>
      </g>
     </g>
    </g>
    <g id="ytick_2">
     <g id="line2d_10">
      <g>
       <use xlink:href="#me63a208ffa" x="53.328125" y="189.380439" style="stroke: #000000; stroke-width: 0.8"/>
      </g>
     </g>
     <g id="text_11">
      <!-- 1000 -->
      <g transform="translate(20.878125 193.179658) scale(0.1 -0.1)">
       <use xlink:href="#DejaVuSans-31"/>
       <use xlink:href="#DejaVuSans-30" transform="translate(63.623047 0)"/>
       <use xlink:href="#DejaVuSans-30" transform="translate(127.246094 0)"/>
       <use xlink:href="#DejaVuSans-30" transform="translate(190.869141 0)"/>
      </g>
     </g>
    </g>
    <g id="ytick_3">
     <g id="line2d_11">
      <g>
       <use xlink:href="#me63a208ffa" x="53.328125" y="159.880878" style="stroke: #000000; stroke-width: 0.8"/>
      </g>
     </g>
     <g id="text_12">
      <!-- 2000 -->
      <g transform="translate(20.878125 163.680097) scale(0.1 -0.1)">
       <use xlink:href="#DejaVuSans-32"/>
       <use xlink:href="#DejaVuSans-30" transform="translate(63.623047 0)"/>
       <use xlink:href="#DejaVuSans-30" transform="translate(127.246094 0)"/>
       <use xlink:href="#DejaVuSans-30" transform="translate(190.869141 0)"/>
      </g>
     </g>
    </g>
    <g id="ytick_4">
     <g id="line2d_12">
      <g>
       <use xlink:href="#me63a208ffa" x="53.328125" y="130.381317" style="stroke: #000000; stroke-width: 0.8"/>
      </g>
     </g>
     <g id="text_13">
      <!-- 3000 -->
      <g transform="translate(20.878125 134.180536) scale(0.1 -0.1)">
       <use xlink:href="#DejaVuSans-33"/>
       <use xlink:href="#DejaVuSans-30" transform="translate(63.623047 0)"/>
       <use xlink:href="#DejaVuSans-30" transform="translate(127.246094 0)"/>
       <use xlink:href="#DejaVuSans-30" transform="translate(190.869141 0)"/>
      </g>
     </g>
    </g>
    <g id="ytick_5">
     <g id="line2d_13">
      <g>
       <use xlink:href="#me63a208ffa" x="53.328125" y="100.881756" style="stroke: #000000; stroke-width: 0.8"/>
      </g>
     </g>
     <g id="text_14">
      <!-- 4000 -->
      <g transform="translate(20.878125 104.680975) scale(0.1 -0.1)">
       <use xlink:href="#DejaVuSans-34"/>
       <use xlink:href="#DejaVuSans-30" transform="translate(63.623047 0)"/>
       <use xlink:href="#DejaVuSans-30" transform="translate(127.246094 0)"/>
       <use xlink:href="#DejaVuSans-30" transform="translate(190.869141 0)"/>
      </g>
     </g>
    </g>
    <g id="ytick_6">
     <g id="line2d_14">
      <g>
       <use xlink:href="#me63a208ffa" x="53.328125" y="71.382195" style="stroke: #000000; stroke-width: 0.8"/>
      </g>
     </g>
     <g id="text_15">
      <!-- 5000 -->
      <g transform="translate(20.878125 75.181414) scale(0.1 -0.1)">
       <use xlink:href="#DejaVuSans-35"/>
       <use xlink:href="#DejaVuSans-30" transform="translate(63.623047 0)"/>
       <use xlink:href="#DejaVuSans-30" transform="translate(127.246094 0)"/>
       <use xlink:href="#DejaVuSans-30" transform="translate(190.869141 0)"/>
      </g>
     </g>
    </g>
    <g id="ytick_7">
     <g id="line2d_15">
      <g>
       <use xlink:href="#me63a208ffa" x="53.328125" y="41.882634" style="stroke: #000000; stroke-width: 0.8"/>
      </g>
     </g>
     <g id="text_16">
      <!-- 6000 -->
      <g transform="translate(20.878125 45.681853) scale(0.1 -0.1)">
       <use xlink:href="#DejaVuSans-36"/>
       <use xlink:href="#DejaVuSans-30" transform="translate(63.623047 0)"/>
       <use xlink:href="#DejaVuSans-30" transform="translate(127.246094 0)"/>
       <use xlink:href="#DejaVuSans-30" transform="translate(190.869141 0)"/>
      </g>
     </g>
    </g>
    <g id="ytick_8">
     <g id="line2d_16">
      <g>
       <use xlink:href="#me63a208ffa" x="53.328125" y="12.383073" style="stroke: #000000; stroke-width: 0.8"/>
      </g>
     </g>
     <g id="text_17">
      <!-- 7000 -->
      <g transform="translate(20.878125 16.182292) scale(0.1 -0.1)">
       <use xlink:href="#DejaVuSans-37"/>
       <use xlink:href="#DejaVuSans-30" transform="translate(63.623047 0)"/>
       <use xlink:href="#DejaVuSans-30" transform="translate(127.246094 0)"/>
       <use xlink:href="#DejaVuSans-30" transform="translate(190.869141 0)"/>
      </g>
     </g>
    </g>
    <g id="text_18">
     <!-- [counts] -->
     <g transform="translate(14.798438 138.6925) rotate(-90) scale(0.1 -0.1)">
      <defs>
       <path id="DejaVuSans-63" d="M 3122 3366 
L 3122 2828 
Q 2878 2963 2633 3030 
Q 2388 3097 2138 3097 
Q 1578 3097 1268 2742 
Q 959 2388 959 1747 
Q 959 1106 1268 751 
Q 1578 397 2138 397 
Q 2388 397 2633 464 
Q 2878 531 3122 666 
L 3122 134 
Q 2881 22 2623 -34 
Q 2366 -91 2075 -91 
Q 1284 -91 818 406 
Q 353 903 353 1747 
Q 353 2603 823 3093 
Q 1294 3584 2113 3584 
Q 2378 3584 2631 3529 
Q 2884 3475 3122 3366 
z
" transform="scale(0.015625)"/>
       <path id="DejaVuSans-6f" d="M 1959 3097 
Q 1497 3097 1228 2736 
Q 959 2375 959 1747 
Q 959 1119 1226 758 
Q 1494 397 1959 397 
Q 2419 397 2687 759 
Q 2956 1122 2956 1747 
Q 2956 2369 2687 2733 
Q 2419 3097 1959 3097 
z
M 1959 3584 
Q 2709 3584 3137 3096 
Q 3566 2609 3566 1747 
Q 3566 888 3137 398 
Q 2709 -91 1959 -91 
Q 1206 -91 779 398 
Q 353 888 353 1747 
Q 353 2609 779 3096 
Q 1206 3584 1959 3584 
z
" transform="scale(0.015625)"/>
       <path id="DejaVuSans-75" d="M 544 1381 
L 544 3500 
L 1119 3500 
L 1119 1403 
Q 1119 906 1312 657 
Q 1506 409 1894 409 
Q 2359 409 2629 706 
Q 2900 1003 2900 1516 
L 2900 3500 
L 3475 3500 
L 3475 0 
L 2900 0 
L 2900 538 
Q 2691 219 2414 64 
Q 2138 -91 1772 -91 
Q 1169 -91 856 284 
Q 544 659 544 1381 
z
M 1991 3584 
L 1991 3584 
z
" transform="scale(0.015625)"/>
       <path id="DejaVuSans-73" d="M 2834 3397 
L 2834 2853 
Q 2591 2978 2328 3040 
Q 2066 3103 1784 3103 
Q 1356 3103 1142 2972 
Q 928 2841 928 2578 
Q 928 2378 1081 2264 
Q 1234 2150 1697 2047 
L 1894 2003 
Q 2506 1872 2764 1633 
Q 3022 1394 3022 966 
Q 3022 478 2636 193 
Q 2250 -91 1575 -91 
Q 1294 -91 989 -36 
Q 684 19 347 128 
L 347 722 
Q 666 556 975 473 
Q 1284 391 1588 391 
Q 1994 391 2212 530 
Q 2431 669 2431 922 
Q 2431 1156 2273 1281 
Q 2116 1406 1581 1522 
L 1381 1569 
Q 847 1681 609 1914 
Q 372 2147 372 2553 
Q 372 3047 722 3315 
Q 1072 3584 1716 3584 
Q 2034 3584 2315 3537 
Q 2597 3491 2834 3397 
z
" transform="scale(0.015625)"/>
      </defs>
      <use xlink:href="#DejaVuSans-5b"/>
      <use xlink:href="#DejaVuSans-63" transform="translate(39.013672 0)"/>
      <use xlink:href="#DejaVuSans-6f" transform="translate(93.994141 0)"/>
      <use xlink:href="#DejaVuSans-75" transform="translate(155.175781 0)"/>
      <use xlink:href="#DejaVuSans-6e" transform="translate(218.554688 0)"/>
      <use xlink:href="#DejaVuSans-74" transform="translate(281.933594 0)"/>
      <use xlink:href="#DejaVuSans-73" transform="translate(321.142578 0)"/>
      <use xlink:href="#DejaVuSans-5d" transform="translate(373.242188 0)"/>
     </g>
    </g>
   </g>
   <g id="line2d_17">
    <path d="M 68.546307 218.88 
L 76.916307 218.821001 
L 76.916307 218.762002 
L 77.677216 218.762002 
L 77.677216 218.88 
L 79.959943 218.88 
L 79.959943 218.732502 
L 80.720852 218.732502 
L 80.720852 218.437507 
L 83.00358 218.496506 
L 83.00358 218.290009 
L 83.764489 218.290009 
L 83.764489 218.496506 
L 85.286307 218.496506 
L 85.286307 218.349008 
L 86.808125 218.437507 
L 86.808125 218.142511 
L 87.569034 218.142511 
L 87.569034 218.349008 
L 89.090852 218.260509 
L 89.090852 217.906514 
L 89.851761 217.906514 
L 89.851761 217.582019 
L 90.61267 217.582019 
L 90.61267 217.995013 
L 91.37358 217.995013 
L 91.37358 217.847515 
L 92.134489 217.847515 
L 92.134489 217.228025 
L 92.895398 217.228025 
L 92.895398 217.788516 
L 93.656307 217.788516 
L 93.656307 217.139526 
L 94.417216 217.139526 
L 94.417216 217.582019 
L 95.178125 217.582019 
L 95.178125 216.697032 
L 95.939034 216.697032 
L 95.939034 216.402037 
L 96.699943 216.402037 
L 96.699943 216.726532 
L 97.460852 216.726532 
L 97.460852 216.579034 
L 98.221761 216.579034 
L 98.221761 216.372537 
L 98.98267 216.372537 
L 98.98267 215.281054 
L 99.74358 215.281054 
L 99.74358 215.664548 
L 100.504489 215.664548 
L 100.504489 215.192555 
L 101.265398 215.192555 
L 101.265398 213.216084 
L 102.026307 213.216084 
L 102.026307 214.366567 
L 102.787216 214.366567 
L 102.787216 213.363582 
L 103.548125 213.363582 
L 103.548125 211.829605 
L 104.309034 211.829605 
L 104.309034 211.947603 
L 105.069943 211.947603 
L 105.069943 211.003617 
L 105.830852 211.003617 
L 105.830852 209.528639 
L 107.35267 209.49914 
L 107.35267 208.14216 
L 108.11358 208.14216 
L 108.11358 205.929693 
L 108.874489 205.929693 
L 108.874489 204.838209 
L 109.635398 204.838209 
L 109.635398 203.127234 
L 111.157216 203.186234 
L 111.157216 198.200808 
L 111.918125 198.200808 
L 111.918125 195.929342 
L 112.679034 195.929342 
L 112.679034 194.572362 
L 113.439943 194.572362 
L 113.439943 189.763933 
L 114.200852 189.763933 
L 114.200852 186.784478 
L 114.961761 186.784478 
L 114.961761 184.159017 
L 115.72267 184.159017 
L 115.72267 179.409587 
L 116.48358 179.409587 
L 116.48358 175.928639 
L 118.005398 175.987638 
L 118.005398 169.202739 
L 118.766307 169.202739 
L 118.766307 171.002212 
L 119.527216 171.002212 
L 119.527216 164.807305 
L 120.288125 164.807305 
L 120.288125 164.040316 
L 121.049034 164.040316 
L 121.049034 160.795364 
L 121.809943 160.795364 
L 121.809943 154.924952 
L 122.570852 154.924952 
L 122.570852 149.703529 
L 123.331761 149.703529 
L 123.331761 143.390623 
L 124.09267 143.390623 
L 124.09267 140.027673 
L 124.85358 140.027673 
L 124.85358 135.632239 
L 125.614489 135.632239 
L 125.614489 133.714767 
L 126.375398 133.714767 
L 126.375398 129.348832 
L 127.136307 129.348832 
L 127.136307 119.141984 
L 127.897216 119.141984 
L 127.897216 117.018016 
L 128.658125 117.018016 
L 128.658125 113.743565 
L 129.419034 113.743565 
L 129.419034 110.321615 
L 130.179943 110.321615 
L 130.179943 100.203266 
L 130.940852 100.203266 
L 130.940852 94.834346 
L 131.701761 94.834346 
L 131.701761 90.143916 
L 132.46267 90.143916 
L 132.46267 86.013977 
L 133.22358 86.013977 
L 133.22358 82.120035 
L 133.984489 82.120035 
L 133.984489 70.320211 
L 134.745398 70.320211 
L 134.745398 71.205198 
L 135.506307 71.205198 
L 135.506307 70.261212 
L 136.267216 70.261212 
L 136.267216 56.484917 
L 137.028125 56.484917 
L 137.028125 57.694399 
L 137.789034 57.694399 
L 137.789034 53.239965 
L 138.549943 53.239965 
L 138.549943 58.638385 
L 139.310852 58.638385 
L 139.310852 56.24892 
L 140.071761 56.24892 
L 140.071761 37.044706 
L 140.83267 37.044706 
L 140.83267 51.617489 
L 141.59358 51.617489 
L 141.59358 47.871045 
L 142.354489 47.871045 
L 142.354489 49.375522 
L 143.115398 49.375522 
L 143.115398 44.950588 
L 143.876307 44.950588 
L 143.876307 37.310202 
L 144.637216 37.310202 
L 144.637216 43.829605 
L 145.398125 43.829605 
L 145.398125 36.74971 
L 146.159034 36.74971 
L 146.159034 37.103705 
L 146.919943 37.103705 
L 146.919943 36.366216 
L 147.680852 36.366216 
L 147.680852 33.032766 
L 148.441761 33.032766 
L 148.441761 41.056646 
L 149.20267 41.056646 
L 149.20267 31.705285 
L 149.96358 31.705285 
L 149.96358 33.327761 
L 150.724489 33.327761 
L 150.724489 34.06525 
L 151.485398 34.06525 
L 151.485398 36.661212 
L 152.246307 36.661212 
L 152.246307 39.021176 
L 153.007216 39.021176 
L 153.007216 40.171659 
L 153.768125 40.171659 
L 153.768125 38.431185 
L 154.529034 38.431185 
L 154.529034 31.203793 
L 155.289943 31.203793 
L 155.289943 29.109324 
L 156.050852 29.109324 
L 156.050852 32.206778 
L 156.811761 32.206778 
L 156.811761 33.829254 
L 157.57267 33.829254 
L 157.57267 32.324776 
L 158.33358 32.324776 
L 158.33358 17.28 
L 159.094489 17.28 
L 159.094489 39.965162 
L 159.855398 39.965162 
L 159.855398 27.781844 
L 160.616307 27.781844 
L 160.616307 36.602212 
L 161.377216 36.602212 
L 161.377216 39.847164 
L 162.138125 39.847164 
L 162.138125 34.920737 
L 162.899034 34.920737 
L 162.899034 29.197823 
L 163.659943 29.197823 
L 163.659943 32.944267 
L 164.420852 32.944267 
L 164.420852 42.561124 
L 165.181761 42.561124 
L 165.181761 23.858402 
L 165.94267 23.858402 
L 165.94267 32.649271 
L 166.70358 32.649271 
L 166.70358 35.776225 
L 167.464489 35.776225 
L 167.464489 46.484565 
L 168.225398 46.484565 
L 168.225398 41.086146 
L 168.986307 41.086146 
L 168.986307 27.250852 
L 169.747216 27.250852 
L 169.747216 41.853134 
L 170.508125 41.853134 
L 170.508125 41.204144 
L 171.269034 41.204144 
L 171.269034 44.419596 
L 172.029943 44.419596 
L 172.029943 50.555505 
L 172.790852 50.555505 
L 172.790852 57.871396 
L 173.551761 57.871396 
L 173.551761 51.174996 
L 174.31267 51.174996 
L 174.31267 56.602915 
L 175.07358 56.602915 
L 175.07358 62.620825 
L 175.834489 62.620825 
L 175.834489 47.310553 
L 176.595398 47.310553 
L 176.595398 78.285092 
L 177.356307 78.285092 
L 177.356307 63.771308 
L 178.117216 63.771308 
L 178.117216 62.502827 
L 178.878125 62.502827 
L 178.878125 68.225742 
L 179.639034 68.225742 
L 179.639034 63.771308 
L 180.399943 63.771308 
L 180.399943 67.517752 
L 181.160852 67.517752 
L 181.160852 81.382546 
L 181.921761 81.382546 
L 181.921761 73.624162 
L 182.68267 73.624162 
L 182.68267 71.529693 
L 183.44358 71.529693 
L 183.44358 79.022581 
L 184.204489 79.022581 
L 184.204489 77.665601 
L 184.965398 77.665601 
L 184.965398 91.235399 
L 185.726307 91.235399 
L 185.726307 96.515821 
L 186.487216 96.515821 
L 186.487216 88.078946 
L 187.248125 88.078946 
L 187.248125 94.185356 
L 188.009034 94.185356 
L 188.009034 86.367972 
L 188.769943 86.367972 
L 188.769943 94.716348 
L 189.530852 94.716348 
L 189.530852 85.040492 
L 190.291761 85.040492 
L 190.291761 97.25331 
L 191.05267 97.25331 
L 191.05267 94.56885 
L 191.81358 94.56885 
L 191.81358 105.395189 
L 192.574489 105.395189 
L 192.574489 96.250325 
L 193.335398 96.250325 
L 193.335398 109.967621 
L 194.096307 109.967621 
L 194.096307 105.778683 
L 194.857216 105.778683 
L 194.857216 106.280176 
L 195.618125 106.280176 
L 195.618125 108.256646 
L 196.379034 108.256646 
L 196.379034 107.784653 
L 197.139943 107.784653 
L 197.139943 111.206602 
L 197.900852 111.206602 
L 197.900852 106.01468 
L 198.661761 106.01468 
L 198.661761 115.897032 
L 199.42267 115.897032 
L 199.42267 106.929166 
L 200.18358 106.929166 
L 200.18358 118.522493 
L 200.944489 118.522493 
L 200.944489 113.330571 
L 201.705398 113.330571 
L 201.705398 116.310026 
L 202.466307 116.310026 
L 202.466307 126.103881 
L 203.227216 126.103881 
L 203.227216 117.136014 
L 203.988125 117.136014 
L 203.988125 123.271923 
L 204.749034 123.271923 
L 204.749034 125.425391 
L 205.509943 125.425391 
L 205.509943 118.610992 
L 206.270852 118.610992 
L 206.270852 128.257349 
L 207.031761 128.257349 
L 207.031761 130.794311 
L 207.79267 130.794311 
L 207.79267 124.717401 
L 208.55358 124.717401 
L 208.55358 129.643828 
L 209.314489 129.643828 
L 209.314489 126.782371 
L 210.075398 126.782371 
L 210.075398 124.274908 
L 210.836307 124.274908 
L 210.836307 133.832766 
L 211.597216 133.832766 
L 211.597216 125.956383 
L 212.358125 125.956383 
L 212.358125 139.703178 
L 213.119034 139.703178 
L 213.119034 134.570255 
L 213.879943 134.570255 
L 213.879943 136.812221 
L 214.640852 136.812221 
L 214.640852 135.307744 
L 215.401761 135.307744 
L 215.401761 143.272625 
L 216.16267 143.272625 
L 216.16267 133.419772 
L 216.92358 133.419772 
L 216.92358 147.314065 
L 217.684489 147.314065 
L 217.684489 133.50827 
L 218.445398 133.50827 
L 218.445398 142.977629 
L 219.206307 142.977629 
L 219.206307 139.968674 
L 219.967216 139.968674 
L 219.967216 143.272625 
L 220.728125 143.272625 
L 220.728125 147.579561 
L 221.489034 147.579561 
L 221.489034 148.730044 
L 222.249943 148.730044 
L 222.249943 144.9836 
L 223.010852 144.9836 
L 223.010852 153.921967 
L 223.771761 153.921967 
L 223.771761 146.045584 
L 224.53267 146.045584 
L 224.53267 151.060509 
L 225.29358 151.060509 
L 225.29358 148.877542 
L 226.054489 148.877542 
L 226.054489 150.854012 
L 226.815398 150.854012 
L 226.815398 161.149359 
L 227.576307 161.149359 
L 227.576307 152.299491 
L 228.337216 152.299491 
L 228.337216 147.992555 
L 229.098125 147.992555 
L 229.098125 155.308446 
L 229.859034 155.308446 
L 229.859034 155.190448 
L 230.619943 155.190448 
L 230.619943 151.827498 
L 231.380852 151.827498 
L 231.380852 160.087375 
L 232.141761 160.087375 
L 232.141761 155.101949 
L 232.90267 155.101949 
L 232.90267 162.506339 
L 233.66358 162.506339 
L 233.66358 160.824864 
L 234.424489 160.824864 
L 234.424489 160.706866 
L 235.946307 160.795364 
L 235.946307 158.995891 
L 236.707216 158.995891 
L 236.707216 166.252783 
L 237.468125 166.252783 
L 237.468125 156.016435 
L 238.229034 156.016435 
L 238.229034 167.550764 
L 238.989943 167.550764 
L 238.989943 158.110904 
L 239.750852 158.110904 
L 239.750852 170.825215 
L 240.511761 170.825215 
L 240.511761 164.040316 
L 241.27267 164.040316 
L 241.27267 166.695277 
L 242.03358 166.695277 
L 242.03358 168.819245 
L 242.794489 168.819245 
L 242.794489 163.981317 
L 243.555398 163.981317 
L 243.555398 169.733731 
L 244.316307 169.733731 
L 244.316307 170.50072 
L 245.077216 170.50072 
L 245.077216 172.211694 
L 245.838125 172.211694 
L 245.838125 173.21468 
L 246.599034 173.21468 
L 246.599034 166.518279 
L 247.359943 166.518279 
L 247.359943 172.152695 
L 248.120852 172.152695 
L 248.120852 173.539175 
L 248.881761 173.539175 
L 248.881761 170.736716 
L 249.64267 170.736716 
L 249.64267 176.489131 
L 250.40358 176.489131 
L 250.40358 172.683687 
L 251.164489 172.683687 
L 251.164489 179.409587 
L 251.925398 179.409587 
L 251.925398 181.533556 
L 252.686307 181.533556 
L 252.686307 173.627673 
L 253.447216 173.627673 
L 253.447216 180.884565 
L 254.208125 180.884565 
L 254.208125 179.468586 
L 254.969034 179.468586 
L 254.969034 181.002564 
L 255.729943 181.002564 
L 255.729943 182.330044 
L 256.490852 182.330044 
L 256.490852 185.397998 
L 257.251761 185.397998 
L 257.251761 186.371484 
L 258.01267 186.371484 
L 258.01267 181.88755 
L 258.77358 181.88755 
L 258.77358 188.377454 
L 259.534489 188.377454 
L 259.534489 187.403968 
L 260.295398 187.403968 
L 260.295398 190.235926 
L 261.056307 190.235926 
L 261.056307 192.979385 
L 261.817216 192.979385 
L 261.817216 185.103003 
L 262.578125 185.103003 
L 262.578125 190.766918 
L 263.339034 190.766918 
L 263.339034 194.71986 
L 264.099943 194.71986 
L 264.099943 190.766918 
L 264.860852 190.766918 
L 264.860852 193.303881 
L 265.621761 193.303881 
L 265.621761 194.513363 
L 266.38267 194.513363 
L 266.38267 194.71986 
L 267.14358 194.71986 
L 267.14358 195.36885 
L 267.904489 195.36885 
L 267.904489 194.395364 
L 268.665398 194.395364 
L 268.665398 196.666831 
L 269.426307 196.666831 
L 269.426307 199.734785 
L 270.187216 199.734785 
L 270.187216 198.082809 
L 271.709034 197.994311 
L 271.709034 197.138824 
L 272.469943 197.138824 
L 272.469943 200.118279 
L 273.230852 200.118279 
L 273.230852 200.796769 
L 273.991761 200.796769 
L 273.991761 196.578332 
L 274.75267 196.578332 
L 274.75267 202.861738 
L 275.51358 202.861738 
L 275.51358 206.195189 
L 276.274489 206.195189 
L 276.274489 201.239263 
L 277.035398 201.239263 
L 277.035398 202.950237 
L 277.796307 202.950237 
L 277.796307 203.540228 
L 279.318125 203.599227 
L 279.318125 206.578683 
L 280.079034 206.578683 
L 280.079034 203.245233 
L 280.839943 203.245233 
L 280.839943 206.342687 
L 283.12267 206.283687 
L 283.12267 206.608183 
L 283.88358 206.608183 
L 283.88358 209.49914 
L 284.644489 209.49914 
L 284.644489 208.230658 
L 285.405398 208.230658 
L 285.405398 207.375171 
L 286.166307 207.375171 
L 286.166307 210.885619 
L 286.927216 210.885619 
L 286.927216 207.640667 
L 287.688125 207.640667 
L 287.688125 210.384126 
L 288.449034 210.384126 
L 288.449034 210.915119 
L 289.209943 210.915119 
L 289.209943 211.062616 
L 289.970852 211.062616 
L 289.970852 210.059631 
L 290.731761 210.059631 
L 290.731761 211.741106 
L 291.49267 211.741106 
L 291.49267 211.859104 
L 292.25358 211.859104 
L 292.25358 212.980088 
L 293.014489 212.980088 
L 293.014489 212.567094 
L 294.536307 212.626093 
L 294.536307 213.039087 
L 295.297216 213.039087 
L 295.297216 214.691062 
L 296.058125 214.691062 
L 296.058125 214.366567 
L 296.819034 214.366567 
L 296.819034 214.219069 
L 297.579943 214.219069 
L 297.579943 214.455066 
L 298.340852 214.455066 
L 298.340852 215.133556 
L 299.101761 215.133556 
L 299.101761 215.694047 
L 299.86267 215.694047 
L 299.86267 214.779561 
L 300.62358 214.779561 
L 300.62358 216.284039 
L 301.384489 216.284039 
L 301.384489 215.989043 
L 302.145398 215.989043 
L 302.145398 216.431536 
L 302.906307 216.431536 
L 302.906307 217.080527 
L 305.189034 217.169025 
L 305.189034 217.405022 
L 305.949943 217.405022 
L 305.949943 217.788516 
L 306.710852 217.788516 
L 306.710852 217.936014 
L 308.99358 218.024513 
L 308.99358 218.437507 
L 309.754489 218.437507 
L 309.754489 218.614504 
L 310.515398 218.614504 
L 310.515398 218.437507 
L 312.037216 218.526005 
L 312.037216 218.791501 
L 372.909943 218.88 
L 372.909943 218.88 
" clip-path="url(#pc0cd553de9)" style="fill: none; stroke: #1f77b4; stroke-width: 1.5; stroke-linecap: square"/>
   </g>
   <g id="line2d_18">
    <path d="M 68.546307 218.88 
L 80.720852 218.791501 
L 80.720852 218.467006 
L 82.24267 218.526005 
L 82.24267 218.260509 
L 83.764489 218.260509 
L 83.764489 218.614504 
L 84.525398 218.614504 
L 84.525398 218.378507 
L 86.047216 218.408007 
L 86.047216 218.496506 
L 86.808125 218.496506 
L 86.808125 218.319508 
L 88.329943 218.260509 
L 88.329943 217.906514 
L 89.851761 217.847515 
L 89.851761 218.172011 
L 90.61267 218.172011 
L 90.61267 217.464021 
L 91.37358 217.464021 
L 91.37358 217.788516 
L 92.895398 217.729517 
L 92.895398 217.670518 
L 93.656307 217.670518 
L 93.656307 217.169025 
L 94.417216 217.169025 
L 94.417216 217.287024 
L 95.178125 217.287024 
L 95.178125 216.284039 
L 95.939034 216.284039 
L 95.939034 216.785531 
L 96.699943 216.785531 
L 96.699943 216.933029 
L 97.460852 216.933029 
L 97.460852 216.490536 
L 98.221761 216.490536 
L 98.221761 216.018543 
L 98.98267 216.018543 
L 98.98267 215.369552 
L 99.74358 215.369552 
L 99.74358 214.720562 
L 100.504489 214.720562 
L 100.504489 215.54655 
L 101.265398 215.54655 
L 101.265398 214.750061 
L 102.026307 214.750061 
L 102.026307 212.83259 
L 102.787216 212.83259 
L 102.787216 213.422581 
L 103.548125 213.422581 
L 103.548125 212.655593 
L 104.309034 212.655593 
L 104.309034 211.770606 
L 105.069943 211.770606 
L 105.069943 210.443126 
L 105.830852 210.443126 
L 105.830852 210.561124 
L 106.591761 210.561124 
L 106.591761 208.437155 
L 107.35267 208.437155 
L 107.35267 207.43417 
L 108.11358 207.43417 
L 108.11358 207.198174 
L 108.874489 207.198174 
L 108.874489 205.133205 
L 109.635398 205.133205 
L 109.635398 202.271747 
L 110.396307 202.271747 
L 110.396307 201.711255 
L 111.157216 201.711255 
L 111.157216 199.233292 
L 111.918125 199.233292 
L 111.918125 196.106339 
L 112.679034 196.106339 
L 112.679034 194.306866 
L 113.439943 194.306866 
L 113.439943 189.645935 
L 114.200852 189.645935 
L 114.200852 186.489482 
L 114.961761 186.489482 
L 114.961761 183.185531 
L 115.72267 183.185531 
L 115.72267 179.173591 
L 116.48358 179.173591 
L 116.48358 177.639614 
L 117.244489 177.639614 
L 117.244489 177.344618 
L 118.005398 177.344618 
L 118.005398 171.444706 
L 118.766307 171.444706 
L 118.766307 165.751291 
L 119.527216 165.751291 
L 119.527216 165.397296 
L 120.288125 165.397296 
L 120.288125 163.863319 
L 121.049034 163.863319 
L 121.049034 156.842423 
L 121.809943 156.842423 
L 121.809943 155.780439 
L 122.570852 155.780439 
L 122.570852 151.6505 
L 123.331761 151.6505 
L 123.331761 143.656119 
L 124.09267 143.656119 
L 124.09267 139.142687 
L 124.85358 139.142687 
L 124.85358 135.779737 
L 125.614489 135.779737 
L 125.614489 132.88878 
L 126.375398 132.88878 
L 126.375398 123.006427 
L 127.136307 123.006427 
L 127.136307 123.773415 
L 127.897216 123.773415 
L 127.897216 117.224513 
L 128.658125 117.224513 
L 128.658125 110.764109 
L 129.419034 110.764109 
L 129.419034 109.967621 
L 130.179943 109.967621 
L 130.179943 102.62223 
L 130.940852 102.62223 
L 130.940852 96.60432 
L 131.701761 96.60432 
L 131.701761 87.724952 
L 132.46267 87.724952 
L 132.46267 83.772011 
L 133.22358 83.772011 
L 133.22358 83.211519 
L 133.984489 83.211519 
L 133.984489 72.149183 
L 134.745398 72.149183 
L 134.745398 71.795189 
L 135.506307 71.795189 
L 135.506307 61.61784 
L 136.267216 61.61784 
L 136.267216 58.313889 
L 137.028125 58.313889 
L 137.028125 57.399403 
L 137.789034 57.399403 
L 137.789034 58.461387 
L 138.549943 58.461387 
L 138.549943 49.906514 
L 139.310852 49.906514 
L 139.310852 53.505461 
L 140.83267 53.53496 
L 140.83267 49.788516 
L 141.59358 49.788516 
L 141.59358 42.767621 
L 142.354489 42.767621 
L 142.354489 46.248569 
L 143.115398 46.248569 
L 143.115398 47.458051 
L 143.876307 47.458051 
L 143.876307 41.233644 
L 144.637216 41.233644 
L 144.637216 38.667182 
L 145.398125 38.667182 
L 145.398125 34.06525 
L 146.159034 34.06525 
L 146.159034 36.189219 
L 146.919943 36.189219 
L 146.919943 37.074205 
L 147.680852 37.074205 
L 147.680852 36.808709 
L 148.441761 36.808709 
L 148.441761 31.823284 
L 149.20267 31.823284 
L 149.20267 38.254188 
L 149.96358 38.254188 
L 149.96358 31.321791 
L 150.724489 31.321791 
L 150.724489 38.608183 
L 151.485398 38.608183 
L 151.485398 35.333731 
L 152.246307 35.333731 
L 152.246307 42.620123 
L 153.007216 42.620123 
L 153.007216 36.041721 
L 153.768125 36.041721 
L 153.768125 26.247867 
L 154.529034 26.247867 
L 154.529034 46.573064 
L 155.289943 46.573064 
L 155.289943 30.05331 
L 156.050852 30.05331 
L 156.050852 21.468938 
L 156.811761 21.468938 
L 156.811761 33.41626 
L 157.57267 33.41626 
L 157.57267 30.7318 
L 158.33358 30.7318 
L 158.33358 36.808709 
L 159.094489 36.808709 
L 159.094489 36.218718 
L 159.855398 36.218718 
L 159.855398 28.489833 
L 160.616307 28.489833 
L 160.616307 36.808709 
L 161.377216 36.808709 
L 161.377216 41.971133 
L 162.138125 41.971133 
L 162.138125 28.401335 
L 162.899034 28.401335 
L 162.899034 38.460685 
L 163.659943 38.460685 
L 163.659943 27.958841 
L 164.420852 27.958841 
L 164.420852 36.041721 
L 165.181761 36.041721 
L 165.181761 34.124249 
L 165.94267 34.124249 
L 165.94267 39.817665 
L 166.70358 39.817665 
L 166.70358 37.752695 
L 167.464489 37.752695 
L 167.464489 29.463319 
L 168.225398 29.463319 
L 168.225398 33.475259 
L 168.986307 33.475259 
L 168.986307 48.343038 
L 169.747216 48.343038 
L 169.747216 45.068586 
L 170.508125 45.068586 
L 170.508125 45.983073 
L 171.269034 45.983073 
L 171.269034 54.124952 
L 172.029943 54.124952 
L 172.029943 42.620123 
L 172.790852 42.620123 
L 172.790852 46.691062 
L 173.551761 46.691062 
L 173.551761 57.399403 
L 174.31267 57.399403 
L 174.31267 54.478946 
L 175.07358 54.478946 
L 175.07358 61.706339 
L 175.834489 61.706339 
L 175.834489 52.944969 
L 176.595398 52.944969 
L 176.595398 65.511782 
L 177.356307 65.511782 
L 177.356307 64.803793 
L 178.117216 64.803793 
L 178.117216 67.66525 
L 178.878125 67.66525 
L 178.878125 71.411694 
L 179.639034 71.411694 
L 179.639034 70.438209 
L 180.399943 70.438209 
L 180.399943 78.580088 
L 181.160852 78.580088 
L 181.160852 69.523723 
L 181.921761 69.523723 
L 181.921761 62.001335 
L 182.68267 62.001335 
L 182.68267 73.71266 
L 183.44358 73.71266 
L 183.44358 89.19993 
L 184.204489 89.19993 
L 184.204489 80.940053 
L 184.965398 80.940053 
L 184.965398 82.120035 
L 185.726307 82.120035 
L 185.726307 91.353398 
L 186.487216 91.353398 
L 186.487216 81.294047 
L 187.248125 81.294047 
L 187.248125 95.158841 
L 188.009034 95.158841 
L 188.009034 89.819421 
L 188.769943 89.819421 
L 188.769943 98.138297 
L 189.530852 98.138297 
L 189.530852 92.710378 
L 190.291761 92.710378 
L 190.291761 97.312309 
L 191.05267 97.312309 
L 191.05267 96.633819 
L 191.81358 96.633819 
L 191.81358 95.571835 
L 192.574489 95.571835 
L 192.574489 99.878771 
L 193.335398 99.878771 
L 193.335398 106.752169 
L 194.096307 106.752169 
L 194.096307 111.236102 
L 194.857216 111.236102 
L 194.857216 105.778683 
L 195.618125 105.778683 
L 195.618125 100.203266 
L 196.379034 100.203266 
L 196.379034 107.047164 
L 197.139943 107.047164 
L 197.139943 111.737594 
L 197.900852 111.737594 
L 197.900852 117.047515 
L 198.661761 117.047515 
L 198.661761 109.643126 
L 199.42267 109.643126 
L 199.42267 110.292116 
L 200.18358 110.292116 
L 200.18358 111.944091 
L 200.944489 111.944091 
L 200.944489 114.215558 
L 201.705398 114.215558 
L 201.705398 123.065426 
L 202.466307 123.065426 
L 202.466307 121.885443 
L 203.227216 121.885443 
L 203.227216 117.667006 
L 203.988125 117.667006 
L 203.988125 115.867533 
L 204.749034 115.867533 
L 204.749034 122.77043 
L 205.509943 122.77043 
L 205.509943 129.850325 
L 206.270852 129.850325 
L 206.270852 124.835399 
L 207.031761 124.835399 
L 207.031761 128.935838 
L 207.79267 128.935838 
L 207.79267 119.053486 
L 208.55358 119.053486 
L 208.55358 124.274908 
L 209.314489 124.274908 
L 209.314489 135.54374 
L 210.075398 135.54374 
L 210.075398 130.912309 
L 210.836307 130.912309 
L 210.836307 127.637858 
L 211.597216 127.637858 
L 211.597216 137.048218 
L 212.358125 137.048218 
L 212.358125 133.449271 
L 213.119034 133.449271 
L 213.119034 130.440316 
L 213.879943 130.440316 
L 213.879943 142.505637 
L 214.640852 142.505637 
L 214.640852 127.844355 
L 215.401761 127.844355 
L 215.401761 143.125127 
L 216.16267 143.125127 
L 216.16267 140.647164 
L 216.92358 140.647164 
L 216.92358 136.074732 
L 217.684489 136.074732 
L 217.684489 137.57921 
L 218.445398 137.57921 
L 218.445398 144.747603 
L 219.206307 144.747603 
L 219.206307 145.160597 
L 219.967216 145.160597 
L 219.967216 144.629605 
L 220.728125 144.629605 
L 220.728125 145.898086 
L 221.489034 145.898086 
L 221.489034 141.060158 
L 222.249943 141.060158 
L 222.249943 153.479473 
L 223.010852 153.479473 
L 223.010852 145.839087 
L 223.771761 145.839087 
L 223.771761 148.641545 
L 224.53267 148.641545 
L 224.53267 145.60309 
L 225.29358 145.60309 
L 225.29358 157.520913 
L 226.054489 157.520913 
L 226.054489 149.762529 
L 226.815398 149.762529 
L 226.815398 156.134434 
L 227.576307 156.134434 
L 227.576307 151.6505 
L 228.337216 151.6505 
L 228.337216 155.573942 
L 229.098125 155.573942 
L 229.098125 157.284917 
L 229.859034 157.284917 
L 229.859034 151.974996 
L 230.619943 151.974996 
L 230.619943 150.972011 
L 231.380852 150.972011 
L 231.380852 154.098964 
L 232.141761 154.098964 
L 232.141761 162.240843 
L 232.90267 162.240843 
L 232.90267 160.913363 
L 233.66358 160.913363 
L 233.66358 159.113889 
L 234.424489 159.113889 
L 234.424489 162.270342 
L 235.185398 162.270342 
L 235.185398 160.234873 
L 235.946307 160.234873 
L 235.946307 159.290887 
L 236.707216 159.290887 
L 236.707216 161.621352 
L 237.468125 161.621352 
L 237.468125 159.998876 
L 238.229034 159.998876 
L 238.229034 166.695277 
L 238.989943 166.695277 
L 238.989943 159.939877 
L 239.750852 159.939877 
L 239.750852 169.409236 
L 240.511761 169.409236 
L 240.511761 163.74532 
L 241.27267 163.74532 
L 241.27267 165.426795 
L 242.03358 165.426795 
L 242.03358 169.674732 
L 242.794489 169.674732 
L 242.794489 168.789745 
L 243.555398 168.789745 
L 243.555398 166.164284 
L 244.316307 166.164284 
L 244.316307 173.067182 
L 245.077216 173.067182 
L 245.077216 166.990272 
L 245.838125 166.990272 
L 245.838125 173.21468 
L 246.599034 173.21468 
L 246.599034 171.120211 
L 247.359943 171.120211 
L 247.359943 175.456646 
L 248.120852 175.456646 
L 248.120852 167.285268 
L 248.881761 167.285268 
L 248.881761 175.250149 
L 249.64267 175.250149 
L 249.64267 174.54216 
L 250.40358 174.54216 
L 250.40358 173.21468 
L 251.164489 173.21468 
L 251.164489 177.492116 
L 251.925398 177.492116 
L 251.925398 178.760597 
L 252.686307 178.760597 
L 252.686307 177.757612 
L 253.447216 177.757612 
L 253.447216 179.852081 
L 254.208125 179.852081 
L 254.208125 181.94655 
L 254.969034 181.94655 
L 254.969034 182.536541 
L 255.729943 182.536541 
L 255.729943 178.642599 
L 256.490852 178.642599 
L 256.490852 187.521967 
L 257.251761 187.521967 
L 257.251761 183.421528 
L 258.01267 183.421528 
L 258.01267 182.831536 
L 258.77358 182.831536 
L 258.77358 191.268411 
L 259.534489 191.268411 
L 259.534489 184.159017 
L 260.295398 184.159017 
L 260.295398 190.914416 
L 261.056307 190.914416 
L 261.056307 189.940931 
L 261.817216 189.940931 
L 261.817216 188.996945 
L 262.578125 188.996945 
L 262.578125 191.032414 
L 263.339034 191.032414 
L 263.339034 190.206427 
L 264.099943 190.206427 
L 264.099943 195.457349 
L 264.860852 195.457349 
L 264.860852 191.120913 
L 265.621761 191.120913 
L 265.621761 196.106339 
L 266.38267 196.106339 
L 266.38267 190.766918 
L 267.14358 190.766918 
L 267.14358 197.492818 
L 267.904489 197.492818 
L 267.904489 193.156383 
L 268.665398 193.156383 
L 268.665398 199.764284 
L 269.426307 199.764284 
L 269.426307 196.69633 
L 270.187216 196.69633 
L 270.187216 199.351291 
L 270.948125 199.351291 
L 270.948125 197.37482 
L 271.709034 197.37482 
L 271.709034 196.72583 
L 272.469943 196.72583 
L 272.469943 199.41029 
L 273.230852 199.41029 
L 273.230852 198.407305 
L 273.991761 198.407305 
L 273.991761 201.41626 
L 274.75267 201.41626 
L 274.75267 201.534258 
L 275.51358 201.534258 
L 275.51358 203.156734 
L 276.274489 203.156734 
L 276.274489 204.74971 
L 277.035398 204.74971 
L 277.035398 201.917752 
L 277.796307 201.917752 
L 277.796307 205.605198 
L 278.557216 205.605198 
L 278.557216 200.619772 
L 279.318125 200.619772 
L 279.318125 205.929693 
L 280.079034 205.929693 
L 280.079034 205.221703 
L 280.839943 205.221703 
L 280.839943 206.519684 
L 281.600852 206.519684 
L 281.600852 205.015206 
L 282.361761 205.015206 
L 282.361761 206.549183 
L 283.12267 206.549183 
L 283.12267 207.581668 
L 283.88358 207.581668 
L 283.88358 207.965162 
L 285.405398 208.024162 
L 285.405398 208.378156 
L 286.166307 208.378156 
L 286.166307 208.14216 
L 286.927216 208.14216 
L 286.927216 210.82662 
L 287.688125 210.82662 
L 287.688125 209.823635 
L 288.449034 209.823635 
L 288.449034 209.587638 
L 289.209943 209.587638 
L 289.209943 211.357612 
L 289.970852 211.357612 
L 289.970852 210.885619 
L 290.731761 210.885619 
L 290.731761 211.623108 
L 291.49267 211.623108 
L 291.49267 211.328112 
L 292.25358 211.328112 
L 292.25358 212.537594 
L 293.014489 212.537594 
L 293.014489 212.655593 
L 294.536307 212.567094 
L 294.536307 214.101071 
L 295.297216 214.101071 
L 295.297216 212.950588 
L 296.058125 212.950588 
L 296.058125 215.251554 
L 296.819034 215.251554 
L 296.819034 214.366567 
L 297.579943 214.366567 
L 297.579943 214.543565 
L 299.101761 214.573064 
L 299.101761 215.753047 
L 299.86267 215.753047 
L 299.86267 215.281054 
L 300.62358 215.281054 
L 300.62358 215.635048 
L 301.384489 215.635048 
L 301.384489 216.402037 
L 302.145398 216.402037 
L 302.145398 216.520035 
L 302.906307 216.520035 
L 302.906307 216.903529 
L 303.667216 216.903529 
L 303.667216 217.346023 
L 304.428125 217.346023 
L 304.428125 217.021528 
L 305.189034 217.021528 
L 305.189034 217.405022 
L 305.949943 217.405022 
L 305.949943 217.52302 
L 306.710852 217.52302 
L 306.710852 218.172011 
L 307.471761 218.172011 
L 307.471761 217.995013 
L 308.23267 217.995013 
L 308.23267 218.113011 
L 308.99358 218.113011 
L 308.99358 218.319508 
L 309.754489 218.319508 
L 309.754489 218.555505 
L 312.037216 218.496506 
L 312.037216 218.8505 
L 372.909943 218.88 
L 372.909943 218.88 
" clip-path="url(#pc0cd553de9)" style="fill: none; stroke: #ff7f0e; stroke-width: 1.5; stroke-linecap: square"/>
   </g>
   <g id="line2d_19">
    <path d="M 68.546307 218.88 
L 74.63358 218.88 
L 74.63358 218.703003 
L 75.394489 218.703003 
L 75.394489 218.821001 
L 77.677216 218.88 
L 77.677216 218.673503 
L 79.199034 218.732502 
L 79.199034 218.791501 
L 80.720852 218.762002 
L 80.720852 218.555505 
L 82.24267 218.467006 
L 82.24267 218.290009 
L 83.764489 218.349008 
L 83.764489 218.437507 
L 85.286307 218.378507 
L 85.286307 218.555505 
L 86.047216 218.555505 
L 86.047216 218.408007 
L 87.569034 218.378507 
L 87.569034 218.113011 
L 89.090852 218.20151 
L 89.090852 217.582019 
L 89.851761 217.582019 
L 89.851761 217.700018 
L 90.61267 217.700018 
L 90.61267 217.965514 
L 92.134489 217.936014 
L 92.134489 217.641018 
L 93.656307 217.641018 
L 93.656307 217.051027 
L 94.417216 217.051027 
L 94.417216 216.903529 
L 95.178125 216.903529 
L 95.178125 217.169025 
L 95.939034 217.169025 
L 95.939034 216.579034 
L 97.460852 216.520035 
L 97.460852 215.959543 
L 98.221761 215.959543 
L 98.221761 216.136541 
L 98.98267 216.136541 
L 98.98267 215.694047 
L 99.74358 215.694047 
L 99.74358 215.51705 
L 100.504489 215.51705 
L 100.504489 214.809061 
L 101.265398 214.809061 
L 101.265398 214.514065 
L 102.026307 214.514065 
L 102.026307 213.806076 
L 102.787216 213.806076 
L 102.787216 213.452081 
L 103.548125 213.452081 
L 103.548125 212.1541 
L 104.309034 212.1541 
L 104.309034 211.210114 
L 105.069943 211.210114 
L 105.069943 210.885619 
L 105.830852 210.885619 
L 105.830852 209.853134 
L 106.591761 209.853134 
L 106.591761 208.997647 
L 107.35267 208.997647 
L 107.35267 208.584653 
L 108.11358 208.584653 
L 108.11358 205.959192 
L 108.874489 205.959192 
L 108.874489 204.926708 
L 109.635398 204.926708 
L 109.635398 202.448745 
L 110.396307 202.448745 
L 110.396307 201.209763 
L 111.157216 201.209763 
L 111.157216 198.790799 
L 111.918125 198.790799 
L 111.918125 196.430834 
L 112.679034 196.430834 
L 112.679034 193.746374 
L 113.439943 193.746374 
L 113.439943 190.088428 
L 114.200852 190.088428 
L 114.200852 186.282985 
L 114.961761 186.282985 
L 114.961761 183.156032 
L 115.72267 183.156032 
L 115.72267 180.825566 
L 116.48358 180.825566 
L 116.48358 179.173591 
L 117.244489 179.173591 
L 117.244489 174.955154 
L 118.005398 174.955154 
L 118.005398 171.887199 
L 118.766307 171.887199 
L 118.766307 165.78079 
L 119.527216 165.78079 
L 119.527216 163.538824 
L 120.288125 163.538824 
L 120.288125 162.624337 
L 121.049034 162.624337 
L 121.049034 158.966392 
L 121.809943 158.966392 
L 121.809943 153.184478 
L 122.570852 153.184478 
L 122.570852 149.851027 
L 123.331761 149.851027 
L 123.331761 146.871572 
L 124.09267 146.871572 
L 124.09267 139.054188 
L 124.85358 139.054188 
L 124.85358 133.626269 
L 125.614489 133.626269 
L 125.614489 132.21029 
L 126.375398 132.21029 
L 126.375398 125.897384 
L 127.136307 125.897384 
L 127.136307 122.504934 
L 127.897216 122.504934 
L 127.897216 117.077015 
L 128.658125 117.077015 
L 128.658125 110.793608 
L 129.419034 110.793608 
L 129.419034 107.843652 
L 130.179943 107.843652 
L 130.179943 101.26525 
L 130.940852 101.26525 
L 130.940852 98.403793 
L 131.701761 98.403793 
L 131.701761 90.055417 
L 132.46267 90.055417 
L 132.46267 85.80748 
L 133.22358 85.80748 
L 133.22358 79.494574 
L 133.984489 79.494574 
L 133.984489 74.302651 
L 134.745398 74.302651 
L 134.745398 68.491238 
L 135.506307 68.491238 
L 135.506307 61.204846 
L 136.267216 61.204846 
L 136.267216 59.434873 
L 137.028125 59.434873 
L 137.028125 58.903881 
L 137.789034 58.903881 
L 137.789034 54.714943 
L 138.549943 54.714943 
L 138.549943 50.88 
L 139.310852 50.88 
L 139.310852 53.652959 
L 140.071761 53.652959 
L 140.071761 54.419947 
L 140.83267 54.419947 
L 140.83267 47.930044 
L 141.59358 47.930044 
L 141.59358 46.396067 
L 142.354489 46.396067 
L 142.354489 45.127586 
L 143.115398 45.127586 
L 143.115398 44.213099 
L 143.876307 44.213099 
L 143.876307 37.723196 
L 144.637216 37.723196 
L 144.637216 38.81468 
L 145.398125 38.81468 
L 145.398125 36.74971 
L 146.159034 36.74971 
L 146.159034 35.274732 
L 146.919943 35.274732 
L 146.919943 37.4577 
L 147.680852 37.4577 
L 147.680852 36.454715 
L 149.20267 36.395716 
L 149.20267 35.097735 
L 149.96358 35.097735 
L 149.96358 34.861738 
L 150.724489 34.861738 
L 150.724489 33.327761 
L 151.485398 33.327761 
L 151.485398 35.658227 
L 152.246307 35.658227 
L 152.246307 37.664197 
L 153.768125 37.723196 
L 153.768125 34.74374 
L 154.529034 34.74374 
L 154.529034 32.206778 
L 155.289943 32.206778 
L 155.289943 34.035751 
L 156.050852 34.035751 
L 156.050852 32.472274 
L 156.811761 32.472274 
L 156.811761 33.829254 
L 157.57267 33.829254 
L 157.57267 32.295277 
L 158.33358 32.295277 
L 158.33358 33.445759 
L 159.094489 33.445759 
L 159.094489 32.324776 
L 159.855398 32.324776 
L 159.855398 36.985707 
L 160.616307 36.985707 
L 160.616307 33.858753 
L 161.377216 33.858753 
L 161.377216 38.047691 
L 162.138125 38.047691 
L 162.138125 31.115294 
L 162.899034 31.115294 
L 162.899034 32.000281 
L 163.659943 32.000281 
L 163.659943 36.189219 
L 164.420852 36.189219 
L 164.420852 31.203793 
L 165.181761 31.203793 
L 165.181761 37.398701 
L 165.94267 37.398701 
L 165.94267 35.215733 
L 166.70358 35.215733 
L 166.70358 37.280702 
L 167.464489 37.280702 
L 167.464489 41.941633 
L 168.225398 41.941633 
L 168.225398 41.056646 
L 168.986307 41.056646 
L 168.986307 40.673152 
L 169.747216 40.673152 
L 169.747216 41.528639 
L 170.508125 41.528639 
L 170.508125 45.983073 
L 171.269034 45.983073 
L 171.269034 43.534609 
L 172.029943 43.534609 
L 172.029943 53.092467 
L 172.790852 53.092467 
L 172.790852 51.941984 
L 173.551761 51.941984 
L 173.551761 54.596945 
L 174.31267 54.596945 
L 174.31267 52.059982 
L 175.07358 52.059982 
L 175.07358 56.425917 
L 175.834489 56.425917 
L 175.834489 65.68878 
L 176.595398 65.68878 
L 176.595398 62.266831 
L 177.356307 62.266831 
L 177.356307 64.420299 
L 178.117216 64.420299 
L 178.117216 67.311255 
L 178.878125 67.311255 
L 178.878125 69.228727 
L 179.639034 69.228727 
L 179.639034 70.821703 
L 180.399943 70.821703 
L 180.399943 74.892643 
L 181.160852 74.892643 
L 181.160852 74.568147 
L 181.921761 74.568147 
L 181.921761 75.807129 
L 182.68267 75.807129 
L 182.68267 79.583073 
L 183.44358 79.583073 
L 183.44358 73.004671 
L 184.204489 73.004671 
L 184.204489 85.305988 
L 184.965398 85.305988 
L 184.965398 84.5095 
L 185.726307 84.5095 
L 185.726307 83.211519 
L 186.487216 83.211519 
L 186.487216 87.223459 
L 187.248125 87.223459 
L 187.248125 88.727937 
L 188.009034 88.727937 
L 188.009034 90.409412 
L 188.769943 90.409412 
L 188.769943 94.332853 
L 189.530852 94.332853 
L 189.530852 96.250325 
L 190.291761 96.250325 
L 190.291761 96.899315 
L 191.05267 96.899315 
L 191.05267 96.60432 
L 191.81358 96.60432 
L 191.81358 98.757788 
L 192.574489 98.757788 
L 192.574489 101.176752 
L 193.335398 101.176752 
L 193.335398 103.595716 
L 194.096307 103.595716 
L 194.096307 99.878771 
L 194.857216 99.878771 
L 194.857216 106.66367 
L 195.618125 106.66367 
L 195.618125 107.371659 
L 196.379034 107.371659 
L 196.379034 109.702125 
L 197.139943 109.702125 
L 197.139943 109.820123 
L 197.900852 109.820123 
L 197.900852 109.289131 
L 198.661761 109.289131 
L 198.661761 114.009061 
L 199.42267 114.009061 
L 199.42267 116.870518 
L 200.18358 116.870518 
L 200.18358 110.351115 
L 200.944489 110.351115 
L 200.944489 113.537068 
L 201.705398 113.537068 
L 201.705398 118.286497 
L 202.466307 118.286497 
L 202.466307 118.640492 
L 203.227216 118.640492 
L 203.227216 121.324952 
L 203.988125 121.324952 
L 203.988125 123.183424 
L 204.749034 123.183424 
L 204.749034 121.47245 
L 205.509943 121.47245 
L 205.509943 123.006427 
L 206.270852 123.006427 
L 206.270852 127.136365 
L 207.031761 127.136365 
L 207.031761 121.678946 
L 207.79267 121.678946 
L 207.79267 127.136365 
L 208.55358 127.136365 
L 208.55358 126.988867 
L 209.314489 126.988867 
L 209.314489 129.319333 
L 210.075398 129.319333 
L 210.075398 129.997823 
L 210.836307 129.997823 
L 210.836307 131.207305 
L 211.597216 131.207305 
L 211.597216 133.183775 
L 212.358125 133.183775 
L 212.358125 137.077717 
L 213.119034 137.077717 
L 213.119034 136.281229 
L 213.879943 136.281229 
L 213.879943 135.809236 
L 214.640852 135.809236 
L 214.640852 133.685268 
L 215.401761 133.685268 
L 215.401761 138.493696 
L 216.16267 138.493696 
L 216.16267 138.818191 
L 216.92358 138.818191 
L 216.92358 140.26367 
L 217.684489 140.26367 
L 217.684489 142.063143 
L 218.445398 142.063143 
L 218.445398 142.859631 
L 219.206307 142.859631 
L 219.206307 141.827147 
L 219.967216 141.827147 
L 219.967216 147.63856 
L 220.728125 147.63856 
L 220.728125 146.871572 
L 221.489034 146.871572 
L 221.489034 143.449622 
L 222.249943 143.449622 
L 222.249943 145.455593 
L 223.010852 145.455593 
L 223.010852 146.783073 
L 223.771761 146.783073 
L 223.771761 147.137068 
L 224.53267 147.137068 
L 224.53267 149.64453 
L 225.29358 149.64453 
L 225.29358 150.146023 
L 226.054489 150.146023 
L 226.054489 150.854012 
L 226.815398 150.854012 
L 226.815398 153.71547 
L 227.576307 153.71547 
L 227.576307 155.249447 
L 228.337216 155.249447 
L 228.337216 153.597471 
L 229.098125 153.597471 
L 229.098125 157.07842 
L 229.859034 157.07842 
L 229.859034 154.039965 
L 230.619943 154.039965 
L 230.619943 155.780439 
L 231.380852 155.780439 
L 231.380852 156.960421 
L 232.90267 156.901422 
L 232.90267 157.550413 
L 234.424489 157.638911 
L 234.424489 162.476839 
L 235.185398 162.476839 
L 235.185398 162.181844 
L 235.946307 162.181844 
L 235.946307 161.326356 
L 236.707216 161.326356 
L 236.707216 162.919333 
L 237.468125 162.919333 
L 237.468125 161.621352 
L 238.229034 161.621352 
L 238.229034 162.240843 
L 238.989943 162.240843 
L 238.989943 163.686321 
L 239.750852 163.686321 
L 239.750852 165.456295 
L 240.511761 165.456295 
L 240.511761 166.400281 
L 241.27267 166.400281 
L 241.27267 164.335312 
L 242.03358 164.335312 
L 242.03358 166.931273 
L 242.794489 166.931273 
L 242.794489 168.081756 
L 243.555398 168.081756 
L 243.555398 169.055241 
L 244.316307 169.055241 
L 244.316307 171.120211 
L 245.077216 171.120211 
L 245.077216 170.913714 
L 245.838125 170.913714 
L 245.838125 172.388692 
L 246.599034 172.388692 
L 246.599034 171.356207 
L 247.359943 171.356207 
L 247.359943 173.480176 
L 248.120852 173.480176 
L 248.120852 173.804671 
L 249.64267 173.893169 
L 249.64267 172.890184 
L 250.40358 172.890184 
L 250.40358 173.86367 
L 251.164489 173.86367 
L 251.164489 177.285619 
L 251.925398 177.285619 
L 251.925398 178.436102 
L 252.686307 178.436102 
L 252.686307 178.200105 
L 253.447216 178.200105 
L 253.447216 179.645584 
L 254.208125 179.645584 
L 254.208125 180.176576 
L 254.969034 180.176576 
L 254.969034 181.563055 
L 255.729943 181.563055 
L 255.729943 181.94655 
L 256.490852 181.94655 
L 256.490852 184.690009 
L 257.251761 184.690009 
L 257.251761 184.188516 
L 258.01267 184.188516 
L 258.01267 184.837507 
L 258.77358 184.837507 
L 258.77358 186.666479 
L 259.534489 186.666479 
L 259.534489 188.67245 
L 260.295398 188.67245 
L 260.295398 186.872976 
L 261.056307 186.872976 
L 261.056307 190.619421 
L 261.817216 190.619421 
L 261.817216 190.088428 
L 262.578125 190.088428 
L 262.578125 190.973415 
L 263.339034 190.973415 
L 263.339034 191.887902 
L 264.099943 191.887902 
L 264.099943 192.330395 
L 264.860852 192.330395 
L 264.860852 191.769903 
L 265.621761 191.769903 
L 265.621761 193.805373 
L 266.38267 193.805373 
L 266.38267 194.808358 
L 267.14358 194.808358 
L 267.14358 196.224337 
L 267.904489 196.224337 
L 267.904489 196.637331 
L 268.665398 196.637331 
L 268.665398 196.991326 
L 269.426307 196.991326 
L 269.426307 197.40432 
L 270.187216 197.40432 
L 270.187216 196.135838 
L 270.948125 196.135838 
L 270.948125 198.318806 
L 271.709034 198.318806 
L 271.709034 197.492818 
L 272.469943 197.492818 
L 272.469943 199.882283 
L 273.230852 199.882283 
L 273.230852 200.000281 
L 273.991761 200.000281 
L 273.991761 200.118279 
L 274.75267 200.118279 
L 274.75267 201.593257 
L 275.51358 201.593257 
L 275.51358 202.242248 
L 276.274489 202.242248 
L 276.274489 202.714241 
L 277.035398 202.714241 
L 277.035398 203.982722 
L 277.796307 203.982722 
L 277.796307 203.687726 
L 278.557216 203.687726 
L 278.557216 204.926708 
L 279.318125 204.926708 
L 279.318125 203.599227 
L 280.079034 203.599227 
L 280.079034 205.811694 
L 280.839943 205.811694 
L 280.839943 204.867709 
L 281.600852 204.867709 
L 281.600852 206.165689 
L 282.361761 206.165689 
L 282.361761 206.991677 
L 283.12267 206.991677 
L 283.12267 206.637682 
L 283.88358 206.637682 
L 283.88358 207.345672 
L 284.644489 207.345672 
L 284.644489 208.260158 
L 285.405398 208.260158 
L 285.405398 208.702651 
L 286.166307 208.702651 
L 286.166307 209.646637 
L 286.927216 209.646637 
L 286.927216 209.882634 
L 288.449034 209.882634 
L 288.449034 210.089131 
L 289.970852 210.11863 
L 289.970852 211.033117 
L 290.731761 211.033117 
L 290.731761 211.416611 
L 291.49267 211.416611 
L 291.49267 211.888604 
L 293.014489 211.829605 
L 293.014489 213.068586 
L 293.775398 213.068586 
L 293.775398 212.213099 
L 294.536307 212.213099 
L 294.536307 213.570079 
L 295.297216 213.570079 
L 295.297216 213.983073 
L 296.819034 214.012572 
L 296.819034 214.83856 
L 297.579943 214.83856 
L 297.579943 214.18957 
L 298.340852 214.18957 
L 298.340852 215.635048 
L 299.101761 215.635048 
L 299.101761 215.104056 
L 299.86267 215.104056 
L 299.86267 215.664548 
L 301.384489 215.753047 
L 301.384489 215.959543 
L 302.145398 215.959543 
L 302.145398 216.726532 
L 302.906307 216.726532 
L 302.906307 216.84453 
L 303.667216 216.84453 
L 303.667216 217.316523 
L 304.428125 217.316523 
L 304.428125 217.051027 
L 305.189034 217.051027 
L 305.189034 217.257524 
L 305.949943 217.257524 
L 305.949943 217.670518 
L 306.710852 217.670518 
L 306.710852 218.113011 
L 308.23267 218.113011 
L 308.23267 217.877015 
L 308.99358 217.877015 
L 308.99358 218.437507 
L 309.754489 218.437507 
L 309.754489 218.585004 
L 310.515398 218.585004 
L 310.515398 218.467006 
L 311.276307 218.467006 
L 311.276307 218.614504 
L 312.037216 218.614504 
L 312.037216 218.732502 
L 313.559034 218.791501 
L 313.559034 218.88 
L 372.909943 218.88 
L 372.909943 218.88 
" clip-path="url(#pc0cd553de9)" style="fill: none; stroke: #2ca02c; stroke-width: 1.5; stroke-linecap: square"/>
   </g>
   <g id="patch_3">
    <path d="M 53.328125 228.96 
L 53.328125 7.2 
" style="fill: none; stroke: #000000; stroke-width: 0.8; stroke-linejoin: miter; stroke-linecap: square"/>
   </g>
   <g id="patch_4">
    <path d="M 388.128125 228.96 
L 388.128125 7.2 
" style="fill: none; stroke: #000000; stroke-width: 0.8; stroke-linejoin: miter; stroke-linecap: square"/>
   </g>
   <g id="patch_5">
    <path d="M 53.328125 228.96 
L 388.128125 228.96 
" style="fill: none; stroke: #000000; stroke-width: 0.8; stroke-linejoin: miter; stroke-linecap: square"/>
   </g>
   <g id="patch_6">
    <path d="M 53.328125 7.2 
L 388.128125 7.2 
" style="fill: none; stroke: #000000; stroke-width: 0.8; stroke-linejoin: miter; stroke-linecap: square"/>
   </g>
   <g id="legend_1">
    <g id="patch_7">
     <path d="M 306.904688 59.234375 
L 381.128125 59.234375 
Q 383.128125 59.234375 383.128125 57.234375 
L 383.128125 14.2 
Q 383.128125 12.2 381.128125 12.2 
L 306.904688 12.2 
Q 304.904688 12.2 304.904688 14.2 
L 304.904688 57.234375 
Q 304.904688 59.234375 306.904688 59.234375 
z
" style="fill: #ffffff; opacity: 0.8; stroke: #cccccc; stroke-linejoin: miter"/>
    </g>
    <g id="line2d_20">
     <path d="M 308.904688 20.298438 
L 308.904688 20.298438 
L 318.904688 20.298438 
L 318.904688 20.298438 
L 328.904688 20.298438 
" style="fill: none; stroke: #1f77b4; stroke-width: 1.5; stroke-linecap: square"/>
    </g>
    <g id="text_19">
     <!-- monitor -->
     <g transform="translate(336.904688 23.798438) scale(0.1 -0.1)">
      <defs>
       <path id="DejaVuSans-6d" d="M 3328 2828 
Q 3544 3216 3844 3400 
Q 4144 3584 4550 3584 
Q 5097 3584 5394 3201 
Q 5691 2819 5691 2113 
L 5691 0 
L 5113 0 
L 5113 2094 
Q 5113 2597 4934 2840 
Q 4756 3084 4391 3084 
Q 3944 3084 3684 2787 
Q 3425 2491 3425 1978 
L 3425 0 
L 2847 0 
L 2847 2094 
Q 2847 2600 2669 2842 
Q 2491 3084 2119 3084 
Q 1678 3084 1418 2786 
Q 1159 2488 1159 1978 
L 1159 0 
L 581 0 
L 581 3500 
L 1159 3500 
L 1159 2956 
Q 1356 3278 1631 3431 
Q 1906 3584 2284 3584 
Q 2666 3584 2933 3390 
Q 3200 3197 3328 2828 
z
" transform="scale(0.015625)"/>
       <path id="DejaVuSans-69" d="M 603 3500 
L 1178 3500 
L 1178 0 
L 603 0 
L 603 3500 
z
M 603 4863 
L 1178 4863 
L 1178 4134 
L 603 4134 
L 603 4863 
z
" transform="scale(0.015625)"/>
       <path id="DejaVuSans-72" d="M 2631 2963 
Q 2534 3019 2420 3045 
Q 2306 3072 2169 3072 
Q 1681 3072 1420 2755 
Q 1159 2438 1159 1844 
L 1159 0 
L 581 0 
L 581 3500 
L 1159 3500 
L 1159 2956 
Q 1341 3275 1631 3429 
Q 1922 3584 2338 3584 
Q 2397 3584 2469 3576 
Q 2541 3569 2628 3553 
L 2631 2963 
z
" transform="scale(0.015625)"/>
      </defs>
      <use xlink:href="#DejaVuSans-6d"/>
      <use xlink:href="#DejaVuSans-6f" transform="translate(97.412109 0)"/>
      <use xlink:href="#DejaVuSans-6e" transform="translate(158.59375 0)"/>
      <use xlink:href="#DejaVuSans-69" transform="translate(221.972656 0)"/>
      <use xlink:href="#DejaVuSans-74" transform="translate(249.755859 0)"/>
      <use xlink:href="#DejaVuSans-6f" transform="translate(288.964844 0)"/>
      <use xlink:href="#DejaVuSans-72" transform="translate(350.146484 0)"/>
     </g>
    </g>
    <g id="line2d_21">
     <path d="M 308.904688 34.976562 
L 308.904688 34.976562 
L 318.904688 34.976562 
L 318.904688 34.976562 
L 328.904688 34.976562 
" style="fill: none; stroke: #ff7f0e; stroke-width: 1.5; stroke-linecap: square"/>
    </g>
    <g id="text_20">
     <!-- detector -->
     <g transform="translate(336.904688 38.476562) scale(0.1 -0.1)">
      <defs>
       <path id="DejaVuSans-64" d="M 2906 2969 
L 2906 4863 
L 3481 4863 
L 3481 0 
L 2906 0 
L 2906 525 
Q 2725 213 2448 61 
Q 2172 -91 1784 -91 
Q 1150 -91 751 415 
Q 353 922 353 1747 
Q 353 2572 751 3078 
Q 1150 3584 1784 3584 
Q 2172 3584 2448 3432 
Q 2725 3281 2906 2969 
z
M 947 1747 
Q 947 1113 1208 752 
Q 1469 391 1925 391 
Q 2381 391 2643 752 
Q 2906 1113 2906 1747 
Q 2906 2381 2643 2742 
Q 2381 3103 1925 3103 
Q 1469 3103 1208 2742 
Q 947 2381 947 1747 
z
" transform="scale(0.015625)"/>
      </defs>
      <use xlink:href="#DejaVuSans-64"/>
      <use xlink:href="#DejaVuSans-65" transform="translate(63.476562 0)"/>
      <use xlink:href="#DejaVuSans-74" transform="translate(125 0)"/>
      <use xlink:href="#DejaVuSans-65" transform="translate(164.208984 0)"/>
      <use xlink:href="#DejaVuSans-63" transform="translate(225.732422 0)"/>
      <use xlink:href="#DejaVuSans-74" transform="translate(280.712891 0)"/>
      <use xlink:href="#DejaVuSans-6f" transform="translate(319.921875 0)"/>
      <use xlink:href="#DejaVuSans-72" transform="translate(381.103516 0)"/>
     </g>
    </g>
    <g id="line2d_22">
     <path d="M 308.904688 49.654688 
L 308.904688 49.654688 
L 318.904688 49.654688 
L 318.904688 49.654688 
L 328.904688 49.654688 
" style="fill: none; stroke: #2ca02c; stroke-width: 1.5; stroke-linecap: square"/>
    </g>
    <g id="text_21">
     <!-- true -->
     <g transform="translate(336.904688 53.154688) scale(0.1 -0.1)">
      <use xlink:href="#DejaVuSans-74"/>
      <use xlink:href="#DejaVuSans-72" transform="translate(39.208984 0)"/>
      <use xlink:href="#DejaVuSans-75" transform="translate(80.322266 0)"/>
      <use xlink:href="#DejaVuSans-65" transform="translate(143.701172 0)"/>
     </g>
    </g>
   </g>
  </g>
 </g>
 <defs>
  <clipPath id="pc0cd553de9">
   <rect x="53.328125" y="7.2" width="334.8" height="221.76"/>
  </clipPath>
 </defs>
</svg>
