<?xml version="1.0" encoding="utf-8" standalone="no"?>
<!DOCTYPE svg PUBLIC "-//W3C//DTD SVG 1.1//EN"
  "http://www.w3.org/Graphics/SVG/1.1/DTD/svg11.dtd">
<svg xmlns:xlink="http://www.w3.org/1999/xlink" width="395.328125pt" height="268.200625pt" viewBox="0 0 395.328125 268.200625" xmlns="http://www.w3.org/2000/svg" version="1.1">
 <metadata>
  <rdf:RDF xmlns:dc="http://purl.org/dc/elements/1.1/" xmlns:cc="http://creativecommons.org/ns#" xmlns:rdf="http://www.w3.org/1999/02/22-rdf-syntax-ns#">
   <cc:Work>
    <dc:type rdf:resource="http://purl.org/dc/dcmitype/StillImage"/>
    <dc:date>2026-02-02T14:27:32.625547</dc:date>
    <dc:format>image/svg+xml</dc:format>
    <dc:creator>
     <cc:Agent>
      <dc:title>Matplotlib v3.10.8, https://matplotlib.org/</dc:title>
     </cc:Agent>
    </dc:creator>
   </cc:Work>
  </rdf:RDF>
 </metadata>
 <defs>
  <style type="text/css">*{stroke-linejoin: round; stroke-linecap: butt}</style>
 </defs>
 <g id="figure_1">
  <g id="patch_1">
   <path d="M 0 268.200625 
L 395.328125 268.200625 
L 395.328125 0 
L 0 0 
z
" style="fill: #ffffff"/>
  </g>
  <g id="axes_1">
   <g id="patch_2">
    <path d="M 53.328125 228.96 
L 388.128125 228.96 
L 388.128125 7.2 
L 53.328125 7.2 
z
" style="fill: #ffffff"/>
   </g>
   <g id="matplotlib.axis_1">
    <g id="xtick_1">
     <g id="line2d_1">
      <defs>
       <path id="m6cf131974a" d="M 0 0 
L 0 3.5 
" style="stroke: #000000; stroke-width: 0.8"/>
      </defs>
      <g>
       <use xlink:href="#m6cf131974a" x="68.546307" y="228.96" style="stroke: #000000; stroke-width: 0.8"/>
      </g>
     </g>
     <g id="text_1">
      <!-- 1 -->
      <g transform="translate(65.365057 243.558437) scale(0.1 -0.1)">
       <defs>
        <path id="DejaVuSans-31" d="M 794 531 
L 1825 531 
L 1825 4091 
L 703 3866 
L 703 4441 
L 1819 4666 
L 2450 4666 
L 2450 531 
L 3481 531 
L 3481 0 
L 794 0 
L 794 531 
z
" transform="scale(0.015625)"/>
       </defs>
       <use xlink:href="#DejaVuSans-31"/>
      </g>
     </g>
    </g>
    <g id="xtick_2">
     <g id="line2d_2">
      <g>
       <use xlink:href="#m6cf131974a" x="112.026826" y="228.96" style="stroke: #000000; stroke-width: 0.8"/>
      </g>
     </g>
     <g id="text_2">
      <!-- 2 -->
      <g transform="translate(108.845576 243.558437) scale(0.1 -0.1)">
       <defs>
        <path id="DejaVuSans-32" d="M 1228 531 
L 3431 531 
L 3431 0 
L 469 0 
L 469 531 
Q 828 903 1448 1529 
Q 2069 2156 2228 2338 
Q 2531 2678 2651 2914 
Q 2772 3150 2772 3378 
Q 2772 3750 2511 3984 
Q 2250 4219 1831 4219 
Q 1534 4219 1204 4116 
Q 875 4013 500 3803 
L 500 4441 
Q 881 4594 1212 4672 
Q 1544 4750 1819 4750 
Q 2544 4750 2975 4387 
Q 3406 4025 3406 3419 
Q 3406 3131 3298 2873 
Q 3191 2616 2906 2266 
Q 2828 2175 2409 1742 
Q 1991 1309 1228 531 
z
" transform="scale(0.015625)"/>
       </defs>
       <use xlink:href="#DejaVuSans-32"/>
      </g>
     </g>
    </g>
    <g id="xtick_3">
     <g id="line2d_3">
      <g>
       <use xlink:href="#m6cf131974a" x="155.507346" y="228.96" style="stroke: #000000; stroke-width: 0.8"/>
      </g>
     </g>
     <g id="text_3">
      <!-- 3 -->
      <g transform="translate(152.326096 243.558437) scale(0.1 -0.1)">
       <defs>
        <path id="DejaVuSans-33" d="M 2597 2516 
Q 3050 2419 3304 2112 
Q 3559 1806 3559 1356 
Q 3559 666 3084 287 
Q 2609 -91 1734 -91 
Q 1441 -91 1130 -33 
Q 819 25 488 141 
L 488 750 
Q 750 597 1062 519 
Q 1375 441 1716 441 
Q 2309 441 2620 675 
Q 2931 909 2931 1356 
Q 2931 1769 2642 2001 
Q 2353 2234 1838 2234 
L 1294 2234 
L 1294 2753 
L 1863 2753 
Q 2328 2753 2575 2939 
Q 2822 3125 2822 3475 
Q 2822 3834 2567 4026 
Q 2313 4219 1838 4219 
Q 1578 4219 1281 4162 
Q 984 4106 628 3988 
L 628 4550 
Q 988 4650 1302 4700 
Q 1616 4750 1894 4750 
Q 2613 4750 3031 4423 
Q 3450 4097 3450 3541 
Q 3450 3153 3228 2886 
Q 3006 2619 2597 2516 
z
" transform="scale(0.015625)"/>
       </defs>
       <use xlink:href="#DejaVuSans-33"/>
      </g>
     </g>
    </g>
    <g id="xtick_4">
     <g id="line2d_4">
      <g>
       <use xlink:href="#m6cf131974a" x="198.987865" y="228.96" style="stroke: #000000; stroke-width: 0.8"/>
      </g>
     </g>
     <g id="text_4">
      <!-- 4 -->
      <g transform="translate(195.806615 243.558437) scale(0.1 -0.1)">
       <defs>
        <path id="DejaVuSans-34" d="M 2419 4116 
L 825 1625 
L 2419 1625 
L 2419 4116 
z
M 2253 4666 
L 3047 4666 
L 3047 1625 
L 3713 1625 
L 3713 1100 
L 3047 1100 
L 3047 0 
L 2419 0 
L 2419 1100 
L 313 1100 
L 313 1709 
L 2253 4666 
z
" transform="scale(0.015625)"/>
       </defs>
       <use xlink:href="#DejaVuSans-34"/>
      </g>
     </g>
    </g>
    <g id="xtick_5">
     <g id="line2d_5">
      <g>
       <use xlink:href="#m6cf131974a" x="242.468385" y="228.96" style="stroke: #000000; stroke-width: 0.8"/>
      </g>
     </g>
     <g id="text_5">
      <!-- 5 -->
      <g transform="translate(239.287135 243.558437) scale(0.1 -0.1)">
       <defs>
        <path id="DejaVuSans-35" d="M 691 4666 
L 3169 4666 
L 3169 4134 
L 1269 4134 
L 1269 2991 
Q 1406 3038 1543 3061 
Q 1681 3084 1819 3084 
Q 2600 3084 3056 2656 
Q 3513 2228 3513 1497 
Q 3513 744 3044 326 
Q 2575 -91 1722 -91 
Q 1428 -91 1123 -41 
Q 819 9 494 109 
L 494 744 
Q 775 591 1075 516 
Q 1375 441 1709 441 
Q 2250 441 2565 725 
Q 2881 1009 2881 1497 
Q 2881 1984 2565 2268 
Q 2250 2553 1709 2553 
Q 1456 2553 1204 2497 
Q 953 2441 691 2322 
L 691 4666 
z
" transform="scale(0.015625)"/>
       </defs>
       <use xlink:href="#DejaVuSans-35"/>
      </g>
     </g>
    </g>
    <g id="xtick_6">
     <g id="line2d_6">
      <g>
       <use xlink:href="#m6cf131974a" x="285.948904" y="228.96" style="stroke: #000000; stroke-width: 0.8"/>
      </g>
     </g>
     <g id="text_6">
      <!-- 6 -->
      <g transform="translate(282.767654 243.558437) scale(0.1 -0.1)">
       <defs>
        <path id="DejaVuSans-36" d="M 2113 2584 
Q 1688 2584 1439 2293 
Q 1191 2003 1191 1497 
Q 1191 994 1439 701 
Q 1688 409 2113 409 
Q 2538 409 2786 701 
Q 3034 994 3034 1497 
Q 3034 2003 2786 2293 
Q 2538 2584 2113 2584 
z
M 3366 4563 
L 3366 3988 
Q 3128 4100 2886 4159 
Q 2644 4219 2406 4219 
Q 1781 4219 1451 3797 
Q 1122 3375 1075 2522 
Q 1259 2794 1537 2939 
Q 1816 3084 2150 3084 
Q 2853 3084 3261 2657 
Q 3669 2231 3669 1497 
Q 3669 778 3244 343 
Q 2819 -91 2113 -91 
Q 1303 -91 875 529 
Q 447 1150 447 2328 
Q 447 3434 972 4092 
Q 1497 4750 2381 4750 
Q 2619 4750 2861 4703 
Q 3103 4656 3366 4563 
z
" transform="scale(0.015625)"/>
       </defs>
       <use xlink:href="#DejaVuSans-36"/>
      </g>
     </g>
    </g>
    <g id="xtick_7">
     <g id="line2d_7">
      <g>
       <use xlink:href="#m6cf131974a" x="329.429424" y="228.96" style="stroke: #000000; stroke-width: 0.8"/>
      </g>
     </g>
     <g id="text_7">
      <!-- 7 -->
      <g transform="translate(326.248174 243.558437) scale(0.1 -0.1)">
       <defs>
        <path id="DejaVuSans-37" d="M 525 4666 
L 3525 4666 
L 3525 4397 
L 1831 0 
L 1172 0 
L 2766 4134 
L 525 4134 
L 525 4666 
z
" transform="scale(0.015625)"/>
       </defs>
       <use xlink:href="#DejaVuSans-37"/>
      </g>
     </g>
    </g>
    <g id="xtick_8">
     <g id="line2d_8">
      <g>
       <use xlink:href="#m6cf131974a" x="372.909943" y="228.96" style="stroke: #000000; stroke-width: 0.8"/>
      </g>
     </g>
     <g id="text_8">
      <!-- 8 -->
      <g transform="translate(369.728693 243.558437) scale(0.1 -0.1)">
       <defs>
        <path id="DejaVuSans-38" d="M 2034 2216 
Q 1584 2216 1326 1975 
Q 1069 1734 1069 1313 
Q 1069 891 1326 650 
Q 1584 409 2034 409 
Q 2484 409 2743 651 
Q 3003 894 3003 1313 
Q 3003 1734 2745 1975 
Q 2488 2216 2034 2216 
z
M 1403 2484 
Q 997 2584 770 2862 
Q 544 3141 544 3541 
Q 544 4100 942 4425 
Q 1341 4750 2034 4750 
Q 2731 4750 3128 4425 
Q 3525 4100 3525 3541 
Q 3525 3141 3298 2862 
Q 3072 2584 2669 2484 
Q 3125 2378 3379 2068 
Q 3634 1759 3634 1313 
Q 3634 634 3220 271 
Q 2806 -91 2034 -91 
Q 1263 -91 848 271 
Q 434 634 434 1313 
Q 434 1759 690 2068 
Q 947 2378 1403 2484 
z
M 1172 3481 
Q 1172 3119 1398 2916 
Q 1625 2713 2034 2713 
Q 2441 2713 2670 2916 
Q 2900 3119 2900 3481 
Q 2900 3844 2670 4047 
Q 2441 4250 2034 4250 
Q 1625 4250 1398 4047 
Q 1172 3844 1172 3481 
z
" transform="scale(0.015625)"/>
       </defs>
       <use xlink:href="#DejaVuSans-38"/>
      </g>
     </g>
    </g>
    <g id="text_9">
     <!-- wavelength [Å] -->
     <g transform="translate(182.690625 258.920937) scale(0.1 -0.1)">
      <defs>
       <path id="DejaVuSans-77" d="M 269 3500 
L 844 3500 
L 1563 769 
L 2278 3500 
L 2956 3500 
L 3675 769 
L 4391 3500 
L 4966 3500 
L 4050 0 
L 3372 0 
L 2619 2869 
L 1863 0 
L 1184 0 
L 269 3500 
z
" transform="scale(0.015625)"/>
       <path id="DejaVuSans-61" d="M 2194 1759 
Q 1497 1759 1228 1600 
Q 959 1441 959 1056 
Q 959 750 1161 570 
Q 1363 391 1709 391 
Q 2188 391 2477 730 
Q 2766 1069 2766 1631 
L 2766 1759 
L 2194 1759 
z
M 3341 1997 
L 3341 0 
L 2766 0 
L 2766 531 
Q 2569 213 2275 61 
Q 1981 -91 1556 -91 
Q 1019 -91 701 211 
Q 384 513 384 1019 
Q 384 1609 779 1909 
Q 1175 2209 1959 2209 
L 2766 2209 
L 2766 2266 
Q 2766 2663 2505 2880 
Q 2244 3097 1772 3097 
Q 1472 3097 1187 3025 
Q 903 2953 641 2809 
L 641 3341 
Q 956 3463 1253 3523 
Q 1550 3584 1831 3584 
Q 2591 3584 2966 3190 
Q 3341 2797 3341 1997 
z
" transform="scale(0.015625)"/>
       <path id="DejaVuSans-76" d="M 191 3500 
L 800 3500 
L 1894 563 
L 2988 3500 
L 3597 3500 
L 2284 0 
L 1503 0 
L 191 3500 
z
" transform="scale(0.015625)"/>
       <path id="DejaVuSans-65" d="M 3597 1894 
L 3597 1613 
L 953 1613 
Q 991 1019 1311 708 
Q 1631 397 2203 397 
Q 2534 397 2845 478 
Q 3156 559 3463 722 
L 3463 178 
Q 3153 47 2828 -22 
Q 2503 -91 2169 -91 
Q 1331 -91 842 396 
Q 353 884 353 1716 
Q 353 2575 817 3079 
Q 1281 3584 2069 3584 
Q 2775 3584 3186 3129 
Q 3597 2675 3597 1894 
z
M 3022 2063 
Q 3016 2534 2758 2815 
Q 2500 3097 2075 3097 
Q 1594 3097 1305 2825 
Q 1016 2553 972 2059 
L 3022 2063 
z
" transform="scale(0.015625)"/>
       <path id="DejaVuSans-6c" d="M 603 4863 
L 1178 4863 
L 1178 0 
L 603 0 
L 603 4863 
z
" transform="scale(0.015625)"/>
       <path id="DejaVuSans-6e" d="M 3513 2113 
L 3513 0 
L 2938 0 
L 2938 2094 
Q 2938 2591 2744 2837 
Q 2550 3084 2163 3084 
Q 1697 3084 1428 2787 
Q 1159 2491 1159 1978 
L 1159 0 
L 581 0 
L 581 3500 
L 1159 3500 
L 1159 2956 
Q 1366 3272 1645 3428 
Q 1925 3584 2291 3584 
Q 2894 3584 3203 3211 
Q 3513 2838 3513 2113 
z
" transform="scale(0.015625)"/>
       <path id="DejaVuSans-67" d="M 2906 1791 
Q 2906 2416 2648 2759 
Q 2391 3103 1925 3103 
Q 1463 3103 1205 2759 
Q 947 2416 947 1791 
Q 947 1169 1205 825 
Q 1463 481 1925 481 
Q 2391 481 2648 825 
Q 2906 1169 2906 1791 
z
M 3481 434 
Q 3481 -459 3084 -895 
Q 2688 -1331 1869 -1331 
Q 1566 -1331 1297 -1286 
Q 1028 -1241 775 -1147 
L 775 -588 
Q 1028 -725 1275 -790 
Q 1522 -856 1778 -856 
Q 2344 -856 2625 -561 
Q 2906 -266 2906 331 
L 2906 616 
Q 2728 306 2450 153 
Q 2172 0 1784 0 
Q 1141 0 747 490 
Q 353 981 353 1791 
Q 353 2603 747 3093 
Q 1141 3584 1784 3584 
Q 2172 3584 2450 3431 
Q 2728 3278 2906 2969 
L 2906 3500 
L 3481 3500 
L 3481 434 
z
" transform="scale(0.015625)"/>
       <path id="DejaVuSans-74" d="M 1172 4494 
L 1172 3500 
L 2356 3500 
L 2356 3053 
L 1172 3053 
L 1172 1153 
Q 1172 725 1289 603 
Q 1406 481 1766 481 
L 2356 481 
L 2356 0 
L 1766 0 
Q 1100 0 847 248 
Q 594 497 594 1153 
L 594 3053 
L 172 3053 
L 172 3500 
L 594 3500 
L 594 4494 
L 1172 4494 
z
" transform="scale(0.015625)"/>
       <path id="DejaVuSans-68" d="M 3513 2113 
L 3513 0 
L 2938 0 
L 2938 2094 
Q 2938 2591 2744 2837 
Q 2550 3084 2163 3084 
Q 1697 3084 1428 2787 
Q 1159 2491 1159 1978 
L 1159 0 
L 581 0 
L 581 4863 
L 1159 4863 
L 1159 2956 
Q 1366 3272 1645 3428 
Q 1925 3584 2291 3584 
Q 2894 3584 3203 3211 
Q 3513 2838 3513 2113 
z
" transform="scale(0.015625)"/>
       <path id="DejaVuSans-20" transform="scale(0.015625)"/>
       <path id="DejaVuSans-5b" d="M 550 4863 
L 1875 4863 
L 1875 4416 
L 1125 4416 
L 1125 -397 
L 1875 -397 
L 1875 -844 
L 550 -844 
L 550 4863 
z
" transform="scale(0.015625)"/>
       <path id="DejaVuSans-c5" d="M 2663 5081 
Q 2663 5278 2523 5417 
Q 2384 5556 2188 5556 
Q 1988 5556 1852 5420 
Q 1716 5284 1716 5081 
Q 1716 4884 1853 4746 
Q 1991 4609 2188 4609 
Q 2384 4609 2523 4746 
Q 2663 4884 2663 5081 
z
M 2188 4044 
L 1338 1722 
L 3041 1722 
L 2188 4044 
z
M 1716 4366 
Q 1525 4494 1428 4673 
Q 1331 4853 1331 5081 
Q 1331 5441 1579 5691 
Q 1828 5941 2188 5941 
Q 2544 5941 2795 5689 
Q 3047 5438 3047 5081 
Q 3047 4863 2948 4678 
Q 2850 4494 2663 4366 
L 4325 0 
L 3669 0 
L 3244 1197 
L 1141 1197 
L 716 0 
L 50 0 
L 1716 4366 
z
" transform="scale(0.015625)"/>
       <path id="DejaVuSans-5d" d="M 1947 4863 
L 1947 -844 
L 622 -844 
L 622 -397 
L 1369 -397 
L 1369 4416 
L 622 4416 
L 622 4863 
L 1947 4863 
z
" transform="scale(0.015625)"/>
      </defs>
      <use xlink:href="#DejaVuSans-77"/>
      <use xlink:href="#DejaVuSans-61" transform="translate(81.787109 0)"/>
      <use xlink:href="#DejaVuSans-76" transform="translate(143.066406 0)"/>
      <use xlink:href="#DejaVuSans-65" transform="translate(202.246094 0)"/>
      <use xlink:href="#DejaVuSans-6c" transform="translate(263.769531 0)"/>
      <use xlink:href="#DejaVuSans-65" transform="translate(291.552734 0)"/>
      <use xlink:href="#DejaVuSans-6e" transform="translate(353.076172 0)"/>
      <use xlink:href="#DejaVuSans-67" transform="translate(416.455078 0)"/>
      <use xlink:href="#DejaVuSans-74" transform="translate(479.931641 0)"/>
      <use xlink:href="#DejaVuSans-68" transform="translate(519.140625 0)"/>
      <use xlink:href="#DejaVuSans-20" transform="translate(582.519531 0)"/>
      <use xlink:href="#DejaVuSans-5b" transform="translate(614.306641 0)"/>
      <use xlink:href="#DejaVuSans-c5" transform="translate(653.320312 0)"/>
      <use xlink:href="#DejaVuSans-5d" transform="translate(721.728516 0)"/>
     </g>
    </g>
   </g>
   <g id="matplotlib.axis_2">
    <g id="ytick_1">
     <g id="line2d_9">
      <defs>
       <path id="m02a73c7a4c" d="M 0 0 
L -3.5 0 
" style="stroke: #000000; stroke-width: 0.8"/>
      </defs>
      <g>
       <use xlink:href="#m02a73c7a4c" x="53.328125" y="218.88" style="stroke: #000000; stroke-width: 0.8"/>
      </g>
     </g>
     <g id="text_10">
      <!-- 0 -->
      <g transform="translate(39.965625 222.679219) scale(0.1 -0.1)">
       <defs>
        <path id="DejaVuSans-30" d="M 2034 4250 
Q 1547 4250 1301 3770 
Q 1056 3291 1056 2328 
Q 1056 1369 1301 889 
Q 1547 409 2034 409 
Q 2525 409 2770 889 
Q 3016 1369 3016 2328 
Q 3016 3291 2770 3770 
Q 2525 4250 2034 4250 
z
M 2034 4750 
Q 2819 4750 3233 4129 
Q 3647 3509 3647 2328 
Q 3647 1150 3233 529 
Q 2819 -91 2034 -91 
Q 1250 -91 836 529 
Q 422 1150 422 2328 
Q 422 3509 836 4129 
Q 1250 4750 2034 4750 
z
" transform="scale(0.015625)"/>
       </defs>
       <use xlink:href="#DejaVuSans-30"/>
      </g>
     </g>
    </g>
    <g id="ytick_2">
     <g id="line2d_10">
      <g>
       <use xlink:href="#m02a73c7a4c" x="53.328125" y="191.221885" style="stroke: #000000; stroke-width: 0.8"/>
      </g>
     </g>
     <g id="text_11">
      <!-- 1000 -->
      <g transform="translate(20.878125 195.021104) scale(0.1 -0.1)">
       <use xlink:href="#DejaVuSans-31"/>
       <use xlink:href="#DejaVuSans-30" transform="translate(63.623047 0)"/>
       <use xlink:href="#DejaVuSans-30" transform="translate(127.246094 0)"/>
       <use xlink:href="#DejaVuSans-30" transform="translate(190.869141 0)"/>
      </g>
     </g>
    </g>
    <g id="ytick_3">
     <g id="line2d_11">
      <g>
       <use xlink:href="#m02a73c7a4c" x="53.328125" y="163.56377" style="stroke: #000000; stroke-width: 0.8"/>
      </g>
     </g>
     <g id="text_12">
      <!-- 2000 -->
      <g transform="translate(20.878125 167.362989) scale(0.1 -0.1)">
       <use xlink:href="#DejaVuSans-32"/>
       <use xlink:href="#DejaVuSans-30" transform="translate(63.623047 0)"/>
       <use xlink:href="#DejaVuSans-30" transform="translate(127.246094 0)"/>
       <use xlink:href="#DejaVuSans-30" transform="translate(190.869141 0)"/>
      </g>
     </g>
    </g>
    <g id="ytick_4">
     <g id="line2d_12">
      <g>
       <use xlink:href="#m02a73c7a4c" x="53.328125" y="135.905655" style="stroke: #000000; stroke-width: 0.8"/>
      </g>
     </g>
     <g id="text_13">
      <!-- 3000 -->
      <g transform="translate(20.878125 139.704874) scale(0.1 -0.1)">
       <use xlink:href="#DejaVuSans-33"/>
       <use xlink:href="#DejaVuSans-30" transform="translate(63.623047 0)"/>
       <use xlink:href="#DejaVuSans-30" transform="translate(127.246094 0)"/>
       <use xlink:href="#DejaVuSans-30" transform="translate(190.869141 0)"/>
      </g>
     </g>
    </g>
    <g id="ytick_5">
     <g id="line2d_13">
      <g>
       <use xlink:href="#m02a73c7a4c" x="53.328125" y="108.24754" style="stroke: #000000; stroke-width: 0.8"/>
      </g>
     </g>
     <g id="text_14">
      <!-- 4000 -->
      <g transform="translate(20.878125 112.046759) scale(0.1 -0.1)">
       <use xlink:href="#DejaVuSans-34"/>
       <use xlink:href="#DejaVuSans-30" transform="translate(63.623047 0)"/>
       <use xlink:href="#DejaVuSans-30" transform="translate(127.246094 0)"/>
       <use xlink:href="#DejaVuSans-30" transform="translate(190.869141 0)"/>
      </g>
     </g>
    </g>
    <g id="ytick_6">
     <g id="line2d_14">
      <g>
       <use xlink:href="#m02a73c7a4c" x="53.328125" y="80.589425" style="stroke: #000000; stroke-width: 0.8"/>
      </g>
     </g>
     <g id="text_15">
      <!-- 5000 -->
      <g transform="translate(20.878125 84.388644) scale(0.1 -0.1)">
       <use xlink:href="#DejaVuSans-35"/>
       <use xlink:href="#DejaVuSans-30" transform="translate(63.623047 0)"/>
       <use xlink:href="#DejaVuSans-30" transform="translate(127.246094 0)"/>
       <use xlink:href="#DejaVuSans-30" transform="translate(190.869141 0)"/>
      </g>
     </g>
    </g>
    <g id="ytick_7">
     <g id="line2d_15">
      <g>
       <use xlink:href="#m02a73c7a4c" x="53.328125" y="52.93131" style="stroke: #000000; stroke-width: 0.8"/>
      </g>
     </g>
     <g id="text_16">
      <!-- 6000 -->
      <g transform="translate(20.878125 56.730529) scale(0.1 -0.1)">
       <use xlink:href="#DejaVuSans-36"/>
       <use xlink:href="#DejaVuSans-30" transform="translate(63.623047 0)"/>
       <use xlink:href="#DejaVuSans-30" transform="translate(127.246094 0)"/>
       <use xlink:href="#DejaVuSans-30" transform="translate(190.869141 0)"/>
      </g>
     </g>
    </g>
    <g id="ytick_8">
     <g id="line2d_16">
      <g>
       <use xlink:href="#m02a73c7a4c" x="53.328125" y="25.273195" style="stroke: #000000; stroke-width: 0.8"/>
      </g>
     </g>
     <g id="text_17">
      <!-- 7000 -->
      <g transform="translate(20.878125 29.072414) scale(0.1 -0.1)">
       <use xlink:href="#DejaVuSans-37"/>
       <use xlink:href="#DejaVuSans-30" transform="translate(63.623047 0)"/>
       <use xlink:href="#DejaVuSans-30" transform="translate(127.246094 0)"/>
       <use xlink:href="#DejaVuSans-30" transform="translate(190.869141 0)"/>
      </g>
     </g>
    </g>
    <g id="text_18">
     <!-- [counts] -->
     <g transform="translate(14.798438 138.6925) rotate(-90) scale(0.1 -0.1)">
      <defs>
       <path id="DejaVuSans-63" d="M 3122 3366 
L 3122 2828 
Q 2878 2963 2633 3030 
Q 2388 3097 2138 3097 
Q 1578 3097 1268 2742 
Q 959 2388 959 1747 
Q 959 1106 1268 751 
Q 1578 397 2138 397 
Q 2388 397 2633 464 
Q 2878 531 3122 666 
L 3122 134 
Q 2881 22 2623 -34 
Q 2366 -91 2075 -91 
Q 1284 -91 818 406 
Q 353 903 353 1747 
Q 353 2603 823 3093 
Q 1294 3584 2113 3584 
Q 2378 3584 2631 3529 
Q 2884 3475 3122 3366 
z
" transform="scale(0.015625)"/>
       <path id="DejaVuSans-6f" d="M 1959 3097 
Q 1497 3097 1228 2736 
Q 959 2375 959 1747 
Q 959 1119 1226 758 
Q 1494 397 1959 397 
Q 2419 397 2687 759 
Q 2956 1122 2956 1747 
Q 2956 2369 2687 2733 
Q 2419 3097 1959 3097 
z
M 1959 3584 
Q 2709 3584 3137 3096 
Q 3566 2609 3566 1747 
Q 3566 888 3137 398 
Q 2709 -91 1959 -91 
Q 1206 -91 779 398 
Q 353 888 353 1747 
Q 353 2609 779 3096 
Q 1206 3584 1959 3584 
z
" transform="scale(0.015625)"/>
       <path id="DejaVuSans-75" d="M 544 1381 
L 544 3500 
L 1119 3500 
L 1119 1403 
Q 1119 906 1312 657 
Q 1506 409 1894 409 
Q 2359 409 2629 706 
Q 2900 1003 2900 1516 
L 2900 3500 
L 3475 3500 
L 3475 0 
L 2900 0 
L 2900 538 
Q 2691 219 2414 64 
Q 2138 -91 1772 -91 
Q 1169 -91 856 284 
Q 544 659 544 1381 
z
M 1991 3584 
L 1991 3584 
z
" transform="scale(0.015625)"/>
       <path id="DejaVuSans-73" d="M 2834 3397 
L 2834 2853 
Q 2591 2978 2328 3040 
Q 2066 3103 1784 3103 
Q 1356 3103 1142 2972 
Q 928 2841 928 2578 
Q 928 2378 1081 2264 
Q 1234 2150 1697 2047 
L 1894 2003 
Q 2506 1872 2764 1633 
Q 3022 1394 3022 966 
Q 3022 478 2636 193 
Q 2250 -91 1575 -91 
Q 1294 -91 989 -36 
Q 684 19 347 128 
L 347 722 
Q 666 556 975 473 
Q 1284 391 1588 391 
Q 1994 391 2212 530 
Q 2431 669 2431 922 
Q 2431 1156 2273 1281 
Q 2116 1406 1581 1522 
L 1381 1569 
Q 847 1681 609 1914 
Q 372 2147 372 2553 
Q 372 3047 722 3315 
Q 1072 3584 1716 3584 
Q 2034 3584 2315 3537 
Q 2597 3491 2834 3397 
z
" transform="scale(0.015625)"/>
      </defs>
      <use xlink:href="#DejaVuSans-5b"/>
      <use xlink:href="#DejaVuSans-63" transform="translate(39.013672 0)"/>
      <use xlink:href="#DejaVuSans-6f" transform="translate(93.994141 0)"/>
      <use xlink:href="#DejaVuSans-75" transform="translate(155.175781 0)"/>
      <use xlink:href="#DejaVuSans-6e" transform="translate(218.554688 0)"/>
      <use xlink:href="#DejaVuSans-74" transform="translate(281.933594 0)"/>
      <use xlink:href="#DejaVuSans-73" transform="translate(321.142578 0)"/>
      <use xlink:href="#DejaVuSans-5d" transform="translate(373.242188 0)"/>
     </g>
    </g>
   </g>
   <g id="line2d_17">
    <path d="M 68.546307 218.88 
L 76.916307 218.824684 
L 76.916307 218.631077 
L 78.438125 218.686393 
L 78.438125 218.824684 
L 79.199034 218.824684 
L 79.199034 218.575761 
L 80.720852 218.686393 
L 80.720852 218.714051 
L 81.481761 218.714051 
L 81.481761 218.520445 
L 82.24267 218.520445 
L 82.24267 218.769368 
L 83.00358 218.769368 
L 83.00358 218.631077 
L 84.525398 218.631077 
L 84.525398 218.382154 
L 87.569034 218.492786 
L 87.569034 218.216205 
L 89.090852 218.243863 
L 89.090852 217.85665 
L 90.61267 217.85665 
L 90.61267 218.548103 
L 91.37358 218.548103 
L 91.37358 217.967282 
L 92.134489 217.967282 
L 92.134489 217.580069 
L 92.895398 217.580069 
L 92.895398 217.718359 
L 93.656307 217.718359 
L 93.656307 217.026906 
L 94.417216 217.026906 
L 94.417216 217.331146 
L 95.939034 217.358804 
L 95.939034 216.556718 
L 96.699943 216.556718 
L 96.699943 217.082223 
L 97.460852 217.082223 
L 97.460852 216.584376 
L 98.221761 216.584376 
L 98.221761 216.169505 
L 98.98267 216.169505 
L 98.98267 215.809949 
L 99.74358 215.809949 
L 99.74358 215.06318 
L 101.265398 215.118496 
L 101.265398 213.929197 
L 102.026307 213.929197 
L 102.026307 214.233437 
L 102.787216 214.233437 
L 102.787216 214.703625 
L 103.548125 214.703625 
L 103.548125 212.020787 
L 104.309034 212.020787 
L 104.309034 212.601608 
L 105.069943 212.601608 
L 105.069943 210.886805 
L 105.830852 210.886805 
L 105.830852 211.052753 
L 106.591761 211.052753 
L 106.591761 210.693198 
L 107.35267 210.693198 
L 107.35267 208.950737 
L 108.11358 208.950737 
L 108.11358 206.516823 
L 108.874489 206.516823 
L 108.874489 205.770054 
L 110.396307 205.687079 
L 110.396307 202.644687 
L 111.157216 202.644687 
L 111.157216 200.459695 
L 111.918125 200.459695 
L 111.918125 194.568517 
L 112.679034 194.568517 
L 112.679034 197.030089 
L 113.439943 197.030089 
L 113.439943 191.858022 
L 114.200852 191.858022 
L 114.200852 188.566706 
L 114.961761 188.566706 
L 114.961761 187.211458 
L 115.72267 187.211458 
L 115.72267 183.532929 
L 116.48358 183.532929 
L 116.48358 180.794776 
L 117.244489 180.794776 
L 117.244489 176.17587 
L 118.005398 176.17587 
L 118.005398 174.322777 
L 118.766307 174.322777 
L 118.766307 165.91471 
L 119.527216 165.91471 
L 119.527216 165.527496 
L 120.288125 165.527496 
L 120.288125 163.065924 
L 121.049034 163.065924 
L 121.049034 161.295805 
L 121.809943 161.295805 
L 121.809943 156.400318 
L 122.570852 156.400318 
L 122.570852 154.851464 
L 123.331761 154.851464 
L 123.331761 148.102884 
L 124.09267 148.102884 
L 124.09267 143.926508 
L 124.85358 143.926508 
L 124.85358 145.447705 
L 125.614489 145.447705 
L 125.614489 132.890921 
L 126.375398 132.890921 
L 126.375398 135.407809 
L 127.136307 135.407809 
L 127.136307 126.88911 
L 127.897216 126.88911 
L 127.897216 120.334136 
L 128.658125 120.334136 
L 128.658125 117.568325 
L 129.419034 117.568325 
L 129.419034 114.387642 
L 130.179943 114.387642 
L 130.179943 103.241421 
L 130.940852 103.241421 
L 130.940852 110.792087 
L 131.701761 110.792087 
L 131.701761 98.428909 
L 132.46267 98.428909 
L 132.46267 100.005422 
L 133.22358 100.005422 
L 133.22358 96.631132 
L 134.745398 96.631132 
L 134.745398 74.228059 
L 135.506307 74.228059 
L 135.506307 68.33688 
L 136.267216 68.33688 
L 136.267216 64.38177 
L 137.028125 64.38177 
L 137.028125 73.121734 
L 137.789034 73.121734 
L 137.789034 68.19859 
L 138.549943 68.19859 
L 138.549943 61.809565 
L 139.310852 61.809565 
L 139.310852 58.960779 
L 140.071761 58.960779 
L 140.071761 69.858077 
L 140.83267 69.858077 
L 140.83267 54.424848 
L 141.59358 54.424848 
L 141.59358 54.286558 
L 142.354489 54.286558 
L 142.354489 76.661973 
L 143.115398 76.661973 
L 143.115398 52.322832 
L 143.876307 52.322832 
L 143.876307 33.26639 
L 144.637216 33.26639 
L 144.637216 44.661534 
L 145.398125 44.661534 
L 145.398125 61.228745 
L 146.159034 61.228745 
L 146.159034 42.476543 
L 146.919943 42.476543 
L 146.919943 41.757432 
L 147.680852 41.757432 
L 147.680852 52.682387 
L 148.441761 52.682387 
L 148.441761 54.784404 
L 149.20267 54.784404 
L 149.20267 61.560642 
L 149.96358 61.560642 
L 149.96358 35.340749 
L 150.724489 35.340749 
L 150.724489 39.544783 
L 151.485398 39.544783 
L 151.485398 64.022214 
L 152.246307 64.022214 
L 152.246307 27.430528 
L 153.007216 27.430528 
L 153.007216 50.691003 
L 153.768125 50.691003 
L 153.768125 45.021089 
L 154.529034 45.021089 
L 154.529034 45.187038 
L 155.289943 45.187038 
L 155.289943 50.718661 
L 156.050852 50.718661 
L 156.050852 51.603721 
L 156.811761 51.603721 
L 156.811761 33.57063 
L 157.57267 33.57063 
L 157.57267 56.084335 
L 158.33358 56.084335 
L 158.33358 39.323518 
L 159.094489 39.323518 
L 159.094489 37.470424 
L 159.855398 37.470424 
L 159.855398 58.241668 
L 160.616307 58.241668 
L 160.616307 43.527551 
L 161.377216 43.527551 
L 161.377216 17.28 
L 162.138125 17.28 
L 162.138125 75.362041 
L 162.899034 75.362041 
L 162.899034 37.221501 
L 164.420852 37.249159 
L 164.420852 63.856266 
L 165.181761 63.856266 
L 165.181761 24.885982 
L 165.94267 24.885982 
L 165.94267 59.486283 
L 166.70358 59.486283 
L 166.70358 48.616644 
L 167.464489 48.616644 
L 167.464489 63.05418 
L 168.225398 63.05418 
L 168.225398 50.082524 
L 168.986307 50.082524 
L 168.986307 37.027894 
L 169.747216 37.027894 
L 169.747216 58.767172 
L 170.508125 58.767172 
L 170.508125 59.901155 
L 171.269034 59.901155 
L 171.269034 65.488094 
L 172.029943 65.488094 
L 172.029943 50.137841 
L 172.790852 50.137841 
L 172.790852 41.895722 
L 173.551761 41.895722 
L 173.551761 66.124231 
L 174.31267 66.124231 
L 174.31267 57.135344 
L 175.07358 57.135344 
L 175.07358 88.416672 
L 175.834489 88.416672 
L 175.834489 76.99387 
L 176.595398 76.99387 
L 176.595398 60.233053 
L 177.356307 60.233053 
L 177.356307 74.781221 
L 178.117216 74.781221 
L 178.117216 88.084774 
L 178.878125 88.084774 
L 178.878125 61.975514 
L 179.639034 61.975514 
L 179.639034 90.131475 
L 180.399943 90.131475 
L 180.399943 68.862384 
L 181.160852 68.862384 
L 181.160852 82.912707 
L 181.921761 82.912707 
L 181.921761 85.51257 
L 182.68267 85.51257 
L 182.68267 97.018345 
L 183.44358 97.018345 
L 183.44358 87.697561 
L 184.204489 87.697561 
L 184.204489 98.12467 
L 184.965398 98.12467 
L 184.965398 91.320774 
L 185.726307 91.320774 
L 185.726307 94.16956 
L 186.487216 94.16956 
L 186.487216 88.112432 
L 187.248125 88.112432 
L 187.248125 91.127167 
L 188.009034 91.127167 
L 188.009034 92.758996 
L 188.769943 92.758996 
L 188.769943 117.872564 
L 189.530852 117.872564 
L 189.530852 109.353865 
L 190.291761 109.353865 
L 190.291761 88.306039 
L 191.05267 88.306039 
L 191.05267 119.891607 
L 191.81358 119.891607 
L 191.81358 96.852397 
L 192.574489 96.852397 
L 192.574489 112.562206 
L 193.335398 112.562206 
L 193.335398 115.300359 
L 194.096307 115.300359 
L 194.096307 101.664909 
L 194.857216 101.664909 
L 194.857216 120.859641 
L 195.618125 120.859641 
L 195.618125 108.441147 
L 196.379034 108.441147 
L 196.379034 114.277009 
L 197.139943 114.277009 
L 197.139943 117.734274 
L 197.900852 117.734274 
L 197.900852 112.64518 
L 198.661761 112.64518 
L 198.661761 124.455196 
L 199.42267 124.455196 
L 199.42267 114.747197 
L 200.18358 114.747197 
L 200.18358 125.616836 
L 200.944489 125.616836 
L 200.944489 130.650613 
L 201.705398 130.650613 
L 201.705398 122.270204 
L 202.466307 122.270204 
L 202.466307 110.321899 
L 203.227216 110.321899 
L 203.227216 152.611157 
L 203.988125 152.611157 
L 203.988125 107.22419 
L 204.749034 107.22419 
L 204.749034 125.810443 
L 205.509943 125.810443 
L 205.509943 144.922201 
L 206.270852 144.922201 
L 206.270852 131.922887 
L 207.031761 131.922887 
L 207.031761 132.088835 
L 207.79267 132.088835 
L 207.79267 124.621144 
L 208.55358 124.621144 
L 208.55358 132.973895 
L 209.314489 132.973895 
L 209.314489 134.744014 
L 210.075398 134.744014 
L 210.075398 133.305792 
L 210.836307 133.305792 
L 210.836307 146.1115 
L 211.597216 146.1115 
L 211.597216 129.876186 
L 212.358125 129.876186 
L 212.358125 133.997245 
L 213.119034 133.997245 
L 213.119034 152.306917 
L 213.879943 152.306917 
L 213.879943 141.796834 
L 214.640852 141.796834 
L 214.640852 138.782099 
L 215.401761 138.782099 
L 215.401761 152.085652 
L 216.16267 152.085652 
L 216.16267 144.34138 
L 216.92358 144.34138 
L 216.92358 143.89885 
L 217.684489 143.89885 
L 217.684489 140.690509 
L 218.445398 140.690509 
L 218.445398 148.545414 
L 219.206307 148.545414 
L 219.206307 154.436592 
L 219.967216 154.436592 
L 219.967216 141.326646 
L 220.728125 141.326646 
L 220.728125 153.330268 
L 221.489034 153.330268 
L 221.489034 158.834232 
L 222.249943 158.834232 
L 222.249943 148.821995 
L 223.010852 148.821995 
L 223.010852 144.700936 
L 223.771761 144.700936 
L 223.771761 148.877311 
L 224.53267 148.877311 
L 224.53267 142.045757 
L 225.29358 142.045757 
L 225.29358 153.994062 
L 226.054489 153.994062 
L 226.054489 161.904283 
L 226.815398 161.904283 
L 226.815398 163.508454 
L 227.576307 163.508454 
L 227.576307 156.096079 
L 228.337216 156.096079 
L 228.337216 149.734713 
L 229.098125 149.734713 
L 229.098125 155.459942 
L 229.859034 155.459942 
L 229.859034 161.572386 
L 230.619943 161.572386 
L 230.619943 155.79184 
L 231.380852 155.79184 
L 231.380852 162.208522 
L 232.141761 162.208522 
L 232.141761 161.489411 
L 232.90267 161.489411 
L 232.90267 169.814504 
L 233.66358 169.814504 
L 233.66358 167.491222 
L 234.424489 167.491222 
L 234.424489 159.968215 
L 235.185398 159.968215 
L 235.185398 160.604352 
L 235.946307 160.604352 
L 235.946307 158.529993 
L 236.707216 158.529993 
L 236.707216 169.095393 
L 237.468125 169.095393 
L 237.468125 174.848281 
L 238.229034 174.848281 
L 238.229034 162.346813 
L 238.989943 162.346813 
L 238.989943 166.49553 
L 239.750852 166.49553 
L 239.750852 171.722914 
L 240.511761 171.722914 
L 240.511761 166.827428 
L 241.27267 166.827428 
L 241.27267 171.308042 
L 242.03358 171.308042 
L 242.03358 164.282881 
L 242.794489 164.282881 
L 242.794489 167.463564 
L 243.555398 167.463564 
L 243.555398 173.022845 
L 244.316307 173.022845 
L 244.316307 175.733341 
L 245.077216 175.733341 
L 245.077216 171.19741 
L 245.838125 171.19741 
L 245.838125 169.067735 
L 246.599034 169.067735 
L 246.599034 178.250229 
L 247.359943 178.250229 
L 247.359943 172.995187 
L 248.120852 172.995187 
L 248.120852 174.295119 
L 248.881761 174.295119 
L 248.881761 179.522502 
L 249.64267 179.522502 
L 249.64267 174.239802 
L 250.40358 174.239802 
L 250.40358 181.928758 
L 251.164489 181.928758 
L 251.164489 165.02965 
L 251.925398 165.02965 
L 251.925398 187.736963 
L 252.686307 187.736963 
L 252.686307 185.386023 
L 253.447216 185.386023 
L 253.447216 182.952109 
L 254.208125 182.952109 
L 254.208125 177.171563 
L 254.969034 177.171563 
L 254.969034 186.547664 
L 255.729943 186.547664 
L 255.729943 185.71792 
L 256.490852 185.71792 
L 256.490852 187.598672 
L 257.251761 187.598672 
L 257.251761 181.679835 
L 258.01267 181.679835 
L 258.01267 184.362673 
L 258.77358 184.362673 
L 258.77358 188.677338 
L 259.534489 188.677338 
L 259.534489 186.934877 
L 260.295398 186.934877 
L 260.295398 192.02397 
L 261.056307 192.02397 
L 261.056307 187.48804 
L 261.817216 187.48804 
L 261.817216 194.789782 
L 263.339034 194.762124 
L 263.339034 192.106945 
L 264.099943 192.106945 
L 264.099943 193.323902 
L 264.860852 193.323902 
L 264.860852 192.272893 
L 265.621761 192.272893 
L 265.621761 194.789782 
L 266.38267 194.789782 
L 266.38267 196.587559 
L 267.14358 196.587559 
L 267.14358 193.849406 
L 267.904489 193.849406 
L 267.904489 197.942807 
L 268.665398 197.942807 
L 268.665398 199.712926 
L 269.426307 199.712926 
L 269.426307 196.338636 
L 270.187216 196.338636 
L 270.187216 202.478738 
L 270.948125 202.478738 
L 270.948125 203.944618 
L 271.709034 203.944618 
L 271.709034 196.86414 
L 272.469943 196.86414 
L 272.469943 201.095832 
L 273.230852 201.095832 
L 273.230852 200.404379 
L 273.991761 200.404379 
L 273.991761 201.842601 
L 274.75267 201.842601 
L 274.75267 202.58937 
L 275.51358 202.58937 
L 275.51358 202.229815 
L 276.274489 202.229815 
L 276.274489 204.387148 
L 277.035398 204.387148 
L 277.035398 205.327524 
L 277.796307 205.327524 
L 277.796307 205.714737 
L 278.557216 205.714737 
L 278.557216 204.304173 
L 279.318125 204.304173 
L 279.318125 206.350874 
L 280.079034 206.350874 
L 280.079034 206.765746 
L 280.839943 206.765746 
L 280.839943 205.714737 
L 281.600852 205.714737 
L 281.600852 206.627455 
L 283.12267 206.710429 
L 283.12267 209.365608 
L 283.88358 209.365608 
L 283.88358 208.231626 
L 284.644489 208.231626 
L 284.644489 210.776172 
L 285.405398 210.776172 
L 285.405398 206.821062 
L 286.166307 206.821062 
L 286.166307 210.748514 
L 287.688125 210.859147 
L 287.688125 210.305984 
L 289.209943 210.361301 
L 289.209943 212.269711 
L 289.970852 212.269711 
L 289.970852 212.850531 
L 290.731761 212.850531 
L 290.731761 211.467625 
L 291.49267 211.467625 
L 291.49267 211.716548 
L 292.25358 211.716548 
L 292.25358 212.518634 
L 293.014489 212.518634 
L 293.014489 213.376035 
L 293.775398 213.376035 
L 293.775398 213.569642 
L 294.536307 213.569642 
L 294.536307 213.348377 
L 295.297216 213.348377 
L 295.297216 213.210086 
L 296.058125 213.210086 
L 296.058125 214.150462 
L 296.819034 214.150462 
L 296.819034 215.644001 
L 297.579943 215.644001 
L 297.579943 214.427043 
L 298.340852 214.427043 
L 298.340852 215.312103 
L 299.101761 215.312103 
L 299.101761 216.307795 
L 302.145398 216.363112 
L 302.145398 216.501402 
L 302.906307 216.501402 
L 302.906307 217.248171 
L 303.667216 217.248171 
L 303.667216 216.888616 
L 305.189034 216.805641 
L 305.189034 217.303487 
L 305.949943 217.303487 
L 305.949943 217.580069 
L 306.710852 217.580069 
L 306.710852 217.773675 
L 307.471761 217.773675 
L 307.471761 218.105573 
L 308.23267 218.105573 
L 308.23267 218.409812 
L 309.754489 218.492786 
L 309.754489 218.575761 
L 312.798125 218.686393 
L 312.798125 218.824684 
L 372.909943 218.88 
L 372.909943 218.88 
" clip-path="url(#p78d2c7c1da)" style="fill: none; stroke: #1f77b4; stroke-width: 1.5; stroke-linecap: square"/>
   </g>
   <g id="line2d_18">
    <path d="M 68.546307 218.88 
L 76.916307 218.88 
L 76.916307 218.741709 
L 78.438125 218.769368 
L 78.438125 218.88 
L 79.199034 218.88 
L 79.199034 218.714051 
L 83.764489 218.631077 
L 83.764489 218.354496 
L 84.525398 218.354496 
L 84.525398 218.631077 
L 85.286307 218.631077 
L 85.286307 218.354496 
L 88.329943 218.382154 
L 88.329943 217.939624 
L 89.851761 217.967282 
L 89.851761 218.43747 
L 90.61267 218.43747 
L 90.61267 217.801334 
L 92.895398 217.828992 
L 92.895398 217.580069 
L 93.656307 217.580069 
L 93.656307 217.441778 
L 95.178125 217.55241 
L 95.178125 216.833299 
L 96.699943 216.943932 
L 96.699943 216.446086 
L 97.460852 216.446086 
L 97.460852 216.639693 
L 98.221761 216.639693 
L 98.221761 216.860958 
L 98.98267 216.860958 
L 98.98267 215.201471 
L 99.74358 215.201471 
L 99.74358 214.841915 
L 101.265398 214.897231 
L 101.265398 214.675967 
L 102.026307 214.675967 
L 102.026307 214.427043 
L 102.787216 214.427043 
L 102.787216 213.735591 
L 103.548125 213.735591 
L 103.548125 212.656924 
L 104.309034 212.656924 
L 104.309034 212.242052 
L 105.069943 212.242052 
L 105.069943 210.886805 
L 105.830852 210.886805 
L 105.830852 211.993129 
L 106.591761 211.993129 
L 106.591761 208.950737 
L 107.35267 208.950737 
L 107.35267 208.093335 
L 108.11358 208.093335 
L 108.11358 208.425233 
L 108.874489 208.425233 
L 108.874489 206.295558 
L 109.635398 206.295558 
L 109.635398 203.142533 
L 110.396307 203.142533 
L 110.396307 203.778669 
L 111.157216 203.778669 
L 111.157216 201.012858 
L 111.918125 201.012858 
L 111.918125 197.085405 
L 112.679034 197.085405 
L 112.679034 193.738773 
L 113.439943 193.738773 
L 113.439943 192.189919 
L 114.200852 192.189919 
L 114.200852 188.013544 
L 114.961761 188.013544 
L 114.961761 187.515698 
L 115.72267 187.515698 
L 115.72267 182.150023 
L 116.48358 182.150023 
L 116.48358 180.545853 
L 117.244489 180.545853 
L 117.244489 176.6184 
L 118.005398 176.6184 
L 118.005398 171.363358 
L 118.766307 171.363358 
L 118.766307 169.952795 
L 119.527216 169.952795 
L 119.527216 164.559462 
L 120.288125 164.559462 
L 120.288125 164.421172 
L 121.049034 164.421172 
L 121.049034 158.806574 
L 121.809943 158.806574 
L 121.809943 156.981139 
L 122.570852 156.981139 
L 122.570852 153.081344 
L 123.331761 153.081344 
L 123.331761 147.051875 
L 124.09267 147.051875 
L 124.09267 145.420047 
L 124.85358 145.420047 
L 124.85358 144.009483 
L 125.614489 144.009483 
L 125.614489 133.056869 
L 126.375398 133.056869 
L 126.375398 135.075912 
L 127.136307 135.075912 
L 127.136307 124.09564 
L 127.897216 124.09564 
L 127.897216 120.997931 
L 128.658125 120.997931 
L 128.658125 115.88118 
L 130.179943 115.936496 
L 130.179943 104.707301 
L 130.940852 104.707301 
L 130.940852 109.492155 
L 131.701761 109.492155 
L 131.701761 99.59055 
L 132.46267 99.59055 
L 132.46267 97.599166 
L 133.22358 97.599166 
L 133.22358 93.090893 
L 133.984489 93.090893 
L 133.984489 89.688945 
L 134.745398 89.688945 
L 134.745398 81.39151 
L 135.506307 81.39151 
L 135.506307 63.220129 
L 136.267216 63.220129 
L 136.267216 78.072537 
L 137.028125 78.072537 
L 137.028125 69.055991 
L 137.789034 69.055991 
L 137.789034 56.914079 
L 138.549943 56.914079 
L 138.549943 66.622077 
L 139.310852 66.622077 
L 139.310852 62.943548 
L 140.071761 62.943548 
L 140.071761 70.466555 
L 140.83267 70.466555 
L 140.83267 53.37384 
L 141.59358 53.37384 
L 141.59358 59.016095 
L 142.354489 59.016095 
L 142.354489 59.818181 
L 143.115398 59.818181 
L 143.115398 60.454317 
L 143.876307 60.454317 
L 143.876307 43.83179 
L 144.637216 43.83179 
L 144.637216 43.195654 
L 145.398125 43.195654 
L 145.398125 36.308783 
L 146.159034 36.308783 
L 146.159034 50.082524 
L 146.919943 50.082524 
L 146.919943 54.895036 
L 147.680852 54.895036 
L 147.680852 52.93131 
L 148.441761 52.93131 
L 148.441761 47.786901 
L 149.20267 47.786901 
L 149.20267 44.689192 
L 149.96358 44.689192 
L 149.96358 57.024711 
L 150.724489 57.024711 
L 150.724489 52.129225 
L 151.485398 52.129225 
L 151.485398 39.821364 
L 152.246307 39.821364 
L 152.246307 58.628882 
L 153.007216 58.628882 
L 153.007216 19.879863 
L 153.768125 19.879863 
L 153.768125 62.418044 
L 154.529034 62.418044 
L 154.529034 41.536167 
L 155.289943 41.536167 
L 155.289943 28.232614 
L 156.050852 28.232614 
L 156.050852 60.426659 
L 156.811761 60.426659 
L 156.811761 46.514628 
L 157.57267 46.514628 
L 157.57267 41.729774 
L 158.33358 41.729774 
L 158.33358 57.245976 
L 159.094489 57.245976 
L 159.094489 43.140337 
L 159.855398 43.140337 
L 159.855398 39.129911 
L 160.616307 39.129911 
L 160.616307 51.576063 
L 161.377216 51.576063 
L 161.377216 43.582867 
L 162.138125 43.582867 
L 162.138125 45.270012 
L 162.899034 45.270012 
L 162.899034 40.512817 
L 163.659943 40.512817 
L 163.659943 54.286558 
L 164.420852 54.286558 
L 164.420852 44.440269 
L 165.181761 44.440269 
L 165.181761 63.773291 
L 165.94267 63.773291 
L 165.94267 38.798013 
L 166.70358 38.798013 
L 166.70358 52.848336 
L 167.464489 52.848336 
L 167.464489 55.918387 
L 168.225398 55.918387 
L 168.225398 44.550901 
L 168.986307 44.550901 
L 168.986307 51.188849 
L 169.747216 51.188849 
L 169.747216 64.603035 
L 170.508125 64.603035 
L 170.508125 47.593294 
L 171.269034 47.593294 
L 171.269034 57.882113 
L 172.029943 57.882113 
L 172.029943 54.618455 
L 172.790852 54.618455 
L 172.790852 60.481976 
L 173.551761 60.481976 
L 173.551761 58.352301 
L 174.31267 58.352301 
L 174.31267 64.990248 
L 175.07358 64.990248 
L 175.07358 68.309222 
L 175.834489 68.309222 
L 175.834489 88.278381 
L 176.595398 88.278381 
L 176.595398 65.460436 
L 177.356307 65.460436 
L 177.356307 81.83404 
L 178.117216 81.83404 
L 178.117216 65.349804 
L 178.878125 65.349804 
L 178.878125 71.296299 
L 179.639034 71.296299 
L 179.639034 76.938554 
L 180.399943 76.938554 
L 180.399943 75.057802 
L 181.160852 75.057802 
L 181.160852 94.999303 
L 181.921761 94.999303 
L 181.921761 93.533423 
L 182.68267 93.533423 
L 182.68267 79.842656 
L 183.44358 79.842656 
L 183.44358 91.182483 
L 184.204489 91.182483 
L 184.204489 86.563578 
L 184.965398 86.563578 
L 184.965398 106.117865 
L 185.726307 106.117865 
L 185.726307 90.103817 
L 186.487216 90.103817 
L 186.487216 102.411678 
L 187.248125 102.411678 
L 187.248125 91.707987 
L 188.009034 91.707987 
L 188.009034 104.983883 
L 188.769943 104.983883 
L 188.769943 84.074348 
L 189.530852 84.074348 
L 189.530852 101.581934 
L 190.291761 101.581934 
L 190.291761 101.913832 
L 191.05267 101.913832 
L 191.05267 109.934685 
L 191.81358 109.934685 
L 191.81358 106.560395 
L 192.574489 106.560395 
L 192.574489 116.544975 
L 193.335398 116.544975 
L 193.335398 111.400565 
L 194.096307 111.400565 
L 194.096307 111.981386 
L 194.857216 111.981386 
L 194.857216 113.419608 
L 195.618125 113.419608 
L 195.618125 99.922448 
L 196.379034 99.922448 
L 196.379034 123.542478 
L 197.139943 123.542478 
L 197.139943 107.334822 
L 197.900852 107.334822 
L 197.900852 122.048939 
L 198.661761 122.048939 
L 198.661761 110.377215 
L 199.42267 110.377215 
L 199.42267 132.863262 
L 200.18358 132.863262 
L 200.18358 114.304667 
L 200.944489 114.304667 
L 200.944489 127.995434 
L 201.705398 127.995434 
L 201.705398 129.599605 
L 202.466307 129.599605 
L 202.466307 122.159572 
L 203.227216 122.159572 
L 203.227216 127.248665 
L 203.988125 127.248665 
L 203.988125 127.525246 
L 204.749034 127.525246 
L 204.749034 126.474238 
L 205.509943 126.474238 
L 205.509943 128.631571 
L 206.270852 128.631571 
L 206.270852 132.144151 
L 207.031761 132.144151 
L 207.031761 136.597108 
L 207.79267 136.597108 
L 207.79267 122.712734 
L 208.55358 122.712734 
L 208.55358 145.475363 
L 209.314489 145.475363 
L 209.314489 132.365416 
L 210.075398 132.365416 
L 210.075398 136.597108 
L 210.836307 136.597108 
L 210.836307 130.291058 
L 211.597216 130.291058 
L 211.597216 140.994748 
L 212.358125 140.994748 
L 212.358125 130.539981 
L 213.119034 130.539981 
L 213.119034 154.02172 
L 213.879943 154.02172 
L 213.879943 137.5928 
L 214.640852 137.5928 
L 214.640852 135.712048 
L 215.401761 135.712048 
L 215.401761 150.06661 
L 216.16267 150.06661 
L 216.16267 143.649927 
L 216.92358 143.649927 
L 216.92358 150.06661 
L 217.684489 150.06661 
L 217.684489 144.009483 
L 218.445398 144.009483 
L 218.445398 157.202404 
L 219.206307 157.202404 
L 219.206307 134.66104 
L 219.967216 134.66104 
L 219.967216 147.770986 
L 220.728125 147.770986 
L 220.728125 157.866198 
L 221.489034 157.866198 
L 221.489034 151.615464 
L 222.249943 151.615464 
L 222.249943 137.703433 
L 223.010852 137.703433 
L 223.010852 159.332078 
L 223.771761 159.332078 
L 223.771761 141.630885 
L 224.53267 141.630885 
L 224.53267 166.467872 
L 225.29358 166.467872 
L 225.29358 151.228251 
L 226.054489 151.228251 
L 226.054489 147.27314 
L 226.815398 147.27314 
L 226.815398 158.695942 
L 227.576307 158.695942 
L 227.576307 154.353618 
L 228.337216 154.353618 
L 228.337216 160.687326 
L 229.098125 160.687326 
L 229.098125 156.040763 
L 229.859034 156.040763 
L 229.859034 160.244796 
L 230.619943 160.244796 
L 230.619943 155.847156 
L 231.380852 155.847156 
L 231.380852 165.223257 
L 232.141761 165.223257 
L 232.141761 162.263839 
L 232.90267 162.263839 
L 232.90267 159.774608 
L 233.66358 159.774608 
L 233.66358 162.429787 
L 234.424489 162.429787 
L 234.424489 165.223257 
L 235.185398 165.223257 
L 235.185398 167.352932 
L 235.946307 167.352932 
L 235.946307 169.178367 
L 236.707216 169.178367 
L 236.707216 160.244796 
L 237.468125 160.244796 
L 237.468125 165.084966 
L 238.229034 165.084966 
L 238.229034 164.421172 
L 238.989943 164.421172 
L 238.989943 169.399632 
L 239.750852 169.399632 
L 239.750852 164.504146 
L 240.511761 164.504146 
L 240.511761 167.712487 
L 241.27267 167.712487 
L 241.27267 176.563084 
L 242.03358 176.563084 
L 242.03358 160.991565 
L 242.794489 160.991565 
L 242.794489 177.392828 
L 243.555398 177.392828 
L 243.555398 169.565581 
L 244.316307 169.565581 
L 244.316307 167.491222 
L 245.077216 167.491222 
L 245.077216 173.769614 
L 245.838125 173.769614 
L 245.838125 175.733341 
L 246.599034 175.733341 
L 246.599034 172.331393 
L 247.359943 172.331393 
L 247.359943 175.954606 
L 248.120852 175.954606 
L 248.120852 176.812007 
L 248.881761 176.812007 
L 248.881761 172.967529 
L 249.64267 172.967529 
L 249.64267 176.646058 
L 250.40358 176.646058 
L 250.40358 175.235495 
L 251.164489 175.235495 
L 251.164489 185.607288 
L 251.925398 185.607288 
L 251.925398 179.162947 
L 252.686307 179.162947 
L 252.686307 173.271768 
L 253.447216 173.271768 
L 253.447216 190.087902 
L 254.208125 190.087902 
L 254.208125 182.232998 
L 254.969034 182.232998 
L 254.969034 185.026467 
L 255.729943 185.026467 
L 255.729943 188.317783 
L 256.490852 188.317783 
L 256.490852 179.218263 
L 257.251761 179.218263 
L 257.251761 185.994501 
L 258.01267 185.994501 
L 258.01267 184.003117 
L 258.77358 184.003117 
L 258.77358 187.543356 
L 259.534489 187.543356 
L 259.534489 192.632449 
L 260.295398 192.632449 
L 260.295398 188.373099 
L 261.056307 188.373099 
L 261.056307 190.253851 
L 261.817216 190.253851 
L 261.817216 192.494158 
L 262.578125 192.494158 
L 262.578125 187.515698 
L 263.339034 187.515698 
L 263.339034 195.342944 
L 264.099943 195.342944 
L 264.099943 194.983389 
L 264.860852 194.983389 
L 264.860852 192.992004 
L 265.621761 192.992004 
L 265.621761 196.781166 
L 266.38267 196.781166 
L 266.38267 193.79409 
L 267.14358 193.79409 
L 267.14358 194.37491 
L 267.904489 194.37491 
L 267.904489 196.836482 
L 268.665398 196.836482 
L 268.665398 196.366294 
L 269.426307 196.366294 
L 269.426307 201.731969 
L 270.187216 201.731969 
L 270.187216 197.7492 
L 270.948125 197.7492 
L 270.948125 201.953234 
L 271.709034 201.953234 
L 271.709034 201.400071 
L 272.469943 201.400071 
L 272.469943 202.976584 
L 273.230852 202.976584 
L 273.230852 198.606602 
L 273.991761 198.606602 
L 273.991761 201.870259 
L 274.75267 201.870259 
L 274.75267 199.961849 
L 275.51358 199.961849 
L 275.51358 204.442464 
L 277.035398 204.470122 
L 277.035398 205.327524 
L 277.796307 205.327524 
L 277.796307 205.687079 
L 278.557216 205.687079 
L 278.557216 205.465814 
L 279.318125 205.465814 
L 279.318125 203.889302 
L 280.079034 203.889302 
L 280.079034 206.323216 
L 280.839943 206.323216 
L 280.839943 207.263592 
L 281.600852 207.263592 
L 281.600852 205.659421 
L 282.361761 205.659421 
L 282.361761 207.235934 
L 283.88358 207.29125 
L 283.88358 211.218702 
L 284.644489 211.218702 
L 284.644489 208.369916 
L 285.405398 208.369916 
L 285.405398 207.263592 
L 286.166307 207.263592 
L 286.166307 210.859147 
L 286.927216 210.859147 
L 286.927216 210.305984 
L 287.688125 210.305984 
L 287.688125 210.859147 
L 288.449034 210.859147 
L 288.449034 210.471933 
L 289.209943 210.471933 
L 289.209943 211.301676 
L 289.970852 211.301676 
L 289.970852 212.739898 
L 290.731761 212.739898 
L 290.731761 212.961163 
L 291.49267 212.961163 
L 291.49267 210.776172 
L 292.25358 210.776172 
L 292.25358 211.910155 
L 293.014489 211.910155 
L 293.014489 213.873881 
L 293.775398 213.873881 
L 293.775398 213.237745 
L 294.536307 213.237745 
L 294.536307 214.067488 
L 295.297216 214.067488 
L 295.297216 213.237745 
L 296.058125 213.237745 
L 296.058125 213.763249 
L 296.819034 213.763249 
L 296.819034 215.450394 
L 297.579943 215.450394 
L 297.579943 214.897231 
L 298.340852 214.897231 
L 298.340852 215.50571 
L 299.86267 215.588684 
L 299.86267 216.695009 
L 300.62358 216.695009 
L 300.62358 216.418428 
L 301.384489 216.418428 
L 301.384489 216.252479 
L 302.145398 216.252479 
L 302.145398 216.39077 
L 302.906307 216.39077 
L 302.906307 217.275829 
L 303.667216 217.275829 
L 303.667216 216.722667 
L 305.189034 216.833299 
L 305.189034 217.607727 
L 305.949943 217.607727 
L 305.949943 217.358804 
L 306.710852 217.358804 
L 306.710852 217.828992 
L 307.471761 217.828992 
L 307.471761 218.188547 
L 308.99358 218.29918 
L 308.99358 218.520445 
L 310.515398 218.548103 
L 310.515398 218.658735 
L 312.798125 218.769368 
L 312.798125 218.88 
L 372.909943 218.88 
L 372.909943 218.88 
" clip-path="url(#p78d2c7c1da)" style="fill: none; stroke: #ff7f0e; stroke-width: 1.5; stroke-linecap: square"/>
   </g>
   <g id="line2d_19">
    <path d="M 68.546307 218.88 
L 76.916307 218.824684 
L 76.916307 218.686393 
L 83.764489 218.575761 
L 83.764489 218.465128 
L 86.047216 218.520445 
L 86.047216 218.271521 
L 86.808125 218.271521 
L 86.808125 218.43747 
L 87.569034 218.43747 
L 87.569034 218.271521 
L 89.851761 218.216205 
L 89.851761 217.939624 
L 92.134489 217.911966 
L 92.134489 217.746017 
L 93.656307 217.773675 
L 93.656307 217.303487 
L 94.417216 217.303487 
L 94.417216 217.497094 
L 95.178125 217.497094 
L 95.178125 216.888616 
L 95.939034 216.888616 
L 95.939034 217.137539 
L 96.699943 217.137539 
L 96.699943 216.418428 
L 98.221761 216.307795 
L 98.221761 216.556718 
L 98.98267 216.556718 
L 98.98267 215.201471 
L 99.74358 215.201471 
L 99.74358 215.450394 
L 100.504489 215.450394 
L 100.504489 215.201471 
L 101.265398 215.201471 
L 101.265398 214.454702 
L 102.026307 214.454702 
L 102.026307 214.675967 
L 102.787216 214.675967 
L 102.787216 212.71224 
L 103.548125 212.71224 
L 103.548125 212.878189 
L 104.309034 212.878189 
L 104.309034 212.020787 
L 105.830852 211.937813 
L 105.830852 210.112378 
L 106.591761 210.112378 
L 106.591761 210.361301 
L 107.35267 210.361301 
L 107.35267 208.342258 
L 108.11358 208.342258 
L 108.11358 207.235934 
L 108.874489 207.235934 
L 108.874489 206.2679 
L 109.635398 206.2679 
L 109.635398 204.35949 
L 110.396307 204.35949 
L 110.396307 203.142533 
L 111.157216 203.142533 
L 111.157216 200.487354 
L 111.918125 200.487354 
L 111.918125 196.255662 
L 112.679034 196.255662 
L 112.679034 195.094021 
L 113.439943 195.094021 
L 113.439943 192.079287 
L 114.200852 192.079287 
L 114.200852 189.424108 
L 114.961761 189.424108 
L 114.961761 184.583937 
L 115.72267 184.583937 
L 115.72267 183.062741 
L 116.48358 183.062741 
L 116.48358 179.660793 
L 117.244489 179.660793 
L 117.244489 175.899289 
L 118.005398 175.899289 
L 118.005398 174.654674 
L 118.766307 174.654674 
L 118.766307 168.984761 
L 119.527216 168.984761 
L 119.527216 166.108317 
L 120.288125 166.108317 
L 120.288125 161.821309 
L 121.049034 161.821309 
L 121.049034 158.861891 
L 121.809943 158.861891 
L 121.809943 155.819498 
L 122.570852 155.819498 
L 122.570852 151.97502 
L 123.331761 151.97502 
L 123.331761 148.462439 
L 124.09267 148.462439 
L 124.09267 146.941243 
L 124.85358 146.941243 
L 124.85358 139.916082 
L 125.614489 139.916082 
L 125.614489 136.12692 
L 126.375398 136.12692 
L 126.375398 130.650613 
L 127.136307 130.650613 
L 127.136307 126.00405 
L 127.897216 126.00405 
L 127.897216 121.689384 
L 128.658125 121.689384 
L 128.658125 117.872564 
L 129.419034 117.872564 
L 129.419034 113.502582 
L 130.179943 113.502582 
L 130.179943 108.717728 
L 130.940852 108.717728 
L 130.940852 102.771233 
L 131.701761 102.771233 
L 131.701761 103.213763 
L 132.46267 103.213763 
L 132.46267 95.386517 
L 133.22358 95.386517 
L 133.22358 92.26115 
L 133.984489 92.26115 
L 133.984489 88.112432 
L 134.745398 88.112432 
L 134.745398 77.021528 
L 135.506307 77.021528 
L 135.506307 78.072537 
L 136.267216 78.072537 
L 136.267216 67.866692 
L 137.789034 67.922009 
L 137.789034 63.192471 
L 139.310852 63.303103 
L 139.310852 61.754249 
L 140.071761 61.754249 
L 140.071761 62.252095 
L 140.83267 62.252095 
L 140.83267 60.316027 
L 141.59358 60.316027 
L 141.59358 59.043754 
L 142.354489 59.043754 
L 142.354489 54.756746 
L 143.115398 54.756746 
L 143.115398 51.852644 
L 143.876307 51.852644 
L 143.876307 51.714353 
L 144.637216 51.714353 
L 144.637216 49.169807 
L 145.398125 49.169807 
L 145.398125 47.786901 
L 146.159034 47.786901 
L 146.159034 44.772166 
L 146.919943 44.772166 
L 146.919943 46.846525 
L 147.680852 46.846525 
L 147.680852 46.265704 
L 148.441761 46.265704 
L 148.441761 54.950353 
L 149.20267 54.950353 
L 149.20267 50.746319 
L 149.96358 50.746319 
L 149.96358 50.469738 
L 150.724489 50.469738 
L 150.724489 49.639995 
L 151.485398 49.639995 
L 151.485398 49.031516 
L 152.246307 49.031516 
L 152.246307 45.270012 
L 153.007216 45.270012 
L 153.007216 44.633876 
L 153.768125 44.633876 
L 153.768125 43.223312 
L 154.529034 43.223312 
L 154.529034 44.329636 
L 155.289943 44.329636 
L 155.289943 40.817056 
L 156.050852 40.817056 
L 156.050852 43.167996 
L 156.811761 43.167996 
L 156.811761 48.312405 
L 157.57267 48.312405 
L 157.57267 49.335755 
L 158.33358 49.335755 
L 158.33358 52.875994 
L 159.094489 52.875994 
L 159.094489 46.735892 
L 159.855398 46.735892 
L 159.855398 45.131722 
L 161.377216 45.021089 
L 161.377216 48.09114 
L 162.138125 48.09114 
L 162.138125 42.172303 
L 162.899034 42.172303 
L 162.899034 47.482662 
L 163.659943 47.482662 
L 163.659943 45.048747 
L 164.420852 45.048747 
L 164.420852 47.703926 
L 165.181761 47.703926 
L 165.181761 48.09114 
L 165.94267 48.09114 
L 165.94267 53.567447 
L 166.70358 53.567447 
L 166.70358 53.788712 
L 168.225398 53.733396 
L 168.225398 56.969395 
L 168.986307 56.969395 
L 168.986307 53.650421 
L 169.747216 53.650421 
L 169.747216 52.239857 
L 170.508125 52.239857 
L 170.508125 55.890728 
L 171.269034 55.890728 
L 171.269034 54.120609 
L 172.029943 54.120609 
L 172.029943 54.618455 
L 172.790852 54.618455 
L 172.790852 62.528676 
L 173.551761 62.528676 
L 173.551761 62.113804 
L 174.31267 62.113804 
L 174.31267 67.866692 
L 175.07358 67.866692 
L 175.07358 65.432778 
L 175.834489 65.432778 
L 175.834489 73.674896 
L 176.595398 73.674896 
L 176.595398 73.204708 
L 177.356307 73.204708 
L 177.356307 74.255717 
L 178.117216 74.255717 
L 178.117216 75.362041 
L 178.878125 75.362041 
L 178.878125 76.523682 
L 179.639034 76.523682 
L 179.639034 78.45975 
L 180.399943 78.45975 
L 180.399943 78.653357 
L 181.160852 78.653357 
L 181.160852 82.414861 
L 181.921761 82.414861 
L 181.921761 88.167749 
L 182.68267 88.167749 
L 182.68267 87.946484 
L 183.44358 87.946484 
L 183.44358 93.146209 
L 184.204489 93.146209 
L 184.204489 90.850586 
L 184.965398 90.850586 
L 184.965398 92.84197 
L 185.726307 92.84197 
L 185.726307 94.003611 
L 187.248125 94.086585 
L 187.248125 100.669217 
L 188.009034 100.669217 
L 188.009034 97.599166 
L 188.769943 97.599166 
L 188.769943 99.00973 
L 189.530852 99.00973 
L 189.530852 101.36067 
L 190.291761 101.36067 
L 190.291761 102.356362 
L 191.05267 102.356362 
L 191.05267 106.892292 
L 191.81358 106.892292 
L 191.81358 109.907027 
L 192.574489 109.907027 
L 192.574489 107.334822 
L 193.335398 107.334822 
L 193.335398 107.80501 
L 194.096307 107.80501 
L 194.096307 112.451574 
L 194.857216 112.451574 
L 194.857216 112.977078 
L 195.618125 112.977078 
L 195.618125 111.62183 
L 196.379034 111.62183 
L 196.379034 111.013352 
L 197.139943 111.013352 
L 197.139943 116.710923 
L 197.900852 116.710923 
L 197.900852 117.291744 
L 198.661761 117.291744 
L 198.661761 119.25547 
L 199.42267 119.25547 
L 199.42267 122.270204 
L 200.18358 122.270204 
L 200.18358 123.985008 
L 200.944489 123.985008 
L 200.944489 124.953042 
L 201.705398 124.953042 
L 201.705398 125.672153 
L 202.466307 125.672153 
L 202.466307 124.150956 
L 203.227216 124.150956 
L 203.227216 125.976392 
L 203.988125 125.976392 
L 203.988125 127.138033 
L 204.749034 127.138033 
L 204.749034 124.897725 
L 205.509943 124.897725 
L 205.509943 129.295366 
L 206.270852 129.295366 
L 206.270852 129.95916 
L 207.031761 129.95916 
L 207.031761 132.254784 
L 207.79267 132.254784 
L 207.79267 134.495091 
L 208.55358 134.495091 
L 208.55358 138.422544 
L 209.314489 138.422544 
L 209.314489 135.850339 
L 210.075398 135.850339 
L 210.075398 134.633382 
L 210.836307 134.633382 
L 210.836307 139.750133 
L 211.597216 139.750133 
L 211.597216 137.15027 
L 212.358125 137.15027 
L 212.358125 138.118304 
L 213.119034 138.118304 
L 213.119034 137.233245 
L 213.879943 137.233245 
L 213.879943 141.575569 
L 214.640852 141.575569 
L 214.640852 142.543603 
L 215.401761 142.543603 
L 215.401761 143.096765 
L 216.16267 143.096765 
L 216.16267 143.788218 
L 216.92358 143.788218 
L 216.92358 148.324149 
L 217.684489 148.324149 
L 217.684489 145.143465 
L 218.445398 145.143465 
L 218.445398 145.862576 
L 219.206307 145.862576 
L 219.206307 149.845345 
L 219.967216 149.845345 
L 219.967216 146.554029 
L 220.728125 146.554029 
L 220.728125 148.1582 
L 221.489034 148.1582 
L 221.489034 149.762371 
L 222.249943 149.762371 
L 222.249943 148.987943 
L 223.010852 148.987943 
L 223.010852 151.726097 
L 225.29358 151.615464 
L 225.29358 152.528182 
L 226.054489 152.528182 
L 226.054489 156.81519 
L 226.815398 156.81519 
L 226.815398 159.249104 
L 227.576307 159.249104 
L 227.576307 156.870506 
L 228.337216 156.870506 
L 228.337216 159.138472 
L 229.098125 159.138472 
L 229.098125 157.921515 
L 229.859034 157.921515 
L 229.859034 158.557651 
L 230.619943 158.557651 
L 230.619943 158.28107 
L 231.380852 158.28107 
L 231.380852 158.447019 
L 232.141761 158.447019 
L 232.141761 163.259531 
L 232.90267 163.259531 
L 232.90267 162.734027 
L 233.66358 162.734027 
L 233.66358 163.12124 
L 234.424489 163.12124 
L 234.424489 165.47218 
L 235.185398 165.47218 
L 235.185398 164.614778 
L 235.946307 164.614778 
L 235.946307 163.425479 
L 236.707216 163.425479 
L 236.707216 166.135975 
L 237.468125 166.135975 
L 237.468125 164.199907 
L 238.229034 164.199907 
L 238.229034 163.729719 
L 238.989943 163.729719 
L 238.989943 169.233684 
L 239.750852 169.233684 
L 239.750852 168.182675 
L 240.511761 168.182675 
L 240.511761 169.620897 
L 241.27267 169.620897 
L 241.27267 167.546539 
L 242.03358 167.546539 
L 242.03358 169.648555 
L 242.794489 169.648555 
L 242.794489 171.722914 
L 243.555398 171.722914 
L 243.555398 171.169752 
L 244.316307 171.169752 
L 244.316307 170.395324 
L 245.077216 170.395324 
L 245.077216 172.746264 
L 245.838125 172.746264 
L 245.838125 171.363358 
L 246.599034 171.363358 
L 246.599034 173.714298 
L 247.359943 173.714298 
L 247.359943 175.760999 
L 248.120852 175.760999 
L 248.120852 174.654674 
L 248.881761 174.654674 
L 248.881761 177.282195 
L 249.64267 177.282195 
L 249.64267 176.839665 
L 250.40358 176.839665 
L 250.40358 178.52681 
L 251.164489 178.52681 
L 251.164489 179.052314 
L 251.925398 179.052314 
L 251.925398 180.905408 
L 253.447216 181.016041 
L 253.447216 182.841476 
L 254.208125 182.841476 
L 254.208125 182.371288 
L 254.969034 182.371288 
L 254.969034 183.36698 
L 255.729943 183.36698 
L 255.729943 185.081784 
L 256.490852 185.081784 
L 256.490852 185.386023 
L 257.251761 185.386023 
L 257.251761 186.049818 
L 258.01267 186.049818 
L 258.01267 186.685954 
L 258.77358 186.685954 
L 258.77358 186.022159 
L 259.534489 186.022159 
L 259.534489 189.230501 
L 261.056307 189.313475 
L 261.056307 191.775047 
L 261.817216 191.775047 
L 261.817216 190.668723 
L 262.578125 190.668723 
L 262.578125 191.747389 
L 263.339034 191.747389 
L 263.339034 192.90903 
L 264.099943 192.90903 
L 264.099943 191.858022 
L 264.860852 191.858022 
L 264.860852 195.232312 
L 265.621761 195.232312 
L 265.621761 194.043013 
L 266.38267 194.043013 
L 266.38267 194.291936 
L 267.14358 194.291936 
L 267.14358 197.61091 
L 267.904489 197.61091 
L 267.904489 196.172688 
L 268.665398 196.172688 
L 268.665398 197.223696 
L 269.426307 197.223696 
L 269.426307 199.51932 
L 270.948125 199.464003 
L 270.948125 200.708618 
L 271.709034 200.708618 
L 271.709034 200.54267 
L 272.469943 200.54267 
L 272.469943 201.206465 
L 273.230852 201.206465 
L 273.230852 201.427729 
L 273.991761 201.427729 
L 273.991761 201.12349 
L 274.75267 201.12349 
L 274.75267 201.759627 
L 275.51358 201.759627 
L 275.51358 204.110567 
L 276.274489 204.110567 
L 276.274489 204.857336 
L 277.035398 204.857336 
L 277.035398 203.419114 
L 277.796307 203.419114 
L 277.796307 203.999934 
L 278.557216 203.999934 
L 278.557216 206.212583 
L 279.318125 206.212583 
L 279.318125 206.461506 
L 280.079034 206.461506 
L 280.079034 205.797712 
L 280.839943 205.797712 
L 280.839943 206.046635 
L 282.361761 206.157267 
L 282.361761 207.512515 
L 283.12267 207.512515 
L 283.12267 207.789096 
L 283.88358 207.789096 
L 283.88358 208.618839 
L 284.644489 208.618839 
L 284.644489 209.033711 
L 286.166307 209.061369 
L 286.166307 209.33795 
L 286.927216 209.33795 
L 286.927216 210.693198 
L 287.688125 210.693198 
L 287.688125 210.361301 
L 288.449034 210.361301 
L 288.449034 211.24636 
L 289.209943 211.24636 
L 289.209943 211.080412 
L 289.970852 211.080412 
L 289.970852 211.937813 
L 290.731761 211.937813 
L 290.731761 211.744206 
L 291.49267 211.744206 
L 291.49267 211.578258 
L 292.25358 211.578258 
L 292.25358 212.739898 
L 293.014489 212.739898 
L 293.014489 212.878189 
L 293.775398 212.878189 
L 293.775398 213.652616 
L 294.536307 213.652616 
L 294.536307 214.399385 
L 295.297216 214.399385 
L 295.297216 213.624958 
L 296.058125 213.624958 
L 296.058125 213.846223 
L 296.819034 213.846223 
L 296.819034 214.980206 
L 298.340852 215.035522 
L 298.340852 215.533368 
L 299.101761 215.533368 
L 299.101761 215.809949 
L 299.86267 215.809949 
L 299.86267 216.058872 
L 300.62358 216.058872 
L 300.62358 216.335453 
L 301.384489 216.335453 
L 301.384489 216.169505 
L 302.145398 216.169505 
L 302.145398 216.860958 
L 302.906307 216.860958 
L 302.906307 217.165197 
L 303.667216 217.165197 
L 303.667216 216.667351 
L 304.428125 216.667351 
L 304.428125 216.916274 
L 305.189034 216.916274 
L 305.189034 217.303487 
L 305.949943 217.303487 
L 305.949943 217.746017 
L 307.471761 217.85665 
L 307.471761 218.022598 
L 308.23267 218.022598 
L 308.23267 218.326838 
L 308.99358 218.326838 
L 308.99358 218.520445 
L 310.515398 218.465128 
L 310.515398 218.714051 
L 311.276307 218.714051 
L 311.276307 218.492786 
L 312.037216 218.492786 
L 312.037216 218.741709 
L 314.319943 218.824684 
L 314.319943 218.88 
L 372.909943 218.88 
L 372.909943 218.88 
" clip-path="url(#p78d2c7c1da)" style="fill: none; stroke: #2ca02c; stroke-width: 1.5; stroke-linecap: square"/>
   </g>
   <g id="patch_3">
    <path d="M 53.328125 228.96 
L 53.328125 7.2 
" style="fill: none; stroke: #000000; stroke-width: 0.8; stroke-linejoin: miter; stroke-linecap: square"/>
   </g>
   <g id="patch_4">
    <path d="M 388.128125 228.96 
L 388.128125 7.2 
" style="fill: none; stroke: #000000; stroke-width: 0.8; stroke-linejoin: miter; stroke-linecap: square"/>
   </g>
   <g id="patch_5">
    <path d="M 53.328125 228.96 
L 388.128125 228.96 
" style="fill: none; stroke: #000000; stroke-width: 0.8; stroke-linejoin: miter; stroke-linecap: square"/>
   </g>
   <g id="patch_6">
    <path d="M 53.328125 7.2 
L 388.128125 7.2 
" style="fill: none; stroke: #000000; stroke-width: 0.8; stroke-linejoin: miter; stroke-linecap: square"/>
   </g>
   <g id="legend_1">
    <g id="patch_7">
     <path d="M 306.904688 59.234375 
L 381.128125 59.234375 
Q 383.128125 59.234375 383.128125 57.234375 
L 383.128125 14.2 
Q 383.128125 12.2 381.128125 12.2 
L 306.904688 12.2 
Q 304.904688 12.2 304.904688 14.2 
L 304.904688 57.234375 
Q 304.904688 59.234375 306.904688 59.234375 
z
" style="fill: #ffffff; opacity: 0.8; stroke: #cccccc; stroke-linejoin: miter"/>
    </g>
    <g id="line2d_20">
     <path d="M 308.904688 20.298438 
L 308.904688 20.298438 
L 318.904688 20.298438 
L 318.904688 20.298438 
L 328.904688 20.298438 
" style="fill: none; stroke: #1f77b4; stroke-width: 1.5; stroke-linecap: square"/>
    </g>
    <g id="text_19">
     <!-- monitor -->
     <g transform="translate(336.904688 23.798438) scale(0.1 -0.1)">
      <defs>
       <path id="DejaVuSans-6d" d="M 3328 2828 
Q 3544 3216 3844 3400 
Q 4144 3584 4550 3584 
Q 5097 3584 5394 3201 
Q 5691 2819 5691 2113 
L 5691 0 
L 5113 0 
L 5113 2094 
Q 5113 2597 4934 2840 
Q 4756 3084 4391 3084 
Q 3944 3084 3684 2787 
Q 3425 2491 3425 1978 
L 3425 0 
L 2847 0 
L 2847 2094 
Q 2847 2600 2669 2842 
Q 2491 3084 2119 3084 
Q 1678 3084 1418 2786 
Q 1159 2488 1159 1978 
L 1159 0 
L 581 0 
L 581 3500 
L 1159 3500 
L 1159 2956 
Q 1356 3278 1631 3431 
Q 1906 3584 2284 3584 
Q 2666 3584 2933 3390 
Q 3200 3197 3328 2828 
z
" transform="scale(0.015625)"/>
       <path id="DejaVuSans-69" d="M 603 3500 
L 1178 3500 
L 1178 0 
L 603 0 
L 603 3500 
z
M 603 4863 
L 1178 4863 
L 1178 4134 
L 603 4134 
L 603 4863 
z
" transform="scale(0.015625)"/>
       <path id="DejaVuSans-72" d="M 2631 2963 
Q 2534 3019 2420 3045 
Q 2306 3072 2169 3072 
Q 1681 3072 1420 2755 
Q 1159 2438 1159 1844 
L 1159 0 
L 581 0 
L 581 3500 
L 1159 3500 
L 1159 2956 
Q 1341 3275 1631 3429 
Q 1922 3584 2338 3584 
Q 2397 3584 2469 3576 
Q 2541 3569 2628 3553 
L 2631 2963 
z
" transform="scale(0.015625)"/>
      </defs>
      <use xlink:href="#DejaVuSans-6d"/>
      <use xlink:href="#DejaVuSans-6f" transform="translate(97.412109 0)"/>
      <use xlink:href="#DejaVuSans-6e" transform="translate(158.59375 0)"/>
      <use xlink:href="#DejaVuSans-69" transform="translate(221.972656 0)"/>
      <use xlink:href="#DejaVuSans-74" transform="translate(249.755859 0)"/>
      <use xlink:href="#DejaVuSans-6f" transform="translate(288.964844 0)"/>
      <use xlink:href="#DejaVuSans-72" transform="translate(350.146484 0)"/>
     </g>
    </g>
    <g id="line2d_21">
     <path d="M 308.904688 34.976562 
L 308.904688 34.976562 
L 318.904688 34.976562 
L 318.904688 34.976562 
L 328.904688 34.976562 
" style="fill: none; stroke: #ff7f0e; stroke-width: 1.5; stroke-linecap: square"/>
    </g>
    <g id="text_20">
     <!-- detector -->
     <g transform="translate(336.904688 38.476562) scale(0.1 -0.1)">
      <defs>
       <path id="DejaVuSans-64" d="M 2906 2969 
L 2906 4863 
L 3481 4863 
L 3481 0 
L 2906 0 
L 2906 525 
Q 2725 213 2448 61 
Q 2172 -91 1784 -91 
Q 1150 -91 751 415 
Q 353 922 353 1747 
Q 353 2572 751 3078 
Q 1150 3584 1784 3584 
Q 2172 3584 2448 3432 
Q 2725 3281 2906 2969 
z
M 947 1747 
Q 947 1113 1208 752 
Q 1469 391 1925 391 
Q 2381 391 2643 752 
Q 2906 1113 2906 1747 
Q 2906 2381 2643 2742 
Q 2381 3103 1925 3103 
Q 1469 3103 1208 2742 
Q 947 2381 947 1747 
z
" transform="scale(0.015625)"/>
      </defs>
      <use xlink:href="#DejaVuSans-64"/>
      <use xlink:href="#DejaVuSans-65" transform="translate(63.476562 0)"/>
      <use xlink:href="#DejaVuSans-74" transform="translate(125 0)"/>
      <use xlink:href="#DejaVuSans-65" transform="translate(164.208984 0)"/>
      <use xlink:href="#DejaVuSans-63" transform="translate(225.732422 0)"/>
      <use xlink:href="#DejaVuSans-74" transform="translate(280.712891 0)"/>
      <use xlink:href="#DejaVuSans-6f" transform="translate(319.921875 0)"/>
      <use xlink:href="#DejaVuSans-72" transform="translate(381.103516 0)"/>
     </g>
    </g>
    <g id="line2d_22">
     <path d="M 308.904688 49.654688 
L 308.904688 49.654688 
L 318.904688 49.654688 
L 318.904688 49.654688 
L 328.904688 49.654688 
" style="fill: none; stroke: #2ca02c; stroke-width: 1.5; stroke-linecap: square"/>
    </g>
    <g id="text_21">
     <!-- true -->
     <g transform="translate(336.904688 53.154688) scale(0.1 -0.1)">
      <use xlink:href="#DejaVuSans-74"/>
      <use xlink:href="#DejaVuSans-72" transform="translate(39.208984 0)"/>
      <use xlink:href="#DejaVuSans-75" transform="translate(80.322266 0)"/>
      <use xlink:href="#DejaVuSans-65" transform="translate(143.701172 0)"/>
     </g>
    </g>
   </g>
  </g>
 </g>
 <defs>
  <clipPath id="p78d2c7c1da">
   <rect x="53.328125" y="7.2" width="334.8" height="221.76"/>
  </clipPath>
 </defs>
</svg>
