<?xml version="1.0" encoding="utf-8" standalone="no"?>
<!DOCTYPE svg PUBLIC "-//W3C//DTD SVG 1.1//EN"
  "http://www.w3.org/Graphics/SVG/1.1/DTD/svg11.dtd">
<svg xmlns:xlink="http://www.w3.org/1999/xlink" width="395.328125pt" height="268.200625pt" viewBox="0 0 395.328125 268.200625" xmlns="http://www.w3.org/2000/svg" version="1.1">
 <metadata>
  <rdf:RDF xmlns:dc="http://purl.org/dc/elements/1.1/" xmlns:cc="http://creativecommons.org/ns#" xmlns:rdf="http://www.w3.org/1999/02/22-rdf-syntax-ns#">
   <cc:Work>
    <dc:type rdf:resource="http://purl.org/dc/dcmitype/StillImage"/>
    <dc:date>2026-02-02T14:27:43.607125</dc:date>
    <dc:format>image/svg+xml</dc:format>
    <dc:creator>
     <cc:Agent>
      <dc:title>Matplotlib v3.10.8, https://matplotlib.org/</dc:title>
     </cc:Agent>
    </dc:creator>
   </cc:Work>
  </rdf:RDF>
 </metadata>
 <defs>
  <style type="text/css">*{stroke-linejoin: round; stroke-linecap: butt}</style>
 </defs>
 <g id="figure_1">
  <g id="patch_1">
   <path d="M 0 268.200625 
L 395.328125 268.200625 
L 395.328125 0 
L 0 0 
z
" style="fill: #ffffff"/>
  </g>
  <g id="axes_1">
   <g id="patch_2">
    <path d="M 53.328125 228.96 
L 388.128125 228.96 
L 388.128125 7.2 
L 53.328125 7.2 
z
" style="fill: #ffffff"/>
   </g>
   <g id="matplotlib.axis_1">
    <g id="xtick_1">
     <g id="line2d_1">
      <defs>
       <path id="m015124dec4" d="M 0 0 
L 0 3.5 
" style="stroke: #000000; stroke-width: 0.8"/>
      </defs>
      <g>
       <use xlink:href="#m015124dec4" x="68.546307" y="228.96" style="stroke: #000000; stroke-width: 0.8"/>
      </g>
     </g>
     <g id="text_1">
      <!-- 2 -->
      <g transform="translate(65.365057 243.558437) scale(0.1 -0.1)">
       <defs>
        <path id="DejaVuSans-32" d="M 1228 531 
L 3431 531 
L 3431 0 
L 469 0 
L 469 531 
Q 828 903 1448 1529 
Q 2069 2156 2228 2338 
Q 2531 2678 2651 2914 
Q 2772 3150 2772 3378 
Q 2772 3750 2511 3984 
Q 2250 4219 1831 4219 
Q 1534 4219 1204 4116 
Q 875 4013 500 3803 
L 500 4441 
Q 881 4594 1212 4672 
Q 1544 4750 1819 4750 
Q 2544 4750 2975 4387 
Q 3406 4025 3406 3419 
Q 3406 3131 3298 2873 
Q 3191 2616 2906 2266 
Q 2828 2175 2409 1742 
Q 1991 1309 1228 531 
z
" transform="scale(0.015625)"/>
       </defs>
       <use xlink:href="#DejaVuSans-32"/>
      </g>
     </g>
    </g>
    <g id="xtick_2">
     <g id="line2d_2">
      <g>
       <use xlink:href="#m015124dec4" x="106.591761" y="228.96" style="stroke: #000000; stroke-width: 0.8"/>
      </g>
     </g>
     <g id="text_2">
      <!-- 3 -->
      <g transform="translate(103.410511 243.558437) scale(0.1 -0.1)">
       <defs>
        <path id="DejaVuSans-33" d="M 2597 2516 
Q 3050 2419 3304 2112 
Q 3559 1806 3559 1356 
Q 3559 666 3084 287 
Q 2609 -91 1734 -91 
Q 1441 -91 1130 -33 
Q 819 25 488 141 
L 488 750 
Q 750 597 1062 519 
Q 1375 441 1716 441 
Q 2309 441 2620 675 
Q 2931 909 2931 1356 
Q 2931 1769 2642 2001 
Q 2353 2234 1838 2234 
L 1294 2234 
L 1294 2753 
L 1863 2753 
Q 2328 2753 2575 2939 
Q 2822 3125 2822 3475 
Q 2822 3834 2567 4026 
Q 2313 4219 1838 4219 
Q 1578 4219 1281 4162 
Q 984 4106 628 3988 
L 628 4550 
Q 988 4650 1302 4700 
Q 1616 4750 1894 4750 
Q 2613 4750 3031 4423 
Q 3450 4097 3450 3541 
Q 3450 3153 3228 2886 
Q 3006 2619 2597 2516 
z
" transform="scale(0.015625)"/>
       </defs>
       <use xlink:href="#DejaVuSans-33"/>
      </g>
     </g>
    </g>
    <g id="xtick_3">
     <g id="line2d_3">
      <g>
       <use xlink:href="#m015124dec4" x="144.637216" y="228.96" style="stroke: #000000; stroke-width: 0.8"/>
      </g>
     </g>
     <g id="text_3">
      <!-- 4 -->
      <g transform="translate(141.455966 243.558437) scale(0.1 -0.1)">
       <defs>
        <path id="DejaVuSans-34" d="M 2419 4116 
L 825 1625 
L 2419 1625 
L 2419 4116 
z
M 2253 4666 
L 3047 4666 
L 3047 1625 
L 3713 1625 
L 3713 1100 
L 3047 1100 
L 3047 0 
L 2419 0 
L 2419 1100 
L 313 1100 
L 313 1709 
L 2253 4666 
z
" transform="scale(0.015625)"/>
       </defs>
       <use xlink:href="#DejaVuSans-34"/>
      </g>
     </g>
    </g>
    <g id="xtick_4">
     <g id="line2d_4">
      <g>
       <use xlink:href="#m015124dec4" x="182.68267" y="228.96" style="stroke: #000000; stroke-width: 0.8"/>
      </g>
     </g>
     <g id="text_4">
      <!-- 5 -->
      <g transform="translate(179.50142 243.558437) scale(0.1 -0.1)">
       <defs>
        <path id="DejaVuSans-35" d="M 691 4666 
L 3169 4666 
L 3169 4134 
L 1269 4134 
L 1269 2991 
Q 1406 3038 1543 3061 
Q 1681 3084 1819 3084 
Q 2600 3084 3056 2656 
Q 3513 2228 3513 1497 
Q 3513 744 3044 326 
Q 2575 -91 1722 -91 
Q 1428 -91 1123 -41 
Q 819 9 494 109 
L 494 744 
Q 775 591 1075 516 
Q 1375 441 1709 441 
Q 2250 441 2565 725 
Q 2881 1009 2881 1497 
Q 2881 1984 2565 2268 
Q 2250 2553 1709 2553 
Q 1456 2553 1204 2497 
Q 953 2441 691 2322 
L 691 4666 
z
" transform="scale(0.015625)"/>
       </defs>
       <use xlink:href="#DejaVuSans-35"/>
      </g>
     </g>
    </g>
    <g id="xtick_5">
     <g id="line2d_5">
      <g>
       <use xlink:href="#m015124dec4" x="220.728125" y="228.96" style="stroke: #000000; stroke-width: 0.8"/>
      </g>
     </g>
     <g id="text_5">
      <!-- 6 -->
      <g transform="translate(217.546875 243.558437) scale(0.1 -0.1)">
       <defs>
        <path id="DejaVuSans-36" d="M 2113 2584 
Q 1688 2584 1439 2293 
Q 1191 2003 1191 1497 
Q 1191 994 1439 701 
Q 1688 409 2113 409 
Q 2538 409 2786 701 
Q 3034 994 3034 1497 
Q 3034 2003 2786 2293 
Q 2538 2584 2113 2584 
z
M 3366 4563 
L 3366 3988 
Q 3128 4100 2886 4159 
Q 2644 4219 2406 4219 
Q 1781 4219 1451 3797 
Q 1122 3375 1075 2522 
Q 1259 2794 1537 2939 
Q 1816 3084 2150 3084 
Q 2853 3084 3261 2657 
Q 3669 2231 3669 1497 
Q 3669 778 3244 343 
Q 2819 -91 2113 -91 
Q 1303 -91 875 529 
Q 447 1150 447 2328 
Q 447 3434 972 4092 
Q 1497 4750 2381 4750 
Q 2619 4750 2861 4703 
Q 3103 4656 3366 4563 
z
" transform="scale(0.015625)"/>
       </defs>
       <use xlink:href="#DejaVuSans-36"/>
      </g>
     </g>
    </g>
    <g id="xtick_6">
     <g id="line2d_6">
      <g>
       <use xlink:href="#m015124dec4" x="258.77358" y="228.96" style="stroke: #000000; stroke-width: 0.8"/>
      </g>
     </g>
     <g id="text_6">
      <!-- 7 -->
      <g transform="translate(255.59233 243.558437) scale(0.1 -0.1)">
       <defs>
        <path id="DejaVuSans-37" d="M 525 4666 
L 3525 4666 
L 3525 4397 
L 1831 0 
L 1172 0 
L 2766 4134 
L 525 4134 
L 525 4666 
z
" transform="scale(0.015625)"/>
       </defs>
       <use xlink:href="#DejaVuSans-37"/>
      </g>
     </g>
    </g>
    <g id="xtick_7">
     <g id="line2d_7">
      <g>
       <use xlink:href="#m015124dec4" x="296.819034" y="228.96" style="stroke: #000000; stroke-width: 0.8"/>
      </g>
     </g>
     <g id="text_7">
      <!-- 8 -->
      <g transform="translate(293.637784 243.558437) scale(0.1 -0.1)">
       <defs>
        <path id="DejaVuSans-38" d="M 2034 2216 
Q 1584 2216 1326 1975 
Q 1069 1734 1069 1313 
Q 1069 891 1326 650 
Q 1584 409 2034 409 
Q 2484 409 2743 651 
Q 3003 894 3003 1313 
Q 3003 1734 2745 1975 
Q 2488 2216 2034 2216 
z
M 1403 2484 
Q 997 2584 770 2862 
Q 544 3141 544 3541 
Q 544 4100 942 4425 
Q 1341 4750 2034 4750 
Q 2731 4750 3128 4425 
Q 3525 4100 3525 3541 
Q 3525 3141 3298 2862 
Q 3072 2584 2669 2484 
Q 3125 2378 3379 2068 
Q 3634 1759 3634 1313 
Q 3634 634 3220 271 
Q 2806 -91 2034 -91 
Q 1263 -91 848 271 
Q 434 634 434 1313 
Q 434 1759 690 2068 
Q 947 2378 1403 2484 
z
M 1172 3481 
Q 1172 3119 1398 2916 
Q 1625 2713 2034 2713 
Q 2441 2713 2670 2916 
Q 2900 3119 2900 3481 
Q 2900 3844 2670 4047 
Q 2441 4250 2034 4250 
Q 1625 4250 1398 4047 
Q 1172 3844 1172 3481 
z
" transform="scale(0.015625)"/>
       </defs>
       <use xlink:href="#DejaVuSans-38"/>
      </g>
     </g>
    </g>
    <g id="xtick_8">
     <g id="line2d_8">
      <g>
       <use xlink:href="#m015124dec4" x="334.864489" y="228.96" style="stroke: #000000; stroke-width: 0.8"/>
      </g>
     </g>
     <g id="text_8">
      <!-- 9 -->
      <g transform="translate(331.683239 243.558437) scale(0.1 -0.1)">
       <defs>
        <path id="DejaVuSans-39" d="M 703 97 
L 703 672 
Q 941 559 1184 500 
Q 1428 441 1663 441 
Q 2288 441 2617 861 
Q 2947 1281 2994 2138 
Q 2813 1869 2534 1725 
Q 2256 1581 1919 1581 
Q 1219 1581 811 2004 
Q 403 2428 403 3163 
Q 403 3881 828 4315 
Q 1253 4750 1959 4750 
Q 2769 4750 3195 4129 
Q 3622 3509 3622 2328 
Q 3622 1225 3098 567 
Q 2575 -91 1691 -91 
Q 1453 -91 1209 -44 
Q 966 3 703 97 
z
M 1959 2075 
Q 2384 2075 2632 2365 
Q 2881 2656 2881 3163 
Q 2881 3666 2632 3958 
Q 2384 4250 1959 4250 
Q 1534 4250 1286 3958 
Q 1038 3666 1038 3163 
Q 1038 2656 1286 2365 
Q 1534 2075 1959 2075 
z
" transform="scale(0.015625)"/>
       </defs>
       <use xlink:href="#DejaVuSans-39"/>
      </g>
     </g>
    </g>
    <g id="xtick_9">
     <g id="line2d_9">
      <g>
       <use xlink:href="#m015124dec4" x="372.909943" y="228.96" style="stroke: #000000; stroke-width: 0.8"/>
      </g>
     </g>
     <g id="text_9">
      <!-- 10 -->
      <g transform="translate(366.547443 243.558437) scale(0.1 -0.1)">
       <defs>
        <path id="DejaVuSans-31" d="M 794 531 
L 1825 531 
L 1825 4091 
L 703 3866 
L 703 4441 
L 1819 4666 
L 2450 4666 
L 2450 531 
L 3481 531 
L 3481 0 
L 794 0 
L 794 531 
z
" transform="scale(0.015625)"/>
        <path id="DejaVuSans-30" d="M 2034 4250 
Q 1547 4250 1301 3770 
Q 1056 3291 1056 2328 
Q 1056 1369 1301 889 
Q 1547 409 2034 409 
Q 2525 409 2770 889 
Q 3016 1369 3016 2328 
Q 3016 3291 2770 3770 
Q 2525 4250 2034 4250 
z
M 2034 4750 
Q 2819 4750 3233 4129 
Q 3647 3509 3647 2328 
Q 3647 1150 3233 529 
Q 2819 -91 2034 -91 
Q 1250 -91 836 529 
Q 422 1150 422 2328 
Q 422 3509 836 4129 
Q 1250 4750 2034 4750 
z
" transform="scale(0.015625)"/>
       </defs>
       <use xlink:href="#DejaVuSans-31"/>
       <use xlink:href="#DejaVuSans-30" transform="translate(63.623047 0)"/>
      </g>
     </g>
    </g>
    <g id="text_10">
     <!-- wavelength [Å] -->
     <g transform="translate(182.690625 258.920937) scale(0.1 -0.1)">
      <defs>
       <path id="DejaVuSans-77" d="M 269 3500 
L 844 3500 
L 1563 769 
L 2278 3500 
L 2956 3500 
L 3675 769 
L 4391 3500 
L 4966 3500 
L 4050 0 
L 3372 0 
L 2619 2869 
L 1863 0 
L 1184 0 
L 269 3500 
z
" transform="scale(0.015625)"/>
       <path id="DejaVuSans-61" d="M 2194 1759 
Q 1497 1759 1228 1600 
Q 959 1441 959 1056 
Q 959 750 1161 570 
Q 1363 391 1709 391 
Q 2188 391 2477 730 
Q 2766 1069 2766 1631 
L 2766 1759 
L 2194 1759 
z
M 3341 1997 
L 3341 0 
L 2766 0 
L 2766 531 
Q 2569 213 2275 61 
Q 1981 -91 1556 -91 
Q 1019 -91 701 211 
Q 384 513 384 1019 
Q 384 1609 779 1909 
Q 1175 2209 1959 2209 
L 2766 2209 
L 2766 2266 
Q 2766 2663 2505 2880 
Q 2244 3097 1772 3097 
Q 1472 3097 1187 3025 
Q 903 2953 641 2809 
L 641 3341 
Q 956 3463 1253 3523 
Q 1550 3584 1831 3584 
Q 2591 3584 2966 3190 
Q 3341 2797 3341 1997 
z
" transform="scale(0.015625)"/>
       <path id="DejaVuSans-76" d="M 191 3500 
L 800 3500 
L 1894 563 
L 2988 3500 
L 3597 3500 
L 2284 0 
L 1503 0 
L 191 3500 
z
" transform="scale(0.015625)"/>
       <path id="DejaVuSans-65" d="M 3597 1894 
L 3597 1613 
L 953 1613 
Q 991 1019 1311 708 
Q 1631 397 2203 397 
Q 2534 397 2845 478 
Q 3156 559 3463 722 
L 3463 178 
Q 3153 47 2828 -22 
Q 2503 -91 2169 -91 
Q 1331 -91 842 396 
Q 353 884 353 1716 
Q 353 2575 817 3079 
Q 1281 3584 2069 3584 
Q 2775 3584 3186 3129 
Q 3597 2675 3597 1894 
z
M 3022 2063 
Q 3016 2534 2758 2815 
Q 2500 3097 2075 3097 
Q 1594 3097 1305 2825 
Q 1016 2553 972 2059 
L 3022 2063 
z
" transform="scale(0.015625)"/>
       <path id="DejaVuSans-6c" d="M 603 4863 
L 1178 4863 
L 1178 0 
L 603 0 
L 603 4863 
z
" transform="scale(0.015625)"/>
       <path id="DejaVuSans-6e" d="M 3513 2113 
L 3513 0 
L 2938 0 
L 2938 2094 
Q 2938 2591 2744 2837 
Q 2550 3084 2163 3084 
Q 1697 3084 1428 2787 
Q 1159 2491 1159 1978 
L 1159 0 
L 581 0 
L 581 3500 
L 1159 3500 
L 1159 2956 
Q 1366 3272 1645 3428 
Q 1925 3584 2291 3584 
Q 2894 3584 3203 3211 
Q 3513 2838 3513 2113 
z
" transform="scale(0.015625)"/>
       <path id="DejaVuSans-67" d="M 2906 1791 
Q 2906 2416 2648 2759 
Q 2391 3103 1925 3103 
Q 1463 3103 1205 2759 
Q 947 2416 947 1791 
Q 947 1169 1205 825 
Q 1463 481 1925 481 
Q 2391 481 2648 825 
Q 2906 1169 2906 1791 
z
M 3481 434 
Q 3481 -459 3084 -895 
Q 2688 -1331 1869 -1331 
Q 1566 -1331 1297 -1286 
Q 1028 -1241 775 -1147 
L 775 -588 
Q 1028 -725 1275 -790 
Q 1522 -856 1778 -856 
Q 2344 -856 2625 -561 
Q 2906 -266 2906 331 
L 2906 616 
Q 2728 306 2450 153 
Q 2172 0 1784 0 
Q 1141 0 747 490 
Q 353 981 353 1791 
Q 353 2603 747 3093 
Q 1141 3584 1784 3584 
Q 2172 3584 2450 3431 
Q 2728 3278 2906 2969 
L 2906 3500 
L 3481 3500 
L 3481 434 
z
" transform="scale(0.015625)"/>
       <path id="DejaVuSans-74" d="M 1172 4494 
L 1172 3500 
L 2356 3500 
L 2356 3053 
L 1172 3053 
L 1172 1153 
Q 1172 725 1289 603 
Q 1406 481 1766 481 
L 2356 481 
L 2356 0 
L 1766 0 
Q 1100 0 847 248 
Q 594 497 594 1153 
L 594 3053 
L 172 3053 
L 172 3500 
L 594 3500 
L 594 4494 
L 1172 4494 
z
" transform="scale(0.015625)"/>
       <path id="DejaVuSans-68" d="M 3513 2113 
L 3513 0 
L 2938 0 
L 2938 2094 
Q 2938 2591 2744 2837 
Q 2550 3084 2163 3084 
Q 1697 3084 1428 2787 
Q 1159 2491 1159 1978 
L 1159 0 
L 581 0 
L 581 4863 
L 1159 4863 
L 1159 2956 
Q 1366 3272 1645 3428 
Q 1925 3584 2291 3584 
Q 2894 3584 3203 3211 
Q 3513 2838 3513 2113 
z
" transform="scale(0.015625)"/>
       <path id="DejaVuSans-20" transform="scale(0.015625)"/>
       <path id="DejaVuSans-5b" d="M 550 4863 
L 1875 4863 
L 1875 4416 
L 1125 4416 
L 1125 -397 
L 1875 -397 
L 1875 -844 
L 550 -844 
L 550 4863 
z
" transform="scale(0.015625)"/>
       <path id="DejaVuSans-c5" d="M 2663 5081 
Q 2663 5278 2523 5417 
Q 2384 5556 2188 5556 
Q 1988 5556 1852 5420 
Q 1716 5284 1716 5081 
Q 1716 4884 1853 4746 
Q 1991 4609 2188 4609 
Q 2384 4609 2523 4746 
Q 2663 4884 2663 5081 
z
M 2188 4044 
L 1338 1722 
L 3041 1722 
L 2188 4044 
z
M 1716 4366 
Q 1525 4494 1428 4673 
Q 1331 4853 1331 5081 
Q 1331 5441 1579 5691 
Q 1828 5941 2188 5941 
Q 2544 5941 2795 5689 
Q 3047 5438 3047 5081 
Q 3047 4863 2948 4678 
Q 2850 4494 2663 4366 
L 4325 0 
L 3669 0 
L 3244 1197 
L 1141 1197 
L 716 0 
L 50 0 
L 1716 4366 
z
" transform="scale(0.015625)"/>
       <path id="DejaVuSans-5d" d="M 1947 4863 
L 1947 -844 
L 622 -844 
L 622 -397 
L 1369 -397 
L 1369 4416 
L 622 4416 
L 622 4863 
L 1947 4863 
z
" transform="scale(0.015625)"/>
      </defs>
      <use xlink:href="#DejaVuSans-77"/>
      <use xlink:href="#DejaVuSans-61" transform="translate(81.787109 0)"/>
      <use xlink:href="#DejaVuSans-76" transform="translate(143.066406 0)"/>
      <use xlink:href="#DejaVuSans-65" transform="translate(202.246094 0)"/>
      <use xlink:href="#DejaVuSans-6c" transform="translate(263.769531 0)"/>
      <use xlink:href="#DejaVuSans-65" transform="translate(291.552734 0)"/>
      <use xlink:href="#DejaVuSans-6e" transform="translate(353.076172 0)"/>
      <use xlink:href="#DejaVuSans-67" transform="translate(416.455078 0)"/>
      <use xlink:href="#DejaVuSans-74" transform="translate(479.931641 0)"/>
      <use xlink:href="#DejaVuSans-68" transform="translate(519.140625 0)"/>
      <use xlink:href="#DejaVuSans-20" transform="translate(582.519531 0)"/>
      <use xlink:href="#DejaVuSans-5b" transform="translate(614.306641 0)"/>
      <use xlink:href="#DejaVuSans-c5" transform="translate(653.320312 0)"/>
      <use xlink:href="#DejaVuSans-5d" transform="translate(721.728516 0)"/>
     </g>
    </g>
   </g>
   <g id="matplotlib.axis_2">
    <g id="ytick_1">
     <g id="line2d_10">
      <defs>
       <path id="m989dc3d2ec" d="M 0 0 
L -3.5 0 
" style="stroke: #000000; stroke-width: 0.8"/>
      </defs>
      <g>
       <use xlink:href="#m989dc3d2ec" x="53.328125" y="218.88" style="stroke: #000000; stroke-width: 0.8"/>
      </g>
     </g>
     <g id="text_11">
      <!-- 0 -->
      <g transform="translate(39.965625 222.679219) scale(0.1 -0.1)">
       <use xlink:href="#DejaVuSans-30"/>
      </g>
     </g>
    </g>
    <g id="ytick_2">
     <g id="line2d_11">
      <g>
       <use xlink:href="#m989dc3d2ec" x="53.328125" y="180.698182" style="stroke: #000000; stroke-width: 0.8"/>
      </g>
     </g>
     <g id="text_12">
      <!-- 500 -->
      <g transform="translate(27.240625 184.497401) scale(0.1 -0.1)">
       <use xlink:href="#DejaVuSans-35"/>
       <use xlink:href="#DejaVuSans-30" transform="translate(63.623047 0)"/>
       <use xlink:href="#DejaVuSans-30" transform="translate(127.246094 0)"/>
      </g>
     </g>
    </g>
    <g id="ytick_3">
     <g id="line2d_12">
      <g>
       <use xlink:href="#m989dc3d2ec" x="53.328125" y="142.516364" style="stroke: #000000; stroke-width: 0.8"/>
      </g>
     </g>
     <g id="text_13">
      <!-- 1000 -->
      <g transform="translate(20.878125 146.315582) scale(0.1 -0.1)">
       <use xlink:href="#DejaVuSans-31"/>
       <use xlink:href="#DejaVuSans-30" transform="translate(63.623047 0)"/>
       <use xlink:href="#DejaVuSans-30" transform="translate(127.246094 0)"/>
       <use xlink:href="#DejaVuSans-30" transform="translate(190.869141 0)"/>
      </g>
     </g>
    </g>
    <g id="ytick_4">
     <g id="line2d_13">
      <g>
       <use xlink:href="#m989dc3d2ec" x="53.328125" y="104.334545" style="stroke: #000000; stroke-width: 0.8"/>
      </g>
     </g>
     <g id="text_14">
      <!-- 1500 -->
      <g transform="translate(20.878125 108.133764) scale(0.1 -0.1)">
       <use xlink:href="#DejaVuSans-31"/>
       <use xlink:href="#DejaVuSans-35" transform="translate(63.623047 0)"/>
       <use xlink:href="#DejaVuSans-30" transform="translate(127.246094 0)"/>
       <use xlink:href="#DejaVuSans-30" transform="translate(190.869141 0)"/>
      </g>
     </g>
    </g>
    <g id="ytick_5">
     <g id="line2d_14">
      <g>
       <use xlink:href="#m989dc3d2ec" x="53.328125" y="66.152727" style="stroke: #000000; stroke-width: 0.8"/>
      </g>
     </g>
     <g id="text_15">
      <!-- 2000 -->
      <g transform="translate(20.878125 69.951946) scale(0.1 -0.1)">
       <use xlink:href="#DejaVuSans-32"/>
       <use xlink:href="#DejaVuSans-30" transform="translate(63.623047 0)"/>
       <use xlink:href="#DejaVuSans-30" transform="translate(127.246094 0)"/>
       <use xlink:href="#DejaVuSans-30" transform="translate(190.869141 0)"/>
      </g>
     </g>
    </g>
    <g id="ytick_6">
     <g id="line2d_15">
      <g>
       <use xlink:href="#m989dc3d2ec" x="53.328125" y="27.970909" style="stroke: #000000; stroke-width: 0.8"/>
      </g>
     </g>
     <g id="text_16">
      <!-- 2500 -->
      <g transform="translate(20.878125 31.770128) scale(0.1 -0.1)">
       <use xlink:href="#DejaVuSans-32"/>
       <use xlink:href="#DejaVuSans-35" transform="translate(63.623047 0)"/>
       <use xlink:href="#DejaVuSans-30" transform="translate(127.246094 0)"/>
       <use xlink:href="#DejaVuSans-30" transform="translate(190.869141 0)"/>
      </g>
     </g>
    </g>
    <g id="text_17">
     <!-- [counts] -->
     <g transform="translate(14.798438 138.6925) rotate(-90) scale(0.1 -0.1)">
      <defs>
       <path id="DejaVuSans-63" d="M 3122 3366 
L 3122 2828 
Q 2878 2963 2633 3030 
Q 2388 3097 2138 3097 
Q 1578 3097 1268 2742 
Q 959 2388 959 1747 
Q 959 1106 1268 751 
Q 1578 397 2138 397 
Q 2388 397 2633 464 
Q 2878 531 3122 666 
L 3122 134 
Q 2881 22 2623 -34 
Q 2366 -91 2075 -91 
Q 1284 -91 818 406 
Q 353 903 353 1747 
Q 353 2603 823 3093 
Q 1294 3584 2113 3584 
Q 2378 3584 2631 3529 
Q 2884 3475 3122 3366 
z
" transform="scale(0.015625)"/>
       <path id="DejaVuSans-6f" d="M 1959 3097 
Q 1497 3097 1228 2736 
Q 959 2375 959 1747 
Q 959 1119 1226 758 
Q 1494 397 1959 397 
Q 2419 397 2687 759 
Q 2956 1122 2956 1747 
Q 2956 2369 2687 2733 
Q 2419 3097 1959 3097 
z
M 1959 3584 
Q 2709 3584 3137 3096 
Q 3566 2609 3566 1747 
Q 3566 888 3137 398 
Q 2709 -91 1959 -91 
Q 1206 -91 779 398 
Q 353 888 353 1747 
Q 353 2609 779 3096 
Q 1206 3584 1959 3584 
z
" transform="scale(0.015625)"/>
       <path id="DejaVuSans-75" d="M 544 1381 
L 544 3500 
L 1119 3500 
L 1119 1403 
Q 1119 906 1312 657 
Q 1506 409 1894 409 
Q 2359 409 2629 706 
Q 2900 1003 2900 1516 
L 2900 3500 
L 3475 3500 
L 3475 0 
L 2900 0 
L 2900 538 
Q 2691 219 2414 64 
Q 2138 -91 1772 -91 
Q 1169 -91 856 284 
Q 544 659 544 1381 
z
M 1991 3584 
L 1991 3584 
z
" transform="scale(0.015625)"/>
       <path id="DejaVuSans-73" d="M 2834 3397 
L 2834 2853 
Q 2591 2978 2328 3040 
Q 2066 3103 1784 3103 
Q 1356 3103 1142 2972 
Q 928 2841 928 2578 
Q 928 2378 1081 2264 
Q 1234 2150 1697 2047 
L 1894 2003 
Q 2506 1872 2764 1633 
Q 3022 1394 3022 966 
Q 3022 478 2636 193 
Q 2250 -91 1575 -91 
Q 1294 -91 989 -36 
Q 684 19 347 128 
L 347 722 
Q 666 556 975 473 
Q 1284 391 1588 391 
Q 1994 391 2212 530 
Q 2431 669 2431 922 
Q 2431 1156 2273 1281 
Q 2116 1406 1581 1522 
L 1381 1569 
Q 847 1681 609 1914 
Q 372 2147 372 2553 
Q 372 3047 722 3315 
Q 1072 3584 1716 3584 
Q 2034 3584 2315 3537 
Q 2597 3491 2834 3397 
z
" transform="scale(0.015625)"/>
      </defs>
      <use xlink:href="#DejaVuSans-5b"/>
      <use xlink:href="#DejaVuSans-63" transform="translate(39.013672 0)"/>
      <use xlink:href="#DejaVuSans-6f" transform="translate(93.994141 0)"/>
      <use xlink:href="#DejaVuSans-75" transform="translate(155.175781 0)"/>
      <use xlink:href="#DejaVuSans-6e" transform="translate(218.554688 0)"/>
      <use xlink:href="#DejaVuSans-74" transform="translate(281.933594 0)"/>
      <use xlink:href="#DejaVuSans-73" transform="translate(321.142578 0)"/>
      <use xlink:href="#DejaVuSans-5d" transform="translate(373.242188 0)"/>
     </g>
    </g>
   </g>
   <g id="line2d_16">
    <path d="M 68.546307 218.88 
L 69.560852 218.88 
L 69.560852 202.767273 
L 70.575398 202.767273 
L 70.575398 152.214545 
L 71.589943 152.214545 
L 71.589943 104.716364 
L 72.604489 104.716364 
L 72.604489 99.065455 
L 73.619034 99.065455 
L 73.619034 95.170909 
L 74.63358 95.170909 
L 74.63358 89.061818 
L 75.648125 89.061818 
L 75.648125 88.450909 
L 76.66267 88.450909 
L 76.66267 83.258182 
L 77.677216 83.258182 
L 77.677216 79.592727 
L 78.691761 79.592727 
L 78.691761 79.210909 
L 79.706307 79.210909 
L 79.706307 67.221818 
L 80.720852 67.221818 
L 80.720852 56.989091 
L 81.735398 56.989091 
L 81.735398 53.934545 
L 82.749943 53.934545 
L 82.749943 50.04 
L 83.764489 50.04 
L 83.764489 47.367273 
L 84.779034 47.367273 
L 84.779034 46.374545 
L 85.79358 46.374545 
L 85.79358 39.272727 
L 86.808125 39.272727 
L 86.808125 21.938182 
L 87.82267 21.938182 
L 87.82267 26.596364 
L 88.837216 26.596364 
L 88.837216 17.28 
L 89.851761 17.28 
L 89.851761 24.381818 
L 90.866307 24.381818 
L 90.866307 22.854545 
L 91.880852 22.854545 
L 91.880852 25.221818 
L 92.895398 25.221818 
L 92.895398 22.090909 
L 93.909943 22.090909 
L 93.909943 26.061818 
L 94.924489 26.061818 
L 94.924489 28.505455 
L 95.939034 28.505455 
L 95.939034 29.192727 
L 96.95358 29.192727 
L 96.95358 26.672727 
L 97.968125 26.672727 
L 97.968125 24.229091 
L 98.98267 24.229091 
L 98.98267 34.690909 
L 99.997216 34.690909 
L 99.997216 38.890909 
L 101.011761 38.890909 
L 101.011761 43.854545 
L 102.026307 43.854545 
L 102.026307 52.712727 
L 103.040852 52.712727 
L 103.040852 60.807273 
L 104.055398 60.807273 
L 104.055398 61.265455 
L 105.069943 61.265455 
L 105.069943 79.821818 
L 107.099034 79.898182 
L 107.099034 95.094545 
L 108.11358 95.094545 
L 108.11358 104.64 
L 109.128125 104.64 
L 109.128125 115.712727 
L 110.14267 115.712727 
L 110.14267 118.843636 
L 111.157216 118.843636 
L 111.157216 121.363636 
L 112.171761 121.363636 
L 112.171761 128.465455 
L 113.186307 128.465455 
L 113.186307 139.690909 
L 114.200852 139.690909 
L 114.200852 155.803636 
L 115.215398 155.803636 
L 115.215398 158.018182 
L 116.229943 158.018182 
L 116.229943 167.563636 
L 117.244489 167.563636 
L 117.244489 172.527273 
L 118.259034 172.527273 
L 118.259034 181.003636 
L 119.27358 181.003636 
L 119.27358 185.890909 
L 120.288125 185.890909 
L 120.288125 185.356364 
L 121.30267 185.356364 
L 121.30267 162.218182 
L 122.317216 162.218182 
L 122.317216 145.876364 
L 123.331761 145.876364 
L 123.331761 128.389091 
L 124.346307 128.389091 
L 124.346307 102.349091 
L 125.360852 102.349091 
L 125.360852 91.047273 
L 126.375398 91.047273 
L 126.375398 90.054545 
L 127.389943 90.054545 
L 127.389943 89.596364 
L 128.404489 89.596364 
L 128.404489 86.16 
L 129.419034 86.16 
L 129.419034 91.123636 
L 130.43358 91.123636 
L 130.43358 93.414545 
L 131.448125 93.414545 
L 131.448125 96.927273 
L 132.46267 96.927273 
L 132.46267 109.221818 
L 133.477216 109.221818 
L 133.477216 110.52 
L 134.491761 110.52 
L 134.491761 92.116364 
L 135.506307 92.116364 
L 135.506307 88.450909 
L 136.520852 88.450909 
L 136.520852 102.501818 
L 137.535398 102.501818 
L 137.535398 105.938182 
L 138.549943 105.938182 
L 138.549943 116.629091 
L 139.564489 116.629091 
L 139.564489 110.290909 
L 140.579034 110.290909 
L 140.579034 102.807273 
L 141.59358 102.807273 
L 141.59358 103.418182 
L 142.608125 103.418182 
L 142.608125 109.603636 
L 143.62267 109.603636 
L 143.62267 115.483636 
L 144.637216 115.483636 
L 144.637216 122.814545 
L 145.651761 122.814545 
L 145.651761 120.065455 
L 146.666307 120.065455 
L 146.666307 120.447273 
L 147.680852 120.447273 
L 147.680852 120.752727 
L 148.695398 120.752727 
L 148.695398 115.636364 
L 149.709943 115.636364 
L 149.709943 121.592727 
L 150.724489 121.592727 
L 150.724489 129.458182 
L 151.739034 129.458182 
L 151.739034 126.556364 
L 152.75358 126.556364 
L 152.75358 121.516364 
L 153.768125 121.516364 
L 153.768125 126.403636 
L 154.78267 126.403636 
L 154.78267 129 
L 155.797216 129 
L 155.797216 131.214545 
L 156.811761 131.214545 
L 156.811761 135.032727 
L 157.826307 135.032727 
L 157.826307 124.494545 
L 158.840852 124.494545 
L 158.840852 124.036364 
L 159.855398 124.036364 
L 159.855398 133.658182 
L 160.869943 133.658182 
L 160.869943 139.92 
L 161.884489 139.92 
L 161.884489 138.392727 
L 162.899034 138.392727 
L 162.899034 148.701818 
L 163.91358 148.701818 
L 163.91358 145.952727 
L 164.928125 145.952727 
L 164.928125 147.174545 
L 165.94267 147.174545 
L 165.94267 152.672727 
L 166.957216 152.672727 
L 166.957216 154.810909 
L 167.971761 154.810909 
L 167.971761 159.316364 
L 168.986307 159.316364 
L 168.986307 165.730909 
L 170.000852 165.730909 
L 170.000852 156.490909 
L 171.015398 156.490909 
L 171.015398 153.741818 
L 172.029943 153.741818 
L 172.029943 145.112727 
L 173.044489 145.112727 
L 173.044489 141.981818 
L 174.059034 141.981818 
L 174.059034 139.232727 
L 175.07358 139.232727 
L 175.07358 138.163636 
L 176.088125 138.163636 
L 176.088125 132.512727 
L 177.10267 132.512727 
L 177.10267 136.178182 
L 178.117216 136.178182 
L 178.117216 138.469091 
L 179.131761 138.469091 
L 179.131761 147.48 
L 180.146307 147.48 
L 180.146307 152.214545 
L 181.160852 152.214545 
L 181.160852 151.832727 
L 182.175398 151.832727 
L 182.175398 155.88 
L 183.189943 155.88 
L 183.189943 156.490909 
L 184.204489 156.490909 
L 184.204489 150.763636 
L 185.219034 150.763636 
L 185.219034 156.414545 
L 186.23358 156.414545 
L 186.23358 156.949091 
L 187.248125 156.949091 
L 187.248125 157.178182 
L 188.26267 157.178182 
L 188.26267 160.843636 
L 189.277216 160.843636 
L 189.277216 161.683636 
L 190.291761 161.683636 
L 190.291761 163.516364 
L 191.306307 163.516364 
L 191.306307 162.6 
L 192.320852 162.6 
L 192.320852 166.341818 
L 193.335398 166.341818 
L 193.335398 164.585455 
L 194.349943 164.585455 
L 194.349943 163.516364 
L 195.364489 163.516364 
L 195.364489 166.570909 
L 196.379034 166.570909 
L 196.379034 169.167273 
L 197.39358 169.167273 
L 197.39358 170.389091 
L 198.408125 170.389091 
L 198.408125 170.694545 
L 199.42267 170.694545 
L 199.42267 174.818182 
L 200.437216 174.818182 
L 200.437216 176.88 
L 201.451761 176.88 
L 201.451761 173.367273 
L 202.466307 173.367273 
L 202.466307 174.741818 
L 203.480852 174.741818 
L 203.480852 178.407273 
L 204.495398 178.407273 
L 204.495398 182.607273 
L 205.509943 182.607273 
L 205.509943 191.541818 
L 206.524489 191.541818 
L 206.524489 194.596364 
L 207.539034 194.596364 
L 207.539034 190.549091 
L 208.55358 190.549091 
L 208.55358 189.021818 
L 209.568125 189.021818 
L 209.568125 191.694545 
L 210.58267 191.694545 
L 210.58267 194.138182 
L 211.597216 194.138182 
L 211.597216 192.916364 
L 212.611761 192.916364 
L 212.611761 195.665455 
L 213.626307 195.665455 
L 213.626307 196.581818 
L 214.640852 196.581818 
L 214.640852 195.970909 
L 216.669943 195.894545 
L 216.669943 193.145455 
L 217.684489 193.145455 
L 217.684489 187.723636 
L 218.699034 187.723636 
L 218.699034 183.447273 
L 219.71358 183.447273 
L 219.71358 186.349091 
L 220.728125 186.349091 
L 220.728125 184.516364 
L 221.74267 184.516364 
L 221.74267 186.578182 
L 222.757216 186.578182 
L 222.757216 184.745455 
L 223.771761 184.745455 
L 223.771761 191.694545 
L 224.786307 191.694545 
L 224.786307 191.465455 
L 225.800852 191.465455 
L 225.800852 192.305455 
L 226.815398 192.305455 
L 226.815398 195.741818 
L 227.829943 195.741818 
L 227.829943 196.276364 
L 228.844489 196.276364 
L 228.844489 196.810909 
L 229.859034 196.810909 
L 229.859034 197.574545 
L 230.87358 197.574545 
L 230.87358 197.727273 
L 231.888125 197.727273 
L 231.888125 198.109091 
L 232.90267 198.109091 
L 232.90267 200.705455 
L 234.931761 200.629091 
L 234.931761 201.469091 
L 235.946307 201.469091 
L 235.946307 201.850909 
L 236.960852 201.850909 
L 236.960852 204.294545 
L 237.975398 204.294545 
L 237.975398 205.974545 
L 238.989943 205.974545 
L 238.989943 202.538182 
L 240.004489 202.538182 
L 240.004489 200.247273 
L 241.019034 200.247273 
L 241.019034 206.203636 
L 242.03358 206.203636 
L 242.03358 208.341818 
L 243.048125 208.341818 
L 243.048125 208.647273 
L 244.06267 208.647273 
L 244.06267 206.661818 
L 245.077216 206.661818 
L 245.077216 207.501818 
L 246.091761 207.501818 
L 246.091761 208.723636 
L 247.106307 208.723636 
L 247.106307 208.876364 
L 248.120852 208.876364 
L 248.120852 211.472727 
L 249.135398 211.472727 
L 249.135398 211.090909 
L 251.164489 211.090909 
L 251.164489 211.701818 
L 252.179034 211.701818 
L 252.179034 212.541818 
L 253.19358 212.541818 
L 253.19358 214.374545 
L 254.208125 214.374545 
L 254.208125 213.152727 
L 255.22267 213.152727 
L 255.22267 213 
L 256.237216 213 
L 256.237216 213.84 
L 257.251761 213.84 
L 257.251761 211.396364 
L 258.266307 211.396364 
L 258.266307 210.021818 
L 259.280852 210.021818 
L 259.280852 207.730909 
L 260.295398 207.730909 
L 260.295398 208.876364 
L 261.309943 208.876364 
L 261.309943 207.730909 
L 262.324489 207.730909 
L 262.324489 206.509091 
L 263.339034 206.509091 
L 263.339034 203.683636 
L 264.35358 203.683636 
L 264.35358 205.592727 
L 265.368125 205.592727 
L 265.368125 208.647273 
L 266.38267 208.647273 
L 266.38267 208.112727 
L 267.397216 208.112727 
L 267.397216 205.898182 
L 268.411761 205.898182 
L 268.411761 206.356364 
L 269.426307 206.356364 
L 269.426307 209.258182 
L 270.440852 209.258182 
L 270.440852 210.021818 
L 271.455398 210.021818 
L 271.455398 209.563636 
L 272.469943 209.563636 
L 272.469943 209.869091 
L 273.484489 209.869091 
L 273.484489 210.556364 
L 274.499034 210.556364 
L 274.499034 211.778182 
L 276.528125 211.778182 
L 276.528125 210.556364 
L 277.54267 210.556364 
L 277.54267 209.869091 
L 278.557216 209.869091 
L 278.557216 211.243636 
L 279.571761 211.243636 
L 279.571761 213.152727 
L 280.586307 213.152727 
L 280.586307 213.916364 
L 281.600852 213.916364 
L 281.600852 211.701818 
L 282.615398 211.701818 
L 282.615398 212.618182 
L 283.629943 212.618182 
L 283.629943 212.923636 
L 284.644489 212.923636 
L 284.644489 213.687273 
L 286.67358 213.763636 
L 286.67358 214.145455 
L 287.688125 214.145455 
L 287.688125 215.52 
L 288.70267 215.52 
L 288.70267 214.985455 
L 289.717216 214.985455 
L 289.717216 215.443636 
L 290.731761 215.443636 
L 290.731761 214.603636 
L 291.746307 214.603636 
L 291.746307 215.52 
L 292.760852 215.52 
L 292.760852 216.436364 
L 293.775398 216.436364 
L 293.775398 215.749091 
L 294.789943 215.749091 
L 294.789943 216.36 
L 295.804489 216.36 
L 295.804489 216.054545 
L 296.819034 216.054545 
L 296.819034 216.970909 
L 297.83358 216.970909 
L 297.83358 215.978182 
L 298.848125 215.978182 
L 298.848125 215.443636 
L 299.86267 215.443636 
L 299.86267 214.832727 
L 300.877216 214.832727 
L 300.877216 213.916364 
L 301.891761 213.916364 
L 301.891761 212.694545 
L 302.906307 212.694545 
L 302.906307 211.396364 
L 303.920852 211.396364 
L 303.920852 210.938182 
L 305.949943 211.014545 
L 305.949943 207.96 
L 306.964489 207.96 
L 306.964489 202.08 
L 307.979034 202.08 
L 307.979034 204.905455 
L 308.99358 204.905455 
L 308.99358 201.850909 
L 310.008125 201.850909 
L 310.008125 203.912727 
L 311.02267 203.912727 
L 311.02267 201.545455 
L 312.037216 201.545455 
L 312.037216 202.156364 
L 313.051761 202.156364 
L 313.051761 203.301818 
L 314.066307 203.301818 
L 314.066307 205.821818 
L 315.080852 205.821818 
L 315.080852 207.578182 
L 316.095398 207.578182 
L 316.095398 196.963636 
L 317.109943 196.963636 
L 317.109943 203.301818 
L 318.124489 203.301818 
L 318.124489 206.28 
L 319.139034 206.28 
L 319.139034 208.570909 
L 320.15358 208.570909 
L 320.15358 207.425455 
L 321.168125 207.425455 
L 321.168125 205.898182 
L 322.18267 205.898182 
L 322.18267 204.370909 
L 323.197216 204.370909 
L 323.197216 205.44 
L 324.211761 205.44 
L 324.211761 201.927273 
L 325.226307 201.927273 
L 325.226307 203.530909 
L 326.240852 203.530909 
L 326.240852 204.141818 
L 327.255398 204.141818 
L 327.255398 207.12 
L 328.269943 207.12 
L 328.269943 209.563636 
L 329.284489 209.563636 
L 329.284489 210.174545 
L 330.299034 210.174545 
L 330.299034 207.043636 
L 331.31358 207.043636 
L 331.31358 206.28 
L 332.328125 206.28 
L 332.328125 209.258182 
L 333.34267 209.258182 
L 333.34267 211.167273 
L 334.357216 211.167273 
L 334.357216 208.418182 
L 335.371761 208.418182 
L 335.371761 207.578182 
L 336.386307 207.578182 
L 336.386307 210.785455 
L 337.400852 210.785455 
L 337.400852 211.167273 
L 338.415398 211.167273 
L 338.415398 207.654545 
L 339.429943 207.654545 
L 339.429943 209.64 
L 340.444489 209.64 
L 340.444489 213 
L 341.459034 213 
L 341.459034 214.221818 
L 342.47358 214.221818 
L 342.47358 208.189091 
L 343.488125 208.189091 
L 343.488125 211.167273 
L 344.50267 211.167273 
L 344.50267 213.458182 
L 345.517216 213.458182 
L 345.517216 215.138182 
L 346.531761 215.138182 
L 346.531761 214.985455 
L 347.546307 214.985455 
L 347.546307 214.832727 
L 348.560852 214.832727 
L 348.560852 214.68 
L 349.575398 214.68 
L 349.575398 217.658182 
L 350.589943 217.658182 
L 350.589943 218.88 
L 372.909943 218.88 
L 372.909943 218.88 
" clip-path="url(#pb93833804b)" style="fill: none; stroke: #1f77b4; stroke-width: 1.5; stroke-linecap: square"/>
   </g>
   <g id="patch_3">
    <path d="M 53.328125 228.96 
L 53.328125 7.2 
" style="fill: none; stroke: #000000; stroke-width: 0.8; stroke-linejoin: miter; stroke-linecap: square"/>
   </g>
   <g id="patch_4">
    <path d="M 388.128125 228.96 
L 388.128125 7.2 
" style="fill: none; stroke: #000000; stroke-width: 0.8; stroke-linejoin: miter; stroke-linecap: square"/>
   </g>
   <g id="patch_5">
    <path d="M 53.328125 228.96 
L 388.128125 228.96 
" style="fill: none; stroke: #000000; stroke-width: 0.8; stroke-linejoin: miter; stroke-linecap: square"/>
   </g>
   <g id="patch_6">
    <path d="M 53.328125 7.2 
L 388.128125 7.2 
" style="fill: none; stroke: #000000; stroke-width: 0.8; stroke-linejoin: miter; stroke-linecap: square"/>
   </g>
  </g>
 </g>
 <defs>
  <clipPath id="pb93833804b">
   <rect x="53.328125" y="7.2" width="334.8" height="221.76"/>
  </clipPath>
 </defs>
</svg>
