<?xml version="1.0" encoding="utf-8" standalone="no"?>
<!DOCTYPE svg PUBLIC "-//W3C//DTD SVG 1.1//EN"
  "http://www.w3.org/Graphics/SVG/1.1/DTD/svg11.dtd">
<svg xmlns:xlink="http://www.w3.org/1999/xlink" width="388.965625pt" height="266.794375pt" viewBox="0 0 388.965625 266.794375" xmlns="http://www.w3.org/2000/svg" version="1.1">
 <metadata>
  <rdf:RDF xmlns:dc="http://purl.org/dc/elements/1.1/" xmlns:cc="http://creativecommons.org/ns#" xmlns:rdf="http://www.w3.org/1999/02/22-rdf-syntax-ns#">
   <cc:Work>
    <dc:type rdf:resource="http://purl.org/dc/dcmitype/StillImage"/>
    <dc:date>2025-03-17T10:46:57.848246</dc:date>
    <dc:format>image/svg+xml</dc:format>
    <dc:creator>
     <cc:Agent>
      <dc:title>Matplotlib v3.10.0, https://matplotlib.org/</dc:title>
     </cc:Agent>
    </dc:creator>
   </cc:Work>
  </rdf:RDF>
 </metadata>
 <defs>
  <style type="text/css">*{stroke-linejoin: round; stroke-linecap: butt}</style>
 </defs>
 <g id="figure_1">
  <g id="patch_1">
   <path d="M 0 266.794375 
L 388.965625 266.794375 
L 388.965625 0 
L 0 0 
z
" style="fill: #ffffff"/>
  </g>
  <g id="axes_1">
   <g id="patch_2">
    <path d="M 46.965625 228.96 
L 381.765625 228.96 
L 381.765625 7.2 
L 46.965625 7.2 
z
" style="fill: #ffffff"/>
   </g>
   <g id="matplotlib.axis_1">
    <g id="xtick_1">
     <g id="line2d_1">
      <defs>
       <path id="mc7b1380081" d="M 0 0 
L 0 3.5 
" style="stroke: #000000; stroke-width: 0.8"/>
      </defs>
      <g>
       <use xlink:href="#mc7b1380081" x="62.180565" y="228.96" style="stroke: #000000; stroke-width: 0.8"/>
      </g>
     </g>
     <g id="text_1">
      <!-- 0 -->
      <g transform="translate(58.999315 243.558437) scale(0.1 -0.1)">
       <defs>
        <path id="DejaVuSans-30" d="M 2034 4250 
Q 1547 4250 1301 3770 
Q 1056 3291 1056 2328 
Q 1056 1369 1301 889 
Q 1547 409 2034 409 
Q 2525 409 2770 889 
Q 3016 1369 3016 2328 
Q 3016 3291 2770 3770 
Q 2525 4250 2034 4250 
z
M 2034 4750 
Q 2819 4750 3233 4129 
Q 3647 3509 3647 2328 
Q 3647 1150 3233 529 
Q 2819 -91 2034 -91 
Q 1250 -91 836 529 
Q 422 1150 422 2328 
Q 422 3509 836 4129 
Q 1250 4750 2034 4750 
z
" transform="scale(0.015625)"/>
       </defs>
       <use xlink:href="#DejaVuSans-30"/>
      </g>
     </g>
    </g>
    <g id="xtick_2">
     <g id="line2d_2">
      <g>
       <use xlink:href="#mc7b1380081" x="104.791937" y="228.96" style="stroke: #000000; stroke-width: 0.8"/>
      </g>
     </g>
     <g id="text_2">
      <!-- 10000 -->
      <g transform="translate(88.885687 243.558437) scale(0.1 -0.1)">
       <defs>
        <path id="DejaVuSans-31" d="M 794 531 
L 1825 531 
L 1825 4091 
L 703 3866 
L 703 4441 
L 1819 4666 
L 2450 4666 
L 2450 531 
L 3481 531 
L 3481 0 
L 794 0 
L 794 531 
z
" transform="scale(0.015625)"/>
       </defs>
       <use xlink:href="#DejaVuSans-31"/>
       <use xlink:href="#DejaVuSans-30" transform="translate(63.623047 0)"/>
       <use xlink:href="#DejaVuSans-30" transform="translate(127.246094 0)"/>
       <use xlink:href="#DejaVuSans-30" transform="translate(190.869141 0)"/>
       <use xlink:href="#DejaVuSans-30" transform="translate(254.492188 0)"/>
      </g>
     </g>
    </g>
    <g id="xtick_3">
     <g id="line2d_3">
      <g>
       <use xlink:href="#mc7b1380081" x="147.403309" y="228.96" style="stroke: #000000; stroke-width: 0.8"/>
      </g>
     </g>
     <g id="text_3">
      <!-- 20000 -->
      <g transform="translate(131.497059 243.558437) scale(0.1 -0.1)">
       <defs>
        <path id="DejaVuSans-32" d="M 1228 531 
L 3431 531 
L 3431 0 
L 469 0 
L 469 531 
Q 828 903 1448 1529 
Q 2069 2156 2228 2338 
Q 2531 2678 2651 2914 
Q 2772 3150 2772 3378 
Q 2772 3750 2511 3984 
Q 2250 4219 1831 4219 
Q 1534 4219 1204 4116 
Q 875 4013 500 3803 
L 500 4441 
Q 881 4594 1212 4672 
Q 1544 4750 1819 4750 
Q 2544 4750 2975 4387 
Q 3406 4025 3406 3419 
Q 3406 3131 3298 2873 
Q 3191 2616 2906 2266 
Q 2828 2175 2409 1742 
Q 1991 1309 1228 531 
z
" transform="scale(0.015625)"/>
       </defs>
       <use xlink:href="#DejaVuSans-32"/>
       <use xlink:href="#DejaVuSans-30" transform="translate(63.623047 0)"/>
       <use xlink:href="#DejaVuSans-30" transform="translate(127.246094 0)"/>
       <use xlink:href="#DejaVuSans-30" transform="translate(190.869141 0)"/>
       <use xlink:href="#DejaVuSans-30" transform="translate(254.492188 0)"/>
      </g>
     </g>
    </g>
    <g id="xtick_4">
     <g id="line2d_4">
      <g>
       <use xlink:href="#mc7b1380081" x="190.01468" y="228.96" style="stroke: #000000; stroke-width: 0.8"/>
      </g>
     </g>
     <g id="text_4">
      <!-- 30000 -->
      <g transform="translate(174.10843 243.558437) scale(0.1 -0.1)">
       <defs>
        <path id="DejaVuSans-33" d="M 2597 2516 
Q 3050 2419 3304 2112 
Q 3559 1806 3559 1356 
Q 3559 666 3084 287 
Q 2609 -91 1734 -91 
Q 1441 -91 1130 -33 
Q 819 25 488 141 
L 488 750 
Q 750 597 1062 519 
Q 1375 441 1716 441 
Q 2309 441 2620 675 
Q 2931 909 2931 1356 
Q 2931 1769 2642 2001 
Q 2353 2234 1838 2234 
L 1294 2234 
L 1294 2753 
L 1863 2753 
Q 2328 2753 2575 2939 
Q 2822 3125 2822 3475 
Q 2822 3834 2567 4026 
Q 2313 4219 1838 4219 
Q 1578 4219 1281 4162 
Q 984 4106 628 3988 
L 628 4550 
Q 988 4650 1302 4700 
Q 1616 4750 1894 4750 
Q 2613 4750 3031 4423 
Q 3450 4097 3450 3541 
Q 3450 3153 3228 2886 
Q 3006 2619 2597 2516 
z
" transform="scale(0.015625)"/>
       </defs>
       <use xlink:href="#DejaVuSans-33"/>
       <use xlink:href="#DejaVuSans-30" transform="translate(63.623047 0)"/>
       <use xlink:href="#DejaVuSans-30" transform="translate(127.246094 0)"/>
       <use xlink:href="#DejaVuSans-30" transform="translate(190.869141 0)"/>
       <use xlink:href="#DejaVuSans-30" transform="translate(254.492188 0)"/>
      </g>
     </g>
    </g>
    <g id="xtick_5">
     <g id="line2d_5">
      <g>
       <use xlink:href="#mc7b1380081" x="232.626052" y="228.96" style="stroke: #000000; stroke-width: 0.8"/>
      </g>
     </g>
     <g id="text_5">
      <!-- 40000 -->
      <g transform="translate(216.719802 243.558437) scale(0.1 -0.1)">
       <defs>
        <path id="DejaVuSans-34" d="M 2419 4116 
L 825 1625 
L 2419 1625 
L 2419 4116 
z
M 2253 4666 
L 3047 4666 
L 3047 1625 
L 3713 1625 
L 3713 1100 
L 3047 1100 
L 3047 0 
L 2419 0 
L 2419 1100 
L 313 1100 
L 313 1709 
L 2253 4666 
z
" transform="scale(0.015625)"/>
       </defs>
       <use xlink:href="#DejaVuSans-34"/>
       <use xlink:href="#DejaVuSans-30" transform="translate(63.623047 0)"/>
       <use xlink:href="#DejaVuSans-30" transform="translate(127.246094 0)"/>
       <use xlink:href="#DejaVuSans-30" transform="translate(190.869141 0)"/>
       <use xlink:href="#DejaVuSans-30" transform="translate(254.492188 0)"/>
      </g>
     </g>
    </g>
    <g id="xtick_6">
     <g id="line2d_6">
      <g>
       <use xlink:href="#mc7b1380081" x="275.237424" y="228.96" style="stroke: #000000; stroke-width: 0.8"/>
      </g>
     </g>
     <g id="text_6">
      <!-- 50000 -->
      <g transform="translate(259.331174 243.558437) scale(0.1 -0.1)">
       <defs>
        <path id="DejaVuSans-35" d="M 691 4666 
L 3169 4666 
L 3169 4134 
L 1269 4134 
L 1269 2991 
Q 1406 3038 1543 3061 
Q 1681 3084 1819 3084 
Q 2600 3084 3056 2656 
Q 3513 2228 3513 1497 
Q 3513 744 3044 326 
Q 2575 -91 1722 -91 
Q 1428 -91 1123 -41 
Q 819 9 494 109 
L 494 744 
Q 775 591 1075 516 
Q 1375 441 1709 441 
Q 2250 441 2565 725 
Q 2881 1009 2881 1497 
Q 2881 1984 2565 2268 
Q 2250 2553 1709 2553 
Q 1456 2553 1204 2497 
Q 953 2441 691 2322 
L 691 4666 
z
" transform="scale(0.015625)"/>
       </defs>
       <use xlink:href="#DejaVuSans-35"/>
       <use xlink:href="#DejaVuSans-30" transform="translate(63.623047 0)"/>
       <use xlink:href="#DejaVuSans-30" transform="translate(127.246094 0)"/>
       <use xlink:href="#DejaVuSans-30" transform="translate(190.869141 0)"/>
       <use xlink:href="#DejaVuSans-30" transform="translate(254.492188 0)"/>
      </g>
     </g>
    </g>
    <g id="xtick_7">
     <g id="line2d_7">
      <g>
       <use xlink:href="#mc7b1380081" x="317.848796" y="228.96" style="stroke: #000000; stroke-width: 0.8"/>
      </g>
     </g>
     <g id="text_7">
      <!-- 60000 -->
      <g transform="translate(301.942546 243.558437) scale(0.1 -0.1)">
       <defs>
        <path id="DejaVuSans-36" d="M 2113 2584 
Q 1688 2584 1439 2293 
Q 1191 2003 1191 1497 
Q 1191 994 1439 701 
Q 1688 409 2113 409 
Q 2538 409 2786 701 
Q 3034 994 3034 1497 
Q 3034 2003 2786 2293 
Q 2538 2584 2113 2584 
z
M 3366 4563 
L 3366 3988 
Q 3128 4100 2886 4159 
Q 2644 4219 2406 4219 
Q 1781 4219 1451 3797 
Q 1122 3375 1075 2522 
Q 1259 2794 1537 2939 
Q 1816 3084 2150 3084 
Q 2853 3084 3261 2657 
Q 3669 2231 3669 1497 
Q 3669 778 3244 343 
Q 2819 -91 2113 -91 
Q 1303 -91 875 529 
Q 447 1150 447 2328 
Q 447 3434 972 4092 
Q 1497 4750 2381 4750 
Q 2619 4750 2861 4703 
Q 3103 4656 3366 4563 
z
" transform="scale(0.015625)"/>
       </defs>
       <use xlink:href="#DejaVuSans-36"/>
       <use xlink:href="#DejaVuSans-30" transform="translate(63.623047 0)"/>
       <use xlink:href="#DejaVuSans-30" transform="translate(127.246094 0)"/>
       <use xlink:href="#DejaVuSans-30" transform="translate(190.869141 0)"/>
       <use xlink:href="#DejaVuSans-30" transform="translate(254.492188 0)"/>
      </g>
     </g>
    </g>
    <g id="xtick_8">
     <g id="line2d_8">
      <g>
       <use xlink:href="#mc7b1380081" x="360.460167" y="228.96" style="stroke: #000000; stroke-width: 0.8"/>
      </g>
     </g>
     <g id="text_8">
      <!-- 70000 -->
      <g transform="translate(344.553917 243.558437) scale(0.1 -0.1)">
       <defs>
        <path id="DejaVuSans-37" d="M 525 4666 
L 3525 4666 
L 3525 4397 
L 1831 0 
L 1172 0 
L 2766 4134 
L 525 4134 
L 525 4666 
z
" transform="scale(0.015625)"/>
       </defs>
       <use xlink:href="#DejaVuSans-37"/>
       <use xlink:href="#DejaVuSans-30" transform="translate(63.623047 0)"/>
       <use xlink:href="#DejaVuSans-30" transform="translate(127.246094 0)"/>
       <use xlink:href="#DejaVuSans-30" transform="translate(190.869141 0)"/>
       <use xlink:href="#DejaVuSans-30" transform="translate(254.492188 0)"/>
      </g>
     </g>
    </g>
    <g id="text_9">
     <!-- event_time_offset [µs] -->
     <g transform="translate(158.330469 257.236562) scale(0.1 -0.1)">
      <defs>
       <path id="DejaVuSans-65" d="M 3597 1894 
L 3597 1613 
L 953 1613 
Q 991 1019 1311 708 
Q 1631 397 2203 397 
Q 2534 397 2845 478 
Q 3156 559 3463 722 
L 3463 178 
Q 3153 47 2828 -22 
Q 2503 -91 2169 -91 
Q 1331 -91 842 396 
Q 353 884 353 1716 
Q 353 2575 817 3079 
Q 1281 3584 2069 3584 
Q 2775 3584 3186 3129 
Q 3597 2675 3597 1894 
z
M 3022 2063 
Q 3016 2534 2758 2815 
Q 2500 3097 2075 3097 
Q 1594 3097 1305 2825 
Q 1016 2553 972 2059 
L 3022 2063 
z
" transform="scale(0.015625)"/>
       <path id="DejaVuSans-76" d="M 191 3500 
L 800 3500 
L 1894 563 
L 2988 3500 
L 3597 3500 
L 2284 0 
L 1503 0 
L 191 3500 
z
" transform="scale(0.015625)"/>
       <path id="DejaVuSans-6e" d="M 3513 2113 
L 3513 0 
L 2938 0 
L 2938 2094 
Q 2938 2591 2744 2837 
Q 2550 3084 2163 3084 
Q 1697 3084 1428 2787 
Q 1159 2491 1159 1978 
L 1159 0 
L 581 0 
L 581 3500 
L 1159 3500 
L 1159 2956 
Q 1366 3272 1645 3428 
Q 1925 3584 2291 3584 
Q 2894 3584 3203 3211 
Q 3513 2838 3513 2113 
z
" transform="scale(0.015625)"/>
       <path id="DejaVuSans-74" d="M 1172 4494 
L 1172 3500 
L 2356 3500 
L 2356 3053 
L 1172 3053 
L 1172 1153 
Q 1172 725 1289 603 
Q 1406 481 1766 481 
L 2356 481 
L 2356 0 
L 1766 0 
Q 1100 0 847 248 
Q 594 497 594 1153 
L 594 3053 
L 172 3053 
L 172 3500 
L 594 3500 
L 594 4494 
L 1172 4494 
z
" transform="scale(0.015625)"/>
       <path id="DejaVuSans-5f" d="M 3263 -1063 
L 3263 -1509 
L -63 -1509 
L -63 -1063 
L 3263 -1063 
z
" transform="scale(0.015625)"/>
       <path id="DejaVuSans-69" d="M 603 3500 
L 1178 3500 
L 1178 0 
L 603 0 
L 603 3500 
z
M 603 4863 
L 1178 4863 
L 1178 4134 
L 603 4134 
L 603 4863 
z
" transform="scale(0.015625)"/>
       <path id="DejaVuSans-6d" d="M 3328 2828 
Q 3544 3216 3844 3400 
Q 4144 3584 4550 3584 
Q 5097 3584 5394 3201 
Q 5691 2819 5691 2113 
L 5691 0 
L 5113 0 
L 5113 2094 
Q 5113 2597 4934 2840 
Q 4756 3084 4391 3084 
Q 3944 3084 3684 2787 
Q 3425 2491 3425 1978 
L 3425 0 
L 2847 0 
L 2847 2094 
Q 2847 2600 2669 2842 
Q 2491 3084 2119 3084 
Q 1678 3084 1418 2786 
Q 1159 2488 1159 1978 
L 1159 0 
L 581 0 
L 581 3500 
L 1159 3500 
L 1159 2956 
Q 1356 3278 1631 3431 
Q 1906 3584 2284 3584 
Q 2666 3584 2933 3390 
Q 3200 3197 3328 2828 
z
" transform="scale(0.015625)"/>
       <path id="DejaVuSans-6f" d="M 1959 3097 
Q 1497 3097 1228 2736 
Q 959 2375 959 1747 
Q 959 1119 1226 758 
Q 1494 397 1959 397 
Q 2419 397 2687 759 
Q 2956 1122 2956 1747 
Q 2956 2369 2687 2733 
Q 2419 3097 1959 3097 
z
M 1959 3584 
Q 2709 3584 3137 3096 
Q 3566 2609 3566 1747 
Q 3566 888 3137 398 
Q 2709 -91 1959 -91 
Q 1206 -91 779 398 
Q 353 888 353 1747 
Q 353 2609 779 3096 
Q 1206 3584 1959 3584 
z
" transform="scale(0.015625)"/>
       <path id="DejaVuSans-66" d="M 2375 4863 
L 2375 4384 
L 1825 4384 
Q 1516 4384 1395 4259 
Q 1275 4134 1275 3809 
L 1275 3500 
L 2222 3500 
L 2222 3053 
L 1275 3053 
L 1275 0 
L 697 0 
L 697 3053 
L 147 3053 
L 147 3500 
L 697 3500 
L 697 3744 
Q 697 4328 969 4595 
Q 1241 4863 1831 4863 
L 2375 4863 
z
" transform="scale(0.015625)"/>
       <path id="DejaVuSans-73" d="M 2834 3397 
L 2834 2853 
Q 2591 2978 2328 3040 
Q 2066 3103 1784 3103 
Q 1356 3103 1142 2972 
Q 928 2841 928 2578 
Q 928 2378 1081 2264 
Q 1234 2150 1697 2047 
L 1894 2003 
Q 2506 1872 2764 1633 
Q 3022 1394 3022 966 
Q 3022 478 2636 193 
Q 2250 -91 1575 -91 
Q 1294 -91 989 -36 
Q 684 19 347 128 
L 347 722 
Q 666 556 975 473 
Q 1284 391 1588 391 
Q 1994 391 2212 530 
Q 2431 669 2431 922 
Q 2431 1156 2273 1281 
Q 2116 1406 1581 1522 
L 1381 1569 
Q 847 1681 609 1914 
Q 372 2147 372 2553 
Q 372 3047 722 3315 
Q 1072 3584 1716 3584 
Q 2034 3584 2315 3537 
Q 2597 3491 2834 3397 
z
" transform="scale(0.015625)"/>
       <path id="DejaVuSans-20" transform="scale(0.015625)"/>
       <path id="DejaVuSans-5b" d="M 550 4863 
L 1875 4863 
L 1875 4416 
L 1125 4416 
L 1125 -397 
L 1875 -397 
L 1875 -844 
L 550 -844 
L 550 4863 
z
" transform="scale(0.015625)"/>
       <path id="DejaVuSans-b5" d="M 544 -1331 
L 544 3500 
L 1119 3500 
L 1119 1325 
Q 1119 872 1334 640 
Q 1550 409 1972 409 
Q 2434 409 2667 671 
Q 2900 934 2900 1459 
L 2900 3500 
L 3475 3500 
L 3475 806 
Q 3475 619 3529 530 
Q 3584 441 3700 441 
Q 3728 441 3778 458 
Q 3828 475 3916 513 
L 3916 50 
Q 3788 -22 3673 -56 
Q 3559 -91 3450 -91 
Q 3234 -91 3106 31 
Q 2978 153 2931 403 
Q 2775 156 2548 32 
Q 2322 -91 2016 -91 
Q 1697 -91 1473 31 
Q 1250 153 1119 397 
L 1119 -1331 
L 544 -1331 
z
" transform="scale(0.015625)"/>
       <path id="DejaVuSans-5d" d="M 1947 4863 
L 1947 -844 
L 622 -844 
L 622 -397 
L 1369 -397 
L 1369 4416 
L 622 4416 
L 622 4863 
L 1947 4863 
z
" transform="scale(0.015625)"/>
      </defs>
      <use xlink:href="#DejaVuSans-65"/>
      <use xlink:href="#DejaVuSans-76" transform="translate(61.523438 0)"/>
      <use xlink:href="#DejaVuSans-65" transform="translate(120.703125 0)"/>
      <use xlink:href="#DejaVuSans-6e" transform="translate(182.226562 0)"/>
      <use xlink:href="#DejaVuSans-74" transform="translate(245.605469 0)"/>
      <use xlink:href="#DejaVuSans-5f" transform="translate(284.814453 0)"/>
      <use xlink:href="#DejaVuSans-74" transform="translate(334.814453 0)"/>
      <use xlink:href="#DejaVuSans-69" transform="translate(374.023438 0)"/>
      <use xlink:href="#DejaVuSans-6d" transform="translate(401.806641 0)"/>
      <use xlink:href="#DejaVuSans-65" transform="translate(499.21875 0)"/>
      <use xlink:href="#DejaVuSans-5f" transform="translate(560.742188 0)"/>
      <use xlink:href="#DejaVuSans-6f" transform="translate(610.742188 0)"/>
      <use xlink:href="#DejaVuSans-66" transform="translate(671.923828 0)"/>
      <use xlink:href="#DejaVuSans-66" transform="translate(707.128906 0)"/>
      <use xlink:href="#DejaVuSans-73" transform="translate(742.333984 0)"/>
      <use xlink:href="#DejaVuSans-65" transform="translate(794.433594 0)"/>
      <use xlink:href="#DejaVuSans-74" transform="translate(855.957031 0)"/>
      <use xlink:href="#DejaVuSans-20" transform="translate(895.166016 0)"/>
      <use xlink:href="#DejaVuSans-5b" transform="translate(926.953125 0)"/>
      <use xlink:href="#DejaVuSans-b5" transform="translate(965.966797 0)"/>
      <use xlink:href="#DejaVuSans-73" transform="translate(1029.589844 0)"/>
      <use xlink:href="#DejaVuSans-5d" transform="translate(1081.689453 0)"/>
     </g>
    </g>
   </g>
   <g id="matplotlib.axis_2">
    <g id="ytick_1">
     <g id="line2d_9">
      <defs>
       <path id="md66cd38091" d="M 0 0 
L -3.5 0 
" style="stroke: #000000; stroke-width: 0.8"/>
      </defs>
      <g>
       <use xlink:href="#md66cd38091" x="46.965625" y="218.88" style="stroke: #000000; stroke-width: 0.8"/>
      </g>
     </g>
     <g id="text_10">
      <!-- 0 -->
      <g transform="translate(33.603125 222.679219) scale(0.1 -0.1)">
       <use xlink:href="#DejaVuSans-30"/>
      </g>
     </g>
    </g>
    <g id="ytick_2">
     <g id="line2d_10">
      <g>
       <use xlink:href="#md66cd38091" x="46.965625" y="184.652496" style="stroke: #000000; stroke-width: 0.8"/>
      </g>
     </g>
     <g id="text_11">
      <!-- 100 -->
      <g transform="translate(20.878125 188.451715) scale(0.1 -0.1)">
       <use xlink:href="#DejaVuSans-31"/>
       <use xlink:href="#DejaVuSans-30" transform="translate(63.623047 0)"/>
       <use xlink:href="#DejaVuSans-30" transform="translate(127.246094 0)"/>
      </g>
     </g>
    </g>
    <g id="ytick_3">
     <g id="line2d_11">
      <g>
       <use xlink:href="#md66cd38091" x="46.965625" y="150.424992" style="stroke: #000000; stroke-width: 0.8"/>
      </g>
     </g>
     <g id="text_12">
      <!-- 200 -->
      <g transform="translate(20.878125 154.22421) scale(0.1 -0.1)">
       <use xlink:href="#DejaVuSans-32"/>
       <use xlink:href="#DejaVuSans-30" transform="translate(63.623047 0)"/>
       <use xlink:href="#DejaVuSans-30" transform="translate(127.246094 0)"/>
      </g>
     </g>
    </g>
    <g id="ytick_4">
     <g id="line2d_12">
      <g>
       <use xlink:href="#md66cd38091" x="46.965625" y="116.197487" style="stroke: #000000; stroke-width: 0.8"/>
      </g>
     </g>
     <g id="text_13">
      <!-- 300 -->
      <g transform="translate(20.878125 119.996706) scale(0.1 -0.1)">
       <use xlink:href="#DejaVuSans-33"/>
       <use xlink:href="#DejaVuSans-30" transform="translate(63.623047 0)"/>
       <use xlink:href="#DejaVuSans-30" transform="translate(127.246094 0)"/>
      </g>
     </g>
    </g>
    <g id="ytick_5">
     <g id="line2d_13">
      <g>
       <use xlink:href="#md66cd38091" x="46.965625" y="81.969983" style="stroke: #000000; stroke-width: 0.8"/>
      </g>
     </g>
     <g id="text_14">
      <!-- 400 -->
      <g transform="translate(20.878125 85.769202) scale(0.1 -0.1)">
       <use xlink:href="#DejaVuSans-34"/>
       <use xlink:href="#DejaVuSans-30" transform="translate(63.623047 0)"/>
       <use xlink:href="#DejaVuSans-30" transform="translate(127.246094 0)"/>
      </g>
     </g>
    </g>
    <g id="ytick_6">
     <g id="line2d_14">
      <g>
       <use xlink:href="#md66cd38091" x="46.965625" y="47.742479" style="stroke: #000000; stroke-width: 0.8"/>
      </g>
     </g>
     <g id="text_15">
      <!-- 500 -->
      <g transform="translate(20.878125 51.541698) scale(0.1 -0.1)">
       <use xlink:href="#DejaVuSans-35"/>
       <use xlink:href="#DejaVuSans-30" transform="translate(63.623047 0)"/>
       <use xlink:href="#DejaVuSans-30" transform="translate(127.246094 0)"/>
      </g>
     </g>
    </g>
    <g id="ytick_7">
     <g id="line2d_15">
      <g>
       <use xlink:href="#md66cd38091" x="46.965625" y="13.514975" style="stroke: #000000; stroke-width: 0.8"/>
      </g>
     </g>
     <g id="text_16">
      <!-- 600 -->
      <g transform="translate(20.878125 17.314193) scale(0.1 -0.1)">
       <use xlink:href="#DejaVuSans-36"/>
       <use xlink:href="#DejaVuSans-30" transform="translate(63.623047 0)"/>
       <use xlink:href="#DejaVuSans-30" transform="translate(127.246094 0)"/>
      </g>
     </g>
    </g>
    <g id="text_17">
     <!-- [counts] -->
     <g transform="translate(14.798438 138.6925) rotate(-90) scale(0.1 -0.1)">
      <defs>
       <path id="DejaVuSans-63" d="M 3122 3366 
L 3122 2828 
Q 2878 2963 2633 3030 
Q 2388 3097 2138 3097 
Q 1578 3097 1268 2742 
Q 959 2388 959 1747 
Q 959 1106 1268 751 
Q 1578 397 2138 397 
Q 2388 397 2633 464 
Q 2878 531 3122 666 
L 3122 134 
Q 2881 22 2623 -34 
Q 2366 -91 2075 -91 
Q 1284 -91 818 406 
Q 353 903 353 1747 
Q 353 2603 823 3093 
Q 1294 3584 2113 3584 
Q 2378 3584 2631 3529 
Q 2884 3475 3122 3366 
z
" transform="scale(0.015625)"/>
       <path id="DejaVuSans-75" d="M 544 1381 
L 544 3500 
L 1119 3500 
L 1119 1403 
Q 1119 906 1312 657 
Q 1506 409 1894 409 
Q 2359 409 2629 706 
Q 2900 1003 2900 1516 
L 2900 3500 
L 3475 3500 
L 3475 0 
L 2900 0 
L 2900 538 
Q 2691 219 2414 64 
Q 2138 -91 1772 -91 
Q 1169 -91 856 284 
Q 544 659 544 1381 
z
M 1991 3584 
L 1991 3584 
z
" transform="scale(0.015625)"/>
      </defs>
      <use xlink:href="#DejaVuSans-5b"/>
      <use xlink:href="#DejaVuSans-63" transform="translate(39.013672 0)"/>
      <use xlink:href="#DejaVuSans-6f" transform="translate(93.994141 0)"/>
      <use xlink:href="#DejaVuSans-75" transform="translate(155.175781 0)"/>
      <use xlink:href="#DejaVuSans-6e" transform="translate(218.554688 0)"/>
      <use xlink:href="#DejaVuSans-74" transform="translate(281.933594 0)"/>
      <use xlink:href="#DejaVuSans-73" transform="translate(321.142578 0)"/>
      <use xlink:href="#DejaVuSans-5d" transform="translate(373.242188 0)"/>
     </g>
    </g>
   </g>
   <g id="patch_3">
    <path d="M 46.965625 228.96 
L 46.965625 7.2 
" style="fill: none; stroke: #000000; stroke-width: 0.8; stroke-linejoin: miter; stroke-linecap: square"/>
   </g>
   <g id="patch_4">
    <path d="M 381.765625 228.96 
L 381.765625 7.2 
" style="fill: none; stroke: #000000; stroke-width: 0.8; stroke-linejoin: miter; stroke-linecap: square"/>
   </g>
   <g id="patch_5">
    <path d="M 46.965625 228.96 
L 381.765625 228.96 
" style="fill: none; stroke: #000000; stroke-width: 0.8; stroke-linejoin: miter; stroke-linecap: square"/>
   </g>
   <g id="patch_6">
    <path d="M 46.965625 7.2 
L 381.765625 7.2 
" style="fill: none; stroke: #000000; stroke-width: 0.8; stroke-linejoin: miter; stroke-linecap: square"/>
   </g>
   <g id="legend_1">
    <g id="patch_7">
     <path d="M 246.957813 45.1125 
L 374.765625 45.1125 
Q 376.765625 45.1125 376.765625 43.1125 
L 376.765625 14.2 
Q 376.765625 12.2 374.765625 12.2 
L 246.957813 12.2 
Q 244.957813 12.2 244.957813 14.2 
L 244.957813 43.1125 
Q 244.957813 45.1125 246.957813 45.1125 
z
" style="fill: #ffffff; opacity: 0.8; stroke: #cccccc; stroke-linejoin: miter"/>
    </g>
    <g id="line2d_16">
     <path d="M 248.957813 20.298437 
L 248.957813 20.298437 
L 258.957813 20.298437 
L 258.957813 20.298437 
L 268.957813 20.298437 
" style="fill: none; stroke: #1f77b4; stroke-width: 1.5; stroke-linecap: square"/>
    </g>
    <g id="text_18">
     <!-- detector_number:0 -->
     <g transform="translate(276.957813 23.798437) scale(0.1 -0.1)">
      <defs>
       <path id="DejaVuSans-64" d="M 2906 2969 
L 2906 4863 
L 3481 4863 
L 3481 0 
L 2906 0 
L 2906 525 
Q 2725 213 2448 61 
Q 2172 -91 1784 -91 
Q 1150 -91 751 415 
Q 353 922 353 1747 
Q 353 2572 751 3078 
Q 1150 3584 1784 3584 
Q 2172 3584 2448 3432 
Q 2725 3281 2906 2969 
z
M 947 1747 
Q 947 1113 1208 752 
Q 1469 391 1925 391 
Q 2381 391 2643 752 
Q 2906 1113 2906 1747 
Q 2906 2381 2643 2742 
Q 2381 3103 1925 3103 
Q 1469 3103 1208 2742 
Q 947 2381 947 1747 
z
" transform="scale(0.015625)"/>
       <path id="DejaVuSans-72" d="M 2631 2963 
Q 2534 3019 2420 3045 
Q 2306 3072 2169 3072 
Q 1681 3072 1420 2755 
Q 1159 2438 1159 1844 
L 1159 0 
L 581 0 
L 581 3500 
L 1159 3500 
L 1159 2956 
Q 1341 3275 1631 3429 
Q 1922 3584 2338 3584 
Q 2397 3584 2469 3576 
Q 2541 3569 2628 3553 
L 2631 2963 
z
" transform="scale(0.015625)"/>
       <path id="DejaVuSans-62" d="M 3116 1747 
Q 3116 2381 2855 2742 
Q 2594 3103 2138 3103 
Q 1681 3103 1420 2742 
Q 1159 2381 1159 1747 
Q 1159 1113 1420 752 
Q 1681 391 2138 391 
Q 2594 391 2855 752 
Q 3116 1113 3116 1747 
z
M 1159 2969 
Q 1341 3281 1617 3432 
Q 1894 3584 2278 3584 
Q 2916 3584 3314 3078 
Q 3713 2572 3713 1747 
Q 3713 922 3314 415 
Q 2916 -91 2278 -91 
Q 1894 -91 1617 61 
Q 1341 213 1159 525 
L 1159 0 
L 581 0 
L 581 4863 
L 1159 4863 
L 1159 2969 
z
" transform="scale(0.015625)"/>
       <path id="DejaVuSans-3a" d="M 750 794 
L 1409 794 
L 1409 0 
L 750 0 
L 750 794 
z
M 750 3309 
L 1409 3309 
L 1409 2516 
L 750 2516 
L 750 3309 
z
" transform="scale(0.015625)"/>
      </defs>
      <use xlink:href="#DejaVuSans-64"/>
      <use xlink:href="#DejaVuSans-65" transform="translate(63.476562 0)"/>
      <use xlink:href="#DejaVuSans-74" transform="translate(125 0)"/>
      <use xlink:href="#DejaVuSans-65" transform="translate(164.208984 0)"/>
      <use xlink:href="#DejaVuSans-63" transform="translate(225.732422 0)"/>
      <use xlink:href="#DejaVuSans-74" transform="translate(280.712891 0)"/>
      <use xlink:href="#DejaVuSans-6f" transform="translate(319.921875 0)"/>
      <use xlink:href="#DejaVuSans-72" transform="translate(381.103516 0)"/>
      <use xlink:href="#DejaVuSans-5f" transform="translate(422.216797 0)"/>
      <use xlink:href="#DejaVuSans-6e" transform="translate(472.216797 0)"/>
      <use xlink:href="#DejaVuSans-75" transform="translate(535.595703 0)"/>
      <use xlink:href="#DejaVuSans-6d" transform="translate(598.974609 0)"/>
      <use xlink:href="#DejaVuSans-62" transform="translate(696.386719 0)"/>
      <use xlink:href="#DejaVuSans-65" transform="translate(759.863281 0)"/>
      <use xlink:href="#DejaVuSans-72" transform="translate(821.386719 0)"/>
      <use xlink:href="#DejaVuSans-3a" transform="translate(860.75 0)"/>
      <use xlink:href="#DejaVuSans-30" transform="translate(894.441406 0)"/>
     </g>
    </g>
    <g id="line2d_17">
     <path d="M 248.957813 35.254687 
L 248.957813 35.254687 
L 258.957813 35.254687 
L 258.957813 35.254687 
L 268.957813 35.254687 
" style="fill: none; stroke: #ff7f0e; stroke-width: 1.5; stroke-linecap: square"/>
    </g>
    <g id="text_19">
     <!-- detector_number:1 -->
     <g transform="translate(276.957813 38.754687) scale(0.1 -0.1)">
      <use xlink:href="#DejaVuSans-64"/>
      <use xlink:href="#DejaVuSans-65" transform="translate(63.476562 0)"/>
      <use xlink:href="#DejaVuSans-74" transform="translate(125 0)"/>
      <use xlink:href="#DejaVuSans-65" transform="translate(164.208984 0)"/>
      <use xlink:href="#DejaVuSans-63" transform="translate(225.732422 0)"/>
      <use xlink:href="#DejaVuSans-74" transform="translate(280.712891 0)"/>
      <use xlink:href="#DejaVuSans-6f" transform="translate(319.921875 0)"/>
      <use xlink:href="#DejaVuSans-72" transform="translate(381.103516 0)"/>
      <use xlink:href="#DejaVuSans-5f" transform="translate(422.216797 0)"/>
      <use xlink:href="#DejaVuSans-6e" transform="translate(472.216797 0)"/>
      <use xlink:href="#DejaVuSans-75" transform="translate(535.595703 0)"/>
      <use xlink:href="#DejaVuSans-6d" transform="translate(598.974609 0)"/>
      <use xlink:href="#DejaVuSans-62" transform="translate(696.386719 0)"/>
      <use xlink:href="#DejaVuSans-65" transform="translate(759.863281 0)"/>
      <use xlink:href="#DejaVuSans-72" transform="translate(821.386719 0)"/>
      <use xlink:href="#DejaVuSans-3a" transform="translate(860.75 0)"/>
      <use xlink:href="#DejaVuSans-31" transform="translate(894.441406 0)"/>
     </g>
    </g>
   </g>
   <g id="line2d_18">
    <path d="M 62.183807 119.962513 
L 63.198352 119.962513 
L 63.198352 124.069813 
L 64.212898 124.069813 
L 64.212898 127.492564 
L 65.227443 127.492564 
L 65.227443 128.177114 
L 66.241989 128.177114 
L 66.241989 128.519389 
L 67.256534 128.519389 
L 67.256534 119.962513 
L 68.27108 119.962513 
L 68.27108 120.989338 
L 69.285625 120.989338 
L 69.285625 126.123463 
L 70.30017 126.123463 
L 70.30017 133.311239 
L 71.314716 133.311239 
L 71.314716 135.36489 
L 72.329261 135.36489 
L 72.329261 120.989338 
L 73.343807 120.989338 
L 73.343807 133.995789 
L 74.358352 133.995789 
L 74.358352 140.15674 
L 75.372898 140.15674 
L 75.372898 138.445365 
L 76.387443 138.445365 
L 76.387443 137.41854 
L 77.401989 137.41854 
L 77.401989 152.820917 
L 78.416534 152.820917 
L 78.416534 135.36489 
L 79.43108 135.36489 
L 79.43108 137.760815 
L 80.445625 137.760815 
L 80.445625 147.344516 
L 81.46017 147.344516 
L 81.46017 139.814465 
L 82.474716 139.814465 
L 82.474716 135.022615 
L 83.489261 135.022615 
L 83.489261 153.163192 
L 85.518352 153.163192 
L 85.518352 158.981868 
L 86.532898 158.981868 
L 86.532898 145.633141 
L 87.547443 145.633141 
L 87.547443 149.055891 
L 88.561989 149.055891 
L 88.561989 156.585942 
L 89.576534 156.585942 
L 89.576534 156.928217 
L 90.59108 156.928217 
L 90.59108 154.532292 
L 91.605625 154.532292 
L 91.605625 154.874567 
L 92.62017 154.874567 
L 92.62017 154.532292 
L 93.634716 154.532292 
L 93.634716 162.746893 
L 94.649261 162.746893 
L 94.649261 157.955042 
L 95.663807 157.955042 
L 95.663807 161.720068 
L 96.678352 161.720068 
L 96.678352 158.981868 
L 97.692898 158.981868 
L 97.692898 166.511919 
L 98.707443 166.511919 
L 98.707443 166.854194 
L 99.721989 166.854194 
L 99.721989 171.646044 
L 100.736534 171.646044 
L 100.736534 167.196469 
L 101.75108 167.196469 
L 101.75108 176.09562 
L 102.765625 176.09562 
L 102.765625 178.491545 
L 103.78017 178.491545 
L 103.78017 173.357419 
L 104.794716 173.357419 
L 104.794716 183.967946 
L 105.809261 183.967946 
L 105.809261 179.176095 
L 106.823807 179.176095 
L 106.823807 187.048421 
L 107.838352 187.048421 
L 107.838352 186.363871 
L 108.852898 186.363871 
L 108.852898 191.840272 
L 109.867443 191.840272 
L 109.867443 195.263022 
L 110.881989 195.263022 
L 110.881989 190.128896 
L 111.896534 190.128896 
L 111.896534 198.343497 
L 112.91108 198.343497 
L 112.91108 192.867097 
L 113.925625 192.867097 
L 113.925625 201.423973 
L 114.94017 201.423973 
L 114.94017 198.343497 
L 115.954716 198.343497 
L 115.954716 204.162173 
L 116.969261 204.162173 
L 116.969261 201.081698 
L 117.983807 201.081698 
L 117.983807 201.423973 
L 118.998352 201.423973 
L 118.998352 203.135348 
L 120.012898 203.135348 
L 120.012898 209.980849 
L 121.027443 209.980849 
L 121.027443 206.558098 
L 122.041989 206.558098 
L 122.041989 206.900374 
L 123.056534 206.900374 
L 123.056534 212.376774 
L 124.07108 212.376774 
L 124.07108 209.980849 
L 125.085625 209.980849 
L 125.085625 212.719049 
L 126.10017 212.719049 
L 126.10017 213.403599 
L 127.114716 213.403599 
L 127.114716 215.114975 
L 129.143807 215.114975 
L 129.143807 215.45725 
L 130.158352 215.45725 
L 130.158352 217.168625 
L 131.172898 217.168625 
L 131.172898 217.5109 
L 132.187443 217.5109 
L 132.187443 218.19545 
L 133.201989 218.19545 
L 133.201989 217.5109 
L 134.216534 217.5109 
L 134.216534 218.537725 
L 135.23108 218.537725 
L 135.23108 218.88 
L 149.434716 218.88 
L 149.434716 214.772699 
L 150.449261 214.772699 
L 150.449261 209.980849 
L 151.463807 209.980849 
L 151.463807 206.558098 
L 152.478352 206.558098 
L 152.478352 201.081698 
L 153.492898 201.081698 
L 153.492898 194.578472 
L 154.507443 194.578472 
L 154.507443 189.786621 
L 155.521989 189.786621 
L 155.521989 183.625671 
L 156.536534 183.625671 
L 156.536534 180.88747 
L 157.55108 180.88747 
L 157.55108 170.961494 
L 158.565625 170.961494 
L 158.565625 176.437895 
L 159.58017 176.437895 
L 159.58017 166.511919 
L 160.594716 166.511919 
L 160.594716 154.190017 
L 161.609261 154.190017 
L 161.609261 158.297317 
L 162.623807 158.297317 
L 162.623807 146.317691 
L 163.638352 146.317691 
L 163.638352 143.237216 
L 164.652898 143.237216 
L 164.652898 141.52584 
L 165.667443 141.52584 
L 165.667443 138.10309 
L 166.681989 138.10309 
L 166.681989 127.492564 
L 167.696534 127.492564 
L 167.696534 113.117012 
L 168.71108 113.117012 
L 168.71108 115.170662 
L 169.725625 115.170662 
L 169.725625 99.083735 
L 170.74017 99.083735 
L 170.74017 96.345535 
L 171.754716 96.345535 
L 171.754716 99.42601 
L 172.769261 99.42601 
L 172.769261 107.640611 
L 173.783807 107.640611 
L 173.783807 92.580509 
L 174.798352 92.580509 
L 174.798352 100.79511 
L 175.812898 100.79511 
L 175.812898 75.809032 
L 176.827443 75.809032 
L 176.827443 75.124482 
L 177.841989 75.124482 
L 177.841989 70.674907 
L 178.856534 70.674907 
L 178.856534 64.513956 
L 179.87108 64.513956 
L 179.87108 79.231783 
L 180.885625 79.231783 
L 180.885625 81.285433 
L 181.90017 81.285433 
L 181.90017 51.849779 
L 182.914716 51.849779 
L 182.914716 53.561154 
L 183.929261 53.561154 
L 183.929261 51.849779 
L 184.943807 51.849779 
L 184.943807 62.118031 
L 185.958352 62.118031 
L 185.958352 43.977453 
L 186.972898 43.977453 
L 186.972898 46.715654 
L 187.987443 46.715654 
L 187.987443 40.896978 
L 189.001989 40.896978 
L 189.001989 36.447402 
L 190.016534 36.447402 
L 190.016534 40.212428 
L 191.03108 40.212428 
L 191.03108 33.366927 
L 192.045625 33.366927 
L 192.045625 24.467776 
L 193.06017 24.467776 
L 193.06017 34.736027 
L 194.074716 34.736027 
L 194.074716 30.286452 
L 195.089261 30.286452 
L 195.089261 24.125501 
L 196.103807 24.125501 
L 196.103807 32.340102 
L 197.118352 32.340102 
L 197.118352 36.447402 
L 198.132898 36.447402 
L 198.132898 26.863701 
L 199.147443 26.863701 
L 199.147443 38.158778 
L 200.161989 38.158778 
L 200.161989 29.259626 
L 201.176534 29.259626 
L 201.176534 31.313277 
L 202.19108 31.313277 
L 202.19108 49.111579 
L 203.205625 49.111579 
L 203.205625 56.64163 
L 204.22017 56.64163 
L 204.22017 48.769304 
L 205.234716 48.769304 
L 205.234716 42.950628 
L 206.249261 42.950628 
L 206.249261 54.245705 
L 207.263807 54.245705 
L 207.263807 55.614805 
L 208.278352 55.614805 
L 208.278352 65.198506 
L 209.292898 65.198506 
L 209.292898 51.165229 
L 210.307443 51.165229 
L 210.307443 45.004278 
L 211.321989 45.004278 
L 211.321989 51.165229 
L 212.336534 51.165229 
L 212.336534 57.668455 
L 213.35108 57.668455 
L 213.35108 68.963531 
L 214.365625 68.963531 
L 214.365625 70.332632 
L 215.38017 70.332632 
L 215.38017 67.594431 
L 216.394716 67.594431 
L 216.394716 64.513956 
L 217.409261 64.513956 
L 217.409261 67.252156 
L 218.423807 67.252156 
L 218.423807 66.225331 
L 219.438352 66.225331 
L 219.438352 67.594431 
L 220.452898 67.594431 
L 220.452898 62.118031 
L 221.467443 62.118031 
L 221.467443 77.520407 
L 222.481989 77.520407 
L 222.481989 72.044007 
L 223.496534 72.044007 
L 223.496534 62.802581 
L 224.51108 62.802581 
L 224.51108 68.278981 
L 225.525625 68.278981 
L 225.525625 61.091205 
L 226.54017 61.091205 
L 226.54017 68.278981 
L 227.554716 68.278981 
L 227.554716 66.909881 
L 228.569261 66.909881 
L 228.569261 85.050458 
L 229.583807 85.050458 
L 229.583807 78.204958 
L 230.598352 78.204958 
L 230.598352 69.305806 
L 231.612898 69.305806 
L 231.612898 77.862683 
L 232.627443 77.862683 
L 232.627443 79.574058 
L 233.641989 79.574058 
L 233.641989 73.413107 
L 234.656534 73.413107 
L 234.656534 62.118031 
L 235.67108 62.118031 
L 235.67108 63.487131 
L 236.685625 63.487131 
L 236.685625 73.413107 
L 237.70017 73.413107 
L 237.70017 78.889508 
L 238.714716 78.889508 
L 238.714716 87.104109 
L 239.729261 87.104109 
L 239.729261 78.889508 
L 240.743807 78.889508 
L 240.743807 90.869134 
L 241.758352 90.869134 
L 241.758352 74.782207 
L 242.772898 74.782207 
L 242.772898 88.130934 
L 243.787443 88.130934 
L 243.787443 84.023633 
L 244.801989 84.023633 
L 244.801989 96.00326 
L 245.816534 96.00326 
L 245.816534 87.446384 
L 246.83108 87.446384 
L 246.83108 74.782207 
L 247.845625 74.782207 
L 247.845625 90.869134 
L 248.86017 90.869134 
L 248.86017 82.312258 
L 249.874716 82.312258 
L 249.874716 87.446384 
L 250.889261 87.446384 
L 250.889261 83.339083 
L 251.903807 83.339083 
L 251.903807 92.922784 
L 252.918352 92.922784 
L 252.918352 103.533311 
L 253.932898 103.533311 
L 253.932898 101.137385 
L 254.947443 101.137385 
L 254.947443 91.895959 
L 255.961989 91.895959 
L 255.961989 107.298336 
L 256.976534 107.298336 
L 256.976534 108.667436 
L 257.99108 108.667436 
L 257.99108 110.721087 
L 259.005625 110.721087 
L 259.005625 119.962513 
L 260.02017 119.962513 
L 260.02017 117.566587 
L 261.034716 117.566587 
L 261.034716 128.177114 
L 262.049261 128.177114 
L 262.049261 134.338065 
L 263.063807 134.338065 
L 263.063807 132.626689 
L 264.078352 132.626689 
L 264.078352 148.371341 
L 265.092898 148.371341 
L 265.092898 146.659966 
L 266.107443 146.659966 
L 266.107443 154.874567 
L 267.121989 154.874567 
L 267.121989 148.371341 
L 268.136534 148.371341 
L 268.136534 152.478642 
L 269.15108 152.478642 
L 269.15108 159.666418 
L 270.165625 159.666418 
L 270.165625 171.303769 
L 271.18017 171.303769 
L 271.18017 166.854194 
L 272.194716 166.854194 
L 272.194716 177.122445 
L 273.209261 177.122445 
L 273.209261 178.83382 
L 274.223807 178.83382 
L 274.223807 181.229745 
L 275.238352 181.229745 
L 275.238352 187.732971 
L 276.252898 187.732971 
L 276.252898 191.155722 
L 277.267443 191.155722 
L 277.267443 203.135348 
L 278.281989 203.135348 
L 278.281989 198.001222 
L 279.296534 198.001222 
L 279.296534 204.504448 
L 280.31108 204.504448 
L 280.31108 208.954024 
L 281.325625 208.954024 
L 281.325625 212.719049 
L 283.354716 212.719049 
L 283.354716 214.772699 
L 284.369261 214.772699 
L 284.369261 217.168625 
L 285.383807 217.168625 
L 285.383807 217.853175 
L 286.398352 217.853175 
L 286.398352 218.88 
L 287.412898 218.88 
L 287.412898 218.537725 
L 288.427443 218.537725 
L 288.427443 218.88 
L 297.558352 218.88 
L 297.558352 218.537725 
L 298.572898 218.537725 
L 298.572898 214.088149 
L 299.587443 214.088149 
L 299.587443 208.611749 
L 300.601989 208.611749 
L 300.601989 206.215823 
L 301.616534 206.215823 
L 301.616534 199.370323 
L 302.63108 199.370323 
L 302.63108 192.182547 
L 303.645625 192.182547 
L 303.645625 193.893922 
L 304.66017 193.893922 
L 304.66017 188.417521 
L 305.674716 188.417521 
L 305.674716 185.337046 
L 306.689261 185.337046 
L 306.689261 178.491545 
L 307.703807 178.491545 
L 307.703807 179.176095 
L 308.718352 179.176095 
L 308.718352 177.46472 
L 309.732898 177.46472 
L 309.732898 158.981868 
L 310.747443 158.981868 
L 310.747443 164.115993 
L 311.761989 164.115993 
L 311.761989 152.136367 
L 312.776534 152.136367 
L 312.776534 153.847742 
L 313.79108 153.847742 
L 313.79108 151.794092 
L 314.805625 151.794092 
L 314.805625 145.975416 
L 315.82017 145.975416 
L 315.82017 149.055891 
L 316.834716 149.055891 
L 316.834716 153.847742 
L 317.849261 153.847742 
L 317.849261 135.707165 
L 318.863807 135.707165 
L 318.863807 136.73399 
L 319.878352 136.73399 
L 319.878352 146.317691 
L 320.892898 146.317691 
L 320.892898 137.076265 
L 321.907443 137.076265 
L 321.907443 120.989338 
L 322.921989 120.989338 
L 322.921989 136.04944 
L 323.936534 136.04944 
L 323.936534 132.284414 
L 324.95108 132.284414 
L 324.95108 126.123463 
L 325.965625 126.123463 
L 325.965625 123.727538 
L 326.98017 123.727538 
L 326.98017 116.197487 
L 327.994716 116.197487 
L 327.994716 115.512937 
L 329.009261 115.512937 
L 329.009261 116.882037 
L 330.023807 116.882037 
L 330.023807 110.721087 
L 331.038352 110.721087 
L 331.038352 113.117012 
L 332.052898 113.117012 
L 332.052898 108.667436 
L 333.067443 108.667436 
L 333.067443 98.74146 
L 334.081989 98.74146 
L 334.081989 106.613786 
L 335.096534 106.613786 
L 335.096534 97.37236 
L 337.125625 97.37236 
L 337.125625 99.768285 
L 338.14017 99.768285 
L 338.14017 95.660985 
L 339.154716 95.660985 
L 339.154716 102.506486 
L 340.169261 102.506486 
L 340.169261 94.291885 
L 341.183807 94.291885 
L 341.183807 91.895959 
L 342.198352 91.895959 
L 342.198352 82.996808 
L 343.212898 82.996808 
L 343.212898 96.00326 
L 344.227443 96.00326 
L 344.227443 92.922784 
L 345.241989 92.922784 
L 345.241989 89.157759 
L 346.256534 89.157759 
L 346.256534 98.05691 
L 347.27108 98.05691 
L 347.27108 83.681358 
L 348.285625 83.681358 
L 348.285625 88.473209 
L 349.30017 88.473209 
L 349.30017 100.452835 
L 350.314716 100.452835 
L 350.314716 103.875586 
L 351.329261 103.875586 
L 351.329261 99.42601 
L 352.343807 99.42601 
L 352.343807 112.774737 
L 353.358352 112.774737 
L 353.358352 115.170662 
L 354.372898 115.170662 
L 354.372898 100.452835 
L 355.387443 100.452835 
L 355.387443 102.506486 
L 356.401989 102.506486 
L 356.401989 105.586961 
L 357.416534 105.586961 
L 357.416534 104.217861 
L 358.43108 104.217861 
L 358.43108 101.137385 
L 359.445625 101.137385 
L 359.445625 109.694261 
L 360.46017 109.694261 
L 360.46017 109.351986 
L 361.474716 109.351986 
L 361.474716 115.512937 
L 362.489261 115.512937 
L 362.489261 113.459287 
L 363.503807 113.459287 
L 363.503807 121.673888 
L 364.518352 121.673888 
L 364.518352 120.647063 
L 365.532898 120.647063 
L 365.532898 119.277963 
L 366.547443 119.277963 
L 366.547443 119.277963 
" clip-path="url(#pb0e46af910)" style="fill: none; stroke: #1f77b4; stroke-width: 1.5; stroke-linecap: square"/>
   </g>
   <g id="line2d_19">
    <path d="M 62.183807 124.069813 
L 63.198352 124.069813 
L 63.198352 122.358438 
L 64.212898 122.358438 
L 64.212898 130.573039 
L 65.227443 130.573039 
L 65.227443 128.177114 
L 66.241989 128.177114 
L 66.241989 129.888489 
L 67.256534 129.888489 
L 67.256534 132.626689 
L 68.27108 132.626689 
L 68.27108 137.41854 
L 69.285625 137.41854 
L 69.285625 132.626689 
L 70.30017 132.626689 
L 70.30017 147.686791 
L 71.314716 147.686791 
L 71.314716 141.183565 
L 72.329261 141.183565 
L 72.329261 131.599864 
L 73.343807 131.599864 
L 73.343807 144.948591 
L 74.358352 144.948591 
L 74.358352 137.076265 
L 75.372898 137.076265 
L 75.372898 135.707165 
L 76.387443 135.707165 
L 76.387443 149.398166 
L 77.401989 149.398166 
L 77.401989 153.163192 
L 78.416534 153.163192 
L 78.416534 156.928217 
L 79.43108 156.928217 
L 79.43108 144.606316 
L 80.445625 144.606316 
L 80.445625 148.713616 
L 81.46017 148.713616 
L 81.46017 153.163192 
L 82.474716 153.163192 
L 82.474716 155.216842 
L 83.489261 155.216842 
L 83.489261 154.874567 
L 84.503807 154.874567 
L 84.503807 151.451817 
L 85.518352 151.451817 
L 85.518352 154.532292 
L 86.532898 154.532292 
L 86.532898 162.404618 
L 87.547443 162.404618 
L 87.547443 156.585942 
L 89.576534 156.585942 
L 89.576534 159.666418 
L 90.59108 159.666418 
L 90.59108 169.592394 
L 91.605625 169.592394 
L 91.605625 162.404618 
L 92.62017 162.404618 
L 92.62017 171.988319 
L 93.634716 171.988319 
L 93.634716 166.854194 
L 94.649261 166.854194 
L 94.649261 176.78017 
L 96.678352 176.78017 
L 96.678352 173.357419 
L 97.692898 173.357419 
L 97.692898 185.337046 
L 98.707443 185.337046 
L 98.707443 179.176095 
L 99.721989 179.176095 
L 99.721989 182.598846 
L 100.736534 182.598846 
L 100.736534 193.551647 
L 101.75108 193.551647 
L 101.75108 188.759796 
L 102.765625 188.759796 
L 102.765625 195.263022 
L 103.78017 195.263022 
L 103.78017 191.497997 
L 104.794716 191.497997 
L 104.794716 195.947572 
L 105.809261 195.947572 
L 105.809261 198.685772 
L 106.823807 198.685772 
L 106.823807 196.289847 
L 107.838352 196.289847 
L 107.838352 202.793073 
L 108.852898 202.793073 
L 108.852898 200.739423 
L 109.867443 200.739423 
L 109.867443 202.450798 
L 110.881989 202.450798 
L 110.881989 201.423973 
L 111.896534 201.423973 
L 111.896534 208.611749 
L 112.91108 208.611749 
L 112.91108 204.162173 
L 113.925625 204.162173 
L 113.925625 208.611749 
L 114.94017 208.611749 
L 114.94017 210.323124 
L 115.954716 210.323124 
L 115.954716 211.692224 
L 116.969261 211.692224 
L 116.969261 210.323124 
L 117.983807 210.323124 
L 117.983807 213.403599 
L 118.998352 213.403599 
L 118.998352 215.45725 
L 120.012898 215.45725 
L 120.012898 214.088149 
L 121.027443 214.088149 
L 121.027443 215.45725 
L 122.041989 215.45725 
L 122.041989 217.5109 
L 123.056534 217.5109 
L 123.056534 217.168625 
L 124.07108 217.168625 
L 124.07108 218.19545 
L 125.085625 218.19545 
L 125.085625 217.5109 
L 126.10017 217.5109 
L 126.10017 218.537725 
L 127.114716 218.537725 
L 127.114716 218.88 
L 147.405625 218.88 
L 147.405625 217.168625 
L 148.42017 217.168625 
L 148.42017 211.007674 
L 149.434716 211.007674 
L 149.434716 209.638574 
L 150.449261 209.638574 
L 150.449261 199.712598 
L 151.463807 199.712598 
L 151.463807 196.974397 
L 152.478352 196.974397 
L 152.478352 189.102071 
L 153.492898 189.102071 
L 153.492898 182.598846 
L 154.507443 182.598846 
L 154.507443 186.021596 
L 155.521989 186.021596 
L 155.521989 169.592394 
L 156.536534 169.592394 
L 156.536534 171.988319 
L 157.55108 171.988319 
L 157.55108 168.565569 
L 158.565625 168.565569 
L 158.565625 154.190017 
L 159.58017 154.190017 
L 159.58017 158.297317 
L 160.594716 158.297317 
L 160.594716 144.264041 
L 161.609261 144.264041 
L 161.609261 140.84129 
L 162.623807 140.84129 
L 162.623807 139.814465 
L 163.638352 139.814465 
L 163.638352 136.04944 
L 164.652898 136.04944 
L 164.652898 127.150289 
L 165.667443 127.150289 
L 165.667443 108.325161 
L 166.681989 108.325161 
L 166.681989 112.774737 
L 167.696534 112.774737 
L 167.696534 97.714635 
L 168.71108 97.714635 
L 168.71108 94.63416 
L 169.725625 94.63416 
L 169.725625 93.265059 
L 170.74017 93.265059 
L 170.74017 104.560136 
L 171.754716 104.560136 
L 171.754716 88.130934 
L 172.769261 88.130934 
L 172.769261 94.976435 
L 173.783807 94.976435 
L 173.783807 78.547233 
L 174.798352 78.547233 
L 174.798352 63.487131 
L 175.812898 63.487131 
L 175.812898 59.722105 
L 176.827443 59.722105 
L 176.827443 72.044007 
L 177.841989 72.044007 
L 177.841989 67.252156 
L 178.856534 67.252156 
L 178.856534 77.178132 
L 179.87108 77.178132 
L 179.87108 38.501053 
L 180.885625 38.501053 
L 180.885625 56.64163 
L 181.90017 56.64163 
L 181.90017 47.400204 
L 182.914716 47.400204 
L 182.914716 60.06438 
L 183.929261 60.06438 
L 183.929261 36.447402 
L 184.943807 36.447402 
L 184.943807 38.843328 
L 185.958352 38.843328 
L 185.958352 29.601902 
L 186.972898 29.601902 
L 186.972898 47.057929 
L 187.987443 47.057929 
L 187.987443 26.863701 
L 189.001989 26.863701 
L 189.001989 19.33365 
L 190.016534 19.33365 
L 190.016534 28.575076 
L 191.03108 28.575076 
L 191.03108 20.70275 
L 192.045625 20.70275 
L 192.045625 17.28 
L 193.06017 17.28 
L 193.06017 34.393752 
L 194.074716 34.393752 
L 194.074716 27.205976 
L 195.089261 27.205976 
L 195.089261 26.179151 
L 196.103807 26.179151 
L 196.103807 28.575076 
L 197.118352 28.575076 
L 197.118352 30.628727 
L 198.132898 30.628727 
L 198.132898 20.0182 
L 199.147443 20.0182 
L 199.147443 49.453854 
L 200.161989 49.453854 
L 200.161989 43.977453 
L 201.176534 43.977453 
L 201.176534 50.822954 
L 202.19108 50.822954 
L 202.19108 39.527878 
L 203.205625 39.527878 
L 203.205625 49.453854 
L 204.22017 49.453854 
L 204.22017 52.534329 
L 205.234716 52.534329 
L 205.234716 59.37983 
L 206.249261 59.37983 
L 206.249261 48.084754 
L 207.263807 48.084754 
L 207.263807 44.319728 
L 208.278352 44.319728 
L 208.278352 44.662003 
L 209.292898 44.662003 
L 209.292898 50.480679 
L 210.307443 50.480679 
L 210.307443 71.359457 
L 211.321989 71.359457 
L 211.321989 61.091205 
L 212.336534 61.091205 
L 212.336534 64.856231 
L 213.35108 64.856231 
L 213.35108 64.171681 
L 214.365625 64.171681 
L 214.365625 62.802581 
L 215.38017 62.802581 
L 215.38017 58.01073 
L 216.394716 58.01073 
L 216.394716 62.802581 
L 217.409261 62.802581 
L 217.409261 64.856231 
L 218.423807 64.856231 
L 218.423807 76.835857 
L 219.438352 76.835857 
L 219.438352 69.990357 
L 220.452898 69.990357 
L 220.452898 53.561154 
L 221.467443 53.561154 
L 221.467443 59.722105 
L 222.481989 59.722105 
L 222.481989 68.963531 
L 223.496534 68.963531 
L 223.496534 59.037555 
L 224.51108 59.037555 
L 224.51108 73.070832 
L 225.525625 73.070832 
L 225.525625 72.728557 
L 226.54017 72.728557 
L 226.54017 70.674907 
L 227.554716 70.674907 
L 227.554716 73.755382 
L 228.569261 73.755382 
L 228.569261 79.574058 
L 229.583807 79.574058 
L 229.583807 61.775756 
L 230.598352 61.775756 
L 230.598352 70.674907 
L 231.612898 70.674907 
L 231.612898 55.27253 
L 232.627443 55.27253 
L 232.627443 69.648081 
L 233.641989 69.648081 
L 233.641989 74.439932 
L 234.656534 74.439932 
L 234.656534 75.809032 
L 235.67108 75.809032 
L 235.67108 82.312258 
L 236.685625 82.312258 
L 236.685625 86.077284 
L 237.70017 86.077284 
L 237.70017 71.017182 
L 238.714716 71.017182 
L 238.714716 87.446384 
L 239.729261 87.446384 
L 239.729261 78.889508 
L 240.743807 78.889508 
L 240.743807 94.63416 
L 241.758352 94.63416 
L 241.758352 83.339083 
L 242.772898 83.339083 
L 242.772898 69.990357 
L 243.787443 69.990357 
L 243.787443 87.788659 
L 244.801989 87.788659 
L 244.801989 80.258608 
L 245.816534 80.258608 
L 245.816534 82.312258 
L 246.83108 82.312258 
L 246.83108 79.916333 
L 247.845625 79.916333 
L 247.845625 92.238234 
L 248.86017 92.238234 
L 248.86017 100.452835 
L 249.874716 100.452835 
L 249.874716 99.768285 
L 250.889261 99.768285 
L 250.889261 87.446384 
L 251.903807 87.446384 
L 251.903807 104.560136 
L 252.918352 104.560136 
L 252.918352 107.982886 
L 253.932898 107.982886 
L 253.932898 110.378812 
L 254.947443 110.378812 
L 254.947443 117.224312 
L 255.961989 117.224312 
L 255.961989 117.566587 
L 256.976534 117.566587 
L 256.976534 130.915314 
L 257.99108 130.915314 
L 257.99108 123.042988 
L 259.005625 123.042988 
L 259.005625 133.653514 
L 260.02017 133.653514 
L 260.02017 155.559117 
L 261.034716 155.559117 
L 261.034716 145.633141 
L 262.049261 145.633141 
L 262.049261 148.029066 
L 264.078352 148.029066 
L 264.078352 152.478642 
L 265.092898 152.478642 
L 265.092898 165.827368 
L 266.107443 165.827368 
L 266.107443 166.511919 
L 267.121989 166.511919 
L 267.121989 168.907844 
L 268.136534 168.907844 
L 268.136534 181.229745 
L 269.15108 181.229745 
L 269.15108 176.78017 
L 270.165625 176.78017 
L 270.165625 184.652496 
L 271.18017 184.652496 
L 271.18017 191.840272 
L 272.194716 191.840272 
L 272.194716 192.524822 
L 273.209261 192.524822 
L 273.209261 203.135348 
L 274.223807 203.135348 
L 274.223807 198.001222 
L 275.238352 198.001222 
L 275.238352 207.927199 
L 276.252898 207.927199 
L 276.252898 214.088149 
L 277.267443 214.088149 
L 277.267443 210.323124 
L 278.281989 210.323124 
L 278.281989 214.772699 
L 279.296534 214.772699 
L 279.296534 216.1418 
L 280.31108 216.1418 
L 280.31108 217.853175 
L 281.325625 217.853175 
L 281.325625 218.537725 
L 283.354716 218.537725 
L 283.354716 218.88 
L 293.50017 218.88 
L 293.50017 215.114975 
L 294.514716 215.114975 
L 294.514716 208.269474 
L 295.529261 208.269474 
L 295.529261 207.927199 
L 296.543807 207.927199 
L 296.543807 197.658947 
L 297.558352 197.658947 
L 297.558352 195.605297 
L 298.572898 195.605297 
L 298.572898 191.155722 
L 299.587443 191.155722 
L 299.587443 189.786621 
L 300.601989 189.786621 
L 300.601989 183.625671 
L 301.616534 183.625671 
L 301.616534 178.491545 
L 302.63108 178.491545 
L 302.63108 177.806995 
L 303.645625 177.806995 
L 303.645625 176.09562 
L 304.66017 176.09562 
L 304.66017 157.270492 
L 305.674716 157.270492 
L 305.674716 164.800543 
L 306.689261 164.800543 
L 306.689261 145.290866 
L 307.703807 145.290866 
L 307.703807 156.243667 
L 308.718352 156.243667 
L 308.718352 146.317691 
L 309.732898 146.317691 
L 309.732898 148.371341 
L 310.747443 148.371341 
L 310.747443 143.921766 
L 311.761989 143.921766 
L 311.761989 151.451817 
L 312.776534 151.451817 
L 312.776534 131.257589 
L 313.79108 131.257589 
L 313.79108 137.41854 
L 314.805625 137.41854 
L 314.805625 141.52584 
L 315.82017 141.52584 
L 315.82017 130.915314 
L 316.834716 130.915314 
L 316.834716 117.908862 
L 317.849261 117.908862 
L 317.849261 142.21039 
L 318.863807 142.21039 
L 318.863807 126.465739 
L 319.878352 126.465739 
L 319.878352 123.042988 
L 320.892898 123.042988 
L 320.892898 117.224312 
L 321.907443 117.224312 
L 321.907443 111.405637 
L 322.921989 111.405637 
L 322.921989 117.908862 
L 323.936534 117.908862 
L 323.936534 112.090187 
L 324.95108 112.090187 
L 324.95108 101.47966 
L 325.965625 101.47966 
L 325.965625 106.956061 
L 326.98017 106.956061 
L 326.98017 105.586961 
L 327.994716 105.586961 
L 327.994716 96.345535 
L 329.009261 96.345535 
L 329.009261 103.191036 
L 330.023807 103.191036 
L 330.023807 88.473209 
L 331.038352 88.473209 
L 331.038352 99.083735 
L 332.052898 99.083735 
L 332.052898 96.68781 
L 333.067443 96.68781 
L 333.067443 94.63416 
L 334.081989 94.63416 
L 334.081989 97.37236 
L 335.096534 97.37236 
L 335.096534 87.788659 
L 336.11108 87.788659 
L 336.11108 75.809032 
L 337.125625 75.809032 
L 337.125625 94.291885 
L 338.14017 94.291885 
L 338.14017 87.446384 
L 339.154716 87.446384 
L 339.154716 90.184584 
L 340.169261 90.184584 
L 340.169261 92.238234 
L 341.183807 92.238234 
L 341.183807 80.943158 
L 342.198352 80.943158 
L 342.198352 89.157759 
L 343.212898 89.157759 
L 343.212898 97.030085 
L 344.227443 97.030085 
L 344.227443 98.74146 
L 345.241989 98.74146 
L 345.241989 97.714635 
L 346.256534 97.714635 
L 346.256534 112.774737 
L 347.27108 112.774737 
L 347.27108 111.747912 
L 348.285625 111.747912 
L 348.285625 93.94961 
L 349.30017 93.94961 
L 349.30017 100.452835 
L 350.314716 100.452835 
L 350.314716 104.217861 
L 351.329261 104.217861 
L 351.329261 98.74146 
L 352.343807 98.74146 
L 352.343807 102.848761 
L 353.358352 102.848761 
L 353.358352 106.613786 
L 354.372898 106.613786 
L 354.372898 106.956061 
L 355.387443 106.956061 
L 355.387443 117.908862 
L 356.401989 117.908862 
L 356.401989 107.982886 
L 357.416534 107.982886 
L 357.416534 122.700713 
L 359.445625 122.700713 
L 359.445625 114.828387 
L 360.46017 114.828387 
L 360.46017 117.224312 
L 361.474716 117.224312 
L 361.474716 120.647063 
L 362.489261 120.647063 
L 362.489261 127.492564 
L 364.518352 127.492564 
L 364.518352 113.801562 
L 365.532898 113.801562 
L 365.532898 122.700713 
L 366.547443 122.700713 
L 366.547443 122.700713 
" clip-path="url(#pb0e46af910)" style="fill: none; stroke: #ff7f0e; stroke-width: 1.5; stroke-linecap: square"/>
   </g>
  </g>
 </g>
 <defs>
  <clipPath id="pb0e46af910">
   <rect x="46.965625" y="7.2" width="334.8" height="221.76"/>
  </clipPath>
 </defs>
</svg>
