<?xml version="1.0" encoding="utf-8" standalone="no"?>
<!DOCTYPE svg PUBLIC "-//W3C//DTD SVG 1.1//EN"
  "http://www.w3.org/Graphics/SVG/1.1/DTD/svg11.dtd">
<svg xmlns:xlink="http://www.w3.org/1999/xlink" width="395.328125pt" height="266.51625pt" viewBox="0 0 395.328125 266.51625" xmlns="http://www.w3.org/2000/svg" version="1.1">
 <metadata>
  <rdf:RDF xmlns:dc="http://purl.org/dc/elements/1.1/" xmlns:cc="http://creativecommons.org/ns#" xmlns:rdf="http://www.w3.org/1999/02/22-rdf-syntax-ns#">
   <cc:Work>
    <dc:type rdf:resource="http://purl.org/dc/dcmitype/StillImage"/>
    <dc:date>2025-12-05T13:47:39.204605</dc:date>
    <dc:format>image/svg+xml</dc:format>
    <dc:creator>
     <cc:Agent>
      <dc:title>Matplotlib v3.10.7, https://matplotlib.org/</dc:title>
     </cc:Agent>
    </dc:creator>
   </cc:Work>
  </rdf:RDF>
 </metadata>
 <defs>
  <style type="text/css">*{stroke-linejoin: round; stroke-linecap: butt}</style>
 </defs>
 <g id="figure_1">
  <g id="patch_1">
   <path d="M 0 266.51625 
L 395.328125 266.51625 
L 395.328125 0 
L 0 0 
z
" style="fill: #ffffff"/>
  </g>
  <g id="axes_1">
   <g id="patch_2">
    <path d="M 53.328125 228.96 
L 388.128125 228.96 
L 388.128125 7.2 
L 53.328125 7.2 
z
" style="fill: #ffffff"/>
   </g>
   <g id="matplotlib.axis_1">
    <g id="xtick_1">
     <g id="line2d_1">
      <defs>
       <path id="mb1e319866f" d="M 0 0 
L 0 3.5 
" style="stroke: #000000; stroke-width: 0.8"/>
      </defs>
      <g>
       <use xlink:href="#mb1e319866f" x="110.003886" y="228.96" style="stroke: #000000; stroke-width: 0.8"/>
      </g>
     </g>
     <g id="text_1">
      <!-- 20000 -->
      <g transform="translate(94.097636 243.558437) scale(0.1 -0.1)">
       <defs>
        <path id="DejaVuSans-32" d="M 1228 531 
L 3431 531 
L 3431 0 
L 469 0 
L 469 531 
Q 828 903 1448 1529 
Q 2069 2156 2228 2338 
Q 2531 2678 2651 2914 
Q 2772 3150 2772 3378 
Q 2772 3750 2511 3984 
Q 2250 4219 1831 4219 
Q 1534 4219 1204 4116 
Q 875 4013 500 3803 
L 500 4441 
Q 881 4594 1212 4672 
Q 1544 4750 1819 4750 
Q 2544 4750 2975 4387 
Q 3406 4025 3406 3419 
Q 3406 3131 3298 2873 
Q 3191 2616 2906 2266 
Q 2828 2175 2409 1742 
Q 1991 1309 1228 531 
z
" transform="scale(0.015625)"/>
        <path id="DejaVuSans-30" d="M 2034 4250 
Q 1547 4250 1301 3770 
Q 1056 3291 1056 2328 
Q 1056 1369 1301 889 
Q 1547 409 2034 409 
Q 2525 409 2770 889 
Q 3016 1369 3016 2328 
Q 3016 3291 2770 3770 
Q 2525 4250 2034 4250 
z
M 2034 4750 
Q 2819 4750 3233 4129 
Q 3647 3509 3647 2328 
Q 3647 1150 3233 529 
Q 2819 -91 2034 -91 
Q 1250 -91 836 529 
Q 422 1150 422 2328 
Q 422 3509 836 4129 
Q 1250 4750 2034 4750 
z
" transform="scale(0.015625)"/>
       </defs>
       <use xlink:href="#DejaVuSans-32"/>
       <use xlink:href="#DejaVuSans-30" transform="translate(63.623047 0)"/>
       <use xlink:href="#DejaVuSans-30" transform="translate(127.246094 0)"/>
       <use xlink:href="#DejaVuSans-30" transform="translate(190.869141 0)"/>
       <use xlink:href="#DejaVuSans-30" transform="translate(254.492188 0)"/>
      </g>
     </g>
    </g>
    <g id="xtick_2">
     <g id="line2d_2">
      <g>
       <use xlink:href="#mb1e319866f" x="172.425986" y="228.96" style="stroke: #000000; stroke-width: 0.8"/>
      </g>
     </g>
     <g id="text_2">
      <!-- 30000 -->
      <g transform="translate(156.519736 243.558437) scale(0.1 -0.1)">
       <defs>
        <path id="DejaVuSans-33" d="M 2597 2516 
Q 3050 2419 3304 2112 
Q 3559 1806 3559 1356 
Q 3559 666 3084 287 
Q 2609 -91 1734 -91 
Q 1441 -91 1130 -33 
Q 819 25 488 141 
L 488 750 
Q 750 597 1062 519 
Q 1375 441 1716 441 
Q 2309 441 2620 675 
Q 2931 909 2931 1356 
Q 2931 1769 2642 2001 
Q 2353 2234 1838 2234 
L 1294 2234 
L 1294 2753 
L 1863 2753 
Q 2328 2753 2575 2939 
Q 2822 3125 2822 3475 
Q 2822 3834 2567 4026 
Q 2313 4219 1838 4219 
Q 1578 4219 1281 4162 
Q 984 4106 628 3988 
L 628 4550 
Q 988 4650 1302 4700 
Q 1616 4750 1894 4750 
Q 2613 4750 3031 4423 
Q 3450 4097 3450 3541 
Q 3450 3153 3228 2886 
Q 3006 2619 2597 2516 
z
" transform="scale(0.015625)"/>
       </defs>
       <use xlink:href="#DejaVuSans-33"/>
       <use xlink:href="#DejaVuSans-30" transform="translate(63.623047 0)"/>
       <use xlink:href="#DejaVuSans-30" transform="translate(127.246094 0)"/>
       <use xlink:href="#DejaVuSans-30" transform="translate(190.869141 0)"/>
       <use xlink:href="#DejaVuSans-30" transform="translate(254.492188 0)"/>
      </g>
     </g>
    </g>
    <g id="xtick_3">
     <g id="line2d_3">
      <g>
       <use xlink:href="#mb1e319866f" x="234.848087" y="228.96" style="stroke: #000000; stroke-width: 0.8"/>
      </g>
     </g>
     <g id="text_3">
      <!-- 40000 -->
      <g transform="translate(218.941837 243.558437) scale(0.1 -0.1)">
       <defs>
        <path id="DejaVuSans-34" d="M 2419 4116 
L 825 1625 
L 2419 1625 
L 2419 4116 
z
M 2253 4666 
L 3047 4666 
L 3047 1625 
L 3713 1625 
L 3713 1100 
L 3047 1100 
L 3047 0 
L 2419 0 
L 2419 1100 
L 313 1100 
L 313 1709 
L 2253 4666 
z
" transform="scale(0.015625)"/>
       </defs>
       <use xlink:href="#DejaVuSans-34"/>
       <use xlink:href="#DejaVuSans-30" transform="translate(63.623047 0)"/>
       <use xlink:href="#DejaVuSans-30" transform="translate(127.246094 0)"/>
       <use xlink:href="#DejaVuSans-30" transform="translate(190.869141 0)"/>
       <use xlink:href="#DejaVuSans-30" transform="translate(254.492188 0)"/>
      </g>
     </g>
    </g>
    <g id="xtick_4">
     <g id="line2d_4">
      <g>
       <use xlink:href="#mb1e319866f" x="297.270187" y="228.96" style="stroke: #000000; stroke-width: 0.8"/>
      </g>
     </g>
     <g id="text_4">
      <!-- 50000 -->
      <g transform="translate(281.363937 243.558437) scale(0.1 -0.1)">
       <defs>
        <path id="DejaVuSans-35" d="M 691 4666 
L 3169 4666 
L 3169 4134 
L 1269 4134 
L 1269 2991 
Q 1406 3038 1543 3061 
Q 1681 3084 1819 3084 
Q 2600 3084 3056 2656 
Q 3513 2228 3513 1497 
Q 3513 744 3044 326 
Q 2575 -91 1722 -91 
Q 1428 -91 1123 -41 
Q 819 9 494 109 
L 494 744 
Q 775 591 1075 516 
Q 1375 441 1709 441 
Q 2250 441 2565 725 
Q 2881 1009 2881 1497 
Q 2881 1984 2565 2268 
Q 2250 2553 1709 2553 
Q 1456 2553 1204 2497 
Q 953 2441 691 2322 
L 691 4666 
z
" transform="scale(0.015625)"/>
       </defs>
       <use xlink:href="#DejaVuSans-35"/>
       <use xlink:href="#DejaVuSans-30" transform="translate(63.623047 0)"/>
       <use xlink:href="#DejaVuSans-30" transform="translate(127.246094 0)"/>
       <use xlink:href="#DejaVuSans-30" transform="translate(190.869141 0)"/>
       <use xlink:href="#DejaVuSans-30" transform="translate(254.492188 0)"/>
      </g>
     </g>
    </g>
    <g id="xtick_5">
     <g id="line2d_5">
      <g>
       <use xlink:href="#mb1e319866f" x="359.692288" y="228.96" style="stroke: #000000; stroke-width: 0.8"/>
      </g>
     </g>
     <g id="text_5">
      <!-- 60000 -->
      <g transform="translate(343.786038 243.558437) scale(0.1 -0.1)">
       <defs>
        <path id="DejaVuSans-36" d="M 2113 2584 
Q 1688 2584 1439 2293 
Q 1191 2003 1191 1497 
Q 1191 994 1439 701 
Q 1688 409 2113 409 
Q 2538 409 2786 701 
Q 3034 994 3034 1497 
Q 3034 2003 2786 2293 
Q 2538 2584 2113 2584 
z
M 3366 4563 
L 3366 3988 
Q 3128 4100 2886 4159 
Q 2644 4219 2406 4219 
Q 1781 4219 1451 3797 
Q 1122 3375 1075 2522 
Q 1259 2794 1537 2939 
Q 1816 3084 2150 3084 
Q 2853 3084 3261 2657 
Q 3669 2231 3669 1497 
Q 3669 778 3244 343 
Q 2819 -91 2113 -91 
Q 1303 -91 875 529 
Q 447 1150 447 2328 
Q 447 3434 972 4092 
Q 1497 4750 2381 4750 
Q 2619 4750 2861 4703 
Q 3103 4656 3366 4563 
z
" transform="scale(0.015625)"/>
       </defs>
       <use xlink:href="#DejaVuSans-36"/>
       <use xlink:href="#DejaVuSans-30" transform="translate(63.623047 0)"/>
       <use xlink:href="#DejaVuSans-30" transform="translate(127.246094 0)"/>
       <use xlink:href="#DejaVuSans-30" transform="translate(190.869141 0)"/>
       <use xlink:href="#DejaVuSans-30" transform="translate(254.492188 0)"/>
      </g>
     </g>
    </g>
    <g id="text_6">
     <!-- tof [µs] -->
     <g transform="translate(202.671875 257.236562) scale(0.1 -0.1)">
      <defs>
       <path id="DejaVuSans-74" d="M 1172 4494 
L 1172 3500 
L 2356 3500 
L 2356 3053 
L 1172 3053 
L 1172 1153 
Q 1172 725 1289 603 
Q 1406 481 1766 481 
L 2356 481 
L 2356 0 
L 1766 0 
Q 1100 0 847 248 
Q 594 497 594 1153 
L 594 3053 
L 172 3053 
L 172 3500 
L 594 3500 
L 594 4494 
L 1172 4494 
z
" transform="scale(0.015625)"/>
       <path id="DejaVuSans-6f" d="M 1959 3097 
Q 1497 3097 1228 2736 
Q 959 2375 959 1747 
Q 959 1119 1226 758 
Q 1494 397 1959 397 
Q 2419 397 2687 759 
Q 2956 1122 2956 1747 
Q 2956 2369 2687 2733 
Q 2419 3097 1959 3097 
z
M 1959 3584 
Q 2709 3584 3137 3096 
Q 3566 2609 3566 1747 
Q 3566 888 3137 398 
Q 2709 -91 1959 -91 
Q 1206 -91 779 398 
Q 353 888 353 1747 
Q 353 2609 779 3096 
Q 1206 3584 1959 3584 
z
" transform="scale(0.015625)"/>
       <path id="DejaVuSans-66" d="M 2375 4863 
L 2375 4384 
L 1825 4384 
Q 1516 4384 1395 4259 
Q 1275 4134 1275 3809 
L 1275 3500 
L 2222 3500 
L 2222 3053 
L 1275 3053 
L 1275 0 
L 697 0 
L 697 3053 
L 147 3053 
L 147 3500 
L 697 3500 
L 697 3744 
Q 697 4328 969 4595 
Q 1241 4863 1831 4863 
L 2375 4863 
z
" transform="scale(0.015625)"/>
       <path id="DejaVuSans-20" transform="scale(0.015625)"/>
       <path id="DejaVuSans-5b" d="M 550 4863 
L 1875 4863 
L 1875 4416 
L 1125 4416 
L 1125 -397 
L 1875 -397 
L 1875 -844 
L 550 -844 
L 550 4863 
z
" transform="scale(0.015625)"/>
       <path id="DejaVuSans-b5" d="M 544 -1331 
L 544 3500 
L 1119 3500 
L 1119 1325 
Q 1119 872 1334 640 
Q 1550 409 1972 409 
Q 2434 409 2667 671 
Q 2900 934 2900 1459 
L 2900 3500 
L 3475 3500 
L 3475 806 
Q 3475 619 3529 530 
Q 3584 441 3700 441 
Q 3728 441 3778 458 
Q 3828 475 3916 513 
L 3916 50 
Q 3788 -22 3673 -56 
Q 3559 -91 3450 -91 
Q 3234 -91 3106 31 
Q 2978 153 2931 403 
Q 2775 156 2548 32 
Q 2322 -91 2016 -91 
Q 1697 -91 1473 31 
Q 1250 153 1119 397 
L 1119 -1331 
L 544 -1331 
z
" transform="scale(0.015625)"/>
       <path id="DejaVuSans-73" d="M 2834 3397 
L 2834 2853 
Q 2591 2978 2328 3040 
Q 2066 3103 1784 3103 
Q 1356 3103 1142 2972 
Q 928 2841 928 2578 
Q 928 2378 1081 2264 
Q 1234 2150 1697 2047 
L 1894 2003 
Q 2506 1872 2764 1633 
Q 3022 1394 3022 966 
Q 3022 478 2636 193 
Q 2250 -91 1575 -91 
Q 1294 -91 989 -36 
Q 684 19 347 128 
L 347 722 
Q 666 556 975 473 
Q 1284 391 1588 391 
Q 1994 391 2212 530 
Q 2431 669 2431 922 
Q 2431 1156 2273 1281 
Q 2116 1406 1581 1522 
L 1381 1569 
Q 847 1681 609 1914 
Q 372 2147 372 2553 
Q 372 3047 722 3315 
Q 1072 3584 1716 3584 
Q 2034 3584 2315 3537 
Q 2597 3491 2834 3397 
z
" transform="scale(0.015625)"/>
       <path id="DejaVuSans-5d" d="M 1947 4863 
L 1947 -844 
L 622 -844 
L 622 -397 
L 1369 -397 
L 1369 4416 
L 622 4416 
L 622 4863 
L 1947 4863 
z
" transform="scale(0.015625)"/>
      </defs>
      <use xlink:href="#DejaVuSans-74"/>
      <use xlink:href="#DejaVuSans-6f" transform="translate(39.208984 0)"/>
      <use xlink:href="#DejaVuSans-66" transform="translate(100.390625 0)"/>
      <use xlink:href="#DejaVuSans-20" transform="translate(135.595703 0)"/>
      <use xlink:href="#DejaVuSans-5b" transform="translate(167.382812 0)"/>
      <use xlink:href="#DejaVuSans-b5" transform="translate(206.396484 0)"/>
      <use xlink:href="#DejaVuSans-73" transform="translate(270.019531 0)"/>
      <use xlink:href="#DejaVuSans-5d" transform="translate(322.119141 0)"/>
     </g>
    </g>
   </g>
   <g id="matplotlib.axis_2">
    <g id="ytick_1">
     <g id="line2d_6">
      <defs>
       <path id="mf92bc157b0" d="M 0 0 
L -3.5 0 
" style="stroke: #000000; stroke-width: 0.8"/>
      </defs>
      <g>
       <use xlink:href="#mf92bc157b0" x="53.328125" y="219.696194" style="stroke: #000000; stroke-width: 0.8"/>
      </g>
     </g>
     <g id="text_7">
      <!-- 0 -->
      <g transform="translate(39.965625 223.495413) scale(0.1 -0.1)">
       <use xlink:href="#DejaVuSans-30"/>
      </g>
     </g>
    </g>
    <g id="ytick_2">
     <g id="line2d_7">
      <g>
       <use xlink:href="#mf92bc157b0" x="53.328125" y="178.886478" style="stroke: #000000; stroke-width: 0.8"/>
      </g>
     </g>
     <g id="text_8">
      <!-- 500 -->
      <g transform="translate(27.240625 182.685696) scale(0.1 -0.1)">
       <use xlink:href="#DejaVuSans-35"/>
       <use xlink:href="#DejaVuSans-30" transform="translate(63.623047 0)"/>
       <use xlink:href="#DejaVuSans-30" transform="translate(127.246094 0)"/>
      </g>
     </g>
    </g>
    <g id="ytick_3">
     <g id="line2d_8">
      <g>
       <use xlink:href="#mf92bc157b0" x="53.328125" y="138.076761" style="stroke: #000000; stroke-width: 0.8"/>
      </g>
     </g>
     <g id="text_9">
      <!-- 1000 -->
      <g transform="translate(20.878125 141.87598) scale(0.1 -0.1)">
       <defs>
        <path id="DejaVuSans-31" d="M 794 531 
L 1825 531 
L 1825 4091 
L 703 3866 
L 703 4441 
L 1819 4666 
L 2450 4666 
L 2450 531 
L 3481 531 
L 3481 0 
L 794 0 
L 794 531 
z
" transform="scale(0.015625)"/>
       </defs>
       <use xlink:href="#DejaVuSans-31"/>
       <use xlink:href="#DejaVuSans-30" transform="translate(63.623047 0)"/>
       <use xlink:href="#DejaVuSans-30" transform="translate(127.246094 0)"/>
       <use xlink:href="#DejaVuSans-30" transform="translate(190.869141 0)"/>
      </g>
     </g>
    </g>
    <g id="ytick_4">
     <g id="line2d_9">
      <g>
       <use xlink:href="#mf92bc157b0" x="53.328125" y="97.267045" style="stroke: #000000; stroke-width: 0.8"/>
      </g>
     </g>
     <g id="text_10">
      <!-- 1500 -->
      <g transform="translate(20.878125 101.066263) scale(0.1 -0.1)">
       <use xlink:href="#DejaVuSans-31"/>
       <use xlink:href="#DejaVuSans-35" transform="translate(63.623047 0)"/>
       <use xlink:href="#DejaVuSans-30" transform="translate(127.246094 0)"/>
       <use xlink:href="#DejaVuSans-30" transform="translate(190.869141 0)"/>
      </g>
     </g>
    </g>
    <g id="ytick_5">
     <g id="line2d_10">
      <g>
       <use xlink:href="#mf92bc157b0" x="53.328125" y="56.457328" style="stroke: #000000; stroke-width: 0.8"/>
      </g>
     </g>
     <g id="text_11">
      <!-- 2000 -->
      <g transform="translate(20.878125 60.256547) scale(0.1 -0.1)">
       <use xlink:href="#DejaVuSans-32"/>
       <use xlink:href="#DejaVuSans-30" transform="translate(63.623047 0)"/>
       <use xlink:href="#DejaVuSans-30" transform="translate(127.246094 0)"/>
       <use xlink:href="#DejaVuSans-30" transform="translate(190.869141 0)"/>
      </g>
     </g>
    </g>
    <g id="ytick_6">
     <g id="line2d_11">
      <g>
       <use xlink:href="#mf92bc157b0" x="53.328125" y="15.647611" style="stroke: #000000; stroke-width: 0.8"/>
      </g>
     </g>
     <g id="text_12">
      <!-- 2500 -->
      <g transform="translate(20.878125 19.44683) scale(0.1 -0.1)">
       <use xlink:href="#DejaVuSans-32"/>
       <use xlink:href="#DejaVuSans-35" transform="translate(63.623047 0)"/>
       <use xlink:href="#DejaVuSans-30" transform="translate(127.246094 0)"/>
       <use xlink:href="#DejaVuSans-30" transform="translate(190.869141 0)"/>
      </g>
     </g>
    </g>
    <g id="text_13">
     <!-- [counts] -->
     <g transform="translate(14.798438 138.6925) rotate(-90) scale(0.1 -0.1)">
      <defs>
       <path id="DejaVuSans-63" d="M 3122 3366 
L 3122 2828 
Q 2878 2963 2633 3030 
Q 2388 3097 2138 3097 
Q 1578 3097 1268 2742 
Q 959 2388 959 1747 
Q 959 1106 1268 751 
Q 1578 397 2138 397 
Q 2388 397 2633 464 
Q 2878 531 3122 666 
L 3122 134 
Q 2881 22 2623 -34 
Q 2366 -91 2075 -91 
Q 1284 -91 818 406 
Q 353 903 353 1747 
Q 353 2603 823 3093 
Q 1294 3584 2113 3584 
Q 2378 3584 2631 3529 
Q 2884 3475 3122 3366 
z
" transform="scale(0.015625)"/>
       <path id="DejaVuSans-75" d="M 544 1381 
L 544 3500 
L 1119 3500 
L 1119 1403 
Q 1119 906 1312 657 
Q 1506 409 1894 409 
Q 2359 409 2629 706 
Q 2900 1003 2900 1516 
L 2900 3500 
L 3475 3500 
L 3475 0 
L 2900 0 
L 2900 538 
Q 2691 219 2414 64 
Q 2138 -91 1772 -91 
Q 1169 -91 856 284 
Q 544 659 544 1381 
z
M 1991 3584 
L 1991 3584 
z
" transform="scale(0.015625)"/>
       <path id="DejaVuSans-6e" d="M 3513 2113 
L 3513 0 
L 2938 0 
L 2938 2094 
Q 2938 2591 2744 2837 
Q 2550 3084 2163 3084 
Q 1697 3084 1428 2787 
Q 1159 2491 1159 1978 
L 1159 0 
L 581 0 
L 581 3500 
L 1159 3500 
L 1159 2956 
Q 1366 3272 1645 3428 
Q 1925 3584 2291 3584 
Q 2894 3584 3203 3211 
Q 3513 2838 3513 2113 
z
" transform="scale(0.015625)"/>
      </defs>
      <use xlink:href="#DejaVuSans-5b"/>
      <use xlink:href="#DejaVuSans-63" transform="translate(39.013672 0)"/>
      <use xlink:href="#DejaVuSans-6f" transform="translate(93.994141 0)"/>
      <use xlink:href="#DejaVuSans-75" transform="translate(155.175781 0)"/>
      <use xlink:href="#DejaVuSans-6e" transform="translate(218.554688 0)"/>
      <use xlink:href="#DejaVuSans-74" transform="translate(281.933594 0)"/>
      <use xlink:href="#DejaVuSans-73" transform="translate(321.142578 0)"/>
      <use xlink:href="#DejaVuSans-5d" transform="translate(373.242188 0)"/>
     </g>
    </g>
   </g>
   <g id="line2d_12">
    <path d="M 68.546307 191.782348 
L 69.560852 191.782348 
L 69.560852 152.441781 
L 70.575398 152.441781 
L 70.575398 117.671903 
L 71.589943 117.671903 
L 71.589943 101.756113 
L 72.604489 101.756113 
L 72.604489 94.247126 
L 73.619034 94.247126 
L 73.619034 86.493279 
L 74.63358 86.493279 
L 74.63358 90.819109 
L 75.648125 90.819109 
L 75.648125 84.044696 
L 76.66267 84.044696 
L 76.66267 80.861538 
L 77.677216 80.861538 
L 77.677216 83.718219 
L 78.691761 83.718219 
L 78.691761 76.617328 
L 79.706307 76.617328 
L 79.706307 67.067854 
L 80.720852 67.067854 
L 80.720852 57.355142 
L 81.735398 57.355142 
L 81.735398 59.640486 
L 82.749943 59.640486 
L 82.749943 49.193198 
L 83.764489 49.193198 
L 83.764489 47.315951 
L 84.779034 47.315951 
L 84.779034 51.723401 
L 85.79358 51.723401 
L 85.79358 40.051822 
L 86.808125 40.051822 
L 86.808125 36.134089 
L 87.82267 36.134089 
L 87.82267 29.522915 
L 88.837216 29.522915 
L 88.837216 20.299919 
L 89.851761 20.299919 
L 89.851761 17.28 
L 90.866307 17.28 
L 90.866307 21.769069 
L 91.880852 21.769069 
L 91.880852 22.99336 
L 92.895398 22.99336 
L 92.895398 25.686802 
L 93.909943 25.686802 
L 93.909943 24.054413 
L 94.924489 24.054413 
L 94.924489 29.441296 
L 95.939034 29.441296 
L 95.939034 21.932308 
L 96.95358 21.932308 
L 96.95358 27.645668 
L 97.968125 27.645668 
L 97.968125 28.78834 
L 98.98267 28.78834 
L 98.98267 31.073684 
L 99.997216 31.073684 
L 99.997216 26.829474 
L 102.026307 26.911093 
L 102.026307 43.969555 
L 103.040852 43.969555 
L 103.040852 48.703482 
L 104.055398 48.703482 
L 104.055398 48.540243 
L 105.069943 48.540243 
L 105.069943 61.109636 
L 106.084489 61.109636 
L 106.084489 73.760648 
L 107.099034 73.760648 
L 107.099034 88.370526 
L 108.11358 88.370526 
L 108.11358 95.797895 
L 109.128125 95.797895 
L 109.128125 98.736194 
L 110.14267 98.736194 
L 110.14267 109.346721 
L 111.157216 109.346721 
L 111.157216 116.774089 
L 112.171761 116.774089 
L 112.171761 122.487449 
L 113.186307 122.487449 
L 113.186307 125.915466 
L 114.200852 125.915466 
L 114.200852 139.70915 
L 115.215398 139.70915 
L 115.215398 145.912227 
L 116.229943 145.912227 
L 116.229943 147.299757 
L 117.244489 147.299757 
L 117.244489 159.78753 
L 118.259034 159.78753 
L 118.259034 163.378785 
L 119.27358 163.378785 
L 119.27358 171.540729 
L 120.288125 171.540729 
L 120.288125 177.335709 
L 121.30267 177.335709 
L 121.30267 182.232874 
L 122.317216 182.232874 
L 122.317216 190.966154 
L 123.331761 190.966154 
L 123.331761 182.396113 
L 124.346307 182.396113 
L 124.346307 161.828016 
L 125.360852 161.828016 
L 125.360852 147.544615 
L 126.375398 147.544615 
L 126.375398 132.118543 
L 127.389943 132.118543 
L 127.389943 103.71498 
L 128.404489 103.71498 
L 128.404489 90.65587 
L 129.419034 90.65587 
L 129.419034 92.941215 
L 130.43358 92.941215 
L 130.43358 90.329393 
L 131.448125 90.329393 
L 131.448125 86.085182 
L 132.46267 86.085182 
L 132.46267 96.53247 
L 133.477216 96.53247 
L 133.477216 99.552389 
L 134.491761 99.552389 
L 134.491761 97.103806 
L 135.506307 97.103806 
L 135.506307 98.246478 
L 136.520852 98.246478 
L 136.520852 102.653927 
L 137.535398 102.653927 
L 137.535398 101.184777 
L 138.549943 101.184777 
L 138.549943 102.000972 
L 139.564489 102.000972 
L 139.564489 103.551741 
L 140.579034 103.551741 
L 140.579034 100.8583 
L 141.59358 100.8583 
L 141.59358 106.898138 
L 142.608125 106.898138 
L 142.608125 112.36664 
L 143.62267 112.36664 
L 143.62267 114.815223 
L 144.637216 114.815223 
L 144.637216 114.651984 
L 145.651761 114.651984 
L 145.651761 110.081296 
L 146.666307 110.081296 
L 146.666307 102.409069 
L 147.680852 102.409069 
L 147.680852 112.774737 
L 148.695398 112.774737 
L 148.695398 116.61085 
L 150.724489 116.61085 
L 150.724489 120.610202 
L 151.739034 120.610202 
L 151.739034 118.324858 
L 152.75358 118.324858 
L 152.75358 119.630769 
L 153.768125 119.630769 
L 153.768125 121.0183 
L 154.78267 121.0183 
L 154.78267 119.712389 
L 155.797216 119.712389 
L 155.797216 126.73166 
L 156.811761 126.73166 
L 156.811761 122.569069 
L 157.826307 122.569069 
L 157.826307 125.34413 
L 158.840852 125.34413 
L 158.840852 130.078057 
L 159.855398 130.078057 
L 159.855398 133.179595 
L 160.869943 133.179595 
L 160.869943 125.670607 
L 161.884489 125.670607 
L 161.884489 123.548502 
L 162.899034 123.548502 
L 162.899034 123.058785 
L 163.91358 123.058785 
L 163.91358 136.362753 
L 164.928125 136.362753 
L 164.928125 136.607611 
L 165.94267 136.607611 
L 165.94267 134.567126 
L 166.957216 134.567126 
L 166.957216 141.994494 
L 167.971761 141.994494 
L 167.971761 151.21749 
L 168.986307 151.21749 
L 168.986307 150.074818 
L 170.000852 150.074818 
L 170.000852 150.482915 
L 171.015398 150.482915 
L 171.015398 152.278543 
L 172.029943 152.278543 
L 172.029943 147.462996 
L 173.044489 147.462996 
L 173.044489 149.421862 
L 174.059034 149.421862 
L 174.059034 155.4617 
L 175.07358 155.4617 
L 175.07358 163.215547 
L 176.088125 163.215547 
L 176.088125 160.930202 
L 177.10267 160.930202 
L 177.10267 159.134575 
L 178.117216 159.134575 
L 178.117216 148.442429 
L 179.131761 148.442429 
L 179.131761 144.116599 
L 180.146307 144.116599 
L 180.146307 143.055547 
L 181.160852 143.055547 
L 181.160852 141.423158 
L 182.175398 141.423158 
L 182.175398 140.198866 
L 183.189943 140.198866 
L 183.189943 132.036923 
L 184.204489 132.036923 
L 184.204489 143.463644 
L 185.219034 143.463644 
L 185.219034 148.27919 
L 186.23358 148.27919 
L 186.23358 144.851174 
L 187.248125 144.851174 
L 187.248125 145.259271 
L 188.26267 145.259271 
L 188.26267 148.605668 
L 189.277216 148.605668 
L 189.277216 157.502186 
L 190.291761 157.502186 
L 190.291761 156.685992 
L 191.306307 156.685992 
L 191.306307 156.441134 
L 192.320852 156.441134 
L 192.320852 158.4 
L 193.335398 158.4 
L 193.335398 158.073522 
L 194.349943 158.073522 
L 194.349943 158.4 
L 195.364489 158.4 
L 195.364489 156.277895 
L 196.379034 156.277895 
L 196.379034 162.317733 
L 197.39358 162.317733 
L 197.39358 161.011822 
L 198.408125 161.011822 
L 198.408125 161.501538 
L 199.42267 161.501538 
L 199.42267 163.868502 
L 200.437216 163.868502 
L 200.437216 167.622996 
L 201.451761 167.622996 
L 201.451761 160.440486 
L 202.466307 160.440486 
L 202.466307 161.175061 
L 203.480852 161.175061 
L 203.480852 168.031093 
L 204.495398 168.031093 
L 204.495398 169.092146 
L 205.509943 169.092146 
L 205.509943 174.560648 
L 206.524489 174.560648 
L 206.524489 174.397409 
L 207.539034 174.397409 
L 207.539034 172.601781 
L 208.55358 172.601781 
L 208.55358 168.194332 
L 209.568125 168.194332 
L 209.568125 174.642267 
L 210.58267 174.642267 
L 210.58267 184.763077 
L 211.597216 184.763077 
L 211.597216 182.722591 
L 212.611761 182.722591 
L 212.611761 185.987368 
L 213.626307 185.987368 
L 213.626307 187.701377 
L 214.640852 187.701377 
L 214.640852 186.640324 
L 215.655398 186.640324 
L 215.655398 191.374251 
L 216.669943 191.374251 
L 216.669943 192.516923 
L 217.684489 192.516923 
L 217.684489 191.945587 
L 218.699034 191.945587 
L 218.699034 195.210364 
L 219.71358 195.210364 
L 219.71358 193.088259 
L 220.728125 193.088259 
L 220.728125 192.92502 
L 221.74267 192.92502 
L 221.74267 197.577328 
L 222.757216 197.577328 
L 222.757216 194.557409 
L 223.771761 194.557409 
L 223.771761 199.699433 
L 224.786307 199.699433 
L 224.786307 198.964858 
L 225.800852 198.964858 
L 225.800852 193.169879 
L 226.815398 193.169879 
L 226.815398 188.925668 
L 227.829943 188.925668 
L 227.829943 189.986721 
L 228.844489 189.986721 
L 228.844489 191.700729 
L 229.859034 191.700729 
L 229.859034 188.762429 
L 230.87358 188.762429 
L 230.87358 185.416032 
L 231.888125 185.416032 
L 231.888125 184.599838 
L 232.90267 184.599838 
L 232.90267 185.987368 
L 233.917216 185.987368 
L 233.917216 188.435951 
L 234.931761 188.435951 
L 234.931761 191.374251 
L 235.946307 191.374251 
L 235.946307 193.333117 
L 236.960852 193.333117 
L 236.960852 194.067692 
L 237.975398 194.067692 
L 237.975398 195.618462 
L 238.989943 195.618462 
L 238.989943 194.802267 
L 240.004489 194.802267 
L 240.004489 199.046478 
L 241.019034 199.046478 
L 241.019034 199.617814 
L 242.03358 199.617814 
L 242.03358 199.454575 
L 243.048125 199.454575 
L 243.048125 202.964211 
L 244.06267 202.964211 
L 244.06267 201.250202 
L 245.077216 201.250202 
L 245.077216 199.372955 
L 246.091761 199.372955 
L 246.091761 202.882591 
L 247.106307 202.882591 
L 247.106307 205.739271 
L 248.120852 205.739271 
L 248.120852 207.045182 
L 249.135398 207.045182 
L 249.135398 201.005344 
L 250.149943 201.005344 
L 250.149943 203.290688 
L 251.164489 203.290688 
L 251.164489 205.167935 
L 252.179034 205.167935 
L 252.179034 205.739271 
L 253.19358 205.739271 
L 253.19358 206.963563 
L 254.208125 206.963563 
L 254.208125 208.514332 
L 255.22267 208.514332 
L 255.22267 208.84081 
L 256.237216 208.84081 
L 256.237216 208.595951 
L 258.266307 208.595951 
L 258.266307 209.820243 
L 259.280852 209.820243 
L 259.280852 210.962915 
L 260.295398 210.962915 
L 260.295398 211.860729 
L 261.309943 211.860729 
L 261.309943 213.003401 
L 262.324489 213.003401 
L 262.324489 211.207773 
L 263.339034 211.207773 
L 263.339034 213.411498 
L 264.35358 213.411498 
L 264.35358 213.656356 
L 265.368125 213.656356 
L 265.368125 213.819595 
L 266.38267 213.819595 
L 266.38267 212.840162 
L 267.397216 212.840162 
L 267.397216 214.717409 
L 269.426307 214.799028 
L 269.426307 215.207126 
L 270.440852 215.207126 
L 270.440852 215.043887 
L 271.455398 215.043887 
L 271.455398 213.901215 
L 272.469943 213.901215 
L 272.469943 211.207773 
L 273.484489 211.207773 
L 273.484489 209.983482 
L 274.499034 209.983482 
L 274.499034 207.534899 
L 275.51358 207.534899 
L 275.51358 209.248907 
L 276.528125 209.248907 
L 276.528125 207.779757 
L 277.54267 207.779757 
L 277.54267 204.270121 
L 278.557216 204.270121 
L 278.557216 207.37166 
L 279.571761 207.37166 
L 279.571761 208.024615 
L 280.586307 208.024615 
L 280.586307 207.045182 
L 281.600852 207.045182 
L 281.600852 208.432713 
L 282.615398 208.432713 
L 282.615398 208.595951 
L 284.644489 208.677571 
L 284.644489 207.942996 
L 285.659034 207.942996 
L 285.659034 209.248907 
L 286.67358 209.248907 
L 286.67358 210.065101 
L 287.688125 210.065101 
L 287.688125 209.004049 
L 288.70267 209.004049 
L 288.70267 211.371012 
L 289.717216 211.371012 
L 289.717216 211.534251 
L 292.760852 211.534251 
L 292.760852 212.432065 
L 293.775398 212.432065 
L 293.775398 213.819595 
L 294.789943 213.819595 
L 294.789943 214.472551 
L 295.804489 214.472551 
L 295.804489 214.880648 
L 297.83358 214.880648 
L 297.83358 214.55417 
L 298.848125 214.55417 
L 298.848125 213.982834 
L 299.86267 213.982834 
L 299.86267 214.146073 
L 300.877216 214.146073 
L 300.877216 214.880648 
L 301.891761 214.880648 
L 301.891761 215.043887 
L 302.906307 215.043887 
L 302.906307 216.02332 
L 305.949943 215.9417 
L 305.949943 216.676275 
L 306.964489 216.676275 
L 306.964489 217.002753 
L 307.979034 217.002753 
L 307.979034 216.02332 
L 308.99358 216.02332 
L 308.99358 217.41085 
L 310.008125 217.41085 
L 310.008125 217.574089 
L 313.051761 217.49247 
L 313.051761 217.900567 
L 314.066307 217.900567 
L 314.066307 218.063806 
L 315.080852 218.063806 
L 315.080852 217.41085 
L 316.095398 217.41085 
L 316.095398 215.860081 
L 317.109943 215.860081 
L 317.109943 213.901215 
L 318.124489 213.901215 
L 318.124489 214.227692 
L 319.139034 214.227692 
L 319.139034 213.08502 
L 321.168125 213.08502 
L 321.168125 210.718057 
L 322.18267 210.718057 
L 322.18267 208.677571 
L 323.197216 208.677571 
L 323.197216 205.90251 
L 324.211761 205.90251 
L 324.211761 205.657652 
L 325.226307 205.657652 
L 325.226307 202.800972 
L 326.240852 202.800972 
L 326.240852 204.678219 
L 327.255398 204.678219 
L 327.255398 206.392227 
L 328.269943 206.392227 
L 328.269943 206.718704 
L 329.284489 206.718704 
L 329.284489 206.555466 
L 330.299034 206.555466 
L 330.299034 206.147368 
L 331.31358 206.147368 
L 331.31358 205.249555 
L 332.328125 205.249555 
L 332.328125 207.045182 
L 333.34267 207.045182 
L 333.34267 207.453279 
L 334.357216 207.453279 
L 334.357216 205.249555 
L 335.371761 205.249555 
L 335.371761 203.535547 
L 336.386307 203.535547 
L 336.386307 205.086316 
L 337.400852 205.086316 
L 337.400852 203.453927 
L 338.415398 203.453927 
L 338.415398 204.351741 
L 339.429943 204.351741 
L 339.429943 205.167935 
L 340.444489 205.167935 
L 340.444489 205.412794 
L 341.459034 205.412794 
L 341.459034 203.862024 
L 342.47358 203.862024 
L 342.47358 207.29004 
L 343.488125 207.29004 
L 343.488125 208.514332 
L 344.50267 208.514332 
L 344.50267 209.412146 
L 345.517216 209.412146 
L 345.517216 208.106235 
L 346.531761 208.106235 
L 346.531761 208.514332 
L 347.546307 208.514332 
L 347.546307 208.024615 
L 349.575398 207.942996 
L 349.575398 208.84081 
L 350.589943 208.84081 
L 350.589943 209.004049 
L 351.604489 209.004049 
L 351.604489 207.942996 
L 352.619034 207.942996 
L 352.619034 210.146721 
L 353.63358 210.146721 
L 353.63358 209.657004 
L 354.648125 209.657004 
L 354.648125 210.391579 
L 355.66267 210.391579 
L 355.66267 210.636437 
L 356.677216 210.636437 
L 356.677216 208.84081 
L 357.691761 208.84081 
L 357.691761 211.126154 
L 358.706307 211.126154 
L 358.706307 210.718057 
L 359.720852 210.718057 
L 359.720852 211.534251 
L 360.735398 211.534251 
L 360.735398 212.676923 
L 361.749943 212.676923 
L 361.749943 213.493117 
L 362.764489 213.493117 
L 362.764489 213.16664 
L 364.79358 213.08502 
L 364.79358 212.840162 
L 365.808125 212.840162 
L 365.808125 214.227692 
L 366.82267 214.227692 
L 366.82267 215.615223 
L 368.851761 215.533603 
L 368.851761 217.084372 
L 369.866307 217.084372 
L 369.866307 216.513036 
L 370.880852 216.513036 
L 370.880852 217.247611 
L 371.895398 217.247611 
L 371.895398 218.88 
L 372.909943 218.88 
L 372.909943 218.88 
" clip-path="url(#pd0394641a0)" style="fill: none; stroke: #1f77b4; stroke-width: 1.5; stroke-linecap: square"/>
   </g>
   <g id="patch_3">
    <path d="M 53.328125 228.96 
L 53.328125 7.2 
" style="fill: none; stroke: #000000; stroke-width: 0.8; stroke-linejoin: miter; stroke-linecap: square"/>
   </g>
   <g id="patch_4">
    <path d="M 388.128125 228.96 
L 388.128125 7.2 
" style="fill: none; stroke: #000000; stroke-width: 0.8; stroke-linejoin: miter; stroke-linecap: square"/>
   </g>
   <g id="patch_5">
    <path d="M 53.328125 228.96 
L 388.128125 228.96 
" style="fill: none; stroke: #000000; stroke-width: 0.8; stroke-linejoin: miter; stroke-linecap: square"/>
   </g>
   <g id="patch_6">
    <path d="M 53.328125 7.2 
L 388.128125 7.2 
" style="fill: none; stroke: #000000; stroke-width: 0.8; stroke-linejoin: miter; stroke-linecap: square"/>
   </g>
  </g>
 </g>
 <defs>
  <clipPath id="pd0394641a0">
   <rect x="53.328125" y="7.2" width="334.8" height="221.76"/>
  </clipPath>
 </defs>
</svg>
