<?xml version="1.0" encoding="utf-8" standalone="no"?>
<!DOCTYPE svg PUBLIC "-//W3C//DTD SVG 1.1//EN"
  "http://www.w3.org/Graphics/SVG/1.1/DTD/svg11.dtd">
<svg xmlns:xlink="http://www.w3.org/1999/xlink" width="395.328125pt" height="266.51625pt" viewBox="0 0 395.328125 266.51625" xmlns="http://www.w3.org/2000/svg" version="1.1">
 <metadata>
  <rdf:RDF xmlns:dc="http://purl.org/dc/elements/1.1/" xmlns:cc="http://creativecommons.org/ns#" xmlns:rdf="http://www.w3.org/1999/02/22-rdf-syntax-ns#">
   <cc:Work>
    <dc:type rdf:resource="http://purl.org/dc/dcmitype/StillImage"/>
    <dc:date>2025-11-27T11:57:54.287301</dc:date>
    <dc:format>image/svg+xml</dc:format>
    <dc:creator>
     <cc:Agent>
      <dc:title>Matplotlib v3.10.7, https://matplotlib.org/</dc:title>
     </cc:Agent>
    </dc:creator>
   </cc:Work>
  </rdf:RDF>
 </metadata>
 <defs>
  <style type="text/css">*{stroke-linejoin: round; stroke-linecap: butt}</style>
 </defs>
 <g id="figure_1">
  <g id="patch_1">
   <path d="M 0 266.51625 
L 395.328125 266.51625 
L 395.328125 0 
L 0 0 
z
" style="fill: #ffffff"/>
  </g>
  <g id="axes_1">
   <g id="patch_2">
    <path d="M 53.328125 228.96 
L 388.128125 228.96 
L 388.128125 7.2 
L 53.328125 7.2 
z
" style="fill: #ffffff"/>
   </g>
   <g id="matplotlib.axis_1">
    <g id="xtick_1">
     <g id="line2d_1">
      <defs>
       <path id="mdded2594a5" d="M 0 0 
L 0 3.5 
" style="stroke: #000000; stroke-width: 0.8"/>
      </defs>
      <g>
       <use xlink:href="#mdded2594a5" x="58.797833" y="228.96" style="stroke: #000000; stroke-width: 0.8"/>
      </g>
     </g>
     <g id="text_1">
      <!-- 25000 -->
      <g transform="translate(42.891583 243.558437) scale(0.1 -0.1)">
       <defs>
        <path id="DejaVuSans-32" d="M 1228 531 
L 3431 531 
L 3431 0 
L 469 0 
L 469 531 
Q 828 903 1448 1529 
Q 2069 2156 2228 2338 
Q 2531 2678 2651 2914 
Q 2772 3150 2772 3378 
Q 2772 3750 2511 3984 
Q 2250 4219 1831 4219 
Q 1534 4219 1204 4116 
Q 875 4013 500 3803 
L 500 4441 
Q 881 4594 1212 4672 
Q 1544 4750 1819 4750 
Q 2544 4750 2975 4387 
Q 3406 4025 3406 3419 
Q 3406 3131 3298 2873 
Q 3191 2616 2906 2266 
Q 2828 2175 2409 1742 
Q 1991 1309 1228 531 
z
" transform="scale(0.015625)"/>
        <path id="DejaVuSans-35" d="M 691 4666 
L 3169 4666 
L 3169 4134 
L 1269 4134 
L 1269 2991 
Q 1406 3038 1543 3061 
Q 1681 3084 1819 3084 
Q 2600 3084 3056 2656 
Q 3513 2228 3513 1497 
Q 3513 744 3044 326 
Q 2575 -91 1722 -91 
Q 1428 -91 1123 -41 
Q 819 9 494 109 
L 494 744 
Q 775 591 1075 516 
Q 1375 441 1709 441 
Q 2250 441 2565 725 
Q 2881 1009 2881 1497 
Q 2881 1984 2565 2268 
Q 2250 2553 1709 2553 
Q 1456 2553 1204 2497 
Q 953 2441 691 2322 
L 691 4666 
z
" transform="scale(0.015625)"/>
        <path id="DejaVuSans-30" d="M 2034 4250 
Q 1547 4250 1301 3770 
Q 1056 3291 1056 2328 
Q 1056 1369 1301 889 
Q 1547 409 2034 409 
Q 2525 409 2770 889 
Q 3016 1369 3016 2328 
Q 3016 3291 2770 3770 
Q 2525 4250 2034 4250 
z
M 2034 4750 
Q 2819 4750 3233 4129 
Q 3647 3509 3647 2328 
Q 3647 1150 3233 529 
Q 2819 -91 2034 -91 
Q 1250 -91 836 529 
Q 422 1150 422 2328 
Q 422 3509 836 4129 
Q 1250 4750 2034 4750 
z
" transform="scale(0.015625)"/>
       </defs>
       <use xlink:href="#DejaVuSans-32"/>
       <use xlink:href="#DejaVuSans-35" transform="translate(63.623047 0)"/>
       <use xlink:href="#DejaVuSans-30" transform="translate(127.246094 0)"/>
       <use xlink:href="#DejaVuSans-30" transform="translate(190.869141 0)"/>
       <use xlink:href="#DejaVuSans-30" transform="translate(254.492188 0)"/>
      </g>
     </g>
    </g>
    <g id="xtick_2">
     <g id="line2d_2">
      <g>
       <use xlink:href="#mdded2594a5" x="96.654007" y="228.96" style="stroke: #000000; stroke-width: 0.8"/>
      </g>
     </g>
     <g id="text_2">
      <!-- 50000 -->
      <g transform="translate(80.747757 243.558437) scale(0.1 -0.1)">
       <use xlink:href="#DejaVuSans-35"/>
       <use xlink:href="#DejaVuSans-30" transform="translate(63.623047 0)"/>
       <use xlink:href="#DejaVuSans-30" transform="translate(127.246094 0)"/>
       <use xlink:href="#DejaVuSans-30" transform="translate(190.869141 0)"/>
       <use xlink:href="#DejaVuSans-30" transform="translate(254.492188 0)"/>
      </g>
     </g>
    </g>
    <g id="xtick_3">
     <g id="line2d_3">
      <g>
       <use xlink:href="#mdded2594a5" x="134.510181" y="228.96" style="stroke: #000000; stroke-width: 0.8"/>
      </g>
     </g>
     <g id="text_3">
      <!-- 75000 -->
      <g transform="translate(118.603931 243.558437) scale(0.1 -0.1)">
       <defs>
        <path id="DejaVuSans-37" d="M 525 4666 
L 3525 4666 
L 3525 4397 
L 1831 0 
L 1172 0 
L 2766 4134 
L 525 4134 
L 525 4666 
z
" transform="scale(0.015625)"/>
       </defs>
       <use xlink:href="#DejaVuSans-37"/>
       <use xlink:href="#DejaVuSans-35" transform="translate(63.623047 0)"/>
       <use xlink:href="#DejaVuSans-30" transform="translate(127.246094 0)"/>
       <use xlink:href="#DejaVuSans-30" transform="translate(190.869141 0)"/>
       <use xlink:href="#DejaVuSans-30" transform="translate(254.492188 0)"/>
      </g>
     </g>
    </g>
    <g id="xtick_4">
     <g id="line2d_4">
      <g>
       <use xlink:href="#mdded2594a5" x="172.366354" y="228.96" style="stroke: #000000; stroke-width: 0.8"/>
      </g>
     </g>
     <g id="text_4">
      <!-- 100000 -->
      <g transform="translate(153.278854 243.558437) scale(0.1 -0.1)">
       <defs>
        <path id="DejaVuSans-31" d="M 794 531 
L 1825 531 
L 1825 4091 
L 703 3866 
L 703 4441 
L 1819 4666 
L 2450 4666 
L 2450 531 
L 3481 531 
L 3481 0 
L 794 0 
L 794 531 
z
" transform="scale(0.015625)"/>
       </defs>
       <use xlink:href="#DejaVuSans-31"/>
       <use xlink:href="#DejaVuSans-30" transform="translate(63.623047 0)"/>
       <use xlink:href="#DejaVuSans-30" transform="translate(127.246094 0)"/>
       <use xlink:href="#DejaVuSans-30" transform="translate(190.869141 0)"/>
       <use xlink:href="#DejaVuSans-30" transform="translate(254.492188 0)"/>
       <use xlink:href="#DejaVuSans-30" transform="translate(318.115234 0)"/>
      </g>
     </g>
    </g>
    <g id="xtick_5">
     <g id="line2d_5">
      <g>
       <use xlink:href="#mdded2594a5" x="210.222528" y="228.96" style="stroke: #000000; stroke-width: 0.8"/>
      </g>
     </g>
     <g id="text_5">
      <!-- 125000 -->
      <g transform="translate(191.135028 243.558437) scale(0.1 -0.1)">
       <use xlink:href="#DejaVuSans-31"/>
       <use xlink:href="#DejaVuSans-32" transform="translate(63.623047 0)"/>
       <use xlink:href="#DejaVuSans-35" transform="translate(127.246094 0)"/>
       <use xlink:href="#DejaVuSans-30" transform="translate(190.869141 0)"/>
       <use xlink:href="#DejaVuSans-30" transform="translate(254.492188 0)"/>
       <use xlink:href="#DejaVuSans-30" transform="translate(318.115234 0)"/>
      </g>
     </g>
    </g>
    <g id="xtick_6">
     <g id="line2d_6">
      <g>
       <use xlink:href="#mdded2594a5" x="248.078702" y="228.96" style="stroke: #000000; stroke-width: 0.8"/>
      </g>
     </g>
     <g id="text_6">
      <!-- 150000 -->
      <g transform="translate(228.991202 243.558437) scale(0.1 -0.1)">
       <use xlink:href="#DejaVuSans-31"/>
       <use xlink:href="#DejaVuSans-35" transform="translate(63.623047 0)"/>
       <use xlink:href="#DejaVuSans-30" transform="translate(127.246094 0)"/>
       <use xlink:href="#DejaVuSans-30" transform="translate(190.869141 0)"/>
       <use xlink:href="#DejaVuSans-30" transform="translate(254.492188 0)"/>
       <use xlink:href="#DejaVuSans-30" transform="translate(318.115234 0)"/>
      </g>
     </g>
    </g>
    <g id="xtick_7">
     <g id="line2d_7">
      <g>
       <use xlink:href="#mdded2594a5" x="285.934876" y="228.96" style="stroke: #000000; stroke-width: 0.8"/>
      </g>
     </g>
     <g id="text_7">
      <!-- 175000 -->
      <g transform="translate(266.847376 243.558437) scale(0.1 -0.1)">
       <use xlink:href="#DejaVuSans-31"/>
       <use xlink:href="#DejaVuSans-37" transform="translate(63.623047 0)"/>
       <use xlink:href="#DejaVuSans-35" transform="translate(127.246094 0)"/>
       <use xlink:href="#DejaVuSans-30" transform="translate(190.869141 0)"/>
       <use xlink:href="#DejaVuSans-30" transform="translate(254.492188 0)"/>
       <use xlink:href="#DejaVuSans-30" transform="translate(318.115234 0)"/>
      </g>
     </g>
    </g>
    <g id="xtick_8">
     <g id="line2d_8">
      <g>
       <use xlink:href="#mdded2594a5" x="323.791049" y="228.96" style="stroke: #000000; stroke-width: 0.8"/>
      </g>
     </g>
     <g id="text_8">
      <!-- 200000 -->
      <g transform="translate(304.703549 243.558437) scale(0.1 -0.1)">
       <use xlink:href="#DejaVuSans-32"/>
       <use xlink:href="#DejaVuSans-30" transform="translate(63.623047 0)"/>
       <use xlink:href="#DejaVuSans-30" transform="translate(127.246094 0)"/>
       <use xlink:href="#DejaVuSans-30" transform="translate(190.869141 0)"/>
       <use xlink:href="#DejaVuSans-30" transform="translate(254.492188 0)"/>
       <use xlink:href="#DejaVuSans-30" transform="translate(318.115234 0)"/>
      </g>
     </g>
    </g>
    <g id="xtick_9">
     <g id="line2d_9">
      <g>
       <use xlink:href="#mdded2594a5" x="361.647223" y="228.96" style="stroke: #000000; stroke-width: 0.8"/>
      </g>
     </g>
     <g id="text_9">
      <!-- 225000 -->
      <g transform="translate(342.559723 243.558437) scale(0.1 -0.1)">
       <use xlink:href="#DejaVuSans-32"/>
       <use xlink:href="#DejaVuSans-32" transform="translate(63.623047 0)"/>
       <use xlink:href="#DejaVuSans-35" transform="translate(127.246094 0)"/>
       <use xlink:href="#DejaVuSans-30" transform="translate(190.869141 0)"/>
       <use xlink:href="#DejaVuSans-30" transform="translate(254.492188 0)"/>
       <use xlink:href="#DejaVuSans-30" transform="translate(318.115234 0)"/>
      </g>
     </g>
    </g>
    <g id="text_10">
     <!-- tof [µs] -->
     <g transform="translate(202.671875 257.236562) scale(0.1 -0.1)">
      <defs>
       <path id="DejaVuSans-74" d="M 1172 4494 
L 1172 3500 
L 2356 3500 
L 2356 3053 
L 1172 3053 
L 1172 1153 
Q 1172 725 1289 603 
Q 1406 481 1766 481 
L 2356 481 
L 2356 0 
L 1766 0 
Q 1100 0 847 248 
Q 594 497 594 1153 
L 594 3053 
L 172 3053 
L 172 3500 
L 594 3500 
L 594 4494 
L 1172 4494 
z
" transform="scale(0.015625)"/>
       <path id="DejaVuSans-6f" d="M 1959 3097 
Q 1497 3097 1228 2736 
Q 959 2375 959 1747 
Q 959 1119 1226 758 
Q 1494 397 1959 397 
Q 2419 397 2687 759 
Q 2956 1122 2956 1747 
Q 2956 2369 2687 2733 
Q 2419 3097 1959 3097 
z
M 1959 3584 
Q 2709 3584 3137 3096 
Q 3566 2609 3566 1747 
Q 3566 888 3137 398 
Q 2709 -91 1959 -91 
Q 1206 -91 779 398 
Q 353 888 353 1747 
Q 353 2609 779 3096 
Q 1206 3584 1959 3584 
z
" transform="scale(0.015625)"/>
       <path id="DejaVuSans-66" d="M 2375 4863 
L 2375 4384 
L 1825 4384 
Q 1516 4384 1395 4259 
Q 1275 4134 1275 3809 
L 1275 3500 
L 2222 3500 
L 2222 3053 
L 1275 3053 
L 1275 0 
L 697 0 
L 697 3053 
L 147 3053 
L 147 3500 
L 697 3500 
L 697 3744 
Q 697 4328 969 4595 
Q 1241 4863 1831 4863 
L 2375 4863 
z
" transform="scale(0.015625)"/>
       <path id="DejaVuSans-20" transform="scale(0.015625)"/>
       <path id="DejaVuSans-5b" d="M 550 4863 
L 1875 4863 
L 1875 4416 
L 1125 4416 
L 1125 -397 
L 1875 -397 
L 1875 -844 
L 550 -844 
L 550 4863 
z
" transform="scale(0.015625)"/>
       <path id="DejaVuSans-b5" d="M 544 -1331 
L 544 3500 
L 1119 3500 
L 1119 1325 
Q 1119 872 1334 640 
Q 1550 409 1972 409 
Q 2434 409 2667 671 
Q 2900 934 2900 1459 
L 2900 3500 
L 3475 3500 
L 3475 806 
Q 3475 619 3529 530 
Q 3584 441 3700 441 
Q 3728 441 3778 458 
Q 3828 475 3916 513 
L 3916 50 
Q 3788 -22 3673 -56 
Q 3559 -91 3450 -91 
Q 3234 -91 3106 31 
Q 2978 153 2931 403 
Q 2775 156 2548 32 
Q 2322 -91 2016 -91 
Q 1697 -91 1473 31 
Q 1250 153 1119 397 
L 1119 -1331 
L 544 -1331 
z
" transform="scale(0.015625)"/>
       <path id="DejaVuSans-73" d="M 2834 3397 
L 2834 2853 
Q 2591 2978 2328 3040 
Q 2066 3103 1784 3103 
Q 1356 3103 1142 2972 
Q 928 2841 928 2578 
Q 928 2378 1081 2264 
Q 1234 2150 1697 2047 
L 1894 2003 
Q 2506 1872 2764 1633 
Q 3022 1394 3022 966 
Q 3022 478 2636 193 
Q 2250 -91 1575 -91 
Q 1294 -91 989 -36 
Q 684 19 347 128 
L 347 722 
Q 666 556 975 473 
Q 1284 391 1588 391 
Q 1994 391 2212 530 
Q 2431 669 2431 922 
Q 2431 1156 2273 1281 
Q 2116 1406 1581 1522 
L 1381 1569 
Q 847 1681 609 1914 
Q 372 2147 372 2553 
Q 372 3047 722 3315 
Q 1072 3584 1716 3584 
Q 2034 3584 2315 3537 
Q 2597 3491 2834 3397 
z
" transform="scale(0.015625)"/>
       <path id="DejaVuSans-5d" d="M 1947 4863 
L 1947 -844 
L 622 -844 
L 622 -397 
L 1369 -397 
L 1369 4416 
L 622 4416 
L 622 4863 
L 1947 4863 
z
" transform="scale(0.015625)"/>
      </defs>
      <use xlink:href="#DejaVuSans-74"/>
      <use xlink:href="#DejaVuSans-6f" transform="translate(39.208984 0)"/>
      <use xlink:href="#DejaVuSans-66" transform="translate(100.390625 0)"/>
      <use xlink:href="#DejaVuSans-20" transform="translate(135.595703 0)"/>
      <use xlink:href="#DejaVuSans-5b" transform="translate(167.382812 0)"/>
      <use xlink:href="#DejaVuSans-b5" transform="translate(206.396484 0)"/>
      <use xlink:href="#DejaVuSans-73" transform="translate(270.019531 0)"/>
      <use xlink:href="#DejaVuSans-5d" transform="translate(322.119141 0)"/>
     </g>
    </g>
   </g>
   <g id="matplotlib.axis_2">
    <g id="ytick_1">
     <g id="line2d_10">
      <defs>
       <path id="mf1298eba33" d="M 0 0 
L -3.5 0 
" style="stroke: #000000; stroke-width: 0.8"/>
      </defs>
      <g>
       <use xlink:href="#mf1298eba33" x="53.328125" y="218.88" style="stroke: #000000; stroke-width: 0.8"/>
      </g>
     </g>
     <g id="text_11">
      <!-- 0 -->
      <g transform="translate(39.965625 222.679219) scale(0.1 -0.1)">
       <use xlink:href="#DejaVuSans-30"/>
      </g>
     </g>
    </g>
    <g id="ytick_2">
     <g id="line2d_11">
      <g>
       <use xlink:href="#mf1298eba33" x="53.328125" y="190.585263" style="stroke: #000000; stroke-width: 0.8"/>
      </g>
     </g>
     <g id="text_12">
      <!-- 200 -->
      <g transform="translate(27.240625 194.384482) scale(0.1 -0.1)">
       <use xlink:href="#DejaVuSans-32"/>
       <use xlink:href="#DejaVuSans-30" transform="translate(63.623047 0)"/>
       <use xlink:href="#DejaVuSans-30" transform="translate(127.246094 0)"/>
      </g>
     </g>
    </g>
    <g id="ytick_3">
     <g id="line2d_12">
      <g>
       <use xlink:href="#mf1298eba33" x="53.328125" y="162.290526" style="stroke: #000000; stroke-width: 0.8"/>
      </g>
     </g>
     <g id="text_13">
      <!-- 400 -->
      <g transform="translate(27.240625 166.089745) scale(0.1 -0.1)">
       <defs>
        <path id="DejaVuSans-34" d="M 2419 4116 
L 825 1625 
L 2419 1625 
L 2419 4116 
z
M 2253 4666 
L 3047 4666 
L 3047 1625 
L 3713 1625 
L 3713 1100 
L 3047 1100 
L 3047 0 
L 2419 0 
L 2419 1100 
L 313 1100 
L 313 1709 
L 2253 4666 
z
" transform="scale(0.015625)"/>
       </defs>
       <use xlink:href="#DejaVuSans-34"/>
       <use xlink:href="#DejaVuSans-30" transform="translate(63.623047 0)"/>
       <use xlink:href="#DejaVuSans-30" transform="translate(127.246094 0)"/>
      </g>
     </g>
    </g>
    <g id="ytick_4">
     <g id="line2d_13">
      <g>
       <use xlink:href="#mf1298eba33" x="53.328125" y="133.995789" style="stroke: #000000; stroke-width: 0.8"/>
      </g>
     </g>
     <g id="text_14">
      <!-- 600 -->
      <g transform="translate(27.240625 137.795008) scale(0.1 -0.1)">
       <defs>
        <path id="DejaVuSans-36" d="M 2113 2584 
Q 1688 2584 1439 2293 
Q 1191 2003 1191 1497 
Q 1191 994 1439 701 
Q 1688 409 2113 409 
Q 2538 409 2786 701 
Q 3034 994 3034 1497 
Q 3034 2003 2786 2293 
Q 2538 2584 2113 2584 
z
M 3366 4563 
L 3366 3988 
Q 3128 4100 2886 4159 
Q 2644 4219 2406 4219 
Q 1781 4219 1451 3797 
Q 1122 3375 1075 2522 
Q 1259 2794 1537 2939 
Q 1816 3084 2150 3084 
Q 2853 3084 3261 2657 
Q 3669 2231 3669 1497 
Q 3669 778 3244 343 
Q 2819 -91 2113 -91 
Q 1303 -91 875 529 
Q 447 1150 447 2328 
Q 447 3434 972 4092 
Q 1497 4750 2381 4750 
Q 2619 4750 2861 4703 
Q 3103 4656 3366 4563 
z
" transform="scale(0.015625)"/>
       </defs>
       <use xlink:href="#DejaVuSans-36"/>
       <use xlink:href="#DejaVuSans-30" transform="translate(63.623047 0)"/>
       <use xlink:href="#DejaVuSans-30" transform="translate(127.246094 0)"/>
      </g>
     </g>
    </g>
    <g id="ytick_5">
     <g id="line2d_14">
      <g>
       <use xlink:href="#mf1298eba33" x="53.328125" y="105.701053" style="stroke: #000000; stroke-width: 0.8"/>
      </g>
     </g>
     <g id="text_15">
      <!-- 800 -->
      <g transform="translate(27.240625 109.500271) scale(0.1 -0.1)">
       <defs>
        <path id="DejaVuSans-38" d="M 2034 2216 
Q 1584 2216 1326 1975 
Q 1069 1734 1069 1313 
Q 1069 891 1326 650 
Q 1584 409 2034 409 
Q 2484 409 2743 651 
Q 3003 894 3003 1313 
Q 3003 1734 2745 1975 
Q 2488 2216 2034 2216 
z
M 1403 2484 
Q 997 2584 770 2862 
Q 544 3141 544 3541 
Q 544 4100 942 4425 
Q 1341 4750 2034 4750 
Q 2731 4750 3128 4425 
Q 3525 4100 3525 3541 
Q 3525 3141 3298 2862 
Q 3072 2584 2669 2484 
Q 3125 2378 3379 2068 
Q 3634 1759 3634 1313 
Q 3634 634 3220 271 
Q 2806 -91 2034 -91 
Q 1263 -91 848 271 
Q 434 634 434 1313 
Q 434 1759 690 2068 
Q 947 2378 1403 2484 
z
M 1172 3481 
Q 1172 3119 1398 2916 
Q 1625 2713 2034 2713 
Q 2441 2713 2670 2916 
Q 2900 3119 2900 3481 
Q 2900 3844 2670 4047 
Q 2441 4250 2034 4250 
Q 1625 4250 1398 4047 
Q 1172 3844 1172 3481 
z
" transform="scale(0.015625)"/>
       </defs>
       <use xlink:href="#DejaVuSans-38"/>
       <use xlink:href="#DejaVuSans-30" transform="translate(63.623047 0)"/>
       <use xlink:href="#DejaVuSans-30" transform="translate(127.246094 0)"/>
      </g>
     </g>
    </g>
    <g id="ytick_6">
     <g id="line2d_15">
      <g>
       <use xlink:href="#mf1298eba33" x="53.328125" y="77.406316" style="stroke: #000000; stroke-width: 0.8"/>
      </g>
     </g>
     <g id="text_16">
      <!-- 1000 -->
      <g transform="translate(20.878125 81.205535) scale(0.1 -0.1)">
       <use xlink:href="#DejaVuSans-31"/>
       <use xlink:href="#DejaVuSans-30" transform="translate(63.623047 0)"/>
       <use xlink:href="#DejaVuSans-30" transform="translate(127.246094 0)"/>
       <use xlink:href="#DejaVuSans-30" transform="translate(190.869141 0)"/>
      </g>
     </g>
    </g>
    <g id="ytick_7">
     <g id="line2d_16">
      <g>
       <use xlink:href="#mf1298eba33" x="53.328125" y="49.111579" style="stroke: #000000; stroke-width: 0.8"/>
      </g>
     </g>
     <g id="text_17">
      <!-- 1200 -->
      <g transform="translate(20.878125 52.910798) scale(0.1 -0.1)">
       <use xlink:href="#DejaVuSans-31"/>
       <use xlink:href="#DejaVuSans-32" transform="translate(63.623047 0)"/>
       <use xlink:href="#DejaVuSans-30" transform="translate(127.246094 0)"/>
       <use xlink:href="#DejaVuSans-30" transform="translate(190.869141 0)"/>
      </g>
     </g>
    </g>
    <g id="ytick_8">
     <g id="line2d_17">
      <g>
       <use xlink:href="#mf1298eba33" x="53.328125" y="20.816842" style="stroke: #000000; stroke-width: 0.8"/>
      </g>
     </g>
     <g id="text_18">
      <!-- 1400 -->
      <g transform="translate(20.878125 24.616061) scale(0.1 -0.1)">
       <use xlink:href="#DejaVuSans-31"/>
       <use xlink:href="#DejaVuSans-34" transform="translate(63.623047 0)"/>
       <use xlink:href="#DejaVuSans-30" transform="translate(127.246094 0)"/>
       <use xlink:href="#DejaVuSans-30" transform="translate(190.869141 0)"/>
      </g>
     </g>
    </g>
    <g id="text_19">
     <!-- [counts] -->
     <g transform="translate(14.798438 138.6925) rotate(-90) scale(0.1 -0.1)">
      <defs>
       <path id="DejaVuSans-63" d="M 3122 3366 
L 3122 2828 
Q 2878 2963 2633 3030 
Q 2388 3097 2138 3097 
Q 1578 3097 1268 2742 
Q 959 2388 959 1747 
Q 959 1106 1268 751 
Q 1578 397 2138 397 
Q 2388 397 2633 464 
Q 2878 531 3122 666 
L 3122 134 
Q 2881 22 2623 -34 
Q 2366 -91 2075 -91 
Q 1284 -91 818 406 
Q 353 903 353 1747 
Q 353 2603 823 3093 
Q 1294 3584 2113 3584 
Q 2378 3584 2631 3529 
Q 2884 3475 3122 3366 
z
" transform="scale(0.015625)"/>
       <path id="DejaVuSans-75" d="M 544 1381 
L 544 3500 
L 1119 3500 
L 1119 1403 
Q 1119 906 1312 657 
Q 1506 409 1894 409 
Q 2359 409 2629 706 
Q 2900 1003 2900 1516 
L 2900 3500 
L 3475 3500 
L 3475 0 
L 2900 0 
L 2900 538 
Q 2691 219 2414 64 
Q 2138 -91 1772 -91 
Q 1169 -91 856 284 
Q 544 659 544 1381 
z
M 1991 3584 
L 1991 3584 
z
" transform="scale(0.015625)"/>
       <path id="DejaVuSans-6e" d="M 3513 2113 
L 3513 0 
L 2938 0 
L 2938 2094 
Q 2938 2591 2744 2837 
Q 2550 3084 2163 3084 
Q 1697 3084 1428 2787 
Q 1159 2491 1159 1978 
L 1159 0 
L 581 0 
L 581 3500 
L 1159 3500 
L 1159 2956 
Q 1366 3272 1645 3428 
Q 1925 3584 2291 3584 
Q 2894 3584 3203 3211 
Q 3513 2838 3513 2113 
z
" transform="scale(0.015625)"/>
      </defs>
      <use xlink:href="#DejaVuSans-5b"/>
      <use xlink:href="#DejaVuSans-63" transform="translate(39.013672 0)"/>
      <use xlink:href="#DejaVuSans-6f" transform="translate(93.994141 0)"/>
      <use xlink:href="#DejaVuSans-75" transform="translate(155.175781 0)"/>
      <use xlink:href="#DejaVuSans-6e" transform="translate(218.554688 0)"/>
      <use xlink:href="#DejaVuSans-74" transform="translate(281.933594 0)"/>
      <use xlink:href="#DejaVuSans-73" transform="translate(321.142578 0)"/>
      <use xlink:href="#DejaVuSans-5d" transform="translate(373.242188 0)"/>
     </g>
    </g>
   </g>
   <g id="line2d_18">
    <path d="M 68.546307 217.182316 
L 69.30343 217.182316 
L 69.30343 213.504 
L 70.060554 213.504 
L 70.060554 213.221053 
L 70.817677 213.221053 
L 70.817677 208.835368 
L 71.574801 208.835368 
L 71.574801 197.800421 
L 72.331924 197.800421 
L 72.331924 181.813895 
L 73.089048 181.813895 
L 73.089048 154.085053 
L 73.846171 154.085053 
L 73.846171 107.257263 
L 74.603295 107.257263 
L 74.603295 59.156211 
L 75.360418 59.156211 
L 75.360418 17.28 
L 76.117542 17.28 
L 76.117542 24.212211 
L 76.874665 24.212211 
L 76.874665 28.314947 
L 77.631789 28.314947 
L 77.631789 45.291789 
L 78.388912 45.291789 
L 78.388912 62.834526 
L 79.146035 62.834526 
L 79.146035 77.123368 
L 79.903159 77.123368 
L 79.903159 64.249263 
L 80.660282 64.249263 
L 80.660282 87.309474 
L 81.417406 87.309474 
L 81.417406 93.534316 
L 82.174529 93.534316 
L 82.174529 104.003368 
L 82.931653 104.003368 
L 82.931653 92.826947 
L 83.688776 92.826947 
L 83.688776 130.741895 
L 84.4459 130.741895 
L 84.4459 171.486316 
L 85.203023 171.486316 
L 85.203023 196.810105 
L 85.960147 196.810105 
L 85.960147 217.748211 
L 86.71727 217.748211 
L 86.71727 218.88 
L 372.909943 218.88 
L 372.909943 218.88 
" clip-path="url(#pace8ffba66)" style="fill: none; stroke: #1f77b4; stroke-width: 1.5; stroke-linecap: square"/>
   </g>
   <g id="line2d_19">
    <path d="M 68.546307 218.88 
L 163.943864 218.88 
L 163.943864 218.738526 
L 165.458111 218.738526 
L 165.458111 218.88 
L 169.243729 218.88 
L 169.243729 218.031158 
L 170.000852 218.031158 
L 170.000852 216.192 
L 170.757976 216.192 
L 170.757976 216.050526 
L 171.515099 216.050526 
L 171.515099 215.484632 
L 172.272223 215.484632 
L 172.272223 214.777263 
L 173.029346 214.777263 
L 173.029346 211.947789 
L 173.78647 211.947789 
L 173.78647 212.372211 
L 174.543593 212.372211 
L 174.543593 210.674526 
L 175.300717 210.674526 
L 175.300717 208.552421 
L 176.05784 208.552421 
L 176.05784 205.581474 
L 176.814964 205.581474 
L 176.814964 202.044632 
L 177.572087 202.044632 
L 177.572087 200.064 
L 178.32921 200.064 
L 178.32921 196.102737 
L 179.086334 196.102737 
L 179.086334 185.209263 
L 179.843457 185.209263 
L 179.843457 190.443789 
L 180.600581 190.443789 
L 180.600581 177.569684 
L 181.357704 177.569684 
L 181.357704 175.730526 
L 182.114828 175.730526 
L 182.114828 167.666526 
L 182.871951 167.666526 
L 182.871951 161.300211 
L 183.629075 161.300211 
L 183.629075 154.368 
L 184.386198 154.368 
L 184.386198 147.294316 
L 185.143322 147.294316 
L 185.143322 152.104421 
L 185.900445 152.104421 
L 185.900445 156.348632 
L 186.657569 156.348632 
L 186.657569 161.724632 
L 187.414692 161.724632 
L 187.414692 151.68 
L 188.171816 151.68 
L 188.171816 164.978526 
L 188.928939 164.978526 
L 188.928939 157.197474 
L 189.686063 157.197474 
L 189.686063 157.056 
L 190.443186 157.056 
L 190.443186 159.744 
L 191.20031 159.744 
L 191.20031 166.676211 
L 191.957433 166.676211 
L 191.957433 154.650947 
L 192.714556 154.650947 
L 192.714556 162.856421 
L 193.47168 162.856421 
L 193.47168 168.939789 
L 194.228803 168.939789 
L 194.228803 168.090947 
L 194.985927 168.090947 
L 194.985927 167.383579 
L 195.74305 167.383579 
L 195.74305 161.158737 
L 196.500174 161.158737 
L 196.500174 172.052211 
L 197.257297 172.052211 
L 197.257297 167.383579 
L 198.014421 167.383579 
L 198.014421 174.598737 
L 198.771544 174.598737 
L 198.771544 167.383579 
L 199.528668 167.383579 
L 199.528668 167.242105 
L 200.285791 167.242105 
L 200.285791 173.608421 
L 201.042915 173.608421 
L 201.042915 174.174316 
L 201.800038 174.174316 
L 201.800038 173.325474 
L 202.557162 173.325474 
L 202.557162 181.106526 
L 203.314285 181.106526 
L 203.314285 176.013474 
L 204.071409 176.013474 
L 204.071409 179.125895 
L 204.828532 179.125895 
L 204.828532 180.257684 
L 205.585656 180.257684 
L 205.585656 176.579368 
L 206.342779 176.579368 
L 206.342779 182.662737 
L 207.099902 182.662737 
L 207.099902 183.511579 
L 207.857026 183.511579 
L 207.857026 177.003789 
L 208.614149 177.003789 
L 208.614149 185.492211 
L 209.371273 185.492211 
L 209.371273 183.370105 
L 210.128396 183.370105 
L 210.128396 189.453474 
L 210.88552 189.453474 
L 210.88552 193.697684 
L 211.642643 193.697684 
L 211.642643 196.102737 
L 212.399767 196.102737 
L 212.399767 204.308211 
L 213.15689 204.308211 
L 213.15689 205.44 
L 213.914014 205.44 
L 213.914014 207.562105 
L 214.671137 207.562105 
L 214.671137 212.513684 
L 215.428261 212.513684 
L 215.428261 214.069895 
L 216.185384 214.069895 
L 216.185384 218.88 
L 372.909943 218.88 
L 372.909943 218.88 
" clip-path="url(#pace8ffba66)" style="fill: none; stroke: #ff7f0e; stroke-width: 1.5; stroke-linecap: square"/>
   </g>
   <g id="line2d_20">
    <path d="M 68.546307 218.88 
L 219.213878 218.88 
L 219.213878 217.182316 
L 219.971002 217.182316 
L 219.971002 217.040842 
L 220.728125 217.040842 
L 220.728125 216.474947 
L 222.242372 216.474947 
L 222.242372 218.314105 
L 222.999495 218.314105 
L 222.999495 218.031158 
L 223.756619 218.031158 
L 223.756619 213.079579 
L 224.513742 213.079579 
L 224.513742 213.362526 
L 225.270866 213.362526 
L 225.270866 213.504 
L 226.027989 213.504 
L 226.027989 212.513684 
L 226.785113 212.513684 
L 226.785113 211.098947 
L 227.542236 211.098947 
L 227.542236 210.108632 
L 228.29936 210.108632 
L 228.29936 209.825684 
L 229.056483 209.825684 
L 229.056483 203.459368 
L 229.813607 203.459368 
L 229.813607 206.005895 
L 230.57073 206.005895 
L 230.57073 204.591158 
L 231.327854 204.591158 
L 231.327854 195.678316 
L 232.084977 195.678316 
L 232.084977 195.536842 
L 232.842101 195.536842 
L 232.842101 197.517474 
L 233.599224 197.517474 
L 233.599224 189.736421 
L 234.356348 189.736421 
L 234.356348 186.624 
L 235.113471 186.624 
L 235.113471 184.501895 
L 235.870594 184.501895 
L 235.870594 178.842947 
L 236.627718 178.842947 
L 236.627718 182.945684 
L 237.384841 182.945684 
L 237.384841 169.364211 
L 238.141965 169.364211 
L 238.141965 173.184 
L 238.899088 173.184 
L 238.899088 163.705263 
L 239.656212 163.705263 
L 239.656212 169.222737 
L 240.413335 169.222737 
L 240.413335 169.364211 
L 241.170459 169.364211 
L 241.170459 171.486316 
L 241.927582 171.486316 
L 241.927582 174.740211 
L 242.684706 174.740211 
L 242.684706 172.476632 
L 243.441829 172.476632 
L 243.441829 175.730526 
L 244.198953 175.730526 
L 244.198953 170.920421 
L 244.956076 170.920421 
L 244.956076 176.720842 
L 245.7132 176.720842 
L 245.7132 170.778947 
L 246.470323 170.778947 
L 246.470323 174.740211 
L 247.227447 174.740211 
L 247.227447 176.013474 
L 247.98457 176.013474 
L 247.98457 181.248 
L 248.741694 181.248 
L 248.741694 169.505684 
L 249.498817 169.505684 
L 249.498817 176.013474 
L 250.25594 176.013474 
L 250.25594 178.277053 
L 251.013064 178.277053 
L 251.013064 177.569684 
L 251.770187 177.569684 
L 251.770187 183.794526 
L 252.527311 183.794526 
L 252.527311 180.116211 
L 253.284434 180.116211 
L 253.284434 176.154947 
L 254.041558 176.154947 
L 254.041558 178.984421 
L 254.798681 178.984421 
L 254.798681 181.248 
L 255.555805 181.248 
L 255.555805 183.511579 
L 256.312928 183.511579 
L 256.312928 178.842947 
L 257.070052 178.842947 
L 257.070052 182.379789 
L 257.827175 182.379789 
L 257.827175 183.794526 
L 258.584299 183.794526 
L 258.584299 180.682105 
L 259.341422 180.682105 
L 259.341422 181.248 
L 260.098546 181.248 
L 260.098546 187.897263 
L 260.855669 187.897263 
L 260.855669 182.096842 
L 261.612793 182.096842 
L 261.612793 181.389474 
L 262.369916 181.389474 
L 262.369916 189.594947 
L 263.12704 189.594947 
L 263.12704 189.029053 
L 263.884163 189.029053 
L 263.884163 187.614316 
L 264.641286 187.614316 
L 264.641286 187.897263 
L 265.39841 187.897263 
L 265.39841 188.887579 
L 266.155533 188.887579 
L 266.155533 191.858526 
L 266.912657 191.858526 
L 266.912657 183.370105 
L 267.66978 183.370105 
L 267.66978 193.980632 
L 268.426904 193.980632 
L 268.426904 188.463158 
L 269.184027 188.463158 
L 269.184027 191.292632 
L 269.941151 191.292632 
L 269.941151 188.180211 
L 270.698274 188.180211 
L 270.698274 195.819789 
L 271.455398 195.819789 
L 271.455398 192.282947 
L 272.212521 192.282947 
L 272.212521 189.736421 
L 272.969645 189.736421 
L 272.969645 196.385684 
L 273.726768 196.385684 
L 273.726768 198.932211 
L 274.483892 198.932211 
L 274.483892 201.054316 
L 275.241015 201.054316 
L 275.241015 201.620211 
L 275.998139 201.620211 
L 275.998139 204.591158 
L 276.755262 204.591158 
L 276.755262 208.269474 
L 277.512386 208.269474 
L 277.512386 208.976842 
L 278.269509 208.976842 
L 278.269509 210.533053 
L 279.026632 210.533053 
L 279.026632 211.947789 
L 279.783756 211.947789 
L 279.783756 215.484632 
L 281.298003 215.484632 
L 281.298003 218.88 
L 372.909943 218.88 
L 372.909943 218.88 
" clip-path="url(#pace8ffba66)" style="fill: none; stroke: #2ca02c; stroke-width: 1.5; stroke-linecap: square"/>
   </g>
   <g id="line2d_21">
    <path d="M 68.546307 218.88 
L 290.383485 218.88 
L 290.383485 217.323789 
L 291.140608 217.323789 
L 291.140608 217.040842 
L 291.897732 217.040842 
L 291.897732 218.597053 
L 292.654855 218.597053 
L 292.654855 218.88 
L 294.169102 218.88 
L 294.169102 215.767579 
L 294.926225 215.767579 
L 294.926225 215.909053 
L 296.440472 215.909053 
L 296.440472 214.494316 
L 297.197596 214.494316 
L 297.197596 215.060211 
L 297.954719 215.060211 
L 297.954719 214.352842 
L 298.711843 214.352842 
L 298.711843 212.796632 
L 299.468966 212.796632 
L 299.468966 212.655158 
L 300.983213 212.655158 
L 300.983213 210.391579 
L 302.49746 210.391579 
L 302.49746 207.845053 
L 303.254584 207.845053 
L 303.254584 210.957474 
L 304.011707 210.957474 
L 304.011707 207.986526 
L 304.768831 207.986526 
L 304.768831 203.317895 
L 305.525954 203.317895 
L 305.525954 198.932211 
L 306.283078 198.932211 
L 306.283078 203.883789 
L 307.040201 203.883789 
L 307.040201 203.742316 
L 307.797324 203.742316 
L 307.797324 196.244211 
L 308.554448 196.244211 
L 308.554448 197.941895 
L 309.311571 197.941895 
L 309.311571 194.263579 
L 310.068695 194.263579 
L 310.068695 193.131789 
L 310.825818 193.131789 
L 310.825818 191.434105 
L 311.582942 191.434105 
L 311.582942 190.868211 
L 312.340065 190.868211 
L 312.340065 190.585263 
L 313.097189 190.585263 
L 313.097189 183.087158 
L 313.854312 183.087158 
L 313.854312 187.472842 
L 314.611436 187.472842 
L 314.611436 177.145263 
L 315.368559 177.145263 
L 315.368559 180.540632 
L 316.125683 180.540632 
L 316.125683 183.794526 
L 316.882806 183.794526 
L 316.882806 180.682105 
L 317.63993 180.682105 
L 317.63993 183.936 
L 318.397053 183.936 
L 318.397053 183.794526 
L 319.154177 183.794526 
L 319.154177 179.125895 
L 319.9113 179.125895 
L 319.9113 191.717053 
L 320.668424 191.717053 
L 320.668424 184.501895 
L 321.425547 184.501895 
L 321.425547 185.775158 
L 322.18267 185.775158 
L 322.18267 181.389474 
L 322.939794 181.389474 
L 322.939794 189.736421 
L 323.696917 189.736421 
L 323.696917 185.633684 
L 324.454041 185.633684 
L 324.454041 182.096842 
L 325.211164 182.096842 
L 325.211164 186.765474 
L 325.968288 186.765474 
L 325.968288 185.633684 
L 326.725411 185.633684 
L 326.725411 190.443789 
L 327.482535 190.443789 
L 327.482535 187.472842 
L 328.239658 187.472842 
L 328.239658 187.614316 
L 328.996782 187.614316 
L 328.996782 185.067789 
L 329.753905 185.067789 
L 329.753905 183.936 
L 330.511029 183.936 
L 330.511029 190.302316 
L 331.268152 190.302316 
L 331.268152 188.604632 
L 332.025276 188.604632 
L 332.025276 189.594947 
L 332.782399 189.594947 
L 332.782399 190.302316 
L 333.539523 190.302316 
L 333.539523 191.575579 
L 334.296646 191.575579 
L 334.296646 189.594947 
L 335.05377 189.594947 
L 335.05377 185.350737 
L 335.810893 185.350737 
L 335.810893 192 
L 336.568016 192 
L 336.568016 191.292632 
L 337.32514 191.292632 
L 337.32514 188.887579 
L 338.082263 188.887579 
L 338.082263 192.707368 
L 338.839387 192.707368 
L 338.839387 190.160842 
L 339.59651 190.160842 
L 339.59651 193.556211 
L 340.353634 193.556211 
L 340.353634 190.585263 
L 341.110757 190.585263 
L 341.110757 191.575579 
L 341.867881 191.575579 
L 341.867881 192.282947 
L 342.625004 192.282947 
L 342.625004 188.887579 
L 343.382128 188.887579 
L 343.382128 194.405053 
L 344.896375 194.405053 
L 344.896375 190.868211 
L 345.653498 190.868211 
L 345.653498 194.546526 
L 346.410622 194.546526 
L 346.410622 191.575579 
L 347.167745 191.575579 
L 347.167745 198.224842 
L 347.924869 198.224842 
L 347.924869 194.688 
L 348.681992 194.688 
L 348.681992 198.507789 
L 349.439116 198.507789 
L 349.439116 195.253895 
L 350.196239 195.253895 
L 350.196239 192.848842 
L 350.953362 192.848842 
L 350.953362 198.790737 
L 351.710486 198.790737 
L 351.710486 198.932211 
L 352.467609 198.932211 
L 352.467609 197.093053 
L 353.224733 197.093053 
L 353.224733 193.273263 
L 353.981856 193.273263 
L 353.981856 199.356632 
L 354.73898 199.356632 
L 354.73898 196.668632 
L 355.496103 196.668632 
L 355.496103 197.376 
L 356.253227 197.376 
L 356.253227 194.546526 
L 357.01035 194.546526 
L 357.01035 198.224842 
L 357.767474 198.224842 
L 357.767474 200.488421 
L 358.524597 200.488421 
L 358.524597 204.308211 
L 359.281721 204.308211 
L 359.281721 196.668632 
L 360.038844 196.668632 
L 360.038844 198.507789 
L 360.795968 198.507789 
L 360.795968 197.658947 
L 361.553091 197.658947 
L 361.553091 202.752 
L 362.310215 202.752 
L 362.310215 204.874105 
L 363.067338 204.874105 
L 363.067338 206.571789 
L 363.824461 206.571789 
L 363.824461 204.874105 
L 364.581585 204.874105 
L 364.581585 205.298526 
L 365.338708 205.298526 
L 365.338708 208.693895 
L 366.095832 208.693895 
L 366.095832 211.947789 
L 366.852955 211.947789 
L 366.852955 210.816 
L 367.610079 210.816 
L 367.610079 210.957474 
L 368.367202 210.957474 
L 368.367202 211.240421 
L 369.124326 211.240421 
L 369.124326 214.352842 
L 369.881449 214.352842 
L 369.881449 214.918737 
L 370.638573 214.918737 
L 370.638573 217.040842 
L 371.395696 217.040842 
L 371.395696 216.050526 
L 372.15282 216.050526 
L 372.15282 216.899368 
L 372.909943 216.899368 
L 372.909943 216.899368 
" clip-path="url(#pace8ffba66)" style="fill: none; stroke: #d62728; stroke-width: 1.5; stroke-linecap: square"/>
   </g>
   <g id="patch_3">
    <path d="M 53.328125 228.96 
L 53.328125 7.2 
" style="fill: none; stroke: #000000; stroke-width: 0.8; stroke-linejoin: miter; stroke-linecap: square"/>
   </g>
   <g id="patch_4">
    <path d="M 388.128125 228.96 
L 388.128125 7.2 
" style="fill: none; stroke: #000000; stroke-width: 0.8; stroke-linejoin: miter; stroke-linecap: square"/>
   </g>
   <g id="patch_5">
    <path d="M 53.328125 228.96 
L 388.128125 228.96 
" style="fill: none; stroke: #000000; stroke-width: 0.8; stroke-linejoin: miter; stroke-linecap: square"/>
   </g>
   <g id="patch_6">
    <path d="M 53.328125 7.2 
L 388.128125 7.2 
" style="fill: none; stroke: #000000; stroke-width: 0.8; stroke-linejoin: miter; stroke-linecap: square"/>
   </g>
   <g id="legend_1">
    <g id="patch_7">
     <path d="M 306.904688 73.9125 
L 381.128125 73.9125 
Q 383.128125 73.9125 383.128125 71.9125 
L 383.128125 14.2 
Q 383.128125 12.2 381.128125 12.2 
L 306.904688 12.2 
Q 304.904688 12.2 304.904688 14.2 
L 304.904688 71.9125 
Q 304.904688 73.9125 306.904688 73.9125 
z
" style="fill: #ffffff; opacity: 0.8; stroke: #cccccc; stroke-linejoin: miter"/>
    </g>
    <g id="line2d_22">
     <path d="M 308.904688 20.298437 
L 308.904688 20.298437 
L 318.904688 20.298437 
L 318.904688 20.298437 
L 328.904688 20.298437 
" style="fill: none; stroke: #1f77b4; stroke-width: 1.5; stroke-linecap: square"/>
    </g>
    <g id="text_20">
     <!-- beam -->
     <g transform="translate(336.904688 23.798437) scale(0.1 -0.1)">
      <defs>
       <path id="DejaVuSans-62" d="M 3116 1747 
Q 3116 2381 2855 2742 
Q 2594 3103 2138 3103 
Q 1681 3103 1420 2742 
Q 1159 2381 1159 1747 
Q 1159 1113 1420 752 
Q 1681 391 2138 391 
Q 2594 391 2855 752 
Q 3116 1113 3116 1747 
z
M 1159 2969 
Q 1341 3281 1617 3432 
Q 1894 3584 2278 3584 
Q 2916 3584 3314 3078 
Q 3713 2572 3713 1747 
Q 3713 922 3314 415 
Q 2916 -91 2278 -91 
Q 1894 -91 1617 61 
Q 1341 213 1159 525 
L 1159 0 
L 581 0 
L 581 4863 
L 1159 4863 
L 1159 2969 
z
" transform="scale(0.015625)"/>
       <path id="DejaVuSans-65" d="M 3597 1894 
L 3597 1613 
L 953 1613 
Q 991 1019 1311 708 
Q 1631 397 2203 397 
Q 2534 397 2845 478 
Q 3156 559 3463 722 
L 3463 178 
Q 3153 47 2828 -22 
Q 2503 -91 2169 -91 
Q 1331 -91 842 396 
Q 353 884 353 1716 
Q 353 2575 817 3079 
Q 1281 3584 2069 3584 
Q 2775 3584 3186 3129 
Q 3597 2675 3597 1894 
z
M 3022 2063 
Q 3016 2534 2758 2815 
Q 2500 3097 2075 3097 
Q 1594 3097 1305 2825 
Q 1016 2553 972 2059 
L 3022 2063 
z
" transform="scale(0.015625)"/>
       <path id="DejaVuSans-61" d="M 2194 1759 
Q 1497 1759 1228 1600 
Q 959 1441 959 1056 
Q 959 750 1161 570 
Q 1363 391 1709 391 
Q 2188 391 2477 730 
Q 2766 1069 2766 1631 
L 2766 1759 
L 2194 1759 
z
M 3341 1997 
L 3341 0 
L 2766 0 
L 2766 531 
Q 2569 213 2275 61 
Q 1981 -91 1556 -91 
Q 1019 -91 701 211 
Q 384 513 384 1019 
Q 384 1609 779 1909 
Q 1175 2209 1959 2209 
L 2766 2209 
L 2766 2266 
Q 2766 2663 2505 2880 
Q 2244 3097 1772 3097 
Q 1472 3097 1187 3025 
Q 903 2953 641 2809 
L 641 3341 
Q 956 3463 1253 3523 
Q 1550 3584 1831 3584 
Q 2591 3584 2966 3190 
Q 3341 2797 3341 1997 
z
" transform="scale(0.015625)"/>
       <path id="DejaVuSans-6d" d="M 3328 2828 
Q 3544 3216 3844 3400 
Q 4144 3584 4550 3584 
Q 5097 3584 5394 3201 
Q 5691 2819 5691 2113 
L 5691 0 
L 5113 0 
L 5113 2094 
Q 5113 2597 4934 2840 
Q 4756 3084 4391 3084 
Q 3944 3084 3684 2787 
Q 3425 2491 3425 1978 
L 3425 0 
L 2847 0 
L 2847 2094 
Q 2847 2600 2669 2842 
Q 2491 3084 2119 3084 
Q 1678 3084 1418 2786 
Q 1159 2488 1159 1978 
L 1159 0 
L 581 0 
L 581 3500 
L 1159 3500 
L 1159 2956 
Q 1356 3278 1631 3431 
Q 1906 3584 2284 3584 
Q 2666 3584 2933 3390 
Q 3200 3197 3328 2828 
z
" transform="scale(0.015625)"/>
      </defs>
      <use xlink:href="#DejaVuSans-62"/>
      <use xlink:href="#DejaVuSans-65" transform="translate(63.476562 0)"/>
      <use xlink:href="#DejaVuSans-61" transform="translate(125 0)"/>
      <use xlink:href="#DejaVuSans-6d" transform="translate(186.279297 0)"/>
     </g>
    </g>
    <g id="line2d_23">
     <path d="M 308.904688 34.976562 
L 308.904688 34.976562 
L 318.904688 34.976562 
L 318.904688 34.976562 
L 328.904688 34.976562 
" style="fill: none; stroke: #ff7f0e; stroke-width: 1.5; stroke-linecap: square"/>
    </g>
    <g id="text_21">
     <!-- sample -->
     <g transform="translate(336.904688 38.476562) scale(0.1 -0.1)">
      <defs>
       <path id="DejaVuSans-70" d="M 1159 525 
L 1159 -1331 
L 581 -1331 
L 581 3500 
L 1159 3500 
L 1159 2969 
Q 1341 3281 1617 3432 
Q 1894 3584 2278 3584 
Q 2916 3584 3314 3078 
Q 3713 2572 3713 1747 
Q 3713 922 3314 415 
Q 2916 -91 2278 -91 
Q 1894 -91 1617 61 
Q 1341 213 1159 525 
z
M 3116 1747 
Q 3116 2381 2855 2742 
Q 2594 3103 2138 3103 
Q 1681 3103 1420 2742 
Q 1159 2381 1159 1747 
Q 1159 1113 1420 752 
Q 1681 391 2138 391 
Q 2594 391 2855 752 
Q 3116 1113 3116 1747 
z
" transform="scale(0.015625)"/>
       <path id="DejaVuSans-6c" d="M 603 4863 
L 1178 4863 
L 1178 0 
L 603 0 
L 603 4863 
z
" transform="scale(0.015625)"/>
      </defs>
      <use xlink:href="#DejaVuSans-73"/>
      <use xlink:href="#DejaVuSans-61" transform="translate(52.099609 0)"/>
      <use xlink:href="#DejaVuSans-6d" transform="translate(113.378906 0)"/>
      <use xlink:href="#DejaVuSans-70" transform="translate(210.791016 0)"/>
      <use xlink:href="#DejaVuSans-6c" transform="translate(274.267578 0)"/>
      <use xlink:href="#DejaVuSans-65" transform="translate(302.050781 0)"/>
     </g>
    </g>
    <g id="line2d_24">
     <path d="M 308.904688 49.654687 
L 308.904688 49.654687 
L 318.904688 49.654687 
L 318.904688 49.654687 
L 328.904688 49.654687 
" style="fill: none; stroke: #2ca02c; stroke-width: 1.5; stroke-linecap: square"/>
    </g>
    <g id="text_22">
     <!-- monitor -->
     <g transform="translate(336.904688 53.154687) scale(0.1 -0.1)">
      <defs>
       <path id="DejaVuSans-69" d="M 603 3500 
L 1178 3500 
L 1178 0 
L 603 0 
L 603 3500 
z
M 603 4863 
L 1178 4863 
L 1178 4134 
L 603 4134 
L 603 4863 
z
" transform="scale(0.015625)"/>
       <path id="DejaVuSans-72" d="M 2631 2963 
Q 2534 3019 2420 3045 
Q 2306 3072 2169 3072 
Q 1681 3072 1420 2755 
Q 1159 2438 1159 1844 
L 1159 0 
L 581 0 
L 581 3500 
L 1159 3500 
L 1159 2956 
Q 1341 3275 1631 3429 
Q 1922 3584 2338 3584 
Q 2397 3584 2469 3576 
Q 2541 3569 2628 3553 
L 2631 2963 
z
" transform="scale(0.015625)"/>
      </defs>
      <use xlink:href="#DejaVuSans-6d"/>
      <use xlink:href="#DejaVuSans-6f" transform="translate(97.412109 0)"/>
      <use xlink:href="#DejaVuSans-6e" transform="translate(158.59375 0)"/>
      <use xlink:href="#DejaVuSans-69" transform="translate(221.972656 0)"/>
      <use xlink:href="#DejaVuSans-74" transform="translate(249.755859 0)"/>
      <use xlink:href="#DejaVuSans-6f" transform="translate(288.964844 0)"/>
      <use xlink:href="#DejaVuSans-72" transform="translate(350.146484 0)"/>
     </g>
    </g>
    <g id="line2d_25">
     <path d="M 308.904688 64.332812 
L 308.904688 64.332812 
L 318.904688 64.332812 
L 318.904688 64.332812 
L 328.904688 64.332812 
" style="fill: none; stroke: #d62728; stroke-width: 1.5; stroke-linecap: square"/>
    </g>
    <g id="text_23">
     <!-- detector -->
     <g transform="translate(336.904688 67.832812) scale(0.1 -0.1)">
      <defs>
       <path id="DejaVuSans-64" d="M 2906 2969 
L 2906 4863 
L 3481 4863 
L 3481 0 
L 2906 0 
L 2906 525 
Q 2725 213 2448 61 
Q 2172 -91 1784 -91 
Q 1150 -91 751 415 
Q 353 922 353 1747 
Q 353 2572 751 3078 
Q 1150 3584 1784 3584 
Q 2172 3584 2448 3432 
Q 2725 3281 2906 2969 
z
M 947 1747 
Q 947 1113 1208 752 
Q 1469 391 1925 391 
Q 2381 391 2643 752 
Q 2906 1113 2906 1747 
Q 2906 2381 2643 2742 
Q 2381 3103 1925 3103 
Q 1469 3103 1208 2742 
Q 947 2381 947 1747 
z
" transform="scale(0.015625)"/>
      </defs>
      <use xlink:href="#DejaVuSans-64"/>
      <use xlink:href="#DejaVuSans-65" transform="translate(63.476562 0)"/>
      <use xlink:href="#DejaVuSans-74" transform="translate(125 0)"/>
      <use xlink:href="#DejaVuSans-65" transform="translate(164.208984 0)"/>
      <use xlink:href="#DejaVuSans-63" transform="translate(225.732422 0)"/>
      <use xlink:href="#DejaVuSans-74" transform="translate(280.712891 0)"/>
      <use xlink:href="#DejaVuSans-6f" transform="translate(319.921875 0)"/>
      <use xlink:href="#DejaVuSans-72" transform="translate(381.103516 0)"/>
     </g>
    </g>
   </g>
  </g>
 </g>
 <defs>
  <clipPath id="pace8ffba66">
   <rect x="53.328125" y="7.2" width="334.8" height="221.76"/>
  </clipPath>
 </defs>
</svg>
