<?xml version="1.0" encoding="utf-8" standalone="no"?>
<!DOCTYPE svg PUBLIC "-//W3C//DTD SVG 1.1//EN"
  "http://www.w3.org/Graphics/SVG/1.1/DTD/svg11.dtd">
<svg xmlns:xlink="http://www.w3.org/1999/xlink" width="401.690625pt" height="266.51625pt" viewBox="0 0 401.690625 266.51625" xmlns="http://www.w3.org/2000/svg" version="1.1">
 <metadata>
  <rdf:RDF xmlns:dc="http://purl.org/dc/elements/1.1/" xmlns:cc="http://creativecommons.org/ns#" xmlns:rdf="http://www.w3.org/1999/02/22-rdf-syntax-ns#">
   <cc:Work>
    <dc:type rdf:resource="http://purl.org/dc/dcmitype/StillImage"/>
    <dc:date>2025-05-26T10:50:09.322339</dc:date>
    <dc:format>image/svg+xml</dc:format>
    <dc:creator>
     <cc:Agent>
      <dc:title>Matplotlib v3.10.3, https://matplotlib.org/</dc:title>
     </cc:Agent>
    </dc:creator>
   </cc:Work>
  </rdf:RDF>
 </metadata>
 <defs>
  <style type="text/css">*{stroke-linejoin: round; stroke-linecap: butt}</style>
 </defs>
 <g id="figure_1">
  <g id="patch_1">
   <path d="M 0 266.51625 
L 401.690625 266.51625 
L 401.690625 0 
L 0 0 
z
" style="fill: #ffffff"/>
  </g>
  <g id="axes_1">
   <g id="patch_2">
    <path d="M 59.690625 228.96 
L 394.490625 228.96 
L 394.490625 7.2 
L 59.690625 7.2 
z
" style="fill: #ffffff"/>
   </g>
   <g id="matplotlib.axis_1">
    <g id="xtick_1">
     <g id="line2d_1">
      <defs>
       <path id="m7b2f889425" d="M 0 0 
L 0 3.5 
" style="stroke: #000000; stroke-width: 0.8"/>
      </defs>
      <g>
       <use xlink:href="#m7b2f889425" x="79.269297" y="228.96" style="stroke: #000000; stroke-width: 0.8"/>
      </g>
     </g>
     <g id="text_1">
      <!-- 20000 -->
      <g transform="translate(63.363047 243.558437) scale(0.1 -0.1)">
       <defs>
        <path id="DejaVuSans-32" d="M 1228 531 
L 3431 531 
L 3431 0 
L 469 0 
L 469 531 
Q 828 903 1448 1529 
Q 2069 2156 2228 2338 
Q 2531 2678 2651 2914 
Q 2772 3150 2772 3378 
Q 2772 3750 2511 3984 
Q 2250 4219 1831 4219 
Q 1534 4219 1204 4116 
Q 875 4013 500 3803 
L 500 4441 
Q 881 4594 1212 4672 
Q 1544 4750 1819 4750 
Q 2544 4750 2975 4387 
Q 3406 4025 3406 3419 
Q 3406 3131 3298 2873 
Q 3191 2616 2906 2266 
Q 2828 2175 2409 1742 
Q 1991 1309 1228 531 
z
" transform="scale(0.015625)"/>
        <path id="DejaVuSans-30" d="M 2034 4250 
Q 1547 4250 1301 3770 
Q 1056 3291 1056 2328 
Q 1056 1369 1301 889 
Q 1547 409 2034 409 
Q 2525 409 2770 889 
Q 3016 1369 3016 2328 
Q 3016 3291 2770 3770 
Q 2525 4250 2034 4250 
z
M 2034 4750 
Q 2819 4750 3233 4129 
Q 3647 3509 3647 2328 
Q 3647 1150 3233 529 
Q 2819 -91 2034 -91 
Q 1250 -91 836 529 
Q 422 1150 422 2328 
Q 422 3509 836 4129 
Q 1250 4750 2034 4750 
z
" transform="scale(0.015625)"/>
       </defs>
       <use xlink:href="#DejaVuSans-32"/>
       <use xlink:href="#DejaVuSans-30" transform="translate(63.623047 0)"/>
       <use xlink:href="#DejaVuSans-30" transform="translate(127.246094 0)"/>
       <use xlink:href="#DejaVuSans-30" transform="translate(190.869141 0)"/>
       <use xlink:href="#DejaVuSans-30" transform="translate(254.492188 0)"/>
      </g>
     </g>
    </g>
    <g id="xtick_2">
     <g id="line2d_2">
      <g>
       <use xlink:href="#m7b2f889425" x="119.98684" y="228.96" style="stroke: #000000; stroke-width: 0.8"/>
      </g>
     </g>
     <g id="text_2">
      <!-- 40000 -->
      <g transform="translate(104.08059 243.558437) scale(0.1 -0.1)">
       <defs>
        <path id="DejaVuSans-34" d="M 2419 4116 
L 825 1625 
L 2419 1625 
L 2419 4116 
z
M 2253 4666 
L 3047 4666 
L 3047 1625 
L 3713 1625 
L 3713 1100 
L 3047 1100 
L 3047 0 
L 2419 0 
L 2419 1100 
L 313 1100 
L 313 1709 
L 2253 4666 
z
" transform="scale(0.015625)"/>
       </defs>
       <use xlink:href="#DejaVuSans-34"/>
       <use xlink:href="#DejaVuSans-30" transform="translate(63.623047 0)"/>
       <use xlink:href="#DejaVuSans-30" transform="translate(127.246094 0)"/>
       <use xlink:href="#DejaVuSans-30" transform="translate(190.869141 0)"/>
       <use xlink:href="#DejaVuSans-30" transform="translate(254.492188 0)"/>
      </g>
     </g>
    </g>
    <g id="xtick_3">
     <g id="line2d_3">
      <g>
       <use xlink:href="#m7b2f889425" x="160.704383" y="228.96" style="stroke: #000000; stroke-width: 0.8"/>
      </g>
     </g>
     <g id="text_3">
      <!-- 60000 -->
      <g transform="translate(144.798133 243.558437) scale(0.1 -0.1)">
       <defs>
        <path id="DejaVuSans-36" d="M 2113 2584 
Q 1688 2584 1439 2293 
Q 1191 2003 1191 1497 
Q 1191 994 1439 701 
Q 1688 409 2113 409 
Q 2538 409 2786 701 
Q 3034 994 3034 1497 
Q 3034 2003 2786 2293 
Q 2538 2584 2113 2584 
z
M 3366 4563 
L 3366 3988 
Q 3128 4100 2886 4159 
Q 2644 4219 2406 4219 
Q 1781 4219 1451 3797 
Q 1122 3375 1075 2522 
Q 1259 2794 1537 2939 
Q 1816 3084 2150 3084 
Q 2853 3084 3261 2657 
Q 3669 2231 3669 1497 
Q 3669 778 3244 343 
Q 2819 -91 2113 -91 
Q 1303 -91 875 529 
Q 447 1150 447 2328 
Q 447 3434 972 4092 
Q 1497 4750 2381 4750 
Q 2619 4750 2861 4703 
Q 3103 4656 3366 4563 
z
" transform="scale(0.015625)"/>
       </defs>
       <use xlink:href="#DejaVuSans-36"/>
       <use xlink:href="#DejaVuSans-30" transform="translate(63.623047 0)"/>
       <use xlink:href="#DejaVuSans-30" transform="translate(127.246094 0)"/>
       <use xlink:href="#DejaVuSans-30" transform="translate(190.869141 0)"/>
       <use xlink:href="#DejaVuSans-30" transform="translate(254.492188 0)"/>
      </g>
     </g>
    </g>
    <g id="xtick_4">
     <g id="line2d_4">
      <g>
       <use xlink:href="#m7b2f889425" x="201.421927" y="228.96" style="stroke: #000000; stroke-width: 0.8"/>
      </g>
     </g>
     <g id="text_4">
      <!-- 80000 -->
      <g transform="translate(185.515677 243.558437) scale(0.1 -0.1)">
       <defs>
        <path id="DejaVuSans-38" d="M 2034 2216 
Q 1584 2216 1326 1975 
Q 1069 1734 1069 1313 
Q 1069 891 1326 650 
Q 1584 409 2034 409 
Q 2484 409 2743 651 
Q 3003 894 3003 1313 
Q 3003 1734 2745 1975 
Q 2488 2216 2034 2216 
z
M 1403 2484 
Q 997 2584 770 2862 
Q 544 3141 544 3541 
Q 544 4100 942 4425 
Q 1341 4750 2034 4750 
Q 2731 4750 3128 4425 
Q 3525 4100 3525 3541 
Q 3525 3141 3298 2862 
Q 3072 2584 2669 2484 
Q 3125 2378 3379 2068 
Q 3634 1759 3634 1313 
Q 3634 634 3220 271 
Q 2806 -91 2034 -91 
Q 1263 -91 848 271 
Q 434 634 434 1313 
Q 434 1759 690 2068 
Q 947 2378 1403 2484 
z
M 1172 3481 
Q 1172 3119 1398 2916 
Q 1625 2713 2034 2713 
Q 2441 2713 2670 2916 
Q 2900 3119 2900 3481 
Q 2900 3844 2670 4047 
Q 2441 4250 2034 4250 
Q 1625 4250 1398 4047 
Q 1172 3844 1172 3481 
z
" transform="scale(0.015625)"/>
       </defs>
       <use xlink:href="#DejaVuSans-38"/>
       <use xlink:href="#DejaVuSans-30" transform="translate(63.623047 0)"/>
       <use xlink:href="#DejaVuSans-30" transform="translate(127.246094 0)"/>
       <use xlink:href="#DejaVuSans-30" transform="translate(190.869141 0)"/>
       <use xlink:href="#DejaVuSans-30" transform="translate(254.492188 0)"/>
      </g>
     </g>
    </g>
    <g id="xtick_5">
     <g id="line2d_5">
      <g>
       <use xlink:href="#m7b2f889425" x="242.13947" y="228.96" style="stroke: #000000; stroke-width: 0.8"/>
      </g>
     </g>
     <g id="text_5">
      <!-- 100000 -->
      <g transform="translate(223.05197 243.558437) scale(0.1 -0.1)">
       <defs>
        <path id="DejaVuSans-31" d="M 794 531 
L 1825 531 
L 1825 4091 
L 703 3866 
L 703 4441 
L 1819 4666 
L 2450 4666 
L 2450 531 
L 3481 531 
L 3481 0 
L 794 0 
L 794 531 
z
" transform="scale(0.015625)"/>
       </defs>
       <use xlink:href="#DejaVuSans-31"/>
       <use xlink:href="#DejaVuSans-30" transform="translate(63.623047 0)"/>
       <use xlink:href="#DejaVuSans-30" transform="translate(127.246094 0)"/>
       <use xlink:href="#DejaVuSans-30" transform="translate(190.869141 0)"/>
       <use xlink:href="#DejaVuSans-30" transform="translate(254.492188 0)"/>
       <use xlink:href="#DejaVuSans-30" transform="translate(318.115234 0)"/>
      </g>
     </g>
    </g>
    <g id="xtick_6">
     <g id="line2d_6">
      <g>
       <use xlink:href="#m7b2f889425" x="282.857013" y="228.96" style="stroke: #000000; stroke-width: 0.8"/>
      </g>
     </g>
     <g id="text_6">
      <!-- 120000 -->
      <g transform="translate(263.769513 243.558437) scale(0.1 -0.1)">
       <use xlink:href="#DejaVuSans-31"/>
       <use xlink:href="#DejaVuSans-32" transform="translate(63.623047 0)"/>
       <use xlink:href="#DejaVuSans-30" transform="translate(127.246094 0)"/>
       <use xlink:href="#DejaVuSans-30" transform="translate(190.869141 0)"/>
       <use xlink:href="#DejaVuSans-30" transform="translate(254.492188 0)"/>
       <use xlink:href="#DejaVuSans-30" transform="translate(318.115234 0)"/>
      </g>
     </g>
    </g>
    <g id="xtick_7">
     <g id="line2d_7">
      <g>
       <use xlink:href="#m7b2f889425" x="323.574557" y="228.96" style="stroke: #000000; stroke-width: 0.8"/>
      </g>
     </g>
     <g id="text_7">
      <!-- 140000 -->
      <g transform="translate(304.487057 243.558437) scale(0.1 -0.1)">
       <use xlink:href="#DejaVuSans-31"/>
       <use xlink:href="#DejaVuSans-34" transform="translate(63.623047 0)"/>
       <use xlink:href="#DejaVuSans-30" transform="translate(127.246094 0)"/>
       <use xlink:href="#DejaVuSans-30" transform="translate(190.869141 0)"/>
       <use xlink:href="#DejaVuSans-30" transform="translate(254.492188 0)"/>
       <use xlink:href="#DejaVuSans-30" transform="translate(318.115234 0)"/>
      </g>
     </g>
    </g>
    <g id="xtick_8">
     <g id="line2d_8">
      <g>
       <use xlink:href="#m7b2f889425" x="364.2921" y="228.96" style="stroke: #000000; stroke-width: 0.8"/>
      </g>
     </g>
     <g id="text_8">
      <!-- 160000 -->
      <g transform="translate(345.2046 243.558437) scale(0.1 -0.1)">
       <use xlink:href="#DejaVuSans-31"/>
       <use xlink:href="#DejaVuSans-36" transform="translate(63.623047 0)"/>
       <use xlink:href="#DejaVuSans-30" transform="translate(127.246094 0)"/>
       <use xlink:href="#DejaVuSans-30" transform="translate(190.869141 0)"/>
       <use xlink:href="#DejaVuSans-30" transform="translate(254.492188 0)"/>
       <use xlink:href="#DejaVuSans-30" transform="translate(318.115234 0)"/>
      </g>
     </g>
    </g>
    <g id="text_9">
     <!-- tof [µs] -->
     <g transform="translate(209.034375 257.236562) scale(0.1 -0.1)">
      <defs>
       <path id="DejaVuSans-74" d="M 1172 4494 
L 1172 3500 
L 2356 3500 
L 2356 3053 
L 1172 3053 
L 1172 1153 
Q 1172 725 1289 603 
Q 1406 481 1766 481 
L 2356 481 
L 2356 0 
L 1766 0 
Q 1100 0 847 248 
Q 594 497 594 1153 
L 594 3053 
L 172 3053 
L 172 3500 
L 594 3500 
L 594 4494 
L 1172 4494 
z
" transform="scale(0.015625)"/>
       <path id="DejaVuSans-6f" d="M 1959 3097 
Q 1497 3097 1228 2736 
Q 959 2375 959 1747 
Q 959 1119 1226 758 
Q 1494 397 1959 397 
Q 2419 397 2687 759 
Q 2956 1122 2956 1747 
Q 2956 2369 2687 2733 
Q 2419 3097 1959 3097 
z
M 1959 3584 
Q 2709 3584 3137 3096 
Q 3566 2609 3566 1747 
Q 3566 888 3137 398 
Q 2709 -91 1959 -91 
Q 1206 -91 779 398 
Q 353 888 353 1747 
Q 353 2609 779 3096 
Q 1206 3584 1959 3584 
z
" transform="scale(0.015625)"/>
       <path id="DejaVuSans-66" d="M 2375 4863 
L 2375 4384 
L 1825 4384 
Q 1516 4384 1395 4259 
Q 1275 4134 1275 3809 
L 1275 3500 
L 2222 3500 
L 2222 3053 
L 1275 3053 
L 1275 0 
L 697 0 
L 697 3053 
L 147 3053 
L 147 3500 
L 697 3500 
L 697 3744 
Q 697 4328 969 4595 
Q 1241 4863 1831 4863 
L 2375 4863 
z
" transform="scale(0.015625)"/>
       <path id="DejaVuSans-20" transform="scale(0.015625)"/>
       <path id="DejaVuSans-5b" d="M 550 4863 
L 1875 4863 
L 1875 4416 
L 1125 4416 
L 1125 -397 
L 1875 -397 
L 1875 -844 
L 550 -844 
L 550 4863 
z
" transform="scale(0.015625)"/>
       <path id="DejaVuSans-b5" d="M 544 -1331 
L 544 3500 
L 1119 3500 
L 1119 1325 
Q 1119 872 1334 640 
Q 1550 409 1972 409 
Q 2434 409 2667 671 
Q 2900 934 2900 1459 
L 2900 3500 
L 3475 3500 
L 3475 806 
Q 3475 619 3529 530 
Q 3584 441 3700 441 
Q 3728 441 3778 458 
Q 3828 475 3916 513 
L 3916 50 
Q 3788 -22 3673 -56 
Q 3559 -91 3450 -91 
Q 3234 -91 3106 31 
Q 2978 153 2931 403 
Q 2775 156 2548 32 
Q 2322 -91 2016 -91 
Q 1697 -91 1473 31 
Q 1250 153 1119 397 
L 1119 -1331 
L 544 -1331 
z
" transform="scale(0.015625)"/>
       <path id="DejaVuSans-73" d="M 2834 3397 
L 2834 2853 
Q 2591 2978 2328 3040 
Q 2066 3103 1784 3103 
Q 1356 3103 1142 2972 
Q 928 2841 928 2578 
Q 928 2378 1081 2264 
Q 1234 2150 1697 2047 
L 1894 2003 
Q 2506 1872 2764 1633 
Q 3022 1394 3022 966 
Q 3022 478 2636 193 
Q 2250 -91 1575 -91 
Q 1294 -91 989 -36 
Q 684 19 347 128 
L 347 722 
Q 666 556 975 473 
Q 1284 391 1588 391 
Q 1994 391 2212 530 
Q 2431 669 2431 922 
Q 2431 1156 2273 1281 
Q 2116 1406 1581 1522 
L 1381 1569 
Q 847 1681 609 1914 
Q 372 2147 372 2553 
Q 372 3047 722 3315 
Q 1072 3584 1716 3584 
Q 2034 3584 2315 3537 
Q 2597 3491 2834 3397 
z
" transform="scale(0.015625)"/>
       <path id="DejaVuSans-5d" d="M 1947 4863 
L 1947 -844 
L 622 -844 
L 622 -397 
L 1369 -397 
L 1369 4416 
L 622 4416 
L 622 4863 
L 1947 4863 
z
" transform="scale(0.015625)"/>
      </defs>
      <use xlink:href="#DejaVuSans-74"/>
      <use xlink:href="#DejaVuSans-6f" transform="translate(39.208984 0)"/>
      <use xlink:href="#DejaVuSans-66" transform="translate(100.390625 0)"/>
      <use xlink:href="#DejaVuSans-20" transform="translate(135.595703 0)"/>
      <use xlink:href="#DejaVuSans-5b" transform="translate(167.382812 0)"/>
      <use xlink:href="#DejaVuSans-b5" transform="translate(206.396484 0)"/>
      <use xlink:href="#DejaVuSans-73" transform="translate(270.019531 0)"/>
      <use xlink:href="#DejaVuSans-5d" transform="translate(322.119141 0)"/>
     </g>
    </g>
   </g>
   <g id="matplotlib.axis_2">
    <g id="ytick_1">
     <g id="line2d_9">
      <defs>
       <path id="mda0488a5ef" d="M 0 0 
L -3.5 0 
" style="stroke: #000000; stroke-width: 0.8"/>
      </defs>
      <g>
       <use xlink:href="#mda0488a5ef" x="59.690625" y="218.88" style="stroke: #000000; stroke-width: 0.8"/>
      </g>
     </g>
     <g id="text_10">
      <!-- 0 -->
      <g transform="translate(46.328125 222.679219) scale(0.1 -0.1)">
       <use xlink:href="#DejaVuSans-30"/>
      </g>
     </g>
    </g>
    <g id="ytick_2">
     <g id="line2d_10">
      <g>
       <use xlink:href="#mda0488a5ef" x="59.690625" y="186.242797" style="stroke: #000000; stroke-width: 0.8"/>
      </g>
     </g>
     <g id="text_11">
      <!-- 2000 -->
      <g transform="translate(27.240625 190.042016) scale(0.1 -0.1)">
       <use xlink:href="#DejaVuSans-32"/>
       <use xlink:href="#DejaVuSans-30" transform="translate(63.623047 0)"/>
       <use xlink:href="#DejaVuSans-30" transform="translate(127.246094 0)"/>
       <use xlink:href="#DejaVuSans-30" transform="translate(190.869141 0)"/>
      </g>
     </g>
    </g>
    <g id="ytick_3">
     <g id="line2d_11">
      <g>
       <use xlink:href="#mda0488a5ef" x="59.690625" y="153.605595" style="stroke: #000000; stroke-width: 0.8"/>
      </g>
     </g>
     <g id="text_12">
      <!-- 4000 -->
      <g transform="translate(27.240625 157.404814) scale(0.1 -0.1)">
       <use xlink:href="#DejaVuSans-34"/>
       <use xlink:href="#DejaVuSans-30" transform="translate(63.623047 0)"/>
       <use xlink:href="#DejaVuSans-30" transform="translate(127.246094 0)"/>
       <use xlink:href="#DejaVuSans-30" transform="translate(190.869141 0)"/>
      </g>
     </g>
    </g>
    <g id="ytick_4">
     <g id="line2d_12">
      <g>
       <use xlink:href="#mda0488a5ef" x="59.690625" y="120.968392" style="stroke: #000000; stroke-width: 0.8"/>
      </g>
     </g>
     <g id="text_13">
      <!-- 6000 -->
      <g transform="translate(27.240625 124.767611) scale(0.1 -0.1)">
       <use xlink:href="#DejaVuSans-36"/>
       <use xlink:href="#DejaVuSans-30" transform="translate(63.623047 0)"/>
       <use xlink:href="#DejaVuSans-30" transform="translate(127.246094 0)"/>
       <use xlink:href="#DejaVuSans-30" transform="translate(190.869141 0)"/>
      </g>
     </g>
    </g>
    <g id="ytick_5">
     <g id="line2d_13">
      <g>
       <use xlink:href="#mda0488a5ef" x="59.690625" y="88.33119" style="stroke: #000000; stroke-width: 0.8"/>
      </g>
     </g>
     <g id="text_14">
      <!-- 8000 -->
      <g transform="translate(27.240625 92.130409) scale(0.1 -0.1)">
       <use xlink:href="#DejaVuSans-38"/>
       <use xlink:href="#DejaVuSans-30" transform="translate(63.623047 0)"/>
       <use xlink:href="#DejaVuSans-30" transform="translate(127.246094 0)"/>
       <use xlink:href="#DejaVuSans-30" transform="translate(190.869141 0)"/>
      </g>
     </g>
    </g>
    <g id="ytick_6">
     <g id="line2d_14">
      <g>
       <use xlink:href="#mda0488a5ef" x="59.690625" y="55.693987" style="stroke: #000000; stroke-width: 0.8"/>
      </g>
     </g>
     <g id="text_15">
      <!-- 10000 -->
      <g transform="translate(20.878125 59.493206) scale(0.1 -0.1)">
       <use xlink:href="#DejaVuSans-31"/>
       <use xlink:href="#DejaVuSans-30" transform="translate(63.623047 0)"/>
       <use xlink:href="#DejaVuSans-30" transform="translate(127.246094 0)"/>
       <use xlink:href="#DejaVuSans-30" transform="translate(190.869141 0)"/>
       <use xlink:href="#DejaVuSans-30" transform="translate(254.492188 0)"/>
      </g>
     </g>
    </g>
    <g id="ytick_7">
     <g id="line2d_15">
      <g>
       <use xlink:href="#mda0488a5ef" x="59.690625" y="23.056785" style="stroke: #000000; stroke-width: 0.8"/>
      </g>
     </g>
     <g id="text_16">
      <!-- 12000 -->
      <g transform="translate(20.878125 26.856004) scale(0.1 -0.1)">
       <use xlink:href="#DejaVuSans-31"/>
       <use xlink:href="#DejaVuSans-32" transform="translate(63.623047 0)"/>
       <use xlink:href="#DejaVuSans-30" transform="translate(127.246094 0)"/>
       <use xlink:href="#DejaVuSans-30" transform="translate(190.869141 0)"/>
       <use xlink:href="#DejaVuSans-30" transform="translate(254.492188 0)"/>
      </g>
     </g>
    </g>
    <g id="text_17">
     <!-- [counts] -->
     <g transform="translate(14.798438 138.6925) rotate(-90) scale(0.1 -0.1)">
      <defs>
       <path id="DejaVuSans-63" d="M 3122 3366 
L 3122 2828 
Q 2878 2963 2633 3030 
Q 2388 3097 2138 3097 
Q 1578 3097 1268 2742 
Q 959 2388 959 1747 
Q 959 1106 1268 751 
Q 1578 397 2138 397 
Q 2388 397 2633 464 
Q 2878 531 3122 666 
L 3122 134 
Q 2881 22 2623 -34 
Q 2366 -91 2075 -91 
Q 1284 -91 818 406 
Q 353 903 353 1747 
Q 353 2603 823 3093 
Q 1294 3584 2113 3584 
Q 2378 3584 2631 3529 
Q 2884 3475 3122 3366 
z
" transform="scale(0.015625)"/>
       <path id="DejaVuSans-75" d="M 544 1381 
L 544 3500 
L 1119 3500 
L 1119 1403 
Q 1119 906 1312 657 
Q 1506 409 1894 409 
Q 2359 409 2629 706 
Q 2900 1003 2900 1516 
L 2900 3500 
L 3475 3500 
L 3475 0 
L 2900 0 
L 2900 538 
Q 2691 219 2414 64 
Q 2138 -91 1772 -91 
Q 1169 -91 856 284 
Q 544 659 544 1381 
z
M 1991 3584 
L 1991 3584 
z
" transform="scale(0.015625)"/>
       <path id="DejaVuSans-6e" d="M 3513 2113 
L 3513 0 
L 2938 0 
L 2938 2094 
Q 2938 2591 2744 2837 
Q 2550 3084 2163 3084 
Q 1697 3084 1428 2787 
Q 1159 2491 1159 1978 
L 1159 0 
L 581 0 
L 581 3500 
L 1159 3500 
L 1159 2956 
Q 1366 3272 1645 3428 
Q 1925 3584 2291 3584 
Q 2894 3584 3203 3211 
Q 3513 2838 3513 2113 
z
" transform="scale(0.015625)"/>
      </defs>
      <use xlink:href="#DejaVuSans-5b"/>
      <use xlink:href="#DejaVuSans-63" transform="translate(39.013672 0)"/>
      <use xlink:href="#DejaVuSans-6f" transform="translate(93.994141 0)"/>
      <use xlink:href="#DejaVuSans-75" transform="translate(155.175781 0)"/>
      <use xlink:href="#DejaVuSans-6e" transform="translate(218.554688 0)"/>
      <use xlink:href="#DejaVuSans-74" transform="translate(281.933594 0)"/>
      <use xlink:href="#DejaVuSans-73" transform="translate(321.142578 0)"/>
      <use xlink:href="#DejaVuSans-5d" transform="translate(373.242188 0)"/>
     </g>
    </g>
   </g>
   <g id="line2d_16">
    <path d="M 74.908807 218.782088 
L 77.962623 218.814726 
L 77.962623 218.472035 
L 78.980561 218.472035 
L 78.980561 218.308849 
L 79.9985 218.308849 
L 79.9985 218.439398 
L 82.034377 218.439398 
L 82.034377 218.243575 
L 84.070254 218.259893 
L 84.070254 217.656105 
L 85.088193 217.656105 
L 85.088193 217.966158 
L 86.106131 217.966158 
L 86.106131 217.378689 
L 88.142008 217.460282 
L 88.142008 216.54644 
L 89.159947 216.54644 
L 89.159947 216.415891 
L 90.177886 216.415891 
L 90.177886 216.220068 
L 91.195824 216.220068 
L 91.195824 215.371501 
L 92.213763 215.371501 
L 92.213763 213.935464 
L 93.231701 213.935464 
L 93.231701 213.592773 
L 94.24964 213.592773 
L 94.24964 211.667178 
L 95.267578 211.667178 
L 95.267578 210.541195 
L 96.285517 210.541195 
L 96.285517 208.876697 
L 97.303456 208.876697 
L 97.303456 205.221331 
L 98.321394 205.221331 
L 98.321394 202.822496 
L 99.339333 202.822496 
L 99.339333 198.644934 
L 100.357271 198.644934 
L 100.357271 194.255231 
L 101.37521 194.255231 
L 101.37521 186.650763 
L 102.393149 186.650763 
L 102.393149 180.531287 
L 103.411087 180.531287 
L 103.411087 174.526042 
L 104.429026 174.526042 
L 104.429026 168.781894 
L 105.446964 168.781894 
L 105.446964 163.054065 
L 106.464903 163.054065 
L 106.464903 157.995299 
L 107.482841 157.995299 
L 107.482841 147.518757 
L 108.50078 147.518757 
L 108.50078 137.646003 
L 109.518719 137.646003 
L 109.518719 130.56373 
L 110.536657 130.56373 
L 110.536657 120.038232 
L 111.554596 120.038232 
L 111.554596 111.160913 
L 112.572534 111.160913 
L 112.572534 101.712443 
L 113.590473 101.712443 
L 113.590473 90.681068 
L 114.608412 90.681068 
L 114.608412 79.045906 
L 115.62635 79.045906 
L 115.62635 67.671841 
L 116.644289 67.671841 
L 116.644289 61.454454 
L 117.662227 61.454454 
L 117.662227 51.092142 
L 118.680166 51.092142 
L 118.680166 49.117591 
L 119.698104 49.117591 
L 119.698104 38.804235 
L 120.716043 38.804235 
L 120.716043 43.552948 
L 121.733982 43.552948 
L 121.733982 38.934784 
L 122.75192 38.934784 
L 122.75192 34.496124 
L 123.769859 34.496124 
L 123.769859 30.449111 
L 124.787797 30.449111 
L 124.787797 28.409286 
L 125.805736 28.409286 
L 125.805736 29.225216 
L 126.823675 29.225216 
L 126.823675 24.117494 
L 127.841613 24.117494 
L 127.841613 28.13187 
L 128.859552 28.13187 
L 128.859552 32.113609 
L 129.87749 32.113609 
L 129.87749 27.462807 
L 130.895429 27.462807 
L 130.895429 22.208218 
L 131.913367 22.208218 
L 131.913367 25.79831 
L 132.931306 25.79831 
L 132.931306 17.28 
L 133.949245 17.28 
L 133.949245 25.847266 
L 134.967183 25.847266 
L 134.967183 30.987625 
L 135.985122 30.987625 
L 135.985122 23.595299 
L 137.00306 23.595299 
L 137.00306 30.595979 
L 138.020999 30.595979 
L 138.020999 20.037844 
L 139.038938 20.037844 
L 139.038938 32.048334 
L 140.056876 32.048334 
L 140.056876 28.670384 
L 141.074815 28.670384 
L 141.074815 29.780049 
L 142.092753 29.780049 
L 142.092753 35.393647 
L 143.110692 35.393647 
L 143.110692 49.819291 
L 144.12863 49.819291 
L 144.12863 49.084954 
L 145.146569 49.084954 
L 145.146569 48.105838 
L 146.164508 48.105838 
L 146.164508 65.958388 
L 147.182446 65.958388 
L 147.182446 57.260573 
L 148.200385 57.260573 
L 148.200385 57.440078 
L 149.218323 57.440078 
L 149.218323 73.171209 
L 150.236262 73.171209 
L 150.236262 64.261253 
L 151.254201 64.261253 
L 151.254201 74.590928 
L 152.272139 74.590928 
L 152.272139 91.431724 
L 153.290078 91.431724 
L 153.290078 86.519825 
L 154.308016 86.519825 
L 154.308016 84.70846 
L 155.325955 84.70846 
L 155.325955 85.312249 
L 156.343893 85.312249 
L 156.343893 94.466984 
L 157.361832 94.466984 
L 157.361832 96.882137 
L 158.379771 96.882137 
L 158.379771 100.064264 
L 159.397709 100.064264 
L 159.397709 103.866498 
L 160.415648 103.866498 
L 160.415648 105.465721 
L 161.433586 105.465721 
L 161.433586 107.685051 
L 162.451525 107.685051 
L 162.451525 107.946149 
L 163.469464 107.946149 
L 163.469464 110.296027 
L 164.487402 110.296027 
L 164.487402 118.30846 
L 165.505341 118.30846 
L 165.505341 119.303895 
L 166.523279 119.303895 
L 166.523279 116.986654 
L 167.541218 116.986654 
L 167.541218 125.031724 
L 168.559156 125.031724 
L 168.559156 126.794133 
L 169.577095 126.794133 
L 169.577095 120.266693 
L 170.595034 120.266693 
L 170.595034 125.374415 
L 171.612972 125.374415 
L 171.612972 134.790248 
L 172.630911 134.790248 
L 172.630911 132.799378 
L 173.648849 132.799378 
L 173.648849 134.349645 
L 174.666788 134.349645 
L 174.666788 136.650568 
L 175.684727 136.650568 
L 175.684727 138.282428 
L 176.702665 138.282428 
L 176.702665 139.718465 
L 177.720604 139.718465 
L 177.720604 145.691073 
L 178.738542 145.691073 
L 178.738542 148.155182 
L 179.756481 148.155182 
L 179.756481 144.760913 
L 180.774419 144.760913 
L 180.774419 146.670189 
L 181.792358 146.670189 
L 181.792358 154.927402 
L 182.810297 154.927402 
L 182.810297 148.040952 
L 183.828235 148.040952 
L 183.828235 149.199573 
L 184.846174 149.199573 
L 184.846174 155.008995 
L 185.864112 155.008995 
L 185.864112 158.289034 
L 186.882051 158.289034 
L 186.882051 158.827547 
L 187.89999 158.827547 
L 187.89999 157.39151 
L 188.917928 157.39151 
L 188.917928 158.90914 
L 189.935867 158.90914 
L 189.935867 161.210063 
L 190.953805 161.210063 
L 190.953805 164.669607 
L 191.971744 164.669607 
L 191.971744 165.240758 
L 192.989682 165.240758 
L 192.989682 163.984225 
L 194.007621 163.984225 
L 194.007621 168.488159 
L 195.02556 168.488159 
L 195.02556 169.483594 
L 196.043498 169.483594 
L 196.043498 169.124585 
L 197.061437 169.124585 
L 197.061437 169.663099 
L 198.079375 169.663099 
L 198.079375 173.253191 
L 199.097314 173.253191 
L 199.097314 178.834153 
L 200.115253 178.834153 
L 200.115253 174.656591 
L 201.133191 174.656591 
L 201.133191 178.540418 
L 202.15113 178.540418 
L 202.15113 180.890296 
L 203.169068 180.890296 
L 203.169068 184.398796 
L 204.187007 184.398796 
L 204.187007 186.161204 
L 205.204945 186.161204 
L 205.204945 187.107683 
L 206.222884 187.107683 
L 206.222884 186.928179 
L 207.240823 186.928179 
L 207.240823 191.954308 
L 208.258761 191.954308 
L 208.258761 190.53459 
L 209.2767 190.53459 
L 209.2767 193.68408 
L 210.294638 193.68408 
L 210.294638 194.043089 
L 211.312577 194.043089 
L 211.312577 196.458242 
L 212.330516 196.458242 
L 212.330516 197.453677 
L 213.348454 197.453677 
L 213.348454 195.756542 
L 214.366393 195.756542 
L 214.366393 200.09729 
L 215.384331 200.09729 
L 215.384331 199.216085 
L 216.40227 199.216085 
L 216.40227 203.034638 
L 217.420208 203.034638 
L 217.420208 202.65931 
L 218.438147 202.65931 
L 218.438147 204.274852 
L 219.456086 204.274852 
L 219.456086 203.866887 
L 220.474024 203.866887 
L 220.474024 205.743526 
L 221.491963 205.743526 
L 221.491963 206.298358 
L 222.509901 206.298358 
L 222.509901 208.468732 
L 223.52784 208.468732 
L 223.52784 208.925653 
L 224.545779 208.925653 
L 224.545779 208.403458 
L 225.563717 208.403458 
L 225.563717 210.753337 
L 226.581656 210.753337 
L 226.581656 210.312734 
L 227.599594 210.312734 
L 227.599594 212.026187 
L 228.617533 212.026187 
L 228.617533 212.58102 
L 229.635471 212.58102 
L 229.635471 212.923711 
L 230.65341 212.923711 
L 230.65341 214.114968 
L 232.689287 214.196561 
L 232.689287 215.355182 
L 234.725164 215.355182 
L 234.725164 216.007926 
L 235.743103 216.007926 
L 235.743103 217.117591 
L 236.761042 217.117591 
L 236.761042 216.954405 
L 237.77898 216.954405 
L 237.77898 217.737698 
L 238.796919 217.737698 
L 238.796919 218.031433 
L 239.814857 218.031433 
L 239.814857 218.227256 
L 240.832796 218.227256 
L 240.832796 218.488354 
L 241.850734 218.488354 
L 241.850734 218.684177 
L 242.868673 218.684177 
L 242.868673 218.88 
L 379.272443 218.88 
L 379.272443 218.88 
" clip-path="url(#p3af9504633)" style="fill: none; stroke: #1f77b4; stroke-width: 1.5; stroke-linecap: square"/>
   </g>
   <g id="line2d_17">
    <path d="M 74.908807 218.88 
L 104.429026 218.831044 
L 104.429026 218.586265 
L 106.464903 218.684177 
L 106.464903 218.406761 
L 107.482841 218.406761 
L 107.482841 218.65154 
L 112.572534 218.553628 
L 112.572534 218.423079 
L 113.590473 218.423079 
L 113.590473 218.276212 
L 117.662227 218.243575 
L 117.662227 218.031433 
L 118.680166 218.031433 
L 118.680166 218.194619 
L 119.698104 218.194619 
L 119.698104 217.819291 
L 121.733982 217.786654 
L 121.733982 217.280777 
L 122.75192 217.280777 
L 122.75192 217.607149 
L 124.787797 217.574512 
L 124.787797 217.215503 
L 125.805736 217.215503 
L 125.805736 216.66067 
L 126.823675 216.66067 
L 126.823675 216.366935 
L 127.841613 216.366935 
L 127.841613 216.823856 
L 128.859552 216.823856 
L 128.859552 216.056882 
L 129.87749 216.056882 
L 129.87749 215.045129 
L 130.895429 215.045129 
L 130.895429 215.583643 
L 131.913367 215.583643 
L 131.913367 214.539252 
L 132.931306 214.539252 
L 132.931306 213.62541 
L 133.949245 213.62541 
L 133.949245 213.886508 
L 134.967183 213.886508 
L 134.967183 212.417834 
L 135.985122 212.417834 
L 135.985122 211.552948 
L 138.020999 211.471355 
L 138.020999 209.43153 
L 139.038938 209.43153 
L 139.038938 208.338184 
L 140.056876 208.338184 
L 140.056876 207.505935 
L 141.074815 207.505935 
L 141.074815 205.041826 
L 142.092753 205.041826 
L 142.092753 203.409966 
L 143.110692 203.409966 
L 143.110692 200.668441 
L 144.12863 200.668441 
L 144.12863 197.975872 
L 145.146569 197.975872 
L 145.146569 195.821816 
L 146.164508 195.821816 
L 146.164508 193.830947 
L 147.182446 193.830947 
L 147.182446 192.721282 
L 148.200385 192.721282 
L 148.200385 190.87728 
L 149.218323 190.87728 
L 149.218323 186.308072 
L 150.236262 186.308072 
L 150.236262 185.459505 
L 151.254201 185.459505 
L 151.254201 184.398796 
L 152.272139 184.398796 
L 152.272139 179.013657 
L 153.290078 179.013657 
L 153.290078 179.535852 
L 154.308016 179.535852 
L 154.308016 174.297581 
L 155.325955 174.297581 
L 155.325955 169.189859 
L 156.343893 169.189859 
L 156.343893 168.60239 
L 157.361832 168.60239 
L 157.361832 165.09389 
L 158.379771 165.09389 
L 158.379771 159.38238 
L 159.397709 159.38238 
L 159.397709 159.170238 
L 160.415648 159.170238 
L 160.415648 154.976357 
L 161.433586 154.976357 
L 161.433586 150.880389 
L 162.451525 150.880389 
L 162.451525 146.866013 
L 163.469464 146.866013 
L 163.469464 142.378397 
L 164.487402 142.378397 
L 164.487402 140.59967 
L 165.505341 140.59967 
L 165.505341 135.247169 
L 166.523279 135.247169 
L 166.523279 133.321574 
L 167.541218 133.321574 
L 167.541218 127.659019 
L 168.559156 127.659019 
L 168.559156 123.938378 
L 169.577095 123.938378 
L 169.577095 119.956639 
L 170.595034 119.956639 
L 170.595034 119.075435 
L 171.612972 119.075435 
L 171.612972 116.546051 
L 172.630911 116.546051 
L 172.630911 116.138086 
L 173.648849 116.138086 
L 173.648849 114.522545 
L 175.684727 114.538864 
L 175.684727 113.739252 
L 176.702665 113.739252 
L 176.702665 107.554502 
L 177.720604 107.554502 
L 177.720604 110.589762 
L 178.738542 110.589762 
L 178.738542 111.862613 
L 179.756481 111.862613 
L 179.756481 105.449403 
L 180.774419 105.449403 
L 180.774419 104.372375 
L 181.792358 104.372375 
L 181.792358 105.188305 
L 182.810297 105.188305 
L 182.810297 105.955279 
L 183.828235 105.955279 
L 183.828235 103.213754 
L 184.846174 103.213754 
L 184.846174 103.621719 
L 185.864112 103.621719 
L 185.864112 104.258145 
L 187.89999 104.160233 
L 187.89999 101.810355 
L 188.917928 101.810355 
L 188.917928 110.524488 
L 189.935867 110.524488 
L 189.935867 104.19287 
L 190.953805 104.19287 
L 190.953805 96.457853 
L 191.971744 96.457853 
L 191.971744 108.419388 
L 192.989682 108.419388 
L 192.989682 102.642603 
L 194.007621 102.642603 
L 194.007621 100.178494 
L 195.02556 100.178494 
L 195.02556 99.215697 
L 196.043498 99.215697 
L 196.043498 105.090393 
L 197.061437 105.090393 
L 197.061437 105.449403 
L 198.079375 105.449403 
L 198.079375 101.04338 
L 199.097314 101.04338 
L 199.097314 105.351491 
L 200.115253 105.351491 
L 200.115253 107.162856 
L 201.133191 107.162856 
L 201.133191 98.285537 
L 202.15113 98.285537 
L 202.15113 102.871064 
L 203.169068 102.871064 
L 203.169068 103.882817 
L 204.187007 103.882817 
L 204.187007 103.523808 
L 205.204945 103.523808 
L 205.204945 107.587139 
L 206.222884 107.587139 
L 206.222884 106.787528 
L 207.240823 106.787528 
L 207.240823 97.681748 
L 208.258761 97.681748 
L 208.258761 108.403069 
L 209.2767 108.403069 
L 209.2767 109.871744 
L 210.294638 109.871744 
L 210.294638 110.230753 
L 211.312577 110.230753 
L 211.312577 116.138086 
L 212.330516 116.138086 
L 212.330516 108.957902 
L 213.348454 108.957902 
L 213.348454 113.004915 
L 214.366393 113.004915 
L 214.366393 117.247751 
L 215.384331 117.247751 
L 215.384331 115.795396 
L 216.40227 115.795396 
L 216.40227 123.122448 
L 217.420208 123.122448 
L 217.420208 116.154405 
L 218.438147 116.154405 
L 218.438147 123.187722 
L 219.456086 123.187722 
L 219.456086 122.388111 
L 220.474024 122.388111 
L 220.474024 126.663584 
L 221.491963 126.663584 
L 221.491963 125.031724 
L 222.509901 125.031724 
L 222.509901 130.596367 
L 223.52784 130.596367 
L 223.52784 125.276503 
L 224.545779 125.276503 
L 224.545779 124.96645 
L 225.563717 124.96645 
L 225.563717 131.49389 
L 226.581656 131.49389 
L 226.581656 133.158388 
L 227.599594 133.158388 
L 227.599594 134.398601 
L 228.617533 134.398601 
L 228.617533 139.130996 
L 229.635471 139.130996 
L 229.635471 133.321574 
L 230.65341 133.321574 
L 230.65341 142.508946 
L 231.671349 142.508946 
L 231.671349 138.902535 
L 232.689287 138.902535 
L 232.689287 143.683885 
L 233.707226 143.683885 
L 233.707226 142.166255 
L 234.725164 142.166255 
L 234.725164 140.648626 
L 235.743103 140.648626 
L 235.743103 141.187139 
L 236.761042 141.187139 
L 236.761042 144.973055 
L 237.77898 144.973055 
L 237.77898 148.807926 
L 238.796919 148.807926 
L 238.796919 152.087965 
L 239.814857 152.087965 
L 239.814857 144.173443 
L 241.850734 144.206081 
L 241.850734 154.486799 
L 242.868673 154.486799 
L 242.868673 156.281846 
L 243.886612 156.281846 
L 243.886612 149.835998 
L 244.90455 149.835998 
L 244.90455 150.961982 
L 245.922489 150.961982 
L 245.922489 151.777912 
L 246.940427 151.777912 
L 246.940427 155.824925 
L 247.958366 155.824925 
L 247.958366 158.827547 
L 248.976305 158.827547 
L 248.976305 155.123225 
L 249.994243 155.123225 
L 249.994243 154.731578 
L 251.012182 154.731578 
L 251.012182 160.181991 
L 252.03012 160.181991 
L 252.03012 162.727693 
L 253.048059 162.727693 
L 253.048059 159.72507 
L 254.065997 159.72507 
L 254.065997 162.858242 
L 255.083936 162.858242 
L 255.083936 157.86475 
L 256.101875 157.86475 
L 256.101875 163.168295 
L 257.119813 163.168295 
L 257.119813 164.033181 
L 258.137752 164.033181 
L 258.137752 161.487479 
L 259.15569 161.487479 
L 259.15569 166.774706 
L 260.173629 166.774706 
L 260.173629 166.317785 
L 261.191568 166.317785 
L 261.191568 164.016863 
L 262.209506 164.016863 
L 262.209506 170.772763 
L 263.227445 170.772763 
L 263.227445 165.811909 
L 264.245383 165.811909 
L 264.245383 165.926139 
L 265.263322 165.926139 
L 265.263322 167.133715 
L 266.28126 167.133715 
L 266.28126 170.674852 
L 267.299199 170.674852 
L 267.299199 172.79627 
L 268.317138 172.79627 
L 268.317138 173.155279 
L 269.335076 173.155279 
L 269.335076 173.334784 
L 270.353015 173.334784 
L 270.353015 171.915066 
L 271.370953 171.915066 
L 271.370953 171.572375 
L 272.388892 171.572375 
L 272.388892 175.293016 
L 273.406831 175.293016 
L 273.406831 173.938572 
L 274.424769 173.938572 
L 274.424769 174.689228 
L 275.442708 174.689228 
L 275.442708 180.368101 
L 276.460646 180.368101 
L 276.460646 176.467955 
L 277.478585 176.467955 
L 277.478585 178.475143 
L 278.496523 178.475143 
L 278.496523 179.144206 
L 279.514462 179.144206 
L 279.514462 176.206858 
L 280.532401 176.206858 
L 280.532401 177.903992 
L 281.550339 177.903992 
L 281.550339 177.773443 
L 282.568278 177.773443 
L 282.568278 179.078932 
L 283.586216 179.078932 
L 283.586216 183.53391 
L 284.604155 183.53391 
L 284.604155 182.293696 
L 285.622094 182.293696 
L 285.622094 180.857659 
L 286.640032 180.857659 
L 286.640032 181.755182 
L 287.657971 181.755182 
L 287.657971 184.333521 
L 288.675909 184.333521 
L 288.675909 181.918368 
L 289.693848 181.918368 
L 289.693848 183.746051 
L 290.711786 183.746051 
L 290.711786 185.002584 
L 291.729725 185.002584 
L 291.729725 181.249305 
L 292.747664 181.249305 
L 292.747664 189.327013 
L 293.765602 189.327013 
L 293.765602 182.342652 
L 294.783541 182.342652 
L 294.783541 189.13119 
L 295.801479 189.13119 
L 295.801479 186.879223 
L 296.819418 186.879223 
L 296.819418 186.552851 
L 297.837357 186.552851 
L 297.837357 189.163827 
L 298.855295 189.163827 
L 298.855295 187.172958 
L 299.873234 187.172958 
L 299.873234 190.273492 
L 300.891172 190.273492 
L 300.891172 189.212783 
L 301.909111 189.212783 
L 301.909111 190.012394 
L 302.927049 190.012394 
L 302.927049 190.567227 
L 303.944988 190.567227 
L 303.944988 190.159262 
L 305.980865 190.191899 
L 305.980865 192.590733 
L 306.998804 192.590733 
L 306.998804 194.010452 
L 308.016742 194.010452 
L 308.016742 193.276115 
L 309.034681 193.276115 
L 309.034681 194.761107 
L 310.05262 194.761107 
L 310.05262 196.278737 
L 311.070558 196.278737 
L 311.070558 195.772861 
L 312.088497 195.772861 
L 312.088497 198.318562 
L 313.106435 198.318562 
L 313.106435 194.924293 
L 314.124374 194.924293 
L 314.124374 196.523516 
L 315.142312 196.523516 
L 315.142312 201.794424 
L 316.160251 201.794424 
L 316.160251 198.514386 
L 318.196128 198.432793 
L 318.196128 202.577717 
L 319.214067 202.577717 
L 319.214067 200.09729 
L 320.232005 200.09729 
L 320.232005 201.272229 
L 321.249944 201.272229 
L 321.249944 204.013754 
L 322.267883 204.013754 
L 322.267883 201.565964 
L 323.285821 201.565964 
L 323.285821 205.123419 
L 324.30376 205.123419 
L 324.30376 200.962176 
L 325.321698 200.962176 
L 325.321698 205.792482 
L 326.339637 205.792482 
L 326.339637 203.915843 
L 327.357575 203.915843 
L 327.357575 204.960233 
L 328.375514 204.960233 
L 328.375514 207.293793 
L 329.393453 207.293793 
L 329.393453 205.335561 
L 330.411391 205.335561 
L 330.411391 205.090782 
L 331.42933 205.090782 
L 331.42933 206.641049 
L 332.447268 206.641049 
L 332.447268 207.032695 
L 333.465207 207.032695 
L 333.465207 207.881263 
L 334.483146 207.881263 
L 334.483146 208.338184 
L 335.501084 208.338184 
L 335.501084 209.219388 
L 336.519023 209.219388 
L 336.519023 209.333618 
L 337.536961 209.333618 
L 337.536961 210.084274 
L 338.5549 210.084274 
L 338.5549 207.995493 
L 339.572838 207.995493 
L 339.572838 210.753337 
L 340.590777 210.753337 
L 340.590777 210.867567 
L 341.608716 210.867567 
L 341.608716 209.594716 
L 342.626654 209.594716 
L 342.626654 211.683497 
L 343.644593 211.683497 
L 343.644593 211.17762 
L 344.662531 211.17762 
L 344.662531 212.319922 
L 345.68047 212.319922 
L 345.68047 212.042506 
L 346.698409 212.042506 
L 346.698409 212.515746 
L 347.716347 212.515746 
L 347.716347 212.189373 
L 348.734286 212.189373 
L 348.734286 214.114968 
L 349.752224 214.114968 
L 349.752224 213.086897 
L 350.770163 213.086897 
L 350.770163 213.641729 
L 351.788101 213.641729 
L 351.788101 213.527499 
L 352.80604 213.527499 
L 352.80604 214.44134 
L 353.823979 214.44134 
L 353.823979 214.229199 
L 354.841917 214.229199 
L 354.841917 215.02881 
L 355.859856 215.02881 
L 355.859856 214.898261 
L 356.877794 214.898261 
L 356.877794 215.355182 
L 357.895733 215.355182 
L 357.895733 215.469412 
L 358.913672 215.469412 
L 358.913672 216.122156 
L 361.967487 216.203749 
L 361.967487 216.252705 
L 362.985426 216.252705 
L 362.985426 216.840175 
L 365.021303 216.889131 
L 365.021303 216.970724 
L 366.039242 216.970724 
L 366.039242 217.215503 
L 367.05718 217.215503 
L 367.05718 217.639786 
L 368.075119 217.639786 
L 368.075119 217.884565 
L 369.093057 217.884565 
L 369.093057 217.754017 
L 370.110996 217.754017 
L 370.110996 217.94984 
L 371.128935 217.94984 
L 371.128935 218.113026 
L 372.146873 218.113026 
L 372.146873 218.488354 
L 373.164812 218.488354 
L 373.164812 218.276212 
L 374.18275 218.276212 
L 374.18275 218.488354 
L 375.200689 218.488354 
L 375.200689 218.667858 
L 378.254505 218.65154 
L 378.254505 218.863681 
L 379.272443 218.863681 
L 379.272443 218.863681 
" clip-path="url(#p3af9504633)" style="fill: none; stroke: #ff7f0e; stroke-width: 1.5; stroke-linecap: square"/>
   </g>
   <g id="patch_3">
    <path d="M 59.690625 228.96 
L 59.690625 7.2 
" style="fill: none; stroke: #000000; stroke-width: 0.8; stroke-linejoin: miter; stroke-linecap: square"/>
   </g>
   <g id="patch_4">
    <path d="M 394.490625 228.96 
L 394.490625 7.2 
" style="fill: none; stroke: #000000; stroke-width: 0.8; stroke-linejoin: miter; stroke-linecap: square"/>
   </g>
   <g id="patch_5">
    <path d="M 59.690625 228.96 
L 394.490625 228.96 
" style="fill: none; stroke: #000000; stroke-width: 0.8; stroke-linejoin: miter; stroke-linecap: square"/>
   </g>
   <g id="patch_6">
    <path d="M 59.690625 7.2 
L 394.490625 7.2 
" style="fill: none; stroke: #000000; stroke-width: 0.8; stroke-linejoin: miter; stroke-linecap: square"/>
   </g>
   <g id="legend_1">
    <g id="patch_7">
     <path d="M 313.267188 44.55625 
L 387.490625 44.55625 
Q 389.490625 44.55625 389.490625 42.55625 
L 389.490625 14.2 
Q 389.490625 12.2 387.490625 12.2 
L 313.267188 12.2 
Q 311.267188 12.2 311.267188 14.2 
L 311.267188 42.55625 
Q 311.267188 44.55625 313.267188 44.55625 
z
" style="fill: #ffffff; opacity: 0.8; stroke: #cccccc; stroke-linejoin: miter"/>
    </g>
    <g id="line2d_18">
     <path d="M 315.267188 20.298437 
L 315.267188 20.298437 
L 325.267188 20.298437 
L 325.267188 20.298437 
L 335.267188 20.298437 
" style="fill: none; stroke: #1f77b4; stroke-width: 1.5; stroke-linecap: square"/>
    </g>
    <g id="text_18">
     <!-- monitor -->
     <g transform="translate(343.267188 23.798437) scale(0.1 -0.1)">
      <defs>
       <path id="DejaVuSans-6d" d="M 3328 2828 
Q 3544 3216 3844 3400 
Q 4144 3584 4550 3584 
Q 5097 3584 5394 3201 
Q 5691 2819 5691 2113 
L 5691 0 
L 5113 0 
L 5113 2094 
Q 5113 2597 4934 2840 
Q 4756 3084 4391 3084 
Q 3944 3084 3684 2787 
Q 3425 2491 3425 1978 
L 3425 0 
L 2847 0 
L 2847 2094 
Q 2847 2600 2669 2842 
Q 2491 3084 2119 3084 
Q 1678 3084 1418 2786 
Q 1159 2488 1159 1978 
L 1159 0 
L 581 0 
L 581 3500 
L 1159 3500 
L 1159 2956 
Q 1356 3278 1631 3431 
Q 1906 3584 2284 3584 
Q 2666 3584 2933 3390 
Q 3200 3197 3328 2828 
z
" transform="scale(0.015625)"/>
       <path id="DejaVuSans-69" d="M 603 3500 
L 1178 3500 
L 1178 0 
L 603 0 
L 603 3500 
z
M 603 4863 
L 1178 4863 
L 1178 4134 
L 603 4134 
L 603 4863 
z
" transform="scale(0.015625)"/>
       <path id="DejaVuSans-72" d="M 2631 2963 
Q 2534 3019 2420 3045 
Q 2306 3072 2169 3072 
Q 1681 3072 1420 2755 
Q 1159 2438 1159 1844 
L 1159 0 
L 581 0 
L 581 3500 
L 1159 3500 
L 1159 2956 
Q 1341 3275 1631 3429 
Q 1922 3584 2338 3584 
Q 2397 3584 2469 3576 
Q 2541 3569 2628 3553 
L 2631 2963 
z
" transform="scale(0.015625)"/>
      </defs>
      <use xlink:href="#DejaVuSans-6d"/>
      <use xlink:href="#DejaVuSans-6f" transform="translate(97.412109 0)"/>
      <use xlink:href="#DejaVuSans-6e" transform="translate(158.59375 0)"/>
      <use xlink:href="#DejaVuSans-69" transform="translate(221.972656 0)"/>
      <use xlink:href="#DejaVuSans-74" transform="translate(249.755859 0)"/>
      <use xlink:href="#DejaVuSans-6f" transform="translate(288.964844 0)"/>
      <use xlink:href="#DejaVuSans-72" transform="translate(350.146484 0)"/>
     </g>
    </g>
    <g id="line2d_19">
     <path d="M 315.267188 34.976562 
L 315.267188 34.976562 
L 325.267188 34.976562 
L 325.267188 34.976562 
L 335.267188 34.976562 
" style="fill: none; stroke: #ff7f0e; stroke-width: 1.5; stroke-linecap: square"/>
    </g>
    <g id="text_19">
     <!-- detector -->
     <g transform="translate(343.267188 38.476562) scale(0.1 -0.1)">
      <defs>
       <path id="DejaVuSans-64" d="M 2906 2969 
L 2906 4863 
L 3481 4863 
L 3481 0 
L 2906 0 
L 2906 525 
Q 2725 213 2448 61 
Q 2172 -91 1784 -91 
Q 1150 -91 751 415 
Q 353 922 353 1747 
Q 353 2572 751 3078 
Q 1150 3584 1784 3584 
Q 2172 3584 2448 3432 
Q 2725 3281 2906 2969 
z
M 947 1747 
Q 947 1113 1208 752 
Q 1469 391 1925 391 
Q 2381 391 2643 752 
Q 2906 1113 2906 1747 
Q 2906 2381 2643 2742 
Q 2381 3103 1925 3103 
Q 1469 3103 1208 2742 
Q 947 2381 947 1747 
z
" transform="scale(0.015625)"/>
       <path id="DejaVuSans-65" d="M 3597 1894 
L 3597 1613 
L 953 1613 
Q 991 1019 1311 708 
Q 1631 397 2203 397 
Q 2534 397 2845 478 
Q 3156 559 3463 722 
L 3463 178 
Q 3153 47 2828 -22 
Q 2503 -91 2169 -91 
Q 1331 -91 842 396 
Q 353 884 353 1716 
Q 353 2575 817 3079 
Q 1281 3584 2069 3584 
Q 2775 3584 3186 3129 
Q 3597 2675 3597 1894 
z
M 3022 2063 
Q 3016 2534 2758 2815 
Q 2500 3097 2075 3097 
Q 1594 3097 1305 2825 
Q 1016 2553 972 2059 
L 3022 2063 
z
" transform="scale(0.015625)"/>
      </defs>
      <use xlink:href="#DejaVuSans-64"/>
      <use xlink:href="#DejaVuSans-65" transform="translate(63.476562 0)"/>
      <use xlink:href="#DejaVuSans-74" transform="translate(125 0)"/>
      <use xlink:href="#DejaVuSans-65" transform="translate(164.208984 0)"/>
      <use xlink:href="#DejaVuSans-63" transform="translate(225.732422 0)"/>
      <use xlink:href="#DejaVuSans-74" transform="translate(280.712891 0)"/>
      <use xlink:href="#DejaVuSans-6f" transform="translate(319.921875 0)"/>
      <use xlink:href="#DejaVuSans-72" transform="translate(381.103516 0)"/>
     </g>
    </g>
   </g>
  </g>
 </g>
 <defs>
  <clipPath id="p3af9504633">
   <rect x="59.690625" y="7.2" width="334.8" height="221.76"/>
  </clipPath>
 </defs>
</svg>
