<?xml version="1.0" encoding="utf-8" standalone="no"?>
<!DOCTYPE svg PUBLIC "-//W3C//DTD SVG 1.1//EN"
  "http://www.w3.org/Graphics/SVG/1.1/DTD/svg11.dtd">
<svg xmlns:xlink="http://www.w3.org/1999/xlink" width="401.690625pt" height="266.51625pt" viewBox="0 0 401.690625 266.51625" xmlns="http://www.w3.org/2000/svg" version="1.1">
 <metadata>
  <rdf:RDF xmlns:dc="http://purl.org/dc/elements/1.1/" xmlns:cc="http://creativecommons.org/ns#" xmlns:rdf="http://www.w3.org/1999/02/22-rdf-syntax-ns#">
   <cc:Work>
    <dc:type rdf:resource="http://purl.org/dc/dcmitype/StillImage"/>
    <dc:date>2025-02-27T10:09:05.323045</dc:date>
    <dc:format>image/svg+xml</dc:format>
    <dc:creator>
     <cc:Agent>
      <dc:title>Matplotlib v3.10.0, https://matplotlib.org/</dc:title>
     </cc:Agent>
    </dc:creator>
   </cc:Work>
  </rdf:RDF>
 </metadata>
 <defs>
  <style type="text/css">*{stroke-linejoin: round; stroke-linecap: butt}</style>
 </defs>
 <g id="figure_1">
  <g id="patch_1">
   <path d="M 0 266.51625 
L 401.690625 266.51625 
L 401.690625 0 
L 0 0 
z
" style="fill: #ffffff"/>
  </g>
  <g id="axes_1">
   <g id="patch_2">
    <path d="M 59.690625 228.96 
L 394.490625 228.96 
L 394.490625 7.2 
L 59.690625 7.2 
z
" style="fill: #ffffff"/>
   </g>
   <g id="matplotlib.axis_1">
    <g id="xtick_1">
     <g id="line2d_1">
      <defs>
       <path id="me83ecd7c1d" d="M 0 0 
L 0 3.5 
" style="stroke: #000000; stroke-width: 0.8"/>
      </defs>
      <g>
       <use xlink:href="#me83ecd7c1d" x="79.258844" y="228.96" style="stroke: #000000; stroke-width: 0.8"/>
      </g>
     </g>
     <g id="text_1">
      <!-- 20000 -->
      <g transform="translate(63.352594 243.558437) scale(0.1 -0.1)">
       <defs>
        <path id="DejaVuSans-32" d="M 1228 531 
L 3431 531 
L 3431 0 
L 469 0 
L 469 531 
Q 828 903 1448 1529 
Q 2069 2156 2228 2338 
Q 2531 2678 2651 2914 
Q 2772 3150 2772 3378 
Q 2772 3750 2511 3984 
Q 2250 4219 1831 4219 
Q 1534 4219 1204 4116 
Q 875 4013 500 3803 
L 500 4441 
Q 881 4594 1212 4672 
Q 1544 4750 1819 4750 
Q 2544 4750 2975 4387 
Q 3406 4025 3406 3419 
Q 3406 3131 3298 2873 
Q 3191 2616 2906 2266 
Q 2828 2175 2409 1742 
Q 1991 1309 1228 531 
z
" transform="scale(0.015625)"/>
        <path id="DejaVuSans-30" d="M 2034 4250 
Q 1547 4250 1301 3770 
Q 1056 3291 1056 2328 
Q 1056 1369 1301 889 
Q 1547 409 2034 409 
Q 2525 409 2770 889 
Q 3016 1369 3016 2328 
Q 3016 3291 2770 3770 
Q 2525 4250 2034 4250 
z
M 2034 4750 
Q 2819 4750 3233 4129 
Q 3647 3509 3647 2328 
Q 3647 1150 3233 529 
Q 2819 -91 2034 -91 
Q 1250 -91 836 529 
Q 422 1150 422 2328 
Q 422 3509 836 4129 
Q 1250 4750 2034 4750 
z
" transform="scale(0.015625)"/>
       </defs>
       <use xlink:href="#DejaVuSans-32"/>
       <use xlink:href="#DejaVuSans-30" transform="translate(63.623047 0)"/>
       <use xlink:href="#DejaVuSans-30" transform="translate(127.246094 0)"/>
       <use xlink:href="#DejaVuSans-30" transform="translate(190.869141 0)"/>
       <use xlink:href="#DejaVuSans-30" transform="translate(254.492188 0)"/>
      </g>
     </g>
    </g>
    <g id="xtick_2">
     <g id="line2d_2">
      <g>
       <use xlink:href="#me83ecd7c1d" x="119.976387" y="228.96" style="stroke: #000000; stroke-width: 0.8"/>
      </g>
     </g>
     <g id="text_2">
      <!-- 40000 -->
      <g transform="translate(104.070137 243.558437) scale(0.1 -0.1)">
       <defs>
        <path id="DejaVuSans-34" d="M 2419 4116 
L 825 1625 
L 2419 1625 
L 2419 4116 
z
M 2253 4666 
L 3047 4666 
L 3047 1625 
L 3713 1625 
L 3713 1100 
L 3047 1100 
L 3047 0 
L 2419 0 
L 2419 1100 
L 313 1100 
L 313 1709 
L 2253 4666 
z
" transform="scale(0.015625)"/>
       </defs>
       <use xlink:href="#DejaVuSans-34"/>
       <use xlink:href="#DejaVuSans-30" transform="translate(63.623047 0)"/>
       <use xlink:href="#DejaVuSans-30" transform="translate(127.246094 0)"/>
       <use xlink:href="#DejaVuSans-30" transform="translate(190.869141 0)"/>
       <use xlink:href="#DejaVuSans-30" transform="translate(254.492188 0)"/>
      </g>
     </g>
    </g>
    <g id="xtick_3">
     <g id="line2d_3">
      <g>
       <use xlink:href="#me83ecd7c1d" x="160.693931" y="228.96" style="stroke: #000000; stroke-width: 0.8"/>
      </g>
     </g>
     <g id="text_3">
      <!-- 60000 -->
      <g transform="translate(144.787681 243.558437) scale(0.1 -0.1)">
       <defs>
        <path id="DejaVuSans-36" d="M 2113 2584 
Q 1688 2584 1439 2293 
Q 1191 2003 1191 1497 
Q 1191 994 1439 701 
Q 1688 409 2113 409 
Q 2538 409 2786 701 
Q 3034 994 3034 1497 
Q 3034 2003 2786 2293 
Q 2538 2584 2113 2584 
z
M 3366 4563 
L 3366 3988 
Q 3128 4100 2886 4159 
Q 2644 4219 2406 4219 
Q 1781 4219 1451 3797 
Q 1122 3375 1075 2522 
Q 1259 2794 1537 2939 
Q 1816 3084 2150 3084 
Q 2853 3084 3261 2657 
Q 3669 2231 3669 1497 
Q 3669 778 3244 343 
Q 2819 -91 2113 -91 
Q 1303 -91 875 529 
Q 447 1150 447 2328 
Q 447 3434 972 4092 
Q 1497 4750 2381 4750 
Q 2619 4750 2861 4703 
Q 3103 4656 3366 4563 
z
" transform="scale(0.015625)"/>
       </defs>
       <use xlink:href="#DejaVuSans-36"/>
       <use xlink:href="#DejaVuSans-30" transform="translate(63.623047 0)"/>
       <use xlink:href="#DejaVuSans-30" transform="translate(127.246094 0)"/>
       <use xlink:href="#DejaVuSans-30" transform="translate(190.869141 0)"/>
       <use xlink:href="#DejaVuSans-30" transform="translate(254.492188 0)"/>
      </g>
     </g>
    </g>
    <g id="xtick_4">
     <g id="line2d_4">
      <g>
       <use xlink:href="#me83ecd7c1d" x="201.411474" y="228.96" style="stroke: #000000; stroke-width: 0.8"/>
      </g>
     </g>
     <g id="text_4">
      <!-- 80000 -->
      <g transform="translate(185.505224 243.558437) scale(0.1 -0.1)">
       <defs>
        <path id="DejaVuSans-38" d="M 2034 2216 
Q 1584 2216 1326 1975 
Q 1069 1734 1069 1313 
Q 1069 891 1326 650 
Q 1584 409 2034 409 
Q 2484 409 2743 651 
Q 3003 894 3003 1313 
Q 3003 1734 2745 1975 
Q 2488 2216 2034 2216 
z
M 1403 2484 
Q 997 2584 770 2862 
Q 544 3141 544 3541 
Q 544 4100 942 4425 
Q 1341 4750 2034 4750 
Q 2731 4750 3128 4425 
Q 3525 4100 3525 3541 
Q 3525 3141 3298 2862 
Q 3072 2584 2669 2484 
Q 3125 2378 3379 2068 
Q 3634 1759 3634 1313 
Q 3634 634 3220 271 
Q 2806 -91 2034 -91 
Q 1263 -91 848 271 
Q 434 634 434 1313 
Q 434 1759 690 2068 
Q 947 2378 1403 2484 
z
M 1172 3481 
Q 1172 3119 1398 2916 
Q 1625 2713 2034 2713 
Q 2441 2713 2670 2916 
Q 2900 3119 2900 3481 
Q 2900 3844 2670 4047 
Q 2441 4250 2034 4250 
Q 1625 4250 1398 4047 
Q 1172 3844 1172 3481 
z
" transform="scale(0.015625)"/>
       </defs>
       <use xlink:href="#DejaVuSans-38"/>
       <use xlink:href="#DejaVuSans-30" transform="translate(63.623047 0)"/>
       <use xlink:href="#DejaVuSans-30" transform="translate(127.246094 0)"/>
       <use xlink:href="#DejaVuSans-30" transform="translate(190.869141 0)"/>
       <use xlink:href="#DejaVuSans-30" transform="translate(254.492188 0)"/>
      </g>
     </g>
    </g>
    <g id="xtick_5">
     <g id="line2d_5">
      <g>
       <use xlink:href="#me83ecd7c1d" x="242.129017" y="228.96" style="stroke: #000000; stroke-width: 0.8"/>
      </g>
     </g>
     <g id="text_5">
      <!-- 100000 -->
      <g transform="translate(223.041517 243.558437) scale(0.1 -0.1)">
       <defs>
        <path id="DejaVuSans-31" d="M 794 531 
L 1825 531 
L 1825 4091 
L 703 3866 
L 703 4441 
L 1819 4666 
L 2450 4666 
L 2450 531 
L 3481 531 
L 3481 0 
L 794 0 
L 794 531 
z
" transform="scale(0.015625)"/>
       </defs>
       <use xlink:href="#DejaVuSans-31"/>
       <use xlink:href="#DejaVuSans-30" transform="translate(63.623047 0)"/>
       <use xlink:href="#DejaVuSans-30" transform="translate(127.246094 0)"/>
       <use xlink:href="#DejaVuSans-30" transform="translate(190.869141 0)"/>
       <use xlink:href="#DejaVuSans-30" transform="translate(254.492188 0)"/>
       <use xlink:href="#DejaVuSans-30" transform="translate(318.115234 0)"/>
      </g>
     </g>
    </g>
    <g id="xtick_6">
     <g id="line2d_6">
      <g>
       <use xlink:href="#me83ecd7c1d" x="282.84656" y="228.96" style="stroke: #000000; stroke-width: 0.8"/>
      </g>
     </g>
     <g id="text_6">
      <!-- 120000 -->
      <g transform="translate(263.75906 243.558437) scale(0.1 -0.1)">
       <use xlink:href="#DejaVuSans-31"/>
       <use xlink:href="#DejaVuSans-32" transform="translate(63.623047 0)"/>
       <use xlink:href="#DejaVuSans-30" transform="translate(127.246094 0)"/>
       <use xlink:href="#DejaVuSans-30" transform="translate(190.869141 0)"/>
       <use xlink:href="#DejaVuSans-30" transform="translate(254.492188 0)"/>
       <use xlink:href="#DejaVuSans-30" transform="translate(318.115234 0)"/>
      </g>
     </g>
    </g>
    <g id="xtick_7">
     <g id="line2d_7">
      <g>
       <use xlink:href="#me83ecd7c1d" x="323.564104" y="228.96" style="stroke: #000000; stroke-width: 0.8"/>
      </g>
     </g>
     <g id="text_7">
      <!-- 140000 -->
      <g transform="translate(304.476604 243.558437) scale(0.1 -0.1)">
       <use xlink:href="#DejaVuSans-31"/>
       <use xlink:href="#DejaVuSans-34" transform="translate(63.623047 0)"/>
       <use xlink:href="#DejaVuSans-30" transform="translate(127.246094 0)"/>
       <use xlink:href="#DejaVuSans-30" transform="translate(190.869141 0)"/>
       <use xlink:href="#DejaVuSans-30" transform="translate(254.492188 0)"/>
       <use xlink:href="#DejaVuSans-30" transform="translate(318.115234 0)"/>
      </g>
     </g>
    </g>
    <g id="xtick_8">
     <g id="line2d_8">
      <g>
       <use xlink:href="#me83ecd7c1d" x="364.281647" y="228.96" style="stroke: #000000; stroke-width: 0.8"/>
      </g>
     </g>
     <g id="text_8">
      <!-- 160000 -->
      <g transform="translate(345.194147 243.558437) scale(0.1 -0.1)">
       <use xlink:href="#DejaVuSans-31"/>
       <use xlink:href="#DejaVuSans-36" transform="translate(63.623047 0)"/>
       <use xlink:href="#DejaVuSans-30" transform="translate(127.246094 0)"/>
       <use xlink:href="#DejaVuSans-30" transform="translate(190.869141 0)"/>
       <use xlink:href="#DejaVuSans-30" transform="translate(254.492188 0)"/>
       <use xlink:href="#DejaVuSans-30" transform="translate(318.115234 0)"/>
      </g>
     </g>
    </g>
    <g id="text_9">
     <!-- tof [µs] -->
     <g transform="translate(209.034375 257.236562) scale(0.1 -0.1)">
      <defs>
       <path id="DejaVuSans-74" d="M 1172 4494 
L 1172 3500 
L 2356 3500 
L 2356 3053 
L 1172 3053 
L 1172 1153 
Q 1172 725 1289 603 
Q 1406 481 1766 481 
L 2356 481 
L 2356 0 
L 1766 0 
Q 1100 0 847 248 
Q 594 497 594 1153 
L 594 3053 
L 172 3053 
L 172 3500 
L 594 3500 
L 594 4494 
L 1172 4494 
z
" transform="scale(0.015625)"/>
       <path id="DejaVuSans-6f" d="M 1959 3097 
Q 1497 3097 1228 2736 
Q 959 2375 959 1747 
Q 959 1119 1226 758 
Q 1494 397 1959 397 
Q 2419 397 2687 759 
Q 2956 1122 2956 1747 
Q 2956 2369 2687 2733 
Q 2419 3097 1959 3097 
z
M 1959 3584 
Q 2709 3584 3137 3096 
Q 3566 2609 3566 1747 
Q 3566 888 3137 398 
Q 2709 -91 1959 -91 
Q 1206 -91 779 398 
Q 353 888 353 1747 
Q 353 2609 779 3096 
Q 1206 3584 1959 3584 
z
" transform="scale(0.015625)"/>
       <path id="DejaVuSans-66" d="M 2375 4863 
L 2375 4384 
L 1825 4384 
Q 1516 4384 1395 4259 
Q 1275 4134 1275 3809 
L 1275 3500 
L 2222 3500 
L 2222 3053 
L 1275 3053 
L 1275 0 
L 697 0 
L 697 3053 
L 147 3053 
L 147 3500 
L 697 3500 
L 697 3744 
Q 697 4328 969 4595 
Q 1241 4863 1831 4863 
L 2375 4863 
z
" transform="scale(0.015625)"/>
       <path id="DejaVuSans-20" transform="scale(0.015625)"/>
       <path id="DejaVuSans-5b" d="M 550 4863 
L 1875 4863 
L 1875 4416 
L 1125 4416 
L 1125 -397 
L 1875 -397 
L 1875 -844 
L 550 -844 
L 550 4863 
z
" transform="scale(0.015625)"/>
       <path id="DejaVuSans-b5" d="M 544 -1331 
L 544 3500 
L 1119 3500 
L 1119 1325 
Q 1119 872 1334 640 
Q 1550 409 1972 409 
Q 2434 409 2667 671 
Q 2900 934 2900 1459 
L 2900 3500 
L 3475 3500 
L 3475 806 
Q 3475 619 3529 530 
Q 3584 441 3700 441 
Q 3728 441 3778 458 
Q 3828 475 3916 513 
L 3916 50 
Q 3788 -22 3673 -56 
Q 3559 -91 3450 -91 
Q 3234 -91 3106 31 
Q 2978 153 2931 403 
Q 2775 156 2548 32 
Q 2322 -91 2016 -91 
Q 1697 -91 1473 31 
Q 1250 153 1119 397 
L 1119 -1331 
L 544 -1331 
z
" transform="scale(0.015625)"/>
       <path id="DejaVuSans-73" d="M 2834 3397 
L 2834 2853 
Q 2591 2978 2328 3040 
Q 2066 3103 1784 3103 
Q 1356 3103 1142 2972 
Q 928 2841 928 2578 
Q 928 2378 1081 2264 
Q 1234 2150 1697 2047 
L 1894 2003 
Q 2506 1872 2764 1633 
Q 3022 1394 3022 966 
Q 3022 478 2636 193 
Q 2250 -91 1575 -91 
Q 1294 -91 989 -36 
Q 684 19 347 128 
L 347 722 
Q 666 556 975 473 
Q 1284 391 1588 391 
Q 1994 391 2212 530 
Q 2431 669 2431 922 
Q 2431 1156 2273 1281 
Q 2116 1406 1581 1522 
L 1381 1569 
Q 847 1681 609 1914 
Q 372 2147 372 2553 
Q 372 3047 722 3315 
Q 1072 3584 1716 3584 
Q 2034 3584 2315 3537 
Q 2597 3491 2834 3397 
z
" transform="scale(0.015625)"/>
       <path id="DejaVuSans-5d" d="M 1947 4863 
L 1947 -844 
L 622 -844 
L 622 -397 
L 1369 -397 
L 1369 4416 
L 622 4416 
L 622 4863 
L 1947 4863 
z
" transform="scale(0.015625)"/>
      </defs>
      <use xlink:href="#DejaVuSans-74"/>
      <use xlink:href="#DejaVuSans-6f" transform="translate(39.208984 0)"/>
      <use xlink:href="#DejaVuSans-66" transform="translate(100.390625 0)"/>
      <use xlink:href="#DejaVuSans-20" transform="translate(135.595703 0)"/>
      <use xlink:href="#DejaVuSans-5b" transform="translate(167.382812 0)"/>
      <use xlink:href="#DejaVuSans-b5" transform="translate(206.396484 0)"/>
      <use xlink:href="#DejaVuSans-73" transform="translate(270.019531 0)"/>
      <use xlink:href="#DejaVuSans-5d" transform="translate(322.119141 0)"/>
     </g>
    </g>
   </g>
   <g id="matplotlib.axis_2">
    <g id="ytick_1">
     <g id="line2d_9">
      <defs>
       <path id="m170220d281" d="M 0 0 
L -3.5 0 
" style="stroke: #000000; stroke-width: 0.8"/>
      </defs>
      <g>
       <use xlink:href="#m170220d281" x="59.690625" y="218.88" style="stroke: #000000; stroke-width: 0.8"/>
      </g>
     </g>
     <g id="text_10">
      <!-- 0 -->
      <g transform="translate(46.328125 222.679219) scale(0.1 -0.1)">
       <use xlink:href="#DejaVuSans-30"/>
      </g>
     </g>
    </g>
    <g id="ytick_2">
     <g id="line2d_10">
      <g>
       <use xlink:href="#m170220d281" x="59.690625" y="185.65927" style="stroke: #000000; stroke-width: 0.8"/>
      </g>
     </g>
     <g id="text_11">
      <!-- 2000 -->
      <g transform="translate(27.240625 189.458489) scale(0.1 -0.1)">
       <use xlink:href="#DejaVuSans-32"/>
       <use xlink:href="#DejaVuSans-30" transform="translate(63.623047 0)"/>
       <use xlink:href="#DejaVuSans-30" transform="translate(127.246094 0)"/>
       <use xlink:href="#DejaVuSans-30" transform="translate(190.869141 0)"/>
      </g>
     </g>
    </g>
    <g id="ytick_3">
     <g id="line2d_11">
      <g>
       <use xlink:href="#m170220d281" x="59.690625" y="152.43854" style="stroke: #000000; stroke-width: 0.8"/>
      </g>
     </g>
     <g id="text_12">
      <!-- 4000 -->
      <g transform="translate(27.240625 156.237759) scale(0.1 -0.1)">
       <use xlink:href="#DejaVuSans-34"/>
       <use xlink:href="#DejaVuSans-30" transform="translate(63.623047 0)"/>
       <use xlink:href="#DejaVuSans-30" transform="translate(127.246094 0)"/>
       <use xlink:href="#DejaVuSans-30" transform="translate(190.869141 0)"/>
      </g>
     </g>
    </g>
    <g id="ytick_4">
     <g id="line2d_12">
      <g>
       <use xlink:href="#m170220d281" x="59.690625" y="119.21781" style="stroke: #000000; stroke-width: 0.8"/>
      </g>
     </g>
     <g id="text_13">
      <!-- 6000 -->
      <g transform="translate(27.240625 123.017029) scale(0.1 -0.1)">
       <use xlink:href="#DejaVuSans-36"/>
       <use xlink:href="#DejaVuSans-30" transform="translate(63.623047 0)"/>
       <use xlink:href="#DejaVuSans-30" transform="translate(127.246094 0)"/>
       <use xlink:href="#DejaVuSans-30" transform="translate(190.869141 0)"/>
      </g>
     </g>
    </g>
    <g id="ytick_5">
     <g id="line2d_13">
      <g>
       <use xlink:href="#m170220d281" x="59.690625" y="85.99708" style="stroke: #000000; stroke-width: 0.8"/>
      </g>
     </g>
     <g id="text_14">
      <!-- 8000 -->
      <g transform="translate(27.240625 89.796299) scale(0.1 -0.1)">
       <use xlink:href="#DejaVuSans-38"/>
       <use xlink:href="#DejaVuSans-30" transform="translate(63.623047 0)"/>
       <use xlink:href="#DejaVuSans-30" transform="translate(127.246094 0)"/>
       <use xlink:href="#DejaVuSans-30" transform="translate(190.869141 0)"/>
      </g>
     </g>
    </g>
    <g id="ytick_6">
     <g id="line2d_14">
      <g>
       <use xlink:href="#m170220d281" x="59.690625" y="52.77635" style="stroke: #000000; stroke-width: 0.8"/>
      </g>
     </g>
     <g id="text_15">
      <!-- 10000 -->
      <g transform="translate(20.878125 56.575569) scale(0.1 -0.1)">
       <use xlink:href="#DejaVuSans-31"/>
       <use xlink:href="#DejaVuSans-30" transform="translate(63.623047 0)"/>
       <use xlink:href="#DejaVuSans-30" transform="translate(127.246094 0)"/>
       <use xlink:href="#DejaVuSans-30" transform="translate(190.869141 0)"/>
       <use xlink:href="#DejaVuSans-30" transform="translate(254.492188 0)"/>
      </g>
     </g>
    </g>
    <g id="ytick_7">
     <g id="line2d_15">
      <g>
       <use xlink:href="#m170220d281" x="59.690625" y="19.55562" style="stroke: #000000; stroke-width: 0.8"/>
      </g>
     </g>
     <g id="text_16">
      <!-- 12000 -->
      <g transform="translate(20.878125 23.354839) scale(0.1 -0.1)">
       <use xlink:href="#DejaVuSans-31"/>
       <use xlink:href="#DejaVuSans-32" transform="translate(63.623047 0)"/>
       <use xlink:href="#DejaVuSans-30" transform="translate(127.246094 0)"/>
       <use xlink:href="#DejaVuSans-30" transform="translate(190.869141 0)"/>
       <use xlink:href="#DejaVuSans-30" transform="translate(254.492188 0)"/>
      </g>
     </g>
    </g>
    <g id="text_17">
     <!-- [counts] -->
     <g transform="translate(14.798438 138.6925) rotate(-90) scale(0.1 -0.1)">
      <defs>
       <path id="DejaVuSans-63" d="M 3122 3366 
L 3122 2828 
Q 2878 2963 2633 3030 
Q 2388 3097 2138 3097 
Q 1578 3097 1268 2742 
Q 959 2388 959 1747 
Q 959 1106 1268 751 
Q 1578 397 2138 397 
Q 2388 397 2633 464 
Q 2878 531 3122 666 
L 3122 134 
Q 2881 22 2623 -34 
Q 2366 -91 2075 -91 
Q 1284 -91 818 406 
Q 353 903 353 1747 
Q 353 2603 823 3093 
Q 1294 3584 2113 3584 
Q 2378 3584 2631 3529 
Q 2884 3475 3122 3366 
z
" transform="scale(0.015625)"/>
       <path id="DejaVuSans-75" d="M 544 1381 
L 544 3500 
L 1119 3500 
L 1119 1403 
Q 1119 906 1312 657 
Q 1506 409 1894 409 
Q 2359 409 2629 706 
Q 2900 1003 2900 1516 
L 2900 3500 
L 3475 3500 
L 3475 0 
L 2900 0 
L 2900 538 
Q 2691 219 2414 64 
Q 2138 -91 1772 -91 
Q 1169 -91 856 284 
Q 544 659 544 1381 
z
M 1991 3584 
L 1991 3584 
z
" transform="scale(0.015625)"/>
       <path id="DejaVuSans-6e" d="M 3513 2113 
L 3513 0 
L 2938 0 
L 2938 2094 
Q 2938 2591 2744 2837 
Q 2550 3084 2163 3084 
Q 1697 3084 1428 2787 
Q 1159 2491 1159 1978 
L 1159 0 
L 581 0 
L 581 3500 
L 1159 3500 
L 1159 2956 
Q 1366 3272 1645 3428 
Q 1925 3584 2291 3584 
Q 2894 3584 3203 3211 
Q 3513 2838 3513 2113 
z
" transform="scale(0.015625)"/>
      </defs>
      <use xlink:href="#DejaVuSans-5b"/>
      <use xlink:href="#DejaVuSans-63" transform="translate(39.013672 0)"/>
      <use xlink:href="#DejaVuSans-6f" transform="translate(93.994141 0)"/>
      <use xlink:href="#DejaVuSans-75" transform="translate(155.175781 0)"/>
      <use xlink:href="#DejaVuSans-6e" transform="translate(218.554688 0)"/>
      <use xlink:href="#DejaVuSans-74" transform="translate(281.933594 0)"/>
      <use xlink:href="#DejaVuSans-73" transform="translate(321.142578 0)"/>
      <use xlink:href="#DejaVuSans-5d" transform="translate(373.242188 0)"/>
     </g>
    </g>
   </g>
   <g id="patch_3">
    <path d="M 59.690625 228.96 
L 59.690625 7.2 
" style="fill: none; stroke: #000000; stroke-width: 0.8; stroke-linejoin: miter; stroke-linecap: square"/>
   </g>
   <g id="patch_4">
    <path d="M 394.490625 228.96 
L 394.490625 7.2 
" style="fill: none; stroke: #000000; stroke-width: 0.8; stroke-linejoin: miter; stroke-linecap: square"/>
   </g>
   <g id="patch_5">
    <path d="M 59.690625 228.96 
L 394.490625 228.96 
" style="fill: none; stroke: #000000; stroke-width: 0.8; stroke-linejoin: miter; stroke-linecap: square"/>
   </g>
   <g id="patch_6">
    <path d="M 59.690625 7.2 
L 394.490625 7.2 
" style="fill: none; stroke: #000000; stroke-width: 0.8; stroke-linejoin: miter; stroke-linecap: square"/>
   </g>
   <g id="legend_1">
    <g id="patch_7">
     <path d="M 313.267188 44.55625 
L 387.490625 44.55625 
Q 389.490625 44.55625 389.490625 42.55625 
L 389.490625 14.2 
Q 389.490625 12.2 387.490625 12.2 
L 313.267188 12.2 
Q 311.267188 12.2 311.267188 14.2 
L 311.267188 42.55625 
Q 311.267188 44.55625 313.267188 44.55625 
z
" style="fill: #ffffff; opacity: 0.8; stroke: #cccccc; stroke-linejoin: miter"/>
    </g>
    <g id="line2d_16">
     <path d="M 315.267188 20.298437 
L 315.267188 20.298437 
L 325.267188 20.298437 
L 325.267188 20.298437 
L 335.267188 20.298437 
" style="fill: none; stroke: #1f77b4; stroke-width: 1.5; stroke-linecap: square"/>
    </g>
    <g id="text_18">
     <!-- monitor -->
     <g transform="translate(343.267188 23.798437) scale(0.1 -0.1)">
      <defs>
       <path id="DejaVuSans-6d" d="M 3328 2828 
Q 3544 3216 3844 3400 
Q 4144 3584 4550 3584 
Q 5097 3584 5394 3201 
Q 5691 2819 5691 2113 
L 5691 0 
L 5113 0 
L 5113 2094 
Q 5113 2597 4934 2840 
Q 4756 3084 4391 3084 
Q 3944 3084 3684 2787 
Q 3425 2491 3425 1978 
L 3425 0 
L 2847 0 
L 2847 2094 
Q 2847 2600 2669 2842 
Q 2491 3084 2119 3084 
Q 1678 3084 1418 2786 
Q 1159 2488 1159 1978 
L 1159 0 
L 581 0 
L 581 3500 
L 1159 3500 
L 1159 2956 
Q 1356 3278 1631 3431 
Q 1906 3584 2284 3584 
Q 2666 3584 2933 3390 
Q 3200 3197 3328 2828 
z
" transform="scale(0.015625)"/>
       <path id="DejaVuSans-69" d="M 603 3500 
L 1178 3500 
L 1178 0 
L 603 0 
L 603 3500 
z
M 603 4863 
L 1178 4863 
L 1178 4134 
L 603 4134 
L 603 4863 
z
" transform="scale(0.015625)"/>
       <path id="DejaVuSans-72" d="M 2631 2963 
Q 2534 3019 2420 3045 
Q 2306 3072 2169 3072 
Q 1681 3072 1420 2755 
Q 1159 2438 1159 1844 
L 1159 0 
L 581 0 
L 581 3500 
L 1159 3500 
L 1159 2956 
Q 1341 3275 1631 3429 
Q 1922 3584 2338 3584 
Q 2397 3584 2469 3576 
Q 2541 3569 2628 3553 
L 2631 2963 
z
" transform="scale(0.015625)"/>
      </defs>
      <use xlink:href="#DejaVuSans-6d"/>
      <use xlink:href="#DejaVuSans-6f" transform="translate(97.412109 0)"/>
      <use xlink:href="#DejaVuSans-6e" transform="translate(158.59375 0)"/>
      <use xlink:href="#DejaVuSans-69" transform="translate(221.972656 0)"/>
      <use xlink:href="#DejaVuSans-74" transform="translate(249.755859 0)"/>
      <use xlink:href="#DejaVuSans-6f" transform="translate(288.964844 0)"/>
      <use xlink:href="#DejaVuSans-72" transform="translate(350.146484 0)"/>
     </g>
    </g>
    <g id="line2d_17">
     <path d="M 315.267188 34.976562 
L 315.267188 34.976562 
L 325.267188 34.976562 
L 325.267188 34.976562 
L 335.267188 34.976562 
" style="fill: none; stroke: #ff7f0e; stroke-width: 1.5; stroke-linecap: square"/>
    </g>
    <g id="text_19">
     <!-- detector -->
     <g transform="translate(343.267188 38.476562) scale(0.1 -0.1)">
      <defs>
       <path id="DejaVuSans-64" d="M 2906 2969 
L 2906 4863 
L 3481 4863 
L 3481 0 
L 2906 0 
L 2906 525 
Q 2725 213 2448 61 
Q 2172 -91 1784 -91 
Q 1150 -91 751 415 
Q 353 922 353 1747 
Q 353 2572 751 3078 
Q 1150 3584 1784 3584 
Q 2172 3584 2448 3432 
Q 2725 3281 2906 2969 
z
M 947 1747 
Q 947 1113 1208 752 
Q 1469 391 1925 391 
Q 2381 391 2643 752 
Q 2906 1113 2906 1747 
Q 2906 2381 2643 2742 
Q 2381 3103 1925 3103 
Q 1469 3103 1208 2742 
Q 947 2381 947 1747 
z
" transform="scale(0.015625)"/>
       <path id="DejaVuSans-65" d="M 3597 1894 
L 3597 1613 
L 953 1613 
Q 991 1019 1311 708 
Q 1631 397 2203 397 
Q 2534 397 2845 478 
Q 3156 559 3463 722 
L 3463 178 
Q 3153 47 2828 -22 
Q 2503 -91 2169 -91 
Q 1331 -91 842 396 
Q 353 884 353 1716 
Q 353 2575 817 3079 
Q 1281 3584 2069 3584 
Q 2775 3584 3186 3129 
Q 3597 2675 3597 1894 
z
M 3022 2063 
Q 3016 2534 2758 2815 
Q 2500 3097 2075 3097 
Q 1594 3097 1305 2825 
Q 1016 2553 972 2059 
L 3022 2063 
z
" transform="scale(0.015625)"/>
      </defs>
      <use xlink:href="#DejaVuSans-64"/>
      <use xlink:href="#DejaVuSans-65" transform="translate(63.476562 0)"/>
      <use xlink:href="#DejaVuSans-74" transform="translate(125 0)"/>
      <use xlink:href="#DejaVuSans-65" transform="translate(164.208984 0)"/>
      <use xlink:href="#DejaVuSans-63" transform="translate(225.732422 0)"/>
      <use xlink:href="#DejaVuSans-74" transform="translate(280.712891 0)"/>
      <use xlink:href="#DejaVuSans-6f" transform="translate(319.921875 0)"/>
      <use xlink:href="#DejaVuSans-72" transform="translate(381.103516 0)"/>
     </g>
    </g>
   </g>
   <g id="line2d_18">
    <path d="M 74.908807 218.730507 
L 77.962623 218.630845 
L 77.962623 218.597624 
L 81.016438 218.497962 
L 81.016438 218.348468 
L 82.034377 218.348468 
L 82.034377 218.215585 
L 84.070254 218.149144 
L 84.070254 217.833547 
L 86.106131 217.783716 
L 86.106131 217.51795 
L 87.12407 217.51795 
L 87.12407 217.169132 
L 89.159947 217.252184 
L 89.159947 216.58777 
L 90.177886 216.58777 
L 90.177886 215.823693 
L 91.195824 215.823693 
L 91.195824 214.79385 
L 92.213763 214.79385 
L 92.213763 214.561305 
L 93.231701 214.561305 
L 93.231701 213.249086 
L 94.24964 213.249086 
L 94.24964 212.003309 
L 95.267578 212.003309 
L 95.267578 210.292441 
L 96.285517 210.292441 
L 96.285517 208.43208 
L 97.303456 208.43208 
L 97.303456 206.222902 
L 98.321394 206.222902 
L 98.321394 201.621831 
L 99.339333 201.621831 
L 99.339333 198.233316 
L 100.357271 198.233316 
L 100.357271 194.595646 
L 101.37521 194.595646 
L 101.37521 185.958257 
L 102.393149 185.958257 
L 102.393149 180.543278 
L 103.411087 180.543278 
L 103.411087 174.796091 
L 104.429026 174.796091 
L 104.429026 168.085504 
L 105.446964 168.085504 
L 105.446964 160.19558 
L 106.464903 160.19558 
L 106.464903 153.983304 
L 107.482841 153.983304 
L 107.482841 144.24963 
L 108.50078 144.24963 
L 108.50078 135.097319 
L 109.518719 135.097319 
L 109.518719 126.111111 
L 110.536657 126.111111 
L 110.536657 118.952044 
L 111.554596 118.952044 
L 111.554596 108.088865 
L 112.572534 108.088865 
L 112.572534 96.162623 
L 113.590473 96.162623 
L 113.590473 90.581541 
L 114.608412 90.581541 
L 114.608412 84.502147 
L 115.62635 84.502147 
L 115.62635 64.187671 
L 116.644289 64.187671 
L 116.644289 56.928941 
L 117.662227 56.928941 
L 117.662227 47.610526 
L 118.680166 47.610526 
L 118.680166 44.338285 
L 119.698104 44.338285 
L 119.698104 37.577866 
L 120.716043 37.577866 
L 120.716043 30.883889 
L 121.733982 30.883889 
L 121.733982 38.591098 
L 122.75192 38.591098 
L 122.75192 27.478764 
L 123.769859 27.478764 
L 123.769859 27.860803 
L 124.787797 27.860803 
L 124.787797 30.452019 
L 125.805736 30.452019 
L 125.805736 18.392894 
L 126.823675 18.392894 
L 126.823675 20.768177 
L 127.841613 20.768177 
L 127.841613 28.724541 
L 128.859552 28.724541 
L 128.859552 22.412603 
L 129.87749 22.412603 
L 129.87749 17.28 
L 130.895429 17.28 
L 130.895429 28.226231 
L 131.913367 28.226231 
L 131.913367 21.067163 
L 132.931306 21.067163 
L 132.931306 25.086872 
L 133.949245 25.086872 
L 133.949245 23.077017 
L 134.967183 23.077017 
L 134.967183 19.389516 
L 135.985122 19.389516 
L 135.985122 28.276062 
L 137.00306 28.276062 
L 137.00306 21.017332 
L 138.020999 21.017332 
L 138.020999 18.426115 
L 139.038938 18.426115 
L 139.038938 34.13952 
L 140.056876 34.13952 
L 140.056876 32.345601 
L 141.074815 32.345601 
L 141.074815 31.36559 
L 142.092753 31.36559 
L 142.092753 26.166545 
L 143.110692 26.166545 
L 143.110692 40.650784 
L 144.12863 40.650784 
L 144.12863 51.729897 
L 145.146569 51.729897 
L 145.146569 47.627137 
L 146.164508 47.627137 
L 146.164508 43.756922 
L 147.182446 43.756922 
L 147.182446 57.161486 
L 148.200385 57.161486 
L 148.200385 61.015091 
L 149.218323 61.015091 
L 149.218323 67.941613 
L 150.236262 67.941613 
L 150.236262 79.701752 
L 151.254201 79.701752 
L 151.254201 68.439924 
L 152.272139 68.439924 
L 152.272139 72.874892 
L 153.290078 72.874892 
L 153.290078 80.914308 
L 154.308016 80.914308 
L 154.308016 85.166562 
L 155.325955 85.166562 
L 155.325955 90.598151 
L 156.343893 90.598151 
L 156.343893 90.332385 
L 157.361832 90.332385 
L 157.361832 98.28875 
L 158.379771 98.28875 
L 158.379771 90.581541 
L 159.397709 90.581541 
L 159.397709 96.112792 
L 160.415648 96.112792 
L 160.415648 104.235261 
L 161.433586 104.235261 
L 161.433586 102.624055 
L 162.451525 102.624055 
L 162.451525 108.886163 
L 163.469464 108.886163 
L 163.469464 118.736109 
L 164.487402 118.736109 
L 164.487402 118.154747 
L 165.505341 118.154747 
L 165.505341 113.686558 
L 166.523279 113.686558 
L 166.523279 120.181211 
L 167.541218 120.181211 
L 167.541218 118.852382 
L 168.559156 118.852382 
L 168.559156 120.995119 
L 169.577095 120.995119 
L 169.577095 125.214152 
L 170.595034 125.214152 
L 170.595034 125.662632 
L 171.612972 125.662632 
L 171.612972 126.642643 
L 172.630911 126.642643 
L 172.630911 134.25019 
L 173.648849 134.25019 
L 173.648849 137.090563 
L 174.666788 137.090563 
L 174.666788 132.489492 
L 175.684727 132.489492 
L 175.684727 142.987242 
L 176.702665 142.987242 
L 176.702665 135.230202 
L 177.720604 135.230202 
L 177.720604 144.897434 
L 178.738542 144.897434 
L 178.738542 141.691634 
L 179.756481 141.691634 
L 179.756481 145.063538 
L 180.774419 145.063538 
L 180.774419 145.744563 
L 181.792358 145.744563 
L 181.792358 146.608302 
L 182.810297 146.608302 
L 182.810297 156.026379 
L 183.828235 156.026379 
L 183.828235 154.348732 
L 184.846174 154.348732 
L 184.846174 151.491749 
L 185.864112 151.491749 
L 185.864112 151.010049 
L 186.882051 151.010049 
L 186.882051 156.624352 
L 187.89999 156.624352 
L 187.89999 158.468102 
L 188.917928 158.468102 
L 188.917928 154.315511 
L 189.935867 154.315511 
L 189.935867 162.072552 
L 190.953805 162.072552 
L 190.953805 165.62717 
L 191.971744 165.62717 
L 191.971744 163.451212 
L 192.989682 163.451212 
L 192.989682 165.693611 
L 194.007621 165.693611 
L 194.007621 164.182068 
L 195.02556 164.182068 
L 195.02556 162.952901 
L 196.043498 162.952901 
L 196.043498 169.447554 
L 197.061437 169.447554 
L 197.061437 174.613377 
L 198.079375 174.613377 
L 198.079375 172.553692 
L 199.097314 172.553692 
L 199.097314 175.825934 
L 200.115253 175.825934 
L 200.115253 172.985562 
L 201.133191 172.985562 
L 201.133191 178.649696 
L 202.15113 178.649696 
L 202.15113 178.782579 
L 203.169068 178.782579 
L 203.169068 183.865351 
L 204.187007 183.865351 
L 204.187007 182.669404 
L 205.204945 182.669404 
L 205.204945 184.430103 
L 206.222884 184.430103 
L 206.222884 187.336917 
L 207.240823 187.336917 
L 207.240823 190.509497 
L 208.258761 190.509497 
L 208.258761 192.286806 
L 209.2767 192.286806 
L 209.2767 188.632525 
L 210.294638 188.632525 
L 210.294638 194.263439 
L 211.312577 194.263439 
L 211.312577 195.575658 
L 212.330516 195.575658 
L 212.330516 198.133654 
L 213.348454 198.133654 
L 213.348454 197.585512 
L 214.366393 197.585512 
L 214.366393 200.043846 
L 215.384331 200.043846 
L 215.384331 199.695028 
L 216.40227 199.695028 
L 216.40227 201.804545 
L 217.420208 201.804545 
L 217.420208 202.269635 
L 218.438147 202.269635 
L 218.438147 205.026956 
L 219.456086 205.026956 
L 219.456086 204.644917 
L 220.474024 204.644917 
L 220.474024 206.721213 
L 221.491963 206.721213 
L 221.491963 205.176449 
L 222.509901 205.176449 
L 222.509901 208.498522 
L 223.52784 208.498522 
L 223.52784 207.601562 
L 224.545779 207.601562 
L 224.545779 209.478533 
L 225.563717 209.478533 
L 225.563717 210.192779 
L 226.581656 210.192779 
L 226.581656 210.923635 
L 227.599594 210.923635 
L 227.599594 212.51823 
L 228.617533 212.51823 
L 228.617533 212.285685 
L 229.635471 212.285685 
L 229.635471 212.96671 
L 230.65341 212.96671 
L 230.65341 214.229098 
L 231.671349 214.229098 
L 231.671349 214.029773 
L 232.689287 214.029773 
L 232.689287 215.441654 
L 234.725164 215.508096 
L 234.725164 216.255562 
L 236.761042 216.322004 
L 236.761042 217.05286 
L 237.77898 217.05286 
L 237.77898 217.318626 
L 238.796919 217.318626 
L 238.796919 217.733885 
L 239.814857 217.733885 
L 239.814857 218.149144 
L 240.832796 218.149144 
L 240.832796 218.531182 
L 241.850734 218.531182 
L 241.850734 218.813559 
L 379.272443 218.88 
L 379.272443 218.88 
" clip-path="url(#p7afc27d0fe)" style="fill: none; stroke: #1f77b4; stroke-width: 1.5; stroke-linecap: square"/>
   </g>
   <g id="line2d_19">
    <path d="M 74.908807 218.88 
L 103.411087 218.88 
L 103.411087 218.730507 
L 106.464903 218.813559 
L 106.464903 218.547793 
L 107.482841 218.547793 
L 107.482841 218.680676 
L 109.518719 218.730507 
L 109.518719 218.547793 
L 111.554596 218.531182 
L 111.554596 218.381689 
L 112.572534 218.381689 
L 112.572534 218.680676 
L 113.590473 218.680676 
L 113.590473 218.381689 
L 114.608412 218.381689 
L 114.608412 218.165754 
L 115.62635 218.165754 
L 115.62635 218.381689 
L 116.644289 218.381689 
L 116.644289 218.016261 
L 119.698104 218.099313 
L 119.698104 217.733885 
L 120.716043 217.733885 
L 120.716043 217.933209 
L 122.75192 217.916599 
L 122.75192 217.434898 
L 124.787797 217.351846 
L 124.787797 217.152522 
L 125.805736 217.152522 
L 125.805736 216.58777 
L 126.823675 216.58777 
L 126.823675 216.936587 
L 127.841613 216.936587 
L 127.841613 216.006407 
L 128.859552 216.006407 
L 128.859552 216.13929 
L 129.87749 216.13929 
L 129.87749 215.391823 
L 131.913367 215.358603 
L 131.913367 214.34537 
L 132.931306 214.34537 
L 132.931306 214.461643 
L 133.949245 214.461643 
L 133.949245 213.182645 
L 134.967183 213.182645 
L 134.967183 212.451789 
L 135.985122 212.451789 
L 135.985122 212.136192 
L 137.00306 212.136192 
L 137.00306 210.641259 
L 138.020999 210.641259 
L 138.020999 209.395482 
L 139.038938 209.395482 
L 139.038938 207.800887 
L 141.074815 207.834107 
L 141.074815 204.644917 
L 142.092753 204.644917 
L 142.092753 202.817777 
L 143.110692 202.817777 
L 143.110692 200.309612 
L 144.12863 200.309612 
L 144.12863 199.412652 
L 145.146569 199.412652 
L 145.146569 195.509216 
L 146.164508 195.509216 
L 146.164508 194.130556 
L 147.182446 194.130556 
L 147.182446 191.256963 
L 148.200385 191.256963 
L 148.200385 189.994575 
L 149.218323 189.994575 
L 149.218323 186.140971 
L 150.236262 186.140971 
L 150.236262 185.426725 
L 151.254201 185.426725 
L 151.254201 180.526667 
L 152.272139 180.526667 
L 152.272139 181.307354 
L 153.290078 181.307354 
L 153.290078 173.417431 
L 154.308016 173.417431 
L 154.308016 170.676721 
L 155.325955 170.676721 
L 155.325955 170.228241 
L 156.343893 170.228241 
L 156.343893 167.570583 
L 157.361832 167.570583 
L 157.361832 160.112529 
L 158.379771 160.112529 
L 158.379771 159.215569 
L 159.397709 159.215569 
L 159.397709 158.899972 
L 160.415648 158.899972 
L 160.415648 151.209373 
L 161.433586 151.209373 
L 161.433586 149.797492 
L 162.451525 149.797492 
L 162.451525 145.113369 
L 163.469464 145.113369 
L 163.469464 144.282851 
L 164.487402 144.282851 
L 164.487402 140.429246 
L 165.505341 140.429246 
L 165.505341 134.466125 
L 166.523279 134.466125 
L 166.523279 132.622375 
L 167.541218 132.622375 
L 167.541218 126.04467 
L 168.559156 126.04467 
L 168.559156 122.672766 
L 169.577095 122.672766 
L 169.577095 119.251031 
L 170.595034 119.251031 
L 170.595034 116.643203 
L 171.612972 116.643203 
L 171.612972 114.849284 
L 172.630911 114.849284 
L 172.630911 112.922482 
L 173.648849 112.922482 
L 173.648849 112.573664 
L 174.666788 112.573664 
L 174.666788 110.729913 
L 175.684727 110.729913 
L 175.684727 108.221748 
L 176.702665 108.221748 
L 176.702665 107.540723 
L 177.720604 107.540723 
L 177.720604 105.364766 
L 178.738542 105.364766 
L 178.738542 104.285092 
L 179.756481 104.285092 
L 179.756481 105.015948 
L 180.774419 105.015948 
L 180.774419 108.3048 
L 181.792358 108.3048 
L 181.792358 103.786781 
L 182.810297 103.786781 
L 182.810297 101.129123 
L 183.828235 101.129123 
L 183.828235 102.574224 
L 184.846174 102.574224 
L 184.846174 104.085767 
L 185.864112 104.085767 
L 185.864112 100.664032 
L 186.882051 100.664032 
L 186.882051 102.524393 
L 187.89999 102.524393 
L 187.89999 101.826758 
L 188.917928 101.826758 
L 188.917928 95.830416 
L 189.935867 95.830416 
L 189.935867 100.946409 
L 190.953805 100.946409 
L 190.953805 102.457952 
L 191.971744 102.457952 
L 191.971744 101.893199 
L 192.989682 101.893199 
L 192.989682 103.404743 
L 194.007621 103.404743 
L 194.007621 101.743706 
L 195.02556 101.743706 
L 195.02556 102.026082 
L 196.043498 102.026082 
L 196.043498 100.780305 
L 197.061437 100.780305 
L 197.061437 96.445 
L 199.097314 96.445 
L 199.097314 108.587176 
L 200.115253 108.587176 
L 200.115253 103.155587 
L 201.133191 103.155587 
L 201.133191 104.550858 
L 202.15113 104.550858 
L 202.15113 98.770451 
L 203.169068 98.770451 
L 203.169068 101.195564 
L 204.187007 101.195564 
L 204.187007 103.786781 
L 205.204945 103.786781 
L 205.204945 101.178954 
L 206.222884 101.178954 
L 206.222884 106.544102 
L 207.240823 106.544102 
L 207.240823 110.065499 
L 208.258761 110.065499 
L 208.258761 102.574224 
L 209.2767 102.574224 
L 209.2767 107.009192 
L 210.294638 107.009192 
L 210.294638 109.002436 
L 211.312577 109.002436 
L 211.312577 105.613921 
L 212.330516 105.613921 
L 212.330516 110.779745 
L 213.348454 110.779745 
L 213.348454 114.566908 
L 214.366393 114.566908 
L 214.366393 108.105476 
L 215.384331 108.105476 
L 215.384331 119.084927 
L 216.40227 119.084927 
L 216.40227 117.922202 
L 217.420208 117.922202 
L 217.420208 108.686839 
L 218.438147 108.686839 
L 218.438147 119.400524 
L 219.456086 119.400524 
L 219.456086 125.413476 
L 220.474024 125.413476 
L 220.474024 124.732451 
L 221.491963 124.732451 
L 221.491963 122.955142 
L 222.509901 122.955142 
L 222.509901 131.110831 
L 223.52784 131.110831 
L 223.52784 125.347035 
L 224.545779 125.347035 
L 224.545779 127.124344 
L 225.563717 127.124344 
L 225.563717 133.32001 
L 226.581656 133.32001 
L 226.581656 130.097599 
L 227.599594 130.097599 
L 227.599594 132.971192 
L 228.617533 132.971192 
L 228.617533 130.413196 
L 229.635471 130.413196 
L 229.635471 135.828175 
L 230.65341 135.828175 
L 230.65341 136.442759 
L 231.671349 136.442759 
L 231.671349 134.914605 
L 232.689287 134.914605 
L 232.689287 138.984144 
L 233.707226 138.984144 
L 233.707226 144.6815 
L 234.725164 144.6815 
L 234.725164 146.359146 
L 235.743103 146.359146 
L 235.743103 141.193323 
L 236.761042 141.193323 
L 236.761042 143.684878 
L 237.77898 143.684878 
L 237.77898 142.023841 
L 238.796919 142.023841 
L 238.796919 144.100137 
L 239.814857 144.100137 
L 239.814857 146.193043 
L 240.832796 146.193043 
L 240.832796 144.149968 
L 241.850734 144.149968 
L 241.850734 148.036793 
L 242.868673 148.036793 
L 242.868673 153.119565 
L 243.886612 153.119565 
L 243.886612 154.498225 
L 244.90455 154.498225 
L 244.90455 150.810724 
L 245.922489 150.810724 
L 245.922489 151.109711 
L 246.940427 151.109711 
L 246.940427 154.880264 
L 247.958366 154.880264 
L 247.958366 157.753857 
L 249.994243 157.836909 
L 249.994243 154.066356 
L 251.012182 154.066356 
L 251.012182 162.670525 
L 252.03012 162.670525 
L 252.03012 159.547776 
L 254.065997 159.597607 
L 254.065997 158.650817 
L 255.083936 158.650817 
L 255.083936 162.952901 
L 256.101875 162.952901 
L 256.101875 155.062978 
L 257.119813 155.062978 
L 257.119813 162.45459 
L 258.137752 162.45459 
L 258.137752 166.374636 
L 259.15569 166.374636 
L 259.15569 166.623792 
L 260.173629 166.623792 
L 260.173629 162.305097 
L 261.191568 162.305097 
L 261.191568 166.424467 
L 262.209506 166.424467 
L 262.209506 167.969231 
L 263.227445 167.969231 
L 263.227445 165.859715 
L 264.245383 165.859715 
L 264.245383 166.324805 
L 265.263322 166.324805 
L 265.263322 166.806506 
L 266.28126 166.806506 
L 266.28126 170.410955 
L 267.299199 170.410955 
L 267.299199 170.278072 
L 268.317138 170.278072 
L 268.317138 172.437419 
L 269.335076 172.437419 
L 269.335076 173.334379 
L 270.353015 173.334379 
L 270.353015 172.603523 
L 271.370953 172.603523 
L 271.370953 169.447554 
L 272.388892 169.447554 
L 272.388892 175.942206 
L 273.406831 175.942206 
L 273.406831 171.57368 
L 274.424769 171.57368 
L 274.424769 177.287646 
L 275.442708 177.287646 
L 275.442708 170.975707 
L 276.460646 170.975707 
L 276.460646 179.148007 
L 277.478585 179.148007 
L 277.478585 177.653074 
L 278.496523 177.653074 
L 278.496523 174.463884 
L 279.514462 174.463884 
L 279.514462 179.164617 
L 280.532401 179.164617 
L 280.532401 176.938828 
L 281.550339 176.938828 
L 281.550339 181.905328 
L 282.568278 181.905328 
L 282.568278 178.217826 
L 283.586216 178.217826 
L 283.586216 180.858875 
L 284.604155 180.858875 
L 284.604155 176.457128 
L 285.622094 176.457128 
L 285.622094 181.157861 
L 286.640032 181.157861 
L 286.640032 182.03821 
L 287.657971 182.03821 
L 287.657971 182.785677 
L 288.675909 182.785677 
L 288.675909 182.45347 
L 289.693848 182.45347 
L 289.693848 179.563266 
L 290.711786 179.563266 
L 290.711786 186.008088 
L 292.747664 185.925036 
L 292.747664 186.971489 
L 293.765602 186.971489 
L 293.765602 180.493446 
L 294.783541 180.493446 
L 294.783541 185.991477 
L 295.801479 185.991477 
L 295.801479 188.499642 
L 297.837357 188.582694 
L 297.837357 184.330441 
L 298.855295 184.330441 
L 298.855295 188.549474 
L 299.873234 188.549474 
L 299.873234 185.576218 
L 300.891172 185.576218 
L 300.891172 186.805385 
L 301.909111 186.805385 
L 301.909111 191.639001 
L 302.927049 191.639001 
L 302.927049 189.778641 
L 303.944988 189.778641 
L 303.944988 190.742042 
L 304.962927 190.742042 
L 304.962927 192.519351 
L 305.980865 192.519351 
L 305.980865 190.758652 
L 306.998804 190.758652 
L 306.998804 193.167155 
L 308.016742 193.167155 
L 308.016742 192.818337 
L 309.034681 192.818337 
L 309.034681 194.147167 
L 310.05262 194.147167 
L 310.05262 193.698687 
L 311.070558 193.698687 
L 311.070558 195.110568 
L 312.088497 195.110568 
L 312.088497 195.924476 
L 313.106435 195.924476 
L 313.106435 197.768226 
L 314.124374 197.768226 
L 314.124374 197.004149 
L 315.142312 197.004149 
L 315.142312 196.788215 
L 316.160251 196.788215 
L 316.160251 197.917719 
L 317.17819 197.917719 
L 317.17819 200.608599 
L 318.196128 200.608599 
L 318.196128 198.100433 
L 319.214067 198.100433 
L 319.214067 201.721493 
L 320.232005 201.721493 
L 320.232005 200.492326 
L 321.249944 200.492326 
L 321.249944 202.635063 
L 322.267883 202.635063 
L 322.267883 202.352687 
L 323.285821 202.352687 
L 323.285821 202.651673 
L 324.30376 202.651673 
L 324.30376 201.738103 
L 325.321698 201.738103 
L 325.321698 203.183205 
L 326.339637 203.183205 
L 326.339637 204.661528 
L 327.357575 204.661528 
L 327.357575 205.475435 
L 328.375514 205.475435 
L 328.375514 206.355785 
L 329.393453 206.355785 
L 329.393453 205.957136 
L 330.411391 205.957136 
L 330.411391 206.455447 
L 331.42933 206.455447 
L 331.42933 206.937148 
L 332.447268 206.937148 
L 332.447268 207.51851 
L 334.483146 207.452069 
L 334.483146 207.933769 
L 335.501084 207.933769 
L 335.501084 208.083263 
L 336.519023 208.083263 
L 336.519023 208.88056 
L 337.536961 208.88056 
L 337.536961 210.159558 
L 338.5549 210.159558 
L 338.5549 209.32904 
L 339.572838 209.32904 
L 339.572838 210.69109 
L 340.590777 210.69109 
L 340.590777 210.275831 
L 342.626654 210.192779 
L 342.626654 212.617892 
L 343.644593 212.617892 
L 343.644593 211.770764 
L 344.662531 211.770764 
L 344.662531 210.657869 
L 345.68047 210.657869 
L 345.68047 211.986699 
L 346.698409 211.986699 
L 346.698409 212.667723 
L 347.716347 212.667723 
L 347.716347 212.368737 
L 348.734286 212.368737 
L 348.734286 213.166034 
L 349.752224 213.166034 
L 349.752224 212.98332 
L 350.770163 212.98332 
L 350.770163 214.694188 
L 351.788101 214.694188 
L 351.788101 213.166034 
L 352.80604 213.166034 
L 352.80604 214.395201 
L 353.823979 214.395201 
L 353.823979 214.993175 
L 354.841917 214.993175 
L 354.841917 215.25894 
L 355.859856 215.25894 
L 355.859856 214.827071 
L 356.877794 214.827071 
L 356.877794 215.807082 
L 357.895733 215.807082 
L 357.895733 214.910123 
L 358.913672 214.910123 
L 358.913672 216.072848 
L 359.93161 216.072848 
L 359.93161 216.222342 
L 360.949549 216.222342 
L 360.949549 215.989796 
L 361.967487 215.989796 
L 361.967487 216.62099 
L 364.003364 216.537939 
L 364.003364 217.152522 
L 365.021303 217.152522 
L 365.021303 216.737263 
L 366.039242 216.737263 
L 366.039242 217.53456 
L 367.05718 217.53456 
L 367.05718 217.218964 
L 368.075119 217.218964 
L 368.075119 217.484729 
L 369.093057 217.484729 
L 369.093057 217.634223 
L 370.110996 217.634223 
L 370.110996 218.032871 
L 371.128935 218.032871 
L 371.128935 217.916599 
L 372.146873 217.916599 
L 372.146873 218.132534 
L 374.18275 218.232196 
L 374.18275 218.464741 
L 376.218627 218.497962 
L 376.218627 218.697286 
L 378.254505 218.780338 
L 378.254505 218.846779 
L 379.272443 218.846779 
L 379.272443 218.846779 
" clip-path="url(#p7afc27d0fe)" style="fill: none; stroke: #ff7f0e; stroke-width: 1.5; stroke-linecap: square"/>
   </g>
  </g>
 </g>
 <defs>
  <clipPath id="p7afc27d0fe">
   <rect x="59.690625" y="7.2" width="334.8" height="221.76"/>
  </clipPath>
 </defs>
</svg>
