<?xml version="1.0" encoding="utf-8" standalone="no"?>
<!DOCTYPE svg PUBLIC "-//W3C//DTD SVG 1.1//EN"
  "http://www.w3.org/Graphics/SVG/1.1/DTD/svg11.dtd">
<svg xmlns:xlink="http://www.w3.org/1999/xlink" width="401.690625pt" height="266.51625pt" viewBox="0 0 401.690625 266.51625" xmlns="http://www.w3.org/2000/svg" version="1.1">
 <metadata>
  <rdf:RDF xmlns:dc="http://purl.org/dc/elements/1.1/" xmlns:cc="http://creativecommons.org/ns#" xmlns:rdf="http://www.w3.org/1999/02/22-rdf-syntax-ns#">
   <cc:Work>
    <dc:type rdf:resource="http://purl.org/dc/dcmitype/StillImage"/>
    <dc:date>2025-07-15T15:01:03.861669</dc:date>
    <dc:format>image/svg+xml</dc:format>
    <dc:creator>
     <cc:Agent>
      <dc:title>Matplotlib v3.10.3, https://matplotlib.org/</dc:title>
     </cc:Agent>
    </dc:creator>
   </cc:Work>
  </rdf:RDF>
 </metadata>
 <defs>
  <style type="text/css">*{stroke-linejoin: round; stroke-linecap: butt}</style>
 </defs>
 <g id="figure_1">
  <g id="patch_1">
   <path d="M 0 266.51625 
L 401.690625 266.51625 
L 401.690625 0 
L 0 0 
z
" style="fill: #ffffff"/>
  </g>
  <g id="axes_1">
   <g id="patch_2">
    <path d="M 59.690625 228.96 
L 394.490625 228.96 
L 394.490625 7.2 
L 59.690625 7.2 
z
" style="fill: #ffffff"/>
   </g>
   <g id="matplotlib.axis_1">
    <g id="xtick_1">
     <g id="line2d_1">
      <defs>
       <path id="m2399657ae6" d="M 0 0 
L 0 3.5 
" style="stroke: #000000; stroke-width: 0.8"/>
      </defs>
      <g>
       <use xlink:href="#m2399657ae6" x="80.282937" y="228.96" style="stroke: #000000; stroke-width: 0.8"/>
      </g>
     </g>
     <g id="text_1">
      <!-- 20000 -->
      <g transform="translate(64.376687 243.558437) scale(0.1 -0.1)">
       <defs>
        <path id="DejaVuSans-32" d="M 1228 531 
L 3431 531 
L 3431 0 
L 469 0 
L 469 531 
Q 828 903 1448 1529 
Q 2069 2156 2228 2338 
Q 2531 2678 2651 2914 
Q 2772 3150 2772 3378 
Q 2772 3750 2511 3984 
Q 2250 4219 1831 4219 
Q 1534 4219 1204 4116 
Q 875 4013 500 3803 
L 500 4441 
Q 881 4594 1212 4672 
Q 1544 4750 1819 4750 
Q 2544 4750 2975 4387 
Q 3406 4025 3406 3419 
Q 3406 3131 3298 2873 
Q 3191 2616 2906 2266 
Q 2828 2175 2409 1742 
Q 1991 1309 1228 531 
z
" transform="scale(0.015625)"/>
        <path id="DejaVuSans-30" d="M 2034 4250 
Q 1547 4250 1301 3770 
Q 1056 3291 1056 2328 
Q 1056 1369 1301 889 
Q 1547 409 2034 409 
Q 2525 409 2770 889 
Q 3016 1369 3016 2328 
Q 3016 3291 2770 3770 
Q 2525 4250 2034 4250 
z
M 2034 4750 
Q 2819 4750 3233 4129 
Q 3647 3509 3647 2328 
Q 3647 1150 3233 529 
Q 2819 -91 2034 -91 
Q 1250 -91 836 529 
Q 422 1150 422 2328 
Q 422 3509 836 4129 
Q 1250 4750 2034 4750 
z
" transform="scale(0.015625)"/>
       </defs>
       <use xlink:href="#DejaVuSans-32"/>
       <use xlink:href="#DejaVuSans-30" transform="translate(63.623047 0)"/>
       <use xlink:href="#DejaVuSans-30" transform="translate(127.246094 0)"/>
       <use xlink:href="#DejaVuSans-30" transform="translate(190.869141 0)"/>
       <use xlink:href="#DejaVuSans-30" transform="translate(254.492188 0)"/>
      </g>
     </g>
    </g>
    <g id="xtick_2">
     <g id="line2d_2">
      <g>
       <use xlink:href="#m2399657ae6" x="121.00048" y="228.96" style="stroke: #000000; stroke-width: 0.8"/>
      </g>
     </g>
     <g id="text_2">
      <!-- 40000 -->
      <g transform="translate(105.09423 243.558437) scale(0.1 -0.1)">
       <defs>
        <path id="DejaVuSans-34" d="M 2419 4116 
L 825 1625 
L 2419 1625 
L 2419 4116 
z
M 2253 4666 
L 3047 4666 
L 3047 1625 
L 3713 1625 
L 3713 1100 
L 3047 1100 
L 3047 0 
L 2419 0 
L 2419 1100 
L 313 1100 
L 313 1709 
L 2253 4666 
z
" transform="scale(0.015625)"/>
       </defs>
       <use xlink:href="#DejaVuSans-34"/>
       <use xlink:href="#DejaVuSans-30" transform="translate(63.623047 0)"/>
       <use xlink:href="#DejaVuSans-30" transform="translate(127.246094 0)"/>
       <use xlink:href="#DejaVuSans-30" transform="translate(190.869141 0)"/>
       <use xlink:href="#DejaVuSans-30" transform="translate(254.492188 0)"/>
      </g>
     </g>
    </g>
    <g id="xtick_3">
     <g id="line2d_3">
      <g>
       <use xlink:href="#m2399657ae6" x="161.718023" y="228.96" style="stroke: #000000; stroke-width: 0.8"/>
      </g>
     </g>
     <g id="text_3">
      <!-- 60000 -->
      <g transform="translate(145.811773 243.558437) scale(0.1 -0.1)">
       <defs>
        <path id="DejaVuSans-36" d="M 2113 2584 
Q 1688 2584 1439 2293 
Q 1191 2003 1191 1497 
Q 1191 994 1439 701 
Q 1688 409 2113 409 
Q 2538 409 2786 701 
Q 3034 994 3034 1497 
Q 3034 2003 2786 2293 
Q 2538 2584 2113 2584 
z
M 3366 4563 
L 3366 3988 
Q 3128 4100 2886 4159 
Q 2644 4219 2406 4219 
Q 1781 4219 1451 3797 
Q 1122 3375 1075 2522 
Q 1259 2794 1537 2939 
Q 1816 3084 2150 3084 
Q 2853 3084 3261 2657 
Q 3669 2231 3669 1497 
Q 3669 778 3244 343 
Q 2819 -91 2113 -91 
Q 1303 -91 875 529 
Q 447 1150 447 2328 
Q 447 3434 972 4092 
Q 1497 4750 2381 4750 
Q 2619 4750 2861 4703 
Q 3103 4656 3366 4563 
z
" transform="scale(0.015625)"/>
       </defs>
       <use xlink:href="#DejaVuSans-36"/>
       <use xlink:href="#DejaVuSans-30" transform="translate(63.623047 0)"/>
       <use xlink:href="#DejaVuSans-30" transform="translate(127.246094 0)"/>
       <use xlink:href="#DejaVuSans-30" transform="translate(190.869141 0)"/>
       <use xlink:href="#DejaVuSans-30" transform="translate(254.492188 0)"/>
      </g>
     </g>
    </g>
    <g id="xtick_4">
     <g id="line2d_4">
      <g>
       <use xlink:href="#m2399657ae6" x="202.435567" y="228.96" style="stroke: #000000; stroke-width: 0.8"/>
      </g>
     </g>
     <g id="text_4">
      <!-- 80000 -->
      <g transform="translate(186.529317 243.558437) scale(0.1 -0.1)">
       <defs>
        <path id="DejaVuSans-38" d="M 2034 2216 
Q 1584 2216 1326 1975 
Q 1069 1734 1069 1313 
Q 1069 891 1326 650 
Q 1584 409 2034 409 
Q 2484 409 2743 651 
Q 3003 894 3003 1313 
Q 3003 1734 2745 1975 
Q 2488 2216 2034 2216 
z
M 1403 2484 
Q 997 2584 770 2862 
Q 544 3141 544 3541 
Q 544 4100 942 4425 
Q 1341 4750 2034 4750 
Q 2731 4750 3128 4425 
Q 3525 4100 3525 3541 
Q 3525 3141 3298 2862 
Q 3072 2584 2669 2484 
Q 3125 2378 3379 2068 
Q 3634 1759 3634 1313 
Q 3634 634 3220 271 
Q 2806 -91 2034 -91 
Q 1263 -91 848 271 
Q 434 634 434 1313 
Q 434 1759 690 2068 
Q 947 2378 1403 2484 
z
M 1172 3481 
Q 1172 3119 1398 2916 
Q 1625 2713 2034 2713 
Q 2441 2713 2670 2916 
Q 2900 3119 2900 3481 
Q 2900 3844 2670 4047 
Q 2441 4250 2034 4250 
Q 1625 4250 1398 4047 
Q 1172 3844 1172 3481 
z
" transform="scale(0.015625)"/>
       </defs>
       <use xlink:href="#DejaVuSans-38"/>
       <use xlink:href="#DejaVuSans-30" transform="translate(63.623047 0)"/>
       <use xlink:href="#DejaVuSans-30" transform="translate(127.246094 0)"/>
       <use xlink:href="#DejaVuSans-30" transform="translate(190.869141 0)"/>
       <use xlink:href="#DejaVuSans-30" transform="translate(254.492188 0)"/>
      </g>
     </g>
    </g>
    <g id="xtick_5">
     <g id="line2d_5">
      <g>
       <use xlink:href="#m2399657ae6" x="243.15311" y="228.96" style="stroke: #000000; stroke-width: 0.8"/>
      </g>
     </g>
     <g id="text_5">
      <!-- 100000 -->
      <g transform="translate(224.06561 243.558437) scale(0.1 -0.1)">
       <defs>
        <path id="DejaVuSans-31" d="M 794 531 
L 1825 531 
L 1825 4091 
L 703 3866 
L 703 4441 
L 1819 4666 
L 2450 4666 
L 2450 531 
L 3481 531 
L 3481 0 
L 794 0 
L 794 531 
z
" transform="scale(0.015625)"/>
       </defs>
       <use xlink:href="#DejaVuSans-31"/>
       <use xlink:href="#DejaVuSans-30" transform="translate(63.623047 0)"/>
       <use xlink:href="#DejaVuSans-30" transform="translate(127.246094 0)"/>
       <use xlink:href="#DejaVuSans-30" transform="translate(190.869141 0)"/>
       <use xlink:href="#DejaVuSans-30" transform="translate(254.492188 0)"/>
       <use xlink:href="#DejaVuSans-30" transform="translate(318.115234 0)"/>
      </g>
     </g>
    </g>
    <g id="xtick_6">
     <g id="line2d_6">
      <g>
       <use xlink:href="#m2399657ae6" x="283.870653" y="228.96" style="stroke: #000000; stroke-width: 0.8"/>
      </g>
     </g>
     <g id="text_6">
      <!-- 120000 -->
      <g transform="translate(264.783153 243.558437) scale(0.1 -0.1)">
       <use xlink:href="#DejaVuSans-31"/>
       <use xlink:href="#DejaVuSans-32" transform="translate(63.623047 0)"/>
       <use xlink:href="#DejaVuSans-30" transform="translate(127.246094 0)"/>
       <use xlink:href="#DejaVuSans-30" transform="translate(190.869141 0)"/>
       <use xlink:href="#DejaVuSans-30" transform="translate(254.492188 0)"/>
       <use xlink:href="#DejaVuSans-30" transform="translate(318.115234 0)"/>
      </g>
     </g>
    </g>
    <g id="xtick_7">
     <g id="line2d_7">
      <g>
       <use xlink:href="#m2399657ae6" x="324.588197" y="228.96" style="stroke: #000000; stroke-width: 0.8"/>
      </g>
     </g>
     <g id="text_7">
      <!-- 140000 -->
      <g transform="translate(305.500697 243.558437) scale(0.1 -0.1)">
       <use xlink:href="#DejaVuSans-31"/>
       <use xlink:href="#DejaVuSans-34" transform="translate(63.623047 0)"/>
       <use xlink:href="#DejaVuSans-30" transform="translate(127.246094 0)"/>
       <use xlink:href="#DejaVuSans-30" transform="translate(190.869141 0)"/>
       <use xlink:href="#DejaVuSans-30" transform="translate(254.492188 0)"/>
       <use xlink:href="#DejaVuSans-30" transform="translate(318.115234 0)"/>
      </g>
     </g>
    </g>
    <g id="xtick_8">
     <g id="line2d_8">
      <g>
       <use xlink:href="#m2399657ae6" x="365.30574" y="228.96" style="stroke: #000000; stroke-width: 0.8"/>
      </g>
     </g>
     <g id="text_8">
      <!-- 160000 -->
      <g transform="translate(346.21824 243.558437) scale(0.1 -0.1)">
       <use xlink:href="#DejaVuSans-31"/>
       <use xlink:href="#DejaVuSans-36" transform="translate(63.623047 0)"/>
       <use xlink:href="#DejaVuSans-30" transform="translate(127.246094 0)"/>
       <use xlink:href="#DejaVuSans-30" transform="translate(190.869141 0)"/>
       <use xlink:href="#DejaVuSans-30" transform="translate(254.492188 0)"/>
       <use xlink:href="#DejaVuSans-30" transform="translate(318.115234 0)"/>
      </g>
     </g>
    </g>
    <g id="text_9">
     <!-- tof [µs] -->
     <g transform="translate(209.034375 257.236562) scale(0.1 -0.1)">
      <defs>
       <path id="DejaVuSans-74" d="M 1172 4494 
L 1172 3500 
L 2356 3500 
L 2356 3053 
L 1172 3053 
L 1172 1153 
Q 1172 725 1289 603 
Q 1406 481 1766 481 
L 2356 481 
L 2356 0 
L 1766 0 
Q 1100 0 847 248 
Q 594 497 594 1153 
L 594 3053 
L 172 3053 
L 172 3500 
L 594 3500 
L 594 4494 
L 1172 4494 
z
" transform="scale(0.015625)"/>
       <path id="DejaVuSans-6f" d="M 1959 3097 
Q 1497 3097 1228 2736 
Q 959 2375 959 1747 
Q 959 1119 1226 758 
Q 1494 397 1959 397 
Q 2419 397 2687 759 
Q 2956 1122 2956 1747 
Q 2956 2369 2687 2733 
Q 2419 3097 1959 3097 
z
M 1959 3584 
Q 2709 3584 3137 3096 
Q 3566 2609 3566 1747 
Q 3566 888 3137 398 
Q 2709 -91 1959 -91 
Q 1206 -91 779 398 
Q 353 888 353 1747 
Q 353 2609 779 3096 
Q 1206 3584 1959 3584 
z
" transform="scale(0.015625)"/>
       <path id="DejaVuSans-66" d="M 2375 4863 
L 2375 4384 
L 1825 4384 
Q 1516 4384 1395 4259 
Q 1275 4134 1275 3809 
L 1275 3500 
L 2222 3500 
L 2222 3053 
L 1275 3053 
L 1275 0 
L 697 0 
L 697 3053 
L 147 3053 
L 147 3500 
L 697 3500 
L 697 3744 
Q 697 4328 969 4595 
Q 1241 4863 1831 4863 
L 2375 4863 
z
" transform="scale(0.015625)"/>
       <path id="DejaVuSans-20" transform="scale(0.015625)"/>
       <path id="DejaVuSans-5b" d="M 550 4863 
L 1875 4863 
L 1875 4416 
L 1125 4416 
L 1125 -397 
L 1875 -397 
L 1875 -844 
L 550 -844 
L 550 4863 
z
" transform="scale(0.015625)"/>
       <path id="DejaVuSans-b5" d="M 544 -1331 
L 544 3500 
L 1119 3500 
L 1119 1325 
Q 1119 872 1334 640 
Q 1550 409 1972 409 
Q 2434 409 2667 671 
Q 2900 934 2900 1459 
L 2900 3500 
L 3475 3500 
L 3475 806 
Q 3475 619 3529 530 
Q 3584 441 3700 441 
Q 3728 441 3778 458 
Q 3828 475 3916 513 
L 3916 50 
Q 3788 -22 3673 -56 
Q 3559 -91 3450 -91 
Q 3234 -91 3106 31 
Q 2978 153 2931 403 
Q 2775 156 2548 32 
Q 2322 -91 2016 -91 
Q 1697 -91 1473 31 
Q 1250 153 1119 397 
L 1119 -1331 
L 544 -1331 
z
" transform="scale(0.015625)"/>
       <path id="DejaVuSans-73" d="M 2834 3397 
L 2834 2853 
Q 2591 2978 2328 3040 
Q 2066 3103 1784 3103 
Q 1356 3103 1142 2972 
Q 928 2841 928 2578 
Q 928 2378 1081 2264 
Q 1234 2150 1697 2047 
L 1894 2003 
Q 2506 1872 2764 1633 
Q 3022 1394 3022 966 
Q 3022 478 2636 193 
Q 2250 -91 1575 -91 
Q 1294 -91 989 -36 
Q 684 19 347 128 
L 347 722 
Q 666 556 975 473 
Q 1284 391 1588 391 
Q 1994 391 2212 530 
Q 2431 669 2431 922 
Q 2431 1156 2273 1281 
Q 2116 1406 1581 1522 
L 1381 1569 
Q 847 1681 609 1914 
Q 372 2147 372 2553 
Q 372 3047 722 3315 
Q 1072 3584 1716 3584 
Q 2034 3584 2315 3537 
Q 2597 3491 2834 3397 
z
" transform="scale(0.015625)"/>
       <path id="DejaVuSans-5d" d="M 1947 4863 
L 1947 -844 
L 622 -844 
L 622 -397 
L 1369 -397 
L 1369 4416 
L 622 4416 
L 622 4863 
L 1947 4863 
z
" transform="scale(0.015625)"/>
      </defs>
      <use xlink:href="#DejaVuSans-74"/>
      <use xlink:href="#DejaVuSans-6f" transform="translate(39.208984 0)"/>
      <use xlink:href="#DejaVuSans-66" transform="translate(100.390625 0)"/>
      <use xlink:href="#DejaVuSans-20" transform="translate(135.595703 0)"/>
      <use xlink:href="#DejaVuSans-5b" transform="translate(167.382812 0)"/>
      <use xlink:href="#DejaVuSans-b5" transform="translate(206.396484 0)"/>
      <use xlink:href="#DejaVuSans-73" transform="translate(270.019531 0)"/>
      <use xlink:href="#DejaVuSans-5d" transform="translate(322.119141 0)"/>
     </g>
    </g>
   </g>
   <g id="matplotlib.axis_2">
    <g id="ytick_1">
     <g id="line2d_9">
      <defs>
       <path id="mc1b927bdb9" d="M 0 0 
L -3.5 0 
" style="stroke: #000000; stroke-width: 0.8"/>
      </defs>
      <g>
       <use xlink:href="#mc1b927bdb9" x="59.690625" y="218.88" style="stroke: #000000; stroke-width: 0.8"/>
      </g>
     </g>
     <g id="text_10">
      <!-- 0 -->
      <g transform="translate(46.328125 222.679219) scale(0.1 -0.1)">
       <use xlink:href="#DejaVuSans-30"/>
      </g>
     </g>
    </g>
    <g id="ytick_2">
     <g id="line2d_10">
      <g>
       <use xlink:href="#mc1b927bdb9" x="59.690625" y="185.828111" style="stroke: #000000; stroke-width: 0.8"/>
      </g>
     </g>
     <g id="text_11">
      <!-- 2000 -->
      <g transform="translate(27.240625 189.627329) scale(0.1 -0.1)">
       <use xlink:href="#DejaVuSans-32"/>
       <use xlink:href="#DejaVuSans-30" transform="translate(63.623047 0)"/>
       <use xlink:href="#DejaVuSans-30" transform="translate(127.246094 0)"/>
       <use xlink:href="#DejaVuSans-30" transform="translate(190.869141 0)"/>
      </g>
     </g>
    </g>
    <g id="ytick_3">
     <g id="line2d_11">
      <g>
       <use xlink:href="#mc1b927bdb9" x="59.690625" y="152.776221" style="stroke: #000000; stroke-width: 0.8"/>
      </g>
     </g>
     <g id="text_12">
      <!-- 4000 -->
      <g transform="translate(27.240625 156.57544) scale(0.1 -0.1)">
       <use xlink:href="#DejaVuSans-34"/>
       <use xlink:href="#DejaVuSans-30" transform="translate(63.623047 0)"/>
       <use xlink:href="#DejaVuSans-30" transform="translate(127.246094 0)"/>
       <use xlink:href="#DejaVuSans-30" transform="translate(190.869141 0)"/>
      </g>
     </g>
    </g>
    <g id="ytick_4">
     <g id="line2d_12">
      <g>
       <use xlink:href="#mc1b927bdb9" x="59.690625" y="119.724332" style="stroke: #000000; stroke-width: 0.8"/>
      </g>
     </g>
     <g id="text_13">
      <!-- 6000 -->
      <g transform="translate(27.240625 123.52355) scale(0.1 -0.1)">
       <use xlink:href="#DejaVuSans-36"/>
       <use xlink:href="#DejaVuSans-30" transform="translate(63.623047 0)"/>
       <use xlink:href="#DejaVuSans-30" transform="translate(127.246094 0)"/>
       <use xlink:href="#DejaVuSans-30" transform="translate(190.869141 0)"/>
      </g>
     </g>
    </g>
    <g id="ytick_5">
     <g id="line2d_13">
      <g>
       <use xlink:href="#mc1b927bdb9" x="59.690625" y="86.672442" style="stroke: #000000; stroke-width: 0.8"/>
      </g>
     </g>
     <g id="text_14">
      <!-- 8000 -->
      <g transform="translate(27.240625 90.471661) scale(0.1 -0.1)">
       <use xlink:href="#DejaVuSans-38"/>
       <use xlink:href="#DejaVuSans-30" transform="translate(63.623047 0)"/>
       <use xlink:href="#DejaVuSans-30" transform="translate(127.246094 0)"/>
       <use xlink:href="#DejaVuSans-30" transform="translate(190.869141 0)"/>
      </g>
     </g>
    </g>
    <g id="ytick_6">
     <g id="line2d_14">
      <g>
       <use xlink:href="#mc1b927bdb9" x="59.690625" y="53.620553" style="stroke: #000000; stroke-width: 0.8"/>
      </g>
     </g>
     <g id="text_15">
      <!-- 10000 -->
      <g transform="translate(20.878125 57.419771) scale(0.1 -0.1)">
       <use xlink:href="#DejaVuSans-31"/>
       <use xlink:href="#DejaVuSans-30" transform="translate(63.623047 0)"/>
       <use xlink:href="#DejaVuSans-30" transform="translate(127.246094 0)"/>
       <use xlink:href="#DejaVuSans-30" transform="translate(190.869141 0)"/>
       <use xlink:href="#DejaVuSans-30" transform="translate(254.492188 0)"/>
      </g>
     </g>
    </g>
    <g id="ytick_7">
     <g id="line2d_15">
      <g>
       <use xlink:href="#mc1b927bdb9" x="59.690625" y="20.568663" style="stroke: #000000; stroke-width: 0.8"/>
      </g>
     </g>
     <g id="text_16">
      <!-- 12000 -->
      <g transform="translate(20.878125 24.367882) scale(0.1 -0.1)">
       <use xlink:href="#DejaVuSans-31"/>
       <use xlink:href="#DejaVuSans-32" transform="translate(63.623047 0)"/>
       <use xlink:href="#DejaVuSans-30" transform="translate(127.246094 0)"/>
       <use xlink:href="#DejaVuSans-30" transform="translate(190.869141 0)"/>
       <use xlink:href="#DejaVuSans-30" transform="translate(254.492188 0)"/>
      </g>
     </g>
    </g>
    <g id="text_17">
     <!-- [counts] -->
     <g transform="translate(14.798438 138.6925) rotate(-90) scale(0.1 -0.1)">
      <defs>
       <path id="DejaVuSans-63" d="M 3122 3366 
L 3122 2828 
Q 2878 2963 2633 3030 
Q 2388 3097 2138 3097 
Q 1578 3097 1268 2742 
Q 959 2388 959 1747 
Q 959 1106 1268 751 
Q 1578 397 2138 397 
Q 2388 397 2633 464 
Q 2878 531 3122 666 
L 3122 134 
Q 2881 22 2623 -34 
Q 2366 -91 2075 -91 
Q 1284 -91 818 406 
Q 353 903 353 1747 
Q 353 2603 823 3093 
Q 1294 3584 2113 3584 
Q 2378 3584 2631 3529 
Q 2884 3475 3122 3366 
z
" transform="scale(0.015625)"/>
       <path id="DejaVuSans-75" d="M 544 1381 
L 544 3500 
L 1119 3500 
L 1119 1403 
Q 1119 906 1312 657 
Q 1506 409 1894 409 
Q 2359 409 2629 706 
Q 2900 1003 2900 1516 
L 2900 3500 
L 3475 3500 
L 3475 0 
L 2900 0 
L 2900 538 
Q 2691 219 2414 64 
Q 2138 -91 1772 -91 
Q 1169 -91 856 284 
Q 544 659 544 1381 
z
M 1991 3584 
L 1991 3584 
z
" transform="scale(0.015625)"/>
       <path id="DejaVuSans-6e" d="M 3513 2113 
L 3513 0 
L 2938 0 
L 2938 2094 
Q 2938 2591 2744 2837 
Q 2550 3084 2163 3084 
Q 1697 3084 1428 2787 
Q 1159 2491 1159 1978 
L 1159 0 
L 581 0 
L 581 3500 
L 1159 3500 
L 1159 2956 
Q 1366 3272 1645 3428 
Q 1925 3584 2291 3584 
Q 2894 3584 3203 3211 
Q 3513 2838 3513 2113 
z
" transform="scale(0.015625)"/>
      </defs>
      <use xlink:href="#DejaVuSans-5b"/>
      <use xlink:href="#DejaVuSans-63" transform="translate(39.013672 0)"/>
      <use xlink:href="#DejaVuSans-6f" transform="translate(93.994141 0)"/>
      <use xlink:href="#DejaVuSans-75" transform="translate(155.175781 0)"/>
      <use xlink:href="#DejaVuSans-6e" transform="translate(218.554688 0)"/>
      <use xlink:href="#DejaVuSans-74" transform="translate(281.933594 0)"/>
      <use xlink:href="#DejaVuSans-73" transform="translate(321.142578 0)"/>
      <use xlink:href="#DejaVuSans-5d" transform="translate(373.242188 0)"/>
     </g>
    </g>
   </g>
   <g id="line2d_16">
    <path d="M 74.908807 218.698215 
L 77.962623 218.648637 
L 77.962623 218.582533 
L 82.034377 218.566007 
L 82.034377 218.334644 
L 83.052315 218.334644 
L 83.052315 218.18591 
L 85.088193 218.26854 
L 85.088193 217.624028 
L 86.106131 217.624028 
L 86.106131 217.904969 
L 87.12407 217.904969 
L 87.12407 217.723184 
L 88.142008 217.723184 
L 88.142008 217.194354 
L 89.159947 217.194354 
L 89.159947 216.979516 
L 90.177886 216.979516 
L 90.177886 216.252375 
L 91.195824 216.252375 
L 91.195824 216.070589 
L 92.213763 216.070589 
L 92.213763 214.847669 
L 93.231701 214.847669 
L 93.231701 214.59978 
L 94.24964 214.59978 
L 94.24964 213.261179 
L 95.267578 213.261179 
L 95.267578 212.137415 
L 96.285517 212.137415 
L 96.285517 210.071671 
L 97.303456 210.071671 
L 97.303456 208.303395 
L 98.321394 208.303395 
L 98.321394 205.725348 
L 99.339333 205.725348 
L 99.339333 202.08964 
L 100.357271 202.08964 
L 100.357271 199.6438 
L 101.37521 199.6438 
L 101.37521 192.719429 
L 102.393149 192.719429 
L 102.393149 189.629078 
L 103.411087 189.629078 
L 103.411087 181.812306 
L 104.429026 181.812306 
L 104.429026 172.359466 
L 105.446964 172.359466 
L 105.446964 170.062359 
L 106.464903 170.062359 
L 106.464903 160.692149 
L 107.482841 160.692149 
L 107.482841 154.098297 
L 108.50078 154.098297 
L 108.50078 143.174647 
L 109.518719 143.174647 
L 109.518719 138.960531 
L 110.536657 138.960531 
L 110.536657 126.301658 
L 111.554596 126.301658 
L 111.554596 118.203945 
L 112.572534 118.203945 
L 112.572534 109.643505 
L 113.590473 109.643505 
L 113.590473 98.191025 
L 114.608412 98.191025 
L 114.608412 89.382697 
L 115.62635 89.382697 
L 115.62635 76.889083 
L 116.644289 76.889083 
L 116.644289 67.733709 
L 117.662227 67.733709 
L 117.662227 55.190517 
L 118.680166 55.190517 
L 118.680166 49.125496 
L 119.698104 49.125496 
L 119.698104 43.242259 
L 120.716043 43.242259 
L 120.716043 48.662769 
L 121.733982 48.662769 
L 121.733982 42.829111 
L 122.75192 42.829111 
L 122.75192 37.028504 
L 123.769859 37.028504 
L 123.769859 28.765532 
L 124.787797 28.765532 
L 124.787797 29.608355 
L 125.805736 29.608355 
L 125.805736 20.320774 
L 126.823675 20.320774 
L 126.823675 29.09605 
L 127.841613 29.09605 
L 127.841613 25.972647 
L 128.859552 25.972647 
L 128.859552 32.946596 
L 129.87749 32.946596 
L 129.87749 17.28 
L 130.895429 17.28 
L 130.895429 26.551055 
L 131.913367 26.551055 
L 131.913367 20.915708 
L 132.931306 20.915708 
L 132.931306 18.767335 
L 133.949245 18.767335 
L 133.949245 22.683984 
L 134.967183 22.683984 
L 134.967183 25.724758 
L 135.985122 25.724758 
L 135.985122 28.12102 
L 137.00306 28.12102 
L 137.00306 18.354186 
L 138.020999 18.354186 
L 138.020999 28.831635 
L 139.038938 28.831635 
L 139.038938 30.616437 
L 140.056876 30.616437 
L 140.056876 27.261671 
L 141.074815 27.261671 
L 141.074815 29.773614 
L 142.092753 29.773614 
L 142.092753 34.847079 
L 143.110692 34.847079 
L 143.110692 38.201846 
L 145.146569 38.218372 
L 145.146569 39.788337 
L 146.164508 39.788337 
L 146.164508 49.406437 
L 147.182446 49.406437 
L 147.182446 53.686656 
L 148.200385 53.686656 
L 148.200385 57.619831 
L 149.218323 57.619831 
L 149.218323 63.156023 
L 150.236262 63.156023 
L 150.236262 67.832865 
L 151.254201 67.832865 
L 151.254201 74.889443 
L 152.272139 74.889443 
L 152.272139 67.634554 
L 153.290078 67.634554 
L 153.290078 79.599338 
L 154.308016 79.599338 
L 154.308016 81.91297 
L 155.325955 81.91297 
L 155.325955 82.061703 
L 156.343893 82.061703 
L 156.343893 90.093313 
L 157.361832 90.093313 
L 157.361832 92.159056 
L 158.379771 92.159056 
L 158.379771 95.298985 
L 159.397709 95.298985 
L 159.397709 93.381976 
L 160.415648 93.381976 
L 160.415648 102.157252 
L 161.433586 102.157252 
L 161.433586 103.462802 
L 162.451525 103.462802 
L 162.451525 104.189943 
L 163.469464 104.189943 
L 163.469464 108.503215 
L 164.487402 108.503215 
L 164.487402 114.981385 
L 165.505341 114.981385 
L 165.505341 116.138201 
L 166.523279 116.138201 
L 166.523279 113.808043 
L 167.541218 113.808043 
L 167.541218 120.484525 
L 168.559156 120.484525 
L 168.559156 126.268606 
L 169.577095 126.268606 
L 169.577095 122.963417 
L 170.595034 122.963417 
L 170.595034 128.119511 
L 171.612972 128.119511 
L 171.612972 126.797436 
L 172.630911 126.797436 
L 172.630911 127.822044 
L 173.648849 127.822044 
L 173.648849 132.680672 
L 174.666788 132.680672 
L 174.666788 132.862458 
L 175.684727 132.862458 
L 175.684727 137.076573 
L 176.702665 137.076573 
L 176.702665 132.416257 
L 177.720604 132.416257 
L 177.720604 142.282246 
L 178.738542 142.282246 
L 178.738542 142.133513 
L 179.756481 142.133513 
L 179.756481 140.960171 
L 181.792358 140.993222 
L 181.792358 147.934119 
L 182.810297 147.934119 
L 182.810297 150.247751 
L 183.828235 150.247751 
L 183.828235 152.544858 
L 184.846174 152.544858 
L 184.846174 151.107101 
L 185.864112 151.107101 
L 185.864112 157.420011 
L 186.882051 157.420011 
L 186.882051 151.685509 
L 187.89999 151.685509 
L 187.89999 154.875016 
L 188.917928 154.875016 
L 188.917928 160.411207 
L 190.953805 160.510363 
L 190.953805 162.906625 
L 191.971744 162.906625 
L 191.971744 158.659457 
L 192.989682 158.659457 
L 192.989682 162.295165 
L 194.007621 162.295165 
L 194.007621 168.988173 
L 195.02556 168.988173 
L 195.02556 164.327856 
L 196.043498 164.327856 
L 196.043498 166.691066 
L 197.061437 166.691066 
L 197.061437 175.962121 
L 198.079375 175.962121 
L 198.079375 168.261031 
L 199.097314 168.261031 
L 199.097314 175.76381 
L 200.115253 175.76381 
L 200.115253 170.558138 
L 201.133191 170.558138 
L 201.133191 176.837997 
L 202.15113 176.837997 
L 202.15113 176.110855 
L 203.169068 176.110855 
L 203.169068 182.142825 
L 204.187007 182.142825 
L 204.187007 184.109412 
L 206.222884 184.026783 
L 206.222884 187.381549 
L 207.240823 187.381549 
L 207.240823 189.810863 
L 208.258761 189.810863 
L 208.258761 186.472622 
L 209.2767 186.472622 
L 209.2767 194.008453 
L 210.294638 194.008453 
L 210.294638 189.480344 
L 211.312577 189.480344 
L 211.312577 196.388189 
L 212.330516 196.388189 
L 212.330516 192.620274 
L 213.348454 192.620274 
L 213.348454 197.677213 
L 214.366393 197.677213 
L 214.366393 195.975041 
L 215.384331 195.975041 
L 215.384331 198.288673 
L 216.40227 198.288673 
L 216.40227 200.123053 
L 217.420208 200.123053 
L 217.420208 201.197239 
L 218.438147 201.197239 
L 218.438147 203.692657 
L 220.474024 203.709183 
L 220.474024 204.204961 
L 221.491963 204.204961 
L 221.491963 206.733431 
L 222.509901 206.733431 
L 222.509901 207.245735 
L 223.52784 207.245735 
L 223.52784 207.873721 
L 224.545779 207.873721 
L 224.545779 208.56781 
L 225.563717 208.56781 
L 225.563717 208.832226 
L 226.581656 208.832226 
L 226.581656 210.881443 
L 227.599594 210.881443 
L 227.599594 210.550924 
L 228.617533 210.550924 
L 228.617533 212.253096 
L 229.635471 212.253096 
L 229.635471 212.980238 
L 230.65341 212.980238 
L 230.65341 211.806896 
L 231.671349 211.806896 
L 231.671349 214.384943 
L 232.689287 214.384943 
L 232.689287 214.087476 
L 233.707226 214.087476 
L 233.707226 215.459129 
L 234.725164 215.459129 
L 234.725164 215.938382 
L 235.743103 215.938382 
L 235.743103 215.8227 
L 236.761042 215.8227 
L 236.761042 216.96299 
L 237.77898 216.96299 
L 237.77898 217.161302 
L 238.796919 217.161302 
L 238.796919 217.392665 
L 239.814857 217.392665 
L 239.814857 218.004125 
L 240.832796 218.004125 
L 240.832796 218.26854 
L 241.850734 218.26854 
L 241.850734 218.417274 
L 242.868673 218.417274 
L 242.868673 218.88 
L 379.272443 218.88 
L 379.272443 218.88 
" clip-path="url(#pcd92a2ca80)" style="fill: none; stroke: #1f77b4; stroke-width: 1.5; stroke-linecap: square"/>
   </g>
   <g id="line2d_17">
    <path d="M 74.908807 218.88 
L 101.37521 218.88 
L 101.37521 218.714741 
L 102.393149 218.714741 
L 102.393149 218.830422 
L 106.464903 218.846948 
L 106.464903 218.665163 
L 107.482841 218.665163 
L 107.482841 218.88 
L 109.518719 218.79737 
L 109.518719 218.549481 
L 113.590473 218.566007 
L 113.590473 218.136332 
L 114.608412 218.136332 
L 114.608412 218.466851 
L 115.62635 218.466851 
L 115.62635 218.119807 
L 116.644289 218.119807 
L 116.644289 218.384222 
L 118.680166 218.35117 
L 118.680166 218.202436 
L 119.698104 218.202436 
L 119.698104 218.004125 
L 121.733982 217.954547 
L 121.733982 217.888443 
L 122.75192 217.888443 
L 122.75192 217.541398 
L 124.787797 217.541398 
L 124.787797 217.293509 
L 125.805736 217.293509 
L 125.805736 216.96299 
L 127.841613 216.929939 
L 127.841613 216.549842 
L 128.859552 216.549842 
L 128.859552 216.335005 
L 129.87749 216.335005 
L 129.87749 215.872278 
L 130.895429 215.872278 
L 130.895429 216.219323 
L 131.913367 216.219323 
L 131.913367 214.798092 
L 132.931306 214.798092 
L 132.931306 214.07095 
L 133.949245 214.07095 
L 133.949245 214.831144 
L 134.967183 214.831144 
L 134.967183 212.616667 
L 137.00306 212.517511 
L 137.00306 211.476377 
L 139.038938 211.476377 
L 139.038938 208.865277 
L 140.056876 208.865277 
L 140.056876 208.749596 
L 141.074815 208.749596 
L 141.074815 205.989763 
L 142.092753 205.989763 
L 142.092753 207.163105 
L 143.110692 207.163105 
L 143.110692 202.767204 
L 144.12863 202.767204 
L 144.12863 201.775647 
L 145.146569 201.775647 
L 145.146569 199.693378 
L 146.164508 199.693378 
L 146.164508 196.355137 
L 147.182446 196.355137 
L 147.182446 193.066474 
L 148.200385 193.066474 
L 148.200385 191.562613 
L 149.218323 191.562613 
L 149.218323 190.554531 
L 150.236262 190.554531 
L 150.236262 185.861162 
L 152.272139 185.778533 
L 152.272139 184.522561 
L 153.290078 184.522561 
L 153.290078 175.879492 
L 154.308016 175.879492 
L 154.308016 174.09469 
L 155.325955 174.09469 
L 155.325955 175.102772 
L 156.343893 175.102772 
L 156.343893 168.955121 
L 157.361832 168.955121 
L 157.361832 165.054998 
L 158.379771 165.054998 
L 158.379771 165.17068 
L 159.397709 165.17068 
L 159.397709 160.873934 
L 160.415648 160.873934 
L 160.415648 156.874655 
L 161.433586 156.874655 
L 161.433586 152.594436 
L 162.451525 152.594436 
L 162.451525 149.322299 
L 163.469464 149.322299 
L 163.469464 147.339185 
L 164.487402 147.339185 
L 164.487402 139.770302 
L 165.505341 139.770302 
L 165.505341 137.407092 
L 166.523279 137.407092 
L 166.523279 131.970057 
L 167.541218 131.970057 
L 167.541218 133.391288 
L 168.559156 133.391288 
L 168.559156 126.400813 
L 169.577095 126.400813 
L 169.577095 123.822766 
L 170.595034 123.822766 
L 170.595034 121.823126 
L 171.612972 121.823126 
L 171.612972 118.187419 
L 172.630911 118.187419 
L 172.630911 112.419864 
L 173.648849 112.419864 
L 173.648849 116.485246 
L 174.666788 116.485246 
L 174.666788 116.286935 
L 175.684727 116.286935 
L 175.684727 114.287296 
L 176.702665 114.287296 
L 176.702665 112.502494 
L 177.720604 112.502494 
L 177.720604 110.783795 
L 178.738542 110.783795 
L 178.738542 107.46208 
L 179.756481 107.46208 
L 179.756481 103.677639 
L 180.774419 103.677639 
L 180.774419 108.15617 
L 181.792358 108.15617 
L 181.792358 102.785238 
L 182.810297 102.785238 
L 182.810297 106.718413 
L 183.828235 106.718413 
L 183.828235 98.405863 
L 184.846174 98.405863 
L 184.846174 106.140005 
L 185.864112 106.140005 
L 185.864112 104.107314 
L 186.882051 104.107314 
L 186.882051 106.470524 
L 187.89999 106.470524 
L 187.89999 102.305986 
L 188.917928 102.305986 
L 188.917928 97.48041 
L 189.935867 97.48041 
L 189.935867 103.066179 
L 190.953805 103.066179 
L 190.953805 99.364368 
L 191.971744 99.364368 
L 191.971744 103.760269 
L 192.989682 103.760269 
L 192.989682 103.595009 
L 194.007621 103.595009 
L 194.007621 99.876672 
L 195.02556 99.876672 
L 195.02556 101.132644 
L 196.043498 101.132644 
L 196.043498 106.338316 
L 197.061437 106.338316 
L 197.061437 98.00924 
L 198.079375 98.00924 
L 198.079375 100.074983 
L 199.097314 100.074983 
L 199.097314 104.024684 
L 200.115253 104.024684 
L 200.115253 102.702608 
L 201.133191 102.702608 
L 201.133191 102.504297 
L 202.15113 102.504297 
L 202.15113 104.04121 
L 204.187007 104.057736 
L 204.187007 101.876311 
L 205.204945 101.876311 
L 205.204945 101.413585 
L 206.222884 101.413585 
L 206.222884 110.337595 
L 207.240823 110.337595 
L 207.240823 101.06654 
L 208.258761 101.06654 
L 208.258761 101.793681 
L 209.2767 101.793681 
L 209.2767 114.336874 
L 210.294638 114.336874 
L 210.294638 109.37909 
L 211.312577 109.37909 
L 211.312577 106.024323 
L 212.330516 106.024323 
L 212.330516 108.833734 
L 213.348454 108.833734 
L 213.348454 110.106232 
L 214.366393 110.106232 
L 214.366393 109.940972 
L 215.384331 109.940972 
L 215.384331 119.740857 
L 216.40227 119.740857 
L 216.40227 113.857621 
L 217.420208 113.857621 
L 217.420208 120.087902 
L 218.438147 120.087902 
L 218.438147 108.734578 
L 219.456086 108.734578 
L 219.456086 121.492608 
L 220.474024 121.492608 
L 220.474024 128.350875 
L 221.491963 128.350875 
L 221.491963 123.11215 
L 222.509901 123.11215 
L 222.509901 118.402256 
L 223.52784 118.402256 
L 223.52784 121.079459 
L 224.545779 121.079459 
L 224.545779 133.159925 
L 225.563717 133.159925 
L 225.563717 127.144481 
L 226.581656 127.144481 
L 226.581656 129.623372 
L 227.599594 129.623372 
L 227.599594 137.869819 
L 228.617533 137.869819 
L 228.617533 134.250637 
L 229.635471 134.250637 
L 229.635471 130.945448 
L 230.65341 130.945448 
L 230.65341 132.961613 
L 231.671349 132.961613 
L 231.671349 136.993944 
L 232.689287 136.993944 
L 232.689287 140.943645 
L 233.707226 140.943645 
L 233.707226 139.671147 
L 236.761042 139.621569 
L 236.761042 143.620848 
L 237.77898 143.620848 
L 237.77898 142.199616 
L 238.796919 142.199616 
L 238.796919 143.967892 
L 239.814857 143.967892 
L 239.814857 150.165122 
L 240.832796 150.165122 
L 240.832796 151.900346 
L 241.850734 151.900346 
L 241.850734 146.46331 
L 243.886612 146.430258 
L 243.886612 152.313495 
L 245.922489 152.41265 
L 245.922489 150.760056 
L 246.940427 150.760056 
L 246.940427 152.693591 
L 247.958366 152.693591 
L 247.958366 154.461867 
L 248.976305 154.461867 
L 248.976305 155.668261 
L 249.994243 155.668261 
L 249.994243 156.048358 
L 251.012182 156.048358 
L 251.012182 162.129906 
L 252.03012 162.129906 
L 252.03012 162.014224 
L 253.048059 162.014224 
L 253.048059 156.511085 
L 254.065997 156.511085 
L 254.065997 157.899264 
L 255.083936 157.899264 
L 255.083936 159.535332 
L 256.101875 159.535332 
L 256.101875 162.410847 
L 257.119813 162.410847 
L 257.119813 162.014224 
L 258.137752 162.014224 
L 258.137752 163.286722 
L 259.15569 163.286722 
L 259.15569 161.997698 
L 260.173629 161.997698 
L 260.173629 166.063081 
L 261.191568 166.063081 
L 261.191568 164.823635 
L 262.209506 164.823635 
L 262.209506 162.096854 
L 263.227445 162.096854 
L 263.227445 169.748366 
L 264.245383 169.748366 
L 264.245383 166.112658 
L 265.263322 166.112658 
L 265.263322 167.715675 
L 266.28126 167.715675 
L 266.28126 172.144628 
L 267.299199 172.144628 
L 267.299199 165.550776 
L 268.317138 165.550776 
L 268.317138 173.615437 
L 269.335076 173.615437 
L 269.335076 165.765614 
L 270.353015 165.765614 
L 270.353015 169.318692 
L 271.370953 169.318692 
L 271.370953 171.235701 
L 272.388892 171.235701 
L 272.388892 174.507838 
L 273.406831 174.507838 
L 273.406831 173.4006 
L 274.424769 173.4006 
L 274.424769 172.623881 
L 275.442708 172.623881 
L 275.442708 175.334136 
L 276.460646 175.334136 
L 276.460646 175.201928 
L 277.478585 175.201928 
L 277.478585 175.68118 
L 278.496523 175.68118 
L 278.496523 178.622799 
L 279.514462 178.622799 
L 279.514462 173.565859 
L 280.532401 173.565859 
L 280.532401 181.415683 
L 281.550339 181.415683 
L 281.550339 180.374549 
L 282.568278 180.374549 
L 282.568278 177.928709 
L 283.586216 177.928709 
L 283.586216 180.291919 
L 284.604155 180.291919 
L 284.604155 176.474426 
L 285.622094 176.474426 
L 285.622094 182.572499 
L 286.640032 182.572499 
L 286.640032 182.126299 
L 287.657971 182.126299 
L 287.657971 185.233176 
L 288.675909 185.233176 
L 288.675909 179.829193 
L 289.693848 179.829193 
L 289.693848 180.010978 
L 290.711786 180.010978 
L 290.711786 188.323528 
L 291.729725 188.323528 
L 291.729725 182.357662 
L 292.747664 182.357662 
L 292.747664 182.24198 
L 293.765602 182.24198 
L 293.765602 185.596747 
L 294.783541 185.596747 
L 294.783541 184.968761 
L 295.801479 184.968761 
L 295.801479 183.497952 
L 296.819418 183.497952 
L 296.819418 188.571417 
L 297.837357 188.571417 
L 297.837357 187.348497 
L 298.855295 187.348497 
L 298.855295 189.215929 
L 299.873234 189.215929 
L 299.873234 185.29928 
L 300.891172 185.29928 
L 300.891172 188.703625 
L 301.909111 188.703625 
L 301.909111 192.851637 
L 302.927049 192.851637 
L 302.927049 189.893493 
L 303.944988 189.893493 
L 303.944988 192.190599 
L 304.962927 192.190599 
L 304.962927 188.406158 
L 305.980865 188.406158 
L 305.980865 189.810863 
L 306.998804 189.810863 
L 306.998804 192.240177 
L 308.016742 192.240177 
L 308.016742 193.413519 
L 309.034681 193.413519 
L 309.034681 193.77709 
L 310.05262 193.77709 
L 310.05262 192.372385 
L 311.070558 192.372385 
L 311.070558 193.85972 
L 312.088497 193.85972 
L 312.088497 195.495788 
L 313.106435 195.495788 
L 313.106435 197.462376 
L 314.124374 197.462376 
L 314.124374 196.702182 
L 315.142312 196.702182 
L 315.142312 198.834029 
L 316.160251 198.834029 
L 316.160251 197.925102 
L 317.17819 197.925102 
L 317.17819 200.007371 
L 318.196128 200.007371 
L 318.196128 200.585779 
L 319.214067 200.585779 
L 319.214067 199.990845 
L 320.232005 199.990845 
L 320.232005 198.933185 
L 321.249944 198.933185 
L 321.249944 201.279869 
L 322.267883 201.279869 
L 322.267883 203.907494 
L 323.285821 203.907494 
L 323.285821 201.246817 
L 324.30376 201.246817 
L 324.30376 205.345251 
L 325.321698 205.345251 
L 325.321698 200.42052 
L 326.339637 200.42052 
L 326.339637 204.353695 
L 327.357575 204.353695 
L 327.357575 203.775286 
L 328.375514 203.775286 
L 328.375514 205.279147 
L 329.393453 205.279147 
L 329.393453 205.163466 
L 330.411391 205.163466 
L 330.411391 204.254539 
L 331.42933 204.254539 
L 331.42933 206.254178 
L 333.465207 206.28723 
L 333.465207 206.799534 
L 334.483146 206.799534 
L 334.483146 208.352973 
L 335.501084 208.352973 
L 335.501084 206.915216 
L 336.519023 206.915216 
L 336.519023 209.34453 
L 337.536961 209.34453 
L 337.536961 209.592419 
L 339.572838 209.509789 
L 339.572838 208.600862 
L 340.590777 208.600862 
L 340.590777 209.675049 
L 341.608716 209.675049 
L 341.608716 210.65008 
L 343.644593 210.600502 
L 343.644593 212.3192 
L 344.662531 212.3192 
L 344.662531 211.641636 
L 345.68047 211.641636 
L 345.68047 212.269622 
L 347.716347 212.170466 
L 347.716347 212.84803 
L 348.734286 212.84803 
L 348.734286 212.517511 
L 349.752224 212.517511 
L 349.752224 213.45949 
L 350.770163 213.45949 
L 350.770163 213.277705 
L 351.788101 213.277705 
L 351.788101 213.476016 
L 352.80604 213.476016 
L 352.80604 213.608224 
L 353.823979 213.608224 
L 353.823979 214.583254 
L 355.859856 214.533677 
L 355.859856 215.227766 
L 356.877794 215.227766 
L 356.877794 214.996403 
L 358.913672 215.012929 
L 358.913672 215.178188 
L 359.93161 215.178188 
L 359.93161 215.98796 
L 361.967487 215.98796 
L 361.967487 216.335005 
L 362.985426 216.335005 
L 362.985426 216.450686 
L 364.003364 216.450686 
L 364.003364 216.682049 
L 365.021303 216.682049 
L 365.021303 217.194354 
L 368.075119 217.194354 
L 368.075119 217.57445 
L 370.110996 217.508347 
L 370.110996 218.004125 
L 371.128935 218.004125 
L 371.128935 218.119807 
L 374.18275 218.119807 
L 374.18275 218.384222 
L 376.218627 218.433799 
L 376.218627 218.532955 
L 378.254505 218.549481 
L 378.254505 218.830422 
L 379.272443 218.830422 
L 379.272443 218.830422 
" clip-path="url(#pcd92a2ca80)" style="fill: none; stroke: #ff7f0e; stroke-width: 1.5; stroke-linecap: square"/>
   </g>
   <g id="patch_3">
    <path d="M 59.690625 228.96 
L 59.690625 7.2 
" style="fill: none; stroke: #000000; stroke-width: 0.8; stroke-linejoin: miter; stroke-linecap: square"/>
   </g>
   <g id="patch_4">
    <path d="M 394.490625 228.96 
L 394.490625 7.2 
" style="fill: none; stroke: #000000; stroke-width: 0.8; stroke-linejoin: miter; stroke-linecap: square"/>
   </g>
   <g id="patch_5">
    <path d="M 59.690625 228.96 
L 394.490625 228.96 
" style="fill: none; stroke: #000000; stroke-width: 0.8; stroke-linejoin: miter; stroke-linecap: square"/>
   </g>
   <g id="patch_6">
    <path d="M 59.690625 7.2 
L 394.490625 7.2 
" style="fill: none; stroke: #000000; stroke-width: 0.8; stroke-linejoin: miter; stroke-linecap: square"/>
   </g>
   <g id="legend_1">
    <g id="patch_7">
     <path d="M 313.267188 44.55625 
L 387.490625 44.55625 
Q 389.490625 44.55625 389.490625 42.55625 
L 389.490625 14.2 
Q 389.490625 12.2 387.490625 12.2 
L 313.267188 12.2 
Q 311.267188 12.2 311.267188 14.2 
L 311.267188 42.55625 
Q 311.267188 44.55625 313.267188 44.55625 
z
" style="fill: #ffffff; opacity: 0.8; stroke: #cccccc; stroke-linejoin: miter"/>
    </g>
    <g id="line2d_18">
     <path d="M 315.267188 20.298437 
L 315.267188 20.298437 
L 325.267188 20.298437 
L 325.267188 20.298437 
L 335.267188 20.298437 
" style="fill: none; stroke: #1f77b4; stroke-width: 1.5; stroke-linecap: square"/>
    </g>
    <g id="text_18">
     <!-- monitor -->
     <g transform="translate(343.267188 23.798437) scale(0.1 -0.1)">
      <defs>
       <path id="DejaVuSans-6d" d="M 3328 2828 
Q 3544 3216 3844 3400 
Q 4144 3584 4550 3584 
Q 5097 3584 5394 3201 
Q 5691 2819 5691 2113 
L 5691 0 
L 5113 0 
L 5113 2094 
Q 5113 2597 4934 2840 
Q 4756 3084 4391 3084 
Q 3944 3084 3684 2787 
Q 3425 2491 3425 1978 
L 3425 0 
L 2847 0 
L 2847 2094 
Q 2847 2600 2669 2842 
Q 2491 3084 2119 3084 
Q 1678 3084 1418 2786 
Q 1159 2488 1159 1978 
L 1159 0 
L 581 0 
L 581 3500 
L 1159 3500 
L 1159 2956 
Q 1356 3278 1631 3431 
Q 1906 3584 2284 3584 
Q 2666 3584 2933 3390 
Q 3200 3197 3328 2828 
z
" transform="scale(0.015625)"/>
       <path id="DejaVuSans-69" d="M 603 3500 
L 1178 3500 
L 1178 0 
L 603 0 
L 603 3500 
z
M 603 4863 
L 1178 4863 
L 1178 4134 
L 603 4134 
L 603 4863 
z
" transform="scale(0.015625)"/>
       <path id="DejaVuSans-72" d="M 2631 2963 
Q 2534 3019 2420 3045 
Q 2306 3072 2169 3072 
Q 1681 3072 1420 2755 
Q 1159 2438 1159 1844 
L 1159 0 
L 581 0 
L 581 3500 
L 1159 3500 
L 1159 2956 
Q 1341 3275 1631 3429 
Q 1922 3584 2338 3584 
Q 2397 3584 2469 3576 
Q 2541 3569 2628 3553 
L 2631 2963 
z
" transform="scale(0.015625)"/>
      </defs>
      <use xlink:href="#DejaVuSans-6d"/>
      <use xlink:href="#DejaVuSans-6f" transform="translate(97.412109 0)"/>
      <use xlink:href="#DejaVuSans-6e" transform="translate(158.59375 0)"/>
      <use xlink:href="#DejaVuSans-69" transform="translate(221.972656 0)"/>
      <use xlink:href="#DejaVuSans-74" transform="translate(249.755859 0)"/>
      <use xlink:href="#DejaVuSans-6f" transform="translate(288.964844 0)"/>
      <use xlink:href="#DejaVuSans-72" transform="translate(350.146484 0)"/>
     </g>
    </g>
    <g id="line2d_19">
     <path d="M 315.267188 34.976562 
L 315.267188 34.976562 
L 325.267188 34.976562 
L 325.267188 34.976562 
L 335.267188 34.976562 
" style="fill: none; stroke: #ff7f0e; stroke-width: 1.5; stroke-linecap: square"/>
    </g>
    <g id="text_19">
     <!-- detector -->
     <g transform="translate(343.267188 38.476562) scale(0.1 -0.1)">
      <defs>
       <path id="DejaVuSans-64" d="M 2906 2969 
L 2906 4863 
L 3481 4863 
L 3481 0 
L 2906 0 
L 2906 525 
Q 2725 213 2448 61 
Q 2172 -91 1784 -91 
Q 1150 -91 751 415 
Q 353 922 353 1747 
Q 353 2572 751 3078 
Q 1150 3584 1784 3584 
Q 2172 3584 2448 3432 
Q 2725 3281 2906 2969 
z
M 947 1747 
Q 947 1113 1208 752 
Q 1469 391 1925 391 
Q 2381 391 2643 752 
Q 2906 1113 2906 1747 
Q 2906 2381 2643 2742 
Q 2381 3103 1925 3103 
Q 1469 3103 1208 2742 
Q 947 2381 947 1747 
z
" transform="scale(0.015625)"/>
       <path id="DejaVuSans-65" d="M 3597 1894 
L 3597 1613 
L 953 1613 
Q 991 1019 1311 708 
Q 1631 397 2203 397 
Q 2534 397 2845 478 
Q 3156 559 3463 722 
L 3463 178 
Q 3153 47 2828 -22 
Q 2503 -91 2169 -91 
Q 1331 -91 842 396 
Q 353 884 353 1716 
Q 353 2575 817 3079 
Q 1281 3584 2069 3584 
Q 2775 3584 3186 3129 
Q 3597 2675 3597 1894 
z
M 3022 2063 
Q 3016 2534 2758 2815 
Q 2500 3097 2075 3097 
Q 1594 3097 1305 2825 
Q 1016 2553 972 2059 
L 3022 2063 
z
" transform="scale(0.015625)"/>
      </defs>
      <use xlink:href="#DejaVuSans-64"/>
      <use xlink:href="#DejaVuSans-65" transform="translate(63.476562 0)"/>
      <use xlink:href="#DejaVuSans-74" transform="translate(125 0)"/>
      <use xlink:href="#DejaVuSans-65" transform="translate(164.208984 0)"/>
      <use xlink:href="#DejaVuSans-63" transform="translate(225.732422 0)"/>
      <use xlink:href="#DejaVuSans-74" transform="translate(280.712891 0)"/>
      <use xlink:href="#DejaVuSans-6f" transform="translate(319.921875 0)"/>
      <use xlink:href="#DejaVuSans-72" transform="translate(381.103516 0)"/>
     </g>
    </g>
   </g>
  </g>
 </g>
 <defs>
  <clipPath id="pcd92a2ca80">
   <rect x="59.690625" y="7.2" width="334.8" height="221.76"/>
  </clipPath>
 </defs>
</svg>
