<?xml version="1.0" encoding="utf-8" standalone="no"?>
<!DOCTYPE svg PUBLIC "-//W3C//DTD SVG 1.1//EN"
  "http://www.w3.org/Graphics/SVG/1.1/DTD/svg11.dtd">
<svg xmlns:xlink="http://www.w3.org/1999/xlink" width="872.39952pt" height="296.39952pt" viewBox="0 0 872.39952 296.39952" xmlns="http://www.w3.org/2000/svg" version="1.1">
 <metadata>
  <rdf:RDF xmlns:dc="http://purl.org/dc/elements/1.1/" xmlns:cc="http://creativecommons.org/ns#" xmlns:rdf="http://www.w3.org/1999/02/22-rdf-syntax-ns#">
   <cc:Work>
    <dc:type rdf:resource="http://purl.org/dc/dcmitype/StillImage"/>
    <dc:date>2025-07-15T15:00:47.853840</dc:date>
    <dc:format>image/svg+xml</dc:format>
    <dc:creator>
     <cc:Agent>
      <dc:title>Matplotlib v3.10.3, https://matplotlib.org/</dc:title>
     </cc:Agent>
    </dc:creator>
   </cc:Work>
  </rdf:RDF>
 </metadata>
 <defs>
  <style type="text/css">*{stroke-linejoin: round; stroke-linecap: butt}</style>
 </defs>
 <g id="figure_1">
  <g id="patch_1">
   <path d="M 0 296.39952 
L 872.39952 296.39952 
L 872.39952 0 
L 0 0 
z
" style="fill: #ffffff"/>
  </g>
  <g id="axes_1">
   <g id="patch_2">
    <path d="M 46.965625 257.158895 
L 431.87976 257.158895 
L 431.87976 22.318125 
L 46.965625 22.318125 
z
" style="fill: #ffffff"/>
   </g>
   <g id="matplotlib.axis_1">
    <g id="xtick_1">
     <g id="line2d_1">
      <defs>
       <path id="md61a94251e" d="M 0 0 
L 0 3.5 
" style="stroke: #000000; stroke-width: 0.8"/>
      </defs>
      <g>
       <use xlink:href="#md61a94251e" x="82.878666" y="257.158895" style="stroke: #000000; stroke-width: 0.8"/>
      </g>
     </g>
     <g id="text_1">
      <!-- 1.0 -->
      <g transform="translate(74.927104 271.757332) scale(0.1 -0.1)">
       <defs>
        <path id="DejaVuSans-31" d="M 794 531 
L 1825 531 
L 1825 4091 
L 703 3866 
L 703 4441 
L 1819 4666 
L 2450 4666 
L 2450 531 
L 3481 531 
L 3481 0 
L 794 0 
L 794 531 
z
" transform="scale(0.015625)"/>
        <path id="DejaVuSans-2e" d="M 684 794 
L 1344 794 
L 1344 0 
L 684 0 
L 684 794 
z
" transform="scale(0.015625)"/>
        <path id="DejaVuSans-30" d="M 2034 4250 
Q 1547 4250 1301 3770 
Q 1056 3291 1056 2328 
Q 1056 1369 1301 889 
Q 1547 409 2034 409 
Q 2525 409 2770 889 
Q 3016 1369 3016 2328 
Q 3016 3291 2770 3770 
Q 2525 4250 2034 4250 
z
M 2034 4750 
Q 2819 4750 3233 4129 
Q 3647 3509 3647 2328 
Q 3647 1150 3233 529 
Q 2819 -91 2034 -91 
Q 1250 -91 836 529 
Q 422 1150 422 2328 
Q 422 3509 836 4129 
Q 1250 4750 2034 4750 
z
" transform="scale(0.015625)"/>
       </defs>
       <use xlink:href="#DejaVuSans-31"/>
       <use xlink:href="#DejaVuSans-2e" transform="translate(63.623047 0)"/>
       <use xlink:href="#DejaVuSans-30" transform="translate(95.410156 0)"/>
      </g>
     </g>
    </g>
    <g id="xtick_2">
     <g id="line2d_2">
      <g>
       <use xlink:href="#md61a94251e" x="128.921027" y="257.158895" style="stroke: #000000; stroke-width: 0.8"/>
      </g>
     </g>
     <g id="text_2">
      <!-- 1.5 -->
      <g transform="translate(120.969464 271.757332) scale(0.1 -0.1)">
       <defs>
        <path id="DejaVuSans-35" d="M 691 4666 
L 3169 4666 
L 3169 4134 
L 1269 4134 
L 1269 2991 
Q 1406 3038 1543 3061 
Q 1681 3084 1819 3084 
Q 2600 3084 3056 2656 
Q 3513 2228 3513 1497 
Q 3513 744 3044 326 
Q 2575 -91 1722 -91 
Q 1428 -91 1123 -41 
Q 819 9 494 109 
L 494 744 
Q 775 591 1075 516 
Q 1375 441 1709 441 
Q 2250 441 2565 725 
Q 2881 1009 2881 1497 
Q 2881 1984 2565 2268 
Q 2250 2553 1709 2553 
Q 1456 2553 1204 2497 
Q 953 2441 691 2322 
L 691 4666 
z
" transform="scale(0.015625)"/>
       </defs>
       <use xlink:href="#DejaVuSans-31"/>
       <use xlink:href="#DejaVuSans-2e" transform="translate(63.623047 0)"/>
       <use xlink:href="#DejaVuSans-35" transform="translate(95.410156 0)"/>
      </g>
     </g>
    </g>
    <g id="xtick_3">
     <g id="line2d_3">
      <g>
       <use xlink:href="#md61a94251e" x="174.963388" y="257.158895" style="stroke: #000000; stroke-width: 0.8"/>
      </g>
     </g>
     <g id="text_3">
      <!-- 2.0 -->
      <g transform="translate(167.011825 271.757332) scale(0.1 -0.1)">
       <defs>
        <path id="DejaVuSans-32" d="M 1228 531 
L 3431 531 
L 3431 0 
L 469 0 
L 469 531 
Q 828 903 1448 1529 
Q 2069 2156 2228 2338 
Q 2531 2678 2651 2914 
Q 2772 3150 2772 3378 
Q 2772 3750 2511 3984 
Q 2250 4219 1831 4219 
Q 1534 4219 1204 4116 
Q 875 4013 500 3803 
L 500 4441 
Q 881 4594 1212 4672 
Q 1544 4750 1819 4750 
Q 2544 4750 2975 4387 
Q 3406 4025 3406 3419 
Q 3406 3131 3298 2873 
Q 3191 2616 2906 2266 
Q 2828 2175 2409 1742 
Q 1991 1309 1228 531 
z
" transform="scale(0.015625)"/>
       </defs>
       <use xlink:href="#DejaVuSans-32"/>
       <use xlink:href="#DejaVuSans-2e" transform="translate(63.623047 0)"/>
       <use xlink:href="#DejaVuSans-30" transform="translate(95.410156 0)"/>
      </g>
     </g>
    </g>
    <g id="xtick_4">
     <g id="line2d_4">
      <g>
       <use xlink:href="#md61a94251e" x="221.005748" y="257.158895" style="stroke: #000000; stroke-width: 0.8"/>
      </g>
     </g>
     <g id="text_4">
      <!-- 2.5 -->
      <g transform="translate(213.054186 271.757332) scale(0.1 -0.1)">
       <use xlink:href="#DejaVuSans-32"/>
       <use xlink:href="#DejaVuSans-2e" transform="translate(63.623047 0)"/>
       <use xlink:href="#DejaVuSans-35" transform="translate(95.410156 0)"/>
      </g>
     </g>
    </g>
    <g id="xtick_5">
     <g id="line2d_5">
      <g>
       <use xlink:href="#md61a94251e" x="267.048109" y="257.158895" style="stroke: #000000; stroke-width: 0.8"/>
      </g>
     </g>
     <g id="text_5">
      <!-- 3.0 -->
      <g transform="translate(259.096546 271.757332) scale(0.1 -0.1)">
       <defs>
        <path id="DejaVuSans-33" d="M 2597 2516 
Q 3050 2419 3304 2112 
Q 3559 1806 3559 1356 
Q 3559 666 3084 287 
Q 2609 -91 1734 -91 
Q 1441 -91 1130 -33 
Q 819 25 488 141 
L 488 750 
Q 750 597 1062 519 
Q 1375 441 1716 441 
Q 2309 441 2620 675 
Q 2931 909 2931 1356 
Q 2931 1769 2642 2001 
Q 2353 2234 1838 2234 
L 1294 2234 
L 1294 2753 
L 1863 2753 
Q 2328 2753 2575 2939 
Q 2822 3125 2822 3475 
Q 2822 3834 2567 4026 
Q 2313 4219 1838 4219 
Q 1578 4219 1281 4162 
Q 984 4106 628 3988 
L 628 4550 
Q 988 4650 1302 4700 
Q 1616 4750 1894 4750 
Q 2613 4750 3031 4423 
Q 3450 4097 3450 3541 
Q 3450 3153 3228 2886 
Q 3006 2619 2597 2516 
z
" transform="scale(0.015625)"/>
       </defs>
       <use xlink:href="#DejaVuSans-33"/>
       <use xlink:href="#DejaVuSans-2e" transform="translate(63.623047 0)"/>
       <use xlink:href="#DejaVuSans-30" transform="translate(95.410156 0)"/>
      </g>
     </g>
    </g>
    <g id="xtick_6">
     <g id="line2d_6">
      <g>
       <use xlink:href="#md61a94251e" x="313.09047" y="257.158895" style="stroke: #000000; stroke-width: 0.8"/>
      </g>
     </g>
     <g id="text_6">
      <!-- 3.5 -->
      <g transform="translate(305.138907 271.757332) scale(0.1 -0.1)">
       <use xlink:href="#DejaVuSans-33"/>
       <use xlink:href="#DejaVuSans-2e" transform="translate(63.623047 0)"/>
       <use xlink:href="#DejaVuSans-35" transform="translate(95.410156 0)"/>
      </g>
     </g>
    </g>
    <g id="xtick_7">
     <g id="line2d_7">
      <g>
       <use xlink:href="#md61a94251e" x="359.13283" y="257.158895" style="stroke: #000000; stroke-width: 0.8"/>
      </g>
     </g>
     <g id="text_7">
      <!-- 4.0 -->
      <g transform="translate(351.181268 271.757332) scale(0.1 -0.1)">
       <defs>
        <path id="DejaVuSans-34" d="M 2419 4116 
L 825 1625 
L 2419 1625 
L 2419 4116 
z
M 2253 4666 
L 3047 4666 
L 3047 1625 
L 3713 1625 
L 3713 1100 
L 3047 1100 
L 3047 0 
L 2419 0 
L 2419 1100 
L 313 1100 
L 313 1709 
L 2253 4666 
z
" transform="scale(0.015625)"/>
       </defs>
       <use xlink:href="#DejaVuSans-34"/>
       <use xlink:href="#DejaVuSans-2e" transform="translate(63.623047 0)"/>
       <use xlink:href="#DejaVuSans-30" transform="translate(95.410156 0)"/>
      </g>
     </g>
    </g>
    <g id="xtick_8">
     <g id="line2d_8">
      <g>
       <use xlink:href="#md61a94251e" x="405.175191" y="257.158895" style="stroke: #000000; stroke-width: 0.8"/>
      </g>
     </g>
     <g id="text_8">
      <!-- 4.5 -->
      <g transform="translate(397.223628 271.757332) scale(0.1 -0.1)">
       <use xlink:href="#DejaVuSans-34"/>
       <use xlink:href="#DejaVuSans-2e" transform="translate(63.623047 0)"/>
       <use xlink:href="#DejaVuSans-35" transform="translate(95.410156 0)"/>
      </g>
     </g>
    </g>
    <g id="text_9">
     <!-- wavelength [Å] -->
     <g transform="translate(201.385193 287.119832) scale(0.1 -0.1)">
      <defs>
       <path id="DejaVuSans-77" d="M 269 3500 
L 844 3500 
L 1563 769 
L 2278 3500 
L 2956 3500 
L 3675 769 
L 4391 3500 
L 4966 3500 
L 4050 0 
L 3372 0 
L 2619 2869 
L 1863 0 
L 1184 0 
L 269 3500 
z
" transform="scale(0.015625)"/>
       <path id="DejaVuSans-61" d="M 2194 1759 
Q 1497 1759 1228 1600 
Q 959 1441 959 1056 
Q 959 750 1161 570 
Q 1363 391 1709 391 
Q 2188 391 2477 730 
Q 2766 1069 2766 1631 
L 2766 1759 
L 2194 1759 
z
M 3341 1997 
L 3341 0 
L 2766 0 
L 2766 531 
Q 2569 213 2275 61 
Q 1981 -91 1556 -91 
Q 1019 -91 701 211 
Q 384 513 384 1019 
Q 384 1609 779 1909 
Q 1175 2209 1959 2209 
L 2766 2209 
L 2766 2266 
Q 2766 2663 2505 2880 
Q 2244 3097 1772 3097 
Q 1472 3097 1187 3025 
Q 903 2953 641 2809 
L 641 3341 
Q 956 3463 1253 3523 
Q 1550 3584 1831 3584 
Q 2591 3584 2966 3190 
Q 3341 2797 3341 1997 
z
" transform="scale(0.015625)"/>
       <path id="DejaVuSans-76" d="M 191 3500 
L 800 3500 
L 1894 563 
L 2988 3500 
L 3597 3500 
L 2284 0 
L 1503 0 
L 191 3500 
z
" transform="scale(0.015625)"/>
       <path id="DejaVuSans-65" d="M 3597 1894 
L 3597 1613 
L 953 1613 
Q 991 1019 1311 708 
Q 1631 397 2203 397 
Q 2534 397 2845 478 
Q 3156 559 3463 722 
L 3463 178 
Q 3153 47 2828 -22 
Q 2503 -91 2169 -91 
Q 1331 -91 842 396 
Q 353 884 353 1716 
Q 353 2575 817 3079 
Q 1281 3584 2069 3584 
Q 2775 3584 3186 3129 
Q 3597 2675 3597 1894 
z
M 3022 2063 
Q 3016 2534 2758 2815 
Q 2500 3097 2075 3097 
Q 1594 3097 1305 2825 
Q 1016 2553 972 2059 
L 3022 2063 
z
" transform="scale(0.015625)"/>
       <path id="DejaVuSans-6c" d="M 603 4863 
L 1178 4863 
L 1178 0 
L 603 0 
L 603 4863 
z
" transform="scale(0.015625)"/>
       <path id="DejaVuSans-6e" d="M 3513 2113 
L 3513 0 
L 2938 0 
L 2938 2094 
Q 2938 2591 2744 2837 
Q 2550 3084 2163 3084 
Q 1697 3084 1428 2787 
Q 1159 2491 1159 1978 
L 1159 0 
L 581 0 
L 581 3500 
L 1159 3500 
L 1159 2956 
Q 1366 3272 1645 3428 
Q 1925 3584 2291 3584 
Q 2894 3584 3203 3211 
Q 3513 2838 3513 2113 
z
" transform="scale(0.015625)"/>
       <path id="DejaVuSans-67" d="M 2906 1791 
Q 2906 2416 2648 2759 
Q 2391 3103 1925 3103 
Q 1463 3103 1205 2759 
Q 947 2416 947 1791 
Q 947 1169 1205 825 
Q 1463 481 1925 481 
Q 2391 481 2648 825 
Q 2906 1169 2906 1791 
z
M 3481 434 
Q 3481 -459 3084 -895 
Q 2688 -1331 1869 -1331 
Q 1566 -1331 1297 -1286 
Q 1028 -1241 775 -1147 
L 775 -588 
Q 1028 -725 1275 -790 
Q 1522 -856 1778 -856 
Q 2344 -856 2625 -561 
Q 2906 -266 2906 331 
L 2906 616 
Q 2728 306 2450 153 
Q 2172 0 1784 0 
Q 1141 0 747 490 
Q 353 981 353 1791 
Q 353 2603 747 3093 
Q 1141 3584 1784 3584 
Q 2172 3584 2450 3431 
Q 2728 3278 2906 2969 
L 2906 3500 
L 3481 3500 
L 3481 434 
z
" transform="scale(0.015625)"/>
       <path id="DejaVuSans-74" d="M 1172 4494 
L 1172 3500 
L 2356 3500 
L 2356 3053 
L 1172 3053 
L 1172 1153 
Q 1172 725 1289 603 
Q 1406 481 1766 481 
L 2356 481 
L 2356 0 
L 1766 0 
Q 1100 0 847 248 
Q 594 497 594 1153 
L 594 3053 
L 172 3053 
L 172 3500 
L 594 3500 
L 594 4494 
L 1172 4494 
z
" transform="scale(0.015625)"/>
       <path id="DejaVuSans-68" d="M 3513 2113 
L 3513 0 
L 2938 0 
L 2938 2094 
Q 2938 2591 2744 2837 
Q 2550 3084 2163 3084 
Q 1697 3084 1428 2787 
Q 1159 2491 1159 1978 
L 1159 0 
L 581 0 
L 581 4863 
L 1159 4863 
L 1159 2956 
Q 1366 3272 1645 3428 
Q 1925 3584 2291 3584 
Q 2894 3584 3203 3211 
Q 3513 2838 3513 2113 
z
" transform="scale(0.015625)"/>
       <path id="DejaVuSans-20" transform="scale(0.015625)"/>
       <path id="DejaVuSans-5b" d="M 550 4863 
L 1875 4863 
L 1875 4416 
L 1125 4416 
L 1125 -397 
L 1875 -397 
L 1875 -844 
L 550 -844 
L 550 4863 
z
" transform="scale(0.015625)"/>
       <path id="DejaVuSans-c5" d="M 2663 5081 
Q 2663 5278 2523 5417 
Q 2384 5556 2188 5556 
Q 1988 5556 1852 5420 
Q 1716 5284 1716 5081 
Q 1716 4884 1853 4746 
Q 1991 4609 2188 4609 
Q 2384 4609 2523 4746 
Q 2663 4884 2663 5081 
z
M 2188 4044 
L 1338 1722 
L 3041 1722 
L 2188 4044 
z
M 1716 4366 
Q 1525 4494 1428 4673 
Q 1331 4853 1331 5081 
Q 1331 5441 1579 5691 
Q 1828 5941 2188 5941 
Q 2544 5941 2795 5689 
Q 3047 5438 3047 5081 
Q 3047 4863 2948 4678 
Q 2850 4494 2663 4366 
L 4325 0 
L 3669 0 
L 3244 1197 
L 1141 1197 
L 716 0 
L 50 0 
L 1716 4366 
z
" transform="scale(0.015625)"/>
       <path id="DejaVuSans-5d" d="M 1947 4863 
L 1947 -844 
L 622 -844 
L 622 -397 
L 1369 -397 
L 1369 4416 
L 622 4416 
L 622 4863 
L 1947 4863 
z
" transform="scale(0.015625)"/>
      </defs>
      <use xlink:href="#DejaVuSans-77"/>
      <use xlink:href="#DejaVuSans-61" transform="translate(81.787109 0)"/>
      <use xlink:href="#DejaVuSans-76" transform="translate(143.066406 0)"/>
      <use xlink:href="#DejaVuSans-65" transform="translate(202.246094 0)"/>
      <use xlink:href="#DejaVuSans-6c" transform="translate(263.769531 0)"/>
      <use xlink:href="#DejaVuSans-65" transform="translate(291.552734 0)"/>
      <use xlink:href="#DejaVuSans-6e" transform="translate(353.076172 0)"/>
      <use xlink:href="#DejaVuSans-67" transform="translate(416.455078 0)"/>
      <use xlink:href="#DejaVuSans-74" transform="translate(479.931641 0)"/>
      <use xlink:href="#DejaVuSans-68" transform="translate(519.140625 0)"/>
      <use xlink:href="#DejaVuSans-20" transform="translate(582.519531 0)"/>
      <use xlink:href="#DejaVuSans-5b" transform="translate(614.306641 0)"/>
      <use xlink:href="#DejaVuSans-c5" transform="translate(653.320312 0)"/>
      <use xlink:href="#DejaVuSans-5d" transform="translate(721.728516 0)"/>
     </g>
    </g>
   </g>
   <g id="matplotlib.axis_2">
    <g id="ytick_1">
     <g id="line2d_9">
      <defs>
       <path id="m375c681390" d="M 0 0 
L -3.5 0 
" style="stroke: #000000; stroke-width: 0.8"/>
      </defs>
      <g>
       <use xlink:href="#m375c681390" x="46.965625" y="246.484315" style="stroke: #000000; stroke-width: 0.8"/>
      </g>
     </g>
     <g id="text_10">
      <!-- 0 -->
      <g transform="translate(33.603125 250.283533) scale(0.1 -0.1)">
       <use xlink:href="#DejaVuSans-30"/>
      </g>
     </g>
    </g>
    <g id="ytick_2">
     <g id="line2d_10">
      <g>
       <use xlink:href="#m375c681390" x="46.965625" y="194.728773" style="stroke: #000000; stroke-width: 0.8"/>
      </g>
     </g>
     <g id="text_11">
      <!-- 200 -->
      <g transform="translate(20.878125 198.527992) scale(0.1 -0.1)">
       <use xlink:href="#DejaVuSans-32"/>
       <use xlink:href="#DejaVuSans-30" transform="translate(63.623047 0)"/>
       <use xlink:href="#DejaVuSans-30" transform="translate(127.246094 0)"/>
      </g>
     </g>
    </g>
    <g id="ytick_3">
     <g id="line2d_11">
      <g>
       <use xlink:href="#m375c681390" x="46.965625" y="142.973231" style="stroke: #000000; stroke-width: 0.8"/>
      </g>
     </g>
     <g id="text_12">
      <!-- 400 -->
      <g transform="translate(20.878125 146.77245) scale(0.1 -0.1)">
       <use xlink:href="#DejaVuSans-34"/>
       <use xlink:href="#DejaVuSans-30" transform="translate(63.623047 0)"/>
       <use xlink:href="#DejaVuSans-30" transform="translate(127.246094 0)"/>
      </g>
     </g>
    </g>
    <g id="ytick_4">
     <g id="line2d_12">
      <g>
       <use xlink:href="#m375c681390" x="46.965625" y="91.21769" style="stroke: #000000; stroke-width: 0.8"/>
      </g>
     </g>
     <g id="text_13">
      <!-- 600 -->
      <g transform="translate(20.878125 95.016909) scale(0.1 -0.1)">
       <defs>
        <path id="DejaVuSans-36" d="M 2113 2584 
Q 1688 2584 1439 2293 
Q 1191 2003 1191 1497 
Q 1191 994 1439 701 
Q 1688 409 2113 409 
Q 2538 409 2786 701 
Q 3034 994 3034 1497 
Q 3034 2003 2786 2293 
Q 2538 2584 2113 2584 
z
M 3366 4563 
L 3366 3988 
Q 3128 4100 2886 4159 
Q 2644 4219 2406 4219 
Q 1781 4219 1451 3797 
Q 1122 3375 1075 2522 
Q 1259 2794 1537 2939 
Q 1816 3084 2150 3084 
Q 2853 3084 3261 2657 
Q 3669 2231 3669 1497 
Q 3669 778 3244 343 
Q 2819 -91 2113 -91 
Q 1303 -91 875 529 
Q 447 1150 447 2328 
Q 447 3434 972 4092 
Q 1497 4750 2381 4750 
Q 2619 4750 2861 4703 
Q 3103 4656 3366 4563 
z
" transform="scale(0.015625)"/>
       </defs>
       <use xlink:href="#DejaVuSans-36"/>
       <use xlink:href="#DejaVuSans-30" transform="translate(63.623047 0)"/>
       <use xlink:href="#DejaVuSans-30" transform="translate(127.246094 0)"/>
      </g>
     </g>
    </g>
    <g id="ytick_5">
     <g id="line2d_13">
      <g>
       <use xlink:href="#m375c681390" x="46.965625" y="39.462148" style="stroke: #000000; stroke-width: 0.8"/>
      </g>
     </g>
     <g id="text_14">
      <!-- 800 -->
      <g transform="translate(20.878125 43.261367) scale(0.1 -0.1)">
       <defs>
        <path id="DejaVuSans-38" d="M 2034 2216 
Q 1584 2216 1326 1975 
Q 1069 1734 1069 1313 
Q 1069 891 1326 650 
Q 1584 409 2034 409 
Q 2484 409 2743 651 
Q 3003 894 3003 1313 
Q 3003 1734 2745 1975 
Q 2488 2216 2034 2216 
z
M 1403 2484 
Q 997 2584 770 2862 
Q 544 3141 544 3541 
Q 544 4100 942 4425 
Q 1341 4750 2034 4750 
Q 2731 4750 3128 4425 
Q 3525 4100 3525 3541 
Q 3525 3141 3298 2862 
Q 3072 2584 2669 2484 
Q 3125 2378 3379 2068 
Q 3634 1759 3634 1313 
Q 3634 634 3220 271 
Q 2806 -91 2034 -91 
Q 1263 -91 848 271 
Q 434 634 434 1313 
Q 434 1759 690 2068 
Q 947 2378 1403 2484 
z
M 1172 3481 
Q 1172 3119 1398 2916 
Q 1625 2713 2034 2713 
Q 2441 2713 2670 2916 
Q 2900 3119 2900 3481 
Q 2900 3844 2670 4047 
Q 2441 4250 2034 4250 
Q 1625 4250 1398 4047 
Q 1172 3844 1172 3481 
z
" transform="scale(0.015625)"/>
       </defs>
       <use xlink:href="#DejaVuSans-38"/>
       <use xlink:href="#DejaVuSans-30" transform="translate(63.623047 0)"/>
       <use xlink:href="#DejaVuSans-30" transform="translate(127.246094 0)"/>
      </g>
     </g>
    </g>
    <g id="text_15">
     <!-- [counts] -->
     <g transform="translate(14.798437 160.35101) rotate(-90) scale(0.1 -0.1)">
      <defs>
       <path id="DejaVuSans-63" d="M 3122 3366 
L 3122 2828 
Q 2878 2963 2633 3030 
Q 2388 3097 2138 3097 
Q 1578 3097 1268 2742 
Q 959 2388 959 1747 
Q 959 1106 1268 751 
Q 1578 397 2138 397 
Q 2388 397 2633 464 
Q 2878 531 3122 666 
L 3122 134 
Q 2881 22 2623 -34 
Q 2366 -91 2075 -91 
Q 1284 -91 818 406 
Q 353 903 353 1747 
Q 353 2603 823 3093 
Q 1294 3584 2113 3584 
Q 2378 3584 2631 3529 
Q 2884 3475 3122 3366 
z
" transform="scale(0.015625)"/>
       <path id="DejaVuSans-6f" d="M 1959 3097 
Q 1497 3097 1228 2736 
Q 959 2375 959 1747 
Q 959 1119 1226 758 
Q 1494 397 1959 397 
Q 2419 397 2687 759 
Q 2956 1122 2956 1747 
Q 2956 2369 2687 2733 
Q 2419 3097 1959 3097 
z
M 1959 3584 
Q 2709 3584 3137 3096 
Q 3566 2609 3566 1747 
Q 3566 888 3137 398 
Q 2709 -91 1959 -91 
Q 1206 -91 779 398 
Q 353 888 353 1747 
Q 353 2609 779 3096 
Q 1206 3584 1959 3584 
z
" transform="scale(0.015625)"/>
       <path id="DejaVuSans-75" d="M 544 1381 
L 544 3500 
L 1119 3500 
L 1119 1403 
Q 1119 906 1312 657 
Q 1506 409 1894 409 
Q 2359 409 2629 706 
Q 2900 1003 2900 1516 
L 2900 3500 
L 3475 3500 
L 3475 0 
L 2900 0 
L 2900 538 
Q 2691 219 2414 64 
Q 2138 -91 1772 -91 
Q 1169 -91 856 284 
Q 544 659 544 1381 
z
M 1991 3584 
L 1991 3584 
z
" transform="scale(0.015625)"/>
       <path id="DejaVuSans-73" d="M 2834 3397 
L 2834 2853 
Q 2591 2978 2328 3040 
Q 2066 3103 1784 3103 
Q 1356 3103 1142 2972 
Q 928 2841 928 2578 
Q 928 2378 1081 2264 
Q 1234 2150 1697 2047 
L 1894 2003 
Q 2506 1872 2764 1633 
Q 3022 1394 3022 966 
Q 3022 478 2636 193 
Q 2250 -91 1575 -91 
Q 1294 -91 989 -36 
Q 684 19 347 128 
L 347 722 
Q 666 556 975 473 
Q 1284 391 1588 391 
Q 1994 391 2212 530 
Q 2431 669 2431 922 
Q 2431 1156 2273 1281 
Q 2116 1406 1581 1522 
L 1381 1569 
Q 847 1681 609 1914 
Q 372 2147 372 2553 
Q 372 3047 722 3315 
Q 1072 3584 1716 3584 
Q 2034 3584 2315 3537 
Q 2597 3491 2834 3397 
z
" transform="scale(0.015625)"/>
      </defs>
      <use xlink:href="#DejaVuSans-5b"/>
      <use xlink:href="#DejaVuSans-63" transform="translate(39.013672 0)"/>
      <use xlink:href="#DejaVuSans-6f" transform="translate(93.994141 0)"/>
      <use xlink:href="#DejaVuSans-75" transform="translate(155.175781 0)"/>
      <use xlink:href="#DejaVuSans-6e" transform="translate(218.554688 0)"/>
      <use xlink:href="#DejaVuSans-74" transform="translate(281.933594 0)"/>
      <use xlink:href="#DejaVuSans-73" transform="translate(321.142578 0)"/>
      <use xlink:href="#DejaVuSans-5d" transform="translate(373.242188 0)"/>
     </g>
    </g>
   </g>
   <g id="line2d_14">
    <path d="M 64.461722 246.484315 
L 73.209771 246.484315 
L 73.209771 243.378982 
L 74.95938 243.378982 
L 74.95938 237.685872 
L 76.70899 237.685872 
L 76.70899 230.440097 
L 78.4586 230.440097 
L 78.4586 220.865321 
L 80.208209 220.865321 
L 80.208209 211.808102 
L 81.957819 211.808102 
L 81.957819 204.821104 
L 83.707429 204.821104 
L 83.707429 193.176107 
L 85.457039 193.176107 
L 85.457039 191.105885 
L 87.206648 191.105885 
L 87.206648 181.272332 
L 88.956258 181.272332 
L 88.956258 180.237221 
L 90.705868 180.237221 
L 90.705868 157.206005 
L 92.455477 157.206005 
L 92.455477 164.193003 
L 94.205087 164.193003 
L 94.205087 142.455676 
L 95.954697 142.455676 
L 95.954697 146.854897 
L 97.704306 146.854897 
L 97.704306 126.670236 
L 99.453916 126.670236 
L 99.453916 120.459571 
L 101.203526 120.459571 
L 101.203526 116.836683 
L 102.953136 116.836683 
L 102.953136 119.165682 
L 104.702745 119.165682 
L 104.702745 110.108462 
L 106.452355 110.108462 
L 106.452355 92.252801 
L 108.201965 92.252801 
L 108.201965 85.007025 
L 109.951574 85.007025 
L 109.951574 94.323022 
L 111.701184 94.323022 
L 111.701184 81.642915 
L 113.450794 81.642915 
L 113.450794 79.831471 
L 115.200403 79.831471 
L 115.200403 72.844472 
L 116.950013 72.844472 
L 116.950013 83.195581 
L 118.699623 83.195581 
L 118.699623 79.055137 
L 120.449233 79.055137 
L 120.449233 66.116252 
L 122.198842 66.116252 
L 122.198842 64.563586 
L 123.948452 64.563586 
L 123.948452 52.401034 
L 125.698062 52.401034 
L 125.698062 35.321705 
L 127.447671 35.321705 
L 127.447671 49.813256 
L 129.197281 49.813256 
L 129.197281 35.062927 
L 130.946891 35.062927 
L 130.946891 32.992705 
L 132.696501 32.992705 
L 132.696501 59.646809 
L 134.44611 59.646809 
L 134.44611 61.199476 
L 136.19572 61.199476 
L 136.19572 44.120147 
L 137.94533 44.120147 
L 137.94533 67.410141 
L 139.694939 67.410141 
L 139.694939 59.905587 
L 141.444549 59.905587 
L 141.444549 53.177367 
L 143.194159 53.177367 
L 143.194159 63.01092 
L 144.943768 63.01092 
L 144.943768 88.629913 
L 146.693378 88.629913 
L 146.693378 79.313915 
L 148.442988 79.313915 
L 148.442988 67.927696 
L 150.192598 67.927696 
L 150.192598 88.112357 
L 151.942207 88.112357 
L 151.942207 70.515473 
L 153.691817 70.515473 
L 153.691817 89.147468 
L 155.441427 89.147468 
L 155.441427 87.077246 
L 157.191036 87.077246 
L 157.191036 79.572693 
L 158.940646 79.572693 
L 158.940646 77.502471 
L 160.690256 77.502471 
L 160.690256 83.454359 
L 162.439866 83.454359 
L 162.439866 78.020027 
L 164.189475 78.020027 
L 164.189475 91.735245 
L 165.939085 91.735245 
L 165.939085 80.349026 
L 167.688695 80.349026 
L 167.688695 83.713136 
L 169.438304 83.713136 
L 169.438304 86.559691 
L 171.187914 86.559691 
L 171.187914 107.779463 
L 172.937524 107.779463 
L 172.937524 87.85358 
L 174.687133 87.85358 
L 174.687133 95.099355 
L 176.436743 95.099355 
L 176.436743 92.511578 
L 178.186353 92.511578 
L 178.186353 84.489469 
L 179.935963 84.489469 
L 179.935963 101.827576 
L 181.685572 101.827576 
L 181.685572 87.336024 
L 183.435182 87.336024 
L 183.435182 92.252801 
L 185.184792 92.252801 
L 185.184792 87.336024 
L 186.934401 87.336024 
L 186.934401 90.441357 
L 188.684011 90.441357 
L 188.684011 92.511578 
L 190.433621 92.511578 
L 190.433621 101.568798 
L 192.18323 101.568798 
L 192.18323 95.099355 
L 193.93284 95.099355 
L 193.93284 88.88869 
L 195.68245 88.88869 
L 195.68245 101.827576 
L 197.43206 101.827576 
L 197.43206 114.766461 
L 199.181669 114.766461 
L 199.181669 109.332129 
L 200.931279 109.332129 
L 200.931279 110.36724 
L 202.680889 110.36724 
L 202.680889 126.15268 
L 204.430498 126.15268 
L 204.430498 118.906905 
L 206.180108 118.906905 
L 206.180108 134.433567 
L 207.929718 134.433567 
L 207.929718 145.561008 
L 211.428937 145.561008 
L 211.428937 155.135784 
L 213.178547 155.135784 
L 213.178547 168.851002 
L 214.928157 168.851002 
L 214.928157 171.697557 
L 216.677766 171.697557 
L 216.677766 184.89522 
L 218.427376 184.89522 
L 218.427376 192.658551 
L 220.176986 192.658551 
L 220.176986 199.904327 
L 221.926595 199.904327 
L 221.926595 209.220325 
L 223.676205 209.220325 
L 223.676205 214.654656 
L 225.425815 214.654656 
L 225.425815 220.347766 
L 227.175425 220.347766 
L 227.175425 227.85232 
L 228.925034 227.85232 
L 228.925034 230.698874 
L 230.674644 230.698874 
L 230.674644 233.804207 
L 232.424254 233.804207 
L 232.424254 240.014872 
L 234.173863 240.014872 
L 234.173863 241.567538 
L 235.923473 241.567538 
L 235.923473 244.414093 
L 237.673083 244.414093 
L 237.673083 241.30876 
L 239.422693 241.30876 
L 239.422693 233.545429 
L 241.172302 233.545429 
L 241.172302 227.593542 
L 242.921912 227.593542 
L 242.921912 224.488209 
L 244.671522 224.488209 
L 244.671522 211.290546 
L 246.421131 211.290546 
L 246.421131 209.996658 
L 248.170741 209.996658 
L 248.170741 197.834105 
L 249.920351 197.834105 
L 249.920351 191.62344 
L 251.66996 191.62344 
L 251.66996 190.847107 
L 253.41957 190.847107 
L 253.41957 188.518108 
L 255.16918 188.518108 
L 255.16918 174.026556 
L 256.91879 174.026556 
L 256.91879 173.509001 
L 258.668399 173.509001 
L 258.668399 175.061667 
L 260.418009 175.061667 
L 260.418009 172.732668 
L 262.167619 172.732668 
L 262.167619 159.276227 
L 263.917228 159.276227 
L 263.917228 151.254118 
L 265.666838 151.254118 
L 265.666838 155.394561 
L 267.416448 155.394561 
L 267.416448 151.512896 
L 269.166057 151.512896 
L 269.166057 147.372452 
L 270.915667 147.372452 
L 270.915667 140.385454 
L 272.665277 140.385454 
L 272.665277 133.916012 
L 274.414887 133.916012 
L 274.414887 144.784675 
L 276.164496 144.784675 
L 276.164496 136.503789 
L 277.914106 136.503789 
L 277.914106 122.012237 
L 279.663716 122.012237 
L 279.663716 134.174789 
L 281.413325 134.174789 
L 281.413325 115.025239 
L 283.162935 115.025239 
L 283.162935 124.858792 
L 284.912545 124.858792 
L 284.912545 117.354238 
L 286.662155 117.354238 
L 286.662155 115.542794 
L 288.411764 115.542794 
L 288.411764 108.297018 
L 290.161374 108.297018 
L 290.161374 109.849685 
L 291.910984 109.849685 
L 291.910984 109.073352 
L 293.660593 109.073352 
L 293.660593 121.753459 
L 295.410203 121.753459 
L 295.410203 109.590907 
L 297.159813 109.590907 
L 297.159813 116.836683 
L 298.909422 116.836683 
L 298.909422 121.494682 
L 300.659032 121.494682 
L 300.659032 112.955017 
L 302.408642 112.955017 
L 302.408642 128.48168 
L 304.158252 128.48168 
L 304.158252 128.222902 
L 305.907861 128.222902 
L 305.907861 126.411458 
L 307.657471 126.411458 
L 307.657471 126.15268 
L 309.407081 126.15268 
L 309.407081 128.48168 
L 311.15669 128.48168 
L 311.15669 131.587012 
L 312.9063 131.587012 
L 312.9063 125.893903 
L 314.65591 125.893903 
L 314.65591 131.328234 
L 316.405519 131.328234 
L 316.405519 138.57401 
L 318.155129 138.57401 
L 318.155129 138.056455 
L 319.904739 138.056455 
L 319.904739 136.762566 
L 321.654349 136.762566 
L 321.654349 147.372452 
L 323.403958 147.372452 
L 323.403958 143.232009 
L 325.153568 143.232009 
L 325.153568 134.692345 
L 326.903178 134.692345 
L 326.903178 154.618228 
L 328.652787 154.618228 
L 328.652787 149.183896 
L 330.402397 149.183896 
L 330.402397 153.583117 
L 332.152007 153.583117 
L 332.152007 155.135784 
L 333.901617 155.135784 
L 333.901617 153.065562 
L 335.651226 153.065562 
L 335.651226 155.135784 
L 337.400836 155.135784 
L 337.400836 168.074669 
L 339.150446 168.074669 
L 339.150446 154.100673 
L 340.900055 154.100673 
L 340.900055 169.368558 
L 342.649665 169.368558 
L 342.649665 158.758672 
L 344.399275 158.758672 
L 344.399275 177.131889 
L 346.148884 177.131889 
L 346.148884 167.298336 
L 347.898494 167.298336 
L 347.898494 176.614333 
L 349.648104 176.614333 
L 349.648104 164.710559 
L 351.397714 164.710559 
L 351.397714 174.544112 
L 353.147323 174.544112 
L 353.147323 168.333447 
L 354.896933 168.333447 
L 354.896933 178.425777 
L 356.646543 178.425777 
L 356.646543 186.189109 
L 358.396152 186.189109 
L 358.396152 181.272332 
L 360.145762 181.272332 
L 360.145762 193.693662 
L 361.895372 193.693662 
L 361.895372 180.495999 
L 363.644982 180.495999 
L 363.644982 190.58833 
L 365.394591 190.58833 
L 365.394591 191.105885 
L 367.144201 191.105885 
L 367.144201 192.917329 
L 368.893811 192.917329 
L 368.893811 199.386772 
L 370.64342 199.386772 
L 370.64342 204.821104 
L 372.39303 204.821104 
L 372.39303 206.37377 
L 374.14264 206.37377 
L 374.14264 205.079881 
L 375.892249 205.079881 
L 375.892249 214.654656 
L 377.641859 214.654656 
L 377.641859 218.277544 
L 379.391469 218.277544 
L 379.391469 217.501211 
L 381.141079 217.501211 
L 381.141079 219.053877 
L 382.890688 219.053877 
L 382.890688 222.417988 
L 384.640298 222.417988 
L 384.640298 228.628653 
L 386.389908 228.628653 
L 386.389908 233.027874 
L 388.139517 233.027874 
L 388.139517 232.769096 
L 389.889127 232.769096 
L 389.889127 237.427095 
L 391.638737 237.427095 
L 391.638737 234.58054 
L 393.388347 234.58054 
L 393.388347 238.203428 
L 395.137956 238.203428 
L 395.137956 242.602649 
L 396.887566 242.602649 
L 396.887566 242.343871 
L 398.637176 242.343871 
L 398.637176 242.602649 
L 400.386785 242.602649 
L 400.386785 245.190426 
L 402.136395 245.190426 
L 402.136395 245.707981 
L 403.886005 245.707981 
L 403.886005 246.484315 
L 414.383663 246.484315 
L 414.383663 246.484315 
" clip-path="url(#p7e8c9ac699)" style="fill: none; stroke: #1f77b4; stroke-width: 1.5; stroke-linecap: square"/>
   </g>
   <g id="line2d_15">
    <path d="M 64.461722 246.484315 
L 73.209771 246.484315 
L 73.209771 243.120204 
L 74.95938 243.120204 
L 74.95938 237.685872 
L 76.70899 237.685872 
L 76.70899 230.440097 
L 78.4586 230.440097 
L 78.4586 220.088988 
L 80.208209 220.088988 
L 80.208209 211.549324 
L 81.957819 211.549324 
L 81.957819 204.562326 
L 83.707429 204.562326 
L 83.707429 192.917329 
L 85.457039 192.917329 
L 85.457039 195.246328 
L 87.206648 195.246328 
L 87.206648 181.272332 
L 88.956258 181.272332 
L 88.956258 178.167 
L 90.705868 178.167 
L 90.705868 158.241116 
L 92.455477 158.241116 
L 92.455477 159.276227 
L 94.205087 159.276227 
L 94.205087 148.407563 
L 95.954697 148.407563 
L 95.954697 138.315233 
L 97.704306 138.315233 
L 97.704306 132.880901 
L 99.453916 132.880901 
L 99.453916 119.683238 
L 101.203526 119.683238 
L 101.203526 120.718348 
L 102.953136 120.718348 
L 102.953136 115.542794 
L 104.702745 115.542794 
L 104.702745 110.36724 
L 106.452355 110.36724 
L 106.452355 88.629913 
L 108.201965 88.629913 
L 108.201965 86.042136 
L 109.951574 86.042136 
L 109.951574 87.077246 
L 111.701184 87.077246 
L 111.701184 87.85358 
L 113.450794 87.85358 
L 113.450794 74.655916 
L 115.200403 74.655916 
L 115.200403 81.384137 
L 116.950013 81.384137 
L 116.950013 78.79636 
L 118.699623 78.79636 
L 118.699623 88.371135 
L 120.449233 88.371135 
L 120.449233 62.234586 
L 122.198842 62.234586 
L 122.198842 65.081141 
L 123.948452 65.081141 
L 123.948452 49.813256 
L 125.698062 49.813256 
L 125.698062 36.098038 
L 127.447671 36.098038 
L 127.447671 48.519368 
L 129.197281 48.519368 
L 129.197281 34.804149 
L 130.946891 34.804149 
L 130.946891 41.53237 
L 132.696501 41.53237 
L 132.696501 54.988811 
L 134.44611 54.988811 
L 134.44611 57.059032 
L 136.19572 57.059032 
L 136.19572 54.988811 
L 137.94533 54.988811 
L 137.94533 56.023921 
L 139.694939 56.023921 
L 139.694939 60.423143 
L 141.444549 60.423143 
L 141.444549 47.484257 
L 143.194159 47.484257 
L 143.194159 82.419248 
L 144.943768 82.419248 
L 144.943768 81.901692 
L 146.693378 81.901692 
L 146.693378 73.879583 
L 148.442988 73.879583 
L 148.442988 80.866581 
L 150.192598 80.866581 
L 150.192598 73.879583 
L 151.942207 73.879583 
L 151.942207 76.726138 
L 153.691817 76.726138 
L 153.691817 80.866581 
L 155.441427 80.866581 
L 155.441427 90.182579 
L 157.191036 90.182579 
L 157.191036 81.642915 
L 158.940646 81.642915 
L 158.940646 75.949805 
L 160.690256 75.949805 
L 160.690256 86.042136 
L 162.439866 86.042136 
L 162.439866 87.594802 
L 164.189475 87.594802 
L 164.189475 75.691027 
L 165.939085 75.691027 
L 165.939085 86.818469 
L 167.688695 86.818469 
L 167.688695 84.230692 
L 169.438304 84.230692 
L 169.438304 91.994023 
L 171.187914 91.994023 
L 171.187914 97.94591 
L 172.937524 97.94591 
L 172.937524 89.665024 
L 174.687133 89.665024 
L 174.687133 97.94591 
L 176.436743 97.94591 
L 176.436743 87.077246 
L 178.186353 87.077246 
L 178.186353 95.099355 
L 179.935963 95.099355 
L 179.935963 93.287911 
L 181.685572 93.287911 
L 181.685572 94.5818 
L 183.435182 94.5818 
L 183.435182 80.866581 
L 185.184792 80.866581 
L 185.184792 91.994023 
L 186.934401 91.994023 
L 186.934401 93.029134 
L 188.684011 93.029134 
L 188.684011 85.007025 
L 190.433621 85.007025 
L 190.433621 109.073352 
L 192.18323 109.073352 
L 192.18323 93.029134 
L 193.93284 93.029134 
L 193.93284 95.358133 
L 195.68245 95.358133 
L 195.68245 102.603909 
L 197.43206 102.603909 
L 197.43206 112.437462 
L 199.181669 112.437462 
L 199.181669 104.674131 
L 200.931279 104.674131 
L 200.931279 113.990128 
L 202.680889 113.990128 
L 202.680889 126.15268 
L 204.430498 126.15268 
L 204.430498 121.494682 
L 206.180108 121.494682 
L 206.180108 135.986233 
L 207.929718 135.986233 
L 207.929718 140.90301 
L 209.679328 140.90301 
L 209.679328 138.315233 
L 211.428937 138.315233 
L 211.428937 161.864004 
L 213.178547 161.864004 
L 213.178547 168.333447 
L 214.928157 168.333447 
L 214.928157 172.215112 
L 216.677766 172.215112 
L 216.677766 182.566221 
L 218.427376 182.566221 
L 218.427376 191.364663 
L 220.176986 191.364663 
L 220.176986 201.715771 
L 221.926595 201.715771 
L 221.926595 209.220325 
L 223.676205 209.220325 
L 223.676205 214.137101 
L 225.425815 214.137101 
L 225.425815 220.606544 
L 227.175425 220.606544 
L 227.175425 227.075986 
L 228.925034 227.075986 
L 228.925034 231.733985 
L 230.674644 231.733985 
L 230.674644 233.027874 
L 232.424254 233.027874 
L 232.424254 240.014872 
L 234.173863 240.014872 
L 234.173863 241.30876 
L 235.923473 241.30876 
L 235.923473 243.896537 
L 237.673083 243.896537 
L 237.673083 240.791205 
L 239.422693 240.791205 
L 239.422693 233.027874 
L 241.172302 233.027874 
L 241.172302 228.628653 
L 242.921912 228.628653 
L 242.921912 224.488209 
L 244.671522 224.488209 
L 244.671522 209.996658 
L 246.421131 209.996658 
L 246.421131 210.255435 
L 248.170741 210.255435 
L 248.170741 197.575328 
L 249.920351 197.575328 
L 249.920351 194.728773 
L 251.66996 194.728773 
L 251.66996 188.000553 
L 253.41957 188.000553 
L 253.41957 189.294441 
L 255.16918 189.294441 
L 255.16918 175.579223 
L 256.91879 175.579223 
L 256.91879 170.144891 
L 258.668399 170.144891 
L 258.668399 176.096778 
L 260.418009 176.096778 
L 260.418009 171.180002 
L 262.167619 171.180002 
L 262.167619 163.157893 
L 263.917228 163.157893 
L 263.917228 152.548007 
L 265.666838 152.548007 
L 265.666838 152.806784 
L 267.416448 152.806784 
L 267.416448 151.512896 
L 269.166057 151.512896 
L 269.166057 146.854897 
L 270.915667 146.854897 
L 270.915667 139.867899 
L 272.665277 139.867899 
L 272.665277 131.84579 
L 274.414887 131.84579 
L 274.414887 144.26712 
L 276.164496 144.26712 
L 276.164496 135.2099 
L 277.914106 135.2099 
L 277.914106 123.564903 
L 279.663716 123.564903 
L 279.663716 130.551901 
L 281.413325 130.551901 
L 281.413325 124.082459 
L 283.162935 124.082459 
L 283.162935 120.459571 
L 284.912545 120.459571 
L 284.912545 122.271015 
L 286.662155 122.271015 
L 286.662155 111.402351 
L 288.411764 111.402351 
L 288.411764 108.555796 
L 290.161374 108.555796 
L 290.161374 111.661129 
L 291.910984 111.661129 
L 291.910984 109.332129 
L 293.660593 109.332129 
L 293.660593 114.507683 
L 295.410203 114.507683 
L 295.410203 120.459571 
L 297.159813 120.459571 
L 297.159813 113.472573 
L 298.909422 113.472573 
L 298.909422 108.555796 
L 300.659032 108.555796 
L 300.659032 126.15268 
L 302.408642 126.15268 
L 302.408642 129.258013 
L 304.158252 129.258013 
L 304.158252 123.047348 
L 305.907861 123.047348 
L 305.907861 133.657234 
L 307.657471 133.657234 
L 307.657471 114.507683 
L 309.407081 114.507683 
L 309.407081 136.245011 
L 311.15669 136.245011 
L 311.15669 128.999235 
L 312.9063 128.999235 
L 312.9063 124.858792 
L 314.65591 124.858792 
L 314.65591 132.880901 
L 316.405519 132.880901 
L 316.405519 137.280122 
L 318.155129 137.280122 
L 318.155129 136.762566 
L 319.904739 136.762566 
L 319.904739 145.302231 
L 321.654349 145.302231 
L 321.654349 141.161787 
L 323.403958 141.161787 
L 323.403958 142.455676 
L 325.153568 142.455676 
L 325.153568 136.762566 
L 326.903178 136.762566 
L 326.903178 150.219007 
L 328.652787 150.219007 
L 328.652787 149.183896 
L 330.402397 149.183896 
L 330.402397 156.68845 
L 332.152007 156.68845 
L 332.152007 157.464783 
L 333.901617 157.464783 
L 333.901617 153.32434 
L 335.651226 153.32434 
L 335.651226 150.736563 
L 337.400836 150.736563 
L 337.400836 164.969337 
L 339.150446 164.969337 
L 339.150446 161.087671 
L 340.900055 161.087671 
L 340.900055 171.697557 
L 342.649665 171.697557 
L 342.649665 162.381559 
L 344.399275 162.381559 
L 344.399275 172.47389 
L 346.148884 172.47389 
L 346.148884 171.697557 
L 347.898494 171.697557 
L 347.898494 171.956335 
L 349.648104 171.956335 
L 349.648104 163.675448 
L 351.397714 163.675448 
L 351.397714 170.144891 
L 353.147323 170.144891 
L 353.147323 175.320445 
L 354.896933 175.320445 
L 354.896933 181.013554 
L 356.646543 181.013554 
L 356.646543 179.20211 
L 358.396152 179.20211 
L 358.396152 185.671553 
L 360.145762 185.671553 
L 360.145762 184.377665 
L 361.895372 184.377665 
L 361.895372 182.307443 
L 363.644982 182.307443 
L 363.644982 195.763884 
L 365.394591 195.763884 
L 365.394591 192.917329 
L 367.144201 192.917329 
L 367.144201 194.987551 
L 368.893811 194.987551 
L 368.893811 199.386772 
L 370.64342 199.386772 
L 370.64342 200.421883 
L 372.39303 200.421883 
L 372.39303 206.114992 
L 374.14264 206.114992 
L 374.14264 205.338659 
L 375.892249 205.338659 
L 375.892249 214.913434 
L 377.641859 214.913434 
L 377.641859 218.7951 
L 379.391469 218.7951 
L 379.391469 215.689767 
L 381.141079 215.689767 
L 381.141079 218.536322 
L 382.890688 218.536322 
L 382.890688 226.299653 
L 384.640298 226.299653 
L 384.640298 227.075986 
L 386.389908 227.075986 
L 386.389908 231.992763 
L 388.139517 231.992763 
L 388.139517 233.804207 
L 389.889127 233.804207 
L 389.889127 237.685872 
L 391.638737 237.685872 
L 391.638737 234.062985 
L 393.388347 234.062985 
L 393.388347 237.94465 
L 395.137956 237.94465 
L 395.137956 242.343871 
L 398.637176 242.343871 
L 398.637176 242.861427 
L 400.386785 242.861427 
L 400.386785 244.672871 
L 402.136395 244.672871 
L 402.136395 245.966759 
L 403.886005 245.966759 
L 403.886005 245.707981 
L 405.635614 245.707981 
L 405.635614 246.484315 
L 414.383663 246.484315 
L 414.383663 246.484315 
" clip-path="url(#p7e8c9ac699)" style="fill: none; stroke: #ff7f0e; stroke-width: 1.5; stroke-linecap: square"/>
   </g>
   <g id="patch_3">
    <path d="M 46.965625 257.158895 
L 46.965625 22.318125 
" style="fill: none; stroke: #000000; stroke-width: 0.8; stroke-linejoin: miter; stroke-linecap: square"/>
   </g>
   <g id="patch_4">
    <path d="M 431.87976 257.158895 
L 431.87976 22.318125 
" style="fill: none; stroke: #000000; stroke-width: 0.8; stroke-linejoin: miter; stroke-linecap: square"/>
   </g>
   <g id="patch_5">
    <path d="M 46.965625 257.158895 
L 431.87976 257.158895 
" style="fill: none; stroke: #000000; stroke-width: 0.8; stroke-linejoin: miter; stroke-linecap: square"/>
   </g>
   <g id="patch_6">
    <path d="M 46.965625 22.318125 
L 431.87976 22.318125 
" style="fill: none; stroke: #000000; stroke-width: 0.8; stroke-linejoin: miter; stroke-linecap: square"/>
   </g>
   <g id="text_16">
    <!-- Pixel 1 -->
    <g transform="translate(219.82613 16.318125) scale(0.12 -0.12)">
     <defs>
      <path id="DejaVuSans-50" d="M 1259 4147 
L 1259 2394 
L 2053 2394 
Q 2494 2394 2734 2622 
Q 2975 2850 2975 3272 
Q 2975 3691 2734 3919 
Q 2494 4147 2053 4147 
L 1259 4147 
z
M 628 4666 
L 2053 4666 
Q 2838 4666 3239 4311 
Q 3641 3956 3641 3272 
Q 3641 2581 3239 2228 
Q 2838 1875 2053 1875 
L 1259 1875 
L 1259 0 
L 628 0 
L 628 4666 
z
" transform="scale(0.015625)"/>
      <path id="DejaVuSans-69" d="M 603 3500 
L 1178 3500 
L 1178 0 
L 603 0 
L 603 3500 
z
M 603 4863 
L 1178 4863 
L 1178 4134 
L 603 4134 
L 603 4863 
z
" transform="scale(0.015625)"/>
      <path id="DejaVuSans-78" d="M 3513 3500 
L 2247 1797 
L 3578 0 
L 2900 0 
L 1881 1375 
L 863 0 
L 184 0 
L 1544 1831 
L 300 3500 
L 978 3500 
L 1906 2253 
L 2834 3500 
L 3513 3500 
z
" transform="scale(0.015625)"/>
     </defs>
     <use xlink:href="#DejaVuSans-50"/>
     <use xlink:href="#DejaVuSans-69" transform="translate(58.052734 0)"/>
     <use xlink:href="#DejaVuSans-78" transform="translate(85.835938 0)"/>
     <use xlink:href="#DejaVuSans-65" transform="translate(141.890625 0)"/>
     <use xlink:href="#DejaVuSans-6c" transform="translate(203.414062 0)"/>
     <use xlink:href="#DejaVuSans-20" transform="translate(231.197266 0)"/>
     <use xlink:href="#DejaVuSans-31" transform="translate(262.984375 0)"/>
    </g>
   </g>
   <g id="legend_1">
    <g id="patch_7">
     <path d="M 327.876635 59.9525 
L 424.87976 59.9525 
Q 426.87976 59.9525 426.87976 57.9525 
L 426.87976 29.318125 
Q 426.87976 27.318125 424.87976 27.318125 
L 327.876635 27.318125 
Q 325.876635 27.318125 325.876635 29.318125 
L 325.876635 57.9525 
Q 325.876635 59.9525 327.876635 59.9525 
z
" style="fill: #ffffff; opacity: 0.8; stroke: #cccccc; stroke-linejoin: miter"/>
    </g>
    <g id="line2d_16">
     <path d="M 329.876635 35.416562 
L 329.876635 35.416562 
L 339.876635 35.416562 
L 339.876635 35.416562 
L 349.876635 35.416562 
" style="fill: none; stroke: #1f77b4; stroke-width: 1.5; stroke-linecap: square"/>
    </g>
    <g id="text_17">
     <!-- wfm -->
     <g transform="translate(357.876635 38.916562) scale(0.1 -0.1)">
      <defs>
       <path id="DejaVuSans-66" d="M 2375 4863 
L 2375 4384 
L 1825 4384 
Q 1516 4384 1395 4259 
Q 1275 4134 1275 3809 
L 1275 3500 
L 2222 3500 
L 2222 3053 
L 1275 3053 
L 1275 0 
L 697 0 
L 697 3053 
L 147 3053 
L 147 3500 
L 697 3500 
L 697 3744 
Q 697 4328 969 4595 
Q 1241 4863 1831 4863 
L 2375 4863 
z
" transform="scale(0.015625)"/>
       <path id="DejaVuSans-6d" d="M 3328 2828 
Q 3544 3216 3844 3400 
Q 4144 3584 4550 3584 
Q 5097 3584 5394 3201 
Q 5691 2819 5691 2113 
L 5691 0 
L 5113 0 
L 5113 2094 
Q 5113 2597 4934 2840 
Q 4756 3084 4391 3084 
Q 3944 3084 3684 2787 
Q 3425 2491 3425 1978 
L 3425 0 
L 2847 0 
L 2847 2094 
Q 2847 2600 2669 2842 
Q 2491 3084 2119 3084 
Q 1678 3084 1418 2786 
Q 1159 2488 1159 1978 
L 1159 0 
L 581 0 
L 581 3500 
L 1159 3500 
L 1159 2956 
Q 1356 3278 1631 3431 
Q 1906 3584 2284 3584 
Q 2666 3584 2933 3390 
Q 3200 3197 3328 2828 
z
" transform="scale(0.015625)"/>
      </defs>
      <use xlink:href="#DejaVuSans-77"/>
      <use xlink:href="#DejaVuSans-66" transform="translate(81.787109 0)"/>
      <use xlink:href="#DejaVuSans-6d" transform="translate(116.992188 0)"/>
     </g>
    </g>
    <g id="line2d_17">
     <path d="M 329.876635 50.094687 
L 329.876635 50.094687 
L 339.876635 50.094687 
L 339.876635 50.094687 
L 349.876635 50.094687 
" style="fill: none; stroke: #ff7f0e; stroke-width: 1.5; stroke-linecap: square"/>
    </g>
    <g id="text_18">
     <!-- ground_truth -->
     <g transform="translate(357.876635 53.594687) scale(0.1 -0.1)">
      <defs>
       <path id="DejaVuSans-72" d="M 2631 2963 
Q 2534 3019 2420 3045 
Q 2306 3072 2169 3072 
Q 1681 3072 1420 2755 
Q 1159 2438 1159 1844 
L 1159 0 
L 581 0 
L 581 3500 
L 1159 3500 
L 1159 2956 
Q 1341 3275 1631 3429 
Q 1922 3584 2338 3584 
Q 2397 3584 2469 3576 
Q 2541 3569 2628 3553 
L 2631 2963 
z
" transform="scale(0.015625)"/>
       <path id="DejaVuSans-64" d="M 2906 2969 
L 2906 4863 
L 3481 4863 
L 3481 0 
L 2906 0 
L 2906 525 
Q 2725 213 2448 61 
Q 2172 -91 1784 -91 
Q 1150 -91 751 415 
Q 353 922 353 1747 
Q 353 2572 751 3078 
Q 1150 3584 1784 3584 
Q 2172 3584 2448 3432 
Q 2725 3281 2906 2969 
z
M 947 1747 
Q 947 1113 1208 752 
Q 1469 391 1925 391 
Q 2381 391 2643 752 
Q 2906 1113 2906 1747 
Q 2906 2381 2643 2742 
Q 2381 3103 1925 3103 
Q 1469 3103 1208 2742 
Q 947 2381 947 1747 
z
" transform="scale(0.015625)"/>
       <path id="DejaVuSans-5f" d="M 3263 -1063 
L 3263 -1509 
L -63 -1509 
L -63 -1063 
L 3263 -1063 
z
" transform="scale(0.015625)"/>
      </defs>
      <use xlink:href="#DejaVuSans-67"/>
      <use xlink:href="#DejaVuSans-72" transform="translate(63.476562 0)"/>
      <use xlink:href="#DejaVuSans-6f" transform="translate(102.339844 0)"/>
      <use xlink:href="#DejaVuSans-75" transform="translate(163.521484 0)"/>
      <use xlink:href="#DejaVuSans-6e" transform="translate(226.900391 0)"/>
      <use xlink:href="#DejaVuSans-64" transform="translate(290.279297 0)"/>
      <use xlink:href="#DejaVuSans-5f" transform="translate(353.755859 0)"/>
      <use xlink:href="#DejaVuSans-74" transform="translate(403.755859 0)"/>
      <use xlink:href="#DejaVuSans-72" transform="translate(442.964844 0)"/>
      <use xlink:href="#DejaVuSans-75" transform="translate(484.078125 0)"/>
      <use xlink:href="#DejaVuSans-74" transform="translate(547.457031 0)"/>
      <use xlink:href="#DejaVuSans-68" transform="translate(586.666016 0)"/>
     </g>
    </g>
   </g>
  </g>
  <g id="axes_2">
   <g id="patch_8">
    <path d="M 480.285385 257.158895 
L 865.19952 257.158895 
L 865.19952 22.318125 
L 480.285385 22.318125 
z
" style="fill: #ffffff"/>
   </g>
   <g id="matplotlib.axis_3">
    <g id="xtick_9">
     <g id="line2d_18">
      <g>
       <use xlink:href="#md61a94251e" x="516.198426" y="257.158895" style="stroke: #000000; stroke-width: 0.8"/>
      </g>
     </g>
     <g id="text_19">
      <!-- 1.0 -->
      <g transform="translate(508.246864 271.757332) scale(0.1 -0.1)">
       <use xlink:href="#DejaVuSans-31"/>
       <use xlink:href="#DejaVuSans-2e" transform="translate(63.623047 0)"/>
       <use xlink:href="#DejaVuSans-30" transform="translate(95.410156 0)"/>
      </g>
     </g>
    </g>
    <g id="xtick_10">
     <g id="line2d_19">
      <g>
       <use xlink:href="#md61a94251e" x="562.240787" y="257.158895" style="stroke: #000000; stroke-width: 0.8"/>
      </g>
     </g>
     <g id="text_20">
      <!-- 1.5 -->
      <g transform="translate(554.289224 271.757332) scale(0.1 -0.1)">
       <use xlink:href="#DejaVuSans-31"/>
       <use xlink:href="#DejaVuSans-2e" transform="translate(63.623047 0)"/>
       <use xlink:href="#DejaVuSans-35" transform="translate(95.410156 0)"/>
      </g>
     </g>
    </g>
    <g id="xtick_11">
     <g id="line2d_20">
      <g>
       <use xlink:href="#md61a94251e" x="608.283148" y="257.158895" style="stroke: #000000; stroke-width: 0.8"/>
      </g>
     </g>
     <g id="text_21">
      <!-- 2.0 -->
      <g transform="translate(600.331585 271.757332) scale(0.1 -0.1)">
       <use xlink:href="#DejaVuSans-32"/>
       <use xlink:href="#DejaVuSans-2e" transform="translate(63.623047 0)"/>
       <use xlink:href="#DejaVuSans-30" transform="translate(95.410156 0)"/>
      </g>
     </g>
    </g>
    <g id="xtick_12">
     <g id="line2d_21">
      <g>
       <use xlink:href="#md61a94251e" x="654.325508" y="257.158895" style="stroke: #000000; stroke-width: 0.8"/>
      </g>
     </g>
     <g id="text_22">
      <!-- 2.5 -->
      <g transform="translate(646.373946 271.757332) scale(0.1 -0.1)">
       <use xlink:href="#DejaVuSans-32"/>
       <use xlink:href="#DejaVuSans-2e" transform="translate(63.623047 0)"/>
       <use xlink:href="#DejaVuSans-35" transform="translate(95.410156 0)"/>
      </g>
     </g>
    </g>
    <g id="xtick_13">
     <g id="line2d_22">
      <g>
       <use xlink:href="#md61a94251e" x="700.367869" y="257.158895" style="stroke: #000000; stroke-width: 0.8"/>
      </g>
     </g>
     <g id="text_23">
      <!-- 3.0 -->
      <g transform="translate(692.416306 271.757332) scale(0.1 -0.1)">
       <use xlink:href="#DejaVuSans-33"/>
       <use xlink:href="#DejaVuSans-2e" transform="translate(63.623047 0)"/>
       <use xlink:href="#DejaVuSans-30" transform="translate(95.410156 0)"/>
      </g>
     </g>
    </g>
    <g id="xtick_14">
     <g id="line2d_23">
      <g>
       <use xlink:href="#md61a94251e" x="746.41023" y="257.158895" style="stroke: #000000; stroke-width: 0.8"/>
      </g>
     </g>
     <g id="text_24">
      <!-- 3.5 -->
      <g transform="translate(738.458667 271.757332) scale(0.1 -0.1)">
       <use xlink:href="#DejaVuSans-33"/>
       <use xlink:href="#DejaVuSans-2e" transform="translate(63.623047 0)"/>
       <use xlink:href="#DejaVuSans-35" transform="translate(95.410156 0)"/>
      </g>
     </g>
    </g>
    <g id="xtick_15">
     <g id="line2d_24">
      <g>
       <use xlink:href="#md61a94251e" x="792.45259" y="257.158895" style="stroke: #000000; stroke-width: 0.8"/>
      </g>
     </g>
     <g id="text_25">
      <!-- 4.0 -->
      <g transform="translate(784.501028 271.757332) scale(0.1 -0.1)">
       <use xlink:href="#DejaVuSans-34"/>
       <use xlink:href="#DejaVuSans-2e" transform="translate(63.623047 0)"/>
       <use xlink:href="#DejaVuSans-30" transform="translate(95.410156 0)"/>
      </g>
     </g>
    </g>
    <g id="xtick_16">
     <g id="line2d_25">
      <g>
       <use xlink:href="#md61a94251e" x="838.494951" y="257.158895" style="stroke: #000000; stroke-width: 0.8"/>
      </g>
     </g>
     <g id="text_26">
      <!-- 4.5 -->
      <g transform="translate(830.543388 271.757332) scale(0.1 -0.1)">
       <use xlink:href="#DejaVuSans-34"/>
       <use xlink:href="#DejaVuSans-2e" transform="translate(63.623047 0)"/>
       <use xlink:href="#DejaVuSans-35" transform="translate(95.410156 0)"/>
      </g>
     </g>
    </g>
    <g id="text_27">
     <!-- wavelength [Å] -->
     <g transform="translate(634.704952 287.119832) scale(0.1 -0.1)">
      <use xlink:href="#DejaVuSans-77"/>
      <use xlink:href="#DejaVuSans-61" transform="translate(81.787109 0)"/>
      <use xlink:href="#DejaVuSans-76" transform="translate(143.066406 0)"/>
      <use xlink:href="#DejaVuSans-65" transform="translate(202.246094 0)"/>
      <use xlink:href="#DejaVuSans-6c" transform="translate(263.769531 0)"/>
      <use xlink:href="#DejaVuSans-65" transform="translate(291.552734 0)"/>
      <use xlink:href="#DejaVuSans-6e" transform="translate(353.076172 0)"/>
      <use xlink:href="#DejaVuSans-67" transform="translate(416.455078 0)"/>
      <use xlink:href="#DejaVuSans-74" transform="translate(479.931641 0)"/>
      <use xlink:href="#DejaVuSans-68" transform="translate(519.140625 0)"/>
      <use xlink:href="#DejaVuSans-20" transform="translate(582.519531 0)"/>
      <use xlink:href="#DejaVuSans-5b" transform="translate(614.306641 0)"/>
      <use xlink:href="#DejaVuSans-c5" transform="translate(653.320312 0)"/>
      <use xlink:href="#DejaVuSans-5d" transform="translate(721.728516 0)"/>
     </g>
    </g>
   </g>
   <g id="matplotlib.axis_4">
    <g id="ytick_6">
     <g id="line2d_26">
      <g>
       <use xlink:href="#m375c681390" x="480.285385" y="246.484315" style="stroke: #000000; stroke-width: 0.8"/>
      </g>
     </g>
     <g id="text_28">
      <!-- 0 -->
      <g transform="translate(466.922885 250.283533) scale(0.1 -0.1)">
       <use xlink:href="#DejaVuSans-30"/>
      </g>
     </g>
    </g>
    <g id="ytick_7">
     <g id="line2d_27">
      <g>
       <use xlink:href="#m375c681390" x="480.285385" y="194.349611" style="stroke: #000000; stroke-width: 0.8"/>
      </g>
     </g>
     <g id="text_29">
      <!-- 200 -->
      <g transform="translate(454.197885 198.14883) scale(0.1 -0.1)">
       <use xlink:href="#DejaVuSans-32"/>
       <use xlink:href="#DejaVuSans-30" transform="translate(63.623047 0)"/>
       <use xlink:href="#DejaVuSans-30" transform="translate(127.246094 0)"/>
      </g>
     </g>
    </g>
    <g id="ytick_8">
     <g id="line2d_28">
      <g>
       <use xlink:href="#m375c681390" x="480.285385" y="142.214908" style="stroke: #000000; stroke-width: 0.8"/>
      </g>
     </g>
     <g id="text_30">
      <!-- 400 -->
      <g transform="translate(454.197885 146.014127) scale(0.1 -0.1)">
       <use xlink:href="#DejaVuSans-34"/>
       <use xlink:href="#DejaVuSans-30" transform="translate(63.623047 0)"/>
       <use xlink:href="#DejaVuSans-30" transform="translate(127.246094 0)"/>
      </g>
     </g>
    </g>
    <g id="ytick_9">
     <g id="line2d_29">
      <g>
       <use xlink:href="#m375c681390" x="480.285385" y="90.080205" style="stroke: #000000; stroke-width: 0.8"/>
      </g>
     </g>
     <g id="text_31">
      <!-- 600 -->
      <g transform="translate(454.197885 93.879424) scale(0.1 -0.1)">
       <use xlink:href="#DejaVuSans-36"/>
       <use xlink:href="#DejaVuSans-30" transform="translate(63.623047 0)"/>
       <use xlink:href="#DejaVuSans-30" transform="translate(127.246094 0)"/>
      </g>
     </g>
    </g>
    <g id="ytick_10">
     <g id="line2d_30">
      <g>
       <use xlink:href="#m375c681390" x="480.285385" y="37.945502" style="stroke: #000000; stroke-width: 0.8"/>
      </g>
     </g>
     <g id="text_32">
      <!-- 800 -->
      <g transform="translate(454.197885 41.744721) scale(0.1 -0.1)">
       <use xlink:href="#DejaVuSans-38"/>
       <use xlink:href="#DejaVuSans-30" transform="translate(63.623047 0)"/>
       <use xlink:href="#DejaVuSans-30" transform="translate(127.246094 0)"/>
      </g>
     </g>
    </g>
    <g id="text_33">
     <!-- [counts] -->
     <g transform="translate(448.118198 160.35101) rotate(-90) scale(0.1 -0.1)">
      <use xlink:href="#DejaVuSans-5b"/>
      <use xlink:href="#DejaVuSans-63" transform="translate(39.013672 0)"/>
      <use xlink:href="#DejaVuSans-6f" transform="translate(93.994141 0)"/>
      <use xlink:href="#DejaVuSans-75" transform="translate(155.175781 0)"/>
      <use xlink:href="#DejaVuSans-6e" transform="translate(218.554688 0)"/>
      <use xlink:href="#DejaVuSans-74" transform="translate(281.933594 0)"/>
      <use xlink:href="#DejaVuSans-73" transform="translate(321.142578 0)"/>
      <use xlink:href="#DejaVuSans-5d" transform="translate(373.242188 0)"/>
     </g>
    </g>
   </g>
   <g id="line2d_31">
    <path d="M 497.781482 246.484315 
L 506.529531 246.484315 
L 506.529531 244.398926 
L 508.27914 244.398926 
L 508.27914 237.621415 
L 510.02875 237.621415 
L 510.02875 230.322557 
L 511.77836 230.322557 
L 511.77836 221.198984 
L 513.527969 221.198984 
L 513.527969 210.250696 
L 515.277579 210.250696 
L 515.277579 203.994532 
L 517.027189 203.994532 
L 517.027189 193.567591 
L 518.776799 193.567591 
L 518.776799 193.306917 
L 520.526408 193.306917 
L 520.526408 178.969874 
L 522.276018 178.969874 
L 522.276018 181.315936 
L 524.025628 181.315936 
L 524.025628 154.987911 
L 525.775237 154.987911 
L 525.775237 163.329463 
L 527.524847 163.329463 
L 527.524847 142.475582 
L 529.274457 142.475582 
L 529.274457 144.300297 
L 531.024066 144.300297 
L 531.024066 126.05315 
L 532.773676 126.05315 
L 532.773676 121.621701 
L 534.523286 121.621701 
L 534.523286 115.104863 
L 536.272896 115.104863 
L 536.272896 118.493618 
L 538.022505 118.493618 
L 538.022505 107.806004 
L 539.772115 107.806004 
L 539.772115 90.340879 
L 541.521725 90.340879 
L 541.521725 83.04202 
L 543.271334 83.04202 
L 543.271334 94.772329 
L 545.020944 94.772329 
L 545.020944 79.653265 
L 546.770554 79.653265 
L 546.770554 76.264509 
L 548.520163 76.264509 
L 548.520163 78.610571 
L 550.269773 78.610571 
L 550.269773 76.525183 
L 552.019383 76.525183 
L 552.019383 77.307203 
L 553.768993 77.307203 
L 553.768993 71.833059 
L 555.518602 71.833059 
L 555.518602 59.060057 
L 557.268212 59.060057 
L 557.268212 53.064566 
L 559.017822 53.064566 
L 559.017822 37.684829 
L 560.767431 37.684829 
L 560.767431 42.898299 
L 562.517041 42.898299 
L 562.517041 32.992705 
L 564.266651 32.992705 
L 564.266651 34.0354 
L 566.016261 34.0354 
L 566.016261 54.10726 
L 567.76587 54.10726 
L 567.76587 63.230833 
L 569.51548 63.230833 
L 569.51548 37.684829 
L 571.26509 37.684829 
L 571.26509 65.576895 
L 573.014699 65.576895 
L 573.014699 62.188139 
L 574.764309 62.188139 
L 574.764309 52.282546 
L 576.513919 52.282546 
L 576.513919 60.363425 
L 578.263528 60.363425 
L 578.263528 88.776838 
L 580.013138 88.776838 
L 580.013138 76.264509 
L 581.762748 76.264509 
L 581.762748 67.922957 
L 583.512358 67.922957 
L 583.512358 85.909429 
L 585.261967 85.909429 
L 585.261967 69.486998 
L 587.011577 69.486998 
L 587.011577 90.601552 
L 588.761187 90.601552 
L 588.761187 83.824041 
L 590.510796 83.824041 
L 590.510796 78.349897 
L 592.260406 78.349897 
L 592.260406 76.264509 
L 594.010016 76.264509 
L 594.010016 82.781347 
L 595.759626 82.781347 
L 595.759626 77.04653 
L 597.509235 77.04653 
L 597.509235 87.734144 
L 599.258845 87.734144 
L 599.258845 79.913938 
L 601.008455 79.913938 
L 601.008455 83.824041 
L 602.758064 83.824041 
L 602.758064 82.520673 
L 604.507674 82.520673 
L 604.507674 106.76331 
L 606.257284 106.76331 
L 606.257284 89.037511 
L 608.006893 89.037511 
L 608.006893 96.33637 
L 609.756503 96.33637 
L 609.756503 90.340879 
L 611.506113 90.340879 
L 611.506113 81.477979 
L 613.255723 81.477979 
L 613.255723 101.028493 
L 615.005332 101.028493 
L 615.005332 88.516164 
L 616.754942 88.516164 
L 616.754942 86.430776 
L 618.504552 86.430776 
L 618.504552 91.383573 
L 620.254161 91.383573 
L 620.254161 88.776838 
L 622.003771 88.776838 
L 622.003771 91.644246 
L 623.753381 91.644246 
L 623.753381 101.54984 
L 625.50299 101.54984 
L 625.50299 91.383573 
L 627.2526 91.383573 
L 627.2526 86.170103 
L 629.00221 86.170103 
L 629.00221 102.071187 
L 630.75182 102.071187 
L 630.75182 115.62621 
L 632.501429 115.62621 
L 632.501429 106.241963 
L 634.251039 106.241963 
L 634.251039 109.891392 
L 636.000649 109.891392 
L 636.000649 124.489109 
L 637.750258 124.489109 
L 637.750258 118.493618 
L 639.499868 118.493618 
L 639.499868 133.612682 
L 641.249478 133.612682 
L 641.249478 145.082317 
L 642.999088 145.082317 
L 642.999088 144.56097 
L 644.748697 144.56097 
L 644.748697 153.945217 
L 646.498307 153.945217 
L 646.498307 167.500239 
L 648.247917 167.500239 
L 648.247917 172.453036 
L 649.997526 172.453036 
L 649.997526 185.486712 
L 651.747136 185.486712 
L 651.747136 190.178835 
L 653.496746 190.178835 
L 653.496746 200.605776 
L 655.246355 200.605776 
L 655.246355 208.947328 
L 656.995965 208.947328 
L 656.995965 214.421472 
L 658.745575 214.421472 
L 658.745575 220.416963 
L 660.495185 220.416963 
L 660.495185 226.933801 
L 662.244794 226.933801 
L 662.244794 231.625924 
L 663.994404 231.625924 
L 663.994404 233.450639 
L 665.744014 233.450639 
L 665.744014 239.706803 
L 667.493623 239.706803 
L 667.493623 241.531518 
L 669.243233 241.531518 
L 669.243233 244.138253 
L 670.992843 244.138253 
L 670.992843 242.834885 
L 672.742453 242.834885 
L 672.742453 232.147271 
L 674.492062 232.147271 
L 674.492062 228.497842 
L 676.241672 228.497842 
L 676.241672 225.109086 
L 677.991282 225.109086 
L 677.991282 210.250696 
L 679.740891 210.250696 
L 679.740891 209.729349 
L 681.490501 209.729349 
L 681.490501 198.259714 
L 683.240111 198.259714 
L 683.240111 190.960856 
L 684.98972 190.960856 
L 684.98972 190.700182 
L 686.73933 190.700182 
L 686.73933 187.050753 
L 688.48894 187.050753 
L 688.48894 174.277751 
L 690.23855 174.277751 
L 690.23855 172.974383 
L 691.988159 172.974383 
L 691.988159 174.017077 
L 693.737769 174.017077 
L 693.737769 171.931689 
L 695.487379 171.931689 
L 695.487379 158.898013 
L 697.236988 158.898013 
L 697.236988 151.338481 
L 698.986598 151.338481 
L 698.986598 152.641849 
L 700.736208 152.641849 
L 700.736208 151.859828 
L 702.485817 151.859828 
L 702.485817 146.907032 
L 704.235427 146.907032 
L 704.235427 139.868847 
L 705.985037 139.868847 
L 705.985037 133.612682 
L 707.734647 133.612682 
L 707.734647 142.996929 
L 709.484256 142.996929 
L 709.484256 135.958744 
L 711.233866 135.958744 
L 711.233866 121.100354 
L 712.983476 121.100354 
L 712.983476 133.091335 
L 714.733085 133.091335 
L 714.733085 117.190251 
L 716.482695 117.190251 
L 716.482695 126.313824 
L 718.232305 126.313824 
L 718.232305 111.455434 
L 719.981915 111.455434 
L 719.981915 114.062169 
L 721.731524 114.062169 
L 721.731524 105.459943 
L 723.481134 105.459943 
L 723.481134 111.976781 
L 725.230744 111.976781 
L 725.230744 108.066678 
L 726.980353 108.066678 
L 726.980353 118.754292 
L 728.729963 118.754292 
L 728.729963 111.976781 
L 730.479573 111.976781 
L 730.479573 113.280148 
L 732.229182 113.280148 
L 732.229182 122.143048 
L 733.978792 122.143048 
L 733.978792 109.630719 
L 735.728402 109.630719 
L 735.728402 130.223927 
L 737.478012 130.223927 
L 737.478012 126.05315 
L 739.227621 126.05315 
L 739.227621 125.27113 
L 740.977231 125.27113 
L 740.977231 126.313824 
L 742.726841 126.313824 
L 742.726841 127.095845 
L 744.47645 127.095845 
L 744.47645 130.4846 
L 746.22606 130.4846 
L 746.22606 125.531803 
L 747.97567 125.531803 
L 747.97567 129.963253 
L 749.725279 129.963253 
L 749.725279 135.698071 
L 751.474889 135.698071 
L 751.474889 137.262112 
L 753.224499 137.262112 
L 753.224499 135.437397 
L 754.974109 135.437397 
L 754.974109 148.731746 
L 756.723718 148.731746 
L 756.723718 142.996929 
L 758.473328 142.996929 
L 758.473328 132.309315 
L 760.222938 132.309315 
L 760.222938 154.987911 
L 761.972547 154.987911 
L 761.972547 147.167705 
L 763.722157 147.167705 
L 763.722157 154.466564 
L 767.221377 154.466564 
L 767.221377 154.987911 
L 768.970986 154.987911 
L 768.970986 151.077808 
L 770.720596 151.077808 
L 770.720596 168.021586 
L 772.470206 168.021586 
L 772.470206 154.466564 
L 774.219815 154.466564 
L 774.219815 164.632831 
L 775.969425 164.632831 
L 775.969425 163.06879 
L 777.719035 163.06879 
L 777.719035 174.799098 
L 779.468644 174.799098 
L 779.468644 169.585628 
L 781.218254 169.585628 
L 781.218254 173.49573 
L 782.967864 173.49573 
L 782.967864 162.547443 
L 784.717474 162.547443 
L 784.717474 174.277751 
L 786.467083 174.277751 
L 786.467083 168.28226 
L 788.216693 168.28226 
L 788.216693 179.751895 
L 789.966303 179.751895 
L 789.966303 180.794589 
L 791.715912 180.794589 
L 791.715912 186.008059 
L 793.465522 186.008059 
L 793.465522 193.046244 
L 795.215132 193.046244 
L 795.215132 179.230548 
L 796.964742 179.230548 
L 796.964742 189.918162 
L 798.714351 189.918162 
L 798.714351 191.221529 
L 800.463961 191.221529 
L 800.463961 192.524897 
L 802.213571 192.524897 
L 802.213571 198.520388 
L 803.96318 198.520388 
L 803.96318 203.994532 
L 805.71279 203.994532 
L 805.71279 205.558573 
L 807.4624 205.558573 
L 807.4624 205.297899 
L 809.212009 205.297899 
L 809.212009 214.942819 
L 810.961619 214.942819 
L 810.961619 218.592248 
L 812.711229 218.592248 
L 812.711229 216.767534 
L 814.460839 216.767534 
L 814.460839 218.852922 
L 816.210448 218.852922 
L 816.210448 222.241678 
L 817.960058 222.241678 
L 817.960058 228.497842 
L 819.709668 228.497842 
L 819.709668 232.668618 
L 821.459277 232.668618 
L 821.459277 233.189965 
L 823.208887 233.189965 
L 823.208887 236.057374 
L 826.708106 236.057374 
L 826.708106 237.621415 
L 828.457716 237.621415 
L 828.457716 242.574212 
L 830.207326 242.574212 
L 830.207326 242.313538 
L 831.956936 242.313538 
L 831.956936 242.834885 
L 833.706545 242.834885 
L 833.706545 244.920273 
L 835.456155 244.920273 
L 835.456155 245.44162 
L 837.205765 245.44162 
L 837.205765 246.223641 
L 838.955374 246.223641 
L 838.955374 246.484315 
L 847.703423 246.484315 
L 847.703423 246.484315 
" clip-path="url(#p023b872a05)" style="fill: none; stroke: #1f77b4; stroke-width: 1.5; stroke-linecap: square"/>
   </g>
   <g id="line2d_32">
    <path d="M 497.781482 246.484315 
L 506.529531 246.484315 
L 506.529531 243.095559 
L 508.27914 243.095559 
L 508.27914 237.621415 
L 510.02875 237.621415 
L 510.02875 230.322557 
L 511.77836 230.322557 
L 511.77836 219.895616 
L 513.527969 219.895616 
L 513.527969 211.29339 
L 515.277579 211.29339 
L 515.277579 204.255205 
L 517.027189 204.255205 
L 517.027189 192.524897 
L 518.776799 192.524897 
L 518.776799 194.870959 
L 520.526408 194.870959 
L 520.526408 180.794589 
L 522.276018 180.794589 
L 522.276018 177.666506 
L 524.025628 177.666506 
L 524.025628 157.594646 
L 525.775237 157.594646 
L 525.775237 158.63734 
L 527.524847 158.63734 
L 527.524847 147.689052 
L 529.274457 147.689052 
L 529.274457 137.522785 
L 531.024066 137.522785 
L 531.024066 132.048641 
L 532.773676 132.048641 
L 532.773676 118.754292 
L 534.523286 118.754292 
L 534.523286 119.796986 
L 536.272896 119.796986 
L 536.272896 114.583516 
L 538.022505 114.583516 
L 538.022505 109.370045 
L 539.772115 109.370045 
L 539.772115 87.47347 
L 541.521725 87.47347 
L 541.521725 84.866735 
L 543.271334 84.866735 
L 543.271334 85.909429 
L 545.020944 85.909429 
L 545.020944 86.69145 
L 546.770554 86.69145 
L 546.770554 73.3971 
L 548.520163 73.3971 
L 548.520163 80.174612 
L 550.269773 80.174612 
L 550.269773 77.567877 
L 552.019383 77.567877 
L 552.019383 87.212797 
L 553.768993 87.212797 
L 553.768993 60.884772 
L 555.518602 60.884772 
L 555.518602 63.75218 
L 557.268212 63.75218 
L 557.268212 48.372443 
L 559.017822 48.372443 
L 559.017822 34.556747 
L 560.767431 34.556747 
L 560.767431 47.069075 
L 562.517041 47.069075 
L 562.517041 33.253379 
L 564.266651 33.253379 
L 564.266651 40.03089 
L 566.016261 40.03089 
L 566.016261 53.585913 
L 567.76587 53.585913 
L 567.76587 55.671301 
L 569.51548 55.671301 
L 569.51548 53.585913 
L 571.26509 53.585913 
L 571.26509 54.628607 
L 573.014699 54.628607 
L 573.014699 59.060057 
L 574.764309 59.060057 
L 574.764309 46.026381 
L 576.513919 46.026381 
L 576.513919 81.217306 
L 578.263528 81.217306 
L 578.263528 80.695959 
L 580.013138 80.695959 
L 580.013138 72.61508 
L 581.762748 72.61508 
L 581.762748 79.653265 
L 583.512358 79.653265 
L 583.512358 72.61508 
L 585.261967 72.61508 
L 585.261967 75.482488 
L 587.011577 75.482488 
L 587.011577 79.653265 
L 588.761187 79.653265 
L 588.761187 89.037511 
L 590.510796 89.037511 
L 590.510796 80.435285 
L 592.260406 80.435285 
L 592.260406 74.700468 
L 594.010016 74.700468 
L 594.010016 84.866735 
L 595.759626 84.866735 
L 595.759626 86.430776 
L 597.509235 86.430776 
L 597.509235 74.439794 
L 599.258845 74.439794 
L 599.258845 85.648756 
L 601.008455 85.648756 
L 601.008455 83.04202 
L 602.758064 83.04202 
L 602.758064 90.862226 
L 604.507674 90.862226 
L 604.507674 96.857717 
L 606.257284 96.857717 
L 606.257284 88.516164 
L 608.006893 88.516164 
L 608.006893 96.857717 
L 609.756503 96.857717 
L 609.756503 85.909429 
L 611.506113 85.909429 
L 611.506113 93.990308 
L 613.255723 93.990308 
L 613.255723 92.165593 
L 615.005332 92.165593 
L 615.005332 93.468961 
L 616.754942 93.468961 
L 616.754942 79.653265 
L 618.504552 79.653265 
L 618.504552 90.862226 
L 620.254161 90.862226 
L 620.254161 91.90492 
L 622.003771 91.90492 
L 622.003771 83.824041 
L 623.753381 83.824041 
L 623.753381 108.066678 
L 625.50299 108.066678 
L 625.50299 91.90492 
L 627.2526 91.90492 
L 627.2526 94.250982 
L 629.00221 94.250982 
L 629.00221 101.54984 
L 630.75182 101.54984 
L 630.75182 111.455434 
L 632.501429 111.455434 
L 632.501429 103.635228 
L 634.251039 103.635228 
L 634.251039 113.019475 
L 636.000649 113.019475 
L 636.000649 125.27113 
L 637.750258 125.27113 
L 637.750258 120.579007 
L 639.499868 120.579007 
L 639.499868 135.176723 
L 641.249478 135.176723 
L 641.249478 140.12952 
L 642.999088 140.12952 
L 642.999088 137.522785 
L 644.748697 137.522785 
L 644.748697 161.244075 
L 646.498307 161.244075 
L 646.498307 167.760913 
L 648.247917 167.760913 
L 648.247917 171.671016 
L 649.997526 171.671016 
L 649.997526 182.097956 
L 651.747136 182.097956 
L 651.747136 190.960856 
L 653.496746 190.960856 
L 653.496746 201.387796 
L 655.246355 201.387796 
L 655.246355 208.947328 
L 656.995965 208.947328 
L 656.995965 213.900125 
L 658.745575 213.900125 
L 658.745575 220.416963 
L 660.495185 220.416963 
L 660.495185 226.933801 
L 662.244794 226.933801 
L 662.244794 231.625924 
L 663.994404 231.625924 
L 663.994404 232.929292 
L 665.744014 232.929292 
L 665.744014 239.967477 
L 667.493623 239.967477 
L 667.493623 241.270844 
L 669.243233 241.270844 
L 669.243233 243.877579 
L 670.992843 243.877579 
L 670.992843 240.749497 
L 672.742453 240.749497 
L 672.742453 232.929292 
L 674.492062 232.929292 
L 674.492062 228.497842 
L 676.241672 228.497842 
L 676.241672 224.327066 
L 677.991282 224.327066 
L 677.991282 209.729349 
L 679.740891 209.729349 
L 679.740891 209.990022 
L 681.490501 209.990022 
L 681.490501 197.21702 
L 683.240111 197.21702 
L 683.240111 194.349611 
L 684.98972 194.349611 
L 684.98972 187.5721 
L 686.73933 187.5721 
L 686.73933 188.875468 
L 688.48894 188.875468 
L 688.48894 175.059771 
L 690.23855 175.059771 
L 690.23855 169.585628 
L 691.988159 169.585628 
L 691.988159 175.581118 
L 693.737769 175.581118 
L 693.737769 170.628322 
L 695.487379 170.628322 
L 695.487379 162.547443 
L 697.236988 162.547443 
L 697.236988 151.859828 
L 698.986598 151.859828 
L 698.986598 152.120502 
L 700.736208 152.120502 
L 700.736208 150.817134 
L 702.485817 150.817134 
L 702.485817 146.125011 
L 704.235427 146.125011 
L 704.235427 139.086826 
L 705.985037 139.086826 
L 705.985037 131.005947 
L 707.734647 131.005947 
L 707.734647 143.518276 
L 709.484256 143.518276 
L 709.484256 134.394703 
L 711.233866 134.394703 
L 711.233866 122.664395 
L 712.983476 122.664395 
L 712.983476 129.70258 
L 714.733085 129.70258 
L 714.733085 123.185742 
L 716.482695 123.185742 
L 716.482695 119.536313 
L 718.232305 119.536313 
L 718.232305 121.361027 
L 719.981915 121.361027 
L 719.981915 110.41274 
L 721.731524 110.41274 
L 721.731524 107.545331 
L 723.481134 107.545331 
L 723.481134 110.673413 
L 725.230744 110.673413 
L 725.230744 108.327351 
L 726.980353 108.327351 
L 726.980353 113.540822 
L 728.729963 113.540822 
L 728.729963 119.536313 
L 730.479573 119.536313 
L 730.479573 112.498128 
L 732.229182 112.498128 
L 732.229182 107.545331 
L 733.978792 107.545331 
L 733.978792 125.27113 
L 735.728402 125.27113 
L 735.728402 128.399212 
L 737.478012 128.399212 
L 737.478012 122.143048 
L 739.227621 122.143048 
L 739.227621 132.830662 
L 740.977231 132.830662 
L 740.977231 113.540822 
L 742.726841 113.540822 
L 742.726841 135.437397 
L 744.47645 135.437397 
L 744.47645 128.138539 
L 746.22606 128.138539 
L 746.22606 123.967762 
L 747.97567 123.967762 
L 747.97567 132.048641 
L 749.725279 132.048641 
L 749.725279 136.480091 
L 751.474889 136.480091 
L 751.474889 135.958744 
L 753.224499 135.958744 
L 753.224499 144.56097 
L 754.974109 144.56097 
L 754.974109 140.390194 
L 756.723718 140.390194 
L 756.723718 141.693561 
L 758.473328 141.693561 
L 758.473328 135.958744 
L 760.222938 135.958744 
L 760.222938 149.513767 
L 761.972547 149.513767 
L 761.972547 148.471073 
L 763.722157 148.471073 
L 763.722157 156.030605 
L 765.471767 156.030605 
L 765.471767 156.812625 
L 767.221377 156.812625 
L 767.221377 152.641849 
L 768.970986 152.641849 
L 768.970986 150.035114 
L 770.720596 150.035114 
L 770.720596 164.372157 
L 772.470206 164.372157 
L 772.470206 160.462054 
L 774.219815 160.462054 
L 774.219815 171.149669 
L 775.969425 171.149669 
L 775.969425 161.765422 
L 777.719035 161.765422 
L 777.719035 171.931689 
L 779.468644 171.931689 
L 779.468644 171.149669 
L 781.218254 171.149669 
L 781.218254 171.410342 
L 782.967864 171.410342 
L 782.967864 163.06879 
L 784.717474 163.06879 
L 784.717474 169.585628 
L 786.467083 169.585628 
L 786.467083 174.799098 
L 788.216693 174.799098 
L 788.216693 180.533915 
L 789.966303 180.533915 
L 789.966303 178.709201 
L 791.715912 178.709201 
L 791.715912 185.226038 
L 793.465522 185.226038 
L 793.465522 183.922671 
L 795.215132 183.922671 
L 795.215132 181.837283 
L 796.964742 181.837283 
L 796.964742 195.392306 
L 798.714351 195.392306 
L 798.714351 192.524897 
L 800.463961 192.524897 
L 800.463961 194.610285 
L 802.213571 194.610285 
L 802.213571 199.041735 
L 803.96318 199.041735 
L 803.96318 200.084429 
L 805.71279 200.084429 
L 805.71279 205.819246 
L 807.4624 205.819246 
L 807.4624 205.037226 
L 809.212009 205.037226 
L 809.212009 214.682146 
L 810.961619 214.682146 
L 810.961619 218.592248 
L 812.711229 218.592248 
L 812.711229 215.464166 
L 814.460839 215.464166 
L 814.460839 218.331575 
L 816.210448 218.331575 
L 816.210448 226.15178 
L 817.960058 226.15178 
L 817.960058 226.933801 
L 819.709668 226.933801 
L 819.709668 231.886598 
L 821.459277 231.886598 
L 821.459277 233.711312 
L 823.208887 233.711312 
L 823.208887 237.621415 
L 824.958497 237.621415 
L 824.958497 233.971986 
L 826.708106 233.971986 
L 826.708106 237.882089 
L 828.457716 237.882089 
L 828.457716 242.313538 
L 831.956936 242.313538 
L 831.956936 242.834885 
L 833.706545 242.834885 
L 833.706545 244.6596 
L 835.456155 244.6596 
L 835.456155 245.962968 
L 837.205765 245.962968 
L 837.205765 245.702294 
L 838.955374 245.702294 
L 838.955374 246.484315 
L 847.703423 246.484315 
L 847.703423 246.484315 
" clip-path="url(#p023b872a05)" style="fill: none; stroke: #ff7f0e; stroke-width: 1.5; stroke-linecap: square"/>
   </g>
   <g id="patch_9">
    <path d="M 480.285385 257.158895 
L 480.285385 22.318125 
" style="fill: none; stroke: #000000; stroke-width: 0.8; stroke-linejoin: miter; stroke-linecap: square"/>
   </g>
   <g id="patch_10">
    <path d="M 865.19952 257.158895 
L 865.19952 22.318125 
" style="fill: none; stroke: #000000; stroke-width: 0.8; stroke-linejoin: miter; stroke-linecap: square"/>
   </g>
   <g id="patch_11">
    <path d="M 480.285385 257.158895 
L 865.19952 257.158895 
" style="fill: none; stroke: #000000; stroke-width: 0.8; stroke-linejoin: miter; stroke-linecap: square"/>
   </g>
   <g id="patch_12">
    <path d="M 480.285385 22.318125 
L 865.19952 22.318125 
" style="fill: none; stroke: #000000; stroke-width: 0.8; stroke-linejoin: miter; stroke-linecap: square"/>
   </g>
   <g id="text_34">
    <!-- Pixel 2 -->
    <g transform="translate(653.14589 16.318125) scale(0.12 -0.12)">
     <use xlink:href="#DejaVuSans-50"/>
     <use xlink:href="#DejaVuSans-69" transform="translate(58.052734 0)"/>
     <use xlink:href="#DejaVuSans-78" transform="translate(85.835938 0)"/>
     <use xlink:href="#DejaVuSans-65" transform="translate(141.890625 0)"/>
     <use xlink:href="#DejaVuSans-6c" transform="translate(203.414062 0)"/>
     <use xlink:href="#DejaVuSans-20" transform="translate(231.197266 0)"/>
     <use xlink:href="#DejaVuSans-32" transform="translate(262.984375 0)"/>
    </g>
   </g>
   <g id="legend_2">
    <g id="patch_13">
     <path d="M 761.196395 59.9525 
L 858.19952 59.9525 
Q 860.19952 59.9525 860.19952 57.9525 
L 860.19952 29.318125 
Q 860.19952 27.318125 858.19952 27.318125 
L 761.196395 27.318125 
Q 759.196395 27.318125 759.196395 29.318125 
L 759.196395 57.9525 
Q 759.196395 59.9525 761.196395 59.9525 
z
" style="fill: #ffffff; opacity: 0.8; stroke: #cccccc; stroke-linejoin: miter"/>
    </g>
    <g id="line2d_33">
     <path d="M 763.196395 35.416562 
L 763.196395 35.416562 
L 773.196395 35.416562 
L 773.196395 35.416562 
L 783.196395 35.416562 
" style="fill: none; stroke: #1f77b4; stroke-width: 1.5; stroke-linecap: square"/>
    </g>
    <g id="text_35">
     <!-- wfm -->
     <g transform="translate(791.196395 38.916562) scale(0.1 -0.1)">
      <use xlink:href="#DejaVuSans-77"/>
      <use xlink:href="#DejaVuSans-66" transform="translate(81.787109 0)"/>
      <use xlink:href="#DejaVuSans-6d" transform="translate(116.992188 0)"/>
     </g>
    </g>
    <g id="line2d_34">
     <path d="M 763.196395 50.094687 
L 763.196395 50.094687 
L 773.196395 50.094687 
L 773.196395 50.094687 
L 783.196395 50.094687 
" style="fill: none; stroke: #ff7f0e; stroke-width: 1.5; stroke-linecap: square"/>
    </g>
    <g id="text_36">
     <!-- ground_truth -->
     <g transform="translate(791.196395 53.594687) scale(0.1 -0.1)">
      <use xlink:href="#DejaVuSans-67"/>
      <use xlink:href="#DejaVuSans-72" transform="translate(63.476562 0)"/>
      <use xlink:href="#DejaVuSans-6f" transform="translate(102.339844 0)"/>
      <use xlink:href="#DejaVuSans-75" transform="translate(163.521484 0)"/>
      <use xlink:href="#DejaVuSans-6e" transform="translate(226.900391 0)"/>
      <use xlink:href="#DejaVuSans-64" transform="translate(290.279297 0)"/>
      <use xlink:href="#DejaVuSans-5f" transform="translate(353.755859 0)"/>
      <use xlink:href="#DejaVuSans-74" transform="translate(403.755859 0)"/>
      <use xlink:href="#DejaVuSans-72" transform="translate(442.964844 0)"/>
      <use xlink:href="#DejaVuSans-75" transform="translate(484.078125 0)"/>
      <use xlink:href="#DejaVuSans-74" transform="translate(547.457031 0)"/>
      <use xlink:href="#DejaVuSans-68" transform="translate(586.666016 0)"/>
     </g>
    </g>
   </g>
  </g>
 </g>
 <defs>
  <clipPath id="p7e8c9ac699">
   <rect x="46.965625" y="22.318125" width="384.914135" height="234.84077"/>
  </clipPath>
  <clipPath id="p023b872a05">
   <rect x="480.285385" y="22.318125" width="384.914135" height="234.84077"/>
  </clipPath>
 </defs>
</svg>
