<?xml version="1.0" encoding="utf-8" standalone="no"?>
<!DOCTYPE svg PUBLIC "-//W3C//DTD SVG 1.1//EN"
  "http://www.w3.org/Graphics/SVG/1.1/DTD/svg11.dtd">
<svg xmlns:xlink="http://www.w3.org/1999/xlink" width="872.39952pt" height="296.39952pt" viewBox="0 0 872.39952 296.39952" xmlns="http://www.w3.org/2000/svg" version="1.1">
 <metadata>
  <rdf:RDF xmlns:dc="http://purl.org/dc/elements/1.1/" xmlns:cc="http://creativecommons.org/ns#" xmlns:rdf="http://www.w3.org/1999/02/22-rdf-syntax-ns#">
   <cc:Work>
    <dc:type rdf:resource="http://purl.org/dc/dcmitype/StillImage"/>
    <dc:date>2025-11-07T09:33:24.679628</dc:date>
    <dc:format>image/svg+xml</dc:format>
    <dc:creator>
     <cc:Agent>
      <dc:title>Matplotlib v3.10.7, https://matplotlib.org/</dc:title>
     </cc:Agent>
    </dc:creator>
   </cc:Work>
  </rdf:RDF>
 </metadata>
 <defs>
  <style type="text/css">*{stroke-linejoin: round; stroke-linecap: butt}</style>
 </defs>
 <g id="figure_1">
  <g id="patch_1">
   <path d="M 0 296.39952 
L 872.39952 296.39952 
L 872.39952 0 
L 0 0 
z
" style="fill: #ffffff"/>
  </g>
  <g id="axes_1">
   <g id="patch_2">
    <path d="M 53.328125 257.158895 
L 414.59976 257.158895 
L 414.59976 7.2 
L 53.328125 7.2 
z
" style="fill: #ffffff"/>
   </g>
   <g id="matplotlib.axis_1">
    <g id="xtick_1">
     <g id="line2d_1">
      <defs>
       <path id="m3dc2dcf7a6" d="M 0 0 
L 0 3.5 
" style="stroke: #000000; stroke-width: 0.8"/>
      </defs>
      <g>
       <use xlink:href="#m3dc2dcf7a6" x="68.909235" y="257.158895" style="stroke: #000000; stroke-width: 0.8"/>
      </g>
     </g>
     <g id="text_1">
      <!-- 0 -->
      <g transform="translate(65.727985 271.757332) scale(0.1 -0.1)">
       <defs>
        <path id="DejaVuSans-30" d="M 2034 4250 
Q 1547 4250 1301 3770 
Q 1056 3291 1056 2328 
Q 1056 1369 1301 889 
Q 1547 409 2034 409 
Q 2525 409 2770 889 
Q 3016 1369 3016 2328 
Q 3016 3291 2770 3770 
Q 2525 4250 2034 4250 
z
M 2034 4750 
Q 2819 4750 3233 4129 
Q 3647 3509 3647 2328 
Q 3647 1150 3233 529 
Q 2819 -91 2034 -91 
Q 1250 -91 836 529 
Q 422 1150 422 2328 
Q 422 3509 836 4129 
Q 1250 4750 2034 4750 
z
" transform="scale(0.015625)"/>
       </defs>
       <use xlink:href="#DejaVuSans-30"/>
      </g>
     </g>
    </g>
    <g id="xtick_2">
     <g id="line2d_2">
      <g>
       <use xlink:href="#m3dc2dcf7a6" x="135.353759" y="257.158895" style="stroke: #000000; stroke-width: 0.8"/>
      </g>
     </g>
     <g id="text_2">
      <!-- 1000 -->
      <g transform="translate(122.628759 271.757332) scale(0.1 -0.1)">
       <defs>
        <path id="DejaVuSans-31" d="M 794 531 
L 1825 531 
L 1825 4091 
L 703 3866 
L 703 4441 
L 1819 4666 
L 2450 4666 
L 2450 531 
L 3481 531 
L 3481 0 
L 794 0 
L 794 531 
z
" transform="scale(0.015625)"/>
       </defs>
       <use xlink:href="#DejaVuSans-31"/>
       <use xlink:href="#DejaVuSans-30" transform="translate(63.623047 0)"/>
       <use xlink:href="#DejaVuSans-30" transform="translate(127.246094 0)"/>
       <use xlink:href="#DejaVuSans-30" transform="translate(190.869141 0)"/>
      </g>
     </g>
    </g>
    <g id="xtick_3">
     <g id="line2d_3">
      <g>
       <use xlink:href="#m3dc2dcf7a6" x="201.798283" y="257.158895" style="stroke: #000000; stroke-width: 0.8"/>
      </g>
     </g>
     <g id="text_3">
      <!-- 2000 -->
      <g transform="translate(189.073283 271.757332) scale(0.1 -0.1)">
       <defs>
        <path id="DejaVuSans-32" d="M 1228 531 
L 3431 531 
L 3431 0 
L 469 0 
L 469 531 
Q 828 903 1448 1529 
Q 2069 2156 2228 2338 
Q 2531 2678 2651 2914 
Q 2772 3150 2772 3378 
Q 2772 3750 2511 3984 
Q 2250 4219 1831 4219 
Q 1534 4219 1204 4116 
Q 875 4013 500 3803 
L 500 4441 
Q 881 4594 1212 4672 
Q 1544 4750 1819 4750 
Q 2544 4750 2975 4387 
Q 3406 4025 3406 3419 
Q 3406 3131 3298 2873 
Q 3191 2616 2906 2266 
Q 2828 2175 2409 1742 
Q 1991 1309 1228 531 
z
" transform="scale(0.015625)"/>
       </defs>
       <use xlink:href="#DejaVuSans-32"/>
       <use xlink:href="#DejaVuSans-30" transform="translate(63.623047 0)"/>
       <use xlink:href="#DejaVuSans-30" transform="translate(127.246094 0)"/>
       <use xlink:href="#DejaVuSans-30" transform="translate(190.869141 0)"/>
      </g>
     </g>
    </g>
    <g id="xtick_4">
     <g id="line2d_4">
      <g>
       <use xlink:href="#m3dc2dcf7a6" x="268.242806" y="257.158895" style="stroke: #000000; stroke-width: 0.8"/>
      </g>
     </g>
     <g id="text_4">
      <!-- 3000 -->
      <g transform="translate(255.517806 271.757332) scale(0.1 -0.1)">
       <defs>
        <path id="DejaVuSans-33" d="M 2597 2516 
Q 3050 2419 3304 2112 
Q 3559 1806 3559 1356 
Q 3559 666 3084 287 
Q 2609 -91 1734 -91 
Q 1441 -91 1130 -33 
Q 819 25 488 141 
L 488 750 
Q 750 597 1062 519 
Q 1375 441 1716 441 
Q 2309 441 2620 675 
Q 2931 909 2931 1356 
Q 2931 1769 2642 2001 
Q 2353 2234 1838 2234 
L 1294 2234 
L 1294 2753 
L 1863 2753 
Q 2328 2753 2575 2939 
Q 2822 3125 2822 3475 
Q 2822 3834 2567 4026 
Q 2313 4219 1838 4219 
Q 1578 4219 1281 4162 
Q 984 4106 628 3988 
L 628 4550 
Q 988 4650 1302 4700 
Q 1616 4750 1894 4750 
Q 2613 4750 3031 4423 
Q 3450 4097 3450 3541 
Q 3450 3153 3228 2886 
Q 3006 2619 2597 2516 
z
" transform="scale(0.015625)"/>
       </defs>
       <use xlink:href="#DejaVuSans-33"/>
       <use xlink:href="#DejaVuSans-30" transform="translate(63.623047 0)"/>
       <use xlink:href="#DejaVuSans-30" transform="translate(127.246094 0)"/>
       <use xlink:href="#DejaVuSans-30" transform="translate(190.869141 0)"/>
      </g>
     </g>
    </g>
    <g id="xtick_5">
     <g id="line2d_5">
      <g>
       <use xlink:href="#m3dc2dcf7a6" x="334.68733" y="257.158895" style="stroke: #000000; stroke-width: 0.8"/>
      </g>
     </g>
     <g id="text_5">
      <!-- 4000 -->
      <g transform="translate(321.96233 271.757332) scale(0.1 -0.1)">
       <defs>
        <path id="DejaVuSans-34" d="M 2419 4116 
L 825 1625 
L 2419 1625 
L 2419 4116 
z
M 2253 4666 
L 3047 4666 
L 3047 1625 
L 3713 1625 
L 3713 1100 
L 3047 1100 
L 3047 0 
L 2419 0 
L 2419 1100 
L 313 1100 
L 313 1709 
L 2253 4666 
z
" transform="scale(0.015625)"/>
       </defs>
       <use xlink:href="#DejaVuSans-34"/>
       <use xlink:href="#DejaVuSans-30" transform="translate(63.623047 0)"/>
       <use xlink:href="#DejaVuSans-30" transform="translate(127.246094 0)"/>
       <use xlink:href="#DejaVuSans-30" transform="translate(190.869141 0)"/>
      </g>
     </g>
    </g>
    <g id="xtick_6">
     <g id="line2d_6">
      <g>
       <use xlink:href="#m3dc2dcf7a6" x="401.131853" y="257.158895" style="stroke: #000000; stroke-width: 0.8"/>
      </g>
     </g>
     <g id="text_6">
      <!-- 5000 -->
      <g transform="translate(388.406853 271.757332) scale(0.1 -0.1)">
       <defs>
        <path id="DejaVuSans-35" d="M 691 4666 
L 3169 4666 
L 3169 4134 
L 1269 4134 
L 1269 2991 
Q 1406 3038 1543 3061 
Q 1681 3084 1819 3084 
Q 2600 3084 3056 2656 
Q 3513 2228 3513 1497 
Q 3513 744 3044 326 
Q 2575 -91 1722 -91 
Q 1428 -91 1123 -41 
Q 819 9 494 109 
L 494 744 
Q 775 591 1075 516 
Q 1375 441 1709 441 
Q 2250 441 2565 725 
Q 2881 1009 2881 1497 
Q 2881 1984 2565 2268 
Q 2250 2553 1709 2553 
Q 1456 2553 1204 2497 
Q 953 2441 691 2322 
L 691 4666 
z
" transform="scale(0.015625)"/>
       </defs>
       <use xlink:href="#DejaVuSans-35"/>
       <use xlink:href="#DejaVuSans-30" transform="translate(63.623047 0)"/>
       <use xlink:href="#DejaVuSans-30" transform="translate(127.246094 0)"/>
       <use xlink:href="#DejaVuSans-30" transform="translate(190.869141 0)"/>
      </g>
     </g>
    </g>
    <g id="text_7">
     <!-- birth_time [µs] -->
     <g transform="translate(197.14363 285.435457) scale(0.1 -0.1)">
      <defs>
       <path id="DejaVuSans-62" d="M 3116 1747 
Q 3116 2381 2855 2742 
Q 2594 3103 2138 3103 
Q 1681 3103 1420 2742 
Q 1159 2381 1159 1747 
Q 1159 1113 1420 752 
Q 1681 391 2138 391 
Q 2594 391 2855 752 
Q 3116 1113 3116 1747 
z
M 1159 2969 
Q 1341 3281 1617 3432 
Q 1894 3584 2278 3584 
Q 2916 3584 3314 3078 
Q 3713 2572 3713 1747 
Q 3713 922 3314 415 
Q 2916 -91 2278 -91 
Q 1894 -91 1617 61 
Q 1341 213 1159 525 
L 1159 0 
L 581 0 
L 581 4863 
L 1159 4863 
L 1159 2969 
z
" transform="scale(0.015625)"/>
       <path id="DejaVuSans-69" d="M 603 3500 
L 1178 3500 
L 1178 0 
L 603 0 
L 603 3500 
z
M 603 4863 
L 1178 4863 
L 1178 4134 
L 603 4134 
L 603 4863 
z
" transform="scale(0.015625)"/>
       <path id="DejaVuSans-72" d="M 2631 2963 
Q 2534 3019 2420 3045 
Q 2306 3072 2169 3072 
Q 1681 3072 1420 2755 
Q 1159 2438 1159 1844 
L 1159 0 
L 581 0 
L 581 3500 
L 1159 3500 
L 1159 2956 
Q 1341 3275 1631 3429 
Q 1922 3584 2338 3584 
Q 2397 3584 2469 3576 
Q 2541 3569 2628 3553 
L 2631 2963 
z
" transform="scale(0.015625)"/>
       <path id="DejaVuSans-74" d="M 1172 4494 
L 1172 3500 
L 2356 3500 
L 2356 3053 
L 1172 3053 
L 1172 1153 
Q 1172 725 1289 603 
Q 1406 481 1766 481 
L 2356 481 
L 2356 0 
L 1766 0 
Q 1100 0 847 248 
Q 594 497 594 1153 
L 594 3053 
L 172 3053 
L 172 3500 
L 594 3500 
L 594 4494 
L 1172 4494 
z
" transform="scale(0.015625)"/>
       <path id="DejaVuSans-68" d="M 3513 2113 
L 3513 0 
L 2938 0 
L 2938 2094 
Q 2938 2591 2744 2837 
Q 2550 3084 2163 3084 
Q 1697 3084 1428 2787 
Q 1159 2491 1159 1978 
L 1159 0 
L 581 0 
L 581 4863 
L 1159 4863 
L 1159 2956 
Q 1366 3272 1645 3428 
Q 1925 3584 2291 3584 
Q 2894 3584 3203 3211 
Q 3513 2838 3513 2113 
z
" transform="scale(0.015625)"/>
       <path id="DejaVuSans-5f" d="M 3263 -1063 
L 3263 -1509 
L -63 -1509 
L -63 -1063 
L 3263 -1063 
z
" transform="scale(0.015625)"/>
       <path id="DejaVuSans-6d" d="M 3328 2828 
Q 3544 3216 3844 3400 
Q 4144 3584 4550 3584 
Q 5097 3584 5394 3201 
Q 5691 2819 5691 2113 
L 5691 0 
L 5113 0 
L 5113 2094 
Q 5113 2597 4934 2840 
Q 4756 3084 4391 3084 
Q 3944 3084 3684 2787 
Q 3425 2491 3425 1978 
L 3425 0 
L 2847 0 
L 2847 2094 
Q 2847 2600 2669 2842 
Q 2491 3084 2119 3084 
Q 1678 3084 1418 2786 
Q 1159 2488 1159 1978 
L 1159 0 
L 581 0 
L 581 3500 
L 1159 3500 
L 1159 2956 
Q 1356 3278 1631 3431 
Q 1906 3584 2284 3584 
Q 2666 3584 2933 3390 
Q 3200 3197 3328 2828 
z
" transform="scale(0.015625)"/>
       <path id="DejaVuSans-65" d="M 3597 1894 
L 3597 1613 
L 953 1613 
Q 991 1019 1311 708 
Q 1631 397 2203 397 
Q 2534 397 2845 478 
Q 3156 559 3463 722 
L 3463 178 
Q 3153 47 2828 -22 
Q 2503 -91 2169 -91 
Q 1331 -91 842 396 
Q 353 884 353 1716 
Q 353 2575 817 3079 
Q 1281 3584 2069 3584 
Q 2775 3584 3186 3129 
Q 3597 2675 3597 1894 
z
M 3022 2063 
Q 3016 2534 2758 2815 
Q 2500 3097 2075 3097 
Q 1594 3097 1305 2825 
Q 1016 2553 972 2059 
L 3022 2063 
z
" transform="scale(0.015625)"/>
       <path id="DejaVuSans-20" transform="scale(0.015625)"/>
       <path id="DejaVuSans-5b" d="M 550 4863 
L 1875 4863 
L 1875 4416 
L 1125 4416 
L 1125 -397 
L 1875 -397 
L 1875 -844 
L 550 -844 
L 550 4863 
z
" transform="scale(0.015625)"/>
       <path id="DejaVuSans-b5" d="M 544 -1331 
L 544 3500 
L 1119 3500 
L 1119 1325 
Q 1119 872 1334 640 
Q 1550 409 1972 409 
Q 2434 409 2667 671 
Q 2900 934 2900 1459 
L 2900 3500 
L 3475 3500 
L 3475 806 
Q 3475 619 3529 530 
Q 3584 441 3700 441 
Q 3728 441 3778 458 
Q 3828 475 3916 513 
L 3916 50 
Q 3788 -22 3673 -56 
Q 3559 -91 3450 -91 
Q 3234 -91 3106 31 
Q 2978 153 2931 403 
Q 2775 156 2548 32 
Q 2322 -91 2016 -91 
Q 1697 -91 1473 31 
Q 1250 153 1119 397 
L 1119 -1331 
L 544 -1331 
z
" transform="scale(0.015625)"/>
       <path id="DejaVuSans-73" d="M 2834 3397 
L 2834 2853 
Q 2591 2978 2328 3040 
Q 2066 3103 1784 3103 
Q 1356 3103 1142 2972 
Q 928 2841 928 2578 
Q 928 2378 1081 2264 
Q 1234 2150 1697 2047 
L 1894 2003 
Q 2506 1872 2764 1633 
Q 3022 1394 3022 966 
Q 3022 478 2636 193 
Q 2250 -91 1575 -91 
Q 1294 -91 989 -36 
Q 684 19 347 128 
L 347 722 
Q 666 556 975 473 
Q 1284 391 1588 391 
Q 1994 391 2212 530 
Q 2431 669 2431 922 
Q 2431 1156 2273 1281 
Q 2116 1406 1581 1522 
L 1381 1569 
Q 847 1681 609 1914 
Q 372 2147 372 2553 
Q 372 3047 722 3315 
Q 1072 3584 1716 3584 
Q 2034 3584 2315 3537 
Q 2597 3491 2834 3397 
z
" transform="scale(0.015625)"/>
       <path id="DejaVuSans-5d" d="M 1947 4863 
L 1947 -844 
L 622 -844 
L 622 -397 
L 1369 -397 
L 1369 4416 
L 622 4416 
L 622 4863 
L 1947 4863 
z
" transform="scale(0.015625)"/>
      </defs>
      <use xlink:href="#DejaVuSans-62"/>
      <use xlink:href="#DejaVuSans-69" transform="translate(63.476562 0)"/>
      <use xlink:href="#DejaVuSans-72" transform="translate(91.259766 0)"/>
      <use xlink:href="#DejaVuSans-74" transform="translate(132.373047 0)"/>
      <use xlink:href="#DejaVuSans-68" transform="translate(171.582031 0)"/>
      <use xlink:href="#DejaVuSans-5f" transform="translate(234.960938 0)"/>
      <use xlink:href="#DejaVuSans-74" transform="translate(284.960938 0)"/>
      <use xlink:href="#DejaVuSans-69" transform="translate(324.169922 0)"/>
      <use xlink:href="#DejaVuSans-6d" transform="translate(351.953125 0)"/>
      <use xlink:href="#DejaVuSans-65" transform="translate(449.365234 0)"/>
      <use xlink:href="#DejaVuSans-20" transform="translate(510.888672 0)"/>
      <use xlink:href="#DejaVuSans-5b" transform="translate(542.675781 0)"/>
      <use xlink:href="#DejaVuSans-b5" transform="translate(581.689453 0)"/>
      <use xlink:href="#DejaVuSans-73" transform="translate(645.3125 0)"/>
      <use xlink:href="#DejaVuSans-5d" transform="translate(697.412109 0)"/>
     </g>
    </g>
   </g>
   <g id="matplotlib.axis_2">
    <g id="ytick_1">
     <g id="line2d_7">
      <defs>
       <path id="m5acaa2fc44" d="M 0 0 
L -3.5 0 
" style="stroke: #000000; stroke-width: 0.8"/>
      </defs>
      <g>
       <use xlink:href="#m5acaa2fc44" x="53.328125" y="245.797127" style="stroke: #000000; stroke-width: 0.8"/>
      </g>
     </g>
     <g id="text_8">
      <!-- 0 -->
      <g transform="translate(39.965625 249.596346) scale(0.1 -0.1)">
       <use xlink:href="#DejaVuSans-30"/>
      </g>
     </g>
    </g>
    <g id="ytick_2">
     <g id="line2d_8">
      <g>
       <use xlink:href="#m5acaa2fc44" x="53.328125" y="208.818224" style="stroke: #000000; stroke-width: 0.8"/>
      </g>
     </g>
     <g id="text_9">
      <!-- 200 -->
      <g transform="translate(27.240625 212.617443) scale(0.1 -0.1)">
       <use xlink:href="#DejaVuSans-32"/>
       <use xlink:href="#DejaVuSans-30" transform="translate(63.623047 0)"/>
       <use xlink:href="#DejaVuSans-30" transform="translate(127.246094 0)"/>
      </g>
     </g>
    </g>
    <g id="ytick_3">
     <g id="line2d_9">
      <g>
       <use xlink:href="#m5acaa2fc44" x="53.328125" y="171.839321" style="stroke: #000000; stroke-width: 0.8"/>
      </g>
     </g>
     <g id="text_10">
      <!-- 400 -->
      <g transform="translate(27.240625 175.63854) scale(0.1 -0.1)">
       <use xlink:href="#DejaVuSans-34"/>
       <use xlink:href="#DejaVuSans-30" transform="translate(63.623047 0)"/>
       <use xlink:href="#DejaVuSans-30" transform="translate(127.246094 0)"/>
      </g>
     </g>
    </g>
    <g id="ytick_4">
     <g id="line2d_10">
      <g>
       <use xlink:href="#m5acaa2fc44" x="53.328125" y="134.860418" style="stroke: #000000; stroke-width: 0.8"/>
      </g>
     </g>
     <g id="text_11">
      <!-- 600 -->
      <g transform="translate(27.240625 138.659637) scale(0.1 -0.1)">
       <defs>
        <path id="DejaVuSans-36" d="M 2113 2584 
Q 1688 2584 1439 2293 
Q 1191 2003 1191 1497 
Q 1191 994 1439 701 
Q 1688 409 2113 409 
Q 2538 409 2786 701 
Q 3034 994 3034 1497 
Q 3034 2003 2786 2293 
Q 2538 2584 2113 2584 
z
M 3366 4563 
L 3366 3988 
Q 3128 4100 2886 4159 
Q 2644 4219 2406 4219 
Q 1781 4219 1451 3797 
Q 1122 3375 1075 2522 
Q 1259 2794 1537 2939 
Q 1816 3084 2150 3084 
Q 2853 3084 3261 2657 
Q 3669 2231 3669 1497 
Q 3669 778 3244 343 
Q 2819 -91 2113 -91 
Q 1303 -91 875 529 
Q 447 1150 447 2328 
Q 447 3434 972 4092 
Q 1497 4750 2381 4750 
Q 2619 4750 2861 4703 
Q 3103 4656 3366 4563 
z
" transform="scale(0.015625)"/>
       </defs>
       <use xlink:href="#DejaVuSans-36"/>
       <use xlink:href="#DejaVuSans-30" transform="translate(63.623047 0)"/>
       <use xlink:href="#DejaVuSans-30" transform="translate(127.246094 0)"/>
      </g>
     </g>
    </g>
    <g id="ytick_5">
     <g id="line2d_11">
      <g>
       <use xlink:href="#m5acaa2fc44" x="53.328125" y="97.881515" style="stroke: #000000; stroke-width: 0.8"/>
      </g>
     </g>
     <g id="text_12">
      <!-- 800 -->
      <g transform="translate(27.240625 101.680734) scale(0.1 -0.1)">
       <defs>
        <path id="DejaVuSans-38" d="M 2034 2216 
Q 1584 2216 1326 1975 
Q 1069 1734 1069 1313 
Q 1069 891 1326 650 
Q 1584 409 2034 409 
Q 2484 409 2743 651 
Q 3003 894 3003 1313 
Q 3003 1734 2745 1975 
Q 2488 2216 2034 2216 
z
M 1403 2484 
Q 997 2584 770 2862 
Q 544 3141 544 3541 
Q 544 4100 942 4425 
Q 1341 4750 2034 4750 
Q 2731 4750 3128 4425 
Q 3525 4100 3525 3541 
Q 3525 3141 3298 2862 
Q 3072 2584 2669 2484 
Q 3125 2378 3379 2068 
Q 3634 1759 3634 1313 
Q 3634 634 3220 271 
Q 2806 -91 2034 -91 
Q 1263 -91 848 271 
Q 434 634 434 1313 
Q 434 1759 690 2068 
Q 947 2378 1403 2484 
z
M 1172 3481 
Q 1172 3119 1398 2916 
Q 1625 2713 2034 2713 
Q 2441 2713 2670 2916 
Q 2900 3119 2900 3481 
Q 2900 3844 2670 4047 
Q 2441 4250 2034 4250 
Q 1625 4250 1398 4047 
Q 1172 3844 1172 3481 
z
" transform="scale(0.015625)"/>
       </defs>
       <use xlink:href="#DejaVuSans-38"/>
       <use xlink:href="#DejaVuSans-30" transform="translate(63.623047 0)"/>
       <use xlink:href="#DejaVuSans-30" transform="translate(127.246094 0)"/>
      </g>
     </g>
    </g>
    <g id="ytick_6">
     <g id="line2d_12">
      <g>
       <use xlink:href="#m5acaa2fc44" x="53.328125" y="60.902612" style="stroke: #000000; stroke-width: 0.8"/>
      </g>
     </g>
     <g id="text_13">
      <!-- 1000 -->
      <g transform="translate(20.878125 64.701831) scale(0.1 -0.1)">
       <use xlink:href="#DejaVuSans-31"/>
       <use xlink:href="#DejaVuSans-30" transform="translate(63.623047 0)"/>
       <use xlink:href="#DejaVuSans-30" transform="translate(127.246094 0)"/>
       <use xlink:href="#DejaVuSans-30" transform="translate(190.869141 0)"/>
      </g>
     </g>
    </g>
    <g id="ytick_7">
     <g id="line2d_13">
      <g>
       <use xlink:href="#m5acaa2fc44" x="53.328125" y="23.923709" style="stroke: #000000; stroke-width: 0.8"/>
      </g>
     </g>
     <g id="text_14">
      <!-- 1200 -->
      <g transform="translate(20.878125 27.722928) scale(0.1 -0.1)">
       <use xlink:href="#DejaVuSans-31"/>
       <use xlink:href="#DejaVuSans-32" transform="translate(63.623047 0)"/>
       <use xlink:href="#DejaVuSans-30" transform="translate(127.246094 0)"/>
       <use xlink:href="#DejaVuSans-30" transform="translate(190.869141 0)"/>
      </g>
     </g>
    </g>
    <g id="text_15">
     <!-- [counts] -->
     <g transform="translate(14.798438 152.791947) rotate(-90) scale(0.1 -0.1)">
      <defs>
       <path id="DejaVuSans-63" d="M 3122 3366 
L 3122 2828 
Q 2878 2963 2633 3030 
Q 2388 3097 2138 3097 
Q 1578 3097 1268 2742 
Q 959 2388 959 1747 
Q 959 1106 1268 751 
Q 1578 397 2138 397 
Q 2388 397 2633 464 
Q 2878 531 3122 666 
L 3122 134 
Q 2881 22 2623 -34 
Q 2366 -91 2075 -91 
Q 1284 -91 818 406 
Q 353 903 353 1747 
Q 353 2603 823 3093 
Q 1294 3584 2113 3584 
Q 2378 3584 2631 3529 
Q 2884 3475 3122 3366 
z
" transform="scale(0.015625)"/>
       <path id="DejaVuSans-6f" d="M 1959 3097 
Q 1497 3097 1228 2736 
Q 959 2375 959 1747 
Q 959 1119 1226 758 
Q 1494 397 1959 397 
Q 2419 397 2687 759 
Q 2956 1122 2956 1747 
Q 2956 2369 2687 2733 
Q 2419 3097 1959 3097 
z
M 1959 3584 
Q 2709 3584 3137 3096 
Q 3566 2609 3566 1747 
Q 3566 888 3137 398 
Q 2709 -91 1959 -91 
Q 1206 -91 779 398 
Q 353 888 353 1747 
Q 353 2609 779 3096 
Q 1206 3584 1959 3584 
z
" transform="scale(0.015625)"/>
       <path id="DejaVuSans-75" d="M 544 1381 
L 544 3500 
L 1119 3500 
L 1119 1403 
Q 1119 906 1312 657 
Q 1506 409 1894 409 
Q 2359 409 2629 706 
Q 2900 1003 2900 1516 
L 2900 3500 
L 3475 3500 
L 3475 0 
L 2900 0 
L 2900 538 
Q 2691 219 2414 64 
Q 2138 -91 1772 -91 
Q 1169 -91 856 284 
Q 544 659 544 1381 
z
M 1991 3584 
L 1991 3584 
z
" transform="scale(0.015625)"/>
       <path id="DejaVuSans-6e" d="M 3513 2113 
L 3513 0 
L 2938 0 
L 2938 2094 
Q 2938 2591 2744 2837 
Q 2550 3084 2163 3084 
Q 1697 3084 1428 2787 
Q 1159 2491 1159 1978 
L 1159 0 
L 581 0 
L 581 3500 
L 1159 3500 
L 1159 2956 
Q 1366 3272 1645 3428 
Q 1925 3584 2291 3584 
Q 2894 3584 3203 3211 
Q 3513 2838 3513 2113 
z
" transform="scale(0.015625)"/>
      </defs>
      <use xlink:href="#DejaVuSans-5b"/>
      <use xlink:href="#DejaVuSans-63" transform="translate(39.013672 0)"/>
      <use xlink:href="#DejaVuSans-6f" transform="translate(93.994141 0)"/>
      <use xlink:href="#DejaVuSans-75" transform="translate(155.175781 0)"/>
      <use xlink:href="#DejaVuSans-6e" transform="translate(218.554688 0)"/>
      <use xlink:href="#DejaVuSans-74" transform="translate(281.933594 0)"/>
      <use xlink:href="#DejaVuSans-73" transform="translate(321.142578 0)"/>
      <use xlink:href="#DejaVuSans-5d" transform="translate(373.242188 0)"/>
     </g>
    </g>
   </g>
   <g id="line2d_14">
    <path d="M 69.749563 232.854511 
L 70.844325 232.854511 
L 70.844325 228.232148 
L 71.939088 228.232148 
L 71.939088 218.987422 
L 73.033851 218.987422 
L 73.033851 209.557802 
L 74.128613 209.557802 
L 74.128613 207.523962 
L 75.223376 207.523962 
L 75.223376 193.287085 
L 76.318138 193.287085 
L 76.318138 181.084047 
L 77.412901 181.084047 
L 77.412901 178.125735 
L 78.507663 178.125735 
L 78.507663 173.688266 
L 79.602426 173.688266 
L 79.602426 159.821178 
L 80.697188 159.821178 
L 80.697188 152.610291 
L 81.791951 152.610291 
L 81.791951 152.425397 
L 82.886713 152.425397 
L 82.886713 146.138983 
L 83.981476 146.138983 
L 83.981476 131.347422 
L 86.171001 131.347422 
L 86.171001 114.337127 
L 87.265763 114.337127 
L 87.265763 123.951642 
L 88.360526 123.951642 
L 88.360526 113.597549 
L 89.455288 113.597549 
L 89.455288 119.329279 
L 90.550051 119.329279 
L 90.550051 103.613245 
L 91.644814 103.613245 
L 91.644814 104.167928 
L 92.739576 104.167928 
L 92.739576 106.386663 
L 93.834339 106.386663 
L 93.834339 96.772148 
L 94.929101 96.772148 
L 94.929101 88.636789 
L 96.023864 88.636789 
L 96.023864 92.889363 
L 97.118626 92.889363 
L 97.118626 84.384215 
L 98.213389 84.384215 
L 98.213389 84.938899 
L 99.308151 84.938899 
L 99.308151 71.996283 
L 100.402914 71.996283 
L 100.402914 80.131641 
L 101.497676 80.131641 
L 101.497676 77.912907 
L 102.592439 77.912907 
L 102.592439 73.10565 
L 103.687201 73.10565 
L 103.687201 76.988435 
L 104.781964 76.988435 
L 104.781964 64.415608 
L 105.876726 64.415608 
L 105.876726 71.441599 
L 106.971489 71.441599 
L 106.971489 68.483287 
L 108.066252 68.483287 
L 108.066252 63.121346 
L 109.161014 63.121346 
L 109.161014 62.751557 
L 110.255777 62.751557 
L 110.255777 61.272401 
L 111.350539 61.272401 
L 111.350539 57.204722 
L 112.445302 57.204722 
L 112.445302 51.288097 
L 113.540064 51.288097 
L 113.540064 49.624046 
L 114.634827 49.624046 
L 114.634827 61.087506 
L 115.729589 61.087506 
L 115.729589 51.103203 
L 116.824352 51.103203 
L 116.824352 43.152738 
L 117.919114 43.152738 
L 117.919114 50.918308 
L 119.013877 50.918308 
L 119.013877 48.329785 
L 120.108639 48.329785 
L 120.108639 44.631895 
L 121.203402 44.631895 
L 121.203402 44.816789 
L 122.298164 44.816789 
L 122.298164 50.733414 
L 123.392927 50.733414 
L 123.392927 45.556367 
L 124.487689 45.556367 
L 124.487689 43.892317 
L 125.582452 43.892317 
L 125.582452 44.816789 
L 126.677215 44.816789 
L 126.677215 41.673582 
L 127.771977 41.673582 
L 127.771977 45.186578 
L 128.86674 45.186578 
L 128.86674 53.321937 
L 129.961502 53.321937 
L 129.961502 37.790798 
L 131.056265 37.790798 
L 131.056265 38.345481 
L 132.151027 38.345481 
L 132.151027 39.454848 
L 133.24579 39.454848 
L 133.24579 32.243962 
L 134.340552 32.243962 
L 134.340552 35.202274 
L 135.435315 35.202274 
L 135.435315 48.514679 
L 136.530077 48.514679 
L 136.530077 33.723118 
L 137.62484 33.723118 
L 137.62484 46.850629 
L 138.719602 46.850629 
L 138.719602 34.277802 
L 139.814365 34.277802 
L 139.814365 45.001684 
L 140.909127 45.001684 
L 140.909127 36.496536 
L 142.00389 36.496536 
L 142.00389 30.579911 
L 143.098652 30.579911 
L 143.098652 45.371473 
L 144.193415 45.371473 
L 144.193415 34.647591 
L 145.288178 34.647591 
L 145.288178 41.303793 
L 146.38294 41.303793 
L 146.38294 31.689279 
L 147.477703 31.689279 
L 147.477703 32.613751 
L 148.572465 32.613751 
L 148.572465 41.488688 
L 149.667228 41.488688 
L 149.667228 31.504384 
L 150.76199 31.504384 
L 150.76199 39.085059 
L 151.856753 39.085059 
L 151.856753 37.236114 
L 152.951515 37.236114 
L 152.951515 37.051219 
L 154.046278 37.051219 
L 154.046278 49.624046 
L 155.14104 49.624046 
L 155.14104 33.908013 
L 156.235803 33.908013 
L 156.235803 41.118899 
L 157.330565 41.118899 
L 157.330565 37.975692 
L 158.425328 37.975692 
L 158.425328 36.68143 
L 159.52009 36.68143 
L 159.52009 45.926156 
L 160.614853 45.926156 
L 160.614853 40.564215 
L 161.709615 40.564215 
L 161.709615 52.952148 
L 162.804378 52.952148 
L 162.804378 34.647591 
L 163.899141 34.647591 
L 163.899141 37.790798 
L 164.993903 37.790798 
L 164.993903 31.874173 
L 166.088666 31.874173 
L 166.088666 28.730966 
L 167.183428 28.730966 
L 167.183428 32.428857 
L 168.278191 32.428857 
L 168.278191 35.01738 
L 169.372953 35.01738 
L 169.372953 34.647591 
L 170.467716 34.647591 
L 170.467716 43.337633 
L 171.562478 43.337633 
L 171.562478 39.824637 
L 172.657241 39.824637 
L 172.657241 18.561768 
L 173.752003 18.561768 
L 173.752003 33.168435 
L 174.846766 33.168435 
L 174.846766 31.504384 
L 175.941528 31.504384 
L 175.941528 42.782949 
L 177.036291 42.782949 
L 177.036291 29.840333 
L 178.131053 29.840333 
L 178.131053 34.647591 
L 179.225816 34.647591 
L 179.225816 29.840333 
L 180.320579 29.840333 
L 180.320579 37.975692 
L 181.415341 37.975692 
L 181.415341 31.689279 
L 182.510104 31.689279 
L 182.510104 27.806494 
L 183.604866 27.806494 
L 183.604866 32.613751 
L 184.699629 32.613751 
L 184.699629 30.210122 
L 185.794391 30.210122 
L 185.794391 27.436705 
L 186.889154 27.436705 
L 186.889154 41.303793 
L 187.983916 41.303793 
L 187.983916 39.454848 
L 189.078679 39.454848 
L 189.078679 29.470544 
L 190.173441 29.470544 
L 190.173441 34.832485 
L 191.268204 34.832485 
L 191.268204 35.202274 
L 192.362966 35.202274 
L 192.362966 38.160587 
L 193.457729 38.160587 
L 193.457729 31.319489 
L 194.552491 31.319489 
L 194.552491 33.353329 
L 195.647254 33.353329 
L 195.647254 31.689279 
L 196.742016 31.689279 
L 196.742016 42.967844 
L 197.836779 42.967844 
L 197.836779 33.538224 
L 198.931542 33.538224 
L 198.931542 31.504384 
L 200.026304 31.504384 
L 200.026304 38.345481 
L 201.121067 38.345481 
L 201.121067 39.454848 
L 202.215829 39.454848 
L 202.215829 24.848181 
L 203.310592 24.848181 
L 203.310592 37.605903 
L 204.405354 37.605903 
L 204.405354 26.327338 
L 205.500117 26.327338 
L 205.500117 36.866325 
L 206.594879 36.866325 
L 206.594879 40.74911 
L 207.689642 40.74911 
L 207.689642 23.369025 
L 208.784404 23.369025 
L 208.784404 27.436705 
L 209.879167 27.436705 
L 209.879167 21.704975 
L 210.973929 21.704975 
L 210.973929 34.277802 
L 212.068692 34.277802 
L 212.068692 34.092907 
L 213.163454 34.092907 
L 213.163454 32.428857 
L 214.258217 32.428857 
L 214.258217 29.840333 
L 215.352979 29.840333 
L 215.352979 44.262106 
L 216.447742 44.262106 
L 216.447742 31.134595 
L 217.542505 31.134595 
L 217.542505 26.512232 
L 218.637267 26.512232 
L 218.637267 28.176283 
L 219.73203 28.176283 
L 219.73203 28.361177 
L 220.826792 28.361177 
L 220.826792 35.387169 
L 221.921555 35.387169 
L 221.921555 34.277802 
L 223.016317 34.277802 
L 223.016317 38.160587 
L 224.11108 38.160587 
L 224.11108 28.730966 
L 225.205842 28.730966 
L 225.205842 27.436705 
L 226.300605 27.436705 
L 226.300605 37.605903 
L 227.395367 37.605903 
L 227.395367 36.311641 
L 228.49013 36.311641 
L 228.49013 36.866325 
L 229.584892 36.866325 
L 229.584892 36.126747 
L 230.679655 36.126747 
L 230.679655 42.228266 
L 231.774417 42.228266 
L 231.774417 27.621599 
L 232.86918 27.621599 
L 232.86918 29.840333 
L 233.963942 29.840333 
L 233.963942 35.756958 
L 235.058705 35.756958 
L 235.058705 32.98354 
L 236.153468 32.98354 
L 236.153468 31.134595 
L 237.24823 31.134595 
L 237.24823 33.908013 
L 238.342993 33.908013 
L 238.342993 32.98354 
L 239.437755 32.98354 
L 239.437755 29.100755 
L 240.532518 29.100755 
L 240.532518 21.889869 
L 241.62728 21.889869 
L 241.62728 28.176283 
L 242.722043 28.176283 
L 242.722043 28.361177 
L 244.911568 28.361177 
L 244.911568 31.319489 
L 246.00633 31.319489 
L 246.00633 33.538224 
L 247.101093 33.538224 
L 247.101093 44.447 
L 248.195855 44.447 
L 248.195855 28.915861 
L 249.290618 28.915861 
L 249.290618 33.723118 
L 250.38538 33.723118 
L 250.38538 41.118899 
L 251.480143 41.118899 
L 251.480143 33.908013 
L 252.574906 33.908013 
L 252.574906 26.142443 
L 253.669668 26.142443 
L 253.669668 37.236114 
L 254.764431 37.236114 
L 254.764431 40.379321 
L 255.859193 40.379321 
L 255.859193 35.202274 
L 256.953956 35.202274 
L 256.953956 41.303793 
L 258.048718 41.303793 
L 258.048718 31.319489 
L 259.143481 31.319489 
L 259.143481 44.077211 
L 260.238243 44.077211 
L 260.238243 48.329785 
L 261.333006 48.329785 
L 261.333006 60.902612 
L 262.427768 60.902612 
L 262.427768 63.306241 
L 263.522531 63.306241 
L 263.522531 81.795692 
L 264.617293 81.795692 
L 264.617293 71.441599 
L 265.712056 71.441599 
L 265.712056 94.923203 
L 266.806818 94.923203 
L 266.806818 97.326831 
L 267.901581 97.326831 
L 267.901581 109.529869 
L 268.996343 109.529869 
L 268.996343 107.680924 
L 270.091106 107.680924 
L 270.091106 122.287591 
L 271.185869 122.287591 
L 271.185869 123.212064 
L 272.280631 123.212064 
L 272.280631 136.339574 
L 273.375394 136.339574 
L 273.375394 136.709363 
L 274.470156 136.709363 
L 274.470156 140.222359 
L 275.564919 140.222359 
L 275.564919 153.534764 
L 276.659681 153.534764 
L 276.659681 150.761346 
L 277.754444 150.761346 
L 277.754444 161.855017 
L 278.849206 161.855017 
L 278.849206 162.039912 
L 279.943969 162.039912 
L 279.943969 168.881009 
L 281.038731 168.881009 
L 281.038731 170.17527 
L 282.133494 170.17527 
L 282.133494 171.099743 
L 283.228256 171.099743 
L 283.228256 184.412148 
L 284.323019 184.412148 
L 284.323019 184.227254 
L 285.417781 184.227254 
L 285.417781 188.110038 
L 286.512544 188.110038 
L 286.512544 189.589194 
L 287.607306 189.589194 
L 287.607306 187.37046 
L 288.702069 187.37046 
L 288.702069 194.766241 
L 289.796832 194.766241 
L 289.796832 198.094342 
L 290.891594 198.094342 
L 290.891594 201.607338 
L 291.986357 201.607338 
L 291.986357 203.271389 
L 293.081119 203.271389 
L 293.081119 204.010967 
L 294.175882 204.010967 
L 294.175882 211.406747 
L 295.270644 211.406747 
L 295.270644 208.26354 
L 296.365407 208.26354 
L 296.365407 212.33122 
L 297.460169 212.33122 
L 297.460169 211.776536 
L 298.554932 211.776536 
L 298.554932 215.104638 
L 299.649694 215.104638 
L 299.649694 218.247844 
L 300.744457 218.247844 
L 300.744457 220.096789 
L 301.839219 220.096789 
L 301.839219 222.315524 
L 302.933982 222.315524 
L 302.933982 221.945735 
L 304.028744 221.945735 
L 304.028744 220.466578 
L 305.123507 220.466578 
L 305.123507 222.500418 
L 306.218269 222.500418 
L 306.218269 221.391051 
L 307.313032 221.391051 
L 307.313032 223.79468 
L 308.407795 223.79468 
L 308.407795 226.568097 
L 309.502557 226.568097 
L 309.502557 224.534258 
L 310.59732 224.534258 
L 310.59732 227.307676 
L 311.692082 227.307676 
L 311.692082 231.745144 
L 312.786845 231.745144 
L 312.786845 230.265988 
L 313.881607 230.265988 
L 313.881607 231.375355 
L 314.97637 231.375355 
L 314.97637 235.073245 
L 316.071132 235.073245 
L 316.071132 232.114933 
L 317.165895 232.114933 
L 317.165895 234.148773 
L 318.260657 234.148773 
L 318.260657 231.560249 
L 319.35542 231.560249 
L 319.35542 233.778984 
L 320.450182 233.778984 
L 320.450182 238.031557 
L 321.544945 238.031557 
L 321.544945 236.552401 
L 322.639707 236.552401 
L 322.639707 237.107085 
L 323.73447 237.107085 
L 323.73447 236.367507 
L 324.829233 236.367507 
L 324.829233 236.552401 
L 325.923995 236.552401 
L 325.923995 240.065397 
L 327.018758 240.065397 
L 327.018758 238.031557 
L 328.11352 238.031557 
L 328.11352 238.95603 
L 329.208283 238.95603 
L 329.208283 238.031557 
L 331.397808 238.031557 
L 331.397808 240.065397 
L 332.49257 240.065397 
L 332.49257 238.401346 
L 333.587333 238.401346 
L 333.587333 240.620081 
L 334.682095 240.620081 
L 334.682095 240.98987 
L 335.776858 240.98987 
L 335.776858 242.469026 
L 336.87162 242.469026 
L 336.87162 240.435186 
L 337.966383 240.435186 
L 337.966383 241.914342 
L 339.061145 241.914342 
L 339.061145 242.099237 
L 340.155908 242.099237 
L 340.155908 241.914342 
L 341.25067 241.914342 
L 341.25067 239.880503 
L 342.345433 239.880503 
L 342.345433 240.804975 
L 343.440196 240.804975 
L 343.440196 243.393498 
L 344.534958 243.393498 
L 344.534958 240.435186 
L 345.629721 240.435186 
L 345.629721 243.208604 
L 346.724483 243.208604 
L 346.724483 243.578393 
L 347.819246 243.578393 
L 347.819246 243.023709 
L 348.914008 243.023709 
L 348.914008 243.208604 
L 350.008771 243.208604 
L 350.008771 242.284131 
L 351.103533 242.284131 
L 351.103533 243.393498 
L 352.198296 243.393498 
L 352.198296 243.948182 
L 353.293058 243.948182 
L 353.293058 244.317971 
L 354.387821 244.317971 
L 354.387821 243.578393 
L 356.577346 243.578393 
L 356.577346 244.317971 
L 357.672108 244.317971 
L 357.672108 243.578393 
L 358.766871 243.578393 
L 358.766871 243.948182 
L 359.861633 243.948182 
L 359.861633 243.393498 
L 360.956396 243.393498 
L 360.956396 245.057549 
L 362.051159 245.057549 
L 362.051159 245.612233 
L 363.145921 245.612233 
L 363.145921 243.948182 
L 364.240684 243.948182 
L 364.240684 244.133076 
L 365.335446 244.133076 
L 365.335446 244.317971 
L 366.430209 244.317971 
L 366.430209 244.872654 
L 367.524971 244.872654 
L 367.524971 244.317971 
L 368.619734 244.317971 
L 368.619734 245.612233 
L 369.714496 245.612233 
L 369.714496 244.502865 
L 370.809259 244.502865 
L 370.809259 245.242444 
L 371.904021 245.242444 
L 371.904021 244.872654 
L 372.998784 244.872654 
L 372.998784 245.427338 
L 374.093546 245.427338 
L 374.093546 244.872654 
L 375.188309 244.872654 
L 375.188309 245.612233 
L 376.283071 245.612233 
L 376.283071 245.057549 
L 377.377834 245.057549 
L 377.377834 245.242444 
L 378.472596 245.242444 
L 378.472596 245.057549 
L 379.567359 245.057549 
L 379.567359 245.427338 
L 381.756884 245.427338 
L 381.756884 245.057549 
L 382.851647 245.057549 
L 382.851647 245.242444 
L 383.946409 245.242444 
L 383.946409 245.612233 
L 386.135934 245.612233 
L 386.135934 245.242444 
L 387.230697 245.242444 
L 387.230697 245.057549 
L 388.325459 245.057549 
L 388.325459 245.427338 
L 390.514984 245.427338 
L 390.514984 245.612233 
L 391.609747 245.612233 
L 391.609747 245.057549 
L 392.704509 245.057549 
L 392.704509 245.797127 
L 393.799272 245.797127 
L 393.799272 245.612233 
L 395.988797 245.612233 
L 395.988797 244.872654 
L 398.178322 244.872654 
L 398.178322 244.872654 
" clip-path="url(#p0fc039becf)" style="fill: none; stroke: #1f77b4; stroke-width: 1.5; stroke-linecap: square"/>
   </g>
   <g id="patch_3">
    <path d="M 53.328125 257.158895 
L 53.328125 7.2 
" style="fill: none; stroke: #000000; stroke-width: 0.8; stroke-linejoin: miter; stroke-linecap: square"/>
   </g>
   <g id="patch_4">
    <path d="M 414.59976 257.158895 
L 414.59976 7.2 
" style="fill: none; stroke: #000000; stroke-width: 0.8; stroke-linejoin: miter; stroke-linecap: square"/>
   </g>
   <g id="patch_5">
    <path d="M 53.328125 257.158895 
L 414.59976 257.158895 
" style="fill: none; stroke: #000000; stroke-width: 0.8; stroke-linejoin: miter; stroke-linecap: square"/>
   </g>
   <g id="patch_6">
    <path d="M 53.328125 7.2 
L 414.59976 7.2 
" style="fill: none; stroke: #000000; stroke-width: 0.8; stroke-linejoin: miter; stroke-linecap: square"/>
   </g>
  </g>
  <g id="axes_2">
   <g id="patch_7">
    <path d="M 503.927885 257.158895 
L 865.19952 257.158895 
L 865.19952 7.2 
L 503.927885 7.2 
z
" style="fill: #ffffff"/>
   </g>
   <g id="matplotlib.axis_3">
    <g id="xtick_7">
     <g id="line2d_15">
      <g>
       <use xlink:href="#m3dc2dcf7a6" x="517.036126" y="257.158895" style="stroke: #000000; stroke-width: 0.8"/>
      </g>
     </g>
     <g id="text_16">
      <!-- 0.0 -->
      <g transform="translate(509.084563 271.757332) scale(0.1 -0.1)">
       <defs>
        <path id="DejaVuSans-2e" d="M 684 794 
L 1344 794 
L 1344 0 
L 684 0 
L 684 794 
z
" transform="scale(0.015625)"/>
       </defs>
       <use xlink:href="#DejaVuSans-30"/>
       <use xlink:href="#DejaVuSans-2e" transform="translate(63.623047 0)"/>
       <use xlink:href="#DejaVuSans-30" transform="translate(95.410156 0)"/>
      </g>
     </g>
    </g>
    <g id="xtick_8">
     <g id="line2d_16">
      <g>
       <use xlink:href="#m3dc2dcf7a6" x="558.756814" y="257.158895" style="stroke: #000000; stroke-width: 0.8"/>
      </g>
     </g>
     <g id="text_17">
      <!-- 2.5 -->
      <g transform="translate(550.805252 271.757332) scale(0.1 -0.1)">
       <use xlink:href="#DejaVuSans-32"/>
       <use xlink:href="#DejaVuSans-2e" transform="translate(63.623047 0)"/>
       <use xlink:href="#DejaVuSans-35" transform="translate(95.410156 0)"/>
      </g>
     </g>
    </g>
    <g id="xtick_9">
     <g id="line2d_17">
      <g>
       <use xlink:href="#m3dc2dcf7a6" x="600.477503" y="257.158895" style="stroke: #000000; stroke-width: 0.8"/>
      </g>
     </g>
     <g id="text_18">
      <!-- 5.0 -->
      <g transform="translate(592.52594 271.757332) scale(0.1 -0.1)">
       <use xlink:href="#DejaVuSans-35"/>
       <use xlink:href="#DejaVuSans-2e" transform="translate(63.623047 0)"/>
       <use xlink:href="#DejaVuSans-30" transform="translate(95.410156 0)"/>
      </g>
     </g>
    </g>
    <g id="xtick_10">
     <g id="line2d_18">
      <g>
       <use xlink:href="#m3dc2dcf7a6" x="642.198191" y="257.158895" style="stroke: #000000; stroke-width: 0.8"/>
      </g>
     </g>
     <g id="text_19">
      <!-- 7.5 -->
      <g transform="translate(634.246629 271.757332) scale(0.1 -0.1)">
       <defs>
        <path id="DejaVuSans-37" d="M 525 4666 
L 3525 4666 
L 3525 4397 
L 1831 0 
L 1172 0 
L 2766 4134 
L 525 4134 
L 525 4666 
z
" transform="scale(0.015625)"/>
       </defs>
       <use xlink:href="#DejaVuSans-37"/>
       <use xlink:href="#DejaVuSans-2e" transform="translate(63.623047 0)"/>
       <use xlink:href="#DejaVuSans-35" transform="translate(95.410156 0)"/>
      </g>
     </g>
    </g>
    <g id="xtick_11">
     <g id="line2d_19">
      <g>
       <use xlink:href="#m3dc2dcf7a6" x="683.91888" y="257.158895" style="stroke: #000000; stroke-width: 0.8"/>
      </g>
     </g>
     <g id="text_20">
      <!-- 10.0 -->
      <g transform="translate(672.786067 271.757332) scale(0.1 -0.1)">
       <use xlink:href="#DejaVuSans-31"/>
       <use xlink:href="#DejaVuSans-30" transform="translate(63.623047 0)"/>
       <use xlink:href="#DejaVuSans-2e" transform="translate(127.246094 0)"/>
       <use xlink:href="#DejaVuSans-30" transform="translate(159.033203 0)"/>
      </g>
     </g>
    </g>
    <g id="xtick_12">
     <g id="line2d_20">
      <g>
       <use xlink:href="#m3dc2dcf7a6" x="725.639568" y="257.158895" style="stroke: #000000; stroke-width: 0.8"/>
      </g>
     </g>
     <g id="text_21">
      <!-- 12.5 -->
      <g transform="translate(714.506756 271.757332) scale(0.1 -0.1)">
       <use xlink:href="#DejaVuSans-31"/>
       <use xlink:href="#DejaVuSans-32" transform="translate(63.623047 0)"/>
       <use xlink:href="#DejaVuSans-2e" transform="translate(127.246094 0)"/>
       <use xlink:href="#DejaVuSans-35" transform="translate(159.033203 0)"/>
      </g>
     </g>
    </g>
    <g id="xtick_13">
     <g id="line2d_21">
      <g>
       <use xlink:href="#m3dc2dcf7a6" x="767.360257" y="257.158895" style="stroke: #000000; stroke-width: 0.8"/>
      </g>
     </g>
     <g id="text_22">
      <!-- 15.0 -->
      <g transform="translate(756.227444 271.757332) scale(0.1 -0.1)">
       <use xlink:href="#DejaVuSans-31"/>
       <use xlink:href="#DejaVuSans-35" transform="translate(63.623047 0)"/>
       <use xlink:href="#DejaVuSans-2e" transform="translate(127.246094 0)"/>
       <use xlink:href="#DejaVuSans-30" transform="translate(159.033203 0)"/>
      </g>
     </g>
    </g>
    <g id="xtick_14">
     <g id="line2d_22">
      <g>
       <use xlink:href="#m3dc2dcf7a6" x="809.080945" y="257.158895" style="stroke: #000000; stroke-width: 0.8"/>
      </g>
     </g>
     <g id="text_23">
      <!-- 17.5 -->
      <g transform="translate(797.948133 271.757332) scale(0.1 -0.1)">
       <use xlink:href="#DejaVuSans-31"/>
       <use xlink:href="#DejaVuSans-37" transform="translate(63.623047 0)"/>
       <use xlink:href="#DejaVuSans-2e" transform="translate(127.246094 0)"/>
       <use xlink:href="#DejaVuSans-35" transform="translate(159.033203 0)"/>
      </g>
     </g>
    </g>
    <g id="xtick_15">
     <g id="line2d_23">
      <g>
       <use xlink:href="#m3dc2dcf7a6" x="850.801634" y="257.158895" style="stroke: #000000; stroke-width: 0.8"/>
      </g>
     </g>
     <g id="text_24">
      <!-- 20.0 -->
      <g transform="translate(839.668821 271.757332) scale(0.1 -0.1)">
       <use xlink:href="#DejaVuSans-32"/>
       <use xlink:href="#DejaVuSans-30" transform="translate(63.623047 0)"/>
       <use xlink:href="#DejaVuSans-2e" transform="translate(127.246094 0)"/>
       <use xlink:href="#DejaVuSans-30" transform="translate(159.033203 0)"/>
      </g>
     </g>
    </g>
    <g id="text_25">
     <!-- wavelength [Å] -->
     <g transform="translate(646.526202 287.119832) scale(0.1 -0.1)">
      <defs>
       <path id="DejaVuSans-77" d="M 269 3500 
L 844 3500 
L 1563 769 
L 2278 3500 
L 2956 3500 
L 3675 769 
L 4391 3500 
L 4966 3500 
L 4050 0 
L 3372 0 
L 2619 2869 
L 1863 0 
L 1184 0 
L 269 3500 
z
" transform="scale(0.015625)"/>
       <path id="DejaVuSans-61" d="M 2194 1759 
Q 1497 1759 1228 1600 
Q 959 1441 959 1056 
Q 959 750 1161 570 
Q 1363 391 1709 391 
Q 2188 391 2477 730 
Q 2766 1069 2766 1631 
L 2766 1759 
L 2194 1759 
z
M 3341 1997 
L 3341 0 
L 2766 0 
L 2766 531 
Q 2569 213 2275 61 
Q 1981 -91 1556 -91 
Q 1019 -91 701 211 
Q 384 513 384 1019 
Q 384 1609 779 1909 
Q 1175 2209 1959 2209 
L 2766 2209 
L 2766 2266 
Q 2766 2663 2505 2880 
Q 2244 3097 1772 3097 
Q 1472 3097 1187 3025 
Q 903 2953 641 2809 
L 641 3341 
Q 956 3463 1253 3523 
Q 1550 3584 1831 3584 
Q 2591 3584 2966 3190 
Q 3341 2797 3341 1997 
z
" transform="scale(0.015625)"/>
       <path id="DejaVuSans-76" d="M 191 3500 
L 800 3500 
L 1894 563 
L 2988 3500 
L 3597 3500 
L 2284 0 
L 1503 0 
L 191 3500 
z
" transform="scale(0.015625)"/>
       <path id="DejaVuSans-6c" d="M 603 4863 
L 1178 4863 
L 1178 0 
L 603 0 
L 603 4863 
z
" transform="scale(0.015625)"/>
       <path id="DejaVuSans-67" d="M 2906 1791 
Q 2906 2416 2648 2759 
Q 2391 3103 1925 3103 
Q 1463 3103 1205 2759 
Q 947 2416 947 1791 
Q 947 1169 1205 825 
Q 1463 481 1925 481 
Q 2391 481 2648 825 
Q 2906 1169 2906 1791 
z
M 3481 434 
Q 3481 -459 3084 -895 
Q 2688 -1331 1869 -1331 
Q 1566 -1331 1297 -1286 
Q 1028 -1241 775 -1147 
L 775 -588 
Q 1028 -725 1275 -790 
Q 1522 -856 1778 -856 
Q 2344 -856 2625 -561 
Q 2906 -266 2906 331 
L 2906 616 
Q 2728 306 2450 153 
Q 2172 0 1784 0 
Q 1141 0 747 490 
Q 353 981 353 1791 
Q 353 2603 747 3093 
Q 1141 3584 1784 3584 
Q 2172 3584 2450 3431 
Q 2728 3278 2906 2969 
L 2906 3500 
L 3481 3500 
L 3481 434 
z
" transform="scale(0.015625)"/>
       <path id="DejaVuSans-c5" d="M 2663 5081 
Q 2663 5278 2523 5417 
Q 2384 5556 2188 5556 
Q 1988 5556 1852 5420 
Q 1716 5284 1716 5081 
Q 1716 4884 1853 4746 
Q 1991 4609 2188 4609 
Q 2384 4609 2523 4746 
Q 2663 4884 2663 5081 
z
M 2188 4044 
L 1338 1722 
L 3041 1722 
L 2188 4044 
z
M 1716 4366 
Q 1525 4494 1428 4673 
Q 1331 4853 1331 5081 
Q 1331 5441 1579 5691 
Q 1828 5941 2188 5941 
Q 2544 5941 2795 5689 
Q 3047 5438 3047 5081 
Q 3047 4863 2948 4678 
Q 2850 4494 2663 4366 
L 4325 0 
L 3669 0 
L 3244 1197 
L 1141 1197 
L 716 0 
L 50 0 
L 1716 4366 
z
" transform="scale(0.015625)"/>
      </defs>
      <use xlink:href="#DejaVuSans-77"/>
      <use xlink:href="#DejaVuSans-61" transform="translate(81.787109 0)"/>
      <use xlink:href="#DejaVuSans-76" transform="translate(143.066406 0)"/>
      <use xlink:href="#DejaVuSans-65" transform="translate(202.246094 0)"/>
      <use xlink:href="#DejaVuSans-6c" transform="translate(263.769531 0)"/>
      <use xlink:href="#DejaVuSans-65" transform="translate(291.552734 0)"/>
      <use xlink:href="#DejaVuSans-6e" transform="translate(353.076172 0)"/>
      <use xlink:href="#DejaVuSans-67" transform="translate(416.455078 0)"/>
      <use xlink:href="#DejaVuSans-74" transform="translate(479.931641 0)"/>
      <use xlink:href="#DejaVuSans-68" transform="translate(519.140625 0)"/>
      <use xlink:href="#DejaVuSans-20" transform="translate(582.519531 0)"/>
      <use xlink:href="#DejaVuSans-5b" transform="translate(614.306641 0)"/>
      <use xlink:href="#DejaVuSans-c5" transform="translate(653.320312 0)"/>
      <use xlink:href="#DejaVuSans-5d" transform="translate(721.728516 0)"/>
     </g>
    </g>
   </g>
   <g id="matplotlib.axis_4">
    <g id="ytick_8">
     <g id="line2d_24">
      <g>
       <use xlink:href="#m5acaa2fc44" x="503.927885" y="245.797127" style="stroke: #000000; stroke-width: 0.8"/>
      </g>
     </g>
     <g id="text_26">
      <!-- 0 -->
      <g transform="translate(490.565385 249.596346) scale(0.1 -0.1)">
       <use xlink:href="#DejaVuSans-30"/>
      </g>
     </g>
    </g>
    <g id="ytick_9">
     <g id="line2d_25">
      <g>
       <use xlink:href="#m5acaa2fc44" x="503.927885" y="193.390448" style="stroke: #000000; stroke-width: 0.8"/>
      </g>
     </g>
     <g id="text_27">
      <!-- 1000 -->
      <g transform="translate(471.477885 197.189667) scale(0.1 -0.1)">
       <use xlink:href="#DejaVuSans-31"/>
       <use xlink:href="#DejaVuSans-30" transform="translate(63.623047 0)"/>
       <use xlink:href="#DejaVuSans-30" transform="translate(127.246094 0)"/>
       <use xlink:href="#DejaVuSans-30" transform="translate(190.869141 0)"/>
      </g>
     </g>
    </g>
    <g id="ytick_10">
     <g id="line2d_26">
      <g>
       <use xlink:href="#m5acaa2fc44" x="503.927885" y="140.98377" style="stroke: #000000; stroke-width: 0.8"/>
      </g>
     </g>
     <g id="text_28">
      <!-- 2000 -->
      <g transform="translate(471.477885 144.782988) scale(0.1 -0.1)">
       <use xlink:href="#DejaVuSans-32"/>
       <use xlink:href="#DejaVuSans-30" transform="translate(63.623047 0)"/>
       <use xlink:href="#DejaVuSans-30" transform="translate(127.246094 0)"/>
       <use xlink:href="#DejaVuSans-30" transform="translate(190.869141 0)"/>
      </g>
     </g>
    </g>
    <g id="ytick_11">
     <g id="line2d_27">
      <g>
       <use xlink:href="#m5acaa2fc44" x="503.927885" y="88.577091" style="stroke: #000000; stroke-width: 0.8"/>
      </g>
     </g>
     <g id="text_29">
      <!-- 3000 -->
      <g transform="translate(471.477885 92.37631) scale(0.1 -0.1)">
       <use xlink:href="#DejaVuSans-33"/>
       <use xlink:href="#DejaVuSans-30" transform="translate(63.623047 0)"/>
       <use xlink:href="#DejaVuSans-30" transform="translate(127.246094 0)"/>
       <use xlink:href="#DejaVuSans-30" transform="translate(190.869141 0)"/>
      </g>
     </g>
    </g>
    <g id="ytick_12">
     <g id="line2d_28">
      <g>
       <use xlink:href="#m5acaa2fc44" x="503.927885" y="36.170412" style="stroke: #000000; stroke-width: 0.8"/>
      </g>
     </g>
     <g id="text_30">
      <!-- 4000 -->
      <g transform="translate(471.477885 39.969631) scale(0.1 -0.1)">
       <use xlink:href="#DejaVuSans-34"/>
       <use xlink:href="#DejaVuSans-30" transform="translate(63.623047 0)"/>
       <use xlink:href="#DejaVuSans-30" transform="translate(127.246094 0)"/>
       <use xlink:href="#DejaVuSans-30" transform="translate(190.869141 0)"/>
      </g>
     </g>
    </g>
    <g id="text_31">
     <!-- [counts] -->
     <g transform="translate(465.398197 152.791947) rotate(-90) scale(0.1 -0.1)">
      <use xlink:href="#DejaVuSans-5b"/>
      <use xlink:href="#DejaVuSans-63" transform="translate(39.013672 0)"/>
      <use xlink:href="#DejaVuSans-6f" transform="translate(93.994141 0)"/>
      <use xlink:href="#DejaVuSans-75" transform="translate(155.175781 0)"/>
      <use xlink:href="#DejaVuSans-6e" transform="translate(218.554688 0)"/>
      <use xlink:href="#DejaVuSans-74" transform="translate(281.933594 0)"/>
      <use xlink:href="#DejaVuSans-73" transform="translate(321.142578 0)"/>
      <use xlink:href="#DejaVuSans-5d" transform="translate(373.242188 0)"/>
     </g>
    </g>
   </g>
   <g id="line2d_29">
    <path d="M 520.349323 156.75818 
L 521.444085 156.75818 
L 521.444085 144.75705 
L 522.538848 144.75705 
L 522.538848 139.306756 
L 523.633611 139.306756 
L 523.633611 140.040449 
L 524.728373 140.040449 
L 524.728373 147.010538 
L 525.823136 147.010538 
L 525.823136 155.238386 
L 526.917898 155.238386 
L 526.917898 149.578465 
L 528.012661 149.578465 
L 528.012661 129.244673 
L 529.107423 129.244673 
L 529.107423 106.867022 
L 530.202186 106.867022 
L 530.202186 85.58991 
L 531.296948 85.58991 
L 531.296948 69.081806 
L 532.391711 69.081806 
L 532.391711 37.952239 
L 533.486473 37.952239 
L 533.486473 18.561768 
L 534.581236 18.561768 
L 534.581236 19.557495 
L 535.675998 19.557495 
L 535.675998 18.928615 
L 536.770761 18.928615 
L 536.770761 20.133968 
L 537.865523 20.133968 
L 537.865523 34.336178 
L 538.960286 34.336178 
L 538.960286 42.459213 
L 540.055048 42.459213 
L 540.055048 51.420756 
L 541.149811 51.420756 
L 541.149811 64.994085 
L 542.244574 64.994085 
L 542.244574 71.440107 
L 543.339336 71.440107 
L 543.339336 81.711816 
L 544.434099 81.711816 
L 544.434099 86.742857 
L 545.528861 86.742857 
L 545.528861 90.778171 
L 546.623624 90.778171 
L 546.623624 92.664812 
L 547.718386 92.664812 
L 547.718386 99.47768 
L 548.813149 99.47768 
L 548.813149 102.360047 
L 549.907911 102.360047 
L 549.907911 92.664812 
L 551.002674 92.664812 
L 551.002674 91.459458 
L 552.097436 91.459458 
L 552.097436 93.293692 
L 553.192199 93.293692 
L 553.192199 79.405922 
L 554.286961 79.405922 
L 554.286961 70.91604 
L 555.381724 70.91604 
L 555.381724 59.281757 
L 556.476486 59.281757 
L 556.476486 49.010048 
L 557.571249 49.010048 
L 557.571249 45.446394 
L 558.666012 45.446394 
L 558.666012 39.524439 
L 559.760774 39.524439 
L 559.760774 30.929744 
L 560.855537 30.929744 
L 560.855537 44.398261 
L 561.950299 44.398261 
L 561.950299 53.831463 
L 563.045062 53.831463 
L 563.045062 65.570559 
L 564.139824 65.570559 
L 564.139824 72.226207 
L 565.234587 72.226207 
L 565.234587 79.667955 
L 566.329349 79.667955 
L 566.329349 87.738584 
L 567.424112 87.738584 
L 567.424112 95.599586 
L 568.518874 95.599586 
L 568.518874 104.980381 
L 569.613637 104.980381 
L 569.613637 107.600715 
L 570.708399 107.600715 
L 570.708399 120.649978 
L 571.803162 120.649978 
L 571.803162 125.995459 
L 572.897924 125.995459 
L 572.897924 134.852188 
L 573.992687 134.852188 
L 573.992687 133.961275 
L 575.087449 133.961275 
L 575.087449 142.922817 
L 576.182212 142.922817 
L 576.182212 146.434064 
L 577.276975 146.434064 
L 577.276975 152.722866 
L 578.371737 152.722866 
L 578.371737 157.125027 
L 579.4665 157.125027 
L 579.4665 162.470508 
L 580.561262 162.470508 
L 580.561262 162.103661 
L 581.656025 162.103661 
L 581.656025 170.17429 
L 582.750787 170.17429 
L 582.750787 173.842757 
L 583.84555 173.842757 
L 583.84555 174.943297 
L 584.940312 174.943297 
L 584.940312 178.716578 
L 586.035075 178.716578 
L 586.035075 180.865252 
L 587.129837 180.865252 
L 587.129837 186.472767 
L 588.2246 186.472767 
L 588.2246 185.1626 
L 589.319362 185.1626 
L 589.319362 192.394721 
L 590.414125 192.394721 
L 590.414125 193.547668 
L 591.508887 193.547668 
L 591.508887 198.264269 
L 592.60365 198.264269 
L 592.60365 196.744476 
L 593.698412 196.744476 
L 593.698412 198.89315 
L 594.793175 198.89315 
L 594.793175 201.618297 
L 595.887938 201.618297 
L 595.887938 207.487845 
L 596.9827 207.487845 
L 596.9827 208.169132 
L 598.077463 208.169132 
L 598.077463 208.326352 
L 599.172225 208.326352 
L 599.172225 209.479299 
L 600.266988 209.479299 
L 600.266988 212.571293 
L 601.36175 212.571293 
L 601.36175 212.938139 
L 602.456513 212.938139 
L 602.456513 214.300713 
L 603.551275 214.300713 
L 603.551275 217.864367 
L 604.646038 217.864367 
L 604.646038 215.820507 
L 605.7408 215.820507 
L 605.7408 217.445114 
L 606.835563 217.445114 
L 606.835563 218.755281 
L 610.11985 218.860094 
L 610.11985 221.061175 
L 611.214613 221.061175 
L 611.214613 221.794868 
L 612.309375 221.794868 
L 612.309375 223.419475 
L 613.404138 223.419475 
L 613.404138 225.568149 
L 614.498901 225.568149 
L 614.498901 227.61201 
L 615.593663 227.61201 
L 615.593663 226.930723 
L 616.688426 226.930723 
L 616.688426 226.301843 
L 617.783188 226.301843 
L 617.783188 227.140349 
L 618.877951 227.140349 
L 618.877951 228.86977 
L 619.972713 228.86977 
L 619.972713 229.02699 
L 621.067476 229.02699 
L 621.067476 229.708277 
L 622.162238 229.708277 
L 622.162238 231.22807 
L 623.257001 231.22807 
L 623.257001 230.651597 
L 624.351763 230.651597 
L 624.351763 233.009897 
L 625.446526 233.009897 
L 625.446526 232.800271 
L 626.541288 232.800271 
L 626.541288 233.953218 
L 627.636051 233.953218 
L 627.636051 234.110438 
L 628.730813 234.110438 
L 628.730813 232.852677 
L 629.825576 232.852677 
L 629.825576 233.848404 
L 630.920339 233.848404 
L 630.920339 234.424878 
L 632.015101 234.424878 
L 632.015101 236.521145 
L 634.204626 236.468738 
L 634.204626 235.001351 
L 635.299389 235.001351 
L 635.299389 236.992805 
L 636.394151 236.992805 
L 636.394151 236.154298 
L 637.488914 236.154298 
L 637.488914 238.145752 
L 638.583676 238.145752 
L 638.583676 236.835585 
L 639.678439 236.835585 
L 639.678439 238.093345 
L 640.773201 238.093345 
L 640.773201 237.516872 
L 641.867964 237.516872 
L 641.867964 237.202432 
L 642.962726 237.202432 
L 642.962726 237.674092 
L 644.057489 237.674092 
L 644.057489 238.407785 
L 645.152251 238.407785 
L 645.152251 238.774632 
L 646.247014 238.774632 
L 646.247014 239.560732 
L 647.341776 239.560732 
L 647.341776 238.617412 
L 648.436539 238.617412 
L 648.436539 239.508326 
L 649.531302 239.508326 
L 649.531302 239.927579 
L 650.626064 239.927579 
L 650.626064 240.346832 
L 651.720827 240.346832 
L 651.720827 239.979986 
L 653.910352 240.084799 
L 653.910352 239.665546 
L 655.005114 239.665546 
L 655.005114 240.137206 
L 656.099877 240.137206 
L 656.099877 240.399239 
L 657.194639 240.399239 
L 657.194639 240.608866 
L 658.289402 240.608866 
L 658.289402 239.665546 
L 659.384164 239.665546 
L 659.384164 241.080526 
L 660.478927 241.080526 
L 660.478927 240.818493 
L 661.573689 240.818493 
L 661.573689 241.080526 
L 662.668452 241.080526 
L 662.668452 241.656999 
L 663.763214 241.656999 
L 663.763214 241.971439 
L 664.857977 241.971439 
L 664.857977 241.604593 
L 665.952739 241.604593 
L 665.952739 242.390693 
L 667.047502 242.390693 
L 667.047502 241.447373 
L 668.142265 241.447373 
L 668.142265 242.12866 
L 669.237027 242.12866 
L 669.237027 241.656999 
L 670.33179 241.656999 
L 670.33179 242.12866 
L 671.426552 242.12866 
L 671.426552 241.604593 
L 672.521315 241.604593 
L 672.521315 242.28588 
L 674.71084 242.233473 
L 674.71084 242.652726 
L 675.805602 242.652726 
L 675.805602 242.809946 
L 676.900365 242.809946 
L 676.900365 243.124386 
L 677.995127 243.124386 
L 677.995127 242.705133 
L 679.08989 242.705133 
L 679.08989 243.2292 
L 681.279415 243.124386 
L 681.279415 242.967166 
L 682.374177 242.967166 
L 682.374177 243.85808 
L 683.46894 243.85808 
L 683.46894 243.54364 
L 684.563702 243.54364 
L 684.563702 243.124386 
L 686.753228 243.176793 
L 686.753228 243.281606 
L 687.84799 243.281606 
L 687.84799 243.07198 
L 688.942753 243.07198 
L 688.942753 243.648453 
L 692.22704 243.753267 
L 692.22704 243.962893 
L 693.321803 243.962893 
L 693.321803 243.596047 
L 694.416565 243.596047 
L 694.416565 243.910487 
L 697.700853 243.805673 
L 697.700853 244.434553 
L 698.795615 244.434553 
L 698.795615 244.591773 
L 699.890378 244.591773 
L 699.890378 243.85808 
L 700.98514 243.85808 
L 700.98514 244.067707 
L 702.079903 244.067707 
L 702.079903 244.32974 
L 703.174666 244.32974 
L 703.174666 243.2292 
L 704.269428 243.2292 
L 704.269428 244.48696 
L 705.364191 244.48696 
L 705.364191 244.120113 
L 706.458953 244.120113 
L 706.458953 244.64418 
L 708.648478 244.64418 
L 708.648478 244.382147 
L 710.838003 244.382147 
L 710.838003 244.906214 
L 711.932766 244.906214 
L 711.932766 244.696587 
L 713.027528 244.696587 
L 713.027528 244.48696 
L 714.122291 244.48696 
L 714.122291 243.910487 
L 715.217053 243.910487 
L 715.217053 244.48696 
L 719.596103 244.539367 
L 719.596103 244.17252 
L 720.690866 244.17252 
L 720.690866 244.434553 
L 721.785629 244.434553 
L 721.785629 244.591773 
L 722.880391 244.591773 
L 722.880391 244.0153 
L 723.975154 244.0153 
L 723.975154 244.748993 
L 725.069916 244.748993 
L 725.069916 244.906214 
L 726.164679 244.906214 
L 726.164679 244.64418 
L 727.259441 244.64418 
L 727.259441 244.853807 
L 728.354204 244.853807 
L 728.354204 245.11584 
L 734.922779 245.220654 
L 734.922779 244.95862 
L 736.017541 244.95862 
L 736.017541 245.27306 
L 738.207066 245.27306 
L 738.207066 244.748993 
L 739.301829 244.748993 
L 739.301829 245.27306 
L 740.396592 245.27306 
L 740.396592 244.95862 
L 741.491354 244.95862 
L 741.491354 244.748993 
L 742.586117 244.748993 
L 742.586117 245.011027 
L 743.680879 245.011027 
L 743.680879 245.220654 
L 744.775642 245.220654 
L 744.775642 244.906214 
L 745.870404 244.906214 
L 745.870404 245.168247 
L 749.154692 245.27306 
L 749.154692 245.377874 
L 751.344217 245.27306 
L 751.344217 245.220654 
L 753.533742 245.168247 
L 753.533742 245.377874 
L 754.628504 245.377874 
L 754.628504 244.64418 
L 755.723267 244.64418 
L 755.723267 245.168247 
L 757.912792 245.27306 
L 757.912792 245.43028 
L 760.102317 245.535094 
L 760.102317 245.220654 
L 761.19708 245.220654 
L 761.19708 245.5875 
L 762.291842 245.5875 
L 762.291842 245.011027 
L 763.386605 245.011027 
L 763.386605 245.325467 
L 764.481367 245.325467 
L 764.481367 245.482687 
L 765.57613 245.482687 
L 765.57613 245.325467 
L 771.049942 245.325467 
L 771.049942 245.639907 
L 776.523755 245.639907 
L 776.523755 245.377874 
L 779.808043 245.43028 
L 779.808043 245.5875 
L 780.902805 245.5875 
L 780.902805 245.168247 
L 781.997568 245.168247 
L 781.997568 245.535094 
L 783.09233 245.535094 
L 783.09233 245.27306 
L 784.187093 245.27306 
L 784.187093 245.639907 
L 791.85043 245.5875 
L 791.85043 245.377874 
L 792.945193 245.377874 
L 792.945193 245.639907 
L 794.039956 245.639907 
L 794.039956 245.377874 
L 799.513768 245.325467 
L 799.513768 245.5875 
L 802.798056 245.5875 
L 802.798056 245.325467 
L 803.892818 245.325467 
L 803.892818 245.692314 
L 806.082343 245.5875 
L 806.082343 245.43028 
L 807.177106 245.43028 
L 807.177106 245.639907 
L 823.598544 245.74472 
L 823.598544 245.797127 
L 824.693306 245.797127 
L 824.693306 245.639907 
L 825.788069 245.639907 
L 825.788069 245.797127 
L 826.882831 245.797127 
L 826.882831 245.639907 
L 832.356644 245.639907 
L 832.356644 245.797127 
L 833.451407 245.797127 
L 833.451407 245.639907 
L 848.778082 245.74472 
L 848.778082 245.74472 
" clip-path="url(#p45564d8c1b)" style="fill: none; stroke: #1f77b4; stroke-width: 1.5; stroke-linecap: square"/>
   </g>
   <g id="patch_8">
    <path d="M 503.927885 257.158895 
L 503.927885 7.2 
" style="fill: none; stroke: #000000; stroke-width: 0.8; stroke-linejoin: miter; stroke-linecap: square"/>
   </g>
   <g id="patch_9">
    <path d="M 865.19952 257.158895 
L 865.19952 7.2 
" style="fill: none; stroke: #000000; stroke-width: 0.8; stroke-linejoin: miter; stroke-linecap: square"/>
   </g>
   <g id="patch_10">
    <path d="M 503.927885 257.158895 
L 865.19952 257.158895 
" style="fill: none; stroke: #000000; stroke-width: 0.8; stroke-linejoin: miter; stroke-linecap: square"/>
   </g>
   <g id="patch_11">
    <path d="M 503.927885 7.2 
L 865.19952 7.2 
" style="fill: none; stroke: #000000; stroke-width: 0.8; stroke-linejoin: miter; stroke-linecap: square"/>
   </g>
  </g>
 </g>
 <defs>
  <clipPath id="p0fc039becf">
   <rect x="53.328125" y="7.2" width="361.271635" height="249.958895"/>
  </clipPath>
  <clipPath id="p45564d8c1b">
   <rect x="503.927885" y="7.2" width="361.271635" height="249.958895"/>
  </clipPath>
 </defs>
</svg>
