<?xml version="1.0" encoding="utf-8" standalone="no"?>
<!DOCTYPE svg PUBLIC "-//W3C//DTD SVG 1.1//EN"
  "http://www.w3.org/Graphics/SVG/1.1/DTD/svg11.dtd">
<svg xmlns:xlink="http://www.w3.org/1999/xlink" width="401.690625pt" height="266.51625pt" viewBox="0 0 401.690625 266.51625" xmlns="http://www.w3.org/2000/svg" version="1.1">
 <metadata>
  <rdf:RDF xmlns:dc="http://purl.org/dc/elements/1.1/" xmlns:cc="http://creativecommons.org/ns#" xmlns:rdf="http://www.w3.org/1999/02/22-rdf-syntax-ns#">
   <cc:Work>
    <dc:type rdf:resource="http://purl.org/dc/dcmitype/StillImage"/>
    <dc:date>2025-05-07T16:07:11.997444</dc:date>
    <dc:format>image/svg+xml</dc:format>
    <dc:creator>
     <cc:Agent>
      <dc:title>Matplotlib v3.10.1, https://matplotlib.org/</dc:title>
     </cc:Agent>
    </dc:creator>
   </cc:Work>
  </rdf:RDF>
 </metadata>
 <defs>
  <style type="text/css">*{stroke-linejoin: round; stroke-linecap: butt}</style>
 </defs>
 <g id="figure_1">
  <g id="patch_1">
   <path d="M 0 266.51625 
L 401.690625 266.51625 
L 401.690625 0 
L 0 0 
z
" style="fill: #ffffff"/>
  </g>
  <g id="axes_1">
   <g id="patch_2">
    <path d="M 59.690625 228.96 
L 394.490625 228.96 
L 394.490625 7.2 
L 59.690625 7.2 
z
" style="fill: #ffffff"/>
   </g>
   <g id="matplotlib.axis_1">
    <g id="xtick_1">
     <g id="line2d_1">
      <defs>
       <path id="m9af0bf0777" d="M 0 0 
L 0 3.5 
" style="stroke: #000000; stroke-width: 0.8"/>
      </defs>
      <g>
       <use xlink:href="#m9af0bf0777" x="82.638388" y="228.96" style="stroke: #000000; stroke-width: 0.8"/>
      </g>
     </g>
     <g id="text_1">
      <!-- 20000 -->
      <g transform="translate(66.732138 243.558437) scale(0.1 -0.1)">
       <defs>
        <path id="DejaVuSans-32" d="M 1228 531 
L 3431 531 
L 3431 0 
L 469 0 
L 469 531 
Q 828 903 1448 1529 
Q 2069 2156 2228 2338 
Q 2531 2678 2651 2914 
Q 2772 3150 2772 3378 
Q 2772 3750 2511 3984 
Q 2250 4219 1831 4219 
Q 1534 4219 1204 4116 
Q 875 4013 500 3803 
L 500 4441 
Q 881 4594 1212 4672 
Q 1544 4750 1819 4750 
Q 2544 4750 2975 4387 
Q 3406 4025 3406 3419 
Q 3406 3131 3298 2873 
Q 3191 2616 2906 2266 
Q 2828 2175 2409 1742 
Q 1991 1309 1228 531 
z
" transform="scale(0.015625)"/>
        <path id="DejaVuSans-30" d="M 2034 4250 
Q 1547 4250 1301 3770 
Q 1056 3291 1056 2328 
Q 1056 1369 1301 889 
Q 1547 409 2034 409 
Q 2525 409 2770 889 
Q 3016 1369 3016 2328 
Q 3016 3291 2770 3770 
Q 2525 4250 2034 4250 
z
M 2034 4750 
Q 2819 4750 3233 4129 
Q 3647 3509 3647 2328 
Q 3647 1150 3233 529 
Q 2819 -91 2034 -91 
Q 1250 -91 836 529 
Q 422 1150 422 2328 
Q 422 3509 836 4129 
Q 1250 4750 2034 4750 
z
" transform="scale(0.015625)"/>
       </defs>
       <use xlink:href="#DejaVuSans-32"/>
       <use xlink:href="#DejaVuSans-30" transform="translate(63.623047 0)"/>
       <use xlink:href="#DejaVuSans-30" transform="translate(127.246094 0)"/>
       <use xlink:href="#DejaVuSans-30" transform="translate(190.869141 0)"/>
       <use xlink:href="#DejaVuSans-30" transform="translate(254.492188 0)"/>
      </g>
     </g>
    </g>
    <g id="xtick_2">
     <g id="line2d_2">
      <g>
       <use xlink:href="#m9af0bf0777" x="122.951453" y="228.96" style="stroke: #000000; stroke-width: 0.8"/>
      </g>
     </g>
     <g id="text_2">
      <!-- 40000 -->
      <g transform="translate(107.045203 243.558437) scale(0.1 -0.1)">
       <defs>
        <path id="DejaVuSans-34" d="M 2419 4116 
L 825 1625 
L 2419 1625 
L 2419 4116 
z
M 2253 4666 
L 3047 4666 
L 3047 1625 
L 3713 1625 
L 3713 1100 
L 3047 1100 
L 3047 0 
L 2419 0 
L 2419 1100 
L 313 1100 
L 313 1709 
L 2253 4666 
z
" transform="scale(0.015625)"/>
       </defs>
       <use xlink:href="#DejaVuSans-34"/>
       <use xlink:href="#DejaVuSans-30" transform="translate(63.623047 0)"/>
       <use xlink:href="#DejaVuSans-30" transform="translate(127.246094 0)"/>
       <use xlink:href="#DejaVuSans-30" transform="translate(190.869141 0)"/>
       <use xlink:href="#DejaVuSans-30" transform="translate(254.492188 0)"/>
      </g>
     </g>
    </g>
    <g id="xtick_3">
     <g id="line2d_3">
      <g>
       <use xlink:href="#m9af0bf0777" x="163.264517" y="228.96" style="stroke: #000000; stroke-width: 0.8"/>
      </g>
     </g>
     <g id="text_3">
      <!-- 60000 -->
      <g transform="translate(147.358267 243.558437) scale(0.1 -0.1)">
       <defs>
        <path id="DejaVuSans-36" d="M 2113 2584 
Q 1688 2584 1439 2293 
Q 1191 2003 1191 1497 
Q 1191 994 1439 701 
Q 1688 409 2113 409 
Q 2538 409 2786 701 
Q 3034 994 3034 1497 
Q 3034 2003 2786 2293 
Q 2538 2584 2113 2584 
z
M 3366 4563 
L 3366 3988 
Q 3128 4100 2886 4159 
Q 2644 4219 2406 4219 
Q 1781 4219 1451 3797 
Q 1122 3375 1075 2522 
Q 1259 2794 1537 2939 
Q 1816 3084 2150 3084 
Q 2853 3084 3261 2657 
Q 3669 2231 3669 1497 
Q 3669 778 3244 343 
Q 2819 -91 2113 -91 
Q 1303 -91 875 529 
Q 447 1150 447 2328 
Q 447 3434 972 4092 
Q 1497 4750 2381 4750 
Q 2619 4750 2861 4703 
Q 3103 4656 3366 4563 
z
" transform="scale(0.015625)"/>
       </defs>
       <use xlink:href="#DejaVuSans-36"/>
       <use xlink:href="#DejaVuSans-30" transform="translate(63.623047 0)"/>
       <use xlink:href="#DejaVuSans-30" transform="translate(127.246094 0)"/>
       <use xlink:href="#DejaVuSans-30" transform="translate(190.869141 0)"/>
       <use xlink:href="#DejaVuSans-30" transform="translate(254.492188 0)"/>
      </g>
     </g>
    </g>
    <g id="xtick_4">
     <g id="line2d_4">
      <g>
       <use xlink:href="#m9af0bf0777" x="203.577582" y="228.96" style="stroke: #000000; stroke-width: 0.8"/>
      </g>
     </g>
     <g id="text_4">
      <!-- 80000 -->
      <g transform="translate(187.671332 243.558437) scale(0.1 -0.1)">
       <defs>
        <path id="DejaVuSans-38" d="M 2034 2216 
Q 1584 2216 1326 1975 
Q 1069 1734 1069 1313 
Q 1069 891 1326 650 
Q 1584 409 2034 409 
Q 2484 409 2743 651 
Q 3003 894 3003 1313 
Q 3003 1734 2745 1975 
Q 2488 2216 2034 2216 
z
M 1403 2484 
Q 997 2584 770 2862 
Q 544 3141 544 3541 
Q 544 4100 942 4425 
Q 1341 4750 2034 4750 
Q 2731 4750 3128 4425 
Q 3525 4100 3525 3541 
Q 3525 3141 3298 2862 
Q 3072 2584 2669 2484 
Q 3125 2378 3379 2068 
Q 3634 1759 3634 1313 
Q 3634 634 3220 271 
Q 2806 -91 2034 -91 
Q 1263 -91 848 271 
Q 434 634 434 1313 
Q 434 1759 690 2068 
Q 947 2378 1403 2484 
z
M 1172 3481 
Q 1172 3119 1398 2916 
Q 1625 2713 2034 2713 
Q 2441 2713 2670 2916 
Q 2900 3119 2900 3481 
Q 2900 3844 2670 4047 
Q 2441 4250 2034 4250 
Q 1625 4250 1398 4047 
Q 1172 3844 1172 3481 
z
" transform="scale(0.015625)"/>
       </defs>
       <use xlink:href="#DejaVuSans-38"/>
       <use xlink:href="#DejaVuSans-30" transform="translate(63.623047 0)"/>
       <use xlink:href="#DejaVuSans-30" transform="translate(127.246094 0)"/>
       <use xlink:href="#DejaVuSans-30" transform="translate(190.869141 0)"/>
       <use xlink:href="#DejaVuSans-30" transform="translate(254.492188 0)"/>
      </g>
     </g>
    </g>
    <g id="xtick_5">
     <g id="line2d_5">
      <g>
       <use xlink:href="#m9af0bf0777" x="243.890646" y="228.96" style="stroke: #000000; stroke-width: 0.8"/>
      </g>
     </g>
     <g id="text_5">
      <!-- 100000 -->
      <g transform="translate(224.803146 243.558437) scale(0.1 -0.1)">
       <defs>
        <path id="DejaVuSans-31" d="M 794 531 
L 1825 531 
L 1825 4091 
L 703 3866 
L 703 4441 
L 1819 4666 
L 2450 4666 
L 2450 531 
L 3481 531 
L 3481 0 
L 794 0 
L 794 531 
z
" transform="scale(0.015625)"/>
       </defs>
       <use xlink:href="#DejaVuSans-31"/>
       <use xlink:href="#DejaVuSans-30" transform="translate(63.623047 0)"/>
       <use xlink:href="#DejaVuSans-30" transform="translate(127.246094 0)"/>
       <use xlink:href="#DejaVuSans-30" transform="translate(190.869141 0)"/>
       <use xlink:href="#DejaVuSans-30" transform="translate(254.492188 0)"/>
       <use xlink:href="#DejaVuSans-30" transform="translate(318.115234 0)"/>
      </g>
     </g>
    </g>
    <g id="xtick_6">
     <g id="line2d_6">
      <g>
       <use xlink:href="#m9af0bf0777" x="284.20371" y="228.96" style="stroke: #000000; stroke-width: 0.8"/>
      </g>
     </g>
     <g id="text_6">
      <!-- 120000 -->
      <g transform="translate(265.11621 243.558437) scale(0.1 -0.1)">
       <use xlink:href="#DejaVuSans-31"/>
       <use xlink:href="#DejaVuSans-32" transform="translate(63.623047 0)"/>
       <use xlink:href="#DejaVuSans-30" transform="translate(127.246094 0)"/>
       <use xlink:href="#DejaVuSans-30" transform="translate(190.869141 0)"/>
       <use xlink:href="#DejaVuSans-30" transform="translate(254.492188 0)"/>
       <use xlink:href="#DejaVuSans-30" transform="translate(318.115234 0)"/>
      </g>
     </g>
    </g>
    <g id="xtick_7">
     <g id="line2d_7">
      <g>
       <use xlink:href="#m9af0bf0777" x="324.516775" y="228.96" style="stroke: #000000; stroke-width: 0.8"/>
      </g>
     </g>
     <g id="text_7">
      <!-- 140000 -->
      <g transform="translate(305.429275 243.558437) scale(0.1 -0.1)">
       <use xlink:href="#DejaVuSans-31"/>
       <use xlink:href="#DejaVuSans-34" transform="translate(63.623047 0)"/>
       <use xlink:href="#DejaVuSans-30" transform="translate(127.246094 0)"/>
       <use xlink:href="#DejaVuSans-30" transform="translate(190.869141 0)"/>
       <use xlink:href="#DejaVuSans-30" transform="translate(254.492188 0)"/>
       <use xlink:href="#DejaVuSans-30" transform="translate(318.115234 0)"/>
      </g>
     </g>
    </g>
    <g id="xtick_8">
     <g id="line2d_8">
      <g>
       <use xlink:href="#m9af0bf0777" x="364.829839" y="228.96" style="stroke: #000000; stroke-width: 0.8"/>
      </g>
     </g>
     <g id="text_8">
      <!-- 160000 -->
      <g transform="translate(345.742339 243.558437) scale(0.1 -0.1)">
       <use xlink:href="#DejaVuSans-31"/>
       <use xlink:href="#DejaVuSans-36" transform="translate(63.623047 0)"/>
       <use xlink:href="#DejaVuSans-30" transform="translate(127.246094 0)"/>
       <use xlink:href="#DejaVuSans-30" transform="translate(190.869141 0)"/>
       <use xlink:href="#DejaVuSans-30" transform="translate(254.492188 0)"/>
       <use xlink:href="#DejaVuSans-30" transform="translate(318.115234 0)"/>
      </g>
     </g>
    </g>
    <g id="text_9">
     <!-- tof [µs] -->
     <g transform="translate(209.034375 257.236562) scale(0.1 -0.1)">
      <defs>
       <path id="DejaVuSans-74" d="M 1172 4494 
L 1172 3500 
L 2356 3500 
L 2356 3053 
L 1172 3053 
L 1172 1153 
Q 1172 725 1289 603 
Q 1406 481 1766 481 
L 2356 481 
L 2356 0 
L 1766 0 
Q 1100 0 847 248 
Q 594 497 594 1153 
L 594 3053 
L 172 3053 
L 172 3500 
L 594 3500 
L 594 4494 
L 1172 4494 
z
" transform="scale(0.015625)"/>
       <path id="DejaVuSans-6f" d="M 1959 3097 
Q 1497 3097 1228 2736 
Q 959 2375 959 1747 
Q 959 1119 1226 758 
Q 1494 397 1959 397 
Q 2419 397 2687 759 
Q 2956 1122 2956 1747 
Q 2956 2369 2687 2733 
Q 2419 3097 1959 3097 
z
M 1959 3584 
Q 2709 3584 3137 3096 
Q 3566 2609 3566 1747 
Q 3566 888 3137 398 
Q 2709 -91 1959 -91 
Q 1206 -91 779 398 
Q 353 888 353 1747 
Q 353 2609 779 3096 
Q 1206 3584 1959 3584 
z
" transform="scale(0.015625)"/>
       <path id="DejaVuSans-66" d="M 2375 4863 
L 2375 4384 
L 1825 4384 
Q 1516 4384 1395 4259 
Q 1275 4134 1275 3809 
L 1275 3500 
L 2222 3500 
L 2222 3053 
L 1275 3053 
L 1275 0 
L 697 0 
L 697 3053 
L 147 3053 
L 147 3500 
L 697 3500 
L 697 3744 
Q 697 4328 969 4595 
Q 1241 4863 1831 4863 
L 2375 4863 
z
" transform="scale(0.015625)"/>
       <path id="DejaVuSans-20" transform="scale(0.015625)"/>
       <path id="DejaVuSans-5b" d="M 550 4863 
L 1875 4863 
L 1875 4416 
L 1125 4416 
L 1125 -397 
L 1875 -397 
L 1875 -844 
L 550 -844 
L 550 4863 
z
" transform="scale(0.015625)"/>
       <path id="DejaVuSans-b5" d="M 544 -1331 
L 544 3500 
L 1119 3500 
L 1119 1325 
Q 1119 872 1334 640 
Q 1550 409 1972 409 
Q 2434 409 2667 671 
Q 2900 934 2900 1459 
L 2900 3500 
L 3475 3500 
L 3475 806 
Q 3475 619 3529 530 
Q 3584 441 3700 441 
Q 3728 441 3778 458 
Q 3828 475 3916 513 
L 3916 50 
Q 3788 -22 3673 -56 
Q 3559 -91 3450 -91 
Q 3234 -91 3106 31 
Q 2978 153 2931 403 
Q 2775 156 2548 32 
Q 2322 -91 2016 -91 
Q 1697 -91 1473 31 
Q 1250 153 1119 397 
L 1119 -1331 
L 544 -1331 
z
" transform="scale(0.015625)"/>
       <path id="DejaVuSans-73" d="M 2834 3397 
L 2834 2853 
Q 2591 2978 2328 3040 
Q 2066 3103 1784 3103 
Q 1356 3103 1142 2972 
Q 928 2841 928 2578 
Q 928 2378 1081 2264 
Q 1234 2150 1697 2047 
L 1894 2003 
Q 2506 1872 2764 1633 
Q 3022 1394 3022 966 
Q 3022 478 2636 193 
Q 2250 -91 1575 -91 
Q 1294 -91 989 -36 
Q 684 19 347 128 
L 347 722 
Q 666 556 975 473 
Q 1284 391 1588 391 
Q 1994 391 2212 530 
Q 2431 669 2431 922 
Q 2431 1156 2273 1281 
Q 2116 1406 1581 1522 
L 1381 1569 
Q 847 1681 609 1914 
Q 372 2147 372 2553 
Q 372 3047 722 3315 
Q 1072 3584 1716 3584 
Q 2034 3584 2315 3537 
Q 2597 3491 2834 3397 
z
" transform="scale(0.015625)"/>
       <path id="DejaVuSans-5d" d="M 1947 4863 
L 1947 -844 
L 622 -844 
L 622 -397 
L 1369 -397 
L 1369 4416 
L 622 4416 
L 622 4863 
L 1947 4863 
z
" transform="scale(0.015625)"/>
      </defs>
      <use xlink:href="#DejaVuSans-74"/>
      <use xlink:href="#DejaVuSans-6f" transform="translate(39.208984 0)"/>
      <use xlink:href="#DejaVuSans-66" transform="translate(100.390625 0)"/>
      <use xlink:href="#DejaVuSans-20" transform="translate(135.595703 0)"/>
      <use xlink:href="#DejaVuSans-5b" transform="translate(167.382812 0)"/>
      <use xlink:href="#DejaVuSans-b5" transform="translate(206.396484 0)"/>
      <use xlink:href="#DejaVuSans-73" transform="translate(270.019531 0)"/>
      <use xlink:href="#DejaVuSans-5d" transform="translate(322.119141 0)"/>
     </g>
    </g>
   </g>
   <g id="matplotlib.axis_2">
    <g id="ytick_1">
     <g id="line2d_9">
      <defs>
       <path id="m5c021b6533" d="M 0 0 
L -3.5 0 
" style="stroke: #000000; stroke-width: 0.8"/>
      </defs>
      <g>
       <use xlink:href="#m5c021b6533" x="59.690625" y="218.88" style="stroke: #000000; stroke-width: 0.8"/>
      </g>
     </g>
     <g id="text_10">
      <!-- 0 -->
      <g transform="translate(46.328125 222.679219) scale(0.1 -0.1)">
       <use xlink:href="#DejaVuSans-30"/>
      </g>
     </g>
    </g>
    <g id="ytick_2">
     <g id="line2d_10">
      <g>
       <use xlink:href="#m5c021b6533" x="59.690625" y="186.12348" style="stroke: #000000; stroke-width: 0.8"/>
      </g>
     </g>
     <g id="text_11">
      <!-- 2000 -->
      <g transform="translate(27.240625 189.922699) scale(0.1 -0.1)">
       <use xlink:href="#DejaVuSans-32"/>
       <use xlink:href="#DejaVuSans-30" transform="translate(63.623047 0)"/>
       <use xlink:href="#DejaVuSans-30" transform="translate(127.246094 0)"/>
       <use xlink:href="#DejaVuSans-30" transform="translate(190.869141 0)"/>
      </g>
     </g>
    </g>
    <g id="ytick_3">
     <g id="line2d_11">
      <g>
       <use xlink:href="#m5c021b6533" x="59.690625" y="153.366961" style="stroke: #000000; stroke-width: 0.8"/>
      </g>
     </g>
     <g id="text_12">
      <!-- 4000 -->
      <g transform="translate(27.240625 157.16618) scale(0.1 -0.1)">
       <use xlink:href="#DejaVuSans-34"/>
       <use xlink:href="#DejaVuSans-30" transform="translate(63.623047 0)"/>
       <use xlink:href="#DejaVuSans-30" transform="translate(127.246094 0)"/>
       <use xlink:href="#DejaVuSans-30" transform="translate(190.869141 0)"/>
      </g>
     </g>
    </g>
    <g id="ytick_4">
     <g id="line2d_12">
      <g>
       <use xlink:href="#m5c021b6533" x="59.690625" y="120.610441" style="stroke: #000000; stroke-width: 0.8"/>
      </g>
     </g>
     <g id="text_13">
      <!-- 6000 -->
      <g transform="translate(27.240625 124.40966) scale(0.1 -0.1)">
       <use xlink:href="#DejaVuSans-36"/>
       <use xlink:href="#DejaVuSans-30" transform="translate(63.623047 0)"/>
       <use xlink:href="#DejaVuSans-30" transform="translate(127.246094 0)"/>
       <use xlink:href="#DejaVuSans-30" transform="translate(190.869141 0)"/>
      </g>
     </g>
    </g>
    <g id="ytick_5">
     <g id="line2d_13">
      <g>
       <use xlink:href="#m5c021b6533" x="59.690625" y="87.853922" style="stroke: #000000; stroke-width: 0.8"/>
      </g>
     </g>
     <g id="text_14">
      <!-- 8000 -->
      <g transform="translate(27.240625 91.65314) scale(0.1 -0.1)">
       <use xlink:href="#DejaVuSans-38"/>
       <use xlink:href="#DejaVuSans-30" transform="translate(63.623047 0)"/>
       <use xlink:href="#DejaVuSans-30" transform="translate(127.246094 0)"/>
       <use xlink:href="#DejaVuSans-30" transform="translate(190.869141 0)"/>
      </g>
     </g>
    </g>
    <g id="ytick_6">
     <g id="line2d_14">
      <g>
       <use xlink:href="#m5c021b6533" x="59.690625" y="55.097402" style="stroke: #000000; stroke-width: 0.8"/>
      </g>
     </g>
     <g id="text_15">
      <!-- 10000 -->
      <g transform="translate(20.878125 58.896621) scale(0.1 -0.1)">
       <use xlink:href="#DejaVuSans-31"/>
       <use xlink:href="#DejaVuSans-30" transform="translate(63.623047 0)"/>
       <use xlink:href="#DejaVuSans-30" transform="translate(127.246094 0)"/>
       <use xlink:href="#DejaVuSans-30" transform="translate(190.869141 0)"/>
       <use xlink:href="#DejaVuSans-30" transform="translate(254.492188 0)"/>
      </g>
     </g>
    </g>
    <g id="ytick_7">
     <g id="line2d_15">
      <g>
       <use xlink:href="#m5c021b6533" x="59.690625" y="22.340882" style="stroke: #000000; stroke-width: 0.8"/>
      </g>
     </g>
     <g id="text_16">
      <!-- 12000 -->
      <g transform="translate(20.878125 26.140101) scale(0.1 -0.1)">
       <use xlink:href="#DejaVuSans-31"/>
       <use xlink:href="#DejaVuSans-32" transform="translate(63.623047 0)"/>
       <use xlink:href="#DejaVuSans-30" transform="translate(127.246094 0)"/>
       <use xlink:href="#DejaVuSans-30" transform="translate(190.869141 0)"/>
       <use xlink:href="#DejaVuSans-30" transform="translate(254.492188 0)"/>
      </g>
     </g>
    </g>
    <g id="text_17">
     <!-- [counts] -->
     <g transform="translate(14.798438 138.6925) rotate(-90) scale(0.1 -0.1)">
      <defs>
       <path id="DejaVuSans-63" d="M 3122 3366 
L 3122 2828 
Q 2878 2963 2633 3030 
Q 2388 3097 2138 3097 
Q 1578 3097 1268 2742 
Q 959 2388 959 1747 
Q 959 1106 1268 751 
Q 1578 397 2138 397 
Q 2388 397 2633 464 
Q 2878 531 3122 666 
L 3122 134 
Q 2881 22 2623 -34 
Q 2366 -91 2075 -91 
Q 1284 -91 818 406 
Q 353 903 353 1747 
Q 353 2603 823 3093 
Q 1294 3584 2113 3584 
Q 2378 3584 2631 3529 
Q 2884 3475 3122 3366 
z
" transform="scale(0.015625)"/>
       <path id="DejaVuSans-75" d="M 544 1381 
L 544 3500 
L 1119 3500 
L 1119 1403 
Q 1119 906 1312 657 
Q 1506 409 1894 409 
Q 2359 409 2629 706 
Q 2900 1003 2900 1516 
L 2900 3500 
L 3475 3500 
L 3475 0 
L 2900 0 
L 2900 538 
Q 2691 219 2414 64 
Q 2138 -91 1772 -91 
Q 1169 -91 856 284 
Q 544 659 544 1381 
z
M 1991 3584 
L 1991 3584 
z
" transform="scale(0.015625)"/>
       <path id="DejaVuSans-6e" d="M 3513 2113 
L 3513 0 
L 2938 0 
L 2938 2094 
Q 2938 2591 2744 2837 
Q 2550 3084 2163 3084 
Q 1697 3084 1428 2787 
Q 1159 2491 1159 1978 
L 1159 0 
L 581 0 
L 581 3500 
L 1159 3500 
L 1159 2956 
Q 1366 3272 1645 3428 
Q 1925 3584 2291 3584 
Q 2894 3584 3203 3211 
Q 3513 2838 3513 2113 
z
" transform="scale(0.015625)"/>
      </defs>
      <use xlink:href="#DejaVuSans-5b"/>
      <use xlink:href="#DejaVuSans-63" transform="translate(39.013672 0)"/>
      <use xlink:href="#DejaVuSans-6f" transform="translate(93.994141 0)"/>
      <use xlink:href="#DejaVuSans-75" transform="translate(155.175781 0)"/>
      <use xlink:href="#DejaVuSans-6e" transform="translate(218.554688 0)"/>
      <use xlink:href="#DejaVuSans-74" transform="translate(281.933594 0)"/>
      <use xlink:href="#DejaVuSans-73" transform="translate(321.142578 0)"/>
      <use xlink:href="#DejaVuSans-5d" transform="translate(373.242188 0)"/>
     </g>
    </g>
   </g>
   <g id="line2d_16">
    <path d="M 74.908807 218.830865 
L 79.94794 218.748974 
L 79.94794 218.716217 
L 81.963593 218.650704 
L 81.963593 218.568813 
L 83.979246 218.585191 
L 83.979246 218.355896 
L 85.9949 218.257626 
L 85.9949 217.979196 
L 87.002726 217.979196 
L 87.002726 218.208491 
L 88.010553 218.208491 
L 88.010553 217.815413 
L 89.018379 217.815413 
L 89.018379 218.077465 
L 90.026206 218.077465 
L 90.026206 217.274931 
L 91.034033 217.274931 
L 91.034033 216.750826 
L 93.049686 216.701691 
L 93.049686 216.062939 
L 94.057512 216.062939 
L 94.057512 214.949218 
L 95.065339 214.949218 
L 95.065339 215.407809 
L 96.073166 215.407809 
L 96.073166 213.524309 
L 97.080992 213.524309 
L 97.080992 213.32777 
L 98.088819 213.32777 
L 98.088819 211.214974 
L 99.096645 211.214974 
L 99.096645 209.462501 
L 100.104472 209.462501 
L 100.104472 205.61361 
L 101.112299 205.61361 
L 101.112299 204.958479 
L 102.120125 204.958479 
L 102.120125 199.848462 
L 103.127952 199.848462 
L 103.127952 196.048706 
L 104.135779 196.048706 
L 104.135779 190.709393 
L 105.143605 190.709393 
L 105.143605 184.027063 
L 106.151432 184.027063 
L 106.151432 176.968033 
L 107.159258 176.968033 
L 107.159258 173.266546 
L 108.167085 173.266546 
L 108.167085 164.782608 
L 109.174912 164.782608 
L 109.174912 155.643539 
L 110.182738 155.643539 
L 110.182738 151.467083 
L 111.190565 151.467083 
L 111.190565 139.134253 
L 112.198391 139.134253 
L 112.198391 132.566571 
L 113.206218 132.566571 
L 113.206218 125.098084 
L 114.214045 125.098084 
L 114.214045 111.635155 
L 115.221871 111.635155 
L 115.221871 102.725381 
L 116.229698 102.725381 
L 116.229698 93.242369 
L 117.237524 93.242369 
L 117.237524 89.606395 
L 118.245351 89.606395 
L 118.245351 69.952484 
L 119.253178 69.952484 
L 119.253178 60.436715 
L 120.261004 60.436715 
L 120.261004 59.781584 
L 121.268831 59.781584 
L 121.268831 46.416924 
L 122.276658 46.416924 
L 122.276658 45.679903 
L 123.284484 45.679903 
L 123.284484 42.191333 
L 124.292311 42.191333 
L 124.292311 40.700912 
L 125.300137 40.700912 
L 125.300137 27.336252 
L 126.307964 27.336252 
L 126.307964 33.805664 
L 127.315791 33.805664 
L 127.315791 31.643734 
L 128.323617 31.643734 
L 128.323617 27.123334 
L 129.331444 27.123334 
L 129.331444 25.567399 
L 130.33927 25.567399 
L 130.33927 29.809369 
L 131.347097 29.809369 
L 131.347097 28.10603 
L 132.354924 28.10603 
L 132.354924 26.189773 
L 133.36275 26.189773 
L 133.36275 17.28 
L 134.370577 17.28 
L 134.370577 32.970373 
L 135.378403 32.970373 
L 135.378403 22.357261 
L 136.38623 22.357261 
L 136.38623 24.306273 
L 137.394057 24.306273 
L 137.394057 26.97593 
L 138.401883 26.97593 
L 138.401883 25.043295 
L 139.40971 25.043295 
L 139.40971 24.519191 
L 140.417536 24.519191 
L 140.417536 41.945659 
L 141.425363 41.945659 
L 141.425363 28.777538 
L 142.43319 28.777538 
L 142.43319 21.669374 
L 143.441016 21.669374 
L 143.441016 31.348925 
L 144.448843 31.348925 
L 144.448843 35.328842 
L 145.45667 35.328842 
L 145.45667 41.208638 
L 146.464496 41.208638 
L 146.464496 45.778172 
L 147.472323 45.778172 
L 147.472323 51.199376 
L 148.480149 51.199376 
L 148.480149 55.834424 
L 149.487976 55.834424 
L 149.487976 60.616875 
L 150.495803 60.616875 
L 150.495803 62.631401 
L 151.503629 62.631401 
L 151.503629 69.674053 
L 152.511456 69.674053 
L 152.511456 71.311879 
L 153.519282 71.311879 
L 153.519282 63.908906 
L 154.527109 63.908906 
L 154.527109 76.356383 
L 155.534936 76.356383 
L 155.534936 85.9868 
L 156.542762 85.9868 
L 156.542762 85.282535 
L 157.550589 85.282535 
L 157.550589 91.06406 
L 158.558415 91.06406 
L 158.558415 87.886678 
L 159.566242 87.886678 
L 159.566242 94.814682 
L 160.574069 94.814682 
L 160.574069 99.777295 
L 161.581895 99.777295 
L 161.581895 101.51339 
L 162.589722 101.51339 
L 162.589722 101.791821 
L 163.597549 101.791821 
L 163.597549 109.587872 
L 164.605375 109.587872 
L 164.605375 109.931816 
L 165.613202 109.931816 
L 165.613202 106.115681 
L 166.621028 106.115681 
L 166.621028 115.058211 
L 167.628855 115.058211 
L 167.628855 117.089115 
L 168.636682 117.089115 
L 168.636682 120.15185 
L 169.644508 120.15185 
L 169.644508 123.476637 
L 170.652335 123.476637 
L 170.652335 123.82058 
L 171.660161 123.82058 
L 171.660161 120.250119 
L 172.667988 120.250119 
L 172.667988 125.311002 
L 173.675815 125.311002 
L 173.675815 133.467375 
L 174.683641 133.467375 
L 174.683641 127.423797 
L 175.691468 127.423797 
L 175.691468 143.86757 
L 176.699294 143.86757 
L 176.699294 135.334497 
L 177.707121 135.334497 
L 177.707121 136.382705 
L 178.714948 136.382705 
L 178.714948 131.829549 
L 179.722774 131.829549 
L 179.722774 144.129622 
L 180.730601 144.129622 
L 180.730601 146.88117 
L 181.738428 146.88117 
L 181.738428 143.392601 
L 182.746254 143.392601 
L 182.746254 143.818435 
L 183.754081 143.818435 
L 183.754081 150.811952 
L 184.761907 150.811952 
L 184.761907 148.993965 
L 185.769734 148.993965 
L 185.769734 148.469861 
L 186.777561 148.469861 
L 186.777561 152.662696 
L 187.785387 152.662696 
L 187.785387 153.5635 
L 188.793214 153.5635 
L 188.793214 158.951947 
L 189.80104 158.951947 
L 189.80104 156.282291 
L 190.808867 156.282291 
L 190.808867 157.88736 
L 191.816694 157.88736 
L 191.816694 164.94639 
L 192.82452 164.94639 
L 192.82452 161.670738 
L 193.832347 161.670738 
L 193.832347 162.637056 
L 194.840173 162.637056 
L 194.840173 162.293112 
L 195.848 162.293112 
L 195.848 167.190212 
L 196.855827 167.190212 
L 196.855827 166.895403 
L 197.863653 166.895403 
L 197.863653 170.040029 
L 198.87148 170.040029 
L 198.87148 172.152825 
L 199.879307 172.152825 
L 199.879307 173.51222 
L 200.887133 173.51222 
L 200.887133 175.264694 
L 202.902786 175.330207 
L 202.902786 178.589481 
L 203.910613 178.589481 
L 203.910613 180.653142 
L 204.91844 180.653142 
L 204.91844 180.341955 
L 205.926266 180.341955 
L 205.926266 186.565693 
L 206.934093 186.565693 
L 206.934093 184.829598 
L 207.941919 184.829598 
L 207.941919 187.744928 
L 208.949746 187.744928 
L 208.949746 189.824967 
L 209.957573 189.824967 
L 209.957573 190.561989 
L 210.965399 190.561989 
L 210.965399 192.740297 
L 211.973226 192.740297 
L 211.973226 193.919532 
L 212.981052 193.919532 
L 212.981052 195.000497 
L 213.988879 195.000497 
L 213.988879 196.736593 
L 214.996706 196.736593 
L 214.996706 196.441784 
L 216.004532 196.441784 
L 216.004532 199.062306 
L 217.012359 199.062306 
L 217.012359 199.471762 
L 218.020186 199.471762 
L 218.020186 200.667375 
L 219.028012 200.667375 
L 219.028012 204.172323 
L 220.035839 204.172323 
L 220.035839 203.63184 
L 221.043665 203.63184 
L 221.043665 204.630914 
L 222.051492 204.630914 
L 222.051492 205.744636 
L 223.059319 205.744636 
L 223.059319 206.023066 
L 224.067145 206.023066 
L 224.067145 207.873809 
L 225.074972 207.873809 
L 225.074972 208.578075 
L 226.082798 208.578075 
L 226.082798 209.609905 
L 228.098452 209.593527 
L 228.098452 211.100327 
L 230.114105 211.051192 
L 230.114105 212.0994 
L 231.121931 212.0994 
L 231.121931 213.458796 
L 233.137585 213.524309 
L 233.137585 214.719922 
L 234.145411 214.719922 
L 234.145411 214.883705 
L 235.153238 214.883705 
L 235.153238 215.456944 
L 237.168891 215.538835 
L 237.168891 216.357748 
L 238.176718 216.357748 
L 238.176718 216.914609 
L 239.184544 216.914609 
L 239.184544 217.176661 
L 240.192371 217.176661 
L 240.192371 217.831791 
L 242.208024 217.880926 
L 242.208024 218.519678 
L 243.215851 218.519678 
L 243.215851 218.667083 
L 244.223677 218.667083 
L 244.223677 218.88 
L 379.272443 218.88 
L 379.272443 218.88 
" clip-path="url(#p3b326784c7)" style="fill: none; stroke: #1f77b4; stroke-width: 1.5; stroke-linecap: square"/>
   </g>
   <g id="line2d_17">
    <path d="M 74.908807 218.88 
L 105.143605 218.798109 
L 105.143605 218.732596 
L 113.206218 218.667083 
L 113.206218 218.421409 
L 116.229698 218.437787 
L 116.229698 218.290383 
L 117.237524 218.290383 
L 117.237524 218.5033 
L 118.245351 218.5033 
L 118.245351 218.274004 
L 119.253178 218.274004 
L 119.253178 218.388652 
L 121.268831 218.372274 
L 121.268831 218.110222 
L 122.276658 218.110222 
L 122.276658 217.897304 
L 123.284484 217.897304 
L 123.284484 217.717144 
L 124.292311 217.717144 
L 124.292311 217.405957 
L 125.300137 217.405957 
L 125.300137 217.602496 
L 127.315791 217.520604 
L 127.315791 217.160283 
L 128.323617 217.160283 
L 128.323617 216.783583 
L 129.331444 216.783583 
L 129.331444 216.488774 
L 130.33927 216.488774 
L 130.33927 217.045635 
L 131.347097 217.045635 
L 131.347097 215.948291 
L 133.36275 216.013805 
L 133.36275 215.424187 
L 134.370577 215.424187 
L 134.370577 214.949218 
L 135.378403 214.949218 
L 135.378403 214.670787 
L 136.38623 214.670787 
L 136.38623 213.32777 
L 137.394057 213.32777 
L 137.394057 212.345074 
L 138.401883 212.345074 
L 138.401883 212.803666 
L 139.40971 212.803666 
L 139.40971 211.427892 
L 140.417536 211.427892 
L 140.417536 209.790066 
L 141.425363 209.790066 
L 141.425363 208.856505 
L 142.43319 208.856505 
L 142.43319 208.332401 
L 143.441016 208.332401 
L 143.441016 205.466205 
L 144.448843 205.466205 
L 144.448843 203.828379 
L 145.45667 203.828379 
L 145.45667 203.042223 
L 146.464496 203.042223 
L 146.464496 198.914901 
L 147.472323 198.914901 
L 147.472323 198.374419 
L 148.480149 198.374419 
L 148.480149 194.361745 
L 149.487976 194.361745 
L 149.487976 193.919532 
L 150.495803 193.919532 
L 150.495803 190.64388 
L 151.503629 190.64388 
L 151.503629 190.430963 
L 152.511456 190.430963 
L 152.511456 185.206298 
L 153.519282 185.206298 
L 153.519282 182.995233 
L 154.527109 182.995233 
L 154.527109 180.407468 
L 155.534936 180.407468 
L 155.534936 178.851533 
L 156.542762 178.851533 
L 156.542762 176.034472 
L 157.550589 176.034472 
L 157.550589 169.335764 
L 158.558415 169.335764 
L 158.558415 166.371299 
L 160.574069 166.45319 
L 160.574069 163.947317 
L 161.581895 163.947317 
L 161.581895 158.165791 
L 162.589722 158.165791 
L 162.589722 152.8101 
L 163.597549 152.8101 
L 163.597549 151.696378 
L 164.605375 151.696378 
L 164.605375 147.847487 
L 165.613202 147.847487 
L 165.613202 144.227892 
L 166.621028 144.227892 
L 166.621028 142.639201 
L 167.628855 142.639201 
L 167.628855 138.855823 
L 168.636682 138.855823 
L 168.636682 127.997036 
L 169.644508 127.997036 
L 169.644508 132.468301 
L 170.652335 132.468301 
L 170.652335 127.079854 
L 171.660161 127.079854 
L 171.660161 121.625893 
L 172.667988 121.625893 
L 172.667988 119.218289 
L 173.675815 119.218289 
L 173.675815 119.349315 
L 174.683641 119.349315 
L 174.683641 115.582315 
L 175.691468 115.582315 
L 175.691468 113.289359 
L 176.699294 113.289359 
L 176.699294 114.059137 
L 177.707121 114.059137 
L 177.707121 115.893502 
L 178.714948 115.893502 
L 178.714948 111.323968 
L 179.722774 111.323968 
L 179.722774 108.899985 
L 180.730601 108.899985 
L 180.730601 107.491455 
L 181.738428 107.491455 
L 181.738428 105.345903 
L 182.746254 105.345903 
L 182.746254 103.331377 
L 183.754081 103.331377 
L 183.754081 108.113829 
L 184.761907 108.113829 
L 184.761907 110.161111 
L 185.769734 110.161111 
L 185.769734 101.906468 
L 186.777561 101.906468 
L 186.777561 100.727234 
L 187.785387 100.727234 
L 187.785387 105.313146 
L 188.793214 105.313146 
L 188.793214 101.284095 
L 189.80104 101.284095 
L 189.80104 104.232181 
L 190.808867 104.232181 
L 190.808867 110.046464 
L 191.816694 110.046464 
L 191.816694 98.843734 
L 192.82452 98.843734 
L 192.82452 98.270495 
L 193.832347 98.270495 
L 193.832347 111.012781 
L 194.840173 111.012781 
L 194.840173 102.545221 
L 195.848 102.545221 
L 195.848 101.120312 
L 196.855827 101.120312 
L 196.855827 97.386069 
L 197.863653 97.386069 
L 197.863653 107.196646 
L 198.87148 107.196646 
L 198.87148 105.591577 
L 199.879307 105.591577 
L 199.879307 99.449729 
L 200.887133 99.449729 
L 200.887133 104.690773 
L 202.902786 104.756286 
L 202.902786 100.579829 
L 203.910613 100.579829 
L 203.910613 106.377733 
L 204.91844 106.377733 
L 204.91844 105.984655 
L 205.926266 105.984655 
L 205.926266 102.856408 
L 206.934093 102.856408 
L 206.934093 107.769885 
L 207.941919 107.769885 
L 207.941919 105.100229 
L 208.949746 105.100229 
L 208.949746 108.899985 
L 209.957573 108.899985 
L 209.957573 107.229403 
L 210.965399 107.229403 
L 210.965399 107.900912 
L 211.973226 107.900912 
L 211.973226 109.162038 
L 212.981052 109.162038 
L 212.981052 101.251338 
L 213.988879 101.251338 
L 213.988879 109.309442 
L 214.996706 109.309442 
L 214.996706 119.414828 
L 216.004532 119.414828 
L 216.004532 117.285654 
L 217.012359 117.285654 
L 217.012359 121.429354 
L 218.020186 121.429354 
L 218.020186 117.351167 
L 219.028012 117.351167 
L 219.028012 111.798937 
L 220.035839 111.798937 
L 220.035839 118.595915 
L 221.043665 118.595915 
L 221.043665 127.096232 
L 222.051492 127.096232 
L 222.051492 122.985289 
L 223.059319 122.985289 
L 223.059319 130.830475 
L 224.067145 130.830475 
L 224.067145 130.027941 
L 225.074972 130.027941 
L 225.074972 122.346537 
L 226.082798 122.346537 
L 226.082798 130.617558 
L 227.090625 130.617558 
L 227.090625 130.093454 
L 228.098452 130.093454 
L 228.098452 131.829549 
L 229.106278 131.829549 
L 229.106278 138.331718 
L 230.114105 138.331718 
L 230.114105 129.602106 
L 231.121931 129.602106 
L 231.121931 134.859527 
L 232.129758 134.859527 
L 232.129758 135.318118 
L 233.137585 135.318118 
L 233.137585 142.098718 
L 234.145411 142.098718 
L 234.145411 140.346244 
L 235.153238 140.346244 
L 235.153238 135.645684 
L 236.161064 135.645684 
L 236.161064 141.525479 
L 237.168891 141.525479 
L 237.168891 144.948535 
L 238.176718 144.948535 
L 238.176718 147.25787 
L 239.184544 147.25787 
L 239.184544 144.227892 
L 240.192371 144.227892 
L 240.192371 145.09594 
L 241.200198 145.09594 
L 241.200198 146.7829 
L 242.208024 146.7829 
L 242.208024 151.745513 
L 243.215851 151.745513 
L 243.215851 149.059478 
L 244.223677 149.059478 
L 244.223677 155.545269 
L 245.231504 155.545269 
L 245.231504 149.223261 
L 246.239331 149.223261 
L 246.239331 147.044952 
L 247.247157 147.044952 
L 247.247157 156.921043 
L 248.254984 156.921043 
L 248.254984 152.269617 
L 249.26281 152.269617 
L 249.26281 157.3305 
L 250.270637 157.3305 
L 250.270637 158.182169 
L 251.278464 158.182169 
L 251.278464 156.790017 
L 252.28629 156.790017 
L 252.28629 157.60893 
L 253.294117 157.60893 
L 253.294117 155.938348 
L 254.301943 155.938348 
L 254.301943 165.192064 
L 255.30977 165.192064 
L 255.30977 159.39416 
L 256.317597 159.39416 
L 256.317597 158.526113 
L 257.325423 158.526113 
L 257.325423 163.53786 
L 258.33325 163.53786 
L 258.33325 158.64076 
L 259.341077 158.64076 
L 259.341077 166.469569 
L 260.348903 166.469569 
L 260.348903 165.093795 
L 261.35673 165.093795 
L 261.35673 160.704421 
L 262.364556 160.704421 
L 262.364556 165.732547 
L 263.372383 165.732547 
L 263.372383 169.434034 
L 264.38021 169.434034 
L 264.38021 173.348438 
L 265.388036 173.348438 
L 265.388036 166.158382 
L 266.395863 166.158382 
L 266.395863 169.106468 
L 267.403689 169.106468 
L 267.403689 167.714316 
L 268.411516 167.714316 
L 268.411516 170.154677 
L 269.419343 170.154677 
L 269.419343 168.451338 
L 270.427169 168.451338 
L 270.427169 171.989042 
L 271.434996 171.989042 
L 271.434996 175.264694 
L 272.442822 175.264694 
L 272.442822 173.970812 
L 273.450649 173.970812 
L 273.450649 171.432181 
L 274.458476 171.432181 
L 274.458476 173.708759 
L 276.474129 173.692381 
L 276.474129 174.64232 
L 277.481956 174.64232 
L 277.481956 177.852459 
L 278.489782 177.852459 
L 278.489782 172.234716 
L 279.497609 172.234716 
L 279.497609 176.362038 
L 280.505435 176.362038 
L 280.505435 180.440224 
L 281.513262 180.440224 
L 281.513262 178.442077 
L 282.521089 178.442077 
L 282.521089 179.490285 
L 284.536742 179.44115 
L 284.536742 178.736885 
L 285.544568 178.736885 
L 285.544568 185.320946 
L 286.552395 185.320946 
L 286.552395 179.26099 
L 287.560222 179.26099 
L 287.560222 180.94795 
L 288.568048 180.94795 
L 288.568048 179.801472 
L 289.575875 179.801472 
L 289.575875 185.779537 
L 290.583701 185.779537 
L 290.583701 181.832376 
L 291.591528 181.832376 
L 291.591528 182.487507 
L 292.599355 182.487507 
L 292.599355 187.695793 
L 293.607181 187.695793 
L 293.607181 183.191772 
L 294.615008 183.191772 
L 294.615008 183.601228 
L 295.622835 183.601228 
L 295.622835 184.158089 
L 296.630661 184.158089 
L 296.630661 187.220824 
L 297.638488 187.220824 
L 297.638488 189.743076 
L 298.646314 189.743076 
L 298.646314 188.973298 
L 299.654141 188.973298 
L 299.654141 183.633985 
L 300.661968 183.633985 
L 300.661968 188.956919 
L 301.669794 188.956919 
L 301.669794 189.071567 
L 302.677621 189.071567 
L 302.677621 191.380902 
L 303.685447 191.380902 
L 303.685447 190.136154 
L 304.693274 190.136154 
L 304.693274 189.759454 
L 305.701101 189.759454 
L 305.701101 195.147902 
L 306.708927 195.147902 
L 306.708927 190.676637 
L 307.716754 190.676637 
L 307.716754 193.952289 
L 308.72458 193.952289 
L 308.72458 192.265328 
L 309.732407 192.265328 
L 309.732407 193.673858 
L 310.740234 193.673858 
L 310.740234 196.818484 
L 311.74806 196.818484 
L 311.74806 195.049632 
L 312.755887 195.049632 
L 312.755887 195.91768 
L 313.763714 195.91768 
L 313.763714 196.982267 
L 314.77154 196.982267 
L 314.77154 198.620093 
L 315.779367 198.620093 
L 315.779367 197.997719 
L 316.787193 197.997719 
L 316.787193 199.095062 
L 317.79502 199.095062 
L 317.79502 197.752045 
L 318.802847 197.752045 
L 318.802847 202.60001 
L 319.810673 202.60001 
L 319.810673 200.601862 
L 320.8185 200.601862 
L 320.8185 199.86484 
L 321.826326 199.86484 
L 321.826326 202.436227 
L 322.834153 202.436227 
L 322.834153 200.962184 
L 323.84198 200.962184 
L 323.84198 204.057675 
L 324.849806 204.057675 
L 324.849806 202.370714 
L 325.857633 202.370714 
L 325.857633 204.811075 
L 326.865459 204.811075 
L 326.865459 204.368862 
L 327.873286 204.368862 
L 327.873286 205.99031 
L 328.881113 205.99031 
L 328.881113 204.041297 
L 329.888939 204.041297 
L 329.888939 205.384314 
L 330.896766 205.384314 
L 330.896766 206.465279 
L 331.904592 206.465279 
L 331.904592 207.071275 
L 332.912419 207.071275 
L 332.912419 206.891114 
L 333.920246 206.891114 
L 333.920246 206.776466 
L 334.928072 206.776466 
L 334.928072 207.39884 
L 335.935899 207.39884 
L 335.935899 208.43067 
L 336.943726 208.43067 
L 336.943726 209.331475 
L 337.951552 209.331475 
L 337.951552 211.018435 
L 338.959379 211.018435 
L 338.959379 210.756383 
L 339.967205 210.756383 
L 339.967205 208.872883 
L 340.975032 208.872883 
L 340.975032 210.379683 
L 341.982859 210.379683 
L 341.982859 211.133083 
L 342.990685 211.133083 
L 342.990685 210.527087 
L 343.998512 210.527087 
L 343.998512 211.7227 
L 345.006338 211.7227 
L 345.006338 211.870105 
L 346.014165 211.870105 
L 346.014165 212.345074 
L 347.021992 212.345074 
L 347.021992 212.705396 
L 349.037645 212.738153 
L 349.037645 213.213122 
L 351.053298 213.131231 
L 351.053298 213.9829 
L 352.061125 213.9829 
L 352.061125 213.737226 
L 353.068951 213.737226 
L 353.068951 214.408735 
L 354.076778 214.408735 
L 354.076778 213.868252 
L 355.084605 213.868252 
L 355.084605 214.621652 
L 356.092431 214.621652 
L 356.092431 215.178513 
L 357.100258 215.178513 
L 357.100258 215.58797 
L 360.123738 215.604348 
L 360.123738 216.013805 
L 361.131564 216.013805 
L 361.131564 216.472396 
L 362.139391 216.472396 
L 362.139391 216.2431 
L 363.147217 216.2431 
L 363.147217 217.045635 
L 364.155044 217.045635 
L 364.155044 216.488774 
L 365.162871 216.488774 
L 365.162871 217.062013 
L 367.178524 217.029257 
L 367.178524 217.242174 
L 368.18635 217.242174 
L 368.18635 217.602496 
L 370.202004 217.635252 
L 370.202004 217.7499 
L 371.20983 217.7499 
L 371.20983 218.142978 
L 373.225484 218.093844 
L 373.225484 218.388652 
L 374.23331 218.388652 
L 374.23331 218.208491 
L 375.241137 218.208491 
L 375.241137 218.552435 
L 376.248963 218.552435 
L 376.248963 218.699839 
L 378.264617 218.683461 
L 378.264617 218.847243 
L 379.272443 218.847243 
L 379.272443 218.847243 
" clip-path="url(#p3b326784c7)" style="fill: none; stroke: #ff7f0e; stroke-width: 1.5; stroke-linecap: square"/>
   </g>
   <g id="patch_3">
    <path d="M 59.690625 228.96 
L 59.690625 7.2 
" style="fill: none; stroke: #000000; stroke-width: 0.8; stroke-linejoin: miter; stroke-linecap: square"/>
   </g>
   <g id="patch_4">
    <path d="M 394.490625 228.96 
L 394.490625 7.2 
" style="fill: none; stroke: #000000; stroke-width: 0.8; stroke-linejoin: miter; stroke-linecap: square"/>
   </g>
   <g id="patch_5">
    <path d="M 59.690625 228.96 
L 394.490625 228.96 
" style="fill: none; stroke: #000000; stroke-width: 0.8; stroke-linejoin: miter; stroke-linecap: square"/>
   </g>
   <g id="patch_6">
    <path d="M 59.690625 7.2 
L 394.490625 7.2 
" style="fill: none; stroke: #000000; stroke-width: 0.8; stroke-linejoin: miter; stroke-linecap: square"/>
   </g>
   <g id="legend_1">
    <g id="patch_7">
     <path d="M 313.267188 44.55625 
L 387.490625 44.55625 
Q 389.490625 44.55625 389.490625 42.55625 
L 389.490625 14.2 
Q 389.490625 12.2 387.490625 12.2 
L 313.267188 12.2 
Q 311.267188 12.2 311.267188 14.2 
L 311.267188 42.55625 
Q 311.267188 44.55625 313.267188 44.55625 
z
" style="fill: #ffffff; opacity: 0.8; stroke: #cccccc; stroke-linejoin: miter"/>
    </g>
    <g id="line2d_18">
     <path d="M 315.267188 20.298437 
L 315.267188 20.298437 
L 325.267188 20.298437 
L 325.267188 20.298437 
L 335.267188 20.298437 
" style="fill: none; stroke: #1f77b4; stroke-width: 1.5; stroke-linecap: square"/>
    </g>
    <g id="text_18">
     <!-- monitor -->
     <g transform="translate(343.267188 23.798437) scale(0.1 -0.1)">
      <defs>
       <path id="DejaVuSans-6d" d="M 3328 2828 
Q 3544 3216 3844 3400 
Q 4144 3584 4550 3584 
Q 5097 3584 5394 3201 
Q 5691 2819 5691 2113 
L 5691 0 
L 5113 0 
L 5113 2094 
Q 5113 2597 4934 2840 
Q 4756 3084 4391 3084 
Q 3944 3084 3684 2787 
Q 3425 2491 3425 1978 
L 3425 0 
L 2847 0 
L 2847 2094 
Q 2847 2600 2669 2842 
Q 2491 3084 2119 3084 
Q 1678 3084 1418 2786 
Q 1159 2488 1159 1978 
L 1159 0 
L 581 0 
L 581 3500 
L 1159 3500 
L 1159 2956 
Q 1356 3278 1631 3431 
Q 1906 3584 2284 3584 
Q 2666 3584 2933 3390 
Q 3200 3197 3328 2828 
z
" transform="scale(0.015625)"/>
       <path id="DejaVuSans-69" d="M 603 3500 
L 1178 3500 
L 1178 0 
L 603 0 
L 603 3500 
z
M 603 4863 
L 1178 4863 
L 1178 4134 
L 603 4134 
L 603 4863 
z
" transform="scale(0.015625)"/>
       <path id="DejaVuSans-72" d="M 2631 2963 
Q 2534 3019 2420 3045 
Q 2306 3072 2169 3072 
Q 1681 3072 1420 2755 
Q 1159 2438 1159 1844 
L 1159 0 
L 581 0 
L 581 3500 
L 1159 3500 
L 1159 2956 
Q 1341 3275 1631 3429 
Q 1922 3584 2338 3584 
Q 2397 3584 2469 3576 
Q 2541 3569 2628 3553 
L 2631 2963 
z
" transform="scale(0.015625)"/>
      </defs>
      <use xlink:href="#DejaVuSans-6d"/>
      <use xlink:href="#DejaVuSans-6f" transform="translate(97.412109 0)"/>
      <use xlink:href="#DejaVuSans-6e" transform="translate(158.59375 0)"/>
      <use xlink:href="#DejaVuSans-69" transform="translate(221.972656 0)"/>
      <use xlink:href="#DejaVuSans-74" transform="translate(249.755859 0)"/>
      <use xlink:href="#DejaVuSans-6f" transform="translate(288.964844 0)"/>
      <use xlink:href="#DejaVuSans-72" transform="translate(350.146484 0)"/>
     </g>
    </g>
    <g id="line2d_19">
     <path d="M 315.267188 34.976562 
L 315.267188 34.976562 
L 325.267188 34.976562 
L 325.267188 34.976562 
L 335.267188 34.976562 
" style="fill: none; stroke: #ff7f0e; stroke-width: 1.5; stroke-linecap: square"/>
    </g>
    <g id="text_19">
     <!-- detector -->
     <g transform="translate(343.267188 38.476562) scale(0.1 -0.1)">
      <defs>
       <path id="DejaVuSans-64" d="M 2906 2969 
L 2906 4863 
L 3481 4863 
L 3481 0 
L 2906 0 
L 2906 525 
Q 2725 213 2448 61 
Q 2172 -91 1784 -91 
Q 1150 -91 751 415 
Q 353 922 353 1747 
Q 353 2572 751 3078 
Q 1150 3584 1784 3584 
Q 2172 3584 2448 3432 
Q 2725 3281 2906 2969 
z
M 947 1747 
Q 947 1113 1208 752 
Q 1469 391 1925 391 
Q 2381 391 2643 752 
Q 2906 1113 2906 1747 
Q 2906 2381 2643 2742 
Q 2381 3103 1925 3103 
Q 1469 3103 1208 2742 
Q 947 2381 947 1747 
z
" transform="scale(0.015625)"/>
       <path id="DejaVuSans-65" d="M 3597 1894 
L 3597 1613 
L 953 1613 
Q 991 1019 1311 708 
Q 1631 397 2203 397 
Q 2534 397 2845 478 
Q 3156 559 3463 722 
L 3463 178 
Q 3153 47 2828 -22 
Q 2503 -91 2169 -91 
Q 1331 -91 842 396 
Q 353 884 353 1716 
Q 353 2575 817 3079 
Q 1281 3584 2069 3584 
Q 2775 3584 3186 3129 
Q 3597 2675 3597 1894 
z
M 3022 2063 
Q 3016 2534 2758 2815 
Q 2500 3097 2075 3097 
Q 1594 3097 1305 2825 
Q 1016 2553 972 2059 
L 3022 2063 
z
" transform="scale(0.015625)"/>
      </defs>
      <use xlink:href="#DejaVuSans-64"/>
      <use xlink:href="#DejaVuSans-65" transform="translate(63.476562 0)"/>
      <use xlink:href="#DejaVuSans-74" transform="translate(125 0)"/>
      <use xlink:href="#DejaVuSans-65" transform="translate(164.208984 0)"/>
      <use xlink:href="#DejaVuSans-63" transform="translate(225.732422 0)"/>
      <use xlink:href="#DejaVuSans-74" transform="translate(280.712891 0)"/>
      <use xlink:href="#DejaVuSans-6f" transform="translate(319.921875 0)"/>
      <use xlink:href="#DejaVuSans-72" transform="translate(381.103516 0)"/>
     </g>
    </g>
   </g>
  </g>
 </g>
 <defs>
  <clipPath id="p3b326784c7">
   <rect x="59.690625" y="7.2" width="334.8" height="221.76"/>
  </clipPath>
 </defs>
</svg>
