<?xml version="1.0" encoding="utf-8" standalone="no"?>
<!DOCTYPE svg PUBLIC "-//W3C//DTD SVG 1.1//EN"
  "http://www.w3.org/Graphics/SVG/1.1/DTD/svg11.dtd">
<svg xmlns:xlink="http://www.w3.org/1999/xlink" width="395.328125pt" height="266.51625pt" viewBox="0 0 395.328125 266.51625" xmlns="http://www.w3.org/2000/svg" version="1.1">
 <metadata>
  <rdf:RDF xmlns:dc="http://purl.org/dc/elements/1.1/" xmlns:cc="http://creativecommons.org/ns#" xmlns:rdf="http://www.w3.org/1999/02/22-rdf-syntax-ns#">
   <cc:Work>
    <dc:type rdf:resource="http://purl.org/dc/dcmitype/StillImage"/>
    <dc:date>2025-04-10T08:51:27.185291</dc:date>
    <dc:format>image/svg+xml</dc:format>
    <dc:creator>
     <cc:Agent>
      <dc:title>Matplotlib v3.10.1, https://matplotlib.org/</dc:title>
     </cc:Agent>
    </dc:creator>
   </cc:Work>
  </rdf:RDF>
 </metadata>
 <defs>
  <style type="text/css">*{stroke-linejoin: round; stroke-linecap: butt}</style>
 </defs>
 <g id="figure_1">
  <g id="patch_1">
   <path d="M 0 266.51625 
L 395.328125 266.51625 
L 395.328125 0 
L 0 0 
z
" style="fill: #ffffff"/>
  </g>
  <g id="axes_1">
   <g id="patch_2">
    <path d="M 53.328125 228.96 
L 388.128125 228.96 
L 388.128125 7.2 
L 53.328125 7.2 
z
" style="fill: #ffffff"/>
   </g>
   <g id="matplotlib.axis_1">
    <g id="xtick_1">
     <g id="line2d_1">
      <defs>
       <path id="m8bcee1ee79" d="M 0 0 
L 0 3.5 
" style="stroke: #000000; stroke-width: 0.8"/>
      </defs>
      <g>
       <use xlink:href="#m8bcee1ee79" x="109.965082" y="228.96" style="stroke: #000000; stroke-width: 0.8"/>
      </g>
     </g>
     <g id="text_1">
      <!-- 20000 -->
      <g transform="translate(94.058832 243.558438) scale(0.1 -0.1)">
       <defs>
        <path id="DejaVuSans-32" d="M 1228 531 
L 3431 531 
L 3431 0 
L 469 0 
L 469 531 
Q 828 903 1448 1529 
Q 2069 2156 2228 2338 
Q 2531 2678 2651 2914 
Q 2772 3150 2772 3378 
Q 2772 3750 2511 3984 
Q 2250 4219 1831 4219 
Q 1534 4219 1204 4116 
Q 875 4013 500 3803 
L 500 4441 
Q 881 4594 1212 4672 
Q 1544 4750 1819 4750 
Q 2544 4750 2975 4387 
Q 3406 4025 3406 3419 
Q 3406 3131 3298 2873 
Q 3191 2616 2906 2266 
Q 2828 2175 2409 1742 
Q 1991 1309 1228 531 
z
" transform="scale(0.015625)"/>
        <path id="DejaVuSans-30" d="M 2034 4250 
Q 1547 4250 1301 3770 
Q 1056 3291 1056 2328 
Q 1056 1369 1301 889 
Q 1547 409 2034 409 
Q 2525 409 2770 889 
Q 3016 1369 3016 2328 
Q 3016 3291 2770 3770 
Q 2525 4250 2034 4250 
z
M 2034 4750 
Q 2819 4750 3233 4129 
Q 3647 3509 3647 2328 
Q 3647 1150 3233 529 
Q 2819 -91 2034 -91 
Q 1250 -91 836 529 
Q 422 1150 422 2328 
Q 422 3509 836 4129 
Q 1250 4750 2034 4750 
z
" transform="scale(0.015625)"/>
       </defs>
       <use xlink:href="#DejaVuSans-32"/>
       <use xlink:href="#DejaVuSans-30" transform="translate(63.623047 0)"/>
       <use xlink:href="#DejaVuSans-30" transform="translate(127.246094 0)"/>
       <use xlink:href="#DejaVuSans-30" transform="translate(190.869141 0)"/>
       <use xlink:href="#DejaVuSans-30" transform="translate(254.492188 0)"/>
      </g>
     </g>
    </g>
    <g id="xtick_2">
     <g id="line2d_2">
      <g>
       <use xlink:href="#m8bcee1ee79" x="172.446559" y="228.96" style="stroke: #000000; stroke-width: 0.8"/>
      </g>
     </g>
     <g id="text_2">
      <!-- 30000 -->
      <g transform="translate(156.540309 243.558438) scale(0.1 -0.1)">
       <defs>
        <path id="DejaVuSans-33" d="M 2597 2516 
Q 3050 2419 3304 2112 
Q 3559 1806 3559 1356 
Q 3559 666 3084 287 
Q 2609 -91 1734 -91 
Q 1441 -91 1130 -33 
Q 819 25 488 141 
L 488 750 
Q 750 597 1062 519 
Q 1375 441 1716 441 
Q 2309 441 2620 675 
Q 2931 909 2931 1356 
Q 2931 1769 2642 2001 
Q 2353 2234 1838 2234 
L 1294 2234 
L 1294 2753 
L 1863 2753 
Q 2328 2753 2575 2939 
Q 2822 3125 2822 3475 
Q 2822 3834 2567 4026 
Q 2313 4219 1838 4219 
Q 1578 4219 1281 4162 
Q 984 4106 628 3988 
L 628 4550 
Q 988 4650 1302 4700 
Q 1616 4750 1894 4750 
Q 2613 4750 3031 4423 
Q 3450 4097 3450 3541 
Q 3450 3153 3228 2886 
Q 3006 2619 2597 2516 
z
" transform="scale(0.015625)"/>
       </defs>
       <use xlink:href="#DejaVuSans-33"/>
       <use xlink:href="#DejaVuSans-30" transform="translate(63.623047 0)"/>
       <use xlink:href="#DejaVuSans-30" transform="translate(127.246094 0)"/>
       <use xlink:href="#DejaVuSans-30" transform="translate(190.869141 0)"/>
       <use xlink:href="#DejaVuSans-30" transform="translate(254.492188 0)"/>
      </g>
     </g>
    </g>
    <g id="xtick_3">
     <g id="line2d_3">
      <g>
       <use xlink:href="#m8bcee1ee79" x="234.928037" y="228.96" style="stroke: #000000; stroke-width: 0.8"/>
      </g>
     </g>
     <g id="text_3">
      <!-- 40000 -->
      <g transform="translate(219.021787 243.558438) scale(0.1 -0.1)">
       <defs>
        <path id="DejaVuSans-34" d="M 2419 4116 
L 825 1625 
L 2419 1625 
L 2419 4116 
z
M 2253 4666 
L 3047 4666 
L 3047 1625 
L 3713 1625 
L 3713 1100 
L 3047 1100 
L 3047 0 
L 2419 0 
L 2419 1100 
L 313 1100 
L 313 1709 
L 2253 4666 
z
" transform="scale(0.015625)"/>
       </defs>
       <use xlink:href="#DejaVuSans-34"/>
       <use xlink:href="#DejaVuSans-30" transform="translate(63.623047 0)"/>
       <use xlink:href="#DejaVuSans-30" transform="translate(127.246094 0)"/>
       <use xlink:href="#DejaVuSans-30" transform="translate(190.869141 0)"/>
       <use xlink:href="#DejaVuSans-30" transform="translate(254.492188 0)"/>
      </g>
     </g>
    </g>
    <g id="xtick_4">
     <g id="line2d_4">
      <g>
       <use xlink:href="#m8bcee1ee79" x="297.409514" y="228.96" style="stroke: #000000; stroke-width: 0.8"/>
      </g>
     </g>
     <g id="text_4">
      <!-- 50000 -->
      <g transform="translate(281.503264 243.558438) scale(0.1 -0.1)">
       <defs>
        <path id="DejaVuSans-35" d="M 691 4666 
L 3169 4666 
L 3169 4134 
L 1269 4134 
L 1269 2991 
Q 1406 3038 1543 3061 
Q 1681 3084 1819 3084 
Q 2600 3084 3056 2656 
Q 3513 2228 3513 1497 
Q 3513 744 3044 326 
Q 2575 -91 1722 -91 
Q 1428 -91 1123 -41 
Q 819 9 494 109 
L 494 744 
Q 775 591 1075 516 
Q 1375 441 1709 441 
Q 2250 441 2565 725 
Q 2881 1009 2881 1497 
Q 2881 1984 2565 2268 
Q 2250 2553 1709 2553 
Q 1456 2553 1204 2497 
Q 953 2441 691 2322 
L 691 4666 
z
" transform="scale(0.015625)"/>
       </defs>
       <use xlink:href="#DejaVuSans-35"/>
       <use xlink:href="#DejaVuSans-30" transform="translate(63.623047 0)"/>
       <use xlink:href="#DejaVuSans-30" transform="translate(127.246094 0)"/>
       <use xlink:href="#DejaVuSans-30" transform="translate(190.869141 0)"/>
       <use xlink:href="#DejaVuSans-30" transform="translate(254.492188 0)"/>
      </g>
     </g>
    </g>
    <g id="xtick_5">
     <g id="line2d_5">
      <g>
       <use xlink:href="#m8bcee1ee79" x="359.890991" y="228.96" style="stroke: #000000; stroke-width: 0.8"/>
      </g>
     </g>
     <g id="text_5">
      <!-- 60000 -->
      <g transform="translate(343.984741 243.558438) scale(0.1 -0.1)">
       <defs>
        <path id="DejaVuSans-36" d="M 2113 2584 
Q 1688 2584 1439 2293 
Q 1191 2003 1191 1497 
Q 1191 994 1439 701 
Q 1688 409 2113 409 
Q 2538 409 2786 701 
Q 3034 994 3034 1497 
Q 3034 2003 2786 2293 
Q 2538 2584 2113 2584 
z
M 3366 4563 
L 3366 3988 
Q 3128 4100 2886 4159 
Q 2644 4219 2406 4219 
Q 1781 4219 1451 3797 
Q 1122 3375 1075 2522 
Q 1259 2794 1537 2939 
Q 1816 3084 2150 3084 
Q 2853 3084 3261 2657 
Q 3669 2231 3669 1497 
Q 3669 778 3244 343 
Q 2819 -91 2113 -91 
Q 1303 -91 875 529 
Q 447 1150 447 2328 
Q 447 3434 972 4092 
Q 1497 4750 2381 4750 
Q 2619 4750 2861 4703 
Q 3103 4656 3366 4563 
z
" transform="scale(0.015625)"/>
       </defs>
       <use xlink:href="#DejaVuSans-36"/>
       <use xlink:href="#DejaVuSans-30" transform="translate(63.623047 0)"/>
       <use xlink:href="#DejaVuSans-30" transform="translate(127.246094 0)"/>
       <use xlink:href="#DejaVuSans-30" transform="translate(190.869141 0)"/>
       <use xlink:href="#DejaVuSans-30" transform="translate(254.492188 0)"/>
      </g>
     </g>
    </g>
    <g id="text_6">
     <!-- tof [µs] -->
     <g transform="translate(202.671875 257.236562) scale(0.1 -0.1)">
      <defs>
       <path id="DejaVuSans-74" d="M 1172 4494 
L 1172 3500 
L 2356 3500 
L 2356 3053 
L 1172 3053 
L 1172 1153 
Q 1172 725 1289 603 
Q 1406 481 1766 481 
L 2356 481 
L 2356 0 
L 1766 0 
Q 1100 0 847 248 
Q 594 497 594 1153 
L 594 3053 
L 172 3053 
L 172 3500 
L 594 3500 
L 594 4494 
L 1172 4494 
z
" transform="scale(0.015625)"/>
       <path id="DejaVuSans-6f" d="M 1959 3097 
Q 1497 3097 1228 2736 
Q 959 2375 959 1747 
Q 959 1119 1226 758 
Q 1494 397 1959 397 
Q 2419 397 2687 759 
Q 2956 1122 2956 1747 
Q 2956 2369 2687 2733 
Q 2419 3097 1959 3097 
z
M 1959 3584 
Q 2709 3584 3137 3096 
Q 3566 2609 3566 1747 
Q 3566 888 3137 398 
Q 2709 -91 1959 -91 
Q 1206 -91 779 398 
Q 353 888 353 1747 
Q 353 2609 779 3096 
Q 1206 3584 1959 3584 
z
" transform="scale(0.015625)"/>
       <path id="DejaVuSans-66" d="M 2375 4863 
L 2375 4384 
L 1825 4384 
Q 1516 4384 1395 4259 
Q 1275 4134 1275 3809 
L 1275 3500 
L 2222 3500 
L 2222 3053 
L 1275 3053 
L 1275 0 
L 697 0 
L 697 3053 
L 147 3053 
L 147 3500 
L 697 3500 
L 697 3744 
Q 697 4328 969 4595 
Q 1241 4863 1831 4863 
L 2375 4863 
z
" transform="scale(0.015625)"/>
       <path id="DejaVuSans-20" transform="scale(0.015625)"/>
       <path id="DejaVuSans-5b" d="M 550 4863 
L 1875 4863 
L 1875 4416 
L 1125 4416 
L 1125 -397 
L 1875 -397 
L 1875 -844 
L 550 -844 
L 550 4863 
z
" transform="scale(0.015625)"/>
       <path id="DejaVuSans-b5" d="M 544 -1331 
L 544 3500 
L 1119 3500 
L 1119 1325 
Q 1119 872 1334 640 
Q 1550 409 1972 409 
Q 2434 409 2667 671 
Q 2900 934 2900 1459 
L 2900 3500 
L 3475 3500 
L 3475 806 
Q 3475 619 3529 530 
Q 3584 441 3700 441 
Q 3728 441 3778 458 
Q 3828 475 3916 513 
L 3916 50 
Q 3788 -22 3673 -56 
Q 3559 -91 3450 -91 
Q 3234 -91 3106 31 
Q 2978 153 2931 403 
Q 2775 156 2548 32 
Q 2322 -91 2016 -91 
Q 1697 -91 1473 31 
Q 1250 153 1119 397 
L 1119 -1331 
L 544 -1331 
z
" transform="scale(0.015625)"/>
       <path id="DejaVuSans-73" d="M 2834 3397 
L 2834 2853 
Q 2591 2978 2328 3040 
Q 2066 3103 1784 3103 
Q 1356 3103 1142 2972 
Q 928 2841 928 2578 
Q 928 2378 1081 2264 
Q 1234 2150 1697 2047 
L 1894 2003 
Q 2506 1872 2764 1633 
Q 3022 1394 3022 966 
Q 3022 478 2636 193 
Q 2250 -91 1575 -91 
Q 1294 -91 989 -36 
Q 684 19 347 128 
L 347 722 
Q 666 556 975 473 
Q 1284 391 1588 391 
Q 1994 391 2212 530 
Q 2431 669 2431 922 
Q 2431 1156 2273 1281 
Q 2116 1406 1581 1522 
L 1381 1569 
Q 847 1681 609 1914 
Q 372 2147 372 2553 
Q 372 3047 722 3315 
Q 1072 3584 1716 3584 
Q 2034 3584 2315 3537 
Q 2597 3491 2834 3397 
z
" transform="scale(0.015625)"/>
       <path id="DejaVuSans-5d" d="M 1947 4863 
L 1947 -844 
L 622 -844 
L 622 -397 
L 1369 -397 
L 1369 4416 
L 622 4416 
L 622 4863 
L 1947 4863 
z
" transform="scale(0.015625)"/>
      </defs>
      <use xlink:href="#DejaVuSans-74"/>
      <use xlink:href="#DejaVuSans-6f" transform="translate(39.208984 0)"/>
      <use xlink:href="#DejaVuSans-66" transform="translate(100.390625 0)"/>
      <use xlink:href="#DejaVuSans-20" transform="translate(135.595703 0)"/>
      <use xlink:href="#DejaVuSans-5b" transform="translate(167.382812 0)"/>
      <use xlink:href="#DejaVuSans-b5" transform="translate(206.396484 0)"/>
      <use xlink:href="#DejaVuSans-73" transform="translate(270.019531 0)"/>
      <use xlink:href="#DejaVuSans-5d" transform="translate(322.119141 0)"/>
     </g>
    </g>
   </g>
   <g id="matplotlib.axis_2">
    <g id="ytick_1">
     <g id="line2d_6">
      <defs>
       <path id="madd27043fa" d="M 0 0 
L -3.5 0 
" style="stroke: #000000; stroke-width: 0.8"/>
      </defs>
      <g>
       <use xlink:href="#madd27043fa" x="53.328125" y="219.786253" style="stroke: #000000; stroke-width: 0.8"/>
      </g>
     </g>
     <g id="text_7">
      <!-- 0 -->
      <g transform="translate(39.965625 223.585471) scale(0.1 -0.1)">
       <use xlink:href="#DejaVuSans-30"/>
      </g>
     </g>
    </g>
    <g id="ytick_2">
     <g id="line2d_7">
      <g>
       <use xlink:href="#madd27043fa" x="53.328125" y="178.592955" style="stroke: #000000; stroke-width: 0.8"/>
      </g>
     </g>
     <g id="text_8">
      <!-- 500 -->
      <g transform="translate(27.240625 182.392173) scale(0.1 -0.1)">
       <use xlink:href="#DejaVuSans-35"/>
       <use xlink:href="#DejaVuSans-30" transform="translate(63.623047 0)"/>
       <use xlink:href="#DejaVuSans-30" transform="translate(127.246094 0)"/>
      </g>
     </g>
    </g>
    <g id="ytick_3">
     <g id="line2d_8">
      <g>
       <use xlink:href="#madd27043fa" x="53.328125" y="137.399657" style="stroke: #000000; stroke-width: 0.8"/>
      </g>
     </g>
     <g id="text_9">
      <!-- 1000 -->
      <g transform="translate(20.878125 141.198875) scale(0.1 -0.1)">
       <defs>
        <path id="DejaVuSans-31" d="M 794 531 
L 1825 531 
L 1825 4091 
L 703 3866 
L 703 4441 
L 1819 4666 
L 2450 4666 
L 2450 531 
L 3481 531 
L 3481 0 
L 794 0 
L 794 531 
z
" transform="scale(0.015625)"/>
       </defs>
       <use xlink:href="#DejaVuSans-31"/>
       <use xlink:href="#DejaVuSans-30" transform="translate(63.623047 0)"/>
       <use xlink:href="#DejaVuSans-30" transform="translate(127.246094 0)"/>
       <use xlink:href="#DejaVuSans-30" transform="translate(190.869141 0)"/>
      </g>
     </g>
    </g>
    <g id="ytick_4">
     <g id="line2d_9">
      <g>
       <use xlink:href="#madd27043fa" x="53.328125" y="96.206359" style="stroke: #000000; stroke-width: 0.8"/>
      </g>
     </g>
     <g id="text_10">
      <!-- 1500 -->
      <g transform="translate(20.878125 100.005578) scale(0.1 -0.1)">
       <use xlink:href="#DejaVuSans-31"/>
       <use xlink:href="#DejaVuSans-35" transform="translate(63.623047 0)"/>
       <use xlink:href="#DejaVuSans-30" transform="translate(127.246094 0)"/>
       <use xlink:href="#DejaVuSans-30" transform="translate(190.869141 0)"/>
      </g>
     </g>
    </g>
    <g id="ytick_5">
     <g id="line2d_10">
      <g>
       <use xlink:href="#madd27043fa" x="53.328125" y="55.013061" style="stroke: #000000; stroke-width: 0.8"/>
      </g>
     </g>
     <g id="text_11">
      <!-- 2000 -->
      <g transform="translate(20.878125 58.81228) scale(0.1 -0.1)">
       <use xlink:href="#DejaVuSans-32"/>
       <use xlink:href="#DejaVuSans-30" transform="translate(63.623047 0)"/>
       <use xlink:href="#DejaVuSans-30" transform="translate(127.246094 0)"/>
       <use xlink:href="#DejaVuSans-30" transform="translate(190.869141 0)"/>
      </g>
     </g>
    </g>
    <g id="ytick_6">
     <g id="line2d_11">
      <g>
       <use xlink:href="#madd27043fa" x="53.328125" y="13.819763" style="stroke: #000000; stroke-width: 0.8"/>
      </g>
     </g>
     <g id="text_12">
      <!-- 2500 -->
      <g transform="translate(20.878125 17.618982) scale(0.1 -0.1)">
       <use xlink:href="#DejaVuSans-32"/>
       <use xlink:href="#DejaVuSans-35" transform="translate(63.623047 0)"/>
       <use xlink:href="#DejaVuSans-30" transform="translate(127.246094 0)"/>
       <use xlink:href="#DejaVuSans-30" transform="translate(190.869141 0)"/>
      </g>
     </g>
    </g>
    <g id="text_13">
     <!-- [counts] -->
     <g transform="translate(14.798438 138.6925) rotate(-90) scale(0.1 -0.1)">
      <defs>
       <path id="DejaVuSans-63" d="M 3122 3366 
L 3122 2828 
Q 2878 2963 2633 3030 
Q 2388 3097 2138 3097 
Q 1578 3097 1268 2742 
Q 959 2388 959 1747 
Q 959 1106 1268 751 
Q 1578 397 2138 397 
Q 2388 397 2633 464 
Q 2878 531 3122 666 
L 3122 134 
Q 2881 22 2623 -34 
Q 2366 -91 2075 -91 
Q 1284 -91 818 406 
Q 353 903 353 1747 
Q 353 2603 823 3093 
Q 1294 3584 2113 3584 
Q 2378 3584 2631 3529 
Q 2884 3475 3122 3366 
z
" transform="scale(0.015625)"/>
       <path id="DejaVuSans-75" d="M 544 1381 
L 544 3500 
L 1119 3500 
L 1119 1403 
Q 1119 906 1312 657 
Q 1506 409 1894 409 
Q 2359 409 2629 706 
Q 2900 1003 2900 1516 
L 2900 3500 
L 3475 3500 
L 3475 0 
L 2900 0 
L 2900 538 
Q 2691 219 2414 64 
Q 2138 -91 1772 -91 
Q 1169 -91 856 284 
Q 544 659 544 1381 
z
M 1991 3584 
L 1991 3584 
z
" transform="scale(0.015625)"/>
       <path id="DejaVuSans-6e" d="M 3513 2113 
L 3513 0 
L 2938 0 
L 2938 2094 
Q 2938 2591 2744 2837 
Q 2550 3084 2163 3084 
Q 1697 3084 1428 2787 
Q 1159 2491 1159 1978 
L 1159 0 
L 581 0 
L 581 3500 
L 1159 3500 
L 1159 2956 
Q 1366 3272 1645 3428 
Q 1925 3584 2291 3584 
Q 2894 3584 3203 3211 
Q 3513 2838 3513 2113 
z
" transform="scale(0.015625)"/>
      </defs>
      <use xlink:href="#DejaVuSans-5b"/>
      <use xlink:href="#DejaVuSans-63" transform="translate(39.013672 0)"/>
      <use xlink:href="#DejaVuSans-6f" transform="translate(93.994141 0)"/>
      <use xlink:href="#DejaVuSans-75" transform="translate(155.175781 0)"/>
      <use xlink:href="#DejaVuSans-6e" transform="translate(218.554688 0)"/>
      <use xlink:href="#DejaVuSans-74" transform="translate(281.933594 0)"/>
      <use xlink:href="#DejaVuSans-73" transform="translate(321.142578 0)"/>
      <use xlink:href="#DejaVuSans-5d" transform="translate(373.242188 0)"/>
     </g>
    </g>
   </g>
   <g id="patch_3">
    <path d="M 53.328125 228.96 
L 53.328125 7.2 
" style="fill: none; stroke: #000000; stroke-width: 0.8; stroke-linejoin: miter; stroke-linecap: square"/>
   </g>
   <g id="patch_4">
    <path d="M 388.128125 228.96 
L 388.128125 7.2 
" style="fill: none; stroke: #000000; stroke-width: 0.8; stroke-linejoin: miter; stroke-linecap: square"/>
   </g>
   <g id="patch_5">
    <path d="M 53.328125 228.96 
L 388.128125 228.96 
" style="fill: none; stroke: #000000; stroke-width: 0.8; stroke-linejoin: miter; stroke-linecap: square"/>
   </g>
   <g id="patch_6">
    <path d="M 53.328125 7.2 
L 388.128125 7.2 
" style="fill: none; stroke: #000000; stroke-width: 0.8; stroke-linejoin: miter; stroke-linecap: square"/>
   </g>
   <g id="line2d_12">
    <path d="M 68.546307 191.692423 
L 69.560852 191.692423 
L 69.560852 147.121275 
L 70.575398 147.121275 
L 70.575398 111.695039 
L 71.589943 111.695039 
L 71.589943 102.46774 
L 72.604489 102.46774 
L 72.604489 93.075668 
L 73.619034 93.075668 
L 73.619034 91.510323 
L 74.63358 91.510323 
L 74.63358 86.567127 
L 75.648125 86.567127 
L 75.648125 91.263163 
L 76.66267 91.263163 
L 76.66267 78.575627 
L 77.677216 78.575627 
L 77.677216 80.882452 
L 78.691761 80.882452 
L 78.691761 77.339828 
L 79.706307 77.339828 
L 79.706307 64.734679 
L 80.720852 64.734679 
L 80.720852 57.896592 
L 81.735398 57.896592 
L 81.735398 55.836927 
L 82.749943 55.836927 
L 82.749943 51.058504 
L 83.764489 51.058504 
L 83.764489 50.234638 
L 84.779034 50.234638 
L 84.779034 43.149391 
L 85.79358 43.149391 
L 85.79358 36.476077 
L 86.808125 36.476077 
L 86.808125 27.907871 
L 87.82267 27.907871 
L 87.82267 22.635129 
L 88.837216 22.635129 
L 88.837216 25.189113 
L 89.851761 25.189113 
L 89.851761 22.470356 
L 90.866307 22.470356 
L 90.866307 17.856706 
L 91.880852 17.856706 
L 91.880852 20.493077 
L 92.895398 20.493077 
L 92.895398 19.339665 
L 93.909943 19.339665 
L 93.909943 17.28 
L 94.924489 17.28 
L 94.924489 25.765819 
L 95.939034 25.765819 
L 95.939034 21.64649 
L 96.95358 21.64649 
L 96.95358 26.672072 
L 97.968125 26.672072 
L 97.968125 35.487438 
L 98.98267 35.487438 
L 98.98267 33.922092 
L 99.997216 33.922092 
L 99.997216 37.629489 
L 101.011761 37.629489 
L 101.011761 37.13517 
L 102.026307 37.13517 
L 102.026307 36.476077 
L 103.040852 36.476077 
L 103.040852 39.771541 
L 104.055398 39.771541 
L 104.055398 49.822705 
L 105.069943 49.822705 
L 105.069943 69.595488 
L 106.084489 69.595488 
L 106.084489 82.035864 
L 107.099034 82.035864 
L 107.099034 86.237581 
L 108.11358 86.237581 
L 108.11358 93.075668 
L 109.128125 93.075668 
L 109.128125 99.08989 
L 110.14267 99.08989 
L 110.14267 108.070029 
L 111.157216 108.070029 
L 111.157216 112.189358 
L 112.171761 112.189358 
L 112.171761 121.169497 
L 113.186307 121.169497 
L 113.186307 131.055889 
L 114.200852 131.055889 
L 114.200852 138.553069 
L 115.215398 138.553069 
L 115.215398 139.953641 
L 116.229943 139.953641 
L 116.229943 153.876976 
L 117.244489 153.876976 
L 117.244489 157.501986 
L 118.259034 157.501986 
L 118.259034 164.66962 
L 119.27358 164.66962 
L 119.27358 167.058831 
L 120.288125 167.058831 
L 120.288125 178.675341 
L 121.30267 178.675341 
L 121.30267 184.52479 
L 122.317216 184.52479 
L 122.317216 193.587315 
L 123.331761 193.587315 
L 123.331761 183.700924 
L 124.346307 183.700924 
L 124.346307 164.092914 
L 125.360852 164.092914 
L 125.360852 150.004806 
L 126.375398 150.004806 
L 126.375398 129.902477 
L 127.389943 129.902477 
L 127.389943 98.760343 
L 128.404489 98.760343 
L 128.404489 84.425076 
L 129.419034 84.425076 
L 129.419034 85.496101 
L 130.43358 85.496101 
L 130.43358 92.004642 
L 131.448125 92.004642 
L 131.448125 90.933617 
L 132.46267 90.933617 
L 132.46267 95.135333 
L 133.477216 95.135333 
L 133.477216 99.172276 
L 134.491761 99.172276 
L 134.491761 90.356911 
L 135.506307 90.356911 
L 135.506307 98.34841 
L 136.520852 98.34841 
L 136.520852 98.84273 
L 137.535398 98.84273 
L 137.535398 103.621152 
L 139.564489 103.621152 
L 139.564489 108.481962 
L 140.579034 108.481962 
L 140.579034 110.21208 
L 141.59358 110.21208 
L 141.59358 108.317188 
L 142.608125 108.317188 
L 142.608125 106.58707 
L 143.62267 106.58707 
L 143.62267 112.106972 
L 144.637216 112.106972 
L 144.637216 108.646735 
L 145.651761 108.646735 
L 145.651761 114.001864 
L 146.666307 114.001864 
L 146.666307 114.743343 
L 147.680852 114.743343 
L 147.680852 111.859812 
L 148.695398 111.859812 
L 148.695398 117.379714 
L 149.709943 117.379714 
L 149.709943 115.731982 
L 150.724489 115.731982 
L 150.724489 115.402436 
L 151.739034 115.402436 
L 151.739034 117.462101 
L 152.75358 117.462101 
L 152.75358 121.499044 
L 153.768125 121.499044 
L 153.768125 119.604152 
L 154.78267 119.604152 
L 154.78267 122.405296 
L 155.797216 122.405296 
L 155.797216 124.959281 
L 156.811761 124.959281 
L 156.811761 126.689399 
L 157.826307 126.689399 
L 157.826307 127.595652 
L 158.840852 127.595652 
L 158.840852 129.984863 
L 159.855398 129.984863 
L 159.855398 129.32577 
L 160.869943 129.32577 
L 160.869943 130.808729 
L 161.884489 130.808729 
L 161.884489 129.32577 
L 162.899034 129.32577 
L 162.899034 130.973502 
L 163.91358 130.973502 
L 163.91358 128.419518 
L 164.928125 128.419518 
L 164.928125 132.950781 
L 165.94267 132.950781 
L 165.94267 132.126915 
L 166.957216 132.126915 
L 166.957216 138.635456 
L 167.971761 138.635456 
L 167.971761 146.874115 
L 168.986307 146.874115 
L 168.986307 151.075832 
L 170.000852 151.075832 
L 170.000852 150.334352 
L 171.015398 150.334352 
L 171.015398 155.112775 
L 172.029943 155.112775 
L 172.029943 149.757646 
L 173.044489 149.757646 
L 173.044489 155.442321 
L 174.059034 155.442321 
L 174.059034 153.712203 
L 175.07358 153.712203 
L 175.07358 162.362795 
L 176.088125 162.362795 
L 176.088125 162.527568 
L 177.10267 162.527568 
L 177.10267 155.030388 
L 178.117216 155.030388 
L 178.117216 155.854254 
L 179.131761 155.854254 
L 179.131761 147.203662 
L 180.146307 147.203662 
L 180.146307 142.507626 
L 181.160852 142.507626 
L 181.160852 136.905337 
L 182.175398 136.905337 
L 182.175398 134.351353 
L 183.189943 134.351353 
L 183.189943 126.771786 
L 184.204489 126.771786 
L 184.204489 139.294548 
L 185.219034 139.294548 
L 185.219034 143.496265 
L 186.23358 143.496265 
L 186.23358 147.038888 
L 187.248125 147.038888 
L 187.248125 145.638316 
L 188.26267 145.638316 
L 188.26267 157.17244 
L 189.277216 157.17244 
L 189.277216 157.584373 
L 190.291761 157.584373 
L 190.291761 155.524708 
L 191.306307 155.524708 
L 191.306307 155.854254 
L 192.320852 155.854254 
L 192.320852 154.288909 
L 193.335398 154.288909 
L 193.335398 158.161079 
L 194.349943 158.161079 
L 194.349943 160.385517 
L 195.364489 160.385517 
L 195.364489 158.902558 
L 196.379034 158.902558 
L 196.379034 157.749146 
L 197.39358 157.749146 
L 197.39358 164.504847 
L 198.408125 164.504847 
L 198.408125 164.752007 
L 199.42267 164.752007 
L 199.42267 159.396878 
L 200.437216 159.396878 
L 200.437216 162.033249 
L 201.451761 162.033249 
L 201.451761 163.680981 
L 202.466307 163.680981 
L 202.466307 169.612816 
L 203.480852 169.612816 
L 203.480852 166.234965 
L 204.495398 166.234965 
L 204.495398 167.470764 
L 205.509943 167.470764 
L 205.509943 174.226465 
L 206.524489 174.226465 
L 206.524489 168.459403 
L 207.539034 168.459403 
L 207.539034 174.226465 
L 208.55358 174.226465 
L 208.55358 178.345795 
L 209.568125 178.345795 
L 209.568125 177.521929 
L 210.58267 177.521929 
L 210.58267 175.709424 
L 211.597216 175.709424 
L 211.597216 182.547511 
L 212.611761 182.547511 
L 212.611761 184.112857 
L 213.626307 184.112857 
L 213.626307 183.865697 
L 214.640852 183.865697 
L 214.640852 189.385599 
L 215.655398 189.385599 
L 215.655398 194.575954 
L 216.669943 194.575954 
L 216.669943 189.797532 
L 217.684489 189.797532 
L 217.684489 195.729367 
L 218.699034 195.729367 
L 218.699034 194.575954 
L 219.71358 194.575954 
L 219.71358 193.999248 
L 220.728125 193.999248 
L 220.728125 192.186743 
L 221.74267 192.186743 
L 221.74267 195.482207 
L 222.757216 195.482207 
L 222.757216 198.860057 
L 223.771761 198.860057 
L 223.771761 196.882779 
L 224.786307 196.882779 
L 224.786307 197.953805 
L 225.800852 197.953805 
L 225.800852 194.658341 
L 226.815398 194.658341 
L 226.815398 191.033331 
L 227.829943 191.033331 
L 227.829943 191.939583 
L 228.844489 191.939583 
L 228.844489 188.067413 
L 229.859034 188.067413 
L 229.859034 188.726506 
L 230.87358 188.726506 
L 230.87358 185.348655 
L 231.888125 185.348655 
L 231.888125 183.865697 
L 232.90267 183.865697 
L 232.90267 185.266269 
L 233.917216 185.266269 
L 233.917216 186.666841 
L 234.931761 186.666841 
L 234.931761 193.340155 
L 235.946307 193.340155 
L 235.946307 192.186743 
L 236.960852 192.186743 
L 236.960852 194.823114 
L 238.989943 194.905501 
L 238.989943 196.635619 
L 240.004489 196.635619 
L 240.004489 198.695284 
L 241.019034 198.695284 
L 241.019034 197.129939 
L 242.03358 197.129939 
L 242.03358 198.777671 
L 243.048125 198.777671 
L 243.048125 200.425403 
L 244.06267 200.425403 
L 244.06267 198.695284 
L 245.077216 198.695284 
L 245.077216 201.496428 
L 246.091761 201.496428 
L 246.091761 202.897 
L 248.120852 202.979387 
L 248.120852 203.803253 
L 249.135398 203.803253 
L 249.135398 203.061774 
L 250.149943 203.061774 
L 250.149943 206.110078 
L 251.164489 206.110078 
L 251.164489 204.297573 
L 252.179034 204.297573 
L 252.179034 205.039052 
L 253.19358 205.039052 
L 253.19358 205.450985 
L 254.208125 205.450985 
L 254.208125 207.181103 
L 255.22267 207.181103 
L 255.22267 208.499289 
L 257.251761 208.416902 
L 257.251761 208.993609 
L 258.266307 208.993609 
L 258.266307 211.300433 
L 259.280852 211.300433 
L 259.280852 210.806114 
L 260.295398 210.806114 
L 260.295398 211.794753 
L 261.309943 211.794753 
L 261.309943 210.723727 
L 262.324489 210.723727 
L 262.324489 213.195325 
L 263.339034 213.195325 
L 263.339034 213.360098 
L 264.35358 213.360098 
L 264.35358 212.453846 
L 265.368125 212.453846 
L 265.368125 212.783392 
L 266.38267 212.783392 
L 266.38267 213.772031 
L 267.397216 213.772031 
L 267.397216 214.266351 
L 268.411761 214.266351 
L 268.411761 214.843057 
L 270.440852 214.843057 
L 270.440852 216.573175 
L 271.455398 216.573175 
L 271.455398 212.783392 
L 272.469943 212.783392 
L 272.469943 208.169743 
L 273.484489 208.169743 
L 273.484489 208.581676 
L 274.499034 208.581676 
L 274.499034 209.075995 
L 275.51358 209.075995 
L 275.51358 208.911222 
L 276.528125 208.911222 
L 276.528125 205.945304 
L 277.54267 205.945304 
L 277.54267 205.698145 
L 278.557216 205.698145 
L 278.557216 207.593036 
L 279.571761 207.593036 
L 279.571761 206.027691 
L 280.586307 206.027691 
L 280.586307 207.181103 
L 281.600852 207.181103 
L 281.600852 207.428263 
L 282.615398 207.428263 
L 282.615398 208.087356 
L 283.629943 208.087356 
L 283.629943 208.334516 
L 284.644489 208.334516 
L 284.644489 211.053273 
L 285.659034 211.053273 
L 285.659034 208.252129 
L 286.67358 208.252129 
L 286.67358 210.970887 
L 287.688125 210.970887 
L 287.688125 210.64134 
L 288.70267 210.64134 
L 288.70267 209.075995 
L 289.717216 209.075995 
L 289.717216 211.547593 
L 290.731761 211.547593 
L 290.731761 211.794753 
L 291.746307 211.794753 
L 291.746307 211.465206 
L 292.760852 211.465206 
L 292.760852 213.030552 
L 293.775398 213.030552 
L 293.775398 212.536232 
L 294.789943 212.536232 
L 294.789943 213.854418 
L 295.804489 213.854418 
L 295.804489 212.041913 
L 296.819034 212.041913 
L 296.819034 213.442485 
L 297.83358 213.442485 
L 297.83358 214.101577 
L 298.848125 214.101577 
L 298.848125 213.524871 
L 299.86267 213.524871 
L 299.86267 215.584536 
L 300.877216 215.584536 
L 300.877216 215.419763 
L 301.891761 215.419763 
L 301.891761 214.101577 
L 302.906307 214.101577 
L 302.906307 215.584536 
L 303.920852 215.584536 
L 303.920852 215.25499 
L 304.935398 215.25499 
L 304.935398 215.749309 
L 307.979034 215.666923 
L 307.979034 217.479428 
L 308.99358 217.479428 
L 308.99358 218.056134 
L 310.008125 218.056134 
L 310.008125 216.985108 
L 311.02267 216.985108 
L 311.02267 217.479428 
L 312.037216 217.479428 
L 312.037216 218.303294 
L 313.051761 218.303294 
L 313.051761 217.479428 
L 314.066307 217.479428 
L 314.066307 216.902722 
L 315.080852 216.902722 
L 315.080852 217.232268 
L 316.095398 217.232268 
L 316.095398 216.490789 
L 317.109943 216.490789 
L 317.109943 215.50215 
L 318.124489 215.50215 
L 318.124489 214.51351 
L 319.139034 214.51351 
L 319.139034 212.948165 
L 320.15358 212.948165 
L 320.15358 212.701005 
L 321.168125 212.701005 
L 321.168125 211.62998 
L 322.18267 211.62998 
L 322.18267 210.394181 
L 323.197216 210.394181 
L 323.197216 208.746449 
L 324.211761 208.746449 
L 324.211761 204.709506 
L 325.226307 204.709506 
L 325.226307 205.862918 
L 326.240852 205.862918 
L 326.240852 203.803253 
L 327.255398 203.803253 
L 327.255398 205.368598 
L 328.269943 205.368598 
L 328.269943 202.402681 
L 329.284489 202.402681 
L 329.284489 205.533371 
L 330.299034 205.533371 
L 330.299034 206.274851 
L 331.31358 206.274851 
L 331.31358 203.556093 
L 332.328125 203.556093 
L 332.328125 204.544732 
L 333.34267 204.544732 
L 333.34267 204.874279 
L 334.357216 204.874279 
L 334.357216 203.720866 
L 335.371761 203.720866 
L 335.371761 207.098717 
L 336.386307 207.098717 
L 336.386307 206.604397 
L 337.400852 206.604397 
L 337.400852 204.874279 
L 338.415398 204.874279 
L 338.415398 206.192464 
L 340.444489 206.110078 
L 340.444489 203.968026 
L 341.459034 203.968026 
L 341.459034 204.956665 
L 342.47358 204.956665 
L 342.47358 205.203825 
L 343.488125 205.203825 
L 343.488125 206.76917 
L 344.50267 206.76917 
L 344.50267 205.203825 
L 345.517216 205.203825 
L 345.517216 206.604397 
L 346.531761 206.604397 
L 346.531761 205.945304 
L 347.546307 205.945304 
L 347.546307 207.922583 
L 348.560852 207.922583 
L 348.560852 206.851557 
L 349.575398 206.851557 
L 349.575398 209.570315 
L 351.604489 209.487928 
L 351.604489 209.982248 
L 352.619034 209.982248 
L 352.619034 211.218047 
L 353.63358 211.218047 
L 353.63358 211.053273 
L 354.648125 211.053273 
L 354.648125 208.993609 
L 355.66267 208.993609 
L 355.66267 211.465206 
L 356.677216 211.465206 
L 356.677216 210.558954 
L 357.691761 210.558954 
L 357.691761 211.13566 
L 358.706307 211.13566 
L 358.706307 212.041913 
L 359.720852 212.041913 
L 359.720852 212.783392 
L 360.735398 212.783392 
L 360.735398 211.38282 
L 361.749943 211.38282 
L 361.749943 214.266351 
L 362.764489 214.266351 
L 362.764489 213.195325 
L 363.779034 213.195325 
L 363.779034 213.772031 
L 364.79358 213.772031 
L 364.79358 213.360098 
L 365.808125 213.360098 
L 365.808125 213.689644 
L 366.82267 213.689644 
L 366.82267 214.678284 
L 367.837216 214.678284 
L 367.837216 215.50215 
L 368.851761 215.50215 
L 368.851761 216.737949 
L 369.866307 216.737949 
L 369.866307 217.232268 
L 370.880852 217.232268 
L 370.880852 217.644201 
L 371.895398 217.644201 
L 371.895398 218.88 
L 372.909943 218.88 
L 372.909943 218.88 
" clip-path="url(#paaa5b42712)" style="fill: none; stroke: #1f77b4; stroke-width: 1.5; stroke-linecap: square"/>
   </g>
  </g>
 </g>
 <defs>
  <clipPath id="paaa5b42712">
   <rect x="53.328125" y="7.2" width="334.8" height="221.76"/>
  </clipPath>
 </defs>
</svg>
