<?xml version="1.0" encoding="utf-8" standalone="no"?>
<!DOCTYPE svg PUBLIC "-//W3C//DTD SVG 1.1//EN"
  "http://www.w3.org/Graphics/SVG/1.1/DTD/svg11.dtd">
<svg xmlns:xlink="http://www.w3.org/1999/xlink" width="399.757408pt" height="266.51625pt" viewBox="0 0 399.757408 266.51625" xmlns="http://www.w3.org/2000/svg" version="1.1">
 <metadata>
  <rdf:RDF xmlns:dc="http://purl.org/dc/elements/1.1/" xmlns:cc="http://creativecommons.org/ns#" xmlns:rdf="http://www.w3.org/1999/02/22-rdf-syntax-ns#">
   <cc:Work>
    <dc:type rdf:resource="http://purl.org/dc/dcmitype/StillImage"/>
    <dc:date>2025-11-07T09:32:59.841507</dc:date>
    <dc:format>image/svg+xml</dc:format>
    <dc:creator>
     <cc:Agent>
      <dc:title>Matplotlib v3.10.7, https://matplotlib.org/</dc:title>
     </cc:Agent>
    </dc:creator>
   </cc:Work>
  </rdf:RDF>
 </metadata>
 <defs>
  <style type="text/css">*{stroke-linejoin: round; stroke-linecap: butt}</style>
 </defs>
 <g id="figure_1">
  <g id="patch_1">
   <path d="M 0 266.51625 
L 399.757408 266.51625 
L 399.757408 0 
L 0 0 
z
" style="fill: #ffffff"/>
  </g>
  <g id="axes_1">
   <g id="patch_2">
    <path d="M 46.965625 228.96 
L 381.765625 228.96 
L 381.765625 7.2 
L 46.965625 7.2 
z
" style="fill: #ffffff"/>
   </g>
   <g id="matplotlib.axis_1">
    <g id="xtick_1">
     <g id="line2d_1">
      <defs>
       <path id="mbc2c73cf20" d="M 0 0 
L 0 3.5 
" style="stroke: #000000; stroke-width: 0.8"/>
      </defs>
      <g>
       <use xlink:href="#mbc2c73cf20" x="71.842993" y="228.96" style="stroke: #000000; stroke-width: 0.8"/>
      </g>
     </g>
     <g id="text_1">
      <!-- 20000 -->
      <g transform="translate(55.936743 243.558437) scale(0.1 -0.1)">
       <defs>
        <path id="DejaVuSans-32" d="M 1228 531 
L 3431 531 
L 3431 0 
L 469 0 
L 469 531 
Q 828 903 1448 1529 
Q 2069 2156 2228 2338 
Q 2531 2678 2651 2914 
Q 2772 3150 2772 3378 
Q 2772 3750 2511 3984 
Q 2250 4219 1831 4219 
Q 1534 4219 1204 4116 
Q 875 4013 500 3803 
L 500 4441 
Q 881 4594 1212 4672 
Q 1544 4750 1819 4750 
Q 2544 4750 2975 4387 
Q 3406 4025 3406 3419 
Q 3406 3131 3298 2873 
Q 3191 2616 2906 2266 
Q 2828 2175 2409 1742 
Q 1991 1309 1228 531 
z
" transform="scale(0.015625)"/>
        <path id="DejaVuSans-30" d="M 2034 4250 
Q 1547 4250 1301 3770 
Q 1056 3291 1056 2328 
Q 1056 1369 1301 889 
Q 1547 409 2034 409 
Q 2525 409 2770 889 
Q 3016 1369 3016 2328 
Q 3016 3291 2770 3770 
Q 2525 4250 2034 4250 
z
M 2034 4750 
Q 2819 4750 3233 4129 
Q 3647 3509 3647 2328 
Q 3647 1150 3233 529 
Q 2819 -91 2034 -91 
Q 1250 -91 836 529 
Q 422 1150 422 2328 
Q 422 3509 836 4129 
Q 1250 4750 2034 4750 
z
" transform="scale(0.015625)"/>
       </defs>
       <use xlink:href="#DejaVuSans-32"/>
       <use xlink:href="#DejaVuSans-30" transform="translate(63.623047 0)"/>
       <use xlink:href="#DejaVuSans-30" transform="translate(127.246094 0)"/>
       <use xlink:href="#DejaVuSans-30" transform="translate(190.869141 0)"/>
       <use xlink:href="#DejaVuSans-30" transform="translate(254.492188 0)"/>
      </g>
     </g>
    </g>
    <g id="xtick_2">
     <g id="line2d_2">
      <g>
       <use xlink:href="#mbc2c73cf20" x="115.387017" y="228.96" style="stroke: #000000; stroke-width: 0.8"/>
      </g>
     </g>
     <g id="text_2">
      <!-- 30000 -->
      <g transform="translate(99.480767 243.558437) scale(0.1 -0.1)">
       <defs>
        <path id="DejaVuSans-33" d="M 2597 2516 
Q 3050 2419 3304 2112 
Q 3559 1806 3559 1356 
Q 3559 666 3084 287 
Q 2609 -91 1734 -91 
Q 1441 -91 1130 -33 
Q 819 25 488 141 
L 488 750 
Q 750 597 1062 519 
Q 1375 441 1716 441 
Q 2309 441 2620 675 
Q 2931 909 2931 1356 
Q 2931 1769 2642 2001 
Q 2353 2234 1838 2234 
L 1294 2234 
L 1294 2753 
L 1863 2753 
Q 2328 2753 2575 2939 
Q 2822 3125 2822 3475 
Q 2822 3834 2567 4026 
Q 2313 4219 1838 4219 
Q 1578 4219 1281 4162 
Q 984 4106 628 3988 
L 628 4550 
Q 988 4650 1302 4700 
Q 1616 4750 1894 4750 
Q 2613 4750 3031 4423 
Q 3450 4097 3450 3541 
Q 3450 3153 3228 2886 
Q 3006 2619 2597 2516 
z
" transform="scale(0.015625)"/>
       </defs>
       <use xlink:href="#DejaVuSans-33"/>
       <use xlink:href="#DejaVuSans-30" transform="translate(63.623047 0)"/>
       <use xlink:href="#DejaVuSans-30" transform="translate(127.246094 0)"/>
       <use xlink:href="#DejaVuSans-30" transform="translate(190.869141 0)"/>
       <use xlink:href="#DejaVuSans-30" transform="translate(254.492188 0)"/>
      </g>
     </g>
    </g>
    <g id="xtick_3">
     <g id="line2d_3">
      <g>
       <use xlink:href="#mbc2c73cf20" x="158.93104" y="228.96" style="stroke: #000000; stroke-width: 0.8"/>
      </g>
     </g>
     <g id="text_3">
      <!-- 40000 -->
      <g transform="translate(143.02479 243.558437) scale(0.1 -0.1)">
       <defs>
        <path id="DejaVuSans-34" d="M 2419 4116 
L 825 1625 
L 2419 1625 
L 2419 4116 
z
M 2253 4666 
L 3047 4666 
L 3047 1625 
L 3713 1625 
L 3713 1100 
L 3047 1100 
L 3047 0 
L 2419 0 
L 2419 1100 
L 313 1100 
L 313 1709 
L 2253 4666 
z
" transform="scale(0.015625)"/>
       </defs>
       <use xlink:href="#DejaVuSans-34"/>
       <use xlink:href="#DejaVuSans-30" transform="translate(63.623047 0)"/>
       <use xlink:href="#DejaVuSans-30" transform="translate(127.246094 0)"/>
       <use xlink:href="#DejaVuSans-30" transform="translate(190.869141 0)"/>
       <use xlink:href="#DejaVuSans-30" transform="translate(254.492188 0)"/>
      </g>
     </g>
    </g>
    <g id="xtick_4">
     <g id="line2d_4">
      <g>
       <use xlink:href="#mbc2c73cf20" x="202.475064" y="228.96" style="stroke: #000000; stroke-width: 0.8"/>
      </g>
     </g>
     <g id="text_4">
      <!-- 50000 -->
      <g transform="translate(186.568814 243.558437) scale(0.1 -0.1)">
       <defs>
        <path id="DejaVuSans-35" d="M 691 4666 
L 3169 4666 
L 3169 4134 
L 1269 4134 
L 1269 2991 
Q 1406 3038 1543 3061 
Q 1681 3084 1819 3084 
Q 2600 3084 3056 2656 
Q 3513 2228 3513 1497 
Q 3513 744 3044 326 
Q 2575 -91 1722 -91 
Q 1428 -91 1123 -41 
Q 819 9 494 109 
L 494 744 
Q 775 591 1075 516 
Q 1375 441 1709 441 
Q 2250 441 2565 725 
Q 2881 1009 2881 1497 
Q 2881 1984 2565 2268 
Q 2250 2553 1709 2553 
Q 1456 2553 1204 2497 
Q 953 2441 691 2322 
L 691 4666 
z
" transform="scale(0.015625)"/>
       </defs>
       <use xlink:href="#DejaVuSans-35"/>
       <use xlink:href="#DejaVuSans-30" transform="translate(63.623047 0)"/>
       <use xlink:href="#DejaVuSans-30" transform="translate(127.246094 0)"/>
       <use xlink:href="#DejaVuSans-30" transform="translate(190.869141 0)"/>
       <use xlink:href="#DejaVuSans-30" transform="translate(254.492188 0)"/>
      </g>
     </g>
    </g>
    <g id="xtick_5">
     <g id="line2d_5">
      <g>
       <use xlink:href="#mbc2c73cf20" x="246.019088" y="228.96" style="stroke: #000000; stroke-width: 0.8"/>
      </g>
     </g>
     <g id="text_5">
      <!-- 60000 -->
      <g transform="translate(230.112838 243.558437) scale(0.1 -0.1)">
       <defs>
        <path id="DejaVuSans-36" d="M 2113 2584 
Q 1688 2584 1439 2293 
Q 1191 2003 1191 1497 
Q 1191 994 1439 701 
Q 1688 409 2113 409 
Q 2538 409 2786 701 
Q 3034 994 3034 1497 
Q 3034 2003 2786 2293 
Q 2538 2584 2113 2584 
z
M 3366 4563 
L 3366 3988 
Q 3128 4100 2886 4159 
Q 2644 4219 2406 4219 
Q 1781 4219 1451 3797 
Q 1122 3375 1075 2522 
Q 1259 2794 1537 2939 
Q 1816 3084 2150 3084 
Q 2853 3084 3261 2657 
Q 3669 2231 3669 1497 
Q 3669 778 3244 343 
Q 2819 -91 2113 -91 
Q 1303 -91 875 529 
Q 447 1150 447 2328 
Q 447 3434 972 4092 
Q 1497 4750 2381 4750 
Q 2619 4750 2861 4703 
Q 3103 4656 3366 4563 
z
" transform="scale(0.015625)"/>
       </defs>
       <use xlink:href="#DejaVuSans-36"/>
       <use xlink:href="#DejaVuSans-30" transform="translate(63.623047 0)"/>
       <use xlink:href="#DejaVuSans-30" transform="translate(127.246094 0)"/>
       <use xlink:href="#DejaVuSans-30" transform="translate(190.869141 0)"/>
       <use xlink:href="#DejaVuSans-30" transform="translate(254.492188 0)"/>
      </g>
     </g>
    </g>
    <g id="xtick_6">
     <g id="line2d_6">
      <g>
       <use xlink:href="#mbc2c73cf20" x="289.563111" y="228.96" style="stroke: #000000; stroke-width: 0.8"/>
      </g>
     </g>
     <g id="text_6">
      <!-- 70000 -->
      <g transform="translate(273.656861 243.558437) scale(0.1 -0.1)">
       <defs>
        <path id="DejaVuSans-37" d="M 525 4666 
L 3525 4666 
L 3525 4397 
L 1831 0 
L 1172 0 
L 2766 4134 
L 525 4134 
L 525 4666 
z
" transform="scale(0.015625)"/>
       </defs>
       <use xlink:href="#DejaVuSans-37"/>
       <use xlink:href="#DejaVuSans-30" transform="translate(63.623047 0)"/>
       <use xlink:href="#DejaVuSans-30" transform="translate(127.246094 0)"/>
       <use xlink:href="#DejaVuSans-30" transform="translate(190.869141 0)"/>
       <use xlink:href="#DejaVuSans-30" transform="translate(254.492188 0)"/>
      </g>
     </g>
    </g>
    <g id="xtick_7">
     <g id="line2d_7">
      <g>
       <use xlink:href="#mbc2c73cf20" x="333.107135" y="228.96" style="stroke: #000000; stroke-width: 0.8"/>
      </g>
     </g>
     <g id="text_7">
      <!-- 80000 -->
      <g transform="translate(317.200885 243.558437) scale(0.1 -0.1)">
       <defs>
        <path id="DejaVuSans-38" d="M 2034 2216 
Q 1584 2216 1326 1975 
Q 1069 1734 1069 1313 
Q 1069 891 1326 650 
Q 1584 409 2034 409 
Q 2484 409 2743 651 
Q 3003 894 3003 1313 
Q 3003 1734 2745 1975 
Q 2488 2216 2034 2216 
z
M 1403 2484 
Q 997 2584 770 2862 
Q 544 3141 544 3541 
Q 544 4100 942 4425 
Q 1341 4750 2034 4750 
Q 2731 4750 3128 4425 
Q 3525 4100 3525 3541 
Q 3525 3141 3298 2862 
Q 3072 2584 2669 2484 
Q 3125 2378 3379 2068 
Q 3634 1759 3634 1313 
Q 3634 634 3220 271 
Q 2806 -91 2034 -91 
Q 1263 -91 848 271 
Q 434 634 434 1313 
Q 434 1759 690 2068 
Q 947 2378 1403 2484 
z
M 1172 3481 
Q 1172 3119 1398 2916 
Q 1625 2713 2034 2713 
Q 2441 2713 2670 2916 
Q 2900 3119 2900 3481 
Q 2900 3844 2670 4047 
Q 2441 4250 2034 4250 
Q 1625 4250 1398 4047 
Q 1172 3844 1172 3481 
z
" transform="scale(0.015625)"/>
       </defs>
       <use xlink:href="#DejaVuSans-38"/>
       <use xlink:href="#DejaVuSans-30" transform="translate(63.623047 0)"/>
       <use xlink:href="#DejaVuSans-30" transform="translate(127.246094 0)"/>
       <use xlink:href="#DejaVuSans-30" transform="translate(190.869141 0)"/>
       <use xlink:href="#DejaVuSans-30" transform="translate(254.492188 0)"/>
      </g>
     </g>
    </g>
    <g id="xtick_8">
     <g id="line2d_8">
      <g>
       <use xlink:href="#mbc2c73cf20" x="376.651158" y="228.96" style="stroke: #000000; stroke-width: 0.8"/>
      </g>
     </g>
     <g id="text_8">
      <!-- 90000 -->
      <g transform="translate(360.744908 243.558437) scale(0.1 -0.1)">
       <defs>
        <path id="DejaVuSans-39" d="M 703 97 
L 703 672 
Q 941 559 1184 500 
Q 1428 441 1663 441 
Q 2288 441 2617 861 
Q 2947 1281 2994 2138 
Q 2813 1869 2534 1725 
Q 2256 1581 1919 1581 
Q 1219 1581 811 2004 
Q 403 2428 403 3163 
Q 403 3881 828 4315 
Q 1253 4750 1959 4750 
Q 2769 4750 3195 4129 
Q 3622 3509 3622 2328 
Q 3622 1225 3098 567 
Q 2575 -91 1691 -91 
Q 1453 -91 1209 -44 
Q 966 3 703 97 
z
M 1959 2075 
Q 2384 2075 2632 2365 
Q 2881 2656 2881 3163 
Q 2881 3666 2632 3958 
Q 2384 4250 1959 4250 
Q 1534 4250 1286 3958 
Q 1038 3666 1038 3163 
Q 1038 2656 1286 2365 
Q 1534 2075 1959 2075 
z
" transform="scale(0.015625)"/>
       </defs>
       <use xlink:href="#DejaVuSans-39"/>
       <use xlink:href="#DejaVuSans-30" transform="translate(63.623047 0)"/>
       <use xlink:href="#DejaVuSans-30" transform="translate(127.246094 0)"/>
       <use xlink:href="#DejaVuSans-30" transform="translate(190.869141 0)"/>
       <use xlink:href="#DejaVuSans-30" transform="translate(254.492188 0)"/>
      </g>
     </g>
    </g>
    <g id="text_9">
     <!-- tof [µs] -->
     <g transform="translate(196.309375 257.236562) scale(0.1 -0.1)">
      <defs>
       <path id="DejaVuSans-74" d="M 1172 4494 
L 1172 3500 
L 2356 3500 
L 2356 3053 
L 1172 3053 
L 1172 1153 
Q 1172 725 1289 603 
Q 1406 481 1766 481 
L 2356 481 
L 2356 0 
L 1766 0 
Q 1100 0 847 248 
Q 594 497 594 1153 
L 594 3053 
L 172 3053 
L 172 3500 
L 594 3500 
L 594 4494 
L 1172 4494 
z
" transform="scale(0.015625)"/>
       <path id="DejaVuSans-6f" d="M 1959 3097 
Q 1497 3097 1228 2736 
Q 959 2375 959 1747 
Q 959 1119 1226 758 
Q 1494 397 1959 397 
Q 2419 397 2687 759 
Q 2956 1122 2956 1747 
Q 2956 2369 2687 2733 
Q 2419 3097 1959 3097 
z
M 1959 3584 
Q 2709 3584 3137 3096 
Q 3566 2609 3566 1747 
Q 3566 888 3137 398 
Q 2709 -91 1959 -91 
Q 1206 -91 779 398 
Q 353 888 353 1747 
Q 353 2609 779 3096 
Q 1206 3584 1959 3584 
z
" transform="scale(0.015625)"/>
       <path id="DejaVuSans-66" d="M 2375 4863 
L 2375 4384 
L 1825 4384 
Q 1516 4384 1395 4259 
Q 1275 4134 1275 3809 
L 1275 3500 
L 2222 3500 
L 2222 3053 
L 1275 3053 
L 1275 0 
L 697 0 
L 697 3053 
L 147 3053 
L 147 3500 
L 697 3500 
L 697 3744 
Q 697 4328 969 4595 
Q 1241 4863 1831 4863 
L 2375 4863 
z
" transform="scale(0.015625)"/>
       <path id="DejaVuSans-20" transform="scale(0.015625)"/>
       <path id="DejaVuSans-5b" d="M 550 4863 
L 1875 4863 
L 1875 4416 
L 1125 4416 
L 1125 -397 
L 1875 -397 
L 1875 -844 
L 550 -844 
L 550 4863 
z
" transform="scale(0.015625)"/>
       <path id="DejaVuSans-b5" d="M 544 -1331 
L 544 3500 
L 1119 3500 
L 1119 1325 
Q 1119 872 1334 640 
Q 1550 409 1972 409 
Q 2434 409 2667 671 
Q 2900 934 2900 1459 
L 2900 3500 
L 3475 3500 
L 3475 806 
Q 3475 619 3529 530 
Q 3584 441 3700 441 
Q 3728 441 3778 458 
Q 3828 475 3916 513 
L 3916 50 
Q 3788 -22 3673 -56 
Q 3559 -91 3450 -91 
Q 3234 -91 3106 31 
Q 2978 153 2931 403 
Q 2775 156 2548 32 
Q 2322 -91 2016 -91 
Q 1697 -91 1473 31 
Q 1250 153 1119 397 
L 1119 -1331 
L 544 -1331 
z
" transform="scale(0.015625)"/>
       <path id="DejaVuSans-73" d="M 2834 3397 
L 2834 2853 
Q 2591 2978 2328 3040 
Q 2066 3103 1784 3103 
Q 1356 3103 1142 2972 
Q 928 2841 928 2578 
Q 928 2378 1081 2264 
Q 1234 2150 1697 2047 
L 1894 2003 
Q 2506 1872 2764 1633 
Q 3022 1394 3022 966 
Q 3022 478 2636 193 
Q 2250 -91 1575 -91 
Q 1294 -91 989 -36 
Q 684 19 347 128 
L 347 722 
Q 666 556 975 473 
Q 1284 391 1588 391 
Q 1994 391 2212 530 
Q 2431 669 2431 922 
Q 2431 1156 2273 1281 
Q 2116 1406 1581 1522 
L 1381 1569 
Q 847 1681 609 1914 
Q 372 2147 372 2553 
Q 372 3047 722 3315 
Q 1072 3584 1716 3584 
Q 2034 3584 2315 3537 
Q 2597 3491 2834 3397 
z
" transform="scale(0.015625)"/>
       <path id="DejaVuSans-5d" d="M 1947 4863 
L 1947 -844 
L 622 -844 
L 622 -397 
L 1369 -397 
L 1369 4416 
L 622 4416 
L 622 4863 
L 1947 4863 
z
" transform="scale(0.015625)"/>
      </defs>
      <use xlink:href="#DejaVuSans-74"/>
      <use xlink:href="#DejaVuSans-6f" transform="translate(39.208984 0)"/>
      <use xlink:href="#DejaVuSans-66" transform="translate(100.390625 0)"/>
      <use xlink:href="#DejaVuSans-20" transform="translate(135.595703 0)"/>
      <use xlink:href="#DejaVuSans-5b" transform="translate(167.382812 0)"/>
      <use xlink:href="#DejaVuSans-b5" transform="translate(206.396484 0)"/>
      <use xlink:href="#DejaVuSans-73" transform="translate(270.019531 0)"/>
      <use xlink:href="#DejaVuSans-5d" transform="translate(322.119141 0)"/>
     </g>
    </g>
   </g>
   <g id="matplotlib.axis_2">
    <g id="ytick_1">
     <g id="line2d_9">
      <defs>
       <path id="m68f6b7641a" d="M 0 0 
L -3.5 0 
" style="stroke: #000000; stroke-width: 0.8"/>
      </defs>
      <g>
       <use xlink:href="#m68f6b7641a" x="46.965625" y="220.421874" style="stroke: #000000; stroke-width: 0.8"/>
      </g>
     </g>
     <g id="text_10">
      <!-- 0 -->
      <g transform="translate(33.603125 224.221093) scale(0.1 -0.1)">
       <use xlink:href="#DejaVuSans-30"/>
      </g>
     </g>
    </g>
    <g id="ytick_2">
     <g id="line2d_10">
      <g>
       <use xlink:href="#m68f6b7641a" x="46.965625" y="181.875029" style="stroke: #000000; stroke-width: 0.8"/>
      </g>
     </g>
     <g id="text_11">
      <!-- 100 -->
      <g transform="translate(20.878125 185.674247) scale(0.1 -0.1)">
       <defs>
        <path id="DejaVuSans-31" d="M 794 531 
L 1825 531 
L 1825 4091 
L 703 3866 
L 703 4441 
L 1819 4666 
L 2450 4666 
L 2450 531 
L 3481 531 
L 3481 0 
L 794 0 
L 794 531 
z
" transform="scale(0.015625)"/>
       </defs>
       <use xlink:href="#DejaVuSans-31"/>
       <use xlink:href="#DejaVuSans-30" transform="translate(63.623047 0)"/>
       <use xlink:href="#DejaVuSans-30" transform="translate(127.246094 0)"/>
      </g>
     </g>
    </g>
    <g id="ytick_3">
     <g id="line2d_11">
      <g>
       <use xlink:href="#m68f6b7641a" x="46.965625" y="143.328184" style="stroke: #000000; stroke-width: 0.8"/>
      </g>
     </g>
     <g id="text_12">
      <!-- 200 -->
      <g transform="translate(20.878125 147.127402) scale(0.1 -0.1)">
       <use xlink:href="#DejaVuSans-32"/>
       <use xlink:href="#DejaVuSans-30" transform="translate(63.623047 0)"/>
       <use xlink:href="#DejaVuSans-30" transform="translate(127.246094 0)"/>
      </g>
     </g>
    </g>
    <g id="ytick_4">
     <g id="line2d_12">
      <g>
       <use xlink:href="#m68f6b7641a" x="46.965625" y="104.781338" style="stroke: #000000; stroke-width: 0.8"/>
      </g>
     </g>
     <g id="text_13">
      <!-- 300 -->
      <g transform="translate(20.878125 108.580557) scale(0.1 -0.1)">
       <use xlink:href="#DejaVuSans-33"/>
       <use xlink:href="#DejaVuSans-30" transform="translate(63.623047 0)"/>
       <use xlink:href="#DejaVuSans-30" transform="translate(127.246094 0)"/>
      </g>
     </g>
    </g>
    <g id="ytick_5">
     <g id="line2d_13">
      <g>
       <use xlink:href="#m68f6b7641a" x="46.965625" y="66.234493" style="stroke: #000000; stroke-width: 0.8"/>
      </g>
     </g>
     <g id="text_14">
      <!-- 400 -->
      <g transform="translate(20.878125 70.033712) scale(0.1 -0.1)">
       <use xlink:href="#DejaVuSans-34"/>
       <use xlink:href="#DejaVuSans-30" transform="translate(63.623047 0)"/>
       <use xlink:href="#DejaVuSans-30" transform="translate(127.246094 0)"/>
      </g>
     </g>
    </g>
    <g id="ytick_6">
     <g id="line2d_14">
      <g>
       <use xlink:href="#m68f6b7641a" x="46.965625" y="27.687648" style="stroke: #000000; stroke-width: 0.8"/>
      </g>
     </g>
     <g id="text_15">
      <!-- 500 -->
      <g transform="translate(20.878125 31.486867) scale(0.1 -0.1)">
       <use xlink:href="#DejaVuSans-35"/>
       <use xlink:href="#DejaVuSans-30" transform="translate(63.623047 0)"/>
       <use xlink:href="#DejaVuSans-30" transform="translate(127.246094 0)"/>
      </g>
     </g>
    </g>
    <g id="text_16">
     <!-- [counts] -->
     <g transform="translate(14.798438 138.6925) rotate(-90) scale(0.1 -0.1)">
      <defs>
       <path id="DejaVuSans-63" d="M 3122 3366 
L 3122 2828 
Q 2878 2963 2633 3030 
Q 2388 3097 2138 3097 
Q 1578 3097 1268 2742 
Q 959 2388 959 1747 
Q 959 1106 1268 751 
Q 1578 397 2138 397 
Q 2388 397 2633 464 
Q 2878 531 3122 666 
L 3122 134 
Q 2881 22 2623 -34 
Q 2366 -91 2075 -91 
Q 1284 -91 818 406 
Q 353 903 353 1747 
Q 353 2603 823 3093 
Q 1294 3584 2113 3584 
Q 2378 3584 2631 3529 
Q 2884 3475 3122 3366 
z
" transform="scale(0.015625)"/>
       <path id="DejaVuSans-75" d="M 544 1381 
L 544 3500 
L 1119 3500 
L 1119 1403 
Q 1119 906 1312 657 
Q 1506 409 1894 409 
Q 2359 409 2629 706 
Q 2900 1003 2900 1516 
L 2900 3500 
L 3475 3500 
L 3475 0 
L 2900 0 
L 2900 538 
Q 2691 219 2414 64 
Q 2138 -91 1772 -91 
Q 1169 -91 856 284 
Q 544 659 544 1381 
z
M 1991 3584 
L 1991 3584 
z
" transform="scale(0.015625)"/>
       <path id="DejaVuSans-6e" d="M 3513 2113 
L 3513 0 
L 2938 0 
L 2938 2094 
Q 2938 2591 2744 2837 
Q 2550 3084 2163 3084 
Q 1697 3084 1428 2787 
Q 1159 2491 1159 1978 
L 1159 0 
L 581 0 
L 581 3500 
L 1159 3500 
L 1159 2956 
Q 1366 3272 1645 3428 
Q 1925 3584 2291 3584 
Q 2894 3584 3203 3211 
Q 3513 2838 3513 2113 
z
" transform="scale(0.015625)"/>
      </defs>
      <use xlink:href="#DejaVuSans-5b"/>
      <use xlink:href="#DejaVuSans-63" transform="translate(39.013672 0)"/>
      <use xlink:href="#DejaVuSans-6f" transform="translate(93.994141 0)"/>
      <use xlink:href="#DejaVuSans-75" transform="translate(155.175781 0)"/>
      <use xlink:href="#DejaVuSans-6e" transform="translate(218.554688 0)"/>
      <use xlink:href="#DejaVuSans-74" transform="translate(281.933594 0)"/>
      <use xlink:href="#DejaVuSans-73" transform="translate(321.142578 0)"/>
      <use xlink:href="#DejaVuSans-5d" transform="translate(373.242188 0)"/>
     </g>
    </g>
   </g>
   <g id="line2d_15">
    <path d="M 62.183807 213.097973 
L 64.212898 213.097973 
L 64.212898 207.315946 
L 65.227443 207.315946 
L 65.227443 198.835641 
L 66.241989 198.835641 
L 66.241989 191.51174 
L 67.256534 191.51174 
L 67.256534 196.137361 
L 68.27108 196.137361 
L 68.27108 186.115182 
L 69.285625 186.115182 
L 69.285625 176.863939 
L 70.30017 176.863939 
L 70.30017 178.020344 
L 71.314716 178.020344 
L 71.314716 175.707533 
L 72.329261 175.707533 
L 72.329261 159.13239 
L 73.343807 159.13239 
L 73.343807 160.288795 
L 74.358352 160.288795 
L 74.358352 162.601606 
L 75.372898 162.601606 
L 75.372898 156.434111 
L 76.387443 156.434111 
L 76.387443 153.350363 
L 77.401989 153.350363 
L 77.401989 146.411931 
L 79.43108 146.411931 
L 79.43108 143.328184 
L 80.445625 143.328184 
L 80.445625 133.306004 
L 81.46017 133.306004 
L 81.46017 125.982103 
L 82.474716 125.982103 
L 82.474716 130.607725 
L 83.489261 130.607725 
L 83.489261 109.40696 
L 86.532898 109.40696 
L 86.532898 111.719771 
L 87.547443 111.719771 
L 87.547443 97.842906 
L 88.561989 97.842906 
L 88.561989 104.39587 
L 89.576534 104.39587 
L 89.576534 107.094149 
L 90.59108 107.094149 
L 90.59108 77.413078 
L 91.605625 77.413078 
L 91.605625 102.853996 
L 92.62017 102.853996 
L 92.62017 88.591663 
L 93.634716 88.591663 
L 93.634716 73.172925 
L 94.649261 73.172925 
L 94.649261 64.307151 
L 95.663807 64.307151 
L 95.663807 88.206195 
L 96.678352 88.206195 
L 96.678352 79.725889 
L 97.692898 79.725889 
L 97.692898 70.474646 
L 98.707443 70.474646 
L 98.707443 77.798547 
L 99.721989 77.798547 
L 99.721989 60.452467 
L 100.736534 60.452467 
L 100.736534 61.223403 
L 101.75108 61.223403 
L 101.75108 64.307151 
L 102.765625 64.307151 
L 102.765625 50.044818 
L 103.78017 50.044818 
L 103.78017 53.128566 
L 104.794716 53.128566 
L 104.794716 59.296061 
L 105.809261 59.296061 
L 105.809261 46.190134 
L 107.838352 46.190134 
L 107.838352 50.815755 
L 108.852898 50.815755 
L 108.852898 25.374837 
L 109.867443 25.374837 
L 109.867443 41.949981 
L 110.881989 41.949981 
L 110.881989 36.167954 
L 112.91108 36.167954 
L 112.91108 33.855143 
L 113.925625 33.855143 
L 113.925625 40.793576 
L 114.94017 40.793576 
L 114.94017 23.447495 
L 115.954716 23.447495 
L 115.954716 35.397017 
L 116.969261 35.397017 
L 116.969261 43.491855 
L 117.983807 43.491855 
L 117.983807 35.011549 
L 118.998352 35.011549 
L 118.998352 48.117476 
L 120.012898 48.117476 
L 120.012898 57.368719 
L 121.027443 57.368719 
L 121.027443 24.218432 
L 122.041989 24.218432 
L 122.041989 17.28 
L 123.056534 17.28 
L 123.056534 63.536214 
L 124.07108 63.536214 
L 124.07108 59.296061 
L 125.085625 59.296061 
L 125.085625 40.408107 
L 126.10017 40.408107 
L 126.10017 53.514034 
L 127.114716 53.514034 
L 127.114716 51.586692 
L 128.129261 51.586692 
L 128.129261 39.63717 
L 129.143807 39.63717 
L 129.143807 57.754187 
L 131.172898 57.754187 
L 131.172898 68.547304 
L 132.187443 68.547304 
L 132.187443 58.910593 
L 133.201989 58.910593 
L 133.201989 51.586692 
L 134.216534 51.586692 
L 134.216534 61.608872 
L 135.23108 61.608872 
L 135.23108 59.68153 
L 136.245625 59.68153 
L 136.245625 64.69262 
L 137.26017 64.69262 
L 137.26017 77.798547 
L 138.274716 77.798547 
L 138.274716 59.68153 
L 139.289261 59.68153 
L 139.289261 68.932772 
L 140.303807 68.932772 
L 140.303807 68.547304 
L 141.318352 68.547304 
L 141.318352 56.98325 
L 142.332898 56.98325 
L 142.332898 73.558394 
L 143.347443 73.558394 
L 143.347443 69.318241 
L 144.361989 69.318241 
L 144.361989 73.172925 
L 145.376534 73.172925 
L 145.376534 66.619962 
L 146.39108 66.619962 
L 146.39108 75.485736 
L 147.405625 75.485736 
L 147.405625 65.078088 
L 148.42017 65.078088 
L 148.42017 63.150746 
L 149.434716 63.150746 
L 149.434716 61.99434 
L 150.449261 61.99434 
L 150.449261 58.525124 
L 151.463807 58.525124 
L 151.463807 78.569484 
L 152.478352 78.569484 
L 152.478352 77.02761 
L 153.492898 77.02761 
L 153.492898 78.954952 
L 154.507443 78.954952 
L 154.507443 72.01652 
L 155.521989 72.01652 
L 155.521989 64.69262 
L 156.536534 64.69262 
L 156.536534 90.133537 
L 157.55108 90.133537 
L 157.55108 67.776367 
L 158.565625 67.776367 
L 158.565625 65.463556 
L 159.58017 65.463556 
L 159.58017 81.267763 
L 160.594716 81.267763 
L 160.594716 70.860115 
L 161.609261 70.860115 
L 161.609261 77.413078 
L 162.623807 77.413078 
L 162.623807 78.184015 
L 163.638352 78.184015 
L 163.638352 77.798547 
L 164.652898 77.798547 
L 164.652898 73.172925 
L 165.667443 73.172925 
L 165.667443 89.748069 
L 166.681989 89.748069 
L 166.681989 86.664321 
L 167.696534 86.664321 
L 167.696534 83.195105 
L 168.71108 83.195105 
L 168.71108 77.02761 
L 169.725625 77.02761 
L 169.725625 88.977132 
L 170.74017 88.977132 
L 170.74017 104.781338 
L 171.754716 104.781338 
L 171.754716 92.446348 
L 172.769261 92.446348 
L 172.769261 65.463556 
L 173.783807 65.463556 
L 173.783807 83.195105 
L 174.798352 83.195105 
L 174.798352 91.675411 
L 175.812898 91.675411 
L 175.812898 93.988222 
L 176.827443 93.988222 
L 176.827443 75.485736 
L 177.841989 75.485736 
L 177.841989 86.664321 
L 178.856534 86.664321 
L 178.856534 88.977132 
L 179.87108 88.977132 
L 179.87108 96.686501 
L 180.885625 96.686501 
L 180.885625 95.915564 
L 181.90017 95.915564 
L 181.90017 105.937744 
L 182.914716 105.937744 
L 182.914716 109.021491 
L 183.929261 109.021491 
L 183.929261 116.73086 
L 184.943807 116.73086 
L 184.943807 126.75304 
L 185.958352 126.75304 
L 185.958352 109.021491 
L 186.972898 109.021491 
L 186.972898 126.367572 
L 187.987443 126.367572 
L 187.987443 132.535067 
L 189.001989 132.535067 
L 189.001989 139.088031 
L 190.016534 139.088031 
L 190.016534 130.607725 
L 191.03108 130.607725 
L 191.03108 147.953805 
L 192.045625 147.953805 
L 192.045625 148.339273 
L 193.06017 148.339273 
L 193.06017 157.590516 
L 194.074716 157.590516 
L 194.074716 155.663174 
L 195.089261 155.663174 
L 195.089261 166.070822 
L 196.103807 166.070822 
L 196.103807 176.863939 
L 197.118352 176.863939 
L 197.118352 171.081912 
L 198.132898 171.081912 
L 198.132898 174.936597 
L 199.147443 174.936597 
L 199.147443 180.333155 
L 200.161989 180.333155 
L 200.161989 185.729713 
L 202.19108 185.729713 
L 202.19108 198.064704 
L 203.205625 198.064704 
L 203.205625 189.584398 
L 204.22017 189.584398 
L 204.22017 198.450172 
L 205.234716 198.450172 
L 205.234716 205.774073 
L 206.249261 205.774073 
L 206.249261 206.54501 
L 207.263807 206.54501 
L 207.263807 211.170631 
L 208.278352 211.170631 
L 208.278352 210.399694 
L 209.292898 210.399694 
L 209.292898 213.097973 
L 210.307443 213.097973 
L 210.307443 216.952658 
L 213.35108 216.952658 
L 213.35108 218.88 
L 214.365625 218.88 
L 214.365625 218.494532 
L 215.38017 218.494532 
L 215.38017 209.243289 
L 216.394716 209.243289 
L 216.394716 205.774073 
L 217.409261 205.774073 
L 217.409261 208.472352 
L 218.423807 208.472352 
L 218.423807 201.919388 
L 219.438352 201.919388 
L 219.438352 193.824551 
L 220.452898 193.824551 
L 220.452898 191.897208 
L 221.467443 191.897208 
L 221.467443 189.584398 
L 222.481989 189.584398 
L 222.481989 179.17675 
L 223.496534 179.17675 
L 223.496534 181.104092 
L 224.51108 181.104092 
L 224.51108 180.333155 
L 225.525625 180.333155 
L 225.525625 171.081912 
L 226.54017 171.081912 
L 226.54017 162.987075 
L 227.554716 162.987075 
L 227.554716 176.093002 
L 228.569261 176.093002 
L 228.569261 158.746922 
L 229.583807 158.746922 
L 229.583807 164.528948 
L 230.598352 164.528948 
L 230.598352 169.15457 
L 231.612898 169.15457 
L 231.612898 162.216138 
L 232.627443 162.216138 
L 232.627443 154.892237 
L 233.641989 154.892237 
L 233.641989 145.640994 
L 234.656534 145.640994 
L 234.656534 151.423021 
L 235.67108 151.423021 
L 235.67108 142.942715 
L 236.685625 142.942715 
L 236.685625 134.847878 
L 237.70017 134.847878 
L 237.70017 137.931625 
L 238.714716 137.931625 
L 238.714716 137.160688 
L 239.729261 137.160688 
L 239.729261 137.931625 
L 240.743807 137.931625 
L 240.743807 127.523977 
L 241.758352 127.523977 
L 241.758352 131.76413 
L 242.772898 131.76413 
L 242.772898 124.054761 
L 243.787443 124.054761 
L 243.787443 139.473499 
L 244.801989 139.473499 
L 244.801989 130.222256 
L 245.816534 130.222256 
L 245.816534 110.948834 
L 246.83108 110.948834 
L 246.83108 115.959924 
L 247.845625 115.959924 
L 247.845625 125.596635 
L 248.86017 125.596635 
L 248.86017 120.971013 
L 249.874716 120.971013 
L 249.874716 115.959924 
L 250.889261 115.959924 
L 250.889261 98.999312 
L 251.903807 98.999312 
L 251.903807 117.887266 
L 252.918352 117.887266 
L 252.918352 118.272734 
L 253.932898 118.272734 
L 253.932898 109.021491 
L 254.947443 109.021491 
L 254.947443 104.781338 
L 255.961989 104.781338 
L 255.961989 110.948834 
L 256.976534 110.948834 
L 256.976534 96.686501 
L 257.99108 96.686501 
L 257.99108 101.312122 
L 259.005625 101.312122 
L 259.005625 99.38478 
L 260.02017 99.38478 
L 260.02017 98.999312 
L 261.034716 98.999312 
L 261.034716 86.664321 
L 262.049261 86.664321 
L 262.049261 97.071969 
L 263.063807 97.071969 
L 263.063807 105.552275 
L 264.078352 105.552275 
L 264.078352 92.831816 
L 265.092898 92.831816 
L 265.092898 95.915564 
L 266.107443 95.915564 
L 266.107443 107.094149 
L 267.121989 107.094149 
L 267.121989 86.664321 
L 268.136534 86.664321 
L 268.136534 116.73086 
L 269.15108 116.73086 
L 269.15108 104.781338 
L 270.165625 104.781338 
L 270.165625 114.803518 
L 271.18017 114.803518 
L 271.18017 104.781338 
L 272.194716 104.781338 
L 272.194716 105.552275 
L 273.209261 105.552275 
L 273.209261 111.719771 
L 274.223807 111.719771 
L 274.223807 115.959924 
L 275.238352 115.959924 
L 275.238352 102.083059 
L 276.252898 102.083059 
L 276.252898 106.708681 
L 277.267443 106.708681 
L 277.267443 113.647113 
L 278.281989 113.647113 
L 278.281989 111.334302 
L 279.296534 111.334302 
L 279.296534 110.563365 
L 280.31108 110.563365 
L 280.31108 111.719771 
L 281.325625 111.719771 
L 281.325625 105.937744 
L 282.34017 105.937744 
L 282.34017 110.948834 
L 283.354716 110.948834 
L 283.354716 112.490707 
L 284.369261 112.490707 
L 284.369261 115.574455 
L 285.383807 115.574455 
L 285.383807 122.127419 
L 286.398352 122.127419 
L 286.398352 115.959924 
L 287.412898 115.959924 
L 287.412898 117.501797 
L 288.427443 117.501797 
L 288.427443 120.585545 
L 289.441989 120.585545 
L 289.441989 128.680382 
L 290.456534 128.680382 
L 290.456534 134.462409 
L 291.47108 134.462409 
L 291.47108 123.283824 
L 292.485625 123.283824 
L 292.485625 110.563365 
L 293.50017 110.563365 
L 293.50017 119.814608 
L 294.514716 119.814608 
L 294.514716 136.77522 
L 295.529261 136.77522 
L 295.529261 126.367572 
L 296.543807 126.367572 
L 296.543807 130.607725 
L 297.558352 130.607725 
L 297.558352 126.75304 
L 298.572898 126.75304 
L 298.572898 118.658203 
L 299.587443 118.658203 
L 299.587443 120.971013 
L 300.601989 120.971013 
L 300.601989 131.378662 
L 301.616534 131.378662 
L 301.616534 128.680382 
L 302.63108 128.680382 
L 302.63108 130.993193 
L 304.66017 130.993193 
L 304.66017 137.546157 
L 305.674716 137.546157 
L 305.674716 145.640994 
L 306.689261 145.640994 
L 306.689261 140.244436 
L 307.703807 140.244436 
L 307.703807 144.870057 
L 308.718352 144.870057 
L 308.718352 142.557247 
L 309.732898 142.557247 
L 309.732898 148.339273 
L 310.747443 148.339273 
L 310.747443 140.244436 
L 311.761989 140.244436 
L 311.761989 152.964895 
L 312.776534 152.964895 
L 312.776534 136.389751 
L 313.79108 136.389751 
L 313.79108 144.09912 
L 314.805625 144.09912 
L 314.805625 149.495679 
L 315.82017 149.495679 
L 315.82017 135.618815 
L 316.834716 135.618815 
L 316.834716 144.09912 
L 317.849261 144.09912 
L 317.849261 156.434111 
L 318.863807 156.434111 
L 318.863807 142.171778 
L 319.878352 142.171778 
L 319.878352 149.11021 
L 320.892898 149.11021 
L 320.892898 154.892237 
L 321.907443 154.892237 
L 321.907443 165.299885 
L 322.921989 165.299885 
L 322.921989 162.216138 
L 323.936534 162.216138 
L 323.936534 153.350363 
L 324.95108 153.350363 
L 324.95108 157.590516 
L 325.965625 157.590516 
L 325.965625 170.310975 
L 326.98017 170.310975 
L 326.98017 155.277706 
L 327.994716 155.277706 
L 327.994716 172.623786 
L 329.009261 172.623786 
L 329.009261 168.769101 
L 330.023807 168.769101 
L 330.023807 168.383633 
L 331.038352 168.383633 
L 331.038352 169.540038 
L 332.052898 169.540038 
L 332.052898 170.696444 
L 333.067443 170.696444 
L 333.067443 166.456291 
L 334.081989 166.456291 
L 334.081989 179.562218 
L 335.096534 179.562218 
L 335.096534 169.15457 
L 336.11108 169.15457 
L 336.11108 176.093002 
L 337.125625 176.093002 
L 337.125625 168.769101 
L 338.14017 168.769101 
L 338.14017 189.584398 
L 339.154716 189.584398 
L 339.154716 176.863939 
L 340.169261 176.863939 
L 340.169261 181.104092 
L 341.183807 181.104092 
L 341.183807 183.416902 
L 342.198352 183.416902 
L 342.198352 195.366424 
L 343.212898 195.366424 
L 343.212898 190.740803 
L 344.227443 190.740803 
L 344.227443 193.053614 
L 345.241989 193.053614 
L 345.241989 194.210019 
L 346.256534 194.210019 
L 346.256534 194.980956 
L 347.27108 194.980956 
L 347.27108 198.064704 
L 349.30017 198.064704 
L 349.30017 203.84673 
L 350.314716 203.84673 
L 350.314716 207.701415 
L 351.329261 207.701415 
L 351.329261 202.690325 
L 352.343807 202.690325 
L 352.343807 203.075793 
L 353.358352 203.075793 
L 353.358352 208.472352 
L 354.372898 208.472352 
L 354.372898 209.628757 
L 356.401989 209.628757 
L 356.401989 205.774073 
L 357.416534 205.774073 
L 357.416534 212.327036 
L 358.43108 212.327036 
L 358.43108 214.254379 
L 359.445625 214.254379 
L 359.445625 213.483442 
L 360.46017 213.483442 
L 360.46017 215.410784 
L 361.474716 215.410784 
L 361.474716 216.181721 
L 362.489261 216.181721 
L 362.489261 217.723595 
L 363.503807 217.723595 
L 363.503807 216.952658 
L 364.518352 216.952658 
L 364.518352 218.109063 
L 365.532898 218.109063 
L 365.532898 218.88 
L 366.547443 218.88 
L 366.547443 218.88 
" clip-path="url(#p39cde99d93)" style="fill: none; stroke: #1f77b4; stroke-width: 1.5; stroke-linecap: square"/>
   </g>
   <g id="patch_3">
    <path d="M 46.965625 228.96 
L 46.965625 7.2 
" style="fill: none; stroke: #000000; stroke-width: 0.8; stroke-linejoin: miter; stroke-linecap: square"/>
   </g>
   <g id="patch_4">
    <path d="M 381.765625 228.96 
L 381.765625 7.2 
" style="fill: none; stroke: #000000; stroke-width: 0.8; stroke-linejoin: miter; stroke-linecap: square"/>
   </g>
   <g id="patch_5">
    <path d="M 46.965625 228.96 
L 381.765625 228.96 
" style="fill: none; stroke: #000000; stroke-width: 0.8; stroke-linejoin: miter; stroke-linecap: square"/>
   </g>
   <g id="patch_6">
    <path d="M 46.965625 7.2 
L 381.765625 7.2 
" style="fill: none; stroke: #000000; stroke-width: 0.8; stroke-linejoin: miter; stroke-linecap: square"/>
   </g>
  </g>
 </g>
 <defs>
  <clipPath id="p39cde99d93">
   <rect x="46.965625" y="7.2" width="334.8" height="221.76"/>
  </clipPath>
 </defs>
</svg>
