<?xml version="1.0" encoding="utf-8" standalone="no"?>
<!DOCTYPE svg PUBLIC "-//W3C//DTD SVG 1.1//EN"
  "http://www.w3.org/Graphics/SVG/1.1/DTD/svg11.dtd">
<svg xmlns:xlink="http://www.w3.org/1999/xlink" width="395.328125pt" height="268.200625pt" viewBox="0 0 395.328125 268.200625" xmlns="http://www.w3.org/2000/svg" version="1.1">
 <metadata>
  <rdf:RDF xmlns:dc="http://purl.org/dc/elements/1.1/" xmlns:cc="http://creativecommons.org/ns#" xmlns:rdf="http://www.w3.org/1999/02/22-rdf-syntax-ns#">
   <cc:Work>
    <dc:type rdf:resource="http://purl.org/dc/dcmitype/StillImage"/>
    <dc:date>2026-01-15T09:10:30.954195</dc:date>
    <dc:format>image/svg+xml</dc:format>
    <dc:creator>
     <cc:Agent>
      <dc:title>Matplotlib v3.10.7, https://matplotlib.org/</dc:title>
     </cc:Agent>
    </dc:creator>
   </cc:Work>
  </rdf:RDF>
 </metadata>
 <defs>
  <style type="text/css">*{stroke-linejoin: round; stroke-linecap: butt}</style>
 </defs>
 <g id="figure_1">
  <g id="patch_1">
   <path d="M 0 268.200625 
L 395.328125 268.200625 
L 395.328125 0 
L 0 0 
z
" style="fill: #ffffff"/>
  </g>
  <g id="axes_1">
   <g id="patch_2">
    <path d="M 53.328125 228.96 
L 388.128125 228.96 
L 388.128125 7.2 
L 53.328125 7.2 
z
" style="fill: #ffffff"/>
   </g>
   <g id="matplotlib.axis_1">
    <g id="xtick_1">
     <g id="line2d_1">
      <defs>
       <path id="md510dc9b2e" d="M 0 0 
L 0 3.5 
" style="stroke: #000000; stroke-width: 0.8"/>
      </defs>
      <g>
       <use xlink:href="#md510dc9b2e" x="68.546307" y="228.96" style="stroke: #000000; stroke-width: 0.8"/>
      </g>
     </g>
     <g id="text_1">
      <!-- 1 -->
      <g transform="translate(65.365057 243.558437) scale(0.1 -0.1)">
       <defs>
        <path id="DejaVuSans-31" d="M 794 531 
L 1825 531 
L 1825 4091 
L 703 3866 
L 703 4441 
L 1819 4666 
L 2450 4666 
L 2450 531 
L 3481 531 
L 3481 0 
L 794 0 
L 794 531 
z
" transform="scale(0.015625)"/>
       </defs>
       <use xlink:href="#DejaVuSans-31"/>
      </g>
     </g>
    </g>
    <g id="xtick_2">
     <g id="line2d_2">
      <g>
       <use xlink:href="#md510dc9b2e" x="112.026826" y="228.96" style="stroke: #000000; stroke-width: 0.8"/>
      </g>
     </g>
     <g id="text_2">
      <!-- 2 -->
      <g transform="translate(108.845576 243.558437) scale(0.1 -0.1)">
       <defs>
        <path id="DejaVuSans-32" d="M 1228 531 
L 3431 531 
L 3431 0 
L 469 0 
L 469 531 
Q 828 903 1448 1529 
Q 2069 2156 2228 2338 
Q 2531 2678 2651 2914 
Q 2772 3150 2772 3378 
Q 2772 3750 2511 3984 
Q 2250 4219 1831 4219 
Q 1534 4219 1204 4116 
Q 875 4013 500 3803 
L 500 4441 
Q 881 4594 1212 4672 
Q 1544 4750 1819 4750 
Q 2544 4750 2975 4387 
Q 3406 4025 3406 3419 
Q 3406 3131 3298 2873 
Q 3191 2616 2906 2266 
Q 2828 2175 2409 1742 
Q 1991 1309 1228 531 
z
" transform="scale(0.015625)"/>
       </defs>
       <use xlink:href="#DejaVuSans-32"/>
      </g>
     </g>
    </g>
    <g id="xtick_3">
     <g id="line2d_3">
      <g>
       <use xlink:href="#md510dc9b2e" x="155.507346" y="228.96" style="stroke: #000000; stroke-width: 0.8"/>
      </g>
     </g>
     <g id="text_3">
      <!-- 3 -->
      <g transform="translate(152.326096 243.558437) scale(0.1 -0.1)">
       <defs>
        <path id="DejaVuSans-33" d="M 2597 2516 
Q 3050 2419 3304 2112 
Q 3559 1806 3559 1356 
Q 3559 666 3084 287 
Q 2609 -91 1734 -91 
Q 1441 -91 1130 -33 
Q 819 25 488 141 
L 488 750 
Q 750 597 1062 519 
Q 1375 441 1716 441 
Q 2309 441 2620 675 
Q 2931 909 2931 1356 
Q 2931 1769 2642 2001 
Q 2353 2234 1838 2234 
L 1294 2234 
L 1294 2753 
L 1863 2753 
Q 2328 2753 2575 2939 
Q 2822 3125 2822 3475 
Q 2822 3834 2567 4026 
Q 2313 4219 1838 4219 
Q 1578 4219 1281 4162 
Q 984 4106 628 3988 
L 628 4550 
Q 988 4650 1302 4700 
Q 1616 4750 1894 4750 
Q 2613 4750 3031 4423 
Q 3450 4097 3450 3541 
Q 3450 3153 3228 2886 
Q 3006 2619 2597 2516 
z
" transform="scale(0.015625)"/>
       </defs>
       <use xlink:href="#DejaVuSans-33"/>
      </g>
     </g>
    </g>
    <g id="xtick_4">
     <g id="line2d_4">
      <g>
       <use xlink:href="#md510dc9b2e" x="198.987865" y="228.96" style="stroke: #000000; stroke-width: 0.8"/>
      </g>
     </g>
     <g id="text_4">
      <!-- 4 -->
      <g transform="translate(195.806615 243.558437) scale(0.1 -0.1)">
       <defs>
        <path id="DejaVuSans-34" d="M 2419 4116 
L 825 1625 
L 2419 1625 
L 2419 4116 
z
M 2253 4666 
L 3047 4666 
L 3047 1625 
L 3713 1625 
L 3713 1100 
L 3047 1100 
L 3047 0 
L 2419 0 
L 2419 1100 
L 313 1100 
L 313 1709 
L 2253 4666 
z
" transform="scale(0.015625)"/>
       </defs>
       <use xlink:href="#DejaVuSans-34"/>
      </g>
     </g>
    </g>
    <g id="xtick_5">
     <g id="line2d_5">
      <g>
       <use xlink:href="#md510dc9b2e" x="242.468385" y="228.96" style="stroke: #000000; stroke-width: 0.8"/>
      </g>
     </g>
     <g id="text_5">
      <!-- 5 -->
      <g transform="translate(239.287135 243.558437) scale(0.1 -0.1)">
       <defs>
        <path id="DejaVuSans-35" d="M 691 4666 
L 3169 4666 
L 3169 4134 
L 1269 4134 
L 1269 2991 
Q 1406 3038 1543 3061 
Q 1681 3084 1819 3084 
Q 2600 3084 3056 2656 
Q 3513 2228 3513 1497 
Q 3513 744 3044 326 
Q 2575 -91 1722 -91 
Q 1428 -91 1123 -41 
Q 819 9 494 109 
L 494 744 
Q 775 591 1075 516 
Q 1375 441 1709 441 
Q 2250 441 2565 725 
Q 2881 1009 2881 1497 
Q 2881 1984 2565 2268 
Q 2250 2553 1709 2553 
Q 1456 2553 1204 2497 
Q 953 2441 691 2322 
L 691 4666 
z
" transform="scale(0.015625)"/>
       </defs>
       <use xlink:href="#DejaVuSans-35"/>
      </g>
     </g>
    </g>
    <g id="xtick_6">
     <g id="line2d_6">
      <g>
       <use xlink:href="#md510dc9b2e" x="285.948904" y="228.96" style="stroke: #000000; stroke-width: 0.8"/>
      </g>
     </g>
     <g id="text_6">
      <!-- 6 -->
      <g transform="translate(282.767654 243.558437) scale(0.1 -0.1)">
       <defs>
        <path id="DejaVuSans-36" d="M 2113 2584 
Q 1688 2584 1439 2293 
Q 1191 2003 1191 1497 
Q 1191 994 1439 701 
Q 1688 409 2113 409 
Q 2538 409 2786 701 
Q 3034 994 3034 1497 
Q 3034 2003 2786 2293 
Q 2538 2584 2113 2584 
z
M 3366 4563 
L 3366 3988 
Q 3128 4100 2886 4159 
Q 2644 4219 2406 4219 
Q 1781 4219 1451 3797 
Q 1122 3375 1075 2522 
Q 1259 2794 1537 2939 
Q 1816 3084 2150 3084 
Q 2853 3084 3261 2657 
Q 3669 2231 3669 1497 
Q 3669 778 3244 343 
Q 2819 -91 2113 -91 
Q 1303 -91 875 529 
Q 447 1150 447 2328 
Q 447 3434 972 4092 
Q 1497 4750 2381 4750 
Q 2619 4750 2861 4703 
Q 3103 4656 3366 4563 
z
" transform="scale(0.015625)"/>
       </defs>
       <use xlink:href="#DejaVuSans-36"/>
      </g>
     </g>
    </g>
    <g id="xtick_7">
     <g id="line2d_7">
      <g>
       <use xlink:href="#md510dc9b2e" x="329.429424" y="228.96" style="stroke: #000000; stroke-width: 0.8"/>
      </g>
     </g>
     <g id="text_7">
      <!-- 7 -->
      <g transform="translate(326.248174 243.558437) scale(0.1 -0.1)">
       <defs>
        <path id="DejaVuSans-37" d="M 525 4666 
L 3525 4666 
L 3525 4397 
L 1831 0 
L 1172 0 
L 2766 4134 
L 525 4134 
L 525 4666 
z
" transform="scale(0.015625)"/>
       </defs>
       <use xlink:href="#DejaVuSans-37"/>
      </g>
     </g>
    </g>
    <g id="xtick_8">
     <g id="line2d_8">
      <g>
       <use xlink:href="#md510dc9b2e" x="372.909943" y="228.96" style="stroke: #000000; stroke-width: 0.8"/>
      </g>
     </g>
     <g id="text_8">
      <!-- 8 -->
      <g transform="translate(369.728693 243.558437) scale(0.1 -0.1)">
       <defs>
        <path id="DejaVuSans-38" d="M 2034 2216 
Q 1584 2216 1326 1975 
Q 1069 1734 1069 1313 
Q 1069 891 1326 650 
Q 1584 409 2034 409 
Q 2484 409 2743 651 
Q 3003 894 3003 1313 
Q 3003 1734 2745 1975 
Q 2488 2216 2034 2216 
z
M 1403 2484 
Q 997 2584 770 2862 
Q 544 3141 544 3541 
Q 544 4100 942 4425 
Q 1341 4750 2034 4750 
Q 2731 4750 3128 4425 
Q 3525 4100 3525 3541 
Q 3525 3141 3298 2862 
Q 3072 2584 2669 2484 
Q 3125 2378 3379 2068 
Q 3634 1759 3634 1313 
Q 3634 634 3220 271 
Q 2806 -91 2034 -91 
Q 1263 -91 848 271 
Q 434 634 434 1313 
Q 434 1759 690 2068 
Q 947 2378 1403 2484 
z
M 1172 3481 
Q 1172 3119 1398 2916 
Q 1625 2713 2034 2713 
Q 2441 2713 2670 2916 
Q 2900 3119 2900 3481 
Q 2900 3844 2670 4047 
Q 2441 4250 2034 4250 
Q 1625 4250 1398 4047 
Q 1172 3844 1172 3481 
z
" transform="scale(0.015625)"/>
       </defs>
       <use xlink:href="#DejaVuSans-38"/>
      </g>
     </g>
    </g>
    <g id="text_9">
     <!-- wavelength [Å] -->
     <g transform="translate(182.690625 258.920937) scale(0.1 -0.1)">
      <defs>
       <path id="DejaVuSans-77" d="M 269 3500 
L 844 3500 
L 1563 769 
L 2278 3500 
L 2956 3500 
L 3675 769 
L 4391 3500 
L 4966 3500 
L 4050 0 
L 3372 0 
L 2619 2869 
L 1863 0 
L 1184 0 
L 269 3500 
z
" transform="scale(0.015625)"/>
       <path id="DejaVuSans-61" d="M 2194 1759 
Q 1497 1759 1228 1600 
Q 959 1441 959 1056 
Q 959 750 1161 570 
Q 1363 391 1709 391 
Q 2188 391 2477 730 
Q 2766 1069 2766 1631 
L 2766 1759 
L 2194 1759 
z
M 3341 1997 
L 3341 0 
L 2766 0 
L 2766 531 
Q 2569 213 2275 61 
Q 1981 -91 1556 -91 
Q 1019 -91 701 211 
Q 384 513 384 1019 
Q 384 1609 779 1909 
Q 1175 2209 1959 2209 
L 2766 2209 
L 2766 2266 
Q 2766 2663 2505 2880 
Q 2244 3097 1772 3097 
Q 1472 3097 1187 3025 
Q 903 2953 641 2809 
L 641 3341 
Q 956 3463 1253 3523 
Q 1550 3584 1831 3584 
Q 2591 3584 2966 3190 
Q 3341 2797 3341 1997 
z
" transform="scale(0.015625)"/>
       <path id="DejaVuSans-76" d="M 191 3500 
L 800 3500 
L 1894 563 
L 2988 3500 
L 3597 3500 
L 2284 0 
L 1503 0 
L 191 3500 
z
" transform="scale(0.015625)"/>
       <path id="DejaVuSans-65" d="M 3597 1894 
L 3597 1613 
L 953 1613 
Q 991 1019 1311 708 
Q 1631 397 2203 397 
Q 2534 397 2845 478 
Q 3156 559 3463 722 
L 3463 178 
Q 3153 47 2828 -22 
Q 2503 -91 2169 -91 
Q 1331 -91 842 396 
Q 353 884 353 1716 
Q 353 2575 817 3079 
Q 1281 3584 2069 3584 
Q 2775 3584 3186 3129 
Q 3597 2675 3597 1894 
z
M 3022 2063 
Q 3016 2534 2758 2815 
Q 2500 3097 2075 3097 
Q 1594 3097 1305 2825 
Q 1016 2553 972 2059 
L 3022 2063 
z
" transform="scale(0.015625)"/>
       <path id="DejaVuSans-6c" d="M 603 4863 
L 1178 4863 
L 1178 0 
L 603 0 
L 603 4863 
z
" transform="scale(0.015625)"/>
       <path id="DejaVuSans-6e" d="M 3513 2113 
L 3513 0 
L 2938 0 
L 2938 2094 
Q 2938 2591 2744 2837 
Q 2550 3084 2163 3084 
Q 1697 3084 1428 2787 
Q 1159 2491 1159 1978 
L 1159 0 
L 581 0 
L 581 3500 
L 1159 3500 
L 1159 2956 
Q 1366 3272 1645 3428 
Q 1925 3584 2291 3584 
Q 2894 3584 3203 3211 
Q 3513 2838 3513 2113 
z
" transform="scale(0.015625)"/>
       <path id="DejaVuSans-67" d="M 2906 1791 
Q 2906 2416 2648 2759 
Q 2391 3103 1925 3103 
Q 1463 3103 1205 2759 
Q 947 2416 947 1791 
Q 947 1169 1205 825 
Q 1463 481 1925 481 
Q 2391 481 2648 825 
Q 2906 1169 2906 1791 
z
M 3481 434 
Q 3481 -459 3084 -895 
Q 2688 -1331 1869 -1331 
Q 1566 -1331 1297 -1286 
Q 1028 -1241 775 -1147 
L 775 -588 
Q 1028 -725 1275 -790 
Q 1522 -856 1778 -856 
Q 2344 -856 2625 -561 
Q 2906 -266 2906 331 
L 2906 616 
Q 2728 306 2450 153 
Q 2172 0 1784 0 
Q 1141 0 747 490 
Q 353 981 353 1791 
Q 353 2603 747 3093 
Q 1141 3584 1784 3584 
Q 2172 3584 2450 3431 
Q 2728 3278 2906 2969 
L 2906 3500 
L 3481 3500 
L 3481 434 
z
" transform="scale(0.015625)"/>
       <path id="DejaVuSans-74" d="M 1172 4494 
L 1172 3500 
L 2356 3500 
L 2356 3053 
L 1172 3053 
L 1172 1153 
Q 1172 725 1289 603 
Q 1406 481 1766 481 
L 2356 481 
L 2356 0 
L 1766 0 
Q 1100 0 847 248 
Q 594 497 594 1153 
L 594 3053 
L 172 3053 
L 172 3500 
L 594 3500 
L 594 4494 
L 1172 4494 
z
" transform="scale(0.015625)"/>
       <path id="DejaVuSans-68" d="M 3513 2113 
L 3513 0 
L 2938 0 
L 2938 2094 
Q 2938 2591 2744 2837 
Q 2550 3084 2163 3084 
Q 1697 3084 1428 2787 
Q 1159 2491 1159 1978 
L 1159 0 
L 581 0 
L 581 4863 
L 1159 4863 
L 1159 2956 
Q 1366 3272 1645 3428 
Q 1925 3584 2291 3584 
Q 2894 3584 3203 3211 
Q 3513 2838 3513 2113 
z
" transform="scale(0.015625)"/>
       <path id="DejaVuSans-20" transform="scale(0.015625)"/>
       <path id="DejaVuSans-5b" d="M 550 4863 
L 1875 4863 
L 1875 4416 
L 1125 4416 
L 1125 -397 
L 1875 -397 
L 1875 -844 
L 550 -844 
L 550 4863 
z
" transform="scale(0.015625)"/>
       <path id="DejaVuSans-c5" d="M 2663 5081 
Q 2663 5278 2523 5417 
Q 2384 5556 2188 5556 
Q 1988 5556 1852 5420 
Q 1716 5284 1716 5081 
Q 1716 4884 1853 4746 
Q 1991 4609 2188 4609 
Q 2384 4609 2523 4746 
Q 2663 4884 2663 5081 
z
M 2188 4044 
L 1338 1722 
L 3041 1722 
L 2188 4044 
z
M 1716 4366 
Q 1525 4494 1428 4673 
Q 1331 4853 1331 5081 
Q 1331 5441 1579 5691 
Q 1828 5941 2188 5941 
Q 2544 5941 2795 5689 
Q 3047 5438 3047 5081 
Q 3047 4863 2948 4678 
Q 2850 4494 2663 4366 
L 4325 0 
L 3669 0 
L 3244 1197 
L 1141 1197 
L 716 0 
L 50 0 
L 1716 4366 
z
" transform="scale(0.015625)"/>
       <path id="DejaVuSans-5d" d="M 1947 4863 
L 1947 -844 
L 622 -844 
L 622 -397 
L 1369 -397 
L 1369 4416 
L 622 4416 
L 622 4863 
L 1947 4863 
z
" transform="scale(0.015625)"/>
      </defs>
      <use xlink:href="#DejaVuSans-77"/>
      <use xlink:href="#DejaVuSans-61" transform="translate(81.787109 0)"/>
      <use xlink:href="#DejaVuSans-76" transform="translate(143.066406 0)"/>
      <use xlink:href="#DejaVuSans-65" transform="translate(202.246094 0)"/>
      <use xlink:href="#DejaVuSans-6c" transform="translate(263.769531 0)"/>
      <use xlink:href="#DejaVuSans-65" transform="translate(291.552734 0)"/>
      <use xlink:href="#DejaVuSans-6e" transform="translate(353.076172 0)"/>
      <use xlink:href="#DejaVuSans-67" transform="translate(416.455078 0)"/>
      <use xlink:href="#DejaVuSans-74" transform="translate(479.931641 0)"/>
      <use xlink:href="#DejaVuSans-68" transform="translate(519.140625 0)"/>
      <use xlink:href="#DejaVuSans-20" transform="translate(582.519531 0)"/>
      <use xlink:href="#DejaVuSans-5b" transform="translate(614.306641 0)"/>
      <use xlink:href="#DejaVuSans-c5" transform="translate(653.320312 0)"/>
      <use xlink:href="#DejaVuSans-5d" transform="translate(721.728516 0)"/>
     </g>
    </g>
   </g>
   <g id="matplotlib.axis_2">
    <g id="ytick_1">
     <g id="line2d_9">
      <defs>
       <path id="mc20ca215ba" d="M 0 0 
L -3.5 0 
" style="stroke: #000000; stroke-width: 0.8"/>
      </defs>
      <g>
       <use xlink:href="#mc20ca215ba" x="53.328125" y="218.88" style="stroke: #000000; stroke-width: 0.8"/>
      </g>
     </g>
     <g id="text_10">
      <!-- 0 -->
      <g transform="translate(39.965625 222.679219) scale(0.1 -0.1)">
       <defs>
        <path id="DejaVuSans-30" d="M 2034 4250 
Q 1547 4250 1301 3770 
Q 1056 3291 1056 2328 
Q 1056 1369 1301 889 
Q 1547 409 2034 409 
Q 2525 409 2770 889 
Q 3016 1369 3016 2328 
Q 3016 3291 2770 3770 
Q 2525 4250 2034 4250 
z
M 2034 4750 
Q 2819 4750 3233 4129 
Q 3647 3509 3647 2328 
Q 3647 1150 3233 529 
Q 2819 -91 2034 -91 
Q 1250 -91 836 529 
Q 422 1150 422 2328 
Q 422 3509 836 4129 
Q 1250 4750 2034 4750 
z
" transform="scale(0.015625)"/>
       </defs>
       <use xlink:href="#DejaVuSans-30"/>
      </g>
     </g>
    </g>
    <g id="ytick_2">
     <g id="line2d_10">
      <g>
       <use xlink:href="#mc20ca215ba" x="53.328125" y="190.573345" style="stroke: #000000; stroke-width: 0.8"/>
      </g>
     </g>
     <g id="text_11">
      <!-- 1000 -->
      <g transform="translate(20.878125 194.372563) scale(0.1 -0.1)">
       <use xlink:href="#DejaVuSans-31"/>
       <use xlink:href="#DejaVuSans-30" transform="translate(63.623047 0)"/>
       <use xlink:href="#DejaVuSans-30" transform="translate(127.246094 0)"/>
       <use xlink:href="#DejaVuSans-30" transform="translate(190.869141 0)"/>
      </g>
     </g>
    </g>
    <g id="ytick_3">
     <g id="line2d_11">
      <g>
       <use xlink:href="#mc20ca215ba" x="53.328125" y="162.266689" style="stroke: #000000; stroke-width: 0.8"/>
      </g>
     </g>
     <g id="text_12">
      <!-- 2000 -->
      <g transform="translate(20.878125 166.065908) scale(0.1 -0.1)">
       <use xlink:href="#DejaVuSans-32"/>
       <use xlink:href="#DejaVuSans-30" transform="translate(63.623047 0)"/>
       <use xlink:href="#DejaVuSans-30" transform="translate(127.246094 0)"/>
       <use xlink:href="#DejaVuSans-30" transform="translate(190.869141 0)"/>
      </g>
     </g>
    </g>
    <g id="ytick_4">
     <g id="line2d_12">
      <g>
       <use xlink:href="#mc20ca215ba" x="53.328125" y="133.960034" style="stroke: #000000; stroke-width: 0.8"/>
      </g>
     </g>
     <g id="text_13">
      <!-- 3000 -->
      <g transform="translate(20.878125 137.759252) scale(0.1 -0.1)">
       <use xlink:href="#DejaVuSans-33"/>
       <use xlink:href="#DejaVuSans-30" transform="translate(63.623047 0)"/>
       <use xlink:href="#DejaVuSans-30" transform="translate(127.246094 0)"/>
       <use xlink:href="#DejaVuSans-30" transform="translate(190.869141 0)"/>
      </g>
     </g>
    </g>
    <g id="ytick_5">
     <g id="line2d_13">
      <g>
       <use xlink:href="#mc20ca215ba" x="53.328125" y="105.653378" style="stroke: #000000; stroke-width: 0.8"/>
      </g>
     </g>
     <g id="text_14">
      <!-- 4000 -->
      <g transform="translate(20.878125 109.452597) scale(0.1 -0.1)">
       <use xlink:href="#DejaVuSans-34"/>
       <use xlink:href="#DejaVuSans-30" transform="translate(63.623047 0)"/>
       <use xlink:href="#DejaVuSans-30" transform="translate(127.246094 0)"/>
       <use xlink:href="#DejaVuSans-30" transform="translate(190.869141 0)"/>
      </g>
     </g>
    </g>
    <g id="ytick_6">
     <g id="line2d_14">
      <g>
       <use xlink:href="#mc20ca215ba" x="53.328125" y="77.346723" style="stroke: #000000; stroke-width: 0.8"/>
      </g>
     </g>
     <g id="text_15">
      <!-- 5000 -->
      <g transform="translate(20.878125 81.145942) scale(0.1 -0.1)">
       <use xlink:href="#DejaVuSans-35"/>
       <use xlink:href="#DejaVuSans-30" transform="translate(63.623047 0)"/>
       <use xlink:href="#DejaVuSans-30" transform="translate(127.246094 0)"/>
       <use xlink:href="#DejaVuSans-30" transform="translate(190.869141 0)"/>
      </g>
     </g>
    </g>
    <g id="ytick_7">
     <g id="line2d_15">
      <g>
       <use xlink:href="#mc20ca215ba" x="53.328125" y="49.040067" style="stroke: #000000; stroke-width: 0.8"/>
      </g>
     </g>
     <g id="text_16">
      <!-- 6000 -->
      <g transform="translate(20.878125 52.839286) scale(0.1 -0.1)">
       <use xlink:href="#DejaVuSans-36"/>
       <use xlink:href="#DejaVuSans-30" transform="translate(63.623047 0)"/>
       <use xlink:href="#DejaVuSans-30" transform="translate(127.246094 0)"/>
       <use xlink:href="#DejaVuSans-30" transform="translate(190.869141 0)"/>
      </g>
     </g>
    </g>
    <g id="ytick_8">
     <g id="line2d_16">
      <g>
       <use xlink:href="#mc20ca215ba" x="53.328125" y="20.733412" style="stroke: #000000; stroke-width: 0.8"/>
      </g>
     </g>
     <g id="text_17">
      <!-- 7000 -->
      <g transform="translate(20.878125 24.532631) scale(0.1 -0.1)">
       <use xlink:href="#DejaVuSans-37"/>
       <use xlink:href="#DejaVuSans-30" transform="translate(63.623047 0)"/>
       <use xlink:href="#DejaVuSans-30" transform="translate(127.246094 0)"/>
       <use xlink:href="#DejaVuSans-30" transform="translate(190.869141 0)"/>
      </g>
     </g>
    </g>
    <g id="text_18">
     <!-- [counts] -->
     <g transform="translate(14.798438 138.6925) rotate(-90) scale(0.1 -0.1)">
      <defs>
       <path id="DejaVuSans-63" d="M 3122 3366 
L 3122 2828 
Q 2878 2963 2633 3030 
Q 2388 3097 2138 3097 
Q 1578 3097 1268 2742 
Q 959 2388 959 1747 
Q 959 1106 1268 751 
Q 1578 397 2138 397 
Q 2388 397 2633 464 
Q 2878 531 3122 666 
L 3122 134 
Q 2881 22 2623 -34 
Q 2366 -91 2075 -91 
Q 1284 -91 818 406 
Q 353 903 353 1747 
Q 353 2603 823 3093 
Q 1294 3584 2113 3584 
Q 2378 3584 2631 3529 
Q 2884 3475 3122 3366 
z
" transform="scale(0.015625)"/>
       <path id="DejaVuSans-6f" d="M 1959 3097 
Q 1497 3097 1228 2736 
Q 959 2375 959 1747 
Q 959 1119 1226 758 
Q 1494 397 1959 397 
Q 2419 397 2687 759 
Q 2956 1122 2956 1747 
Q 2956 2369 2687 2733 
Q 2419 3097 1959 3097 
z
M 1959 3584 
Q 2709 3584 3137 3096 
Q 3566 2609 3566 1747 
Q 3566 888 3137 398 
Q 2709 -91 1959 -91 
Q 1206 -91 779 398 
Q 353 888 353 1747 
Q 353 2609 779 3096 
Q 1206 3584 1959 3584 
z
" transform="scale(0.015625)"/>
       <path id="DejaVuSans-75" d="M 544 1381 
L 544 3500 
L 1119 3500 
L 1119 1403 
Q 1119 906 1312 657 
Q 1506 409 1894 409 
Q 2359 409 2629 706 
Q 2900 1003 2900 1516 
L 2900 3500 
L 3475 3500 
L 3475 0 
L 2900 0 
L 2900 538 
Q 2691 219 2414 64 
Q 2138 -91 1772 -91 
Q 1169 -91 856 284 
Q 544 659 544 1381 
z
M 1991 3584 
L 1991 3584 
z
" transform="scale(0.015625)"/>
       <path id="DejaVuSans-73" d="M 2834 3397 
L 2834 2853 
Q 2591 2978 2328 3040 
Q 2066 3103 1784 3103 
Q 1356 3103 1142 2972 
Q 928 2841 928 2578 
Q 928 2378 1081 2264 
Q 1234 2150 1697 2047 
L 1894 2003 
Q 2506 1872 2764 1633 
Q 3022 1394 3022 966 
Q 3022 478 2636 193 
Q 2250 -91 1575 -91 
Q 1294 -91 989 -36 
Q 684 19 347 128 
L 347 722 
Q 666 556 975 473 
Q 1284 391 1588 391 
Q 1994 391 2212 530 
Q 2431 669 2431 922 
Q 2431 1156 2273 1281 
Q 2116 1406 1581 1522 
L 1381 1569 
Q 847 1681 609 1914 
Q 372 2147 372 2553 
Q 372 3047 722 3315 
Q 1072 3584 1716 3584 
Q 2034 3584 2315 3537 
Q 2597 3491 2834 3397 
z
" transform="scale(0.015625)"/>
      </defs>
      <use xlink:href="#DejaVuSans-5b"/>
      <use xlink:href="#DejaVuSans-63" transform="translate(39.013672 0)"/>
      <use xlink:href="#DejaVuSans-6f" transform="translate(93.994141 0)"/>
      <use xlink:href="#DejaVuSans-75" transform="translate(155.175781 0)"/>
      <use xlink:href="#DejaVuSans-6e" transform="translate(218.554688 0)"/>
      <use xlink:href="#DejaVuSans-74" transform="translate(281.933594 0)"/>
      <use xlink:href="#DejaVuSans-73" transform="translate(321.142578 0)"/>
      <use xlink:href="#DejaVuSans-5d" transform="translate(373.242188 0)"/>
     </g>
    </g>
   </g>
   <g id="line2d_17">
    <path d="M 68.546307 218.88 
L 73.87267 218.851693 
L 73.87267 218.738467 
L 77.677216 218.79508 
L 77.677216 218.62524 
L 79.199034 218.568627 
L 79.199034 218.79508 
L 81.481761 218.71016 
L 81.481761 218.596933 
L 83.00358 218.596933 
L 83.00358 218.71016 
L 83.764489 218.71016 
L 83.764489 218.28556 
L 85.286307 218.28556 
L 85.286307 218.427094 
L 86.047216 218.427094 
L 86.047216 218.681853 
L 86.808125 218.681853 
L 86.808125 218.228947 
L 87.569034 218.228947 
L 87.569034 217.832654 
L 88.329943 217.832654 
L 88.329943 218.20064 
L 89.851761 218.144027 
L 89.851761 217.804347 
L 90.61267 217.804347 
L 90.61267 217.94588 
L 92.134489 217.86096 
L 92.134489 217.521281 
L 93.656307 217.521281 
L 93.656307 217.096681 
L 94.417216 217.096681 
L 94.417216 217.549587 
L 95.178125 217.549587 
L 95.178125 216.841921 
L 96.699943 216.785307 
L 96.699943 216.502241 
L 97.460852 216.502241 
L 97.460852 215.369975 
L 98.221761 215.369975 
L 98.221761 216.587161 
L 98.98267 216.587161 
L 98.98267 216.332401 
L 99.74358 216.332401 
L 99.74358 215.228441 
L 100.504489 215.228441 
L 100.504489 214.832148 
L 101.265398 214.832148 
L 101.265398 215.737961 
L 102.026307 215.737961 
L 102.026307 214.322628 
L 102.787216 214.322628 
L 102.787216 213.190362 
L 103.548125 213.190362 
L 103.548125 212.341163 
L 104.309034 212.341163 
L 104.309034 211.52027 
L 105.069943 211.52027 
L 105.069943 211.407043 
L 105.830852 211.407043 
L 105.830852 210.24647 
L 106.591761 210.24647 
L 106.591761 210.133243 
L 107.35267 210.133243 
L 107.35267 208.123471 
L 108.11358 208.123471 
L 108.11358 205.887245 
L 108.874489 205.887245 
L 108.874489 205.689099 
L 109.635398 205.689099 
L 109.635398 202.97166 
L 110.396307 202.97166 
L 110.396307 201.556327 
L 111.157216 201.556327 
L 111.157216 197.536782 
L 112.679034 197.593395 
L 112.679034 195.272249 
L 113.439943 195.272249 
L 113.439943 192.89449 
L 114.200852 192.89449 
L 114.200852 188.195586 
L 114.961761 188.195586 
L 114.961761 187.233159 
L 115.72267 187.233159 
L 115.72267 183.157001 
L 116.48358 183.157001 
L 116.48358 179.788509 
L 117.244489 179.788509 
L 117.244489 175.938804 
L 118.005398 175.938804 
L 118.005398 172.230632 
L 118.766307 172.230632 
L 118.766307 169.767953 
L 119.527216 169.767953 
L 119.527216 166.031474 
L 120.288125 166.031474 
L 120.288125 163.568795 
L 121.049034 163.568795 
L 121.049034 159.88893 
L 121.809943 159.88893 
L 121.809943 157.199798 
L 122.570852 157.199798 
L 122.570852 154.878652 
L 123.331761 154.878652 
L 123.331761 151.08556 
L 124.09267 151.08556 
L 124.09267 142.253884 
L 124.85358 142.253884 
L 124.85358 133.422207 
L 125.614489 133.422207 
L 125.614489 135.063993 
L 126.375398 135.063993 
L 126.375398 130.478315 
L 127.136307 130.478315 
L 127.136307 121.137119 
L 127.897216 121.137119 
L 127.897216 115.758854 
L 128.658125 115.758854 
L 128.658125 113.862308 
L 129.419034 113.862308 
L 129.419034 116.070227 
L 130.179943 116.070227 
L 130.179943 108.455737 
L 130.940852 108.455737 
L 130.940852 98.520101 
L 131.701761 98.520101 
L 131.701761 99.822207 
L 132.46267 99.822207 
L 132.46267 93.53813 
L 133.22358 93.53813 
L 133.22358 89.263825 
L 133.984489 89.263825 
L 133.984489 83.092974 
L 134.745398 83.092974 
L 134.745398 78.337456 
L 135.506307 78.337456 
L 135.506307 70.864499 
L 136.267216 70.864499 
L 136.267216 64.750261 
L 137.028125 64.750261 
L 137.028125 66.6185 
L 137.789034 66.6185 
L 137.789034 65.939141 
L 138.549943 65.939141 
L 138.549943 55.409065 
L 139.310852 55.409065 
L 139.310852 63.985981 
L 140.071761 63.985981 
L 140.071761 65.882527 
L 140.83267 65.882527 
L 140.83267 59.08893 
L 141.59358 59.08893 
L 141.59358 47.596428 
L 142.354489 47.596428 
L 142.354489 53.314372 
L 143.115398 53.314372 
L 143.115398 39.585644 
L 143.876307 39.585644 
L 143.876307 49.238214 
L 144.637216 49.238214 
L 144.637216 54.418332 
L 145.398125 54.418332 
L 145.398125 38.000472 
L 146.159034 38.000472 
L 146.159034 46.775535 
L 146.919943 46.775535 
L 146.919943 41.31235 
L 147.680852 41.31235 
L 147.680852 42.07663 
L 148.441761 42.07663 
L 148.441761 47.030295 
L 149.20267 47.030295 
L 149.20267 49.86096 
L 149.96358 49.86096 
L 149.96358 42.07663 
L 150.724489 42.07663 
L 150.724489 40.010244 
L 151.485398 40.010244 
L 151.485398 35.792553 
L 152.246307 35.792553 
L 152.246307 45.445122 
L 153.007216 45.445122 
L 153.007216 41.708644 
L 153.768125 41.708644 
L 153.768125 51.13476 
L 154.529034 51.13476 
L 154.529034 40.491457 
L 155.289943 40.491457 
L 155.289943 44.227936 
L 156.050852 44.227936 
L 156.050852 34.2923 
L 156.811761 34.2923 
L 156.811761 35.877473 
L 157.57267 35.877473 
L 157.57267 50.823387 
L 158.33358 50.823387 
L 158.33358 41.340657 
L 159.094489 41.340657 
L 159.094489 52.182106 
L 159.855398 52.182106 
L 159.855398 17.28 
L 160.616307 17.28 
L 160.616307 53.229452 
L 161.377216 53.229452 
L 161.377216 36.386992 
L 162.138125 36.386992 
L 162.138125 44.114709 
L 162.899034 44.114709 
L 162.899034 38.311845 
L 163.659943 38.311845 
L 163.659943 35.254726 
L 164.420852 35.254726 
L 164.420852 39.189351 
L 165.181761 39.189351 
L 165.181761 59.93813 
L 165.94267 59.93813 
L 165.94267 39.727178 
L 166.70358 39.727178 
L 166.70358 53.286066 
L 167.464489 53.286066 
L 167.464489 37.406032 
L 168.225398 37.406032 
L 168.225398 51.247987 
L 168.986307 51.247987 
L 168.986307 51.078147 
L 169.747216 51.078147 
L 169.747216 55.182612 
L 170.508125 55.182612 
L 170.508125 52.719933 
L 171.269034 52.719933 
L 171.269034 49.69112 
L 172.029943 49.69112 
L 172.029943 56.881011 
L 172.790852 56.881011 
L 172.790852 50.257254 
L 173.551761 50.257254 
L 173.551761 57.362224 
L 174.31267 57.362224 
L 174.31267 63.250008 
L 175.07358 63.250008 
L 175.07358 69.958686 
L 175.834489 69.958686 
L 175.834489 69.675619 
L 176.595398 69.675619 
L 176.595398 74.204684 
L 177.356307 74.204684 
L 177.356307 68.628273 
L 178.117216 68.628273 
L 178.117216 68.967953 
L 178.878125 68.967953 
L 178.878125 77.459949 
L 179.639034 77.459949 
L 179.639034 78.054389 
L 180.399943 78.054389 
L 180.399943 64.721955 
L 181.160852 64.721955 
L 181.160852 79.752789 
L 181.921761 79.752789 
L 181.921761 72.874271 
L 182.68267 72.874271 
L 182.68267 85.838719 
L 183.44358 85.838719 
L 183.44358 92.660623 
L 184.204489 92.660623 
L 184.204489 88.103252 
L 184.965398 88.103252 
L 184.965398 98.576714 
L 185.726307 98.576714 
L 185.726307 95.208222 
L 186.487216 95.208222 
L 186.487216 92.34925 
L 187.248125 92.34925 
L 187.248125 76.78059 
L 188.009034 76.78059 
L 188.009034 99.312687 
L 188.769943 99.312687 
L 188.769943 96.991542 
L 189.530852 96.991542 
L 189.530852 102.596259 
L 190.291761 102.596259 
L 190.291761 117.627094 
L 191.05267 117.627094 
L 191.05267 94.811929 
L 191.81358 94.811929 
L 191.81358 113.182949 
L 192.574489 113.182949 
L 192.574489 93.255063 
L 193.335398 93.255063 
L 193.335398 109.163404 
L 194.096307 109.163404 
L 194.096307 105.313698 
L 194.857216 105.313698 
L 194.857216 109.70123 
L 195.618125 109.70123 
L 195.618125 113.069722 
L 196.379034 113.069722 
L 196.379034 111.399629 
L 197.139943 111.399629 
L 197.139943 113.607548 
L 197.900852 113.607548 
L 197.900852 116.636361 
L 198.661761 116.636361 
L 198.661761 113.635855 
L 199.42267 113.635855 
L 199.42267 121.759865 
L 200.18358 121.759865 
L 200.18358 119.778399 
L 200.944489 119.778399 
L 200.944489 119.523639 
L 201.705398 119.523639 
L 201.705398 126.96829 
L 202.466307 126.96829 
L 202.466307 112.050682 
L 203.227216 112.050682 
L 203.227216 138.857085 
L 203.988125 138.857085 
L 203.988125 114.230295 
L 204.749034 114.230295 
L 204.749034 138.687245 
L 205.509943 138.687245 
L 205.509943 121.646639 
L 206.270852 121.646639 
L 206.270852 124.788677 
L 207.031761 124.788677 
L 207.031761 133.224061 
L 207.79267 133.224061 
L 207.79267 127.64765 
L 208.55358 127.64765 
L 208.55358 140.810244 
L 209.314489 140.810244 
L 209.314489 133.875114 
L 210.075398 133.875114 
L 210.075398 132.403168 
L 210.836307 132.403168 
L 210.836307 131.582275 
L 211.597216 131.582275 
L 211.597216 135.488593 
L 212.358125 135.488593 
L 212.358125 134.07326 
L 213.119034 134.07326 
L 213.119034 138.036192 
L 213.879943 138.036192 
L 213.879943 136.479326 
L 214.640852 136.479326 
L 214.640852 147.264162 
L 215.401761 147.264162 
L 215.401761 139.876125 
L 216.16267 139.876125 
L 216.16267 144.433496 
L 216.92358 144.433496 
L 216.92358 147.518922 
L 217.684489 147.518922 
L 217.684489 141.546217 
L 218.445398 141.546217 
L 218.445398 142.19727 
L 219.206307 142.19727 
L 219.206307 152.01968 
L 219.967216 152.01968 
L 219.967216 145.112856 
L 220.728125 145.112856 
L 220.728125 147.660455 
L 221.489034 147.660455 
L 221.489034 146.669722 
L 222.249943 146.669722 
L 222.249943 145.763909 
L 223.010852 145.763909 
L 223.010852 149.500388 
L 223.771761 149.500388 
L 223.771761 157.737624 
L 224.53267 157.737624 
L 224.53267 148.990868 
L 225.29358 148.990868 
L 225.29358 154.425746 
L 226.054489 154.425746 
L 226.054489 153.038719 
L 226.815398 153.038719 
L 226.815398 160.22861 
L 227.576307 160.22861 
L 227.576307 147.688762 
L 228.337216 147.688762 
L 228.337216 155.444785 
L 229.098125 155.444785 
L 229.098125 164.870901 
L 229.859034 164.870901 
L 229.859034 150.406201 
L 230.619943 150.406201 
L 230.619943 163.483875 
L 231.380852 163.483875 
L 231.380852 158.615131 
L 232.141761 158.615131 
L 232.141761 160.31353 
L 232.90267 160.31353 
L 232.90267 161.615636 
L 233.66358 161.615636 
L 233.66358 157.114878 
L 234.424489 157.114878 
L 234.424489 161.389183 
L 235.185398 161.389183 
L 235.185398 162.040236 
L 235.946307 162.040236 
L 235.946307 162.974356 
L 236.707216 162.974356 
L 236.707216 161.559023 
L 237.468125 161.559023 
L 237.468125 169.230126 
L 238.229034 169.230126 
L 238.229034 159.096344 
L 238.989943 159.096344 
L 238.989943 162.181769 
L 239.750852 162.181769 
L 239.750852 167.220354 
L 240.511761 167.220354 
L 240.511761 166.201314 
L 241.27267 166.201314 
L 241.27267 169.739646 
L 242.03358 169.739646 
L 242.03358 175.089604 
L 242.794489 175.089604 
L 242.794489 169.003673 
L 243.555398 169.003673 
L 243.555398 176.023724 
L 244.316307 176.023724 
L 244.316307 173.221365 
L 245.077216 173.221365 
L 245.077216 168.09786 
L 245.838125 168.09786 
L 245.838125 175.853884 
L 246.599034 175.853884 
L 246.599034 167.276967 
L 247.359943 167.276967 
L 247.359943 174.098871 
L 248.881761 174.042258 
L 248.881761 175.96711 
L 249.64267 175.96711 
L 249.64267 173.079832 
L 250.40358 173.079832 
L 250.40358 179.760202 
L 251.164489 179.760202 
L 251.164489 181.571828 
L 251.925398 181.571828 
L 251.925398 179.222376 
L 252.686307 179.222376 
L 252.686307 178.486403 
L 253.447216 178.486403 
L 253.447216 186.29904 
L 254.208125 186.29904 
L 254.208125 182.534254 
L 254.969034 182.534254 
L 254.969034 179.901735 
L 255.729943 179.901735 
L 255.729943 184.657254 
L 256.490852 184.657254 
L 256.490852 186.100893 
L 257.251761 186.100893 
L 257.251761 181.118922 
L 258.01267 181.118922 
L 258.01267 187.912519 
L 258.77358 187.912519 
L 258.77358 187.742679 
L 259.534489 187.742679 
L 259.534489 185.19508 
L 260.295398 185.19508 
L 260.295398 192.72465 
L 261.056307 192.72465 
L 261.056307 192.073597 
L 261.817216 192.073597 
L 261.817216 190.969638 
L 262.578125 190.969638 
L 262.578125 192.80957 
L 263.339034 192.80957 
L 263.339034 191.054558 
L 264.099943 191.054558 
L 264.099943 191.847144 
L 264.860852 191.847144 
L 264.860852 192.328357 
L 265.621761 192.328357 
L 265.621761 196.432822 
L 266.38267 196.432822 
L 266.38267 196.998955 
L 267.14358 196.998955 
L 267.14358 194.960876 
L 267.904489 194.960876 
L 267.904489 198.697355 
L 268.665398 198.697355 
L 268.665398 199.065341 
L 269.426307 199.065341 
L 269.426307 199.433328 
L 270.187216 199.433328 
L 270.187216 202.46214 
L 270.948125 202.46214 
L 270.948125 195.130716 
L 271.709034 195.130716 
L 271.709034 199.376714 
L 272.469943 199.376714 
L 272.469943 201.329874 
L 273.230852 201.329874 
L 273.230852 200.650514 
L 273.991761 200.650514 
L 273.991761 201.131727 
L 274.75267 201.131727 
L 274.75267 200.282527 
L 275.51358 200.282527 
L 275.51358 203.849166 
L 276.274489 203.849166 
L 276.274489 202.999966 
L 277.035398 202.999966 
L 277.035398 203.509486 
L 277.796307 203.509486 
L 277.796307 205.264499 
L 278.557216 205.264499 
L 278.557216 204.953126 
L 279.318125 204.953126 
L 279.318125 205.915552 
L 280.079034 205.915552 
L 280.079034 204.386992 
L 280.839943 204.386992 
L 280.839943 207.387498 
L 281.600852 207.387498 
L 281.600852 205.830632 
L 282.361761 205.830632 
L 282.361761 207.557338 
L 283.12267 207.557338 
L 283.12267 209.623724 
L 283.88358 209.623724 
L 283.88358 207.189351 
L 284.644489 207.189351 
L 284.644489 208.944364 
L 285.405398 208.944364 
L 285.405398 209.31235 
L 286.927216 209.22743 
L 286.927216 211.973176 
L 287.688125 211.973176 
L 287.688125 209.085897 
L 288.449034 209.085897 
L 288.449034 210.812603 
L 289.209943 210.812603 
L 289.209943 211.859949 
L 289.970852 211.859949 
L 289.970852 210.699377 
L 290.731761 210.699377 
L 290.731761 212.454389 
L 292.25358 212.539309 
L 292.25358 212.794069 
L 293.014489 212.794069 
L 293.014489 212.963909 
L 293.775398 212.963909 
L 293.775398 213.982949 
L 294.536307 213.982949 
L 294.536307 213.699882 
L 295.297216 213.699882 
L 295.297216 214.690615 
L 296.058125 214.690615 
L 296.058125 214.917068 
L 296.819034 214.917068 
L 296.819034 214.322628 
L 297.579943 214.322628 
L 297.579943 215.369975 
L 298.340852 215.369975 
L 298.340852 215.539815 
L 299.101761 215.539815 
L 299.101761 214.718922 
L 299.86267 214.718922 
L 299.86267 215.483201 
L 300.62358 215.483201 
L 300.62358 216.643774 
L 301.384489 216.643774 
L 301.384489 216.473934 
L 302.145398 216.473934 
L 302.145398 215.964414 
L 302.906307 215.964414 
L 302.906307 216.813614 
L 303.667216 216.813614 
L 303.667216 217.124987 
L 305.189034 217.124987 
L 305.189034 217.747734 
L 306.710852 217.719427 
L 306.710852 217.634507 
L 307.471761 217.634507 
L 307.471761 218.228947 
L 309.754489 218.172334 
L 309.754489 218.4554 
L 310.515398 218.4554 
L 310.515398 218.71016 
L 311.276307 218.71016 
L 311.276307 218.88 
L 372.909943 218.88 
L 372.909943 218.88 
" clip-path="url(#p7f5ab060f2)" style="fill: none; stroke: #1f77b4; stroke-width: 1.5; stroke-linecap: square"/>
   </g>
   <g id="line2d_18">
    <path d="M 68.546307 218.88 
L 77.677216 218.79508 
L 77.677216 218.653547 
L 83.764489 218.653547 
L 83.764489 218.427094 
L 84.525398 218.427094 
L 84.525398 218.28556 
L 85.286307 218.28556 
L 85.286307 218.512013 
L 86.047216 218.512013 
L 86.047216 218.342174 
L 86.808125 218.342174 
L 86.808125 218.087414 
L 87.569034 218.087414 
L 87.569034 218.228947 
L 89.090852 218.28556 
L 89.090852 218.002494 
L 89.851761 218.002494 
L 89.851761 217.77604 
L 90.61267 217.77604 
L 90.61267 218.11572 
L 91.37358 218.11572 
L 91.37358 217.606201 
L 93.656307 217.521281 
L 93.656307 217.492974 
L 94.417216 217.492974 
L 94.417216 216.926841 
L 95.178125 216.926841 
L 95.178125 217.096681 
L 95.939034 217.096681 
L 95.939034 216.672081 
L 96.699943 216.672081 
L 96.699943 216.445628 
L 97.460852 216.445628 
L 97.460852 215.879495 
L 98.221761 215.879495 
L 98.221761 215.992721 
L 98.98267 215.992721 
L 98.98267 216.558854 
L 99.74358 216.558854 
L 99.74358 215.313361 
L 100.504489 215.313361 
L 100.504489 215.171828 
L 102.026307 215.228441 
L 102.026307 213.784802 
L 102.787216 213.784802 
L 102.787216 213.162056 
L 103.548125 213.162056 
L 103.548125 212.765762 
L 104.309034 212.765762 
L 104.309034 211.60519 
L 105.069943 211.60519 
L 105.069943 211.803336 
L 105.830852 211.803336 
L 105.830852 210.24647 
L 106.591761 210.24647 
L 106.591761 209.39727 
L 107.35267 209.39727 
L 107.35267 207.217658 
L 108.11358 207.217658 
L 108.11358 206.849671 
L 108.874489 206.849671 
L 108.874489 204.245459 
L 109.635398 204.245459 
L 109.635398 203.707633 
L 110.396307 203.707633 
L 110.396307 201.980927 
L 111.157216 201.980927 
L 111.157216 197.197102 
L 111.918125 197.197102 
L 111.918125 197.791542 
L 112.679034 197.791542 
L 112.679034 195.923302 
L 113.439943 195.923302 
L 113.439943 192.158517 
L 114.200852 192.158517 
L 114.200852 188.280505 
L 114.961761 188.280505 
L 114.961761 186.751946 
L 115.72267 186.751946 
L 115.72267 182.562561 
L 116.48358 182.562561 
L 116.48358 180.524482 
L 117.244489 180.524482 
L 117.244489 173.561045 
L 118.005398 173.561045 
L 118.005398 172.768458 
L 118.766307 172.768458 
L 118.766307 170.192553 
L 119.527216 170.192553 
L 119.527216 168.579073 
L 120.288125 168.579073 
L 120.288125 160.65321 
L 121.049034 160.65321 
L 121.049034 158.841584 
L 121.809943 158.841584 
L 121.809943 160.14369 
L 122.570852 160.14369 
L 122.570852 151.312013 
L 123.331761 151.312013 
L 123.331761 146.330042 
L 124.09267 146.330042 
L 124.09267 141.348071 
L 124.85358 141.348071 
L 124.85358 141.036698 
L 125.614489 141.036698 
L 125.614489 134.356327 
L 126.375398 134.356327 
L 126.375398 124.647144 
L 127.136307 124.647144 
L 127.136307 119.750093 
L 127.897216 119.750093 
L 127.897216 117.542174 
L 128.658125 117.542174 
L 128.658125 117.91016 
L 129.419034 117.91016 
L 129.419034 114.060455 
L 130.179943 114.060455 
L 130.179943 98.689941 
L 130.940852 98.689941 
L 130.940852 106.559191 
L 131.701761 106.559191 
L 131.701761 101.718753 
L 132.46267 101.718753 
L 132.46267 88.414625 
L 133.22358 88.414625 
L 133.22358 93.02861 
L 133.984489 93.02861 
L 133.984489 82.272081 
L 134.745398 82.272081 
L 134.745398 73.865004 
L 135.506307 73.865004 
L 135.506307 68.458433 
L 136.267216 68.458433 
L 136.267216 67.750767 
L 137.028125 67.750767 
L 137.028125 63.136782 
L 137.789034 63.136782 
L 137.789034 67.12802 
L 138.549943 67.12802 
L 138.549943 65.429621 
L 139.310852 65.429621 
L 139.310852 66.307127 
L 140.071761 66.307127 
L 140.071761 48.983454 
L 140.83267 48.983454 
L 140.83267 60.702409 
L 141.59358 60.702409 
L 141.59358 51.531053 
L 142.354489 51.531053 
L 142.354489 52.465173 
L 143.115398 52.465173 
L 143.115398 47.511508 
L 143.876307 47.511508 
L 143.876307 44.737456 
L 144.637216 44.737456 
L 144.637216 54.871238 
L 145.398125 54.871238 
L 145.398125 41.56711 
L 146.159034 41.56711 
L 146.159034 39.019511 
L 146.919943 39.019511 
L 146.919943 47.001988 
L 147.680852 47.001988 
L 147.680852 38.934591 
L 148.441761 38.934591 
L 148.441761 53.257759 
L 149.20267 53.257759 
L 149.20267 45.728189 
L 149.96358 45.728189 
L 149.96358 32.650514 
L 150.724489 32.650514 
L 150.724489 47.086908 
L 151.485398 47.086908 
L 151.485398 44.652536 
L 152.246307 44.652536 
L 152.246307 36.330379 
L 153.007216 36.330379 
L 153.007216 41.793564 
L 153.768125 41.793564 
L 153.768125 46.860455 
L 154.529034 46.860455 
L 154.529034 38.198618 
L 155.289943 38.198618 
L 155.289943 41.510497 
L 156.050852 41.510497 
L 156.050852 41.73695 
L 156.811761 41.73695 
L 156.811761 51.785813 
L 157.57267 51.785813 
L 157.57267 36.528526 
L 158.33358 36.528526 
L 158.33358 40.038551 
L 159.094489 40.038551 
L 159.094489 40.661297 
L 159.855398 40.661297 
L 159.855398 48.275788 
L 160.616307 48.275788 
L 160.616307 46.634002 
L 161.377216 46.634002 
L 161.377216 34.88674 
L 162.138125 34.88674 
L 162.138125 35.198113 
L 162.899034 35.198113 
L 162.899034 40.293311 
L 163.659943 40.293311 
L 163.659943 48.389014 
L 164.420852 48.389014 
L 164.420852 43.18059 
L 165.181761 43.18059 
L 165.181761 44.369469 
L 165.94267 44.369469 
L 165.94267 46.605695 
L 166.70358 46.605695 
L 166.70358 56.597944 
L 167.464489 56.597944 
L 167.464489 47.568121 
L 168.225398 47.568121 
L 168.225398 54.758012 
L 168.986307 54.758012 
L 168.986307 41.39727 
L 169.747216 41.39727 
L 169.747216 45.501735 
L 170.508125 45.501735 
L 170.508125 50.568627 
L 171.269034 50.568627 
L 171.269034 54.559865 
L 172.029943 54.559865 
L 172.029943 57.701904 
L 172.790852 57.701904 
L 172.790852 51.64428 
L 173.551761 51.64428 
L 173.551761 67.0431 
L 174.31267 67.0431 
L 174.31267 62.457422 
L 175.07358 62.457422 
L 175.07358 61.494996 
L 175.834489 61.494996 
L 175.834489 70.100219 
L 176.595398 70.100219 
L 176.595398 75.563404 
L 177.356307 75.563404 
L 177.356307 72.393058 
L 178.117216 72.393058 
L 178.117216 73.072418 
L 178.878125 73.072418 
L 178.878125 67.8923 
L 179.639034 67.8923 
L 179.639034 64.835181 
L 180.399943 64.835181 
L 180.399943 76.808896 
L 181.160852 76.808896 
L 181.160852 83.97048 
L 181.921761 83.97048 
L 181.921761 81.819174 
L 182.68267 81.819174 
L 182.68267 75.393564 
L 183.44358 75.393564 
L 183.44358 100.89786 
L 184.204489 100.89786 
L 184.204489 92.68893 
L 184.965398 92.68893 
L 184.965398 90.848997 
L 185.726307 90.848997 
L 185.726307 92.151104 
L 186.487216 92.151104 
L 186.487216 89.575198 
L 187.248125 89.575198 
L 187.248125 81.253041 
L 188.009034 81.253041 
L 188.009034 106.615805 
L 188.769943 106.615805 
L 188.769943 93.566436 
L 189.530852 93.566436 
L 189.530852 91.500051 
L 190.291761 91.500051 
L 190.291761 114.371828 
L 191.05267 114.371828 
L 191.05267 105.540152 
L 191.81358 105.540152 
L 191.81358 102.42642 
L 192.574489 102.42642 
L 192.574489 108.76711 
L 193.335398 108.76711 
L 193.335398 104.521112 
L 194.096307 104.521112 
L 194.096307 108.625577 
L 194.857216 108.625577 
L 194.857216 112.560202 
L 195.618125 112.560202 
L 195.618125 108.710497 
L 196.379034 108.710497 
L 196.379034 113.720775 
L 197.139943 113.720775 
L 197.139943 112.758349 
L 197.900852 112.758349 
L 197.900852 112.928189 
L 198.661761 112.928189 
L 198.661761 106.729031 
L 199.42267 106.729031 
L 199.42267 118.957506 
L 200.18358 118.957506 
L 200.18358 125.60957 
L 200.944489 125.60957 
L 200.944489 121.222039 
L 201.705398 121.222039 
L 201.705398 123.231811 
L 202.466307 123.231811 
L 202.466307 125.666184 
L 203.227216 125.666184 
L 203.227216 124.505611 
L 203.988125 124.505611 
L 203.988125 124.760371 
L 204.749034 124.760371 
L 204.749034 122.099545 
L 205.509943 122.099545 
L 205.509943 124.873597 
L 206.270852 124.873597 
L 206.270852 132.261634 
L 207.031761 132.261634 
L 207.031761 126.741837 
L 207.79267 126.741837 
L 207.79267 133.082527 
L 208.55358 133.082527 
L 208.55358 136.847313 
L 209.314489 136.847313 
L 209.314489 135.34706 
L 210.075398 135.34706 
L 210.075398 138.036192 
L 210.836307 138.036192 
L 210.836307 132.884381 
L 211.597216 132.884381 
L 211.597216 137.045459 
L 212.358125 137.045459 
L 212.358125 128.694996 
L 213.119034 128.694996 
L 213.119034 133.139141 
L 213.879943 133.139141 
L 213.879943 140.838551 
L 214.640852 140.838551 
L 214.640852 138.517405 
L 215.401761 138.517405 
L 215.401761 149.755147 
L 216.16267 149.755147 
L 216.16267 141.376377 
L 216.92358 141.376377 
L 216.92358 140.357338 
L 217.684489 140.357338 
L 217.684489 148.849334 
L 218.445398 148.849334 
L 218.445398 147.462308 
L 219.206307 147.462308 
L 219.206307 144.15043 
L 219.967216 144.15043 
L 219.967216 145.367616 
L 220.728125 145.367616 
L 220.728125 151.708307 
L 221.489034 151.708307 
L 221.489034 148.198281 
L 222.249943 148.198281 
L 222.249943 149.330548 
L 223.010852 149.330548 
L 223.010852 145.197776 
L 223.771761 145.197776 
L 223.771761 153.378399 
L 224.53267 153.378399 
L 224.53267 155.331559 
L 225.29358 155.331559 
L 225.29358 151.028947 
L 226.054489 151.028947 
L 226.054489 159.605864 
L 226.815398 159.605864 
L 226.815398 151.057254 
L 227.576307 151.057254 
L 227.576307 157.482864 
L 228.337216 157.482864 
L 228.337216 152.755653 
L 229.098125 152.755653 
L 229.098125 153.038719 
L 229.859034 153.038719 
L 229.859034 154.906959 
L 230.619943 154.906959 
L 230.619943 169.088593 
L 231.380852 169.088593 
L 231.380852 160.115383 
L 232.141761 160.115383 
L 232.141761 155.756158 
L 232.90267 155.756158 
L 232.90267 157.482864 
L 233.66358 157.482864 
L 233.66358 158.643437 
L 234.424489 158.643437 
L 234.424489 165.437035 
L 235.185398 165.437035 
L 235.185398 163.880168 
L 236.707216 163.795249 
L 236.707216 156.888425 
L 237.468125 156.888425 
L 237.468125 164.050008 
L 238.229034 164.050008 
L 238.229034 161.615636 
L 238.989943 161.615636 
L 238.989943 171.296512 
L 239.750852 171.296512 
L 239.750852 164.446302 
L 240.511761 164.446302 
L 240.511761 168.43754 
L 241.27267 168.43754 
L 241.27267 170.192553 
L 242.03358 170.192553 
L 242.03358 164.474608 
L 242.794489 164.474608 
L 242.794489 175.655737 
L 243.555398 175.655737 
L 243.555398 169.739646 
L 244.316307 169.739646 
L 244.316307 179.646976 
L 245.077216 179.646976 
L 245.077216 167.022207 
L 245.838125 167.022207 
L 245.838125 176.22187 
L 246.599034 176.22187 
L 246.599034 171.381432 
L 247.359943 171.381432 
L 247.359943 169.5415 
L 248.120852 169.5415 
L 248.120852 174.268711 
L 248.881761 174.268711 
L 248.881761 175.79727 
L 249.64267 175.79727 
L 249.64267 175.231137 
L 250.40358 175.231137 
L 250.40358 179.080842 
L 251.164489 179.080842 
L 251.164489 179.873429 
L 251.925398 179.873429 
L 251.925398 181.713361 
L 252.686307 181.713361 
L 252.686307 184.17604 
L 253.447216 184.17604 
L 253.447216 179.618669 
L 254.208125 179.618669 
L 254.208125 178.458096 
L 254.969034 178.458096 
L 254.969034 184.204347 
L 255.729943 184.204347 
L 255.729943 181.232148 
L 256.490852 181.232148 
L 256.490852 183.326841 
L 257.251761 183.326841 
L 257.251761 186.950093 
L 258.77358 186.921786 
L 258.77358 187.657759 
L 259.534489 187.657759 
L 259.534489 187.997439 
L 260.295398 187.997439 
L 260.295398 191.139478 
L 261.056307 191.139478 
L 261.056307 190.799798 
L 261.817216 190.799798 
L 261.817216 192.583117 
L 262.578125 192.583117 
L 262.578125 188.761719 
L 263.339034 188.761719 
L 263.339034 193.885223 
L 264.860852 193.885223 
L 264.860852 190.120438 
L 265.621761 190.120438 
L 265.621761 196.149756 
L 266.38267 196.149756 
L 266.38267 191.960371 
L 267.14358 191.960371 
L 267.14358 199.942848 
L 267.904489 199.942848 
L 267.904489 196.206369 
L 268.665398 196.206369 
L 268.665398 200.197607 
L 269.426307 200.197607 
L 269.426307 199.631474 
L 270.187216 199.631474 
L 270.187216 198.074608 
L 270.948125 198.074608 
L 270.948125 198.470901 
L 271.709034 198.470901 
L 271.709034 200.537287 
L 272.469943 200.537287 
L 272.469943 201.18834 
L 273.230852 201.18834 
L 273.230852 199.489941 
L 273.991761 199.489941 
L 273.991761 200.93358 
L 274.75267 200.93358 
L 274.75267 201.924313 
L 275.51358 201.924313 
L 275.51358 201.386487 
L 276.274489 201.386487 
L 276.274489 204.811592 
L 277.035398 204.811592 
L 277.035398 201.69786 
L 277.796307 201.69786 
L 277.796307 205.887245 
L 278.557216 205.887245 
L 278.557216 204.783286 
L 279.318125 204.783286 
L 279.318125 205.406032 
L 280.079034 205.406032 
L 280.079034 207.330885 
L 280.839943 207.330885 
L 280.839943 205.292805 
L 281.600852 205.292805 
L 281.600852 205.547565 
L 282.361761 205.547565 
L 282.361761 207.981938 
L 283.12267 207.981938 
L 283.12267 208.349924 
L 283.88358 208.349924 
L 283.88358 207.585644 
L 284.644489 207.585644 
L 284.644489 210.07663 
L 285.405398 210.07663 
L 285.405398 208.038551 
L 286.166307 208.038551 
L 286.166307 210.92583 
L 286.927216 210.92583 
L 286.927216 210.133243 
L 287.688125 210.133243 
L 287.688125 210.388003 
L 288.449034 210.388003 
L 288.449034 211.039056 
L 289.970852 211.067363 
L 289.970852 210.784297 
L 290.731761 210.784297 
L 290.731761 212.794069 
L 291.49267 212.794069 
L 291.49267 211.43535 
L 292.25358 211.43535 
L 292.25358 213.246976 
L 293.014489 213.246976 
L 293.014489 213.614962 
L 293.775398 213.614962 
L 293.775398 213.190362 
L 294.536307 213.190362 
L 294.536307 214.181095 
L 295.297216 214.181095 
L 295.297216 213.699882 
L 296.058125 213.699882 
L 296.058125 214.917068 
L 296.819034 214.917068 
L 296.819034 214.747228 
L 297.579943 214.747228 
L 297.579943 215.936108 
L 298.340852 215.936108 
L 298.340852 214.803842 
L 299.101761 214.803842 
L 299.101761 215.086908 
L 299.86267 215.086908 
L 299.86267 215.256748 
L 300.62358 215.256748 
L 300.62358 216.558854 
L 302.145398 216.558854 
L 302.145398 216.077641 
L 302.906307 216.077641 
L 302.906307 216.757001 
L 303.667216 216.757001 
L 303.667216 216.983454 
L 304.428125 216.983454 
L 304.428125 217.294827 
L 305.189034 217.294827 
L 305.189034 217.77604 
L 305.949943 217.77604 
L 305.949943 217.436361 
L 306.710852 217.436361 
L 306.710852 217.747734 
L 307.471761 217.747734 
L 307.471761 218.257254 
L 308.99358 218.228947 
L 308.99358 218.144027 
L 309.754489 218.144027 
L 309.754489 218.483707 
L 310.515398 218.483707 
L 310.515398 218.653547 
L 311.276307 218.653547 
L 311.276307 218.823387 
L 372.909943 218.88 
L 372.909943 218.88 
" clip-path="url(#p7f5ab060f2)" style="fill: none; stroke: #ff7f0e; stroke-width: 1.5; stroke-linecap: square"/>
   </g>
   <g id="line2d_19">
    <path d="M 68.546307 218.88 
L 75.394489 218.79508 
L 75.394489 218.766773 
L 77.677216 218.851693 
L 77.677216 218.653547 
L 83.764489 218.596933 
L 83.764489 218.37048 
L 84.525398 218.37048 
L 84.525398 218.257254 
L 85.286307 218.257254 
L 85.286307 218.512013 
L 86.047216 218.512013 
L 86.047216 218.37048 
L 86.808125 218.37048 
L 86.808125 218.257254 
L 87.569034 218.257254 
L 87.569034 218.144027 
L 88.329943 218.144027 
L 88.329943 218.28556 
L 89.090852 218.28556 
L 89.090852 217.94588 
L 89.851761 217.94588 
L 89.851761 217.832654 
L 90.61267 217.832654 
L 90.61267 218.0308 
L 91.37358 218.0308 
L 91.37358 217.747734 
L 92.134489 217.747734 
L 92.134489 217.436361 
L 93.656307 217.436361 
L 93.656307 217.096681 
L 94.417216 217.096681 
L 94.417216 217.209907 
L 95.939034 217.124987 
L 95.939034 216.841921 
L 96.699943 216.841921 
L 96.699943 216.445628 
L 97.460852 216.445628 
L 97.460852 216.247481 
L 98.221761 216.247481 
L 98.221761 215.936108 
L 99.74358 215.851188 
L 99.74358 215.511508 
L 100.504489 215.511508 
L 100.504489 214.832148 
L 102.787216 214.775535 
L 102.787216 213.077136 
L 103.548125 213.077136 
L 103.548125 212.794069 
L 104.309034 212.794069 
L 104.309034 211.973176 
L 105.069943 211.973176 
L 105.069943 211.576883 
L 105.830852 211.576883 
L 105.830852 209.99171 
L 106.591761 209.99171 
L 106.591761 208.208391 
L 108.11358 208.123471 
L 108.11358 206.538298 
L 108.874489 206.538298 
L 108.874489 204.953126 
L 109.635398 204.953126 
L 109.635398 203.820859 
L 110.396307 203.820859 
L 110.396307 200.537287 
L 111.157216 200.537287 
L 111.157216 199.121955 
L 111.918125 199.121955 
L 111.918125 196.715889 
L 112.679034 196.715889 
L 112.679034 195.243943 
L 113.439943 195.243943 
L 113.439943 191.847144 
L 114.200852 191.847144 
L 114.200852 189.242932 
L 114.961761 189.242932 
L 114.961761 186.893479 
L 115.72267 186.893479 
L 115.72267 182.392721 
L 116.48358 182.392721 
L 116.48358 179.562056 
L 117.244489 179.562056 
L 117.244489 174.410244 
L 118.005398 174.410244 
L 118.005398 173.108138 
L 118.766307 173.108138 
L 118.766307 169.428273 
L 119.527216 169.428273 
L 119.527216 166.654221 
L 120.288125 166.654221 
L 120.288125 164.531222 
L 121.049034 164.531222 
L 121.049034 158.784971 
L 121.809943 158.784971 
L 121.809943 155.841078 
L 122.570852 155.841078 
L 122.570852 151.17048 
L 123.331761 151.17048 
L 123.331761 148.283201 
L 124.09267 148.283201 
L 124.09267 142.338804 
L 124.85358 142.338804 
L 124.85358 134.639393 
L 125.614489 134.639393 
L 125.614489 134.441247 
L 126.375398 134.441247 
L 126.375398 129.430969 
L 127.136307 129.430969 
L 127.136307 121.023892 
L 127.897216 121.023892 
L 127.897216 118.41968 
L 128.658125 118.41968 
L 128.658125 111.088256 
L 129.419034 111.088256 
L 129.419034 111.201483 
L 130.179943 111.201483 
L 130.179943 108.568964 
L 130.940852 108.568964 
L 130.940852 100.360034 
L 131.701761 100.360034 
L 131.701761 97.869048 
L 132.46267 97.869048 
L 132.46267 95.264836 
L 133.22358 95.264836 
L 133.22358 85.555653 
L 133.984489 85.555653 
L 133.984489 81.592721 
L 134.745398 81.592721 
L 134.745398 76.78059 
L 135.506307 76.78059 
L 135.506307 70.043606 
L 136.267216 70.043606 
L 136.267216 69.222713 
L 137.028125 69.222713 
L 137.028125 65.259781 
L 137.789034 65.259781 
L 137.789034 64.750261 
L 138.549943 64.750261 
L 138.549943 66.844954 
L 139.310852 66.844954 
L 139.310852 55.210918 
L 140.071761 55.210918 
L 140.071761 57.815131 
L 140.83267 57.815131 
L 140.83267 57.616984 
L 141.59358 57.616984 
L 141.59358 53.257759 
L 142.354489 53.257759 
L 142.354489 50.483707 
L 143.115398 50.483707 
L 143.115398 51.64428 
L 143.876307 51.64428 
L 143.876307 50.568627 
L 144.637216 50.568627 
L 144.637216 41.65203 
L 145.398125 41.65203 
L 145.398125 46.492468 
L 146.159034 46.492468 
L 146.159034 43.916563 
L 146.919943 43.916563 
L 146.919943 45.530042 
L 147.680852 45.530042 
L 147.680852 44.086403 
L 148.441761 44.086403 
L 148.441761 43.576883 
L 149.20267 43.576883 
L 149.20267 44.624229 
L 149.96358 44.624229 
L 149.96358 45.671575 
L 150.724489 45.671575 
L 150.724489 42.75599 
L 151.485398 42.75599 
L 151.485398 40.717911 
L 152.246307 40.717911 
L 152.246307 41.99171 
L 153.007216 41.99171 
L 153.007216 39.698871 
L 153.768125 39.698871 
L 153.768125 38.425072 
L 154.529034 38.425072 
L 154.529034 39.274271 
L 155.289943 39.274271 
L 155.289943 40.604684 
L 156.050852 40.604684 
L 156.050852 47.256748 
L 156.811761 47.256748 
L 156.811761 39.189351 
L 157.57267 39.189351 
L 157.57267 46.237709 
L 158.33358 46.237709 
L 158.33358 44.284549 
L 159.094489 44.284549 
L 159.094489 43.378736 
L 159.855398 43.378736 
L 159.855398 40.802831 
L 160.616307 40.802831 
L 160.616307 37.660792 
L 161.377216 37.660792 
L 161.377216 44.143016 
L 162.138125 44.143016 
L 162.138125 41.99171 
L 162.899034 41.99171 
L 162.899034 43.548576 
L 163.659943 43.548576 
L 163.659943 43.09567 
L 164.420852 43.09567 
L 164.420852 45.445122 
L 165.181761 45.445122 
L 165.181761 44.426083 
L 165.94267 44.426083 
L 165.94267 53.002999 
L 166.70358 53.002999 
L 166.70358 47.313361 
L 167.464489 47.313361 
L 167.464489 48.190868 
L 168.225398 48.190868 
L 168.225398 50.0308 
L 168.986307 50.0308 
L 168.986307 48.587161 
L 169.747216 48.587161 
L 169.747216 48.049334 
L 170.508125 48.049334 
L 170.508125 49.577894 
L 171.269034 49.577894 
L 171.269034 50.96492 
L 172.029943 50.96492 
L 172.029943 56.145038 
L 172.790852 56.145038 
L 172.790852 57.277304 
L 173.551761 57.277304 
L 173.551761 62.372502 
L 174.31267 62.372502 
L 174.31267 65.542848 
L 175.07358 65.542848 
L 175.07358 65.005021 
L 175.834489 65.005021 
L 175.834489 66.95818 
L 176.595398 66.95818 
L 176.595398 69.364246 
L 177.356307 69.364246 
L 177.356307 73.157338 
L 178.117216 73.157338 
L 178.117216 71.345712 
L 178.878125 71.345712 
L 178.878125 71.940152 
L 179.639034 71.940152 
L 179.639034 77.403336 
L 180.399943 77.403336 
L 180.399943 76.157843 
L 181.160852 76.157843 
L 181.160852 78.309149 
L 181.921761 78.309149 
L 181.921761 80.318922 
L 182.68267 80.318922 
L 182.68267 85.867026 
L 183.44358 85.867026 
L 183.44358 88.867532 
L 184.204489 88.867532 
L 184.204489 88.697692 
L 184.965398 88.697692 
L 184.965398 93.481516 
L 185.726307 93.481516 
L 185.726307 91.330211 
L 186.487216 91.330211 
L 186.487216 94.04765 
L 187.248125 94.04765 
L 187.248125 92.207717 
L 188.009034 92.207717 
L 188.009034 93.255063 
L 188.769943 93.255063 
L 188.769943 99.482527 
L 189.530852 99.482527 
L 189.530852 100.529874 
L 190.291761 100.529874 
L 190.291761 104.096512 
L 191.05267 104.096512 
L 191.05267 101.803673 
L 191.81358 101.803673 
L 191.81358 106.729031 
L 192.574489 106.729031 
L 192.574489 108.93695 
L 193.335398 108.93695 
L 193.335398 105.398618 
L 194.096307 105.398618 
L 194.096307 107.691457 
L 194.857216 107.691457 
L 194.857216 109.503083 
L 195.618125 109.503083 
L 195.618125 108.257591 
L 196.379034 108.257591 
L 196.379034 109.672923 
L 197.139943 109.672923 
L 197.139943 116.183454 
L 197.900852 116.183454 
L 197.900852 113.834002 
L 198.661761 113.834002 
L 198.661761 113.494322 
L 199.42267 113.494322 
L 199.42267 115.447481 
L 200.18358 115.447481 
L 200.18358 119.891626 
L 200.944489 119.891626 
L 200.944489 122.156158 
L 201.705398 122.156158 
L 201.705398 123.684718 
L 202.466307 123.684718 
L 202.466307 125.241584 
L 203.227216 125.241584 
L 203.227216 123.061971 
L 203.988125 123.061971 
L 203.988125 123.741331 
L 204.749034 123.741331 
L 204.749034 127.959023 
L 205.509943 127.959023 
L 205.509943 127.279663 
L 206.270852 127.279663 
L 206.270852 127.421196 
L 207.031761 127.421196 
L 207.031761 129.232822 
L 207.79267 129.232822 
L 207.79267 130.846302 
L 208.55358 130.846302 
L 208.55358 131.072755 
L 209.314489 131.072755 
L 209.314489 135.884886 
L 210.836307 135.913193 
L 210.836307 137.158686 
L 212.358125 137.102072 
L 212.358125 136.337793 
L 213.119034 136.337793 
L 213.119034 135.17722 
L 213.879943 135.17722 
L 213.879943 141.234844 
L 214.640852 141.234844 
L 214.640852 135.969806 
L 215.401761 135.969806 
L 215.401761 141.857591 
L 216.16267 141.857591 
L 216.16267 141.348071 
L 216.92358 141.348071 
L 216.92358 144.06551 
L 218.445398 143.98059 
L 218.445398 147.235855 
L 219.206307 147.235855 
L 219.206307 146.499882 
L 219.967216 146.499882 
L 219.967216 149.840067 
L 220.728125 149.840067 
L 220.728125 146.273429 
L 221.489034 146.273429 
L 221.489034 151.00064 
L 222.249943 151.00064 
L 222.249943 148.651188 
L 223.010852 148.651188 
L 223.010852 149.387161 
L 223.771761 149.387161 
L 223.771761 150.689267 
L 224.53267 150.689267 
L 224.53267 152.755653 
L 225.29358 152.755653 
L 225.29358 152.61412 
L 226.054489 152.61412 
L 226.054489 153.406706 
L 226.815398 153.406706 
L 226.815398 155.614625 
L 227.576307 155.614625 
L 227.576307 156.463825 
L 228.337216 156.463825 
L 228.337216 155.020185 
L 229.098125 155.020185 
L 229.098125 155.586318 
L 229.859034 155.586318 
L 229.859034 157.567784 
L 230.619943 157.567784 
L 230.619943 159.71909 
L 231.380852 159.71909 
L 231.380852 155.784465 
L 232.141761 155.784465 
L 232.141761 159.747397 
L 232.90267 159.747397 
L 232.90267 160.22861 
L 233.66358 160.22861 
L 233.66358 163.880168 
L 234.424489 163.880168 
L 234.424489 161.757169 
L 235.185398 161.757169 
L 235.185398 162.974356 
L 235.946307 162.974356 
L 235.946307 163.314035 
L 236.707216 163.314035 
L 236.707216 162.351609 
L 237.468125 162.351609 
L 237.468125 164.248155 
L 238.229034 164.248155 
L 238.229034 165.323808 
L 238.989943 165.323808 
L 238.989943 165.012435 
L 239.750852 165.012435 
L 239.750852 167.135434 
L 240.511761 167.135434 
L 240.511761 166.286234 
L 241.27267 166.286234 
L 241.27267 167.078821 
L 242.03358 167.078821 
L 242.03358 170.249166 
L 242.794489 170.249166 
L 242.794489 172.343858 
L 243.555398 172.343858 
L 243.555398 170.956832 
L 244.316307 170.956832 
L 244.316307 172.315552 
L 245.077216 172.315552 
L 245.077216 173.504431 
L 245.838125 173.504431 
L 245.838125 172.626925 
L 246.599034 172.626925 
L 246.599034 170.702072 
L 247.359943 170.702072 
L 247.359943 174.948071 
L 248.120852 174.948071 
L 248.120852 175.655737 
L 248.881761 175.655737 
L 248.881761 174.721618 
L 249.64267 174.721618 
L 249.64267 176.023724 
L 250.40358 176.023724 
L 250.40358 178.00519 
L 251.164489 178.00519 
L 251.164489 179.505442 
L 251.925398 179.505442 
L 251.925398 178.769469 
L 252.686307 178.769469 
L 252.686307 181.515215 
L 253.447216 181.515215 
L 253.447216 182.562561 
L 254.208125 182.562561 
L 254.208125 182.279495 
L 254.969034 182.279495 
L 254.969034 181.543521 
L 255.729943 181.543521 
L 255.729943 183.694827 
L 256.490852 183.694827 
L 256.490852 183.496681 
L 257.251761 183.496681 
L 257.251761 185.02524 
L 258.01267 185.02524 
L 258.01267 187.686066 
L 258.77358 187.686066 
L 258.77358 186.553799 
L 259.534489 186.553799 
L 259.534489 188.422039 
L 260.295398 188.422039 
L 260.295398 191.365931 
L 261.056307 191.365931 
L 261.056307 189.271238 
L 261.817216 189.271238 
L 261.817216 191.281011 
L 262.578125 191.281011 
L 262.578125 192.158517 
L 263.339034 192.158517 
L 263.339034 191.167784 
L 264.099943 191.167784 
L 264.099943 191.903757 
L 264.860852 191.903757 
L 264.860852 195.017489 
L 265.621761 195.017489 
L 265.621761 194.224903 
L 266.38267 194.224903 
L 266.38267 195.017489 
L 267.14358 195.017489 
L 267.14358 196.008222 
L 267.904489 196.008222 
L 267.904489 197.536782 
L 268.665398 197.536782 
L 268.665398 199.065341 
L 270.948125 199.093648 
L 270.948125 198.725661 
L 271.709034 198.725661 
L 271.709034 199.405021 
L 272.469943 199.405021 
L 272.469943 199.659781 
L 273.230852 199.659781 
L 273.230852 201.10342 
L 273.991761 201.10342 
L 273.991761 200.93358 
L 274.75267 200.93358 
L 274.75267 201.131727 
L 275.51358 201.131727 
L 275.51358 201.471407 
L 276.274489 201.471407 
L 276.274489 202.7169 
L 277.035398 202.7169 
L 277.035398 203.990699 
L 277.796307 203.990699 
L 277.796307 204.528526 
L 278.557216 204.528526 
L 278.557216 204.981432 
L 279.318125 204.981432 
L 279.318125 206.057085 
L 280.839943 206.142005 
L 280.839943 205.887245 
L 281.600852 205.887245 
L 281.600852 207.047818 
L 282.361761 207.047818 
L 282.361761 207.302578 
L 283.12267 207.302578 
L 283.12267 207.953631 
L 283.88358 207.953631 
L 283.88358 209.142511 
L 284.644489 209.142511 
L 284.644489 208.293311 
L 285.405398 208.293311 
L 285.405398 209.623724 
L 286.166307 209.623724 
L 286.166307 209.90679 
L 286.927216 209.90679 
L 286.927216 210.020017 
L 287.688125 210.020017 
L 287.688125 211.69011 
L 288.449034 211.69011 
L 288.449034 210.727683 
L 289.209943 210.727683 
L 289.209943 210.58615 
L 289.970852 210.58615 
L 289.970852 210.954136 
L 290.731761 210.954136 
L 290.731761 212.199629 
L 291.49267 212.199629 
L 291.49267 212.086403 
L 292.25358 212.086403 
L 292.25358 212.256243 
L 293.014489 212.256243 
L 293.014489 214.039562 
L 293.775398 214.039562 
L 293.775398 213.756495 
L 294.536307 213.756495 
L 294.536307 213.898029 
L 296.058125 213.841415 
L 296.058125 214.775535 
L 297.579943 214.690615 
L 297.579943 215.539815 
L 298.340852 215.539815 
L 298.340852 215.030295 
L 299.86267 215.058602 
L 299.86267 215.539815 
L 300.62358 215.539815 
L 300.62358 216.105948 
L 301.384489 216.105948 
L 301.384489 216.530548 
L 302.145398 216.530548 
L 302.145398 216.389014 
L 302.906307 216.389014 
L 302.906307 216.870227 
L 304.428125 216.785307 
L 304.428125 217.294827 
L 305.189034 217.294827 
L 305.189034 217.69112 
L 305.949943 217.69112 
L 305.949943 217.549587 
L 306.710852 217.549587 
L 306.710852 217.86096 
L 307.471761 217.86096 
L 307.471761 218.144027 
L 308.99358 218.11572 
L 308.99358 218.28556 
L 310.515398 218.37048 
L 310.515398 218.653547 
L 312.798125 218.681853 
L 312.798125 218.79508 
L 372.909943 218.88 
L 372.909943 218.88 
" clip-path="url(#p7f5ab060f2)" style="fill: none; stroke: #2ca02c; stroke-width: 1.5; stroke-linecap: square"/>
   </g>
   <g id="patch_3">
    <path d="M 53.328125 228.96 
L 53.328125 7.2 
" style="fill: none; stroke: #000000; stroke-width: 0.8; stroke-linejoin: miter; stroke-linecap: square"/>
   </g>
   <g id="patch_4">
    <path d="M 388.128125 228.96 
L 388.128125 7.2 
" style="fill: none; stroke: #000000; stroke-width: 0.8; stroke-linejoin: miter; stroke-linecap: square"/>
   </g>
   <g id="patch_5">
    <path d="M 53.328125 228.96 
L 388.128125 228.96 
" style="fill: none; stroke: #000000; stroke-width: 0.8; stroke-linejoin: miter; stroke-linecap: square"/>
   </g>
   <g id="patch_6">
    <path d="M 53.328125 7.2 
L 388.128125 7.2 
" style="fill: none; stroke: #000000; stroke-width: 0.8; stroke-linejoin: miter; stroke-linecap: square"/>
   </g>
   <g id="legend_1">
    <g id="patch_7">
     <path d="M 306.904688 59.234375 
L 381.128125 59.234375 
Q 383.128125 59.234375 383.128125 57.234375 
L 383.128125 14.2 
Q 383.128125 12.2 381.128125 12.2 
L 306.904688 12.2 
Q 304.904688 12.2 304.904688 14.2 
L 304.904688 57.234375 
Q 304.904688 59.234375 306.904688 59.234375 
z
" style="fill: #ffffff; opacity: 0.8; stroke: #cccccc; stroke-linejoin: miter"/>
    </g>
    <g id="line2d_20">
     <path d="M 308.904688 20.298438 
L 308.904688 20.298438 
L 318.904688 20.298438 
L 318.904688 20.298438 
L 328.904688 20.298438 
" style="fill: none; stroke: #1f77b4; stroke-width: 1.5; stroke-linecap: square"/>
    </g>
    <g id="text_19">
     <!-- monitor -->
     <g transform="translate(336.904688 23.798438) scale(0.1 -0.1)">
      <defs>
       <path id="DejaVuSans-6d" d="M 3328 2828 
Q 3544 3216 3844 3400 
Q 4144 3584 4550 3584 
Q 5097 3584 5394 3201 
Q 5691 2819 5691 2113 
L 5691 0 
L 5113 0 
L 5113 2094 
Q 5113 2597 4934 2840 
Q 4756 3084 4391 3084 
Q 3944 3084 3684 2787 
Q 3425 2491 3425 1978 
L 3425 0 
L 2847 0 
L 2847 2094 
Q 2847 2600 2669 2842 
Q 2491 3084 2119 3084 
Q 1678 3084 1418 2786 
Q 1159 2488 1159 1978 
L 1159 0 
L 581 0 
L 581 3500 
L 1159 3500 
L 1159 2956 
Q 1356 3278 1631 3431 
Q 1906 3584 2284 3584 
Q 2666 3584 2933 3390 
Q 3200 3197 3328 2828 
z
" transform="scale(0.015625)"/>
       <path id="DejaVuSans-69" d="M 603 3500 
L 1178 3500 
L 1178 0 
L 603 0 
L 603 3500 
z
M 603 4863 
L 1178 4863 
L 1178 4134 
L 603 4134 
L 603 4863 
z
" transform="scale(0.015625)"/>
       <path id="DejaVuSans-72" d="M 2631 2963 
Q 2534 3019 2420 3045 
Q 2306 3072 2169 3072 
Q 1681 3072 1420 2755 
Q 1159 2438 1159 1844 
L 1159 0 
L 581 0 
L 581 3500 
L 1159 3500 
L 1159 2956 
Q 1341 3275 1631 3429 
Q 1922 3584 2338 3584 
Q 2397 3584 2469 3576 
Q 2541 3569 2628 3553 
L 2631 2963 
z
" transform="scale(0.015625)"/>
      </defs>
      <use xlink:href="#DejaVuSans-6d"/>
      <use xlink:href="#DejaVuSans-6f" transform="translate(97.412109 0)"/>
      <use xlink:href="#DejaVuSans-6e" transform="translate(158.59375 0)"/>
      <use xlink:href="#DejaVuSans-69" transform="translate(221.972656 0)"/>
      <use xlink:href="#DejaVuSans-74" transform="translate(249.755859 0)"/>
      <use xlink:href="#DejaVuSans-6f" transform="translate(288.964844 0)"/>
      <use xlink:href="#DejaVuSans-72" transform="translate(350.146484 0)"/>
     </g>
    </g>
    <g id="line2d_21">
     <path d="M 308.904688 34.976562 
L 308.904688 34.976562 
L 318.904688 34.976562 
L 318.904688 34.976562 
L 328.904688 34.976562 
" style="fill: none; stroke: #ff7f0e; stroke-width: 1.5; stroke-linecap: square"/>
    </g>
    <g id="text_20">
     <!-- detector -->
     <g transform="translate(336.904688 38.476562) scale(0.1 -0.1)">
      <defs>
       <path id="DejaVuSans-64" d="M 2906 2969 
L 2906 4863 
L 3481 4863 
L 3481 0 
L 2906 0 
L 2906 525 
Q 2725 213 2448 61 
Q 2172 -91 1784 -91 
Q 1150 -91 751 415 
Q 353 922 353 1747 
Q 353 2572 751 3078 
Q 1150 3584 1784 3584 
Q 2172 3584 2448 3432 
Q 2725 3281 2906 2969 
z
M 947 1747 
Q 947 1113 1208 752 
Q 1469 391 1925 391 
Q 2381 391 2643 752 
Q 2906 1113 2906 1747 
Q 2906 2381 2643 2742 
Q 2381 3103 1925 3103 
Q 1469 3103 1208 2742 
Q 947 2381 947 1747 
z
" transform="scale(0.015625)"/>
      </defs>
      <use xlink:href="#DejaVuSans-64"/>
      <use xlink:href="#DejaVuSans-65" transform="translate(63.476562 0)"/>
      <use xlink:href="#DejaVuSans-74" transform="translate(125 0)"/>
      <use xlink:href="#DejaVuSans-65" transform="translate(164.208984 0)"/>
      <use xlink:href="#DejaVuSans-63" transform="translate(225.732422 0)"/>
      <use xlink:href="#DejaVuSans-74" transform="translate(280.712891 0)"/>
      <use xlink:href="#DejaVuSans-6f" transform="translate(319.921875 0)"/>
      <use xlink:href="#DejaVuSans-72" transform="translate(381.103516 0)"/>
     </g>
    </g>
    <g id="line2d_22">
     <path d="M 308.904688 49.654688 
L 308.904688 49.654688 
L 318.904688 49.654688 
L 318.904688 49.654688 
L 328.904688 49.654688 
" style="fill: none; stroke: #2ca02c; stroke-width: 1.5; stroke-linecap: square"/>
    </g>
    <g id="text_21">
     <!-- true -->
     <g transform="translate(336.904688 53.154688) scale(0.1 -0.1)">
      <use xlink:href="#DejaVuSans-74"/>
      <use xlink:href="#DejaVuSans-72" transform="translate(39.208984 0)"/>
      <use xlink:href="#DejaVuSans-75" transform="translate(80.322266 0)"/>
      <use xlink:href="#DejaVuSans-65" transform="translate(143.701172 0)"/>
     </g>
    </g>
   </g>
  </g>
 </g>
 <defs>
  <clipPath id="p7f5ab060f2">
   <rect x="53.328125" y="7.2" width="334.8" height="221.76"/>
  </clipPath>
 </defs>
</svg>
