<?xml version="1.0" encoding="utf-8" standalone="no"?>
<!DOCTYPE svg PUBLIC "-//W3C//DTD SVG 1.1//EN"
  "http://www.w3.org/Graphics/SVG/1.1/DTD/svg11.dtd">
<svg xmlns:xlink="http://www.w3.org/1999/xlink" width="872.39952pt" height="296.39952pt" viewBox="0 0 872.39952 296.39952" xmlns="http://www.w3.org/2000/svg" version="1.1">
 <metadata>
  <rdf:RDF xmlns:dc="http://purl.org/dc/elements/1.1/" xmlns:cc="http://creativecommons.org/ns#" xmlns:rdf="http://www.w3.org/1999/02/22-rdf-syntax-ns#">
   <cc:Work>
    <dc:type rdf:resource="http://purl.org/dc/dcmitype/StillImage"/>
    <dc:date>2026-04-23T13:17:07.754541</dc:date>
    <dc:format>image/svg+xml</dc:format>
    <dc:creator>
     <cc:Agent>
      <dc:title>Matplotlib v3.10.8, https://matplotlib.org/</dc:title>
     </cc:Agent>
    </dc:creator>
   </cc:Work>
  </rdf:RDF>
 </metadata>
 <defs>
  <style type="text/css">*{stroke-linejoin: round; stroke-linecap: butt}</style>
 </defs>
 <g id="figure_1">
  <g id="patch_1">
   <path d="M 0 296.39952 
L 872.39952 296.39952 
L 872.39952 0 
L 0 0 
z
" style="fill: #ffffff"/>
  </g>
  <g id="axes_1">
   <g id="patch_2">
    <path d="M 46.965625 257.158895 
L 414.59976 257.158895 
L 414.59976 22.318125 
L 46.965625 22.318125 
z
" style="fill: #ffffff"/>
   </g>
   <g id="matplotlib.axis_1">
    <g id="xtick_1">
     <g id="line2d_1">
      <defs>
       <path id="mbf9a23f6bf" d="M 0 0 
L 0 3.5 
" style="stroke: #000000; stroke-width: 0.8"/>
      </defs>
      <g>
       <use xlink:href="#mbf9a23f6bf" x="81.266418" y="257.158895" style="stroke: #000000; stroke-width: 0.8"/>
      </g>
     </g>
     <g id="text_1">
      <!-- 1.0 -->
      <g transform="translate(73.314855 271.757332) scale(0.1 -0.1)">
       <defs>
        <path id="DejaVuSans-31" d="M 794 531 
L 1825 531 
L 1825 4091 
L 703 3866 
L 703 4441 
L 1819 4666 
L 2450 4666 
L 2450 531 
L 3481 531 
L 3481 0 
L 794 0 
L 794 531 
z
" transform="scale(0.015625)"/>
        <path id="DejaVuSans-2e" d="M 684 794 
L 1344 794 
L 1344 0 
L 684 0 
L 684 794 
z
" transform="scale(0.015625)"/>
        <path id="DejaVuSans-30" d="M 2034 4250 
Q 1547 4250 1301 3770 
Q 1056 3291 1056 2328 
Q 1056 1369 1301 889 
Q 1547 409 2034 409 
Q 2525 409 2770 889 
Q 3016 1369 3016 2328 
Q 3016 3291 2770 3770 
Q 2525 4250 2034 4250 
z
M 2034 4750 
Q 2819 4750 3233 4129 
Q 3647 3509 3647 2328 
Q 3647 1150 3233 529 
Q 2819 -91 2034 -91 
Q 1250 -91 836 529 
Q 422 1150 422 2328 
Q 422 3509 836 4129 
Q 1250 4750 2034 4750 
z
" transform="scale(0.015625)"/>
       </defs>
       <use xlink:href="#DejaVuSans-31"/>
       <use xlink:href="#DejaVuSans-2e" transform="translate(63.623047 0)"/>
       <use xlink:href="#DejaVuSans-30" transform="translate(95.410156 0)"/>
      </g>
     </g>
    </g>
    <g id="xtick_2">
     <g id="line2d_2">
      <g>
       <use xlink:href="#mbf9a23f6bf" x="125.241793" y="257.158895" style="stroke: #000000; stroke-width: 0.8"/>
      </g>
     </g>
     <g id="text_2">
      <!-- 1.5 -->
      <g transform="translate(117.29023 271.757332) scale(0.1 -0.1)">
       <defs>
        <path id="DejaVuSans-35" d="M 691 4666 
L 3169 4666 
L 3169 4134 
L 1269 4134 
L 1269 2991 
Q 1406 3038 1543 3061 
Q 1681 3084 1819 3084 
Q 2600 3084 3056 2656 
Q 3513 2228 3513 1497 
Q 3513 744 3044 326 
Q 2575 -91 1722 -91 
Q 1428 -91 1123 -41 
Q 819 9 494 109 
L 494 744 
Q 775 591 1075 516 
Q 1375 441 1709 441 
Q 2250 441 2565 725 
Q 2881 1009 2881 1497 
Q 2881 1984 2565 2268 
Q 2250 2553 1709 2553 
Q 1456 2553 1204 2497 
Q 953 2441 691 2322 
L 691 4666 
z
" transform="scale(0.015625)"/>
       </defs>
       <use xlink:href="#DejaVuSans-31"/>
       <use xlink:href="#DejaVuSans-2e" transform="translate(63.623047 0)"/>
       <use xlink:href="#DejaVuSans-35" transform="translate(95.410156 0)"/>
      </g>
     </g>
    </g>
    <g id="xtick_3">
     <g id="line2d_3">
      <g>
       <use xlink:href="#mbf9a23f6bf" x="169.217168" y="257.158895" style="stroke: #000000; stroke-width: 0.8"/>
      </g>
     </g>
     <g id="text_3">
      <!-- 2.0 -->
      <g transform="translate(161.265605 271.757332) scale(0.1 -0.1)">
       <defs>
        <path id="DejaVuSans-32" d="M 1228 531 
L 3431 531 
L 3431 0 
L 469 0 
L 469 531 
Q 828 903 1448 1529 
Q 2069 2156 2228 2338 
Q 2531 2678 2651 2914 
Q 2772 3150 2772 3378 
Q 2772 3750 2511 3984 
Q 2250 4219 1831 4219 
Q 1534 4219 1204 4116 
Q 875 4013 500 3803 
L 500 4441 
Q 881 4594 1212 4672 
Q 1544 4750 1819 4750 
Q 2544 4750 2975 4387 
Q 3406 4025 3406 3419 
Q 3406 3131 3298 2873 
Q 3191 2616 2906 2266 
Q 2828 2175 2409 1742 
Q 1991 1309 1228 531 
z
" transform="scale(0.015625)"/>
       </defs>
       <use xlink:href="#DejaVuSans-32"/>
       <use xlink:href="#DejaVuSans-2e" transform="translate(63.623047 0)"/>
       <use xlink:href="#DejaVuSans-30" transform="translate(95.410156 0)"/>
      </g>
     </g>
    </g>
    <g id="xtick_4">
     <g id="line2d_4">
      <g>
       <use xlink:href="#mbf9a23f6bf" x="213.192543" y="257.158895" style="stroke: #000000; stroke-width: 0.8"/>
      </g>
     </g>
     <g id="text_4">
      <!-- 2.5 -->
      <g transform="translate(205.24098 271.757332) scale(0.1 -0.1)">
       <use xlink:href="#DejaVuSans-32"/>
       <use xlink:href="#DejaVuSans-2e" transform="translate(63.623047 0)"/>
       <use xlink:href="#DejaVuSans-35" transform="translate(95.410156 0)"/>
      </g>
     </g>
    </g>
    <g id="xtick_5">
     <g id="line2d_5">
      <g>
       <use xlink:href="#mbf9a23f6bf" x="257.167918" y="257.158895" style="stroke: #000000; stroke-width: 0.8"/>
      </g>
     </g>
     <g id="text_5">
      <!-- 3.0 -->
      <g transform="translate(249.216355 271.757332) scale(0.1 -0.1)">
       <defs>
        <path id="DejaVuSans-33" d="M 2597 2516 
Q 3050 2419 3304 2112 
Q 3559 1806 3559 1356 
Q 3559 666 3084 287 
Q 2609 -91 1734 -91 
Q 1441 -91 1130 -33 
Q 819 25 488 141 
L 488 750 
Q 750 597 1062 519 
Q 1375 441 1716 441 
Q 2309 441 2620 675 
Q 2931 909 2931 1356 
Q 2931 1769 2642 2001 
Q 2353 2234 1838 2234 
L 1294 2234 
L 1294 2753 
L 1863 2753 
Q 2328 2753 2575 2939 
Q 2822 3125 2822 3475 
Q 2822 3834 2567 4026 
Q 2313 4219 1838 4219 
Q 1578 4219 1281 4162 
Q 984 4106 628 3988 
L 628 4550 
Q 988 4650 1302 4700 
Q 1616 4750 1894 4750 
Q 2613 4750 3031 4423 
Q 3450 4097 3450 3541 
Q 3450 3153 3228 2886 
Q 3006 2619 2597 2516 
z
" transform="scale(0.015625)"/>
       </defs>
       <use xlink:href="#DejaVuSans-33"/>
       <use xlink:href="#DejaVuSans-2e" transform="translate(63.623047 0)"/>
       <use xlink:href="#DejaVuSans-30" transform="translate(95.410156 0)"/>
      </g>
     </g>
    </g>
    <g id="xtick_6">
     <g id="line2d_6">
      <g>
       <use xlink:href="#mbf9a23f6bf" x="301.143293" y="257.158895" style="stroke: #000000; stroke-width: 0.8"/>
      </g>
     </g>
     <g id="text_6">
      <!-- 3.5 -->
      <g transform="translate(293.19173 271.757332) scale(0.1 -0.1)">
       <use xlink:href="#DejaVuSans-33"/>
       <use xlink:href="#DejaVuSans-2e" transform="translate(63.623047 0)"/>
       <use xlink:href="#DejaVuSans-35" transform="translate(95.410156 0)"/>
      </g>
     </g>
    </g>
    <g id="xtick_7">
     <g id="line2d_7">
      <g>
       <use xlink:href="#mbf9a23f6bf" x="345.118668" y="257.158895" style="stroke: #000000; stroke-width: 0.8"/>
      </g>
     </g>
     <g id="text_7">
      <!-- 4.0 -->
      <g transform="translate(337.167105 271.757332) scale(0.1 -0.1)">
       <defs>
        <path id="DejaVuSans-34" d="M 2419 4116 
L 825 1625 
L 2419 1625 
L 2419 4116 
z
M 2253 4666 
L 3047 4666 
L 3047 1625 
L 3713 1625 
L 3713 1100 
L 3047 1100 
L 3047 0 
L 2419 0 
L 2419 1100 
L 313 1100 
L 313 1709 
L 2253 4666 
z
" transform="scale(0.015625)"/>
       </defs>
       <use xlink:href="#DejaVuSans-34"/>
       <use xlink:href="#DejaVuSans-2e" transform="translate(63.623047 0)"/>
       <use xlink:href="#DejaVuSans-30" transform="translate(95.410156 0)"/>
      </g>
     </g>
    </g>
    <g id="xtick_8">
     <g id="line2d_8">
      <g>
       <use xlink:href="#mbf9a23f6bf" x="389.094043" y="257.158895" style="stroke: #000000; stroke-width: 0.8"/>
      </g>
     </g>
     <g id="text_8">
      <!-- 4.5 -->
      <g transform="translate(381.14248 271.757332) scale(0.1 -0.1)">
       <use xlink:href="#DejaVuSans-34"/>
       <use xlink:href="#DejaVuSans-2e" transform="translate(63.623047 0)"/>
       <use xlink:href="#DejaVuSans-35" transform="translate(95.410156 0)"/>
      </g>
     </g>
    </g>
    <g id="text_9">
     <!-- wavelength [Å] -->
     <g transform="translate(192.745193 287.119832) scale(0.1 -0.1)">
      <defs>
       <path id="DejaVuSans-77" d="M 269 3500 
L 844 3500 
L 1563 769 
L 2278 3500 
L 2956 3500 
L 3675 769 
L 4391 3500 
L 4966 3500 
L 4050 0 
L 3372 0 
L 2619 2869 
L 1863 0 
L 1184 0 
L 269 3500 
z
" transform="scale(0.015625)"/>
       <path id="DejaVuSans-61" d="M 2194 1759 
Q 1497 1759 1228 1600 
Q 959 1441 959 1056 
Q 959 750 1161 570 
Q 1363 391 1709 391 
Q 2188 391 2477 730 
Q 2766 1069 2766 1631 
L 2766 1759 
L 2194 1759 
z
M 3341 1997 
L 3341 0 
L 2766 0 
L 2766 531 
Q 2569 213 2275 61 
Q 1981 -91 1556 -91 
Q 1019 -91 701 211 
Q 384 513 384 1019 
Q 384 1609 779 1909 
Q 1175 2209 1959 2209 
L 2766 2209 
L 2766 2266 
Q 2766 2663 2505 2880 
Q 2244 3097 1772 3097 
Q 1472 3097 1187 3025 
Q 903 2953 641 2809 
L 641 3341 
Q 956 3463 1253 3523 
Q 1550 3584 1831 3584 
Q 2591 3584 2966 3190 
Q 3341 2797 3341 1997 
z
" transform="scale(0.015625)"/>
       <path id="DejaVuSans-76" d="M 191 3500 
L 800 3500 
L 1894 563 
L 2988 3500 
L 3597 3500 
L 2284 0 
L 1503 0 
L 191 3500 
z
" transform="scale(0.015625)"/>
       <path id="DejaVuSans-65" d="M 3597 1894 
L 3597 1613 
L 953 1613 
Q 991 1019 1311 708 
Q 1631 397 2203 397 
Q 2534 397 2845 478 
Q 3156 559 3463 722 
L 3463 178 
Q 3153 47 2828 -22 
Q 2503 -91 2169 -91 
Q 1331 -91 842 396 
Q 353 884 353 1716 
Q 353 2575 817 3079 
Q 1281 3584 2069 3584 
Q 2775 3584 3186 3129 
Q 3597 2675 3597 1894 
z
M 3022 2063 
Q 3016 2534 2758 2815 
Q 2500 3097 2075 3097 
Q 1594 3097 1305 2825 
Q 1016 2553 972 2059 
L 3022 2063 
z
" transform="scale(0.015625)"/>
       <path id="DejaVuSans-6c" d="M 603 4863 
L 1178 4863 
L 1178 0 
L 603 0 
L 603 4863 
z
" transform="scale(0.015625)"/>
       <path id="DejaVuSans-6e" d="M 3513 2113 
L 3513 0 
L 2938 0 
L 2938 2094 
Q 2938 2591 2744 2837 
Q 2550 3084 2163 3084 
Q 1697 3084 1428 2787 
Q 1159 2491 1159 1978 
L 1159 0 
L 581 0 
L 581 3500 
L 1159 3500 
L 1159 2956 
Q 1366 3272 1645 3428 
Q 1925 3584 2291 3584 
Q 2894 3584 3203 3211 
Q 3513 2838 3513 2113 
z
" transform="scale(0.015625)"/>
       <path id="DejaVuSans-67" d="M 2906 1791 
Q 2906 2416 2648 2759 
Q 2391 3103 1925 3103 
Q 1463 3103 1205 2759 
Q 947 2416 947 1791 
Q 947 1169 1205 825 
Q 1463 481 1925 481 
Q 2391 481 2648 825 
Q 2906 1169 2906 1791 
z
M 3481 434 
Q 3481 -459 3084 -895 
Q 2688 -1331 1869 -1331 
Q 1566 -1331 1297 -1286 
Q 1028 -1241 775 -1147 
L 775 -588 
Q 1028 -725 1275 -790 
Q 1522 -856 1778 -856 
Q 2344 -856 2625 -561 
Q 2906 -266 2906 331 
L 2906 616 
Q 2728 306 2450 153 
Q 2172 0 1784 0 
Q 1141 0 747 490 
Q 353 981 353 1791 
Q 353 2603 747 3093 
Q 1141 3584 1784 3584 
Q 2172 3584 2450 3431 
Q 2728 3278 2906 2969 
L 2906 3500 
L 3481 3500 
L 3481 434 
z
" transform="scale(0.015625)"/>
       <path id="DejaVuSans-74" d="M 1172 4494 
L 1172 3500 
L 2356 3500 
L 2356 3053 
L 1172 3053 
L 1172 1153 
Q 1172 725 1289 603 
Q 1406 481 1766 481 
L 2356 481 
L 2356 0 
L 1766 0 
Q 1100 0 847 248 
Q 594 497 594 1153 
L 594 3053 
L 172 3053 
L 172 3500 
L 594 3500 
L 594 4494 
L 1172 4494 
z
" transform="scale(0.015625)"/>
       <path id="DejaVuSans-68" d="M 3513 2113 
L 3513 0 
L 2938 0 
L 2938 2094 
Q 2938 2591 2744 2837 
Q 2550 3084 2163 3084 
Q 1697 3084 1428 2787 
Q 1159 2491 1159 1978 
L 1159 0 
L 581 0 
L 581 4863 
L 1159 4863 
L 1159 2956 
Q 1366 3272 1645 3428 
Q 1925 3584 2291 3584 
Q 2894 3584 3203 3211 
Q 3513 2838 3513 2113 
z
" transform="scale(0.015625)"/>
       <path id="DejaVuSans-20" transform="scale(0.015625)"/>
       <path id="DejaVuSans-5b" d="M 550 4863 
L 1875 4863 
L 1875 4416 
L 1125 4416 
L 1125 -397 
L 1875 -397 
L 1875 -844 
L 550 -844 
L 550 4863 
z
" transform="scale(0.015625)"/>
       <path id="DejaVuSans-c5" d="M 2663 5081 
Q 2663 5278 2523 5417 
Q 2384 5556 2188 5556 
Q 1988 5556 1852 5420 
Q 1716 5284 1716 5081 
Q 1716 4884 1853 4746 
Q 1991 4609 2188 4609 
Q 2384 4609 2523 4746 
Q 2663 4884 2663 5081 
z
M 2188 4044 
L 1338 1722 
L 3041 1722 
L 2188 4044 
z
M 1716 4366 
Q 1525 4494 1428 4673 
Q 1331 4853 1331 5081 
Q 1331 5441 1579 5691 
Q 1828 5941 2188 5941 
Q 2544 5941 2795 5689 
Q 3047 5438 3047 5081 
Q 3047 4863 2948 4678 
Q 2850 4494 2663 4366 
L 4325 0 
L 3669 0 
L 3244 1197 
L 1141 1197 
L 716 0 
L 50 0 
L 1716 4366 
z
" transform="scale(0.015625)"/>
       <path id="DejaVuSans-5d" d="M 1947 4863 
L 1947 -844 
L 622 -844 
L 622 -397 
L 1369 -397 
L 1369 4416 
L 622 4416 
L 622 4863 
L 1947 4863 
z
" transform="scale(0.015625)"/>
      </defs>
      <use xlink:href="#DejaVuSans-77"/>
      <use xlink:href="#DejaVuSans-61" transform="translate(81.787109 0)"/>
      <use xlink:href="#DejaVuSans-76" transform="translate(143.066406 0)"/>
      <use xlink:href="#DejaVuSans-65" transform="translate(202.246094 0)"/>
      <use xlink:href="#DejaVuSans-6c" transform="translate(263.769531 0)"/>
      <use xlink:href="#DejaVuSans-65" transform="translate(291.552734 0)"/>
      <use xlink:href="#DejaVuSans-6e" transform="translate(353.076172 0)"/>
      <use xlink:href="#DejaVuSans-67" transform="translate(416.455078 0)"/>
      <use xlink:href="#DejaVuSans-74" transform="translate(479.931641 0)"/>
      <use xlink:href="#DejaVuSans-68" transform="translate(519.140625 0)"/>
      <use xlink:href="#DejaVuSans-20" transform="translate(582.519531 0)"/>
      <use xlink:href="#DejaVuSans-5b" transform="translate(614.306641 0)"/>
      <use xlink:href="#DejaVuSans-c5" transform="translate(653.320312 0)"/>
      <use xlink:href="#DejaVuSans-5d" transform="translate(721.728516 0)"/>
     </g>
    </g>
   </g>
   <g id="matplotlib.axis_2">
    <g id="ytick_1">
     <g id="line2d_9">
      <defs>
       <path id="m665f31a8cc" d="M 0 0 
L -3.5 0 
" style="stroke: #000000; stroke-width: 0.8"/>
      </defs>
      <g>
       <use xlink:href="#m665f31a8cc" x="46.965625" y="246.484315" style="stroke: #000000; stroke-width: 0.8"/>
      </g>
     </g>
     <g id="text_10">
      <!-- 0 -->
      <g transform="translate(33.603125 250.283533) scale(0.1 -0.1)">
       <use xlink:href="#DejaVuSans-30"/>
      </g>
     </g>
    </g>
    <g id="ytick_2">
     <g id="line2d_10">
      <g>
       <use xlink:href="#m665f31a8cc" x="46.965625" y="196.544757" style="stroke: #000000; stroke-width: 0.8"/>
      </g>
     </g>
     <g id="text_11">
      <!-- 200 -->
      <g transform="translate(20.878125 200.343976) scale(0.1 -0.1)">
       <use xlink:href="#DejaVuSans-32"/>
       <use xlink:href="#DejaVuSans-30" transform="translate(63.623047 0)"/>
       <use xlink:href="#DejaVuSans-30" transform="translate(127.246094 0)"/>
      </g>
     </g>
    </g>
    <g id="ytick_3">
     <g id="line2d_11">
      <g>
       <use xlink:href="#m665f31a8cc" x="46.965625" y="146.605199" style="stroke: #000000; stroke-width: 0.8"/>
      </g>
     </g>
     <g id="text_12">
      <!-- 400 -->
      <g transform="translate(20.878125 150.404418) scale(0.1 -0.1)">
       <use xlink:href="#DejaVuSans-34"/>
       <use xlink:href="#DejaVuSans-30" transform="translate(63.623047 0)"/>
       <use xlink:href="#DejaVuSans-30" transform="translate(127.246094 0)"/>
      </g>
     </g>
    </g>
    <g id="ytick_4">
     <g id="line2d_12">
      <g>
       <use xlink:href="#m665f31a8cc" x="46.965625" y="96.665641" style="stroke: #000000; stroke-width: 0.8"/>
      </g>
     </g>
     <g id="text_13">
      <!-- 600 -->
      <g transform="translate(20.878125 100.46486) scale(0.1 -0.1)">
       <defs>
        <path id="DejaVuSans-36" d="M 2113 2584 
Q 1688 2584 1439 2293 
Q 1191 2003 1191 1497 
Q 1191 994 1439 701 
Q 1688 409 2113 409 
Q 2538 409 2786 701 
Q 3034 994 3034 1497 
Q 3034 2003 2786 2293 
Q 2538 2584 2113 2584 
z
M 3366 4563 
L 3366 3988 
Q 3128 4100 2886 4159 
Q 2644 4219 2406 4219 
Q 1781 4219 1451 3797 
Q 1122 3375 1075 2522 
Q 1259 2794 1537 2939 
Q 1816 3084 2150 3084 
Q 2853 3084 3261 2657 
Q 3669 2231 3669 1497 
Q 3669 778 3244 343 
Q 2819 -91 2113 -91 
Q 1303 -91 875 529 
Q 447 1150 447 2328 
Q 447 3434 972 4092 
Q 1497 4750 2381 4750 
Q 2619 4750 2861 4703 
Q 3103 4656 3366 4563 
z
" transform="scale(0.015625)"/>
       </defs>
       <use xlink:href="#DejaVuSans-36"/>
       <use xlink:href="#DejaVuSans-30" transform="translate(63.623047 0)"/>
       <use xlink:href="#DejaVuSans-30" transform="translate(127.246094 0)"/>
      </g>
     </g>
    </g>
    <g id="ytick_5">
     <g id="line2d_13">
      <g>
       <use xlink:href="#m665f31a8cc" x="46.965625" y="46.726084" style="stroke: #000000; stroke-width: 0.8"/>
      </g>
     </g>
     <g id="text_14">
      <!-- 800 -->
      <g transform="translate(20.878125 50.525303) scale(0.1 -0.1)">
       <defs>
        <path id="DejaVuSans-38" d="M 2034 2216 
Q 1584 2216 1326 1975 
Q 1069 1734 1069 1313 
Q 1069 891 1326 650 
Q 1584 409 2034 409 
Q 2484 409 2743 651 
Q 3003 894 3003 1313 
Q 3003 1734 2745 1975 
Q 2488 2216 2034 2216 
z
M 1403 2484 
Q 997 2584 770 2862 
Q 544 3141 544 3541 
Q 544 4100 942 4425 
Q 1341 4750 2034 4750 
Q 2731 4750 3128 4425 
Q 3525 4100 3525 3541 
Q 3525 3141 3298 2862 
Q 3072 2584 2669 2484 
Q 3125 2378 3379 2068 
Q 3634 1759 3634 1313 
Q 3634 634 3220 271 
Q 2806 -91 2034 -91 
Q 1263 -91 848 271 
Q 434 634 434 1313 
Q 434 1759 690 2068 
Q 947 2378 1403 2484 
z
M 1172 3481 
Q 1172 3119 1398 2916 
Q 1625 2713 2034 2713 
Q 2441 2713 2670 2916 
Q 2900 3119 2900 3481 
Q 2900 3844 2670 4047 
Q 2441 4250 2034 4250 
Q 1625 4250 1398 4047 
Q 1172 3844 1172 3481 
z
" transform="scale(0.015625)"/>
       </defs>
       <use xlink:href="#DejaVuSans-38"/>
       <use xlink:href="#DejaVuSans-30" transform="translate(63.623047 0)"/>
       <use xlink:href="#DejaVuSans-30" transform="translate(127.246094 0)"/>
      </g>
     </g>
    </g>
    <g id="text_15">
     <!-- [counts] -->
     <g transform="translate(14.798437 160.35101) rotate(-90) scale(0.1 -0.1)">
      <defs>
       <path id="DejaVuSans-63" d="M 3122 3366 
L 3122 2828 
Q 2878 2963 2633 3030 
Q 2388 3097 2138 3097 
Q 1578 3097 1268 2742 
Q 959 2388 959 1747 
Q 959 1106 1268 751 
Q 1578 397 2138 397 
Q 2388 397 2633 464 
Q 2878 531 3122 666 
L 3122 134 
Q 2881 22 2623 -34 
Q 2366 -91 2075 -91 
Q 1284 -91 818 406 
Q 353 903 353 1747 
Q 353 2603 823 3093 
Q 1294 3584 2113 3584 
Q 2378 3584 2631 3529 
Q 2884 3475 3122 3366 
z
" transform="scale(0.015625)"/>
       <path id="DejaVuSans-6f" d="M 1959 3097 
Q 1497 3097 1228 2736 
Q 959 2375 959 1747 
Q 959 1119 1226 758 
Q 1494 397 1959 397 
Q 2419 397 2687 759 
Q 2956 1122 2956 1747 
Q 2956 2369 2687 2733 
Q 2419 3097 1959 3097 
z
M 1959 3584 
Q 2709 3584 3137 3096 
Q 3566 2609 3566 1747 
Q 3566 888 3137 398 
Q 2709 -91 1959 -91 
Q 1206 -91 779 398 
Q 353 888 353 1747 
Q 353 2609 779 3096 
Q 1206 3584 1959 3584 
z
" transform="scale(0.015625)"/>
       <path id="DejaVuSans-75" d="M 544 1381 
L 544 3500 
L 1119 3500 
L 1119 1403 
Q 1119 906 1312 657 
Q 1506 409 1894 409 
Q 2359 409 2629 706 
Q 2900 1003 2900 1516 
L 2900 3500 
L 3475 3500 
L 3475 0 
L 2900 0 
L 2900 538 
Q 2691 219 2414 64 
Q 2138 -91 1772 -91 
Q 1169 -91 856 284 
Q 544 659 544 1381 
z
M 1991 3584 
L 1991 3584 
z
" transform="scale(0.015625)"/>
       <path id="DejaVuSans-73" d="M 2834 3397 
L 2834 2853 
Q 2591 2978 2328 3040 
Q 2066 3103 1784 3103 
Q 1356 3103 1142 2972 
Q 928 2841 928 2578 
Q 928 2378 1081 2264 
Q 1234 2150 1697 2047 
L 1894 2003 
Q 2506 1872 2764 1633 
Q 3022 1394 3022 966 
Q 3022 478 2636 193 
Q 2250 -91 1575 -91 
Q 1294 -91 989 -36 
Q 684 19 347 128 
L 347 722 
Q 666 556 975 473 
Q 1284 391 1588 391 
Q 1994 391 2212 530 
Q 2431 669 2431 922 
Q 2431 1156 2273 1281 
Q 2116 1406 1581 1522 
L 1381 1569 
Q 847 1681 609 1914 
Q 372 2147 372 2553 
Q 372 3047 722 3315 
Q 1072 3584 1716 3584 
Q 2034 3584 2315 3537 
Q 2597 3491 2834 3397 
z
" transform="scale(0.015625)"/>
      </defs>
      <use xlink:href="#DejaVuSans-5b"/>
      <use xlink:href="#DejaVuSans-63" transform="translate(39.013672 0)"/>
      <use xlink:href="#DejaVuSans-6f" transform="translate(93.994141 0)"/>
      <use xlink:href="#DejaVuSans-75" transform="translate(155.175781 0)"/>
      <use xlink:href="#DejaVuSans-6e" transform="translate(218.554688 0)"/>
      <use xlink:href="#DejaVuSans-74" transform="translate(281.933594 0)"/>
      <use xlink:href="#DejaVuSans-73" transform="translate(321.142578 0)"/>
      <use xlink:href="#DejaVuSans-5d" transform="translate(373.242188 0)"/>
     </g>
    </g>
   </g>
   <g id="line2d_14">
    <path d="M 63.676268 246.484315 
L 72.031589 246.484315 
L 72.031589 243.987337 
L 73.702653 243.987337 
L 73.702653 236.746101 
L 75.373717 236.746101 
L 75.373717 230.253958 
L 77.044782 230.253958 
L 77.044782 219.516953 
L 78.715846 219.516953 
L 78.715846 217.519371 
L 80.38691 217.519371 
L 80.38691 208.779948 
L 82.057974 208.779948 
L 82.057974 198.542339 
L 83.729039 198.542339 
L 83.729039 197.29385 
L 85.400103 197.29385 
L 85.400103 188.055032 
L 87.071167 188.055032 
L 87.071167 178.566516 
L 88.742231 178.566516 
L 88.742231 168.079209 
L 90.413296 168.079209 
L 90.413296 161.587066 
L 92.08436 161.587066 
L 92.08436 145.35671 
L 93.755424 145.35671 
L 93.755424 151.099759 
L 95.426488 151.099759 
L 95.426488 120.886327 
L 97.097553 120.886327 
L 97.097553 134.12031 
L 98.768617 134.12031 
L 98.768617 121.63542 
L 100.439681 121.63542 
L 100.439681 114.394184 
L 102.110745 114.394184 
L 102.110745 107.152949 
L 103.78181 107.152949 
L 103.78181 110.898415 
L 105.452874 110.898415 
L 105.452874 105.90446 
L 107.123938 105.90446 
L 107.123938 95.916548 
L 108.795002 95.916548 
L 108.795002 92.171081 
L 110.466067 92.171081 
L 110.466067 90.672895 
L 112.137131 90.672895 
L 112.137131 71.695863 
L 113.808195 71.695863 
L 113.808195 78.437703 
L 115.479259 78.437703 
L 115.479259 68.949187 
L 117.150323 68.949187 
L 117.150323 76.689818 
L 118.821388 76.689818 
L 118.821388 65.20372 
L 120.492452 65.20372 
L 120.492452 77.189214 
L 122.163516 77.189214 
L 122.163516 71.94556 
L 123.834581 71.94556 
L 123.834581 49.722457 
L 125.505645 49.722457 
L 125.505645 71.695863 
L 127.176709 71.695863 
L 127.176709 58.961275 
L 128.847773 58.961275 
L 128.847773 60.459462 
L 130.518838 60.459462 
L 130.518838 32.992705 
L 132.189902 32.992705 
L 132.189902 61.458253 
L 133.860966 61.458253 
L 133.860966 61.208556 
L 135.53203 61.208556 
L 135.53203 60.958858 
L 137.203095 60.958858 
L 137.203095 71.446165 
L 138.874159 71.446165 
L 138.874159 66.951605 
L 140.545223 66.951605 
L 140.545223 78.437703 
L 142.216287 78.437703 
L 142.216287 87.926219 
L 143.887352 87.926219 
L 143.887352 87.177126 
L 145.558416 87.177126 
L 145.558416 72.944352 
L 147.22948 72.944352 
L 147.22948 71.196467 
L 148.900544 71.196467 
L 148.900544 82.932263 
L 150.571609 82.932263 
L 150.571609 82.682565 
L 152.242673 82.682565 
L 152.242673 85.179543 
L 153.913737 85.179543 
L 153.913737 83.181961 
L 155.584801 83.181961 
L 155.584801 86.927428 
L 157.255866 86.927428 
L 157.255866 105.155366 
L 158.92693 105.155366 
L 158.92693 89.174708 
L 160.597994 89.174708 
L 160.597994 102.158993 
L 162.269058 102.158993 
L 162.269058 93.669268 
L 163.940123 93.669268 
L 163.940123 88.425614 
L 165.611187 88.425614 
L 165.611187 87.177126 
L 167.282251 87.177126 
L 167.282251 83.181961 
L 168.953315 83.181961 
L 168.953315 95.66685 
L 170.62438 95.66685 
L 170.62438 90.173499 
L 172.295444 90.173499 
L 172.295444 102.408691 
L 173.966508 102.408691 
L 173.966508 98.912922 
L 175.637572 98.912922 
L 175.637572 106.154157 
L 177.308637 106.154157 
L 177.308637 95.167455 
L 178.979701 95.167455 
L 178.979701 109.899624 
L 180.650765 109.899624 
L 180.650765 81.933472 
L 182.321829 81.933472 
L 182.321829 102.658388 
L 183.992894 102.658388 
L 183.992894 101.909295 
L 185.663958 101.909295 
L 185.663958 107.402646 
L 187.335022 107.402646 
L 187.335022 117.14086 
L 189.006086 117.14086 
L 189.006086 102.658388 
L 190.677151 102.658388 
L 190.677151 123.8827 
L 192.348215 123.8827 
L 192.348215 104.156575 
L 194.019279 104.156575 
L 194.019279 134.370008 
L 195.690343 134.370008 
L 195.690343 107.652344 
L 197.361408 107.652344 
L 197.361408 129.62575 
L 199.032472 129.62575 
L 199.032472 147.853688 
L 202.3746 147.853688 
L 202.3746 153.347039 
L 204.045665 153.347039 
L 204.045665 165.831929 
L 205.716729 165.831929 
L 205.716729 169.327698 
L 207.387793 169.327698 
L 207.387793 177.068329 
L 209.058857 177.068329 
L 209.058857 181.812587 
L 210.729922 181.812587 
L 210.729922 195.545966 
L 212.400986 195.545966 
L 212.400986 199.54113 
L 214.07205 199.54113 
L 214.07205 207.53146 
L 215.743114 207.53146 
L 215.743114 214.772695 
L 217.414179 214.772695 
L 217.414179 218.268464 
L 219.085243 218.268464 
L 219.085243 225.260003 
L 220.756307 225.260003 
L 220.756307 235.247914 
L 222.427371 235.247914 
L 222.427371 235.997007 
L 224.098435 235.997007 
L 224.098435 238.743683 
L 225.7695 238.743683 
L 225.7695 244.237034 
L 227.440564 244.237034 
L 227.440564 244.986128 
L 229.111628 244.986128 
L 229.111628 238.993381 
L 230.782693 238.993381 
L 230.782693 232.501238 
L 232.453757 232.501238 
L 232.453757 230.004261 
L 234.124821 230.004261 
L 234.124821 221.01514 
L 235.795885 221.01514 
L 235.795885 214.023602 
L 237.466949 214.023602 
L 237.466949 211.276926 
L 239.138014 211.276926 
L 239.138014 207.032064 
L 240.809078 207.032064 
L 240.809078 194.297477 
L 242.480142 194.297477 
L 242.480142 191.550801 
L 244.151207 191.550801 
L 244.151207 194.047779 
L 245.822271 194.047779 
L 245.822271 181.56289 
L 247.493335 181.56289 
L 247.493335 183.560472 
L 249.164399 183.560472 
L 249.164399 176.319236 
L 250.835464 176.319236 
L 250.835464 169.078 
L 252.506528 169.078 
L 252.506528 162.835555 
L 254.177592 162.835555 
L 254.177592 155.59432 
L 255.848656 155.59432 
L 255.848656 152.348248 
L 257.51972 152.348248 
L 257.51972 162.086462 
L 259.190785 162.086462 
L 259.190785 152.098551 
L 260.861849 152.098551 
L 260.861849 151.099759 
L 262.532913 151.099759 
L 262.532913 151.349457 
L 264.203978 151.349457 
L 264.203978 144.357919 
L 265.875042 144.357919 
L 265.875042 131.87303 
L 267.546106 131.87303 
L 267.546106 123.8827 
L 269.21717 123.8827 
L 269.21717 137.865777 
L 270.888234 137.865777 
L 270.888234 133.371216 
L 272.559299 133.371216 
L 272.559299 126.879074 
L 274.230363 126.879074 
L 274.230363 122.384514 
L 275.901427 122.384514 
L 275.901427 125.131189 
L 277.572492 125.131189 
L 277.572492 113.395393 
L 279.243556 113.395393 
L 279.243556 110.149322 
L 280.91462 110.149322 
L 280.91462 117.640256 
L 282.585684 117.640256 
L 282.585684 109.899624 
L 284.256749 109.899624 
L 284.256749 116.641465 
L 285.927813 116.641465 
L 285.927813 112.895998 
L 287.598877 112.895998 
L 287.598877 115.392976 
L 289.269941 115.392976 
L 289.269941 127.628167 
L 290.941006 127.628167 
L 290.941006 124.881492 
L 292.61207 124.881492 
L 292.61207 133.620914 
L 294.283134 133.620914 
L 294.283134 123.383305 
L 295.954198 123.383305 
L 295.954198 138.864568 
L 297.625263 138.864568 
L 297.625263 139.363963 
L 299.296327 139.363963 
L 299.296327 137.366381 
L 300.967391 137.366381 
L 300.967391 132.622123 
L 302.638455 132.622123 
L 302.638455 137.366381 
L 304.309519 137.366381 
L 304.309519 148.852479 
L 305.980584 148.852479 
L 305.980584 141.111848 
L 307.651648 141.111848 
L 307.651648 131.373634 
L 309.322712 131.373634 
L 309.322712 153.097342 
L 310.993777 153.097342 
L 310.993777 144.357919 
L 312.664841 144.357919 
L 312.664841 151.599155 
L 314.335905 151.599155 
L 314.335905 150.100968 
L 316.006969 150.100968 
L 316.006969 157.591902 
L 317.678033 157.591902 
L 317.678033 145.606408 
L 319.349098 145.606408 
L 319.349098 164.833138 
L 321.020162 164.833138 
L 321.020162 153.097342 
L 322.691226 153.097342 
L 322.691226 159.339786 
L 324.362291 159.339786 
L 324.362291 160.588275 
L 327.704419 160.588275 
L 327.704419 169.827094 
L 329.375483 169.827094 
L 329.375483 177.318027 
L 331.046547 177.318027 
L 331.046547 159.839182 
L 332.717612 159.839182 
L 332.717612 172.074374 
L 334.388676 172.074374 
L 334.388676 178.067121 
L 336.05974 178.067121 
L 336.05974 163.334951 
L 337.730805 163.334951 
L 337.730805 179.065912 
L 339.401869 179.065912 
L 339.401869 165.332533 
L 341.072933 165.332533 
L 341.072933 178.816214 
L 342.743997 178.816214 
L 342.743997 184.309565 
L 344.415062 184.309565 
L 344.415062 185.558054 
L 346.086126 185.558054 
L 346.086126 186.806543 
L 347.75719 186.806543 
L 347.75719 191.051406 
L 349.428254 191.051406 
L 349.428254 195.04657 
L 351.099318 195.04657 
L 351.099318 187.305939 
L 352.770383 187.305939 
L 352.770383 196.794455 
L 354.441447 196.794455 
L 354.441447 206.033273 
L 356.112511 206.033273 
L 356.112511 197.29385 
L 357.783576 197.29385 
L 357.783576 204.285388 
L 359.45464 204.285388 
L 359.45464 213.274509 
L 361.125704 213.274509 
L 361.125704 214.2733 
L 362.796768 214.2733 
L 362.796768 218.268464 
L 364.467832 218.268464 
L 364.467832 222.263629 
L 366.138897 222.263629 
L 366.138897 226.009096 
L 367.809961 226.009096 
L 367.809961 225.260003 
L 369.481025 225.260003 
L 369.481025 231.252749 
L 371.15209 231.252749 
L 371.15209 234.748518 
L 372.823154 234.748518 
L 372.823154 229.504865 
L 374.494218 229.504865 
L 374.494218 233.50003 
L 376.165282 233.50003 
L 376.165282 236.496403 
L 377.836346 236.496403 
L 377.836346 240.24187 
L 379.507411 240.24187 
L 379.507411 241.490359 
L 381.178475 241.490359 
L 381.178475 242.239452 
L 382.849539 242.239452 
L 382.849539 243.987337 
L 384.520603 243.987337 
L 384.520603 244.73643 
L 386.191668 244.73643 
L 386.191668 245.485523 
L 387.862732 245.485523 
L 387.862732 246.234617 
L 389.533796 246.234617 
L 389.533796 246.484315 
L 397.889117 246.484315 
L 397.889117 246.484315 
" clip-path="url(#p95ddcdc0ca)" style="fill: none; stroke: #1f77b4; stroke-width: 1.5; stroke-linecap: square"/>
   </g>
   <g id="line2d_15">
    <path d="M 63.676268 246.484315 
L 72.031589 246.484315 
L 72.031589 243.987337 
L 73.702653 243.987337 
L 73.702653 236.496403 
L 75.373717 236.496403 
L 75.373717 230.503656 
L 77.044782 230.503656 
L 77.044782 218.76786 
L 78.715846 218.76786 
L 78.715846 218.268464 
L 80.38691 218.268464 
L 80.38691 210.527833 
L 82.057974 210.527833 
L 82.057974 196.295059 
L 83.729039 196.295059 
L 83.729039 197.29385 
L 85.400103 197.29385 
L 85.400103 186.307148 
L 87.071167 186.307148 
L 87.071167 178.816214 
L 88.742231 178.816214 
L 88.742231 168.328907 
L 90.413296 168.328907 
L 90.413296 159.589484 
L 92.08436 159.589484 
L 92.08436 149.351875 
L 93.755424 149.351875 
L 93.755424 148.602781 
L 95.426488 148.602781 
L 95.426488 126.629376 
L 97.097553 126.629376 
L 97.097553 131.373634 
L 98.768617 131.373634 
L 98.768617 121.885118 
L 100.439681 121.885118 
L 100.439681 111.148113 
L 102.110745 111.148113 
L 102.110745 107.902042 
L 103.78181 107.902042 
L 103.78181 110.898415 
L 105.452874 110.898415 
L 105.452874 107.152949 
L 107.123938 107.152949 
L 107.123938 93.669268 
L 108.795002 93.669268 
L 108.795002 97.165037 
L 110.466067 97.165037 
L 110.466067 91.17229 
L 112.137131 91.17229 
L 112.137131 69.947978 
L 113.808195 69.947978 
L 113.808195 71.446165 
L 115.479259 71.446165 
L 115.479259 71.196467 
L 117.150323 71.196467 
L 117.150323 80.435285 
L 118.821388 80.435285 
L 118.821388 73.693445 
L 120.492452 73.693445 
L 120.492452 63.455836 
L 122.163516 63.455836 
L 122.163516 79.686192 
L 123.834581 79.686192 
L 123.834581 57.213391 
L 125.505645 57.213391 
L 125.505645 59.460671 
L 127.176709 59.460671 
L 127.176709 61.208556 
L 128.847773 61.208556 
L 128.847773 55.465506 
L 130.518838 55.465506 
L 130.518838 47.475177 
L 132.189902 47.475177 
L 132.189902 56.713995 
L 133.860966 56.713995 
L 133.860966 53.717622 
L 135.53203 53.717622 
L 135.53203 62.706742 
L 137.203095 62.706742 
L 137.203095 72.444956 
L 138.874159 72.444956 
L 138.874159 65.703116 
L 140.545223 65.703116 
L 140.545223 85.678939 
L 142.216287 85.678939 
L 142.216287 76.440121 
L 143.887352 76.440121 
L 143.887352 85.928637 
L 145.558416 85.928637 
L 145.558416 72.694654 
L 147.22948 72.694654 
L 147.22948 87.676521 
L 148.900544 87.676521 
L 148.900544 75.940725 
L 150.571609 75.940725 
L 150.571609 80.684983 
L 152.242673 80.684983 
L 152.242673 78.937099 
L 153.913737 78.937099 
L 153.913737 89.174708 
L 155.584801 89.174708 
L 155.584801 91.671686 
L 157.255866 91.671686 
L 157.255866 96.166246 
L 158.92693 96.166246 
L 158.92693 97.414735 
L 160.597994 97.414735 
L 160.597994 86.67773 
L 162.269058 86.67773 
L 162.269058 97.664433 
L 163.940123 97.664433 
L 163.940123 85.179543 
L 165.611187 85.179543 
L 165.611187 103.157784 
L 167.282251 103.157784 
L 167.282251 84.180752 
L 168.953315 84.180752 
L 168.953315 92.920175 
L 170.62438 92.920175 
L 170.62438 86.428032 
L 172.295444 86.428032 
L 172.295444 101.909295 
L 173.966508 101.909295 
L 173.966508 107.152949 
L 175.637572 107.152949 
L 175.637572 91.921384 
L 177.308637 91.921384 
L 177.308637 99.911713 
L 178.979701 99.911713 
L 178.979701 101.909295 
L 180.650765 101.909295 
L 180.650765 92.920175 
L 182.321829 92.920175 
L 182.321829 96.166246 
L 183.992894 96.166246 
L 183.992894 105.90446 
L 185.663958 105.90446 
L 185.663958 108.15174 
L 187.335022 108.15174 
L 187.335022 115.642673 
L 189.006086 115.642673 
L 189.006086 109.649926 
L 190.677151 109.649926 
L 190.677151 111.897207 
L 192.348215 111.897207 
L 192.348215 112.895998 
L 194.019279 112.895998 
L 194.019279 129.126354 
L 195.690343 129.126354 
L 195.690343 120.137234 
L 197.361408 120.137234 
L 197.361408 127.378469 
L 199.032472 127.378469 
L 199.032472 134.869403 
L 200.703536 134.869403 
L 200.703536 151.099759 
L 202.3746 151.099759 
L 202.3746 156.842809 
L 204.045665 156.842809 
L 204.045665 161.836764 
L 205.716729 161.836764 
L 205.716729 172.324071 
L 207.387793 172.324071 
L 207.387793 177.567725 
L 209.058857 177.567725 
L 209.058857 183.061076 
L 210.729922 183.061076 
L 210.729922 194.047779 
L 212.400986 194.047779 
L 212.400986 201.538713 
L 214.07205 201.538713 
L 214.07205 206.782366 
L 215.743114 206.782366 
L 215.743114 214.772695 
L 217.414179 214.772695 
L 217.414179 217.769069 
L 219.085243 217.769069 
L 219.085243 225.010305 
L 220.756307 225.010305 
L 220.756307 234.998216 
L 222.427371 234.998216 
L 222.427371 236.246705 
L 224.098435 236.246705 
L 224.098435 238.743683 
L 225.7695 238.743683 
L 225.7695 243.987337 
L 227.440564 243.987337 
L 227.440564 244.486732 
L 229.111628 244.486732 
L 229.111628 238.743683 
L 230.782693 238.743683 
L 230.782693 233.50003 
L 232.453757 233.50003 
L 232.453757 229.504865 
L 234.124821 229.504865 
L 234.124821 221.264838 
L 235.795885 221.264838 
L 235.795885 214.2733 
L 237.466949 214.2733 
L 237.466949 211.027229 
L 239.138014 211.027229 
L 239.138014 204.035691 
L 240.809078 204.035691 
L 240.809078 196.794455 
L 242.480142 196.794455 
L 242.480142 193.798081 
L 244.151207 193.798081 
L 244.151207 191.051406 
L 245.822271 191.051406 
L 245.822271 184.559263 
L 247.493335 184.559263 
L 247.493335 182.311983 
L 249.164399 182.311983 
L 249.164399 172.823467 
L 250.835464 172.823467 
L 250.835464 171.824676 
L 252.506528 171.824676 
L 252.506528 162.086462 
L 254.177592 162.086462 
L 254.177592 156.093715 
L 255.848656 156.093715 
L 255.848656 156.343413 
L 257.51972 156.343413 
L 257.51972 155.844017 
L 259.190785 155.844017 
L 259.190785 154.595528 
L 260.861849 154.595528 
L 260.861849 150.850062 
L 262.532913 150.850062 
L 262.532913 148.852479 
L 264.203978 148.852479 
L 264.203978 140.612452 
L 265.875042 140.612452 
L 265.875042 135.868194 
L 267.546106 135.868194 
L 267.546106 126.879074 
L 269.21717 126.879074 
L 269.21717 136.117892 
L 270.888234 136.117892 
L 270.888234 132.622123 
L 272.559299 132.622123 
L 272.559299 122.134816 
L 274.230363 122.134816 
L 274.230363 127.877865 
L 275.901427 127.877865 
L 275.901427 121.63542 
L 277.572492 121.63542 
L 277.572492 123.633003 
L 279.243556 123.633003 
L 279.243556 106.653553 
L 280.91462 106.653553 
L 280.91462 112.895998 
L 282.585684 112.895998 
L 282.585684 112.146904 
L 284.256749 112.146904 
L 284.256749 118.639047 
L 285.927813 118.639047 
L 285.927813 111.647509 
L 287.598877 111.647509 
L 287.598877 117.889954 
L 289.269941 117.889954 
L 289.269941 122.134816 
L 290.941006 122.134816 
L 290.941006 128.127563 
L 292.61207 128.127563 
L 292.61207 129.62575 
L 294.283134 129.62575 
L 294.283134 122.634211 
L 295.954198 122.634211 
L 295.954198 139.613661 
L 297.625263 139.613661 
L 297.625263 140.362754 
L 299.296327 140.362754 
L 299.296327 136.866985 
L 300.967391 136.866985 
L 300.967391 137.366381 
L 302.638455 137.366381 
L 302.638455 146.105804 
L 304.309519 146.105804 
L 304.309519 137.366381 
L 305.980584 137.366381 
L 305.980584 139.363963 
L 307.651648 139.363963 
L 307.651648 139.863359 
L 309.322712 139.863359 
L 309.322712 143.608826 
L 310.993777 143.608826 
L 310.993777 153.097342 
L 312.664841 153.097342 
L 312.664841 146.355501 
L 314.335905 146.355501 
L 314.335905 152.847644 
L 316.006969 152.847644 
L 316.006969 151.099759 
L 317.678033 151.099759 
L 317.678033 150.850062 
L 319.349098 150.850062 
L 319.349098 163.085253 
L 321.020162 163.085253 
L 321.020162 151.349457 
L 322.691226 151.349457 
L 322.691226 157.8416 
L 324.362291 157.8416 
L 324.362291 164.58344 
L 326.033355 164.58344 
L 326.033355 158.340995 
L 327.704419 158.340995 
L 327.704419 170.326489 
L 329.375483 170.326489 
L 329.375483 172.074374 
L 331.046547 172.074374 
L 331.046547 170.326489 
L 332.717612 170.326489 
L 332.717612 165.831929 
L 334.388676 165.831929 
L 334.388676 172.573769 
L 336.05974 172.573769 
L 336.05974 173.822258 
L 337.730805 173.822258 
L 337.730805 171.32528 
L 339.401869 171.32528 
L 339.401869 171.824676 
L 341.072933 171.824676 
L 341.072933 178.067121 
L 342.743997 178.067121 
L 342.743997 180.813796 
L 344.415062 180.813796 
L 344.415062 190.052614 
L 346.086126 190.052614 
L 346.086126 188.055032 
L 347.75719 188.055032 
L 347.75719 190.302312 
L 349.428254 190.302312 
L 349.428254 184.808961 
L 351.099318 184.808961 
L 351.099318 197.543548 
L 352.770383 197.543548 
L 352.770383 197.044152 
L 354.441447 197.044152 
L 354.441447 197.793246 
L 356.112511 197.793246 
L 356.112511 205.284179 
L 357.783576 205.284179 
L 357.783576 202.787202 
L 359.45464 202.787202 
L 359.45464 215.022393 
L 361.125704 215.022393 
L 361.125704 212.775113 
L 362.796768 212.775113 
L 362.796768 218.018767 
L 364.467832 218.018767 
L 364.467832 221.764233 
L 366.138897 221.764233 
L 366.138897 226.009096 
L 367.809961 226.009096 
L 367.809961 226.258794 
L 369.481025 226.258794 
L 369.481025 229.504865 
L 371.15209 229.504865 
L 371.15209 233.999425 
L 372.823154 233.999425 
L 372.823154 232.501238 
L 374.494218 232.501238 
L 374.494218 233.000634 
L 376.165282 233.000634 
L 376.165282 235.997007 
L 377.836346 235.997007 
L 377.836346 239.742474 
L 379.507411 239.742474 
L 379.507411 241.490359 
L 381.178475 241.490359 
L 381.178475 242.48915 
L 382.849539 242.48915 
L 382.849539 243.737639 
L 384.520603 243.737639 
L 384.520603 244.73643 
L 386.191668 244.73643 
L 386.191668 245.235826 
L 387.862732 245.235826 
L 387.862732 246.234617 
L 389.533796 246.234617 
L 389.533796 246.484315 
L 397.889117 246.484315 
L 397.889117 246.484315 
" clip-path="url(#p95ddcdc0ca)" style="fill: none; stroke: #ff7f0e; stroke-width: 1.5; stroke-linecap: square"/>
   </g>
   <g id="patch_3">
    <path d="M 46.965625 257.158895 
L 46.965625 22.318125 
" style="fill: none; stroke: #000000; stroke-width: 0.8; stroke-linejoin: miter; stroke-linecap: square"/>
   </g>
   <g id="patch_4">
    <path d="M 414.59976 257.158895 
L 414.59976 22.318125 
" style="fill: none; stroke: #000000; stroke-width: 0.8; stroke-linejoin: miter; stroke-linecap: square"/>
   </g>
   <g id="patch_5">
    <path d="M 46.965625 257.158895 
L 414.59976 257.158895 
" style="fill: none; stroke: #000000; stroke-width: 0.8; stroke-linejoin: miter; stroke-linecap: square"/>
   </g>
   <g id="patch_6">
    <path d="M 46.965625 22.318125 
L 414.59976 22.318125 
" style="fill: none; stroke: #000000; stroke-width: 0.8; stroke-linejoin: miter; stroke-linecap: square"/>
   </g>
   <g id="text_16">
    <!-- Pixel 1 -->
    <g transform="translate(211.18613 16.318125) scale(0.12 -0.12)">
     <defs>
      <path id="DejaVuSans-50" d="M 1259 4147 
L 1259 2394 
L 2053 2394 
Q 2494 2394 2734 2622 
Q 2975 2850 2975 3272 
Q 2975 3691 2734 3919 
Q 2494 4147 2053 4147 
L 1259 4147 
z
M 628 4666 
L 2053 4666 
Q 2838 4666 3239 4311 
Q 3641 3956 3641 3272 
Q 3641 2581 3239 2228 
Q 2838 1875 2053 1875 
L 1259 1875 
L 1259 0 
L 628 0 
L 628 4666 
z
" transform="scale(0.015625)"/>
      <path id="DejaVuSans-69" d="M 603 3500 
L 1178 3500 
L 1178 0 
L 603 0 
L 603 3500 
z
M 603 4863 
L 1178 4863 
L 1178 4134 
L 603 4134 
L 603 4863 
z
" transform="scale(0.015625)"/>
      <path id="DejaVuSans-78" d="M 3513 3500 
L 2247 1797 
L 3578 0 
L 2900 0 
L 1881 1375 
L 863 0 
L 184 0 
L 1544 1831 
L 300 3500 
L 978 3500 
L 1906 2253 
L 2834 3500 
L 3513 3500 
z
" transform="scale(0.015625)"/>
     </defs>
     <use xlink:href="#DejaVuSans-50"/>
     <use xlink:href="#DejaVuSans-69" transform="translate(58.052734 0)"/>
     <use xlink:href="#DejaVuSans-78" transform="translate(85.835938 0)"/>
     <use xlink:href="#DejaVuSans-65" transform="translate(141.890625 0)"/>
     <use xlink:href="#DejaVuSans-6c" transform="translate(203.414062 0)"/>
     <use xlink:href="#DejaVuSans-20" transform="translate(231.197266 0)"/>
     <use xlink:href="#DejaVuSans-31" transform="translate(262.984375 0)"/>
    </g>
   </g>
   <g id="legend_1">
    <g id="patch_7">
     <path d="M 310.596635 59.9525 
L 407.59976 59.9525 
Q 409.59976 59.9525 409.59976 57.9525 
L 409.59976 29.318125 
Q 409.59976 27.318125 407.59976 27.318125 
L 310.596635 27.318125 
Q 308.596635 27.318125 308.596635 29.318125 
L 308.596635 57.9525 
Q 308.596635 59.9525 310.596635 59.9525 
z
" style="fill: #ffffff; opacity: 0.8; stroke: #cccccc; stroke-linejoin: miter"/>
    </g>
    <g id="line2d_16">
     <path d="M 312.596635 35.416562 
L 312.596635 35.416562 
L 322.596635 35.416562 
L 322.596635 35.416562 
L 332.596635 35.416562 
" style="fill: none; stroke: #1f77b4; stroke-width: 1.5; stroke-linecap: square"/>
    </g>
    <g id="text_17">
     <!-- wfm -->
     <g transform="translate(340.596635 38.916562) scale(0.1 -0.1)">
      <defs>
       <path id="DejaVuSans-66" d="M 2375 4863 
L 2375 4384 
L 1825 4384 
Q 1516 4384 1395 4259 
Q 1275 4134 1275 3809 
L 1275 3500 
L 2222 3500 
L 2222 3053 
L 1275 3053 
L 1275 0 
L 697 0 
L 697 3053 
L 147 3053 
L 147 3500 
L 697 3500 
L 697 3744 
Q 697 4328 969 4595 
Q 1241 4863 1831 4863 
L 2375 4863 
z
" transform="scale(0.015625)"/>
       <path id="DejaVuSans-6d" d="M 3328 2828 
Q 3544 3216 3844 3400 
Q 4144 3584 4550 3584 
Q 5097 3584 5394 3201 
Q 5691 2819 5691 2113 
L 5691 0 
L 5113 0 
L 5113 2094 
Q 5113 2597 4934 2840 
Q 4756 3084 4391 3084 
Q 3944 3084 3684 2787 
Q 3425 2491 3425 1978 
L 3425 0 
L 2847 0 
L 2847 2094 
Q 2847 2600 2669 2842 
Q 2491 3084 2119 3084 
Q 1678 3084 1418 2786 
Q 1159 2488 1159 1978 
L 1159 0 
L 581 0 
L 581 3500 
L 1159 3500 
L 1159 2956 
Q 1356 3278 1631 3431 
Q 1906 3584 2284 3584 
Q 2666 3584 2933 3390 
Q 3200 3197 3328 2828 
z
" transform="scale(0.015625)"/>
      </defs>
      <use xlink:href="#DejaVuSans-77"/>
      <use xlink:href="#DejaVuSans-66" transform="translate(81.787109 0)"/>
      <use xlink:href="#DejaVuSans-6d" transform="translate(116.992188 0)"/>
     </g>
    </g>
    <g id="line2d_17">
     <path d="M 312.596635 50.094687 
L 312.596635 50.094687 
L 322.596635 50.094687 
L 322.596635 50.094687 
L 332.596635 50.094687 
" style="fill: none; stroke: #ff7f0e; stroke-width: 1.5; stroke-linecap: square"/>
    </g>
    <g id="text_18">
     <!-- ground_truth -->
     <g transform="translate(340.596635 53.594687) scale(0.1 -0.1)">
      <defs>
       <path id="DejaVuSans-72" d="M 2631 2963 
Q 2534 3019 2420 3045 
Q 2306 3072 2169 3072 
Q 1681 3072 1420 2755 
Q 1159 2438 1159 1844 
L 1159 0 
L 581 0 
L 581 3500 
L 1159 3500 
L 1159 2956 
Q 1341 3275 1631 3429 
Q 1922 3584 2338 3584 
Q 2397 3584 2469 3576 
Q 2541 3569 2628 3553 
L 2631 2963 
z
" transform="scale(0.015625)"/>
       <path id="DejaVuSans-64" d="M 2906 2969 
L 2906 4863 
L 3481 4863 
L 3481 0 
L 2906 0 
L 2906 525 
Q 2725 213 2448 61 
Q 2172 -91 1784 -91 
Q 1150 -91 751 415 
Q 353 922 353 1747 
Q 353 2572 751 3078 
Q 1150 3584 1784 3584 
Q 2172 3584 2448 3432 
Q 2725 3281 2906 2969 
z
M 947 1747 
Q 947 1113 1208 752 
Q 1469 391 1925 391 
Q 2381 391 2643 752 
Q 2906 1113 2906 1747 
Q 2906 2381 2643 2742 
Q 2381 3103 1925 3103 
Q 1469 3103 1208 2742 
Q 947 2381 947 1747 
z
" transform="scale(0.015625)"/>
       <path id="DejaVuSans-5f" d="M 3263 -1063 
L 3263 -1509 
L -63 -1509 
L -63 -1063 
L 3263 -1063 
z
" transform="scale(0.015625)"/>
      </defs>
      <use xlink:href="#DejaVuSans-67"/>
      <use xlink:href="#DejaVuSans-72" transform="translate(63.476562 0)"/>
      <use xlink:href="#DejaVuSans-6f" transform="translate(102.339844 0)"/>
      <use xlink:href="#DejaVuSans-75" transform="translate(163.521484 0)"/>
      <use xlink:href="#DejaVuSans-6e" transform="translate(226.900391 0)"/>
      <use xlink:href="#DejaVuSans-64" transform="translate(290.279297 0)"/>
      <use xlink:href="#DejaVuSans-5f" transform="translate(353.755859 0)"/>
      <use xlink:href="#DejaVuSans-74" transform="translate(403.755859 0)"/>
      <use xlink:href="#DejaVuSans-72" transform="translate(442.964844 0)"/>
      <use xlink:href="#DejaVuSans-75" transform="translate(484.078125 0)"/>
      <use xlink:href="#DejaVuSans-74" transform="translate(547.457031 0)"/>
      <use xlink:href="#DejaVuSans-68" transform="translate(586.666016 0)"/>
     </g>
    </g>
   </g>
  </g>
  <g id="axes_2">
   <g id="patch_8">
    <path d="M 497.565385 257.158895 
L 865.19952 257.158895 
L 865.19952 22.318125 
L 497.565385 22.318125 
z
" style="fill: #ffffff"/>
   </g>
   <g id="matplotlib.axis_3">
    <g id="xtick_9">
     <g id="line2d_18">
      <g>
       <use xlink:href="#mbf9a23f6bf" x="531.866178" y="257.158895" style="stroke: #000000; stroke-width: 0.8"/>
      </g>
     </g>
     <g id="text_19">
      <!-- 1.0 -->
      <g transform="translate(523.914615 271.757332) scale(0.1 -0.1)">
       <use xlink:href="#DejaVuSans-31"/>
       <use xlink:href="#DejaVuSans-2e" transform="translate(63.623047 0)"/>
       <use xlink:href="#DejaVuSans-30" transform="translate(95.410156 0)"/>
      </g>
     </g>
    </g>
    <g id="xtick_10">
     <g id="line2d_19">
      <g>
       <use xlink:href="#mbf9a23f6bf" x="575.841553" y="257.158895" style="stroke: #000000; stroke-width: 0.8"/>
      </g>
     </g>
     <g id="text_20">
      <!-- 1.5 -->
      <g transform="translate(567.88999 271.757332) scale(0.1 -0.1)">
       <use xlink:href="#DejaVuSans-31"/>
       <use xlink:href="#DejaVuSans-2e" transform="translate(63.623047 0)"/>
       <use xlink:href="#DejaVuSans-35" transform="translate(95.410156 0)"/>
      </g>
     </g>
    </g>
    <g id="xtick_11">
     <g id="line2d_20">
      <g>
       <use xlink:href="#mbf9a23f6bf" x="619.816928" y="257.158895" style="stroke: #000000; stroke-width: 0.8"/>
      </g>
     </g>
     <g id="text_21">
      <!-- 2.0 -->
      <g transform="translate(611.865365 271.757332) scale(0.1 -0.1)">
       <use xlink:href="#DejaVuSans-32"/>
       <use xlink:href="#DejaVuSans-2e" transform="translate(63.623047 0)"/>
       <use xlink:href="#DejaVuSans-30" transform="translate(95.410156 0)"/>
      </g>
     </g>
    </g>
    <g id="xtick_12">
     <g id="line2d_21">
      <g>
       <use xlink:href="#mbf9a23f6bf" x="663.792303" y="257.158895" style="stroke: #000000; stroke-width: 0.8"/>
      </g>
     </g>
     <g id="text_22">
      <!-- 2.5 -->
      <g transform="translate(655.84074 271.757332) scale(0.1 -0.1)">
       <use xlink:href="#DejaVuSans-32"/>
       <use xlink:href="#DejaVuSans-2e" transform="translate(63.623047 0)"/>
       <use xlink:href="#DejaVuSans-35" transform="translate(95.410156 0)"/>
      </g>
     </g>
    </g>
    <g id="xtick_13">
     <g id="line2d_22">
      <g>
       <use xlink:href="#mbf9a23f6bf" x="707.767677" y="257.158895" style="stroke: #000000; stroke-width: 0.8"/>
      </g>
     </g>
     <g id="text_23">
      <!-- 3.0 -->
      <g transform="translate(699.816115 271.757332) scale(0.1 -0.1)">
       <use xlink:href="#DejaVuSans-33"/>
       <use xlink:href="#DejaVuSans-2e" transform="translate(63.623047 0)"/>
       <use xlink:href="#DejaVuSans-30" transform="translate(95.410156 0)"/>
      </g>
     </g>
    </g>
    <g id="xtick_14">
     <g id="line2d_23">
      <g>
       <use xlink:href="#mbf9a23f6bf" x="751.743052" y="257.158895" style="stroke: #000000; stroke-width: 0.8"/>
      </g>
     </g>
     <g id="text_24">
      <!-- 3.5 -->
      <g transform="translate(743.79149 271.757332) scale(0.1 -0.1)">
       <use xlink:href="#DejaVuSans-33"/>
       <use xlink:href="#DejaVuSans-2e" transform="translate(63.623047 0)"/>
       <use xlink:href="#DejaVuSans-35" transform="translate(95.410156 0)"/>
      </g>
     </g>
    </g>
    <g id="xtick_15">
     <g id="line2d_24">
      <g>
       <use xlink:href="#mbf9a23f6bf" x="795.718427" y="257.158895" style="stroke: #000000; stroke-width: 0.8"/>
      </g>
     </g>
     <g id="text_25">
      <!-- 4.0 -->
      <g transform="translate(787.766865 271.757332) scale(0.1 -0.1)">
       <use xlink:href="#DejaVuSans-34"/>
       <use xlink:href="#DejaVuSans-2e" transform="translate(63.623047 0)"/>
       <use xlink:href="#DejaVuSans-30" transform="translate(95.410156 0)"/>
      </g>
     </g>
    </g>
    <g id="xtick_16">
     <g id="line2d_25">
      <g>
       <use xlink:href="#mbf9a23f6bf" x="839.693802" y="257.158895" style="stroke: #000000; stroke-width: 0.8"/>
      </g>
     </g>
     <g id="text_26">
      <!-- 4.5 -->
      <g transform="translate(831.74224 271.757332) scale(0.1 -0.1)">
       <use xlink:href="#DejaVuSans-34"/>
       <use xlink:href="#DejaVuSans-2e" transform="translate(63.623047 0)"/>
       <use xlink:href="#DejaVuSans-35" transform="translate(95.410156 0)"/>
      </g>
     </g>
    </g>
    <g id="text_27">
     <!-- wavelength [Å] -->
     <g transform="translate(643.344952 287.119832) scale(0.1 -0.1)">
      <use xlink:href="#DejaVuSans-77"/>
      <use xlink:href="#DejaVuSans-61" transform="translate(81.787109 0)"/>
      <use xlink:href="#DejaVuSans-76" transform="translate(143.066406 0)"/>
      <use xlink:href="#DejaVuSans-65" transform="translate(202.246094 0)"/>
      <use xlink:href="#DejaVuSans-6c" transform="translate(263.769531 0)"/>
      <use xlink:href="#DejaVuSans-65" transform="translate(291.552734 0)"/>
      <use xlink:href="#DejaVuSans-6e" transform="translate(353.076172 0)"/>
      <use xlink:href="#DejaVuSans-67" transform="translate(416.455078 0)"/>
      <use xlink:href="#DejaVuSans-74" transform="translate(479.931641 0)"/>
      <use xlink:href="#DejaVuSans-68" transform="translate(519.140625 0)"/>
      <use xlink:href="#DejaVuSans-20" transform="translate(582.519531 0)"/>
      <use xlink:href="#DejaVuSans-5b" transform="translate(614.306641 0)"/>
      <use xlink:href="#DejaVuSans-c5" transform="translate(653.320312 0)"/>
      <use xlink:href="#DejaVuSans-5d" transform="translate(721.728516 0)"/>
     </g>
    </g>
   </g>
   <g id="matplotlib.axis_4">
    <g id="ytick_6">
     <g id="line2d_26">
      <g>
       <use xlink:href="#m665f31a8cc" x="497.565385" y="246.484315" style="stroke: #000000; stroke-width: 0.8"/>
      </g>
     </g>
     <g id="text_28">
      <!-- 0 -->
      <g transform="translate(484.202885 250.283533) scale(0.1 -0.1)">
       <use xlink:href="#DejaVuSans-30"/>
      </g>
     </g>
    </g>
    <g id="ytick_7">
     <g id="line2d_27">
      <g>
       <use xlink:href="#m665f31a8cc" x="497.565385" y="194.791431" style="stroke: #000000; stroke-width: 0.8"/>
      </g>
     </g>
     <g id="text_29">
      <!-- 200 -->
      <g transform="translate(471.477885 198.59065) scale(0.1 -0.1)">
       <use xlink:href="#DejaVuSans-32"/>
       <use xlink:href="#DejaVuSans-30" transform="translate(63.623047 0)"/>
       <use xlink:href="#DejaVuSans-30" transform="translate(127.246094 0)"/>
      </g>
     </g>
    </g>
    <g id="ytick_8">
     <g id="line2d_28">
      <g>
       <use xlink:href="#m665f31a8cc" x="497.565385" y="143.098547" style="stroke: #000000; stroke-width: 0.8"/>
      </g>
     </g>
     <g id="text_30">
      <!-- 400 -->
      <g transform="translate(471.477885 146.897766) scale(0.1 -0.1)">
       <use xlink:href="#DejaVuSans-34"/>
       <use xlink:href="#DejaVuSans-30" transform="translate(63.623047 0)"/>
       <use xlink:href="#DejaVuSans-30" transform="translate(127.246094 0)"/>
      </g>
     </g>
    </g>
    <g id="ytick_9">
     <g id="line2d_29">
      <g>
       <use xlink:href="#m665f31a8cc" x="497.565385" y="91.405664" style="stroke: #000000; stroke-width: 0.8"/>
      </g>
     </g>
     <g id="text_31">
      <!-- 600 -->
      <g transform="translate(471.477885 95.204883) scale(0.1 -0.1)">
       <use xlink:href="#DejaVuSans-36"/>
       <use xlink:href="#DejaVuSans-30" transform="translate(63.623047 0)"/>
       <use xlink:href="#DejaVuSans-30" transform="translate(127.246094 0)"/>
      </g>
     </g>
    </g>
    <g id="ytick_10">
     <g id="line2d_30">
      <g>
       <use xlink:href="#m665f31a8cc" x="497.565385" y="39.71278" style="stroke: #000000; stroke-width: 0.8"/>
      </g>
     </g>
     <g id="text_32">
      <!-- 800 -->
      <g transform="translate(471.477885 43.511999) scale(0.1 -0.1)">
       <use xlink:href="#DejaVuSans-38"/>
       <use xlink:href="#DejaVuSans-30" transform="translate(63.623047 0)"/>
       <use xlink:href="#DejaVuSans-30" transform="translate(127.246094 0)"/>
      </g>
     </g>
    </g>
    <g id="text_33">
     <!-- [counts] -->
     <g transform="translate(465.398198 160.35101) rotate(-90) scale(0.1 -0.1)">
      <use xlink:href="#DejaVuSans-5b"/>
      <use xlink:href="#DejaVuSans-63" transform="translate(39.013672 0)"/>
      <use xlink:href="#DejaVuSans-6f" transform="translate(93.994141 0)"/>
      <use xlink:href="#DejaVuSans-75" transform="translate(155.175781 0)"/>
      <use xlink:href="#DejaVuSans-6e" transform="translate(218.554688 0)"/>
      <use xlink:href="#DejaVuSans-74" transform="translate(281.933594 0)"/>
      <use xlink:href="#DejaVuSans-73" transform="translate(321.142578 0)"/>
      <use xlink:href="#DejaVuSans-5d" transform="translate(373.242188 0)"/>
     </g>
    </g>
   </g>
   <g id="line2d_31">
    <path d="M 514.276028 246.484315 
L 522.631349 246.484315 
L 522.631349 245.967386 
L 524.302413 245.967386 
L 524.302413 235.11188 
L 525.973477 235.11188 
L 525.973477 229.942592 
L 527.644542 229.942592 
L 527.644542 218.570157 
L 529.315606 218.570157 
L 529.315606 216.243978 
L 530.98667 216.243978 
L 530.98667 209.265438 
L 532.657734 209.265438 
L 532.657734 194.791431 
L 534.328799 194.791431 
L 534.328799 196.083753 
L 535.999863 196.083753 
L 535.999863 187.037498 
L 537.670927 187.037498 
L 537.670927 173.855813 
L 539.341991 173.855813 
L 539.341991 166.618809 
L 541.013056 166.618809 
L 541.013056 159.123341 
L 542.68412 159.123341 
L 542.68412 141.030832 
L 544.355184 141.030832 
L 544.355184 147.750907 
L 546.026248 147.750907 
L 546.026248 116.735177 
L 547.697313 116.735177 
L 547.697313 129.399933 
L 549.368377 129.399933 
L 549.368377 118.285963 
L 551.039441 118.285963 
L 551.039441 108.464315 
L 552.710505 108.464315 
L 552.710505 102.261169 
L 554.38157 102.261169 
L 554.38157 105.362742 
L 556.052634 105.362742 
L 556.052634 101.227312 
L 557.723698 101.227312 
L 557.723698 92.439522 
L 559.394762 92.439522 
L 559.394762 85.719447 
L 561.065827 85.719447 
L 561.065827 86.236376 
L 562.736891 86.236376 
L 562.736891 64.2669 
L 564.407955 64.2669 
L 564.407955 73.313155 
L 566.079019 73.313155 
L 566.079019 64.008436 
L 567.750084 64.008436 
L 567.750084 63.749971 
L 569.421148 63.749971 
L 569.421148 63.233042 
L 571.092212 63.233042 
L 571.092212 70.72851 
L 572.763276 70.72851 
L 572.763276 68.660795 
L 574.434341 68.660795 
L 574.434341 42.03896 
L 576.105405 42.03896 
L 576.105405 64.008436 
L 577.776469 64.008436 
L 577.776469 54.445252 
L 579.447533 54.445252 
L 579.447533 53.669859 
L 581.118598 53.669859 
L 581.118598 32.992705 
L 582.789662 32.992705 
L 582.789662 45.657462 
L 584.460726 45.657462 
L 584.460726 58.063754 
L 586.13179 58.063754 
L 586.13179 50.82675 
L 587.802855 50.82675 
L 587.802855 66.59308 
L 589.473919 66.59308 
L 589.473919 62.716113 
L 591.144983 62.716113 
L 591.144983 71.503904 
L 592.816047 71.503904 
L 592.816047 82.617874 
L 594.487112 82.617874 
L 594.487112 79.257836 
L 596.158176 79.257836 
L 596.158176 68.660795 
L 597.82924 68.660795 
L 597.82924 63.749971 
L 599.500304 63.749971 
L 599.500304 78.999372 
L 601.171369 78.999372 
L 601.171369 76.414728 
L 604.513497 76.414728 
L 604.513497 81.325552 
L 606.184561 81.325552 
L 606.184561 78.740907 
L 607.855626 78.740907 
L 607.855626 97.60881 
L 609.52669 97.60881 
L 609.52669 89.337949 
L 612.868818 89.337949 
L 612.868818 99.418061 
L 614.539882 99.418061 
L 614.539882 75.897799 
L 616.210947 75.897799 
L 616.210947 81.584016 
L 617.882011 81.584016 
L 617.882011 81.84248 
L 619.553075 81.84248 
L 619.553075 87.270233 
L 621.22414 87.270233 
L 621.22414 87.528698 
L 622.895204 87.528698 
L 622.895204 96.058023 
L 624.566268 96.058023 
L 624.566268 94.765701 
L 626.237332 94.765701 
L 626.237332 93.731844 
L 627.908397 93.731844 
L 627.908397 95.28263 
L 629.579461 95.28263 
L 629.579461 97.091881 
L 631.250525 97.091881 
L 631.250525 85.202518 
L 632.921589 85.202518 
L 632.921589 94.507237 
L 634.592654 94.507237 
L 634.592654 99.418061 
L 636.263718 99.418061 
L 636.263718 103.036563 
L 637.934782 103.036563 
L 637.934782 110.790495 
L 639.605846 110.790495 
L 639.605846 97.60881 
L 641.27691 97.60881 
L 641.27691 123.455252 
L 642.947975 123.455252 
L 642.947975 95.024166 
L 644.619039 95.024166 
L 644.619039 131.209184 
L 646.290103 131.209184 
L 646.290103 100.968847 
L 647.961168 100.968847 
L 647.961168 126.039896 
L 649.632232 126.039896 
L 649.632232 145.941656 
L 651.303296 145.941656 
L 651.303296 143.873941 
L 652.97436 143.873941 
L 652.97436 150.335551 
L 654.645424 150.335551 
L 654.645424 160.674128 
L 656.316489 160.674128 
L 656.316489 169.461918 
L 657.987553 169.461918 
L 657.987553 174.114278 
L 659.658617 174.114278 
L 659.658617 181.351281 
L 661.329682 181.351281 
L 661.329682 191.431394 
L 663.000746 191.431394 
L 663.000746 197.117611 
L 664.67181 197.117611 
L 664.67181 208.74851 
L 666.342874 208.74851 
L 666.342874 213.142405 
L 668.013938 213.142405 
L 668.013938 216.760907 
L 669.685003 216.760907 
L 669.685003 224.514839 
L 671.356067 224.514839 
L 671.356067 234.853416 
L 673.027131 234.853416 
L 673.027131 235.370345 
L 674.698195 235.370345 
L 674.698195 239.247311 
L 676.36926 239.247311 
L 676.36926 243.641206 
L 678.040324 243.641206 
L 678.040324 244.933528 
L 679.711388 244.933528 
L 679.711388 239.76424 
L 681.382452 239.76424 
L 681.382452 232.010307 
L 683.053517 232.010307 
L 683.053517 230.459521 
L 684.724581 230.459521 
L 684.724581 218.311693 
L 686.395645 218.311693 
L 686.395645 213.400869 
L 688.06671 213.400869 
L 688.06671 210.55776 
L 689.737774 210.55776 
L 689.737774 206.163865 
L 691.408838 206.163865 
L 691.408838 191.689858 
L 693.079902 191.689858 
L 693.079902 189.363678 
L 694.750967 189.363678 
L 694.750967 193.499109 
L 696.422031 193.499109 
L 696.422031 178.766637 
L 698.093095 178.766637 
L 698.093095 180.058959 
L 699.764159 180.058959 
L 699.764159 175.148135 
L 701.435224 175.148135 
L 701.435224 166.877274 
L 703.106288 166.877274 
L 703.106288 159.898735 
L 704.777352 159.898735 
L 704.777352 150.85248 
L 706.448416 150.85248 
L 706.448416 149.043229 
L 708.119481 149.043229 
L 708.119481 159.898735 
L 709.790545 159.898735 
L 709.790545 148.5263 
L 711.461609 148.5263 
L 711.461609 147.750907 
L 713.132673 147.750907 
L 713.132673 148.267836 
L 714.803738 148.267836 
L 714.803738 136.120008 
L 716.474802 136.120008 
L 716.474802 134.310757 
L 718.145866 134.310757 
L 718.145866 115.959784 
L 719.81693 115.959784 
L 719.81693 132.501506 
L 721.487995 132.501506 
L 721.487995 135.603079 
L 723.159059 135.603079 
L 723.159059 118.802892 
L 724.830123 118.802892 
L 724.830123 119.061357 
L 726.501187 119.061357 
L 726.501187 114.408997 
L 728.172252 114.408997 
L 728.172252 118.802892 
L 729.843316 118.802892 
L 729.843316 99.93499 
L 731.51438 99.93499 
L 731.51438 114.925926 
L 733.185444 114.925926 
L 733.185444 98.642668 
L 734.856509 98.642668 
L 734.856509 121.387536 
L 736.527573 121.387536 
L 736.527573 104.845814 
L 738.198637 104.845814 
L 738.198637 116.218248 
L 739.869701 116.218248 
L 739.869701 119.319821 
L 741.540766 119.319821 
L 741.540766 119.061357 
L 743.21183 119.061357 
L 743.21183 129.399933 
L 744.882894 129.399933 
L 744.882894 118.802892 
L 746.553958 118.802892 
L 746.553958 135.861544 
L 748.225023 135.861544 
L 748.225023 137.41233 
L 749.896087 137.41233 
L 749.896087 131.726113 
L 751.567151 131.726113 
L 751.567151 129.658398 
L 753.238215 129.658398 
L 753.238215 133.535364 
L 754.909279 133.535364 
L 754.909279 143.098547 
L 756.580344 143.098547 
L 756.580344 140.513903 
L 758.251408 140.513903 
L 758.251408 125.522967 
L 759.922472 125.522967 
L 759.922472 149.818622 
L 761.593537 149.818622 
L 761.593537 141.289297 
L 763.264601 141.289297 
L 763.264601 147.492443 
L 764.935665 147.492443 
L 764.935665 144.39087 
L 766.606729 144.39087 
L 766.606729 156.021768 
L 768.277793 156.021768 
L 768.277793 144.39087 
L 769.948858 144.39087 
L 769.948858 159.898735 
L 771.619922 159.898735 
L 771.619922 149.560158 
L 773.290986 149.560158 
L 773.290986 158.347948 
L 774.962051 158.347948 
L 774.962051 155.763304 
L 776.633115 155.763304 
L 776.633115 157.055626 
L 778.304179 157.055626 
L 778.304179 166.101881 
L 779.975243 166.101881 
L 779.975243 179.283566 
L 781.646308 179.283566 
L 781.646308 153.954053 
L 783.317372 153.954053 
L 783.317372 169.461918 
L 784.988436 169.461918 
L 784.988436 173.338884 
L 786.6595 173.338884 
L 786.6595 164.809559 
L 788.330565 164.809559 
L 788.330565 170.75424 
L 790.001629 170.75424 
L 790.001629 167.394203 
L 791.672693 167.394203 
L 791.672693 176.957386 
L 793.343757 176.957386 
L 793.343757 181.609746 
L 795.014822 181.609746 
L 795.014822 182.902068 
L 796.685886 182.902068 
L 796.685886 184.969783 
L 798.35695 184.969783 
L 798.35695 189.105214 
L 800.028014 189.105214 
L 800.028014 191.431394 
L 801.699079 191.431394 
L 801.699079 187.037498 
L 803.370143 187.037498 
L 803.370143 193.240644 
L 805.041207 193.240644 
L 805.041207 206.939259 
L 806.712271 206.939259 
L 806.712271 195.825289 
L 808.383336 195.825289 
L 808.383336 203.579221 
L 810.0544 203.579221 
L 810.0544 212.367011 
L 811.725464 212.367011 
L 811.725464 211.591618 
L 813.396528 211.591618 
L 813.396528 218.311693 
L 815.067593 218.311693 
L 815.067593 220.379408 
L 816.738657 220.379408 
L 816.738657 225.290232 
L 818.409721 225.290232 
L 818.409721 224.773303 
L 820.080785 224.773303 
L 820.080785 230.201056 
L 821.75185 230.201056 
L 821.75185 234.594951 
L 823.422914 234.594951 
L 823.422914 229.167199 
L 825.093978 229.167199 
L 825.093978 232.268772 
L 826.765042 232.268772 
L 826.765042 236.662667 
L 828.436107 236.662667 
L 828.436107 240.281169 
L 830.107171 240.281169 
L 830.107171 241.056562 
L 831.778235 241.056562 
L 831.778235 242.090419 
L 833.449299 242.090419 
L 833.449299 243.641206 
L 835.120363 243.641206 
L 835.120363 244.933528 
L 836.791428 244.933528 
L 836.791428 246.484315 
L 848.488877 246.484315 
L 848.488877 246.484315 
" clip-path="url(#p626b88dc39)" style="fill: none; stroke: #1f77b4; stroke-width: 1.5; stroke-linecap: square"/>
   </g>
   <g id="line2d_32">
    <path d="M 514.276028 246.484315 
L 522.631349 246.484315 
L 522.631349 243.89967 
L 524.302413 243.89967 
L 524.302413 236.145738 
L 525.973477 236.145738 
L 525.973477 229.942592 
L 527.644542 229.942592 
L 527.644542 217.794764 
L 529.315606 217.794764 
L 529.315606 217.277835 
L 530.98667 217.277835 
L 530.98667 209.265438 
L 532.657734 209.265438 
L 532.657734 194.532967 
L 534.328799 194.532967 
L 534.328799 195.566824 
L 535.999863 195.566824 
L 535.999863 184.19439 
L 537.670927 184.19439 
L 537.670927 176.440457 
L 539.341991 176.440457 
L 539.341991 165.584952 
L 541.013056 165.584952 
L 541.013056 156.538697 
L 542.68412 156.538697 
L 542.68412 145.941656 
L 544.355184 145.941656 
L 544.355184 145.166263 
L 546.026248 145.166263 
L 546.026248 122.421394 
L 547.697313 122.421394 
L 547.697313 127.332218 
L 549.368377 127.332218 
L 549.368377 117.51057 
L 551.039441 117.51057 
L 551.039441 106.3966 
L 552.710505 106.3966 
L 552.710505 103.036563 
L 554.38157 103.036563 
L 554.38157 106.138136 
L 556.052634 106.138136 
L 556.052634 102.261169 
L 557.723698 102.261169 
L 557.723698 88.304091 
L 559.394762 88.304091 
L 559.394762 91.922593 
L 561.065827 91.922593 
L 561.065827 85.719447 
L 562.736891 85.719447 
L 562.736891 63.749971 
L 564.407955 63.749971 
L 564.407955 65.300758 
L 566.079019 65.300758 
L 566.079019 65.042293 
L 567.750084 65.042293 
L 567.750084 74.605477 
L 569.421148 74.605477 
L 569.421148 67.626937 
L 571.092212 67.626937 
L 571.092212 57.029896 
L 572.763276 57.029896 
L 572.763276 73.830083 
L 574.434341 73.830083 
L 574.434341 50.568286 
L 576.105405 50.568286 
L 576.105405 52.894466 
L 577.776469 52.894466 
L 577.776469 54.703717 
L 579.447533 54.703717 
L 579.447533 48.759035 
L 581.118598 48.759035 
L 581.118598 40.488174 
L 582.789662 40.488174 
L 582.789662 50.051357 
L 584.460726 50.051357 
L 584.460726 46.949784 
L 586.13179 46.949784 
L 586.13179 56.254503 
L 587.802855 56.254503 
L 587.802855 66.334615 
L 589.473919 66.334615 
L 589.473919 59.356076 
L 591.144983 59.356076 
L 591.144983 80.033229 
L 592.816047 80.033229 
L 592.816047 70.470046 
L 594.487112 70.470046 
L 594.487112 80.291694 
L 596.158176 80.291694 
L 596.158176 66.59308 
L 597.82924 66.59308 
L 597.82924 82.100945 
L 599.500304 82.100945 
L 599.500304 69.953117 
L 601.171369 69.953117 
L 601.171369 74.863941 
L 602.842433 74.863941 
L 602.842433 73.05469 
L 604.513497 73.05469 
L 604.513497 83.651731 
L 606.184561 83.651731 
L 606.184561 86.236376 
L 607.855626 86.236376 
L 607.855626 90.888735 
L 609.52669 90.888735 
L 609.52669 92.181057 
L 611.197754 92.181057 
L 611.197754 81.067087 
L 612.868818 81.067087 
L 612.868818 92.439522 
L 614.539882 92.439522 
L 614.539882 79.516301 
L 616.210947 79.516301 
L 616.210947 98.125739 
L 617.882011 98.125739 
L 617.882011 78.482443 
L 619.553075 78.482443 
L 619.553075 87.528698 
L 621.22414 87.528698 
L 621.22414 80.808623 
L 622.895204 80.808623 
L 622.895204 96.833417 
L 624.566268 96.833417 
L 624.566268 102.261169 
L 626.237332 102.261169 
L 626.237332 86.49484 
L 627.908397 86.49484 
L 627.908397 94.765701 
L 629.579461 94.765701 
L 629.579461 96.833417 
L 631.250525 96.833417 
L 631.250525 87.528698 
L 632.921589 87.528698 
L 632.921589 90.888735 
L 634.592654 90.888735 
L 634.592654 100.968847 
L 636.263718 100.968847 
L 636.263718 103.295027 
L 637.934782 103.295027 
L 637.934782 111.04896 
L 639.605846 111.04896 
L 639.605846 104.845814 
L 641.27691 104.845814 
L 641.27691 107.171993 
L 642.947975 107.171993 
L 642.947975 108.205851 
L 644.619039 108.205851 
L 644.619039 125.006038 
L 646.290103 125.006038 
L 646.290103 115.701319 
L 647.961168 115.701319 
L 647.961168 123.196787 
L 649.632232 123.196787 
L 649.632232 130.95072 
L 651.303296 130.95072 
L 651.303296 147.750907 
L 652.97436 147.750907 
L 652.97436 153.695589 
L 654.645424 153.695589 
L 654.645424 158.864877 
L 656.316489 158.864877 
L 656.316489 169.720382 
L 657.987553 169.720382 
L 657.987553 175.148135 
L 659.658617 175.148135 
L 659.658617 180.834352 
L 661.329682 180.834352 
L 661.329682 192.206787 
L 663.000746 192.206787 
L 663.000746 199.960719 
L 664.67181 199.960719 
L 664.67181 205.388472 
L 666.342874 205.388472 
L 666.342874 213.659333 
L 668.013938 213.659333 
L 668.013938 216.760907 
L 669.685003 216.760907 
L 669.685003 224.256375 
L 671.356067 224.256375 
L 671.356067 234.594951 
L 673.027131 234.594951 
L 673.027131 235.887273 
L 674.698195 235.887273 
L 674.698195 238.471918 
L 676.36926 238.471918 
L 676.36926 243.89967 
L 678.040324 243.89967 
L 678.040324 244.416599 
L 679.711388 244.416599 
L 679.711388 238.471918 
L 681.382452 238.471918 
L 681.382452 233.044165 
L 683.053517 233.044165 
L 683.053517 228.908734 
L 684.724581 228.908734 
L 684.724581 220.379408 
L 686.395645 220.379408 
L 686.395645 213.142405 
L 688.06671 213.142405 
L 688.06671 209.782367 
L 689.737774 209.782367 
L 689.737774 202.545364 
L 691.408838 202.545364 
L 691.408838 195.049895 
L 693.079902 195.049895 
L 693.079902 191.948322 
L 694.750967 191.948322 
L 694.750967 189.105214 
L 696.422031 189.105214 
L 696.422031 182.385139 
L 698.093095 182.385139 
L 698.093095 180.058959 
L 699.764159 180.058959 
L 699.764159 170.237311 
L 701.435224 170.237311 
L 701.435224 169.203454 
L 703.106288 169.203454 
L 703.106288 159.123341 
L 704.777352 159.123341 
L 704.777352 152.920195 
L 706.448416 152.920195 
L 706.448416 153.17866 
L 708.119481 153.17866 
L 708.119481 152.661731 
L 709.790545 152.661731 
L 709.790545 151.369409 
L 711.461609 151.369409 
L 711.461609 147.492443 
L 713.132673 147.492443 
L 713.132673 145.424727 
L 714.803738 145.424727 
L 714.803738 136.895401 
L 716.474802 136.895401 
L 716.474802 131.984577 
L 718.145866 131.984577 
L 718.145866 122.679858 
L 719.81693 122.679858 
L 719.81693 132.243042 
L 721.487995 132.243042 
L 721.487995 128.62454 
L 723.159059 128.62454 
L 723.159059 117.769034 
L 724.830123 117.769034 
L 724.830123 123.713716 
L 726.501187 123.713716 
L 726.501187 117.252106 
L 728.172252 117.252106 
L 728.172252 119.319821 
L 729.843316 119.319821 
L 729.843316 101.744241 
L 731.51438 101.744241 
L 731.51438 108.205851 
L 733.185444 108.205851 
L 733.185444 107.430458 
L 734.856509 107.430458 
L 734.856509 114.150533 
L 736.527573 114.150533 
L 736.527573 106.913529 
L 738.198637 106.913529 
L 738.198637 113.375139 
L 739.869701 113.375139 
L 739.869701 117.769034 
L 741.540766 117.769034 
L 741.540766 123.972181 
L 743.21183 123.972181 
L 743.21183 125.522967 
L 744.882894 125.522967 
L 744.882894 118.285963 
L 746.553958 118.285963 
L 746.553958 135.861544 
L 748.225023 135.861544 
L 748.225023 136.636937 
L 749.896087 136.636937 
L 749.896087 133.018435 
L 751.567151 133.018435 
L 751.567151 133.535364 
L 753.238215 133.535364 
L 753.238215 142.581619 
L 754.909279 142.581619 
L 754.909279 133.535364 
L 756.580344 133.535364 
L 756.580344 135.603079 
L 758.251408 135.603079 
L 758.251408 136.120008 
L 759.922472 136.120008 
L 759.922472 139.996974 
L 761.593537 139.996974 
L 761.593537 149.818622 
L 763.264601 149.818622 
L 763.264601 142.840083 
L 764.935665 142.840083 
L 764.935665 149.560158 
L 766.606729 149.560158 
L 766.606729 147.750907 
L 768.277793 147.750907 
L 768.277793 147.492443 
L 769.948858 147.492443 
L 769.948858 160.157199 
L 771.619922 160.157199 
L 771.619922 148.009371 
L 773.290986 148.009371 
L 773.290986 154.729446 
L 774.962051 154.729446 
L 774.962051 161.707986 
L 776.633115 161.707986 
L 776.633115 155.246375 
L 778.304179 155.246375 
L 778.304179 167.652667 
L 779.975243 167.652667 
L 779.975243 169.461918 
L 781.646308 169.461918 
L 781.646308 167.652667 
L 783.317372 167.652667 
L 783.317372 163.000308 
L 784.988436 163.000308 
L 784.988436 169.978847 
L 786.6595 169.978847 
L 786.6595 171.271169 
L 788.330565 171.271169 
L 788.330565 168.686525 
L 790.001629 168.686525 
L 790.001629 169.203454 
L 791.672693 169.203454 
L 791.672693 175.665064 
L 793.343757 175.665064 
L 793.343757 178.508173 
L 795.014822 178.508173 
L 795.014822 188.071356 
L 796.685886 188.071356 
L 796.685886 186.003641 
L 798.35695 186.003641 
L 798.35695 188.329821 
L 800.028014 188.329821 
L 800.028014 182.643603 
L 801.699079 182.643603 
L 801.699079 195.825289 
L 803.370143 195.825289 
L 803.370143 195.30836 
L 805.041207 195.30836 
L 805.041207 196.083753 
L 806.712271 196.083753 
L 806.712271 203.837686 
L 808.383336 203.837686 
L 808.383336 201.253041 
L 810.0544 201.253041 
L 810.0544 213.917798 
L 811.725464 213.917798 
L 811.725464 211.591618 
L 813.396528 211.591618 
L 813.396528 217.019371 
L 815.067593 217.019371 
L 815.067593 220.896337 
L 816.738657 220.896337 
L 816.738657 225.290232 
L 818.409721 225.290232 
L 818.409721 225.548697 
L 820.080785 225.548697 
L 820.080785 228.908734 
L 821.75185 228.908734 
L 821.75185 233.561094 
L 823.422914 233.561094 
L 823.422914 232.010307 
L 825.093978 232.010307 
L 825.093978 232.527236 
L 826.765042 232.527236 
L 826.765042 235.628809 
L 828.436107 235.628809 
L 828.436107 239.505775 
L 830.107171 239.505775 
L 830.107171 241.315026 
L 831.778235 241.315026 
L 831.778235 242.348884 
L 833.449299 242.348884 
L 833.449299 243.641206 
L 835.120363 243.641206 
L 835.120363 244.675064 
L 836.791428 244.675064 
L 836.791428 245.191992 
L 838.462492 245.191992 
L 838.462492 246.22585 
L 840.133556 246.22585 
L 840.133556 246.484315 
L 848.488877 246.484315 
L 848.488877 246.484315 
" clip-path="url(#p626b88dc39)" style="fill: none; stroke: #ff7f0e; stroke-width: 1.5; stroke-linecap: square"/>
   </g>
   <g id="patch_9">
    <path d="M 497.565385 257.158895 
L 497.565385 22.318125 
" style="fill: none; stroke: #000000; stroke-width: 0.8; stroke-linejoin: miter; stroke-linecap: square"/>
   </g>
   <g id="patch_10">
    <path d="M 865.19952 257.158895 
L 865.19952 22.318125 
" style="fill: none; stroke: #000000; stroke-width: 0.8; stroke-linejoin: miter; stroke-linecap: square"/>
   </g>
   <g id="patch_11">
    <path d="M 497.565385 257.158895 
L 865.19952 257.158895 
" style="fill: none; stroke: #000000; stroke-width: 0.8; stroke-linejoin: miter; stroke-linecap: square"/>
   </g>
   <g id="patch_12">
    <path d="M 497.565385 22.318125 
L 865.19952 22.318125 
" style="fill: none; stroke: #000000; stroke-width: 0.8; stroke-linejoin: miter; stroke-linecap: square"/>
   </g>
   <g id="text_34">
    <!-- Pixel 2 -->
    <g transform="translate(661.78589 16.318125) scale(0.12 -0.12)">
     <use xlink:href="#DejaVuSans-50"/>
     <use xlink:href="#DejaVuSans-69" transform="translate(58.052734 0)"/>
     <use xlink:href="#DejaVuSans-78" transform="translate(85.835938 0)"/>
     <use xlink:href="#DejaVuSans-65" transform="translate(141.890625 0)"/>
     <use xlink:href="#DejaVuSans-6c" transform="translate(203.414062 0)"/>
     <use xlink:href="#DejaVuSans-20" transform="translate(231.197266 0)"/>
     <use xlink:href="#DejaVuSans-32" transform="translate(262.984375 0)"/>
    </g>
   </g>
   <g id="legend_2">
    <g id="patch_13">
     <path d="M 761.196395 59.9525 
L 858.19952 59.9525 
Q 860.19952 59.9525 860.19952 57.9525 
L 860.19952 29.318125 
Q 860.19952 27.318125 858.19952 27.318125 
L 761.196395 27.318125 
Q 759.196395 27.318125 759.196395 29.318125 
L 759.196395 57.9525 
Q 759.196395 59.9525 761.196395 59.9525 
z
" style="fill: #ffffff; opacity: 0.8; stroke: #cccccc; stroke-linejoin: miter"/>
    </g>
    <g id="line2d_33">
     <path d="M 763.196395 35.416562 
L 763.196395 35.416562 
L 773.196395 35.416562 
L 773.196395 35.416562 
L 783.196395 35.416562 
" style="fill: none; stroke: #1f77b4; stroke-width: 1.5; stroke-linecap: square"/>
    </g>
    <g id="text_35">
     <!-- wfm -->
     <g transform="translate(791.196395 38.916562) scale(0.1 -0.1)">
      <use xlink:href="#DejaVuSans-77"/>
      <use xlink:href="#DejaVuSans-66" transform="translate(81.787109 0)"/>
      <use xlink:href="#DejaVuSans-6d" transform="translate(116.992188 0)"/>
     </g>
    </g>
    <g id="line2d_34">
     <path d="M 763.196395 50.094687 
L 763.196395 50.094687 
L 773.196395 50.094687 
L 773.196395 50.094687 
L 783.196395 50.094687 
" style="fill: none; stroke: #ff7f0e; stroke-width: 1.5; stroke-linecap: square"/>
    </g>
    <g id="text_36">
     <!-- ground_truth -->
     <g transform="translate(791.196395 53.594687) scale(0.1 -0.1)">
      <use xlink:href="#DejaVuSans-67"/>
      <use xlink:href="#DejaVuSans-72" transform="translate(63.476562 0)"/>
      <use xlink:href="#DejaVuSans-6f" transform="translate(102.339844 0)"/>
      <use xlink:href="#DejaVuSans-75" transform="translate(163.521484 0)"/>
      <use xlink:href="#DejaVuSans-6e" transform="translate(226.900391 0)"/>
      <use xlink:href="#DejaVuSans-64" transform="translate(290.279297 0)"/>
      <use xlink:href="#DejaVuSans-5f" transform="translate(353.755859 0)"/>
      <use xlink:href="#DejaVuSans-74" transform="translate(403.755859 0)"/>
      <use xlink:href="#DejaVuSans-72" transform="translate(442.964844 0)"/>
      <use xlink:href="#DejaVuSans-75" transform="translate(484.078125 0)"/>
      <use xlink:href="#DejaVuSans-74" transform="translate(547.457031 0)"/>
      <use xlink:href="#DejaVuSans-68" transform="translate(586.666016 0)"/>
     </g>
    </g>
   </g>
  </g>
 </g>
 <defs>
  <clipPath id="p95ddcdc0ca">
   <rect x="46.965625" y="22.318125" width="367.634135" height="234.84077"/>
  </clipPath>
  <clipPath id="p626b88dc39">
   <rect x="497.565385" y="22.318125" width="367.634135" height="234.84077"/>
  </clipPath>
 </defs>
</svg>
