<?xml version="1.0" encoding="utf-8" standalone="no"?>
<!DOCTYPE svg PUBLIC "-//W3C//DTD SVG 1.1//EN"
  "http://www.w3.org/Graphics/SVG/1.1/DTD/svg11.dtd">
<svg xmlns:xlink="http://www.w3.org/1999/xlink" width="388.965625pt" height="266.794375pt" viewBox="0 0 388.965625 266.794375" xmlns="http://www.w3.org/2000/svg" version="1.1">
 <metadata>
  <rdf:RDF xmlns:dc="http://purl.org/dc/elements/1.1/" xmlns:cc="http://creativecommons.org/ns#" xmlns:rdf="http://www.w3.org/1999/02/22-rdf-syntax-ns#">
   <cc:Work>
    <dc:type rdf:resource="http://purl.org/dc/dcmitype/StillImage"/>
    <dc:date>2026-02-12T13:04:24.507631</dc:date>
    <dc:format>image/svg+xml</dc:format>
    <dc:creator>
     <cc:Agent>
      <dc:title>Matplotlib v3.10.8, https://matplotlib.org/</dc:title>
     </cc:Agent>
    </dc:creator>
   </cc:Work>
  </rdf:RDF>
 </metadata>
 <defs>
  <style type="text/css">*{stroke-linejoin: round; stroke-linecap: butt}</style>
 </defs>
 <g id="figure_1">
  <g id="patch_1">
   <path d="M 0 266.794375 
L 388.965625 266.794375 
L 388.965625 0 
L 0 0 
z
" style="fill: #ffffff"/>
  </g>
  <g id="axes_1">
   <g id="patch_2">
    <path d="M 46.965625 228.96 
L 381.765625 228.96 
L 381.765625 7.2 
L 46.965625 7.2 
z
" style="fill: #ffffff"/>
   </g>
   <g id="matplotlib.axis_1">
    <g id="xtick_1">
     <g id="line2d_1">
      <defs>
       <path id="mb36136347e" d="M 0 0 
L 0 3.5 
" style="stroke: #000000; stroke-width: 0.8"/>
      </defs>
      <g>
       <use xlink:href="#mb36136347e" x="62.1821" y="228.96" style="stroke: #000000; stroke-width: 0.8"/>
      </g>
     </g>
     <g id="text_1">
      <!-- 0 -->
      <g transform="translate(59.00085 243.558437) scale(0.1 -0.1)">
       <defs>
        <path id="DejaVuSans-30" d="M 2034 4250 
Q 1547 4250 1301 3770 
Q 1056 3291 1056 2328 
Q 1056 1369 1301 889 
Q 1547 409 2034 409 
Q 2525 409 2770 889 
Q 3016 1369 3016 2328 
Q 3016 3291 2770 3770 
Q 2525 4250 2034 4250 
z
M 2034 4750 
Q 2819 4750 3233 4129 
Q 3647 3509 3647 2328 
Q 3647 1150 3233 529 
Q 2819 -91 2034 -91 
Q 1250 -91 836 529 
Q 422 1150 422 2328 
Q 422 3509 836 4129 
Q 1250 4750 2034 4750 
z
" transform="scale(0.015625)"/>
       </defs>
       <use xlink:href="#DejaVuSans-30"/>
      </g>
     </g>
    </g>
    <g id="xtick_2">
     <g id="line2d_2">
      <g>
       <use xlink:href="#mb36136347e" x="104.793562" y="228.96" style="stroke: #000000; stroke-width: 0.8"/>
      </g>
     </g>
     <g id="text_2">
      <!-- 10000 -->
      <g transform="translate(88.887312 243.558437) scale(0.1 -0.1)">
       <defs>
        <path id="DejaVuSans-31" d="M 794 531 
L 1825 531 
L 1825 4091 
L 703 3866 
L 703 4441 
L 1819 4666 
L 2450 4666 
L 2450 531 
L 3481 531 
L 3481 0 
L 794 0 
L 794 531 
z
" transform="scale(0.015625)"/>
       </defs>
       <use xlink:href="#DejaVuSans-31"/>
       <use xlink:href="#DejaVuSans-30" transform="translate(63.623047 0)"/>
       <use xlink:href="#DejaVuSans-30" transform="translate(127.246094 0)"/>
       <use xlink:href="#DejaVuSans-30" transform="translate(190.869141 0)"/>
       <use xlink:href="#DejaVuSans-30" transform="translate(254.492188 0)"/>
      </g>
     </g>
    </g>
    <g id="xtick_3">
     <g id="line2d_3">
      <g>
       <use xlink:href="#mb36136347e" x="147.405024" y="228.96" style="stroke: #000000; stroke-width: 0.8"/>
      </g>
     </g>
     <g id="text_3">
      <!-- 20000 -->
      <g transform="translate(131.498774 243.558437) scale(0.1 -0.1)">
       <defs>
        <path id="DejaVuSans-32" d="M 1228 531 
L 3431 531 
L 3431 0 
L 469 0 
L 469 531 
Q 828 903 1448 1529 
Q 2069 2156 2228 2338 
Q 2531 2678 2651 2914 
Q 2772 3150 2772 3378 
Q 2772 3750 2511 3984 
Q 2250 4219 1831 4219 
Q 1534 4219 1204 4116 
Q 875 4013 500 3803 
L 500 4441 
Q 881 4594 1212 4672 
Q 1544 4750 1819 4750 
Q 2544 4750 2975 4387 
Q 3406 4025 3406 3419 
Q 3406 3131 3298 2873 
Q 3191 2616 2906 2266 
Q 2828 2175 2409 1742 
Q 1991 1309 1228 531 
z
" transform="scale(0.015625)"/>
       </defs>
       <use xlink:href="#DejaVuSans-32"/>
       <use xlink:href="#DejaVuSans-30" transform="translate(63.623047 0)"/>
       <use xlink:href="#DejaVuSans-30" transform="translate(127.246094 0)"/>
       <use xlink:href="#DejaVuSans-30" transform="translate(190.869141 0)"/>
       <use xlink:href="#DejaVuSans-30" transform="translate(254.492188 0)"/>
      </g>
     </g>
    </g>
    <g id="xtick_4">
     <g id="line2d_4">
      <g>
       <use xlink:href="#mb36136347e" x="190.016487" y="228.96" style="stroke: #000000; stroke-width: 0.8"/>
      </g>
     </g>
     <g id="text_4">
      <!-- 30000 -->
      <g transform="translate(174.110237 243.558437) scale(0.1 -0.1)">
       <defs>
        <path id="DejaVuSans-33" d="M 2597 2516 
Q 3050 2419 3304 2112 
Q 3559 1806 3559 1356 
Q 3559 666 3084 287 
Q 2609 -91 1734 -91 
Q 1441 -91 1130 -33 
Q 819 25 488 141 
L 488 750 
Q 750 597 1062 519 
Q 1375 441 1716 441 
Q 2309 441 2620 675 
Q 2931 909 2931 1356 
Q 2931 1769 2642 2001 
Q 2353 2234 1838 2234 
L 1294 2234 
L 1294 2753 
L 1863 2753 
Q 2328 2753 2575 2939 
Q 2822 3125 2822 3475 
Q 2822 3834 2567 4026 
Q 2313 4219 1838 4219 
Q 1578 4219 1281 4162 
Q 984 4106 628 3988 
L 628 4550 
Q 988 4650 1302 4700 
Q 1616 4750 1894 4750 
Q 2613 4750 3031 4423 
Q 3450 4097 3450 3541 
Q 3450 3153 3228 2886 
Q 3006 2619 2597 2516 
z
" transform="scale(0.015625)"/>
       </defs>
       <use xlink:href="#DejaVuSans-33"/>
       <use xlink:href="#DejaVuSans-30" transform="translate(63.623047 0)"/>
       <use xlink:href="#DejaVuSans-30" transform="translate(127.246094 0)"/>
       <use xlink:href="#DejaVuSans-30" transform="translate(190.869141 0)"/>
       <use xlink:href="#DejaVuSans-30" transform="translate(254.492188 0)"/>
      </g>
     </g>
    </g>
    <g id="xtick_5">
     <g id="line2d_5">
      <g>
       <use xlink:href="#mb36136347e" x="232.627949" y="228.96" style="stroke: #000000; stroke-width: 0.8"/>
      </g>
     </g>
     <g id="text_5">
      <!-- 40000 -->
      <g transform="translate(216.721699 243.558437) scale(0.1 -0.1)">
       <defs>
        <path id="DejaVuSans-34" d="M 2419 4116 
L 825 1625 
L 2419 1625 
L 2419 4116 
z
M 2253 4666 
L 3047 4666 
L 3047 1625 
L 3713 1625 
L 3713 1100 
L 3047 1100 
L 3047 0 
L 2419 0 
L 2419 1100 
L 313 1100 
L 313 1709 
L 2253 4666 
z
" transform="scale(0.015625)"/>
       </defs>
       <use xlink:href="#DejaVuSans-34"/>
       <use xlink:href="#DejaVuSans-30" transform="translate(63.623047 0)"/>
       <use xlink:href="#DejaVuSans-30" transform="translate(127.246094 0)"/>
       <use xlink:href="#DejaVuSans-30" transform="translate(190.869141 0)"/>
       <use xlink:href="#DejaVuSans-30" transform="translate(254.492188 0)"/>
      </g>
     </g>
    </g>
    <g id="xtick_6">
     <g id="line2d_6">
      <g>
       <use xlink:href="#mb36136347e" x="275.239411" y="228.96" style="stroke: #000000; stroke-width: 0.8"/>
      </g>
     </g>
     <g id="text_6">
      <!-- 50000 -->
      <g transform="translate(259.333161 243.558437) scale(0.1 -0.1)">
       <defs>
        <path id="DejaVuSans-35" d="M 691 4666 
L 3169 4666 
L 3169 4134 
L 1269 4134 
L 1269 2991 
Q 1406 3038 1543 3061 
Q 1681 3084 1819 3084 
Q 2600 3084 3056 2656 
Q 3513 2228 3513 1497 
Q 3513 744 3044 326 
Q 2575 -91 1722 -91 
Q 1428 -91 1123 -41 
Q 819 9 494 109 
L 494 744 
Q 775 591 1075 516 
Q 1375 441 1709 441 
Q 2250 441 2565 725 
Q 2881 1009 2881 1497 
Q 2881 1984 2565 2268 
Q 2250 2553 1709 2553 
Q 1456 2553 1204 2497 
Q 953 2441 691 2322 
L 691 4666 
z
" transform="scale(0.015625)"/>
       </defs>
       <use xlink:href="#DejaVuSans-35"/>
       <use xlink:href="#DejaVuSans-30" transform="translate(63.623047 0)"/>
       <use xlink:href="#DejaVuSans-30" transform="translate(127.246094 0)"/>
       <use xlink:href="#DejaVuSans-30" transform="translate(190.869141 0)"/>
       <use xlink:href="#DejaVuSans-30" transform="translate(254.492188 0)"/>
      </g>
     </g>
    </g>
    <g id="xtick_7">
     <g id="line2d_7">
      <g>
       <use xlink:href="#mb36136347e" x="317.850873" y="228.96" style="stroke: #000000; stroke-width: 0.8"/>
      </g>
     </g>
     <g id="text_7">
      <!-- 60000 -->
      <g transform="translate(301.944623 243.558437) scale(0.1 -0.1)">
       <defs>
        <path id="DejaVuSans-36" d="M 2113 2584 
Q 1688 2584 1439 2293 
Q 1191 2003 1191 1497 
Q 1191 994 1439 701 
Q 1688 409 2113 409 
Q 2538 409 2786 701 
Q 3034 994 3034 1497 
Q 3034 2003 2786 2293 
Q 2538 2584 2113 2584 
z
M 3366 4563 
L 3366 3988 
Q 3128 4100 2886 4159 
Q 2644 4219 2406 4219 
Q 1781 4219 1451 3797 
Q 1122 3375 1075 2522 
Q 1259 2794 1537 2939 
Q 1816 3084 2150 3084 
Q 2853 3084 3261 2657 
Q 3669 2231 3669 1497 
Q 3669 778 3244 343 
Q 2819 -91 2113 -91 
Q 1303 -91 875 529 
Q 447 1150 447 2328 
Q 447 3434 972 4092 
Q 1497 4750 2381 4750 
Q 2619 4750 2861 4703 
Q 3103 4656 3366 4563 
z
" transform="scale(0.015625)"/>
       </defs>
       <use xlink:href="#DejaVuSans-36"/>
       <use xlink:href="#DejaVuSans-30" transform="translate(63.623047 0)"/>
       <use xlink:href="#DejaVuSans-30" transform="translate(127.246094 0)"/>
       <use xlink:href="#DejaVuSans-30" transform="translate(190.869141 0)"/>
       <use xlink:href="#DejaVuSans-30" transform="translate(254.492188 0)"/>
      </g>
     </g>
    </g>
    <g id="xtick_8">
     <g id="line2d_8">
      <g>
       <use xlink:href="#mb36136347e" x="360.462335" y="228.96" style="stroke: #000000; stroke-width: 0.8"/>
      </g>
     </g>
     <g id="text_8">
      <!-- 70000 -->
      <g transform="translate(344.556085 243.558437) scale(0.1 -0.1)">
       <defs>
        <path id="DejaVuSans-37" d="M 525 4666 
L 3525 4666 
L 3525 4397 
L 1831 0 
L 1172 0 
L 2766 4134 
L 525 4134 
L 525 4666 
z
" transform="scale(0.015625)"/>
       </defs>
       <use xlink:href="#DejaVuSans-37"/>
       <use xlink:href="#DejaVuSans-30" transform="translate(63.623047 0)"/>
       <use xlink:href="#DejaVuSans-30" transform="translate(127.246094 0)"/>
       <use xlink:href="#DejaVuSans-30" transform="translate(190.869141 0)"/>
       <use xlink:href="#DejaVuSans-30" transform="translate(254.492188 0)"/>
      </g>
     </g>
    </g>
    <g id="text_9">
     <!-- event_time_offset [µs] -->
     <g transform="translate(158.330469 257.236562) scale(0.1 -0.1)">
      <defs>
       <path id="DejaVuSans-65" d="M 3597 1894 
L 3597 1613 
L 953 1613 
Q 991 1019 1311 708 
Q 1631 397 2203 397 
Q 2534 397 2845 478 
Q 3156 559 3463 722 
L 3463 178 
Q 3153 47 2828 -22 
Q 2503 -91 2169 -91 
Q 1331 -91 842 396 
Q 353 884 353 1716 
Q 353 2575 817 3079 
Q 1281 3584 2069 3584 
Q 2775 3584 3186 3129 
Q 3597 2675 3597 1894 
z
M 3022 2063 
Q 3016 2534 2758 2815 
Q 2500 3097 2075 3097 
Q 1594 3097 1305 2825 
Q 1016 2553 972 2059 
L 3022 2063 
z
" transform="scale(0.015625)"/>
       <path id="DejaVuSans-76" d="M 191 3500 
L 800 3500 
L 1894 563 
L 2988 3500 
L 3597 3500 
L 2284 0 
L 1503 0 
L 191 3500 
z
" transform="scale(0.015625)"/>
       <path id="DejaVuSans-6e" d="M 3513 2113 
L 3513 0 
L 2938 0 
L 2938 2094 
Q 2938 2591 2744 2837 
Q 2550 3084 2163 3084 
Q 1697 3084 1428 2787 
Q 1159 2491 1159 1978 
L 1159 0 
L 581 0 
L 581 3500 
L 1159 3500 
L 1159 2956 
Q 1366 3272 1645 3428 
Q 1925 3584 2291 3584 
Q 2894 3584 3203 3211 
Q 3513 2838 3513 2113 
z
" transform="scale(0.015625)"/>
       <path id="DejaVuSans-74" d="M 1172 4494 
L 1172 3500 
L 2356 3500 
L 2356 3053 
L 1172 3053 
L 1172 1153 
Q 1172 725 1289 603 
Q 1406 481 1766 481 
L 2356 481 
L 2356 0 
L 1766 0 
Q 1100 0 847 248 
Q 594 497 594 1153 
L 594 3053 
L 172 3053 
L 172 3500 
L 594 3500 
L 594 4494 
L 1172 4494 
z
" transform="scale(0.015625)"/>
       <path id="DejaVuSans-5f" d="M 3263 -1063 
L 3263 -1509 
L -63 -1509 
L -63 -1063 
L 3263 -1063 
z
" transform="scale(0.015625)"/>
       <path id="DejaVuSans-69" d="M 603 3500 
L 1178 3500 
L 1178 0 
L 603 0 
L 603 3500 
z
M 603 4863 
L 1178 4863 
L 1178 4134 
L 603 4134 
L 603 4863 
z
" transform="scale(0.015625)"/>
       <path id="DejaVuSans-6d" d="M 3328 2828 
Q 3544 3216 3844 3400 
Q 4144 3584 4550 3584 
Q 5097 3584 5394 3201 
Q 5691 2819 5691 2113 
L 5691 0 
L 5113 0 
L 5113 2094 
Q 5113 2597 4934 2840 
Q 4756 3084 4391 3084 
Q 3944 3084 3684 2787 
Q 3425 2491 3425 1978 
L 3425 0 
L 2847 0 
L 2847 2094 
Q 2847 2600 2669 2842 
Q 2491 3084 2119 3084 
Q 1678 3084 1418 2786 
Q 1159 2488 1159 1978 
L 1159 0 
L 581 0 
L 581 3500 
L 1159 3500 
L 1159 2956 
Q 1356 3278 1631 3431 
Q 1906 3584 2284 3584 
Q 2666 3584 2933 3390 
Q 3200 3197 3328 2828 
z
" transform="scale(0.015625)"/>
       <path id="DejaVuSans-6f" d="M 1959 3097 
Q 1497 3097 1228 2736 
Q 959 2375 959 1747 
Q 959 1119 1226 758 
Q 1494 397 1959 397 
Q 2419 397 2687 759 
Q 2956 1122 2956 1747 
Q 2956 2369 2687 2733 
Q 2419 3097 1959 3097 
z
M 1959 3584 
Q 2709 3584 3137 3096 
Q 3566 2609 3566 1747 
Q 3566 888 3137 398 
Q 2709 -91 1959 -91 
Q 1206 -91 779 398 
Q 353 888 353 1747 
Q 353 2609 779 3096 
Q 1206 3584 1959 3584 
z
" transform="scale(0.015625)"/>
       <path id="DejaVuSans-66" d="M 2375 4863 
L 2375 4384 
L 1825 4384 
Q 1516 4384 1395 4259 
Q 1275 4134 1275 3809 
L 1275 3500 
L 2222 3500 
L 2222 3053 
L 1275 3053 
L 1275 0 
L 697 0 
L 697 3053 
L 147 3053 
L 147 3500 
L 697 3500 
L 697 3744 
Q 697 4328 969 4595 
Q 1241 4863 1831 4863 
L 2375 4863 
z
" transform="scale(0.015625)"/>
       <path id="DejaVuSans-73" d="M 2834 3397 
L 2834 2853 
Q 2591 2978 2328 3040 
Q 2066 3103 1784 3103 
Q 1356 3103 1142 2972 
Q 928 2841 928 2578 
Q 928 2378 1081 2264 
Q 1234 2150 1697 2047 
L 1894 2003 
Q 2506 1872 2764 1633 
Q 3022 1394 3022 966 
Q 3022 478 2636 193 
Q 2250 -91 1575 -91 
Q 1294 -91 989 -36 
Q 684 19 347 128 
L 347 722 
Q 666 556 975 473 
Q 1284 391 1588 391 
Q 1994 391 2212 530 
Q 2431 669 2431 922 
Q 2431 1156 2273 1281 
Q 2116 1406 1581 1522 
L 1381 1569 
Q 847 1681 609 1914 
Q 372 2147 372 2553 
Q 372 3047 722 3315 
Q 1072 3584 1716 3584 
Q 2034 3584 2315 3537 
Q 2597 3491 2834 3397 
z
" transform="scale(0.015625)"/>
       <path id="DejaVuSans-20" transform="scale(0.015625)"/>
       <path id="DejaVuSans-5b" d="M 550 4863 
L 1875 4863 
L 1875 4416 
L 1125 4416 
L 1125 -397 
L 1875 -397 
L 1875 -844 
L 550 -844 
L 550 4863 
z
" transform="scale(0.015625)"/>
       <path id="DejaVuSans-b5" d="M 544 -1331 
L 544 3500 
L 1119 3500 
L 1119 1325 
Q 1119 872 1334 640 
Q 1550 409 1972 409 
Q 2434 409 2667 671 
Q 2900 934 2900 1459 
L 2900 3500 
L 3475 3500 
L 3475 806 
Q 3475 619 3529 530 
Q 3584 441 3700 441 
Q 3728 441 3778 458 
Q 3828 475 3916 513 
L 3916 50 
Q 3788 -22 3673 -56 
Q 3559 -91 3450 -91 
Q 3234 -91 3106 31 
Q 2978 153 2931 403 
Q 2775 156 2548 32 
Q 2322 -91 2016 -91 
Q 1697 -91 1473 31 
Q 1250 153 1119 397 
L 1119 -1331 
L 544 -1331 
z
" transform="scale(0.015625)"/>
       <path id="DejaVuSans-5d" d="M 1947 4863 
L 1947 -844 
L 622 -844 
L 622 -397 
L 1369 -397 
L 1369 4416 
L 622 4416 
L 622 4863 
L 1947 4863 
z
" transform="scale(0.015625)"/>
      </defs>
      <use xlink:href="#DejaVuSans-65"/>
      <use xlink:href="#DejaVuSans-76" transform="translate(61.523438 0)"/>
      <use xlink:href="#DejaVuSans-65" transform="translate(120.703125 0)"/>
      <use xlink:href="#DejaVuSans-6e" transform="translate(182.226562 0)"/>
      <use xlink:href="#DejaVuSans-74" transform="translate(245.605469 0)"/>
      <use xlink:href="#DejaVuSans-5f" transform="translate(284.814453 0)"/>
      <use xlink:href="#DejaVuSans-74" transform="translate(334.814453 0)"/>
      <use xlink:href="#DejaVuSans-69" transform="translate(374.023438 0)"/>
      <use xlink:href="#DejaVuSans-6d" transform="translate(401.806641 0)"/>
      <use xlink:href="#DejaVuSans-65" transform="translate(499.21875 0)"/>
      <use xlink:href="#DejaVuSans-5f" transform="translate(560.742188 0)"/>
      <use xlink:href="#DejaVuSans-6f" transform="translate(610.742188 0)"/>
      <use xlink:href="#DejaVuSans-66" transform="translate(671.923828 0)"/>
      <use xlink:href="#DejaVuSans-66" transform="translate(707.128906 0)"/>
      <use xlink:href="#DejaVuSans-73" transform="translate(742.333984 0)"/>
      <use xlink:href="#DejaVuSans-65" transform="translate(794.433594 0)"/>
      <use xlink:href="#DejaVuSans-74" transform="translate(855.957031 0)"/>
      <use xlink:href="#DejaVuSans-20" transform="translate(895.166016 0)"/>
      <use xlink:href="#DejaVuSans-5b" transform="translate(926.953125 0)"/>
      <use xlink:href="#DejaVuSans-b5" transform="translate(965.966797 0)"/>
      <use xlink:href="#DejaVuSans-73" transform="translate(1029.589844 0)"/>
      <use xlink:href="#DejaVuSans-5d" transform="translate(1081.689453 0)"/>
     </g>
    </g>
   </g>
   <g id="matplotlib.axis_2">
    <g id="ytick_1">
     <g id="line2d_9">
      <defs>
       <path id="mbf8cec2cdf" d="M 0 0 
L -3.5 0 
" style="stroke: #000000; stroke-width: 0.8"/>
      </defs>
      <g>
       <use xlink:href="#mbf8cec2cdf" x="46.965625" y="218.88" style="stroke: #000000; stroke-width: 0.8"/>
      </g>
     </g>
     <g id="text_10">
      <!-- 0 -->
      <g transform="translate(33.603125 222.679219) scale(0.1 -0.1)">
       <use xlink:href="#DejaVuSans-30"/>
      </g>
     </g>
    </g>
    <g id="ytick_2">
     <g id="line2d_10">
      <g>
       <use xlink:href="#mbf8cec2cdf" x="46.965625" y="184.825946" style="stroke: #000000; stroke-width: 0.8"/>
      </g>
     </g>
     <g id="text_11">
      <!-- 100 -->
      <g transform="translate(20.878125 188.625165) scale(0.1 -0.1)">
       <use xlink:href="#DejaVuSans-31"/>
       <use xlink:href="#DejaVuSans-30" transform="translate(63.623047 0)"/>
       <use xlink:href="#DejaVuSans-30" transform="translate(127.246094 0)"/>
      </g>
     </g>
    </g>
    <g id="ytick_3">
     <g id="line2d_11">
      <g>
       <use xlink:href="#mbf8cec2cdf" x="46.965625" y="150.771892" style="stroke: #000000; stroke-width: 0.8"/>
      </g>
     </g>
     <g id="text_12">
      <!-- 200 -->
      <g transform="translate(20.878125 154.571111) scale(0.1 -0.1)">
       <use xlink:href="#DejaVuSans-32"/>
       <use xlink:href="#DejaVuSans-30" transform="translate(63.623047 0)"/>
       <use xlink:href="#DejaVuSans-30" transform="translate(127.246094 0)"/>
      </g>
     </g>
    </g>
    <g id="ytick_4">
     <g id="line2d_12">
      <g>
       <use xlink:href="#mbf8cec2cdf" x="46.965625" y="116.717838" style="stroke: #000000; stroke-width: 0.8"/>
      </g>
     </g>
     <g id="text_13">
      <!-- 300 -->
      <g transform="translate(20.878125 120.517057) scale(0.1 -0.1)">
       <use xlink:href="#DejaVuSans-33"/>
       <use xlink:href="#DejaVuSans-30" transform="translate(63.623047 0)"/>
       <use xlink:href="#DejaVuSans-30" transform="translate(127.246094 0)"/>
      </g>
     </g>
    </g>
    <g id="ytick_5">
     <g id="line2d_13">
      <g>
       <use xlink:href="#mbf8cec2cdf" x="46.965625" y="82.663784" style="stroke: #000000; stroke-width: 0.8"/>
      </g>
     </g>
     <g id="text_14">
      <!-- 400 -->
      <g transform="translate(20.878125 86.463003) scale(0.1 -0.1)">
       <use xlink:href="#DejaVuSans-34"/>
       <use xlink:href="#DejaVuSans-30" transform="translate(63.623047 0)"/>
       <use xlink:href="#DejaVuSans-30" transform="translate(127.246094 0)"/>
      </g>
     </g>
    </g>
    <g id="ytick_6">
     <g id="line2d_14">
      <g>
       <use xlink:href="#mbf8cec2cdf" x="46.965625" y="48.60973" style="stroke: #000000; stroke-width: 0.8"/>
      </g>
     </g>
     <g id="text_15">
      <!-- 500 -->
      <g transform="translate(20.878125 52.408948) scale(0.1 -0.1)">
       <use xlink:href="#DejaVuSans-35"/>
       <use xlink:href="#DejaVuSans-30" transform="translate(63.623047 0)"/>
       <use xlink:href="#DejaVuSans-30" transform="translate(127.246094 0)"/>
      </g>
     </g>
    </g>
    <g id="ytick_7">
     <g id="line2d_15">
      <g>
       <use xlink:href="#mbf8cec2cdf" x="46.965625" y="14.555676" style="stroke: #000000; stroke-width: 0.8"/>
      </g>
     </g>
     <g id="text_16">
      <!-- 600 -->
      <g transform="translate(20.878125 18.354894) scale(0.1 -0.1)">
       <use xlink:href="#DejaVuSans-36"/>
       <use xlink:href="#DejaVuSans-30" transform="translate(63.623047 0)"/>
       <use xlink:href="#DejaVuSans-30" transform="translate(127.246094 0)"/>
      </g>
     </g>
    </g>
    <g id="text_17">
     <!-- [counts] -->
     <g transform="translate(14.798438 138.6925) rotate(-90) scale(0.1 -0.1)">
      <defs>
       <path id="DejaVuSans-63" d="M 3122 3366 
L 3122 2828 
Q 2878 2963 2633 3030 
Q 2388 3097 2138 3097 
Q 1578 3097 1268 2742 
Q 959 2388 959 1747 
Q 959 1106 1268 751 
Q 1578 397 2138 397 
Q 2388 397 2633 464 
Q 2878 531 3122 666 
L 3122 134 
Q 2881 22 2623 -34 
Q 2366 -91 2075 -91 
Q 1284 -91 818 406 
Q 353 903 353 1747 
Q 353 2603 823 3093 
Q 1294 3584 2113 3584 
Q 2378 3584 2631 3529 
Q 2884 3475 3122 3366 
z
" transform="scale(0.015625)"/>
       <path id="DejaVuSans-75" d="M 544 1381 
L 544 3500 
L 1119 3500 
L 1119 1403 
Q 1119 906 1312 657 
Q 1506 409 1894 409 
Q 2359 409 2629 706 
Q 2900 1003 2900 1516 
L 2900 3500 
L 3475 3500 
L 3475 0 
L 2900 0 
L 2900 538 
Q 2691 219 2414 64 
Q 2138 -91 1772 -91 
Q 1169 -91 856 284 
Q 544 659 544 1381 
z
M 1991 3584 
L 1991 3584 
z
" transform="scale(0.015625)"/>
      </defs>
      <use xlink:href="#DejaVuSans-5b"/>
      <use xlink:href="#DejaVuSans-63" transform="translate(39.013672 0)"/>
      <use xlink:href="#DejaVuSans-6f" transform="translate(93.994141 0)"/>
      <use xlink:href="#DejaVuSans-75" transform="translate(155.175781 0)"/>
      <use xlink:href="#DejaVuSans-6e" transform="translate(218.554688 0)"/>
      <use xlink:href="#DejaVuSans-74" transform="translate(281.933594 0)"/>
      <use xlink:href="#DejaVuSans-73" transform="translate(321.142578 0)"/>
      <use xlink:href="#DejaVuSans-5d" transform="translate(373.242188 0)"/>
     </g>
    </g>
   </g>
   <g id="line2d_16">
    <path d="M 62.183807 120.123243 
L 63.198352 120.123243 
L 63.198352 135.788108 
L 64.212898 135.788108 
L 64.212898 126.934054 
L 65.227443 126.934054 
L 65.227443 128.977297 
L 66.241989 128.977297 
L 66.241989 127.274595 
L 67.256534 127.274595 
L 67.256534 129.658378 
L 68.27108 129.658378 
L 68.27108 126.593514 
L 69.285625 126.593514 
L 69.285625 125.571892 
L 70.30017 125.571892 
L 70.30017 132.723243 
L 71.314716 132.723243 
L 71.314716 134.085405 
L 72.329261 134.085405 
L 72.329261 126.934054 
L 73.343807 126.934054 
L 73.343807 125.231351 
L 74.358352 125.231351 
L 74.358352 135.788108 
L 75.372898 135.788108 
L 75.372898 139.193514 
L 76.387443 139.193514 
L 76.387443 127.955676 
L 77.401989 127.955676 
L 77.401989 141.917838 
L 78.416534 141.917838 
L 78.416534 140.896216 
L 79.43108 140.896216 
L 79.43108 146.004324 
L 80.445625 146.004324 
L 80.445625 146.685405 
L 81.46017 146.685405 
L 81.46017 144.642162 
L 82.474716 144.642162 
L 82.474716 147.366486 
L 83.489261 147.366486 
L 83.489261 149.75027 
L 84.503807 149.75027 
L 84.503807 144.982703 
L 85.518352 144.982703 
L 85.518352 148.047568 
L 86.532898 148.047568 
L 86.532898 147.707027 
L 87.547443 147.707027 
L 87.547443 147.025946 
L 88.561989 147.025946 
L 88.561989 151.793514 
L 89.576534 151.793514 
L 89.576534 154.517838 
L 90.59108 154.517838 
L 90.59108 151.793514 
L 91.605625 151.793514 
L 91.605625 160.307027 
L 92.62017 160.307027 
L 92.62017 152.474595 
L 93.634716 152.474595 
L 93.634716 153.155676 
L 94.649261 153.155676 
L 94.649261 164.052973 
L 95.663807 164.052973 
L 95.663807 163.031351 
L 96.678352 163.031351 
L 96.678352 163.371892 
L 97.692898 163.371892 
L 97.692898 162.690811 
L 98.707443 162.690811 
L 98.707443 165.415135 
L 99.721989 165.415135 
L 99.721989 171.885405 
L 100.736534 171.885405 
L 100.736534 166.096216 
L 101.75108 166.096216 
L 101.75108 171.544865 
L 102.765625 171.544865 
L 102.765625 173.247568 
L 103.78017 173.247568 
L 103.78017 177.334054 
L 104.794716 177.334054 
L 104.794716 167.798919 
L 105.809261 167.798919 
L 105.809261 174.60973 
L 106.823807 174.60973 
L 106.823807 186.869189 
L 107.838352 186.869189 
L 107.838352 185.166486 
L 108.852898 185.166486 
L 108.852898 188.571892 
L 109.867443 188.571892 
L 109.867443 190.955676 
L 110.881989 190.955676 
L 110.881989 190.615135 
L 111.896534 190.615135 
L 111.896534 192.998919 
L 112.91108 192.998919 
L 112.91108 196.063784 
L 113.925625 196.063784 
L 113.925625 196.404324 
L 114.94017 196.404324 
L 114.94017 202.193514 
L 115.954716 202.193514 
L 115.954716 202.534054 
L 116.969261 202.534054 
L 116.969261 204.577297 
L 117.983807 204.577297 
L 117.983807 203.555676 
L 118.998352 203.555676 
L 118.998352 206.28 
L 120.012898 206.28 
L 120.012898 203.896216 
L 121.027443 203.896216 
L 121.027443 207.982703 
L 122.041989 207.982703 
L 122.041989 210.366486 
L 123.056534 210.366486 
L 123.056534 210.707027 
L 124.07108 210.707027 
L 124.07108 213.090811 
L 126.10017 213.090811 
L 126.10017 213.771892 
L 127.114716 213.771892 
L 127.114716 215.134054 
L 128.129261 215.134054 
L 128.129261 214.452973 
L 129.143807 214.452973 
L 129.143807 215.474595 
L 130.158352 215.474595 
L 130.158352 216.496216 
L 131.172898 216.496216 
L 131.172898 218.539459 
L 132.187443 218.539459 
L 132.187443 217.858378 
L 133.201989 217.858378 
L 133.201989 218.88 
L 149.434716 218.88 
L 149.434716 218.198919 
L 150.449261 218.198919 
L 150.449261 213.431351 
L 151.463807 213.431351 
L 151.463807 208.323243 
L 152.478352 208.323243 
L 152.478352 203.555676 
L 153.492898 203.555676 
L 153.492898 199.128649 
L 154.507443 199.128649 
L 154.507443 190.955676 
L 155.521989 190.955676 
L 155.521989 185.507027 
L 156.536534 185.507027 
L 156.536534 177.334054 
L 157.55108 177.334054 
L 157.55108 172.907027 
L 158.565625 172.907027 
L 158.565625 173.588108 
L 159.58017 173.588108 
L 159.58017 163.031351 
L 160.594716 163.031351 
L 160.594716 157.582703 
L 161.609261 157.582703 
L 161.609261 160.988108 
L 162.623807 160.988108 
L 162.623807 147.707027 
L 163.638352 147.707027 
L 163.638352 147.366486 
L 164.652898 147.366486 
L 164.652898 142.258378 
L 165.667443 142.258378 
L 165.667443 139.874595 
L 166.681989 139.874595 
L 166.681989 133.063784 
L 167.696534 133.063784 
L 167.696534 129.658378 
L 168.71108 129.658378 
L 168.71108 130.339459 
L 169.725625 130.339459 
L 169.725625 118.08 
L 170.74017 118.08 
L 170.74017 110.247568 
L 171.754716 110.247568 
L 171.754716 104.117838 
L 172.769261 104.117838 
L 172.769261 101.052973 
L 173.783807 101.052973 
L 173.783807 89.134054 
L 174.798352 89.134054 
L 174.798352 81.982703 
L 175.812898 81.982703 
L 175.812898 86.40973 
L 176.827443 86.40973 
L 176.827443 79.598919 
L 177.841989 79.598919 
L 177.841989 70.404324 
L 178.856534 70.404324 
L 178.856534 74.831351 
L 179.87108 74.831351 
L 179.87108 61.890811 
L 180.885625 61.890811 
L 180.885625 75.171892 
L 181.90017 75.171892 
L 181.90017 69.042162 
L 182.914716 69.042162 
L 182.914716 59.507027 
L 183.929261 59.507027 
L 183.929261 48.60973 
L 184.943807 48.60973 
L 184.943807 55.420541 
L 185.958352 55.420541 
L 185.958352 43.161081 
L 186.972898 43.161081 
L 186.972898 46.566486 
L 187.987443 46.566486 
L 187.987443 46.225946 
L 189.001989 46.225946 
L 189.001989 53.377297 
L 190.016534 53.377297 
L 190.016534 41.117838 
L 191.03108 41.117838 
L 191.03108 35.669189 
L 192.045625 35.669189 
L 192.045625 31.242162 
L 193.06017 31.242162 
L 193.06017 33.966486 
L 194.074716 33.966486 
L 194.074716 40.096216 
L 195.089261 40.096216 
L 195.089261 23.40973 
L 196.103807 23.40973 
L 196.103807 41.458378 
L 197.118352 41.458378 
L 197.118352 27.155676 
L 198.132898 27.155676 
L 198.132898 38.052973 
L 199.147443 38.052973 
L 199.147443 28.517838 
L 200.161989 28.517838 
L 200.161989 49.290811 
L 201.176534 49.290811 
L 201.176534 46.225946 
L 202.19108 46.225946 
L 202.19108 39.074595 
L 203.205625 39.074595 
L 203.205625 41.798919 
L 204.22017 41.798919 
L 204.22017 56.442162 
L 205.234716 56.442162 
L 205.234716 66.998919 
L 206.249261 66.998919 
L 206.249261 55.761081 
L 207.263807 55.761081 
L 207.263807 52.015135 
L 208.278352 52.015135 
L 208.278352 51.674595 
L 209.292898 51.674595 
L 209.292898 58.144865 
L 210.307443 58.144865 
L 210.307443 65.977297 
L 211.321989 65.977297 
L 211.321989 57.804324 
L 212.336534 57.804324 
L 212.336534 58.485405 
L 213.35108 58.485405 
L 213.35108 62.231351 
L 214.365625 62.231351 
L 214.365625 60.188108 
L 215.38017 60.188108 
L 215.38017 73.80973 
L 216.394716 73.80973 
L 216.394716 68.361081 
L 217.409261 68.361081 
L 217.409261 60.869189 
L 218.423807 60.869189 
L 218.423807 55.761081 
L 219.438352 55.761081 
L 219.438352 72.447568 
L 220.452898 72.447568 
L 220.452898 61.20973 
L 221.467443 61.20973 
L 221.467443 70.404324 
L 222.481989 70.404324 
L 222.481989 62.912432 
L 223.496534 62.912432 
L 223.496534 77.896216 
L 224.51108 77.896216 
L 224.51108 73.128649 
L 225.525625 73.128649 
L 225.525625 71.085405 
L 226.54017 71.085405 
L 226.54017 59.166486 
L 227.554716 59.166486 
L 227.554716 58.485405 
L 228.569261 58.485405 
L 228.569261 75.171892 
L 229.583807 75.171892 
L 229.583807 62.912432 
L 230.598352 62.912432 
L 230.598352 79.258378 
L 231.612898 79.258378 
L 231.612898 76.193514 
L 232.627443 76.193514 
L 232.627443 70.063784 
L 233.641989 70.063784 
L 233.641989 74.490811 
L 234.656534 74.490811 
L 234.656534 83.004324 
L 235.67108 83.004324 
L 235.67108 72.447568 
L 236.685625 72.447568 
L 236.685625 68.361081 
L 237.70017 68.361081 
L 237.70017 87.090811 
L 238.714716 87.090811 
L 238.714716 66.998919 
L 239.729261 66.998919 
L 239.729261 85.728649 
L 240.743807 85.728649 
L 240.743807 73.80973 
L 241.758352 73.80973 
L 241.758352 78.236757 
L 242.772898 78.236757 
L 242.772898 73.469189 
L 244.801989 73.469189 
L 244.801989 72.447568 
L 245.816534 72.447568 
L 245.816534 85.728649 
L 246.83108 85.728649 
L 246.83108 86.40973 
L 247.845625 86.40973 
L 247.845625 89.474595 
L 248.86017 89.474595 
L 248.86017 95.263784 
L 249.874716 95.263784 
L 249.874716 83.685405 
L 250.889261 83.685405 
L 250.889261 88.112432 
L 251.903807 88.112432 
L 251.903807 91.517838 
L 252.918352 91.517838 
L 252.918352 92.88 
L 253.932898 92.88 
L 253.932898 75.512432 
L 254.947443 75.512432 
L 254.947443 98.669189 
L 255.961989 98.669189 
L 255.961989 111.269189 
L 256.976534 111.269189 
L 256.976534 99.690811 
L 257.99108 99.690811 
L 257.99108 110.588108 
L 259.005625 110.588108 
L 259.005625 109.907027 
L 260.02017 109.907027 
L 260.02017 119.101622 
L 261.034716 119.101622 
L 261.034716 129.998919 
L 262.049261 129.998919 
L 262.049261 134.766486 
L 263.063807 134.766486 
L 263.063807 134.425946 
L 264.078352 134.425946 
L 264.078352 146.685405 
L 265.092898 146.685405 
L 265.092898 143.28 
L 266.107443 143.28 
L 266.107443 159.625946 
L 267.121989 159.625946 
L 267.121989 156.901622 
L 268.136534 156.901622 
L 268.136534 153.836757 
L 269.15108 153.836757 
L 269.15108 155.88 
L 270.165625 155.88 
L 270.165625 168.820541 
L 271.18017 168.820541 
L 271.18017 173.928649 
L 272.194716 173.928649 
L 272.194716 181.761081 
L 273.209261 181.761081 
L 273.209261 183.463784 
L 274.223807 183.463784 
L 274.223807 186.869189 
L 275.238352 186.869189 
L 275.238352 193.339459 
L 276.252898 193.339459 
L 276.252898 201.512432 
L 277.267443 201.512432 
L 277.267443 196.744865 
L 278.281989 196.744865 
L 278.281989 198.447568 
L 279.296534 198.447568 
L 279.296534 203.555676 
L 280.31108 203.555676 
L 280.31108 205.598919 
L 281.325625 205.598919 
L 281.325625 209.685405 
L 282.34017 209.685405 
L 282.34017 213.090811 
L 283.354716 213.090811 
L 283.354716 216.155676 
L 285.383807 216.155676 
L 285.383807 217.177297 
L 287.412898 217.177297 
L 287.412898 218.88 
L 297.558352 218.88 
L 297.558352 218.539459 
L 298.572898 218.539459 
L 298.572898 212.40973 
L 299.587443 212.40973 
L 299.587443 211.388108 
L 300.601989 211.388108 
L 300.601989 208.663784 
L 301.616534 208.663784 
L 301.616534 200.15027 
L 302.63108 200.15027 
L 302.63108 191.296216 
L 303.645625 191.296216 
L 303.645625 192.658378 
L 304.66017 192.658378 
L 304.66017 189.934054 
L 305.674716 189.934054 
L 305.674716 184.825946 
L 306.689261 184.825946 
L 306.689261 174.60973 
L 307.703807 174.60973 
L 307.703807 171.544865 
L 308.718352 171.544865 
L 308.718352 171.885405 
L 309.732898 171.885405 
L 309.732898 173.247568 
L 311.761989 173.247568 
L 311.761989 160.647568 
L 312.776534 160.647568 
L 312.776534 160.307027 
L 313.79108 160.307027 
L 313.79108 158.263784 
L 314.805625 158.263784 
L 314.805625 148.728649 
L 315.82017 148.728649 
L 315.82017 152.134054 
L 316.834716 152.134054 
L 316.834716 138.852973 
L 317.849261 138.852973 
L 317.849261 149.40973 
L 318.863807 149.40973 
L 318.863807 140.896216 
L 319.878352 140.896216 
L 319.878352 129.998919 
L 320.892898 129.998919 
L 320.892898 135.107027 
L 321.907443 135.107027 
L 321.907443 131.020541 
L 322.921989 131.020541 
L 322.921989 139.534054 
L 323.936534 139.534054 
L 323.936534 131.361081 
L 324.95108 131.361081 
L 324.95108 119.782703 
L 325.965625 119.782703 
L 325.965625 123.188108 
L 326.98017 123.188108 
L 326.98017 115.015135 
L 327.994716 115.015135 
L 327.994716 124.20973 
L 329.009261 124.20973 
L 329.009261 113.312432 
L 330.023807 113.312432 
L 330.023807 117.739459 
L 331.038352 117.739459 
L 331.038352 115.355676 
L 332.052898 115.355676 
L 332.052898 103.096216 
L 333.067443 103.096216 
L 333.067443 111.95027 
L 334.081989 111.95027 
L 334.081989 101.734054 
L 335.096534 101.734054 
L 335.096534 97.647568 
L 336.11108 97.647568 
L 336.11108 103.436757 
L 337.125625 103.436757 
L 337.125625 107.523243 
L 338.14017 107.523243 
L 338.14017 97.307027 
L 339.154716 97.307027 
L 339.154716 86.40973 
L 340.169261 86.40973 
L 340.169261 105.139459 
L 341.183807 105.139459 
L 341.183807 100.031351 
L 342.198352 100.031351 
L 342.198352 97.647568 
L 343.212898 97.647568 
L 343.212898 93.220541 
L 344.227443 93.220541 
L 344.227443 94.923243 
L 345.241989 94.923243 
L 345.241989 91.177297 
L 346.256534 91.177297 
L 346.256534 93.220541 
L 347.27108 93.220541 
L 347.27108 88.452973 
L 348.285625 88.452973 
L 348.285625 96.966486 
L 349.30017 96.966486 
L 349.30017 94.582703 
L 350.314716 94.582703 
L 350.314716 103.436757 
L 351.329261 103.436757 
L 351.329261 117.058378 
L 352.343807 117.058378 
L 352.343807 101.052973 
L 353.358352 101.052973 
L 353.358352 111.269189 
L 354.372898 111.269189 
L 354.372898 115.696216 
L 355.387443 115.696216 
L 355.387443 117.739459 
L 356.401989 117.739459 
L 356.401989 104.798919 
L 357.416534 104.798919 
L 357.416534 116.377297 
L 358.43108 116.377297 
L 358.43108 109.225946 
L 359.445625 109.225946 
L 359.445625 113.312432 
L 360.46017 113.312432 
L 360.46017 116.377297 
L 361.474716 116.377297 
L 361.474716 128.636757 
L 362.489261 128.636757 
L 362.489261 108.885405 
L 363.503807 108.885405 
L 363.503807 135.107027 
L 364.518352 135.107027 
L 364.518352 119.442162 
L 365.532898 119.442162 
L 365.532898 111.95027 
L 366.547443 111.95027 
L 366.547443 111.95027 
" clip-path="url(#pa64f982a57)" style="fill: none; stroke: #1f77b4; stroke-width: 1.5; stroke-linecap: square"/>
   </g>
   <g id="line2d_17">
    <path d="M 62.183807 123.188108 
L 63.198352 123.188108 
L 63.198352 123.869189 
L 64.212898 123.869189 
L 64.212898 137.15027 
L 65.227443 137.15027 
L 65.227443 124.20973 
L 66.241989 124.20973 
L 66.241989 123.869189 
L 67.256534 123.869189 
L 67.256534 127.955676 
L 68.27108 127.955676 
L 68.27108 137.490811 
L 69.285625 137.490811 
L 69.285625 131.361081 
L 70.30017 131.361081 
L 70.30017 134.766486 
L 71.314716 134.766486 
L 71.314716 135.788108 
L 72.329261 135.788108 
L 72.329261 147.025946 
L 73.343807 147.025946 
L 73.343807 142.598919 
L 74.358352 142.598919 
L 74.358352 145.323243 
L 76.387443 145.323243 
L 76.387443 148.728649 
L 77.401989 148.728649 
L 77.401989 142.598919 
L 78.416534 142.598919 
L 78.416534 147.025946 
L 79.43108 147.025946 
L 79.43108 143.961081 
L 80.445625 143.961081 
L 80.445625 146.004324 
L 81.46017 146.004324 
L 81.46017 152.134054 
L 82.474716 152.134054 
L 82.474716 150.431351 
L 83.489261 150.431351 
L 83.489261 150.771892 
L 84.503807 150.771892 
L 84.503807 159.285405 
L 85.518352 159.285405 
L 85.518352 146.344865 
L 86.532898 146.344865 
L 86.532898 156.561081 
L 87.547443 156.561081 
L 87.547443 163.031351 
L 88.561989 163.031351 
L 88.561989 164.734054 
L 89.576534 164.734054 
L 89.576534 157.923243 
L 90.59108 157.923243 
L 90.59108 163.712432 
L 91.605625 163.712432 
L 91.605625 162.00973 
L 92.62017 162.00973 
L 92.62017 168.139459 
L 93.634716 168.139459 
L 93.634716 171.544865 
L 94.649261 171.544865 
L 94.649261 169.501622 
L 95.663807 169.501622 
L 95.663807 173.928649 
L 96.678352 173.928649 
L 96.678352 172.566486 
L 97.692898 172.566486 
L 97.692898 166.096216 
L 98.707443 166.096216 
L 98.707443 180.398919 
L 99.721989 180.398919 
L 99.721989 186.869189 
L 100.736534 186.869189 
L 100.736534 188.231351 
L 101.75108 188.231351 
L 101.75108 185.847568 
L 102.765625 185.847568 
L 102.765625 190.955676 
L 103.78017 190.955676 
L 103.78017 193.339459 
L 104.794716 193.339459 
L 104.794716 191.977297 
L 105.809261 191.977297 
L 105.809261 196.404324 
L 106.823807 196.404324 
L 106.823807 200.831351 
L 108.852898 200.831351 
L 108.852898 201.512432 
L 109.867443 201.512432 
L 109.867443 203.896216 
L 110.881989 203.896216 
L 110.881989 204.577297 
L 111.896534 204.577297 
L 111.896534 204.236757 
L 112.91108 204.236757 
L 112.91108 206.961081 
L 113.925625 206.961081 
L 113.925625 209.685405 
L 114.94017 209.685405 
L 114.94017 210.707027 
L 115.954716 210.707027 
L 115.954716 213.090811 
L 116.969261 213.090811 
L 116.969261 212.069189 
L 117.983807 212.069189 
L 117.983807 213.090811 
L 118.998352 213.090811 
L 118.998352 215.134054 
L 120.012898 215.134054 
L 120.012898 214.452973 
L 121.027443 214.452973 
L 121.027443 215.474595 
L 122.041989 215.474595 
L 122.041989 216.155676 
L 123.056534 216.155676 
L 123.056534 218.539459 
L 124.07108 218.539459 
L 124.07108 217.858378 
L 125.085625 217.858378 
L 125.085625 218.88 
L 148.42017 218.88 
L 148.42017 214.793514 
L 149.434716 214.793514 
L 149.434716 211.047568 
L 150.449261 211.047568 
L 150.449261 203.555676 
L 151.463807 203.555676 
L 151.463807 200.490811 
L 152.478352 200.490811 
L 152.478352 191.977297 
L 153.492898 191.977297 
L 153.492898 186.528649 
L 154.507443 186.528649 
L 154.507443 179.036757 
L 155.521989 179.036757 
L 155.521989 172.907027 
L 156.536534 172.907027 
L 156.536534 171.885405 
L 157.55108 171.885405 
L 157.55108 163.031351 
L 158.565625 163.031351 
L 158.565625 158.263784 
L 159.58017 158.263784 
L 159.58017 158.604324 
L 160.594716 158.604324 
L 160.594716 146.344865 
L 161.609261 146.344865 
L 161.609261 144.301622 
L 162.623807 144.301622 
L 162.623807 140.555676 
L 163.638352 140.555676 
L 163.638352 139.534054 
L 164.652898 139.534054 
L 164.652898 130.339459 
L 165.667443 130.339459 
L 165.667443 128.977297 
L 166.681989 128.977297 
L 166.681989 124.890811 
L 167.696534 124.890811 
L 167.696534 114.674595 
L 168.71108 114.674595 
L 168.71108 110.588108 
L 169.725625 110.588108 
L 169.725625 97.988108 
L 170.74017 97.988108 
L 170.74017 93.561081 
L 171.754716 93.561081 
L 171.754716 88.112432 
L 172.769261 88.112432 
L 172.769261 74.831351 
L 173.783807 74.831351 
L 173.783807 84.707027 
L 174.798352 84.707027 
L 174.798352 74.490811 
L 175.812898 74.490811 
L 175.812898 67.339459 
L 176.827443 67.339459 
L 176.827443 63.252973 
L 177.841989 63.252973 
L 177.841989 64.955676 
L 178.856534 64.955676 
L 178.856534 70.063784 
L 179.87108 70.063784 
L 179.87108 61.55027 
L 180.885625 61.55027 
L 180.885625 57.463784 
L 181.90017 57.463784 
L 181.90017 43.161081 
L 182.914716 43.161081 
L 182.914716 40.436757 
L 183.929261 40.436757 
L 183.929261 41.798919 
L 184.943807 41.798919 
L 184.943807 43.501622 
L 185.958352 43.501622 
L 185.958352 45.544865 
L 186.972898 45.544865 
L 186.972898 42.48 
L 187.987443 42.48 
L 187.987443 36.35027 
L 189.001989 36.35027 
L 189.001989 24.090811 
L 190.016534 24.090811 
L 190.016534 26.474595 
L 191.03108 26.474595 
L 191.03108 43.161081 
L 192.045625 43.161081 
L 192.045625 17.961081 
L 193.06017 17.961081 
L 193.06017 30.901622 
L 194.074716 30.901622 
L 194.074716 28.517838 
L 195.089261 28.517838 
L 195.089261 33.966486 
L 196.103807 33.966486 
L 196.103807 17.28 
L 197.118352 17.28 
L 197.118352 45.885405 
L 198.132898 45.885405 
L 198.132898 46.566486 
L 199.147443 46.566486 
L 199.147443 35.669189 
L 200.161989 35.669189 
L 200.161989 27.496216 
L 201.176534 27.496216 
L 201.176534 59.847568 
L 202.19108 59.847568 
L 202.19108 56.782703 
L 203.205625 56.782703 
L 203.205625 54.739459 
L 204.22017 54.739459 
L 204.22017 48.269189 
L 206.249261 48.269189 
L 206.249261 56.101622 
L 207.263807 56.101622 
L 207.263807 62.571892 
L 208.278352 62.571892 
L 208.278352 50.312432 
L 209.292898 50.312432 
L 209.292898 57.804324 
L 210.307443 57.804324 
L 210.307443 56.101622 
L 211.321989 56.101622 
L 211.321989 55.420541 
L 212.336534 55.420541 
L 212.336534 70.404324 
L 213.35108 70.404324 
L 213.35108 68.361081 
L 214.365625 68.361081 
L 214.365625 53.377297 
L 215.38017 53.377297 
L 215.38017 58.825946 
L 216.394716 58.825946 
L 216.394716 57.463784 
L 217.409261 57.463784 
L 217.409261 69.382703 
L 218.423807 69.382703 
L 218.423807 63.252973 
L 219.438352 63.252973 
L 219.438352 60.528649 
L 220.452898 60.528649 
L 220.452898 78.236757 
L 221.467443 78.236757 
L 221.467443 62.571892 
L 222.481989 62.571892 
L 222.481989 65.977297 
L 223.496534 65.977297 
L 223.496534 51.674595 
L 224.51108 51.674595 
L 224.51108 62.231351 
L 225.525625 62.231351 
L 225.525625 66.658378 
L 226.54017 66.658378 
L 226.54017 72.447568 
L 227.554716 72.447568 
L 227.554716 66.998919 
L 228.569261 66.998919 
L 228.569261 81.982703 
L 229.583807 81.982703 
L 229.583807 64.615135 
L 230.598352 64.615135 
L 230.598352 76.874595 
L 231.612898 76.874595 
L 231.612898 73.128649 
L 232.627443 73.128649 
L 232.627443 62.571892 
L 233.641989 62.571892 
L 233.641989 73.469189 
L 234.656534 73.469189 
L 234.656534 76.193514 
L 236.685625 76.193514 
L 236.685625 70.404324 
L 237.70017 70.404324 
L 237.70017 69.723243 
L 238.714716 69.723243 
L 238.714716 80.620541 
L 239.729261 80.620541 
L 239.729261 64.274595 
L 240.743807 64.274595 
L 240.743807 72.788108 
L 241.758352 72.788108 
L 241.758352 76.193514 
L 242.772898 76.193514 
L 242.772898 84.366486 
L 243.787443 84.366486 
L 243.787443 87.771892 
L 244.801989 87.771892 
L 244.801989 89.474595 
L 245.816534 89.474595 
L 245.816534 83.344865 
L 246.83108 83.344865 
L 246.83108 84.025946 
L 247.845625 84.025946 
L 247.845625 88.793514 
L 249.874716 88.793514 
L 249.874716 75.171892 
L 250.889261 75.171892 
L 250.889261 96.285405 
L 251.903807 96.285405 
L 251.903807 104.117838 
L 252.918352 104.117838 
L 252.918352 101.052973 
L 253.932898 101.052973 
L 253.932898 107.863784 
L 254.947443 107.863784 
L 254.947443 110.588108 
L 255.961989 110.588108 
L 255.961989 116.377297 
L 256.976534 116.377297 
L 256.976534 131.361081 
L 257.99108 131.361081 
L 257.99108 134.425946 
L 259.005625 134.425946 
L 259.005625 133.063784 
L 260.02017 133.063784 
L 260.02017 141.236757 
L 261.034716 141.236757 
L 261.034716 149.069189 
L 262.049261 149.069189 
L 262.049261 155.539459 
L 263.063807 155.539459 
L 263.063807 152.474595 
L 264.078352 152.474595 
L 264.078352 156.901622 
L 265.092898 156.901622 
L 265.092898 157.923243 
L 266.107443 157.923243 
L 266.107443 165.755676 
L 267.121989 165.755676 
L 267.121989 179.717838 
L 268.136534 179.717838 
L 268.136534 182.442162 
L 269.15108 182.442162 
L 269.15108 186.188108 
L 270.165625 186.188108 
L 270.165625 187.20973 
L 271.18017 187.20973 
L 271.18017 199.128649 
L 272.194716 199.128649 
L 272.194716 200.15027 
L 273.209261 200.15027 
L 273.209261 196.063784 
L 274.223807 196.063784 
L 274.223807 197.085405 
L 275.238352 197.085405 
L 275.238352 206.961081 
L 276.252898 206.961081 
L 276.252898 211.388108 
L 277.267443 211.388108 
L 277.267443 209.685405 
L 278.281989 209.685405 
L 278.281989 216.155676 
L 279.296534 216.155676 
L 279.296534 214.793514 
L 280.31108 214.793514 
L 280.31108 217.177297 
L 281.325625 217.177297 
L 281.325625 216.836757 
L 282.34017 216.836757 
L 282.34017 218.88 
L 293.50017 218.88 
L 293.50017 215.134054 
L 294.514716 215.134054 
L 294.514716 210.366486 
L 295.529261 210.366486 
L 295.529261 208.663784 
L 296.543807 208.663784 
L 296.543807 200.15027 
L 297.558352 200.15027 
L 297.558352 192.317838 
L 298.572898 192.317838 
L 298.572898 192.998919 
L 299.587443 192.998919 
L 299.587443 188.571892 
L 300.601989 188.571892 
L 300.601989 183.804324 
L 301.616534 183.804324 
L 301.616534 175.631351 
L 302.63108 175.631351 
L 302.63108 169.161081 
L 303.645625 169.161081 
L 303.645625 169.842162 
L 304.66017 169.842162 
L 304.66017 174.269189 
L 305.674716 174.269189 
L 305.674716 170.863784 
L 306.689261 170.863784 
L 306.689261 160.647568 
L 307.703807 160.647568 
L 307.703807 155.539459 
L 308.718352 155.539459 
L 308.718352 156.220541 
L 309.732898 156.220541 
L 309.732898 148.728649 
L 310.747443 148.728649 
L 310.747443 149.40973 
L 311.761989 149.40973 
L 311.761989 136.128649 
L 312.776534 136.128649 
L 312.776534 145.323243 
L 313.79108 145.323243 
L 313.79108 138.512432 
L 314.805625 138.512432 
L 314.805625 128.977297 
L 315.82017 128.977297 
L 315.82017 127.955676 
L 316.834716 127.955676 
L 316.834716 133.063784 
L 318.863807 133.063784 
L 318.863807 125.912432 
L 319.878352 125.912432 
L 319.878352 122.507027 
L 320.892898 122.507027 
L 320.892898 110.928649 
L 321.907443 110.928649 
L 321.907443 119.782703 
L 322.921989 119.782703 
L 322.921989 118.420541 
L 323.936534 118.420541 
L 323.936534 112.290811 
L 324.95108 112.290811 
L 324.95108 112.971892 
L 325.965625 112.971892 
L 325.965625 108.885405 
L 326.98017 108.885405 
L 326.98017 105.820541 
L 327.994716 105.820541 
L 327.994716 107.523243 
L 329.009261 107.523243 
L 329.009261 91.858378 
L 330.023807 91.858378 
L 330.023807 91.177297 
L 331.038352 91.177297 
L 331.038352 112.971892 
L 332.052898 112.971892 
L 332.052898 87.431351 
L 333.067443 87.431351 
L 333.067443 90.836757 
L 334.081989 90.836757 
L 334.081989 95.944865 
L 335.096534 95.944865 
L 335.096534 93.901622 
L 336.11108 93.901622 
L 336.11108 103.436757 
L 337.125625 103.436757 
L 337.125625 91.858378 
L 338.14017 91.858378 
L 338.14017 85.728649 
L 339.154716 85.728649 
L 339.154716 90.155676 
L 340.169261 90.155676 
L 340.169261 92.539459 
L 341.183807 92.539459 
L 341.183807 84.707027 
L 342.198352 84.707027 
L 342.198352 95.263784 
L 343.212898 95.263784 
L 343.212898 90.496216 
L 344.227443 90.496216 
L 344.227443 99.35027 
L 345.241989 99.35027 
L 345.241989 115.355676 
L 346.256534 115.355676 
L 346.256534 97.988108 
L 347.27108 97.988108 
L 347.27108 108.885405 
L 348.285625 108.885405 
L 348.285625 116.377297 
L 349.30017 116.377297 
L 349.30017 110.928649 
L 350.314716 110.928649 
L 350.314716 101.734054 
L 351.329261 101.734054 
L 351.329261 116.036757 
L 352.343807 116.036757 
L 352.343807 103.777297 
L 353.358352 103.777297 
L 353.358352 117.058378 
L 354.372898 117.058378 
L 354.372898 113.312432 
L 355.387443 113.312432 
L 355.387443 120.123243 
L 356.401989 120.123243 
L 356.401989 118.761081 
L 357.416534 118.761081 
L 357.416534 128.636757 
L 358.43108 128.636757 
L 358.43108 107.182703 
L 359.445625 107.182703 
L 359.445625 111.60973 
L 360.46017 111.60973 
L 360.46017 130.68 
L 361.474716 130.68 
L 361.474716 125.912432 
L 362.489261 125.912432 
L 362.489261 126.593514 
L 363.503807 126.593514 
L 363.503807 122.847568 
L 364.518352 122.847568 
L 364.518352 131.020541 
L 365.532898 131.020541 
L 365.532898 126.252973 
L 366.547443 126.252973 
L 366.547443 126.252973 
" clip-path="url(#pa64f982a57)" style="fill: none; stroke: #ff7f0e; stroke-width: 1.5; stroke-linecap: square"/>
   </g>
   <g id="patch_3">
    <path d="M 46.965625 228.96 
L 46.965625 7.2 
" style="fill: none; stroke: #000000; stroke-width: 0.8; stroke-linejoin: miter; stroke-linecap: square"/>
   </g>
   <g id="patch_4">
    <path d="M 381.765625 228.96 
L 381.765625 7.2 
" style="fill: none; stroke: #000000; stroke-width: 0.8; stroke-linejoin: miter; stroke-linecap: square"/>
   </g>
   <g id="patch_5">
    <path d="M 46.965625 228.96 
L 381.765625 228.96 
" style="fill: none; stroke: #000000; stroke-width: 0.8; stroke-linejoin: miter; stroke-linecap: square"/>
   </g>
   <g id="patch_6">
    <path d="M 46.965625 7.2 
L 381.765625 7.2 
" style="fill: none; stroke: #000000; stroke-width: 0.8; stroke-linejoin: miter; stroke-linecap: square"/>
   </g>
   <g id="legend_1">
    <g id="patch_7">
     <path d="M 246.957813 45.1125 
L 374.765625 45.1125 
Q 376.765625 45.1125 376.765625 43.1125 
L 376.765625 14.2 
Q 376.765625 12.2 374.765625 12.2 
L 246.957813 12.2 
Q 244.957813 12.2 244.957813 14.2 
L 244.957813 43.1125 
Q 244.957813 45.1125 246.957813 45.1125 
z
" style="fill: #ffffff; opacity: 0.8; stroke: #cccccc; stroke-linejoin: miter"/>
    </g>
    <g id="line2d_18">
     <path d="M 248.957813 20.298437 
L 248.957813 20.298437 
L 258.957813 20.298437 
L 258.957813 20.298437 
L 268.957813 20.298437 
" style="fill: none; stroke: #1f77b4; stroke-width: 1.5; stroke-linecap: square"/>
    </g>
    <g id="text_18">
     <!-- detector_number:0 -->
     <g transform="translate(276.957813 23.798437) scale(0.1 -0.1)">
      <defs>
       <path id="DejaVuSans-64" d="M 2906 2969 
L 2906 4863 
L 3481 4863 
L 3481 0 
L 2906 0 
L 2906 525 
Q 2725 213 2448 61 
Q 2172 -91 1784 -91 
Q 1150 -91 751 415 
Q 353 922 353 1747 
Q 353 2572 751 3078 
Q 1150 3584 1784 3584 
Q 2172 3584 2448 3432 
Q 2725 3281 2906 2969 
z
M 947 1747 
Q 947 1113 1208 752 
Q 1469 391 1925 391 
Q 2381 391 2643 752 
Q 2906 1113 2906 1747 
Q 2906 2381 2643 2742 
Q 2381 3103 1925 3103 
Q 1469 3103 1208 2742 
Q 947 2381 947 1747 
z
" transform="scale(0.015625)"/>
       <path id="DejaVuSans-72" d="M 2631 2963 
Q 2534 3019 2420 3045 
Q 2306 3072 2169 3072 
Q 1681 3072 1420 2755 
Q 1159 2438 1159 1844 
L 1159 0 
L 581 0 
L 581 3500 
L 1159 3500 
L 1159 2956 
Q 1341 3275 1631 3429 
Q 1922 3584 2338 3584 
Q 2397 3584 2469 3576 
Q 2541 3569 2628 3553 
L 2631 2963 
z
" transform="scale(0.015625)"/>
       <path id="DejaVuSans-62" d="M 3116 1747 
Q 3116 2381 2855 2742 
Q 2594 3103 2138 3103 
Q 1681 3103 1420 2742 
Q 1159 2381 1159 1747 
Q 1159 1113 1420 752 
Q 1681 391 2138 391 
Q 2594 391 2855 752 
Q 3116 1113 3116 1747 
z
M 1159 2969 
Q 1341 3281 1617 3432 
Q 1894 3584 2278 3584 
Q 2916 3584 3314 3078 
Q 3713 2572 3713 1747 
Q 3713 922 3314 415 
Q 2916 -91 2278 -91 
Q 1894 -91 1617 61 
Q 1341 213 1159 525 
L 1159 0 
L 581 0 
L 581 4863 
L 1159 4863 
L 1159 2969 
z
" transform="scale(0.015625)"/>
       <path id="DejaVuSans-3a" d="M 750 794 
L 1409 794 
L 1409 0 
L 750 0 
L 750 794 
z
M 750 3309 
L 1409 3309 
L 1409 2516 
L 750 2516 
L 750 3309 
z
" transform="scale(0.015625)"/>
      </defs>
      <use xlink:href="#DejaVuSans-64"/>
      <use xlink:href="#DejaVuSans-65" transform="translate(63.476562 0)"/>
      <use xlink:href="#DejaVuSans-74" transform="translate(125 0)"/>
      <use xlink:href="#DejaVuSans-65" transform="translate(164.208984 0)"/>
      <use xlink:href="#DejaVuSans-63" transform="translate(225.732422 0)"/>
      <use xlink:href="#DejaVuSans-74" transform="translate(280.712891 0)"/>
      <use xlink:href="#DejaVuSans-6f" transform="translate(319.921875 0)"/>
      <use xlink:href="#DejaVuSans-72" transform="translate(381.103516 0)"/>
      <use xlink:href="#DejaVuSans-5f" transform="translate(422.216797 0)"/>
      <use xlink:href="#DejaVuSans-6e" transform="translate(472.216797 0)"/>
      <use xlink:href="#DejaVuSans-75" transform="translate(535.595703 0)"/>
      <use xlink:href="#DejaVuSans-6d" transform="translate(598.974609 0)"/>
      <use xlink:href="#DejaVuSans-62" transform="translate(696.386719 0)"/>
      <use xlink:href="#DejaVuSans-65" transform="translate(759.863281 0)"/>
      <use xlink:href="#DejaVuSans-72" transform="translate(821.386719 0)"/>
      <use xlink:href="#DejaVuSans-3a" transform="translate(860.75 0)"/>
      <use xlink:href="#DejaVuSans-30" transform="translate(894.441406 0)"/>
     </g>
    </g>
    <g id="line2d_19">
     <path d="M 248.957813 35.254687 
L 248.957813 35.254687 
L 258.957813 35.254687 
L 258.957813 35.254687 
L 268.957813 35.254687 
" style="fill: none; stroke: #ff7f0e; stroke-width: 1.5; stroke-linecap: square"/>
    </g>
    <g id="text_19">
     <!-- detector_number:1 -->
     <g transform="translate(276.957813 38.754687) scale(0.1 -0.1)">
      <use xlink:href="#DejaVuSans-64"/>
      <use xlink:href="#DejaVuSans-65" transform="translate(63.476562 0)"/>
      <use xlink:href="#DejaVuSans-74" transform="translate(125 0)"/>
      <use xlink:href="#DejaVuSans-65" transform="translate(164.208984 0)"/>
      <use xlink:href="#DejaVuSans-63" transform="translate(225.732422 0)"/>
      <use xlink:href="#DejaVuSans-74" transform="translate(280.712891 0)"/>
      <use xlink:href="#DejaVuSans-6f" transform="translate(319.921875 0)"/>
      <use xlink:href="#DejaVuSans-72" transform="translate(381.103516 0)"/>
      <use xlink:href="#DejaVuSans-5f" transform="translate(422.216797 0)"/>
      <use xlink:href="#DejaVuSans-6e" transform="translate(472.216797 0)"/>
      <use xlink:href="#DejaVuSans-75" transform="translate(535.595703 0)"/>
      <use xlink:href="#DejaVuSans-6d" transform="translate(598.974609 0)"/>
      <use xlink:href="#DejaVuSans-62" transform="translate(696.386719 0)"/>
      <use xlink:href="#DejaVuSans-65" transform="translate(759.863281 0)"/>
      <use xlink:href="#DejaVuSans-72" transform="translate(821.386719 0)"/>
      <use xlink:href="#DejaVuSans-3a" transform="translate(860.75 0)"/>
      <use xlink:href="#DejaVuSans-31" transform="translate(894.441406 0)"/>
     </g>
    </g>
   </g>
  </g>
 </g>
 <defs>
  <clipPath id="pa64f982a57">
   <rect x="46.965625" y="7.2" width="334.8" height="221.76"/>
  </clipPath>
 </defs>
</svg>
