<?xml version="1.0" encoding="utf-8" standalone="no"?>
<!DOCTYPE svg PUBLIC "-//W3C//DTD SVG 1.1//EN"
  "http://www.w3.org/Graphics/SVG/1.1/DTD/svg11.dtd">
<svg xmlns:xlink="http://www.w3.org/1999/xlink" width="388.965625pt" height="266.794375pt" viewBox="0 0 388.965625 266.794375" xmlns="http://www.w3.org/2000/svg" version="1.1">
 <metadata>
  <rdf:RDF xmlns:dc="http://purl.org/dc/elements/1.1/" xmlns:cc="http://creativecommons.org/ns#" xmlns:rdf="http://www.w3.org/1999/02/22-rdf-syntax-ns#">
   <cc:Work>
    <dc:type rdf:resource="http://purl.org/dc/dcmitype/StillImage"/>
    <dc:date>2025-03-02T06:36:50.947999</dc:date>
    <dc:format>image/svg+xml</dc:format>
    <dc:creator>
     <cc:Agent>
      <dc:title>Matplotlib v3.10.0, https://matplotlib.org/</dc:title>
     </cc:Agent>
    </dc:creator>
   </cc:Work>
  </rdf:RDF>
 </metadata>
 <defs>
  <style type="text/css">*{stroke-linejoin: round; stroke-linecap: butt}</style>
 </defs>
 <g id="figure_1">
  <g id="patch_1">
   <path d="M 0 266.794375 
L 388.965625 266.794375 
L 388.965625 0 
L 0 0 
z
" style="fill: #ffffff"/>
  </g>
  <g id="axes_1">
   <g id="patch_2">
    <path d="M 46.965625 228.96 
L 381.765625 228.96 
L 381.765625 7.2 
L 46.965625 7.2 
z
" style="fill: #ffffff"/>
   </g>
   <g id="matplotlib.axis_1">
    <g id="xtick_1">
     <g id="line2d_1">
      <defs>
       <path id="me323bb9684" d="M 0 0 
L 0 3.5 
" style="stroke: #000000; stroke-width: 0.8"/>
      </defs>
      <g>
       <use xlink:href="#me323bb9684" x="62.182209" y="228.96" style="stroke: #000000; stroke-width: 0.8"/>
      </g>
     </g>
     <g id="text_1">
      <!-- 0 -->
      <g transform="translate(59.000959 243.558437) scale(0.1 -0.1)">
       <defs>
        <path id="DejaVuSans-30" d="M 2034 4250 
Q 1547 4250 1301 3770 
Q 1056 3291 1056 2328 
Q 1056 1369 1301 889 
Q 1547 409 2034 409 
Q 2525 409 2770 889 
Q 3016 1369 3016 2328 
Q 3016 3291 2770 3770 
Q 2525 4250 2034 4250 
z
M 2034 4750 
Q 2819 4750 3233 4129 
Q 3647 3509 3647 2328 
Q 3647 1150 3233 529 
Q 2819 -91 2034 -91 
Q 1250 -91 836 529 
Q 422 1150 422 2328 
Q 422 3509 836 4129 
Q 1250 4750 2034 4750 
z
" transform="scale(0.015625)"/>
       </defs>
       <use xlink:href="#DejaVuSans-30"/>
      </g>
     </g>
    </g>
    <g id="xtick_2">
     <g id="line2d_2">
      <g>
       <use xlink:href="#me323bb9684" x="104.793528" y="228.96" style="stroke: #000000; stroke-width: 0.8"/>
      </g>
     </g>
     <g id="text_2">
      <!-- 10000 -->
      <g transform="translate(88.887278 243.558437) scale(0.1 -0.1)">
       <defs>
        <path id="DejaVuSans-31" d="M 794 531 
L 1825 531 
L 1825 4091 
L 703 3866 
L 703 4441 
L 1819 4666 
L 2450 4666 
L 2450 531 
L 3481 531 
L 3481 0 
L 794 0 
L 794 531 
z
" transform="scale(0.015625)"/>
       </defs>
       <use xlink:href="#DejaVuSans-31"/>
       <use xlink:href="#DejaVuSans-30" transform="translate(63.623047 0)"/>
       <use xlink:href="#DejaVuSans-30" transform="translate(127.246094 0)"/>
       <use xlink:href="#DejaVuSans-30" transform="translate(190.869141 0)"/>
       <use xlink:href="#DejaVuSans-30" transform="translate(254.492188 0)"/>
      </g>
     </g>
    </g>
    <g id="xtick_3">
     <g id="line2d_3">
      <g>
       <use xlink:href="#me323bb9684" x="147.404846" y="228.96" style="stroke: #000000; stroke-width: 0.8"/>
      </g>
     </g>
     <g id="text_3">
      <!-- 20000 -->
      <g transform="translate(131.498596 243.558437) scale(0.1 -0.1)">
       <defs>
        <path id="DejaVuSans-32" d="M 1228 531 
L 3431 531 
L 3431 0 
L 469 0 
L 469 531 
Q 828 903 1448 1529 
Q 2069 2156 2228 2338 
Q 2531 2678 2651 2914 
Q 2772 3150 2772 3378 
Q 2772 3750 2511 3984 
Q 2250 4219 1831 4219 
Q 1534 4219 1204 4116 
Q 875 4013 500 3803 
L 500 4441 
Q 881 4594 1212 4672 
Q 1544 4750 1819 4750 
Q 2544 4750 2975 4387 
Q 3406 4025 3406 3419 
Q 3406 3131 3298 2873 
Q 3191 2616 2906 2266 
Q 2828 2175 2409 1742 
Q 1991 1309 1228 531 
z
" transform="scale(0.015625)"/>
       </defs>
       <use xlink:href="#DejaVuSans-32"/>
       <use xlink:href="#DejaVuSans-30" transform="translate(63.623047 0)"/>
       <use xlink:href="#DejaVuSans-30" transform="translate(127.246094 0)"/>
       <use xlink:href="#DejaVuSans-30" transform="translate(190.869141 0)"/>
       <use xlink:href="#DejaVuSans-30" transform="translate(254.492188 0)"/>
      </g>
     </g>
    </g>
    <g id="xtick_4">
     <g id="line2d_4">
      <g>
       <use xlink:href="#me323bb9684" x="190.016164" y="228.96" style="stroke: #000000; stroke-width: 0.8"/>
      </g>
     </g>
     <g id="text_4">
      <!-- 30000 -->
      <g transform="translate(174.109914 243.558437) scale(0.1 -0.1)">
       <defs>
        <path id="DejaVuSans-33" d="M 2597 2516 
Q 3050 2419 3304 2112 
Q 3559 1806 3559 1356 
Q 3559 666 3084 287 
Q 2609 -91 1734 -91 
Q 1441 -91 1130 -33 
Q 819 25 488 141 
L 488 750 
Q 750 597 1062 519 
Q 1375 441 1716 441 
Q 2309 441 2620 675 
Q 2931 909 2931 1356 
Q 2931 1769 2642 2001 
Q 2353 2234 1838 2234 
L 1294 2234 
L 1294 2753 
L 1863 2753 
Q 2328 2753 2575 2939 
Q 2822 3125 2822 3475 
Q 2822 3834 2567 4026 
Q 2313 4219 1838 4219 
Q 1578 4219 1281 4162 
Q 984 4106 628 3988 
L 628 4550 
Q 988 4650 1302 4700 
Q 1616 4750 1894 4750 
Q 2613 4750 3031 4423 
Q 3450 4097 3450 3541 
Q 3450 3153 3228 2886 
Q 3006 2619 2597 2516 
z
" transform="scale(0.015625)"/>
       </defs>
       <use xlink:href="#DejaVuSans-33"/>
       <use xlink:href="#DejaVuSans-30" transform="translate(63.623047 0)"/>
       <use xlink:href="#DejaVuSans-30" transform="translate(127.246094 0)"/>
       <use xlink:href="#DejaVuSans-30" transform="translate(190.869141 0)"/>
       <use xlink:href="#DejaVuSans-30" transform="translate(254.492188 0)"/>
      </g>
     </g>
    </g>
    <g id="xtick_5">
     <g id="line2d_5">
      <g>
       <use xlink:href="#me323bb9684" x="232.627483" y="228.96" style="stroke: #000000; stroke-width: 0.8"/>
      </g>
     </g>
     <g id="text_5">
      <!-- 40000 -->
      <g transform="translate(216.721233 243.558437) scale(0.1 -0.1)">
       <defs>
        <path id="DejaVuSans-34" d="M 2419 4116 
L 825 1625 
L 2419 1625 
L 2419 4116 
z
M 2253 4666 
L 3047 4666 
L 3047 1625 
L 3713 1625 
L 3713 1100 
L 3047 1100 
L 3047 0 
L 2419 0 
L 2419 1100 
L 313 1100 
L 313 1709 
L 2253 4666 
z
" transform="scale(0.015625)"/>
       </defs>
       <use xlink:href="#DejaVuSans-34"/>
       <use xlink:href="#DejaVuSans-30" transform="translate(63.623047 0)"/>
       <use xlink:href="#DejaVuSans-30" transform="translate(127.246094 0)"/>
       <use xlink:href="#DejaVuSans-30" transform="translate(190.869141 0)"/>
       <use xlink:href="#DejaVuSans-30" transform="translate(254.492188 0)"/>
      </g>
     </g>
    </g>
    <g id="xtick_6">
     <g id="line2d_6">
      <g>
       <use xlink:href="#me323bb9684" x="275.238801" y="228.96" style="stroke: #000000; stroke-width: 0.8"/>
      </g>
     </g>
     <g id="text_6">
      <!-- 50000 -->
      <g transform="translate(259.332551 243.558437) scale(0.1 -0.1)">
       <defs>
        <path id="DejaVuSans-35" d="M 691 4666 
L 3169 4666 
L 3169 4134 
L 1269 4134 
L 1269 2991 
Q 1406 3038 1543 3061 
Q 1681 3084 1819 3084 
Q 2600 3084 3056 2656 
Q 3513 2228 3513 1497 
Q 3513 744 3044 326 
Q 2575 -91 1722 -91 
Q 1428 -91 1123 -41 
Q 819 9 494 109 
L 494 744 
Q 775 591 1075 516 
Q 1375 441 1709 441 
Q 2250 441 2565 725 
Q 2881 1009 2881 1497 
Q 2881 1984 2565 2268 
Q 2250 2553 1709 2553 
Q 1456 2553 1204 2497 
Q 953 2441 691 2322 
L 691 4666 
z
" transform="scale(0.015625)"/>
       </defs>
       <use xlink:href="#DejaVuSans-35"/>
       <use xlink:href="#DejaVuSans-30" transform="translate(63.623047 0)"/>
       <use xlink:href="#DejaVuSans-30" transform="translate(127.246094 0)"/>
       <use xlink:href="#DejaVuSans-30" transform="translate(190.869141 0)"/>
       <use xlink:href="#DejaVuSans-30" transform="translate(254.492188 0)"/>
      </g>
     </g>
    </g>
    <g id="xtick_7">
     <g id="line2d_7">
      <g>
       <use xlink:href="#me323bb9684" x="317.850119" y="228.96" style="stroke: #000000; stroke-width: 0.8"/>
      </g>
     </g>
     <g id="text_7">
      <!-- 60000 -->
      <g transform="translate(301.943869 243.558437) scale(0.1 -0.1)">
       <defs>
        <path id="DejaVuSans-36" d="M 2113 2584 
Q 1688 2584 1439 2293 
Q 1191 2003 1191 1497 
Q 1191 994 1439 701 
Q 1688 409 2113 409 
Q 2538 409 2786 701 
Q 3034 994 3034 1497 
Q 3034 2003 2786 2293 
Q 2538 2584 2113 2584 
z
M 3366 4563 
L 3366 3988 
Q 3128 4100 2886 4159 
Q 2644 4219 2406 4219 
Q 1781 4219 1451 3797 
Q 1122 3375 1075 2522 
Q 1259 2794 1537 2939 
Q 1816 3084 2150 3084 
Q 2853 3084 3261 2657 
Q 3669 2231 3669 1497 
Q 3669 778 3244 343 
Q 2819 -91 2113 -91 
Q 1303 -91 875 529 
Q 447 1150 447 2328 
Q 447 3434 972 4092 
Q 1497 4750 2381 4750 
Q 2619 4750 2861 4703 
Q 3103 4656 3366 4563 
z
" transform="scale(0.015625)"/>
       </defs>
       <use xlink:href="#DejaVuSans-36"/>
       <use xlink:href="#DejaVuSans-30" transform="translate(63.623047 0)"/>
       <use xlink:href="#DejaVuSans-30" transform="translate(127.246094 0)"/>
       <use xlink:href="#DejaVuSans-30" transform="translate(190.869141 0)"/>
       <use xlink:href="#DejaVuSans-30" transform="translate(254.492188 0)"/>
      </g>
     </g>
    </g>
    <g id="xtick_8">
     <g id="line2d_8">
      <g>
       <use xlink:href="#me323bb9684" x="360.461437" y="228.96" style="stroke: #000000; stroke-width: 0.8"/>
      </g>
     </g>
     <g id="text_8">
      <!-- 70000 -->
      <g transform="translate(344.555187 243.558437) scale(0.1 -0.1)">
       <defs>
        <path id="DejaVuSans-37" d="M 525 4666 
L 3525 4666 
L 3525 4397 
L 1831 0 
L 1172 0 
L 2766 4134 
L 525 4134 
L 525 4666 
z
" transform="scale(0.015625)"/>
       </defs>
       <use xlink:href="#DejaVuSans-37"/>
       <use xlink:href="#DejaVuSans-30" transform="translate(63.623047 0)"/>
       <use xlink:href="#DejaVuSans-30" transform="translate(127.246094 0)"/>
       <use xlink:href="#DejaVuSans-30" transform="translate(190.869141 0)"/>
       <use xlink:href="#DejaVuSans-30" transform="translate(254.492188 0)"/>
      </g>
     </g>
    </g>
    <g id="text_9">
     <!-- event_time_offset [µs] -->
     <g transform="translate(158.330469 257.236562) scale(0.1 -0.1)">
      <defs>
       <path id="DejaVuSans-65" d="M 3597 1894 
L 3597 1613 
L 953 1613 
Q 991 1019 1311 708 
Q 1631 397 2203 397 
Q 2534 397 2845 478 
Q 3156 559 3463 722 
L 3463 178 
Q 3153 47 2828 -22 
Q 2503 -91 2169 -91 
Q 1331 -91 842 396 
Q 353 884 353 1716 
Q 353 2575 817 3079 
Q 1281 3584 2069 3584 
Q 2775 3584 3186 3129 
Q 3597 2675 3597 1894 
z
M 3022 2063 
Q 3016 2534 2758 2815 
Q 2500 3097 2075 3097 
Q 1594 3097 1305 2825 
Q 1016 2553 972 2059 
L 3022 2063 
z
" transform="scale(0.015625)"/>
       <path id="DejaVuSans-76" d="M 191 3500 
L 800 3500 
L 1894 563 
L 2988 3500 
L 3597 3500 
L 2284 0 
L 1503 0 
L 191 3500 
z
" transform="scale(0.015625)"/>
       <path id="DejaVuSans-6e" d="M 3513 2113 
L 3513 0 
L 2938 0 
L 2938 2094 
Q 2938 2591 2744 2837 
Q 2550 3084 2163 3084 
Q 1697 3084 1428 2787 
Q 1159 2491 1159 1978 
L 1159 0 
L 581 0 
L 581 3500 
L 1159 3500 
L 1159 2956 
Q 1366 3272 1645 3428 
Q 1925 3584 2291 3584 
Q 2894 3584 3203 3211 
Q 3513 2838 3513 2113 
z
" transform="scale(0.015625)"/>
       <path id="DejaVuSans-74" d="M 1172 4494 
L 1172 3500 
L 2356 3500 
L 2356 3053 
L 1172 3053 
L 1172 1153 
Q 1172 725 1289 603 
Q 1406 481 1766 481 
L 2356 481 
L 2356 0 
L 1766 0 
Q 1100 0 847 248 
Q 594 497 594 1153 
L 594 3053 
L 172 3053 
L 172 3500 
L 594 3500 
L 594 4494 
L 1172 4494 
z
" transform="scale(0.015625)"/>
       <path id="DejaVuSans-5f" d="M 3263 -1063 
L 3263 -1509 
L -63 -1509 
L -63 -1063 
L 3263 -1063 
z
" transform="scale(0.015625)"/>
       <path id="DejaVuSans-69" d="M 603 3500 
L 1178 3500 
L 1178 0 
L 603 0 
L 603 3500 
z
M 603 4863 
L 1178 4863 
L 1178 4134 
L 603 4134 
L 603 4863 
z
" transform="scale(0.015625)"/>
       <path id="DejaVuSans-6d" d="M 3328 2828 
Q 3544 3216 3844 3400 
Q 4144 3584 4550 3584 
Q 5097 3584 5394 3201 
Q 5691 2819 5691 2113 
L 5691 0 
L 5113 0 
L 5113 2094 
Q 5113 2597 4934 2840 
Q 4756 3084 4391 3084 
Q 3944 3084 3684 2787 
Q 3425 2491 3425 1978 
L 3425 0 
L 2847 0 
L 2847 2094 
Q 2847 2600 2669 2842 
Q 2491 3084 2119 3084 
Q 1678 3084 1418 2786 
Q 1159 2488 1159 1978 
L 1159 0 
L 581 0 
L 581 3500 
L 1159 3500 
L 1159 2956 
Q 1356 3278 1631 3431 
Q 1906 3584 2284 3584 
Q 2666 3584 2933 3390 
Q 3200 3197 3328 2828 
z
" transform="scale(0.015625)"/>
       <path id="DejaVuSans-6f" d="M 1959 3097 
Q 1497 3097 1228 2736 
Q 959 2375 959 1747 
Q 959 1119 1226 758 
Q 1494 397 1959 397 
Q 2419 397 2687 759 
Q 2956 1122 2956 1747 
Q 2956 2369 2687 2733 
Q 2419 3097 1959 3097 
z
M 1959 3584 
Q 2709 3584 3137 3096 
Q 3566 2609 3566 1747 
Q 3566 888 3137 398 
Q 2709 -91 1959 -91 
Q 1206 -91 779 398 
Q 353 888 353 1747 
Q 353 2609 779 3096 
Q 1206 3584 1959 3584 
z
" transform="scale(0.015625)"/>
       <path id="DejaVuSans-66" d="M 2375 4863 
L 2375 4384 
L 1825 4384 
Q 1516 4384 1395 4259 
Q 1275 4134 1275 3809 
L 1275 3500 
L 2222 3500 
L 2222 3053 
L 1275 3053 
L 1275 0 
L 697 0 
L 697 3053 
L 147 3053 
L 147 3500 
L 697 3500 
L 697 3744 
Q 697 4328 969 4595 
Q 1241 4863 1831 4863 
L 2375 4863 
z
" transform="scale(0.015625)"/>
       <path id="DejaVuSans-73" d="M 2834 3397 
L 2834 2853 
Q 2591 2978 2328 3040 
Q 2066 3103 1784 3103 
Q 1356 3103 1142 2972 
Q 928 2841 928 2578 
Q 928 2378 1081 2264 
Q 1234 2150 1697 2047 
L 1894 2003 
Q 2506 1872 2764 1633 
Q 3022 1394 3022 966 
Q 3022 478 2636 193 
Q 2250 -91 1575 -91 
Q 1294 -91 989 -36 
Q 684 19 347 128 
L 347 722 
Q 666 556 975 473 
Q 1284 391 1588 391 
Q 1994 391 2212 530 
Q 2431 669 2431 922 
Q 2431 1156 2273 1281 
Q 2116 1406 1581 1522 
L 1381 1569 
Q 847 1681 609 1914 
Q 372 2147 372 2553 
Q 372 3047 722 3315 
Q 1072 3584 1716 3584 
Q 2034 3584 2315 3537 
Q 2597 3491 2834 3397 
z
" transform="scale(0.015625)"/>
       <path id="DejaVuSans-20" transform="scale(0.015625)"/>
       <path id="DejaVuSans-5b" d="M 550 4863 
L 1875 4863 
L 1875 4416 
L 1125 4416 
L 1125 -397 
L 1875 -397 
L 1875 -844 
L 550 -844 
L 550 4863 
z
" transform="scale(0.015625)"/>
       <path id="DejaVuSans-b5" d="M 544 -1331 
L 544 3500 
L 1119 3500 
L 1119 1325 
Q 1119 872 1334 640 
Q 1550 409 1972 409 
Q 2434 409 2667 671 
Q 2900 934 2900 1459 
L 2900 3500 
L 3475 3500 
L 3475 806 
Q 3475 619 3529 530 
Q 3584 441 3700 441 
Q 3728 441 3778 458 
Q 3828 475 3916 513 
L 3916 50 
Q 3788 -22 3673 -56 
Q 3559 -91 3450 -91 
Q 3234 -91 3106 31 
Q 2978 153 2931 403 
Q 2775 156 2548 32 
Q 2322 -91 2016 -91 
Q 1697 -91 1473 31 
Q 1250 153 1119 397 
L 1119 -1331 
L 544 -1331 
z
" transform="scale(0.015625)"/>
       <path id="DejaVuSans-5d" d="M 1947 4863 
L 1947 -844 
L 622 -844 
L 622 -397 
L 1369 -397 
L 1369 4416 
L 622 4416 
L 622 4863 
L 1947 4863 
z
" transform="scale(0.015625)"/>
      </defs>
      <use xlink:href="#DejaVuSans-65"/>
      <use xlink:href="#DejaVuSans-76" transform="translate(61.523438 0)"/>
      <use xlink:href="#DejaVuSans-65" transform="translate(120.703125 0)"/>
      <use xlink:href="#DejaVuSans-6e" transform="translate(182.226562 0)"/>
      <use xlink:href="#DejaVuSans-74" transform="translate(245.605469 0)"/>
      <use xlink:href="#DejaVuSans-5f" transform="translate(284.814453 0)"/>
      <use xlink:href="#DejaVuSans-74" transform="translate(334.814453 0)"/>
      <use xlink:href="#DejaVuSans-69" transform="translate(374.023438 0)"/>
      <use xlink:href="#DejaVuSans-6d" transform="translate(401.806641 0)"/>
      <use xlink:href="#DejaVuSans-65" transform="translate(499.21875 0)"/>
      <use xlink:href="#DejaVuSans-5f" transform="translate(560.742188 0)"/>
      <use xlink:href="#DejaVuSans-6f" transform="translate(610.742188 0)"/>
      <use xlink:href="#DejaVuSans-66" transform="translate(671.923828 0)"/>
      <use xlink:href="#DejaVuSans-66" transform="translate(707.128906 0)"/>
      <use xlink:href="#DejaVuSans-73" transform="translate(742.333984 0)"/>
      <use xlink:href="#DejaVuSans-65" transform="translate(794.433594 0)"/>
      <use xlink:href="#DejaVuSans-74" transform="translate(855.957031 0)"/>
      <use xlink:href="#DejaVuSans-20" transform="translate(895.166016 0)"/>
      <use xlink:href="#DejaVuSans-5b" transform="translate(926.953125 0)"/>
      <use xlink:href="#DejaVuSans-b5" transform="translate(965.966797 0)"/>
      <use xlink:href="#DejaVuSans-73" transform="translate(1029.589844 0)"/>
      <use xlink:href="#DejaVuSans-5d" transform="translate(1081.689453 0)"/>
     </g>
    </g>
   </g>
   <g id="matplotlib.axis_2">
    <g id="ytick_1">
     <g id="line2d_9">
      <defs>
       <path id="mb76d3847ec" d="M 0 0 
L -3.5 0 
" style="stroke: #000000; stroke-width: 0.8"/>
      </defs>
      <g>
       <use xlink:href="#mb76d3847ec" x="46.965625" y="218.88" style="stroke: #000000; stroke-width: 0.8"/>
      </g>
     </g>
     <g id="text_10">
      <!-- 0 -->
      <g transform="translate(33.603125 222.679219) scale(0.1 -0.1)">
       <use xlink:href="#DejaVuSans-30"/>
      </g>
     </g>
    </g>
    <g id="ytick_2">
     <g id="line2d_10">
      <g>
       <use xlink:href="#mb76d3847ec" x="46.965625" y="184.535877" style="stroke: #000000; stroke-width: 0.8"/>
      </g>
     </g>
     <g id="text_11">
      <!-- 100 -->
      <g transform="translate(20.878125 188.335096) scale(0.1 -0.1)">
       <use xlink:href="#DejaVuSans-31"/>
       <use xlink:href="#DejaVuSans-30" transform="translate(63.623047 0)"/>
       <use xlink:href="#DejaVuSans-30" transform="translate(127.246094 0)"/>
      </g>
     </g>
    </g>
    <g id="ytick_3">
     <g id="line2d_11">
      <g>
       <use xlink:href="#mb76d3847ec" x="46.965625" y="150.191755" style="stroke: #000000; stroke-width: 0.8"/>
      </g>
     </g>
     <g id="text_12">
      <!-- 200 -->
      <g transform="translate(20.878125 153.990973) scale(0.1 -0.1)">
       <use xlink:href="#DejaVuSans-32"/>
       <use xlink:href="#DejaVuSans-30" transform="translate(63.623047 0)"/>
       <use xlink:href="#DejaVuSans-30" transform="translate(127.246094 0)"/>
      </g>
     </g>
    </g>
    <g id="ytick_4">
     <g id="line2d_12">
      <g>
       <use xlink:href="#mb76d3847ec" x="46.965625" y="115.847632" style="stroke: #000000; stroke-width: 0.8"/>
      </g>
     </g>
     <g id="text_13">
      <!-- 300 -->
      <g transform="translate(20.878125 119.646851) scale(0.1 -0.1)">
       <use xlink:href="#DejaVuSans-33"/>
       <use xlink:href="#DejaVuSans-30" transform="translate(63.623047 0)"/>
       <use xlink:href="#DejaVuSans-30" transform="translate(127.246094 0)"/>
      </g>
     </g>
    </g>
    <g id="ytick_5">
     <g id="line2d_13">
      <g>
       <use xlink:href="#mb76d3847ec" x="46.965625" y="81.503509" style="stroke: #000000; stroke-width: 0.8"/>
      </g>
     </g>
     <g id="text_14">
      <!-- 400 -->
      <g transform="translate(20.878125 85.302728) scale(0.1 -0.1)">
       <use xlink:href="#DejaVuSans-34"/>
       <use xlink:href="#DejaVuSans-30" transform="translate(63.623047 0)"/>
       <use xlink:href="#DejaVuSans-30" transform="translate(127.246094 0)"/>
      </g>
     </g>
    </g>
    <g id="ytick_6">
     <g id="line2d_14">
      <g>
       <use xlink:href="#mb76d3847ec" x="46.965625" y="47.159387" style="stroke: #000000; stroke-width: 0.8"/>
      </g>
     </g>
     <g id="text_15">
      <!-- 500 -->
      <g transform="translate(20.878125 50.958605) scale(0.1 -0.1)">
       <use xlink:href="#DejaVuSans-35"/>
       <use xlink:href="#DejaVuSans-30" transform="translate(63.623047 0)"/>
       <use xlink:href="#DejaVuSans-30" transform="translate(127.246094 0)"/>
      </g>
     </g>
    </g>
    <g id="ytick_7">
     <g id="line2d_15">
      <g>
       <use xlink:href="#mb76d3847ec" x="46.965625" y="12.815264" style="stroke: #000000; stroke-width: 0.8"/>
      </g>
     </g>
     <g id="text_16">
      <!-- 600 -->
      <g transform="translate(20.878125 16.614483) scale(0.1 -0.1)">
       <use xlink:href="#DejaVuSans-36"/>
       <use xlink:href="#DejaVuSans-30" transform="translate(63.623047 0)"/>
       <use xlink:href="#DejaVuSans-30" transform="translate(127.246094 0)"/>
      </g>
     </g>
    </g>
    <g id="text_17">
     <!-- [counts] -->
     <g transform="translate(14.798438 138.6925) rotate(-90) scale(0.1 -0.1)">
      <defs>
       <path id="DejaVuSans-63" d="M 3122 3366 
L 3122 2828 
Q 2878 2963 2633 3030 
Q 2388 3097 2138 3097 
Q 1578 3097 1268 2742 
Q 959 2388 959 1747 
Q 959 1106 1268 751 
Q 1578 397 2138 397 
Q 2388 397 2633 464 
Q 2878 531 3122 666 
L 3122 134 
Q 2881 22 2623 -34 
Q 2366 -91 2075 -91 
Q 1284 -91 818 406 
Q 353 903 353 1747 
Q 353 2603 823 3093 
Q 1294 3584 2113 3584 
Q 2378 3584 2631 3529 
Q 2884 3475 3122 3366 
z
" transform="scale(0.015625)"/>
       <path id="DejaVuSans-75" d="M 544 1381 
L 544 3500 
L 1119 3500 
L 1119 1403 
Q 1119 906 1312 657 
Q 1506 409 1894 409 
Q 2359 409 2629 706 
Q 2900 1003 2900 1516 
L 2900 3500 
L 3475 3500 
L 3475 0 
L 2900 0 
L 2900 538 
Q 2691 219 2414 64 
Q 2138 -91 1772 -91 
Q 1169 -91 856 284 
Q 544 659 544 1381 
z
M 1991 3584 
L 1991 3584 
z
" transform="scale(0.015625)"/>
      </defs>
      <use xlink:href="#DejaVuSans-5b"/>
      <use xlink:href="#DejaVuSans-63" transform="translate(39.013672 0)"/>
      <use xlink:href="#DejaVuSans-6f" transform="translate(93.994141 0)"/>
      <use xlink:href="#DejaVuSans-75" transform="translate(155.175781 0)"/>
      <use xlink:href="#DejaVuSans-6e" transform="translate(218.554688 0)"/>
      <use xlink:href="#DejaVuSans-74" transform="translate(281.933594 0)"/>
      <use xlink:href="#DejaVuSans-73" transform="translate(321.142578 0)"/>
      <use xlink:href="#DejaVuSans-5d" transform="translate(373.242188 0)"/>
     </g>
    </g>
   </g>
   <g id="patch_3">
    <path d="M 46.965625 228.96 
L 46.965625 7.2 
" style="fill: none; stroke: #000000; stroke-width: 0.8; stroke-linejoin: miter; stroke-linecap: square"/>
   </g>
   <g id="patch_4">
    <path d="M 381.765625 228.96 
L 381.765625 7.2 
" style="fill: none; stroke: #000000; stroke-width: 0.8; stroke-linejoin: miter; stroke-linecap: square"/>
   </g>
   <g id="patch_5">
    <path d="M 46.965625 228.96 
L 381.765625 228.96 
" style="fill: none; stroke: #000000; stroke-width: 0.8; stroke-linejoin: miter; stroke-linecap: square"/>
   </g>
   <g id="patch_6">
    <path d="M 46.965625 7.2 
L 381.765625 7.2 
" style="fill: none; stroke: #000000; stroke-width: 0.8; stroke-linejoin: miter; stroke-linecap: square"/>
   </g>
   <g id="legend_1">
    <g id="patch_7">
     <path d="M 246.957813 45.1125 
L 374.765625 45.1125 
Q 376.765625 45.1125 376.765625 43.1125 
L 376.765625 14.2 
Q 376.765625 12.2 374.765625 12.2 
L 246.957813 12.2 
Q 244.957813 12.2 244.957813 14.2 
L 244.957813 43.1125 
Q 244.957813 45.1125 246.957813 45.1125 
z
" style="fill: #ffffff; opacity: 0.8; stroke: #cccccc; stroke-linejoin: miter"/>
    </g>
    <g id="line2d_16">
     <path d="M 248.957813 20.298437 
L 248.957813 20.298437 
L 258.957813 20.298437 
L 258.957813 20.298437 
L 268.957813 20.298437 
" style="fill: none; stroke: #1f77b4; stroke-width: 1.5; stroke-linecap: square"/>
    </g>
    <g id="text_18">
     <!-- detector_number:0 -->
     <g transform="translate(276.957813 23.798437) scale(0.1 -0.1)">
      <defs>
       <path id="DejaVuSans-64" d="M 2906 2969 
L 2906 4863 
L 3481 4863 
L 3481 0 
L 2906 0 
L 2906 525 
Q 2725 213 2448 61 
Q 2172 -91 1784 -91 
Q 1150 -91 751 415 
Q 353 922 353 1747 
Q 353 2572 751 3078 
Q 1150 3584 1784 3584 
Q 2172 3584 2448 3432 
Q 2725 3281 2906 2969 
z
M 947 1747 
Q 947 1113 1208 752 
Q 1469 391 1925 391 
Q 2381 391 2643 752 
Q 2906 1113 2906 1747 
Q 2906 2381 2643 2742 
Q 2381 3103 1925 3103 
Q 1469 3103 1208 2742 
Q 947 2381 947 1747 
z
" transform="scale(0.015625)"/>
       <path id="DejaVuSans-72" d="M 2631 2963 
Q 2534 3019 2420 3045 
Q 2306 3072 2169 3072 
Q 1681 3072 1420 2755 
Q 1159 2438 1159 1844 
L 1159 0 
L 581 0 
L 581 3500 
L 1159 3500 
L 1159 2956 
Q 1341 3275 1631 3429 
Q 1922 3584 2338 3584 
Q 2397 3584 2469 3576 
Q 2541 3569 2628 3553 
L 2631 2963 
z
" transform="scale(0.015625)"/>
       <path id="DejaVuSans-62" d="M 3116 1747 
Q 3116 2381 2855 2742 
Q 2594 3103 2138 3103 
Q 1681 3103 1420 2742 
Q 1159 2381 1159 1747 
Q 1159 1113 1420 752 
Q 1681 391 2138 391 
Q 2594 391 2855 752 
Q 3116 1113 3116 1747 
z
M 1159 2969 
Q 1341 3281 1617 3432 
Q 1894 3584 2278 3584 
Q 2916 3584 3314 3078 
Q 3713 2572 3713 1747 
Q 3713 922 3314 415 
Q 2916 -91 2278 -91 
Q 1894 -91 1617 61 
Q 1341 213 1159 525 
L 1159 0 
L 581 0 
L 581 4863 
L 1159 4863 
L 1159 2969 
z
" transform="scale(0.015625)"/>
       <path id="DejaVuSans-3a" d="M 750 794 
L 1409 794 
L 1409 0 
L 750 0 
L 750 794 
z
M 750 3309 
L 1409 3309 
L 1409 2516 
L 750 2516 
L 750 3309 
z
" transform="scale(0.015625)"/>
      </defs>
      <use xlink:href="#DejaVuSans-64"/>
      <use xlink:href="#DejaVuSans-65" transform="translate(63.476562 0)"/>
      <use xlink:href="#DejaVuSans-74" transform="translate(125 0)"/>
      <use xlink:href="#DejaVuSans-65" transform="translate(164.208984 0)"/>
      <use xlink:href="#DejaVuSans-63" transform="translate(225.732422 0)"/>
      <use xlink:href="#DejaVuSans-74" transform="translate(280.712891 0)"/>
      <use xlink:href="#DejaVuSans-6f" transform="translate(319.921875 0)"/>
      <use xlink:href="#DejaVuSans-72" transform="translate(381.103516 0)"/>
      <use xlink:href="#DejaVuSans-5f" transform="translate(422.216797 0)"/>
      <use xlink:href="#DejaVuSans-6e" transform="translate(472.216797 0)"/>
      <use xlink:href="#DejaVuSans-75" transform="translate(535.595703 0)"/>
      <use xlink:href="#DejaVuSans-6d" transform="translate(598.974609 0)"/>
      <use xlink:href="#DejaVuSans-62" transform="translate(696.386719 0)"/>
      <use xlink:href="#DejaVuSans-65" transform="translate(759.863281 0)"/>
      <use xlink:href="#DejaVuSans-72" transform="translate(821.386719 0)"/>
      <use xlink:href="#DejaVuSans-3a" transform="translate(860.75 0)"/>
      <use xlink:href="#DejaVuSans-30" transform="translate(894.441406 0)"/>
     </g>
    </g>
    <g id="line2d_17">
     <path d="M 248.957813 35.254687 
L 248.957813 35.254687 
L 258.957813 35.254687 
L 258.957813 35.254687 
L 268.957813 35.254687 
" style="fill: none; stroke: #ff7f0e; stroke-width: 1.5; stroke-linecap: square"/>
    </g>
    <g id="text_19">
     <!-- detector_number:1 -->
     <g transform="translate(276.957813 38.754687) scale(0.1 -0.1)">
      <use xlink:href="#DejaVuSans-64"/>
      <use xlink:href="#DejaVuSans-65" transform="translate(63.476562 0)"/>
      <use xlink:href="#DejaVuSans-74" transform="translate(125 0)"/>
      <use xlink:href="#DejaVuSans-65" transform="translate(164.208984 0)"/>
      <use xlink:href="#DejaVuSans-63" transform="translate(225.732422 0)"/>
      <use xlink:href="#DejaVuSans-74" transform="translate(280.712891 0)"/>
      <use xlink:href="#DejaVuSans-6f" transform="translate(319.921875 0)"/>
      <use xlink:href="#DejaVuSans-72" transform="translate(381.103516 0)"/>
      <use xlink:href="#DejaVuSans-5f" transform="translate(422.216797 0)"/>
      <use xlink:href="#DejaVuSans-6e" transform="translate(472.216797 0)"/>
      <use xlink:href="#DejaVuSans-75" transform="translate(535.595703 0)"/>
      <use xlink:href="#DejaVuSans-6d" transform="translate(598.974609 0)"/>
      <use xlink:href="#DejaVuSans-62" transform="translate(696.386719 0)"/>
      <use xlink:href="#DejaVuSans-65" transform="translate(759.863281 0)"/>
      <use xlink:href="#DejaVuSans-72" transform="translate(821.386719 0)"/>
      <use xlink:href="#DejaVuSans-3a" transform="translate(860.75 0)"/>
      <use xlink:href="#DejaVuSans-31" transform="translate(894.441406 0)"/>
     </g>
    </g>
   </g>
   <g id="line2d_18">
    <path d="M 62.183807 127.181193 
L 63.198352 127.181193 
L 63.198352 131.302487 
L 64.212898 131.302487 
L 64.212898 126.150869 
L 65.227443 126.150869 
L 65.227443 118.595162 
L 66.241989 118.595162 
L 66.241989 121.686133 
L 67.256534 121.686133 
L 67.256534 125.807428 
L 68.27108 125.807428 
L 68.27108 135.767223 
L 69.285625 135.767223 
L 69.285625 124.433663 
L 70.30017 124.433663 
L 70.30017 120.655809 
L 71.314716 120.655809 
L 71.314716 132.676252 
L 72.329261 132.676252 
L 72.329261 134.736899 
L 73.343807 134.736899 
L 73.343807 125.807428 
L 74.358352 125.807428 
L 74.358352 140.231959 
L 75.372898 140.231959 
L 75.372898 135.423782 
L 76.387443 135.423782 
L 76.387443 142.636048 
L 77.401989 142.636048 
L 77.401989 132.676252 
L 78.416534 132.676252 
L 78.416534 143.32293 
L 79.43108 143.32293 
L 79.43108 140.5754 
L 80.445625 140.5754 
L 80.445625 141.949165 
L 81.46017 141.949165 
L 81.46017 136.797547 
L 82.474716 136.797547 
L 82.474716 145.727019 
L 83.489261 145.727019 
L 83.489261 140.5754 
L 84.503807 140.5754 
L 84.503807 147.100784 
L 85.518352 147.100784 
L 85.518352 150.191755 
L 86.532898 150.191755 
L 86.532898 142.979489 
L 87.547443 142.979489 
L 87.547443 153.969608 
L 88.561989 153.969608 
L 88.561989 144.696695 
L 89.576534 144.696695 
L 89.576534 149.161431 
L 90.59108 149.161431 
L 90.59108 159.808109 
L 91.605625 159.808109 
L 91.605625 157.060579 
L 92.62017 157.060579 
L 92.62017 159.121227 
L 93.634716 159.121227 
L 93.634716 157.060579 
L 94.649261 157.060579 
L 94.649261 157.747462 
L 95.663807 157.747462 
L 95.663807 159.808109 
L 96.678352 159.808109 
L 96.678352 167.020375 
L 97.692898 167.020375 
L 97.692898 159.464668 
L 99.721989 159.464668 
L 99.721989 165.990051 
L 100.736534 165.990051 
L 100.736534 171.14167 
L 101.75108 171.14167 
L 101.75108 167.020375 
L 102.765625 167.020375 
L 102.765625 168.050698 
L 103.78017 168.050698 
L 103.78017 179.7277 
L 105.809261 179.7277 
L 105.809261 185.22276 
L 106.823807 185.22276 
L 106.823807 184.192436 
L 107.838352 184.192436 
L 107.838352 185.566201 
L 108.852898 185.566201 
L 108.852898 190.374378 
L 109.867443 190.374378 
L 109.867443 193.121908 
L 110.881989 193.121908 
L 110.881989 194.152232 
L 111.896534 194.152232 
L 111.896534 197.586644 
L 112.91108 197.586644 
L 112.91108 195.182555 
L 113.925625 195.182555 
L 113.925625 195.525997 
L 114.94017 195.525997 
L 114.94017 199.30385 
L 115.954716 199.30385 
L 115.954716 204.112027 
L 116.969261 204.112027 
L 116.969261 202.394821 
L 117.983807 202.394821 
L 117.983807 206.516116 
L 118.998352 206.516116 
L 118.998352 206.859557 
L 120.012898 206.859557 
L 120.012898 207.54644 
L 121.027443 207.54644 
L 121.027443 208.233322 
L 122.041989 208.233322 
L 122.041989 209.263646 
L 123.056534 209.263646 
L 123.056534 210.980852 
L 124.07108 210.980852 
L 124.07108 213.728382 
L 125.085625 213.728382 
L 125.085625 211.667734 
L 126.10017 211.667734 
L 126.10017 213.38494 
L 127.114716 213.38494 
L 127.114716 215.102147 
L 128.129261 215.102147 
L 128.129261 216.13247 
L 129.143807 216.13247 
L 129.143807 217.506235 
L 130.158352 217.506235 
L 130.158352 217.162794 
L 131.172898 217.162794 
L 131.172898 218.193118 
L 132.187443 218.193118 
L 132.187443 218.536559 
L 135.23108 218.536559 
L 135.23108 218.88 
L 148.42017 218.88 
L 148.42017 218.536559 
L 149.434716 218.536559 
L 149.434716 216.819353 
L 150.449261 216.819353 
L 150.449261 209.950528 
L 151.463807 209.950528 
L 151.463807 207.54644 
L 152.478352 207.54644 
L 152.478352 199.30385 
L 153.492898 199.30385 
L 153.492898 195.525997 
L 154.507443 195.525997 
L 154.507443 189.344055 
L 155.521989 189.344055 
L 155.521989 184.535877 
L 156.536534 184.535877 
L 156.536534 179.040818 
L 157.55108 179.040818 
L 157.55108 174.919523 
L 158.565625 174.919523 
L 158.565625 171.14167 
L 159.58017 171.14167 
L 159.58017 165.990051 
L 160.594716 165.990051 
L 160.594716 160.494991 
L 161.609261 160.494991 
L 161.609261 150.191755 
L 162.623807 150.191755 
L 162.623807 146.757342 
L 163.638352 146.757342 
L 163.638352 143.666371 
L 164.652898 143.666371 
L 164.652898 138.858194 
L 165.667443 138.858194 
L 165.667443 148.81799 
L 166.681989 148.81799 
L 166.681989 128.898399 
L 167.696534 128.898399 
L 167.696534 123.74678 
L 168.71108 123.74678 
L 168.71108 112.069779 
L 169.725625 112.069779 
L 169.725625 108.978807 
L 170.74017 108.978807 
L 170.74017 101.079659 
L 171.754716 101.079659 
L 171.754716 103.827189 
L 172.769261 103.827189 
L 172.769261 92.493629 
L 173.783807 92.493629 
L 173.783807 90.432981 
L 174.798352 90.432981 
L 174.798352 92.493629 
L 175.812898 92.493629 
L 175.812898 81.846951 
L 176.827443 81.846951 
L 176.827443 80.473186 
L 177.841989 80.473186 
L 177.841989 84.937922 
L 178.856534 84.937922 
L 178.856534 68.796184 
L 179.87108 68.796184 
L 179.87108 62.614242 
L 180.885625 62.614242 
L 180.885625 66.048654 
L 181.90017 66.048654 
L 181.90017 54.028211 
L 182.914716 54.028211 
L 182.914716 58.492947 
L 183.929261 58.492947 
L 183.929261 38.916797 
L 184.943807 38.916797 
L 184.943807 53.341329 
L 185.958352 53.341329 
L 185.958352 40.634003 
L 186.972898 40.634003 
L 186.972898 37.543032 
L 187.987443 37.543032 
L 187.987443 43.038092 
L 190.016534 43.038092 
L 190.016534 38.573356 
L 191.03108 38.573356 
L 191.03108 41.664327 
L 192.045625 41.664327 
L 192.045625 39.60368 
L 193.06017 39.60368 
L 193.06017 28.61356 
L 194.074716 28.61356 
L 194.074716 29.643884 
L 195.089261 29.643884 
L 195.089261 27.583237 
L 196.103807 27.583237 
L 196.103807 46.472504 
L 197.118352 46.472504 
L 197.118352 23.118501 
L 198.132898 23.118501 
L 198.132898 33.421738 
L 199.147443 33.421738 
L 199.147443 42.007768 
L 200.161989 42.007768 
L 200.161989 38.916797 
L 201.176534 38.916797 
L 201.176534 58.836388 
L 202.19108 58.836388 
L 202.19108 45.098739 
L 203.205625 45.098739 
L 203.205625 47.846269 
L 204.22017 47.846269 
L 204.22017 44.755298 
L 205.234716 44.755298 
L 205.234716 66.392095 
L 206.249261 66.392095 
L 206.249261 50.593799 
L 207.263807 50.593799 
L 207.263807 54.715094 
L 208.278352 54.715094 
L 208.278352 46.129063 
L 209.292898 46.129063 
L 209.292898 46.472504 
L 210.307443 46.472504 
L 210.307443 53.68477 
L 211.321989 53.68477 
L 211.321989 66.735537 
L 212.336534 66.735537 
L 212.336534 58.836388 
L 213.35108 58.836388 
L 213.35108 60.210153 
L 214.365625 60.210153 
L 214.365625 64.674889 
L 215.38017 64.674889 
L 215.38017 57.119182 
L 216.394716 57.119182 
L 216.394716 55.401976 
L 217.409261 55.401976 
L 217.409261 68.796184 
L 218.423807 68.796184 
L 218.423807 69.826508 
L 219.438352 69.826508 
L 219.438352 80.473186 
L 220.452898 80.473186 
L 220.452898 65.01833 
L 221.467443 65.01833 
L 221.467443 72.230596 
L 222.481989 72.230596 
L 222.481989 79.099421 
L 223.496534 79.099421 
L 223.496534 74.291244 
L 224.51108 74.291244 
L 224.51108 73.604361 
L 225.525625 73.604361 
L 225.525625 67.422419 
L 226.54017 67.422419 
L 226.54017 76.351891 
L 227.554716 76.351891 
L 227.554716 74.291244 
L 228.569261 74.291244 
L 228.569261 62.270801 
L 229.583807 62.270801 
L 229.583807 74.634685 
L 230.598352 74.634685 
L 230.598352 66.735537 
L 231.612898 66.735537 
L 231.612898 75.321567 
L 232.627443 75.321567 
L 232.627443 62.614242 
L 233.641989 62.614242 
L 233.641989 79.786303 
L 234.656534 79.786303 
L 234.656534 76.351891 
L 235.67108 76.351891 
L 235.67108 73.947802 
L 236.685625 73.947802 
L 236.685625 82.190392 
L 237.70017 82.190392 
L 237.70017 75.665009 
L 238.714716 75.665009 
L 238.714716 80.816627 
L 239.729261 80.816627 
L 239.729261 64.331448 
L 240.743807 64.331448 
L 240.743807 87.34201 
L 241.758352 87.34201 
L 241.758352 65.01833 
L 242.772898 65.01833 
L 242.772898 79.099421 
L 243.787443 79.099421 
L 243.787443 81.846951 
L 244.801989 81.846951 
L 244.801989 83.220716 
L 245.816534 83.220716 
L 245.816534 74.634685 
L 246.83108 74.634685 
L 246.83108 89.059216 
L 247.845625 89.059216 
L 247.845625 72.230596 
L 248.86017 72.230596 
L 248.86017 80.816627 
L 249.874716 80.816627 
L 249.874716 89.746099 
L 250.889261 89.746099 
L 250.889261 93.180511 
L 251.903807 93.180511 
L 251.903807 89.746099 
L 252.918352 89.746099 
L 252.918352 95.928041 
L 253.932898 95.928041 
L 253.932898 106.91816 
L 254.947443 106.91816 
L 254.947443 88.715775 
L 255.961989 88.715775 
L 255.961989 106.91816 
L 256.976534 106.91816 
L 256.976534 111.726337 
L 257.99108 111.726337 
L 257.99108 127.181193 
L 259.005625 127.181193 
L 259.005625 119.625486 
L 260.02017 119.625486 
L 260.02017 130.959046 
L 261.034716 130.959046 
L 261.034716 125.120545 
L 262.049261 125.120545 
L 262.049261 117.564838 
L 263.063807 117.564838 
L 263.063807 139.545077 
L 264.078352 139.545077 
L 264.078352 141.605724 
L 265.092898 141.605724 
L 265.092898 150.191755 
L 266.107443 150.191755 
L 266.107443 151.222078 
L 267.121989 151.222078 
L 267.121989 156.030256 
L 268.136534 156.030256 
L 268.136534 148.131107 
L 269.15108 148.131107 
L 269.15108 158.090903 
L 270.165625 158.090903 
L 270.165625 167.363816 
L 271.18017 167.363816 
L 271.18017 169.767905 
L 272.194716 169.767905 
L 272.194716 174.576082 
L 273.209261 174.576082 
L 273.209261 176.636729 
L 274.223807 176.636729 
L 274.223807 187.283407 
L 275.238352 187.283407 
L 275.238352 186.939966 
L 276.252898 186.939966 
L 276.252898 191.061261 
L 277.267443 191.061261 
L 277.267443 199.990733 
L 278.281989 199.990733 
L 278.281989 197.586644 
L 279.296534 197.586644 
L 279.296534 206.516116 
L 280.31108 206.516116 
L 280.31108 207.54644 
L 281.325625 207.54644 
L 281.325625 210.293969 
L 282.34017 210.293969 
L 282.34017 213.041499 
L 283.354716 213.041499 
L 283.354716 216.13247 
L 285.383807 216.13247 
L 285.383807 215.789029 
L 286.398352 215.789029 
L 286.398352 218.193118 
L 287.412898 218.193118 
L 287.412898 218.536559 
L 288.427443 218.536559 
L 288.427443 218.88 
L 297.558352 218.88 
L 297.558352 218.536559 
L 298.572898 218.536559 
L 298.572898 215.102147 
L 299.587443 215.102147 
L 299.587443 204.455468 
L 300.601989 204.455468 
L 300.601989 206.859557 
L 301.616534 206.859557 
L 301.616534 196.212879 
L 302.63108 196.212879 
L 302.63108 198.273526 
L 303.645625 198.273526 
L 303.645625 197.243203 
L 304.66017 197.243203 
L 304.66017 185.566201 
L 305.674716 185.566201 
L 305.674716 186.253083 
L 306.689261 186.253083 
L 306.689261 185.566201 
L 307.703807 185.566201 
L 307.703807 178.353935 
L 308.718352 178.353935 
L 308.718352 166.333492 
L 309.732898 166.333492 
L 309.732898 167.020375 
L 310.747443 167.020375 
L 310.747443 168.050698 
L 311.761989 168.050698 
L 311.761989 159.808109 
L 312.776534 159.808109 
L 312.776534 165.990051 
L 313.79108 165.990051 
L 313.79108 160.15155 
L 314.805625 160.15155 
L 314.805625 145.727019 
L 315.82017 145.727019 
L 315.82017 146.413901 
L 316.834716 146.413901 
L 316.834716 154.313049 
L 317.849261 154.313049 
L 317.849261 146.07046 
L 318.863807 146.07046 
L 318.863807 148.131107 
L 319.878352 148.131107 
L 319.878352 144.009813 
L 320.892898 144.009813 
L 320.892898 130.272164 
L 321.907443 130.272164 
L 321.907443 127.524634 
L 322.921989 127.524634 
L 322.921989 125.807428 
L 323.936534 125.807428 
L 323.936534 134.736899 
L 324.95108 134.736899 
L 324.95108 126.150869 
L 325.965625 126.150869 
L 325.965625 120.312368 
L 327.994716 120.312368 
L 327.994716 122.373015 
L 329.009261 122.373015 
L 329.009261 106.574719 
L 330.023807 106.574719 
L 330.023807 115.847632 
L 331.038352 115.847632 
L 331.038352 115.16075 
L 332.052898 115.16075 
L 332.052898 110.009131 
L 333.067443 110.009131 
L 333.067443 105.544395 
L 334.081989 105.544395 
L 334.081989 115.847632 
L 335.096534 115.847632 
L 335.096534 111.039455 
L 336.11108 111.039455 
L 336.11108 103.140307 
L 337.125625 103.140307 
L 337.125625 93.523952 
L 338.14017 93.523952 
L 338.14017 90.776422 
L 339.154716 90.776422 
L 339.154716 95.5846 
L 340.169261 95.5846 
L 340.169261 92.150187 
L 341.183807 92.150187 
L 341.183807 88.372334 
L 342.198352 88.372334 
L 342.198352 93.867394 
L 343.212898 93.867394 
L 343.212898 96.958365 
L 345.241989 96.958365 
L 345.241989 88.715775 
L 346.256534 88.715775 
L 346.256534 97.301806 
L 347.27108 97.301806 
L 347.27108 100.049336 
L 348.285625 100.049336 
L 348.285625 101.423101 
L 349.30017 101.423101 
L 349.30017 112.41322 
L 350.314716 112.41322 
L 350.314716 102.109983 
L 351.329261 102.109983 
L 351.329261 110.009131 
L 352.343807 110.009131 
L 352.343807 106.231278 
L 353.358352 106.231278 
L 353.358352 103.827189 
L 354.372898 103.827189 
L 354.372898 118.938603 
L 355.387443 118.938603 
L 355.387443 107.948484 
L 356.401989 107.948484 
L 356.401989 112.41322 
L 357.416534 112.41322 
L 357.416534 117.564838 
L 358.43108 117.564838 
L 358.43108 115.16075 
L 359.445625 115.16075 
L 359.445625 118.938603 
L 360.46017 118.938603 
L 360.46017 120.312368 
L 361.474716 120.312368 
L 361.474716 118.251721 
L 362.489261 118.251721 
L 362.489261 113.786985 
L 363.503807 113.786985 
L 363.503807 127.181193 
L 364.518352 127.181193 
L 364.518352 122.716457 
L 365.532898 122.716457 
L 365.532898 129.928722 
L 366.547443 129.928722 
L 366.547443 129.928722 
" clip-path="url(#pd984e23171)" style="fill: none; stroke: #1f77b4; stroke-width: 1.5; stroke-linecap: square"/>
   </g>
   <g id="line2d_19">
    <path d="M 62.183807 130.959046 
L 63.198352 130.959046 
L 63.198352 117.221397 
L 64.212898 117.221397 
L 64.212898 122.029574 
L 65.227443 122.029574 
L 65.227443 133.019693 
L 66.241989 133.019693 
L 66.241989 135.767223 
L 67.256534 135.767223 
L 67.256534 128.554957 
L 68.27108 128.554957 
L 68.27108 133.019693 
L 69.285625 133.019693 
L 69.285625 141.262283 
L 70.30017 141.262283 
L 70.30017 129.928722 
L 71.314716 129.928722 
L 71.314716 141.605724 
L 72.329261 141.605724 
L 72.329261 136.110664 
L 73.343807 136.110664 
L 73.343807 142.292606 
L 74.358352 142.292606 
L 74.358352 135.080341 
L 75.372898 135.080341 
L 75.372898 144.353254 
L 76.387443 144.353254 
L 76.387443 141.949165 
L 77.401989 141.949165 
L 77.401989 143.666371 
L 78.416534 143.666371 
L 78.416534 144.353254 
L 79.43108 144.353254 
L 79.43108 142.292606 
L 80.445625 142.292606 
L 80.445625 153.282726 
L 81.46017 153.282726 
L 81.46017 143.32293 
L 82.474716 143.32293 
L 82.474716 147.444225 
L 83.489261 147.444225 
L 83.489261 157.40402 
L 84.503807 157.40402 
L 84.503807 157.747462 
L 85.518352 157.747462 
L 85.518352 156.030256 
L 86.532898 156.030256 
L 86.532898 155.686814 
L 87.547443 155.686814 
L 87.547443 156.030256 
L 88.561989 156.030256 
L 88.561989 158.434344 
L 89.576534 158.434344 
L 89.576534 166.333492 
L 90.59108 166.333492 
L 90.59108 160.494991 
L 91.605625 160.494991 
L 91.605625 156.717138 
L 92.62017 156.717138 
L 92.62017 163.585963 
L 93.634716 163.585963 
L 93.634716 173.202317 
L 94.649261 173.202317 
L 94.649261 162.212198 
L 95.663807 162.212198 
L 95.663807 169.767905 
L 96.678352 169.767905 
L 96.678352 181.788348 
L 97.692898 181.788348 
L 97.692898 182.47523 
L 99.721989 182.47523 
L 99.721989 186.939966 
L 100.736534 186.939966 
L 100.736534 182.47523 
L 101.75108 182.47523 
L 101.75108 191.404702 
L 102.765625 191.404702 
L 102.765625 192.778467 
L 103.78017 192.778467 
L 103.78017 196.212879 
L 104.794716 196.212879 
L 104.794716 195.182555 
L 105.809261 195.182555 
L 105.809261 195.869438 
L 106.823807 195.869438 
L 106.823807 195.182555 
L 107.838352 195.182555 
L 107.838352 203.081704 
L 108.852898 203.081704 
L 108.852898 202.05138 
L 109.867443 202.05138 
L 109.867443 205.485792 
L 110.881989 205.485792 
L 110.881989 207.202998 
L 111.896534 207.202998 
L 111.896534 206.516116 
L 113.925625 206.516116 
L 113.925625 210.293969 
L 114.94017 210.293969 
L 114.94017 209.950528 
L 115.954716 209.950528 
L 115.954716 213.041499 
L 116.969261 213.041499 
L 116.969261 212.354617 
L 117.983807 212.354617 
L 117.983807 213.041499 
L 118.998352 213.041499 
L 118.998352 215.102147 
L 121.027443 215.102147 
L 121.027443 217.506235 
L 122.041989 217.506235 
L 122.041989 216.819353 
L 123.056534 216.819353 
L 123.056534 218.536559 
L 124.07108 218.536559 
L 124.07108 218.193118 
L 125.085625 218.193118 
L 125.085625 218.536559 
L 127.114716 218.536559 
L 127.114716 218.88 
L 147.405625 218.88 
L 147.405625 217.849676 
L 148.42017 217.849676 
L 148.42017 211.667734 
L 149.434716 211.667734 
L 149.434716 208.576763 
L 150.449261 208.576763 
L 150.449261 202.05138 
L 151.463807 202.05138 
L 151.463807 195.869438 
L 152.478352 195.869438 
L 152.478352 191.404702 
L 153.492898 191.404702 
L 153.492898 184.192436 
L 154.507443 184.192436 
L 154.507443 177.667053 
L 155.521989 177.667053 
L 155.521989 175.606405 
L 156.536534 175.606405 
L 156.536534 169.767905 
L 157.55108 169.767905 
L 157.55108 167.020375 
L 158.565625 167.020375 
L 158.565625 159.808109 
L 159.58017 159.808109 
L 159.58017 148.131107 
L 160.594716 148.131107 
L 160.594716 146.413901 
L 161.609261 146.413901 
L 161.609261 141.605724 
L 162.623807 141.605724 
L 162.623807 138.514753 
L 163.638352 138.514753 
L 163.638352 145.383578 
L 164.652898 145.383578 
L 164.652898 128.211516 
L 165.667443 128.211516 
L 165.667443 117.908279 
L 166.681989 117.908279 
L 166.681989 110.009131 
L 167.696534 110.009131 
L 167.696534 107.605043 
L 168.71108 107.605043 
L 168.71108 98.675571 
L 169.725625 98.675571 
L 169.725625 96.271482 
L 170.74017 96.271482 
L 170.74017 93.180511 
L 171.754716 93.180511 
L 171.754716 90.08954 
L 172.769261 90.08954 
L 172.769261 80.473186 
L 173.783807 80.473186 
L 173.783807 82.190392 
L 174.798352 82.190392 
L 174.798352 72.917479 
L 175.812898 72.917479 
L 175.812898 78.069097 
L 176.827443 78.069097 
L 176.827443 63.644566 
L 177.841989 63.644566 
L 177.841989 62.614242 
L 178.856534 62.614242 
L 178.856534 59.866712 
L 179.87108 59.866712 
L 179.87108 48.18971 
L 180.885625 48.18971 
L 180.885625 46.472504 
L 181.90017 46.472504 
L 181.90017 40.290562 
L 182.914716 40.290562 
L 182.914716 44.068416 
L 183.929261 44.068416 
L 183.929261 35.825826 
L 184.943807 35.825826 
L 184.943807 38.916797 
L 185.958352 38.916797 
L 185.958352 31.36109 
L 186.972898 31.36109 
L 186.972898 33.078296 
L 187.987443 33.078296 
L 187.987443 44.755298 
L 189.001989 44.755298 
L 189.001989 35.482385 
L 190.016534 35.482385 
L 190.016534 33.421738 
L 191.03108 33.421738 
L 191.03108 17.28 
L 192.045625 17.28 
L 192.045625 21.401295 
L 193.06017 21.401295 
L 193.06017 34.10862 
L 194.074716 34.10862 
L 194.074716 26.552913 
L 195.089261 26.552913 
L 195.089261 25.522589 
L 196.103807 25.522589 
L 196.103807 38.573356 
L 197.118352 38.573356 
L 197.118352 38.229915 
L 198.132898 38.229915 
L 198.132898 44.755298 
L 199.147443 44.755298 
L 199.147443 45.442181 
L 200.161989 45.442181 
L 200.161989 41.664327 
L 201.176534 41.664327 
L 201.176534 44.411857 
L 202.19108 44.411857 
L 202.19108 62.614242 
L 203.205625 62.614242 
L 203.205625 48.18971 
L 204.22017 48.18971 
L 204.22017 47.159387 
L 205.234716 47.159387 
L 205.234716 43.381533 
L 206.249261 43.381533 
L 206.249261 41.320886 
L 207.263807 41.320886 
L 207.263807 51.280681 
L 208.278352 51.280681 
L 208.278352 62.614242 
L 209.292898 62.614242 
L 209.292898 55.058535 
L 211.321989 55.058535 
L 211.321989 60.897036 
L 212.336534 60.897036 
L 212.336534 51.624123 
L 213.35108 51.624123 
L 213.35108 54.715094 
L 214.365625 54.715094 
L 214.365625 68.796184 
L 215.38017 68.796184 
L 215.38017 71.543714 
L 216.394716 71.543714 
L 216.394716 67.76586 
L 217.409261 67.76586 
L 217.409261 67.078978 
L 218.423807 67.078978 
L 218.423807 70.856831 
L 219.438352 70.856831 
L 219.438352 66.048654 
L 220.452898 66.048654 
L 220.452898 69.483066 
L 221.467443 69.483066 
L 221.467443 74.978126 
L 222.481989 74.978126 
L 222.481989 67.76586 
L 223.496534 67.76586 
L 223.496534 67.422419 
L 224.51108 67.422419 
L 224.51108 65.705213 
L 225.525625 65.705213 
L 225.525625 68.109302 
L 226.54017 68.109302 
L 226.54017 62.957683 
L 227.554716 62.957683 
L 227.554716 70.169949 
L 228.569261 70.169949 
L 228.569261 60.897036 
L 229.583807 60.897036 
L 229.583807 76.695332 
L 230.598352 76.695332 
L 230.598352 68.452743 
L 231.612898 68.452743 
L 231.612898 73.604361 
L 232.627443 73.604361 
L 232.627443 82.533833 
L 233.641989 82.533833 
L 233.641989 69.139625 
L 234.656534 69.139625 
L 234.656534 77.038773 
L 235.67108 77.038773 
L 235.67108 58.492947 
L 236.685625 58.492947 
L 236.685625 81.503509 
L 237.70017 81.503509 
L 237.70017 74.978126 
L 238.714716 74.978126 
L 238.714716 64.331448 
L 239.729261 64.331448 
L 239.729261 80.473186 
L 240.743807 80.473186 
L 240.743807 78.412538 
L 241.758352 78.412538 
L 241.758352 72.574037 
L 242.772898 72.574037 
L 242.772898 84.59448 
L 243.787443 84.59448 
L 243.787443 74.291244 
L 244.801989 74.291244 
L 244.801989 72.917479 
L 245.816534 72.917479 
L 245.816534 85.281363 
L 246.83108 85.281363 
L 246.83108 90.776422 
L 247.845625 90.776422 
L 247.845625 89.059216 
L 248.86017 89.059216 
L 248.86017 92.493629 
L 249.874716 92.493629 
L 249.874716 104.17063 
L 250.889261 104.17063 
L 250.889261 84.59448 
L 251.903807 84.59448 
L 251.903807 105.887836 
L 252.918352 105.887836 
L 252.918352 110.009131 
L 253.932898 110.009131 
L 253.932898 127.181193 
L 254.947443 127.181193 
L 254.947443 118.251721 
L 255.961989 118.251721 
L 255.961989 126.150869 
L 256.976534 126.150869 
L 256.976534 120.655809 
L 257.99108 120.655809 
L 257.99108 125.463986 
L 259.005625 125.463986 
L 259.005625 137.827871 
L 260.02017 137.827871 
L 260.02017 134.393458 
L 261.034716 134.393458 
L 261.034716 153.626167 
L 262.049261 153.626167 
L 262.049261 148.131107 
L 263.063807 148.131107 
L 263.063807 154.999932 
L 264.078352 154.999932 
L 264.078352 149.161431 
L 265.092898 149.161431 
L 265.092898 159.464668 
L 266.107443 159.464668 
L 266.107443 169.424463 
L 267.121989 169.424463 
L 267.121989 172.515434 
L 268.136534 172.515434 
L 268.136534 172.858876 
L 269.15108 172.858876 
L 269.15108 179.040818 
L 270.165625 179.040818 
L 270.165625 186.939966 
L 271.18017 186.939966 
L 271.18017 189.000613 
L 272.194716 189.000613 
L 272.194716 194.839114 
L 273.209261 194.839114 
L 273.209261 199.647291 
L 274.223807 199.647291 
L 274.223807 203.081704 
L 275.238352 203.081704 
L 275.238352 204.79891 
L 276.252898 204.79891 
L 276.252898 209.950528 
L 277.267443 209.950528 
L 277.267443 212.354617 
L 278.281989 212.354617 
L 278.281989 215.102147 
L 279.296534 215.102147 
L 279.296534 215.789029 
L 281.325625 215.789029 
L 281.325625 217.849676 
L 282.34017 217.849676 
L 282.34017 218.88 
L 283.354716 218.88 
L 283.354716 218.536559 
L 284.369261 218.536559 
L 284.369261 218.88 
L 293.50017 218.88 
L 293.50017 215.445588 
L 294.514716 215.445588 
L 294.514716 207.202998 
L 295.529261 207.202998 
L 295.529261 205.485792 
L 296.543807 205.485792 
L 296.543807 196.55632 
L 297.558352 196.55632 
L 297.558352 197.930085 
L 298.572898 197.930085 
L 298.572898 197.586644 
L 299.587443 197.586644 
L 299.587443 185.22276 
L 301.616534 185.22276 
L 301.616534 185.909642 
L 302.63108 185.909642 
L 302.63108 176.636729 
L 303.645625 176.636729 
L 303.645625 166.333492 
L 304.66017 166.333492 
L 304.66017 165.64661 
L 305.674716 165.64661 
L 305.674716 166.333492 
L 306.689261 166.333492 
L 306.689261 158.777785 
L 307.703807 158.777785 
L 307.703807 163.585963 
L 308.718352 163.585963 
L 308.718352 154.313049 
L 309.732898 154.313049 
L 309.732898 142.636048 
L 310.747443 142.636048 
L 310.747443 148.81799 
L 311.761989 148.81799 
L 311.761989 149.504872 
L 312.776534 149.504872 
L 312.776534 145.383578 
L 313.79108 145.383578 
L 313.79108 150.878637 
L 314.805625 150.878637 
L 314.805625 131.302487 
L 315.82017 131.302487 
L 315.82017 128.211516 
L 316.834716 128.211516 
L 316.834716 126.49431 
L 317.849261 126.49431 
L 317.849261 126.837751 
L 318.863807 126.837751 
L 318.863807 125.120545 
L 319.878352 125.120545 
L 319.878352 119.968927 
L 320.892898 119.968927 
L 320.892898 122.029574 
L 321.907443 122.029574 
L 321.907443 120.312368 
L 322.921989 120.312368 
L 322.921989 106.91816 
L 323.936534 106.91816 
L 323.936534 113.786985 
L 324.95108 113.786985 
L 324.95108 108.291925 
L 325.965625 108.291925 
L 325.965625 111.726337 
L 326.98017 111.726337 
L 326.98017 109.66569 
L 327.994716 109.66569 
L 327.994716 108.635366 
L 329.009261 108.635366 
L 329.009261 110.696014 
L 330.023807 110.696014 
L 330.023807 101.423101 
L 331.038352 101.423101 
L 331.038352 97.645247 
L 332.052898 97.645247 
L 332.052898 84.59448 
L 333.067443 84.59448 
L 333.067443 85.624804 
L 334.081989 85.624804 
L 334.081989 94.554276 
L 335.096534 94.554276 
L 335.096534 86.998569 
L 336.11108 86.998569 
L 336.11108 88.372334 
L 337.125625 88.372334 
L 337.125625 92.493629 
L 338.14017 92.493629 
L 338.14017 89.746099 
L 339.154716 89.746099 
L 339.154716 90.776422 
L 340.169261 90.776422 
L 340.169261 93.867394 
L 341.183807 93.867394 
L 341.183807 98.675571 
L 342.198352 98.675571 
L 342.198352 99.019012 
L 343.212898 99.019012 
L 343.212898 107.948484 
L 344.227443 107.948484 
L 344.227443 100.049336 
L 345.241989 100.049336 
L 345.241989 106.574719 
L 346.256534 106.574719 
L 346.256534 104.17063 
L 347.27108 104.17063 
L 347.27108 98.675571 
L 348.285625 98.675571 
L 348.285625 118.251721 
L 349.30017 118.251721 
L 349.30017 105.200954 
L 350.314716 105.200954 
L 350.314716 112.41322 
L 351.329261 112.41322 
L 351.329261 114.473867 
L 352.343807 114.473867 
L 352.343807 111.726337 
L 353.358352 111.726337 
L 353.358352 117.908279 
L 354.372898 117.908279 
L 354.372898 119.968927 
L 355.387443 119.968927 
L 355.387443 110.352572 
L 356.401989 110.352572 
L 356.401989 119.282044 
L 357.416534 119.282044 
L 357.416534 126.49431 
L 358.43108 126.49431 
L 358.43108 116.191073 
L 359.445625 116.191073 
L 359.445625 128.211516 
L 360.46017 128.211516 
L 360.46017 129.928722 
L 361.474716 129.928722 
L 361.474716 124.777104 
L 362.489261 124.777104 
L 362.489261 120.99925 
L 363.503807 120.99925 
L 363.503807 114.817308 
L 364.518352 114.817308 
L 364.518352 119.968927 
L 365.532898 119.968927 
L 365.532898 129.24184 
L 366.547443 129.24184 
L 366.547443 129.24184 
" clip-path="url(#pd984e23171)" style="fill: none; stroke: #ff7f0e; stroke-width: 1.5; stroke-linecap: square"/>
   </g>
  </g>
 </g>
 <defs>
  <clipPath id="pd984e23171">
   <rect x="46.965625" y="7.2" width="334.8" height="221.76"/>
  </clipPath>
 </defs>
</svg>
