<?xml version="1.0" encoding="utf-8" standalone="no"?>
<!DOCTYPE svg PUBLIC "-//W3C//DTD SVG 1.1//EN"
  "http://www.w3.org/Graphics/SVG/1.1/DTD/svg11.dtd">
<svg xmlns:xlink="http://www.w3.org/1999/xlink" width="395.328125pt" height="268.200625pt" viewBox="0 0 395.328125 268.200625" xmlns="http://www.w3.org/2000/svg" version="1.1">
 <metadata>
  <rdf:RDF xmlns:dc="http://purl.org/dc/elements/1.1/" xmlns:cc="http://creativecommons.org/ns#" xmlns:rdf="http://www.w3.org/1999/02/22-rdf-syntax-ns#">
   <cc:Work>
    <dc:type rdf:resource="http://purl.org/dc/dcmitype/StillImage"/>
    <dc:date>2025-07-15T15:01:04.183268</dc:date>
    <dc:format>image/svg+xml</dc:format>
    <dc:creator>
     <cc:Agent>
      <dc:title>Matplotlib v3.10.3, https://matplotlib.org/</dc:title>
     </cc:Agent>
    </dc:creator>
   </cc:Work>
  </rdf:RDF>
 </metadata>
 <defs>
  <style type="text/css">*{stroke-linejoin: round; stroke-linecap: butt}</style>
 </defs>
 <g id="figure_1">
  <g id="patch_1">
   <path d="M 0 268.200625 
L 395.328125 268.200625 
L 395.328125 0 
L 0 0 
z
" style="fill: #ffffff"/>
  </g>
  <g id="axes_1">
   <g id="patch_2">
    <path d="M 53.328125 228.96 
L 388.128125 228.96 
L 388.128125 7.2 
L 53.328125 7.2 
z
" style="fill: #ffffff"/>
   </g>
   <g id="matplotlib.axis_1">
    <g id="xtick_1">
     <g id="line2d_1">
      <defs>
       <path id="m74e5744e93" d="M 0 0 
L 0 3.5 
" style="stroke: #000000; stroke-width: 0.8"/>
      </defs>
      <g>
       <use xlink:href="#m74e5744e93" x="68.546307" y="228.96" style="stroke: #000000; stroke-width: 0.8"/>
      </g>
     </g>
     <g id="text_1">
      <!-- 1 -->
      <g transform="translate(65.365057 243.558437) scale(0.1 -0.1)">
       <defs>
        <path id="DejaVuSans-31" d="M 794 531 
L 1825 531 
L 1825 4091 
L 703 3866 
L 703 4441 
L 1819 4666 
L 2450 4666 
L 2450 531 
L 3481 531 
L 3481 0 
L 794 0 
L 794 531 
z
" transform="scale(0.015625)"/>
       </defs>
       <use xlink:href="#DejaVuSans-31"/>
      </g>
     </g>
    </g>
    <g id="xtick_2">
     <g id="line2d_2">
      <g>
       <use xlink:href="#m74e5744e93" x="112.026826" y="228.96" style="stroke: #000000; stroke-width: 0.8"/>
      </g>
     </g>
     <g id="text_2">
      <!-- 2 -->
      <g transform="translate(108.845576 243.558437) scale(0.1 -0.1)">
       <defs>
        <path id="DejaVuSans-32" d="M 1228 531 
L 3431 531 
L 3431 0 
L 469 0 
L 469 531 
Q 828 903 1448 1529 
Q 2069 2156 2228 2338 
Q 2531 2678 2651 2914 
Q 2772 3150 2772 3378 
Q 2772 3750 2511 3984 
Q 2250 4219 1831 4219 
Q 1534 4219 1204 4116 
Q 875 4013 500 3803 
L 500 4441 
Q 881 4594 1212 4672 
Q 1544 4750 1819 4750 
Q 2544 4750 2975 4387 
Q 3406 4025 3406 3419 
Q 3406 3131 3298 2873 
Q 3191 2616 2906 2266 
Q 2828 2175 2409 1742 
Q 1991 1309 1228 531 
z
" transform="scale(0.015625)"/>
       </defs>
       <use xlink:href="#DejaVuSans-32"/>
      </g>
     </g>
    </g>
    <g id="xtick_3">
     <g id="line2d_3">
      <g>
       <use xlink:href="#m74e5744e93" x="155.507346" y="228.96" style="stroke: #000000; stroke-width: 0.8"/>
      </g>
     </g>
     <g id="text_3">
      <!-- 3 -->
      <g transform="translate(152.326096 243.558437) scale(0.1 -0.1)">
       <defs>
        <path id="DejaVuSans-33" d="M 2597 2516 
Q 3050 2419 3304 2112 
Q 3559 1806 3559 1356 
Q 3559 666 3084 287 
Q 2609 -91 1734 -91 
Q 1441 -91 1130 -33 
Q 819 25 488 141 
L 488 750 
Q 750 597 1062 519 
Q 1375 441 1716 441 
Q 2309 441 2620 675 
Q 2931 909 2931 1356 
Q 2931 1769 2642 2001 
Q 2353 2234 1838 2234 
L 1294 2234 
L 1294 2753 
L 1863 2753 
Q 2328 2753 2575 2939 
Q 2822 3125 2822 3475 
Q 2822 3834 2567 4026 
Q 2313 4219 1838 4219 
Q 1578 4219 1281 4162 
Q 984 4106 628 3988 
L 628 4550 
Q 988 4650 1302 4700 
Q 1616 4750 1894 4750 
Q 2613 4750 3031 4423 
Q 3450 4097 3450 3541 
Q 3450 3153 3228 2886 
Q 3006 2619 2597 2516 
z
" transform="scale(0.015625)"/>
       </defs>
       <use xlink:href="#DejaVuSans-33"/>
      </g>
     </g>
    </g>
    <g id="xtick_4">
     <g id="line2d_4">
      <g>
       <use xlink:href="#m74e5744e93" x="198.987865" y="228.96" style="stroke: #000000; stroke-width: 0.8"/>
      </g>
     </g>
     <g id="text_4">
      <!-- 4 -->
      <g transform="translate(195.806615 243.558437) scale(0.1 -0.1)">
       <defs>
        <path id="DejaVuSans-34" d="M 2419 4116 
L 825 1625 
L 2419 1625 
L 2419 4116 
z
M 2253 4666 
L 3047 4666 
L 3047 1625 
L 3713 1625 
L 3713 1100 
L 3047 1100 
L 3047 0 
L 2419 0 
L 2419 1100 
L 313 1100 
L 313 1709 
L 2253 4666 
z
" transform="scale(0.015625)"/>
       </defs>
       <use xlink:href="#DejaVuSans-34"/>
      </g>
     </g>
    </g>
    <g id="xtick_5">
     <g id="line2d_5">
      <g>
       <use xlink:href="#m74e5744e93" x="242.468385" y="228.96" style="stroke: #000000; stroke-width: 0.8"/>
      </g>
     </g>
     <g id="text_5">
      <!-- 5 -->
      <g transform="translate(239.287135 243.558437) scale(0.1 -0.1)">
       <defs>
        <path id="DejaVuSans-35" d="M 691 4666 
L 3169 4666 
L 3169 4134 
L 1269 4134 
L 1269 2991 
Q 1406 3038 1543 3061 
Q 1681 3084 1819 3084 
Q 2600 3084 3056 2656 
Q 3513 2228 3513 1497 
Q 3513 744 3044 326 
Q 2575 -91 1722 -91 
Q 1428 -91 1123 -41 
Q 819 9 494 109 
L 494 744 
Q 775 591 1075 516 
Q 1375 441 1709 441 
Q 2250 441 2565 725 
Q 2881 1009 2881 1497 
Q 2881 1984 2565 2268 
Q 2250 2553 1709 2553 
Q 1456 2553 1204 2497 
Q 953 2441 691 2322 
L 691 4666 
z
" transform="scale(0.015625)"/>
       </defs>
       <use xlink:href="#DejaVuSans-35"/>
      </g>
     </g>
    </g>
    <g id="xtick_6">
     <g id="line2d_6">
      <g>
       <use xlink:href="#m74e5744e93" x="285.948904" y="228.96" style="stroke: #000000; stroke-width: 0.8"/>
      </g>
     </g>
     <g id="text_6">
      <!-- 6 -->
      <g transform="translate(282.767654 243.558437) scale(0.1 -0.1)">
       <defs>
        <path id="DejaVuSans-36" d="M 2113 2584 
Q 1688 2584 1439 2293 
Q 1191 2003 1191 1497 
Q 1191 994 1439 701 
Q 1688 409 2113 409 
Q 2538 409 2786 701 
Q 3034 994 3034 1497 
Q 3034 2003 2786 2293 
Q 2538 2584 2113 2584 
z
M 3366 4563 
L 3366 3988 
Q 3128 4100 2886 4159 
Q 2644 4219 2406 4219 
Q 1781 4219 1451 3797 
Q 1122 3375 1075 2522 
Q 1259 2794 1537 2939 
Q 1816 3084 2150 3084 
Q 2853 3084 3261 2657 
Q 3669 2231 3669 1497 
Q 3669 778 3244 343 
Q 2819 -91 2113 -91 
Q 1303 -91 875 529 
Q 447 1150 447 2328 
Q 447 3434 972 4092 
Q 1497 4750 2381 4750 
Q 2619 4750 2861 4703 
Q 3103 4656 3366 4563 
z
" transform="scale(0.015625)"/>
       </defs>
       <use xlink:href="#DejaVuSans-36"/>
      </g>
     </g>
    </g>
    <g id="xtick_7">
     <g id="line2d_7">
      <g>
       <use xlink:href="#m74e5744e93" x="329.429424" y="228.96" style="stroke: #000000; stroke-width: 0.8"/>
      </g>
     </g>
     <g id="text_7">
      <!-- 7 -->
      <g transform="translate(326.248174 243.558437) scale(0.1 -0.1)">
       <defs>
        <path id="DejaVuSans-37" d="M 525 4666 
L 3525 4666 
L 3525 4397 
L 1831 0 
L 1172 0 
L 2766 4134 
L 525 4134 
L 525 4666 
z
" transform="scale(0.015625)"/>
       </defs>
       <use xlink:href="#DejaVuSans-37"/>
      </g>
     </g>
    </g>
    <g id="xtick_8">
     <g id="line2d_8">
      <g>
       <use xlink:href="#m74e5744e93" x="372.909943" y="228.96" style="stroke: #000000; stroke-width: 0.8"/>
      </g>
     </g>
     <g id="text_8">
      <!-- 8 -->
      <g transform="translate(369.728693 243.558437) scale(0.1 -0.1)">
       <defs>
        <path id="DejaVuSans-38" d="M 2034 2216 
Q 1584 2216 1326 1975 
Q 1069 1734 1069 1313 
Q 1069 891 1326 650 
Q 1584 409 2034 409 
Q 2484 409 2743 651 
Q 3003 894 3003 1313 
Q 3003 1734 2745 1975 
Q 2488 2216 2034 2216 
z
M 1403 2484 
Q 997 2584 770 2862 
Q 544 3141 544 3541 
Q 544 4100 942 4425 
Q 1341 4750 2034 4750 
Q 2731 4750 3128 4425 
Q 3525 4100 3525 3541 
Q 3525 3141 3298 2862 
Q 3072 2584 2669 2484 
Q 3125 2378 3379 2068 
Q 3634 1759 3634 1313 
Q 3634 634 3220 271 
Q 2806 -91 2034 -91 
Q 1263 -91 848 271 
Q 434 634 434 1313 
Q 434 1759 690 2068 
Q 947 2378 1403 2484 
z
M 1172 3481 
Q 1172 3119 1398 2916 
Q 1625 2713 2034 2713 
Q 2441 2713 2670 2916 
Q 2900 3119 2900 3481 
Q 2900 3844 2670 4047 
Q 2441 4250 2034 4250 
Q 1625 4250 1398 4047 
Q 1172 3844 1172 3481 
z
" transform="scale(0.015625)"/>
       </defs>
       <use xlink:href="#DejaVuSans-38"/>
      </g>
     </g>
    </g>
    <g id="text_9">
     <!-- wavelength [Å] -->
     <g transform="translate(182.690625 258.920937) scale(0.1 -0.1)">
      <defs>
       <path id="DejaVuSans-77" d="M 269 3500 
L 844 3500 
L 1563 769 
L 2278 3500 
L 2956 3500 
L 3675 769 
L 4391 3500 
L 4966 3500 
L 4050 0 
L 3372 0 
L 2619 2869 
L 1863 0 
L 1184 0 
L 269 3500 
z
" transform="scale(0.015625)"/>
       <path id="DejaVuSans-61" d="M 2194 1759 
Q 1497 1759 1228 1600 
Q 959 1441 959 1056 
Q 959 750 1161 570 
Q 1363 391 1709 391 
Q 2188 391 2477 730 
Q 2766 1069 2766 1631 
L 2766 1759 
L 2194 1759 
z
M 3341 1997 
L 3341 0 
L 2766 0 
L 2766 531 
Q 2569 213 2275 61 
Q 1981 -91 1556 -91 
Q 1019 -91 701 211 
Q 384 513 384 1019 
Q 384 1609 779 1909 
Q 1175 2209 1959 2209 
L 2766 2209 
L 2766 2266 
Q 2766 2663 2505 2880 
Q 2244 3097 1772 3097 
Q 1472 3097 1187 3025 
Q 903 2953 641 2809 
L 641 3341 
Q 956 3463 1253 3523 
Q 1550 3584 1831 3584 
Q 2591 3584 2966 3190 
Q 3341 2797 3341 1997 
z
" transform="scale(0.015625)"/>
       <path id="DejaVuSans-76" d="M 191 3500 
L 800 3500 
L 1894 563 
L 2988 3500 
L 3597 3500 
L 2284 0 
L 1503 0 
L 191 3500 
z
" transform="scale(0.015625)"/>
       <path id="DejaVuSans-65" d="M 3597 1894 
L 3597 1613 
L 953 1613 
Q 991 1019 1311 708 
Q 1631 397 2203 397 
Q 2534 397 2845 478 
Q 3156 559 3463 722 
L 3463 178 
Q 3153 47 2828 -22 
Q 2503 -91 2169 -91 
Q 1331 -91 842 396 
Q 353 884 353 1716 
Q 353 2575 817 3079 
Q 1281 3584 2069 3584 
Q 2775 3584 3186 3129 
Q 3597 2675 3597 1894 
z
M 3022 2063 
Q 3016 2534 2758 2815 
Q 2500 3097 2075 3097 
Q 1594 3097 1305 2825 
Q 1016 2553 972 2059 
L 3022 2063 
z
" transform="scale(0.015625)"/>
       <path id="DejaVuSans-6c" d="M 603 4863 
L 1178 4863 
L 1178 0 
L 603 0 
L 603 4863 
z
" transform="scale(0.015625)"/>
       <path id="DejaVuSans-6e" d="M 3513 2113 
L 3513 0 
L 2938 0 
L 2938 2094 
Q 2938 2591 2744 2837 
Q 2550 3084 2163 3084 
Q 1697 3084 1428 2787 
Q 1159 2491 1159 1978 
L 1159 0 
L 581 0 
L 581 3500 
L 1159 3500 
L 1159 2956 
Q 1366 3272 1645 3428 
Q 1925 3584 2291 3584 
Q 2894 3584 3203 3211 
Q 3513 2838 3513 2113 
z
" transform="scale(0.015625)"/>
       <path id="DejaVuSans-67" d="M 2906 1791 
Q 2906 2416 2648 2759 
Q 2391 3103 1925 3103 
Q 1463 3103 1205 2759 
Q 947 2416 947 1791 
Q 947 1169 1205 825 
Q 1463 481 1925 481 
Q 2391 481 2648 825 
Q 2906 1169 2906 1791 
z
M 3481 434 
Q 3481 -459 3084 -895 
Q 2688 -1331 1869 -1331 
Q 1566 -1331 1297 -1286 
Q 1028 -1241 775 -1147 
L 775 -588 
Q 1028 -725 1275 -790 
Q 1522 -856 1778 -856 
Q 2344 -856 2625 -561 
Q 2906 -266 2906 331 
L 2906 616 
Q 2728 306 2450 153 
Q 2172 0 1784 0 
Q 1141 0 747 490 
Q 353 981 353 1791 
Q 353 2603 747 3093 
Q 1141 3584 1784 3584 
Q 2172 3584 2450 3431 
Q 2728 3278 2906 2969 
L 2906 3500 
L 3481 3500 
L 3481 434 
z
" transform="scale(0.015625)"/>
       <path id="DejaVuSans-74" d="M 1172 4494 
L 1172 3500 
L 2356 3500 
L 2356 3053 
L 1172 3053 
L 1172 1153 
Q 1172 725 1289 603 
Q 1406 481 1766 481 
L 2356 481 
L 2356 0 
L 1766 0 
Q 1100 0 847 248 
Q 594 497 594 1153 
L 594 3053 
L 172 3053 
L 172 3500 
L 594 3500 
L 594 4494 
L 1172 4494 
z
" transform="scale(0.015625)"/>
       <path id="DejaVuSans-68" d="M 3513 2113 
L 3513 0 
L 2938 0 
L 2938 2094 
Q 2938 2591 2744 2837 
Q 2550 3084 2163 3084 
Q 1697 3084 1428 2787 
Q 1159 2491 1159 1978 
L 1159 0 
L 581 0 
L 581 4863 
L 1159 4863 
L 1159 2956 
Q 1366 3272 1645 3428 
Q 1925 3584 2291 3584 
Q 2894 3584 3203 3211 
Q 3513 2838 3513 2113 
z
" transform="scale(0.015625)"/>
       <path id="DejaVuSans-20" transform="scale(0.015625)"/>
       <path id="DejaVuSans-5b" d="M 550 4863 
L 1875 4863 
L 1875 4416 
L 1125 4416 
L 1125 -397 
L 1875 -397 
L 1875 -844 
L 550 -844 
L 550 4863 
z
" transform="scale(0.015625)"/>
       <path id="DejaVuSans-c5" d="M 2663 5081 
Q 2663 5278 2523 5417 
Q 2384 5556 2188 5556 
Q 1988 5556 1852 5420 
Q 1716 5284 1716 5081 
Q 1716 4884 1853 4746 
Q 1991 4609 2188 4609 
Q 2384 4609 2523 4746 
Q 2663 4884 2663 5081 
z
M 2188 4044 
L 1338 1722 
L 3041 1722 
L 2188 4044 
z
M 1716 4366 
Q 1525 4494 1428 4673 
Q 1331 4853 1331 5081 
Q 1331 5441 1579 5691 
Q 1828 5941 2188 5941 
Q 2544 5941 2795 5689 
Q 3047 5438 3047 5081 
Q 3047 4863 2948 4678 
Q 2850 4494 2663 4366 
L 4325 0 
L 3669 0 
L 3244 1197 
L 1141 1197 
L 716 0 
L 50 0 
L 1716 4366 
z
" transform="scale(0.015625)"/>
       <path id="DejaVuSans-5d" d="M 1947 4863 
L 1947 -844 
L 622 -844 
L 622 -397 
L 1369 -397 
L 1369 4416 
L 622 4416 
L 622 4863 
L 1947 4863 
z
" transform="scale(0.015625)"/>
      </defs>
      <use xlink:href="#DejaVuSans-77"/>
      <use xlink:href="#DejaVuSans-61" transform="translate(81.787109 0)"/>
      <use xlink:href="#DejaVuSans-76" transform="translate(143.066406 0)"/>
      <use xlink:href="#DejaVuSans-65" transform="translate(202.246094 0)"/>
      <use xlink:href="#DejaVuSans-6c" transform="translate(263.769531 0)"/>
      <use xlink:href="#DejaVuSans-65" transform="translate(291.552734 0)"/>
      <use xlink:href="#DejaVuSans-6e" transform="translate(353.076172 0)"/>
      <use xlink:href="#DejaVuSans-67" transform="translate(416.455078 0)"/>
      <use xlink:href="#DejaVuSans-74" transform="translate(479.931641 0)"/>
      <use xlink:href="#DejaVuSans-68" transform="translate(519.140625 0)"/>
      <use xlink:href="#DejaVuSans-20" transform="translate(582.519531 0)"/>
      <use xlink:href="#DejaVuSans-5b" transform="translate(614.306641 0)"/>
      <use xlink:href="#DejaVuSans-c5" transform="translate(653.320312 0)"/>
      <use xlink:href="#DejaVuSans-5d" transform="translate(721.728516 0)"/>
     </g>
    </g>
   </g>
   <g id="matplotlib.axis_2">
    <g id="ytick_1">
     <g id="line2d_9">
      <defs>
       <path id="m191fcedee6" d="M 0 0 
L -3.5 0 
" style="stroke: #000000; stroke-width: 0.8"/>
      </defs>
      <g>
       <use xlink:href="#m191fcedee6" x="53.328125" y="218.88" style="stroke: #000000; stroke-width: 0.8"/>
      </g>
     </g>
     <g id="text_10">
      <!-- 0 -->
      <g transform="translate(39.965625 222.679219) scale(0.1 -0.1)">
       <defs>
        <path id="DejaVuSans-30" d="M 2034 4250 
Q 1547 4250 1301 3770 
Q 1056 3291 1056 2328 
Q 1056 1369 1301 889 
Q 1547 409 2034 409 
Q 2525 409 2770 889 
Q 3016 1369 3016 2328 
Q 3016 3291 2770 3770 
Q 2525 4250 2034 4250 
z
M 2034 4750 
Q 2819 4750 3233 4129 
Q 3647 3509 3647 2328 
Q 3647 1150 3233 529 
Q 2819 -91 2034 -91 
Q 1250 -91 836 529 
Q 422 1150 422 2328 
Q 422 3509 836 4129 
Q 1250 4750 2034 4750 
z
" transform="scale(0.015625)"/>
       </defs>
       <use xlink:href="#DejaVuSans-30"/>
      </g>
     </g>
    </g>
    <g id="ytick_2">
     <g id="line2d_10">
      <g>
       <use xlink:href="#m191fcedee6" x="53.328125" y="188.449811" style="stroke: #000000; stroke-width: 0.8"/>
      </g>
     </g>
     <g id="text_11">
      <!-- 1000 -->
      <g transform="translate(20.878125 192.24903) scale(0.1 -0.1)">
       <use xlink:href="#DejaVuSans-31"/>
       <use xlink:href="#DejaVuSans-30" transform="translate(63.623047 0)"/>
       <use xlink:href="#DejaVuSans-30" transform="translate(127.246094 0)"/>
       <use xlink:href="#DejaVuSans-30" transform="translate(190.869141 0)"/>
      </g>
     </g>
    </g>
    <g id="ytick_3">
     <g id="line2d_11">
      <g>
       <use xlink:href="#m191fcedee6" x="53.328125" y="158.019623" style="stroke: #000000; stroke-width: 0.8"/>
      </g>
     </g>
     <g id="text_12">
      <!-- 2000 -->
      <g transform="translate(20.878125 161.818841) scale(0.1 -0.1)">
       <use xlink:href="#DejaVuSans-32"/>
       <use xlink:href="#DejaVuSans-30" transform="translate(63.623047 0)"/>
       <use xlink:href="#DejaVuSans-30" transform="translate(127.246094 0)"/>
       <use xlink:href="#DejaVuSans-30" transform="translate(190.869141 0)"/>
      </g>
     </g>
    </g>
    <g id="ytick_4">
     <g id="line2d_12">
      <g>
       <use xlink:href="#m191fcedee6" x="53.328125" y="127.589434" style="stroke: #000000; stroke-width: 0.8"/>
      </g>
     </g>
     <g id="text_13">
      <!-- 3000 -->
      <g transform="translate(20.878125 131.388653) scale(0.1 -0.1)">
       <use xlink:href="#DejaVuSans-33"/>
       <use xlink:href="#DejaVuSans-30" transform="translate(63.623047 0)"/>
       <use xlink:href="#DejaVuSans-30" transform="translate(127.246094 0)"/>
       <use xlink:href="#DejaVuSans-30" transform="translate(190.869141 0)"/>
      </g>
     </g>
    </g>
    <g id="ytick_5">
     <g id="line2d_13">
      <g>
       <use xlink:href="#m191fcedee6" x="53.328125" y="97.159245" style="stroke: #000000; stroke-width: 0.8"/>
      </g>
     </g>
     <g id="text_14">
      <!-- 4000 -->
      <g transform="translate(20.878125 100.958464) scale(0.1 -0.1)">
       <use xlink:href="#DejaVuSans-34"/>
       <use xlink:href="#DejaVuSans-30" transform="translate(63.623047 0)"/>
       <use xlink:href="#DejaVuSans-30" transform="translate(127.246094 0)"/>
       <use xlink:href="#DejaVuSans-30" transform="translate(190.869141 0)"/>
      </g>
     </g>
    </g>
    <g id="ytick_6">
     <g id="line2d_14">
      <g>
       <use xlink:href="#m191fcedee6" x="53.328125" y="66.729057" style="stroke: #000000; stroke-width: 0.8"/>
      </g>
     </g>
     <g id="text_15">
      <!-- 5000 -->
      <g transform="translate(20.878125 70.528275) scale(0.1 -0.1)">
       <use xlink:href="#DejaVuSans-35"/>
       <use xlink:href="#DejaVuSans-30" transform="translate(63.623047 0)"/>
       <use xlink:href="#DejaVuSans-30" transform="translate(127.246094 0)"/>
       <use xlink:href="#DejaVuSans-30" transform="translate(190.869141 0)"/>
      </g>
     </g>
    </g>
    <g id="ytick_7">
     <g id="line2d_15">
      <g>
       <use xlink:href="#m191fcedee6" x="53.328125" y="36.298868" style="stroke: #000000; stroke-width: 0.8"/>
      </g>
     </g>
     <g id="text_16">
      <!-- 6000 -->
      <g transform="translate(20.878125 40.098087) scale(0.1 -0.1)">
       <use xlink:href="#DejaVuSans-36"/>
       <use xlink:href="#DejaVuSans-30" transform="translate(63.623047 0)"/>
       <use xlink:href="#DejaVuSans-30" transform="translate(127.246094 0)"/>
       <use xlink:href="#DejaVuSans-30" transform="translate(190.869141 0)"/>
      </g>
     </g>
    </g>
    <g id="text_17">
     <!-- [counts] -->
     <g transform="translate(14.798438 138.6925) rotate(-90) scale(0.1 -0.1)">
      <defs>
       <path id="DejaVuSans-63" d="M 3122 3366 
L 3122 2828 
Q 2878 2963 2633 3030 
Q 2388 3097 2138 3097 
Q 1578 3097 1268 2742 
Q 959 2388 959 1747 
Q 959 1106 1268 751 
Q 1578 397 2138 397 
Q 2388 397 2633 464 
Q 2878 531 3122 666 
L 3122 134 
Q 2881 22 2623 -34 
Q 2366 -91 2075 -91 
Q 1284 -91 818 406 
Q 353 903 353 1747 
Q 353 2603 823 3093 
Q 1294 3584 2113 3584 
Q 2378 3584 2631 3529 
Q 2884 3475 3122 3366 
z
" transform="scale(0.015625)"/>
       <path id="DejaVuSans-6f" d="M 1959 3097 
Q 1497 3097 1228 2736 
Q 959 2375 959 1747 
Q 959 1119 1226 758 
Q 1494 397 1959 397 
Q 2419 397 2687 759 
Q 2956 1122 2956 1747 
Q 2956 2369 2687 2733 
Q 2419 3097 1959 3097 
z
M 1959 3584 
Q 2709 3584 3137 3096 
Q 3566 2609 3566 1747 
Q 3566 888 3137 398 
Q 2709 -91 1959 -91 
Q 1206 -91 779 398 
Q 353 888 353 1747 
Q 353 2609 779 3096 
Q 1206 3584 1959 3584 
z
" transform="scale(0.015625)"/>
       <path id="DejaVuSans-75" d="M 544 1381 
L 544 3500 
L 1119 3500 
L 1119 1403 
Q 1119 906 1312 657 
Q 1506 409 1894 409 
Q 2359 409 2629 706 
Q 2900 1003 2900 1516 
L 2900 3500 
L 3475 3500 
L 3475 0 
L 2900 0 
L 2900 538 
Q 2691 219 2414 64 
Q 2138 -91 1772 -91 
Q 1169 -91 856 284 
Q 544 659 544 1381 
z
M 1991 3584 
L 1991 3584 
z
" transform="scale(0.015625)"/>
       <path id="DejaVuSans-73" d="M 2834 3397 
L 2834 2853 
Q 2591 2978 2328 3040 
Q 2066 3103 1784 3103 
Q 1356 3103 1142 2972 
Q 928 2841 928 2578 
Q 928 2378 1081 2264 
Q 1234 2150 1697 2047 
L 1894 2003 
Q 2506 1872 2764 1633 
Q 3022 1394 3022 966 
Q 3022 478 2636 193 
Q 2250 -91 1575 -91 
Q 1294 -91 989 -36 
Q 684 19 347 128 
L 347 722 
Q 666 556 975 473 
Q 1284 391 1588 391 
Q 1994 391 2212 530 
Q 2431 669 2431 922 
Q 2431 1156 2273 1281 
Q 2116 1406 1581 1522 
L 1381 1569 
Q 847 1681 609 1914 
Q 372 2147 372 2553 
Q 372 3047 722 3315 
Q 1072 3584 1716 3584 
Q 2034 3584 2315 3537 
Q 2597 3491 2834 3397 
z
" transform="scale(0.015625)"/>
      </defs>
      <use xlink:href="#DejaVuSans-5b"/>
      <use xlink:href="#DejaVuSans-63" transform="translate(39.013672 0)"/>
      <use xlink:href="#DejaVuSans-6f" transform="translate(93.994141 0)"/>
      <use xlink:href="#DejaVuSans-75" transform="translate(155.175781 0)"/>
      <use xlink:href="#DejaVuSans-6e" transform="translate(218.554688 0)"/>
      <use xlink:href="#DejaVuSans-74" transform="translate(281.933594 0)"/>
      <use xlink:href="#DejaVuSans-73" transform="translate(321.142578 0)"/>
      <use xlink:href="#DejaVuSans-5d" transform="translate(373.242188 0)"/>
     </g>
    </g>
   </g>
   <g id="line2d_16">
    <path d="M 68.546307 218.88 
L 74.63358 218.88 
L 74.63358 218.727849 
L 77.677216 218.727849 
L 77.677216 218.545268 
L 78.438125 218.545268 
L 78.438125 218.788709 
L 79.199034 218.788709 
L 79.199034 218.666989 
L 79.959943 218.666989 
L 79.959943 218.545268 
L 80.720852 218.545268 
L 80.720852 218.697419 
L 81.481761 218.697419 
L 81.481761 218.514838 
L 82.24267 218.514838 
L 82.24267 218.332257 
L 83.00358 218.332257 
L 83.00358 218.697419 
L 84.525398 218.636558 
L 84.525398 218.362687 
L 86.047216 218.271396 
L 86.047216 218.545268 
L 86.808125 218.545268 
L 86.808125 218.180106 
L 87.569034 218.180106 
L 87.569034 217.784513 
L 88.329943 217.784513 
L 88.329943 218.514838 
L 89.090852 218.514838 
L 89.090852 217.845374 
L 89.851761 217.845374 
L 89.851761 217.571502 
L 90.61267 217.571502 
L 90.61267 217.845374 
L 91.37358 217.845374 
L 91.37358 217.967094 
L 92.134489 217.967094 
L 92.134489 217.662792 
L 93.656307 217.754083 
L 93.656307 217.449781 
L 94.417216 217.449781 
L 94.417216 217.023758 
L 95.939034 216.962898 
L 95.939034 216.658596 
L 97.460852 216.658596 
L 97.460852 215.836981 
L 98.221761 215.836981 
L 98.221761 216.263004 
L 98.98267 216.263004 
L 98.98267 215.897842 
L 99.74358 215.897842 
L 99.74358 214.680634 
L 100.504489 214.680634 
L 100.504489 213.767728 
L 101.265398 213.767728 
L 101.265398 215.258808 
L 102.026307 215.258808 
L 102.026307 213.037404 
L 102.787216 213.037404 
L 102.787216 213.737298 
L 103.548125 213.737298 
L 103.548125 212.793962 
L 104.309034 212.793962 
L 104.309034 211.455034 
L 105.069943 211.455034 
L 105.069943 210.481268 
L 105.830852 210.481268 
L 105.830852 209.842234 
L 106.591761 209.842234 
L 106.591761 208.777177 
L 107.35267 208.777177 
L 107.35267 207.316528 
L 108.11358 207.316528 
L 108.11358 205.94717 
L 108.874489 205.94717 
L 108.874489 204.516951 
L 109.635398 204.516951 
L 109.635398 201.960815 
L 110.396307 201.960815 
L 110.396307 200.987049 
L 111.157216 200.987049 
L 111.157216 200.591457 
L 111.918125 200.591457 
L 111.918125 195.357464 
L 112.679034 195.357464 
L 112.679034 192.405736 
L 113.439943 192.405736 
L 113.439943 191.827562 
L 114.200852 191.827562 
L 114.200852 188.906264 
L 114.961761 188.906264 
L 114.961761 185.07206 
L 115.72267 185.07206 
L 115.72267 179.290325 
L 116.48358 179.290325 
L 116.48358 174.086762 
L 117.244489 174.086762 
L 117.244489 171.743638 
L 118.005398 171.743638 
L 118.005398 172.717404 
L 118.766307 172.717404 
L 118.766307 169.522234 
L 119.527216 169.522234 
L 119.527216 160.362747 
L 120.288125 160.362747 
L 120.288125 161.488664 
L 121.049034 161.488664 
L 121.049034 156.285102 
L 121.809943 156.285102 
L 121.809943 145.573675 
L 122.570852 145.573675 
L 122.570852 144.782491 
L 123.331761 144.782491 
L 123.331761 144.569479 
L 124.09267 144.569479 
L 124.09267 138.453011 
L 124.85358 138.453011 
L 124.85358 131.697509 
L 125.614489 131.697509 
L 125.614489 127.741585 
L 126.375398 127.741585 
L 126.375398 123.177057 
L 127.136307 123.177057 
L 127.136307 117.851774 
L 127.897216 117.851774 
L 127.897216 118.673389 
L 128.658125 118.673389 
L 128.658125 104.219049 
L 129.419034 104.219049 
L 129.419034 104.888513 
L 130.179943 104.888513 
L 130.179943 97.98086 
L 130.940852 97.98086 
L 130.940852 96.824513 
L 131.701761 96.824513 
L 131.701761 78.444679 
L 132.46267 78.444679 
L 132.46267 81.457268 
L 133.22358 81.457268 
L 133.22358 77.349192 
L 133.984489 77.349192 
L 133.984489 72.571653 
L 134.745398 72.571653 
L 134.745398 60.064845 
L 135.506307 60.064845 
L 135.506307 59.851834 
L 136.267216 59.851834 
L 136.267216 56.169781 
L 137.028125 56.169781 
L 137.028125 48.501374 
L 137.789034 48.501374 
L 137.789034 53.370204 
L 138.549943 53.370204 
L 138.549943 43.328242 
L 139.310852 43.328242 
L 139.310852 59.364951 
L 140.071761 59.364951 
L 140.071761 44.6976 
L 140.83267 44.6976 
L 140.83267 45.397494 
L 141.59358 45.397494 
L 141.59358 49.414279 
L 142.354489 49.414279 
L 142.354489 44.362868 
L 143.115398 44.362868 
L 143.115398 31.76477 
L 143.876307 31.76477 
L 143.876307 41.593721 
L 144.637216 41.593721 
L 144.637216 22.879155 
L 145.398125 22.879155 
L 145.398125 37.150913 
L 146.159034 37.150913 
L 146.159034 36.085857 
L 146.919943 36.085857 
L 146.919943 17.493011 
L 147.680852 17.493011 
L 147.680852 25.31357 
L 148.441761 25.31357 
L 148.441761 38.489842 
L 149.20267 38.489842 
L 149.20267 39.128875 
L 149.96358 39.128875 
L 149.96358 23.244317 
L 150.724489 23.244317 
L 150.724489 34.473057 
L 151.485398 34.473057 
L 151.485398 38.915864 
L 152.246307 38.915864 
L 152.246307 23.213887 
L 153.007216 23.213887 
L 153.007216 20.140438 
L 153.768125 20.140438 
L 153.768125 31.064875 
L 154.529034 31.064875 
L 154.529034 34.107894 
L 155.289943 34.107894 
L 155.289943 20.44474 
L 156.050852 20.44474 
L 156.050852 31.977781 
L 156.811761 31.977781 
L 156.811761 18.771079 
L 157.57267 18.771079 
L 157.57267 19.866566 
L 158.33358 19.866566 
L 158.33358 29.999819 
L 159.094489 29.999819 
L 159.094489 24.978838 
L 159.855398 24.978838 
L 159.855398 31.369177 
L 160.616307 31.369177 
L 160.616307 49.688151 
L 161.377216 49.688151 
L 161.377216 22.331411 
L 162.138125 22.331411 
L 162.138125 24.339804 
L 162.899034 24.339804 
L 162.899034 17.858174 
L 163.659943 17.858174 
L 163.659943 45.549645 
L 164.420852 45.549645 
L 164.420852 20.383879 
L 165.181761 20.383879 
L 165.181761 26.196045 
L 165.94267 26.196045 
L 165.94267 44.575879 
L 166.70358 44.575879 
L 166.70358 21.327215 
L 167.464489 21.327215 
L 167.464489 42.080604 
L 168.225398 42.080604 
L 168.225398 28.843472 
L 168.986307 28.843472 
L 168.986307 38.763713 
L 169.747216 38.763713 
L 169.747216 38.063819 
L 170.508125 38.063819 
L 170.508125 44.910611 
L 171.269034 44.910611 
L 171.269034 42.354475 
L 172.029943 42.354475 
L 172.029943 37.455215 
L 172.790852 37.455215 
L 172.790852 44.484589 
L 173.551761 44.484589 
L 173.551761 37.668226 
L 174.31267 37.668226 
L 174.31267 48.379653 
L 175.07358 48.379653 
L 175.07358 58.391185 
L 175.834489 58.391185 
L 175.834489 49.049117 
L 176.595398 49.049117 
L 176.595398 68.554868 
L 177.356307 68.554868 
L 177.356307 45.306204 
L 178.117216 45.306204 
L 178.117216 60.186566 
L 178.878125 60.186566 
L 178.878125 62.40797 
L 179.639034 62.40797 
L 179.639034 69.802506 
L 180.399943 69.802506 
L 180.399943 64.994536 
L 181.160852 64.994536 
L 181.160852 65.877011 
L 181.921761 65.877011 
L 181.921761 79.631457 
L 182.68267 79.631457 
L 182.68267 75.066928 
L 183.44358 75.066928 
L 183.44358 87.847608 
L 184.204489 87.847608 
L 184.204489 68.250566 
L 184.965398 68.250566 
L 184.965398 69.832936 
L 185.726307 69.832936 
L 185.726307 86.478249 
L 186.487216 86.478249 
L 186.487216 84.530717 
L 187.248125 84.530717 
L 187.248125 85.261042 
L 188.009034 85.261042 
L 188.009034 94.055366 
L 188.769943 94.055366 
L 188.769943 75.219079 
L 189.530852 75.219079 
L 189.530852 95.942038 
L 190.291761 95.942038 
L 190.291761 92.594717 
L 191.05267 92.594717 
L 191.05267 85.565343 
L 191.81358 85.565343 
L 191.81358 108.053253 
L 192.574489 108.053253 
L 192.574489 88.943094 
L 193.335398 88.943094 
L 193.335398 106.957766 
L 194.096307 106.957766 
L 194.096307 93.385902 
L 194.857216 93.385902 
L 194.857216 100.628287 
L 195.618125 100.628287 
L 195.618125 106.440453 
L 196.379034 106.440453 
L 196.379034 99.015487 
L 197.139943 99.015487 
L 197.139943 108.083683 
L 197.900852 108.083683 
L 197.900852 107.231638 
L 198.661761 107.231638 
L 198.661761 107.109917 
L 199.42267 107.109917 
L 199.42267 115.569509 
L 200.18358 115.569509 
L 200.18358 106.04486 
L 200.944489 106.04486 
L 200.944489 122.903185 
L 201.705398 122.903185 
L 201.705398 110.518098 
L 202.466307 110.518098 
L 202.466307 124.546415 
L 203.227216 124.546415 
L 203.227216 113.348106 
L 203.988125 113.348106 
L 203.988125 122.446732 
L 204.749034 122.446732 
L 204.749034 112.922083 
L 205.509943 112.922083 
L 205.509943 129.232664 
L 206.270852 129.232664 
L 206.270852 118.095215 
L 207.031761 118.095215 
L 207.031761 130.20643 
L 207.79267 130.20643 
L 207.79267 122.598883 
L 208.55358 122.598883 
L 208.55358 128.289328 
L 209.314489 128.289328 
L 209.314489 119.555864 
L 210.075398 119.555864 
L 210.075398 133.766762 
L 210.836307 133.766762 
L 210.836307 128.715351 
L 211.597216 128.715351 
L 211.597216 131.545358 
L 212.358125 131.545358 
L 212.358125 129.476106 
L 213.119034 129.476106 
L 213.119034 131.484498 
L 213.879943 131.484498 
L 213.879943 134.710098 
L 214.640852 134.710098 
L 214.640852 134.223215 
L 215.401761 134.223215 
L 215.401761 128.471909 
L 216.16267 128.471909 
L 216.16267 141.739472 
L 216.92358 141.739472 
L 216.92358 135.288272 
L 217.684489 135.288272 
L 217.684489 145.269374 
L 218.445398 145.269374 
L 218.445398 137.357525 
L 219.206307 137.357525 
L 219.206307 131.7888 
L 219.967216 131.7888 
L 219.967216 144.934642 
L 220.728125 144.934642 
L 220.728125 137.631396 
L 221.489034 137.631396 
L 221.489034 146.212709 
L 222.249943 146.212709 
L 222.249943 140.917857 
L 223.010852 140.917857 
L 223.010852 145.634536 
L 223.771761 145.634536 
L 223.771761 144.478189 
L 224.53267 144.478189 
L 224.53267 143.200121 
L 225.29358 143.200121 
L 225.29358 157.56317 
L 226.054489 157.56317 
L 226.054489 141.43517 
L 226.815398 141.43517 
L 226.815398 154.39843 
L 227.576307 154.39843 
L 227.576307 149.134008 
L 229.098125 149.103577 
L 229.098125 160.149736 
L 229.859034 160.149736 
L 229.859034 151.629283 
L 230.619943 151.629283 
L 230.619943 154.033268 
L 231.380852 154.033268 
L 231.380852 157.441449 
L 232.141761 157.441449 
L 232.141761 158.445645 
L 232.90267 158.445645 
L 232.90267 150.259925 
L 233.66358 150.259925 
L 233.66358 160.484468 
L 234.424489 160.484468 
L 234.424489 154.094128 
L 235.185398 154.094128 
L 235.185398 162.827592 
L 235.946307 162.827592 
L 235.946307 158.749947 
L 236.707216 158.749947 
L 236.707216 161.001781 
L 237.468125 161.001781 
L 237.468125 162.888453 
L 238.229034 162.888453 
L 238.229034 165.231577 
L 238.989943 165.231577 
L 238.989943 163.831789 
L 239.750852 163.831789 
L 239.750852 156.619834 
L 240.511761 156.619834 
L 240.511761 163.953509 
L 241.27267 163.953509 
L 241.27267 168.731049 
L 242.03358 168.731049 
L 242.03358 158.263064 
L 242.794489 158.263064 
L 242.794489 174.117192 
L 243.555398 174.117192 
L 243.555398 162.949313 
L 244.316307 162.949313 
L 244.316307 161.549525 
L 245.077216 161.549525 
L 245.077216 177.860106 
L 245.838125 177.860106 
L 245.838125 165.901042 
L 246.599034 165.901042 
L 246.599034 171.469766 
L 247.359943 171.469766 
L 247.359943 178.803442 
L 248.120852 178.803442 
L 248.120852 168.092015 
L 248.881761 168.092015 
L 248.881761 170.313419 
L 249.64267 170.313419 
L 249.64267 177.586234 
L 250.40358 177.586234 
L 250.40358 175.151819 
L 251.164489 175.151819 
L 251.164489 169.187502 
L 251.925398 169.187502 
L 251.925398 175.608272 
L 252.686307 175.608272 
L 252.686307 177.464513 
L 253.447216 177.464513 
L 253.447216 178.407849 
L 254.208125 178.407849 
L 254.208125 176.156015 
L 254.969034 176.156015 
L 254.969034 178.49914 
L 255.729943 178.49914 
L 255.729943 183.276679 
L 256.490852 183.276679 
L 256.490852 183.763562 
L 257.251761 183.763562 
L 257.251761 183.915713 
L 258.01267 183.915713 
L 258.01267 186.745721 
L 258.77358 186.745721 
L 258.77358 184.737328 
L 259.534489 184.737328 
L 259.534489 186.837011 
L 260.295398 186.837011 
L 260.295398 188.20637 
L 261.056307 188.20637 
L 261.056307 188.997555 
L 261.817216 188.997555 
L 261.817216 191.036377 
L 262.578125 191.036377 
L 262.578125 189.667019 
L 263.339034 189.667019 
L 263.339034 185.467653 
L 264.099943 185.467653 
L 264.099943 193.988106 
L 264.860852 193.988106 
L 264.860852 194.961872 
L 265.621761 194.961872 
L 265.621761 191.249389 
L 266.38267 191.249389 
L 266.38267 191.005947 
L 267.14358 191.005947 
L 267.14358 196.148649 
L 268.665398 196.148649 
L 268.665398 192.588317 
L 269.426307 192.588317 
L 269.426307 193.988106 
L 270.187216 193.988106 
L 270.187216 198.826506 
L 270.948125 198.826506 
L 270.948125 199.404679 
L 271.709034 199.404679 
L 271.709034 195.174883 
L 272.469943 195.174883 
L 272.469943 198.887366 
L 273.230852 198.887366 
L 273.230852 199.435109 
L 273.991761 199.435109 
L 273.991761 197.822309 
L 274.75267 197.822309 
L 274.75267 202.173826 
L 275.51358 202.173826 
L 275.51358 201.1392 
L 276.274489 201.1392 
L 276.274489 202.660709 
L 277.035398 202.660709 
L 277.035398 205.125555 
L 277.796307 205.125555 
L 277.796307 202.660709 
L 278.557216 202.660709 
L 278.557216 203.360604 
L 279.318125 203.360604 
L 279.318125 205.795019 
L 280.079034 205.795019 
L 280.079034 202.78243 
L 280.839943 202.78243 
L 280.839943 206.068891 
L 281.600852 206.068891 
L 281.600852 206.525343 
L 282.361761 206.525343 
L 282.361761 207.985992 
L 283.12267 207.985992 
L 283.12267 207.712121 
L 283.88358 207.712121 
L 283.88358 207.346958 
L 284.644489 207.346958 
L 284.644489 208.655457 
L 285.405398 208.655457 
L 285.405398 208.138143 
L 286.166307 208.138143 
L 286.166307 209.23363 
L 286.927216 209.23363 
L 286.927216 210.268257 
L 287.688125 210.268257 
L 287.688125 208.046853 
L 288.449034 208.046853 
L 288.449034 210.602989 
L 289.209943 210.602989 
L 289.209943 211.546325 
L 289.970852 211.546325 
L 289.970852 209.324921 
L 290.731761 209.324921 
L 290.731761 212.550521 
L 292.25358 212.520091 
L 292.25358 211.728906 
L 293.014489 211.728906 
L 293.014489 213.859019 
L 293.775398 213.859019 
L 293.775398 212.39837 
L 294.536307 212.39837 
L 294.536307 212.063638 
L 295.297216 212.063638 
L 295.297216 213.372136 
L 296.058125 213.372136 
L 296.058125 214.558913 
L 296.819034 214.558913 
L 296.819034 214.07203 
L 297.579943 214.07203 
L 297.579943 214.741494 
L 298.340852 214.741494 
L 298.340852 215.045796 
L 299.101761 215.045796 
L 299.101761 215.806551 
L 300.62358 215.806551 
L 300.62358 216.171713 
L 301.384489 216.171713 
L 301.384489 215.380528 
L 302.145398 215.380528 
L 302.145398 216.597736 
L 302.906307 216.597736 
L 302.906307 216.780317 
L 303.667216 216.780317 
L 303.667216 217.084619 
L 304.428125 217.084619 
L 304.428125 217.2672 
L 305.189034 217.2672 
L 305.189034 217.601932 
L 305.949943 217.601932 
L 305.949943 217.388921 
L 306.710852 217.388921 
L 306.710852 217.662792 
L 307.471761 217.662792 
L 307.471761 217.967094 
L 308.23267 217.967094 
L 308.23267 218.149675 
L 308.99358 218.149675 
L 308.99358 218.301826 
L 310.515398 218.332257 
L 310.515398 218.514838 
L 311.276307 218.514838 
L 311.276307 218.88 
L 372.909943 218.88 
L 372.909943 218.88 
" clip-path="url(#p5f47c58f44)" style="fill: none; stroke: #1f77b4; stroke-width: 1.5; stroke-linecap: square"/>
   </g>
   <g id="line2d_17">
    <path d="M 68.546307 218.88 
L 77.677216 218.84957 
L 77.677216 218.575698 
L 78.438125 218.575698 
L 78.438125 218.758279 
L 79.959943 218.727849 
L 79.959943 218.88 
L 81.481761 218.81914 
L 81.481761 218.545268 
L 82.24267 218.545268 
L 82.24267 218.81914 
L 83.764489 218.88 
L 83.764489 218.423547 
L 87.569034 218.362687 
L 87.569034 217.632362 
L 88.329943 217.632362 
L 88.329943 218.301826 
L 89.090852 218.301826 
L 89.090852 218.027955 
L 89.851761 218.027955 
L 89.851761 217.693223 
L 90.61267 217.693223 
L 90.61267 217.845374 
L 91.37358 217.845374 
L 91.37358 218.027955 
L 92.134489 218.027955 
L 92.134489 217.632362 
L 93.656307 217.571502 
L 93.656307 217.449781 
L 94.417216 217.449781 
L 94.417216 217.084619 
L 95.178125 217.084619 
L 95.178125 217.29763 
L 95.939034 217.29763 
L 95.939034 216.232574 
L 96.699943 216.232574 
L 96.699943 216.658596 
L 97.460852 216.658596 
L 97.460852 216.202143 
L 98.221761 216.202143 
L 98.221761 215.806551 
L 98.98267 215.806551 
L 98.98267 215.380528 
L 99.74358 215.380528 
L 99.74358 215.045796 
L 101.265398 214.984936 
L 101.265398 213.767728 
L 102.026307 213.767728 
L 102.026307 214.802355 
L 102.787216 214.802355 
L 102.787216 212.337509 
L 103.548125 212.337509 
L 103.548125 212.45923 
L 104.309034 212.45923 
L 104.309034 211.029011 
L 105.830852 211.029011 
L 105.830852 209.294491 
L 106.591761 209.294491 
L 106.591761 208.472875 
L 107.35267 208.472875 
L 107.35267 206.768785 
L 108.874489 206.860075 
L 108.874489 204.3648 
L 109.635398 204.3648 
L 109.635398 202.417268 
L 110.396307 202.417268 
L 110.396307 200.439306 
L 111.157216 200.439306 
L 111.157216 197.761449 
L 112.679034 197.791879 
L 112.679034 193.927245 
L 113.439943 193.927245 
L 113.439943 191.249389 
L 114.200852 191.249389 
L 114.200852 187.962928 
L 114.961761 187.962928 
L 114.961761 183.611411 
L 115.72267 183.611411 
L 115.72267 179.229464 
L 116.48358 179.229464 
L 116.48358 175.060528 
L 117.244489 175.060528 
L 117.244489 175.243109 
L 118.005398 175.243109 
L 118.005398 167.818143 
L 118.766307 167.818143 
L 118.766307 166.418355 
L 119.527216 166.418355 
L 119.527216 164.349102 
L 120.288125 164.349102 
L 120.288125 163.527487 
L 121.049034 163.527487 
L 121.049034 150.777238 
L 121.809943 150.777238 
L 121.809943 147.582068 
L 122.570852 147.582068 
L 122.570852 144.326038 
L 123.331761 144.326038 
L 123.331761 144.63034 
L 124.09267 144.63034 
L 124.09267 135.592574 
L 124.85358 135.592574 
L 124.85358 130.176 
L 125.614489 130.176 
L 125.614489 131.75837 
L 126.375398 131.75837 
L 126.375398 123.542219 
L 127.136307 123.542219 
L 127.136307 117.577902 
L 127.897216 117.577902 
L 127.897216 114.01757 
L 128.658125 114.01757 
L 128.658125 105.892709 
L 129.419034 105.892709 
L 129.419034 106.105721 
L 130.179943 106.105721 
L 130.179943 96.063758 
L 130.940852 96.063758 
L 130.940852 88.030189 
L 131.701761 88.030189 
L 131.701761 84.195985 
L 132.46267 84.195985 
L 132.46267 77.197042 
L 133.22358 77.197042 
L 133.22358 79.935758 
L 133.984489 79.935758 
L 133.984489 68.707019 
L 134.745398 68.707019 
L 134.745398 67.885404 
L 135.506307 67.885404 
L 135.506307 57.934732 
L 136.267216 57.934732 
L 136.267216 59.121509 
L 137.028125 59.121509 
L 137.028125 52.274717 
L 137.789034 52.274717 
L 137.789034 45.123623 
L 138.549943 45.123623 
L 138.549943 50.083743 
L 139.310852 50.083743 
L 139.310852 54.40483 
L 140.071761 54.40483 
L 140.071761 49.779442 
L 140.83267 49.779442 
L 140.83267 44.028136 
L 141.59358 44.028136 
L 141.59358 43.05437 
L 142.354489 43.05437 
L 142.354489 43.784694 
L 143.115398 43.784694 
L 143.115398 28.53917 
L 143.876307 28.53917 
L 143.876307 40.254792 
L 144.637216 40.254792 
L 144.637216 31.186596 
L 145.398125 31.186596 
L 145.398125 31.582189 
L 146.159034 31.582189 
L 146.159034 38.124679 
L 146.919943 38.124679 
L 146.919943 24.035502 
L 147.680852 24.035502 
L 147.680852 31.490898 
L 148.441761 31.490898 
L 148.441761 27.930566 
L 149.20267 27.930566 
L 149.20267 35.811985 
L 149.96358 35.811985 
L 149.96358 31.521328 
L 150.724489 31.521328 
L 150.724489 25.191849 
L 151.485398 25.191849 
L 151.485398 31.643049 
L 152.246307 31.643049 
L 152.246307 26.530777 
L 153.007216 26.530777 
L 153.007216 24.522385 
L 153.768125 24.522385 
L 153.768125 31.673479 
L 154.529034 31.673479 
L 154.529034 27.413253 
L 155.289943 27.413253 
L 155.289943 29.086913 
L 156.050852 29.086913 
L 156.050852 17.28 
L 156.811761 17.28 
L 156.811761 40.467804 
L 157.57267 40.467804 
L 157.57267 31.004015 
L 158.33358 31.004015 
L 158.33358 20.809902 
L 159.094489 20.809902 
L 159.094489 26.439487 
L 159.855398 26.439487 
L 159.855398 31.703909 
L 160.616307 31.703909 
L 160.616307 31.095306 
L 161.377216 31.095306 
L 161.377216 27.991426 
L 162.899034 27.930566 
L 162.899034 29.756377 
L 163.659943 29.756377 
L 163.659943 36.298868 
L 164.420852 36.298868 
L 164.420852 32.647245 
L 165.181761 32.647245 
L 165.181761 24.735396 
L 165.94267 24.735396 
L 165.94267 41.715442 
L 166.70358 41.715442 
L 166.70358 25.617872 
L 167.464489 25.617872 
L 167.464489 32.921117 
L 168.225398 32.921117 
L 168.225398 39.098445 
L 168.986307 39.098445 
L 168.986307 44.63674 
L 169.747216 44.63674 
L 169.747216 31.82563 
L 170.508125 31.82563 
L 170.508125 42.567487 
L 171.269034 42.567487 
L 171.269034 38.855004 
L 172.029943 38.855004 
L 172.029943 41.106838 
L 172.790852 41.106838 
L 172.790852 42.902219 
L 173.551761 42.902219 
L 173.551761 53.887517 
L 174.31267 53.887517 
L 174.31267 43.419532 
L 175.07358 43.419532 
L 175.07358 54.891713 
L 175.834489 54.891713 
L 175.834489 54.34397 
L 176.595398 54.34397 
L 176.595398 58.208604 
L 177.356307 58.208604 
L 177.356307 57.752151 
L 178.117216 57.752151 
L 178.117216 65.785721 
L 178.878125 65.785721 
L 178.878125 63.868619 
L 179.639034 63.868619 
L 179.639034 56.291502 
L 180.399943 56.291502 
L 180.399943 62.134098 
L 181.160852 62.134098 
L 181.160852 73.910581 
L 181.921761 73.910581 
L 181.921761 68.341857 
L 182.68267 68.341857 
L 182.68267 80.087909 
L 183.44358 80.087909 
L 183.44358 69.985087 
L 184.204489 69.985087 
L 184.204489 86.204377 
L 184.965398 86.204377 
L 184.965398 80.666083 
L 185.726307 80.666083 
L 185.726307 76.649298 
L 186.487216 76.649298 
L 186.487216 79.266294 
L 187.248125 79.266294 
L 187.248125 86.113087 
L 188.009034 86.113087 
L 188.009034 89.521268 
L 188.769943 89.521268 
L 188.769943 88.030189 
L 189.530852 88.030189 
L 189.530852 91.43837 
L 190.291761 91.43837 
L 190.291761 87.482445 
L 191.05267 87.482445 
L 191.05267 90.829766 
L 191.81358 90.829766 
L 191.81358 96.398491 
L 192.574489 96.398491 
L 192.574489 93.933645 
L 193.335398 93.933645 
L 193.335398 99.47194 
L 194.096307 99.47194 
L 194.096307 103.123562 
L 194.857216 103.123562 
L 194.857216 104.797223 
L 195.618125 104.797223 
L 195.618125 102.880121 
L 196.379034 102.880121 
L 196.379034 99.776242 
L 197.139943 99.776242 
L 197.139943 105.984 
L 197.900852 105.984 
L 197.900852 114.717464 
L 198.661761 114.717464 
L 198.661761 110.092075 
L 199.42267 110.092075 
L 199.42267 107.840242 
L 200.18358 107.840242 
L 200.18358 113.956709 
L 200.944489 113.956709 
L 200.944489 112.830792 
L 201.705398 112.830792 
L 201.705398 113.135094 
L 202.466307 113.135094 
L 202.466307 113.439396 
L 203.227216 113.439396 
L 203.227216 115.569509 
L 203.988125 115.569509 
L 203.988125 130.997615 
L 204.749034 130.997615 
L 204.749034 130.571592 
L 205.509943 130.571592 
L 205.509943 113.226385 
L 206.270852 113.226385 
L 206.270852 116.938868 
L 207.031761 116.938868 
L 207.031761 121.351245 
L 207.79267 121.351245 
L 207.79267 122.294581 
L 208.55358 122.294581 
L 208.55358 123.998672 
L 209.314489 123.998672 
L 209.314489 137.174943 
L 210.075398 137.174943 
L 210.075398 127.467713 
L 210.836307 127.467713 
L 210.836307 124.515985 
L 211.597216 124.515985 
L 211.597216 134.679668 
L 212.358125 134.679668 
L 212.358125 130.541162 
L 213.119034 130.541162 
L 213.119034 127.954596 
L 213.879943 127.954596 
L 213.879943 134.649238 
L 214.640852 134.649238 
L 214.640852 132.884287 
L 215.401761 132.884287 
L 215.401761 133.888483 
L 216.16267 133.888483 
L 216.16267 141.739472 
L 216.92358 141.739472 
L 216.92358 141.49603 
L 217.684489 141.49603 
L 217.684489 131.545358 
L 218.445398 131.545358 
L 218.445398 145.847547 
L 219.206307 145.847547 
L 219.206307 131.545358 
L 219.967216 131.545358 
L 219.967216 140.339683 
L 220.728125 140.339683 
L 220.728125 138.848604 
L 221.489034 138.848604 
L 221.489034 144.113026 
L 222.249943 144.113026 
L 222.249943 147.369057 
L 223.010852 147.369057 
L 223.010852 151.811864 
L 223.771761 151.811864 
L 223.771761 136.262038 
L 224.53267 136.262038 
L 224.53267 147.85594 
L 225.29358 147.85594 
L 225.29358 146.24314 
L 226.054489 146.24314 
L 226.054489 148.981857 
L 226.815398 148.981857 
L 226.815398 153.150792 
L 227.576307 153.150792 
L 227.576307 149.712181 
L 228.337216 149.712181 
L 228.337216 153.972408 
L 229.098125 153.972408 
L 229.098125 148.981857 
L 229.859034 148.981857 
L 229.859034 157.958762 
L 230.619943 157.958762 
L 230.619943 155.007034 
L 231.380852 155.007034 
L 231.380852 154.39843 
L 232.141761 154.39843 
L 232.141761 149.49917 
L 232.90267 149.49917 
L 232.90267 160.241026 
L 233.66358 160.241026 
L 233.66358 158.293494 
L 234.424489 158.293494 
L 234.424489 157.897902 
L 235.185398 157.897902 
L 235.185398 155.646068 
L 235.946307 155.646068 
L 235.946307 164.136091 
L 236.707216 164.136091 
L 236.707216 160.636619 
L 237.468125 160.636619 
L 237.468125 165.475019 
L 238.229034 165.475019 
L 238.229034 159.723713 
L 238.989943 159.723713 
L 238.989943 159.084679 
L 239.750852 159.084679 
L 239.750852 162.46243 
L 240.511761 162.46243 
L 240.511761 164.714264 
L 241.27267 164.714264 
L 241.27267 168.670189 
L 242.03358 168.670189 
L 242.03358 161.427804 
L 242.794489 161.427804 
L 242.794489 167.23997 
L 243.555398 167.23997 
L 243.555398 166.448785 
L 244.316307 166.448785 
L 244.316307 172.656543 
L 245.077216 172.656543 
L 245.077216 162.949313 
L 245.838125 162.949313 
L 245.838125 169.856966 
L 246.599034 169.856966 
L 246.599034 174.299774 
L 248.120852 174.299774 
L 248.120852 173.69117 
L 248.881761 173.69117 
L 248.881761 172.04794 
L 249.64267 172.04794 
L 249.64267 172.16966 
L 250.40358 172.16966 
L 250.40358 169.248362 
L 251.164489 169.248362 
L 251.164489 175.486551 
L 251.925398 175.486551 
L 251.925398 177.555804 
L 252.686307 177.555804 
L 252.686307 178.042687 
L 253.447216 178.042687 
L 253.447216 176.156015 
L 254.208125 176.156015 
L 254.208125 177.342792 
L 254.969034 177.342792 
L 254.969034 182.089902 
L 255.729943 182.089902 
L 255.729943 180.385811 
L 256.490852 180.385811 
L 256.490852 184.311306 
L 257.251761 184.311306 
L 257.251761 183.33754 
L 258.01267 183.33754 
L 258.01267 185.771955 
L 258.77358 185.771955 
L 258.77358 184.524317 
L 259.534489 184.524317 
L 259.534489 189.484438 
L 260.295398 189.484438 
L 260.295398 185.467653 
L 261.056307 185.467653 
L 261.056307 188.510672 
L 261.817216 188.510672 
L 261.817216 191.097238 
L 262.578125 191.097238 
L 262.578125 184.676468 
L 263.339034 184.676468 
L 263.339034 190.306053 
L 264.099943 190.306053 
L 264.099943 196.087789 
L 264.860852 196.087789 
L 264.860852 189.393147 
L 265.621761 189.393147 
L 265.621761 196.848543 
L 266.38267 196.848543 
L 266.38267 189.362717 
L 267.14358 189.362717 
L 267.14358 194.079396 
L 267.904489 194.079396 
L 267.904489 196.23994 
L 268.665398 196.23994 
L 268.665398 195.783487 
L 269.426307 195.783487 
L 269.426307 193.440362 
L 270.187216 193.440362 
L 270.187216 198.735215 
L 270.948125 198.735215 
L 270.948125 193.957675 
L 271.709034 193.957675 
L 271.709034 198.887366 
L 272.469943 198.887366 
L 272.469943 199.130808 
L 273.230852 199.130808 
L 273.230852 197.487577 
L 273.991761 197.487577 
L 273.991761 201.778234 
L 274.75267 201.778234 
L 274.75267 198.491774 
L 275.51358 198.491774 
L 275.51358 202.538989 
L 276.274489 202.538989 
L 276.274489 202.995442 
L 277.035398 202.995442 
L 277.035398 203.695336 
L 277.796307 203.695336 
L 277.796307 204.182219 
L 278.557216 204.182219 
L 278.557216 202.325977 
L 279.318125 202.325977 
L 279.318125 203.908347 
L 280.839943 203.877917 
L 280.839943 205.460287 
L 281.600852 205.460287 
L 281.600852 208.168574 
L 282.361761 208.168574 
L 282.361761 207.52954 
L 283.12267 207.52954 
L 283.12267 206.464483 
L 283.88358 206.464483 
L 283.88358 208.777177 
L 284.644489 208.777177 
L 284.644489 207.712121 
L 285.405398 207.712121 
L 285.405398 209.081479 
L 286.166307 209.081479 
L 286.166307 208.838038 
L 287.688125 208.898898 
L 287.688125 209.781374 
L 288.449034 209.781374 
L 288.449034 210.207396 
L 289.209943 210.207396 
L 289.209943 210.663849 
L 289.970852 210.663849 
L 289.970852 210.237826 
L 290.731761 210.237826 
L 290.731761 212.094068 
L 291.49267 212.094068 
L 291.49267 211.668045 
L 292.25358 211.668045 
L 292.25358 213.128694 
L 293.014489 213.128694 
L 293.014489 211.941917 
L 293.775398 211.941917 
L 293.775398 213.067834 
L 294.536307 213.067834 
L 294.536307 212.520091 
L 295.297216 212.520091 
L 295.297216 213.554717 
L 296.058125 213.554717 
L 296.058125 214.376332 
L 296.819034 214.376332 
L 296.819034 213.919879 
L 297.579943 213.919879 
L 297.579943 214.802355 
L 298.340852 214.802355 
L 298.340852 214.954506 
L 299.101761 214.954506 
L 299.101761 215.258808 
L 299.86267 215.258808 
L 299.86267 216.019562 
L 300.62358 216.019562 
L 300.62358 215.836981 
L 301.384489 215.836981 
L 301.384489 216.232574 
L 302.145398 216.232574 
L 302.145398 216.384725 
L 302.906307 216.384725 
L 302.906307 216.628166 
L 303.667216 216.628166 
L 303.667216 216.780317 
L 304.428125 216.780317 
L 304.428125 217.419351 
L 305.189034 217.419351 
L 305.189034 217.601932 
L 307.471761 217.693223 
L 307.471761 217.784513 
L 308.23267 217.784513 
L 308.23267 218.332257 
L 308.99358 218.332257 
L 308.99358 218.180106 
L 309.754489 218.180106 
L 309.754489 218.362687 
L 311.276307 218.362687 
L 311.276307 218.788709 
L 372.909943 218.88 
L 372.909943 218.88 
" clip-path="url(#p5f47c58f44)" style="fill: none; stroke: #ff7f0e; stroke-width: 1.5; stroke-linecap: square"/>
   </g>
   <g id="line2d_18">
    <path d="M 68.546307 218.84957 
L 75.394489 218.788709 
L 75.394489 218.636558 
L 76.155398 218.636558 
L 76.155398 218.758279 
L 77.677216 218.666989 
L 77.677216 218.545268 
L 78.438125 218.545268 
L 78.438125 218.727849 
L 79.959943 218.727849 
L 79.959943 218.606128 
L 81.481761 218.606128 
L 81.481761 218.423547 
L 82.24267 218.423547 
L 82.24267 218.697419 
L 83.00358 218.697419 
L 83.00358 218.453977 
L 86.047216 218.423547 
L 86.047216 218.271396 
L 86.808125 218.271396 
L 86.808125 218.058385 
L 89.090852 218.149675 
L 89.090852 217.906234 
L 89.851761 217.906234 
L 89.851761 218.088815 
L 90.61267 218.088815 
L 90.61267 217.814943 
L 92.895398 217.754083 
L 92.895398 217.541072 
L 93.656307 217.541072 
L 93.656307 217.32806 
L 94.417216 217.32806 
L 94.417216 216.962898 
L 95.939034 216.962898 
L 95.939034 216.689026 
L 97.460852 216.597736 
L 97.460852 215.836981 
L 98.221761 215.836981 
L 98.221761 216.171713 
L 98.98267 216.171713 
L 98.98267 215.59354 
L 100.504489 215.68483 
L 100.504489 214.315472 
L 101.265398 214.315472 
L 101.265398 214.619774 
L 102.026307 214.619774 
L 102.026307 212.946113 
L 102.787216 212.946113 
L 102.787216 213.128694 
L 103.548125 213.128694 
L 103.548125 211.820196 
L 104.309034 211.820196 
L 104.309034 211.211592 
L 105.069943 211.211592 
L 105.069943 210.572558 
L 105.830852 210.572558 
L 105.830852 209.446642 
L 106.591761 209.446642 
L 106.591761 209.081479 
L 107.35267 209.081479 
L 107.35267 207.712121 
L 108.11358 207.712121 
L 108.11358 205.795019 
L 108.874489 205.795019 
L 108.874489 204.973404 
L 109.635398 204.973404 
L 109.635398 202.173826 
L 110.396307 202.173826 
L 110.396307 199.55683 
L 111.157216 199.55683 
L 111.157216 198.430913 
L 111.918125 198.430913 
L 111.918125 196.696392 
L 112.679034 196.696392 
L 112.679034 195.053162 
L 113.439943 195.053162 
L 113.439943 188.754113 
L 114.200852 188.754113 
L 114.200852 187.445615 
L 114.961761 187.445615 
L 114.961761 184.250445 
L 115.72267 184.250445 
L 115.72267 179.412045 
L 116.48358 179.412045 
L 116.48358 176.703758 
L 117.244489 176.703758 
L 117.244489 172.352242 
L 118.005398 172.352242 
L 118.005398 170.648151 
L 118.766307 170.648151 
L 118.766307 166.905238 
L 119.527216 166.905238 
L 119.527216 163.831789 
L 120.288125 163.831789 
L 120.288125 158.141343 
L 121.049034 158.141343 
L 121.049034 156.619834 
L 121.809943 156.619834 
L 121.809943 148.555834 
L 122.570852 148.555834 
L 122.570852 142.713238 
L 123.331761 142.713238 
L 123.331761 141.861192 
L 124.09267 141.861192 
L 124.09267 136.68806 
L 124.85358 136.68806 
L 124.85358 130.936755 
L 125.614489 130.936755 
L 125.614489 129.597826 
L 126.375398 129.597826 
L 126.375398 124.607275 
L 127.136307 124.607275 
L 127.136307 117.821343 
L 127.897216 117.821343 
L 127.897216 112.526491 
L 128.658125 112.526491 
L 128.658125 109.513902 
L 129.419034 109.513902 
L 129.419034 99.258928 
L 130.179943 99.258928 
L 130.179943 95.272574 
L 130.940852 95.272574 
L 130.940852 88.608362 
L 131.701761 88.608362 
L 131.701761 86.69126 
L 132.46267 86.69126 
L 132.46267 80.057479 
L 133.22358 80.057479 
L 133.22358 74.184453 
L 133.984489 74.184453 
L 133.984489 72.05434 
L 134.745398 72.05434 
L 134.745398 67.915834 
L 135.506307 67.915834 
L 135.506307 59.121509 
L 136.267216 59.121509 
L 136.267216 56.108921 
L 137.028125 56.108921 
L 137.028125 54.587411 
L 137.789034 54.587411 
L 137.789034 50.844498 
L 138.549943 50.844498 
L 138.549943 47.801479 
L 139.310852 47.801479 
L 139.310852 49.47514 
L 140.071761 49.47514 
L 140.071761 47.284166 
L 140.83267 47.284166 
L 140.83267 44.63674 
L 141.59358 44.63674 
L 141.59358 43.176091 
L 142.354489 43.176091 
L 142.354489 38.702853 
L 143.115398 38.702853 
L 143.115398 36.69446 
L 143.876307 36.69446 
L 143.876307 34.412196 
L 144.637216 34.412196 
L 144.637216 37.668226 
L 145.398125 37.668226 
L 145.398125 37.455215 
L 146.159034 37.455215 
L 146.159034 30.395411 
L 146.919943 30.395411 
L 146.919943 29.969389 
L 147.680852 29.969389 
L 147.680852 28.204438 
L 148.441761 28.204438 
L 148.441761 32.799396 
L 149.20267 32.799396 
L 149.20267 30.15197 
L 149.96358 30.15197 
L 149.96358 25.070128 
L 150.724489 25.070128 
L 150.724489 25.861313 
L 151.485398 25.861313 
L 151.485398 31.095306 
L 152.246307 31.095306 
L 152.246307 27.808845 
L 153.007216 27.808845 
L 153.007216 29.269494 
L 153.768125 29.269494 
L 153.768125 30.973585 
L 154.529034 30.973585 
L 154.529034 27.869706 
L 155.289943 27.869706 
L 155.289943 26.043894 
L 156.050852 26.043894 
L 156.050852 29.086913 
L 156.811761 29.086913 
L 156.811761 31.886491 
L 157.57267 31.886491 
L 157.57267 26.865509 
L 158.33358 26.865509 
L 158.33358 30.821434 
L 159.094489 30.821434 
L 159.094489 26.804649 
L 159.855398 26.804649 
L 159.855398 28.265298 
L 160.616307 28.265298 
L 160.616307 25.617872 
L 161.377216 25.617872 
L 161.377216 29.634657 
L 162.138125 29.634657 
L 162.138125 31.247457 
L 162.899034 31.247457 
L 162.899034 25.617872 
L 163.659943 25.617872 
L 163.659943 32.921117 
L 164.420852 32.921117 
L 164.420852 33.742732 
L 165.181761 33.742732 
L 165.181761 36.451019 
L 165.94267 36.451019 
L 165.94267 33.834023 
L 166.70358 33.834023 
L 166.70358 33.37757 
L 167.464489 33.37757 
L 167.464489 36.420589 
L 168.225398 36.420589 
L 168.225398 34.594777 
L 168.986307 34.594777 
L 168.986307 37.303064 
L 169.747216 37.303064 
L 169.747216 35.325102 
L 170.508125 35.325102 
L 170.508125 41.015547 
L 171.269034 41.015547 
L 171.269034 41.563291 
L 172.029943 41.563291 
L 172.029943 45.884377 
L 172.790852 45.884377 
L 172.790852 41.350279 
L 173.551761 41.350279 
L 173.551761 54.739562 
L 174.31267 54.739562 
L 174.31267 49.079547 
L 175.07358 49.079547 
L 175.07358 53.278913 
L 175.834489 53.278913 
L 175.834489 55.743758 
L 176.595398 55.743758 
L 176.595398 57.508709 
L 177.356307 57.508709 
L 177.356307 59.790974 
L 178.117216 59.790974 
L 178.117216 60.703879 
L 178.878125 60.703879 
L 178.878125 60.095275 
L 179.639034 60.095275 
L 179.639034 65.268408 
L 180.399943 65.268408 
L 180.399943 67.185509 
L 181.160852 67.185509 
L 181.160852 69.346053 
L 181.921761 69.346053 
L 181.921761 69.163472 
L 182.68267 69.163472 
L 182.68267 72.480362 
L 183.44358 72.480362 
L 183.44358 73.910581 
L 184.204489 73.910581 
L 184.204489 79.388015 
L 184.965398 79.388015 
L 184.965398 74.945208 
L 185.726307 74.945208 
L 185.726307 80.605223 
L 186.487216 80.605223 
L 186.487216 82.583185 
L 187.248125 82.583185 
L 187.248125 85.413192 
L 188.009034 85.413192 
L 188.009034 89.034385 
L 188.769943 89.034385 
L 188.769943 87.056423 
L 189.530852 87.056423 
L 189.530852 87.299864 
L 190.291761 87.299864 
L 190.291761 93.720634 
L 191.05267 93.720634 
L 191.05267 92.594717 
L 191.81358 92.594717 
L 191.81358 95.698596 
L 192.574489 95.698596 
L 192.574489 97.95043 
L 193.335398 97.95043 
L 193.335398 99.654521 
L 194.096307 99.654521 
L 194.096307 102.545389 
L 194.857216 102.545389 
L 194.857216 99.50237 
L 195.618125 99.50237 
L 195.618125 105.192815 
L 196.379034 105.192815 
L 196.379034 100.202264 
L 197.139943 100.202264 
L 197.139943 108.296694 
L 197.900852 108.296694 
L 197.900852 106.288302 
L 198.661761 106.288302 
L 198.661761 110.335517 
L 199.42267 110.335517 
L 199.42267 111.674445 
L 200.18358 111.674445 
L 200.18358 112.039608 
L 200.944489 112.039608 
L 200.944489 113.926279 
L 201.705398 113.926279 
L 201.705398 116.725857 
L 202.466307 116.725857 
L 202.466307 113.378536 
L 203.227216 113.378536 
L 203.227216 118.642958 
L 203.988125 118.642958 
L 203.988125 118.186506 
L 204.749034 118.186506 
L 204.749034 123.085766 
L 205.509943 123.085766 
L 205.509943 120.103608 
L 206.270852 120.103608 
L 206.270852 121.898989 
L 207.031761 121.898989 
L 207.031761 123.420498 
L 207.79267 123.420498 
L 207.79267 125.489751 
L 208.55358 125.489751 
L 208.55358 125.733192 
L 209.314489 125.733192 
L 209.314489 126.493947 
L 210.075398 126.493947 
L 210.075398 127.041691 
L 210.836307 127.041691 
L 210.836307 130.480302 
L 211.597216 130.480302 
L 211.597216 130.784604 
L 212.358125 130.784604 
L 212.358125 129.263094 
L 213.119034 129.263094 
L 213.119034 134.344936 
L 213.879943 134.344936 
L 213.879943 132.701706 
L 214.640852 132.701706 
L 214.640852 136.231608 
L 215.401761 136.231608 
L 215.401761 137.509675 
L 216.16267 137.509675 
L 216.16267 135.227411 
L 216.92358 135.227411 
L 216.92358 138.30086 
L 217.684489 138.30086 
L 217.684489 136.809781 
L 218.445398 136.809781 
L 218.445398 138.118279 
L 219.206307 138.118279 
L 219.206307 139.8528 
L 219.967216 139.8528 
L 219.967216 138.026989 
L 220.728125 138.026989 
L 220.728125 142.743668 
L 221.489034 142.743668 
L 221.489034 143.291411 
L 222.249943 143.291411 
L 222.249943 143.778294 
L 223.010852 143.778294 
L 223.010852 145.451955 
L 223.771761 145.451955 
L 223.771761 144.75206 
L 224.53267 144.75206 
L 224.53267 147.429917 
L 225.29358 147.429917 
L 225.29358 149.164438 
L 226.054489 149.164438 
L 226.054489 147.97766 
L 226.815398 147.97766 
L 226.815398 149.5296 
L 227.576307 149.5296 
L 227.576307 151.385842 
L 229.098125 151.294551 
L 229.098125 153.485525 
L 230.619943 153.455094 
L 230.619943 154.489721 
L 231.380852 154.489721 
L 231.380852 154.885313 
L 232.141761 154.885313 
L 232.141761 156.285102 
L 232.90267 156.285102 
L 232.90267 157.228438 
L 233.66358 157.228438 
L 233.66358 155.767789 
L 234.424489 155.767789 
L 234.424489 160.119306 
L 235.185398 160.119306 
L 235.185398 158.050053 
L 235.946307 158.050053 
L 235.946307 158.323925 
L 236.707216 158.323925 
L 236.707216 161.914687 
L 237.468125 161.914687 
L 237.468125 158.597796 
L 238.229034 158.597796 
L 238.229034 162.797162 
L 238.989943 162.797162 
L 238.989943 162.340709 
L 239.750852 162.340709 
L 239.750852 163.923079 
L 240.511761 163.923079 
L 240.511761 162.979743 
L 241.27267 162.979743 
L 241.27267 166.053192 
L 242.03358 166.053192 
L 242.03358 165.079426 
L 242.794489 165.079426 
L 242.794489 166.783517 
L 243.555398 166.783517 
L 243.555398 168.000725 
L 244.316307 168.000725 
L 244.316307 168.609328 
L 245.077216 168.609328 
L 245.077216 169.491804 
L 245.838125 169.491804 
L 245.838125 167.33126 
L 246.599034 167.33126 
L 246.599034 171.378475 
L 247.359943 171.378475 
L 247.359943 172.595683 
L 248.120852 172.595683 
L 248.120852 171.439336 
L 248.881761 171.439336 
L 248.881761 173.112996 
L 249.64267 173.112996 
L 249.64267 172.565253 
L 250.40358 172.565253 
L 250.40358 172.869555 
L 251.164489 172.869555 
L 251.164489 175.425691 
L 252.686307 175.516981 
L 252.686307 179.229464 
L 253.447216 179.229464 
L 253.447216 178.59043 
L 254.208125 178.59043 
L 254.208125 180.355381 
L 254.969034 180.355381 
L 254.969034 181.207426 
L 255.729943 181.207426 
L 255.729943 180.598823 
L 256.490852 180.598823 
L 256.490852 183.42883 
L 257.251761 183.42883 
L 257.251761 185.102491 
L 258.01267 185.102491 
L 258.01267 182.120332 
L 258.77358 182.120332 
L 258.77358 185.771955 
L 259.534489 185.771955 
L 259.534489 187.567336 
L 260.295398 187.567336 
L 260.295398 187.110883 
L 261.056307 187.110883 
L 261.056307 186.65443 
L 261.817216 186.65443 
L 261.817216 189.088845 
L 262.578125 189.088845 
L 262.578125 190.306053 
L 263.339034 190.306053 
L 263.339034 189.697449 
L 264.099943 189.697449 
L 264.099943 192.588317 
L 264.860852 192.588317 
L 264.860852 190.701645 
L 265.621761 190.701645 
L 265.621761 193.13606 
L 266.38267 193.13606 
L 266.38267 192.527457 
L 267.14358 192.527457 
L 267.14358 193.349072 
L 267.904489 193.349072 
L 267.904489 194.809721 
L 268.665398 194.809721 
L 268.665398 195.631336 
L 269.426307 195.631336 
L 269.426307 194.992302 
L 270.187216 194.992302 
L 270.187216 195.692196 
L 270.948125 195.692196 
L 270.948125 196.23994 
L 271.709034 196.23994 
L 271.709034 198.157042 
L 272.469943 198.157042 
L 272.469943 199.921992 
L 273.230852 199.921992 
L 273.230852 199.769842 
L 274.75267 199.708981 
L 274.75267 201.686943 
L 275.51358 201.686943 
L 275.51358 201.534792 
L 276.274489 201.534792 
L 276.274489 202.295547 
L 277.035398 202.295547 
L 277.035398 202.417268 
L 277.796307 202.417268 
L 277.796307 202.843291 
L 278.557216 202.843291 
L 278.557216 203.391034 
L 279.318125 203.391034 
L 279.318125 204.699532 
L 280.839943 204.790823 
L 280.839943 205.064694 
L 281.600852 205.064694 
L 281.600852 205.94717 
L 282.361761 205.94717 
L 282.361761 208.259864 
L 283.12267 208.259864 
L 283.12267 207.864272 
L 283.88358 207.864272 
L 283.88358 207.164377 
L 284.644489 207.164377 
L 284.644489 208.898898 
L 285.405398 208.898898 
L 285.405398 207.55997 
L 286.166307 207.55997 
L 286.166307 208.594596 
L 286.927216 208.594596 
L 286.927216 209.872664 
L 287.688125 209.872664 
L 287.688125 209.2032 
L 288.449034 209.2032 
L 288.449034 209.994385 
L 289.209943 209.994385 
L 289.209943 210.84643 
L 289.970852 210.84643 
L 289.970852 211.059442 
L 290.731761 211.059442 
L 290.731761 211.333313 
L 291.49267 211.333313 
L 291.49267 212.124498 
L 292.25358 212.124498 
L 292.25358 212.580951 
L 293.014489 212.580951 
L 293.014489 212.337509 
L 293.775398 212.337509 
L 293.775398 212.824392 
L 294.536307 212.824392 
L 294.536307 212.4288 
L 295.297216 212.4288 
L 295.297216 213.372136 
L 296.058125 213.372136 
L 296.058125 214.224181 
L 297.579943 214.224181 
L 297.579943 214.558913 
L 298.340852 214.558913 
L 298.340852 215.319668 
L 299.101761 215.319668 
L 299.101761 215.045796 
L 299.86267 215.045796 
L 299.86267 215.867411 
L 301.384489 215.958702 
L 301.384489 215.989132 
L 302.145398 215.989132 
L 302.145398 216.749887 
L 302.906307 216.749887 
L 302.906307 216.506445 
L 303.667216 216.506445 
L 303.667216 216.871608 
L 304.428125 216.871608 
L 304.428125 217.510642 
L 306.710852 217.571502 
L 306.710852 217.632362 
L 307.471761 217.632362 
L 307.471761 217.754083 
L 308.23267 217.754083 
L 308.23267 218.362687 
L 308.99358 218.362687 
L 308.99358 218.210536 
L 309.754489 218.210536 
L 309.754489 218.423547 
L 310.515398 218.423547 
L 310.515398 218.271396 
L 311.276307 218.271396 
L 311.276307 218.727849 
L 313.559034 218.81914 
L 313.559034 218.88 
L 372.909943 218.88 
L 372.909943 218.88 
" clip-path="url(#p5f47c58f44)" style="fill: none; stroke: #2ca02c; stroke-width: 1.5; stroke-linecap: square"/>
   </g>
   <g id="patch_3">
    <path d="M 53.328125 228.96 
L 53.328125 7.2 
" style="fill: none; stroke: #000000; stroke-width: 0.8; stroke-linejoin: miter; stroke-linecap: square"/>
   </g>
   <g id="patch_4">
    <path d="M 388.128125 228.96 
L 388.128125 7.2 
" style="fill: none; stroke: #000000; stroke-width: 0.8; stroke-linejoin: miter; stroke-linecap: square"/>
   </g>
   <g id="patch_5">
    <path d="M 53.328125 228.96 
L 388.128125 228.96 
" style="fill: none; stroke: #000000; stroke-width: 0.8; stroke-linejoin: miter; stroke-linecap: square"/>
   </g>
   <g id="patch_6">
    <path d="M 53.328125 7.2 
L 388.128125 7.2 
" style="fill: none; stroke: #000000; stroke-width: 0.8; stroke-linejoin: miter; stroke-linecap: square"/>
   </g>
   <g id="legend_1">
    <g id="patch_7">
     <path d="M 306.904688 59.234375 
L 381.128125 59.234375 
Q 383.128125 59.234375 383.128125 57.234375 
L 383.128125 14.2 
Q 383.128125 12.2 381.128125 12.2 
L 306.904688 12.2 
Q 304.904688 12.2 304.904688 14.2 
L 304.904688 57.234375 
Q 304.904688 59.234375 306.904688 59.234375 
z
" style="fill: #ffffff; opacity: 0.8; stroke: #cccccc; stroke-linejoin: miter"/>
    </g>
    <g id="line2d_19">
     <path d="M 308.904688 20.298438 
L 308.904688 20.298438 
L 318.904688 20.298438 
L 318.904688 20.298438 
L 328.904688 20.298438 
" style="fill: none; stroke: #1f77b4; stroke-width: 1.5; stroke-linecap: square"/>
    </g>
    <g id="text_18">
     <!-- monitor -->
     <g transform="translate(336.904688 23.798438) scale(0.1 -0.1)">
      <defs>
       <path id="DejaVuSans-6d" d="M 3328 2828 
Q 3544 3216 3844 3400 
Q 4144 3584 4550 3584 
Q 5097 3584 5394 3201 
Q 5691 2819 5691 2113 
L 5691 0 
L 5113 0 
L 5113 2094 
Q 5113 2597 4934 2840 
Q 4756 3084 4391 3084 
Q 3944 3084 3684 2787 
Q 3425 2491 3425 1978 
L 3425 0 
L 2847 0 
L 2847 2094 
Q 2847 2600 2669 2842 
Q 2491 3084 2119 3084 
Q 1678 3084 1418 2786 
Q 1159 2488 1159 1978 
L 1159 0 
L 581 0 
L 581 3500 
L 1159 3500 
L 1159 2956 
Q 1356 3278 1631 3431 
Q 1906 3584 2284 3584 
Q 2666 3584 2933 3390 
Q 3200 3197 3328 2828 
z
" transform="scale(0.015625)"/>
       <path id="DejaVuSans-69" d="M 603 3500 
L 1178 3500 
L 1178 0 
L 603 0 
L 603 3500 
z
M 603 4863 
L 1178 4863 
L 1178 4134 
L 603 4134 
L 603 4863 
z
" transform="scale(0.015625)"/>
       <path id="DejaVuSans-72" d="M 2631 2963 
Q 2534 3019 2420 3045 
Q 2306 3072 2169 3072 
Q 1681 3072 1420 2755 
Q 1159 2438 1159 1844 
L 1159 0 
L 581 0 
L 581 3500 
L 1159 3500 
L 1159 2956 
Q 1341 3275 1631 3429 
Q 1922 3584 2338 3584 
Q 2397 3584 2469 3576 
Q 2541 3569 2628 3553 
L 2631 2963 
z
" transform="scale(0.015625)"/>
      </defs>
      <use xlink:href="#DejaVuSans-6d"/>
      <use xlink:href="#DejaVuSans-6f" transform="translate(97.412109 0)"/>
      <use xlink:href="#DejaVuSans-6e" transform="translate(158.59375 0)"/>
      <use xlink:href="#DejaVuSans-69" transform="translate(221.972656 0)"/>
      <use xlink:href="#DejaVuSans-74" transform="translate(249.755859 0)"/>
      <use xlink:href="#DejaVuSans-6f" transform="translate(288.964844 0)"/>
      <use xlink:href="#DejaVuSans-72" transform="translate(350.146484 0)"/>
     </g>
    </g>
    <g id="line2d_20">
     <path d="M 308.904688 34.976562 
L 308.904688 34.976562 
L 318.904688 34.976562 
L 318.904688 34.976562 
L 328.904688 34.976562 
" style="fill: none; stroke: #ff7f0e; stroke-width: 1.5; stroke-linecap: square"/>
    </g>
    <g id="text_19">
     <!-- detector -->
     <g transform="translate(336.904688 38.476562) scale(0.1 -0.1)">
      <defs>
       <path id="DejaVuSans-64" d="M 2906 2969 
L 2906 4863 
L 3481 4863 
L 3481 0 
L 2906 0 
L 2906 525 
Q 2725 213 2448 61 
Q 2172 -91 1784 -91 
Q 1150 -91 751 415 
Q 353 922 353 1747 
Q 353 2572 751 3078 
Q 1150 3584 1784 3584 
Q 2172 3584 2448 3432 
Q 2725 3281 2906 2969 
z
M 947 1747 
Q 947 1113 1208 752 
Q 1469 391 1925 391 
Q 2381 391 2643 752 
Q 2906 1113 2906 1747 
Q 2906 2381 2643 2742 
Q 2381 3103 1925 3103 
Q 1469 3103 1208 2742 
Q 947 2381 947 1747 
z
" transform="scale(0.015625)"/>
      </defs>
      <use xlink:href="#DejaVuSans-64"/>
      <use xlink:href="#DejaVuSans-65" transform="translate(63.476562 0)"/>
      <use xlink:href="#DejaVuSans-74" transform="translate(125 0)"/>
      <use xlink:href="#DejaVuSans-65" transform="translate(164.208984 0)"/>
      <use xlink:href="#DejaVuSans-63" transform="translate(225.732422 0)"/>
      <use xlink:href="#DejaVuSans-74" transform="translate(280.712891 0)"/>
      <use xlink:href="#DejaVuSans-6f" transform="translate(319.921875 0)"/>
      <use xlink:href="#DejaVuSans-72" transform="translate(381.103516 0)"/>
     </g>
    </g>
    <g id="line2d_21">
     <path d="M 308.904688 49.654688 
L 308.904688 49.654688 
L 318.904688 49.654688 
L 318.904688 49.654688 
L 328.904688 49.654688 
" style="fill: none; stroke: #2ca02c; stroke-width: 1.5; stroke-linecap: square"/>
    </g>
    <g id="text_20">
     <!-- true -->
     <g transform="translate(336.904688 53.154688) scale(0.1 -0.1)">
      <use xlink:href="#DejaVuSans-74"/>
      <use xlink:href="#DejaVuSans-72" transform="translate(39.208984 0)"/>
      <use xlink:href="#DejaVuSans-75" transform="translate(80.322266 0)"/>
      <use xlink:href="#DejaVuSans-65" transform="translate(143.701172 0)"/>
     </g>
    </g>
   </g>
  </g>
 </g>
 <defs>
  <clipPath id="p5f47c58f44">
   <rect x="53.328125" y="7.2" width="334.8" height="221.76"/>
  </clipPath>
 </defs>
</svg>
