<?xml version="1.0" encoding="utf-8" standalone="no"?>
<!DOCTYPE svg PUBLIC "-//W3C//DTD SVG 1.1//EN"
  "http://www.w3.org/Graphics/SVG/1.1/DTD/svg11.dtd">
<svg xmlns:xlink="http://www.w3.org/1999/xlink" width="872.39952pt" height="296.39952pt" viewBox="0 0 872.39952 296.39952" xmlns="http://www.w3.org/2000/svg" version="1.1">
 <metadata>
  <rdf:RDF xmlns:dc="http://purl.org/dc/elements/1.1/" xmlns:cc="http://creativecommons.org/ns#" xmlns:rdf="http://www.w3.org/1999/02/22-rdf-syntax-ns#">
   <cc:Work>
    <dc:type rdf:resource="http://purl.org/dc/dcmitype/StillImage"/>
    <dc:date>2025-03-17T10:46:58.498729</dc:date>
    <dc:format>image/svg+xml</dc:format>
    <dc:creator>
     <cc:Agent>
      <dc:title>Matplotlib v3.10.0, https://matplotlib.org/</dc:title>
     </cc:Agent>
    </dc:creator>
   </cc:Work>
  </rdf:RDF>
 </metadata>
 <defs>
  <style type="text/css">*{stroke-linejoin: round; stroke-linecap: butt}</style>
 </defs>
 <g id="figure_1">
  <g id="patch_1">
   <path d="M 0 296.39952 
L 872.39952 296.39952 
L 872.39952 0 
L 0 0 
z
" style="fill: #ffffff"/>
  </g>
  <g id="axes_1">
   <g id="patch_2">
    <path d="M 46.965625 257.158895 
L 431.87976 257.158895 
L 431.87976 22.318125 
L 46.965625 22.318125 
z
" style="fill: #ffffff"/>
   </g>
   <g id="matplotlib.axis_1">
    <g id="xtick_1">
     <g id="line2d_1">
      <defs>
       <path id="mda8e7e8886" d="M 0 0 
L 0 3.5 
" style="stroke: #000000; stroke-width: 0.8"/>
      </defs>
      <g>
       <use xlink:href="#mda8e7e8886" x="82.878666" y="257.158895" style="stroke: #000000; stroke-width: 0.8"/>
      </g>
     </g>
     <g id="text_1">
      <!-- 1.0 -->
      <g transform="translate(74.927104 271.757332) scale(0.1 -0.1)">
       <defs>
        <path id="DejaVuSans-31" d="M 794 531 
L 1825 531 
L 1825 4091 
L 703 3866 
L 703 4441 
L 1819 4666 
L 2450 4666 
L 2450 531 
L 3481 531 
L 3481 0 
L 794 0 
L 794 531 
z
" transform="scale(0.015625)"/>
        <path id="DejaVuSans-2e" d="M 684 794 
L 1344 794 
L 1344 0 
L 684 0 
L 684 794 
z
" transform="scale(0.015625)"/>
        <path id="DejaVuSans-30" d="M 2034 4250 
Q 1547 4250 1301 3770 
Q 1056 3291 1056 2328 
Q 1056 1369 1301 889 
Q 1547 409 2034 409 
Q 2525 409 2770 889 
Q 3016 1369 3016 2328 
Q 3016 3291 2770 3770 
Q 2525 4250 2034 4250 
z
M 2034 4750 
Q 2819 4750 3233 4129 
Q 3647 3509 3647 2328 
Q 3647 1150 3233 529 
Q 2819 -91 2034 -91 
Q 1250 -91 836 529 
Q 422 1150 422 2328 
Q 422 3509 836 4129 
Q 1250 4750 2034 4750 
z
" transform="scale(0.015625)"/>
       </defs>
       <use xlink:href="#DejaVuSans-31"/>
       <use xlink:href="#DejaVuSans-2e" transform="translate(63.623047 0)"/>
       <use xlink:href="#DejaVuSans-30" transform="translate(95.410156 0)"/>
      </g>
     </g>
    </g>
    <g id="xtick_2">
     <g id="line2d_2">
      <g>
       <use xlink:href="#mda8e7e8886" x="128.921027" y="257.158895" style="stroke: #000000; stroke-width: 0.8"/>
      </g>
     </g>
     <g id="text_2">
      <!-- 1.5 -->
      <g transform="translate(120.969464 271.757332) scale(0.1 -0.1)">
       <defs>
        <path id="DejaVuSans-35" d="M 691 4666 
L 3169 4666 
L 3169 4134 
L 1269 4134 
L 1269 2991 
Q 1406 3038 1543 3061 
Q 1681 3084 1819 3084 
Q 2600 3084 3056 2656 
Q 3513 2228 3513 1497 
Q 3513 744 3044 326 
Q 2575 -91 1722 -91 
Q 1428 -91 1123 -41 
Q 819 9 494 109 
L 494 744 
Q 775 591 1075 516 
Q 1375 441 1709 441 
Q 2250 441 2565 725 
Q 2881 1009 2881 1497 
Q 2881 1984 2565 2268 
Q 2250 2553 1709 2553 
Q 1456 2553 1204 2497 
Q 953 2441 691 2322 
L 691 4666 
z
" transform="scale(0.015625)"/>
       </defs>
       <use xlink:href="#DejaVuSans-31"/>
       <use xlink:href="#DejaVuSans-2e" transform="translate(63.623047 0)"/>
       <use xlink:href="#DejaVuSans-35" transform="translate(95.410156 0)"/>
      </g>
     </g>
    </g>
    <g id="xtick_3">
     <g id="line2d_3">
      <g>
       <use xlink:href="#mda8e7e8886" x="174.963388" y="257.158895" style="stroke: #000000; stroke-width: 0.8"/>
      </g>
     </g>
     <g id="text_3">
      <!-- 2.0 -->
      <g transform="translate(167.011825 271.757332) scale(0.1 -0.1)">
       <defs>
        <path id="DejaVuSans-32" d="M 1228 531 
L 3431 531 
L 3431 0 
L 469 0 
L 469 531 
Q 828 903 1448 1529 
Q 2069 2156 2228 2338 
Q 2531 2678 2651 2914 
Q 2772 3150 2772 3378 
Q 2772 3750 2511 3984 
Q 2250 4219 1831 4219 
Q 1534 4219 1204 4116 
Q 875 4013 500 3803 
L 500 4441 
Q 881 4594 1212 4672 
Q 1544 4750 1819 4750 
Q 2544 4750 2975 4387 
Q 3406 4025 3406 3419 
Q 3406 3131 3298 2873 
Q 3191 2616 2906 2266 
Q 2828 2175 2409 1742 
Q 1991 1309 1228 531 
z
" transform="scale(0.015625)"/>
       </defs>
       <use xlink:href="#DejaVuSans-32"/>
       <use xlink:href="#DejaVuSans-2e" transform="translate(63.623047 0)"/>
       <use xlink:href="#DejaVuSans-30" transform="translate(95.410156 0)"/>
      </g>
     </g>
    </g>
    <g id="xtick_4">
     <g id="line2d_4">
      <g>
       <use xlink:href="#mda8e7e8886" x="221.005748" y="257.158895" style="stroke: #000000; stroke-width: 0.8"/>
      </g>
     </g>
     <g id="text_4">
      <!-- 2.5 -->
      <g transform="translate(213.054186 271.757332) scale(0.1 -0.1)">
       <use xlink:href="#DejaVuSans-32"/>
       <use xlink:href="#DejaVuSans-2e" transform="translate(63.623047 0)"/>
       <use xlink:href="#DejaVuSans-35" transform="translate(95.410156 0)"/>
      </g>
     </g>
    </g>
    <g id="xtick_5">
     <g id="line2d_5">
      <g>
       <use xlink:href="#mda8e7e8886" x="267.048109" y="257.158895" style="stroke: #000000; stroke-width: 0.8"/>
      </g>
     </g>
     <g id="text_5">
      <!-- 3.0 -->
      <g transform="translate(259.096546 271.757332) scale(0.1 -0.1)">
       <defs>
        <path id="DejaVuSans-33" d="M 2597 2516 
Q 3050 2419 3304 2112 
Q 3559 1806 3559 1356 
Q 3559 666 3084 287 
Q 2609 -91 1734 -91 
Q 1441 -91 1130 -33 
Q 819 25 488 141 
L 488 750 
Q 750 597 1062 519 
Q 1375 441 1716 441 
Q 2309 441 2620 675 
Q 2931 909 2931 1356 
Q 2931 1769 2642 2001 
Q 2353 2234 1838 2234 
L 1294 2234 
L 1294 2753 
L 1863 2753 
Q 2328 2753 2575 2939 
Q 2822 3125 2822 3475 
Q 2822 3834 2567 4026 
Q 2313 4219 1838 4219 
Q 1578 4219 1281 4162 
Q 984 4106 628 3988 
L 628 4550 
Q 988 4650 1302 4700 
Q 1616 4750 1894 4750 
Q 2613 4750 3031 4423 
Q 3450 4097 3450 3541 
Q 3450 3153 3228 2886 
Q 3006 2619 2597 2516 
z
" transform="scale(0.015625)"/>
       </defs>
       <use xlink:href="#DejaVuSans-33"/>
       <use xlink:href="#DejaVuSans-2e" transform="translate(63.623047 0)"/>
       <use xlink:href="#DejaVuSans-30" transform="translate(95.410156 0)"/>
      </g>
     </g>
    </g>
    <g id="xtick_6">
     <g id="line2d_6">
      <g>
       <use xlink:href="#mda8e7e8886" x="313.09047" y="257.158895" style="stroke: #000000; stroke-width: 0.8"/>
      </g>
     </g>
     <g id="text_6">
      <!-- 3.5 -->
      <g transform="translate(305.138907 271.757332) scale(0.1 -0.1)">
       <use xlink:href="#DejaVuSans-33"/>
       <use xlink:href="#DejaVuSans-2e" transform="translate(63.623047 0)"/>
       <use xlink:href="#DejaVuSans-35" transform="translate(95.410156 0)"/>
      </g>
     </g>
    </g>
    <g id="xtick_7">
     <g id="line2d_7">
      <g>
       <use xlink:href="#mda8e7e8886" x="359.13283" y="257.158895" style="stroke: #000000; stroke-width: 0.8"/>
      </g>
     </g>
     <g id="text_7">
      <!-- 4.0 -->
      <g transform="translate(351.181268 271.757332) scale(0.1 -0.1)">
       <defs>
        <path id="DejaVuSans-34" d="M 2419 4116 
L 825 1625 
L 2419 1625 
L 2419 4116 
z
M 2253 4666 
L 3047 4666 
L 3047 1625 
L 3713 1625 
L 3713 1100 
L 3047 1100 
L 3047 0 
L 2419 0 
L 2419 1100 
L 313 1100 
L 313 1709 
L 2253 4666 
z
" transform="scale(0.015625)"/>
       </defs>
       <use xlink:href="#DejaVuSans-34"/>
       <use xlink:href="#DejaVuSans-2e" transform="translate(63.623047 0)"/>
       <use xlink:href="#DejaVuSans-30" transform="translate(95.410156 0)"/>
      </g>
     </g>
    </g>
    <g id="xtick_8">
     <g id="line2d_8">
      <g>
       <use xlink:href="#mda8e7e8886" x="405.175191" y="257.158895" style="stroke: #000000; stroke-width: 0.8"/>
      </g>
     </g>
     <g id="text_8">
      <!-- 4.5 -->
      <g transform="translate(397.223628 271.757332) scale(0.1 -0.1)">
       <use xlink:href="#DejaVuSans-34"/>
       <use xlink:href="#DejaVuSans-2e" transform="translate(63.623047 0)"/>
       <use xlink:href="#DejaVuSans-35" transform="translate(95.410156 0)"/>
      </g>
     </g>
    </g>
    <g id="text_9">
     <!-- wavelength [Å] -->
     <g transform="translate(201.385193 287.119832) scale(0.1 -0.1)">
      <defs>
       <path id="DejaVuSans-77" d="M 269 3500 
L 844 3500 
L 1563 769 
L 2278 3500 
L 2956 3500 
L 3675 769 
L 4391 3500 
L 4966 3500 
L 4050 0 
L 3372 0 
L 2619 2869 
L 1863 0 
L 1184 0 
L 269 3500 
z
" transform="scale(0.015625)"/>
       <path id="DejaVuSans-61" d="M 2194 1759 
Q 1497 1759 1228 1600 
Q 959 1441 959 1056 
Q 959 750 1161 570 
Q 1363 391 1709 391 
Q 2188 391 2477 730 
Q 2766 1069 2766 1631 
L 2766 1759 
L 2194 1759 
z
M 3341 1997 
L 3341 0 
L 2766 0 
L 2766 531 
Q 2569 213 2275 61 
Q 1981 -91 1556 -91 
Q 1019 -91 701 211 
Q 384 513 384 1019 
Q 384 1609 779 1909 
Q 1175 2209 1959 2209 
L 2766 2209 
L 2766 2266 
Q 2766 2663 2505 2880 
Q 2244 3097 1772 3097 
Q 1472 3097 1187 3025 
Q 903 2953 641 2809 
L 641 3341 
Q 956 3463 1253 3523 
Q 1550 3584 1831 3584 
Q 2591 3584 2966 3190 
Q 3341 2797 3341 1997 
z
" transform="scale(0.015625)"/>
       <path id="DejaVuSans-76" d="M 191 3500 
L 800 3500 
L 1894 563 
L 2988 3500 
L 3597 3500 
L 2284 0 
L 1503 0 
L 191 3500 
z
" transform="scale(0.015625)"/>
       <path id="DejaVuSans-65" d="M 3597 1894 
L 3597 1613 
L 953 1613 
Q 991 1019 1311 708 
Q 1631 397 2203 397 
Q 2534 397 2845 478 
Q 3156 559 3463 722 
L 3463 178 
Q 3153 47 2828 -22 
Q 2503 -91 2169 -91 
Q 1331 -91 842 396 
Q 353 884 353 1716 
Q 353 2575 817 3079 
Q 1281 3584 2069 3584 
Q 2775 3584 3186 3129 
Q 3597 2675 3597 1894 
z
M 3022 2063 
Q 3016 2534 2758 2815 
Q 2500 3097 2075 3097 
Q 1594 3097 1305 2825 
Q 1016 2553 972 2059 
L 3022 2063 
z
" transform="scale(0.015625)"/>
       <path id="DejaVuSans-6c" d="M 603 4863 
L 1178 4863 
L 1178 0 
L 603 0 
L 603 4863 
z
" transform="scale(0.015625)"/>
       <path id="DejaVuSans-6e" d="M 3513 2113 
L 3513 0 
L 2938 0 
L 2938 2094 
Q 2938 2591 2744 2837 
Q 2550 3084 2163 3084 
Q 1697 3084 1428 2787 
Q 1159 2491 1159 1978 
L 1159 0 
L 581 0 
L 581 3500 
L 1159 3500 
L 1159 2956 
Q 1366 3272 1645 3428 
Q 1925 3584 2291 3584 
Q 2894 3584 3203 3211 
Q 3513 2838 3513 2113 
z
" transform="scale(0.015625)"/>
       <path id="DejaVuSans-67" d="M 2906 1791 
Q 2906 2416 2648 2759 
Q 2391 3103 1925 3103 
Q 1463 3103 1205 2759 
Q 947 2416 947 1791 
Q 947 1169 1205 825 
Q 1463 481 1925 481 
Q 2391 481 2648 825 
Q 2906 1169 2906 1791 
z
M 3481 434 
Q 3481 -459 3084 -895 
Q 2688 -1331 1869 -1331 
Q 1566 -1331 1297 -1286 
Q 1028 -1241 775 -1147 
L 775 -588 
Q 1028 -725 1275 -790 
Q 1522 -856 1778 -856 
Q 2344 -856 2625 -561 
Q 2906 -266 2906 331 
L 2906 616 
Q 2728 306 2450 153 
Q 2172 0 1784 0 
Q 1141 0 747 490 
Q 353 981 353 1791 
Q 353 2603 747 3093 
Q 1141 3584 1784 3584 
Q 2172 3584 2450 3431 
Q 2728 3278 2906 2969 
L 2906 3500 
L 3481 3500 
L 3481 434 
z
" transform="scale(0.015625)"/>
       <path id="DejaVuSans-74" d="M 1172 4494 
L 1172 3500 
L 2356 3500 
L 2356 3053 
L 1172 3053 
L 1172 1153 
Q 1172 725 1289 603 
Q 1406 481 1766 481 
L 2356 481 
L 2356 0 
L 1766 0 
Q 1100 0 847 248 
Q 594 497 594 1153 
L 594 3053 
L 172 3053 
L 172 3500 
L 594 3500 
L 594 4494 
L 1172 4494 
z
" transform="scale(0.015625)"/>
       <path id="DejaVuSans-68" d="M 3513 2113 
L 3513 0 
L 2938 0 
L 2938 2094 
Q 2938 2591 2744 2837 
Q 2550 3084 2163 3084 
Q 1697 3084 1428 2787 
Q 1159 2491 1159 1978 
L 1159 0 
L 581 0 
L 581 4863 
L 1159 4863 
L 1159 2956 
Q 1366 3272 1645 3428 
Q 1925 3584 2291 3584 
Q 2894 3584 3203 3211 
Q 3513 2838 3513 2113 
z
" transform="scale(0.015625)"/>
       <path id="DejaVuSans-20" transform="scale(0.015625)"/>
       <path id="DejaVuSans-5b" d="M 550 4863 
L 1875 4863 
L 1875 4416 
L 1125 4416 
L 1125 -397 
L 1875 -397 
L 1875 -844 
L 550 -844 
L 550 4863 
z
" transform="scale(0.015625)"/>
       <path id="DejaVuSans-c5" d="M 2663 5081 
Q 2663 5278 2523 5417 
Q 2384 5556 2188 5556 
Q 1988 5556 1852 5420 
Q 1716 5284 1716 5081 
Q 1716 4884 1853 4746 
Q 1991 4609 2188 4609 
Q 2384 4609 2523 4746 
Q 2663 4884 2663 5081 
z
M 2188 4044 
L 1338 1722 
L 3041 1722 
L 2188 4044 
z
M 1716 4366 
Q 1525 4494 1428 4673 
Q 1331 4853 1331 5081 
Q 1331 5441 1579 5691 
Q 1828 5941 2188 5941 
Q 2544 5941 2795 5689 
Q 3047 5438 3047 5081 
Q 3047 4863 2948 4678 
Q 2850 4494 2663 4366 
L 4325 0 
L 3669 0 
L 3244 1197 
L 1141 1197 
L 716 0 
L 50 0 
L 1716 4366 
z
" transform="scale(0.015625)"/>
       <path id="DejaVuSans-5d" d="M 1947 4863 
L 1947 -844 
L 622 -844 
L 622 -397 
L 1369 -397 
L 1369 4416 
L 622 4416 
L 622 4863 
L 1947 4863 
z
" transform="scale(0.015625)"/>
      </defs>
      <use xlink:href="#DejaVuSans-77"/>
      <use xlink:href="#DejaVuSans-61" transform="translate(81.787109 0)"/>
      <use xlink:href="#DejaVuSans-76" transform="translate(143.066406 0)"/>
      <use xlink:href="#DejaVuSans-65" transform="translate(202.246094 0)"/>
      <use xlink:href="#DejaVuSans-6c" transform="translate(263.769531 0)"/>
      <use xlink:href="#DejaVuSans-65" transform="translate(291.552734 0)"/>
      <use xlink:href="#DejaVuSans-6e" transform="translate(353.076172 0)"/>
      <use xlink:href="#DejaVuSans-67" transform="translate(416.455078 0)"/>
      <use xlink:href="#DejaVuSans-74" transform="translate(479.931641 0)"/>
      <use xlink:href="#DejaVuSans-68" transform="translate(519.140625 0)"/>
      <use xlink:href="#DejaVuSans-20" transform="translate(582.519531 0)"/>
      <use xlink:href="#DejaVuSans-5b" transform="translate(614.306641 0)"/>
      <use xlink:href="#DejaVuSans-c5" transform="translate(653.320312 0)"/>
      <use xlink:href="#DejaVuSans-5d" transform="translate(721.728516 0)"/>
     </g>
    </g>
   </g>
   <g id="matplotlib.axis_2">
    <g id="ytick_1">
     <g id="line2d_9">
      <defs>
       <path id="m063a85e65d" d="M 0 0 
L -3.5 0 
" style="stroke: #000000; stroke-width: 0.8"/>
      </defs>
      <g>
       <use xlink:href="#m063a85e65d" x="46.965625" y="246.484315" style="stroke: #000000; stroke-width: 0.8"/>
      </g>
     </g>
     <g id="text_10">
      <!-- 0 -->
      <g transform="translate(33.603125 250.283533) scale(0.1 -0.1)">
       <use xlink:href="#DejaVuSans-30"/>
      </g>
     </g>
    </g>
    <g id="ytick_2">
     <g id="line2d_10">
      <g>
       <use xlink:href="#m063a85e65d" x="46.965625" y="220.224584" style="stroke: #000000; stroke-width: 0.8"/>
      </g>
     </g>
     <g id="text_11">
      <!-- 100 -->
      <g transform="translate(20.878125 224.023803) scale(0.1 -0.1)">
       <use xlink:href="#DejaVuSans-31"/>
       <use xlink:href="#DejaVuSans-30" transform="translate(63.623047 0)"/>
       <use xlink:href="#DejaVuSans-30" transform="translate(127.246094 0)"/>
      </g>
     </g>
    </g>
    <g id="ytick_3">
     <g id="line2d_11">
      <g>
       <use xlink:href="#m063a85e65d" x="46.965625" y="193.964854" style="stroke: #000000; stroke-width: 0.8"/>
      </g>
     </g>
     <g id="text_12">
      <!-- 200 -->
      <g transform="translate(20.878125 197.764072) scale(0.1 -0.1)">
       <use xlink:href="#DejaVuSans-32"/>
       <use xlink:href="#DejaVuSans-30" transform="translate(63.623047 0)"/>
       <use xlink:href="#DejaVuSans-30" transform="translate(127.246094 0)"/>
      </g>
     </g>
    </g>
    <g id="ytick_4">
     <g id="line2d_12">
      <g>
       <use xlink:href="#m063a85e65d" x="46.965625" y="167.705123" style="stroke: #000000; stroke-width: 0.8"/>
      </g>
     </g>
     <g id="text_13">
      <!-- 300 -->
      <g transform="translate(20.878125 171.504342) scale(0.1 -0.1)">
       <use xlink:href="#DejaVuSans-33"/>
       <use xlink:href="#DejaVuSans-30" transform="translate(63.623047 0)"/>
       <use xlink:href="#DejaVuSans-30" transform="translate(127.246094 0)"/>
      </g>
     </g>
    </g>
    <g id="ytick_5">
     <g id="line2d_13">
      <g>
       <use xlink:href="#m063a85e65d" x="46.965625" y="141.445392" style="stroke: #000000; stroke-width: 0.8"/>
      </g>
     </g>
     <g id="text_14">
      <!-- 400 -->
      <g transform="translate(20.878125 145.244611) scale(0.1 -0.1)">
       <use xlink:href="#DejaVuSans-34"/>
       <use xlink:href="#DejaVuSans-30" transform="translate(63.623047 0)"/>
       <use xlink:href="#DejaVuSans-30" transform="translate(127.246094 0)"/>
      </g>
     </g>
    </g>
    <g id="ytick_6">
     <g id="line2d_14">
      <g>
       <use xlink:href="#m063a85e65d" x="46.965625" y="115.185662" style="stroke: #000000; stroke-width: 0.8"/>
      </g>
     </g>
     <g id="text_15">
      <!-- 500 -->
      <g transform="translate(20.878125 118.984881) scale(0.1 -0.1)">
       <use xlink:href="#DejaVuSans-35"/>
       <use xlink:href="#DejaVuSans-30" transform="translate(63.623047 0)"/>
       <use xlink:href="#DejaVuSans-30" transform="translate(127.246094 0)"/>
      </g>
     </g>
    </g>
    <g id="ytick_7">
     <g id="line2d_15">
      <g>
       <use xlink:href="#m063a85e65d" x="46.965625" y="88.925931" style="stroke: #000000; stroke-width: 0.8"/>
      </g>
     </g>
     <g id="text_16">
      <!-- 600 -->
      <g transform="translate(20.878125 92.72515) scale(0.1 -0.1)">
       <defs>
        <path id="DejaVuSans-36" d="M 2113 2584 
Q 1688 2584 1439 2293 
Q 1191 2003 1191 1497 
Q 1191 994 1439 701 
Q 1688 409 2113 409 
Q 2538 409 2786 701 
Q 3034 994 3034 1497 
Q 3034 2003 2786 2293 
Q 2538 2584 2113 2584 
z
M 3366 4563 
L 3366 3988 
Q 3128 4100 2886 4159 
Q 2644 4219 2406 4219 
Q 1781 4219 1451 3797 
Q 1122 3375 1075 2522 
Q 1259 2794 1537 2939 
Q 1816 3084 2150 3084 
Q 2853 3084 3261 2657 
Q 3669 2231 3669 1497 
Q 3669 778 3244 343 
Q 2819 -91 2113 -91 
Q 1303 -91 875 529 
Q 447 1150 447 2328 
Q 447 3434 972 4092 
Q 1497 4750 2381 4750 
Q 2619 4750 2861 4703 
Q 3103 4656 3366 4563 
z
" transform="scale(0.015625)"/>
       </defs>
       <use xlink:href="#DejaVuSans-36"/>
       <use xlink:href="#DejaVuSans-30" transform="translate(63.623047 0)"/>
       <use xlink:href="#DejaVuSans-30" transform="translate(127.246094 0)"/>
      </g>
     </g>
    </g>
    <g id="ytick_8">
     <g id="line2d_16">
      <g>
       <use xlink:href="#m063a85e65d" x="46.965625" y="62.666201" style="stroke: #000000; stroke-width: 0.8"/>
      </g>
     </g>
     <g id="text_17">
      <!-- 700 -->
      <g transform="translate(20.878125 66.46542) scale(0.1 -0.1)">
       <defs>
        <path id="DejaVuSans-37" d="M 525 4666 
L 3525 4666 
L 3525 4397 
L 1831 0 
L 1172 0 
L 2766 4134 
L 525 4134 
L 525 4666 
z
" transform="scale(0.015625)"/>
       </defs>
       <use xlink:href="#DejaVuSans-37"/>
       <use xlink:href="#DejaVuSans-30" transform="translate(63.623047 0)"/>
       <use xlink:href="#DejaVuSans-30" transform="translate(127.246094 0)"/>
      </g>
     </g>
    </g>
    <g id="ytick_9">
     <g id="line2d_17">
      <g>
       <use xlink:href="#m063a85e65d" x="46.965625" y="36.40647" style="stroke: #000000; stroke-width: 0.8"/>
      </g>
     </g>
     <g id="text_18">
      <!-- 800 -->
      <g transform="translate(20.878125 40.205689) scale(0.1 -0.1)">
       <defs>
        <path id="DejaVuSans-38" d="M 2034 2216 
Q 1584 2216 1326 1975 
Q 1069 1734 1069 1313 
Q 1069 891 1326 650 
Q 1584 409 2034 409 
Q 2484 409 2743 651 
Q 3003 894 3003 1313 
Q 3003 1734 2745 1975 
Q 2488 2216 2034 2216 
z
M 1403 2484 
Q 997 2584 770 2862 
Q 544 3141 544 3541 
Q 544 4100 942 4425 
Q 1341 4750 2034 4750 
Q 2731 4750 3128 4425 
Q 3525 4100 3525 3541 
Q 3525 3141 3298 2862 
Q 3072 2584 2669 2484 
Q 3125 2378 3379 2068 
Q 3634 1759 3634 1313 
Q 3634 634 3220 271 
Q 2806 -91 2034 -91 
Q 1263 -91 848 271 
Q 434 634 434 1313 
Q 434 1759 690 2068 
Q 947 2378 1403 2484 
z
M 1172 3481 
Q 1172 3119 1398 2916 
Q 1625 2713 2034 2713 
Q 2441 2713 2670 2916 
Q 2900 3119 2900 3481 
Q 2900 3844 2670 4047 
Q 2441 4250 2034 4250 
Q 1625 4250 1398 4047 
Q 1172 3844 1172 3481 
z
" transform="scale(0.015625)"/>
       </defs>
       <use xlink:href="#DejaVuSans-38"/>
       <use xlink:href="#DejaVuSans-30" transform="translate(63.623047 0)"/>
       <use xlink:href="#DejaVuSans-30" transform="translate(127.246094 0)"/>
      </g>
     </g>
    </g>
    <g id="text_19">
     <!-- [counts] -->
     <g transform="translate(14.798437 160.35101) rotate(-90) scale(0.1 -0.1)">
      <defs>
       <path id="DejaVuSans-63" d="M 3122 3366 
L 3122 2828 
Q 2878 2963 2633 3030 
Q 2388 3097 2138 3097 
Q 1578 3097 1268 2742 
Q 959 2388 959 1747 
Q 959 1106 1268 751 
Q 1578 397 2138 397 
Q 2388 397 2633 464 
Q 2878 531 3122 666 
L 3122 134 
Q 2881 22 2623 -34 
Q 2366 -91 2075 -91 
Q 1284 -91 818 406 
Q 353 903 353 1747 
Q 353 2603 823 3093 
Q 1294 3584 2113 3584 
Q 2378 3584 2631 3529 
Q 2884 3475 3122 3366 
z
" transform="scale(0.015625)"/>
       <path id="DejaVuSans-6f" d="M 1959 3097 
Q 1497 3097 1228 2736 
Q 959 2375 959 1747 
Q 959 1119 1226 758 
Q 1494 397 1959 397 
Q 2419 397 2687 759 
Q 2956 1122 2956 1747 
Q 2956 2369 2687 2733 
Q 2419 3097 1959 3097 
z
M 1959 3584 
Q 2709 3584 3137 3096 
Q 3566 2609 3566 1747 
Q 3566 888 3137 398 
Q 2709 -91 1959 -91 
Q 1206 -91 779 398 
Q 353 888 353 1747 
Q 353 2609 779 3096 
Q 1206 3584 1959 3584 
z
" transform="scale(0.015625)"/>
       <path id="DejaVuSans-75" d="M 544 1381 
L 544 3500 
L 1119 3500 
L 1119 1403 
Q 1119 906 1312 657 
Q 1506 409 1894 409 
Q 2359 409 2629 706 
Q 2900 1003 2900 1516 
L 2900 3500 
L 3475 3500 
L 3475 0 
L 2900 0 
L 2900 538 
Q 2691 219 2414 64 
Q 2138 -91 1772 -91 
Q 1169 -91 856 284 
Q 544 659 544 1381 
z
M 1991 3584 
L 1991 3584 
z
" transform="scale(0.015625)"/>
       <path id="DejaVuSans-73" d="M 2834 3397 
L 2834 2853 
Q 2591 2978 2328 3040 
Q 2066 3103 1784 3103 
Q 1356 3103 1142 2972 
Q 928 2841 928 2578 
Q 928 2378 1081 2264 
Q 1234 2150 1697 2047 
L 1894 2003 
Q 2506 1872 2764 1633 
Q 3022 1394 3022 966 
Q 3022 478 2636 193 
Q 2250 -91 1575 -91 
Q 1294 -91 989 -36 
Q 684 19 347 128 
L 347 722 
Q 666 556 975 473 
Q 1284 391 1588 391 
Q 1994 391 2212 530 
Q 2431 669 2431 922 
Q 2431 1156 2273 1281 
Q 2116 1406 1581 1522 
L 1381 1569 
Q 847 1681 609 1914 
Q 372 2147 372 2553 
Q 372 3047 722 3315 
Q 1072 3584 1716 3584 
Q 2034 3584 2315 3537 
Q 2597 3491 2834 3397 
z
" transform="scale(0.015625)"/>
      </defs>
      <use xlink:href="#DejaVuSans-5b"/>
      <use xlink:href="#DejaVuSans-63" transform="translate(39.013672 0)"/>
      <use xlink:href="#DejaVuSans-6f" transform="translate(93.994141 0)"/>
      <use xlink:href="#DejaVuSans-75" transform="translate(155.175781 0)"/>
      <use xlink:href="#DejaVuSans-6e" transform="translate(218.554688 0)"/>
      <use xlink:href="#DejaVuSans-74" transform="translate(281.933594 0)"/>
      <use xlink:href="#DejaVuSans-73" transform="translate(321.142578 0)"/>
      <use xlink:href="#DejaVuSans-5d" transform="translate(373.242188 0)"/>
     </g>
    </g>
   </g>
   <g id="patch_3">
    <path d="M 46.965625 257.158895 
L 46.965625 22.318125 
" style="fill: none; stroke: #000000; stroke-width: 0.8; stroke-linejoin: miter; stroke-linecap: square"/>
   </g>
   <g id="patch_4">
    <path d="M 431.87976 257.158895 
L 431.87976 22.318125 
" style="fill: none; stroke: #000000; stroke-width: 0.8; stroke-linejoin: miter; stroke-linecap: square"/>
   </g>
   <g id="patch_5">
    <path d="M 46.965625 257.158895 
L 431.87976 257.158895 
" style="fill: none; stroke: #000000; stroke-width: 0.8; stroke-linejoin: miter; stroke-linecap: square"/>
   </g>
   <g id="patch_6">
    <path d="M 46.965625 22.318125 
L 431.87976 22.318125 
" style="fill: none; stroke: #000000; stroke-width: 0.8; stroke-linejoin: miter; stroke-linecap: square"/>
   </g>
   <g id="text_20">
    <!-- Pixel 1 -->
    <g transform="translate(219.82613 16.318125) scale(0.12 -0.12)">
     <defs>
      <path id="DejaVuSans-50" d="M 1259 4147 
L 1259 2394 
L 2053 2394 
Q 2494 2394 2734 2622 
Q 2975 2850 2975 3272 
Q 2975 3691 2734 3919 
Q 2494 4147 2053 4147 
L 1259 4147 
z
M 628 4666 
L 2053 4666 
Q 2838 4666 3239 4311 
Q 3641 3956 3641 3272 
Q 3641 2581 3239 2228 
Q 2838 1875 2053 1875 
L 1259 1875 
L 1259 0 
L 628 0 
L 628 4666 
z
" transform="scale(0.015625)"/>
      <path id="DejaVuSans-69" d="M 603 3500 
L 1178 3500 
L 1178 0 
L 603 0 
L 603 3500 
z
M 603 4863 
L 1178 4863 
L 1178 4134 
L 603 4134 
L 603 4863 
z
" transform="scale(0.015625)"/>
      <path id="DejaVuSans-78" d="M 3513 3500 
L 2247 1797 
L 3578 0 
L 2900 0 
L 1881 1375 
L 863 0 
L 184 0 
L 1544 1831 
L 300 3500 
L 978 3500 
L 1906 2253 
L 2834 3500 
L 3513 3500 
z
" transform="scale(0.015625)"/>
     </defs>
     <use xlink:href="#DejaVuSans-50"/>
     <use xlink:href="#DejaVuSans-69" transform="translate(58.052734 0)"/>
     <use xlink:href="#DejaVuSans-78" transform="translate(85.835938 0)"/>
     <use xlink:href="#DejaVuSans-65" transform="translate(141.890625 0)"/>
     <use xlink:href="#DejaVuSans-6c" transform="translate(203.414062 0)"/>
     <use xlink:href="#DejaVuSans-20" transform="translate(231.197266 0)"/>
     <use xlink:href="#DejaVuSans-31" transform="translate(262.984375 0)"/>
    </g>
   </g>
   <g id="legend_1">
    <g id="patch_7">
     <path d="M 327.876635 59.9525 
L 424.87976 59.9525 
Q 426.87976 59.9525 426.87976 57.9525 
L 426.87976 29.318125 
Q 426.87976 27.318125 424.87976 27.318125 
L 327.876635 27.318125 
Q 325.876635 27.318125 325.876635 29.318125 
L 325.876635 57.9525 
Q 325.876635 59.9525 327.876635 59.9525 
z
" style="fill: #ffffff; opacity: 0.8; stroke: #cccccc; stroke-linejoin: miter"/>
    </g>
    <g id="line2d_18">
     <path d="M 329.876635 35.416562 
L 329.876635 35.416562 
L 339.876635 35.416562 
L 339.876635 35.416562 
L 349.876635 35.416562 
" style="fill: none; stroke: #1f77b4; stroke-width: 1.5; stroke-linecap: square"/>
    </g>
    <g id="text_21">
     <!-- wfm -->
     <g transform="translate(357.876635 38.916562) scale(0.1 -0.1)">
      <defs>
       <path id="DejaVuSans-66" d="M 2375 4863 
L 2375 4384 
L 1825 4384 
Q 1516 4384 1395 4259 
Q 1275 4134 1275 3809 
L 1275 3500 
L 2222 3500 
L 2222 3053 
L 1275 3053 
L 1275 0 
L 697 0 
L 697 3053 
L 147 3053 
L 147 3500 
L 697 3500 
L 697 3744 
Q 697 4328 969 4595 
Q 1241 4863 1831 4863 
L 2375 4863 
z
" transform="scale(0.015625)"/>
       <path id="DejaVuSans-6d" d="M 3328 2828 
Q 3544 3216 3844 3400 
Q 4144 3584 4550 3584 
Q 5097 3584 5394 3201 
Q 5691 2819 5691 2113 
L 5691 0 
L 5113 0 
L 5113 2094 
Q 5113 2597 4934 2840 
Q 4756 3084 4391 3084 
Q 3944 3084 3684 2787 
Q 3425 2491 3425 1978 
L 3425 0 
L 2847 0 
L 2847 2094 
Q 2847 2600 2669 2842 
Q 2491 3084 2119 3084 
Q 1678 3084 1418 2786 
Q 1159 2488 1159 1978 
L 1159 0 
L 581 0 
L 581 3500 
L 1159 3500 
L 1159 2956 
Q 1356 3278 1631 3431 
Q 1906 3584 2284 3584 
Q 2666 3584 2933 3390 
Q 3200 3197 3328 2828 
z
" transform="scale(0.015625)"/>
      </defs>
      <use xlink:href="#DejaVuSans-77"/>
      <use xlink:href="#DejaVuSans-66" transform="translate(81.787109 0)"/>
      <use xlink:href="#DejaVuSans-6d" transform="translate(116.992188 0)"/>
     </g>
    </g>
    <g id="line2d_19">
     <path d="M 329.876635 50.094687 
L 329.876635 50.094687 
L 339.876635 50.094687 
L 339.876635 50.094687 
L 349.876635 50.094687 
" style="fill: none; stroke: #ff7f0e; stroke-width: 1.5; stroke-linecap: square"/>
    </g>
    <g id="text_22">
     <!-- ground_truth -->
     <g transform="translate(357.876635 53.594687) scale(0.1 -0.1)">
      <defs>
       <path id="DejaVuSans-72" d="M 2631 2963 
Q 2534 3019 2420 3045 
Q 2306 3072 2169 3072 
Q 1681 3072 1420 2755 
Q 1159 2438 1159 1844 
L 1159 0 
L 581 0 
L 581 3500 
L 1159 3500 
L 1159 2956 
Q 1341 3275 1631 3429 
Q 1922 3584 2338 3584 
Q 2397 3584 2469 3576 
Q 2541 3569 2628 3553 
L 2631 2963 
z
" transform="scale(0.015625)"/>
       <path id="DejaVuSans-64" d="M 2906 2969 
L 2906 4863 
L 3481 4863 
L 3481 0 
L 2906 0 
L 2906 525 
Q 2725 213 2448 61 
Q 2172 -91 1784 -91 
Q 1150 -91 751 415 
Q 353 922 353 1747 
Q 353 2572 751 3078 
Q 1150 3584 1784 3584 
Q 2172 3584 2448 3432 
Q 2725 3281 2906 2969 
z
M 947 1747 
Q 947 1113 1208 752 
Q 1469 391 1925 391 
Q 2381 391 2643 752 
Q 2906 1113 2906 1747 
Q 2906 2381 2643 2742 
Q 2381 3103 1925 3103 
Q 1469 3103 1208 2742 
Q 947 2381 947 1747 
z
" transform="scale(0.015625)"/>
       <path id="DejaVuSans-5f" d="M 3263 -1063 
L 3263 -1509 
L -63 -1509 
L -63 -1063 
L 3263 -1063 
z
" transform="scale(0.015625)"/>
      </defs>
      <use xlink:href="#DejaVuSans-67"/>
      <use xlink:href="#DejaVuSans-72" transform="translate(63.476562 0)"/>
      <use xlink:href="#DejaVuSans-6f" transform="translate(102.339844 0)"/>
      <use xlink:href="#DejaVuSans-75" transform="translate(163.521484 0)"/>
      <use xlink:href="#DejaVuSans-6e" transform="translate(226.900391 0)"/>
      <use xlink:href="#DejaVuSans-64" transform="translate(290.279297 0)"/>
      <use xlink:href="#DejaVuSans-5f" transform="translate(353.755859 0)"/>
      <use xlink:href="#DejaVuSans-74" transform="translate(403.755859 0)"/>
      <use xlink:href="#DejaVuSans-72" transform="translate(442.964844 0)"/>
      <use xlink:href="#DejaVuSans-75" transform="translate(484.078125 0)"/>
      <use xlink:href="#DejaVuSans-74" transform="translate(547.457031 0)"/>
      <use xlink:href="#DejaVuSans-68" transform="translate(586.666016 0)"/>
     </g>
    </g>
   </g>
   <g id="line2d_20">
    <path d="M 64.461722 246.484315 
L 73.209771 246.484315 
L 73.209771 243.595744 
L 74.95938 243.595744 
L 74.95938 236.768214 
L 76.70899 236.768214 
L 76.70899 228.890295 
L 78.4586 228.890295 
L 78.4586 220.487181 
L 80.208209 220.487181 
L 80.208209 209.458095 
L 81.957819 209.458095 
L 81.957819 206.306927 
L 83.707429 206.306927 
L 83.707429 196.590827 
L 85.457039 196.590827 
L 85.457039 194.490048 
L 87.206648 194.490048 
L 87.206648 178.73421 
L 88.956258 178.73421 
L 88.956258 175.845639 
L 90.705868 175.845639 
L 90.705868 160.877593 
L 92.455477 160.877593 
L 92.455477 163.240969 
L 94.205087 163.240969 
L 94.205087 154.31266 
L 95.954697 154.31266 
L 95.954697 133.042279 
L 97.704306 133.042279 
L 97.704306 125.426957 
L 99.453916 125.426957 
L 99.453916 117.811635 
L 101.203526 117.811635 
L 101.203526 119.124622 
L 102.953136 119.124622 
L 102.953136 113.347481 
L 104.702745 113.347481 
L 104.702745 111.5093 
L 106.452355 111.5093 
L 106.452355 97.066448 
L 108.201965 97.066448 
L 108.201965 79.997623 
L 109.951574 79.997623 
L 109.951574 92.864891 
L 111.701184 92.864891 
L 111.701184 91.814502 
L 113.450794 91.814502 
L 113.450794 60.302825 
L 115.200403 60.302825 
L 115.200403 74.220482 
L 116.950013 74.220482 
L 116.950013 80.26022 
L 118.699623 80.26022 
L 118.699623 54.788282 
L 120.449233 54.788282 
L 120.449233 55.050879 
L 122.198842 55.050879 
L 122.198842 56.101268 
L 123.948452 56.101268 
L 123.948452 43.759195 
L 125.698062 43.759195 
L 125.698062 38.244652 
L 127.447671 38.244652 
L 127.447671 43.759195 
L 129.197281 43.759195 
L 129.197281 38.244652 
L 130.946891 38.244652 
L 130.946891 40.34543 
L 132.696501 40.34543 
L 132.696501 32.992705 
L 134.44611 32.992705 
L 134.44611 47.435557 
L 136.19572 47.435557 
L 136.19572 35.618679 
L 137.94533 35.618679 
L 137.94533 57.414255 
L 139.694939 57.414255 
L 139.694939 63.453993 
L 141.444549 63.453993 
L 141.444549 50.586725 
L 143.194159 50.586725 
L 143.194159 64.766979 
L 144.943768 64.766979 
L 144.943768 78.422039 
L 146.693378 78.422039 
L 146.693378 58.202047 
L 148.442988 58.202047 
L 148.442988 58.727241 
L 150.192598 58.727241 
L 150.192598 71.331912 
L 151.942207 71.331912 
L 151.942207 79.997623 
L 153.691817 79.997623 
L 153.691817 76.321261 
L 155.441427 76.321261 
L 155.441427 76.846455 
L 157.191036 76.846455 
L 157.191036 75.270872 
L 158.940646 75.270872 
L 158.940646 79.735026 
L 160.690256 79.735026 
L 160.690256 84.19918 
L 162.439866 84.19918 
L 162.439866 86.299958 
L 164.189475 86.299958 
L 164.189475 73.170093 
L 165.939085 73.170093 
L 165.939085 82.098402 
L 167.688695 82.098402 
L 167.688695 72.907496 
L 169.438304 72.907496 
L 169.438304 92.339696 
L 171.187914 92.339696 
L 171.187914 83.148791 
L 172.937524 83.148791 
L 172.937524 93.390086 
L 174.687133 93.390086 
L 174.687133 84.724375 
L 176.436743 84.724375 
L 176.436743 74.745677 
L 178.186353 74.745677 
L 178.186353 77.37165 
L 179.935963 77.37165 
L 179.935963 93.652683 
L 181.685572 93.652683 
L 181.685572 92.864891 
L 183.435182 92.864891 
L 183.435182 107.045146 
L 185.184792 107.045146 
L 185.184792 88.663334 
L 186.934401 88.663334 
L 186.934401 94.440475 
L 188.684011 94.440475 
L 188.684011 108.095535 
L 190.433621 108.095535 
L 190.433621 101.530602 
L 192.18323 101.530602 
L 192.18323 89.451126 
L 193.93284 89.451126 
L 193.93284 93.390086 
L 195.68245 93.390086 
L 195.68245 98.642032 
L 197.43206 98.642032 
L 197.43206 107.045146 
L 199.181669 107.045146 
L 199.181669 116.498648 
L 200.931279 116.498648 
L 200.931279 107.832937 
L 202.680889 107.832937 
L 202.680889 118.33683 
L 204.430498 118.33683 
L 204.430498 127.790333 
L 206.180108 127.790333 
L 206.180108 135.405654 
L 207.929718 135.405654 
L 207.929718 144.333963 
L 209.679328 144.333963 
L 209.679328 144.59656 
L 211.428937 144.59656 
L 211.428937 164.553955 
L 213.178547 164.553955 
L 213.178547 170.593693 
L 214.928157 170.593693 
L 214.928157 167.96772 
L 216.677766 167.96772 
L 216.677766 174.79525 
L 218.427376 174.79525 
L 218.427376 187.925115 
L 220.176986 187.925115 
L 220.176986 195.27784 
L 221.926595 195.27784 
L 221.926595 200.267189 
L 223.676205 200.267189 
L 223.676205 207.882511 
L 225.425815 207.882511 
L 225.425815 218.649 
L 227.175425 218.649 
L 227.175425 227.314711 
L 228.925034 227.314711 
L 228.925034 228.890295 
L 230.674644 228.890295 
L 230.674644 237.818603 
L 232.424254 237.818603 
L 232.424254 239.656785 
L 234.173863 239.656785 
L 234.173863 243.07055 
L 235.923473 243.07055 
L 235.923473 245.433925 
L 237.673083 245.433925 
L 237.673083 238.868993 
L 239.422693 238.868993 
L 239.422693 232.566657 
L 241.172302 232.566657 
L 241.172302 225.739127 
L 242.921912 225.739127 
L 242.921912 217.073416 
L 244.671522 217.073416 
L 244.671522 213.659651 
L 246.421131 213.659651 
L 246.421131 209.458095 
L 248.170741 209.458095 
L 248.170741 202.10537 
L 249.920351 202.10537 
L 249.920351 195.015243 
L 251.66996 195.015243 
L 251.66996 185.036545 
L 253.41957 185.036545 
L 253.41957 174.532653 
L 255.16918 174.532653 
L 255.16918 178.471613 
L 256.91879 178.471613 
L 256.91879 168.492915 
L 258.668399 168.492915 
L 258.668399 172.431874 
L 260.418009 172.431874 
L 260.418009 166.392136 
L 262.167619 166.392136 
L 262.167619 156.938633 
L 263.917228 156.938633 
L 263.917228 164.816553 
L 265.666838 164.816553 
L 265.666838 146.697339 
L 267.416448 146.697339 
L 267.416448 154.31266 
L 269.166057 154.31266 
L 269.166057 150.636298 
L 270.915667 150.636298 
L 270.915667 140.920198 
L 272.665277 140.920198 
L 272.665277 133.042279 
L 274.414887 133.042279 
L 274.414887 140.657601 
L 276.164496 140.657601 
L 276.164496 124.376568 
L 277.914106 124.376568 
L 277.914106 134.617863 
L 279.663716 134.617863 
L 279.663716 121.750595 
L 281.413325 121.750595 
L 281.413325 120.437608 
L 283.162935 120.437608 
L 283.162935 112.034494 
L 284.912545 112.034494 
L 284.912545 116.498648 
L 286.662155 116.498648 
L 286.662155 117.023843 
L 288.411764 117.023843 
L 288.411764 114.135273 
L 290.161374 114.135273 
L 290.161374 97.591643 
L 291.910984 97.591643 
L 291.910984 110.721508 
L 293.660593 110.721508 
L 293.660593 105.732159 
L 295.410203 105.732159 
L 295.410203 103.106186 
L 297.159813 103.106186 
L 297.159813 110.45891 
L 298.909422 110.45891 
L 298.909422 103.368783 
L 300.659032 103.368783 
L 300.659032 121.2254 
L 302.408642 121.2254 
L 302.408642 122.800984 
L 304.158252 122.800984 
L 304.158252 131.466695 
L 305.907861 131.466695 
L 305.907861 114.135273 
L 307.657471 114.135273 
L 307.657471 120.962803 
L 309.407081 120.962803 
L 309.407081 111.771897 
L 311.15669 111.771897 
L 311.15669 127.790333 
L 312.9063 127.790333 
L 312.9063 128.315527 
L 314.65591 128.315527 
L 314.65591 127.527735 
L 316.405519 127.527735 
L 316.405519 144.59656 
L 318.155129 144.59656 
L 318.155129 132.254487 
L 319.904739 132.254487 
L 319.904739 137.76903 
L 321.654349 137.76903 
L 321.654349 145.384352 
L 323.403958 145.384352 
L 323.403958 144.859157 
L 325.153568 144.859157 
L 325.153568 135.930849 
L 326.903178 135.930849 
L 326.903178 145.384352 
L 328.652787 145.384352 
L 328.652787 141.445392 
L 330.402397 141.445392 
L 330.402397 156.413439 
L 332.152007 156.413439 
L 332.152007 144.333963 
L 333.901617 144.333963 
L 333.901617 154.050063 
L 335.651226 154.050063 
L 335.651226 157.463828 
L 337.400836 157.463828 
L 337.400836 163.240969 
L 339.150446 163.240969 
L 339.150446 157.463828 
L 340.900055 157.463828 
L 340.900055 161.927982 
L 342.649665 161.927982 
L 342.649665 164.291358 
L 344.399275 164.291358 
L 344.399275 162.19058 
L 346.148884 162.19058 
L 346.148884 172.431874 
L 347.898494 172.431874 
L 347.898494 175.320445 
L 349.648104 175.320445 
L 349.648104 166.129539 
L 351.397714 166.129539 
L 351.397714 170.856291 
L 353.147323 170.856291 
L 353.147323 181.885377 
L 354.896933 181.885377 
L 354.896933 173.744861 
L 356.646543 173.744861 
L 356.646543 178.471613 
L 358.396152 178.471613 
L 358.396152 181.097586 
L 360.145762 181.097586 
L 360.145762 180.309794 
L 361.895372 180.309794 
L 361.895372 185.824337 
L 363.644982 185.824337 
L 363.644982 188.45031 
L 365.394591 188.45031 
L 365.394591 191.864075 
L 367.144201 191.864075 
L 367.144201 197.641216 
L 368.893811 197.641216 
L 368.893811 197.903813 
L 370.64342 197.903813 
L 370.64342 206.04433 
L 374.14264 206.04433 
L 374.14264 211.033678 
L 375.892249 211.033678 
L 375.892249 216.810819 
L 377.641859 216.810819 
L 377.641859 217.073416 
L 379.391469 217.073416 
L 379.391469 218.649 
L 381.141079 218.649 
L 381.141079 224.163544 
L 382.890688 224.163544 
L 382.890688 226.526919 
L 384.640298 226.526919 
L 384.640298 227.314711 
L 386.389908 227.314711 
L 386.389908 227.052114 
L 388.139517 227.052114 
L 388.139517 233.879644 
L 389.889127 233.879644 
L 389.889127 234.404839 
L 391.638737 234.404839 
L 391.638737 237.556006 
L 393.388347 237.556006 
L 393.388347 237.293409 
L 395.137956 237.293409 
L 395.137956 240.707174 
L 396.887566 240.707174 
L 396.887566 241.757563 
L 398.637176 241.757563 
L 398.637176 243.858341 
L 400.386785 243.858341 
L 400.386785 244.383536 
L 402.136395 244.383536 
L 402.136395 245.171328 
L 403.886005 245.171328 
L 403.886005 245.696523 
L 405.635614 245.696523 
L 405.635614 246.484315 
L 414.383663 246.484315 
L 414.383663 246.484315 
" clip-path="url(#pe2c3272ece)" style="fill: none; stroke: #1f77b4; stroke-width: 1.5; stroke-linecap: square"/>
   </g>
   <g id="line2d_21">
    <path d="M 64.461722 246.484315 
L 73.209771 246.484315 
L 73.209771 243.07055 
L 74.95938 243.07055 
L 74.95938 236.505617 
L 76.70899 236.505617 
L 76.70899 229.152892 
L 78.4586 229.152892 
L 78.4586 219.699389 
L 80.208209 219.699389 
L 80.208209 209.195497 
L 81.957819 209.195497 
L 81.957819 207.882511 
L 83.707429 207.882511 
L 83.707429 197.378618 
L 85.457039 197.378618 
L 85.457039 191.864075 
L 87.206648 191.864075 
L 87.206648 178.996807 
L 88.956258 178.996807 
L 88.956258 174.79525 
L 90.705868 174.79525 
L 90.705868 162.978372 
L 92.455477 162.978372 
L 92.455477 165.604345 
L 94.205087 165.604345 
L 94.205087 150.373701 
L 95.954697 150.373701 
L 95.954697 138.819419 
L 97.704306 138.819419 
L 97.704306 119.387219 
L 99.453916 119.387219 
L 99.453916 116.236051 
L 101.203526 116.236051 
L 101.203526 120.175011 
L 102.953136 120.175011 
L 102.953136 116.498648 
L 104.702745 116.498648 
L 104.702745 118.33683 
L 106.452355 118.33683 
L 106.452355 91.814502 
L 108.201965 91.814502 
L 108.201965 78.422039 
L 109.951574 78.422039 
L 109.951574 84.19918 
L 111.701184 84.19918 
L 111.701184 98.904629 
L 113.450794 98.904629 
L 113.450794 69.493731 
L 115.200403 69.493731 
L 115.200403 64.504382 
L 116.950013 64.504382 
L 116.950013 72.382301 
L 118.699623 72.382301 
L 118.699623 63.979187 
L 120.449233 63.979187 
L 120.449233 57.939449 
L 122.198842 57.939449 
L 122.198842 50.06153 
L 123.948452 50.06153 
L 123.948452 46.910363 
L 125.698062 46.910363 
L 125.698062 46.647765 
L 127.447671 46.647765 
L 127.447671 34.043095 
L 129.197281 34.043095 
L 129.197281 34.305692 
L 130.946891 34.305692 
L 130.946891 45.334779 
L 132.696501 45.334779 
L 132.696501 39.820235 
L 134.44611 39.820235 
L 134.44611 47.17296 
L 136.19572 47.17296 
L 136.19572 34.043095 
L 137.94533 34.043095 
L 137.94533 56.363866 
L 139.694939 56.363866 
L 139.694939 61.353214 
L 141.444549 61.353214 
L 141.444549 52.687503 
L 143.194159 52.687503 
L 143.194159 63.71659 
L 144.943768 63.71659 
L 144.943768 69.231134 
L 146.693378 69.231134 
L 146.693378 60.040228 
L 148.442988 60.040228 
L 148.442988 66.867758 
L 150.192598 66.867758 
L 150.192598 67.65555 
L 151.942207 67.65555 
L 151.942207 84.724375 
L 153.691817 84.724375 
L 153.691817 71.069315 
L 155.441427 71.069315 
L 155.441427 78.422039 
L 157.191036 78.422039 
L 157.191036 79.997623 
L 158.940646 79.997623 
L 158.940646 77.634247 
L 160.690256 77.634247 
L 160.690256 78.159442 
L 162.439866 78.159442 
L 162.439866 90.501515 
L 164.189475 90.501515 
L 164.189475 71.857107 
L 165.939085 71.857107 
L 165.939085 75.796066 
L 167.688695 75.796066 
L 167.688695 80.522818 
L 169.438304 80.522818 
L 169.438304 88.663334 
L 171.187914 88.663334 
L 171.187914 94.703072 
L 172.937524 94.703072 
L 172.937524 82.098402 
L 174.687133 82.098402 
L 174.687133 85.512166 
L 176.436743 85.512166 
L 176.436743 77.109053 
L 178.186353 77.109053 
L 178.186353 86.825153 
L 179.935963 86.825153 
L 179.935963 82.886193 
L 181.685572 82.886193 
L 181.685572 96.803851 
L 183.435182 96.803851 
L 183.435182 102.055797 
L 185.184792 102.055797 
L 185.184792 88.925931 
L 186.934401 88.925931 
L 186.934401 99.955018 
L 188.684011 99.955018 
L 188.684011 98.904629 
L 190.433621 98.904629 
L 190.433621 104.156575 
L 192.18323 104.156575 
L 192.18323 97.85424 
L 193.93284 97.85424 
L 193.93284 91.551905 
L 195.68245 91.551905 
L 195.68245 98.379434 
L 197.43206 98.379434 
L 197.43206 103.106186 
L 199.181669 103.106186 
L 199.181669 115.710857 
L 200.931279 115.710857 
L 200.931279 113.872675 
L 202.680889 113.872675 
L 202.680889 118.599427 
L 204.430498 118.599427 
L 204.430498 126.214749 
L 206.180108 126.214749 
L 206.180108 134.355265 
L 207.929718 134.355265 
L 207.929718 139.082017 
L 209.679328 139.082017 
L 209.679328 150.373701 
L 211.428937 150.373701 
L 211.428937 158.25162 
L 213.178547 158.25162 
L 213.178547 172.431874 
L 214.928157 172.431874 
L 214.928157 171.381485 
L 216.677766 171.381485 
L 216.677766 175.057848 
L 218.427376 175.057848 
L 218.427376 183.986156 
L 220.176986 183.986156 
L 220.176986 197.116021 
L 221.926595 197.116021 
L 221.926595 204.468746 
L 223.676205 204.468746 
L 223.676205 203.943551 
L 225.425815 203.943551 
L 225.425815 217.336014 
L 227.175425 217.336014 
L 227.175425 227.314711 
L 228.925034 227.314711 
L 228.925034 229.678087 
L 230.674644 229.678087 
L 230.674644 238.081201 
L 232.424254 238.081201 
L 232.424254 239.394187 
L 234.173863 239.394187 
L 234.173863 242.807952 
L 235.923473 242.807952 
L 235.923473 245.171328 
L 237.673083 245.171328 
L 237.673083 238.081201 
L 239.422693 238.081201 
L 239.422693 233.354449 
L 241.172302 233.354449 
L 241.172302 224.688738 
L 242.921912 224.688738 
L 242.921912 218.911598 
L 244.671522 218.911598 
L 244.671522 211.82147 
L 246.421131 211.82147 
L 246.421131 209.195497 
L 248.170741 209.195497 
L 248.170741 201.054981 
L 249.920351 201.054981 
L 249.920351 196.590827 
L 251.66996 196.590827 
L 251.66996 187.137324 
L 253.41957 187.137324 
L 253.41957 174.79525 
L 255.16918 174.79525 
L 255.16918 176.108237 
L 256.91879 176.108237 
L 256.91879 172.431874 
L 258.668399 172.431874 
L 258.668399 170.856291 
L 260.418009 170.856291 
L 260.418009 163.503566 
L 262.167619 163.503566 
L 262.167619 160.877593 
L 263.917228 160.877593 
L 263.917228 159.039412 
L 265.666838 159.039412 
L 265.666838 146.434741 
L 267.416448 146.434741 
L 267.416448 159.039412 
L 269.166057 159.039412 
L 269.166057 148.010325 
L 270.915667 148.010325 
L 270.915667 145.384352 
L 272.665277 145.384352 
L 272.665277 133.567473 
L 274.414887 133.567473 
L 274.414887 133.304876 
L 276.164496 133.304876 
L 276.164496 129.891111 
L 277.914106 129.891111 
L 277.914106 128.05293 
L 279.663716 128.05293 
L 279.663716 127.265138 
L 281.413325 127.265138 
L 281.413325 113.084884 
L 283.162935 113.084884 
L 283.162935 116.236051 
L 284.912545 116.236051 
L 284.912545 122.275789 
L 286.662155 122.275789 
L 286.662155 114.39787 
L 288.411764 114.39787 
L 288.411764 111.246702 
L 290.161374 111.246702 
L 290.161374 103.631381 
L 291.910984 103.631381 
L 291.910984 104.419172 
L 293.660593 104.419172 
L 293.660593 106.257354 
L 295.410203 106.257354 
L 295.410203 101.005407 
L 297.159813 101.005407 
L 297.159813 111.771897 
L 298.909422 111.771897 
L 298.909422 116.498648 
L 300.659032 116.498648 
L 300.659032 113.610078 
L 302.408642 113.610078 
L 302.408642 124.11397 
L 304.158252 124.11397 
L 304.158252 118.599427 
L 305.907861 118.599427 
L 305.907861 118.33683 
L 307.657471 118.33683 
L 307.657471 116.236051 
L 309.407081 116.236051 
L 309.407081 125.952151 
L 311.15669 125.952151 
L 311.15669 120.175011 
L 312.9063 120.175011 
L 312.9063 128.840722 
L 314.65591 128.840722 
L 314.65591 133.304876 
L 318.155129 133.304876 
L 318.155129 141.445392 
L 319.904739 141.445392 
L 319.904739 136.718641 
L 321.654349 136.718641 
L 321.654349 145.121755 
L 323.403958 145.121755 
L 323.403958 147.222533 
L 325.153568 147.222533 
L 325.153568 134.092668 
L 326.903178 134.092668 
L 326.903178 144.59656 
L 328.652787 144.59656 
L 328.652787 142.495782 
L 330.402397 142.495782 
L 330.402397 151.161493 
L 332.152007 151.161493 
L 332.152007 146.434741 
L 333.901617 146.434741 
L 333.901617 154.837855 
L 335.651226 154.837855 
L 335.651226 157.463828 
L 337.400836 157.463828 
L 337.400836 162.715774 
L 339.150446 162.715774 
L 339.150446 157.989023 
L 340.900055 157.989023 
L 340.900055 162.19058 
L 342.649665 162.19058 
L 342.649665 159.564607 
L 344.399275 159.564607 
L 344.399275 162.978372 
L 346.148884 162.978372 
L 346.148884 175.320445 
L 347.898494 175.320445 
L 347.898494 172.169277 
L 349.648104 172.169277 
L 349.648104 169.01811 
L 351.397714 169.01811 
L 351.397714 180.572391 
L 353.147323 180.572391 
L 353.147323 171.644083 
L 354.896933 171.644083 
L 354.896933 180.309794 
L 356.646543 180.309794 
L 356.646543 174.79525 
L 358.396152 174.79525 
L 358.396152 185.036545 
L 360.145762 185.036545 
L 360.145762 177.946418 
L 361.895372 177.946418 
L 361.895372 182.147975 
L 363.644982 182.147975 
L 363.644982 188.712907 
L 365.394591 188.712907 
L 365.394591 193.702256 
L 367.144201 193.702256 
L 367.144201 198.16641 
L 368.893811 198.16641 
L 368.893811 195.540437 
L 370.64342 195.540437 
L 370.64342 207.357316 
L 372.39303 207.357316 
L 372.39303 205.256538 
L 374.14264 205.256538 
L 374.14264 214.447443 
L 375.892249 214.447443 
L 375.892249 213.397054 
L 377.641859 213.397054 
L 377.641859 218.911598 
L 379.391469 218.911598 
L 379.391469 219.174195 
L 381.141079 219.174195 
L 381.141079 223.900946 
L 382.890688 223.900946 
L 382.890688 226.264322 
L 384.640298 226.264322 
L 384.640298 228.627698 
L 386.389908 228.627698 
L 386.389908 227.052114 
L 388.139517 227.052114 
L 388.139517 233.879644 
L 389.889127 233.879644 
L 389.889127 231.778865 
L 391.638737 231.778865 
L 391.638737 238.081201 
L 395.137956 238.081201 
L 395.137956 240.181979 
L 396.887566 240.181979 
L 396.887566 241.757563 
L 398.637176 241.757563 
L 398.637176 243.858341 
L 400.386785 243.858341 
L 400.386785 244.383536 
L 402.136395 244.383536 
L 402.136395 245.171328 
L 403.886005 245.171328 
L 403.886005 245.696523 
L 405.635614 245.696523 
L 405.635614 246.484315 
L 414.383663 246.484315 
L 414.383663 246.484315 
" clip-path="url(#pe2c3272ece)" style="fill: none; stroke: #ff7f0e; stroke-width: 1.5; stroke-linecap: square"/>
   </g>
  </g>
  <g id="axes_2">
   <g id="patch_8">
    <path d="M 480.285385 257.158895 
L 865.19952 257.158895 
L 865.19952 22.318125 
L 480.285385 22.318125 
z
" style="fill: #ffffff"/>
   </g>
   <g id="matplotlib.axis_3">
    <g id="xtick_9">
     <g id="line2d_22">
      <g>
       <use xlink:href="#mda8e7e8886" x="516.198426" y="257.158895" style="stroke: #000000; stroke-width: 0.8"/>
      </g>
     </g>
     <g id="text_23">
      <!-- 1.0 -->
      <g transform="translate(508.246864 271.757332) scale(0.1 -0.1)">
       <use xlink:href="#DejaVuSans-31"/>
       <use xlink:href="#DejaVuSans-2e" transform="translate(63.623047 0)"/>
       <use xlink:href="#DejaVuSans-30" transform="translate(95.410156 0)"/>
      </g>
     </g>
    </g>
    <g id="xtick_10">
     <g id="line2d_23">
      <g>
       <use xlink:href="#mda8e7e8886" x="562.240787" y="257.158895" style="stroke: #000000; stroke-width: 0.8"/>
      </g>
     </g>
     <g id="text_24">
      <!-- 1.5 -->
      <g transform="translate(554.289224 271.757332) scale(0.1 -0.1)">
       <use xlink:href="#DejaVuSans-31"/>
       <use xlink:href="#DejaVuSans-2e" transform="translate(63.623047 0)"/>
       <use xlink:href="#DejaVuSans-35" transform="translate(95.410156 0)"/>
      </g>
     </g>
    </g>
    <g id="xtick_11">
     <g id="line2d_24">
      <g>
       <use xlink:href="#mda8e7e8886" x="608.283148" y="257.158895" style="stroke: #000000; stroke-width: 0.8"/>
      </g>
     </g>
     <g id="text_25">
      <!-- 2.0 -->
      <g transform="translate(600.331585 271.757332) scale(0.1 -0.1)">
       <use xlink:href="#DejaVuSans-32"/>
       <use xlink:href="#DejaVuSans-2e" transform="translate(63.623047 0)"/>
       <use xlink:href="#DejaVuSans-30" transform="translate(95.410156 0)"/>
      </g>
     </g>
    </g>
    <g id="xtick_12">
     <g id="line2d_25">
      <g>
       <use xlink:href="#mda8e7e8886" x="654.325508" y="257.158895" style="stroke: #000000; stroke-width: 0.8"/>
      </g>
     </g>
     <g id="text_26">
      <!-- 2.5 -->
      <g transform="translate(646.373946 271.757332) scale(0.1 -0.1)">
       <use xlink:href="#DejaVuSans-32"/>
       <use xlink:href="#DejaVuSans-2e" transform="translate(63.623047 0)"/>
       <use xlink:href="#DejaVuSans-35" transform="translate(95.410156 0)"/>
      </g>
     </g>
    </g>
    <g id="xtick_13">
     <g id="line2d_26">
      <g>
       <use xlink:href="#mda8e7e8886" x="700.367869" y="257.158895" style="stroke: #000000; stroke-width: 0.8"/>
      </g>
     </g>
     <g id="text_27">
      <!-- 3.0 -->
      <g transform="translate(692.416306 271.757332) scale(0.1 -0.1)">
       <use xlink:href="#DejaVuSans-33"/>
       <use xlink:href="#DejaVuSans-2e" transform="translate(63.623047 0)"/>
       <use xlink:href="#DejaVuSans-30" transform="translate(95.410156 0)"/>
      </g>
     </g>
    </g>
    <g id="xtick_14">
     <g id="line2d_27">
      <g>
       <use xlink:href="#mda8e7e8886" x="746.41023" y="257.158895" style="stroke: #000000; stroke-width: 0.8"/>
      </g>
     </g>
     <g id="text_28">
      <!-- 3.5 -->
      <g transform="translate(738.458667 271.757332) scale(0.1 -0.1)">
       <use xlink:href="#DejaVuSans-33"/>
       <use xlink:href="#DejaVuSans-2e" transform="translate(63.623047 0)"/>
       <use xlink:href="#DejaVuSans-35" transform="translate(95.410156 0)"/>
      </g>
     </g>
    </g>
    <g id="xtick_15">
     <g id="line2d_28">
      <g>
       <use xlink:href="#mda8e7e8886" x="792.45259" y="257.158895" style="stroke: #000000; stroke-width: 0.8"/>
      </g>
     </g>
     <g id="text_29">
      <!-- 4.0 -->
      <g transform="translate(784.501028 271.757332) scale(0.1 -0.1)">
       <use xlink:href="#DejaVuSans-34"/>
       <use xlink:href="#DejaVuSans-2e" transform="translate(63.623047 0)"/>
       <use xlink:href="#DejaVuSans-30" transform="translate(95.410156 0)"/>
      </g>
     </g>
    </g>
    <g id="xtick_16">
     <g id="line2d_29">
      <g>
       <use xlink:href="#mda8e7e8886" x="838.494951" y="257.158895" style="stroke: #000000; stroke-width: 0.8"/>
      </g>
     </g>
     <g id="text_30">
      <!-- 4.5 -->
      <g transform="translate(830.543388 271.757332) scale(0.1 -0.1)">
       <use xlink:href="#DejaVuSans-34"/>
       <use xlink:href="#DejaVuSans-2e" transform="translate(63.623047 0)"/>
       <use xlink:href="#DejaVuSans-35" transform="translate(95.410156 0)"/>
      </g>
     </g>
    </g>
    <g id="text_31">
     <!-- wavelength [Å] -->
     <g transform="translate(634.704952 287.119832) scale(0.1 -0.1)">
      <use xlink:href="#DejaVuSans-77"/>
      <use xlink:href="#DejaVuSans-61" transform="translate(81.787109 0)"/>
      <use xlink:href="#DejaVuSans-76" transform="translate(143.066406 0)"/>
      <use xlink:href="#DejaVuSans-65" transform="translate(202.246094 0)"/>
      <use xlink:href="#DejaVuSans-6c" transform="translate(263.769531 0)"/>
      <use xlink:href="#DejaVuSans-65" transform="translate(291.552734 0)"/>
      <use xlink:href="#DejaVuSans-6e" transform="translate(353.076172 0)"/>
      <use xlink:href="#DejaVuSans-67" transform="translate(416.455078 0)"/>
      <use xlink:href="#DejaVuSans-74" transform="translate(479.931641 0)"/>
      <use xlink:href="#DejaVuSans-68" transform="translate(519.140625 0)"/>
      <use xlink:href="#DejaVuSans-20" transform="translate(582.519531 0)"/>
      <use xlink:href="#DejaVuSans-5b" transform="translate(614.306641 0)"/>
      <use xlink:href="#DejaVuSans-c5" transform="translate(653.320312 0)"/>
      <use xlink:href="#DejaVuSans-5d" transform="translate(721.728516 0)"/>
     </g>
    </g>
   </g>
   <g id="matplotlib.axis_4">
    <g id="ytick_10">
     <g id="line2d_30">
      <g>
       <use xlink:href="#m063a85e65d" x="480.285385" y="246.484315" style="stroke: #000000; stroke-width: 0.8"/>
      </g>
     </g>
     <g id="text_32">
      <!-- 0 -->
      <g transform="translate(466.922885 250.283533) scale(0.1 -0.1)">
       <use xlink:href="#DejaVuSans-30"/>
      </g>
     </g>
    </g>
    <g id="ytick_11">
     <g id="line2d_31">
      <g>
       <use xlink:href="#m063a85e65d" x="480.285385" y="220.256844" style="stroke: #000000; stroke-width: 0.8"/>
      </g>
     </g>
     <g id="text_33">
      <!-- 100 -->
      <g transform="translate(454.197885 224.056063) scale(0.1 -0.1)">
       <use xlink:href="#DejaVuSans-31"/>
       <use xlink:href="#DejaVuSans-30" transform="translate(63.623047 0)"/>
       <use xlink:href="#DejaVuSans-30" transform="translate(127.246094 0)"/>
      </g>
     </g>
    </g>
    <g id="ytick_12">
     <g id="line2d_32">
      <g>
       <use xlink:href="#m063a85e65d" x="480.285385" y="194.029374" style="stroke: #000000; stroke-width: 0.8"/>
      </g>
     </g>
     <g id="text_34">
      <!-- 200 -->
      <g transform="translate(454.197885 197.828592) scale(0.1 -0.1)">
       <use xlink:href="#DejaVuSans-32"/>
       <use xlink:href="#DejaVuSans-30" transform="translate(63.623047 0)"/>
       <use xlink:href="#DejaVuSans-30" transform="translate(127.246094 0)"/>
      </g>
     </g>
    </g>
    <g id="ytick_13">
     <g id="line2d_33">
      <g>
       <use xlink:href="#m063a85e65d" x="480.285385" y="167.801903" style="stroke: #000000; stroke-width: 0.8"/>
      </g>
     </g>
     <g id="text_35">
      <!-- 300 -->
      <g transform="translate(454.197885 171.601122) scale(0.1 -0.1)">
       <use xlink:href="#DejaVuSans-33"/>
       <use xlink:href="#DejaVuSans-30" transform="translate(63.623047 0)"/>
       <use xlink:href="#DejaVuSans-30" transform="translate(127.246094 0)"/>
      </g>
     </g>
    </g>
    <g id="ytick_14">
     <g id="line2d_34">
      <g>
       <use xlink:href="#m063a85e65d" x="480.285385" y="141.574433" style="stroke: #000000; stroke-width: 0.8"/>
      </g>
     </g>
     <g id="text_36">
      <!-- 400 -->
      <g transform="translate(454.197885 145.373652) scale(0.1 -0.1)">
       <use xlink:href="#DejaVuSans-34"/>
       <use xlink:href="#DejaVuSans-30" transform="translate(63.623047 0)"/>
       <use xlink:href="#DejaVuSans-30" transform="translate(127.246094 0)"/>
      </g>
     </g>
    </g>
    <g id="ytick_15">
     <g id="line2d_35">
      <g>
       <use xlink:href="#m063a85e65d" x="480.285385" y="115.346963" style="stroke: #000000; stroke-width: 0.8"/>
      </g>
     </g>
     <g id="text_37">
      <!-- 500 -->
      <g transform="translate(454.197885 119.146181) scale(0.1 -0.1)">
       <use xlink:href="#DejaVuSans-35"/>
       <use xlink:href="#DejaVuSans-30" transform="translate(63.623047 0)"/>
       <use xlink:href="#DejaVuSans-30" transform="translate(127.246094 0)"/>
      </g>
     </g>
    </g>
    <g id="ytick_16">
     <g id="line2d_36">
      <g>
       <use xlink:href="#m063a85e65d" x="480.285385" y="89.119492" style="stroke: #000000; stroke-width: 0.8"/>
      </g>
     </g>
     <g id="text_38">
      <!-- 600 -->
      <g transform="translate(454.197885 92.918711) scale(0.1 -0.1)">
       <use xlink:href="#DejaVuSans-36"/>
       <use xlink:href="#DejaVuSans-30" transform="translate(63.623047 0)"/>
       <use xlink:href="#DejaVuSans-30" transform="translate(127.246094 0)"/>
      </g>
     </g>
    </g>
    <g id="ytick_17">
     <g id="line2d_37">
      <g>
       <use xlink:href="#m063a85e65d" x="480.285385" y="62.892022" style="stroke: #000000; stroke-width: 0.8"/>
      </g>
     </g>
     <g id="text_39">
      <!-- 700 -->
      <g transform="translate(454.197885 66.69124) scale(0.1 -0.1)">
       <use xlink:href="#DejaVuSans-37"/>
       <use xlink:href="#DejaVuSans-30" transform="translate(63.623047 0)"/>
       <use xlink:href="#DejaVuSans-30" transform="translate(127.246094 0)"/>
      </g>
     </g>
    </g>
    <g id="ytick_18">
     <g id="line2d_38">
      <g>
       <use xlink:href="#m063a85e65d" x="480.285385" y="36.664551" style="stroke: #000000; stroke-width: 0.8"/>
      </g>
     </g>
     <g id="text_40">
      <!-- 800 -->
      <g transform="translate(454.197885 40.46377) scale(0.1 -0.1)">
       <use xlink:href="#DejaVuSans-38"/>
       <use xlink:href="#DejaVuSans-30" transform="translate(63.623047 0)"/>
       <use xlink:href="#DejaVuSans-30" transform="translate(127.246094 0)"/>
      </g>
     </g>
    </g>
    <g id="text_41">
     <!-- [counts] -->
     <g transform="translate(448.118198 160.35101) rotate(-90) scale(0.1 -0.1)">
      <use xlink:href="#DejaVuSans-5b"/>
      <use xlink:href="#DejaVuSans-63" transform="translate(39.013672 0)"/>
      <use xlink:href="#DejaVuSans-6f" transform="translate(93.994141 0)"/>
      <use xlink:href="#DejaVuSans-75" transform="translate(155.175781 0)"/>
      <use xlink:href="#DejaVuSans-6e" transform="translate(218.554688 0)"/>
      <use xlink:href="#DejaVuSans-74" transform="translate(281.933594 0)"/>
      <use xlink:href="#DejaVuSans-73" transform="translate(321.142578 0)"/>
      <use xlink:href="#DejaVuSans-5d" transform="translate(373.242188 0)"/>
     </g>
    </g>
   </g>
   <g id="patch_9">
    <path d="M 480.285385 257.158895 
L 480.285385 22.318125 
" style="fill: none; stroke: #000000; stroke-width: 0.8; stroke-linejoin: miter; stroke-linecap: square"/>
   </g>
   <g id="patch_10">
    <path d="M 865.19952 257.158895 
L 865.19952 22.318125 
" style="fill: none; stroke: #000000; stroke-width: 0.8; stroke-linejoin: miter; stroke-linecap: square"/>
   </g>
   <g id="patch_11">
    <path d="M 480.285385 257.158895 
L 865.19952 257.158895 
" style="fill: none; stroke: #000000; stroke-width: 0.8; stroke-linejoin: miter; stroke-linecap: square"/>
   </g>
   <g id="patch_12">
    <path d="M 480.285385 22.318125 
L 865.19952 22.318125 
" style="fill: none; stroke: #000000; stroke-width: 0.8; stroke-linejoin: miter; stroke-linecap: square"/>
   </g>
   <g id="text_42">
    <!-- Pixel 2 -->
    <g transform="translate(653.14589 16.318125) scale(0.12 -0.12)">
     <use xlink:href="#DejaVuSans-50"/>
     <use xlink:href="#DejaVuSans-69" transform="translate(58.052734 0)"/>
     <use xlink:href="#DejaVuSans-78" transform="translate(85.835938 0)"/>
     <use xlink:href="#DejaVuSans-65" transform="translate(141.890625 0)"/>
     <use xlink:href="#DejaVuSans-6c" transform="translate(203.414062 0)"/>
     <use xlink:href="#DejaVuSans-20" transform="translate(231.197266 0)"/>
     <use xlink:href="#DejaVuSans-32" transform="translate(262.984375 0)"/>
    </g>
   </g>
   <g id="legend_2">
    <g id="patch_13">
     <path d="M 761.196395 59.9525 
L 858.19952 59.9525 
Q 860.19952 59.9525 860.19952 57.9525 
L 860.19952 29.318125 
Q 860.19952 27.318125 858.19952 27.318125 
L 761.196395 27.318125 
Q 759.196395 27.318125 759.196395 29.318125 
L 759.196395 57.9525 
Q 759.196395 59.9525 761.196395 59.9525 
z
" style="fill: #ffffff; opacity: 0.8; stroke: #cccccc; stroke-linejoin: miter"/>
    </g>
    <g id="line2d_39">
     <path d="M 763.196395 35.416562 
L 763.196395 35.416562 
L 773.196395 35.416562 
L 773.196395 35.416562 
L 783.196395 35.416562 
" style="fill: none; stroke: #1f77b4; stroke-width: 1.5; stroke-linecap: square"/>
    </g>
    <g id="text_43">
     <!-- wfm -->
     <g transform="translate(791.196395 38.916562) scale(0.1 -0.1)">
      <use xlink:href="#DejaVuSans-77"/>
      <use xlink:href="#DejaVuSans-66" transform="translate(81.787109 0)"/>
      <use xlink:href="#DejaVuSans-6d" transform="translate(116.992188 0)"/>
     </g>
    </g>
    <g id="line2d_40">
     <path d="M 763.196395 50.094687 
L 763.196395 50.094687 
L 773.196395 50.094687 
L 773.196395 50.094687 
L 783.196395 50.094687 
" style="fill: none; stroke: #ff7f0e; stroke-width: 1.5; stroke-linecap: square"/>
    </g>
    <g id="text_44">
     <!-- ground_truth -->
     <g transform="translate(791.196395 53.594687) scale(0.1 -0.1)">
      <use xlink:href="#DejaVuSans-67"/>
      <use xlink:href="#DejaVuSans-72" transform="translate(63.476562 0)"/>
      <use xlink:href="#DejaVuSans-6f" transform="translate(102.339844 0)"/>
      <use xlink:href="#DejaVuSans-75" transform="translate(163.521484 0)"/>
      <use xlink:href="#DejaVuSans-6e" transform="translate(226.900391 0)"/>
      <use xlink:href="#DejaVuSans-64" transform="translate(290.279297 0)"/>
      <use xlink:href="#DejaVuSans-5f" transform="translate(353.755859 0)"/>
      <use xlink:href="#DejaVuSans-74" transform="translate(403.755859 0)"/>
      <use xlink:href="#DejaVuSans-72" transform="translate(442.964844 0)"/>
      <use xlink:href="#DejaVuSans-75" transform="translate(484.078125 0)"/>
      <use xlink:href="#DejaVuSans-74" transform="translate(547.457031 0)"/>
      <use xlink:href="#DejaVuSans-68" transform="translate(586.666016 0)"/>
     </g>
    </g>
   </g>
   <g id="line2d_41">
    <path d="M 497.781482 246.484315 
L 506.529531 246.484315 
L 506.529531 244.386117 
L 508.27914 244.386117 
L 508.27914 236.78015 
L 510.02875 236.78015 
L 510.02875 228.649635 
L 511.77836 228.649635 
L 511.77836 219.994569 
L 513.527969 219.994569 
L 513.527969 210.290405 
L 515.277579 210.290405 
L 515.277579 206.356285 
L 517.027189 206.356285 
L 517.027189 196.127571 
L 518.776799 196.127571 
L 518.776799 195.340747 
L 520.526408 195.340747 
L 520.526408 179.604265 
L 522.276018 179.604265 
L 522.276018 176.194694 
L 524.025628 176.194694 
L 524.025628 159.671388 
L 525.775237 159.671388 
L 525.775237 163.080959 
L 527.524847 163.080959 
L 527.524847 153.639069 
L 529.274457 153.639069 
L 529.274457 134.230741 
L 531.024066 134.230741 
L 531.024066 125.837951 
L 532.773676 125.837951 
L 532.773676 117.44516 
L 534.523286 117.44516 
L 534.523286 119.805632 
L 536.272896 119.805632 
L 536.272896 113.248765 
L 538.022505 113.248765 
L 538.022505 112.98649 
L 539.772115 112.98649 
L 539.772115 95.938634 
L 541.521725 95.938634 
L 541.521725 81.513526 
L 543.271334 81.513526 
L 543.271334 91.479964 
L 545.020944 91.479964 
L 545.020944 93.840437 
L 546.770554 93.840437 
L 546.770554 61.842923 
L 548.520163 61.842923 
L 548.520163 72.333911 
L 550.269773 72.333911 
L 550.269773 81.7758 
L 552.019383 81.7758 
L 552.019383 52.138759 
L 553.768993 52.138759 
L 553.768993 56.072879 
L 557.268212 56.072879 
L 557.268212 42.959144 
L 559.017822 42.959144 
L 559.017822 39.287298 
L 560.767431 39.287298 
L 560.767431 47.680089 
L 562.517041 47.680089 
L 562.517041 36.664551 
L 564.266651 36.664551 
L 564.266651 41.647771 
L 566.016261 41.647771 
L 566.016261 32.992705 
L 567.76587 32.992705 
L 567.76587 46.106441 
L 569.51548 46.106441 
L 569.51548 35.615452 
L 571.26509 35.615452 
L 571.26509 58.695626 
L 573.014699 58.695626 
L 573.014699 64.203395 
L 574.764309 64.203395 
L 574.764309 49.778287 
L 576.513919 49.778287 
L 576.513919 63.416571 
L 578.263528 63.416571 
L 578.263528 79.939877 
L 580.013138 79.939877 
L 580.013138 59.744725 
L 581.762748 59.744725 
L 581.762748 56.072879 
L 583.512358 56.072879 
L 583.512358 70.497988 
L 585.261967 70.497988 
L 585.261967 81.513526 
L 587.011577 81.513526 
L 587.011577 77.579405 
L 588.761187 77.579405 
L 588.761187 75.743482 
L 590.510796 75.743482 
L 590.510796 77.84168 
L 592.260406 77.84168 
L 592.260406 78.628504 
L 594.010016 78.628504 
L 594.010016 83.873998 
L 595.759626 83.873998 
L 595.759626 85.709921 
L 597.509235 85.709921 
L 597.509235 75.481208 
L 599.258845 75.481208 
L 599.258845 82.30035 
L 601.008455 82.30035 
L 601.008455 75.218933 
L 602.758064 75.218933 
L 602.758064 89.381767 
L 604.507674 89.381767 
L 604.507674 83.349449 
L 606.257284 83.349449 
L 606.257284 93.578162 
L 608.006893 93.578162 
L 608.006893 86.23447 
L 609.756503 86.23447 
L 609.756503 74.432109 
L 611.506113 74.432109 
L 611.506113 80.202152 
L 613.255723 80.202152 
L 613.255723 88.857217 
L 615.005332 88.857217 
L 615.005332 94.627261 
L 616.754942 94.627261 
L 616.754942 107.740996 
L 618.504552 107.740996 
L 618.504552 87.808119 
L 620.254161 87.808119 
L 620.254161 96.463184 
L 622.003771 96.463184 
L 622.003771 108.265546 
L 623.753381 108.265546 
L 623.753381 96.463184 
L 625.50299 96.463184 
L 625.50299 94.364986 
L 629.00221 94.364986 
L 629.00221 96.987733 
L 630.75182 96.987733 
L 630.75182 108.003271 
L 632.501429 108.003271 
L 632.501429 115.609237 
L 634.251039 115.609237 
L 634.251039 108.790095 
L 636.000649 108.790095 
L 636.000649 119.281083 
L 637.750258 119.281083 
L 637.750258 126.624775 
L 639.499868 126.624775 
L 639.499868 137.115763 
L 641.249478 137.115763 
L 641.249478 143.148081 
L 642.999088 143.148081 
L 642.999088 144.721729 
L 644.748697 144.721729 
L 644.748697 166.228255 
L 646.498307 166.228255 
L 646.498307 169.375552 
L 648.247917 169.375552 
L 648.247917 168.588727 
L 649.997526 168.588727 
L 649.997526 173.834222 
L 651.747136 173.834222 
L 651.747136 187.997056 
L 653.496746 187.997056 
L 653.496746 195.865297 
L 655.246355 195.865297 
L 655.246355 202.684439 
L 656.995965 202.684439 
L 656.995965 206.356285 
L 658.745575 206.356285 
L 658.745575 218.158647 
L 660.495185 218.158647 
L 660.495185 226.289162 
L 662.244794 226.289162 
L 662.244794 229.174184 
L 663.994404 229.174184 
L 663.994404 239.402898 
L 665.744014 239.402898 
L 665.744014 238.878348 
L 667.493623 238.878348 
L 667.493623 243.074743 
L 669.243233 243.074743 
L 669.243233 245.435216 
L 670.992843 245.435216 
L 670.992843 239.927447 
L 672.742453 239.927447 
L 672.742453 232.321481 
L 674.492062 232.321481 
L 674.492062 225.240064 
L 676.241672 225.240064 
L 676.241672 218.158647 
L 677.991282 218.158647 
L 677.991282 213.437702 
L 679.740891 213.437702 
L 679.740891 209.503581 
L 681.490501 209.503581 
L 681.490501 201.110791 
L 683.240111 201.110791 
L 683.240111 194.553923 
L 684.98972 194.553923 
L 684.98972 186.161133 
L 686.73933 186.161133 
L 686.73933 175.145595 
L 688.48894 175.145595 
L 688.48894 177.768342 
L 690.23855 177.768342 
L 690.23855 169.113277 
L 691.988159 169.113277 
L 691.988159 172.522848 
L 693.737769 172.522848 
L 693.737769 167.277354 
L 695.487379 167.277354 
L 695.487379 157.04864 
L 697.236988 157.04864 
L 697.236988 164.392332 
L 698.986598 164.392332 
L 698.986598 146.557652 
L 700.736208 146.557652 
L 700.736208 154.950443 
L 702.485817 154.950443 
L 702.485817 149.442674 
L 704.235427 149.442674 
L 704.235427 142.098982 
L 705.985037 142.098982 
L 705.985037 132.132544 
L 707.734647 132.132544 
L 707.734647 141.836708 
L 709.484256 141.836708 
L 709.484256 124.002028 
L 711.233866 124.002028 
L 711.233866 134.493016 
L 712.983476 134.493016 
L 712.983476 122.42838 
L 714.733085 122.42838 
L 714.733085 122.166105 
L 716.482695 122.166105 
L 716.482695 110.363743 
L 718.232305 110.363743 
L 718.232305 118.494259 
L 719.981915 118.494259 
L 719.981915 115.871512 
L 721.731524 115.871512 
L 721.731524 114.560138 
L 723.481134 114.560138 
L 723.481134 98.561381 
L 725.230744 98.561381 
L 725.230744 107.478721 
L 726.980353 107.478721 
L 726.980353 109.05237 
L 728.729963 109.05237 
L 728.729963 105.905073 
L 732.229182 105.905073 
L 732.229182 110.101468 
L 733.978792 110.101468 
L 733.978792 114.822413 
L 735.728402 114.822413 
L 735.728402 123.477478 
L 737.478012 123.477478 
L 737.478012 132.657093 
L 739.227621 132.657093 
L 739.227621 113.248765 
L 740.977231 113.248765 
L 740.977231 121.379281 
L 742.726841 121.379281 
L 742.726841 111.675117 
L 744.47645 111.675117 
L 744.47645 128.985247 
L 746.22606 128.985247 
L 746.22606 127.673874 
L 749.725279 127.673874 
L 749.725279 145.246279 
L 751.474889 145.246279 
L 751.474889 132.394818 
L 753.224499 132.394818 
L 753.224499 137.640312 
L 754.974109 137.640312 
L 754.974109 145.246279 
L 756.723718 145.246279 
L 756.723718 146.557652 
L 758.473328 146.557652 
L 758.473328 134.493016 
L 760.222938 134.493016 
L 760.222938 145.770828 
L 761.972547 145.770828 
L 761.972547 142.885806 
L 763.722157 142.885806 
L 763.722157 155.737267 
L 765.471767 155.737267 
L 765.471767 144.459455 
L 767.221377 144.459455 
L 767.221377 153.11452 
L 768.970986 153.11452 
L 768.970986 157.835465 
L 770.720596 157.835465 
L 770.720596 164.916882 
L 772.470206 164.916882 
L 772.470206 154.950443 
L 774.219815 154.950443 
L 774.219815 164.392332 
L 775.969425 164.392332 
L 775.969425 161.50731 
L 777.719035 161.50731 
L 777.719035 164.654607 
L 779.468644 164.654607 
L 779.468644 170.686925 
L 781.218254 170.686925 
L 781.218254 177.506067 
L 782.967864 177.506067 
L 782.967864 164.130057 
L 784.717474 164.130057 
L 784.717474 172.785123 
L 786.467083 172.785123 
L 786.467083 180.915639 
L 788.216693 180.915639 
L 788.216693 174.358771 
L 789.966303 174.358771 
L 789.966303 178.292891 
L 791.715912 178.292891 
L 791.715912 182.227012 
L 793.465522 182.227012 
L 793.465522 178.817441 
L 795.215132 178.817441 
L 795.215132 186.685682 
L 796.964742 186.685682 
L 796.964742 188.78388 
L 798.714351 188.78388 
L 798.714351 191.144352 
L 800.463961 191.144352 
L 800.463961 198.488044 
L 802.213571 198.488044 
L 802.213571 197.70122 
L 803.96318 197.70122 
L 803.96318 205.569461 
L 805.71279 205.569461 
L 805.71279 207.143109 
L 807.4624 207.143109 
L 807.4624 210.55268 
L 809.212009 210.55268 
L 809.212009 216.322724 
L 810.961619 216.322724 
L 810.961619 216.847273 
L 812.711229 216.847273 
L 812.711229 219.207745 
L 814.460839 219.207745 
L 814.460839 223.141866 
L 816.210448 223.141866 
L 816.210448 228.125085 
L 817.960058 228.125085 
L 817.960058 227.075986 
L 821.459277 227.075986 
L 821.459277 233.895129 
L 823.208887 233.895129 
L 823.208887 234.419678 
L 824.958497 234.419678 
L 824.958497 237.829249 
L 826.708106 237.829249 
L 826.708106 237.042425 
L 828.457716 237.042425 
L 828.457716 240.714271 
L 830.207326 240.714271 
L 830.207326 241.76337 
L 831.956936 241.76337 
L 831.956936 243.861568 
L 833.706545 243.861568 
L 833.706545 244.386117 
L 835.456155 244.386117 
L 835.456155 245.172941 
L 837.205765 245.172941 
L 837.205765 245.69749 
L 838.955374 245.69749 
L 838.955374 246.484315 
L 847.703423 246.484315 
L 847.703423 246.484315 
" clip-path="url(#p6c194b9956)" style="fill: none; stroke: #1f77b4; stroke-width: 1.5; stroke-linecap: square"/>
   </g>
   <g id="line2d_42">
    <path d="M 497.781482 246.484315 
L 506.529531 246.484315 
L 506.529531 243.074743 
L 508.27914 243.074743 
L 508.27914 236.517876 
L 510.02875 236.517876 
L 510.02875 229.174184 
L 511.77836 229.174184 
L 511.77836 219.732295 
L 513.527969 219.732295 
L 513.527969 209.241307 
L 515.277579 209.241307 
L 515.277579 207.929933 
L 517.027189 207.929933 
L 517.027189 197.438945 
L 518.776799 197.438945 
L 518.776799 191.931176 
L 520.526408 191.931176 
L 520.526408 179.079716 
L 522.276018 179.079716 
L 522.276018 174.88332 
L 524.025628 174.88332 
L 524.025628 163.080959 
L 525.775237 163.080959 
L 525.775237 165.703706 
L 527.524847 165.703706 
L 527.524847 150.491773 
L 529.274457 150.491773 
L 529.274457 138.951686 
L 531.024066 138.951686 
L 531.024066 119.543358 
L 532.773676 119.543358 
L 532.773676 116.396061 
L 534.523286 116.396061 
L 534.523286 120.330182 
L 536.272896 120.330182 
L 536.272896 116.658336 
L 538.022505 116.658336 
L 538.022505 118.494259 
L 539.772115 118.494259 
L 539.772115 92.004514 
L 541.521725 92.004514 
L 541.521725 78.628504 
L 543.271334 78.628504 
L 543.271334 84.398547 
L 545.020944 84.398547 
L 545.020944 99.085931 
L 546.770554 99.085931 
L 546.770554 69.711164 
L 548.520163 69.711164 
L 548.520163 64.727945 
L 550.269773 64.727945 
L 550.269773 72.596186 
L 552.019383 72.596186 
L 552.019383 64.203395 
L 553.768993 64.203395 
L 553.768993 58.171077 
L 555.518602 58.171077 
L 555.518602 50.302836 
L 557.268212 50.302836 
L 557.268212 47.155539 
L 559.017822 47.155539 
L 559.017822 46.893265 
L 560.767431 46.893265 
L 560.767431 34.304079 
L 562.517041 34.304079 
L 562.517041 34.566354 
L 564.266651 34.566354 
L 564.266651 45.581891 
L 566.016261 45.581891 
L 566.016261 40.074122 
L 567.76587 40.074122 
L 567.76587 47.417814 
L 569.51548 47.417814 
L 569.51548 34.304079 
L 571.26509 34.304079 
L 571.26509 56.597429 
L 573.014699 56.597429 
L 573.014699 61.580648 
L 574.764309 61.580648 
L 574.764309 52.925583 
L 576.513919 52.925583 
L 576.513919 63.941121 
L 578.263528 63.941121 
L 578.263528 69.448889 
L 580.013138 69.448889 
L 580.013138 60.269275 
L 581.762748 60.269275 
L 581.762748 67.088417 
L 583.512358 67.088417 
L 583.512358 67.875241 
L 585.261967 67.875241 
L 585.261967 84.923097 
L 587.011577 84.923097 
L 587.011577 71.284812 
L 588.761187 71.284812 
L 588.761187 78.628504 
L 590.510796 78.628504 
L 590.510796 80.202152 
L 592.260406 80.202152 
L 592.260406 77.84168 
L 594.010016 77.84168 
L 594.010016 78.366229 
L 595.759626 78.366229 
L 595.759626 90.69314 
L 597.509235 90.69314 
L 597.509235 72.071636 
L 599.258845 72.071636 
L 599.258845 76.005757 
L 601.008455 76.005757 
L 601.008455 80.726702 
L 602.758064 80.726702 
L 602.758064 88.857217 
L 604.507674 88.857217 
L 604.507674 94.889536 
L 606.257284 94.889536 
L 606.257284 82.30035 
L 608.006893 82.30035 
L 608.006893 85.709921 
L 609.756503 85.709921 
L 609.756503 77.31713 
L 611.506113 77.31713 
L 611.506113 87.021294 
L 613.255723 87.021294 
L 613.255723 83.087174 
L 615.005332 83.087174 
L 615.005332 96.987733 
L 616.754942 96.987733 
L 616.754942 102.233227 
L 618.504552 102.233227 
L 618.504552 89.119492 
L 620.254161 89.119492 
L 620.254161 100.13503 
L 622.003771 100.13503 
L 622.003771 99.085931 
L 623.753381 99.085931 
L 623.753381 104.331425 
L 625.50299 104.331425 
L 625.50299 98.036832 
L 627.2526 98.036832 
L 627.2526 91.742239 
L 629.00221 91.742239 
L 629.00221 98.561381 
L 630.75182 98.561381 
L 630.75182 103.282326 
L 632.501429 103.282326 
L 632.501429 115.871512 
L 634.251039 115.871512 
L 634.251039 114.035589 
L 636.000649 114.035589 
L 636.000649 118.756534 
L 637.750258 118.756534 
L 637.750258 126.3625 
L 639.499868 126.3625 
L 639.499868 134.493016 
L 641.249478 134.493016 
L 641.249478 139.213961 
L 642.999088 139.213961 
L 642.999088 150.491773 
L 644.748697 150.491773 
L 644.748697 158.360014 
L 646.498307 158.360014 
L 646.498307 172.522848 
L 648.247917 172.522848 
L 648.247917 171.473749 
L 649.997526 171.473749 
L 649.997526 175.145595 
L 651.747136 175.145595 
L 651.747136 184.062935 
L 653.496746 184.062935 
L 653.496746 197.17667 
L 655.246355 197.17667 
L 655.246355 204.520362 
L 656.995965 204.520362 
L 656.995965 203.995812 
L 658.745575 203.995812 
L 658.745575 217.371822 
L 660.495185 217.371822 
L 660.495185 227.338261 
L 662.244794 227.338261 
L 662.244794 229.698733 
L 663.994404 229.698733 
L 663.994404 238.091524 
L 665.744014 238.091524 
L 665.744014 239.402898 
L 667.493623 239.402898 
L 667.493623 242.812469 
L 669.243233 242.812469 
L 669.243233 245.172941 
L 670.992843 245.172941 
L 670.992843 238.091524 
L 672.742453 238.091524 
L 672.742453 233.370579 
L 674.492062 233.370579 
L 674.492062 224.715514 
L 676.241672 224.715514 
L 676.241672 218.945471 
L 677.991282 218.945471 
L 677.991282 211.864054 
L 679.740891 211.864054 
L 679.740891 209.241307 
L 681.490501 209.241307 
L 681.490501 201.110791 
L 683.240111 201.110791 
L 683.240111 196.652121 
L 684.98972 196.652121 
L 684.98972 187.210231 
L 686.73933 187.210231 
L 686.73933 174.88332 
L 688.48894 174.88332 
L 688.48894 176.194694 
L 690.23855 176.194694 
L 690.23855 172.522848 
L 691.988159 172.522848 
L 691.988159 170.9492 
L 693.737769 170.9492 
L 693.737769 163.605508 
L 695.487379 163.605508 
L 695.487379 160.982761 
L 697.236988 160.982761 
L 697.236988 159.146838 
L 698.986598 159.146838 
L 698.986598 146.557652 
L 700.736208 146.557652 
L 700.736208 159.146838 
L 702.485817 159.146838 
L 702.485817 148.131301 
L 704.235427 148.131301 
L 704.235427 145.508553 
L 705.985037 145.508553 
L 705.985037 133.706192 
L 707.734647 133.706192 
L 707.734647 133.443917 
L 709.484256 133.443917 
L 709.484256 130.034346 
L 711.233866 130.034346 
L 711.233866 128.198423 
L 712.983476 128.198423 
L 712.983476 127.411599 
L 714.733085 127.411599 
L 714.733085 113.248765 
L 716.482695 113.248765 
L 716.482695 116.396061 
L 718.232305 116.396061 
L 718.232305 122.42838 
L 719.981915 122.42838 
L 719.981915 114.560138 
L 721.731524 114.560138 
L 721.731524 111.412842 
L 723.481134 111.412842 
L 723.481134 103.806876 
L 725.230744 103.806876 
L 725.230744 104.5937 
L 726.980353 104.5937 
L 726.980353 106.429623 
L 728.729963 106.429623 
L 728.729963 101.184129 
L 730.479573 101.184129 
L 730.479573 111.937391 
L 732.229182 111.937391 
L 732.229182 116.658336 
L 733.978792 116.658336 
L 733.978792 113.773314 
L 735.728402 113.773314 
L 735.728402 124.264302 
L 737.478012 124.264302 
L 737.478012 118.756534 
L 739.227621 118.756534 
L 739.227621 118.494259 
L 740.977231 118.494259 
L 740.977231 116.396061 
L 742.726841 116.396061 
L 742.726841 126.100225 
L 744.47645 126.100225 
L 744.47645 120.330182 
L 746.22606 120.330182 
L 746.22606 128.985247 
L 747.97567 128.985247 
L 747.97567 133.443917 
L 751.474889 133.443917 
L 751.474889 141.574433 
L 753.224499 141.574433 
L 753.224499 136.853488 
L 754.974109 136.853488 
L 754.974109 145.246279 
L 756.723718 145.246279 
L 756.723718 147.344476 
L 758.473328 147.344476 
L 758.473328 134.230741 
L 760.222938 134.230741 
L 760.222938 144.721729 
L 761.972547 144.721729 
L 761.972547 142.623532 
L 763.722157 142.623532 
L 763.722157 151.278597 
L 765.471767 151.278597 
L 765.471767 146.557652 
L 767.221377 146.557652 
L 767.221377 154.950443 
L 768.970986 154.950443 
L 768.970986 157.57319 
L 770.720596 157.57319 
L 770.720596 162.818684 
L 772.470206 162.818684 
L 772.470206 158.097739 
L 774.219815 158.097739 
L 774.219815 162.294135 
L 775.969425 162.294135 
L 775.969425 159.671388 
L 777.719035 159.671388 
L 777.719035 163.080959 
L 779.468644 163.080959 
L 779.468644 175.40787 
L 781.218254 175.40787 
L 781.218254 172.260573 
L 782.967864 172.260573 
L 782.967864 169.113277 
L 784.717474 169.113277 
L 784.717474 180.653364 
L 786.467083 180.653364 
L 786.467083 171.736024 
L 788.216693 171.736024 
L 788.216693 180.391089 
L 789.966303 180.391089 
L 789.966303 174.88332 
L 791.715912 174.88332 
L 791.715912 185.112034 
L 793.465522 185.112034 
L 793.465522 178.030617 
L 795.215132 178.030617 
L 795.215132 182.227012 
L 796.964742 182.227012 
L 796.964742 188.78388 
L 798.714351 188.78388 
L 798.714351 193.767099 
L 800.463961 193.767099 
L 800.463961 198.225769 
L 802.213571 198.225769 
L 802.213571 195.603022 
L 803.96318 195.603022 
L 803.96318 207.405384 
L 805.71279 207.405384 
L 805.71279 205.307186 
L 807.4624 205.307186 
L 807.4624 214.486801 
L 809.212009 214.486801 
L 809.212009 213.437702 
L 810.961619 213.437702 
L 810.961619 218.945471 
L 812.711229 218.945471 
L 812.711229 219.207745 
L 814.460839 219.207745 
L 814.460839 223.92869 
L 816.210448 223.92869 
L 816.210448 226.289162 
L 817.960058 226.289162 
L 817.960058 228.649635 
L 819.709668 228.649635 
L 819.709668 227.075986 
L 821.459277 227.075986 
L 821.459277 233.895129 
L 823.208887 233.895129 
L 823.208887 231.796931 
L 824.958497 231.796931 
L 824.958497 238.091524 
L 828.457716 238.091524 
L 828.457716 240.189722 
L 830.207326 240.189722 
L 830.207326 241.76337 
L 831.956936 241.76337 
L 831.956936 243.861568 
L 833.706545 243.861568 
L 833.706545 244.386117 
L 835.456155 244.386117 
L 835.456155 245.172941 
L 837.205765 245.172941 
L 837.205765 245.69749 
L 838.955374 245.69749 
L 838.955374 246.484315 
L 847.703423 246.484315 
L 847.703423 246.484315 
" clip-path="url(#p6c194b9956)" style="fill: none; stroke: #ff7f0e; stroke-width: 1.5; stroke-linecap: square"/>
   </g>
  </g>
 </g>
 <defs>
  <clipPath id="pe2c3272ece">
   <rect x="46.965625" y="22.318125" width="384.914135" height="234.84077"/>
  </clipPath>
  <clipPath id="p6c194b9956">
   <rect x="480.285385" y="22.318125" width="384.914135" height="234.84077"/>
  </clipPath>
 </defs>
</svg>
