<?xml version="1.0" encoding="utf-8" standalone="no"?>
<!DOCTYPE svg PUBLIC "-//W3C//DTD SVG 1.1//EN"
  "http://www.w3.org/Graphics/SVG/1.1/DTD/svg11.dtd">
<svg xmlns:xlink="http://www.w3.org/1999/xlink" width="872.39952pt" height="296.39952pt" viewBox="0 0 872.39952 296.39952" xmlns="http://www.w3.org/2000/svg" version="1.1">
 <metadata>
  <rdf:RDF xmlns:dc="http://purl.org/dc/elements/1.1/" xmlns:cc="http://creativecommons.org/ns#" xmlns:rdf="http://www.w3.org/1999/02/22-rdf-syntax-ns#">
   <cc:Work>
    <dc:type rdf:resource="http://purl.org/dc/dcmitype/StillImage"/>
    <dc:date>2025-05-14T12:10:48.999972</dc:date>
    <dc:format>image/svg+xml</dc:format>
    <dc:creator>
     <cc:Agent>
      <dc:title>Matplotlib v3.10.1, https://matplotlib.org/</dc:title>
     </cc:Agent>
    </dc:creator>
   </cc:Work>
  </rdf:RDF>
 </metadata>
 <defs>
  <style type="text/css">*{stroke-linejoin: round; stroke-linecap: butt}</style>
 </defs>
 <g id="figure_1">
  <g id="patch_1">
   <path d="M 0 296.39952 
L 872.39952 296.39952 
L 872.39952 0 
L 0 0 
z
" style="fill: #ffffff"/>
  </g>
  <g id="axes_1">
   <g id="patch_2">
    <path d="M 53.328125 257.158895 
L 431.87976 257.158895 
L 431.87976 7.2 
L 53.328125 7.2 
z
" style="fill: #ffffff"/>
   </g>
   <g id="matplotlib.axis_1">
    <g id="xtick_1">
     <g id="line2d_1">
      <defs>
       <path id="m239b9ff813" d="M 0 0 
L 0 3.5 
" style="stroke: #000000; stroke-width: 0.8"/>
      </defs>
      <g>
       <use xlink:href="#m239b9ff813" x="69.664621" y="257.158895" style="stroke: #000000; stroke-width: 0.8"/>
      </g>
     </g>
     <g id="text_1">
      <!-- 0 -->
      <g transform="translate(66.483371 271.757332) scale(0.1 -0.1)">
       <defs>
        <path id="DejaVuSans-30" d="M 2034 4250 
Q 1547 4250 1301 3770 
Q 1056 3291 1056 2328 
Q 1056 1369 1301 889 
Q 1547 409 2034 409 
Q 2525 409 2770 889 
Q 3016 1369 3016 2328 
Q 3016 3291 2770 3770 
Q 2525 4250 2034 4250 
z
M 2034 4750 
Q 2819 4750 3233 4129 
Q 3647 3509 3647 2328 
Q 3647 1150 3233 529 
Q 2819 -91 2034 -91 
Q 1250 -91 836 529 
Q 422 1150 422 2328 
Q 422 3509 836 4129 
Q 1250 4750 2034 4750 
z
" transform="scale(0.015625)"/>
       </defs>
       <use xlink:href="#DejaVuSans-30"/>
      </g>
     </g>
    </g>
    <g id="xtick_2">
     <g id="line2d_2">
      <g>
       <use xlink:href="#m239b9ff813" x="139.02905" y="257.158895" style="stroke: #000000; stroke-width: 0.8"/>
      </g>
     </g>
     <g id="text_2">
      <!-- 1000 -->
      <g transform="translate(126.30405 271.757332) scale(0.1 -0.1)">
       <defs>
        <path id="DejaVuSans-31" d="M 794 531 
L 1825 531 
L 1825 4091 
L 703 3866 
L 703 4441 
L 1819 4666 
L 2450 4666 
L 2450 531 
L 3481 531 
L 3481 0 
L 794 0 
L 794 531 
z
" transform="scale(0.015625)"/>
       </defs>
       <use xlink:href="#DejaVuSans-31"/>
       <use xlink:href="#DejaVuSans-30" transform="translate(63.623047 0)"/>
       <use xlink:href="#DejaVuSans-30" transform="translate(127.246094 0)"/>
       <use xlink:href="#DejaVuSans-30" transform="translate(190.869141 0)"/>
      </g>
     </g>
    </g>
    <g id="xtick_3">
     <g id="line2d_3">
      <g>
       <use xlink:href="#m239b9ff813" x="208.393479" y="257.158895" style="stroke: #000000; stroke-width: 0.8"/>
      </g>
     </g>
     <g id="text_3">
      <!-- 2000 -->
      <g transform="translate(195.668479 271.757332) scale(0.1 -0.1)">
       <defs>
        <path id="DejaVuSans-32" d="M 1228 531 
L 3431 531 
L 3431 0 
L 469 0 
L 469 531 
Q 828 903 1448 1529 
Q 2069 2156 2228 2338 
Q 2531 2678 2651 2914 
Q 2772 3150 2772 3378 
Q 2772 3750 2511 3984 
Q 2250 4219 1831 4219 
Q 1534 4219 1204 4116 
Q 875 4013 500 3803 
L 500 4441 
Q 881 4594 1212 4672 
Q 1544 4750 1819 4750 
Q 2544 4750 2975 4387 
Q 3406 4025 3406 3419 
Q 3406 3131 3298 2873 
Q 3191 2616 2906 2266 
Q 2828 2175 2409 1742 
Q 1991 1309 1228 531 
z
" transform="scale(0.015625)"/>
       </defs>
       <use xlink:href="#DejaVuSans-32"/>
       <use xlink:href="#DejaVuSans-30" transform="translate(63.623047 0)"/>
       <use xlink:href="#DejaVuSans-30" transform="translate(127.246094 0)"/>
       <use xlink:href="#DejaVuSans-30" transform="translate(190.869141 0)"/>
      </g>
     </g>
    </g>
    <g id="xtick_4">
     <g id="line2d_4">
      <g>
       <use xlink:href="#m239b9ff813" x="277.757907" y="257.158895" style="stroke: #000000; stroke-width: 0.8"/>
      </g>
     </g>
     <g id="text_4">
      <!-- 3000 -->
      <g transform="translate(265.032907 271.757332) scale(0.1 -0.1)">
       <defs>
        <path id="DejaVuSans-33" d="M 2597 2516 
Q 3050 2419 3304 2112 
Q 3559 1806 3559 1356 
Q 3559 666 3084 287 
Q 2609 -91 1734 -91 
Q 1441 -91 1130 -33 
Q 819 25 488 141 
L 488 750 
Q 750 597 1062 519 
Q 1375 441 1716 441 
Q 2309 441 2620 675 
Q 2931 909 2931 1356 
Q 2931 1769 2642 2001 
Q 2353 2234 1838 2234 
L 1294 2234 
L 1294 2753 
L 1863 2753 
Q 2328 2753 2575 2939 
Q 2822 3125 2822 3475 
Q 2822 3834 2567 4026 
Q 2313 4219 1838 4219 
Q 1578 4219 1281 4162 
Q 984 4106 628 3988 
L 628 4550 
Q 988 4650 1302 4700 
Q 1616 4750 1894 4750 
Q 2613 4750 3031 4423 
Q 3450 4097 3450 3541 
Q 3450 3153 3228 2886 
Q 3006 2619 2597 2516 
z
" transform="scale(0.015625)"/>
       </defs>
       <use xlink:href="#DejaVuSans-33"/>
       <use xlink:href="#DejaVuSans-30" transform="translate(63.623047 0)"/>
       <use xlink:href="#DejaVuSans-30" transform="translate(127.246094 0)"/>
       <use xlink:href="#DejaVuSans-30" transform="translate(190.869141 0)"/>
      </g>
     </g>
    </g>
    <g id="xtick_5">
     <g id="line2d_5">
      <g>
       <use xlink:href="#m239b9ff813" x="347.122336" y="257.158895" style="stroke: #000000; stroke-width: 0.8"/>
      </g>
     </g>
     <g id="text_5">
      <!-- 4000 -->
      <g transform="translate(334.397336 271.757332) scale(0.1 -0.1)">
       <defs>
        <path id="DejaVuSans-34" d="M 2419 4116 
L 825 1625 
L 2419 1625 
L 2419 4116 
z
M 2253 4666 
L 3047 4666 
L 3047 1625 
L 3713 1625 
L 3713 1100 
L 3047 1100 
L 3047 0 
L 2419 0 
L 2419 1100 
L 313 1100 
L 313 1709 
L 2253 4666 
z
" transform="scale(0.015625)"/>
       </defs>
       <use xlink:href="#DejaVuSans-34"/>
       <use xlink:href="#DejaVuSans-30" transform="translate(63.623047 0)"/>
       <use xlink:href="#DejaVuSans-30" transform="translate(127.246094 0)"/>
       <use xlink:href="#DejaVuSans-30" transform="translate(190.869141 0)"/>
      </g>
     </g>
    </g>
    <g id="xtick_6">
     <g id="line2d_6">
      <g>
       <use xlink:href="#m239b9ff813" x="416.486765" y="257.158895" style="stroke: #000000; stroke-width: 0.8"/>
      </g>
     </g>
     <g id="text_6">
      <!-- 5000 -->
      <g transform="translate(403.761765 271.757332) scale(0.1 -0.1)">
       <defs>
        <path id="DejaVuSans-35" d="M 691 4666 
L 3169 4666 
L 3169 4134 
L 1269 4134 
L 1269 2991 
Q 1406 3038 1543 3061 
Q 1681 3084 1819 3084 
Q 2600 3084 3056 2656 
Q 3513 2228 3513 1497 
Q 3513 744 3044 326 
Q 2575 -91 1722 -91 
Q 1428 -91 1123 -41 
Q 819 9 494 109 
L 494 744 
Q 775 591 1075 516 
Q 1375 441 1709 441 
Q 2250 441 2565 725 
Q 2881 1009 2881 1497 
Q 2881 1984 2565 2268 
Q 2250 2553 1709 2553 
Q 1456 2553 1204 2497 
Q 953 2441 691 2322 
L 691 4666 
z
" transform="scale(0.015625)"/>
       </defs>
       <use xlink:href="#DejaVuSans-35"/>
       <use xlink:href="#DejaVuSans-30" transform="translate(63.623047 0)"/>
       <use xlink:href="#DejaVuSans-30" transform="translate(127.246094 0)"/>
       <use xlink:href="#DejaVuSans-30" transform="translate(190.869141 0)"/>
      </g>
     </g>
    </g>
    <g id="text_7">
     <!-- birth_time [µs] -->
     <g transform="translate(205.78363 285.435457) scale(0.1 -0.1)">
      <defs>
       <path id="DejaVuSans-62" d="M 3116 1747 
Q 3116 2381 2855 2742 
Q 2594 3103 2138 3103 
Q 1681 3103 1420 2742 
Q 1159 2381 1159 1747 
Q 1159 1113 1420 752 
Q 1681 391 2138 391 
Q 2594 391 2855 752 
Q 3116 1113 3116 1747 
z
M 1159 2969 
Q 1341 3281 1617 3432 
Q 1894 3584 2278 3584 
Q 2916 3584 3314 3078 
Q 3713 2572 3713 1747 
Q 3713 922 3314 415 
Q 2916 -91 2278 -91 
Q 1894 -91 1617 61 
Q 1341 213 1159 525 
L 1159 0 
L 581 0 
L 581 4863 
L 1159 4863 
L 1159 2969 
z
" transform="scale(0.015625)"/>
       <path id="DejaVuSans-69" d="M 603 3500 
L 1178 3500 
L 1178 0 
L 603 0 
L 603 3500 
z
M 603 4863 
L 1178 4863 
L 1178 4134 
L 603 4134 
L 603 4863 
z
" transform="scale(0.015625)"/>
       <path id="DejaVuSans-72" d="M 2631 2963 
Q 2534 3019 2420 3045 
Q 2306 3072 2169 3072 
Q 1681 3072 1420 2755 
Q 1159 2438 1159 1844 
L 1159 0 
L 581 0 
L 581 3500 
L 1159 3500 
L 1159 2956 
Q 1341 3275 1631 3429 
Q 1922 3584 2338 3584 
Q 2397 3584 2469 3576 
Q 2541 3569 2628 3553 
L 2631 2963 
z
" transform="scale(0.015625)"/>
       <path id="DejaVuSans-74" d="M 1172 4494 
L 1172 3500 
L 2356 3500 
L 2356 3053 
L 1172 3053 
L 1172 1153 
Q 1172 725 1289 603 
Q 1406 481 1766 481 
L 2356 481 
L 2356 0 
L 1766 0 
Q 1100 0 847 248 
Q 594 497 594 1153 
L 594 3053 
L 172 3053 
L 172 3500 
L 594 3500 
L 594 4494 
L 1172 4494 
z
" transform="scale(0.015625)"/>
       <path id="DejaVuSans-68" d="M 3513 2113 
L 3513 0 
L 2938 0 
L 2938 2094 
Q 2938 2591 2744 2837 
Q 2550 3084 2163 3084 
Q 1697 3084 1428 2787 
Q 1159 2491 1159 1978 
L 1159 0 
L 581 0 
L 581 4863 
L 1159 4863 
L 1159 2956 
Q 1366 3272 1645 3428 
Q 1925 3584 2291 3584 
Q 2894 3584 3203 3211 
Q 3513 2838 3513 2113 
z
" transform="scale(0.015625)"/>
       <path id="DejaVuSans-5f" d="M 3263 -1063 
L 3263 -1509 
L -63 -1509 
L -63 -1063 
L 3263 -1063 
z
" transform="scale(0.015625)"/>
       <path id="DejaVuSans-6d" d="M 3328 2828 
Q 3544 3216 3844 3400 
Q 4144 3584 4550 3584 
Q 5097 3584 5394 3201 
Q 5691 2819 5691 2113 
L 5691 0 
L 5113 0 
L 5113 2094 
Q 5113 2597 4934 2840 
Q 4756 3084 4391 3084 
Q 3944 3084 3684 2787 
Q 3425 2491 3425 1978 
L 3425 0 
L 2847 0 
L 2847 2094 
Q 2847 2600 2669 2842 
Q 2491 3084 2119 3084 
Q 1678 3084 1418 2786 
Q 1159 2488 1159 1978 
L 1159 0 
L 581 0 
L 581 3500 
L 1159 3500 
L 1159 2956 
Q 1356 3278 1631 3431 
Q 1906 3584 2284 3584 
Q 2666 3584 2933 3390 
Q 3200 3197 3328 2828 
z
" transform="scale(0.015625)"/>
       <path id="DejaVuSans-65" d="M 3597 1894 
L 3597 1613 
L 953 1613 
Q 991 1019 1311 708 
Q 1631 397 2203 397 
Q 2534 397 2845 478 
Q 3156 559 3463 722 
L 3463 178 
Q 3153 47 2828 -22 
Q 2503 -91 2169 -91 
Q 1331 -91 842 396 
Q 353 884 353 1716 
Q 353 2575 817 3079 
Q 1281 3584 2069 3584 
Q 2775 3584 3186 3129 
Q 3597 2675 3597 1894 
z
M 3022 2063 
Q 3016 2534 2758 2815 
Q 2500 3097 2075 3097 
Q 1594 3097 1305 2825 
Q 1016 2553 972 2059 
L 3022 2063 
z
" transform="scale(0.015625)"/>
       <path id="DejaVuSans-20" transform="scale(0.015625)"/>
       <path id="DejaVuSans-5b" d="M 550 4863 
L 1875 4863 
L 1875 4416 
L 1125 4416 
L 1125 -397 
L 1875 -397 
L 1875 -844 
L 550 -844 
L 550 4863 
z
" transform="scale(0.015625)"/>
       <path id="DejaVuSans-b5" d="M 544 -1331 
L 544 3500 
L 1119 3500 
L 1119 1325 
Q 1119 872 1334 640 
Q 1550 409 1972 409 
Q 2434 409 2667 671 
Q 2900 934 2900 1459 
L 2900 3500 
L 3475 3500 
L 3475 806 
Q 3475 619 3529 530 
Q 3584 441 3700 441 
Q 3728 441 3778 458 
Q 3828 475 3916 513 
L 3916 50 
Q 3788 -22 3673 -56 
Q 3559 -91 3450 -91 
Q 3234 -91 3106 31 
Q 2978 153 2931 403 
Q 2775 156 2548 32 
Q 2322 -91 2016 -91 
Q 1697 -91 1473 31 
Q 1250 153 1119 397 
L 1119 -1331 
L 544 -1331 
z
" transform="scale(0.015625)"/>
       <path id="DejaVuSans-73" d="M 2834 3397 
L 2834 2853 
Q 2591 2978 2328 3040 
Q 2066 3103 1784 3103 
Q 1356 3103 1142 2972 
Q 928 2841 928 2578 
Q 928 2378 1081 2264 
Q 1234 2150 1697 2047 
L 1894 2003 
Q 2506 1872 2764 1633 
Q 3022 1394 3022 966 
Q 3022 478 2636 193 
Q 2250 -91 1575 -91 
Q 1294 -91 989 -36 
Q 684 19 347 128 
L 347 722 
Q 666 556 975 473 
Q 1284 391 1588 391 
Q 1994 391 2212 530 
Q 2431 669 2431 922 
Q 2431 1156 2273 1281 
Q 2116 1406 1581 1522 
L 1381 1569 
Q 847 1681 609 1914 
Q 372 2147 372 2553 
Q 372 3047 722 3315 
Q 1072 3584 1716 3584 
Q 2034 3584 2315 3537 
Q 2597 3491 2834 3397 
z
" transform="scale(0.015625)"/>
       <path id="DejaVuSans-5d" d="M 1947 4863 
L 1947 -844 
L 622 -844 
L 622 -397 
L 1369 -397 
L 1369 4416 
L 622 4416 
L 622 4863 
L 1947 4863 
z
" transform="scale(0.015625)"/>
      </defs>
      <use xlink:href="#DejaVuSans-62"/>
      <use xlink:href="#DejaVuSans-69" transform="translate(63.476562 0)"/>
      <use xlink:href="#DejaVuSans-72" transform="translate(91.259766 0)"/>
      <use xlink:href="#DejaVuSans-74" transform="translate(132.373047 0)"/>
      <use xlink:href="#DejaVuSans-68" transform="translate(171.582031 0)"/>
      <use xlink:href="#DejaVuSans-5f" transform="translate(234.960938 0)"/>
      <use xlink:href="#DejaVuSans-74" transform="translate(284.960938 0)"/>
      <use xlink:href="#DejaVuSans-69" transform="translate(324.169922 0)"/>
      <use xlink:href="#DejaVuSans-6d" transform="translate(351.953125 0)"/>
      <use xlink:href="#DejaVuSans-65" transform="translate(449.365234 0)"/>
      <use xlink:href="#DejaVuSans-20" transform="translate(510.888672 0)"/>
      <use xlink:href="#DejaVuSans-5b" transform="translate(542.675781 0)"/>
      <use xlink:href="#DejaVuSans-b5" transform="translate(581.689453 0)"/>
      <use xlink:href="#DejaVuSans-73" transform="translate(645.3125 0)"/>
      <use xlink:href="#DejaVuSans-5d" transform="translate(697.412109 0)"/>
     </g>
    </g>
   </g>
   <g id="matplotlib.axis_2">
    <g id="ytick_1">
     <g id="line2d_7">
      <defs>
       <path id="m6dc46f46fd" d="M 0 0 
L -3.5 0 
" style="stroke: #000000; stroke-width: 0.8"/>
      </defs>
      <g>
       <use xlink:href="#m6dc46f46fd" x="53.328125" y="245.797127" style="stroke: #000000; stroke-width: 0.8"/>
      </g>
     </g>
     <g id="text_8">
      <!-- 0 -->
      <g transform="translate(39.965625 249.596346) scale(0.1 -0.1)">
       <use xlink:href="#DejaVuSans-30"/>
      </g>
     </g>
    </g>
    <g id="ytick_2">
     <g id="line2d_8">
      <g>
       <use xlink:href="#m6dc46f46fd" x="53.328125" y="209.264111" style="stroke: #000000; stroke-width: 0.8"/>
      </g>
     </g>
     <g id="text_9">
      <!-- 200 -->
      <g transform="translate(27.240625 213.06333) scale(0.1 -0.1)">
       <use xlink:href="#DejaVuSans-32"/>
       <use xlink:href="#DejaVuSans-30" transform="translate(63.623047 0)"/>
       <use xlink:href="#DejaVuSans-30" transform="translate(127.246094 0)"/>
      </g>
     </g>
    </g>
    <g id="ytick_3">
     <g id="line2d_9">
      <g>
       <use xlink:href="#m6dc46f46fd" x="53.328125" y="172.731095" style="stroke: #000000; stroke-width: 0.8"/>
      </g>
     </g>
     <g id="text_10">
      <!-- 400 -->
      <g transform="translate(27.240625 176.530314) scale(0.1 -0.1)">
       <use xlink:href="#DejaVuSans-34"/>
       <use xlink:href="#DejaVuSans-30" transform="translate(63.623047 0)"/>
       <use xlink:href="#DejaVuSans-30" transform="translate(127.246094 0)"/>
      </g>
     </g>
    </g>
    <g id="ytick_4">
     <g id="line2d_10">
      <g>
       <use xlink:href="#m6dc46f46fd" x="53.328125" y="136.198079" style="stroke: #000000; stroke-width: 0.8"/>
      </g>
     </g>
     <g id="text_11">
      <!-- 600 -->
      <g transform="translate(27.240625 139.997298) scale(0.1 -0.1)">
       <defs>
        <path id="DejaVuSans-36" d="M 2113 2584 
Q 1688 2584 1439 2293 
Q 1191 2003 1191 1497 
Q 1191 994 1439 701 
Q 1688 409 2113 409 
Q 2538 409 2786 701 
Q 3034 994 3034 1497 
Q 3034 2003 2786 2293 
Q 2538 2584 2113 2584 
z
M 3366 4563 
L 3366 3988 
Q 3128 4100 2886 4159 
Q 2644 4219 2406 4219 
Q 1781 4219 1451 3797 
Q 1122 3375 1075 2522 
Q 1259 2794 1537 2939 
Q 1816 3084 2150 3084 
Q 2853 3084 3261 2657 
Q 3669 2231 3669 1497 
Q 3669 778 3244 343 
Q 2819 -91 2113 -91 
Q 1303 -91 875 529 
Q 447 1150 447 2328 
Q 447 3434 972 4092 
Q 1497 4750 2381 4750 
Q 2619 4750 2861 4703 
Q 3103 4656 3366 4563 
z
" transform="scale(0.015625)"/>
       </defs>
       <use xlink:href="#DejaVuSans-36"/>
       <use xlink:href="#DejaVuSans-30" transform="translate(63.623047 0)"/>
       <use xlink:href="#DejaVuSans-30" transform="translate(127.246094 0)"/>
      </g>
     </g>
    </g>
    <g id="ytick_5">
     <g id="line2d_11">
      <g>
       <use xlink:href="#m6dc46f46fd" x="53.328125" y="99.665063" style="stroke: #000000; stroke-width: 0.8"/>
      </g>
     </g>
     <g id="text_12">
      <!-- 800 -->
      <g transform="translate(27.240625 103.464282) scale(0.1 -0.1)">
       <defs>
        <path id="DejaVuSans-38" d="M 2034 2216 
Q 1584 2216 1326 1975 
Q 1069 1734 1069 1313 
Q 1069 891 1326 650 
Q 1584 409 2034 409 
Q 2484 409 2743 651 
Q 3003 894 3003 1313 
Q 3003 1734 2745 1975 
Q 2488 2216 2034 2216 
z
M 1403 2484 
Q 997 2584 770 2862 
Q 544 3141 544 3541 
Q 544 4100 942 4425 
Q 1341 4750 2034 4750 
Q 2731 4750 3128 4425 
Q 3525 4100 3525 3541 
Q 3525 3141 3298 2862 
Q 3072 2584 2669 2484 
Q 3125 2378 3379 2068 
Q 3634 1759 3634 1313 
Q 3634 634 3220 271 
Q 2806 -91 2034 -91 
Q 1263 -91 848 271 
Q 434 634 434 1313 
Q 434 1759 690 2068 
Q 947 2378 1403 2484 
z
M 1172 3481 
Q 1172 3119 1398 2916 
Q 1625 2713 2034 2713 
Q 2441 2713 2670 2916 
Q 2900 3119 2900 3481 
Q 2900 3844 2670 4047 
Q 2441 4250 2034 4250 
Q 1625 4250 1398 4047 
Q 1172 3844 1172 3481 
z
" transform="scale(0.015625)"/>
       </defs>
       <use xlink:href="#DejaVuSans-38"/>
       <use xlink:href="#DejaVuSans-30" transform="translate(63.623047 0)"/>
       <use xlink:href="#DejaVuSans-30" transform="translate(127.246094 0)"/>
      </g>
     </g>
    </g>
    <g id="ytick_6">
     <g id="line2d_12">
      <g>
       <use xlink:href="#m6dc46f46fd" x="53.328125" y="63.132047" style="stroke: #000000; stroke-width: 0.8"/>
      </g>
     </g>
     <g id="text_13">
      <!-- 1000 -->
      <g transform="translate(20.878125 66.931266) scale(0.1 -0.1)">
       <use xlink:href="#DejaVuSans-31"/>
       <use xlink:href="#DejaVuSans-30" transform="translate(63.623047 0)"/>
       <use xlink:href="#DejaVuSans-30" transform="translate(127.246094 0)"/>
       <use xlink:href="#DejaVuSans-30" transform="translate(190.869141 0)"/>
      </g>
     </g>
    </g>
    <g id="ytick_7">
     <g id="line2d_13">
      <g>
       <use xlink:href="#m6dc46f46fd" x="53.328125" y="26.599031" style="stroke: #000000; stroke-width: 0.8"/>
      </g>
     </g>
     <g id="text_14">
      <!-- 1200 -->
      <g transform="translate(20.878125 30.39825) scale(0.1 -0.1)">
       <use xlink:href="#DejaVuSans-31"/>
       <use xlink:href="#DejaVuSans-32" transform="translate(63.623047 0)"/>
       <use xlink:href="#DejaVuSans-30" transform="translate(127.246094 0)"/>
       <use xlink:href="#DejaVuSans-30" transform="translate(190.869141 0)"/>
      </g>
     </g>
    </g>
    <g id="text_15">
     <!-- [counts] -->
     <g transform="translate(14.798438 152.791947) rotate(-90) scale(0.1 -0.1)">
      <defs>
       <path id="DejaVuSans-63" d="M 3122 3366 
L 3122 2828 
Q 2878 2963 2633 3030 
Q 2388 3097 2138 3097 
Q 1578 3097 1268 2742 
Q 959 2388 959 1747 
Q 959 1106 1268 751 
Q 1578 397 2138 397 
Q 2388 397 2633 464 
Q 2878 531 3122 666 
L 3122 134 
Q 2881 22 2623 -34 
Q 2366 -91 2075 -91 
Q 1284 -91 818 406 
Q 353 903 353 1747 
Q 353 2603 823 3093 
Q 1294 3584 2113 3584 
Q 2378 3584 2631 3529 
Q 2884 3475 3122 3366 
z
" transform="scale(0.015625)"/>
       <path id="DejaVuSans-6f" d="M 1959 3097 
Q 1497 3097 1228 2736 
Q 959 2375 959 1747 
Q 959 1119 1226 758 
Q 1494 397 1959 397 
Q 2419 397 2687 759 
Q 2956 1122 2956 1747 
Q 2956 2369 2687 2733 
Q 2419 3097 1959 3097 
z
M 1959 3584 
Q 2709 3584 3137 3096 
Q 3566 2609 3566 1747 
Q 3566 888 3137 398 
Q 2709 -91 1959 -91 
Q 1206 -91 779 398 
Q 353 888 353 1747 
Q 353 2609 779 3096 
Q 1206 3584 1959 3584 
z
" transform="scale(0.015625)"/>
       <path id="DejaVuSans-75" d="M 544 1381 
L 544 3500 
L 1119 3500 
L 1119 1403 
Q 1119 906 1312 657 
Q 1506 409 1894 409 
Q 2359 409 2629 706 
Q 2900 1003 2900 1516 
L 2900 3500 
L 3475 3500 
L 3475 0 
L 2900 0 
L 2900 538 
Q 2691 219 2414 64 
Q 2138 -91 1772 -91 
Q 1169 -91 856 284 
Q 544 659 544 1381 
z
M 1991 3584 
L 1991 3584 
z
" transform="scale(0.015625)"/>
       <path id="DejaVuSans-6e" d="M 3513 2113 
L 3513 0 
L 2938 0 
L 2938 2094 
Q 2938 2591 2744 2837 
Q 2550 3084 2163 3084 
Q 1697 3084 1428 2787 
Q 1159 2491 1159 1978 
L 1159 0 
L 581 0 
L 581 3500 
L 1159 3500 
L 1159 2956 
Q 1366 3272 1645 3428 
Q 1925 3584 2291 3584 
Q 2894 3584 3203 3211 
Q 3513 2838 3513 2113 
z
" transform="scale(0.015625)"/>
      </defs>
      <use xlink:href="#DejaVuSans-5b"/>
      <use xlink:href="#DejaVuSans-63" transform="translate(39.013672 0)"/>
      <use xlink:href="#DejaVuSans-6f" transform="translate(93.994141 0)"/>
      <use xlink:href="#DejaVuSans-75" transform="translate(155.175781 0)"/>
      <use xlink:href="#DejaVuSans-6e" transform="translate(218.554688 0)"/>
      <use xlink:href="#DejaVuSans-74" transform="translate(281.933594 0)"/>
      <use xlink:href="#DejaVuSans-73" transform="translate(321.142578 0)"/>
      <use xlink:href="#DejaVuSans-5d" transform="translate(373.242188 0)"/>
     </g>
    </g>
   </g>
   <g id="line2d_14">
    <path d="M 70.535018 235.750548 
L 71.682144 235.750548 
L 71.682144 229.905265 
L 72.82927 229.905265 
L 72.82927 223.511987 
L 73.976396 223.511987 
L 73.976396 212.552083 
L 75.123522 212.552083 
L 75.123522 207.254795 
L 76.270648 207.254795 
L 76.270648 191.362933 
L 77.417775 191.362933 
L 77.417775 180.951024 
L 78.564901 180.951024 
L 78.564901 177.115057 
L 79.712027 177.115057 
L 79.712027 168.895129 
L 80.859153 168.895129 
L 80.859153 162.684516 
L 82.006279 162.684516 
L 82.006279 159.396544 
L 83.153405 159.396544 
L 83.153405 147.705979 
L 84.300532 147.705979 
L 84.300532 155.012582 
L 85.447658 155.012582 
L 85.447658 138.572725 
L 86.594784 138.572725 
L 86.594784 129.987467 
L 87.74191 129.987467 
L 87.74191 130.352797 
L 88.889036 130.352797 
L 88.889036 114.460935 
L 90.036162 114.460935 
L 90.036162 122.680863 
L 91.183289 122.680863 
L 91.183289 109.528978 
L 92.330415 109.528978 
L 92.330415 104.414355 
L 93.477541 104.414355 
L 93.477541 103.318365 
L 94.624667 103.318365 
L 94.624667 101.674379 
L 95.771793 101.674379 
L 95.771793 86.878508 
L 96.918919 86.878508 
L 96.918919 101.491714 
L 98.066046 101.491714 
L 98.066046 82.859876 
L 99.213172 82.859876 
L 99.213172 84.138532 
L 100.360298 84.138532 
L 100.360298 86.695843 
L 101.507424 86.695843 
L 101.507424 68.97733 
L 102.65455 68.97733 
L 102.65455 81.946551 
L 103.801676 81.946551 
L 103.801676 80.85056 
L 104.948802 80.85056 
L 104.948802 82.859876 
L 106.095929 82.859876 
L 106.095929 66.420019 
L 107.243055 66.420019 
L 107.243055 68.064005 
L 108.390181 68.064005 
L 108.390181 63.314712 
L 109.537307 63.314712 
L 109.537307 59.661411 
L 110.684433 59.661411 
L 110.684433 69.34266 
L 111.831559 69.34266 
L 111.831559 63.314712 
L 112.978686 63.314712 
L 112.978686 71.717306 
L 114.125812 71.717306 
L 114.125812 63.862708 
L 115.272938 63.862708 
L 115.272938 50.528157 
L 116.420064 50.528157 
L 116.420064 51.441482 
L 117.56719 51.441482 
L 117.56719 61.853392 
L 118.714316 61.853392 
L 118.714316 54.364124 
L 119.861443 54.364124 
L 119.861443 63.314712 
L 121.008569 63.314712 
L 121.008569 54.912119 
L 122.155695 54.912119 
L 122.155695 41.029573 
L 123.302821 41.029573 
L 123.302821 54.181458 
L 124.449947 54.181458 
L 124.449947 56.190774 
L 126.7442 56.190774 
L 126.7442 42.856224 
L 127.891326 42.856224 
L 127.891326 44.317544 
L 129.038452 44.317544 
L 129.038452 54.912119 
L 130.185578 54.912119 
L 130.185578 33.174974 
L 131.332704 33.174974 
L 131.332704 50.162827 
L 132.47983 50.162827 
L 132.47983 44.500209 
L 133.626957 44.500209 
L 133.626957 46.69219 
L 134.774083 46.69219 
L 134.774083 48.701506 
L 135.921209 48.701506 
L 135.921209 52.537473 
L 137.068335 52.537473 
L 137.068335 43.404219 
L 138.215461 43.404219 
L 138.215461 41.942898 
L 139.362587 41.942898 
L 139.362587 40.481578 
L 140.509714 40.481578 
L 140.509714 35.366955 
L 141.65684 35.366955 
L 141.65684 25.868371 
L 142.803966 25.868371 
L 142.803966 43.404219 
L 143.951092 43.404219 
L 143.951092 51.989478 
L 145.098218 51.989478 
L 145.098218 38.289597 
L 146.245344 38.289597 
L 146.245344 45.413535 
L 147.392471 45.413535 
L 147.392471 38.106931 
L 148.539597 38.106931 
L 148.539597 41.942898 
L 149.686723 41.942898 
L 149.686723 36.828276 
L 150.833849 36.828276 
L 150.833849 40.481578 
L 151.980975 40.481578 
L 151.980975 22.763065 
L 153.128101 22.763065 
L 153.128101 30.069668 
L 154.275228 30.069668 
L 154.275228 32.261649 
L 155.422354 32.261649 
L 155.422354 34.81896 
L 156.56948 34.81896 
L 156.56948 44.134879 
L 157.716606 44.134879 
L 157.716606 32.261649 
L 158.863732 32.261649 
L 158.863732 46.509525 
L 160.010858 46.509525 
L 160.010858 38.289597 
L 161.157985 38.289597 
L 161.157985 45.23087 
L 162.305111 45.23087 
L 162.305111 33.72297 
L 163.452237 33.72297 
L 163.452237 31.713654 
L 164.599363 31.713654 
L 164.599363 26.416366 
L 165.746489 26.416366 
L 165.746489 34.45363 
L 166.893615 34.45363 
L 166.893615 42.490893 
L 168.040742 42.490893 
L 168.040742 34.270965 
L 169.187868 34.270965 
L 169.187868 40.116247 
L 170.334994 40.116247 
L 170.334994 39.020257 
L 171.48212 39.020257 
L 171.48212 23.493725 
L 172.629246 23.493725 
L 172.629246 26.233701 
L 173.776372 26.233701 
L 173.776372 37.558936 
L 174.923499 37.558936 
L 174.923499 43.769549 
L 176.070625 43.769549 
L 176.070625 36.097616 
L 177.217751 36.097616 
L 177.217751 41.942898 
L 178.364877 41.942898 
L 178.364877 37.924266 
L 179.512003 37.924266 
L 179.512003 40.481578 
L 180.659129 40.481578 
L 180.659129 27.512357 
L 181.806256 27.512357 
L 181.806256 44.682874 
L 182.953382 44.682874 
L 182.953382 35.732285 
L 184.100508 35.732285 
L 184.100508 48.336176 
L 185.247634 48.336176 
L 185.247634 30.069668 
L 186.39476 30.069668 
L 186.39476 33.357639 
L 187.541886 33.357639 
L 187.541886 38.106931 
L 188.689013 38.106931 
L 188.689013 38.654927 
L 189.836139 38.654927 
L 189.836139 40.298912 
L 190.983265 40.298912 
L 190.983265 26.964362 
L 192.130391 26.964362 
L 192.130391 35.54962 
L 193.277517 35.54962 
L 193.277517 36.828276 
L 194.424643 36.828276 
L 194.424643 30.982993 
L 195.57177 30.982993 
L 195.57177 35.914951 
L 196.718896 35.914951 
L 196.718896 39.933582 
L 197.866022 39.933582 
L 197.866022 34.0883 
L 199.013148 34.0883 
L 199.013148 39.385587 
L 200.160274 39.385587 
L 200.160274 33.540304 
L 202.454527 33.540304 
L 202.454527 37.558936 
L 203.601653 37.558936 
L 203.601653 32.992309 
L 204.748779 32.992309 
L 204.748779 38.106931 
L 205.895905 38.106931 
L 205.895905 33.174974 
L 207.043031 33.174974 
L 207.043031 39.202922 
L 208.190157 39.202922 
L 208.190157 36.828276 
L 209.337284 36.828276 
L 209.337284 18.561768 
L 210.48441 18.561768 
L 210.48441 47.05752 
L 211.631536 47.05752 
L 211.631536 28.425682 
L 212.778662 28.425682 
L 212.778662 37.741601 
L 213.925788 37.741601 
L 213.925788 33.174974 
L 215.072914 33.174974 
L 215.072914 45.5962 
L 216.220041 45.5962 
L 216.220041 31.713654 
L 217.367167 31.713654 
L 217.367167 30.434998 
L 218.514293 30.434998 
L 218.514293 29.704338 
L 219.661419 29.704338 
L 219.661419 30.800328 
L 220.808545 30.800328 
L 220.808545 36.462946 
L 221.955671 36.462946 
L 221.955671 40.664243 
L 223.102798 40.664243 
L 223.102798 39.202922 
L 224.249924 39.202922 
L 224.249924 36.280281 
L 225.39705 36.280281 
L 225.39705 34.270965 
L 226.544176 34.270965 
L 226.544176 31.530989 
L 227.691302 31.530989 
L 227.691302 38.472262 
L 228.838428 38.472262 
L 228.838428 26.051036 
L 231.132681 26.051036 
L 231.132681 20.388419 
L 232.279807 20.388419 
L 232.279807 39.202922 
L 233.426933 39.202922 
L 233.426933 31.165658 
L 234.574059 31.165658 
L 234.574059 30.252333 
L 235.721185 30.252333 
L 235.721185 31.896319 
L 236.868312 31.896319 
L 236.868312 47.422851 
L 238.015438 47.422851 
L 238.015438 40.116247 
L 239.162564 40.116247 
L 239.162564 32.078984 
L 240.30969 32.078984 
L 240.30969 41.212238 
L 241.456816 41.212238 
L 241.456816 33.72297 
L 242.603942 33.72297 
L 242.603942 37.924266 
L 243.751069 37.924266 
L 243.751069 38.106931 
L 244.898195 38.106931 
L 244.898195 33.174974 
L 246.045321 33.174974 
L 246.045321 24.224385 
L 247.192447 24.224385 
L 247.192447 32.626979 
L 248.339573 32.626979 
L 248.339573 19.292428 
L 249.486699 19.292428 
L 249.486699 36.097616 
L 250.633826 36.097616 
L 250.633826 31.348324 
L 251.780952 31.348324 
L 251.780952 30.617663 
L 252.928078 30.617663 
L 252.928078 39.933582 
L 254.075204 39.933582 
L 254.075204 42.856224 
L 255.22233 42.856224 
L 255.22233 37.376271 
L 256.369456 37.376271 
L 256.369456 37.924266 
L 257.516583 37.924266 
L 257.516583 37.558936 
L 259.810835 37.558936 
L 259.810835 30.252333 
L 260.957961 30.252333 
L 260.957961 22.94573 
L 262.105087 22.94573 
L 262.105087 32.992309 
L 263.252213 32.992309 
L 263.252213 29.704338 
L 264.39934 29.704338 
L 264.39934 38.289597 
L 265.546466 38.289597 
L 265.546466 40.116247 
L 266.693592 40.116247 
L 266.693592 24.589716 
L 267.840718 24.589716 
L 267.840718 44.682874 
L 268.987844 44.682874 
L 268.987844 47.605516 
L 270.13497 47.605516 
L 270.13497 45.778865 
L 271.282097 45.778865 
L 271.282097 72.813297 
L 272.429223 72.813297 
L 272.429223 61.853392 
L 273.576349 61.853392 
L 273.576349 81.946551 
L 274.723475 81.946551 
L 274.723475 87.974498 
L 275.870601 87.974498 
L 275.870601 101.857044 
L 277.017727 101.857044 
L 277.017727 104.23169 
L 278.164854 104.23169 
L 278.164854 111.903624 
L 279.31198 111.903624 
L 279.31198 106.789001 
L 280.459106 106.789001 
L 280.459106 131.266122 
L 281.606232 131.266122 
L 281.606232 136.380744 
L 282.753358 136.380744 
L 282.753358 141.678032 
L 283.900484 141.678032 
L 283.900484 144.235343 
L 285.047611 144.235343 
L 285.047611 146.792654 
L 286.194737 146.792654 
L 286.194737 155.560578 
L 287.341863 155.560578 
L 287.341863 161.40586 
L 288.488989 161.40586 
L 288.488989 173.461756 
L 289.636115 173.461756 
L 289.636115 165.059162 
L 290.783241 165.059162 
L 290.783241 169.260459 
L 291.930368 169.260459 
L 291.930368 180.037698 
L 293.077494 180.037698 
L 293.077494 179.489703 
L 294.22462 179.489703 
L 294.22462 184.78699 
L 295.371746 184.78699 
L 295.371746 188.988287 
L 296.518872 188.988287 
L 296.518872 191.545598 
L 297.665998 191.545598 
L 297.665998 197.938876 
L 298.813125 197.938876 
L 298.813125 194.83357 
L 299.960251 194.83357 
L 299.960251 203.053498 
L 301.107377 203.053498 
L 301.107377 199.034867 
L 302.254503 199.034867 
L 302.254503 201.044183 
L 303.401629 201.044183 
L 303.401629 207.07213 
L 304.548755 207.07213 
L 304.548755 208.350786 
L 305.695882 208.350786 
L 305.695882 208.168121 
L 306.843008 208.168121 
L 306.843008 212.552083 
L 307.990134 212.552083 
L 307.990134 216.570714 
L 309.13726 216.570714 
L 309.13726 217.301375 
L 310.284386 217.301375 
L 310.284386 216.753379 
L 311.431512 216.753379 
L 311.431512 216.936044 
L 312.578639 216.936044 
L 312.578639 219.128025 
L 313.725765 219.128025 
L 313.725765 220.772011 
L 314.872891 220.772011 
L 314.872891 223.694652 
L 316.020017 223.694652 
L 316.020017 221.320006 
L 317.167143 221.320006 
L 317.167143 227.165289 
L 318.314269 227.165289 
L 318.314269 225.886633 
L 319.461396 225.886633 
L 319.461396 227.530619 
L 320.608522 227.530619 
L 320.608522 227.895949 
L 321.755648 227.895949 
L 321.755648 231.731916 
L 322.902774 231.731916 
L 322.902774 226.799959 
L 324.0499 226.799959 
L 324.0499 231.549251 
L 326.344153 231.549251 
L 326.344153 231.001256 
L 328.638405 231.001256 
L 328.638405 233.193237 
L 329.785531 233.193237 
L 329.785531 235.385218 
L 330.932657 235.385218 
L 330.932657 236.846538 
L 332.079783 236.846538 
L 332.079783 236.481208 
L 333.22691 236.481208 
L 333.22691 238.490524 
L 334.374036 238.490524 
L 334.374036 239.403849 
L 335.521162 239.403849 
L 335.521162 235.567883 
L 336.668288 235.567883 
L 336.668288 238.490524 
L 337.815414 238.490524 
L 337.815414 239.038519 
L 338.96254 239.038519 
L 338.96254 237.394533 
L 340.109667 237.394533 
L 340.109667 238.125194 
L 341.256793 238.125194 
L 341.256793 238.307859 
L 342.403919 238.307859 
L 342.403919 239.951844 
L 343.551045 239.951844 
L 343.551045 238.855854 
L 344.698171 238.855854 
L 344.698171 240.49984 
L 345.845297 240.49984 
L 345.845297 240.682505 
L 346.992424 240.682505 
L 346.992424 239.221184 
L 348.13955 239.221184 
L 348.13955 241.96116 
L 349.286676 241.96116 
L 349.286676 242.509156 
L 350.433802 242.509156 
L 350.433802 241.96116 
L 351.580928 241.96116 
L 351.580928 243.057151 
L 352.728054 243.057151 
L 352.728054 240.86517 
L 353.875181 240.86517 
L 353.875181 241.96116 
L 355.022307 241.96116 
L 355.022307 242.326491 
L 356.169433 242.326491 
L 356.169433 242.143825 
L 357.316559 242.143825 
L 357.316559 243.787811 
L 358.463685 243.787811 
L 358.463685 243.422481 
L 359.610811 243.422481 
L 359.610811 242.326491 
L 360.757938 242.326491 
L 360.757938 243.239816 
L 361.905064 243.239816 
L 361.905064 242.691821 
L 365.346442 242.691821 
L 365.346442 244.335806 
L 366.493568 244.335806 
L 366.493568 242.509156 
L 367.640695 242.509156 
L 367.640695 244.883802 
L 368.787821 244.883802 
L 368.787821 243.787811 
L 369.934947 243.787811 
L 369.934947 244.153141 
L 371.082073 244.153141 
L 371.082073 244.335806 
L 373.376325 244.335806 
L 373.376325 244.518471 
L 374.523452 244.518471 
L 374.523452 244.701137 
L 375.670578 244.701137 
L 375.670578 244.518471 
L 376.817704 244.518471 
L 376.817704 244.153141 
L 377.96483 244.153141 
L 377.96483 245.066467 
L 379.111956 245.066467 
L 379.111956 244.518471 
L 380.259082 244.518471 
L 380.259082 244.335806 
L 382.553335 244.335806 
L 382.553335 244.153141 
L 383.700461 244.153141 
L 383.700461 244.883802 
L 384.847587 244.883802 
L 384.847587 244.518471 
L 387.141839 244.518471 
L 387.141839 245.249132 
L 388.288966 245.249132 
L 388.288966 245.431797 
L 389.436092 245.431797 
L 389.436092 244.883802 
L 390.583218 244.883802 
L 390.583218 245.431797 
L 391.730344 245.431797 
L 391.730344 245.066467 
L 392.87747 245.066467 
L 392.87747 245.249132 
L 395.171723 245.249132 
L 395.171723 244.701137 
L 396.318849 244.701137 
L 396.318849 245.614462 
L 397.465975 245.614462 
L 397.465975 245.431797 
L 399.760227 245.431797 
L 399.760227 245.249132 
L 400.907353 245.249132 
L 400.907353 245.431797 
L 402.05448 245.431797 
L 402.05448 245.614462 
L 403.201606 245.614462 
L 403.201606 245.066467 
L 404.348732 245.066467 
L 404.348732 245.614462 
L 406.642984 245.614462 
L 406.642984 245.066467 
L 407.79011 245.066467 
L 407.79011 245.431797 
L 408.937237 245.431797 
L 408.937237 245.797127 
L 411.231489 245.797127 
L 411.231489 245.249132 
L 412.378615 245.249132 
L 412.378615 245.614462 
L 413.525741 245.614462 
L 413.525741 245.249132 
L 414.672867 245.249132 
L 414.672867 245.249132 
" clip-path="url(#p944a7c7170)" style="fill: none; stroke: #1f77b4; stroke-width: 1.5; stroke-linecap: square"/>
   </g>
   <g id="patch_3">
    <path d="M 53.328125 257.158895 
L 53.328125 7.2 
" style="fill: none; stroke: #000000; stroke-width: 0.8; stroke-linejoin: miter; stroke-linecap: square"/>
   </g>
   <g id="patch_4">
    <path d="M 431.87976 257.158895 
L 431.87976 7.2 
" style="fill: none; stroke: #000000; stroke-width: 0.8; stroke-linejoin: miter; stroke-linecap: square"/>
   </g>
   <g id="patch_5">
    <path d="M 53.328125 257.158895 
L 431.87976 257.158895 
" style="fill: none; stroke: #000000; stroke-width: 0.8; stroke-linejoin: miter; stroke-linecap: square"/>
   </g>
   <g id="patch_6">
    <path d="M 53.328125 7.2 
L 431.87976 7.2 
" style="fill: none; stroke: #000000; stroke-width: 0.8; stroke-linejoin: miter; stroke-linecap: square"/>
   </g>
  </g>
  <g id="axes_2">
   <g id="patch_7">
    <path d="M 486.647885 257.158895 
L 865.19952 257.158895 
L 865.19952 7.2 
L 486.647885 7.2 
z
" style="fill: #ffffff"/>
   </g>
   <g id="matplotlib.axis_3">
    <g id="xtick_7">
     <g id="line2d_15">
      <g>
       <use xlink:href="#m239b9ff813" x="500.382631" y="257.158895" style="stroke: #000000; stroke-width: 0.8"/>
      </g>
     </g>
     <g id="text_16">
      <!-- 0.0 -->
      <g transform="translate(492.431068 271.757332) scale(0.1 -0.1)">
       <defs>
        <path id="DejaVuSans-2e" d="M 684 794 
L 1344 794 
L 1344 0 
L 684 0 
L 684 794 
z
" transform="scale(0.015625)"/>
       </defs>
       <use xlink:href="#DejaVuSans-30"/>
       <use xlink:href="#DejaVuSans-2e" transform="translate(63.623047 0)"/>
       <use xlink:href="#DejaVuSans-30" transform="translate(95.410156 0)"/>
      </g>
     </g>
    </g>
    <g id="xtick_8">
     <g id="line2d_16">
      <g>
       <use xlink:href="#m239b9ff813" x="544.104249" y="257.158895" style="stroke: #000000; stroke-width: 0.8"/>
      </g>
     </g>
     <g id="text_17">
      <!-- 2.5 -->
      <g transform="translate(536.152687 271.757332) scale(0.1 -0.1)">
       <use xlink:href="#DejaVuSans-32"/>
       <use xlink:href="#DejaVuSans-2e" transform="translate(63.623047 0)"/>
       <use xlink:href="#DejaVuSans-35" transform="translate(95.410156 0)"/>
      </g>
     </g>
    </g>
    <g id="xtick_9">
     <g id="line2d_17">
      <g>
       <use xlink:href="#m239b9ff813" x="587.825867" y="257.158895" style="stroke: #000000; stroke-width: 0.8"/>
      </g>
     </g>
     <g id="text_18">
      <!-- 5.0 -->
      <g transform="translate(579.874305 271.757332) scale(0.1 -0.1)">
       <use xlink:href="#DejaVuSans-35"/>
       <use xlink:href="#DejaVuSans-2e" transform="translate(63.623047 0)"/>
       <use xlink:href="#DejaVuSans-30" transform="translate(95.410156 0)"/>
      </g>
     </g>
    </g>
    <g id="xtick_10">
     <g id="line2d_18">
      <g>
       <use xlink:href="#m239b9ff813" x="631.547486" y="257.158895" style="stroke: #000000; stroke-width: 0.8"/>
      </g>
     </g>
     <g id="text_19">
      <!-- 7.5 -->
      <g transform="translate(623.595923 271.757332) scale(0.1 -0.1)">
       <defs>
        <path id="DejaVuSans-37" d="M 525 4666 
L 3525 4666 
L 3525 4397 
L 1831 0 
L 1172 0 
L 2766 4134 
L 525 4134 
L 525 4666 
z
" transform="scale(0.015625)"/>
       </defs>
       <use xlink:href="#DejaVuSans-37"/>
       <use xlink:href="#DejaVuSans-2e" transform="translate(63.623047 0)"/>
       <use xlink:href="#DejaVuSans-35" transform="translate(95.410156 0)"/>
      </g>
     </g>
    </g>
    <g id="xtick_11">
     <g id="line2d_19">
      <g>
       <use xlink:href="#m239b9ff813" x="675.269104" y="257.158895" style="stroke: #000000; stroke-width: 0.8"/>
      </g>
     </g>
     <g id="text_20">
      <!-- 10.0 -->
      <g transform="translate(664.136291 271.757332) scale(0.1 -0.1)">
       <use xlink:href="#DejaVuSans-31"/>
       <use xlink:href="#DejaVuSans-30" transform="translate(63.623047 0)"/>
       <use xlink:href="#DejaVuSans-2e" transform="translate(127.246094 0)"/>
       <use xlink:href="#DejaVuSans-30" transform="translate(159.033203 0)"/>
      </g>
     </g>
    </g>
    <g id="xtick_12">
     <g id="line2d_20">
      <g>
       <use xlink:href="#m239b9ff813" x="718.990722" y="257.158895" style="stroke: #000000; stroke-width: 0.8"/>
      </g>
     </g>
     <g id="text_21">
      <!-- 12.5 -->
      <g transform="translate(707.85791 271.757332) scale(0.1 -0.1)">
       <use xlink:href="#DejaVuSans-31"/>
       <use xlink:href="#DejaVuSans-32" transform="translate(63.623047 0)"/>
       <use xlink:href="#DejaVuSans-2e" transform="translate(127.246094 0)"/>
       <use xlink:href="#DejaVuSans-35" transform="translate(159.033203 0)"/>
      </g>
     </g>
    </g>
    <g id="xtick_13">
     <g id="line2d_21">
      <g>
       <use xlink:href="#m239b9ff813" x="762.71234" y="257.158895" style="stroke: #000000; stroke-width: 0.8"/>
      </g>
     </g>
     <g id="text_22">
      <!-- 15.0 -->
      <g transform="translate(751.579528 271.757332) scale(0.1 -0.1)">
       <use xlink:href="#DejaVuSans-31"/>
       <use xlink:href="#DejaVuSans-35" transform="translate(63.623047 0)"/>
       <use xlink:href="#DejaVuSans-2e" transform="translate(127.246094 0)"/>
       <use xlink:href="#DejaVuSans-30" transform="translate(159.033203 0)"/>
      </g>
     </g>
    </g>
    <g id="xtick_14">
     <g id="line2d_22">
      <g>
       <use xlink:href="#m239b9ff813" x="806.433958" y="257.158895" style="stroke: #000000; stroke-width: 0.8"/>
      </g>
     </g>
     <g id="text_23">
      <!-- 17.5 -->
      <g transform="translate(795.301146 271.757332) scale(0.1 -0.1)">
       <use xlink:href="#DejaVuSans-31"/>
       <use xlink:href="#DejaVuSans-37" transform="translate(63.623047 0)"/>
       <use xlink:href="#DejaVuSans-2e" transform="translate(127.246094 0)"/>
       <use xlink:href="#DejaVuSans-35" transform="translate(159.033203 0)"/>
      </g>
     </g>
    </g>
    <g id="xtick_15">
     <g id="line2d_23">
      <g>
       <use xlink:href="#m239b9ff813" x="850.155577" y="257.158895" style="stroke: #000000; stroke-width: 0.8"/>
      </g>
     </g>
     <g id="text_24">
      <!-- 20.0 -->
      <g transform="translate(839.022764 271.757332) scale(0.1 -0.1)">
       <use xlink:href="#DejaVuSans-32"/>
       <use xlink:href="#DejaVuSans-30" transform="translate(63.623047 0)"/>
       <use xlink:href="#DejaVuSans-2e" transform="translate(127.246094 0)"/>
       <use xlink:href="#DejaVuSans-30" transform="translate(159.033203 0)"/>
      </g>
     </g>
    </g>
    <g id="text_25">
     <!-- wavelength [Å] -->
     <g transform="translate(637.886202 287.119832) scale(0.1 -0.1)">
      <defs>
       <path id="DejaVuSans-77" d="M 269 3500 
L 844 3500 
L 1563 769 
L 2278 3500 
L 2956 3500 
L 3675 769 
L 4391 3500 
L 4966 3500 
L 4050 0 
L 3372 0 
L 2619 2869 
L 1863 0 
L 1184 0 
L 269 3500 
z
" transform="scale(0.015625)"/>
       <path id="DejaVuSans-61" d="M 2194 1759 
Q 1497 1759 1228 1600 
Q 959 1441 959 1056 
Q 959 750 1161 570 
Q 1363 391 1709 391 
Q 2188 391 2477 730 
Q 2766 1069 2766 1631 
L 2766 1759 
L 2194 1759 
z
M 3341 1997 
L 3341 0 
L 2766 0 
L 2766 531 
Q 2569 213 2275 61 
Q 1981 -91 1556 -91 
Q 1019 -91 701 211 
Q 384 513 384 1019 
Q 384 1609 779 1909 
Q 1175 2209 1959 2209 
L 2766 2209 
L 2766 2266 
Q 2766 2663 2505 2880 
Q 2244 3097 1772 3097 
Q 1472 3097 1187 3025 
Q 903 2953 641 2809 
L 641 3341 
Q 956 3463 1253 3523 
Q 1550 3584 1831 3584 
Q 2591 3584 2966 3190 
Q 3341 2797 3341 1997 
z
" transform="scale(0.015625)"/>
       <path id="DejaVuSans-76" d="M 191 3500 
L 800 3500 
L 1894 563 
L 2988 3500 
L 3597 3500 
L 2284 0 
L 1503 0 
L 191 3500 
z
" transform="scale(0.015625)"/>
       <path id="DejaVuSans-6c" d="M 603 4863 
L 1178 4863 
L 1178 0 
L 603 0 
L 603 4863 
z
" transform="scale(0.015625)"/>
       <path id="DejaVuSans-67" d="M 2906 1791 
Q 2906 2416 2648 2759 
Q 2391 3103 1925 3103 
Q 1463 3103 1205 2759 
Q 947 2416 947 1791 
Q 947 1169 1205 825 
Q 1463 481 1925 481 
Q 2391 481 2648 825 
Q 2906 1169 2906 1791 
z
M 3481 434 
Q 3481 -459 3084 -895 
Q 2688 -1331 1869 -1331 
Q 1566 -1331 1297 -1286 
Q 1028 -1241 775 -1147 
L 775 -588 
Q 1028 -725 1275 -790 
Q 1522 -856 1778 -856 
Q 2344 -856 2625 -561 
Q 2906 -266 2906 331 
L 2906 616 
Q 2728 306 2450 153 
Q 2172 0 1784 0 
Q 1141 0 747 490 
Q 353 981 353 1791 
Q 353 2603 747 3093 
Q 1141 3584 1784 3584 
Q 2172 3584 2450 3431 
Q 2728 3278 2906 2969 
L 2906 3500 
L 3481 3500 
L 3481 434 
z
" transform="scale(0.015625)"/>
       <path id="DejaVuSans-c5" d="M 2663 5081 
Q 2663 5278 2523 5417 
Q 2384 5556 2188 5556 
Q 1988 5556 1852 5420 
Q 1716 5284 1716 5081 
Q 1716 4884 1853 4746 
Q 1991 4609 2188 4609 
Q 2384 4609 2523 4746 
Q 2663 4884 2663 5081 
z
M 2188 4044 
L 1338 1722 
L 3041 1722 
L 2188 4044 
z
M 1716 4366 
Q 1525 4494 1428 4673 
Q 1331 4853 1331 5081 
Q 1331 5441 1579 5691 
Q 1828 5941 2188 5941 
Q 2544 5941 2795 5689 
Q 3047 5438 3047 5081 
Q 3047 4863 2948 4678 
Q 2850 4494 2663 4366 
L 4325 0 
L 3669 0 
L 3244 1197 
L 1141 1197 
L 716 0 
L 50 0 
L 1716 4366 
z
" transform="scale(0.015625)"/>
      </defs>
      <use xlink:href="#DejaVuSans-77"/>
      <use xlink:href="#DejaVuSans-61" transform="translate(81.787109 0)"/>
      <use xlink:href="#DejaVuSans-76" transform="translate(143.066406 0)"/>
      <use xlink:href="#DejaVuSans-65" transform="translate(202.246094 0)"/>
      <use xlink:href="#DejaVuSans-6c" transform="translate(263.769531 0)"/>
      <use xlink:href="#DejaVuSans-65" transform="translate(291.552734 0)"/>
      <use xlink:href="#DejaVuSans-6e" transform="translate(353.076172 0)"/>
      <use xlink:href="#DejaVuSans-67" transform="translate(416.455078 0)"/>
      <use xlink:href="#DejaVuSans-74" transform="translate(479.931641 0)"/>
      <use xlink:href="#DejaVuSans-68" transform="translate(519.140625 0)"/>
      <use xlink:href="#DejaVuSans-20" transform="translate(582.519531 0)"/>
      <use xlink:href="#DejaVuSans-5b" transform="translate(614.306641 0)"/>
      <use xlink:href="#DejaVuSans-c5" transform="translate(653.320312 0)"/>
      <use xlink:href="#DejaVuSans-5d" transform="translate(721.728516 0)"/>
     </g>
    </g>
   </g>
   <g id="matplotlib.axis_4">
    <g id="ytick_8">
     <g id="line2d_24">
      <g>
       <use xlink:href="#m6dc46f46fd" x="486.647885" y="245.797127" style="stroke: #000000; stroke-width: 0.8"/>
      </g>
     </g>
     <g id="text_26">
      <!-- 0 -->
      <g transform="translate(473.285385 249.596346) scale(0.1 -0.1)">
       <use xlink:href="#DejaVuSans-30"/>
      </g>
     </g>
    </g>
    <g id="ytick_9">
     <g id="line2d_25">
      <g>
       <use xlink:href="#m6dc46f46fd" x="486.647885" y="193.893208" style="stroke: #000000; stroke-width: 0.8"/>
      </g>
     </g>
     <g id="text_27">
      <!-- 1000 -->
      <g transform="translate(454.197885 197.692426) scale(0.1 -0.1)">
       <use xlink:href="#DejaVuSans-31"/>
       <use xlink:href="#DejaVuSans-30" transform="translate(63.623047 0)"/>
       <use xlink:href="#DejaVuSans-30" transform="translate(127.246094 0)"/>
       <use xlink:href="#DejaVuSans-30" transform="translate(190.869141 0)"/>
      </g>
     </g>
    </g>
    <g id="ytick_10">
     <g id="line2d_26">
      <g>
       <use xlink:href="#m6dc46f46fd" x="486.647885" y="141.989288" style="stroke: #000000; stroke-width: 0.8"/>
      </g>
     </g>
     <g id="text_28">
      <!-- 2000 -->
      <g transform="translate(454.197885 145.788507) scale(0.1 -0.1)">
       <use xlink:href="#DejaVuSans-32"/>
       <use xlink:href="#DejaVuSans-30" transform="translate(63.623047 0)"/>
       <use xlink:href="#DejaVuSans-30" transform="translate(127.246094 0)"/>
       <use xlink:href="#DejaVuSans-30" transform="translate(190.869141 0)"/>
      </g>
     </g>
    </g>
    <g id="ytick_11">
     <g id="line2d_27">
      <g>
       <use xlink:href="#m6dc46f46fd" x="486.647885" y="90.085369" style="stroke: #000000; stroke-width: 0.8"/>
      </g>
     </g>
     <g id="text_29">
      <!-- 3000 -->
      <g transform="translate(454.197885 93.884588) scale(0.1 -0.1)">
       <use xlink:href="#DejaVuSans-33"/>
       <use xlink:href="#DejaVuSans-30" transform="translate(63.623047 0)"/>
       <use xlink:href="#DejaVuSans-30" transform="translate(127.246094 0)"/>
       <use xlink:href="#DejaVuSans-30" transform="translate(190.869141 0)"/>
      </g>
     </g>
    </g>
    <g id="ytick_12">
     <g id="line2d_28">
      <g>
       <use xlink:href="#m6dc46f46fd" x="486.647885" y="38.181449" style="stroke: #000000; stroke-width: 0.8"/>
      </g>
     </g>
     <g id="text_30">
      <!-- 4000 -->
      <g transform="translate(454.197885 41.980668) scale(0.1 -0.1)">
       <use xlink:href="#DejaVuSans-34"/>
       <use xlink:href="#DejaVuSans-30" transform="translate(63.623047 0)"/>
       <use xlink:href="#DejaVuSans-30" transform="translate(127.246094 0)"/>
       <use xlink:href="#DejaVuSans-30" transform="translate(190.869141 0)"/>
      </g>
     </g>
    </g>
    <g id="text_31">
     <!-- [counts] -->
     <g transform="translate(448.118197 152.791947) rotate(-90) scale(0.1 -0.1)">
      <use xlink:href="#DejaVuSans-5b"/>
      <use xlink:href="#DejaVuSans-63" transform="translate(39.013672 0)"/>
      <use xlink:href="#DejaVuSans-6f" transform="translate(93.994141 0)"/>
      <use xlink:href="#DejaVuSans-75" transform="translate(155.175781 0)"/>
      <use xlink:href="#DejaVuSans-6e" transform="translate(218.554688 0)"/>
      <use xlink:href="#DejaVuSans-74" transform="translate(281.933594 0)"/>
      <use xlink:href="#DejaVuSans-73" transform="translate(321.142578 0)"/>
      <use xlink:href="#DejaVuSans-5d" transform="translate(373.242188 0)"/>
     </g>
    </g>
   </g>
   <g id="line2d_29">
    <path d="M 503.854777 156.159058 
L 505.001904 156.159058 
L 505.001904 149.359645 
L 506.14903 149.359645 
L 506.14903 137.11032 
L 507.296156 137.11032 
L 507.296156 142.196904 
L 508.443282 142.196904 
L 508.443282 150.034396 
L 509.590408 150.034396 
L 509.590408 156.678097 
L 510.737534 156.678097 
L 510.737534 149.56726 
L 511.884661 149.56726 
L 511.884661 130.155195 
L 513.031787 130.155195 
L 513.031787 105.967968 
L 514.178913 105.967968 
L 514.178913 81.676934 
L 515.326039 81.676934 
L 515.326039 61.693925 
L 516.473165 61.693925 
L 516.473165 39.998087 
L 517.620291 39.998087 
L 517.620291 28.683032 
L 518.767418 28.683032 
L 518.767418 18.561768 
L 519.914544 18.561768 
L 519.914544 18.769384 
L 521.06167 18.769384 
L 521.06167 31.382036 
L 522.208796 31.382036 
L 522.208796 35.222926 
L 523.355922 35.222926 
L 523.355922 42.281859 
L 524.503048 42.281859 
L 524.503048 51.157429 
L 525.650175 51.157429 
L 525.650175 62.732003 
L 526.797301 62.732003 
L 526.797301 73.995154 
L 527.944427 73.995154 
L 527.944427 82.403589 
L 529.091553 82.403589 
L 529.091553 85.2064 
L 530.238679 85.2064 
L 530.238679 92.369141 
L 531.385805 92.369141 
L 531.385805 97.196206 
L 533.680058 97.300014 
L 533.680058 101.815655 
L 534.827184 101.815655 
L 534.827184 98.909035 
L 535.97431 98.909035 
L 535.97431 95.7948 
L 537.121436 95.7948 
L 537.121436 86.91923 
L 538.268562 86.91923 
L 538.268562 80.846471 
L 539.415689 80.846471 
L 539.415689 74.773713 
L 540.562815 74.773713 
L 540.562815 65.015776 
L 541.709941 65.015776 
L 541.709941 56.399725 
L 542.857067 56.399725 
L 542.857067 48.562233 
L 544.004193 48.562233 
L 544.004193 40.776645 
L 545.151319 40.776645 
L 545.151319 36.987659 
L 546.298446 36.987659 
L 546.298446 48.147002 
L 547.445572 48.147002 
L 547.445572 58.994921 
L 548.592698 58.994921 
L 548.592698 59.410153 
L 549.739824 59.410153 
L 549.739824 70.880919 
L 550.88695 70.880919 
L 550.88695 82.247877 
L 552.034076 82.247877 
L 552.034076 90.189177 
L 553.181203 90.189177 
L 553.181203 96.417647 
L 554.328329 96.417647 
L 554.328329 106.538911 
L 555.475455 106.538911 
L 555.475455 111.106456 
L 556.622581 111.106456 
L 556.622581 121.020105 
L 557.769707 121.020105 
L 557.769707 130.88185 
L 558.916833 130.88185 
L 558.916833 131.504697 
L 560.06396 131.504697 
L 560.06396 139.134573 
L 561.211086 139.134573 
L 561.211086 145.05162 
L 562.358212 145.05162 
L 562.358212 153.044823 
L 563.505338 153.044823 
L 563.505338 151.747225 
L 564.652464 151.747225 
L 564.652464 154.809556 
L 565.79959 154.809556 
L 565.79959 163.788934 
L 566.946717 163.788934 
L 566.946717 166.332226 
L 568.093843 166.332226 
L 568.093843 169.861693 
L 569.240969 169.861693 
L 569.240969 171.159291 
L 570.388095 171.159291 
L 570.388095 176.245875 
L 571.535221 176.245875 
L 571.535221 178.996783 
L 572.682347 178.996783 
L 572.682347 185.329061 
L 573.829474 185.329061 
L 573.829474 184.083367 
L 574.9766 184.083367 
L 574.9766 189.325663 
L 577.270852 189.221855 
L 577.270852 194.204631 
L 578.417978 194.204631 
L 578.417978 196.228884 
L 579.565104 196.228884 
L 579.565104 196.4365 
L 580.712231 196.4365 
L 580.712231 200.121678 
L 581.859357 200.121678 
L 581.859357 201.107852 
L 583.006483 201.107852 
L 583.006483 207.907266 
L 584.153609 207.907266 
L 584.153609 207.232515 
L 585.300735 207.232515 
L 585.300735 210.087231 
L 586.447861 210.087231 
L 586.447861 210.502462 
L 587.594988 210.502462 
L 587.594988 212.73433 
L 588.742114 212.73433 
L 588.742114 212.578619 
L 589.88924 212.578619 
L 589.88924 212.786234 
L 591.036366 212.786234 
L 591.036366 213.460985 
L 592.183492 213.460985 
L 592.183492 217.665203 
L 594.477745 217.613299 
L 594.477745 219.014705 
L 596.771997 219.118512 
L 596.771997 222.284652 
L 597.919123 222.284652 
L 597.919123 222.025132 
L 599.066249 222.025132 
L 599.066249 222.699883 
L 600.213375 222.699883 
L 600.213375 224.308904 
L 601.360502 224.308904 
L 601.360502 225.658406 
L 602.507628 225.658406 
L 602.507628 227.007908 
L 603.654754 227.007908 
L 603.654754 224.672232 
L 604.80188 224.672232 
L 604.80188 227.371236 
L 605.949006 227.371236 
L 605.949006 227.786467 
L 607.096132 227.786467 
L 607.096132 229.291681 
L 608.243259 229.291681 
L 608.243259 229.758816 
L 609.390385 229.758816 
L 609.390385 229.966432 
L 611.684637 230.018336 
L 611.684637 231.679261 
L 612.831763 231.679261 
L 612.831763 230.174047 
L 613.978889 230.174047 
L 613.978889 233.547802 
L 615.126016 233.547802 
L 615.126016 233.807322 
L 616.273142 233.807322 
L 616.273142 234.482073 
L 617.420268 234.482073 
L 617.420268 233.39209 
L 618.567394 233.39209 
L 618.567394 235.312535 
L 619.71452 235.312535 
L 619.71452 233.495898 
L 620.861647 233.495898 
L 620.861647 234.637784 
L 622.008773 234.637784 
L 622.008773 235.727767 
L 623.155899 235.727767 
L 623.155899 236.142998 
L 624.303025 236.142998 
L 624.303025 235.935382 
L 625.450151 235.935382 
L 625.450151 237.336788 
L 626.597277 237.336788 
L 626.597277 237.181076 
L 628.89153 237.077269 
L 628.89153 237.544404 
L 630.038656 237.544404 
L 630.038656 237.907731 
L 631.185782 237.907731 
L 631.185782 238.115347 
L 632.332908 238.115347 
L 632.332908 237.129173 
L 633.480034 237.129173 
L 633.480034 239.568657 
L 634.62716 239.568657 
L 634.62716 238.893906 
L 636.921413 238.842002 
L 636.921413 239.101521 
L 638.068539 239.101521 
L 638.068539 239.672465 
L 640.362791 239.672465 
L 640.362791 239.309137 
L 641.509917 239.309137 
L 641.509917 239.672465 
L 642.657044 239.672465 
L 642.657044 239.931984 
L 643.80417 239.931984 
L 643.80417 240.191504 
L 646.098422 240.243408 
L 646.098422 241.125774 
L 648.392674 241.177678 
L 648.392674 240.606735 
L 650.686927 240.502927 
L 650.686927 241.437198 
L 651.834053 241.437198 
L 651.834053 241.59291 
L 652.981179 241.59291 
L 652.981179 241.385294 
L 654.128305 241.385294 
L 654.128305 241.541006 
L 655.275431 241.541006 
L 655.275431 241.956237 
L 656.422558 241.956237 
L 656.422558 242.7867 
L 657.569684 242.7867 
L 657.569684 242.060045 
L 658.71681 242.060045 
L 658.71681 241.852429 
L 659.863936 241.852429 
L 659.863936 241.541006 
L 661.011062 241.541006 
L 661.011062 241.748621 
L 662.158188 241.748621 
L 662.158188 242.838604 
L 663.305315 242.838604 
L 663.305315 242.475276 
L 665.599567 242.475276 
L 665.599567 242.942411 
L 667.893819 242.890508 
L 667.893819 243.098123 
L 670.188072 243.046219 
L 670.188072 243.409547 
L 671.335198 243.409547 
L 671.335198 243.617162 
L 672.482324 243.617162 
L 672.482324 243.150027 
L 673.62945 243.150027 
L 673.62945 243.824778 
L 674.776576 243.824778 
L 674.776576 243.669066 
L 675.923702 243.669066 
L 675.923702 243.461451 
L 677.070829 243.461451 
L 677.070829 244.032394 
L 679.365081 243.928586 
L 679.365081 243.461451 
L 681.659333 243.461451 
L 681.659333 243.617162 
L 682.806459 243.617162 
L 682.806459 243.928586 
L 683.953586 243.928586 
L 683.953586 243.305739 
L 685.100712 243.305739 
L 685.100712 243.72097 
L 686.247838 243.72097 
L 686.247838 243.409547 
L 687.394964 243.409547 
L 687.394964 244.395721 
L 688.54209 244.395721 
L 688.54209 244.032394 
L 689.689216 244.032394 
L 689.689216 243.876682 
L 690.836343 243.876682 
L 690.836343 244.084298 
L 691.983469 244.084298 
L 691.983469 244.395721 
L 693.130595 244.395721 
L 693.130595 243.565259 
L 694.277721 243.565259 
L 694.277721 244.291913 
L 695.424847 244.291913 
L 695.424847 244.084298 
L 696.571974 244.084298 
L 696.571974 243.72097 
L 697.7191 243.72097 
L 697.7191 244.343817 
L 698.866226 244.343817 
L 698.866226 244.91476 
L 700.013352 244.91476 
L 700.013352 244.707145 
L 701.160478 244.707145 
L 701.160478 243.876682 
L 702.307604 243.876682 
L 702.307604 244.395721 
L 703.45473 244.395721 
L 703.45473 244.759049 
L 704.601857 244.759049 
L 704.601857 243.98049 
L 705.748983 243.98049 
L 705.748983 244.91476 
L 706.896109 244.91476 
L 706.896109 244.499529 
L 708.043235 244.499529 
L 708.043235 245.018568 
L 709.190361 245.018568 
L 709.190361 244.499529 
L 710.337487 244.499529 
L 710.337487 244.91476 
L 711.484614 244.91476 
L 711.484614 244.551433 
L 712.63174 244.551433 
L 712.63174 244.707145 
L 719.514497 244.759049 
L 719.514497 245.070472 
L 722.955875 245.018568 
L 722.955875 244.862856 
L 724.103001 244.862856 
L 724.103001 245.122376 
L 725.250128 245.122376 
L 725.250128 244.810953 
L 726.397254 244.810953 
L 726.397254 245.070472 
L 729.838632 245.122376 
L 729.838632 244.862856 
L 730.985758 244.862856 
L 730.985758 245.17428 
L 735.574263 245.17428 
L 735.574263 244.810953 
L 736.721389 244.810953 
L 736.721389 245.122376 
L 739.015642 245.17428 
L 739.015642 244.810953 
L 740.162768 244.810953 
L 740.162768 245.070472 
L 741.309894 245.070472 
L 741.309894 245.4338 
L 743.604146 245.329992 
L 743.604146 245.641415 
L 744.751272 245.641415 
L 744.751272 245.226184 
L 745.898399 245.226184 
L 745.898399 245.070472 
L 747.045525 245.070472 
L 747.045525 245.485704 
L 748.192651 245.485704 
L 748.192651 245.122376 
L 749.339777 245.122376 
L 749.339777 245.329992 
L 751.634029 245.381896 
L 751.634029 245.122376 
L 752.781156 245.122376 
L 752.781156 245.381896 
L 756.222534 245.329992 
L 756.222534 245.537607 
L 758.516786 245.537607 
L 758.516786 245.329992 
L 760.811039 245.4338 
L 760.811039 245.485704 
L 761.958165 245.485704 
L 761.958165 245.122376 
L 763.105291 245.122376 
L 763.105291 245.641415 
L 764.252417 245.641415 
L 764.252417 245.17428 
L 765.399543 245.17428 
L 765.399543 245.537607 
L 766.54667 245.537607 
L 766.54667 245.329992 
L 767.693796 245.329992 
L 767.693796 245.485704 
L 773.429427 245.485704 
L 773.429427 245.17428 
L 774.576553 245.17428 
L 774.576553 245.537607 
L 776.870805 245.641415 
L 776.870805 245.226184 
L 778.017931 245.226184 
L 778.017931 245.589511 
L 784.900688 245.641415 
L 784.900688 245.4338 
L 789.489193 245.381896 
L 789.489193 245.589511 
L 796.37195 245.485704 
L 796.37195 245.745223 
L 800.960455 245.693319 
L 800.960455 245.589511 
L 805.548959 245.485704 
L 805.548959 245.4338 
L 806.696085 245.4338 
L 806.696085 245.641415 
L 815.873095 245.693319 
L 815.873095 245.485704 
L 818.167347 245.589511 
L 818.167347 245.745223 
L 829.638609 245.693319 
L 829.638609 245.589511 
L 834.227113 245.693319 
L 834.227113 245.745223 
L 837.668492 245.797127 
L 837.668492 245.589511 
L 839.962744 245.693319 
L 839.962744 245.745223 
L 846.845501 245.693319 
L 846.845501 245.589511 
L 847.992628 245.589511 
L 847.992628 245.589511 
" clip-path="url(#paff6b62036)" style="fill: none; stroke: #1f77b4; stroke-width: 1.5; stroke-linecap: square"/>
   </g>
   <g id="patch_8">
    <path d="M 486.647885 257.158895 
L 486.647885 7.2 
" style="fill: none; stroke: #000000; stroke-width: 0.8; stroke-linejoin: miter; stroke-linecap: square"/>
   </g>
   <g id="patch_9">
    <path d="M 865.19952 257.158895 
L 865.19952 7.2 
" style="fill: none; stroke: #000000; stroke-width: 0.8; stroke-linejoin: miter; stroke-linecap: square"/>
   </g>
   <g id="patch_10">
    <path d="M 486.647885 257.158895 
L 865.19952 257.158895 
" style="fill: none; stroke: #000000; stroke-width: 0.8; stroke-linejoin: miter; stroke-linecap: square"/>
   </g>
   <g id="patch_11">
    <path d="M 486.647885 7.2 
L 865.19952 7.2 
" style="fill: none; stroke: #000000; stroke-width: 0.8; stroke-linejoin: miter; stroke-linecap: square"/>
   </g>
  </g>
 </g>
 <defs>
  <clipPath id="p944a7c7170">
   <rect x="53.328125" y="7.2" width="378.551635" height="249.958895"/>
  </clipPath>
  <clipPath id="paff6b62036">
   <rect x="486.647885" y="7.2" width="378.551635" height="249.958895"/>
  </clipPath>
 </defs>
</svg>
