<?xml version="1.0" encoding="utf-8" standalone="no"?>
<!DOCTYPE svg PUBLIC "-//W3C//DTD SVG 1.1//EN"
  "http://www.w3.org/Graphics/SVG/1.1/DTD/svg11.dtd">
<svg xmlns:xlink="http://www.w3.org/1999/xlink" width="395.328125pt" height="266.51625pt" viewBox="0 0 395.328125 266.51625" xmlns="http://www.w3.org/2000/svg" version="1.1">
 <metadata>
  <rdf:RDF xmlns:dc="http://purl.org/dc/elements/1.1/" xmlns:cc="http://creativecommons.org/ns#" xmlns:rdf="http://www.w3.org/1999/02/22-rdf-syntax-ns#">
   <cc:Work>
    <dc:type rdf:resource="http://purl.org/dc/dcmitype/StillImage"/>
    <dc:date>2025-02-27T10:09:21.678322</dc:date>
    <dc:format>image/svg+xml</dc:format>
    <dc:creator>
     <cc:Agent>
      <dc:title>Matplotlib v3.10.0, https://matplotlib.org/</dc:title>
     </cc:Agent>
    </dc:creator>
   </cc:Work>
  </rdf:RDF>
 </metadata>
 <defs>
  <style type="text/css">*{stroke-linejoin: round; stroke-linecap: butt}</style>
 </defs>
 <g id="figure_1">
  <g id="patch_1">
   <path d="M 0 266.51625 
L 395.328125 266.51625 
L 395.328125 0 
L 0 0 
z
" style="fill: #ffffff"/>
  </g>
  <g id="axes_1">
   <g id="patch_2">
    <path d="M 53.328125 228.96 
L 388.128125 228.96 
L 388.128125 7.2 
L 53.328125 7.2 
z
" style="fill: #ffffff"/>
   </g>
   <g id="matplotlib.axis_1">
    <g id="xtick_1">
     <g id="line2d_1">
      <defs>
       <path id="m73c56cb05c" d="M 0 0 
L 0 3.5 
" style="stroke: #000000; stroke-width: 0.8"/>
      </defs>
      <g>
       <use xlink:href="#m73c56cb05c" x="109.975944" y="228.96" style="stroke: #000000; stroke-width: 0.8"/>
      </g>
     </g>
     <g id="text_1">
      <!-- 20000 -->
      <g transform="translate(94.069694 243.558437) scale(0.1 -0.1)">
       <defs>
        <path id="DejaVuSans-32" d="M 1228 531 
L 3431 531 
L 3431 0 
L 469 0 
L 469 531 
Q 828 903 1448 1529 
Q 2069 2156 2228 2338 
Q 2531 2678 2651 2914 
Q 2772 3150 2772 3378 
Q 2772 3750 2511 3984 
Q 2250 4219 1831 4219 
Q 1534 4219 1204 4116 
Q 875 4013 500 3803 
L 500 4441 
Q 881 4594 1212 4672 
Q 1544 4750 1819 4750 
Q 2544 4750 2975 4387 
Q 3406 4025 3406 3419 
Q 3406 3131 3298 2873 
Q 3191 2616 2906 2266 
Q 2828 2175 2409 1742 
Q 1991 1309 1228 531 
z
" transform="scale(0.015625)"/>
        <path id="DejaVuSans-30" d="M 2034 4250 
Q 1547 4250 1301 3770 
Q 1056 3291 1056 2328 
Q 1056 1369 1301 889 
Q 1547 409 2034 409 
Q 2525 409 2770 889 
Q 3016 1369 3016 2328 
Q 3016 3291 2770 3770 
Q 2525 4250 2034 4250 
z
M 2034 4750 
Q 2819 4750 3233 4129 
Q 3647 3509 3647 2328 
Q 3647 1150 3233 529 
Q 2819 -91 2034 -91 
Q 1250 -91 836 529 
Q 422 1150 422 2328 
Q 422 3509 836 4129 
Q 1250 4750 2034 4750 
z
" transform="scale(0.015625)"/>
       </defs>
       <use xlink:href="#DejaVuSans-32"/>
       <use xlink:href="#DejaVuSans-30" transform="translate(63.623047 0)"/>
       <use xlink:href="#DejaVuSans-30" transform="translate(127.246094 0)"/>
       <use xlink:href="#DejaVuSans-30" transform="translate(190.869141 0)"/>
       <use xlink:href="#DejaVuSans-30" transform="translate(254.492188 0)"/>
      </g>
     </g>
    </g>
    <g id="xtick_2">
     <g id="line2d_2">
      <g>
       <use xlink:href="#m73c56cb05c" x="172.349966" y="228.96" style="stroke: #000000; stroke-width: 0.8"/>
      </g>
     </g>
     <g id="text_2">
      <!-- 30000 -->
      <g transform="translate(156.443716 243.558437) scale(0.1 -0.1)">
       <defs>
        <path id="DejaVuSans-33" d="M 2597 2516 
Q 3050 2419 3304 2112 
Q 3559 1806 3559 1356 
Q 3559 666 3084 287 
Q 2609 -91 1734 -91 
Q 1441 -91 1130 -33 
Q 819 25 488 141 
L 488 750 
Q 750 597 1062 519 
Q 1375 441 1716 441 
Q 2309 441 2620 675 
Q 2931 909 2931 1356 
Q 2931 1769 2642 2001 
Q 2353 2234 1838 2234 
L 1294 2234 
L 1294 2753 
L 1863 2753 
Q 2328 2753 2575 2939 
Q 2822 3125 2822 3475 
Q 2822 3834 2567 4026 
Q 2313 4219 1838 4219 
Q 1578 4219 1281 4162 
Q 984 4106 628 3988 
L 628 4550 
Q 988 4650 1302 4700 
Q 1616 4750 1894 4750 
Q 2613 4750 3031 4423 
Q 3450 4097 3450 3541 
Q 3450 3153 3228 2886 
Q 3006 2619 2597 2516 
z
" transform="scale(0.015625)"/>
       </defs>
       <use xlink:href="#DejaVuSans-33"/>
       <use xlink:href="#DejaVuSans-30" transform="translate(63.623047 0)"/>
       <use xlink:href="#DejaVuSans-30" transform="translate(127.246094 0)"/>
       <use xlink:href="#DejaVuSans-30" transform="translate(190.869141 0)"/>
       <use xlink:href="#DejaVuSans-30" transform="translate(254.492188 0)"/>
      </g>
     </g>
    </g>
    <g id="xtick_3">
     <g id="line2d_3">
      <g>
       <use xlink:href="#m73c56cb05c" x="234.723988" y="228.96" style="stroke: #000000; stroke-width: 0.8"/>
      </g>
     </g>
     <g id="text_3">
      <!-- 40000 -->
      <g transform="translate(218.817738 243.558437) scale(0.1 -0.1)">
       <defs>
        <path id="DejaVuSans-34" d="M 2419 4116 
L 825 1625 
L 2419 1625 
L 2419 4116 
z
M 2253 4666 
L 3047 4666 
L 3047 1625 
L 3713 1625 
L 3713 1100 
L 3047 1100 
L 3047 0 
L 2419 0 
L 2419 1100 
L 313 1100 
L 313 1709 
L 2253 4666 
z
" transform="scale(0.015625)"/>
       </defs>
       <use xlink:href="#DejaVuSans-34"/>
       <use xlink:href="#DejaVuSans-30" transform="translate(63.623047 0)"/>
       <use xlink:href="#DejaVuSans-30" transform="translate(127.246094 0)"/>
       <use xlink:href="#DejaVuSans-30" transform="translate(190.869141 0)"/>
       <use xlink:href="#DejaVuSans-30" transform="translate(254.492188 0)"/>
      </g>
     </g>
    </g>
    <g id="xtick_4">
     <g id="line2d_4">
      <g>
       <use xlink:href="#m73c56cb05c" x="297.09801" y="228.96" style="stroke: #000000; stroke-width: 0.8"/>
      </g>
     </g>
     <g id="text_4">
      <!-- 50000 -->
      <g transform="translate(281.19176 243.558437) scale(0.1 -0.1)">
       <defs>
        <path id="DejaVuSans-35" d="M 691 4666 
L 3169 4666 
L 3169 4134 
L 1269 4134 
L 1269 2991 
Q 1406 3038 1543 3061 
Q 1681 3084 1819 3084 
Q 2600 3084 3056 2656 
Q 3513 2228 3513 1497 
Q 3513 744 3044 326 
Q 2575 -91 1722 -91 
Q 1428 -91 1123 -41 
Q 819 9 494 109 
L 494 744 
Q 775 591 1075 516 
Q 1375 441 1709 441 
Q 2250 441 2565 725 
Q 2881 1009 2881 1497 
Q 2881 1984 2565 2268 
Q 2250 2553 1709 2553 
Q 1456 2553 1204 2497 
Q 953 2441 691 2322 
L 691 4666 
z
" transform="scale(0.015625)"/>
       </defs>
       <use xlink:href="#DejaVuSans-35"/>
       <use xlink:href="#DejaVuSans-30" transform="translate(63.623047 0)"/>
       <use xlink:href="#DejaVuSans-30" transform="translate(127.246094 0)"/>
       <use xlink:href="#DejaVuSans-30" transform="translate(190.869141 0)"/>
       <use xlink:href="#DejaVuSans-30" transform="translate(254.492188 0)"/>
      </g>
     </g>
    </g>
    <g id="xtick_5">
     <g id="line2d_5">
      <g>
       <use xlink:href="#m73c56cb05c" x="359.472032" y="228.96" style="stroke: #000000; stroke-width: 0.8"/>
      </g>
     </g>
     <g id="text_5">
      <!-- 60000 -->
      <g transform="translate(343.565782 243.558437) scale(0.1 -0.1)">
       <defs>
        <path id="DejaVuSans-36" d="M 2113 2584 
Q 1688 2584 1439 2293 
Q 1191 2003 1191 1497 
Q 1191 994 1439 701 
Q 1688 409 2113 409 
Q 2538 409 2786 701 
Q 3034 994 3034 1497 
Q 3034 2003 2786 2293 
Q 2538 2584 2113 2584 
z
M 3366 4563 
L 3366 3988 
Q 3128 4100 2886 4159 
Q 2644 4219 2406 4219 
Q 1781 4219 1451 3797 
Q 1122 3375 1075 2522 
Q 1259 2794 1537 2939 
Q 1816 3084 2150 3084 
Q 2853 3084 3261 2657 
Q 3669 2231 3669 1497 
Q 3669 778 3244 343 
Q 2819 -91 2113 -91 
Q 1303 -91 875 529 
Q 447 1150 447 2328 
Q 447 3434 972 4092 
Q 1497 4750 2381 4750 
Q 2619 4750 2861 4703 
Q 3103 4656 3366 4563 
z
" transform="scale(0.015625)"/>
       </defs>
       <use xlink:href="#DejaVuSans-36"/>
       <use xlink:href="#DejaVuSans-30" transform="translate(63.623047 0)"/>
       <use xlink:href="#DejaVuSans-30" transform="translate(127.246094 0)"/>
       <use xlink:href="#DejaVuSans-30" transform="translate(190.869141 0)"/>
       <use xlink:href="#DejaVuSans-30" transform="translate(254.492188 0)"/>
      </g>
     </g>
    </g>
    <g id="text_6">
     <!-- tof [µs] -->
     <g transform="translate(202.671875 257.236562) scale(0.1 -0.1)">
      <defs>
       <path id="DejaVuSans-74" d="M 1172 4494 
L 1172 3500 
L 2356 3500 
L 2356 3053 
L 1172 3053 
L 1172 1153 
Q 1172 725 1289 603 
Q 1406 481 1766 481 
L 2356 481 
L 2356 0 
L 1766 0 
Q 1100 0 847 248 
Q 594 497 594 1153 
L 594 3053 
L 172 3053 
L 172 3500 
L 594 3500 
L 594 4494 
L 1172 4494 
z
" transform="scale(0.015625)"/>
       <path id="DejaVuSans-6f" d="M 1959 3097 
Q 1497 3097 1228 2736 
Q 959 2375 959 1747 
Q 959 1119 1226 758 
Q 1494 397 1959 397 
Q 2419 397 2687 759 
Q 2956 1122 2956 1747 
Q 2956 2369 2687 2733 
Q 2419 3097 1959 3097 
z
M 1959 3584 
Q 2709 3584 3137 3096 
Q 3566 2609 3566 1747 
Q 3566 888 3137 398 
Q 2709 -91 1959 -91 
Q 1206 -91 779 398 
Q 353 888 353 1747 
Q 353 2609 779 3096 
Q 1206 3584 1959 3584 
z
" transform="scale(0.015625)"/>
       <path id="DejaVuSans-66" d="M 2375 4863 
L 2375 4384 
L 1825 4384 
Q 1516 4384 1395 4259 
Q 1275 4134 1275 3809 
L 1275 3500 
L 2222 3500 
L 2222 3053 
L 1275 3053 
L 1275 0 
L 697 0 
L 697 3053 
L 147 3053 
L 147 3500 
L 697 3500 
L 697 3744 
Q 697 4328 969 4595 
Q 1241 4863 1831 4863 
L 2375 4863 
z
" transform="scale(0.015625)"/>
       <path id="DejaVuSans-20" transform="scale(0.015625)"/>
       <path id="DejaVuSans-5b" d="M 550 4863 
L 1875 4863 
L 1875 4416 
L 1125 4416 
L 1125 -397 
L 1875 -397 
L 1875 -844 
L 550 -844 
L 550 4863 
z
" transform="scale(0.015625)"/>
       <path id="DejaVuSans-b5" d="M 544 -1331 
L 544 3500 
L 1119 3500 
L 1119 1325 
Q 1119 872 1334 640 
Q 1550 409 1972 409 
Q 2434 409 2667 671 
Q 2900 934 2900 1459 
L 2900 3500 
L 3475 3500 
L 3475 806 
Q 3475 619 3529 530 
Q 3584 441 3700 441 
Q 3728 441 3778 458 
Q 3828 475 3916 513 
L 3916 50 
Q 3788 -22 3673 -56 
Q 3559 -91 3450 -91 
Q 3234 -91 3106 31 
Q 2978 153 2931 403 
Q 2775 156 2548 32 
Q 2322 -91 2016 -91 
Q 1697 -91 1473 31 
Q 1250 153 1119 397 
L 1119 -1331 
L 544 -1331 
z
" transform="scale(0.015625)"/>
       <path id="DejaVuSans-73" d="M 2834 3397 
L 2834 2853 
Q 2591 2978 2328 3040 
Q 2066 3103 1784 3103 
Q 1356 3103 1142 2972 
Q 928 2841 928 2578 
Q 928 2378 1081 2264 
Q 1234 2150 1697 2047 
L 1894 2003 
Q 2506 1872 2764 1633 
Q 3022 1394 3022 966 
Q 3022 478 2636 193 
Q 2250 -91 1575 -91 
Q 1294 -91 989 -36 
Q 684 19 347 128 
L 347 722 
Q 666 556 975 473 
Q 1284 391 1588 391 
Q 1994 391 2212 530 
Q 2431 669 2431 922 
Q 2431 1156 2273 1281 
Q 2116 1406 1581 1522 
L 1381 1569 
Q 847 1681 609 1914 
Q 372 2147 372 2553 
Q 372 3047 722 3315 
Q 1072 3584 1716 3584 
Q 2034 3584 2315 3537 
Q 2597 3491 2834 3397 
z
" transform="scale(0.015625)"/>
       <path id="DejaVuSans-5d" d="M 1947 4863 
L 1947 -844 
L 622 -844 
L 622 -397 
L 1369 -397 
L 1369 4416 
L 622 4416 
L 622 4863 
L 1947 4863 
z
" transform="scale(0.015625)"/>
      </defs>
      <use xlink:href="#DejaVuSans-74"/>
      <use xlink:href="#DejaVuSans-6f" transform="translate(39.208984 0)"/>
      <use xlink:href="#DejaVuSans-66" transform="translate(100.390625 0)"/>
      <use xlink:href="#DejaVuSans-20" transform="translate(135.595703 0)"/>
      <use xlink:href="#DejaVuSans-5b" transform="translate(167.382812 0)"/>
      <use xlink:href="#DejaVuSans-b5" transform="translate(206.396484 0)"/>
      <use xlink:href="#DejaVuSans-73" transform="translate(270.019531 0)"/>
      <use xlink:href="#DejaVuSans-5d" transform="translate(322.119141 0)"/>
     </g>
    </g>
   </g>
   <g id="matplotlib.axis_2">
    <g id="ytick_1">
     <g id="line2d_6">
      <defs>
       <path id="m9b6513e596" d="M 0 0 
L -3.5 0 
" style="stroke: #000000; stroke-width: 0.8"/>
      </defs>
      <g>
       <use xlink:href="#m9b6513e596" x="53.328125" y="219.868639" style="stroke: #000000; stroke-width: 0.8"/>
      </g>
     </g>
     <g id="text_7">
      <!-- 0 -->
      <g transform="translate(39.965625 223.667858) scale(0.1 -0.1)">
       <use xlink:href="#DejaVuSans-30"/>
      </g>
     </g>
    </g>
    <g id="ytick_2">
     <g id="line2d_7">
      <g>
       <use xlink:href="#m9b6513e596" x="53.328125" y="178.675341" style="stroke: #000000; stroke-width: 0.8"/>
      </g>
     </g>
     <g id="text_8">
      <!-- 500 -->
      <g transform="translate(27.240625 182.47456) scale(0.1 -0.1)">
       <use xlink:href="#DejaVuSans-35"/>
       <use xlink:href="#DejaVuSans-30" transform="translate(63.623047 0)"/>
       <use xlink:href="#DejaVuSans-30" transform="translate(127.246094 0)"/>
      </g>
     </g>
    </g>
    <g id="ytick_3">
     <g id="line2d_8">
      <g>
       <use xlink:href="#m9b6513e596" x="53.328125" y="137.482043" style="stroke: #000000; stroke-width: 0.8"/>
      </g>
     </g>
     <g id="text_9">
      <!-- 1000 -->
      <g transform="translate(20.878125 141.281262) scale(0.1 -0.1)">
       <defs>
        <path id="DejaVuSans-31" d="M 794 531 
L 1825 531 
L 1825 4091 
L 703 3866 
L 703 4441 
L 1819 4666 
L 2450 4666 
L 2450 531 
L 3481 531 
L 3481 0 
L 794 0 
L 794 531 
z
" transform="scale(0.015625)"/>
       </defs>
       <use xlink:href="#DejaVuSans-31"/>
       <use xlink:href="#DejaVuSans-30" transform="translate(63.623047 0)"/>
       <use xlink:href="#DejaVuSans-30" transform="translate(127.246094 0)"/>
       <use xlink:href="#DejaVuSans-30" transform="translate(190.869141 0)"/>
      </g>
     </g>
    </g>
    <g id="ytick_4">
     <g id="line2d_9">
      <g>
       <use xlink:href="#m9b6513e596" x="53.328125" y="96.288745" style="stroke: #000000; stroke-width: 0.8"/>
      </g>
     </g>
     <g id="text_10">
      <!-- 1500 -->
      <g transform="translate(20.878125 100.087964) scale(0.1 -0.1)">
       <use xlink:href="#DejaVuSans-31"/>
       <use xlink:href="#DejaVuSans-35" transform="translate(63.623047 0)"/>
       <use xlink:href="#DejaVuSans-30" transform="translate(127.246094 0)"/>
       <use xlink:href="#DejaVuSans-30" transform="translate(190.869141 0)"/>
      </g>
     </g>
    </g>
    <g id="ytick_5">
     <g id="line2d_10">
      <g>
       <use xlink:href="#m9b6513e596" x="53.328125" y="55.095447" style="stroke: #000000; stroke-width: 0.8"/>
      </g>
     </g>
     <g id="text_11">
      <!-- 2000 -->
      <g transform="translate(20.878125 58.894666) scale(0.1 -0.1)">
       <use xlink:href="#DejaVuSans-32"/>
       <use xlink:href="#DejaVuSans-30" transform="translate(63.623047 0)"/>
       <use xlink:href="#DejaVuSans-30" transform="translate(127.246094 0)"/>
       <use xlink:href="#DejaVuSans-30" transform="translate(190.869141 0)"/>
      </g>
     </g>
    </g>
    <g id="ytick_6">
     <g id="line2d_11">
      <g>
       <use xlink:href="#m9b6513e596" x="53.328125" y="13.90215" style="stroke: #000000; stroke-width: 0.8"/>
      </g>
     </g>
     <g id="text_12">
      <!-- 2500 -->
      <g transform="translate(20.878125 17.701368) scale(0.1 -0.1)">
       <use xlink:href="#DejaVuSans-32"/>
       <use xlink:href="#DejaVuSans-35" transform="translate(63.623047 0)"/>
       <use xlink:href="#DejaVuSans-30" transform="translate(127.246094 0)"/>
       <use xlink:href="#DejaVuSans-30" transform="translate(190.869141 0)"/>
      </g>
     </g>
    </g>
    <g id="text_13">
     <!-- [counts] -->
     <g transform="translate(14.798438 138.6925) rotate(-90) scale(0.1 -0.1)">
      <defs>
       <path id="DejaVuSans-63" d="M 3122 3366 
L 3122 2828 
Q 2878 2963 2633 3030 
Q 2388 3097 2138 3097 
Q 1578 3097 1268 2742 
Q 959 2388 959 1747 
Q 959 1106 1268 751 
Q 1578 397 2138 397 
Q 2388 397 2633 464 
Q 2878 531 3122 666 
L 3122 134 
Q 2881 22 2623 -34 
Q 2366 -91 2075 -91 
Q 1284 -91 818 406 
Q 353 903 353 1747 
Q 353 2603 823 3093 
Q 1294 3584 2113 3584 
Q 2378 3584 2631 3529 
Q 2884 3475 3122 3366 
z
" transform="scale(0.015625)"/>
       <path id="DejaVuSans-75" d="M 544 1381 
L 544 3500 
L 1119 3500 
L 1119 1403 
Q 1119 906 1312 657 
Q 1506 409 1894 409 
Q 2359 409 2629 706 
Q 2900 1003 2900 1516 
L 2900 3500 
L 3475 3500 
L 3475 0 
L 2900 0 
L 2900 538 
Q 2691 219 2414 64 
Q 2138 -91 1772 -91 
Q 1169 -91 856 284 
Q 544 659 544 1381 
z
M 1991 3584 
L 1991 3584 
z
" transform="scale(0.015625)"/>
       <path id="DejaVuSans-6e" d="M 3513 2113 
L 3513 0 
L 2938 0 
L 2938 2094 
Q 2938 2591 2744 2837 
Q 2550 3084 2163 3084 
Q 1697 3084 1428 2787 
Q 1159 2491 1159 1978 
L 1159 0 
L 581 0 
L 581 3500 
L 1159 3500 
L 1159 2956 
Q 1366 3272 1645 3428 
Q 1925 3584 2291 3584 
Q 2894 3584 3203 3211 
Q 3513 2838 3513 2113 
z
" transform="scale(0.015625)"/>
      </defs>
      <use xlink:href="#DejaVuSans-5b"/>
      <use xlink:href="#DejaVuSans-63" transform="translate(39.013672 0)"/>
      <use xlink:href="#DejaVuSans-6f" transform="translate(93.994141 0)"/>
      <use xlink:href="#DejaVuSans-75" transform="translate(155.175781 0)"/>
      <use xlink:href="#DejaVuSans-6e" transform="translate(218.554688 0)"/>
      <use xlink:href="#DejaVuSans-74" transform="translate(281.933594 0)"/>
      <use xlink:href="#DejaVuSans-73" transform="translate(321.142578 0)"/>
      <use xlink:href="#DejaVuSans-5d" transform="translate(373.242188 0)"/>
     </g>
    </g>
   </g>
   <g id="patch_3">
    <path d="M 53.328125 228.96 
L 53.328125 7.2 
" style="fill: none; stroke: #000000; stroke-width: 0.8; stroke-linejoin: miter; stroke-linecap: square"/>
   </g>
   <g id="patch_4">
    <path d="M 388.128125 228.96 
L 388.128125 7.2 
" style="fill: none; stroke: #000000; stroke-width: 0.8; stroke-linejoin: miter; stroke-linecap: square"/>
   </g>
   <g id="patch_5">
    <path d="M 53.328125 228.96 
L 388.128125 228.96 
" style="fill: none; stroke: #000000; stroke-width: 0.8; stroke-linejoin: miter; stroke-linecap: square"/>
   </g>
   <g id="patch_6">
    <path d="M 53.328125 7.2 
L 388.128125 7.2 
" style="fill: none; stroke: #000000; stroke-width: 0.8; stroke-linejoin: miter; stroke-linecap: square"/>
   </g>
   <g id="line2d_12">
    <path d="M 68.546307 192.763449 
L 69.560852 192.763449 
L 69.560852 147.121275 
L 70.575398 147.121275 
L 70.575398 112.601291 
L 71.589943 112.601291 
L 71.589943 103.373993 
L 72.604489 103.373993 
L 72.604489 94.97056 
L 73.619034 94.97056 
L 73.619034 87.47338 
L 74.63358 87.47338 
L 74.63358 86.896673 
L 75.648125 86.896673 
L 75.648125 87.061447 
L 76.66267 87.061447 
L 76.66267 73.055725 
L 77.677216 73.055725 
L 77.677216 75.774483 
L 78.691761 75.774483 
L 78.691761 70.501741 
L 79.706307 70.501741 
L 79.706307 68.689236 
L 80.720852 68.689236 
L 80.720852 67.86537 
L 81.735398 67.86537 
L 81.735398 62.015922 
L 82.749943 62.015922 
L 82.749943 52.541463 
L 83.764489 52.541463 
L 83.764489 47.351107 
L 84.779034 47.351107 
L 84.779034 41.501659 
L 85.79358 41.501659 
L 85.79358 31.368108 
L 86.808125 31.368108 
L 86.808125 27.248778 
L 87.82267 27.248778 
L 87.82267 27.084005 
L 88.837216 27.084005 
L 88.837216 29.39083 
L 89.851761 29.39083 
L 89.851761 25.189113 
L 90.866307 25.189113 
L 90.866307 17.362387 
L 92.895398 17.28 
L 92.895398 19.504438 
L 93.909943 19.504438 
L 93.909943 25.106727 
L 94.924489 25.106727 
L 94.924489 29.226056 
L 95.939034 29.226056 
L 95.939034 28.64935 
L 96.95358 28.64935 
L 96.95358 32.439134 
L 97.968125 32.439134 
L 97.968125 29.473216 
L 98.98267 29.473216 
L 98.98267 35.816984 
L 99.997216 35.816984 
L 99.997216 36.14653 
L 102.026307 36.064144 
L 102.026307 38.700515 
L 103.040852 38.700515 
L 103.040852 40.101087 
L 104.055398 40.101087 
L 104.055398 49.987479 
L 105.069943 49.987479 
L 105.069943 63.910813 
L 106.084489 63.910813 
L 106.084489 73.302885 
L 107.099034 73.302885 
L 107.099034 80.223359 
L 108.11358 80.223359 
L 108.11358 87.720539 
L 109.128125 87.720539 
L 109.128125 103.044446 
L 110.14267 103.044446 
L 110.14267 107.740482 
L 111.157216 107.740482 
L 111.157216 110.624013 
L 112.171761 110.624013 
L 112.171761 119.109832 
L 113.186307 119.109832 
L 113.186307 129.243384 
L 114.200852 129.243384 
L 114.200852 134.186579 
L 115.215398 134.186579 
L 115.215398 140.94228 
L 116.229943 140.94228 
L 116.229943 150.499125 
L 117.244489 150.499125 
L 117.244489 162.857115 
L 118.259034 162.857115 
L 118.259034 166.811671 
L 119.27358 166.811671 
L 119.27358 171.590094 
L 120.288125 171.590094 
L 120.288125 180.323073 
L 121.30267 180.323073 
L 121.30267 186.007748 
L 122.317216 186.007748 
L 122.317216 190.786171 
L 123.331761 190.786171 
L 123.331761 177.027609 
L 124.346307 177.027609 
L 124.346307 160.632677 
L 125.360852 160.632677 
L 125.360852 146.462182 
L 126.375398 146.462182 
L 126.375398 126.607013 
L 127.389943 126.607013 
L 127.389943 102.46774 
L 128.404489 102.46774 
L 128.404489 86.814287 
L 129.419034 86.814287 
L 129.419034 93.569988 
L 130.43358 93.569988 
L 130.43358 92.581349 
L 131.448125 92.581349 
L 131.448125 92.251802 
L 132.46267 92.251802 
L 132.46267 92.581349 
L 133.477216 92.581349 
L 133.477216 84.013143 
L 134.491761 84.013143 
L 134.491761 93.734761 
L 135.506307 93.734761 
L 135.506307 99.831369 
L 136.520852 99.831369 
L 136.520852 101.973421 
L 137.535398 101.973421 
L 137.535398 100.325689 
L 138.549943 100.325689 
L 138.549943 102.22058 
L 139.564489 102.22058 
L 139.564489 100.820008 
L 140.579034 100.820008 
L 140.579034 106.422297 
L 141.59358 106.422297 
L 141.59358 104.527405 
L 142.608125 104.527405 
L 142.608125 102.96206 
L 143.62267 102.96206 
L 143.62267 108.646735 
L 144.637216 108.646735 
L 144.637216 110.541626 
L 145.651761 110.541626 
L 145.651761 108.646735 
L 146.666307 108.646735 
L 146.666307 116.555848 
L 147.680852 116.555848 
L 147.680852 108.729121 
L 148.695398 108.729121 
L 148.695398 111.612652 
L 149.709943 111.612652 
L 149.709943 115.649595 
L 150.724489 115.649595 
L 150.724489 113.425157 
L 151.739034 113.425157 
L 151.739034 115.155276 
L 152.75358 115.155276 
L 152.75358 116.720621 
L 153.768125 116.720621 
L 153.768125 121.910977 
L 154.78267 121.910977 
L 154.78267 124.053028 
L 155.797216 124.053028 
L 155.797216 122.652456 
L 156.811761 122.652456 
L 156.811761 127.101332 
L 157.826307 127.101332 
L 157.826307 126.607013 
L 158.840852 126.607013 
L 158.840852 125.288827 
L 159.855398 125.288827 
L 159.855398 131.632595 
L 160.869943 131.632595 
L 160.869943 125.371214 
L 161.884489 125.371214 
L 161.884489 124.876894 
L 162.899034 124.876894 
L 162.899034 129.408157 
L 163.91358 129.408157 
L 163.91358 130.643956 
L 164.928125 130.643956 
L 164.928125 126.19508 
L 165.94267 126.19508 
L 165.94267 132.291688 
L 166.957216 132.291688 
L 166.957216 141.354213 
L 167.971761 141.354213 
L 167.971761 147.780368 
L 168.986307 147.780368 
L 168.986307 152.888337 
L 170.000852 152.888337 
L 170.000852 150.251966 
L 171.015398 150.251966 
L 171.015398 154.618455 
L 172.029943 154.618455 
L 172.029943 147.286048 
L 173.044489 147.286048 
L 173.044489 154.453682 
L 174.059034 154.453682 
L 174.059034 156.019027 
L 175.07358 156.019027 
L 175.07358 161.621316 
L 176.088125 161.621316 
L 176.088125 159.067331 
L 177.10267 159.067331 
L 177.10267 153.794589 
L 178.117216 153.794589 
L 178.117216 149.510486 
L 179.131761 149.510486 
L 179.131761 143.661038 
L 180.146307 143.661038 
L 180.146307 141.271827 
L 181.160852 141.271827 
L 181.160852 139.294548 
L 182.175398 139.294548 
L 182.175398 134.104193 
L 183.189943 134.104193 
L 183.189943 131.385435 
L 184.204489 131.385435 
L 184.204489 136.246244 
L 185.219034 136.246244 
L 185.219034 143.084332 
L 186.23358 143.084332 
L 186.23358 143.331492 
L 187.248125 143.331492 
L 187.248125 147.038888 
L 188.26267 147.038888 
L 188.26267 154.206522 
L 189.277216 154.206522 
L 189.277216 151.982084 
L 190.291761 151.982084 
L 190.291761 155.771868 
L 191.306307 155.771868 
L 191.306307 159.314491 
L 192.320852 159.314491 
L 192.320852 157.749146 
L 193.335398 157.749146 
L 193.335398 160.79745 
L 194.349943 160.79745 
L 194.349943 158.078692 
L 195.364489 158.078692 
L 195.364489 162.774728 
L 196.379034 162.774728 
L 196.379034 155.936641 
L 197.39358 155.936641 
L 197.39358 155.277548 
L 198.408125 155.277548 
L 198.408125 160.79745 
L 199.42267 160.79745 
L 199.42267 161.456543 
L 200.437216 161.456543 
L 200.437216 162.609955 
L 201.451761 162.609955 
L 201.451761 164.42246 
L 202.466307 164.42246 
L 202.466307 165.740646 
L 203.480852 165.740646 
L 203.480852 167.553151 
L 204.495398 167.553151 
L 204.495398 173.896919 
L 205.509943 173.896919 
L 205.509943 172.990666 
L 206.524489 172.990666 
L 206.524489 172.66112 
L 207.539034 172.66112 
L 207.539034 175.874197 
L 208.55358 175.874197 
L 208.55358 179.087274 
L 209.568125 179.087274 
L 209.568125 177.192383 
L 210.58267 177.192383 
L 210.58267 177.933862 
L 211.597216 177.933862 
L 211.597216 180.1583 
L 212.611761 180.1583 
L 212.611761 181.641259 
L 213.626307 181.641259 
L 213.626307 181.394099 
L 214.640852 181.394099 
L 214.640852 186.831614 
L 215.655398 186.831614 
L 215.655398 191.033331 
L 217.684489 191.115717 
L 217.684489 193.010609 
L 218.699034 193.010609 
L 218.699034 192.681063 
L 219.71358 192.681063 
L 219.71358 194.164021 
L 221.74267 194.246408 
L 221.74267 197.624258 
L 222.757216 197.624258 
L 222.757216 198.365738 
L 224.786307 198.365738 
L 224.786307 196.882779 
L 225.800852 196.882779 
L 225.800852 196.306073 
L 226.815398 196.306073 
L 226.815398 190.950944 
L 227.829943 190.950944 
L 227.829943 190.374238 
L 229.859034 190.374238 
L 229.859034 188.479346 
L 230.87358 188.479346 
L 230.87358 181.806032 
L 231.888125 181.806032 
L 231.888125 184.360016 
L 232.90267 184.360016 
L 232.90267 186.007748 
L 233.917216 186.007748 
L 233.917216 192.26913 
L 234.931761 192.26913 
L 234.931761 195.564593 
L 235.946307 195.564593 
L 235.946307 194.411181 
L 236.960852 194.411181 
L 236.960852 195.729367 
L 237.975398 195.729367 
L 237.975398 196.306073 
L 238.989943 196.306073 
L 238.989943 199.27199 
L 240.004489 199.27199 
L 240.004489 196.882779 
L 241.019034 196.882779 
L 241.019034 198.200964 
L 242.03358 198.200964 
L 242.03358 196.635619 
L 243.048125 196.635619 
L 243.048125 198.860057 
L 244.06267 198.860057 
L 244.06267 201.414042 
L 245.077216 201.414042 
L 245.077216 202.897 
L 246.091761 202.897 
L 246.091761 202.732227 
L 247.106307 202.732227 
L 247.106307 202.567454 
L 248.120852 202.567454 
L 248.120852 203.803253 
L 249.135398 203.803253 
L 249.135398 204.379959 
L 250.149943 204.379959 
L 250.149943 206.76917 
L 251.164489 206.76917 
L 251.164489 206.357237 
L 252.179034 206.357237 
L 252.179034 206.933944 
L 253.19358 206.933944 
L 253.19358 205.286212 
L 254.208125 205.286212 
L 254.208125 204.874279 
L 255.22267 204.874279 
L 255.22267 208.581676 
L 256.237216 208.581676 
L 256.237216 210.229407 
L 257.251761 210.229407 
L 257.251761 212.206686 
L 259.280852 212.124299 
L 259.280852 212.783392 
L 260.295398 212.783392 
L 260.295398 212.124299 
L 261.309943 212.124299 
L 261.309943 213.277711 
L 262.324489 213.277711 
L 262.324489 209.652701 
L 263.339034 209.652701 
L 263.339034 211.547593 
L 264.35358 211.547593 
L 264.35358 213.195325 
L 265.368125 213.195325 
L 265.368125 212.783392 
L 266.38267 212.783392 
L 266.38267 213.854418 
L 267.397216 213.854418 
L 267.397216 215.50215 
L 268.411761 215.50215 
L 268.411761 215.666923 
L 269.426307 215.666923 
L 269.426307 215.914083 
L 270.440852 215.914083 
L 270.440852 214.843057 
L 271.455398 214.843057 
L 271.455398 211.300433 
L 272.469943 211.300433 
L 272.469943 209.982248 
L 273.484489 209.982248 
L 273.484489 210.147021 
L 274.499034 210.147021 
L 274.499034 207.098717 
L 275.51358 207.098717 
L 275.51358 208.828835 
L 276.528125 208.828835 
L 276.528125 207.26349 
L 277.54267 207.26349 
L 277.54267 205.039052 
L 278.557216 205.039052 
L 278.557216 206.933944 
L 279.571761 206.933944 
L 279.571761 207.181103 
L 280.586307 207.181103 
L 280.586307 205.945304 
L 281.600852 205.945304 
L 281.600852 209.652701 
L 282.615398 209.652701 
L 282.615398 209.158382 
L 283.629943 209.158382 
L 283.629943 209.570315 
L 284.644489 209.570315 
L 284.644489 208.828835 
L 285.659034 208.828835 
L 285.659034 210.064634 
L 286.67358 210.064634 
L 286.67358 211.38282 
L 287.688125 211.38282 
L 287.688125 210.806114 
L 288.70267 210.806114 
L 288.70267 211.465206 
L 289.717216 211.465206 
L 289.717216 211.300433 
L 290.731761 211.300433 
L 290.731761 211.547593 
L 291.746307 211.547593 
L 291.746307 212.206686 
L 292.760852 212.206686 
L 292.760852 212.041913 
L 293.775398 212.041913 
L 293.775398 212.865779 
L 294.789943 212.865779 
L 294.789943 213.607258 
L 295.804489 213.607258 
L 295.804489 213.772031 
L 296.819034 213.772031 
L 296.819034 214.266351 
L 297.83358 214.266351 
L 297.83358 213.936804 
L 299.86267 213.854418 
L 299.86267 213.360098 
L 300.877216 213.360098 
L 300.877216 214.431124 
L 301.891761 214.431124 
L 301.891761 215.25499 
L 302.906307 215.25499 
L 302.906307 215.50215 
L 303.920852 215.50215 
L 303.920852 216.326016 
L 304.935398 216.326016 
L 304.935398 216.737949 
L 305.949943 216.737949 
L 305.949943 215.914083 
L 306.964489 215.914083 
L 306.964489 216.737949 
L 307.979034 216.737949 
L 307.979034 216.326016 
L 308.99358 216.326016 
L 308.99358 217.314655 
L 310.008125 217.314655 
L 310.008125 218.138521 
L 311.02267 218.138521 
L 311.02267 217.314655 
L 312.037216 217.314655 
L 312.037216 218.056134 
L 313.051761 218.056134 
L 313.051761 217.232268 
L 314.066307 217.232268 
L 314.066307 216.820335 
L 315.080852 216.820335 
L 315.080852 216.490789 
L 316.095398 216.490789 
L 316.095398 215.749309 
L 317.109943 215.749309 
L 317.109943 214.266351 
L 318.124489 214.266351 
L 318.124489 214.101577 
L 319.139034 214.101577 
L 319.139034 212.701005 
L 320.15358 212.701005 
L 320.15358 212.453846 
L 321.168125 212.453846 
L 321.168125 211.62998 
L 322.18267 211.62998 
L 322.18267 212.206686 
L 323.197216 212.206686 
L 323.197216 208.252129 
L 324.211761 208.252129 
L 324.211761 206.933944 
L 325.226307 206.933944 
L 325.226307 204.709506 
L 326.240852 204.709506 
L 326.240852 204.050413 
L 327.255398 204.050413 
L 327.255398 201.990748 
L 328.269943 201.990748 
L 328.269943 205.039052 
L 330.299034 205.039052 
L 330.299034 204.132799 
L 331.31358 204.132799 
L 331.31358 205.780531 
L 332.328125 205.780531 
L 332.328125 205.039052 
L 333.34267 205.039052 
L 333.34267 207.840196 
L 334.357216 207.840196 
L 334.357216 206.522011 
L 335.371761 206.522011 
L 335.371761 206.357237 
L 336.386307 206.357237 
L 336.386307 204.791892 
L 337.400852 204.791892 
L 337.400852 204.462346 
L 338.415398 204.462346 
L 338.415398 205.121438 
L 339.429943 205.121438 
L 339.429943 204.462346 
L 340.444489 204.462346 
L 340.444489 207.840196 
L 341.459034 207.840196 
L 341.459034 205.286212 
L 342.47358 205.286212 
L 342.47358 207.840196 
L 343.488125 207.840196 
L 343.488125 206.110078 
L 344.50267 206.110078 
L 344.50267 205.862918 
L 345.517216 205.862918 
L 345.517216 207.345877 
L 346.531761 207.345877 
L 346.531761 207.01633 
L 347.546307 207.01633 
L 347.546307 208.499289 
L 348.560852 208.499289 
L 348.560852 209.075995 
L 349.575398 209.075995 
L 349.575398 210.476567 
L 350.589943 210.476567 
L 350.589943 210.147021 
L 351.604489 210.147021 
L 351.604489 209.982248 
L 352.619034 209.982248 
L 352.619034 210.394181 
L 353.63358 210.394181 
L 353.63358 209.158382 
L 354.648125 209.158382 
L 354.648125 207.51065 
L 355.66267 207.51065 
L 355.66267 212.371459 
L 356.677216 212.371459 
L 356.677216 211.62998 
L 357.691761 211.62998 
L 357.691761 211.300433 
L 358.706307 211.300433 
L 358.706307 210.476567 
L 359.720852 210.476567 
L 359.720852 212.618619 
L 360.735398 212.618619 
L 360.735398 212.289072 
L 361.749943 212.289072 
L 361.749943 212.453846 
L 362.764489 212.453846 
L 362.764489 214.266351 
L 363.779034 214.266351 
L 363.779034 214.595897 
L 364.79358 214.595897 
L 364.79358 214.183964 
L 365.808125 214.183964 
L 365.808125 213.772031 
L 366.82267 213.772031 
L 366.82267 215.337376 
L 367.837216 215.337376 
L 367.837216 216.490789 
L 368.851761 216.490789 
L 368.851761 216.737949 
L 369.866307 216.737949 
L 369.866307 217.726588 
L 370.880852 217.726588 
L 370.880852 218.63284 
L 371.895398 218.63284 
L 371.895398 218.88 
L 372.909943 218.88 
L 372.909943 218.88 
" clip-path="url(#p5e34c61301)" style="fill: none; stroke: #1f77b4; stroke-width: 1.5; stroke-linecap: square"/>
   </g>
  </g>
 </g>
 <defs>
  <clipPath id="p5e34c61301">
   <rect x="53.328125" y="7.2" width="334.8" height="221.76"/>
  </clipPath>
 </defs>
</svg>
