<?xml version="1.0" encoding="utf-8" standalone="no"?>
<!DOCTYPE svg PUBLIC "-//W3C//DTD SVG 1.1//EN"
  "http://www.w3.org/Graphics/SVG/1.1/DTD/svg11.dtd">
<svg xmlns:xlink="http://www.w3.org/1999/xlink" width="395.328125pt" height="268.200625pt" viewBox="0 0 395.328125 268.200625" xmlns="http://www.w3.org/2000/svg" version="1.1">
 <metadata>
  <rdf:RDF xmlns:dc="http://purl.org/dc/elements/1.1/" xmlns:cc="http://creativecommons.org/ns#" xmlns:rdf="http://www.w3.org/1999/02/22-rdf-syntax-ns#">
   <cc:Work>
    <dc:type rdf:resource="http://purl.org/dc/dcmitype/StillImage"/>
    <dc:date>2025-05-07T16:07:25.841230</dc:date>
    <dc:format>image/svg+xml</dc:format>
    <dc:creator>
     <cc:Agent>
      <dc:title>Matplotlib v3.10.1, https://matplotlib.org/</dc:title>
     </cc:Agent>
    </dc:creator>
   </cc:Work>
  </rdf:RDF>
 </metadata>
 <defs>
  <style type="text/css">*{stroke-linejoin: round; stroke-linecap: butt}</style>
 </defs>
 <g id="figure_1">
  <g id="patch_1">
   <path d="M 0 268.200625 
L 395.328125 268.200625 
L 395.328125 0 
L 0 0 
z
" style="fill: #ffffff"/>
  </g>
  <g id="axes_1">
   <g id="patch_2">
    <path d="M 53.328125 228.96 
L 388.128125 228.96 
L 388.128125 7.2 
L 53.328125 7.2 
z
" style="fill: #ffffff"/>
   </g>
   <g id="matplotlib.axis_1">
    <g id="xtick_1">
     <g id="line2d_1">
      <defs>
       <path id="mf44617275f" d="M 0 0 
L 0 3.5 
" style="stroke: #000000; stroke-width: 0.8"/>
      </defs>
      <g>
       <use xlink:href="#mf44617275f" x="68.546307" y="228.96" style="stroke: #000000; stroke-width: 0.8"/>
      </g>
     </g>
     <g id="text_1">
      <!-- 2 -->
      <g transform="translate(65.365057 243.558437) scale(0.1 -0.1)">
       <defs>
        <path id="DejaVuSans-32" d="M 1228 531 
L 3431 531 
L 3431 0 
L 469 0 
L 469 531 
Q 828 903 1448 1529 
Q 2069 2156 2228 2338 
Q 2531 2678 2651 2914 
Q 2772 3150 2772 3378 
Q 2772 3750 2511 3984 
Q 2250 4219 1831 4219 
Q 1534 4219 1204 4116 
Q 875 4013 500 3803 
L 500 4441 
Q 881 4594 1212 4672 
Q 1544 4750 1819 4750 
Q 2544 4750 2975 4387 
Q 3406 4025 3406 3419 
Q 3406 3131 3298 2873 
Q 3191 2616 2906 2266 
Q 2828 2175 2409 1742 
Q 1991 1309 1228 531 
z
" transform="scale(0.015625)"/>
       </defs>
       <use xlink:href="#DejaVuSans-32"/>
      </g>
     </g>
    </g>
    <g id="xtick_2">
     <g id="line2d_2">
      <g>
       <use xlink:href="#mf44617275f" x="106.591761" y="228.96" style="stroke: #000000; stroke-width: 0.8"/>
      </g>
     </g>
     <g id="text_2">
      <!-- 3 -->
      <g transform="translate(103.410511 243.558437) scale(0.1 -0.1)">
       <defs>
        <path id="DejaVuSans-33" d="M 2597 2516 
Q 3050 2419 3304 2112 
Q 3559 1806 3559 1356 
Q 3559 666 3084 287 
Q 2609 -91 1734 -91 
Q 1441 -91 1130 -33 
Q 819 25 488 141 
L 488 750 
Q 750 597 1062 519 
Q 1375 441 1716 441 
Q 2309 441 2620 675 
Q 2931 909 2931 1356 
Q 2931 1769 2642 2001 
Q 2353 2234 1838 2234 
L 1294 2234 
L 1294 2753 
L 1863 2753 
Q 2328 2753 2575 2939 
Q 2822 3125 2822 3475 
Q 2822 3834 2567 4026 
Q 2313 4219 1838 4219 
Q 1578 4219 1281 4162 
Q 984 4106 628 3988 
L 628 4550 
Q 988 4650 1302 4700 
Q 1616 4750 1894 4750 
Q 2613 4750 3031 4423 
Q 3450 4097 3450 3541 
Q 3450 3153 3228 2886 
Q 3006 2619 2597 2516 
z
" transform="scale(0.015625)"/>
       </defs>
       <use xlink:href="#DejaVuSans-33"/>
      </g>
     </g>
    </g>
    <g id="xtick_3">
     <g id="line2d_3">
      <g>
       <use xlink:href="#mf44617275f" x="144.637216" y="228.96" style="stroke: #000000; stroke-width: 0.8"/>
      </g>
     </g>
     <g id="text_3">
      <!-- 4 -->
      <g transform="translate(141.455966 243.558437) scale(0.1 -0.1)">
       <defs>
        <path id="DejaVuSans-34" d="M 2419 4116 
L 825 1625 
L 2419 1625 
L 2419 4116 
z
M 2253 4666 
L 3047 4666 
L 3047 1625 
L 3713 1625 
L 3713 1100 
L 3047 1100 
L 3047 0 
L 2419 0 
L 2419 1100 
L 313 1100 
L 313 1709 
L 2253 4666 
z
" transform="scale(0.015625)"/>
       </defs>
       <use xlink:href="#DejaVuSans-34"/>
      </g>
     </g>
    </g>
    <g id="xtick_4">
     <g id="line2d_4">
      <g>
       <use xlink:href="#mf44617275f" x="182.68267" y="228.96" style="stroke: #000000; stroke-width: 0.8"/>
      </g>
     </g>
     <g id="text_4">
      <!-- 5 -->
      <g transform="translate(179.50142 243.558437) scale(0.1 -0.1)">
       <defs>
        <path id="DejaVuSans-35" d="M 691 4666 
L 3169 4666 
L 3169 4134 
L 1269 4134 
L 1269 2991 
Q 1406 3038 1543 3061 
Q 1681 3084 1819 3084 
Q 2600 3084 3056 2656 
Q 3513 2228 3513 1497 
Q 3513 744 3044 326 
Q 2575 -91 1722 -91 
Q 1428 -91 1123 -41 
Q 819 9 494 109 
L 494 744 
Q 775 591 1075 516 
Q 1375 441 1709 441 
Q 2250 441 2565 725 
Q 2881 1009 2881 1497 
Q 2881 1984 2565 2268 
Q 2250 2553 1709 2553 
Q 1456 2553 1204 2497 
Q 953 2441 691 2322 
L 691 4666 
z
" transform="scale(0.015625)"/>
       </defs>
       <use xlink:href="#DejaVuSans-35"/>
      </g>
     </g>
    </g>
    <g id="xtick_5">
     <g id="line2d_5">
      <g>
       <use xlink:href="#mf44617275f" x="220.728125" y="228.96" style="stroke: #000000; stroke-width: 0.8"/>
      </g>
     </g>
     <g id="text_5">
      <!-- 6 -->
      <g transform="translate(217.546875 243.558437) scale(0.1 -0.1)">
       <defs>
        <path id="DejaVuSans-36" d="M 2113 2584 
Q 1688 2584 1439 2293 
Q 1191 2003 1191 1497 
Q 1191 994 1439 701 
Q 1688 409 2113 409 
Q 2538 409 2786 701 
Q 3034 994 3034 1497 
Q 3034 2003 2786 2293 
Q 2538 2584 2113 2584 
z
M 3366 4563 
L 3366 3988 
Q 3128 4100 2886 4159 
Q 2644 4219 2406 4219 
Q 1781 4219 1451 3797 
Q 1122 3375 1075 2522 
Q 1259 2794 1537 2939 
Q 1816 3084 2150 3084 
Q 2853 3084 3261 2657 
Q 3669 2231 3669 1497 
Q 3669 778 3244 343 
Q 2819 -91 2113 -91 
Q 1303 -91 875 529 
Q 447 1150 447 2328 
Q 447 3434 972 4092 
Q 1497 4750 2381 4750 
Q 2619 4750 2861 4703 
Q 3103 4656 3366 4563 
z
" transform="scale(0.015625)"/>
       </defs>
       <use xlink:href="#DejaVuSans-36"/>
      </g>
     </g>
    </g>
    <g id="xtick_6">
     <g id="line2d_6">
      <g>
       <use xlink:href="#mf44617275f" x="258.77358" y="228.96" style="stroke: #000000; stroke-width: 0.8"/>
      </g>
     </g>
     <g id="text_6">
      <!-- 7 -->
      <g transform="translate(255.59233 243.558437) scale(0.1 -0.1)">
       <defs>
        <path id="DejaVuSans-37" d="M 525 4666 
L 3525 4666 
L 3525 4397 
L 1831 0 
L 1172 0 
L 2766 4134 
L 525 4134 
L 525 4666 
z
" transform="scale(0.015625)"/>
       </defs>
       <use xlink:href="#DejaVuSans-37"/>
      </g>
     </g>
    </g>
    <g id="xtick_7">
     <g id="line2d_7">
      <g>
       <use xlink:href="#mf44617275f" x="296.819034" y="228.96" style="stroke: #000000; stroke-width: 0.8"/>
      </g>
     </g>
     <g id="text_7">
      <!-- 8 -->
      <g transform="translate(293.637784 243.558437) scale(0.1 -0.1)">
       <defs>
        <path id="DejaVuSans-38" d="M 2034 2216 
Q 1584 2216 1326 1975 
Q 1069 1734 1069 1313 
Q 1069 891 1326 650 
Q 1584 409 2034 409 
Q 2484 409 2743 651 
Q 3003 894 3003 1313 
Q 3003 1734 2745 1975 
Q 2488 2216 2034 2216 
z
M 1403 2484 
Q 997 2584 770 2862 
Q 544 3141 544 3541 
Q 544 4100 942 4425 
Q 1341 4750 2034 4750 
Q 2731 4750 3128 4425 
Q 3525 4100 3525 3541 
Q 3525 3141 3298 2862 
Q 3072 2584 2669 2484 
Q 3125 2378 3379 2068 
Q 3634 1759 3634 1313 
Q 3634 634 3220 271 
Q 2806 -91 2034 -91 
Q 1263 -91 848 271 
Q 434 634 434 1313 
Q 434 1759 690 2068 
Q 947 2378 1403 2484 
z
M 1172 3481 
Q 1172 3119 1398 2916 
Q 1625 2713 2034 2713 
Q 2441 2713 2670 2916 
Q 2900 3119 2900 3481 
Q 2900 3844 2670 4047 
Q 2441 4250 2034 4250 
Q 1625 4250 1398 4047 
Q 1172 3844 1172 3481 
z
" transform="scale(0.015625)"/>
       </defs>
       <use xlink:href="#DejaVuSans-38"/>
      </g>
     </g>
    </g>
    <g id="xtick_8">
     <g id="line2d_8">
      <g>
       <use xlink:href="#mf44617275f" x="334.864489" y="228.96" style="stroke: #000000; stroke-width: 0.8"/>
      </g>
     </g>
     <g id="text_8">
      <!-- 9 -->
      <g transform="translate(331.683239 243.558437) scale(0.1 -0.1)">
       <defs>
        <path id="DejaVuSans-39" d="M 703 97 
L 703 672 
Q 941 559 1184 500 
Q 1428 441 1663 441 
Q 2288 441 2617 861 
Q 2947 1281 2994 2138 
Q 2813 1869 2534 1725 
Q 2256 1581 1919 1581 
Q 1219 1581 811 2004 
Q 403 2428 403 3163 
Q 403 3881 828 4315 
Q 1253 4750 1959 4750 
Q 2769 4750 3195 4129 
Q 3622 3509 3622 2328 
Q 3622 1225 3098 567 
Q 2575 -91 1691 -91 
Q 1453 -91 1209 -44 
Q 966 3 703 97 
z
M 1959 2075 
Q 2384 2075 2632 2365 
Q 2881 2656 2881 3163 
Q 2881 3666 2632 3958 
Q 2384 4250 1959 4250 
Q 1534 4250 1286 3958 
Q 1038 3666 1038 3163 
Q 1038 2656 1286 2365 
Q 1534 2075 1959 2075 
z
" transform="scale(0.015625)"/>
       </defs>
       <use xlink:href="#DejaVuSans-39"/>
      </g>
     </g>
    </g>
    <g id="xtick_9">
     <g id="line2d_9">
      <g>
       <use xlink:href="#mf44617275f" x="372.909943" y="228.96" style="stroke: #000000; stroke-width: 0.8"/>
      </g>
     </g>
     <g id="text_9">
      <!-- 10 -->
      <g transform="translate(366.547443 243.558437) scale(0.1 -0.1)">
       <defs>
        <path id="DejaVuSans-31" d="M 794 531 
L 1825 531 
L 1825 4091 
L 703 3866 
L 703 4441 
L 1819 4666 
L 2450 4666 
L 2450 531 
L 3481 531 
L 3481 0 
L 794 0 
L 794 531 
z
" transform="scale(0.015625)"/>
        <path id="DejaVuSans-30" d="M 2034 4250 
Q 1547 4250 1301 3770 
Q 1056 3291 1056 2328 
Q 1056 1369 1301 889 
Q 1547 409 2034 409 
Q 2525 409 2770 889 
Q 3016 1369 3016 2328 
Q 3016 3291 2770 3770 
Q 2525 4250 2034 4250 
z
M 2034 4750 
Q 2819 4750 3233 4129 
Q 3647 3509 3647 2328 
Q 3647 1150 3233 529 
Q 2819 -91 2034 -91 
Q 1250 -91 836 529 
Q 422 1150 422 2328 
Q 422 3509 836 4129 
Q 1250 4750 2034 4750 
z
" transform="scale(0.015625)"/>
       </defs>
       <use xlink:href="#DejaVuSans-31"/>
       <use xlink:href="#DejaVuSans-30" transform="translate(63.623047 0)"/>
      </g>
     </g>
    </g>
    <g id="text_10">
     <!-- wavelength [Å] -->
     <g transform="translate(182.690625 258.920937) scale(0.1 -0.1)">
      <defs>
       <path id="DejaVuSans-77" d="M 269 3500 
L 844 3500 
L 1563 769 
L 2278 3500 
L 2956 3500 
L 3675 769 
L 4391 3500 
L 4966 3500 
L 4050 0 
L 3372 0 
L 2619 2869 
L 1863 0 
L 1184 0 
L 269 3500 
z
" transform="scale(0.015625)"/>
       <path id="DejaVuSans-61" d="M 2194 1759 
Q 1497 1759 1228 1600 
Q 959 1441 959 1056 
Q 959 750 1161 570 
Q 1363 391 1709 391 
Q 2188 391 2477 730 
Q 2766 1069 2766 1631 
L 2766 1759 
L 2194 1759 
z
M 3341 1997 
L 3341 0 
L 2766 0 
L 2766 531 
Q 2569 213 2275 61 
Q 1981 -91 1556 -91 
Q 1019 -91 701 211 
Q 384 513 384 1019 
Q 384 1609 779 1909 
Q 1175 2209 1959 2209 
L 2766 2209 
L 2766 2266 
Q 2766 2663 2505 2880 
Q 2244 3097 1772 3097 
Q 1472 3097 1187 3025 
Q 903 2953 641 2809 
L 641 3341 
Q 956 3463 1253 3523 
Q 1550 3584 1831 3584 
Q 2591 3584 2966 3190 
Q 3341 2797 3341 1997 
z
" transform="scale(0.015625)"/>
       <path id="DejaVuSans-76" d="M 191 3500 
L 800 3500 
L 1894 563 
L 2988 3500 
L 3597 3500 
L 2284 0 
L 1503 0 
L 191 3500 
z
" transform="scale(0.015625)"/>
       <path id="DejaVuSans-65" d="M 3597 1894 
L 3597 1613 
L 953 1613 
Q 991 1019 1311 708 
Q 1631 397 2203 397 
Q 2534 397 2845 478 
Q 3156 559 3463 722 
L 3463 178 
Q 3153 47 2828 -22 
Q 2503 -91 2169 -91 
Q 1331 -91 842 396 
Q 353 884 353 1716 
Q 353 2575 817 3079 
Q 1281 3584 2069 3584 
Q 2775 3584 3186 3129 
Q 3597 2675 3597 1894 
z
M 3022 2063 
Q 3016 2534 2758 2815 
Q 2500 3097 2075 3097 
Q 1594 3097 1305 2825 
Q 1016 2553 972 2059 
L 3022 2063 
z
" transform="scale(0.015625)"/>
       <path id="DejaVuSans-6c" d="M 603 4863 
L 1178 4863 
L 1178 0 
L 603 0 
L 603 4863 
z
" transform="scale(0.015625)"/>
       <path id="DejaVuSans-6e" d="M 3513 2113 
L 3513 0 
L 2938 0 
L 2938 2094 
Q 2938 2591 2744 2837 
Q 2550 3084 2163 3084 
Q 1697 3084 1428 2787 
Q 1159 2491 1159 1978 
L 1159 0 
L 581 0 
L 581 3500 
L 1159 3500 
L 1159 2956 
Q 1366 3272 1645 3428 
Q 1925 3584 2291 3584 
Q 2894 3584 3203 3211 
Q 3513 2838 3513 2113 
z
" transform="scale(0.015625)"/>
       <path id="DejaVuSans-67" d="M 2906 1791 
Q 2906 2416 2648 2759 
Q 2391 3103 1925 3103 
Q 1463 3103 1205 2759 
Q 947 2416 947 1791 
Q 947 1169 1205 825 
Q 1463 481 1925 481 
Q 2391 481 2648 825 
Q 2906 1169 2906 1791 
z
M 3481 434 
Q 3481 -459 3084 -895 
Q 2688 -1331 1869 -1331 
Q 1566 -1331 1297 -1286 
Q 1028 -1241 775 -1147 
L 775 -588 
Q 1028 -725 1275 -790 
Q 1522 -856 1778 -856 
Q 2344 -856 2625 -561 
Q 2906 -266 2906 331 
L 2906 616 
Q 2728 306 2450 153 
Q 2172 0 1784 0 
Q 1141 0 747 490 
Q 353 981 353 1791 
Q 353 2603 747 3093 
Q 1141 3584 1784 3584 
Q 2172 3584 2450 3431 
Q 2728 3278 2906 2969 
L 2906 3500 
L 3481 3500 
L 3481 434 
z
" transform="scale(0.015625)"/>
       <path id="DejaVuSans-74" d="M 1172 4494 
L 1172 3500 
L 2356 3500 
L 2356 3053 
L 1172 3053 
L 1172 1153 
Q 1172 725 1289 603 
Q 1406 481 1766 481 
L 2356 481 
L 2356 0 
L 1766 0 
Q 1100 0 847 248 
Q 594 497 594 1153 
L 594 3053 
L 172 3053 
L 172 3500 
L 594 3500 
L 594 4494 
L 1172 4494 
z
" transform="scale(0.015625)"/>
       <path id="DejaVuSans-68" d="M 3513 2113 
L 3513 0 
L 2938 0 
L 2938 2094 
Q 2938 2591 2744 2837 
Q 2550 3084 2163 3084 
Q 1697 3084 1428 2787 
Q 1159 2491 1159 1978 
L 1159 0 
L 581 0 
L 581 4863 
L 1159 4863 
L 1159 2956 
Q 1366 3272 1645 3428 
Q 1925 3584 2291 3584 
Q 2894 3584 3203 3211 
Q 3513 2838 3513 2113 
z
" transform="scale(0.015625)"/>
       <path id="DejaVuSans-20" transform="scale(0.015625)"/>
       <path id="DejaVuSans-5b" d="M 550 4863 
L 1875 4863 
L 1875 4416 
L 1125 4416 
L 1125 -397 
L 1875 -397 
L 1875 -844 
L 550 -844 
L 550 4863 
z
" transform="scale(0.015625)"/>
       <path id="DejaVuSans-c5" d="M 2663 5081 
Q 2663 5278 2523 5417 
Q 2384 5556 2188 5556 
Q 1988 5556 1852 5420 
Q 1716 5284 1716 5081 
Q 1716 4884 1853 4746 
Q 1991 4609 2188 4609 
Q 2384 4609 2523 4746 
Q 2663 4884 2663 5081 
z
M 2188 4044 
L 1338 1722 
L 3041 1722 
L 2188 4044 
z
M 1716 4366 
Q 1525 4494 1428 4673 
Q 1331 4853 1331 5081 
Q 1331 5441 1579 5691 
Q 1828 5941 2188 5941 
Q 2544 5941 2795 5689 
Q 3047 5438 3047 5081 
Q 3047 4863 2948 4678 
Q 2850 4494 2663 4366 
L 4325 0 
L 3669 0 
L 3244 1197 
L 1141 1197 
L 716 0 
L 50 0 
L 1716 4366 
z
" transform="scale(0.015625)"/>
       <path id="DejaVuSans-5d" d="M 1947 4863 
L 1947 -844 
L 622 -844 
L 622 -397 
L 1369 -397 
L 1369 4416 
L 622 4416 
L 622 4863 
L 1947 4863 
z
" transform="scale(0.015625)"/>
      </defs>
      <use xlink:href="#DejaVuSans-77"/>
      <use xlink:href="#DejaVuSans-61" transform="translate(81.787109 0)"/>
      <use xlink:href="#DejaVuSans-76" transform="translate(143.066406 0)"/>
      <use xlink:href="#DejaVuSans-65" transform="translate(202.246094 0)"/>
      <use xlink:href="#DejaVuSans-6c" transform="translate(263.769531 0)"/>
      <use xlink:href="#DejaVuSans-65" transform="translate(291.552734 0)"/>
      <use xlink:href="#DejaVuSans-6e" transform="translate(353.076172 0)"/>
      <use xlink:href="#DejaVuSans-67" transform="translate(416.455078 0)"/>
      <use xlink:href="#DejaVuSans-74" transform="translate(479.931641 0)"/>
      <use xlink:href="#DejaVuSans-68" transform="translate(519.140625 0)"/>
      <use xlink:href="#DejaVuSans-20" transform="translate(582.519531 0)"/>
      <use xlink:href="#DejaVuSans-5b" transform="translate(614.306641 0)"/>
      <use xlink:href="#DejaVuSans-c5" transform="translate(653.320312 0)"/>
      <use xlink:href="#DejaVuSans-5d" transform="translate(721.728516 0)"/>
     </g>
    </g>
   </g>
   <g id="matplotlib.axis_2">
    <g id="ytick_1">
     <g id="line2d_10">
      <defs>
       <path id="mfd71d4fdc7" d="M 0 0 
L -3.5 0 
" style="stroke: #000000; stroke-width: 0.8"/>
      </defs>
      <g>
       <use xlink:href="#mfd71d4fdc7" x="53.328125" y="218.88" style="stroke: #000000; stroke-width: 0.8"/>
      </g>
     </g>
     <g id="text_11">
      <!-- 0 -->
      <g transform="translate(39.965625 222.679219) scale(0.1 -0.1)">
       <use xlink:href="#DejaVuSans-30"/>
      </g>
     </g>
    </g>
    <g id="ytick_2">
     <g id="line2d_11">
      <g>
       <use xlink:href="#mfd71d4fdc7" x="53.328125" y="181.027953" style="stroke: #000000; stroke-width: 0.8"/>
      </g>
     </g>
     <g id="text_12">
      <!-- 500 -->
      <g transform="translate(27.240625 184.827172) scale(0.1 -0.1)">
       <use xlink:href="#DejaVuSans-35"/>
       <use xlink:href="#DejaVuSans-30" transform="translate(63.623047 0)"/>
       <use xlink:href="#DejaVuSans-30" transform="translate(127.246094 0)"/>
      </g>
     </g>
    </g>
    <g id="ytick_3">
     <g id="line2d_12">
      <g>
       <use xlink:href="#mfd71d4fdc7" x="53.328125" y="143.175907" style="stroke: #000000; stroke-width: 0.8"/>
      </g>
     </g>
     <g id="text_13">
      <!-- 1000 -->
      <g transform="translate(20.878125 146.975126) scale(0.1 -0.1)">
       <use xlink:href="#DejaVuSans-31"/>
       <use xlink:href="#DejaVuSans-30" transform="translate(63.623047 0)"/>
       <use xlink:href="#DejaVuSans-30" transform="translate(127.246094 0)"/>
       <use xlink:href="#DejaVuSans-30" transform="translate(190.869141 0)"/>
      </g>
     </g>
    </g>
    <g id="ytick_4">
     <g id="line2d_13">
      <g>
       <use xlink:href="#mfd71d4fdc7" x="53.328125" y="105.32386" style="stroke: #000000; stroke-width: 0.8"/>
      </g>
     </g>
     <g id="text_14">
      <!-- 1500 -->
      <g transform="translate(20.878125 109.123079) scale(0.1 -0.1)">
       <use xlink:href="#DejaVuSans-31"/>
       <use xlink:href="#DejaVuSans-35" transform="translate(63.623047 0)"/>
       <use xlink:href="#DejaVuSans-30" transform="translate(127.246094 0)"/>
       <use xlink:href="#DejaVuSans-30" transform="translate(190.869141 0)"/>
      </g>
     </g>
    </g>
    <g id="ytick_5">
     <g id="line2d_14">
      <g>
       <use xlink:href="#mfd71d4fdc7" x="53.328125" y="67.471814" style="stroke: #000000; stroke-width: 0.8"/>
      </g>
     </g>
     <g id="text_15">
      <!-- 2000 -->
      <g transform="translate(20.878125 71.271032) scale(0.1 -0.1)">
       <use xlink:href="#DejaVuSans-32"/>
       <use xlink:href="#DejaVuSans-30" transform="translate(63.623047 0)"/>
       <use xlink:href="#DejaVuSans-30" transform="translate(127.246094 0)"/>
       <use xlink:href="#DejaVuSans-30" transform="translate(190.869141 0)"/>
      </g>
     </g>
    </g>
    <g id="ytick_6">
     <g id="line2d_15">
      <g>
       <use xlink:href="#mfd71d4fdc7" x="53.328125" y="29.619767" style="stroke: #000000; stroke-width: 0.8"/>
      </g>
     </g>
     <g id="text_16">
      <!-- 2500 -->
      <g transform="translate(20.878125 33.418986) scale(0.1 -0.1)">
       <use xlink:href="#DejaVuSans-32"/>
       <use xlink:href="#DejaVuSans-35" transform="translate(63.623047 0)"/>
       <use xlink:href="#DejaVuSans-30" transform="translate(127.246094 0)"/>
       <use xlink:href="#DejaVuSans-30" transform="translate(190.869141 0)"/>
      </g>
     </g>
    </g>
    <g id="text_17">
     <!-- [counts] -->
     <g transform="translate(14.798438 138.6925) rotate(-90) scale(0.1 -0.1)">
      <defs>
       <path id="DejaVuSans-63" d="M 3122 3366 
L 3122 2828 
Q 2878 2963 2633 3030 
Q 2388 3097 2138 3097 
Q 1578 3097 1268 2742 
Q 959 2388 959 1747 
Q 959 1106 1268 751 
Q 1578 397 2138 397 
Q 2388 397 2633 464 
Q 2878 531 3122 666 
L 3122 134 
Q 2881 22 2623 -34 
Q 2366 -91 2075 -91 
Q 1284 -91 818 406 
Q 353 903 353 1747 
Q 353 2603 823 3093 
Q 1294 3584 2113 3584 
Q 2378 3584 2631 3529 
Q 2884 3475 3122 3366 
z
" transform="scale(0.015625)"/>
       <path id="DejaVuSans-6f" d="M 1959 3097 
Q 1497 3097 1228 2736 
Q 959 2375 959 1747 
Q 959 1119 1226 758 
Q 1494 397 1959 397 
Q 2419 397 2687 759 
Q 2956 1122 2956 1747 
Q 2956 2369 2687 2733 
Q 2419 3097 1959 3097 
z
M 1959 3584 
Q 2709 3584 3137 3096 
Q 3566 2609 3566 1747 
Q 3566 888 3137 398 
Q 2709 -91 1959 -91 
Q 1206 -91 779 398 
Q 353 888 353 1747 
Q 353 2609 779 3096 
Q 1206 3584 1959 3584 
z
" transform="scale(0.015625)"/>
       <path id="DejaVuSans-75" d="M 544 1381 
L 544 3500 
L 1119 3500 
L 1119 1403 
Q 1119 906 1312 657 
Q 1506 409 1894 409 
Q 2359 409 2629 706 
Q 2900 1003 2900 1516 
L 2900 3500 
L 3475 3500 
L 3475 0 
L 2900 0 
L 2900 538 
Q 2691 219 2414 64 
Q 2138 -91 1772 -91 
Q 1169 -91 856 284 
Q 544 659 544 1381 
z
M 1991 3584 
L 1991 3584 
z
" transform="scale(0.015625)"/>
       <path id="DejaVuSans-73" d="M 2834 3397 
L 2834 2853 
Q 2591 2978 2328 3040 
Q 2066 3103 1784 3103 
Q 1356 3103 1142 2972 
Q 928 2841 928 2578 
Q 928 2378 1081 2264 
Q 1234 2150 1697 2047 
L 1894 2003 
Q 2506 1872 2764 1633 
Q 3022 1394 3022 966 
Q 3022 478 2636 193 
Q 2250 -91 1575 -91 
Q 1294 -91 989 -36 
Q 684 19 347 128 
L 347 722 
Q 666 556 975 473 
Q 1284 391 1588 391 
Q 1994 391 2212 530 
Q 2431 669 2431 922 
Q 2431 1156 2273 1281 
Q 2116 1406 1581 1522 
L 1381 1569 
Q 847 1681 609 1914 
Q 372 2147 372 2553 
Q 372 3047 722 3315 
Q 1072 3584 1716 3584 
Q 2034 3584 2315 3537 
Q 2597 3491 2834 3397 
z
" transform="scale(0.015625)"/>
      </defs>
      <use xlink:href="#DejaVuSans-5b"/>
      <use xlink:href="#DejaVuSans-63" transform="translate(39.013672 0)"/>
      <use xlink:href="#DejaVuSans-6f" transform="translate(93.994141 0)"/>
      <use xlink:href="#DejaVuSans-75" transform="translate(155.175781 0)"/>
      <use xlink:href="#DejaVuSans-6e" transform="translate(218.554688 0)"/>
      <use xlink:href="#DejaVuSans-74" transform="translate(281.933594 0)"/>
      <use xlink:href="#DejaVuSans-73" transform="translate(321.142578 0)"/>
      <use xlink:href="#DejaVuSans-5d" transform="translate(373.242188 0)"/>
     </g>
    </g>
   </g>
   <g id="line2d_16">
    <path d="M 68.546307 218.88 
L 69.560852 218.88 
L 69.560852 204.193406 
L 70.575398 204.193406 
L 70.575398 152.336102 
L 71.589943 152.336102 
L 71.589943 112.061525 
L 72.604489 112.061525 
L 72.604489 105.248156 
L 73.619034 105.248156 
L 73.619034 97.980563 
L 74.63358 97.980563 
L 74.63358 90.031633 
L 75.648125 90.031633 
L 75.648125 90.71297 
L 76.66267 90.71297 
L 76.66267 80.417214 
L 77.677216 80.417214 
L 77.677216 74.05807 
L 78.691761 74.05807 
L 78.691761 71.711243 
L 79.706307 71.711243 
L 79.706307 62.475344 
L 80.720852 62.475344 
L 80.720852 61.945415 
L 82.749943 61.945415 
L 82.749943 46.123259 
L 83.764489 46.123259 
L 83.764489 46.8803 
L 84.779034 46.8803 
L 84.779034 37.720105 
L 85.79358 37.720105 
L 85.79358 38.17433 
L 86.808125 38.17433 
L 86.808125 32.723635 
L 87.82267 32.723635 
L 87.82267 30.679624 
L 88.837216 30.679624 
L 88.837216 24.699001 
L 89.851761 24.699001 
L 89.851761 21.746541 
L 90.866307 21.746541 
L 90.866307 20.989501 
L 91.880852 20.989501 
L 91.880852 24.547593 
L 92.895398 24.547593 
L 92.895398 26.213083 
L 93.909943 26.213083 
L 93.909943 25.683154 
L 94.924489 25.683154 
L 94.924489 26.515899 
L 95.939034 26.515899 
L 95.939034 28.105685 
L 96.95358 28.105685 
L 96.95358 30.679624 
L 97.968125 30.679624 
L 97.968125 36.130319 
L 98.98267 36.130319 
L 98.98267 34.237717 
L 99.997216 34.237717 
L 99.997216 35.22187 
L 101.011761 35.22187 
L 101.011761 45.971851 
L 102.026307 45.971851 
L 102.026307 47.107413 
L 103.040852 47.107413 
L 103.040852 56.797537 
L 104.055398 56.797537 
L 104.055398 68.758783 
L 105.069943 68.758783 
L 105.069943 77.994683 
L 106.084489 77.994683 
L 106.084489 90.410154 
L 107.099034 90.410154 
L 107.099034 94.876695 
L 108.11358 94.876695 
L 108.11358 100.403094 
L 109.128125 100.403094 
L 109.128125 110.774555 
L 110.14267 110.774555 
L 110.14267 118.723485 
L 111.157216 118.723485 
L 111.157216 134.091416 
L 112.171761 134.091416 
L 112.171761 140.147743 
L 113.186307 140.147743 
L 113.186307 141.586121 
L 114.200852 141.586121 
L 114.200852 152.48751 
L 115.215398 152.48751 
L 115.215398 160.587848 
L 116.229943 160.587848 
L 116.229943 165.05439 
L 117.244489 165.05439 
L 117.244489 175.501555 
L 118.259034 175.501555 
L 118.259034 179.740984 
L 119.27358 179.740984 
L 119.27358 185.191679 
L 120.288125 185.191679 
L 120.288125 181.557882 
L 121.30267 181.557882 
L 121.30267 164.297349 
L 122.317216 164.297349 
L 122.317216 149.686459 
L 123.331761 149.686459 
L 123.331761 129.851986 
L 124.346307 129.851986 
L 124.346307 98.056267 
L 125.360852 98.056267 
L 125.360852 91.924236 
L 126.375398 91.924236 
L 126.375398 85.262276 
L 127.389943 85.262276 
L 127.389943 90.864379 
L 128.404489 90.864379 
L 128.404489 96.61789 
L 129.419034 96.61789 
L 129.419034 87.533398 
L 130.43358 87.533398 
L 130.43358 100.32739 
L 131.448125 100.32739 
L 131.448125 98.359084 
L 132.46267 98.359084 
L 132.46267 99.494645 
L 133.477216 99.494645 
L 133.477216 93.438318 
L 134.491761 93.438318 
L 134.491761 102.068584 
L 135.506307 102.068584 
L 135.506307 100.857319 
L 136.520852 100.857319 
L 136.520852 100.403094 
L 137.535398 100.403094 
L 137.535398 97.980563 
L 138.549943 97.980563 
L 138.549943 98.434788 
L 139.564489 98.434788 
L 139.564489 108.124912 
L 140.579034 108.124912 
L 140.579034 111.380188 
L 141.59358 111.380188 
L 141.59358 113.27279 
L 142.608125 113.27279 
L 142.608125 113.802719 
L 143.62267 113.802719 
L 143.62267 114.181239 
L 144.637216 114.181239 
L 144.637216 116.452362 
L 145.651761 116.452362 
L 145.651761 119.783342 
L 146.666307 119.783342 
L 146.666307 112.89427 
L 147.680852 112.89427 
L 147.680852 120.767495 
L 148.695398 120.767495 
L 148.695398 123.719955 
L 149.709943 123.719955 
L 149.709943 123.947067 
L 150.724489 123.947067 
L 150.724489 124.779812 
L 151.739034 124.779812 
L 151.739034 121.827353 
L 152.75358 121.827353 
L 152.75358 128.640721 
L 153.768125 128.640721 
L 153.768125 128.943537 
L 154.78267 128.943537 
L 154.78267 130.684732 
L 155.797216 130.684732 
L 155.797216 131.138956 
L 156.811761 131.138956 
L 156.811761 135.984018 
L 157.826307 135.984018 
L 157.826307 124.098475 
L 158.840852 124.098475 
L 158.840852 129.624874 
L 159.855398 129.624874 
L 159.855398 135.756906 
L 160.869943 135.756906 
L 160.869943 139.996335 
L 161.884489 139.996335 
L 161.884489 145.371326 
L 162.899034 145.371326 
L 162.899034 147.339632 
L 163.91358 147.339632 
L 163.91358 149.762163 
L 164.928125 149.762163 
L 164.928125 146.809703 
L 165.94267 146.809703 
L 165.94267 150.292092 
L 166.957216 150.292092 
L 166.957216 156.121307 
L 167.971761 156.121307 
L 167.971761 161.269185 
L 168.986307 161.269185 
L 168.986307 161.799114 
L 170.000852 161.799114 
L 170.000852 155.288562 
L 171.015398 155.288562 
L 171.015398 154.834337 
L 172.029943 154.834337 
L 172.029943 152.260398 
L 173.044489 152.260398 
L 173.044489 143.705836 
L 174.059034 143.705836 
L 174.059034 138.103733 
L 175.07358 138.103733 
L 175.07358 134.772753 
L 176.088125 134.772753 
L 176.088125 132.577334 
L 177.10267 132.577334 
L 177.10267 141.964641 
L 178.117216 141.964641 
L 178.117216 142.267458 
L 179.131761 142.267458 
L 179.131761 150.746316 
L 180.146307 150.746316 
L 180.146307 150.4435 
L 181.160852 150.4435 
L 181.160852 153.395959 
L 182.175398 153.395959 
L 182.175398 154.834337 
L 183.189943 154.834337 
L 183.189943 156.954052 
L 184.204489 156.954052 
L 184.204489 159.225175 
L 185.219034 159.225175 
L 185.219034 153.395959 
L 186.23358 153.395959 
L 186.23358 156.575531 
L 187.248125 156.575531 
L 187.248125 158.241021 
L 188.26267 158.241021 
L 188.26267 156.878348 
L 189.277216 156.878348 
L 189.277216 160.739256 
L 191.306307 160.739256 
L 191.306307 160.360736 
L 192.320852 160.360736 
L 192.320852 161.420593 
L 193.335398 161.420593 
L 193.335398 166.189951 
L 194.349943 166.189951 
L 194.349943 164.070237 
L 195.364489 164.070237 
L 195.364489 169.369523 
L 196.379034 169.369523 
L 196.379034 168.76389 
L 197.39358 168.76389 
L 197.39358 174.66881 
L 198.408125 174.66881 
L 198.408125 172.397687 
L 199.42267 172.397687 
L 199.42267 177.545565 
L 200.437216 177.545565 
L 200.437216 173.38184 
L 201.451761 173.38184 
L 201.451761 176.485708 
L 203.480852 176.410004 
L 203.480852 182.844852 
L 204.495398 182.844852 
L 204.495398 184.737454 
L 205.509943 184.737454 
L 205.509943 188.37125 
L 206.524489 188.37125 
L 206.524489 190.642373 
L 207.539034 190.642373 
L 207.539034 190.793781 
L 208.55358 190.793781 
L 208.55358 191.853639 
L 209.568125 191.853639 
L 209.568125 192.005047 
L 210.58267 192.005047 
L 210.58267 193.670537 
L 211.597216 193.670537 
L 211.597216 194.351874 
L 212.611761 194.351874 
L 212.611761 199.65116 
L 213.626307 199.65116 
L 213.626307 197.380038 
L 214.640852 197.380038 
L 214.640852 194.124762 
L 216.669943 194.049057 
L 216.669943 189.885332 
L 217.684489 189.885332 
L 217.684489 190.718077 
L 218.699034 190.718077 
L 218.699034 186.251536 
L 219.71358 186.251536 
L 219.71358 185.873015 
L 220.728125 185.873015 
L 220.728125 184.056117 
L 221.74267 184.056117 
L 221.74267 183.299076 
L 222.757216 183.299076 
L 222.757216 186.857169 
L 223.771761 186.857169 
L 223.771761 192.913496 
L 224.786307 192.913496 
L 224.786307 195.336027 
L 225.800852 195.336027 
L 225.800852 193.594833 
L 226.815398 193.594833 
L 226.815398 194.578986 
L 227.829943 194.578986 
L 227.829943 192.080751 
L 228.844489 192.080751 
L 228.844489 195.94166 
L 229.859034 195.94166 
L 229.859034 196.774405 
L 230.87358 196.774405 
L 230.87358 196.622997 
L 231.888125 196.622997 
L 231.888125 198.061374 
L 232.90267 198.061374 
L 232.90267 200.559609 
L 233.917216 200.559609 
L 233.917216 200.256793 
L 234.931761 200.256793 
L 234.931761 200.711018 
L 235.946307 200.711018 
L 235.946307 200.408201 
L 236.960852 200.408201 
L 236.960852 204.723335 
L 237.975398 204.723335 
L 237.975398 203.512069 
L 238.989943 203.512069 
L 238.989943 204.799039 
L 240.004489 204.799039 
L 240.004489 206.161712 
L 241.019034 206.161712 
L 241.019034 204.723335 
L 242.03358 204.723335 
L 242.03358 205.253263 
L 243.048125 205.253263 
L 243.048125 209.26558 
L 244.06267 209.26558 
L 244.06267 207.751498 
L 245.077216 207.751498 
L 245.077216 209.189876 
L 246.091761 209.189876 
L 246.091761 211.763815 
L 247.106307 211.763815 
L 247.106307 208.281427 
L 248.120852 208.281427 
L 248.120852 211.612407 
L 249.135398 211.612407 
L 249.135398 211.385295 
L 250.149943 211.385295 
L 250.149943 212.066632 
L 251.164489 212.066632 
L 251.164489 212.445152 
L 252.179034 212.445152 
L 252.179034 212.747968 
L 253.19358 212.747968 
L 253.19358 213.429305 
L 254.208125 213.429305 
L 254.208125 212.672264 
L 255.22267 212.672264 
L 255.22267 213.126489 
L 256.237216 213.126489 
L 256.237216 214.716275 
L 257.251761 214.716275 
L 257.251761 212.672264 
L 258.266307 212.672264 
L 258.266307 210.55255 
L 259.280852 210.55255 
L 259.280852 209.568397 
L 260.295398 209.568397 
L 260.295398 208.962764 
L 261.309943 208.962764 
L 261.309943 208.357131 
L 262.324489 208.357131 
L 262.324489 206.086008 
L 263.339034 206.086008 
L 263.339034 203.966294 
L 264.35358 203.966294 
L 264.35358 204.344814 
L 265.368125 204.344814 
L 265.368125 206.540233 
L 266.38267 206.540233 
L 266.38267 204.874743 
L 267.397216 204.874743 
L 267.397216 206.843049 
L 268.411761 206.843049 
L 268.411761 207.751498 
L 269.426307 207.751498 
L 269.426307 208.054315 
L 270.440852 208.054315 
L 270.440852 209.416988 
L 271.455398 209.416988 
L 271.455398 208.205723 
L 272.469943 208.205723 
L 272.469943 208.811356 
L 273.484489 208.811356 
L 273.484489 209.644101 
L 274.499034 209.644101 
L 274.499034 211.158183 
L 276.528125 211.158183 
L 276.528125 211.309591 
L 277.54267 211.309591 
L 277.54267 210.325437 
L 278.557216 210.325437 
L 278.557216 211.536703 
L 279.571761 211.536703 
L 279.571761 212.747968 
L 280.586307 212.747968 
L 280.586307 213.277897 
L 281.600852 213.277897 
L 281.600852 212.369448 
L 282.615398 212.369448 
L 282.615398 213.88353 
L 283.629943 213.88353 
L 283.629943 212.672264 
L 284.644489 212.672264 
L 284.644489 213.580713 
L 285.659034 213.580713 
L 285.659034 213.88353 
L 286.67358 213.88353 
L 286.67358 213.580713 
L 287.688125 213.580713 
L 287.688125 214.791979 
L 289.717216 214.716275 
L 289.717216 215.397612 
L 291.746307 215.473316 
L 291.746307 216.003244 
L 292.760852 216.003244 
L 292.760852 216.684581 
L 294.789943 216.760285 
L 294.789943 215.624724 
L 295.804489 215.624724 
L 295.804489 216.760285 
L 296.819034 216.760285 
L 296.819034 217.365918 
L 297.83358 217.365918 
L 297.83358 216.760285 
L 298.848125 216.760285 
L 298.848125 215.624724 
L 299.86267 215.624724 
L 299.86267 214.640571 
L 300.877216 214.640571 
L 300.877216 214.413459 
L 301.891761 214.413459 
L 301.891761 213.126489 
L 302.906307 213.126489 
L 302.906307 212.520856 
L 303.920852 212.520856 
L 303.920852 209.644101 
L 304.935398 209.644101 
L 304.935398 209.038468 
L 305.949943 209.038468 
L 305.949943 208.281427 
L 306.964489 208.281427 
L 306.964489 208.130019 
L 307.979034 208.130019 
L 307.979034 202.755028 
L 308.99358 202.755028 
L 308.99358 203.284957 
L 310.008125 203.284957 
L 310.008125 201.619467 
L 311.02267 201.619467 
L 311.02267 203.209253 
L 312.037216 203.209253 
L 312.037216 203.739181 
L 313.051761 203.739181 
L 313.051761 205.253263 
L 314.066307 205.253263 
L 314.066307 203.284957 
L 315.080852 203.284957 
L 315.080852 203.587773 
L 316.095398 203.587773 
L 316.095398 205.253263 
L 317.109943 205.253263 
L 317.109943 202.755028 
L 318.124489 202.755028 
L 318.124489 204.26911 
L 319.139034 204.26911 
L 319.139034 206.540233 
L 320.15358 206.540233 
L 320.15358 203.436365 
L 321.168125 203.436365 
L 321.168125 205.328967 
L 322.18267 205.328967 
L 322.18267 206.313121 
L 323.197216 206.313121 
L 323.197216 204.64763 
L 324.211761 204.64763 
L 324.211761 206.767345 
L 326.240852 206.843049 
L 326.240852 205.404671 
L 327.255398 205.404671 
L 327.255398 206.010304 
L 328.269943 206.010304 
L 328.269943 206.691641 
L 329.284489 206.691641 
L 329.284489 208.130019 
L 330.299034 208.130019 
L 330.299034 207.524386 
L 331.31358 207.524386 
L 331.31358 208.432835 
L 332.328125 208.432835 
L 332.328125 208.659947 
L 333.34267 208.659947 
L 333.34267 209.416988 
L 335.371761 209.341284 
L 335.371761 209.568397 
L 336.386307 209.568397 
L 336.386307 209.946917 
L 337.400852 209.946917 
L 337.400852 207.978611 
L 338.415398 207.978611 
L 338.415398 210.401142 
L 339.429943 210.401142 
L 339.429943 211.839519 
L 340.444489 211.839519 
L 340.444489 211.612407 
L 341.459034 211.612407 
L 341.459034 212.21804 
L 342.47358 212.21804 
L 342.47358 212.823673 
L 343.488125 212.823673 
L 343.488125 211.612407 
L 344.50267 211.612407 
L 344.50267 212.21804 
L 345.517216 212.21804 
L 345.517216 214.26205 
L 346.531761 214.26205 
L 346.531761 213.505009 
L 347.546307 213.505009 
L 347.546307 215.397612 
L 348.560852 215.397612 
L 348.560852 216.154653 
L 349.575398 216.154653 
L 349.575398 217.21451 
L 350.589943 217.21451 
L 350.589943 217.441622 
L 351.604489 217.441622 
L 351.604489 218.577184 
L 352.619034 218.577184 
L 352.619034 218.88 
L 372.909943 218.88 
L 372.909943 218.88 
" clip-path="url(#pef9032285a)" style="fill: none; stroke: #1f77b4; stroke-width: 1.5; stroke-linecap: square"/>
   </g>
   <g id="line2d_17">
    <path d="M 68.546307 212.21804 
L 69.560852 212.21804 
L 69.560852 185.191679 
L 70.575398 185.191679 
L 70.575398 156.954052 
L 71.589943 156.954052 
L 71.589943 131.441772 
L 72.604489 131.441772 
L 72.604489 104.94534 
L 73.619034 104.94534 
L 73.619034 98.586196 
L 74.63358 98.586196 
L 74.63358 92.605573 
L 75.648125 92.605573 
L 75.648125 86.624949 
L 76.66267 86.624949 
L 76.66267 80.871438 
L 77.677216 80.871438 
L 77.677216 76.253489 
L 78.691761 76.253489 
L 78.691761 69.213008 
L 79.706307 69.213008 
L 79.706307 66.714773 
L 80.720852 66.714773 
L 80.720852 61.036966 
L 81.735398 61.036966 
L 81.735398 59.144363 
L 82.749943 59.144363 
L 82.749943 46.198964 
L 83.764489 46.198964 
L 83.764489 47.864454 
L 84.779034 47.864454 
L 84.779034 39.537003 
L 85.79358 39.537003 
L 85.79358 38.628554 
L 86.808125 38.628554 
L 86.808125 36.660248 
L 87.82267 36.660248 
L 87.82267 21.89795 
L 88.837216 21.89795 
L 88.837216 29.392655 
L 89.851761 29.392655 
L 89.851761 17.28 
L 90.866307 17.28 
L 90.866307 18.415561 
L 91.880852 18.415561 
L 91.880852 30.982441 
L 92.895398 30.982441 
L 92.895398 20.838092 
L 93.909943 20.838092 
L 93.909943 31.966594 
L 94.924489 31.966594 
L 94.924489 27.424348 
L 95.939034 27.424348 
L 95.939034 26.288787 
L 96.95358 26.288787 
L 96.95358 28.105685 
L 97.968125 28.105685 
L 97.968125 34.464829 
L 98.98267 34.464829 
L 98.98267 39.915524 
L 99.997216 39.915524 
L 99.997216 37.114472 
L 101.011761 37.114472 
L 101.011761 39.612707 
L 102.026307 39.612707 
L 102.026307 49.45424 
L 103.040852 49.45424 
L 103.040852 64.216538 
L 104.055398 64.216538 
L 104.055398 68.001742 
L 105.069943 68.001742 
L 105.069943 79.130244 
L 106.084489 79.130244 
L 106.084489 86.624949 
L 107.099034 86.624949 
L 107.099034 100.705911 
L 108.11358 100.705911 
L 108.11358 96.542186 
L 109.128125 96.542186 
L 109.128125 108.200616 
L 110.14267 108.200616 
L 110.14267 123.190026 
L 111.157216 123.190026 
L 111.157216 131.593181 
L 112.171761 131.593181 
L 112.171761 138.103733 
L 113.186307 138.103733 
L 113.186307 143.932948 
L 114.200852 143.932948 
L 114.200852 149.762163 
L 115.215398 149.762163 
L 115.215398 160.285032 
L 116.229943 160.285032 
L 116.229943 165.735727 
L 117.244489 165.735727 
L 117.244489 173.987473 
L 118.259034 173.987473 
L 118.259034 180.498025 
L 119.27358 180.498025 
L 119.27358 180.270913 
L 120.288125 180.270913 
L 120.288125 174.895922 
L 121.30267 174.895922 
L 121.30267 157.029756 
L 122.317216 157.029756 
L 122.317216 146.582591 
L 123.331761 146.582591 
L 123.331761 127.202343 
L 124.346307 127.202343 
L 124.346307 115.619617 
L 125.360852 115.619617 
L 125.360852 101.235839 
L 126.375398 101.235839 
L 126.375398 81.704183 
L 127.389943 81.704183 
L 127.389943 88.063327 
L 128.404489 88.063327 
L 128.404489 89.577409 
L 129.419034 89.577409 
L 129.419034 99.570349 
L 130.43358 99.570349 
L 130.43358 97.147818 
L 131.448125 97.147818 
L 131.448125 95.482328 
L 132.46267 95.482328 
L 132.46267 97.677747 
L 133.477216 97.677747 
L 133.477216 97.450635 
L 134.491761 97.450635 
L 134.491761 98.359084 
L 135.506307 98.359084 
L 135.506307 100.781615 
L 136.520852 100.781615 
L 136.520852 103.052738 
L 137.535398 103.052738 
L 137.535398 103.506962 
L 138.549943 103.506962 
L 138.549943 97.829155 
L 139.564489 97.829155 
L 139.564489 102.825625 
L 140.579034 102.825625 
L 140.579034 106.913646 
L 141.59358 106.913646 
L 141.59358 112.89427 
L 142.608125 112.89427 
L 142.608125 113.197086 
L 143.62267 113.197086 
L 143.62267 111.758708 
L 144.637216 111.758708 
L 144.637216 117.89074 
L 145.651761 117.89074 
L 145.651761 120.161863 
L 146.666307 120.161863 
L 146.666307 115.316801 
L 147.680852 115.316801 
L 147.680852 119.026301 
L 148.695398 119.026301 
L 148.695398 124.098475 
L 149.709943 124.098475 
L 149.709943 128.262201 
L 150.724489 128.262201 
L 150.724489 122.130169 
L 151.739034 122.130169 
L 151.739034 123.644251 
L 152.75358 123.644251 
L 152.75358 129.322058 
L 153.768125 129.322058 
L 153.768125 134.015712 
L 154.78267 134.015712 
L 154.78267 132.728742 
L 155.797216 132.728742 
L 155.797216 130.83614 
L 156.811761 130.83614 
L 156.811761 134.54564 
L 157.826307 134.54564 
L 157.826307 130.230507 
L 158.840852 130.230507 
L 158.840852 138.103733 
L 159.855398 138.103733 
L 159.855398 135.454089 
L 160.869943 135.454089 
L 160.869943 141.661825 
L 161.884489 141.661825 
L 161.884489 142.11605 
L 163.91358 142.040345 
L 163.91358 144.841397 
L 164.928125 144.841397 
L 164.928125 143.327315 
L 165.94267 143.327315 
L 165.94267 151.351949 
L 166.957216 151.351949 
L 166.957216 159.527991 
L 167.971761 159.527991 
L 167.971761 157.10546 
L 168.986307 157.10546 
L 168.986307 161.193481 
L 170.000852 161.193481 
L 170.000852 155.969899 
L 171.015398 155.969899 
L 171.015398 153.925888 
L 172.029943 153.925888 
L 172.029943 146.961112 
L 173.044489 146.961112 
L 173.044489 140.601968 
L 174.059034 140.601968 
L 174.059034 138.785069 
L 175.07358 138.785069 
L 175.07358 137.573804 
L 176.088125 137.573804 
L 176.088125 139.314998 
L 177.10267 139.314998 
L 177.10267 138.557957 
L 178.117216 138.557957 
L 178.117216 143.78154 
L 179.131761 143.78154 
L 179.131761 145.598438 
L 180.146307 145.598438 
L 180.146307 154.910041 
L 181.160852 154.910041 
L 181.160852 153.471664 
L 182.175398 153.471664 
L 182.175398 155.288562 
L 183.189943 155.288562 
L 183.189943 157.10546 
L 184.204489 157.10546 
L 184.204489 152.941735 
L 185.219034 152.941735 
L 185.219034 155.591378 
L 186.23358 155.591378 
L 186.23358 156.272715 
L 187.248125 156.272715 
L 187.248125 160.209328 
L 188.26267 160.209328 
L 188.26267 156.348419 
L 189.277216 156.348419 
L 189.277216 160.587848 
L 190.291761 160.587848 
L 190.291761 157.48398 
L 191.306307 157.48398 
L 191.306307 159.982216 
L 192.320852 159.982216 
L 192.320852 163.237492 
L 193.335398 163.237492 
L 193.335398 166.871288 
L 195.364489 166.871288 
L 195.364489 168.082554 
L 196.379034 168.082554 
L 196.379034 173.987473 
L 197.39358 173.987473 
L 197.39358 176.788524 
L 198.408125 176.788524 
L 198.408125 177.394157 
L 199.42267 177.394157 
L 199.42267 174.214585 
L 200.437216 174.214585 
L 200.437216 177.015637 
L 201.451761 177.015637 
L 201.451761 177.394157 
L 202.466307 177.394157 
L 202.466307 179.892392 
L 203.480852 179.892392 
L 203.480852 181.255066 
L 204.495398 181.255066 
L 204.495398 183.37478 
L 205.509943 183.37478 
L 205.509943 187.462801 
L 206.524489 187.462801 
L 206.524489 187.311393 
L 207.539034 187.311393 
L 207.539034 186.175832 
L 208.55358 186.175832 
L 208.55358 189.961036 
L 209.568125 189.961036 
L 209.568125 193.292017 
L 210.58267 193.292017 
L 210.58267 193.519129 
L 211.597216 193.519129 
L 211.597216 194.27617 
L 212.611761 194.27617 
L 212.611761 195.865956 
L 213.626307 195.865956 
L 213.626307 197.152925 
L 214.640852 197.152925 
L 214.640852 194.578986 
L 215.655398 194.578986 
L 215.655398 191.399414 
L 216.669943 191.399414 
L 216.669943 188.37125 
L 217.684489 188.37125 
L 217.684489 187.235689 
L 218.699034 187.235689 
L 218.699034 186.32724 
L 220.728125 186.32724 
L 220.728125 189.733924 
L 221.74267 189.733924 
L 221.74267 185.494495 
L 222.757216 185.494495 
L 222.757216 184.813158 
L 223.771761 184.813158 
L 223.771761 190.718077 
L 224.786307 190.718077 
L 224.786307 191.702231 
L 225.800852 191.702231 
L 225.800852 192.156455 
L 226.815398 192.156455 
L 226.815398 196.395884 
L 227.829943 196.395884 
L 227.829943 192.762088 
L 228.844489 192.762088 
L 228.844489 194.730394 
L 229.859034 194.730394 
L 229.859034 195.336027 
L 230.87358 195.336027 
L 230.87358 197.228629 
L 231.888125 197.228629 
L 231.888125 199.196936 
L 232.90267 199.196936 
L 232.90267 199.348344 
L 233.917216 199.348344 
L 233.917216 201.31665 
L 234.931761 201.31665 
L 234.931761 200.93813 
L 235.946307 200.93813 
L 235.946307 203.966294 
L 236.960852 203.966294 
L 236.960852 203.663477 
L 237.975398 203.663477 
L 237.975398 204.571926 
L 238.989943 204.571926 
L 238.989943 204.874743 
L 241.019034 204.799039 
L 241.019034 207.372978 
L 242.03358 207.372978 
L 242.03358 206.540233 
L 243.048125 206.540233 
L 243.048125 208.357131 
L 244.06267 208.357131 
L 244.06267 209.114172 
L 245.077216 209.114172 
L 245.077216 208.962764 
L 246.091761 208.962764 
L 246.091761 208.281427 
L 247.106307 208.281427 
L 247.106307 209.341284 
L 248.120852 209.341284 
L 248.120852 210.325437 
L 250.149943 210.249733 
L 250.149943 212.21804 
L 251.164489 212.21804 
L 251.164489 212.445152 
L 252.179034 212.445152 
L 252.179034 213.050785 
L 253.19358 213.050785 
L 253.19358 213.277897 
L 254.208125 213.277897 
L 254.208125 212.823673 
L 255.22267 212.823673 
L 255.22267 213.959234 
L 256.237216 213.959234 
L 256.237216 211.990928 
L 257.251761 211.990928 
L 257.251761 210.779662 
L 258.266307 210.779662 
L 258.266307 210.325437 
L 259.280852 210.325437 
L 259.280852 209.341284 
L 260.295398 209.341284 
L 260.295398 208.88706 
L 261.309943 208.88706 
L 261.309943 206.086008 
L 262.324489 206.086008 
L 262.324489 208.357131 
L 263.339034 208.357131 
L 263.339034 205.9346 
L 264.35358 205.9346 
L 264.35358 203.663477 
L 265.368125 203.663477 
L 265.368125 206.464529 
L 266.38267 206.464529 
L 266.38267 206.161712 
L 267.397216 206.161712 
L 267.397216 206.464529 
L 268.411761 206.464529 
L 268.411761 207.827202 
L 269.426307 207.827202 
L 269.426307 208.432835 
L 270.440852 208.432835 
L 270.440852 208.962764 
L 271.455398 208.962764 
L 271.455398 209.114172 
L 272.469943 209.114172 
L 272.469943 208.130019 
L 273.484489 208.130019 
L 273.484489 210.022621 
L 274.499034 210.022621 
L 274.499034 210.174029 
L 275.51358 210.174029 
L 275.51358 212.066632 
L 276.528125 212.066632 
L 276.528125 210.022621 
L 277.54267 210.022621 
L 277.54267 211.990928 
L 278.557216 211.990928 
L 278.557216 210.325437 
L 279.571761 210.325437 
L 279.571761 213.126489 
L 280.586307 213.126489 
L 280.586307 211.990928 
L 281.600852 211.990928 
L 281.600852 213.353601 
L 282.615398 213.353601 
L 282.615398 212.066632 
L 283.629943 212.066632 
L 283.629943 213.959234 
L 284.644489 213.959234 
L 284.644489 213.505009 
L 285.659034 213.505009 
L 285.659034 214.110642 
L 286.67358 214.110642 
L 286.67358 214.867683 
L 287.688125 214.867683 
L 287.688125 214.26205 
L 288.70267 214.26205 
L 288.70267 213.88353 
L 289.717216 213.88353 
L 289.717216 215.473316 
L 290.731761 215.473316 
L 290.731761 215.851836 
L 291.746307 215.851836 
L 291.746307 215.246204 
L 292.760852 215.246204 
L 292.760852 217.138806 
L 293.775398 217.138806 
L 293.775398 216.230357 
L 294.789943 216.230357 
L 294.789943 216.078949 
L 295.804489 216.078949 
L 295.804489 216.381765 
L 298.848125 216.306061 
L 298.848125 215.321908 
L 299.86267 215.321908 
L 299.86267 214.564867 
L 300.877216 214.564867 
L 300.877216 213.429305 
L 301.891761 213.429305 
L 301.891761 211.385295 
L 302.906307 211.385295 
L 302.906307 211.158183 
L 303.920852 211.158183 
L 303.920852 211.612407 
L 304.935398 211.612407 
L 304.935398 207.902906 
L 305.949943 207.902906 
L 305.949943 208.88706 
L 306.964489 208.88706 
L 306.964489 206.161712 
L 307.979034 206.161712 
L 307.979034 205.858896 
L 310.008125 205.9346 
L 310.008125 204.496222 
L 311.02267 204.496222 
L 311.02267 204.26911 
L 312.037216 204.26911 
L 312.037216 203.133549 
L 313.051761 203.133549 
L 313.051761 204.117702 
L 314.066307 204.117702 
L 314.066307 203.133549 
L 315.080852 203.133549 
L 315.080852 203.966294 
L 316.095398 203.966294 
L 316.095398 204.799039 
L 317.109943 204.799039 
L 317.109943 203.663477 
L 319.139034 203.739181 
L 319.139034 204.799039 
L 320.15358 204.799039 
L 320.15358 205.480376 
L 321.168125 205.480376 
L 321.168125 203.89059 
L 322.18267 203.89059 
L 322.18267 206.237416 
L 323.197216 206.237416 
L 323.197216 206.767345 
L 324.211761 206.767345 
L 324.211761 206.237416 
L 325.226307 206.237416 
L 325.226307 205.253263 
L 326.240852 205.253263 
L 326.240852 206.010304 
L 327.255398 206.010304 
L 327.255398 206.464529 
L 328.269943 206.464529 
L 328.269943 207.751498 
L 329.284489 207.751498 
L 329.284489 207.372978 
L 330.299034 207.372978 
L 330.299034 207.22157 
L 331.31358 207.22157 
L 331.31358 208.357131 
L 332.328125 208.357131 
L 332.328125 208.508539 
L 333.34267 208.508539 
L 333.34267 209.719805 
L 334.357216 209.719805 
L 334.357216 210.628254 
L 335.371761 210.628254 
L 335.371761 208.811356 
L 336.386307 208.811356 
L 336.386307 210.098325 
L 338.415398 210.174029 
L 338.415398 208.432835 
L 339.429943 208.432835 
L 339.429943 211.763815 
L 340.444489 211.763815 
L 340.444489 211.309591 
L 342.47358 211.309591 
L 342.47358 211.839519 
L 343.488125 211.839519 
L 343.488125 211.385295 
L 344.50267 211.385295 
L 344.50267 213.505009 
L 345.517216 213.505009 
L 345.517216 212.975081 
L 346.531761 212.975081 
L 346.531761 213.959234 
L 347.546307 213.959234 
L 347.546307 215.397612 
L 348.560852 215.397612 
L 348.560852 216.230357 
L 349.575398 216.230357 
L 349.575398 216.760285 
L 350.589943 216.760285 
L 350.589943 217.365918 
L 351.604489 217.365918 
L 351.604489 218.047255 
L 352.619034 218.047255 
L 352.619034 218.425775 
L 353.63358 218.425775 
L 353.63358 218.804296 
L 372.909943 218.88 
L 372.909943 218.88 
" clip-path="url(#pef9032285a)" style="fill: none; stroke: #ff7f0e; stroke-width: 1.5; stroke-linecap: square"/>
   </g>
   <g id="patch_3">
    <path d="M 53.328125 228.96 
L 53.328125 7.2 
" style="fill: none; stroke: #000000; stroke-width: 0.8; stroke-linejoin: miter; stroke-linecap: square"/>
   </g>
   <g id="patch_4">
    <path d="M 388.128125 228.96 
L 388.128125 7.2 
" style="fill: none; stroke: #000000; stroke-width: 0.8; stroke-linejoin: miter; stroke-linecap: square"/>
   </g>
   <g id="patch_5">
    <path d="M 53.328125 228.96 
L 388.128125 228.96 
" style="fill: none; stroke: #000000; stroke-width: 0.8; stroke-linejoin: miter; stroke-linecap: square"/>
   </g>
   <g id="patch_6">
    <path d="M 53.328125 7.2 
L 388.128125 7.2 
" style="fill: none; stroke: #000000; stroke-width: 0.8; stroke-linejoin: miter; stroke-linecap: square"/>
   </g>
   <g id="legend_1">
    <g id="patch_7">
     <path d="M 284.125 44.834375 
L 381.128125 44.834375 
Q 383.128125 44.834375 383.128125 42.834375 
L 383.128125 14.2 
Q 383.128125 12.2 381.128125 12.2 
L 284.125 12.2 
Q 282.125 12.2 282.125 14.2 
L 282.125 42.834375 
Q 282.125 44.834375 284.125 44.834375 
z
" style="fill: #ffffff; opacity: 0.8; stroke: #cccccc; stroke-linejoin: miter"/>
    </g>
    <g id="line2d_18">
     <path d="M 286.125 20.298437 
L 286.125 20.298437 
L 296.125 20.298437 
L 296.125 20.298437 
L 306.125 20.298437 
" style="fill: none; stroke: #1f77b4; stroke-width: 1.5; stroke-linecap: square"/>
    </g>
    <g id="text_18">
     <!-- wfm -->
     <g transform="translate(314.125 23.798437) scale(0.1 -0.1)">
      <defs>
       <path id="DejaVuSans-66" d="M 2375 4863 
L 2375 4384 
L 1825 4384 
Q 1516 4384 1395 4259 
Q 1275 4134 1275 3809 
L 1275 3500 
L 2222 3500 
L 2222 3053 
L 1275 3053 
L 1275 0 
L 697 0 
L 697 3053 
L 147 3053 
L 147 3500 
L 697 3500 
L 697 3744 
Q 697 4328 969 4595 
Q 1241 4863 1831 4863 
L 2375 4863 
z
" transform="scale(0.015625)"/>
       <path id="DejaVuSans-6d" d="M 3328 2828 
Q 3544 3216 3844 3400 
Q 4144 3584 4550 3584 
Q 5097 3584 5394 3201 
Q 5691 2819 5691 2113 
L 5691 0 
L 5113 0 
L 5113 2094 
Q 5113 2597 4934 2840 
Q 4756 3084 4391 3084 
Q 3944 3084 3684 2787 
Q 3425 2491 3425 1978 
L 3425 0 
L 2847 0 
L 2847 2094 
Q 2847 2600 2669 2842 
Q 2491 3084 2119 3084 
Q 1678 3084 1418 2786 
Q 1159 2488 1159 1978 
L 1159 0 
L 581 0 
L 581 3500 
L 1159 3500 
L 1159 2956 
Q 1356 3278 1631 3431 
Q 1906 3584 2284 3584 
Q 2666 3584 2933 3390 
Q 3200 3197 3328 2828 
z
" transform="scale(0.015625)"/>
      </defs>
      <use xlink:href="#DejaVuSans-77"/>
      <use xlink:href="#DejaVuSans-66" transform="translate(81.787109 0)"/>
      <use xlink:href="#DejaVuSans-6d" transform="translate(116.992188 0)"/>
     </g>
    </g>
    <g id="line2d_19">
     <path d="M 286.125 34.976562 
L 286.125 34.976562 
L 296.125 34.976562 
L 296.125 34.976562 
L 306.125 34.976562 
" style="fill: none; stroke: #ff7f0e; stroke-width: 1.5; stroke-linecap: square"/>
    </g>
    <g id="text_19">
     <!-- ground_truth -->
     <g transform="translate(314.125 38.476562) scale(0.1 -0.1)">
      <defs>
       <path id="DejaVuSans-72" d="M 2631 2963 
Q 2534 3019 2420 3045 
Q 2306 3072 2169 3072 
Q 1681 3072 1420 2755 
Q 1159 2438 1159 1844 
L 1159 0 
L 581 0 
L 581 3500 
L 1159 3500 
L 1159 2956 
Q 1341 3275 1631 3429 
Q 1922 3584 2338 3584 
Q 2397 3584 2469 3576 
Q 2541 3569 2628 3553 
L 2631 2963 
z
" transform="scale(0.015625)"/>
       <path id="DejaVuSans-64" d="M 2906 2969 
L 2906 4863 
L 3481 4863 
L 3481 0 
L 2906 0 
L 2906 525 
Q 2725 213 2448 61 
Q 2172 -91 1784 -91 
Q 1150 -91 751 415 
Q 353 922 353 1747 
Q 353 2572 751 3078 
Q 1150 3584 1784 3584 
Q 2172 3584 2448 3432 
Q 2725 3281 2906 2969 
z
M 947 1747 
Q 947 1113 1208 752 
Q 1469 391 1925 391 
Q 2381 391 2643 752 
Q 2906 1113 2906 1747 
Q 2906 2381 2643 2742 
Q 2381 3103 1925 3103 
Q 1469 3103 1208 2742 
Q 947 2381 947 1747 
z
" transform="scale(0.015625)"/>
       <path id="DejaVuSans-5f" d="M 3263 -1063 
L 3263 -1509 
L -63 -1509 
L -63 -1063 
L 3263 -1063 
z
" transform="scale(0.015625)"/>
      </defs>
      <use xlink:href="#DejaVuSans-67"/>
      <use xlink:href="#DejaVuSans-72" transform="translate(63.476562 0)"/>
      <use xlink:href="#DejaVuSans-6f" transform="translate(102.339844 0)"/>
      <use xlink:href="#DejaVuSans-75" transform="translate(163.521484 0)"/>
      <use xlink:href="#DejaVuSans-6e" transform="translate(226.900391 0)"/>
      <use xlink:href="#DejaVuSans-64" transform="translate(290.279297 0)"/>
      <use xlink:href="#DejaVuSans-5f" transform="translate(353.755859 0)"/>
      <use xlink:href="#DejaVuSans-74" transform="translate(403.755859 0)"/>
      <use xlink:href="#DejaVuSans-72" transform="translate(442.964844 0)"/>
      <use xlink:href="#DejaVuSans-75" transform="translate(484.078125 0)"/>
      <use xlink:href="#DejaVuSans-74" transform="translate(547.457031 0)"/>
      <use xlink:href="#DejaVuSans-68" transform="translate(586.666016 0)"/>
     </g>
    </g>
   </g>
  </g>
 </g>
 <defs>
  <clipPath id="pef9032285a">
   <rect x="53.328125" y="7.2" width="334.8" height="221.76"/>
  </clipPath>
 </defs>
</svg>
