<?xml version="1.0" encoding="utf-8" standalone="no"?>
<!DOCTYPE svg PUBLIC "-//W3C//DTD SVG 1.1//EN"
  "http://www.w3.org/Graphics/SVG/1.1/DTD/svg11.dtd">
<svg xmlns:xlink="http://www.w3.org/1999/xlink" width="872.39952pt" height="296.39952pt" viewBox="0 0 872.39952 296.39952" xmlns="http://www.w3.org/2000/svg" version="1.1">
 <metadata>
  <rdf:RDF xmlns:dc="http://purl.org/dc/elements/1.1/" xmlns:cc="http://creativecommons.org/ns#" xmlns:rdf="http://www.w3.org/1999/02/22-rdf-syntax-ns#">
   <cc:Work>
    <dc:type rdf:resource="http://purl.org/dc/dcmitype/StillImage"/>
    <dc:date>2025-11-27T11:57:43.939847</dc:date>
    <dc:format>image/svg+xml</dc:format>
    <dc:creator>
     <cc:Agent>
      <dc:title>Matplotlib v3.10.7, https://matplotlib.org/</dc:title>
     </cc:Agent>
    </dc:creator>
   </cc:Work>
  </rdf:RDF>
 </metadata>
 <defs>
  <style type="text/css">*{stroke-linejoin: round; stroke-linecap: butt}</style>
 </defs>
 <g id="figure_1">
  <g id="patch_1">
   <path d="M 0 296.39952 
L 872.39952 296.39952 
L 872.39952 0 
L 0 0 
z
" style="fill: #ffffff"/>
  </g>
  <g id="axes_1">
   <g id="patch_2">
    <path d="M 46.965625 257.158895 
L 414.59976 257.158895 
L 414.59976 22.318125 
L 46.965625 22.318125 
z
" style="fill: #ffffff"/>
   </g>
   <g id="matplotlib.axis_1">
    <g id="xtick_1">
     <g id="line2d_1">
      <defs>
       <path id="mc4c13b431f" d="M 0 0 
L 0 3.5 
" style="stroke: #000000; stroke-width: 0.8"/>
      </defs>
      <g>
       <use xlink:href="#mc4c13b431f" x="81.266418" y="257.158895" style="stroke: #000000; stroke-width: 0.8"/>
      </g>
     </g>
     <g id="text_1">
      <!-- 1.0 -->
      <g transform="translate(73.314855 271.757332) scale(0.1 -0.1)">
       <defs>
        <path id="DejaVuSans-31" d="M 794 531 
L 1825 531 
L 1825 4091 
L 703 3866 
L 703 4441 
L 1819 4666 
L 2450 4666 
L 2450 531 
L 3481 531 
L 3481 0 
L 794 0 
L 794 531 
z
" transform="scale(0.015625)"/>
        <path id="DejaVuSans-2e" d="M 684 794 
L 1344 794 
L 1344 0 
L 684 0 
L 684 794 
z
" transform="scale(0.015625)"/>
        <path id="DejaVuSans-30" d="M 2034 4250 
Q 1547 4250 1301 3770 
Q 1056 3291 1056 2328 
Q 1056 1369 1301 889 
Q 1547 409 2034 409 
Q 2525 409 2770 889 
Q 3016 1369 3016 2328 
Q 3016 3291 2770 3770 
Q 2525 4250 2034 4250 
z
M 2034 4750 
Q 2819 4750 3233 4129 
Q 3647 3509 3647 2328 
Q 3647 1150 3233 529 
Q 2819 -91 2034 -91 
Q 1250 -91 836 529 
Q 422 1150 422 2328 
Q 422 3509 836 4129 
Q 1250 4750 2034 4750 
z
" transform="scale(0.015625)"/>
       </defs>
       <use xlink:href="#DejaVuSans-31"/>
       <use xlink:href="#DejaVuSans-2e" transform="translate(63.623047 0)"/>
       <use xlink:href="#DejaVuSans-30" transform="translate(95.410156 0)"/>
      </g>
     </g>
    </g>
    <g id="xtick_2">
     <g id="line2d_2">
      <g>
       <use xlink:href="#mc4c13b431f" x="125.241793" y="257.158895" style="stroke: #000000; stroke-width: 0.8"/>
      </g>
     </g>
     <g id="text_2">
      <!-- 1.5 -->
      <g transform="translate(117.29023 271.757332) scale(0.1 -0.1)">
       <defs>
        <path id="DejaVuSans-35" d="M 691 4666 
L 3169 4666 
L 3169 4134 
L 1269 4134 
L 1269 2991 
Q 1406 3038 1543 3061 
Q 1681 3084 1819 3084 
Q 2600 3084 3056 2656 
Q 3513 2228 3513 1497 
Q 3513 744 3044 326 
Q 2575 -91 1722 -91 
Q 1428 -91 1123 -41 
Q 819 9 494 109 
L 494 744 
Q 775 591 1075 516 
Q 1375 441 1709 441 
Q 2250 441 2565 725 
Q 2881 1009 2881 1497 
Q 2881 1984 2565 2268 
Q 2250 2553 1709 2553 
Q 1456 2553 1204 2497 
Q 953 2441 691 2322 
L 691 4666 
z
" transform="scale(0.015625)"/>
       </defs>
       <use xlink:href="#DejaVuSans-31"/>
       <use xlink:href="#DejaVuSans-2e" transform="translate(63.623047 0)"/>
       <use xlink:href="#DejaVuSans-35" transform="translate(95.410156 0)"/>
      </g>
     </g>
    </g>
    <g id="xtick_3">
     <g id="line2d_3">
      <g>
       <use xlink:href="#mc4c13b431f" x="169.217168" y="257.158895" style="stroke: #000000; stroke-width: 0.8"/>
      </g>
     </g>
     <g id="text_3">
      <!-- 2.0 -->
      <g transform="translate(161.265605 271.757332) scale(0.1 -0.1)">
       <defs>
        <path id="DejaVuSans-32" d="M 1228 531 
L 3431 531 
L 3431 0 
L 469 0 
L 469 531 
Q 828 903 1448 1529 
Q 2069 2156 2228 2338 
Q 2531 2678 2651 2914 
Q 2772 3150 2772 3378 
Q 2772 3750 2511 3984 
Q 2250 4219 1831 4219 
Q 1534 4219 1204 4116 
Q 875 4013 500 3803 
L 500 4441 
Q 881 4594 1212 4672 
Q 1544 4750 1819 4750 
Q 2544 4750 2975 4387 
Q 3406 4025 3406 3419 
Q 3406 3131 3298 2873 
Q 3191 2616 2906 2266 
Q 2828 2175 2409 1742 
Q 1991 1309 1228 531 
z
" transform="scale(0.015625)"/>
       </defs>
       <use xlink:href="#DejaVuSans-32"/>
       <use xlink:href="#DejaVuSans-2e" transform="translate(63.623047 0)"/>
       <use xlink:href="#DejaVuSans-30" transform="translate(95.410156 0)"/>
      </g>
     </g>
    </g>
    <g id="xtick_4">
     <g id="line2d_4">
      <g>
       <use xlink:href="#mc4c13b431f" x="213.192543" y="257.158895" style="stroke: #000000; stroke-width: 0.8"/>
      </g>
     </g>
     <g id="text_4">
      <!-- 2.5 -->
      <g transform="translate(205.24098 271.757332) scale(0.1 -0.1)">
       <use xlink:href="#DejaVuSans-32"/>
       <use xlink:href="#DejaVuSans-2e" transform="translate(63.623047 0)"/>
       <use xlink:href="#DejaVuSans-35" transform="translate(95.410156 0)"/>
      </g>
     </g>
    </g>
    <g id="xtick_5">
     <g id="line2d_5">
      <g>
       <use xlink:href="#mc4c13b431f" x="257.167918" y="257.158895" style="stroke: #000000; stroke-width: 0.8"/>
      </g>
     </g>
     <g id="text_5">
      <!-- 3.0 -->
      <g transform="translate(249.216355 271.757332) scale(0.1 -0.1)">
       <defs>
        <path id="DejaVuSans-33" d="M 2597 2516 
Q 3050 2419 3304 2112 
Q 3559 1806 3559 1356 
Q 3559 666 3084 287 
Q 2609 -91 1734 -91 
Q 1441 -91 1130 -33 
Q 819 25 488 141 
L 488 750 
Q 750 597 1062 519 
Q 1375 441 1716 441 
Q 2309 441 2620 675 
Q 2931 909 2931 1356 
Q 2931 1769 2642 2001 
Q 2353 2234 1838 2234 
L 1294 2234 
L 1294 2753 
L 1863 2753 
Q 2328 2753 2575 2939 
Q 2822 3125 2822 3475 
Q 2822 3834 2567 4026 
Q 2313 4219 1838 4219 
Q 1578 4219 1281 4162 
Q 984 4106 628 3988 
L 628 4550 
Q 988 4650 1302 4700 
Q 1616 4750 1894 4750 
Q 2613 4750 3031 4423 
Q 3450 4097 3450 3541 
Q 3450 3153 3228 2886 
Q 3006 2619 2597 2516 
z
" transform="scale(0.015625)"/>
       </defs>
       <use xlink:href="#DejaVuSans-33"/>
       <use xlink:href="#DejaVuSans-2e" transform="translate(63.623047 0)"/>
       <use xlink:href="#DejaVuSans-30" transform="translate(95.410156 0)"/>
      </g>
     </g>
    </g>
    <g id="xtick_6">
     <g id="line2d_6">
      <g>
       <use xlink:href="#mc4c13b431f" x="301.143293" y="257.158895" style="stroke: #000000; stroke-width: 0.8"/>
      </g>
     </g>
     <g id="text_6">
      <!-- 3.5 -->
      <g transform="translate(293.19173 271.757332) scale(0.1 -0.1)">
       <use xlink:href="#DejaVuSans-33"/>
       <use xlink:href="#DejaVuSans-2e" transform="translate(63.623047 0)"/>
       <use xlink:href="#DejaVuSans-35" transform="translate(95.410156 0)"/>
      </g>
     </g>
    </g>
    <g id="xtick_7">
     <g id="line2d_7">
      <g>
       <use xlink:href="#mc4c13b431f" x="345.118668" y="257.158895" style="stroke: #000000; stroke-width: 0.8"/>
      </g>
     </g>
     <g id="text_7">
      <!-- 4.0 -->
      <g transform="translate(337.167105 271.757332) scale(0.1 -0.1)">
       <defs>
        <path id="DejaVuSans-34" d="M 2419 4116 
L 825 1625 
L 2419 1625 
L 2419 4116 
z
M 2253 4666 
L 3047 4666 
L 3047 1625 
L 3713 1625 
L 3713 1100 
L 3047 1100 
L 3047 0 
L 2419 0 
L 2419 1100 
L 313 1100 
L 313 1709 
L 2253 4666 
z
" transform="scale(0.015625)"/>
       </defs>
       <use xlink:href="#DejaVuSans-34"/>
       <use xlink:href="#DejaVuSans-2e" transform="translate(63.623047 0)"/>
       <use xlink:href="#DejaVuSans-30" transform="translate(95.410156 0)"/>
      </g>
     </g>
    </g>
    <g id="xtick_8">
     <g id="line2d_8">
      <g>
       <use xlink:href="#mc4c13b431f" x="389.094043" y="257.158895" style="stroke: #000000; stroke-width: 0.8"/>
      </g>
     </g>
     <g id="text_8">
      <!-- 4.5 -->
      <g transform="translate(381.14248 271.757332) scale(0.1 -0.1)">
       <use xlink:href="#DejaVuSans-34"/>
       <use xlink:href="#DejaVuSans-2e" transform="translate(63.623047 0)"/>
       <use xlink:href="#DejaVuSans-35" transform="translate(95.410156 0)"/>
      </g>
     </g>
    </g>
    <g id="text_9">
     <!-- wavelength [Å] -->
     <g transform="translate(192.745193 287.119832) scale(0.1 -0.1)">
      <defs>
       <path id="DejaVuSans-77" d="M 269 3500 
L 844 3500 
L 1563 769 
L 2278 3500 
L 2956 3500 
L 3675 769 
L 4391 3500 
L 4966 3500 
L 4050 0 
L 3372 0 
L 2619 2869 
L 1863 0 
L 1184 0 
L 269 3500 
z
" transform="scale(0.015625)"/>
       <path id="DejaVuSans-61" d="M 2194 1759 
Q 1497 1759 1228 1600 
Q 959 1441 959 1056 
Q 959 750 1161 570 
Q 1363 391 1709 391 
Q 2188 391 2477 730 
Q 2766 1069 2766 1631 
L 2766 1759 
L 2194 1759 
z
M 3341 1997 
L 3341 0 
L 2766 0 
L 2766 531 
Q 2569 213 2275 61 
Q 1981 -91 1556 -91 
Q 1019 -91 701 211 
Q 384 513 384 1019 
Q 384 1609 779 1909 
Q 1175 2209 1959 2209 
L 2766 2209 
L 2766 2266 
Q 2766 2663 2505 2880 
Q 2244 3097 1772 3097 
Q 1472 3097 1187 3025 
Q 903 2953 641 2809 
L 641 3341 
Q 956 3463 1253 3523 
Q 1550 3584 1831 3584 
Q 2591 3584 2966 3190 
Q 3341 2797 3341 1997 
z
" transform="scale(0.015625)"/>
       <path id="DejaVuSans-76" d="M 191 3500 
L 800 3500 
L 1894 563 
L 2988 3500 
L 3597 3500 
L 2284 0 
L 1503 0 
L 191 3500 
z
" transform="scale(0.015625)"/>
       <path id="DejaVuSans-65" d="M 3597 1894 
L 3597 1613 
L 953 1613 
Q 991 1019 1311 708 
Q 1631 397 2203 397 
Q 2534 397 2845 478 
Q 3156 559 3463 722 
L 3463 178 
Q 3153 47 2828 -22 
Q 2503 -91 2169 -91 
Q 1331 -91 842 396 
Q 353 884 353 1716 
Q 353 2575 817 3079 
Q 1281 3584 2069 3584 
Q 2775 3584 3186 3129 
Q 3597 2675 3597 1894 
z
M 3022 2063 
Q 3016 2534 2758 2815 
Q 2500 3097 2075 3097 
Q 1594 3097 1305 2825 
Q 1016 2553 972 2059 
L 3022 2063 
z
" transform="scale(0.015625)"/>
       <path id="DejaVuSans-6c" d="M 603 4863 
L 1178 4863 
L 1178 0 
L 603 0 
L 603 4863 
z
" transform="scale(0.015625)"/>
       <path id="DejaVuSans-6e" d="M 3513 2113 
L 3513 0 
L 2938 0 
L 2938 2094 
Q 2938 2591 2744 2837 
Q 2550 3084 2163 3084 
Q 1697 3084 1428 2787 
Q 1159 2491 1159 1978 
L 1159 0 
L 581 0 
L 581 3500 
L 1159 3500 
L 1159 2956 
Q 1366 3272 1645 3428 
Q 1925 3584 2291 3584 
Q 2894 3584 3203 3211 
Q 3513 2838 3513 2113 
z
" transform="scale(0.015625)"/>
       <path id="DejaVuSans-67" d="M 2906 1791 
Q 2906 2416 2648 2759 
Q 2391 3103 1925 3103 
Q 1463 3103 1205 2759 
Q 947 2416 947 1791 
Q 947 1169 1205 825 
Q 1463 481 1925 481 
Q 2391 481 2648 825 
Q 2906 1169 2906 1791 
z
M 3481 434 
Q 3481 -459 3084 -895 
Q 2688 -1331 1869 -1331 
Q 1566 -1331 1297 -1286 
Q 1028 -1241 775 -1147 
L 775 -588 
Q 1028 -725 1275 -790 
Q 1522 -856 1778 -856 
Q 2344 -856 2625 -561 
Q 2906 -266 2906 331 
L 2906 616 
Q 2728 306 2450 153 
Q 2172 0 1784 0 
Q 1141 0 747 490 
Q 353 981 353 1791 
Q 353 2603 747 3093 
Q 1141 3584 1784 3584 
Q 2172 3584 2450 3431 
Q 2728 3278 2906 2969 
L 2906 3500 
L 3481 3500 
L 3481 434 
z
" transform="scale(0.015625)"/>
       <path id="DejaVuSans-74" d="M 1172 4494 
L 1172 3500 
L 2356 3500 
L 2356 3053 
L 1172 3053 
L 1172 1153 
Q 1172 725 1289 603 
Q 1406 481 1766 481 
L 2356 481 
L 2356 0 
L 1766 0 
Q 1100 0 847 248 
Q 594 497 594 1153 
L 594 3053 
L 172 3053 
L 172 3500 
L 594 3500 
L 594 4494 
L 1172 4494 
z
" transform="scale(0.015625)"/>
       <path id="DejaVuSans-68" d="M 3513 2113 
L 3513 0 
L 2938 0 
L 2938 2094 
Q 2938 2591 2744 2837 
Q 2550 3084 2163 3084 
Q 1697 3084 1428 2787 
Q 1159 2491 1159 1978 
L 1159 0 
L 581 0 
L 581 4863 
L 1159 4863 
L 1159 2956 
Q 1366 3272 1645 3428 
Q 1925 3584 2291 3584 
Q 2894 3584 3203 3211 
Q 3513 2838 3513 2113 
z
" transform="scale(0.015625)"/>
       <path id="DejaVuSans-20" transform="scale(0.015625)"/>
       <path id="DejaVuSans-5b" d="M 550 4863 
L 1875 4863 
L 1875 4416 
L 1125 4416 
L 1125 -397 
L 1875 -397 
L 1875 -844 
L 550 -844 
L 550 4863 
z
" transform="scale(0.015625)"/>
       <path id="DejaVuSans-c5" d="M 2663 5081 
Q 2663 5278 2523 5417 
Q 2384 5556 2188 5556 
Q 1988 5556 1852 5420 
Q 1716 5284 1716 5081 
Q 1716 4884 1853 4746 
Q 1991 4609 2188 4609 
Q 2384 4609 2523 4746 
Q 2663 4884 2663 5081 
z
M 2188 4044 
L 1338 1722 
L 3041 1722 
L 2188 4044 
z
M 1716 4366 
Q 1525 4494 1428 4673 
Q 1331 4853 1331 5081 
Q 1331 5441 1579 5691 
Q 1828 5941 2188 5941 
Q 2544 5941 2795 5689 
Q 3047 5438 3047 5081 
Q 3047 4863 2948 4678 
Q 2850 4494 2663 4366 
L 4325 0 
L 3669 0 
L 3244 1197 
L 1141 1197 
L 716 0 
L 50 0 
L 1716 4366 
z
" transform="scale(0.015625)"/>
       <path id="DejaVuSans-5d" d="M 1947 4863 
L 1947 -844 
L 622 -844 
L 622 -397 
L 1369 -397 
L 1369 4416 
L 622 4416 
L 622 4863 
L 1947 4863 
z
" transform="scale(0.015625)"/>
      </defs>
      <use xlink:href="#DejaVuSans-77"/>
      <use xlink:href="#DejaVuSans-61" transform="translate(81.787109 0)"/>
      <use xlink:href="#DejaVuSans-76" transform="translate(143.066406 0)"/>
      <use xlink:href="#DejaVuSans-65" transform="translate(202.246094 0)"/>
      <use xlink:href="#DejaVuSans-6c" transform="translate(263.769531 0)"/>
      <use xlink:href="#DejaVuSans-65" transform="translate(291.552734 0)"/>
      <use xlink:href="#DejaVuSans-6e" transform="translate(353.076172 0)"/>
      <use xlink:href="#DejaVuSans-67" transform="translate(416.455078 0)"/>
      <use xlink:href="#DejaVuSans-74" transform="translate(479.931641 0)"/>
      <use xlink:href="#DejaVuSans-68" transform="translate(519.140625 0)"/>
      <use xlink:href="#DejaVuSans-20" transform="translate(582.519531 0)"/>
      <use xlink:href="#DejaVuSans-5b" transform="translate(614.306641 0)"/>
      <use xlink:href="#DejaVuSans-c5" transform="translate(653.320312 0)"/>
      <use xlink:href="#DejaVuSans-5d" transform="translate(721.728516 0)"/>
     </g>
    </g>
   </g>
   <g id="matplotlib.axis_2">
    <g id="ytick_1">
     <g id="line2d_9">
      <defs>
       <path id="med6db1dff5" d="M 0 0 
L -3.5 0 
" style="stroke: #000000; stroke-width: 0.8"/>
      </defs>
      <g>
       <use xlink:href="#med6db1dff5" x="46.965625" y="246.484315" style="stroke: #000000; stroke-width: 0.8"/>
      </g>
     </g>
     <g id="text_10">
      <!-- 0 -->
      <g transform="translate(33.603125 250.283533) scale(0.1 -0.1)">
       <use xlink:href="#DejaVuSans-30"/>
      </g>
     </g>
    </g>
    <g id="ytick_2">
     <g id="line2d_10">
      <g>
       <use xlink:href="#med6db1dff5" x="46.965625" y="194.349611" style="stroke: #000000; stroke-width: 0.8"/>
      </g>
     </g>
     <g id="text_11">
      <!-- 200 -->
      <g transform="translate(20.878125 198.14883) scale(0.1 -0.1)">
       <use xlink:href="#DejaVuSans-32"/>
       <use xlink:href="#DejaVuSans-30" transform="translate(63.623047 0)"/>
       <use xlink:href="#DejaVuSans-30" transform="translate(127.246094 0)"/>
      </g>
     </g>
    </g>
    <g id="ytick_3">
     <g id="line2d_11">
      <g>
       <use xlink:href="#med6db1dff5" x="46.965625" y="142.214908" style="stroke: #000000; stroke-width: 0.8"/>
      </g>
     </g>
     <g id="text_12">
      <!-- 400 -->
      <g transform="translate(20.878125 146.014127) scale(0.1 -0.1)">
       <use xlink:href="#DejaVuSans-34"/>
       <use xlink:href="#DejaVuSans-30" transform="translate(63.623047 0)"/>
       <use xlink:href="#DejaVuSans-30" transform="translate(127.246094 0)"/>
      </g>
     </g>
    </g>
    <g id="ytick_4">
     <g id="line2d_12">
      <g>
       <use xlink:href="#med6db1dff5" x="46.965625" y="90.080205" style="stroke: #000000; stroke-width: 0.8"/>
      </g>
     </g>
     <g id="text_13">
      <!-- 600 -->
      <g transform="translate(20.878125 93.879424) scale(0.1 -0.1)">
       <defs>
        <path id="DejaVuSans-36" d="M 2113 2584 
Q 1688 2584 1439 2293 
Q 1191 2003 1191 1497 
Q 1191 994 1439 701 
Q 1688 409 2113 409 
Q 2538 409 2786 701 
Q 3034 994 3034 1497 
Q 3034 2003 2786 2293 
Q 2538 2584 2113 2584 
z
M 3366 4563 
L 3366 3988 
Q 3128 4100 2886 4159 
Q 2644 4219 2406 4219 
Q 1781 4219 1451 3797 
Q 1122 3375 1075 2522 
Q 1259 2794 1537 2939 
Q 1816 3084 2150 3084 
Q 2853 3084 3261 2657 
Q 3669 2231 3669 1497 
Q 3669 778 3244 343 
Q 2819 -91 2113 -91 
Q 1303 -91 875 529 
Q 447 1150 447 2328 
Q 447 3434 972 4092 
Q 1497 4750 2381 4750 
Q 2619 4750 2861 4703 
Q 3103 4656 3366 4563 
z
" transform="scale(0.015625)"/>
       </defs>
       <use xlink:href="#DejaVuSans-36"/>
       <use xlink:href="#DejaVuSans-30" transform="translate(63.623047 0)"/>
       <use xlink:href="#DejaVuSans-30" transform="translate(127.246094 0)"/>
      </g>
     </g>
    </g>
    <g id="ytick_5">
     <g id="line2d_13">
      <g>
       <use xlink:href="#med6db1dff5" x="46.965625" y="37.945502" style="stroke: #000000; stroke-width: 0.8"/>
      </g>
     </g>
     <g id="text_14">
      <!-- 800 -->
      <g transform="translate(20.878125 41.744721) scale(0.1 -0.1)">
       <defs>
        <path id="DejaVuSans-38" d="M 2034 2216 
Q 1584 2216 1326 1975 
Q 1069 1734 1069 1313 
Q 1069 891 1326 650 
Q 1584 409 2034 409 
Q 2484 409 2743 651 
Q 3003 894 3003 1313 
Q 3003 1734 2745 1975 
Q 2488 2216 2034 2216 
z
M 1403 2484 
Q 997 2584 770 2862 
Q 544 3141 544 3541 
Q 544 4100 942 4425 
Q 1341 4750 2034 4750 
Q 2731 4750 3128 4425 
Q 3525 4100 3525 3541 
Q 3525 3141 3298 2862 
Q 3072 2584 2669 2484 
Q 3125 2378 3379 2068 
Q 3634 1759 3634 1313 
Q 3634 634 3220 271 
Q 2806 -91 2034 -91 
Q 1263 -91 848 271 
Q 434 634 434 1313 
Q 434 1759 690 2068 
Q 947 2378 1403 2484 
z
M 1172 3481 
Q 1172 3119 1398 2916 
Q 1625 2713 2034 2713 
Q 2441 2713 2670 2916 
Q 2900 3119 2900 3481 
Q 2900 3844 2670 4047 
Q 2441 4250 2034 4250 
Q 1625 4250 1398 4047 
Q 1172 3844 1172 3481 
z
" transform="scale(0.015625)"/>
       </defs>
       <use xlink:href="#DejaVuSans-38"/>
       <use xlink:href="#DejaVuSans-30" transform="translate(63.623047 0)"/>
       <use xlink:href="#DejaVuSans-30" transform="translate(127.246094 0)"/>
      </g>
     </g>
    </g>
    <g id="text_15">
     <!-- [counts] -->
     <g transform="translate(14.798437 160.35101) rotate(-90) scale(0.1 -0.1)">
      <defs>
       <path id="DejaVuSans-63" d="M 3122 3366 
L 3122 2828 
Q 2878 2963 2633 3030 
Q 2388 3097 2138 3097 
Q 1578 3097 1268 2742 
Q 959 2388 959 1747 
Q 959 1106 1268 751 
Q 1578 397 2138 397 
Q 2388 397 2633 464 
Q 2878 531 3122 666 
L 3122 134 
Q 2881 22 2623 -34 
Q 2366 -91 2075 -91 
Q 1284 -91 818 406 
Q 353 903 353 1747 
Q 353 2603 823 3093 
Q 1294 3584 2113 3584 
Q 2378 3584 2631 3529 
Q 2884 3475 3122 3366 
z
" transform="scale(0.015625)"/>
       <path id="DejaVuSans-6f" d="M 1959 3097 
Q 1497 3097 1228 2736 
Q 959 2375 959 1747 
Q 959 1119 1226 758 
Q 1494 397 1959 397 
Q 2419 397 2687 759 
Q 2956 1122 2956 1747 
Q 2956 2369 2687 2733 
Q 2419 3097 1959 3097 
z
M 1959 3584 
Q 2709 3584 3137 3096 
Q 3566 2609 3566 1747 
Q 3566 888 3137 398 
Q 2709 -91 1959 -91 
Q 1206 -91 779 398 
Q 353 888 353 1747 
Q 353 2609 779 3096 
Q 1206 3584 1959 3584 
z
" transform="scale(0.015625)"/>
       <path id="DejaVuSans-75" d="M 544 1381 
L 544 3500 
L 1119 3500 
L 1119 1403 
Q 1119 906 1312 657 
Q 1506 409 1894 409 
Q 2359 409 2629 706 
Q 2900 1003 2900 1516 
L 2900 3500 
L 3475 3500 
L 3475 0 
L 2900 0 
L 2900 538 
Q 2691 219 2414 64 
Q 2138 -91 1772 -91 
Q 1169 -91 856 284 
Q 544 659 544 1381 
z
M 1991 3584 
L 1991 3584 
z
" transform="scale(0.015625)"/>
       <path id="DejaVuSans-73" d="M 2834 3397 
L 2834 2853 
Q 2591 2978 2328 3040 
Q 2066 3103 1784 3103 
Q 1356 3103 1142 2972 
Q 928 2841 928 2578 
Q 928 2378 1081 2264 
Q 1234 2150 1697 2047 
L 1894 2003 
Q 2506 1872 2764 1633 
Q 3022 1394 3022 966 
Q 3022 478 2636 193 
Q 2250 -91 1575 -91 
Q 1294 -91 989 -36 
Q 684 19 347 128 
L 347 722 
Q 666 556 975 473 
Q 1284 391 1588 391 
Q 1994 391 2212 530 
Q 2431 669 2431 922 
Q 2431 1156 2273 1281 
Q 2116 1406 1581 1522 
L 1381 1569 
Q 847 1681 609 1914 
Q 372 2147 372 2553 
Q 372 3047 722 3315 
Q 1072 3584 1716 3584 
Q 2034 3584 2315 3537 
Q 2597 3491 2834 3397 
z
" transform="scale(0.015625)"/>
      </defs>
      <use xlink:href="#DejaVuSans-5b"/>
      <use xlink:href="#DejaVuSans-63" transform="translate(39.013672 0)"/>
      <use xlink:href="#DejaVuSans-6f" transform="translate(93.994141 0)"/>
      <use xlink:href="#DejaVuSans-75" transform="translate(155.175781 0)"/>
      <use xlink:href="#DejaVuSans-6e" transform="translate(218.554688 0)"/>
      <use xlink:href="#DejaVuSans-74" transform="translate(281.933594 0)"/>
      <use xlink:href="#DejaVuSans-73" transform="translate(321.142578 0)"/>
      <use xlink:href="#DejaVuSans-5d" transform="translate(373.242188 0)"/>
     </g>
    </g>
   </g>
   <g id="line2d_14">
    <path d="M 63.676268 246.484315 
L 72.031589 246.484315 
L 72.031589 245.180947 
L 73.702653 245.180947 
L 73.702653 237.360742 
L 75.373717 237.360742 
L 75.373717 228.497842 
L 77.044782 228.497842 
L 77.044782 224.327066 
L 78.715846 224.327066 
L 78.715846 207.904634 
L 80.38691 207.904634 
L 80.38691 197.21702 
L 82.057974 197.21702 
L 82.057974 191.742876 
L 83.729039 191.742876 
L 83.729039 193.306917 
L 85.400103 193.306917 
L 85.400103 176.623812 
L 87.071167 176.623812 
L 87.071167 176.884486 
L 88.742231 176.884486 
L 88.742231 159.940707 
L 90.413296 159.940707 
L 90.413296 166.196872 
L 92.08436 166.196872 
L 92.08436 141.432888 
L 93.755424 141.432888 
L 93.755424 145.603664 
L 95.426488 145.603664 
L 95.426488 136.740765 
L 97.097553 136.740765 
L 97.097553 125.792477 
L 98.768617 125.792477 
L 98.768617 123.185742 
L 100.439681 123.185742 
L 100.439681 116.668904 
L 102.110745 116.668904 
L 102.110745 108.327351 
L 103.78181 108.327351 
L 103.78181 95.815023 
L 105.452874 95.815023 
L 105.452874 103.895902 
L 107.123938 103.895902 
L 107.123938 83.824041 
L 108.795002 83.824041 
L 108.795002 83.302694 
L 110.466067 83.302694 
L 110.466067 80.435285 
L 112.137131 80.435285 
L 112.137131 72.875753 
L 113.808195 72.875753 
L 113.808195 68.444304 
L 115.479259 68.444304 
L 115.479259 60.884772 
L 117.150323 60.884772 
L 117.150323 59.060057 
L 118.821388 59.060057 
L 118.821388 56.453322 
L 120.492452 56.453322 
L 120.492452 49.415137 
L 122.163516 49.415137 
L 122.163516 44.201667 
L 123.834581 44.201667 
L 123.834581 49.154463 
L 125.505645 49.154463 
L 125.505645 35.078094 
L 127.176709 35.078094 
L 127.176709 32.992705 
L 128.847773 32.992705 
L 128.847773 52.543219 
L 130.518838 52.543219 
L 130.518838 53.32524 
L 132.189902 53.32524 
L 132.189902 59.581404 
L 133.860966 59.581404 
L 133.860966 51.239852 
L 135.53203 51.239852 
L 135.53203 48.372443 
L 137.203095 48.372443 
L 137.203095 67.140936 
L 138.874159 67.140936 
L 138.874159 51.500525 
L 140.545223 51.500525 
L 140.545223 54.889281 
L 142.216287 54.889281 
L 142.216287 72.354406 
L 143.887352 72.354406 
L 143.887352 59.581404 
L 145.558416 59.581404 
L 145.558416 71.572386 
L 147.22948 71.572386 
L 147.22948 84.084714 
L 148.900544 84.084714 
L 148.900544 64.794874 
L 150.571609 64.794874 
L 150.571609 77.567877 
L 152.242673 77.567877 
L 152.242673 78.089224 
L 153.913737 78.089224 
L 153.913737 71.311712 
L 155.584801 71.311712 
L 155.584801 85.388082 
L 157.255866 85.388082 
L 157.255866 85.909429 
L 158.92693 85.909429 
L 158.92693 95.033002 
L 160.597994 95.033002 
L 160.597994 85.648756 
L 162.269058 85.648756 
L 162.269058 93.468961 
L 163.940123 93.468961 
L 163.940123 83.563367 
L 165.611187 83.563367 
L 165.611187 90.080205 
L 167.282251 90.080205 
L 167.282251 83.563367 
L 168.953315 83.563367 
L 168.953315 79.653265 
L 170.62438 79.653265 
L 170.62438 86.952123 
L 172.295444 86.952123 
L 172.295444 90.080205 
L 175.637572 90.080205 
L 175.637572 87.212797 
L 177.308637 87.212797 
L 177.308637 83.563367 
L 178.979701 83.563367 
L 178.979701 94.511655 
L 180.650765 94.511655 
L 180.650765 92.426267 
L 182.321829 92.426267 
L 182.321829 100.246472 
L 183.992894 100.246472 
L 183.992894 98.161084 
L 185.663958 98.161084 
L 185.663958 110.41274 
L 187.335022 110.41274 
L 187.335022 94.250982 
L 189.006086 94.250982 
L 189.006086 100.246472 
L 190.677151 100.246472 
L 190.677151 112.498128 
L 192.348215 112.498128 
L 192.348215 114.583516 
L 194.019279 114.583516 
L 194.019279 131.005947 
L 195.690343 131.005947 
L 195.690343 109.109372 
L 197.361408 109.109372 
L 197.361408 135.958744 
L 199.032472 135.958744 
L 199.032472 135.437397 
L 200.703536 135.437397 
L 200.703536 151.859828 
L 202.3746 151.859828 
L 202.3746 159.41936 
L 204.045665 159.41936 
L 204.045665 158.63734 
L 205.716729 158.63734 
L 205.716729 163.85081 
L 207.387793 163.85081 
L 207.387793 175.320445 
L 209.058857 175.320445 
L 209.058857 186.268732 
L 210.729922 186.268732 
L 210.729922 196.695673 
L 212.400986 196.695673 
L 212.400986 201.64847 
L 214.07205 201.64847 
L 214.07205 205.297899 
L 215.743114 205.297899 
L 215.743114 207.122614 
L 217.414179 207.122614 
L 217.414179 218.852922 
L 219.085243 218.852922 
L 219.085243 226.933801 
L 220.756307 226.933801 
L 220.756307 232.929292 
L 222.427371 232.929292 
L 222.427371 238.142762 
L 224.098435 238.142762 
L 224.098435 241.270844 
L 225.7695 241.270844 
L 225.7695 242.834885 
L 227.440564 242.834885 
L 227.440564 244.6596 
L 229.111628 244.6596 
L 229.111628 238.403436 
L 230.782693 238.403436 
L 230.782693 234.754006 
L 232.453757 234.754006 
L 232.453757 223.545045 
L 234.124821 223.545045 
L 234.124821 221.198984 
L 235.795885 221.198984 
L 235.795885 221.981004 
L 237.466949 221.981004 
L 237.466949 206.07992 
L 239.138014 206.07992 
L 239.138014 200.084429 
L 240.809078 200.084429 
L 240.809078 194.610285 
L 242.480142 194.610285 
L 242.480142 187.5721 
L 244.151207 187.5721 
L 244.151207 185.747385 
L 245.822271 185.747385 
L 245.822271 174.538424 
L 247.493335 174.538424 
L 247.493335 180.533915 
L 249.164399 180.533915 
L 249.164399 164.893504 
L 250.835464 164.893504 
L 250.835464 166.718219 
L 252.506528 166.718219 
L 252.506528 166.457545 
L 254.177592 166.457545 
L 254.177592 157.073299 
L 255.848656 157.073299 
L 255.848656 154.987911 
L 257.51972 154.987911 
L 257.51972 155.509258 
L 259.190785 155.509258 
L 259.190785 147.428379 
L 260.861849 147.428379 
L 260.861849 127.877865 
L 262.532913 127.877865 
L 262.532913 137.001438 
L 264.203978 137.001438 
L 264.203978 129.181233 
L 265.875042 129.181233 
L 265.875042 132.048641 
L 267.546106 132.048641 
L 267.546106 130.223927 
L 269.21717 130.223927 
L 269.21717 130.4846 
L 270.888234 130.4846 
L 270.888234 121.621701 
L 272.559299 121.621701 
L 272.559299 121.100354 
L 274.230363 121.100354 
L 274.230363 116.929577 
L 275.901427 116.929577 
L 275.901427 126.05315 
L 277.572492 126.05315 
L 277.572492 107.806004 
L 279.243556 107.806004 
L 279.243556 115.62621 
L 280.91462 115.62621 
L 280.91462 114.844189 
L 282.585684 114.844189 
L 282.585684 108.588025 
L 284.256749 108.588025 
L 284.256749 109.109372 
L 285.927813 109.109372 
L 285.927813 128.138539 
L 287.598877 128.138539 
L 287.598877 110.934087 
L 289.269941 110.934087 
L 289.269941 113.280148 
L 290.941006 113.280148 
L 290.941006 115.62621 
L 292.61207 115.62621 
L 292.61207 128.920559 
L 294.283134 128.920559 
L 294.283134 130.223927 
L 295.954198 130.223927 
L 295.954198 131.266621 
L 297.625263 131.266621 
L 297.625263 139.3475 
L 299.296327 139.3475 
L 299.296327 120.579007 
L 300.967391 120.579007 
L 300.967391 132.048641 
L 304.309519 132.048641 
L 304.309519 142.475582 
L 305.980584 142.475582 
L 305.980584 141.954235 
L 307.651648 141.954235 
L 307.651648 148.99242 
L 309.322712 148.99242 
L 309.322712 140.12952 
L 310.993777 140.12952 
L 310.993777 133.352009 
L 312.664841 133.352009 
L 312.664841 159.940707 
L 314.335905 159.940707 
L 314.335905 150.556461 
L 316.006969 150.556461 
L 316.006969 156.551952 
L 317.678033 156.551952 
L 317.678033 144.300297 
L 319.349098 144.300297 
L 319.349098 153.163196 
L 321.020162 153.163196 
L 321.020162 153.684543 
L 322.691226 153.684543 
L 322.691226 158.63734 
L 324.362291 158.63734 
L 324.362291 157.073299 
L 326.033355 157.073299 
L 326.033355 169.06428 
L 327.704419 169.06428 
L 327.704419 162.808116 
L 329.375483 162.808116 
L 329.375483 162.547443 
L 331.046547 162.547443 
L 331.046547 164.632831 
L 332.717612 164.632831 
L 332.717612 163.85081 
L 334.388676 163.85081 
L 334.388676 171.410342 
L 336.05974 171.410342 
L 336.05974 173.49573 
L 337.730805 173.49573 
L 337.730805 177.145159 
L 339.401869 177.145159 
L 339.401869 171.149669 
L 341.072933 171.149669 
L 341.072933 183.401324 
L 342.743997 183.401324 
L 342.743997 172.192363 
L 344.415062 172.192363 
L 344.415062 183.922671 
L 346.086126 183.922671 
L 346.086126 187.311427 
L 347.75719 187.311427 
L 347.75719 189.657488 
L 349.428254 189.657488 
L 349.428254 196.435 
L 351.099318 196.435 
L 351.099318 190.700182 
L 352.770383 190.700182 
L 352.770383 206.340593 
L 354.441447 206.340593 
L 354.441447 202.43049 
L 356.112511 202.43049 
L 356.112511 197.999041 
L 357.783576 197.999041 
L 357.783576 204.776552 
L 359.45464 204.776552 
L 359.45464 204.255205 
L 361.125704 204.255205 
L 361.125704 217.028207 
L 362.796768 217.028207 
L 362.796768 218.592248 
L 364.467832 218.592248 
L 364.467832 220.156289 
L 366.138897 220.156289 
L 366.138897 223.805719 
L 367.809961 223.805719 
L 367.809961 225.109086 
L 369.481025 225.109086 
L 369.481025 229.540536 
L 371.15209 229.540536 
L 371.15209 226.933801 
L 372.823154 226.933801 
L 372.823154 235.536027 
L 374.494218 235.536027 
L 374.494218 232.929292 
L 376.165282 232.929292 
L 376.165282 238.142762 
L 377.836346 238.142762 
L 377.836346 241.010171 
L 379.507411 241.010171 
L 379.507411 242.052865 
L 382.849539 242.052865 
L 382.849539 244.6596 
L 384.520603 244.6596 
L 384.520603 245.180947 
L 387.862732 245.180947 
L 387.862732 246.484315 
L 397.889117 246.484315 
L 397.889117 246.484315 
" clip-path="url(#pe7d83d3fd5)" style="fill: none; stroke: #1f77b4; stroke-width: 1.5; stroke-linecap: square"/>
   </g>
   <g id="line2d_15">
    <path d="M 63.676268 246.484315 
L 72.031589 246.484315 
L 72.031589 244.6596 
L 73.702653 244.6596 
L 73.702653 237.360742 
L 75.373717 237.360742 
L 75.373717 228.237168 
L 77.044782 228.237168 
L 77.044782 223.805719 
L 78.715846 223.805719 
L 78.715846 209.729349 
L 80.38691 209.729349 
L 80.38691 196.435 
L 82.057974 196.435 
L 82.057974 190.960856 
L 83.729039 190.960856 
L 83.729039 193.306917 
L 85.400103 193.306917 
L 85.400103 177.145159 
L 87.071167 177.145159 
L 87.071167 173.756404 
L 88.742231 173.756404 
L 88.742231 166.718219 
L 90.413296 166.718219 
L 90.413296 156.812625 
L 92.08436 156.812625 
L 92.08436 152.641849 
L 93.755424 152.641849 
L 93.755424 140.390194 
L 95.426488 140.390194 
L 95.426488 134.655376 
L 97.097553 134.655376 
L 97.097553 126.313824 
L 98.768617 126.313824 
L 98.768617 127.356518 
L 100.439681 127.356518 
L 100.439681 111.716107 
L 102.110745 111.716107 
L 102.110745 107.023984 
L 103.78181 107.023984 
L 103.78181 99.725125 
L 107.123938 99.725125 
L 107.123938 84.084714 
L 108.795002 84.084714 
L 108.795002 95.554349 
L 110.466067 95.554349 
L 110.466067 80.956632 
L 112.137131 80.956632 
L 112.137131 65.837568 
L 113.808195 65.837568 
L 113.808195 62.709486 
L 115.479259 62.709486 
L 115.479259 56.713995 
L 117.150323 56.713995 
L 117.150323 55.410628 
L 118.821388 55.410628 
L 118.821388 60.884772 
L 120.492452 60.884772 
L 120.492452 54.367934 
L 122.163516 54.367934 
L 122.163516 43.158973 
L 123.834581 43.158973 
L 123.834581 43.419646 
L 125.505645 43.419646 
L 125.505645 38.466849 
L 127.176709 38.466849 
L 127.176709 52.543219 
L 128.847773 52.543219 
L 128.847773 43.158973 
L 130.518838 43.158973 
L 130.518838 52.803893 
L 132.189902 52.803893 
L 132.189902 58.53871 
L 135.53203 58.53871 
L 135.53203 50.718504 
L 137.203095 50.718504 
L 137.203095 54.367934 
L 138.874159 54.367934 
L 138.874159 52.803893 
L 140.545223 52.803893 
L 140.545223 47.590422 
L 142.216287 47.590422 
L 142.216287 85.388082 
L 143.887352 85.388082 
L 143.887352 61.666792 
L 145.558416 61.666792 
L 145.558416 61.406119 
L 147.22948 61.406119 
L 147.22948 75.482488 
L 150.571609 75.482488 
L 150.571609 74.961141 
L 152.242673 74.961141 
L 152.242673 73.918447 
L 153.913737 73.918447 
L 153.913737 80.695959 
L 155.584801 80.695959 
L 155.584801 83.302694 
L 157.255866 83.302694 
L 157.255866 83.04202 
L 158.92693 83.04202 
L 158.92693 102.592534 
L 160.597994 102.592534 
L 160.597994 81.477979 
L 162.269058 81.477979 
L 162.269058 87.994817 
L 163.940123 87.994817 
L 163.940123 85.388082 
L 165.611187 85.388082 
L 165.611187 88.255491 
L 167.282251 88.255491 
L 167.282251 87.47347 
L 168.953315 87.47347 
L 168.953315 83.302694 
L 170.62438 83.302694 
L 170.62438 84.345388 
L 172.295444 84.345388 
L 172.295444 85.388082 
L 173.966508 85.388082 
L 173.966508 92.165593 
L 175.637572 92.165593 
L 175.637572 94.250982 
L 177.308637 94.250982 
L 177.308637 80.174612 
L 178.979701 80.174612 
L 178.979701 95.033002 
L 180.650765 95.033002 
L 180.650765 94.772329 
L 182.321829 94.772329 
L 182.321829 95.554349 
L 183.992894 95.554349 
L 183.992894 106.76331 
L 185.663958 106.76331 
L 185.663958 92.68694 
L 187.335022 92.68694 
L 187.335022 103.635228 
L 189.006086 103.635228 
L 189.006086 99.725125 
L 190.677151 99.725125 
L 190.677151 108.327351 
L 192.348215 108.327351 
L 192.348215 125.531803 
L 194.019279 125.531803 
L 194.019279 127.617192 
L 195.690343 127.617192 
L 195.690343 113.540822 
L 197.361408 113.540822 
L 197.361408 127.877865 
L 199.032472 127.877865 
L 199.032472 141.954235 
L 200.703536 141.954235 
L 200.703536 148.731746 
L 202.3746 148.731746 
L 202.3746 157.073299 
L 204.045665 157.073299 
L 204.045665 162.547443 
L 205.716729 162.547443 
L 205.716729 159.41936 
L 207.387793 159.41936 
L 207.387793 175.841792 
L 209.058857 175.841792 
L 209.058857 183.661997 
L 210.729922 183.661997 
L 210.729922 198.781061 
L 212.400986 198.781061 
L 212.400986 201.127123 
L 214.07205 201.127123 
L 214.07205 206.601267 
L 215.743114 206.601267 
L 215.743114 207.383287 
L 217.414179 207.383287 
L 217.414179 218.331575 
L 219.085243 218.331575 
L 219.085243 226.15178 
L 220.756307 226.15178 
L 220.756307 232.668618 
L 222.427371 232.668618 
L 222.427371 237.882089 
L 224.098435 237.882089 
L 224.098435 241.531518 
L 225.7695 241.531518 
L 225.7695 242.574212 
L 229.111628 242.574212 
L 229.111628 239.44613 
L 230.782693 239.44613 
L 230.782693 234.754006 
L 232.453757 234.754006 
L 232.453757 224.066392 
L 234.124821 224.066392 
L 234.124821 221.720331 
L 235.795885 221.720331 
L 235.795885 219.895616 
L 237.466949 219.895616 
L 237.466949 207.122614 
L 239.138014 207.122614 
L 239.138014 201.64847 
L 240.809078 201.64847 
L 240.809078 188.354121 
L 242.480142 188.354121 
L 242.480142 191.221529 
L 244.151207 191.221529 
L 244.151207 185.226038 
L 245.822271 185.226038 
L 245.822271 178.448527 
L 247.493335 178.448527 
L 247.493335 176.884486 
L 249.164399 176.884486 
L 249.164399 166.196872 
L 250.835464 166.196872 
L 250.835464 167.760913 
L 252.506528 167.760913 
L 252.506528 162.547443 
L 254.177592 162.547443 
L 254.177592 158.376666 
L 255.848656 158.376666 
L 255.848656 157.855319 
L 257.51972 157.855319 
L 257.51972 152.902523 
L 259.190785 152.902523 
L 259.190785 145.082317 
L 260.861849 145.082317 
L 260.861849 131.787968 
L 265.875042 131.787968 
L 265.875042 130.223927 
L 267.546106 130.223927 
L 267.546106 134.134029 
L 269.21717 134.134029 
L 269.21717 129.70258 
L 270.888234 129.70258 
L 270.888234 123.707089 
L 272.559299 123.707089 
L 272.559299 121.882374 
L 274.230363 121.882374 
L 274.230363 119.796986 
L 275.901427 119.796986 
L 275.901427 110.934087 
L 277.572492 110.934087 
L 277.572492 121.621701 
L 279.243556 121.621701 
L 279.243556 116.668904 
L 280.91462 116.668904 
L 280.91462 111.19476 
L 282.585684 111.19476 
L 282.585684 101.810514 
L 284.256749 101.810514 
L 284.256749 122.143048 
L 285.927813 122.143048 
L 285.927813 122.664395 
L 287.598877 122.664395 
L 287.598877 117.711598 
L 289.269941 117.711598 
L 289.269941 111.19476 
L 290.941006 111.19476 
L 290.941006 117.711598 
L 292.61207 117.711598 
L 292.61207 126.835171 
L 294.283134 126.835171 
L 294.283134 130.745274 
L 295.954198 130.745274 
L 295.954198 120.579007 
L 297.625263 120.579007 
L 297.625263 135.437397 
L 299.296327 135.437397 
L 299.296327 131.005947 
L 300.967391 131.005947 
L 300.967391 133.352009 
L 302.638455 133.352009 
L 302.638455 129.70258 
L 304.309519 129.70258 
L 304.309519 139.3475 
L 305.980584 139.3475 
L 305.980584 142.736255 
L 307.651648 142.736255 
L 307.651648 149.77444 
L 309.322712 149.77444 
L 309.322712 143.257602 
L 310.993777 143.257602 
L 310.993777 137.001438 
L 312.664841 137.001438 
L 312.664841 153.945217 
L 314.335905 153.945217 
L 314.335905 154.20589 
L 316.006969 154.20589 
L 316.006969 142.736255 
L 317.678033 142.736255 
L 317.678033 152.641849 
L 319.349098 152.641849 
L 319.349098 161.765422 
L 321.020162 161.765422 
L 321.020162 150.295787 
L 322.691226 150.295787 
L 322.691226 153.945217 
L 324.362291 153.945217 
L 324.362291 162.547443 
L 326.033355 162.547443 
L 326.033355 163.329463 
L 327.704419 163.329463 
L 327.704419 163.85081 
L 329.375483 163.85081 
L 329.375483 160.462054 
L 331.046547 160.462054 
L 331.046547 166.457545 
L 332.717612 166.457545 
L 332.717612 166.978892 
L 334.388676 166.978892 
L 334.388676 166.718219 
L 336.05974 166.718219 
L 336.05974 174.538424 
L 337.730805 174.538424 
L 337.730805 177.92718 
L 339.401869 177.92718 
L 339.401869 171.671016 
L 341.072933 171.671016 
L 341.072933 178.969874 
L 342.743997 178.969874 
L 342.743997 179.491221 
L 344.415062 179.491221 
L 344.415062 183.14065 
L 346.086126 183.14065 
L 346.086126 186.79008 
L 347.75719 186.79008 
L 347.75719 189.136141 
L 349.428254 189.136141 
L 349.428254 194.610285 
L 351.099318 194.610285 
L 351.099318 193.306917 
L 352.770383 193.306917 
L 352.770383 202.43049 
L 354.441447 202.43049 
L 354.441447 208.686655 
L 356.112511 208.686655 
L 356.112511 197.738367 
L 357.783576 197.738367 
L 357.783576 201.909143 
L 359.45464 201.909143 
L 359.45464 205.558573 
L 361.125704 205.558573 
L 361.125704 213.900125 
L 362.796768 213.900125 
L 362.796768 219.374269 
L 364.467832 219.374269 
L 364.467832 220.677637 
L 366.138897 220.677637 
L 366.138897 222.502351 
L 367.809961 222.502351 
L 367.809961 225.109086 
L 369.481025 225.109086 
L 369.481025 228.497842 
L 372.823154 228.497842 
L 372.823154 234.493333 
L 374.494218 234.493333 
L 374.494218 234.232659 
L 376.165282 234.232659 
L 376.165282 238.403436 
L 377.836346 238.403436 
L 377.836346 240.22815 
L 379.507411 240.22815 
L 379.507411 242.574212 
L 381.178475 242.574212 
L 381.178475 241.531518 
L 382.849539 241.531518 
L 382.849539 244.6596 
L 386.191668 244.6596 
L 386.191668 245.702294 
L 387.862732 245.702294 
L 387.862732 246.484315 
L 389.533796 246.484315 
L 389.533796 246.223641 
L 391.204861 246.223641 
L 391.204861 246.484315 
L 397.889117 246.484315 
L 397.889117 246.484315 
" clip-path="url(#pe7d83d3fd5)" style="fill: none; stroke: #ff7f0e; stroke-width: 1.5; stroke-linecap: square"/>
   </g>
   <g id="patch_3">
    <path d="M 46.965625 257.158895 
L 46.965625 22.318125 
" style="fill: none; stroke: #000000; stroke-width: 0.8; stroke-linejoin: miter; stroke-linecap: square"/>
   </g>
   <g id="patch_4">
    <path d="M 414.59976 257.158895 
L 414.59976 22.318125 
" style="fill: none; stroke: #000000; stroke-width: 0.8; stroke-linejoin: miter; stroke-linecap: square"/>
   </g>
   <g id="patch_5">
    <path d="M 46.965625 257.158895 
L 414.59976 257.158895 
" style="fill: none; stroke: #000000; stroke-width: 0.8; stroke-linejoin: miter; stroke-linecap: square"/>
   </g>
   <g id="patch_6">
    <path d="M 46.965625 22.318125 
L 414.59976 22.318125 
" style="fill: none; stroke: #000000; stroke-width: 0.8; stroke-linejoin: miter; stroke-linecap: square"/>
   </g>
   <g id="text_16">
    <!-- Pixel 1 -->
    <g transform="translate(211.18613 16.318125) scale(0.12 -0.12)">
     <defs>
      <path id="DejaVuSans-50" d="M 1259 4147 
L 1259 2394 
L 2053 2394 
Q 2494 2394 2734 2622 
Q 2975 2850 2975 3272 
Q 2975 3691 2734 3919 
Q 2494 4147 2053 4147 
L 1259 4147 
z
M 628 4666 
L 2053 4666 
Q 2838 4666 3239 4311 
Q 3641 3956 3641 3272 
Q 3641 2581 3239 2228 
Q 2838 1875 2053 1875 
L 1259 1875 
L 1259 0 
L 628 0 
L 628 4666 
z
" transform="scale(0.015625)"/>
      <path id="DejaVuSans-69" d="M 603 3500 
L 1178 3500 
L 1178 0 
L 603 0 
L 603 3500 
z
M 603 4863 
L 1178 4863 
L 1178 4134 
L 603 4134 
L 603 4863 
z
" transform="scale(0.015625)"/>
      <path id="DejaVuSans-78" d="M 3513 3500 
L 2247 1797 
L 3578 0 
L 2900 0 
L 1881 1375 
L 863 0 
L 184 0 
L 1544 1831 
L 300 3500 
L 978 3500 
L 1906 2253 
L 2834 3500 
L 3513 3500 
z
" transform="scale(0.015625)"/>
     </defs>
     <use xlink:href="#DejaVuSans-50"/>
     <use xlink:href="#DejaVuSans-69" transform="translate(58.052734 0)"/>
     <use xlink:href="#DejaVuSans-78" transform="translate(85.835938 0)"/>
     <use xlink:href="#DejaVuSans-65" transform="translate(141.890625 0)"/>
     <use xlink:href="#DejaVuSans-6c" transform="translate(203.414062 0)"/>
     <use xlink:href="#DejaVuSans-20" transform="translate(231.197266 0)"/>
     <use xlink:href="#DejaVuSans-31" transform="translate(262.984375 0)"/>
    </g>
   </g>
   <g id="legend_1">
    <g id="patch_7">
     <path d="M 310.596635 59.9525 
L 407.59976 59.9525 
Q 409.59976 59.9525 409.59976 57.9525 
L 409.59976 29.318125 
Q 409.59976 27.318125 407.59976 27.318125 
L 310.596635 27.318125 
Q 308.596635 27.318125 308.596635 29.318125 
L 308.596635 57.9525 
Q 308.596635 59.9525 310.596635 59.9525 
z
" style="fill: #ffffff; opacity: 0.8; stroke: #cccccc; stroke-linejoin: miter"/>
    </g>
    <g id="line2d_16">
     <path d="M 312.596635 35.416562 
L 312.596635 35.416562 
L 322.596635 35.416562 
L 322.596635 35.416562 
L 332.596635 35.416562 
" style="fill: none; stroke: #1f77b4; stroke-width: 1.5; stroke-linecap: square"/>
    </g>
    <g id="text_17">
     <!-- wfm -->
     <g transform="translate(340.596635 38.916562) scale(0.1 -0.1)">
      <defs>
       <path id="DejaVuSans-66" d="M 2375 4863 
L 2375 4384 
L 1825 4384 
Q 1516 4384 1395 4259 
Q 1275 4134 1275 3809 
L 1275 3500 
L 2222 3500 
L 2222 3053 
L 1275 3053 
L 1275 0 
L 697 0 
L 697 3053 
L 147 3053 
L 147 3500 
L 697 3500 
L 697 3744 
Q 697 4328 969 4595 
Q 1241 4863 1831 4863 
L 2375 4863 
z
" transform="scale(0.015625)"/>
       <path id="DejaVuSans-6d" d="M 3328 2828 
Q 3544 3216 3844 3400 
Q 4144 3584 4550 3584 
Q 5097 3584 5394 3201 
Q 5691 2819 5691 2113 
L 5691 0 
L 5113 0 
L 5113 2094 
Q 5113 2597 4934 2840 
Q 4756 3084 4391 3084 
Q 3944 3084 3684 2787 
Q 3425 2491 3425 1978 
L 3425 0 
L 2847 0 
L 2847 2094 
Q 2847 2600 2669 2842 
Q 2491 3084 2119 3084 
Q 1678 3084 1418 2786 
Q 1159 2488 1159 1978 
L 1159 0 
L 581 0 
L 581 3500 
L 1159 3500 
L 1159 2956 
Q 1356 3278 1631 3431 
Q 1906 3584 2284 3584 
Q 2666 3584 2933 3390 
Q 3200 3197 3328 2828 
z
" transform="scale(0.015625)"/>
      </defs>
      <use xlink:href="#DejaVuSans-77"/>
      <use xlink:href="#DejaVuSans-66" transform="translate(81.787109 0)"/>
      <use xlink:href="#DejaVuSans-6d" transform="translate(116.992188 0)"/>
     </g>
    </g>
    <g id="line2d_17">
     <path d="M 312.596635 50.094687 
L 312.596635 50.094687 
L 322.596635 50.094687 
L 322.596635 50.094687 
L 332.596635 50.094687 
" style="fill: none; stroke: #ff7f0e; stroke-width: 1.5; stroke-linecap: square"/>
    </g>
    <g id="text_18">
     <!-- ground_truth -->
     <g transform="translate(340.596635 53.594687) scale(0.1 -0.1)">
      <defs>
       <path id="DejaVuSans-72" d="M 2631 2963 
Q 2534 3019 2420 3045 
Q 2306 3072 2169 3072 
Q 1681 3072 1420 2755 
Q 1159 2438 1159 1844 
L 1159 0 
L 581 0 
L 581 3500 
L 1159 3500 
L 1159 2956 
Q 1341 3275 1631 3429 
Q 1922 3584 2338 3584 
Q 2397 3584 2469 3576 
Q 2541 3569 2628 3553 
L 2631 2963 
z
" transform="scale(0.015625)"/>
       <path id="DejaVuSans-64" d="M 2906 2969 
L 2906 4863 
L 3481 4863 
L 3481 0 
L 2906 0 
L 2906 525 
Q 2725 213 2448 61 
Q 2172 -91 1784 -91 
Q 1150 -91 751 415 
Q 353 922 353 1747 
Q 353 2572 751 3078 
Q 1150 3584 1784 3584 
Q 2172 3584 2448 3432 
Q 2725 3281 2906 2969 
z
M 947 1747 
Q 947 1113 1208 752 
Q 1469 391 1925 391 
Q 2381 391 2643 752 
Q 2906 1113 2906 1747 
Q 2906 2381 2643 2742 
Q 2381 3103 1925 3103 
Q 1469 3103 1208 2742 
Q 947 2381 947 1747 
z
" transform="scale(0.015625)"/>
       <path id="DejaVuSans-5f" d="M 3263 -1063 
L 3263 -1509 
L -63 -1509 
L -63 -1063 
L 3263 -1063 
z
" transform="scale(0.015625)"/>
      </defs>
      <use xlink:href="#DejaVuSans-67"/>
      <use xlink:href="#DejaVuSans-72" transform="translate(63.476562 0)"/>
      <use xlink:href="#DejaVuSans-6f" transform="translate(102.339844 0)"/>
      <use xlink:href="#DejaVuSans-75" transform="translate(163.521484 0)"/>
      <use xlink:href="#DejaVuSans-6e" transform="translate(226.900391 0)"/>
      <use xlink:href="#DejaVuSans-64" transform="translate(290.279297 0)"/>
      <use xlink:href="#DejaVuSans-5f" transform="translate(353.755859 0)"/>
      <use xlink:href="#DejaVuSans-74" transform="translate(403.755859 0)"/>
      <use xlink:href="#DejaVuSans-72" transform="translate(442.964844 0)"/>
      <use xlink:href="#DejaVuSans-75" transform="translate(484.078125 0)"/>
      <use xlink:href="#DejaVuSans-74" transform="translate(547.457031 0)"/>
      <use xlink:href="#DejaVuSans-68" transform="translate(586.666016 0)"/>
     </g>
    </g>
   </g>
  </g>
  <g id="axes_2">
   <g id="patch_8">
    <path d="M 497.565385 257.158895 
L 865.19952 257.158895 
L 865.19952 22.318125 
L 497.565385 22.318125 
z
" style="fill: #ffffff"/>
   </g>
   <g id="matplotlib.axis_3">
    <g id="xtick_9">
     <g id="line2d_18">
      <g>
       <use xlink:href="#mc4c13b431f" x="531.866178" y="257.158895" style="stroke: #000000; stroke-width: 0.8"/>
      </g>
     </g>
     <g id="text_19">
      <!-- 1.0 -->
      <g transform="translate(523.914615 271.757332) scale(0.1 -0.1)">
       <use xlink:href="#DejaVuSans-31"/>
       <use xlink:href="#DejaVuSans-2e" transform="translate(63.623047 0)"/>
       <use xlink:href="#DejaVuSans-30" transform="translate(95.410156 0)"/>
      </g>
     </g>
    </g>
    <g id="xtick_10">
     <g id="line2d_19">
      <g>
       <use xlink:href="#mc4c13b431f" x="575.841553" y="257.158895" style="stroke: #000000; stroke-width: 0.8"/>
      </g>
     </g>
     <g id="text_20">
      <!-- 1.5 -->
      <g transform="translate(567.88999 271.757332) scale(0.1 -0.1)">
       <use xlink:href="#DejaVuSans-31"/>
       <use xlink:href="#DejaVuSans-2e" transform="translate(63.623047 0)"/>
       <use xlink:href="#DejaVuSans-35" transform="translate(95.410156 0)"/>
      </g>
     </g>
    </g>
    <g id="xtick_11">
     <g id="line2d_20">
      <g>
       <use xlink:href="#mc4c13b431f" x="619.816928" y="257.158895" style="stroke: #000000; stroke-width: 0.8"/>
      </g>
     </g>
     <g id="text_21">
      <!-- 2.0 -->
      <g transform="translate(611.865365 271.757332) scale(0.1 -0.1)">
       <use xlink:href="#DejaVuSans-32"/>
       <use xlink:href="#DejaVuSans-2e" transform="translate(63.623047 0)"/>
       <use xlink:href="#DejaVuSans-30" transform="translate(95.410156 0)"/>
      </g>
     </g>
    </g>
    <g id="xtick_12">
     <g id="line2d_21">
      <g>
       <use xlink:href="#mc4c13b431f" x="663.792303" y="257.158895" style="stroke: #000000; stroke-width: 0.8"/>
      </g>
     </g>
     <g id="text_22">
      <!-- 2.5 -->
      <g transform="translate(655.84074 271.757332) scale(0.1 -0.1)">
       <use xlink:href="#DejaVuSans-32"/>
       <use xlink:href="#DejaVuSans-2e" transform="translate(63.623047 0)"/>
       <use xlink:href="#DejaVuSans-35" transform="translate(95.410156 0)"/>
      </g>
     </g>
    </g>
    <g id="xtick_13">
     <g id="line2d_22">
      <g>
       <use xlink:href="#mc4c13b431f" x="707.767677" y="257.158895" style="stroke: #000000; stroke-width: 0.8"/>
      </g>
     </g>
     <g id="text_23">
      <!-- 3.0 -->
      <g transform="translate(699.816115 271.757332) scale(0.1 -0.1)">
       <use xlink:href="#DejaVuSans-33"/>
       <use xlink:href="#DejaVuSans-2e" transform="translate(63.623047 0)"/>
       <use xlink:href="#DejaVuSans-30" transform="translate(95.410156 0)"/>
      </g>
     </g>
    </g>
    <g id="xtick_14">
     <g id="line2d_23">
      <g>
       <use xlink:href="#mc4c13b431f" x="751.743052" y="257.158895" style="stroke: #000000; stroke-width: 0.8"/>
      </g>
     </g>
     <g id="text_24">
      <!-- 3.5 -->
      <g transform="translate(743.79149 271.757332) scale(0.1 -0.1)">
       <use xlink:href="#DejaVuSans-33"/>
       <use xlink:href="#DejaVuSans-2e" transform="translate(63.623047 0)"/>
       <use xlink:href="#DejaVuSans-35" transform="translate(95.410156 0)"/>
      </g>
     </g>
    </g>
    <g id="xtick_15">
     <g id="line2d_24">
      <g>
       <use xlink:href="#mc4c13b431f" x="795.718427" y="257.158895" style="stroke: #000000; stroke-width: 0.8"/>
      </g>
     </g>
     <g id="text_25">
      <!-- 4.0 -->
      <g transform="translate(787.766865 271.757332) scale(0.1 -0.1)">
       <use xlink:href="#DejaVuSans-34"/>
       <use xlink:href="#DejaVuSans-2e" transform="translate(63.623047 0)"/>
       <use xlink:href="#DejaVuSans-30" transform="translate(95.410156 0)"/>
      </g>
     </g>
    </g>
    <g id="xtick_16">
     <g id="line2d_25">
      <g>
       <use xlink:href="#mc4c13b431f" x="839.693802" y="257.158895" style="stroke: #000000; stroke-width: 0.8"/>
      </g>
     </g>
     <g id="text_26">
      <!-- 4.5 -->
      <g transform="translate(831.74224 271.757332) scale(0.1 -0.1)">
       <use xlink:href="#DejaVuSans-34"/>
       <use xlink:href="#DejaVuSans-2e" transform="translate(63.623047 0)"/>
       <use xlink:href="#DejaVuSans-35" transform="translate(95.410156 0)"/>
      </g>
     </g>
    </g>
    <g id="text_27">
     <!-- wavelength [Å] -->
     <g transform="translate(643.344952 287.119832) scale(0.1 -0.1)">
      <use xlink:href="#DejaVuSans-77"/>
      <use xlink:href="#DejaVuSans-61" transform="translate(81.787109 0)"/>
      <use xlink:href="#DejaVuSans-76" transform="translate(143.066406 0)"/>
      <use xlink:href="#DejaVuSans-65" transform="translate(202.246094 0)"/>
      <use xlink:href="#DejaVuSans-6c" transform="translate(263.769531 0)"/>
      <use xlink:href="#DejaVuSans-65" transform="translate(291.552734 0)"/>
      <use xlink:href="#DejaVuSans-6e" transform="translate(353.076172 0)"/>
      <use xlink:href="#DejaVuSans-67" transform="translate(416.455078 0)"/>
      <use xlink:href="#DejaVuSans-74" transform="translate(479.931641 0)"/>
      <use xlink:href="#DejaVuSans-68" transform="translate(519.140625 0)"/>
      <use xlink:href="#DejaVuSans-20" transform="translate(582.519531 0)"/>
      <use xlink:href="#DejaVuSans-5b" transform="translate(614.306641 0)"/>
      <use xlink:href="#DejaVuSans-c5" transform="translate(653.320312 0)"/>
      <use xlink:href="#DejaVuSans-5d" transform="translate(721.728516 0)"/>
     </g>
    </g>
   </g>
   <g id="matplotlib.axis_4">
    <g id="ytick_6">
     <g id="line2d_26">
      <g>
       <use xlink:href="#med6db1dff5" x="497.565385" y="246.484315" style="stroke: #000000; stroke-width: 0.8"/>
      </g>
     </g>
     <g id="text_28">
      <!-- 0 -->
      <g transform="translate(484.202885 250.283533) scale(0.1 -0.1)">
       <use xlink:href="#DejaVuSans-30"/>
      </g>
     </g>
    </g>
    <g id="ytick_7">
     <g id="line2d_27">
      <g>
       <use xlink:href="#med6db1dff5" x="497.565385" y="195.040553" style="stroke: #000000; stroke-width: 0.8"/>
      </g>
     </g>
     <g id="text_29">
      <!-- 200 -->
      <g transform="translate(471.477885 198.839772) scale(0.1 -0.1)">
       <use xlink:href="#DejaVuSans-32"/>
       <use xlink:href="#DejaVuSans-30" transform="translate(63.623047 0)"/>
       <use xlink:href="#DejaVuSans-30" transform="translate(127.246094 0)"/>
      </g>
     </g>
    </g>
    <g id="ytick_8">
     <g id="line2d_28">
      <g>
       <use xlink:href="#med6db1dff5" x="497.565385" y="143.596792" style="stroke: #000000; stroke-width: 0.8"/>
      </g>
     </g>
     <g id="text_30">
      <!-- 400 -->
      <g transform="translate(471.477885 147.396011) scale(0.1 -0.1)">
       <use xlink:href="#DejaVuSans-34"/>
       <use xlink:href="#DejaVuSans-30" transform="translate(63.623047 0)"/>
       <use xlink:href="#DejaVuSans-30" transform="translate(127.246094 0)"/>
      </g>
     </g>
    </g>
    <g id="ytick_9">
     <g id="line2d_29">
      <g>
       <use xlink:href="#med6db1dff5" x="497.565385" y="92.153031" style="stroke: #000000; stroke-width: 0.8"/>
      </g>
     </g>
     <g id="text_31">
      <!-- 600 -->
      <g transform="translate(471.477885 95.95225) scale(0.1 -0.1)">
       <use xlink:href="#DejaVuSans-36"/>
       <use xlink:href="#DejaVuSans-30" transform="translate(63.623047 0)"/>
       <use xlink:href="#DejaVuSans-30" transform="translate(127.246094 0)"/>
      </g>
     </g>
    </g>
    <g id="ytick_10">
     <g id="line2d_30">
      <g>
       <use xlink:href="#med6db1dff5" x="497.565385" y="40.70927" style="stroke: #000000; stroke-width: 0.8"/>
      </g>
     </g>
     <g id="text_32">
      <!-- 800 -->
      <g transform="translate(471.477885 44.508488) scale(0.1 -0.1)">
       <use xlink:href="#DejaVuSans-38"/>
       <use xlink:href="#DejaVuSans-30" transform="translate(63.623047 0)"/>
       <use xlink:href="#DejaVuSans-30" transform="translate(127.246094 0)"/>
      </g>
     </g>
    </g>
    <g id="text_33">
     <!-- [counts] -->
     <g transform="translate(465.398198 160.35101) rotate(-90) scale(0.1 -0.1)">
      <use xlink:href="#DejaVuSans-5b"/>
      <use xlink:href="#DejaVuSans-63" transform="translate(39.013672 0)"/>
      <use xlink:href="#DejaVuSans-6f" transform="translate(93.994141 0)"/>
      <use xlink:href="#DejaVuSans-75" transform="translate(155.175781 0)"/>
      <use xlink:href="#DejaVuSans-6e" transform="translate(218.554688 0)"/>
      <use xlink:href="#DejaVuSans-74" transform="translate(281.933594 0)"/>
      <use xlink:href="#DejaVuSans-73" transform="translate(321.142578 0)"/>
      <use xlink:href="#DejaVuSans-5d" transform="translate(373.242188 0)"/>
     </g>
    </g>
   </g>
   <g id="line2d_31">
    <path d="M 514.276028 246.484315 
L 522.631349 246.484315 
L 522.631349 246.227096 
L 524.302413 246.227096 
L 524.302413 237.996094 
L 525.973477 237.996094 
L 525.973477 227.964561 
L 527.644542 227.964561 
L 527.644542 224.106278 
L 529.315606 224.106278 
L 529.315606 208.930369 
L 530.98667 208.930369 
L 530.98667 197.612741 
L 532.657734 197.612741 
L 532.657734 192.468365 
L 534.328799 192.468365 
L 534.328799 195.297772 
L 535.999863 195.297772 
L 535.999863 176.006362 
L 537.670927 176.006362 
L 537.670927 175.234705 
L 539.341991 175.234705 
L 539.341991 165.460391 
L 541.013056 165.460391 
L 541.013056 164.688734 
L 542.68412 164.688734 
L 542.68412 143.596792 
L 544.355184 143.596792 
L 544.355184 147.197855 
L 546.026248 147.197855 
L 546.026248 138.452416 
L 547.697313 138.452416 
L 547.697313 127.906445 
L 549.368377 127.906445 
L 549.368377 124.5626 
L 551.039441 124.5626 
L 551.039441 116.588817 
L 552.710505 116.588817 
L 552.710505 112.987754 
L 554.38157 112.987754 
L 554.38157 97.040188 
L 556.052634 97.040188 
L 556.052634 104.756752 
L 557.723698 104.756752 
L 557.723698 85.722561 
L 559.394762 85.722561 
L 559.394762 87.265874 
L 561.065827 87.265874 
L 561.065827 83.407591 
L 562.736891 83.407591 
L 562.736891 72.86162 
L 564.407955 72.86162 
L 564.407955 69.517776 
L 566.079019 69.517776 
L 566.079019 66.945588 
L 567.750084 66.945588 
L 567.750084 63.858962 
L 569.421148 63.858962 
L 569.421148 53.055772 
L 571.092212 53.055772 
L 571.092212 55.62796 
L 572.763276 55.62796 
L 572.763276 45.853646 
L 574.434341 45.853646 
L 574.434341 53.827429 
L 576.105405 53.827429 
L 576.105405 32.992705 
L 577.776469 32.992705 
L 577.776469 37.365425 
L 579.447533 37.365425 
L 579.447533 55.113523 
L 581.118598 55.113523 
L 581.118598 56.914054 
L 582.789662 56.914054 
L 582.789662 60.515118 
L 584.460726 60.515118 
L 584.460726 54.084648 
L 586.13179 54.084648 
L 586.13179 53.312991 
L 587.802855 53.312991 
L 587.802855 65.659494 
L 589.473919 65.659494 
L 589.473919 57.94293 
L 591.144983 57.94293 
L 591.144983 55.370742 
L 592.816047 55.370742 
L 592.816047 73.890496 
L 594.487112 73.890496 
L 594.487112 64.116181 
L 596.158176 64.116181 
L 596.158176 73.633277 
L 597.82924 73.633277 
L 597.82924 87.265874 
L 599.500304 87.265874 
L 599.500304 64.887837 
L 601.171369 64.887837 
L 601.171369 80.063747 
L 602.842433 80.063747 
L 602.842433 80.578185 
L 604.513497 80.578185 
L 604.513497 74.147714 
L 606.184561 74.147714 
L 606.184561 86.236998 
L 607.855626 86.236998 
L 607.855626 88.809186 
L 609.52669 88.809186 
L 609.52669 99.097939 
L 611.197754 99.097939 
L 611.197754 87.265874 
L 612.868818 87.265874 
L 612.868818 94.725219 
L 614.539882 94.725219 
L 614.539882 88.03753 
L 616.210947 88.03753 
L 616.210947 85.722561 
L 617.882011 85.722561 
L 617.882011 86.494217 
L 621.22414 86.494217 
L 621.22414 87.780311 
L 622.895204 87.780311 
L 622.895204 96.011313 
L 624.566268 96.011313 
L 624.566268 89.838062 
L 626.237332 89.838062 
L 626.237332 85.465342 
L 627.908397 85.465342 
L 627.908397 84.436467 
L 629.579461 84.436467 
L 629.579461 101.412908 
L 631.250525 101.412908 
L 631.250525 88.551968 
L 632.921589 88.551968 
L 632.921589 106.300065 
L 634.592654 106.300065 
L 634.592654 100.641251 
L 636.263718 100.641251 
L 636.263718 114.016629 
L 637.934782 114.016629 
L 637.934782 92.924687 
L 639.605846 92.924687 
L 639.605846 102.956221 
L 641.27691 102.956221 
L 641.27691 115.817161 
L 642.947975 115.817161 
L 642.947975 114.531067 
L 644.619039 114.531067 
L 644.619039 132.279165 
L 646.290103 132.279165 
L 646.290103 112.473317 
L 647.961168 112.473317 
L 647.961168 136.909103 
L 649.632232 136.909103 
L 649.632232 136.651884 
L 651.303296 136.651884 
L 651.303296 153.113888 
L 652.97436 153.113888 
L 652.97436 160.316014 
L 654.645424 160.316014 
L 654.645424 159.287139 
L 656.316489 159.287139 
L 656.316489 165.717609 
L 657.987553 165.717609 
L 657.987553 176.520799 
L 659.658617 176.520799 
L 659.658617 187.06677 
L 661.329682 187.06677 
L 661.329682 196.841085 
L 663.000746 196.841085 
L 663.000746 200.442148 
L 664.67181 200.442148 
L 664.67181 207.901494 
L 666.342874 207.901494 
L 666.342874 207.644275 
L 668.013938 207.644275 
L 668.013938 219.219121 
L 669.685003 219.219121 
L 669.685003 227.192904 
L 671.356067 227.192904 
L 671.356067 233.623374 
L 673.027131 233.623374 
L 673.027131 237.738875 
L 674.698195 237.738875 
L 674.698195 241.339938 
L 676.36926 241.339938 
L 676.36926 242.883251 
L 678.040324 242.883251 
L 678.040324 244.941002 
L 679.711388 244.941002 
L 679.711388 240.568282 
L 681.382452 240.568282 
L 681.382452 234.652249 
L 683.053517 234.652249 
L 683.053517 224.363497 
L 684.724581 224.363497 
L 684.724581 221.019653 
L 686.395645 221.019653 
L 686.395645 222.562966 
L 688.06671 222.562966 
L 688.06671 206.6154 
L 689.737774 206.6154 
L 689.737774 201.985461 
L 691.408838 201.985461 
L 691.408838 193.49724 
L 693.079902 193.49724 
L 693.079902 188.610083 
L 694.750967 188.610083 
L 694.750967 186.809552 
L 696.422031 186.809552 
L 696.422031 176.778018 
L 698.093095 176.778018 
L 698.093095 179.864644 
L 699.764159 179.864644 
L 699.764159 165.974828 
L 701.435224 165.974828 
L 701.435224 168.547016 
L 703.106288 168.547016 
L 703.106288 168.032579 
L 704.777352 168.032579 
L 704.777352 156.714951 
L 706.448416 156.714951 
L 706.448416 155.686076 
L 708.119481 155.686076 
L 708.119481 157.743826 
L 709.790545 157.743826 
L 709.790545 148.226731 
L 711.461609 148.226731 
L 711.461609 129.449758 
L 713.132673 129.449758 
L 713.132673 138.966854 
L 714.803738 138.966854 
L 714.803738 131.764727 
L 716.474802 131.764727 
L 716.474802 133.30804 
L 719.81693 133.30804 
L 719.81693 126.620351 
L 721.487995 126.620351 
L 721.487995 125.591476 
L 723.159059 125.591476 
L 723.159059 120.704318 
L 724.830123 120.704318 
L 724.830123 123.019288 
L 726.501187 123.019288 
L 726.501187 125.334257 
L 728.172252 125.334257 
L 728.172252 110.415566 
L 729.843316 110.415566 
L 729.843316 118.389349 
L 731.51438 118.389349 
L 731.51438 114.788286 
L 733.185444 114.788286 
L 733.185444 110.158347 
L 734.856509 110.158347 
L 734.856509 111.958879 
L 736.527573 111.958879 
L 736.527573 130.221414 
L 738.198637 130.221414 
L 738.198637 112.473317 
L 739.869701 112.473317 
L 739.869701 115.045505 
L 741.540766 115.045505 
L 741.540766 117.874911 
L 743.21183 117.874911 
L 743.21183 129.964195 
L 744.882894 129.964195 
L 744.882894 131.764727 
L 746.553958 131.764727 
L 746.553958 133.30804 
L 748.225023 133.30804 
L 748.225023 140.252948 
L 749.896087 140.252948 
L 749.896087 121.990412 
L 751.567151 121.990412 
L 751.567151 132.793602 
L 753.238215 132.793602 
L 753.238215 135.623009 
L 754.909279 135.623009 
L 754.909279 140.767385 
L 756.580344 140.767385 
L 756.580344 146.426199 
L 758.251408 146.426199 
L 758.251408 150.027262 
L 759.922472 150.027262 
L 759.922472 138.452416 
L 761.593537 138.452416 
L 761.593537 138.966854 
L 763.264601 138.966854 
L 763.264601 159.287139 
L 764.935665 159.287139 
L 764.935665 152.085013 
L 766.606729 152.085013 
L 766.606729 154.657201 
L 768.277793 154.657201 
L 768.277793 147.712293 
L 769.948858 147.712293 
L 769.948858 155.428857 
L 771.619922 155.428857 
L 771.619922 156.457732 
L 774.962051 156.457732 
L 774.962051 161.087671 
L 776.633115 161.087671 
L 776.633115 167.260922 
L 778.304179 167.260922 
L 778.304179 163.917078 
L 779.975243 163.917078 
L 779.975243 165.717609 
L 781.646308 165.717609 
L 781.646308 164.688734 
L 783.317372 164.688734 
L 783.317372 166.489266 
L 784.988436 166.489266 
L 784.988436 170.090329 
L 786.6595 170.090329 
L 786.6595 175.234705 
L 788.330565 175.234705 
L 788.330565 177.292456 
L 790.001629 177.292456 
L 790.001629 174.977486 
L 791.672693 174.977486 
L 791.672693 181.407957 
L 793.343757 181.407957 
L 793.343757 174.20583 
L 795.014822 174.20583 
L 795.014822 185.523457 
L 796.685886 185.523457 
L 796.685886 187.581208 
L 798.35695 187.581208 
L 798.35695 190.410615 
L 800.028014 190.410615 
L 800.028014 196.326647 
L 801.699079 196.326647 
L 801.699079 192.468365 
L 803.370143 192.468365 
L 803.370143 206.6154 
L 805.041207 206.6154 
L 805.041207 202.757118 
L 806.712271 202.757118 
L 806.712271 199.156054 
L 808.383336 199.156054 
L 808.383336 204.814868 
L 810.0544 204.814868 
L 810.0544 205.843743 
L 811.725464 205.843743 
L 811.725464 215.875277 
L 813.396528 215.875277 
L 813.396528 219.47634 
L 815.067593 219.47634 
L 815.067593 221.019653 
L 816.738657 221.019653 
L 816.738657 223.591841 
L 818.409721 223.591841 
L 818.409721 226.421248 
L 820.080785 226.421248 
L 820.080785 227.964561 
L 821.75185 227.964561 
L 821.75185 228.478998 
L 823.422914 228.478998 
L 823.422914 234.652249 
L 825.093978 234.652249 
L 825.093978 233.623374 
L 826.765042 233.623374 
L 826.765042 238.253313 
L 828.436107 238.253313 
L 828.436107 241.08272 
L 830.107171 241.08272 
L 830.107171 242.111595 
L 833.449299 242.111595 
L 833.449299 244.683783 
L 835.120363 244.683783 
L 835.120363 244.169345 
L 836.791428 244.169345 
L 836.791428 246.227096 
L 838.462492 246.227096 
L 838.462492 246.484315 
L 848.488877 246.484315 
L 848.488877 246.484315 
" clip-path="url(#pc593404e84)" style="fill: none; stroke: #1f77b4; stroke-width: 1.5; stroke-linecap: square"/>
   </g>
   <g id="line2d_32">
    <path d="M 514.276028 246.484315 
L 522.631349 246.484315 
L 522.631349 244.683783 
L 524.302413 244.683783 
L 524.302413 237.481656 
L 525.973477 237.481656 
L 525.973477 228.478998 
L 527.644542 228.478998 
L 527.644542 224.106278 
L 529.315606 224.106278 
L 529.315606 210.216463 
L 530.98667 210.216463 
L 530.98667 197.098304 
L 532.657734 197.098304 
L 532.657734 191.696709 
L 534.328799 191.696709 
L 534.328799 194.011678 
L 535.999863 194.011678 
L 535.999863 178.064112 
L 537.670927 178.064112 
L 537.670927 174.720268 
L 539.341991 174.720268 
L 539.341991 167.77536 
L 541.013056 167.77536 
L 541.013056 158.001045 
L 542.68412 158.001045 
L 542.68412 153.885544 
L 544.355184 153.885544 
L 544.355184 141.79626 
L 546.026248 141.79626 
L 546.026248 136.137447 
L 547.697313 136.137447 
L 547.697313 127.906445 
L 549.368377 127.906445 
L 549.368377 128.93532 
L 551.039441 128.93532 
L 551.039441 113.502192 
L 552.710505 113.502192 
L 552.710505 108.872253 
L 554.38157 108.872253 
L 554.38157 101.670127 
L 557.723698 101.670127 
L 557.723698 86.236998 
L 559.394762 86.236998 
L 559.394762 97.554626 
L 561.065827 97.554626 
L 561.065827 83.150373 
L 562.736891 83.150373 
L 562.736891 68.231682 
L 564.407955 68.231682 
L 564.407955 65.145056 
L 566.079019 65.145056 
L 566.079019 59.229024 
L 567.750084 59.229024 
L 567.750084 57.94293 
L 569.421148 57.94293 
L 569.421148 63.344525 
L 571.092212 63.344525 
L 571.092212 56.914054 
L 572.763276 56.914054 
L 572.763276 45.853646 
L 574.434341 45.853646 
L 574.434341 46.110865 
L 576.105405 46.110865 
L 576.105405 41.223707 
L 577.776469 41.223707 
L 577.776469 55.113523 
L 579.447533 55.113523 
L 579.447533 45.853646 
L 581.118598 45.853646 
L 581.118598 55.370742 
L 582.789662 55.370742 
L 582.789662 61.029555 
L 586.13179 61.029555 
L 586.13179 53.312991 
L 587.802855 53.312991 
L 587.802855 56.914054 
L 589.473919 56.914054 
L 589.473919 55.370742 
L 591.144983 55.370742 
L 591.144983 50.226365 
L 592.816047 50.226365 
L 592.816047 87.523092 
L 594.487112 87.523092 
L 594.487112 64.116181 
L 596.158176 64.116181 
L 596.158176 63.858962 
L 597.82924 63.858962 
L 597.82924 77.748778 
L 601.171369 77.748778 
L 601.171369 77.23434 
L 602.842433 77.23434 
L 602.842433 76.205465 
L 604.513497 76.205465 
L 604.513497 82.893154 
L 606.184561 82.893154 
L 606.184561 85.465342 
L 607.855626 85.465342 
L 607.855626 85.208123 
L 609.52669 85.208123 
L 609.52669 104.499534 
L 611.197754 104.499534 
L 611.197754 83.66481 
L 612.868818 83.66481 
L 612.868818 90.09528 
L 614.539882 90.09528 
L 614.539882 87.523092 
L 616.210947 87.523092 
L 616.210947 90.352499 
L 617.882011 90.352499 
L 617.882011 89.580843 
L 619.553075 89.580843 
L 619.553075 85.465342 
L 621.22414 85.465342 
L 621.22414 86.494217 
L 622.895204 86.494217 
L 622.895204 87.523092 
L 624.566268 87.523092 
L 624.566268 94.210781 
L 626.237332 94.210781 
L 626.237332 96.268532 
L 627.908397 96.268532 
L 627.908397 82.378716 
L 629.579461 82.378716 
L 629.579461 97.040188 
L 631.250525 97.040188 
L 631.250525 96.782969 
L 632.921589 96.782969 
L 632.921589 97.554626 
L 634.592654 97.554626 
L 634.592654 108.615034 
L 636.263718 108.615034 
L 636.263718 94.725219 
L 637.934782 94.725219 
L 637.934782 105.528409 
L 639.605846 105.528409 
L 639.605846 101.670127 
L 641.27691 101.670127 
L 641.27691 110.158347 
L 642.947975 110.158347 
L 642.947975 127.134788 
L 644.619039 127.134788 
L 644.619039 129.192539 
L 646.290103 129.192539 
L 646.290103 115.302723 
L 647.961168 115.302723 
L 647.961168 129.449758 
L 649.632232 129.449758 
L 649.632232 143.339573 
L 651.303296 143.339573 
L 651.303296 150.027262 
L 652.97436 150.027262 
L 652.97436 158.258264 
L 654.645424 158.258264 
L 654.645424 163.659859 
L 656.316489 163.659859 
L 656.316489 160.573233 
L 657.987553 160.573233 
L 657.987553 176.778018 
L 659.658617 176.778018 
L 659.658617 184.494582 
L 661.329682 184.494582 
L 661.329682 199.413273 
L 663.000746 199.413273 
L 663.000746 201.728242 
L 664.67181 201.728242 
L 664.67181 207.129837 
L 666.342874 207.129837 
L 666.342874 207.901494 
L 668.013938 207.901494 
L 668.013938 218.704683 
L 669.685003 218.704683 
L 669.685003 226.421248 
L 671.356067 226.421248 
L 671.356067 232.851718 
L 673.027131 232.851718 
L 673.027131 237.996094 
L 674.698195 237.996094 
L 674.698195 241.597157 
L 676.36926 241.597157 
L 676.36926 242.626032 
L 679.711388 242.626032 
L 679.711388 239.539407 
L 681.382452 239.539407 
L 681.382452 234.909468 
L 683.053517 234.909468 
L 683.053517 224.363497 
L 684.724581 224.363497 
L 684.724581 222.048528 
L 686.395645 222.048528 
L 686.395645 220.247996 
L 688.06671 220.247996 
L 688.06671 207.644275 
L 689.737774 207.644275 
L 689.737774 202.24268 
L 691.408838 202.24268 
L 691.408838 189.124521 
L 693.079902 189.124521 
L 693.079902 191.953928 
L 694.750967 191.953928 
L 694.750967 186.037895 
L 696.422031 186.037895 
L 696.422031 179.350206 
L 698.093095 179.350206 
L 698.093095 177.806893 
L 699.764159 177.806893 
L 699.764159 167.260922 
L 701.435224 167.260922 
L 701.435224 168.804235 
L 703.106288 168.804235 
L 703.106288 163.659859 
L 704.777352 163.659859 
L 704.777352 159.544358 
L 706.448416 159.544358 
L 706.448416 159.02992 
L 708.119481 159.02992 
L 708.119481 154.142763 
L 709.790545 154.142763 
L 709.790545 146.426199 
L 711.461609 146.426199 
L 711.461609 133.30804 
L 716.474802 133.30804 
L 716.474802 131.764727 
L 718.145866 131.764727 
L 718.145866 135.623009 
L 719.81693 135.623009 
L 719.81693 131.250289 
L 721.487995 131.250289 
L 721.487995 125.334257 
L 723.159059 125.334257 
L 723.159059 123.533725 
L 724.830123 123.533725 
L 724.830123 121.475975 
L 726.501187 121.475975 
L 726.501187 112.730535 
L 728.172252 112.730535 
L 728.172252 123.276506 
L 729.843316 123.276506 
L 729.843316 118.389349 
L 731.51438 118.389349 
L 731.51438 112.987754 
L 733.185444 112.987754 
L 733.185444 103.727877 
L 734.856509 103.727877 
L 734.856509 123.790944 
L 736.527573 123.790944 
L 736.527573 124.305382 
L 738.198637 124.305382 
L 738.198637 119.418224 
L 739.869701 119.418224 
L 739.869701 112.987754 
L 741.540766 112.987754 
L 741.540766 119.418224 
L 743.21183 119.418224 
L 743.21183 128.420883 
L 744.882894 128.420883 
L 744.882894 132.279165 
L 746.553958 132.279165 
L 746.553958 122.247631 
L 748.225023 122.247631 
L 748.225023 136.909103 
L 749.896087 136.909103 
L 749.896087 132.536383 
L 751.567151 132.536383 
L 751.567151 134.851353 
L 753.238215 134.851353 
L 753.238215 131.250289 
L 754.909279 131.250289 
L 754.909279 140.767385 
L 756.580344 140.767385 
L 756.580344 144.11123 
L 758.251408 144.11123 
L 758.251408 151.056137 
L 759.922472 151.056137 
L 759.922472 144.625667 
L 761.593537 144.625667 
L 761.593537 138.452416 
L 763.264601 138.452416 
L 763.264601 155.171638 
L 764.935665 155.171638 
L 764.935665 155.428857 
L 766.606729 155.428857 
L 766.606729 144.11123 
L 768.277793 144.11123 
L 768.277793 153.885544 
L 769.948858 153.885544 
L 769.948858 162.888203 
L 771.619922 162.888203 
L 771.619922 151.570575 
L 773.290986 151.570575 
L 773.290986 155.171638 
L 774.962051 155.171638 
L 774.962051 163.659859 
L 776.633115 163.659859 
L 776.633115 164.431515 
L 778.304179 164.431515 
L 778.304179 164.945953 
L 779.975243 164.945953 
L 779.975243 161.602109 
L 781.646308 161.602109 
L 781.646308 167.518141 
L 783.317372 167.518141 
L 783.317372 168.032579 
L 784.988436 168.032579 
L 784.988436 167.77536 
L 786.6595 167.77536 
L 786.6595 175.491924 
L 788.330565 175.491924 
L 788.330565 178.835769 
L 790.001629 178.835769 
L 790.001629 172.662517 
L 791.672693 172.662517 
L 791.672693 179.864644 
L 793.343757 179.864644 
L 793.343757 180.379081 
L 795.014822 180.379081 
L 795.014822 183.980145 
L 796.685886 183.980145 
L 796.685886 187.581208 
L 798.35695 187.581208 
L 798.35695 189.896177 
L 800.028014 189.896177 
L 800.028014 195.297772 
L 801.699079 195.297772 
L 801.699079 194.011678 
L 803.370143 194.011678 
L 803.370143 203.014336 
L 805.041207 203.014336 
L 805.041207 209.187588 
L 806.712271 209.187588 
L 806.712271 198.384398 
L 808.383336 198.384398 
L 808.383336 202.499899 
L 810.0544 202.499899 
L 810.0544 206.100962 
L 811.725464 206.100962 
L 811.725464 214.331964 
L 813.396528 214.331964 
L 813.396528 219.733559 
L 815.067593 219.733559 
L 815.067593 221.019653 
L 816.738657 221.019653 
L 816.738657 222.820184 
L 818.409721 222.820184 
L 818.409721 225.392372 
L 820.080785 225.392372 
L 820.080785 228.736217 
L 823.422914 228.736217 
L 823.422914 234.652249 
L 825.093978 234.652249 
L 825.093978 234.395031 
L 826.765042 234.395031 
L 826.765042 238.510532 
L 828.436107 238.510532 
L 828.436107 240.311063 
L 830.107171 240.311063 
L 830.107171 242.626032 
L 831.778235 242.626032 
L 831.778235 241.597157 
L 833.449299 241.597157 
L 833.449299 244.683783 
L 836.791428 244.683783 
L 836.791428 245.712658 
L 838.462492 245.712658 
L 838.462492 246.484315 
L 840.133556 246.484315 
L 840.133556 246.227096 
L 841.804621 246.227096 
L 841.804621 246.484315 
L 848.488877 246.484315 
L 848.488877 246.484315 
" clip-path="url(#pc593404e84)" style="fill: none; stroke: #ff7f0e; stroke-width: 1.5; stroke-linecap: square"/>
   </g>
   <g id="patch_9">
    <path d="M 497.565385 257.158895 
L 497.565385 22.318125 
" style="fill: none; stroke: #000000; stroke-width: 0.8; stroke-linejoin: miter; stroke-linecap: square"/>
   </g>
   <g id="patch_10">
    <path d="M 865.19952 257.158895 
L 865.19952 22.318125 
" style="fill: none; stroke: #000000; stroke-width: 0.8; stroke-linejoin: miter; stroke-linecap: square"/>
   </g>
   <g id="patch_11">
    <path d="M 497.565385 257.158895 
L 865.19952 257.158895 
" style="fill: none; stroke: #000000; stroke-width: 0.8; stroke-linejoin: miter; stroke-linecap: square"/>
   </g>
   <g id="patch_12">
    <path d="M 497.565385 22.318125 
L 865.19952 22.318125 
" style="fill: none; stroke: #000000; stroke-width: 0.8; stroke-linejoin: miter; stroke-linecap: square"/>
   </g>
   <g id="text_34">
    <!-- Pixel 2 -->
    <g transform="translate(661.78589 16.318125) scale(0.12 -0.12)">
     <use xlink:href="#DejaVuSans-50"/>
     <use xlink:href="#DejaVuSans-69" transform="translate(58.052734 0)"/>
     <use xlink:href="#DejaVuSans-78" transform="translate(85.835938 0)"/>
     <use xlink:href="#DejaVuSans-65" transform="translate(141.890625 0)"/>
     <use xlink:href="#DejaVuSans-6c" transform="translate(203.414062 0)"/>
     <use xlink:href="#DejaVuSans-20" transform="translate(231.197266 0)"/>
     <use xlink:href="#DejaVuSans-32" transform="translate(262.984375 0)"/>
    </g>
   </g>
   <g id="legend_2">
    <g id="patch_13">
     <path d="M 761.196395 59.9525 
L 858.19952 59.9525 
Q 860.19952 59.9525 860.19952 57.9525 
L 860.19952 29.318125 
Q 860.19952 27.318125 858.19952 27.318125 
L 761.196395 27.318125 
Q 759.196395 27.318125 759.196395 29.318125 
L 759.196395 57.9525 
Q 759.196395 59.9525 761.196395 59.9525 
z
" style="fill: #ffffff; opacity: 0.8; stroke: #cccccc; stroke-linejoin: miter"/>
    </g>
    <g id="line2d_33">
     <path d="M 763.196395 35.416562 
L 763.196395 35.416562 
L 773.196395 35.416562 
L 773.196395 35.416562 
L 783.196395 35.416562 
" style="fill: none; stroke: #1f77b4; stroke-width: 1.5; stroke-linecap: square"/>
    </g>
    <g id="text_35">
     <!-- wfm -->
     <g transform="translate(791.196395 38.916562) scale(0.1 -0.1)">
      <use xlink:href="#DejaVuSans-77"/>
      <use xlink:href="#DejaVuSans-66" transform="translate(81.787109 0)"/>
      <use xlink:href="#DejaVuSans-6d" transform="translate(116.992188 0)"/>
     </g>
    </g>
    <g id="line2d_34">
     <path d="M 763.196395 50.094687 
L 763.196395 50.094687 
L 773.196395 50.094687 
L 773.196395 50.094687 
L 783.196395 50.094687 
" style="fill: none; stroke: #ff7f0e; stroke-width: 1.5; stroke-linecap: square"/>
    </g>
    <g id="text_36">
     <!-- ground_truth -->
     <g transform="translate(791.196395 53.594687) scale(0.1 -0.1)">
      <use xlink:href="#DejaVuSans-67"/>
      <use xlink:href="#DejaVuSans-72" transform="translate(63.476562 0)"/>
      <use xlink:href="#DejaVuSans-6f" transform="translate(102.339844 0)"/>
      <use xlink:href="#DejaVuSans-75" transform="translate(163.521484 0)"/>
      <use xlink:href="#DejaVuSans-6e" transform="translate(226.900391 0)"/>
      <use xlink:href="#DejaVuSans-64" transform="translate(290.279297 0)"/>
      <use xlink:href="#DejaVuSans-5f" transform="translate(353.755859 0)"/>
      <use xlink:href="#DejaVuSans-74" transform="translate(403.755859 0)"/>
      <use xlink:href="#DejaVuSans-72" transform="translate(442.964844 0)"/>
      <use xlink:href="#DejaVuSans-75" transform="translate(484.078125 0)"/>
      <use xlink:href="#DejaVuSans-74" transform="translate(547.457031 0)"/>
      <use xlink:href="#DejaVuSans-68" transform="translate(586.666016 0)"/>
     </g>
    </g>
   </g>
  </g>
 </g>
 <defs>
  <clipPath id="pe7d83d3fd5">
   <rect x="46.965625" y="22.318125" width="367.634135" height="234.84077"/>
  </clipPath>
  <clipPath id="pc593404e84">
   <rect x="497.565385" y="22.318125" width="367.634135" height="234.84077"/>
  </clipPath>
 </defs>
</svg>
