<?xml version="1.0" encoding="utf-8" standalone="no"?>
<!DOCTYPE svg PUBLIC "-//W3C//DTD SVG 1.1//EN"
  "http://www.w3.org/Graphics/SVG/1.1/DTD/svg11.dtd">
<svg xmlns:xlink="http://www.w3.org/1999/xlink" width="872.39952pt" height="296.39952pt" viewBox="0 0 872.39952 296.39952" xmlns="http://www.w3.org/2000/svg" version="1.1">
 <metadata>
  <rdf:RDF xmlns:dc="http://purl.org/dc/elements/1.1/" xmlns:cc="http://creativecommons.org/ns#" xmlns:rdf="http://www.w3.org/1999/02/22-rdf-syntax-ns#">
   <cc:Work>
    <dc:type rdf:resource="http://purl.org/dc/dcmitype/StillImage"/>
    <dc:date>2025-11-07T09:32:56.209939</dc:date>
    <dc:format>image/svg+xml</dc:format>
    <dc:creator>
     <cc:Agent>
      <dc:title>Matplotlib v3.10.7, https://matplotlib.org/</dc:title>
     </cc:Agent>
    </dc:creator>
   </cc:Work>
  </rdf:RDF>
 </metadata>
 <defs>
  <style type="text/css">*{stroke-linejoin: round; stroke-linecap: butt}</style>
 </defs>
 <g id="figure_1">
  <g id="patch_1">
   <path d="M 0 296.39952 
L 872.39952 296.39952 
L 872.39952 0 
L 0 0 
z
" style="fill: #ffffff"/>
  </g>
  <g id="axes_1">
   <g id="patch_2">
    <path d="M 53.328125 257.158895 
L 414.59976 257.158895 
L 414.59976 7.2 
L 53.328125 7.2 
z
" style="fill: #ffffff"/>
   </g>
   <g id="matplotlib.axis_1">
    <g id="xtick_1">
     <g id="line2d_1">
      <defs>
       <path id="mbad2ca15fa" d="M 0 0 
L 0 3.5 
" style="stroke: #000000; stroke-width: 0.8"/>
      </defs>
      <g>
       <use xlink:href="#mbad2ca15fa" x="68.925644" y="257.158895" style="stroke: #000000; stroke-width: 0.8"/>
      </g>
     </g>
     <g id="text_1">
      <!-- 0 -->
      <g transform="translate(65.744394 271.757332) scale(0.1 -0.1)">
       <defs>
        <path id="DejaVuSans-30" d="M 2034 4250 
Q 1547 4250 1301 3770 
Q 1056 3291 1056 2328 
Q 1056 1369 1301 889 
Q 1547 409 2034 409 
Q 2525 409 2770 889 
Q 3016 1369 3016 2328 
Q 3016 3291 2770 3770 
Q 2525 4250 2034 4250 
z
M 2034 4750 
Q 2819 4750 3233 4129 
Q 3647 3509 3647 2328 
Q 3647 1150 3233 529 
Q 2819 -91 2034 -91 
Q 1250 -91 836 529 
Q 422 1150 422 2328 
Q 422 3509 836 4129 
Q 1250 4750 2034 4750 
z
" transform="scale(0.015625)"/>
       </defs>
       <use xlink:href="#DejaVuSans-30"/>
      </g>
     </g>
    </g>
    <g id="xtick_2">
     <g id="line2d_2">
      <g>
       <use xlink:href="#mbad2ca15fa" x="135.023902" y="257.158895" style="stroke: #000000; stroke-width: 0.8"/>
      </g>
     </g>
     <g id="text_2">
      <!-- 1000 -->
      <g transform="translate(122.298902 271.757332) scale(0.1 -0.1)">
       <defs>
        <path id="DejaVuSans-31" d="M 794 531 
L 1825 531 
L 1825 4091 
L 703 3866 
L 703 4441 
L 1819 4666 
L 2450 4666 
L 2450 531 
L 3481 531 
L 3481 0 
L 794 0 
L 794 531 
z
" transform="scale(0.015625)"/>
       </defs>
       <use xlink:href="#DejaVuSans-31"/>
       <use xlink:href="#DejaVuSans-30" transform="translate(63.623047 0)"/>
       <use xlink:href="#DejaVuSans-30" transform="translate(127.246094 0)"/>
       <use xlink:href="#DejaVuSans-30" transform="translate(190.869141 0)"/>
      </g>
     </g>
    </g>
    <g id="xtick_3">
     <g id="line2d_3">
      <g>
       <use xlink:href="#mbad2ca15fa" x="201.12216" y="257.158895" style="stroke: #000000; stroke-width: 0.8"/>
      </g>
     </g>
     <g id="text_3">
      <!-- 2000 -->
      <g transform="translate(188.39716 271.757332) scale(0.1 -0.1)">
       <defs>
        <path id="DejaVuSans-32" d="M 1228 531 
L 3431 531 
L 3431 0 
L 469 0 
L 469 531 
Q 828 903 1448 1529 
Q 2069 2156 2228 2338 
Q 2531 2678 2651 2914 
Q 2772 3150 2772 3378 
Q 2772 3750 2511 3984 
Q 2250 4219 1831 4219 
Q 1534 4219 1204 4116 
Q 875 4013 500 3803 
L 500 4441 
Q 881 4594 1212 4672 
Q 1544 4750 1819 4750 
Q 2544 4750 2975 4387 
Q 3406 4025 3406 3419 
Q 3406 3131 3298 2873 
Q 3191 2616 2906 2266 
Q 2828 2175 2409 1742 
Q 1991 1309 1228 531 
z
" transform="scale(0.015625)"/>
       </defs>
       <use xlink:href="#DejaVuSans-32"/>
       <use xlink:href="#DejaVuSans-30" transform="translate(63.623047 0)"/>
       <use xlink:href="#DejaVuSans-30" transform="translate(127.246094 0)"/>
       <use xlink:href="#DejaVuSans-30" transform="translate(190.869141 0)"/>
      </g>
     </g>
    </g>
    <g id="xtick_4">
     <g id="line2d_4">
      <g>
       <use xlink:href="#mbad2ca15fa" x="267.220418" y="257.158895" style="stroke: #000000; stroke-width: 0.8"/>
      </g>
     </g>
     <g id="text_4">
      <!-- 3000 -->
      <g transform="translate(254.495418 271.757332) scale(0.1 -0.1)">
       <defs>
        <path id="DejaVuSans-33" d="M 2597 2516 
Q 3050 2419 3304 2112 
Q 3559 1806 3559 1356 
Q 3559 666 3084 287 
Q 2609 -91 1734 -91 
Q 1441 -91 1130 -33 
Q 819 25 488 141 
L 488 750 
Q 750 597 1062 519 
Q 1375 441 1716 441 
Q 2309 441 2620 675 
Q 2931 909 2931 1356 
Q 2931 1769 2642 2001 
Q 2353 2234 1838 2234 
L 1294 2234 
L 1294 2753 
L 1863 2753 
Q 2328 2753 2575 2939 
Q 2822 3125 2822 3475 
Q 2822 3834 2567 4026 
Q 2313 4219 1838 4219 
Q 1578 4219 1281 4162 
Q 984 4106 628 3988 
L 628 4550 
Q 988 4650 1302 4700 
Q 1616 4750 1894 4750 
Q 2613 4750 3031 4423 
Q 3450 4097 3450 3541 
Q 3450 3153 3228 2886 
Q 3006 2619 2597 2516 
z
" transform="scale(0.015625)"/>
       </defs>
       <use xlink:href="#DejaVuSans-33"/>
       <use xlink:href="#DejaVuSans-30" transform="translate(63.623047 0)"/>
       <use xlink:href="#DejaVuSans-30" transform="translate(127.246094 0)"/>
       <use xlink:href="#DejaVuSans-30" transform="translate(190.869141 0)"/>
      </g>
     </g>
    </g>
    <g id="xtick_5">
     <g id="line2d_5">
      <g>
       <use xlink:href="#mbad2ca15fa" x="333.318676" y="257.158895" style="stroke: #000000; stroke-width: 0.8"/>
      </g>
     </g>
     <g id="text_5">
      <!-- 4000 -->
      <g transform="translate(320.593676 271.757332) scale(0.1 -0.1)">
       <defs>
        <path id="DejaVuSans-34" d="M 2419 4116 
L 825 1625 
L 2419 1625 
L 2419 4116 
z
M 2253 4666 
L 3047 4666 
L 3047 1625 
L 3713 1625 
L 3713 1100 
L 3047 1100 
L 3047 0 
L 2419 0 
L 2419 1100 
L 313 1100 
L 313 1709 
L 2253 4666 
z
" transform="scale(0.015625)"/>
       </defs>
       <use xlink:href="#DejaVuSans-34"/>
       <use xlink:href="#DejaVuSans-30" transform="translate(63.623047 0)"/>
       <use xlink:href="#DejaVuSans-30" transform="translate(127.246094 0)"/>
       <use xlink:href="#DejaVuSans-30" transform="translate(190.869141 0)"/>
      </g>
     </g>
    </g>
    <g id="xtick_6">
     <g id="line2d_6">
      <g>
       <use xlink:href="#mbad2ca15fa" x="399.416934" y="257.158895" style="stroke: #000000; stroke-width: 0.8"/>
      </g>
     </g>
     <g id="text_6">
      <!-- 5000 -->
      <g transform="translate(386.691934 271.757332) scale(0.1 -0.1)">
       <defs>
        <path id="DejaVuSans-35" d="M 691 4666 
L 3169 4666 
L 3169 4134 
L 1269 4134 
L 1269 2991 
Q 1406 3038 1543 3061 
Q 1681 3084 1819 3084 
Q 2600 3084 3056 2656 
Q 3513 2228 3513 1497 
Q 3513 744 3044 326 
Q 2575 -91 1722 -91 
Q 1428 -91 1123 -41 
Q 819 9 494 109 
L 494 744 
Q 775 591 1075 516 
Q 1375 441 1709 441 
Q 2250 441 2565 725 
Q 2881 1009 2881 1497 
Q 2881 1984 2565 2268 
Q 2250 2553 1709 2553 
Q 1456 2553 1204 2497 
Q 953 2441 691 2322 
L 691 4666 
z
" transform="scale(0.015625)"/>
       </defs>
       <use xlink:href="#DejaVuSans-35"/>
       <use xlink:href="#DejaVuSans-30" transform="translate(63.623047 0)"/>
       <use xlink:href="#DejaVuSans-30" transform="translate(127.246094 0)"/>
       <use xlink:href="#DejaVuSans-30" transform="translate(190.869141 0)"/>
      </g>
     </g>
    </g>
    <g id="text_7">
     <!-- birth_time [µs] -->
     <g transform="translate(197.14363 285.435457) scale(0.1 -0.1)">
      <defs>
       <path id="DejaVuSans-62" d="M 3116 1747 
Q 3116 2381 2855 2742 
Q 2594 3103 2138 3103 
Q 1681 3103 1420 2742 
Q 1159 2381 1159 1747 
Q 1159 1113 1420 752 
Q 1681 391 2138 391 
Q 2594 391 2855 752 
Q 3116 1113 3116 1747 
z
M 1159 2969 
Q 1341 3281 1617 3432 
Q 1894 3584 2278 3584 
Q 2916 3584 3314 3078 
Q 3713 2572 3713 1747 
Q 3713 922 3314 415 
Q 2916 -91 2278 -91 
Q 1894 -91 1617 61 
Q 1341 213 1159 525 
L 1159 0 
L 581 0 
L 581 4863 
L 1159 4863 
L 1159 2969 
z
" transform="scale(0.015625)"/>
       <path id="DejaVuSans-69" d="M 603 3500 
L 1178 3500 
L 1178 0 
L 603 0 
L 603 3500 
z
M 603 4863 
L 1178 4863 
L 1178 4134 
L 603 4134 
L 603 4863 
z
" transform="scale(0.015625)"/>
       <path id="DejaVuSans-72" d="M 2631 2963 
Q 2534 3019 2420 3045 
Q 2306 3072 2169 3072 
Q 1681 3072 1420 2755 
Q 1159 2438 1159 1844 
L 1159 0 
L 581 0 
L 581 3500 
L 1159 3500 
L 1159 2956 
Q 1341 3275 1631 3429 
Q 1922 3584 2338 3584 
Q 2397 3584 2469 3576 
Q 2541 3569 2628 3553 
L 2631 2963 
z
" transform="scale(0.015625)"/>
       <path id="DejaVuSans-74" d="M 1172 4494 
L 1172 3500 
L 2356 3500 
L 2356 3053 
L 1172 3053 
L 1172 1153 
Q 1172 725 1289 603 
Q 1406 481 1766 481 
L 2356 481 
L 2356 0 
L 1766 0 
Q 1100 0 847 248 
Q 594 497 594 1153 
L 594 3053 
L 172 3053 
L 172 3500 
L 594 3500 
L 594 4494 
L 1172 4494 
z
" transform="scale(0.015625)"/>
       <path id="DejaVuSans-68" d="M 3513 2113 
L 3513 0 
L 2938 0 
L 2938 2094 
Q 2938 2591 2744 2837 
Q 2550 3084 2163 3084 
Q 1697 3084 1428 2787 
Q 1159 2491 1159 1978 
L 1159 0 
L 581 0 
L 581 4863 
L 1159 4863 
L 1159 2956 
Q 1366 3272 1645 3428 
Q 1925 3584 2291 3584 
Q 2894 3584 3203 3211 
Q 3513 2838 3513 2113 
z
" transform="scale(0.015625)"/>
       <path id="DejaVuSans-5f" d="M 3263 -1063 
L 3263 -1509 
L -63 -1509 
L -63 -1063 
L 3263 -1063 
z
" transform="scale(0.015625)"/>
       <path id="DejaVuSans-6d" d="M 3328 2828 
Q 3544 3216 3844 3400 
Q 4144 3584 4550 3584 
Q 5097 3584 5394 3201 
Q 5691 2819 5691 2113 
L 5691 0 
L 5113 0 
L 5113 2094 
Q 5113 2597 4934 2840 
Q 4756 3084 4391 3084 
Q 3944 3084 3684 2787 
Q 3425 2491 3425 1978 
L 3425 0 
L 2847 0 
L 2847 2094 
Q 2847 2600 2669 2842 
Q 2491 3084 2119 3084 
Q 1678 3084 1418 2786 
Q 1159 2488 1159 1978 
L 1159 0 
L 581 0 
L 581 3500 
L 1159 3500 
L 1159 2956 
Q 1356 3278 1631 3431 
Q 1906 3584 2284 3584 
Q 2666 3584 2933 3390 
Q 3200 3197 3328 2828 
z
" transform="scale(0.015625)"/>
       <path id="DejaVuSans-65" d="M 3597 1894 
L 3597 1613 
L 953 1613 
Q 991 1019 1311 708 
Q 1631 397 2203 397 
Q 2534 397 2845 478 
Q 3156 559 3463 722 
L 3463 178 
Q 3153 47 2828 -22 
Q 2503 -91 2169 -91 
Q 1331 -91 842 396 
Q 353 884 353 1716 
Q 353 2575 817 3079 
Q 1281 3584 2069 3584 
Q 2775 3584 3186 3129 
Q 3597 2675 3597 1894 
z
M 3022 2063 
Q 3016 2534 2758 2815 
Q 2500 3097 2075 3097 
Q 1594 3097 1305 2825 
Q 1016 2553 972 2059 
L 3022 2063 
z
" transform="scale(0.015625)"/>
       <path id="DejaVuSans-20" transform="scale(0.015625)"/>
       <path id="DejaVuSans-5b" d="M 550 4863 
L 1875 4863 
L 1875 4416 
L 1125 4416 
L 1125 -397 
L 1875 -397 
L 1875 -844 
L 550 -844 
L 550 4863 
z
" transform="scale(0.015625)"/>
       <path id="DejaVuSans-b5" d="M 544 -1331 
L 544 3500 
L 1119 3500 
L 1119 1325 
Q 1119 872 1334 640 
Q 1550 409 1972 409 
Q 2434 409 2667 671 
Q 2900 934 2900 1459 
L 2900 3500 
L 3475 3500 
L 3475 806 
Q 3475 619 3529 530 
Q 3584 441 3700 441 
Q 3728 441 3778 458 
Q 3828 475 3916 513 
L 3916 50 
Q 3788 -22 3673 -56 
Q 3559 -91 3450 -91 
Q 3234 -91 3106 31 
Q 2978 153 2931 403 
Q 2775 156 2548 32 
Q 2322 -91 2016 -91 
Q 1697 -91 1473 31 
Q 1250 153 1119 397 
L 1119 -1331 
L 544 -1331 
z
" transform="scale(0.015625)"/>
       <path id="DejaVuSans-73" d="M 2834 3397 
L 2834 2853 
Q 2591 2978 2328 3040 
Q 2066 3103 1784 3103 
Q 1356 3103 1142 2972 
Q 928 2841 928 2578 
Q 928 2378 1081 2264 
Q 1234 2150 1697 2047 
L 1894 2003 
Q 2506 1872 2764 1633 
Q 3022 1394 3022 966 
Q 3022 478 2636 193 
Q 2250 -91 1575 -91 
Q 1294 -91 989 -36 
Q 684 19 347 128 
L 347 722 
Q 666 556 975 473 
Q 1284 391 1588 391 
Q 1994 391 2212 530 
Q 2431 669 2431 922 
Q 2431 1156 2273 1281 
Q 2116 1406 1581 1522 
L 1381 1569 
Q 847 1681 609 1914 
Q 372 2147 372 2553 
Q 372 3047 722 3315 
Q 1072 3584 1716 3584 
Q 2034 3584 2315 3537 
Q 2597 3491 2834 3397 
z
" transform="scale(0.015625)"/>
       <path id="DejaVuSans-5d" d="M 1947 4863 
L 1947 -844 
L 622 -844 
L 622 -397 
L 1369 -397 
L 1369 4416 
L 622 4416 
L 622 4863 
L 1947 4863 
z
" transform="scale(0.015625)"/>
      </defs>
      <use xlink:href="#DejaVuSans-62"/>
      <use xlink:href="#DejaVuSans-69" transform="translate(63.476562 0)"/>
      <use xlink:href="#DejaVuSans-72" transform="translate(91.259766 0)"/>
      <use xlink:href="#DejaVuSans-74" transform="translate(132.373047 0)"/>
      <use xlink:href="#DejaVuSans-68" transform="translate(171.582031 0)"/>
      <use xlink:href="#DejaVuSans-5f" transform="translate(234.960938 0)"/>
      <use xlink:href="#DejaVuSans-74" transform="translate(284.960938 0)"/>
      <use xlink:href="#DejaVuSans-69" transform="translate(324.169922 0)"/>
      <use xlink:href="#DejaVuSans-6d" transform="translate(351.953125 0)"/>
      <use xlink:href="#DejaVuSans-65" transform="translate(449.365234 0)"/>
      <use xlink:href="#DejaVuSans-20" transform="translate(510.888672 0)"/>
      <use xlink:href="#DejaVuSans-5b" transform="translate(542.675781 0)"/>
      <use xlink:href="#DejaVuSans-b5" transform="translate(581.689453 0)"/>
      <use xlink:href="#DejaVuSans-73" transform="translate(645.3125 0)"/>
      <use xlink:href="#DejaVuSans-5d" transform="translate(697.412109 0)"/>
     </g>
    </g>
   </g>
   <g id="matplotlib.axis_2">
    <g id="ytick_1">
     <g id="line2d_7">
      <defs>
       <path id="m62acf40a62" d="M 0 0 
L -3.5 0 
" style="stroke: #000000; stroke-width: 0.8"/>
      </defs>
      <g>
       <use xlink:href="#m62acf40a62" x="53.328125" y="245.797127" style="stroke: #000000; stroke-width: 0.8"/>
      </g>
     </g>
     <g id="text_8">
      <!-- 0 -->
      <g transform="translate(39.965625 249.596346) scale(0.1 -0.1)">
       <use xlink:href="#DejaVuSans-30"/>
      </g>
     </g>
    </g>
    <g id="ytick_2">
     <g id="line2d_8">
      <g>
       <use xlink:href="#m62acf40a62" x="53.328125" y="208.848288" style="stroke: #000000; stroke-width: 0.8"/>
      </g>
     </g>
     <g id="text_9">
      <!-- 200 -->
      <g transform="translate(27.240625 212.647507) scale(0.1 -0.1)">
       <use xlink:href="#DejaVuSans-32"/>
       <use xlink:href="#DejaVuSans-30" transform="translate(63.623047 0)"/>
       <use xlink:href="#DejaVuSans-30" transform="translate(127.246094 0)"/>
      </g>
     </g>
    </g>
    <g id="ytick_3">
     <g id="line2d_9">
      <g>
       <use xlink:href="#m62acf40a62" x="53.328125" y="171.899449" style="stroke: #000000; stroke-width: 0.8"/>
      </g>
     </g>
     <g id="text_10">
      <!-- 400 -->
      <g transform="translate(27.240625 175.698668) scale(0.1 -0.1)">
       <use xlink:href="#DejaVuSans-34"/>
       <use xlink:href="#DejaVuSans-30" transform="translate(63.623047 0)"/>
       <use xlink:href="#DejaVuSans-30" transform="translate(127.246094 0)"/>
      </g>
     </g>
    </g>
    <g id="ytick_4">
     <g id="line2d_10">
      <g>
       <use xlink:href="#m62acf40a62" x="53.328125" y="134.95061" style="stroke: #000000; stroke-width: 0.8"/>
      </g>
     </g>
     <g id="text_11">
      <!-- 600 -->
      <g transform="translate(27.240625 138.749829) scale(0.1 -0.1)">
       <defs>
        <path id="DejaVuSans-36" d="M 2113 2584 
Q 1688 2584 1439 2293 
Q 1191 2003 1191 1497 
Q 1191 994 1439 701 
Q 1688 409 2113 409 
Q 2538 409 2786 701 
Q 3034 994 3034 1497 
Q 3034 2003 2786 2293 
Q 2538 2584 2113 2584 
z
M 3366 4563 
L 3366 3988 
Q 3128 4100 2886 4159 
Q 2644 4219 2406 4219 
Q 1781 4219 1451 3797 
Q 1122 3375 1075 2522 
Q 1259 2794 1537 2939 
Q 1816 3084 2150 3084 
Q 2853 3084 3261 2657 
Q 3669 2231 3669 1497 
Q 3669 778 3244 343 
Q 2819 -91 2113 -91 
Q 1303 -91 875 529 
Q 447 1150 447 2328 
Q 447 3434 972 4092 
Q 1497 4750 2381 4750 
Q 2619 4750 2861 4703 
Q 3103 4656 3366 4563 
z
" transform="scale(0.015625)"/>
       </defs>
       <use xlink:href="#DejaVuSans-36"/>
       <use xlink:href="#DejaVuSans-30" transform="translate(63.623047 0)"/>
       <use xlink:href="#DejaVuSans-30" transform="translate(127.246094 0)"/>
      </g>
     </g>
    </g>
    <g id="ytick_5">
     <g id="line2d_11">
      <g>
       <use xlink:href="#m62acf40a62" x="53.328125" y="98.001772" style="stroke: #000000; stroke-width: 0.8"/>
      </g>
     </g>
     <g id="text_12">
      <!-- 800 -->
      <g transform="translate(27.240625 101.80099) scale(0.1 -0.1)">
       <defs>
        <path id="DejaVuSans-38" d="M 2034 2216 
Q 1584 2216 1326 1975 
Q 1069 1734 1069 1313 
Q 1069 891 1326 650 
Q 1584 409 2034 409 
Q 2484 409 2743 651 
Q 3003 894 3003 1313 
Q 3003 1734 2745 1975 
Q 2488 2216 2034 2216 
z
M 1403 2484 
Q 997 2584 770 2862 
Q 544 3141 544 3541 
Q 544 4100 942 4425 
Q 1341 4750 2034 4750 
Q 2731 4750 3128 4425 
Q 3525 4100 3525 3541 
Q 3525 3141 3298 2862 
Q 3072 2584 2669 2484 
Q 3125 2378 3379 2068 
Q 3634 1759 3634 1313 
Q 3634 634 3220 271 
Q 2806 -91 2034 -91 
Q 1263 -91 848 271 
Q 434 634 434 1313 
Q 434 1759 690 2068 
Q 947 2378 1403 2484 
z
M 1172 3481 
Q 1172 3119 1398 2916 
Q 1625 2713 2034 2713 
Q 2441 2713 2670 2916 
Q 2900 3119 2900 3481 
Q 2900 3844 2670 4047 
Q 2441 4250 2034 4250 
Q 1625 4250 1398 4047 
Q 1172 3844 1172 3481 
z
" transform="scale(0.015625)"/>
       </defs>
       <use xlink:href="#DejaVuSans-38"/>
       <use xlink:href="#DejaVuSans-30" transform="translate(63.623047 0)"/>
       <use xlink:href="#DejaVuSans-30" transform="translate(127.246094 0)"/>
      </g>
     </g>
    </g>
    <g id="ytick_6">
     <g id="line2d_12">
      <g>
       <use xlink:href="#m62acf40a62" x="53.328125" y="61.052933" style="stroke: #000000; stroke-width: 0.8"/>
      </g>
     </g>
     <g id="text_13">
      <!-- 1000 -->
      <g transform="translate(20.878125 64.852151) scale(0.1 -0.1)">
       <use xlink:href="#DejaVuSans-31"/>
       <use xlink:href="#DejaVuSans-30" transform="translate(63.623047 0)"/>
       <use xlink:href="#DejaVuSans-30" transform="translate(127.246094 0)"/>
       <use xlink:href="#DejaVuSans-30" transform="translate(190.869141 0)"/>
      </g>
     </g>
    </g>
    <g id="ytick_7">
     <g id="line2d_13">
      <g>
       <use xlink:href="#m62acf40a62" x="53.328125" y="24.104094" style="stroke: #000000; stroke-width: 0.8"/>
      </g>
     </g>
     <g id="text_14">
      <!-- 1200 -->
      <g transform="translate(20.878125 27.903313) scale(0.1 -0.1)">
       <use xlink:href="#DejaVuSans-31"/>
       <use xlink:href="#DejaVuSans-32" transform="translate(63.623047 0)"/>
       <use xlink:href="#DejaVuSans-30" transform="translate(127.246094 0)"/>
       <use xlink:href="#DejaVuSans-30" transform="translate(190.869141 0)"/>
      </g>
     </g>
    </g>
    <g id="text_15">
     <!-- [counts] -->
     <g transform="translate(14.798438 152.791947) rotate(-90) scale(0.1 -0.1)">
      <defs>
       <path id="DejaVuSans-63" d="M 3122 3366 
L 3122 2828 
Q 2878 2963 2633 3030 
Q 2388 3097 2138 3097 
Q 1578 3097 1268 2742 
Q 959 2388 959 1747 
Q 959 1106 1268 751 
Q 1578 397 2138 397 
Q 2388 397 2633 464 
Q 2878 531 3122 666 
L 3122 134 
Q 2881 22 2623 -34 
Q 2366 -91 2075 -91 
Q 1284 -91 818 406 
Q 353 903 353 1747 
Q 353 2603 823 3093 
Q 1294 3584 2113 3584 
Q 2378 3584 2631 3529 
Q 2884 3475 3122 3366 
z
" transform="scale(0.015625)"/>
       <path id="DejaVuSans-6f" d="M 1959 3097 
Q 1497 3097 1228 2736 
Q 959 2375 959 1747 
Q 959 1119 1226 758 
Q 1494 397 1959 397 
Q 2419 397 2687 759 
Q 2956 1122 2956 1747 
Q 2956 2369 2687 2733 
Q 2419 3097 1959 3097 
z
M 1959 3584 
Q 2709 3584 3137 3096 
Q 3566 2609 3566 1747 
Q 3566 888 3137 398 
Q 2709 -91 1959 -91 
Q 1206 -91 779 398 
Q 353 888 353 1747 
Q 353 2609 779 3096 
Q 1206 3584 1959 3584 
z
" transform="scale(0.015625)"/>
       <path id="DejaVuSans-75" d="M 544 1381 
L 544 3500 
L 1119 3500 
L 1119 1403 
Q 1119 906 1312 657 
Q 1506 409 1894 409 
Q 2359 409 2629 706 
Q 2900 1003 2900 1516 
L 2900 3500 
L 3475 3500 
L 3475 0 
L 2900 0 
L 2900 538 
Q 2691 219 2414 64 
Q 2138 -91 1772 -91 
Q 1169 -91 856 284 
Q 544 659 544 1381 
z
M 1991 3584 
L 1991 3584 
z
" transform="scale(0.015625)"/>
       <path id="DejaVuSans-6e" d="M 3513 2113 
L 3513 0 
L 2938 0 
L 2938 2094 
Q 2938 2591 2744 2837 
Q 2550 3084 2163 3084 
Q 1697 3084 1428 2787 
Q 1159 2491 1159 1978 
L 1159 0 
L 581 0 
L 581 3500 
L 1159 3500 
L 1159 2956 
Q 1366 3272 1645 3428 
Q 1925 3584 2291 3584 
Q 2894 3584 3203 3211 
Q 3513 2838 3513 2113 
z
" transform="scale(0.015625)"/>
      </defs>
      <use xlink:href="#DejaVuSans-5b"/>
      <use xlink:href="#DejaVuSans-63" transform="translate(39.013672 0)"/>
      <use xlink:href="#DejaVuSans-6f" transform="translate(93.994141 0)"/>
      <use xlink:href="#DejaVuSans-75" transform="translate(155.175781 0)"/>
      <use xlink:href="#DejaVuSans-6e" transform="translate(218.554688 0)"/>
      <use xlink:href="#DejaVuSans-74" transform="translate(281.933594 0)"/>
      <use xlink:href="#DejaVuSans-73" transform="translate(321.142578 0)"/>
      <use xlink:href="#DejaVuSans-5d" transform="translate(373.242188 0)"/>
     </g>
    </g>
   </g>
   <g id="line2d_14">
    <path d="M 69.749563 233.973499 
L 70.844325 233.973499 
L 70.844325 229.539638 
L 71.939088 229.539638 
L 71.939088 219.93294 
L 73.033851 219.93294 
L 73.033851 211.619451 
L 74.128613 211.619451 
L 74.128613 199.056846 
L 75.223376 199.056846 
L 75.223376 200.904288 
L 76.318138 200.904288 
L 76.318138 185.016287 
L 77.412901 185.016287 
L 77.412901 176.887543 
L 78.507663 176.887543 
L 78.507663 164.324937 
L 79.602426 164.324937 
L 79.602426 158.043635 
L 80.697188 158.043635 
L 80.697188 151.947076 
L 81.791951 151.947076 
L 81.791951 146.589495 
L 82.886713 146.589495 
L 82.886713 140.67768 
L 83.981476 140.67768 
L 83.981476 127.930331 
L 85.076238 127.930331 
L 85.076238 134.765866 
L 86.171001 134.765866 
L 86.171001 136.428564 
L 87.265763 136.428564 
L 87.265763 117.215168 
L 88.360526 117.215168 
L 88.360526 109.640656 
L 89.455288 109.640656 
L 89.455288 107.054237 
L 90.550051 107.054237 
L 90.550051 106.31526 
L 91.644814 106.31526 
L 91.644814 102.805121 
L 92.739576 102.805121 
L 92.739576 105.576284 
L 93.834339 105.576284 
L 93.834339 91.905213 
L 94.929101 91.905213 
L 94.929101 85.808655 
L 96.023864 85.808655 
L 96.023864 78.049399 
L 97.118626 78.049399 
L 97.118626 83.776469 
L 98.213389 83.776469 
L 98.213389 83.40698 
L 99.308151 83.40698 
L 99.308151 77.310422 
L 100.402914 77.310422 
L 100.402914 73.430794 
L 101.497676 73.430794 
L 101.497676 63.085119 
L 102.592439 63.085119 
L 102.592439 75.093491 
L 103.687201 75.093491 
L 103.687201 72.691817 
L 104.781964 72.691817 
L 104.781964 69.920654 
L 105.876726 69.920654 
L 105.876726 55.510607 
L 106.971489 55.510607 
L 106.971489 64.563072 
L 108.066252 64.563072 
L 108.066252 60.683444 
L 109.161014 60.683444 
L 109.161014 73.800282 
L 110.255777 73.800282 
L 110.255777 56.803816 
L 111.350539 56.803816 
L 111.350539 61.422421 
L 112.445302 61.422421 
L 112.445302 55.325863 
L 113.540064 55.325863 
L 113.540064 43.31749 
L 114.634827 43.31749 
L 114.634827 54.586886 
L 115.729589 54.586886 
L 115.729589 49.229304 
L 116.824352 49.229304 
L 116.824352 49.968281 
L 117.919114 49.968281 
L 117.919114 50.337769 
L 119.013877 50.337769 
L 119.013877 47.197118 
L 120.108639 47.197118 
L 120.108639 44.056467 
L 121.203402 44.056467 
L 121.203402 42.948002 
L 122.298164 42.948002 
L 122.298164 46.458141 
L 123.392927 46.458141 
L 123.392927 44.056467 
L 124.487689 44.056467 
L 124.487689 45.719165 
L 125.582452 45.719165 
L 125.582452 47.197118 
L 126.677215 47.197118 
L 126.677215 41.10056 
L 127.771977 41.10056 
L 127.771977 38.698885 
L 128.86674 38.698885 
L 128.86674 45.164932 
L 129.961502 45.164932 
L 129.961502 43.871723 
L 131.056265 43.871723 
L 131.056265 41.839536 
L 132.151027 41.839536 
L 132.151027 43.871723 
L 133.24579 43.871723 
L 133.24579 37.959908 
L 134.340552 37.959908 
L 134.340552 43.31749 
L 135.435315 43.31749 
L 135.435315 41.10056 
L 136.530077 41.10056 
L 136.530077 35.558234 
L 137.62484 35.558234 
L 137.62484 36.112466 
L 138.719602 36.112466 
L 138.719602 31.124373 
L 139.814365 31.124373 
L 139.814365 35.188745 
L 140.909127 35.188745 
L 140.909127 45.719165 
L 142.00389 45.719165 
L 142.00389 34.08028 
L 143.098652 34.08028 
L 143.098652 31.678606 
L 144.193415 31.678606 
L 144.193415 37.775164 
L 145.288178 37.775164 
L 145.288178 36.297211 
L 146.38294 36.297211 
L 146.38294 35.742978 
L 147.477703 35.742978 
L 147.477703 35.004001 
L 148.572465 35.004001 
L 148.572465 27.798978 
L 149.667228 27.798978 
L 149.667228 33.710792 
L 150.76199 33.710792 
L 150.76199 37.775164 
L 151.856753 37.775164 
L 151.856753 37.59042 
L 152.951515 37.59042 
L 152.951515 41.654792 
L 154.046278 41.654792 
L 154.046278 38.329397 
L 155.14104 38.329397 
L 155.14104 34.819257 
L 156.235803 34.819257 
L 156.235803 42.763257 
L 157.330565 42.763257 
L 157.330565 30.385396 
L 158.425328 30.385396 
L 158.425328 36.112466 
L 159.52009 36.112466 
L 159.52009 34.634513 
L 160.614853 34.634513 
L 160.614853 30.939629 
L 161.709615 30.939629 
L 161.709615 31.309117 
L 162.804378 31.309117 
L 162.804378 37.59042 
L 163.899141 37.59042 
L 163.899141 34.634513 
L 164.993903 34.634513 
L 164.993903 40.546327 
L 166.088666 40.546327 
L 166.088666 42.948002 
L 167.183428 42.948002 
L 167.183428 33.526048 
L 168.278191 33.526048 
L 168.278191 36.112466 
L 169.372953 36.112466 
L 169.372953 30.015908 
L 170.467716 30.015908 
L 170.467716 33.156559 
L 171.562478 33.156559 
L 171.562478 32.232838 
L 172.657241 32.232838 
L 172.657241 31.124373 
L 173.752003 31.124373 
L 173.752003 29.461675 
L 174.846766 29.461675 
L 174.846766 33.156559 
L 175.941528 33.156559 
L 175.941528 28.907443 
L 177.036291 28.907443 
L 177.036291 29.461675 
L 178.131053 29.461675 
L 178.131053 27.614233 
L 179.225816 27.614233 
L 179.225816 39.992095 
L 180.320579 39.992095 
L 180.320579 31.493862 
L 181.415341 31.493862 
L 181.415341 30.200652 
L 182.510104 30.200652 
L 182.510104 36.112466 
L 183.604866 36.112466 
L 183.604866 37.220932 
L 184.699629 37.220932 
L 184.699629 23.365117 
L 185.794391 23.365117 
L 185.794391 33.156559 
L 186.889154 33.156559 
L 186.889154 27.429489 
L 187.983916 27.429489 
L 187.983916 35.927722 
L 189.078679 35.927722 
L 189.078679 26.321024 
L 190.173441 26.321024 
L 190.173441 27.614233 
L 191.268204 27.614233 
L 191.268204 35.927722 
L 192.362966 35.927722 
L 192.362966 35.37349 
L 193.457729 35.37349 
L 193.457729 31.309117 
L 194.552491 31.309117 
L 194.552491 31.86335 
L 195.647254 31.86335 
L 195.647254 34.265024 
L 196.742016 34.265024 
L 196.742016 25.582047 
L 197.836779 25.582047 
L 197.836779 28.35321 
L 198.931542 28.35321 
L 198.931542 31.86335 
L 200.026304 31.86335 
L 200.026304 18.746512 
L 201.121067 18.746512 
L 201.121067 30.939629 
L 202.215829 30.939629 
L 202.215829 37.775164 
L 203.310592 37.775164 
L 203.310592 37.59042 
L 204.405354 37.59042 
L 204.405354 23.180373 
L 205.500117 23.180373 
L 205.500117 44.425955 
L 206.594879 44.425955 
L 206.594879 41.470048 
L 207.689642 41.470048 
L 207.689642 34.265024 
L 208.784404 34.265024 
L 208.784404 27.060001 
L 209.879167 27.060001 
L 209.879167 28.907443 
L 210.973929 28.907443 
L 210.973929 33.526048 
L 212.068692 33.526048 
L 212.068692 37.220932 
L 213.163454 37.220932 
L 213.163454 25.212559 
L 214.258217 25.212559 
L 214.258217 34.634513 
L 215.352979 34.634513 
L 215.352979 26.690513 
L 216.447742 26.690513 
L 216.447742 35.188745 
L 217.542505 35.188745 
L 217.542505 30.015908 
L 218.637267 30.015908 
L 218.637267 32.232838 
L 219.73203 32.232838 
L 219.73203 23.734605 
L 220.826792 23.734605 
L 220.826792 41.654792 
L 221.921555 41.654792 
L 221.921555 42.024281 
L 223.016317 42.024281 
L 223.016317 27.060001 
L 224.11108 27.060001 
L 224.11108 41.654792 
L 225.205842 41.654792 
L 225.205842 35.37349 
L 226.300605 35.37349 
L 226.300605 33.156559 
L 227.395367 33.156559 
L 227.395367 27.060001 
L 228.49013 27.060001 
L 228.49013 34.08028 
L 229.584892 34.08028 
L 229.584892 32.971815 
L 230.679655 32.971815 
L 230.679655 43.502234 
L 231.774417 43.502234 
L 231.774417 39.622606 
L 232.86918 39.622606 
L 232.86918 41.470048 
L 233.963942 41.470048 
L 233.963942 36.481955 
L 235.058705 36.481955 
L 235.058705 28.722699 
L 236.153468 28.722699 
L 236.153468 30.570141 
L 237.24823 30.570141 
L 237.24823 38.883629 
L 238.342993 38.883629 
L 238.342993 31.678606 
L 239.437755 31.678606 
L 239.437755 28.168466 
L 240.532518 28.168466 
L 240.532518 20.593954 
L 241.62728 20.593954 
L 241.62728 28.907443 
L 242.722043 28.907443 
L 242.722043 22.071908 
L 243.816805 22.071908 
L 243.816805 32.971815 
L 244.911568 32.971815 
L 244.911568 25.766792 
L 246.00633 25.766792 
L 246.00633 32.602327 
L 247.101093 32.602327 
L 247.101093 18.561768 
L 248.195855 18.561768 
L 248.195855 27.614233 
L 249.290618 27.614233 
L 249.290618 35.558234 
L 250.38538 35.558234 
L 250.38538 27.983722 
L 251.480143 27.983722 
L 251.480143 36.851443 
L 252.574906 36.851443 
L 252.574906 32.417583 
L 253.669668 32.417583 
L 253.669668 34.449769 
L 254.764431 34.449769 
L 254.764431 38.883629 
L 255.859193 38.883629 
L 255.859193 41.10056 
L 256.953956 41.10056 
L 256.953956 31.124373 
L 258.048718 31.124373 
L 258.048718 31.86335 
L 259.143481 31.86335 
L 259.143481 53.108932 
L 260.238243 53.108932 
L 260.238243 49.783537 
L 261.333006 49.783537 
L 261.333006 60.4987 
L 262.427768 60.4987 
L 262.427768 77.864654 
L 263.522531 77.864654 
L 263.522531 65.117305 
L 264.617293 65.117305 
L 264.617293 81.374794 
L 265.712056 81.374794 
L 265.712056 98.925493 
L 266.806818 98.925493 
L 266.806818 112.411819 
L 267.901581 112.411819 
L 267.901581 105.022051 
L 268.996343 105.022051 
L 268.996343 127.191354 
L 270.091106 127.191354 
L 270.091106 128.115075 
L 271.185869 128.115075 
L 271.185869 127.745587 
L 272.280631 127.745587 
L 272.280631 140.862425 
L 273.375394 140.862425 
L 273.375394 143.448843 
L 274.470156 143.448843 
L 274.470156 147.143727 
L 275.564919 147.143727 
L 275.564919 155.64196 
L 276.659681 155.64196 
L 276.659681 161.36903 
L 277.754444 161.36903 
L 277.754444 173.746891 
L 278.849206 173.746891 
L 278.849206 177.072287 
L 279.943969 177.072287 
L 279.943969 174.485868 
L 281.038731 174.485868 
L 281.038731 179.104473 
L 282.133494 179.104473 
L 282.133494 184.462055 
L 283.228256 184.462055 
L 283.228256 182.614613 
L 284.323019 182.614613 
L 284.323019 190.743357 
L 285.417781 190.743357 
L 285.417781 195.73145 
L 286.512544 195.73145 
L 286.512544 192.960287 
L 287.607306 192.960287 
L 287.607306 195.546706 
L 288.702069 195.546706 
L 288.702069 200.350055 
L 289.796832 200.350055 
L 289.796832 202.012753 
L 290.891594 202.012753 
L 290.891594 206.261869 
L 291.986357 206.261869 
L 291.986357 199.426334 
L 293.081119 199.426334 
L 293.081119 207.555079 
L 294.175882 207.555079 
L 294.175882 214.20587 
L 295.270644 214.20587 
L 295.270644 213.466893 
L 296.365407 213.466893 
L 296.365407 211.988939 
L 297.460169 211.988939 
L 297.460169 218.63973 
L 298.554932 218.63973 
L 298.554932 217.900754 
L 299.649694 217.900754 
L 299.649694 217.531265 
L 300.744457 217.531265 
L 300.744457 224.736289 
L 301.839219 224.736289 
L 301.839219 222.888847 
L 302.933982 222.888847 
L 302.933982 221.595638 
L 304.028744 221.595638 
L 304.028744 221.041405 
L 305.123507 221.041405 
L 305.123507 224.3668 
L 306.218269 224.3668 
L 306.218269 223.997312 
L 307.313032 223.997312 
L 307.313032 224.3668 
L 308.407795 224.3668 
L 308.407795 227.692196 
L 309.502557 227.692196 
L 309.502557 227.137963 
L 310.59732 227.137963 
L 310.59732 232.865033 
L 311.692082 232.865033 
L 311.692082 230.648103 
L 312.786845 230.648103 
L 312.786845 234.527731 
L 313.881607 234.527731 
L 313.881607 232.865033 
L 314.97637 232.865033 
L 314.97637 233.973499 
L 316.071132 233.973499 
L 316.071132 234.527731 
L 317.165895 234.527731 
L 317.165895 235.081964 
L 318.260657 235.081964 
L 318.260657 234.342987 
L 319.35542 234.342987 
L 319.35542 236.559917 
L 320.450182 236.559917 
L 320.450182 235.081964 
L 321.544945 235.081964 
L 321.544945 236.744662 
L 322.639707 236.744662 
L 322.639707 236.190429 
L 323.73447 236.190429 
L 323.73447 237.11415 
L 324.829233 237.11415 
L 324.829233 239.146336 
L 325.923995 239.146336 
L 325.923995 238.592103 
L 327.018758 238.592103 
L 327.018758 237.483638 
L 328.11352 237.483638 
L 328.11352 240.993778 
L 329.208283 240.993778 
L 329.208283 240.62429 
L 330.303045 240.62429 
L 330.303045 241.178522 
L 331.397808 241.178522 
L 331.397808 241.363266 
L 332.49257 241.363266 
L 332.49257 240.070057 
L 333.587333 240.070057 
L 333.587333 239.885313 
L 334.682095 239.885313 
L 334.682095 242.656476 
L 335.776858 242.656476 
L 335.776858 240.254801 
L 336.87162 240.254801 
L 336.87162 242.84122 
L 337.966383 242.84122 
L 337.966383 243.210708 
L 339.061145 243.210708 
L 339.061145 240.070057 
L 340.155908 240.070057 
L 340.155908 243.949685 
L 341.25067 243.949685 
L 341.25067 243.025964 
L 342.345433 243.025964 
L 342.345433 242.102243 
L 343.440196 242.102243 
L 343.440196 241.917499 
L 344.534958 241.917499 
L 344.534958 242.84122 
L 345.629721 242.84122 
L 345.629721 241.732755 
L 346.724483 241.732755 
L 346.724483 243.580197 
L 347.819246 243.580197 
L 347.819246 243.395453 
L 348.914008 243.395453 
L 348.914008 243.580197 
L 350.008771 243.580197 
L 350.008771 244.503918 
L 351.103533 244.503918 
L 351.103533 243.949685 
L 352.198296 243.949685 
L 352.198296 242.102243 
L 353.293058 242.102243 
L 353.293058 244.503918 
L 354.387821 244.503918 
L 354.387821 242.656476 
L 355.482583 242.656476 
L 355.482583 244.319173 
L 356.577346 244.319173 
L 356.577346 244.688662 
L 357.672108 244.688662 
L 357.672108 243.764941 
L 358.766871 243.764941 
L 358.766871 244.688662 
L 359.861633 244.688662 
L 359.861633 243.764941 
L 362.051159 243.764941 
L 362.051159 245.05815 
L 363.145921 245.05815 
L 363.145921 243.949685 
L 364.240684 243.949685 
L 364.240684 245.05815 
L 365.335446 245.05815 
L 365.335446 245.242894 
L 366.430209 245.242894 
L 366.430209 245.05815 
L 367.524971 245.05815 
L 367.524971 244.873406 
L 368.619734 244.873406 
L 368.619734 244.688662 
L 369.714496 244.688662 
L 369.714496 244.134429 
L 370.809259 244.134429 
L 370.809259 244.688662 
L 371.904021 244.688662 
L 371.904021 244.319173 
L 372.998784 244.319173 
L 372.998784 245.612383 
L 374.093546 245.612383 
L 374.093546 245.05815 
L 377.377834 245.05815 
L 377.377834 245.427639 
L 379.567359 245.427639 
L 379.567359 244.873406 
L 380.662122 244.873406 
L 380.662122 245.05815 
L 382.851647 245.05815 
L 382.851647 245.242894 
L 383.946409 245.242894 
L 383.946409 245.427639 
L 386.135934 245.427639 
L 386.135934 244.873406 
L 387.230697 244.873406 
L 387.230697 245.612383 
L 388.325459 245.612383 
L 388.325459 245.242894 
L 389.420222 245.242894 
L 389.420222 245.797127 
L 391.609747 245.797127 
L 391.609747 245.427639 
L 394.894034 245.427639 
L 394.894034 245.612383 
L 395.988797 245.612383 
L 395.988797 245.797127 
L 397.08356 245.797127 
L 397.08356 245.427639 
L 398.178322 245.427639 
L 398.178322 245.427639 
" clip-path="url(#p64d40f7d24)" style="fill: none; stroke: #1f77b4; stroke-width: 1.5; stroke-linecap: square"/>
   </g>
   <g id="patch_3">
    <path d="M 53.328125 257.158895 
L 53.328125 7.2 
" style="fill: none; stroke: #000000; stroke-width: 0.8; stroke-linejoin: miter; stroke-linecap: square"/>
   </g>
   <g id="patch_4">
    <path d="M 414.59976 257.158895 
L 414.59976 7.2 
" style="fill: none; stroke: #000000; stroke-width: 0.8; stroke-linejoin: miter; stroke-linecap: square"/>
   </g>
   <g id="patch_5">
    <path d="M 53.328125 257.158895 
L 414.59976 257.158895 
" style="fill: none; stroke: #000000; stroke-width: 0.8; stroke-linejoin: miter; stroke-linecap: square"/>
   </g>
   <g id="patch_6">
    <path d="M 53.328125 7.2 
L 414.59976 7.2 
" style="fill: none; stroke: #000000; stroke-width: 0.8; stroke-linejoin: miter; stroke-linecap: square"/>
   </g>
  </g>
  <g id="axes_2">
   <g id="patch_7">
    <path d="M 503.927885 257.158895 
L 865.19952 257.158895 
L 865.19952 7.2 
L 503.927885 7.2 
z
" style="fill: #ffffff"/>
   </g>
   <g id="matplotlib.axis_3">
    <g id="xtick_7">
     <g id="line2d_15">
      <g>
       <use xlink:href="#mbad2ca15fa" x="517.037591" y="257.158895" style="stroke: #000000; stroke-width: 0.8"/>
      </g>
     </g>
     <g id="text_16">
      <!-- 0.0 -->
      <g transform="translate(509.086029 271.757332) scale(0.1 -0.1)">
       <defs>
        <path id="DejaVuSans-2e" d="M 684 794 
L 1344 794 
L 1344 0 
L 684 0 
L 684 794 
z
" transform="scale(0.015625)"/>
       </defs>
       <use xlink:href="#DejaVuSans-30"/>
       <use xlink:href="#DejaVuSans-2e" transform="translate(63.623047 0)"/>
       <use xlink:href="#DejaVuSans-30" transform="translate(95.410156 0)"/>
      </g>
     </g>
    </g>
    <g id="xtick_8">
     <g id="line2d_16">
      <g>
       <use xlink:href="#mbad2ca15fa" x="558.719402" y="257.158895" style="stroke: #000000; stroke-width: 0.8"/>
      </g>
     </g>
     <g id="text_17">
      <!-- 2.5 -->
      <g transform="translate(550.767839 271.757332) scale(0.1 -0.1)">
       <use xlink:href="#DejaVuSans-32"/>
       <use xlink:href="#DejaVuSans-2e" transform="translate(63.623047 0)"/>
       <use xlink:href="#DejaVuSans-35" transform="translate(95.410156 0)"/>
      </g>
     </g>
    </g>
    <g id="xtick_9">
     <g id="line2d_17">
      <g>
       <use xlink:href="#mbad2ca15fa" x="600.401212" y="257.158895" style="stroke: #000000; stroke-width: 0.8"/>
      </g>
     </g>
     <g id="text_18">
      <!-- 5.0 -->
      <g transform="translate(592.44965 271.757332) scale(0.1 -0.1)">
       <use xlink:href="#DejaVuSans-35"/>
       <use xlink:href="#DejaVuSans-2e" transform="translate(63.623047 0)"/>
       <use xlink:href="#DejaVuSans-30" transform="translate(95.410156 0)"/>
      </g>
     </g>
    </g>
    <g id="xtick_10">
     <g id="line2d_18">
      <g>
       <use xlink:href="#mbad2ca15fa" x="642.083023" y="257.158895" style="stroke: #000000; stroke-width: 0.8"/>
      </g>
     </g>
     <g id="text_19">
      <!-- 7.5 -->
      <g transform="translate(634.131461 271.757332) scale(0.1 -0.1)">
       <defs>
        <path id="DejaVuSans-37" d="M 525 4666 
L 3525 4666 
L 3525 4397 
L 1831 0 
L 1172 0 
L 2766 4134 
L 525 4134 
L 525 4666 
z
" transform="scale(0.015625)"/>
       </defs>
       <use xlink:href="#DejaVuSans-37"/>
       <use xlink:href="#DejaVuSans-2e" transform="translate(63.623047 0)"/>
       <use xlink:href="#DejaVuSans-35" transform="translate(95.410156 0)"/>
      </g>
     </g>
    </g>
    <g id="xtick_11">
     <g id="line2d_19">
      <g>
       <use xlink:href="#mbad2ca15fa" x="683.764834" y="257.158895" style="stroke: #000000; stroke-width: 0.8"/>
      </g>
     </g>
     <g id="text_20">
      <!-- 10.0 -->
      <g transform="translate(672.632021 271.757332) scale(0.1 -0.1)">
       <use xlink:href="#DejaVuSans-31"/>
       <use xlink:href="#DejaVuSans-30" transform="translate(63.623047 0)"/>
       <use xlink:href="#DejaVuSans-2e" transform="translate(127.246094 0)"/>
       <use xlink:href="#DejaVuSans-30" transform="translate(159.033203 0)"/>
      </g>
     </g>
    </g>
    <g id="xtick_12">
     <g id="line2d_20">
      <g>
       <use xlink:href="#mbad2ca15fa" x="725.446644" y="257.158895" style="stroke: #000000; stroke-width: 0.8"/>
      </g>
     </g>
     <g id="text_21">
      <!-- 12.5 -->
      <g transform="translate(714.313832 271.757332) scale(0.1 -0.1)">
       <use xlink:href="#DejaVuSans-31"/>
       <use xlink:href="#DejaVuSans-32" transform="translate(63.623047 0)"/>
       <use xlink:href="#DejaVuSans-2e" transform="translate(127.246094 0)"/>
       <use xlink:href="#DejaVuSans-35" transform="translate(159.033203 0)"/>
      </g>
     </g>
    </g>
    <g id="xtick_13">
     <g id="line2d_21">
      <g>
       <use xlink:href="#mbad2ca15fa" x="767.128455" y="257.158895" style="stroke: #000000; stroke-width: 0.8"/>
      </g>
     </g>
     <g id="text_22">
      <!-- 15.0 -->
      <g transform="translate(755.995642 271.757332) scale(0.1 -0.1)">
       <use xlink:href="#DejaVuSans-31"/>
       <use xlink:href="#DejaVuSans-35" transform="translate(63.623047 0)"/>
       <use xlink:href="#DejaVuSans-2e" transform="translate(127.246094 0)"/>
       <use xlink:href="#DejaVuSans-30" transform="translate(159.033203 0)"/>
      </g>
     </g>
    </g>
    <g id="xtick_14">
     <g id="line2d_22">
      <g>
       <use xlink:href="#mbad2ca15fa" x="808.810266" y="257.158895" style="stroke: #000000; stroke-width: 0.8"/>
      </g>
     </g>
     <g id="text_23">
      <!-- 17.5 -->
      <g transform="translate(797.677453 271.757332) scale(0.1 -0.1)">
       <use xlink:href="#DejaVuSans-31"/>
       <use xlink:href="#DejaVuSans-37" transform="translate(63.623047 0)"/>
       <use xlink:href="#DejaVuSans-2e" transform="translate(127.246094 0)"/>
       <use xlink:href="#DejaVuSans-35" transform="translate(159.033203 0)"/>
      </g>
     </g>
    </g>
    <g id="xtick_15">
     <g id="line2d_23">
      <g>
       <use xlink:href="#mbad2ca15fa" x="850.492076" y="257.158895" style="stroke: #000000; stroke-width: 0.8"/>
      </g>
     </g>
     <g id="text_24">
      <!-- 20.0 -->
      <g transform="translate(839.359264 271.757332) scale(0.1 -0.1)">
       <use xlink:href="#DejaVuSans-32"/>
       <use xlink:href="#DejaVuSans-30" transform="translate(63.623047 0)"/>
       <use xlink:href="#DejaVuSans-2e" transform="translate(127.246094 0)"/>
       <use xlink:href="#DejaVuSans-30" transform="translate(159.033203 0)"/>
      </g>
     </g>
    </g>
    <g id="text_25">
     <!-- wavelength [Å] -->
     <g transform="translate(646.526202 287.119832) scale(0.1 -0.1)">
      <defs>
       <path id="DejaVuSans-77" d="M 269 3500 
L 844 3500 
L 1563 769 
L 2278 3500 
L 2956 3500 
L 3675 769 
L 4391 3500 
L 4966 3500 
L 4050 0 
L 3372 0 
L 2619 2869 
L 1863 0 
L 1184 0 
L 269 3500 
z
" transform="scale(0.015625)"/>
       <path id="DejaVuSans-61" d="M 2194 1759 
Q 1497 1759 1228 1600 
Q 959 1441 959 1056 
Q 959 750 1161 570 
Q 1363 391 1709 391 
Q 2188 391 2477 730 
Q 2766 1069 2766 1631 
L 2766 1759 
L 2194 1759 
z
M 3341 1997 
L 3341 0 
L 2766 0 
L 2766 531 
Q 2569 213 2275 61 
Q 1981 -91 1556 -91 
Q 1019 -91 701 211 
Q 384 513 384 1019 
Q 384 1609 779 1909 
Q 1175 2209 1959 2209 
L 2766 2209 
L 2766 2266 
Q 2766 2663 2505 2880 
Q 2244 3097 1772 3097 
Q 1472 3097 1187 3025 
Q 903 2953 641 2809 
L 641 3341 
Q 956 3463 1253 3523 
Q 1550 3584 1831 3584 
Q 2591 3584 2966 3190 
Q 3341 2797 3341 1997 
z
" transform="scale(0.015625)"/>
       <path id="DejaVuSans-76" d="M 191 3500 
L 800 3500 
L 1894 563 
L 2988 3500 
L 3597 3500 
L 2284 0 
L 1503 0 
L 191 3500 
z
" transform="scale(0.015625)"/>
       <path id="DejaVuSans-6c" d="M 603 4863 
L 1178 4863 
L 1178 0 
L 603 0 
L 603 4863 
z
" transform="scale(0.015625)"/>
       <path id="DejaVuSans-67" d="M 2906 1791 
Q 2906 2416 2648 2759 
Q 2391 3103 1925 3103 
Q 1463 3103 1205 2759 
Q 947 2416 947 1791 
Q 947 1169 1205 825 
Q 1463 481 1925 481 
Q 2391 481 2648 825 
Q 2906 1169 2906 1791 
z
M 3481 434 
Q 3481 -459 3084 -895 
Q 2688 -1331 1869 -1331 
Q 1566 -1331 1297 -1286 
Q 1028 -1241 775 -1147 
L 775 -588 
Q 1028 -725 1275 -790 
Q 1522 -856 1778 -856 
Q 2344 -856 2625 -561 
Q 2906 -266 2906 331 
L 2906 616 
Q 2728 306 2450 153 
Q 2172 0 1784 0 
Q 1141 0 747 490 
Q 353 981 353 1791 
Q 353 2603 747 3093 
Q 1141 3584 1784 3584 
Q 2172 3584 2450 3431 
Q 2728 3278 2906 2969 
L 2906 3500 
L 3481 3500 
L 3481 434 
z
" transform="scale(0.015625)"/>
       <path id="DejaVuSans-c5" d="M 2663 5081 
Q 2663 5278 2523 5417 
Q 2384 5556 2188 5556 
Q 1988 5556 1852 5420 
Q 1716 5284 1716 5081 
Q 1716 4884 1853 4746 
Q 1991 4609 2188 4609 
Q 2384 4609 2523 4746 
Q 2663 4884 2663 5081 
z
M 2188 4044 
L 1338 1722 
L 3041 1722 
L 2188 4044 
z
M 1716 4366 
Q 1525 4494 1428 4673 
Q 1331 4853 1331 5081 
Q 1331 5441 1579 5691 
Q 1828 5941 2188 5941 
Q 2544 5941 2795 5689 
Q 3047 5438 3047 5081 
Q 3047 4863 2948 4678 
Q 2850 4494 2663 4366 
L 4325 0 
L 3669 0 
L 3244 1197 
L 1141 1197 
L 716 0 
L 50 0 
L 1716 4366 
z
" transform="scale(0.015625)"/>
      </defs>
      <use xlink:href="#DejaVuSans-77"/>
      <use xlink:href="#DejaVuSans-61" transform="translate(81.787109 0)"/>
      <use xlink:href="#DejaVuSans-76" transform="translate(143.066406 0)"/>
      <use xlink:href="#DejaVuSans-65" transform="translate(202.246094 0)"/>
      <use xlink:href="#DejaVuSans-6c" transform="translate(263.769531 0)"/>
      <use xlink:href="#DejaVuSans-65" transform="translate(291.552734 0)"/>
      <use xlink:href="#DejaVuSans-6e" transform="translate(353.076172 0)"/>
      <use xlink:href="#DejaVuSans-67" transform="translate(416.455078 0)"/>
      <use xlink:href="#DejaVuSans-74" transform="translate(479.931641 0)"/>
      <use xlink:href="#DejaVuSans-68" transform="translate(519.140625 0)"/>
      <use xlink:href="#DejaVuSans-20" transform="translate(582.519531 0)"/>
      <use xlink:href="#DejaVuSans-5b" transform="translate(614.306641 0)"/>
      <use xlink:href="#DejaVuSans-c5" transform="translate(653.320312 0)"/>
      <use xlink:href="#DejaVuSans-5d" transform="translate(721.728516 0)"/>
     </g>
    </g>
   </g>
   <g id="matplotlib.axis_4">
    <g id="ytick_8">
     <g id="line2d_24">
      <g>
       <use xlink:href="#m62acf40a62" x="503.927885" y="245.797127" style="stroke: #000000; stroke-width: 0.8"/>
      </g>
     </g>
     <g id="text_26">
      <!-- 0 -->
      <g transform="translate(490.565385 249.596346) scale(0.1 -0.1)">
       <use xlink:href="#DejaVuSans-30"/>
      </g>
     </g>
    </g>
    <g id="ytick_9">
     <g id="line2d_25">
      <g>
       <use xlink:href="#m62acf40a62" x="503.927885" y="192.988538" style="stroke: #000000; stroke-width: 0.8"/>
      </g>
     </g>
     <g id="text_27">
      <!-- 1000 -->
      <g transform="translate(471.477885 196.787757) scale(0.1 -0.1)">
       <use xlink:href="#DejaVuSans-31"/>
       <use xlink:href="#DejaVuSans-30" transform="translate(63.623047 0)"/>
       <use xlink:href="#DejaVuSans-30" transform="translate(127.246094 0)"/>
       <use xlink:href="#DejaVuSans-30" transform="translate(190.869141 0)"/>
      </g>
     </g>
    </g>
    <g id="ytick_10">
     <g id="line2d_26">
      <g>
       <use xlink:href="#m62acf40a62" x="503.927885" y="140.179949" style="stroke: #000000; stroke-width: 0.8"/>
      </g>
     </g>
     <g id="text_28">
      <!-- 2000 -->
      <g transform="translate(471.477885 143.979168) scale(0.1 -0.1)">
       <use xlink:href="#DejaVuSans-32"/>
       <use xlink:href="#DejaVuSans-30" transform="translate(63.623047 0)"/>
       <use xlink:href="#DejaVuSans-30" transform="translate(127.246094 0)"/>
       <use xlink:href="#DejaVuSans-30" transform="translate(190.869141 0)"/>
      </g>
     </g>
    </g>
    <g id="ytick_11">
     <g id="line2d_27">
      <g>
       <use xlink:href="#m62acf40a62" x="503.927885" y="87.37136" style="stroke: #000000; stroke-width: 0.8"/>
      </g>
     </g>
     <g id="text_29">
      <!-- 3000 -->
      <g transform="translate(471.477885 91.170578) scale(0.1 -0.1)">
       <use xlink:href="#DejaVuSans-33"/>
       <use xlink:href="#DejaVuSans-30" transform="translate(63.623047 0)"/>
       <use xlink:href="#DejaVuSans-30" transform="translate(127.246094 0)"/>
       <use xlink:href="#DejaVuSans-30" transform="translate(190.869141 0)"/>
      </g>
     </g>
    </g>
    <g id="ytick_12">
     <g id="line2d_28">
      <g>
       <use xlink:href="#m62acf40a62" x="503.927885" y="34.56277" style="stroke: #000000; stroke-width: 0.8"/>
      </g>
     </g>
     <g id="text_30">
      <!-- 4000 -->
      <g transform="translate(471.477885 38.361989) scale(0.1 -0.1)">
       <use xlink:href="#DejaVuSans-34"/>
       <use xlink:href="#DejaVuSans-30" transform="translate(63.623047 0)"/>
       <use xlink:href="#DejaVuSans-30" transform="translate(127.246094 0)"/>
       <use xlink:href="#DejaVuSans-30" transform="translate(190.869141 0)"/>
      </g>
     </g>
    </g>
    <g id="text_31">
     <!-- [counts] -->
     <g transform="translate(465.398197 152.791947) rotate(-90) scale(0.1 -0.1)">
      <use xlink:href="#DejaVuSans-5b"/>
      <use xlink:href="#DejaVuSans-63" transform="translate(39.013672 0)"/>
      <use xlink:href="#DejaVuSans-6f" transform="translate(93.994141 0)"/>
      <use xlink:href="#DejaVuSans-75" transform="translate(155.175781 0)"/>
      <use xlink:href="#DejaVuSans-6e" transform="translate(218.554688 0)"/>
      <use xlink:href="#DejaVuSans-74" transform="translate(281.933594 0)"/>
      <use xlink:href="#DejaVuSans-73" transform="translate(321.142578 0)"/>
      <use xlink:href="#DejaVuSans-5d" transform="translate(373.242188 0)"/>
     </g>
    </g>
   </g>
   <g id="line2d_29">
    <path d="M 520.349323 150.424815 
L 521.444085 150.424815 
L 521.444085 149.157409 
L 522.538848 149.157409 
L 522.538848 137.909179 
L 523.633611 137.909179 
L 523.633611 140.443992 
L 524.728373 140.443992 
L 524.728373 144.827105 
L 525.823136 144.827105 
L 525.823136 153.962991 
L 526.917898 153.962991 
L 526.917898 145.091148 
L 528.012661 145.091148 
L 528.012661 126.132864 
L 529.107423 126.132864 
L 529.107423 103.530788 
L 530.202186 103.530788 
L 530.202186 81.984884 
L 531.296948 81.984884 
L 531.296948 63.607494 
L 532.391711 63.607494 
L 532.391711 37.308817 
L 533.486473 37.308817 
L 533.486473 21.043772 
L 534.581236 21.043772 
L 534.581236 22.047135 
L 535.675998 22.047135 
L 535.675998 18.825811 
L 536.770761 18.825811 
L 536.770761 18.561768 
L 537.865523 18.561768 
L 537.865523 35.354899 
L 538.960286 35.354899 
L 538.960286 41.903164 
L 540.055048 41.903164 
L 540.055048 50.880625 
L 541.149811 50.880625 
L 541.149811 58.854721 
L 542.244574 58.854721 
L 542.244574 69.310822 
L 543.339336 69.310822 
L 543.339336 74.116404 
L 544.434099 74.116404 
L 544.434099 80.559052 
L 545.528861 80.559052 
L 545.528861 89.430895 
L 546.623624 89.430895 
L 546.623624 95.662308 
L 547.718386 95.662308 
L 547.718386 99.411718 
L 548.813149 99.411718 
L 548.813149 96.084777 
L 549.907911 96.084777 
L 549.907911 95.134222 
L 551.002674 95.134222 
L 551.002674 95.503882 
L 552.097436 95.503882 
L 552.097436 89.21966 
L 553.192199 89.21966 
L 553.192199 77.654579 
L 554.286961 77.654579 
L 554.286961 72.901806 
L 555.381724 72.901806 
L 555.381724 57.534507 
L 556.476486 57.534507 
L 556.476486 58.009784 
L 557.571249 58.009784 
L 557.571249 44.807637 
L 558.666012 44.807637 
L 558.666012 36.622305 
L 559.760774 36.622305 
L 559.760774 36.83354 
L 560.855537 36.83354 
L 560.855537 36.569497 
L 561.950299 36.569497 
L 561.950299 54.999694 
L 563.045062 54.999694 
L 563.045062 61.91762 
L 564.139824 61.91762 
L 564.139824 67.937799 
L 565.234587 67.937799 
L 565.234587 75.647853 
L 566.329349 75.647853 
L 566.329349 88.85 
L 567.424112 88.85 
L 567.424112 94.342093 
L 568.518874 94.342093 
L 568.518874 107.438623 
L 569.613637 107.438623 
L 569.613637 108.230752 
L 570.708399 108.230752 
L 570.708399 118.898087 
L 571.803162 118.898087 
L 571.803162 120.482345 
L 572.897924 120.482345 
L 572.897924 130.304743 
L 573.992687 130.304743 
L 573.992687 140.179949 
L 575.087449 140.179949 
L 575.087449 141.552972 
L 576.182212 141.552972 
L 576.182212 146.992257 
L 577.276975 146.992257 
L 577.276975 151.164135 
L 578.371737 151.164135 
L 578.371737 155.177588 
L 579.4665 155.177588 
L 579.4665 161.884279 
L 580.561262 161.884279 
L 580.561262 167.640415 
L 582.750787 167.746032 
L 582.750787 171.970719 
L 583.84555 171.970719 
L 583.84555 175.192043 
L 584.940312 175.192043 
L 584.940312 176.089789 
L 586.035075 176.089789 
L 586.035075 183.482992 
L 587.129837 183.482992 
L 587.129837 185.648144 
L 588.2246 185.648144 
L 588.2246 186.598699 
L 589.319362 186.598699 
L 589.319362 191.721132 
L 590.414125 191.721132 
L 590.414125 192.460452 
L 591.508887 192.460452 
L 591.508887 193.939093 
L 592.60365 193.939093 
L 592.60365 197.318842 
L 593.698412 197.318842 
L 593.698412 200.645783 
L 594.793175 200.645783 
L 594.793175 201.015443 
L 595.887938 201.015443 
L 595.887938 206.032259 
L 596.9827 206.032259 
L 596.9827 204.342385 
L 598.077463 204.342385 
L 598.077463 210.89065 
L 599.172225 210.89065 
L 599.172225 211.62997 
L 600.266988 211.62997 
L 600.266988 210.256947 
L 601.36175 210.256947 
L 601.36175 209.728861 
L 602.456513 209.728861 
L 602.456513 215.220954 
L 603.551275 215.220954 
L 603.551275 213.267036 
L 604.646038 213.267036 
L 604.646038 218.019809 
L 605.7408 218.019809 
L 605.7408 215.854657 
L 606.835563 215.854657 
L 606.835563 218.178235 
L 607.930325 218.178235 
L 607.930325 221.082707 
L 609.025088 221.082707 
L 609.025088 219.604067 
L 610.11985 219.604067 
L 610.11985 223.723137 
L 611.214613 223.723137 
L 611.214613 224.515266 
L 614.498901 224.462457 
L 614.498901 225.307394 
L 615.593663 225.307394 
L 615.593663 224.884926 
L 616.688426 224.884926 
L 616.688426 226.521992 
L 617.783188 226.521992 
L 617.783188 227.630972 
L 619.972713 227.73659 
L 619.972713 228.634336 
L 621.067476 228.634336 
L 621.067476 231.327574 
L 622.162238 231.327574 
L 622.162238 231.591617 
L 623.257001 231.591617 
L 623.257001 229.373656 
L 624.351763 229.373656 
L 624.351763 231.802851 
L 625.446526 231.802851 
L 625.446526 231.961277 
L 626.541288 231.961277 
L 626.541288 234.337663 
L 627.636051 234.337663 
L 627.636051 232.859023 
L 628.730813 232.859023 
L 628.730813 234.760132 
L 629.825576 234.760132 
L 629.825576 234.496089 
L 630.920339 234.496089 
L 630.920339 233.492726 
L 632.015101 233.492726 
L 632.015101 234.07362 
L 633.109864 234.07362 
L 633.109864 235.341026 
L 634.204626 235.341026 
L 634.204626 235.710687 
L 635.299389 235.710687 
L 635.299389 237.770221 
L 636.394151 237.770221 
L 636.394151 236.872475 
L 637.488914 236.872475 
L 637.488914 236.185964 
L 638.583676 236.185964 
L 638.583676 236.661241 
L 639.678439 236.661241 
L 639.678439 237.717413 
L 641.867964 237.717413 
L 641.867964 236.925284 
L 642.962726 236.925284 
L 642.962726 238.720776 
L 645.152251 238.826393 
L 645.152251 238.879202 
L 646.247014 238.879202 
L 646.247014 239.037628 
L 647.341776 239.037628 
L 647.341776 240.146608 
L 648.436539 240.146608 
L 648.436539 239.671331 
L 649.531302 239.671331 
L 649.531302 239.512905 
L 650.626064 239.512905 
L 650.626064 240.46346 
L 651.720827 240.46346 
L 651.720827 239.301671 
L 652.815589 239.301671 
L 652.815589 239.143245 
L 653.910352 239.143245 
L 653.910352 239.988182 
L 655.005114 239.988182 
L 655.005114 240.83312 
L 656.099877 240.83312 
L 656.099877 240.674694 
L 658.289402 240.674694 
L 658.289402 240.516268 
L 659.384164 240.516268 
L 659.384164 241.308397 
L 660.478927 241.308397 
L 660.478927 242.206143 
L 661.573689 242.206143 
L 661.573689 241.625249 
L 662.668452 241.625249 
L 662.668452 240.938737 
L 663.763214 240.938737 
L 663.763214 241.097163 
L 664.857977 241.097163 
L 664.857977 240.357842 
L 665.952739 240.357842 
L 665.952739 241.308397 
L 667.047502 241.308397 
L 667.047502 242.153334 
L 668.142265 242.153334 
L 668.142265 242.628612 
L 669.237027 242.628612 
L 669.237027 241.889291 
L 670.33179 241.889291 
L 670.33179 241.519631 
L 671.426552 241.519631 
L 671.426552 242.100526 
L 673.616077 242.206143 
L 673.616077 243.473549 
L 674.71084 243.473549 
L 674.71084 243.103889 
L 675.805602 243.103889 
L 675.805602 243.526358 
L 676.900365 243.526358 
L 676.900365 242.258952 
L 677.995127 242.258952 
L 677.995127 242.68142 
L 679.08989 242.68142 
L 679.08989 243.05108 
L 680.184652 243.05108 
L 680.184652 243.420741 
L 682.374177 243.315123 
L 682.374177 242.575803 
L 683.46894 242.575803 
L 683.46894 243.315123 
L 684.563702 243.315123 
L 684.563702 242.998272 
L 685.658465 242.998272 
L 685.658465 243.315123 
L 686.753228 243.315123 
L 686.753228 243.05108 
L 688.942753 242.998272 
L 688.942753 243.315123 
L 690.037515 243.315123 
L 690.037515 244.054444 
L 691.132278 244.054444 
L 691.132278 243.473549 
L 692.22704 243.473549 
L 692.22704 243.315123 
L 693.321803 243.315123 
L 693.321803 244.107252 
L 694.416565 244.107252 
L 694.416565 243.473549 
L 696.60609 243.526358 
L 696.60609 243.737592 
L 699.890378 243.684783 
L 699.890378 244.001635 
L 700.98514 244.001635 
L 700.98514 244.212869 
L 703.174666 244.318487 
L 703.174666 244.424104 
L 704.269428 244.424104 
L 704.269428 244.001635 
L 705.364191 244.001635 
L 705.364191 244.476912 
L 706.458953 244.476912 
L 706.458953 243.896018 
L 707.553716 243.896018 
L 707.553716 244.371295 
L 709.743241 244.318487 
L 709.743241 244.160061 
L 710.838003 244.160061 
L 710.838003 244.529721 
L 711.932766 244.529721 
L 711.932766 244.054444 
L 713.027528 244.054444 
L 713.027528 244.529721 
L 714.122291 244.529721 
L 714.122291 244.371295 
L 715.217053 244.371295 
L 715.217053 244.529721 
L 716.311816 244.529721 
L 716.311816 244.688147 
L 718.501341 244.635338 
L 718.501341 244.846572 
L 719.596103 244.846572 
L 719.596103 244.424104 
L 720.690866 244.424104 
L 720.690866 244.899381 
L 721.785629 244.899381 
L 721.785629 244.582529 
L 723.975154 244.529721 
L 723.975154 244.793764 
L 725.069916 244.793764 
L 725.069916 244.95219 
L 726.164679 244.95219 
L 726.164679 244.424104 
L 727.259441 244.424104 
L 727.259441 244.846572 
L 729.448966 244.95219 
L 729.448966 245.057807 
L 733.828016 245.057807 
L 733.828016 244.582529 
L 734.922779 244.582529 
L 734.922779 244.95219 
L 740.396592 245.004998 
L 740.396592 245.163424 
L 741.491354 245.163424 
L 741.491354 245.427467 
L 742.586117 245.427467 
L 742.586117 245.216233 
L 743.680879 245.216233 
L 743.680879 244.899381 
L 745.870404 244.95219 
L 745.870404 245.216233 
L 746.965167 245.216233 
L 746.965167 244.793764 
L 748.059929 244.793764 
L 748.059929 245.216233 
L 750.249454 245.163424 
L 750.249454 245.374658 
L 751.344217 245.374658 
L 751.344217 244.793764 
L 752.438979 244.793764 
L 752.438979 245.374658 
L 754.628504 245.269041 
L 754.628504 245.004998 
L 756.818029 244.95219 
L 756.818029 245.216233 
L 757.912792 245.216233 
L 757.912792 245.427467 
L 759.007555 245.427467 
L 759.007555 245.057807 
L 760.102317 245.057807 
L 760.102317 244.899381 
L 761.19708 244.899381 
L 761.19708 245.216233 
L 763.386605 245.32185 
L 763.386605 245.427467 
L 764.481367 245.427467 
L 764.481367 245.269041 
L 768.860417 245.374658 
L 768.860417 245.427467 
L 769.95518 245.427467 
L 769.95518 245.269041 
L 771.049942 245.269041 
L 771.049942 245.427467 
L 776.523755 245.374658 
L 776.523755 245.585893 
L 777.618518 245.585893 
L 777.618518 245.427467 
L 780.902805 245.533084 
L 780.902805 245.638701 
L 784.187093 245.585893 
L 784.187093 245.427467 
L 785.281855 245.427467 
L 785.281855 245.585893 
L 786.376618 245.585893 
L 786.376618 245.216233 
L 787.47138 245.216233 
L 787.47138 245.480276 
L 788.566143 245.480276 
L 788.566143 245.69151 
L 789.660905 245.69151 
L 789.660905 245.163424 
L 790.755668 245.163424 
L 790.755668 245.427467 
L 791.85043 245.427467 
L 791.85043 245.69151 
L 792.945193 245.69151 
L 792.945193 245.427467 
L 795.134718 245.427467 
L 795.134718 245.69151 
L 796.229481 245.69151 
L 796.229481 245.374658 
L 797.324243 245.374658 
L 797.324243 245.638701 
L 798.419006 245.638701 
L 798.419006 245.480276 
L 800.608531 245.480276 
L 800.608531 245.69151 
L 803.892818 245.638701 
L 803.892818 245.32185 
L 804.987581 245.32185 
L 804.987581 245.638701 
L 818.124731 245.638701 
L 818.124731 245.427467 
L 819.219494 245.427467 
L 819.219494 245.744318 
L 823.598544 245.638701 
L 823.598544 245.585893 
L 825.788069 245.69151 
L 825.788069 245.744318 
L 826.882831 245.744318 
L 826.882831 245.585893 
L 829.072357 245.69151 
L 829.072357 245.744318 
L 832.356644 245.638701 
L 832.356644 245.585893 
L 833.451407 245.585893 
L 833.451407 245.744318 
L 834.546169 245.744318 
L 834.546169 245.480276 
L 835.640932 245.480276 
L 835.640932 245.638701 
L 840.019982 245.638701 
L 840.019982 245.480276 
L 842.209507 245.585893 
L 842.209507 245.744318 
L 845.493794 245.797127 
L 845.493794 245.585893 
L 846.588557 245.585893 
L 846.588557 245.744318 
L 848.778082 245.69151 
L 848.778082 245.69151 
" clip-path="url(#p96eb8a995b)" style="fill: none; stroke: #1f77b4; stroke-width: 1.5; stroke-linecap: square"/>
   </g>
   <g id="patch_8">
    <path d="M 503.927885 257.158895 
L 503.927885 7.2 
" style="fill: none; stroke: #000000; stroke-width: 0.8; stroke-linejoin: miter; stroke-linecap: square"/>
   </g>
   <g id="patch_9">
    <path d="M 865.19952 257.158895 
L 865.19952 7.2 
" style="fill: none; stroke: #000000; stroke-width: 0.8; stroke-linejoin: miter; stroke-linecap: square"/>
   </g>
   <g id="patch_10">
    <path d="M 503.927885 257.158895 
L 865.19952 257.158895 
" style="fill: none; stroke: #000000; stroke-width: 0.8; stroke-linejoin: miter; stroke-linecap: square"/>
   </g>
   <g id="patch_11">
    <path d="M 503.927885 7.2 
L 865.19952 7.2 
" style="fill: none; stroke: #000000; stroke-width: 0.8; stroke-linejoin: miter; stroke-linecap: square"/>
   </g>
  </g>
 </g>
 <defs>
  <clipPath id="p64d40f7d24">
   <rect x="53.328125" y="7.2" width="361.271635" height="249.958895"/>
  </clipPath>
  <clipPath id="p96eb8a995b">
   <rect x="503.927885" y="7.2" width="361.271635" height="249.958895"/>
  </clipPath>
 </defs>
</svg>
