<?xml version="1.0" encoding="utf-8" standalone="no"?>
<!DOCTYPE svg PUBLIC "-//W3C//DTD SVG 1.1//EN"
  "http://www.w3.org/Graphics/SVG/1.1/DTD/svg11.dtd">
<svg xmlns:xlink="http://www.w3.org/1999/xlink" width="401.690625pt" height="266.51625pt" viewBox="0 0 401.690625 266.51625" xmlns="http://www.w3.org/2000/svg" version="1.1">
 <metadata>
  <rdf:RDF xmlns:dc="http://purl.org/dc/elements/1.1/" xmlns:cc="http://creativecommons.org/ns#" xmlns:rdf="http://www.w3.org/1999/02/22-rdf-syntax-ns#">
   <cc:Work>
    <dc:type rdf:resource="http://purl.org/dc/dcmitype/StillImage"/>
    <dc:date>2025-01-30T11:58:15.149907</dc:date>
    <dc:format>image/svg+xml</dc:format>
    <dc:creator>
     <cc:Agent>
      <dc:title>Matplotlib v3.10.0, https://matplotlib.org/</dc:title>
     </cc:Agent>
    </dc:creator>
   </cc:Work>
  </rdf:RDF>
 </metadata>
 <defs>
  <style type="text/css">*{stroke-linejoin: round; stroke-linecap: butt}</style>
 </defs>
 <g id="figure_1">
  <g id="patch_1">
   <path d="M 0 266.51625 
L 401.690625 266.51625 
L 401.690625 0 
L 0 0 
z
" style="fill: #ffffff"/>
  </g>
  <g id="axes_1">
   <g id="patch_2">
    <path d="M 59.690625 228.96 
L 394.490625 228.96 
L 394.490625 7.2 
L 59.690625 7.2 
z
" style="fill: #ffffff"/>
   </g>
   <g id="matplotlib.axis_1">
    <g id="xtick_1">
     <g id="line2d_1">
      <defs>
       <path id="m97d0e85466" d="M 0 0 
L 0 3.5 
" style="stroke: #000000; stroke-width: 0.8"/>
      </defs>
      <g>
       <use xlink:href="#m97d0e85466" x="83.873617" y="228.96" style="stroke: #000000; stroke-width: 0.8"/>
      </g>
     </g>
     <g id="text_1">
      <!-- 20000 -->
      <g transform="translate(67.967367 243.558437) scale(0.1 -0.1)">
       <defs>
        <path id="DejaVuSans-32" d="M 1228 531 
L 3431 531 
L 3431 0 
L 469 0 
L 469 531 
Q 828 903 1448 1529 
Q 2069 2156 2228 2338 
Q 2531 2678 2651 2914 
Q 2772 3150 2772 3378 
Q 2772 3750 2511 3984 
Q 2250 4219 1831 4219 
Q 1534 4219 1204 4116 
Q 875 4013 500 3803 
L 500 4441 
Q 881 4594 1212 4672 
Q 1544 4750 1819 4750 
Q 2544 4750 2975 4387 
Q 3406 4025 3406 3419 
Q 3406 3131 3298 2873 
Q 3191 2616 2906 2266 
Q 2828 2175 2409 1742 
Q 1991 1309 1228 531 
z
" transform="scale(0.015625)"/>
        <path id="DejaVuSans-30" d="M 2034 4250 
Q 1547 4250 1301 3770 
Q 1056 3291 1056 2328 
Q 1056 1369 1301 889 
Q 1547 409 2034 409 
Q 2525 409 2770 889 
Q 3016 1369 3016 2328 
Q 3016 3291 2770 3770 
Q 2525 4250 2034 4250 
z
M 2034 4750 
Q 2819 4750 3233 4129 
Q 3647 3509 3647 2328 
Q 3647 1150 3233 529 
Q 2819 -91 2034 -91 
Q 1250 -91 836 529 
Q 422 1150 422 2328 
Q 422 3509 836 4129 
Q 1250 4750 2034 4750 
z
" transform="scale(0.015625)"/>
       </defs>
       <use xlink:href="#DejaVuSans-32"/>
       <use xlink:href="#DejaVuSans-30" transform="translate(63.623047 0)"/>
       <use xlink:href="#DejaVuSans-30" transform="translate(127.246094 0)"/>
       <use xlink:href="#DejaVuSans-30" transform="translate(190.869141 0)"/>
       <use xlink:href="#DejaVuSans-30" transform="translate(254.492188 0)"/>
      </g>
     </g>
    </g>
    <g id="xtick_2">
     <g id="line2d_2">
      <g>
       <use xlink:href="#m97d0e85466" x="124.053635" y="228.96" style="stroke: #000000; stroke-width: 0.8"/>
      </g>
     </g>
     <g id="text_2">
      <!-- 40000 -->
      <g transform="translate(108.147385 243.558437) scale(0.1 -0.1)">
       <defs>
        <path id="DejaVuSans-34" d="M 2419 4116 
L 825 1625 
L 2419 1625 
L 2419 4116 
z
M 2253 4666 
L 3047 4666 
L 3047 1625 
L 3713 1625 
L 3713 1100 
L 3047 1100 
L 3047 0 
L 2419 0 
L 2419 1100 
L 313 1100 
L 313 1709 
L 2253 4666 
z
" transform="scale(0.015625)"/>
       </defs>
       <use xlink:href="#DejaVuSans-34"/>
       <use xlink:href="#DejaVuSans-30" transform="translate(63.623047 0)"/>
       <use xlink:href="#DejaVuSans-30" transform="translate(127.246094 0)"/>
       <use xlink:href="#DejaVuSans-30" transform="translate(190.869141 0)"/>
       <use xlink:href="#DejaVuSans-30" transform="translate(254.492188 0)"/>
      </g>
     </g>
    </g>
    <g id="xtick_3">
     <g id="line2d_3">
      <g>
       <use xlink:href="#m97d0e85466" x="164.233653" y="228.96" style="stroke: #000000; stroke-width: 0.8"/>
      </g>
     </g>
     <g id="text_3">
      <!-- 60000 -->
      <g transform="translate(148.327403 243.558437) scale(0.1 -0.1)">
       <defs>
        <path id="DejaVuSans-36" d="M 2113 2584 
Q 1688 2584 1439 2293 
Q 1191 2003 1191 1497 
Q 1191 994 1439 701 
Q 1688 409 2113 409 
Q 2538 409 2786 701 
Q 3034 994 3034 1497 
Q 3034 2003 2786 2293 
Q 2538 2584 2113 2584 
z
M 3366 4563 
L 3366 3988 
Q 3128 4100 2886 4159 
Q 2644 4219 2406 4219 
Q 1781 4219 1451 3797 
Q 1122 3375 1075 2522 
Q 1259 2794 1537 2939 
Q 1816 3084 2150 3084 
Q 2853 3084 3261 2657 
Q 3669 2231 3669 1497 
Q 3669 778 3244 343 
Q 2819 -91 2113 -91 
Q 1303 -91 875 529 
Q 447 1150 447 2328 
Q 447 3434 972 4092 
Q 1497 4750 2381 4750 
Q 2619 4750 2861 4703 
Q 3103 4656 3366 4563 
z
" transform="scale(0.015625)"/>
       </defs>
       <use xlink:href="#DejaVuSans-36"/>
       <use xlink:href="#DejaVuSans-30" transform="translate(63.623047 0)"/>
       <use xlink:href="#DejaVuSans-30" transform="translate(127.246094 0)"/>
       <use xlink:href="#DejaVuSans-30" transform="translate(190.869141 0)"/>
       <use xlink:href="#DejaVuSans-30" transform="translate(254.492188 0)"/>
      </g>
     </g>
    </g>
    <g id="xtick_4">
     <g id="line2d_4">
      <g>
       <use xlink:href="#m97d0e85466" x="204.413671" y="228.96" style="stroke: #000000; stroke-width: 0.8"/>
      </g>
     </g>
     <g id="text_4">
      <!-- 80000 -->
      <g transform="translate(188.507421 243.558437) scale(0.1 -0.1)">
       <defs>
        <path id="DejaVuSans-38" d="M 2034 2216 
Q 1584 2216 1326 1975 
Q 1069 1734 1069 1313 
Q 1069 891 1326 650 
Q 1584 409 2034 409 
Q 2484 409 2743 651 
Q 3003 894 3003 1313 
Q 3003 1734 2745 1975 
Q 2488 2216 2034 2216 
z
M 1403 2484 
Q 997 2584 770 2862 
Q 544 3141 544 3541 
Q 544 4100 942 4425 
Q 1341 4750 2034 4750 
Q 2731 4750 3128 4425 
Q 3525 4100 3525 3541 
Q 3525 3141 3298 2862 
Q 3072 2584 2669 2484 
Q 3125 2378 3379 2068 
Q 3634 1759 3634 1313 
Q 3634 634 3220 271 
Q 2806 -91 2034 -91 
Q 1263 -91 848 271 
Q 434 634 434 1313 
Q 434 1759 690 2068 
Q 947 2378 1403 2484 
z
M 1172 3481 
Q 1172 3119 1398 2916 
Q 1625 2713 2034 2713 
Q 2441 2713 2670 2916 
Q 2900 3119 2900 3481 
Q 2900 3844 2670 4047 
Q 2441 4250 2034 4250 
Q 1625 4250 1398 4047 
Q 1172 3844 1172 3481 
z
" transform="scale(0.015625)"/>
       </defs>
       <use xlink:href="#DejaVuSans-38"/>
       <use xlink:href="#DejaVuSans-30" transform="translate(63.623047 0)"/>
       <use xlink:href="#DejaVuSans-30" transform="translate(127.246094 0)"/>
       <use xlink:href="#DejaVuSans-30" transform="translate(190.869141 0)"/>
       <use xlink:href="#DejaVuSans-30" transform="translate(254.492188 0)"/>
      </g>
     </g>
    </g>
    <g id="xtick_5">
     <g id="line2d_5">
      <g>
       <use xlink:href="#m97d0e85466" x="244.593689" y="228.96" style="stroke: #000000; stroke-width: 0.8"/>
      </g>
     </g>
     <g id="text_5">
      <!-- 100000 -->
      <g transform="translate(225.506189 243.558437) scale(0.1 -0.1)">
       <defs>
        <path id="DejaVuSans-31" d="M 794 531 
L 1825 531 
L 1825 4091 
L 703 3866 
L 703 4441 
L 1819 4666 
L 2450 4666 
L 2450 531 
L 3481 531 
L 3481 0 
L 794 0 
L 794 531 
z
" transform="scale(0.015625)"/>
       </defs>
       <use xlink:href="#DejaVuSans-31"/>
       <use xlink:href="#DejaVuSans-30" transform="translate(63.623047 0)"/>
       <use xlink:href="#DejaVuSans-30" transform="translate(127.246094 0)"/>
       <use xlink:href="#DejaVuSans-30" transform="translate(190.869141 0)"/>
       <use xlink:href="#DejaVuSans-30" transform="translate(254.492188 0)"/>
       <use xlink:href="#DejaVuSans-30" transform="translate(318.115234 0)"/>
      </g>
     </g>
    </g>
    <g id="xtick_6">
     <g id="line2d_6">
      <g>
       <use xlink:href="#m97d0e85466" x="284.773707" y="228.96" style="stroke: #000000; stroke-width: 0.8"/>
      </g>
     </g>
     <g id="text_6">
      <!-- 120000 -->
      <g transform="translate(265.686207 243.558437) scale(0.1 -0.1)">
       <use xlink:href="#DejaVuSans-31"/>
       <use xlink:href="#DejaVuSans-32" transform="translate(63.623047 0)"/>
       <use xlink:href="#DejaVuSans-30" transform="translate(127.246094 0)"/>
       <use xlink:href="#DejaVuSans-30" transform="translate(190.869141 0)"/>
       <use xlink:href="#DejaVuSans-30" transform="translate(254.492188 0)"/>
       <use xlink:href="#DejaVuSans-30" transform="translate(318.115234 0)"/>
      </g>
     </g>
    </g>
    <g id="xtick_7">
     <g id="line2d_7">
      <g>
       <use xlink:href="#m97d0e85466" x="324.953725" y="228.96" style="stroke: #000000; stroke-width: 0.8"/>
      </g>
     </g>
     <g id="text_7">
      <!-- 140000 -->
      <g transform="translate(305.866225 243.558437) scale(0.1 -0.1)">
       <use xlink:href="#DejaVuSans-31"/>
       <use xlink:href="#DejaVuSans-34" transform="translate(63.623047 0)"/>
       <use xlink:href="#DejaVuSans-30" transform="translate(127.246094 0)"/>
       <use xlink:href="#DejaVuSans-30" transform="translate(190.869141 0)"/>
       <use xlink:href="#DejaVuSans-30" transform="translate(254.492188 0)"/>
       <use xlink:href="#DejaVuSans-30" transform="translate(318.115234 0)"/>
      </g>
     </g>
    </g>
    <g id="xtick_8">
     <g id="line2d_8">
      <g>
       <use xlink:href="#m97d0e85466" x="365.133743" y="228.96" style="stroke: #000000; stroke-width: 0.8"/>
      </g>
     </g>
     <g id="text_8">
      <!-- 160000 -->
      <g transform="translate(346.046243 243.558437) scale(0.1 -0.1)">
       <use xlink:href="#DejaVuSans-31"/>
       <use xlink:href="#DejaVuSans-36" transform="translate(63.623047 0)"/>
       <use xlink:href="#DejaVuSans-30" transform="translate(127.246094 0)"/>
       <use xlink:href="#DejaVuSans-30" transform="translate(190.869141 0)"/>
       <use xlink:href="#DejaVuSans-30" transform="translate(254.492188 0)"/>
       <use xlink:href="#DejaVuSans-30" transform="translate(318.115234 0)"/>
      </g>
     </g>
    </g>
    <g id="text_9">
     <!-- tof [µs] -->
     <g transform="translate(209.034375 257.236562) scale(0.1 -0.1)">
      <defs>
       <path id="DejaVuSans-74" d="M 1172 4494 
L 1172 3500 
L 2356 3500 
L 2356 3053 
L 1172 3053 
L 1172 1153 
Q 1172 725 1289 603 
Q 1406 481 1766 481 
L 2356 481 
L 2356 0 
L 1766 0 
Q 1100 0 847 248 
Q 594 497 594 1153 
L 594 3053 
L 172 3053 
L 172 3500 
L 594 3500 
L 594 4494 
L 1172 4494 
z
" transform="scale(0.015625)"/>
       <path id="DejaVuSans-6f" d="M 1959 3097 
Q 1497 3097 1228 2736 
Q 959 2375 959 1747 
Q 959 1119 1226 758 
Q 1494 397 1959 397 
Q 2419 397 2687 759 
Q 2956 1122 2956 1747 
Q 2956 2369 2687 2733 
Q 2419 3097 1959 3097 
z
M 1959 3584 
Q 2709 3584 3137 3096 
Q 3566 2609 3566 1747 
Q 3566 888 3137 398 
Q 2709 -91 1959 -91 
Q 1206 -91 779 398 
Q 353 888 353 1747 
Q 353 2609 779 3096 
Q 1206 3584 1959 3584 
z
" transform="scale(0.015625)"/>
       <path id="DejaVuSans-66" d="M 2375 4863 
L 2375 4384 
L 1825 4384 
Q 1516 4384 1395 4259 
Q 1275 4134 1275 3809 
L 1275 3500 
L 2222 3500 
L 2222 3053 
L 1275 3053 
L 1275 0 
L 697 0 
L 697 3053 
L 147 3053 
L 147 3500 
L 697 3500 
L 697 3744 
Q 697 4328 969 4595 
Q 1241 4863 1831 4863 
L 2375 4863 
z
" transform="scale(0.015625)"/>
       <path id="DejaVuSans-20" transform="scale(0.015625)"/>
       <path id="DejaVuSans-5b" d="M 550 4863 
L 1875 4863 
L 1875 4416 
L 1125 4416 
L 1125 -397 
L 1875 -397 
L 1875 -844 
L 550 -844 
L 550 4863 
z
" transform="scale(0.015625)"/>
       <path id="DejaVuSans-b5" d="M 544 -1331 
L 544 3500 
L 1119 3500 
L 1119 1325 
Q 1119 872 1334 640 
Q 1550 409 1972 409 
Q 2434 409 2667 671 
Q 2900 934 2900 1459 
L 2900 3500 
L 3475 3500 
L 3475 806 
Q 3475 619 3529 530 
Q 3584 441 3700 441 
Q 3728 441 3778 458 
Q 3828 475 3916 513 
L 3916 50 
Q 3788 -22 3673 -56 
Q 3559 -91 3450 -91 
Q 3234 -91 3106 31 
Q 2978 153 2931 403 
Q 2775 156 2548 32 
Q 2322 -91 2016 -91 
Q 1697 -91 1473 31 
Q 1250 153 1119 397 
L 1119 -1331 
L 544 -1331 
z
" transform="scale(0.015625)"/>
       <path id="DejaVuSans-73" d="M 2834 3397 
L 2834 2853 
Q 2591 2978 2328 3040 
Q 2066 3103 1784 3103 
Q 1356 3103 1142 2972 
Q 928 2841 928 2578 
Q 928 2378 1081 2264 
Q 1234 2150 1697 2047 
L 1894 2003 
Q 2506 1872 2764 1633 
Q 3022 1394 3022 966 
Q 3022 478 2636 193 
Q 2250 -91 1575 -91 
Q 1294 -91 989 -36 
Q 684 19 347 128 
L 347 722 
Q 666 556 975 473 
Q 1284 391 1588 391 
Q 1994 391 2212 530 
Q 2431 669 2431 922 
Q 2431 1156 2273 1281 
Q 2116 1406 1581 1522 
L 1381 1569 
Q 847 1681 609 1914 
Q 372 2147 372 2553 
Q 372 3047 722 3315 
Q 1072 3584 1716 3584 
Q 2034 3584 2315 3537 
Q 2597 3491 2834 3397 
z
" transform="scale(0.015625)"/>
       <path id="DejaVuSans-5d" d="M 1947 4863 
L 1947 -844 
L 622 -844 
L 622 -397 
L 1369 -397 
L 1369 4416 
L 622 4416 
L 622 4863 
L 1947 4863 
z
" transform="scale(0.015625)"/>
      </defs>
      <use xlink:href="#DejaVuSans-74"/>
      <use xlink:href="#DejaVuSans-6f" transform="translate(39.208984 0)"/>
      <use xlink:href="#DejaVuSans-66" transform="translate(100.390625 0)"/>
      <use xlink:href="#DejaVuSans-20" transform="translate(135.595703 0)"/>
      <use xlink:href="#DejaVuSans-5b" transform="translate(167.382812 0)"/>
      <use xlink:href="#DejaVuSans-b5" transform="translate(206.396484 0)"/>
      <use xlink:href="#DejaVuSans-73" transform="translate(270.019531 0)"/>
      <use xlink:href="#DejaVuSans-5d" transform="translate(322.119141 0)"/>
     </g>
    </g>
   </g>
   <g id="matplotlib.axis_2">
    <g id="ytick_1">
     <g id="line2d_9">
      <defs>
       <path id="mf95c01f69d" d="M 0 0 
L -3.5 0 
" style="stroke: #000000; stroke-width: 0.8"/>
      </defs>
      <g>
       <use xlink:href="#mf95c01f69d" x="59.690625" y="218.88" style="stroke: #000000; stroke-width: 0.8"/>
      </g>
     </g>
     <g id="text_10">
      <!-- 0 -->
      <g transform="translate(46.328125 222.679219) scale(0.1 -0.1)">
       <use xlink:href="#DejaVuSans-30"/>
      </g>
     </g>
    </g>
    <g id="ytick_2">
     <g id="line2d_10">
      <g>
       <use xlink:href="#mf95c01f69d" x="59.690625" y="185.565946" style="stroke: #000000; stroke-width: 0.8"/>
      </g>
     </g>
     <g id="text_11">
      <!-- 2000 -->
      <g transform="translate(27.240625 189.365164) scale(0.1 -0.1)">
       <use xlink:href="#DejaVuSans-32"/>
       <use xlink:href="#DejaVuSans-30" transform="translate(63.623047 0)"/>
       <use xlink:href="#DejaVuSans-30" transform="translate(127.246094 0)"/>
       <use xlink:href="#DejaVuSans-30" transform="translate(190.869141 0)"/>
      </g>
     </g>
    </g>
    <g id="ytick_3">
     <g id="line2d_11">
      <g>
       <use xlink:href="#mf95c01f69d" x="59.690625" y="152.251891" style="stroke: #000000; stroke-width: 0.8"/>
      </g>
     </g>
     <g id="text_12">
      <!-- 4000 -->
      <g transform="translate(27.240625 156.05111) scale(0.1 -0.1)">
       <use xlink:href="#DejaVuSans-34"/>
       <use xlink:href="#DejaVuSans-30" transform="translate(63.623047 0)"/>
       <use xlink:href="#DejaVuSans-30" transform="translate(127.246094 0)"/>
       <use xlink:href="#DejaVuSans-30" transform="translate(190.869141 0)"/>
      </g>
     </g>
    </g>
    <g id="ytick_4">
     <g id="line2d_12">
      <g>
       <use xlink:href="#mf95c01f69d" x="59.690625" y="118.937837" style="stroke: #000000; stroke-width: 0.8"/>
      </g>
     </g>
     <g id="text_13">
      <!-- 6000 -->
      <g transform="translate(27.240625 122.737056) scale(0.1 -0.1)">
       <use xlink:href="#DejaVuSans-36"/>
       <use xlink:href="#DejaVuSans-30" transform="translate(63.623047 0)"/>
       <use xlink:href="#DejaVuSans-30" transform="translate(127.246094 0)"/>
       <use xlink:href="#DejaVuSans-30" transform="translate(190.869141 0)"/>
      </g>
     </g>
    </g>
    <g id="ytick_5">
     <g id="line2d_13">
      <g>
       <use xlink:href="#mf95c01f69d" x="59.690625" y="85.623783" style="stroke: #000000; stroke-width: 0.8"/>
      </g>
     </g>
     <g id="text_14">
      <!-- 8000 -->
      <g transform="translate(27.240625 89.423001) scale(0.1 -0.1)">
       <use xlink:href="#DejaVuSans-38"/>
       <use xlink:href="#DejaVuSans-30" transform="translate(63.623047 0)"/>
       <use xlink:href="#DejaVuSans-30" transform="translate(127.246094 0)"/>
       <use xlink:href="#DejaVuSans-30" transform="translate(190.869141 0)"/>
      </g>
     </g>
    </g>
    <g id="ytick_6">
     <g id="line2d_14">
      <g>
       <use xlink:href="#mf95c01f69d" x="59.690625" y="52.309728" style="stroke: #000000; stroke-width: 0.8"/>
      </g>
     </g>
     <g id="text_15">
      <!-- 10000 -->
      <g transform="translate(20.878125 56.108947) scale(0.1 -0.1)">
       <use xlink:href="#DejaVuSans-31"/>
       <use xlink:href="#DejaVuSans-30" transform="translate(63.623047 0)"/>
       <use xlink:href="#DejaVuSans-30" transform="translate(127.246094 0)"/>
       <use xlink:href="#DejaVuSans-30" transform="translate(190.869141 0)"/>
       <use xlink:href="#DejaVuSans-30" transform="translate(254.492188 0)"/>
      </g>
     </g>
    </g>
    <g id="ytick_7">
     <g id="line2d_15">
      <g>
       <use xlink:href="#mf95c01f69d" x="59.690625" y="18.995674" style="stroke: #000000; stroke-width: 0.8"/>
      </g>
     </g>
     <g id="text_16">
      <!-- 12000 -->
      <g transform="translate(20.878125 22.794893) scale(0.1 -0.1)">
       <use xlink:href="#DejaVuSans-31"/>
       <use xlink:href="#DejaVuSans-32" transform="translate(63.623047 0)"/>
       <use xlink:href="#DejaVuSans-30" transform="translate(127.246094 0)"/>
       <use xlink:href="#DejaVuSans-30" transform="translate(190.869141 0)"/>
       <use xlink:href="#DejaVuSans-30" transform="translate(254.492188 0)"/>
      </g>
     </g>
    </g>
    <g id="text_17">
     <!-- [counts] -->
     <g transform="translate(14.798438 138.6925) rotate(-90) scale(0.1 -0.1)">
      <defs>
       <path id="DejaVuSans-63" d="M 3122 3366 
L 3122 2828 
Q 2878 2963 2633 3030 
Q 2388 3097 2138 3097 
Q 1578 3097 1268 2742 
Q 959 2388 959 1747 
Q 959 1106 1268 751 
Q 1578 397 2138 397 
Q 2388 397 2633 464 
Q 2878 531 3122 666 
L 3122 134 
Q 2881 22 2623 -34 
Q 2366 -91 2075 -91 
Q 1284 -91 818 406 
Q 353 903 353 1747 
Q 353 2603 823 3093 
Q 1294 3584 2113 3584 
Q 2378 3584 2631 3529 
Q 2884 3475 3122 3366 
z
" transform="scale(0.015625)"/>
       <path id="DejaVuSans-75" d="M 544 1381 
L 544 3500 
L 1119 3500 
L 1119 1403 
Q 1119 906 1312 657 
Q 1506 409 1894 409 
Q 2359 409 2629 706 
Q 2900 1003 2900 1516 
L 2900 3500 
L 3475 3500 
L 3475 0 
L 2900 0 
L 2900 538 
Q 2691 219 2414 64 
Q 2138 -91 1772 -91 
Q 1169 -91 856 284 
Q 544 659 544 1381 
z
M 1991 3584 
L 1991 3584 
z
" transform="scale(0.015625)"/>
       <path id="DejaVuSans-6e" d="M 3513 2113 
L 3513 0 
L 2938 0 
L 2938 2094 
Q 2938 2591 2744 2837 
Q 2550 3084 2163 3084 
Q 1697 3084 1428 2787 
Q 1159 2491 1159 1978 
L 1159 0 
L 581 0 
L 581 3500 
L 1159 3500 
L 1159 2956 
Q 1366 3272 1645 3428 
Q 1925 3584 2291 3584 
Q 2894 3584 3203 3211 
Q 3513 2838 3513 2113 
z
" transform="scale(0.015625)"/>
      </defs>
      <use xlink:href="#DejaVuSans-5b"/>
      <use xlink:href="#DejaVuSans-63" transform="translate(39.013672 0)"/>
      <use xlink:href="#DejaVuSans-6f" transform="translate(93.994141 0)"/>
      <use xlink:href="#DejaVuSans-75" transform="translate(155.175781 0)"/>
      <use xlink:href="#DejaVuSans-6e" transform="translate(218.554688 0)"/>
      <use xlink:href="#DejaVuSans-74" transform="translate(281.933594 0)"/>
      <use xlink:href="#DejaVuSans-73" transform="translate(321.142578 0)"/>
      <use xlink:href="#DejaVuSans-5d" transform="translate(373.242188 0)"/>
     </g>
    </g>
   </g>
   <g id="patch_3">
    <path d="M 59.690625 228.96 
L 59.690625 7.2 
" style="fill: none; stroke: #000000; stroke-width: 0.8; stroke-linejoin: miter; stroke-linecap: square"/>
   </g>
   <g id="patch_4">
    <path d="M 394.490625 228.96 
L 394.490625 7.2 
" style="fill: none; stroke: #000000; stroke-width: 0.8; stroke-linejoin: miter; stroke-linecap: square"/>
   </g>
   <g id="patch_5">
    <path d="M 59.690625 228.96 
L 394.490625 228.96 
" style="fill: none; stroke: #000000; stroke-width: 0.8; stroke-linejoin: miter; stroke-linecap: square"/>
   </g>
   <g id="patch_6">
    <path d="M 59.690625 7.2 
L 394.490625 7.2 
" style="fill: none; stroke: #000000; stroke-width: 0.8; stroke-linejoin: miter; stroke-linecap: square"/>
   </g>
   <g id="legend_1">
    <g id="patch_7">
     <path d="M 313.267188 44.55625 
L 387.490625 44.55625 
Q 389.490625 44.55625 389.490625 42.55625 
L 389.490625 14.2 
Q 389.490625 12.2 387.490625 12.2 
L 313.267188 12.2 
Q 311.267188 12.2 311.267188 14.2 
L 311.267188 42.55625 
Q 311.267188 44.55625 313.267188 44.55625 
z
" style="fill: #ffffff; opacity: 0.8; stroke: #cccccc; stroke-linejoin: miter"/>
    </g>
    <g id="line2d_16">
     <path d="M 315.267188 20.298437 
L 315.267188 20.298437 
L 325.267188 20.298437 
L 325.267188 20.298437 
L 335.267188 20.298437 
" style="fill: none; stroke: #1f77b4; stroke-width: 1.5; stroke-linecap: square"/>
    </g>
    <g id="text_18">
     <!-- monitor -->
     <g transform="translate(343.267188 23.798437) scale(0.1 -0.1)">
      <defs>
       <path id="DejaVuSans-6d" d="M 3328 2828 
Q 3544 3216 3844 3400 
Q 4144 3584 4550 3584 
Q 5097 3584 5394 3201 
Q 5691 2819 5691 2113 
L 5691 0 
L 5113 0 
L 5113 2094 
Q 5113 2597 4934 2840 
Q 4756 3084 4391 3084 
Q 3944 3084 3684 2787 
Q 3425 2491 3425 1978 
L 3425 0 
L 2847 0 
L 2847 2094 
Q 2847 2600 2669 2842 
Q 2491 3084 2119 3084 
Q 1678 3084 1418 2786 
Q 1159 2488 1159 1978 
L 1159 0 
L 581 0 
L 581 3500 
L 1159 3500 
L 1159 2956 
Q 1356 3278 1631 3431 
Q 1906 3584 2284 3584 
Q 2666 3584 2933 3390 
Q 3200 3197 3328 2828 
z
" transform="scale(0.015625)"/>
       <path id="DejaVuSans-69" d="M 603 3500 
L 1178 3500 
L 1178 0 
L 603 0 
L 603 3500 
z
M 603 4863 
L 1178 4863 
L 1178 4134 
L 603 4134 
L 603 4863 
z
" transform="scale(0.015625)"/>
       <path id="DejaVuSans-72" d="M 2631 2963 
Q 2534 3019 2420 3045 
Q 2306 3072 2169 3072 
Q 1681 3072 1420 2755 
Q 1159 2438 1159 1844 
L 1159 0 
L 581 0 
L 581 3500 
L 1159 3500 
L 1159 2956 
Q 1341 3275 1631 3429 
Q 1922 3584 2338 3584 
Q 2397 3584 2469 3576 
Q 2541 3569 2628 3553 
L 2631 2963 
z
" transform="scale(0.015625)"/>
      </defs>
      <use xlink:href="#DejaVuSans-6d"/>
      <use xlink:href="#DejaVuSans-6f" transform="translate(97.412109 0)"/>
      <use xlink:href="#DejaVuSans-6e" transform="translate(158.59375 0)"/>
      <use xlink:href="#DejaVuSans-69" transform="translate(221.972656 0)"/>
      <use xlink:href="#DejaVuSans-74" transform="translate(249.755859 0)"/>
      <use xlink:href="#DejaVuSans-6f" transform="translate(288.964844 0)"/>
      <use xlink:href="#DejaVuSans-72" transform="translate(350.146484 0)"/>
     </g>
    </g>
    <g id="line2d_17">
     <path d="M 315.267188 34.976562 
L 315.267188 34.976562 
L 325.267188 34.976562 
L 325.267188 34.976562 
L 335.267188 34.976562 
" style="fill: none; stroke: #ff7f0e; stroke-width: 1.5; stroke-linecap: square"/>
    </g>
    <g id="text_19">
     <!-- detector -->
     <g transform="translate(343.267188 38.476562) scale(0.1 -0.1)">
      <defs>
       <path id="DejaVuSans-64" d="M 2906 2969 
L 2906 4863 
L 3481 4863 
L 3481 0 
L 2906 0 
L 2906 525 
Q 2725 213 2448 61 
Q 2172 -91 1784 -91 
Q 1150 -91 751 415 
Q 353 922 353 1747 
Q 353 2572 751 3078 
Q 1150 3584 1784 3584 
Q 2172 3584 2448 3432 
Q 2725 3281 2906 2969 
z
M 947 1747 
Q 947 1113 1208 752 
Q 1469 391 1925 391 
Q 2381 391 2643 752 
Q 2906 1113 2906 1747 
Q 2906 2381 2643 2742 
Q 2381 3103 1925 3103 
Q 1469 3103 1208 2742 
Q 947 2381 947 1747 
z
" transform="scale(0.015625)"/>
       <path id="DejaVuSans-65" d="M 3597 1894 
L 3597 1613 
L 953 1613 
Q 991 1019 1311 708 
Q 1631 397 2203 397 
Q 2534 397 2845 478 
Q 3156 559 3463 722 
L 3463 178 
Q 3153 47 2828 -22 
Q 2503 -91 2169 -91 
Q 1331 -91 842 396 
Q 353 884 353 1716 
Q 353 2575 817 3079 
Q 1281 3584 2069 3584 
Q 2775 3584 3186 3129 
Q 3597 2675 3597 1894 
z
M 3022 2063 
Q 3016 2534 2758 2815 
Q 2500 3097 2075 3097 
Q 1594 3097 1305 2825 
Q 1016 2553 972 2059 
L 3022 2063 
z
" transform="scale(0.015625)"/>
      </defs>
      <use xlink:href="#DejaVuSans-64"/>
      <use xlink:href="#DejaVuSans-65" transform="translate(63.476562 0)"/>
      <use xlink:href="#DejaVuSans-74" transform="translate(125 0)"/>
      <use xlink:href="#DejaVuSans-65" transform="translate(164.208984 0)"/>
      <use xlink:href="#DejaVuSans-63" transform="translate(225.732422 0)"/>
      <use xlink:href="#DejaVuSans-74" transform="translate(280.712891 0)"/>
      <use xlink:href="#DejaVuSans-6f" transform="translate(319.921875 0)"/>
      <use xlink:href="#DejaVuSans-72" transform="translate(381.103516 0)"/>
     </g>
    </g>
   </g>
   <g id="line2d_18">
    <path d="M 74.908807 218.863343 
L 78.926809 218.88 
L 78.926809 218.663459 
L 81.94031 218.71343 
L 81.94031 218.513545 
L 85.958312 218.480231 
L 85.958312 217.880578 
L 86.962812 217.880578 
L 86.962812 218.163748 
L 87.967313 218.163748 
L 87.967313 217.847264 
L 88.971813 217.847264 
L 88.971813 217.714008 
L 90.980814 217.730665 
L 90.980814 217.131012 
L 91.985314 217.131012 
L 91.985314 217.580752 
L 92.989815 217.580752 
L 92.989815 216.931128 
L 93.994315 216.931128 
L 93.994315 216.448074 
L 94.998816 216.448074 
L 94.998816 215.731822 
L 96.003316 215.731822 
L 96.003316 214.56583 
L 97.007817 214.56583 
L 97.007817 213.633036 
L 98.012317 213.633036 
L 98.012317 213.399838 
L 99.016818 213.399838 
L 99.016818 211.750792 
L 100.021318 211.750792 
L 100.021318 209.552065 
L 101.025819 209.552065 
L 101.025819 208.769184 
L 102.030319 208.769184 
L 102.030319 204.588271 
L 103.034819 204.588271 
L 103.034819 202.173002 
L 104.03932 202.173002 
L 104.03932 194.427484 
L 105.04382 194.427484 
L 105.04382 190.86288 
L 106.048321 190.86288 
L 106.048321 185.832458 
L 107.052821 185.832458 
L 107.052821 179.619387 
L 108.057322 179.619387 
L 108.057322 173.106489 
L 109.061822 173.106489 
L 109.061822 163.778554 
L 110.066323 163.778554 
L 110.066323 159.197872 
L 111.070823 159.197872 
L 111.070823 152.052007 
L 112.075323 152.052007 
L 112.075323 142.074448 
L 113.079824 142.074448 
L 113.079824 134.195674 
L 114.084324 134.195674 
L 114.084324 123.735061 
L 115.088825 123.735061 
L 115.088825 115.256634 
L 116.093325 115.256634 
L 116.093325 103.06369 
L 117.097826 103.06369 
L 117.097826 94.085552 
L 118.102326 94.085552 
L 118.102326 81.692724 
L 119.106827 81.692724 
L 119.106827 78.394633 
L 120.111327 78.394633 
L 120.111327 60.571614 
L 121.115828 60.571614 
L 121.115828 55.60782 
L 122.120328 55.60782 
L 122.120328 43.364905 
L 123.124828 43.364905 
L 123.124828 43.16502 
L 124.129329 43.16502 
L 124.129329 36.702094 
L 125.133829 36.702094 
L 125.133829 30.239167 
L 126.13833 30.239167 
L 126.13833 34.603308 
L 127.14283 34.603308 
L 127.14283 24.076067 
L 128.147331 24.076067 
L 128.147331 21.444257 
L 129.151831 21.444257 
L 129.151831 21.777397 
L 130.156332 21.777397 
L 130.156332 34.236854 
L 131.160832 34.236854 
L 131.160832 19.562013 
L 132.165332 19.562013 
L 132.165332 24.592435 
L 133.169833 24.592435 
L 133.169833 17.89631 
L 134.174333 17.89631 
L 134.174333 29.289717 
L 135.178834 29.289717 
L 135.178834 24.892261 
L 136.183334 24.892261 
L 136.183334 17.89631 
L 137.187835 17.89631 
L 137.187835 17.28 
L 138.192335 17.28 
L 138.192335 23.126617 
L 139.196836 23.126617 
L 139.196836 21.527542 
L 140.201336 21.527542 
L 140.201336 20.428178 
L 141.205837 20.428178 
L 141.205837 21.660798 
L 142.210337 21.660798 
L 142.210337 33.070862 
L 143.214837 33.070862 
L 143.214837 30.67225 
L 144.219338 30.67225 
L 144.219338 20.81129 
L 145.223838 20.81129 
L 145.223838 36.602152 
L 146.228339 36.602152 
L 146.228339 39.100706 
L 147.232839 39.100706 
L 147.232839 42.598681 
L 148.23734 42.598681 
L 148.23734 47.47919 
L 149.24184 47.47919 
L 149.24184 50.177629 
L 150.246341 50.177629 
L 150.246341 54.858253 
L 151.250841 54.858253 
L 151.250841 42.99845 
L 152.255341 42.99845 
L 152.255341 55.258022 
L 153.259842 55.258022 
L 153.259842 68.167218 
L 154.264342 68.167218 
L 154.264342 69.849578 
L 155.268843 69.849578 
L 155.268843 70.749057 
L 156.273343 70.749057 
L 156.273343 78.527889 
L 157.277844 78.527889 
L 157.277844 78.960972 
L 158.282344 78.960972 
L 158.282344 98.682892 
L 159.286845 98.682892 
L 159.286845 77.745009 
L 160.291345 77.745009 
L 160.291345 94.418693 
L 161.295846 94.418693 
L 161.295846 103.180289 
L 162.300346 103.180289 
L 162.300346 94.968375 
L 163.304846 94.968375 
L 163.304846 96.200995 
L 164.309347 96.200995 
L 164.309347 104.712736 
L 165.313847 104.712736 
L 165.313847 109.609902 
L 166.318348 109.609902 
L 166.318348 114.806894 
L 167.322848 114.806894 
L 167.322848 107.444488 
L 168.327349 107.444488 
L 168.327349 107.111348 
L 169.331849 107.111348 
L 169.331849 119.08775 
L 170.33635 119.08775 
L 170.33635 116.922337 
L 171.34085 116.922337 
L 171.34085 123.618462 
L 172.34535 123.618462 
L 172.34535 121.936102 
L 173.349851 121.936102 
L 173.349851 126.333557 
L 174.354351 126.333557 
L 174.354351 124.934367 
L 175.358852 124.934367 
L 175.358852 137.160625 
L 176.363352 137.160625 
L 176.363352 132.563285 
L 177.367853 132.563285 
L 177.367853 128.815454 
L 178.372353 128.815454 
L 178.372353 136.844141 
L 179.376854 136.844141 
L 179.376854 140.458716 
L 180.381354 140.458716 
L 180.381354 140.858485 
L 181.385855 140.858485 
L 181.385855 130.697698 
L 182.390355 130.697698 
L 182.390355 149.470168 
L 183.394855 149.470168 
L 183.394855 146.671787 
L 184.399356 146.671787 
L 184.399356 145.639051 
L 185.403856 145.639051 
L 185.403856 148.387461 
L 186.408357 148.387461 
L 186.408357 146.222047 
L 187.412857 146.222047 
L 187.412857 151.735523 
L 188.417358 151.735523 
L 188.417358 156.532747 
L 189.421858 156.532747 
L 189.421858 153.701053 
L 190.426359 153.701053 
L 190.426359 158.698161 
L 191.430859 158.698161 
L 191.430859 157.598797 
L 192.435359 157.598797 
L 192.435359 156.649346 
L 193.43986 156.649346 
L 193.43986 159.780868 
L 194.44436 159.780868 
L 194.44436 161.613141 
L 195.448861 161.613141 
L 195.448861 163.828525 
L 196.453361 163.828525 
L 196.453361 166.077224 
L 197.457862 166.077224 
L 197.457862 167.842869 
L 198.462362 167.842869 
L 198.462362 167.559699 
L 199.466863 167.559699 
L 199.466863 163.811868 
L 200.471363 163.811868 
L 200.471363 174.755535 
L 201.475864 174.755535 
L 201.475864 176.421238 
L 202.480364 176.421238 
L 202.480364 174.439051 
L 203.484864 174.439051 
L 203.484864 179.686015 
L 204.489365 179.686015 
L 204.489365 179.902556 
L 205.493865 179.902556 
L 205.493865 181.534945 
L 206.498366 181.534945 
L 206.498366 180.21904 
L 207.502866 180.21904 
L 207.502866 185.815801 
L 208.507367 185.815801 
L 208.507367 187.065078 
L 209.511867 187.065078 
L 209.511867 188.880694 
L 210.516368 188.880694 
L 210.516368 190.030029 
L 211.520868 190.030029 
L 211.520868 194.993823 
L 212.525368 194.993823 
L 212.525368 190.896194 
L 213.529869 190.896194 
L 213.529869 193.827831 
L 214.534369 193.827831 
L 214.534369 191.712389 
L 215.53887 191.712389 
L 215.53887 198.70834 
L 216.54337 198.70834 
L 216.54337 198.525113 
L 217.547871 198.525113 
L 217.547871 199.741076 
L 218.552371 199.741076 
L 218.552371 201.706605 
L 219.556872 201.706605 
L 219.556872 200.72384 
L 220.561372 200.72384 
L 220.561372 200.540613 
L 221.565873 200.540613 
L 221.565873 204.338415 
L 222.570373 204.338415 
L 222.570373 205.521064 
L 223.574873 205.521064 
L 223.574873 206.970226 
L 224.579374 206.970226 
L 224.579374 206.5538 
L 225.583874 206.5538 
L 225.583874 207.33668 
L 226.588375 207.33668 
L 226.588375 209.002383 
L 227.592875 209.002383 
L 227.592875 210.401573 
L 228.597376 210.401573 
L 228.597376 209.985147 
L 229.601876 209.985147 
L 229.601876 211.017883 
L 230.606377 211.017883 
L 230.606377 211.700821 
L 231.610877 211.700821 
L 231.610877 213.466466 
L 232.615377 213.466466 
L 232.615377 212.683586 
L 233.619878 212.683586 
L 233.619878 213.766293 
L 234.624378 213.766293 
L 234.624378 214.898971 
L 235.628879 214.898971 
L 235.628879 215.365367 
L 236.633379 215.365367 
L 236.633379 216.064962 
L 238.64238 216.014991 
L 238.64238 216.481388 
L 239.646881 216.481388 
L 239.646881 217.530781 
L 240.651381 217.530781 
L 240.651381 217.81395 
L 242.660382 217.830607 
L 242.660382 218.26369 
L 243.664882 218.26369 
L 243.664882 218.580174 
L 244.669383 218.580174 
L 244.669383 218.88 
L 379.272443 218.88 
L 379.272443 218.88 
" clip-path="url(#p7489d61377)" style="fill: none; stroke: #1f77b4; stroke-width: 1.5; stroke-linecap: square"/>
   </g>
   <g id="line2d_19">
    <path d="M 74.908807 218.88 
L 108.057322 218.88 
L 108.057322 218.696773 
L 110.066323 218.780058 
L 110.066323 218.846686 
L 111.070823 218.846686 
L 111.070823 218.613488 
L 112.075323 218.613488 
L 112.075323 218.780058 
L 113.079824 218.780058 
L 113.079824 218.496888 
L 115.088825 218.546859 
L 115.088825 218.630145 
L 116.093325 218.630145 
L 116.093325 218.780058 
L 117.097826 218.780058 
L 117.097826 218.280347 
L 119.106827 218.297004 
L 119.106827 218.080463 
L 120.111327 218.080463 
L 120.111327 218.280347 
L 121.115828 218.280347 
L 121.115828 218.047149 
L 122.120328 218.047149 
L 122.120328 217.930549 
L 123.124828 217.930549 
L 123.124828 218.09712 
L 125.133829 218.013835 
L 125.133829 217.880578 
L 127.14283 217.863921 
L 127.14283 217.280925 
L 128.147331 217.280925 
L 128.147331 217.547438 
L 129.151831 217.547438 
L 129.151831 216.964442 
L 130.156332 216.964442 
L 130.156332 216.398103 
L 131.160832 216.398103 
L 131.160832 216.564673 
L 132.165332 216.564673 
L 132.165332 215.765136 
L 133.169833 215.765136 
L 133.169833 216.148248 
L 134.174333 216.148248 
L 134.174333 215.881735 
L 135.178834 215.881735 
L 135.178834 215.298739 
L 136.183334 215.298739 
L 136.183334 213.566408 
L 137.187835 213.566408 
L 137.187835 214.249346 
L 138.192335 214.249346 
L 138.192335 213.599722 
L 139.196836 213.599722 
L 139.196836 213.066698 
L 140.201336 213.066698 
L 140.201336 211.467623 
L 141.205837 211.467623 
L 141.205837 210.401573 
L 142.210337 210.401573 
L 142.210337 209.052354 
L 143.214837 209.052354 
L 143.214837 207.919676 
L 144.219338 207.919676 
L 144.219338 205.15461 
L 145.223838 205.15461 
L 145.223838 204.854783 
L 146.228339 204.854783 
L 146.228339 202.139688 
L 147.232839 202.139688 
L 147.232839 200.357386 
L 148.23734 200.357386 
L 148.23734 196.976009 
L 149.24184 196.976009 
L 149.24184 196.69284 
L 150.246341 196.69284 
L 150.246341 192.71181 
L 151.250841 192.71181 
L 151.250841 192.045529 
L 152.255341 192.045529 
L 152.255341 187.847958 
L 153.259842 187.847958 
L 153.259842 186.865194 
L 154.264342 186.865194 
L 154.264342 180.951949 
L 155.268843 180.951949 
L 155.268843 182.101284 
L 156.273343 182.101284 
L 156.273343 178.869821 
L 157.277844 178.869821 
L 157.277844 175.105333 
L 158.282344 175.105333 
L 158.282344 172.756692 
L 159.286845 172.756692 
L 159.286845 168.142695 
L 160.291345 168.142695 
L 160.291345 165.644141 
L 161.295846 165.644141 
L 161.295846 161.579826 
L 162.300346 161.579826 
L 162.300346 158.081851 
L 163.304846 158.081851 
L 163.304846 153.651082 
L 165.313847 153.701053 
L 165.313847 147.55461 
L 166.318348 147.55461 
L 166.318348 141.308224 
L 167.322848 141.308224 
L 167.322848 140.708571 
L 168.327349 140.708571 
L 168.327349 136.910769 
L 169.331849 136.910769 
L 169.331849 135.478265 
L 170.33635 135.478265 
L 170.33635 127.283008 
L 171.34085 127.283008 
L 171.34085 125.983759 
L 172.34535 125.983759 
L 172.34535 124.284743 
L 173.349851 124.284743 
L 173.349851 113.507646 
L 174.354351 113.507646 
L 174.354351 115.423204 
L 176.363352 115.423204 
L 176.363352 115.972886 
L 177.367853 115.972886 
L 177.367853 107.944199 
L 179.376854 107.877571 
L 179.376854 108.543852 
L 180.381354 108.543852 
L 180.381354 110.892493 
L 181.385855 110.892493 
L 181.385855 104.213025 
L 182.390355 104.213025 
L 182.390355 101.647843 
L 183.394855 101.647843 
L 183.394855 105.795442 
L 184.399356 105.795442 
L 184.399356 101.431301 
L 185.403856 101.431301 
L 185.403856 99.848884 
L 186.408357 99.848884 
L 186.408357 103.879884 
L 187.412857 103.879884 
L 187.412857 99.748942 
L 188.417358 99.748942 
L 188.417358 94.901747 
L 189.421858 94.901747 
L 189.421858 108.876992 
L 190.426359 108.876992 
L 190.426359 105.112504 
L 191.430859 105.112504 
L 191.430859 97.317016 
L 192.435359 97.317016 
L 192.435359 107.044719 
L 193.43986 107.044719 
L 193.43986 100.032111 
L 194.44436 100.032111 
L 194.44436 96.950561 
L 195.448861 96.950561 
L 195.448861 103.480116 
L 196.453361 103.480116 
L 196.453361 105.628872 
L 197.457862 105.628872 
L 197.457862 98.799491 
L 198.462362 98.799491 
L 198.462362 102.847149 
L 199.466863 102.847149 
L 199.466863 96.917247 
L 200.471363 96.917247 
L 200.471363 100.59845 
L 201.475864 100.59845 
L 201.475864 103.663343 
L 202.480364 103.663343 
L 202.480364 100.115396 
L 203.484864 100.115396 
L 203.484864 93.20273 
L 204.489365 93.20273 
L 204.489365 101.181446 
L 205.493865 101.181446 
L 205.493865 104.496194 
L 206.498366 104.496194 
L 206.498366 101.847727 
L 207.502866 101.847727 
L 207.502866 109.859757 
L 208.507367 109.859757 
L 208.507367 109.50996 
L 209.511867 109.50996 
L 209.511867 97.949983 
L 210.516368 97.949983 
L 210.516368 101.497929 
L 211.520868 101.497929 
L 211.520868 109.626559 
L 212.525368 109.626559 
L 212.525368 107.277918 
L 213.529869 107.277918 
L 213.529869 102.947091 
L 214.534369 102.947091 
L 214.534369 115.423204 
L 215.53887 115.423204 
L 215.53887 110.74258 
L 216.54337 110.74258 
L 216.54337 109.726501 
L 217.547871 109.726501 
L 217.547871 116.422626 
L 218.552371 116.422626 
L 218.552371 113.807473 
L 219.556872 113.807473 
L 219.556872 117.038936 
L 220.561372 117.038936 
L 220.561372 115.023436 
L 221.565873 115.023436 
L 221.565873 117.85513 
L 222.570373 117.85513 
L 222.570373 121.003308 
L 223.574873 121.003308 
L 223.574873 128.865425 
L 224.579374 128.865425 
L 224.579374 120.636854 
L 225.583874 120.636854 
L 225.583874 122.352527 
L 226.588375 122.352527 
L 226.588375 128.132516 
L 227.592875 128.132516 
L 227.592875 126.017073 
L 228.597376 126.017073 
L 228.597376 127.699433 
L 229.601876 127.699433 
L 229.601876 128.315743 
L 230.606377 128.315743 
L 230.606377 134.462186 
L 231.610877 134.462186 
L 231.610877 132.846455 
L 232.615377 132.846455 
L 232.615377 134.395558 
L 233.619878 134.395558 
L 233.619878 133.54605 
L 234.624378 133.54605 
L 234.624378 144.256518 
L 235.628879 144.256518 
L 235.628879 138.659757 
L 236.633379 138.659757 
L 236.633379 141.857906 
L 237.63788 141.857906 
L 237.63788 147.837779 
L 238.64238 147.837779 
L 238.64238 139.009555 
L 239.646881 139.009555 
L 239.646881 142.50753 
L 240.651381 142.50753 
L 240.651381 143.007241 
L 241.655882 143.007241 
L 241.655882 148.537374 
L 242.660382 148.537374 
L 242.660382 148.9538 
L 243.664882 148.9538 
L 243.664882 149.620081 
L 244.669383 149.620081 
L 244.669383 144.439746 
L 245.673883 144.439746 
L 245.673883 152.618346 
L 246.678384 152.618346 
L 246.678384 151.535639 
L 247.682884 151.535639 
L 247.682884 154.21742 
L 248.687385 154.21742 
L 248.687385 146.371961 
L 249.691885 146.371961 
L 249.691885 155.683239 
L 250.696386 155.683239 
L 250.696386 156.815917 
L 251.700886 156.815917 
L 251.700886 157.215685 
L 252.705386 157.215685 
L 252.705386 152.418462 
L 253.709887 152.418462 
L 253.709887 159.697582 
L 254.714387 159.697582 
L 254.714387 161.479884 
L 255.718888 161.479884 
L 255.718888 157.74871 
L 256.723388 157.74871 
L 256.723388 159.747553 
L 257.727889 159.747553 
L 257.727889 167.376472 
L 258.732389 167.376472 
L 258.732389 156.316206 
L 259.73689 156.316206 
L 259.73689 159.614297 
L 260.74139 159.614297 
L 260.74139 160.880231 
L 261.745891 160.880231 
L 261.745891 170.241481 
L 262.750391 170.241481 
L 262.750391 165.627484 
L 263.754891 165.627484 
L 263.754891 162.296079 
L 264.759392 162.296079 
L 264.759392 170.80782 
L 265.763892 170.80782 
L 265.763892 166.37705 
L 267.772893 166.393707 
L 267.772893 171.224245 
L 268.777394 171.224245 
L 268.777394 169.441943 
L 269.781894 169.441943 
L 269.781894 169.5752 
L 270.786395 169.5752 
L 270.786395 168.825633 
L 271.790895 168.825633 
L 271.790895 171.5907 
L 272.795395 171.5907 
L 272.795395 170.69122 
L 273.799896 170.69122 
L 273.799896 177.13749 
L 274.804396 177.13749 
L 274.804396 171.174274 
L 275.808897 171.174274 
L 275.808897 172.456865 
L 276.813397 172.456865 
L 276.813397 170.07491 
L 277.817898 170.07491 
L 277.817898 174.588965 
L 278.822398 174.588965 
L 278.822398 179.302903 
L 279.826899 179.302903 
L 279.826899 178.286825 
L 280.831399 178.286825 
L 280.831399 176.604465 
L 281.8359 176.604465 
L 281.8359 179.236275 
L 282.8404 179.236275 
L 282.8404 173.506258 
L 283.8449 173.506258 
L 283.8449 175.388502 
L 284.849401 175.388502 
L 284.849401 183.600416 
L 285.853901 183.600416 
L 285.853901 178.386767 
L 286.858402 178.386767 
L 286.858402 178.253511 
L 287.862902 178.253511 
L 287.862902 184.916322 
L 288.867403 184.916322 
L 288.867403 184.499896 
L 289.871903 184.499896 
L 289.871903 178.486709 
L 290.876404 178.486709 
L 290.876404 183.816958 
L 291.880904 183.816958 
L 291.880904 181.484974 
L 292.885404 181.484974 
L 292.885404 182.534367 
L 293.889905 182.534367 
L 293.889905 185.76583 
L 294.894405 185.76583 
L 294.894405 181.051891 
L 295.898906 181.051891 
L 295.898906 183.084049 
L 296.903406 183.084049 
L 296.903406 187.381562 
L 297.907907 187.381562 
L 297.907907 188.414297 
L 298.912407 188.414297 
L 298.912407 186.148942 
L 299.916908 186.148942 
L 299.916908 187.314933 
L 300.921408 187.314933 
L 300.921408 189.580289 
L 301.925909 189.580289 
L 301.925909 185.615917 
L 302.930409 185.615917 
L 302.930409 190.596368 
L 303.934909 190.596368 
L 303.934909 189.130549 
L 304.93941 189.130549 
L 304.93941 191.279306 
L 305.94391 191.279306 
L 305.94391 191.695732 
L 306.948411 191.695732 
L 306.948411 191.945587 
L 307.952911 191.945587 
L 307.952911 190.646339 
L 308.957412 190.646339 
L 308.957412 194.344199 
L 309.961912 194.344199 
L 309.961912 193.244835 
L 310.966413 193.244835 
L 310.966413 197.459063 
L 311.970913 197.459063 
L 311.970913 194.344199 
L 312.975413 194.344199 
L 312.975413 196.07653 
L 313.979914 196.07653 
L 313.979914 194.594054 
L 314.984414 194.594054 
L 314.984414 198.675026 
L 315.988915 198.675026 
L 315.988915 198.87491 
L 316.993415 198.87491 
L 316.993415 197.825518 
L 319.002416 197.875489 
L 319.002416 199.074795 
L 320.006917 199.074795 
L 320.006917 200.290758 
L 321.011417 200.290758 
L 321.011417 202.872597 
L 322.015918 202.872597 
L 322.015918 200.72384 
L 323.020418 200.72384 
L 323.020418 202.472828 
L 324.024918 202.472828 
L 324.024918 202.672713 
L 325.029419 202.672713 
L 325.029419 203.239051 
L 326.033919 203.239051 
L 326.033919 203.622163 
L 327.03842 203.622163 
L 327.03842 202.955882 
L 328.04292 202.955882 
L 328.04292 204.405043 
L 329.047421 204.405043 
L 329.047421 203.755419 
L 330.051921 203.755419 
L 330.051921 205.554378 
L 331.056422 205.554378 
L 331.056422 206.087403 
L 332.060922 206.087403 
L 332.060922 207.386651 
L 333.065422 207.386651 
L 333.065422 206.5538 
L 334.069923 206.5538 
L 334.069923 208.052932 
L 335.074423 208.052932 
L 335.074423 207.186767 
L 336.078924 207.186767 
L 336.078924 207.653164 
L 337.083424 207.653164 
L 337.083424 208.685899 
L 338.087925 208.685899 
L 338.087925 208.819156 
L 339.092425 208.819156 
L 339.092425 208.302788 
L 340.096926 208.302788 
L 340.096926 209.002383 
L 341.101426 209.002383 
L 341.101426 210.101747 
L 342.105927 210.101747 
L 342.105927 210.25166 
L 343.110427 210.25166 
L 343.110427 211.834078 
L 344.114927 211.834078 
L 344.114927 210.734714 
L 345.119428 210.734714 
L 345.119428 212.333788 
L 346.123928 212.333788 
L 346.123928 211.167796 
L 347.128429 211.167796 
L 347.128429 212.200532 
L 348.132929 212.200532 
L 348.132929 212.700243 
L 350.14193 212.683586 
L 350.14193 214.482545 
L 351.146431 214.482545 
L 351.146431 212.417073 
L 352.150931 212.417073 
L 352.150931 214.7324 
L 353.155431 214.7324 
L 353.155431 213.100012 
L 354.159932 213.100012 
L 354.159932 214.166061 
L 355.164432 214.166061 
L 355.164432 215.548595 
L 356.168933 215.548595 
L 356.168933 213.999491 
L 357.173433 213.999491 
L 357.173433 215.431995 
L 358.177934 215.431995 
L 358.177934 215.581909 
L 359.182434 215.581909 
L 359.182434 215.382024 
L 360.186935 215.382024 
L 360.186935 216.081619 
L 361.191435 216.081619 
L 361.191435 215.398681 
L 362.195936 215.398681 
L 362.195936 216.814529 
L 363.200436 216.814529 
L 363.200436 216.664615 
L 365.209437 216.764558 
L 365.209437 217.047727 
L 368.222938 217.081041 
L 368.222938 217.230954 
L 369.227439 217.230954 
L 369.227439 217.797293 
L 371.23644 217.880578 
L 371.23644 218.197062 
L 375.254441 218.213719 
L 375.254441 218.463574 
L 376.258942 218.463574 
L 376.258942 218.646802 
L 378.267943 218.663459 
L 378.267943 218.846686 
L 379.272443 218.846686 
L 379.272443 218.846686 
" clip-path="url(#p7489d61377)" style="fill: none; stroke: #ff7f0e; stroke-width: 1.5; stroke-linecap: square"/>
   </g>
  </g>
 </g>
 <defs>
  <clipPath id="p7489d61377">
   <rect x="59.690625" y="7.2" width="334.8" height="221.76"/>
  </clipPath>
 </defs>
</svg>
