<?xml version="1.0" encoding="utf-8" standalone="no"?>
<!DOCTYPE svg PUBLIC "-//W3C//DTD SVG 1.1//EN"
  "http://www.w3.org/Graphics/SVG/1.1/DTD/svg11.dtd">
<svg xmlns:xlink="http://www.w3.org/1999/xlink" width="872.39952pt" height="296.39952pt" viewBox="0 0 872.39952 296.39952" xmlns="http://www.w3.org/2000/svg" version="1.1">
 <metadata>
  <rdf:RDF xmlns:dc="http://purl.org/dc/elements/1.1/" xmlns:cc="http://creativecommons.org/ns#" xmlns:rdf="http://www.w3.org/1999/02/22-rdf-syntax-ns#">
   <cc:Work>
    <dc:type rdf:resource="http://purl.org/dc/dcmitype/StillImage"/>
    <dc:date>2025-04-10T08:50:58.983167</dc:date>
    <dc:format>image/svg+xml</dc:format>
    <dc:creator>
     <cc:Agent>
      <dc:title>Matplotlib v3.10.1, https://matplotlib.org/</dc:title>
     </cc:Agent>
    </dc:creator>
   </cc:Work>
  </rdf:RDF>
 </metadata>
 <defs>
  <style type="text/css">*{stroke-linejoin: round; stroke-linecap: butt}</style>
 </defs>
 <g id="figure_1">
  <g id="patch_1">
   <path d="M 0 296.39952 
L 872.39952 296.39952 
L 872.39952 0 
L 0 0 
z
" style="fill: #ffffff"/>
  </g>
  <g id="axes_1">
   <g id="patch_2">
    <path d="M 46.965625 257.158895 
L 431.87976 257.158895 
L 431.87976 22.318125 
L 46.965625 22.318125 
z
" style="fill: #ffffff"/>
   </g>
   <g id="matplotlib.axis_1">
    <g id="xtick_1">
     <g id="line2d_1">
      <defs>
       <path id="mdf6d17a87d" d="M 0 0 
L 0 3.5 
" style="stroke: #000000; stroke-width: 0.8"/>
      </defs>
      <g>
       <use xlink:href="#mdf6d17a87d" x="82.878666" y="257.158895" style="stroke: #000000; stroke-width: 0.8"/>
      </g>
     </g>
     <g id="text_1">
      <!-- 1.0 -->
      <g transform="translate(74.927104 271.757332) scale(0.1 -0.1)">
       <defs>
        <path id="DejaVuSans-31" d="M 794 531 
L 1825 531 
L 1825 4091 
L 703 3866 
L 703 4441 
L 1819 4666 
L 2450 4666 
L 2450 531 
L 3481 531 
L 3481 0 
L 794 0 
L 794 531 
z
" transform="scale(0.015625)"/>
        <path id="DejaVuSans-2e" d="M 684 794 
L 1344 794 
L 1344 0 
L 684 0 
L 684 794 
z
" transform="scale(0.015625)"/>
        <path id="DejaVuSans-30" d="M 2034 4250 
Q 1547 4250 1301 3770 
Q 1056 3291 1056 2328 
Q 1056 1369 1301 889 
Q 1547 409 2034 409 
Q 2525 409 2770 889 
Q 3016 1369 3016 2328 
Q 3016 3291 2770 3770 
Q 2525 4250 2034 4250 
z
M 2034 4750 
Q 2819 4750 3233 4129 
Q 3647 3509 3647 2328 
Q 3647 1150 3233 529 
Q 2819 -91 2034 -91 
Q 1250 -91 836 529 
Q 422 1150 422 2328 
Q 422 3509 836 4129 
Q 1250 4750 2034 4750 
z
" transform="scale(0.015625)"/>
       </defs>
       <use xlink:href="#DejaVuSans-31"/>
       <use xlink:href="#DejaVuSans-2e" transform="translate(63.623047 0)"/>
       <use xlink:href="#DejaVuSans-30" transform="translate(95.410156 0)"/>
      </g>
     </g>
    </g>
    <g id="xtick_2">
     <g id="line2d_2">
      <g>
       <use xlink:href="#mdf6d17a87d" x="128.921027" y="257.158895" style="stroke: #000000; stroke-width: 0.8"/>
      </g>
     </g>
     <g id="text_2">
      <!-- 1.5 -->
      <g transform="translate(120.969464 271.757332) scale(0.1 -0.1)">
       <defs>
        <path id="DejaVuSans-35" d="M 691 4666 
L 3169 4666 
L 3169 4134 
L 1269 4134 
L 1269 2991 
Q 1406 3038 1543 3061 
Q 1681 3084 1819 3084 
Q 2600 3084 3056 2656 
Q 3513 2228 3513 1497 
Q 3513 744 3044 326 
Q 2575 -91 1722 -91 
Q 1428 -91 1123 -41 
Q 819 9 494 109 
L 494 744 
Q 775 591 1075 516 
Q 1375 441 1709 441 
Q 2250 441 2565 725 
Q 2881 1009 2881 1497 
Q 2881 1984 2565 2268 
Q 2250 2553 1709 2553 
Q 1456 2553 1204 2497 
Q 953 2441 691 2322 
L 691 4666 
z
" transform="scale(0.015625)"/>
       </defs>
       <use xlink:href="#DejaVuSans-31"/>
       <use xlink:href="#DejaVuSans-2e" transform="translate(63.623047 0)"/>
       <use xlink:href="#DejaVuSans-35" transform="translate(95.410156 0)"/>
      </g>
     </g>
    </g>
    <g id="xtick_3">
     <g id="line2d_3">
      <g>
       <use xlink:href="#mdf6d17a87d" x="174.963388" y="257.158895" style="stroke: #000000; stroke-width: 0.8"/>
      </g>
     </g>
     <g id="text_3">
      <!-- 2.0 -->
      <g transform="translate(167.011825 271.757332) scale(0.1 -0.1)">
       <defs>
        <path id="DejaVuSans-32" d="M 1228 531 
L 3431 531 
L 3431 0 
L 469 0 
L 469 531 
Q 828 903 1448 1529 
Q 2069 2156 2228 2338 
Q 2531 2678 2651 2914 
Q 2772 3150 2772 3378 
Q 2772 3750 2511 3984 
Q 2250 4219 1831 4219 
Q 1534 4219 1204 4116 
Q 875 4013 500 3803 
L 500 4441 
Q 881 4594 1212 4672 
Q 1544 4750 1819 4750 
Q 2544 4750 2975 4387 
Q 3406 4025 3406 3419 
Q 3406 3131 3298 2873 
Q 3191 2616 2906 2266 
Q 2828 2175 2409 1742 
Q 1991 1309 1228 531 
z
" transform="scale(0.015625)"/>
       </defs>
       <use xlink:href="#DejaVuSans-32"/>
       <use xlink:href="#DejaVuSans-2e" transform="translate(63.623047 0)"/>
       <use xlink:href="#DejaVuSans-30" transform="translate(95.410156 0)"/>
      </g>
     </g>
    </g>
    <g id="xtick_4">
     <g id="line2d_4">
      <g>
       <use xlink:href="#mdf6d17a87d" x="221.005748" y="257.158895" style="stroke: #000000; stroke-width: 0.8"/>
      </g>
     </g>
     <g id="text_4">
      <!-- 2.5 -->
      <g transform="translate(213.054186 271.757332) scale(0.1 -0.1)">
       <use xlink:href="#DejaVuSans-32"/>
       <use xlink:href="#DejaVuSans-2e" transform="translate(63.623047 0)"/>
       <use xlink:href="#DejaVuSans-35" transform="translate(95.410156 0)"/>
      </g>
     </g>
    </g>
    <g id="xtick_5">
     <g id="line2d_5">
      <g>
       <use xlink:href="#mdf6d17a87d" x="267.048109" y="257.158895" style="stroke: #000000; stroke-width: 0.8"/>
      </g>
     </g>
     <g id="text_5">
      <!-- 3.0 -->
      <g transform="translate(259.096546 271.757332) scale(0.1 -0.1)">
       <defs>
        <path id="DejaVuSans-33" d="M 2597 2516 
Q 3050 2419 3304 2112 
Q 3559 1806 3559 1356 
Q 3559 666 3084 287 
Q 2609 -91 1734 -91 
Q 1441 -91 1130 -33 
Q 819 25 488 141 
L 488 750 
Q 750 597 1062 519 
Q 1375 441 1716 441 
Q 2309 441 2620 675 
Q 2931 909 2931 1356 
Q 2931 1769 2642 2001 
Q 2353 2234 1838 2234 
L 1294 2234 
L 1294 2753 
L 1863 2753 
Q 2328 2753 2575 2939 
Q 2822 3125 2822 3475 
Q 2822 3834 2567 4026 
Q 2313 4219 1838 4219 
Q 1578 4219 1281 4162 
Q 984 4106 628 3988 
L 628 4550 
Q 988 4650 1302 4700 
Q 1616 4750 1894 4750 
Q 2613 4750 3031 4423 
Q 3450 4097 3450 3541 
Q 3450 3153 3228 2886 
Q 3006 2619 2597 2516 
z
" transform="scale(0.015625)"/>
       </defs>
       <use xlink:href="#DejaVuSans-33"/>
       <use xlink:href="#DejaVuSans-2e" transform="translate(63.623047 0)"/>
       <use xlink:href="#DejaVuSans-30" transform="translate(95.410156 0)"/>
      </g>
     </g>
    </g>
    <g id="xtick_6">
     <g id="line2d_6">
      <g>
       <use xlink:href="#mdf6d17a87d" x="313.09047" y="257.158895" style="stroke: #000000; stroke-width: 0.8"/>
      </g>
     </g>
     <g id="text_6">
      <!-- 3.5 -->
      <g transform="translate(305.138907 271.757332) scale(0.1 -0.1)">
       <use xlink:href="#DejaVuSans-33"/>
       <use xlink:href="#DejaVuSans-2e" transform="translate(63.623047 0)"/>
       <use xlink:href="#DejaVuSans-35" transform="translate(95.410156 0)"/>
      </g>
     </g>
    </g>
    <g id="xtick_7">
     <g id="line2d_7">
      <g>
       <use xlink:href="#mdf6d17a87d" x="359.13283" y="257.158895" style="stroke: #000000; stroke-width: 0.8"/>
      </g>
     </g>
     <g id="text_7">
      <!-- 4.0 -->
      <g transform="translate(351.181268 271.757332) scale(0.1 -0.1)">
       <defs>
        <path id="DejaVuSans-34" d="M 2419 4116 
L 825 1625 
L 2419 1625 
L 2419 4116 
z
M 2253 4666 
L 3047 4666 
L 3047 1625 
L 3713 1625 
L 3713 1100 
L 3047 1100 
L 3047 0 
L 2419 0 
L 2419 1100 
L 313 1100 
L 313 1709 
L 2253 4666 
z
" transform="scale(0.015625)"/>
       </defs>
       <use xlink:href="#DejaVuSans-34"/>
       <use xlink:href="#DejaVuSans-2e" transform="translate(63.623047 0)"/>
       <use xlink:href="#DejaVuSans-30" transform="translate(95.410156 0)"/>
      </g>
     </g>
    </g>
    <g id="xtick_8">
     <g id="line2d_8">
      <g>
       <use xlink:href="#mdf6d17a87d" x="405.175191" y="257.158895" style="stroke: #000000; stroke-width: 0.8"/>
      </g>
     </g>
     <g id="text_8">
      <!-- 4.5 -->
      <g transform="translate(397.223628 271.757332) scale(0.1 -0.1)">
       <use xlink:href="#DejaVuSans-34"/>
       <use xlink:href="#DejaVuSans-2e" transform="translate(63.623047 0)"/>
       <use xlink:href="#DejaVuSans-35" transform="translate(95.410156 0)"/>
      </g>
     </g>
    </g>
    <g id="text_9">
     <!-- wavelength [Å] -->
     <g transform="translate(201.385193 287.119832) scale(0.1 -0.1)">
      <defs>
       <path id="DejaVuSans-77" d="M 269 3500 
L 844 3500 
L 1563 769 
L 2278 3500 
L 2956 3500 
L 3675 769 
L 4391 3500 
L 4966 3500 
L 4050 0 
L 3372 0 
L 2619 2869 
L 1863 0 
L 1184 0 
L 269 3500 
z
" transform="scale(0.015625)"/>
       <path id="DejaVuSans-61" d="M 2194 1759 
Q 1497 1759 1228 1600 
Q 959 1441 959 1056 
Q 959 750 1161 570 
Q 1363 391 1709 391 
Q 2188 391 2477 730 
Q 2766 1069 2766 1631 
L 2766 1759 
L 2194 1759 
z
M 3341 1997 
L 3341 0 
L 2766 0 
L 2766 531 
Q 2569 213 2275 61 
Q 1981 -91 1556 -91 
Q 1019 -91 701 211 
Q 384 513 384 1019 
Q 384 1609 779 1909 
Q 1175 2209 1959 2209 
L 2766 2209 
L 2766 2266 
Q 2766 2663 2505 2880 
Q 2244 3097 1772 3097 
Q 1472 3097 1187 3025 
Q 903 2953 641 2809 
L 641 3341 
Q 956 3463 1253 3523 
Q 1550 3584 1831 3584 
Q 2591 3584 2966 3190 
Q 3341 2797 3341 1997 
z
" transform="scale(0.015625)"/>
       <path id="DejaVuSans-76" d="M 191 3500 
L 800 3500 
L 1894 563 
L 2988 3500 
L 3597 3500 
L 2284 0 
L 1503 0 
L 191 3500 
z
" transform="scale(0.015625)"/>
       <path id="DejaVuSans-65" d="M 3597 1894 
L 3597 1613 
L 953 1613 
Q 991 1019 1311 708 
Q 1631 397 2203 397 
Q 2534 397 2845 478 
Q 3156 559 3463 722 
L 3463 178 
Q 3153 47 2828 -22 
Q 2503 -91 2169 -91 
Q 1331 -91 842 396 
Q 353 884 353 1716 
Q 353 2575 817 3079 
Q 1281 3584 2069 3584 
Q 2775 3584 3186 3129 
Q 3597 2675 3597 1894 
z
M 3022 2063 
Q 3016 2534 2758 2815 
Q 2500 3097 2075 3097 
Q 1594 3097 1305 2825 
Q 1016 2553 972 2059 
L 3022 2063 
z
" transform="scale(0.015625)"/>
       <path id="DejaVuSans-6c" d="M 603 4863 
L 1178 4863 
L 1178 0 
L 603 0 
L 603 4863 
z
" transform="scale(0.015625)"/>
       <path id="DejaVuSans-6e" d="M 3513 2113 
L 3513 0 
L 2938 0 
L 2938 2094 
Q 2938 2591 2744 2837 
Q 2550 3084 2163 3084 
Q 1697 3084 1428 2787 
Q 1159 2491 1159 1978 
L 1159 0 
L 581 0 
L 581 3500 
L 1159 3500 
L 1159 2956 
Q 1366 3272 1645 3428 
Q 1925 3584 2291 3584 
Q 2894 3584 3203 3211 
Q 3513 2838 3513 2113 
z
" transform="scale(0.015625)"/>
       <path id="DejaVuSans-67" d="M 2906 1791 
Q 2906 2416 2648 2759 
Q 2391 3103 1925 3103 
Q 1463 3103 1205 2759 
Q 947 2416 947 1791 
Q 947 1169 1205 825 
Q 1463 481 1925 481 
Q 2391 481 2648 825 
Q 2906 1169 2906 1791 
z
M 3481 434 
Q 3481 -459 3084 -895 
Q 2688 -1331 1869 -1331 
Q 1566 -1331 1297 -1286 
Q 1028 -1241 775 -1147 
L 775 -588 
Q 1028 -725 1275 -790 
Q 1522 -856 1778 -856 
Q 2344 -856 2625 -561 
Q 2906 -266 2906 331 
L 2906 616 
Q 2728 306 2450 153 
Q 2172 0 1784 0 
Q 1141 0 747 490 
Q 353 981 353 1791 
Q 353 2603 747 3093 
Q 1141 3584 1784 3584 
Q 2172 3584 2450 3431 
Q 2728 3278 2906 2969 
L 2906 3500 
L 3481 3500 
L 3481 434 
z
" transform="scale(0.015625)"/>
       <path id="DejaVuSans-74" d="M 1172 4494 
L 1172 3500 
L 2356 3500 
L 2356 3053 
L 1172 3053 
L 1172 1153 
Q 1172 725 1289 603 
Q 1406 481 1766 481 
L 2356 481 
L 2356 0 
L 1766 0 
Q 1100 0 847 248 
Q 594 497 594 1153 
L 594 3053 
L 172 3053 
L 172 3500 
L 594 3500 
L 594 4494 
L 1172 4494 
z
" transform="scale(0.015625)"/>
       <path id="DejaVuSans-68" d="M 3513 2113 
L 3513 0 
L 2938 0 
L 2938 2094 
Q 2938 2591 2744 2837 
Q 2550 3084 2163 3084 
Q 1697 3084 1428 2787 
Q 1159 2491 1159 1978 
L 1159 0 
L 581 0 
L 581 4863 
L 1159 4863 
L 1159 2956 
Q 1366 3272 1645 3428 
Q 1925 3584 2291 3584 
Q 2894 3584 3203 3211 
Q 3513 2838 3513 2113 
z
" transform="scale(0.015625)"/>
       <path id="DejaVuSans-20" transform="scale(0.015625)"/>
       <path id="DejaVuSans-5b" d="M 550 4863 
L 1875 4863 
L 1875 4416 
L 1125 4416 
L 1125 -397 
L 1875 -397 
L 1875 -844 
L 550 -844 
L 550 4863 
z
" transform="scale(0.015625)"/>
       <path id="DejaVuSans-c5" d="M 2663 5081 
Q 2663 5278 2523 5417 
Q 2384 5556 2188 5556 
Q 1988 5556 1852 5420 
Q 1716 5284 1716 5081 
Q 1716 4884 1853 4746 
Q 1991 4609 2188 4609 
Q 2384 4609 2523 4746 
Q 2663 4884 2663 5081 
z
M 2188 4044 
L 1338 1722 
L 3041 1722 
L 2188 4044 
z
M 1716 4366 
Q 1525 4494 1428 4673 
Q 1331 4853 1331 5081 
Q 1331 5441 1579 5691 
Q 1828 5941 2188 5941 
Q 2544 5941 2795 5689 
Q 3047 5438 3047 5081 
Q 3047 4863 2948 4678 
Q 2850 4494 2663 4366 
L 4325 0 
L 3669 0 
L 3244 1197 
L 1141 1197 
L 716 0 
L 50 0 
L 1716 4366 
z
" transform="scale(0.015625)"/>
       <path id="DejaVuSans-5d" d="M 1947 4863 
L 1947 -844 
L 622 -844 
L 622 -397 
L 1369 -397 
L 1369 4416 
L 622 4416 
L 622 4863 
L 1947 4863 
z
" transform="scale(0.015625)"/>
      </defs>
      <use xlink:href="#DejaVuSans-77"/>
      <use xlink:href="#DejaVuSans-61" transform="translate(81.787109 0)"/>
      <use xlink:href="#DejaVuSans-76" transform="translate(143.066406 0)"/>
      <use xlink:href="#DejaVuSans-65" transform="translate(202.246094 0)"/>
      <use xlink:href="#DejaVuSans-6c" transform="translate(263.769531 0)"/>
      <use xlink:href="#DejaVuSans-65" transform="translate(291.552734 0)"/>
      <use xlink:href="#DejaVuSans-6e" transform="translate(353.076172 0)"/>
      <use xlink:href="#DejaVuSans-67" transform="translate(416.455078 0)"/>
      <use xlink:href="#DejaVuSans-74" transform="translate(479.931641 0)"/>
      <use xlink:href="#DejaVuSans-68" transform="translate(519.140625 0)"/>
      <use xlink:href="#DejaVuSans-20" transform="translate(582.519531 0)"/>
      <use xlink:href="#DejaVuSans-5b" transform="translate(614.306641 0)"/>
      <use xlink:href="#DejaVuSans-c5" transform="translate(653.320312 0)"/>
      <use xlink:href="#DejaVuSans-5d" transform="translate(721.728516 0)"/>
     </g>
    </g>
   </g>
   <g id="matplotlib.axis_2">
    <g id="ytick_1">
     <g id="line2d_9">
      <defs>
       <path id="md3d2ae85ce" d="M 0 0 
L -3.5 0 
" style="stroke: #000000; stroke-width: 0.8"/>
      </defs>
      <g>
       <use xlink:href="#md3d2ae85ce" x="46.965625" y="246.484315" style="stroke: #000000; stroke-width: 0.8"/>
      </g>
     </g>
     <g id="text_10">
      <!-- 0 -->
      <g transform="translate(33.603125 250.283533) scale(0.1 -0.1)">
       <use xlink:href="#DejaVuSans-30"/>
      </g>
     </g>
    </g>
    <g id="ytick_2">
     <g id="line2d_10">
      <g>
       <use xlink:href="#md3d2ae85ce" x="46.965625" y="194.539884" style="stroke: #000000; stroke-width: 0.8"/>
      </g>
     </g>
     <g id="text_11">
      <!-- 200 -->
      <g transform="translate(20.878125 198.339103) scale(0.1 -0.1)">
       <use xlink:href="#DejaVuSans-32"/>
       <use xlink:href="#DejaVuSans-30" transform="translate(63.623047 0)"/>
       <use xlink:href="#DejaVuSans-30" transform="translate(127.246094 0)"/>
      </g>
     </g>
    </g>
    <g id="ytick_3">
     <g id="line2d_11">
      <g>
       <use xlink:href="#md3d2ae85ce" x="46.965625" y="142.595454" style="stroke: #000000; stroke-width: 0.8"/>
      </g>
     </g>
     <g id="text_12">
      <!-- 400 -->
      <g transform="translate(20.878125 146.394672) scale(0.1 -0.1)">
       <use xlink:href="#DejaVuSans-34"/>
       <use xlink:href="#DejaVuSans-30" transform="translate(63.623047 0)"/>
       <use xlink:href="#DejaVuSans-30" transform="translate(127.246094 0)"/>
      </g>
     </g>
    </g>
    <g id="ytick_4">
     <g id="line2d_12">
      <g>
       <use xlink:href="#md3d2ae85ce" x="46.965625" y="90.651023" style="stroke: #000000; stroke-width: 0.8"/>
      </g>
     </g>
     <g id="text_13">
      <!-- 600 -->
      <g transform="translate(20.878125 94.450242) scale(0.1 -0.1)">
       <defs>
        <path id="DejaVuSans-36" d="M 2113 2584 
Q 1688 2584 1439 2293 
Q 1191 2003 1191 1497 
Q 1191 994 1439 701 
Q 1688 409 2113 409 
Q 2538 409 2786 701 
Q 3034 994 3034 1497 
Q 3034 2003 2786 2293 
Q 2538 2584 2113 2584 
z
M 3366 4563 
L 3366 3988 
Q 3128 4100 2886 4159 
Q 2644 4219 2406 4219 
Q 1781 4219 1451 3797 
Q 1122 3375 1075 2522 
Q 1259 2794 1537 2939 
Q 1816 3084 2150 3084 
Q 2853 3084 3261 2657 
Q 3669 2231 3669 1497 
Q 3669 778 3244 343 
Q 2819 -91 2113 -91 
Q 1303 -91 875 529 
Q 447 1150 447 2328 
Q 447 3434 972 4092 
Q 1497 4750 2381 4750 
Q 2619 4750 2861 4703 
Q 3103 4656 3366 4563 
z
" transform="scale(0.015625)"/>
       </defs>
       <use xlink:href="#DejaVuSans-36"/>
       <use xlink:href="#DejaVuSans-30" transform="translate(63.623047 0)"/>
       <use xlink:href="#DejaVuSans-30" transform="translate(127.246094 0)"/>
      </g>
     </g>
    </g>
    <g id="ytick_5">
     <g id="line2d_13">
      <g>
       <use xlink:href="#md3d2ae85ce" x="46.965625" y="38.706593" style="stroke: #000000; stroke-width: 0.8"/>
      </g>
     </g>
     <g id="text_14">
      <!-- 800 -->
      <g transform="translate(20.878125 42.505812) scale(0.1 -0.1)">
       <defs>
        <path id="DejaVuSans-38" d="M 2034 2216 
Q 1584 2216 1326 1975 
Q 1069 1734 1069 1313 
Q 1069 891 1326 650 
Q 1584 409 2034 409 
Q 2484 409 2743 651 
Q 3003 894 3003 1313 
Q 3003 1734 2745 1975 
Q 2488 2216 2034 2216 
z
M 1403 2484 
Q 997 2584 770 2862 
Q 544 3141 544 3541 
Q 544 4100 942 4425 
Q 1341 4750 2034 4750 
Q 2731 4750 3128 4425 
Q 3525 4100 3525 3541 
Q 3525 3141 3298 2862 
Q 3072 2584 2669 2484 
Q 3125 2378 3379 2068 
Q 3634 1759 3634 1313 
Q 3634 634 3220 271 
Q 2806 -91 2034 -91 
Q 1263 -91 848 271 
Q 434 634 434 1313 
Q 434 1759 690 2068 
Q 947 2378 1403 2484 
z
M 1172 3481 
Q 1172 3119 1398 2916 
Q 1625 2713 2034 2713 
Q 2441 2713 2670 2916 
Q 2900 3119 2900 3481 
Q 2900 3844 2670 4047 
Q 2441 4250 2034 4250 
Q 1625 4250 1398 4047 
Q 1172 3844 1172 3481 
z
" transform="scale(0.015625)"/>
       </defs>
       <use xlink:href="#DejaVuSans-38"/>
       <use xlink:href="#DejaVuSans-30" transform="translate(63.623047 0)"/>
       <use xlink:href="#DejaVuSans-30" transform="translate(127.246094 0)"/>
      </g>
     </g>
    </g>
    <g id="text_15">
     <!-- [counts] -->
     <g transform="translate(14.798437 160.35101) rotate(-90) scale(0.1 -0.1)">
      <defs>
       <path id="DejaVuSans-63" d="M 3122 3366 
L 3122 2828 
Q 2878 2963 2633 3030 
Q 2388 3097 2138 3097 
Q 1578 3097 1268 2742 
Q 959 2388 959 1747 
Q 959 1106 1268 751 
Q 1578 397 2138 397 
Q 2388 397 2633 464 
Q 2878 531 3122 666 
L 3122 134 
Q 2881 22 2623 -34 
Q 2366 -91 2075 -91 
Q 1284 -91 818 406 
Q 353 903 353 1747 
Q 353 2603 823 3093 
Q 1294 3584 2113 3584 
Q 2378 3584 2631 3529 
Q 2884 3475 3122 3366 
z
" transform="scale(0.015625)"/>
       <path id="DejaVuSans-6f" d="M 1959 3097 
Q 1497 3097 1228 2736 
Q 959 2375 959 1747 
Q 959 1119 1226 758 
Q 1494 397 1959 397 
Q 2419 397 2687 759 
Q 2956 1122 2956 1747 
Q 2956 2369 2687 2733 
Q 2419 3097 1959 3097 
z
M 1959 3584 
Q 2709 3584 3137 3096 
Q 3566 2609 3566 1747 
Q 3566 888 3137 398 
Q 2709 -91 1959 -91 
Q 1206 -91 779 398 
Q 353 888 353 1747 
Q 353 2609 779 3096 
Q 1206 3584 1959 3584 
z
" transform="scale(0.015625)"/>
       <path id="DejaVuSans-75" d="M 544 1381 
L 544 3500 
L 1119 3500 
L 1119 1403 
Q 1119 906 1312 657 
Q 1506 409 1894 409 
Q 2359 409 2629 706 
Q 2900 1003 2900 1516 
L 2900 3500 
L 3475 3500 
L 3475 0 
L 2900 0 
L 2900 538 
Q 2691 219 2414 64 
Q 2138 -91 1772 -91 
Q 1169 -91 856 284 
Q 544 659 544 1381 
z
M 1991 3584 
L 1991 3584 
z
" transform="scale(0.015625)"/>
       <path id="DejaVuSans-73" d="M 2834 3397 
L 2834 2853 
Q 2591 2978 2328 3040 
Q 2066 3103 1784 3103 
Q 1356 3103 1142 2972 
Q 928 2841 928 2578 
Q 928 2378 1081 2264 
Q 1234 2150 1697 2047 
L 1894 2003 
Q 2506 1872 2764 1633 
Q 3022 1394 3022 966 
Q 3022 478 2636 193 
Q 2250 -91 1575 -91 
Q 1294 -91 989 -36 
Q 684 19 347 128 
L 347 722 
Q 666 556 975 473 
Q 1284 391 1588 391 
Q 1994 391 2212 530 
Q 2431 669 2431 922 
Q 2431 1156 2273 1281 
Q 2116 1406 1581 1522 
L 1381 1569 
Q 847 1681 609 1914 
Q 372 2147 372 2553 
Q 372 3047 722 3315 
Q 1072 3584 1716 3584 
Q 2034 3584 2315 3537 
Q 2597 3491 2834 3397 
z
" transform="scale(0.015625)"/>
      </defs>
      <use xlink:href="#DejaVuSans-5b"/>
      <use xlink:href="#DejaVuSans-63" transform="translate(39.013672 0)"/>
      <use xlink:href="#DejaVuSans-6f" transform="translate(93.994141 0)"/>
      <use xlink:href="#DejaVuSans-75" transform="translate(155.175781 0)"/>
      <use xlink:href="#DejaVuSans-6e" transform="translate(218.554688 0)"/>
      <use xlink:href="#DejaVuSans-74" transform="translate(281.933594 0)"/>
      <use xlink:href="#DejaVuSans-73" transform="translate(321.142578 0)"/>
      <use xlink:href="#DejaVuSans-5d" transform="translate(373.242188 0)"/>
     </g>
    </g>
   </g>
   <g id="patch_3">
    <path d="M 46.965625 257.158895 
L 46.965625 22.318125 
" style="fill: none; stroke: #000000; stroke-width: 0.8; stroke-linejoin: miter; stroke-linecap: square"/>
   </g>
   <g id="patch_4">
    <path d="M 431.87976 257.158895 
L 431.87976 22.318125 
" style="fill: none; stroke: #000000; stroke-width: 0.8; stroke-linejoin: miter; stroke-linecap: square"/>
   </g>
   <g id="patch_5">
    <path d="M 46.965625 257.158895 
L 431.87976 257.158895 
" style="fill: none; stroke: #000000; stroke-width: 0.8; stroke-linejoin: miter; stroke-linecap: square"/>
   </g>
   <g id="patch_6">
    <path d="M 46.965625 22.318125 
L 431.87976 22.318125 
" style="fill: none; stroke: #000000; stroke-width: 0.8; stroke-linejoin: miter; stroke-linecap: square"/>
   </g>
   <g id="text_16">
    <!-- Pixel 1 -->
    <g transform="translate(219.82613 16.318125) scale(0.12 -0.12)">
     <defs>
      <path id="DejaVuSans-50" d="M 1259 4147 
L 1259 2394 
L 2053 2394 
Q 2494 2394 2734 2622 
Q 2975 2850 2975 3272 
Q 2975 3691 2734 3919 
Q 2494 4147 2053 4147 
L 1259 4147 
z
M 628 4666 
L 2053 4666 
Q 2838 4666 3239 4311 
Q 3641 3956 3641 3272 
Q 3641 2581 3239 2228 
Q 2838 1875 2053 1875 
L 1259 1875 
L 1259 0 
L 628 0 
L 628 4666 
z
" transform="scale(0.015625)"/>
      <path id="DejaVuSans-69" d="M 603 3500 
L 1178 3500 
L 1178 0 
L 603 0 
L 603 3500 
z
M 603 4863 
L 1178 4863 
L 1178 4134 
L 603 4134 
L 603 4863 
z
" transform="scale(0.015625)"/>
      <path id="DejaVuSans-78" d="M 3513 3500 
L 2247 1797 
L 3578 0 
L 2900 0 
L 1881 1375 
L 863 0 
L 184 0 
L 1544 1831 
L 300 3500 
L 978 3500 
L 1906 2253 
L 2834 3500 
L 3513 3500 
z
" transform="scale(0.015625)"/>
     </defs>
     <use xlink:href="#DejaVuSans-50"/>
     <use xlink:href="#DejaVuSans-69" transform="translate(58.052734 0)"/>
     <use xlink:href="#DejaVuSans-78" transform="translate(85.835938 0)"/>
     <use xlink:href="#DejaVuSans-65" transform="translate(141.890625 0)"/>
     <use xlink:href="#DejaVuSans-6c" transform="translate(203.414062 0)"/>
     <use xlink:href="#DejaVuSans-20" transform="translate(231.197266 0)"/>
     <use xlink:href="#DejaVuSans-31" transform="translate(262.984375 0)"/>
    </g>
   </g>
   <g id="legend_1">
    <g id="patch_7">
     <path d="M 327.876635 59.9525 
L 424.87976 59.9525 
Q 426.87976 59.9525 426.87976 57.9525 
L 426.87976 29.318125 
Q 426.87976 27.318125 424.87976 27.318125 
L 327.876635 27.318125 
Q 325.876635 27.318125 325.876635 29.318125 
L 325.876635 57.9525 
Q 325.876635 59.9525 327.876635 59.9525 
z
" style="fill: #ffffff; opacity: 0.8; stroke: #cccccc; stroke-linejoin: miter"/>
    </g>
    <g id="line2d_14">
     <path d="M 329.876635 35.416562 
L 329.876635 35.416562 
L 339.876635 35.416562 
L 339.876635 35.416562 
L 349.876635 35.416562 
" style="fill: none; stroke: #1f77b4; stroke-width: 1.5; stroke-linecap: square"/>
    </g>
    <g id="text_17">
     <!-- wfm -->
     <g transform="translate(357.876635 38.916562) scale(0.1 -0.1)">
      <defs>
       <path id="DejaVuSans-66" d="M 2375 4863 
L 2375 4384 
L 1825 4384 
Q 1516 4384 1395 4259 
Q 1275 4134 1275 3809 
L 1275 3500 
L 2222 3500 
L 2222 3053 
L 1275 3053 
L 1275 0 
L 697 0 
L 697 3053 
L 147 3053 
L 147 3500 
L 697 3500 
L 697 3744 
Q 697 4328 969 4595 
Q 1241 4863 1831 4863 
L 2375 4863 
z
" transform="scale(0.015625)"/>
       <path id="DejaVuSans-6d" d="M 3328 2828 
Q 3544 3216 3844 3400 
Q 4144 3584 4550 3584 
Q 5097 3584 5394 3201 
Q 5691 2819 5691 2113 
L 5691 0 
L 5113 0 
L 5113 2094 
Q 5113 2597 4934 2840 
Q 4756 3084 4391 3084 
Q 3944 3084 3684 2787 
Q 3425 2491 3425 1978 
L 3425 0 
L 2847 0 
L 2847 2094 
Q 2847 2600 2669 2842 
Q 2491 3084 2119 3084 
Q 1678 3084 1418 2786 
Q 1159 2488 1159 1978 
L 1159 0 
L 581 0 
L 581 3500 
L 1159 3500 
L 1159 2956 
Q 1356 3278 1631 3431 
Q 1906 3584 2284 3584 
Q 2666 3584 2933 3390 
Q 3200 3197 3328 2828 
z
" transform="scale(0.015625)"/>
      </defs>
      <use xlink:href="#DejaVuSans-77"/>
      <use xlink:href="#DejaVuSans-66" transform="translate(81.787109 0)"/>
      <use xlink:href="#DejaVuSans-6d" transform="translate(116.992188 0)"/>
     </g>
    </g>
    <g id="line2d_15">
     <path d="M 329.876635 50.094687 
L 329.876635 50.094687 
L 339.876635 50.094687 
L 339.876635 50.094687 
L 349.876635 50.094687 
" style="fill: none; stroke: #ff7f0e; stroke-width: 1.5; stroke-linecap: square"/>
    </g>
    <g id="text_18">
     <!-- ground_truth -->
     <g transform="translate(357.876635 53.594687) scale(0.1 -0.1)">
      <defs>
       <path id="DejaVuSans-72" d="M 2631 2963 
Q 2534 3019 2420 3045 
Q 2306 3072 2169 3072 
Q 1681 3072 1420 2755 
Q 1159 2438 1159 1844 
L 1159 0 
L 581 0 
L 581 3500 
L 1159 3500 
L 1159 2956 
Q 1341 3275 1631 3429 
Q 1922 3584 2338 3584 
Q 2397 3584 2469 3576 
Q 2541 3569 2628 3553 
L 2631 2963 
z
" transform="scale(0.015625)"/>
       <path id="DejaVuSans-64" d="M 2906 2969 
L 2906 4863 
L 3481 4863 
L 3481 0 
L 2906 0 
L 2906 525 
Q 2725 213 2448 61 
Q 2172 -91 1784 -91 
Q 1150 -91 751 415 
Q 353 922 353 1747 
Q 353 2572 751 3078 
Q 1150 3584 1784 3584 
Q 2172 3584 2448 3432 
Q 2725 3281 2906 2969 
z
M 947 1747 
Q 947 1113 1208 752 
Q 1469 391 1925 391 
Q 2381 391 2643 752 
Q 2906 1113 2906 1747 
Q 2906 2381 2643 2742 
Q 2381 3103 1925 3103 
Q 1469 3103 1208 2742 
Q 947 2381 947 1747 
z
" transform="scale(0.015625)"/>
       <path id="DejaVuSans-5f" d="M 3263 -1063 
L 3263 -1509 
L -63 -1509 
L -63 -1063 
L 3263 -1063 
z
" transform="scale(0.015625)"/>
      </defs>
      <use xlink:href="#DejaVuSans-67"/>
      <use xlink:href="#DejaVuSans-72" transform="translate(63.476562 0)"/>
      <use xlink:href="#DejaVuSans-6f" transform="translate(102.339844 0)"/>
      <use xlink:href="#DejaVuSans-75" transform="translate(163.521484 0)"/>
      <use xlink:href="#DejaVuSans-6e" transform="translate(226.900391 0)"/>
      <use xlink:href="#DejaVuSans-64" transform="translate(290.279297 0)"/>
      <use xlink:href="#DejaVuSans-5f" transform="translate(353.755859 0)"/>
      <use xlink:href="#DejaVuSans-74" transform="translate(403.755859 0)"/>
      <use xlink:href="#DejaVuSans-72" transform="translate(442.964844 0)"/>
      <use xlink:href="#DejaVuSans-75" transform="translate(484.078125 0)"/>
      <use xlink:href="#DejaVuSans-74" transform="translate(547.457031 0)"/>
      <use xlink:href="#DejaVuSans-68" transform="translate(586.666016 0)"/>
     </g>
    </g>
   </g>
   <g id="line2d_16">
    <path d="M 64.461722 246.484315 
L 73.209771 246.484315 
L 73.209771 244.666259 
L 74.95938 244.666259 
L 74.95938 236.355151 
L 76.70899 236.355151 
L 76.70899 230.381541 
L 78.4586 230.381541 
L 78.4586 216.616267 
L 80.208209 216.616267 
L 80.208209 210.123213 
L 81.957819 210.123213 
L 81.957819 205.707937 
L 83.707429 205.707937 
L 83.707429 198.175994 
L 85.457039 198.175994 
L 85.457039 187.267664 
L 87.206648 187.267664 
L 87.206648 179.995444 
L 88.956258 179.995444 
L 88.956258 167.009336 
L 90.705868 167.009336 
L 90.705868 164.931559 
L 92.455477 164.931559 
L 92.455477 140.777399 
L 94.205087 140.777399 
L 94.205087 147.530175 
L 95.954697 147.530175 
L 95.954697 144.932953 
L 97.704306 144.932953 
L 97.704306 129.869068 
L 99.453916 129.869068 
L 99.453916 119.739904 
L 101.203526 119.739904 
L 101.203526 124.674625 
L 102.953136 124.674625 
L 102.953136 106.234352 
L 106.452355 106.234352 
L 106.452355 108.052407 
L 108.201965 108.052407 
L 108.201965 91.949634 
L 109.951574 91.949634 
L 109.951574 85.716302 
L 111.701184 85.716302 
L 111.701184 75.587138 
L 113.450794 75.587138 
L 113.450794 77.664916 
L 115.200403 77.664916 
L 115.200403 75.327416 
L 116.950013 75.327416 
L 116.950013 77.145471 
L 118.699623 77.145471 
L 118.699623 70.91214 
L 120.449233 70.91214 
L 120.449233 64.159364 
L 122.198842 64.159364 
L 122.198842 54.549644 
L 123.948452 54.549644 
L 123.948452 50.653812 
L 125.698062 50.653812 
L 125.698062 62.081586 
L 127.447671 62.081586 
L 127.447671 32.992705 
L 129.197281 32.992705 
L 129.197281 47.796868 
L 130.946891 47.796868 
L 130.946891 37.667704 
L 132.696501 37.667704 
L 132.696501 47.537146 
L 134.44611 47.537146 
L 134.44611 50.134367 
L 136.19572 50.134367 
L 136.19572 70.392695 
L 137.94533 70.392695 
L 137.94533 65.457974 
L 139.694939 65.457974 
L 139.694939 60.782976 
L 141.444549 60.782976 
L 141.444549 63.120475 
L 143.194159 63.120475 
L 143.194159 57.926032 
L 144.943768 57.926032 
L 144.943768 57.146866 
L 146.693378 57.146866 
L 146.693378 76.106583 
L 148.442988 76.106583 
L 148.442988 69.094085 
L 150.192598 69.094085 
L 150.192598 80.002415 
L 151.942207 80.002415 
L 151.942207 72.21075 
L 153.691817 72.21075 
L 153.691817 82.339914 
L 155.441427 82.339914 
L 155.441427 70.91214 
L 157.191036 70.91214 
L 157.191036 70.652418 
L 158.940646 70.652418 
L 158.940646 69.094085 
L 160.690256 69.094085 
L 160.690256 84.677414 
L 162.439866 84.677414 
L 162.439866 76.885749 
L 164.189475 76.885749 
L 164.189475 88.053802 
L 165.939085 88.053802 
L 165.939085 97.923243 
L 167.688695 97.923243 
L 167.688695 81.301026 
L 169.438304 81.301026 
L 169.438304 85.45658 
L 171.187914 85.45658 
L 171.187914 96.624633 
L 172.937524 96.624633 
L 172.937524 99.481576 
L 174.687133 99.481576 
L 174.687133 86.495469 
L 176.436743 86.495469 
L 176.436743 90.391301 
L 178.186353 90.391301 
L 178.186353 77.924638 
L 179.935963 77.924638 
L 179.935963 99.221854 
L 181.685572 99.221854 
L 181.685572 96.105188 
L 183.435182 96.105188 
L 183.435182 88.832968 
L 185.184792 88.832968 
L 185.184792 101.039909 
L 186.934401 101.039909 
L 186.934401 104.416297 
L 188.684011 104.416297 
L 188.684011 105.195464 
L 190.433621 105.195464 
L 190.433621 113.506573 
L 192.18323 113.506573 
L 192.18323 103.377409 
L 193.93284 103.377409 
L 193.93284 104.935742 
L 195.68245 104.935742 
L 195.68245 93.507967 
L 197.43206 93.507967 
L 197.43206 110.389907 
L 199.181669 110.389907 
L 199.181669 113.24685 
L 200.931279 113.24685 
L 200.931279 116.882961 
L 202.680889 116.882961 
L 202.680889 118.701016 
L 204.430498 118.701016 
L 204.430498 119.999626 
L 206.180108 119.999626 
L 206.180108 124.414903 
L 207.929718 124.414903 
L 207.929718 146.751008 
L 209.679328 146.751008 
L 209.679328 147.789897 
L 211.428937 147.789897 
L 211.428937 166.749614 
L 213.178547 166.749614 
L 213.178547 169.86628 
L 214.928157 169.86628 
L 214.928157 177.917666 
L 216.677766 177.917666 
L 216.677766 183.891276 
L 218.427376 183.891276 
L 218.427376 189.605163 
L 220.176986 189.605163 
L 220.176986 194.280162 
L 221.926595 194.280162 
L 221.926595 204.409326 
L 223.676205 204.409326 
L 223.676205 209.344047 
L 225.425815 209.344047 
L 225.425815 217.914878 
L 227.175425 217.914878 
L 227.175425 225.187098 
L 228.925034 225.187098 
L 228.925034 228.823208 
L 230.674644 228.823208 
L 230.674644 235.05654 
L 232.424254 235.05654 
L 232.424254 239.991261 
L 234.173863 239.991261 
L 234.173863 242.069038 
L 235.923473 242.069038 
L 235.923473 244.666259 
L 237.673083 244.666259 
L 237.673083 239.731539 
L 239.422693 239.731539 
L 239.422693 232.978763 
L 241.172302 232.978763 
L 241.172302 226.485709 
L 242.921912 226.485709 
L 242.921912 223.888487 
L 244.671522 223.888487 
L 244.671522 217.135711 
L 246.421131 217.135711 
L 246.421131 212.20099 
L 248.170741 212.20099 
L 248.170741 205.707937 
L 249.920351 205.707937 
L 249.920351 196.357939 
L 251.66996 196.357939 
L 251.66996 191.942663 
L 253.41957 191.942663 
L 253.41957 188.04683 
L 256.91879 188.04683 
L 256.91879 179.735721 
L 258.668399 179.735721 
L 258.668399 168.567669 
L 260.418009 168.567669 
L 260.418009 169.346835 
L 262.167619 169.346835 
L 262.167619 159.996838 
L 263.917228 159.996838 
L 263.917228 160.25656 
L 265.666838 160.25656 
L 265.666838 151.945451 
L 267.416448 151.945451 
L 267.416448 145.971842 
L 269.166057 145.971842 
L 269.166057 154.282951 
L 270.915667 154.282951 
L 270.915667 145.192675 
L 272.665277 145.192675 
L 272.665277 139.73851 
L 274.414887 139.73851 
L 274.414887 137.920455 
L 276.164496 137.920455 
L 276.164496 133.7649 
L 277.914106 133.7649 
L 277.914106 125.453792 
L 279.663716 125.453792 
L 279.663716 125.194069 
L 281.413325 125.194069 
L 281.413325 121.817681 
L 283.162935 121.817681 
L 283.162935 132.985734 
L 284.912545 132.985734 
L 284.912545 110.909351 
L 286.662155 110.909351 
L 286.662155 112.987128 
L 288.411764 112.987128 
L 288.411764 108.571852 
L 290.161374 108.571852 
L 290.161374 110.909351 
L 291.910984 110.909351 
L 291.910984 115.064906 
L 293.660593 115.064906 
L 293.660593 111.428795 
L 295.410203 111.428795 
L 295.410203 103.896853 
L 297.159813 103.896853 
L 297.159813 112.987128 
L 298.909422 112.987128 
L 298.909422 120.519071 
L 300.659032 120.519071 
L 300.659032 121.557959 
L 302.408642 121.557959 
L 302.408642 117.921849 
L 304.158252 117.921849 
L 304.158252 116.363516 
L 305.907861 116.363516 
L 305.907861 133.7649 
L 307.657471 133.7649 
L 307.657471 125.713514 
L 309.407081 125.713514 
L 309.407081 128.310735 
L 311.15669 128.310735 
L 311.15669 140.517676 
L 312.9063 140.517676 
L 312.9063 138.959344 
L 314.65591 138.959344 
L 314.65591 135.323233 
L 316.405519 135.323233 
L 316.405519 130.12879 
L 318.155129 130.12879 
L 318.155129 141.037121 
L 319.904739 141.037121 
L 319.904739 148.309341 
L 321.654349 148.309341 
L 321.654349 137.920455 
L 323.403958 137.920455 
L 323.403958 135.842678 
L 325.153568 135.842678 
L 325.153568 143.114898 
L 326.903178 143.114898 
L 326.903178 147.01073 
L 328.652787 147.01073 
L 328.652787 147.270452 
L 330.402397 147.270452 
L 330.402397 150.64684 
L 332.152007 150.64684 
L 332.152007 155.062117 
L 333.901617 155.062117 
L 333.901617 160.516282 
L 335.651226 160.516282 
L 335.651226 162.594059 
L 337.400836 162.594059 
L 337.400836 160.516282 
L 339.150446 160.516282 
L 339.150446 160.25656 
L 340.900055 160.25656 
L 340.900055 174.801001 
L 342.649665 174.801001 
L 342.649665 167.788502 
L 344.399275 167.788502 
L 344.399275 170.385724 
L 347.898494 170.385724 
L 347.898494 174.801001 
L 349.648104 174.801001 
L 349.648104 168.827391 
L 351.397714 168.827391 
L 351.397714 168.048225 
L 353.147323 168.048225 
L 353.147323 168.827391 
L 354.896933 168.827391 
L 354.896933 179.475999 
L 356.646543 179.475999 
L 356.646543 174.021834 
L 358.396152 174.021834 
L 358.396152 182.332943 
L 360.145762 182.332943 
L 360.145762 188.825997 
L 361.895372 188.825997 
L 361.895372 184.41072 
L 363.644982 184.41072 
L 363.644982 191.68294 
L 365.394591 191.68294 
L 365.394591 194.02044 
L 367.144201 194.02044 
L 367.144201 197.396828 
L 368.893811 197.396828 
L 368.893811 198.955161 
L 370.64342 198.955161 
L 370.64342 198.435716 
L 372.39303 198.435716 
L 372.39303 204.92877 
L 374.14264 204.92877 
L 374.14264 207.525992 
L 375.892249 207.525992 
L 375.892249 210.90238 
L 377.641859 210.90238 
L 377.641859 213.499601 
L 379.391469 213.499601 
L 379.391469 226.485709 
L 381.141079 226.485709 
L 381.141079 227.524597 
L 382.890688 227.524597 
L 382.890688 222.330154 
L 384.640298 222.330154 
L 384.640298 228.823208 
L 386.389908 228.823208 
L 386.389908 234.017651 
L 388.139517 234.017651 
L 388.139517 229.342653 
L 389.889127 229.342653 
L 389.889127 231.680152 
L 391.638737 231.680152 
L 391.638737 236.874595 
L 393.388347 236.874595 
L 393.388347 240.510705 
L 395.137956 240.510705 
L 395.137956 240.770427 
L 396.887566 240.770427 
L 396.887566 243.107927 
L 398.637176 243.107927 
L 398.637176 244.146815 
L 400.386785 244.146815 
L 400.386785 244.406537 
L 402.136395 244.406537 
L 402.136395 245.185704 
L 403.886005 245.185704 
L 403.886005 246.224592 
L 405.635614 246.224592 
L 405.635614 246.484315 
L 414.383663 246.484315 
L 414.383663 246.484315 
" clip-path="url(#pd2b8ccd485)" style="fill: none; stroke: #1f77b4; stroke-width: 1.5; stroke-linecap: square"/>
   </g>
   <g id="line2d_17">
    <path d="M 64.461722 246.484315 
L 73.209771 246.484315 
L 73.209771 244.406537 
L 74.95938 244.406537 
L 74.95938 236.614873 
L 76.70899 236.614873 
L 76.70899 230.381541 
L 78.4586 230.381541 
L 78.4586 215.317656 
L 80.208209 215.317656 
L 80.208209 212.20099 
L 81.957819 212.20099 
L 81.957819 204.669048 
L 83.707429 204.669048 
L 83.707429 196.877383 
L 85.457039 196.877383 
L 85.457039 183.371832 
L 87.206648 183.371832 
L 87.206648 185.709331 
L 88.956258 185.709331 
L 88.956258 165.970447 
L 90.705868 165.970447 
L 90.705868 164.412114 
L 92.455477 164.412114 
L 92.455477 145.71212 
L 94.205087 145.71212 
L 94.205087 145.971842 
L 95.954697 145.971842 
L 95.954697 146.491286 
L 97.704306 146.491286 
L 97.704306 123.895459 
L 99.453916 123.895459 
L 99.453916 122.077404 
L 101.203526 122.077404 
L 101.203526 118.181571 
L 102.953136 118.181571 
L 102.953136 110.389907 
L 104.702745 110.389907 
L 104.702745 114.285739 
L 106.452355 114.285739 
L 106.452355 96.364911 
L 108.201965 96.364911 
L 108.201965 101.039909 
L 109.951574 101.039909 
L 109.951574 82.859359 
L 111.701184 82.859359 
L 111.701184 73.509361 
L 113.450794 73.509361 
L 113.450794 76.106583 
L 115.200403 76.106583 
L 115.200403 80.521859 
L 116.950013 80.521859 
L 116.950013 76.106583 
L 118.699623 76.106583 
L 118.699623 66.756585 
L 120.449233 66.756585 
L 120.449233 63.639919 
L 122.198842 63.639919 
L 122.198842 61.30242 
L 123.948452 61.30242 
L 123.948452 50.134367 
L 125.698062 50.134367 
L 125.698062 49.614923 
L 127.447671 49.614923 
L 127.447671 44.160758 
L 129.197281 44.160758 
L 129.197281 44.680202 
L 130.946891 44.680202 
L 130.946891 49.095479 
L 132.696501 49.095479 
L 132.696501 36.888538 
L 134.44611 36.888538 
L 134.44611 63.639919 
L 136.19572 63.639919 
L 136.19572 62.601031 
L 137.94533 62.601031 
L 137.94533 58.705199 
L 139.694939 58.705199 
L 139.694939 70.392695 
L 141.444549 70.392695 
L 141.444549 58.185754 
L 143.194159 58.185754 
L 143.194159 44.939924 
L 144.943768 44.939924 
L 144.943768 69.873251 
L 146.693378 69.873251 
L 146.693378 79.482971 
L 148.442988 79.482971 
L 148.442988 69.353807 
L 150.192598 69.353807 
L 150.192598 69.613529 
L 151.942207 69.613529 
L 151.942207 80.521859 
L 153.691817 80.521859 
L 153.691817 74.028805 
L 155.441427 74.028805 
L 155.441427 70.132973 
L 157.191036 70.132973 
L 157.191036 74.807972 
L 158.940646 74.807972 
L 158.940646 71.691306 
L 160.690256 71.691306 
L 160.690256 82.080192 
L 162.439866 82.080192 
L 162.439866 83.378803 
L 164.189475 83.378803 
L 164.189475 88.313524 
L 165.939085 88.313524 
L 165.939085 91.949634 
L 167.688695 91.949634 
L 167.688695 72.730195 
L 169.438304 72.730195 
L 169.438304 96.884355 
L 172.937524 96.884355 
L 172.937524 94.287133 
L 174.687133 94.287133 
L 174.687133 92.469078 
L 176.436743 92.469078 
L 176.436743 85.976024 
L 179.935963 85.976024 
L 179.935963 89.352412 
L 181.685572 89.352412 
L 181.685572 102.857964 
L 183.435182 102.857964 
L 183.435182 85.196858 
L 185.184792 85.196858 
L 185.184792 101.559354 
L 186.934401 101.559354 
L 186.934401 103.637131 
L 188.684011 103.637131 
L 188.684011 114.026017 
L 190.433621 114.026017 
L 190.433621 99.221854 
L 192.18323 99.221854 
L 192.18323 112.467684 
L 193.93284 112.467684 
L 193.93284 96.624633 
L 195.68245 96.624633 
L 195.68245 99.481576 
L 197.43206 99.481576 
L 197.43206 112.727406 
L 199.181669 112.727406 
L 199.181669 110.909351 
L 200.931279 110.909351 
L 200.931279 120.259349 
L 202.680889 120.259349 
L 202.680889 114.026017 
L 204.430498 114.026017 
L 204.430498 118.441294 
L 206.180108 118.441294 
L 206.180108 130.388513 
L 207.929718 130.388513 
L 207.929718 140.257954 
L 209.679328 140.257954 
L 209.679328 149.867674 
L 211.428937 149.867674 
L 211.428937 162.594059 
L 213.178547 162.594059 
L 213.178547 174.281556 
L 214.928157 174.281556 
L 214.928157 178.956555 
L 216.677766 178.956555 
L 216.677766 187.007942 
L 218.427376 187.007942 
L 218.427376 185.449609 
L 220.176986 185.449609 
L 220.176986 193.760718 
L 221.926595 193.760718 
L 221.926595 202.591271 
L 223.676205 202.591271 
L 223.676205 212.460713 
L 225.425815 212.460713 
L 225.425815 217.135711 
L 227.175425 217.135711 
L 227.175425 225.44682 
L 228.925034 225.44682 
L 228.925034 228.303764 
L 230.674644 228.303764 
L 230.674644 236.095428 
L 232.424254 236.095428 
L 232.424254 239.212094 
L 234.173863 239.212094 
L 234.173863 242.069038 
L 235.923473 242.069038 
L 235.923473 244.146815 
L 237.673083 244.146815 
L 237.673083 239.471816 
L 239.422693 239.471816 
L 239.422693 233.498207 
L 241.172302 233.498207 
L 241.172302 225.706542 
L 242.921912 225.706542 
L 242.921912 223.628765 
L 244.671522 223.628765 
L 244.671522 218.694044 
L 246.421131 218.694044 
L 246.421131 211.421824 
L 248.170741 211.421824 
L 248.170741 205.188492 
L 249.920351 205.188492 
L 249.920351 195.838495 
L 251.66996 195.838495 
L 251.66996 190.644052 
L 253.41957 190.644052 
L 253.41957 190.903774 
L 255.16918 190.903774 
L 255.16918 188.04683 
L 256.91879 188.04683 
L 256.91879 179.216277 
L 258.668399 179.216277 
L 258.668399 171.424613 
L 260.418009 171.424613 
L 260.418009 161.295449 
L 262.167619 161.295449 
L 262.167619 163.113504 
L 263.917228 163.113504 
L 263.917228 160.776004 
L 265.666838 160.776004 
L 265.666838 154.023228 
L 267.416448 154.023228 
L 267.416448 149.088507 
L 269.166057 149.088507 
L 269.166057 150.64684 
L 270.915667 150.64684 
L 270.915667 142.335732 
L 272.665277 142.335732 
L 272.665277 143.634342 
L 274.414887 143.634342 
L 274.414887 136.621844 
L 276.164496 136.621844 
L 276.164496 135.842678 
L 277.914106 135.842678 
L 277.914106 125.194069 
L 279.663716 125.194069 
L 279.663716 122.596848 
L 281.413325 122.596848 
L 281.413325 123.116292 
L 283.162935 123.116292 
L 283.162935 124.414903 
L 284.912545 124.414903 
L 284.912545 113.506573 
L 286.662155 113.506573 
L 286.662155 117.662127 
L 288.411764 117.662127 
L 288.411764 110.909351 
L 290.161374 110.909351 
L 290.161374 114.805183 
L 291.910984 114.805183 
L 291.910984 114.545461 
L 293.660593 114.545461 
L 293.660593 105.97463 
L 295.410203 105.97463 
L 295.410203 109.61074 
L 297.159813 109.61074 
L 297.159813 115.58435 
L 298.909422 115.58435 
L 298.909422 117.402405 
L 300.659032 117.402405 
L 300.659032 116.363516 
L 302.408642 116.363516 
L 302.408642 122.077404 
L 304.158252 122.077404 
L 304.158252 119.999626 
L 305.907861 119.999626 
L 305.907861 124.155181 
L 307.657471 124.155181 
L 307.657471 132.985734 
L 309.407081 132.985734 
L 309.407081 127.271847 
L 311.15669 127.271847 
L 311.15669 135.323233 
L 312.9063 135.323233 
L 312.9063 137.660733 
L 314.65591 137.660733 
L 314.65591 142.595454 
L 316.405519 142.595454 
L 316.405519 126.752402 
L 318.155129 126.752402 
L 318.155129 137.141288 
L 319.904739 137.141288 
L 319.904739 151.685729 
L 321.654349 151.685729 
L 321.654349 142.335732 
L 323.403958 142.335732 
L 323.403958 131.687123 
L 325.153568 131.687123 
L 325.153568 139.998232 
L 326.903178 139.998232 
L 326.903178 147.01073 
L 328.652787 147.01073 
L 328.652787 152.464895 
L 330.402397 152.464895 
L 330.402397 150.127396 
L 332.152007 150.127396 
L 332.152007 156.101006 
L 333.901617 156.101006 
L 333.901617 155.581561 
L 335.651226 155.581561 
L 335.651226 165.710725 
L 337.400836 165.710725 
L 337.400836 160.25656 
L 339.150446 160.25656 
L 339.150446 164.671837 
L 340.900055 164.671837 
L 340.900055 168.048225 
L 342.649665 168.048225 
L 342.649665 170.126002 
L 344.399275 170.126002 
L 344.399275 166.749614 
L 346.148884 166.749614 
L 346.148884 174.281556 
L 347.898494 174.281556 
L 347.898494 170.645446 
L 349.648104 170.645446 
L 349.648104 169.087113 
L 351.397714 169.087113 
L 351.397714 174.541278 
L 353.147323 174.541278 
L 353.147323 174.021834 
L 354.896933 174.021834 
L 354.896933 171.16489 
L 356.646543 171.16489 
L 356.646543 173.762112 
L 358.396152 173.762112 
L 358.396152 181.034332 
L 360.145762 181.034332 
L 360.145762 189.605163 
L 361.895372 189.605163 
L 361.895372 186.74822 
L 363.644982 186.74822 
L 363.644982 190.903774 
L 365.394591 190.903774 
L 365.394591 192.462107 
L 367.144201 192.462107 
L 367.144201 196.617661 
L 368.893811 196.617661 
L 368.893811 197.65655 
L 370.64342 197.65655 
L 370.64342 205.448215 
L 372.39303 205.448215 
L 372.39303 196.357939 
L 374.14264 196.357939 
L 374.14264 212.460713 
L 375.892249 212.460713 
L 375.892249 209.344047 
L 377.641859 209.344047 
L 377.641859 215.057934 
L 379.391469 215.057934 
L 379.391469 224.667654 
L 381.141079 224.667654 
L 381.141079 226.745431 
L 382.890688 226.745431 
L 382.890688 223.109321 
L 384.640298 223.109321 
L 384.640298 229.602375 
L 386.389908 229.602375 
L 386.389908 233.757929 
L 388.139517 233.757929 
L 388.139517 229.862097 
L 389.889127 229.862097 
L 389.889127 231.939874 
L 391.638737 231.939874 
L 391.638737 236.355151 
L 393.388347 236.355151 
L 393.388347 239.731539 
L 395.137956 239.731539 
L 395.137956 241.549594 
L 396.887566 241.549594 
L 396.887566 243.107927 
L 398.637176 243.107927 
L 398.637176 243.627371 
L 400.386785 243.627371 
L 400.386785 244.666259 
L 402.136395 244.666259 
L 402.136395 245.185704 
L 403.886005 245.185704 
L 403.886005 246.224592 
L 405.635614 246.224592 
L 405.635614 246.484315 
L 414.383663 246.484315 
L 414.383663 246.484315 
" clip-path="url(#pd2b8ccd485)" style="fill: none; stroke: #ff7f0e; stroke-width: 1.5; stroke-linecap: square"/>
   </g>
  </g>
  <g id="axes_2">
   <g id="patch_8">
    <path d="M 480.285385 257.158895 
L 865.19952 257.158895 
L 865.19952 22.318125 
L 480.285385 22.318125 
z
" style="fill: #ffffff"/>
   </g>
   <g id="matplotlib.axis_3">
    <g id="xtick_9">
     <g id="line2d_18">
      <g>
       <use xlink:href="#mdf6d17a87d" x="516.198426" y="257.158895" style="stroke: #000000; stroke-width: 0.8"/>
      </g>
     </g>
     <g id="text_19">
      <!-- 1.0 -->
      <g transform="translate(508.246864 271.757332) scale(0.1 -0.1)">
       <use xlink:href="#DejaVuSans-31"/>
       <use xlink:href="#DejaVuSans-2e" transform="translate(63.623047 0)"/>
       <use xlink:href="#DejaVuSans-30" transform="translate(95.410156 0)"/>
      </g>
     </g>
    </g>
    <g id="xtick_10">
     <g id="line2d_19">
      <g>
       <use xlink:href="#mdf6d17a87d" x="562.240787" y="257.158895" style="stroke: #000000; stroke-width: 0.8"/>
      </g>
     </g>
     <g id="text_20">
      <!-- 1.5 -->
      <g transform="translate(554.289224 271.757332) scale(0.1 -0.1)">
       <use xlink:href="#DejaVuSans-31"/>
       <use xlink:href="#DejaVuSans-2e" transform="translate(63.623047 0)"/>
       <use xlink:href="#DejaVuSans-35" transform="translate(95.410156 0)"/>
      </g>
     </g>
    </g>
    <g id="xtick_11">
     <g id="line2d_20">
      <g>
       <use xlink:href="#mdf6d17a87d" x="608.283148" y="257.158895" style="stroke: #000000; stroke-width: 0.8"/>
      </g>
     </g>
     <g id="text_21">
      <!-- 2.0 -->
      <g transform="translate(600.331585 271.757332) scale(0.1 -0.1)">
       <use xlink:href="#DejaVuSans-32"/>
       <use xlink:href="#DejaVuSans-2e" transform="translate(63.623047 0)"/>
       <use xlink:href="#DejaVuSans-30" transform="translate(95.410156 0)"/>
      </g>
     </g>
    </g>
    <g id="xtick_12">
     <g id="line2d_21">
      <g>
       <use xlink:href="#mdf6d17a87d" x="654.325508" y="257.158895" style="stroke: #000000; stroke-width: 0.8"/>
      </g>
     </g>
     <g id="text_22">
      <!-- 2.5 -->
      <g transform="translate(646.373946 271.757332) scale(0.1 -0.1)">
       <use xlink:href="#DejaVuSans-32"/>
       <use xlink:href="#DejaVuSans-2e" transform="translate(63.623047 0)"/>
       <use xlink:href="#DejaVuSans-35" transform="translate(95.410156 0)"/>
      </g>
     </g>
    </g>
    <g id="xtick_13">
     <g id="line2d_22">
      <g>
       <use xlink:href="#mdf6d17a87d" x="700.367869" y="257.158895" style="stroke: #000000; stroke-width: 0.8"/>
      </g>
     </g>
     <g id="text_23">
      <!-- 3.0 -->
      <g transform="translate(692.416306 271.757332) scale(0.1 -0.1)">
       <use xlink:href="#DejaVuSans-33"/>
       <use xlink:href="#DejaVuSans-2e" transform="translate(63.623047 0)"/>
       <use xlink:href="#DejaVuSans-30" transform="translate(95.410156 0)"/>
      </g>
     </g>
    </g>
    <g id="xtick_14">
     <g id="line2d_23">
      <g>
       <use xlink:href="#mdf6d17a87d" x="746.41023" y="257.158895" style="stroke: #000000; stroke-width: 0.8"/>
      </g>
     </g>
     <g id="text_24">
      <!-- 3.5 -->
      <g transform="translate(738.458667 271.757332) scale(0.1 -0.1)">
       <use xlink:href="#DejaVuSans-33"/>
       <use xlink:href="#DejaVuSans-2e" transform="translate(63.623047 0)"/>
       <use xlink:href="#DejaVuSans-35" transform="translate(95.410156 0)"/>
      </g>
     </g>
    </g>
    <g id="xtick_15">
     <g id="line2d_24">
      <g>
       <use xlink:href="#mdf6d17a87d" x="792.45259" y="257.158895" style="stroke: #000000; stroke-width: 0.8"/>
      </g>
     </g>
     <g id="text_25">
      <!-- 4.0 -->
      <g transform="translate(784.501028 271.757332) scale(0.1 -0.1)">
       <use xlink:href="#DejaVuSans-34"/>
       <use xlink:href="#DejaVuSans-2e" transform="translate(63.623047 0)"/>
       <use xlink:href="#DejaVuSans-30" transform="translate(95.410156 0)"/>
      </g>
     </g>
    </g>
    <g id="xtick_16">
     <g id="line2d_25">
      <g>
       <use xlink:href="#mdf6d17a87d" x="838.494951" y="257.158895" style="stroke: #000000; stroke-width: 0.8"/>
      </g>
     </g>
     <g id="text_26">
      <!-- 4.5 -->
      <g transform="translate(830.543388 271.757332) scale(0.1 -0.1)">
       <use xlink:href="#DejaVuSans-34"/>
       <use xlink:href="#DejaVuSans-2e" transform="translate(63.623047 0)"/>
       <use xlink:href="#DejaVuSans-35" transform="translate(95.410156 0)"/>
      </g>
     </g>
    </g>
    <g id="text_27">
     <!-- wavelength [Å] -->
     <g transform="translate(634.704952 287.119832) scale(0.1 -0.1)">
      <use xlink:href="#DejaVuSans-77"/>
      <use xlink:href="#DejaVuSans-61" transform="translate(81.787109 0)"/>
      <use xlink:href="#DejaVuSans-76" transform="translate(143.066406 0)"/>
      <use xlink:href="#DejaVuSans-65" transform="translate(202.246094 0)"/>
      <use xlink:href="#DejaVuSans-6c" transform="translate(263.769531 0)"/>
      <use xlink:href="#DejaVuSans-65" transform="translate(291.552734 0)"/>
      <use xlink:href="#DejaVuSans-6e" transform="translate(353.076172 0)"/>
      <use xlink:href="#DejaVuSans-67" transform="translate(416.455078 0)"/>
      <use xlink:href="#DejaVuSans-74" transform="translate(479.931641 0)"/>
      <use xlink:href="#DejaVuSans-68" transform="translate(519.140625 0)"/>
      <use xlink:href="#DejaVuSans-20" transform="translate(582.519531 0)"/>
      <use xlink:href="#DejaVuSans-5b" transform="translate(614.306641 0)"/>
      <use xlink:href="#DejaVuSans-c5" transform="translate(653.320312 0)"/>
      <use xlink:href="#DejaVuSans-5d" transform="translate(721.728516 0)"/>
     </g>
    </g>
   </g>
   <g id="matplotlib.axis_4">
    <g id="ytick_6">
     <g id="line2d_26">
      <g>
       <use xlink:href="#md3d2ae85ce" x="480.285385" y="246.484315" style="stroke: #000000; stroke-width: 0.8"/>
      </g>
     </g>
     <g id="text_28">
      <!-- 0 -->
      <g transform="translate(466.922885 250.283533) scale(0.1 -0.1)">
       <use xlink:href="#DejaVuSans-30"/>
      </g>
     </g>
    </g>
    <g id="ytick_7">
     <g id="line2d_27">
      <g>
       <use xlink:href="#md3d2ae85ce" x="480.285385" y="195.164216" style="stroke: #000000; stroke-width: 0.8"/>
      </g>
     </g>
     <g id="text_29">
      <!-- 200 -->
      <g transform="translate(454.197885 198.963435) scale(0.1 -0.1)">
       <use xlink:href="#DejaVuSans-32"/>
       <use xlink:href="#DejaVuSans-30" transform="translate(63.623047 0)"/>
       <use xlink:href="#DejaVuSans-30" transform="translate(127.246094 0)"/>
      </g>
     </g>
    </g>
    <g id="ytick_8">
     <g id="line2d_28">
      <g>
       <use xlink:href="#md3d2ae85ce" x="480.285385" y="143.844118" style="stroke: #000000; stroke-width: 0.8"/>
      </g>
     </g>
     <g id="text_30">
      <!-- 400 -->
      <g transform="translate(454.197885 147.643337) scale(0.1 -0.1)">
       <use xlink:href="#DejaVuSans-34"/>
       <use xlink:href="#DejaVuSans-30" transform="translate(63.623047 0)"/>
       <use xlink:href="#DejaVuSans-30" transform="translate(127.246094 0)"/>
      </g>
     </g>
    </g>
    <g id="ytick_9">
     <g id="line2d_29">
      <g>
       <use xlink:href="#md3d2ae85ce" x="480.285385" y="92.52402" style="stroke: #000000; stroke-width: 0.8"/>
      </g>
     </g>
     <g id="text_31">
      <!-- 600 -->
      <g transform="translate(454.197885 96.323238) scale(0.1 -0.1)">
       <use xlink:href="#DejaVuSans-36"/>
       <use xlink:href="#DejaVuSans-30" transform="translate(63.623047 0)"/>
       <use xlink:href="#DejaVuSans-30" transform="translate(127.246094 0)"/>
      </g>
     </g>
    </g>
    <g id="ytick_10">
     <g id="line2d_30">
      <g>
       <use xlink:href="#md3d2ae85ce" x="480.285385" y="41.203921" style="stroke: #000000; stroke-width: 0.8"/>
      </g>
     </g>
     <g id="text_32">
      <!-- 800 -->
      <g transform="translate(454.197885 45.00314) scale(0.1 -0.1)">
       <use xlink:href="#DejaVuSans-38"/>
       <use xlink:href="#DejaVuSans-30" transform="translate(63.623047 0)"/>
       <use xlink:href="#DejaVuSans-30" transform="translate(127.246094 0)"/>
      </g>
     </g>
    </g>
    <g id="text_33">
     <!-- [counts] -->
     <g transform="translate(448.118198 160.35101) rotate(-90) scale(0.1 -0.1)">
      <use xlink:href="#DejaVuSans-5b"/>
      <use xlink:href="#DejaVuSans-63" transform="translate(39.013672 0)"/>
      <use xlink:href="#DejaVuSans-6f" transform="translate(93.994141 0)"/>
      <use xlink:href="#DejaVuSans-75" transform="translate(155.175781 0)"/>
      <use xlink:href="#DejaVuSans-6e" transform="translate(218.554688 0)"/>
      <use xlink:href="#DejaVuSans-74" transform="translate(281.933594 0)"/>
      <use xlink:href="#DejaVuSans-73" transform="translate(321.142578 0)"/>
      <use xlink:href="#DejaVuSans-5d" transform="translate(373.242188 0)"/>
     </g>
    </g>
   </g>
   <g id="patch_9">
    <path d="M 480.285385 257.158895 
L 480.285385 22.318125 
" style="fill: none; stroke: #000000; stroke-width: 0.8; stroke-linejoin: miter; stroke-linecap: square"/>
   </g>
   <g id="patch_10">
    <path d="M 865.19952 257.158895 
L 865.19952 22.318125 
" style="fill: none; stroke: #000000; stroke-width: 0.8; stroke-linejoin: miter; stroke-linecap: square"/>
   </g>
   <g id="patch_11">
    <path d="M 480.285385 257.158895 
L 865.19952 257.158895 
" style="fill: none; stroke: #000000; stroke-width: 0.8; stroke-linejoin: miter; stroke-linecap: square"/>
   </g>
   <g id="patch_12">
    <path d="M 480.285385 22.318125 
L 865.19952 22.318125 
" style="fill: none; stroke: #000000; stroke-width: 0.8; stroke-linejoin: miter; stroke-linecap: square"/>
   </g>
   <g id="text_34">
    <!-- Pixel 2 -->
    <g transform="translate(653.14589 16.318125) scale(0.12 -0.12)">
     <use xlink:href="#DejaVuSans-50"/>
     <use xlink:href="#DejaVuSans-69" transform="translate(58.052734 0)"/>
     <use xlink:href="#DejaVuSans-78" transform="translate(85.835938 0)"/>
     <use xlink:href="#DejaVuSans-65" transform="translate(141.890625 0)"/>
     <use xlink:href="#DejaVuSans-6c" transform="translate(203.414062 0)"/>
     <use xlink:href="#DejaVuSans-20" transform="translate(231.197266 0)"/>
     <use xlink:href="#DejaVuSans-32" transform="translate(262.984375 0)"/>
    </g>
   </g>
   <g id="legend_2">
    <g id="patch_13">
     <path d="M 761.196395 59.9525 
L 858.19952 59.9525 
Q 860.19952 59.9525 860.19952 57.9525 
L 860.19952 29.318125 
Q 860.19952 27.318125 858.19952 27.318125 
L 761.196395 27.318125 
Q 759.196395 27.318125 759.196395 29.318125 
L 759.196395 57.9525 
Q 759.196395 59.9525 761.196395 59.9525 
z
" style="fill: #ffffff; opacity: 0.8; stroke: #cccccc; stroke-linejoin: miter"/>
    </g>
    <g id="line2d_31">
     <path d="M 763.196395 35.416562 
L 763.196395 35.416562 
L 773.196395 35.416562 
L 773.196395 35.416562 
L 783.196395 35.416562 
" style="fill: none; stroke: #1f77b4; stroke-width: 1.5; stroke-linecap: square"/>
    </g>
    <g id="text_35">
     <!-- wfm -->
     <g transform="translate(791.196395 38.916562) scale(0.1 -0.1)">
      <use xlink:href="#DejaVuSans-77"/>
      <use xlink:href="#DejaVuSans-66" transform="translate(81.787109 0)"/>
      <use xlink:href="#DejaVuSans-6d" transform="translate(116.992188 0)"/>
     </g>
    </g>
    <g id="line2d_32">
     <path d="M 763.196395 50.094687 
L 763.196395 50.094687 
L 773.196395 50.094687 
L 773.196395 50.094687 
L 783.196395 50.094687 
" style="fill: none; stroke: #ff7f0e; stroke-width: 1.5; stroke-linecap: square"/>
    </g>
    <g id="text_36">
     <!-- ground_truth -->
     <g transform="translate(791.196395 53.594687) scale(0.1 -0.1)">
      <use xlink:href="#DejaVuSans-67"/>
      <use xlink:href="#DejaVuSans-72" transform="translate(63.476562 0)"/>
      <use xlink:href="#DejaVuSans-6f" transform="translate(102.339844 0)"/>
      <use xlink:href="#DejaVuSans-75" transform="translate(163.521484 0)"/>
      <use xlink:href="#DejaVuSans-6e" transform="translate(226.900391 0)"/>
      <use xlink:href="#DejaVuSans-64" transform="translate(290.279297 0)"/>
      <use xlink:href="#DejaVuSans-5f" transform="translate(353.755859 0)"/>
      <use xlink:href="#DejaVuSans-74" transform="translate(403.755859 0)"/>
      <use xlink:href="#DejaVuSans-72" transform="translate(442.964844 0)"/>
      <use xlink:href="#DejaVuSans-75" transform="translate(484.078125 0)"/>
      <use xlink:href="#DejaVuSans-74" transform="translate(547.457031 0)"/>
      <use xlink:href="#DejaVuSans-68" transform="translate(586.666016 0)"/>
     </g>
    </g>
   </g>
   <g id="line2d_33">
    <path d="M 497.781482 246.484315 
L 506.529531 246.484315 
L 506.529531 245.714513 
L 508.27914 245.714513 
L 508.27914 236.476895 
L 510.02875 236.476895 
L 510.02875 230.831685 
L 511.77836 230.831685 
L 511.77836 216.975258 
L 513.527969 216.975258 
L 513.527969 212.61305 
L 515.277579 212.61305 
L 515.277579 205.171635 
L 517.027189 205.171635 
L 517.027189 195.420817 
L 518.776799 195.420817 
L 518.776799 189.775606 
L 520.526408 189.775606 
L 520.526408 181.051189 
L 522.276018 181.051189 
L 522.276018 167.964564 
L 524.025628 167.964564 
L 524.025628 165.91176 
L 525.775237 165.91176 
L 525.775237 142.817716 
L 527.524847 142.817716 
L 527.524847 147.693125 
L 529.274457 147.693125 
L 529.274457 146.410123 
L 531.024066 146.410123 
L 531.024066 131.527294 
L 532.773676 131.527294 
L 532.773676 120.493473 
L 534.523286 120.493473 
L 534.523286 126.908485 
L 536.272896 126.908485 
L 536.272896 108.17665 
L 538.022505 108.17665 
L 538.022505 106.380446 
L 539.772115 106.380446 
L 539.772115 110.999255 
L 541.521725 110.999255 
L 541.521725 94.320223 
L 543.271334 94.320223 
L 543.271334 92.267419 
L 545.020944 92.267419 
L 545.020944 74.048784 
L 546.770554 74.048784 
L 546.770554 78.667593 
L 548.520163 78.667593 
L 548.520163 76.614789 
L 550.269773 76.614789 
L 550.269773 78.410992 
L 552.019383 78.410992 
L 552.019383 74.561985 
L 553.768993 74.561985 
L 553.768993 65.580968 
L 555.518602 65.580968 
L 555.518602 57.626353 
L 557.268212 57.626353 
L 557.268212 53.007544 
L 559.017822 53.007544 
L 559.017822 65.837568 
L 560.767431 65.837568 
L 560.767431 32.992705 
L 562.517041 32.992705 
L 562.517041 46.592532 
L 564.266651 46.592532 
L 564.266651 43.769926 
L 566.016261 43.769926 
L 566.016261 53.264144 
L 567.76587 53.264144 
L 567.76587 51.467941 
L 569.51548 51.467941 
L 569.51548 72.252581 
L 571.26509 72.252581 
L 571.26509 67.120571 
L 573.014699 67.120571 
L 573.014699 61.47536 
L 574.764309 61.47536 
L 574.764309 65.067767 
L 576.513919 65.067767 
L 576.513919 62.501762 
L 578.263528 62.501762 
L 578.263528 57.882953 
L 580.013138 57.882953 
L 580.013138 77.384591 
L 581.762748 77.384591 
L 581.762748 72.252581 
L 583.512358 72.252581 
L 583.512358 80.207196 
L 585.261967 80.207196 
L 585.261967 76.358189 
L 587.011577 76.358189 
L 587.011577 83.543002 
L 588.761187 83.543002 
L 588.761187 73.792184 
L 590.510796 73.792184 
L 590.510796 72.765782 
L 592.260406 72.765782 
L 592.260406 70.456377 
L 594.010016 70.456377 
L 594.010016 84.826005 
L 595.759626 84.826005 
L 595.759626 85.339206 
L 597.509235 85.339206 
L 597.509235 85.082605 
L 599.258845 85.082605 
L 599.258845 99.195632 
L 601.008455 99.195632 
L 601.008455 85.595806 
L 602.758064 85.595806 
L 602.758064 86.109007 
L 604.507674 86.109007 
L 604.507674 100.478635 
L 606.257284 100.478635 
L 606.257284 97.91263 
L 608.006893 97.91263 
L 608.006893 90.727816 
L 609.756503 90.727816 
L 609.756503 90.214615 
L 611.506113 90.214615 
L 611.506113 87.135409 
L 613.255723 87.135409 
L 613.255723 94.576823 
L 615.005332 94.576823 
L 615.005332 97.399429 
L 616.754942 97.399429 
L 616.754942 92.52402 
L 618.504552 92.52402 
L 618.504552 99.708833 
L 620.254161 99.708833 
L 620.254161 107.920049 
L 622.003771 107.920049 
L 622.003771 105.610645 
L 623.753381 105.610645 
L 623.753381 120.750074 
L 625.50299 120.750074 
L 625.50299 100.991836 
L 627.2526 100.991836 
L 627.2526 107.406848 
L 629.00221 107.406848 
L 629.00221 95.603225 
L 630.75182 95.603225 
L 630.75182 111.769056 
L 632.501429 111.769056 
L 632.501429 113.82186 
L 634.251039 113.82186 
L 634.251039 118.184069 
L 636.000649 118.184069 
L 636.000649 120.236873 
L 637.750258 120.236873 
L 637.750258 121.519875 
L 639.499868 121.519875 
L 639.499868 126.651885 
L 641.249478 126.651885 
L 641.249478 146.923324 
L 642.999088 146.923324 
L 642.999088 149.232728 
L 644.748697 149.232728 
L 644.748697 167.964564 
L 646.498307 167.964564 
L 646.498307 170.787169 
L 648.247917 170.787169 
L 648.247917 178.228584 
L 649.997526 178.228584 
L 649.997526 184.900197 
L 651.747136 184.900197 
L 651.747136 190.545407 
L 653.496746 190.545407 
L 653.496746 194.907616 
L 655.246355 194.907616 
L 655.246355 204.658434 
L 656.995965 204.658434 
L 656.995965 207.994241 
L 658.745575 207.994241 
L 658.745575 221.594067 
L 660.495185 221.594067 
L 660.495185 224.160072 
L 662.244794 224.160072 
L 662.244794 229.035481 
L 663.994404 229.035481 
L 663.994404 235.193893 
L 665.744014 235.193893 
L 665.744014 240.325903 
L 667.493623 240.325903 
L 667.493623 241.865506 
L 669.243233 241.865506 
L 669.243233 244.688111 
L 670.992843 244.688111 
L 670.992843 242.378707 
L 672.742453 242.378707 
L 672.742453 232.627888 
L 674.492062 232.627888 
L 674.492062 226.212876 
L 676.241672 226.212876 
L 676.241672 224.160072 
L 677.991282 224.160072 
L 677.991282 218.514861 
L 679.740891 218.514861 
L 679.740891 212.099849 
L 681.490501 212.099849 
L 681.490501 206.198037 
L 683.240111 206.198037 
L 683.240111 196.703819 
L 684.98972 196.703819 
L 684.98972 192.854812 
L 686.73933 192.854812 
L 686.73933 187.979402 
L 688.48894 187.979402 
L 688.48894 189.519005 
L 690.23855 189.519005 
L 690.23855 180.281388 
L 691.988159 180.281388 
L 691.988159 170.530569 
L 693.737769 170.530569 
L 693.737769 170.787169 
L 695.487379 170.787169 
L 695.487379 159.496748 
L 697.236988 159.496748 
L 697.236988 160.77975 
L 698.986598 160.77975 
L 698.986598 153.851537 
L 700.736208 153.851537 
L 700.736208 147.436525 
L 702.485817 147.436525 
L 702.485817 154.108138 
L 704.235427 154.108138 
L 704.235427 148.206326 
L 705.985037 148.206326 
L 705.985037 139.48191 
L 707.734647 139.48191 
L 707.734647 141.021512 
L 709.484256 141.021512 
L 709.484256 133.836699 
L 711.233866 133.836699 
L 711.233866 127.678287 
L 712.983476 127.678287 
L 712.983476 126.651885 
L 714.733085 126.651885 
L 714.733085 125.112282 
L 716.482695 125.112282 
L 716.482695 130.244292 
L 718.232305 130.244292 
L 718.232305 115.874664 
L 719.981915 115.874664 
L 719.981915 113.56526 
L 721.731524 113.56526 
L 721.731524 109.203051 
L 723.481134 109.203051 
L 723.481134 113.308659 
L 725.230744 113.308659 
L 725.230744 116.901066 
L 726.980353 116.901066 
L 726.980353 109.716252 
L 728.729963 109.716252 
L 728.729963 109.459652 
L 730.479573 109.459652 
L 730.479573 112.282257 
L 732.229182 112.282257 
L 732.229182 125.625483 
L 733.978792 125.625483 
L 733.978792 121.519875 
L 735.728402 121.519875 
L 735.728402 119.467071 
L 737.478012 119.467071 
L 737.478012 119.723672 
L 739.227621 119.723672 
L 739.227621 131.527294 
L 740.977231 131.527294 
L 740.977231 127.165086 
L 742.726841 127.165086 
L 742.726841 130.244292 
L 744.47645 130.244292 
L 744.47645 141.791314 
L 746.22606 141.791314 
L 746.22606 139.99511 
L 747.97567 139.99511 
L 747.97567 137.429106 
L 749.725279 137.429106 
L 749.725279 132.553696 
L 751.474889 132.553696 
L 751.474889 141.791314 
L 753.224499 141.791314 
L 753.224499 148.976128 
L 754.974109 148.976128 
L 754.974109 138.968709 
L 756.723718 138.968709 
L 756.723718 137.172505 
L 758.473328 137.172505 
L 758.473328 144.100718 
L 760.222938 144.100718 
L 760.222938 148.719527 
L 763.722157 148.719527 
L 763.722157 151.542133 
L 765.471767 151.542133 
L 765.471767 157.187343 
L 767.221377 157.187343 
L 767.221377 158.726946 
L 768.970986 158.726946 
L 768.970986 166.681562 
L 770.720596 166.681562 
L 770.720596 159.753348 
L 772.470206 159.753348 
L 772.470206 161.292951 
L 774.219815 161.292951 
L 774.219815 175.919179 
L 775.969425 175.919179 
L 775.969425 169.504167 
L 777.719035 169.504167 
L 777.719035 168.477765 
L 779.468644 168.477765 
L 779.468644 176.43238 
L 781.218254 176.43238 
L 781.218254 173.096574 
L 782.967864 173.096574 
L 782.967864 169.760768 
L 784.717474 169.760768 
L 784.717474 168.734366 
L 786.467083 168.734366 
L 786.467083 169.504167 
L 788.216693 169.504167 
L 788.216693 178.741785 
L 789.966303 178.741785 
L 789.966303 177.458782 
L 791.715912 177.458782 
L 791.715912 181.820991 
L 793.465522 181.820991 
L 793.465522 190.032206 
L 795.215132 190.032206 
L 795.215132 184.130395 
L 796.964742 184.130395 
L 796.964742 192.08501 
L 798.714351 192.08501 
L 798.714351 196.447219 
L 800.463961 196.447219 
L 800.463961 197.986822 
L 802.213571 197.986822 
L 802.213571 198.500023 
L 803.96318 198.500023 
L 803.96318 199.013224 
L 805.71279 199.013224 
L 805.71279 205.684836 
L 807.4624 205.684836 
L 807.4624 208.250841 
L 809.212009 208.250841 
L 809.212009 211.073447 
L 810.961619 211.073447 
L 810.961619 214.409253 
L 812.711229 214.409253 
L 812.711229 226.469476 
L 814.460839 226.469476 
L 814.460839 227.495878 
L 816.210448 227.495878 
L 816.210448 223.646871 
L 817.960058 223.646871 
L 817.960058 227.752479 
L 819.709668 227.752479 
L 819.709668 234.680692 
L 821.459277 234.680692 
L 821.459277 229.292082 
L 823.208887 229.292082 
L 823.208887 231.858087 
L 824.958497 231.858087 
L 824.958497 236.990096 
L 826.708106 236.990096 
L 826.708106 240.839104 
L 828.457716 240.839104 
L 828.457716 241.095704 
L 830.207326 241.095704 
L 830.207326 242.891908 
L 831.956936 242.891908 
L 831.956936 244.17491 
L 833.706545 244.17491 
L 833.706545 244.431511 
L 835.456155 244.431511 
L 835.456155 245.201312 
L 837.205765 245.201312 
L 837.205765 246.227714 
L 838.955374 246.227714 
L 838.955374 246.484315 
L 847.703423 246.484315 
L 847.703423 246.484315 
" clip-path="url(#p03c14f2b08)" style="fill: none; stroke: #1f77b4; stroke-width: 1.5; stroke-linecap: square"/>
   </g>
   <g id="line2d_34">
    <path d="M 497.781482 246.484315 
L 506.529531 246.484315 
L 506.529531 244.431511 
L 508.27914 244.431511 
L 508.27914 236.733496 
L 510.02875 236.733496 
L 510.02875 230.575084 
L 511.77836 230.575084 
L 511.77836 215.692256 
L 513.527969 215.692256 
L 513.527969 212.61305 
L 515.277579 212.61305 
L 515.277579 205.171635 
L 517.027189 205.171635 
L 517.027189 197.473621 
L 518.776799 197.473621 
L 518.776799 184.130395 
L 520.526408 184.130395 
L 520.526408 186.439799 
L 522.276018 186.439799 
L 522.276018 166.938162 
L 524.025628 166.938162 
L 524.025628 165.398559 
L 525.775237 165.398559 
L 525.775237 146.923324 
L 527.524847 146.923324 
L 527.524847 147.179924 
L 529.274457 147.179924 
L 529.274457 147.693125 
L 531.024066 147.693125 
L 531.024066 125.368882 
L 532.773676 125.368882 
L 532.773676 123.572679 
L 534.523286 123.572679 
L 534.523286 119.723672 
L 536.272896 119.723672 
L 536.272896 112.025657 
L 538.022505 112.025657 
L 538.022505 115.874664 
L 539.772115 115.874664 
L 539.772115 98.16923 
L 541.521725 98.16923 
L 541.521725 102.788039 
L 543.271334 102.788039 
L 543.271334 84.826005 
L 545.020944 84.826005 
L 545.020944 75.588387 
L 546.770554 75.588387 
L 546.770554 78.154392 
L 548.520163 78.154392 
L 548.520163 82.5166 
L 550.269773 82.5166 
L 550.269773 78.154392 
L 552.019383 78.154392 
L 552.019383 68.916774 
L 553.768993 68.916774 
L 553.768993 65.837568 
L 555.518602 65.837568 
L 555.518602 63.528164 
L 557.268212 63.528164 
L 557.268212 52.494343 
L 559.017822 52.494343 
L 559.017822 51.981142 
L 560.767431 51.981142 
L 560.767431 46.592532 
L 562.517041 46.592532 
L 562.517041 47.105732 
L 564.266651 47.105732 
L 564.266651 51.467941 
L 566.016261 51.467941 
L 566.016261 39.407718 
L 567.76587 39.407718 
L 567.76587 65.837568 
L 569.51548 65.837568 
L 569.51548 64.811166 
L 571.26509 64.811166 
L 571.26509 60.962159 
L 573.014699 60.962159 
L 573.014699 72.509181 
L 574.764309 72.509181 
L 574.764309 60.448958 
L 576.513919 60.448958 
L 576.513919 47.362333 
L 578.263528 47.362333 
L 578.263528 71.99598 
L 580.013138 71.99598 
L 580.013138 81.490198 
L 581.762748 81.490198 
L 581.762748 71.482779 
L 583.512358 71.482779 
L 583.512358 71.73938 
L 585.261967 71.73938 
L 585.261967 82.5166 
L 587.011577 82.5166 
L 587.011577 76.101588 
L 588.761187 76.101588 
L 588.761187 72.252581 
L 590.510796 72.252581 
L 590.510796 76.87139 
L 592.260406 76.87139 
L 592.260406 73.792184 
L 594.010016 73.792184 
L 594.010016 84.056203 
L 595.759626 84.056203 
L 595.759626 85.339206 
L 597.509235 85.339206 
L 597.509235 90.214615 
L 599.258845 90.214615 
L 599.258845 93.807022 
L 601.008455 93.807022 
L 601.008455 74.818586 
L 602.758064 74.818586 
L 602.758064 98.682431 
L 606.257284 98.682431 
L 606.257284 96.116426 
L 608.006893 96.116426 
L 608.006893 94.320223 
L 609.756503 94.320223 
L 609.756503 87.905211 
L 613.255723 87.905211 
L 613.255723 91.241017 
L 615.005332 91.241017 
L 615.005332 104.584243 
L 616.754942 104.584243 
L 616.754942 87.135409 
L 618.504552 87.135409 
L 618.504552 103.30124 
L 620.254161 103.30124 
L 620.254161 105.354044 
L 622.003771 105.354044 
L 622.003771 115.618064 
L 623.753381 115.618064 
L 623.753381 100.991836 
L 625.50299 100.991836 
L 625.50299 114.078461 
L 627.2526 114.078461 
L 627.2526 98.425831 
L 629.00221 98.425831 
L 629.00221 101.248436 
L 630.75182 101.248436 
L 630.75182 114.335061 
L 632.501429 114.335061 
L 632.501429 112.538858 
L 634.251039 112.538858 
L 634.251039 121.776476 
L 636.000649 121.776476 
L 636.000649 115.618064 
L 637.750258 115.618064 
L 637.750258 119.980272 
L 639.499868 119.980272 
L 639.499868 131.783895 
L 641.249478 131.783895 
L 641.249478 141.534713 
L 642.999088 141.534713 
L 642.999088 151.028932 
L 644.748697 151.028932 
L 644.748697 163.602356 
L 646.498307 163.602356 
L 646.498307 175.149378 
L 648.247917 175.149378 
L 648.247917 179.768187 
L 649.997526 179.768187 
L 649.997526 187.722802 
L 651.747136 187.722802 
L 651.747136 186.183199 
L 653.496746 186.183199 
L 653.496746 194.394415 
L 655.246355 194.394415 
L 655.246355 203.118831 
L 656.995965 203.118831 
L 656.995965 212.86965 
L 658.745575 212.86965 
L 658.745575 217.488459 
L 660.495185 217.488459 
L 660.495185 225.699675 
L 662.244794 225.699675 
L 662.244794 228.52228 
L 663.994404 228.52228 
L 663.994404 236.220295 
L 665.744014 236.220295 
L 665.744014 239.299501 
L 667.493623 239.299501 
L 667.493623 242.122106 
L 669.243233 242.122106 
L 669.243233 244.17491 
L 670.992843 244.17491 
L 670.992843 239.556101 
L 672.742453 239.556101 
L 672.742453 233.65429 
L 674.492062 233.65429 
L 674.492062 225.956275 
L 676.241672 225.956275 
L 676.241672 223.903471 
L 677.991282 223.903471 
L 677.991282 219.028062 
L 679.740891 219.028062 
L 679.740891 211.843248 
L 681.490501 211.843248 
L 681.490501 205.684836 
L 683.240111 205.684836 
L 683.240111 196.447219 
L 684.98972 196.447219 
L 684.98972 191.315209 
L 686.73933 191.315209 
L 686.73933 191.571809 
L 688.48894 191.571809 
L 688.48894 188.749204 
L 690.23855 188.749204 
L 690.23855 180.024787 
L 691.988159 180.024787 
L 691.988159 172.326772 
L 693.737769 172.326772 
L 693.737769 162.319353 
L 695.487379 162.319353 
L 695.487379 164.115557 
L 697.236988 164.115557 
L 697.236988 161.806152 
L 698.986598 161.806152 
L 698.986598 155.13454 
L 700.736208 155.13454 
L 700.736208 150.25913 
L 702.485817 150.25913 
L 702.485817 151.798733 
L 704.235427 151.798733 
L 704.235427 143.587517 
L 705.985037 143.587517 
L 705.985037 144.87052 
L 707.734647 144.87052 
L 707.734647 137.942307 
L 709.484256 137.942307 
L 709.484256 137.172505 
L 711.233866 137.172505 
L 711.233866 126.651885 
L 712.983476 126.651885 
L 712.983476 124.08588 
L 714.733085 124.08588 
L 714.733085 124.599081 
L 716.482695 124.599081 
L 716.482695 125.882083 
L 718.232305 125.882083 
L 718.232305 115.104863 
L 719.981915 115.104863 
L 719.981915 119.210471 
L 721.731524 119.210471 
L 721.731524 112.538858 
L 723.481134 112.538858 
L 723.481134 116.387865 
L 725.230744 116.387865 
L 725.230744 116.131265 
L 726.980353 116.131265 
L 726.980353 107.663449 
L 728.729963 107.663449 
L 728.729963 111.255855 
L 730.479573 111.255855 
L 730.479573 117.157667 
L 732.229182 117.157667 
L 732.229182 118.95387 
L 733.978792 118.95387 
L 733.978792 117.927468 
L 735.728402 117.927468 
L 735.728402 123.572679 
L 737.478012 123.572679 
L 737.478012 121.519875 
L 739.227621 121.519875 
L 739.227621 125.625483 
L 740.977231 125.625483 
L 740.977231 134.3499 
L 742.726841 134.3499 
L 742.726841 128.704689 
L 744.47645 128.704689 
L 744.47645 136.659304 
L 746.22606 136.659304 
L 746.22606 138.968709 
L 747.97567 138.968709 
L 747.97567 143.844118 
L 749.725279 143.844118 
L 749.725279 128.191488 
L 751.474889 128.191488 
L 751.474889 138.455508 
L 753.224499 138.455508 
L 753.224499 152.825135 
L 754.974109 152.825135 
L 754.974109 143.587517 
L 756.723718 143.587517 
L 756.723718 133.066897 
L 758.473328 133.066897 
L 758.473328 141.278113 
L 760.222938 141.278113 
L 760.222938 148.206326 
L 761.972547 148.206326 
L 761.972547 153.594937 
L 763.722157 153.594937 
L 763.722157 151.285532 
L 765.471767 151.285532 
L 765.471767 157.187343 
L 767.221377 157.187343 
L 767.221377 156.674142 
L 768.970986 156.674142 
L 768.970986 166.681562 
L 770.720596 166.681562 
L 770.720596 161.292951 
L 772.470206 161.292951 
L 772.470206 165.65516 
L 774.219815 165.65516 
L 774.219815 168.990966 
L 775.969425 168.990966 
L 775.969425 171.04377 
L 777.719035 171.04377 
L 777.719035 167.707964 
L 779.468644 167.707964 
L 779.468644 175.149378 
L 781.218254 175.149378 
L 781.218254 171.556971 
L 782.967864 171.556971 
L 782.967864 170.017368 
L 784.717474 170.017368 
L 784.717474 175.405978 
L 786.467083 175.405978 
L 786.467083 174.892777 
L 788.216693 174.892777 
L 788.216693 172.070172 
L 789.966303 172.070172 
L 789.966303 174.636177 
L 791.715912 174.636177 
L 791.715912 181.820991 
L 793.465522 181.820991 
L 793.465522 190.288807 
L 795.215132 190.288807 
L 795.215132 187.466201 
L 796.964742 187.466201 
L 796.964742 191.571809 
L 798.714351 191.571809 
L 798.714351 193.111412 
L 800.463961 193.111412 
L 800.463961 197.21702 
L 802.213571 197.21702 
L 802.213571 198.243422 
L 803.96318 198.243422 
L 803.96318 205.941437 
L 805.71279 205.941437 
L 805.71279 196.96042 
L 807.4624 196.96042 
L 807.4624 212.86965 
L 809.212009 212.86965 
L 809.212009 209.790444 
L 810.961619 209.790444 
L 810.961619 215.435655 
L 812.711229 215.435655 
L 812.711229 224.929873 
L 814.460839 224.929873 
L 814.460839 226.982677 
L 816.210448 226.982677 
L 816.210448 223.39027 
L 817.960058 223.39027 
L 817.960058 229.805283 
L 819.709668 229.805283 
L 819.709668 233.91089 
L 821.459277 233.91089 
L 821.459277 230.061883 
L 823.208887 230.061883 
L 823.208887 232.114687 
L 824.958497 232.114687 
L 824.958497 236.476895 
L 826.708106 236.476895 
L 826.708106 239.812702 
L 828.457716 239.812702 
L 828.457716 241.608905 
L 830.207326 241.608905 
L 830.207326 243.148508 
L 831.956936 243.148508 
L 831.956936 243.661709 
L 833.706545 243.661709 
L 833.706545 244.688111 
L 835.456155 244.688111 
L 835.456155 245.201312 
L 837.205765 245.201312 
L 837.205765 246.227714 
L 838.955374 246.227714 
L 838.955374 246.484315 
L 847.703423 246.484315 
L 847.703423 246.484315 
" clip-path="url(#p03c14f2b08)" style="fill: none; stroke: #ff7f0e; stroke-width: 1.5; stroke-linecap: square"/>
   </g>
  </g>
 </g>
 <defs>
  <clipPath id="pd2b8ccd485">
   <rect x="46.965625" y="22.318125" width="384.914135" height="234.84077"/>
  </clipPath>
  <clipPath id="p03c14f2b08">
   <rect x="480.285385" y="22.318125" width="384.914135" height="234.84077"/>
  </clipPath>
 </defs>
</svg>
