<?xml version="1.0" encoding="utf-8" standalone="no"?>
<!DOCTYPE svg PUBLIC "-//W3C//DTD SVG 1.1//EN"
  "http://www.w3.org/Graphics/SVG/1.1/DTD/svg11.dtd">
<svg xmlns:xlink="http://www.w3.org/1999/xlink" width="872.39952pt" height="296.39952pt" viewBox="0 0 872.39952 296.39952" xmlns="http://www.w3.org/2000/svg" version="1.1">
 <metadata>
  <rdf:RDF xmlns:dc="http://purl.org/dc/elements/1.1/" xmlns:cc="http://creativecommons.org/ns#" xmlns:rdf="http://www.w3.org/1999/02/22-rdf-syntax-ns#">
   <cc:Work>
    <dc:type rdf:resource="http://purl.org/dc/dcmitype/StillImage"/>
    <dc:date>2025-03-17T10:47:31.277183</dc:date>
    <dc:format>image/svg+xml</dc:format>
    <dc:creator>
     <cc:Agent>
      <dc:title>Matplotlib v3.10.0, https://matplotlib.org/</dc:title>
     </cc:Agent>
    </dc:creator>
   </cc:Work>
  </rdf:RDF>
 </metadata>
 <defs>
  <style type="text/css">*{stroke-linejoin: round; stroke-linecap: butt}</style>
 </defs>
 <g id="figure_1">
  <g id="patch_1">
   <path d="M 0 296.39952 
L 872.39952 296.39952 
L 872.39952 0 
L 0 0 
z
" style="fill: #ffffff"/>
  </g>
  <g id="axes_1">
   <g id="patch_2">
    <path d="M 53.328125 257.158895 
L 431.87976 257.158895 
L 431.87976 7.2 
L 53.328125 7.2 
z
" style="fill: #ffffff"/>
   </g>
   <g id="matplotlib.axis_1">
    <g id="xtick_1">
     <g id="line2d_1">
      <defs>
       <path id="m7e2cdaafbc" d="M 0 0 
L 0 3.5 
" style="stroke: #000000; stroke-width: 0.8"/>
      </defs>
      <g>
       <use xlink:href="#m7e2cdaafbc" x="69.629458" y="257.158895" style="stroke: #000000; stroke-width: 0.8"/>
      </g>
     </g>
     <g id="text_1">
      <!-- 0 -->
      <g transform="translate(66.448208 271.757332) scale(0.1 -0.1)">
       <defs>
        <path id="DejaVuSans-30" d="M 2034 4250 
Q 1547 4250 1301 3770 
Q 1056 3291 1056 2328 
Q 1056 1369 1301 889 
Q 1547 409 2034 409 
Q 2525 409 2770 889 
Q 3016 1369 3016 2328 
Q 3016 3291 2770 3770 
Q 2525 4250 2034 4250 
z
M 2034 4750 
Q 2819 4750 3233 4129 
Q 3647 3509 3647 2328 
Q 3647 1150 3233 529 
Q 2819 -91 2034 -91 
Q 1250 -91 836 529 
Q 422 1150 422 2328 
Q 422 3509 836 4129 
Q 1250 4750 2034 4750 
z
" transform="scale(0.015625)"/>
       </defs>
       <use xlink:href="#DejaVuSans-30"/>
      </g>
     </g>
    </g>
    <g id="xtick_2">
     <g id="line2d_2">
      <g>
       <use xlink:href="#m7e2cdaafbc" x="139.186375" y="257.158895" style="stroke: #000000; stroke-width: 0.8"/>
      </g>
     </g>
     <g id="text_2">
      <!-- 1000 -->
      <g transform="translate(126.461375 271.757332) scale(0.1 -0.1)">
       <defs>
        <path id="DejaVuSans-31" d="M 794 531 
L 1825 531 
L 1825 4091 
L 703 3866 
L 703 4441 
L 1819 4666 
L 2450 4666 
L 2450 531 
L 3481 531 
L 3481 0 
L 794 0 
L 794 531 
z
" transform="scale(0.015625)"/>
       </defs>
       <use xlink:href="#DejaVuSans-31"/>
       <use xlink:href="#DejaVuSans-30" transform="translate(63.623047 0)"/>
       <use xlink:href="#DejaVuSans-30" transform="translate(127.246094 0)"/>
       <use xlink:href="#DejaVuSans-30" transform="translate(190.869141 0)"/>
      </g>
     </g>
    </g>
    <g id="xtick_3">
     <g id="line2d_3">
      <g>
       <use xlink:href="#m7e2cdaafbc" x="208.743292" y="257.158895" style="stroke: #000000; stroke-width: 0.8"/>
      </g>
     </g>
     <g id="text_3">
      <!-- 2000 -->
      <g transform="translate(196.018292 271.757332) scale(0.1 -0.1)">
       <defs>
        <path id="DejaVuSans-32" d="M 1228 531 
L 3431 531 
L 3431 0 
L 469 0 
L 469 531 
Q 828 903 1448 1529 
Q 2069 2156 2228 2338 
Q 2531 2678 2651 2914 
Q 2772 3150 2772 3378 
Q 2772 3750 2511 3984 
Q 2250 4219 1831 4219 
Q 1534 4219 1204 4116 
Q 875 4013 500 3803 
L 500 4441 
Q 881 4594 1212 4672 
Q 1544 4750 1819 4750 
Q 2544 4750 2975 4387 
Q 3406 4025 3406 3419 
Q 3406 3131 3298 2873 
Q 3191 2616 2906 2266 
Q 2828 2175 2409 1742 
Q 1991 1309 1228 531 
z
" transform="scale(0.015625)"/>
       </defs>
       <use xlink:href="#DejaVuSans-32"/>
       <use xlink:href="#DejaVuSans-30" transform="translate(63.623047 0)"/>
       <use xlink:href="#DejaVuSans-30" transform="translate(127.246094 0)"/>
       <use xlink:href="#DejaVuSans-30" transform="translate(190.869141 0)"/>
      </g>
     </g>
    </g>
    <g id="xtick_4">
     <g id="line2d_4">
      <g>
       <use xlink:href="#m7e2cdaafbc" x="278.30021" y="257.158895" style="stroke: #000000; stroke-width: 0.8"/>
      </g>
     </g>
     <g id="text_4">
      <!-- 3000 -->
      <g transform="translate(265.57521 271.757332) scale(0.1 -0.1)">
       <defs>
        <path id="DejaVuSans-33" d="M 2597 2516 
Q 3050 2419 3304 2112 
Q 3559 1806 3559 1356 
Q 3559 666 3084 287 
Q 2609 -91 1734 -91 
Q 1441 -91 1130 -33 
Q 819 25 488 141 
L 488 750 
Q 750 597 1062 519 
Q 1375 441 1716 441 
Q 2309 441 2620 675 
Q 2931 909 2931 1356 
Q 2931 1769 2642 2001 
Q 2353 2234 1838 2234 
L 1294 2234 
L 1294 2753 
L 1863 2753 
Q 2328 2753 2575 2939 
Q 2822 3125 2822 3475 
Q 2822 3834 2567 4026 
Q 2313 4219 1838 4219 
Q 1578 4219 1281 4162 
Q 984 4106 628 3988 
L 628 4550 
Q 988 4650 1302 4700 
Q 1616 4750 1894 4750 
Q 2613 4750 3031 4423 
Q 3450 4097 3450 3541 
Q 3450 3153 3228 2886 
Q 3006 2619 2597 2516 
z
" transform="scale(0.015625)"/>
       </defs>
       <use xlink:href="#DejaVuSans-33"/>
       <use xlink:href="#DejaVuSans-30" transform="translate(63.623047 0)"/>
       <use xlink:href="#DejaVuSans-30" transform="translate(127.246094 0)"/>
       <use xlink:href="#DejaVuSans-30" transform="translate(190.869141 0)"/>
      </g>
     </g>
    </g>
    <g id="xtick_5">
     <g id="line2d_5">
      <g>
       <use xlink:href="#m7e2cdaafbc" x="347.857127" y="257.158895" style="stroke: #000000; stroke-width: 0.8"/>
      </g>
     </g>
     <g id="text_5">
      <!-- 4000 -->
      <g transform="translate(335.132127 271.757332) scale(0.1 -0.1)">
       <defs>
        <path id="DejaVuSans-34" d="M 2419 4116 
L 825 1625 
L 2419 1625 
L 2419 4116 
z
M 2253 4666 
L 3047 4666 
L 3047 1625 
L 3713 1625 
L 3713 1100 
L 3047 1100 
L 3047 0 
L 2419 0 
L 2419 1100 
L 313 1100 
L 313 1709 
L 2253 4666 
z
" transform="scale(0.015625)"/>
       </defs>
       <use xlink:href="#DejaVuSans-34"/>
       <use xlink:href="#DejaVuSans-30" transform="translate(63.623047 0)"/>
       <use xlink:href="#DejaVuSans-30" transform="translate(127.246094 0)"/>
       <use xlink:href="#DejaVuSans-30" transform="translate(190.869141 0)"/>
      </g>
     </g>
    </g>
    <g id="xtick_6">
     <g id="line2d_6">
      <g>
       <use xlink:href="#m7e2cdaafbc" x="417.414045" y="257.158895" style="stroke: #000000; stroke-width: 0.8"/>
      </g>
     </g>
     <g id="text_6">
      <!-- 5000 -->
      <g transform="translate(404.689045 271.757332) scale(0.1 -0.1)">
       <defs>
        <path id="DejaVuSans-35" d="M 691 4666 
L 3169 4666 
L 3169 4134 
L 1269 4134 
L 1269 2991 
Q 1406 3038 1543 3061 
Q 1681 3084 1819 3084 
Q 2600 3084 3056 2656 
Q 3513 2228 3513 1497 
Q 3513 744 3044 326 
Q 2575 -91 1722 -91 
Q 1428 -91 1123 -41 
Q 819 9 494 109 
L 494 744 
Q 775 591 1075 516 
Q 1375 441 1709 441 
Q 2250 441 2565 725 
Q 2881 1009 2881 1497 
Q 2881 1984 2565 2268 
Q 2250 2553 1709 2553 
Q 1456 2553 1204 2497 
Q 953 2441 691 2322 
L 691 4666 
z
" transform="scale(0.015625)"/>
       </defs>
       <use xlink:href="#DejaVuSans-35"/>
       <use xlink:href="#DejaVuSans-30" transform="translate(63.623047 0)"/>
       <use xlink:href="#DejaVuSans-30" transform="translate(127.246094 0)"/>
       <use xlink:href="#DejaVuSans-30" transform="translate(190.869141 0)"/>
      </g>
     </g>
    </g>
    <g id="text_7">
     <!-- time [µs] -->
     <g transform="translate(220.031286 285.435457) scale(0.1 -0.1)">
      <defs>
       <path id="DejaVuSans-74" d="M 1172 4494 
L 1172 3500 
L 2356 3500 
L 2356 3053 
L 1172 3053 
L 1172 1153 
Q 1172 725 1289 603 
Q 1406 481 1766 481 
L 2356 481 
L 2356 0 
L 1766 0 
Q 1100 0 847 248 
Q 594 497 594 1153 
L 594 3053 
L 172 3053 
L 172 3500 
L 594 3500 
L 594 4494 
L 1172 4494 
z
" transform="scale(0.015625)"/>
       <path id="DejaVuSans-69" d="M 603 3500 
L 1178 3500 
L 1178 0 
L 603 0 
L 603 3500 
z
M 603 4863 
L 1178 4863 
L 1178 4134 
L 603 4134 
L 603 4863 
z
" transform="scale(0.015625)"/>
       <path id="DejaVuSans-6d" d="M 3328 2828 
Q 3544 3216 3844 3400 
Q 4144 3584 4550 3584 
Q 5097 3584 5394 3201 
Q 5691 2819 5691 2113 
L 5691 0 
L 5113 0 
L 5113 2094 
Q 5113 2597 4934 2840 
Q 4756 3084 4391 3084 
Q 3944 3084 3684 2787 
Q 3425 2491 3425 1978 
L 3425 0 
L 2847 0 
L 2847 2094 
Q 2847 2600 2669 2842 
Q 2491 3084 2119 3084 
Q 1678 3084 1418 2786 
Q 1159 2488 1159 1978 
L 1159 0 
L 581 0 
L 581 3500 
L 1159 3500 
L 1159 2956 
Q 1356 3278 1631 3431 
Q 1906 3584 2284 3584 
Q 2666 3584 2933 3390 
Q 3200 3197 3328 2828 
z
" transform="scale(0.015625)"/>
       <path id="DejaVuSans-65" d="M 3597 1894 
L 3597 1613 
L 953 1613 
Q 991 1019 1311 708 
Q 1631 397 2203 397 
Q 2534 397 2845 478 
Q 3156 559 3463 722 
L 3463 178 
Q 3153 47 2828 -22 
Q 2503 -91 2169 -91 
Q 1331 -91 842 396 
Q 353 884 353 1716 
Q 353 2575 817 3079 
Q 1281 3584 2069 3584 
Q 2775 3584 3186 3129 
Q 3597 2675 3597 1894 
z
M 3022 2063 
Q 3016 2534 2758 2815 
Q 2500 3097 2075 3097 
Q 1594 3097 1305 2825 
Q 1016 2553 972 2059 
L 3022 2063 
z
" transform="scale(0.015625)"/>
       <path id="DejaVuSans-20" transform="scale(0.015625)"/>
       <path id="DejaVuSans-5b" d="M 550 4863 
L 1875 4863 
L 1875 4416 
L 1125 4416 
L 1125 -397 
L 1875 -397 
L 1875 -844 
L 550 -844 
L 550 4863 
z
" transform="scale(0.015625)"/>
       <path id="DejaVuSans-b5" d="M 544 -1331 
L 544 3500 
L 1119 3500 
L 1119 1325 
Q 1119 872 1334 640 
Q 1550 409 1972 409 
Q 2434 409 2667 671 
Q 2900 934 2900 1459 
L 2900 3500 
L 3475 3500 
L 3475 806 
Q 3475 619 3529 530 
Q 3584 441 3700 441 
Q 3728 441 3778 458 
Q 3828 475 3916 513 
L 3916 50 
Q 3788 -22 3673 -56 
Q 3559 -91 3450 -91 
Q 3234 -91 3106 31 
Q 2978 153 2931 403 
Q 2775 156 2548 32 
Q 2322 -91 2016 -91 
Q 1697 -91 1473 31 
Q 1250 153 1119 397 
L 1119 -1331 
L 544 -1331 
z
" transform="scale(0.015625)"/>
       <path id="DejaVuSans-73" d="M 2834 3397 
L 2834 2853 
Q 2591 2978 2328 3040 
Q 2066 3103 1784 3103 
Q 1356 3103 1142 2972 
Q 928 2841 928 2578 
Q 928 2378 1081 2264 
Q 1234 2150 1697 2047 
L 1894 2003 
Q 2506 1872 2764 1633 
Q 3022 1394 3022 966 
Q 3022 478 2636 193 
Q 2250 -91 1575 -91 
Q 1294 -91 989 -36 
Q 684 19 347 128 
L 347 722 
Q 666 556 975 473 
Q 1284 391 1588 391 
Q 1994 391 2212 530 
Q 2431 669 2431 922 
Q 2431 1156 2273 1281 
Q 2116 1406 1581 1522 
L 1381 1569 
Q 847 1681 609 1914 
Q 372 2147 372 2553 
Q 372 3047 722 3315 
Q 1072 3584 1716 3584 
Q 2034 3584 2315 3537 
Q 2597 3491 2834 3397 
z
" transform="scale(0.015625)"/>
       <path id="DejaVuSans-5d" d="M 1947 4863 
L 1947 -844 
L 622 -844 
L 622 -397 
L 1369 -397 
L 1369 4416 
L 622 4416 
L 622 4863 
L 1947 4863 
z
" transform="scale(0.015625)"/>
      </defs>
      <use xlink:href="#DejaVuSans-74"/>
      <use xlink:href="#DejaVuSans-69" transform="translate(39.208984 0)"/>
      <use xlink:href="#DejaVuSans-6d" transform="translate(66.992188 0)"/>
      <use xlink:href="#DejaVuSans-65" transform="translate(164.404297 0)"/>
      <use xlink:href="#DejaVuSans-20" transform="translate(225.927734 0)"/>
      <use xlink:href="#DejaVuSans-5b" transform="translate(257.714844 0)"/>
      <use xlink:href="#DejaVuSans-b5" transform="translate(296.728516 0)"/>
      <use xlink:href="#DejaVuSans-73" transform="translate(360.351562 0)"/>
      <use xlink:href="#DejaVuSans-5d" transform="translate(412.451172 0)"/>
     </g>
    </g>
   </g>
   <g id="matplotlib.axis_2">
    <g id="ytick_1">
     <g id="line2d_7">
      <defs>
       <path id="m4b044f852a" d="M 0 0 
L -3.5 0 
" style="stroke: #000000; stroke-width: 0.8"/>
      </defs>
      <g>
       <use xlink:href="#m4b044f852a" x="53.328125" y="245.797127" style="stroke: #000000; stroke-width: 0.8"/>
      </g>
     </g>
     <g id="text_8">
      <!-- 0 -->
      <g transform="translate(39.965625 249.596346) scale(0.1 -0.1)">
       <use xlink:href="#DejaVuSans-30"/>
      </g>
     </g>
    </g>
    <g id="ytick_2">
     <g id="line2d_8">
      <g>
       <use xlink:href="#m4b044f852a" x="53.328125" y="209.116682" style="stroke: #000000; stroke-width: 0.8"/>
      </g>
     </g>
     <g id="text_9">
      <!-- 200 -->
      <g transform="translate(27.240625 212.9159) scale(0.1 -0.1)">
       <use xlink:href="#DejaVuSans-32"/>
       <use xlink:href="#DejaVuSans-30" transform="translate(63.623047 0)"/>
       <use xlink:href="#DejaVuSans-30" transform="translate(127.246094 0)"/>
      </g>
     </g>
    </g>
    <g id="ytick_3">
     <g id="line2d_9">
      <g>
       <use xlink:href="#m4b044f852a" x="53.328125" y="172.436236" style="stroke: #000000; stroke-width: 0.8"/>
      </g>
     </g>
     <g id="text_10">
      <!-- 400 -->
      <g transform="translate(27.240625 176.235455) scale(0.1 -0.1)">
       <use xlink:href="#DejaVuSans-34"/>
       <use xlink:href="#DejaVuSans-30" transform="translate(63.623047 0)"/>
       <use xlink:href="#DejaVuSans-30" transform="translate(127.246094 0)"/>
      </g>
     </g>
    </g>
    <g id="ytick_4">
     <g id="line2d_10">
      <g>
       <use xlink:href="#m4b044f852a" x="53.328125" y="135.755791" style="stroke: #000000; stroke-width: 0.8"/>
      </g>
     </g>
     <g id="text_11">
      <!-- 600 -->
      <g transform="translate(27.240625 139.55501) scale(0.1 -0.1)">
       <defs>
        <path id="DejaVuSans-36" d="M 2113 2584 
Q 1688 2584 1439 2293 
Q 1191 2003 1191 1497 
Q 1191 994 1439 701 
Q 1688 409 2113 409 
Q 2538 409 2786 701 
Q 3034 994 3034 1497 
Q 3034 2003 2786 2293 
Q 2538 2584 2113 2584 
z
M 3366 4563 
L 3366 3988 
Q 3128 4100 2886 4159 
Q 2644 4219 2406 4219 
Q 1781 4219 1451 3797 
Q 1122 3375 1075 2522 
Q 1259 2794 1537 2939 
Q 1816 3084 2150 3084 
Q 2853 3084 3261 2657 
Q 3669 2231 3669 1497 
Q 3669 778 3244 343 
Q 2819 -91 2113 -91 
Q 1303 -91 875 529 
Q 447 1150 447 2328 
Q 447 3434 972 4092 
Q 1497 4750 2381 4750 
Q 2619 4750 2861 4703 
Q 3103 4656 3366 4563 
z
" transform="scale(0.015625)"/>
       </defs>
       <use xlink:href="#DejaVuSans-36"/>
       <use xlink:href="#DejaVuSans-30" transform="translate(63.623047 0)"/>
       <use xlink:href="#DejaVuSans-30" transform="translate(127.246094 0)"/>
      </g>
     </g>
    </g>
    <g id="ytick_5">
     <g id="line2d_11">
      <g>
       <use xlink:href="#m4b044f852a" x="53.328125" y="99.075346" style="stroke: #000000; stroke-width: 0.8"/>
      </g>
     </g>
     <g id="text_12">
      <!-- 800 -->
      <g transform="translate(27.240625 102.874564) scale(0.1 -0.1)">
       <defs>
        <path id="DejaVuSans-38" d="M 2034 2216 
Q 1584 2216 1326 1975 
Q 1069 1734 1069 1313 
Q 1069 891 1326 650 
Q 1584 409 2034 409 
Q 2484 409 2743 651 
Q 3003 894 3003 1313 
Q 3003 1734 2745 1975 
Q 2488 2216 2034 2216 
z
M 1403 2484 
Q 997 2584 770 2862 
Q 544 3141 544 3541 
Q 544 4100 942 4425 
Q 1341 4750 2034 4750 
Q 2731 4750 3128 4425 
Q 3525 4100 3525 3541 
Q 3525 3141 3298 2862 
Q 3072 2584 2669 2484 
Q 3125 2378 3379 2068 
Q 3634 1759 3634 1313 
Q 3634 634 3220 271 
Q 2806 -91 2034 -91 
Q 1263 -91 848 271 
Q 434 634 434 1313 
Q 434 1759 690 2068 
Q 947 2378 1403 2484 
z
M 1172 3481 
Q 1172 3119 1398 2916 
Q 1625 2713 2034 2713 
Q 2441 2713 2670 2916 
Q 2900 3119 2900 3481 
Q 2900 3844 2670 4047 
Q 2441 4250 2034 4250 
Q 1625 4250 1398 4047 
Q 1172 3844 1172 3481 
z
" transform="scale(0.015625)"/>
       </defs>
       <use xlink:href="#DejaVuSans-38"/>
       <use xlink:href="#DejaVuSans-30" transform="translate(63.623047 0)"/>
       <use xlink:href="#DejaVuSans-30" transform="translate(127.246094 0)"/>
      </g>
     </g>
    </g>
    <g id="ytick_6">
     <g id="line2d_12">
      <g>
       <use xlink:href="#m4b044f852a" x="53.328125" y="62.3949" style="stroke: #000000; stroke-width: 0.8"/>
      </g>
     </g>
     <g id="text_13">
      <!-- 1000 -->
      <g transform="translate(20.878125 66.194119) scale(0.1 -0.1)">
       <use xlink:href="#DejaVuSans-31"/>
       <use xlink:href="#DejaVuSans-30" transform="translate(63.623047 0)"/>
       <use xlink:href="#DejaVuSans-30" transform="translate(127.246094 0)"/>
       <use xlink:href="#DejaVuSans-30" transform="translate(190.869141 0)"/>
      </g>
     </g>
    </g>
    <g id="ytick_7">
     <g id="line2d_13">
      <g>
       <use xlink:href="#m4b044f852a" x="53.328125" y="25.714455" style="stroke: #000000; stroke-width: 0.8"/>
      </g>
     </g>
     <g id="text_14">
      <!-- 1200 -->
      <g transform="translate(20.878125 29.513674) scale(0.1 -0.1)">
       <use xlink:href="#DejaVuSans-31"/>
       <use xlink:href="#DejaVuSans-32" transform="translate(63.623047 0)"/>
       <use xlink:href="#DejaVuSans-30" transform="translate(127.246094 0)"/>
       <use xlink:href="#DejaVuSans-30" transform="translate(190.869141 0)"/>
      </g>
     </g>
    </g>
    <g id="text_15">
     <!-- [counts] -->
     <g transform="translate(14.798438 152.791947) rotate(-90) scale(0.1 -0.1)">
      <defs>
       <path id="DejaVuSans-63" d="M 3122 3366 
L 3122 2828 
Q 2878 2963 2633 3030 
Q 2388 3097 2138 3097 
Q 1578 3097 1268 2742 
Q 959 2388 959 1747 
Q 959 1106 1268 751 
Q 1578 397 2138 397 
Q 2388 397 2633 464 
Q 2878 531 3122 666 
L 3122 134 
Q 2881 22 2623 -34 
Q 2366 -91 2075 -91 
Q 1284 -91 818 406 
Q 353 903 353 1747 
Q 353 2603 823 3093 
Q 1294 3584 2113 3584 
Q 2378 3584 2631 3529 
Q 2884 3475 3122 3366 
z
" transform="scale(0.015625)"/>
       <path id="DejaVuSans-6f" d="M 1959 3097 
Q 1497 3097 1228 2736 
Q 959 2375 959 1747 
Q 959 1119 1226 758 
Q 1494 397 1959 397 
Q 2419 397 2687 759 
Q 2956 1122 2956 1747 
Q 2956 2369 2687 2733 
Q 2419 3097 1959 3097 
z
M 1959 3584 
Q 2709 3584 3137 3096 
Q 3566 2609 3566 1747 
Q 3566 888 3137 398 
Q 2709 -91 1959 -91 
Q 1206 -91 779 398 
Q 353 888 353 1747 
Q 353 2609 779 3096 
Q 1206 3584 1959 3584 
z
" transform="scale(0.015625)"/>
       <path id="DejaVuSans-75" d="M 544 1381 
L 544 3500 
L 1119 3500 
L 1119 1403 
Q 1119 906 1312 657 
Q 1506 409 1894 409 
Q 2359 409 2629 706 
Q 2900 1003 2900 1516 
L 2900 3500 
L 3475 3500 
L 3475 0 
L 2900 0 
L 2900 538 
Q 2691 219 2414 64 
Q 2138 -91 1772 -91 
Q 1169 -91 856 284 
Q 544 659 544 1381 
z
M 1991 3584 
L 1991 3584 
z
" transform="scale(0.015625)"/>
       <path id="DejaVuSans-6e" d="M 3513 2113 
L 3513 0 
L 2938 0 
L 2938 2094 
Q 2938 2591 2744 2837 
Q 2550 3084 2163 3084 
Q 1697 3084 1428 2787 
Q 1159 2491 1159 1978 
L 1159 0 
L 581 0 
L 581 3500 
L 1159 3500 
L 1159 2956 
Q 1366 3272 1645 3428 
Q 1925 3584 2291 3584 
Q 2894 3584 3203 3211 
Q 3513 2838 3513 2113 
z
" transform="scale(0.015625)"/>
      </defs>
      <use xlink:href="#DejaVuSans-5b"/>
      <use xlink:href="#DejaVuSans-63" transform="translate(39.013672 0)"/>
      <use xlink:href="#DejaVuSans-6f" transform="translate(93.994141 0)"/>
      <use xlink:href="#DejaVuSans-75" transform="translate(155.175781 0)"/>
      <use xlink:href="#DejaVuSans-6e" transform="translate(218.554688 0)"/>
      <use xlink:href="#DejaVuSans-74" transform="translate(281.933594 0)"/>
      <use xlink:href="#DejaVuSans-73" transform="translate(321.142578 0)"/>
      <use xlink:href="#DejaVuSans-5d" transform="translate(373.242188 0)"/>
     </g>
    </g>
   </g>
   <g id="patch_3">
    <path d="M 53.328125 257.158895 
L 53.328125 7.2 
" style="fill: none; stroke: #000000; stroke-width: 0.8; stroke-linejoin: miter; stroke-linecap: square"/>
   </g>
   <g id="patch_4">
    <path d="M 431.87976 257.158895 
L 431.87976 7.2 
" style="fill: none; stroke: #000000; stroke-width: 0.8; stroke-linejoin: miter; stroke-linecap: square"/>
   </g>
   <g id="patch_5">
    <path d="M 53.328125 257.158895 
L 431.87976 257.158895 
" style="fill: none; stroke: #000000; stroke-width: 0.8; stroke-linejoin: miter; stroke-linecap: square"/>
   </g>
   <g id="patch_6">
    <path d="M 53.328125 7.2 
L 431.87976 7.2 
" style="fill: none; stroke: #000000; stroke-width: 0.8; stroke-linejoin: miter; stroke-linecap: square"/>
   </g>
   <g id="line2d_14">
    <path d="M 70.535017 235.3432 
L 71.682144 235.3432 
L 71.682144 228.74072 
L 72.82927 228.74072 
L 72.82927 222.871849 
L 73.976396 222.871849 
L 73.976396 214.802151 
L 75.123522 214.802151 
L 75.123522 197.378939 
L 76.270648 197.378939 
L 76.270648 194.99471 
L 77.417774 194.99471 
L 77.417774 177.204694 
L 78.564901 177.204694 
L 78.564901 170.969018 
L 79.712027 170.969018 
L 79.712027 170.23541 
L 80.859153 170.23541 
L 80.859153 168.58479 
L 82.006279 168.58479 
L 82.006279 151.161578 
L 83.153405 151.161578 
L 83.153405 144.559098 
L 84.300531 144.559098 
L 84.300531 144.008891 
L 85.447658 144.008891 
L 85.447658 134.471975 
L 86.594784 134.471975 
L 86.594784 136.4894 
L 87.74191 136.4894 
L 87.74191 123.284439 
L 88.889036 123.284439 
L 88.889036 128.603104 
L 90.036162 128.603104 
L 90.036162 118.332579 
L 91.183288 118.332579 
L 91.183288 110.262881 
L 92.330415 110.262881 
L 92.330415 105.861228 
L 93.477541 105.861228 
L 93.477541 100.542563 
L 94.624667 100.542563 
L 94.624667 102.926792 
L 95.771793 102.926792 
L 95.771793 101.826379 
L 96.918919 101.826379 
L 96.918919 97.241323 
L 98.066045 97.241323 
L 98.066045 87.704407 
L 99.213172 87.704407 
L 99.213172 89.721832 
L 100.360298 89.721832 
L 100.360298 78.901101 
L 101.507424 78.901101 
L 101.507424 85.503581 
L 102.65455 85.503581 
L 102.65455 80.184916 
L 103.801676 80.184916 
L 103.801676 74.132643 
L 104.948802 74.132643 
L 104.948802 69.180783 
L 106.095929 69.180783 
L 106.095929 74.132643 
L 107.243055 74.132643 
L 107.243055 73.399034 
L 108.390181 73.399034 
L 108.390181 71.014805 
L 109.537307 71.014805 
L 109.537307 65.879542 
L 110.684433 65.879542 
L 110.684433 65.512738 
L 111.831559 65.512738 
L 111.831559 61.111085 
L 112.978686 61.111085 
L 112.978686 55.975822 
L 114.125812 55.975822 
L 114.125812 63.678716 
L 115.272938 63.678716 
L 115.272938 59.460465 
L 116.420064 59.460465 
L 116.420064 59.09366 
L 117.56719 59.09366 
L 117.56719 52.124375 
L 118.714316 52.124375 
L 118.714316 56.342627 
L 119.861443 56.342627 
L 119.861443 53.774996 
L 121.008569 53.774996 
L 121.008569 55.425616 
L 122.155695 55.425616 
L 122.155695 52.674582 
L 123.302821 52.674582 
L 123.302821 59.09366 
L 124.449947 59.09366 
L 124.449947 59.460465 
L 125.597073 59.460465 
L 125.597073 55.975822 
L 126.7442 55.975822 
L 126.7442 41.670449 
L 127.891326 41.670449 
L 127.891326 41.120242 
L 129.038452 41.120242 
L 129.038452 44.054677 
L 130.185578 44.054677 
L 130.185578 33.784153 
L 131.332704 33.784153 
L 131.332704 41.670449 
L 132.47983 41.670449 
L 132.47983 38.919415 
L 133.626957 38.919415 
L 133.626957 38.185806 
L 134.774083 38.185806 
L 134.774083 35.251371 
L 135.921209 35.251371 
L 135.921209 40.93684 
L 137.068335 40.93684 
L 137.068335 46.255504 
L 138.215461 46.255504 
L 138.215461 45.521895 
L 139.362587 45.521895 
L 139.362587 36.535186 
L 140.509714 36.535186 
L 140.509714 49.740147 
L 141.65684 49.740147 
L 141.65684 45.8887 
L 142.803966 45.8887 
L 142.803966 38.369208 
L 143.951092 38.369208 
L 143.951092 43.871275 
L 145.098218 43.871275 
L 145.098218 27.181673 
L 146.245344 27.181673 
L 146.245344 42.037253 
L 147.392471 42.037253 
L 147.392471 38.002404 
L 148.539597 38.002404 
L 148.539597 28.465488 
L 149.686723 28.465488 
L 149.686723 44.604884 
L 150.833849 44.604884 
L 150.833849 37.268795 
L 151.980975 37.268795 
L 151.980975 42.220655 
L 153.128101 42.220655 
L 153.128101 36.168382 
L 154.275228 36.168382 
L 154.275228 43.687873 
L 155.422354 43.687873 
L 155.422354 35.251371 
L 156.56948 35.251371 
L 156.56948 37.085393 
L 157.716606 37.085393 
L 157.716606 29.932706 
L 158.863732 29.932706 
L 158.863732 43.871275 
L 160.010858 43.871275 
L 160.010858 33.050544 
L 161.157985 33.050544 
L 161.157985 31.216522 
L 162.305111 31.216522 
L 162.305111 36.535186 
L 163.452237 36.535186 
L 163.452237 38.919415 
L 164.599363 38.919415 
L 164.599363 46.438906 
L 165.746489 46.438906 
L 165.746489 35.801577 
L 166.893615 35.801577 
L 166.893615 26.448064 
L 168.040742 26.448064 
L 168.040742 40.203231 
L 169.187868 40.203231 
L 169.187868 34.884566 
L 170.334994 34.884566 
L 170.334994 41.853851 
L 171.48212 41.853851 
L 171.48212 33.050544 
L 172.629246 33.050544 
L 172.629246 26.631466 
L 173.776372 26.631466 
L 173.776372 39.836426 
L 174.923499 39.836426 
L 174.923499 28.832293 
L 176.070625 28.832293 
L 176.070625 41.487046 
L 177.217751 41.487046 
L 177.217751 38.369208 
L 178.364877 38.369208 
L 178.364877 43.687873 
L 179.512003 43.687873 
L 179.512003 20.028986 
L 180.659129 20.028986 
L 180.659129 45.521895 
L 181.806256 45.521895 
L 181.806256 37.6356 
L 182.953382 37.6356 
L 182.953382 42.220655 
L 184.100508 42.220655 
L 184.100508 33.967555 
L 185.247634 33.967555 
L 185.247634 41.853851 
L 186.39476 41.853851 
L 186.39476 41.120242 
L 187.541886 41.120242 
L 187.541886 32.867142 
L 188.689013 32.867142 
L 188.689013 32.316935 
L 189.836139 32.316935 
L 189.836139 28.832293 
L 190.983265 28.832293 
L 190.983265 30.666315 
L 192.130391 30.666315 
L 192.130391 33.784153 
L 193.277517 33.784153 
L 193.277517 39.836426 
L 194.424643 39.836426 
L 194.424643 46.072102 
L 195.57177 46.072102 
L 195.57177 33.967555 
L 196.718896 33.967555 
L 196.718896 36.351784 
L 197.866022 36.351784 
L 197.866022 44.23808 
L 199.013148 44.23808 
L 199.013148 29.382499 
L 200.160274 29.382499 
L 200.160274 29.749304 
L 201.3074 29.749304 
L 201.3074 40.753437 
L 202.454527 40.753437 
L 202.454527 29.565902 
L 203.601653 29.565902 
L 203.601653 38.919415 
L 204.748779 38.919415 
L 204.748779 37.452197 
L 205.895905 37.452197 
L 205.895905 38.919415 
L 207.043031 38.919415 
L 207.043031 35.434773 
L 208.190157 35.434773 
L 208.190157 43.137666 
L 209.337284 43.137666 
L 209.337284 25.164248 
L 210.48441 25.164248 
L 210.48441 25.714455 
L 211.631536 25.714455 
L 211.631536 33.967555 
L 212.778662 33.967555 
L 212.778662 18.561768 
L 213.925788 18.561768 
L 213.925788 33.050544 
L 215.072914 33.050544 
L 215.072914 42.404057 
L 216.220041 42.404057 
L 216.220041 30.482913 
L 217.367167 30.482913 
L 217.367167 28.098684 
L 218.514293 28.098684 
L 218.514293 35.618175 
L 219.661419 35.618175 
L 219.661419 37.268795 
L 220.808545 37.268795 
L 220.808545 24.247237 
L 221.955671 24.247237 
L 221.955671 24.797444 
L 223.102798 24.797444 
L 223.102798 33.600751 
L 224.249924 33.600751 
L 224.249924 43.504471 
L 225.39705 43.504471 
L 225.39705 31.216522 
L 226.544176 31.216522 
L 226.544176 41.120242 
L 227.691302 41.120242 
L 227.691302 33.967555 
L 228.838428 33.967555 
L 228.838428 33.050544 
L 229.985555 33.050544 
L 229.985555 40.203231 
L 231.132681 40.203231 
L 231.132681 29.199097 
L 232.279807 29.199097 
L 232.279807 34.517762 
L 233.426933 34.517762 
L 233.426933 42.58746 
L 234.574059 42.58746 
L 234.574059 25.714455 
L 235.721185 25.714455 
L 235.721185 32.867142 
L 236.868312 32.867142 
L 236.868312 36.535186 
L 238.015438 36.535186 
L 238.015438 28.465488 
L 239.162564 28.465488 
L 239.162564 26.264661 
L 240.30969 26.264661 
L 240.30969 31.399924 
L 241.456816 31.399924 
L 241.456816 30.666315 
L 242.603942 30.666315 
L 242.603942 41.670449 
L 243.751069 41.670449 
L 243.751069 25.164248 
L 244.898195 25.164248 
L 244.898195 41.670449 
L 246.045321 41.670449 
L 246.045321 38.552611 
L 247.192447 38.552611 
L 247.192447 35.251371 
L 248.339573 35.251371 
L 248.339573 34.150957 
L 249.486699 34.150957 
L 249.486699 27.365075 
L 250.633826 27.365075 
L 250.633826 32.683739 
L 251.780952 32.683739 
L 251.780952 38.919415 
L 252.928078 38.919415 
L 252.928078 28.465488 
L 254.075204 28.465488 
L 254.075204 36.718588 
L 255.22233 36.718588 
L 255.22233 44.604884 
L 256.369456 44.604884 
L 256.369456 37.268795 
L 257.516583 37.268795 
L 257.516583 25.531053 
L 258.663709 25.531053 
L 258.663709 31.766728 
L 259.810835 31.766728 
L 259.810835 41.853851 
L 260.957961 41.853851 
L 260.957961 38.736013 
L 262.105087 38.736013 
L 262.105087 29.565902 
L 263.252213 29.565902 
L 263.252213 26.264661 
L 264.39934 26.264661 
L 264.39934 26.081259 
L 265.546466 26.081259 
L 265.546466 34.150957 
L 266.693592 34.150957 
L 266.693592 41.670449 
L 267.840718 41.670449 
L 267.840718 31.583326 
L 268.987844 31.583326 
L 268.987844 35.434773 
L 270.13497 35.434773 
L 270.13497 49.18994 
L 271.282097 49.18994 
L 271.282097 58.360051 
L 272.429223 58.360051 
L 272.429223 71.381609 
L 273.576349 71.381609 
L 273.576349 78.901101 
L 274.723475 78.901101 
L 274.723475 75.599861 
L 275.870601 75.599861 
L 275.870601 95.957508 
L 277.017727 95.957508 
L 277.017727 99.808954 
L 278.164854 99.808954 
L 278.164854 104.577412 
L 279.31198 104.577412 
L 279.31198 113.197317 
L 280.459106 113.197317 
L 280.459106 126.218875 
L 281.606232 126.218875 
L 281.606232 137.773215 
L 282.753358 137.773215 
L 282.753358 137.956618 
L 283.900484 137.956618 
L 283.900484 145.842913 
L 285.047611 145.842913 
L 285.047611 145.109304 
L 286.194737 145.109304 
L 286.194737 154.279416 
L 287.341863 154.279416 
L 287.341863 163.999734 
L 288.488989 163.999734 
L 288.488989 162.899321 
L 289.636115 162.899321 
L 289.636115 164.916745 
L 290.783241 164.916745 
L 290.783241 173.53665 
L 291.930368 173.53665 
L 291.930368 173.169845 
L 293.077494 173.169845 
L 293.077494 181.239543 
L 294.22462 181.239543 
L 294.22462 178.121705 
L 295.371746 178.121705 
L 295.371746 185.824599 
L 296.518872 185.824599 
L 296.518872 188.575632 
L 297.665998 188.575632 
L 297.665998 195.178112 
L 298.813125 195.178112 
L 298.813125 191.876872 
L 299.960251 191.876872 
L 299.960251 198.662755 
L 301.107377 198.662755 
L 301.107377 200.680179 
L 302.254503 200.680179 
L 302.254503 209.666888 
L 303.401629 209.666888 
L 303.401629 207.649464 
L 304.548755 207.649464 
L 304.548755 208.749877 
L 305.695882 208.749877 
L 305.695882 211.867715 
L 306.843008 211.867715 
L 306.843008 209.116682 
L 307.990134 209.116682 
L 307.990134 208.933279 
L 309.13726 208.933279 
L 309.13726 215.53576 
L 310.284386 215.53576 
L 310.284386 219.387206 
L 311.431512 219.387206 
L 311.431512 221.404631 
L 312.578639 221.404631 
L 312.578639 222.13824 
L 313.725765 222.13824 
L 313.725765 219.937413 
L 314.872891 219.937413 
L 314.872891 218.837 
L 316.020017 218.837 
L 316.020017 223.055251 
L 317.167143 223.055251 
L 317.167143 226.356491 
L 318.314269 226.356491 
L 318.314269 226.723295 
L 319.461396 226.723295 
L 319.461396 229.657731 
L 320.608522 229.657731 
L 320.608522 229.474329 
L 321.755648 229.474329 
L 321.755648 230.207938 
L 322.902774 230.207938 
L 322.902774 230.941547 
L 324.0499 230.941547 
L 324.0499 232.408764 
L 325.197026 232.408764 
L 325.197026 231.308351 
L 326.344153 231.308351 
L 326.344153 234.059385 
L 327.491279 234.059385 
L 327.491279 230.024536 
L 328.638405 230.024536 
L 328.638405 231.858558 
L 329.785531 231.858558 
L 329.785531 229.474329 
L 330.932657 229.474329 
L 330.932657 235.710005 
L 332.079783 235.710005 
L 332.079783 235.159798 
L 333.22691 235.159798 
L 333.22691 235.526602 
L 334.374036 235.526602 
L 334.374036 236.810418 
L 335.521162 236.810418 
L 335.521162 239.194647 
L 336.668288 239.194647 
L 336.668288 238.277636 
L 337.815414 238.277636 
L 337.815414 236.627016 
L 338.96254 236.627016 
L 338.96254 236.99382 
L 340.109667 236.99382 
L 340.109667 238.277636 
L 341.256793 238.277636 
L 341.256793 238.64444 
L 342.403919 238.64444 
L 342.403919 239.561451 
L 343.551045 239.561451 
L 343.551045 239.744854 
L 344.698171 239.744854 
L 344.698171 239.378049 
L 345.845297 239.378049 
L 345.845297 240.661865 
L 346.992424 240.661865 
L 346.992424 240.111658 
L 348.13955 240.111658 
L 348.13955 242.862691 
L 349.286676 242.862691 
L 349.286676 241.762278 
L 350.433802 241.762278 
L 350.433802 240.661865 
L 351.580928 240.661865 
L 351.580928 241.762278 
L 352.728054 241.762278 
L 352.728054 242.129083 
L 353.875181 242.129083 
L 353.875181 241.94568 
L 356.169433 241.94568 
L 356.169433 240.111658 
L 357.316559 240.111658 
L 357.316559 242.495887 
L 358.463685 242.495887 
L 358.463685 243.5963 
L 359.610811 243.5963 
L 359.610811 243.046094 
L 360.757938 243.046094 
L 360.757938 242.312485 
L 361.905064 242.312485 
L 361.905064 244.513311 
L 363.05219 244.513311 
L 363.05219 243.229496 
L 364.199316 243.229496 
L 364.199316 244.329909 
L 365.346442 244.329909 
L 365.346442 242.862691 
L 366.493568 242.862691 
L 366.493568 244.329909 
L 367.640695 244.329909 
L 367.640695 243.779703 
L 368.787821 243.779703 
L 368.787821 243.412898 
L 371.082073 243.412898 
L 371.082073 244.329909 
L 372.229199 244.329909 
L 372.229199 244.880116 
L 373.376325 244.880116 
L 373.376325 244.513311 
L 374.523452 244.513311 
L 374.523452 243.779703 
L 375.670578 243.779703 
L 375.670578 244.880116 
L 377.96483 244.880116 
L 377.96483 244.513311 
L 379.111956 244.513311 
L 379.111956 245.24692 
L 380.259082 245.24692 
L 380.259082 244.880116 
L 382.553335 244.880116 
L 382.553335 245.430323 
L 384.847587 245.430323 
L 384.847587 244.513311 
L 385.994713 244.513311 
L 385.994713 244.146507 
L 387.141839 244.146507 
L 387.141839 245.063518 
L 388.288966 245.063518 
L 388.288966 245.430323 
L 389.436092 245.430323 
L 389.436092 244.880116 
L 390.583218 244.880116 
L 390.583218 245.797127 
L 391.730344 245.797127 
L 391.730344 245.613725 
L 392.87747 245.613725 
L 392.87747 245.063518 
L 394.024596 245.063518 
L 394.024596 244.513311 
L 395.171723 244.513311 
L 395.171723 244.880116 
L 396.318849 244.880116 
L 396.318849 244.696714 
L 397.465975 244.696714 
L 397.465975 245.24692 
L 399.760227 245.24692 
L 399.760227 244.880116 
L 400.907353 244.880116 
L 400.907353 245.430323 
L 402.05448 245.430323 
L 402.05448 245.613725 
L 403.201606 245.613725 
L 403.201606 245.430323 
L 404.348732 245.430323 
L 404.348732 245.797127 
L 405.495858 245.797127 
L 405.495858 245.063518 
L 406.642984 245.063518 
L 406.642984 245.430323 
L 407.79011 245.430323 
L 407.79011 245.24692 
L 408.937237 245.24692 
L 408.937237 245.613725 
L 410.084363 245.613725 
L 410.084363 245.24692 
L 411.231489 245.24692 
L 411.231489 245.797127 
L 412.378615 245.797127 
L 412.378615 245.613725 
L 413.525741 245.613725 
L 413.525741 245.063518 
L 414.672867 245.063518 
L 414.672867 245.063518 
" clip-path="url(#p4e01e7c9dc)" style="fill: none; stroke: #1f77b4; stroke-width: 1.5; stroke-linecap: square"/>
   </g>
  </g>
  <g id="axes_2">
   <g id="patch_7">
    <path d="M 486.647885 257.158895 
L 865.19952 257.158895 
L 865.19952 7.2 
L 486.647885 7.2 
z
" style="fill: #ffffff"/>
   </g>
   <g id="matplotlib.axis_3">
    <g id="xtick_7">
     <g id="line2d_15">
      <g>
       <use xlink:href="#m7e2cdaafbc" x="500.373767" y="257.158895" style="stroke: #000000; stroke-width: 0.8"/>
      </g>
     </g>
     <g id="text_16">
      <!-- 0.0 -->
      <g transform="translate(492.422205 271.757332) scale(0.1 -0.1)">
       <defs>
        <path id="DejaVuSans-2e" d="M 684 794 
L 1344 794 
L 1344 0 
L 684 0 
L 684 794 
z
" transform="scale(0.015625)"/>
       </defs>
       <use xlink:href="#DejaVuSans-30"/>
       <use xlink:href="#DejaVuSans-2e" transform="translate(63.623047 0)"/>
       <use xlink:href="#DejaVuSans-30" transform="translate(95.410156 0)"/>
      </g>
     </g>
    </g>
    <g id="xtick_8">
     <g id="line2d_16">
      <g>
       <use xlink:href="#m7e2cdaafbc" x="544.202167" y="257.158895" style="stroke: #000000; stroke-width: 0.8"/>
      </g>
     </g>
     <g id="text_17">
      <!-- 2.5 -->
      <g transform="translate(536.250605 271.757332) scale(0.1 -0.1)">
       <use xlink:href="#DejaVuSans-32"/>
       <use xlink:href="#DejaVuSans-2e" transform="translate(63.623047 0)"/>
       <use xlink:href="#DejaVuSans-35" transform="translate(95.410156 0)"/>
      </g>
     </g>
    </g>
    <g id="xtick_9">
     <g id="line2d_17">
      <g>
       <use xlink:href="#m7e2cdaafbc" x="588.030567" y="257.158895" style="stroke: #000000; stroke-width: 0.8"/>
      </g>
     </g>
     <g id="text_18">
      <!-- 5.0 -->
      <g transform="translate(580.079005 271.757332) scale(0.1 -0.1)">
       <use xlink:href="#DejaVuSans-35"/>
       <use xlink:href="#DejaVuSans-2e" transform="translate(63.623047 0)"/>
       <use xlink:href="#DejaVuSans-30" transform="translate(95.410156 0)"/>
      </g>
     </g>
    </g>
    <g id="xtick_10">
     <g id="line2d_18">
      <g>
       <use xlink:href="#m7e2cdaafbc" x="631.858967" y="257.158895" style="stroke: #000000; stroke-width: 0.8"/>
      </g>
     </g>
     <g id="text_19">
      <!-- 7.5 -->
      <g transform="translate(623.907405 271.757332) scale(0.1 -0.1)">
       <defs>
        <path id="DejaVuSans-37" d="M 525 4666 
L 3525 4666 
L 3525 4397 
L 1831 0 
L 1172 0 
L 2766 4134 
L 525 4134 
L 525 4666 
z
" transform="scale(0.015625)"/>
       </defs>
       <use xlink:href="#DejaVuSans-37"/>
       <use xlink:href="#DejaVuSans-2e" transform="translate(63.623047 0)"/>
       <use xlink:href="#DejaVuSans-35" transform="translate(95.410156 0)"/>
      </g>
     </g>
    </g>
    <g id="xtick_11">
     <g id="line2d_19">
      <g>
       <use xlink:href="#m7e2cdaafbc" x="675.687367" y="257.158895" style="stroke: #000000; stroke-width: 0.8"/>
      </g>
     </g>
     <g id="text_20">
      <!-- 10.0 -->
      <g transform="translate(664.554554 271.757332) scale(0.1 -0.1)">
       <use xlink:href="#DejaVuSans-31"/>
       <use xlink:href="#DejaVuSans-30" transform="translate(63.623047 0)"/>
       <use xlink:href="#DejaVuSans-2e" transform="translate(127.246094 0)"/>
       <use xlink:href="#DejaVuSans-30" transform="translate(159.033203 0)"/>
      </g>
     </g>
    </g>
    <g id="xtick_12">
     <g id="line2d_20">
      <g>
       <use xlink:href="#m7e2cdaafbc" x="719.515767" y="257.158895" style="stroke: #000000; stroke-width: 0.8"/>
      </g>
     </g>
     <g id="text_21">
      <!-- 12.5 -->
      <g transform="translate(708.382954 271.757332) scale(0.1 -0.1)">
       <use xlink:href="#DejaVuSans-31"/>
       <use xlink:href="#DejaVuSans-32" transform="translate(63.623047 0)"/>
       <use xlink:href="#DejaVuSans-2e" transform="translate(127.246094 0)"/>
       <use xlink:href="#DejaVuSans-35" transform="translate(159.033203 0)"/>
      </g>
     </g>
    </g>
    <g id="xtick_13">
     <g id="line2d_21">
      <g>
       <use xlink:href="#m7e2cdaafbc" x="763.344167" y="257.158895" style="stroke: #000000; stroke-width: 0.8"/>
      </g>
     </g>
     <g id="text_22">
      <!-- 15.0 -->
      <g transform="translate(752.211354 271.757332) scale(0.1 -0.1)">
       <use xlink:href="#DejaVuSans-31"/>
       <use xlink:href="#DejaVuSans-35" transform="translate(63.623047 0)"/>
       <use xlink:href="#DejaVuSans-2e" transform="translate(127.246094 0)"/>
       <use xlink:href="#DejaVuSans-30" transform="translate(159.033203 0)"/>
      </g>
     </g>
    </g>
    <g id="xtick_14">
     <g id="line2d_22">
      <g>
       <use xlink:href="#m7e2cdaafbc" x="807.172567" y="257.158895" style="stroke: #000000; stroke-width: 0.8"/>
      </g>
     </g>
     <g id="text_23">
      <!-- 17.5 -->
      <g transform="translate(796.039754 271.757332) scale(0.1 -0.1)">
       <use xlink:href="#DejaVuSans-31"/>
       <use xlink:href="#DejaVuSans-37" transform="translate(63.623047 0)"/>
       <use xlink:href="#DejaVuSans-2e" transform="translate(127.246094 0)"/>
       <use xlink:href="#DejaVuSans-35" transform="translate(159.033203 0)"/>
      </g>
     </g>
    </g>
    <g id="xtick_15">
     <g id="line2d_23">
      <g>
       <use xlink:href="#m7e2cdaafbc" x="851.000966" y="257.158895" style="stroke: #000000; stroke-width: 0.8"/>
      </g>
     </g>
     <g id="text_24">
      <!-- 20.0 -->
      <g transform="translate(839.868154 271.757332) scale(0.1 -0.1)">
       <use xlink:href="#DejaVuSans-32"/>
       <use xlink:href="#DejaVuSans-30" transform="translate(63.623047 0)"/>
       <use xlink:href="#DejaVuSans-2e" transform="translate(127.246094 0)"/>
       <use xlink:href="#DejaVuSans-30" transform="translate(159.033203 0)"/>
      </g>
     </g>
    </g>
    <g id="text_25">
     <!-- wavelength [Å] -->
     <g transform="translate(637.886202 287.119832) scale(0.1 -0.1)">
      <defs>
       <path id="DejaVuSans-77" d="M 269 3500 
L 844 3500 
L 1563 769 
L 2278 3500 
L 2956 3500 
L 3675 769 
L 4391 3500 
L 4966 3500 
L 4050 0 
L 3372 0 
L 2619 2869 
L 1863 0 
L 1184 0 
L 269 3500 
z
" transform="scale(0.015625)"/>
       <path id="DejaVuSans-61" d="M 2194 1759 
Q 1497 1759 1228 1600 
Q 959 1441 959 1056 
Q 959 750 1161 570 
Q 1363 391 1709 391 
Q 2188 391 2477 730 
Q 2766 1069 2766 1631 
L 2766 1759 
L 2194 1759 
z
M 3341 1997 
L 3341 0 
L 2766 0 
L 2766 531 
Q 2569 213 2275 61 
Q 1981 -91 1556 -91 
Q 1019 -91 701 211 
Q 384 513 384 1019 
Q 384 1609 779 1909 
Q 1175 2209 1959 2209 
L 2766 2209 
L 2766 2266 
Q 2766 2663 2505 2880 
Q 2244 3097 1772 3097 
Q 1472 3097 1187 3025 
Q 903 2953 641 2809 
L 641 3341 
Q 956 3463 1253 3523 
Q 1550 3584 1831 3584 
Q 2591 3584 2966 3190 
Q 3341 2797 3341 1997 
z
" transform="scale(0.015625)"/>
       <path id="DejaVuSans-76" d="M 191 3500 
L 800 3500 
L 1894 563 
L 2988 3500 
L 3597 3500 
L 2284 0 
L 1503 0 
L 191 3500 
z
" transform="scale(0.015625)"/>
       <path id="DejaVuSans-6c" d="M 603 4863 
L 1178 4863 
L 1178 0 
L 603 0 
L 603 4863 
z
" transform="scale(0.015625)"/>
       <path id="DejaVuSans-67" d="M 2906 1791 
Q 2906 2416 2648 2759 
Q 2391 3103 1925 3103 
Q 1463 3103 1205 2759 
Q 947 2416 947 1791 
Q 947 1169 1205 825 
Q 1463 481 1925 481 
Q 2391 481 2648 825 
Q 2906 1169 2906 1791 
z
M 3481 434 
Q 3481 -459 3084 -895 
Q 2688 -1331 1869 -1331 
Q 1566 -1331 1297 -1286 
Q 1028 -1241 775 -1147 
L 775 -588 
Q 1028 -725 1275 -790 
Q 1522 -856 1778 -856 
Q 2344 -856 2625 -561 
Q 2906 -266 2906 331 
L 2906 616 
Q 2728 306 2450 153 
Q 2172 0 1784 0 
Q 1141 0 747 490 
Q 353 981 353 1791 
Q 353 2603 747 3093 
Q 1141 3584 1784 3584 
Q 2172 3584 2450 3431 
Q 2728 3278 2906 2969 
L 2906 3500 
L 3481 3500 
L 3481 434 
z
" transform="scale(0.015625)"/>
       <path id="DejaVuSans-68" d="M 3513 2113 
L 3513 0 
L 2938 0 
L 2938 2094 
Q 2938 2591 2744 2837 
Q 2550 3084 2163 3084 
Q 1697 3084 1428 2787 
Q 1159 2491 1159 1978 
L 1159 0 
L 581 0 
L 581 4863 
L 1159 4863 
L 1159 2956 
Q 1366 3272 1645 3428 
Q 1925 3584 2291 3584 
Q 2894 3584 3203 3211 
Q 3513 2838 3513 2113 
z
" transform="scale(0.015625)"/>
       <path id="DejaVuSans-c5" d="M 2663 5081 
Q 2663 5278 2523 5417 
Q 2384 5556 2188 5556 
Q 1988 5556 1852 5420 
Q 1716 5284 1716 5081 
Q 1716 4884 1853 4746 
Q 1991 4609 2188 4609 
Q 2384 4609 2523 4746 
Q 2663 4884 2663 5081 
z
M 2188 4044 
L 1338 1722 
L 3041 1722 
L 2188 4044 
z
M 1716 4366 
Q 1525 4494 1428 4673 
Q 1331 4853 1331 5081 
Q 1331 5441 1579 5691 
Q 1828 5941 2188 5941 
Q 2544 5941 2795 5689 
Q 3047 5438 3047 5081 
Q 3047 4863 2948 4678 
Q 2850 4494 2663 4366 
L 4325 0 
L 3669 0 
L 3244 1197 
L 1141 1197 
L 716 0 
L 50 0 
L 1716 4366 
z
" transform="scale(0.015625)"/>
      </defs>
      <use xlink:href="#DejaVuSans-77"/>
      <use xlink:href="#DejaVuSans-61" transform="translate(81.787109 0)"/>
      <use xlink:href="#DejaVuSans-76" transform="translate(143.066406 0)"/>
      <use xlink:href="#DejaVuSans-65" transform="translate(202.246094 0)"/>
      <use xlink:href="#DejaVuSans-6c" transform="translate(263.769531 0)"/>
      <use xlink:href="#DejaVuSans-65" transform="translate(291.552734 0)"/>
      <use xlink:href="#DejaVuSans-6e" transform="translate(353.076172 0)"/>
      <use xlink:href="#DejaVuSans-67" transform="translate(416.455078 0)"/>
      <use xlink:href="#DejaVuSans-74" transform="translate(479.931641 0)"/>
      <use xlink:href="#DejaVuSans-68" transform="translate(519.140625 0)"/>
      <use xlink:href="#DejaVuSans-20" transform="translate(582.519531 0)"/>
      <use xlink:href="#DejaVuSans-5b" transform="translate(614.306641 0)"/>
      <use xlink:href="#DejaVuSans-c5" transform="translate(653.320312 0)"/>
      <use xlink:href="#DejaVuSans-5d" transform="translate(721.728516 0)"/>
     </g>
    </g>
   </g>
   <g id="matplotlib.axis_4">
    <g id="ytick_8">
     <g id="line2d_24">
      <g>
       <use xlink:href="#m4b044f852a" x="486.647885" y="245.797127" style="stroke: #000000; stroke-width: 0.8"/>
      </g>
     </g>
     <g id="text_26">
      <!-- 0 -->
      <g transform="translate(473.285385 249.596346) scale(0.1 -0.1)">
       <use xlink:href="#DejaVuSans-30"/>
      </g>
     </g>
    </g>
    <g id="ytick_9">
     <g id="line2d_25">
      <g>
       <use xlink:href="#m4b044f852a" x="486.647885" y="192.039058" style="stroke: #000000; stroke-width: 0.8"/>
      </g>
     </g>
     <g id="text_27">
      <!-- 1000 -->
      <g transform="translate(454.197885 195.838276) scale(0.1 -0.1)">
       <use xlink:href="#DejaVuSans-31"/>
       <use xlink:href="#DejaVuSans-30" transform="translate(63.623047 0)"/>
       <use xlink:href="#DejaVuSans-30" transform="translate(127.246094 0)"/>
       <use xlink:href="#DejaVuSans-30" transform="translate(190.869141 0)"/>
      </g>
     </g>
    </g>
    <g id="ytick_10">
     <g id="line2d_26">
      <g>
       <use xlink:href="#m4b044f852a" x="486.647885" y="138.280988" style="stroke: #000000; stroke-width: 0.8"/>
      </g>
     </g>
     <g id="text_28">
      <!-- 2000 -->
      <g transform="translate(454.197885 142.080207) scale(0.1 -0.1)">
       <use xlink:href="#DejaVuSans-32"/>
       <use xlink:href="#DejaVuSans-30" transform="translate(63.623047 0)"/>
       <use xlink:href="#DejaVuSans-30" transform="translate(127.246094 0)"/>
       <use xlink:href="#DejaVuSans-30" transform="translate(190.869141 0)"/>
      </g>
     </g>
    </g>
    <g id="ytick_11">
     <g id="line2d_27">
      <g>
       <use xlink:href="#m4b044f852a" x="486.647885" y="84.522919" style="stroke: #000000; stroke-width: 0.8"/>
      </g>
     </g>
     <g id="text_29">
      <!-- 3000 -->
      <g transform="translate(454.197885 88.322138) scale(0.1 -0.1)">
       <use xlink:href="#DejaVuSans-33"/>
       <use xlink:href="#DejaVuSans-30" transform="translate(63.623047 0)"/>
       <use xlink:href="#DejaVuSans-30" transform="translate(127.246094 0)"/>
       <use xlink:href="#DejaVuSans-30" transform="translate(190.869141 0)"/>
      </g>
     </g>
    </g>
    <g id="ytick_12">
     <g id="line2d_28">
      <g>
       <use xlink:href="#m4b044f852a" x="486.647885" y="30.76485" style="stroke: #000000; stroke-width: 0.8"/>
      </g>
     </g>
     <g id="text_30">
      <!-- 4000 -->
      <g transform="translate(454.197885 34.564068) scale(0.1 -0.1)">
       <use xlink:href="#DejaVuSans-34"/>
       <use xlink:href="#DejaVuSans-30" transform="translate(63.623047 0)"/>
       <use xlink:href="#DejaVuSans-30" transform="translate(127.246094 0)"/>
       <use xlink:href="#DejaVuSans-30" transform="translate(190.869141 0)"/>
      </g>
     </g>
    </g>
    <g id="text_31">
     <!-- [counts] -->
     <g transform="translate(448.118197 152.791947) rotate(-90) scale(0.1 -0.1)">
      <use xlink:href="#DejaVuSans-5b"/>
      <use xlink:href="#DejaVuSans-63" transform="translate(39.013672 0)"/>
      <use xlink:href="#DejaVuSans-6f" transform="translate(93.994141 0)"/>
      <use xlink:href="#DejaVuSans-75" transform="translate(155.175781 0)"/>
      <use xlink:href="#DejaVuSans-6e" transform="translate(218.554688 0)"/>
      <use xlink:href="#DejaVuSans-74" transform="translate(281.933594 0)"/>
      <use xlink:href="#DejaVuSans-73" transform="translate(321.142578 0)"/>
      <use xlink:href="#DejaVuSans-5d" transform="translate(373.242188 0)"/>
     </g>
    </g>
   </g>
   <g id="patch_8">
    <path d="M 486.647885 257.158895 
L 486.647885 7.2 
" style="fill: none; stroke: #000000; stroke-width: 0.8; stroke-linejoin: miter; stroke-linecap: square"/>
   </g>
   <g id="patch_9">
    <path d="M 865.19952 257.158895 
L 865.19952 7.2 
" style="fill: none; stroke: #000000; stroke-width: 0.8; stroke-linejoin: miter; stroke-linecap: square"/>
   </g>
   <g id="patch_10">
    <path d="M 486.647885 257.158895 
L 865.19952 257.158895 
" style="fill: none; stroke: #000000; stroke-width: 0.8; stroke-linejoin: miter; stroke-linecap: square"/>
   </g>
   <g id="patch_11">
    <path d="M 486.647885 7.2 
L 865.19952 7.2 
" style="fill: none; stroke: #000000; stroke-width: 0.8; stroke-linejoin: miter; stroke-linecap: square"/>
   </g>
   <g id="line2d_29">
    <path d="M 503.854777 156.3437 
L 505.001904 156.3437 
L 505.001904 145.215779 
L 506.14903 145.215779 
L 506.14903 137.68965 
L 507.296156 137.68965 
L 507.296156 139.087359 
L 508.443282 139.087359 
L 508.443282 142.904182 
L 509.590408 142.904182 
L 509.590408 150.75286 
L 510.737534 150.75286 
L 510.737534 146.129666 
L 511.884661 146.129666 
L 511.884661 127.798165 
L 513.031787 127.798165 
L 513.031787 106.079905 
L 514.178913 106.079905 
L 514.178913 79.415902 
L 515.326039 79.415902 
L 515.326039 56.568723 
L 516.473165 56.568723 
L 516.473165 26.356688 
L 517.620291 26.356688 
L 517.620291 19.260623 
L 518.767418 19.260623 
L 518.767418 19.90572 
L 519.914544 19.90572 
L 519.914544 20.550817 
L 521.06167 20.550817 
L 521.06167 18.561768 
L 522.208796 18.561768 
L 522.208796 25.227769 
L 523.355922 25.227769 
L 523.355922 33.990334 
L 524.503048 33.990334 
L 524.503048 42.967931 
L 525.650175 42.967931 
L 525.650175 54.257126 
L 526.797301 54.257126 
L 526.797301 68.986837 
L 527.944427 68.986837 
L 527.944427 74.846467 
L 529.091553 74.846467 
L 529.091553 79.469661 
L 530.238679 79.469661 
L 530.238679 91.565226 
L 531.385805 91.565226 
L 531.385805 92.102807 
L 532.532932 92.102807 
L 532.532932 90.490065 
L 533.680058 90.490065 
L 533.680058 93.715549 
L 534.827184 93.715549 
L 534.827184 93.446759 
L 535.97431 93.446759 
L 535.97431 85.759355 
L 537.121436 85.759355 
L 537.121436 80.114757 
L 538.268562 80.114757 
L 538.268562 78.125709 
L 539.415689 78.125709 
L 539.415689 70.115756 
L 540.562815 70.115756 
L 540.562815 56.998788 
L 541.709941 56.998788 
L 541.709941 49.902722 
L 542.857067 49.902722 
L 542.857067 38.882318 
L 544.004193 38.882318 
L 544.004193 29.474656 
L 545.151319 29.474656 
L 545.151319 31.194914 
L 546.298446 31.194914 
L 546.298446 36.785753 
L 547.445572 36.785753 
L 547.445572 46.300932 
L 548.592698 46.300932 
L 548.592698 57.267578 
L 549.739824 57.267578 
L 549.739824 62.535869 
L 550.88695 62.535869 
L 550.88695 79.469661 
L 552.034076 79.469661 
L 552.034076 82.53387 
L 553.181203 82.53387 
L 553.181203 93.823065 
L 554.328329 93.823065 
L 554.328329 100.65034 
L 555.475455 100.65034 
L 555.475455 110.004244 
L 556.622581 110.004244 
L 556.622581 111.939534 
L 557.769707 111.939534 
L 557.769707 122.476116 
L 558.916833 122.476116 
L 558.916833 129.410907 
L 560.06396 129.410907 
L 560.06396 137.098311 
L 561.211086 137.098311 
L 561.211086 136.184424 
L 562.358212 136.184424 
L 562.358212 146.075908 
L 563.505338 146.075908 
L 563.505338 148.333747 
L 564.652464 148.333747 
L 564.652464 153.494522 
L 565.79959 153.494522 
L 565.79959 154.838474 
L 566.946717 154.838474 
L 566.946717 163.0097 
L 568.093843 163.0097 
L 568.093843 165.375055 
L 569.240969 165.375055 
L 569.240969 171.664749 
L 570.388095 171.664749 
L 570.388095 174.352653 
L 571.535221 174.352653 
L 571.535221 178.115718 
L 572.682347 178.115718 
L 572.682347 182.523879 
L 573.829474 182.523879 
L 573.829474 183.168976 
L 574.9766 183.168976 
L 574.9766 187.25459 
L 576.123726 187.25459 
L 576.123726 188.383509 
L 577.270852 188.383509 
L 577.270852 190.533832 
L 578.417978 190.533832 
L 578.417978 195.909639 
L 579.565104 195.909639 
L 579.565104 198.221236 
L 580.712231 198.221236 
L 580.712231 201.231688 
L 581.859357 201.231688 
L 581.859357 202.521881 
L 583.006483 202.521881 
L 583.006483 205.639849 
L 584.153609 205.639849 
L 584.153609 205.317301 
L 586.447861 205.371059 
L 586.447861 209.617946 
L 588.742114 209.617946 
L 588.742114 211.338205 
L 589.88924 211.338205 
L 589.88924 213.918592 
L 591.036366 213.918592 
L 591.036366 216.660253 
L 592.183492 216.660253 
L 592.183492 215.746366 
L 593.330618 215.746366 
L 593.330618 217.627899 
L 594.477745 217.627899 
L 594.477745 219.348157 
L 595.624871 219.348157 
L 595.624871 220.799625 
L 596.771997 220.799625 
L 596.771997 221.122173 
L 597.919123 221.122173 
L 597.919123 222.412367 
L 599.066249 222.412367 
L 599.066249 223.16498 
L 600.213375 223.16498 
L 600.213375 222.89619 
L 601.360502 222.89619 
L 601.360502 222.573641 
L 602.507628 222.573641 
L 602.507628 225.10027 
L 603.654754 225.10027 
L 603.654754 224.83148 
L 604.80188 224.83148 
L 604.80188 228.003206 
L 605.949006 228.003206 
L 605.949006 227.788174 
L 607.096132 227.788174 
L 607.096132 229.454674 
L 608.243259 229.454674 
L 608.243259 229.078367 
L 609.390385 229.078367 
L 609.390385 230.744868 
L 610.537511 230.744868 
L 610.537511 229.454674 
L 611.684637 229.454674 
L 611.684637 231.551239 
L 612.831763 231.551239 
L 612.831763 232.196336 
L 613.978889 232.196336 
L 613.978889 232.733916 
L 616.273142 232.680158 
L 616.273142 233.486529 
L 617.420268 233.486529 
L 617.420268 231.658755 
L 618.567394 231.658755 
L 618.567394 234.454174 
L 619.71452 234.454174 
L 619.71452 235.206787 
L 622.008773 235.260545 
L 622.008773 235.636852 
L 623.155899 235.636852 
L 623.155899 235.9594 
L 624.303025 235.9594 
L 624.303025 237.034562 
L 625.450151 237.034562 
L 625.450151 235.9594 
L 626.597277 235.9594 
L 626.597277 237.787175 
L 627.744403 237.787175 
L 627.744403 238.701062 
L 628.89153 238.701062 
L 628.89153 237.034562 
L 630.038656 237.034562 
L 630.038656 237.410868 
L 631.185782 237.410868 
L 631.185782 238.163481 
L 633.480034 238.109723 
L 633.480034 237.410868 
L 634.62716 237.410868 
L 634.62716 238.647304 
L 635.774287 238.647304 
L 635.774287 238.324755 
L 636.921413 238.324755 
L 636.921413 239.077368 
L 638.068539 239.077368 
L 638.068539 239.292401 
L 639.215665 239.292401 
L 639.215665 238.593546 
L 640.362791 238.593546 
L 640.362791 239.776223 
L 641.509917 239.776223 
L 641.509917 239.399917 
L 642.657044 239.399917 
L 642.657044 239.937497 
L 643.80417 239.937497 
L 643.80417 240.367562 
L 646.098422 240.367562 
L 646.098422 240.69011 
L 647.245548 240.69011 
L 647.245548 240.905143 
L 650.686927 240.797627 
L 650.686927 239.883739 
L 651.834053 239.883739 
L 651.834053 240.743869 
L 652.981179 240.743869 
L 652.981179 241.281449 
L 654.128305 241.281449 
L 654.128305 242.195336 
L 655.275431 242.195336 
L 655.275431 241.496481 
L 656.422558 241.496481 
L 656.422558 242.732917 
L 657.569684 242.732917 
L 657.569684 241.442723 
L 658.71681 241.442723 
L 658.71681 242.249094 
L 659.863936 242.249094 
L 659.863936 241.388965 
L 661.011062 241.388965 
L 661.011062 242.08782 
L 662.158188 242.08782 
L 662.158188 241.872788 
L 663.305315 241.872788 
L 663.305315 243.001707 
L 664.452441 243.001707 
L 664.452441 242.410369 
L 665.599567 242.410369 
L 665.599567 242.249094 
L 667.893819 242.249094 
L 667.893819 242.08782 
L 671.335198 242.034062 
L 671.335198 242.732917 
L 672.482324 242.732917 
L 672.482324 243.270498 
L 673.62945 243.270498 
L 673.62945 244.130627 
L 674.776576 244.130627 
L 674.776576 243.270498 
L 675.923702 243.270498 
L 675.923702 243.539288 
L 679.365081 243.539288 
L 679.365081 243.324256 
L 680.512207 243.324256 
L 680.512207 242.894191 
L 682.806459 242.947949 
L 682.806459 243.324256 
L 683.953586 243.324256 
L 683.953586 243.861837 
L 686.247838 243.808078 
L 686.247838 243.539288 
L 687.394964 243.539288 
L 687.394964 244.023111 
L 690.836343 244.023111 
L 690.836343 243.700562 
L 691.983469 243.700562 
L 691.983469 244.184385 
L 693.130595 244.184385 
L 693.130595 243.969353 
L 694.277721 243.969353 
L 694.277721 244.130627 
L 696.571973 244.238143 
L 696.571973 243.646804 
L 697.7191 243.646804 
L 697.7191 244.023111 
L 700.013352 244.130627 
L 700.013352 244.345659 
L 704.601857 244.291901 
L 704.601857 244.076869 
L 705.748983 244.076869 
L 705.748983 244.506933 
L 706.896109 244.506933 
L 706.896109 244.936998 
L 708.043235 244.936998 
L 708.043235 244.238143 
L 709.190361 244.238143 
L 709.190361 244.399417 
L 710.337487 244.399417 
L 710.337487 244.775724 
L 711.484614 244.775724 
L 711.484614 245.044514 
L 712.63174 245.044514 
L 712.63174 244.668208 
L 714.925992 244.775724 
L 714.925992 244.829482 
L 718.367371 244.88324 
L 718.367371 244.668208 
L 719.514497 244.668208 
L 719.514497 245.098272 
L 720.661623 245.098272 
L 720.661623 244.506933 
L 721.808749 244.506933 
L 721.808749 244.936998 
L 726.397254 244.829482 
L 726.397254 244.61445 
L 728.691506 244.560691 
L 728.691506 245.15203 
L 730.985758 245.098272 
L 730.985758 244.936998 
L 732.132885 244.936998 
L 732.132885 245.15203 
L 733.280011 245.15203 
L 733.280011 244.990756 
L 734.427137 244.990756 
L 734.427137 245.420821 
L 735.574263 245.420821 
L 735.574263 244.990756 
L 737.868515 244.990756 
L 737.868515 245.367062 
L 739.015642 245.367062 
L 739.015642 244.936998 
L 742.45702 244.936998 
L 742.45702 244.775724 
L 743.604146 244.775724 
L 743.604146 245.044514 
L 744.751272 245.044514 
L 744.751272 245.259546 
L 747.045525 245.259546 
L 747.045525 244.829482 
L 748.192651 244.829482 
L 748.192651 245.420821 
L 749.339777 245.420821 
L 749.339777 245.205788 
L 751.634029 245.205788 
L 751.634029 245.044514 
L 752.781156 245.044514 
L 752.781156 245.205788 
L 753.928282 245.205788 
L 753.928282 245.474579 
L 755.075408 245.474579 
L 755.075408 245.044514 
L 756.222534 245.044514 
L 756.222534 245.259546 
L 763.105291 245.367062 
L 763.105291 245.528337 
L 764.252417 245.528337 
L 764.252417 245.313304 
L 768.840922 245.259546 
L 768.840922 245.528337 
L 771.135174 245.474579 
L 771.135174 245.259546 
L 772.2823 245.259546 
L 772.2823 245.474579 
L 780.312184 245.367062 
L 780.312184 245.313304 
L 781.45931 245.313304 
L 781.45931 245.474579 
L 787.194941 245.582095 
L 787.194941 245.635853 
L 789.489193 245.689611 
L 789.489193 245.420821 
L 791.783445 245.474579 
L 791.783445 245.582095 
L 818.167347 245.635853 
L 818.167347 245.743369 
L 819.314473 245.743369 
L 819.314473 245.528337 
L 821.608726 245.635853 
L 821.608726 245.743369 
L 833.079987 245.797127 
L 833.079987 245.582095 
L 835.37424 245.635853 
L 835.37424 245.743369 
L 838.815618 245.797127 
L 838.815618 245.582095 
L 839.962744 245.582095 
L 839.962744 245.743369 
L 847.992628 245.689611 
L 847.992628 245.689611 
" clip-path="url(#p4bd3a33080)" style="fill: none; stroke: #1f77b4; stroke-width: 1.5; stroke-linecap: square"/>
   </g>
  </g>
 </g>
 <defs>
  <clipPath id="p4e01e7c9dc">
   <rect x="53.328125" y="7.2" width="378.551635" height="249.958895"/>
  </clipPath>
  <clipPath id="p4bd3a33080">
   <rect x="486.647885" y="7.2" width="378.551635" height="249.958895"/>
  </clipPath>
 </defs>
</svg>
