<?xml version="1.0" encoding="utf-8" standalone="no"?>
<!DOCTYPE svg PUBLIC "-//W3C//DTD SVG 1.1//EN"
  "http://www.w3.org/Graphics/SVG/1.1/DTD/svg11.dtd">
<svg xmlns:xlink="http://www.w3.org/1999/xlink" width="388.965625pt" height="266.794375pt" viewBox="0 0 388.965625 266.794375" xmlns="http://www.w3.org/2000/svg" version="1.1">
 <metadata>
  <rdf:RDF xmlns:dc="http://purl.org/dc/elements/1.1/" xmlns:cc="http://creativecommons.org/ns#" xmlns:rdf="http://www.w3.org/1999/02/22-rdf-syntax-ns#">
   <cc:Work>
    <dc:type rdf:resource="http://purl.org/dc/dcmitype/StillImage"/>
    <dc:date>2025-02-17T17:52:53.211007</dc:date>
    <dc:format>image/svg+xml</dc:format>
    <dc:creator>
     <cc:Agent>
      <dc:title>Matplotlib v3.10.0, https://matplotlib.org/</dc:title>
     </cc:Agent>
    </dc:creator>
   </cc:Work>
  </rdf:RDF>
 </metadata>
 <defs>
  <style type="text/css">*{stroke-linejoin: round; stroke-linecap: butt}</style>
 </defs>
 <g id="figure_1">
  <g id="patch_1">
   <path d="M 0 266.794375 
L 388.965625 266.794375 
L 388.965625 0 
L 0 0 
z
" style="fill: #ffffff"/>
  </g>
  <g id="axes_1">
   <g id="patch_2">
    <path d="M 46.965625 228.96 
L 381.765625 228.96 
L 381.765625 7.2 
L 46.965625 7.2 
z
" style="fill: #ffffff"/>
   </g>
   <g id="matplotlib.axis_1">
    <g id="xtick_1">
     <g id="line2d_1">
      <defs>
       <path id="m564725cb28" d="M 0 0 
L 0 3.5 
" style="stroke: #000000; stroke-width: 0.8"/>
      </defs>
      <g>
       <use xlink:href="#m564725cb28" x="62.182684" y="228.96" style="stroke: #000000; stroke-width: 0.8"/>
      </g>
     </g>
     <g id="text_1">
      <!-- 0 -->
      <g transform="translate(59.001434 243.558437) scale(0.1 -0.1)">
       <defs>
        <path id="DejaVuSans-30" d="M 2034 4250 
Q 1547 4250 1301 3770 
Q 1056 3291 1056 2328 
Q 1056 1369 1301 889 
Q 1547 409 2034 409 
Q 2525 409 2770 889 
Q 3016 1369 3016 2328 
Q 3016 3291 2770 3770 
Q 2525 4250 2034 4250 
z
M 2034 4750 
Q 2819 4750 3233 4129 
Q 3647 3509 3647 2328 
Q 3647 1150 3233 529 
Q 2819 -91 2034 -91 
Q 1250 -91 836 529 
Q 422 1150 422 2328 
Q 422 3509 836 4129 
Q 1250 4750 2034 4750 
z
" transform="scale(0.015625)"/>
       </defs>
       <use xlink:href="#DejaVuSans-30"/>
      </g>
     </g>
    </g>
    <g id="xtick_2">
     <g id="line2d_2">
      <g>
       <use xlink:href="#m564725cb28" x="104.794638" y="228.96" style="stroke: #000000; stroke-width: 0.8"/>
      </g>
     </g>
     <g id="text_2">
      <!-- 10000 -->
      <g transform="translate(88.888388 243.558437) scale(0.1 -0.1)">
       <defs>
        <path id="DejaVuSans-31" d="M 794 531 
L 1825 531 
L 1825 4091 
L 703 3866 
L 703 4441 
L 1819 4666 
L 2450 4666 
L 2450 531 
L 3481 531 
L 3481 0 
L 794 0 
L 794 531 
z
" transform="scale(0.015625)"/>
       </defs>
       <use xlink:href="#DejaVuSans-31"/>
       <use xlink:href="#DejaVuSans-30" transform="translate(63.623047 0)"/>
       <use xlink:href="#DejaVuSans-30" transform="translate(127.246094 0)"/>
       <use xlink:href="#DejaVuSans-30" transform="translate(190.869141 0)"/>
       <use xlink:href="#DejaVuSans-30" transform="translate(254.492188 0)"/>
      </g>
     </g>
    </g>
    <g id="xtick_3">
     <g id="line2d_3">
      <g>
       <use xlink:href="#m564725cb28" x="147.406592" y="228.96" style="stroke: #000000; stroke-width: 0.8"/>
      </g>
     </g>
     <g id="text_3">
      <!-- 20000 -->
      <g transform="translate(131.500342 243.558437) scale(0.1 -0.1)">
       <defs>
        <path id="DejaVuSans-32" d="M 1228 531 
L 3431 531 
L 3431 0 
L 469 0 
L 469 531 
Q 828 903 1448 1529 
Q 2069 2156 2228 2338 
Q 2531 2678 2651 2914 
Q 2772 3150 2772 3378 
Q 2772 3750 2511 3984 
Q 2250 4219 1831 4219 
Q 1534 4219 1204 4116 
Q 875 4013 500 3803 
L 500 4441 
Q 881 4594 1212 4672 
Q 1544 4750 1819 4750 
Q 2544 4750 2975 4387 
Q 3406 4025 3406 3419 
Q 3406 3131 3298 2873 
Q 3191 2616 2906 2266 
Q 2828 2175 2409 1742 
Q 1991 1309 1228 531 
z
" transform="scale(0.015625)"/>
       </defs>
       <use xlink:href="#DejaVuSans-32"/>
       <use xlink:href="#DejaVuSans-30" transform="translate(63.623047 0)"/>
       <use xlink:href="#DejaVuSans-30" transform="translate(127.246094 0)"/>
       <use xlink:href="#DejaVuSans-30" transform="translate(190.869141 0)"/>
       <use xlink:href="#DejaVuSans-30" transform="translate(254.492188 0)"/>
      </g>
     </g>
    </g>
    <g id="xtick_4">
     <g id="line2d_4">
      <g>
       <use xlink:href="#m564725cb28" x="190.018545" y="228.96" style="stroke: #000000; stroke-width: 0.8"/>
      </g>
     </g>
     <g id="text_4">
      <!-- 30000 -->
      <g transform="translate(174.112295 243.558437) scale(0.1 -0.1)">
       <defs>
        <path id="DejaVuSans-33" d="M 2597 2516 
Q 3050 2419 3304 2112 
Q 3559 1806 3559 1356 
Q 3559 666 3084 287 
Q 2609 -91 1734 -91 
Q 1441 -91 1130 -33 
Q 819 25 488 141 
L 488 750 
Q 750 597 1062 519 
Q 1375 441 1716 441 
Q 2309 441 2620 675 
Q 2931 909 2931 1356 
Q 2931 1769 2642 2001 
Q 2353 2234 1838 2234 
L 1294 2234 
L 1294 2753 
L 1863 2753 
Q 2328 2753 2575 2939 
Q 2822 3125 2822 3475 
Q 2822 3834 2567 4026 
Q 2313 4219 1838 4219 
Q 1578 4219 1281 4162 
Q 984 4106 628 3988 
L 628 4550 
Q 988 4650 1302 4700 
Q 1616 4750 1894 4750 
Q 2613 4750 3031 4423 
Q 3450 4097 3450 3541 
Q 3450 3153 3228 2886 
Q 3006 2619 2597 2516 
z
" transform="scale(0.015625)"/>
       </defs>
       <use xlink:href="#DejaVuSans-33"/>
       <use xlink:href="#DejaVuSans-30" transform="translate(63.623047 0)"/>
       <use xlink:href="#DejaVuSans-30" transform="translate(127.246094 0)"/>
       <use xlink:href="#DejaVuSans-30" transform="translate(190.869141 0)"/>
       <use xlink:href="#DejaVuSans-30" transform="translate(254.492188 0)"/>
      </g>
     </g>
    </g>
    <g id="xtick_5">
     <g id="line2d_5">
      <g>
       <use xlink:href="#m564725cb28" x="232.630499" y="228.96" style="stroke: #000000; stroke-width: 0.8"/>
      </g>
     </g>
     <g id="text_5">
      <!-- 40000 -->
      <g transform="translate(216.724249 243.558437) scale(0.1 -0.1)">
       <defs>
        <path id="DejaVuSans-34" d="M 2419 4116 
L 825 1625 
L 2419 1625 
L 2419 4116 
z
M 2253 4666 
L 3047 4666 
L 3047 1625 
L 3713 1625 
L 3713 1100 
L 3047 1100 
L 3047 0 
L 2419 0 
L 2419 1100 
L 313 1100 
L 313 1709 
L 2253 4666 
z
" transform="scale(0.015625)"/>
       </defs>
       <use xlink:href="#DejaVuSans-34"/>
       <use xlink:href="#DejaVuSans-30" transform="translate(63.623047 0)"/>
       <use xlink:href="#DejaVuSans-30" transform="translate(127.246094 0)"/>
       <use xlink:href="#DejaVuSans-30" transform="translate(190.869141 0)"/>
       <use xlink:href="#DejaVuSans-30" transform="translate(254.492188 0)"/>
      </g>
     </g>
    </g>
    <g id="xtick_6">
     <g id="line2d_6">
      <g>
       <use xlink:href="#m564725cb28" x="275.242453" y="228.96" style="stroke: #000000; stroke-width: 0.8"/>
      </g>
     </g>
     <g id="text_6">
      <!-- 50000 -->
      <g transform="translate(259.336203 243.558437) scale(0.1 -0.1)">
       <defs>
        <path id="DejaVuSans-35" d="M 691 4666 
L 3169 4666 
L 3169 4134 
L 1269 4134 
L 1269 2991 
Q 1406 3038 1543 3061 
Q 1681 3084 1819 3084 
Q 2600 3084 3056 2656 
Q 3513 2228 3513 1497 
Q 3513 744 3044 326 
Q 2575 -91 1722 -91 
Q 1428 -91 1123 -41 
Q 819 9 494 109 
L 494 744 
Q 775 591 1075 516 
Q 1375 441 1709 441 
Q 2250 441 2565 725 
Q 2881 1009 2881 1497 
Q 2881 1984 2565 2268 
Q 2250 2553 1709 2553 
Q 1456 2553 1204 2497 
Q 953 2441 691 2322 
L 691 4666 
z
" transform="scale(0.015625)"/>
       </defs>
       <use xlink:href="#DejaVuSans-35"/>
       <use xlink:href="#DejaVuSans-30" transform="translate(63.623047 0)"/>
       <use xlink:href="#DejaVuSans-30" transform="translate(127.246094 0)"/>
       <use xlink:href="#DejaVuSans-30" transform="translate(190.869141 0)"/>
       <use xlink:href="#DejaVuSans-30" transform="translate(254.492188 0)"/>
      </g>
     </g>
    </g>
    <g id="xtick_7">
     <g id="line2d_7">
      <g>
       <use xlink:href="#m564725cb28" x="317.854407" y="228.96" style="stroke: #000000; stroke-width: 0.8"/>
      </g>
     </g>
     <g id="text_7">
      <!-- 60000 -->
      <g transform="translate(301.948157 243.558437) scale(0.1 -0.1)">
       <defs>
        <path id="DejaVuSans-36" d="M 2113 2584 
Q 1688 2584 1439 2293 
Q 1191 2003 1191 1497 
Q 1191 994 1439 701 
Q 1688 409 2113 409 
Q 2538 409 2786 701 
Q 3034 994 3034 1497 
Q 3034 2003 2786 2293 
Q 2538 2584 2113 2584 
z
M 3366 4563 
L 3366 3988 
Q 3128 4100 2886 4159 
Q 2644 4219 2406 4219 
Q 1781 4219 1451 3797 
Q 1122 3375 1075 2522 
Q 1259 2794 1537 2939 
Q 1816 3084 2150 3084 
Q 2853 3084 3261 2657 
Q 3669 2231 3669 1497 
Q 3669 778 3244 343 
Q 2819 -91 2113 -91 
Q 1303 -91 875 529 
Q 447 1150 447 2328 
Q 447 3434 972 4092 
Q 1497 4750 2381 4750 
Q 2619 4750 2861 4703 
Q 3103 4656 3366 4563 
z
" transform="scale(0.015625)"/>
       </defs>
       <use xlink:href="#DejaVuSans-36"/>
       <use xlink:href="#DejaVuSans-30" transform="translate(63.623047 0)"/>
       <use xlink:href="#DejaVuSans-30" transform="translate(127.246094 0)"/>
       <use xlink:href="#DejaVuSans-30" transform="translate(190.869141 0)"/>
       <use xlink:href="#DejaVuSans-30" transform="translate(254.492188 0)"/>
      </g>
     </g>
    </g>
    <g id="xtick_8">
     <g id="line2d_8">
      <g>
       <use xlink:href="#m564725cb28" x="360.466361" y="228.96" style="stroke: #000000; stroke-width: 0.8"/>
      </g>
     </g>
     <g id="text_8">
      <!-- 70000 -->
      <g transform="translate(344.560111 243.558437) scale(0.1 -0.1)">
       <defs>
        <path id="DejaVuSans-37" d="M 525 4666 
L 3525 4666 
L 3525 4397 
L 1831 0 
L 1172 0 
L 2766 4134 
L 525 4134 
L 525 4666 
z
" transform="scale(0.015625)"/>
       </defs>
       <use xlink:href="#DejaVuSans-37"/>
       <use xlink:href="#DejaVuSans-30" transform="translate(63.623047 0)"/>
       <use xlink:href="#DejaVuSans-30" transform="translate(127.246094 0)"/>
       <use xlink:href="#DejaVuSans-30" transform="translate(190.869141 0)"/>
       <use xlink:href="#DejaVuSans-30" transform="translate(254.492188 0)"/>
      </g>
     </g>
    </g>
    <g id="text_9">
     <!-- event_time_offset [µs] -->
     <g transform="translate(158.330469 257.236562) scale(0.1 -0.1)">
      <defs>
       <path id="DejaVuSans-65" d="M 3597 1894 
L 3597 1613 
L 953 1613 
Q 991 1019 1311 708 
Q 1631 397 2203 397 
Q 2534 397 2845 478 
Q 3156 559 3463 722 
L 3463 178 
Q 3153 47 2828 -22 
Q 2503 -91 2169 -91 
Q 1331 -91 842 396 
Q 353 884 353 1716 
Q 353 2575 817 3079 
Q 1281 3584 2069 3584 
Q 2775 3584 3186 3129 
Q 3597 2675 3597 1894 
z
M 3022 2063 
Q 3016 2534 2758 2815 
Q 2500 3097 2075 3097 
Q 1594 3097 1305 2825 
Q 1016 2553 972 2059 
L 3022 2063 
z
" transform="scale(0.015625)"/>
       <path id="DejaVuSans-76" d="M 191 3500 
L 800 3500 
L 1894 563 
L 2988 3500 
L 3597 3500 
L 2284 0 
L 1503 0 
L 191 3500 
z
" transform="scale(0.015625)"/>
       <path id="DejaVuSans-6e" d="M 3513 2113 
L 3513 0 
L 2938 0 
L 2938 2094 
Q 2938 2591 2744 2837 
Q 2550 3084 2163 3084 
Q 1697 3084 1428 2787 
Q 1159 2491 1159 1978 
L 1159 0 
L 581 0 
L 581 3500 
L 1159 3500 
L 1159 2956 
Q 1366 3272 1645 3428 
Q 1925 3584 2291 3584 
Q 2894 3584 3203 3211 
Q 3513 2838 3513 2113 
z
" transform="scale(0.015625)"/>
       <path id="DejaVuSans-74" d="M 1172 4494 
L 1172 3500 
L 2356 3500 
L 2356 3053 
L 1172 3053 
L 1172 1153 
Q 1172 725 1289 603 
Q 1406 481 1766 481 
L 2356 481 
L 2356 0 
L 1766 0 
Q 1100 0 847 248 
Q 594 497 594 1153 
L 594 3053 
L 172 3053 
L 172 3500 
L 594 3500 
L 594 4494 
L 1172 4494 
z
" transform="scale(0.015625)"/>
       <path id="DejaVuSans-5f" d="M 3263 -1063 
L 3263 -1509 
L -63 -1509 
L -63 -1063 
L 3263 -1063 
z
" transform="scale(0.015625)"/>
       <path id="DejaVuSans-69" d="M 603 3500 
L 1178 3500 
L 1178 0 
L 603 0 
L 603 3500 
z
M 603 4863 
L 1178 4863 
L 1178 4134 
L 603 4134 
L 603 4863 
z
" transform="scale(0.015625)"/>
       <path id="DejaVuSans-6d" d="M 3328 2828 
Q 3544 3216 3844 3400 
Q 4144 3584 4550 3584 
Q 5097 3584 5394 3201 
Q 5691 2819 5691 2113 
L 5691 0 
L 5113 0 
L 5113 2094 
Q 5113 2597 4934 2840 
Q 4756 3084 4391 3084 
Q 3944 3084 3684 2787 
Q 3425 2491 3425 1978 
L 3425 0 
L 2847 0 
L 2847 2094 
Q 2847 2600 2669 2842 
Q 2491 3084 2119 3084 
Q 1678 3084 1418 2786 
Q 1159 2488 1159 1978 
L 1159 0 
L 581 0 
L 581 3500 
L 1159 3500 
L 1159 2956 
Q 1356 3278 1631 3431 
Q 1906 3584 2284 3584 
Q 2666 3584 2933 3390 
Q 3200 3197 3328 2828 
z
" transform="scale(0.015625)"/>
       <path id="DejaVuSans-6f" d="M 1959 3097 
Q 1497 3097 1228 2736 
Q 959 2375 959 1747 
Q 959 1119 1226 758 
Q 1494 397 1959 397 
Q 2419 397 2687 759 
Q 2956 1122 2956 1747 
Q 2956 2369 2687 2733 
Q 2419 3097 1959 3097 
z
M 1959 3584 
Q 2709 3584 3137 3096 
Q 3566 2609 3566 1747 
Q 3566 888 3137 398 
Q 2709 -91 1959 -91 
Q 1206 -91 779 398 
Q 353 888 353 1747 
Q 353 2609 779 3096 
Q 1206 3584 1959 3584 
z
" transform="scale(0.015625)"/>
       <path id="DejaVuSans-66" d="M 2375 4863 
L 2375 4384 
L 1825 4384 
Q 1516 4384 1395 4259 
Q 1275 4134 1275 3809 
L 1275 3500 
L 2222 3500 
L 2222 3053 
L 1275 3053 
L 1275 0 
L 697 0 
L 697 3053 
L 147 3053 
L 147 3500 
L 697 3500 
L 697 3744 
Q 697 4328 969 4595 
Q 1241 4863 1831 4863 
L 2375 4863 
z
" transform="scale(0.015625)"/>
       <path id="DejaVuSans-73" d="M 2834 3397 
L 2834 2853 
Q 2591 2978 2328 3040 
Q 2066 3103 1784 3103 
Q 1356 3103 1142 2972 
Q 928 2841 928 2578 
Q 928 2378 1081 2264 
Q 1234 2150 1697 2047 
L 1894 2003 
Q 2506 1872 2764 1633 
Q 3022 1394 3022 966 
Q 3022 478 2636 193 
Q 2250 -91 1575 -91 
Q 1294 -91 989 -36 
Q 684 19 347 128 
L 347 722 
Q 666 556 975 473 
Q 1284 391 1588 391 
Q 1994 391 2212 530 
Q 2431 669 2431 922 
Q 2431 1156 2273 1281 
Q 2116 1406 1581 1522 
L 1381 1569 
Q 847 1681 609 1914 
Q 372 2147 372 2553 
Q 372 3047 722 3315 
Q 1072 3584 1716 3584 
Q 2034 3584 2315 3537 
Q 2597 3491 2834 3397 
z
" transform="scale(0.015625)"/>
       <path id="DejaVuSans-20" transform="scale(0.015625)"/>
       <path id="DejaVuSans-5b" d="M 550 4863 
L 1875 4863 
L 1875 4416 
L 1125 4416 
L 1125 -397 
L 1875 -397 
L 1875 -844 
L 550 -844 
L 550 4863 
z
" transform="scale(0.015625)"/>
       <path id="DejaVuSans-b5" d="M 544 -1331 
L 544 3500 
L 1119 3500 
L 1119 1325 
Q 1119 872 1334 640 
Q 1550 409 1972 409 
Q 2434 409 2667 671 
Q 2900 934 2900 1459 
L 2900 3500 
L 3475 3500 
L 3475 806 
Q 3475 619 3529 530 
Q 3584 441 3700 441 
Q 3728 441 3778 458 
Q 3828 475 3916 513 
L 3916 50 
Q 3788 -22 3673 -56 
Q 3559 -91 3450 -91 
Q 3234 -91 3106 31 
Q 2978 153 2931 403 
Q 2775 156 2548 32 
Q 2322 -91 2016 -91 
Q 1697 -91 1473 31 
Q 1250 153 1119 397 
L 1119 -1331 
L 544 -1331 
z
" transform="scale(0.015625)"/>
       <path id="DejaVuSans-5d" d="M 1947 4863 
L 1947 -844 
L 622 -844 
L 622 -397 
L 1369 -397 
L 1369 4416 
L 622 4416 
L 622 4863 
L 1947 4863 
z
" transform="scale(0.015625)"/>
      </defs>
      <use xlink:href="#DejaVuSans-65"/>
      <use xlink:href="#DejaVuSans-76" transform="translate(61.523438 0)"/>
      <use xlink:href="#DejaVuSans-65" transform="translate(120.703125 0)"/>
      <use xlink:href="#DejaVuSans-6e" transform="translate(182.226562 0)"/>
      <use xlink:href="#DejaVuSans-74" transform="translate(245.605469 0)"/>
      <use xlink:href="#DejaVuSans-5f" transform="translate(284.814453 0)"/>
      <use xlink:href="#DejaVuSans-74" transform="translate(334.814453 0)"/>
      <use xlink:href="#DejaVuSans-69" transform="translate(374.023438 0)"/>
      <use xlink:href="#DejaVuSans-6d" transform="translate(401.806641 0)"/>
      <use xlink:href="#DejaVuSans-65" transform="translate(499.21875 0)"/>
      <use xlink:href="#DejaVuSans-5f" transform="translate(560.742188 0)"/>
      <use xlink:href="#DejaVuSans-6f" transform="translate(610.742188 0)"/>
      <use xlink:href="#DejaVuSans-66" transform="translate(671.923828 0)"/>
      <use xlink:href="#DejaVuSans-66" transform="translate(707.128906 0)"/>
      <use xlink:href="#DejaVuSans-73" transform="translate(742.333984 0)"/>
      <use xlink:href="#DejaVuSans-65" transform="translate(794.433594 0)"/>
      <use xlink:href="#DejaVuSans-74" transform="translate(855.957031 0)"/>
      <use xlink:href="#DejaVuSans-20" transform="translate(895.166016 0)"/>
      <use xlink:href="#DejaVuSans-5b" transform="translate(926.953125 0)"/>
      <use xlink:href="#DejaVuSans-b5" transform="translate(965.966797 0)"/>
      <use xlink:href="#DejaVuSans-73" transform="translate(1029.589844 0)"/>
      <use xlink:href="#DejaVuSans-5d" transform="translate(1081.689453 0)"/>
     </g>
    </g>
   </g>
   <g id="matplotlib.axis_2">
    <g id="ytick_1">
     <g id="line2d_9">
      <defs>
       <path id="m1ddf0d830a" d="M 0 0 
L -3.5 0 
" style="stroke: #000000; stroke-width: 0.8"/>
      </defs>
      <g>
       <use xlink:href="#m1ddf0d830a" x="46.965625" y="218.88" style="stroke: #000000; stroke-width: 0.8"/>
      </g>
     </g>
     <g id="text_10">
      <!-- 0 -->
      <g transform="translate(33.603125 222.679219) scale(0.1 -0.1)">
       <use xlink:href="#DejaVuSans-30"/>
      </g>
     </g>
    </g>
    <g id="ytick_2">
     <g id="line2d_10">
      <g>
       <use xlink:href="#m1ddf0d830a" x="46.965625" y="182.944171" style="stroke: #000000; stroke-width: 0.8"/>
      </g>
     </g>
     <g id="text_11">
      <!-- 100 -->
      <g transform="translate(20.878125 186.74339) scale(0.1 -0.1)">
       <use xlink:href="#DejaVuSans-31"/>
       <use xlink:href="#DejaVuSans-30" transform="translate(63.623047 0)"/>
       <use xlink:href="#DejaVuSans-30" transform="translate(127.246094 0)"/>
      </g>
     </g>
    </g>
    <g id="ytick_3">
     <g id="line2d_11">
      <g>
       <use xlink:href="#m1ddf0d830a" x="46.965625" y="147.008342" style="stroke: #000000; stroke-width: 0.8"/>
      </g>
     </g>
     <g id="text_12">
      <!-- 200 -->
      <g transform="translate(20.878125 150.807561) scale(0.1 -0.1)">
       <use xlink:href="#DejaVuSans-32"/>
       <use xlink:href="#DejaVuSans-30" transform="translate(63.623047 0)"/>
       <use xlink:href="#DejaVuSans-30" transform="translate(127.246094 0)"/>
      </g>
     </g>
    </g>
    <g id="ytick_4">
     <g id="line2d_12">
      <g>
       <use xlink:href="#m1ddf0d830a" x="46.965625" y="111.072513" style="stroke: #000000; stroke-width: 0.8"/>
      </g>
     </g>
     <g id="text_13">
      <!-- 300 -->
      <g transform="translate(20.878125 114.871732) scale(0.1 -0.1)">
       <use xlink:href="#DejaVuSans-33"/>
       <use xlink:href="#DejaVuSans-30" transform="translate(63.623047 0)"/>
       <use xlink:href="#DejaVuSans-30" transform="translate(127.246094 0)"/>
      </g>
     </g>
    </g>
    <g id="ytick_5">
     <g id="line2d_13">
      <g>
       <use xlink:href="#m1ddf0d830a" x="46.965625" y="75.136684" style="stroke: #000000; stroke-width: 0.8"/>
      </g>
     </g>
     <g id="text_14">
      <!-- 400 -->
      <g transform="translate(20.878125 78.935903) scale(0.1 -0.1)">
       <use xlink:href="#DejaVuSans-34"/>
       <use xlink:href="#DejaVuSans-30" transform="translate(63.623047 0)"/>
       <use xlink:href="#DejaVuSans-30" transform="translate(127.246094 0)"/>
      </g>
     </g>
    </g>
    <g id="ytick_6">
     <g id="line2d_14">
      <g>
       <use xlink:href="#m1ddf0d830a" x="46.965625" y="39.200856" style="stroke: #000000; stroke-width: 0.8"/>
      </g>
     </g>
     <g id="text_15">
      <!-- 500 -->
      <g transform="translate(20.878125 43.000074) scale(0.1 -0.1)">
       <use xlink:href="#DejaVuSans-35"/>
       <use xlink:href="#DejaVuSans-30" transform="translate(63.623047 0)"/>
       <use xlink:href="#DejaVuSans-30" transform="translate(127.246094 0)"/>
      </g>
     </g>
    </g>
    <g id="text_16">
     <!-- [counts] -->
     <g transform="translate(14.798438 138.6925) rotate(-90) scale(0.1 -0.1)">
      <defs>
       <path id="DejaVuSans-63" d="M 3122 3366 
L 3122 2828 
Q 2878 2963 2633 3030 
Q 2388 3097 2138 3097 
Q 1578 3097 1268 2742 
Q 959 2388 959 1747 
Q 959 1106 1268 751 
Q 1578 397 2138 397 
Q 2388 397 2633 464 
Q 2878 531 3122 666 
L 3122 134 
Q 2881 22 2623 -34 
Q 2366 -91 2075 -91 
Q 1284 -91 818 406 
Q 353 903 353 1747 
Q 353 2603 823 3093 
Q 1294 3584 2113 3584 
Q 2378 3584 2631 3529 
Q 2884 3475 3122 3366 
z
" transform="scale(0.015625)"/>
       <path id="DejaVuSans-75" d="M 544 1381 
L 544 3500 
L 1119 3500 
L 1119 1403 
Q 1119 906 1312 657 
Q 1506 409 1894 409 
Q 2359 409 2629 706 
Q 2900 1003 2900 1516 
L 2900 3500 
L 3475 3500 
L 3475 0 
L 2900 0 
L 2900 538 
Q 2691 219 2414 64 
Q 2138 -91 1772 -91 
Q 1169 -91 856 284 
Q 544 659 544 1381 
z
M 1991 3584 
L 1991 3584 
z
" transform="scale(0.015625)"/>
      </defs>
      <use xlink:href="#DejaVuSans-5b"/>
      <use xlink:href="#DejaVuSans-63" transform="translate(39.013672 0)"/>
      <use xlink:href="#DejaVuSans-6f" transform="translate(93.994141 0)"/>
      <use xlink:href="#DejaVuSans-75" transform="translate(155.175781 0)"/>
      <use xlink:href="#DejaVuSans-6e" transform="translate(218.554688 0)"/>
      <use xlink:href="#DejaVuSans-74" transform="translate(281.933594 0)"/>
      <use xlink:href="#DejaVuSans-73" transform="translate(321.142578 0)"/>
      <use xlink:href="#DejaVuSans-5d" transform="translate(373.242188 0)"/>
     </g>
    </g>
   </g>
   <g id="patch_3">
    <path d="M 46.965625 228.96 
L 46.965625 7.2 
" style="fill: none; stroke: #000000; stroke-width: 0.8; stroke-linejoin: miter; stroke-linecap: square"/>
   </g>
   <g id="patch_4">
    <path d="M 381.765625 228.96 
L 381.765625 7.2 
" style="fill: none; stroke: #000000; stroke-width: 0.8; stroke-linejoin: miter; stroke-linecap: square"/>
   </g>
   <g id="patch_5">
    <path d="M 46.965625 228.96 
L 381.765625 228.96 
" style="fill: none; stroke: #000000; stroke-width: 0.8; stroke-linejoin: miter; stroke-linecap: square"/>
   </g>
   <g id="patch_6">
    <path d="M 46.965625 7.2 
L 381.765625 7.2 
" style="fill: none; stroke: #000000; stroke-width: 0.8; stroke-linejoin: miter; stroke-linecap: square"/>
   </g>
   <g id="line2d_15">
    <path d="M 62.183807 125.806203 
L 63.198352 125.806203 
L 63.198352 120.415829 
L 64.212898 120.415829 
L 64.212898 125.446845 
L 65.227443 125.446845 
L 65.227443 126.52492 
L 66.241989 126.52492 
L 66.241989 117.900321 
L 67.256534 117.900321 
L 67.256534 119.697112 
L 68.27108 119.697112 
L 68.27108 116.462888 
L 69.285625 116.462888 
L 69.285625 123.650053 
L 70.30017 123.650053 
L 70.30017 128.68107 
L 71.314716 128.68107 
L 71.314716 128.321711 
L 72.329261 128.321711 
L 72.329261 136.586952 
L 73.343807 136.586952 
L 73.343807 124.728128 
L 74.358352 124.728128 
L 74.358352 140.899251 
L 75.372898 140.899251 
L 75.372898 136.94631 
L 76.387443 136.94631 
L 76.387443 141.25861 
L 77.401989 141.25861 
L 77.401989 144.852193 
L 78.416534 144.852193 
L 78.416534 140.180535 
L 79.43108 140.180535 
L 79.43108 138.383743 
L 80.445625 138.383743 
L 80.445625 141.977326 
L 81.46017 141.977326 
L 81.46017 139.821176 
L 82.474716 139.821176 
L 82.474716 142.336684 
L 83.489261 142.336684 
L 83.489261 145.570909 
L 84.503807 145.570909 
L 84.503807 153.117433 
L 85.518352 153.117433 
L 85.518352 151.320642 
L 86.532898 151.320642 
L 86.532898 147.008342 
L 87.547443 147.008342 
L 87.547443 145.211551 
L 88.561989 145.211551 
L 88.561989 151.320642 
L 89.576534 151.320642 
L 89.576534 154.554866 
L 90.59108 154.554866 
L 90.59108 151.320642 
L 91.605625 151.320642 
L 91.605625 145.570909 
L 92.62017 145.570909 
L 92.62017 151.320642 
L 93.634716 151.320642 
L 93.634716 162.10139 
L 94.649261 162.10139 
L 94.649261 157.070374 
L 95.663807 157.070374 
L 95.663807 156.351658 
L 96.678352 156.351658 
L 96.678352 160.663957 
L 97.692898 160.663957 
L 97.692898 162.460749 
L 98.707443 162.460749 
L 98.707443 163.898182 
L 99.721989 163.898182 
L 99.721989 164.976257 
L 100.736534 164.976257 
L 100.736534 168.210481 
L 101.75108 168.210481 
L 101.75108 173.241497 
L 102.765625 173.241497 
L 102.765625 173.600856 
L 103.78017 173.600856 
L 103.78017 181.866096 
L 104.794716 181.866096 
L 104.794716 182.584813 
L 105.809261 182.584813 
L 105.809261 180.069305 
L 106.823807 180.069305 
L 106.823807 178.99123 
L 107.838352 178.99123 
L 107.838352 188.693904 
L 108.852898 188.693904 
L 108.852898 191.209412 
L 109.867443 191.209412 
L 109.867443 192.287487 
L 110.881989 192.287487 
L 110.881989 186.537754 
L 111.896534 186.537754 
L 111.896534 196.240428 
L 112.91108 196.240428 
L 112.91108 192.646845 
L 113.925625 192.646845 
L 113.925625 195.88107 
L 114.94017 195.88107 
L 114.94017 197.677861 
L 115.954716 197.677861 
L 115.954716 200.912086 
L 116.969261 200.912086 
L 116.969261 204.865027 
L 117.983807 204.865027 
L 117.983807 203.068235 
L 118.998352 203.068235 
L 118.998352 203.427594 
L 120.012898 203.427594 
L 120.012898 207.380535 
L 121.027443 207.380535 
L 121.027443 208.45861 
L 122.041989 208.45861 
L 122.041989 208.817968 
L 123.056534 208.817968 
L 123.056534 208.45861 
L 124.07108 208.45861 
L 124.07108 208.817968 
L 125.085625 208.817968 
L 125.085625 213.130267 
L 126.10017 213.130267 
L 126.10017 213.848984 
L 127.114716 213.848984 
L 127.114716 215.645775 
L 128.129261 215.645775 
L 128.129261 215.286417 
L 129.143807 215.286417 
L 129.143807 217.801925 
L 130.158352 217.801925 
L 130.158352 217.083209 
L 131.172898 217.083209 
L 131.172898 217.442567 
L 132.187443 217.442567 
L 132.187443 217.801925 
L 133.201989 217.801925 
L 133.201989 218.88 
L 134.216534 218.88 
L 134.216534 218.520642 
L 135.23108 218.520642 
L 135.23108 218.88 
L 149.434716 218.88 
L 149.434716 216.364492 
L 150.449261 216.364492 
L 150.449261 210.614759 
L 151.463807 210.614759 
L 151.463807 204.865027 
L 152.478352 204.865027 
L 152.478352 201.630802 
L 153.492898 201.630802 
L 153.492898 196.599786 
L 154.507443 196.599786 
L 154.507443 190.850053 
L 155.521989 190.850053 
L 155.521989 189.053262 
L 156.536534 189.053262 
L 156.536534 174.67893 
L 157.55108 174.67893 
L 157.55108 176.475722 
L 158.565625 176.475722 
L 158.565625 167.491765 
L 159.58017 167.491765 
L 159.58017 153.83615 
L 160.594716 153.83615 
L 160.594716 152.398717 
L 161.609261 152.398717 
L 161.609261 144.492834 
L 162.623807 144.492834 
L 162.623807 145.930267 
L 163.638352 145.930267 
L 163.638352 142.336684 
L 164.652898 142.336684 
L 164.652898 138.024385 
L 165.667443 138.024385 
L 165.667443 126.52492 
L 166.681989 126.52492 
L 166.681989 118.619037 
L 167.696534 118.619037 
L 167.696534 119.337754 
L 168.71108 119.337754 
L 168.71108 101.010481 
L 169.725625 101.010481 
L 169.725625 98.494973 
L 170.74017 98.494973 
L 170.74017 95.620107 
L 171.754716 95.620107 
L 171.754716 92.385882 
L 172.769261 92.385882 
L 172.769261 96.698182 
L 173.783807 96.698182 
L 173.783807 83.401925 
L 174.798352 83.401925 
L 174.798352 88.073583 
L 175.812898 88.073583 
L 175.812898 74.777326 
L 176.827443 74.777326 
L 176.827443 79.089626 
L 177.841989 79.089626 
L 177.841989 60.762353 
L 178.856534 60.762353 
L 178.856534 67.59016 
L 179.87108 67.59016 
L 179.87108 65.074652 
L 180.885625 65.074652 
L 180.885625 57.16877 
L 181.90017 57.16877 
L 181.90017 51.419037 
L 182.914716 51.419037 
L 182.914716 63.637219 
L 183.929261 63.637219 
L 183.929261 41.716364 
L 184.943807 41.716364 
L 184.943807 37.044706 
L 185.958352 37.044706 
L 185.958352 42.075722 
L 186.972898 42.075722 
L 186.972898 33.810481 
L 187.987443 33.810481 
L 187.987443 31.654332 
L 189.001989 31.654332 
L 189.001989 37.763422 
L 190.016534 37.763422 
L 190.016534 21.951658 
L 191.03108 21.951658 
L 191.03108 29.85754 
L 192.045625 29.85754 
L 192.045625 39.560214 
L 193.06017 39.560214 
L 193.06017 34.888556 
L 194.074716 34.888556 
L 194.074716 17.28 
L 195.089261 17.28 
L 195.089261 29.85754 
L 196.103807 29.85754 
L 196.103807 28.779465 
L 197.118352 28.779465 
L 197.118352 30.935615 
L 198.132898 30.935615 
L 198.132898 37.404064 
L 200.161989 37.404064 
L 200.161989 47.825455 
L 201.176534 47.825455 
L 201.176534 38.122781 
L 202.19108 38.122781 
L 202.19108 30.576257 
L 203.205625 30.576257 
L 203.205625 47.825455 
L 204.22017 47.825455 
L 204.22017 38.482139 
L 205.234716 38.482139 
L 205.234716 42.794439 
L 206.249261 42.794439 
L 206.249261 30.935615 
L 207.263807 30.935615 
L 207.263807 35.966631 
L 208.278352 35.966631 
L 208.278352 46.388021 
L 209.292898 46.388021 
L 209.292898 58.606203 
L 210.307443 58.606203 
L 210.307443 51.419037 
L 211.321989 51.419037 
L 211.321989 39.919572 
L 212.336534 39.919572 
L 212.336534 53.934545 
L 213.35108 53.934545 
L 213.35108 52.497112 
L 214.365625 52.497112 
L 214.365625 50.700321 
L 215.38017 50.700321 
L 215.38017 62.199786 
L 216.394716 62.199786 
L 216.394716 57.887487 
L 217.409261 57.887487 
L 217.409261 58.246845 
L 218.423807 58.246845 
L 218.423807 59.684278 
L 219.438352 59.684278 
L 219.438352 61.121711 
L 220.452898 61.121711 
L 220.452898 51.778396 
L 221.467443 51.778396 
L 221.467443 63.277861 
L 222.481989 63.277861 
L 222.481989 64.715294 
L 223.496534 64.715294 
L 223.496534 53.934545 
L 224.51108 53.934545 
L 224.51108 78.730267 
L 225.525625 78.730267 
L 225.525625 77.652193 
L 226.54017 77.652193 
L 226.54017 61.121711 
L 227.554716 61.121711 
L 227.554716 69.027594 
L 229.583807 69.027594 
L 229.583807 61.121711 
L 230.598352 61.121711 
L 230.598352 66.152727 
L 231.612898 66.152727 
L 231.612898 55.731337 
L 232.627443 55.731337 
L 232.627443 63.637219 
L 233.641989 63.637219 
L 233.641989 70.105668 
L 234.656534 70.105668 
L 234.656534 42.794439 
L 235.67108 42.794439 
L 235.67108 64.355936 
L 236.685625 64.355936 
L 236.685625 65.434011 
L 237.70017 65.434011 
L 237.70017 76.574118 
L 238.714716 76.574118 
L 238.714716 74.05861 
L 239.729261 74.05861 
L 239.729261 88.073583 
L 240.743807 88.073583 
L 240.743807 65.434011 
L 241.758352 65.434011 
L 241.758352 68.668235 
L 242.772898 68.668235 
L 242.772898 72.980535 
L 243.787443 72.980535 
L 243.787443 81.605134 
L 244.801989 81.605134 
L 244.801989 87.714225 
L 245.816534 87.714225 
L 245.816534 84.839358 
L 246.83108 84.839358 
L 246.83108 87.354866 
L 247.845625 87.354866 
L 247.845625 72.621176 
L 248.86017 72.621176 
L 248.86017 94.542032 
L 249.874716 94.542032 
L 249.874716 88.073583 
L 250.889261 88.073583 
L 250.889261 78.730267 
L 251.903807 78.730267 
L 251.903807 75.855401 
L 252.918352 75.855401 
L 252.918352 89.151658 
L 253.932898 89.151658 
L 253.932898 98.135615 
L 254.947443 98.135615 
L 254.947443 100.291765 
L 255.961989 100.291765 
L 255.961989 93.463957 
L 256.976534 93.463957 
L 256.976534 106.760214 
L 257.99108 106.760214 
L 257.99108 108.197647 
L 259.005625 108.197647 
L 259.005625 109.275722 
L 260.02017 109.275722 
L 260.02017 127.962353 
L 261.034716 127.962353 
L 261.034716 115.384813 
L 262.049261 115.384813 
L 262.049261 117.181604 
L 263.063807 117.181604 
L 263.063807 139.821176 
L 264.078352 139.821176 
L 264.078352 142.696043 
L 265.092898 142.696043 
L 265.092898 142.336684 
L 266.107443 142.336684 
L 266.107443 140.899251 
L 267.121989 140.899251 
L 267.121989 155.992299 
L 268.136534 155.992299 
L 268.136534 153.476791 
L 269.15108 153.476791 
L 269.15108 166.41369 
L 270.165625 166.41369 
L 270.165625 164.616898 
L 271.18017 164.616898 
L 271.18017 168.56984 
L 272.194716 168.56984 
L 272.194716 172.163422 
L 273.209261 172.163422 
L 273.209261 182.225455 
L 274.223807 182.225455 
L 274.223807 187.256471 
L 275.238352 187.256471 
L 275.238352 185.459679 
L 276.252898 185.459679 
L 276.252898 190.850053 
L 277.267443 190.850053 
L 277.267443 194.802995 
L 278.281989 194.802995 
L 278.281989 196.599786 
L 279.296534 196.599786 
L 279.296534 203.786952 
L 280.31108 203.786952 
L 280.31108 208.099251 
L 281.325625 208.099251 
L 281.325625 208.817968 
L 282.34017 208.817968 
L 282.34017 212.770909 
L 283.354716 212.770909 
L 283.354716 214.927059 
L 284.369261 214.927059 
L 284.369261 216.005134 
L 285.383807 216.005134 
L 285.383807 217.083209 
L 286.398352 217.083209 
L 286.398352 218.161283 
L 287.412898 218.161283 
L 287.412898 218.520642 
L 288.427443 218.520642 
L 288.427443 218.88 
L 297.558352 218.88 
L 297.558352 218.520642 
L 298.572898 218.520642 
L 298.572898 213.848984 
L 299.587443 213.848984 
L 299.587443 210.614759 
L 300.601989 210.614759 
L 300.601989 201.99016 
L 301.616534 201.99016 
L 301.616534 202.708877 
L 302.63108 202.708877 
L 302.63108 193.72492 
L 303.645625 193.72492 
L 303.645625 192.287487 
L 304.66017 192.287487 
L 304.66017 191.209412 
L 305.674716 191.209412 
L 305.674716 184.022246 
L 306.689261 184.022246 
L 306.689261 176.475722 
L 307.703807 176.475722 
L 307.703807 181.14738 
L 308.718352 181.14738 
L 308.718352 170.725989 
L 309.732898 170.725989 
L 309.732898 172.163422 
L 310.747443 172.163422 
L 310.747443 171.085348 
L 311.761989 171.085348 
L 311.761989 160.663957 
L 312.776534 160.663957 
L 312.776534 146.648984 
L 313.79108 146.648984 
L 313.79108 148.805134 
L 314.805625 148.805134 
L 314.805625 145.211551 
L 315.82017 145.211551 
L 315.82017 142.336684 
L 316.834716 142.336684 
L 316.834716 134.79016 
L 317.849261 134.79016 
L 317.849261 147.727059 
L 318.863807 147.727059 
L 318.863807 130.477861 
L 319.878352 130.477861 
L 319.878352 136.586952 
L 320.892898 136.586952 
L 320.892898 134.79016 
L 321.907443 134.79016 
L 321.907443 126.52492 
L 322.921989 126.52492 
L 322.921989 118.978396 
L 323.936534 118.978396 
L 323.936534 108.916364 
L 324.95108 108.916364 
L 324.95108 118.259679 
L 326.98017 118.259679 
L 326.98017 113.588021 
L 327.994716 113.588021 
L 327.994716 105.322781 
L 329.009261 105.322781 
L 329.009261 109.275722 
L 330.023807 109.275722 
L 330.023807 113.94738 
L 331.038352 113.94738 
L 331.038352 98.135615 
L 332.052898 98.135615 
L 332.052898 100.651123 
L 333.067443 100.651123 
L 333.067443 90.948449 
L 334.081989 90.948449 
L 334.081989 94.182674 
L 336.11108 94.182674 
L 336.11108 101.729198 
L 337.125625 101.729198 
L 337.125625 93.463957 
L 338.14017 93.463957 
L 338.14017 92.745241 
L 339.154716 92.745241 
L 339.154716 98.494973 
L 340.169261 98.494973 
L 340.169261 75.496043 
L 341.183807 75.496043 
L 341.183807 91.667166 
L 342.198352 91.667166 
L 342.198352 82.683209 
L 343.212898 82.683209 
L 343.212898 84.120642 
L 344.227443 84.120642 
L 344.227443 93.463957 
L 345.241989 93.463957 
L 345.241989 84.120642 
L 346.256534 84.120642 
L 346.256534 91.307807 
L 347.27108 91.307807 
L 347.27108 97.05754 
L 348.285625 97.05754 
L 348.285625 103.166631 
L 349.30017 103.166631 
L 349.30017 90.589091 
L 350.314716 90.589091 
L 350.314716 100.291765 
L 351.329261 100.291765 
L 351.329261 98.494973 
L 352.343807 98.494973 
L 352.343807 108.197647 
L 353.358352 108.197647 
L 353.358352 93.104599 
L 354.372898 93.104599 
L 354.372898 103.525989 
L 355.387443 103.525989 
L 355.387443 105.322781 
L 356.401989 105.322781 
L 356.401989 103.885348 
L 357.416534 103.885348 
L 357.416534 98.135615 
L 358.43108 98.135615 
L 358.43108 116.822246 
L 359.445625 116.822246 
L 359.445625 101.729198 
L 360.46017 101.729198 
L 360.46017 117.181604 
L 361.474716 117.181604 
L 361.474716 108.557005 
L 362.489261 108.557005 
L 362.489261 110.713155 
L 363.503807 110.713155 
L 363.503807 102.088556 
L 364.518352 102.088556 
L 364.518352 118.259679 
L 365.532898 118.259679 
L 365.532898 106.041497 
L 366.547443 106.041497 
L 366.547443 106.041497 
" clip-path="url(#pe00a1727a8)" style="fill: none; stroke: #1f77b4; stroke-width: 1.5; stroke-linecap: square"/>
   </g>
  </g>
 </g>
 <defs>
  <clipPath id="pe00a1727a8">
   <rect x="46.965625" y="7.2" width="334.8" height="221.76"/>
  </clipPath>
 </defs>
</svg>
