<?xml version="1.0" encoding="utf-8" standalone="no"?>
<!DOCTYPE svg PUBLIC "-//W3C//DTD SVG 1.1//EN"
  "http://www.w3.org/Graphics/SVG/1.1/DTD/svg11.dtd">
<svg xmlns:xlink="http://www.w3.org/1999/xlink" width="388.965625pt" height="266.794375pt" viewBox="0 0 388.965625 266.794375" xmlns="http://www.w3.org/2000/svg" version="1.1">
 <metadata>
  <rdf:RDF xmlns:dc="http://purl.org/dc/elements/1.1/" xmlns:cc="http://creativecommons.org/ns#" xmlns:rdf="http://www.w3.org/1999/02/22-rdf-syntax-ns#">
   <cc:Work>
    <dc:type rdf:resource="http://purl.org/dc/dcmitype/StillImage"/>
    <dc:date>2026-02-02T14:27:17.185153</dc:date>
    <dc:format>image/svg+xml</dc:format>
    <dc:creator>
     <cc:Agent>
      <dc:title>Matplotlib v3.10.8, https://matplotlib.org/</dc:title>
     </cc:Agent>
    </dc:creator>
   </cc:Work>
  </rdf:RDF>
 </metadata>
 <defs>
  <style type="text/css">*{stroke-linejoin: round; stroke-linecap: butt}</style>
 </defs>
 <g id="figure_1">
  <g id="patch_1">
   <path d="M 0 266.794375 
L 388.965625 266.794375 
L 388.965625 0 
L 0 0 
z
" style="fill: #ffffff"/>
  </g>
  <g id="axes_1">
   <g id="patch_2">
    <path d="M 46.965625 228.96 
L 381.765625 228.96 
L 381.765625 7.2 
L 46.965625 7.2 
z
" style="fill: #ffffff"/>
   </g>
   <g id="matplotlib.axis_1">
    <g id="xtick_1">
     <g id="line2d_1">
      <defs>
       <path id="m31dea895bb" d="M 0 0 
L 0 3.5 
" style="stroke: #000000; stroke-width: 0.8"/>
      </defs>
      <g>
       <use xlink:href="#m31dea895bb" x="62.182379" y="228.96" style="stroke: #000000; stroke-width: 0.8"/>
      </g>
     </g>
     <g id="text_1">
      <!-- 0 -->
      <g transform="translate(59.001129 243.558437) scale(0.1 -0.1)">
       <defs>
        <path id="DejaVuSans-30" d="M 2034 4250 
Q 1547 4250 1301 3770 
Q 1056 3291 1056 2328 
Q 1056 1369 1301 889 
Q 1547 409 2034 409 
Q 2525 409 2770 889 
Q 3016 1369 3016 2328 
Q 3016 3291 2770 3770 
Q 2525 4250 2034 4250 
z
M 2034 4750 
Q 2819 4750 3233 4129 
Q 3647 3509 3647 2328 
Q 3647 1150 3233 529 
Q 2819 -91 2034 -91 
Q 1250 -91 836 529 
Q 422 1150 422 2328 
Q 422 3509 836 4129 
Q 1250 4750 2034 4750 
z
" transform="scale(0.015625)"/>
       </defs>
       <use xlink:href="#DejaVuSans-30"/>
      </g>
     </g>
    </g>
    <g id="xtick_2">
     <g id="line2d_2">
      <g>
       <use xlink:href="#m31dea895bb" x="104.79383" y="228.96" style="stroke: #000000; stroke-width: 0.8"/>
      </g>
     </g>
     <g id="text_2">
      <!-- 10000 -->
      <g transform="translate(88.88758 243.558437) scale(0.1 -0.1)">
       <defs>
        <path id="DejaVuSans-31" d="M 794 531 
L 1825 531 
L 1825 4091 
L 703 3866 
L 703 4441 
L 1819 4666 
L 2450 4666 
L 2450 531 
L 3481 531 
L 3481 0 
L 794 0 
L 794 531 
z
" transform="scale(0.015625)"/>
       </defs>
       <use xlink:href="#DejaVuSans-31"/>
       <use xlink:href="#DejaVuSans-30" transform="translate(63.623047 0)"/>
       <use xlink:href="#DejaVuSans-30" transform="translate(127.246094 0)"/>
       <use xlink:href="#DejaVuSans-30" transform="translate(190.869141 0)"/>
       <use xlink:href="#DejaVuSans-30" transform="translate(254.492188 0)"/>
      </g>
     </g>
    </g>
    <g id="xtick_3">
     <g id="line2d_3">
      <g>
       <use xlink:href="#m31dea895bb" x="147.40528" y="228.96" style="stroke: #000000; stroke-width: 0.8"/>
      </g>
     </g>
     <g id="text_3">
      <!-- 20000 -->
      <g transform="translate(131.49903 243.558437) scale(0.1 -0.1)">
       <defs>
        <path id="DejaVuSans-32" d="M 1228 531 
L 3431 531 
L 3431 0 
L 469 0 
L 469 531 
Q 828 903 1448 1529 
Q 2069 2156 2228 2338 
Q 2531 2678 2651 2914 
Q 2772 3150 2772 3378 
Q 2772 3750 2511 3984 
Q 2250 4219 1831 4219 
Q 1534 4219 1204 4116 
Q 875 4013 500 3803 
L 500 4441 
Q 881 4594 1212 4672 
Q 1544 4750 1819 4750 
Q 2544 4750 2975 4387 
Q 3406 4025 3406 3419 
Q 3406 3131 3298 2873 
Q 3191 2616 2906 2266 
Q 2828 2175 2409 1742 
Q 1991 1309 1228 531 
z
" transform="scale(0.015625)"/>
       </defs>
       <use xlink:href="#DejaVuSans-32"/>
       <use xlink:href="#DejaVuSans-30" transform="translate(63.623047 0)"/>
       <use xlink:href="#DejaVuSans-30" transform="translate(127.246094 0)"/>
       <use xlink:href="#DejaVuSans-30" transform="translate(190.869141 0)"/>
       <use xlink:href="#DejaVuSans-30" transform="translate(254.492188 0)"/>
      </g>
     </g>
    </g>
    <g id="xtick_4">
     <g id="line2d_4">
      <g>
       <use xlink:href="#m31dea895bb" x="190.01673" y="228.96" style="stroke: #000000; stroke-width: 0.8"/>
      </g>
     </g>
     <g id="text_4">
      <!-- 30000 -->
      <g transform="translate(174.11048 243.558437) scale(0.1 -0.1)">
       <defs>
        <path id="DejaVuSans-33" d="M 2597 2516 
Q 3050 2419 3304 2112 
Q 3559 1806 3559 1356 
Q 3559 666 3084 287 
Q 2609 -91 1734 -91 
Q 1441 -91 1130 -33 
Q 819 25 488 141 
L 488 750 
Q 750 597 1062 519 
Q 1375 441 1716 441 
Q 2309 441 2620 675 
Q 2931 909 2931 1356 
Q 2931 1769 2642 2001 
Q 2353 2234 1838 2234 
L 1294 2234 
L 1294 2753 
L 1863 2753 
Q 2328 2753 2575 2939 
Q 2822 3125 2822 3475 
Q 2822 3834 2567 4026 
Q 2313 4219 1838 4219 
Q 1578 4219 1281 4162 
Q 984 4106 628 3988 
L 628 4550 
Q 988 4650 1302 4700 
Q 1616 4750 1894 4750 
Q 2613 4750 3031 4423 
Q 3450 4097 3450 3541 
Q 3450 3153 3228 2886 
Q 3006 2619 2597 2516 
z
" transform="scale(0.015625)"/>
       </defs>
       <use xlink:href="#DejaVuSans-33"/>
       <use xlink:href="#DejaVuSans-30" transform="translate(63.623047 0)"/>
       <use xlink:href="#DejaVuSans-30" transform="translate(127.246094 0)"/>
       <use xlink:href="#DejaVuSans-30" transform="translate(190.869141 0)"/>
       <use xlink:href="#DejaVuSans-30" transform="translate(254.492188 0)"/>
      </g>
     </g>
    </g>
    <g id="xtick_5">
     <g id="line2d_5">
      <g>
       <use xlink:href="#m31dea895bb" x="232.62818" y="228.96" style="stroke: #000000; stroke-width: 0.8"/>
      </g>
     </g>
     <g id="text_5">
      <!-- 40000 -->
      <g transform="translate(216.72193 243.558437) scale(0.1 -0.1)">
       <defs>
        <path id="DejaVuSans-34" d="M 2419 4116 
L 825 1625 
L 2419 1625 
L 2419 4116 
z
M 2253 4666 
L 3047 4666 
L 3047 1625 
L 3713 1625 
L 3713 1100 
L 3047 1100 
L 3047 0 
L 2419 0 
L 2419 1100 
L 313 1100 
L 313 1709 
L 2253 4666 
z
" transform="scale(0.015625)"/>
       </defs>
       <use xlink:href="#DejaVuSans-34"/>
       <use xlink:href="#DejaVuSans-30" transform="translate(63.623047 0)"/>
       <use xlink:href="#DejaVuSans-30" transform="translate(127.246094 0)"/>
       <use xlink:href="#DejaVuSans-30" transform="translate(190.869141 0)"/>
       <use xlink:href="#DejaVuSans-30" transform="translate(254.492188 0)"/>
      </g>
     </g>
    </g>
    <g id="xtick_6">
     <g id="line2d_6">
      <g>
       <use xlink:href="#m31dea895bb" x="275.23963" y="228.96" style="stroke: #000000; stroke-width: 0.8"/>
      </g>
     </g>
     <g id="text_6">
      <!-- 50000 -->
      <g transform="translate(259.33338 243.558437) scale(0.1 -0.1)">
       <defs>
        <path id="DejaVuSans-35" d="M 691 4666 
L 3169 4666 
L 3169 4134 
L 1269 4134 
L 1269 2991 
Q 1406 3038 1543 3061 
Q 1681 3084 1819 3084 
Q 2600 3084 3056 2656 
Q 3513 2228 3513 1497 
Q 3513 744 3044 326 
Q 2575 -91 1722 -91 
Q 1428 -91 1123 -41 
Q 819 9 494 109 
L 494 744 
Q 775 591 1075 516 
Q 1375 441 1709 441 
Q 2250 441 2565 725 
Q 2881 1009 2881 1497 
Q 2881 1984 2565 2268 
Q 2250 2553 1709 2553 
Q 1456 2553 1204 2497 
Q 953 2441 691 2322 
L 691 4666 
z
" transform="scale(0.015625)"/>
       </defs>
       <use xlink:href="#DejaVuSans-35"/>
       <use xlink:href="#DejaVuSans-30" transform="translate(63.623047 0)"/>
       <use xlink:href="#DejaVuSans-30" transform="translate(127.246094 0)"/>
       <use xlink:href="#DejaVuSans-30" transform="translate(190.869141 0)"/>
       <use xlink:href="#DejaVuSans-30" transform="translate(254.492188 0)"/>
      </g>
     </g>
    </g>
    <g id="xtick_7">
     <g id="line2d_7">
      <g>
       <use xlink:href="#m31dea895bb" x="317.85108" y="228.96" style="stroke: #000000; stroke-width: 0.8"/>
      </g>
     </g>
     <g id="text_7">
      <!-- 60000 -->
      <g transform="translate(301.94483 243.558437) scale(0.1 -0.1)">
       <defs>
        <path id="DejaVuSans-36" d="M 2113 2584 
Q 1688 2584 1439 2293 
Q 1191 2003 1191 1497 
Q 1191 994 1439 701 
Q 1688 409 2113 409 
Q 2538 409 2786 701 
Q 3034 994 3034 1497 
Q 3034 2003 2786 2293 
Q 2538 2584 2113 2584 
z
M 3366 4563 
L 3366 3988 
Q 3128 4100 2886 4159 
Q 2644 4219 2406 4219 
Q 1781 4219 1451 3797 
Q 1122 3375 1075 2522 
Q 1259 2794 1537 2939 
Q 1816 3084 2150 3084 
Q 2853 3084 3261 2657 
Q 3669 2231 3669 1497 
Q 3669 778 3244 343 
Q 2819 -91 2113 -91 
Q 1303 -91 875 529 
Q 447 1150 447 2328 
Q 447 3434 972 4092 
Q 1497 4750 2381 4750 
Q 2619 4750 2861 4703 
Q 3103 4656 3366 4563 
z
" transform="scale(0.015625)"/>
       </defs>
       <use xlink:href="#DejaVuSans-36"/>
       <use xlink:href="#DejaVuSans-30" transform="translate(63.623047 0)"/>
       <use xlink:href="#DejaVuSans-30" transform="translate(127.246094 0)"/>
       <use xlink:href="#DejaVuSans-30" transform="translate(190.869141 0)"/>
       <use xlink:href="#DejaVuSans-30" transform="translate(254.492188 0)"/>
      </g>
     </g>
    </g>
    <g id="xtick_8">
     <g id="line2d_8">
      <g>
       <use xlink:href="#m31dea895bb" x="360.46253" y="228.96" style="stroke: #000000; stroke-width: 0.8"/>
      </g>
     </g>
     <g id="text_8">
      <!-- 70000 -->
      <g transform="translate(344.55628 243.558437) scale(0.1 -0.1)">
       <defs>
        <path id="DejaVuSans-37" d="M 525 4666 
L 3525 4666 
L 3525 4397 
L 1831 0 
L 1172 0 
L 2766 4134 
L 525 4134 
L 525 4666 
z
" transform="scale(0.015625)"/>
       </defs>
       <use xlink:href="#DejaVuSans-37"/>
       <use xlink:href="#DejaVuSans-30" transform="translate(63.623047 0)"/>
       <use xlink:href="#DejaVuSans-30" transform="translate(127.246094 0)"/>
       <use xlink:href="#DejaVuSans-30" transform="translate(190.869141 0)"/>
       <use xlink:href="#DejaVuSans-30" transform="translate(254.492188 0)"/>
      </g>
     </g>
    </g>
    <g id="text_9">
     <!-- event_time_offset [µs] -->
     <g transform="translate(158.330469 257.236562) scale(0.1 -0.1)">
      <defs>
       <path id="DejaVuSans-65" d="M 3597 1894 
L 3597 1613 
L 953 1613 
Q 991 1019 1311 708 
Q 1631 397 2203 397 
Q 2534 397 2845 478 
Q 3156 559 3463 722 
L 3463 178 
Q 3153 47 2828 -22 
Q 2503 -91 2169 -91 
Q 1331 -91 842 396 
Q 353 884 353 1716 
Q 353 2575 817 3079 
Q 1281 3584 2069 3584 
Q 2775 3584 3186 3129 
Q 3597 2675 3597 1894 
z
M 3022 2063 
Q 3016 2534 2758 2815 
Q 2500 3097 2075 3097 
Q 1594 3097 1305 2825 
Q 1016 2553 972 2059 
L 3022 2063 
z
" transform="scale(0.015625)"/>
       <path id="DejaVuSans-76" d="M 191 3500 
L 800 3500 
L 1894 563 
L 2988 3500 
L 3597 3500 
L 2284 0 
L 1503 0 
L 191 3500 
z
" transform="scale(0.015625)"/>
       <path id="DejaVuSans-6e" d="M 3513 2113 
L 3513 0 
L 2938 0 
L 2938 2094 
Q 2938 2591 2744 2837 
Q 2550 3084 2163 3084 
Q 1697 3084 1428 2787 
Q 1159 2491 1159 1978 
L 1159 0 
L 581 0 
L 581 3500 
L 1159 3500 
L 1159 2956 
Q 1366 3272 1645 3428 
Q 1925 3584 2291 3584 
Q 2894 3584 3203 3211 
Q 3513 2838 3513 2113 
z
" transform="scale(0.015625)"/>
       <path id="DejaVuSans-74" d="M 1172 4494 
L 1172 3500 
L 2356 3500 
L 2356 3053 
L 1172 3053 
L 1172 1153 
Q 1172 725 1289 603 
Q 1406 481 1766 481 
L 2356 481 
L 2356 0 
L 1766 0 
Q 1100 0 847 248 
Q 594 497 594 1153 
L 594 3053 
L 172 3053 
L 172 3500 
L 594 3500 
L 594 4494 
L 1172 4494 
z
" transform="scale(0.015625)"/>
       <path id="DejaVuSans-5f" d="M 3263 -1063 
L 3263 -1509 
L -63 -1509 
L -63 -1063 
L 3263 -1063 
z
" transform="scale(0.015625)"/>
       <path id="DejaVuSans-69" d="M 603 3500 
L 1178 3500 
L 1178 0 
L 603 0 
L 603 3500 
z
M 603 4863 
L 1178 4863 
L 1178 4134 
L 603 4134 
L 603 4863 
z
" transform="scale(0.015625)"/>
       <path id="DejaVuSans-6d" d="M 3328 2828 
Q 3544 3216 3844 3400 
Q 4144 3584 4550 3584 
Q 5097 3584 5394 3201 
Q 5691 2819 5691 2113 
L 5691 0 
L 5113 0 
L 5113 2094 
Q 5113 2597 4934 2840 
Q 4756 3084 4391 3084 
Q 3944 3084 3684 2787 
Q 3425 2491 3425 1978 
L 3425 0 
L 2847 0 
L 2847 2094 
Q 2847 2600 2669 2842 
Q 2491 3084 2119 3084 
Q 1678 3084 1418 2786 
Q 1159 2488 1159 1978 
L 1159 0 
L 581 0 
L 581 3500 
L 1159 3500 
L 1159 2956 
Q 1356 3278 1631 3431 
Q 1906 3584 2284 3584 
Q 2666 3584 2933 3390 
Q 3200 3197 3328 2828 
z
" transform="scale(0.015625)"/>
       <path id="DejaVuSans-6f" d="M 1959 3097 
Q 1497 3097 1228 2736 
Q 959 2375 959 1747 
Q 959 1119 1226 758 
Q 1494 397 1959 397 
Q 2419 397 2687 759 
Q 2956 1122 2956 1747 
Q 2956 2369 2687 2733 
Q 2419 3097 1959 3097 
z
M 1959 3584 
Q 2709 3584 3137 3096 
Q 3566 2609 3566 1747 
Q 3566 888 3137 398 
Q 2709 -91 1959 -91 
Q 1206 -91 779 398 
Q 353 888 353 1747 
Q 353 2609 779 3096 
Q 1206 3584 1959 3584 
z
" transform="scale(0.015625)"/>
       <path id="DejaVuSans-66" d="M 2375 4863 
L 2375 4384 
L 1825 4384 
Q 1516 4384 1395 4259 
Q 1275 4134 1275 3809 
L 1275 3500 
L 2222 3500 
L 2222 3053 
L 1275 3053 
L 1275 0 
L 697 0 
L 697 3053 
L 147 3053 
L 147 3500 
L 697 3500 
L 697 3744 
Q 697 4328 969 4595 
Q 1241 4863 1831 4863 
L 2375 4863 
z
" transform="scale(0.015625)"/>
       <path id="DejaVuSans-73" d="M 2834 3397 
L 2834 2853 
Q 2591 2978 2328 3040 
Q 2066 3103 1784 3103 
Q 1356 3103 1142 2972 
Q 928 2841 928 2578 
Q 928 2378 1081 2264 
Q 1234 2150 1697 2047 
L 1894 2003 
Q 2506 1872 2764 1633 
Q 3022 1394 3022 966 
Q 3022 478 2636 193 
Q 2250 -91 1575 -91 
Q 1294 -91 989 -36 
Q 684 19 347 128 
L 347 722 
Q 666 556 975 473 
Q 1284 391 1588 391 
Q 1994 391 2212 530 
Q 2431 669 2431 922 
Q 2431 1156 2273 1281 
Q 2116 1406 1581 1522 
L 1381 1569 
Q 847 1681 609 1914 
Q 372 2147 372 2553 
Q 372 3047 722 3315 
Q 1072 3584 1716 3584 
Q 2034 3584 2315 3537 
Q 2597 3491 2834 3397 
z
" transform="scale(0.015625)"/>
       <path id="DejaVuSans-20" transform="scale(0.015625)"/>
       <path id="DejaVuSans-5b" d="M 550 4863 
L 1875 4863 
L 1875 4416 
L 1125 4416 
L 1125 -397 
L 1875 -397 
L 1875 -844 
L 550 -844 
L 550 4863 
z
" transform="scale(0.015625)"/>
       <path id="DejaVuSans-b5" d="M 544 -1331 
L 544 3500 
L 1119 3500 
L 1119 1325 
Q 1119 872 1334 640 
Q 1550 409 1972 409 
Q 2434 409 2667 671 
Q 2900 934 2900 1459 
L 2900 3500 
L 3475 3500 
L 3475 806 
Q 3475 619 3529 530 
Q 3584 441 3700 441 
Q 3728 441 3778 458 
Q 3828 475 3916 513 
L 3916 50 
Q 3788 -22 3673 -56 
Q 3559 -91 3450 -91 
Q 3234 -91 3106 31 
Q 2978 153 2931 403 
Q 2775 156 2548 32 
Q 2322 -91 2016 -91 
Q 1697 -91 1473 31 
Q 1250 153 1119 397 
L 1119 -1331 
L 544 -1331 
z
" transform="scale(0.015625)"/>
       <path id="DejaVuSans-5d" d="M 1947 4863 
L 1947 -844 
L 622 -844 
L 622 -397 
L 1369 -397 
L 1369 4416 
L 622 4416 
L 622 4863 
L 1947 4863 
z
" transform="scale(0.015625)"/>
      </defs>
      <use xlink:href="#DejaVuSans-65"/>
      <use xlink:href="#DejaVuSans-76" transform="translate(61.523438 0)"/>
      <use xlink:href="#DejaVuSans-65" transform="translate(120.703125 0)"/>
      <use xlink:href="#DejaVuSans-6e" transform="translate(182.226562 0)"/>
      <use xlink:href="#DejaVuSans-74" transform="translate(245.605469 0)"/>
      <use xlink:href="#DejaVuSans-5f" transform="translate(284.814453 0)"/>
      <use xlink:href="#DejaVuSans-74" transform="translate(334.814453 0)"/>
      <use xlink:href="#DejaVuSans-69" transform="translate(374.023438 0)"/>
      <use xlink:href="#DejaVuSans-6d" transform="translate(401.806641 0)"/>
      <use xlink:href="#DejaVuSans-65" transform="translate(499.21875 0)"/>
      <use xlink:href="#DejaVuSans-5f" transform="translate(560.742188 0)"/>
      <use xlink:href="#DejaVuSans-6f" transform="translate(610.742188 0)"/>
      <use xlink:href="#DejaVuSans-66" transform="translate(671.923828 0)"/>
      <use xlink:href="#DejaVuSans-66" transform="translate(707.128906 0)"/>
      <use xlink:href="#DejaVuSans-73" transform="translate(742.333984 0)"/>
      <use xlink:href="#DejaVuSans-65" transform="translate(794.433594 0)"/>
      <use xlink:href="#DejaVuSans-74" transform="translate(855.957031 0)"/>
      <use xlink:href="#DejaVuSans-20" transform="translate(895.166016 0)"/>
      <use xlink:href="#DejaVuSans-5b" transform="translate(926.953125 0)"/>
      <use xlink:href="#DejaVuSans-b5" transform="translate(965.966797 0)"/>
      <use xlink:href="#DejaVuSans-73" transform="translate(1029.589844 0)"/>
      <use xlink:href="#DejaVuSans-5d" transform="translate(1081.689453 0)"/>
     </g>
    </g>
   </g>
   <g id="matplotlib.axis_2">
    <g id="ytick_1">
     <g id="line2d_9">
      <defs>
       <path id="ma0aac1ea36" d="M 0 0 
L -3.5 0 
" style="stroke: #000000; stroke-width: 0.8"/>
      </defs>
      <g>
       <use xlink:href="#ma0aac1ea36" x="46.965625" y="218.88" style="stroke: #000000; stroke-width: 0.8"/>
      </g>
     </g>
     <g id="text_10">
      <!-- 0 -->
      <g transform="translate(33.603125 222.679219) scale(0.1 -0.1)">
       <use xlink:href="#DejaVuSans-30"/>
      </g>
     </g>
    </g>
    <g id="ytick_2">
     <g id="line2d_10">
      <g>
       <use xlink:href="#ma0aac1ea36" x="46.965625" y="184.652496" style="stroke: #000000; stroke-width: 0.8"/>
      </g>
     </g>
     <g id="text_11">
      <!-- 100 -->
      <g transform="translate(20.878125 188.451715) scale(0.1 -0.1)">
       <use xlink:href="#DejaVuSans-31"/>
       <use xlink:href="#DejaVuSans-30" transform="translate(63.623047 0)"/>
       <use xlink:href="#DejaVuSans-30" transform="translate(127.246094 0)"/>
      </g>
     </g>
    </g>
    <g id="ytick_3">
     <g id="line2d_11">
      <g>
       <use xlink:href="#ma0aac1ea36" x="46.965625" y="150.424992" style="stroke: #000000; stroke-width: 0.8"/>
      </g>
     </g>
     <g id="text_12">
      <!-- 200 -->
      <g transform="translate(20.878125 154.22421) scale(0.1 -0.1)">
       <use xlink:href="#DejaVuSans-32"/>
       <use xlink:href="#DejaVuSans-30" transform="translate(63.623047 0)"/>
       <use xlink:href="#DejaVuSans-30" transform="translate(127.246094 0)"/>
      </g>
     </g>
    </g>
    <g id="ytick_4">
     <g id="line2d_12">
      <g>
       <use xlink:href="#ma0aac1ea36" x="46.965625" y="116.197487" style="stroke: #000000; stroke-width: 0.8"/>
      </g>
     </g>
     <g id="text_13">
      <!-- 300 -->
      <g transform="translate(20.878125 119.996706) scale(0.1 -0.1)">
       <use xlink:href="#DejaVuSans-33"/>
       <use xlink:href="#DejaVuSans-30" transform="translate(63.623047 0)"/>
       <use xlink:href="#DejaVuSans-30" transform="translate(127.246094 0)"/>
      </g>
     </g>
    </g>
    <g id="ytick_5">
     <g id="line2d_13">
      <g>
       <use xlink:href="#ma0aac1ea36" x="46.965625" y="81.969983" style="stroke: #000000; stroke-width: 0.8"/>
      </g>
     </g>
     <g id="text_14">
      <!-- 400 -->
      <g transform="translate(20.878125 85.769202) scale(0.1 -0.1)">
       <use xlink:href="#DejaVuSans-34"/>
       <use xlink:href="#DejaVuSans-30" transform="translate(63.623047 0)"/>
       <use xlink:href="#DejaVuSans-30" transform="translate(127.246094 0)"/>
      </g>
     </g>
    </g>
    <g id="ytick_6">
     <g id="line2d_14">
      <g>
       <use xlink:href="#ma0aac1ea36" x="46.965625" y="47.742479" style="stroke: #000000; stroke-width: 0.8"/>
      </g>
     </g>
     <g id="text_15">
      <!-- 500 -->
      <g transform="translate(20.878125 51.541698) scale(0.1 -0.1)">
       <use xlink:href="#DejaVuSans-35"/>
       <use xlink:href="#DejaVuSans-30" transform="translate(63.623047 0)"/>
       <use xlink:href="#DejaVuSans-30" transform="translate(127.246094 0)"/>
      </g>
     </g>
    </g>
    <g id="ytick_7">
     <g id="line2d_15">
      <g>
       <use xlink:href="#ma0aac1ea36" x="46.965625" y="13.514975" style="stroke: #000000; stroke-width: 0.8"/>
      </g>
     </g>
     <g id="text_16">
      <!-- 600 -->
      <g transform="translate(20.878125 17.314193) scale(0.1 -0.1)">
       <use xlink:href="#DejaVuSans-36"/>
       <use xlink:href="#DejaVuSans-30" transform="translate(63.623047 0)"/>
       <use xlink:href="#DejaVuSans-30" transform="translate(127.246094 0)"/>
      </g>
     </g>
    </g>
    <g id="text_17">
     <!-- [counts] -->
     <g transform="translate(14.798438 138.6925) rotate(-90) scale(0.1 -0.1)">
      <defs>
       <path id="DejaVuSans-63" d="M 3122 3366 
L 3122 2828 
Q 2878 2963 2633 3030 
Q 2388 3097 2138 3097 
Q 1578 3097 1268 2742 
Q 959 2388 959 1747 
Q 959 1106 1268 751 
Q 1578 397 2138 397 
Q 2388 397 2633 464 
Q 2878 531 3122 666 
L 3122 134 
Q 2881 22 2623 -34 
Q 2366 -91 2075 -91 
Q 1284 -91 818 406 
Q 353 903 353 1747 
Q 353 2603 823 3093 
Q 1294 3584 2113 3584 
Q 2378 3584 2631 3529 
Q 2884 3475 3122 3366 
z
" transform="scale(0.015625)"/>
       <path id="DejaVuSans-75" d="M 544 1381 
L 544 3500 
L 1119 3500 
L 1119 1403 
Q 1119 906 1312 657 
Q 1506 409 1894 409 
Q 2359 409 2629 706 
Q 2900 1003 2900 1516 
L 2900 3500 
L 3475 3500 
L 3475 0 
L 2900 0 
L 2900 538 
Q 2691 219 2414 64 
Q 2138 -91 1772 -91 
Q 1169 -91 856 284 
Q 544 659 544 1381 
z
M 1991 3584 
L 1991 3584 
z
" transform="scale(0.015625)"/>
      </defs>
      <use xlink:href="#DejaVuSans-5b"/>
      <use xlink:href="#DejaVuSans-63" transform="translate(39.013672 0)"/>
      <use xlink:href="#DejaVuSans-6f" transform="translate(93.994141 0)"/>
      <use xlink:href="#DejaVuSans-75" transform="translate(155.175781 0)"/>
      <use xlink:href="#DejaVuSans-6e" transform="translate(218.554688 0)"/>
      <use xlink:href="#DejaVuSans-74" transform="translate(281.933594 0)"/>
      <use xlink:href="#DejaVuSans-73" transform="translate(321.142578 0)"/>
      <use xlink:href="#DejaVuSans-5d" transform="translate(373.242188 0)"/>
     </g>
    </g>
   </g>
   <g id="line2d_16">
    <path d="M 62.183807 117.224312 
L 63.198352 117.224312 
L 63.198352 122.016163 
L 64.212898 122.016163 
L 64.212898 121.331613 
L 65.227443 121.331613 
L 65.227443 120.304788 
L 66.241989 120.304788 
L 66.241989 129.546214 
L 67.256534 129.546214 
L 67.256534 137.760815 
L 68.27108 137.760815 
L 68.27108 124.412088 
L 69.285625 124.412088 
L 69.285625 125.781188 
L 70.30017 125.781188 
L 70.30017 139.47219 
L 71.314716 139.47219 
L 71.314716 134.68034 
L 72.329261 134.68034 
L 72.329261 123.727538 
L 73.343807 123.727538 
L 73.343807 136.73399 
L 74.358352 136.73399 
L 74.358352 129.546214 
L 75.372898 129.546214 
L 75.372898 134.338065 
L 76.387443 134.338065 
L 76.387443 143.237216 
L 78.416534 143.237216 
L 78.416534 137.760815 
L 79.43108 137.760815 
L 79.43108 145.633141 
L 80.445625 145.633141 
L 80.445625 149.740441 
L 81.46017 149.740441 
L 81.46017 146.317691 
L 82.474716 146.317691 
L 82.474716 152.478642 
L 83.489261 152.478642 
L 83.489261 142.552666 
L 84.503807 142.552666 
L 84.503807 156.243667 
L 85.518352 156.243667 
L 85.518352 148.713616 
L 86.532898 148.713616 
L 86.532898 150.082716 
L 87.547443 150.082716 
L 87.547443 149.740441 
L 88.561989 149.740441 
L 88.561989 148.371341 
L 89.576534 148.371341 
L 89.576534 145.633141 
L 90.59108 145.633141 
L 90.59108 152.136367 
L 91.605625 152.136367 
L 91.605625 161.720068 
L 92.62017 161.720068 
L 92.62017 147.686791 
L 93.634716 147.686791 
L 93.634716 163.431443 
L 94.649261 163.431443 
L 94.649261 168.907844 
L 95.663807 168.907844 
L 95.663807 167.538744 
L 96.678352 167.538744 
L 96.678352 163.773718 
L 97.692898 163.773718 
L 97.692898 164.458268 
L 98.707443 164.458268 
L 98.707443 170.276944 
L 99.721989 170.276944 
L 99.721989 172.672869 
L 100.736534 172.672869 
L 100.736534 175.753345 
L 101.75108 175.753345 
L 101.75108 172.672869 
L 102.765625 172.672869 
L 102.765625 179.176095 
L 103.78017 179.176095 
L 103.78017 174.384244 
L 104.794716 174.384244 
L 104.794716 182.25657 
L 105.809261 182.25657 
L 105.809261 183.967946 
L 106.823807 183.967946 
L 106.823807 186.706146 
L 107.838352 186.706146 
L 107.838352 183.625671 
L 108.852898 183.625671 
L 108.852898 187.048421 
L 109.867443 187.048421 
L 109.867443 190.128896 
L 110.881989 190.128896 
L 110.881989 191.497997 
L 111.896534 191.497997 
L 111.896534 194.236197 
L 112.91108 194.236197 
L 112.91108 199.712598 
L 113.925625 199.712598 
L 113.925625 202.450798 
L 114.94017 202.450798 
L 114.94017 198.343497 
L 115.954716 198.343497 
L 115.954716 201.081698 
L 116.969261 201.081698 
L 116.969261 196.974397 
L 117.983807 196.974397 
L 117.983807 200.739423 
L 118.998352 200.739423 
L 118.998352 206.558098 
L 120.012898 206.558098 
L 120.012898 208.954024 
L 121.027443 208.954024 
L 121.027443 207.584924 
L 122.041989 207.584924 
L 122.041989 210.665399 
L 123.056534 210.665399 
L 123.056534 213.061324 
L 125.085625 213.061324 
L 125.085625 211.692224 
L 126.10017 211.692224 
L 126.10017 212.376774 
L 127.114716 212.376774 
L 127.114716 216.1418 
L 128.129261 216.1418 
L 128.129261 214.772699 
L 129.143807 214.772699 
L 129.143807 216.1418 
L 130.158352 216.1418 
L 130.158352 217.5109 
L 131.172898 217.5109 
L 131.172898 216.484075 
L 132.187443 216.484075 
L 132.187443 218.19545 
L 133.201989 218.19545 
L 133.201989 218.537725 
L 136.245625 218.537725 
L 136.245625 218.88 
L 149.434716 218.88 
L 149.434716 215.799525 
L 150.449261 215.799525 
L 150.449261 209.638574 
L 151.463807 209.638574 
L 151.463807 207.242649 
L 152.478352 207.242649 
L 152.478352 205.188998 
L 153.492898 205.188998 
L 153.492898 198.685772 
L 154.507443 198.685772 
L 154.507443 190.128896 
L 155.521989 190.128896 
L 155.521989 180.545195 
L 156.536534 180.545195 
L 156.536534 176.437895 
L 157.55108 176.437895 
L 157.55108 178.14927 
L 158.565625 178.14927 
L 158.565625 167.196469 
L 159.58017 167.196469 
L 159.58017 171.988319 
L 160.594716 171.988319 
L 160.594716 167.881019 
L 161.609261 167.881019 
L 161.609261 163.431443 
L 162.623807 163.431443 
L 162.623807 138.445365 
L 163.638352 138.445365 
L 163.638352 140.15674 
L 164.652898 140.15674 
L 164.652898 147.686791 
L 165.667443 147.686791 
L 165.667443 139.814465 
L 166.681989 139.814465 
L 166.681989 122.016163 
L 167.696534 122.016163 
L 167.696534 129.546214 
L 168.71108 129.546214 
L 168.71108 115.855212 
L 169.725625 115.855212 
L 169.725625 111.063362 
L 170.74017 111.063362 
L 170.74017 111.405637 
L 171.754716 111.405637 
L 171.754716 103.875586 
L 172.769261 103.875586 
L 172.769261 101.137385 
L 173.783807 101.137385 
L 173.783807 94.63416 
L 174.798352 94.63416 
L 174.798352 89.500034 
L 175.812898 89.500034 
L 175.812898 99.083735 
L 176.827443 99.083735 
L 176.827443 77.520407 
L 177.841989 77.520407 
L 177.841989 81.285433 
L 178.856534 81.285433 
L 178.856534 78.204958 
L 179.87108 78.204958 
L 179.87108 77.520407 
L 180.885625 77.520407 
L 180.885625 77.178132 
L 181.90017 77.178132 
L 181.90017 65.540781 
L 182.914716 65.540781 
L 182.914716 47.057929 
L 183.929261 47.057929 
L 183.929261 58.69528 
L 184.943807 58.69528 
L 184.943807 48.084754 
L 185.958352 48.084754 
L 185.958352 51.507504 
L 186.972898 51.507504 
L 186.972898 42.950628 
L 187.987443 42.950628 
L 187.987443 37.816503 
L 189.001989 37.816503 
L 189.001989 43.977453 
L 190.016534 43.977453 
L 190.016534 35.762852 
L 191.03108 35.762852 
L 191.03108 41.923803 
L 192.045625 41.923803 
L 192.045625 38.843328 
L 193.06017 38.843328 
L 193.06017 41.581528 
L 194.074716 41.581528 
L 194.074716 25.836876 
L 195.089261 25.836876 
L 195.089261 30.628727 
L 196.103807 30.628727 
L 196.103807 34.051477 
L 197.118352 34.051477 
L 197.118352 39.185603 
L 198.132898 39.185603 
L 198.132898 30.628727 
L 199.147443 30.628727 
L 199.147443 29.601902 
L 200.161989 29.601902 
L 200.161989 32.682377 
L 201.176534 32.682377 
L 201.176534 38.501053 
L 202.19108 38.501053 
L 202.19108 43.292903 
L 203.205625 43.292903 
L 203.205625 32.340102 
L 204.22017 32.340102 
L 204.22017 40.896978 
L 205.234716 40.896978 
L 205.234716 52.192054 
L 206.249261 52.192054 
L 206.249261 56.983905 
L 207.263807 56.983905 
L 207.263807 61.091205 
L 208.278352 61.091205 
L 208.278352 55.614805 
L 209.292898 55.614805 
L 209.292898 58.01073 
L 210.307443 58.01073 
L 210.307443 57.32618 
L 211.321989 57.32618 
L 211.321989 45.346553 
L 212.336534 45.346553 
L 212.336534 40.212428 
L 213.35108 40.212428 
L 213.35108 65.540781 
L 214.365625 65.540781 
L 214.365625 59.037555 
L 215.38017 59.037555 
L 215.38017 51.507504 
L 216.394716 51.507504 
L 216.394716 68.278981 
L 217.409261 68.278981 
L 217.409261 60.74893 
L 218.423807 60.74893 
L 218.423807 49.796129 
L 219.438352 49.796129 
L 219.438352 67.594431 
L 220.452898 67.594431 
L 220.452898 59.037555 
L 221.467443 59.037555 
L 221.467443 54.930255 
L 222.481989 54.930255 
L 222.481989 62.118031 
L 223.496534 62.118031 
L 223.496534 64.513956 
L 224.51108 64.513956 
L 224.51108 78.204958 
L 225.525625 78.204958 
L 225.525625 71.017182 
L 226.54017 71.017182 
L 226.54017 66.909881 
L 227.554716 66.909881 
L 227.554716 72.728557 
L 228.569261 72.728557 
L 228.569261 76.493582 
L 229.583807 76.493582 
L 229.583807 72.044007 
L 230.598352 72.044007 
L 230.598352 76.835857 
L 231.612898 76.835857 
L 231.612898 72.728557 
L 232.627443 72.728557 
L 232.627443 75.466757 
L 233.641989 75.466757 
L 233.641989 72.044007 
L 234.656534 72.044007 
L 234.656534 80.600883 
L 235.67108 80.600883 
L 235.67108 84.365908 
L 236.685625 84.365908 
L 236.685625 69.990357 
L 237.70017 69.990357 
L 237.70017 73.755382 
L 238.714716 73.755382 
L 238.714716 92.238234 
L 239.729261 92.238234 
L 239.729261 84.365908 
L 240.743807 84.365908 
L 240.743807 78.889508 
L 241.758352 78.889508 
L 241.758352 65.198506 
L 242.772898 65.198506 
L 242.772898 79.231783 
L 243.787443 79.231783 
L 243.787443 83.339083 
L 244.801989 83.339083 
L 244.801989 79.231783 
L 245.816534 79.231783 
L 245.816534 84.708183 
L 246.83108 84.708183 
L 246.83108 73.413107 
L 248.86017 73.413107 
L 248.86017 93.607334 
L 249.874716 93.607334 
L 249.874716 85.735008 
L 250.889261 85.735008 
L 250.889261 80.600883 
L 251.903807 80.600883 
L 251.903807 102.506486 
L 252.918352 102.506486 
L 252.918352 94.63416 
L 253.932898 94.63416 
L 253.932898 94.291885 
L 254.947443 94.291885 
L 254.947443 106.271511 
L 255.961989 106.271511 
L 255.961989 95.31871 
L 256.976534 95.31871 
L 256.976534 102.848761 
L 257.99108 102.848761 
L 257.99108 111.747912 
L 259.005625 111.747912 
L 259.005625 129.888489 
L 260.02017 129.888489 
L 260.02017 116.882037 
L 261.034716 116.882037 
L 261.034716 130.573039 
L 262.049261 130.573039 
L 262.049261 125.781188 
L 263.063807 125.781188 
L 263.063807 137.41854 
L 264.078352 137.41854 
L 264.078352 140.84129 
L 265.092898 140.84129 
L 265.092898 145.975416 
L 266.107443 145.975416 
L 266.107443 149.398166 
L 267.121989 149.398166 
L 267.121989 160.008693 
L 268.136534 160.008693 
L 268.136534 162.746893 
L 269.15108 162.746893 
L 269.15108 169.592394 
L 270.165625 169.592394 
L 270.165625 180.545195 
L 271.18017 180.545195 
L 271.18017 172.330594 
L 272.194716 172.330594 
L 272.194716 173.699694 
L 273.209261 173.699694 
L 273.209261 179.51837 
L 274.223807 179.51837 
L 274.223807 187.732971 
L 275.238352 187.732971 
L 275.238352 187.390696 
L 276.252898 187.390696 
L 276.252898 194.578472 
L 277.267443 194.578472 
L 277.267443 198.001222 
L 278.281989 198.001222 
L 278.281989 202.793073 
L 279.296534 202.793073 
L 279.296534 206.900374 
L 280.31108 206.900374 
L 280.31108 209.638574 
L 281.325625 209.638574 
L 281.325625 207.242649 
L 282.34017 207.242649 
L 282.34017 217.168625 
L 283.354716 217.168625 
L 283.354716 212.034499 
L 284.369261 212.034499 
L 284.369261 216.82635 
L 285.383807 216.82635 
L 285.383807 217.5109 
L 286.398352 217.5109 
L 286.398352 218.19545 
L 287.412898 218.19545 
L 287.412898 218.537725 
L 288.427443 218.537725 
L 288.427443 218.88 
L 298.572898 218.88 
L 298.572898 213.745874 
L 299.587443 213.745874 
L 299.587443 211.007674 
L 300.601989 211.007674 
L 300.601989 207.584924 
L 301.616534 207.584924 
L 301.616534 202.450798 
L 302.63108 202.450798 
L 302.63108 194.920747 
L 303.645625 194.920747 
L 303.645625 192.524822 
L 304.66017 192.524822 
L 304.66017 187.390696 
L 306.689261 187.390696 
L 306.689261 180.545195 
L 307.703807 180.545195 
L 307.703807 179.176095 
L 308.718352 179.176095 
L 308.718352 176.78017 
L 309.732898 176.78017 
L 309.732898 168.565569 
L 310.747443 168.565569 
L 310.747443 157.955042 
L 311.761989 157.955042 
L 311.761989 164.458268 
L 312.776534 164.458268 
L 312.776534 161.035518 
L 313.79108 161.035518 
L 313.79108 155.216842 
L 314.805625 155.216842 
L 314.805625 155.559117 
L 315.82017 155.559117 
L 315.82017 154.190017 
L 316.834716 154.190017 
L 316.834716 153.163192 
L 317.849261 153.163192 
L 317.849261 134.68034 
L 318.863807 134.68034 
L 318.863807 138.10309 
L 319.878352 138.10309 
L 319.878352 139.47219 
L 320.892898 139.47219 
L 320.892898 137.760815 
L 321.907443 137.760815 
L 321.907443 131.257589 
L 322.921989 131.257589 
L 322.921989 128.861664 
L 323.936534 128.861664 
L 323.936534 119.962513 
L 324.95108 119.962513 
L 324.95108 127.492564 
L 325.965625 127.492564 
L 325.965625 118.251138 
L 326.98017 118.251138 
L 326.98017 120.304788 
L 327.994716 120.304788 
L 327.994716 121.331613 
L 329.009261 121.331613 
L 329.009261 117.566587 
L 330.023807 117.566587 
L 330.023807 109.009711 
L 331.038352 109.009711 
L 331.038352 109.351986 
L 332.052898 109.351986 
L 332.052898 93.265059 
L 333.067443 93.265059 
L 333.067443 101.137385 
L 334.081989 101.137385 
L 334.081989 96.345535 
L 335.096534 96.345535 
L 335.096534 107.298336 
L 336.11108 107.298336 
L 336.11108 92.922784 
L 337.125625 92.922784 
L 337.125625 92.238234 
L 338.14017 92.238234 
L 338.14017 92.922784 
L 339.154716 92.922784 
L 339.154716 99.42601 
L 340.169261 99.42601 
L 340.169261 97.714635 
L 341.183807 97.714635 
L 341.183807 89.157759 
L 342.198352 89.157759 
L 342.198352 96.68781 
L 343.212898 96.68781 
L 343.212898 86.077284 
L 344.227443 86.077284 
L 344.227443 104.902411 
L 345.241989 104.902411 
L 345.241989 96.00326 
L 346.256534 96.00326 
L 346.256534 99.42601 
L 347.27108 99.42601 
L 347.27108 102.506486 
L 348.285625 102.506486 
L 348.285625 104.902411 
L 349.30017 104.902411 
L 349.30017 99.083735 
L 350.314716 99.083735 
L 350.314716 108.667436 
L 351.329261 108.667436 
L 351.329261 111.063362 
L 352.343807 111.063362 
L 352.343807 100.452835 
L 353.358352 100.452835 
L 353.358352 107.640611 
L 354.372898 107.640611 
L 354.372898 104.902411 
L 355.387443 104.902411 
L 355.387443 106.271511 
L 356.401989 106.271511 
L 356.401989 103.875586 
L 357.416534 103.875586 
L 357.416534 109.351986 
L 358.43108 109.351986 
L 358.43108 118.935688 
L 359.445625 118.935688 
L 359.445625 114.828387 
L 360.46017 114.828387 
L 360.46017 105.244686 
L 361.474716 105.244686 
L 361.474716 117.224312 
L 362.489261 117.224312 
L 362.489261 121.331613 
L 363.503807 121.331613 
L 363.503807 122.358438 
L 364.518352 122.358438 
L 364.518352 109.694261 
L 365.532898 109.694261 
L 365.532898 132.626689 
L 366.547443 132.626689 
L 366.547443 132.626689 
" clip-path="url(#p75870c79c4)" style="fill: none; stroke: #1f77b4; stroke-width: 1.5; stroke-linecap: square"/>
   </g>
   <g id="line2d_17">
    <path d="M 62.183807 123.385263 
L 63.198352 123.385263 
L 63.198352 130.915314 
L 64.212898 130.915314 
L 64.212898 134.68034 
L 65.227443 134.68034 
L 65.227443 131.942139 
L 66.241989 131.942139 
L 66.241989 123.727538 
L 67.256534 123.727538 
L 67.256534 131.599864 
L 69.285625 131.599864 
L 69.285625 140.499015 
L 70.30017 140.499015 
L 70.30017 138.78764 
L 71.314716 138.78764 
L 71.314716 136.73399 
L 72.329261 136.73399 
L 72.329261 139.47219 
L 73.343807 139.47219 
L 73.343807 151.794092 
L 74.358352 151.794092 
L 74.358352 142.894941 
L 75.372898 142.894941 
L 75.372898 152.478642 
L 76.387443 152.478642 
L 76.387443 140.84129 
L 77.401989 140.84129 
L 77.401989 151.794092 
L 78.416534 151.794092 
L 78.416534 150.082716 
L 79.43108 150.082716 
L 79.43108 147.002241 
L 80.445625 147.002241 
L 80.445625 148.029066 
L 81.46017 148.029066 
L 81.46017 147.002241 
L 82.474716 147.002241 
L 82.474716 144.264041 
L 83.489261 144.264041 
L 83.489261 152.136367 
L 84.503807 152.136367 
L 84.503807 159.324143 
L 85.518352 159.324143 
L 85.518352 148.029066 
L 86.532898 148.029066 
L 86.532898 161.377793 
L 87.547443 161.377793 
L 87.547443 165.485093 
L 88.561989 165.485093 
L 88.561989 166.511919 
L 89.576534 166.511919 
L 89.576534 160.008693 
L 90.59108 160.008693 
L 90.59108 164.458268 
L 91.605625 164.458268 
L 91.605625 177.806995 
L 92.62017 177.806995 
L 92.62017 168.907844 
L 93.634716 168.907844 
L 93.634716 170.276944 
L 94.649261 170.276944 
L 94.649261 178.14927 
L 95.663807 178.14927 
L 95.663807 174.041969 
L 96.678352 174.041969 
L 96.678352 177.806995 
L 97.692898 177.806995 
L 97.692898 179.51837 
L 98.707443 179.51837 
L 98.707443 186.021596 
L 99.721989 186.021596 
L 99.721989 184.994771 
L 100.736534 184.994771 
L 100.736534 187.048421 
L 101.75108 187.048421 
L 101.75108 184.994771 
L 102.765625 184.994771 
L 102.765625 189.102071 
L 103.78017 189.102071 
L 103.78017 191.155722 
L 104.794716 191.155722 
L 104.794716 199.370323 
L 105.809261 199.370323 
L 105.809261 200.739423 
L 106.823807 200.739423 
L 106.823807 198.001222 
L 107.838352 198.001222 
L 107.838352 200.397148 
L 108.852898 200.397148 
L 108.852898 196.632122 
L 109.867443 196.632122 
L 109.867443 199.370323 
L 110.881989 199.370323 
L 110.881989 203.477623 
L 111.896534 203.477623 
L 111.896534 208.269474 
L 112.91108 208.269474 
L 112.91108 210.323124 
L 113.925625 210.323124 
L 113.925625 206.900374 
L 114.94017 206.900374 
L 114.94017 214.088149 
L 115.954716 214.088149 
L 115.954716 212.034499 
L 116.969261 212.034499 
L 116.969261 211.692224 
L 117.983807 211.692224 
L 117.983807 212.376774 
L 118.998352 212.376774 
L 118.998352 214.772699 
L 120.012898 214.772699 
L 120.012898 215.45725 
L 122.041989 215.45725 
L 122.041989 217.5109 
L 123.056534 217.5109 
L 123.056534 216.484075 
L 124.07108 216.484075 
L 124.07108 218.19545 
L 125.085625 218.19545 
L 125.085625 218.537725 
L 128.129261 218.537725 
L 128.129261 218.88 
L 147.405625 218.88 
L 147.405625 217.853175 
L 148.42017 217.853175 
L 148.42017 212.376774 
L 149.434716 212.376774 
L 149.434716 205.531273 
L 150.449261 205.531273 
L 150.449261 207.927199 
L 151.463807 207.927199 
L 151.463807 201.081698 
L 152.478352 201.081698 
L 152.478352 189.102071 
L 153.492898 189.102071 
L 153.492898 183.283396 
L 154.507443 183.283396 
L 154.507443 177.46472 
L 155.521989 177.46472 
L 155.521989 177.806995 
L 156.536534 177.806995 
L 156.536534 166.169643 
L 157.55108 166.169643 
L 157.55108 169.592394 
L 158.565625 169.592394 
L 158.565625 165.485093 
L 159.58017 165.485093 
L 159.58017 161.720068 
L 160.594716 161.720068 
L 160.594716 140.84129 
L 161.609261 140.84129 
L 161.609261 138.10309 
L 162.623807 138.10309 
L 162.623807 146.659966 
L 163.638352 146.659966 
L 163.638352 137.076265 
L 164.652898 137.076265 
L 164.652898 119.620238 
L 165.667443 119.620238 
L 165.667443 126.123463 
L 166.681989 126.123463 
L 166.681989 115.170662 
L 167.696534 115.170662 
L 167.696534 105.929236 
L 168.71108 105.929236 
L 168.71108 104.902411 
L 169.725625 104.902411 
L 169.725625 105.586961 
L 170.74017 105.586961 
L 170.74017 97.37236 
L 171.754716 97.37236 
L 171.754716 87.788659 
L 172.769261 87.788659 
L 172.769261 93.607334 
L 173.783807 93.607334 
L 173.783807 85.050458 
L 174.798352 85.050458 
L 174.798352 72.044007 
L 175.812898 72.044007 
L 175.812898 83.339083 
L 176.827443 83.339083 
L 176.827443 77.862683 
L 177.841989 77.862683 
L 177.841989 68.621256 
L 178.856534 68.621256 
L 178.856534 71.701732 
L 179.87108 71.701732 
L 179.87108 48.427029 
L 180.885625 48.427029 
L 180.885625 46.715654 
L 181.90017 46.715654 
L 181.90017 56.64163 
L 182.914716 56.64163 
L 182.914716 44.662003 
L 183.929261 44.662003 
L 183.929261 43.292903 
L 184.943807 43.292903 
L 184.943807 41.239253 
L 185.958352 41.239253 
L 185.958352 28.917351 
L 186.972898 28.917351 
L 186.972898 33.366927 
L 187.987443 33.366927 
L 187.987443 38.843328 
L 189.001989 38.843328 
L 189.001989 36.789677 
L 190.016534 36.789677 
L 190.016534 31.655552 
L 191.03108 31.655552 
L 191.03108 27.548251 
L 192.045625 27.548251 
L 192.045625 17.28 
L 193.06017 17.28 
L 193.06017 39.527878 
L 194.074716 39.527878 
L 194.074716 25.494601 
L 195.089261 25.494601 
L 195.089261 34.393752 
L 196.103807 34.393752 
L 196.103807 21.729576 
L 197.118352 21.729576 
L 197.118352 34.736027 
L 198.132898 34.736027 
L 198.132898 32.682377 
L 199.147443 32.682377 
L 199.147443 36.789677 
L 200.161989 36.789677 
L 200.161989 28.917351 
L 201.176534 28.917351 
L 201.176534 35.078302 
L 202.19108 35.078302 
L 202.19108 46.373379 
L 203.205625 46.373379 
L 203.205625 53.218879 
L 204.22017 53.218879 
L 204.22017 55.614805 
L 205.234716 55.614805 
L 205.234716 52.192054 
L 206.249261 52.192054 
L 206.249261 53.90343 
L 207.263807 53.90343 
L 207.263807 51.165229 
L 208.278352 51.165229 
L 208.278352 44.319728 
L 209.292898 44.319728 
L 209.292898 37.474228 
L 210.307443 37.474228 
L 210.307443 60.406655 
L 211.321989 60.406655 
L 211.321989 52.534329 
L 212.336534 52.534329 
L 212.336534 51.165229 
L 213.35108 51.165229 
L 213.35108 56.983905 
L 214.365625 56.983905 
L 214.365625 61.43348 
L 215.38017 61.43348 
L 215.38017 53.90343 
L 216.394716 53.90343 
L 216.394716 58.353005 
L 217.409261 58.353005 
L 217.409261 52.876604 
L 218.423807 52.876604 
L 218.423807 55.614805 
L 219.438352 55.614805 
L 219.438352 56.299355 
L 220.452898 56.299355 
L 220.452898 65.883056 
L 221.467443 65.883056 
L 221.467443 75.466757 
L 222.481989 75.466757 
L 222.481989 62.802581 
L 223.496534 62.802581 
L 223.496534 68.963531 
L 224.51108 68.963531 
L 224.51108 67.594431 
L 225.525625 67.594431 
L 225.525625 72.386282 
L 226.54017 72.386282 
L 226.54017 68.621256 
L 227.554716 68.621256 
L 227.554716 76.493582 
L 228.569261 76.493582 
L 228.569261 64.171681 
L 229.583807 64.171681 
L 229.583807 77.178132 
L 230.598352 77.178132 
L 230.598352 64.513956 
L 231.612898 64.513956 
L 231.612898 81.969983 
L 232.627443 81.969983 
L 232.627443 78.204958 
L 233.641989 78.204958 
L 233.641989 66.225331 
L 234.656534 66.225331 
L 234.656534 84.365908 
L 235.67108 84.365908 
L 235.67108 84.708183 
L 236.685625 84.708183 
L 236.685625 76.493582 
L 237.70017 76.493582 
L 237.70017 62.460306 
L 238.714716 62.460306 
L 238.714716 74.097657 
L 239.729261 74.097657 
L 239.729261 85.050458 
L 240.743807 85.050458 
L 240.743807 68.621256 
L 241.758352 68.621256 
L 241.758352 80.258608 
L 242.772898 80.258608 
L 242.772898 73.070832 
L 243.787443 73.070832 
L 243.787443 70.332632 
L 244.801989 70.332632 
L 244.801989 87.788659 
L 245.816534 87.788659 
L 245.816534 84.708183 
L 246.83108 84.708183 
L 246.83108 76.835857 
L 247.845625 76.835857 
L 247.845625 99.42601 
L 248.86017 99.42601 
L 248.86017 91.553684 
L 249.874716 91.553684 
L 249.874716 93.265059 
L 250.889261 93.265059 
L 250.889261 102.506486 
L 251.903807 102.506486 
L 251.903807 93.607334 
L 252.918352 93.607334 
L 252.918352 97.714635 
L 253.932898 97.714635 
L 253.932898 113.117012 
L 254.947443 113.117012 
L 254.947443 125.438913 
L 255.961989 125.438913 
L 255.961989 116.882037 
L 256.976534 116.882037 
L 256.976534 131.942139 
L 257.99108 131.942139 
L 257.99108 121.673888 
L 259.005625 121.673888 
L 259.005625 137.760815 
L 260.02017 137.760815 
L 260.02017 143.237216 
L 261.034716 143.237216 
L 261.034716 142.894941 
L 262.049261 142.894941 
L 262.049261 151.794092 
L 263.063807 151.794092 
L 263.063807 161.035518 
L 264.078352 161.035518 
L 264.078352 160.693243 
L 265.092898 160.693243 
L 265.092898 175.068795 
L 266.107443 175.068795 
L 266.107443 179.176095 
L 267.121989 179.176095 
L 267.121989 169.250119 
L 268.136534 169.250119 
L 268.136534 174.384244 
L 269.15108 174.384244 
L 269.15108 181.229745 
L 270.165625 181.229745 
L 270.165625 187.390696 
L 271.18017 187.390696 
L 271.18017 191.840272 
L 272.194716 191.840272 
L 272.194716 196.632122 
L 273.209261 196.632122 
L 273.209261 200.054873 
L 274.223807 200.054873 
L 274.223807 203.135348 
L 275.238352 203.135348 
L 275.238352 210.323124 
L 276.252898 210.323124 
L 276.252898 206.900374 
L 277.267443 206.900374 
L 277.267443 214.430424 
L 278.281989 214.430424 
L 278.281989 213.745874 
L 279.296534 213.745874 
L 279.296534 214.772699 
L 280.31108 214.772699 
L 280.31108 217.5109 
L 281.325625 217.5109 
L 281.325625 217.853175 
L 282.34017 217.853175 
L 282.34017 218.537725 
L 283.354716 218.537725 
L 283.354716 218.88 
L 293.50017 218.88 
L 293.50017 215.799525 
L 294.514716 215.799525 
L 294.514716 211.692224 
L 295.529261 211.692224 
L 295.529261 206.900374 
L 296.543807 206.900374 
L 296.543807 204.162173 
L 297.558352 204.162173 
L 297.558352 192.867097 
L 298.572898 192.867097 
L 298.572898 193.209372 
L 299.587443 193.209372 
L 299.587443 187.048421 
L 300.601989 187.048421 
L 300.601989 185.679321 
L 301.616534 185.679321 
L 301.616534 181.229745 
L 302.63108 181.229745 
L 302.63108 178.14927 
L 303.645625 178.14927 
L 303.645625 176.09562 
L 304.66017 176.09562 
L 304.66017 164.800543 
L 305.674716 164.800543 
L 305.674716 159.324143 
L 306.689261 159.324143 
L 306.689261 164.115993 
L 307.703807 164.115993 
L 307.703807 157.270492 
L 308.718352 157.270492 
L 308.718352 154.874567 
L 309.732898 154.874567 
L 309.732898 150.424992 
L 310.747443 150.424992 
L 310.747443 153.163192 
L 311.761989 153.163192 
L 311.761989 145.290866 
L 312.776534 145.290866 
L 312.776534 135.36489 
L 313.79108 135.36489 
L 313.79108 135.707165 
L 314.805625 135.707165 
L 314.805625 139.814465 
L 315.82017 139.814465 
L 315.82017 136.391715 
L 316.834716 136.391715 
L 316.834716 126.465739 
L 317.849261 126.465739 
L 317.849261 119.620238 
L 318.863807 119.620238 
L 318.863807 118.593413 
L 319.878352 118.593413 
L 319.878352 126.123463 
L 320.892898 126.123463 
L 320.892898 116.197487 
L 321.907443 116.197487 
L 321.907443 116.882037 
L 322.921989 116.882037 
L 322.921989 118.593413 
L 323.936534 118.593413 
L 323.936534 108.325161 
L 324.95108 108.325161 
L 324.95108 107.982886 
L 325.965625 107.982886 
L 325.965625 96.68781 
L 326.98017 96.68781 
L 326.98017 100.452835 
L 327.994716 100.452835 
L 327.994716 92.580509 
L 329.009261 92.580509 
L 329.009261 96.68781 
L 330.023807 96.68781 
L 330.023807 100.79511 
L 331.038352 100.79511 
L 331.038352 88.815484 
L 332.052898 88.815484 
L 332.052898 89.157759 
L 333.067443 89.157759 
L 333.067443 91.895959 
L 334.081989 91.895959 
L 334.081989 95.31871 
L 335.096534 95.31871 
L 335.096534 85.735008 
L 336.11108 85.735008 
L 336.11108 96.00326 
L 337.125625 96.00326 
L 337.125625 81.969983 
L 338.14017 81.969983 
L 338.14017 100.79511 
L 339.154716 100.79511 
L 339.154716 95.660985 
L 340.169261 95.660985 
L 340.169261 92.922784 
L 341.183807 92.922784 
L 341.183807 99.083735 
L 342.198352 99.083735 
L 342.198352 101.47966 
L 343.212898 101.47966 
L 343.212898 98.399185 
L 344.227443 98.399185 
L 344.227443 105.244686 
L 345.241989 105.244686 
L 345.241989 110.036537 
L 346.256534 110.036537 
L 346.256534 94.976435 
L 347.27108 94.976435 
L 347.27108 106.271511 
L 348.285625 106.271511 
L 348.285625 97.030085 
L 349.30017 97.030085 
L 349.30017 110.378812 
L 350.314716 110.378812 
L 350.314716 101.47966 
L 351.329261 101.47966 
L 351.329261 109.351986 
L 352.343807 109.351986 
L 352.343807 111.063362 
L 353.358352 111.063362 
L 353.358352 112.774737 
L 354.372898 112.774737 
L 354.372898 102.506486 
L 355.387443 102.506486 
L 355.387443 116.539762 
L 356.401989 116.539762 
L 356.401989 123.042988 
L 357.416534 123.042988 
L 357.416534 111.063362 
L 358.43108 111.063362 
L 358.43108 120.304788 
L 359.445625 120.304788 
L 359.445625 126.465739 
L 360.46017 126.465739 
L 360.46017 110.036537 
L 361.474716 110.036537 
L 361.474716 123.727538 
L 362.489261 123.727538 
L 362.489261 117.224312 
L 363.503807 117.224312 
L 363.503807 123.042988 
L 364.518352 123.042988 
L 364.518352 128.519389 
L 365.532898 128.519389 
L 365.532898 128.177114 
L 366.547443 128.177114 
L 366.547443 128.177114 
" clip-path="url(#p75870c79c4)" style="fill: none; stroke: #ff7f0e; stroke-width: 1.5; stroke-linecap: square"/>
   </g>
   <g id="patch_3">
    <path d="M 46.965625 228.96 
L 46.965625 7.2 
" style="fill: none; stroke: #000000; stroke-width: 0.8; stroke-linejoin: miter; stroke-linecap: square"/>
   </g>
   <g id="patch_4">
    <path d="M 381.765625 228.96 
L 381.765625 7.2 
" style="fill: none; stroke: #000000; stroke-width: 0.8; stroke-linejoin: miter; stroke-linecap: square"/>
   </g>
   <g id="patch_5">
    <path d="M 46.965625 228.96 
L 381.765625 228.96 
" style="fill: none; stroke: #000000; stroke-width: 0.8; stroke-linejoin: miter; stroke-linecap: square"/>
   </g>
   <g id="patch_6">
    <path d="M 46.965625 7.2 
L 381.765625 7.2 
" style="fill: none; stroke: #000000; stroke-width: 0.8; stroke-linejoin: miter; stroke-linecap: square"/>
   </g>
   <g id="legend_1">
    <g id="patch_7">
     <path d="M 246.957813 45.1125 
L 374.765625 45.1125 
Q 376.765625 45.1125 376.765625 43.1125 
L 376.765625 14.2 
Q 376.765625 12.2 374.765625 12.2 
L 246.957813 12.2 
Q 244.957813 12.2 244.957813 14.2 
L 244.957813 43.1125 
Q 244.957813 45.1125 246.957813 45.1125 
z
" style="fill: #ffffff; opacity: 0.8; stroke: #cccccc; stroke-linejoin: miter"/>
    </g>
    <g id="line2d_18">
     <path d="M 248.957813 20.298437 
L 248.957813 20.298437 
L 258.957813 20.298437 
L 258.957813 20.298437 
L 268.957813 20.298437 
" style="fill: none; stroke: #1f77b4; stroke-width: 1.5; stroke-linecap: square"/>
    </g>
    <g id="text_18">
     <!-- detector_number:0 -->
     <g transform="translate(276.957813 23.798437) scale(0.1 -0.1)">
      <defs>
       <path id="DejaVuSans-64" d="M 2906 2969 
L 2906 4863 
L 3481 4863 
L 3481 0 
L 2906 0 
L 2906 525 
Q 2725 213 2448 61 
Q 2172 -91 1784 -91 
Q 1150 -91 751 415 
Q 353 922 353 1747 
Q 353 2572 751 3078 
Q 1150 3584 1784 3584 
Q 2172 3584 2448 3432 
Q 2725 3281 2906 2969 
z
M 947 1747 
Q 947 1113 1208 752 
Q 1469 391 1925 391 
Q 2381 391 2643 752 
Q 2906 1113 2906 1747 
Q 2906 2381 2643 2742 
Q 2381 3103 1925 3103 
Q 1469 3103 1208 2742 
Q 947 2381 947 1747 
z
" transform="scale(0.015625)"/>
       <path id="DejaVuSans-72" d="M 2631 2963 
Q 2534 3019 2420 3045 
Q 2306 3072 2169 3072 
Q 1681 3072 1420 2755 
Q 1159 2438 1159 1844 
L 1159 0 
L 581 0 
L 581 3500 
L 1159 3500 
L 1159 2956 
Q 1341 3275 1631 3429 
Q 1922 3584 2338 3584 
Q 2397 3584 2469 3576 
Q 2541 3569 2628 3553 
L 2631 2963 
z
" transform="scale(0.015625)"/>
       <path id="DejaVuSans-62" d="M 3116 1747 
Q 3116 2381 2855 2742 
Q 2594 3103 2138 3103 
Q 1681 3103 1420 2742 
Q 1159 2381 1159 1747 
Q 1159 1113 1420 752 
Q 1681 391 2138 391 
Q 2594 391 2855 752 
Q 3116 1113 3116 1747 
z
M 1159 2969 
Q 1341 3281 1617 3432 
Q 1894 3584 2278 3584 
Q 2916 3584 3314 3078 
Q 3713 2572 3713 1747 
Q 3713 922 3314 415 
Q 2916 -91 2278 -91 
Q 1894 -91 1617 61 
Q 1341 213 1159 525 
L 1159 0 
L 581 0 
L 581 4863 
L 1159 4863 
L 1159 2969 
z
" transform="scale(0.015625)"/>
       <path id="DejaVuSans-3a" d="M 750 794 
L 1409 794 
L 1409 0 
L 750 0 
L 750 794 
z
M 750 3309 
L 1409 3309 
L 1409 2516 
L 750 2516 
L 750 3309 
z
" transform="scale(0.015625)"/>
      </defs>
      <use xlink:href="#DejaVuSans-64"/>
      <use xlink:href="#DejaVuSans-65" transform="translate(63.476562 0)"/>
      <use xlink:href="#DejaVuSans-74" transform="translate(125 0)"/>
      <use xlink:href="#DejaVuSans-65" transform="translate(164.208984 0)"/>
      <use xlink:href="#DejaVuSans-63" transform="translate(225.732422 0)"/>
      <use xlink:href="#DejaVuSans-74" transform="translate(280.712891 0)"/>
      <use xlink:href="#DejaVuSans-6f" transform="translate(319.921875 0)"/>
      <use xlink:href="#DejaVuSans-72" transform="translate(381.103516 0)"/>
      <use xlink:href="#DejaVuSans-5f" transform="translate(422.216797 0)"/>
      <use xlink:href="#DejaVuSans-6e" transform="translate(472.216797 0)"/>
      <use xlink:href="#DejaVuSans-75" transform="translate(535.595703 0)"/>
      <use xlink:href="#DejaVuSans-6d" transform="translate(598.974609 0)"/>
      <use xlink:href="#DejaVuSans-62" transform="translate(696.386719 0)"/>
      <use xlink:href="#DejaVuSans-65" transform="translate(759.863281 0)"/>
      <use xlink:href="#DejaVuSans-72" transform="translate(821.386719 0)"/>
      <use xlink:href="#DejaVuSans-3a" transform="translate(860.75 0)"/>
      <use xlink:href="#DejaVuSans-30" transform="translate(894.441406 0)"/>
     </g>
    </g>
    <g id="line2d_19">
     <path d="M 248.957813 35.254687 
L 248.957813 35.254687 
L 258.957813 35.254687 
L 258.957813 35.254687 
L 268.957813 35.254687 
" style="fill: none; stroke: #ff7f0e; stroke-width: 1.5; stroke-linecap: square"/>
    </g>
    <g id="text_19">
     <!-- detector_number:1 -->
     <g transform="translate(276.957813 38.754687) scale(0.1 -0.1)">
      <use xlink:href="#DejaVuSans-64"/>
      <use xlink:href="#DejaVuSans-65" transform="translate(63.476562 0)"/>
      <use xlink:href="#DejaVuSans-74" transform="translate(125 0)"/>
      <use xlink:href="#DejaVuSans-65" transform="translate(164.208984 0)"/>
      <use xlink:href="#DejaVuSans-63" transform="translate(225.732422 0)"/>
      <use xlink:href="#DejaVuSans-74" transform="translate(280.712891 0)"/>
      <use xlink:href="#DejaVuSans-6f" transform="translate(319.921875 0)"/>
      <use xlink:href="#DejaVuSans-72" transform="translate(381.103516 0)"/>
      <use xlink:href="#DejaVuSans-5f" transform="translate(422.216797 0)"/>
      <use xlink:href="#DejaVuSans-6e" transform="translate(472.216797 0)"/>
      <use xlink:href="#DejaVuSans-75" transform="translate(535.595703 0)"/>
      <use xlink:href="#DejaVuSans-6d" transform="translate(598.974609 0)"/>
      <use xlink:href="#DejaVuSans-62" transform="translate(696.386719 0)"/>
      <use xlink:href="#DejaVuSans-65" transform="translate(759.863281 0)"/>
      <use xlink:href="#DejaVuSans-72" transform="translate(821.386719 0)"/>
      <use xlink:href="#DejaVuSans-3a" transform="translate(860.75 0)"/>
      <use xlink:href="#DejaVuSans-31" transform="translate(894.441406 0)"/>
     </g>
    </g>
   </g>
  </g>
 </g>
 <defs>
  <clipPath id="p75870c79c4">
   <rect x="46.965625" y="7.2" width="334.8" height="221.76"/>
  </clipPath>
 </defs>
</svg>
