<?xml version="1.0" encoding="UTF-8" standalone="no"?>
<!DOCTYPE svg PUBLIC "-//W3C//DTD SVG 1.1//EN"
 "http://www.w3.org/Graphics/SVG/1.1/DTD/svg11.dtd">
<!-- Generated by graphviz version 2.43.0 (0)
 -->
<!-- Title: %3 Pages: 1 -->
<svg width="903pt" height="238pt"
 viewBox="0.00 0.00 902.50 238.00" xmlns="http://www.w3.org/2000/svg" xmlns:xlink="http://www.w3.org/1999/xlink">
<g id="graph0" class="graph" transform="scale(1 1) rotate(0) translate(4 234)">
<title>%3</title>
<polygon fill="white" stroke="transparent" points="-4,4 -4,-234 898.5,-234 898.5,4 -4,4"/>
<!-- DetectorLtotal[SampleRun] -->
<g id="node1" class="node">
<title>DetectorLtotal[SampleRun]</title>
<polygon fill="none" stroke="black" points="213,-97 0,-97 0,-74 213,-74 213,-97"/>
<text text-anchor="middle" x="106.5" y="-81.8" font-family="Times,serif" font-size="14.00">DetectorLtotal[SampleRun]</text>
</g>
<!-- TofDetector[SampleRun] -->
<g id="node8" class="node">
<title>TofDetector[SampleRun]</title>
<polygon fill="none" stroke="black" points="593.5,-33 397.5,-33 397.5,0 593.5,0 593.5,-33"/>
<text text-anchor="start" x="407" y="-18.8" font-family="Times,serif" font-size="14.00">TofDetector[SampleRun]</text>
<text text-anchor="start" x="405.5" y="-7.2" font-family="Times,serif" font-size="11.00">via:</text>
<text text-anchor="start" x="426.5" y="-7.2" font-family="Times,serif" font-style="italic" font-size="11.00">detector_time_of_flight_data</text>
</g>
<!-- DetectorLtotal[SampleRun]&#45;&gt;TofDetector[SampleRun] -->
<g id="edge6" class="edge">
<title>DetectorLtotal[SampleRun]&#45;&gt;TofDetector[SampleRun]</title>
<path fill="none" stroke="black" d="M167.71,-73.96C228.71,-63.45 323.41,-47.14 395.36,-34.75"/>
<polygon fill="black" stroke="black" points="396.1,-38.17 405.36,-33.03 394.91,-31.27 396.1,-38.17"/>
</g>
<!-- TofLookupTable -->
<g id="node2" class="node">
<title>TofLookupTable</title>
<polygon fill="none" stroke="black" points="232.5,-171 74.5,-171 74.5,-138 232.5,-138 232.5,-171"/>
<text text-anchor="start" x="97.5" y="-156.8" font-family="Times,serif" font-size="14.00">TofLookupTable</text>
<text text-anchor="start" x="82.5" y="-145.2" font-family="Times,serif" font-size="11.00">via:</text>
<text text-anchor="start" x="103.5" y="-145.2" font-family="Times,serif" font-style="italic" font-size="11.00">load_tof_lookup_table</text>
</g>
<!-- ErrorLimitedTofLookupTable[NXdetector] -->
<g id="node3" class="node">
<title>ErrorLimitedTofLookupTable[NXdetector]</title>
<polygon fill="none" stroke="black" points="534.5,-102 220.5,-102 220.5,-69 534.5,-69 534.5,-102"/>
<text text-anchor="start" x="228.5" y="-87.8" font-family="Times,serif" font-size="14.00">ErrorLimitedTofLookupTable[NXdetector]</text>
<text text-anchor="start" x="255.5" y="-76.2" font-family="Times,serif" font-size="11.00">via:</text>
<text text-anchor="start" x="276.5" y="-76.2" font-family="Times,serif" font-style="italic" font-size="11.00">mask_large_uncertainty_in_lut_detector</text>
</g>
<!-- TofLookupTable&#45;&gt;ErrorLimitedTofLookupTable[NXdetector] -->
<g id="edge1" class="edge">
<title>TofLookupTable&#45;&gt;ErrorLimitedTofLookupTable[NXdetector]</title>
<path fill="none" stroke="black" d="M205.45,-137.96C238.27,-128.14 280.86,-115.41 315.45,-105.06"/>
<polygon fill="black" stroke="black" points="316.86,-108.29 325.44,-102.07 314.86,-101.58 316.86,-108.29"/>
</g>
<!-- ErrorLimitedTofLookupTable[NXdetector]&#45;&gt;TofDetector[SampleRun] -->
<g id="edge5" class="edge">
<title>ErrorLimitedTofLookupTable[NXdetector]&#45;&gt;TofDetector[SampleRun]</title>
<path fill="none" stroke="black" d="M404.87,-68.96C420.99,-59.81 441.57,-48.12 459.05,-38.19"/>
<polygon fill="black" stroke="black" points="460.9,-41.17 467.87,-33.19 457.45,-35.08 460.9,-41.17"/>
</g>
<!-- LookupTableRelativeErrorThreshold -->
<g id="node4" class="node">
<title>LookupTableRelativeErrorThreshold</title>
<polygon fill="none" stroke="black" points="515,-166 240,-166 240,-143 515,-143 515,-166"/>
<text text-anchor="middle" x="377.5" y="-150.8" font-family="Times,serif" font-size="14.00">LookupTableRelativeErrorThreshold</text>
</g>
<!-- LookupTableRelativeErrorThreshold&#45;&gt;ErrorLimitedTofLookupTable[NXdetector] -->
<g id="edge2" class="edge">
<title>LookupTableRelativeErrorThreshold&#45;&gt;ErrorLimitedTofLookupTable[NXdetector]</title>
<path fill="none" stroke="black" d="M377.5,-142.74C377.5,-134.52 377.5,-122.86 377.5,-112.28"/>
<polygon fill="black" stroke="black" points="381,-112.23 377.5,-102.23 374,-112.24 381,-112.23"/>
</g>
<!-- NeXusName[NXdetector] -->
<g id="node5" class="node">
<title>NeXusName[NXdetector]</title>
<polygon fill="none" stroke="black" points="719,-166 522,-166 522,-143 719,-143 719,-166"/>
<text text-anchor="middle" x="620.5" y="-150.8" font-family="Times,serif" font-size="14.00">NeXusName[NXdetector]</text>
</g>
<!-- NeXusName[NXdetector]&#45;&gt;ErrorLimitedTofLookupTable[NXdetector] -->
<g id="edge3" class="edge">
<title>NeXusName[NXdetector]&#45;&gt;ErrorLimitedTofLookupTable[NXdetector]</title>
<path fill="none" stroke="black" d="M582.26,-142.96C545.23,-132.75 488.32,-117.06 443.89,-104.81"/>
<polygon fill="black" stroke="black" points="444.61,-101.37 434.04,-102.09 442.75,-108.12 444.61,-101.37"/>
</g>
<!-- PulseStrideOffset -->
<g id="node6" class="node">
<title>PulseStrideOffset</title>
<polygon fill="none" stroke="black" points="685,-97 542,-97 542,-74 685,-74 685,-97"/>
<text text-anchor="middle" x="613.5" y="-81.8" font-family="Times,serif" font-size="14.00">PulseStrideOffset</text>
</g>
<!-- PulseStrideOffset&#45;&gt;TofDetector[SampleRun] -->
<g id="edge7" class="edge">
<title>PulseStrideOffset&#45;&gt;TofDetector[SampleRun]</title>
<path fill="none" stroke="black" d="M594.8,-73.88C577.93,-64.31 552.64,-49.95 531.81,-38.12"/>
<polygon fill="black" stroke="black" points="533.32,-34.95 522.89,-33.05 529.86,-41.03 533.32,-34.95"/>
</g>
<!-- RawDetector[SampleRun] -->
<g id="node7" class="node">
<title>RawDetector[SampleRun]</title>
<polygon fill="none" stroke="black" points="894.5,-97 692.5,-97 692.5,-74 894.5,-74 894.5,-97"/>
<text text-anchor="middle" x="793.5" y="-81.8" font-family="Times,serif" font-size="14.00">RawDetector[SampleRun]</text>
</g>
<!-- RawDetector[SampleRun]&#45;&gt;TofDetector[SampleRun] -->
<g id="edge4" class="edge">
<title>RawDetector[SampleRun]&#45;&gt;TofDetector[SampleRun]</title>
<path fill="none" stroke="black" d="M746.61,-73.96C700.55,-63.6 629.41,-47.61 574.59,-35.28"/>
<polygon fill="black" stroke="black" points="575.08,-31.8 564.55,-33.03 573.54,-38.63 575.08,-31.8"/>
</g>
<!-- TofLookupTableFilename -->
<g id="node9" class="node">
<title>TofLookupTableFilename</title>
<polygon fill="none" stroke="red" stroke-dasharray="5,2" points="250.5,-230 56.5,-230 56.5,-207 250.5,-207 250.5,-230"/>
<text text-anchor="middle" x="153.5" y="-214.8" font-family="Times,serif" font-size="14.00" fill="red">TofLookupTableFilename</text>
</g>
<!-- TofLookupTableFilename&#45;&gt;TofLookupTable -->
<g id="edge8" class="edge">
<title>TofLookupTableFilename&#45;&gt;TofLookupTable</title>
<path fill="none" stroke="black" d="M153.5,-206.98C153.5,-199.93 153.5,-190.32 153.5,-181.31"/>
<polygon fill="black" stroke="black" points="157,-181.2 153.5,-171.2 150,-181.2 157,-181.2"/>
</g>
</g>
</svg>
