<?xml version="1.0" encoding="utf-8" standalone="no"?>
<!DOCTYPE svg PUBLIC "-//W3C//DTD SVG 1.1//EN"
  "http://www.w3.org/Graphics/SVG/1.1/DTD/svg11.dtd">
<svg xmlns:xlink="http://www.w3.org/1999/xlink" width="872.39952pt" height="296.39952pt" viewBox="0 0 872.39952 296.39952" xmlns="http://www.w3.org/2000/svg" version="1.1">
 <metadata>
  <rdf:RDF xmlns:dc="http://purl.org/dc/elements/1.1/" xmlns:cc="http://creativecommons.org/ns#" xmlns:rdf="http://www.w3.org/1999/02/22-rdf-syntax-ns#">
   <cc:Work>
    <dc:type rdf:resource="http://purl.org/dc/dcmitype/StillImage"/>
    <dc:date>2026-02-02T14:27:17.451235</dc:date>
    <dc:format>image/svg+xml</dc:format>
    <dc:creator>
     <cc:Agent>
      <dc:title>Matplotlib v3.10.8, https://matplotlib.org/</dc:title>
     </cc:Agent>
    </dc:creator>
   </cc:Work>
  </rdf:RDF>
 </metadata>
 <defs>
  <style type="text/css">*{stroke-linejoin: round; stroke-linecap: butt}</style>
 </defs>
 <g id="figure_1">
  <g id="patch_1">
   <path d="M 0 296.39952 
L 872.39952 296.39952 
L 872.39952 0 
L 0 0 
z
" style="fill: #ffffff"/>
  </g>
  <g id="axes_1">
   <g id="patch_2">
    <path d="M 46.965625 257.158895 
L 414.59976 257.158895 
L 414.59976 22.318125 
L 46.965625 22.318125 
z
" style="fill: #ffffff"/>
   </g>
   <g id="matplotlib.axis_1">
    <g id="xtick_1">
     <g id="line2d_1">
      <defs>
       <path id="m8b324e3908" d="M 0 0 
L 0 3.5 
" style="stroke: #000000; stroke-width: 0.8"/>
      </defs>
      <g>
       <use xlink:href="#m8b324e3908" x="81.266418" y="257.158895" style="stroke: #000000; stroke-width: 0.8"/>
      </g>
     </g>
     <g id="text_1">
      <!-- 1.0 -->
      <g transform="translate(73.314855 271.757332) scale(0.1 -0.1)">
       <defs>
        <path id="DejaVuSans-31" d="M 794 531 
L 1825 531 
L 1825 4091 
L 703 3866 
L 703 4441 
L 1819 4666 
L 2450 4666 
L 2450 531 
L 3481 531 
L 3481 0 
L 794 0 
L 794 531 
z
" transform="scale(0.015625)"/>
        <path id="DejaVuSans-2e" d="M 684 794 
L 1344 794 
L 1344 0 
L 684 0 
L 684 794 
z
" transform="scale(0.015625)"/>
        <path id="DejaVuSans-30" d="M 2034 4250 
Q 1547 4250 1301 3770 
Q 1056 3291 1056 2328 
Q 1056 1369 1301 889 
Q 1547 409 2034 409 
Q 2525 409 2770 889 
Q 3016 1369 3016 2328 
Q 3016 3291 2770 3770 
Q 2525 4250 2034 4250 
z
M 2034 4750 
Q 2819 4750 3233 4129 
Q 3647 3509 3647 2328 
Q 3647 1150 3233 529 
Q 2819 -91 2034 -91 
Q 1250 -91 836 529 
Q 422 1150 422 2328 
Q 422 3509 836 4129 
Q 1250 4750 2034 4750 
z
" transform="scale(0.015625)"/>
       </defs>
       <use xlink:href="#DejaVuSans-31"/>
       <use xlink:href="#DejaVuSans-2e" transform="translate(63.623047 0)"/>
       <use xlink:href="#DejaVuSans-30" transform="translate(95.410156 0)"/>
      </g>
     </g>
    </g>
    <g id="xtick_2">
     <g id="line2d_2">
      <g>
       <use xlink:href="#m8b324e3908" x="125.241793" y="257.158895" style="stroke: #000000; stroke-width: 0.8"/>
      </g>
     </g>
     <g id="text_2">
      <!-- 1.5 -->
      <g transform="translate(117.29023 271.757332) scale(0.1 -0.1)">
       <defs>
        <path id="DejaVuSans-35" d="M 691 4666 
L 3169 4666 
L 3169 4134 
L 1269 4134 
L 1269 2991 
Q 1406 3038 1543 3061 
Q 1681 3084 1819 3084 
Q 2600 3084 3056 2656 
Q 3513 2228 3513 1497 
Q 3513 744 3044 326 
Q 2575 -91 1722 -91 
Q 1428 -91 1123 -41 
Q 819 9 494 109 
L 494 744 
Q 775 591 1075 516 
Q 1375 441 1709 441 
Q 2250 441 2565 725 
Q 2881 1009 2881 1497 
Q 2881 1984 2565 2268 
Q 2250 2553 1709 2553 
Q 1456 2553 1204 2497 
Q 953 2441 691 2322 
L 691 4666 
z
" transform="scale(0.015625)"/>
       </defs>
       <use xlink:href="#DejaVuSans-31"/>
       <use xlink:href="#DejaVuSans-2e" transform="translate(63.623047 0)"/>
       <use xlink:href="#DejaVuSans-35" transform="translate(95.410156 0)"/>
      </g>
     </g>
    </g>
    <g id="xtick_3">
     <g id="line2d_3">
      <g>
       <use xlink:href="#m8b324e3908" x="169.217168" y="257.158895" style="stroke: #000000; stroke-width: 0.8"/>
      </g>
     </g>
     <g id="text_3">
      <!-- 2.0 -->
      <g transform="translate(161.265605 271.757332) scale(0.1 -0.1)">
       <defs>
        <path id="DejaVuSans-32" d="M 1228 531 
L 3431 531 
L 3431 0 
L 469 0 
L 469 531 
Q 828 903 1448 1529 
Q 2069 2156 2228 2338 
Q 2531 2678 2651 2914 
Q 2772 3150 2772 3378 
Q 2772 3750 2511 3984 
Q 2250 4219 1831 4219 
Q 1534 4219 1204 4116 
Q 875 4013 500 3803 
L 500 4441 
Q 881 4594 1212 4672 
Q 1544 4750 1819 4750 
Q 2544 4750 2975 4387 
Q 3406 4025 3406 3419 
Q 3406 3131 3298 2873 
Q 3191 2616 2906 2266 
Q 2828 2175 2409 1742 
Q 1991 1309 1228 531 
z
" transform="scale(0.015625)"/>
       </defs>
       <use xlink:href="#DejaVuSans-32"/>
       <use xlink:href="#DejaVuSans-2e" transform="translate(63.623047 0)"/>
       <use xlink:href="#DejaVuSans-30" transform="translate(95.410156 0)"/>
      </g>
     </g>
    </g>
    <g id="xtick_4">
     <g id="line2d_4">
      <g>
       <use xlink:href="#m8b324e3908" x="213.192543" y="257.158895" style="stroke: #000000; stroke-width: 0.8"/>
      </g>
     </g>
     <g id="text_4">
      <!-- 2.5 -->
      <g transform="translate(205.24098 271.757332) scale(0.1 -0.1)">
       <use xlink:href="#DejaVuSans-32"/>
       <use xlink:href="#DejaVuSans-2e" transform="translate(63.623047 0)"/>
       <use xlink:href="#DejaVuSans-35" transform="translate(95.410156 0)"/>
      </g>
     </g>
    </g>
    <g id="xtick_5">
     <g id="line2d_5">
      <g>
       <use xlink:href="#m8b324e3908" x="257.167918" y="257.158895" style="stroke: #000000; stroke-width: 0.8"/>
      </g>
     </g>
     <g id="text_5">
      <!-- 3.0 -->
      <g transform="translate(249.216355 271.757332) scale(0.1 -0.1)">
       <defs>
        <path id="DejaVuSans-33" d="M 2597 2516 
Q 3050 2419 3304 2112 
Q 3559 1806 3559 1356 
Q 3559 666 3084 287 
Q 2609 -91 1734 -91 
Q 1441 -91 1130 -33 
Q 819 25 488 141 
L 488 750 
Q 750 597 1062 519 
Q 1375 441 1716 441 
Q 2309 441 2620 675 
Q 2931 909 2931 1356 
Q 2931 1769 2642 2001 
Q 2353 2234 1838 2234 
L 1294 2234 
L 1294 2753 
L 1863 2753 
Q 2328 2753 2575 2939 
Q 2822 3125 2822 3475 
Q 2822 3834 2567 4026 
Q 2313 4219 1838 4219 
Q 1578 4219 1281 4162 
Q 984 4106 628 3988 
L 628 4550 
Q 988 4650 1302 4700 
Q 1616 4750 1894 4750 
Q 2613 4750 3031 4423 
Q 3450 4097 3450 3541 
Q 3450 3153 3228 2886 
Q 3006 2619 2597 2516 
z
" transform="scale(0.015625)"/>
       </defs>
       <use xlink:href="#DejaVuSans-33"/>
       <use xlink:href="#DejaVuSans-2e" transform="translate(63.623047 0)"/>
       <use xlink:href="#DejaVuSans-30" transform="translate(95.410156 0)"/>
      </g>
     </g>
    </g>
    <g id="xtick_6">
     <g id="line2d_6">
      <g>
       <use xlink:href="#m8b324e3908" x="301.143293" y="257.158895" style="stroke: #000000; stroke-width: 0.8"/>
      </g>
     </g>
     <g id="text_6">
      <!-- 3.5 -->
      <g transform="translate(293.19173 271.757332) scale(0.1 -0.1)">
       <use xlink:href="#DejaVuSans-33"/>
       <use xlink:href="#DejaVuSans-2e" transform="translate(63.623047 0)"/>
       <use xlink:href="#DejaVuSans-35" transform="translate(95.410156 0)"/>
      </g>
     </g>
    </g>
    <g id="xtick_7">
     <g id="line2d_7">
      <g>
       <use xlink:href="#m8b324e3908" x="345.118668" y="257.158895" style="stroke: #000000; stroke-width: 0.8"/>
      </g>
     </g>
     <g id="text_7">
      <!-- 4.0 -->
      <g transform="translate(337.167105 271.757332) scale(0.1 -0.1)">
       <defs>
        <path id="DejaVuSans-34" d="M 2419 4116 
L 825 1625 
L 2419 1625 
L 2419 4116 
z
M 2253 4666 
L 3047 4666 
L 3047 1625 
L 3713 1625 
L 3713 1100 
L 3047 1100 
L 3047 0 
L 2419 0 
L 2419 1100 
L 313 1100 
L 313 1709 
L 2253 4666 
z
" transform="scale(0.015625)"/>
       </defs>
       <use xlink:href="#DejaVuSans-34"/>
       <use xlink:href="#DejaVuSans-2e" transform="translate(63.623047 0)"/>
       <use xlink:href="#DejaVuSans-30" transform="translate(95.410156 0)"/>
      </g>
     </g>
    </g>
    <g id="xtick_8">
     <g id="line2d_8">
      <g>
       <use xlink:href="#m8b324e3908" x="389.094043" y="257.158895" style="stroke: #000000; stroke-width: 0.8"/>
      </g>
     </g>
     <g id="text_8">
      <!-- 4.5 -->
      <g transform="translate(381.14248 271.757332) scale(0.1 -0.1)">
       <use xlink:href="#DejaVuSans-34"/>
       <use xlink:href="#DejaVuSans-2e" transform="translate(63.623047 0)"/>
       <use xlink:href="#DejaVuSans-35" transform="translate(95.410156 0)"/>
      </g>
     </g>
    </g>
    <g id="text_9">
     <!-- wavelength [Å] -->
     <g transform="translate(192.745193 287.119832) scale(0.1 -0.1)">
      <defs>
       <path id="DejaVuSans-77" d="M 269 3500 
L 844 3500 
L 1563 769 
L 2278 3500 
L 2956 3500 
L 3675 769 
L 4391 3500 
L 4966 3500 
L 4050 0 
L 3372 0 
L 2619 2869 
L 1863 0 
L 1184 0 
L 269 3500 
z
" transform="scale(0.015625)"/>
       <path id="DejaVuSans-61" d="M 2194 1759 
Q 1497 1759 1228 1600 
Q 959 1441 959 1056 
Q 959 750 1161 570 
Q 1363 391 1709 391 
Q 2188 391 2477 730 
Q 2766 1069 2766 1631 
L 2766 1759 
L 2194 1759 
z
M 3341 1997 
L 3341 0 
L 2766 0 
L 2766 531 
Q 2569 213 2275 61 
Q 1981 -91 1556 -91 
Q 1019 -91 701 211 
Q 384 513 384 1019 
Q 384 1609 779 1909 
Q 1175 2209 1959 2209 
L 2766 2209 
L 2766 2266 
Q 2766 2663 2505 2880 
Q 2244 3097 1772 3097 
Q 1472 3097 1187 3025 
Q 903 2953 641 2809 
L 641 3341 
Q 956 3463 1253 3523 
Q 1550 3584 1831 3584 
Q 2591 3584 2966 3190 
Q 3341 2797 3341 1997 
z
" transform="scale(0.015625)"/>
       <path id="DejaVuSans-76" d="M 191 3500 
L 800 3500 
L 1894 563 
L 2988 3500 
L 3597 3500 
L 2284 0 
L 1503 0 
L 191 3500 
z
" transform="scale(0.015625)"/>
       <path id="DejaVuSans-65" d="M 3597 1894 
L 3597 1613 
L 953 1613 
Q 991 1019 1311 708 
Q 1631 397 2203 397 
Q 2534 397 2845 478 
Q 3156 559 3463 722 
L 3463 178 
Q 3153 47 2828 -22 
Q 2503 -91 2169 -91 
Q 1331 -91 842 396 
Q 353 884 353 1716 
Q 353 2575 817 3079 
Q 1281 3584 2069 3584 
Q 2775 3584 3186 3129 
Q 3597 2675 3597 1894 
z
M 3022 2063 
Q 3016 2534 2758 2815 
Q 2500 3097 2075 3097 
Q 1594 3097 1305 2825 
Q 1016 2553 972 2059 
L 3022 2063 
z
" transform="scale(0.015625)"/>
       <path id="DejaVuSans-6c" d="M 603 4863 
L 1178 4863 
L 1178 0 
L 603 0 
L 603 4863 
z
" transform="scale(0.015625)"/>
       <path id="DejaVuSans-6e" d="M 3513 2113 
L 3513 0 
L 2938 0 
L 2938 2094 
Q 2938 2591 2744 2837 
Q 2550 3084 2163 3084 
Q 1697 3084 1428 2787 
Q 1159 2491 1159 1978 
L 1159 0 
L 581 0 
L 581 3500 
L 1159 3500 
L 1159 2956 
Q 1366 3272 1645 3428 
Q 1925 3584 2291 3584 
Q 2894 3584 3203 3211 
Q 3513 2838 3513 2113 
z
" transform="scale(0.015625)"/>
       <path id="DejaVuSans-67" d="M 2906 1791 
Q 2906 2416 2648 2759 
Q 2391 3103 1925 3103 
Q 1463 3103 1205 2759 
Q 947 2416 947 1791 
Q 947 1169 1205 825 
Q 1463 481 1925 481 
Q 2391 481 2648 825 
Q 2906 1169 2906 1791 
z
M 3481 434 
Q 3481 -459 3084 -895 
Q 2688 -1331 1869 -1331 
Q 1566 -1331 1297 -1286 
Q 1028 -1241 775 -1147 
L 775 -588 
Q 1028 -725 1275 -790 
Q 1522 -856 1778 -856 
Q 2344 -856 2625 -561 
Q 2906 -266 2906 331 
L 2906 616 
Q 2728 306 2450 153 
Q 2172 0 1784 0 
Q 1141 0 747 490 
Q 353 981 353 1791 
Q 353 2603 747 3093 
Q 1141 3584 1784 3584 
Q 2172 3584 2450 3431 
Q 2728 3278 2906 2969 
L 2906 3500 
L 3481 3500 
L 3481 434 
z
" transform="scale(0.015625)"/>
       <path id="DejaVuSans-74" d="M 1172 4494 
L 1172 3500 
L 2356 3500 
L 2356 3053 
L 1172 3053 
L 1172 1153 
Q 1172 725 1289 603 
Q 1406 481 1766 481 
L 2356 481 
L 2356 0 
L 1766 0 
Q 1100 0 847 248 
Q 594 497 594 1153 
L 594 3053 
L 172 3053 
L 172 3500 
L 594 3500 
L 594 4494 
L 1172 4494 
z
" transform="scale(0.015625)"/>
       <path id="DejaVuSans-68" d="M 3513 2113 
L 3513 0 
L 2938 0 
L 2938 2094 
Q 2938 2591 2744 2837 
Q 2550 3084 2163 3084 
Q 1697 3084 1428 2787 
Q 1159 2491 1159 1978 
L 1159 0 
L 581 0 
L 581 4863 
L 1159 4863 
L 1159 2956 
Q 1366 3272 1645 3428 
Q 1925 3584 2291 3584 
Q 2894 3584 3203 3211 
Q 3513 2838 3513 2113 
z
" transform="scale(0.015625)"/>
       <path id="DejaVuSans-20" transform="scale(0.015625)"/>
       <path id="DejaVuSans-5b" d="M 550 4863 
L 1875 4863 
L 1875 4416 
L 1125 4416 
L 1125 -397 
L 1875 -397 
L 1875 -844 
L 550 -844 
L 550 4863 
z
" transform="scale(0.015625)"/>
       <path id="DejaVuSans-c5" d="M 2663 5081 
Q 2663 5278 2523 5417 
Q 2384 5556 2188 5556 
Q 1988 5556 1852 5420 
Q 1716 5284 1716 5081 
Q 1716 4884 1853 4746 
Q 1991 4609 2188 4609 
Q 2384 4609 2523 4746 
Q 2663 4884 2663 5081 
z
M 2188 4044 
L 1338 1722 
L 3041 1722 
L 2188 4044 
z
M 1716 4366 
Q 1525 4494 1428 4673 
Q 1331 4853 1331 5081 
Q 1331 5441 1579 5691 
Q 1828 5941 2188 5941 
Q 2544 5941 2795 5689 
Q 3047 5438 3047 5081 
Q 3047 4863 2948 4678 
Q 2850 4494 2663 4366 
L 4325 0 
L 3669 0 
L 3244 1197 
L 1141 1197 
L 716 0 
L 50 0 
L 1716 4366 
z
" transform="scale(0.015625)"/>
       <path id="DejaVuSans-5d" d="M 1947 4863 
L 1947 -844 
L 622 -844 
L 622 -397 
L 1369 -397 
L 1369 4416 
L 622 4416 
L 622 4863 
L 1947 4863 
z
" transform="scale(0.015625)"/>
      </defs>
      <use xlink:href="#DejaVuSans-77"/>
      <use xlink:href="#DejaVuSans-61" transform="translate(81.787109 0)"/>
      <use xlink:href="#DejaVuSans-76" transform="translate(143.066406 0)"/>
      <use xlink:href="#DejaVuSans-65" transform="translate(202.246094 0)"/>
      <use xlink:href="#DejaVuSans-6c" transform="translate(263.769531 0)"/>
      <use xlink:href="#DejaVuSans-65" transform="translate(291.552734 0)"/>
      <use xlink:href="#DejaVuSans-6e" transform="translate(353.076172 0)"/>
      <use xlink:href="#DejaVuSans-67" transform="translate(416.455078 0)"/>
      <use xlink:href="#DejaVuSans-74" transform="translate(479.931641 0)"/>
      <use xlink:href="#DejaVuSans-68" transform="translate(519.140625 0)"/>
      <use xlink:href="#DejaVuSans-20" transform="translate(582.519531 0)"/>
      <use xlink:href="#DejaVuSans-5b" transform="translate(614.306641 0)"/>
      <use xlink:href="#DejaVuSans-c5" transform="translate(653.320312 0)"/>
      <use xlink:href="#DejaVuSans-5d" transform="translate(721.728516 0)"/>
     </g>
    </g>
   </g>
   <g id="matplotlib.axis_2">
    <g id="ytick_1">
     <g id="line2d_9">
      <defs>
       <path id="m45f1e2cb66" d="M 0 0 
L -3.5 0 
" style="stroke: #000000; stroke-width: 0.8"/>
      </defs>
      <g>
       <use xlink:href="#m45f1e2cb66" x="46.965625" y="246.484315" style="stroke: #000000; stroke-width: 0.8"/>
      </g>
     </g>
     <g id="text_10">
      <!-- 0 -->
      <g transform="translate(33.603125 250.283533) scale(0.1 -0.1)">
       <use xlink:href="#DejaVuSans-30"/>
      </g>
     </g>
    </g>
    <g id="ytick_2">
     <g id="line2d_10">
      <g>
       <use xlink:href="#m45f1e2cb66" x="46.965625" y="195.409767" style="stroke: #000000; stroke-width: 0.8"/>
      </g>
     </g>
     <g id="text_11">
      <!-- 200 -->
      <g transform="translate(20.878125 199.208986) scale(0.1 -0.1)">
       <use xlink:href="#DejaVuSans-32"/>
       <use xlink:href="#DejaVuSans-30" transform="translate(63.623047 0)"/>
       <use xlink:href="#DejaVuSans-30" transform="translate(127.246094 0)"/>
      </g>
     </g>
    </g>
    <g id="ytick_3">
     <g id="line2d_11">
      <g>
       <use xlink:href="#m45f1e2cb66" x="46.965625" y="144.335219" style="stroke: #000000; stroke-width: 0.8"/>
      </g>
     </g>
     <g id="text_12">
      <!-- 400 -->
      <g transform="translate(20.878125 148.134438) scale(0.1 -0.1)">
       <use xlink:href="#DejaVuSans-34"/>
       <use xlink:href="#DejaVuSans-30" transform="translate(63.623047 0)"/>
       <use xlink:href="#DejaVuSans-30" transform="translate(127.246094 0)"/>
      </g>
     </g>
    </g>
    <g id="ytick_4">
     <g id="line2d_12">
      <g>
       <use xlink:href="#m45f1e2cb66" x="46.965625" y="93.260672" style="stroke: #000000; stroke-width: 0.8"/>
      </g>
     </g>
     <g id="text_13">
      <!-- 600 -->
      <g transform="translate(20.878125 97.05989) scale(0.1 -0.1)">
       <defs>
        <path id="DejaVuSans-36" d="M 2113 2584 
Q 1688 2584 1439 2293 
Q 1191 2003 1191 1497 
Q 1191 994 1439 701 
Q 1688 409 2113 409 
Q 2538 409 2786 701 
Q 3034 994 3034 1497 
Q 3034 2003 2786 2293 
Q 2538 2584 2113 2584 
z
M 3366 4563 
L 3366 3988 
Q 3128 4100 2886 4159 
Q 2644 4219 2406 4219 
Q 1781 4219 1451 3797 
Q 1122 3375 1075 2522 
Q 1259 2794 1537 2939 
Q 1816 3084 2150 3084 
Q 2853 3084 3261 2657 
Q 3669 2231 3669 1497 
Q 3669 778 3244 343 
Q 2819 -91 2113 -91 
Q 1303 -91 875 529 
Q 447 1150 447 2328 
Q 447 3434 972 4092 
Q 1497 4750 2381 4750 
Q 2619 4750 2861 4703 
Q 3103 4656 3366 4563 
z
" transform="scale(0.015625)"/>
       </defs>
       <use xlink:href="#DejaVuSans-36"/>
       <use xlink:href="#DejaVuSans-30" transform="translate(63.623047 0)"/>
       <use xlink:href="#DejaVuSans-30" transform="translate(127.246094 0)"/>
      </g>
     </g>
    </g>
    <g id="ytick_5">
     <g id="line2d_13">
      <g>
       <use xlink:href="#m45f1e2cb66" x="46.965625" y="42.186124" style="stroke: #000000; stroke-width: 0.8"/>
      </g>
     </g>
     <g id="text_14">
      <!-- 800 -->
      <g transform="translate(20.878125 45.985343) scale(0.1 -0.1)">
       <defs>
        <path id="DejaVuSans-38" d="M 2034 2216 
Q 1584 2216 1326 1975 
Q 1069 1734 1069 1313 
Q 1069 891 1326 650 
Q 1584 409 2034 409 
Q 2484 409 2743 651 
Q 3003 894 3003 1313 
Q 3003 1734 2745 1975 
Q 2488 2216 2034 2216 
z
M 1403 2484 
Q 997 2584 770 2862 
Q 544 3141 544 3541 
Q 544 4100 942 4425 
Q 1341 4750 2034 4750 
Q 2731 4750 3128 4425 
Q 3525 4100 3525 3541 
Q 3525 3141 3298 2862 
Q 3072 2584 2669 2484 
Q 3125 2378 3379 2068 
Q 3634 1759 3634 1313 
Q 3634 634 3220 271 
Q 2806 -91 2034 -91 
Q 1263 -91 848 271 
Q 434 634 434 1313 
Q 434 1759 690 2068 
Q 947 2378 1403 2484 
z
M 1172 3481 
Q 1172 3119 1398 2916 
Q 1625 2713 2034 2713 
Q 2441 2713 2670 2916 
Q 2900 3119 2900 3481 
Q 2900 3844 2670 4047 
Q 2441 4250 2034 4250 
Q 1625 4250 1398 4047 
Q 1172 3844 1172 3481 
z
" transform="scale(0.015625)"/>
       </defs>
       <use xlink:href="#DejaVuSans-38"/>
       <use xlink:href="#DejaVuSans-30" transform="translate(63.623047 0)"/>
       <use xlink:href="#DejaVuSans-30" transform="translate(127.246094 0)"/>
      </g>
     </g>
    </g>
    <g id="text_15">
     <!-- [counts] -->
     <g transform="translate(14.798437 160.35101) rotate(-90) scale(0.1 -0.1)">
      <defs>
       <path id="DejaVuSans-63" d="M 3122 3366 
L 3122 2828 
Q 2878 2963 2633 3030 
Q 2388 3097 2138 3097 
Q 1578 3097 1268 2742 
Q 959 2388 959 1747 
Q 959 1106 1268 751 
Q 1578 397 2138 397 
Q 2388 397 2633 464 
Q 2878 531 3122 666 
L 3122 134 
Q 2881 22 2623 -34 
Q 2366 -91 2075 -91 
Q 1284 -91 818 406 
Q 353 903 353 1747 
Q 353 2603 823 3093 
Q 1294 3584 2113 3584 
Q 2378 3584 2631 3529 
Q 2884 3475 3122 3366 
z
" transform="scale(0.015625)"/>
       <path id="DejaVuSans-6f" d="M 1959 3097 
Q 1497 3097 1228 2736 
Q 959 2375 959 1747 
Q 959 1119 1226 758 
Q 1494 397 1959 397 
Q 2419 397 2687 759 
Q 2956 1122 2956 1747 
Q 2956 2369 2687 2733 
Q 2419 3097 1959 3097 
z
M 1959 3584 
Q 2709 3584 3137 3096 
Q 3566 2609 3566 1747 
Q 3566 888 3137 398 
Q 2709 -91 1959 -91 
Q 1206 -91 779 398 
Q 353 888 353 1747 
Q 353 2609 779 3096 
Q 1206 3584 1959 3584 
z
" transform="scale(0.015625)"/>
       <path id="DejaVuSans-75" d="M 544 1381 
L 544 3500 
L 1119 3500 
L 1119 1403 
Q 1119 906 1312 657 
Q 1506 409 1894 409 
Q 2359 409 2629 706 
Q 2900 1003 2900 1516 
L 2900 3500 
L 3475 3500 
L 3475 0 
L 2900 0 
L 2900 538 
Q 2691 219 2414 64 
Q 2138 -91 1772 -91 
Q 1169 -91 856 284 
Q 544 659 544 1381 
z
M 1991 3584 
L 1991 3584 
z
" transform="scale(0.015625)"/>
       <path id="DejaVuSans-73" d="M 2834 3397 
L 2834 2853 
Q 2591 2978 2328 3040 
Q 2066 3103 1784 3103 
Q 1356 3103 1142 2972 
Q 928 2841 928 2578 
Q 928 2378 1081 2264 
Q 1234 2150 1697 2047 
L 1894 2003 
Q 2506 1872 2764 1633 
Q 3022 1394 3022 966 
Q 3022 478 2636 193 
Q 2250 -91 1575 -91 
Q 1294 -91 989 -36 
Q 684 19 347 128 
L 347 722 
Q 666 556 975 473 
Q 1284 391 1588 391 
Q 1994 391 2212 530 
Q 2431 669 2431 922 
Q 2431 1156 2273 1281 
Q 2116 1406 1581 1522 
L 1381 1569 
Q 847 1681 609 1914 
Q 372 2147 372 2553 
Q 372 3047 722 3315 
Q 1072 3584 1716 3584 
Q 2034 3584 2315 3537 
Q 2597 3491 2834 3397 
z
" transform="scale(0.015625)"/>
      </defs>
      <use xlink:href="#DejaVuSans-5b"/>
      <use xlink:href="#DejaVuSans-63" transform="translate(39.013672 0)"/>
      <use xlink:href="#DejaVuSans-6f" transform="translate(93.994141 0)"/>
      <use xlink:href="#DejaVuSans-75" transform="translate(155.175781 0)"/>
      <use xlink:href="#DejaVuSans-6e" transform="translate(218.554688 0)"/>
      <use xlink:href="#DejaVuSans-74" transform="translate(281.933594 0)"/>
      <use xlink:href="#DejaVuSans-73" transform="translate(321.142578 0)"/>
      <use xlink:href="#DejaVuSans-5d" transform="translate(373.242188 0)"/>
     </g>
    </g>
   </g>
   <g id="line2d_14">
    <path d="M 63.676268 246.484315 
L 72.031589 246.484315 
L 72.031589 245.462824 
L 73.702653 245.462824 
L 73.702653 234.226423 
L 75.373717 234.226423 
L 75.373717 233.715678 
L 77.044782 233.715678 
L 77.044782 225.54375 
L 78.715846 225.54375 
L 78.715846 209.199895 
L 80.38691 209.199895 
L 80.38691 203.837067 
L 82.057974 203.837067 
L 82.057974 199.495731 
L 83.729039 199.495731 
L 83.729039 195.409767 
L 85.400103 195.409767 
L 85.400103 191.834549 
L 87.071167 191.834549 
L 87.071167 174.724575 
L 88.742231 174.724575 
L 88.742231 165.020411 
L 90.413296 165.020411 
L 90.413296 166.041902 
L 92.08436 166.041902 
L 92.08436 157.103856 
L 93.755424 157.103856 
L 93.755424 147.144319 
L 95.426488 147.144319 
L 95.426488 139.227765 
L 97.097553 139.227765 
L 97.097553 125.948382 
L 98.768617 125.948382 
L 98.768617 128.50211 
L 100.439681 128.50211 
L 100.439681 116.244218 
L 102.110745 116.244218 
L 102.110745 117.776455 
L 103.78181 117.776455 
L 103.78181 104.241699 
L 107.123938 104.241699 
L 107.123938 98.878872 
L 108.795002 98.878872 
L 108.795002 93.005299 
L 110.466067 93.005299 
L 110.466067 78.19368 
L 112.137131 78.19368 
L 112.137131 76.916816 
L 113.808195 76.916816 
L 113.808195 71.809362 
L 115.479259 71.809362 
L 115.479259 68.234143 
L 117.150323 68.234143 
L 117.150323 54.699388 
L 118.821388 54.699388 
L 118.821388 54.954761 
L 120.492452 54.954761 
L 120.492452 60.062216 
L 122.163516 60.062216 
L 122.163516 59.296097 
L 123.834581 59.296097 
L 123.834581 60.062216 
L 125.505645 60.062216 
L 125.505645 32.992705 
L 127.176709 32.992705 
L 127.176709 52.145661 
L 128.847773 52.145661 
L 128.847773 46.272088 
L 130.518838 46.272088 
L 130.518838 56.997743 
L 132.189902 56.997743 
L 132.189902 40.398515 
L 133.860966 40.398515 
L 133.860966 55.465506 
L 135.53203 55.465506 
L 135.53203 43.462988 
L 137.203095 43.462988 
L 137.203095 71.553989 
L 138.874159 71.553989 
L 138.874159 87.642471 
L 140.545223 87.642471 
L 140.545223 62.105198 
L 142.216287 62.105198 
L 142.216287 63.892807 
L 143.887352 63.892807 
L 143.887352 72.064734 
L 145.558416 72.064734 
L 145.558416 59.040725 
L 147.22948 59.040725 
L 147.22948 69.511007 
L 148.900544 69.511007 
L 148.900544 76.661444 
L 150.571609 76.661444 
L 150.571609 79.981289 
L 152.242673 79.981289 
L 152.242673 65.935789 
L 153.913737 65.935789 
L 153.913737 81.00278 
L 155.584801 81.00278 
L 155.584801 73.852344 
L 157.255866 73.852344 
L 157.255866 74.363089 
L 158.92693 74.363089 
L 158.92693 90.451572 
L 160.597994 90.451572 
L 160.597994 88.40859 
L 162.269058 88.40859 
L 162.269058 88.153217 
L 163.940123 88.153217 
L 163.940123 88.663962 
L 165.611187 88.663962 
L 165.611187 86.62098 
L 167.282251 86.62098 
L 167.282251 99.900363 
L 168.953315 99.900363 
L 168.953315 95.814399 
L 170.62438 95.814399 
L 170.62438 84.067253 
L 172.295444 84.067253 
L 172.295444 101.943345 
L 173.966508 101.943345 
L 173.966508 83.301135 
L 175.637572 83.301135 
L 175.637572 117.010336 
L 177.308637 117.010336 
L 177.308637 83.556508 
L 178.979701 83.556508 
L 178.979701 86.876353 
L 180.650765 86.876353 
L 180.650765 109.8599 
L 182.321829 109.8599 
L 182.321829 86.365608 
L 183.992894 86.365608 
L 183.992894 98.112754 
L 185.663958 98.112754 
L 185.663958 85.088744 
L 187.335022 85.088744 
L 187.335022 108.327663 
L 189.006086 108.327663 
L 189.006086 98.623499 
L 190.677151 98.623499 
L 190.677151 117.265709 
L 192.348215 117.265709 
L 192.348215 108.583036 
L 194.019279 108.583036 
L 194.019279 115.988845 
L 195.690343 115.988845 
L 195.690343 113.435118 
L 197.361408 113.435118 
L 197.361408 137.184783 
L 199.032472 137.184783 
L 199.032472 134.375682 
L 200.703536 134.375682 
L 200.703536 154.039383 
L 202.3746 154.039383 
L 202.3746 146.633574 
L 204.045665 146.633574 
L 204.045665 159.402211 
L 205.716729 159.402211 
L 205.716729 168.595629 
L 207.387793 168.595629 
L 207.387793 183.662621 
L 209.058857 183.662621 
L 209.058857 185.45023 
L 210.729922 185.45023 
L 210.729922 204.09244 
L 212.400986 204.09244 
L 212.400986 194.643649 
L 214.07205 194.643649 
L 214.07205 201.538713 
L 215.743114 201.538713 
L 215.743114 213.796604 
L 217.414179 213.796604 
L 217.414179 218.393313 
L 219.085243 218.393313 
L 219.085243 227.075986 
L 220.756307 227.075986 
L 220.756307 233.204932 
L 222.427371 233.204932 
L 222.427371 234.481796 
L 224.098435 234.481796 
L 224.098435 242.398351 
L 225.7695 242.398351 
L 225.7695 241.632233 
L 227.440564 241.632233 
L 227.440564 245.462824 
L 229.111628 245.462824 
L 229.111628 240.099996 
L 230.782693 240.099996 
L 230.782693 234.992541 
L 232.453757 234.992541 
L 232.453757 226.820614 
L 234.124821 226.820614 
L 234.124821 220.436295 
L 235.795885 220.436295 
L 235.795885 212.264368 
L 237.466949 212.264368 
L 237.466949 213.030486 
L 239.138014 213.030486 
L 239.138014 204.347813 
L 240.809078 204.347813 
L 240.809078 200.772594 
L 242.480142 200.772594 
L 242.480142 188.770076 
L 244.151207 188.770076 
L 244.151207 185.705603 
L 245.822271 185.705603 
L 245.822271 182.385757 
L 247.493335 182.385757 
L 247.493335 177.789048 
L 249.164399 177.789048 
L 249.164399 180.342775 
L 250.835464 180.342775 
L 250.835464 167.318766 
L 252.506528 167.318766 
L 252.506528 159.402211 
L 254.177592 159.402211 
L 254.177592 166.041902 
L 255.848656 166.041902 
L 255.848656 155.316247 
L 257.51972 155.316247 
L 257.51972 143.569101 
L 259.190785 143.569101 
L 259.190785 153.273265 
L 260.861849 153.273265 
L 260.861849 144.079847 
L 262.532913 144.079847 
L 262.532913 141.526119 
L 264.203978 141.526119 
L 264.203978 137.440155 
L 265.875042 137.440155 
L 265.875042 133.609564 
L 267.546106 133.609564 
L 267.546106 117.265709 
L 269.21717 117.265709 
L 269.21717 123.9054 
L 270.888234 123.9054 
L 270.888234 122.883909 
L 272.559299 122.883909 
L 272.559299 119.819436 
L 274.230363 119.819436 
L 274.230363 111.902882 
L 275.901427 111.902882 
L 275.901427 123.139282 
L 277.572492 123.139282 
L 277.572492 113.435118 
L 279.243556 113.435118 
L 279.243556 111.647509 
L 280.91462 111.647509 
L 280.91462 109.349154 
L 282.585684 109.349154 
L 282.585684 128.246737 
L 284.256749 128.246737 
L 284.256749 111.136763 
L 285.927813 111.136763 
L 285.927813 115.222727 
L 287.598877 115.222727 
L 287.598877 119.819436 
L 289.269941 119.819436 
L 289.269941 130.034346 
L 290.941006 130.034346 
L 290.941006 128.50211 
L 292.61207 128.50211 
L 292.61207 124.416146 
L 294.283134 124.416146 
L 294.283134 117.010336 
L 295.954198 117.010336 
L 295.954198 131.566582 
L 297.625263 131.566582 
L 297.625263 133.354192 
L 299.296327 133.354192 
L 299.296327 135.141801 
L 300.967391 135.141801 
L 300.967391 125.182264 
L 302.638455 125.182264 
L 302.638455 140.760001 
L 304.309519 140.760001 
L 304.309519 138.972392 
L 305.980584 138.972392 
L 305.980584 153.528638 
L 307.651648 153.528638 
L 307.651648 132.588073 
L 309.322712 132.588073 
L 309.322712 137.950901 
L 310.993777 137.950901 
L 310.993777 141.270746 
L 312.664841 141.270746 
L 312.664841 153.528638 
L 314.335905 153.528638 
L 314.335905 150.97491 
L 316.006969 150.97491 
L 316.006969 147.144319 
L 317.678033 147.144319 
L 317.678033 161.445193 
L 319.349098 161.445193 
L 319.349098 144.845965 
L 321.020162 144.845965 
L 321.020162 155.316247 
L 322.691226 155.316247 
L 322.691226 159.657584 
L 324.362291 159.657584 
L 324.362291 162.722056 
L 326.033355 162.722056 
L 326.033355 163.99892 
L 327.704419 163.99892 
L 327.704419 170.383239 
L 329.375483 170.383239 
L 329.375483 165.020411 
L 331.046547 165.020411 
L 331.046547 169.61712 
L 332.717612 169.61712 
L 332.717612 178.299793 
L 334.388676 178.299793 
L 334.388676 172.681593 
L 336.05974 172.681593 
L 336.05974 167.574138 
L 337.730805 167.574138 
L 337.730805 172.42622 
L 339.401869 172.42622 
L 339.401869 169.106375 
L 341.072933 169.106375 
L 341.072933 183.407248 
L 342.743997 183.407248 
L 342.743997 173.447711 
L 344.415062 173.447711 
L 344.415062 194.643649 
L 346.086126 194.643649 
L 346.086126 186.216348 
L 347.75719 186.216348 
L 347.75719 190.557685 
L 349.428254 190.557685 
L 349.428254 195.409767 
L 351.099318 195.409767 
L 351.099318 193.87753 
L 352.770383 193.87753 
L 352.770383 200.006476 
L 354.441447 200.006476 
L 354.441447 197.452749 
L 356.112511 197.452749 
L 356.112511 204.603185 
L 357.783576 204.603185 
L 357.783576 210.987504 
L 361.125704 210.987504 
L 361.125704 208.944522 
L 362.796768 208.944522 
L 362.796768 218.904059 
L 364.467832 218.904059 
L 364.467832 221.457786 
L 366.138897 221.457786 
L 366.138897 227.331359 
L 367.809961 227.331359 
L 367.809961 225.288377 
L 369.481025 225.288377 
L 369.481025 226.054495 
L 371.15209 226.054495 
L 371.15209 228.35285 
L 372.823154 228.35285 
L 372.823154 235.503287 
L 374.494218 235.503287 
L 374.494218 234.481796 
L 376.165282 234.481796 
L 376.165282 240.355369 
L 377.836346 240.355369 
L 377.836346 238.56776 
L 379.507411 238.56776 
L 379.507411 240.099996 
L 381.178475 240.099996 
L 381.178475 242.909096 
L 382.849539 242.909096 
L 382.849539 243.164469 
L 384.520603 243.164469 
L 384.520603 244.441333 
L 386.191668 244.441333 
L 386.191668 245.973569 
L 387.862732 245.973569 
L 387.862732 246.484315 
L 397.889117 246.484315 
L 397.889117 246.484315 
" clip-path="url(#p3e8dc4c475)" style="fill: none; stroke: #1f77b4; stroke-width: 1.5; stroke-linecap: square"/>
   </g>
   <g id="line2d_15">
    <path d="M 63.676268 246.484315 
L 72.031589 246.484315 
L 72.031589 243.675214 
L 73.702653 243.675214 
L 73.702653 236.269405 
L 75.373717 236.269405 
L 75.373717 232.438814 
L 77.044782 232.438814 
L 77.044782 225.288377 
L 78.715846 225.288377 
L 78.715846 209.71064 
L 80.38691 209.71064 
L 80.38691 204.347813 
L 82.057974 204.347813 
L 82.057974 199.751103 
L 83.729039 199.751103 
L 83.729039 195.409767 
L 85.400103 195.409767 
L 85.400103 191.834549 
L 87.071167 191.834549 
L 87.071167 174.21383 
L 88.742231 174.21383 
L 88.742231 165.275784 
L 90.413296 165.275784 
L 90.413296 169.106375 
L 92.08436 169.106375 
L 92.08436 151.996401 
L 93.755424 151.996401 
L 93.755424 149.187301 
L 95.426488 149.187301 
L 95.426488 133.354192 
L 97.097553 133.354192 
L 97.097553 129.778973 
L 98.768617 129.778973 
L 98.768617 128.757482 
L 100.439681 128.757482 
L 100.439681 117.521082 
L 102.110745 117.521082 
L 102.110745 115.988845 
L 103.78181 115.988845 
L 103.78181 102.45409 
L 105.452874 102.45409 
L 105.452874 106.029309 
L 107.123938 106.029309 
L 107.123938 98.368126 
L 110.466067 98.368126 
L 110.466067 77.682935 
L 112.137131 77.682935 
L 112.137131 76.150698 
L 113.808195 76.150698 
L 113.808195 71.809362 
L 115.479259 71.809362 
L 115.479259 60.062216 
L 117.150323 60.062216 
L 117.150323 62.615943 
L 118.821388 62.615943 
L 118.821388 49.081188 
L 120.492452 49.081188 
L 120.492452 70.532498 
L 122.163516 70.532498 
L 122.163516 49.847306 
L 123.834581 49.847306 
L 123.834581 61.849825 
L 125.505645 61.849825 
L 125.505645 37.844787 
L 127.176709 37.844787 
L 127.176709 52.401034 
L 128.847773 52.401034 
L 128.847773 46.272088 
L 130.518838 46.272088 
L 130.518838 48.31507 
L 132.189902 48.31507 
L 132.189902 46.527461 
L 133.860966 46.527461 
L 133.860966 54.444015 
L 135.53203 54.444015 
L 135.53203 51.12417 
L 137.203095 51.12417 
L 137.203095 64.658925 
L 138.874159 64.658925 
L 138.874159 77.427562 
L 140.545223 77.427562 
L 140.545223 69.255634 
L 142.216287 69.255634 
L 142.216287 74.618462 
L 143.887352 74.618462 
L 143.887352 53.93327 
L 145.558416 53.93327 
L 145.558416 65.935789 
L 147.22948 65.935789 
L 147.22948 81.768898 
L 148.900544 81.768898 
L 148.900544 69.76638 
L 150.571609 69.76638 
L 150.571609 79.981289 
L 152.242673 79.981289 
L 152.242673 70.021752 
L 153.913737 70.021752 
L 153.913737 75.895325 
L 155.584801 75.895325 
L 155.584801 72.320107 
L 157.255866 72.320107 
L 157.255866 74.873835 
L 158.92693 74.873835 
L 158.92693 90.451572 
L 160.597994 90.451572 
L 160.597994 86.62098 
L 162.269058 86.62098 
L 162.269058 88.919335 
L 163.940123 88.919335 
L 163.940123 90.451572 
L 165.611187 90.451572 
L 165.611187 97.091263 
L 167.282251 97.091263 
L 167.282251 92.749926 
L 168.953315 92.749926 
L 168.953315 82.279644 
L 170.62438 82.279644 
L 170.62438 94.537535 
L 172.295444 94.537535 
L 172.295444 100.155736 
L 173.966508 100.155736 
L 173.966508 91.728435 
L 175.637572 91.728435 
L 175.637572 98.368126 
L 177.308637 98.368126 
L 177.308637 98.112754 
L 178.979701 98.112754 
L 178.979701 89.174708 
L 180.650765 89.174708 
L 180.650765 94.537535 
L 182.321829 94.537535 
L 182.321829 96.325145 
L 183.992894 96.325145 
L 183.992894 92.239181 
L 185.663958 92.239181 
L 185.663958 98.878872 
L 187.335022 98.878872 
L 187.335022 96.325145 
L 189.006086 96.325145 
L 189.006086 108.327663 
L 190.677151 108.327663 
L 190.677151 103.730954 
L 192.348215 103.730954 
L 192.348215 120.074809 
L 194.019279 120.074809 
L 194.019279 117.776455 
L 195.690343 117.776455 
L 195.690343 111.136763 
L 197.361408 111.136763 
L 197.361408 134.375682 
L 199.032472 134.375682 
L 199.032472 141.270746 
L 200.703536 141.270746 
L 200.703536 142.802983 
L 202.3746 142.802983 
L 202.3746 151.741029 
L 204.045665 151.741029 
L 204.045665 160.934447 
L 205.716729 160.934447 
L 205.716729 168.851002 
L 207.387793 168.851002 
L 207.387793 180.342775 
L 209.058857 180.342775 
L 209.058857 184.684112 
L 210.729922 184.684112 
L 210.729922 202.049458 
L 212.400986 202.049458 
L 212.400986 196.942003 
L 214.07205 196.942003 
L 214.07205 205.113931 
L 215.743114 205.113931 
L 215.743114 212.51974 
L 217.414179 212.51974 
L 217.414179 216.861077 
L 219.085243 216.861077 
L 219.085243 228.097477 
L 220.756307 228.097477 
L 220.756307 232.694187 
L 222.427371 232.694187 
L 222.427371 234.481796 
L 224.098435 234.481796 
L 224.098435 241.37686 
L 225.7695 241.37686 
L 225.7695 242.398351 
L 227.440564 242.398351 
L 227.440564 244.441333 
L 229.111628 244.441333 
L 229.111628 240.355369 
L 230.782693 240.355369 
L 230.782693 234.992541 
L 232.453757 234.992541 
L 232.453757 226.820614 
L 234.124821 226.820614 
L 234.124821 219.159432 
L 235.795885 219.159432 
L 235.795885 214.30735 
L 237.466949 214.30735 
L 237.466949 212.51974 
L 239.138014 212.51974 
L 239.138014 205.113931 
L 240.809078 205.113931 
L 240.809078 200.261849 
L 242.480142 200.261849 
L 242.480142 185.705603 
L 244.151207 185.705603 
L 244.151207 186.727094 
L 247.493335 186.727094 
L 247.493335 177.02293 
L 249.164399 177.02293 
L 249.164399 176.767557 
L 250.835464 176.767557 
L 250.835464 169.61712 
L 252.506528 169.61712 
L 252.506528 160.423702 
L 254.177592 160.423702 
L 254.177592 158.636093 
L 255.848656 158.636093 
L 255.848656 157.614602 
L 257.51972 157.614602 
L 257.51972 149.95342 
L 259.190785 149.95342 
L 259.190785 148.931929 
L 260.861849 148.931929 
L 260.861849 144.590592 
L 262.532913 144.590592 
L 262.532913 139.993883 
L 264.203978 139.993883 
L 264.203978 141.015374 
L 265.875042 141.015374 
L 265.875042 131.821955 
L 267.546106 131.821955 
L 267.546106 127.480619 
L 269.21717 127.480619 
L 269.21717 114.456609 
L 270.888234 114.456609 
L 270.888234 120.840927 
L 272.559299 120.840927 
L 272.559299 120.330182 
L 274.230363 120.330182 
L 274.230363 112.669 
L 275.901427 112.669 
L 275.901427 114.456609 
L 277.572492 114.456609 
L 277.572492 115.733473 
L 279.243556 115.733473 
L 279.243556 123.139282 
L 280.91462 123.139282 
L 280.91462 106.540054 
L 282.585684 106.540054 
L 282.585684 118.542573 
L 284.256749 118.542573 
L 284.256749 114.711982 
L 285.927813 114.711982 
L 285.927813 119.564064 
L 287.598877 119.564064 
L 287.598877 125.948382 
L 289.269941 125.948382 
L 289.269941 127.735991 
L 290.941006 127.735991 
L 290.941006 122.628537 
L 292.61207 122.628537 
L 292.61207 133.098819 
L 294.283134 133.098819 
L 294.283134 114.967354 
L 295.954198 114.967354 
L 295.954198 128.50211 
L 297.625263 128.50211 
L 297.625263 130.289719 
L 299.296327 130.289719 
L 299.296327 132.843446 
L 300.967391 132.843446 
L 300.967391 136.674037 
L 302.638455 136.674037 
L 302.638455 137.440155 
L 304.309519 137.440155 
L 304.309519 133.609564 
L 305.980584 133.609564 
L 305.980584 145.867456 
L 307.651648 145.867456 
L 307.651648 139.993883 
L 309.322712 139.993883 
L 309.322712 138.206274 
L 310.993777 138.206274 
L 310.993777 145.612083 
L 312.664841 145.612083 
L 312.664841 151.230283 
L 314.335905 151.230283 
L 314.335905 147.655065 
L 316.006969 147.655065 
L 316.006969 151.996401 
L 317.678033 151.996401 
L 317.678033 155.060874 
L 319.349098 155.060874 
L 319.349098 153.528638 
L 321.020162 153.528638 
L 321.020162 154.294756 
L 322.691226 154.294756 
L 322.691226 155.060874 
L 324.362291 155.060874 
L 324.362291 159.657584 
L 326.033355 159.657584 
L 326.033355 166.041902 
L 327.704419 166.041902 
L 327.704419 164.509666 
L 329.375483 164.509666 
L 329.375483 177.533675 
L 331.046547 177.533675 
L 331.046547 168.084884 
L 332.717612 168.084884 
L 332.717612 170.638611 
L 334.388676 170.638611 
L 334.388676 173.192339 
L 337.730805 173.192339 
L 337.730805 171.915475 
L 339.401869 171.915475 
L 339.401869 171.660102 
L 341.072933 171.660102 
L 341.072933 175.490693 
L 342.743997 175.490693 
L 342.743997 178.044421 
L 344.415062 178.044421 
L 344.415062 192.85604 
L 346.086126 192.85604 
L 346.086126 185.705603 
L 347.75719 185.705603 
L 347.75719 192.600667 
L 349.428254 192.600667 
L 349.428254 191.06843 
L 351.099318 191.06843 
L 351.099318 196.431258 
L 352.770383 196.431258 
L 352.770383 202.304831 
L 354.441447 202.304831 
L 354.441447 196.431258 
L 356.112511 196.431258 
L 356.112511 208.689149 
L 357.783576 208.689149 
L 357.783576 209.199895 
L 359.45464 209.199895 
L 359.45464 206.90154 
L 361.125704 206.90154 
L 361.125704 212.264368 
L 362.796768 212.264368 
L 362.796768 217.882568 
L 364.467832 217.882568 
L 364.467832 223.245395 
L 366.138897 223.245395 
L 366.138897 226.054495 
L 367.809961 226.054495 
L 367.809961 226.820614 
L 369.481025 226.820614 
L 369.481025 220.436295 
L 371.15209 220.436295 
L 371.15209 230.906578 
L 372.823154 230.906578 
L 372.823154 236.014032 
L 374.494218 236.014032 
L 374.494218 234.992541 
L 376.165282 234.992541 
L 376.165282 239.333878 
L 377.836346 239.333878 
L 377.836346 240.610742 
L 379.507411 240.610742 
L 379.507411 238.312387 
L 381.178475 238.312387 
L 381.178475 243.930587 
L 382.849539 243.930587 
L 382.849539 242.653723 
L 384.520603 242.653723 
L 384.520603 244.696705 
L 386.191668 244.696705 
L 386.191668 244.952078 
L 387.862732 244.952078 
L 387.862732 246.228942 
L 391.204861 246.228942 
L 391.204861 246.484315 
L 397.889117 246.484315 
L 397.889117 246.484315 
" clip-path="url(#p3e8dc4c475)" style="fill: none; stroke: #ff7f0e; stroke-width: 1.5; stroke-linecap: square"/>
   </g>
   <g id="patch_3">
    <path d="M 46.965625 257.158895 
L 46.965625 22.318125 
" style="fill: none; stroke: #000000; stroke-width: 0.8; stroke-linejoin: miter; stroke-linecap: square"/>
   </g>
   <g id="patch_4">
    <path d="M 414.59976 257.158895 
L 414.59976 22.318125 
" style="fill: none; stroke: #000000; stroke-width: 0.8; stroke-linejoin: miter; stroke-linecap: square"/>
   </g>
   <g id="patch_5">
    <path d="M 46.965625 257.158895 
L 414.59976 257.158895 
" style="fill: none; stroke: #000000; stroke-width: 0.8; stroke-linejoin: miter; stroke-linecap: square"/>
   </g>
   <g id="patch_6">
    <path d="M 46.965625 22.318125 
L 414.59976 22.318125 
" style="fill: none; stroke: #000000; stroke-width: 0.8; stroke-linejoin: miter; stroke-linecap: square"/>
   </g>
   <g id="text_16">
    <!-- Pixel 1 -->
    <g transform="translate(211.18613 16.318125) scale(0.12 -0.12)">
     <defs>
      <path id="DejaVuSans-50" d="M 1259 4147 
L 1259 2394 
L 2053 2394 
Q 2494 2394 2734 2622 
Q 2975 2850 2975 3272 
Q 2975 3691 2734 3919 
Q 2494 4147 2053 4147 
L 1259 4147 
z
M 628 4666 
L 2053 4666 
Q 2838 4666 3239 4311 
Q 3641 3956 3641 3272 
Q 3641 2581 3239 2228 
Q 2838 1875 2053 1875 
L 1259 1875 
L 1259 0 
L 628 0 
L 628 4666 
z
" transform="scale(0.015625)"/>
      <path id="DejaVuSans-69" d="M 603 3500 
L 1178 3500 
L 1178 0 
L 603 0 
L 603 3500 
z
M 603 4863 
L 1178 4863 
L 1178 4134 
L 603 4134 
L 603 4863 
z
" transform="scale(0.015625)"/>
      <path id="DejaVuSans-78" d="M 3513 3500 
L 2247 1797 
L 3578 0 
L 2900 0 
L 1881 1375 
L 863 0 
L 184 0 
L 1544 1831 
L 300 3500 
L 978 3500 
L 1906 2253 
L 2834 3500 
L 3513 3500 
z
" transform="scale(0.015625)"/>
     </defs>
     <use xlink:href="#DejaVuSans-50"/>
     <use xlink:href="#DejaVuSans-69" transform="translate(58.052734 0)"/>
     <use xlink:href="#DejaVuSans-78" transform="translate(85.835938 0)"/>
     <use xlink:href="#DejaVuSans-65" transform="translate(141.890625 0)"/>
     <use xlink:href="#DejaVuSans-6c" transform="translate(203.414062 0)"/>
     <use xlink:href="#DejaVuSans-20" transform="translate(231.197266 0)"/>
     <use xlink:href="#DejaVuSans-31" transform="translate(262.984375 0)"/>
    </g>
   </g>
   <g id="legend_1">
    <g id="patch_7">
     <path d="M 310.596635 59.9525 
L 407.59976 59.9525 
Q 409.59976 59.9525 409.59976 57.9525 
L 409.59976 29.318125 
Q 409.59976 27.318125 407.59976 27.318125 
L 310.596635 27.318125 
Q 308.596635 27.318125 308.596635 29.318125 
L 308.596635 57.9525 
Q 308.596635 59.9525 310.596635 59.9525 
z
" style="fill: #ffffff; opacity: 0.8; stroke: #cccccc; stroke-linejoin: miter"/>
    </g>
    <g id="line2d_16">
     <path d="M 312.596635 35.416562 
L 312.596635 35.416562 
L 322.596635 35.416562 
L 322.596635 35.416562 
L 332.596635 35.416562 
" style="fill: none; stroke: #1f77b4; stroke-width: 1.5; stroke-linecap: square"/>
    </g>
    <g id="text_17">
     <!-- wfm -->
     <g transform="translate(340.596635 38.916562) scale(0.1 -0.1)">
      <defs>
       <path id="DejaVuSans-66" d="M 2375 4863 
L 2375 4384 
L 1825 4384 
Q 1516 4384 1395 4259 
Q 1275 4134 1275 3809 
L 1275 3500 
L 2222 3500 
L 2222 3053 
L 1275 3053 
L 1275 0 
L 697 0 
L 697 3053 
L 147 3053 
L 147 3500 
L 697 3500 
L 697 3744 
Q 697 4328 969 4595 
Q 1241 4863 1831 4863 
L 2375 4863 
z
" transform="scale(0.015625)"/>
       <path id="DejaVuSans-6d" d="M 3328 2828 
Q 3544 3216 3844 3400 
Q 4144 3584 4550 3584 
Q 5097 3584 5394 3201 
Q 5691 2819 5691 2113 
L 5691 0 
L 5113 0 
L 5113 2094 
Q 5113 2597 4934 2840 
Q 4756 3084 4391 3084 
Q 3944 3084 3684 2787 
Q 3425 2491 3425 1978 
L 3425 0 
L 2847 0 
L 2847 2094 
Q 2847 2600 2669 2842 
Q 2491 3084 2119 3084 
Q 1678 3084 1418 2786 
Q 1159 2488 1159 1978 
L 1159 0 
L 581 0 
L 581 3500 
L 1159 3500 
L 1159 2956 
Q 1356 3278 1631 3431 
Q 1906 3584 2284 3584 
Q 2666 3584 2933 3390 
Q 3200 3197 3328 2828 
z
" transform="scale(0.015625)"/>
      </defs>
      <use xlink:href="#DejaVuSans-77"/>
      <use xlink:href="#DejaVuSans-66" transform="translate(81.787109 0)"/>
      <use xlink:href="#DejaVuSans-6d" transform="translate(116.992188 0)"/>
     </g>
    </g>
    <g id="line2d_17">
     <path d="M 312.596635 50.094687 
L 312.596635 50.094687 
L 322.596635 50.094687 
L 322.596635 50.094687 
L 332.596635 50.094687 
" style="fill: none; stroke: #ff7f0e; stroke-width: 1.5; stroke-linecap: square"/>
    </g>
    <g id="text_18">
     <!-- ground_truth -->
     <g transform="translate(340.596635 53.594687) scale(0.1 -0.1)">
      <defs>
       <path id="DejaVuSans-72" d="M 2631 2963 
Q 2534 3019 2420 3045 
Q 2306 3072 2169 3072 
Q 1681 3072 1420 2755 
Q 1159 2438 1159 1844 
L 1159 0 
L 581 0 
L 581 3500 
L 1159 3500 
L 1159 2956 
Q 1341 3275 1631 3429 
Q 1922 3584 2338 3584 
Q 2397 3584 2469 3576 
Q 2541 3569 2628 3553 
L 2631 2963 
z
" transform="scale(0.015625)"/>
       <path id="DejaVuSans-64" d="M 2906 2969 
L 2906 4863 
L 3481 4863 
L 3481 0 
L 2906 0 
L 2906 525 
Q 2725 213 2448 61 
Q 2172 -91 1784 -91 
Q 1150 -91 751 415 
Q 353 922 353 1747 
Q 353 2572 751 3078 
Q 1150 3584 1784 3584 
Q 2172 3584 2448 3432 
Q 2725 3281 2906 2969 
z
M 947 1747 
Q 947 1113 1208 752 
Q 1469 391 1925 391 
Q 2381 391 2643 752 
Q 2906 1113 2906 1747 
Q 2906 2381 2643 2742 
Q 2381 3103 1925 3103 
Q 1469 3103 1208 2742 
Q 947 2381 947 1747 
z
" transform="scale(0.015625)"/>
       <path id="DejaVuSans-5f" d="M 3263 -1063 
L 3263 -1509 
L -63 -1509 
L -63 -1063 
L 3263 -1063 
z
" transform="scale(0.015625)"/>
      </defs>
      <use xlink:href="#DejaVuSans-67"/>
      <use xlink:href="#DejaVuSans-72" transform="translate(63.476562 0)"/>
      <use xlink:href="#DejaVuSans-6f" transform="translate(102.339844 0)"/>
      <use xlink:href="#DejaVuSans-75" transform="translate(163.521484 0)"/>
      <use xlink:href="#DejaVuSans-6e" transform="translate(226.900391 0)"/>
      <use xlink:href="#DejaVuSans-64" transform="translate(290.279297 0)"/>
      <use xlink:href="#DejaVuSans-5f" transform="translate(353.755859 0)"/>
      <use xlink:href="#DejaVuSans-74" transform="translate(403.755859 0)"/>
      <use xlink:href="#DejaVuSans-72" transform="translate(442.964844 0)"/>
      <use xlink:href="#DejaVuSans-75" transform="translate(484.078125 0)"/>
      <use xlink:href="#DejaVuSans-74" transform="translate(547.457031 0)"/>
      <use xlink:href="#DejaVuSans-68" transform="translate(586.666016 0)"/>
     </g>
    </g>
   </g>
  </g>
  <g id="axes_2">
   <g id="patch_8">
    <path d="M 497.565385 257.158895 
L 865.19952 257.158895 
L 865.19952 22.318125 
L 497.565385 22.318125 
z
" style="fill: #ffffff"/>
   </g>
   <g id="matplotlib.axis_3">
    <g id="xtick_9">
     <g id="line2d_18">
      <g>
       <use xlink:href="#m8b324e3908" x="531.866178" y="257.158895" style="stroke: #000000; stroke-width: 0.8"/>
      </g>
     </g>
     <g id="text_19">
      <!-- 1.0 -->
      <g transform="translate(523.914615 271.757332) scale(0.1 -0.1)">
       <use xlink:href="#DejaVuSans-31"/>
       <use xlink:href="#DejaVuSans-2e" transform="translate(63.623047 0)"/>
       <use xlink:href="#DejaVuSans-30" transform="translate(95.410156 0)"/>
      </g>
     </g>
    </g>
    <g id="xtick_10">
     <g id="line2d_19">
      <g>
       <use xlink:href="#m8b324e3908" x="575.841553" y="257.158895" style="stroke: #000000; stroke-width: 0.8"/>
      </g>
     </g>
     <g id="text_20">
      <!-- 1.5 -->
      <g transform="translate(567.88999 271.757332) scale(0.1 -0.1)">
       <use xlink:href="#DejaVuSans-31"/>
       <use xlink:href="#DejaVuSans-2e" transform="translate(63.623047 0)"/>
       <use xlink:href="#DejaVuSans-35" transform="translate(95.410156 0)"/>
      </g>
     </g>
    </g>
    <g id="xtick_11">
     <g id="line2d_20">
      <g>
       <use xlink:href="#m8b324e3908" x="619.816928" y="257.158895" style="stroke: #000000; stroke-width: 0.8"/>
      </g>
     </g>
     <g id="text_21">
      <!-- 2.0 -->
      <g transform="translate(611.865365 271.757332) scale(0.1 -0.1)">
       <use xlink:href="#DejaVuSans-32"/>
       <use xlink:href="#DejaVuSans-2e" transform="translate(63.623047 0)"/>
       <use xlink:href="#DejaVuSans-30" transform="translate(95.410156 0)"/>
      </g>
     </g>
    </g>
    <g id="xtick_12">
     <g id="line2d_21">
      <g>
       <use xlink:href="#m8b324e3908" x="663.792303" y="257.158895" style="stroke: #000000; stroke-width: 0.8"/>
      </g>
     </g>
     <g id="text_22">
      <!-- 2.5 -->
      <g transform="translate(655.84074 271.757332) scale(0.1 -0.1)">
       <use xlink:href="#DejaVuSans-32"/>
       <use xlink:href="#DejaVuSans-2e" transform="translate(63.623047 0)"/>
       <use xlink:href="#DejaVuSans-35" transform="translate(95.410156 0)"/>
      </g>
     </g>
    </g>
    <g id="xtick_13">
     <g id="line2d_22">
      <g>
       <use xlink:href="#m8b324e3908" x="707.767677" y="257.158895" style="stroke: #000000; stroke-width: 0.8"/>
      </g>
     </g>
     <g id="text_23">
      <!-- 3.0 -->
      <g transform="translate(699.816115 271.757332) scale(0.1 -0.1)">
       <use xlink:href="#DejaVuSans-33"/>
       <use xlink:href="#DejaVuSans-2e" transform="translate(63.623047 0)"/>
       <use xlink:href="#DejaVuSans-30" transform="translate(95.410156 0)"/>
      </g>
     </g>
    </g>
    <g id="xtick_14">
     <g id="line2d_23">
      <g>
       <use xlink:href="#m8b324e3908" x="751.743052" y="257.158895" style="stroke: #000000; stroke-width: 0.8"/>
      </g>
     </g>
     <g id="text_24">
      <!-- 3.5 -->
      <g transform="translate(743.79149 271.757332) scale(0.1 -0.1)">
       <use xlink:href="#DejaVuSans-33"/>
       <use xlink:href="#DejaVuSans-2e" transform="translate(63.623047 0)"/>
       <use xlink:href="#DejaVuSans-35" transform="translate(95.410156 0)"/>
      </g>
     </g>
    </g>
    <g id="xtick_15">
     <g id="line2d_24">
      <g>
       <use xlink:href="#m8b324e3908" x="795.718427" y="257.158895" style="stroke: #000000; stroke-width: 0.8"/>
      </g>
     </g>
     <g id="text_25">
      <!-- 4.0 -->
      <g transform="translate(787.766865 271.757332) scale(0.1 -0.1)">
       <use xlink:href="#DejaVuSans-34"/>
       <use xlink:href="#DejaVuSans-2e" transform="translate(63.623047 0)"/>
       <use xlink:href="#DejaVuSans-30" transform="translate(95.410156 0)"/>
      </g>
     </g>
    </g>
    <g id="xtick_16">
     <g id="line2d_25">
      <g>
       <use xlink:href="#m8b324e3908" x="839.693802" y="257.158895" style="stroke: #000000; stroke-width: 0.8"/>
      </g>
     </g>
     <g id="text_26">
      <!-- 4.5 -->
      <g transform="translate(831.74224 271.757332) scale(0.1 -0.1)">
       <use xlink:href="#DejaVuSans-34"/>
       <use xlink:href="#DejaVuSans-2e" transform="translate(63.623047 0)"/>
       <use xlink:href="#DejaVuSans-35" transform="translate(95.410156 0)"/>
      </g>
     </g>
    </g>
    <g id="text_27">
     <!-- wavelength [Å] -->
     <g transform="translate(643.344952 287.119832) scale(0.1 -0.1)">
      <use xlink:href="#DejaVuSans-77"/>
      <use xlink:href="#DejaVuSans-61" transform="translate(81.787109 0)"/>
      <use xlink:href="#DejaVuSans-76" transform="translate(143.066406 0)"/>
      <use xlink:href="#DejaVuSans-65" transform="translate(202.246094 0)"/>
      <use xlink:href="#DejaVuSans-6c" transform="translate(263.769531 0)"/>
      <use xlink:href="#DejaVuSans-65" transform="translate(291.552734 0)"/>
      <use xlink:href="#DejaVuSans-6e" transform="translate(353.076172 0)"/>
      <use xlink:href="#DejaVuSans-67" transform="translate(416.455078 0)"/>
      <use xlink:href="#DejaVuSans-74" transform="translate(479.931641 0)"/>
      <use xlink:href="#DejaVuSans-68" transform="translate(519.140625 0)"/>
      <use xlink:href="#DejaVuSans-20" transform="translate(582.519531 0)"/>
      <use xlink:href="#DejaVuSans-5b" transform="translate(614.306641 0)"/>
      <use xlink:href="#DejaVuSans-c5" transform="translate(653.320312 0)"/>
      <use xlink:href="#DejaVuSans-5d" transform="translate(721.728516 0)"/>
     </g>
    </g>
   </g>
   <g id="matplotlib.axis_4">
    <g id="ytick_6">
     <g id="line2d_26">
      <g>
       <use xlink:href="#m45f1e2cb66" x="497.565385" y="246.484315" style="stroke: #000000; stroke-width: 0.8"/>
      </g>
     </g>
     <g id="text_28">
      <!-- 0 -->
      <g transform="translate(484.202885 250.283533) scale(0.1 -0.1)">
       <use xlink:href="#DejaVuSans-30"/>
      </g>
     </g>
    </g>
    <g id="ytick_7">
     <g id="line2d_27">
      <g>
       <use xlink:href="#m45f1e2cb66" x="497.565385" y="195.164216" style="stroke: #000000; stroke-width: 0.8"/>
      </g>
     </g>
     <g id="text_29">
      <!-- 200 -->
      <g transform="translate(471.477885 198.963435) scale(0.1 -0.1)">
       <use xlink:href="#DejaVuSans-32"/>
       <use xlink:href="#DejaVuSans-30" transform="translate(63.623047 0)"/>
       <use xlink:href="#DejaVuSans-30" transform="translate(127.246094 0)"/>
      </g>
     </g>
    </g>
    <g id="ytick_8">
     <g id="line2d_28">
      <g>
       <use xlink:href="#m45f1e2cb66" x="497.565385" y="143.844118" style="stroke: #000000; stroke-width: 0.8"/>
      </g>
     </g>
     <g id="text_30">
      <!-- 400 -->
      <g transform="translate(471.477885 147.643337) scale(0.1 -0.1)">
       <use xlink:href="#DejaVuSans-34"/>
       <use xlink:href="#DejaVuSans-30" transform="translate(63.623047 0)"/>
       <use xlink:href="#DejaVuSans-30" transform="translate(127.246094 0)"/>
      </g>
     </g>
    </g>
    <g id="ytick_9">
     <g id="line2d_29">
      <g>
       <use xlink:href="#m45f1e2cb66" x="497.565385" y="92.52402" style="stroke: #000000; stroke-width: 0.8"/>
      </g>
     </g>
     <g id="text_31">
      <!-- 600 -->
      <g transform="translate(471.477885 96.323238) scale(0.1 -0.1)">
       <use xlink:href="#DejaVuSans-36"/>
       <use xlink:href="#DejaVuSans-30" transform="translate(63.623047 0)"/>
       <use xlink:href="#DejaVuSans-30" transform="translate(127.246094 0)"/>
      </g>
     </g>
    </g>
    <g id="ytick_10">
     <g id="line2d_30">
      <g>
       <use xlink:href="#m45f1e2cb66" x="497.565385" y="41.203921" style="stroke: #000000; stroke-width: 0.8"/>
      </g>
     </g>
     <g id="text_32">
      <!-- 800 -->
      <g transform="translate(471.477885 45.00314) scale(0.1 -0.1)">
       <use xlink:href="#DejaVuSans-38"/>
       <use xlink:href="#DejaVuSans-30" transform="translate(63.623047 0)"/>
       <use xlink:href="#DejaVuSans-30" transform="translate(127.246094 0)"/>
      </g>
     </g>
    </g>
    <g id="text_33">
     <!-- [counts] -->
     <g transform="translate(465.398198 160.35101) rotate(-90) scale(0.1 -0.1)">
      <use xlink:href="#DejaVuSans-5b"/>
      <use xlink:href="#DejaVuSans-63" transform="translate(39.013672 0)"/>
      <use xlink:href="#DejaVuSans-6f" transform="translate(93.994141 0)"/>
      <use xlink:href="#DejaVuSans-75" transform="translate(155.175781 0)"/>
      <use xlink:href="#DejaVuSans-6e" transform="translate(218.554688 0)"/>
      <use xlink:href="#DejaVuSans-74" transform="translate(281.933594 0)"/>
      <use xlink:href="#DejaVuSans-73" transform="translate(321.142578 0)"/>
      <use xlink:href="#DejaVuSans-5d" transform="translate(373.242188 0)"/>
     </g>
    </g>
   </g>
   <g id="line2d_31">
    <path d="M 514.276028 246.484315 
L 522.631349 246.484315 
L 522.631349 245.714513 
L 524.302413 245.714513 
L 524.302413 234.680692 
L 525.973477 234.680692 
L 525.973477 233.91089 
L 527.644542 233.91089 
L 527.644542 225.443074 
L 529.315606 225.443074 
L 529.315606 209.020643 
L 530.98667 209.020643 
L 530.98667 203.118831 
L 532.657734 203.118831 
L 532.657734 198.500023 
L 534.328799 198.500023 
L 534.328799 195.677417 
L 535.999863 195.677417 
L 535.999863 191.571809 
L 537.670927 191.571809 
L 537.670927 175.149378 
L 539.341991 175.149378 
L 539.341991 164.372157 
L 541.013056 164.372157 
L 541.013056 165.141959 
L 542.68412 165.141959 
L 542.68412 156.674142 
L 544.355184 156.674142 
L 544.355184 147.179924 
L 546.026248 147.179924 
L 546.026248 139.225309 
L 547.697313 139.225309 
L 547.697313 125.882083 
L 549.368377 125.882083 
L 549.368377 128.191488 
L 551.039441 128.191488 
L 551.039441 115.104863 
L 552.710505 115.104863 
L 552.710505 115.618064 
L 554.38157 115.618064 
L 554.38157 103.30124 
L 556.052634 103.30124 
L 556.052634 105.610645 
L 557.723698 105.610645 
L 557.723698 98.425831 
L 559.394762 98.425831 
L 559.394762 92.267419 
L 561.065827 92.267419 
L 561.065827 75.331787 
L 562.736891 75.331787 
L 562.736891 77.12799 
L 564.407955 77.12799 
L 564.407955 69.686576 
L 566.079019 69.686576 
L 566.079019 69.173375 
L 567.750084 69.173375 
L 567.750084 55.573549 
L 569.421148 55.573549 
L 569.421148 51.724541 
L 571.092212 51.724541 
L 571.092212 59.935757 
L 572.763276 59.935757 
L 572.763276 57.369752 
L 574.434341 57.369752 
L 574.434341 58.139554 
L 576.105405 58.139554 
L 576.105405 32.992705 
L 577.776469 32.992705 
L 577.776469 50.184938 
L 579.447533 50.184938 
L 579.447533 47.875534 
L 581.118598 47.875534 
L 581.118598 47.618933 
L 582.789662 47.618933 
L 582.789662 44.539728 
L 584.460726 44.539728 
L 584.460726 55.573549 
L 586.13179 55.573549 
L 586.13179 47.105732 
L 587.802855 47.105732 
L 587.802855 66.60737 
L 589.473919 66.60737 
L 589.473919 87.64861 
L 591.144983 87.64861 
L 591.144983 59.679157 
L 592.816047 59.679157 
L 592.816047 62.758362 
L 594.487112 62.758362 
L 594.487112 73.535583 
L 596.158176 73.535583 
L 596.158176 58.139554 
L 597.82924 58.139554 
L 597.82924 68.146973 
L 599.500304 68.146973 
L 599.500304 74.818586 
L 601.171369 74.818586 
L 601.171369 75.588387 
L 602.842433 75.588387 
L 602.842433 70.712978 
L 604.513497 70.712978 
L 604.513497 76.87139 
L 606.184561 76.87139 
L 606.184561 71.73938 
L 607.855626 71.73938 
L 607.855626 78.667593 
L 609.52669 78.667593 
L 609.52669 86.109007 
L 611.197754 86.109007 
L 611.197754 90.214615 
L 612.868818 90.214615 
L 612.868818 86.878809 
L 614.539882 86.878809 
L 614.539882 85.595806 
L 616.210947 85.595806 
L 616.210947 89.958015 
L 617.882011 89.958015 
L 617.882011 93.293821 
L 619.553075 93.293821 
L 619.553075 96.886228 
L 621.22414 96.886228 
L 621.22414 87.135409 
L 622.895204 87.135409 
L 622.895204 95.090024 
L 624.566268 95.090024 
L 624.566268 88.418412 
L 626.237332 88.418412 
L 626.237332 109.203051 
L 627.908397 109.203051 
L 627.908397 87.64861 
L 629.579461 87.64861 
L 629.579461 88.675012 
L 631.250525 88.675012 
L 631.250525 104.584243 
L 632.921589 104.584243 
L 632.921589 89.444814 
L 634.592654 89.444814 
L 634.592654 90.727816 
L 636.263718 90.727816 
L 636.263718 88.418412 
L 637.934782 88.418412 
L 637.934782 109.459652 
L 639.605846 109.459652 
L 639.605846 94.833424 
L 641.27691 94.833424 
L 641.27691 117.670868 
L 642.947975 117.670868 
L 642.947975 110.999255 
L 644.619039 110.999255 
L 644.619039 113.308659 
L 646.290103 113.308659 
L 646.290103 113.82186 
L 647.961168 113.82186 
L 647.961168 135.376302 
L 649.632232 135.376302 
L 649.632232 135.119701 
L 651.303296 135.119701 
L 651.303296 153.081736 
L 652.97436 153.081736 
L 652.97436 146.153522 
L 654.645424 146.153522 
L 654.645424 157.443944 
L 656.316489 157.443944 
L 656.316489 171.04377 
L 657.987553 171.04377 
L 657.987553 181.56439 
L 659.658617 181.56439 
L 659.658617 185.413398 
L 661.329682 185.413398 
L 661.329682 204.658434 
L 663.000746 204.658434 
L 663.000746 192.854812 
L 664.67181 192.854812 
L 664.67181 202.34903 
L 666.342874 202.34903 
L 666.342874 212.61305 
L 668.013938 212.61305 
L 668.013938 218.771461 
L 669.685003 218.771461 
L 669.685003 228.009079 
L 671.356067 228.009079 
L 671.356067 232.371288 
L 673.027131 232.371288 
L 673.027131 235.193893 
L 674.698195 235.193893 
L 674.698195 240.839104 
L 676.36926 240.839104 
L 676.36926 242.635307 
L 678.040324 242.635307 
L 678.040324 245.201312 
L 679.711388 245.201312 
L 679.711388 241.865506 
L 681.382452 241.865506 
L 681.382452 234.424091 
L 683.053517 234.424091 
L 683.053517 228.778881 
L 684.724581 228.778881 
L 684.724581 219.028062 
L 686.395645 219.028062 
L 686.395645 212.099849 
L 688.06671 212.099849 
L 688.06671 212.356449 
L 689.737774 212.356449 
L 689.737774 204.401834 
L 691.408838 204.401834 
L 691.408838 201.066028 
L 693.079902 201.066028 
L 693.079902 184.900197 
L 694.750967 184.900197 
L 694.750967 188.492603 
L 696.422031 188.492603 
L 696.422031 182.077591 
L 698.093095 182.077591 
L 698.093095 176.17578 
L 699.764159 176.17578 
L 699.764159 181.30779 
L 701.435224 181.30779 
L 701.435224 167.451363 
L 703.106288 167.451363 
L 703.106288 157.443944 
L 704.777352 157.443944 
L 704.777352 166.424961 
L 706.448416 166.424961 
L 706.448416 154.621339 
L 708.119481 154.621339 
L 708.119481 142.817716 
L 709.790545 142.817716 
L 709.790545 152.825135 
L 711.461609 152.825135 
L 711.461609 144.613919 
L 713.132673 144.613919 
L 713.132673 139.48191 
L 714.803738 139.48191 
L 714.803738 137.172505 
L 716.474802 137.172505 
L 716.474802 129.987691 
L 718.145866 129.987691 
L 718.145866 119.210471 
L 719.81693 119.210471 
L 719.81693 125.625483 
L 721.487995 125.625483 
L 721.487995 120.750074 
L 723.159059 120.750074 
L 723.159059 120.493473 
L 724.830123 120.493473 
L 724.830123 110.999255 
L 726.501187 110.999255 
L 726.501187 120.236873 
L 728.172252 120.236873 
L 728.172252 113.052059 
L 729.843316 113.052059 
L 729.843316 116.644466 
L 731.51438 116.644466 
L 731.51438 108.17665 
L 733.185444 108.17665 
L 733.185444 122.033076 
L 734.856509 122.033076 
L 734.856509 110.742654 
L 736.527573 110.742654 
L 736.527573 118.440669 
L 738.198637 118.440669 
L 738.198637 118.184069 
L 739.869701 118.184069 
L 739.869701 128.961289 
L 741.540766 128.961289 
L 741.540766 122.289677 
L 743.21183 122.289677 
L 743.21183 134.3499 
L 744.882894 134.3499 
L 744.882894 110.742654 
L 746.553958 110.742654 
L 746.553958 133.323498 
L 748.225023 133.323498 
L 748.225023 130.500892 
L 749.896087 130.500892 
L 749.896087 134.6065 
L 751.567151 134.6065 
L 751.567151 125.112282 
L 753.238215 125.112282 
L 753.238215 141.791314 
L 754.909279 141.791314 
L 754.909279 137.172505 
L 756.580344 137.172505 
L 756.580344 148.976128 
L 758.251408 148.976128 
L 758.251408 135.889503 
L 759.922472 135.889503 
L 759.922472 137.429106 
L 761.593537 137.429106 
L 761.593537 140.508311 
L 763.264601 140.508311 
L 763.264601 152.311934 
L 764.935665 152.311934 
L 764.935665 151.798733 
L 766.606729 151.798733 
L 766.606729 146.666723 
L 768.277793 146.666723 
L 768.277793 160.009949 
L 769.948858 160.009949 
L 769.948858 144.87052 
L 771.619922 144.87052 
L 771.619922 154.108138 
L 773.290986 154.108138 
L 773.290986 158.983547 
L 774.962051 158.983547 
L 774.962051 164.115557 
L 776.633115 164.115557 
L 776.633115 164.372157 
L 778.304179 164.372157 
L 778.304179 167.707964 
L 779.975243 167.707964 
L 779.975243 166.424961 
L 781.646308 166.424961 
L 781.646308 166.681562 
L 783.317372 166.681562 
L 783.317372 181.051189 
L 784.988436 181.051189 
L 784.988436 171.04377 
L 786.6595 171.04377 
L 786.6595 166.424961 
L 788.330565 166.424961 
L 788.330565 171.30037 
L 790.001629 171.30037 
L 790.001629 170.017368 
L 791.672693 170.017368 
L 791.672693 181.56439 
L 793.343757 181.56439 
L 793.343757 175.919179 
L 795.014822 175.919179 
L 795.014822 194.137814 
L 796.685886 194.137814 
L 796.685886 185.669998 
L 798.35695 185.669998 
L 798.35695 190.032206 
L 800.028014 190.032206 
L 800.028014 194.137814 
L 801.699079 194.137814 
L 801.699079 195.164216 
L 803.370143 195.164216 
L 803.370143 200.296226 
L 805.041207 200.296226 
L 805.041207 195.677417 
L 806.712271 195.677417 
L 806.712271 204.658434 
L 808.383336 204.658434 
L 808.383336 210.816846 
L 811.725464 210.816846 
L 811.725464 209.277243 
L 813.396528 209.277243 
L 813.396528 217.488459 
L 815.067593 217.488459 
L 815.067593 222.620469 
L 816.738657 222.620469 
L 816.738657 225.699675 
L 820.080785 225.699675 
L 820.080785 225.186474 
L 821.75185 225.186474 
L 821.75185 229.292082 
L 823.422914 229.292082 
L 823.422914 235.707094 
L 825.093978 235.707094 
L 825.093978 234.424091 
L 826.765042 234.424091 
L 826.765042 240.325903 
L 828.436107 240.325903 
L 828.436107 238.529699 
L 830.107171 238.529699 
L 830.107171 239.556101 
L 831.778235 239.556101 
L 831.778235 243.405109 
L 833.449299 243.405109 
L 833.449299 242.891908 
L 835.120363 242.891908 
L 835.120363 244.688111 
L 836.791428 244.688111 
L 836.791428 245.201312 
L 838.462492 245.201312 
L 838.462492 246.227714 
L 840.133556 246.227714 
L 840.133556 246.484315 
L 848.488877 246.484315 
L 848.488877 246.484315 
" clip-path="url(#p13e1ef02e6)" style="fill: none; stroke: #1f77b4; stroke-width: 1.5; stroke-linecap: square"/>
   </g>
   <g id="line2d_32">
    <path d="M 514.276028 246.484315 
L 522.631349 246.484315 
L 522.631349 243.661709 
L 524.302413 243.661709 
L 524.302413 236.220295 
L 525.973477 236.220295 
L 525.973477 232.371288 
L 527.644542 232.371288 
L 527.644542 225.186474 
L 529.315606 225.186474 
L 529.315606 209.533844 
L 530.98667 209.533844 
L 530.98667 204.145233 
L 532.657734 204.145233 
L 532.657734 199.526425 
L 534.328799 199.526425 
L 534.328799 195.164216 
L 535.999863 195.164216 
L 535.999863 191.571809 
L 537.670927 191.571809 
L 537.670927 173.866375 
L 539.341991 173.866375 
L 539.341991 164.885358 
L 541.013056 164.885358 
L 541.013056 168.734366 
L 542.68412 168.734366 
L 542.68412 151.542133 
L 544.355184 151.542133 
L 544.355184 148.719527 
L 546.026248 148.719527 
L 546.026248 132.810297 
L 547.697313 132.810297 
L 547.697313 129.21789 
L 549.368377 129.21789 
L 549.368377 128.191488 
L 551.039441 128.191488 
L 551.039441 116.901066 
L 552.710505 116.901066 
L 552.710505 115.361463 
L 554.38157 115.361463 
L 554.38157 101.761637 
L 556.052634 101.761637 
L 556.052634 105.354044 
L 557.723698 105.354044 
L 557.723698 97.656029 
L 561.065827 97.656029 
L 561.065827 76.87139 
L 562.736891 76.87139 
L 562.736891 75.331787 
L 564.407955 75.331787 
L 564.407955 70.969578 
L 566.079019 70.969578 
L 566.079019 59.165956 
L 567.750084 59.165956 
L 567.750084 61.731961 
L 569.421148 61.731961 
L 569.421148 48.132134 
L 571.092212 48.132134 
L 571.092212 69.686576 
L 572.763276 69.686576 
L 572.763276 48.901936 
L 574.434341 48.901936 
L 574.434341 60.962159 
L 576.105405 60.962159 
L 576.105405 36.841713 
L 577.776469 36.841713 
L 577.776469 51.467941 
L 579.447533 51.467941 
L 579.447533 45.309529 
L 581.118598 45.309529 
L 581.118598 47.362333 
L 582.789662 47.362333 
L 582.789662 45.56613 
L 584.460726 45.56613 
L 584.460726 53.520745 
L 586.13179 53.520745 
L 586.13179 50.184938 
L 587.802855 50.184938 
L 587.802855 63.784764 
L 589.473919 63.784764 
L 589.473919 76.614789 
L 591.144983 76.614789 
L 591.144983 68.403573 
L 592.816047 68.403573 
L 592.816047 73.792184 
L 594.487112 73.792184 
L 594.487112 53.007544 
L 596.158176 53.007544 
L 596.158176 65.067767 
L 597.82924 65.067767 
L 597.82924 80.976997 
L 599.500304 80.976997 
L 599.500304 68.916774 
L 601.171369 68.916774 
L 601.171369 79.180794 
L 602.842433 79.180794 
L 602.842433 69.173375 
L 604.513497 69.173375 
L 604.513497 75.075186 
L 606.184561 75.075186 
L 606.184561 71.482779 
L 607.855626 71.482779 
L 607.855626 74.048784 
L 609.52669 74.048784 
L 609.52669 89.701414 
L 611.197754 89.701414 
L 611.197754 85.852407 
L 612.868818 85.852407 
L 612.868818 88.161811 
L 614.539882 88.161811 
L 614.539882 89.701414 
L 616.210947 89.701414 
L 616.210947 96.373027 
L 617.882011 96.373027 
L 617.882011 92.010819 
L 619.553075 92.010819 
L 619.553075 81.490198 
L 621.22414 81.490198 
L 621.22414 93.807022 
L 622.895204 93.807022 
L 622.895204 99.452233 
L 624.566268 99.452233 
L 624.566268 90.984417 
L 626.237332 90.984417 
L 626.237332 97.656029 
L 627.908397 97.656029 
L 627.908397 97.399429 
L 629.579461 97.399429 
L 629.579461 88.418412 
L 631.250525 88.418412 
L 631.250525 93.807022 
L 632.921589 93.807022 
L 632.921589 95.603225 
L 634.592654 95.603225 
L 634.592654 91.497618 
L 636.263718 91.497618 
L 636.263718 98.16923 
L 637.934782 98.16923 
L 637.934782 95.603225 
L 639.605846 95.603225 
L 639.605846 107.663449 
L 641.27691 107.663449 
L 641.27691 103.04464 
L 642.947975 103.04464 
L 642.947975 119.467071 
L 644.619039 119.467071 
L 644.619039 117.157667 
L 646.290103 117.157667 
L 646.290103 110.486054 
L 647.961168 110.486054 
L 647.961168 133.836699 
L 649.632232 133.836699 
L 649.632232 140.764912 
L 651.303296 140.764912 
L 651.303296 142.304515 
L 652.97436 142.304515 
L 652.97436 151.285532 
L 654.645424 151.285532 
L 654.645424 160.52315 
L 656.316489 160.52315 
L 656.316489 168.477765 
L 657.987553 168.477765 
L 657.987553 180.024787 
L 659.658617 180.024787 
L 659.658617 184.386996 
L 661.329682 184.386996 
L 661.329682 201.835829 
L 663.000746 201.835829 
L 663.000746 196.703819 
L 664.67181 196.703819 
L 664.67181 204.915035 
L 666.342874 204.915035 
L 666.342874 212.356449 
L 668.013938 212.356449 
L 668.013938 216.718658 
L 669.685003 216.718658 
L 669.685003 228.009079 
L 671.356067 228.009079 
L 671.356067 232.627888 
L 673.027131 232.627888 
L 673.027131 234.424091 
L 674.698195 234.424091 
L 674.698195 241.352305 
L 676.36926 241.352305 
L 676.36926 242.378707 
L 678.040324 242.378707 
L 678.040324 244.431511 
L 679.711388 244.431511 
L 679.711388 240.325903 
L 681.382452 240.325903 
L 681.382452 234.937292 
L 683.053517 234.937292 
L 683.053517 226.726077 
L 684.724581 226.726077 
L 684.724581 219.028062 
L 686.395645 219.028062 
L 686.395645 214.152653 
L 688.06671 214.152653 
L 688.06671 212.356449 
L 689.737774 212.356449 
L 689.737774 204.915035 
L 691.408838 204.915035 
L 691.408838 200.039626 
L 693.079902 200.039626 
L 693.079902 185.413398 
L 694.750967 185.413398 
L 694.750967 186.439799 
L 698.093095 186.439799 
L 698.093095 176.688981 
L 699.764159 176.688981 
L 699.764159 176.43238 
L 701.435224 176.43238 
L 701.435224 169.247567 
L 703.106288 169.247567 
L 703.106288 160.009949 
L 704.777352 160.009949 
L 704.777352 158.213745 
L 706.448416 158.213745 
L 706.448416 157.187343 
L 708.119481 157.187343 
L 708.119481 149.489329 
L 709.790545 149.489329 
L 709.790545 148.462927 
L 711.461609 148.462927 
L 711.461609 144.100718 
L 713.132673 144.100718 
L 713.132673 139.48191 
L 714.803738 139.48191 
L 714.803738 140.508311 
L 716.474802 140.508311 
L 716.474802 131.270694 
L 718.145866 131.270694 
L 718.145866 126.908485 
L 719.81693 126.908485 
L 719.81693 113.82186 
L 721.487995 113.82186 
L 721.487995 120.236873 
L 723.159059 120.236873 
L 723.159059 119.723672 
L 724.830123 119.723672 
L 724.830123 112.025657 
L 726.501187 112.025657 
L 726.501187 113.82186 
L 728.172252 113.82186 
L 728.172252 115.104863 
L 729.843316 115.104863 
L 729.843316 122.546277 
L 731.51438 122.546277 
L 731.51438 105.867245 
L 733.185444 105.867245 
L 733.185444 117.927468 
L 734.856509 117.927468 
L 734.856509 114.078461 
L 736.527573 114.078461 
L 736.527573 118.95387 
L 738.198637 118.95387 
L 738.198637 125.368882 
L 739.869701 125.368882 
L 739.869701 127.165086 
L 741.540766 127.165086 
L 741.540766 122.033076 
L 743.21183 122.033076 
L 743.21183 132.553696 
L 744.882894 132.553696 
L 744.882894 114.335061 
L 746.553958 114.335061 
L 746.553958 127.934887 
L 748.225023 127.934887 
L 748.225023 129.731091 
L 749.896087 129.731091 
L 749.896087 132.297096 
L 751.567151 132.297096 
L 751.567151 136.146103 
L 753.238215 136.146103 
L 753.238215 136.915905 
L 754.909279 136.915905 
L 754.909279 133.066897 
L 756.580344 133.066897 
L 756.580344 145.383721 
L 758.251408 145.383721 
L 758.251408 139.48191 
L 759.922472 139.48191 
L 759.922472 137.685706 
L 761.593537 137.685706 
L 761.593537 145.12712 
L 763.264601 145.12712 
L 763.264601 150.772331 
L 764.935665 150.772331 
L 764.935665 147.179924 
L 766.606729 147.179924 
L 766.606729 151.542133 
L 768.277793 151.542133 
L 768.277793 154.621339 
L 769.948858 154.621339 
L 769.948858 153.081736 
L 771.619922 153.081736 
L 771.619922 153.851537 
L 773.290986 153.851537 
L 773.290986 154.621339 
L 774.962051 154.621339 
L 774.962051 159.240147 
L 776.633115 159.240147 
L 776.633115 165.65516 
L 778.304179 165.65516 
L 778.304179 164.115557 
L 779.975243 164.115557 
L 779.975243 177.202182 
L 781.646308 177.202182 
L 781.646308 167.707964 
L 783.317372 167.707964 
L 783.317372 170.273969 
L 784.988436 170.273969 
L 784.988436 172.839973 
L 788.330565 172.839973 
L 788.330565 171.556971 
L 790.001629 171.556971 
L 790.001629 171.30037 
L 791.672693 171.30037 
L 791.672693 175.149378 
L 793.343757 175.149378 
L 793.343757 177.715383 
L 795.014822 177.715383 
L 795.014822 192.598211 
L 796.685886 192.598211 
L 796.685886 185.413398 
L 798.35695 185.413398 
L 798.35695 192.341611 
L 800.028014 192.341611 
L 800.028014 190.802008 
L 801.699079 190.802008 
L 801.699079 196.190618 
L 803.370143 196.190618 
L 803.370143 202.092429 
L 805.041207 202.092429 
L 805.041207 196.190618 
L 806.712271 196.190618 
L 806.712271 208.507442 
L 808.383336 208.507442 
L 808.383336 209.020643 
L 810.0544 209.020643 
L 810.0544 206.711238 
L 811.725464 206.711238 
L 811.725464 212.099849 
L 813.396528 212.099849 
L 813.396528 217.745059 
L 815.067593 217.745059 
L 815.067593 223.13367 
L 816.738657 223.13367 
L 816.738657 225.956275 
L 818.409721 225.956275 
L 818.409721 226.726077 
L 820.080785 226.726077 
L 820.080785 220.311064 
L 821.75185 220.311064 
L 821.75185 230.831685 
L 823.422914 230.831685 
L 823.422914 235.963694 
L 825.093978 235.963694 
L 825.093978 234.937292 
L 826.765042 234.937292 
L 826.765042 239.299501 
L 828.436107 239.299501 
L 828.436107 240.582503 
L 830.107171 240.582503 
L 830.107171 238.273099 
L 831.778235 238.273099 
L 831.778235 243.91831 
L 833.449299 243.91831 
L 833.449299 242.635307 
L 835.120363 242.635307 
L 835.120363 244.688111 
L 836.791428 244.688111 
L 836.791428 244.944712 
L 838.462492 244.944712 
L 838.462492 246.227714 
L 841.804621 246.227714 
L 841.804621 246.484315 
L 848.488877 246.484315 
L 848.488877 246.484315 
" clip-path="url(#p13e1ef02e6)" style="fill: none; stroke: #ff7f0e; stroke-width: 1.5; stroke-linecap: square"/>
   </g>
   <g id="patch_9">
    <path d="M 497.565385 257.158895 
L 497.565385 22.318125 
" style="fill: none; stroke: #000000; stroke-width: 0.8; stroke-linejoin: miter; stroke-linecap: square"/>
   </g>
   <g id="patch_10">
    <path d="M 865.19952 257.158895 
L 865.19952 22.318125 
" style="fill: none; stroke: #000000; stroke-width: 0.8; stroke-linejoin: miter; stroke-linecap: square"/>
   </g>
   <g id="patch_11">
    <path d="M 497.565385 257.158895 
L 865.19952 257.158895 
" style="fill: none; stroke: #000000; stroke-width: 0.8; stroke-linejoin: miter; stroke-linecap: square"/>
   </g>
   <g id="patch_12">
    <path d="M 497.565385 22.318125 
L 865.19952 22.318125 
" style="fill: none; stroke: #000000; stroke-width: 0.8; stroke-linejoin: miter; stroke-linecap: square"/>
   </g>
   <g id="text_34">
    <!-- Pixel 2 -->
    <g transform="translate(661.78589 16.318125) scale(0.12 -0.12)">
     <use xlink:href="#DejaVuSans-50"/>
     <use xlink:href="#DejaVuSans-69" transform="translate(58.052734 0)"/>
     <use xlink:href="#DejaVuSans-78" transform="translate(85.835938 0)"/>
     <use xlink:href="#DejaVuSans-65" transform="translate(141.890625 0)"/>
     <use xlink:href="#DejaVuSans-6c" transform="translate(203.414062 0)"/>
     <use xlink:href="#DejaVuSans-20" transform="translate(231.197266 0)"/>
     <use xlink:href="#DejaVuSans-32" transform="translate(262.984375 0)"/>
    </g>
   </g>
   <g id="legend_2">
    <g id="patch_13">
     <path d="M 761.196395 59.9525 
L 858.19952 59.9525 
Q 860.19952 59.9525 860.19952 57.9525 
L 860.19952 29.318125 
Q 860.19952 27.318125 858.19952 27.318125 
L 761.196395 27.318125 
Q 759.196395 27.318125 759.196395 29.318125 
L 759.196395 57.9525 
Q 759.196395 59.9525 761.196395 59.9525 
z
" style="fill: #ffffff; opacity: 0.8; stroke: #cccccc; stroke-linejoin: miter"/>
    </g>
    <g id="line2d_33">
     <path d="M 763.196395 35.416562 
L 763.196395 35.416562 
L 773.196395 35.416562 
L 773.196395 35.416562 
L 783.196395 35.416562 
" style="fill: none; stroke: #1f77b4; stroke-width: 1.5; stroke-linecap: square"/>
    </g>
    <g id="text_35">
     <!-- wfm -->
     <g transform="translate(791.196395 38.916562) scale(0.1 -0.1)">
      <use xlink:href="#DejaVuSans-77"/>
      <use xlink:href="#DejaVuSans-66" transform="translate(81.787109 0)"/>
      <use xlink:href="#DejaVuSans-6d" transform="translate(116.992188 0)"/>
     </g>
    </g>
    <g id="line2d_34">
     <path d="M 763.196395 50.094687 
L 763.196395 50.094687 
L 773.196395 50.094687 
L 773.196395 50.094687 
L 783.196395 50.094687 
" style="fill: none; stroke: #ff7f0e; stroke-width: 1.5; stroke-linecap: square"/>
    </g>
    <g id="text_36">
     <!-- ground_truth -->
     <g transform="translate(791.196395 53.594687) scale(0.1 -0.1)">
      <use xlink:href="#DejaVuSans-67"/>
      <use xlink:href="#DejaVuSans-72" transform="translate(63.476562 0)"/>
      <use xlink:href="#DejaVuSans-6f" transform="translate(102.339844 0)"/>
      <use xlink:href="#DejaVuSans-75" transform="translate(163.521484 0)"/>
      <use xlink:href="#DejaVuSans-6e" transform="translate(226.900391 0)"/>
      <use xlink:href="#DejaVuSans-64" transform="translate(290.279297 0)"/>
      <use xlink:href="#DejaVuSans-5f" transform="translate(353.755859 0)"/>
      <use xlink:href="#DejaVuSans-74" transform="translate(403.755859 0)"/>
      <use xlink:href="#DejaVuSans-72" transform="translate(442.964844 0)"/>
      <use xlink:href="#DejaVuSans-75" transform="translate(484.078125 0)"/>
      <use xlink:href="#DejaVuSans-74" transform="translate(547.457031 0)"/>
      <use xlink:href="#DejaVuSans-68" transform="translate(586.666016 0)"/>
     </g>
    </g>
   </g>
  </g>
 </g>
 <defs>
  <clipPath id="p3e8dc4c475">
   <rect x="46.965625" y="22.318125" width="367.634135" height="234.84077"/>
  </clipPath>
  <clipPath id="p13e1ef02e6">
   <rect x="497.565385" y="22.318125" width="367.634135" height="234.84077"/>
  </clipPath>
 </defs>
</svg>
