<?xml version="1.0" encoding="utf-8" standalone="no"?>
<!DOCTYPE svg PUBLIC "-//W3C//DTD SVG 1.1//EN"
  "http://www.w3.org/Graphics/SVG/1.1/DTD/svg11.dtd">
<svg xmlns:xlink="http://www.w3.org/1999/xlink" width="388.965625pt" height="266.794375pt" viewBox="0 0 388.965625 266.794375" xmlns="http://www.w3.org/2000/svg" version="1.1">
 <metadata>
  <rdf:RDF xmlns:dc="http://purl.org/dc/elements/1.1/" xmlns:cc="http://creativecommons.org/ns#" xmlns:rdf="http://www.w3.org/1999/02/22-rdf-syntax-ns#">
   <cc:Work>
    <dc:type rdf:resource="http://purl.org/dc/dcmitype/StillImage"/>
    <dc:date>2025-01-30T11:57:49.475261</dc:date>
    <dc:format>image/svg+xml</dc:format>
    <dc:creator>
     <cc:Agent>
      <dc:title>Matplotlib v3.10.0, https://matplotlib.org/</dc:title>
     </cc:Agent>
    </dc:creator>
   </cc:Work>
  </rdf:RDF>
 </metadata>
 <defs>
  <style type="text/css">*{stroke-linejoin: round; stroke-linecap: butt}</style>
 </defs>
 <g id="figure_1">
  <g id="patch_1">
   <path d="M 0 266.794375 
L 388.965625 266.794375 
L 388.965625 0 
L 0 0 
z
" style="fill: #ffffff"/>
  </g>
  <g id="axes_1">
   <g id="patch_2">
    <path d="M 46.965625 228.96 
L 381.765625 228.96 
L 381.765625 7.2 
L 46.965625 7.2 
z
" style="fill: #ffffff"/>
   </g>
   <g id="matplotlib.axis_1">
    <g id="xtick_1">
     <g id="line2d_1">
      <defs>
       <path id="m5247937c30" d="M 0 0 
L 0 3.5 
" style="stroke: #000000; stroke-width: 0.8"/>
      </defs>
      <g>
       <use xlink:href="#m5247937c30" x="62.182151" y="228.96" style="stroke: #000000; stroke-width: 0.8"/>
      </g>
     </g>
     <g id="text_1">
      <!-- 0.00 -->
      <g transform="translate(51.049338 243.558437) scale(0.1 -0.1)">
       <defs>
        <path id="DejaVuSans-30" d="M 2034 4250 
Q 1547 4250 1301 3770 
Q 1056 3291 1056 2328 
Q 1056 1369 1301 889 
Q 1547 409 2034 409 
Q 2525 409 2770 889 
Q 3016 1369 3016 2328 
Q 3016 3291 2770 3770 
Q 2525 4250 2034 4250 
z
M 2034 4750 
Q 2819 4750 3233 4129 
Q 3647 3509 3647 2328 
Q 3647 1150 3233 529 
Q 2819 -91 2034 -91 
Q 1250 -91 836 529 
Q 422 1150 422 2328 
Q 422 3509 836 4129 
Q 1250 4750 2034 4750 
z
" transform="scale(0.015625)"/>
        <path id="DejaVuSans-2e" d="M 684 794 
L 1344 794 
L 1344 0 
L 684 0 
L 684 794 
z
" transform="scale(0.015625)"/>
       </defs>
       <use xlink:href="#DejaVuSans-30"/>
       <use xlink:href="#DejaVuSans-2e" transform="translate(63.623047 0)"/>
       <use xlink:href="#DejaVuSans-30" transform="translate(95.410156 0)"/>
       <use xlink:href="#DejaVuSans-30" transform="translate(159.033203 0)"/>
      </g>
     </g>
    </g>
    <g id="xtick_2">
     <g id="line2d_2">
      <g>
       <use xlink:href="#m5247937c30" x="104.794871" y="228.96" style="stroke: #000000; stroke-width: 0.8"/>
      </g>
     </g>
     <g id="text_2">
      <!-- 0.01 -->
      <g transform="translate(93.662059 243.558437) scale(0.1 -0.1)">
       <defs>
        <path id="DejaVuSans-31" d="M 794 531 
L 1825 531 
L 1825 4091 
L 703 3866 
L 703 4441 
L 1819 4666 
L 2450 4666 
L 2450 531 
L 3481 531 
L 3481 0 
L 794 0 
L 794 531 
z
" transform="scale(0.015625)"/>
       </defs>
       <use xlink:href="#DejaVuSans-30"/>
       <use xlink:href="#DejaVuSans-2e" transform="translate(63.623047 0)"/>
       <use xlink:href="#DejaVuSans-30" transform="translate(95.410156 0)"/>
       <use xlink:href="#DejaVuSans-31" transform="translate(159.033203 0)"/>
      </g>
     </g>
    </g>
    <g id="xtick_3">
     <g id="line2d_3">
      <g>
       <use xlink:href="#m5247937c30" x="147.407592" y="228.96" style="stroke: #000000; stroke-width: 0.8"/>
      </g>
     </g>
     <g id="text_3">
      <!-- 0.02 -->
      <g transform="translate(136.274779 243.558437) scale(0.1 -0.1)">
       <defs>
        <path id="DejaVuSans-32" d="M 1228 531 
L 3431 531 
L 3431 0 
L 469 0 
L 469 531 
Q 828 903 1448 1529 
Q 2069 2156 2228 2338 
Q 2531 2678 2651 2914 
Q 2772 3150 2772 3378 
Q 2772 3750 2511 3984 
Q 2250 4219 1831 4219 
Q 1534 4219 1204 4116 
Q 875 4013 500 3803 
L 500 4441 
Q 881 4594 1212 4672 
Q 1544 4750 1819 4750 
Q 2544 4750 2975 4387 
Q 3406 4025 3406 3419 
Q 3406 3131 3298 2873 
Q 3191 2616 2906 2266 
Q 2828 2175 2409 1742 
Q 1991 1309 1228 531 
z
" transform="scale(0.015625)"/>
       </defs>
       <use xlink:href="#DejaVuSans-30"/>
       <use xlink:href="#DejaVuSans-2e" transform="translate(63.623047 0)"/>
       <use xlink:href="#DejaVuSans-30" transform="translate(95.410156 0)"/>
       <use xlink:href="#DejaVuSans-32" transform="translate(159.033203 0)"/>
      </g>
     </g>
    </g>
    <g id="xtick_4">
     <g id="line2d_4">
      <g>
       <use xlink:href="#m5247937c30" x="190.020312" y="228.96" style="stroke: #000000; stroke-width: 0.8"/>
      </g>
     </g>
     <g id="text_4">
      <!-- 0.03 -->
      <g transform="translate(178.8875 243.558437) scale(0.1 -0.1)">
       <defs>
        <path id="DejaVuSans-33" d="M 2597 2516 
Q 3050 2419 3304 2112 
Q 3559 1806 3559 1356 
Q 3559 666 3084 287 
Q 2609 -91 1734 -91 
Q 1441 -91 1130 -33 
Q 819 25 488 141 
L 488 750 
Q 750 597 1062 519 
Q 1375 441 1716 441 
Q 2309 441 2620 675 
Q 2931 909 2931 1356 
Q 2931 1769 2642 2001 
Q 2353 2234 1838 2234 
L 1294 2234 
L 1294 2753 
L 1863 2753 
Q 2328 2753 2575 2939 
Q 2822 3125 2822 3475 
Q 2822 3834 2567 4026 
Q 2313 4219 1838 4219 
Q 1578 4219 1281 4162 
Q 984 4106 628 3988 
L 628 4550 
Q 988 4650 1302 4700 
Q 1616 4750 1894 4750 
Q 2613 4750 3031 4423 
Q 3450 4097 3450 3541 
Q 3450 3153 3228 2886 
Q 3006 2619 2597 2516 
z
" transform="scale(0.015625)"/>
       </defs>
       <use xlink:href="#DejaVuSans-30"/>
       <use xlink:href="#DejaVuSans-2e" transform="translate(63.623047 0)"/>
       <use xlink:href="#DejaVuSans-30" transform="translate(95.410156 0)"/>
       <use xlink:href="#DejaVuSans-33" transform="translate(159.033203 0)"/>
      </g>
     </g>
    </g>
    <g id="xtick_5">
     <g id="line2d_5">
      <g>
       <use xlink:href="#m5247937c30" x="232.633033" y="228.96" style="stroke: #000000; stroke-width: 0.8"/>
      </g>
     </g>
     <g id="text_5">
      <!-- 0.04 -->
      <g transform="translate(221.50022 243.558437) scale(0.1 -0.1)">
       <defs>
        <path id="DejaVuSans-34" d="M 2419 4116 
L 825 1625 
L 2419 1625 
L 2419 4116 
z
M 2253 4666 
L 3047 4666 
L 3047 1625 
L 3713 1625 
L 3713 1100 
L 3047 1100 
L 3047 0 
L 2419 0 
L 2419 1100 
L 313 1100 
L 313 1709 
L 2253 4666 
z
" transform="scale(0.015625)"/>
       </defs>
       <use xlink:href="#DejaVuSans-30"/>
       <use xlink:href="#DejaVuSans-2e" transform="translate(63.623047 0)"/>
       <use xlink:href="#DejaVuSans-30" transform="translate(95.410156 0)"/>
       <use xlink:href="#DejaVuSans-34" transform="translate(159.033203 0)"/>
      </g>
     </g>
    </g>
    <g id="xtick_6">
     <g id="line2d_6">
      <g>
       <use xlink:href="#m5247937c30" x="275.245753" y="228.96" style="stroke: #000000; stroke-width: 0.8"/>
      </g>
     </g>
     <g id="text_6">
      <!-- 0.05 -->
      <g transform="translate(264.112941 243.558437) scale(0.1 -0.1)">
       <defs>
        <path id="DejaVuSans-35" d="M 691 4666 
L 3169 4666 
L 3169 4134 
L 1269 4134 
L 1269 2991 
Q 1406 3038 1543 3061 
Q 1681 3084 1819 3084 
Q 2600 3084 3056 2656 
Q 3513 2228 3513 1497 
Q 3513 744 3044 326 
Q 2575 -91 1722 -91 
Q 1428 -91 1123 -41 
Q 819 9 494 109 
L 494 744 
Q 775 591 1075 516 
Q 1375 441 1709 441 
Q 2250 441 2565 725 
Q 2881 1009 2881 1497 
Q 2881 1984 2565 2268 
Q 2250 2553 1709 2553 
Q 1456 2553 1204 2497 
Q 953 2441 691 2322 
L 691 4666 
z
" transform="scale(0.015625)"/>
       </defs>
       <use xlink:href="#DejaVuSans-30"/>
       <use xlink:href="#DejaVuSans-2e" transform="translate(63.623047 0)"/>
       <use xlink:href="#DejaVuSans-30" transform="translate(95.410156 0)"/>
       <use xlink:href="#DejaVuSans-35" transform="translate(159.033203 0)"/>
      </g>
     </g>
    </g>
    <g id="xtick_7">
     <g id="line2d_7">
      <g>
       <use xlink:href="#m5247937c30" x="317.858474" y="228.96" style="stroke: #000000; stroke-width: 0.8"/>
      </g>
     </g>
     <g id="text_7">
      <!-- 0.06 -->
      <g transform="translate(306.725661 243.558437) scale(0.1 -0.1)">
       <defs>
        <path id="DejaVuSans-36" d="M 2113 2584 
Q 1688 2584 1439 2293 
Q 1191 2003 1191 1497 
Q 1191 994 1439 701 
Q 1688 409 2113 409 
Q 2538 409 2786 701 
Q 3034 994 3034 1497 
Q 3034 2003 2786 2293 
Q 2538 2584 2113 2584 
z
M 3366 4563 
L 3366 3988 
Q 3128 4100 2886 4159 
Q 2644 4219 2406 4219 
Q 1781 4219 1451 3797 
Q 1122 3375 1075 2522 
Q 1259 2794 1537 2939 
Q 1816 3084 2150 3084 
Q 2853 3084 3261 2657 
Q 3669 2231 3669 1497 
Q 3669 778 3244 343 
Q 2819 -91 2113 -91 
Q 1303 -91 875 529 
Q 447 1150 447 2328 
Q 447 3434 972 4092 
Q 1497 4750 2381 4750 
Q 2619 4750 2861 4703 
Q 3103 4656 3366 4563 
z
" transform="scale(0.015625)"/>
       </defs>
       <use xlink:href="#DejaVuSans-30"/>
       <use xlink:href="#DejaVuSans-2e" transform="translate(63.623047 0)"/>
       <use xlink:href="#DejaVuSans-30" transform="translate(95.410156 0)"/>
       <use xlink:href="#DejaVuSans-36" transform="translate(159.033203 0)"/>
      </g>
     </g>
    </g>
    <g id="xtick_8">
     <g id="line2d_8">
      <g>
       <use xlink:href="#m5247937c30" x="360.471194" y="228.96" style="stroke: #000000; stroke-width: 0.8"/>
      </g>
     </g>
     <g id="text_8">
      <!-- 0.07 -->
      <g transform="translate(349.338382 243.558437) scale(0.1 -0.1)">
       <defs>
        <path id="DejaVuSans-37" d="M 525 4666 
L 3525 4666 
L 3525 4397 
L 1831 0 
L 1172 0 
L 2766 4134 
L 525 4134 
L 525 4666 
z
" transform="scale(0.015625)"/>
       </defs>
       <use xlink:href="#DejaVuSans-30"/>
       <use xlink:href="#DejaVuSans-2e" transform="translate(63.623047 0)"/>
       <use xlink:href="#DejaVuSans-30" transform="translate(95.410156 0)"/>
       <use xlink:href="#DejaVuSans-37" transform="translate(159.033203 0)"/>
      </g>
     </g>
    </g>
    <g id="text_9">
     <!-- event_time_offset [s] -->
     <g transform="translate(161.511719 257.236562) scale(0.1 -0.1)">
      <defs>
       <path id="DejaVuSans-65" d="M 3597 1894 
L 3597 1613 
L 953 1613 
Q 991 1019 1311 708 
Q 1631 397 2203 397 
Q 2534 397 2845 478 
Q 3156 559 3463 722 
L 3463 178 
Q 3153 47 2828 -22 
Q 2503 -91 2169 -91 
Q 1331 -91 842 396 
Q 353 884 353 1716 
Q 353 2575 817 3079 
Q 1281 3584 2069 3584 
Q 2775 3584 3186 3129 
Q 3597 2675 3597 1894 
z
M 3022 2063 
Q 3016 2534 2758 2815 
Q 2500 3097 2075 3097 
Q 1594 3097 1305 2825 
Q 1016 2553 972 2059 
L 3022 2063 
z
" transform="scale(0.015625)"/>
       <path id="DejaVuSans-76" d="M 191 3500 
L 800 3500 
L 1894 563 
L 2988 3500 
L 3597 3500 
L 2284 0 
L 1503 0 
L 191 3500 
z
" transform="scale(0.015625)"/>
       <path id="DejaVuSans-6e" d="M 3513 2113 
L 3513 0 
L 2938 0 
L 2938 2094 
Q 2938 2591 2744 2837 
Q 2550 3084 2163 3084 
Q 1697 3084 1428 2787 
Q 1159 2491 1159 1978 
L 1159 0 
L 581 0 
L 581 3500 
L 1159 3500 
L 1159 2956 
Q 1366 3272 1645 3428 
Q 1925 3584 2291 3584 
Q 2894 3584 3203 3211 
Q 3513 2838 3513 2113 
z
" transform="scale(0.015625)"/>
       <path id="DejaVuSans-74" d="M 1172 4494 
L 1172 3500 
L 2356 3500 
L 2356 3053 
L 1172 3053 
L 1172 1153 
Q 1172 725 1289 603 
Q 1406 481 1766 481 
L 2356 481 
L 2356 0 
L 1766 0 
Q 1100 0 847 248 
Q 594 497 594 1153 
L 594 3053 
L 172 3053 
L 172 3500 
L 594 3500 
L 594 4494 
L 1172 4494 
z
" transform="scale(0.015625)"/>
       <path id="DejaVuSans-5f" d="M 3263 -1063 
L 3263 -1509 
L -63 -1509 
L -63 -1063 
L 3263 -1063 
z
" transform="scale(0.015625)"/>
       <path id="DejaVuSans-69" d="M 603 3500 
L 1178 3500 
L 1178 0 
L 603 0 
L 603 3500 
z
M 603 4863 
L 1178 4863 
L 1178 4134 
L 603 4134 
L 603 4863 
z
" transform="scale(0.015625)"/>
       <path id="DejaVuSans-6d" d="M 3328 2828 
Q 3544 3216 3844 3400 
Q 4144 3584 4550 3584 
Q 5097 3584 5394 3201 
Q 5691 2819 5691 2113 
L 5691 0 
L 5113 0 
L 5113 2094 
Q 5113 2597 4934 2840 
Q 4756 3084 4391 3084 
Q 3944 3084 3684 2787 
Q 3425 2491 3425 1978 
L 3425 0 
L 2847 0 
L 2847 2094 
Q 2847 2600 2669 2842 
Q 2491 3084 2119 3084 
Q 1678 3084 1418 2786 
Q 1159 2488 1159 1978 
L 1159 0 
L 581 0 
L 581 3500 
L 1159 3500 
L 1159 2956 
Q 1356 3278 1631 3431 
Q 1906 3584 2284 3584 
Q 2666 3584 2933 3390 
Q 3200 3197 3328 2828 
z
" transform="scale(0.015625)"/>
       <path id="DejaVuSans-6f" d="M 1959 3097 
Q 1497 3097 1228 2736 
Q 959 2375 959 1747 
Q 959 1119 1226 758 
Q 1494 397 1959 397 
Q 2419 397 2687 759 
Q 2956 1122 2956 1747 
Q 2956 2369 2687 2733 
Q 2419 3097 1959 3097 
z
M 1959 3584 
Q 2709 3584 3137 3096 
Q 3566 2609 3566 1747 
Q 3566 888 3137 398 
Q 2709 -91 1959 -91 
Q 1206 -91 779 398 
Q 353 888 353 1747 
Q 353 2609 779 3096 
Q 1206 3584 1959 3584 
z
" transform="scale(0.015625)"/>
       <path id="DejaVuSans-66" d="M 2375 4863 
L 2375 4384 
L 1825 4384 
Q 1516 4384 1395 4259 
Q 1275 4134 1275 3809 
L 1275 3500 
L 2222 3500 
L 2222 3053 
L 1275 3053 
L 1275 0 
L 697 0 
L 697 3053 
L 147 3053 
L 147 3500 
L 697 3500 
L 697 3744 
Q 697 4328 969 4595 
Q 1241 4863 1831 4863 
L 2375 4863 
z
" transform="scale(0.015625)"/>
       <path id="DejaVuSans-73" d="M 2834 3397 
L 2834 2853 
Q 2591 2978 2328 3040 
Q 2066 3103 1784 3103 
Q 1356 3103 1142 2972 
Q 928 2841 928 2578 
Q 928 2378 1081 2264 
Q 1234 2150 1697 2047 
L 1894 2003 
Q 2506 1872 2764 1633 
Q 3022 1394 3022 966 
Q 3022 478 2636 193 
Q 2250 -91 1575 -91 
Q 1294 -91 989 -36 
Q 684 19 347 128 
L 347 722 
Q 666 556 975 473 
Q 1284 391 1588 391 
Q 1994 391 2212 530 
Q 2431 669 2431 922 
Q 2431 1156 2273 1281 
Q 2116 1406 1581 1522 
L 1381 1569 
Q 847 1681 609 1914 
Q 372 2147 372 2553 
Q 372 3047 722 3315 
Q 1072 3584 1716 3584 
Q 2034 3584 2315 3537 
Q 2597 3491 2834 3397 
z
" transform="scale(0.015625)"/>
       <path id="DejaVuSans-20" transform="scale(0.015625)"/>
       <path id="DejaVuSans-5b" d="M 550 4863 
L 1875 4863 
L 1875 4416 
L 1125 4416 
L 1125 -397 
L 1875 -397 
L 1875 -844 
L 550 -844 
L 550 4863 
z
" transform="scale(0.015625)"/>
       <path id="DejaVuSans-5d" d="M 1947 4863 
L 1947 -844 
L 622 -844 
L 622 -397 
L 1369 -397 
L 1369 4416 
L 622 4416 
L 622 4863 
L 1947 4863 
z
" transform="scale(0.015625)"/>
      </defs>
      <use xlink:href="#DejaVuSans-65"/>
      <use xlink:href="#DejaVuSans-76" transform="translate(61.523438 0)"/>
      <use xlink:href="#DejaVuSans-65" transform="translate(120.703125 0)"/>
      <use xlink:href="#DejaVuSans-6e" transform="translate(182.226562 0)"/>
      <use xlink:href="#DejaVuSans-74" transform="translate(245.605469 0)"/>
      <use xlink:href="#DejaVuSans-5f" transform="translate(284.814453 0)"/>
      <use xlink:href="#DejaVuSans-74" transform="translate(334.814453 0)"/>
      <use xlink:href="#DejaVuSans-69" transform="translate(374.023438 0)"/>
      <use xlink:href="#DejaVuSans-6d" transform="translate(401.806641 0)"/>
      <use xlink:href="#DejaVuSans-65" transform="translate(499.21875 0)"/>
      <use xlink:href="#DejaVuSans-5f" transform="translate(560.742188 0)"/>
      <use xlink:href="#DejaVuSans-6f" transform="translate(610.742188 0)"/>
      <use xlink:href="#DejaVuSans-66" transform="translate(671.923828 0)"/>
      <use xlink:href="#DejaVuSans-66" transform="translate(707.128906 0)"/>
      <use xlink:href="#DejaVuSans-73" transform="translate(742.333984 0)"/>
      <use xlink:href="#DejaVuSans-65" transform="translate(794.433594 0)"/>
      <use xlink:href="#DejaVuSans-74" transform="translate(855.957031 0)"/>
      <use xlink:href="#DejaVuSans-20" transform="translate(895.166016 0)"/>
      <use xlink:href="#DejaVuSans-5b" transform="translate(926.953125 0)"/>
      <use xlink:href="#DejaVuSans-73" transform="translate(965.966797 0)"/>
      <use xlink:href="#DejaVuSans-5d" transform="translate(1018.066406 0)"/>
     </g>
    </g>
   </g>
   <g id="matplotlib.axis_2">
    <g id="ytick_1">
     <g id="line2d_9">
      <defs>
       <path id="m5507de9224" d="M 0 0 
L -3.5 0 
" style="stroke: #000000; stroke-width: 0.8"/>
      </defs>
      <g>
       <use xlink:href="#m5507de9224" x="46.965625" y="218.88" style="stroke: #000000; stroke-width: 0.8"/>
      </g>
     </g>
     <g id="text_10">
      <!-- 0 -->
      <g transform="translate(33.603125 222.679219) scale(0.1 -0.1)">
       <use xlink:href="#DejaVuSans-30"/>
      </g>
     </g>
    </g>
    <g id="ytick_2">
     <g id="line2d_10">
      <g>
       <use xlink:href="#m5507de9224" x="46.965625" y="182.88" style="stroke: #000000; stroke-width: 0.8"/>
      </g>
     </g>
     <g id="text_11">
      <!-- 100 -->
      <g transform="translate(20.878125 186.679219) scale(0.1 -0.1)">
       <use xlink:href="#DejaVuSans-31"/>
       <use xlink:href="#DejaVuSans-30" transform="translate(63.623047 0)"/>
       <use xlink:href="#DejaVuSans-30" transform="translate(127.246094 0)"/>
      </g>
     </g>
    </g>
    <g id="ytick_3">
     <g id="line2d_11">
      <g>
       <use xlink:href="#m5507de9224" x="46.965625" y="146.88" style="stroke: #000000; stroke-width: 0.8"/>
      </g>
     </g>
     <g id="text_12">
      <!-- 200 -->
      <g transform="translate(20.878125 150.679219) scale(0.1 -0.1)">
       <use xlink:href="#DejaVuSans-32"/>
       <use xlink:href="#DejaVuSans-30" transform="translate(63.623047 0)"/>
       <use xlink:href="#DejaVuSans-30" transform="translate(127.246094 0)"/>
      </g>
     </g>
    </g>
    <g id="ytick_4">
     <g id="line2d_12">
      <g>
       <use xlink:href="#m5507de9224" x="46.965625" y="110.88" style="stroke: #000000; stroke-width: 0.8"/>
      </g>
     </g>
     <g id="text_13">
      <!-- 300 -->
      <g transform="translate(20.878125 114.679219) scale(0.1 -0.1)">
       <use xlink:href="#DejaVuSans-33"/>
       <use xlink:href="#DejaVuSans-30" transform="translate(63.623047 0)"/>
       <use xlink:href="#DejaVuSans-30" transform="translate(127.246094 0)"/>
      </g>
     </g>
    </g>
    <g id="ytick_5">
     <g id="line2d_13">
      <g>
       <use xlink:href="#m5507de9224" x="46.965625" y="74.88" style="stroke: #000000; stroke-width: 0.8"/>
      </g>
     </g>
     <g id="text_14">
      <!-- 400 -->
      <g transform="translate(20.878125 78.679219) scale(0.1 -0.1)">
       <use xlink:href="#DejaVuSans-34"/>
       <use xlink:href="#DejaVuSans-30" transform="translate(63.623047 0)"/>
       <use xlink:href="#DejaVuSans-30" transform="translate(127.246094 0)"/>
      </g>
     </g>
    </g>
    <g id="ytick_6">
     <g id="line2d_14">
      <g>
       <use xlink:href="#m5507de9224" x="46.965625" y="38.88" style="stroke: #000000; stroke-width: 0.8"/>
      </g>
     </g>
     <g id="text_15">
      <!-- 500 -->
      <g transform="translate(20.878125 42.679219) scale(0.1 -0.1)">
       <use xlink:href="#DejaVuSans-35"/>
       <use xlink:href="#DejaVuSans-30" transform="translate(63.623047 0)"/>
       <use xlink:href="#DejaVuSans-30" transform="translate(127.246094 0)"/>
      </g>
     </g>
    </g>
    <g id="text_16">
     <!-- [counts] -->
     <g transform="translate(14.798438 138.6925) rotate(-90) scale(0.1 -0.1)">
      <defs>
       <path id="DejaVuSans-63" d="M 3122 3366 
L 3122 2828 
Q 2878 2963 2633 3030 
Q 2388 3097 2138 3097 
Q 1578 3097 1268 2742 
Q 959 2388 959 1747 
Q 959 1106 1268 751 
Q 1578 397 2138 397 
Q 2388 397 2633 464 
Q 2878 531 3122 666 
L 3122 134 
Q 2881 22 2623 -34 
Q 2366 -91 2075 -91 
Q 1284 -91 818 406 
Q 353 903 353 1747 
Q 353 2603 823 3093 
Q 1294 3584 2113 3584 
Q 2378 3584 2631 3529 
Q 2884 3475 3122 3366 
z
" transform="scale(0.015625)"/>
       <path id="DejaVuSans-75" d="M 544 1381 
L 544 3500 
L 1119 3500 
L 1119 1403 
Q 1119 906 1312 657 
Q 1506 409 1894 409 
Q 2359 409 2629 706 
Q 2900 1003 2900 1516 
L 2900 3500 
L 3475 3500 
L 3475 0 
L 2900 0 
L 2900 538 
Q 2691 219 2414 64 
Q 2138 -91 1772 -91 
Q 1169 -91 856 284 
Q 544 659 544 1381 
z
M 1991 3584 
L 1991 3584 
z
" transform="scale(0.015625)"/>
      </defs>
      <use xlink:href="#DejaVuSans-5b"/>
      <use xlink:href="#DejaVuSans-63" transform="translate(39.013672 0)"/>
      <use xlink:href="#DejaVuSans-6f" transform="translate(93.994141 0)"/>
      <use xlink:href="#DejaVuSans-75" transform="translate(155.175781 0)"/>
      <use xlink:href="#DejaVuSans-6e" transform="translate(218.554688 0)"/>
      <use xlink:href="#DejaVuSans-74" transform="translate(281.933594 0)"/>
      <use xlink:href="#DejaVuSans-73" transform="translate(321.142578 0)"/>
      <use xlink:href="#DejaVuSans-5d" transform="translate(373.242188 0)"/>
     </g>
    </g>
   </g>
   <g id="patch_3">
    <path d="M 46.965625 228.96 
L 46.965625 7.2 
" style="fill: none; stroke: #000000; stroke-width: 0.8; stroke-linejoin: miter; stroke-linecap: square"/>
   </g>
   <g id="patch_4">
    <path d="M 381.765625 228.96 
L 381.765625 7.2 
" style="fill: none; stroke: #000000; stroke-width: 0.8; stroke-linejoin: miter; stroke-linecap: square"/>
   </g>
   <g id="patch_5">
    <path d="M 46.965625 228.96 
L 381.765625 228.96 
" style="fill: none; stroke: #000000; stroke-width: 0.8; stroke-linejoin: miter; stroke-linecap: square"/>
   </g>
   <g id="patch_6">
    <path d="M 46.965625 7.2 
L 381.765625 7.2 
" style="fill: none; stroke: #000000; stroke-width: 0.8; stroke-linejoin: miter; stroke-linecap: square"/>
   </g>
   <g id="line2d_15">
    <path d="M 62.183807 110.16 
L 63.198352 110.16 
L 63.198352 110.52 
L 64.212898 110.52 
L 64.212898 123.84 
L 65.227443 123.84 
L 65.227443 119.52 
L 66.241989 119.52 
L 66.241989 124.92 
L 67.256534 124.92 
L 67.256534 117.72 
L 68.27108 117.72 
L 68.27108 123.12 
L 69.285625 123.12 
L 69.285625 116.28 
L 70.30017 116.28 
L 70.30017 132.84 
L 71.314716 132.84 
L 71.314716 126.36 
L 72.329261 126.36 
L 72.329261 119.52 
L 73.343807 119.52 
L 73.343807 128.88 
L 74.358352 128.88 
L 74.358352 134.28 
L 75.372898 134.28 
L 75.372898 132.84 
L 76.387443 132.84 
L 76.387443 137.88 
L 77.401989 137.88 
L 77.401989 135.72 
L 78.416534 135.72 
L 78.416534 137.16 
L 79.43108 137.16 
L 79.43108 134.28 
L 80.445625 134.28 
L 80.445625 137.88 
L 81.46017 137.88 
L 81.46017 146.52 
L 82.474716 146.52 
L 82.474716 135.36 
L 83.489261 135.36 
L 83.489261 141.12 
L 84.503807 141.12 
L 84.503807 141.48 
L 85.518352 141.48 
L 85.518352 143.28 
L 86.532898 143.28 
L 86.532898 149.76 
L 87.547443 149.76 
L 87.547443 145.08 
L 88.561989 145.08 
L 88.561989 141.12 
L 89.576534 141.12 
L 89.576534 145.8 
L 90.59108 145.8 
L 90.59108 156.96 
L 91.605625 156.96 
L 91.605625 146.16 
L 92.62017 146.16 
L 92.62017 154.8 
L 93.634716 154.8 
L 93.634716 155.52 
L 94.649261 155.52 
L 94.649261 168.12 
L 95.663807 168.12 
L 95.663807 154.44 
L 96.678352 154.44 
L 96.678352 165.24 
L 97.692898 165.24 
L 97.692898 166.68 
L 98.707443 166.68 
L 98.707443 165.96 
L 99.721989 165.96 
L 99.721989 164.16 
L 100.736534 164.16 
L 100.736534 168.12 
L 101.75108 168.12 
L 101.75108 169.56 
L 102.765625 169.56 
L 102.765625 174.24 
L 103.78017 174.24 
L 103.78017 172.44 
L 104.794716 172.44 
L 104.794716 177.84 
L 105.809261 177.84 
L 105.809261 186.48 
L 106.823807 186.48 
L 106.823807 178.56 
L 107.838352 178.56 
L 107.838352 184.32 
L 108.852898 184.32 
L 108.852898 183.6 
L 109.867443 183.6 
L 109.867443 192.96 
L 110.881989 192.96 
L 110.881989 186.12 
L 111.896534 186.12 
L 111.896534 186.84 
L 112.91108 186.84 
L 112.91108 197.64 
L 113.925625 197.64 
L 113.925625 194.04 
L 114.94017 194.04 
L 114.94017 195.48 
L 115.954716 195.48 
L 115.954716 205.2 
L 116.969261 205.2 
L 116.969261 199.8 
L 117.983807 199.8 
L 117.983807 205.2 
L 118.998352 205.2 
L 118.998352 207.72 
L 120.012898 207.72 
L 120.012898 208.8 
L 121.027443 208.8 
L 121.027443 209.16 
L 122.041989 209.16 
L 122.041989 210.24 
L 123.056534 210.24 
L 123.056534 210.6 
L 125.085625 210.6 
L 125.085625 215.64 
L 126.10017 215.64 
L 126.10017 214.2 
L 127.114716 214.2 
L 127.114716 214.92 
L 128.129261 214.92 
L 128.129261 215.28 
L 129.143807 215.28 
L 129.143807 216.36 
L 130.158352 216.36 
L 130.158352 216.72 
L 131.172898 216.72 
L 131.172898 217.8 
L 132.187443 217.8 
L 132.187443 218.16 
L 133.201989 218.16 
L 133.201989 218.88 
L 149.434716 218.88 
L 149.434716 216.36 
L 150.449261 216.36 
L 150.449261 210.96 
L 151.463807 210.96 
L 151.463807 207.36 
L 152.478352 207.36 
L 152.478352 196.56 
L 153.492898 196.56 
L 153.492898 189.72 
L 154.507443 189.72 
L 154.507443 186.48 
L 155.521989 186.48 
L 155.521989 184.68 
L 156.536534 184.68 
L 156.536534 178.92 
L 157.55108 178.92 
L 157.55108 180 
L 158.565625 180 
L 158.565625 163.08 
L 159.58017 163.08 
L 159.58017 167.76 
L 160.594716 167.76 
L 160.594716 163.8 
L 161.609261 163.8 
L 161.609261 144 
L 162.623807 144 
L 162.623807 141.48 
L 163.638352 141.48 
L 163.638352 141.12 
L 164.652898 141.12 
L 164.652898 122.04 
L 165.667443 122.04 
L 165.667443 129.24 
L 166.681989 129.24 
L 166.681989 115.56 
L 167.696534 115.56 
L 167.696534 114.84 
L 168.71108 114.84 
L 168.71108 109.8 
L 169.725625 109.8 
L 169.725625 105.48 
L 170.74017 105.48 
L 170.74017 88.2 
L 171.754716 88.2 
L 171.754716 87.48 
L 172.769261 87.48 
L 172.769261 88.56 
L 173.783807 88.56 
L 173.783807 78.84 
L 174.798352 78.84 
L 174.798352 77.4 
L 175.812898 77.4 
L 175.812898 74.52 
L 176.827443 74.52 
L 176.827443 77.04 
L 177.841989 77.04 
L 177.841989 71.28 
L 178.856534 71.28 
L 178.856534 65.88 
L 179.87108 65.88 
L 179.87108 48.24 
L 180.885625 48.24 
L 180.885625 55.8 
L 181.90017 55.8 
L 181.90017 54.36 
L 182.914716 54.36 
L 182.914716 53.28 
L 183.929261 53.28 
L 183.929261 53.64 
L 184.943807 53.64 
L 184.943807 45.36 
L 185.958352 45.36 
L 185.958352 43.92 
L 186.972898 43.92 
L 186.972898 20.88 
L 187.987443 20.88 
L 187.987443 40.32 
L 189.001989 40.32 
L 189.001989 37.44 
L 190.016534 37.44 
L 190.016534 22.32 
L 191.03108 22.32 
L 191.03108 26.64 
L 192.045625 26.64 
L 192.045625 28.08 
L 193.06017 28.08 
L 193.06017 20.16 
L 194.074716 20.16 
L 194.074716 28.08 
L 195.089261 28.08 
L 195.089261 29.16 
L 196.103807 29.16 
L 196.103807 19.8 
L 197.118352 19.8 
L 197.118352 29.52 
L 198.132898 29.52 
L 198.132898 17.28 
L 199.147443 17.28 
L 199.147443 27.72 
L 200.161989 27.72 
L 200.161989 45.36 
L 201.176534 45.36 
L 201.176534 22.32 
L 202.19108 22.32 
L 202.19108 47.52 
L 203.205625 47.52 
L 203.205625 43.56 
L 205.234716 43.56 
L 205.234716 42.48 
L 206.249261 42.48 
L 206.249261 30.96 
L 207.263807 30.96 
L 207.263807 32.4 
L 208.278352 32.4 
L 208.278352 48.96 
L 209.292898 48.96 
L 209.292898 51.48 
L 210.307443 51.48 
L 210.307443 59.04 
L 211.321989 59.04 
L 211.321989 50.4 
L 212.336534 50.4 
L 212.336534 49.68 
L 213.35108 49.68 
L 213.35108 47.52 
L 214.365625 47.52 
L 214.365625 59.04 
L 215.38017 59.04 
L 215.38017 56.16 
L 216.394716 56.16 
L 216.394716 71.64 
L 217.409261 71.64 
L 217.409261 54.36 
L 218.423807 54.36 
L 218.423807 57.6 
L 219.438352 57.6 
L 219.438352 64.08 
L 220.452898 64.08 
L 220.452898 60.12 
L 221.467443 60.12 
L 221.467443 59.04 
L 222.481989 59.04 
L 222.481989 64.8 
L 223.496534 64.8 
L 223.496534 66.24 
L 224.51108 66.24 
L 224.51108 52.2 
L 225.525625 52.2 
L 225.525625 69.84 
L 226.54017 69.84 
L 226.54017 67.68 
L 227.554716 67.68 
L 227.554716 59.76 
L 228.569261 59.76 
L 228.569261 78.48 
L 229.583807 78.48 
L 229.583807 69.84 
L 232.627443 69.84 
L 232.627443 65.52 
L 233.641989 65.52 
L 233.641989 67.68 
L 234.656534 67.68 
L 234.656534 68.76 
L 235.67108 68.76 
L 235.67108 65.88 
L 236.685625 65.88 
L 236.685625 69.48 
L 237.70017 69.48 
L 237.70017 89.64 
L 238.714716 89.64 
L 238.714716 69.84 
L 239.729261 69.84 
L 239.729261 74.88 
L 240.743807 74.88 
L 240.743807 72 
L 241.758352 72 
L 241.758352 71.28 
L 242.772898 71.28 
L 242.772898 63 
L 243.787443 63 
L 243.787443 58.68 
L 244.801989 58.68 
L 244.801989 85.68 
L 245.816534 85.68 
L 245.816534 59.4 
L 246.83108 59.4 
L 246.83108 87.48 
L 247.845625 87.48 
L 247.845625 79.2 
L 248.86017 79.2 
L 248.86017 79.92 
L 249.874716 79.92 
L 249.874716 75.96 
L 250.889261 75.96 
L 250.889261 85.32 
L 251.903807 85.32 
L 251.903807 72.72 
L 252.918352 72.72 
L 252.918352 96.12 
L 253.932898 96.12 
L 253.932898 92.88 
L 254.947443 92.88 
L 254.947443 104.76 
L 255.961989 104.76 
L 255.961989 91.8 
L 256.976534 91.8 
L 256.976534 100.08 
L 257.99108 100.08 
L 257.99108 116.28 
L 259.005625 116.28 
L 259.005625 113.76 
L 260.02017 113.76 
L 260.02017 117.36 
L 261.034716 117.36 
L 261.034716 135 
L 262.049261 135 
L 262.049261 127.08 
L 263.063807 127.08 
L 263.063807 135.36 
L 264.078352 135.36 
L 264.078352 146.88 
L 265.092898 146.88 
L 265.092898 150.12 
L 266.107443 150.12 
L 266.107443 149.4 
L 267.121989 149.4 
L 267.121989 146.52 
L 268.136534 146.52 
L 268.136534 157.32 
L 269.15108 157.32 
L 269.15108 167.76 
L 270.165625 167.76 
L 270.165625 163.44 
L 271.18017 163.44 
L 271.18017 171 
L 272.194716 171 
L 272.194716 174.24 
L 273.209261 174.24 
L 273.209261 181.8 
L 274.223807 181.8 
L 274.223807 185.04 
L 275.238352 185.04 
L 275.238352 193.32 
L 276.252898 193.32 
L 276.252898 191.16 
L 277.267443 191.16 
L 277.267443 194.04 
L 278.281989 194.04 
L 278.281989 200.88 
L 279.296534 200.88 
L 279.296534 202.68 
L 280.31108 202.68 
L 280.31108 208.08 
L 281.325625 208.08 
L 281.325625 211.32 
L 282.34017 211.32 
L 282.34017 207.36 
L 283.354716 207.36 
L 283.354716 214.2 
L 284.369261 214.2 
L 284.369261 217.08 
L 285.383807 217.08 
L 285.383807 218.52 
L 286.398352 218.52 
L 286.398352 216 
L 287.412898 216 
L 287.412898 218.88 
L 298.572898 218.88 
L 298.572898 214.92 
L 299.587443 214.92 
L 299.587443 208.8 
L 300.601989 208.8 
L 300.601989 198.72 
L 301.616534 198.72 
L 301.616534 198.36 
L 302.63108 198.36 
L 302.63108 198.72 
L 303.645625 198.72 
L 303.645625 195.12 
L 304.66017 195.12 
L 304.66017 182.88 
L 305.674716 182.88 
L 305.674716 181.08 
L 306.689261 181.08 
L 306.689261 180 
L 307.703807 180 
L 307.703807 176.04 
L 308.718352 176.04 
L 308.718352 171.72 
L 309.732898 171.72 
L 309.732898 164.52 
L 310.747443 164.52 
L 310.747443 167.04 
L 311.761989 167.04 
L 311.761989 159.48 
L 312.776534 159.48 
L 312.776534 157.32 
L 313.79108 157.32 
L 313.79108 155.16 
L 314.805625 155.16 
L 314.805625 152.28 
L 315.82017 152.28 
L 315.82017 156.6 
L 316.834716 156.6 
L 316.834716 151.56 
L 317.849261 151.56 
L 317.849261 145.8 
L 318.863807 145.8 
L 318.863807 136.44 
L 319.878352 136.44 
L 319.878352 128.16 
L 320.892898 128.16 
L 320.892898 135.72 
L 321.907443 135.72 
L 321.907443 128.88 
L 322.921989 128.88 
L 322.921989 133.56 
L 323.936534 133.56 
L 323.936534 129.6 
L 324.95108 129.6 
L 324.95108 115.2 
L 325.965625 115.2 
L 325.965625 112.68 
L 326.98017 112.68 
L 326.98017 105.84 
L 327.994716 105.84 
L 327.994716 102.6 
L 329.009261 102.6 
L 329.009261 103.68 
L 330.023807 103.68 
L 330.023807 113.04 
L 331.038352 113.04 
L 331.038352 96.48 
L 332.052898 96.48 
L 332.052898 105.12 
L 333.067443 105.12 
L 333.067443 92.88 
L 334.081989 92.88 
L 334.081989 90.72 
L 335.096534 90.72 
L 335.096534 102.6 
L 336.11108 102.6 
L 336.11108 78.84 
L 337.125625 78.84 
L 337.125625 103.32 
L 338.14017 103.32 
L 338.14017 93.96 
L 339.154716 93.96 
L 339.154716 86.04 
L 340.169261 86.04 
L 340.169261 76.68 
L 341.183807 76.68 
L 341.183807 94.32 
L 342.198352 94.32 
L 342.198352 84.96 
L 343.212898 84.96 
L 343.212898 92.52 
L 344.227443 92.52 
L 344.227443 87.48 
L 345.241989 87.48 
L 345.241989 92.16 
L 346.256534 92.16 
L 346.256534 95.04 
L 347.27108 95.04 
L 347.27108 100.44 
L 348.285625 100.44 
L 348.285625 99 
L 349.30017 99 
L 349.30017 100.08 
L 350.314716 100.08 
L 350.314716 93.6 
L 351.329261 93.6 
L 351.329261 93.96 
L 352.343807 93.96 
L 352.343807 96.48 
L 353.358352 96.48 
L 353.358352 102.24 
L 354.372898 102.24 
L 354.372898 92.88 
L 355.387443 92.88 
L 355.387443 107.28 
L 356.401989 107.28 
L 356.401989 111.24 
L 357.416534 111.24 
L 357.416534 115.2 
L 358.43108 115.2 
L 358.43108 108.72 
L 359.445625 108.72 
L 359.445625 106.92 
L 360.46017 106.92 
L 360.46017 114.48 
L 361.474716 114.48 
L 361.474716 109.08 
L 362.489261 109.08 
L 362.489261 112.32 
L 363.503807 112.32 
L 363.503807 114.12 
L 364.518352 114.12 
L 364.518352 99.72 
L 365.532898 99.72 
L 365.532898 115.92 
L 366.547443 115.92 
L 366.547443 115.92 
" clip-path="url(#p7af993adba)" style="fill: none; stroke: #1f77b4; stroke-width: 1.5; stroke-linecap: square"/>
   </g>
  </g>
 </g>
 <defs>
  <clipPath id="p7af993adba">
   <rect x="46.965625" y="7.2" width="334.8" height="221.76"/>
  </clipPath>
 </defs>
</svg>
