<?xml version="1.0" encoding="utf-8" standalone="no"?>
<!DOCTYPE svg PUBLIC "-//W3C//DTD SVG 1.1//EN"
  "http://www.w3.org/Graphics/SVG/1.1/DTD/svg11.dtd">
<svg xmlns:xlink="http://www.w3.org/1999/xlink" width="388.965625pt" height="268.200625pt" viewBox="0 0 388.965625 268.200625" xmlns="http://www.w3.org/2000/svg" version="1.1">
 <metadata>
  <rdf:RDF xmlns:dc="http://purl.org/dc/elements/1.1/" xmlns:cc="http://creativecommons.org/ns#" xmlns:rdf="http://www.w3.org/1999/02/22-rdf-syntax-ns#">
   <cc:Work>
    <dc:type rdf:resource="http://purl.org/dc/dcmitype/StillImage"/>
    <dc:date>2025-12-05T13:47:18.406235</dc:date>
    <dc:format>image/svg+xml</dc:format>
    <dc:creator>
     <cc:Agent>
      <dc:title>Matplotlib v3.10.7, https://matplotlib.org/</dc:title>
     </cc:Agent>
    </dc:creator>
   </cc:Work>
  </rdf:RDF>
 </metadata>
 <defs>
  <style type="text/css">*{stroke-linejoin: round; stroke-linecap: butt}</style>
 </defs>
 <g id="figure_1">
  <g id="patch_1">
   <path d="M 0 268.200625 
L 388.965625 268.200625 
L 388.965625 0 
L 0 0 
z
" style="fill: #ffffff"/>
  </g>
  <g id="axes_1">
   <g id="patch_2">
    <path d="M 46.965625 228.96 
L 381.765625 228.96 
L 381.765625 7.2 
L 46.965625 7.2 
z
" style="fill: #ffffff"/>
   </g>
   <g id="matplotlib.axis_1">
    <g id="xtick_1">
     <g id="line2d_1">
      <defs>
       <path id="m56724c4599" d="M 0 0 
L 0 3.5 
" style="stroke: #000000; stroke-width: 0.8"/>
      </defs>
      <g>
       <use xlink:href="#m56724c4599" x="78.202946" y="228.96" style="stroke: #000000; stroke-width: 0.8"/>
      </g>
     </g>
     <g id="text_1">
      <!-- 1.0 -->
      <g transform="translate(70.251383 243.558437) scale(0.1 -0.1)">
       <defs>
        <path id="DejaVuSans-31" d="M 794 531 
L 1825 531 
L 1825 4091 
L 703 3866 
L 703 4441 
L 1819 4666 
L 2450 4666 
L 2450 531 
L 3481 531 
L 3481 0 
L 794 0 
L 794 531 
z
" transform="scale(0.015625)"/>
        <path id="DejaVuSans-2e" d="M 684 794 
L 1344 794 
L 1344 0 
L 684 0 
L 684 794 
z
" transform="scale(0.015625)"/>
        <path id="DejaVuSans-30" d="M 2034 4250 
Q 1547 4250 1301 3770 
Q 1056 3291 1056 2328 
Q 1056 1369 1301 889 
Q 1547 409 2034 409 
Q 2525 409 2770 889 
Q 3016 1369 3016 2328 
Q 3016 3291 2770 3770 
Q 2525 4250 2034 4250 
z
M 2034 4750 
Q 2819 4750 3233 4129 
Q 3647 3509 3647 2328 
Q 3647 1150 3233 529 
Q 2819 -91 2034 -91 
Q 1250 -91 836 529 
Q 422 1150 422 2328 
Q 422 3509 836 4129 
Q 1250 4750 2034 4750 
z
" transform="scale(0.015625)"/>
       </defs>
       <use xlink:href="#DejaVuSans-31"/>
       <use xlink:href="#DejaVuSans-2e" transform="translate(63.623047 0)"/>
       <use xlink:href="#DejaVuSans-30" transform="translate(95.410156 0)"/>
      </g>
     </g>
    </g>
    <g id="xtick_2">
     <g id="line2d_2">
      <g>
       <use xlink:href="#m56724c4599" x="118.250792" y="228.96" style="stroke: #000000; stroke-width: 0.8"/>
      </g>
     </g>
     <g id="text_2">
      <!-- 1.5 -->
      <g transform="translate(110.29923 243.558437) scale(0.1 -0.1)">
       <defs>
        <path id="DejaVuSans-35" d="M 691 4666 
L 3169 4666 
L 3169 4134 
L 1269 4134 
L 1269 2991 
Q 1406 3038 1543 3061 
Q 1681 3084 1819 3084 
Q 2600 3084 3056 2656 
Q 3513 2228 3513 1497 
Q 3513 744 3044 326 
Q 2575 -91 1722 -91 
Q 1428 -91 1123 -41 
Q 819 9 494 109 
L 494 744 
Q 775 591 1075 516 
Q 1375 441 1709 441 
Q 2250 441 2565 725 
Q 2881 1009 2881 1497 
Q 2881 1984 2565 2268 
Q 2250 2553 1709 2553 
Q 1456 2553 1204 2497 
Q 953 2441 691 2322 
L 691 4666 
z
" transform="scale(0.015625)"/>
       </defs>
       <use xlink:href="#DejaVuSans-31"/>
       <use xlink:href="#DejaVuSans-2e" transform="translate(63.623047 0)"/>
       <use xlink:href="#DejaVuSans-35" transform="translate(95.410156 0)"/>
      </g>
     </g>
    </g>
    <g id="xtick_3">
     <g id="line2d_3">
      <g>
       <use xlink:href="#m56724c4599" x="158.298639" y="228.96" style="stroke: #000000; stroke-width: 0.8"/>
      </g>
     </g>
     <g id="text_3">
      <!-- 2.0 -->
      <g transform="translate(150.347077 243.558437) scale(0.1 -0.1)">
       <defs>
        <path id="DejaVuSans-32" d="M 1228 531 
L 3431 531 
L 3431 0 
L 469 0 
L 469 531 
Q 828 903 1448 1529 
Q 2069 2156 2228 2338 
Q 2531 2678 2651 2914 
Q 2772 3150 2772 3378 
Q 2772 3750 2511 3984 
Q 2250 4219 1831 4219 
Q 1534 4219 1204 4116 
Q 875 4013 500 3803 
L 500 4441 
Q 881 4594 1212 4672 
Q 1544 4750 1819 4750 
Q 2544 4750 2975 4387 
Q 3406 4025 3406 3419 
Q 3406 3131 3298 2873 
Q 3191 2616 2906 2266 
Q 2828 2175 2409 1742 
Q 1991 1309 1228 531 
z
" transform="scale(0.015625)"/>
       </defs>
       <use xlink:href="#DejaVuSans-32"/>
       <use xlink:href="#DejaVuSans-2e" transform="translate(63.623047 0)"/>
       <use xlink:href="#DejaVuSans-30" transform="translate(95.410156 0)"/>
      </g>
     </g>
    </g>
    <g id="xtick_4">
     <g id="line2d_4">
      <g>
       <use xlink:href="#m56724c4599" x="198.346486" y="228.96" style="stroke: #000000; stroke-width: 0.8"/>
      </g>
     </g>
     <g id="text_4">
      <!-- 2.5 -->
      <g transform="translate(190.394924 243.558437) scale(0.1 -0.1)">
       <use xlink:href="#DejaVuSans-32"/>
       <use xlink:href="#DejaVuSans-2e" transform="translate(63.623047 0)"/>
       <use xlink:href="#DejaVuSans-35" transform="translate(95.410156 0)"/>
      </g>
     </g>
    </g>
    <g id="xtick_5">
     <g id="line2d_5">
      <g>
       <use xlink:href="#m56724c4599" x="238.394333" y="228.96" style="stroke: #000000; stroke-width: 0.8"/>
      </g>
     </g>
     <g id="text_5">
      <!-- 3.0 -->
      <g transform="translate(230.442771 243.558437) scale(0.1 -0.1)">
       <defs>
        <path id="DejaVuSans-33" d="M 2597 2516 
Q 3050 2419 3304 2112 
Q 3559 1806 3559 1356 
Q 3559 666 3084 287 
Q 2609 -91 1734 -91 
Q 1441 -91 1130 -33 
Q 819 25 488 141 
L 488 750 
Q 750 597 1062 519 
Q 1375 441 1716 441 
Q 2309 441 2620 675 
Q 2931 909 2931 1356 
Q 2931 1769 2642 2001 
Q 2353 2234 1838 2234 
L 1294 2234 
L 1294 2753 
L 1863 2753 
Q 2328 2753 2575 2939 
Q 2822 3125 2822 3475 
Q 2822 3834 2567 4026 
Q 2313 4219 1838 4219 
Q 1578 4219 1281 4162 
Q 984 4106 628 3988 
L 628 4550 
Q 988 4650 1302 4700 
Q 1616 4750 1894 4750 
Q 2613 4750 3031 4423 
Q 3450 4097 3450 3541 
Q 3450 3153 3228 2886 
Q 3006 2619 2597 2516 
z
" transform="scale(0.015625)"/>
       </defs>
       <use xlink:href="#DejaVuSans-33"/>
       <use xlink:href="#DejaVuSans-2e" transform="translate(63.623047 0)"/>
       <use xlink:href="#DejaVuSans-30" transform="translate(95.410156 0)"/>
      </g>
     </g>
    </g>
    <g id="xtick_6">
     <g id="line2d_6">
      <g>
       <use xlink:href="#m56724c4599" x="278.44218" y="228.96" style="stroke: #000000; stroke-width: 0.8"/>
      </g>
     </g>
     <g id="text_6">
      <!-- 3.5 -->
      <g transform="translate(270.490618 243.558437) scale(0.1 -0.1)">
       <use xlink:href="#DejaVuSans-33"/>
       <use xlink:href="#DejaVuSans-2e" transform="translate(63.623047 0)"/>
       <use xlink:href="#DejaVuSans-35" transform="translate(95.410156 0)"/>
      </g>
     </g>
    </g>
    <g id="xtick_7">
     <g id="line2d_7">
      <g>
       <use xlink:href="#m56724c4599" x="318.490027" y="228.96" style="stroke: #000000; stroke-width: 0.8"/>
      </g>
     </g>
     <g id="text_7">
      <!-- 4.0 -->
      <g transform="translate(310.538464 243.558437) scale(0.1 -0.1)">
       <defs>
        <path id="DejaVuSans-34" d="M 2419 4116 
L 825 1625 
L 2419 1625 
L 2419 4116 
z
M 2253 4666 
L 3047 4666 
L 3047 1625 
L 3713 1625 
L 3713 1100 
L 3047 1100 
L 3047 0 
L 2419 0 
L 2419 1100 
L 313 1100 
L 313 1709 
L 2253 4666 
z
" transform="scale(0.015625)"/>
       </defs>
       <use xlink:href="#DejaVuSans-34"/>
       <use xlink:href="#DejaVuSans-2e" transform="translate(63.623047 0)"/>
       <use xlink:href="#DejaVuSans-30" transform="translate(95.410156 0)"/>
      </g>
     </g>
    </g>
    <g id="xtick_8">
     <g id="line2d_8">
      <g>
       <use xlink:href="#m56724c4599" x="358.537874" y="228.96" style="stroke: #000000; stroke-width: 0.8"/>
      </g>
     </g>
     <g id="text_8">
      <!-- 4.5 -->
      <g transform="translate(350.586311 243.558437) scale(0.1 -0.1)">
       <use xlink:href="#DejaVuSans-34"/>
       <use xlink:href="#DejaVuSans-2e" transform="translate(63.623047 0)"/>
       <use xlink:href="#DejaVuSans-35" transform="translate(95.410156 0)"/>
      </g>
     </g>
    </g>
    <g id="text_9">
     <!-- wavelength [Å] -->
     <g transform="translate(176.328125 258.920937) scale(0.1 -0.1)">
      <defs>
       <path id="DejaVuSans-77" d="M 269 3500 
L 844 3500 
L 1563 769 
L 2278 3500 
L 2956 3500 
L 3675 769 
L 4391 3500 
L 4966 3500 
L 4050 0 
L 3372 0 
L 2619 2869 
L 1863 0 
L 1184 0 
L 269 3500 
z
" transform="scale(0.015625)"/>
       <path id="DejaVuSans-61" d="M 2194 1759 
Q 1497 1759 1228 1600 
Q 959 1441 959 1056 
Q 959 750 1161 570 
Q 1363 391 1709 391 
Q 2188 391 2477 730 
Q 2766 1069 2766 1631 
L 2766 1759 
L 2194 1759 
z
M 3341 1997 
L 3341 0 
L 2766 0 
L 2766 531 
Q 2569 213 2275 61 
Q 1981 -91 1556 -91 
Q 1019 -91 701 211 
Q 384 513 384 1019 
Q 384 1609 779 1909 
Q 1175 2209 1959 2209 
L 2766 2209 
L 2766 2266 
Q 2766 2663 2505 2880 
Q 2244 3097 1772 3097 
Q 1472 3097 1187 3025 
Q 903 2953 641 2809 
L 641 3341 
Q 956 3463 1253 3523 
Q 1550 3584 1831 3584 
Q 2591 3584 2966 3190 
Q 3341 2797 3341 1997 
z
" transform="scale(0.015625)"/>
       <path id="DejaVuSans-76" d="M 191 3500 
L 800 3500 
L 1894 563 
L 2988 3500 
L 3597 3500 
L 2284 0 
L 1503 0 
L 191 3500 
z
" transform="scale(0.015625)"/>
       <path id="DejaVuSans-65" d="M 3597 1894 
L 3597 1613 
L 953 1613 
Q 991 1019 1311 708 
Q 1631 397 2203 397 
Q 2534 397 2845 478 
Q 3156 559 3463 722 
L 3463 178 
Q 3153 47 2828 -22 
Q 2503 -91 2169 -91 
Q 1331 -91 842 396 
Q 353 884 353 1716 
Q 353 2575 817 3079 
Q 1281 3584 2069 3584 
Q 2775 3584 3186 3129 
Q 3597 2675 3597 1894 
z
M 3022 2063 
Q 3016 2534 2758 2815 
Q 2500 3097 2075 3097 
Q 1594 3097 1305 2825 
Q 1016 2553 972 2059 
L 3022 2063 
z
" transform="scale(0.015625)"/>
       <path id="DejaVuSans-6c" d="M 603 4863 
L 1178 4863 
L 1178 0 
L 603 0 
L 603 4863 
z
" transform="scale(0.015625)"/>
       <path id="DejaVuSans-6e" d="M 3513 2113 
L 3513 0 
L 2938 0 
L 2938 2094 
Q 2938 2591 2744 2837 
Q 2550 3084 2163 3084 
Q 1697 3084 1428 2787 
Q 1159 2491 1159 1978 
L 1159 0 
L 581 0 
L 581 3500 
L 1159 3500 
L 1159 2956 
Q 1366 3272 1645 3428 
Q 1925 3584 2291 3584 
Q 2894 3584 3203 3211 
Q 3513 2838 3513 2113 
z
" transform="scale(0.015625)"/>
       <path id="DejaVuSans-67" d="M 2906 1791 
Q 2906 2416 2648 2759 
Q 2391 3103 1925 3103 
Q 1463 3103 1205 2759 
Q 947 2416 947 1791 
Q 947 1169 1205 825 
Q 1463 481 1925 481 
Q 2391 481 2648 825 
Q 2906 1169 2906 1791 
z
M 3481 434 
Q 3481 -459 3084 -895 
Q 2688 -1331 1869 -1331 
Q 1566 -1331 1297 -1286 
Q 1028 -1241 775 -1147 
L 775 -588 
Q 1028 -725 1275 -790 
Q 1522 -856 1778 -856 
Q 2344 -856 2625 -561 
Q 2906 -266 2906 331 
L 2906 616 
Q 2728 306 2450 153 
Q 2172 0 1784 0 
Q 1141 0 747 490 
Q 353 981 353 1791 
Q 353 2603 747 3093 
Q 1141 3584 1784 3584 
Q 2172 3584 2450 3431 
Q 2728 3278 2906 2969 
L 2906 3500 
L 3481 3500 
L 3481 434 
z
" transform="scale(0.015625)"/>
       <path id="DejaVuSans-74" d="M 1172 4494 
L 1172 3500 
L 2356 3500 
L 2356 3053 
L 1172 3053 
L 1172 1153 
Q 1172 725 1289 603 
Q 1406 481 1766 481 
L 2356 481 
L 2356 0 
L 1766 0 
Q 1100 0 847 248 
Q 594 497 594 1153 
L 594 3053 
L 172 3053 
L 172 3500 
L 594 3500 
L 594 4494 
L 1172 4494 
z
" transform="scale(0.015625)"/>
       <path id="DejaVuSans-68" d="M 3513 2113 
L 3513 0 
L 2938 0 
L 2938 2094 
Q 2938 2591 2744 2837 
Q 2550 3084 2163 3084 
Q 1697 3084 1428 2787 
Q 1159 2491 1159 1978 
L 1159 0 
L 581 0 
L 581 4863 
L 1159 4863 
L 1159 2956 
Q 1366 3272 1645 3428 
Q 1925 3584 2291 3584 
Q 2894 3584 3203 3211 
Q 3513 2838 3513 2113 
z
" transform="scale(0.015625)"/>
       <path id="DejaVuSans-20" transform="scale(0.015625)"/>
       <path id="DejaVuSans-5b" d="M 550 4863 
L 1875 4863 
L 1875 4416 
L 1125 4416 
L 1125 -397 
L 1875 -397 
L 1875 -844 
L 550 -844 
L 550 4863 
z
" transform="scale(0.015625)"/>
       <path id="DejaVuSans-c5" d="M 2663 5081 
Q 2663 5278 2523 5417 
Q 2384 5556 2188 5556 
Q 1988 5556 1852 5420 
Q 1716 5284 1716 5081 
Q 1716 4884 1853 4746 
Q 1991 4609 2188 4609 
Q 2384 4609 2523 4746 
Q 2663 4884 2663 5081 
z
M 2188 4044 
L 1338 1722 
L 3041 1722 
L 2188 4044 
z
M 1716 4366 
Q 1525 4494 1428 4673 
Q 1331 4853 1331 5081 
Q 1331 5441 1579 5691 
Q 1828 5941 2188 5941 
Q 2544 5941 2795 5689 
Q 3047 5438 3047 5081 
Q 3047 4863 2948 4678 
Q 2850 4494 2663 4366 
L 4325 0 
L 3669 0 
L 3244 1197 
L 1141 1197 
L 716 0 
L 50 0 
L 1716 4366 
z
" transform="scale(0.015625)"/>
       <path id="DejaVuSans-5d" d="M 1947 4863 
L 1947 -844 
L 622 -844 
L 622 -397 
L 1369 -397 
L 1369 4416 
L 622 4416 
L 622 4863 
L 1947 4863 
z
" transform="scale(0.015625)"/>
      </defs>
      <use xlink:href="#DejaVuSans-77"/>
      <use xlink:href="#DejaVuSans-61" transform="translate(81.787109 0)"/>
      <use xlink:href="#DejaVuSans-76" transform="translate(143.066406 0)"/>
      <use xlink:href="#DejaVuSans-65" transform="translate(202.246094 0)"/>
      <use xlink:href="#DejaVuSans-6c" transform="translate(263.769531 0)"/>
      <use xlink:href="#DejaVuSans-65" transform="translate(291.552734 0)"/>
      <use xlink:href="#DejaVuSans-6e" transform="translate(353.076172 0)"/>
      <use xlink:href="#DejaVuSans-67" transform="translate(416.455078 0)"/>
      <use xlink:href="#DejaVuSans-74" transform="translate(479.931641 0)"/>
      <use xlink:href="#DejaVuSans-68" transform="translate(519.140625 0)"/>
      <use xlink:href="#DejaVuSans-20" transform="translate(582.519531 0)"/>
      <use xlink:href="#DejaVuSans-5b" transform="translate(614.306641 0)"/>
      <use xlink:href="#DejaVuSans-c5" transform="translate(653.320312 0)"/>
      <use xlink:href="#DejaVuSans-5d" transform="translate(721.728516 0)"/>
     </g>
    </g>
   </g>
   <g id="matplotlib.axis_2">
    <g id="ytick_1">
     <g id="line2d_9">
      <defs>
       <path id="m26752704f4" d="M 0 0 
L -3.5 0 
" style="stroke: #000000; stroke-width: 0.8"/>
      </defs>
      <g>
       <use xlink:href="#m26752704f4" x="46.965625" y="218.88" style="stroke: #000000; stroke-width: 0.8"/>
      </g>
     </g>
     <g id="text_10">
      <!-- 0 -->
      <g transform="translate(33.603125 222.679219) scale(0.1 -0.1)">
       <use xlink:href="#DejaVuSans-30"/>
      </g>
     </g>
    </g>
    <g id="ytick_2">
     <g id="line2d_10">
      <g>
       <use xlink:href="#m26752704f4" x="46.965625" y="193.361013" style="stroke: #000000; stroke-width: 0.8"/>
      </g>
     </g>
     <g id="text_11">
      <!-- 100 -->
      <g transform="translate(20.878125 197.160231) scale(0.1 -0.1)">
       <use xlink:href="#DejaVuSans-31"/>
       <use xlink:href="#DejaVuSans-30" transform="translate(63.623047 0)"/>
       <use xlink:href="#DejaVuSans-30" transform="translate(127.246094 0)"/>
      </g>
     </g>
    </g>
    <g id="ytick_3">
     <g id="line2d_11">
      <g>
       <use xlink:href="#m26752704f4" x="46.965625" y="167.842025" style="stroke: #000000; stroke-width: 0.8"/>
      </g>
     </g>
     <g id="text_12">
      <!-- 200 -->
      <g transform="translate(20.878125 171.641244) scale(0.1 -0.1)">
       <use xlink:href="#DejaVuSans-32"/>
       <use xlink:href="#DejaVuSans-30" transform="translate(63.623047 0)"/>
       <use xlink:href="#DejaVuSans-30" transform="translate(127.246094 0)"/>
      </g>
     </g>
    </g>
    <g id="ytick_4">
     <g id="line2d_12">
      <g>
       <use xlink:href="#m26752704f4" x="46.965625" y="142.323038" style="stroke: #000000; stroke-width: 0.8"/>
      </g>
     </g>
     <g id="text_13">
      <!-- 300 -->
      <g transform="translate(20.878125 146.122257) scale(0.1 -0.1)">
       <use xlink:href="#DejaVuSans-33"/>
       <use xlink:href="#DejaVuSans-30" transform="translate(63.623047 0)"/>
       <use xlink:href="#DejaVuSans-30" transform="translate(127.246094 0)"/>
      </g>
     </g>
    </g>
    <g id="ytick_5">
     <g id="line2d_13">
      <g>
       <use xlink:href="#m26752704f4" x="46.965625" y="116.804051" style="stroke: #000000; stroke-width: 0.8"/>
      </g>
     </g>
     <g id="text_14">
      <!-- 400 -->
      <g transform="translate(20.878125 120.603269) scale(0.1 -0.1)">
       <use xlink:href="#DejaVuSans-34"/>
       <use xlink:href="#DejaVuSans-30" transform="translate(63.623047 0)"/>
       <use xlink:href="#DejaVuSans-30" transform="translate(127.246094 0)"/>
      </g>
     </g>
    </g>
    <g id="ytick_6">
     <g id="line2d_14">
      <g>
       <use xlink:href="#m26752704f4" x="46.965625" y="91.285063" style="stroke: #000000; stroke-width: 0.8"/>
      </g>
     </g>
     <g id="text_15">
      <!-- 500 -->
      <g transform="translate(20.878125 95.084282) scale(0.1 -0.1)">
       <use xlink:href="#DejaVuSans-35"/>
       <use xlink:href="#DejaVuSans-30" transform="translate(63.623047 0)"/>
       <use xlink:href="#DejaVuSans-30" transform="translate(127.246094 0)"/>
      </g>
     </g>
    </g>
    <g id="ytick_7">
     <g id="line2d_15">
      <g>
       <use xlink:href="#m26752704f4" x="46.965625" y="65.766076" style="stroke: #000000; stroke-width: 0.8"/>
      </g>
     </g>
     <g id="text_16">
      <!-- 600 -->
      <g transform="translate(20.878125 69.565295) scale(0.1 -0.1)">
       <defs>
        <path id="DejaVuSans-36" d="M 2113 2584 
Q 1688 2584 1439 2293 
Q 1191 2003 1191 1497 
Q 1191 994 1439 701 
Q 1688 409 2113 409 
Q 2538 409 2786 701 
Q 3034 994 3034 1497 
Q 3034 2003 2786 2293 
Q 2538 2584 2113 2584 
z
M 3366 4563 
L 3366 3988 
Q 3128 4100 2886 4159 
Q 2644 4219 2406 4219 
Q 1781 4219 1451 3797 
Q 1122 3375 1075 2522 
Q 1259 2794 1537 2939 
Q 1816 3084 2150 3084 
Q 2853 3084 3261 2657 
Q 3669 2231 3669 1497 
Q 3669 778 3244 343 
Q 2819 -91 2113 -91 
Q 1303 -91 875 529 
Q 447 1150 447 2328 
Q 447 3434 972 4092 
Q 1497 4750 2381 4750 
Q 2619 4750 2861 4703 
Q 3103 4656 3366 4563 
z
" transform="scale(0.015625)"/>
       </defs>
       <use xlink:href="#DejaVuSans-36"/>
       <use xlink:href="#DejaVuSans-30" transform="translate(63.623047 0)"/>
       <use xlink:href="#DejaVuSans-30" transform="translate(127.246094 0)"/>
      </g>
     </g>
    </g>
    <g id="ytick_8">
     <g id="line2d_16">
      <g>
       <use xlink:href="#m26752704f4" x="46.965625" y="40.247089" style="stroke: #000000; stroke-width: 0.8"/>
      </g>
     </g>
     <g id="text_17">
      <!-- 700 -->
      <g transform="translate(20.878125 44.046307) scale(0.1 -0.1)">
       <defs>
        <path id="DejaVuSans-37" d="M 525 4666 
L 3525 4666 
L 3525 4397 
L 1831 0 
L 1172 0 
L 2766 4134 
L 525 4134 
L 525 4666 
z
" transform="scale(0.015625)"/>
       </defs>
       <use xlink:href="#DejaVuSans-37"/>
       <use xlink:href="#DejaVuSans-30" transform="translate(63.623047 0)"/>
       <use xlink:href="#DejaVuSans-30" transform="translate(127.246094 0)"/>
      </g>
     </g>
    </g>
    <g id="ytick_9">
     <g id="line2d_17">
      <g>
       <use xlink:href="#m26752704f4" x="46.965625" y="14.728101" style="stroke: #000000; stroke-width: 0.8"/>
      </g>
     </g>
     <g id="text_18">
      <!-- 800 -->
      <g transform="translate(20.878125 18.52732) scale(0.1 -0.1)">
       <defs>
        <path id="DejaVuSans-38" d="M 2034 2216 
Q 1584 2216 1326 1975 
Q 1069 1734 1069 1313 
Q 1069 891 1326 650 
Q 1584 409 2034 409 
Q 2484 409 2743 651 
Q 3003 894 3003 1313 
Q 3003 1734 2745 1975 
Q 2488 2216 2034 2216 
z
M 1403 2484 
Q 997 2584 770 2862 
Q 544 3141 544 3541 
Q 544 4100 942 4425 
Q 1341 4750 2034 4750 
Q 2731 4750 3128 4425 
Q 3525 4100 3525 3541 
Q 3525 3141 3298 2862 
Q 3072 2584 2669 2484 
Q 3125 2378 3379 2068 
Q 3634 1759 3634 1313 
Q 3634 634 3220 271 
Q 2806 -91 2034 -91 
Q 1263 -91 848 271 
Q 434 634 434 1313 
Q 434 1759 690 2068 
Q 947 2378 1403 2484 
z
M 1172 3481 
Q 1172 3119 1398 2916 
Q 1625 2713 2034 2713 
Q 2441 2713 2670 2916 
Q 2900 3119 2900 3481 
Q 2900 3844 2670 4047 
Q 2441 4250 2034 4250 
Q 1625 4250 1398 4047 
Q 1172 3844 1172 3481 
z
" transform="scale(0.015625)"/>
       </defs>
       <use xlink:href="#DejaVuSans-38"/>
       <use xlink:href="#DejaVuSans-30" transform="translate(63.623047 0)"/>
       <use xlink:href="#DejaVuSans-30" transform="translate(127.246094 0)"/>
      </g>
     </g>
    </g>
    <g id="text_19">
     <!-- [counts] -->
     <g transform="translate(14.798438 138.6925) rotate(-90) scale(0.1 -0.1)">
      <defs>
       <path id="DejaVuSans-63" d="M 3122 3366 
L 3122 2828 
Q 2878 2963 2633 3030 
Q 2388 3097 2138 3097 
Q 1578 3097 1268 2742 
Q 959 2388 959 1747 
Q 959 1106 1268 751 
Q 1578 397 2138 397 
Q 2388 397 2633 464 
Q 2878 531 3122 666 
L 3122 134 
Q 2881 22 2623 -34 
Q 2366 -91 2075 -91 
Q 1284 -91 818 406 
Q 353 903 353 1747 
Q 353 2603 823 3093 
Q 1294 3584 2113 3584 
Q 2378 3584 2631 3529 
Q 2884 3475 3122 3366 
z
" transform="scale(0.015625)"/>
       <path id="DejaVuSans-6f" d="M 1959 3097 
Q 1497 3097 1228 2736 
Q 959 2375 959 1747 
Q 959 1119 1226 758 
Q 1494 397 1959 397 
Q 2419 397 2687 759 
Q 2956 1122 2956 1747 
Q 2956 2369 2687 2733 
Q 2419 3097 1959 3097 
z
M 1959 3584 
Q 2709 3584 3137 3096 
Q 3566 2609 3566 1747 
Q 3566 888 3137 398 
Q 2709 -91 1959 -91 
Q 1206 -91 779 398 
Q 353 888 353 1747 
Q 353 2609 779 3096 
Q 1206 3584 1959 3584 
z
" transform="scale(0.015625)"/>
       <path id="DejaVuSans-75" d="M 544 1381 
L 544 3500 
L 1119 3500 
L 1119 1403 
Q 1119 906 1312 657 
Q 1506 409 1894 409 
Q 2359 409 2629 706 
Q 2900 1003 2900 1516 
L 2900 3500 
L 3475 3500 
L 3475 0 
L 2900 0 
L 2900 538 
Q 2691 219 2414 64 
Q 2138 -91 1772 -91 
Q 1169 -91 856 284 
Q 544 659 544 1381 
z
M 1991 3584 
L 1991 3584 
z
" transform="scale(0.015625)"/>
       <path id="DejaVuSans-73" d="M 2834 3397 
L 2834 2853 
Q 2591 2978 2328 3040 
Q 2066 3103 1784 3103 
Q 1356 3103 1142 2972 
Q 928 2841 928 2578 
Q 928 2378 1081 2264 
Q 1234 2150 1697 2047 
L 1894 2003 
Q 2506 1872 2764 1633 
Q 3022 1394 3022 966 
Q 3022 478 2636 193 
Q 2250 -91 1575 -91 
Q 1294 -91 989 -36 
Q 684 19 347 128 
L 347 722 
Q 666 556 975 473 
Q 1284 391 1588 391 
Q 1994 391 2212 530 
Q 2431 669 2431 922 
Q 2431 1156 2273 1281 
Q 2116 1406 1581 1522 
L 1381 1569 
Q 847 1681 609 1914 
Q 372 2147 372 2553 
Q 372 3047 722 3315 
Q 1072 3584 1716 3584 
Q 2034 3584 2315 3537 
Q 2597 3491 2834 3397 
z
" transform="scale(0.015625)"/>
      </defs>
      <use xlink:href="#DejaVuSans-5b"/>
      <use xlink:href="#DejaVuSans-63" transform="translate(39.013672 0)"/>
      <use xlink:href="#DejaVuSans-6f" transform="translate(93.994141 0)"/>
      <use xlink:href="#DejaVuSans-75" transform="translate(155.175781 0)"/>
      <use xlink:href="#DejaVuSans-6e" transform="translate(218.554688 0)"/>
      <use xlink:href="#DejaVuSans-74" transform="translate(281.933594 0)"/>
      <use xlink:href="#DejaVuSans-73" transform="translate(321.142578 0)"/>
      <use xlink:href="#DejaVuSans-5d" transform="translate(373.242188 0)"/>
     </g>
    </g>
   </g>
   <g id="line2d_18">
    <path d="M 62.183807 218.88 
L 69.792898 218.88 
L 69.792898 218.11443 
L 71.314716 218.11443 
L 71.314716 208.672405 
L 72.836534 208.672405 
L 72.836534 199.23038 
L 74.358352 199.23038 
L 74.358352 198.46481 
L 75.88017 198.46481 
L 75.88017 185.960506 
L 77.401989 185.960506 
L 77.401989 180.091139 
L 78.923807 180.091139 
L 78.923807 174.476962 
L 80.445625 174.476962 
L 80.445625 166.566076 
L 81.967443 166.566076 
L 81.967443 157.124051 
L 83.489261 157.124051 
L 83.489261 151.254684 
L 85.01108 151.254684 
L 85.01108 142.067848 
L 86.532898 142.067848 
L 86.532898 137.219241 
L 88.054716 137.219241 
L 88.054716 121.142278 
L 89.576534 121.142278 
L 89.576534 108.893165 
L 91.098352 108.893165 
L 91.098352 111.445063 
L 92.62017 111.445063 
L 92.62017 103.789367 
L 94.141989 103.789367 
L 94.141989 88.477975 
L 95.663807 88.477975 
L 95.663807 95.112911 
L 97.185625 95.112911 
L 97.185625 77.76 
L 98.707443 77.76 
L 98.707443 81.077468 
L 100.229261 81.077468 
L 100.229261 72.656203 
L 101.75108 72.656203 
L 101.75108 63.469367 
L 103.272898 63.469367 
L 103.272898 62.448608 
L 104.794716 62.448608 
L 104.794716 59.386329 
L 106.316534 59.386329 
L 106.316534 50.709873 
L 107.838352 50.709873 
L 107.838352 45.350886 
L 109.36017 45.350886 
L 109.36017 39.226329 
L 110.881989 39.226329 
L 110.881989 32.081013 
L 112.403807 32.081013 
L 112.403807 37.69519 
L 113.925625 37.69519 
L 113.925625 33.356962 
L 115.447443 33.356962 
L 115.447443 26.211646 
L 116.969261 26.211646 
L 116.969261 25.446076 
L 118.49108 25.446076 
L 118.49108 17.28 
L 120.012898 17.28 
L 120.012898 26.977215 
L 121.534716 26.977215 
L 121.534716 29.784304 
L 123.056534 29.784304 
L 123.056534 20.597468 
L 124.578352 20.597468 
L 124.578352 37.69519 
L 126.10017 37.69519 
L 126.10017 32.591392 
L 127.621989 32.591392 
L 127.621989 37.69519 
L 129.143807 37.69519 
L 129.143807 31.060253 
L 130.665625 31.060253 
L 130.665625 51.730633 
L 132.187443 51.730633 
L 132.187443 38.715949 
L 135.23108 38.715949 
L 135.23108 48.923544 
L 136.752898 48.923544 
L 136.752898 45.095696 
L 138.274716 45.095696 
L 138.274716 43.819747 
L 139.796534 43.819747 
L 139.796534 53.516962 
L 141.318352 53.516962 
L 141.318352 50.965063 
L 142.84017 50.965063 
L 142.84017 51.220253 
L 144.361989 51.220253 
L 144.361989 60.917468 
L 145.883807 60.917468 
L 145.883807 56.83443 
L 147.405625 56.83443 
L 147.405625 56.324051 
L 148.927443 56.324051 
L 148.927443 63.724557 
L 150.449261 63.724557 
L 150.449261 60.407089 
L 151.97108 60.407089 
L 151.97108 59.641519 
L 153.492898 59.641519 
L 153.492898 62.958987 
L 155.014716 62.958987 
L 155.014716 61.172658 
L 156.536534 61.172658 
L 156.536534 53.006582 
L 158.058352 53.006582 
L 158.058352 69.849114 
L 159.58017 69.849114 
L 159.58017 54.537722 
L 161.101989 54.537722 
L 161.101989 71.380253 
L 162.623807 71.380253 
L 162.623807 74.442532 
L 164.145625 74.442532 
L 164.145625 68.062785 
L 165.667443 68.062785 
L 165.667443 59.896709 
L 167.189261 59.896709 
L 167.189261 68.573165 
L 168.71108 68.573165 
L 168.71108 62.703797 
L 170.232898 62.703797 
L 170.232898 54.792911 
L 171.754716 54.792911 
L 171.754716 72.656203 
L 173.276534 72.656203 
L 173.276534 70.869873 
L 174.798352 70.869873 
L 174.798352 66.276456 
L 176.32017 66.276456 
L 176.32017 82.353418 
L 177.841989 82.353418 
L 177.841989 84.139747 
L 179.363807 84.139747 
L 179.363807 84.650127 
L 180.885625 84.650127 
L 180.885625 95.368101 
L 182.407443 95.368101 
L 182.407443 95.878481 
L 183.929261 95.878481 
L 183.929261 102.768608 
L 185.45108 102.768608 
L 185.45108 112.976203 
L 186.972898 112.976203 
L 186.972898 112.465823 
L 188.494716 112.465823 
L 188.494716 117.31443 
L 190.016534 117.31443 
L 190.016534 129.053165 
L 191.538352 129.053165 
L 191.538352 145.130127 
L 193.06017 145.130127 
L 193.06017 154.061772 
L 194.581989 154.061772 
L 194.581989 150.999494 
L 196.103807 150.999494 
L 196.103807 157.379241 
L 197.625625 157.379241 
L 197.625625 177.284051 
L 199.147443 177.284051 
L 199.147443 167.842025 
L 200.669261 167.842025 
L 200.669261 184.174177 
L 202.19108 184.174177 
L 202.19108 174.221772 
L 203.712898 174.221772 
L 203.712898 171.414684 
L 205.234716 171.414684 
L 205.234716 160.186329 
L 206.756534 160.186329 
L 206.756534 147.937215 
L 208.278352 147.937215 
L 208.278352 139.00557 
L 209.80017 139.00557 
L 209.80017 122.673418 
L 211.321989 122.673418 
L 211.321989 128.032405 
L 212.843807 128.032405 
L 212.843807 117.059241 
L 214.365625 117.059241 
L 214.365625 119.611139 
L 215.887443 119.611139 
L 215.887443 105.065316 
L 217.409261 105.065316 
L 217.409261 106.596456 
L 218.93108 106.596456 
L 218.93108 93.836962 
L 220.452898 93.836962 
L 220.452898 95.368101 
L 221.974716 95.368101 
L 221.974716 88.988354 
L 223.496534 88.988354 
L 223.496534 82.098228 
L 225.018352 82.098228 
L 225.018352 82.608608 
L 226.54017 82.608608 
L 226.54017 75.973671 
L 228.061989 75.973671 
L 228.061989 70.104304 
L 229.583807 70.104304 
L 229.583807 68.828354 
L 231.105625 68.828354 
L 231.105625 62.193418 
L 232.627443 62.193418 
L 232.627443 50.709873 
L 235.67108 50.709873 
L 235.67108 52.241013 
L 237.192898 52.241013 
L 237.192898 65.000506 
L 238.714716 65.000506 
L 238.714716 48.668354 
L 240.236534 48.668354 
L 240.236534 59.641519 
L 241.758352 59.641519 
L 241.758352 57.85519 
L 243.28017 57.85519 
L 243.28017 58.36557 
L 244.801989 58.36557 
L 244.801989 56.83443 
L 246.323807 56.83443 
L 246.323807 72.145823 
L 247.845625 72.145823 
L 247.845625 62.703797 
L 249.367443 62.703797 
L 249.367443 70.869873 
L 250.889261 70.869873 
L 250.889261 68.317975 
L 252.41108 68.317975 
L 252.41108 68.828354 
L 253.932898 68.828354 
L 253.932898 74.697722 
L 255.454716 74.697722 
L 255.454716 81.332658 
L 256.976534 81.332658 
L 256.976534 88.733165 
L 258.498352 88.733165 
L 258.498352 90.519494 
L 260.02017 90.519494 
L 260.02017 77.24962 
L 261.541989 77.24962 
L 261.541989 83.374177 
L 263.063807 83.374177 
L 263.063807 75.463291 
L 264.585625 75.463291 
L 264.585625 97.40962 
L 266.107443 97.40962 
L 266.107443 102.768608 
L 267.629261 102.768608 
L 267.629261 100.471899 
L 269.15108 100.471899 
L 269.15108 101.492658 
L 270.672898 101.492658 
L 270.672898 102.513418 
L 272.194716 102.513418 
L 272.194716 97.15443 
L 273.716534 97.15443 
L 273.716534 102.768608 
L 275.238352 102.768608 
L 275.238352 101.747848 
L 276.76017 101.747848 
L 276.76017 116.804051 
L 278.281989 116.804051 
L 278.281989 114.507342 
L 279.803807 114.507342 
L 279.803807 106.341266 
L 281.325625 106.341266 
L 281.325625 117.059241 
L 282.847443 117.059241 
L 282.847443 107.617215 
L 284.369261 107.617215 
L 284.369261 105.320506 
L 285.89108 105.320506 
L 285.89108 111.700253 
L 287.412898 111.700253 
L 287.412898 114.762532 
L 288.934716 114.762532 
L 288.934716 123.694177 
L 290.456534 123.694177 
L 290.456534 125.225316 
L 291.978352 125.225316 
L 291.978352 135.177722 
L 293.50017 135.177722 
L 293.50017 128.287595 
L 295.021989 128.287595 
L 295.021989 122.418228 
L 296.543807 122.418228 
L 296.543807 120.631899 
L 298.065625 120.631899 
L 298.065625 122.163038 
L 299.587443 122.163038 
L 299.587443 142.067848 
L 301.109261 142.067848 
L 301.109261 137.219241 
L 302.63108 137.219241 
L 302.63108 132.115443 
L 304.152898 132.115443 
L 304.152898 141.557468 
L 305.674716 141.557468 
L 305.674716 139.00557 
L 307.196534 139.00557 
L 307.196534 142.323038 
L 308.718352 142.323038 
L 308.718352 146.661266 
L 310.24017 146.661266 
L 310.24017 146.406076 
L 311.761989 146.406076 
L 311.761989 142.833418 
L 313.283807 142.833418 
L 313.283807 152.275443 
L 314.805625 152.275443 
L 314.805625 158.65519 
L 316.327443 158.65519 
L 316.327443 145.640506 
L 317.849261 145.640506 
L 317.849261 156.103291 
L 319.37108 156.103291 
L 319.37108 158.65519 
L 320.892898 158.65519 
L 320.892898 160.696709 
L 322.414716 160.696709 
L 322.414716 161.717468 
L 323.936534 161.717468 
L 323.936534 160.441519 
L 325.458352 160.441519 
L 325.458352 170.904304 
L 326.98017 170.904304 
L 326.98017 174.476962 
L 328.501989 174.476962 
L 328.501989 173.201013 
L 330.023807 173.201013 
L 330.023807 168.352405 
L 331.545625 168.352405 
L 331.545625 185.705316 
L 333.067443 185.705316 
L 333.067443 188.512405 
L 334.589261 188.512405 
L 334.589261 190.298734 
L 336.11108 190.298734 
L 336.11108 197.188861 
L 337.632898 197.188861 
L 337.632898 196.678481 
L 339.154716 196.678481 
L 339.154716 198.46481 
L 340.676534 198.46481 
L 340.676534 197.95443 
L 342.198352 197.95443 
L 342.198352 203.568608 
L 343.72017 203.568608 
L 343.72017 204.844557 
L 345.241989 204.844557 
L 345.241989 207.396456 
L 346.763807 207.396456 
L 346.763807 210.458734 
L 348.285625 210.458734 
L 348.285625 212.500253 
L 349.807443 212.500253 
L 349.807443 213.010633 
L 351.329261 213.010633 
L 351.329261 215.817722 
L 352.85108 215.817722 
L 352.85108 216.328101 
L 354.372898 216.328101 
L 354.372898 217.859241 
L 357.416534 217.859241 
L 357.416534 218.88 
L 366.547443 218.88 
L 366.547443 218.88 
" clip-path="url(#pe089b3830b)" style="fill: none; stroke: #1f77b4; stroke-width: 1.5; stroke-linecap: square"/>
   </g>
   <g id="line2d_19">
    <path d="M 62.183807 218.88 
L 69.792898 218.88 
L 69.792898 217.604051 
L 71.314716 217.604051 
L 71.314716 209.182785 
L 72.836534 209.182785 
L 72.836534 198.72 
L 74.358352 198.72 
L 74.358352 197.699241 
L 75.88017 197.699241 
L 75.88017 186.981266 
L 77.401989 186.981266 
L 77.401989 180.601519 
L 78.923807 180.601519 
L 78.923807 173.966582 
L 80.445625 173.966582 
L 80.445625 167.331646 
L 81.967443 167.331646 
L 81.967443 153.296203 
L 83.489261 153.296203 
L 83.489261 154.827342 
L 85.01108 154.827342 
L 85.01108 140.026329 
L 86.532898 140.026329 
L 86.532898 138.75038 
L 88.054716 138.75038 
L 88.054716 122.928608 
L 89.576534 122.928608 
L 89.576534 109.658734 
L 92.62017 109.658734 
L 92.62017 105.320506 
L 94.141989 105.320506 
L 94.141989 88.988354 
L 95.663807 88.988354 
L 95.663807 91.285063 
L 97.185625 91.285063 
L 97.185625 76.99443 
L 98.707443 76.99443 
L 98.707443 85.670886 
L 100.229261 85.670886 
L 100.229261 69.849114 
L 101.75108 69.849114 
L 101.75108 60.662278 
L 103.272898 60.662278 
L 103.272898 60.151899 
L 104.794716 60.151899 
L 104.794716 64.745316 
L 106.316534 64.745316 
L 106.316534 39.991899 
L 107.838352 39.991899 
L 107.838352 55.303291 
L 109.36017 55.303291 
L 109.36017 37.18481 
L 110.881989 37.18481 
L 110.881989 37.44 
L 112.403807 37.44 
L 112.403807 34.122532 
L 113.925625 34.122532 
L 113.925625 37.69519 
L 115.447443 37.69519 
L 115.447443 19.831899 
L 116.969261 19.831899 
L 116.969261 17.28 
L 118.49108 17.28 
L 118.49108 30.549873 
L 120.012898 30.549873 
L 120.012898 29.784304 
L 121.534716 29.784304 
L 121.534716 26.722025 
L 123.056534 26.722025 
L 123.056534 27.997975 
L 124.578352 27.997975 
L 124.578352 35.653671 
L 126.10017 35.653671 
L 126.10017 32.336203 
L 127.621989 32.336203 
L 127.621989 30.294684 
L 129.143807 30.294684 
L 129.143807 41.267848 
L 130.665625 41.267848 
L 130.665625 43.564557 
L 132.187443 43.564557 
L 132.187443 38.460759 
L 133.709261 38.460759 
L 133.709261 39.226329 
L 135.23108 39.226329 
L 135.23108 46.882025 
L 136.752898 46.882025 
L 136.752898 33.101772 
L 138.274716 33.101772 
L 138.274716 58.36557 
L 139.796534 58.36557 
L 139.796534 51.475443 
L 141.318352 51.475443 
L 141.318352 53.772152 
L 142.84017 53.772152 
L 142.84017 53.516962 
L 144.361989 53.516962 
L 144.361989 64.234937 
L 145.883807 64.234937 
L 145.883807 48.923544 
L 147.405625 48.923544 
L 147.405625 54.282532 
L 148.927443 54.282532 
L 148.927443 67.042025 
L 150.449261 67.042025 
L 150.449261 58.620759 
L 151.97108 58.620759 
L 151.97108 55.048101 
L 153.492898 55.048101 
L 153.492898 62.448608 
L 155.014716 62.448608 
L 155.014716 69.083544 
L 156.536534 69.083544 
L 156.536534 49.689114 
L 158.058352 49.689114 
L 158.058352 71.890633 
L 159.58017 71.890633 
L 159.58017 61.427848 
L 161.101989 61.427848 
L 161.101989 64.490127 
L 162.623807 64.490127 
L 162.623807 70.614684 
L 164.145625 70.614684 
L 164.145625 63.469367 
L 165.667443 63.469367 
L 165.667443 65.255696 
L 167.189261 65.255696 
L 167.189261 69.083544 
L 168.71108 69.083544 
L 168.71108 57.6 
L 170.232898 57.6 
L 170.232898 64.234937 
L 171.754716 64.234937 
L 171.754716 76.228861 
L 173.276534 76.228861 
L 173.276534 62.193418 
L 174.798352 62.193418 
L 174.798352 71.890633 
L 176.32017 71.890633 
L 176.32017 74.187342 
L 177.841989 74.187342 
L 177.841989 90.774684 
L 179.363807 90.774684 
L 179.363807 85.926076 
L 180.885625 85.926076 
L 180.885625 86.436456 
L 182.407443 86.436456 
L 182.407443 101.237468 
L 183.929261 101.237468 
L 183.929261 107.872405 
L 185.45108 107.872405 
L 185.45108 103.534177 
L 186.972898 103.534177 
L 186.972898 119.611139 
L 188.494716 119.611139 
L 188.494716 115.528101 
L 190.016534 115.528101 
L 190.016534 130.329114 
L 191.538352 130.329114 
L 191.538352 141.047089 
L 193.06017 141.047089 
L 193.06017 148.702785 
L 194.581989 148.702785 
L 194.581989 144.109367 
L 196.103807 144.109367 
L 196.103807 148.192405 
L 197.625625 148.192405 
L 197.625625 155.848101 
L 199.147443 155.848101 
L 199.147443 144.109367 
L 200.669261 144.109367 
L 200.669261 148.702785 
L 202.19108 148.702785 
L 202.19108 150.999494 
L 203.712898 150.999494 
L 203.712898 149.468354 
L 205.234716 149.468354 
L 205.234716 140.536709 
L 206.756534 140.536709 
L 206.756534 141.047089 
L 208.278352 141.047089 
L 208.278352 127.266835 
L 209.80017 127.266835 
L 209.80017 124.970127 
L 211.321989 124.970127 
L 211.321989 121.907848 
L 212.843807 121.907848 
L 212.843807 120.887089 
L 214.365625 120.887089 
L 214.365625 111.955443 
L 215.887443 111.955443 
L 215.887443 107.362025 
L 217.409261 107.362025 
L 217.409261 106.851646 
L 218.93108 106.851646 
L 218.93108 91.540253 
L 220.452898 91.540253 
L 220.452898 99.451139 
L 221.974716 99.451139 
L 221.974716 85.160506 
L 223.496534 85.160506 
L 223.496534 89.498734 
L 225.018352 89.498734 
L 225.018352 77.50481 
L 226.54017 77.50481 
L 226.54017 78.27038 
L 228.061989 78.27038 
L 228.061989 66.021266 
L 229.583807 66.021266 
L 229.583807 72.145823 
L 231.105625 72.145823 
L 231.105625 59.641519 
L 232.627443 59.641519 
L 232.627443 50.199494 
L 234.149261 50.199494 
L 234.149261 46.626835 
L 235.67108 46.626835 
L 235.67108 64.745316 
L 237.192898 64.745316 
L 237.192898 55.048101 
L 238.714716 55.048101 
L 238.714716 58.620759 
L 240.236534 58.620759 
L 240.236534 53.516962 
L 241.758352 53.516962 
L 241.758352 57.85519 
L 243.28017 57.85519 
L 243.28017 61.427848 
L 244.801989 61.427848 
L 244.801989 66.531646 
L 246.323807 66.531646 
L 246.323807 60.151899 
L 247.845625 60.151899 
L 247.845625 64.234937 
L 249.367443 64.234937 
L 249.367443 67.807595 
L 250.889261 67.807595 
L 250.889261 77.50481 
L 252.41108 77.50481 
L 252.41108 67.042025 
L 255.454716 67.042025 
L 255.454716 86.946835 
L 256.976534 86.946835 
L 256.976534 86.436456 
L 258.498352 86.436456 
L 258.498352 85.160506 
L 260.02017 85.160506 
L 260.02017 75.463291 
L 261.541989 75.463291 
L 261.541989 89.243544 
L 263.063807 89.243544 
L 263.063807 83.374177 
L 264.585625 83.374177 
L 264.585625 89.498734 
L 266.107443 89.498734 
L 266.107443 101.747848 
L 267.629261 101.747848 
L 267.629261 104.554937 
L 269.15108 104.554937 
L 269.15108 99.451139 
L 270.672898 99.451139 
L 270.672898 100.982278 
L 272.194716 100.982278 
L 272.194716 100.727089 
L 273.716534 100.727089 
L 273.716534 98.17519 
L 275.238352 98.17519 
L 275.238352 104.299747 
L 276.76017 104.299747 
L 276.76017 111.445063 
L 278.281989 111.445063 
L 278.281989 116.804051 
L 279.803807 116.804051 
L 279.803807 116.038481 
L 281.325625 116.038481 
L 281.325625 109.658734 
L 282.847443 109.658734 
L 282.847443 107.362025 
L 284.369261 107.362025 
L 284.369261 110.679494 
L 285.89108 110.679494 
L 285.89108 109.913924 
L 287.412898 109.913924 
L 287.412898 116.804051 
L 288.934716 116.804051 
L 288.934716 123.183797 
L 290.456534 123.183797 
L 290.456534 121.907848 
L 291.978352 121.907848 
L 291.978352 132.115443 
L 293.50017 132.115443 
L 293.50017 134.412152 
L 295.021989 134.412152 
L 295.021989 117.059241 
L 296.543807 117.059241 
L 296.543807 122.418228 
L 298.065625 122.418228 
L 298.065625 127.011646 
L 299.587443 127.011646 
L 299.587443 137.98481 
L 301.109261 137.98481 
L 301.109261 134.156962 
L 302.63108 134.156962 
L 302.63108 134.667342 
L 304.152898 134.667342 
L 304.152898 139.260759 
L 305.674716 139.260759 
L 305.674716 140.791899 
L 307.196534 140.791899 
L 307.196534 150.233924 
L 308.718352 150.233924 
L 308.718352 142.578228 
L 310.24017 142.578228 
L 310.24017 141.302278 
L 311.761989 141.302278 
L 311.761989 148.447595 
L 313.283807 148.447595 
L 313.283807 152.020253 
L 314.805625 152.020253 
L 314.805625 148.192405 
L 316.327443 148.192405 
L 316.327443 151.509873 
L 317.849261 151.509873 
L 317.849261 156.613671 
L 319.37108 156.613671 
L 319.37108 160.186329 
L 320.892898 160.186329 
L 320.892898 157.88962 
L 322.414716 157.88962 
L 322.414716 161.717468 
L 323.936534 161.717468 
L 323.936534 157.88962 
L 325.458352 157.88962 
L 325.458352 173.456203 
L 326.98017 173.456203 
L 326.98017 174.221772 
L 328.501989 174.221772 
L 328.501989 171.159494 
L 330.023807 171.159494 
L 330.023807 174.987342 
L 331.545625 174.987342 
L 331.545625 182.387848 
L 333.067443 182.387848 
L 333.067443 189.277975 
L 334.589261 189.277975 
L 334.589261 189.533165 
L 336.11108 189.533165 
L 336.11108 195.147342 
L 337.632898 195.147342 
L 337.632898 195.402532 
L 339.154716 195.402532 
L 339.154716 201.271899 
L 340.676534 201.271899 
L 340.676534 200.506329 
L 342.198352 200.506329 
L 342.198352 201.527089 
L 343.72017 201.527089 
L 343.72017 204.844557 
L 345.241989 204.844557 
L 345.241989 207.906835 
L 346.763807 207.906835 
L 346.763807 208.927595 
L 348.285625 208.927595 
L 348.285625 212.755443 
L 349.807443 212.755443 
L 349.807443 213.010633 
L 351.329261 213.010633 
L 351.329261 215.817722 
L 352.85108 215.817722 
L 352.85108 216.838481 
L 354.372898 216.838481 
L 354.372898 217.348861 
L 357.416534 217.348861 
L 357.416534 218.36962 
L 358.938352 218.36962 
L 358.938352 218.62481 
L 360.46017 218.62481 
L 360.46017 218.88 
L 366.547443 218.88 
L 366.547443 218.88 
" clip-path="url(#pe089b3830b)" style="fill: none; stroke: #ff7f0e; stroke-width: 1.5; stroke-linecap: square"/>
   </g>
   <g id="patch_3">
    <path d="M 46.965625 228.96 
L 46.965625 7.2 
" style="fill: none; stroke: #000000; stroke-width: 0.8; stroke-linejoin: miter; stroke-linecap: square"/>
   </g>
   <g id="patch_4">
    <path d="M 381.765625 228.96 
L 381.765625 7.2 
" style="fill: none; stroke: #000000; stroke-width: 0.8; stroke-linejoin: miter; stroke-linecap: square"/>
   </g>
   <g id="patch_5">
    <path d="M 46.965625 228.96 
L 381.765625 228.96 
" style="fill: none; stroke: #000000; stroke-width: 0.8; stroke-linejoin: miter; stroke-linecap: square"/>
   </g>
   <g id="patch_6">
    <path d="M 46.965625 7.2 
L 381.765625 7.2 
" style="fill: none; stroke: #000000; stroke-width: 0.8; stroke-linejoin: miter; stroke-linecap: square"/>
   </g>
   <g id="legend_1">
    <g id="patch_7">
     <path d="M 277.7625 44.834375 
L 374.765625 44.834375 
Q 376.765625 44.834375 376.765625 42.834375 
L 376.765625 14.2 
Q 376.765625 12.2 374.765625 12.2 
L 277.7625 12.2 
Q 275.7625 12.2 275.7625 14.2 
L 275.7625 42.834375 
Q 275.7625 44.834375 277.7625 44.834375 
z
" style="fill: #ffffff; opacity: 0.8; stroke: #cccccc; stroke-linejoin: miter"/>
    </g>
    <g id="line2d_20">
     <path d="M 279.7625 20.298437 
L 279.7625 20.298437 
L 289.7625 20.298437 
L 289.7625 20.298437 
L 299.7625 20.298437 
" style="fill: none; stroke: #1f77b4; stroke-width: 1.5; stroke-linecap: square"/>
    </g>
    <g id="text_20">
     <!-- wfm -->
     <g transform="translate(307.7625 23.798437) scale(0.1 -0.1)">
      <defs>
       <path id="DejaVuSans-66" d="M 2375 4863 
L 2375 4384 
L 1825 4384 
Q 1516 4384 1395 4259 
Q 1275 4134 1275 3809 
L 1275 3500 
L 2222 3500 
L 2222 3053 
L 1275 3053 
L 1275 0 
L 697 0 
L 697 3053 
L 147 3053 
L 147 3500 
L 697 3500 
L 697 3744 
Q 697 4328 969 4595 
Q 1241 4863 1831 4863 
L 2375 4863 
z
" transform="scale(0.015625)"/>
       <path id="DejaVuSans-6d" d="M 3328 2828 
Q 3544 3216 3844 3400 
Q 4144 3584 4550 3584 
Q 5097 3584 5394 3201 
Q 5691 2819 5691 2113 
L 5691 0 
L 5113 0 
L 5113 2094 
Q 5113 2597 4934 2840 
Q 4756 3084 4391 3084 
Q 3944 3084 3684 2787 
Q 3425 2491 3425 1978 
L 3425 0 
L 2847 0 
L 2847 2094 
Q 2847 2600 2669 2842 
Q 2491 3084 2119 3084 
Q 1678 3084 1418 2786 
Q 1159 2488 1159 1978 
L 1159 0 
L 581 0 
L 581 3500 
L 1159 3500 
L 1159 2956 
Q 1356 3278 1631 3431 
Q 1906 3584 2284 3584 
Q 2666 3584 2933 3390 
Q 3200 3197 3328 2828 
z
" transform="scale(0.015625)"/>
      </defs>
      <use xlink:href="#DejaVuSans-77"/>
      <use xlink:href="#DejaVuSans-66" transform="translate(81.787109 0)"/>
      <use xlink:href="#DejaVuSans-6d" transform="translate(116.992188 0)"/>
     </g>
    </g>
    <g id="line2d_21">
     <path d="M 279.7625 34.976562 
L 279.7625 34.976562 
L 289.7625 34.976562 
L 289.7625 34.976562 
L 299.7625 34.976562 
" style="fill: none; stroke: #ff7f0e; stroke-width: 1.5; stroke-linecap: square"/>
    </g>
    <g id="text_21">
     <!-- ground_truth -->
     <g transform="translate(307.7625 38.476562) scale(0.1 -0.1)">
      <defs>
       <path id="DejaVuSans-72" d="M 2631 2963 
Q 2534 3019 2420 3045 
Q 2306 3072 2169 3072 
Q 1681 3072 1420 2755 
Q 1159 2438 1159 1844 
L 1159 0 
L 581 0 
L 581 3500 
L 1159 3500 
L 1159 2956 
Q 1341 3275 1631 3429 
Q 1922 3584 2338 3584 
Q 2397 3584 2469 3576 
Q 2541 3569 2628 3553 
L 2631 2963 
z
" transform="scale(0.015625)"/>
       <path id="DejaVuSans-64" d="M 2906 2969 
L 2906 4863 
L 3481 4863 
L 3481 0 
L 2906 0 
L 2906 525 
Q 2725 213 2448 61 
Q 2172 -91 1784 -91 
Q 1150 -91 751 415 
Q 353 922 353 1747 
Q 353 2572 751 3078 
Q 1150 3584 1784 3584 
Q 2172 3584 2448 3432 
Q 2725 3281 2906 2969 
z
M 947 1747 
Q 947 1113 1208 752 
Q 1469 391 1925 391 
Q 2381 391 2643 752 
Q 2906 1113 2906 1747 
Q 2906 2381 2643 2742 
Q 2381 3103 1925 3103 
Q 1469 3103 1208 2742 
Q 947 2381 947 1747 
z
" transform="scale(0.015625)"/>
       <path id="DejaVuSans-5f" d="M 3263 -1063 
L 3263 -1509 
L -63 -1509 
L -63 -1063 
L 3263 -1063 
z
" transform="scale(0.015625)"/>
      </defs>
      <use xlink:href="#DejaVuSans-67"/>
      <use xlink:href="#DejaVuSans-72" transform="translate(63.476562 0)"/>
      <use xlink:href="#DejaVuSans-6f" transform="translate(102.339844 0)"/>
      <use xlink:href="#DejaVuSans-75" transform="translate(163.521484 0)"/>
      <use xlink:href="#DejaVuSans-6e" transform="translate(226.900391 0)"/>
      <use xlink:href="#DejaVuSans-64" transform="translate(290.279297 0)"/>
      <use xlink:href="#DejaVuSans-5f" transform="translate(353.755859 0)"/>
      <use xlink:href="#DejaVuSans-74" transform="translate(403.755859 0)"/>
      <use xlink:href="#DejaVuSans-72" transform="translate(442.964844 0)"/>
      <use xlink:href="#DejaVuSans-75" transform="translate(484.078125 0)"/>
      <use xlink:href="#DejaVuSans-74" transform="translate(547.457031 0)"/>
      <use xlink:href="#DejaVuSans-68" transform="translate(586.666016 0)"/>
     </g>
    </g>
   </g>
  </g>
 </g>
 <defs>
  <clipPath id="pe089b3830b">
   <rect x="46.965625" y="7.2" width="334.8" height="221.76"/>
  </clipPath>
 </defs>
</svg>
