<?xml version="1.0" encoding="UTF-8" standalone="no"?>
<!DOCTYPE svg PUBLIC "-//W3C//DTD SVG 1.1//EN"
 "http://www.w3.org/Graphics/SVG/1.1/DTD/svg11.dtd">
<!-- Generated by graphviz version 2.43.0 (0)
 -->
<!-- Title: %3 Pages: 1 -->
<svg width="1163pt" height="169pt"
 viewBox="0.00 0.00 1163.00 169.00" xmlns="http://www.w3.org/2000/svg" xmlns:xlink="http://www.w3.org/1999/xlink">
<g id="graph0" class="graph" transform="scale(1 1) rotate(0) translate(4 165)">
<title>%3</title>
<polygon fill="white" stroke="transparent" points="-4,4 -4,-165 1159,-165 1159,4 -4,4"/>
<!-- DiskChoppers[AnyRun] -->
<g id="node1" class="node">
<title>DiskChoppers[AnyRun]</title>
<polygon fill="none" stroke="black" points="182,-161 0,-161 0,-138 182,-138 182,-161"/>
<text text-anchor="middle" x="91" y="-145.8" font-family="Times,serif" font-size="14.00">DiskChoppers[AnyRun]</text>
</g>
<!-- SimulationResults -->
<g id="node8" class="node">
<title>SimulationResults</title>
<polygon fill="none" stroke="black" points="622,-102 380,-102 380,-69 622,-69 622,-102"/>
<text text-anchor="start" x="435.5" y="-87.8" font-family="Times,serif" font-size="14.00">SimulationResults</text>
<text text-anchor="start" x="388" y="-76.2" font-family="Times,serif" font-size="11.00">via:</text>
<text text-anchor="start" x="409" y="-76.2" font-family="Times,serif" font-style="italic" font-size="11.00">simulate_chopper_cascade_using_tof</text>
</g>
<!-- DiskChoppers[AnyRun]&#45;&gt;SimulationResults -->
<g id="edge1" class="edge">
<title>DiskChoppers[AnyRun]&#45;&gt;SimulationResults</title>
<path fill="none" stroke="black" d="M160.55,-137.98C222.85,-128.56 315.35,-114.57 388.22,-103.55"/>
<polygon fill="black" stroke="black" points="389,-106.98 398.36,-102.02 387.95,-100.06 389,-106.98"/>
</g>
<!-- DistanceResolution -->
<g id="node2" class="node">
<title>DistanceResolution</title>
<polygon fill="none" stroke="black" points="784.5,-97 629.5,-97 629.5,-74 784.5,-74 784.5,-97"/>
<text text-anchor="middle" x="707" y="-81.8" font-family="Times,serif" font-size="14.00">DistanceResolution</text>
</g>
<!-- TofLookupTable -->
<g id="node12" class="node">
<title>TofLookupTable</title>
<polygon fill="none" stroke="black" points="981.5,-33 816.5,-33 816.5,0 981.5,0 981.5,-33"/>
<text text-anchor="start" x="843" y="-18.8" font-family="Times,serif" font-size="14.00">TofLookupTable</text>
<text text-anchor="start" x="824.5" y="-7.2" font-family="Times,serif" font-size="11.00">via:</text>
<text text-anchor="start" x="845.5" y="-7.2" font-family="Times,serif" font-style="italic" font-size="11.00">make_tof_lookup_table</text>
</g>
<!-- DistanceResolution&#45;&gt;TofLookupTable -->
<g id="edge9" class="edge">
<title>DistanceResolution&#45;&gt;TofLookupTable</title>
<path fill="none" stroke="black" d="M737.42,-73.88C766.23,-63.83 810.11,-48.52 844.88,-36.38"/>
<polygon fill="black" stroke="black" points="846.14,-39.65 854.43,-33.05 843.83,-33.04 846.14,-39.65"/>
</g>
<!-- LtotalRange -->
<g id="node3" class="node">
<title>LtotalRange</title>
<polygon fill="none" stroke="black" points="896,-97 792,-97 792,-74 896,-74 896,-97"/>
<text text-anchor="middle" x="844" y="-81.8" font-family="Times,serif" font-size="14.00">LtotalRange</text>
</g>
<!-- LtotalRange&#45;&gt;TofLookupTable -->
<g id="edge8" class="edge">
<title>LtotalRange&#45;&gt;TofLookupTable</title>
<path fill="none" stroke="black" d="M852.84,-73.74C860.07,-64.92 870.56,-52.14 879.72,-40.99"/>
<polygon fill="black" stroke="black" points="882.44,-43.19 886.08,-33.23 877.03,-38.74 882.44,-43.19"/>
</g>
<!-- NumberOfSimulatedNeutrons -->
<g id="node4" class="node">
<title>NumberOfSimulatedNeutrons</title>
<polygon fill="none" stroke="black" points="420.5,-161 189.5,-161 189.5,-138 420.5,-138 420.5,-161"/>
<text text-anchor="middle" x="305" y="-145.8" font-family="Times,serif" font-size="14.00">NumberOfSimulatedNeutrons</text>
</g>
<!-- NumberOfSimulatedNeutrons&#45;&gt;SimulationResults -->
<g id="edge3" class="edge">
<title>NumberOfSimulatedNeutrons&#45;&gt;SimulationResults</title>
<path fill="none" stroke="black" d="M338.25,-137.98C366.58,-129.02 407.98,-115.93 441.93,-105.19"/>
<polygon fill="black" stroke="black" points="443.27,-108.43 451.75,-102.08 441.16,-101.76 443.27,-108.43"/>
</g>
<!-- PulsePeriod -->
<g id="node5" class="node">
<title>PulsePeriod</title>
<polygon fill="none" stroke="black" points="1004.5,-97 903.5,-97 903.5,-74 1004.5,-74 1004.5,-97"/>
<text text-anchor="middle" x="954" y="-81.8" font-family="Times,serif" font-size="14.00">PulsePeriod</text>
</g>
<!-- PulsePeriod&#45;&gt;TofLookupTable -->
<g id="edge11" class="edge">
<title>PulsePeriod&#45;&gt;TofLookupTable</title>
<path fill="none" stroke="black" d="M945.16,-73.74C937.93,-64.92 927.44,-52.14 918.28,-40.99"/>
<polygon fill="black" stroke="black" points="920.97,-38.74 911.92,-33.23 915.56,-43.19 920.97,-38.74"/>
</g>
<!-- PulseStride -->
<g id="node6" class="node">
<title>PulseStride</title>
<polygon fill="none" stroke="black" points="1007,-161 907,-161 907,-138 1007,-138 1007,-161"/>
<text text-anchor="middle" x="957" y="-145.8" font-family="Times,serif" font-size="14.00">PulseStride</text>
</g>
<!-- PulseStride&#45;&gt;SimulationResults -->
<g id="edge4" class="edge">
<title>PulseStride&#45;&gt;SimulationResults</title>
<path fill="none" stroke="black" d="M906.9,-141.69C839.59,-132.54 717.74,-115.97 625.05,-103.37"/>
<polygon fill="black" stroke="black" points="625.42,-99.88 615.04,-102.01 624.48,-106.82 625.42,-99.88"/>
</g>
<!-- PulseStride&#45;&gt;TofLookupTable -->
<g id="edge12" class="edge">
<title>PulseStride&#45;&gt;TofLookupTable</title>
<path fill="none" stroke="black" d="M974.75,-137.96C986.61,-129.81 1001.22,-117.35 1008,-102 1013.92,-88.58 1015.85,-81.39 1008,-69 999.19,-55.09 985.5,-44.87 970.76,-37.38"/>
<polygon fill="black" stroke="black" points="972.03,-34.11 961.48,-33.06 969.07,-40.45 972.03,-34.11"/>
</g>
<!-- SimulationFacility -->
<g id="node7" class="node">
<title>SimulationFacility</title>
<polygon fill="none" stroke="black" points="574,-161 428,-161 428,-138 574,-138 574,-161"/>
<text text-anchor="middle" x="501" y="-145.8" font-family="Times,serif" font-size="14.00">SimulationFacility</text>
</g>
<!-- SimulationFacility&#45;&gt;SimulationResults -->
<g id="edge6" class="edge">
<title>SimulationFacility&#45;&gt;SimulationResults</title>
<path fill="none" stroke="black" d="M501,-137.98C501,-130.93 501,-121.32 501,-112.31"/>
<polygon fill="black" stroke="black" points="504.5,-112.2 501,-102.2 497.5,-112.2 504.5,-112.2"/>
</g>
<!-- SimulationResults&#45;&gt;TofLookupTable -->
<g id="edge7" class="edge">
<title>SimulationResults&#45;&gt;TofLookupTable</title>
<path fill="none" stroke="black" d="M593.31,-68.96C657.28,-58.19 742.15,-43.9 806.22,-33.12"/>
<polygon fill="black" stroke="black" points="807.04,-36.53 816.32,-31.42 805.88,-29.63 807.04,-36.53"/>
</g>
<!-- SourcePosition -->
<g id="node9" class="node">
<title>SourcePosition</title>
<polygon fill="none" stroke="black" points="704.5,-161 581.5,-161 581.5,-138 704.5,-138 704.5,-161"/>
<text text-anchor="middle" x="643" y="-145.8" font-family="Times,serif" font-size="14.00">SourcePosition</text>
</g>
<!-- SourcePosition&#45;&gt;SimulationResults -->
<g id="edge2" class="edge">
<title>SourcePosition&#45;&gt;SimulationResults</title>
<path fill="none" stroke="black" d="M618.91,-137.98C599,-129.29 570.19,-116.71 546.03,-106.16"/>
<polygon fill="black" stroke="black" points="547.25,-102.87 536.68,-102.08 544.45,-109.29 547.25,-102.87"/>
</g>
<!-- SimulationSeed -->
<g id="node10" class="node">
<title>SimulationSeed</title>
<polygon fill="none" stroke="black" points="840.5,-161 711.5,-161 711.5,-138 840.5,-138 840.5,-161"/>
<text text-anchor="middle" x="776" y="-145.8" font-family="Times,serif" font-size="14.00">SimulationSeed</text>
</g>
<!-- SimulationSeed&#45;&gt;SimulationResults -->
<g id="edge5" class="edge">
<title>SimulationSeed&#45;&gt;SimulationResults</title>
<path fill="none" stroke="black" d="M729.35,-137.98C688.42,-128.75 628.05,-115.14 579.66,-104.23"/>
<polygon fill="black" stroke="black" points="580.37,-100.81 569.84,-102.02 578.83,-107.63 580.37,-100.81"/>
</g>
<!-- TimeResolution -->
<g id="node11" class="node">
<title>TimeResolution</title>
<polygon fill="none" stroke="black" points="1155,-97 1027,-97 1027,-74 1155,-74 1155,-97"/>
<text text-anchor="middle" x="1091" y="-81.8" font-family="Times,serif" font-size="14.00">TimeResolution</text>
</g>
<!-- TimeResolution&#45;&gt;TofLookupTable -->
<g id="edge10" class="edge">
<title>TimeResolution&#45;&gt;TofLookupTable</title>
<path fill="none" stroke="black" d="M1060.58,-73.88C1031.77,-63.83 987.89,-48.52 953.12,-36.38"/>
<polygon fill="black" stroke="black" points="954.17,-33.04 943.57,-33.05 951.86,-39.65 954.17,-33.04"/>
</g>
</g>
</svg>
