<?xml version="1.0" encoding="utf-8" standalone="no"?>
<!DOCTYPE svg PUBLIC "-//W3C//DTD SVG 1.1//EN"
  "http://www.w3.org/Graphics/SVG/1.1/DTD/svg11.dtd">
<svg xmlns:xlink="http://www.w3.org/1999/xlink" width="388.965625pt" height="266.794375pt" viewBox="0 0 388.965625 266.794375" xmlns="http://www.w3.org/2000/svg" version="1.1">
 <metadata>
  <rdf:RDF xmlns:dc="http://purl.org/dc/elements/1.1/" xmlns:cc="http://creativecommons.org/ns#" xmlns:rdf="http://www.w3.org/1999/02/22-rdf-syntax-ns#">
   <cc:Work>
    <dc:type rdf:resource="http://purl.org/dc/dcmitype/StillImage"/>
    <dc:date>2025-05-14T12:10:54.489449</dc:date>
    <dc:format>image/svg+xml</dc:format>
    <dc:creator>
     <cc:Agent>
      <dc:title>Matplotlib v3.10.1, https://matplotlib.org/</dc:title>
     </cc:Agent>
    </dc:creator>
   </cc:Work>
  </rdf:RDF>
 </metadata>
 <defs>
  <style type="text/css">*{stroke-linejoin: round; stroke-linecap: butt}</style>
 </defs>
 <g id="figure_1">
  <g id="patch_1">
   <path d="M 0 266.794375 
L 388.965625 266.794375 
L 388.965625 0 
L 0 0 
z
" style="fill: #ffffff"/>
  </g>
  <g id="axes_1">
   <g id="patch_2">
    <path d="M 46.965625 228.96 
L 381.765625 228.96 
L 381.765625 7.2 
L 46.965625 7.2 
z
" style="fill: #ffffff"/>
   </g>
   <g id="matplotlib.axis_1">
    <g id="xtick_1">
     <g id="line2d_1">
      <defs>
       <path id="md72d0a227d" d="M 0 0 
L 0 3.5 
" style="stroke: #000000; stroke-width: 0.8"/>
      </defs>
      <g>
       <use xlink:href="#md72d0a227d" x="62.182139" y="228.96" style="stroke: #000000; stroke-width: 0.8"/>
      </g>
     </g>
     <g id="text_1">
      <!-- 0 -->
      <g transform="translate(59.000889 243.558437) scale(0.1 -0.1)">
       <defs>
        <path id="DejaVuSans-30" d="M 2034 4250 
Q 1547 4250 1301 3770 
Q 1056 3291 1056 2328 
Q 1056 1369 1301 889 
Q 1547 409 2034 409 
Q 2525 409 2770 889 
Q 3016 1369 3016 2328 
Q 3016 3291 2770 3770 
Q 2525 4250 2034 4250 
z
M 2034 4750 
Q 2819 4750 3233 4129 
Q 3647 3509 3647 2328 
Q 3647 1150 3233 529 
Q 2819 -91 2034 -91 
Q 1250 -91 836 529 
Q 422 1150 422 2328 
Q 422 3509 836 4129 
Q 1250 4750 2034 4750 
z
" transform="scale(0.015625)"/>
       </defs>
       <use xlink:href="#DejaVuSans-30"/>
      </g>
     </g>
    </g>
    <g id="xtick_2">
     <g id="line2d_2">
      <g>
       <use xlink:href="#md72d0a227d" x="104.793352" y="228.96" style="stroke: #000000; stroke-width: 0.8"/>
      </g>
     </g>
     <g id="text_2">
      <!-- 10000 -->
      <g transform="translate(88.887102 243.558437) scale(0.1 -0.1)">
       <defs>
        <path id="DejaVuSans-31" d="M 794 531 
L 1825 531 
L 1825 4091 
L 703 3866 
L 703 4441 
L 1819 4666 
L 2450 4666 
L 2450 531 
L 3481 531 
L 3481 0 
L 794 0 
L 794 531 
z
" transform="scale(0.015625)"/>
       </defs>
       <use xlink:href="#DejaVuSans-31"/>
       <use xlink:href="#DejaVuSans-30" transform="translate(63.623047 0)"/>
       <use xlink:href="#DejaVuSans-30" transform="translate(127.246094 0)"/>
       <use xlink:href="#DejaVuSans-30" transform="translate(190.869141 0)"/>
       <use xlink:href="#DejaVuSans-30" transform="translate(254.492188 0)"/>
      </g>
     </g>
    </g>
    <g id="xtick_3">
     <g id="line2d_3">
      <g>
       <use xlink:href="#md72d0a227d" x="147.404565" y="228.96" style="stroke: #000000; stroke-width: 0.8"/>
      </g>
     </g>
     <g id="text_3">
      <!-- 20000 -->
      <g transform="translate(131.498315 243.558437) scale(0.1 -0.1)">
       <defs>
        <path id="DejaVuSans-32" d="M 1228 531 
L 3431 531 
L 3431 0 
L 469 0 
L 469 531 
Q 828 903 1448 1529 
Q 2069 2156 2228 2338 
Q 2531 2678 2651 2914 
Q 2772 3150 2772 3378 
Q 2772 3750 2511 3984 
Q 2250 4219 1831 4219 
Q 1534 4219 1204 4116 
Q 875 4013 500 3803 
L 500 4441 
Q 881 4594 1212 4672 
Q 1544 4750 1819 4750 
Q 2544 4750 2975 4387 
Q 3406 4025 3406 3419 
Q 3406 3131 3298 2873 
Q 3191 2616 2906 2266 
Q 2828 2175 2409 1742 
Q 1991 1309 1228 531 
z
" transform="scale(0.015625)"/>
       </defs>
       <use xlink:href="#DejaVuSans-32"/>
       <use xlink:href="#DejaVuSans-30" transform="translate(63.623047 0)"/>
       <use xlink:href="#DejaVuSans-30" transform="translate(127.246094 0)"/>
       <use xlink:href="#DejaVuSans-30" transform="translate(190.869141 0)"/>
       <use xlink:href="#DejaVuSans-30" transform="translate(254.492188 0)"/>
      </g>
     </g>
    </g>
    <g id="xtick_4">
     <g id="line2d_4">
      <g>
       <use xlink:href="#md72d0a227d" x="190.015778" y="228.96" style="stroke: #000000; stroke-width: 0.8"/>
      </g>
     </g>
     <g id="text_4">
      <!-- 30000 -->
      <g transform="translate(174.109528 243.558437) scale(0.1 -0.1)">
       <defs>
        <path id="DejaVuSans-33" d="M 2597 2516 
Q 3050 2419 3304 2112 
Q 3559 1806 3559 1356 
Q 3559 666 3084 287 
Q 2609 -91 1734 -91 
Q 1441 -91 1130 -33 
Q 819 25 488 141 
L 488 750 
Q 750 597 1062 519 
Q 1375 441 1716 441 
Q 2309 441 2620 675 
Q 2931 909 2931 1356 
Q 2931 1769 2642 2001 
Q 2353 2234 1838 2234 
L 1294 2234 
L 1294 2753 
L 1863 2753 
Q 2328 2753 2575 2939 
Q 2822 3125 2822 3475 
Q 2822 3834 2567 4026 
Q 2313 4219 1838 4219 
Q 1578 4219 1281 4162 
Q 984 4106 628 3988 
L 628 4550 
Q 988 4650 1302 4700 
Q 1616 4750 1894 4750 
Q 2613 4750 3031 4423 
Q 3450 4097 3450 3541 
Q 3450 3153 3228 2886 
Q 3006 2619 2597 2516 
z
" transform="scale(0.015625)"/>
       </defs>
       <use xlink:href="#DejaVuSans-33"/>
       <use xlink:href="#DejaVuSans-30" transform="translate(63.623047 0)"/>
       <use xlink:href="#DejaVuSans-30" transform="translate(127.246094 0)"/>
       <use xlink:href="#DejaVuSans-30" transform="translate(190.869141 0)"/>
       <use xlink:href="#DejaVuSans-30" transform="translate(254.492188 0)"/>
      </g>
     </g>
    </g>
    <g id="xtick_5">
     <g id="line2d_5">
      <g>
       <use xlink:href="#md72d0a227d" x="232.626991" y="228.96" style="stroke: #000000; stroke-width: 0.8"/>
      </g>
     </g>
     <g id="text_5">
      <!-- 40000 -->
      <g transform="translate(216.720741 243.558437) scale(0.1 -0.1)">
       <defs>
        <path id="DejaVuSans-34" d="M 2419 4116 
L 825 1625 
L 2419 1625 
L 2419 4116 
z
M 2253 4666 
L 3047 4666 
L 3047 1625 
L 3713 1625 
L 3713 1100 
L 3047 1100 
L 3047 0 
L 2419 0 
L 2419 1100 
L 313 1100 
L 313 1709 
L 2253 4666 
z
" transform="scale(0.015625)"/>
       </defs>
       <use xlink:href="#DejaVuSans-34"/>
       <use xlink:href="#DejaVuSans-30" transform="translate(63.623047 0)"/>
       <use xlink:href="#DejaVuSans-30" transform="translate(127.246094 0)"/>
       <use xlink:href="#DejaVuSans-30" transform="translate(190.869141 0)"/>
       <use xlink:href="#DejaVuSans-30" transform="translate(254.492188 0)"/>
      </g>
     </g>
    </g>
    <g id="xtick_6">
     <g id="line2d_6">
      <g>
       <use xlink:href="#md72d0a227d" x="275.238204" y="228.96" style="stroke: #000000; stroke-width: 0.8"/>
      </g>
     </g>
     <g id="text_6">
      <!-- 50000 -->
      <g transform="translate(259.331954 243.558437) scale(0.1 -0.1)">
       <defs>
        <path id="DejaVuSans-35" d="M 691 4666 
L 3169 4666 
L 3169 4134 
L 1269 4134 
L 1269 2991 
Q 1406 3038 1543 3061 
Q 1681 3084 1819 3084 
Q 2600 3084 3056 2656 
Q 3513 2228 3513 1497 
Q 3513 744 3044 326 
Q 2575 -91 1722 -91 
Q 1428 -91 1123 -41 
Q 819 9 494 109 
L 494 744 
Q 775 591 1075 516 
Q 1375 441 1709 441 
Q 2250 441 2565 725 
Q 2881 1009 2881 1497 
Q 2881 1984 2565 2268 
Q 2250 2553 1709 2553 
Q 1456 2553 1204 2497 
Q 953 2441 691 2322 
L 691 4666 
z
" transform="scale(0.015625)"/>
       </defs>
       <use xlink:href="#DejaVuSans-35"/>
       <use xlink:href="#DejaVuSans-30" transform="translate(63.623047 0)"/>
       <use xlink:href="#DejaVuSans-30" transform="translate(127.246094 0)"/>
       <use xlink:href="#DejaVuSans-30" transform="translate(190.869141 0)"/>
       <use xlink:href="#DejaVuSans-30" transform="translate(254.492188 0)"/>
      </g>
     </g>
    </g>
    <g id="xtick_7">
     <g id="line2d_7">
      <g>
       <use xlink:href="#md72d0a227d" x="317.849417" y="228.96" style="stroke: #000000; stroke-width: 0.8"/>
      </g>
     </g>
     <g id="text_7">
      <!-- 60000 -->
      <g transform="translate(301.943167 243.558437) scale(0.1 -0.1)">
       <defs>
        <path id="DejaVuSans-36" d="M 2113 2584 
Q 1688 2584 1439 2293 
Q 1191 2003 1191 1497 
Q 1191 994 1439 701 
Q 1688 409 2113 409 
Q 2538 409 2786 701 
Q 3034 994 3034 1497 
Q 3034 2003 2786 2293 
Q 2538 2584 2113 2584 
z
M 3366 4563 
L 3366 3988 
Q 3128 4100 2886 4159 
Q 2644 4219 2406 4219 
Q 1781 4219 1451 3797 
Q 1122 3375 1075 2522 
Q 1259 2794 1537 2939 
Q 1816 3084 2150 3084 
Q 2853 3084 3261 2657 
Q 3669 2231 3669 1497 
Q 3669 778 3244 343 
Q 2819 -91 2113 -91 
Q 1303 -91 875 529 
Q 447 1150 447 2328 
Q 447 3434 972 4092 
Q 1497 4750 2381 4750 
Q 2619 4750 2861 4703 
Q 3103 4656 3366 4563 
z
" transform="scale(0.015625)"/>
       </defs>
       <use xlink:href="#DejaVuSans-36"/>
       <use xlink:href="#DejaVuSans-30" transform="translate(63.623047 0)"/>
       <use xlink:href="#DejaVuSans-30" transform="translate(127.246094 0)"/>
       <use xlink:href="#DejaVuSans-30" transform="translate(190.869141 0)"/>
       <use xlink:href="#DejaVuSans-30" transform="translate(254.492188 0)"/>
      </g>
     </g>
    </g>
    <g id="xtick_8">
     <g id="line2d_8">
      <g>
       <use xlink:href="#md72d0a227d" x="360.46063" y="228.96" style="stroke: #000000; stroke-width: 0.8"/>
      </g>
     </g>
     <g id="text_8">
      <!-- 70000 -->
      <g transform="translate(344.55438 243.558437) scale(0.1 -0.1)">
       <defs>
        <path id="DejaVuSans-37" d="M 525 4666 
L 3525 4666 
L 3525 4397 
L 1831 0 
L 1172 0 
L 2766 4134 
L 525 4134 
L 525 4666 
z
" transform="scale(0.015625)"/>
       </defs>
       <use xlink:href="#DejaVuSans-37"/>
       <use xlink:href="#DejaVuSans-30" transform="translate(63.623047 0)"/>
       <use xlink:href="#DejaVuSans-30" transform="translate(127.246094 0)"/>
       <use xlink:href="#DejaVuSans-30" transform="translate(190.869141 0)"/>
       <use xlink:href="#DejaVuSans-30" transform="translate(254.492188 0)"/>
      </g>
     </g>
    </g>
    <g id="text_9">
     <!-- event_time_offset [µs] -->
     <g transform="translate(158.330469 257.236562) scale(0.1 -0.1)">
      <defs>
       <path id="DejaVuSans-65" d="M 3597 1894 
L 3597 1613 
L 953 1613 
Q 991 1019 1311 708 
Q 1631 397 2203 397 
Q 2534 397 2845 478 
Q 3156 559 3463 722 
L 3463 178 
Q 3153 47 2828 -22 
Q 2503 -91 2169 -91 
Q 1331 -91 842 396 
Q 353 884 353 1716 
Q 353 2575 817 3079 
Q 1281 3584 2069 3584 
Q 2775 3584 3186 3129 
Q 3597 2675 3597 1894 
z
M 3022 2063 
Q 3016 2534 2758 2815 
Q 2500 3097 2075 3097 
Q 1594 3097 1305 2825 
Q 1016 2553 972 2059 
L 3022 2063 
z
" transform="scale(0.015625)"/>
       <path id="DejaVuSans-76" d="M 191 3500 
L 800 3500 
L 1894 563 
L 2988 3500 
L 3597 3500 
L 2284 0 
L 1503 0 
L 191 3500 
z
" transform="scale(0.015625)"/>
       <path id="DejaVuSans-6e" d="M 3513 2113 
L 3513 0 
L 2938 0 
L 2938 2094 
Q 2938 2591 2744 2837 
Q 2550 3084 2163 3084 
Q 1697 3084 1428 2787 
Q 1159 2491 1159 1978 
L 1159 0 
L 581 0 
L 581 3500 
L 1159 3500 
L 1159 2956 
Q 1366 3272 1645 3428 
Q 1925 3584 2291 3584 
Q 2894 3584 3203 3211 
Q 3513 2838 3513 2113 
z
" transform="scale(0.015625)"/>
       <path id="DejaVuSans-74" d="M 1172 4494 
L 1172 3500 
L 2356 3500 
L 2356 3053 
L 1172 3053 
L 1172 1153 
Q 1172 725 1289 603 
Q 1406 481 1766 481 
L 2356 481 
L 2356 0 
L 1766 0 
Q 1100 0 847 248 
Q 594 497 594 1153 
L 594 3053 
L 172 3053 
L 172 3500 
L 594 3500 
L 594 4494 
L 1172 4494 
z
" transform="scale(0.015625)"/>
       <path id="DejaVuSans-5f" d="M 3263 -1063 
L 3263 -1509 
L -63 -1509 
L -63 -1063 
L 3263 -1063 
z
" transform="scale(0.015625)"/>
       <path id="DejaVuSans-69" d="M 603 3500 
L 1178 3500 
L 1178 0 
L 603 0 
L 603 3500 
z
M 603 4863 
L 1178 4863 
L 1178 4134 
L 603 4134 
L 603 4863 
z
" transform="scale(0.015625)"/>
       <path id="DejaVuSans-6d" d="M 3328 2828 
Q 3544 3216 3844 3400 
Q 4144 3584 4550 3584 
Q 5097 3584 5394 3201 
Q 5691 2819 5691 2113 
L 5691 0 
L 5113 0 
L 5113 2094 
Q 5113 2597 4934 2840 
Q 4756 3084 4391 3084 
Q 3944 3084 3684 2787 
Q 3425 2491 3425 1978 
L 3425 0 
L 2847 0 
L 2847 2094 
Q 2847 2600 2669 2842 
Q 2491 3084 2119 3084 
Q 1678 3084 1418 2786 
Q 1159 2488 1159 1978 
L 1159 0 
L 581 0 
L 581 3500 
L 1159 3500 
L 1159 2956 
Q 1356 3278 1631 3431 
Q 1906 3584 2284 3584 
Q 2666 3584 2933 3390 
Q 3200 3197 3328 2828 
z
" transform="scale(0.015625)"/>
       <path id="DejaVuSans-6f" d="M 1959 3097 
Q 1497 3097 1228 2736 
Q 959 2375 959 1747 
Q 959 1119 1226 758 
Q 1494 397 1959 397 
Q 2419 397 2687 759 
Q 2956 1122 2956 1747 
Q 2956 2369 2687 2733 
Q 2419 3097 1959 3097 
z
M 1959 3584 
Q 2709 3584 3137 3096 
Q 3566 2609 3566 1747 
Q 3566 888 3137 398 
Q 2709 -91 1959 -91 
Q 1206 -91 779 398 
Q 353 888 353 1747 
Q 353 2609 779 3096 
Q 1206 3584 1959 3584 
z
" transform="scale(0.015625)"/>
       <path id="DejaVuSans-66" d="M 2375 4863 
L 2375 4384 
L 1825 4384 
Q 1516 4384 1395 4259 
Q 1275 4134 1275 3809 
L 1275 3500 
L 2222 3500 
L 2222 3053 
L 1275 3053 
L 1275 0 
L 697 0 
L 697 3053 
L 147 3053 
L 147 3500 
L 697 3500 
L 697 3744 
Q 697 4328 969 4595 
Q 1241 4863 1831 4863 
L 2375 4863 
z
" transform="scale(0.015625)"/>
       <path id="DejaVuSans-73" d="M 2834 3397 
L 2834 2853 
Q 2591 2978 2328 3040 
Q 2066 3103 1784 3103 
Q 1356 3103 1142 2972 
Q 928 2841 928 2578 
Q 928 2378 1081 2264 
Q 1234 2150 1697 2047 
L 1894 2003 
Q 2506 1872 2764 1633 
Q 3022 1394 3022 966 
Q 3022 478 2636 193 
Q 2250 -91 1575 -91 
Q 1294 -91 989 -36 
Q 684 19 347 128 
L 347 722 
Q 666 556 975 473 
Q 1284 391 1588 391 
Q 1994 391 2212 530 
Q 2431 669 2431 922 
Q 2431 1156 2273 1281 
Q 2116 1406 1581 1522 
L 1381 1569 
Q 847 1681 609 1914 
Q 372 2147 372 2553 
Q 372 3047 722 3315 
Q 1072 3584 1716 3584 
Q 2034 3584 2315 3537 
Q 2597 3491 2834 3397 
z
" transform="scale(0.015625)"/>
       <path id="DejaVuSans-20" transform="scale(0.015625)"/>
       <path id="DejaVuSans-5b" d="M 550 4863 
L 1875 4863 
L 1875 4416 
L 1125 4416 
L 1125 -397 
L 1875 -397 
L 1875 -844 
L 550 -844 
L 550 4863 
z
" transform="scale(0.015625)"/>
       <path id="DejaVuSans-b5" d="M 544 -1331 
L 544 3500 
L 1119 3500 
L 1119 1325 
Q 1119 872 1334 640 
Q 1550 409 1972 409 
Q 2434 409 2667 671 
Q 2900 934 2900 1459 
L 2900 3500 
L 3475 3500 
L 3475 806 
Q 3475 619 3529 530 
Q 3584 441 3700 441 
Q 3728 441 3778 458 
Q 3828 475 3916 513 
L 3916 50 
Q 3788 -22 3673 -56 
Q 3559 -91 3450 -91 
Q 3234 -91 3106 31 
Q 2978 153 2931 403 
Q 2775 156 2548 32 
Q 2322 -91 2016 -91 
Q 1697 -91 1473 31 
Q 1250 153 1119 397 
L 1119 -1331 
L 544 -1331 
z
" transform="scale(0.015625)"/>
       <path id="DejaVuSans-5d" d="M 1947 4863 
L 1947 -844 
L 622 -844 
L 622 -397 
L 1369 -397 
L 1369 4416 
L 622 4416 
L 622 4863 
L 1947 4863 
z
" transform="scale(0.015625)"/>
      </defs>
      <use xlink:href="#DejaVuSans-65"/>
      <use xlink:href="#DejaVuSans-76" transform="translate(61.523438 0)"/>
      <use xlink:href="#DejaVuSans-65" transform="translate(120.703125 0)"/>
      <use xlink:href="#DejaVuSans-6e" transform="translate(182.226562 0)"/>
      <use xlink:href="#DejaVuSans-74" transform="translate(245.605469 0)"/>
      <use xlink:href="#DejaVuSans-5f" transform="translate(284.814453 0)"/>
      <use xlink:href="#DejaVuSans-74" transform="translate(334.814453 0)"/>
      <use xlink:href="#DejaVuSans-69" transform="translate(374.023438 0)"/>
      <use xlink:href="#DejaVuSans-6d" transform="translate(401.806641 0)"/>
      <use xlink:href="#DejaVuSans-65" transform="translate(499.21875 0)"/>
      <use xlink:href="#DejaVuSans-5f" transform="translate(560.742188 0)"/>
      <use xlink:href="#DejaVuSans-6f" transform="translate(610.742188 0)"/>
      <use xlink:href="#DejaVuSans-66" transform="translate(671.923828 0)"/>
      <use xlink:href="#DejaVuSans-66" transform="translate(707.128906 0)"/>
      <use xlink:href="#DejaVuSans-73" transform="translate(742.333984 0)"/>
      <use xlink:href="#DejaVuSans-65" transform="translate(794.433594 0)"/>
      <use xlink:href="#DejaVuSans-74" transform="translate(855.957031 0)"/>
      <use xlink:href="#DejaVuSans-20" transform="translate(895.166016 0)"/>
      <use xlink:href="#DejaVuSans-5b" transform="translate(926.953125 0)"/>
      <use xlink:href="#DejaVuSans-b5" transform="translate(965.966797 0)"/>
      <use xlink:href="#DejaVuSans-73" transform="translate(1029.589844 0)"/>
      <use xlink:href="#DejaVuSans-5d" transform="translate(1081.689453 0)"/>
     </g>
    </g>
   </g>
   <g id="matplotlib.axis_2">
    <g id="ytick_1">
     <g id="line2d_9">
      <defs>
       <path id="m5f65b8144d" d="M 0 0 
L -3.5 0 
" style="stroke: #000000; stroke-width: 0.8"/>
      </defs>
      <g>
       <use xlink:href="#m5f65b8144d" x="46.965625" y="218.88" style="stroke: #000000; stroke-width: 0.8"/>
      </g>
     </g>
     <g id="text_10">
      <!-- 0 -->
      <g transform="translate(33.603125 222.679219) scale(0.1 -0.1)">
       <use xlink:href="#DejaVuSans-30"/>
      </g>
     </g>
    </g>
    <g id="ytick_2">
     <g id="line2d_10">
      <g>
       <use xlink:href="#m5f65b8144d" x="46.965625" y="185.335907" style="stroke: #000000; stroke-width: 0.8"/>
      </g>
     </g>
     <g id="text_11">
      <!-- 100 -->
      <g transform="translate(20.878125 189.135126) scale(0.1 -0.1)">
       <use xlink:href="#DejaVuSans-31"/>
       <use xlink:href="#DejaVuSans-30" transform="translate(63.623047 0)"/>
       <use xlink:href="#DejaVuSans-30" transform="translate(127.246094 0)"/>
      </g>
     </g>
    </g>
    <g id="ytick_3">
     <g id="line2d_11">
      <g>
       <use xlink:href="#m5f65b8144d" x="46.965625" y="151.791814" style="stroke: #000000; stroke-width: 0.8"/>
      </g>
     </g>
     <g id="text_12">
      <!-- 200 -->
      <g transform="translate(20.878125 155.591032) scale(0.1 -0.1)">
       <use xlink:href="#DejaVuSans-32"/>
       <use xlink:href="#DejaVuSans-30" transform="translate(63.623047 0)"/>
       <use xlink:href="#DejaVuSans-30" transform="translate(127.246094 0)"/>
      </g>
     </g>
    </g>
    <g id="ytick_4">
     <g id="line2d_12">
      <g>
       <use xlink:href="#m5f65b8144d" x="46.965625" y="118.24772" style="stroke: #000000; stroke-width: 0.8"/>
      </g>
     </g>
     <g id="text_13">
      <!-- 300 -->
      <g transform="translate(20.878125 122.046939) scale(0.1 -0.1)">
       <use xlink:href="#DejaVuSans-33"/>
       <use xlink:href="#DejaVuSans-30" transform="translate(63.623047 0)"/>
       <use xlink:href="#DejaVuSans-30" transform="translate(127.246094 0)"/>
      </g>
     </g>
    </g>
    <g id="ytick_5">
     <g id="line2d_13">
      <g>
       <use xlink:href="#m5f65b8144d" x="46.965625" y="84.703627" style="stroke: #000000; stroke-width: 0.8"/>
      </g>
     </g>
     <g id="text_14">
      <!-- 400 -->
      <g transform="translate(20.878125 88.502846) scale(0.1 -0.1)">
       <use xlink:href="#DejaVuSans-34"/>
       <use xlink:href="#DejaVuSans-30" transform="translate(63.623047 0)"/>
       <use xlink:href="#DejaVuSans-30" transform="translate(127.246094 0)"/>
      </g>
     </g>
    </g>
    <g id="ytick_6">
     <g id="line2d_14">
      <g>
       <use xlink:href="#m5f65b8144d" x="46.965625" y="51.159534" style="stroke: #000000; stroke-width: 0.8"/>
      </g>
     </g>
     <g id="text_15">
      <!-- 500 -->
      <g transform="translate(20.878125 54.958753) scale(0.1 -0.1)">
       <use xlink:href="#DejaVuSans-35"/>
       <use xlink:href="#DejaVuSans-30" transform="translate(63.623047 0)"/>
       <use xlink:href="#DejaVuSans-30" transform="translate(127.246094 0)"/>
      </g>
     </g>
    </g>
    <g id="ytick_7">
     <g id="line2d_15">
      <g>
       <use xlink:href="#m5f65b8144d" x="46.965625" y="17.615441" style="stroke: #000000; stroke-width: 0.8"/>
      </g>
     </g>
     <g id="text_16">
      <!-- 600 -->
      <g transform="translate(20.878125 21.41466) scale(0.1 -0.1)">
       <use xlink:href="#DejaVuSans-36"/>
       <use xlink:href="#DejaVuSans-30" transform="translate(63.623047 0)"/>
       <use xlink:href="#DejaVuSans-30" transform="translate(127.246094 0)"/>
      </g>
     </g>
    </g>
    <g id="text_17">
     <!-- [counts] -->
     <g transform="translate(14.798438 138.6925) rotate(-90) scale(0.1 -0.1)">
      <defs>
       <path id="DejaVuSans-63" d="M 3122 3366 
L 3122 2828 
Q 2878 2963 2633 3030 
Q 2388 3097 2138 3097 
Q 1578 3097 1268 2742 
Q 959 2388 959 1747 
Q 959 1106 1268 751 
Q 1578 397 2138 397 
Q 2388 397 2633 464 
Q 2878 531 3122 666 
L 3122 134 
Q 2881 22 2623 -34 
Q 2366 -91 2075 -91 
Q 1284 -91 818 406 
Q 353 903 353 1747 
Q 353 2603 823 3093 
Q 1294 3584 2113 3584 
Q 2378 3584 2631 3529 
Q 2884 3475 3122 3366 
z
" transform="scale(0.015625)"/>
       <path id="DejaVuSans-75" d="M 544 1381 
L 544 3500 
L 1119 3500 
L 1119 1403 
Q 1119 906 1312 657 
Q 1506 409 1894 409 
Q 2359 409 2629 706 
Q 2900 1003 2900 1516 
L 2900 3500 
L 3475 3500 
L 3475 0 
L 2900 0 
L 2900 538 
Q 2691 219 2414 64 
Q 2138 -91 1772 -91 
Q 1169 -91 856 284 
Q 544 659 544 1381 
z
M 1991 3584 
L 1991 3584 
z
" transform="scale(0.015625)"/>
      </defs>
      <use xlink:href="#DejaVuSans-5b"/>
      <use xlink:href="#DejaVuSans-63" transform="translate(39.013672 0)"/>
      <use xlink:href="#DejaVuSans-6f" transform="translate(93.994141 0)"/>
      <use xlink:href="#DejaVuSans-75" transform="translate(155.175781 0)"/>
      <use xlink:href="#DejaVuSans-6e" transform="translate(218.554688 0)"/>
      <use xlink:href="#DejaVuSans-74" transform="translate(281.933594 0)"/>
      <use xlink:href="#DejaVuSans-73" transform="translate(321.142578 0)"/>
      <use xlink:href="#DejaVuSans-5d" transform="translate(373.242188 0)"/>
     </g>
    </g>
   </g>
   <g id="line2d_16">
    <path d="M 62.183807 127.640067 
L 63.198352 127.640067 
L 63.198352 130.659035 
L 64.212898 130.659035 
L 64.212898 120.595807 
L 65.227443 120.595807 
L 65.227443 132.671681 
L 66.241989 132.671681 
L 66.241989 128.98183 
L 67.256534 128.98183 
L 67.256534 125.962862 
L 68.27108 125.962862 
L 68.27108 120.931248 
L 69.285625 120.931248 
L 69.285625 138.374176 
L 70.30017 138.374176 
L 70.30017 130.659035 
L 71.314716 130.659035 
L 71.314716 138.709617 
L 72.329261 138.709617 
L 72.329261 132.33624 
L 73.343807 132.33624 
L 73.343807 143.070349 
L 74.358352 143.070349 
L 74.358352 132.33624 
L 75.372898 132.33624 
L 75.372898 133.342562 
L 76.387443 133.342562 
L 76.387443 143.070349 
L 77.401989 143.070349 
L 77.401989 148.772845 
L 78.416534 148.772845 
L 78.416534 145.418436 
L 79.43108 145.418436 
L 79.43108 139.71594 
L 80.445625 139.71594 
L 80.445625 147.095641 
L 81.46017 147.095641 
L 81.46017 140.722263 
L 82.474716 140.722263 
L 82.474716 144.076672 
L 83.489261 144.076672 
L 83.489261 138.709617 
L 84.503807 138.709617 
L 84.503807 144.076672 
L 85.518352 144.076672 
L 85.518352 156.152546 
L 86.532898 156.152546 
L 86.532898 146.424759 
L 87.547443 146.424759 
L 87.547443 149.779168 
L 88.561989 149.779168 
L 88.561989 158.165191 
L 89.576534 158.165191 
L 89.576534 162.190483 
L 90.59108 162.190483 
L 90.59108 155.481664 
L 91.605625 155.481664 
L 91.605625 153.469018 
L 92.62017 153.469018 
L 92.62017 167.892978 
L 93.634716 167.892978 
L 93.634716 160.848719 
L 94.649261 160.848719 
L 94.649261 156.823428 
L 95.663807 156.823428 
L 95.663807 166.215774 
L 96.678352 166.215774 
L 96.678352 169.570183 
L 97.692898 169.570183 
L 97.692898 170.911947 
L 98.707443 170.911947 
L 98.707443 168.228419 
L 99.721989 168.228419 
L 99.721989 170.911947 
L 100.736534 170.911947 
L 100.736534 174.601797 
L 101.75108 174.601797 
L 101.75108 176.614443 
L 102.765625 176.614443 
L 102.765625 176.279002 
L 103.78017 176.279002 
L 103.78017 172.589151 
L 104.794716 172.589151 
L 104.794716 174.601797 
L 105.809261 174.601797 
L 105.809261 178.962529 
L 106.823807 178.962529 
L 106.823807 187.348552 
L 107.838352 187.348552 
L 107.838352 187.013111 
L 108.852898 187.013111 
L 108.852898 185.671348 
L 109.867443 185.671348 
L 109.867443 192.715607 
L 110.881989 192.715607 
L 110.881989 191.038403 
L 111.896534 191.038403 
L 111.896534 195.734576 
L 112.91108 195.734576 
L 112.91108 199.424426 
L 113.925625 199.424426 
L 113.925625 196.405458 
L 114.94017 196.405458 
L 114.94017 200.430749 
L 115.954716 200.430749 
L 115.954716 205.797804 
L 116.969261 205.797804 
L 116.969261 204.45604 
L 117.983807 204.45604 
L 117.983807 205.462363 
L 118.998352 205.462363 
L 118.998352 208.481331 
L 120.012898 208.481331 
L 120.012898 205.126922 
L 121.027443 205.126922 
L 121.027443 210.829418 
L 122.041989 210.829418 
L 122.041989 209.823095 
L 123.056534 209.823095 
L 123.056534 210.493977 
L 124.07108 210.493977 
L 124.07108 212.506622 
L 125.085625 212.506622 
L 125.085625 214.183827 
L 126.10017 214.183827 
L 126.10017 216.867354 
L 127.114716 216.867354 
L 127.114716 217.202795 
L 128.129261 217.202795 
L 128.129261 215.525591 
L 129.143807 215.525591 
L 129.143807 216.867354 
L 130.158352 216.867354 
L 130.158352 217.202795 
L 131.172898 217.202795 
L 131.172898 216.196473 
L 132.187443 216.196473 
L 132.187443 218.209118 
L 135.23108 218.209118 
L 135.23108 218.88 
L 149.434716 218.88 
L 149.434716 215.525591 
L 150.449261 215.525591 
L 150.449261 213.177504 
L 151.463807 213.177504 
L 151.463807 208.816772 
L 152.478352 208.816772 
L 152.478352 201.437072 
L 153.492898 201.437072 
L 153.492898 197.747221 
L 154.507443 197.747221 
L 154.507443 194.392812 
L 155.521989 194.392812 
L 155.521989 187.013111 
L 156.536534 187.013111 
L 156.536534 179.29797 
L 157.55108 179.29797 
L 157.55108 180.304293 
L 158.565625 180.304293 
L 158.565625 169.570183 
L 159.58017 169.570183 
L 159.58017 166.886656 
L 160.594716 166.886656 
L 160.594716 158.500632 
L 161.609261 158.500632 
L 161.609261 148.772845 
L 162.623807 148.772845 
L 162.623807 153.804459 
L 163.638352 153.804459 
L 163.638352 139.71594 
L 164.652898 139.71594 
L 164.652898 129.988153 
L 165.667443 129.988153 
L 165.667443 136.02609 
L 166.681989 136.02609 
L 166.681989 116.905957 
L 167.696534 116.905957 
L 167.696534 117.91228 
L 168.71108 117.91228 
L 168.71108 113.216106 
L 169.725625 113.216106 
L 169.725625 108.519933 
L 170.74017 108.519933 
L 170.74017 106.171847 
L 171.754716 106.171847 
L 171.754716 103.488319 
L 172.769261 103.488319 
L 172.769261 104.830083 
L 173.783807 104.830083 
L 173.783807 97.114942 
L 174.798352 97.114942 
L 174.798352 87.722596 
L 175.812898 87.722596 
L 175.812898 88.058037 
L 177.841989 88.058037 
L 177.841989 94.095973 
L 178.856534 94.095973 
L 178.856534 73.969517 
L 179.87108 73.969517 
L 179.87108 72.627754 
L 180.885625 72.627754 
L 180.885625 61.558203 
L 181.90017 61.558203 
L 181.90017 69.608785 
L 182.914716 69.608785 
L 182.914716 75.311281 
L 183.929261 75.311281 
L 183.929261 68.267022 
L 184.943807 68.267022 
L 184.943807 43.779834 
L 185.958352 43.779834 
L 185.958352 31.368519 
L 186.972898 31.368519 
L 186.972898 59.210116 
L 187.987443 59.210116 
L 187.987443 46.463361 
L 189.001989 46.463361 
L 189.001989 37.406456 
L 190.016534 37.406456 
L 190.016534 36.400133 
L 191.03108 36.400133 
L 191.03108 47.805125 
L 192.045625 47.805125 
L 192.045625 37.071015 
L 193.06017 37.071015 
L 193.06017 34.387488 
L 194.074716 34.387488 
L 194.074716 42.773511 
L 195.089261 42.773511 
L 195.089261 36.400133 
L 196.103807 36.400133 
L 196.103807 29.355874 
L 197.118352 29.355874 
L 197.118352 19.292646 
L 198.132898 19.292646 
L 198.132898 47.469684 
L 200.161989 47.469684 
L 200.161989 26.672346 
L 201.176534 26.672346 
L 201.176534 45.792479 
L 202.19108 45.792479 
L 202.19108 49.81777 
L 203.205625 49.81777 
L 203.205625 39.083661 
L 204.22017 39.083661 
L 204.22017 56.191148 
L 205.234716 56.191148 
L 205.234716 51.159534 
L 206.249261 51.159534 
L 206.249261 46.12792 
L 207.263807 46.12792 
L 207.263807 50.824093 
L 208.278352 50.824093 
L 208.278352 63.570849 
L 209.292898 63.570849 
L 209.292898 77.323927 
L 210.307443 77.323927 
L 210.307443 57.868353 
L 211.321989 57.868353 
L 211.321989 68.602463 
L 212.336534 68.602463 
L 212.336534 64.912612 
L 213.35108 64.912612 
L 213.35108 68.267022 
L 214.365625 68.267022 
L 214.365625 62.899967 
L 216.394716 62.899967 
L 216.394716 61.222762 
L 217.409261 61.222762 
L 217.409261 72.292313 
L 218.423807 72.292313 
L 218.423807 64.577171 
L 219.438352 64.577171 
L 219.438352 71.956872 
L 220.452898 71.956872 
L 220.452898 65.918935 
L 221.467443 65.918935 
L 221.467443 64.24173 
L 222.481989 64.24173 
L 222.481989 74.640399 
L 223.496534 74.640399 
L 223.496534 58.539235 
L 224.51108 58.539235 
L 224.51108 70.615108 
L 225.525625 70.615108 
L 225.525625 69.944226 
L 226.54017 69.944226 
L 226.54017 61.893644 
L 227.554716 61.893644 
L 227.554716 79.672013 
L 228.569261 79.672013 
L 228.569261 75.982163 
L 229.583807 75.982163 
L 229.583807 86.380832 
L 230.598352 86.380832 
L 230.598352 84.032745 
L 231.612898 84.032745 
L 231.612898 71.28599 
L 232.627443 71.28599 
L 232.627443 84.368186 
L 233.641989 84.368186 
L 233.641989 72.627754 
L 234.656534 72.627754 
L 234.656534 87.387155 
L 235.67108 87.387155 
L 235.67108 70.950549 
L 236.685625 70.950549 
L 236.685625 79.336572 
L 237.70017 79.336572 
L 237.70017 72.292313 
L 238.714716 72.292313 
L 238.714716 66.254376 
L 239.729261 66.254376 
L 239.729261 88.393478 
L 240.743807 88.393478 
L 240.743807 83.697304 
L 241.758352 83.697304 
L 241.758352 86.716273 
L 242.772898 86.716273 
L 242.772898 79.672013 
L 243.787443 79.672013 
L 243.787443 89.064359 
L 245.816534 89.064359 
L 245.816534 84.703627 
L 246.83108 84.703627 
L 246.83108 85.039068 
L 247.845625 85.039068 
L 247.845625 90.070682 
L 248.86017 90.070682 
L 248.86017 98.792146 
L 249.874716 98.792146 
L 249.874716 90.741564 
L 250.889261 90.741564 
L 250.889261 91.077005 
L 251.903807 91.077005 
L 251.903807 96.108619 
L 252.918352 96.108619 
L 252.918352 106.842729 
L 253.932898 106.842729 
L 253.932898 96.779501 
L 254.947443 96.779501 
L 254.947443 103.152879 
L 255.961989 103.152879 
L 255.961989 113.551547 
L 256.976534 113.551547 
L 256.976534 112.880666 
L 257.99108 112.880666 
L 257.99108 118.583161 
L 259.005625 118.583161 
L 259.005625 115.564193 
L 260.02017 115.564193 
L 260.02017 129.988153 
L 261.034716 129.988153 
L 261.034716 112.880666 
L 262.049261 112.880666 
L 262.049261 133.007121 
L 263.063807 133.007121 
L 263.063807 134.013444 
L 264.078352 134.013444 
L 264.078352 133.678003 
L 265.092898 133.678003 
L 265.092898 153.133577 
L 266.107443 153.133577 
L 266.107443 143.070349 
L 267.121989 143.070349 
L 267.121989 153.133577 
L 268.136534 153.133577 
L 268.136534 154.475341 
L 269.15108 154.475341 
L 269.15108 162.861364 
L 270.165625 162.861364 
L 270.165625 170.241065 
L 271.18017 170.241065 
L 271.18017 172.25371 
L 272.194716 172.25371 
L 272.194716 182.652379 
L 273.209261 182.652379 
L 273.209261 179.633411 
L 274.223807 179.633411 
L 274.223807 192.044725 
L 275.238352 192.044725 
L 275.238352 193.386489 
L 276.252898 193.386489 
L 276.252898 194.392812 
L 277.267443 194.392812 
L 277.267443 199.088985 
L 278.281989 199.088985 
L 278.281989 202.443394 
L 279.296534 202.443394 
L 279.296534 203.449717 
L 280.31108 203.449717 
L 280.31108 206.468686 
L 281.325625 206.468686 
L 281.325625 209.823095 
L 282.34017 209.823095 
L 282.34017 211.164859 
L 283.354716 211.164859 
L 283.354716 214.854709 
L 284.369261 214.854709 
L 284.369261 216.531913 
L 285.383807 216.531913 
L 285.383807 216.867354 
L 286.398352 216.867354 
L 286.398352 218.209118 
L 287.412898 218.209118 
L 287.412898 218.88 
L 297.558352 218.88 
L 297.558352 218.544559 
L 298.572898 218.544559 
L 298.572898 214.183827 
L 299.587443 214.183827 
L 299.587443 207.810449 
L 300.601989 207.810449 
L 300.601989 204.120599 
L 301.616534 204.120599 
L 301.616534 203.785158 
L 302.63108 203.785158 
L 302.63108 201.772512 
L 303.645625 201.772512 
L 303.645625 193.051048 
L 304.66017 193.051048 
L 304.66017 185.335907 
L 306.689261 185.335907 
L 306.689261 179.29797 
L 307.703807 179.29797 
L 307.703807 175.943561 
L 308.718352 175.943561 
L 308.718352 169.234742 
L 309.732898 169.234742 
L 309.732898 173.260033 
L 310.747443 173.260033 
L 310.747443 175.60812 
L 311.761989 175.60812 
L 311.761989 165.544892 
L 312.776534 165.544892 
L 312.776534 167.557537 
L 313.79108 167.557537 
L 313.79108 151.791814 
L 314.805625 151.791814 
L 314.805625 148.772845 
L 315.82017 148.772845 
L 315.82017 145.082995 
L 316.834716 145.082995 
L 316.834716 146.424759 
L 317.849261 146.424759 
L 317.849261 142.399468 
L 318.863807 142.399468 
L 318.863807 150.45005 
L 319.878352 150.45005 
L 319.878352 138.374176 
L 320.892898 138.374176 
L 320.892898 137.367854 
L 321.907443 137.367854 
L 321.907443 130.323594 
L 322.921989 130.323594 
L 322.921989 138.038735 
L 323.936534 138.038735 
L 323.936534 124.621098 
L 324.95108 124.621098 
L 324.95108 127.304626 
L 326.98017 127.304626 
L 326.98017 128.310948 
L 327.994716 128.310948 
L 327.994716 124.285657 
L 329.009261 124.285657 
L 329.009261 120.260366 
L 330.023807 120.260366 
L 330.023807 113.551547 
L 331.038352 113.551547 
L 331.038352 113.216106 
L 332.052898 113.216106 
L 332.052898 116.905957 
L 333.067443 116.905957 
L 333.067443 112.209784 
L 334.081989 112.209784 
L 334.081989 112.545225 
L 335.096534 112.545225 
L 335.096534 115.899634 
L 336.11108 115.899634 
L 336.11108 102.817438 
L 337.125625 102.817438 
L 337.125625 110.197138 
L 338.14017 110.197138 
L 338.14017 82.355541 
L 339.154716 82.355541 
L 339.154716 94.766855 
L 340.169261 94.766855 
L 340.169261 97.114942 
L 341.183807 97.114942 
L 341.183807 97.450383 
L 342.198352 97.450383 
L 342.198352 95.437737 
L 343.212898 95.437737 
L 343.212898 87.387155 
L 344.227443 87.387155 
L 344.227443 97.450383 
L 345.241989 97.450383 
L 345.241989 106.842729 
L 346.256534 106.842729 
L 346.256534 89.064359 
L 347.27108 89.064359 
L 347.27108 95.773178 
L 348.285625 95.773178 
L 348.285625 102.146556 
L 349.30017 102.146556 
L 349.30017 106.842729 
L 350.314716 106.842729 
L 350.314716 107.513611 
L 351.329261 107.513611 
L 351.329261 98.456705 
L 352.343807 98.456705 
L 352.343807 106.507288 
L 353.358352 106.507288 
L 353.358352 115.228752 
L 355.387443 115.228752 
L 355.387443 119.254043 
L 356.401989 119.254043 
L 356.401989 107.17817 
L 357.416534 107.17817 
L 357.416534 114.222429 
L 358.43108 114.222429 
L 358.43108 119.924925 
L 359.445625 119.924925 
L 359.445625 112.209784 
L 360.46017 112.209784 
L 360.46017 115.228752 
L 361.474716 115.228752 
L 361.474716 105.500965 
L 362.489261 105.500965 
L 362.489261 120.595807 
L 363.503807 120.595807 
L 363.503807 123.279334 
L 364.518352 123.279334 
L 364.518352 114.893311 
L 365.532898 114.893311 
L 365.532898 121.266689 
L 366.547443 121.266689 
L 366.547443 121.266689 
" clip-path="url(#pe7d8d07fdf)" style="fill: none; stroke: #1f77b4; stroke-width: 1.5; stroke-linecap: square"/>
   </g>
   <g id="line2d_17">
    <path d="M 62.183807 127.304626 
L 63.198352 127.304626 
L 63.198352 135.019767 
L 64.212898 135.019767 
L 64.212898 132.33624 
L 65.227443 132.33624 
L 65.227443 133.007121 
L 66.241989 133.007121 
L 66.241989 135.690649 
L 67.256534 135.690649 
L 67.256534 130.994476 
L 68.27108 130.994476 
L 68.27108 132.671681 
L 69.285625 132.671681 
L 69.285625 136.02609 
L 70.30017 136.02609 
L 70.30017 147.095641 
L 71.314716 147.095641 
L 71.314716 151.456373 
L 72.329261 151.456373 
L 72.329261 136.696972 
L 73.343807 136.696972 
L 73.343807 137.703295 
L 74.358352 137.703295 
L 74.358352 143.070349 
L 75.372898 143.070349 
L 75.372898 141.393145 
L 76.387443 141.393145 
L 76.387443 140.051381 
L 77.401989 140.051381 
L 77.401989 137.703295 
L 78.416534 137.703295 
L 78.416534 154.1399 
L 79.43108 154.1399 
L 79.43108 146.424759 
L 80.445625 146.424759 
L 80.445625 148.772845 
L 81.46017 148.772845 
L 81.46017 156.487987 
L 82.474716 156.487987 
L 82.474716 159.842396 
L 83.489261 159.842396 
L 83.489261 153.469018 
L 84.503807 153.469018 
L 84.503807 152.462696 
L 85.518352 152.462696 
L 85.518352 168.228419 
L 86.532898 168.228419 
L 86.532898 158.500632 
L 87.547443 158.500632 
L 87.547443 157.494309 
L 88.561989 157.494309 
L 88.561989 162.861364 
L 89.576534 162.861364 
L 89.576534 169.234742 
L 91.605625 169.234742 
L 91.605625 167.557537 
L 92.62017 167.557537 
L 92.62017 174.601797 
L 93.634716 174.601797 
L 93.634716 169.570183 
L 94.649261 169.570183 
L 94.649261 177.620765 
L 95.663807 177.620765 
L 95.663807 169.570183 
L 96.678352 169.570183 
L 96.678352 177.956206 
L 97.692898 177.956206 
L 97.692898 175.60812 
L 98.707443 175.60812 
L 98.707443 179.968852 
L 99.721989 179.968852 
L 99.721989 188.690316 
L 100.736534 188.690316 
L 100.736534 181.646057 
L 101.75108 181.646057 
L 101.75108 190.367521 
L 102.765625 190.367521 
L 102.765625 187.348552 
L 103.78017 187.348552 
L 103.78017 195.063694 
L 104.794716 195.063694 
L 104.794716 197.41178 
L 105.809261 197.41178 
L 105.809261 197.747221 
L 106.823807 197.747221 
L 106.823807 198.753544 
L 107.838352 198.753544 
L 107.838352 200.430749 
L 108.852898 200.430749 
L 108.852898 206.468686 
L 109.867443 206.468686 
L 109.867443 205.462363 
L 110.881989 205.462363 
L 110.881989 207.475008 
L 111.896534 207.475008 
L 111.896534 204.791481 
L 112.91108 204.791481 
L 112.91108 209.823095 
L 113.925625 209.823095 
L 113.925625 208.481331 
L 114.94017 208.481331 
L 114.94017 211.164859 
L 115.954716 211.164859 
L 115.954716 211.83574 
L 116.969261 211.83574 
L 116.969261 213.848386 
L 117.983807 213.848386 
L 117.983807 216.196473 
L 118.998352 216.196473 
L 118.998352 217.202795 
L 120.012898 217.202795 
L 120.012898 215.525591 
L 121.027443 215.525591 
L 121.027443 216.867354 
L 123.056534 216.867354 
L 123.056534 216.196473 
L 124.07108 216.196473 
L 124.07108 218.209118 
L 127.114716 218.209118 
L 127.114716 218.88 
L 147.405625 218.88 
L 147.405625 218.209118 
L 148.42017 218.209118 
L 148.42017 213.177504 
L 149.434716 213.177504 
L 149.434716 209.823095 
L 150.449261 209.823095 
L 150.449261 205.797804 
L 151.463807 205.797804 
L 151.463807 196.740899 
L 152.478352 196.740899 
L 152.478352 194.728253 
L 153.492898 194.728253 
L 153.492898 190.03208 
L 154.507443 190.03208 
L 154.507443 177.956206 
L 155.521989 177.956206 
L 155.521989 176.949884 
L 156.536534 176.949884 
L 156.536534 171.91827 
L 157.55108 171.91827 
L 157.55108 165.544892 
L 158.565625 165.544892 
L 158.565625 158.836073 
L 159.58017 158.836073 
L 159.58017 145.418436 
L 160.594716 145.418436 
L 160.594716 152.127255 
L 161.609261 152.127255 
L 161.609261 139.380499 
L 162.623807 139.380499 
L 162.623807 130.323594 
L 163.638352 130.323594 
L 163.638352 133.678003 
L 164.652898 133.678003 
L 164.652898 114.893311 
L 165.667443 114.893311 
L 165.667443 114.55787 
L 166.681989 114.55787 
L 166.681989 111.203461 
L 167.696534 111.203461 
L 167.696534 106.171847 
L 168.71108 106.171847 
L 168.71108 102.146556 
L 169.725625 102.146556 
L 169.725625 99.127587 
L 171.754716 99.127587 
L 171.754716 95.437737 
L 172.769261 95.437737 
L 172.769261 83.026423 
L 173.783807 83.026423 
L 173.783807 87.387155 
L 174.798352 87.387155 
L 174.798352 87.051714 
L 175.812898 87.051714 
L 175.812898 81.349218 
L 176.827443 81.349218 
L 176.827443 67.260699 
L 177.841989 67.260699 
L 177.841989 65.583494 
L 178.856534 65.583494 
L 178.856534 64.24173 
L 179.87108 64.24173 
L 179.87108 64.912612 
L 180.885625 64.912612 
L 180.885625 71.621431 
L 181.90017 71.621431 
L 181.90017 60.887321 
L 182.914716 60.887321 
L 182.914716 18.957205 
L 183.929261 18.957205 
L 183.929261 52.165857 
L 184.943807 52.165857 
L 184.943807 46.463361 
L 185.958352 46.463361 
L 185.958352 34.722928 
L 186.972898 34.722928 
L 186.972898 29.355874 
L 187.987443 29.355874 
L 187.987443 38.412779 
L 189.001989 38.412779 
L 189.001989 39.754542 
L 190.016534 39.754542 
L 190.016534 36.735574 
L 191.03108 36.735574 
L 191.03108 27.007787 
L 192.045625 27.007787 
L 192.045625 38.077338 
L 193.06017 38.077338 
L 193.06017 26.001464 
L 194.074716 26.001464 
L 194.074716 17.28 
L 195.089261 17.28 
L 195.089261 39.083661 
L 196.103807 39.083661 
L 196.103807 35.058369 
L 197.118352 35.058369 
L 197.118352 33.381165 
L 198.132898 33.381165 
L 198.132898 31.368519 
L 199.147443 31.368519 
L 199.147443 48.140566 
L 200.161989 48.140566 
L 200.161989 36.735574 
L 201.176534 36.735574 
L 201.176534 55.184825 
L 202.19108 55.184825 
L 202.19108 47.134243 
L 203.205625 47.134243 
L 203.205625 41.767188 
L 204.22017 41.767188 
L 204.22017 45.121597 
L 205.234716 45.121597 
L 205.234716 57.868353 
L 206.249261 57.868353 
L 206.249261 75.311281 
L 207.263807 75.311281 
L 207.263807 53.507621 
L 208.278352 53.507621 
L 208.278352 68.267022 
L 209.292898 68.267022 
L 209.292898 58.539235 
L 210.307443 58.539235 
L 210.307443 66.254376 
L 211.321989 66.254376 
L 211.321989 58.874676 
L 212.336534 58.874676 
L 212.336534 57.532912 
L 213.35108 57.532912 
L 213.35108 59.880998 
L 214.365625 59.880998 
L 214.365625 68.602463 
L 215.38017 68.602463 
L 215.38017 64.577171 
L 216.394716 64.577171 
L 216.394716 60.887321 
L 217.409261 60.887321 
L 217.409261 65.583494 
L 218.423807 65.583494 
L 218.423807 67.59614 
L 219.438352 67.59614 
L 219.438352 60.887321 
L 220.452898 60.887321 
L 220.452898 61.893644 
L 221.467443 61.893644 
L 221.467443 73.969517 
L 222.481989 73.969517 
L 222.481989 57.532912 
L 223.496534 57.532912 
L 223.496534 65.918935 
L 224.51108 65.918935 
L 224.51108 74.640399 
L 225.525625 74.640399 
L 225.525625 72.292313 
L 226.54017 72.292313 
L 226.54017 82.355541 
L 227.554716 82.355541 
L 227.554716 75.982163 
L 228.569261 75.982163 
L 228.569261 74.640399 
L 229.583807 74.640399 
L 229.583807 73.634077 
L 230.598352 73.634077 
L 230.598352 68.602463 
L 231.612898 68.602463 
L 231.612898 87.722596 
L 232.627443 87.722596 
L 232.627443 70.279667 
L 233.641989 70.279667 
L 233.641989 69.608785 
L 234.656534 69.608785 
L 234.656534 58.539235 
L 235.67108 58.539235 
L 235.67108 82.355541 
L 236.685625 82.355541 
L 236.685625 83.026423 
L 237.70017 83.026423 
L 237.70017 84.368186 
L 238.714716 84.368186 
L 238.714716 76.317604 
L 239.729261 76.317604 
L 239.729261 83.361864 
L 240.743807 83.361864 
L 240.743807 90.070682 
L 241.758352 90.070682 
L 241.758352 81.349218 
L 242.772898 81.349218 
L 242.772898 77.659368 
L 243.787443 77.659368 
L 243.787443 88.728918 
L 244.801989 88.728918 
L 244.801989 94.766855 
L 245.816534 94.766855 
L 245.816534 86.380832 
L 246.83108 86.380832 
L 246.83108 90.070682 
L 247.845625 90.070682 
L 247.845625 93.089651 
L 248.86017 93.089651 
L 248.86017 104.159201 
L 249.874716 104.159201 
L 249.874716 93.760532 
L 250.889261 93.760532 
L 250.889261 102.817438 
L 251.903807 102.817438 
L 251.903807 107.513611 
L 252.918352 107.513611 
L 252.918352 113.886988 
L 253.932898 113.886988 
L 253.932898 108.519933 
L 254.947443 108.519933 
L 254.947443 123.950216 
L 255.961989 123.950216 
L 255.961989 117.241398 
L 256.976534 117.241398 
L 256.976534 121.266689 
L 257.99108 121.266689 
L 257.99108 130.323594 
L 259.005625 130.323594 
L 259.005625 130.994476 
L 260.02017 130.994476 
L 260.02017 138.374176 
L 261.034716 138.374176 
L 261.034716 152.798136 
L 262.049261 152.798136 
L 262.049261 136.696972 
L 263.063807 136.696972 
L 263.063807 151.456373 
L 264.078352 151.456373 
L 264.078352 158.165191 
L 265.092898 158.165191 
L 265.092898 166.215774 
L 266.107443 166.215774 
L 266.107443 167.557537 
L 267.121989 167.557537 
L 267.121989 178.627088 
L 268.136534 178.627088 
L 268.136534 180.639734 
L 269.15108 180.639734 
L 269.15108 184.329584 
L 270.165625 184.329584 
L 270.165625 192.380166 
L 271.18017 192.380166 
L 271.18017 193.72193 
L 272.194716 193.72193 
L 272.194716 194.728253 
L 273.209261 194.728253 
L 273.209261 203.785158 
L 274.223807 203.785158 
L 274.223807 200.76619 
L 275.238352 200.76619 
L 275.238352 205.797804 
L 276.252898 205.797804 
L 276.252898 206.804126 
L 277.267443 206.804126 
L 277.267443 210.493977 
L 278.281989 210.493977 
L 278.281989 215.19015 
L 280.31108 215.19015 
L 280.31108 216.867354 
L 281.325625 216.867354 
L 281.325625 218.209118 
L 282.34017 218.209118 
L 282.34017 218.88 
L 293.50017 218.88 
L 293.50017 214.854709 
L 294.514716 214.854709 
L 294.514716 209.152213 
L 295.529261 209.152213 
L 295.529261 204.120599 
L 296.543807 204.120599 
L 296.543807 203.785158 
L 297.558352 203.785158 
L 297.558352 201.772512 
L 298.572898 201.772512 
L 298.572898 194.057371 
L 299.587443 194.057371 
L 299.587443 185.000466 
L 300.601989 185.000466 
L 300.601989 183.658702 
L 301.616534 183.658702 
L 301.616534 178.962529 
L 302.63108 178.962529 
L 302.63108 174.601797 
L 303.645625 174.601797 
L 303.645625 167.557537 
L 304.66017 167.557537 
L 304.66017 173.260033 
L 306.689261 173.260033 
L 306.689261 165.544892 
L 307.703807 165.544892 
L 307.703807 163.196805 
L 308.718352 163.196805 
L 308.718352 151.456373 
L 309.732898 151.456373 
L 309.732898 142.399468 
L 310.747443 142.399468 
L 310.747443 144.747554 
L 311.761989 144.747554 
L 311.761989 146.089318 
L 312.776534 146.089318 
L 312.776534 141.728586 
L 313.79108 141.728586 
L 313.79108 146.089318 
L 314.805625 146.089318 
L 314.805625 137.367854 
L 315.82017 137.367854 
L 315.82017 126.633744 
L 316.834716 126.633744 
L 316.834716 135.690649 
L 317.849261 135.690649 
L 317.849261 130.994476 
L 318.863807 130.994476 
L 318.863807 125.29198 
L 319.878352 125.29198 
L 319.878352 120.931248 
L 320.892898 120.931248 
L 320.892898 129.652712 
L 321.907443 129.652712 
L 321.907443 122.273012 
L 322.921989 122.273012 
L 322.921989 119.589484 
L 323.936534 119.589484 
L 323.936534 113.886988 
L 324.95108 113.886988 
L 324.95108 114.893311 
L 325.965625 114.893311 
L 325.965625 104.494642 
L 326.98017 104.494642 
L 326.98017 116.235075 
L 327.994716 116.235075 
L 327.994716 110.197138 
L 329.009261 110.197138 
L 329.009261 113.216106 
L 330.023807 113.216106 
L 330.023807 101.475674 
L 331.038352 101.475674 
L 331.038352 106.842729 
L 332.052898 106.842729 
L 332.052898 87.051714 
L 333.067443 87.051714 
L 333.067443 90.741564 
L 334.081989 90.741564 
L 334.081989 94.095973 
L 335.096534 94.095973 
L 335.096534 89.735241 
L 336.11108 89.735241 
L 336.11108 92.75421 
L 337.125625 92.75421 
L 337.125625 86.380832 
L 338.14017 86.380832 
L 338.14017 95.773178 
L 339.154716 95.773178 
L 339.154716 96.779501 
L 340.169261 96.779501 
L 340.169261 91.412446 
L 341.183807 91.412446 
L 341.183807 90.406123 
L 342.198352 90.406123 
L 342.198352 101.475674 
L 343.212898 101.475674 
L 343.212898 104.159201 
L 345.241989 104.159201 
L 345.241989 95.773178 
L 346.256534 95.773178 
L 346.256534 106.171847 
L 347.27108 106.171847 
L 347.27108 110.197138 
L 348.285625 110.197138 
L 348.285625 115.228752 
L 349.30017 115.228752 
L 349.30017 113.216106 
L 350.314716 113.216106 
L 350.314716 104.830083 
L 351.329261 104.830083 
L 351.329261 110.532579 
L 352.343807 110.532579 
L 352.343807 118.24772 
L 353.358352 118.24772 
L 353.358352 110.197138 
L 354.372898 110.197138 
L 354.372898 119.254043 
L 355.387443 119.254043 
L 355.387443 105.836406 
L 356.401989 105.836406 
L 356.401989 116.235075 
L 357.416534 116.235075 
L 357.416534 114.55787 
L 358.43108 114.55787 
L 358.43108 113.551547 
L 359.445625 113.551547 
L 359.445625 127.640067 
L 360.46017 127.640067 
L 360.46017 121.937571 
L 361.474716 121.937571 
L 361.474716 127.304626 
L 362.489261 127.304626 
L 362.489261 119.589484 
L 363.503807 119.589484 
L 363.503807 130.994476 
L 364.518352 130.994476 
L 364.518352 123.950216 
L 365.532898 123.950216 
L 365.532898 121.266689 
L 366.547443 121.266689 
L 366.547443 121.266689 
" clip-path="url(#pe7d8d07fdf)" style="fill: none; stroke: #ff7f0e; stroke-width: 1.5; stroke-linecap: square"/>
   </g>
   <g id="patch_3">
    <path d="M 46.965625 228.96 
L 46.965625 7.2 
" style="fill: none; stroke: #000000; stroke-width: 0.8; stroke-linejoin: miter; stroke-linecap: square"/>
   </g>
   <g id="patch_4">
    <path d="M 381.765625 228.96 
L 381.765625 7.2 
" style="fill: none; stroke: #000000; stroke-width: 0.8; stroke-linejoin: miter; stroke-linecap: square"/>
   </g>
   <g id="patch_5">
    <path d="M 46.965625 228.96 
L 381.765625 228.96 
" style="fill: none; stroke: #000000; stroke-width: 0.8; stroke-linejoin: miter; stroke-linecap: square"/>
   </g>
   <g id="patch_6">
    <path d="M 46.965625 7.2 
L 381.765625 7.2 
" style="fill: none; stroke: #000000; stroke-width: 0.8; stroke-linejoin: miter; stroke-linecap: square"/>
   </g>
   <g id="legend_1">
    <g id="patch_7">
     <path d="M 246.957813 45.1125 
L 374.765625 45.1125 
Q 376.765625 45.1125 376.765625 43.1125 
L 376.765625 14.2 
Q 376.765625 12.2 374.765625 12.2 
L 246.957813 12.2 
Q 244.957813 12.2 244.957813 14.2 
L 244.957813 43.1125 
Q 244.957813 45.1125 246.957813 45.1125 
z
" style="fill: #ffffff; opacity: 0.8; stroke: #cccccc; stroke-linejoin: miter"/>
    </g>
    <g id="line2d_18">
     <path d="M 248.957813 20.298437 
L 248.957813 20.298437 
L 258.957813 20.298437 
L 258.957813 20.298437 
L 268.957813 20.298437 
" style="fill: none; stroke: #1f77b4; stroke-width: 1.5; stroke-linecap: square"/>
    </g>
    <g id="text_18">
     <!-- detector_number:0 -->
     <g transform="translate(276.957813 23.798437) scale(0.1 -0.1)">
      <defs>
       <path id="DejaVuSans-64" d="M 2906 2969 
L 2906 4863 
L 3481 4863 
L 3481 0 
L 2906 0 
L 2906 525 
Q 2725 213 2448 61 
Q 2172 -91 1784 -91 
Q 1150 -91 751 415 
Q 353 922 353 1747 
Q 353 2572 751 3078 
Q 1150 3584 1784 3584 
Q 2172 3584 2448 3432 
Q 2725 3281 2906 2969 
z
M 947 1747 
Q 947 1113 1208 752 
Q 1469 391 1925 391 
Q 2381 391 2643 752 
Q 2906 1113 2906 1747 
Q 2906 2381 2643 2742 
Q 2381 3103 1925 3103 
Q 1469 3103 1208 2742 
Q 947 2381 947 1747 
z
" transform="scale(0.015625)"/>
       <path id="DejaVuSans-72" d="M 2631 2963 
Q 2534 3019 2420 3045 
Q 2306 3072 2169 3072 
Q 1681 3072 1420 2755 
Q 1159 2438 1159 1844 
L 1159 0 
L 581 0 
L 581 3500 
L 1159 3500 
L 1159 2956 
Q 1341 3275 1631 3429 
Q 1922 3584 2338 3584 
Q 2397 3584 2469 3576 
Q 2541 3569 2628 3553 
L 2631 2963 
z
" transform="scale(0.015625)"/>
       <path id="DejaVuSans-62" d="M 3116 1747 
Q 3116 2381 2855 2742 
Q 2594 3103 2138 3103 
Q 1681 3103 1420 2742 
Q 1159 2381 1159 1747 
Q 1159 1113 1420 752 
Q 1681 391 2138 391 
Q 2594 391 2855 752 
Q 3116 1113 3116 1747 
z
M 1159 2969 
Q 1341 3281 1617 3432 
Q 1894 3584 2278 3584 
Q 2916 3584 3314 3078 
Q 3713 2572 3713 1747 
Q 3713 922 3314 415 
Q 2916 -91 2278 -91 
Q 1894 -91 1617 61 
Q 1341 213 1159 525 
L 1159 0 
L 581 0 
L 581 4863 
L 1159 4863 
L 1159 2969 
z
" transform="scale(0.015625)"/>
       <path id="DejaVuSans-3a" d="M 750 794 
L 1409 794 
L 1409 0 
L 750 0 
L 750 794 
z
M 750 3309 
L 1409 3309 
L 1409 2516 
L 750 2516 
L 750 3309 
z
" transform="scale(0.015625)"/>
      </defs>
      <use xlink:href="#DejaVuSans-64"/>
      <use xlink:href="#DejaVuSans-65" transform="translate(63.476562 0)"/>
      <use xlink:href="#DejaVuSans-74" transform="translate(125 0)"/>
      <use xlink:href="#DejaVuSans-65" transform="translate(164.208984 0)"/>
      <use xlink:href="#DejaVuSans-63" transform="translate(225.732422 0)"/>
      <use xlink:href="#DejaVuSans-74" transform="translate(280.712891 0)"/>
      <use xlink:href="#DejaVuSans-6f" transform="translate(319.921875 0)"/>
      <use xlink:href="#DejaVuSans-72" transform="translate(381.103516 0)"/>
      <use xlink:href="#DejaVuSans-5f" transform="translate(422.216797 0)"/>
      <use xlink:href="#DejaVuSans-6e" transform="translate(472.216797 0)"/>
      <use xlink:href="#DejaVuSans-75" transform="translate(535.595703 0)"/>
      <use xlink:href="#DejaVuSans-6d" transform="translate(598.974609 0)"/>
      <use xlink:href="#DejaVuSans-62" transform="translate(696.386719 0)"/>
      <use xlink:href="#DejaVuSans-65" transform="translate(759.863281 0)"/>
      <use xlink:href="#DejaVuSans-72" transform="translate(821.386719 0)"/>
      <use xlink:href="#DejaVuSans-3a" transform="translate(860.75 0)"/>
      <use xlink:href="#DejaVuSans-30" transform="translate(894.441406 0)"/>
     </g>
    </g>
    <g id="line2d_19">
     <path d="M 248.957813 35.254687 
L 248.957813 35.254687 
L 258.957813 35.254687 
L 258.957813 35.254687 
L 268.957813 35.254687 
" style="fill: none; stroke: #ff7f0e; stroke-width: 1.5; stroke-linecap: square"/>
    </g>
    <g id="text_19">
     <!-- detector_number:1 -->
     <g transform="translate(276.957813 38.754687) scale(0.1 -0.1)">
      <use xlink:href="#DejaVuSans-64"/>
      <use xlink:href="#DejaVuSans-65" transform="translate(63.476562 0)"/>
      <use xlink:href="#DejaVuSans-74" transform="translate(125 0)"/>
      <use xlink:href="#DejaVuSans-65" transform="translate(164.208984 0)"/>
      <use xlink:href="#DejaVuSans-63" transform="translate(225.732422 0)"/>
      <use xlink:href="#DejaVuSans-74" transform="translate(280.712891 0)"/>
      <use xlink:href="#DejaVuSans-6f" transform="translate(319.921875 0)"/>
      <use xlink:href="#DejaVuSans-72" transform="translate(381.103516 0)"/>
      <use xlink:href="#DejaVuSans-5f" transform="translate(422.216797 0)"/>
      <use xlink:href="#DejaVuSans-6e" transform="translate(472.216797 0)"/>
      <use xlink:href="#DejaVuSans-75" transform="translate(535.595703 0)"/>
      <use xlink:href="#DejaVuSans-6d" transform="translate(598.974609 0)"/>
      <use xlink:href="#DejaVuSans-62" transform="translate(696.386719 0)"/>
      <use xlink:href="#DejaVuSans-65" transform="translate(759.863281 0)"/>
      <use xlink:href="#DejaVuSans-72" transform="translate(821.386719 0)"/>
      <use xlink:href="#DejaVuSans-3a" transform="translate(860.75 0)"/>
      <use xlink:href="#DejaVuSans-31" transform="translate(894.441406 0)"/>
     </g>
    </g>
   </g>
  </g>
 </g>
 <defs>
  <clipPath id="pe7d8d07fdf">
   <rect x="46.965625" y="7.2" width="334.8" height="221.76"/>
  </clipPath>
 </defs>
</svg>
