<?xml version="1.0" encoding="utf-8" standalone="no"?>
<!DOCTYPE svg PUBLIC "-//W3C//DTD SVG 1.1//EN"
  "http://www.w3.org/Graphics/SVG/1.1/DTD/svg11.dtd">
<svg xmlns:xlink="http://www.w3.org/1999/xlink" width="395.328125pt" height="266.794375pt" viewBox="0 0 395.328125 266.794375" xmlns="http://www.w3.org/2000/svg" version="1.1">
 <metadata>
  <rdf:RDF xmlns:dc="http://purl.org/dc/elements/1.1/" xmlns:cc="http://creativecommons.org/ns#" xmlns:rdf="http://www.w3.org/1999/02/22-rdf-syntax-ns#">
   <cc:Work>
    <dc:type rdf:resource="http://purl.org/dc/dcmitype/StillImage"/>
    <dc:date>2025-11-07T09:33:24.829240</dc:date>
    <dc:format>image/svg+xml</dc:format>
    <dc:creator>
     <cc:Agent>
      <dc:title>Matplotlib v3.10.7, https://matplotlib.org/</dc:title>
     </cc:Agent>
    </dc:creator>
   </cc:Work>
  </rdf:RDF>
 </metadata>
 <defs>
  <style type="text/css">*{stroke-linejoin: round; stroke-linecap: butt}</style>
 </defs>
 <g id="figure_1">
  <g id="patch_1">
   <path d="M 0 266.794375 
L 395.328125 266.794375 
L 395.328125 0 
L 0 0 
z
" style="fill: #ffffff"/>
  </g>
  <g id="axes_1">
   <g id="patch_2">
    <path d="M 53.328125 228.96 
L 388.128125 228.96 
L 388.128125 7.2 
L 53.328125 7.2 
z
" style="fill: #ffffff"/>
   </g>
   <g id="matplotlib.axis_1">
    <g id="xtick_1">
     <g id="line2d_1">
      <defs>
       <path id="md353a495d8" d="M 0 0 
L 0 3.5 
" style="stroke: #000000; stroke-width: 0.8"/>
      </defs>
      <g>
       <use xlink:href="#md353a495d8" x="94.359075" y="228.96" style="stroke: #000000; stroke-width: 0.8"/>
      </g>
     </g>
     <g id="text_1">
      <!-- 20000 -->
      <g transform="translate(78.452825 243.558437) scale(0.1 -0.1)">
       <defs>
        <path id="DejaVuSans-32" d="M 1228 531 
L 3431 531 
L 3431 0 
L 469 0 
L 469 531 
Q 828 903 1448 1529 
Q 2069 2156 2228 2338 
Q 2531 2678 2651 2914 
Q 2772 3150 2772 3378 
Q 2772 3750 2511 3984 
Q 2250 4219 1831 4219 
Q 1534 4219 1204 4116 
Q 875 4013 500 3803 
L 500 4441 
Q 881 4594 1212 4672 
Q 1544 4750 1819 4750 
Q 2544 4750 2975 4387 
Q 3406 4025 3406 3419 
Q 3406 3131 3298 2873 
Q 3191 2616 2906 2266 
Q 2828 2175 2409 1742 
Q 1991 1309 1228 531 
z
" transform="scale(0.015625)"/>
        <path id="DejaVuSans-30" d="M 2034 4250 
Q 1547 4250 1301 3770 
Q 1056 3291 1056 2328 
Q 1056 1369 1301 889 
Q 1547 409 2034 409 
Q 2525 409 2770 889 
Q 3016 1369 3016 2328 
Q 3016 3291 2770 3770 
Q 2525 4250 2034 4250 
z
M 2034 4750 
Q 2819 4750 3233 4129 
Q 3647 3509 3647 2328 
Q 3647 1150 3233 529 
Q 2819 -91 2034 -91 
Q 1250 -91 836 529 
Q 422 1150 422 2328 
Q 422 3509 836 4129 
Q 1250 4750 2034 4750 
z
" transform="scale(0.015625)"/>
       </defs>
       <use xlink:href="#DejaVuSans-32"/>
       <use xlink:href="#DejaVuSans-30" transform="translate(63.623047 0)"/>
       <use xlink:href="#DejaVuSans-30" transform="translate(127.246094 0)"/>
       <use xlink:href="#DejaVuSans-30" transform="translate(190.869141 0)"/>
       <use xlink:href="#DejaVuSans-30" transform="translate(254.492188 0)"/>
      </g>
     </g>
    </g>
    <g id="xtick_2">
     <g id="line2d_2">
      <g>
       <use xlink:href="#md353a495d8" x="159.965998" y="228.96" style="stroke: #000000; stroke-width: 0.8"/>
      </g>
     </g>
     <g id="text_2">
      <!-- 30000 -->
      <g transform="translate(144.059748 243.558437) scale(0.1 -0.1)">
       <defs>
        <path id="DejaVuSans-33" d="M 2597 2516 
Q 3050 2419 3304 2112 
Q 3559 1806 3559 1356 
Q 3559 666 3084 287 
Q 2609 -91 1734 -91 
Q 1441 -91 1130 -33 
Q 819 25 488 141 
L 488 750 
Q 750 597 1062 519 
Q 1375 441 1716 441 
Q 2309 441 2620 675 
Q 2931 909 2931 1356 
Q 2931 1769 2642 2001 
Q 2353 2234 1838 2234 
L 1294 2234 
L 1294 2753 
L 1863 2753 
Q 2328 2753 2575 2939 
Q 2822 3125 2822 3475 
Q 2822 3834 2567 4026 
Q 2313 4219 1838 4219 
Q 1578 4219 1281 4162 
Q 984 4106 628 3988 
L 628 4550 
Q 988 4650 1302 4700 
Q 1616 4750 1894 4750 
Q 2613 4750 3031 4423 
Q 3450 4097 3450 3541 
Q 3450 3153 3228 2886 
Q 3006 2619 2597 2516 
z
" transform="scale(0.015625)"/>
       </defs>
       <use xlink:href="#DejaVuSans-33"/>
       <use xlink:href="#DejaVuSans-30" transform="translate(63.623047 0)"/>
       <use xlink:href="#DejaVuSans-30" transform="translate(127.246094 0)"/>
       <use xlink:href="#DejaVuSans-30" transform="translate(190.869141 0)"/>
       <use xlink:href="#DejaVuSans-30" transform="translate(254.492188 0)"/>
      </g>
     </g>
    </g>
    <g id="xtick_3">
     <g id="line2d_3">
      <g>
       <use xlink:href="#md353a495d8" x="225.57292" y="228.96" style="stroke: #000000; stroke-width: 0.8"/>
      </g>
     </g>
     <g id="text_3">
      <!-- 40000 -->
      <g transform="translate(209.66667 243.558437) scale(0.1 -0.1)">
       <defs>
        <path id="DejaVuSans-34" d="M 2419 4116 
L 825 1625 
L 2419 1625 
L 2419 4116 
z
M 2253 4666 
L 3047 4666 
L 3047 1625 
L 3713 1625 
L 3713 1100 
L 3047 1100 
L 3047 0 
L 2419 0 
L 2419 1100 
L 313 1100 
L 313 1709 
L 2253 4666 
z
" transform="scale(0.015625)"/>
       </defs>
       <use xlink:href="#DejaVuSans-34"/>
       <use xlink:href="#DejaVuSans-30" transform="translate(63.623047 0)"/>
       <use xlink:href="#DejaVuSans-30" transform="translate(127.246094 0)"/>
       <use xlink:href="#DejaVuSans-30" transform="translate(190.869141 0)"/>
       <use xlink:href="#DejaVuSans-30" transform="translate(254.492188 0)"/>
      </g>
     </g>
    </g>
    <g id="xtick_4">
     <g id="line2d_4">
      <g>
       <use xlink:href="#md353a495d8" x="291.179843" y="228.96" style="stroke: #000000; stroke-width: 0.8"/>
      </g>
     </g>
     <g id="text_4">
      <!-- 50000 -->
      <g transform="translate(275.273593 243.558437) scale(0.1 -0.1)">
       <defs>
        <path id="DejaVuSans-35" d="M 691 4666 
L 3169 4666 
L 3169 4134 
L 1269 4134 
L 1269 2991 
Q 1406 3038 1543 3061 
Q 1681 3084 1819 3084 
Q 2600 3084 3056 2656 
Q 3513 2228 3513 1497 
Q 3513 744 3044 326 
Q 2575 -91 1722 -91 
Q 1428 -91 1123 -41 
Q 819 9 494 109 
L 494 744 
Q 775 591 1075 516 
Q 1375 441 1709 441 
Q 2250 441 2565 725 
Q 2881 1009 2881 1497 
Q 2881 1984 2565 2268 
Q 2250 2553 1709 2553 
Q 1456 2553 1204 2497 
Q 953 2441 691 2322 
L 691 4666 
z
" transform="scale(0.015625)"/>
       </defs>
       <use xlink:href="#DejaVuSans-35"/>
       <use xlink:href="#DejaVuSans-30" transform="translate(63.623047 0)"/>
       <use xlink:href="#DejaVuSans-30" transform="translate(127.246094 0)"/>
       <use xlink:href="#DejaVuSans-30" transform="translate(190.869141 0)"/>
       <use xlink:href="#DejaVuSans-30" transform="translate(254.492188 0)"/>
      </g>
     </g>
    </g>
    <g id="xtick_5">
     <g id="line2d_5">
      <g>
       <use xlink:href="#md353a495d8" x="356.786765" y="228.96" style="stroke: #000000; stroke-width: 0.8"/>
      </g>
     </g>
     <g id="text_5">
      <!-- 60000 -->
      <g transform="translate(340.880515 243.558437) scale(0.1 -0.1)">
       <defs>
        <path id="DejaVuSans-36" d="M 2113 2584 
Q 1688 2584 1439 2293 
Q 1191 2003 1191 1497 
Q 1191 994 1439 701 
Q 1688 409 2113 409 
Q 2538 409 2786 701 
Q 3034 994 3034 1497 
Q 3034 2003 2786 2293 
Q 2538 2584 2113 2584 
z
M 3366 4563 
L 3366 3988 
Q 3128 4100 2886 4159 
Q 2644 4219 2406 4219 
Q 1781 4219 1451 3797 
Q 1122 3375 1075 2522 
Q 1259 2794 1537 2939 
Q 1816 3084 2150 3084 
Q 2853 3084 3261 2657 
Q 3669 2231 3669 1497 
Q 3669 778 3244 343 
Q 2819 -91 2113 -91 
Q 1303 -91 875 529 
Q 447 1150 447 2328 
Q 447 3434 972 4092 
Q 1497 4750 2381 4750 
Q 2619 4750 2861 4703 
Q 3103 4656 3366 4563 
z
" transform="scale(0.015625)"/>
       </defs>
       <use xlink:href="#DejaVuSans-36"/>
       <use xlink:href="#DejaVuSans-30" transform="translate(63.623047 0)"/>
       <use xlink:href="#DejaVuSans-30" transform="translate(127.246094 0)"/>
       <use xlink:href="#DejaVuSans-30" transform="translate(190.869141 0)"/>
       <use xlink:href="#DejaVuSans-30" transform="translate(254.492188 0)"/>
      </g>
     </g>
    </g>
    <g id="text_6">
     <!-- event_time_offset [µs] -->
     <g transform="translate(164.692969 257.236562) scale(0.1 -0.1)">
      <defs>
       <path id="DejaVuSans-65" d="M 3597 1894 
L 3597 1613 
L 953 1613 
Q 991 1019 1311 708 
Q 1631 397 2203 397 
Q 2534 397 2845 478 
Q 3156 559 3463 722 
L 3463 178 
Q 3153 47 2828 -22 
Q 2503 -91 2169 -91 
Q 1331 -91 842 396 
Q 353 884 353 1716 
Q 353 2575 817 3079 
Q 1281 3584 2069 3584 
Q 2775 3584 3186 3129 
Q 3597 2675 3597 1894 
z
M 3022 2063 
Q 3016 2534 2758 2815 
Q 2500 3097 2075 3097 
Q 1594 3097 1305 2825 
Q 1016 2553 972 2059 
L 3022 2063 
z
" transform="scale(0.015625)"/>
       <path id="DejaVuSans-76" d="M 191 3500 
L 800 3500 
L 1894 563 
L 2988 3500 
L 3597 3500 
L 2284 0 
L 1503 0 
L 191 3500 
z
" transform="scale(0.015625)"/>
       <path id="DejaVuSans-6e" d="M 3513 2113 
L 3513 0 
L 2938 0 
L 2938 2094 
Q 2938 2591 2744 2837 
Q 2550 3084 2163 3084 
Q 1697 3084 1428 2787 
Q 1159 2491 1159 1978 
L 1159 0 
L 581 0 
L 581 3500 
L 1159 3500 
L 1159 2956 
Q 1366 3272 1645 3428 
Q 1925 3584 2291 3584 
Q 2894 3584 3203 3211 
Q 3513 2838 3513 2113 
z
" transform="scale(0.015625)"/>
       <path id="DejaVuSans-74" d="M 1172 4494 
L 1172 3500 
L 2356 3500 
L 2356 3053 
L 1172 3053 
L 1172 1153 
Q 1172 725 1289 603 
Q 1406 481 1766 481 
L 2356 481 
L 2356 0 
L 1766 0 
Q 1100 0 847 248 
Q 594 497 594 1153 
L 594 3053 
L 172 3053 
L 172 3500 
L 594 3500 
L 594 4494 
L 1172 4494 
z
" transform="scale(0.015625)"/>
       <path id="DejaVuSans-5f" d="M 3263 -1063 
L 3263 -1509 
L -63 -1509 
L -63 -1063 
L 3263 -1063 
z
" transform="scale(0.015625)"/>
       <path id="DejaVuSans-69" d="M 603 3500 
L 1178 3500 
L 1178 0 
L 603 0 
L 603 3500 
z
M 603 4863 
L 1178 4863 
L 1178 4134 
L 603 4134 
L 603 4863 
z
" transform="scale(0.015625)"/>
       <path id="DejaVuSans-6d" d="M 3328 2828 
Q 3544 3216 3844 3400 
Q 4144 3584 4550 3584 
Q 5097 3584 5394 3201 
Q 5691 2819 5691 2113 
L 5691 0 
L 5113 0 
L 5113 2094 
Q 5113 2597 4934 2840 
Q 4756 3084 4391 3084 
Q 3944 3084 3684 2787 
Q 3425 2491 3425 1978 
L 3425 0 
L 2847 0 
L 2847 2094 
Q 2847 2600 2669 2842 
Q 2491 3084 2119 3084 
Q 1678 3084 1418 2786 
Q 1159 2488 1159 1978 
L 1159 0 
L 581 0 
L 581 3500 
L 1159 3500 
L 1159 2956 
Q 1356 3278 1631 3431 
Q 1906 3584 2284 3584 
Q 2666 3584 2933 3390 
Q 3200 3197 3328 2828 
z
" transform="scale(0.015625)"/>
       <path id="DejaVuSans-6f" d="M 1959 3097 
Q 1497 3097 1228 2736 
Q 959 2375 959 1747 
Q 959 1119 1226 758 
Q 1494 397 1959 397 
Q 2419 397 2687 759 
Q 2956 1122 2956 1747 
Q 2956 2369 2687 2733 
Q 2419 3097 1959 3097 
z
M 1959 3584 
Q 2709 3584 3137 3096 
Q 3566 2609 3566 1747 
Q 3566 888 3137 398 
Q 2709 -91 1959 -91 
Q 1206 -91 779 398 
Q 353 888 353 1747 
Q 353 2609 779 3096 
Q 1206 3584 1959 3584 
z
" transform="scale(0.015625)"/>
       <path id="DejaVuSans-66" d="M 2375 4863 
L 2375 4384 
L 1825 4384 
Q 1516 4384 1395 4259 
Q 1275 4134 1275 3809 
L 1275 3500 
L 2222 3500 
L 2222 3053 
L 1275 3053 
L 1275 0 
L 697 0 
L 697 3053 
L 147 3053 
L 147 3500 
L 697 3500 
L 697 3744 
Q 697 4328 969 4595 
Q 1241 4863 1831 4863 
L 2375 4863 
z
" transform="scale(0.015625)"/>
       <path id="DejaVuSans-73" d="M 2834 3397 
L 2834 2853 
Q 2591 2978 2328 3040 
Q 2066 3103 1784 3103 
Q 1356 3103 1142 2972 
Q 928 2841 928 2578 
Q 928 2378 1081 2264 
Q 1234 2150 1697 2047 
L 1894 2003 
Q 2506 1872 2764 1633 
Q 3022 1394 3022 966 
Q 3022 478 2636 193 
Q 2250 -91 1575 -91 
Q 1294 -91 989 -36 
Q 684 19 347 128 
L 347 722 
Q 666 556 975 473 
Q 1284 391 1588 391 
Q 1994 391 2212 530 
Q 2431 669 2431 922 
Q 2431 1156 2273 1281 
Q 2116 1406 1581 1522 
L 1381 1569 
Q 847 1681 609 1914 
Q 372 2147 372 2553 
Q 372 3047 722 3315 
Q 1072 3584 1716 3584 
Q 2034 3584 2315 3537 
Q 2597 3491 2834 3397 
z
" transform="scale(0.015625)"/>
       <path id="DejaVuSans-20" transform="scale(0.015625)"/>
       <path id="DejaVuSans-5b" d="M 550 4863 
L 1875 4863 
L 1875 4416 
L 1125 4416 
L 1125 -397 
L 1875 -397 
L 1875 -844 
L 550 -844 
L 550 4863 
z
" transform="scale(0.015625)"/>
       <path id="DejaVuSans-b5" d="M 544 -1331 
L 544 3500 
L 1119 3500 
L 1119 1325 
Q 1119 872 1334 640 
Q 1550 409 1972 409 
Q 2434 409 2667 671 
Q 2900 934 2900 1459 
L 2900 3500 
L 3475 3500 
L 3475 806 
Q 3475 619 3529 530 
Q 3584 441 3700 441 
Q 3728 441 3778 458 
Q 3828 475 3916 513 
L 3916 50 
Q 3788 -22 3673 -56 
Q 3559 -91 3450 -91 
Q 3234 -91 3106 31 
Q 2978 153 2931 403 
Q 2775 156 2548 32 
Q 2322 -91 2016 -91 
Q 1697 -91 1473 31 
Q 1250 153 1119 397 
L 1119 -1331 
L 544 -1331 
z
" transform="scale(0.015625)"/>
       <path id="DejaVuSans-5d" d="M 1947 4863 
L 1947 -844 
L 622 -844 
L 622 -397 
L 1369 -397 
L 1369 4416 
L 622 4416 
L 622 4863 
L 1947 4863 
z
" transform="scale(0.015625)"/>
      </defs>
      <use xlink:href="#DejaVuSans-65"/>
      <use xlink:href="#DejaVuSans-76" transform="translate(61.523438 0)"/>
      <use xlink:href="#DejaVuSans-65" transform="translate(120.703125 0)"/>
      <use xlink:href="#DejaVuSans-6e" transform="translate(182.226562 0)"/>
      <use xlink:href="#DejaVuSans-74" transform="translate(245.605469 0)"/>
      <use xlink:href="#DejaVuSans-5f" transform="translate(284.814453 0)"/>
      <use xlink:href="#DejaVuSans-74" transform="translate(334.814453 0)"/>
      <use xlink:href="#DejaVuSans-69" transform="translate(374.023438 0)"/>
      <use xlink:href="#DejaVuSans-6d" transform="translate(401.806641 0)"/>
      <use xlink:href="#DejaVuSans-65" transform="translate(499.21875 0)"/>
      <use xlink:href="#DejaVuSans-5f" transform="translate(560.742188 0)"/>
      <use xlink:href="#DejaVuSans-6f" transform="translate(610.742188 0)"/>
      <use xlink:href="#DejaVuSans-66" transform="translate(671.923828 0)"/>
      <use xlink:href="#DejaVuSans-66" transform="translate(707.128906 0)"/>
      <use xlink:href="#DejaVuSans-73" transform="translate(742.333984 0)"/>
      <use xlink:href="#DejaVuSans-65" transform="translate(794.433594 0)"/>
      <use xlink:href="#DejaVuSans-74" transform="translate(855.957031 0)"/>
      <use xlink:href="#DejaVuSans-20" transform="translate(895.166016 0)"/>
      <use xlink:href="#DejaVuSans-5b" transform="translate(926.953125 0)"/>
      <use xlink:href="#DejaVuSans-b5" transform="translate(965.966797 0)"/>
      <use xlink:href="#DejaVuSans-73" transform="translate(1029.589844 0)"/>
      <use xlink:href="#DejaVuSans-5d" transform="translate(1081.689453 0)"/>
     </g>
    </g>
   </g>
   <g id="matplotlib.axis_2">
    <g id="ytick_1">
     <g id="line2d_6">
      <defs>
       <path id="m6024909abc" d="M 0 0 
L -3.5 0 
" style="stroke: #000000; stroke-width: 0.8"/>
      </defs>
      <g>
       <use xlink:href="#m6024909abc" x="53.328125" y="218.88" style="stroke: #000000; stroke-width: 0.8"/>
      </g>
     </g>
     <g id="text_7">
      <!-- 0 -->
      <g transform="translate(39.965625 222.679219) scale(0.1 -0.1)">
       <use xlink:href="#DejaVuSans-30"/>
      </g>
     </g>
    </g>
    <g id="ytick_2">
     <g id="line2d_7">
      <g>
       <use xlink:href="#m6024909abc" x="53.328125" y="186.593004" style="stroke: #000000; stroke-width: 0.8"/>
      </g>
     </g>
     <g id="text_8">
      <!-- 500 -->
      <g transform="translate(27.240625 190.392223) scale(0.1 -0.1)">
       <use xlink:href="#DejaVuSans-35"/>
       <use xlink:href="#DejaVuSans-30" transform="translate(63.623047 0)"/>
       <use xlink:href="#DejaVuSans-30" transform="translate(127.246094 0)"/>
      </g>
     </g>
    </g>
    <g id="ytick_3">
     <g id="line2d_8">
      <g>
       <use xlink:href="#m6024909abc" x="53.328125" y="154.306009" style="stroke: #000000; stroke-width: 0.8"/>
      </g>
     </g>
     <g id="text_9">
      <!-- 1000 -->
      <g transform="translate(20.878125 158.105228) scale(0.1 -0.1)">
       <defs>
        <path id="DejaVuSans-31" d="M 794 531 
L 1825 531 
L 1825 4091 
L 703 3866 
L 703 4441 
L 1819 4666 
L 2450 4666 
L 2450 531 
L 3481 531 
L 3481 0 
L 794 0 
L 794 531 
z
" transform="scale(0.015625)"/>
       </defs>
       <use xlink:href="#DejaVuSans-31"/>
       <use xlink:href="#DejaVuSans-30" transform="translate(63.623047 0)"/>
       <use xlink:href="#DejaVuSans-30" transform="translate(127.246094 0)"/>
       <use xlink:href="#DejaVuSans-30" transform="translate(190.869141 0)"/>
      </g>
     </g>
    </g>
    <g id="ytick_4">
     <g id="line2d_9">
      <g>
       <use xlink:href="#m6024909abc" x="53.328125" y="122.019013" style="stroke: #000000; stroke-width: 0.8"/>
      </g>
     </g>
     <g id="text_10">
      <!-- 1500 -->
      <g transform="translate(20.878125 125.818232) scale(0.1 -0.1)">
       <use xlink:href="#DejaVuSans-31"/>
       <use xlink:href="#DejaVuSans-35" transform="translate(63.623047 0)"/>
       <use xlink:href="#DejaVuSans-30" transform="translate(127.246094 0)"/>
       <use xlink:href="#DejaVuSans-30" transform="translate(190.869141 0)"/>
      </g>
     </g>
    </g>
    <g id="ytick_5">
     <g id="line2d_10">
      <g>
       <use xlink:href="#m6024909abc" x="53.328125" y="89.732018" style="stroke: #000000; stroke-width: 0.8"/>
      </g>
     </g>
     <g id="text_11">
      <!-- 2000 -->
      <g transform="translate(20.878125 93.531237) scale(0.1 -0.1)">
       <use xlink:href="#DejaVuSans-32"/>
       <use xlink:href="#DejaVuSans-30" transform="translate(63.623047 0)"/>
       <use xlink:href="#DejaVuSans-30" transform="translate(127.246094 0)"/>
       <use xlink:href="#DejaVuSans-30" transform="translate(190.869141 0)"/>
      </g>
     </g>
    </g>
    <g id="ytick_6">
     <g id="line2d_11">
      <g>
       <use xlink:href="#m6024909abc" x="53.328125" y="57.445022" style="stroke: #000000; stroke-width: 0.8"/>
      </g>
     </g>
     <g id="text_12">
      <!-- 2500 -->
      <g transform="translate(20.878125 61.244241) scale(0.1 -0.1)">
       <use xlink:href="#DejaVuSans-32"/>
       <use xlink:href="#DejaVuSans-35" transform="translate(63.623047 0)"/>
       <use xlink:href="#DejaVuSans-30" transform="translate(127.246094 0)"/>
       <use xlink:href="#DejaVuSans-30" transform="translate(190.869141 0)"/>
      </g>
     </g>
    </g>
    <g id="ytick_7">
     <g id="line2d_12">
      <g>
       <use xlink:href="#m6024909abc" x="53.328125" y="25.158027" style="stroke: #000000; stroke-width: 0.8"/>
      </g>
     </g>
     <g id="text_13">
      <!-- 3000 -->
      <g transform="translate(20.878125 28.957246) scale(0.1 -0.1)">
       <use xlink:href="#DejaVuSans-33"/>
       <use xlink:href="#DejaVuSans-30" transform="translate(63.623047 0)"/>
       <use xlink:href="#DejaVuSans-30" transform="translate(127.246094 0)"/>
       <use xlink:href="#DejaVuSans-30" transform="translate(190.869141 0)"/>
      </g>
     </g>
    </g>
    <g id="text_14">
     <!-- [counts] -->
     <g transform="translate(14.798438 138.6925) rotate(-90) scale(0.1 -0.1)">
      <defs>
       <path id="DejaVuSans-63" d="M 3122 3366 
L 3122 2828 
Q 2878 2963 2633 3030 
Q 2388 3097 2138 3097 
Q 1578 3097 1268 2742 
Q 959 2388 959 1747 
Q 959 1106 1268 751 
Q 1578 397 2138 397 
Q 2388 397 2633 464 
Q 2878 531 3122 666 
L 3122 134 
Q 2881 22 2623 -34 
Q 2366 -91 2075 -91 
Q 1284 -91 818 406 
Q 353 903 353 1747 
Q 353 2603 823 3093 
Q 1294 3584 2113 3584 
Q 2378 3584 2631 3529 
Q 2884 3475 3122 3366 
z
" transform="scale(0.015625)"/>
       <path id="DejaVuSans-75" d="M 544 1381 
L 544 3500 
L 1119 3500 
L 1119 1403 
Q 1119 906 1312 657 
Q 1506 409 1894 409 
Q 2359 409 2629 706 
Q 2900 1003 2900 1516 
L 2900 3500 
L 3475 3500 
L 3475 0 
L 2900 0 
L 2900 538 
Q 2691 219 2414 64 
Q 2138 -91 1772 -91 
Q 1169 -91 856 284 
Q 544 659 544 1381 
z
M 1991 3584 
L 1991 3584 
z
" transform="scale(0.015625)"/>
      </defs>
      <use xlink:href="#DejaVuSans-5b"/>
      <use xlink:href="#DejaVuSans-63" transform="translate(39.013672 0)"/>
      <use xlink:href="#DejaVuSans-6f" transform="translate(93.994141 0)"/>
      <use xlink:href="#DejaVuSans-75" transform="translate(155.175781 0)"/>
      <use xlink:href="#DejaVuSans-6e" transform="translate(218.554688 0)"/>
      <use xlink:href="#DejaVuSans-74" transform="translate(281.933594 0)"/>
      <use xlink:href="#DejaVuSans-73" transform="translate(321.142578 0)"/>
      <use xlink:href="#DejaVuSans-5d" transform="translate(373.242188 0)"/>
     </g>
    </g>
   </g>
   <g id="line2d_13">
    <path d="M 68.546307 188.594798 
L 69.560852 188.594798 
L 69.560852 120.921256 
L 70.575398 120.921256 
L 70.575398 94.058475 
L 71.589943 94.058475 
L 71.589943 99.159821 
L 72.604489 99.159821 
L 72.604489 86.890762 
L 73.619034 86.890762 
L 73.619034 81.853991 
L 74.63358 81.853991 
L 74.63358 74.944574 
L 75.648125 74.944574 
L 75.648125 67.260269 
L 76.66267 67.260269 
L 76.66267 58.607354 
L 77.677216 58.607354 
L 77.677216 56.540987 
L 78.691761 56.540987 
L 78.691761 53.570583 
L 79.706307 53.570583 
L 79.706307 48.856682 
L 80.720852 48.856682 
L 80.720852 42.722152 
L 81.735398 42.722152 
L 81.735398 35.360717 
L 82.749943 35.360717 
L 82.749943 24.447713 
L 83.764489 24.447713 
L 83.764489 17.28 
L 84.779034 17.28 
L 84.779034 22.833363 
L 85.79358 22.833363 
L 85.79358 17.538296 
L 86.808125 17.538296 
L 86.808125 18.24861 
L 87.82267 18.24861 
L 87.82267 19.86296 
L 88.837216 19.86296 
L 88.837216 34.650404 
L 89.851761 34.650404 
L 89.851761 27.353543 
L 90.866307 27.353543 
L 90.866307 28.838744 
L 91.880852 28.838744 
L 91.880852 28.709596 
L 92.895398 28.709596 
L 92.895398 35.619013 
L 93.909943 35.619013 
L 93.909943 31.227982 
L 94.924489 31.227982 
L 94.924489 43.17417 
L 95.939034 43.17417 
L 95.939034 40.332915 
L 96.95358 40.332915 
L 96.95358 59.253094 
L 97.968125 59.253094 
L 97.968125 71.6513 
L 98.98267 71.6513 
L 98.98267 81.337399 
L 99.997216 81.337399 
L 99.997216 94.381345 
L 101.011761 94.381345 
L 101.011761 104.390314 
L 102.026307 104.390314 
L 102.026307 113.495247 
L 103.040852 113.495247 
L 103.040852 130.413632 
L 104.055398 130.413632 
L 104.055398 135.256682 
L 105.069943 135.256682 
L 105.069943 150.754439 
L 106.084489 150.754439 
L 106.084489 160.505112 
L 107.099034 160.505112 
L 107.099034 168.383139 
L 108.11358 168.383139 
L 108.11358 179.037848 
L 109.128125 179.037848 
L 109.128125 184.978655 
L 110.14267 184.978655 
L 110.14267 197.247713 
L 111.157216 197.247713 
L 111.157216 203.382242 
L 112.171761 203.382242 
L 112.171761 212.939193 
L 113.186307 212.939193 
L 113.186307 217.007354 
L 114.200852 217.007354 
L 114.200852 218.815426 
L 127.389943 218.815426 
L 127.389943 196.085381 
L 128.404489 196.085381 
L 128.404489 150.560717 
L 129.419034 150.560717 
L 129.419034 106.973274 
L 130.43358 106.973274 
L 130.43358 83.468341 
L 131.448125 83.468341 
L 131.448125 84.372377 
L 133.477216 84.436951 
L 133.477216 93.412735 
L 134.491761 93.412735 
L 134.491761 98.320359 
L 135.506307 98.320359 
L 135.506307 90.184036 
L 136.520852 90.184036 
L 136.520852 95.220807 
L 137.535398 95.220807 
L 137.535398 100.580448 
L 138.549943 100.580448 
L 138.549943 100.322152 
L 139.564489 100.322152 
L 139.564489 105.875516 
L 140.579034 105.875516 
L 140.579034 101.74278 
L 141.59358 101.74278 
L 141.59358 97.480897 
L 142.608125 97.480897 
L 142.608125 106.779552 
L 143.62267 106.779552 
L 143.62267 115.81991 
L 144.637216 115.81991 
L 144.637216 106.198386 
L 145.651761 106.198386 
L 145.651761 110.137399 
L 146.666307 110.137399 
L 146.666307 112.203767 
L 147.680852 112.203767 
L 147.680852 118.467444 
L 148.695398 118.467444 
L 148.695398 121.3087 
L 149.709943 121.3087 
L 149.709943 115.81991 
L 150.724489 115.81991 
L 150.724489 118.919462 
L 151.739034 118.919462 
L 151.739034 121.373274 
L 152.75358 121.373274 
L 152.75358 124.149955 
L 153.768125 124.149955 
L 153.768125 125.247713 
L 154.78267 125.247713 
L 154.78267 128.088969 
L 155.797216 128.088969 
L 155.797216 129.122152 
L 156.811761 129.122152 
L 156.811761 132.415426 
L 157.826307 132.415426 
L 157.826307 129.703318 
L 158.840852 129.703318 
L 158.840852 130.026188 
L 159.855398 130.026188 
L 159.855398 134.029776 
L 160.869943 134.029776 
L 160.869943 137.516771 
L 161.884489 137.516771 
L 161.884489 138.291659 
L 162.899034 138.291659 
L 162.899034 141.907803 
L 163.91358 141.907803 
L 163.91358 144.813632 
L 164.928125 144.813632 
L 164.928125 149.46296 
L 165.94267 149.46296 
L 165.94267 153.272825 
L 166.957216 153.272825 
L 166.957216 159.34278 
L 167.971761 159.34278 
L 167.971761 164.637848 
L 168.986307 164.637848 
L 168.986307 173.09704 
L 170.000852 173.09704 
L 170.000852 179.360717 
L 171.015398 179.360717 
L 171.015398 187.17417 
L 172.029943 187.17417 
L 172.029943 193.502422 
L 173.044489 193.502422 
L 173.044489 197.958027 
L 174.059034 197.958027 
L 174.059034 205.965202 
L 175.07358 205.965202 
L 175.07358 209.323049 
L 176.088125 209.323049 
L 176.088125 214.166099 
L 177.10267 214.166099 
L 177.10267 216.29704 
L 178.117216 216.29704 
L 178.117216 218.815426 
L 183.189943 218.750852 
L 183.189943 211.389417 
L 184.204489 211.389417 
L 184.204489 194.083587 
L 185.219034 194.083587 
L 185.219034 176.519462 
L 186.23358 176.519462 
L 186.23358 157.147265 
L 187.248125 157.147265 
L 187.248125 150.560717 
L 188.26267 150.560717 
L 188.26267 147.138296 
L 189.277216 147.138296 
L 189.277216 153.014529 
L 190.291761 153.014529 
L 190.291761 150.819013 
L 191.306307 150.819013 
L 191.306307 153.595695 
L 192.320852 153.595695 
L 192.320852 150.496143 
L 193.335398 150.496143 
L 193.335398 155.016323 
L 194.349943 155.016323 
L 194.349943 154.112287 
L 195.364489 154.112287 
L 195.364489 157.147265 
L 196.379034 157.147265 
L 196.379034 157.922152 
L 197.39358 157.922152 
L 197.39358 157.663857 
L 198.408125 157.663857 
L 198.408125 158.245022 
L 199.42267 158.245022 
L 199.42267 161.732018 
L 200.437216 161.732018 
L 200.437216 160.763408 
L 201.451761 160.763408 
L 201.451761 162.89435 
L 202.466307 162.89435 
L 202.466307 166.575067 
L 203.480852 166.575067 
L 203.480852 166.252197 
L 204.495398 166.252197 
L 204.495398 169.158027 
L 205.509943 169.158027 
L 205.509943 167.543677 
L 206.524489 167.543677 
L 206.524489 170.449507 
L 207.539034 170.449507 
L 207.539034 170.901525 
L 208.55358 170.901525 
L 208.55358 173.226188 
L 209.568125 173.226188 
L 209.568125 177.165202 
L 210.58267 177.165202 
L 210.58267 176.906906 
L 211.597216 176.906906 
L 211.597216 183.493453 
L 212.611761 183.493453 
L 212.611761 185.624395 
L 213.626307 185.624395 
L 213.626307 186.334709 
L 214.640852 186.334709 
L 214.640852 189.498834 
L 215.655398 189.498834 
L 215.655398 193.3087 
L 216.669943 193.3087 
L 216.669943 192.727534 
L 217.684489 192.727534 
L 217.684489 192.146368 
L 218.699034 192.146368 
L 218.699034 196.731121 
L 219.71358 196.731121 
L 219.71358 199.830673 
L 220.728125 199.830673 
L 220.728125 201.703318 
L 221.74267 201.703318 
L 221.74267 202.090762 
L 222.757216 202.090762 
L 222.757216 207.256682 
L 223.771761 207.256682 
L 223.771761 207.902422 
L 224.786307 207.902422 
L 224.786307 211.583139 
L 225.800852 211.583139 
L 225.800852 213.391211 
L 226.815398 213.391211 
L 226.815398 215.134709 
L 227.829943 215.134709 
L 227.829943 218.621704 
L 228.844489 218.621704 
L 228.844489 218.88 
L 233.917216 218.88 
L 233.917216 216.878206 
L 234.931761 216.878206 
L 234.931761 212.228879 
L 235.946307 212.228879 
L 235.946307 205.254888 
L 236.960852 205.254888 
L 236.960852 196.731121 
L 237.975398 196.731121 
L 237.975398 188.207354 
L 238.989943 188.207354 
L 238.989943 187.109596 
L 240.004489 187.109596 
L 240.004489 190.854888 
L 241.019034 190.854888 
L 241.019034 190.467444 
L 242.03358 190.467444 
L 242.03358 191.629776 
L 243.048125 191.629776 
L 243.048125 192.921256 
L 244.06267 192.921256 
L 244.06267 194.277309 
L 245.077216 194.277309 
L 245.077216 196.020807 
L 246.091761 196.020807 
L 246.091761 195.310493 
L 247.106307 195.310493 
L 247.106307 197.376861 
L 248.120852 197.376861 
L 248.120852 200.024395 
L 249.135398 200.024395 
L 249.135398 198.280897 
L 250.149943 198.280897 
L 250.149943 201.89704 
L 252.179034 201.89704 
L 252.179034 202.994798 
L 253.19358 202.994798 
L 253.19358 204.350852 
L 254.208125 204.350852 
L 254.208125 205.706906 
L 255.22267 205.706906 
L 255.22267 204.80287 
L 256.237216 204.80287 
L 256.237216 206.998386 
L 258.266307 206.998386 
L 258.266307 207.192108 
L 259.280852 207.192108 
L 259.280852 209.129327 
L 260.295398 209.129327 
L 260.295398 210.097937 
L 261.309943 210.097937 
L 261.309943 211.647713 
L 262.324489 211.647713 
L 262.324489 211.324843 
L 264.35358 211.260269 
L 264.35358 212.745471 
L 265.368125 212.745471 
L 265.368125 213.520359 
L 266.38267 213.520359 
L 266.38267 214.166099 
L 267.397216 214.166099 
L 267.397216 215.393004 
L 268.411761 215.393004 
L 268.411761 215.6513 
L 269.426307 215.6513 
L 269.426307 215.909596 
L 270.440852 215.909596 
L 270.440852 217.136502 
L 271.455398 217.136502 
L 271.455398 217.782242 
L 272.469943 217.782242 
L 272.469943 217.653094 
L 273.484489 217.653094 
L 273.484489 218.363408 
L 274.499034 218.363408 
L 274.499034 218.750852 
L 275.51358 218.750852 
L 275.51358 218.88 
L 281.600852 218.88 
L 281.600852 217.136502 
L 282.615398 217.136502 
L 282.615398 214.036951 
L 283.629943 214.036951 
L 283.629943 209.839641 
L 284.644489 209.839641 
L 284.644489 205.77148 
L 285.659034 205.77148 
L 285.659034 204.996592 
L 286.67358 204.996592 
L 286.67358 204.027982 
L 287.688125 204.027982 
L 287.688125 204.867444 
L 288.70267 204.867444 
L 288.70267 205.384036 
L 289.717216 205.384036 
L 289.717216 206.158924 
L 290.731761 206.158924 
L 290.731761 207.773274 
L 291.746307 207.773274 
L 291.746307 208.03157 
L 293.775398 207.966996 
L 293.775398 209.516771 
L 294.789943 209.516771 
L 294.789943 208.677309 
L 295.804489 208.677309 
L 295.804489 209.516771 
L 296.819034 209.516771 
L 296.819034 211.712287 
L 297.83358 211.712287 
L 297.83358 209.387623 
L 298.848125 209.387623 
L 298.848125 212.487175 
L 299.86267 212.487175 
L 299.86267 212.874619 
L 300.877216 212.874619 
L 300.877216 212.358027 
L 301.891761 212.358027 
L 301.891761 213.455785 
L 302.906307 213.455785 
L 302.906307 213.649507 
L 303.920852 213.649507 
L 303.920852 214.488969 
L 304.935398 214.488969 
L 304.935398 214.876413 
L 305.949943 214.876413 
L 305.949943 214.295247 
L 306.964489 214.295247 
L 306.964489 214.876413 
L 307.979034 214.876413 
L 307.979034 215.32843 
L 310.008125 215.263857 
L 310.008125 216.29704 
L 311.02267 216.29704 
L 311.02267 215.845022 
L 312.037216 215.845022 
L 312.037216 217.58852 
L 313.051761 217.58852 
L 313.051761 217.394798 
L 314.066307 217.394798 
L 314.066307 218.23426 
L 315.080852 218.23426 
L 315.080852 217.653094 
L 316.095398 217.653094 
L 316.095398 218.169686 
L 317.109943 218.169686 
L 317.109943 218.298834 
L 318.124489 218.298834 
L 318.124489 218.686278 
L 319.139034 218.686278 
L 319.139034 218.815426 
L 329.284489 218.750852 
L 329.284489 217.91139 
L 330.299034 217.91139 
L 330.299034 216.490762 
L 331.31358 216.490762 
L 331.31358 213.778655 
L 332.328125 213.778655 
L 332.328125 210.937399 
L 333.34267 210.937399 
L 333.34267 207.644126 
L 334.357216 207.644126 
L 334.357216 205.836054 
L 335.371761 205.836054 
L 335.371761 203.059372 
L 336.386307 203.059372 
L 336.386307 201.57417 
L 337.400852 201.57417 
L 337.400852 202.413632 
L 338.415398 202.413632 
L 338.415398 202.284484 
L 339.429943 202.284484 
L 339.429943 203.18852 
L 340.444489 203.18852 
L 340.444489 203.317668 
L 341.459034 203.317668 
L 341.459034 204.415426 
L 342.47358 204.415426 
L 342.47358 202.478206 
L 343.488125 202.478206 
L 343.488125 203.51139 
L 344.50267 203.51139 
L 344.50267 204.544574 
L 345.517216 204.544574 
L 345.517216 203.51139 
L 346.531761 203.51139 
L 346.531761 204.092556 
L 347.546307 204.092556 
L 347.546307 204.932018 
L 348.560852 204.932018 
L 348.560852 203.51139 
L 349.575398 203.51139 
L 349.575398 205.12574 
L 350.589943 205.12574 
L 350.589943 203.963408 
L 351.604489 203.963408 
L 351.604489 205.965202 
L 352.619034 205.965202 
L 352.619034 205.254888 
L 353.63358 205.254888 
L 353.63358 207.7087 
L 354.648125 207.7087 
L 354.648125 207.579552 
L 355.66267 207.579552 
L 355.66267 207.321256 
L 356.677216 207.321256 
L 356.677216 207.06296 
L 357.691761 207.06296 
L 357.691761 209.129327 
L 358.706307 209.129327 
L 358.706307 209.839641 
L 359.720852 209.839641 
L 359.720852 208.289865 
L 360.735398 208.289865 
L 360.735398 210.614529 
L 361.749943 210.614529 
L 361.749943 210.485381 
L 363.779034 210.549955 
L 363.779034 210.291659 
L 364.79358 210.291659 
L 364.79358 212.874619 
L 365.808125 212.874619 
L 365.808125 213.132915 
L 366.82267 213.132915 
L 366.82267 214.166099 
L 368.851761 214.230673 
L 368.851761 215.005561 
L 370.880852 215.070135 
L 370.880852 215.97417 
L 371.895398 215.97417 
L 371.895398 218.040538 
L 372.909943 218.040538 
L 372.909943 218.040538 
" clip-path="url(#pb0445c62c0)" style="fill: none; stroke: #1f77b4; stroke-width: 1.5; stroke-linecap: square"/>
   </g>
   <g id="patch_3">
    <path d="M 53.328125 228.96 
L 53.328125 7.2 
" style="fill: none; stroke: #000000; stroke-width: 0.8; stroke-linejoin: miter; stroke-linecap: square"/>
   </g>
   <g id="patch_4">
    <path d="M 388.128125 228.96 
L 388.128125 7.2 
" style="fill: none; stroke: #000000; stroke-width: 0.8; stroke-linejoin: miter; stroke-linecap: square"/>
   </g>
   <g id="patch_5">
    <path d="M 53.328125 228.96 
L 388.128125 228.96 
" style="fill: none; stroke: #000000; stroke-width: 0.8; stroke-linejoin: miter; stroke-linecap: square"/>
   </g>
   <g id="patch_6">
    <path d="M 53.328125 7.2 
L 388.128125 7.2 
" style="fill: none; stroke: #000000; stroke-width: 0.8; stroke-linejoin: miter; stroke-linecap: square"/>
   </g>
  </g>
 </g>
 <defs>
  <clipPath id="pb0445c62c0">
   <rect x="53.328125" y="7.2" width="334.8" height="221.76"/>
  </clipPath>
 </defs>
</svg>
