<?xml version="1.0" encoding="utf-8" standalone="no"?>
<!DOCTYPE svg PUBLIC "-//W3C//DTD SVG 1.1//EN"
  "http://www.w3.org/Graphics/SVG/1.1/DTD/svg11.dtd">
<svg xmlns:xlink="http://www.w3.org/1999/xlink" width="395.328125pt" height="268.200625pt" viewBox="0 0 395.328125 268.200625" xmlns="http://www.w3.org/2000/svg" version="1.1">
 <metadata>
  <rdf:RDF xmlns:dc="http://purl.org/dc/elements/1.1/" xmlns:cc="http://creativecommons.org/ns#" xmlns:rdf="http://www.w3.org/1999/02/22-rdf-syntax-ns#">
   <cc:Work>
    <dc:type rdf:resource="http://purl.org/dc/dcmitype/StillImage"/>
    <dc:date>2025-05-22T08:31:26.412249</dc:date>
    <dc:format>image/svg+xml</dc:format>
    <dc:creator>
     <cc:Agent>
      <dc:title>Matplotlib v3.10.3, https://matplotlib.org/</dc:title>
     </cc:Agent>
    </dc:creator>
   </cc:Work>
  </rdf:RDF>
 </metadata>
 <defs>
  <style type="text/css">*{stroke-linejoin: round; stroke-linecap: butt}</style>
 </defs>
 <g id="figure_1">
  <g id="patch_1">
   <path d="M 0 268.200625 
L 395.328125 268.200625 
L 395.328125 0 
L 0 0 
z
" style="fill: #ffffff"/>
  </g>
  <g id="axes_1">
   <g id="patch_2">
    <path d="M 53.328125 228.96 
L 388.128125 228.96 
L 388.128125 7.2 
L 53.328125 7.2 
z
" style="fill: #ffffff"/>
   </g>
   <g id="matplotlib.axis_1">
    <g id="xtick_1">
     <g id="line2d_1">
      <defs>
       <path id="maa0ea0adbb" d="M 0 0 
L 0 3.5 
" style="stroke: #000000; stroke-width: 0.8"/>
      </defs>
      <g>
       <use xlink:href="#maa0ea0adbb" x="68.546307" y="228.96" style="stroke: #000000; stroke-width: 0.8"/>
      </g>
     </g>
     <g id="text_1">
      <!-- 1 -->
      <g transform="translate(65.365057 243.558437) scale(0.1 -0.1)">
       <defs>
        <path id="DejaVuSans-31" d="M 794 531 
L 1825 531 
L 1825 4091 
L 703 3866 
L 703 4441 
L 1819 4666 
L 2450 4666 
L 2450 531 
L 3481 531 
L 3481 0 
L 794 0 
L 794 531 
z
" transform="scale(0.015625)"/>
       </defs>
       <use xlink:href="#DejaVuSans-31"/>
      </g>
     </g>
    </g>
    <g id="xtick_2">
     <g id="line2d_2">
      <g>
       <use xlink:href="#maa0ea0adbb" x="112.026826" y="228.96" style="stroke: #000000; stroke-width: 0.8"/>
      </g>
     </g>
     <g id="text_2">
      <!-- 2 -->
      <g transform="translate(108.845576 243.558437) scale(0.1 -0.1)">
       <defs>
        <path id="DejaVuSans-32" d="M 1228 531 
L 3431 531 
L 3431 0 
L 469 0 
L 469 531 
Q 828 903 1448 1529 
Q 2069 2156 2228 2338 
Q 2531 2678 2651 2914 
Q 2772 3150 2772 3378 
Q 2772 3750 2511 3984 
Q 2250 4219 1831 4219 
Q 1534 4219 1204 4116 
Q 875 4013 500 3803 
L 500 4441 
Q 881 4594 1212 4672 
Q 1544 4750 1819 4750 
Q 2544 4750 2975 4387 
Q 3406 4025 3406 3419 
Q 3406 3131 3298 2873 
Q 3191 2616 2906 2266 
Q 2828 2175 2409 1742 
Q 1991 1309 1228 531 
z
" transform="scale(0.015625)"/>
       </defs>
       <use xlink:href="#DejaVuSans-32"/>
      </g>
     </g>
    </g>
    <g id="xtick_3">
     <g id="line2d_3">
      <g>
       <use xlink:href="#maa0ea0adbb" x="155.507346" y="228.96" style="stroke: #000000; stroke-width: 0.8"/>
      </g>
     </g>
     <g id="text_3">
      <!-- 3 -->
      <g transform="translate(152.326096 243.558437) scale(0.1 -0.1)">
       <defs>
        <path id="DejaVuSans-33" d="M 2597 2516 
Q 3050 2419 3304 2112 
Q 3559 1806 3559 1356 
Q 3559 666 3084 287 
Q 2609 -91 1734 -91 
Q 1441 -91 1130 -33 
Q 819 25 488 141 
L 488 750 
Q 750 597 1062 519 
Q 1375 441 1716 441 
Q 2309 441 2620 675 
Q 2931 909 2931 1356 
Q 2931 1769 2642 2001 
Q 2353 2234 1838 2234 
L 1294 2234 
L 1294 2753 
L 1863 2753 
Q 2328 2753 2575 2939 
Q 2822 3125 2822 3475 
Q 2822 3834 2567 4026 
Q 2313 4219 1838 4219 
Q 1578 4219 1281 4162 
Q 984 4106 628 3988 
L 628 4550 
Q 988 4650 1302 4700 
Q 1616 4750 1894 4750 
Q 2613 4750 3031 4423 
Q 3450 4097 3450 3541 
Q 3450 3153 3228 2886 
Q 3006 2619 2597 2516 
z
" transform="scale(0.015625)"/>
       </defs>
       <use xlink:href="#DejaVuSans-33"/>
      </g>
     </g>
    </g>
    <g id="xtick_4">
     <g id="line2d_4">
      <g>
       <use xlink:href="#maa0ea0adbb" x="198.987865" y="228.96" style="stroke: #000000; stroke-width: 0.8"/>
      </g>
     </g>
     <g id="text_4">
      <!-- 4 -->
      <g transform="translate(195.806615 243.558437) scale(0.1 -0.1)">
       <defs>
        <path id="DejaVuSans-34" d="M 2419 4116 
L 825 1625 
L 2419 1625 
L 2419 4116 
z
M 2253 4666 
L 3047 4666 
L 3047 1625 
L 3713 1625 
L 3713 1100 
L 3047 1100 
L 3047 0 
L 2419 0 
L 2419 1100 
L 313 1100 
L 313 1709 
L 2253 4666 
z
" transform="scale(0.015625)"/>
       </defs>
       <use xlink:href="#DejaVuSans-34"/>
      </g>
     </g>
    </g>
    <g id="xtick_5">
     <g id="line2d_5">
      <g>
       <use xlink:href="#maa0ea0adbb" x="242.468385" y="228.96" style="stroke: #000000; stroke-width: 0.8"/>
      </g>
     </g>
     <g id="text_5">
      <!-- 5 -->
      <g transform="translate(239.287135 243.558437) scale(0.1 -0.1)">
       <defs>
        <path id="DejaVuSans-35" d="M 691 4666 
L 3169 4666 
L 3169 4134 
L 1269 4134 
L 1269 2991 
Q 1406 3038 1543 3061 
Q 1681 3084 1819 3084 
Q 2600 3084 3056 2656 
Q 3513 2228 3513 1497 
Q 3513 744 3044 326 
Q 2575 -91 1722 -91 
Q 1428 -91 1123 -41 
Q 819 9 494 109 
L 494 744 
Q 775 591 1075 516 
Q 1375 441 1709 441 
Q 2250 441 2565 725 
Q 2881 1009 2881 1497 
Q 2881 1984 2565 2268 
Q 2250 2553 1709 2553 
Q 1456 2553 1204 2497 
Q 953 2441 691 2322 
L 691 4666 
z
" transform="scale(0.015625)"/>
       </defs>
       <use xlink:href="#DejaVuSans-35"/>
      </g>
     </g>
    </g>
    <g id="xtick_6">
     <g id="line2d_6">
      <g>
       <use xlink:href="#maa0ea0adbb" x="285.948904" y="228.96" style="stroke: #000000; stroke-width: 0.8"/>
      </g>
     </g>
     <g id="text_6">
      <!-- 6 -->
      <g transform="translate(282.767654 243.558437) scale(0.1 -0.1)">
       <defs>
        <path id="DejaVuSans-36" d="M 2113 2584 
Q 1688 2584 1439 2293 
Q 1191 2003 1191 1497 
Q 1191 994 1439 701 
Q 1688 409 2113 409 
Q 2538 409 2786 701 
Q 3034 994 3034 1497 
Q 3034 2003 2786 2293 
Q 2538 2584 2113 2584 
z
M 3366 4563 
L 3366 3988 
Q 3128 4100 2886 4159 
Q 2644 4219 2406 4219 
Q 1781 4219 1451 3797 
Q 1122 3375 1075 2522 
Q 1259 2794 1537 2939 
Q 1816 3084 2150 3084 
Q 2853 3084 3261 2657 
Q 3669 2231 3669 1497 
Q 3669 778 3244 343 
Q 2819 -91 2113 -91 
Q 1303 -91 875 529 
Q 447 1150 447 2328 
Q 447 3434 972 4092 
Q 1497 4750 2381 4750 
Q 2619 4750 2861 4703 
Q 3103 4656 3366 4563 
z
" transform="scale(0.015625)"/>
       </defs>
       <use xlink:href="#DejaVuSans-36"/>
      </g>
     </g>
    </g>
    <g id="xtick_7">
     <g id="line2d_7">
      <g>
       <use xlink:href="#maa0ea0adbb" x="329.429424" y="228.96" style="stroke: #000000; stroke-width: 0.8"/>
      </g>
     </g>
     <g id="text_7">
      <!-- 7 -->
      <g transform="translate(326.248174 243.558437) scale(0.1 -0.1)">
       <defs>
        <path id="DejaVuSans-37" d="M 525 4666 
L 3525 4666 
L 3525 4397 
L 1831 0 
L 1172 0 
L 2766 4134 
L 525 4134 
L 525 4666 
z
" transform="scale(0.015625)"/>
       </defs>
       <use xlink:href="#DejaVuSans-37"/>
      </g>
     </g>
    </g>
    <g id="xtick_8">
     <g id="line2d_8">
      <g>
       <use xlink:href="#maa0ea0adbb" x="372.909943" y="228.96" style="stroke: #000000; stroke-width: 0.8"/>
      </g>
     </g>
     <g id="text_8">
      <!-- 8 -->
      <g transform="translate(369.728693 243.558437) scale(0.1 -0.1)">
       <defs>
        <path id="DejaVuSans-38" d="M 2034 2216 
Q 1584 2216 1326 1975 
Q 1069 1734 1069 1313 
Q 1069 891 1326 650 
Q 1584 409 2034 409 
Q 2484 409 2743 651 
Q 3003 894 3003 1313 
Q 3003 1734 2745 1975 
Q 2488 2216 2034 2216 
z
M 1403 2484 
Q 997 2584 770 2862 
Q 544 3141 544 3541 
Q 544 4100 942 4425 
Q 1341 4750 2034 4750 
Q 2731 4750 3128 4425 
Q 3525 4100 3525 3541 
Q 3525 3141 3298 2862 
Q 3072 2584 2669 2484 
Q 3125 2378 3379 2068 
Q 3634 1759 3634 1313 
Q 3634 634 3220 271 
Q 2806 -91 2034 -91 
Q 1263 -91 848 271 
Q 434 634 434 1313 
Q 434 1759 690 2068 
Q 947 2378 1403 2484 
z
M 1172 3481 
Q 1172 3119 1398 2916 
Q 1625 2713 2034 2713 
Q 2441 2713 2670 2916 
Q 2900 3119 2900 3481 
Q 2900 3844 2670 4047 
Q 2441 4250 2034 4250 
Q 1625 4250 1398 4047 
Q 1172 3844 1172 3481 
z
" transform="scale(0.015625)"/>
       </defs>
       <use xlink:href="#DejaVuSans-38"/>
      </g>
     </g>
    </g>
    <g id="text_9">
     <!-- wavelength [Å] -->
     <g transform="translate(182.690625 258.920937) scale(0.1 -0.1)">
      <defs>
       <path id="DejaVuSans-77" d="M 269 3500 
L 844 3500 
L 1563 769 
L 2278 3500 
L 2956 3500 
L 3675 769 
L 4391 3500 
L 4966 3500 
L 4050 0 
L 3372 0 
L 2619 2869 
L 1863 0 
L 1184 0 
L 269 3500 
z
" transform="scale(0.015625)"/>
       <path id="DejaVuSans-61" d="M 2194 1759 
Q 1497 1759 1228 1600 
Q 959 1441 959 1056 
Q 959 750 1161 570 
Q 1363 391 1709 391 
Q 2188 391 2477 730 
Q 2766 1069 2766 1631 
L 2766 1759 
L 2194 1759 
z
M 3341 1997 
L 3341 0 
L 2766 0 
L 2766 531 
Q 2569 213 2275 61 
Q 1981 -91 1556 -91 
Q 1019 -91 701 211 
Q 384 513 384 1019 
Q 384 1609 779 1909 
Q 1175 2209 1959 2209 
L 2766 2209 
L 2766 2266 
Q 2766 2663 2505 2880 
Q 2244 3097 1772 3097 
Q 1472 3097 1187 3025 
Q 903 2953 641 2809 
L 641 3341 
Q 956 3463 1253 3523 
Q 1550 3584 1831 3584 
Q 2591 3584 2966 3190 
Q 3341 2797 3341 1997 
z
" transform="scale(0.015625)"/>
       <path id="DejaVuSans-76" d="M 191 3500 
L 800 3500 
L 1894 563 
L 2988 3500 
L 3597 3500 
L 2284 0 
L 1503 0 
L 191 3500 
z
" transform="scale(0.015625)"/>
       <path id="DejaVuSans-65" d="M 3597 1894 
L 3597 1613 
L 953 1613 
Q 991 1019 1311 708 
Q 1631 397 2203 397 
Q 2534 397 2845 478 
Q 3156 559 3463 722 
L 3463 178 
Q 3153 47 2828 -22 
Q 2503 -91 2169 -91 
Q 1331 -91 842 396 
Q 353 884 353 1716 
Q 353 2575 817 3079 
Q 1281 3584 2069 3584 
Q 2775 3584 3186 3129 
Q 3597 2675 3597 1894 
z
M 3022 2063 
Q 3016 2534 2758 2815 
Q 2500 3097 2075 3097 
Q 1594 3097 1305 2825 
Q 1016 2553 972 2059 
L 3022 2063 
z
" transform="scale(0.015625)"/>
       <path id="DejaVuSans-6c" d="M 603 4863 
L 1178 4863 
L 1178 0 
L 603 0 
L 603 4863 
z
" transform="scale(0.015625)"/>
       <path id="DejaVuSans-6e" d="M 3513 2113 
L 3513 0 
L 2938 0 
L 2938 2094 
Q 2938 2591 2744 2837 
Q 2550 3084 2163 3084 
Q 1697 3084 1428 2787 
Q 1159 2491 1159 1978 
L 1159 0 
L 581 0 
L 581 3500 
L 1159 3500 
L 1159 2956 
Q 1366 3272 1645 3428 
Q 1925 3584 2291 3584 
Q 2894 3584 3203 3211 
Q 3513 2838 3513 2113 
z
" transform="scale(0.015625)"/>
       <path id="DejaVuSans-67" d="M 2906 1791 
Q 2906 2416 2648 2759 
Q 2391 3103 1925 3103 
Q 1463 3103 1205 2759 
Q 947 2416 947 1791 
Q 947 1169 1205 825 
Q 1463 481 1925 481 
Q 2391 481 2648 825 
Q 2906 1169 2906 1791 
z
M 3481 434 
Q 3481 -459 3084 -895 
Q 2688 -1331 1869 -1331 
Q 1566 -1331 1297 -1286 
Q 1028 -1241 775 -1147 
L 775 -588 
Q 1028 -725 1275 -790 
Q 1522 -856 1778 -856 
Q 2344 -856 2625 -561 
Q 2906 -266 2906 331 
L 2906 616 
Q 2728 306 2450 153 
Q 2172 0 1784 0 
Q 1141 0 747 490 
Q 353 981 353 1791 
Q 353 2603 747 3093 
Q 1141 3584 1784 3584 
Q 2172 3584 2450 3431 
Q 2728 3278 2906 2969 
L 2906 3500 
L 3481 3500 
L 3481 434 
z
" transform="scale(0.015625)"/>
       <path id="DejaVuSans-74" d="M 1172 4494 
L 1172 3500 
L 2356 3500 
L 2356 3053 
L 1172 3053 
L 1172 1153 
Q 1172 725 1289 603 
Q 1406 481 1766 481 
L 2356 481 
L 2356 0 
L 1766 0 
Q 1100 0 847 248 
Q 594 497 594 1153 
L 594 3053 
L 172 3053 
L 172 3500 
L 594 3500 
L 594 4494 
L 1172 4494 
z
" transform="scale(0.015625)"/>
       <path id="DejaVuSans-68" d="M 3513 2113 
L 3513 0 
L 2938 0 
L 2938 2094 
Q 2938 2591 2744 2837 
Q 2550 3084 2163 3084 
Q 1697 3084 1428 2787 
Q 1159 2491 1159 1978 
L 1159 0 
L 581 0 
L 581 4863 
L 1159 4863 
L 1159 2956 
Q 1366 3272 1645 3428 
Q 1925 3584 2291 3584 
Q 2894 3584 3203 3211 
Q 3513 2838 3513 2113 
z
" transform="scale(0.015625)"/>
       <path id="DejaVuSans-20" transform="scale(0.015625)"/>
       <path id="DejaVuSans-5b" d="M 550 4863 
L 1875 4863 
L 1875 4416 
L 1125 4416 
L 1125 -397 
L 1875 -397 
L 1875 -844 
L 550 -844 
L 550 4863 
z
" transform="scale(0.015625)"/>
       <path id="DejaVuSans-c5" d="M 2663 5081 
Q 2663 5278 2523 5417 
Q 2384 5556 2188 5556 
Q 1988 5556 1852 5420 
Q 1716 5284 1716 5081 
Q 1716 4884 1853 4746 
Q 1991 4609 2188 4609 
Q 2384 4609 2523 4746 
Q 2663 4884 2663 5081 
z
M 2188 4044 
L 1338 1722 
L 3041 1722 
L 2188 4044 
z
M 1716 4366 
Q 1525 4494 1428 4673 
Q 1331 4853 1331 5081 
Q 1331 5441 1579 5691 
Q 1828 5941 2188 5941 
Q 2544 5941 2795 5689 
Q 3047 5438 3047 5081 
Q 3047 4863 2948 4678 
Q 2850 4494 2663 4366 
L 4325 0 
L 3669 0 
L 3244 1197 
L 1141 1197 
L 716 0 
L 50 0 
L 1716 4366 
z
" transform="scale(0.015625)"/>
       <path id="DejaVuSans-5d" d="M 1947 4863 
L 1947 -844 
L 622 -844 
L 622 -397 
L 1369 -397 
L 1369 4416 
L 622 4416 
L 622 4863 
L 1947 4863 
z
" transform="scale(0.015625)"/>
      </defs>
      <use xlink:href="#DejaVuSans-77"/>
      <use xlink:href="#DejaVuSans-61" transform="translate(81.787109 0)"/>
      <use xlink:href="#DejaVuSans-76" transform="translate(143.066406 0)"/>
      <use xlink:href="#DejaVuSans-65" transform="translate(202.246094 0)"/>
      <use xlink:href="#DejaVuSans-6c" transform="translate(263.769531 0)"/>
      <use xlink:href="#DejaVuSans-65" transform="translate(291.552734 0)"/>
      <use xlink:href="#DejaVuSans-6e" transform="translate(353.076172 0)"/>
      <use xlink:href="#DejaVuSans-67" transform="translate(416.455078 0)"/>
      <use xlink:href="#DejaVuSans-74" transform="translate(479.931641 0)"/>
      <use xlink:href="#DejaVuSans-68" transform="translate(519.140625 0)"/>
      <use xlink:href="#DejaVuSans-20" transform="translate(582.519531 0)"/>
      <use xlink:href="#DejaVuSans-5b" transform="translate(614.306641 0)"/>
      <use xlink:href="#DejaVuSans-c5" transform="translate(653.320312 0)"/>
      <use xlink:href="#DejaVuSans-5d" transform="translate(721.728516 0)"/>
     </g>
    </g>
   </g>
   <g id="matplotlib.axis_2">
    <g id="ytick_1">
     <g id="line2d_9">
      <defs>
       <path id="m75166881de" d="M 0 0 
L -3.5 0 
" style="stroke: #000000; stroke-width: 0.8"/>
      </defs>
      <g>
       <use xlink:href="#m75166881de" x="53.328125" y="218.88" style="stroke: #000000; stroke-width: 0.8"/>
      </g>
     </g>
     <g id="text_10">
      <!-- 0 -->
      <g transform="translate(39.965625 222.679219) scale(0.1 -0.1)">
       <defs>
        <path id="DejaVuSans-30" d="M 2034 4250 
Q 1547 4250 1301 3770 
Q 1056 3291 1056 2328 
Q 1056 1369 1301 889 
Q 1547 409 2034 409 
Q 2525 409 2770 889 
Q 3016 1369 3016 2328 
Q 3016 3291 2770 3770 
Q 2525 4250 2034 4250 
z
M 2034 4750 
Q 2819 4750 3233 4129 
Q 3647 3509 3647 2328 
Q 3647 1150 3233 529 
Q 2819 -91 2034 -91 
Q 1250 -91 836 529 
Q 422 1150 422 2328 
Q 422 3509 836 4129 
Q 1250 4750 2034 4750 
z
" transform="scale(0.015625)"/>
       </defs>
       <use xlink:href="#DejaVuSans-30"/>
      </g>
     </g>
    </g>
    <g id="ytick_2">
     <g id="line2d_10">
      <g>
       <use xlink:href="#m75166881de" x="53.328125" y="189.611707" style="stroke: #000000; stroke-width: 0.8"/>
      </g>
     </g>
     <g id="text_11">
      <!-- 1000 -->
      <g transform="translate(20.878125 193.410926) scale(0.1 -0.1)">
       <use xlink:href="#DejaVuSans-31"/>
       <use xlink:href="#DejaVuSans-30" transform="translate(63.623047 0)"/>
       <use xlink:href="#DejaVuSans-30" transform="translate(127.246094 0)"/>
       <use xlink:href="#DejaVuSans-30" transform="translate(190.869141 0)"/>
      </g>
     </g>
    </g>
    <g id="ytick_3">
     <g id="line2d_11">
      <g>
       <use xlink:href="#m75166881de" x="53.328125" y="160.343415" style="stroke: #000000; stroke-width: 0.8"/>
      </g>
     </g>
     <g id="text_12">
      <!-- 2000 -->
      <g transform="translate(20.878125 164.142633) scale(0.1 -0.1)">
       <use xlink:href="#DejaVuSans-32"/>
       <use xlink:href="#DejaVuSans-30" transform="translate(63.623047 0)"/>
       <use xlink:href="#DejaVuSans-30" transform="translate(127.246094 0)"/>
       <use xlink:href="#DejaVuSans-30" transform="translate(190.869141 0)"/>
      </g>
     </g>
    </g>
    <g id="ytick_4">
     <g id="line2d_12">
      <g>
       <use xlink:href="#m75166881de" x="53.328125" y="131.075122" style="stroke: #000000; stroke-width: 0.8"/>
      </g>
     </g>
     <g id="text_13">
      <!-- 3000 -->
      <g transform="translate(20.878125 134.874341) scale(0.1 -0.1)">
       <use xlink:href="#DejaVuSans-33"/>
       <use xlink:href="#DejaVuSans-30" transform="translate(63.623047 0)"/>
       <use xlink:href="#DejaVuSans-30" transform="translate(127.246094 0)"/>
       <use xlink:href="#DejaVuSans-30" transform="translate(190.869141 0)"/>
      </g>
     </g>
    </g>
    <g id="ytick_5">
     <g id="line2d_13">
      <g>
       <use xlink:href="#m75166881de" x="53.328125" y="101.806829" style="stroke: #000000; stroke-width: 0.8"/>
      </g>
     </g>
     <g id="text_14">
      <!-- 4000 -->
      <g transform="translate(20.878125 105.606048) scale(0.1 -0.1)">
       <use xlink:href="#DejaVuSans-34"/>
       <use xlink:href="#DejaVuSans-30" transform="translate(63.623047 0)"/>
       <use xlink:href="#DejaVuSans-30" transform="translate(127.246094 0)"/>
       <use xlink:href="#DejaVuSans-30" transform="translate(190.869141 0)"/>
      </g>
     </g>
    </g>
    <g id="ytick_6">
     <g id="line2d_14">
      <g>
       <use xlink:href="#m75166881de" x="53.328125" y="72.538537" style="stroke: #000000; stroke-width: 0.8"/>
      </g>
     </g>
     <g id="text_15">
      <!-- 5000 -->
      <g transform="translate(20.878125 76.337755) scale(0.1 -0.1)">
       <use xlink:href="#DejaVuSans-35"/>
       <use xlink:href="#DejaVuSans-30" transform="translate(63.623047 0)"/>
       <use xlink:href="#DejaVuSans-30" transform="translate(127.246094 0)"/>
       <use xlink:href="#DejaVuSans-30" transform="translate(190.869141 0)"/>
      </g>
     </g>
    </g>
    <g id="ytick_7">
     <g id="line2d_15">
      <g>
       <use xlink:href="#m75166881de" x="53.328125" y="43.270244" style="stroke: #000000; stroke-width: 0.8"/>
      </g>
     </g>
     <g id="text_16">
      <!-- 6000 -->
      <g transform="translate(20.878125 47.069463) scale(0.1 -0.1)">
       <use xlink:href="#DejaVuSans-36"/>
       <use xlink:href="#DejaVuSans-30" transform="translate(63.623047 0)"/>
       <use xlink:href="#DejaVuSans-30" transform="translate(127.246094 0)"/>
       <use xlink:href="#DejaVuSans-30" transform="translate(190.869141 0)"/>
      </g>
     </g>
    </g>
    <g id="ytick_8">
     <g id="line2d_16">
      <g>
       <use xlink:href="#m75166881de" x="53.328125" y="14.001951" style="stroke: #000000; stroke-width: 0.8"/>
      </g>
     </g>
     <g id="text_17">
      <!-- 7000 -->
      <g transform="translate(20.878125 17.80117) scale(0.1 -0.1)">
       <use xlink:href="#DejaVuSans-37"/>
       <use xlink:href="#DejaVuSans-30" transform="translate(63.623047 0)"/>
       <use xlink:href="#DejaVuSans-30" transform="translate(127.246094 0)"/>
       <use xlink:href="#DejaVuSans-30" transform="translate(190.869141 0)"/>
      </g>
     </g>
    </g>
    <g id="text_18">
     <!-- [counts] -->
     <g transform="translate(14.798438 138.6925) rotate(-90) scale(0.1 -0.1)">
      <defs>
       <path id="DejaVuSans-63" d="M 3122 3366 
L 3122 2828 
Q 2878 2963 2633 3030 
Q 2388 3097 2138 3097 
Q 1578 3097 1268 2742 
Q 959 2388 959 1747 
Q 959 1106 1268 751 
Q 1578 397 2138 397 
Q 2388 397 2633 464 
Q 2878 531 3122 666 
L 3122 134 
Q 2881 22 2623 -34 
Q 2366 -91 2075 -91 
Q 1284 -91 818 406 
Q 353 903 353 1747 
Q 353 2603 823 3093 
Q 1294 3584 2113 3584 
Q 2378 3584 2631 3529 
Q 2884 3475 3122 3366 
z
" transform="scale(0.015625)"/>
       <path id="DejaVuSans-6f" d="M 1959 3097 
Q 1497 3097 1228 2736 
Q 959 2375 959 1747 
Q 959 1119 1226 758 
Q 1494 397 1959 397 
Q 2419 397 2687 759 
Q 2956 1122 2956 1747 
Q 2956 2369 2687 2733 
Q 2419 3097 1959 3097 
z
M 1959 3584 
Q 2709 3584 3137 3096 
Q 3566 2609 3566 1747 
Q 3566 888 3137 398 
Q 2709 -91 1959 -91 
Q 1206 -91 779 398 
Q 353 888 353 1747 
Q 353 2609 779 3096 
Q 1206 3584 1959 3584 
z
" transform="scale(0.015625)"/>
       <path id="DejaVuSans-75" d="M 544 1381 
L 544 3500 
L 1119 3500 
L 1119 1403 
Q 1119 906 1312 657 
Q 1506 409 1894 409 
Q 2359 409 2629 706 
Q 2900 1003 2900 1516 
L 2900 3500 
L 3475 3500 
L 3475 0 
L 2900 0 
L 2900 538 
Q 2691 219 2414 64 
Q 2138 -91 1772 -91 
Q 1169 -91 856 284 
Q 544 659 544 1381 
z
M 1991 3584 
L 1991 3584 
z
" transform="scale(0.015625)"/>
       <path id="DejaVuSans-73" d="M 2834 3397 
L 2834 2853 
Q 2591 2978 2328 3040 
Q 2066 3103 1784 3103 
Q 1356 3103 1142 2972 
Q 928 2841 928 2578 
Q 928 2378 1081 2264 
Q 1234 2150 1697 2047 
L 1894 2003 
Q 2506 1872 2764 1633 
Q 3022 1394 3022 966 
Q 3022 478 2636 193 
Q 2250 -91 1575 -91 
Q 1294 -91 989 -36 
Q 684 19 347 128 
L 347 722 
Q 666 556 975 473 
Q 1284 391 1588 391 
Q 1994 391 2212 530 
Q 2431 669 2431 922 
Q 2431 1156 2273 1281 
Q 2116 1406 1581 1522 
L 1381 1569 
Q 847 1681 609 1914 
Q 372 2147 372 2553 
Q 372 3047 722 3315 
Q 1072 3584 1716 3584 
Q 2034 3584 2315 3537 
Q 2597 3491 2834 3397 
z
" transform="scale(0.015625)"/>
      </defs>
      <use xlink:href="#DejaVuSans-5b"/>
      <use xlink:href="#DejaVuSans-63" transform="translate(39.013672 0)"/>
      <use xlink:href="#DejaVuSans-6f" transform="translate(93.994141 0)"/>
      <use xlink:href="#DejaVuSans-75" transform="translate(155.175781 0)"/>
      <use xlink:href="#DejaVuSans-6e" transform="translate(218.554688 0)"/>
      <use xlink:href="#DejaVuSans-74" transform="translate(281.933594 0)"/>
      <use xlink:href="#DejaVuSans-73" transform="translate(321.142578 0)"/>
      <use xlink:href="#DejaVuSans-5d" transform="translate(373.242188 0)"/>
     </g>
    </g>
   </g>
   <g id="line2d_17">
    <path d="M 68.546307 218.88 
L 75.394489 218.88 
L 75.394489 218.762927 
L 76.916307 218.733659 
L 76.916307 218.645854 
L 77.677216 218.645854 
L 77.677216 218.821463 
L 78.438125 218.821463 
L 78.438125 218.675122 
L 80.720852 218.587317 
L 80.720852 218.382439 
L 81.481761 218.382439 
L 81.481761 218.52878 
L 82.24267 218.52878 
L 82.24267 218.353171 
L 83.00358 218.353171 
L 83.00358 218.645854 
L 83.764489 218.645854 
L 83.764489 218.52878 
L 84.525398 218.52878 
L 84.525398 218.645854 
L 85.286307 218.645854 
L 85.286307 218.470244 
L 86.047216 218.470244 
L 86.047216 218.148293 
L 88.329943 218.119024 
L 88.329943 218.411707 
L 89.090852 218.411707 
L 89.090852 217.797073 
L 90.61267 217.884878 
L 90.61267 217.416585 
L 91.37358 217.416585 
L 91.37358 217.884878 
L 92.134489 217.884878 
L 92.134489 217.68 
L 93.656307 217.68 
L 93.656307 216.977561 
L 94.417216 216.977561 
L 94.417216 217.358049 
L 95.178125 217.358049 
L 95.178125 217.182439 
L 95.939034 217.182439 
L 95.939034 216.509268 
L 97.460852 216.509268 
L 97.460852 216.772683 
L 98.221761 216.772683 
L 98.221761 216.099512 
L 98.98267 216.099512 
L 98.98267 215.953171 
L 99.74358 215.953171 
L 99.74358 214.606829 
L 102.026307 214.665366 
L 102.026307 213.933659 
L 102.787216 213.933659 
L 102.787216 213.553171 
L 103.548125 213.553171 
L 103.548125 212.323902 
L 105.069943 212.353171 
L 105.069943 211.006829 
L 105.830852 211.006829 
L 105.830852 209.543415 
L 106.591761 209.543415 
L 106.591761 210.362927 
L 107.35267 210.362927 
L 107.35267 208.401951 
L 108.11358 208.401951 
L 108.11358 204.801951 
L 108.874489 204.801951 
L 108.874489 204.158049 
L 109.635398 204.158049 
L 109.635398 204.392195 
L 110.396307 204.392195 
L 110.396307 202.021463 
L 111.918125 202.050732 
L 111.918125 196.226341 
L 112.679034 196.226341 
L 112.679034 191.953171 
L 113.439943 191.953171 
L 113.439943 189.406829 
L 114.200852 189.406829 
L 114.200852 189.582439 
L 114.961761 189.582439 
L 114.961761 186.333659 
L 115.72267 186.333659 
L 115.72267 183.05561 
L 116.48358 183.05561 
L 116.48358 176.440976 
L 117.244489 176.440976 
L 117.244489 173.045854 
L 118.005398 173.045854 
L 118.005398 170.997073 
L 118.766307 170.997073 
L 118.766307 171.845854 
L 119.527216 171.845854 
L 119.527216 164.236098 
L 120.288125 164.236098 
L 120.288125 160.577561 
L 121.049034 160.577561 
L 121.049034 160.284878 
L 121.809943 160.284878 
L 121.809943 151.68 
L 122.570852 151.68 
L 122.570852 147.611707 
L 123.331761 147.611707 
L 123.331761 142.109268 
L 124.09267 142.109268 
L 124.09267 141.348293 
L 124.85358 141.348293 
L 124.85358 139.914146 
L 125.614489 139.914146 
L 125.614489 131.484878 
L 126.375398 131.484878 
L 126.375398 124.958049 
L 127.136307 124.958049 
L 127.136307 125.982439 
L 127.897216 125.982439 
L 127.897216 116.119024 
L 128.658125 116.119024 
L 128.658125 113.397073 
L 129.419034 113.397073 
L 129.419034 104.323902 
L 130.179943 104.323902 
L 130.179943 104.645854 
L 130.940852 104.645854 
L 130.940852 102.450732 
L 131.701761 102.450732 
L 131.701761 88.606829 
L 132.46267 88.606829 
L 132.46267 91.32878 
L 133.22358 91.32878 
L 133.22358 86.119024 
L 133.984489 86.119024 
L 133.984489 73.065366 
L 134.745398 73.065366 
L 134.745398 63.084878 
L 135.506307 63.084878 
L 135.506307 70.343415 
L 136.267216 70.343415 
L 136.267216 51.72878 
L 137.028125 51.72878 
L 137.028125 63.933659 
L 137.789034 63.933659 
L 137.789034 59.28 
L 138.549943 59.28 
L 138.549943 48.684878 
L 139.310852 48.684878 
L 139.310852 52.343415 
L 140.071761 52.343415 
L 140.071761 61.182439 
L 140.83267 61.182439 
L 140.83267 42.421463 
L 141.59358 42.421463 
L 141.59358 46.870244 
L 142.354489 46.870244 
L 142.354489 42.187317 
L 143.115398 42.187317 
L 143.115398 44.499512 
L 143.876307 44.499512 
L 143.876307 41.865366 
L 144.637216 41.865366 
L 144.637216 50.089756 
L 145.398125 50.089756 
L 145.398125 33.406829 
L 146.159034 33.406829 
L 146.159034 48.216585 
L 146.919943 48.216585 
L 146.919943 39.992195 
L 147.680852 39.992195 
L 147.680852 33.787317 
L 148.441761 33.787317 
L 148.441761 39.23122 
L 149.20267 39.23122 
L 149.20267 37.416585 
L 149.96358 37.416585 
L 149.96358 24.948293 
L 150.724489 24.948293 
L 150.724489 28.372683 
L 151.485398 28.372683 
L 151.485398 36.538537 
L 153.007216 36.538537 
L 153.007216 31.299512 
L 153.768125 31.299512 
L 153.768125 41.514146 
L 154.529034 41.514146 
L 154.529034 21.582439 
L 155.289943 21.582439 
L 155.289943 34.577561 
L 156.050852 34.577561 
L 156.050852 36.772683 
L 156.811761 36.772683 
L 156.811761 34.92878 
L 157.57267 34.92878 
L 157.57267 34.197073 
L 158.33358 34.197073 
L 158.33358 43.738537 
L 159.094489 43.738537 
L 159.094489 28.43122 
L 159.855398 28.43122 
L 159.855398 35.660488 
L 160.616307 35.660488 
L 160.616307 44.119024 
L 161.377216 44.119024 
L 161.377216 23.923902 
L 162.138125 23.923902 
L 162.138125 47.953171 
L 162.899034 47.953171 
L 162.899034 21.172683 
L 163.659943 21.172683 
L 163.659943 61.123902 
L 164.420852 61.123902 
L 164.420852 35.894634 
L 165.181761 35.894634 
L 165.181761 33.348293 
L 165.94267 33.348293 
L 165.94267 53.63122 
L 166.70358 53.63122 
L 166.70358 30.040976 
L 167.464489 30.040976 
L 167.464489 17.28 
L 168.225398 17.28 
L 168.225398 51.084878 
L 168.986307 51.084878 
L 168.986307 32.265366 
L 169.747216 32.265366 
L 169.747216 47.953171 
L 170.508125 47.953171 
L 170.508125 36.889756 
L 171.269034 36.889756 
L 171.269034 46.050732 
L 172.029943 46.050732 
L 172.029943 47.865366 
L 172.790852 47.865366 
L 172.790852 53.45561 
L 173.551761 53.45561 
L 173.551761 49.211707 
L 174.31267 49.211707 
L 174.31267 68.323902 
L 175.07358 68.323902 
L 175.07358 48.860488 
L 175.834489 48.860488 
L 175.834489 69.553171 
L 176.595398 69.553171 
L 176.595398 59.572683 
L 177.356307 59.572683 
L 177.356307 68.821463 
L 178.117216 68.821463 
L 178.117216 67.240976 
L 178.878125 67.240976 
L 178.878125 62.587317 
L 179.639034 62.587317 
L 179.639034 87.611707 
L 180.399943 87.611707 
L 180.399943 68.88 
L 181.160852 68.88 
L 181.160852 80.645854 
L 181.921761 80.645854 
L 181.921761 68.558049 
L 182.68267 68.558049 
L 182.68267 79.182439 
L 183.44358 79.182439 
L 183.44358 77.397073 
L 184.204489 77.397073 
L 184.204489 86.997073 
L 184.965398 86.997073 
L 184.965398 88.987317 
L 185.726307 88.987317 
L 185.726307 80.997073 
L 186.487216 80.997073 
L 186.487216 90.948293 
L 187.248125 90.948293 
L 187.248125 87.319024 
L 188.009034 87.319024 
L 188.009034 91.884878 
L 188.769943 91.884878 
L 188.769943 102.040976 
L 189.530852 102.040976 
L 189.530852 88.489756 
L 190.291761 88.489756 
L 190.291761 95.192195 
L 191.05267 95.192195 
L 191.05267 97.036098 
L 191.81358 97.036098 
L 191.81358 105.23122 
L 192.574489 105.23122 
L 192.574489 101.953171 
L 193.335398 101.953171 
L 193.335398 105.787317 
L 194.096307 105.787317 
L 194.096307 107.28 
L 194.857216 107.28 
L 194.857216 106.08 
L 195.618125 106.08 
L 195.618125 103.85561 
L 196.379034 103.85561 
L 196.379034 113.250732 
L 197.139943 113.250732 
L 197.139943 106.665366 
L 197.900852 106.665366 
L 197.900852 113.162927 
L 198.661761 113.162927 
L 198.661761 110.70439 
L 199.42267 110.70439 
L 199.42267 115.123902 
L 200.18358 115.123902 
L 200.18358 118.460488 
L 200.944489 118.460488 
L 200.944489 112.489756 
L 201.705398 112.489756 
L 201.705398 117.026341 
L 202.466307 117.026341 
L 202.466307 115.709268 
L 203.227216 115.709268 
L 203.227216 134.353171 
L 203.988125 134.353171 
L 203.988125 121.533659 
L 204.749034 121.533659 
L 204.749034 123.465366 
L 205.509943 123.465366 
L 205.509943 127.85561 
L 206.270852 127.85561 
L 206.270852 118.197073 
L 207.031761 118.197073 
L 207.031761 130.050732 
L 207.79267 130.050732 
L 207.79267 121.358049 
L 208.55358 121.358049 
L 208.55358 129.845854 
L 209.314489 129.845854 
L 209.314489 133.182439 
L 210.075398 133.182439 
L 210.075398 135.319024 
L 210.836307 135.319024 
L 210.836307 125.10439 
L 211.597216 125.10439 
L 211.597216 143.133659 
L 212.358125 143.133659 
L 212.358125 135.611707 
L 213.119034 135.611707 
L 213.119034 131.689756 
L 213.879943 131.689756 
L 213.879943 143.133659 
L 214.640852 143.133659 
L 214.640852 124.43122 
L 215.401761 124.43122 
L 215.401761 147.699512 
L 216.16267 147.699512 
L 216.16267 134.177561 
L 216.92358 134.177561 
L 216.92358 145.738537 
L 217.684489 145.738537 
L 217.684489 137.63122 
L 218.445398 137.63122 
L 218.445398 146.440976 
L 219.206307 146.440976 
L 219.206307 144.801951 
L 219.967216 144.801951 
L 219.967216 139.211707 
L 220.728125 139.211707 
L 220.728125 150.567805 
L 221.489034 150.567805 
L 221.489034 141.494634 
L 222.249943 141.494634 
L 222.249943 150.626341 
L 223.010852 150.626341 
L 223.010852 149.572683 
L 223.771761 149.572683 
L 223.771761 150.684878 
L 224.53267 150.684878 
L 224.53267 150.011707 
L 225.29358 150.011707 
L 225.29358 155.572683 
L 226.054489 155.572683 
L 226.054489 147.377561 
L 226.815398 147.377561 
L 226.815398 157.797073 
L 227.576307 157.797073 
L 227.576307 146.850732 
L 228.337216 146.850732 
L 228.337216 158.616585 
L 229.098125 158.616585 
L 229.098125 148.284878 
L 229.859034 148.284878 
L 229.859034 161.982439 
L 230.619943 161.982439 
L 230.619943 147.377561 
L 231.380852 147.377561 
L 231.380852 160.723902 
L 232.141761 160.723902 
L 232.141761 158.119024 
L 232.90267 158.119024 
L 232.90267 157.738537 
L 233.66358 157.738537 
L 233.66358 158.909268 
L 234.424489 158.909268 
L 234.424489 160.694634 
L 235.185398 160.694634 
L 235.185398 155.63122 
L 235.946307 155.63122 
L 235.946307 167.133659 
L 236.707216 167.133659 
L 236.707216 157.621463 
L 237.468125 157.621463 
L 237.468125 165.90439 
L 238.229034 165.90439 
L 238.229034 161.689756 
L 238.989943 161.689756 
L 238.989943 165.172683 
L 239.750852 165.172683 
L 239.750852 162.070244 
L 240.511761 162.070244 
L 240.511761 166.284878 
L 241.27267 166.284878 
L 241.27267 165.582439 
L 242.03358 165.582439 
L 242.03358 170.03122 
L 242.794489 170.03122 
L 242.794489 163.709268 
L 243.555398 163.709268 
L 243.555398 172.489756 
L 244.316307 172.489756 
L 244.316307 168.626341 
L 245.077216 168.626341 
L 245.077216 170.119024 
L 245.838125 170.119024 
L 245.838125 173.045854 
L 246.599034 173.045854 
L 246.599034 174.65561 
L 247.359943 174.65561 
L 247.359943 169.416585 
L 248.120852 169.416585 
L 248.120852 172.753171 
L 248.881761 172.753171 
L 248.881761 172.987317 
L 249.64267 172.987317 
L 249.64267 178.723902 
L 250.40358 178.723902 
L 250.40358 177.143415 
L 251.164489 177.143415 
L 251.164489 173.748293 
L 251.925398 173.748293 
L 251.925398 181.475122 
L 252.686307 181.475122 
L 252.686307 174.772683 
L 253.447216 174.772683 
L 253.447216 179.162927 
L 254.208125 179.162927 
L 254.208125 175.562927 
L 254.969034 175.562927 
L 254.969034 185.953171 
L 255.729943 185.953171 
L 255.729943 184.343415 
L 256.490852 184.343415 
L 256.490852 179.28 
L 257.251761 179.28 
L 257.251761 189.962927 
L 258.01267 189.962927 
L 258.01267 186.65561 
L 258.77358 186.65561 
L 258.77358 186.860488 
L 259.534489 186.860488 
L 259.534489 189.845854 
L 260.295398 189.845854 
L 260.295398 185.016585 
L 261.056307 185.016585 
L 261.056307 190.899512 
L 261.817216 190.899512 
L 261.817216 191.10439 
L 262.578125 191.10439 
L 262.578125 190.460488 
L 263.339034 190.460488 
L 263.339034 194.119024 
L 264.099943 194.119024 
L 264.099943 190.138537 
L 264.860852 190.138537 
L 264.860852 193.094634 
L 265.621761 193.094634 
L 265.621761 196.050732 
L 266.38267 196.050732 
L 266.38267 195.026341 
L 267.14358 195.026341 
L 267.14358 195.289756 
L 268.665398 195.319024 
L 268.665398 197.719024 
L 269.426307 197.719024 
L 269.426307 198.30439 
L 270.187216 198.30439 
L 270.187216 196.167805 
L 270.948125 196.167805 
L 270.948125 198.977561 
L 271.709034 198.977561 
L 271.709034 198.65561 
L 272.469943 198.65561 
L 272.469943 200.587317 
L 273.230852 200.587317 
L 273.230852 200.236098 
L 273.991761 200.236098 
L 273.991761 202.694634 
L 274.75267 202.694634 
L 274.75267 201.348293 
L 275.51358 201.348293 
L 275.51358 203.28 
L 276.274489 203.28 
L 276.274489 203.016585 
L 277.035398 203.016585 
L 277.035398 201.90439 
L 277.796307 201.90439 
L 277.796307 206.52878 
L 278.557216 206.52878 
L 278.557216 203.397073 
L 279.318125 203.397073 
L 279.318125 205.826341 
L 280.079034 205.826341 
L 280.079034 204.245854 
L 280.839943 204.245854 
L 280.839943 205.709268 
L 281.600852 205.709268 
L 281.600852 207.670244 
L 282.361761 207.670244 
L 282.361761 207.523902 
L 283.12267 207.523902 
L 283.12267 206.03122 
L 283.88358 206.03122 
L 283.88358 207.787317 
L 284.644489 207.787317 
L 284.644489 210.714146 
L 285.405398 210.714146 
L 285.405398 207.699512 
L 286.166307 207.699512 
L 286.166307 210.011707 
L 286.927216 210.011707 
L 286.927216 207.611707 
L 287.688125 207.611707 
L 287.688125 211.182439 
L 288.449034 211.182439 
L 288.449034 211.826341 
L 289.209943 211.826341 
L 289.209943 210.714146 
L 289.970852 210.714146 
L 289.970852 209.045854 
L 290.731761 209.045854 
L 290.731761 213.084878 
L 291.49267 213.084878 
L 291.49267 212.850732 
L 292.25358 212.850732 
L 292.25358 211.211707 
L 293.014489 211.211707 
L 293.014489 214.226341 
L 293.775398 214.226341 
L 293.775398 213.72878 
L 294.536307 213.72878 
L 294.536307 212.440976 
L 295.297216 212.440976 
L 295.297216 213.875122 
L 296.058125 213.875122 
L 296.058125 215.133659 
L 296.819034 215.133659 
L 296.819034 214.109268 
L 297.579943 214.109268 
L 297.579943 214.343415 
L 298.340852 214.343415 
L 298.340852 215.367805 
L 299.101761 215.367805 
L 299.101761 215.982439 
L 300.62358 216.011707 
L 300.62358 216.450732 
L 301.384489 216.450732 
L 301.384489 216.216585 
L 302.145398 216.216585 
L 302.145398 216.65561 
L 302.906307 216.65561 
L 302.906307 216.919024 
L 303.667216 216.919024 
L 303.667216 216.333659 
L 304.428125 216.333659 
L 304.428125 216.889756 
L 305.189034 216.889756 
L 305.189034 217.533659 
L 305.949943 217.533659 
L 305.949943 217.358049 
L 306.710852 217.358049 
L 306.710852 217.943415 
L 308.99358 218.03122 
L 308.99358 218.177561 
L 309.754489 218.177561 
L 309.754489 218.382439 
L 310.515398 218.382439 
L 310.515398 218.616585 
L 311.276307 218.616585 
L 311.276307 218.821463 
L 372.909943 218.88 
L 372.909943 218.88 
" clip-path="url(#p705cd9d586)" style="fill: none; stroke: #1f77b4; stroke-width: 1.5; stroke-linecap: square"/>
   </g>
   <g id="line2d_18">
    <path d="M 68.546307 218.88 
L 79.199034 218.88 
L 79.199034 218.587317 
L 80.720852 218.616585 
L 80.720852 218.382439 
L 81.481761 218.382439 
L 81.481761 218.587317 
L 82.24267 218.587317 
L 82.24267 218.733659 
L 84.525398 218.645854 
L 84.525398 218.382439 
L 87.569034 218.382439 
L 87.569034 218.265366 
L 88.329943 218.265366 
L 88.329943 218.119024 
L 89.090852 218.119024 
L 89.090852 217.592195 
L 89.851761 217.592195 
L 89.851761 217.884878 
L 90.61267 217.884878 
L 90.61267 217.709268 
L 91.37358 217.709268 
L 91.37358 217.884878 
L 92.134489 217.884878 
L 92.134489 217.621463 
L 92.895398 217.621463 
L 92.895398 217.387317 
L 93.656307 217.387317 
L 93.656307 217.650732 
L 94.417216 217.650732 
L 94.417216 217.094634 
L 95.178125 217.094634 
L 95.178125 216.65561 
L 95.939034 216.65561 
L 95.939034 217.240976 
L 96.699943 217.240976 
L 96.699943 215.894634 
L 97.460852 215.894634 
L 97.460852 216.626341 
L 98.98267 216.538537 
L 98.98267 215.397073 
L 99.74358 215.397073 
L 99.74358 214.958049 
L 100.504489 214.958049 
L 100.504489 214.519024 
L 101.265398 214.519024 
L 101.265398 214.840976 
L 102.026307 214.840976 
L 102.026307 214.577561 
L 102.787216 214.577561 
L 102.787216 212.616585 
L 103.548125 212.616585 
L 103.548125 212.850732 
L 104.309034 212.850732 
L 104.309034 212.294634 
L 105.069943 212.294634 
L 105.069943 211.240976 
L 105.830852 211.240976 
L 105.830852 208.723902 
L 106.591761 208.723902 
L 106.591761 209.63122 
L 107.35267 209.63122 
L 107.35267 208.050732 
L 108.11358 208.050732 
L 108.11358 205.767805 
L 108.874489 205.767805 
L 108.874489 204.245854 
L 109.635398 204.245854 
L 109.635398 205.153171 
L 110.396307 205.153171 
L 110.396307 201.640976 
L 111.157216 201.640976 
L 111.157216 198.275122 
L 111.918125 198.275122 
L 111.918125 197.221463 
L 112.679034 197.221463 
L 112.679034 194.382439 
L 113.439943 194.382439 
L 113.439943 191.572683 
L 114.200852 191.572683 
L 114.200852 187.094634 
L 114.961761 187.094634 
L 114.961761 186.070244 
L 115.72267 186.070244 
L 115.72267 179.689756 
L 116.48358 179.689756 
L 116.48358 178.021463 
L 117.244489 178.021463 
L 117.244489 174.30439 
L 118.005398 174.30439 
L 118.005398 173.28 
L 118.766307 173.28 
L 118.766307 168.245854 
L 119.527216 168.245854 
L 119.527216 161.953171 
L 120.288125 161.953171 
L 120.288125 163.32878 
L 121.049034 163.32878 
L 121.049034 158.323902 
L 121.809943 158.323902 
L 121.809943 151.094634 
L 122.570852 151.094634 
L 122.570852 147.699512 
L 123.331761 147.699512 
L 123.331761 147.084878 
L 124.09267 147.084878 
L 124.09267 138.567805 
L 124.85358 138.567805 
L 124.85358 137.660488 
L 125.614489 137.660488 
L 125.614489 127.533659 
L 127.136307 127.592195 
L 127.136307 124.489756 
L 127.897216 124.489756 
L 127.897216 118.050732 
L 128.658125 118.050732 
L 128.658125 110.733659 
L 129.419034 110.733659 
L 129.419034 106.167805 
L 130.179943 106.167805 
L 130.179943 106.840976 
L 130.940852 106.840976 
L 130.940852 98.997073 
L 131.701761 98.997073 
L 131.701761 89.572683 
L 132.46267 89.572683 
L 132.46267 85.592195 
L 133.22358 85.592195 
L 133.22358 82.840976 
L 133.984489 82.840976 
L 133.984489 80.558049 
L 134.745398 80.558049 
L 134.745398 68.88 
L 135.506307 68.88 
L 135.506307 60.30439 
L 136.267216 60.30439 
L 136.267216 59.45561 
L 137.028125 59.45561 
L 137.028125 56.52878 
L 137.789034 56.52878 
L 137.789034 63.348293 
L 138.549943 63.348293 
L 138.549943 44.499512 
L 139.310852 44.499512 
L 139.310852 51.816585 
L 140.071761 51.816585 
L 140.071761 50.675122 
L 140.83267 50.675122 
L 140.83267 51.670244 
L 141.59358 51.670244 
L 141.59358 49.153171 
L 142.354489 49.153171 
L 142.354489 44.587317 
L 143.115398 44.587317 
L 143.115398 50.323902 
L 143.876307 50.323902 
L 143.876307 34.811707 
L 144.637216 34.811707 
L 144.637216 39.90439 
L 145.398125 39.90439 
L 145.398125 57.553171 
L 146.159034 57.553171 
L 146.159034 29.309268 
L 146.919943 29.309268 
L 146.919943 37.094634 
L 147.680852 37.094634 
L 147.680852 39.640976 
L 148.441761 39.640976 
L 148.441761 34.138537 
L 149.20267 34.138537 
L 149.20267 32.294634 
L 149.96358 32.294634 
L 149.96358 34.606829 
L 150.724489 34.606829 
L 150.724489 25.826341 
L 151.485398 25.826341 
L 151.485398 40.138537 
L 152.246307 40.138537 
L 152.246307 26.850732 
L 153.007216 26.850732 
L 153.007216 39.026341 
L 153.768125 39.026341 
L 153.768125 32.411707 
L 154.529034 32.411707 
L 154.529034 37.972683 
L 155.289943 37.972683 
L 155.289943 39.377561 
L 156.050852 39.377561 
L 156.050852 35.63122 
L 156.811761 35.63122 
L 156.811761 32.265366 
L 157.57267 32.265366 
L 157.57267 26.792195 
L 158.33358 26.792195 
L 158.33358 31.826341 
L 159.094489 31.826341 
L 159.094489 45.23122 
L 159.855398 45.23122 
L 159.855398 39.845854 
L 160.616307 39.845854 
L 160.616307 37.036098 
L 161.377216 37.036098 
L 161.377216 34.489756 
L 162.138125 34.489756 
L 162.138125 33.436098 
L 162.899034 33.436098 
L 162.899034 38.997073 
L 163.659943 38.997073 
L 163.659943 39.260488 
L 164.420852 39.260488 
L 164.420852 48.48 
L 165.181761 48.48 
L 165.181761 34.811707 
L 165.94267 34.811707 
L 165.94267 42.275122 
L 166.70358 42.275122 
L 166.70358 39.875122 
L 167.464489 39.875122 
L 167.464489 31.416585 
L 168.225398 31.416585 
L 168.225398 43.884878 
L 168.986307 43.884878 
L 168.986307 41.10439 
L 169.747216 41.10439 
L 169.747216 49.182439 
L 170.508125 49.182439 
L 170.508125 41.397073 
L 171.269034 41.397073 
L 171.269034 42.48 
L 172.029943 42.48 
L 172.029943 48.158049 
L 172.790852 48.158049 
L 172.790852 50.177561 
L 173.551761 50.177561 
L 173.551761 58.284878 
L 174.31267 58.284878 
L 174.31267 56.03122 
L 175.07358 56.03122 
L 175.07358 52.958049 
L 175.834489 52.958049 
L 175.834489 65.367805 
L 176.595398 65.367805 
L 176.595398 60.187317 
L 177.356307 60.187317 
L 177.356307 62.440976 
L 178.117216 62.440976 
L 178.117216 73.036098 
L 178.878125 73.036098 
L 178.878125 72.48 
L 179.639034 72.48 
L 179.639034 67.182439 
L 180.399943 67.182439 
L 180.399943 76.109268 
L 181.160852 76.109268 
L 181.160852 79.094634 
L 181.921761 79.094634 
L 181.921761 76.284878 
L 182.68267 76.284878 
L 182.68267 79.182439 
L 183.44358 79.182439 
L 183.44358 82.25561 
L 184.204489 82.25561 
L 184.204489 79.621463 
L 184.965398 79.621463 
L 184.965398 78.889756 
L 185.726307 78.889756 
L 185.726307 91.738537 
L 186.487216 91.738537 
L 186.487216 90.099512 
L 187.248125 90.099512 
L 187.248125 93.05561 
L 188.009034 93.05561 
L 188.009034 94.43122 
L 188.769943 94.43122 
L 188.769943 89.133659 
L 189.530852 89.133659 
L 189.530852 80.499512 
L 190.291761 80.499512 
L 190.291761 109.85561 
L 191.05267 109.85561 
L 191.05267 102.362927 
L 191.81358 102.362927 
L 191.81358 104.148293 
L 192.574489 104.148293 
L 192.574489 101.075122 
L 193.335398 101.075122 
L 193.335398 105.494634 
L 194.096307 105.494634 
L 194.096307 107.133659 
L 194.857216 107.133659 
L 194.857216 104.089756 
L 195.618125 104.089756 
L 195.618125 107.543415 
L 196.379034 107.543415 
L 196.379034 104.762927 
L 197.139943 104.762927 
L 197.139943 110.236098 
L 197.900852 110.236098 
L 197.900852 108.801951 
L 198.661761 108.801951 
L 198.661761 114.889756 
L 199.42267 114.889756 
L 199.42267 113.367805 
L 200.18358 113.367805 
L 200.18358 112.723902 
L 200.944489 112.723902 
L 200.944489 118.343415 
L 201.705398 118.343415 
L 201.705398 119.543415 
L 202.466307 119.543415 
L 202.466307 122.382439 
L 203.227216 122.382439 
L 203.227216 126.83122 
L 203.988125 126.83122 
L 203.988125 115.826341 
L 204.749034 115.826341 
L 204.749034 123.465366 
L 205.509943 123.465366 
L 205.509943 125.777561 
L 206.270852 125.777561 
L 206.270852 123.465366 
L 207.031761 123.465366 
L 207.031761 120.714146 
L 207.79267 120.714146 
L 207.79267 128.675122 
L 208.55358 128.675122 
L 208.55358 136.021463 
L 209.314489 136.021463 
L 209.314489 128.675122 
L 210.075398 128.675122 
L 210.075398 136.460488 
L 210.836307 136.460488 
L 210.836307 134.616585 
L 211.597216 134.616585 
L 211.597216 130.43122 
L 212.358125 130.43122 
L 212.358125 126.245854 
L 213.119034 126.245854 
L 213.119034 136.314146 
L 213.879943 136.314146 
L 213.879943 135.289756 
L 214.640852 135.289756 
L 214.640852 142.25561 
L 215.401761 142.25561 
L 215.401761 141.962927 
L 216.16267 141.962927 
L 216.16267 136.753171 
L 216.92358 136.753171 
L 216.92358 141.172683 
L 217.684489 141.172683 
L 217.684489 149.777561 
L 218.445398 149.777561 
L 218.445398 138.040976 
L 219.206307 138.040976 
L 219.206307 139.884878 
L 219.967216 139.884878 
L 219.967216 148.489756 
L 220.728125 148.489756 
L 220.728125 144.83122 
L 221.489034 144.83122 
L 221.489034 142.92878 
L 222.249943 142.92878 
L 222.249943 150.860488 
L 223.010852 150.860488 
L 223.010852 147.05561 
L 223.771761 147.05561 
L 223.771761 146.440976 
L 224.53267 146.440976 
L 224.53267 156.567805 
L 225.29358 156.567805 
L 225.29358 152.353171 
L 226.054489 152.353171 
L 226.054489 148.43122 
L 226.815398 148.43122 
L 226.815398 152.060488 
L 227.576307 152.060488 
L 227.576307 152.850732 
L 229.098125 152.909268 
L 229.098125 161.397073 
L 229.859034 161.397073 
L 229.859034 154.753171 
L 230.619943 154.753171 
L 230.619943 153.172683 
L 231.380852 153.172683 
L 231.380852 155.162927 
L 232.141761 155.162927 
L 232.141761 155.338537 
L 232.90267 155.338537 
L 232.90267 157.182439 
L 233.66358 157.182439 
L 233.66358 163.270244 
L 234.424489 163.270244 
L 234.424489 157.943415 
L 235.185398 157.943415 
L 235.185398 161.543415 
L 235.946307 161.543415 
L 235.946307 164.411707 
L 236.707216 164.411707 
L 236.707216 161.45561 
L 237.468125 161.45561 
L 237.468125 162.099512 
L 238.229034 162.099512 
L 238.229034 163.240976 
L 239.750852 163.182439 
L 239.750852 162.216585 
L 240.511761 162.216585 
L 240.511761 171.582439 
L 241.27267 171.582439 
L 241.27267 164.675122 
L 242.03358 164.675122 
L 242.03358 166.92878 
L 242.794489 166.92878 
L 242.794489 165.582439 
L 243.555398 165.582439 
L 243.555398 166.460488 
L 244.316307 166.460488 
L 244.316307 169.094634 
L 245.077216 169.094634 
L 245.077216 175.065366 
L 245.838125 175.065366 
L 245.838125 171.962927 
L 246.599034 171.962927 
L 246.599034 175.445854 
L 247.359943 175.445854 
L 247.359943 168.597073 
L 248.120852 168.597073 
L 248.120852 175.211707 
L 248.881761 175.211707 
L 248.881761 175.036098 
L 249.64267 175.036098 
L 249.64267 178.138537 
L 250.40358 178.138537 
L 250.40358 169.709268 
L 251.164489 169.709268 
L 251.164489 179.719024 
L 251.925398 179.719024 
L 251.925398 173.689756 
L 252.686307 173.689756 
L 252.686307 182.967805 
L 253.447216 182.967805 
L 253.447216 174.099512 
L 254.208125 174.099512 
L 254.208125 181.621463 
L 254.969034 181.621463 
L 254.969034 181.182439 
L 255.729943 181.182439 
L 255.729943 187.006829 
L 256.490852 187.006829 
L 256.490852 185.572683 
L 257.251761 185.572683 
L 257.251761 181.036098 
L 258.01267 181.036098 
L 258.01267 189.494634 
L 258.77358 189.494634 
L 258.77358 182.382439 
L 259.534489 182.382439 
L 259.534489 190.519024 
L 260.295398 190.519024 
L 260.295398 186.011707 
L 261.056307 186.011707 
L 261.056307 186.30439 
L 261.817216 186.30439 
L 261.817216 195.523902 
L 262.578125 195.523902 
L 262.578125 192.12878 
L 263.339034 192.12878 
L 263.339034 192.450732 
L 264.099943 192.450732 
L 264.099943 191.865366 
L 264.860852 191.865366 
L 264.860852 193.533659 
L 265.621761 193.533659 
L 265.621761 191.777561 
L 266.38267 191.777561 
L 266.38267 195.465366 
L 267.14358 195.465366 
L 267.14358 195.845854 
L 267.904489 195.845854 
L 267.904489 196.021463 
L 268.665398 196.021463 
L 268.665398 196.723902 
L 269.426307 196.723902 
L 269.426307 198.216585 
L 270.187216 198.216585 
L 270.187216 197.953171 
L 270.948125 197.953171 
L 270.948125 197.748293 
L 271.709034 197.748293 
L 271.709034 197.601951 
L 272.469943 197.601951 
L 272.469943 200.177561 
L 273.230852 200.177561 
L 273.230852 203.397073 
L 273.991761 203.397073 
L 273.991761 200.440976 
L 274.75267 200.440976 
L 274.75267 202.343415 
L 275.51358 202.343415 
L 275.51358 201.084878 
L 276.274489 201.084878 
L 276.274489 203.806829 
L 277.035398 203.806829 
L 277.035398 203.367805 
L 277.796307 203.367805 
L 277.796307 204.040976 
L 278.557216 204.040976 
L 278.557216 205.32878 
L 279.318125 205.32878 
L 279.318125 203.865366 
L 280.079034 203.865366 
L 280.079034 206.411707 
L 280.839943 206.411707 
L 280.839943 203.63122 
L 281.600852 203.63122 
L 281.600852 207.640976 
L 282.361761 207.640976 
L 282.361761 207.406829 
L 283.88358 207.494634 
L 283.88358 209.016585 
L 284.644489 209.016585 
L 284.644489 208.167805 
L 285.405398 208.167805 
L 285.405398 207.90439 
L 286.166307 207.90439 
L 286.166307 209.309268 
L 286.927216 209.309268 
L 286.927216 209.865366 
L 287.688125 209.865366 
L 287.688125 209.367805 
L 288.449034 209.367805 
L 288.449034 211.036098 
L 289.209943 211.036098 
L 289.209943 210.538537 
L 289.970852 210.538537 
L 289.970852 212.089756 
L 290.731761 212.089756 
L 290.731761 211.533659 
L 291.49267 211.533659 
L 291.49267 212.762927 
L 292.25358 212.762927 
L 292.25358 212.323902 
L 293.014489 212.323902 
L 293.014489 213.05561 
L 293.775398 213.05561 
L 293.775398 212.909268 
L 294.536307 212.909268 
L 294.536307 212.792195 
L 295.297216 212.792195 
L 295.297216 214.636098 
L 296.819034 214.694634 
L 296.819034 213.90439 
L 297.579943 213.90439 
L 297.579943 214.401951 
L 298.340852 214.401951 
L 298.340852 215.719024 
L 299.86267 215.748293 
L 299.86267 215.982439 
L 300.62358 215.982439 
L 300.62358 216.216585 
L 301.384489 216.216585 
L 301.384489 216.567805 
L 302.906307 216.567805 
L 302.906307 216.684878 
L 303.667216 216.684878 
L 303.667216 216.509268 
L 304.428125 216.509268 
L 304.428125 216.889756 
L 305.189034 216.889756 
L 305.189034 217.50439 
L 305.949943 217.50439 
L 305.949943 217.387317 
L 306.710852 217.387317 
L 306.710852 217.884878 
L 308.23267 217.914146 
L 308.23267 218.001951 
L 308.99358 218.001951 
L 308.99358 218.206829 
L 309.754489 218.206829 
L 309.754489 218.353171 
L 310.515398 218.353171 
L 310.515398 218.616585 
L 311.276307 218.616585 
L 311.276307 218.821463 
L 372.909943 218.88 
L 372.909943 218.88 
" clip-path="url(#p705cd9d586)" style="fill: none; stroke: #ff7f0e; stroke-width: 1.5; stroke-linecap: square"/>
   </g>
   <g id="line2d_19">
    <path d="M 68.546307 218.88 
L 76.155398 218.792195 
L 76.155398 218.675122 
L 77.677216 218.645854 
L 77.677216 218.821463 
L 78.438125 218.821463 
L 78.438125 218.70439 
L 79.199034 218.70439 
L 79.199034 218.587317 
L 80.720852 218.587317 
L 80.720852 218.411707 
L 81.481761 218.411707 
L 81.481761 218.616585 
L 82.24267 218.616585 
L 82.24267 218.440976 
L 83.764489 218.470244 
L 83.764489 218.616585 
L 84.525398 218.616585 
L 84.525398 218.382439 
L 86.808125 218.440976 
L 86.808125 218.177561 
L 88.329943 218.236098 
L 88.329943 217.972683 
L 89.851761 217.943415 
L 89.851761 217.562927 
L 90.61267 217.562927 
L 90.61267 217.943415 
L 92.134489 217.85561 
L 92.134489 217.797073 
L 92.895398 217.797073 
L 92.895398 217.475122 
L 94.417216 217.416585 
L 94.417216 216.860488 
L 95.178125 216.860488 
L 95.178125 217.065366 
L 95.939034 217.065366 
L 95.939034 216.801951 
L 96.699943 216.801951 
L 96.699943 216.275122 
L 97.460852 216.275122 
L 97.460852 216.538537 
L 98.221761 216.538537 
L 98.221761 216.187317 
L 98.98267 216.187317 
L 98.98267 215.865366 
L 99.74358 215.865366 
L 99.74358 214.958049 
L 100.504489 214.958049 
L 100.504489 214.723902 
L 101.265398 214.723902 
L 101.265398 215.045854 
L 102.026307 215.045854 
L 102.026307 213.72878 
L 102.787216 213.72878 
L 102.787216 213.23122 
L 103.548125 213.23122 
L 103.548125 212.675122 
L 104.309034 212.675122 
L 104.309034 211.738537 
L 105.069943 211.738537 
L 105.069943 210.567805 
L 105.830852 210.567805 
L 105.830852 209.338537 
L 106.591761 209.338537 
L 106.591761 208.987317 
L 107.35267 208.987317 
L 107.35267 209.309268 
L 108.11358 209.309268 
L 108.11358 206.03122 
L 108.874489 206.03122 
L 108.874489 204.83122 
L 109.635398 204.83122 
L 109.635398 203.426341 
L 110.396307 203.426341 
L 110.396307 201.436098 
L 111.157216 201.436098 
L 111.157216 198.362927 
L 111.918125 198.362927 
L 111.918125 196.840976 
L 112.679034 196.840976 
L 112.679034 194.411707 
L 113.439943 194.411707 
L 113.439943 191.894634 
L 114.200852 191.894634 
L 114.200852 187.709268 
L 114.961761 187.709268 
L 114.961761 183.465366 
L 115.72267 183.465366 
L 115.72267 182.616585 
L 116.48358 182.616585 
L 116.48358 177.026341 
L 117.244489 177.026341 
L 117.244489 173.162927 
L 118.005398 173.162927 
L 118.005398 173.045854 
L 118.766307 173.045854 
L 118.766307 168.567805 
L 119.527216 168.567805 
L 119.527216 164.821463 
L 120.288125 164.821463 
L 120.288125 159.611707 
L 121.809943 159.699512 
L 121.809943 152.909268 
L 122.570852 152.909268 
L 122.570852 149.836098 
L 123.331761 149.836098 
L 123.331761 140.88 
L 124.09267 140.88 
L 124.09267 139.738537 
L 124.85358 139.738537 
L 124.85358 136.109268 
L 125.614489 136.109268 
L 125.614489 130.519024 
L 126.375398 130.519024 
L 126.375398 125.777561 
L 127.136307 125.777561 
L 127.136307 120.743415 
L 127.897216 120.743415 
L 127.897216 119.28 
L 128.658125 119.28 
L 128.658125 114.421463 
L 129.419034 114.421463 
L 129.419034 109.036098 
L 130.179943 109.036098 
L 130.179943 99.875122 
L 130.940852 99.875122 
L 130.940852 98.558049 
L 131.701761 98.558049 
L 131.701761 92.323902 
L 132.46267 92.323902 
L 132.46267 85.943415 
L 133.22358 85.943415 
L 133.22358 82.226341 
L 133.984489 82.226341 
L 133.984489 77.719024 
L 134.745398 77.719024 
L 134.745398 72.509268 
L 135.506307 72.509268 
L 135.506307 60.011707 
L 136.267216 60.011707 
L 136.267216 55.182439 
L 137.028125 55.182439 
L 137.028125 58.050732 
L 137.789034 58.050732 
L 137.789034 58.25561 
L 138.549943 58.25561 
L 138.549943 56.440976 
L 139.310852 56.440976 
L 139.310852 52.401951 
L 140.071761 52.401951 
L 140.071761 47.836098 
L 140.83267 47.836098 
L 140.83267 47.953171 
L 141.59358 47.953171 
L 141.59358 50.060488 
L 142.354489 50.060488 
L 142.354489 43.914146 
L 143.115398 43.914146 
L 143.115398 44.499512 
L 143.876307 44.499512 
L 143.876307 44.909268 
L 144.637216 44.909268 
L 144.637216 38.616585 
L 145.398125 38.616585 
L 145.398125 39.875122 
L 146.159034 39.875122 
L 146.159034 38.558049 
L 146.919943 38.558049 
L 146.919943 37.270244 
L 147.680852 37.270244 
L 147.680852 37.445854 
L 148.441761 37.445854 
L 148.441761 34.284878 
L 149.20267 34.284878 
L 149.20267 31.182439 
L 149.96358 31.182439 
L 149.96358 36.948293 
L 150.724489 36.948293 
L 150.724489 34.811707 
L 151.485398 34.811707 
L 151.485398 31.797073 
L 152.246307 31.797073 
L 152.246307 34.665366 
L 153.007216 34.665366 
L 153.007216 34.401951 
L 153.768125 34.401951 
L 153.768125 36.48 
L 154.529034 36.48 
L 154.529034 36.070244 
L 155.289943 36.070244 
L 155.289943 33.494634 
L 156.050852 33.494634 
L 156.050852 39.670244 
L 156.811761 39.670244 
L 156.811761 32.616585 
L 157.57267 32.616585 
L 157.57267 30.040976 
L 158.33358 30.040976 
L 158.33358 36.684878 
L 159.094489 36.684878 
L 159.094489 37.972683 
L 159.855398 37.972683 
L 159.855398 37.709268 
L 160.616307 37.709268 
L 160.616307 35.016585 
L 161.377216 35.016585 
L 161.377216 37.358049 
L 162.138125 37.358049 
L 162.138125 36.12878 
L 162.899034 36.12878 
L 162.899034 35.367805 
L 163.659943 35.367805 
L 163.659943 43.621463 
L 164.420852 43.621463 
L 164.420852 40.460488 
L 165.181761 40.460488 
L 165.181761 38.089756 
L 165.94267 38.089756 
L 165.94267 38.382439 
L 166.70358 38.382439 
L 166.70358 40.343415 
L 167.464489 40.343415 
L 167.464489 44.206829 
L 168.986307 44.119024 
L 168.986307 44.88 
L 169.747216 44.88 
L 169.747216 42.801951 
L 170.508125 42.801951 
L 170.508125 43.358049 
L 171.269034 43.358049 
L 171.269034 46.840976 
L 172.029943 46.840976 
L 172.029943 48.421463 
L 172.790852 48.421463 
L 172.790852 50.52878 
L 173.551761 50.52878 
L 173.551761 54.626341 
L 174.31267 54.626341 
L 174.31267 54.919024 
L 175.07358 54.919024 
L 175.07358 59.777561 
L 175.834489 59.777561 
L 175.834489 61.85561 
L 176.595398 61.85561 
L 176.595398 61.475122 
L 178.117216 61.475122 
L 178.117216 68.997073 
L 178.878125 68.997073 
L 178.878125 70.25561 
L 179.639034 70.25561 
L 179.639034 72.83122 
L 180.399943 72.83122 
L 180.399943 74.353171 
L 181.160852 74.353171 
L 181.160852 77.63122 
L 181.921761 77.63122 
L 181.921761 78.245854 
L 182.68267 78.245854 
L 182.68267 79.445854 
L 183.44358 79.445854 
L 183.44358 79.650732 
L 184.204489 79.650732 
L 184.204489 82.519024 
L 184.965398 82.519024 
L 184.965398 86.675122 
L 185.726307 86.675122 
L 185.726307 86.997073 
L 186.487216 86.997073 
L 186.487216 88.694634 
L 187.248125 88.694634 
L 187.248125 90.392195 
L 188.009034 90.392195 
L 188.009034 92.997073 
L 188.769943 92.997073 
L 188.769943 93.406829 
L 189.530852 93.406829 
L 189.530852 95.660488 
L 190.291761 95.660488 
L 190.291761 96.889756 
L 191.05267 96.889756 
L 191.05267 101.865366 
L 191.81358 101.865366 
L 191.81358 101.016585 
L 192.574489 101.016585 
L 192.574489 100.665366 
L 193.335398 100.665366 
L 193.335398 105.758049 
L 194.096307 105.758049 
L 194.096307 103.884878 
L 194.857216 103.884878 
L 194.857216 107.016585 
L 195.618125 107.016585 
L 195.618125 107.689756 
L 196.379034 107.689756 
L 196.379034 108.30439 
L 197.139943 108.30439 
L 197.139943 107.426341 
L 197.900852 107.426341 
L 197.900852 112.372683 
L 198.661761 112.372683 
L 198.661761 113.982439 
L 199.42267 113.982439 
L 199.42267 115.123902 
L 200.18358 115.123902 
L 200.18358 116.909268 
L 200.944489 116.909268 
L 200.944489 112.548293 
L 201.705398 112.548293 
L 201.705398 115.826341 
L 202.466307 115.826341 
L 202.466307 117.72878 
L 203.227216 117.72878 
L 203.227216 120.743415 
L 203.988125 120.743415 
L 203.988125 123.377561 
L 204.749034 123.377561 
L 204.749034 120.83122 
L 205.509943 120.83122 
L 205.509943 126.099512 
L 206.270852 126.099512 
L 206.270852 125.806829 
L 207.79267 125.865366 
L 207.79267 127.826341 
L 208.55358 127.826341 
L 208.55358 129.992195 
L 209.314489 129.992195 
L 209.314489 132.626341 
L 210.075398 132.626341 
L 210.075398 131.45561 
L 211.597216 131.514146 
L 211.597216 133.094634 
L 212.358125 133.094634 
L 212.358125 132.597073 
L 213.119034 132.597073 
L 213.119034 138.158049 
L 213.879943 138.158049 
L 213.879943 135.90439 
L 214.640852 135.90439 
L 214.640852 136.958049 
L 215.401761 136.958049 
L 215.401761 138.450732 
L 216.16267 138.450732 
L 216.16267 140.587317 
L 216.92358 140.587317 
L 216.92358 142.021463 
L 217.684489 142.021463 
L 217.684489 142.606829 
L 218.445398 142.606829 
L 218.445398 140.558049 
L 219.206307 140.558049 
L 219.206307 145.621463 
L 219.967216 145.621463 
L 219.967216 145.32878 
L 220.728125 145.32878 
L 220.728125 145.445854 
L 221.489034 145.445854 
L 221.489034 147.640976 
L 222.249943 147.640976 
L 222.249943 145.533659 
L 223.010852 145.533659 
L 223.010852 145.387317 
L 223.771761 145.387317 
L 223.771761 148.811707 
L 224.53267 148.811707 
L 224.53267 151.972683 
L 225.29358 151.972683 
L 225.29358 154.138537 
L 226.054489 154.138537 
L 226.054489 151.738537 
L 226.815398 151.738537 
L 226.815398 151.358049 
L 227.576307 151.358049 
L 227.576307 155.016585 
L 228.337216 155.016585 
L 228.337216 156.362927 
L 229.098125 156.362927 
L 229.098125 153.758049 
L 229.859034 153.758049 
L 229.859034 155.982439 
L 230.619943 155.982439 
L 230.619943 155.309268 
L 231.380852 155.309268 
L 231.380852 155.45561 
L 232.141761 155.45561 
L 232.141761 158.762927 
L 232.90267 158.762927 
L 232.90267 155.894634 
L 233.66358 155.894634 
L 233.66358 158.792195 
L 234.424489 158.792195 
L 234.424489 160.606829 
L 235.185398 160.606829 
L 235.185398 161.894634 
L 235.946307 161.894634 
L 235.946307 162.948293 
L 236.707216 162.948293 
L 236.707216 162.509268 
L 237.468125 162.509268 
L 237.468125 163.826341 
L 238.229034 163.826341 
L 238.229034 162.158049 
L 238.989943 162.158049 
L 238.989943 164.148293 
L 239.750852 164.148293 
L 239.750852 164.821463 
L 240.511761 164.821463 
L 240.511761 168.30439 
L 241.27267 168.30439 
L 241.27267 165.845854 
L 242.03358 165.845854 
L 242.03358 167.572683 
L 243.555398 167.514146 
L 243.555398 167.309268 
L 244.316307 167.309268 
L 244.316307 168.12878 
L 245.077216 168.12878 
L 245.077216 170.236098 
L 245.838125 170.236098 
L 245.838125 171.72878 
L 247.359943 171.758049 
L 247.359943 173.806829 
L 248.120852 173.806829 
L 248.120852 173.601951 
L 248.881761 173.601951 
L 248.881761 174.12878 
L 249.64267 174.12878 
L 249.64267 174.421463 
L 250.40358 174.421463 
L 250.40358 176.762927 
L 251.164489 176.762927 
L 251.164489 174.801951 
L 251.925398 174.801951 
L 251.925398 179.250732 
L 252.686307 179.250732 
L 252.686307 179.806829 
L 253.447216 179.806829 
L 253.447216 180.65561 
L 254.208125 180.65561 
L 254.208125 179.367805 
L 254.969034 179.367805 
L 254.969034 182.616585 
L 255.729943 182.616585 
L 255.729943 182.03122 
L 256.490852 182.03122 
L 256.490852 182.675122 
L 257.251761 182.675122 
L 257.251761 183.962927 
L 258.01267 183.962927 
L 258.01267 186.48 
L 258.77358 186.48 
L 258.77358 187.797073 
L 259.534489 187.797073 
L 259.534489 186.450732 
L 260.295398 186.450732 
L 260.295398 189.72878 
L 261.817216 189.640976 
L 261.817216 189.172683 
L 262.578125 189.172683 
L 262.578125 192.158049 
L 264.860852 192.216585 
L 264.860852 193.358049 
L 265.621761 193.358049 
L 265.621761 194.587317 
L 266.38267 194.587317 
L 266.38267 193.533659 
L 267.14358 193.533659 
L 267.14358 195.640976 
L 267.904489 195.640976 
L 267.904489 196.138537 
L 269.426307 196.08 
L 269.426307 196.577561 
L 270.187216 196.577561 
L 270.187216 197.836098 
L 270.948125 197.836098 
L 270.948125 199.270244 
L 273.230852 199.270244 
L 273.230852 200.587317 
L 273.991761 200.587317 
L 273.991761 201.992195 
L 274.75267 201.992195 
L 274.75267 202.899512 
L 275.51358 202.899512 
L 275.51358 202.197073 
L 276.274489 202.197073 
L 276.274489 202.050732 
L 277.035398 202.050732 
L 277.035398 203.338537 
L 277.796307 203.338537 
L 277.796307 204.245854 
L 278.557216 204.245854 
L 278.557216 203.748293 
L 279.318125 203.748293 
L 279.318125 205.592195 
L 280.079034 205.592195 
L 280.079034 205.211707 
L 280.839943 205.211707 
L 280.839943 205.943415 
L 281.600852 205.943415 
L 281.600852 206.148293 
L 282.361761 206.148293 
L 282.361761 207.289756 
L 283.12267 207.289756 
L 283.12267 207.962927 
L 283.88358 207.962927 
L 283.88358 208.694634 
L 284.644489 208.694634 
L 284.644489 207.289756 
L 285.405398 207.289756 
L 285.405398 208.577561 
L 286.166307 208.577561 
L 286.166307 209.719024 
L 286.927216 209.719024 
L 286.927216 209.250732 
L 287.688125 209.250732 
L 287.688125 210.567805 
L 288.449034 210.567805 
L 288.449034 209.806829 
L 289.209943 209.806829 
L 289.209943 211.123902 
L 289.970852 211.123902 
L 289.970852 212.119024 
L 290.731761 212.119024 
L 290.731761 211.68 
L 291.49267 211.68 
L 291.49267 212.52878 
L 292.25358 212.52878 
L 292.25358 212.821463 
L 293.014489 212.821463 
L 293.014489 212.265366 
L 293.775398 212.265366 
L 293.775398 213.23122 
L 294.536307 213.23122 
L 294.536307 212.997073 
L 295.297216 212.997073 
L 295.297216 214.226341 
L 296.058125 214.226341 
L 296.058125 214.606829 
L 296.819034 214.606829 
L 296.819034 213.90439 
L 297.579943 213.90439 
L 297.579943 214.987317 
L 298.340852 214.987317 
L 298.340852 215.484878 
L 299.101761 215.484878 
L 299.101761 215.28 
L 299.86267 215.28 
L 299.86267 216.30439 
L 302.145398 216.30439 
L 302.145398 216.860488 
L 302.906307 216.860488 
L 302.906307 216.30439 
L 304.428125 216.333659 
L 304.428125 217.153171 
L 305.189034 217.153171 
L 305.189034 217.358049 
L 305.949943 217.358049 
L 305.949943 217.533659 
L 306.710852 217.533659 
L 306.710852 217.767805 
L 307.471761 217.767805 
L 307.471761 217.884878 
L 308.99358 217.943415 
L 308.99358 218.265366 
L 309.754489 218.265366 
L 309.754489 218.382439 
L 310.515398 218.382439 
L 310.515398 218.616585 
L 311.276307 218.616585 
L 311.276307 218.792195 
L 372.909943 218.88 
L 372.909943 218.88 
" clip-path="url(#p705cd9d586)" style="fill: none; stroke: #2ca02c; stroke-width: 1.5; stroke-linecap: square"/>
   </g>
   <g id="patch_3">
    <path d="M 53.328125 228.96 
L 53.328125 7.2 
" style="fill: none; stroke: #000000; stroke-width: 0.8; stroke-linejoin: miter; stroke-linecap: square"/>
   </g>
   <g id="patch_4">
    <path d="M 388.128125 228.96 
L 388.128125 7.2 
" style="fill: none; stroke: #000000; stroke-width: 0.8; stroke-linejoin: miter; stroke-linecap: square"/>
   </g>
   <g id="patch_5">
    <path d="M 53.328125 228.96 
L 388.128125 228.96 
" style="fill: none; stroke: #000000; stroke-width: 0.8; stroke-linejoin: miter; stroke-linecap: square"/>
   </g>
   <g id="patch_6">
    <path d="M 53.328125 7.2 
L 388.128125 7.2 
" style="fill: none; stroke: #000000; stroke-width: 0.8; stroke-linejoin: miter; stroke-linecap: square"/>
   </g>
   <g id="legend_1">
    <g id="patch_7">
     <path d="M 306.904688 59.234375 
L 381.128125 59.234375 
Q 383.128125 59.234375 383.128125 57.234375 
L 383.128125 14.2 
Q 383.128125 12.2 381.128125 12.2 
L 306.904688 12.2 
Q 304.904688 12.2 304.904688 14.2 
L 304.904688 57.234375 
Q 304.904688 59.234375 306.904688 59.234375 
z
" style="fill: #ffffff; opacity: 0.8; stroke: #cccccc; stroke-linejoin: miter"/>
    </g>
    <g id="line2d_20">
     <path d="M 308.904688 20.298438 
L 308.904688 20.298438 
L 318.904688 20.298438 
L 318.904688 20.298438 
L 328.904688 20.298438 
" style="fill: none; stroke: #1f77b4; stroke-width: 1.5; stroke-linecap: square"/>
    </g>
    <g id="text_19">
     <!-- monitor -->
     <g transform="translate(336.904688 23.798438) scale(0.1 -0.1)">
      <defs>
       <path id="DejaVuSans-6d" d="M 3328 2828 
Q 3544 3216 3844 3400 
Q 4144 3584 4550 3584 
Q 5097 3584 5394 3201 
Q 5691 2819 5691 2113 
L 5691 0 
L 5113 0 
L 5113 2094 
Q 5113 2597 4934 2840 
Q 4756 3084 4391 3084 
Q 3944 3084 3684 2787 
Q 3425 2491 3425 1978 
L 3425 0 
L 2847 0 
L 2847 2094 
Q 2847 2600 2669 2842 
Q 2491 3084 2119 3084 
Q 1678 3084 1418 2786 
Q 1159 2488 1159 1978 
L 1159 0 
L 581 0 
L 581 3500 
L 1159 3500 
L 1159 2956 
Q 1356 3278 1631 3431 
Q 1906 3584 2284 3584 
Q 2666 3584 2933 3390 
Q 3200 3197 3328 2828 
z
" transform="scale(0.015625)"/>
       <path id="DejaVuSans-69" d="M 603 3500 
L 1178 3500 
L 1178 0 
L 603 0 
L 603 3500 
z
M 603 4863 
L 1178 4863 
L 1178 4134 
L 603 4134 
L 603 4863 
z
" transform="scale(0.015625)"/>
       <path id="DejaVuSans-72" d="M 2631 2963 
Q 2534 3019 2420 3045 
Q 2306 3072 2169 3072 
Q 1681 3072 1420 2755 
Q 1159 2438 1159 1844 
L 1159 0 
L 581 0 
L 581 3500 
L 1159 3500 
L 1159 2956 
Q 1341 3275 1631 3429 
Q 1922 3584 2338 3584 
Q 2397 3584 2469 3576 
Q 2541 3569 2628 3553 
L 2631 2963 
z
" transform="scale(0.015625)"/>
      </defs>
      <use xlink:href="#DejaVuSans-6d"/>
      <use xlink:href="#DejaVuSans-6f" transform="translate(97.412109 0)"/>
      <use xlink:href="#DejaVuSans-6e" transform="translate(158.59375 0)"/>
      <use xlink:href="#DejaVuSans-69" transform="translate(221.972656 0)"/>
      <use xlink:href="#DejaVuSans-74" transform="translate(249.755859 0)"/>
      <use xlink:href="#DejaVuSans-6f" transform="translate(288.964844 0)"/>
      <use xlink:href="#DejaVuSans-72" transform="translate(350.146484 0)"/>
     </g>
    </g>
    <g id="line2d_21">
     <path d="M 308.904688 34.976562 
L 308.904688 34.976562 
L 318.904688 34.976562 
L 318.904688 34.976562 
L 328.904688 34.976562 
" style="fill: none; stroke: #ff7f0e; stroke-width: 1.5; stroke-linecap: square"/>
    </g>
    <g id="text_20">
     <!-- detector -->
     <g transform="translate(336.904688 38.476562) scale(0.1 -0.1)">
      <defs>
       <path id="DejaVuSans-64" d="M 2906 2969 
L 2906 4863 
L 3481 4863 
L 3481 0 
L 2906 0 
L 2906 525 
Q 2725 213 2448 61 
Q 2172 -91 1784 -91 
Q 1150 -91 751 415 
Q 353 922 353 1747 
Q 353 2572 751 3078 
Q 1150 3584 1784 3584 
Q 2172 3584 2448 3432 
Q 2725 3281 2906 2969 
z
M 947 1747 
Q 947 1113 1208 752 
Q 1469 391 1925 391 
Q 2381 391 2643 752 
Q 2906 1113 2906 1747 
Q 2906 2381 2643 2742 
Q 2381 3103 1925 3103 
Q 1469 3103 1208 2742 
Q 947 2381 947 1747 
z
" transform="scale(0.015625)"/>
      </defs>
      <use xlink:href="#DejaVuSans-64"/>
      <use xlink:href="#DejaVuSans-65" transform="translate(63.476562 0)"/>
      <use xlink:href="#DejaVuSans-74" transform="translate(125 0)"/>
      <use xlink:href="#DejaVuSans-65" transform="translate(164.208984 0)"/>
      <use xlink:href="#DejaVuSans-63" transform="translate(225.732422 0)"/>
      <use xlink:href="#DejaVuSans-74" transform="translate(280.712891 0)"/>
      <use xlink:href="#DejaVuSans-6f" transform="translate(319.921875 0)"/>
      <use xlink:href="#DejaVuSans-72" transform="translate(381.103516 0)"/>
     </g>
    </g>
    <g id="line2d_22">
     <path d="M 308.904688 49.654688 
L 308.904688 49.654688 
L 318.904688 49.654688 
L 318.904688 49.654688 
L 328.904688 49.654688 
" style="fill: none; stroke: #2ca02c; stroke-width: 1.5; stroke-linecap: square"/>
    </g>
    <g id="text_21">
     <!-- true -->
     <g transform="translate(336.904688 53.154688) scale(0.1 -0.1)">
      <use xlink:href="#DejaVuSans-74"/>
      <use xlink:href="#DejaVuSans-72" transform="translate(39.208984 0)"/>
      <use xlink:href="#DejaVuSans-75" transform="translate(80.322266 0)"/>
      <use xlink:href="#DejaVuSans-65" transform="translate(143.701172 0)"/>
     </g>
    </g>
   </g>
  </g>
 </g>
 <defs>
  <clipPath id="p705cd9d586">
   <rect x="53.328125" y="7.2" width="334.8" height="221.76"/>
  </clipPath>
 </defs>
</svg>
