<?xml version="1.0" encoding="utf-8" standalone="no"?>
<!DOCTYPE svg PUBLIC "-//W3C//DTD SVG 1.1//EN"
  "http://www.w3.org/Graphics/SVG/1.1/DTD/svg11.dtd">
<svg xmlns:xlink="http://www.w3.org/1999/xlink" width="388.965625pt" height="269.015496pt" viewBox="0 0 388.965625 269.015496" xmlns="http://www.w3.org/2000/svg" version="1.1">
 <metadata>
  <rdf:RDF xmlns:dc="http://purl.org/dc/elements/1.1/" xmlns:cc="http://creativecommons.org/ns#" xmlns:rdf="http://www.w3.org/1999/02/22-rdf-syntax-ns#">
   <cc:Work>
    <dc:type rdf:resource="http://purl.org/dc/dcmitype/StillImage"/>
    <dc:date>2026-04-23T13:17:20.752770</dc:date>
    <dc:format>image/svg+xml</dc:format>
    <dc:creator>
     <cc:Agent>
      <dc:title>Matplotlib v3.10.8, https://matplotlib.org/</dc:title>
     </cc:Agent>
    </dc:creator>
   </cc:Work>
  </rdf:RDF>
 </metadata>
 <defs>
  <style type="text/css">*{stroke-linejoin: round; stroke-linecap: butt}</style>
 </defs>
 <g id="figure_1">
  <g id="patch_1">
   <path d="M 0 269.015496 
L 388.965625 269.015496 
L 388.965625 0 
L 0 0 
z
" style="fill: #ffffff"/>
  </g>
  <g id="axes_1">
   <g id="patch_2">
    <path d="M 46.965625 229.774871 
L 381.765625 229.774871 
L 381.765625 8.014871 
L 46.965625 8.014871 
z
" style="fill: #ffffff"/>
   </g>
   <g id="matplotlib.axis_1">
    <g id="xtick_1">
     <g id="line2d_1">
      <defs>
       <path id="m2f5cea6b7f" d="M 0 0 
L 0 3.5 
" style="stroke: #000000; stroke-width: 0.8"/>
      </defs>
      <g>
       <use xlink:href="#m2f5cea6b7f" x="62.183807" y="229.774871" style="stroke: #000000; stroke-width: 0.8"/>
      </g>
     </g>
     <g id="text_1">
      <!-- 6.0 -->
      <g transform="translate(54.232244 244.373308) scale(0.1 -0.1)">
       <defs>
        <path id="DejaVuSans-36" d="M 2113 2584 
Q 1688 2584 1439 2293 
Q 1191 2003 1191 1497 
Q 1191 994 1439 701 
Q 1688 409 2113 409 
Q 2538 409 2786 701 
Q 3034 994 3034 1497 
Q 3034 2003 2786 2293 
Q 2538 2584 2113 2584 
z
M 3366 4563 
L 3366 3988 
Q 3128 4100 2886 4159 
Q 2644 4219 2406 4219 
Q 1781 4219 1451 3797 
Q 1122 3375 1075 2522 
Q 1259 2794 1537 2939 
Q 1816 3084 2150 3084 
Q 2853 3084 3261 2657 
Q 3669 2231 3669 1497 
Q 3669 778 3244 343 
Q 2819 -91 2113 -91 
Q 1303 -91 875 529 
Q 447 1150 447 2328 
Q 447 3434 972 4092 
Q 1497 4750 2381 4750 
Q 2619 4750 2861 4703 
Q 3103 4656 3366 4563 
z
" transform="scale(0.015625)"/>
        <path id="DejaVuSans-2e" d="M 684 794 
L 1344 794 
L 1344 0 
L 684 0 
L 684 794 
z
" transform="scale(0.015625)"/>
        <path id="DejaVuSans-30" d="M 2034 4250 
Q 1547 4250 1301 3770 
Q 1056 3291 1056 2328 
Q 1056 1369 1301 889 
Q 1547 409 2034 409 
Q 2525 409 2770 889 
Q 3016 1369 3016 2328 
Q 3016 3291 2770 3770 
Q 2525 4250 2034 4250 
z
M 2034 4750 
Q 2819 4750 3233 4129 
Q 3647 3509 3647 2328 
Q 3647 1150 3233 529 
Q 2819 -91 2034 -91 
Q 1250 -91 836 529 
Q 422 1150 422 2328 
Q 422 3509 836 4129 
Q 1250 4750 2034 4750 
z
" transform="scale(0.015625)"/>
       </defs>
       <use xlink:href="#DejaVuSans-36"/>
       <use xlink:href="#DejaVuSans-2e" transform="translate(63.623047 0)"/>
       <use xlink:href="#DejaVuSans-30" transform="translate(95.410156 0)"/>
      </g>
     </g>
    </g>
    <g id="xtick_2">
     <g id="line2d_2">
      <g>
       <use xlink:href="#m2f5cea6b7f" x="112.91108" y="229.774871" style="stroke: #000000; stroke-width: 0.8"/>
      </g>
     </g>
     <g id="text_2">
      <!-- 6.5 -->
      <g transform="translate(104.959517 244.373308) scale(0.1 -0.1)">
       <defs>
        <path id="DejaVuSans-35" d="M 691 4666 
L 3169 4666 
L 3169 4134 
L 1269 4134 
L 1269 2991 
Q 1406 3038 1543 3061 
Q 1681 3084 1819 3084 
Q 2600 3084 3056 2656 
Q 3513 2228 3513 1497 
Q 3513 744 3044 326 
Q 2575 -91 1722 -91 
Q 1428 -91 1123 -41 
Q 819 9 494 109 
L 494 744 
Q 775 591 1075 516 
Q 1375 441 1709 441 
Q 2250 441 2565 725 
Q 2881 1009 2881 1497 
Q 2881 1984 2565 2268 
Q 2250 2553 1709 2553 
Q 1456 2553 1204 2497 
Q 953 2441 691 2322 
L 691 4666 
z
" transform="scale(0.015625)"/>
       </defs>
       <use xlink:href="#DejaVuSans-36"/>
       <use xlink:href="#DejaVuSans-2e" transform="translate(63.623047 0)"/>
       <use xlink:href="#DejaVuSans-35" transform="translate(95.410156 0)"/>
      </g>
     </g>
    </g>
    <g id="xtick_3">
     <g id="line2d_3">
      <g>
       <use xlink:href="#m2f5cea6b7f" x="163.638352" y="229.774871" style="stroke: #000000; stroke-width: 0.8"/>
      </g>
     </g>
     <g id="text_3">
      <!-- 7.0 -->
      <g transform="translate(155.68679 244.373308) scale(0.1 -0.1)">
       <defs>
        <path id="DejaVuSans-37" d="M 525 4666 
L 3525 4666 
L 3525 4397 
L 1831 0 
L 1172 0 
L 2766 4134 
L 525 4134 
L 525 4666 
z
" transform="scale(0.015625)"/>
       </defs>
       <use xlink:href="#DejaVuSans-37"/>
       <use xlink:href="#DejaVuSans-2e" transform="translate(63.623047 0)"/>
       <use xlink:href="#DejaVuSans-30" transform="translate(95.410156 0)"/>
      </g>
     </g>
    </g>
    <g id="xtick_4">
     <g id="line2d_4">
      <g>
       <use xlink:href="#m2f5cea6b7f" x="214.365625" y="229.774871" style="stroke: #000000; stroke-width: 0.8"/>
      </g>
     </g>
     <g id="text_4">
      <!-- 7.5 -->
      <g transform="translate(206.414063 244.373308) scale(0.1 -0.1)">
       <use xlink:href="#DejaVuSans-37"/>
       <use xlink:href="#DejaVuSans-2e" transform="translate(63.623047 0)"/>
       <use xlink:href="#DejaVuSans-35" transform="translate(95.410156 0)"/>
      </g>
     </g>
    </g>
    <g id="xtick_5">
     <g id="line2d_5">
      <g>
       <use xlink:href="#m2f5cea6b7f" x="265.092898" y="229.774871" style="stroke: #000000; stroke-width: 0.8"/>
      </g>
     </g>
     <g id="text_5">
      <!-- 8.0 -->
      <g transform="translate(257.141335 244.373308) scale(0.1 -0.1)">
       <defs>
        <path id="DejaVuSans-38" d="M 2034 2216 
Q 1584 2216 1326 1975 
Q 1069 1734 1069 1313 
Q 1069 891 1326 650 
Q 1584 409 2034 409 
Q 2484 409 2743 651 
Q 3003 894 3003 1313 
Q 3003 1734 2745 1975 
Q 2488 2216 2034 2216 
z
M 1403 2484 
Q 997 2584 770 2862 
Q 544 3141 544 3541 
Q 544 4100 942 4425 
Q 1341 4750 2034 4750 
Q 2731 4750 3128 4425 
Q 3525 4100 3525 3541 
Q 3525 3141 3298 2862 
Q 3072 2584 2669 2484 
Q 3125 2378 3379 2068 
Q 3634 1759 3634 1313 
Q 3634 634 3220 271 
Q 2806 -91 2034 -91 
Q 1263 -91 848 271 
Q 434 634 434 1313 
Q 434 1759 690 2068 
Q 947 2378 1403 2484 
z
M 1172 3481 
Q 1172 3119 1398 2916 
Q 1625 2713 2034 2713 
Q 2441 2713 2670 2916 
Q 2900 3119 2900 3481 
Q 2900 3844 2670 4047 
Q 2441 4250 2034 4250 
Q 1625 4250 1398 4047 
Q 1172 3844 1172 3481 
z
" transform="scale(0.015625)"/>
       </defs>
       <use xlink:href="#DejaVuSans-38"/>
       <use xlink:href="#DejaVuSans-2e" transform="translate(63.623047 0)"/>
       <use xlink:href="#DejaVuSans-30" transform="translate(95.410156 0)"/>
      </g>
     </g>
    </g>
    <g id="xtick_6">
     <g id="line2d_6">
      <g>
       <use xlink:href="#m2f5cea6b7f" x="315.82017" y="229.774871" style="stroke: #000000; stroke-width: 0.8"/>
      </g>
     </g>
     <g id="text_6">
      <!-- 8.5 -->
      <g transform="translate(307.868608 244.373308) scale(0.1 -0.1)">
       <use xlink:href="#DejaVuSans-38"/>
       <use xlink:href="#DejaVuSans-2e" transform="translate(63.623047 0)"/>
       <use xlink:href="#DejaVuSans-35" transform="translate(95.410156 0)"/>
      </g>
     </g>
    </g>
    <g id="xtick_7">
     <g id="line2d_7">
      <g>
       <use xlink:href="#m2f5cea6b7f" x="366.547443" y="229.774871" style="stroke: #000000; stroke-width: 0.8"/>
      </g>
     </g>
     <g id="text_7">
      <!-- 9.0 -->
      <g transform="translate(358.595881 244.373308) scale(0.1 -0.1)">
       <defs>
        <path id="DejaVuSans-39" d="M 703 97 
L 703 672 
Q 941 559 1184 500 
Q 1428 441 1663 441 
Q 2288 441 2617 861 
Q 2947 1281 2994 2138 
Q 2813 1869 2534 1725 
Q 2256 1581 1919 1581 
Q 1219 1581 811 2004 
Q 403 2428 403 3163 
Q 403 3881 828 4315 
Q 1253 4750 1959 4750 
Q 2769 4750 3195 4129 
Q 3622 3509 3622 2328 
Q 3622 1225 3098 567 
Q 2575 -91 1691 -91 
Q 1453 -91 1209 -44 
Q 966 3 703 97 
z
M 1959 2075 
Q 2384 2075 2632 2365 
Q 2881 2656 2881 3163 
Q 2881 3666 2632 3958 
Q 2384 4250 1959 4250 
Q 1534 4250 1286 3958 
Q 1038 3666 1038 3163 
Q 1038 2656 1286 2365 
Q 1534 2075 1959 2075 
z
" transform="scale(0.015625)"/>
       </defs>
       <use xlink:href="#DejaVuSans-39"/>
       <use xlink:href="#DejaVuSans-2e" transform="translate(63.623047 0)"/>
       <use xlink:href="#DejaVuSans-30" transform="translate(95.410156 0)"/>
      </g>
     </g>
    </g>
    <g id="text_8">
     <!-- wavelength [Å] -->
     <g transform="translate(176.328125 259.735808) scale(0.1 -0.1)">
      <defs>
       <path id="DejaVuSans-77" d="M 269 3500 
L 844 3500 
L 1563 769 
L 2278 3500 
L 2956 3500 
L 3675 769 
L 4391 3500 
L 4966 3500 
L 4050 0 
L 3372 0 
L 2619 2869 
L 1863 0 
L 1184 0 
L 269 3500 
z
" transform="scale(0.015625)"/>
       <path id="DejaVuSans-61" d="M 2194 1759 
Q 1497 1759 1228 1600 
Q 959 1441 959 1056 
Q 959 750 1161 570 
Q 1363 391 1709 391 
Q 2188 391 2477 730 
Q 2766 1069 2766 1631 
L 2766 1759 
L 2194 1759 
z
M 3341 1997 
L 3341 0 
L 2766 0 
L 2766 531 
Q 2569 213 2275 61 
Q 1981 -91 1556 -91 
Q 1019 -91 701 211 
Q 384 513 384 1019 
Q 384 1609 779 1909 
Q 1175 2209 1959 2209 
L 2766 2209 
L 2766 2266 
Q 2766 2663 2505 2880 
Q 2244 3097 1772 3097 
Q 1472 3097 1187 3025 
Q 903 2953 641 2809 
L 641 3341 
Q 956 3463 1253 3523 
Q 1550 3584 1831 3584 
Q 2591 3584 2966 3190 
Q 3341 2797 3341 1997 
z
" transform="scale(0.015625)"/>
       <path id="DejaVuSans-76" d="M 191 3500 
L 800 3500 
L 1894 563 
L 2988 3500 
L 3597 3500 
L 2284 0 
L 1503 0 
L 191 3500 
z
" transform="scale(0.015625)"/>
       <path id="DejaVuSans-65" d="M 3597 1894 
L 3597 1613 
L 953 1613 
Q 991 1019 1311 708 
Q 1631 397 2203 397 
Q 2534 397 2845 478 
Q 3156 559 3463 722 
L 3463 178 
Q 3153 47 2828 -22 
Q 2503 -91 2169 -91 
Q 1331 -91 842 396 
Q 353 884 353 1716 
Q 353 2575 817 3079 
Q 1281 3584 2069 3584 
Q 2775 3584 3186 3129 
Q 3597 2675 3597 1894 
z
M 3022 2063 
Q 3016 2534 2758 2815 
Q 2500 3097 2075 3097 
Q 1594 3097 1305 2825 
Q 1016 2553 972 2059 
L 3022 2063 
z
" transform="scale(0.015625)"/>
       <path id="DejaVuSans-6c" d="M 603 4863 
L 1178 4863 
L 1178 0 
L 603 0 
L 603 4863 
z
" transform="scale(0.015625)"/>
       <path id="DejaVuSans-6e" d="M 3513 2113 
L 3513 0 
L 2938 0 
L 2938 2094 
Q 2938 2591 2744 2837 
Q 2550 3084 2163 3084 
Q 1697 3084 1428 2787 
Q 1159 2491 1159 1978 
L 1159 0 
L 581 0 
L 581 3500 
L 1159 3500 
L 1159 2956 
Q 1366 3272 1645 3428 
Q 1925 3584 2291 3584 
Q 2894 3584 3203 3211 
Q 3513 2838 3513 2113 
z
" transform="scale(0.015625)"/>
       <path id="DejaVuSans-67" d="M 2906 1791 
Q 2906 2416 2648 2759 
Q 2391 3103 1925 3103 
Q 1463 3103 1205 2759 
Q 947 2416 947 1791 
Q 947 1169 1205 825 
Q 1463 481 1925 481 
Q 2391 481 2648 825 
Q 2906 1169 2906 1791 
z
M 3481 434 
Q 3481 -459 3084 -895 
Q 2688 -1331 1869 -1331 
Q 1566 -1331 1297 -1286 
Q 1028 -1241 775 -1147 
L 775 -588 
Q 1028 -725 1275 -790 
Q 1522 -856 1778 -856 
Q 2344 -856 2625 -561 
Q 2906 -266 2906 331 
L 2906 616 
Q 2728 306 2450 153 
Q 2172 0 1784 0 
Q 1141 0 747 490 
Q 353 981 353 1791 
Q 353 2603 747 3093 
Q 1141 3584 1784 3584 
Q 2172 3584 2450 3431 
Q 2728 3278 2906 2969 
L 2906 3500 
L 3481 3500 
L 3481 434 
z
" transform="scale(0.015625)"/>
       <path id="DejaVuSans-74" d="M 1172 4494 
L 1172 3500 
L 2356 3500 
L 2356 3053 
L 1172 3053 
L 1172 1153 
Q 1172 725 1289 603 
Q 1406 481 1766 481 
L 2356 481 
L 2356 0 
L 1766 0 
Q 1100 0 847 248 
Q 594 497 594 1153 
L 594 3053 
L 172 3053 
L 172 3500 
L 594 3500 
L 594 4494 
L 1172 4494 
z
" transform="scale(0.015625)"/>
       <path id="DejaVuSans-68" d="M 3513 2113 
L 3513 0 
L 2938 0 
L 2938 2094 
Q 2938 2591 2744 2837 
Q 2550 3084 2163 3084 
Q 1697 3084 1428 2787 
Q 1159 2491 1159 1978 
L 1159 0 
L 581 0 
L 581 4863 
L 1159 4863 
L 1159 2956 
Q 1366 3272 1645 3428 
Q 1925 3584 2291 3584 
Q 2894 3584 3203 3211 
Q 3513 2838 3513 2113 
z
" transform="scale(0.015625)"/>
       <path id="DejaVuSans-20" transform="scale(0.015625)"/>
       <path id="DejaVuSans-5b" d="M 550 4863 
L 1875 4863 
L 1875 4416 
L 1125 4416 
L 1125 -397 
L 1875 -397 
L 1875 -844 
L 550 -844 
L 550 4863 
z
" transform="scale(0.015625)"/>
       <path id="DejaVuSans-c5" d="M 2663 5081 
Q 2663 5278 2523 5417 
Q 2384 5556 2188 5556 
Q 1988 5556 1852 5420 
Q 1716 5284 1716 5081 
Q 1716 4884 1853 4746 
Q 1991 4609 2188 4609 
Q 2384 4609 2523 4746 
Q 2663 4884 2663 5081 
z
M 2188 4044 
L 1338 1722 
L 3041 1722 
L 2188 4044 
z
M 1716 4366 
Q 1525 4494 1428 4673 
Q 1331 4853 1331 5081 
Q 1331 5441 1579 5691 
Q 1828 5941 2188 5941 
Q 2544 5941 2795 5689 
Q 3047 5438 3047 5081 
Q 3047 4863 2948 4678 
Q 2850 4494 2663 4366 
L 4325 0 
L 3669 0 
L 3244 1197 
L 1141 1197 
L 716 0 
L 50 0 
L 1716 4366 
z
" transform="scale(0.015625)"/>
       <path id="DejaVuSans-5d" d="M 1947 4863 
L 1947 -844 
L 622 -844 
L 622 -397 
L 1369 -397 
L 1369 4416 
L 622 4416 
L 622 4863 
L 1947 4863 
z
" transform="scale(0.015625)"/>
      </defs>
      <use xlink:href="#DejaVuSans-77"/>
      <use xlink:href="#DejaVuSans-61" transform="translate(81.787109 0)"/>
      <use xlink:href="#DejaVuSans-76" transform="translate(143.066406 0)"/>
      <use xlink:href="#DejaVuSans-65" transform="translate(202.246094 0)"/>
      <use xlink:href="#DejaVuSans-6c" transform="translate(263.769531 0)"/>
      <use xlink:href="#DejaVuSans-65" transform="translate(291.552734 0)"/>
      <use xlink:href="#DejaVuSans-6e" transform="translate(353.076172 0)"/>
      <use xlink:href="#DejaVuSans-67" transform="translate(416.455078 0)"/>
      <use xlink:href="#DejaVuSans-74" transform="translate(479.931641 0)"/>
      <use xlink:href="#DejaVuSans-68" transform="translate(519.140625 0)"/>
      <use xlink:href="#DejaVuSans-20" transform="translate(582.519531 0)"/>
      <use xlink:href="#DejaVuSans-5b" transform="translate(614.306641 0)"/>
      <use xlink:href="#DejaVuSans-c5" transform="translate(653.320312 0)"/>
      <use xlink:href="#DejaVuSans-5d" transform="translate(721.728516 0)"/>
     </g>
    </g>
   </g>
   <g id="matplotlib.axis_2">
    <g id="ytick_1">
     <g id="line2d_8">
      <defs>
       <path id="m0fe2fbea37" d="M 0 0 
L -3.5 0 
" style="stroke: #000000; stroke-width: 0.8"/>
      </defs>
      <g>
       <use xlink:href="#m0fe2fbea37" x="46.965625" y="219.694871" style="stroke: #000000; stroke-width: 0.8"/>
      </g>
     </g>
     <g id="text_9">
      <!-- 0 -->
      <g transform="translate(33.603125 223.49409) scale(0.1 -0.1)">
       <use xlink:href="#DejaVuSans-30"/>
      </g>
     </g>
    </g>
    <g id="ytick_2">
     <g id="line2d_9">
      <g>
       <use xlink:href="#m0fe2fbea37" x="46.965625" y="177.95574" style="stroke: #000000; stroke-width: 0.8"/>
      </g>
     </g>
     <g id="text_10">
      <!-- 100 -->
      <g transform="translate(20.878125 181.754959) scale(0.1 -0.1)">
       <defs>
        <path id="DejaVuSans-31" d="M 794 531 
L 1825 531 
L 1825 4091 
L 703 3866 
L 703 4441 
L 1819 4666 
L 2450 4666 
L 2450 531 
L 3481 531 
L 3481 0 
L 794 0 
L 794 531 
z
" transform="scale(0.015625)"/>
       </defs>
       <use xlink:href="#DejaVuSans-31"/>
       <use xlink:href="#DejaVuSans-30" transform="translate(63.623047 0)"/>
       <use xlink:href="#DejaVuSans-30" transform="translate(127.246094 0)"/>
      </g>
     </g>
    </g>
    <g id="ytick_3">
     <g id="line2d_10">
      <g>
       <use xlink:href="#m0fe2fbea37" x="46.965625" y="136.21661" style="stroke: #000000; stroke-width: 0.8"/>
      </g>
     </g>
     <g id="text_11">
      <!-- 200 -->
      <g transform="translate(20.878125 140.015829) scale(0.1 -0.1)">
       <defs>
        <path id="DejaVuSans-32" d="M 1228 531 
L 3431 531 
L 3431 0 
L 469 0 
L 469 531 
Q 828 903 1448 1529 
Q 2069 2156 2228 2338 
Q 2531 2678 2651 2914 
Q 2772 3150 2772 3378 
Q 2772 3750 2511 3984 
Q 2250 4219 1831 4219 
Q 1534 4219 1204 4116 
Q 875 4013 500 3803 
L 500 4441 
Q 881 4594 1212 4672 
Q 1544 4750 1819 4750 
Q 2544 4750 2975 4387 
Q 3406 4025 3406 3419 
Q 3406 3131 3298 2873 
Q 3191 2616 2906 2266 
Q 2828 2175 2409 1742 
Q 1991 1309 1228 531 
z
" transform="scale(0.015625)"/>
       </defs>
       <use xlink:href="#DejaVuSans-32"/>
       <use xlink:href="#DejaVuSans-30" transform="translate(63.623047 0)"/>
       <use xlink:href="#DejaVuSans-30" transform="translate(127.246094 0)"/>
      </g>
     </g>
    </g>
    <g id="ytick_4">
     <g id="line2d_11">
      <g>
       <use xlink:href="#m0fe2fbea37" x="46.965625" y="94.47748" style="stroke: #000000; stroke-width: 0.8"/>
      </g>
     </g>
     <g id="text_12">
      <!-- 300 -->
      <g transform="translate(20.878125 98.276698) scale(0.1 -0.1)">
       <defs>
        <path id="DejaVuSans-33" d="M 2597 2516 
Q 3050 2419 3304 2112 
Q 3559 1806 3559 1356 
Q 3559 666 3084 287 
Q 2609 -91 1734 -91 
Q 1441 -91 1130 -33 
Q 819 25 488 141 
L 488 750 
Q 750 597 1062 519 
Q 1375 441 1716 441 
Q 2309 441 2620 675 
Q 2931 909 2931 1356 
Q 2931 1769 2642 2001 
Q 2353 2234 1838 2234 
L 1294 2234 
L 1294 2753 
L 1863 2753 
Q 2328 2753 2575 2939 
Q 2822 3125 2822 3475 
Q 2822 3834 2567 4026 
Q 2313 4219 1838 4219 
Q 1578 4219 1281 4162 
Q 984 4106 628 3988 
L 628 4550 
Q 988 4650 1302 4700 
Q 1616 4750 1894 4750 
Q 2613 4750 3031 4423 
Q 3450 4097 3450 3541 
Q 3450 3153 3228 2886 
Q 3006 2619 2597 2516 
z
" transform="scale(0.015625)"/>
       </defs>
       <use xlink:href="#DejaVuSans-33"/>
       <use xlink:href="#DejaVuSans-30" transform="translate(63.623047 0)"/>
       <use xlink:href="#DejaVuSans-30" transform="translate(127.246094 0)"/>
      </g>
     </g>
    </g>
    <g id="ytick_5">
     <g id="line2d_12">
      <g>
       <use xlink:href="#m0fe2fbea37" x="46.965625" y="52.738349" style="stroke: #000000; stroke-width: 0.8"/>
      </g>
     </g>
     <g id="text_13">
      <!-- 400 -->
      <g transform="translate(20.878125 56.537568) scale(0.1 -0.1)">
       <defs>
        <path id="DejaVuSans-34" d="M 2419 4116 
L 825 1625 
L 2419 1625 
L 2419 4116 
z
M 2253 4666 
L 3047 4666 
L 3047 1625 
L 3713 1625 
L 3713 1100 
L 3047 1100 
L 3047 0 
L 2419 0 
L 2419 1100 
L 313 1100 
L 313 1709 
L 2253 4666 
z
" transform="scale(0.015625)"/>
       </defs>
       <use xlink:href="#DejaVuSans-34"/>
       <use xlink:href="#DejaVuSans-30" transform="translate(63.623047 0)"/>
       <use xlink:href="#DejaVuSans-30" transform="translate(127.246094 0)"/>
      </g>
     </g>
    </g>
    <g id="ytick_6">
     <g id="line2d_13">
      <g>
       <use xlink:href="#m0fe2fbea37" x="46.965625" y="10.999219" style="stroke: #000000; stroke-width: 0.8"/>
      </g>
     </g>
     <g id="text_14">
      <!-- 500 -->
      <g transform="translate(20.878125 14.798438) scale(0.1 -0.1)">
       <use xlink:href="#DejaVuSans-35"/>
       <use xlink:href="#DejaVuSans-30" transform="translate(63.623047 0)"/>
       <use xlink:href="#DejaVuSans-30" transform="translate(127.246094 0)"/>
      </g>
     </g>
    </g>
    <g id="text_15">
     <!-- [counts] -->
     <g transform="translate(14.798438 139.507371) rotate(-90) scale(0.1 -0.1)">
      <defs>
       <path id="DejaVuSans-63" d="M 3122 3366 
L 3122 2828 
Q 2878 2963 2633 3030 
Q 2388 3097 2138 3097 
Q 1578 3097 1268 2742 
Q 959 2388 959 1747 
Q 959 1106 1268 751 
Q 1578 397 2138 397 
Q 2388 397 2633 464 
Q 2878 531 3122 666 
L 3122 134 
Q 2881 22 2623 -34 
Q 2366 -91 2075 -91 
Q 1284 -91 818 406 
Q 353 903 353 1747 
Q 353 2603 823 3093 
Q 1294 3584 2113 3584 
Q 2378 3584 2631 3529 
Q 2884 3475 3122 3366 
z
" transform="scale(0.015625)"/>
       <path id="DejaVuSans-6f" d="M 1959 3097 
Q 1497 3097 1228 2736 
Q 959 2375 959 1747 
Q 959 1119 1226 758 
Q 1494 397 1959 397 
Q 2419 397 2687 759 
Q 2956 1122 2956 1747 
Q 2956 2369 2687 2733 
Q 2419 3097 1959 3097 
z
M 1959 3584 
Q 2709 3584 3137 3096 
Q 3566 2609 3566 1747 
Q 3566 888 3137 398 
Q 2709 -91 1959 -91 
Q 1206 -91 779 398 
Q 353 888 353 1747 
Q 353 2609 779 3096 
Q 1206 3584 1959 3584 
z
" transform="scale(0.015625)"/>
       <path id="DejaVuSans-75" d="M 544 1381 
L 544 3500 
L 1119 3500 
L 1119 1403 
Q 1119 906 1312 657 
Q 1506 409 1894 409 
Q 2359 409 2629 706 
Q 2900 1003 2900 1516 
L 2900 3500 
L 3475 3500 
L 3475 0 
L 2900 0 
L 2900 538 
Q 2691 219 2414 64 
Q 2138 -91 1772 -91 
Q 1169 -91 856 284 
Q 544 659 544 1381 
z
M 1991 3584 
L 1991 3584 
z
" transform="scale(0.015625)"/>
       <path id="DejaVuSans-73" d="M 2834 3397 
L 2834 2853 
Q 2591 2978 2328 3040 
Q 2066 3103 1784 3103 
Q 1356 3103 1142 2972 
Q 928 2841 928 2578 
Q 928 2378 1081 2264 
Q 1234 2150 1697 2047 
L 1894 2003 
Q 2506 1872 2764 1633 
Q 3022 1394 3022 966 
Q 3022 478 2636 193 
Q 2250 -91 1575 -91 
Q 1294 -91 989 -36 
Q 684 19 347 128 
L 347 722 
Q 666 556 975 473 
Q 1284 391 1588 391 
Q 1994 391 2212 530 
Q 2431 669 2431 922 
Q 2431 1156 2273 1281 
Q 2116 1406 1581 1522 
L 1381 1569 
Q 847 1681 609 1914 
Q 372 2147 372 2553 
Q 372 3047 722 3315 
Q 1072 3584 1716 3584 
Q 2034 3584 2315 3537 
Q 2597 3491 2834 3397 
z
" transform="scale(0.015625)"/>
      </defs>
      <use xlink:href="#DejaVuSans-5b"/>
      <use xlink:href="#DejaVuSans-63" transform="translate(39.013672 0)"/>
      <use xlink:href="#DejaVuSans-6f" transform="translate(93.994141 0)"/>
      <use xlink:href="#DejaVuSans-75" transform="translate(155.175781 0)"/>
      <use xlink:href="#DejaVuSans-6e" transform="translate(218.554688 0)"/>
      <use xlink:href="#DejaVuSans-74" transform="translate(281.933594 0)"/>
      <use xlink:href="#DejaVuSans-73" transform="translate(321.142578 0)"/>
      <use xlink:href="#DejaVuSans-5d" transform="translate(373.242188 0)"/>
     </g>
    </g>
   </g>
   <g id="line2d_14">
    <path d="M 62.183807 219.694871 
L 74.358352 219.694871 
L 74.358352 215.103567 
L 77.401989 215.103567 
L 77.401989 218.860088 
L 83.489261 218.860088 
L 83.489261 218.442697 
L 86.532898 218.442697 
L 86.532898 219.27748 
L 89.576534 219.27748 
L 89.576534 219.694871 
L 92.62017 219.694871 
L 92.62017 217.607914 
L 95.663807 217.607914 
L 95.663807 208.425306 
L 98.707443 208.425306 
L 98.707443 218.442697 
L 101.75108 218.442697 
L 101.75108 217.190523 
L 104.794716 217.190523 
L 104.794716 216.35574 
L 110.881989 216.35574 
L 110.881989 215.520958 
L 113.925625 215.520958 
L 113.925625 210.512262 
L 116.969261 210.512262 
L 116.969261 208.842697 
L 120.012898 208.842697 
L 120.012898 209.260088 
L 123.056534 209.260088 
L 123.056534 209.67748 
L 126.10017 209.67748 
L 126.10017 205.503567 
L 129.143807 205.503567 
L 129.143807 196.320958 
L 132.187443 196.320958 
L 132.187443 191.312262 
L 135.23108 191.312262 
L 135.23108 196.738349 
L 138.274716 196.738349 
L 138.274716 192.981827 
L 141.318352 192.981827 
L 141.318352 182.964436 
L 144.361989 182.964436 
L 144.361989 167.520958 
L 147.405625 167.520958 
L 147.405625 167.103567 
L 150.449261 167.103567 
L 150.449261 138.720958 
L 153.492898 138.720958 
L 153.492898 132.460088 
L 156.536534 132.460088 
L 156.536534 107.834001 
L 159.58017 107.834001 
L 159.58017 96.564436 
L 162.623807 96.564436 
L 162.623807 91.55574 
L 165.667443 91.55574 
L 165.667443 65.260088 
L 168.71108 65.260088 
L 168.71108 73.190523 
L 171.754716 73.190523 
L 171.754716 77.364436 
L 174.798352 77.364436 
L 174.798352 58.164436 
L 177.841989 58.164436 
L 177.841989 41.886175 
L 180.885625 41.886175 
L 180.885625 41.051393 
L 183.929261 41.051393 
L 183.929261 43.55574 
L 186.972898 43.55574 
L 186.972898 26.442697 
L 190.016534 26.442697 
L 190.016534 22.686175 
L 193.06017 22.686175 
L 193.06017 48.564436 
L 196.103807 48.564436 
L 196.103807 43.55574 
L 199.147443 43.55574 
L 199.147443 72.35574 
L 202.19108 72.35574 
L 202.19108 68.181827 
L 205.234716 68.181827 
L 205.234716 78.199219 
L 208.278352 78.199219 
L 208.278352 51.486175 
L 211.321989 51.486175 
L 211.321989 77.781827 
L 214.365625 77.781827 
L 214.365625 78.199219 
L 217.409261 78.199219 
L 217.409261 94.894871 
L 220.452898 94.894871 
L 220.452898 81.120958 
L 223.496534 81.120958 
L 223.496534 94.894871 
L 226.54017 94.894871 
L 226.54017 99.903567 
L 229.583807 99.903567 
L 229.583807 75.694871 
L 232.627443 75.694871 
L 232.627443 64.425306 
L 235.67108 64.425306 
L 235.67108 74.860088 
L 238.714716 74.860088 
L 238.714716 88.21661 
L 241.758352 88.21661 
L 241.758352 97.81661 
L 244.801989 97.81661 
L 244.801989 115.764436 
L 247.845625 115.764436 
L 247.845625 85.712262 
L 250.889261 85.712262 
L 250.889261 87.799219 
L 253.932898 87.799219 
L 253.932898 92.807914 
L 256.976534 92.807914 
L 256.976534 91.973132 
L 260.02017 91.973132 
L 260.02017 96.981827 
L 263.063807 96.981827 
L 263.063807 106.999219 
L 266.107443 106.999219 
L 266.107443 103.660088 
L 269.15108 103.660088 
L 269.15108 109.086175 
L 272.194716 109.086175 
L 272.194716 104.494871 
L 275.238352 104.494871 
L 275.238352 119.103567 
L 278.281989 119.103567 
L 278.281989 127.868784 
L 281.325625 127.868784 
L 281.325625 129.95574 
L 284.369261 129.95574 
L 284.369261 137.886175 
L 287.412898 137.886175 
L 287.412898 139.138349 
L 290.456534 139.138349 
L 290.456534 145.399219 
L 293.50017 145.399219 
L 293.50017 158.338349 
L 296.543807 158.338349 
L 296.543807 162.929654 
L 299.587443 162.929654 
L 299.587443 175.034001 
L 302.63108 175.034001 
L 302.63108 184.634001 
L 305.674716 184.634001 
L 305.674716 190.894871 
L 308.718352 190.894871 
L 308.718352 197.15574 
L 311.761989 197.15574 
L 311.761989 205.503567 
L 314.805625 205.503567 
L 314.805625 213.851393 
L 317.849261 213.851393 
L 317.849261 219.694871 
L 366.547443 219.694871 
L 366.547443 219.694871 
" clip-path="url(#pb41ade35cc)" style="fill: none; stroke: #1f77b4; stroke-width: 1.5; stroke-linecap: square"/>
   </g>
   <g id="line2d_15">
    <path d="M 62.183807 219.694871 
L 92.62017 219.694871 
L 92.62017 218.442697 
L 98.707443 218.442697 
L 98.707443 218.025306 
L 101.75108 218.025306 
L 101.75108 218.442697 
L 104.794716 218.442697 
L 104.794716 219.694871 
L 113.925625 219.694871 
L 113.925625 214.686175 
L 116.969261 214.686175 
L 116.969261 213.01661 
L 120.012898 213.01661 
L 120.012898 208.007914 
L 123.056534 208.007914 
L 123.056534 205.086175 
L 126.10017 205.086175 
L 126.10017 203.41661 
L 129.143807 203.41661 
L 129.143807 194.234001 
L 132.187443 194.234001 
L 132.187443 197.573132 
L 135.23108 197.573132 
L 135.23108 192.147045 
L 138.274716 192.147045 
L 138.274716 198.825306 
L 141.318352 198.825306 
L 141.318352 165.851393 
L 144.361989 165.851393 
L 144.361989 183.799219 
L 147.405625 183.799219 
L 147.405625 144.981827 
L 150.449261 144.981827 
L 150.449261 157.920958 
L 153.492898 157.920958 
L 153.492898 111.590523 
L 156.536534 111.590523 
L 156.536534 112.425306 
L 159.58017 112.425306 
L 159.58017 99.903567 
L 162.623807 99.903567 
L 162.623807 97.399219 
L 165.667443 97.399219 
L 165.667443 74.442697 
L 168.71108 74.442697 
L 168.71108 81.120958 
L 171.754716 81.120958 
L 171.754716 31.451393 
L 174.798352 31.451393 
L 174.798352 61.086175 
L 177.841989 61.086175 
L 177.841989 43.973132 
L 180.885625 43.973132 
L 180.885625 41.468784 
L 183.929261 41.468784 
L 183.929261 30.199219 
L 186.972898 30.199219 
L 186.972898 66.929654 
L 190.016534 66.929654 
L 190.016534 39.799219 
L 193.06017 39.799219 
L 193.06017 40.21661 
L 196.103807 40.21661 
L 196.103807 47.312262 
L 199.147443 47.312262 
L 199.147443 67.764436 
L 202.19108 67.764436 
L 202.19108 56.912262 
L 205.234716 56.912262 
L 205.234716 88.634001 
L 208.278352 88.634001 
L 208.278352 60.251393 
L 211.321989 60.251393 
L 211.321989 86.129654 
L 214.365625 86.129654 
L 214.365625 60.251393 
L 217.409261 60.251393 
L 217.409261 99.068784 
L 220.452898 99.068784 
L 220.452898 79.451393 
L 223.496534 79.451393 
L 223.496534 76.529654 
L 226.54017 76.529654 
L 226.54017 95.312262 
L 229.583807 95.312262 
L 229.583807 48.564436 
L 232.627443 48.564436 
L 232.627443 92.390523 
L 235.67108 92.390523 
L 235.67108 98.234001 
L 238.714716 98.234001 
L 238.714716 100.738349 
L 241.758352 100.738349 
L 241.758352 102.825306 
L 244.801989 102.825306 
L 244.801989 80.286175 
L 247.845625 80.286175 
L 247.845625 105.329654 
L 250.889261 105.329654 
L 250.889261 93.225306 
L 253.932898 93.225306 
L 253.932898 85.712262 
L 256.976534 85.712262 
L 256.976534 82.373132 
L 260.02017 82.373132 
L 260.02017 109.086175 
L 263.063807 109.086175 
L 263.063807 112.842697 
L 266.107443 112.842697 
L 266.107443 106.999219 
L 269.15108 106.999219 
L 269.15108 122.025306 
L 272.194716 122.025306 
L 272.194716 113.260088 
L 275.238352 113.260088 
L 275.238352 124.112262 
L 278.281989 124.112262 
L 278.281989 132.87748 
L 281.325625 132.87748 
L 281.325625 119.520958 
L 284.369261 119.520958 
L 284.369261 126.61661 
L 287.412898 126.61661 
L 287.412898 147.486175 
L 290.456534 147.486175 
L 290.456534 135.799219 
L 293.50017 135.799219 
L 293.50017 151.660088 
L 296.543807 151.660088 
L 296.543807 171.694871 
L 299.587443 171.694871 
L 299.587443 168.35574 
L 302.63108 168.35574 
L 302.63108 167.938349 
L 305.674716 167.938349 
L 305.674716 193.399219 
L 308.718352 193.399219 
L 308.718352 197.15574 
L 311.761989 197.15574 
L 311.761989 202.581827 
L 314.805625 202.581827 
L 314.805625 210.094871 
L 317.849261 210.094871 
L 317.849261 209.67748 
L 320.892898 209.67748 
L 320.892898 218.442697 
L 323.936534 218.442697 
L 323.936534 219.694871 
L 366.547443 219.694871 
L 366.547443 219.694871 
" clip-path="url(#pb41ade35cc)" style="fill: none; stroke: #ff7f0e; stroke-width: 1.5; stroke-linecap: square"/>
   </g>
   <g id="line2d_16">
    <path d="M 62.183807 219.694871 
L 98.707443 219.694871 
L 98.707443 219.27748 
L 101.75108 219.27748 
L 101.75108 219.694871 
L 113.925625 219.694871 
L 113.925625 216.35574 
L 116.969261 216.35574 
L 116.969261 217.190523 
L 120.012898 217.190523 
L 120.012898 210.512262 
L 123.056534 210.512262 
L 123.056534 199.242697 
L 126.10017 199.242697 
L 126.10017 206.338349 
L 129.143807 206.338349 
L 129.143807 207.590523 
L 132.187443 207.590523 
L 132.187443 211.347045 
L 135.23108 211.347045 
L 135.23108 193.399219 
L 138.274716 193.399219 
L 138.274716 188.390523 
L 141.318352 188.390523 
L 141.318352 170.442697 
L 144.361989 170.442697 
L 144.361989 171.694871 
L 147.405625 171.694871 
L 147.405625 166.268784 
L 150.449261 166.268784 
L 150.449261 145.399219 
L 153.492898 145.399219 
L 153.492898 120.35574 
L 156.536534 120.35574 
L 156.536534 116.599219 
L 159.58017 116.599219 
L 159.58017 85.294871 
L 162.623807 85.294871 
L 162.623807 96.147045 
L 165.667443 96.147045 
L 165.667443 84.460088 
L 168.71108 84.460088 
L 168.71108 81.538349 
L 171.754716 81.538349 
L 171.754716 23.103567 
L 174.798352 23.103567 
L 174.798352 69.01661 
L 177.841989 69.01661 
L 177.841989 40.634001 
L 180.885625 40.634001 
L 180.885625 34.790523 
L 183.929261 34.790523 
L 183.929261 41.051393 
L 186.972898 41.051393 
L 186.972898 49.81661 
L 190.016534 49.81661 
L 190.016534 48.147045 
L 193.06017 48.147045 
L 193.06017 49.81661 
L 196.103807 49.81661 
L 196.103807 45.642697 
L 199.147443 45.642697 
L 199.147443 53.573132 
L 202.19108 53.573132 
L 202.19108 67.347045 
L 205.234716 67.347045 
L 205.234716 84.460088 
L 208.278352 84.460088 
L 208.278352 79.451393 
L 211.321989 79.451393 
L 211.321989 62.338349 
L 214.365625 62.338349 
L 214.365625 79.868784 
L 217.409261 79.868784 
L 217.409261 87.799219 
L 220.452898 87.799219 
L 220.452898 74.860088 
L 223.496534 74.860088 
L 223.496534 62.338349 
L 226.54017 62.338349 
L 226.54017 102.407914 
L 229.583807 102.407914 
L 229.583807 66.094871 
L 232.627443 66.094871 
L 232.627443 85.712262 
L 235.67108 85.712262 
L 235.67108 105.329654 
L 238.714716 105.329654 
L 238.714716 94.47748 
L 241.758352 94.47748 
L 241.758352 93.642697 
L 247.845625 93.642697 
L 247.845625 103.242697 
L 250.889261 103.242697 
L 250.889261 89.051393 
L 253.932898 89.051393 
L 253.932898 91.973132 
L 256.976534 91.973132 
L 256.976534 78.61661 
L 260.02017 78.61661 
L 260.02017 114.512262 
L 263.063807 114.512262 
L 263.063807 117.434001 
L 266.107443 117.434001 
L 266.107443 105.747045 
L 269.15108 105.747045 
L 269.15108 112.007914 
L 272.194716 112.007914 
L 272.194716 122.442697 
L 275.238352 122.442697 
L 275.238352 118.686175 
L 278.281989 118.686175 
L 278.281989 135.381827 
L 281.325625 135.381827 
L 281.325625 120.773132 
L 284.369261 120.773132 
L 284.369261 119.520958 
L 287.412898 119.520958 
L 287.412898 154.999219 
L 290.456534 154.999219 
L 290.456534 131.625306 
L 293.50017 131.625306 
L 293.50017 152.912262 
L 296.543807 152.912262 
L 296.543807 170.860088 
L 299.587443 170.860088 
L 299.587443 172.112262 
L 302.63108 172.112262 
L 302.63108 163.764436 
L 305.674716 163.764436 
L 305.674716 192.564436 
L 308.718352 192.564436 
L 308.718352 201.747045 
L 311.761989 201.747045 
L 311.761989 197.573132 
L 314.805625 197.573132 
L 314.805625 209.67748 
L 317.849261 209.67748 
L 317.849261 210.094871 
L 320.892898 210.094871 
L 320.892898 216.35574 
L 323.936534 216.35574 
L 323.936534 219.694871 
L 366.547443 219.694871 
L 366.547443 219.694871 
" clip-path="url(#pb41ade35cc)" style="fill: none; stroke: #2ca02c; stroke-width: 1.5; stroke-linecap: square"/>
   </g>
   <g id="line2d_17">
    <path d="M 62.183807 219.694871 
L 89.576534 219.694871 
L 89.576534 219.27748 
L 92.62017 219.27748 
L 92.62017 219.694871 
L 113.925625 219.694871 
L 113.925625 216.773132 
L 120.012898 216.773132 
L 120.012898 209.67748 
L 123.056534 209.67748 
L 123.056534 214.268784 
L 126.10017 214.268784 
L 126.10017 203.834001 
L 129.143807 203.834001 
L 129.143807 197.15574 
L 132.187443 197.15574 
L 132.187443 202.999219 
L 135.23108 202.999219 
L 135.23108 192.981827 
L 138.274716 192.981827 
L 138.274716 193.399219 
L 141.318352 193.399219 
L 141.318352 172.112262 
L 144.361989 172.112262 
L 144.361989 166.686175 
L 147.405625 166.686175 
L 147.405625 157.920958 
L 150.449261 157.920958 
L 150.449261 151.660088 
L 153.492898 151.660088 
L 153.492898 115.347045 
L 156.536534 115.347045 
L 156.536534 119.103567 
L 159.58017 119.103567 
L 159.58017 89.886175 
L 162.623807 89.886175 
L 162.623807 95.312262 
L 165.667443 95.312262 
L 165.667443 86.964436 
L 168.71108 86.964436 
L 168.71108 80.703567 
L 171.754716 80.703567 
L 171.754716 18.094871 
L 174.798352 18.094871 
L 174.798352 74.860088 
L 177.841989 74.860088 
L 177.841989 32.703567 
L 180.885625 32.703567 
L 180.885625 38.547045 
L 183.929261 38.547045 
L 183.929261 39.381827 
L 186.972898 39.381827 
L 186.972898 61.503567 
L 190.016534 61.503567 
L 190.016534 32.703567 
L 193.06017 32.703567 
L 193.06017 62.338349 
L 196.103807 62.338349 
L 196.103807 38.964436 
L 199.147443 38.964436 
L 199.147443 48.981827 
L 202.19108 48.981827 
L 202.19108 74.442697 
L 205.234716 74.442697 
L 205.234716 80.703567 
L 208.278352 80.703567 
L 208.278352 86.129654 
L 211.321989 86.129654 
L 211.321989 57.747045 
L 214.365625 57.747045 
L 214.365625 85.294871 
L 217.409261 85.294871 
L 217.409261 78.61661 
L 220.452898 78.61661 
L 220.452898 82.790523 
L 223.496534 82.790523 
L 223.496534 72.35574 
L 226.54017 72.35574 
L 226.54017 78.61661 
L 229.583807 78.61661 
L 229.583807 69.434001 
L 232.627443 69.434001 
L 232.627443 94.060088 
L 235.67108 94.060088 
L 235.67108 113.260088 
L 238.714716 113.260088 
L 238.714716 78.199219 
L 241.758352 78.199219 
L 241.758352 105.747045 
L 244.801989 105.747045 
L 244.801989 91.973132 
L 247.845625 91.973132 
L 247.845625 99.068784 
L 250.889261 99.068784 
L 250.889261 84.460088 
L 253.932898 84.460088 
L 253.932898 98.234001 
L 256.976534 98.234001 
L 256.976534 84.460088 
L 260.02017 84.460088 
L 260.02017 107.834001 
L 263.063807 107.834001 
L 263.063807 98.651393 
L 266.107443 98.651393 
L 266.107443 130.373132 
L 269.15108 130.373132 
L 269.15108 104.07748 
L 272.194716 104.07748 
L 272.194716 122.025306 
L 275.238352 122.025306 
L 275.238352 126.199219 
L 278.281989 126.199219 
L 278.281989 120.35574 
L 281.325625 120.35574 
L 281.325625 123.27748 
L 284.369261 123.27748 
L 284.369261 127.868784 
L 287.412898 127.868784 
L 287.412898 148.738349 
L 290.456534 148.738349 
L 290.456534 136.21661 
L 293.50017 136.21661 
L 293.50017 155.41661 
L 296.543807 155.41661 
L 296.543807 166.686175 
L 299.587443 166.686175 
L 299.587443 172.529654 
L 302.63108 172.529654 
L 302.63108 168.35574 
L 305.674716 168.35574 
L 305.674716 190.060088 
L 308.718352 190.060088 
L 308.718352 200.494871 
L 311.761989 200.494871 
L 311.761989 199.242697 
L 314.805625 199.242697 
L 314.805625 209.260088 
L 317.849261 209.260088 
L 317.849261 211.347045 
L 320.892898 211.347045 
L 320.892898 217.607914 
L 323.936534 217.607914 
L 323.936534 219.694871 
L 366.547443 219.694871 
L 366.547443 219.694871 
" clip-path="url(#pb41ade35cc)" style="fill: none; stroke: #d62728; stroke-width: 1.5; stroke-linecap: square"/>
   </g>
   <g id="line2d_18">
    <path d="M 62.183807 219.694871 
L 65.227443 219.694871 
L 65.227443 219.27748 
L 68.27108 219.27748 
L 68.27108 219.694871 
L 74.358352 219.694871 
L 74.358352 218.442697 
L 77.401989 218.442697 
L 77.401989 219.27748 
L 80.445625 219.27748 
L 80.445625 217.607914 
L 86.532898 217.607914 
L 86.532898 216.773132 
L 89.576534 216.773132 
L 89.576534 218.025306 
L 92.62017 218.025306 
L 92.62017 215.103567 
L 95.663807 215.103567 
L 95.663807 218.025306 
L 98.707443 218.025306 
L 98.707443 216.773132 
L 101.75108 216.773132 
L 101.75108 214.686175 
L 104.794716 214.686175 
L 104.794716 216.773132 
L 107.838352 216.773132 
L 107.838352 215.103567 
L 110.881989 215.103567 
L 110.881989 212.599219 
L 116.969261 212.599219 
L 116.969261 208.842697 
L 120.012898 208.842697 
L 120.012898 206.75574 
L 126.10017 206.75574 
L 126.10017 206.338349 
L 129.143807 206.338349 
L 129.143807 193.399219 
L 132.187443 193.399219 
L 132.187443 197.990523 
L 135.23108 197.990523 
L 135.23108 197.15574 
L 138.274716 197.15574 
L 138.274716 186.303567 
L 141.318352 186.303567 
L 141.318352 173.364436 
L 144.361989 173.364436 
L 144.361989 172.112262 
L 147.405625 172.112262 
L 147.405625 162.094871 
L 150.449261 162.094871 
L 150.449261 140.390523 
L 153.492898 140.390523 
L 153.492898 127.451393 
L 156.536534 127.451393 
L 156.536534 112.425306 
L 159.58017 112.425306 
L 159.58017 101.990523 
L 162.623807 101.990523 
L 162.623807 84.460088 
L 168.71108 84.460088 
L 168.71108 74.442697 
L 171.754716 74.442697 
L 171.754716 35.207914 
L 174.798352 35.207914 
L 174.798352 49.399219 
L 177.841989 49.399219 
L 177.841989 43.973132 
L 180.885625 43.973132 
L 180.885625 45.225306 
L 186.972898 45.225306 
L 186.972898 51.486175 
L 190.016534 51.486175 
L 190.016534 40.21661 
L 193.06017 40.21661 
L 193.06017 53.15574 
L 196.103807 53.15574 
L 196.103807 37.712262 
L 199.147443 37.712262 
L 199.147443 51.486175 
L 202.19108 51.486175 
L 202.19108 72.35574 
L 205.234716 72.35574 
L 205.234716 86.547045 
L 208.278352 86.547045 
L 208.278352 70.268784 
L 211.321989 70.268784 
L 211.321989 65.67748 
L 214.365625 65.67748 
L 214.365625 79.868784 
L 217.409261 79.868784 
L 217.409261 92.807914 
L 220.452898 92.807914 
L 220.452898 71.103567 
L 223.496534 71.103567 
L 223.496534 75.27748 
L 226.54017 75.27748 
L 226.54017 82.790523 
L 229.583807 82.790523 
L 229.583807 81.95574 
L 232.627443 81.95574 
L 232.627443 91.973132 
L 235.67108 91.973132 
L 235.67108 99.068784 
L 238.714716 99.068784 
L 238.714716 91.55574 
L 241.758352 91.55574 
L 241.758352 96.147045 
L 244.801989 96.147045 
L 244.801989 90.720958 
L 247.845625 90.720958 
L 247.845625 86.964436 
L 250.889261 86.964436 
L 250.889261 94.894871 
L 253.932898 94.894871 
L 253.932898 93.225306 
L 256.976534 93.225306 
L 256.976534 97.399219 
L 260.02017 97.399219 
L 260.02017 106.999219 
L 263.063807 106.999219 
L 263.063807 103.242697 
L 266.107443 103.242697 
L 266.107443 120.773132 
L 269.15108 120.773132 
L 269.15108 119.520958 
L 272.194716 119.520958 
L 272.194716 113.260088 
L 275.238352 113.260088 
L 275.238352 123.694871 
L 278.281989 123.694871 
L 278.281989 121.607914 
L 281.325625 121.607914 
L 281.325625 127.034001 
L 284.369261 127.034001 
L 284.369261 130.790523 
L 287.412898 130.790523 
L 287.412898 135.799219 
L 290.456534 135.799219 
L 290.456534 146.651393 
L 293.50017 146.651393 
L 293.50017 148.320958 
L 296.543807 148.320958 
L 296.543807 165.01661 
L 299.587443 165.01661 
L 299.587443 173.364436 
L 302.63108 173.364436 
L 302.63108 172.947045 
L 305.674716 172.947045 
L 305.674716 187.55574 
L 308.718352 187.55574 
L 308.718352 197.990523 
L 311.761989 197.990523 
L 311.761989 202.999219 
L 314.805625 202.999219 
L 314.805625 205.920958 
L 317.849261 205.920958 
L 317.849261 210.512262 
L 320.892898 210.512262 
L 320.892898 215.938349 
L 323.936534 215.938349 
L 323.936534 216.773132 
L 326.98017 216.773132 
L 326.98017 219.694871 
L 366.547443 219.694871 
L 366.547443 219.694871 
" clip-path="url(#pb41ade35cc)" style="fill: none; stroke: #9467bd; stroke-width: 1.5; stroke-linecap: square"/>
   </g>
   <g id="patch_3">
    <path d="M 46.965625 229.774871 
L 46.965625 8.014871 
" style="fill: none; stroke: #000000; stroke-width: 0.8; stroke-linejoin: miter; stroke-linecap: square"/>
   </g>
   <g id="patch_4">
    <path d="M 381.765625 229.774871 
L 381.765625 8.014871 
" style="fill: none; stroke: #000000; stroke-width: 0.8; stroke-linejoin: miter; stroke-linecap: square"/>
   </g>
   <g id="patch_5">
    <path d="M 46.965625 229.774871 
L 381.765625 229.774871 
" style="fill: none; stroke: #000000; stroke-width: 0.8; stroke-linejoin: miter; stroke-linecap: square"/>
   </g>
   <g id="patch_6">
    <path d="M 46.965625 8.014871 
L 381.765625 8.014871 
" style="fill: none; stroke: #000000; stroke-width: 0.8; stroke-linejoin: miter; stroke-linecap: square"/>
   </g>
   <g id="legend_1">
    <g id="patch_7">
     <path d="M 300.542188 89.405496 
L 374.765625 89.405496 
Q 376.765625 89.405496 376.765625 87.405496 
L 376.765625 15.014871 
Q 376.765625 13.014871 374.765625 13.014871 
L 300.542188 13.014871 
Q 298.542188 13.014871 298.542188 15.014871 
L 298.542188 87.405496 
Q 298.542188 89.405496 300.542188 89.405496 
z
" style="fill: #ffffff; opacity: 0.8; stroke: #cccccc; stroke-linejoin: miter"/>
    </g>
    <g id="line2d_19">
     <path d="M 302.542188 21.113308 
L 302.542188 21.113308 
L 312.542188 21.113308 
L 312.542188 21.113308 
L 322.542188 21.113308 
" style="fill: none; stroke: #1f77b4; stroke-width: 1.5; stroke-linecap: square"/>
    </g>
    <g id="text_16">
     <!-- beam -->
     <g transform="translate(330.542188 24.613308) scale(0.1 -0.1)">
      <defs>
       <path id="DejaVuSans-62" d="M 3116 1747 
Q 3116 2381 2855 2742 
Q 2594 3103 2138 3103 
Q 1681 3103 1420 2742 
Q 1159 2381 1159 1747 
Q 1159 1113 1420 752 
Q 1681 391 2138 391 
Q 2594 391 2855 752 
Q 3116 1113 3116 1747 
z
M 1159 2969 
Q 1341 3281 1617 3432 
Q 1894 3584 2278 3584 
Q 2916 3584 3314 3078 
Q 3713 2572 3713 1747 
Q 3713 922 3314 415 
Q 2916 -91 2278 -91 
Q 1894 -91 1617 61 
Q 1341 213 1159 525 
L 1159 0 
L 581 0 
L 581 4863 
L 1159 4863 
L 1159 2969 
z
" transform="scale(0.015625)"/>
       <path id="DejaVuSans-6d" d="M 3328 2828 
Q 3544 3216 3844 3400 
Q 4144 3584 4550 3584 
Q 5097 3584 5394 3201 
Q 5691 2819 5691 2113 
L 5691 0 
L 5113 0 
L 5113 2094 
Q 5113 2597 4934 2840 
Q 4756 3084 4391 3084 
Q 3944 3084 3684 2787 
Q 3425 2491 3425 1978 
L 3425 0 
L 2847 0 
L 2847 2094 
Q 2847 2600 2669 2842 
Q 2491 3084 2119 3084 
Q 1678 3084 1418 2786 
Q 1159 2488 1159 1978 
L 1159 0 
L 581 0 
L 581 3500 
L 1159 3500 
L 1159 2956 
Q 1356 3278 1631 3431 
Q 1906 3584 2284 3584 
Q 2666 3584 2933 3390 
Q 3200 3197 3328 2828 
z
" transform="scale(0.015625)"/>
      </defs>
      <use xlink:href="#DejaVuSans-62"/>
      <use xlink:href="#DejaVuSans-65" transform="translate(63.476562 0)"/>
      <use xlink:href="#DejaVuSans-61" transform="translate(125 0)"/>
      <use xlink:href="#DejaVuSans-6d" transform="translate(186.279297 0)"/>
     </g>
    </g>
    <g id="line2d_20">
     <path d="M 302.542188 35.791433 
L 302.542188 35.791433 
L 312.542188 35.791433 
L 312.542188 35.791433 
L 322.542188 35.791433 
" style="fill: none; stroke: #ff7f0e; stroke-width: 1.5; stroke-linecap: square"/>
    </g>
    <g id="text_17">
     <!-- sample -->
     <g transform="translate(330.542188 39.291433) scale(0.1 -0.1)">
      <defs>
       <path id="DejaVuSans-70" d="M 1159 525 
L 1159 -1331 
L 581 -1331 
L 581 3500 
L 1159 3500 
L 1159 2969 
Q 1341 3281 1617 3432 
Q 1894 3584 2278 3584 
Q 2916 3584 3314 3078 
Q 3713 2572 3713 1747 
Q 3713 922 3314 415 
Q 2916 -91 2278 -91 
Q 1894 -91 1617 61 
Q 1341 213 1159 525 
z
M 3116 1747 
Q 3116 2381 2855 2742 
Q 2594 3103 2138 3103 
Q 1681 3103 1420 2742 
Q 1159 2381 1159 1747 
Q 1159 1113 1420 752 
Q 1681 391 2138 391 
Q 2594 391 2855 752 
Q 3116 1113 3116 1747 
z
" transform="scale(0.015625)"/>
      </defs>
      <use xlink:href="#DejaVuSans-73"/>
      <use xlink:href="#DejaVuSans-61" transform="translate(52.099609 0)"/>
      <use xlink:href="#DejaVuSans-6d" transform="translate(113.378906 0)"/>
      <use xlink:href="#DejaVuSans-70" transform="translate(210.791016 0)"/>
      <use xlink:href="#DejaVuSans-6c" transform="translate(274.267578 0)"/>
      <use xlink:href="#DejaVuSans-65" transform="translate(302.050781 0)"/>
     </g>
    </g>
    <g id="line2d_21">
     <path d="M 302.542188 50.469558 
L 302.542188 50.469558 
L 312.542188 50.469558 
L 312.542188 50.469558 
L 322.542188 50.469558 
" style="fill: none; stroke: #2ca02c; stroke-width: 1.5; stroke-linecap: square"/>
    </g>
    <g id="text_18">
     <!-- monitor -->
     <g transform="translate(330.542188 53.969558) scale(0.1 -0.1)">
      <defs>
       <path id="DejaVuSans-69" d="M 603 3500 
L 1178 3500 
L 1178 0 
L 603 0 
L 603 3500 
z
M 603 4863 
L 1178 4863 
L 1178 4134 
L 603 4134 
L 603 4863 
z
" transform="scale(0.015625)"/>
       <path id="DejaVuSans-72" d="M 2631 2963 
Q 2534 3019 2420 3045 
Q 2306 3072 2169 3072 
Q 1681 3072 1420 2755 
Q 1159 2438 1159 1844 
L 1159 0 
L 581 0 
L 581 3500 
L 1159 3500 
L 1159 2956 
Q 1341 3275 1631 3429 
Q 1922 3584 2338 3584 
Q 2397 3584 2469 3576 
Q 2541 3569 2628 3553 
L 2631 2963 
z
" transform="scale(0.015625)"/>
      </defs>
      <use xlink:href="#DejaVuSans-6d"/>
      <use xlink:href="#DejaVuSans-6f" transform="translate(97.412109 0)"/>
      <use xlink:href="#DejaVuSans-6e" transform="translate(158.59375 0)"/>
      <use xlink:href="#DejaVuSans-69" transform="translate(221.972656 0)"/>
      <use xlink:href="#DejaVuSans-74" transform="translate(249.755859 0)"/>
      <use xlink:href="#DejaVuSans-6f" transform="translate(288.964844 0)"/>
      <use xlink:href="#DejaVuSans-72" transform="translate(350.146484 0)"/>
     </g>
    </g>
    <g id="line2d_22">
     <path d="M 302.542188 65.147683 
L 302.542188 65.147683 
L 312.542188 65.147683 
L 312.542188 65.147683 
L 322.542188 65.147683 
" style="fill: none; stroke: #d62728; stroke-width: 1.5; stroke-linecap: square"/>
    </g>
    <g id="text_19">
     <!-- detector -->
     <g transform="translate(330.542188 68.647683) scale(0.1 -0.1)">
      <defs>
       <path id="DejaVuSans-64" d="M 2906 2969 
L 2906 4863 
L 3481 4863 
L 3481 0 
L 2906 0 
L 2906 525 
Q 2725 213 2448 61 
Q 2172 -91 1784 -91 
Q 1150 -91 751 415 
Q 353 922 353 1747 
Q 353 2572 751 3078 
Q 1150 3584 1784 3584 
Q 2172 3584 2448 3432 
Q 2725 3281 2906 2969 
z
M 947 1747 
Q 947 1113 1208 752 
Q 1469 391 1925 391 
Q 2381 391 2643 752 
Q 2906 1113 2906 1747 
Q 2906 2381 2643 2742 
Q 2381 3103 1925 3103 
Q 1469 3103 1208 2742 
Q 947 2381 947 1747 
z
" transform="scale(0.015625)"/>
      </defs>
      <use xlink:href="#DejaVuSans-64"/>
      <use xlink:href="#DejaVuSans-65" transform="translate(63.476562 0)"/>
      <use xlink:href="#DejaVuSans-74" transform="translate(125 0)"/>
      <use xlink:href="#DejaVuSans-65" transform="translate(164.208984 0)"/>
      <use xlink:href="#DejaVuSans-63" transform="translate(225.732422 0)"/>
      <use xlink:href="#DejaVuSans-74" transform="translate(280.712891 0)"/>
      <use xlink:href="#DejaVuSans-6f" transform="translate(319.921875 0)"/>
      <use xlink:href="#DejaVuSans-72" transform="translate(381.103516 0)"/>
     </g>
    </g>
    <g id="line2d_23">
     <path d="M 302.542188 79.825808 
L 302.542188 79.825808 
L 312.542188 79.825808 
L 312.542188 79.825808 
L 322.542188 79.825808 
" style="fill: none; stroke: #9467bd; stroke-width: 1.5; stroke-linecap: square"/>
    </g>
    <g id="text_20">
     <!-- true -->
     <g transform="translate(330.542188 83.325808) scale(0.1 -0.1)">
      <use xlink:href="#DejaVuSans-74"/>
      <use xlink:href="#DejaVuSans-72" transform="translate(39.208984 0)"/>
      <use xlink:href="#DejaVuSans-75" transform="translate(80.322266 0)"/>
      <use xlink:href="#DejaVuSans-65" transform="translate(143.701172 0)"/>
     </g>
    </g>
   </g>
  </g>
 </g>
 <defs>
  <clipPath id="pb41ade35cc">
   <rect x="46.965625" y="8.014871" width="334.8" height="221.76"/>
  </clipPath>
 </defs>
</svg>
