<?xml version="1.0" encoding="utf-8" standalone="no"?>
<!DOCTYPE svg PUBLIC "-//W3C//DTD SVG 1.1//EN"
  "http://www.w3.org/Graphics/SVG/1.1/DTD/svg11.dtd">
<svg xmlns:xlink="http://www.w3.org/1999/xlink" width="395.328125pt" height="270.070141pt" viewBox="0 0 395.328125 270.070141" xmlns="http://www.w3.org/2000/svg" version="1.1">
 <metadata>
  <rdf:RDF xmlns:dc="http://purl.org/dc/elements/1.1/" xmlns:cc="http://creativecommons.org/ns#" xmlns:rdf="http://www.w3.org/1999/02/22-rdf-syntax-ns#">
   <cc:Work>
    <dc:type rdf:resource="http://purl.org/dc/dcmitype/StillImage"/>
    <dc:date>2025-02-17T17:53:20.291782</dc:date>
    <dc:format>image/svg+xml</dc:format>
    <dc:creator>
     <cc:Agent>
      <dc:title>Matplotlib v3.10.0, https://matplotlib.org/</dc:title>
     </cc:Agent>
    </dc:creator>
   </cc:Work>
  </rdf:RDF>
 </metadata>
 <defs>
  <style type="text/css">*{stroke-linejoin: round; stroke-linecap: butt}</style>
 </defs>
 <g id="figure_1">
  <g id="patch_1">
   <path d="M 0 270.070141 
L 395.328125 270.070141 
L 395.328125 0 
L 0 0 
z
" style="fill: #ffffff"/>
  </g>
  <g id="axes_1">
   <g id="patch_2">
    <path d="M 53.328125 230.829516 
L 388.128125 230.829516 
L 388.128125 9.069516 
L 53.328125 9.069516 
z
" style="fill: #ffffff"/>
   </g>
   <g id="matplotlib.axis_1">
    <g id="xtick_1">
     <g id="line2d_1">
      <defs>
       <path id="mf7d9dc8dc6" d="M 0 0 
L 0 3.5 
" style="stroke: #000000; stroke-width: 0.8"/>
      </defs>
      <g>
       <use xlink:href="#mf7d9dc8dc6" x="68.546307" y="230.829516" style="stroke: #000000; stroke-width: 0.8"/>
      </g>
     </g>
     <g id="text_1">
      <!-- 1 -->
      <g transform="translate(65.365057 245.427954) scale(0.1 -0.1)">
       <defs>
        <path id="DejaVuSans-31" d="M 794 531 
L 1825 531 
L 1825 4091 
L 703 3866 
L 703 4441 
L 1819 4666 
L 2450 4666 
L 2450 531 
L 3481 531 
L 3481 0 
L 794 0 
L 794 531 
z
" transform="scale(0.015625)"/>
       </defs>
       <use xlink:href="#DejaVuSans-31"/>
      </g>
     </g>
    </g>
    <g id="xtick_2">
     <g id="line2d_2">
      <g>
       <use xlink:href="#mf7d9dc8dc6" x="112.026826" y="230.829516" style="stroke: #000000; stroke-width: 0.8"/>
      </g>
     </g>
     <g id="text_2">
      <!-- 2 -->
      <g transform="translate(108.845576 245.427954) scale(0.1 -0.1)">
       <defs>
        <path id="DejaVuSans-32" d="M 1228 531 
L 3431 531 
L 3431 0 
L 469 0 
L 469 531 
Q 828 903 1448 1529 
Q 2069 2156 2228 2338 
Q 2531 2678 2651 2914 
Q 2772 3150 2772 3378 
Q 2772 3750 2511 3984 
Q 2250 4219 1831 4219 
Q 1534 4219 1204 4116 
Q 875 4013 500 3803 
L 500 4441 
Q 881 4594 1212 4672 
Q 1544 4750 1819 4750 
Q 2544 4750 2975 4387 
Q 3406 4025 3406 3419 
Q 3406 3131 3298 2873 
Q 3191 2616 2906 2266 
Q 2828 2175 2409 1742 
Q 1991 1309 1228 531 
z
" transform="scale(0.015625)"/>
       </defs>
       <use xlink:href="#DejaVuSans-32"/>
      </g>
     </g>
    </g>
    <g id="xtick_3">
     <g id="line2d_3">
      <g>
       <use xlink:href="#mf7d9dc8dc6" x="155.507346" y="230.829516" style="stroke: #000000; stroke-width: 0.8"/>
      </g>
     </g>
     <g id="text_3">
      <!-- 3 -->
      <g transform="translate(152.326096 245.427954) scale(0.1 -0.1)">
       <defs>
        <path id="DejaVuSans-33" d="M 2597 2516 
Q 3050 2419 3304 2112 
Q 3559 1806 3559 1356 
Q 3559 666 3084 287 
Q 2609 -91 1734 -91 
Q 1441 -91 1130 -33 
Q 819 25 488 141 
L 488 750 
Q 750 597 1062 519 
Q 1375 441 1716 441 
Q 2309 441 2620 675 
Q 2931 909 2931 1356 
Q 2931 1769 2642 2001 
Q 2353 2234 1838 2234 
L 1294 2234 
L 1294 2753 
L 1863 2753 
Q 2328 2753 2575 2939 
Q 2822 3125 2822 3475 
Q 2822 3834 2567 4026 
Q 2313 4219 1838 4219 
Q 1578 4219 1281 4162 
Q 984 4106 628 3988 
L 628 4550 
Q 988 4650 1302 4700 
Q 1616 4750 1894 4750 
Q 2613 4750 3031 4423 
Q 3450 4097 3450 3541 
Q 3450 3153 3228 2886 
Q 3006 2619 2597 2516 
z
" transform="scale(0.015625)"/>
       </defs>
       <use xlink:href="#DejaVuSans-33"/>
      </g>
     </g>
    </g>
    <g id="xtick_4">
     <g id="line2d_4">
      <g>
       <use xlink:href="#mf7d9dc8dc6" x="198.987865" y="230.829516" style="stroke: #000000; stroke-width: 0.8"/>
      </g>
     </g>
     <g id="text_4">
      <!-- 4 -->
      <g transform="translate(195.806615 245.427954) scale(0.1 -0.1)">
       <defs>
        <path id="DejaVuSans-34" d="M 2419 4116 
L 825 1625 
L 2419 1625 
L 2419 4116 
z
M 2253 4666 
L 3047 4666 
L 3047 1625 
L 3713 1625 
L 3713 1100 
L 3047 1100 
L 3047 0 
L 2419 0 
L 2419 1100 
L 313 1100 
L 313 1709 
L 2253 4666 
z
" transform="scale(0.015625)"/>
       </defs>
       <use xlink:href="#DejaVuSans-34"/>
      </g>
     </g>
    </g>
    <g id="xtick_5">
     <g id="line2d_5">
      <g>
       <use xlink:href="#mf7d9dc8dc6" x="242.468385" y="230.829516" style="stroke: #000000; stroke-width: 0.8"/>
      </g>
     </g>
     <g id="text_5">
      <!-- 5 -->
      <g transform="translate(239.287135 245.427954) scale(0.1 -0.1)">
       <defs>
        <path id="DejaVuSans-35" d="M 691 4666 
L 3169 4666 
L 3169 4134 
L 1269 4134 
L 1269 2991 
Q 1406 3038 1543 3061 
Q 1681 3084 1819 3084 
Q 2600 3084 3056 2656 
Q 3513 2228 3513 1497 
Q 3513 744 3044 326 
Q 2575 -91 1722 -91 
Q 1428 -91 1123 -41 
Q 819 9 494 109 
L 494 744 
Q 775 591 1075 516 
Q 1375 441 1709 441 
Q 2250 441 2565 725 
Q 2881 1009 2881 1497 
Q 2881 1984 2565 2268 
Q 2250 2553 1709 2553 
Q 1456 2553 1204 2497 
Q 953 2441 691 2322 
L 691 4666 
z
" transform="scale(0.015625)"/>
       </defs>
       <use xlink:href="#DejaVuSans-35"/>
      </g>
     </g>
    </g>
    <g id="xtick_6">
     <g id="line2d_6">
      <g>
       <use xlink:href="#mf7d9dc8dc6" x="285.948904" y="230.829516" style="stroke: #000000; stroke-width: 0.8"/>
      </g>
     </g>
     <g id="text_6">
      <!-- 6 -->
      <g transform="translate(282.767654 245.427954) scale(0.1 -0.1)">
       <defs>
        <path id="DejaVuSans-36" d="M 2113 2584 
Q 1688 2584 1439 2293 
Q 1191 2003 1191 1497 
Q 1191 994 1439 701 
Q 1688 409 2113 409 
Q 2538 409 2786 701 
Q 3034 994 3034 1497 
Q 3034 2003 2786 2293 
Q 2538 2584 2113 2584 
z
M 3366 4563 
L 3366 3988 
Q 3128 4100 2886 4159 
Q 2644 4219 2406 4219 
Q 1781 4219 1451 3797 
Q 1122 3375 1075 2522 
Q 1259 2794 1537 2939 
Q 1816 3084 2150 3084 
Q 2853 3084 3261 2657 
Q 3669 2231 3669 1497 
Q 3669 778 3244 343 
Q 2819 -91 2113 -91 
Q 1303 -91 875 529 
Q 447 1150 447 2328 
Q 447 3434 972 4092 
Q 1497 4750 2381 4750 
Q 2619 4750 2861 4703 
Q 3103 4656 3366 4563 
z
" transform="scale(0.015625)"/>
       </defs>
       <use xlink:href="#DejaVuSans-36"/>
      </g>
     </g>
    </g>
    <g id="xtick_7">
     <g id="line2d_7">
      <g>
       <use xlink:href="#mf7d9dc8dc6" x="329.429424" y="230.829516" style="stroke: #000000; stroke-width: 0.8"/>
      </g>
     </g>
     <g id="text_7">
      <!-- 7 -->
      <g transform="translate(326.248174 245.427954) scale(0.1 -0.1)">
       <defs>
        <path id="DejaVuSans-37" d="M 525 4666 
L 3525 4666 
L 3525 4397 
L 1831 0 
L 1172 0 
L 2766 4134 
L 525 4134 
L 525 4666 
z
" transform="scale(0.015625)"/>
       </defs>
       <use xlink:href="#DejaVuSans-37"/>
      </g>
     </g>
    </g>
    <g id="xtick_8">
     <g id="line2d_8">
      <g>
       <use xlink:href="#mf7d9dc8dc6" x="372.909943" y="230.829516" style="stroke: #000000; stroke-width: 0.8"/>
      </g>
     </g>
     <g id="text_8">
      <!-- 8 -->
      <g transform="translate(369.728693 245.427954) scale(0.1 -0.1)">
       <defs>
        <path id="DejaVuSans-38" d="M 2034 2216 
Q 1584 2216 1326 1975 
Q 1069 1734 1069 1313 
Q 1069 891 1326 650 
Q 1584 409 2034 409 
Q 2484 409 2743 651 
Q 3003 894 3003 1313 
Q 3003 1734 2745 1975 
Q 2488 2216 2034 2216 
z
M 1403 2484 
Q 997 2584 770 2862 
Q 544 3141 544 3541 
Q 544 4100 942 4425 
Q 1341 4750 2034 4750 
Q 2731 4750 3128 4425 
Q 3525 4100 3525 3541 
Q 3525 3141 3298 2862 
Q 3072 2584 2669 2484 
Q 3125 2378 3379 2068 
Q 3634 1759 3634 1313 
Q 3634 634 3220 271 
Q 2806 -91 2034 -91 
Q 1263 -91 848 271 
Q 434 634 434 1313 
Q 434 1759 690 2068 
Q 947 2378 1403 2484 
z
M 1172 3481 
Q 1172 3119 1398 2916 
Q 1625 2713 2034 2713 
Q 2441 2713 2670 2916 
Q 2900 3119 2900 3481 
Q 2900 3844 2670 4047 
Q 2441 4250 2034 4250 
Q 1625 4250 1398 4047 
Q 1172 3844 1172 3481 
z
" transform="scale(0.015625)"/>
       </defs>
       <use xlink:href="#DejaVuSans-38"/>
      </g>
     </g>
    </g>
    <g id="text_9">
     <!-- wavelength [Å] -->
     <g transform="translate(182.690625 260.790454) scale(0.1 -0.1)">
      <defs>
       <path id="DejaVuSans-77" d="M 269 3500 
L 844 3500 
L 1563 769 
L 2278 3500 
L 2956 3500 
L 3675 769 
L 4391 3500 
L 4966 3500 
L 4050 0 
L 3372 0 
L 2619 2869 
L 1863 0 
L 1184 0 
L 269 3500 
z
" transform="scale(0.015625)"/>
       <path id="DejaVuSans-61" d="M 2194 1759 
Q 1497 1759 1228 1600 
Q 959 1441 959 1056 
Q 959 750 1161 570 
Q 1363 391 1709 391 
Q 2188 391 2477 730 
Q 2766 1069 2766 1631 
L 2766 1759 
L 2194 1759 
z
M 3341 1997 
L 3341 0 
L 2766 0 
L 2766 531 
Q 2569 213 2275 61 
Q 1981 -91 1556 -91 
Q 1019 -91 701 211 
Q 384 513 384 1019 
Q 384 1609 779 1909 
Q 1175 2209 1959 2209 
L 2766 2209 
L 2766 2266 
Q 2766 2663 2505 2880 
Q 2244 3097 1772 3097 
Q 1472 3097 1187 3025 
Q 903 2953 641 2809 
L 641 3341 
Q 956 3463 1253 3523 
Q 1550 3584 1831 3584 
Q 2591 3584 2966 3190 
Q 3341 2797 3341 1997 
z
" transform="scale(0.015625)"/>
       <path id="DejaVuSans-76" d="M 191 3500 
L 800 3500 
L 1894 563 
L 2988 3500 
L 3597 3500 
L 2284 0 
L 1503 0 
L 191 3500 
z
" transform="scale(0.015625)"/>
       <path id="DejaVuSans-65" d="M 3597 1894 
L 3597 1613 
L 953 1613 
Q 991 1019 1311 708 
Q 1631 397 2203 397 
Q 2534 397 2845 478 
Q 3156 559 3463 722 
L 3463 178 
Q 3153 47 2828 -22 
Q 2503 -91 2169 -91 
Q 1331 -91 842 396 
Q 353 884 353 1716 
Q 353 2575 817 3079 
Q 1281 3584 2069 3584 
Q 2775 3584 3186 3129 
Q 3597 2675 3597 1894 
z
M 3022 2063 
Q 3016 2534 2758 2815 
Q 2500 3097 2075 3097 
Q 1594 3097 1305 2825 
Q 1016 2553 972 2059 
L 3022 2063 
z
" transform="scale(0.015625)"/>
       <path id="DejaVuSans-6c" d="M 603 4863 
L 1178 4863 
L 1178 0 
L 603 0 
L 603 4863 
z
" transform="scale(0.015625)"/>
       <path id="DejaVuSans-6e" d="M 3513 2113 
L 3513 0 
L 2938 0 
L 2938 2094 
Q 2938 2591 2744 2837 
Q 2550 3084 2163 3084 
Q 1697 3084 1428 2787 
Q 1159 2491 1159 1978 
L 1159 0 
L 581 0 
L 581 3500 
L 1159 3500 
L 1159 2956 
Q 1366 3272 1645 3428 
Q 1925 3584 2291 3584 
Q 2894 3584 3203 3211 
Q 3513 2838 3513 2113 
z
" transform="scale(0.015625)"/>
       <path id="DejaVuSans-67" d="M 2906 1791 
Q 2906 2416 2648 2759 
Q 2391 3103 1925 3103 
Q 1463 3103 1205 2759 
Q 947 2416 947 1791 
Q 947 1169 1205 825 
Q 1463 481 1925 481 
Q 2391 481 2648 825 
Q 2906 1169 2906 1791 
z
M 3481 434 
Q 3481 -459 3084 -895 
Q 2688 -1331 1869 -1331 
Q 1566 -1331 1297 -1286 
Q 1028 -1241 775 -1147 
L 775 -588 
Q 1028 -725 1275 -790 
Q 1522 -856 1778 -856 
Q 2344 -856 2625 -561 
Q 2906 -266 2906 331 
L 2906 616 
Q 2728 306 2450 153 
Q 2172 0 1784 0 
Q 1141 0 747 490 
Q 353 981 353 1791 
Q 353 2603 747 3093 
Q 1141 3584 1784 3584 
Q 2172 3584 2450 3431 
Q 2728 3278 2906 2969 
L 2906 3500 
L 3481 3500 
L 3481 434 
z
" transform="scale(0.015625)"/>
       <path id="DejaVuSans-74" d="M 1172 4494 
L 1172 3500 
L 2356 3500 
L 2356 3053 
L 1172 3053 
L 1172 1153 
Q 1172 725 1289 603 
Q 1406 481 1766 481 
L 2356 481 
L 2356 0 
L 1766 0 
Q 1100 0 847 248 
Q 594 497 594 1153 
L 594 3053 
L 172 3053 
L 172 3500 
L 594 3500 
L 594 4494 
L 1172 4494 
z
" transform="scale(0.015625)"/>
       <path id="DejaVuSans-68" d="M 3513 2113 
L 3513 0 
L 2938 0 
L 2938 2094 
Q 2938 2591 2744 2837 
Q 2550 3084 2163 3084 
Q 1697 3084 1428 2787 
Q 1159 2491 1159 1978 
L 1159 0 
L 581 0 
L 581 4863 
L 1159 4863 
L 1159 2956 
Q 1366 3272 1645 3428 
Q 1925 3584 2291 3584 
Q 2894 3584 3203 3211 
Q 3513 2838 3513 2113 
z
" transform="scale(0.015625)"/>
       <path id="DejaVuSans-20" transform="scale(0.015625)"/>
       <path id="DejaVuSans-5b" d="M 550 4863 
L 1875 4863 
L 1875 4416 
L 1125 4416 
L 1125 -397 
L 1875 -397 
L 1875 -844 
L 550 -844 
L 550 4863 
z
" transform="scale(0.015625)"/>
       <path id="DejaVuSans-c5" d="M 2663 5081 
Q 2663 5278 2523 5417 
Q 2384 5556 2188 5556 
Q 1988 5556 1852 5420 
Q 1716 5284 1716 5081 
Q 1716 4884 1853 4746 
Q 1991 4609 2188 4609 
Q 2384 4609 2523 4746 
Q 2663 4884 2663 5081 
z
M 2188 4044 
L 1338 1722 
L 3041 1722 
L 2188 4044 
z
M 1716 4366 
Q 1525 4494 1428 4673 
Q 1331 4853 1331 5081 
Q 1331 5441 1579 5691 
Q 1828 5941 2188 5941 
Q 2544 5941 2795 5689 
Q 3047 5438 3047 5081 
Q 3047 4863 2948 4678 
Q 2850 4494 2663 4366 
L 4325 0 
L 3669 0 
L 3244 1197 
L 1141 1197 
L 716 0 
L 50 0 
L 1716 4366 
z
" transform="scale(0.015625)"/>
       <path id="DejaVuSans-5d" d="M 1947 4863 
L 1947 -844 
L 622 -844 
L 622 -397 
L 1369 -397 
L 1369 4416 
L 622 4416 
L 622 4863 
L 1947 4863 
z
" transform="scale(0.015625)"/>
      </defs>
      <use xlink:href="#DejaVuSans-77"/>
      <use xlink:href="#DejaVuSans-61" transform="translate(81.787109 0)"/>
      <use xlink:href="#DejaVuSans-76" transform="translate(143.066406 0)"/>
      <use xlink:href="#DejaVuSans-65" transform="translate(202.246094 0)"/>
      <use xlink:href="#DejaVuSans-6c" transform="translate(263.769531 0)"/>
      <use xlink:href="#DejaVuSans-65" transform="translate(291.552734 0)"/>
      <use xlink:href="#DejaVuSans-6e" transform="translate(353.076172 0)"/>
      <use xlink:href="#DejaVuSans-67" transform="translate(416.455078 0)"/>
      <use xlink:href="#DejaVuSans-74" transform="translate(479.931641 0)"/>
      <use xlink:href="#DejaVuSans-68" transform="translate(519.140625 0)"/>
      <use xlink:href="#DejaVuSans-20" transform="translate(582.519531 0)"/>
      <use xlink:href="#DejaVuSans-5b" transform="translate(614.306641 0)"/>
      <use xlink:href="#DejaVuSans-c5" transform="translate(653.320312 0)"/>
      <use xlink:href="#DejaVuSans-5d" transform="translate(721.728516 0)"/>
     </g>
    </g>
   </g>
   <g id="matplotlib.axis_2">
    <g id="ytick_1">
     <g id="line2d_9">
      <defs>
       <path id="m08ffabc73b" d="M 0 0 
L -3.5 0 
" style="stroke: #000000; stroke-width: 0.8"/>
      </defs>
      <g>
       <use xlink:href="#m08ffabc73b" x="53.328125" y="220.749516" style="stroke: #000000; stroke-width: 0.8"/>
      </g>
     </g>
     <g id="text_10">
      <!-- 0 -->
      <g transform="translate(39.965625 224.548735) scale(0.1 -0.1)">
       <defs>
        <path id="DejaVuSans-30" d="M 2034 4250 
Q 1547 4250 1301 3770 
Q 1056 3291 1056 2328 
Q 1056 1369 1301 889 
Q 1547 409 2034 409 
Q 2525 409 2770 889 
Q 3016 1369 3016 2328 
Q 3016 3291 2770 3770 
Q 2525 4250 2034 4250 
z
M 2034 4750 
Q 2819 4750 3233 4129 
Q 3647 3509 3647 2328 
Q 3647 1150 3233 529 
Q 2819 -91 2034 -91 
Q 1250 -91 836 529 
Q 422 1150 422 2328 
Q 422 3509 836 4129 
Q 1250 4750 2034 4750 
z
" transform="scale(0.015625)"/>
       </defs>
       <use xlink:href="#DejaVuSans-30"/>
      </g>
     </g>
    </g>
    <g id="ytick_2">
     <g id="line2d_10">
      <g>
       <use xlink:href="#m08ffabc73b" x="53.328125" y="190.785188" style="stroke: #000000; stroke-width: 0.8"/>
      </g>
     </g>
     <g id="text_11">
      <!-- 1000 -->
      <g transform="translate(20.878125 194.584407) scale(0.1 -0.1)">
       <use xlink:href="#DejaVuSans-31"/>
       <use xlink:href="#DejaVuSans-30" transform="translate(63.623047 0)"/>
       <use xlink:href="#DejaVuSans-30" transform="translate(127.246094 0)"/>
       <use xlink:href="#DejaVuSans-30" transform="translate(190.869141 0)"/>
      </g>
     </g>
    </g>
    <g id="ytick_3">
     <g id="line2d_11">
      <g>
       <use xlink:href="#m08ffabc73b" x="53.328125" y="160.82086" style="stroke: #000000; stroke-width: 0.8"/>
      </g>
     </g>
     <g id="text_12">
      <!-- 2000 -->
      <g transform="translate(20.878125 164.620078) scale(0.1 -0.1)">
       <use xlink:href="#DejaVuSans-32"/>
       <use xlink:href="#DejaVuSans-30" transform="translate(63.623047 0)"/>
       <use xlink:href="#DejaVuSans-30" transform="translate(127.246094 0)"/>
       <use xlink:href="#DejaVuSans-30" transform="translate(190.869141 0)"/>
      </g>
     </g>
    </g>
    <g id="ytick_4">
     <g id="line2d_12">
      <g>
       <use xlink:href="#m08ffabc73b" x="53.328125" y="130.856531" style="stroke: #000000; stroke-width: 0.8"/>
      </g>
     </g>
     <g id="text_13">
      <!-- 3000 -->
      <g transform="translate(20.878125 134.65575) scale(0.1 -0.1)">
       <use xlink:href="#DejaVuSans-33"/>
       <use xlink:href="#DejaVuSans-30" transform="translate(63.623047 0)"/>
       <use xlink:href="#DejaVuSans-30" transform="translate(127.246094 0)"/>
       <use xlink:href="#DejaVuSans-30" transform="translate(190.869141 0)"/>
      </g>
     </g>
    </g>
    <g id="ytick_5">
     <g id="line2d_13">
      <g>
       <use xlink:href="#m08ffabc73b" x="53.328125" y="100.892203" style="stroke: #000000; stroke-width: 0.8"/>
      </g>
     </g>
     <g id="text_14">
      <!-- 4000 -->
      <g transform="translate(20.878125 104.691422) scale(0.1 -0.1)">
       <use xlink:href="#DejaVuSans-34"/>
       <use xlink:href="#DejaVuSans-30" transform="translate(63.623047 0)"/>
       <use xlink:href="#DejaVuSans-30" transform="translate(127.246094 0)"/>
       <use xlink:href="#DejaVuSans-30" transform="translate(190.869141 0)"/>
      </g>
     </g>
    </g>
    <g id="ytick_6">
     <g id="line2d_14">
      <g>
       <use xlink:href="#m08ffabc73b" x="53.328125" y="70.927875" style="stroke: #000000; stroke-width: 0.8"/>
      </g>
     </g>
     <g id="text_15">
      <!-- 5000 -->
      <g transform="translate(20.878125 74.727094) scale(0.1 -0.1)">
       <use xlink:href="#DejaVuSans-35"/>
       <use xlink:href="#DejaVuSans-30" transform="translate(63.623047 0)"/>
       <use xlink:href="#DejaVuSans-30" transform="translate(127.246094 0)"/>
       <use xlink:href="#DejaVuSans-30" transform="translate(190.869141 0)"/>
      </g>
     </g>
    </g>
    <g id="ytick_7">
     <g id="line2d_15">
      <g>
       <use xlink:href="#m08ffabc73b" x="53.328125" y="40.963547" style="stroke: #000000; stroke-width: 0.8"/>
      </g>
     </g>
     <g id="text_16">
      <!-- 6000 -->
      <g transform="translate(20.878125 44.762766) scale(0.1 -0.1)">
       <use xlink:href="#DejaVuSans-36"/>
       <use xlink:href="#DejaVuSans-30" transform="translate(63.623047 0)"/>
       <use xlink:href="#DejaVuSans-30" transform="translate(127.246094 0)"/>
       <use xlink:href="#DejaVuSans-30" transform="translate(190.869141 0)"/>
      </g>
     </g>
    </g>
    <g id="ytick_8">
     <g id="line2d_16">
      <g>
       <use xlink:href="#m08ffabc73b" x="53.328125" y="10.999219" style="stroke: #000000; stroke-width: 0.8"/>
      </g>
     </g>
     <g id="text_17">
      <!-- 7000 -->
      <g transform="translate(20.878125 14.798438) scale(0.1 -0.1)">
       <use xlink:href="#DejaVuSans-37"/>
       <use xlink:href="#DejaVuSans-30" transform="translate(63.623047 0)"/>
       <use xlink:href="#DejaVuSans-30" transform="translate(127.246094 0)"/>
       <use xlink:href="#DejaVuSans-30" transform="translate(190.869141 0)"/>
      </g>
     </g>
    </g>
    <g id="text_18">
     <!-- [counts] -->
     <g transform="translate(14.798438 140.562016) rotate(-90) scale(0.1 -0.1)">
      <defs>
       <path id="DejaVuSans-63" d="M 3122 3366 
L 3122 2828 
Q 2878 2963 2633 3030 
Q 2388 3097 2138 3097 
Q 1578 3097 1268 2742 
Q 959 2388 959 1747 
Q 959 1106 1268 751 
Q 1578 397 2138 397 
Q 2388 397 2633 464 
Q 2878 531 3122 666 
L 3122 134 
Q 2881 22 2623 -34 
Q 2366 -91 2075 -91 
Q 1284 -91 818 406 
Q 353 903 353 1747 
Q 353 2603 823 3093 
Q 1294 3584 2113 3584 
Q 2378 3584 2631 3529 
Q 2884 3475 3122 3366 
z
" transform="scale(0.015625)"/>
       <path id="DejaVuSans-6f" d="M 1959 3097 
Q 1497 3097 1228 2736 
Q 959 2375 959 1747 
Q 959 1119 1226 758 
Q 1494 397 1959 397 
Q 2419 397 2687 759 
Q 2956 1122 2956 1747 
Q 2956 2369 2687 2733 
Q 2419 3097 1959 3097 
z
M 1959 3584 
Q 2709 3584 3137 3096 
Q 3566 2609 3566 1747 
Q 3566 888 3137 398 
Q 2709 -91 1959 -91 
Q 1206 -91 779 398 
Q 353 888 353 1747 
Q 353 2609 779 3096 
Q 1206 3584 1959 3584 
z
" transform="scale(0.015625)"/>
       <path id="DejaVuSans-75" d="M 544 1381 
L 544 3500 
L 1119 3500 
L 1119 1403 
Q 1119 906 1312 657 
Q 1506 409 1894 409 
Q 2359 409 2629 706 
Q 2900 1003 2900 1516 
L 2900 3500 
L 3475 3500 
L 3475 0 
L 2900 0 
L 2900 538 
Q 2691 219 2414 64 
Q 2138 -91 1772 -91 
Q 1169 -91 856 284 
Q 544 659 544 1381 
z
M 1991 3584 
L 1991 3584 
z
" transform="scale(0.015625)"/>
       <path id="DejaVuSans-73" d="M 2834 3397 
L 2834 2853 
Q 2591 2978 2328 3040 
Q 2066 3103 1784 3103 
Q 1356 3103 1142 2972 
Q 928 2841 928 2578 
Q 928 2378 1081 2264 
Q 1234 2150 1697 2047 
L 1894 2003 
Q 2506 1872 2764 1633 
Q 3022 1394 3022 966 
Q 3022 478 2636 193 
Q 2250 -91 1575 -91 
Q 1294 -91 989 -36 
Q 684 19 347 128 
L 347 722 
Q 666 556 975 473 
Q 1284 391 1588 391 
Q 1994 391 2212 530 
Q 2431 669 2431 922 
Q 2431 1156 2273 1281 
Q 2116 1406 1581 1522 
L 1381 1569 
Q 847 1681 609 1914 
Q 372 2147 372 2553 
Q 372 3047 722 3315 
Q 1072 3584 1716 3584 
Q 2034 3584 2315 3537 
Q 2597 3491 2834 3397 
z
" transform="scale(0.015625)"/>
      </defs>
      <use xlink:href="#DejaVuSans-5b"/>
      <use xlink:href="#DejaVuSans-63" transform="translate(39.013672 0)"/>
      <use xlink:href="#DejaVuSans-6f" transform="translate(93.994141 0)"/>
      <use xlink:href="#DejaVuSans-75" transform="translate(155.175781 0)"/>
      <use xlink:href="#DejaVuSans-6e" transform="translate(218.554688 0)"/>
      <use xlink:href="#DejaVuSans-74" transform="translate(281.933594 0)"/>
      <use xlink:href="#DejaVuSans-73" transform="translate(321.142578 0)"/>
      <use xlink:href="#DejaVuSans-5d" transform="translate(373.242188 0)"/>
     </g>
    </g>
   </g>
   <g id="patch_3">
    <path d="M 53.328125 230.829516 
L 53.328125 9.069516 
" style="fill: none; stroke: #000000; stroke-width: 0.8; stroke-linejoin: miter; stroke-linecap: square"/>
   </g>
   <g id="patch_4">
    <path d="M 388.128125 230.829516 
L 388.128125 9.069516 
" style="fill: none; stroke: #000000; stroke-width: 0.8; stroke-linejoin: miter; stroke-linecap: square"/>
   </g>
   <g id="patch_5">
    <path d="M 53.328125 230.829516 
L 388.128125 230.829516 
" style="fill: none; stroke: #000000; stroke-width: 0.8; stroke-linejoin: miter; stroke-linecap: square"/>
   </g>
   <g id="patch_6">
    <path d="M 53.328125 9.069516 
L 388.128125 9.069516 
" style="fill: none; stroke: #000000; stroke-width: 0.8; stroke-linejoin: miter; stroke-linecap: square"/>
   </g>
   <g id="legend_1">
    <g id="patch_7">
     <path d="M 306.904688 61.103891 
L 381.128125 61.103891 
Q 383.128125 61.103891 383.128125 59.103891 
L 383.128125 16.069516 
Q 383.128125 14.069516 381.128125 14.069516 
L 306.904688 14.069516 
Q 304.904688 14.069516 304.904688 16.069516 
L 304.904688 59.103891 
Q 304.904688 61.103891 306.904688 61.103891 
z
" style="fill: #ffffff; opacity: 0.8; stroke: #cccccc; stroke-linejoin: miter"/>
    </g>
    <g id="line2d_17">
     <path d="M 308.904688 22.167954 
L 308.904688 22.167954 
L 318.904688 22.167954 
L 318.904688 22.167954 
L 328.904688 22.167954 
" style="fill: none; stroke: #1f77b4; stroke-width: 1.5; stroke-linecap: square"/>
    </g>
    <g id="text_19">
     <!-- monitor -->
     <g transform="translate(336.904688 25.667954) scale(0.1 -0.1)">
      <defs>
       <path id="DejaVuSans-6d" d="M 3328 2828 
Q 3544 3216 3844 3400 
Q 4144 3584 4550 3584 
Q 5097 3584 5394 3201 
Q 5691 2819 5691 2113 
L 5691 0 
L 5113 0 
L 5113 2094 
Q 5113 2597 4934 2840 
Q 4756 3084 4391 3084 
Q 3944 3084 3684 2787 
Q 3425 2491 3425 1978 
L 3425 0 
L 2847 0 
L 2847 2094 
Q 2847 2600 2669 2842 
Q 2491 3084 2119 3084 
Q 1678 3084 1418 2786 
Q 1159 2488 1159 1978 
L 1159 0 
L 581 0 
L 581 3500 
L 1159 3500 
L 1159 2956 
Q 1356 3278 1631 3431 
Q 1906 3584 2284 3584 
Q 2666 3584 2933 3390 
Q 3200 3197 3328 2828 
z
" transform="scale(0.015625)"/>
       <path id="DejaVuSans-69" d="M 603 3500 
L 1178 3500 
L 1178 0 
L 603 0 
L 603 3500 
z
M 603 4863 
L 1178 4863 
L 1178 4134 
L 603 4134 
L 603 4863 
z
" transform="scale(0.015625)"/>
       <path id="DejaVuSans-72" d="M 2631 2963 
Q 2534 3019 2420 3045 
Q 2306 3072 2169 3072 
Q 1681 3072 1420 2755 
Q 1159 2438 1159 1844 
L 1159 0 
L 581 0 
L 581 3500 
L 1159 3500 
L 1159 2956 
Q 1341 3275 1631 3429 
Q 1922 3584 2338 3584 
Q 2397 3584 2469 3576 
Q 2541 3569 2628 3553 
L 2631 2963 
z
" transform="scale(0.015625)"/>
      </defs>
      <use xlink:href="#DejaVuSans-6d"/>
      <use xlink:href="#DejaVuSans-6f" transform="translate(97.412109 0)"/>
      <use xlink:href="#DejaVuSans-6e" transform="translate(158.59375 0)"/>
      <use xlink:href="#DejaVuSans-69" transform="translate(221.972656 0)"/>
      <use xlink:href="#DejaVuSans-74" transform="translate(249.755859 0)"/>
      <use xlink:href="#DejaVuSans-6f" transform="translate(288.964844 0)"/>
      <use xlink:href="#DejaVuSans-72" transform="translate(350.146484 0)"/>
     </g>
    </g>
    <g id="line2d_18">
     <path d="M 308.904688 36.846079 
L 308.904688 36.846079 
L 318.904688 36.846079 
L 318.904688 36.846079 
L 328.904688 36.846079 
" style="fill: none; stroke: #ff7f0e; stroke-width: 1.5; stroke-linecap: square"/>
    </g>
    <g id="text_20">
     <!-- detector -->
     <g transform="translate(336.904688 40.346079) scale(0.1 -0.1)">
      <defs>
       <path id="DejaVuSans-64" d="M 2906 2969 
L 2906 4863 
L 3481 4863 
L 3481 0 
L 2906 0 
L 2906 525 
Q 2725 213 2448 61 
Q 2172 -91 1784 -91 
Q 1150 -91 751 415 
Q 353 922 353 1747 
Q 353 2572 751 3078 
Q 1150 3584 1784 3584 
Q 2172 3584 2448 3432 
Q 2725 3281 2906 2969 
z
M 947 1747 
Q 947 1113 1208 752 
Q 1469 391 1925 391 
Q 2381 391 2643 752 
Q 2906 1113 2906 1747 
Q 2906 2381 2643 2742 
Q 2381 3103 1925 3103 
Q 1469 3103 1208 2742 
Q 947 2381 947 1747 
z
" transform="scale(0.015625)"/>
      </defs>
      <use xlink:href="#DejaVuSans-64"/>
      <use xlink:href="#DejaVuSans-65" transform="translate(63.476562 0)"/>
      <use xlink:href="#DejaVuSans-74" transform="translate(125 0)"/>
      <use xlink:href="#DejaVuSans-65" transform="translate(164.208984 0)"/>
      <use xlink:href="#DejaVuSans-63" transform="translate(225.732422 0)"/>
      <use xlink:href="#DejaVuSans-74" transform="translate(280.712891 0)"/>
      <use xlink:href="#DejaVuSans-6f" transform="translate(319.921875 0)"/>
      <use xlink:href="#DejaVuSans-72" transform="translate(381.103516 0)"/>
     </g>
    </g>
    <g id="line2d_19">
     <path d="M 308.904688 51.524204 
L 308.904688 51.524204 
L 318.904688 51.524204 
L 318.904688 51.524204 
L 328.904688 51.524204 
" style="fill: none; stroke: #2ca02c; stroke-width: 1.5; stroke-linecap: square"/>
    </g>
    <g id="text_21">
     <!-- true -->
     <g transform="translate(336.904688 55.024204) scale(0.1 -0.1)">
      <use xlink:href="#DejaVuSans-74"/>
      <use xlink:href="#DejaVuSans-72" transform="translate(39.208984 0)"/>
      <use xlink:href="#DejaVuSans-75" transform="translate(80.322266 0)"/>
      <use xlink:href="#DejaVuSans-65" transform="translate(143.701172 0)"/>
     </g>
    </g>
   </g>
   <g id="line2d_20">
    <path d="M 68.546307 220.749516 
L 77.677216 220.689587 
L 77.677216 220.629659 
L 80.720852 220.56973 
L 80.720852 220.330015 
L 81.481761 220.330015 
L 81.481761 220.210158 
L 82.24267 220.210158 
L 82.24267 220.599694 
L 83.00358 220.599694 
L 83.00358 220.240122 
L 83.764489 220.240122 
L 83.764489 220.030372 
L 84.525398 220.030372 
L 84.525398 220.240122 
L 86.047216 220.210158 
L 86.047216 220.35998 
L 86.808125 220.35998 
L 86.808125 220.030372 
L 88.329943 220.060336 
L 88.329943 220.240122 
L 89.090852 220.240122 
L 89.090852 219.940479 
L 90.61267 219.88055 
L 90.61267 219.760693 
L 91.37358 219.760693 
L 91.37358 219.550943 
L 92.134489 219.550943 
L 92.134489 219.2513 
L 93.656307 219.221335 
L 93.656307 219.940479 
L 94.417216 219.940479 
L 94.417216 219.371157 
L 95.178125 219.371157 
L 95.178125 218.681977 
L 95.939034 218.681977 
L 95.939034 218.532156 
L 96.699943 218.532156 
L 96.699943 218.232512 
L 97.460852 218.232512 
L 97.460852 218.112655 
L 98.221761 218.112655 
L 98.221761 218.56212 
L 98.98267 218.56212 
L 98.98267 217.003975 
L 99.74358 217.003975 
L 99.74358 216.464617 
L 100.504489 216.464617 
L 100.504489 216.135009 
L 101.265398 216.135009 
L 101.265398 215.745473 
L 102.026307 215.745473 
L 102.026307 215.625616 
L 103.548125 215.65558 
L 103.548125 214.666757 
L 104.309034 214.666757 
L 104.309034 213.258434 
L 105.069943 213.258434 
L 105.069943 211.700289 
L 105.830852 211.700289 
L 105.830852 212.149754 
L 106.591761 212.149754 
L 106.591761 212.029897 
L 107.35267 212.029897 
L 107.35267 209.123357 
L 108.11358 209.123357 
L 108.11358 208.583999 
L 108.874489 208.583999 
L 108.874489 206.666282 
L 109.635398 206.666282 
L 109.635398 205.40778 
L 110.396307 205.40778 
L 110.396307 202.381383 
L 111.157216 202.381383 
L 111.157216 200.913131 
L 111.918125 200.913131 
L 111.918125 198.605877 
L 112.679034 198.605877 
L 112.679034 195.549516 
L 113.439943 195.549516 
L 113.439943 192.433226 
L 114.200852 192.433226 
L 114.200852 188.747614 
L 114.961761 188.747614 
L 114.961761 186.680075 
L 115.72267 186.680075 
L 115.72267 180.627281 
L 116.48358 180.627281 
L 116.48358 178.589706 
L 117.244489 178.589706 
L 117.244489 177.151419 
L 118.005398 177.151419 
L 118.005398 171.548089 
L 118.766307 171.548089 
L 118.766307 169.240836 
L 119.527216 169.240836 
L 119.527216 166.214439 
L 120.288125 166.214439 
L 120.288125 162.169254 
L 121.049034 162.169254 
L 121.049034 159.71218 
L 121.809943 159.71218 
L 121.809943 152.370919 
L 122.570852 152.370919 
L 122.570852 150.30338 
L 123.331761 150.30338 
L 123.331761 147.606591 
L 124.09267 147.606591 
L 124.09267 141.583761 
L 124.85358 141.583761 
L 124.85358 134.901716 
L 125.614489 134.901716 
L 125.614489 130.526924 
L 126.375398 130.526924 
L 126.375398 122.856056 
L 127.136307 122.856056 
L 127.136307 121.657483 
L 127.897216 121.657483 
L 127.897216 116.743333 
L 128.658125 116.743333 
L 128.658125 116.533583 
L 129.419034 116.533583 
L 129.419034 107.064855 
L 130.179943 107.064855 
L 130.179943 96.847019 
L 130.940852 96.847019 
L 130.940852 100.742382 
L 131.701761 100.742382 
L 131.701761 95.618482 
L 132.46267 95.618482 
L 132.46267 82.134534 
L 133.22358 82.134534 
L 133.22358 85.820146 
L 133.984489 85.820146 
L 133.984489 76.411347 
L 134.745398 76.411347 
L 134.745398 65.294581 
L 135.506307 65.294581 
L 135.506307 66.133583 
L 136.267216 66.133583 
L 136.267216 52.949278 
L 137.028125 52.949278 
L 137.028125 56.694819 
L 137.789034 56.694819 
L 137.789034 61.369254 
L 138.549943 61.369254 
L 138.549943 46.986377 
L 139.310852 46.986377 
L 139.310852 51.001597 
L 140.071761 51.001597 
L 140.071761 54.477459 
L 140.83267 54.477459 
L 140.83267 42.072227 
L 141.59358 42.072227 
L 141.59358 38.596365 
L 142.354489 38.596365 
L 142.354489 41.772584 
L 143.115398 41.772584 
L 143.115398 38.985901 
L 143.876307 38.985901 
L 143.876307 40.034653 
L 144.637216 40.034653 
L 144.637216 40.933583 
L 145.398125 40.933583 
L 145.398125 36.858434 
L 146.159034 36.858434 
L 146.159034 39.585188 
L 146.919943 39.585188 
L 146.919943 28.708137 
L 147.680852 28.708137 
L 147.680852 41.442976 
L 148.441761 41.442976 
L 148.441761 41.892441 
L 149.20267 41.892441 
L 149.20267 23.973773 
L 149.96358 23.973773 
L 149.96358 39.555224 
L 150.724489 39.555224 
L 150.724489 33.382572 
L 151.485398 33.382572 
L 151.485398 29.637031 
L 152.246307 29.637031 
L 152.246307 39.04583 
L 153.007216 39.04583 
L 153.007216 27.839171 
L 153.768125 27.839171 
L 153.768125 40.663904 
L 154.529034 40.663904 
L 154.529034 33.322643 
L 155.289943 33.322643 
L 155.289943 52.88935 
L 156.050852 52.88935 
L 156.050852 32.094106 
L 156.811761 32.094106 
L 156.811761 25.292203 
L 157.57267 25.292203 
L 157.57267 30.416103 
L 158.33358 30.416103 
L 158.33358 22.08602 
L 159.094489 22.08602 
L 159.094489 43.810158 
L 159.855398 43.810158 
L 159.855398 38.506472 
L 160.616307 38.506472 
L 160.616307 40.304332 
L 161.377216 40.304332 
L 161.377216 19.149516 
L 162.138125 19.149516 
L 162.138125 39.04583 
L 162.899034 39.04583 
L 162.899034 35.000646 
L 163.659943 35.000646 
L 163.659943 29.756888 
L 164.420852 29.756888 
L 164.420852 31.22514 
L 165.181761 31.22514 
L 165.181761 19.86866 
L 165.94267 19.86866 
L 165.94267 48.364736 
L 166.70358 48.364736 
L 166.70358 22.595414 
L 167.464489 22.595414 
L 167.464489 34.850824 
L 168.225398 34.850824 
L 168.225398 38.925973 
L 168.986307 38.925973 
L 168.986307 36.798505 
L 169.747216 36.798505 
L 169.747216 53.848208 
L 170.508125 53.848208 
L 170.508125 34.161644 
L 171.269034 34.161644 
L 171.269034 44.888874 
L 172.029943 44.888874 
L 172.029943 50.522168 
L 172.790852 50.522168 
L 172.790852 52.020384 
L 173.551761 52.020384 
L 173.551761 39.824902 
L 174.31267 39.824902 
L 174.31267 56.155461 
L 175.07358 56.155461 
L 175.07358 58.882215 
L 175.834489 58.882215 
L 175.834489 58.103143 
L 176.595398 58.103143 
L 176.595398 65.534296 
L 177.356307 65.534296 
L 177.356307 64.755224 
L 178.117216 64.755224 
L 178.117216 68.440836 
L 178.878125 68.440836 
L 178.878125 69.15998 
L 179.639034 69.15998 
L 179.639034 72.306234 
L 180.399943 72.306234 
L 180.399943 66.313369 
L 181.160852 66.313369 
L 181.160852 76.830848 
L 181.921761 76.830848 
L 181.921761 72.306234 
L 182.68267 72.306234 
L 182.68267 80.09696 
L 183.44358 80.09696 
L 183.44358 77.220384 
L 184.204489 77.220384 
L 184.204489 82.823713 
L 184.965398 82.823713 
L 184.965398 85.760218 
L 185.726307 85.760218 
L 185.726307 89.385901 
L 186.487216 89.385901 
L 186.487216 86.53929 
L 187.248125 86.53929 
L 187.248125 93.2513 
L 188.009034 93.2513 
L 188.009034 99.723594 
L 188.769943 99.723594 
L 188.769943 82.134534 
L 189.530852 82.134534 
L 189.530852 96.427518 
L 190.291761 96.427518 
L 190.291761 93.6708 
L 191.05267 93.6708 
L 191.05267 103.588993 
L 191.81358 103.588993 
L 191.81358 95.618482 
L 192.574489 95.618482 
L 192.574489 108.712893 
L 193.335398 108.712893 
L 193.335398 99.573773 
L 194.096307 99.573773 
L 194.096307 114.466044 
L 194.857216 114.466044 
L 194.857216 102.899813 
L 195.618125 102.899813 
L 195.618125 106.165925 
L 196.379034 106.165925 
L 196.379034 107.154748 
L 197.139943 107.154748 
L 197.139943 104.517887 
L 197.900852 104.517887 
L 197.900852 111.259861 
L 198.661761 111.259861 
L 198.661761 117.462477 
L 199.42267 117.462477 
L 199.42267 114.975438 
L 200.18358 114.975438 
L 200.18358 108.652964 
L 200.944489 108.652964 
L 200.944489 120.219195 
L 201.705398 120.219195 
L 201.705398 109.192322 
L 202.466307 109.192322 
L 202.466307 129.747851 
L 203.227216 129.747851 
L 203.227216 121.447732 
L 203.988125 121.447732 
L 203.988125 132.055105 
L 204.749034 132.055105 
L 204.749034 109.671751 
L 205.509943 109.671751 
L 205.509943 121.327875 
L 206.270852 121.327875 
L 206.270852 125.223238 
L 207.031761 125.223238 
L 207.031761 129.388279 
L 207.79267 129.388279 
L 207.79267 132.324784 
L 208.55358 132.324784 
L 208.55358 130.766638 
L 209.314489 130.766638 
L 209.314489 133.61325 
L 210.075398 133.61325 
L 210.075398 127.081026 
L 210.836307 127.081026 
L 210.836307 137.568541 
L 211.597216 137.568541 
L 211.597216 129.478172 
L 212.358125 129.478172 
L 212.358125 134.092679 
L 213.119034 134.092679 
L 213.119034 133.073892 
L 213.879943 133.073892 
L 213.879943 134.542144 
L 214.640852 134.542144 
L 214.640852 147.127162 
L 215.401761 147.127162 
L 215.401761 121.597554 
L 216.16267 121.597554 
L 216.16267 146.677697 
L 216.92358 146.677697 
L 216.92358 136.909326 
L 217.684489 136.909326 
L 217.684489 137.928113 
L 218.445398 137.928113 
L 218.445398 151.142382 
L 219.206307 151.142382 
L 219.206307 141.553797 
L 219.967216 141.553797 
L 219.967216 148.715271 
L 220.728125 148.715271 
L 220.728125 144.789944 
L 221.489034 144.789944 
L 221.489034 150.423238 
L 222.249943 150.423238 
L 222.249943 150.662952 
L 223.010852 150.662952 
L 223.010852 150.483166 
L 223.771761 150.483166 
L 223.771761 147.966163 
L 224.53267 147.966163 
L 224.53267 142.722405 
L 225.29358 142.722405 
L 225.29358 155.846781 
L 226.054489 155.846781 
L 226.054489 154.79803 
L 226.815398 154.79803 
L 226.815398 146.28816 
L 227.576307 146.28816 
L 227.576307 160.34143 
L 228.337216 160.34143 
L 228.337216 154.498386 
L 229.098125 154.498386 
L 229.098125 148.715271 
L 229.859034 148.715271 
L 229.859034 155.666995 
L 230.619943 155.666995 
L 230.619943 159.862001 
L 231.380852 159.862001 
L 231.380852 152.490776 
L 232.141761 152.490776 
L 232.141761 155.726924 
L 232.90267 155.726924 
L 232.90267 161.719789 
L 233.66358 161.719789 
L 233.66358 156.386139 
L 234.424489 156.386139 
L 234.424489 163.93715 
L 235.185398 163.93715 
L 235.185398 156.895533 
L 235.946307 156.895533 
L 235.946307 170.109801 
L 236.707216 170.109801 
L 236.707216 151.861526 
L 237.468125 151.861526 
L 237.468125 173.525735 
L 238.229034 173.525735 
L 238.229034 163.218006 
L 238.989943 163.218006 
L 238.989943 157.884355 
L 239.750852 157.884355 
L 239.750852 174.304807 
L 240.511761 174.304807 
L 240.511761 164.446543 
L 241.27267 164.446543 
L 241.27267 163.128113 
L 242.03358 163.128113 
L 242.03358 170.439409 
L 242.794489 170.439409 
L 242.794489 170.079837 
L 243.555398 170.079837 
L 243.555398 167.712655 
L 244.316307 167.712655 
L 244.316307 174.454629 
L 245.077216 174.454629 
L 245.077216 169.660336 
L 245.838125 169.660336 
L 245.838125 174.18495 
L 246.599034 174.18495 
L 246.599034 168.192084 
L 247.359943 168.192084 
L 247.359943 172.147376 
L 248.120852 172.147376 
L 248.120852 175.263666 
L 248.881761 175.263666 
L 248.881761 176.791847 
L 249.64267 176.791847 
L 249.64267 176.432275 
L 250.40358 176.432275 
L 250.40358 176.222524 
L 251.164489 176.222524 
L 251.164489 179.788279 
L 251.925398 179.788279 
L 251.925398 176.761882 
L 252.686307 176.761882 
L 252.686307 180.597316 
L 253.447216 180.597316 
L 253.447216 185.571395 
L 254.208125 185.571395 
L 254.208125 182.305283 
L 254.969034 182.305283 
L 254.969034 181.586139 
L 255.729943 181.586139 
L 255.729943 185.361644 
L 256.490852 185.361644 
L 256.490852 187.33929 
L 257.251761 187.33929 
L 257.251761 183.773535 
L 258.01267 183.773535 
L 258.01267 188.627756 
L 258.77358 188.627756 
L 258.77358 188.927399 
L 259.534489 188.927399 
L 259.534489 184.702429 
L 260.295398 184.702429 
L 260.295398 190.215866 
L 261.056307 190.215866 
L 261.056307 188.418006 
L 261.817216 188.418006 
L 261.817216 189.436793 
L 262.578125 189.436793 
L 262.578125 193.302191 
L 263.339034 193.302191 
L 263.339034 192.583048 
L 264.099943 192.583048 
L 264.099943 192.163547 
L 264.860852 192.163547 
L 264.860852 196.26866 
L 265.621761 196.26866 
L 265.621761 194.770443 
L 266.38267 194.770443 
L 266.38267 194.111228 
L 267.14358 194.111228 
L 267.14358 198.366163 
L 267.904489 198.366163 
L 267.904489 196.298624 
L 268.665398 196.298624 
L 268.665398 195.36973 
L 269.426307 195.36973 
L 269.426307 199.564736 
L 270.187216 199.564736 
L 270.187216 199.145235 
L 270.948125 199.145235 
L 270.948125 200.403737 
L 271.709034 200.403737 
L 271.709034 201.18281 
L 272.469943 201.18281 
L 272.469943 202.051775 
L 273.230852 202.051775 
L 273.230852 200.973059 
L 273.991761 200.973059 
L 273.991761 203.60992 
L 275.51358 203.579956 
L 275.51358 203.280313 
L 276.274489 203.280313 
L 276.274489 203.699813 
L 277.035398 203.699813 
L 277.035398 206.037031 
L 277.796307 206.037031 
L 277.796307 203.010634 
L 278.557216 203.010634 
L 278.557216 207.025854 
L 279.318125 207.025854 
L 279.318125 206.486496 
L 280.079034 206.486496 
L 280.079034 207.085782 
L 280.839943 207.085782 
L 280.839943 208.31432 
L 281.600852 208.31432 
L 281.600852 209.423 
L 282.361761 209.423 
L 282.361761 207.715033 
L 283.12267 207.715033 
L 283.12267 211.130967 
L 283.88358 211.130967 
L 283.88358 209.393036 
L 284.644489 209.393036 
L 284.644489 210.381858 
L 285.405398 210.381858 
L 285.405398 209.872465 
L 286.166307 209.872465 
L 286.166307 210.771395 
L 286.927216 210.771395 
L 286.927216 211.999932 
L 287.688125 211.999932 
L 287.688125 211.370681 
L 288.449034 211.370681 
L 288.449034 212.898862 
L 289.209943 212.898862 
L 289.209943 213.318363 
L 289.970852 213.318363 
L 289.970852 212.659147 
L 290.731761 212.659147 
L 290.731761 213.258434 
L 291.49267 213.258434 
L 291.49267 213.767828 
L 292.25358 213.767828 
L 292.25358 213.618006 
L 293.014489 213.618006 
L 293.014489 215.355937 
L 293.775398 215.355937 
L 293.775398 214.906472 
L 294.536307 214.906472 
L 294.536307 215.805402 
L 296.058125 215.805402 
L 296.058125 216.164974 
L 296.819034 216.164974 
L 296.819034 216.524546 
L 298.340852 216.464617 
L 298.340852 216.914082 
L 299.101761 216.914082 
L 299.101761 217.45344 
L 299.86267 217.45344 
L 299.86267 216.974011 
L 300.62358 216.974011 
L 300.62358 217.693155 
L 301.384489 217.693155 
L 301.384489 218.262477 
L 302.906307 218.202548 
L 302.906307 218.592084 
L 303.667216 218.592084 
L 303.667216 218.861763 
L 304.428125 218.861763 
L 304.428125 218.981621 
L 305.189034 218.981621 
L 305.189034 219.341193 
L 305.949943 219.341193 
L 305.949943 219.700765 
L 306.710852 219.700765 
L 306.710852 219.580907 
L 307.471761 219.580907 
L 307.471761 220.000408 
L 308.23267 220.000408 
L 308.23267 219.88055 
L 308.99358 219.88055 
L 308.99358 220.389944 
L 309.754489 220.389944 
L 309.754489 220.030372 
L 310.515398 220.030372 
L 310.515398 220.449873 
L 311.276307 220.449873 
L 311.276307 220.749516 
L 372.909943 220.749516 
L 372.909943 220.749516 
" clip-path="url(#pdd01d2a97c)" style="fill: none; stroke: #1f77b4; stroke-width: 1.5; stroke-linecap: square"/>
   </g>
   <g id="line2d_21">
    <path d="M 68.546307 220.749516 
L 77.677216 220.749516 
L 77.677216 220.629659 
L 78.438125 220.629659 
L 78.438125 220.749516 
L 79.199034 220.749516 
L 79.199034 220.629659 
L 80.720852 220.599694 
L 80.720852 220.419908 
L 81.481761 220.419908 
L 81.481761 220.120265 
L 82.24267 220.120265 
L 82.24267 220.509801 
L 83.764489 220.419908 
L 83.764489 219.640836 
L 84.525398 219.640836 
L 84.525398 220.509801 
L 85.286307 220.509801 
L 85.286307 220.270087 
L 86.047216 220.270087 
L 86.047216 220.389944 
L 86.808125 220.389944 
L 86.808125 219.940479 
L 87.569034 219.940479 
L 87.569034 220.180194 
L 88.329943 220.180194 
L 88.329943 220.030372 
L 89.090852 220.030372 
L 89.090852 219.910515 
L 90.61267 219.88055 
L 90.61267 219.610872 
L 91.37358 219.610872 
L 91.37358 219.970443 
L 92.134489 219.970443 
L 92.134489 219.281264 
L 92.895398 219.281264 
L 92.895398 219.431086 
L 93.656307 219.431086 
L 93.656307 219.730729 
L 94.417216 219.730729 
L 94.417216 218.711942 
L 95.178125 218.711942 
L 95.178125 218.861763 
L 95.939034 218.861763 
L 95.939034 218.592084 
L 96.699943 218.592084 
L 96.699943 218.052726 
L 97.460852 218.052726 
L 97.460852 218.502191 
L 98.221761 218.502191 
L 98.221761 217.693155 
L 99.74358 217.633226 
L 99.74358 215.835366 
L 100.504489 215.835366 
L 100.504489 216.944046 
L 101.265398 216.944046 
L 101.265398 216.284831 
L 102.026307 216.284831 
L 102.026307 215.505759 
L 102.787216 215.505759 
L 102.787216 215.355937 
L 103.548125 215.355937 
L 103.548125 213.318363 
L 104.309034 213.318363 
L 104.309034 214.516936 
L 105.069943 214.516936 
L 105.069943 212.988755 
L 105.830852 212.988755 
L 105.830852 210.891252 
L 106.591761 210.891252 
L 106.591761 210.74143 
L 107.35267 210.74143 
L 107.35267 209.782572 
L 108.11358 209.782572 
L 108.11358 207.325497 
L 108.874489 207.325497 
L 108.874489 207.175675 
L 109.635398 207.175675 
L 109.635398 206.066995 
L 110.396307 206.066995 
L 110.396307 203.100527 
L 111.157216 203.100527 
L 111.157216 200.313844 
L 111.918125 200.313844 
L 111.918125 198.545949 
L 112.679034 198.545949 
L 112.679034 193.272227 
L 113.439943 193.272227 
L 113.439943 194.500765 
L 114.200852 194.500765 
L 114.200852 188.747614 
L 114.961761 188.747614 
L 114.961761 183.473892 
L 115.72267 183.473892 
L 115.72267 183.264141 
L 116.48358 183.264141 
L 116.48358 180.057958 
L 117.244489 180.057958 
L 117.244489 172.506948 
L 118.005398 172.506948 
L 118.005398 173.885307 
L 118.766307 173.885307 
L 118.766307 169.840122 
L 119.527216 169.840122 
L 119.527216 164.596365 
L 120.288125 164.596365 
L 120.288125 160.82086 
L 121.049034 160.82086 
L 121.049034 159.023 
L 121.809943 159.023 
L 121.809943 156.835604 
L 122.570852 156.835604 
L 122.570852 149.014914 
L 123.331761 149.014914 
L 123.331761 143.86105 
L 124.85358 143.920979 
L 124.85358 134.691965 
L 125.614489 134.691965 
L 125.614489 126.991133 
L 126.375398 126.991133 
L 126.375398 127.949992 
L 127.136307 127.949992 
L 127.136307 118.061763 
L 127.897216 118.061763 
L 127.897216 117.941906 
L 128.658125 117.941906 
L 128.658125 110.360931 
L 129.419034 110.360931 
L 129.419034 109.611823 
L 130.179943 109.611823 
L 130.179943 99.993273 
L 130.940852 99.993273 
L 130.940852 94.689587 
L 132.46267 94.749516 
L 132.46267 87.108612 
L 133.22358 87.108612 
L 133.22358 83.063428 
L 133.984489 83.063428 
L 133.984489 69.57948 
L 134.745398 69.57948 
L 134.745398 68.201121 
L 135.506307 68.201121 
L 135.506307 65.084831 
L 136.267216 65.084831 
L 136.267216 61.279361 
L 137.028125 61.279361 
L 137.028125 57.144284 
L 137.789034 57.144284 
L 137.789034 49.50338 
L 138.549943 49.50338 
L 138.549943 53.368779 
L 139.310852 53.368779 
L 139.310852 52.88935 
L 140.071761 52.88935 
L 140.071761 46.506948 
L 140.83267 46.506948 
L 140.83267 48.993987 
L 141.59358 48.993987 
L 141.59358 38.416579 
L 142.354489 38.416579 
L 142.354489 43.120979 
L 143.115398 43.120979 
L 143.115398 39.405402 
L 143.876307 39.405402 
L 143.876307 38.057007 
L 144.637216 38.057007 
L 144.637216 37.457721 
L 145.398125 37.457721 
L 145.398125 39.285545 
L 146.159034 39.285545 
L 146.159034 35.000646 
L 146.919943 35.000646 
L 146.919943 38.656294 
L 147.680852 38.656294 
L 147.680852 37.277935 
L 148.441761 37.277935 
L 148.441761 37.577578 
L 149.20267 37.577578 
L 149.20267 37.697435 
L 149.96358 37.697435 
L 149.96358 35.599932 
L 150.724489 35.599932 
L 150.724489 30.775675 
L 151.485398 30.775675 
L 151.485398 20.198268 
L 152.246307 20.198268 
L 152.246307 34.281502 
L 153.007216 34.281502 
L 153.007216 41.922405 
L 153.768125 41.922405 
L 153.768125 33.742144 
L 154.529034 33.742144 
L 154.529034 35.989468 
L 155.289943 35.989468 
L 155.289943 43.48055 
L 156.050852 43.48055 
L 156.050852 35.420146 
L 156.811761 35.420146 
L 156.811761 31.734534 
L 157.57267 31.734534 
L 157.57267 25.20231 
L 158.33358 25.20231 
L 158.33358 23.644165 
L 159.094489 23.644165 
L 159.094489 44.409445 
L 159.855398 44.409445 
L 159.855398 36.079361 
L 160.616307 36.079361 
L 160.616307 40.004688 
L 161.377216 40.004688 
L 161.377216 35.689825 
L 162.138125 35.689825 
L 162.138125 28.528351 
L 162.899034 28.528351 
L 162.899034 33.082929 
L 163.659943 33.082929 
L 163.659943 34.34143 
L 165.181761 34.251537 
L 165.181761 29.607067 
L 165.94267 29.607067 
L 165.94267 26.071276 
L 166.70358 26.071276 
L 166.70358 36.858434 
L 167.464489 36.858434 
L 167.464489 48.424665 
L 168.225398 48.424665 
L 168.225398 36.468898 
L 168.986307 36.468898 
L 168.986307 48.424665 
L 169.747216 48.424665 
L 169.747216 40.723832 
L 170.508125 40.723832 
L 170.508125 37.967114 
L 171.269034 37.967114 
L 171.269034 48.424665 
L 172.029943 48.424665 
L 172.029943 51.451062 
L 172.790852 51.451062 
L 172.790852 42.252013 
L 173.551761 42.252013 
L 173.551761 55.376389 
L 174.31267 55.376389 
L 174.31267 56.994463 
L 175.07358 56.994463 
L 175.07358 52.88935 
L 175.834489 52.88935 
L 175.834489 58.942144 
L 176.595398 58.942144 
L 176.595398 60.44036 
L 177.356307 60.44036 
L 177.356307 64.45558 
L 178.117216 64.45558 
L 178.117216 68.4708 
L 178.878125 68.4708 
L 178.878125 69.879124 
L 179.639034 69.879124 
L 179.639034 63.197078 
L 180.399943 63.197078 
L 180.399943 72.905521 
L 181.160852 72.905521 
L 181.160852 76.950705 
L 181.921761 76.950705 
L 181.921761 64.935009 
L 182.68267 64.935009 
L 182.68267 83.872465 
L 183.44358 83.872465 
L 183.44358 79.707423 
L 184.204489 79.707423 
L 184.204489 90.854153 
L 184.965398 90.854153 
L 184.965398 77.759742 
L 185.726307 77.759742 
L 185.726307 86.179718 
L 186.487216 86.179718 
L 186.487216 91.633226 
L 187.248125 91.633226 
L 187.248125 85.460574 
L 188.009034 85.460574 
L 188.009034 103.738814 
L 188.769943 103.738814 
L 188.769943 96.217768 
L 189.530852 96.217768 
L 189.530852 85.790182 
L 190.291761 85.790182 
L 190.291761 90.045116 
L 191.05267 90.045116 
L 191.05267 95.408731 
L 191.81358 95.408731 
L 191.81358 104.128351 
L 192.574489 104.128351 
L 192.574489 107.334534 
L 193.335398 107.334534 
L 193.335398 99.993273 
L 194.096307 99.993273 
L 194.096307 107.694106 
L 194.857216 107.694106 
L 194.857216 105.566638 
L 195.618125 105.566638 
L 195.618125 102.420384 
L 196.379034 102.420384 
L 196.379034 113.027756 
L 197.139943 113.027756 
L 197.139943 109.222287 
L 197.900852 109.222287 
L 197.900852 110.091252 
L 198.661761 110.091252 
L 198.661761 110.211109 
L 199.42267 110.211109 
L 199.42267 115.125259 
L 200.18358 115.125259 
L 200.18358 120.129302 
L 201.705398 120.099338 
L 201.705398 112.698149 
L 202.466307 112.698149 
L 202.466307 109.851537 
L 203.227216 109.851537 
L 203.227216 129.418244 
L 203.988125 129.418244 
L 203.988125 124.564023 
L 204.749034 124.564023 
L 204.749034 127.59042 
L 205.509943 127.59042 
L 205.509943 121.687447 
L 206.270852 121.687447 
L 206.270852 120.608731 
L 207.031761 120.608731 
L 207.031761 133.823 
L 207.79267 133.823 
L 207.79267 125.882453 
L 208.55358 125.882453 
L 208.55358 130.616817 
L 209.314489 130.616817 
L 209.314489 125.552845 
L 210.075398 125.552845 
L 210.075398 134.961644 
L 210.836307 134.961644 
L 210.836307 134.242501 
L 211.597216 134.242501 
L 211.597216 130.347138 
L 212.358125 130.347138 
L 212.358125 136.969254 
L 213.119034 136.969254 
L 213.119034 132.414677 
L 213.879943 132.414677 
L 213.879943 137.568541 
L 214.640852 137.568541 
L 214.640852 132.864141 
L 215.401761 132.864141 
L 215.401761 138.197792 
L 216.16267 138.197792 
L 216.16267 136.609682 
L 216.92358 136.609682 
L 216.92358 143.052013 
L 217.684489 143.052013 
L 217.684489 138.9469 
L 218.445398 138.9469 
L 218.445398 147.816341 
L 219.206307 147.816341 
L 219.206307 146.168303 
L 219.967216 146.168303 
L 219.967216 143.111942 
L 220.728125 143.111942 
L 220.728125 148.415628 
L 221.489034 148.415628 
L 221.489034 143.591371 
L 222.249943 143.591371 
L 222.249943 152.940241 
L 223.010852 152.940241 
L 223.010852 150.932631 
L 223.771761 150.932631 
L 223.771761 144.400408 
L 224.53267 144.400408 
L 224.53267 150.812774 
L 225.29358 150.812774 
L 225.29358 151.142382 
L 226.054489 151.142382 
L 226.054489 152.610634 
L 226.815398 152.610634 
L 226.815398 151.771633 
L 227.576307 151.771633 
L 227.576307 166.36426 
L 228.337216 166.36426 
L 228.337216 145.86866 
L 229.098125 145.86866 
L 229.098125 153.20992 
L 229.859034 153.20992 
L 229.859034 149.584237 
L 230.619943 149.584237 
L 230.619943 160.311466 
L 231.380852 160.311466 
L 231.380852 154.498386 
L 232.141761 154.498386 
L 232.141761 154.648208 
L 232.90267 154.648208 
L 232.90267 162.289112 
L 233.66358 162.289112 
L 233.66358 159.532394 
L 234.424489 159.532394 
L 234.424489 157.195176 
L 235.185398 157.195176 
L 235.185398 162.468898 
L 236.707216 162.498862 
L 236.707216 161.24036 
L 237.468125 161.24036 
L 237.468125 163.757364 
L 238.229034 163.757364 
L 238.229034 165.225616 
L 238.989943 165.225616 
L 238.989943 168.072227 
L 239.750852 168.072227 
L 239.750852 164.925973 
L 240.511761 164.925973 
L 240.511761 166.783761 
L 242.03358 166.84369 
L 242.03358 165.345473 
L 242.794489 165.345473 
L 242.794489 171.038696 
L 243.555398 171.038696 
L 243.555398 167.233226 
L 244.316307 167.233226 
L 244.316307 177.061526 
L 245.077216 177.061526 
L 245.077216 165.495295 
L 245.838125 165.495295 
L 245.838125 175.143809 
L 246.599034 175.143809 
L 246.599034 173.915271 
L 247.359943 173.915271 
L 247.359943 171.038696 
L 248.120852 171.038696 
L 248.120852 179.159029 
L 248.881761 179.159029 
L 248.881761 171.128589 
L 249.64267 171.128589 
L 249.64267 174.035128 
L 250.40358 174.035128 
L 250.40358 177.061526 
L 251.164489 177.061526 
L 251.164489 178.20017 
L 251.925398 178.20017 
L 251.925398 178.349992 
L 252.686307 178.349992 
L 252.686307 181.136674 
L 253.447216 181.136674 
L 253.447216 179.968065 
L 254.208125 179.968065 
L 254.208125 187.249397 
L 254.969034 187.249397 
L 254.969034 183.294106 
L 255.729943 183.294106 
L 255.729943 187.848684 
L 256.490852 187.848684 
L 256.490852 182.814677 
L 257.251761 182.814677 
L 257.251761 187.668898 
L 258.01267 187.668898 
L 258.01267 185.631323 
L 258.77358 185.631323 
L 258.77358 186.110753 
L 259.534489 186.110753 
L 259.534489 188.897435 
L 260.295398 188.897435 
L 260.295398 187.249397 
L 261.056307 187.249397 
L 261.056307 189.976151 
L 261.817216 189.976151 
L 261.817216 191.534296 
L 262.578125 191.534296 
L 262.578125 192.133583 
L 263.339034 192.133583 
L 263.339034 190.665331 
L 264.099943 190.665331 
L 264.099943 194.650586 
L 264.860852 194.650586 
L 264.860852 192.642976 
L 265.621761 192.642976 
L 265.621761 192.493155 
L 266.38267 192.493155 
L 266.38267 199.864379 
L 267.14358 199.864379 
L 267.14358 194.021335 
L 267.904489 194.021335 
L 267.904489 197.617055 
L 268.665398 197.617055 
L 268.665398 197.227518 
L 269.426307 197.227518 
L 269.426307 198.845592 
L 270.187216 198.845592 
L 270.187216 199.474843 
L 270.948125 199.474843 
L 270.948125 198.306234 
L 271.709034 198.306234 
L 271.709034 203.310277 
L 272.469943 203.310277 
L 272.469943 200.463666 
L 273.230852 200.463666 
L 273.230852 201.901954 
L 273.991761 201.901954 
L 273.991761 203.160455 
L 274.75267 203.160455 
L 274.75267 203.909564 
L 275.51358 203.909564 
L 275.51358 201.901954 
L 276.274489 201.901954 
L 276.274489 204.598743 
L 277.035398 204.598743 
L 277.035398 204.149278 
L 277.796307 204.149278 
L 277.796307 207.325497 
L 278.557216 207.325497 
L 278.557216 203.759742 
L 279.318125 203.759742 
L 279.318125 207.055818 
L 280.079034 207.055818 
L 280.079034 207.325497 
L 280.839943 207.325497 
L 280.839943 207.535247 
L 281.600852 207.535247 
L 281.600852 209.033464 
L 283.12267 209.093392 
L 283.12267 209.482929 
L 284.644489 209.572822 
L 284.644489 211.101002 
L 285.405398 211.101002 
L 285.405398 209.153321 
L 286.166307 209.153321 
L 286.166307 210.951181 
L 286.927216 210.951181 
L 286.927216 210.202072 
L 287.688125 210.202072 
L 287.688125 213.078648 
L 288.449034 213.078648 
L 288.449034 212.53929 
L 289.209943 212.53929 
L 289.209943 213.528113 
L 289.970852 213.528113 
L 289.970852 212.53929 
L 290.731761 212.53929 
L 290.731761 213.588042 
L 292.25358 213.588042 
L 292.25358 214.666757 
L 293.014489 214.666757 
L 293.014489 214.427043 
L 293.775398 214.427043 
L 293.775398 214.816579 
L 294.536307 214.816579 
L 294.536307 215.565687 
L 295.297216 215.565687 
L 295.297216 216.135009 
L 296.058125 216.135009 
L 296.058125 216.584474 
L 296.819034 216.584474 
L 296.819034 216.135009 
L 298.340852 216.164974 
L 298.340852 217.123832 
L 299.101761 217.123832 
L 299.101761 217.003975 
L 299.86267 217.003975 
L 299.86267 217.423476 
L 300.62358 217.423476 
L 300.62358 217.872941 
L 302.145398 217.962833 
L 302.145398 218.322405 
L 303.667216 218.382334 
L 303.667216 218.891728 
L 304.428125 218.891728 
L 304.428125 219.071514 
L 305.189034 219.071514 
L 305.189034 219.281264 
L 305.949943 219.281264 
L 305.949943 219.6708 
L 308.23267 219.730729 
L 308.23267 220.030372 
L 308.99358 220.030372 
L 308.99358 220.210158 
L 309.754489 220.210158 
L 309.754489 220.090301 
L 310.515398 220.090301 
L 310.515398 220.449873 
L 312.037216 220.479837 
L 312.037216 220.749516 
L 372.909943 220.749516 
L 372.909943 220.749516 
" clip-path="url(#pdd01d2a97c)" style="fill: none; stroke: #ff7f0e; stroke-width: 1.5; stroke-linecap: square"/>
   </g>
   <g id="line2d_22">
    <path d="M 68.546307 220.719552 
L 76.155398 220.689587 
L 76.155398 220.599694 
L 80.720852 220.56973 
L 80.720852 220.300051 
L 82.24267 220.270087 
L 82.24267 220.449873 
L 83.00358 220.449873 
L 83.00358 220.270087 
L 84.525398 220.240122 
L 84.525398 220.030372 
L 85.286307 220.030372 
L 85.286307 220.479837 
L 86.047216 220.479837 
L 86.047216 220.150229 
L 87.569034 220.240122 
L 87.569034 219.970443 
L 89.090852 220.030372 
L 89.090852 219.790658 
L 89.851761 219.790658 
L 89.851761 219.940479 
L 92.134489 219.940479 
L 92.134489 219.131442 
L 92.895398 219.131442 
L 92.895398 219.550943 
L 93.656307 219.550943 
L 93.656307 219.281264 
L 94.417216 219.281264 
L 94.417216 218.801835 
L 95.178125 218.801835 
L 95.178125 218.951656 
L 95.939034 218.951656 
L 95.939034 218.56212 
L 96.699943 218.56212 
L 96.699943 218.292441 
L 97.460852 218.292441 
L 97.460852 217.932869 
L 98.221761 217.932869 
L 98.221761 217.45344 
L 98.98267 217.45344 
L 98.98267 217.962833 
L 99.74358 217.962833 
L 99.74358 217.273654 
L 100.504489 217.273654 
L 100.504489 216.314795 
L 101.265398 216.314795 
L 101.265398 215.955224 
L 102.026307 215.955224 
L 102.026307 215.355937 
L 102.787216 215.355937 
L 102.787216 214.846543 
L 103.548125 214.846543 
L 103.548125 214.247257 
L 104.309034 214.247257 
L 104.309034 213.498149 
L 105.069943 213.498149 
L 105.069943 213.048684 
L 105.830852 213.048684 
L 105.830852 211.670325 
L 106.591761 211.670325 
L 106.591761 210.11218 
L 107.35267 210.11218 
L 107.35267 209.482929 
L 108.11358 209.482929 
L 108.11358 208.10457 
L 108.874489 208.10457 
L 108.874489 207.355461 
L 109.635398 207.355461 
L 109.635398 204.478886 
L 110.396307 204.478886 
L 110.396307 203.340241 
L 111.157216 203.340241 
L 111.157216 201.092917 
L 111.918125 201.092917 
L 111.918125 198.006591 
L 112.679034 198.006591 
L 112.679034 193.811585 
L 113.439943 193.811585 
L 113.439943 192.523119 
L 114.200852 192.523119 
L 114.200852 188.627756 
L 114.961761 188.627756 
L 114.961761 185.451537 
L 115.72267 185.451537 
L 115.72267 181.466282 
L 116.48358 181.466282 
L 116.48358 179.818244 
L 117.244489 179.818244 
L 117.244489 176.671989 
L 118.005398 176.671989 
L 118.005398 171.877697 
L 118.766307 171.877697 
L 118.766307 168.731442 
L 119.527216 168.731442 
L 119.527216 164.596365 
L 120.288125 164.596365 
L 120.288125 162.13929 
L 121.049034 162.13929 
L 121.049034 159.562358 
L 121.809943 159.562358 
L 121.809943 154.468422 
L 122.570852 154.468422 
L 122.570852 148.7752 
L 123.331761 148.7752 
L 123.331761 144.730015 
L 124.09267 144.730015 
L 124.09267 141.85344 
L 124.85358 141.85344 
L 124.85358 135.321216 
L 125.614489 135.321216 
L 125.614489 128.519314 
L 126.375398 128.519314 
L 126.375398 127.530491 
L 127.136307 127.530491 
L 127.136307 122.166876 
L 127.897216 122.166876 
L 127.897216 114.376151 
L 128.658125 114.376151 
L 128.658125 109.701716 
L 129.419034 109.701716 
L 129.419034 104.487923 
L 130.179943 104.487923 
L 130.179943 101.881026 
L 130.940852 101.881026 
L 130.940852 96.127875 
L 131.701761 96.127875 
L 131.701761 91.093868 
L 132.46267 91.093868 
L 132.46267 87.078648 
L 133.22358 87.078648 
L 133.22358 80.30671 
L 133.984489 80.30671 
L 133.984489 73.504807 
L 134.745398 73.504807 
L 134.745398 67.601835 
L 135.506307 67.601835 
L 135.506307 65.264617 
L 136.267216 65.264617 
L 136.267216 60.410396 
L 137.028125 60.410396 
L 137.028125 59.781145 
L 137.789034 59.781145 
L 137.789034 53.99803 
L 138.549943 53.99803 
L 138.549943 50.372346 
L 139.310852 50.372346 
L 139.310852 47.675556 
L 140.071761 47.675556 
L 140.071761 48.364736 
L 140.83267 48.364736 
L 140.83267 44.199694 
L 141.59358 44.199694 
L 141.59358 42.192084 
L 142.354489 42.192084 
L 142.354489 44.679124 
L 143.115398 44.679124 
L 143.115398 42.971157 
L 143.876307 42.971157 
L 143.876307 39.525259 
L 144.637216 39.525259 
L 144.637216 40.903618 
L 145.398125 40.903618 
L 145.398125 37.397792 
L 146.159034 37.397792 
L 146.159034 34.940717 
L 146.919943 34.940717 
L 146.919943 31.644641 
L 147.680852 31.644641 
L 147.680852 37.517649 
L 148.441761 37.517649 
L 148.441761 33.292679 
L 149.20267 33.292679 
L 149.20267 37.577578 
L 149.96358 37.577578 
L 149.96358 34.041787 
L 150.724489 34.041787 
L 150.724489 32.423713 
L 151.485398 32.423713 
L 151.485398 30.236317 
L 152.246307 30.236317 
L 152.246307 31.195176 
L 153.007216 31.195176 
L 153.007216 35.390182 
L 153.768125 35.390182 
L 153.768125 33.023 
L 154.529034 33.023 
L 154.529034 37.188042 
L 155.289943 37.188042 
L 155.289943 39.705045 
L 156.050852 39.705045 
L 156.050852 31.674605 
L 156.811761 31.674605 
L 156.811761 34.34143 
L 157.57267 34.34143 
L 157.57267 34.13168 
L 158.33358 34.13168 
L 158.33358 33.802072 
L 159.094489 33.802072 
L 159.094489 35.629897 
L 159.855398 35.629897 
L 159.855398 31.075319 
L 160.616307 31.075319 
L 160.616307 37.307899 
L 161.377216 37.307899 
L 161.377216 33.412536 
L 162.138125 33.412536 
L 162.138125 33.23275 
L 162.899034 33.23275 
L 162.899034 34.191609 
L 163.659943 34.191609 
L 163.659943 35.180432 
L 164.420852 35.180432 
L 164.420852 37.817292 
L 165.181761 37.817292 
L 165.181761 31.285069 
L 165.94267 31.285069 
L 165.94267 35.989468 
L 166.70358 35.989468 
L 166.70358 36.319076 
L 167.464489 36.319076 
L 167.464489 39.94476 
L 168.225398 39.94476 
L 168.225398 38.596365 
L 168.986307 38.596365 
L 168.986307 43.091014 
L 169.747216 43.091014 
L 169.747216 42.671514 
L 170.508125 42.671514 
L 170.508125 48.304807 
L 171.269034 48.304807 
L 171.269034 42.701478 
L 172.029943 42.701478 
L 172.029943 50.88174 
L 172.790852 50.88174 
L 172.790852 49.443452 
L 173.551761 49.443452 
L 173.551761 55.676032 
L 174.31267 55.676032 
L 174.31267 54.117887 
L 175.07358 54.117887 
L 175.07358 55.226567 
L 175.834489 55.226567 
L 175.834489 62.687685 
L 176.595398 62.687685 
L 176.595398 62.507899 
L 177.356307 62.507899 
L 177.356307 64.935009 
L 178.117216 64.935009 
L 178.117216 62.867471 
L 178.878125 62.867471 
L 178.878125 65.474367 
L 179.639034 65.474367 
L 179.639034 64.215866 
L 180.399943 64.215866 
L 180.399943 75.092917 
L 181.160852 75.092917 
L 181.160852 68.950229 
L 181.921761 68.950229 
L 181.921761 76.800883 
L 182.68267 76.800883 
L 182.68267 78.808493 
L 183.44358 78.808493 
L 183.44358 79.737388 
L 184.204489 79.737388 
L 184.204489 79.227994 
L 184.965398 79.227994 
L 184.965398 87.498149 
L 185.726307 87.498149 
L 185.726307 84.861288 
L 186.487216 84.861288 
L 186.487216 90.164974 
L 187.248125 90.164974 
L 187.248125 87.887685 
L 188.009034 87.887685 
L 188.009034 90.644403 
L 188.769943 90.644403 
L 188.769943 93.371157 
L 189.530852 93.371157 
L 189.530852 93.071514 
L 190.291761 93.071514 
L 190.291761 95.88816 
L 191.05267 95.88816 
L 191.05267 99.423951 
L 191.81358 99.423951 
L 191.81358 100.532631 
L 192.574489 100.532631 
L 192.574489 101.341668 
L 193.335398 101.341668 
L 193.335398 102.540241 
L 194.096307 102.540241 
L 194.096307 104.487923 
L 194.857216 104.487923 
L 194.857216 109.73168 
L 195.618125 109.73168 
L 195.618125 105.476746 
L 196.379034 105.476746 
L 196.379034 106.61539 
L 197.139943 106.61539 
L 197.139943 111.439647 
L 197.900852 111.439647 
L 197.900852 112.188755 
L 198.661761 112.188755 
L 198.661761 114.885545 
L 199.42267 114.885545 
L 199.42267 115.095295 
L 200.18358 115.095295 
L 200.18358 117.072941 
L 200.944489 117.072941 
L 200.944489 116.833226 
L 201.705398 116.833226 
L 201.705398 119.440122 
L 202.466307 119.440122 
L 202.466307 117.672227 
L 203.227216 117.672227 
L 203.227216 123.425378 
L 203.988125 123.425378 
L 203.988125 121.627518 
L 204.749034 121.627518 
L 204.749034 125.043452 
L 205.509943 125.043452 
L 205.509943 122.945949 
L 206.270852 122.945949 
L 206.270852 124.174486 
L 207.031761 124.174486 
L 207.031761 127.920027 
L 207.79267 127.920027 
L 207.79267 126.871276 
L 208.55358 126.871276 
L 208.55358 128.279599 
L 209.314489 128.279599 
L 209.314489 131.545711 
L 210.075398 131.545711 
L 210.075398 132.564498 
L 210.836307 132.564498 
L 210.836307 130.526924 
L 211.597216 130.526924 
L 211.597216 132.264855 
L 212.358125 132.264855 
L 212.358125 135.201359 
L 213.119034 135.201359 
L 213.119034 134.602072 
L 213.879943 134.602072 
L 213.879943 139.006829 
L 214.640852 139.006829 
L 214.640852 136.399932 
L 215.401761 136.399932 
L 215.401761 138.827043 
L 216.16267 138.827043 
L 216.16267 140.05558 
L 216.92358 140.05558 
L 216.92358 138.767114 
L 217.684489 138.767114 
L 217.684489 140.295295 
L 218.445398 140.295295 
L 218.445398 141.014439 
L 219.206307 141.014439 
L 219.206307 144.430372 
L 219.967216 144.430372 
L 219.967216 144.610158 
L 220.728125 144.610158 
L 220.728125 148.205877 
L 221.489034 148.205877 
L 221.489034 147.486734 
L 222.249943 147.486734 
L 222.249943 148.056056 
L 223.010852 148.056056 
L 223.010852 148.205877 
L 223.771761 148.205877 
L 223.771761 151.561882 
L 224.53267 151.561882 
L 224.53267 150.033702 
L 225.29358 150.033702 
L 225.29358 151.20231 
L 226.054489 151.20231 
L 226.054489 152.910277 
L 226.815398 152.910277 
L 226.815398 151.621811 
L 227.576307 151.621811 
L 227.576307 154.258672 
L 228.337216 154.258672 
L 228.337216 152.131204 
L 229.098125 152.131204 
L 229.098125 155.90671 
L 229.859034 155.90671 
L 229.859034 154.678172 
L 230.619943 154.678172 
L 230.619943 154.228707 
L 231.380852 154.228707 
L 231.380852 156.056531 
L 232.141761 156.056531 
L 232.141761 158.393749 
L 232.90267 158.393749 
L 232.90267 159.172822 
L 233.66358 159.172822 
L 233.66358 159.532394 
L 234.424489 159.532394 
L 234.424489 158.783285 
L 235.185398 158.783285 
L 235.185398 159.71218 
L 235.946307 159.71218 
L 235.946307 162.13929 
L 236.707216 162.13929 
L 236.707216 163.277935 
L 237.468125 163.277935 
L 237.468125 164.506472 
L 238.229034 164.506472 
L 238.229034 165.25558 
L 238.989943 165.25558 
L 238.989943 162.82847 
L 239.750852 162.82847 
L 239.750852 166.004688 
L 240.511761 166.004688 
L 240.511761 167.353083 
L 241.27267 167.353083 
L 241.27267 166.993511 
L 242.03358 166.993511 
L 242.03358 168.641549 
L 242.794489 168.641549 
L 242.794489 169.720265 
L 243.555398 169.720265 
L 243.555398 169.300765 
L 244.316307 169.300765 
L 244.316307 173.256056 
L 245.077216 173.256056 
L 245.077216 172.237269 
L 245.838125 172.237269 
L 245.838125 172.027518 
L 247.359943 171.96759 
L 247.359943 172.327162 
L 248.120852 172.327162 
L 248.120852 174.304807 
L 248.881761 174.304807 
L 248.881761 175.653202 
L 249.64267 175.653202 
L 249.64267 176.252489 
L 250.40358 176.252489 
L 250.40358 177.660812 
L 251.925398 177.600883 
L 251.925398 177.30124 
L 252.686307 177.30124 
L 252.686307 180.177816 
L 253.447216 180.177816 
L 253.447216 182.664855 
L 254.208125 182.664855 
L 254.208125 182.844641 
L 254.969034 182.844641 
L 254.969034 184.612536 
L 255.729943 184.612536 
L 255.729943 184.073178 
L 256.490852 184.073178 
L 256.490852 186.02086 
L 257.251761 186.02086 
L 257.251761 186.290539 
L 258.01267 186.290539 
L 258.01267 186.170681 
L 258.77358 186.170681 
L 258.77358 185.721216 
L 259.534489 185.721216 
L 259.534489 188.867471 
L 260.295398 188.867471 
L 260.295398 189.676508 
L 261.056307 189.676508 
L 261.056307 190.635366 
L 261.817216 190.635366 
L 261.817216 190.994938 
L 262.578125 190.994938 
L 262.578125 192.103618 
L 263.339034 192.103618 
L 263.339034 191.474367 
L 264.099943 191.474367 
L 264.099943 192.103618 
L 264.860852 192.103618 
L 264.860852 192.283404 
L 265.621761 192.283404 
L 265.621761 194.26105 
L 266.38267 194.26105 
L 266.38267 196.927875 
L 267.14358 196.927875 
L 267.14358 196.538339 
L 267.904489 196.538339 
L 267.904489 196.208731 
L 268.665398 196.208731 
L 268.665398 198.426092 
L 269.426307 198.426092 
L 269.426307 199.894344 
L 270.187216 199.894344 
L 270.187216 197.916698 
L 270.948125 197.916698 
L 270.948125 199.864379 
L 271.709034 199.864379 
L 271.709034 200.883166 
L 272.469943 200.883166 
L 272.469943 201.032988 
L 273.230852 201.032988 
L 273.230852 201.362596 
L 273.991761 201.362596 
L 273.991761 202.681026 
L 274.75267 202.681026 
L 274.75267 203.879599 
L 275.51358 203.879599 
L 275.51358 203.19042 
L 276.274489 203.19042 
L 276.274489 204.418957 
L 277.035398 204.418957 
L 277.035398 203.909564 
L 277.796307 203.909564 
L 277.796307 206.066995 
L 278.557216 206.066995 
L 278.557216 205.587566 
L 279.318125 205.587566 
L 279.318125 206.51646 
L 280.079034 206.51646 
L 280.079034 207.475319 
L 280.839943 207.475319 
L 280.839943 208.044641 
L 281.600852 208.044641 
L 281.600852 207.804926 
L 282.361761 207.804926 
L 282.361761 209.183285 
L 283.12267 209.183285 
L 283.12267 209.452964 
L 283.88358 209.452964 
L 283.88358 210.082215 
L 284.644489 210.082215 
L 284.644489 209.423 
L 285.405398 209.423 
L 285.405398 210.082215 
L 286.166307 210.082215 
L 286.166307 210.591609 
L 287.688125 210.501716 
L 287.688125 212.599219 
L 288.449034 212.599219 
L 288.449034 212.808969 
L 289.209943 212.808969 
L 289.209943 213.348327 
L 290.731761 213.408256 
L 290.731761 213.168541 
L 291.49267 213.168541 
L 291.49267 213.408256 
L 292.25358 213.408256 
L 292.25358 213.917649 
L 293.014489 213.917649 
L 293.014489 214.606829 
L 293.775398 214.606829 
L 293.775398 215.475794 
L 294.536307 215.475794 
L 294.536307 215.985188 
L 295.297216 215.985188 
L 295.297216 215.865331 
L 296.058125 215.865331 
L 296.058125 216.584474 
L 296.819034 216.584474 
L 296.819034 216.105045 
L 297.579943 216.105045 
L 297.579943 216.614439 
L 298.340852 216.614439 
L 298.340852 216.224902 
L 299.101761 216.224902 
L 299.101761 217.543333 
L 301.384489 217.543333 
L 301.384489 218.412298 
L 302.145398 218.412298 
L 302.145398 218.172584 
L 303.667216 218.232512 
L 303.667216 218.77187 
L 304.428125 218.77187 
L 304.428125 219.221335 
L 305.949943 219.161407 
L 305.949943 219.850586 
L 306.710852 219.850586 
L 306.710852 219.640836 
L 307.471761 219.640836 
L 307.471761 219.850586 
L 308.23267 219.850586 
L 308.23267 219.970443 
L 308.99358 219.970443 
L 308.99358 220.210158 
L 310.515398 220.210158 
L 310.515398 220.330015 
L 311.276307 220.330015 
L 311.276307 220.449873 
L 312.037216 220.449873 
L 312.037216 220.629659 
L 314.319943 220.719552 
L 314.319943 220.749516 
L 372.909943 220.749516 
L 372.909943 220.749516 
" clip-path="url(#pdd01d2a97c)" style="fill: none; stroke: #2ca02c; stroke-width: 1.5; stroke-linecap: square"/>
   </g>
  </g>
 </g>
 <defs>
  <clipPath id="pdd01d2a97c">
   <rect x="53.328125" y="9.069516" width="334.8" height="221.76"/>
  </clipPath>
 </defs>
</svg>
