<?xml version="1.0" encoding="utf-8" standalone="no"?>
<!DOCTYPE svg PUBLIC "-//W3C//DTD SVG 1.1//EN"
  "http://www.w3.org/Graphics/SVG/1.1/DTD/svg11.dtd">
<svg xmlns:xlink="http://www.w3.org/1999/xlink" width="399.080352pt" height="266.51625pt" viewBox="0 0 399.080352 266.51625" xmlns="http://www.w3.org/2000/svg" version="1.1">
 <metadata>
  <rdf:RDF xmlns:dc="http://purl.org/dc/elements/1.1/" xmlns:cc="http://creativecommons.org/ns#" xmlns:rdf="http://www.w3.org/1999/02/22-rdf-syntax-ns#">
   <cc:Work>
    <dc:type rdf:resource="http://purl.org/dc/dcmitype/StillImage"/>
    <dc:date>2025-02-17T17:52:57.104131</dc:date>
    <dc:format>image/svg+xml</dc:format>
    <dc:creator>
     <cc:Agent>
      <dc:title>Matplotlib v3.10.0, https://matplotlib.org/</dc:title>
     </cc:Agent>
    </dc:creator>
   </cc:Work>
  </rdf:RDF>
 </metadata>
 <defs>
  <style type="text/css">*{stroke-linejoin: round; stroke-linecap: butt}</style>
 </defs>
 <g id="figure_1">
  <g id="patch_1">
   <path d="M 0 266.51625 
L 399.080352 266.51625 
L 399.080352 0 
L 0 0 
z
" style="fill: #ffffff"/>
  </g>
  <g id="axes_1">
   <g id="patch_2">
    <path d="M 46.965625 228.96 
L 381.765625 228.96 
L 381.765625 7.2 
L 46.965625 7.2 
z
" style="fill: #ffffff"/>
   </g>
   <g id="matplotlib.axis_1">
    <g id="xtick_1">
     <g id="line2d_1">
      <defs>
       <path id="m9015b976b9" d="M 0 0 
L 0 3.5 
" style="stroke: #000000; stroke-width: 0.8"/>
      </defs>
      <g>
       <use xlink:href="#m9015b976b9" x="71.765997" y="228.96" style="stroke: #000000; stroke-width: 0.8"/>
      </g>
     </g>
     <g id="text_1">
      <!-- 20000 -->
      <g transform="translate(55.859747 243.558437) scale(0.1 -0.1)">
       <defs>
        <path id="DejaVuSans-32" d="M 1228 531 
L 3431 531 
L 3431 0 
L 469 0 
L 469 531 
Q 828 903 1448 1529 
Q 2069 2156 2228 2338 
Q 2531 2678 2651 2914 
Q 2772 3150 2772 3378 
Q 2772 3750 2511 3984 
Q 2250 4219 1831 4219 
Q 1534 4219 1204 4116 
Q 875 4013 500 3803 
L 500 4441 
Q 881 4594 1212 4672 
Q 1544 4750 1819 4750 
Q 2544 4750 2975 4387 
Q 3406 4025 3406 3419 
Q 3406 3131 3298 2873 
Q 3191 2616 2906 2266 
Q 2828 2175 2409 1742 
Q 1991 1309 1228 531 
z
" transform="scale(0.015625)"/>
        <path id="DejaVuSans-30" d="M 2034 4250 
Q 1547 4250 1301 3770 
Q 1056 3291 1056 2328 
Q 1056 1369 1301 889 
Q 1547 409 2034 409 
Q 2525 409 2770 889 
Q 3016 1369 3016 2328 
Q 3016 3291 2770 3770 
Q 2525 4250 2034 4250 
z
M 2034 4750 
Q 2819 4750 3233 4129 
Q 3647 3509 3647 2328 
Q 3647 1150 3233 529 
Q 2819 -91 2034 -91 
Q 1250 -91 836 529 
Q 422 1150 422 2328 
Q 422 3509 836 4129 
Q 1250 4750 2034 4750 
z
" transform="scale(0.015625)"/>
       </defs>
       <use xlink:href="#DejaVuSans-32"/>
       <use xlink:href="#DejaVuSans-30" transform="translate(63.623047 0)"/>
       <use xlink:href="#DejaVuSans-30" transform="translate(127.246094 0)"/>
       <use xlink:href="#DejaVuSans-30" transform="translate(190.869141 0)"/>
       <use xlink:href="#DejaVuSans-30" transform="translate(254.492188 0)"/>
      </g>
     </g>
    </g>
    <g id="xtick_2">
     <g id="line2d_2">
      <g>
       <use xlink:href="#m9015b976b9" x="115.224298" y="228.96" style="stroke: #000000; stroke-width: 0.8"/>
      </g>
     </g>
     <g id="text_2">
      <!-- 30000 -->
      <g transform="translate(99.318048 243.558437) scale(0.1 -0.1)">
       <defs>
        <path id="DejaVuSans-33" d="M 2597 2516 
Q 3050 2419 3304 2112 
Q 3559 1806 3559 1356 
Q 3559 666 3084 287 
Q 2609 -91 1734 -91 
Q 1441 -91 1130 -33 
Q 819 25 488 141 
L 488 750 
Q 750 597 1062 519 
Q 1375 441 1716 441 
Q 2309 441 2620 675 
Q 2931 909 2931 1356 
Q 2931 1769 2642 2001 
Q 2353 2234 1838 2234 
L 1294 2234 
L 1294 2753 
L 1863 2753 
Q 2328 2753 2575 2939 
Q 2822 3125 2822 3475 
Q 2822 3834 2567 4026 
Q 2313 4219 1838 4219 
Q 1578 4219 1281 4162 
Q 984 4106 628 3988 
L 628 4550 
Q 988 4650 1302 4700 
Q 1616 4750 1894 4750 
Q 2613 4750 3031 4423 
Q 3450 4097 3450 3541 
Q 3450 3153 3228 2886 
Q 3006 2619 2597 2516 
z
" transform="scale(0.015625)"/>
       </defs>
       <use xlink:href="#DejaVuSans-33"/>
       <use xlink:href="#DejaVuSans-30" transform="translate(63.623047 0)"/>
       <use xlink:href="#DejaVuSans-30" transform="translate(127.246094 0)"/>
       <use xlink:href="#DejaVuSans-30" transform="translate(190.869141 0)"/>
       <use xlink:href="#DejaVuSans-30" transform="translate(254.492188 0)"/>
      </g>
     </g>
    </g>
    <g id="xtick_3">
     <g id="line2d_3">
      <g>
       <use xlink:href="#m9015b976b9" x="158.682598" y="228.96" style="stroke: #000000; stroke-width: 0.8"/>
      </g>
     </g>
     <g id="text_3">
      <!-- 40000 -->
      <g transform="translate(142.776348 243.558437) scale(0.1 -0.1)">
       <defs>
        <path id="DejaVuSans-34" d="M 2419 4116 
L 825 1625 
L 2419 1625 
L 2419 4116 
z
M 2253 4666 
L 3047 4666 
L 3047 1625 
L 3713 1625 
L 3713 1100 
L 3047 1100 
L 3047 0 
L 2419 0 
L 2419 1100 
L 313 1100 
L 313 1709 
L 2253 4666 
z
" transform="scale(0.015625)"/>
       </defs>
       <use xlink:href="#DejaVuSans-34"/>
       <use xlink:href="#DejaVuSans-30" transform="translate(63.623047 0)"/>
       <use xlink:href="#DejaVuSans-30" transform="translate(127.246094 0)"/>
       <use xlink:href="#DejaVuSans-30" transform="translate(190.869141 0)"/>
       <use xlink:href="#DejaVuSans-30" transform="translate(254.492188 0)"/>
      </g>
     </g>
    </g>
    <g id="xtick_4">
     <g id="line2d_4">
      <g>
       <use xlink:href="#m9015b976b9" x="202.140899" y="228.96" style="stroke: #000000; stroke-width: 0.8"/>
      </g>
     </g>
     <g id="text_4">
      <!-- 50000 -->
      <g transform="translate(186.234649 243.558437) scale(0.1 -0.1)">
       <defs>
        <path id="DejaVuSans-35" d="M 691 4666 
L 3169 4666 
L 3169 4134 
L 1269 4134 
L 1269 2991 
Q 1406 3038 1543 3061 
Q 1681 3084 1819 3084 
Q 2600 3084 3056 2656 
Q 3513 2228 3513 1497 
Q 3513 744 3044 326 
Q 2575 -91 1722 -91 
Q 1428 -91 1123 -41 
Q 819 9 494 109 
L 494 744 
Q 775 591 1075 516 
Q 1375 441 1709 441 
Q 2250 441 2565 725 
Q 2881 1009 2881 1497 
Q 2881 1984 2565 2268 
Q 2250 2553 1709 2553 
Q 1456 2553 1204 2497 
Q 953 2441 691 2322 
L 691 4666 
z
" transform="scale(0.015625)"/>
       </defs>
       <use xlink:href="#DejaVuSans-35"/>
       <use xlink:href="#DejaVuSans-30" transform="translate(63.623047 0)"/>
       <use xlink:href="#DejaVuSans-30" transform="translate(127.246094 0)"/>
       <use xlink:href="#DejaVuSans-30" transform="translate(190.869141 0)"/>
       <use xlink:href="#DejaVuSans-30" transform="translate(254.492188 0)"/>
      </g>
     </g>
    </g>
    <g id="xtick_5">
     <g id="line2d_5">
      <g>
       <use xlink:href="#m9015b976b9" x="245.5992" y="228.96" style="stroke: #000000; stroke-width: 0.8"/>
      </g>
     </g>
     <g id="text_5">
      <!-- 60000 -->
      <g transform="translate(229.69295 243.558437) scale(0.1 -0.1)">
       <defs>
        <path id="DejaVuSans-36" d="M 2113 2584 
Q 1688 2584 1439 2293 
Q 1191 2003 1191 1497 
Q 1191 994 1439 701 
Q 1688 409 2113 409 
Q 2538 409 2786 701 
Q 3034 994 3034 1497 
Q 3034 2003 2786 2293 
Q 2538 2584 2113 2584 
z
M 3366 4563 
L 3366 3988 
Q 3128 4100 2886 4159 
Q 2644 4219 2406 4219 
Q 1781 4219 1451 3797 
Q 1122 3375 1075 2522 
Q 1259 2794 1537 2939 
Q 1816 3084 2150 3084 
Q 2853 3084 3261 2657 
Q 3669 2231 3669 1497 
Q 3669 778 3244 343 
Q 2819 -91 2113 -91 
Q 1303 -91 875 529 
Q 447 1150 447 2328 
Q 447 3434 972 4092 
Q 1497 4750 2381 4750 
Q 2619 4750 2861 4703 
Q 3103 4656 3366 4563 
z
" transform="scale(0.015625)"/>
       </defs>
       <use xlink:href="#DejaVuSans-36"/>
       <use xlink:href="#DejaVuSans-30" transform="translate(63.623047 0)"/>
       <use xlink:href="#DejaVuSans-30" transform="translate(127.246094 0)"/>
       <use xlink:href="#DejaVuSans-30" transform="translate(190.869141 0)"/>
       <use xlink:href="#DejaVuSans-30" transform="translate(254.492188 0)"/>
      </g>
     </g>
    </g>
    <g id="xtick_6">
     <g id="line2d_6">
      <g>
       <use xlink:href="#m9015b976b9" x="289.057501" y="228.96" style="stroke: #000000; stroke-width: 0.8"/>
      </g>
     </g>
     <g id="text_6">
      <!-- 70000 -->
      <g transform="translate(273.151251 243.558437) scale(0.1 -0.1)">
       <defs>
        <path id="DejaVuSans-37" d="M 525 4666 
L 3525 4666 
L 3525 4397 
L 1831 0 
L 1172 0 
L 2766 4134 
L 525 4134 
L 525 4666 
z
" transform="scale(0.015625)"/>
       </defs>
       <use xlink:href="#DejaVuSans-37"/>
       <use xlink:href="#DejaVuSans-30" transform="translate(63.623047 0)"/>
       <use xlink:href="#DejaVuSans-30" transform="translate(127.246094 0)"/>
       <use xlink:href="#DejaVuSans-30" transform="translate(190.869141 0)"/>
       <use xlink:href="#DejaVuSans-30" transform="translate(254.492188 0)"/>
      </g>
     </g>
    </g>
    <g id="xtick_7">
     <g id="line2d_7">
      <g>
       <use xlink:href="#m9015b976b9" x="332.515801" y="228.96" style="stroke: #000000; stroke-width: 0.8"/>
      </g>
     </g>
     <g id="text_7">
      <!-- 80000 -->
      <g transform="translate(316.609551 243.558437) scale(0.1 -0.1)">
       <defs>
        <path id="DejaVuSans-38" d="M 2034 2216 
Q 1584 2216 1326 1975 
Q 1069 1734 1069 1313 
Q 1069 891 1326 650 
Q 1584 409 2034 409 
Q 2484 409 2743 651 
Q 3003 894 3003 1313 
Q 3003 1734 2745 1975 
Q 2488 2216 2034 2216 
z
M 1403 2484 
Q 997 2584 770 2862 
Q 544 3141 544 3541 
Q 544 4100 942 4425 
Q 1341 4750 2034 4750 
Q 2731 4750 3128 4425 
Q 3525 4100 3525 3541 
Q 3525 3141 3298 2862 
Q 3072 2584 2669 2484 
Q 3125 2378 3379 2068 
Q 3634 1759 3634 1313 
Q 3634 634 3220 271 
Q 2806 -91 2034 -91 
Q 1263 -91 848 271 
Q 434 634 434 1313 
Q 434 1759 690 2068 
Q 947 2378 1403 2484 
z
M 1172 3481 
Q 1172 3119 1398 2916 
Q 1625 2713 2034 2713 
Q 2441 2713 2670 2916 
Q 2900 3119 2900 3481 
Q 2900 3844 2670 4047 
Q 2441 4250 2034 4250 
Q 1625 4250 1398 4047 
Q 1172 3844 1172 3481 
z
" transform="scale(0.015625)"/>
       </defs>
       <use xlink:href="#DejaVuSans-38"/>
       <use xlink:href="#DejaVuSans-30" transform="translate(63.623047 0)"/>
       <use xlink:href="#DejaVuSans-30" transform="translate(127.246094 0)"/>
       <use xlink:href="#DejaVuSans-30" transform="translate(190.869141 0)"/>
       <use xlink:href="#DejaVuSans-30" transform="translate(254.492188 0)"/>
      </g>
     </g>
    </g>
    <g id="xtick_8">
     <g id="line2d_8">
      <g>
       <use xlink:href="#m9015b976b9" x="375.974102" y="228.96" style="stroke: #000000; stroke-width: 0.8"/>
      </g>
     </g>
     <g id="text_8">
      <!-- 90000 -->
      <g transform="translate(360.067852 243.558437) scale(0.1 -0.1)">
       <defs>
        <path id="DejaVuSans-39" d="M 703 97 
L 703 672 
Q 941 559 1184 500 
Q 1428 441 1663 441 
Q 2288 441 2617 861 
Q 2947 1281 2994 2138 
Q 2813 1869 2534 1725 
Q 2256 1581 1919 1581 
Q 1219 1581 811 2004 
Q 403 2428 403 3163 
Q 403 3881 828 4315 
Q 1253 4750 1959 4750 
Q 2769 4750 3195 4129 
Q 3622 3509 3622 2328 
Q 3622 1225 3098 567 
Q 2575 -91 1691 -91 
Q 1453 -91 1209 -44 
Q 966 3 703 97 
z
M 1959 2075 
Q 2384 2075 2632 2365 
Q 2881 2656 2881 3163 
Q 2881 3666 2632 3958 
Q 2384 4250 1959 4250 
Q 1534 4250 1286 3958 
Q 1038 3666 1038 3163 
Q 1038 2656 1286 2365 
Q 1534 2075 1959 2075 
z
" transform="scale(0.015625)"/>
       </defs>
       <use xlink:href="#DejaVuSans-39"/>
       <use xlink:href="#DejaVuSans-30" transform="translate(63.623047 0)"/>
       <use xlink:href="#DejaVuSans-30" transform="translate(127.246094 0)"/>
       <use xlink:href="#DejaVuSans-30" transform="translate(190.869141 0)"/>
       <use xlink:href="#DejaVuSans-30" transform="translate(254.492188 0)"/>
      </g>
     </g>
    </g>
    <g id="text_9">
     <!-- tof [µs] -->
     <g transform="translate(196.309375 257.236562) scale(0.1 -0.1)">
      <defs>
       <path id="DejaVuSans-74" d="M 1172 4494 
L 1172 3500 
L 2356 3500 
L 2356 3053 
L 1172 3053 
L 1172 1153 
Q 1172 725 1289 603 
Q 1406 481 1766 481 
L 2356 481 
L 2356 0 
L 1766 0 
Q 1100 0 847 248 
Q 594 497 594 1153 
L 594 3053 
L 172 3053 
L 172 3500 
L 594 3500 
L 594 4494 
L 1172 4494 
z
" transform="scale(0.015625)"/>
       <path id="DejaVuSans-6f" d="M 1959 3097 
Q 1497 3097 1228 2736 
Q 959 2375 959 1747 
Q 959 1119 1226 758 
Q 1494 397 1959 397 
Q 2419 397 2687 759 
Q 2956 1122 2956 1747 
Q 2956 2369 2687 2733 
Q 2419 3097 1959 3097 
z
M 1959 3584 
Q 2709 3584 3137 3096 
Q 3566 2609 3566 1747 
Q 3566 888 3137 398 
Q 2709 -91 1959 -91 
Q 1206 -91 779 398 
Q 353 888 353 1747 
Q 353 2609 779 3096 
Q 1206 3584 1959 3584 
z
" transform="scale(0.015625)"/>
       <path id="DejaVuSans-66" d="M 2375 4863 
L 2375 4384 
L 1825 4384 
Q 1516 4384 1395 4259 
Q 1275 4134 1275 3809 
L 1275 3500 
L 2222 3500 
L 2222 3053 
L 1275 3053 
L 1275 0 
L 697 0 
L 697 3053 
L 147 3053 
L 147 3500 
L 697 3500 
L 697 3744 
Q 697 4328 969 4595 
Q 1241 4863 1831 4863 
L 2375 4863 
z
" transform="scale(0.015625)"/>
       <path id="DejaVuSans-20" transform="scale(0.015625)"/>
       <path id="DejaVuSans-5b" d="M 550 4863 
L 1875 4863 
L 1875 4416 
L 1125 4416 
L 1125 -397 
L 1875 -397 
L 1875 -844 
L 550 -844 
L 550 4863 
z
" transform="scale(0.015625)"/>
       <path id="DejaVuSans-b5" d="M 544 -1331 
L 544 3500 
L 1119 3500 
L 1119 1325 
Q 1119 872 1334 640 
Q 1550 409 1972 409 
Q 2434 409 2667 671 
Q 2900 934 2900 1459 
L 2900 3500 
L 3475 3500 
L 3475 806 
Q 3475 619 3529 530 
Q 3584 441 3700 441 
Q 3728 441 3778 458 
Q 3828 475 3916 513 
L 3916 50 
Q 3788 -22 3673 -56 
Q 3559 -91 3450 -91 
Q 3234 -91 3106 31 
Q 2978 153 2931 403 
Q 2775 156 2548 32 
Q 2322 -91 2016 -91 
Q 1697 -91 1473 31 
Q 1250 153 1119 397 
L 1119 -1331 
L 544 -1331 
z
" transform="scale(0.015625)"/>
       <path id="DejaVuSans-73" d="M 2834 3397 
L 2834 2853 
Q 2591 2978 2328 3040 
Q 2066 3103 1784 3103 
Q 1356 3103 1142 2972 
Q 928 2841 928 2578 
Q 928 2378 1081 2264 
Q 1234 2150 1697 2047 
L 1894 2003 
Q 2506 1872 2764 1633 
Q 3022 1394 3022 966 
Q 3022 478 2636 193 
Q 2250 -91 1575 -91 
Q 1294 -91 989 -36 
Q 684 19 347 128 
L 347 722 
Q 666 556 975 473 
Q 1284 391 1588 391 
Q 1994 391 2212 530 
Q 2431 669 2431 922 
Q 2431 1156 2273 1281 
Q 2116 1406 1581 1522 
L 1381 1569 
Q 847 1681 609 1914 
Q 372 2147 372 2553 
Q 372 3047 722 3315 
Q 1072 3584 1716 3584 
Q 2034 3584 2315 3537 
Q 2597 3491 2834 3397 
z
" transform="scale(0.015625)"/>
       <path id="DejaVuSans-5d" d="M 1947 4863 
L 1947 -844 
L 622 -844 
L 622 -397 
L 1369 -397 
L 1369 4416 
L 622 4416 
L 622 4863 
L 1947 4863 
z
" transform="scale(0.015625)"/>
      </defs>
      <use xlink:href="#DejaVuSans-74"/>
      <use xlink:href="#DejaVuSans-6f" transform="translate(39.208984 0)"/>
      <use xlink:href="#DejaVuSans-66" transform="translate(100.390625 0)"/>
      <use xlink:href="#DejaVuSans-20" transform="translate(135.595703 0)"/>
      <use xlink:href="#DejaVuSans-5b" transform="translate(167.382812 0)"/>
      <use xlink:href="#DejaVuSans-b5" transform="translate(206.396484 0)"/>
      <use xlink:href="#DejaVuSans-73" transform="translate(270.019531 0)"/>
      <use xlink:href="#DejaVuSans-5d" transform="translate(322.119141 0)"/>
     </g>
    </g>
   </g>
   <g id="matplotlib.axis_2">
    <g id="ytick_1">
     <g id="line2d_9">
      <defs>
       <path id="m92d29a773b" d="M 0 0 
L -3.5 0 
" style="stroke: #000000; stroke-width: 0.8"/>
      </defs>
      <g>
       <use xlink:href="#m92d29a773b" x="46.965625" y="220.535852" style="stroke: #000000; stroke-width: 0.8"/>
      </g>
     </g>
     <g id="text_10">
      <!-- 0 -->
      <g transform="translate(33.603125 224.335071) scale(0.1 -0.1)">
       <use xlink:href="#DejaVuSans-30"/>
      </g>
     </g>
    </g>
    <g id="ytick_2">
     <g id="line2d_10">
      <g>
       <use xlink:href="#m92d29a773b" x="46.965625" y="179.139548" style="stroke: #000000; stroke-width: 0.8"/>
      </g>
     </g>
     <g id="text_11">
      <!-- 100 -->
      <g transform="translate(20.878125 182.938767) scale(0.1 -0.1)">
       <defs>
        <path id="DejaVuSans-31" d="M 794 531 
L 1825 531 
L 1825 4091 
L 703 3866 
L 703 4441 
L 1819 4666 
L 2450 4666 
L 2450 531 
L 3481 531 
L 3481 0 
L 794 0 
L 794 531 
z
" transform="scale(0.015625)"/>
       </defs>
       <use xlink:href="#DejaVuSans-31"/>
       <use xlink:href="#DejaVuSans-30" transform="translate(63.623047 0)"/>
       <use xlink:href="#DejaVuSans-30" transform="translate(127.246094 0)"/>
      </g>
     </g>
    </g>
    <g id="ytick_3">
     <g id="line2d_11">
      <g>
       <use xlink:href="#m92d29a773b" x="46.965625" y="137.743244" style="stroke: #000000; stroke-width: 0.8"/>
      </g>
     </g>
     <g id="text_12">
      <!-- 200 -->
      <g transform="translate(20.878125 141.542463) scale(0.1 -0.1)">
       <use xlink:href="#DejaVuSans-32"/>
       <use xlink:href="#DejaVuSans-30" transform="translate(63.623047 0)"/>
       <use xlink:href="#DejaVuSans-30" transform="translate(127.246094 0)"/>
      </g>
     </g>
    </g>
    <g id="ytick_4">
     <g id="line2d_12">
      <g>
       <use xlink:href="#m92d29a773b" x="46.965625" y="96.34694" style="stroke: #000000; stroke-width: 0.8"/>
      </g>
     </g>
     <g id="text_13">
      <!-- 300 -->
      <g transform="translate(20.878125 100.146159) scale(0.1 -0.1)">
       <use xlink:href="#DejaVuSans-33"/>
       <use xlink:href="#DejaVuSans-30" transform="translate(63.623047 0)"/>
       <use xlink:href="#DejaVuSans-30" transform="translate(127.246094 0)"/>
      </g>
     </g>
    </g>
    <g id="ytick_5">
     <g id="line2d_13">
      <g>
       <use xlink:href="#m92d29a773b" x="46.965625" y="54.950637" style="stroke: #000000; stroke-width: 0.8"/>
      </g>
     </g>
     <g id="text_14">
      <!-- 400 -->
      <g transform="translate(20.878125 58.749855) scale(0.1 -0.1)">
       <use xlink:href="#DejaVuSans-34"/>
       <use xlink:href="#DejaVuSans-30" transform="translate(63.623047 0)"/>
       <use xlink:href="#DejaVuSans-30" transform="translate(127.246094 0)"/>
      </g>
     </g>
    </g>
    <g id="ytick_6">
     <g id="line2d_14">
      <g>
       <use xlink:href="#m92d29a773b" x="46.965625" y="13.554333" style="stroke: #000000; stroke-width: 0.8"/>
      </g>
     </g>
     <g id="text_15">
      <!-- 500 -->
      <g transform="translate(20.878125 17.353551) scale(0.1 -0.1)">
       <use xlink:href="#DejaVuSans-35"/>
       <use xlink:href="#DejaVuSans-30" transform="translate(63.623047 0)"/>
       <use xlink:href="#DejaVuSans-30" transform="translate(127.246094 0)"/>
      </g>
     </g>
    </g>
    <g id="text_16">
     <!-- [counts] -->
     <g transform="translate(14.798438 138.6925) rotate(-90) scale(0.1 -0.1)">
      <defs>
       <path id="DejaVuSans-63" d="M 3122 3366 
L 3122 2828 
Q 2878 2963 2633 3030 
Q 2388 3097 2138 3097 
Q 1578 3097 1268 2742 
Q 959 2388 959 1747 
Q 959 1106 1268 751 
Q 1578 397 2138 397 
Q 2388 397 2633 464 
Q 2878 531 3122 666 
L 3122 134 
Q 2881 22 2623 -34 
Q 2366 -91 2075 -91 
Q 1284 -91 818 406 
Q 353 903 353 1747 
Q 353 2603 823 3093 
Q 1294 3584 2113 3584 
Q 2378 3584 2631 3529 
Q 2884 3475 3122 3366 
z
" transform="scale(0.015625)"/>
       <path id="DejaVuSans-75" d="M 544 1381 
L 544 3500 
L 1119 3500 
L 1119 1403 
Q 1119 906 1312 657 
Q 1506 409 1894 409 
Q 2359 409 2629 706 
Q 2900 1003 2900 1516 
L 2900 3500 
L 3475 3500 
L 3475 0 
L 2900 0 
L 2900 538 
Q 2691 219 2414 64 
Q 2138 -91 1772 -91 
Q 1169 -91 856 284 
Q 544 659 544 1381 
z
M 1991 3584 
L 1991 3584 
z
" transform="scale(0.015625)"/>
       <path id="DejaVuSans-6e" d="M 3513 2113 
L 3513 0 
L 2938 0 
L 2938 2094 
Q 2938 2591 2744 2837 
Q 2550 3084 2163 3084 
Q 1697 3084 1428 2787 
Q 1159 2491 1159 1978 
L 1159 0 
L 581 0 
L 581 3500 
L 1159 3500 
L 1159 2956 
Q 1366 3272 1645 3428 
Q 1925 3584 2291 3584 
Q 2894 3584 3203 3211 
Q 3513 2838 3513 2113 
z
" transform="scale(0.015625)"/>
      </defs>
      <use xlink:href="#DejaVuSans-5b"/>
      <use xlink:href="#DejaVuSans-63" transform="translate(39.013672 0)"/>
      <use xlink:href="#DejaVuSans-6f" transform="translate(93.994141 0)"/>
      <use xlink:href="#DejaVuSans-75" transform="translate(155.175781 0)"/>
      <use xlink:href="#DejaVuSans-6e" transform="translate(218.554688 0)"/>
      <use xlink:href="#DejaVuSans-74" transform="translate(281.933594 0)"/>
      <use xlink:href="#DejaVuSans-73" transform="translate(321.142578 0)"/>
      <use xlink:href="#DejaVuSans-5d" transform="translate(373.242188 0)"/>
     </g>
    </g>
   </g>
   <g id="patch_3">
    <path d="M 46.965625 228.96 
L 46.965625 7.2 
" style="fill: none; stroke: #000000; stroke-width: 0.8; stroke-linejoin: miter; stroke-linecap: square"/>
   </g>
   <g id="patch_4">
    <path d="M 381.765625 228.96 
L 381.765625 7.2 
" style="fill: none; stroke: #000000; stroke-width: 0.8; stroke-linejoin: miter; stroke-linecap: square"/>
   </g>
   <g id="patch_5">
    <path d="M 46.965625 228.96 
L 381.765625 228.96 
" style="fill: none; stroke: #000000; stroke-width: 0.8; stroke-linejoin: miter; stroke-linecap: square"/>
   </g>
   <g id="patch_6">
    <path d="M 46.965625 7.2 
L 381.765625 7.2 
" style="fill: none; stroke: #000000; stroke-width: 0.8; stroke-linejoin: miter; stroke-linecap: square"/>
   </g>
   <g id="line2d_15">
    <path d="M 62.183807 215.568296 
L 63.198352 215.568296 
L 63.198352 210.186776 
L 64.212898 210.186776 
L 64.212898 205.21922 
L 65.227443 205.21922 
L 65.227443 202.735441 
L 66.241989 202.735441 
L 66.241989 200.665626 
L 67.256534 200.665626 
L 67.256534 192.800329 
L 68.27108 192.800329 
L 68.27108 186.17692 
L 70.30017 186.17692 
L 70.30017 173.344066 
L 72.329261 173.344066 
L 72.329261 170.446324 
L 73.343807 170.446324 
L 73.343807 150.990062 
L 74.358352 150.990062 
L 74.358352 149.748172 
L 75.372898 149.748172 
L 75.372898 146.850431 
L 76.387443 146.850431 
L 76.387443 146.436468 
L 77.401989 146.436468 
L 77.401989 147.678357 
L 78.416534 147.678357 
L 78.416534 146.436468 
L 79.43108 146.436468 
L 79.43108 131.947762 
L 80.445625 131.947762 
L 80.445625 111.24961 
L 81.46017 111.24961 
L 81.46017 127.808131 
L 82.474716 127.808131 
L 82.474716 119.528871 
L 83.489261 119.528871 
L 83.489261 101.314497 
L 84.503807 101.314497 
L 84.503807 100.072608 
L 85.518352 100.072608 
L 85.518352 99.244682 
L 86.532898 99.244682 
L 86.532898 90.965421 
L 87.547443 90.965421 
L 87.547443 93.449199 
L 88.561989 93.449199 
L 88.561989 100.486571 
L 89.576534 100.486571 
L 89.576534 78.960493 
L 90.59108 78.960493 
L 90.59108 88.481643 
L 91.605625 88.481643 
L 91.605625 72.751047 
L 92.62017 72.751047 
L 92.62017 80.616345 
L 93.634716 80.616345 
L 93.634716 54.536674 
L 94.649261 54.536674 
L 94.649261 71.509158 
L 95.663807 71.509158 
L 95.663807 69.853306 
L 96.678352 69.853306 
L 96.678352 66.127639 
L 97.692898 66.127639 
L 97.692898 48.741191 
L 98.707443 48.741191 
L 98.707443 47.499302 
L 99.721989 47.499302 
L 99.721989 60.332156 
L 100.736534 60.332156 
L 100.736534 51.638932 
L 101.75108 51.638932 
L 101.75108 31.768706 
L 102.765625 31.768706 
L 102.765625 49.569117 
L 103.78017 49.569117 
L 103.78017 29.698891 
L 104.794716 29.698891 
L 104.794716 29.284928 
L 105.809261 29.284928 
L 105.809261 35.494374 
L 106.823807 35.494374 
L 106.823807 35.080411 
L 107.838352 35.080411 
L 107.838352 17.28 
L 108.852898 17.28 
L 108.852898 30.526817 
L 109.867443 30.526817 
L 109.867443 31.768706 
L 110.881989 31.768706 
L 110.881989 41.289856 
L 111.896534 41.289856 
L 111.896534 17.28 
L 112.91108 17.28 
L 112.91108 25.559261 
L 113.925625 25.559261 
L 113.925625 23.489446 
L 114.94017 23.489446 
L 114.94017 24.731335 
L 115.954716 24.731335 
L 115.954716 23.489446 
L 116.969261 23.489446 
L 116.969261 31.768706 
L 117.983807 31.768706 
L 117.983807 33.010595 
L 118.998352 33.010595 
L 118.998352 45.429487 
L 120.012898 45.429487 
L 120.012898 30.526817 
L 121.027443 30.526817 
L 121.027443 28.457002 
L 122.041989 28.457002 
L 122.041989 31.768706 
L 123.056534 31.768706 
L 123.056534 39.634004 
L 124.07108 39.634004 
L 124.07108 34.252485 
L 125.085625 34.252485 
L 125.085625 30.526817 
L 126.10017 30.526817 
L 126.10017 28.457002 
L 127.114716 28.457002 
L 127.114716 34.666448 
L 128.129261 34.666448 
L 128.129261 38.806078 
L 129.143807 38.806078 
L 129.143807 53.708747 
L 130.158352 53.708747 
L 130.158352 42.945708 
L 131.172898 42.945708 
L 131.172898 38.806078 
L 132.187443 38.806078 
L 132.187443 46.257413 
L 133.201989 46.257413 
L 133.201989 49.155154 
L 134.216534 49.155154 
L 134.216534 48.327228 
L 135.23108 48.327228 
L 135.23108 45.84345 
L 136.245625 45.84345 
L 136.245625 52.052895 
L 137.26017 52.052895 
L 137.26017 59.090267 
L 138.274716 59.090267 
L 138.274716 53.708747 
L 139.289261 53.708747 
L 139.289261 55.3646 
L 140.303807 55.3646 
L 140.303807 62.815934 
L 141.318352 62.815934 
L 141.318352 49.98308 
L 142.332898 49.98308 
L 142.332898 40.875893 
L 143.347443 40.875893 
L 143.347443 61.574045 
L 144.361989 61.574045 
L 144.361989 54.12271 
L 145.376534 54.12271 
L 145.376534 51.638932 
L 146.39108 51.638932 
L 146.39108 86.825791 
L 147.405625 86.825791 
L 147.405625 66.127639 
L 148.42017 66.127639 
L 148.42017 55.778563 
L 149.434716 55.778563 
L 149.434716 66.127639 
L 150.449261 66.127639 
L 150.449261 70.267269 
L 151.463807 70.267269 
L 151.463807 49.569117 
L 152.478352 49.569117 
L 152.478352 52.466858 
L 153.492898 52.466858 
L 153.492898 64.471786 
L 154.507443 64.471786 
L 154.507443 53.708747 
L 155.521989 53.708747 
L 155.521989 64.471786 
L 156.536534 64.471786 
L 156.536534 67.369528 
L 157.55108 67.369528 
L 157.55108 29.698891 
L 158.565625 29.698891 
L 158.565625 53.294784 
L 159.58017 53.294784 
L 159.58017 63.64386 
L 160.594716 63.64386 
L 160.594716 74.820862 
L 161.609261 74.820862 
L 161.609261 71.923121 
L 162.623807 71.923121 
L 162.623807 76.476715 
L 163.638352 76.476715 
L 163.638352 73.578973 
L 164.652898 73.578973 
L 164.652898 51.638932 
L 165.667443 51.638932 
L 165.667443 73.578973 
L 166.681989 73.578973 
L 166.681989 71.923121 
L 167.696534 71.923121 
L 167.696534 77.304641 
L 168.71108 77.304641 
L 168.71108 79.374456 
L 169.725625 79.374456 
L 169.725625 75.234825 
L 170.74017 75.234825 
L 170.74017 84.342012 
L 171.754716 84.342012 
L 171.754716 67.369528 
L 172.769261 67.369528 
L 172.769261 89.309569 
L 173.783807 89.309569 
L 173.783807 91.793347 
L 174.798352 91.793347 
L 174.798352 65.299713 
L 175.812898 65.299713 
L 175.812898 70.681232 
L 176.827443 70.681232 
L 176.827443 79.374456 
L 177.841989 79.374456 
L 177.841989 86.411828 
L 178.856534 86.411828 
L 178.856534 90.137495 
L 179.87108 90.137495 
L 179.87108 93.449199 
L 180.885625 93.449199 
L 180.885625 95.105051 
L 181.90017 95.105051 
L 181.90017 95.932977 
L 182.914716 95.932977 
L 182.914716 100.486571 
L 183.929261 100.486571 
L 183.929261 102.970349 
L 184.943807 102.970349 
L 184.943807 119.114908 
L 185.958352 119.114908 
L 185.958352 114.147351 
L 186.972898 114.147351 
L 186.972898 113.319425 
L 187.987443 113.319425 
L 187.987443 123.668501 
L 189.001989 123.668501 
L 189.001989 140.640986 
L 190.016534 140.640986 
L 190.016534 133.603614 
L 191.03108 133.603614 
L 191.03108 140.227023 
L 192.045625 140.227023 
L 192.045625 149.334209 
L 193.06017 149.334209 
L 193.06017 146.850431 
L 194.074716 146.850431 
L 194.074716 150.576099 
L 195.089261 150.576099 
L 195.089261 165.064805 
L 196.103807 165.064805 
L 196.103807 165.478768 
L 197.118352 165.478768 
L 197.118352 167.548583 
L 198.132898 167.548583 
L 198.132898 170.032361 
L 199.147443 170.032361 
L 199.147443 179.967474 
L 200.161989 179.967474 
L 200.161989 188.246735 
L 201.176534 188.246735 
L 201.176534 182.451253 
L 202.19108 182.451253 
L 202.19108 190.730513 
L 203.205625 190.730513 
L 203.205625 194.042218 
L 204.22017 194.042218 
L 204.22017 195.69807 
L 205.234716 195.69807 
L 205.234716 200.251663 
L 206.249261 200.251663 
L 206.249261 208.116961 
L 207.263807 208.116961 
L 207.263807 205.21922 
L 208.278352 205.21922 
L 208.278352 213.49848 
L 209.292898 213.49848 
L 209.292898 214.74037 
L 210.307443 214.74037 
L 210.307443 215.982259 
L 211.321989 215.982259 
L 211.321989 217.638111 
L 212.336534 217.638111 
L 212.336534 218.88 
L 213.35108 218.88 
L 213.35108 215.154333 
L 214.365625 215.154333 
L 214.365625 213.084517 
L 215.38017 213.084517 
L 215.38017 206.461109 
L 216.394716 206.461109 
L 216.394716 201.907515 
L 218.423807 201.907515 
L 218.423807 194.870144 
L 219.438352 194.870144 
L 219.438352 191.558439 
L 220.452898 191.558439 
L 220.452898 194.042218 
L 221.467443 194.042218 
L 221.467443 186.17692 
L 222.481989 186.17692 
L 222.481989 178.725585 
L 223.496534 178.725585 
L 223.496534 183.279179 
L 224.51108 183.279179 
L 224.51108 168.790472 
L 225.525625 168.790472 
L 225.525625 175.827844 
L 226.54017 175.827844 
L 226.54017 174.999918 
L 227.554716 174.999918 
L 227.554716 168.376509 
L 228.569261 168.376509 
L 228.569261 161.753101 
L 229.583807 161.753101 
L 229.583807 147.264394 
L 230.598352 147.264394 
L 230.598352 146.022505 
L 231.612898 146.022505 
L 231.612898 148.920246 
L 232.627443 148.920246 
L 232.627443 139.81306 
L 233.641989 139.81306 
L 233.641989 150.576099 
L 234.656534 150.576099 
L 234.656534 126.980205 
L 235.67108 126.980205 
L 235.67108 147.264394 
L 236.685625 147.264394 
L 236.685625 136.915318 
L 237.70017 136.915318 
L 237.70017 134.017577 
L 238.714716 134.017577 
L 238.714716 135.259466 
L 239.729261 135.259466 
L 239.729261 129.050021 
L 240.743807 129.050021 
L 240.743807 124.496427 
L 241.758352 124.496427 
L 241.758352 106.696016 
L 242.772898 106.696016 
L 242.772898 114.975277 
L 243.787443 114.975277 
L 243.787443 117.045092 
L 244.801989 117.045092 
L 244.801989 125.324353 
L 245.816534 125.324353 
L 245.816534 116.631129 
L 246.83108 116.631129 
L 246.83108 103.384312 
L 247.845625 103.384312 
L 247.845625 110.421684 
L 248.86017 110.421684 
L 248.86017 108.351869 
L 249.874716 108.351869 
L 249.874716 115.38924 
L 250.889261 115.38924 
L 250.889261 90.551458 
L 251.903807 90.551458 
L 251.903807 97.174867 
L 252.918352 97.174867 
L 252.918352 88.895606 
L 253.932898 88.895606 
L 253.932898 97.174867 
L 254.947443 97.174867 
L 254.947443 100.072608 
L 255.961989 100.072608 
L 255.961989 91.379384 
L 256.976534 91.379384 
L 256.976534 101.72846 
L 257.99108 101.72846 
L 257.99108 98.416756 
L 259.005625 98.416756 
L 259.005625 87.239754 
L 260.02017 87.239754 
L 260.02017 85.997864 
L 261.034716 85.997864 
L 261.034716 88.06768 
L 263.063807 88.06768 
L 263.063807 82.68616 
L 264.078352 82.68616 
L 264.078352 69.02538 
L 265.092898 69.02538 
L 265.092898 91.793347 
L 266.107443 91.793347 
L 266.107443 82.272197 
L 267.121989 82.272197 
L 267.121989 85.583901 
L 268.136534 85.583901 
L 268.136534 94.691088 
L 269.15108 94.691088 
L 269.15108 93.035236 
L 270.165625 93.035236 
L 270.165625 102.556386 
L 271.18017 102.556386 
L 271.18017 78.960493 
L 272.194716 78.960493 
L 272.194716 102.556386 
L 273.209261 102.556386 
L 273.209261 94.691088 
L 274.223807 94.691088 
L 274.223807 107.523943 
L 275.238352 107.523943 
L 275.238352 88.895606 
L 276.252898 88.895606 
L 276.252898 98.002793 
L 277.267443 98.002793 
L 277.267443 104.626201 
L 278.281989 104.626201 
L 278.281989 102.556386 
L 279.296534 102.556386 
L 279.296534 100.072608 
L 280.31108 100.072608 
L 280.31108 96.760903 
L 281.325625 96.760903 
L 281.325625 107.109979 
L 282.34017 107.109979 
L 282.34017 96.760903 
L 283.354716 96.760903 
L 283.354716 119.528871 
L 284.369261 119.528871 
L 284.369261 109.593758 
L 285.383807 109.593758 
L 285.383807 105.86809 
L 286.398352 105.86809 
L 286.398352 102.142423 
L 287.412898 102.142423 
L 287.412898 107.523943 
L 288.427443 107.523943 
L 288.427443 110.007721 
L 289.441989 110.007721 
L 289.441989 118.700945 
L 290.456534 118.700945 
L 290.456534 119.528871 
L 291.47108 119.528871 
L 291.47108 117.459055 
L 292.485625 117.459055 
L 292.485625 124.082464 
L 293.50017 124.082464 
L 293.50017 121.598686 
L 294.514716 121.598686 
L 294.514716 118.286982 
L 295.529261 118.286982 
L 295.529261 114.975277 
L 296.543807 114.975277 
L 296.543807 109.593758 
L 297.558352 109.593758 
L 297.558352 124.496427 
L 298.572898 124.496427 
L 298.572898 128.222094 
L 299.587443 128.222094 
L 299.587443 122.012649 
L 300.601989 122.012649 
L 300.601989 132.775688 
L 301.616534 132.775688 
L 301.616534 137.743244 
L 302.63108 137.743244 
L 302.63108 119.114908 
L 303.645625 119.114908 
L 303.645625 138.157207 
L 304.66017 138.157207 
L 304.66017 134.43154 
L 305.674716 134.43154 
L 305.674716 143.95269 
L 306.689261 143.95269 
L 306.689261 134.43154 
L 307.703807 134.43154 
L 307.703807 146.436468 
L 308.718352 146.436468 
L 308.718352 140.640986 
L 309.732898 140.640986 
L 309.732898 135.259466 
L 310.747443 135.259466 
L 310.747443 138.985133 
L 311.761989 138.985133 
L 311.761989 138.57117 
L 312.776534 138.57117 
L 312.776534 141.882875 
L 313.79108 141.882875 
L 313.79108 138.985133 
L 314.805625 138.985133 
L 314.805625 152.645914 
L 315.82017 152.645914 
L 315.82017 155.543655 
L 316.834716 155.543655 
L 316.834716 145.194579 
L 317.849261 145.194579 
L 317.849261 143.538727 
L 318.863807 143.538727 
L 318.863807 143.124764 
L 319.878352 143.124764 
L 319.878352 156.371581 
L 320.892898 156.371581 
L 320.892898 150.162136 
L 321.907443 150.162136 
L 321.907443 143.95269 
L 322.921989 143.95269 
L 322.921989 147.678357 
L 323.936534 147.678357 
L 323.936534 156.785544 
L 324.95108 156.785544 
L 324.95108 161.339138 
L 325.965625 161.339138 
L 325.965625 153.059877 
L 326.98017 153.059877 
L 326.98017 157.199507 
L 327.994716 157.199507 
L 327.994716 161.339138 
L 329.009261 161.339138 
L 329.009261 158.441396 
L 330.023807 158.441396 
L 330.023807 159.683285 
L 331.038352 159.683285 
L 331.038352 162.581027 
L 332.052898 162.581027 
L 332.052898 169.618398 
L 333.067443 169.618398 
L 333.067443 165.478768 
L 334.081989 165.478768 
L 334.081989 177.897659 
L 335.096534 177.897659 
L 335.096534 170.032361 
L 336.11108 170.032361 
L 336.11108 179.553511 
L 337.125625 179.553511 
L 337.125625 185.762957 
L 338.14017 185.762957 
L 338.14017 175.413881 
L 339.154716 175.413881 
L 339.154716 177.897659 
L 340.169261 177.897659 
L 340.169261 187.832772 
L 341.183807 187.832772 
L 341.183807 192.386366 
L 342.198352 192.386366 
L 342.198352 189.488624 
L 343.212898 189.488624 
L 343.212898 191.144476 
L 344.227443 191.144476 
L 344.227443 189.074661 
L 345.241989 189.074661 
L 345.241989 194.870144 
L 346.256534 194.870144 
L 346.256534 195.284107 
L 347.27108 195.284107 
L 347.27108 193.628255 
L 348.285625 193.628255 
L 348.285625 202.321478 
L 349.30017 202.321478 
L 349.30017 199.423737 
L 350.314716 199.423737 
L 350.314716 208.530924 
L 351.329261 208.530924 
L 351.329261 201.907515 
L 352.343807 201.907515 
L 352.343807 204.805257 
L 353.358352 204.805257 
L 353.358352 208.116961 
L 354.372898 208.116961 
L 354.372898 210.600739 
L 355.387443 210.600739 
L 355.387443 209.35885 
L 356.401989 209.35885 
L 356.401989 208.944887 
L 357.416534 208.944887 
L 357.416534 212.256591 
L 358.43108 212.256591 
L 358.43108 209.772813 
L 359.445625 209.772813 
L 359.445625 214.74037 
L 360.46017 214.74037 
L 360.46017 215.982259 
L 361.474716 215.982259 
L 361.474716 218.052074 
L 362.489261 218.052074 
L 362.489261 218.466037 
L 364.518352 218.466037 
L 364.518352 218.88 
L 365.532898 218.88 
L 365.532898 218.052074 
L 366.547443 218.052074 
L 366.547443 218.052074 
" clip-path="url(#pab6c31bd71)" style="fill: none; stroke: #1f77b4; stroke-width: 1.5; stroke-linecap: square"/>
   </g>
  </g>
 </g>
 <defs>
  <clipPath id="pab6c31bd71">
   <rect x="46.965625" y="7.2" width="334.8" height="221.76"/>
  </clipPath>
 </defs>
</svg>
