<?xml version="1.0" encoding="utf-8" standalone="no"?>
<!DOCTYPE svg PUBLIC "-//W3C//DTD SVG 1.1//EN"
  "http://www.w3.org/Graphics/SVG/1.1/DTD/svg11.dtd">
<svg xmlns:xlink="http://www.w3.org/1999/xlink" width="872.39952pt" height="296.39952pt" viewBox="0 0 872.39952 296.39952" xmlns="http://www.w3.org/2000/svg" version="1.1">
 <metadata>
  <rdf:RDF xmlns:dc="http://purl.org/dc/elements/1.1/" xmlns:cc="http://creativecommons.org/ns#" xmlns:rdf="http://www.w3.org/1999/02/22-rdf-syntax-ns#">
   <cc:Work>
    <dc:type rdf:resource="http://purl.org/dc/dcmitype/StillImage"/>
    <dc:date>2026-01-15T09:10:12.878831</dc:date>
    <dc:format>image/svg+xml</dc:format>
    <dc:creator>
     <cc:Agent>
      <dc:title>Matplotlib v3.10.7, https://matplotlib.org/</dc:title>
     </cc:Agent>
    </dc:creator>
   </cc:Work>
  </rdf:RDF>
 </metadata>
 <defs>
  <style type="text/css">*{stroke-linejoin: round; stroke-linecap: butt}</style>
 </defs>
 <g id="figure_1">
  <g id="patch_1">
   <path d="M 0 296.39952 
L 872.39952 296.39952 
L 872.39952 0 
L 0 0 
z
" style="fill: #ffffff"/>
  </g>
  <g id="axes_1">
   <g id="patch_2">
    <path d="M 53.328125 257.158895 
L 414.59976 257.158895 
L 414.59976 7.2 
L 53.328125 7.2 
z
" style="fill: #ffffff"/>
   </g>
   <g id="matplotlib.axis_1">
    <g id="xtick_1">
     <g id="line2d_1">
      <defs>
       <path id="m59f0649d5b" d="M 0 0 
L 0 3.5 
" style="stroke: #000000; stroke-width: 0.8"/>
      </defs>
      <g>
       <use xlink:href="#m59f0649d5b" x="68.927491" y="257.158895" style="stroke: #000000; stroke-width: 0.8"/>
      </g>
     </g>
     <g id="text_1">
      <!-- 0 -->
      <g transform="translate(65.746241 271.757332) scale(0.1 -0.1)">
       <defs>
        <path id="DejaVuSans-30" d="M 2034 4250 
Q 1547 4250 1301 3770 
Q 1056 3291 1056 2328 
Q 1056 1369 1301 889 
Q 1547 409 2034 409 
Q 2525 409 2770 889 
Q 3016 1369 3016 2328 
Q 3016 3291 2770 3770 
Q 2525 4250 2034 4250 
z
M 2034 4750 
Q 2819 4750 3233 4129 
Q 3647 3509 3647 2328 
Q 3647 1150 3233 529 
Q 2819 -91 2034 -91 
Q 1250 -91 836 529 
Q 422 1150 422 2328 
Q 422 3509 836 4129 
Q 1250 4750 2034 4750 
z
" transform="scale(0.015625)"/>
       </defs>
       <use xlink:href="#DejaVuSans-30"/>
      </g>
     </g>
    </g>
    <g id="xtick_2">
     <g id="line2d_2">
      <g>
       <use xlink:href="#m59f0649d5b" x="134.968306" y="257.158895" style="stroke: #000000; stroke-width: 0.8"/>
      </g>
     </g>
     <g id="text_2">
      <!-- 1000 -->
      <g transform="translate(122.243306 271.757332) scale(0.1 -0.1)">
       <defs>
        <path id="DejaVuSans-31" d="M 794 531 
L 1825 531 
L 1825 4091 
L 703 3866 
L 703 4441 
L 1819 4666 
L 2450 4666 
L 2450 531 
L 3481 531 
L 3481 0 
L 794 0 
L 794 531 
z
" transform="scale(0.015625)"/>
       </defs>
       <use xlink:href="#DejaVuSans-31"/>
       <use xlink:href="#DejaVuSans-30" transform="translate(63.623047 0)"/>
       <use xlink:href="#DejaVuSans-30" transform="translate(127.246094 0)"/>
       <use xlink:href="#DejaVuSans-30" transform="translate(190.869141 0)"/>
      </g>
     </g>
    </g>
    <g id="xtick_3">
     <g id="line2d_3">
      <g>
       <use xlink:href="#m59f0649d5b" x="201.00912" y="257.158895" style="stroke: #000000; stroke-width: 0.8"/>
      </g>
     </g>
     <g id="text_3">
      <!-- 2000 -->
      <g transform="translate(188.28412 271.757332) scale(0.1 -0.1)">
       <defs>
        <path id="DejaVuSans-32" d="M 1228 531 
L 3431 531 
L 3431 0 
L 469 0 
L 469 531 
Q 828 903 1448 1529 
Q 2069 2156 2228 2338 
Q 2531 2678 2651 2914 
Q 2772 3150 2772 3378 
Q 2772 3750 2511 3984 
Q 2250 4219 1831 4219 
Q 1534 4219 1204 4116 
Q 875 4013 500 3803 
L 500 4441 
Q 881 4594 1212 4672 
Q 1544 4750 1819 4750 
Q 2544 4750 2975 4387 
Q 3406 4025 3406 3419 
Q 3406 3131 3298 2873 
Q 3191 2616 2906 2266 
Q 2828 2175 2409 1742 
Q 1991 1309 1228 531 
z
" transform="scale(0.015625)"/>
       </defs>
       <use xlink:href="#DejaVuSans-32"/>
       <use xlink:href="#DejaVuSans-30" transform="translate(63.623047 0)"/>
       <use xlink:href="#DejaVuSans-30" transform="translate(127.246094 0)"/>
       <use xlink:href="#DejaVuSans-30" transform="translate(190.869141 0)"/>
      </g>
     </g>
    </g>
    <g id="xtick_4">
     <g id="line2d_4">
      <g>
       <use xlink:href="#m59f0649d5b" x="267.049934" y="257.158895" style="stroke: #000000; stroke-width: 0.8"/>
      </g>
     </g>
     <g id="text_4">
      <!-- 3000 -->
      <g transform="translate(254.324934 271.757332) scale(0.1 -0.1)">
       <defs>
        <path id="DejaVuSans-33" d="M 2597 2516 
Q 3050 2419 3304 2112 
Q 3559 1806 3559 1356 
Q 3559 666 3084 287 
Q 2609 -91 1734 -91 
Q 1441 -91 1130 -33 
Q 819 25 488 141 
L 488 750 
Q 750 597 1062 519 
Q 1375 441 1716 441 
Q 2309 441 2620 675 
Q 2931 909 2931 1356 
Q 2931 1769 2642 2001 
Q 2353 2234 1838 2234 
L 1294 2234 
L 1294 2753 
L 1863 2753 
Q 2328 2753 2575 2939 
Q 2822 3125 2822 3475 
Q 2822 3834 2567 4026 
Q 2313 4219 1838 4219 
Q 1578 4219 1281 4162 
Q 984 4106 628 3988 
L 628 4550 
Q 988 4650 1302 4700 
Q 1616 4750 1894 4750 
Q 2613 4750 3031 4423 
Q 3450 4097 3450 3541 
Q 3450 3153 3228 2886 
Q 3006 2619 2597 2516 
z
" transform="scale(0.015625)"/>
       </defs>
       <use xlink:href="#DejaVuSans-33"/>
       <use xlink:href="#DejaVuSans-30" transform="translate(63.623047 0)"/>
       <use xlink:href="#DejaVuSans-30" transform="translate(127.246094 0)"/>
       <use xlink:href="#DejaVuSans-30" transform="translate(190.869141 0)"/>
      </g>
     </g>
    </g>
    <g id="xtick_5">
     <g id="line2d_5">
      <g>
       <use xlink:href="#m59f0649d5b" x="333.090748" y="257.158895" style="stroke: #000000; stroke-width: 0.8"/>
      </g>
     </g>
     <g id="text_5">
      <!-- 4000 -->
      <g transform="translate(320.365748 271.757332) scale(0.1 -0.1)">
       <defs>
        <path id="DejaVuSans-34" d="M 2419 4116 
L 825 1625 
L 2419 1625 
L 2419 4116 
z
M 2253 4666 
L 3047 4666 
L 3047 1625 
L 3713 1625 
L 3713 1100 
L 3047 1100 
L 3047 0 
L 2419 0 
L 2419 1100 
L 313 1100 
L 313 1709 
L 2253 4666 
z
" transform="scale(0.015625)"/>
       </defs>
       <use xlink:href="#DejaVuSans-34"/>
       <use xlink:href="#DejaVuSans-30" transform="translate(63.623047 0)"/>
       <use xlink:href="#DejaVuSans-30" transform="translate(127.246094 0)"/>
       <use xlink:href="#DejaVuSans-30" transform="translate(190.869141 0)"/>
      </g>
     </g>
    </g>
    <g id="xtick_6">
     <g id="line2d_6">
      <g>
       <use xlink:href="#m59f0649d5b" x="399.131563" y="257.158895" style="stroke: #000000; stroke-width: 0.8"/>
      </g>
     </g>
     <g id="text_6">
      <!-- 5000 -->
      <g transform="translate(386.406563 271.757332) scale(0.1 -0.1)">
       <defs>
        <path id="DejaVuSans-35" d="M 691 4666 
L 3169 4666 
L 3169 4134 
L 1269 4134 
L 1269 2991 
Q 1406 3038 1543 3061 
Q 1681 3084 1819 3084 
Q 2600 3084 3056 2656 
Q 3513 2228 3513 1497 
Q 3513 744 3044 326 
Q 2575 -91 1722 -91 
Q 1428 -91 1123 -41 
Q 819 9 494 109 
L 494 744 
Q 775 591 1075 516 
Q 1375 441 1709 441 
Q 2250 441 2565 725 
Q 2881 1009 2881 1497 
Q 2881 1984 2565 2268 
Q 2250 2553 1709 2553 
Q 1456 2553 1204 2497 
Q 953 2441 691 2322 
L 691 4666 
z
" transform="scale(0.015625)"/>
       </defs>
       <use xlink:href="#DejaVuSans-35"/>
       <use xlink:href="#DejaVuSans-30" transform="translate(63.623047 0)"/>
       <use xlink:href="#DejaVuSans-30" transform="translate(127.246094 0)"/>
       <use xlink:href="#DejaVuSans-30" transform="translate(190.869141 0)"/>
      </g>
     </g>
    </g>
    <g id="text_7">
     <!-- birth_time [µs] -->
     <g transform="translate(197.14363 285.435457) scale(0.1 -0.1)">
      <defs>
       <path id="DejaVuSans-62" d="M 3116 1747 
Q 3116 2381 2855 2742 
Q 2594 3103 2138 3103 
Q 1681 3103 1420 2742 
Q 1159 2381 1159 1747 
Q 1159 1113 1420 752 
Q 1681 391 2138 391 
Q 2594 391 2855 752 
Q 3116 1113 3116 1747 
z
M 1159 2969 
Q 1341 3281 1617 3432 
Q 1894 3584 2278 3584 
Q 2916 3584 3314 3078 
Q 3713 2572 3713 1747 
Q 3713 922 3314 415 
Q 2916 -91 2278 -91 
Q 1894 -91 1617 61 
Q 1341 213 1159 525 
L 1159 0 
L 581 0 
L 581 4863 
L 1159 4863 
L 1159 2969 
z
" transform="scale(0.015625)"/>
       <path id="DejaVuSans-69" d="M 603 3500 
L 1178 3500 
L 1178 0 
L 603 0 
L 603 3500 
z
M 603 4863 
L 1178 4863 
L 1178 4134 
L 603 4134 
L 603 4863 
z
" transform="scale(0.015625)"/>
       <path id="DejaVuSans-72" d="M 2631 2963 
Q 2534 3019 2420 3045 
Q 2306 3072 2169 3072 
Q 1681 3072 1420 2755 
Q 1159 2438 1159 1844 
L 1159 0 
L 581 0 
L 581 3500 
L 1159 3500 
L 1159 2956 
Q 1341 3275 1631 3429 
Q 1922 3584 2338 3584 
Q 2397 3584 2469 3576 
Q 2541 3569 2628 3553 
L 2631 2963 
z
" transform="scale(0.015625)"/>
       <path id="DejaVuSans-74" d="M 1172 4494 
L 1172 3500 
L 2356 3500 
L 2356 3053 
L 1172 3053 
L 1172 1153 
Q 1172 725 1289 603 
Q 1406 481 1766 481 
L 2356 481 
L 2356 0 
L 1766 0 
Q 1100 0 847 248 
Q 594 497 594 1153 
L 594 3053 
L 172 3053 
L 172 3500 
L 594 3500 
L 594 4494 
L 1172 4494 
z
" transform="scale(0.015625)"/>
       <path id="DejaVuSans-68" d="M 3513 2113 
L 3513 0 
L 2938 0 
L 2938 2094 
Q 2938 2591 2744 2837 
Q 2550 3084 2163 3084 
Q 1697 3084 1428 2787 
Q 1159 2491 1159 1978 
L 1159 0 
L 581 0 
L 581 4863 
L 1159 4863 
L 1159 2956 
Q 1366 3272 1645 3428 
Q 1925 3584 2291 3584 
Q 2894 3584 3203 3211 
Q 3513 2838 3513 2113 
z
" transform="scale(0.015625)"/>
       <path id="DejaVuSans-5f" d="M 3263 -1063 
L 3263 -1509 
L -63 -1509 
L -63 -1063 
L 3263 -1063 
z
" transform="scale(0.015625)"/>
       <path id="DejaVuSans-6d" d="M 3328 2828 
Q 3544 3216 3844 3400 
Q 4144 3584 4550 3584 
Q 5097 3584 5394 3201 
Q 5691 2819 5691 2113 
L 5691 0 
L 5113 0 
L 5113 2094 
Q 5113 2597 4934 2840 
Q 4756 3084 4391 3084 
Q 3944 3084 3684 2787 
Q 3425 2491 3425 1978 
L 3425 0 
L 2847 0 
L 2847 2094 
Q 2847 2600 2669 2842 
Q 2491 3084 2119 3084 
Q 1678 3084 1418 2786 
Q 1159 2488 1159 1978 
L 1159 0 
L 581 0 
L 581 3500 
L 1159 3500 
L 1159 2956 
Q 1356 3278 1631 3431 
Q 1906 3584 2284 3584 
Q 2666 3584 2933 3390 
Q 3200 3197 3328 2828 
z
" transform="scale(0.015625)"/>
       <path id="DejaVuSans-65" d="M 3597 1894 
L 3597 1613 
L 953 1613 
Q 991 1019 1311 708 
Q 1631 397 2203 397 
Q 2534 397 2845 478 
Q 3156 559 3463 722 
L 3463 178 
Q 3153 47 2828 -22 
Q 2503 -91 2169 -91 
Q 1331 -91 842 396 
Q 353 884 353 1716 
Q 353 2575 817 3079 
Q 1281 3584 2069 3584 
Q 2775 3584 3186 3129 
Q 3597 2675 3597 1894 
z
M 3022 2063 
Q 3016 2534 2758 2815 
Q 2500 3097 2075 3097 
Q 1594 3097 1305 2825 
Q 1016 2553 972 2059 
L 3022 2063 
z
" transform="scale(0.015625)"/>
       <path id="DejaVuSans-20" transform="scale(0.015625)"/>
       <path id="DejaVuSans-5b" d="M 550 4863 
L 1875 4863 
L 1875 4416 
L 1125 4416 
L 1125 -397 
L 1875 -397 
L 1875 -844 
L 550 -844 
L 550 4863 
z
" transform="scale(0.015625)"/>
       <path id="DejaVuSans-b5" d="M 544 -1331 
L 544 3500 
L 1119 3500 
L 1119 1325 
Q 1119 872 1334 640 
Q 1550 409 1972 409 
Q 2434 409 2667 671 
Q 2900 934 2900 1459 
L 2900 3500 
L 3475 3500 
L 3475 806 
Q 3475 619 3529 530 
Q 3584 441 3700 441 
Q 3728 441 3778 458 
Q 3828 475 3916 513 
L 3916 50 
Q 3788 -22 3673 -56 
Q 3559 -91 3450 -91 
Q 3234 -91 3106 31 
Q 2978 153 2931 403 
Q 2775 156 2548 32 
Q 2322 -91 2016 -91 
Q 1697 -91 1473 31 
Q 1250 153 1119 397 
L 1119 -1331 
L 544 -1331 
z
" transform="scale(0.015625)"/>
       <path id="DejaVuSans-73" d="M 2834 3397 
L 2834 2853 
Q 2591 2978 2328 3040 
Q 2066 3103 1784 3103 
Q 1356 3103 1142 2972 
Q 928 2841 928 2578 
Q 928 2378 1081 2264 
Q 1234 2150 1697 2047 
L 1894 2003 
Q 2506 1872 2764 1633 
Q 3022 1394 3022 966 
Q 3022 478 2636 193 
Q 2250 -91 1575 -91 
Q 1294 -91 989 -36 
Q 684 19 347 128 
L 347 722 
Q 666 556 975 473 
Q 1284 391 1588 391 
Q 1994 391 2212 530 
Q 2431 669 2431 922 
Q 2431 1156 2273 1281 
Q 2116 1406 1581 1522 
L 1381 1569 
Q 847 1681 609 1914 
Q 372 2147 372 2553 
Q 372 3047 722 3315 
Q 1072 3584 1716 3584 
Q 2034 3584 2315 3537 
Q 2597 3491 2834 3397 
z
" transform="scale(0.015625)"/>
       <path id="DejaVuSans-5d" d="M 1947 4863 
L 1947 -844 
L 622 -844 
L 622 -397 
L 1369 -397 
L 1369 4416 
L 622 4416 
L 622 4863 
L 1947 4863 
z
" transform="scale(0.015625)"/>
      </defs>
      <use xlink:href="#DejaVuSans-62"/>
      <use xlink:href="#DejaVuSans-69" transform="translate(63.476562 0)"/>
      <use xlink:href="#DejaVuSans-72" transform="translate(91.259766 0)"/>
      <use xlink:href="#DejaVuSans-74" transform="translate(132.373047 0)"/>
      <use xlink:href="#DejaVuSans-68" transform="translate(171.582031 0)"/>
      <use xlink:href="#DejaVuSans-5f" transform="translate(234.960938 0)"/>
      <use xlink:href="#DejaVuSans-74" transform="translate(284.960938 0)"/>
      <use xlink:href="#DejaVuSans-69" transform="translate(324.169922 0)"/>
      <use xlink:href="#DejaVuSans-6d" transform="translate(351.953125 0)"/>
      <use xlink:href="#DejaVuSans-65" transform="translate(449.365234 0)"/>
      <use xlink:href="#DejaVuSans-20" transform="translate(510.888672 0)"/>
      <use xlink:href="#DejaVuSans-5b" transform="translate(542.675781 0)"/>
      <use xlink:href="#DejaVuSans-b5" transform="translate(581.689453 0)"/>
      <use xlink:href="#DejaVuSans-73" transform="translate(645.3125 0)"/>
      <use xlink:href="#DejaVuSans-5d" transform="translate(697.412109 0)"/>
     </g>
    </g>
   </g>
   <g id="matplotlib.axis_2">
    <g id="ytick_1">
     <g id="line2d_7">
      <defs>
       <path id="m4cac8e7b4e" d="M 0 0 
L -3.5 0 
" style="stroke: #000000; stroke-width: 0.8"/>
      </defs>
      <g>
       <use xlink:href="#m4cac8e7b4e" x="53.328125" y="245.797127" style="stroke: #000000; stroke-width: 0.8"/>
      </g>
     </g>
     <g id="text_8">
      <!-- 0 -->
      <g transform="translate(39.965625 249.596346) scale(0.1 -0.1)">
       <use xlink:href="#DejaVuSans-30"/>
      </g>
     </g>
    </g>
    <g id="ytick_2">
     <g id="line2d_8">
      <g>
       <use xlink:href="#m4cac8e7b4e" x="53.328125" y="208.697477" style="stroke: #000000; stroke-width: 0.8"/>
      </g>
     </g>
     <g id="text_9">
      <!-- 200 -->
      <g transform="translate(27.240625 212.496695) scale(0.1 -0.1)">
       <use xlink:href="#DejaVuSans-32"/>
       <use xlink:href="#DejaVuSans-30" transform="translate(63.623047 0)"/>
       <use xlink:href="#DejaVuSans-30" transform="translate(127.246094 0)"/>
      </g>
     </g>
    </g>
    <g id="ytick_3">
     <g id="line2d_9">
      <g>
       <use xlink:href="#m4cac8e7b4e" x="53.328125" y="171.597826" style="stroke: #000000; stroke-width: 0.8"/>
      </g>
     </g>
     <g id="text_10">
      <!-- 400 -->
      <g transform="translate(27.240625 175.397045) scale(0.1 -0.1)">
       <use xlink:href="#DejaVuSans-34"/>
       <use xlink:href="#DejaVuSans-30" transform="translate(63.623047 0)"/>
       <use xlink:href="#DejaVuSans-30" transform="translate(127.246094 0)"/>
      </g>
     </g>
    </g>
    <g id="ytick_4">
     <g id="line2d_10">
      <g>
       <use xlink:href="#m4cac8e7b4e" x="53.328125" y="134.498176" style="stroke: #000000; stroke-width: 0.8"/>
      </g>
     </g>
     <g id="text_11">
      <!-- 600 -->
      <g transform="translate(27.240625 138.297394) scale(0.1 -0.1)">
       <defs>
        <path id="DejaVuSans-36" d="M 2113 2584 
Q 1688 2584 1439 2293 
Q 1191 2003 1191 1497 
Q 1191 994 1439 701 
Q 1688 409 2113 409 
Q 2538 409 2786 701 
Q 3034 994 3034 1497 
Q 3034 2003 2786 2293 
Q 2538 2584 2113 2584 
z
M 3366 4563 
L 3366 3988 
Q 3128 4100 2886 4159 
Q 2644 4219 2406 4219 
Q 1781 4219 1451 3797 
Q 1122 3375 1075 2522 
Q 1259 2794 1537 2939 
Q 1816 3084 2150 3084 
Q 2853 3084 3261 2657 
Q 3669 2231 3669 1497 
Q 3669 778 3244 343 
Q 2819 -91 2113 -91 
Q 1303 -91 875 529 
Q 447 1150 447 2328 
Q 447 3434 972 4092 
Q 1497 4750 2381 4750 
Q 2619 4750 2861 4703 
Q 3103 4656 3366 4563 
z
" transform="scale(0.015625)"/>
       </defs>
       <use xlink:href="#DejaVuSans-36"/>
       <use xlink:href="#DejaVuSans-30" transform="translate(63.623047 0)"/>
       <use xlink:href="#DejaVuSans-30" transform="translate(127.246094 0)"/>
      </g>
     </g>
    </g>
    <g id="ytick_5">
     <g id="line2d_11">
      <g>
       <use xlink:href="#m4cac8e7b4e" x="53.328125" y="97.398525" style="stroke: #000000; stroke-width: 0.8"/>
      </g>
     </g>
     <g id="text_12">
      <!-- 800 -->
      <g transform="translate(27.240625 101.197744) scale(0.1 -0.1)">
       <defs>
        <path id="DejaVuSans-38" d="M 2034 2216 
Q 1584 2216 1326 1975 
Q 1069 1734 1069 1313 
Q 1069 891 1326 650 
Q 1584 409 2034 409 
Q 2484 409 2743 651 
Q 3003 894 3003 1313 
Q 3003 1734 2745 1975 
Q 2488 2216 2034 2216 
z
M 1403 2484 
Q 997 2584 770 2862 
Q 544 3141 544 3541 
Q 544 4100 942 4425 
Q 1341 4750 2034 4750 
Q 2731 4750 3128 4425 
Q 3525 4100 3525 3541 
Q 3525 3141 3298 2862 
Q 3072 2584 2669 2484 
Q 3125 2378 3379 2068 
Q 3634 1759 3634 1313 
Q 3634 634 3220 271 
Q 2806 -91 2034 -91 
Q 1263 -91 848 271 
Q 434 634 434 1313 
Q 434 1759 690 2068 
Q 947 2378 1403 2484 
z
M 1172 3481 
Q 1172 3119 1398 2916 
Q 1625 2713 2034 2713 
Q 2441 2713 2670 2916 
Q 2900 3119 2900 3481 
Q 2900 3844 2670 4047 
Q 2441 4250 2034 4250 
Q 1625 4250 1398 4047 
Q 1172 3844 1172 3481 
z
" transform="scale(0.015625)"/>
       </defs>
       <use xlink:href="#DejaVuSans-38"/>
       <use xlink:href="#DejaVuSans-30" transform="translate(63.623047 0)"/>
       <use xlink:href="#DejaVuSans-30" transform="translate(127.246094 0)"/>
      </g>
     </g>
    </g>
    <g id="ytick_6">
     <g id="line2d_12">
      <g>
       <use xlink:href="#m4cac8e7b4e" x="53.328125" y="60.298875" style="stroke: #000000; stroke-width: 0.8"/>
      </g>
     </g>
     <g id="text_13">
      <!-- 1000 -->
      <g transform="translate(20.878125 64.098093) scale(0.1 -0.1)">
       <use xlink:href="#DejaVuSans-31"/>
       <use xlink:href="#DejaVuSans-30" transform="translate(63.623047 0)"/>
       <use xlink:href="#DejaVuSans-30" transform="translate(127.246094 0)"/>
       <use xlink:href="#DejaVuSans-30" transform="translate(190.869141 0)"/>
      </g>
     </g>
    </g>
    <g id="ytick_7">
     <g id="line2d_13">
      <g>
       <use xlink:href="#m4cac8e7b4e" x="53.328125" y="23.199224" style="stroke: #000000; stroke-width: 0.8"/>
      </g>
     </g>
     <g id="text_14">
      <!-- 1200 -->
      <g transform="translate(20.878125 26.998443) scale(0.1 -0.1)">
       <use xlink:href="#DejaVuSans-31"/>
       <use xlink:href="#DejaVuSans-32" transform="translate(63.623047 0)"/>
       <use xlink:href="#DejaVuSans-30" transform="translate(127.246094 0)"/>
       <use xlink:href="#DejaVuSans-30" transform="translate(190.869141 0)"/>
      </g>
     </g>
    </g>
    <g id="text_15">
     <!-- [counts] -->
     <g transform="translate(14.798438 152.791947) rotate(-90) scale(0.1 -0.1)">
      <defs>
       <path id="DejaVuSans-63" d="M 3122 3366 
L 3122 2828 
Q 2878 2963 2633 3030 
Q 2388 3097 2138 3097 
Q 1578 3097 1268 2742 
Q 959 2388 959 1747 
Q 959 1106 1268 751 
Q 1578 397 2138 397 
Q 2388 397 2633 464 
Q 2878 531 3122 666 
L 3122 134 
Q 2881 22 2623 -34 
Q 2366 -91 2075 -91 
Q 1284 -91 818 406 
Q 353 903 353 1747 
Q 353 2603 823 3093 
Q 1294 3584 2113 3584 
Q 2378 3584 2631 3529 
Q 2884 3475 3122 3366 
z
" transform="scale(0.015625)"/>
       <path id="DejaVuSans-6f" d="M 1959 3097 
Q 1497 3097 1228 2736 
Q 959 2375 959 1747 
Q 959 1119 1226 758 
Q 1494 397 1959 397 
Q 2419 397 2687 759 
Q 2956 1122 2956 1747 
Q 2956 2369 2687 2733 
Q 2419 3097 1959 3097 
z
M 1959 3584 
Q 2709 3584 3137 3096 
Q 3566 2609 3566 1747 
Q 3566 888 3137 398 
Q 2709 -91 1959 -91 
Q 1206 -91 779 398 
Q 353 888 353 1747 
Q 353 2609 779 3096 
Q 1206 3584 1959 3584 
z
" transform="scale(0.015625)"/>
       <path id="DejaVuSans-75" d="M 544 1381 
L 544 3500 
L 1119 3500 
L 1119 1403 
Q 1119 906 1312 657 
Q 1506 409 1894 409 
Q 2359 409 2629 706 
Q 2900 1003 2900 1516 
L 2900 3500 
L 3475 3500 
L 3475 0 
L 2900 0 
L 2900 538 
Q 2691 219 2414 64 
Q 2138 -91 1772 -91 
Q 1169 -91 856 284 
Q 544 659 544 1381 
z
M 1991 3584 
L 1991 3584 
z
" transform="scale(0.015625)"/>
       <path id="DejaVuSans-6e" d="M 3513 2113 
L 3513 0 
L 2938 0 
L 2938 2094 
Q 2938 2591 2744 2837 
Q 2550 3084 2163 3084 
Q 1697 3084 1428 2787 
Q 1159 2491 1159 1978 
L 1159 0 
L 581 0 
L 581 3500 
L 1159 3500 
L 1159 2956 
Q 1366 3272 1645 3428 
Q 1925 3584 2291 3584 
Q 2894 3584 3203 3211 
Q 3513 2838 3513 2113 
z
" transform="scale(0.015625)"/>
      </defs>
      <use xlink:href="#DejaVuSans-5b"/>
      <use xlink:href="#DejaVuSans-63" transform="translate(39.013672 0)"/>
      <use xlink:href="#DejaVuSans-6f" transform="translate(93.994141 0)"/>
      <use xlink:href="#DejaVuSans-75" transform="translate(155.175781 0)"/>
      <use xlink:href="#DejaVuSans-6e" transform="translate(218.554688 0)"/>
      <use xlink:href="#DejaVuSans-74" transform="translate(281.933594 0)"/>
      <use xlink:href="#DejaVuSans-73" transform="translate(321.142578 0)"/>
      <use xlink:href="#DejaVuSans-5d" transform="translate(373.242188 0)"/>
     </g>
    </g>
   </g>
   <g id="line2d_14">
    <path d="M 69.749563 236.151218 
L 70.844325 236.151218 
L 70.844325 228.54579 
L 71.939088 228.54579 
L 71.939088 217.786891 
L 73.033851 217.786891 
L 73.033851 211.850947 
L 74.128613 211.850947 
L 74.128613 202.019539 
L 75.223376 202.019539 
L 75.223376 192.744627 
L 76.318138 192.744627 
L 76.318138 183.840711 
L 77.412901 183.840711 
L 77.412901 176.977275 
L 78.507663 176.977275 
L 78.507663 176.235282 
L 79.602426 176.235282 
L 79.602426 163.992398 
L 80.697188 163.992398 
L 80.697188 158.983945 
L 81.791951 158.983945 
L 81.791951 144.515081 
L 82.886713 144.515081 
L 82.886713 136.724155 
L 83.981476 136.724155 
L 83.981476 137.095151 
L 85.076238 137.095151 
L 85.076238 130.231716 
L 86.171001 130.231716 
L 86.171001 115.762852 
L 87.265763 115.762852 
L 87.265763 124.110274 
L 88.360526 124.110274 
L 88.360526 111.496392 
L 89.455288 111.496392 
L 89.455288 114.464364 
L 90.550051 114.464364 
L 90.550051 97.584023 
L 91.644814 97.584023 
L 91.644814 105.931445 
L 92.739576 105.931445 
L 92.739576 98.140518 
L 93.834339 98.140518 
L 93.834339 97.027529 
L 94.929101 97.027529 
L 94.929101 91.462581 
L 96.023864 91.462581 
L 96.023864 85.897634 
L 97.118626 85.897634 
L 97.118626 79.590693 
L 98.213389 79.590693 
L 98.213389 78.8487 
L 99.308151 78.8487 
L 99.308151 73.654749 
L 100.402914 73.654749 
L 100.402914 66.791314 
L 101.497676 66.791314 
L 101.497676 70.130282 
L 102.592439 70.130282 
L 102.592439 72.912756 
L 103.687201 72.912756 
L 103.687201 56.403411 
L 104.781964 56.403411 
L 104.781964 73.469251 
L 105.876726 73.469251 
L 105.876726 72.170763 
L 106.971489 72.170763 
L 106.971489 61.968359 
L 108.066252 61.968359 
L 108.066252 54.362931 
L 109.161014 54.362931 
L 109.161014 62.153857 
L 110.255777 62.153857 
L 110.255777 52.878945 
L 111.350539 52.878945 
L 111.350539 58.443892 
L 112.445302 58.443892 
L 112.445302 53.991934 
L 113.540064 53.991934 
L 113.540064 44.717022 
L 114.634827 44.717022 
L 114.634827 51.023962 
L 115.729589 51.023962 
L 115.729589 42.862039 
L 116.824352 42.862039 
L 116.824352 48.426987 
L 117.919114 48.426987 
L 117.919114 52.878945 
L 119.013877 52.878945 
L 119.013877 39.708569 
L 120.108639 39.708569 
L 120.108639 41.563551 
L 121.203402 41.563551 
L 121.203402 41.378053 
L 122.298164 41.378053 
L 122.298164 41.934548 
L 123.392927 41.934548 
L 123.392927 31.917642 
L 124.487689 31.917642 
L 124.487689 47.128499 
L 125.582452 47.128499 
L 125.582452 52.693446 
L 126.677215 52.693446 
L 126.677215 39.52307 
L 127.771977 39.52307 
L 127.771977 47.499495 
L 128.86674 47.499495 
L 128.86674 42.862039 
L 129.961502 42.862039 
L 129.961502 37.297091 
L 131.056265 37.297091 
L 131.056265 46.572004 
L 132.151027 46.572004 
L 132.151027 32.845133 
L 133.24579 32.845133 
L 133.24579 42.491043 
L 134.340552 42.491043 
L 134.340552 36.3696 
L 136.530077 36.3696 
L 136.530077 39.708569 
L 137.62484 39.708569 
L 137.62484 30.248158 
L 138.719602 30.248158 
L 138.719602 36.926095 
L 139.814365 36.926095 
L 139.814365 21.900736 
L 140.909127 21.900736 
L 140.909127 46.943001 
L 142.00389 46.943001 
L 142.00389 32.474137 
L 143.098652 32.474137 
L 143.098652 32.659635 
L 144.193415 32.659635 
L 144.193415 39.152074 
L 145.288178 39.152074 
L 145.288178 36.184102 
L 146.38294 36.184102 
L 146.38294 36.740597 
L 147.477703 36.740597 
L 147.477703 35.813105 
L 148.572465 35.813105 
L 148.572465 35.627607 
L 149.667228 35.627607 
L 149.667228 27.280186 
L 150.76199 27.280186 
L 150.76199 29.877161 
L 151.856753 29.877161 
L 151.856753 37.297091 
L 152.951515 37.297091 
L 152.951515 37.668088 
L 154.046278 37.668088 
L 154.046278 43.233036 
L 155.14104 43.233036 
L 155.14104 24.68321 
L 156.235803 24.68321 
L 156.235803 40.265063 
L 157.330565 40.265063 
L 157.330565 24.868709 
L 158.425328 24.868709 
L 158.425328 23.755719 
L 159.52009 23.755719 
L 159.52009 39.708569 
L 160.614853 39.708569 
L 160.614853 36.926095 
L 161.709615 36.926095 
L 161.709615 28.022179 
L 162.804378 28.022179 
L 162.804378 26.352695 
L 163.899141 26.352695 
L 163.899141 35.442109 
L 164.993903 35.442109 
L 164.993903 39.52307 
L 166.088666 39.52307 
L 166.088666 39.337572 
L 167.183428 39.337572 
L 167.183428 38.410081 
L 168.278191 38.410081 
L 168.278191 36.926095 
L 169.372953 36.926095 
L 169.372953 28.207677 
L 170.467716 28.207677 
L 170.467716 38.039084 
L 171.562478 38.039084 
L 171.562478 37.297091 
L 172.657241 37.297091 
L 172.657241 42.120046 
L 173.752003 42.120046 
L 173.752003 23.199224 
L 174.846766 23.199224 
L 174.846766 36.184102 
L 175.941528 36.184102 
L 175.941528 30.248158 
L 177.036291 30.248158 
L 177.036291 18.561768 
L 178.131053 18.561768 
L 178.131053 36.555098 
L 179.225816 36.555098 
L 179.225816 18.561768 
L 180.320579 18.561768 
L 180.320579 36.926095 
L 181.415341 36.926095 
L 181.415341 32.845133 
L 182.510104 32.845133 
L 182.510104 38.595579 
L 183.604866 38.595579 
L 183.604866 30.804653 
L 184.699629 30.804653 
L 184.699629 25.239705 
L 185.794391 25.239705 
L 185.794391 20.231252 
L 186.889154 20.231252 
L 186.889154 27.465684 
L 187.983916 27.465684 
L 187.983916 19.489259 
L 189.078679 19.489259 
L 189.078679 29.691663 
L 190.173441 29.691663 
L 190.173441 43.047537 
L 191.268204 43.047537 
L 191.268204 30.990151 
L 192.362966 30.990151 
L 192.362966 36.555098 
L 193.457729 36.555098 
L 193.457729 26.909189 
L 194.552491 26.909189 
L 194.552491 33.401628 
L 195.647254 33.401628 
L 195.647254 25.239705 
L 196.742016 25.239705 
L 196.742016 34.329119 
L 197.836779 34.329119 
L 197.836779 39.708569 
L 198.931542 39.708569 
L 198.931542 28.022179 
L 200.026304 28.022179 
L 200.026304 33.587126 
L 201.121067 33.587126 
L 201.121067 30.248158 
L 202.215829 30.248158 
L 202.215829 33.772625 
L 203.310592 33.772625 
L 203.310592 35.998604 
L 204.405354 35.998604 
L 204.405354 41.749049 
L 205.500117 41.749049 
L 205.500117 32.288639 
L 206.594879 32.288639 
L 206.594879 24.68321 
L 207.689642 24.68321 
L 207.689642 28.393175 
L 208.784404 28.393175 
L 208.784404 25.7962 
L 209.879167 25.7962 
L 209.879167 28.022179 
L 210.973929 28.022179 
L 210.973929 34.700116 
L 212.068692 34.700116 
L 212.068692 28.207677 
L 213.163454 28.207677 
L 213.163454 41.007056 
L 214.258217 41.007056 
L 214.258217 28.022179 
L 215.352979 28.022179 
L 215.352979 34.700116 
L 216.447742 34.700116 
L 216.447742 29.877161 
L 217.542505 29.877161 
L 217.542505 35.071112 
L 218.637267 35.071112 
L 218.637267 39.337572 
L 219.73203 39.337572 
L 219.73203 24.312214 
L 220.826792 24.312214 
L 220.826792 28.207677 
L 221.921555 28.207677 
L 221.921555 35.071112 
L 223.016317 35.071112 
L 223.016317 30.06266 
L 224.11108 30.06266 
L 224.11108 22.271733 
L 225.205842 22.271733 
L 225.205842 21.715238 
L 226.300605 21.715238 
L 226.300605 34.514618 
L 227.395367 34.514618 
L 227.395367 29.320667 
L 228.49013 29.320667 
L 228.49013 29.506165 
L 229.584892 29.506165 
L 229.584892 34.329119 
L 230.679655 34.329119 
L 230.679655 24.497712 
L 231.774417 24.497712 
L 231.774417 27.836681 
L 232.86918 27.836681 
L 232.86918 38.595579 
L 233.963942 38.595579 
L 233.963942 25.981698 
L 235.058705 25.981698 
L 235.058705 28.207677 
L 236.153468 28.207677 
L 236.153468 26.723691 
L 237.24823 26.723691 
L 237.24823 23.013726 
L 238.342993 23.013726 
L 238.342993 37.111593 
L 239.437755 37.111593 
L 239.437755 33.772625 
L 240.532518 33.772625 
L 240.532518 43.78953 
L 241.62728 43.78953 
L 241.62728 34.143621 
L 242.722043 34.143621 
L 242.722043 44.90252 
L 243.816805 44.90252 
L 243.816805 22.64273 
L 244.911568 22.64273 
L 244.911568 32.288639 
L 246.00633 32.288639 
L 246.00633 46.201008 
L 247.101093 46.201008 
L 247.101093 35.998604 
L 249.290618 35.998604 
L 249.290618 24.312214 
L 250.38538 24.312214 
L 250.38538 39.894067 
L 251.480143 39.894067 
L 251.480143 29.135168 
L 252.574906 29.135168 
L 252.574906 30.990151 
L 253.669668 30.990151 
L 253.669668 35.813105 
L 254.764431 35.813105 
L 254.764431 28.207677 
L 255.859193 28.207677 
L 255.859193 25.425203 
L 256.953956 25.425203 
L 256.953956 39.152074 
L 259.143481 39.152074 
L 259.143481 60.669871 
L 260.238243 60.669871 
L 260.238243 55.661418 
L 261.333006 55.661418 
L 261.333006 55.47592 
L 262.427768 55.47592 
L 262.427768 61.968359 
L 263.522531 61.968359 
L 263.522531 82.187668 
L 264.617293 82.187668 
L 264.617293 85.897634 
L 265.712056 85.897634 
L 265.712056 98.511515 
L 266.806818 98.511515 
L 266.806818 107.971926 
L 267.901581 107.971926 
L 267.901581 117.06134 
L 268.996343 117.06134 
L 268.996343 119.843814 
L 270.091106 119.843814 
L 270.091106 131.344705 
L 271.185869 131.344705 
L 271.185869 135.611165 
L 272.280631 135.611165 
L 272.280631 141.176113 
L 273.375394 141.176113 
L 273.375394 142.289102 
L 274.470156 142.289102 
L 274.470156 158.612948 
L 275.564919 158.612948 
L 275.564919 152.491506 
L 276.659681 152.491506 
L 276.659681 163.621401 
L 277.754444 163.621401 
L 277.754444 166.96037 
L 278.849206 166.96037 
L 278.849206 167.887861 
L 279.943969 167.887861 
L 279.943969 172.339819 
L 281.038731 172.339819 
L 281.038731 172.525317 
L 282.133494 172.525317 
L 282.133494 182.171226 
L 283.228256 182.171226 
L 283.228256 183.655213 
L 284.323019 183.655213 
L 284.323019 189.591157 
L 285.417781 189.591157 
L 285.417781 192.744627 
L 286.512544 192.744627 
L 286.512544 196.083595 
L 287.607306 196.083595 
L 287.607306 188.663665 
L 288.702069 188.663665 
L 288.702069 202.390536 
L 289.796832 202.390536 
L 289.796832 200.350055 
L 290.891594 200.350055 
L 290.891594 202.205038 
L 291.986357 202.205038 
L 291.986357 205.729505 
L 293.081119 205.729505 
L 293.081119 205.915003 
L 294.175882 205.915003 
L 294.175882 209.068473 
L 295.270644 209.068473 
L 295.270644 214.447922 
L 296.365407 214.447922 
L 296.365407 215.74641 
L 297.460169 215.74641 
L 297.460169 213.705929 
L 298.554932 213.705929 
L 298.554932 212.036445 
L 299.649694 212.036445 
L 299.649694 218.343386 
L 300.744457 218.343386 
L 300.744457 218.157887 
L 301.839219 218.157887 
L 301.839219 220.01287 
L 302.933982 220.01287 
L 302.933982 223.537337 
L 304.028744 223.537337 
L 304.028744 224.27933 
L 305.123507 224.27933 
L 305.123507 225.392319 
L 306.218269 225.392319 
L 306.218269 227.989295 
L 307.313032 227.989295 
L 307.313032 229.658779 
L 308.407795 229.658779 
L 308.407795 230.58627 
L 309.502557 230.58627 
L 309.502557 230.215274 
L 310.59732 230.215274 
L 310.59732 232.070256 
L 311.692082 232.070256 
L 311.692082 230.029776 
L 312.786845 230.029776 
L 312.786845 231.142765 
L 313.881607 231.142765 
L 313.881607 232.812249 
L 314.97637 232.812249 
L 314.97637 235.223727 
L 316.071132 235.223727 
L 316.071132 234.85273 
L 317.165895 234.85273 
L 317.165895 234.481734 
L 318.260657 234.481734 
L 318.260657 236.336716 
L 319.35542 236.336716 
L 319.35542 233.925239 
L 320.450182 233.925239 
L 320.450182 238.0062 
L 321.544945 238.0062 
L 321.544945 236.151218 
L 322.639707 236.151218 
L 322.639707 237.635204 
L 323.73447 237.635204 
L 323.73447 236.522214 
L 324.829233 236.522214 
L 324.829233 239.11919 
L 325.923995 239.11919 
L 325.923995 240.232179 
L 327.018758 240.232179 
L 327.018758 239.304688 
L 329.208283 239.304688 
L 329.208283 239.490186 
L 330.303045 239.490186 
L 330.303045 239.675685 
L 331.397808 239.675685 
L 331.397808 241.530667 
L 333.587333 241.530667 
L 333.587333 242.087162 
L 334.682095 242.087162 
L 334.682095 241.159671 
L 335.776858 241.159671 
L 335.776858 238.191699 
L 336.87162 238.191699 
L 336.87162 241.159671 
L 337.966383 241.159671 
L 337.966383 242.27266 
L 339.061145 242.27266 
L 339.061145 241.716165 
L 340.155908 241.716165 
L 340.155908 242.458159 
L 341.25067 242.458159 
L 341.25067 242.829155 
L 342.345433 242.829155 
L 342.345433 243.571148 
L 343.440196 243.571148 
L 343.440196 240.974172 
L 344.534958 240.974172 
L 344.534958 242.458159 
L 346.724483 242.458159 
L 346.724483 242.643657 
L 348.914008 242.643657 
L 348.914008 243.756646 
L 350.008771 243.756646 
L 350.008771 242.829155 
L 351.103533 242.829155 
L 351.103533 244.313141 
L 352.198296 244.313141 
L 352.198296 242.458159 
L 353.293058 242.458159 
L 353.293058 244.127643 
L 354.387821 244.127643 
L 354.387821 244.313141 
L 355.482583 244.313141 
L 355.482583 243.756646 
L 356.577346 243.756646 
L 356.577346 244.313141 
L 357.672108 244.313141 
L 357.672108 244.127643 
L 358.766871 244.127643 
L 358.766871 244.313141 
L 359.861633 244.313141 
L 359.861633 243.942145 
L 360.956396 243.942145 
L 360.956396 244.127643 
L 362.051159 244.127643 
L 362.051159 244.869636 
L 363.145921 244.869636 
L 363.145921 245.055134 
L 364.240684 245.055134 
L 364.240684 244.684138 
L 365.335446 244.684138 
L 365.335446 244.313141 
L 366.430209 244.313141 
L 366.430209 244.498639 
L 367.524971 244.498639 
L 367.524971 244.869636 
L 368.619734 244.869636 
L 368.619734 244.498639 
L 369.714496 244.498639 
L 369.714496 244.869636 
L 370.809259 244.869636 
L 370.809259 243.756646 
L 371.904021 243.756646 
L 371.904021 244.869636 
L 372.998784 244.869636 
L 372.998784 245.055134 
L 374.093546 245.055134 
L 374.093546 243.942145 
L 375.188309 243.942145 
L 375.188309 245.611629 
L 376.283071 245.611629 
L 376.283071 244.684138 
L 377.377834 244.684138 
L 377.377834 245.611629 
L 378.472596 245.611629 
L 378.472596 245.240632 
L 380.662122 245.240632 
L 380.662122 245.426131 
L 381.756884 245.426131 
L 381.756884 245.240632 
L 382.851647 245.240632 
L 382.851647 245.797127 
L 383.946409 245.797127 
L 383.946409 244.498639 
L 385.041172 244.498639 
L 385.041172 245.611629 
L 387.230697 245.611629 
L 387.230697 245.240632 
L 389.420222 245.240632 
L 389.420222 245.055134 
L 390.514984 245.055134 
L 390.514984 245.426131 
L 391.609747 245.426131 
L 391.609747 244.869636 
L 392.704509 244.869636 
L 392.704509 245.611629 
L 393.799272 245.611629 
L 393.799272 245.797127 
L 394.894034 245.797127 
L 394.894034 245.611629 
L 395.988797 245.611629 
L 395.988797 245.797127 
L 397.08356 245.797127 
L 397.08356 245.426131 
L 398.178322 245.426131 
L 398.178322 245.426131 
" clip-path="url(#p26e3f1fc28)" style="fill: none; stroke: #1f77b4; stroke-width: 1.5; stroke-linecap: square"/>
   </g>
   <g id="patch_3">
    <path d="M 53.328125 257.158895 
L 53.328125 7.2 
" style="fill: none; stroke: #000000; stroke-width: 0.8; stroke-linejoin: miter; stroke-linecap: square"/>
   </g>
   <g id="patch_4">
    <path d="M 414.59976 257.158895 
L 414.59976 7.2 
" style="fill: none; stroke: #000000; stroke-width: 0.8; stroke-linejoin: miter; stroke-linecap: square"/>
   </g>
   <g id="patch_5">
    <path d="M 53.328125 257.158895 
L 414.59976 257.158895 
" style="fill: none; stroke: #000000; stroke-width: 0.8; stroke-linejoin: miter; stroke-linecap: square"/>
   </g>
   <g id="patch_6">
    <path d="M 53.328125 7.2 
L 414.59976 7.2 
" style="fill: none; stroke: #000000; stroke-width: 0.8; stroke-linejoin: miter; stroke-linecap: square"/>
   </g>
  </g>
  <g id="axes_2">
   <g id="patch_7">
    <path d="M 503.927885 257.158895 
L 865.19952 257.158895 
L 865.19952 7.2 
L 503.927885 7.2 
z
" style="fill: #ffffff"/>
   </g>
   <g id="matplotlib.axis_3">
    <g id="xtick_7">
     <g id="line2d_15">
      <g>
       <use xlink:href="#m59f0649d5b" x="517.035891" y="257.158895" style="stroke: #000000; stroke-width: 0.8"/>
      </g>
     </g>
     <g id="text_16">
      <!-- 0.0 -->
      <g transform="translate(509.084328 271.757332) scale(0.1 -0.1)">
       <defs>
        <path id="DejaVuSans-2e" d="M 684 794 
L 1344 794 
L 1344 0 
L 684 0 
L 684 794 
z
" transform="scale(0.015625)"/>
       </defs>
       <use xlink:href="#DejaVuSans-30"/>
       <use xlink:href="#DejaVuSans-2e" transform="translate(63.623047 0)"/>
       <use xlink:href="#DejaVuSans-30" transform="translate(95.410156 0)"/>
      </g>
     </g>
    </g>
    <g id="xtick_8">
     <g id="line2d_16">
      <g>
       <use xlink:href="#m59f0649d5b" x="558.760091" y="257.158895" style="stroke: #000000; stroke-width: 0.8"/>
      </g>
     </g>
     <g id="text_17">
      <!-- 2.5 -->
      <g transform="translate(550.808529 271.757332) scale(0.1 -0.1)">
       <use xlink:href="#DejaVuSans-32"/>
       <use xlink:href="#DejaVuSans-2e" transform="translate(63.623047 0)"/>
       <use xlink:href="#DejaVuSans-35" transform="translate(95.410156 0)"/>
      </g>
     </g>
    </g>
    <g id="xtick_9">
     <g id="line2d_17">
      <g>
       <use xlink:href="#m59f0649d5b" x="600.484291" y="257.158895" style="stroke: #000000; stroke-width: 0.8"/>
      </g>
     </g>
     <g id="text_18">
      <!-- 5.0 -->
      <g transform="translate(592.532729 271.757332) scale(0.1 -0.1)">
       <use xlink:href="#DejaVuSans-35"/>
       <use xlink:href="#DejaVuSans-2e" transform="translate(63.623047 0)"/>
       <use xlink:href="#DejaVuSans-30" transform="translate(95.410156 0)"/>
      </g>
     </g>
    </g>
    <g id="xtick_10">
     <g id="line2d_18">
      <g>
       <use xlink:href="#m59f0649d5b" x="642.208492" y="257.158895" style="stroke: #000000; stroke-width: 0.8"/>
      </g>
     </g>
     <g id="text_19">
      <!-- 7.5 -->
      <g transform="translate(634.256929 271.757332) scale(0.1 -0.1)">
       <defs>
        <path id="DejaVuSans-37" d="M 525 4666 
L 3525 4666 
L 3525 4397 
L 1831 0 
L 1172 0 
L 2766 4134 
L 525 4134 
L 525 4666 
z
" transform="scale(0.015625)"/>
       </defs>
       <use xlink:href="#DejaVuSans-37"/>
       <use xlink:href="#DejaVuSans-2e" transform="translate(63.623047 0)"/>
       <use xlink:href="#DejaVuSans-35" transform="translate(95.410156 0)"/>
      </g>
     </g>
    </g>
    <g id="xtick_11">
     <g id="line2d_19">
      <g>
       <use xlink:href="#m59f0649d5b" x="683.932692" y="257.158895" style="stroke: #000000; stroke-width: 0.8"/>
      </g>
     </g>
     <g id="text_20">
      <!-- 10.0 -->
      <g transform="translate(672.799879 271.757332) scale(0.1 -0.1)">
       <use xlink:href="#DejaVuSans-31"/>
       <use xlink:href="#DejaVuSans-30" transform="translate(63.623047 0)"/>
       <use xlink:href="#DejaVuSans-2e" transform="translate(127.246094 0)"/>
       <use xlink:href="#DejaVuSans-30" transform="translate(159.033203 0)"/>
      </g>
     </g>
    </g>
    <g id="xtick_12">
     <g id="line2d_20">
      <g>
       <use xlink:href="#m59f0649d5b" x="725.656892" y="257.158895" style="stroke: #000000; stroke-width: 0.8"/>
      </g>
     </g>
     <g id="text_21">
      <!-- 12.5 -->
      <g transform="translate(714.524079 271.757332) scale(0.1 -0.1)">
       <use xlink:href="#DejaVuSans-31"/>
       <use xlink:href="#DejaVuSans-32" transform="translate(63.623047 0)"/>
       <use xlink:href="#DejaVuSans-2e" transform="translate(127.246094 0)"/>
       <use xlink:href="#DejaVuSans-35" transform="translate(159.033203 0)"/>
      </g>
     </g>
    </g>
    <g id="xtick_13">
     <g id="line2d_21">
      <g>
       <use xlink:href="#m59f0649d5b" x="767.381092" y="257.158895" style="stroke: #000000; stroke-width: 0.8"/>
      </g>
     </g>
     <g id="text_22">
      <!-- 15.0 -->
      <g transform="translate(756.24828 271.757332) scale(0.1 -0.1)">
       <use xlink:href="#DejaVuSans-31"/>
       <use xlink:href="#DejaVuSans-35" transform="translate(63.623047 0)"/>
       <use xlink:href="#DejaVuSans-2e" transform="translate(127.246094 0)"/>
       <use xlink:href="#DejaVuSans-30" transform="translate(159.033203 0)"/>
      </g>
     </g>
    </g>
    <g id="xtick_14">
     <g id="line2d_22">
      <g>
       <use xlink:href="#m59f0649d5b" x="809.105292" y="257.158895" style="stroke: #000000; stroke-width: 0.8"/>
      </g>
     </g>
     <g id="text_23">
      <!-- 17.5 -->
      <g transform="translate(797.97248 271.757332) scale(0.1 -0.1)">
       <use xlink:href="#DejaVuSans-31"/>
       <use xlink:href="#DejaVuSans-37" transform="translate(63.623047 0)"/>
       <use xlink:href="#DejaVuSans-2e" transform="translate(127.246094 0)"/>
       <use xlink:href="#DejaVuSans-35" transform="translate(159.033203 0)"/>
      </g>
     </g>
    </g>
    <g id="xtick_15">
     <g id="line2d_23">
      <g>
       <use xlink:href="#m59f0649d5b" x="850.829493" y="257.158895" style="stroke: #000000; stroke-width: 0.8"/>
      </g>
     </g>
     <g id="text_24">
      <!-- 20.0 -->
      <g transform="translate(839.69668 271.757332) scale(0.1 -0.1)">
       <use xlink:href="#DejaVuSans-32"/>
       <use xlink:href="#DejaVuSans-30" transform="translate(63.623047 0)"/>
       <use xlink:href="#DejaVuSans-2e" transform="translate(127.246094 0)"/>
       <use xlink:href="#DejaVuSans-30" transform="translate(159.033203 0)"/>
      </g>
     </g>
    </g>
    <g id="text_25">
     <!-- wavelength [Å] -->
     <g transform="translate(646.526202 287.119832) scale(0.1 -0.1)">
      <defs>
       <path id="DejaVuSans-77" d="M 269 3500 
L 844 3500 
L 1563 769 
L 2278 3500 
L 2956 3500 
L 3675 769 
L 4391 3500 
L 4966 3500 
L 4050 0 
L 3372 0 
L 2619 2869 
L 1863 0 
L 1184 0 
L 269 3500 
z
" transform="scale(0.015625)"/>
       <path id="DejaVuSans-61" d="M 2194 1759 
Q 1497 1759 1228 1600 
Q 959 1441 959 1056 
Q 959 750 1161 570 
Q 1363 391 1709 391 
Q 2188 391 2477 730 
Q 2766 1069 2766 1631 
L 2766 1759 
L 2194 1759 
z
M 3341 1997 
L 3341 0 
L 2766 0 
L 2766 531 
Q 2569 213 2275 61 
Q 1981 -91 1556 -91 
Q 1019 -91 701 211 
Q 384 513 384 1019 
Q 384 1609 779 1909 
Q 1175 2209 1959 2209 
L 2766 2209 
L 2766 2266 
Q 2766 2663 2505 2880 
Q 2244 3097 1772 3097 
Q 1472 3097 1187 3025 
Q 903 2953 641 2809 
L 641 3341 
Q 956 3463 1253 3523 
Q 1550 3584 1831 3584 
Q 2591 3584 2966 3190 
Q 3341 2797 3341 1997 
z
" transform="scale(0.015625)"/>
       <path id="DejaVuSans-76" d="M 191 3500 
L 800 3500 
L 1894 563 
L 2988 3500 
L 3597 3500 
L 2284 0 
L 1503 0 
L 191 3500 
z
" transform="scale(0.015625)"/>
       <path id="DejaVuSans-6c" d="M 603 4863 
L 1178 4863 
L 1178 0 
L 603 0 
L 603 4863 
z
" transform="scale(0.015625)"/>
       <path id="DejaVuSans-67" d="M 2906 1791 
Q 2906 2416 2648 2759 
Q 2391 3103 1925 3103 
Q 1463 3103 1205 2759 
Q 947 2416 947 1791 
Q 947 1169 1205 825 
Q 1463 481 1925 481 
Q 2391 481 2648 825 
Q 2906 1169 2906 1791 
z
M 3481 434 
Q 3481 -459 3084 -895 
Q 2688 -1331 1869 -1331 
Q 1566 -1331 1297 -1286 
Q 1028 -1241 775 -1147 
L 775 -588 
Q 1028 -725 1275 -790 
Q 1522 -856 1778 -856 
Q 2344 -856 2625 -561 
Q 2906 -266 2906 331 
L 2906 616 
Q 2728 306 2450 153 
Q 2172 0 1784 0 
Q 1141 0 747 490 
Q 353 981 353 1791 
Q 353 2603 747 3093 
Q 1141 3584 1784 3584 
Q 2172 3584 2450 3431 
Q 2728 3278 2906 2969 
L 2906 3500 
L 3481 3500 
L 3481 434 
z
" transform="scale(0.015625)"/>
       <path id="DejaVuSans-c5" d="M 2663 5081 
Q 2663 5278 2523 5417 
Q 2384 5556 2188 5556 
Q 1988 5556 1852 5420 
Q 1716 5284 1716 5081 
Q 1716 4884 1853 4746 
Q 1991 4609 2188 4609 
Q 2384 4609 2523 4746 
Q 2663 4884 2663 5081 
z
M 2188 4044 
L 1338 1722 
L 3041 1722 
L 2188 4044 
z
M 1716 4366 
Q 1525 4494 1428 4673 
Q 1331 4853 1331 5081 
Q 1331 5441 1579 5691 
Q 1828 5941 2188 5941 
Q 2544 5941 2795 5689 
Q 3047 5438 3047 5081 
Q 3047 4863 2948 4678 
Q 2850 4494 2663 4366 
L 4325 0 
L 3669 0 
L 3244 1197 
L 1141 1197 
L 716 0 
L 50 0 
L 1716 4366 
z
" transform="scale(0.015625)"/>
      </defs>
      <use xlink:href="#DejaVuSans-77"/>
      <use xlink:href="#DejaVuSans-61" transform="translate(81.787109 0)"/>
      <use xlink:href="#DejaVuSans-76" transform="translate(143.066406 0)"/>
      <use xlink:href="#DejaVuSans-65" transform="translate(202.246094 0)"/>
      <use xlink:href="#DejaVuSans-6c" transform="translate(263.769531 0)"/>
      <use xlink:href="#DejaVuSans-65" transform="translate(291.552734 0)"/>
      <use xlink:href="#DejaVuSans-6e" transform="translate(353.076172 0)"/>
      <use xlink:href="#DejaVuSans-67" transform="translate(416.455078 0)"/>
      <use xlink:href="#DejaVuSans-74" transform="translate(479.931641 0)"/>
      <use xlink:href="#DejaVuSans-68" transform="translate(519.140625 0)"/>
      <use xlink:href="#DejaVuSans-20" transform="translate(582.519531 0)"/>
      <use xlink:href="#DejaVuSans-5b" transform="translate(614.306641 0)"/>
      <use xlink:href="#DejaVuSans-c5" transform="translate(653.320312 0)"/>
      <use xlink:href="#DejaVuSans-5d" transform="translate(721.728516 0)"/>
     </g>
    </g>
   </g>
   <g id="matplotlib.axis_4">
    <g id="ytick_8">
     <g id="line2d_24">
      <g>
       <use xlink:href="#m4cac8e7b4e" x="503.927885" y="245.797127" style="stroke: #000000; stroke-width: 0.8"/>
      </g>
     </g>
     <g id="text_26">
      <!-- 0 -->
      <g transform="translate(490.565385 249.596346) scale(0.1 -0.1)">
       <use xlink:href="#DejaVuSans-30"/>
      </g>
     </g>
    </g>
    <g id="ytick_9">
     <g id="line2d_25">
      <g>
       <use xlink:href="#m4cac8e7b4e" x="503.927885" y="192.717155" style="stroke: #000000; stroke-width: 0.8"/>
      </g>
     </g>
     <g id="text_27">
      <!-- 1000 -->
      <g transform="translate(471.477885 196.516374) scale(0.1 -0.1)">
       <use xlink:href="#DejaVuSans-31"/>
       <use xlink:href="#DejaVuSans-30" transform="translate(63.623047 0)"/>
       <use xlink:href="#DejaVuSans-30" transform="translate(127.246094 0)"/>
       <use xlink:href="#DejaVuSans-30" transform="translate(190.869141 0)"/>
      </g>
     </g>
    </g>
    <g id="ytick_10">
     <g id="line2d_26">
      <g>
       <use xlink:href="#m4cac8e7b4e" x="503.927885" y="139.637184" style="stroke: #000000; stroke-width: 0.8"/>
      </g>
     </g>
     <g id="text_28">
      <!-- 2000 -->
      <g transform="translate(471.477885 143.436402) scale(0.1 -0.1)">
       <use xlink:href="#DejaVuSans-32"/>
       <use xlink:href="#DejaVuSans-30" transform="translate(63.623047 0)"/>
       <use xlink:href="#DejaVuSans-30" transform="translate(127.246094 0)"/>
       <use xlink:href="#DejaVuSans-30" transform="translate(190.869141 0)"/>
      </g>
     </g>
    </g>
    <g id="ytick_11">
     <g id="line2d_27">
      <g>
       <use xlink:href="#m4cac8e7b4e" x="503.927885" y="86.557212" style="stroke: #000000; stroke-width: 0.8"/>
      </g>
     </g>
     <g id="text_29">
      <!-- 3000 -->
      <g transform="translate(471.477885 90.356431) scale(0.1 -0.1)">
       <use xlink:href="#DejaVuSans-33"/>
       <use xlink:href="#DejaVuSans-30" transform="translate(63.623047 0)"/>
       <use xlink:href="#DejaVuSans-30" transform="translate(127.246094 0)"/>
       <use xlink:href="#DejaVuSans-30" transform="translate(190.869141 0)"/>
      </g>
     </g>
    </g>
    <g id="ytick_12">
     <g id="line2d_28">
      <g>
       <use xlink:href="#m4cac8e7b4e" x="503.927885" y="33.47724" style="stroke: #000000; stroke-width: 0.8"/>
      </g>
     </g>
     <g id="text_30">
      <!-- 4000 -->
      <g transform="translate(471.477885 37.276459) scale(0.1 -0.1)">
       <use xlink:href="#DejaVuSans-34"/>
       <use xlink:href="#DejaVuSans-30" transform="translate(63.623047 0)"/>
       <use xlink:href="#DejaVuSans-30" transform="translate(127.246094 0)"/>
       <use xlink:href="#DejaVuSans-30" transform="translate(190.869141 0)"/>
      </g>
     </g>
    </g>
    <g id="text_31">
     <!-- [counts] -->
     <g transform="translate(465.398197 152.791947) rotate(-90) scale(0.1 -0.1)">
      <use xlink:href="#DejaVuSans-5b"/>
      <use xlink:href="#DejaVuSans-63" transform="translate(39.013672 0)"/>
      <use xlink:href="#DejaVuSans-6f" transform="translate(93.994141 0)"/>
      <use xlink:href="#DejaVuSans-75" transform="translate(155.175781 0)"/>
      <use xlink:href="#DejaVuSans-6e" transform="translate(218.554688 0)"/>
      <use xlink:href="#DejaVuSans-74" transform="translate(281.933594 0)"/>
      <use xlink:href="#DejaVuSans-73" transform="translate(321.142578 0)"/>
      <use xlink:href="#DejaVuSans-5d" transform="translate(373.242188 0)"/>
     </g>
    </g>
   </g>
   <g id="line2d_29">
    <path d="M 520.349323 158.692893 
L 521.444085 158.692893 
L 521.444085 145.9537 
L 522.538848 145.9537 
L 522.538848 141.388823 
L 523.633611 141.388823 
L 523.633611 139.531024 
L 524.728373 139.531024 
L 524.728373 144.148981 
L 525.823136 144.148981 
L 525.823136 144.520541 
L 526.917898 144.520541 
L 526.917898 141.707302 
L 528.012661 141.707302 
L 528.012661 123.288552 
L 529.107423 123.288552 
L 529.107423 104.126682 
L 530.202186 104.126682 
L 530.202186 79.019856 
L 531.296948 79.019856 
L 531.296948 63.042784 
L 532.391711 63.042784 
L 532.391711 37.405158 
L 533.486473 37.405158 
L 533.486473 30.398602 
L 534.581236 30.398602 
L 534.581236 28.965442 
L 535.675998 28.965442 
L 535.675998 23.922845 
L 536.770761 23.922845 
L 536.770761 18.561768 
L 537.865523 18.561768 
L 537.865523 30.239362 
L 538.960286 30.239362 
L 538.960286 38.625997 
L 540.055048 38.625997 
L 540.055048 45.738713 
L 541.149811 45.738713 
L 541.149811 59.486426 
L 542.244574 59.486426 
L 542.244574 68.722341 
L 543.339336 68.722341 
L 543.339336 73.181059 
L 544.434099 73.181059 
L 544.434099 82.098494 
L 545.528861 82.098494 
L 545.528861 88.415011 
L 546.623624 88.415011 
L 546.623624 91.387489 
L 547.718386 91.387489 
L 547.718386 91.069009 
L 548.813149 91.069009 
L 548.813149 92.767568 
L 549.907911 92.767568 
L 549.907911 94.200728 
L 551.002674 94.200728 
L 551.002674 95.527727 
L 552.097436 95.527727 
L 552.097436 85.442532 
L 553.192199 85.442532 
L 553.192199 78.435976 
L 554.286961 78.435976 
L 554.286961 69.943181 
L 555.381724 69.943181 
L 555.381724 59.486426 
L 556.476486 59.486426 
L 556.476486 49.825871 
L 557.571249 49.825871 
L 557.571249 41.757716 
L 558.666012 41.757716 
L 558.666012 29.973962 
L 559.760774 29.973962 
L 559.760774 35.122719 
L 560.855537 35.122719 
L 560.855537 49.772791 
L 561.950299 49.772791 
L 561.950299 51.259031 
L 563.045062 51.259031 
L 563.045062 53.329149 
L 564.139824 53.329149 
L 564.139824 72.862579 
L 565.234587 72.862579 
L 565.234587 74.454978 
L 566.329349 74.454978 
L 566.329349 80.877655 
L 567.424112 80.877655 
L 567.424112 93.988408 
L 568.518874 93.988408 
L 568.518874 99.827205 
L 569.613637 99.827205 
L 569.613637 109.48776 
L 570.708399 109.48776 
L 570.708399 119.095234 
L 571.803162 119.095234 
L 571.803162 122.545433 
L 572.897924 122.545433 
L 572.897924 129.658149 
L 573.992687 129.658149 
L 573.992687 135.815426 
L 575.087449 135.815426 
L 575.087449 141.335743 
L 576.182212 141.335743 
L 576.182212 147.386859 
L 577.276975 147.386859 
L 577.276975 156.622774 
L 578.371737 156.622774 
L 578.371737 155.189615 
L 579.4665 155.189615 
L 579.4665 159.117533 
L 580.561262 159.117533 
L 580.561262 165.38097 
L 581.656025 165.38097 
L 581.656025 168.937328 
L 582.750787 168.937328 
L 582.750787 168.034968 
L 583.84555 168.034968 
L 583.84555 178.067083 
L 584.940312 178.067083 
L 584.940312 177.270884 
L 586.035075 177.270884 
L 586.035075 179.341002 
L 587.129837 179.341002 
L 587.129837 184.914399 
L 588.2246 184.914399 
L 588.2246 191.018596 
L 589.319362 191.018596 
L 589.319362 190.275477 
L 590.414125 190.275477 
L 590.414125 192.292516 
L 591.508887 192.292516 
L 591.508887 195.795794 
L 592.60365 195.795794 
L 592.60365 198.609032 
L 593.698412 198.609032 
L 593.698412 198.449792 
L 594.793175 198.449792 
L 594.793175 200.891471 
L 595.887938 200.891471 
L 595.887938 203.22699 
L 596.9827 203.22699 
L 596.9827 207.420307 
L 598.077463 207.420307 
L 598.077463 207.154908 
L 599.172225 207.154908 
L 599.172225 208.481907 
L 600.266988 208.481907 
L 600.266988 210.233546 
L 601.36175 210.233546 
L 601.36175 212.303665 
L 602.456513 212.303665 
L 602.456513 214.108384 
L 603.551275 214.108384 
L 603.551275 214.426864 
L 604.646038 214.426864 
L 604.646038 217.080862 
L 605.7408 217.080862 
L 605.7408 219.150981 
L 606.835563 219.150981 
L 606.835563 219.310221 
L 607.930325 219.310221 
L 607.930325 221.06186 
L 609.025088 221.06186 
L 609.025088 218.938661 
L 610.11985 218.938661 
L 610.11985 222.601179 
L 611.214613 222.601179 
L 611.214613 223.131979 
L 612.309375 223.131979 
L 612.309375 223.768939 
L 613.404138 223.768939 
L 613.404138 223.981259 
L 614.498901 223.981259 
L 614.498901 225.626738 
L 615.593663 225.626738 
L 615.593663 227.696857 
L 616.688426 227.696857 
L 616.688426 228.174576 
L 617.783188 228.174576 
L 617.783188 227.537617 
L 619.972713 227.643777 
L 619.972713 229.023856 
L 621.067476 229.023856 
L 621.067476 229.660816 
L 622.162238 229.660816 
L 622.162238 229.395416 
L 623.257001 229.395416 
L 623.257001 231.306295 
L 625.446526 231.200135 
L 625.446526 232.739454 
L 626.541288 232.739454 
L 626.541288 231.412455 
L 627.636051 231.412455 
L 627.636051 234.331853 
L 628.730813 234.331853 
L 628.730813 233.376414 
L 629.825576 233.376414 
L 629.825576 234.066453 
L 630.920339 234.066453 
L 630.920339 235.128053 
L 632.015101 235.128053 
L 632.015101 235.499613 
L 633.109864 235.499613 
L 633.109864 234.915733 
L 634.204626 234.915733 
L 634.204626 236.083492 
L 636.394151 235.977332 
L 636.394151 236.932772 
L 639.678439 236.932772 
L 639.678439 237.092012 
L 640.773201 237.092012 
L 640.773201 237.675891 
L 641.867964 237.675891 
L 641.867964 237.516651 
L 644.057489 237.410492 
L 644.057489 238.843651 
L 645.152251 238.843651 
L 645.152251 238.472091 
L 647.341776 238.472091 
L 647.341776 239.37445 
L 648.436539 239.37445 
L 648.436539 238.047451 
L 649.531302 238.047451 
L 649.531302 240.38297 
L 650.626064 240.38297 
L 650.626064 238.949811 
L 651.720827 238.949811 
L 651.720827 240.64837 
L 653.910352 240.59529 
L 653.910352 239.74601 
L 655.005114 239.74601 
L 655.005114 240.22373 
L 656.099877 240.22373 
L 656.099877 240.43605 
L 657.194639 240.43605 
L 657.194639 240.91377 
L 658.289402 240.91377 
L 658.289402 240.54221 
L 659.384164 240.54221 
L 659.384164 241.232249 
L 660.478927 241.232249 
L 660.478927 240.70145 
L 661.573689 240.70145 
L 661.573689 241.816129 
L 662.668452 241.816129 
L 662.668452 240.70145 
L 663.763214 240.70145 
L 663.763214 242.187689 
L 664.857977 242.187689 
L 664.857977 241.391489 
L 665.952739 241.391489 
L 665.952739 241.656889 
L 668.142265 241.550729 
L 668.142265 241.232249 
L 669.237027 241.232249 
L 669.237027 242.187689 
L 670.33179 242.187689 
L 670.33179 242.612329 
L 671.426552 242.612329 
L 671.426552 243.090048 
L 672.521315 243.090048 
L 672.521315 242.718489 
L 673.616077 242.718489 
L 673.616077 242.983889 
L 674.71084 242.983889 
L 674.71084 242.134609 
L 675.805602 242.134609 
L 675.805602 242.877729 
L 679.08989 242.824649 
L 679.08989 243.514688 
L 680.184652 243.514688 
L 680.184652 242.824649 
L 681.279415 242.824649 
L 681.279415 243.514688 
L 682.374177 243.514688 
L 682.374177 244.045488 
L 683.46894 244.045488 
L 683.46894 243.727008 
L 684.563702 243.727008 
L 684.563702 242.771569 
L 685.658465 242.771569 
L 685.658465 243.673928 
L 686.753228 243.673928 
L 686.753228 244.045488 
L 687.84799 244.045488 
L 687.84799 243.567768 
L 688.942753 243.567768 
L 688.942753 242.983889 
L 690.037515 242.983889 
L 690.037515 243.461608 
L 691.132278 243.461608 
L 691.132278 243.886248 
L 692.22704 243.886248 
L 692.22704 243.196208 
L 693.321803 243.196208 
L 693.321803 243.567768 
L 695.511328 243.567768 
L 695.511328 244.310888 
L 696.60609 244.310888 
L 696.60609 243.780088 
L 697.700853 243.780088 
L 697.700853 244.257808 
L 699.890378 244.310888 
L 699.890378 244.417048 
L 700.98514 244.417048 
L 700.98514 243.939328 
L 702.079903 243.939328 
L 702.079903 244.576288 
L 703.174666 244.576288 
L 703.174666 243.992408 
L 705.364191 243.939328 
L 705.364191 244.257808 
L 706.458953 244.257808 
L 706.458953 244.470128 
L 709.743241 244.417048 
L 709.743241 244.735528 
L 710.838003 244.735528 
L 710.838003 244.310888 
L 713.027528 244.363968 
L 713.027528 244.735528 
L 714.122291 244.735528 
L 714.122291 244.310888 
L 715.217053 244.310888 
L 715.217053 244.788608 
L 716.311816 244.788608 
L 716.311816 244.417048 
L 718.501341 244.363968 
L 718.501341 244.947847 
L 719.596103 244.947847 
L 719.596103 245.107087 
L 720.690866 245.107087 
L 720.690866 244.735528 
L 721.785629 244.735528 
L 721.785629 245.213247 
L 722.880391 245.213247 
L 722.880391 244.682448 
L 723.975154 244.682448 
L 723.975154 244.947847 
L 726.164679 244.894768 
L 726.164679 244.682448 
L 727.259441 244.682448 
L 727.259441 244.841688 
L 728.354204 244.841688 
L 728.354204 244.523208 
L 730.543729 244.576288 
L 730.543729 245.000927 
L 731.638491 245.000927 
L 731.638491 244.841688 
L 736.017541 244.735528 
L 736.017541 245.213247 
L 738.207066 245.213247 
L 738.207066 245.054007 
L 739.301829 245.054007 
L 739.301829 244.841688 
L 740.396592 244.841688 
L 740.396592 245.054007 
L 742.586117 245.160167 
L 742.586117 245.478647 
L 743.680879 245.478647 
L 743.680879 244.947847 
L 744.775642 244.947847 
L 744.775642 245.425567 
L 745.870404 245.425567 
L 745.870404 244.735528 
L 746.965167 244.735528 
L 746.965167 245.372487 
L 748.059929 245.372487 
L 748.059929 245.054007 
L 749.154692 245.054007 
L 749.154692 245.319407 
L 754.628504 245.372487 
L 754.628504 245.584807 
L 756.818029 245.478647 
L 756.818029 245.266327 
L 757.912792 245.266327 
L 757.912792 245.531727 
L 759.007555 245.531727 
L 759.007555 245.319407 
L 762.291842 245.213247 
L 762.291842 244.841688 
L 763.386605 244.841688 
L 763.386605 245.266327 
L 766.670892 245.266327 
L 766.670892 245.531727 
L 767.765655 245.531727 
L 767.765655 245.107087 
L 768.860417 245.107087 
L 768.860417 245.478647 
L 769.95518 245.478647 
L 769.95518 245.266327 
L 771.049942 245.266327 
L 771.049942 245.637887 
L 772.144705 245.637887 
L 772.144705 245.107087 
L 773.239467 245.107087 
L 773.239467 245.425567 
L 780.902805 245.319407 
L 780.902805 245.637887 
L 787.47138 245.637887 
L 787.47138 245.425567 
L 788.566143 245.425567 
L 788.566143 245.637887 
L 790.755668 245.690967 
L 790.755668 245.425567 
L 791.85043 245.425567 
L 791.85043 245.266327 
L 792.945193 245.266327 
L 792.945193 245.478647 
L 807.177106 245.531727 
L 807.177106 245.690967 
L 811.556156 245.584807 
L 811.556156 245.531727 
L 812.650919 245.531727 
L 812.650919 245.690967 
L 813.745681 245.690967 
L 813.745681 245.425567 
L 814.840444 245.425567 
L 814.840444 245.637887 
L 825.788069 245.744047 
L 825.788069 245.425567 
L 827.977594 245.531727 
L 827.977594 245.744047 
L 830.167119 245.744047 
L 830.167119 245.584807 
L 833.451407 245.584807 
L 833.451407 245.744047 
L 838.925219 245.637887 
L 838.925219 245.584807 
L 841.114744 245.690967 
L 841.114744 245.797127 
L 842.209507 245.797127 
L 842.209507 245.637887 
L 848.778082 245.744047 
L 848.778082 245.744047 
" clip-path="url(#p93263b7dfb)" style="fill: none; stroke: #1f77b4; stroke-width: 1.5; stroke-linecap: square"/>
   </g>
   <g id="patch_8">
    <path d="M 503.927885 257.158895 
L 503.927885 7.2 
" style="fill: none; stroke: #000000; stroke-width: 0.8; stroke-linejoin: miter; stroke-linecap: square"/>
   </g>
   <g id="patch_9">
    <path d="M 865.19952 257.158895 
L 865.19952 7.2 
" style="fill: none; stroke: #000000; stroke-width: 0.8; stroke-linejoin: miter; stroke-linecap: square"/>
   </g>
   <g id="patch_10">
    <path d="M 503.927885 257.158895 
L 865.19952 257.158895 
" style="fill: none; stroke: #000000; stroke-width: 0.8; stroke-linejoin: miter; stroke-linecap: square"/>
   </g>
   <g id="patch_11">
    <path d="M 503.927885 7.2 
L 865.19952 7.2 
" style="fill: none; stroke: #000000; stroke-width: 0.8; stroke-linejoin: miter; stroke-linecap: square"/>
   </g>
  </g>
 </g>
 <defs>
  <clipPath id="p26e3f1fc28">
   <rect x="53.328125" y="7.2" width="361.271635" height="249.958895"/>
  </clipPath>
  <clipPath id="p93263b7dfb">
   <rect x="503.927885" y="7.2" width="361.271635" height="249.958895"/>
  </clipPath>
 </defs>
</svg>
