<?xml version="1.0" encoding="utf-8" standalone="no"?>
<!DOCTYPE svg PUBLIC "-//W3C//DTD SVG 1.1//EN"
  "http://www.w3.org/Graphics/SVG/1.1/DTD/svg11.dtd">
<svg xmlns:xlink="http://www.w3.org/1999/xlink" width="872.39952pt" height="296.39952pt" viewBox="0 0 872.39952 296.39952" xmlns="http://www.w3.org/2000/svg" version="1.1">
 <metadata>
  <rdf:RDF xmlns:dc="http://purl.org/dc/elements/1.1/" xmlns:cc="http://creativecommons.org/ns#" xmlns:rdf="http://www.w3.org/1999/02/22-rdf-syntax-ns#">
   <cc:Work>
    <dc:type rdf:resource="http://purl.org/dc/dcmitype/StillImage"/>
    <dc:date>2025-02-27T10:08:44.644127</dc:date>
    <dc:format>image/svg+xml</dc:format>
    <dc:creator>
     <cc:Agent>
      <dc:title>Matplotlib v3.10.0, https://matplotlib.org/</dc:title>
     </cc:Agent>
    </dc:creator>
   </cc:Work>
  </rdf:RDF>
 </metadata>
 <defs>
  <style type="text/css">*{stroke-linejoin: round; stroke-linecap: butt}</style>
 </defs>
 <g id="figure_1">
  <g id="patch_1">
   <path d="M 0 296.39952 
L 872.39952 296.39952 
L 872.39952 0 
L 0 0 
z
" style="fill: #ffffff"/>
  </g>
  <g id="axes_1">
   <g id="patch_2">
    <path d="M 46.965625 257.158895 
L 431.87976 257.158895 
L 431.87976 22.318125 
L 46.965625 22.318125 
z
" style="fill: #ffffff"/>
   </g>
   <g id="matplotlib.axis_1">
    <g id="xtick_1">
     <g id="line2d_1">
      <defs>
       <path id="m853db7559a" d="M 0 0 
L 0 3.5 
" style="stroke: #000000; stroke-width: 0.8"/>
      </defs>
      <g>
       <use xlink:href="#m853db7559a" x="82.878666" y="257.158895" style="stroke: #000000; stroke-width: 0.8"/>
      </g>
     </g>
     <g id="text_1">
      <!-- 1.0 -->
      <g transform="translate(74.927104 271.757332) scale(0.1 -0.1)">
       <defs>
        <path id="DejaVuSans-31" d="M 794 531 
L 1825 531 
L 1825 4091 
L 703 3866 
L 703 4441 
L 1819 4666 
L 2450 4666 
L 2450 531 
L 3481 531 
L 3481 0 
L 794 0 
L 794 531 
z
" transform="scale(0.015625)"/>
        <path id="DejaVuSans-2e" d="M 684 794 
L 1344 794 
L 1344 0 
L 684 0 
L 684 794 
z
" transform="scale(0.015625)"/>
        <path id="DejaVuSans-30" d="M 2034 4250 
Q 1547 4250 1301 3770 
Q 1056 3291 1056 2328 
Q 1056 1369 1301 889 
Q 1547 409 2034 409 
Q 2525 409 2770 889 
Q 3016 1369 3016 2328 
Q 3016 3291 2770 3770 
Q 2525 4250 2034 4250 
z
M 2034 4750 
Q 2819 4750 3233 4129 
Q 3647 3509 3647 2328 
Q 3647 1150 3233 529 
Q 2819 -91 2034 -91 
Q 1250 -91 836 529 
Q 422 1150 422 2328 
Q 422 3509 836 4129 
Q 1250 4750 2034 4750 
z
" transform="scale(0.015625)"/>
       </defs>
       <use xlink:href="#DejaVuSans-31"/>
       <use xlink:href="#DejaVuSans-2e" transform="translate(63.623047 0)"/>
       <use xlink:href="#DejaVuSans-30" transform="translate(95.410156 0)"/>
      </g>
     </g>
    </g>
    <g id="xtick_2">
     <g id="line2d_2">
      <g>
       <use xlink:href="#m853db7559a" x="128.921027" y="257.158895" style="stroke: #000000; stroke-width: 0.8"/>
      </g>
     </g>
     <g id="text_2">
      <!-- 1.5 -->
      <g transform="translate(120.969464 271.757332) scale(0.1 -0.1)">
       <defs>
        <path id="DejaVuSans-35" d="M 691 4666 
L 3169 4666 
L 3169 4134 
L 1269 4134 
L 1269 2991 
Q 1406 3038 1543 3061 
Q 1681 3084 1819 3084 
Q 2600 3084 3056 2656 
Q 3513 2228 3513 1497 
Q 3513 744 3044 326 
Q 2575 -91 1722 -91 
Q 1428 -91 1123 -41 
Q 819 9 494 109 
L 494 744 
Q 775 591 1075 516 
Q 1375 441 1709 441 
Q 2250 441 2565 725 
Q 2881 1009 2881 1497 
Q 2881 1984 2565 2268 
Q 2250 2553 1709 2553 
Q 1456 2553 1204 2497 
Q 953 2441 691 2322 
L 691 4666 
z
" transform="scale(0.015625)"/>
       </defs>
       <use xlink:href="#DejaVuSans-31"/>
       <use xlink:href="#DejaVuSans-2e" transform="translate(63.623047 0)"/>
       <use xlink:href="#DejaVuSans-35" transform="translate(95.410156 0)"/>
      </g>
     </g>
    </g>
    <g id="xtick_3">
     <g id="line2d_3">
      <g>
       <use xlink:href="#m853db7559a" x="174.963388" y="257.158895" style="stroke: #000000; stroke-width: 0.8"/>
      </g>
     </g>
     <g id="text_3">
      <!-- 2.0 -->
      <g transform="translate(167.011825 271.757332) scale(0.1 -0.1)">
       <defs>
        <path id="DejaVuSans-32" d="M 1228 531 
L 3431 531 
L 3431 0 
L 469 0 
L 469 531 
Q 828 903 1448 1529 
Q 2069 2156 2228 2338 
Q 2531 2678 2651 2914 
Q 2772 3150 2772 3378 
Q 2772 3750 2511 3984 
Q 2250 4219 1831 4219 
Q 1534 4219 1204 4116 
Q 875 4013 500 3803 
L 500 4441 
Q 881 4594 1212 4672 
Q 1544 4750 1819 4750 
Q 2544 4750 2975 4387 
Q 3406 4025 3406 3419 
Q 3406 3131 3298 2873 
Q 3191 2616 2906 2266 
Q 2828 2175 2409 1742 
Q 1991 1309 1228 531 
z
" transform="scale(0.015625)"/>
       </defs>
       <use xlink:href="#DejaVuSans-32"/>
       <use xlink:href="#DejaVuSans-2e" transform="translate(63.623047 0)"/>
       <use xlink:href="#DejaVuSans-30" transform="translate(95.410156 0)"/>
      </g>
     </g>
    </g>
    <g id="xtick_4">
     <g id="line2d_4">
      <g>
       <use xlink:href="#m853db7559a" x="221.005748" y="257.158895" style="stroke: #000000; stroke-width: 0.8"/>
      </g>
     </g>
     <g id="text_4">
      <!-- 2.5 -->
      <g transform="translate(213.054186 271.757332) scale(0.1 -0.1)">
       <use xlink:href="#DejaVuSans-32"/>
       <use xlink:href="#DejaVuSans-2e" transform="translate(63.623047 0)"/>
       <use xlink:href="#DejaVuSans-35" transform="translate(95.410156 0)"/>
      </g>
     </g>
    </g>
    <g id="xtick_5">
     <g id="line2d_5">
      <g>
       <use xlink:href="#m853db7559a" x="267.048109" y="257.158895" style="stroke: #000000; stroke-width: 0.8"/>
      </g>
     </g>
     <g id="text_5">
      <!-- 3.0 -->
      <g transform="translate(259.096546 271.757332) scale(0.1 -0.1)">
       <defs>
        <path id="DejaVuSans-33" d="M 2597 2516 
Q 3050 2419 3304 2112 
Q 3559 1806 3559 1356 
Q 3559 666 3084 287 
Q 2609 -91 1734 -91 
Q 1441 -91 1130 -33 
Q 819 25 488 141 
L 488 750 
Q 750 597 1062 519 
Q 1375 441 1716 441 
Q 2309 441 2620 675 
Q 2931 909 2931 1356 
Q 2931 1769 2642 2001 
Q 2353 2234 1838 2234 
L 1294 2234 
L 1294 2753 
L 1863 2753 
Q 2328 2753 2575 2939 
Q 2822 3125 2822 3475 
Q 2822 3834 2567 4026 
Q 2313 4219 1838 4219 
Q 1578 4219 1281 4162 
Q 984 4106 628 3988 
L 628 4550 
Q 988 4650 1302 4700 
Q 1616 4750 1894 4750 
Q 2613 4750 3031 4423 
Q 3450 4097 3450 3541 
Q 3450 3153 3228 2886 
Q 3006 2619 2597 2516 
z
" transform="scale(0.015625)"/>
       </defs>
       <use xlink:href="#DejaVuSans-33"/>
       <use xlink:href="#DejaVuSans-2e" transform="translate(63.623047 0)"/>
       <use xlink:href="#DejaVuSans-30" transform="translate(95.410156 0)"/>
      </g>
     </g>
    </g>
    <g id="xtick_6">
     <g id="line2d_6">
      <g>
       <use xlink:href="#m853db7559a" x="313.09047" y="257.158895" style="stroke: #000000; stroke-width: 0.8"/>
      </g>
     </g>
     <g id="text_6">
      <!-- 3.5 -->
      <g transform="translate(305.138907 271.757332) scale(0.1 -0.1)">
       <use xlink:href="#DejaVuSans-33"/>
       <use xlink:href="#DejaVuSans-2e" transform="translate(63.623047 0)"/>
       <use xlink:href="#DejaVuSans-35" transform="translate(95.410156 0)"/>
      </g>
     </g>
    </g>
    <g id="xtick_7">
     <g id="line2d_7">
      <g>
       <use xlink:href="#m853db7559a" x="359.13283" y="257.158895" style="stroke: #000000; stroke-width: 0.8"/>
      </g>
     </g>
     <g id="text_7">
      <!-- 4.0 -->
      <g transform="translate(351.181268 271.757332) scale(0.1 -0.1)">
       <defs>
        <path id="DejaVuSans-34" d="M 2419 4116 
L 825 1625 
L 2419 1625 
L 2419 4116 
z
M 2253 4666 
L 3047 4666 
L 3047 1625 
L 3713 1625 
L 3713 1100 
L 3047 1100 
L 3047 0 
L 2419 0 
L 2419 1100 
L 313 1100 
L 313 1709 
L 2253 4666 
z
" transform="scale(0.015625)"/>
       </defs>
       <use xlink:href="#DejaVuSans-34"/>
       <use xlink:href="#DejaVuSans-2e" transform="translate(63.623047 0)"/>
       <use xlink:href="#DejaVuSans-30" transform="translate(95.410156 0)"/>
      </g>
     </g>
    </g>
    <g id="xtick_8">
     <g id="line2d_8">
      <g>
       <use xlink:href="#m853db7559a" x="405.175191" y="257.158895" style="stroke: #000000; stroke-width: 0.8"/>
      </g>
     </g>
     <g id="text_8">
      <!-- 4.5 -->
      <g transform="translate(397.223628 271.757332) scale(0.1 -0.1)">
       <use xlink:href="#DejaVuSans-34"/>
       <use xlink:href="#DejaVuSans-2e" transform="translate(63.623047 0)"/>
       <use xlink:href="#DejaVuSans-35" transform="translate(95.410156 0)"/>
      </g>
     </g>
    </g>
    <g id="text_9">
     <!-- wavelength [Å] -->
     <g transform="translate(201.385193 287.119832) scale(0.1 -0.1)">
      <defs>
       <path id="DejaVuSans-77" d="M 269 3500 
L 844 3500 
L 1563 769 
L 2278 3500 
L 2956 3500 
L 3675 769 
L 4391 3500 
L 4966 3500 
L 4050 0 
L 3372 0 
L 2619 2869 
L 1863 0 
L 1184 0 
L 269 3500 
z
" transform="scale(0.015625)"/>
       <path id="DejaVuSans-61" d="M 2194 1759 
Q 1497 1759 1228 1600 
Q 959 1441 959 1056 
Q 959 750 1161 570 
Q 1363 391 1709 391 
Q 2188 391 2477 730 
Q 2766 1069 2766 1631 
L 2766 1759 
L 2194 1759 
z
M 3341 1997 
L 3341 0 
L 2766 0 
L 2766 531 
Q 2569 213 2275 61 
Q 1981 -91 1556 -91 
Q 1019 -91 701 211 
Q 384 513 384 1019 
Q 384 1609 779 1909 
Q 1175 2209 1959 2209 
L 2766 2209 
L 2766 2266 
Q 2766 2663 2505 2880 
Q 2244 3097 1772 3097 
Q 1472 3097 1187 3025 
Q 903 2953 641 2809 
L 641 3341 
Q 956 3463 1253 3523 
Q 1550 3584 1831 3584 
Q 2591 3584 2966 3190 
Q 3341 2797 3341 1997 
z
" transform="scale(0.015625)"/>
       <path id="DejaVuSans-76" d="M 191 3500 
L 800 3500 
L 1894 563 
L 2988 3500 
L 3597 3500 
L 2284 0 
L 1503 0 
L 191 3500 
z
" transform="scale(0.015625)"/>
       <path id="DejaVuSans-65" d="M 3597 1894 
L 3597 1613 
L 953 1613 
Q 991 1019 1311 708 
Q 1631 397 2203 397 
Q 2534 397 2845 478 
Q 3156 559 3463 722 
L 3463 178 
Q 3153 47 2828 -22 
Q 2503 -91 2169 -91 
Q 1331 -91 842 396 
Q 353 884 353 1716 
Q 353 2575 817 3079 
Q 1281 3584 2069 3584 
Q 2775 3584 3186 3129 
Q 3597 2675 3597 1894 
z
M 3022 2063 
Q 3016 2534 2758 2815 
Q 2500 3097 2075 3097 
Q 1594 3097 1305 2825 
Q 1016 2553 972 2059 
L 3022 2063 
z
" transform="scale(0.015625)"/>
       <path id="DejaVuSans-6c" d="M 603 4863 
L 1178 4863 
L 1178 0 
L 603 0 
L 603 4863 
z
" transform="scale(0.015625)"/>
       <path id="DejaVuSans-6e" d="M 3513 2113 
L 3513 0 
L 2938 0 
L 2938 2094 
Q 2938 2591 2744 2837 
Q 2550 3084 2163 3084 
Q 1697 3084 1428 2787 
Q 1159 2491 1159 1978 
L 1159 0 
L 581 0 
L 581 3500 
L 1159 3500 
L 1159 2956 
Q 1366 3272 1645 3428 
Q 1925 3584 2291 3584 
Q 2894 3584 3203 3211 
Q 3513 2838 3513 2113 
z
" transform="scale(0.015625)"/>
       <path id="DejaVuSans-67" d="M 2906 1791 
Q 2906 2416 2648 2759 
Q 2391 3103 1925 3103 
Q 1463 3103 1205 2759 
Q 947 2416 947 1791 
Q 947 1169 1205 825 
Q 1463 481 1925 481 
Q 2391 481 2648 825 
Q 2906 1169 2906 1791 
z
M 3481 434 
Q 3481 -459 3084 -895 
Q 2688 -1331 1869 -1331 
Q 1566 -1331 1297 -1286 
Q 1028 -1241 775 -1147 
L 775 -588 
Q 1028 -725 1275 -790 
Q 1522 -856 1778 -856 
Q 2344 -856 2625 -561 
Q 2906 -266 2906 331 
L 2906 616 
Q 2728 306 2450 153 
Q 2172 0 1784 0 
Q 1141 0 747 490 
Q 353 981 353 1791 
Q 353 2603 747 3093 
Q 1141 3584 1784 3584 
Q 2172 3584 2450 3431 
Q 2728 3278 2906 2969 
L 2906 3500 
L 3481 3500 
L 3481 434 
z
" transform="scale(0.015625)"/>
       <path id="DejaVuSans-74" d="M 1172 4494 
L 1172 3500 
L 2356 3500 
L 2356 3053 
L 1172 3053 
L 1172 1153 
Q 1172 725 1289 603 
Q 1406 481 1766 481 
L 2356 481 
L 2356 0 
L 1766 0 
Q 1100 0 847 248 
Q 594 497 594 1153 
L 594 3053 
L 172 3053 
L 172 3500 
L 594 3500 
L 594 4494 
L 1172 4494 
z
" transform="scale(0.015625)"/>
       <path id="DejaVuSans-68" d="M 3513 2113 
L 3513 0 
L 2938 0 
L 2938 2094 
Q 2938 2591 2744 2837 
Q 2550 3084 2163 3084 
Q 1697 3084 1428 2787 
Q 1159 2491 1159 1978 
L 1159 0 
L 581 0 
L 581 4863 
L 1159 4863 
L 1159 2956 
Q 1366 3272 1645 3428 
Q 1925 3584 2291 3584 
Q 2894 3584 3203 3211 
Q 3513 2838 3513 2113 
z
" transform="scale(0.015625)"/>
       <path id="DejaVuSans-20" transform="scale(0.015625)"/>
       <path id="DejaVuSans-5b" d="M 550 4863 
L 1875 4863 
L 1875 4416 
L 1125 4416 
L 1125 -397 
L 1875 -397 
L 1875 -844 
L 550 -844 
L 550 4863 
z
" transform="scale(0.015625)"/>
       <path id="DejaVuSans-c5" d="M 2663 5081 
Q 2663 5278 2523 5417 
Q 2384 5556 2188 5556 
Q 1988 5556 1852 5420 
Q 1716 5284 1716 5081 
Q 1716 4884 1853 4746 
Q 1991 4609 2188 4609 
Q 2384 4609 2523 4746 
Q 2663 4884 2663 5081 
z
M 2188 4044 
L 1338 1722 
L 3041 1722 
L 2188 4044 
z
M 1716 4366 
Q 1525 4494 1428 4673 
Q 1331 4853 1331 5081 
Q 1331 5441 1579 5691 
Q 1828 5941 2188 5941 
Q 2544 5941 2795 5689 
Q 3047 5438 3047 5081 
Q 3047 4863 2948 4678 
Q 2850 4494 2663 4366 
L 4325 0 
L 3669 0 
L 3244 1197 
L 1141 1197 
L 716 0 
L 50 0 
L 1716 4366 
z
" transform="scale(0.015625)"/>
       <path id="DejaVuSans-5d" d="M 1947 4863 
L 1947 -844 
L 622 -844 
L 622 -397 
L 1369 -397 
L 1369 4416 
L 622 4416 
L 622 4863 
L 1947 4863 
z
" transform="scale(0.015625)"/>
      </defs>
      <use xlink:href="#DejaVuSans-77"/>
      <use xlink:href="#DejaVuSans-61" transform="translate(81.787109 0)"/>
      <use xlink:href="#DejaVuSans-76" transform="translate(143.066406 0)"/>
      <use xlink:href="#DejaVuSans-65" transform="translate(202.246094 0)"/>
      <use xlink:href="#DejaVuSans-6c" transform="translate(263.769531 0)"/>
      <use xlink:href="#DejaVuSans-65" transform="translate(291.552734 0)"/>
      <use xlink:href="#DejaVuSans-6e" transform="translate(353.076172 0)"/>
      <use xlink:href="#DejaVuSans-67" transform="translate(416.455078 0)"/>
      <use xlink:href="#DejaVuSans-74" transform="translate(479.931641 0)"/>
      <use xlink:href="#DejaVuSans-68" transform="translate(519.140625 0)"/>
      <use xlink:href="#DejaVuSans-20" transform="translate(582.519531 0)"/>
      <use xlink:href="#DejaVuSans-5b" transform="translate(614.306641 0)"/>
      <use xlink:href="#DejaVuSans-c5" transform="translate(653.320312 0)"/>
      <use xlink:href="#DejaVuSans-5d" transform="translate(721.728516 0)"/>
     </g>
    </g>
   </g>
   <g id="matplotlib.axis_2">
    <g id="ytick_1">
     <g id="line2d_9">
      <defs>
       <path id="mbea0ac31c4" d="M 0 0 
L -3.5 0 
" style="stroke: #000000; stroke-width: 0.8"/>
      </defs>
      <g>
       <use xlink:href="#mbea0ac31c4" x="46.965625" y="246.484315" style="stroke: #000000; stroke-width: 0.8"/>
      </g>
     </g>
     <g id="text_10">
      <!-- 0 -->
      <g transform="translate(33.603125 250.283533) scale(0.1 -0.1)">
       <use xlink:href="#DejaVuSans-30"/>
      </g>
     </g>
    </g>
    <g id="ytick_2">
     <g id="line2d_10">
      <g>
       <use xlink:href="#mbea0ac31c4" x="46.965625" y="220.062086" style="stroke: #000000; stroke-width: 0.8"/>
      </g>
     </g>
     <g id="text_11">
      <!-- 100 -->
      <g transform="translate(20.878125 223.861304) scale(0.1 -0.1)">
       <use xlink:href="#DejaVuSans-31"/>
       <use xlink:href="#DejaVuSans-30" transform="translate(63.623047 0)"/>
       <use xlink:href="#DejaVuSans-30" transform="translate(127.246094 0)"/>
      </g>
     </g>
    </g>
    <g id="ytick_3">
     <g id="line2d_11">
      <g>
       <use xlink:href="#mbea0ac31c4" x="46.965625" y="193.639857" style="stroke: #000000; stroke-width: 0.8"/>
      </g>
     </g>
     <g id="text_12">
      <!-- 200 -->
      <g transform="translate(20.878125 197.439076) scale(0.1 -0.1)">
       <use xlink:href="#DejaVuSans-32"/>
       <use xlink:href="#DejaVuSans-30" transform="translate(63.623047 0)"/>
       <use xlink:href="#DejaVuSans-30" transform="translate(127.246094 0)"/>
      </g>
     </g>
    </g>
    <g id="ytick_4">
     <g id="line2d_12">
      <g>
       <use xlink:href="#mbea0ac31c4" x="46.965625" y="167.217628" style="stroke: #000000; stroke-width: 0.8"/>
      </g>
     </g>
     <g id="text_13">
      <!-- 300 -->
      <g transform="translate(20.878125 171.016847) scale(0.1 -0.1)">
       <use xlink:href="#DejaVuSans-33"/>
       <use xlink:href="#DejaVuSans-30" transform="translate(63.623047 0)"/>
       <use xlink:href="#DejaVuSans-30" transform="translate(127.246094 0)"/>
      </g>
     </g>
    </g>
    <g id="ytick_5">
     <g id="line2d_13">
      <g>
       <use xlink:href="#mbea0ac31c4" x="46.965625" y="140.795399" style="stroke: #000000; stroke-width: 0.8"/>
      </g>
     </g>
     <g id="text_14">
      <!-- 400 -->
      <g transform="translate(20.878125 144.594618) scale(0.1 -0.1)">
       <use xlink:href="#DejaVuSans-34"/>
       <use xlink:href="#DejaVuSans-30" transform="translate(63.623047 0)"/>
       <use xlink:href="#DejaVuSans-30" transform="translate(127.246094 0)"/>
      </g>
     </g>
    </g>
    <g id="ytick_6">
     <g id="line2d_14">
      <g>
       <use xlink:href="#mbea0ac31c4" x="46.965625" y="114.37317" style="stroke: #000000; stroke-width: 0.8"/>
      </g>
     </g>
     <g id="text_15">
      <!-- 500 -->
      <g transform="translate(20.878125 118.172389) scale(0.1 -0.1)">
       <use xlink:href="#DejaVuSans-35"/>
       <use xlink:href="#DejaVuSans-30" transform="translate(63.623047 0)"/>
       <use xlink:href="#DejaVuSans-30" transform="translate(127.246094 0)"/>
      </g>
     </g>
    </g>
    <g id="ytick_7">
     <g id="line2d_15">
      <g>
       <use xlink:href="#mbea0ac31c4" x="46.965625" y="87.950941" style="stroke: #000000; stroke-width: 0.8"/>
      </g>
     </g>
     <g id="text_16">
      <!-- 600 -->
      <g transform="translate(20.878125 91.75016) scale(0.1 -0.1)">
       <defs>
        <path id="DejaVuSans-36" d="M 2113 2584 
Q 1688 2584 1439 2293 
Q 1191 2003 1191 1497 
Q 1191 994 1439 701 
Q 1688 409 2113 409 
Q 2538 409 2786 701 
Q 3034 994 3034 1497 
Q 3034 2003 2786 2293 
Q 2538 2584 2113 2584 
z
M 3366 4563 
L 3366 3988 
Q 3128 4100 2886 4159 
Q 2644 4219 2406 4219 
Q 1781 4219 1451 3797 
Q 1122 3375 1075 2522 
Q 1259 2794 1537 2939 
Q 1816 3084 2150 3084 
Q 2853 3084 3261 2657 
Q 3669 2231 3669 1497 
Q 3669 778 3244 343 
Q 2819 -91 2113 -91 
Q 1303 -91 875 529 
Q 447 1150 447 2328 
Q 447 3434 972 4092 
Q 1497 4750 2381 4750 
Q 2619 4750 2861 4703 
Q 3103 4656 3366 4563 
z
" transform="scale(0.015625)"/>
       </defs>
       <use xlink:href="#DejaVuSans-36"/>
       <use xlink:href="#DejaVuSans-30" transform="translate(63.623047 0)"/>
       <use xlink:href="#DejaVuSans-30" transform="translate(127.246094 0)"/>
      </g>
     </g>
    </g>
    <g id="ytick_8">
     <g id="line2d_16">
      <g>
       <use xlink:href="#mbea0ac31c4" x="46.965625" y="61.528713" style="stroke: #000000; stroke-width: 0.8"/>
      </g>
     </g>
     <g id="text_17">
      <!-- 700 -->
      <g transform="translate(20.878125 65.327931) scale(0.1 -0.1)">
       <defs>
        <path id="DejaVuSans-37" d="M 525 4666 
L 3525 4666 
L 3525 4397 
L 1831 0 
L 1172 0 
L 2766 4134 
L 525 4134 
L 525 4666 
z
" transform="scale(0.015625)"/>
       </defs>
       <use xlink:href="#DejaVuSans-37"/>
       <use xlink:href="#DejaVuSans-30" transform="translate(63.623047 0)"/>
       <use xlink:href="#DejaVuSans-30" transform="translate(127.246094 0)"/>
      </g>
     </g>
    </g>
    <g id="ytick_9">
     <g id="line2d_17">
      <g>
       <use xlink:href="#mbea0ac31c4" x="46.965625" y="35.106484" style="stroke: #000000; stroke-width: 0.8"/>
      </g>
     </g>
     <g id="text_18">
      <!-- 800 -->
      <g transform="translate(20.878125 38.905703) scale(0.1 -0.1)">
       <defs>
        <path id="DejaVuSans-38" d="M 2034 2216 
Q 1584 2216 1326 1975 
Q 1069 1734 1069 1313 
Q 1069 891 1326 650 
Q 1584 409 2034 409 
Q 2484 409 2743 651 
Q 3003 894 3003 1313 
Q 3003 1734 2745 1975 
Q 2488 2216 2034 2216 
z
M 1403 2484 
Q 997 2584 770 2862 
Q 544 3141 544 3541 
Q 544 4100 942 4425 
Q 1341 4750 2034 4750 
Q 2731 4750 3128 4425 
Q 3525 4100 3525 3541 
Q 3525 3141 3298 2862 
Q 3072 2584 2669 2484 
Q 3125 2378 3379 2068 
Q 3634 1759 3634 1313 
Q 3634 634 3220 271 
Q 2806 -91 2034 -91 
Q 1263 -91 848 271 
Q 434 634 434 1313 
Q 434 1759 690 2068 
Q 947 2378 1403 2484 
z
M 1172 3481 
Q 1172 3119 1398 2916 
Q 1625 2713 2034 2713 
Q 2441 2713 2670 2916 
Q 2900 3119 2900 3481 
Q 2900 3844 2670 4047 
Q 2441 4250 2034 4250 
Q 1625 4250 1398 4047 
Q 1172 3844 1172 3481 
z
" transform="scale(0.015625)"/>
       </defs>
       <use xlink:href="#DejaVuSans-38"/>
       <use xlink:href="#DejaVuSans-30" transform="translate(63.623047 0)"/>
       <use xlink:href="#DejaVuSans-30" transform="translate(127.246094 0)"/>
      </g>
     </g>
    </g>
    <g id="text_19">
     <!-- [counts] -->
     <g transform="translate(14.798437 160.35101) rotate(-90) scale(0.1 -0.1)">
      <defs>
       <path id="DejaVuSans-63" d="M 3122 3366 
L 3122 2828 
Q 2878 2963 2633 3030 
Q 2388 3097 2138 3097 
Q 1578 3097 1268 2742 
Q 959 2388 959 1747 
Q 959 1106 1268 751 
Q 1578 397 2138 397 
Q 2388 397 2633 464 
Q 2878 531 3122 666 
L 3122 134 
Q 2881 22 2623 -34 
Q 2366 -91 2075 -91 
Q 1284 -91 818 406 
Q 353 903 353 1747 
Q 353 2603 823 3093 
Q 1294 3584 2113 3584 
Q 2378 3584 2631 3529 
Q 2884 3475 3122 3366 
z
" transform="scale(0.015625)"/>
       <path id="DejaVuSans-6f" d="M 1959 3097 
Q 1497 3097 1228 2736 
Q 959 2375 959 1747 
Q 959 1119 1226 758 
Q 1494 397 1959 397 
Q 2419 397 2687 759 
Q 2956 1122 2956 1747 
Q 2956 2369 2687 2733 
Q 2419 3097 1959 3097 
z
M 1959 3584 
Q 2709 3584 3137 3096 
Q 3566 2609 3566 1747 
Q 3566 888 3137 398 
Q 2709 -91 1959 -91 
Q 1206 -91 779 398 
Q 353 888 353 1747 
Q 353 2609 779 3096 
Q 1206 3584 1959 3584 
z
" transform="scale(0.015625)"/>
       <path id="DejaVuSans-75" d="M 544 1381 
L 544 3500 
L 1119 3500 
L 1119 1403 
Q 1119 906 1312 657 
Q 1506 409 1894 409 
Q 2359 409 2629 706 
Q 2900 1003 2900 1516 
L 2900 3500 
L 3475 3500 
L 3475 0 
L 2900 0 
L 2900 538 
Q 2691 219 2414 64 
Q 2138 -91 1772 -91 
Q 1169 -91 856 284 
Q 544 659 544 1381 
z
M 1991 3584 
L 1991 3584 
z
" transform="scale(0.015625)"/>
       <path id="DejaVuSans-73" d="M 2834 3397 
L 2834 2853 
Q 2591 2978 2328 3040 
Q 2066 3103 1784 3103 
Q 1356 3103 1142 2972 
Q 928 2841 928 2578 
Q 928 2378 1081 2264 
Q 1234 2150 1697 2047 
L 1894 2003 
Q 2506 1872 2764 1633 
Q 3022 1394 3022 966 
Q 3022 478 2636 193 
Q 2250 -91 1575 -91 
Q 1294 -91 989 -36 
Q 684 19 347 128 
L 347 722 
Q 666 556 975 473 
Q 1284 391 1588 391 
Q 1994 391 2212 530 
Q 2431 669 2431 922 
Q 2431 1156 2273 1281 
Q 2116 1406 1581 1522 
L 1381 1569 
Q 847 1681 609 1914 
Q 372 2147 372 2553 
Q 372 3047 722 3315 
Q 1072 3584 1716 3584 
Q 2034 3584 2315 3537 
Q 2597 3491 2834 3397 
z
" transform="scale(0.015625)"/>
      </defs>
      <use xlink:href="#DejaVuSans-5b"/>
      <use xlink:href="#DejaVuSans-63" transform="translate(39.013672 0)"/>
      <use xlink:href="#DejaVuSans-6f" transform="translate(93.994141 0)"/>
      <use xlink:href="#DejaVuSans-75" transform="translate(155.175781 0)"/>
      <use xlink:href="#DejaVuSans-6e" transform="translate(218.554688 0)"/>
      <use xlink:href="#DejaVuSans-74" transform="translate(281.933594 0)"/>
      <use xlink:href="#DejaVuSans-73" transform="translate(321.142578 0)"/>
      <use xlink:href="#DejaVuSans-5d" transform="translate(373.242188 0)"/>
     </g>
    </g>
   </g>
   <g id="patch_3">
    <path d="M 46.965625 257.158895 
L 46.965625 22.318125 
" style="fill: none; stroke: #000000; stroke-width: 0.8; stroke-linejoin: miter; stroke-linecap: square"/>
   </g>
   <g id="patch_4">
    <path d="M 431.87976 257.158895 
L 431.87976 22.318125 
" style="fill: none; stroke: #000000; stroke-width: 0.8; stroke-linejoin: miter; stroke-linecap: square"/>
   </g>
   <g id="patch_5">
    <path d="M 46.965625 257.158895 
L 431.87976 257.158895 
" style="fill: none; stroke: #000000; stroke-width: 0.8; stroke-linejoin: miter; stroke-linecap: square"/>
   </g>
   <g id="patch_6">
    <path d="M 46.965625 22.318125 
L 431.87976 22.318125 
" style="fill: none; stroke: #000000; stroke-width: 0.8; stroke-linejoin: miter; stroke-linecap: square"/>
   </g>
   <g id="text_20">
    <!-- Pixel 1 -->
    <g transform="translate(219.82613 16.318125) scale(0.12 -0.12)">
     <defs>
      <path id="DejaVuSans-50" d="M 1259 4147 
L 1259 2394 
L 2053 2394 
Q 2494 2394 2734 2622 
Q 2975 2850 2975 3272 
Q 2975 3691 2734 3919 
Q 2494 4147 2053 4147 
L 1259 4147 
z
M 628 4666 
L 2053 4666 
Q 2838 4666 3239 4311 
Q 3641 3956 3641 3272 
Q 3641 2581 3239 2228 
Q 2838 1875 2053 1875 
L 1259 1875 
L 1259 0 
L 628 0 
L 628 4666 
z
" transform="scale(0.015625)"/>
      <path id="DejaVuSans-69" d="M 603 3500 
L 1178 3500 
L 1178 0 
L 603 0 
L 603 3500 
z
M 603 4863 
L 1178 4863 
L 1178 4134 
L 603 4134 
L 603 4863 
z
" transform="scale(0.015625)"/>
      <path id="DejaVuSans-78" d="M 3513 3500 
L 2247 1797 
L 3578 0 
L 2900 0 
L 1881 1375 
L 863 0 
L 184 0 
L 1544 1831 
L 300 3500 
L 978 3500 
L 1906 2253 
L 2834 3500 
L 3513 3500 
z
" transform="scale(0.015625)"/>
     </defs>
     <use xlink:href="#DejaVuSans-50"/>
     <use xlink:href="#DejaVuSans-69" transform="translate(58.052734 0)"/>
     <use xlink:href="#DejaVuSans-78" transform="translate(85.835938 0)"/>
     <use xlink:href="#DejaVuSans-65" transform="translate(141.890625 0)"/>
     <use xlink:href="#DejaVuSans-6c" transform="translate(203.414062 0)"/>
     <use xlink:href="#DejaVuSans-20" transform="translate(231.197266 0)"/>
     <use xlink:href="#DejaVuSans-31" transform="translate(262.984375 0)"/>
    </g>
   </g>
   <g id="legend_1">
    <g id="patch_7">
     <path d="M 327.876635 59.9525 
L 424.87976 59.9525 
Q 426.87976 59.9525 426.87976 57.9525 
L 426.87976 29.318125 
Q 426.87976 27.318125 424.87976 27.318125 
L 327.876635 27.318125 
Q 325.876635 27.318125 325.876635 29.318125 
L 325.876635 57.9525 
Q 325.876635 59.9525 327.876635 59.9525 
z
" style="fill: #ffffff; opacity: 0.8; stroke: #cccccc; stroke-linejoin: miter"/>
    </g>
    <g id="line2d_18">
     <path d="M 329.876635 35.416562 
L 329.876635 35.416562 
L 339.876635 35.416562 
L 339.876635 35.416562 
L 349.876635 35.416562 
" style="fill: none; stroke: #1f77b4; stroke-width: 1.5; stroke-linecap: square"/>
    </g>
    <g id="text_21">
     <!-- wfm -->
     <g transform="translate(357.876635 38.916562) scale(0.1 -0.1)">
      <defs>
       <path id="DejaVuSans-66" d="M 2375 4863 
L 2375 4384 
L 1825 4384 
Q 1516 4384 1395 4259 
Q 1275 4134 1275 3809 
L 1275 3500 
L 2222 3500 
L 2222 3053 
L 1275 3053 
L 1275 0 
L 697 0 
L 697 3053 
L 147 3053 
L 147 3500 
L 697 3500 
L 697 3744 
Q 697 4328 969 4595 
Q 1241 4863 1831 4863 
L 2375 4863 
z
" transform="scale(0.015625)"/>
       <path id="DejaVuSans-6d" d="M 3328 2828 
Q 3544 3216 3844 3400 
Q 4144 3584 4550 3584 
Q 5097 3584 5394 3201 
Q 5691 2819 5691 2113 
L 5691 0 
L 5113 0 
L 5113 2094 
Q 5113 2597 4934 2840 
Q 4756 3084 4391 3084 
Q 3944 3084 3684 2787 
Q 3425 2491 3425 1978 
L 3425 0 
L 2847 0 
L 2847 2094 
Q 2847 2600 2669 2842 
Q 2491 3084 2119 3084 
Q 1678 3084 1418 2786 
Q 1159 2488 1159 1978 
L 1159 0 
L 581 0 
L 581 3500 
L 1159 3500 
L 1159 2956 
Q 1356 3278 1631 3431 
Q 1906 3584 2284 3584 
Q 2666 3584 2933 3390 
Q 3200 3197 3328 2828 
z
" transform="scale(0.015625)"/>
      </defs>
      <use xlink:href="#DejaVuSans-77"/>
      <use xlink:href="#DejaVuSans-66" transform="translate(81.787109 0)"/>
      <use xlink:href="#DejaVuSans-6d" transform="translate(116.992188 0)"/>
     </g>
    </g>
    <g id="line2d_19">
     <path d="M 329.876635 50.094687 
L 329.876635 50.094687 
L 339.876635 50.094687 
L 339.876635 50.094687 
L 349.876635 50.094687 
" style="fill: none; stroke: #ff7f0e; stroke-width: 1.5; stroke-linecap: square"/>
    </g>
    <g id="text_22">
     <!-- ground_truth -->
     <g transform="translate(357.876635 53.594687) scale(0.1 -0.1)">
      <defs>
       <path id="DejaVuSans-72" d="M 2631 2963 
Q 2534 3019 2420 3045 
Q 2306 3072 2169 3072 
Q 1681 3072 1420 2755 
Q 1159 2438 1159 1844 
L 1159 0 
L 581 0 
L 581 3500 
L 1159 3500 
L 1159 2956 
Q 1341 3275 1631 3429 
Q 1922 3584 2338 3584 
Q 2397 3584 2469 3576 
Q 2541 3569 2628 3553 
L 2631 2963 
z
" transform="scale(0.015625)"/>
       <path id="DejaVuSans-64" d="M 2906 2969 
L 2906 4863 
L 3481 4863 
L 3481 0 
L 2906 0 
L 2906 525 
Q 2725 213 2448 61 
Q 2172 -91 1784 -91 
Q 1150 -91 751 415 
Q 353 922 353 1747 
Q 353 2572 751 3078 
Q 1150 3584 1784 3584 
Q 2172 3584 2448 3432 
Q 2725 3281 2906 2969 
z
M 947 1747 
Q 947 1113 1208 752 
Q 1469 391 1925 391 
Q 2381 391 2643 752 
Q 2906 1113 2906 1747 
Q 2906 2381 2643 2742 
Q 2381 3103 1925 3103 
Q 1469 3103 1208 2742 
Q 947 2381 947 1747 
z
" transform="scale(0.015625)"/>
       <path id="DejaVuSans-5f" d="M 3263 -1063 
L 3263 -1509 
L -63 -1509 
L -63 -1063 
L 3263 -1063 
z
" transform="scale(0.015625)"/>
      </defs>
      <use xlink:href="#DejaVuSans-67"/>
      <use xlink:href="#DejaVuSans-72" transform="translate(63.476562 0)"/>
      <use xlink:href="#DejaVuSans-6f" transform="translate(102.339844 0)"/>
      <use xlink:href="#DejaVuSans-75" transform="translate(163.521484 0)"/>
      <use xlink:href="#DejaVuSans-6e" transform="translate(226.900391 0)"/>
      <use xlink:href="#DejaVuSans-64" transform="translate(290.279297 0)"/>
      <use xlink:href="#DejaVuSans-5f" transform="translate(353.755859 0)"/>
      <use xlink:href="#DejaVuSans-74" transform="translate(403.755859 0)"/>
      <use xlink:href="#DejaVuSans-72" transform="translate(442.964844 0)"/>
      <use xlink:href="#DejaVuSans-75" transform="translate(484.078125 0)"/>
      <use xlink:href="#DejaVuSans-74" transform="translate(547.457031 0)"/>
      <use xlink:href="#DejaVuSans-68" transform="translate(586.666016 0)"/>
     </g>
    </g>
   </g>
   <g id="line2d_20">
    <path d="M 64.461722 246.484315 
L 73.209771 246.484315 
L 73.209771 243.313647 
L 74.95938 243.313647 
L 74.95938 235.386978 
L 76.70899 235.386978 
L 76.70899 229.574088 
L 78.4586 229.574088 
L 78.4586 223.232753 
L 80.208209 223.232753 
L 80.208209 213.192306 
L 81.957819 213.192306 
L 81.957819 203.680304 
L 83.707429 203.680304 
L 83.707429 198.395858 
L 85.457039 198.395858 
L 85.457039 182.014076 
L 87.206648 182.014076 
L 87.206648 184.392077 
L 88.956258 184.392077 
L 88.956258 167.746073 
L 90.705868 167.746073 
L 90.705868 161.140515 
L 92.455477 161.140515 
L 92.455477 158.23407 
L 94.205087 158.23407 
L 94.205087 151.628513 
L 95.954697 151.628513 
L 95.954697 144.494511 
L 97.704306 144.494511 
L 97.704306 139.474288 
L 99.453916 139.474288 
L 99.453916 121.771394 
L 101.203526 121.771394 
L 101.203526 109.352947 
L 102.953136 109.352947 
L 102.953136 111.730947 
L 104.702745 111.730947 
L 104.702745 103.275834 
L 106.452355 103.275834 
L 106.452355 101.426278 
L 108.201965 101.426278 
L 108.201965 86.62983 
L 109.951574 86.62983 
L 109.951574 96.934499 
L 111.701184 96.934499 
L 111.701184 76.325161 
L 113.450794 76.325161 
L 113.450794 78.438939 
L 115.200403 78.438939 
L 115.200403 85.837163 
L 116.950013 85.837163 
L 116.950013 62.585602 
L 118.699623 62.585602 
L 118.699623 67.870048 
L 120.449233 67.870048 
L 120.449233 62.057157 
L 122.198842 62.057157 
L 122.198842 46.732264 
L 123.948452 46.732264 
L 123.948452 44.090042 
L 125.698062 44.090042 
L 125.698062 58.88649 
L 127.447671 58.88649 
L 127.447671 41.976263 
L 129.197281 41.976263 
L 129.197281 57.301156 
L 130.946891 57.301156 
L 130.946891 38.012929 
L 132.696501 38.012929 
L 132.696501 43.561597 
L 134.44611 43.561597 
L 134.44611 41.447819 
L 136.19572 41.447819 
L 136.19572 43.297375 
L 137.94533 43.297375 
L 137.94533 56.772711 
L 139.694939 56.772711 
L 139.694939 64.170935 
L 141.444549 64.170935 
L 141.444549 60.736046 
L 143.194159 60.736046 
L 143.194159 69.719604 
L 144.943768 69.719604 
L 144.943768 58.358045 
L 148.442988 58.358045 
L 148.442988 64.435158 
L 150.192598 64.435158 
L 150.192598 69.455381 
L 151.942207 69.455381 
L 151.942207 73.682938 
L 153.691817 73.682938 
L 153.691817 70.51227 
L 155.441427 70.51227 
L 155.441427 76.060938 
L 157.191036 76.060938 
L 157.191036 75.532494 
L 158.940646 75.532494 
L 158.940646 80.552717 
L 160.690256 80.552717 
L 160.690256 83.19494 
L 162.439866 83.19494 
L 162.439866 80.552717 
L 164.189475 80.552717 
L 164.189475 90.328942 
L 165.939085 90.328942 
L 165.939085 78.174717 
L 167.688695 78.174717 
L 167.688695 97.991388 
L 169.438304 97.991388 
L 169.438304 76.325161 
L 171.187914 76.325161 
L 171.187914 76.060938 
L 172.937524 76.060938 
L 172.937524 100.105167 
L 174.687133 100.105167 
L 174.687133 92.971165 
L 176.436743 92.971165 
L 176.436743 94.292276 
L 178.186353 94.292276 
L 178.186353 77.646272 
L 179.935963 77.646272 
L 179.935963 87.422497 
L 181.685572 87.422497 
L 181.685572 77.910494 
L 183.435182 77.910494 
L 183.435182 87.158275 
L 185.184792 87.158275 
L 185.184792 88.215164 
L 186.934401 88.215164 
L 186.934401 105.389612 
L 188.684011 105.389612 
L 188.684011 97.727166 
L 190.433621 97.727166 
L 190.433621 99.3125 
L 192.18323 99.3125 
L 192.18323 100.897834 
L 193.93284 100.897834 
L 193.93284 93.235387 
L 195.68245 93.235387 
L 195.68245 97.462944 
L 197.43206 97.462944 
L 197.43206 105.389612 
L 199.181669 105.389612 
L 199.181669 98.519833 
L 200.931279 98.519833 
L 200.931279 113.844726 
L 202.680889 113.844726 
L 202.680889 123.62095 
L 204.430498 123.62095 
L 204.430498 124.942062 
L 206.180108 124.942062 
L 206.180108 127.05584 
L 207.929718 127.05584 
L 207.929718 148.98629 
L 209.679328 148.98629 
L 209.679328 155.327625 
L 211.428937 155.327625 
L 211.428937 146.60829 
L 213.178547 146.60829 
L 213.178547 160.876293 
L 214.928157 160.876293 
L 214.928157 172.237851 
L 216.677766 172.237851 
L 216.677766 185.97741 
L 218.427376 185.97741 
L 218.427376 186.505855 
L 220.176986 186.505855 
L 220.176986 199.452747 
L 221.926595 199.452747 
L 221.926595 206.850971 
L 223.676205 206.850971 
L 223.676205 209.228972 
L 225.425815 209.228972 
L 225.425815 213.720751 
L 227.175425 213.720751 
L 227.175425 225.082309 
L 228.925034 225.082309 
L 228.925034 232.216311 
L 230.674644 232.216311 
L 230.674644 236.179645 
L 232.424254 236.179645 
L 232.424254 239.878757 
L 234.173863 239.878757 
L 234.173863 243.049425 
L 235.923473 243.049425 
L 235.923473 244.106314 
L 237.673083 244.106314 
L 237.673083 238.557646 
L 239.422693 238.557646 
L 239.422693 235.122756 
L 241.172302 235.122756 
L 241.172302 223.232753 
L 242.921912 223.232753 
L 242.921912 219.269419 
L 244.671522 219.269419 
L 244.671522 211.871195 
L 246.421131 211.871195 
L 246.421131 207.115194 
L 248.170741 207.115194 
L 248.170741 200.245414 
L 249.920351 200.245414 
L 249.920351 201.566526 
L 251.66996 201.566526 
L 251.66996 191.790301 
L 253.41957 191.790301 
L 253.41957 180.428742 
L 255.16918 180.428742 
L 255.16918 176.465408 
L 256.91879 176.465408 
L 256.91879 176.993853 
L 258.668399 176.993853 
L 258.668399 164.311183 
L 260.418009 164.311183 
L 260.418009 163.782738 
L 262.167619 163.782738 
L 262.167619 164.839627 
L 263.917228 164.839627 
L 263.917228 160.347849 
L 265.666838 160.347849 
L 265.666838 151.628513 
L 267.416448 151.628513 
L 267.416448 149.250512 
L 269.166057 149.250512 
L 269.166057 141.588066 
L 270.915667 141.588066 
L 270.915667 141.323844 
L 272.665277 141.323844 
L 272.665277 134.718287 
L 274.414887 134.718287 
L 274.414887 137.360509 
L 276.164496 137.360509 
L 276.164496 122.299839 
L 277.914106 122.299839 
L 277.914106 129.962285 
L 279.663716 129.962285 
L 279.663716 131.019174 
L 281.413325 131.019174 
L 281.413325 121.24295 
L 283.162935 121.24295 
L 283.162935 119.393394 
L 284.912545 119.393394 
L 284.912545 117.80806 
L 286.662155 117.80806 
L 286.662155 106.974946 
L 288.411764 106.974946 
L 288.411764 114.108948 
L 290.161374 114.108948 
L 290.161374 105.12539 
L 291.910984 105.12539 
L 291.910984 100.105167 
L 293.660593 100.105167 
L 293.660593 98.519833 
L 295.410203 98.519833 
L 295.410203 115.165837 
L 297.159813 115.165837 
L 297.159813 108.824502 
L 298.909422 108.824502 
L 298.909422 114.37317 
L 300.659032 114.37317 
L 300.659032 118.072282 
L 302.408642 118.072282 
L 302.408642 122.564061 
L 304.158252 122.564061 
L 304.158252 113.844726 
L 305.907861 113.844726 
L 305.907861 123.885173 
L 307.657471 123.885173 
L 307.657471 132.86873 
L 309.407081 132.86873 
L 309.407081 130.49073 
L 311.15669 130.49073 
L 311.15669 147.400956 
L 312.9063 147.400956 
L 312.9063 146.872512 
L 314.65591 146.872512 
L 314.65591 137.624732 
L 316.405519 137.624732 
L 316.405519 138.153176 
L 318.155129 138.153176 
L 318.155129 129.169618 
L 319.904739 129.169618 
L 319.904739 138.681621 
L 321.654349 138.681621 
L 321.654349 129.698063 
L 323.403958 129.698063 
L 323.403958 146.079845 
L 325.153568 146.079845 
L 325.153568 146.872512 
L 326.903178 146.872512 
L 326.903178 145.815623 
L 328.652787 145.815623 
L 328.652787 151.628513 
L 330.402397 151.628513 
L 330.402397 159.555182 
L 332.152007 159.555182 
L 332.152007 153.478069 
L 333.901617 153.478069 
L 333.901617 156.648736 
L 335.651226 156.648736 
L 335.651226 152.156958 
L 337.400836 152.156958 
L 337.400836 155.85607 
L 339.150446 155.85607 
L 339.150446 159.555182 
L 340.900055 159.555182 
L 340.900055 161.140515 
L 342.649665 161.140515 
L 342.649665 151.892735 
L 344.399275 151.892735 
L 344.399275 166.160739 
L 346.148884 166.160739 
L 346.148884 160.876293 
L 347.898494 160.876293 
L 347.898494 168.802962 
L 349.648104 168.802962 
L 349.648104 175.144297 
L 351.397714 175.144297 
L 351.397714 177.78652 
L 353.147323 177.78652 
L 353.147323 171.180962 
L 354.896933 171.180962 
L 354.896933 176.993853 
L 356.646543 176.993853 
L 356.646543 173.823185 
L 358.396152 173.823185 
L 358.396152 180.16452 
L 360.145762 180.16452 
L 360.145762 181.221409 
L 361.895372 181.221409 
L 361.895372 183.59941 
L 363.644982 183.59941 
L 363.644982 188.355411 
L 365.394591 188.355411 
L 365.394591 191.261856 
L 367.144201 191.261856 
L 367.144201 190.469189 
L 368.893811 190.469189 
L 368.893811 199.981192 
L 370.64342 199.981192 
L 370.64342 203.680304 
L 372.39303 203.680304 
L 372.39303 200.509636 
L 374.14264 200.509636 
L 374.14264 214.513418 
L 375.892249 214.513418 
L 375.892249 212.928084 
L 377.641859 212.928084 
L 377.641859 216.362974 
L 379.391469 216.362974 
L 379.391469 219.797863 
L 381.141079 219.797863 
L 381.141079 222.175864 
L 382.890688 222.175864 
L 382.890688 222.704309 
L 384.640298 222.704309 
L 384.640298 226.403421 
L 386.389908 226.403421 
L 386.389908 228.781421 
L 388.139517 228.781421 
L 388.139517 234.330089 
L 389.889127 234.330089 
L 389.889127 237.764979 
L 393.388347 237.764979 
L 393.388347 240.671424 
L 395.137956 240.671424 
L 395.137956 242.256758 
L 396.887566 242.256758 
L 396.887566 244.106314 
L 398.637176 244.106314 
L 398.637176 243.313647 
L 400.386785 243.313647 
L 400.386785 244.370536 
L 402.136395 244.370536 
L 402.136395 245.163203 
L 403.886005 245.163203 
L 403.886005 245.95587 
L 405.635614 245.95587 
L 405.635614 246.484315 
L 414.383663 246.484315 
L 414.383663 246.484315 
" clip-path="url(#p617a5d35a5)" style="fill: none; stroke: #1f77b4; stroke-width: 1.5; stroke-linecap: square"/>
   </g>
   <g id="line2d_21">
    <path d="M 64.461722 246.484315 
L 73.209771 246.484315 
L 73.209771 242.785203 
L 74.95938 242.785203 
L 74.95938 235.386978 
L 76.70899 235.386978 
L 76.70899 229.574088 
L 78.4586 229.574088 
L 78.4586 223.232753 
L 80.208209 223.232753 
L 80.208209 212.399639 
L 81.957819 212.399639 
L 81.957819 203.416082 
L 83.707429 203.416082 
L 83.707429 199.981192 
L 85.457039 199.981192 
L 85.457039 181.485632 
L 87.206648 181.485632 
L 87.206648 184.920521 
L 88.956258 184.920521 
L 88.956258 166.689183 
L 90.705868 166.689183 
L 90.705868 165.632294 
L 92.455477 165.632294 
L 92.455477 153.213847 
L 95.954697 153.213847 
L 95.954697 144.494511 
L 97.704306 144.494511 
L 97.704306 137.096287 
L 99.453916 137.096287 
L 99.453916 116.751171 
L 101.203526 116.751171 
L 101.203526 120.714505 
L 102.953136 120.714505 
L 102.953136 103.011612 
L 104.702745 103.011612 
L 104.702745 109.617169 
L 106.452355 109.617169 
L 106.452355 94.820721 
L 108.201965 94.820721 
L 108.201965 89.536275 
L 109.951574 89.536275 
L 109.951574 99.048278 
L 111.701184 99.048278 
L 111.701184 75.268272 
L 113.450794 75.268272 
L 113.450794 77.38205 
L 115.200403 77.38205 
L 115.200403 80.552717 
L 116.950013 80.552717 
L 116.950013 68.13427 
L 118.699623 68.13427 
L 118.699623 68.926937 
L 120.449233 68.926937 
L 120.449233 60.736046 
L 122.198842 60.736046 
L 122.198842 44.090042 
L 123.948452 44.090042 
L 123.948452 47.524931 
L 125.698062 47.524931 
L 125.698062 53.337822 
L 127.447671 53.337822 
L 127.447671 49.110265 
L 129.197281 49.110265 
L 129.197281 53.073599 
L 130.946891 53.073599 
L 130.946891 32.992705 
L 132.696501 32.992705 
L 132.696501 46.468042 
L 134.44611 46.468042 
L 134.44611 39.33404 
L 136.19572 39.33404 
L 136.19572 58.88649 
L 137.94533 58.88649 
L 137.94533 48.58182 
L 139.694939 48.58182 
L 139.694939 65.756269 
L 141.444549 65.756269 
L 141.444549 63.378269 
L 143.194159 63.378269 
L 143.194159 61.792935 
L 144.943768 61.792935 
L 144.943768 61.528713 
L 146.693378 61.528713 
L 146.693378 61.792935 
L 148.442988 61.792935 
L 148.442988 49.110265 
L 150.192598 49.110265 
L 150.192598 75.532494 
L 151.942207 75.532494 
L 151.942207 83.987607 
L 153.691817 83.987607 
L 153.691817 71.040715 
L 155.441427 71.040715 
L 155.441427 71.56916 
L 157.191036 71.56916 
L 157.191036 77.38205 
L 158.940646 77.38205 
L 158.940646 82.930718 
L 160.690256 82.930718 
L 160.690256 85.308719 
L 162.439866 85.308719 
L 162.439866 71.833382 
L 164.189475 71.833382 
L 164.189475 91.650053 
L 165.939085 91.650053 
L 165.939085 86.365608 
L 167.688695 86.365608 
L 167.688695 87.686719 
L 169.438304 87.686719 
L 169.438304 81.345384 
L 171.187914 81.345384 
L 171.187914 75.004049 
L 172.937524 75.004049 
L 172.937524 91.914276 
L 174.687133 91.914276 
L 174.687133 101.162056 
L 176.436743 101.162056 
L 176.436743 96.141832 
L 178.186353 96.141832 
L 178.186353 82.138051 
L 179.935963 82.138051 
L 179.935963 81.081162 
L 181.685572 81.081162 
L 181.685572 87.686719 
L 183.435182 87.686719 
L 183.435182 74.475605 
L 185.184792 74.475605 
L 185.184792 92.706943 
L 186.934401 92.706943 
L 186.934401 99.840944 
L 188.684011 99.840944 
L 188.684011 104.596946 
L 190.433621 104.596946 
L 190.433621 99.048278 
L 192.18323 99.048278 
L 192.18323 89.536275 
L 193.93284 89.536275 
L 193.93284 105.653835 
L 195.68245 105.653835 
L 195.68245 101.954723 
L 197.43206 101.954723 
L 197.43206 93.763832 
L 199.181669 93.763832 
L 199.181669 108.031835 
L 200.931279 108.031835 
L 200.931279 112.787837 
L 202.680889 112.787837 
L 202.680889 123.885173 
L 204.430498 123.885173 
L 204.430498 121.24295 
L 206.180108 121.24295 
L 206.180108 127.320062 
L 207.929718 127.320062 
L 207.929718 143.701844 
L 209.679328 143.701844 
L 209.679328 155.591847 
L 211.428937 155.591847 
L 211.428937 149.514735 
L 213.178547 149.514735 
L 213.178547 161.933182 
L 214.928157 161.933182 
L 214.928157 172.237851 
L 216.677766 172.237851 
L 216.677766 185.713188 
L 218.427376 185.713188 
L 218.427376 186.505855 
L 220.176986 186.505855 
L 220.176986 198.131636 
L 221.926595 198.131636 
L 221.926595 207.90786 
L 225.425815 207.90786 
L 225.425815 215.041862 
L 227.175425 215.041862 
L 227.175425 225.874976 
L 228.925034 225.874976 
L 228.925034 231.687866 
L 230.674644 231.687866 
L 230.674644 235.651201 
L 232.424254 235.651201 
L 232.424254 240.14298 
L 234.173863 240.14298 
L 234.173863 243.049425 
L 235.923473 243.049425 
L 235.923473 243.313647 
L 237.673083 243.313647 
L 237.673083 238.557646 
L 239.422693 238.557646 
L 239.422693 234.858534 
L 241.172302 234.858534 
L 241.172302 223.761198 
L 242.921912 223.761198 
L 242.921912 219.797863 
L 244.671522 219.797863 
L 244.671522 211.078528 
L 246.421131 211.078528 
L 246.421131 207.115194 
L 248.170741 207.115194 
L 248.170741 201.038081 
L 249.920351 201.038081 
L 249.920351 200.245414 
L 251.66996 200.245414 
L 251.66996 191.261856 
L 253.41957 191.261856 
L 253.41957 179.636076 
L 255.16918 179.636076 
L 255.16918 176.72963 
L 256.91879 176.72963 
L 256.91879 178.843409 
L 258.668399 178.843409 
L 258.668399 161.140515 
L 260.418009 161.140515 
L 260.418009 167.217628 
L 262.167619 167.217628 
L 262.167619 164.575405 
L 263.917228 164.575405 
L 263.917228 156.912959 
L 265.666838 156.912959 
L 265.666838 156.384514 
L 267.416448 156.384514 
L 267.416448 143.701844 
L 269.166057 143.701844 
L 269.166057 147.400956 
L 270.915667 147.400956 
L 270.915667 144.494511 
L 272.665277 144.494511 
L 272.665277 131.811841 
L 274.414887 131.811841 
L 274.414887 129.433841 
L 276.164496 129.433841 
L 276.164496 130.226508 
L 277.914106 130.226508 
L 277.914106 129.433841 
L 279.663716 129.433841 
L 279.663716 124.67784 
L 281.413325 124.67784 
L 281.413325 122.564061 
L 283.162935 122.564061 
L 283.162935 125.998951 
L 284.912545 125.998951 
L 284.912545 119.393394 
L 286.662155 119.393394 
L 286.662155 102.74739 
L 288.411764 102.74739 
L 288.411764 113.844726 
L 290.161374 113.844726 
L 290.161374 103.011612 
L 291.910984 103.011612 
L 291.910984 100.105167 
L 293.660593 100.105167 
L 293.660593 101.954723 
L 295.410203 101.954723 
L 295.410203 109.352947 
L 297.159813 109.352947 
L 297.159813 116.486949 
L 298.909422 116.486949 
L 298.909422 112.787837 
L 300.659032 112.787837 
L 300.659032 119.393394 
L 302.408642 119.393394 
L 302.408642 123.092506 
L 304.158252 123.092506 
L 304.158252 115.430059 
L 305.907861 115.430059 
L 305.907861 120.450283 
L 307.657471 120.450283 
L 307.657471 136.832065 
L 309.407081 136.832065 
L 309.407081 123.092506 
L 311.15669 123.092506 
L 311.15669 148.193623 
L 312.9063 148.193623 
L 312.9063 146.079845 
L 314.65591 146.079845 
L 314.65591 129.698063 
L 316.405519 129.698063 
L 316.405519 143.1734 
L 318.155129 143.1734 
L 318.155129 132.86873 
L 319.904739 132.86873 
L 319.904739 136.567843 
L 321.654349 136.567843 
L 321.654349 141.323844 
L 323.403958 141.323844 
L 323.403958 136.039398 
L 325.153568 136.039398 
L 325.153568 144.230289 
L 326.903178 144.230289 
L 326.903178 151.364291 
L 328.652787 151.364291 
L 328.652787 152.949624 
L 330.402397 152.949624 
L 330.402397 155.063403 
L 332.152007 155.063403 
L 332.152007 155.85607 
L 333.901617 155.85607 
L 333.901617 153.213847 
L 335.651226 153.213847 
L 335.651226 156.648736 
L 337.400836 156.648736 
L 337.400836 161.140515 
L 339.150446 161.140515 
L 339.150446 159.819404 
L 340.900055 159.819404 
L 340.900055 151.364291 
L 342.649665 151.364291 
L 342.649665 156.384514 
L 344.399275 156.384514 
L 344.399275 163.782738 
L 346.148884 163.782738 
L 346.148884 169.331406 
L 347.898494 169.331406 
L 347.898494 165.896517 
L 349.648104 165.896517 
L 349.648104 162.990071 
L 351.397714 162.990071 
L 351.397714 183.59941 
L 353.147323 183.59941 
L 353.147323 172.502074 
L 354.896933 172.502074 
L 354.896933 177.258075 
L 356.646543 177.258075 
L 356.646543 177.522297 
L 358.396152 177.522297 
L 358.396152 176.465408 
L 360.145762 176.465408 
L 360.145762 178.579186 
L 361.895372 178.579186 
L 361.895372 187.826967 
L 363.644982 187.826967 
L 363.644982 186.241633 
L 365.394591 186.241633 
L 365.394591 188.883856 
L 367.144201 188.883856 
L 367.144201 192.582968 
L 368.893811 192.582968 
L 368.893811 199.452747 
L 370.64342 199.452747 
L 370.64342 202.359192 
L 372.39303 202.359192 
L 372.39303 206.586749 
L 374.14264 206.586749 
L 374.14264 210.021639 
L 375.892249 210.021639 
L 375.892249 210.814306 
L 377.641859 210.814306 
L 377.641859 220.854753 
L 379.391469 220.854753 
L 379.391469 219.533641 
L 381.141079 219.533641 
L 381.141079 218.476752 
L 382.890688 218.476752 
L 382.890688 224.818087 
L 384.640298 224.818087 
L 384.640298 227.724532 
L 386.389908 227.724532 
L 386.389908 226.931865 
L 388.139517 226.931865 
L 388.139517 235.915423 
L 389.889127 235.915423 
L 389.889127 237.236534 
L 391.638737 237.236534 
L 391.638737 238.029201 
L 393.388347 238.029201 
L 393.388347 239.614535 
L 395.137956 239.614535 
L 395.137956 243.049425 
L 396.887566 243.049425 
L 396.887566 243.842092 
L 398.637176 243.842092 
L 398.637176 243.313647 
L 400.386785 243.313647 
L 400.386785 244.634759 
L 402.136395 244.634759 
L 402.136395 244.898981 
L 403.886005 244.898981 
L 403.886005 245.691648 
L 405.635614 245.691648 
L 405.635614 246.220092 
L 407.385224 246.220092 
L 407.385224 246.484315 
L 414.383663 246.484315 
L 414.383663 246.484315 
" clip-path="url(#p617a5d35a5)" style="fill: none; stroke: #ff7f0e; stroke-width: 1.5; stroke-linecap: square"/>
   </g>
  </g>
  <g id="axes_2">
   <g id="patch_8">
    <path d="M 480.285385 257.158895 
L 865.19952 257.158895 
L 865.19952 22.318125 
L 480.285385 22.318125 
z
" style="fill: #ffffff"/>
   </g>
   <g id="matplotlib.axis_3">
    <g id="xtick_9">
     <g id="line2d_22">
      <g>
       <use xlink:href="#m853db7559a" x="516.198426" y="257.158895" style="stroke: #000000; stroke-width: 0.8"/>
      </g>
     </g>
     <g id="text_23">
      <!-- 1.0 -->
      <g transform="translate(508.246864 271.757332) scale(0.1 -0.1)">
       <use xlink:href="#DejaVuSans-31"/>
       <use xlink:href="#DejaVuSans-2e" transform="translate(63.623047 0)"/>
       <use xlink:href="#DejaVuSans-30" transform="translate(95.410156 0)"/>
      </g>
     </g>
    </g>
    <g id="xtick_10">
     <g id="line2d_23">
      <g>
       <use xlink:href="#m853db7559a" x="562.240787" y="257.158895" style="stroke: #000000; stroke-width: 0.8"/>
      </g>
     </g>
     <g id="text_24">
      <!-- 1.5 -->
      <g transform="translate(554.289224 271.757332) scale(0.1 -0.1)">
       <use xlink:href="#DejaVuSans-31"/>
       <use xlink:href="#DejaVuSans-2e" transform="translate(63.623047 0)"/>
       <use xlink:href="#DejaVuSans-35" transform="translate(95.410156 0)"/>
      </g>
     </g>
    </g>
    <g id="xtick_11">
     <g id="line2d_24">
      <g>
       <use xlink:href="#m853db7559a" x="608.283148" y="257.158895" style="stroke: #000000; stroke-width: 0.8"/>
      </g>
     </g>
     <g id="text_25">
      <!-- 2.0 -->
      <g transform="translate(600.331585 271.757332) scale(0.1 -0.1)">
       <use xlink:href="#DejaVuSans-32"/>
       <use xlink:href="#DejaVuSans-2e" transform="translate(63.623047 0)"/>
       <use xlink:href="#DejaVuSans-30" transform="translate(95.410156 0)"/>
      </g>
     </g>
    </g>
    <g id="xtick_12">
     <g id="line2d_25">
      <g>
       <use xlink:href="#m853db7559a" x="654.325508" y="257.158895" style="stroke: #000000; stroke-width: 0.8"/>
      </g>
     </g>
     <g id="text_26">
      <!-- 2.5 -->
      <g transform="translate(646.373946 271.757332) scale(0.1 -0.1)">
       <use xlink:href="#DejaVuSans-32"/>
       <use xlink:href="#DejaVuSans-2e" transform="translate(63.623047 0)"/>
       <use xlink:href="#DejaVuSans-35" transform="translate(95.410156 0)"/>
      </g>
     </g>
    </g>
    <g id="xtick_13">
     <g id="line2d_26">
      <g>
       <use xlink:href="#m853db7559a" x="700.367869" y="257.158895" style="stroke: #000000; stroke-width: 0.8"/>
      </g>
     </g>
     <g id="text_27">
      <!-- 3.0 -->
      <g transform="translate(692.416306 271.757332) scale(0.1 -0.1)">
       <use xlink:href="#DejaVuSans-33"/>
       <use xlink:href="#DejaVuSans-2e" transform="translate(63.623047 0)"/>
       <use xlink:href="#DejaVuSans-30" transform="translate(95.410156 0)"/>
      </g>
     </g>
    </g>
    <g id="xtick_14">
     <g id="line2d_27">
      <g>
       <use xlink:href="#m853db7559a" x="746.41023" y="257.158895" style="stroke: #000000; stroke-width: 0.8"/>
      </g>
     </g>
     <g id="text_28">
      <!-- 3.5 -->
      <g transform="translate(738.458667 271.757332) scale(0.1 -0.1)">
       <use xlink:href="#DejaVuSans-33"/>
       <use xlink:href="#DejaVuSans-2e" transform="translate(63.623047 0)"/>
       <use xlink:href="#DejaVuSans-35" transform="translate(95.410156 0)"/>
      </g>
     </g>
    </g>
    <g id="xtick_15">
     <g id="line2d_28">
      <g>
       <use xlink:href="#m853db7559a" x="792.45259" y="257.158895" style="stroke: #000000; stroke-width: 0.8"/>
      </g>
     </g>
     <g id="text_29">
      <!-- 4.0 -->
      <g transform="translate(784.501028 271.757332) scale(0.1 -0.1)">
       <use xlink:href="#DejaVuSans-34"/>
       <use xlink:href="#DejaVuSans-2e" transform="translate(63.623047 0)"/>
       <use xlink:href="#DejaVuSans-30" transform="translate(95.410156 0)"/>
      </g>
     </g>
    </g>
    <g id="xtick_16">
     <g id="line2d_29">
      <g>
       <use xlink:href="#m853db7559a" x="838.494951" y="257.158895" style="stroke: #000000; stroke-width: 0.8"/>
      </g>
     </g>
     <g id="text_30">
      <!-- 4.5 -->
      <g transform="translate(830.543388 271.757332) scale(0.1 -0.1)">
       <use xlink:href="#DejaVuSans-34"/>
       <use xlink:href="#DejaVuSans-2e" transform="translate(63.623047 0)"/>
       <use xlink:href="#DejaVuSans-35" transform="translate(95.410156 0)"/>
      </g>
     </g>
    </g>
    <g id="text_31">
     <!-- wavelength [Å] -->
     <g transform="translate(634.704952 287.119832) scale(0.1 -0.1)">
      <use xlink:href="#DejaVuSans-77"/>
      <use xlink:href="#DejaVuSans-61" transform="translate(81.787109 0)"/>
      <use xlink:href="#DejaVuSans-76" transform="translate(143.066406 0)"/>
      <use xlink:href="#DejaVuSans-65" transform="translate(202.246094 0)"/>
      <use xlink:href="#DejaVuSans-6c" transform="translate(263.769531 0)"/>
      <use xlink:href="#DejaVuSans-65" transform="translate(291.552734 0)"/>
      <use xlink:href="#DejaVuSans-6e" transform="translate(353.076172 0)"/>
      <use xlink:href="#DejaVuSans-67" transform="translate(416.455078 0)"/>
      <use xlink:href="#DejaVuSans-74" transform="translate(479.931641 0)"/>
      <use xlink:href="#DejaVuSans-68" transform="translate(519.140625 0)"/>
      <use xlink:href="#DejaVuSans-20" transform="translate(582.519531 0)"/>
      <use xlink:href="#DejaVuSans-5b" transform="translate(614.306641 0)"/>
      <use xlink:href="#DejaVuSans-c5" transform="translate(653.320312 0)"/>
      <use xlink:href="#DejaVuSans-5d" transform="translate(721.728516 0)"/>
     </g>
    </g>
   </g>
   <g id="matplotlib.axis_4">
    <g id="ytick_10">
     <g id="line2d_30">
      <g>
       <use xlink:href="#mbea0ac31c4" x="480.285385" y="246.484315" style="stroke: #000000; stroke-width: 0.8"/>
      </g>
     </g>
     <g id="text_32">
      <!-- 0 -->
      <g transform="translate(466.922885 250.283533) scale(0.1 -0.1)">
       <use xlink:href="#DejaVuSans-30"/>
      </g>
     </g>
    </g>
    <g id="ytick_11">
     <g id="line2d_31">
      <g>
       <use xlink:href="#mbea0ac31c4" x="480.285385" y="220.062086" style="stroke: #000000; stroke-width: 0.8"/>
      </g>
     </g>
     <g id="text_33">
      <!-- 100 -->
      <g transform="translate(454.197885 223.861304) scale(0.1 -0.1)">
       <use xlink:href="#DejaVuSans-31"/>
       <use xlink:href="#DejaVuSans-30" transform="translate(63.623047 0)"/>
       <use xlink:href="#DejaVuSans-30" transform="translate(127.246094 0)"/>
      </g>
     </g>
    </g>
    <g id="ytick_12">
     <g id="line2d_32">
      <g>
       <use xlink:href="#mbea0ac31c4" x="480.285385" y="193.639857" style="stroke: #000000; stroke-width: 0.8"/>
      </g>
     </g>
     <g id="text_34">
      <!-- 200 -->
      <g transform="translate(454.197885 197.439076) scale(0.1 -0.1)">
       <use xlink:href="#DejaVuSans-32"/>
       <use xlink:href="#DejaVuSans-30" transform="translate(63.623047 0)"/>
       <use xlink:href="#DejaVuSans-30" transform="translate(127.246094 0)"/>
      </g>
     </g>
    </g>
    <g id="ytick_13">
     <g id="line2d_33">
      <g>
       <use xlink:href="#mbea0ac31c4" x="480.285385" y="167.217628" style="stroke: #000000; stroke-width: 0.8"/>
      </g>
     </g>
     <g id="text_35">
      <!-- 300 -->
      <g transform="translate(454.197885 171.016847) scale(0.1 -0.1)">
       <use xlink:href="#DejaVuSans-33"/>
       <use xlink:href="#DejaVuSans-30" transform="translate(63.623047 0)"/>
       <use xlink:href="#DejaVuSans-30" transform="translate(127.246094 0)"/>
      </g>
     </g>
    </g>
    <g id="ytick_14">
     <g id="line2d_34">
      <g>
       <use xlink:href="#mbea0ac31c4" x="480.285385" y="140.795399" style="stroke: #000000; stroke-width: 0.8"/>
      </g>
     </g>
     <g id="text_36">
      <!-- 400 -->
      <g transform="translate(454.197885 144.594618) scale(0.1 -0.1)">
       <use xlink:href="#DejaVuSans-34"/>
       <use xlink:href="#DejaVuSans-30" transform="translate(63.623047 0)"/>
       <use xlink:href="#DejaVuSans-30" transform="translate(127.246094 0)"/>
      </g>
     </g>
    </g>
    <g id="ytick_15">
     <g id="line2d_35">
      <g>
       <use xlink:href="#mbea0ac31c4" x="480.285385" y="114.37317" style="stroke: #000000; stroke-width: 0.8"/>
      </g>
     </g>
     <g id="text_37">
      <!-- 500 -->
      <g transform="translate(454.197885 118.172389) scale(0.1 -0.1)">
       <use xlink:href="#DejaVuSans-35"/>
       <use xlink:href="#DejaVuSans-30" transform="translate(63.623047 0)"/>
       <use xlink:href="#DejaVuSans-30" transform="translate(127.246094 0)"/>
      </g>
     </g>
    </g>
    <g id="ytick_16">
     <g id="line2d_36">
      <g>
       <use xlink:href="#mbea0ac31c4" x="480.285385" y="87.950941" style="stroke: #000000; stroke-width: 0.8"/>
      </g>
     </g>
     <g id="text_38">
      <!-- 600 -->
      <g transform="translate(454.197885 91.75016) scale(0.1 -0.1)">
       <use xlink:href="#DejaVuSans-36"/>
       <use xlink:href="#DejaVuSans-30" transform="translate(63.623047 0)"/>
       <use xlink:href="#DejaVuSans-30" transform="translate(127.246094 0)"/>
      </g>
     </g>
    </g>
    <g id="ytick_17">
     <g id="line2d_37">
      <g>
       <use xlink:href="#mbea0ac31c4" x="480.285385" y="61.528713" style="stroke: #000000; stroke-width: 0.8"/>
      </g>
     </g>
     <g id="text_39">
      <!-- 700 -->
      <g transform="translate(454.197885 65.327931) scale(0.1 -0.1)">
       <use xlink:href="#DejaVuSans-37"/>
       <use xlink:href="#DejaVuSans-30" transform="translate(63.623047 0)"/>
       <use xlink:href="#DejaVuSans-30" transform="translate(127.246094 0)"/>
      </g>
     </g>
    </g>
    <g id="ytick_18">
     <g id="line2d_38">
      <g>
       <use xlink:href="#mbea0ac31c4" x="480.285385" y="35.106484" style="stroke: #000000; stroke-width: 0.8"/>
      </g>
     </g>
     <g id="text_40">
      <!-- 800 -->
      <g transform="translate(454.197885 38.905703) scale(0.1 -0.1)">
       <use xlink:href="#DejaVuSans-38"/>
       <use xlink:href="#DejaVuSans-30" transform="translate(63.623047 0)"/>
       <use xlink:href="#DejaVuSans-30" transform="translate(127.246094 0)"/>
      </g>
     </g>
    </g>
    <g id="text_41">
     <!-- [counts] -->
     <g transform="translate(448.118198 160.35101) rotate(-90) scale(0.1 -0.1)">
      <use xlink:href="#DejaVuSans-5b"/>
      <use xlink:href="#DejaVuSans-63" transform="translate(39.013672 0)"/>
      <use xlink:href="#DejaVuSans-6f" transform="translate(93.994141 0)"/>
      <use xlink:href="#DejaVuSans-75" transform="translate(155.175781 0)"/>
      <use xlink:href="#DejaVuSans-6e" transform="translate(218.554688 0)"/>
      <use xlink:href="#DejaVuSans-74" transform="translate(281.933594 0)"/>
      <use xlink:href="#DejaVuSans-73" transform="translate(321.142578 0)"/>
      <use xlink:href="#DejaVuSans-5d" transform="translate(373.242188 0)"/>
     </g>
    </g>
   </g>
   <g id="patch_9">
    <path d="M 480.285385 257.158895 
L 480.285385 22.318125 
" style="fill: none; stroke: #000000; stroke-width: 0.8; stroke-linejoin: miter; stroke-linecap: square"/>
   </g>
   <g id="patch_10">
    <path d="M 865.19952 257.158895 
L 865.19952 22.318125 
" style="fill: none; stroke: #000000; stroke-width: 0.8; stroke-linejoin: miter; stroke-linecap: square"/>
   </g>
   <g id="patch_11">
    <path d="M 480.285385 257.158895 
L 865.19952 257.158895 
" style="fill: none; stroke: #000000; stroke-width: 0.8; stroke-linejoin: miter; stroke-linecap: square"/>
   </g>
   <g id="patch_12">
    <path d="M 480.285385 22.318125 
L 865.19952 22.318125 
" style="fill: none; stroke: #000000; stroke-width: 0.8; stroke-linejoin: miter; stroke-linecap: square"/>
   </g>
   <g id="text_42">
    <!-- Pixel 2 -->
    <g transform="translate(653.14589 16.318125) scale(0.12 -0.12)">
     <use xlink:href="#DejaVuSans-50"/>
     <use xlink:href="#DejaVuSans-69" transform="translate(58.052734 0)"/>
     <use xlink:href="#DejaVuSans-78" transform="translate(85.835938 0)"/>
     <use xlink:href="#DejaVuSans-65" transform="translate(141.890625 0)"/>
     <use xlink:href="#DejaVuSans-6c" transform="translate(203.414062 0)"/>
     <use xlink:href="#DejaVuSans-20" transform="translate(231.197266 0)"/>
     <use xlink:href="#DejaVuSans-32" transform="translate(262.984375 0)"/>
    </g>
   </g>
   <g id="legend_2">
    <g id="patch_13">
     <path d="M 761.196395 59.9525 
L 858.19952 59.9525 
Q 860.19952 59.9525 860.19952 57.9525 
L 860.19952 29.318125 
Q 860.19952 27.318125 858.19952 27.318125 
L 761.196395 27.318125 
Q 759.196395 27.318125 759.196395 29.318125 
L 759.196395 57.9525 
Q 759.196395 59.9525 761.196395 59.9525 
z
" style="fill: #ffffff; opacity: 0.8; stroke: #cccccc; stroke-linejoin: miter"/>
    </g>
    <g id="line2d_39">
     <path d="M 763.196395 35.416562 
L 763.196395 35.416562 
L 773.196395 35.416562 
L 773.196395 35.416562 
L 783.196395 35.416562 
" style="fill: none; stroke: #1f77b4; stroke-width: 1.5; stroke-linecap: square"/>
    </g>
    <g id="text_43">
     <!-- wfm -->
     <g transform="translate(791.196395 38.916562) scale(0.1 -0.1)">
      <use xlink:href="#DejaVuSans-77"/>
      <use xlink:href="#DejaVuSans-66" transform="translate(81.787109 0)"/>
      <use xlink:href="#DejaVuSans-6d" transform="translate(116.992188 0)"/>
     </g>
    </g>
    <g id="line2d_40">
     <path d="M 763.196395 50.094687 
L 763.196395 50.094687 
L 773.196395 50.094687 
L 773.196395 50.094687 
L 783.196395 50.094687 
" style="fill: none; stroke: #ff7f0e; stroke-width: 1.5; stroke-linecap: square"/>
    </g>
    <g id="text_44">
     <!-- ground_truth -->
     <g transform="translate(791.196395 53.594687) scale(0.1 -0.1)">
      <use xlink:href="#DejaVuSans-67"/>
      <use xlink:href="#DejaVuSans-72" transform="translate(63.476562 0)"/>
      <use xlink:href="#DejaVuSans-6f" transform="translate(102.339844 0)"/>
      <use xlink:href="#DejaVuSans-75" transform="translate(163.521484 0)"/>
      <use xlink:href="#DejaVuSans-6e" transform="translate(226.900391 0)"/>
      <use xlink:href="#DejaVuSans-64" transform="translate(290.279297 0)"/>
      <use xlink:href="#DejaVuSans-5f" transform="translate(353.755859 0)"/>
      <use xlink:href="#DejaVuSans-74" transform="translate(403.755859 0)"/>
      <use xlink:href="#DejaVuSans-72" transform="translate(442.964844 0)"/>
      <use xlink:href="#DejaVuSans-75" transform="translate(484.078125 0)"/>
      <use xlink:href="#DejaVuSans-74" transform="translate(547.457031 0)"/>
      <use xlink:href="#DejaVuSans-68" transform="translate(586.666016 0)"/>
     </g>
    </g>
   </g>
   <g id="line2d_41">
    <path d="M 497.781482 246.484315 
L 506.529531 246.484315 
L 506.529531 244.634759 
L 508.27914 244.634759 
L 508.27914 235.386978 
L 510.02875 235.386978 
L 510.02875 229.83831 
L 511.77836 229.83831 
L 511.77836 222.968531 
L 513.527969 222.968531 
L 513.527969 213.192306 
L 515.277579 213.192306 
L 515.277579 202.887637 
L 517.027189 202.887637 
L 517.027189 200.245414 
L 518.776799 200.245414 
L 518.776799 182.014076 
L 520.526408 182.014076 
L 520.526408 183.335188 
L 522.276018 183.335188 
L 522.276018 167.746073 
L 524.025628 167.746073 
L 524.025628 160.612071 
L 525.775237 160.612071 
L 525.775237 159.819404 
L 527.524847 159.819404 
L 527.524847 150.571624 
L 529.274457 150.571624 
L 529.274457 145.022956 
L 531.024066 145.022956 
L 531.024066 138.945843 
L 532.773676 138.945843 
L 532.773676 123.092506 
L 534.523286 123.092506 
L 534.523286 107.503391 
L 536.272896 107.503391 
L 536.272896 111.466725 
L 538.022505 111.466725 
L 538.022505 103.540056 
L 539.772115 103.540056 
L 539.772115 104.068501 
L 541.521725 104.068501 
L 541.521725 82.930718 
L 543.271334 82.930718 
L 543.271334 97.198722 
L 545.020944 97.198722 
L 545.020944 78.174717 
L 546.770554 78.174717 
L 546.770554 77.646272 
L 548.520163 77.646272 
L 548.520163 85.572941 
L 550.269773 85.572941 
L 550.269773 63.378269 
L 552.019383 63.378269 
L 552.019383 67.870048 
L 553.768993 67.870048 
L 553.768993 63.378269 
L 555.518602 63.378269 
L 555.518602 46.732264 
L 557.268212 46.732264 
L 557.268212 43.561597 
L 559.017822 43.561597 
L 559.017822 54.658933 
L 560.767431 54.658933 
L 560.767431 46.732264 
L 562.517041 46.732264 
L 562.517041 56.772711 
L 564.266651 56.772711 
L 564.266651 38.541374 
L 566.016261 38.541374 
L 566.016261 42.240486 
L 567.76587 42.240486 
L 567.76587 39.862485 
L 569.51548 39.862485 
L 569.51548 46.996487 
L 571.26509 46.996487 
L 571.26509 55.980045 
L 573.014699 55.980045 
L 573.014699 62.321379 
L 574.764309 62.321379 
L 574.764309 61.26449 
L 576.513919 61.26449 
L 576.513919 68.398492 
L 578.263528 68.398492 
L 578.263528 61.000268 
L 580.013138 61.000268 
L 580.013138 56.772711 
L 581.762748 56.772711 
L 581.762748 63.378269 
L 583.512358 63.378269 
L 583.512358 71.040715 
L 585.261967 71.040715 
L 585.261967 73.682938 
L 587.011577 73.682938 
L 587.011577 70.776493 
L 588.761187 70.776493 
L 588.761187 75.268272 
L 590.510796 75.268272 
L 590.510796 77.38205 
L 592.260406 77.38205 
L 592.260406 79.760051 
L 594.010016 79.760051 
L 594.010016 82.930718 
L 595.759626 82.930718 
L 595.759626 80.552717 
L 597.509235 80.552717 
L 597.509235 90.328942 
L 599.258845 90.328942 
L 599.258845 78.967384 
L 601.008455 78.967384 
L 601.008455 95.349166 
L 602.758064 95.349166 
L 602.758064 80.024273 
L 604.507674 80.024273 
L 604.507674 71.833382 
L 606.257284 71.833382 
L 606.257284 103.275834 
L 608.006893 103.275834 
L 608.006893 92.971165 
L 609.756503 92.971165 
L 609.756503 93.235387 
L 611.506113 93.235387 
L 611.506113 77.646272 
L 613.255723 77.646272 
L 613.255723 87.686719 
L 615.005332 87.686719 
L 615.005332 76.853605 
L 616.754942 76.853605 
L 616.754942 86.101385 
L 618.504552 86.101385 
L 618.504552 95.349166 
L 620.254161 95.349166 
L 620.254161 99.048278 
L 622.003771 99.048278 
L 622.003771 97.198722 
L 623.753381 97.198722 
L 623.753381 100.105167 
L 625.50299 100.105167 
L 625.50299 100.897834 
L 627.2526 100.897834 
L 627.2526 96.141832 
L 629.00221 96.141832 
L 629.00221 95.349166 
L 630.75182 95.349166 
L 630.75182 104.332723 
L 632.501429 104.332723 
L 632.501429 99.3125 
L 634.251039 99.3125 
L 634.251039 113.844726 
L 636.000649 113.844726 
L 636.000649 123.356728 
L 637.750258 123.356728 
L 637.750258 125.734729 
L 639.499868 125.734729 
L 639.499868 127.584285 
L 641.249478 127.584285 
L 641.249478 146.872512 
L 642.999088 146.872512 
L 642.999088 156.648736 
L 644.748697 156.648736 
L 644.748697 146.872512 
L 646.498307 146.872512 
L 646.498307 160.083626 
L 648.247917 160.083626 
L 648.247917 172.502074 
L 649.997526 172.502074 
L 649.997526 187.0343 
L 651.747136 187.0343 
L 651.747136 186.505855 
L 653.496746 186.505855 
L 653.496746 198.395858 
L 655.246355 198.395858 
L 655.246355 206.850971 
L 656.995965 206.850971 
L 656.995965 209.493194 
L 658.745575 209.493194 
L 658.745575 213.984973 
L 660.495185 213.984973 
L 660.495185 223.761198 
L 662.244794 223.761198 
L 662.244794 233.008978 
L 663.994404 233.008978 
L 663.994404 236.179645 
L 665.744014 236.179645 
L 665.744014 240.407202 
L 667.493623 240.407202 
L 667.493623 242.52098 
L 669.243233 242.52098 
L 669.243233 243.842092 
L 670.992843 243.842092 
L 670.992843 240.671424 
L 672.742453 240.671424 
L 672.742453 233.008978 
L 674.492062 233.008978 
L 674.492062 224.553865 
L 676.241672 224.553865 
L 676.241672 219.533641 
L 677.991282 219.533641 
L 677.991282 211.871195 
L 679.740891 211.871195 
L 679.740891 206.850971 
L 681.490501 206.850971 
L 681.490501 200.245414 
L 683.240111 200.245414 
L 683.240111 201.038081 
L 684.98972 201.038081 
L 684.98972 192.84719 
L 686.73933 192.84719 
L 686.73933 178.050742 
L 688.48894 178.050742 
L 688.48894 177.78652 
L 690.23855 177.78652 
L 690.23855 177.522297 
L 691.988159 177.522297 
L 691.988159 162.725849 
L 693.737769 162.725849 
L 693.737769 164.839627 
L 695.487379 164.839627 
L 695.487379 165.632294 
L 697.236988 165.632294 
L 697.236988 159.555182 
L 698.986598 159.555182 
L 698.986598 150.835846 
L 702.485817 150.835846 
L 702.485817 142.380733 
L 704.235427 142.380733 
L 704.235427 140.531177 
L 705.985037 140.531177 
L 705.985037 135.510953 
L 707.734647 135.510953 
L 707.734647 137.360509 
L 709.484256 137.360509 
L 709.484256 121.507172 
L 711.233866 121.507172 
L 711.233866 130.754952 
L 712.983476 130.754952 
L 712.983476 131.547619 
L 714.733085 131.547619 
L 714.733085 119.657616 
L 716.482695 119.657616 
L 716.482695 119.393394 
L 718.232305 119.393394 
L 718.232305 116.486949 
L 719.981915 116.486949 
L 719.981915 109.352947 
L 721.731524 109.352947 
L 721.731524 111.730947 
L 723.481134 111.730947 
L 723.481134 105.653835 
L 725.230744 105.653835 
L 725.230744 101.426278 
L 726.980353 101.426278 
L 726.980353 97.462944 
L 728.729963 97.462944 
L 728.729963 117.279615 
L 730.479573 117.279615 
L 730.479573 106.182279 
L 732.229182 106.182279 
L 732.229182 114.108948 
L 733.978792 114.108948 
L 733.978792 119.129171 
L 735.728402 119.129171 
L 735.728402 123.092506 
L 737.478012 123.092506 
L 737.478012 113.844726 
L 739.227621 113.844726 
L 739.227621 124.149395 
L 740.977231 124.149395 
L 740.977231 132.604508 
L 742.726841 132.604508 
L 742.726841 130.754952 
L 744.47645 130.754952 
L 744.47645 145.815623 
L 746.22606 145.815623 
L 746.22606 147.400956 
L 747.97567 147.400956 
L 747.97567 138.153176 
L 749.725279 138.153176 
L 749.725279 137.360509 
L 751.474889 137.360509 
L 751.474889 130.226508 
L 753.224499 130.226508 
L 753.224499 139.210065 
L 754.974109 139.210065 
L 754.974109 129.433841 
L 756.723718 129.433841 
L 756.723718 145.022956 
L 758.473328 145.022956 
L 758.473328 147.136734 
L 760.222938 147.136734 
L 760.222938 146.079845 
L 761.972547 146.079845 
L 761.972547 152.685402 
L 763.722157 152.685402 
L 763.722157 158.762515 
L 765.471767 158.762515 
L 765.471767 152.685402 
L 767.221377 152.685402 
L 767.221377 156.912959 
L 768.970986 156.912959 
L 768.970986 151.364291 
L 770.720596 151.364291 
L 770.720596 158.23407 
L 772.470206 158.23407 
L 772.470206 156.648736 
L 774.219815 156.648736 
L 774.219815 162.990071 
L 775.969425 162.990071 
L 775.969425 150.307402 
L 777.719035 150.307402 
L 777.719035 167.48185 
L 779.468644 167.48185 
L 779.468644 160.876293 
L 781.218254 160.876293 
L 781.218254 170.124073 
L 782.967864 170.124073 
L 782.967864 173.030518 
L 784.717474 173.030518 
L 784.717474 179.107631 
L 786.467083 179.107631 
L 786.467083 171.180962 
L 788.216693 171.180962 
L 788.216693 175.672741 
L 789.966303 175.672741 
L 789.966303 174.615852 
L 791.715912 174.615852 
L 791.715912 179.636076 
L 793.465522 179.636076 
L 793.465522 181.485632 
L 795.215132 181.485632 
L 795.215132 184.920521 
L 796.964742 184.920521 
L 796.964742 187.562744 
L 798.714351 187.562744 
L 798.714351 190.997634 
L 800.463961 190.997634 
L 800.463961 190.733412 
L 802.213571 190.733412 
L 802.213571 199.981192 
L 803.96318 199.981192 
L 803.96318 203.944526 
L 805.71279 203.944526 
L 805.71279 202.359192 
L 807.4624 202.359192 
L 807.4624 212.399639 
L 809.212009 212.399639 
L 809.212009 212.928084 
L 810.961619 212.928084 
L 810.961619 216.098751 
L 812.711229 216.098751 
L 812.711229 219.797863 
L 814.460839 219.797863 
L 814.460839 222.440086 
L 817.960058 222.440086 
L 817.960058 226.403421 
L 819.709668 226.403421 
L 819.709668 228.781421 
L 821.459277 228.781421 
L 821.459277 234.594312 
L 823.208887 234.594312 
L 823.208887 237.764979 
L 824.958497 237.764979 
L 824.958497 237.500757 
L 826.708106 237.500757 
L 826.708106 240.671424 
L 828.457716 240.671424 
L 828.457716 242.256758 
L 830.207326 242.256758 
L 830.207326 244.106314 
L 831.956936 244.106314 
L 831.956936 243.313647 
L 833.706545 243.313647 
L 833.706545 244.370536 
L 835.456155 244.370536 
L 835.456155 244.898981 
L 837.205765 244.898981 
L 837.205765 246.220092 
L 838.955374 246.220092 
L 838.955374 246.484315 
L 847.703423 246.484315 
L 847.703423 246.484315 
" clip-path="url(#p07c1049066)" style="fill: none; stroke: #1f77b4; stroke-width: 1.5; stroke-linecap: square"/>
   </g>
   <g id="line2d_42">
    <path d="M 497.781482 246.484315 
L 506.529531 246.484315 
L 506.529531 242.785203 
L 508.27914 242.785203 
L 508.27914 235.386978 
L 510.02875 235.386978 
L 510.02875 229.574088 
L 511.77836 229.574088 
L 511.77836 223.232753 
L 513.527969 223.232753 
L 513.527969 212.399639 
L 515.277579 212.399639 
L 515.277579 203.416082 
L 517.027189 203.416082 
L 517.027189 199.981192 
L 518.776799 199.981192 
L 518.776799 181.485632 
L 520.526408 181.485632 
L 520.526408 184.920521 
L 522.276018 184.920521 
L 522.276018 166.689183 
L 524.025628 166.689183 
L 524.025628 165.632294 
L 525.775237 165.632294 
L 525.775237 153.213847 
L 529.274457 153.213847 
L 529.274457 144.494511 
L 531.024066 144.494511 
L 531.024066 137.096287 
L 532.773676 137.096287 
L 532.773676 116.751171 
L 534.523286 116.751171 
L 534.523286 120.714505 
L 536.272896 120.714505 
L 536.272896 103.011612 
L 538.022505 103.011612 
L 538.022505 109.617169 
L 539.772115 109.617169 
L 539.772115 94.820721 
L 541.521725 94.820721 
L 541.521725 89.536275 
L 543.271334 89.536275 
L 543.271334 99.048278 
L 545.020944 99.048278 
L 545.020944 75.268272 
L 546.770554 75.268272 
L 546.770554 77.38205 
L 548.520163 77.38205 
L 548.520163 80.552717 
L 550.269773 80.552717 
L 550.269773 68.13427 
L 552.019383 68.13427 
L 552.019383 68.926937 
L 553.768993 68.926937 
L 553.768993 60.736046 
L 555.518602 60.736046 
L 555.518602 44.090042 
L 557.268212 44.090042 
L 557.268212 47.524931 
L 559.017822 47.524931 
L 559.017822 53.337822 
L 560.767431 53.337822 
L 560.767431 49.110265 
L 562.517041 49.110265 
L 562.517041 53.073599 
L 564.266651 53.073599 
L 564.266651 32.992705 
L 566.016261 32.992705 
L 566.016261 46.468042 
L 567.76587 46.468042 
L 567.76587 39.33404 
L 569.51548 39.33404 
L 569.51548 58.88649 
L 571.26509 58.88649 
L 571.26509 48.58182 
L 573.014699 48.58182 
L 573.014699 65.756269 
L 574.764309 65.756269 
L 574.764309 63.378269 
L 576.513919 63.378269 
L 576.513919 61.792935 
L 578.263528 61.792935 
L 578.263528 61.528713 
L 580.013138 61.528713 
L 580.013138 61.792935 
L 581.762748 61.792935 
L 581.762748 49.110265 
L 583.512358 49.110265 
L 583.512358 75.532494 
L 585.261967 75.532494 
L 585.261967 83.987607 
L 587.011577 83.987607 
L 587.011577 71.040715 
L 588.761187 71.040715 
L 588.761187 71.56916 
L 590.510796 71.56916 
L 590.510796 77.38205 
L 592.260406 77.38205 
L 592.260406 82.930718 
L 594.010016 82.930718 
L 594.010016 85.308719 
L 595.759626 85.308719 
L 595.759626 71.833382 
L 597.509235 71.833382 
L 597.509235 91.650053 
L 599.258845 91.650053 
L 599.258845 86.365608 
L 601.008455 86.365608 
L 601.008455 87.686719 
L 602.758064 87.686719 
L 602.758064 81.345384 
L 604.507674 81.345384 
L 604.507674 75.004049 
L 606.257284 75.004049 
L 606.257284 91.914276 
L 608.006893 91.914276 
L 608.006893 101.162056 
L 609.756503 101.162056 
L 609.756503 96.141832 
L 611.506113 96.141832 
L 611.506113 82.138051 
L 613.255723 82.138051 
L 613.255723 81.081162 
L 615.005332 81.081162 
L 615.005332 87.686719 
L 616.754942 87.686719 
L 616.754942 74.475605 
L 618.504552 74.475605 
L 618.504552 92.706943 
L 620.254161 92.706943 
L 620.254161 99.840944 
L 622.003771 99.840944 
L 622.003771 104.596946 
L 623.753381 104.596946 
L 623.753381 99.048278 
L 625.50299 99.048278 
L 625.50299 89.536275 
L 627.2526 89.536275 
L 627.2526 105.653835 
L 629.00221 105.653835 
L 629.00221 101.954723 
L 630.75182 101.954723 
L 630.75182 93.763832 
L 632.501429 93.763832 
L 632.501429 108.031835 
L 634.251039 108.031835 
L 634.251039 112.787837 
L 636.000649 112.787837 
L 636.000649 123.885173 
L 637.750258 123.885173 
L 637.750258 121.24295 
L 639.499868 121.24295 
L 639.499868 127.320062 
L 641.249478 127.320062 
L 641.249478 143.701844 
L 642.999088 143.701844 
L 642.999088 155.591847 
L 644.748697 155.591847 
L 644.748697 149.514735 
L 646.498307 149.514735 
L 646.498307 161.933182 
L 648.247917 161.933182 
L 648.247917 172.237851 
L 649.997526 172.237851 
L 649.997526 185.713188 
L 651.747136 185.713188 
L 651.747136 186.505855 
L 653.496746 186.505855 
L 653.496746 198.131636 
L 655.246355 198.131636 
L 655.246355 207.90786 
L 658.745575 207.90786 
L 658.745575 215.041862 
L 660.495185 215.041862 
L 660.495185 225.874976 
L 662.244794 225.874976 
L 662.244794 231.687866 
L 663.994404 231.687866 
L 663.994404 235.651201 
L 665.744014 235.651201 
L 665.744014 240.14298 
L 667.493623 240.14298 
L 667.493623 243.049425 
L 669.243233 243.049425 
L 669.243233 243.313647 
L 670.992843 243.313647 
L 670.992843 238.557646 
L 672.742453 238.557646 
L 672.742453 234.858534 
L 674.492062 234.858534 
L 674.492062 223.761198 
L 676.241672 223.761198 
L 676.241672 219.797863 
L 677.991282 219.797863 
L 677.991282 211.078528 
L 679.740891 211.078528 
L 679.740891 207.115194 
L 681.490501 207.115194 
L 681.490501 201.038081 
L 683.240111 201.038081 
L 683.240111 200.245414 
L 684.98972 200.245414 
L 684.98972 191.261856 
L 686.73933 191.261856 
L 686.73933 179.636076 
L 688.48894 179.636076 
L 688.48894 176.72963 
L 690.23855 176.72963 
L 690.23855 178.843409 
L 691.988159 178.843409 
L 691.988159 161.140515 
L 693.737769 161.140515 
L 693.737769 167.217628 
L 695.487379 167.217628 
L 695.487379 164.575405 
L 697.236988 164.575405 
L 697.236988 156.912959 
L 698.986598 156.912959 
L 698.986598 156.384514 
L 700.736208 156.384514 
L 700.736208 143.701844 
L 702.485817 143.701844 
L 702.485817 147.400956 
L 704.235427 147.400956 
L 704.235427 144.494511 
L 705.985037 144.494511 
L 705.985037 131.811841 
L 707.734647 131.811841 
L 707.734647 129.433841 
L 709.484256 129.433841 
L 709.484256 130.226508 
L 711.233866 130.226508 
L 711.233866 129.433841 
L 712.983476 129.433841 
L 712.983476 124.67784 
L 714.733085 124.67784 
L 714.733085 122.564061 
L 716.482695 122.564061 
L 716.482695 125.998951 
L 718.232305 125.998951 
L 718.232305 119.393394 
L 719.981915 119.393394 
L 719.981915 102.74739 
L 721.731524 102.74739 
L 721.731524 113.844726 
L 723.481134 113.844726 
L 723.481134 103.011612 
L 725.230744 103.011612 
L 725.230744 100.105167 
L 726.980353 100.105167 
L 726.980353 101.954723 
L 728.729963 101.954723 
L 728.729963 109.352947 
L 730.479573 109.352947 
L 730.479573 116.486949 
L 732.229182 116.486949 
L 732.229182 112.787837 
L 733.978792 112.787837 
L 733.978792 119.393394 
L 735.728402 119.393394 
L 735.728402 123.092506 
L 737.478012 123.092506 
L 737.478012 115.430059 
L 739.227621 115.430059 
L 739.227621 120.450283 
L 740.977231 120.450283 
L 740.977231 136.832065 
L 742.726841 136.832065 
L 742.726841 123.092506 
L 744.47645 123.092506 
L 744.47645 148.193623 
L 746.22606 148.193623 
L 746.22606 146.079845 
L 747.97567 146.079845 
L 747.97567 129.698063 
L 749.725279 129.698063 
L 749.725279 143.1734 
L 751.474889 143.1734 
L 751.474889 132.86873 
L 753.224499 132.86873 
L 753.224499 136.567843 
L 754.974109 136.567843 
L 754.974109 141.323844 
L 756.723718 141.323844 
L 756.723718 136.039398 
L 758.473328 136.039398 
L 758.473328 144.230289 
L 760.222938 144.230289 
L 760.222938 151.364291 
L 761.972547 151.364291 
L 761.972547 152.949624 
L 763.722157 152.949624 
L 763.722157 155.063403 
L 765.471767 155.063403 
L 765.471767 155.85607 
L 767.221377 155.85607 
L 767.221377 153.213847 
L 768.970986 153.213847 
L 768.970986 156.648736 
L 770.720596 156.648736 
L 770.720596 161.140515 
L 772.470206 161.140515 
L 772.470206 159.819404 
L 774.219815 159.819404 
L 774.219815 151.364291 
L 775.969425 151.364291 
L 775.969425 156.384514 
L 777.719035 156.384514 
L 777.719035 163.782738 
L 779.468644 163.782738 
L 779.468644 169.331406 
L 781.218254 169.331406 
L 781.218254 165.896517 
L 782.967864 165.896517 
L 782.967864 162.990071 
L 784.717474 162.990071 
L 784.717474 183.59941 
L 786.467083 183.59941 
L 786.467083 172.502074 
L 788.216693 172.502074 
L 788.216693 177.258075 
L 789.966303 177.258075 
L 789.966303 177.522297 
L 791.715912 177.522297 
L 791.715912 176.465408 
L 793.465522 176.465408 
L 793.465522 178.579186 
L 795.215132 178.579186 
L 795.215132 187.826967 
L 796.964742 187.826967 
L 796.964742 186.241633 
L 798.714351 186.241633 
L 798.714351 188.883856 
L 800.463961 188.883856 
L 800.463961 192.582968 
L 802.213571 192.582968 
L 802.213571 199.452747 
L 803.96318 199.452747 
L 803.96318 202.359192 
L 805.71279 202.359192 
L 805.71279 206.586749 
L 807.4624 206.586749 
L 807.4624 210.021639 
L 809.212009 210.021639 
L 809.212009 210.814306 
L 810.961619 210.814306 
L 810.961619 220.854753 
L 812.711229 220.854753 
L 812.711229 219.533641 
L 814.460839 219.533641 
L 814.460839 218.476752 
L 816.210448 218.476752 
L 816.210448 224.818087 
L 817.960058 224.818087 
L 817.960058 227.724532 
L 819.709668 227.724532 
L 819.709668 226.931865 
L 821.459277 226.931865 
L 821.459277 235.915423 
L 823.208887 235.915423 
L 823.208887 237.236534 
L 824.958497 237.236534 
L 824.958497 238.029201 
L 826.708106 238.029201 
L 826.708106 239.614535 
L 828.457716 239.614535 
L 828.457716 243.049425 
L 830.207326 243.049425 
L 830.207326 243.842092 
L 831.956936 243.842092 
L 831.956936 243.313647 
L 833.706545 243.313647 
L 833.706545 244.634759 
L 835.456155 244.634759 
L 835.456155 244.898981 
L 837.205765 244.898981 
L 837.205765 245.691648 
L 838.955374 245.691648 
L 838.955374 246.220092 
L 840.704984 246.220092 
L 840.704984 246.484315 
L 847.703423 246.484315 
L 847.703423 246.484315 
" clip-path="url(#p07c1049066)" style="fill: none; stroke: #ff7f0e; stroke-width: 1.5; stroke-linecap: square"/>
   </g>
  </g>
 </g>
 <defs>
  <clipPath id="p617a5d35a5">
   <rect x="46.965625" y="22.318125" width="384.914135" height="234.84077"/>
  </clipPath>
  <clipPath id="p07c1049066">
   <rect x="480.285385" y="22.318125" width="384.914135" height="234.84077"/>
  </clipPath>
 </defs>
</svg>
