<?xml version="1.0" encoding="utf-8" standalone="no"?>
<!DOCTYPE svg PUBLIC "-//W3C//DTD SVG 1.1//EN"
  "http://www.w3.org/Graphics/SVG/1.1/DTD/svg11.dtd">
<svg xmlns:xlink="http://www.w3.org/1999/xlink" width="872.39952pt" height="296.39952pt" viewBox="0 0 872.39952 296.39952" xmlns="http://www.w3.org/2000/svg" version="1.1">
 <metadata>
  <rdf:RDF xmlns:dc="http://purl.org/dc/elements/1.1/" xmlns:cc="http://creativecommons.org/ns#" xmlns:rdf="http://www.w3.org/1999/02/22-rdf-syntax-ns#">
   <cc:Work>
    <dc:type rdf:resource="http://purl.org/dc/dcmitype/StillImage"/>
    <dc:date>2025-11-19T12:42:16.833237</dc:date>
    <dc:format>image/svg+xml</dc:format>
    <dc:creator>
     <cc:Agent>
      <dc:title>Matplotlib v3.10.7, https://matplotlib.org/</dc:title>
     </cc:Agent>
    </dc:creator>
   </cc:Work>
  </rdf:RDF>
 </metadata>
 <defs>
  <style type="text/css">*{stroke-linejoin: round; stroke-linecap: butt}</style>
 </defs>
 <g id="figure_1">
  <g id="patch_1">
   <path d="M 0 296.39952 
L 872.39952 296.39952 
L 872.39952 0 
L 0 0 
z
" style="fill: #ffffff"/>
  </g>
  <g id="axes_1">
   <g id="patch_2">
    <path d="M 53.328125 257.158895 
L 414.59976 257.158895 
L 414.59976 7.2 
L 53.328125 7.2 
z
" style="fill: #ffffff"/>
   </g>
   <g id="matplotlib.axis_1">
    <g id="xtick_1">
     <g id="line2d_1">
      <defs>
       <path id="m8666312efb" d="M 0 0 
L 0 3.5 
" style="stroke: #000000; stroke-width: 0.8"/>
      </defs>
      <g>
       <use xlink:href="#m8666312efb" x="68.912734" y="257.158895" style="stroke: #000000; stroke-width: 0.8"/>
      </g>
     </g>
     <g id="text_1">
      <!-- 0 -->
      <g transform="translate(65.731484 271.757332) scale(0.1 -0.1)">
       <defs>
        <path id="DejaVuSans-30" d="M 2034 4250 
Q 1547 4250 1301 3770 
Q 1056 3291 1056 2328 
Q 1056 1369 1301 889 
Q 1547 409 2034 409 
Q 2525 409 2770 889 
Q 3016 1369 3016 2328 
Q 3016 3291 2770 3770 
Q 2525 4250 2034 4250 
z
M 2034 4750 
Q 2819 4750 3233 4129 
Q 3647 3509 3647 2328 
Q 3647 1150 3233 529 
Q 2819 -91 2034 -91 
Q 1250 -91 836 529 
Q 422 1150 422 2328 
Q 422 3509 836 4129 
Q 1250 4750 2034 4750 
z
" transform="scale(0.015625)"/>
       </defs>
       <use xlink:href="#DejaVuSans-30"/>
      </g>
     </g>
    </g>
    <g id="xtick_2">
     <g id="line2d_2">
      <g>
       <use xlink:href="#m8666312efb" x="135.28088" y="257.158895" style="stroke: #000000; stroke-width: 0.8"/>
      </g>
     </g>
     <g id="text_2">
      <!-- 1000 -->
      <g transform="translate(122.55588 271.757332) scale(0.1 -0.1)">
       <defs>
        <path id="DejaVuSans-31" d="M 794 531 
L 1825 531 
L 1825 4091 
L 703 3866 
L 703 4441 
L 1819 4666 
L 2450 4666 
L 2450 531 
L 3481 531 
L 3481 0 
L 794 0 
L 794 531 
z
" transform="scale(0.015625)"/>
       </defs>
       <use xlink:href="#DejaVuSans-31"/>
       <use xlink:href="#DejaVuSans-30" transform="translate(63.623047 0)"/>
       <use xlink:href="#DejaVuSans-30" transform="translate(127.246094 0)"/>
       <use xlink:href="#DejaVuSans-30" transform="translate(190.869141 0)"/>
      </g>
     </g>
    </g>
    <g id="xtick_3">
     <g id="line2d_3">
      <g>
       <use xlink:href="#m8666312efb" x="201.649027" y="257.158895" style="stroke: #000000; stroke-width: 0.8"/>
      </g>
     </g>
     <g id="text_3">
      <!-- 2000 -->
      <g transform="translate(188.924027 271.757332) scale(0.1 -0.1)">
       <defs>
        <path id="DejaVuSans-32" d="M 1228 531 
L 3431 531 
L 3431 0 
L 469 0 
L 469 531 
Q 828 903 1448 1529 
Q 2069 2156 2228 2338 
Q 2531 2678 2651 2914 
Q 2772 3150 2772 3378 
Q 2772 3750 2511 3984 
Q 2250 4219 1831 4219 
Q 1534 4219 1204 4116 
Q 875 4013 500 3803 
L 500 4441 
Q 881 4594 1212 4672 
Q 1544 4750 1819 4750 
Q 2544 4750 2975 4387 
Q 3406 4025 3406 3419 
Q 3406 3131 3298 2873 
Q 3191 2616 2906 2266 
Q 2828 2175 2409 1742 
Q 1991 1309 1228 531 
z
" transform="scale(0.015625)"/>
       </defs>
       <use xlink:href="#DejaVuSans-32"/>
       <use xlink:href="#DejaVuSans-30" transform="translate(63.623047 0)"/>
       <use xlink:href="#DejaVuSans-30" transform="translate(127.246094 0)"/>
       <use xlink:href="#DejaVuSans-30" transform="translate(190.869141 0)"/>
      </g>
     </g>
    </g>
    <g id="xtick_4">
     <g id="line2d_4">
      <g>
       <use xlink:href="#m8666312efb" x="268.017173" y="257.158895" style="stroke: #000000; stroke-width: 0.8"/>
      </g>
     </g>
     <g id="text_4">
      <!-- 3000 -->
      <g transform="translate(255.292173 271.757332) scale(0.1 -0.1)">
       <defs>
        <path id="DejaVuSans-33" d="M 2597 2516 
Q 3050 2419 3304 2112 
Q 3559 1806 3559 1356 
Q 3559 666 3084 287 
Q 2609 -91 1734 -91 
Q 1441 -91 1130 -33 
Q 819 25 488 141 
L 488 750 
Q 750 597 1062 519 
Q 1375 441 1716 441 
Q 2309 441 2620 675 
Q 2931 909 2931 1356 
Q 2931 1769 2642 2001 
Q 2353 2234 1838 2234 
L 1294 2234 
L 1294 2753 
L 1863 2753 
Q 2328 2753 2575 2939 
Q 2822 3125 2822 3475 
Q 2822 3834 2567 4026 
Q 2313 4219 1838 4219 
Q 1578 4219 1281 4162 
Q 984 4106 628 3988 
L 628 4550 
Q 988 4650 1302 4700 
Q 1616 4750 1894 4750 
Q 2613 4750 3031 4423 
Q 3450 4097 3450 3541 
Q 3450 3153 3228 2886 
Q 3006 2619 2597 2516 
z
" transform="scale(0.015625)"/>
       </defs>
       <use xlink:href="#DejaVuSans-33"/>
       <use xlink:href="#DejaVuSans-30" transform="translate(63.623047 0)"/>
       <use xlink:href="#DejaVuSans-30" transform="translate(127.246094 0)"/>
       <use xlink:href="#DejaVuSans-30" transform="translate(190.869141 0)"/>
      </g>
     </g>
    </g>
    <g id="xtick_5">
     <g id="line2d_5">
      <g>
       <use xlink:href="#m8666312efb" x="334.385319" y="257.158895" style="stroke: #000000; stroke-width: 0.8"/>
      </g>
     </g>
     <g id="text_5">
      <!-- 4000 -->
      <g transform="translate(321.660319 271.757332) scale(0.1 -0.1)">
       <defs>
        <path id="DejaVuSans-34" d="M 2419 4116 
L 825 1625 
L 2419 1625 
L 2419 4116 
z
M 2253 4666 
L 3047 4666 
L 3047 1625 
L 3713 1625 
L 3713 1100 
L 3047 1100 
L 3047 0 
L 2419 0 
L 2419 1100 
L 313 1100 
L 313 1709 
L 2253 4666 
z
" transform="scale(0.015625)"/>
       </defs>
       <use xlink:href="#DejaVuSans-34"/>
       <use xlink:href="#DejaVuSans-30" transform="translate(63.623047 0)"/>
       <use xlink:href="#DejaVuSans-30" transform="translate(127.246094 0)"/>
       <use xlink:href="#DejaVuSans-30" transform="translate(190.869141 0)"/>
      </g>
     </g>
    </g>
    <g id="xtick_6">
     <g id="line2d_6">
      <g>
       <use xlink:href="#m8666312efb" x="400.753465" y="257.158895" style="stroke: #000000; stroke-width: 0.8"/>
      </g>
     </g>
     <g id="text_6">
      <!-- 5000 -->
      <g transform="translate(388.028465 271.757332) scale(0.1 -0.1)">
       <defs>
        <path id="DejaVuSans-35" d="M 691 4666 
L 3169 4666 
L 3169 4134 
L 1269 4134 
L 1269 2991 
Q 1406 3038 1543 3061 
Q 1681 3084 1819 3084 
Q 2600 3084 3056 2656 
Q 3513 2228 3513 1497 
Q 3513 744 3044 326 
Q 2575 -91 1722 -91 
Q 1428 -91 1123 -41 
Q 819 9 494 109 
L 494 744 
Q 775 591 1075 516 
Q 1375 441 1709 441 
Q 2250 441 2565 725 
Q 2881 1009 2881 1497 
Q 2881 1984 2565 2268 
Q 2250 2553 1709 2553 
Q 1456 2553 1204 2497 
Q 953 2441 691 2322 
L 691 4666 
z
" transform="scale(0.015625)"/>
       </defs>
       <use xlink:href="#DejaVuSans-35"/>
       <use xlink:href="#DejaVuSans-30" transform="translate(63.623047 0)"/>
       <use xlink:href="#DejaVuSans-30" transform="translate(127.246094 0)"/>
       <use xlink:href="#DejaVuSans-30" transform="translate(190.869141 0)"/>
      </g>
     </g>
    </g>
    <g id="text_7">
     <!-- birth_time [µs] -->
     <g transform="translate(197.14363 285.435457) scale(0.1 -0.1)">
      <defs>
       <path id="DejaVuSans-62" d="M 3116 1747 
Q 3116 2381 2855 2742 
Q 2594 3103 2138 3103 
Q 1681 3103 1420 2742 
Q 1159 2381 1159 1747 
Q 1159 1113 1420 752 
Q 1681 391 2138 391 
Q 2594 391 2855 752 
Q 3116 1113 3116 1747 
z
M 1159 2969 
Q 1341 3281 1617 3432 
Q 1894 3584 2278 3584 
Q 2916 3584 3314 3078 
Q 3713 2572 3713 1747 
Q 3713 922 3314 415 
Q 2916 -91 2278 -91 
Q 1894 -91 1617 61 
Q 1341 213 1159 525 
L 1159 0 
L 581 0 
L 581 4863 
L 1159 4863 
L 1159 2969 
z
" transform="scale(0.015625)"/>
       <path id="DejaVuSans-69" d="M 603 3500 
L 1178 3500 
L 1178 0 
L 603 0 
L 603 3500 
z
M 603 4863 
L 1178 4863 
L 1178 4134 
L 603 4134 
L 603 4863 
z
" transform="scale(0.015625)"/>
       <path id="DejaVuSans-72" d="M 2631 2963 
Q 2534 3019 2420 3045 
Q 2306 3072 2169 3072 
Q 1681 3072 1420 2755 
Q 1159 2438 1159 1844 
L 1159 0 
L 581 0 
L 581 3500 
L 1159 3500 
L 1159 2956 
Q 1341 3275 1631 3429 
Q 1922 3584 2338 3584 
Q 2397 3584 2469 3576 
Q 2541 3569 2628 3553 
L 2631 2963 
z
" transform="scale(0.015625)"/>
       <path id="DejaVuSans-74" d="M 1172 4494 
L 1172 3500 
L 2356 3500 
L 2356 3053 
L 1172 3053 
L 1172 1153 
Q 1172 725 1289 603 
Q 1406 481 1766 481 
L 2356 481 
L 2356 0 
L 1766 0 
Q 1100 0 847 248 
Q 594 497 594 1153 
L 594 3053 
L 172 3053 
L 172 3500 
L 594 3500 
L 594 4494 
L 1172 4494 
z
" transform="scale(0.015625)"/>
       <path id="DejaVuSans-68" d="M 3513 2113 
L 3513 0 
L 2938 0 
L 2938 2094 
Q 2938 2591 2744 2837 
Q 2550 3084 2163 3084 
Q 1697 3084 1428 2787 
Q 1159 2491 1159 1978 
L 1159 0 
L 581 0 
L 581 4863 
L 1159 4863 
L 1159 2956 
Q 1366 3272 1645 3428 
Q 1925 3584 2291 3584 
Q 2894 3584 3203 3211 
Q 3513 2838 3513 2113 
z
" transform="scale(0.015625)"/>
       <path id="DejaVuSans-5f" d="M 3263 -1063 
L 3263 -1509 
L -63 -1509 
L -63 -1063 
L 3263 -1063 
z
" transform="scale(0.015625)"/>
       <path id="DejaVuSans-6d" d="M 3328 2828 
Q 3544 3216 3844 3400 
Q 4144 3584 4550 3584 
Q 5097 3584 5394 3201 
Q 5691 2819 5691 2113 
L 5691 0 
L 5113 0 
L 5113 2094 
Q 5113 2597 4934 2840 
Q 4756 3084 4391 3084 
Q 3944 3084 3684 2787 
Q 3425 2491 3425 1978 
L 3425 0 
L 2847 0 
L 2847 2094 
Q 2847 2600 2669 2842 
Q 2491 3084 2119 3084 
Q 1678 3084 1418 2786 
Q 1159 2488 1159 1978 
L 1159 0 
L 581 0 
L 581 3500 
L 1159 3500 
L 1159 2956 
Q 1356 3278 1631 3431 
Q 1906 3584 2284 3584 
Q 2666 3584 2933 3390 
Q 3200 3197 3328 2828 
z
" transform="scale(0.015625)"/>
       <path id="DejaVuSans-65" d="M 3597 1894 
L 3597 1613 
L 953 1613 
Q 991 1019 1311 708 
Q 1631 397 2203 397 
Q 2534 397 2845 478 
Q 3156 559 3463 722 
L 3463 178 
Q 3153 47 2828 -22 
Q 2503 -91 2169 -91 
Q 1331 -91 842 396 
Q 353 884 353 1716 
Q 353 2575 817 3079 
Q 1281 3584 2069 3584 
Q 2775 3584 3186 3129 
Q 3597 2675 3597 1894 
z
M 3022 2063 
Q 3016 2534 2758 2815 
Q 2500 3097 2075 3097 
Q 1594 3097 1305 2825 
Q 1016 2553 972 2059 
L 3022 2063 
z
" transform="scale(0.015625)"/>
       <path id="DejaVuSans-20" transform="scale(0.015625)"/>
       <path id="DejaVuSans-5b" d="M 550 4863 
L 1875 4863 
L 1875 4416 
L 1125 4416 
L 1125 -397 
L 1875 -397 
L 1875 -844 
L 550 -844 
L 550 4863 
z
" transform="scale(0.015625)"/>
       <path id="DejaVuSans-b5" d="M 544 -1331 
L 544 3500 
L 1119 3500 
L 1119 1325 
Q 1119 872 1334 640 
Q 1550 409 1972 409 
Q 2434 409 2667 671 
Q 2900 934 2900 1459 
L 2900 3500 
L 3475 3500 
L 3475 806 
Q 3475 619 3529 530 
Q 3584 441 3700 441 
Q 3728 441 3778 458 
Q 3828 475 3916 513 
L 3916 50 
Q 3788 -22 3673 -56 
Q 3559 -91 3450 -91 
Q 3234 -91 3106 31 
Q 2978 153 2931 403 
Q 2775 156 2548 32 
Q 2322 -91 2016 -91 
Q 1697 -91 1473 31 
Q 1250 153 1119 397 
L 1119 -1331 
L 544 -1331 
z
" transform="scale(0.015625)"/>
       <path id="DejaVuSans-73" d="M 2834 3397 
L 2834 2853 
Q 2591 2978 2328 3040 
Q 2066 3103 1784 3103 
Q 1356 3103 1142 2972 
Q 928 2841 928 2578 
Q 928 2378 1081 2264 
Q 1234 2150 1697 2047 
L 1894 2003 
Q 2506 1872 2764 1633 
Q 3022 1394 3022 966 
Q 3022 478 2636 193 
Q 2250 -91 1575 -91 
Q 1294 -91 989 -36 
Q 684 19 347 128 
L 347 722 
Q 666 556 975 473 
Q 1284 391 1588 391 
Q 1994 391 2212 530 
Q 2431 669 2431 922 
Q 2431 1156 2273 1281 
Q 2116 1406 1581 1522 
L 1381 1569 
Q 847 1681 609 1914 
Q 372 2147 372 2553 
Q 372 3047 722 3315 
Q 1072 3584 1716 3584 
Q 2034 3584 2315 3537 
Q 2597 3491 2834 3397 
z
" transform="scale(0.015625)"/>
       <path id="DejaVuSans-5d" d="M 1947 4863 
L 1947 -844 
L 622 -844 
L 622 -397 
L 1369 -397 
L 1369 4416 
L 622 4416 
L 622 4863 
L 1947 4863 
z
" transform="scale(0.015625)"/>
      </defs>
      <use xlink:href="#DejaVuSans-62"/>
      <use xlink:href="#DejaVuSans-69" transform="translate(63.476562 0)"/>
      <use xlink:href="#DejaVuSans-72" transform="translate(91.259766 0)"/>
      <use xlink:href="#DejaVuSans-74" transform="translate(132.373047 0)"/>
      <use xlink:href="#DejaVuSans-68" transform="translate(171.582031 0)"/>
      <use xlink:href="#DejaVuSans-5f" transform="translate(234.960938 0)"/>
      <use xlink:href="#DejaVuSans-74" transform="translate(284.960938 0)"/>
      <use xlink:href="#DejaVuSans-69" transform="translate(324.169922 0)"/>
      <use xlink:href="#DejaVuSans-6d" transform="translate(351.953125 0)"/>
      <use xlink:href="#DejaVuSans-65" transform="translate(449.365234 0)"/>
      <use xlink:href="#DejaVuSans-20" transform="translate(510.888672 0)"/>
      <use xlink:href="#DejaVuSans-5b" transform="translate(542.675781 0)"/>
      <use xlink:href="#DejaVuSans-b5" transform="translate(581.689453 0)"/>
      <use xlink:href="#DejaVuSans-73" transform="translate(645.3125 0)"/>
      <use xlink:href="#DejaVuSans-5d" transform="translate(697.412109 0)"/>
     </g>
    </g>
   </g>
   <g id="matplotlib.axis_2">
    <g id="ytick_1">
     <g id="line2d_7">
      <defs>
       <path id="m21b1887cc5" d="M 0 0 
L -3.5 0 
" style="stroke: #000000; stroke-width: 0.8"/>
      </defs>
      <g>
       <use xlink:href="#m21b1887cc5" x="53.328125" y="245.797127" style="stroke: #000000; stroke-width: 0.8"/>
      </g>
     </g>
     <g id="text_8">
      <!-- 0 -->
      <g transform="translate(39.965625 249.596346) scale(0.1 -0.1)">
       <use xlink:href="#DejaVuSans-30"/>
      </g>
     </g>
    </g>
    <g id="ytick_2">
     <g id="line2d_8">
      <g>
       <use xlink:href="#m21b1887cc5" x="53.328125" y="208.636807" style="stroke: #000000; stroke-width: 0.8"/>
      </g>
     </g>
     <g id="text_9">
      <!-- 200 -->
      <g transform="translate(27.240625 212.436025) scale(0.1 -0.1)">
       <use xlink:href="#DejaVuSans-32"/>
       <use xlink:href="#DejaVuSans-30" transform="translate(63.623047 0)"/>
       <use xlink:href="#DejaVuSans-30" transform="translate(127.246094 0)"/>
      </g>
     </g>
    </g>
    <g id="ytick_3">
     <g id="line2d_9">
      <g>
       <use xlink:href="#m21b1887cc5" x="53.328125" y="171.476486" style="stroke: #000000; stroke-width: 0.8"/>
      </g>
     </g>
     <g id="text_10">
      <!-- 400 -->
      <g transform="translate(27.240625 175.275705) scale(0.1 -0.1)">
       <use xlink:href="#DejaVuSans-34"/>
       <use xlink:href="#DejaVuSans-30" transform="translate(63.623047 0)"/>
       <use xlink:href="#DejaVuSans-30" transform="translate(127.246094 0)"/>
      </g>
     </g>
    </g>
    <g id="ytick_4">
     <g id="line2d_10">
      <g>
       <use xlink:href="#m21b1887cc5" x="53.328125" y="134.316166" style="stroke: #000000; stroke-width: 0.8"/>
      </g>
     </g>
     <g id="text_11">
      <!-- 600 -->
      <g transform="translate(27.240625 138.115385) scale(0.1 -0.1)">
       <defs>
        <path id="DejaVuSans-36" d="M 2113 2584 
Q 1688 2584 1439 2293 
Q 1191 2003 1191 1497 
Q 1191 994 1439 701 
Q 1688 409 2113 409 
Q 2538 409 2786 701 
Q 3034 994 3034 1497 
Q 3034 2003 2786 2293 
Q 2538 2584 2113 2584 
z
M 3366 4563 
L 3366 3988 
Q 3128 4100 2886 4159 
Q 2644 4219 2406 4219 
Q 1781 4219 1451 3797 
Q 1122 3375 1075 2522 
Q 1259 2794 1537 2939 
Q 1816 3084 2150 3084 
Q 2853 3084 3261 2657 
Q 3669 2231 3669 1497 
Q 3669 778 3244 343 
Q 2819 -91 2113 -91 
Q 1303 -91 875 529 
Q 447 1150 447 2328 
Q 447 3434 972 4092 
Q 1497 4750 2381 4750 
Q 2619 4750 2861 4703 
Q 3103 4656 3366 4563 
z
" transform="scale(0.015625)"/>
       </defs>
       <use xlink:href="#DejaVuSans-36"/>
       <use xlink:href="#DejaVuSans-30" transform="translate(63.623047 0)"/>
       <use xlink:href="#DejaVuSans-30" transform="translate(127.246094 0)"/>
      </g>
     </g>
    </g>
    <g id="ytick_5">
     <g id="line2d_11">
      <g>
       <use xlink:href="#m21b1887cc5" x="53.328125" y="97.155846" style="stroke: #000000; stroke-width: 0.8"/>
      </g>
     </g>
     <g id="text_12">
      <!-- 800 -->
      <g transform="translate(27.240625 100.955064) scale(0.1 -0.1)">
       <defs>
        <path id="DejaVuSans-38" d="M 2034 2216 
Q 1584 2216 1326 1975 
Q 1069 1734 1069 1313 
Q 1069 891 1326 650 
Q 1584 409 2034 409 
Q 2484 409 2743 651 
Q 3003 894 3003 1313 
Q 3003 1734 2745 1975 
Q 2488 2216 2034 2216 
z
M 1403 2484 
Q 997 2584 770 2862 
Q 544 3141 544 3541 
Q 544 4100 942 4425 
Q 1341 4750 2034 4750 
Q 2731 4750 3128 4425 
Q 3525 4100 3525 3541 
Q 3525 3141 3298 2862 
Q 3072 2584 2669 2484 
Q 3125 2378 3379 2068 
Q 3634 1759 3634 1313 
Q 3634 634 3220 271 
Q 2806 -91 2034 -91 
Q 1263 -91 848 271 
Q 434 634 434 1313 
Q 434 1759 690 2068 
Q 947 2378 1403 2484 
z
M 1172 3481 
Q 1172 3119 1398 2916 
Q 1625 2713 2034 2713 
Q 2441 2713 2670 2916 
Q 2900 3119 2900 3481 
Q 2900 3844 2670 4047 
Q 2441 4250 2034 4250 
Q 1625 4250 1398 4047 
Q 1172 3844 1172 3481 
z
" transform="scale(0.015625)"/>
       </defs>
       <use xlink:href="#DejaVuSans-38"/>
       <use xlink:href="#DejaVuSans-30" transform="translate(63.623047 0)"/>
       <use xlink:href="#DejaVuSans-30" transform="translate(127.246094 0)"/>
      </g>
     </g>
    </g>
    <g id="ytick_6">
     <g id="line2d_12">
      <g>
       <use xlink:href="#m21b1887cc5" x="53.328125" y="59.995525" style="stroke: #000000; stroke-width: 0.8"/>
      </g>
     </g>
     <g id="text_13">
      <!-- 1000 -->
      <g transform="translate(20.878125 63.794744) scale(0.1 -0.1)">
       <use xlink:href="#DejaVuSans-31"/>
       <use xlink:href="#DejaVuSans-30" transform="translate(63.623047 0)"/>
       <use xlink:href="#DejaVuSans-30" transform="translate(127.246094 0)"/>
       <use xlink:href="#DejaVuSans-30" transform="translate(190.869141 0)"/>
      </g>
     </g>
    </g>
    <g id="ytick_7">
     <g id="line2d_13">
      <g>
       <use xlink:href="#m21b1887cc5" x="53.328125" y="22.835205" style="stroke: #000000; stroke-width: 0.8"/>
      </g>
     </g>
     <g id="text_14">
      <!-- 1200 -->
      <g transform="translate(20.878125 26.634424) scale(0.1 -0.1)">
       <use xlink:href="#DejaVuSans-31"/>
       <use xlink:href="#DejaVuSans-32" transform="translate(63.623047 0)"/>
       <use xlink:href="#DejaVuSans-30" transform="translate(127.246094 0)"/>
       <use xlink:href="#DejaVuSans-30" transform="translate(190.869141 0)"/>
      </g>
     </g>
    </g>
    <g id="text_15">
     <!-- [counts] -->
     <g transform="translate(14.798438 152.791947) rotate(-90) scale(0.1 -0.1)">
      <defs>
       <path id="DejaVuSans-63" d="M 3122 3366 
L 3122 2828 
Q 2878 2963 2633 3030 
Q 2388 3097 2138 3097 
Q 1578 3097 1268 2742 
Q 959 2388 959 1747 
Q 959 1106 1268 751 
Q 1578 397 2138 397 
Q 2388 397 2633 464 
Q 2878 531 3122 666 
L 3122 134 
Q 2881 22 2623 -34 
Q 2366 -91 2075 -91 
Q 1284 -91 818 406 
Q 353 903 353 1747 
Q 353 2603 823 3093 
Q 1294 3584 2113 3584 
Q 2378 3584 2631 3529 
Q 2884 3475 3122 3366 
z
" transform="scale(0.015625)"/>
       <path id="DejaVuSans-6f" d="M 1959 3097 
Q 1497 3097 1228 2736 
Q 959 2375 959 1747 
Q 959 1119 1226 758 
Q 1494 397 1959 397 
Q 2419 397 2687 759 
Q 2956 1122 2956 1747 
Q 2956 2369 2687 2733 
Q 2419 3097 1959 3097 
z
M 1959 3584 
Q 2709 3584 3137 3096 
Q 3566 2609 3566 1747 
Q 3566 888 3137 398 
Q 2709 -91 1959 -91 
Q 1206 -91 779 398 
Q 353 888 353 1747 
Q 353 2609 779 3096 
Q 1206 3584 1959 3584 
z
" transform="scale(0.015625)"/>
       <path id="DejaVuSans-75" d="M 544 1381 
L 544 3500 
L 1119 3500 
L 1119 1403 
Q 1119 906 1312 657 
Q 1506 409 1894 409 
Q 2359 409 2629 706 
Q 2900 1003 2900 1516 
L 2900 3500 
L 3475 3500 
L 3475 0 
L 2900 0 
L 2900 538 
Q 2691 219 2414 64 
Q 2138 -91 1772 -91 
Q 1169 -91 856 284 
Q 544 659 544 1381 
z
M 1991 3584 
L 1991 3584 
z
" transform="scale(0.015625)"/>
       <path id="DejaVuSans-6e" d="M 3513 2113 
L 3513 0 
L 2938 0 
L 2938 2094 
Q 2938 2591 2744 2837 
Q 2550 3084 2163 3084 
Q 1697 3084 1428 2787 
Q 1159 2491 1159 1978 
L 1159 0 
L 581 0 
L 581 3500 
L 1159 3500 
L 1159 2956 
Q 1366 3272 1645 3428 
Q 1925 3584 2291 3584 
Q 2894 3584 3203 3211 
Q 3513 2838 3513 2113 
z
" transform="scale(0.015625)"/>
      </defs>
      <use xlink:href="#DejaVuSans-5b"/>
      <use xlink:href="#DejaVuSans-63" transform="translate(39.013672 0)"/>
      <use xlink:href="#DejaVuSans-6f" transform="translate(93.994141 0)"/>
      <use xlink:href="#DejaVuSans-75" transform="translate(155.175781 0)"/>
      <use xlink:href="#DejaVuSans-6e" transform="translate(218.554688 0)"/>
      <use xlink:href="#DejaVuSans-74" transform="translate(281.933594 0)"/>
      <use xlink:href="#DejaVuSans-73" transform="translate(321.142578 0)"/>
      <use xlink:href="#DejaVuSans-5d" transform="translate(373.242188 0)"/>
     </g>
    </g>
   </g>
   <g id="line2d_14">
    <path d="M 69.749563 233.34842 
L 70.844325 233.34842 
L 70.844325 228.517578 
L 71.939088 228.517578 
L 71.939088 221.82872 
L 73.033851 221.82872 
L 73.033851 210.123219 
L 74.128613 210.123219 
L 74.128613 199.904131 
L 75.223376 199.904131 
L 75.223376 192.657869 
L 76.318138 192.657869 
L 76.318138 185.225805 
L 77.412901 185.225805 
L 77.412901 177.050534 
L 78.507663 177.050534 
L 78.507663 167.760454 
L 79.602426 167.760454 
L 79.602426 158.098771 
L 80.697188 158.098771 
L 80.697188 153.267929 
L 81.791951 153.267929 
L 81.791951 148.994492 
L 82.886713 148.994492 
L 82.886713 138.961206 
L 83.981476 138.961206 
L 83.981476 124.097078 
L 85.076238 124.097078 
L 85.076238 133.57296 
L 86.171001 133.57296 
L 86.171001 123.353871 
L 87.265763 123.353871 
L 87.265763 120.009443 
L 88.360526 120.009443 
L 88.360526 113.506387 
L 89.455288 113.506387 
L 89.455288 122.424863 
L 90.550051 122.424863 
L 90.550051 109.976156 
L 91.644814 109.976156 
L 91.644814 92.882409 
L 92.739576 92.882409 
L 92.739576 100.871878 
L 93.834339 100.871878 
L 93.834339 96.970044 
L 94.929101 96.970044 
L 94.929101 88.980575 
L 96.023864 88.980575 
L 96.023864 85.821948 
L 97.118626 85.821948 
L 97.118626 86.007749 
L 98.213389 86.007749 
L 98.213389 78.761487 
L 99.308151 78.761487 
L 99.308151 78.389884 
L 100.402914 78.389884 
L 100.402914 77.832479 
L 101.497676 77.832479 
L 101.497676 78.761487 
L 102.592439 78.761487 
L 102.592439 68.356597 
L 103.687201 68.356597 
L 103.687201 65.19797 
L 104.781964 65.19797 
L 104.781964 65.755375 
L 105.876726 65.755375 
L 105.876726 62.968351 
L 106.971489 62.968351 
L 106.971489 62.410946 
L 108.066252 62.410946 
L 108.066252 61.296136 
L 109.161014 61.296136 
L 109.161014 70.586216 
L 110.255777 70.586216 
L 110.255777 57.394303 
L 111.350539 57.394303 
L 111.350539 65.941176 
L 112.445302 65.941176 
L 112.445302 58.880716 
L 113.540064 58.880716 
L 113.540064 56.465295 
L 114.634827 56.465295 
L 114.634827 45.874603 
L 115.729589 45.874603 
L 115.729589 48.661627 
L 116.824352 48.661627 
L 116.824352 56.279493 
L 117.919114 56.279493 
L 117.919114 58.509112 
L 119.013877 58.509112 
L 119.013877 43.087579 
L 120.108639 43.087579 
L 120.108639 39.557349 
L 121.203402 39.557349 
L 121.203402 41.415365 
L 122.298164 41.415365 
L 122.298164 50.333842 
L 123.392927 50.333842 
L 123.392927 56.651096 
L 124.487689 56.651096 
L 124.487689 45.131397 
L 125.582452 45.131397 
L 125.582452 40.672159 
L 126.677215 40.672159 
L 126.677215 39.928952 
L 127.771977 39.928952 
L 127.771977 50.14804 
L 128.86674 50.14804 
L 128.86674 35.841317 
L 129.961502 35.841317 
L 129.961502 38.814143 
L 131.056265 38.814143 
L 131.056265 47.918421 
L 132.151027 47.918421 
L 132.151027 48.290024 
L 133.24579 48.290024 
L 133.24579 36.584523 
L 134.340552 36.584523 
L 134.340552 32.496888 
L 135.435315 32.496888 
L 135.435315 40.114754 
L 136.530077 40.114754 
L 136.530077 49.590635 
L 137.62484 49.590635 
L 137.62484 36.770325 
L 138.719602 36.770325 
L 138.719602 32.868491 
L 139.814365 32.868491 
L 139.814365 41.786968 
L 140.909127 41.786968 
L 140.909127 19.304974 
L 142.00389 19.304974 
L 142.00389 37.699333 
L 143.098652 37.699333 
L 143.098652 30.638872 
L 144.193415 30.638872 
L 144.193415 40.300555 
L 145.288178 40.300555 
L 145.288178 35.283912 
L 146.38294 35.283912 
L 146.38294 32.868491 
L 147.477703 32.868491 
L 147.477703 41.043762 
L 148.572465 41.043762 
L 148.572465 31.753682 
L 149.667228 31.753682 
L 149.667228 38.628341 
L 150.76199 38.628341 
L 150.76199 34.169103 
L 151.856753 34.169103 
L 151.856753 25.622229 
L 152.951515 25.622229 
L 152.951515 31.56788 
L 154.046278 31.56788 
L 154.046278 23.578411 
L 155.14104 23.578411 
L 155.14104 40.486357 
L 156.235803 40.486357 
L 156.235803 33.054293 
L 157.330565 33.054293 
L 157.330565 38.256738 
L 158.425328 38.256738 
L 158.425328 30.081467 
L 159.52009 30.081467 
L 159.52009 36.21292 
L 160.614853 36.21292 
L 160.614853 38.070936 
L 161.709615 38.070936 
L 161.709615 23.578411 
L 162.804378 23.578411 
L 162.804378 48.661627 
L 163.899141 48.661627 
L 163.899141 32.868491 
L 164.993903 32.868491 
L 164.993903 26.365435 
L 166.088666 26.365435 
L 166.088666 28.780856 
L 167.183428 28.780856 
L 167.183428 27.480245 
L 168.278191 27.480245 
L 168.278191 26.365435 
L 169.372953 26.365435 
L 169.372953 22.835205 
L 170.467716 22.835205 
L 170.467716 38.442539 
L 171.562478 38.442539 
L 171.562478 33.425896 
L 172.657241 33.425896 
L 172.657241 24.135816 
L 173.752003 24.135816 
L 173.752003 32.311086 
L 174.846766 32.311086 
L 174.846766 45.688802 
L 175.941528 45.688802 
L 175.941528 34.912309 
L 177.036291 34.912309 
L 177.036291 35.655515 
L 178.131053 35.655515 
L 178.131053 37.885135 
L 179.225816 37.885135 
L 179.225816 34.354904 
L 180.320579 34.354904 
L 180.320579 33.983301 
L 181.415341 33.983301 
L 181.415341 30.638872 
L 182.510104 30.638872 
L 182.510104 40.85796 
L 183.604866 40.85796 
L 183.604866 25.064824 
L 184.699629 25.064824 
L 184.699629 40.300555 
L 185.794391 40.300555 
L 185.794391 38.814143 
L 186.889154 38.814143 
L 186.889154 29.709864 
L 187.983916 29.709864 
L 187.983916 19.862379 
L 189.078679 19.862379 
L 189.078679 30.824674 
L 190.173441 30.824674 
L 190.173441 22.835205 
L 191.268204 22.835205 
L 191.268204 41.601167 
L 192.362966 41.601167 
L 192.362966 30.267269 
L 193.457729 30.267269 
L 193.457729 20.419784 
L 194.552491 20.419784 
L 194.552491 32.68269 
L 195.647254 32.68269 
L 195.647254 31.753682 
L 196.742016 31.753682 
L 196.742016 28.780856 
L 197.836779 28.780856 
L 197.836779 34.540706 
L 198.931542 34.540706 
L 198.931542 43.087579 
L 200.026304 43.087579 
L 200.026304 36.398722 
L 201.121067 36.398722 
L 201.121067 36.21292 
L 202.215829 36.21292 
L 202.215829 34.354904 
L 203.310592 34.354904 
L 203.310592 31.56788 
L 204.405354 31.56788 
L 204.405354 29.338261 
L 205.500117 29.338261 
L 205.500117 28.595054 
L 206.594879 28.595054 
L 206.594879 38.256738 
L 207.689642 38.256738 
L 207.689642 28.03765 
L 208.784404 28.03765 
L 208.784404 21.16299 
L 209.879167 21.16299 
L 209.879167 27.108642 
L 210.973929 27.108642 
L 210.973929 43.087579 
L 212.068692 43.087579 
L 212.068692 31.382078 
L 213.163454 31.382078 
L 213.163454 28.780856 
L 214.258217 28.780856 
L 214.258217 26.179634 
L 215.352979 26.179634 
L 215.352979 30.638872 
L 216.447742 30.638872 
L 216.447742 34.726507 
L 217.542505 34.726507 
L 217.542505 37.32773 
L 218.637267 37.32773 
L 218.637267 31.939483 
L 219.73203 31.939483 
L 219.73203 34.169103 
L 220.826792 34.169103 
L 220.826792 22.835205 
L 221.921555 22.835205 
L 221.921555 38.628341 
L 223.016317 38.628341 
L 223.016317 37.513531 
L 224.11108 37.513531 
L 224.11108 29.524062 
L 225.205842 29.524062 
L 225.205842 18.933371 
L 226.300605 18.933371 
L 226.300605 36.770325 
L 227.395367 36.770325 
L 227.395367 22.649403 
L 228.49013 22.649403 
L 228.49013 25.80803 
L 229.584892 25.80803 
L 229.584892 40.486357 
L 230.679655 40.486357 
L 230.679655 23.578411 
L 231.774417 23.578411 
L 231.774417 29.338261 
L 232.86918 29.338261 
L 232.86918 33.240095 
L 233.963942 33.240095 
L 233.963942 27.851848 
L 235.058705 27.851848 
L 235.058705 24.507419 
L 236.153468 24.507419 
L 236.153468 18.561768 
L 237.24823 18.561768 
L 237.24823 30.081467 
L 238.342993 30.081467 
L 238.342993 31.196277 
L 239.437755 31.196277 
L 239.437755 29.338261 
L 240.532518 29.338261 
L 240.532518 33.797499 
L 241.62728 33.797499 
L 241.62728 48.475826 
L 242.722043 48.475826 
L 242.722043 37.513531 
L 243.816805 37.513531 
L 243.816805 35.841317 
L 244.911568 35.841317 
L 244.911568 36.956127 
L 246.00633 36.956127 
L 246.00633 31.382078 
L 247.101093 31.382078 
L 247.101093 35.283912 
L 248.195855 35.283912 
L 248.195855 39.557349 
L 249.290618 39.557349 
L 249.290618 28.595054 
L 250.38538 28.595054 
L 250.38538 38.070936 
L 251.480143 38.070936 
L 251.480143 37.699333 
L 252.574906 37.699333 
L 252.574906 48.661627 
L 253.669668 48.661627 
L 253.669668 28.03765 
L 254.764431 28.03765 
L 254.764431 27.851848 
L 255.859193 27.851848 
L 255.859193 31.753682 
L 256.953956 31.753682 
L 256.953956 30.45307 
L 258.048718 30.45307 
L 258.048718 32.68269 
L 259.143481 32.68269 
L 259.143481 38.814143 
L 260.238243 38.814143 
L 260.238243 45.688802 
L 261.333006 45.688802 
L 261.333006 57.394303 
L 262.427768 57.394303 
L 262.427768 65.012168 
L 263.522531 65.012168 
L 263.522531 75.417058 
L 264.617293 75.417058 
L 264.617293 78.575685 
L 265.712056 78.575685 
L 265.712056 92.325004 
L 266.806818 92.325004 
L 266.806818 101.615084 
L 267.901581 101.615084 
L 267.901581 109.790354 
L 268.996343 109.790354 
L 268.996343 117.222419 
L 270.091106 117.222419 
L 270.091106 118.52303 
L 271.185869 118.52303 
L 271.185869 125.955094 
L 272.280631 125.955094 
L 272.280631 132.272348 
L 273.375394 132.272348 
L 273.375394 138.775404 
L 274.470156 138.775404 
L 274.470156 146.764873 
L 275.564919 146.764873 
L 275.564919 159.770985 
L 276.659681 159.770985 
L 276.659681 149.551897 
L 277.754444 149.551897 
L 277.754444 159.399382 
L 278.849206 159.399382 
L 278.849206 164.230224 
L 279.943969 164.230224 
L 279.943969 171.476486 
L 281.038731 171.476486 
L 281.038731 171.290685 
L 282.133494 171.290685 
L 282.133494 180.580765 
L 283.228256 180.580765 
L 283.228256 181.695574 
L 284.323019 181.695574 
L 284.323019 188.384432 
L 285.417781 188.384432 
L 285.417781 189.31344 
L 286.512544 189.31344 
L 286.512544 194.330083 
L 287.607306 194.330083 
L 287.607306 197.674512 
L 288.702069 197.674512 
L 288.702069 201.018941 
L 289.796832 201.018941 
L 289.796832 196.188099 
L 290.891594 196.188099 
L 290.891594 204.734973 
L 291.986357 204.734973 
L 291.986357 204.177568 
L 293.081119 204.177568 
L 293.081119 206.221386 
L 294.175882 206.221386 
L 294.175882 211.423831 
L 295.270644 211.423831 
L 295.270644 206.778791 
L 296.365407 206.778791 
L 296.365407 210.866426 
L 297.460169 210.866426 
L 297.460169 207.707799 
L 298.554932 207.707799 
L 298.554932 218.484292 
L 299.649694 218.484292 
L 299.649694 219.970704 
L 300.744457 219.970704 
L 300.744457 217.926887 
L 301.839219 217.926887 
L 301.839219 219.4133 
L 302.933982 219.4133 
L 302.933982 218.29849 
L 304.028744 218.29849 
L 304.028744 221.457117 
L 305.123507 221.457117 
L 305.123507 223.500935 
L 306.218269 223.500935 
L 306.218269 225.173149 
L 307.313032 225.173149 
L 307.313032 227.774372 
L 308.407795 227.774372 
L 308.407795 225.173149 
L 309.502557 225.173149 
L 309.502557 223.500935 
L 310.59732 223.500935 
L 310.59732 226.47376 
L 311.692082 226.47376 
L 311.692082 230.003991 
L 312.786845 230.003991 
L 312.786845 231.304602 
L 313.881607 231.304602 
L 313.881607 230.375594 
L 314.97637 230.375594 
L 314.97637 232.047809 
L 316.071132 232.047809 
L 316.071132 231.862007 
L 317.165895 231.862007 
L 317.165895 234.834833 
L 318.260657 234.834833 
L 318.260657 233.34842 
L 319.35542 233.34842 
L 319.35542 235.020634 
L 320.450182 235.020634 
L 320.450182 234.834833 
L 321.544945 234.834833 
L 321.544945 239.294071 
L 322.639707 239.294071 
L 322.639707 237.436055 
L 323.73447 237.436055 
L 323.73447 238.365063 
L 324.829233 238.365063 
L 324.829233 237.807658 
L 325.923995 237.807658 
L 325.923995 238.179261 
L 327.018758 238.179261 
L 327.018758 240.037277 
L 329.208283 240.037277 
L 329.208283 238.179261 
L 330.303045 238.179261 
L 330.303045 240.594682 
L 332.49257 240.594682 
L 332.49257 239.665674 
L 333.587333 239.665674 
L 333.587333 240.037277 
L 334.682095 240.037277 
L 334.682095 240.223079 
L 335.776858 240.223079 
L 335.776858 240.037277 
L 336.87162 240.037277 
L 336.87162 241.895293 
L 337.966383 241.895293 
L 337.966383 239.851476 
L 339.061145 239.851476 
L 339.061145 241.709492 
L 340.155908 241.709492 
L 340.155908 242.824301 
L 341.25067 242.824301 
L 341.25067 240.966285 
L 342.345433 240.966285 
L 342.345433 242.081095 
L 343.440196 242.081095 
L 343.440196 243.753309 
L 345.629721 243.753309 
L 345.629721 243.567508 
L 346.724483 243.567508 
L 346.724483 241.895293 
L 347.819246 241.895293 
L 347.819246 242.824301 
L 348.914008 242.824301 
L 348.914008 242.6385 
L 350.008771 242.6385 
L 350.008771 242.266897 
L 351.103533 242.266897 
L 351.103533 244.310714 
L 352.198296 244.310714 
L 352.198296 243.567508 
L 353.293058 243.567508 
L 353.293058 244.682317 
L 354.387821 244.682317 
L 354.387821 245.239722 
L 355.482583 245.239722 
L 355.482583 245.053921 
L 356.577346 245.053921 
L 356.577346 244.124913 
L 358.766871 244.124913 
L 358.766871 244.868119 
L 359.861633 244.868119 
L 359.861633 243.753309 
L 360.956396 243.753309 
L 360.956396 244.310714 
L 362.051159 244.310714 
L 362.051159 244.496516 
L 363.145921 244.496516 
L 363.145921 244.868119 
L 364.240684 244.868119 
L 364.240684 244.310714 
L 365.335446 244.310714 
L 365.335446 244.868119 
L 366.430209 244.868119 
L 366.430209 244.124913 
L 367.524971 244.124913 
L 367.524971 245.053921 
L 368.619734 245.053921 
L 368.619734 245.239722 
L 369.714496 245.239722 
L 369.714496 244.868119 
L 370.809259 244.868119 
L 370.809259 244.682317 
L 371.904021 244.682317 
L 371.904021 244.496516 
L 372.998784 244.496516 
L 372.998784 244.682317 
L 375.188309 244.682317 
L 375.188309 245.053921 
L 376.283071 245.053921 
L 376.283071 245.239722 
L 377.377834 245.239722 
L 377.377834 245.053921 
L 378.472596 245.053921 
L 378.472596 245.797127 
L 379.567359 245.797127 
L 379.567359 245.053921 
L 380.662122 245.053921 
L 380.662122 245.797127 
L 381.756884 245.797127 
L 381.756884 245.425524 
L 382.851647 245.425524 
L 382.851647 245.611325 
L 383.946409 245.611325 
L 383.946409 245.425524 
L 385.041172 245.425524 
L 385.041172 245.239722 
L 386.135934 245.239722 
L 386.135934 245.425524 
L 387.230697 245.425524 
L 387.230697 245.239722 
L 388.325459 245.239722 
L 388.325459 245.425524 
L 389.420222 245.425524 
L 389.420222 245.611325 
L 390.514984 245.611325 
L 390.514984 245.425524 
L 392.704509 245.425524 
L 392.704509 245.797127 
L 393.799272 245.797127 
L 393.799272 245.611325 
L 394.894034 245.611325 
L 394.894034 245.797127 
L 395.988797 245.797127 
L 395.988797 245.425524 
L 397.08356 245.425524 
L 397.08356 245.611325 
L 398.178322 245.611325 
L 398.178322 245.611325 
" clip-path="url(#pe573f54c72)" style="fill: none; stroke: #1f77b4; stroke-width: 1.5; stroke-linecap: square"/>
   </g>
   <g id="patch_3">
    <path d="M 53.328125 257.158895 
L 53.328125 7.2 
" style="fill: none; stroke: #000000; stroke-width: 0.8; stroke-linejoin: miter; stroke-linecap: square"/>
   </g>
   <g id="patch_4">
    <path d="M 414.59976 257.158895 
L 414.59976 7.2 
" style="fill: none; stroke: #000000; stroke-width: 0.8; stroke-linejoin: miter; stroke-linecap: square"/>
   </g>
   <g id="patch_5">
    <path d="M 53.328125 257.158895 
L 414.59976 257.158895 
" style="fill: none; stroke: #000000; stroke-width: 0.8; stroke-linejoin: miter; stroke-linecap: square"/>
   </g>
   <g id="patch_6">
    <path d="M 53.328125 7.2 
L 414.59976 7.2 
" style="fill: none; stroke: #000000; stroke-width: 0.8; stroke-linejoin: miter; stroke-linecap: square"/>
   </g>
  </g>
  <g id="axes_2">
   <g id="patch_7">
    <path d="M 503.927885 257.158895 
L 865.19952 257.158895 
L 865.19952 7.2 
L 503.927885 7.2 
z
" style="fill: #ffffff"/>
   </g>
   <g id="matplotlib.axis_3">
    <g id="xtick_7">
     <g id="line2d_15">
      <g>
       <use xlink:href="#m8666312efb" x="517.040054" y="257.158895" style="stroke: #000000; stroke-width: 0.8"/>
      </g>
     </g>
     <g id="text_16">
      <!-- 0.0 -->
      <g transform="translate(509.088492 271.757332) scale(0.1 -0.1)">
       <defs>
        <path id="DejaVuSans-2e" d="M 684 794 
L 1344 794 
L 1344 0 
L 684 0 
L 684 794 
z
" transform="scale(0.015625)"/>
       </defs>
       <use xlink:href="#DejaVuSans-30"/>
       <use xlink:href="#DejaVuSans-2e" transform="translate(63.623047 0)"/>
       <use xlink:href="#DejaVuSans-30" transform="translate(95.410156 0)"/>
      </g>
     </g>
    </g>
    <g id="xtick_8">
     <g id="line2d_16">
      <g>
       <use xlink:href="#m8666312efb" x="558.713961" y="257.158895" style="stroke: #000000; stroke-width: 0.8"/>
      </g>
     </g>
     <g id="text_17">
      <!-- 2.5 -->
      <g transform="translate(550.762398 271.757332) scale(0.1 -0.1)">
       <use xlink:href="#DejaVuSans-32"/>
       <use xlink:href="#DejaVuSans-2e" transform="translate(63.623047 0)"/>
       <use xlink:href="#DejaVuSans-35" transform="translate(95.410156 0)"/>
      </g>
     </g>
    </g>
    <g id="xtick_9">
     <g id="line2d_17">
      <g>
       <use xlink:href="#m8666312efb" x="600.387867" y="257.158895" style="stroke: #000000; stroke-width: 0.8"/>
      </g>
     </g>
     <g id="text_18">
      <!-- 5.0 -->
      <g transform="translate(592.436305 271.757332) scale(0.1 -0.1)">
       <use xlink:href="#DejaVuSans-35"/>
       <use xlink:href="#DejaVuSans-2e" transform="translate(63.623047 0)"/>
       <use xlink:href="#DejaVuSans-30" transform="translate(95.410156 0)"/>
      </g>
     </g>
    </g>
    <g id="xtick_10">
     <g id="line2d_18">
      <g>
       <use xlink:href="#m8666312efb" x="642.061773" y="257.158895" style="stroke: #000000; stroke-width: 0.8"/>
      </g>
     </g>
     <g id="text_19">
      <!-- 7.5 -->
      <g transform="translate(634.110211 271.757332) scale(0.1 -0.1)">
       <defs>
        <path id="DejaVuSans-37" d="M 525 4666 
L 3525 4666 
L 3525 4397 
L 1831 0 
L 1172 0 
L 2766 4134 
L 525 4134 
L 525 4666 
z
" transform="scale(0.015625)"/>
       </defs>
       <use xlink:href="#DejaVuSans-37"/>
       <use xlink:href="#DejaVuSans-2e" transform="translate(63.623047 0)"/>
       <use xlink:href="#DejaVuSans-35" transform="translate(95.410156 0)"/>
      </g>
     </g>
    </g>
    <g id="xtick_11">
     <g id="line2d_19">
      <g>
       <use xlink:href="#m8666312efb" x="683.73568" y="257.158895" style="stroke: #000000; stroke-width: 0.8"/>
      </g>
     </g>
     <g id="text_20">
      <!-- 10.0 -->
      <g transform="translate(672.602867 271.757332) scale(0.1 -0.1)">
       <use xlink:href="#DejaVuSans-31"/>
       <use xlink:href="#DejaVuSans-30" transform="translate(63.623047 0)"/>
       <use xlink:href="#DejaVuSans-2e" transform="translate(127.246094 0)"/>
       <use xlink:href="#DejaVuSans-30" transform="translate(159.033203 0)"/>
      </g>
     </g>
    </g>
    <g id="xtick_12">
     <g id="line2d_20">
      <g>
       <use xlink:href="#m8666312efb" x="725.409586" y="257.158895" style="stroke: #000000; stroke-width: 0.8"/>
      </g>
     </g>
     <g id="text_21">
      <!-- 12.5 -->
      <g transform="translate(714.276774 271.757332) scale(0.1 -0.1)">
       <use xlink:href="#DejaVuSans-31"/>
       <use xlink:href="#DejaVuSans-32" transform="translate(63.623047 0)"/>
       <use xlink:href="#DejaVuSans-2e" transform="translate(127.246094 0)"/>
       <use xlink:href="#DejaVuSans-35" transform="translate(159.033203 0)"/>
      </g>
     </g>
    </g>
    <g id="xtick_13">
     <g id="line2d_21">
      <g>
       <use xlink:href="#m8666312efb" x="767.083493" y="257.158895" style="stroke: #000000; stroke-width: 0.8"/>
      </g>
     </g>
     <g id="text_22">
      <!-- 15.0 -->
      <g transform="translate(755.95068 271.757332) scale(0.1 -0.1)">
       <use xlink:href="#DejaVuSans-31"/>
       <use xlink:href="#DejaVuSans-35" transform="translate(63.623047 0)"/>
       <use xlink:href="#DejaVuSans-2e" transform="translate(127.246094 0)"/>
       <use xlink:href="#DejaVuSans-30" transform="translate(159.033203 0)"/>
      </g>
     </g>
    </g>
    <g id="xtick_14">
     <g id="line2d_22">
      <g>
       <use xlink:href="#m8666312efb" x="808.757399" y="257.158895" style="stroke: #000000; stroke-width: 0.8"/>
      </g>
     </g>
     <g id="text_23">
      <!-- 17.5 -->
      <g transform="translate(797.624587 271.757332) scale(0.1 -0.1)">
       <use xlink:href="#DejaVuSans-31"/>
       <use xlink:href="#DejaVuSans-37" transform="translate(63.623047 0)"/>
       <use xlink:href="#DejaVuSans-2e" transform="translate(127.246094 0)"/>
       <use xlink:href="#DejaVuSans-35" transform="translate(159.033203 0)"/>
      </g>
     </g>
    </g>
    <g id="xtick_15">
     <g id="line2d_23">
      <g>
       <use xlink:href="#m8666312efb" x="850.431306" y="257.158895" style="stroke: #000000; stroke-width: 0.8"/>
      </g>
     </g>
     <g id="text_24">
      <!-- 20.0 -->
      <g transform="translate(839.298493 271.757332) scale(0.1 -0.1)">
       <use xlink:href="#DejaVuSans-32"/>
       <use xlink:href="#DejaVuSans-30" transform="translate(63.623047 0)"/>
       <use xlink:href="#DejaVuSans-2e" transform="translate(127.246094 0)"/>
       <use xlink:href="#DejaVuSans-30" transform="translate(159.033203 0)"/>
      </g>
     </g>
    </g>
    <g id="text_25">
     <!-- wavelength [Å] -->
     <g transform="translate(646.526202 287.119832) scale(0.1 -0.1)">
      <defs>
       <path id="DejaVuSans-77" d="M 269 3500 
L 844 3500 
L 1563 769 
L 2278 3500 
L 2956 3500 
L 3675 769 
L 4391 3500 
L 4966 3500 
L 4050 0 
L 3372 0 
L 2619 2869 
L 1863 0 
L 1184 0 
L 269 3500 
z
" transform="scale(0.015625)"/>
       <path id="DejaVuSans-61" d="M 2194 1759 
Q 1497 1759 1228 1600 
Q 959 1441 959 1056 
Q 959 750 1161 570 
Q 1363 391 1709 391 
Q 2188 391 2477 730 
Q 2766 1069 2766 1631 
L 2766 1759 
L 2194 1759 
z
M 3341 1997 
L 3341 0 
L 2766 0 
L 2766 531 
Q 2569 213 2275 61 
Q 1981 -91 1556 -91 
Q 1019 -91 701 211 
Q 384 513 384 1019 
Q 384 1609 779 1909 
Q 1175 2209 1959 2209 
L 2766 2209 
L 2766 2266 
Q 2766 2663 2505 2880 
Q 2244 3097 1772 3097 
Q 1472 3097 1187 3025 
Q 903 2953 641 2809 
L 641 3341 
Q 956 3463 1253 3523 
Q 1550 3584 1831 3584 
Q 2591 3584 2966 3190 
Q 3341 2797 3341 1997 
z
" transform="scale(0.015625)"/>
       <path id="DejaVuSans-76" d="M 191 3500 
L 800 3500 
L 1894 563 
L 2988 3500 
L 3597 3500 
L 2284 0 
L 1503 0 
L 191 3500 
z
" transform="scale(0.015625)"/>
       <path id="DejaVuSans-6c" d="M 603 4863 
L 1178 4863 
L 1178 0 
L 603 0 
L 603 4863 
z
" transform="scale(0.015625)"/>
       <path id="DejaVuSans-67" d="M 2906 1791 
Q 2906 2416 2648 2759 
Q 2391 3103 1925 3103 
Q 1463 3103 1205 2759 
Q 947 2416 947 1791 
Q 947 1169 1205 825 
Q 1463 481 1925 481 
Q 2391 481 2648 825 
Q 2906 1169 2906 1791 
z
M 3481 434 
Q 3481 -459 3084 -895 
Q 2688 -1331 1869 -1331 
Q 1566 -1331 1297 -1286 
Q 1028 -1241 775 -1147 
L 775 -588 
Q 1028 -725 1275 -790 
Q 1522 -856 1778 -856 
Q 2344 -856 2625 -561 
Q 2906 -266 2906 331 
L 2906 616 
Q 2728 306 2450 153 
Q 2172 0 1784 0 
Q 1141 0 747 490 
Q 353 981 353 1791 
Q 353 2603 747 3093 
Q 1141 3584 1784 3584 
Q 2172 3584 2450 3431 
Q 2728 3278 2906 2969 
L 2906 3500 
L 3481 3500 
L 3481 434 
z
" transform="scale(0.015625)"/>
       <path id="DejaVuSans-c5" d="M 2663 5081 
Q 2663 5278 2523 5417 
Q 2384 5556 2188 5556 
Q 1988 5556 1852 5420 
Q 1716 5284 1716 5081 
Q 1716 4884 1853 4746 
Q 1991 4609 2188 4609 
Q 2384 4609 2523 4746 
Q 2663 4884 2663 5081 
z
M 2188 4044 
L 1338 1722 
L 3041 1722 
L 2188 4044 
z
M 1716 4366 
Q 1525 4494 1428 4673 
Q 1331 4853 1331 5081 
Q 1331 5441 1579 5691 
Q 1828 5941 2188 5941 
Q 2544 5941 2795 5689 
Q 3047 5438 3047 5081 
Q 3047 4863 2948 4678 
Q 2850 4494 2663 4366 
L 4325 0 
L 3669 0 
L 3244 1197 
L 1141 1197 
L 716 0 
L 50 0 
L 1716 4366 
z
" transform="scale(0.015625)"/>
      </defs>
      <use xlink:href="#DejaVuSans-77"/>
      <use xlink:href="#DejaVuSans-61" transform="translate(81.787109 0)"/>
      <use xlink:href="#DejaVuSans-76" transform="translate(143.066406 0)"/>
      <use xlink:href="#DejaVuSans-65" transform="translate(202.246094 0)"/>
      <use xlink:href="#DejaVuSans-6c" transform="translate(263.769531 0)"/>
      <use xlink:href="#DejaVuSans-65" transform="translate(291.552734 0)"/>
      <use xlink:href="#DejaVuSans-6e" transform="translate(353.076172 0)"/>
      <use xlink:href="#DejaVuSans-67" transform="translate(416.455078 0)"/>
      <use xlink:href="#DejaVuSans-74" transform="translate(479.931641 0)"/>
      <use xlink:href="#DejaVuSans-68" transform="translate(519.140625 0)"/>
      <use xlink:href="#DejaVuSans-20" transform="translate(582.519531 0)"/>
      <use xlink:href="#DejaVuSans-5b" transform="translate(614.306641 0)"/>
      <use xlink:href="#DejaVuSans-c5" transform="translate(653.320312 0)"/>
      <use xlink:href="#DejaVuSans-5d" transform="translate(721.728516 0)"/>
     </g>
    </g>
   </g>
   <g id="matplotlib.axis_4">
    <g id="ytick_8">
     <g id="line2d_24">
      <g>
       <use xlink:href="#m21b1887cc5" x="503.927885" y="245.797127" style="stroke: #000000; stroke-width: 0.8"/>
      </g>
     </g>
     <g id="text_26">
      <!-- 0 -->
      <g transform="translate(490.565385 249.596346) scale(0.1 -0.1)">
       <use xlink:href="#DejaVuSans-30"/>
      </g>
     </g>
    </g>
    <g id="ytick_9">
     <g id="line2d_25">
      <g>
       <use xlink:href="#m21b1887cc5" x="503.927885" y="194.234758" style="stroke: #000000; stroke-width: 0.8"/>
      </g>
     </g>
     <g id="text_27">
      <!-- 1000 -->
      <g transform="translate(471.477885 198.033977) scale(0.1 -0.1)">
       <use xlink:href="#DejaVuSans-31"/>
       <use xlink:href="#DejaVuSans-30" transform="translate(63.623047 0)"/>
       <use xlink:href="#DejaVuSans-30" transform="translate(127.246094 0)"/>
       <use xlink:href="#DejaVuSans-30" transform="translate(190.869141 0)"/>
      </g>
     </g>
    </g>
    <g id="ytick_10">
     <g id="line2d_26">
      <g>
       <use xlink:href="#m21b1887cc5" x="503.927885" y="142.67239" style="stroke: #000000; stroke-width: 0.8"/>
      </g>
     </g>
     <g id="text_28">
      <!-- 2000 -->
      <g transform="translate(471.477885 146.471608) scale(0.1 -0.1)">
       <use xlink:href="#DejaVuSans-32"/>
       <use xlink:href="#DejaVuSans-30" transform="translate(63.623047 0)"/>
       <use xlink:href="#DejaVuSans-30" transform="translate(127.246094 0)"/>
       <use xlink:href="#DejaVuSans-30" transform="translate(190.869141 0)"/>
      </g>
     </g>
    </g>
    <g id="ytick_11">
     <g id="line2d_27">
      <g>
       <use xlink:href="#m21b1887cc5" x="503.927885" y="91.110021" style="stroke: #000000; stroke-width: 0.8"/>
      </g>
     </g>
     <g id="text_29">
      <!-- 3000 -->
      <g transform="translate(471.477885 94.90924) scale(0.1 -0.1)">
       <use xlink:href="#DejaVuSans-33"/>
       <use xlink:href="#DejaVuSans-30" transform="translate(63.623047 0)"/>
       <use xlink:href="#DejaVuSans-30" transform="translate(127.246094 0)"/>
       <use xlink:href="#DejaVuSans-30" transform="translate(190.869141 0)"/>
      </g>
     </g>
    </g>
    <g id="ytick_12">
     <g id="line2d_28">
      <g>
       <use xlink:href="#m21b1887cc5" x="503.927885" y="39.547652" style="stroke: #000000; stroke-width: 0.8"/>
      </g>
     </g>
     <g id="text_30">
      <!-- 4000 -->
      <g transform="translate(471.477885 43.346871) scale(0.1 -0.1)">
       <use xlink:href="#DejaVuSans-34"/>
       <use xlink:href="#DejaVuSans-30" transform="translate(63.623047 0)"/>
       <use xlink:href="#DejaVuSans-30" transform="translate(127.246094 0)"/>
       <use xlink:href="#DejaVuSans-30" transform="translate(190.869141 0)"/>
      </g>
     </g>
    </g>
    <g id="text_31">
     <!-- [counts] -->
     <g transform="translate(465.398197 152.791947) rotate(-90) scale(0.1 -0.1)">
      <use xlink:href="#DejaVuSans-5b"/>
      <use xlink:href="#DejaVuSans-63" transform="translate(39.013672 0)"/>
      <use xlink:href="#DejaVuSans-6f" transform="translate(93.994141 0)"/>
      <use xlink:href="#DejaVuSans-75" transform="translate(155.175781 0)"/>
      <use xlink:href="#DejaVuSans-6e" transform="translate(218.554688 0)"/>
      <use xlink:href="#DejaVuSans-74" transform="translate(281.933594 0)"/>
      <use xlink:href="#DejaVuSans-73" transform="translate(321.142578 0)"/>
      <use xlink:href="#DejaVuSans-5d" transform="translate(373.242188 0)"/>
     </g>
    </g>
   </g>
   <g id="line2d_29">
    <path d="M 520.349323 155.923918 
L 521.444085 155.923918 
L 521.444085 145.920819 
L 522.538848 145.920819 
L 522.538848 143.3427 
L 523.633611 143.3427 
L 523.633611 139.527085 
L 524.728373 139.527085 
L 524.728373 149.169248 
L 525.823136 149.169248 
L 525.823136 156.903603 
L 526.917898 156.903603 
L 526.917898 149.633309 
L 528.012661 149.633309 
L 528.012661 127.66774 
L 529.107423 127.66774 
L 529.107423 103.794364 
L 530.202186 103.794364 
L 530.202186 84.458475 
L 531.296948 84.458475 
L 531.296948 64.194464 
L 532.391711 64.194464 
L 532.391711 35.680474 
L 533.486473 35.680474 
L 533.486473 31.297673 
L 534.581236 31.297673 
L 534.581236 27.53362 
L 535.675998 27.53362 
L 535.675998 18.561768 
L 536.770761 18.561768 
L 536.770761 23.563318 
L 537.865523 23.563318 
L 537.865523 46.714821 
L 538.960286 46.714821 
L 538.960286 48.416379 
L 540.055048 48.416379 
L 540.055048 52.180432 
L 541.149811 52.180432 
L 541.149811 66.463209 
L 542.244574 66.463209 
L 542.244574 70.278824 
L 543.339336 70.278824 
L 543.339336 82.808479 
L 544.434099 82.808479 
L 544.434099 93.48189 
L 545.528861 93.48189 
L 545.528861 87.242843 
L 546.623624 87.242843 
L 546.623624 99.720936 
L 547.718386 99.720936 
L 547.718386 94.874074 
L 548.813149 94.874074 
L 548.813149 97.40063 
L 549.907911 97.40063 
L 549.907911 94.461575 
L 551.002674 94.461575 
L 551.002674 97.658442 
L 552.097436 97.658442 
L 552.097436 86.417845 
L 554.286961 86.469408 
L 554.286961 77.858492 
L 555.381724 77.858492 
L 555.381724 62.750718 
L 556.476486 62.750718 
L 556.476486 53.314804 
L 557.571249 53.314804 
L 557.571249 47.024196 
L 558.666012 47.024196 
L 558.666012 37.949219 
L 559.760774 37.949219 
L 559.760774 37.175783 
L 560.855537 37.175783 
L 560.855537 42.744519 
L 561.950299 42.744519 
L 561.950299 56.04761 
L 563.045062 56.04761 
L 563.045062 69.350701 
L 564.139824 69.350701 
L 564.139824 75.074124 
L 565.234587 75.074124 
L 565.234587 84.922537 
L 566.329349 84.922537 
L 566.329349 92.347518 
L 567.424112 92.347518 
L 567.424112 101.267807 
L 568.518874 101.267807 
L 568.518874 110.600596 
L 569.613637 110.600596 
L 569.613637 113.127152 
L 570.708399 113.127152 
L 570.708399 119.624011 
L 571.803162 119.624011 
L 571.803162 126.997429 
L 572.897924 126.997429 
L 572.897924 131.380231 
L 573.992687 131.380231 
L 573.992687 140.403645 
L 575.087449 140.403645 
L 575.087449 146.075506 
L 576.182212 146.075506 
L 576.182212 148.34425 
L 577.276975 148.34425 
L 577.276975 155.150483 
L 578.371737 155.150483 
L 578.371737 159.945783 
L 579.4665 159.945783 
L 579.4665 164.741083 
L 580.561262 164.741083 
L 580.561262 166.700453 
L 581.656025 166.700453 
L 581.656025 167.989513 
L 582.750787 167.989513 
L 582.750787 176.136367 
L 583.84555 176.136367 
L 583.84555 176.291054 
L 584.940312 176.291054 
L 584.940312 182.994162 
L 586.035075 182.994162 
L 586.035075 183.973847 
L 587.129837 183.973847 
L 587.129837 187.53165 
L 588.2246 187.53165 
L 588.2246 189.903519 
L 589.319362 189.903519 
L 589.319362 192.326951 
L 590.414125 192.326951 
L 590.414125 195.781629 
L 591.508887 195.781629 
L 591.508887 197.122251 
L 592.60365 197.122251 
L 592.60365 199.339433 
L 593.698412 199.339433 
L 593.698412 203.155048 
L 594.793175 203.155048 
L 594.793175 201.195678 
L 595.887938 201.195678 
L 595.887938 208.41441 
L 596.9827 208.41441 
L 596.9827 207.847224 
L 598.077463 207.847224 
L 598.077463 209.342532 
L 600.266988 209.445657 
L 600.266988 211.869088 
L 601.36175 211.869088 
L 601.36175 212.178463 
L 602.456513 212.178463 
L 602.456513 215.065955 
L 603.551275 215.065955 
L 603.551275 212.384712 
L 604.646038 212.384712 
L 604.646038 216.870638 
L 605.7408 216.870638 
L 605.7408 220.222192 
L 606.835563 220.222192 
L 606.835563 219.758131 
L 607.930325 219.758131 
L 607.930325 222.851873 
L 609.025088 222.851873 
L 609.025088 220.634691 
L 610.11985 220.634691 
L 610.11985 223.986245 
L 611.214613 223.986245 
L 611.214613 225.223742 
L 612.309375 225.223742 
L 612.309375 224.192495 
L 613.404138 224.192495 
L 613.404138 226.409676 
L 614.498901 226.409676 
L 614.498901 226.04874 
L 615.593663 226.04874 
L 615.593663 226.512801 
L 616.688426 226.512801 
L 616.688426 226.976862 
L 617.783188 226.976862 
L 617.783188 228.575296 
L 618.877951 228.575296 
L 618.877951 228.833108 
L 619.972713 228.833108 
L 619.972713 231.462789 
L 621.067476 231.462789 
L 621.067476 229.96748 
L 622.162238 229.96748 
L 622.162238 232.390911 
L 623.257001 232.390911 
L 623.257001 231.978412 
L 625.446526 231.92685 
L 625.446526 231.411226 
L 626.541288 231.411226 
L 626.541288 232.236224 
L 627.636051 232.236224 
L 627.636051 233.267471 
L 628.730813 233.267471 
L 628.730813 233.422159 
L 629.825576 233.422159 
L 629.825576 234.247156 
L 630.920339 234.247156 
L 630.920339 234.76278 
L 632.015101 234.76278 
L 632.015101 235.84559 
L 633.109864 235.84559 
L 633.109864 236.206526 
L 635.299389 236.206526 
L 635.299389 235.84559 
L 636.394151 235.84559 
L 636.394151 236.051839 
L 637.488914 236.051839 
L 637.488914 237.753398 
L 638.583676 237.753398 
L 638.583676 237.031524 
L 639.678439 237.031524 
L 639.678439 237.59871 
L 640.773201 237.59871 
L 640.773201 236.876837 
L 641.867964 236.876837 
L 641.867964 239.454956 
L 642.962726 239.454956 
L 642.962726 238.990894 
L 644.057489 238.990894 
L 644.057489 238.217459 
L 645.152251 238.217459 
L 645.152251 238.784645 
L 646.247014 238.784645 
L 646.247014 238.629958 
L 647.341776 238.629958 
L 647.341776 239.661205 
L 648.436539 239.661205 
L 648.436539 240.486203 
L 649.531302 240.486203 
L 649.531302 240.84714 
L 650.626064 240.84714 
L 650.626064 239.55808 
L 651.720827 239.55808 
L 651.720827 240.64089 
L 652.815589 240.64089 
L 652.815589 239.661205 
L 653.910352 239.661205 
L 653.910352 239.145581 
L 655.005114 239.145581 
L 655.005114 240.537765 
L 656.099877 240.537765 
L 656.099877 241.156514 
L 657.194639 241.156514 
L 657.194639 240.434641 
L 658.289402 240.434641 
L 658.289402 241.51745 
L 659.384164 241.51745 
L 659.384164 240.898702 
L 661.573689 240.795577 
L 661.573689 241.208076 
L 662.668452 241.208076 
L 662.668452 242.084636 
L 663.763214 242.084636 
L 663.763214 241.053389 
L 664.857977 241.053389 
L 664.857977 241.620575 
L 665.952739 241.620575 
L 665.952739 242.084636 
L 668.142265 242.033074 
L 668.142265 242.548698 
L 669.237027 242.548698 
L 669.237027 242.754947 
L 670.33179 242.754947 
L 670.33179 242.394011 
L 672.521315 242.497135 
L 672.521315 242.033074 
L 674.71084 242.033074 
L 674.71084 242.961197 
L 675.805602 242.961197 
L 675.805602 242.651823 
L 676.900365 242.651823 
L 676.900365 242.445573 
L 677.995127 242.445573 
L 677.995127 243.012759 
L 679.08989 243.012759 
L 679.08989 243.734632 
L 680.184652 243.734632 
L 680.184652 242.703385 
L 681.279415 242.703385 
L 681.279415 243.167446 
L 682.374177 243.167446 
L 682.374177 242.80651 
L 683.46894 242.80651 
L 683.46894 243.631508 
L 684.563702 243.631508 
L 684.563702 243.219009 
L 685.658465 243.219009 
L 685.658465 243.837757 
L 686.753228 243.837757 
L 686.753228 243.68307 
L 687.84799 243.68307 
L 687.84799 243.064322 
L 688.942753 243.064322 
L 688.942753 243.889319 
L 690.037515 243.889319 
L 690.037515 243.373696 
L 691.132278 243.373696 
L 691.132278 243.167446 
L 692.22704 243.167446 
L 692.22704 244.301818 
L 693.321803 244.301818 
L 693.321803 244.044007 
L 694.416565 244.044007 
L 694.416565 244.250256 
L 695.511328 244.250256 
L 695.511328 243.734632 
L 696.60609 243.734632 
L 696.60609 244.095569 
L 697.700853 244.095569 
L 697.700853 244.456505 
L 698.795615 244.456505 
L 698.795615 244.147131 
L 700.98514 244.147131 
L 700.98514 243.940882 
L 702.079903 243.940882 
L 702.079903 244.198694 
L 703.174666 244.198694 
L 703.174666 244.404943 
L 704.269428 244.404943 
L 704.269428 244.147131 
L 708.648478 244.147131 
L 708.648478 244.508068 
L 711.932766 244.508068 
L 711.932766 243.734632 
L 713.027528 243.734632 
L 713.027528 244.250256 
L 714.122291 244.250256 
L 714.122291 244.508068 
L 716.311816 244.611193 
L 716.311816 244.198694 
L 717.406578 244.198694 
L 717.406578 244.55963 
L 719.596103 244.611193 
L 719.596103 245.023692 
L 720.690866 245.023692 
L 720.690866 244.662755 
L 723.975154 244.662755 
L 723.975154 244.404943 
L 726.164679 244.353381 
L 726.164679 245.281503 
L 727.259441 245.281503 
L 727.259441 244.76588 
L 729.448966 244.817442 
L 729.448966 244.920567 
L 730.543729 244.920567 
L 730.543729 245.333066 
L 731.638491 245.333066 
L 731.638491 244.920567 
L 732.733254 244.920567 
L 732.733254 245.075254 
L 734.922779 245.178379 
L 734.922779 245.384628 
L 736.017541 245.384628 
L 736.017541 244.972129 
L 737.112304 244.972129 
L 737.112304 244.611193 
L 738.207066 244.611193 
L 738.207066 244.869004 
L 739.301829 244.869004 
L 739.301829 245.075254 
L 743.680879 245.075254 
L 743.680879 245.333066 
L 744.775642 245.333066 
L 744.775642 245.126816 
L 748.059929 245.075254 
L 748.059929 245.281503 
L 749.154692 245.281503 
L 749.154692 244.972129 
L 750.249454 244.972129 
L 750.249454 245.178379 
L 751.344217 245.178379 
L 751.344217 245.333066 
L 753.533742 245.43619 
L 753.533742 245.178379 
L 754.628504 245.178379 
L 754.628504 245.333066 
L 757.912792 245.384628 
L 757.912792 245.126816 
L 759.007555 245.126816 
L 759.007555 245.384628 
L 764.481367 245.281503 
L 764.481367 244.972129 
L 765.57613 244.972129 
L 765.57613 245.43619 
L 769.95518 245.384628 
L 769.95518 245.229941 
L 771.049942 245.229941 
L 771.049942 245.590878 
L 772.144705 245.590878 
L 772.144705 245.43619 
L 780.902805 245.487753 
L 780.902805 245.694002 
L 781.997568 245.694002 
L 781.997568 245.333066 
L 783.09233 245.333066 
L 783.09233 245.539315 
L 789.660905 245.43619 
L 789.660905 245.745565 
L 790.755668 245.745565 
L 790.755668 245.539315 
L 795.134718 245.487753 
L 795.134718 245.694002 
L 797.324243 245.694002 
L 797.324243 245.333066 
L 798.419006 245.333066 
L 798.419006 245.64244 
L 799.513768 245.64244 
L 799.513768 245.487753 
L 801.703293 245.539315 
L 801.703293 245.64244 
L 803.892818 245.590878 
L 803.892818 245.487753 
L 806.082343 245.43619 
L 806.082343 245.745565 
L 809.366631 245.745565 
L 809.366631 245.539315 
L 811.556156 245.590878 
L 811.556156 245.694002 
L 815.935206 245.694002 
L 815.935206 245.487753 
L 817.029969 245.487753 
L 817.029969 245.694002 
L 821.409019 245.745565 
L 821.409019 245.539315 
L 822.503781 245.539315 
L 822.503781 245.694002 
L 835.640932 245.694002 
L 835.640932 245.487753 
L 836.735694 245.487753 
L 836.735694 245.64244 
L 838.925219 245.694002 
L 838.925219 245.797127 
L 844.399032 245.694002 
L 844.399032 245.64244 
L 848.778082 245.64244 
L 848.778082 245.64244 
" clip-path="url(#p35e3723de4)" style="fill: none; stroke: #1f77b4; stroke-width: 1.5; stroke-linecap: square"/>
   </g>
   <g id="patch_8">
    <path d="M 503.927885 257.158895 
L 503.927885 7.2 
" style="fill: none; stroke: #000000; stroke-width: 0.8; stroke-linejoin: miter; stroke-linecap: square"/>
   </g>
   <g id="patch_9">
    <path d="M 865.19952 257.158895 
L 865.19952 7.2 
" style="fill: none; stroke: #000000; stroke-width: 0.8; stroke-linejoin: miter; stroke-linecap: square"/>
   </g>
   <g id="patch_10">
    <path d="M 503.927885 257.158895 
L 865.19952 257.158895 
" style="fill: none; stroke: #000000; stroke-width: 0.8; stroke-linejoin: miter; stroke-linecap: square"/>
   </g>
   <g id="patch_11">
    <path d="M 503.927885 7.2 
L 865.19952 7.2 
" style="fill: none; stroke: #000000; stroke-width: 0.8; stroke-linejoin: miter; stroke-linecap: square"/>
   </g>
  </g>
 </g>
 <defs>
  <clipPath id="pe573f54c72">
   <rect x="53.328125" y="7.2" width="361.271635" height="249.958895"/>
  </clipPath>
  <clipPath id="p35e3723de4">
   <rect x="503.927885" y="7.2" width="361.271635" height="249.958895"/>
  </clipPath>
 </defs>
</svg>
