<?xml version="1.0" encoding="utf-8" standalone="no"?>
<!DOCTYPE svg PUBLIC "-//W3C//DTD SVG 1.1//EN"
  "http://www.w3.org/Graphics/SVG/1.1/DTD/svg11.dtd">
<svg xmlns:xlink="http://www.w3.org/1999/xlink" width="395.328125pt" height="268.200625pt" viewBox="0 0 395.328125 268.200625" xmlns="http://www.w3.org/2000/svg" version="1.1">
 <metadata>
  <rdf:RDF xmlns:dc="http://purl.org/dc/elements/1.1/" xmlns:cc="http://creativecommons.org/ns#" xmlns:rdf="http://www.w3.org/1999/02/22-rdf-syntax-ns#">
   <cc:Work>
    <dc:type rdf:resource="http://purl.org/dc/dcmitype/StillImage"/>
    <dc:date>2025-01-30T11:58:15.337792</dc:date>
    <dc:format>image/svg+xml</dc:format>
    <dc:creator>
     <cc:Agent>
      <dc:title>Matplotlib v3.10.0, https://matplotlib.org/</dc:title>
     </cc:Agent>
    </dc:creator>
   </cc:Work>
  </rdf:RDF>
 </metadata>
 <defs>
  <style type="text/css">*{stroke-linejoin: round; stroke-linecap: butt}</style>
 </defs>
 <g id="figure_1">
  <g id="patch_1">
   <path d="M 0 268.200625 
L 395.328125 268.200625 
L 395.328125 0 
L 0 0 
z
" style="fill: #ffffff"/>
  </g>
  <g id="axes_1">
   <g id="patch_2">
    <path d="M 53.328125 228.96 
L 388.128125 228.96 
L 388.128125 7.2 
L 53.328125 7.2 
z
" style="fill: #ffffff"/>
   </g>
   <g id="matplotlib.axis_1">
    <g id="xtick_1">
     <g id="line2d_1">
      <defs>
       <path id="m759804d226" d="M 0 0 
L 0 3.5 
" style="stroke: #000000; stroke-width: 0.8"/>
      </defs>
      <g>
       <use xlink:href="#m759804d226" x="68.546307" y="228.96" style="stroke: #000000; stroke-width: 0.8"/>
      </g>
     </g>
     <g id="text_1">
      <!-- 1 -->
      <g transform="translate(65.365057 243.558437) scale(0.1 -0.1)">
       <defs>
        <path id="DejaVuSans-31" d="M 794 531 
L 1825 531 
L 1825 4091 
L 703 3866 
L 703 4441 
L 1819 4666 
L 2450 4666 
L 2450 531 
L 3481 531 
L 3481 0 
L 794 0 
L 794 531 
z
" transform="scale(0.015625)"/>
       </defs>
       <use xlink:href="#DejaVuSans-31"/>
      </g>
     </g>
    </g>
    <g id="xtick_2">
     <g id="line2d_2">
      <g>
       <use xlink:href="#m759804d226" x="112.026826" y="228.96" style="stroke: #000000; stroke-width: 0.8"/>
      </g>
     </g>
     <g id="text_2">
      <!-- 2 -->
      <g transform="translate(108.845576 243.558437) scale(0.1 -0.1)">
       <defs>
        <path id="DejaVuSans-32" d="M 1228 531 
L 3431 531 
L 3431 0 
L 469 0 
L 469 531 
Q 828 903 1448 1529 
Q 2069 2156 2228 2338 
Q 2531 2678 2651 2914 
Q 2772 3150 2772 3378 
Q 2772 3750 2511 3984 
Q 2250 4219 1831 4219 
Q 1534 4219 1204 4116 
Q 875 4013 500 3803 
L 500 4441 
Q 881 4594 1212 4672 
Q 1544 4750 1819 4750 
Q 2544 4750 2975 4387 
Q 3406 4025 3406 3419 
Q 3406 3131 3298 2873 
Q 3191 2616 2906 2266 
Q 2828 2175 2409 1742 
Q 1991 1309 1228 531 
z
" transform="scale(0.015625)"/>
       </defs>
       <use xlink:href="#DejaVuSans-32"/>
      </g>
     </g>
    </g>
    <g id="xtick_3">
     <g id="line2d_3">
      <g>
       <use xlink:href="#m759804d226" x="155.507346" y="228.96" style="stroke: #000000; stroke-width: 0.8"/>
      </g>
     </g>
     <g id="text_3">
      <!-- 3 -->
      <g transform="translate(152.326096 243.558437) scale(0.1 -0.1)">
       <defs>
        <path id="DejaVuSans-33" d="M 2597 2516 
Q 3050 2419 3304 2112 
Q 3559 1806 3559 1356 
Q 3559 666 3084 287 
Q 2609 -91 1734 -91 
Q 1441 -91 1130 -33 
Q 819 25 488 141 
L 488 750 
Q 750 597 1062 519 
Q 1375 441 1716 441 
Q 2309 441 2620 675 
Q 2931 909 2931 1356 
Q 2931 1769 2642 2001 
Q 2353 2234 1838 2234 
L 1294 2234 
L 1294 2753 
L 1863 2753 
Q 2328 2753 2575 2939 
Q 2822 3125 2822 3475 
Q 2822 3834 2567 4026 
Q 2313 4219 1838 4219 
Q 1578 4219 1281 4162 
Q 984 4106 628 3988 
L 628 4550 
Q 988 4650 1302 4700 
Q 1616 4750 1894 4750 
Q 2613 4750 3031 4423 
Q 3450 4097 3450 3541 
Q 3450 3153 3228 2886 
Q 3006 2619 2597 2516 
z
" transform="scale(0.015625)"/>
       </defs>
       <use xlink:href="#DejaVuSans-33"/>
      </g>
     </g>
    </g>
    <g id="xtick_4">
     <g id="line2d_4">
      <g>
       <use xlink:href="#m759804d226" x="198.987865" y="228.96" style="stroke: #000000; stroke-width: 0.8"/>
      </g>
     </g>
     <g id="text_4">
      <!-- 4 -->
      <g transform="translate(195.806615 243.558437) scale(0.1 -0.1)">
       <defs>
        <path id="DejaVuSans-34" d="M 2419 4116 
L 825 1625 
L 2419 1625 
L 2419 4116 
z
M 2253 4666 
L 3047 4666 
L 3047 1625 
L 3713 1625 
L 3713 1100 
L 3047 1100 
L 3047 0 
L 2419 0 
L 2419 1100 
L 313 1100 
L 313 1709 
L 2253 4666 
z
" transform="scale(0.015625)"/>
       </defs>
       <use xlink:href="#DejaVuSans-34"/>
      </g>
     </g>
    </g>
    <g id="xtick_5">
     <g id="line2d_5">
      <g>
       <use xlink:href="#m759804d226" x="242.468385" y="228.96" style="stroke: #000000; stroke-width: 0.8"/>
      </g>
     </g>
     <g id="text_5">
      <!-- 5 -->
      <g transform="translate(239.287135 243.558437) scale(0.1 -0.1)">
       <defs>
        <path id="DejaVuSans-35" d="M 691 4666 
L 3169 4666 
L 3169 4134 
L 1269 4134 
L 1269 2991 
Q 1406 3038 1543 3061 
Q 1681 3084 1819 3084 
Q 2600 3084 3056 2656 
Q 3513 2228 3513 1497 
Q 3513 744 3044 326 
Q 2575 -91 1722 -91 
Q 1428 -91 1123 -41 
Q 819 9 494 109 
L 494 744 
Q 775 591 1075 516 
Q 1375 441 1709 441 
Q 2250 441 2565 725 
Q 2881 1009 2881 1497 
Q 2881 1984 2565 2268 
Q 2250 2553 1709 2553 
Q 1456 2553 1204 2497 
Q 953 2441 691 2322 
L 691 4666 
z
" transform="scale(0.015625)"/>
       </defs>
       <use xlink:href="#DejaVuSans-35"/>
      </g>
     </g>
    </g>
    <g id="xtick_6">
     <g id="line2d_6">
      <g>
       <use xlink:href="#m759804d226" x="285.948904" y="228.96" style="stroke: #000000; stroke-width: 0.8"/>
      </g>
     </g>
     <g id="text_6">
      <!-- 6 -->
      <g transform="translate(282.767654 243.558437) scale(0.1 -0.1)">
       <defs>
        <path id="DejaVuSans-36" d="M 2113 2584 
Q 1688 2584 1439 2293 
Q 1191 2003 1191 1497 
Q 1191 994 1439 701 
Q 1688 409 2113 409 
Q 2538 409 2786 701 
Q 3034 994 3034 1497 
Q 3034 2003 2786 2293 
Q 2538 2584 2113 2584 
z
M 3366 4563 
L 3366 3988 
Q 3128 4100 2886 4159 
Q 2644 4219 2406 4219 
Q 1781 4219 1451 3797 
Q 1122 3375 1075 2522 
Q 1259 2794 1537 2939 
Q 1816 3084 2150 3084 
Q 2853 3084 3261 2657 
Q 3669 2231 3669 1497 
Q 3669 778 3244 343 
Q 2819 -91 2113 -91 
Q 1303 -91 875 529 
Q 447 1150 447 2328 
Q 447 3434 972 4092 
Q 1497 4750 2381 4750 
Q 2619 4750 2861 4703 
Q 3103 4656 3366 4563 
z
" transform="scale(0.015625)"/>
       </defs>
       <use xlink:href="#DejaVuSans-36"/>
      </g>
     </g>
    </g>
    <g id="xtick_7">
     <g id="line2d_7">
      <g>
       <use xlink:href="#m759804d226" x="329.429424" y="228.96" style="stroke: #000000; stroke-width: 0.8"/>
      </g>
     </g>
     <g id="text_7">
      <!-- 7 -->
      <g transform="translate(326.248174 243.558437) scale(0.1 -0.1)">
       <defs>
        <path id="DejaVuSans-37" d="M 525 4666 
L 3525 4666 
L 3525 4397 
L 1831 0 
L 1172 0 
L 2766 4134 
L 525 4134 
L 525 4666 
z
" transform="scale(0.015625)"/>
       </defs>
       <use xlink:href="#DejaVuSans-37"/>
      </g>
     </g>
    </g>
    <g id="xtick_8">
     <g id="line2d_8">
      <g>
       <use xlink:href="#m759804d226" x="372.909943" y="228.96" style="stroke: #000000; stroke-width: 0.8"/>
      </g>
     </g>
     <g id="text_8">
      <!-- 8 -->
      <g transform="translate(369.728693 243.558437) scale(0.1 -0.1)">
       <defs>
        <path id="DejaVuSans-38" d="M 2034 2216 
Q 1584 2216 1326 1975 
Q 1069 1734 1069 1313 
Q 1069 891 1326 650 
Q 1584 409 2034 409 
Q 2484 409 2743 651 
Q 3003 894 3003 1313 
Q 3003 1734 2745 1975 
Q 2488 2216 2034 2216 
z
M 1403 2484 
Q 997 2584 770 2862 
Q 544 3141 544 3541 
Q 544 4100 942 4425 
Q 1341 4750 2034 4750 
Q 2731 4750 3128 4425 
Q 3525 4100 3525 3541 
Q 3525 3141 3298 2862 
Q 3072 2584 2669 2484 
Q 3125 2378 3379 2068 
Q 3634 1759 3634 1313 
Q 3634 634 3220 271 
Q 2806 -91 2034 -91 
Q 1263 -91 848 271 
Q 434 634 434 1313 
Q 434 1759 690 2068 
Q 947 2378 1403 2484 
z
M 1172 3481 
Q 1172 3119 1398 2916 
Q 1625 2713 2034 2713 
Q 2441 2713 2670 2916 
Q 2900 3119 2900 3481 
Q 2900 3844 2670 4047 
Q 2441 4250 2034 4250 
Q 1625 4250 1398 4047 
Q 1172 3844 1172 3481 
z
" transform="scale(0.015625)"/>
       </defs>
       <use xlink:href="#DejaVuSans-38"/>
      </g>
     </g>
    </g>
    <g id="text_9">
     <!-- wavelength [Å] -->
     <g transform="translate(182.690625 258.920937) scale(0.1 -0.1)">
      <defs>
       <path id="DejaVuSans-77" d="M 269 3500 
L 844 3500 
L 1563 769 
L 2278 3500 
L 2956 3500 
L 3675 769 
L 4391 3500 
L 4966 3500 
L 4050 0 
L 3372 0 
L 2619 2869 
L 1863 0 
L 1184 0 
L 269 3500 
z
" transform="scale(0.015625)"/>
       <path id="DejaVuSans-61" d="M 2194 1759 
Q 1497 1759 1228 1600 
Q 959 1441 959 1056 
Q 959 750 1161 570 
Q 1363 391 1709 391 
Q 2188 391 2477 730 
Q 2766 1069 2766 1631 
L 2766 1759 
L 2194 1759 
z
M 3341 1997 
L 3341 0 
L 2766 0 
L 2766 531 
Q 2569 213 2275 61 
Q 1981 -91 1556 -91 
Q 1019 -91 701 211 
Q 384 513 384 1019 
Q 384 1609 779 1909 
Q 1175 2209 1959 2209 
L 2766 2209 
L 2766 2266 
Q 2766 2663 2505 2880 
Q 2244 3097 1772 3097 
Q 1472 3097 1187 3025 
Q 903 2953 641 2809 
L 641 3341 
Q 956 3463 1253 3523 
Q 1550 3584 1831 3584 
Q 2591 3584 2966 3190 
Q 3341 2797 3341 1997 
z
" transform="scale(0.015625)"/>
       <path id="DejaVuSans-76" d="M 191 3500 
L 800 3500 
L 1894 563 
L 2988 3500 
L 3597 3500 
L 2284 0 
L 1503 0 
L 191 3500 
z
" transform="scale(0.015625)"/>
       <path id="DejaVuSans-65" d="M 3597 1894 
L 3597 1613 
L 953 1613 
Q 991 1019 1311 708 
Q 1631 397 2203 397 
Q 2534 397 2845 478 
Q 3156 559 3463 722 
L 3463 178 
Q 3153 47 2828 -22 
Q 2503 -91 2169 -91 
Q 1331 -91 842 396 
Q 353 884 353 1716 
Q 353 2575 817 3079 
Q 1281 3584 2069 3584 
Q 2775 3584 3186 3129 
Q 3597 2675 3597 1894 
z
M 3022 2063 
Q 3016 2534 2758 2815 
Q 2500 3097 2075 3097 
Q 1594 3097 1305 2825 
Q 1016 2553 972 2059 
L 3022 2063 
z
" transform="scale(0.015625)"/>
       <path id="DejaVuSans-6c" d="M 603 4863 
L 1178 4863 
L 1178 0 
L 603 0 
L 603 4863 
z
" transform="scale(0.015625)"/>
       <path id="DejaVuSans-6e" d="M 3513 2113 
L 3513 0 
L 2938 0 
L 2938 2094 
Q 2938 2591 2744 2837 
Q 2550 3084 2163 3084 
Q 1697 3084 1428 2787 
Q 1159 2491 1159 1978 
L 1159 0 
L 581 0 
L 581 3500 
L 1159 3500 
L 1159 2956 
Q 1366 3272 1645 3428 
Q 1925 3584 2291 3584 
Q 2894 3584 3203 3211 
Q 3513 2838 3513 2113 
z
" transform="scale(0.015625)"/>
       <path id="DejaVuSans-67" d="M 2906 1791 
Q 2906 2416 2648 2759 
Q 2391 3103 1925 3103 
Q 1463 3103 1205 2759 
Q 947 2416 947 1791 
Q 947 1169 1205 825 
Q 1463 481 1925 481 
Q 2391 481 2648 825 
Q 2906 1169 2906 1791 
z
M 3481 434 
Q 3481 -459 3084 -895 
Q 2688 -1331 1869 -1331 
Q 1566 -1331 1297 -1286 
Q 1028 -1241 775 -1147 
L 775 -588 
Q 1028 -725 1275 -790 
Q 1522 -856 1778 -856 
Q 2344 -856 2625 -561 
Q 2906 -266 2906 331 
L 2906 616 
Q 2728 306 2450 153 
Q 2172 0 1784 0 
Q 1141 0 747 490 
Q 353 981 353 1791 
Q 353 2603 747 3093 
Q 1141 3584 1784 3584 
Q 2172 3584 2450 3431 
Q 2728 3278 2906 2969 
L 2906 3500 
L 3481 3500 
L 3481 434 
z
" transform="scale(0.015625)"/>
       <path id="DejaVuSans-74" d="M 1172 4494 
L 1172 3500 
L 2356 3500 
L 2356 3053 
L 1172 3053 
L 1172 1153 
Q 1172 725 1289 603 
Q 1406 481 1766 481 
L 2356 481 
L 2356 0 
L 1766 0 
Q 1100 0 847 248 
Q 594 497 594 1153 
L 594 3053 
L 172 3053 
L 172 3500 
L 594 3500 
L 594 4494 
L 1172 4494 
z
" transform="scale(0.015625)"/>
       <path id="DejaVuSans-68" d="M 3513 2113 
L 3513 0 
L 2938 0 
L 2938 2094 
Q 2938 2591 2744 2837 
Q 2550 3084 2163 3084 
Q 1697 3084 1428 2787 
Q 1159 2491 1159 1978 
L 1159 0 
L 581 0 
L 581 4863 
L 1159 4863 
L 1159 2956 
Q 1366 3272 1645 3428 
Q 1925 3584 2291 3584 
Q 2894 3584 3203 3211 
Q 3513 2838 3513 2113 
z
" transform="scale(0.015625)"/>
       <path id="DejaVuSans-20" transform="scale(0.015625)"/>
       <path id="DejaVuSans-5b" d="M 550 4863 
L 1875 4863 
L 1875 4416 
L 1125 4416 
L 1125 -397 
L 1875 -397 
L 1875 -844 
L 550 -844 
L 550 4863 
z
" transform="scale(0.015625)"/>
       <path id="DejaVuSans-c5" d="M 2663 5081 
Q 2663 5278 2523 5417 
Q 2384 5556 2188 5556 
Q 1988 5556 1852 5420 
Q 1716 5284 1716 5081 
Q 1716 4884 1853 4746 
Q 1991 4609 2188 4609 
Q 2384 4609 2523 4746 
Q 2663 4884 2663 5081 
z
M 2188 4044 
L 1338 1722 
L 3041 1722 
L 2188 4044 
z
M 1716 4366 
Q 1525 4494 1428 4673 
Q 1331 4853 1331 5081 
Q 1331 5441 1579 5691 
Q 1828 5941 2188 5941 
Q 2544 5941 2795 5689 
Q 3047 5438 3047 5081 
Q 3047 4863 2948 4678 
Q 2850 4494 2663 4366 
L 4325 0 
L 3669 0 
L 3244 1197 
L 1141 1197 
L 716 0 
L 50 0 
L 1716 4366 
z
" transform="scale(0.015625)"/>
       <path id="DejaVuSans-5d" d="M 1947 4863 
L 1947 -844 
L 622 -844 
L 622 -397 
L 1369 -397 
L 1369 4416 
L 622 4416 
L 622 4863 
L 1947 4863 
z
" transform="scale(0.015625)"/>
      </defs>
      <use xlink:href="#DejaVuSans-77"/>
      <use xlink:href="#DejaVuSans-61" transform="translate(81.787109 0)"/>
      <use xlink:href="#DejaVuSans-76" transform="translate(143.066406 0)"/>
      <use xlink:href="#DejaVuSans-65" transform="translate(202.246094 0)"/>
      <use xlink:href="#DejaVuSans-6c" transform="translate(263.769531 0)"/>
      <use xlink:href="#DejaVuSans-65" transform="translate(291.552734 0)"/>
      <use xlink:href="#DejaVuSans-6e" transform="translate(353.076172 0)"/>
      <use xlink:href="#DejaVuSans-67" transform="translate(416.455078 0)"/>
      <use xlink:href="#DejaVuSans-74" transform="translate(479.931641 0)"/>
      <use xlink:href="#DejaVuSans-68" transform="translate(519.140625 0)"/>
      <use xlink:href="#DejaVuSans-20" transform="translate(582.519531 0)"/>
      <use xlink:href="#DejaVuSans-5b" transform="translate(614.306641 0)"/>
      <use xlink:href="#DejaVuSans-c5" transform="translate(653.320312 0)"/>
      <use xlink:href="#DejaVuSans-5d" transform="translate(721.728516 0)"/>
     </g>
    </g>
   </g>
   <g id="matplotlib.axis_2">
    <g id="ytick_1">
     <g id="line2d_9">
      <defs>
       <path id="me4da591b59" d="M 0 0 
L -3.5 0 
" style="stroke: #000000; stroke-width: 0.8"/>
      </defs>
      <g>
       <use xlink:href="#me4da591b59" x="53.328125" y="218.88" style="stroke: #000000; stroke-width: 0.8"/>
      </g>
     </g>
     <g id="text_10">
      <!-- 0 -->
      <g transform="translate(39.965625 222.679219) scale(0.1 -0.1)">
       <defs>
        <path id="DejaVuSans-30" d="M 2034 4250 
Q 1547 4250 1301 3770 
Q 1056 3291 1056 2328 
Q 1056 1369 1301 889 
Q 1547 409 2034 409 
Q 2525 409 2770 889 
Q 3016 1369 3016 2328 
Q 3016 3291 2770 3770 
Q 2525 4250 2034 4250 
z
M 2034 4750 
Q 2819 4750 3233 4129 
Q 3647 3509 3647 2328 
Q 3647 1150 3233 529 
Q 2819 -91 2034 -91 
Q 1250 -91 836 529 
Q 422 1150 422 2328 
Q 422 3509 836 4129 
Q 1250 4750 2034 4750 
z
" transform="scale(0.015625)"/>
       </defs>
       <use xlink:href="#DejaVuSans-30"/>
      </g>
     </g>
    </g>
    <g id="ytick_2">
     <g id="line2d_10">
      <g>
       <use xlink:href="#me4da591b59" x="53.328125" y="189.328549" style="stroke: #000000; stroke-width: 0.8"/>
      </g>
     </g>
     <g id="text_11">
      <!-- 1000 -->
      <g transform="translate(20.878125 193.127768) scale(0.1 -0.1)">
       <use xlink:href="#DejaVuSans-31"/>
       <use xlink:href="#DejaVuSans-30" transform="translate(63.623047 0)"/>
       <use xlink:href="#DejaVuSans-30" transform="translate(127.246094 0)"/>
       <use xlink:href="#DejaVuSans-30" transform="translate(190.869141 0)"/>
      </g>
     </g>
    </g>
    <g id="ytick_3">
     <g id="line2d_11">
      <g>
       <use xlink:href="#me4da591b59" x="53.328125" y="159.777098" style="stroke: #000000; stroke-width: 0.8"/>
      </g>
     </g>
     <g id="text_12">
      <!-- 2000 -->
      <g transform="translate(20.878125 163.576316) scale(0.1 -0.1)">
       <use xlink:href="#DejaVuSans-32"/>
       <use xlink:href="#DejaVuSans-30" transform="translate(63.623047 0)"/>
       <use xlink:href="#DejaVuSans-30" transform="translate(127.246094 0)"/>
       <use xlink:href="#DejaVuSans-30" transform="translate(190.869141 0)"/>
      </g>
     </g>
    </g>
    <g id="ytick_4">
     <g id="line2d_12">
      <g>
       <use xlink:href="#me4da591b59" x="53.328125" y="130.225646" style="stroke: #000000; stroke-width: 0.8"/>
      </g>
     </g>
     <g id="text_13">
      <!-- 3000 -->
      <g transform="translate(20.878125 134.024865) scale(0.1 -0.1)">
       <use xlink:href="#DejaVuSans-33"/>
       <use xlink:href="#DejaVuSans-30" transform="translate(63.623047 0)"/>
       <use xlink:href="#DejaVuSans-30" transform="translate(127.246094 0)"/>
       <use xlink:href="#DejaVuSans-30" transform="translate(190.869141 0)"/>
      </g>
     </g>
    </g>
    <g id="ytick_5">
     <g id="line2d_13">
      <g>
       <use xlink:href="#me4da591b59" x="53.328125" y="100.674195" style="stroke: #000000; stroke-width: 0.8"/>
      </g>
     </g>
     <g id="text_14">
      <!-- 4000 -->
      <g transform="translate(20.878125 104.473414) scale(0.1 -0.1)">
       <use xlink:href="#DejaVuSans-34"/>
       <use xlink:href="#DejaVuSans-30" transform="translate(63.623047 0)"/>
       <use xlink:href="#DejaVuSans-30" transform="translate(127.246094 0)"/>
       <use xlink:href="#DejaVuSans-30" transform="translate(190.869141 0)"/>
      </g>
     </g>
    </g>
    <g id="ytick_6">
     <g id="line2d_14">
      <g>
       <use xlink:href="#me4da591b59" x="53.328125" y="71.122744" style="stroke: #000000; stroke-width: 0.8"/>
      </g>
     </g>
     <g id="text_15">
      <!-- 5000 -->
      <g transform="translate(20.878125 74.921963) scale(0.1 -0.1)">
       <use xlink:href="#DejaVuSans-35"/>
       <use xlink:href="#DejaVuSans-30" transform="translate(63.623047 0)"/>
       <use xlink:href="#DejaVuSans-30" transform="translate(127.246094 0)"/>
       <use xlink:href="#DejaVuSans-30" transform="translate(190.869141 0)"/>
      </g>
     </g>
    </g>
    <g id="ytick_7">
     <g id="line2d_15">
      <g>
       <use xlink:href="#me4da591b59" x="53.328125" y="41.571293" style="stroke: #000000; stroke-width: 0.8"/>
      </g>
     </g>
     <g id="text_16">
      <!-- 6000 -->
      <g transform="translate(20.878125 45.370512) scale(0.1 -0.1)">
       <use xlink:href="#DejaVuSans-36"/>
       <use xlink:href="#DejaVuSans-30" transform="translate(63.623047 0)"/>
       <use xlink:href="#DejaVuSans-30" transform="translate(127.246094 0)"/>
       <use xlink:href="#DejaVuSans-30" transform="translate(190.869141 0)"/>
      </g>
     </g>
    </g>
    <g id="ytick_8">
     <g id="line2d_16">
      <g>
       <use xlink:href="#me4da591b59" x="53.328125" y="12.019842" style="stroke: #000000; stroke-width: 0.8"/>
      </g>
     </g>
     <g id="text_17">
      <!-- 7000 -->
      <g transform="translate(20.878125 15.81906) scale(0.1 -0.1)">
       <use xlink:href="#DejaVuSans-37"/>
       <use xlink:href="#DejaVuSans-30" transform="translate(63.623047 0)"/>
       <use xlink:href="#DejaVuSans-30" transform="translate(127.246094 0)"/>
       <use xlink:href="#DejaVuSans-30" transform="translate(190.869141 0)"/>
      </g>
     </g>
    </g>
    <g id="text_18">
     <!-- [counts] -->
     <g transform="translate(14.798438 138.6925) rotate(-90) scale(0.1 -0.1)">
      <defs>
       <path id="DejaVuSans-63" d="M 3122 3366 
L 3122 2828 
Q 2878 2963 2633 3030 
Q 2388 3097 2138 3097 
Q 1578 3097 1268 2742 
Q 959 2388 959 1747 
Q 959 1106 1268 751 
Q 1578 397 2138 397 
Q 2388 397 2633 464 
Q 2878 531 3122 666 
L 3122 134 
Q 2881 22 2623 -34 
Q 2366 -91 2075 -91 
Q 1284 -91 818 406 
Q 353 903 353 1747 
Q 353 2603 823 3093 
Q 1294 3584 2113 3584 
Q 2378 3584 2631 3529 
Q 2884 3475 3122 3366 
z
" transform="scale(0.015625)"/>
       <path id="DejaVuSans-6f" d="M 1959 3097 
Q 1497 3097 1228 2736 
Q 959 2375 959 1747 
Q 959 1119 1226 758 
Q 1494 397 1959 397 
Q 2419 397 2687 759 
Q 2956 1122 2956 1747 
Q 2956 2369 2687 2733 
Q 2419 3097 1959 3097 
z
M 1959 3584 
Q 2709 3584 3137 3096 
Q 3566 2609 3566 1747 
Q 3566 888 3137 398 
Q 2709 -91 1959 -91 
Q 1206 -91 779 398 
Q 353 888 353 1747 
Q 353 2609 779 3096 
Q 1206 3584 1959 3584 
z
" transform="scale(0.015625)"/>
       <path id="DejaVuSans-75" d="M 544 1381 
L 544 3500 
L 1119 3500 
L 1119 1403 
Q 1119 906 1312 657 
Q 1506 409 1894 409 
Q 2359 409 2629 706 
Q 2900 1003 2900 1516 
L 2900 3500 
L 3475 3500 
L 3475 0 
L 2900 0 
L 2900 538 
Q 2691 219 2414 64 
Q 2138 -91 1772 -91 
Q 1169 -91 856 284 
Q 544 659 544 1381 
z
M 1991 3584 
L 1991 3584 
z
" transform="scale(0.015625)"/>
       <path id="DejaVuSans-73" d="M 2834 3397 
L 2834 2853 
Q 2591 2978 2328 3040 
Q 2066 3103 1784 3103 
Q 1356 3103 1142 2972 
Q 928 2841 928 2578 
Q 928 2378 1081 2264 
Q 1234 2150 1697 2047 
L 1894 2003 
Q 2506 1872 2764 1633 
Q 3022 1394 3022 966 
Q 3022 478 2636 193 
Q 2250 -91 1575 -91 
Q 1294 -91 989 -36 
Q 684 19 347 128 
L 347 722 
Q 666 556 975 473 
Q 1284 391 1588 391 
Q 1994 391 2212 530 
Q 2431 669 2431 922 
Q 2431 1156 2273 1281 
Q 2116 1406 1581 1522 
L 1381 1569 
Q 847 1681 609 1914 
Q 372 2147 372 2553 
Q 372 3047 722 3315 
Q 1072 3584 1716 3584 
Q 2034 3584 2315 3537 
Q 2597 3491 2834 3397 
z
" transform="scale(0.015625)"/>
      </defs>
      <use xlink:href="#DejaVuSans-5b"/>
      <use xlink:href="#DejaVuSans-63" transform="translate(39.013672 0)"/>
      <use xlink:href="#DejaVuSans-6f" transform="translate(93.994141 0)"/>
      <use xlink:href="#DejaVuSans-75" transform="translate(155.175781 0)"/>
      <use xlink:href="#DejaVuSans-6e" transform="translate(218.554688 0)"/>
      <use xlink:href="#DejaVuSans-74" transform="translate(281.933594 0)"/>
      <use xlink:href="#DejaVuSans-73" transform="translate(321.142578 0)"/>
      <use xlink:href="#DejaVuSans-5d" transform="translate(373.242188 0)"/>
     </g>
    </g>
   </g>
   <g id="patch_3">
    <path d="M 53.328125 228.96 
L 53.328125 7.2 
" style="fill: none; stroke: #000000; stroke-width: 0.8; stroke-linejoin: miter; stroke-linecap: square"/>
   </g>
   <g id="patch_4">
    <path d="M 388.128125 228.96 
L 388.128125 7.2 
" style="fill: none; stroke: #000000; stroke-width: 0.8; stroke-linejoin: miter; stroke-linecap: square"/>
   </g>
   <g id="patch_5">
    <path d="M 53.328125 228.96 
L 388.128125 228.96 
" style="fill: none; stroke: #000000; stroke-width: 0.8; stroke-linejoin: miter; stroke-linecap: square"/>
   </g>
   <g id="patch_6">
    <path d="M 53.328125 7.2 
L 388.128125 7.2 
" style="fill: none; stroke: #000000; stroke-width: 0.8; stroke-linejoin: miter; stroke-linecap: square"/>
   </g>
   <g id="legend_1">
    <g id="patch_7">
     <path d="M 306.904688 59.234375 
L 381.128125 59.234375 
Q 383.128125 59.234375 383.128125 57.234375 
L 383.128125 14.2 
Q 383.128125 12.2 381.128125 12.2 
L 306.904688 12.2 
Q 304.904688 12.2 304.904688 14.2 
L 304.904688 57.234375 
Q 304.904688 59.234375 306.904688 59.234375 
z
" style="fill: #ffffff; opacity: 0.8; stroke: #cccccc; stroke-linejoin: miter"/>
    </g>
    <g id="line2d_17">
     <path d="M 308.904688 20.298438 
L 308.904688 20.298438 
L 318.904688 20.298438 
L 318.904688 20.298438 
L 328.904688 20.298438 
" style="fill: none; stroke: #1f77b4; stroke-width: 1.5; stroke-linecap: square"/>
    </g>
    <g id="text_19">
     <!-- monitor -->
     <g transform="translate(336.904688 23.798438) scale(0.1 -0.1)">
      <defs>
       <path id="DejaVuSans-6d" d="M 3328 2828 
Q 3544 3216 3844 3400 
Q 4144 3584 4550 3584 
Q 5097 3584 5394 3201 
Q 5691 2819 5691 2113 
L 5691 0 
L 5113 0 
L 5113 2094 
Q 5113 2597 4934 2840 
Q 4756 3084 4391 3084 
Q 3944 3084 3684 2787 
Q 3425 2491 3425 1978 
L 3425 0 
L 2847 0 
L 2847 2094 
Q 2847 2600 2669 2842 
Q 2491 3084 2119 3084 
Q 1678 3084 1418 2786 
Q 1159 2488 1159 1978 
L 1159 0 
L 581 0 
L 581 3500 
L 1159 3500 
L 1159 2956 
Q 1356 3278 1631 3431 
Q 1906 3584 2284 3584 
Q 2666 3584 2933 3390 
Q 3200 3197 3328 2828 
z
" transform="scale(0.015625)"/>
       <path id="DejaVuSans-69" d="M 603 3500 
L 1178 3500 
L 1178 0 
L 603 0 
L 603 3500 
z
M 603 4863 
L 1178 4863 
L 1178 4134 
L 603 4134 
L 603 4863 
z
" transform="scale(0.015625)"/>
       <path id="DejaVuSans-72" d="M 2631 2963 
Q 2534 3019 2420 3045 
Q 2306 3072 2169 3072 
Q 1681 3072 1420 2755 
Q 1159 2438 1159 1844 
L 1159 0 
L 581 0 
L 581 3500 
L 1159 3500 
L 1159 2956 
Q 1341 3275 1631 3429 
Q 1922 3584 2338 3584 
Q 2397 3584 2469 3576 
Q 2541 3569 2628 3553 
L 2631 2963 
z
" transform="scale(0.015625)"/>
      </defs>
      <use xlink:href="#DejaVuSans-6d"/>
      <use xlink:href="#DejaVuSans-6f" transform="translate(97.412109 0)"/>
      <use xlink:href="#DejaVuSans-6e" transform="translate(158.59375 0)"/>
      <use xlink:href="#DejaVuSans-69" transform="translate(221.972656 0)"/>
      <use xlink:href="#DejaVuSans-74" transform="translate(249.755859 0)"/>
      <use xlink:href="#DejaVuSans-6f" transform="translate(288.964844 0)"/>
      <use xlink:href="#DejaVuSans-72" transform="translate(350.146484 0)"/>
     </g>
    </g>
    <g id="line2d_18">
     <path d="M 308.904688 34.976562 
L 308.904688 34.976562 
L 318.904688 34.976562 
L 318.904688 34.976562 
L 328.904688 34.976562 
" style="fill: none; stroke: #ff7f0e; stroke-width: 1.5; stroke-linecap: square"/>
    </g>
    <g id="text_20">
     <!-- detector -->
     <g transform="translate(336.904688 38.476562) scale(0.1 -0.1)">
      <defs>
       <path id="DejaVuSans-64" d="M 2906 2969 
L 2906 4863 
L 3481 4863 
L 3481 0 
L 2906 0 
L 2906 525 
Q 2725 213 2448 61 
Q 2172 -91 1784 -91 
Q 1150 -91 751 415 
Q 353 922 353 1747 
Q 353 2572 751 3078 
Q 1150 3584 1784 3584 
Q 2172 3584 2448 3432 
Q 2725 3281 2906 2969 
z
M 947 1747 
Q 947 1113 1208 752 
Q 1469 391 1925 391 
Q 2381 391 2643 752 
Q 2906 1113 2906 1747 
Q 2906 2381 2643 2742 
Q 2381 3103 1925 3103 
Q 1469 3103 1208 2742 
Q 947 2381 947 1747 
z
" transform="scale(0.015625)"/>
      </defs>
      <use xlink:href="#DejaVuSans-64"/>
      <use xlink:href="#DejaVuSans-65" transform="translate(63.476562 0)"/>
      <use xlink:href="#DejaVuSans-74" transform="translate(125 0)"/>
      <use xlink:href="#DejaVuSans-65" transform="translate(164.208984 0)"/>
      <use xlink:href="#DejaVuSans-63" transform="translate(225.732422 0)"/>
      <use xlink:href="#DejaVuSans-74" transform="translate(280.712891 0)"/>
      <use xlink:href="#DejaVuSans-6f" transform="translate(319.921875 0)"/>
      <use xlink:href="#DejaVuSans-72" transform="translate(381.103516 0)"/>
     </g>
    </g>
    <g id="line2d_19">
     <path d="M 308.904688 49.654688 
L 308.904688 49.654688 
L 318.904688 49.654688 
L 318.904688 49.654688 
L 328.904688 49.654688 
" style="fill: none; stroke: #2ca02c; stroke-width: 1.5; stroke-linecap: square"/>
    </g>
    <g id="text_21">
     <!-- true -->
     <g transform="translate(336.904688 53.154688) scale(0.1 -0.1)">
      <use xlink:href="#DejaVuSans-74"/>
      <use xlink:href="#DejaVuSans-72" transform="translate(39.208984 0)"/>
      <use xlink:href="#DejaVuSans-75" transform="translate(80.322266 0)"/>
      <use xlink:href="#DejaVuSans-65" transform="translate(143.701172 0)"/>
     </g>
    </g>
   </g>
   <g id="line2d_20">
    <path d="M 68.546307 218.88 
L 75.394489 218.88 
L 75.394489 218.67314 
L 80.720852 218.584485 
L 80.720852 218.554934 
L 81.481761 218.554934 
L 81.481761 218.67314 
L 83.764489 218.614037 
L 83.764489 218.495831 
L 85.286307 218.554934 
L 85.286307 218.318522 
L 86.047216 218.318522 
L 86.047216 217.579736 
L 86.808125 217.579736 
L 86.808125 218.200317 
L 88.329943 218.288971 
L 88.329943 217.875251 
L 89.090852 217.875251 
L 89.090852 217.46153 
L 89.851761 217.46153 
L 89.851761 217.727493 
L 90.61267 217.727493 
L 90.61267 218.052559 
L 91.37358 218.052559 
L 91.37358 217.875251 
L 92.134489 217.875251 
L 92.134489 217.609288 
L 92.895398 217.609288 
L 92.895398 217.136464 
L 93.656307 217.136464 
L 93.656307 217.343325 
L 94.417216 217.343325 
L 94.417216 217.697942 
L 95.178125 217.697942 
L 95.178125 217.372876 
L 95.939034 217.372876 
L 95.939034 216.988707 
L 96.699943 216.988707 
L 96.699943 217.166016 
L 97.460852 217.166016 
L 97.460852 216.220369 
L 98.98267 216.249921 
L 98.98267 215.481583 
L 99.74358 215.481583 
L 99.74358 215.038311 
L 100.504489 215.038311 
L 100.504489 214.329077 
L 101.265398 214.329077 
L 101.265398 213.678945 
L 102.026307 213.678945 
L 102.026307 214.329077 
L 102.787216 214.329077 
L 102.787216 213.974459 
L 103.548125 213.974459 
L 103.548125 212.437784 
L 104.309034 212.437784 
L 104.309034 212.585541 
L 105.069943 212.585541 
L 105.069943 211.255726 
L 105.830852 211.255726 
L 105.830852 209.896359 
L 107.35267 209.985013 
L 107.35267 209.393984 
L 108.11358 209.393984 
L 108.11358 205.877361 
L 108.874489 205.877361 
L 108.874489 205.493193 
L 109.635398 205.493193 
L 109.635398 205.670501 
L 110.396307 205.670501 
L 110.396307 201.296887 
L 111.157216 201.296887 
L 111.157216 195.179736 
L 111.918125 195.179736 
L 111.918125 196.450449 
L 112.679034 196.450449 
L 112.679034 194.795567 
L 113.439943 194.795567 
L 113.439943 189.594512 
L 114.200852 189.594512 
L 114.200852 189.712718 
L 114.961761 189.712718 
L 114.961761 184.038839 
L 115.72267 184.038839 
L 115.72267 181.379208 
L 116.48358 181.379208 
L 116.48358 180.492665 
L 117.244489 180.492665 
L 117.244489 175.70533 
L 118.005398 175.70533 
L 118.005398 170.888443 
L 118.766307 170.888443 
L 118.766307 165.303219 
L 120.288125 165.244116 
L 120.288125 162.436728 
L 121.049034 162.436728 
L 121.049034 159.333826 
L 121.809943 159.333826 
L 121.809943 154.369182 
L 122.570852 154.369182 
L 122.570852 145.415092 
L 123.331761 145.415092 
L 123.331761 147.483694 
L 124.09267 147.483694 
L 124.09267 143.021425 
L 124.85358 143.021425 
L 124.85358 135.012982 
L 125.614489 135.012982 
L 125.614489 129.90058 
L 126.375398 129.90058 
L 126.375398 126.768127 
L 127.136307 126.768127 
L 127.136307 120.916939 
L 127.897216 120.916939 
L 127.897216 118.582375 
L 128.658125 118.582375 
L 128.658125 109.185013 
L 129.419034 109.185013 
L 129.419034 105.284222 
L 130.179943 105.284222 
L 130.179943 99.492137 
L 130.940852 99.492137 
L 130.940852 99.167071 
L 131.701761 99.167071 
L 131.701761 88.026174 
L 132.46267 88.026174 
L 132.46267 81.406649 
L 133.22358 81.406649 
L 133.22358 90.212982 
L 133.984489 90.212982 
L 133.984489 74.166544 
L 134.745398 74.166544 
L 134.745398 68.374459 
L 136.267216 68.404011 
L 136.267216 61.518522 
L 137.028125 61.518522 
L 137.028125 51.677889 
L 137.789034 51.677889 
L 137.789034 54.839894 
L 138.549943 54.839894 
L 138.549943 54.426174 
L 139.310852 54.426174 
L 139.310852 52.889499 
L 140.071761 52.889499 
L 140.071761 45.826702 
L 140.83267 45.826702 
L 140.83267 47.097414 
L 141.59358 47.097414 
L 141.59358 42.221425 
L 142.354489 42.221425 
L 142.354489 41.659947 
L 143.115398 41.659947 
L 143.115398 45.17657 
L 143.876307 45.17657 
L 143.876307 39.857309 
L 144.637216 39.857309 
L 144.637216 34.272084 
L 145.398125 34.272084 
L 145.398125 34.478945 
L 146.159034 34.478945 
L 146.159034 31.169182 
L 146.919943 31.169182 
L 146.919943 29.336992 
L 147.680852 29.336992 
L 147.680852 36.22248 
L 148.441761 36.22248 
L 148.441761 42.044116 
L 149.20267 42.044116 
L 149.20267 48.42723 
L 149.96358 48.42723 
L 149.96358 26.115884 
L 150.724489 26.115884 
L 150.724489 36.133826 
L 151.485398 36.133826 
L 151.485398 34.804011 
L 152.246307 34.804011 
L 152.246307 31.169182 
L 153.007216 31.169182 
L 153.007216 29.218786 
L 153.768125 29.218786 
L 153.768125 37.315884 
L 154.529034 37.315884 
L 154.529034 44.201372 
L 155.289943 44.201372 
L 155.289943 30.607704 
L 156.050852 30.607704 
L 156.050852 39.148074 
L 156.811761 39.148074 
L 156.811761 31.435145 
L 157.57267 31.435145 
L 157.57267 30.400844 
L 158.33358 30.400844 
L 158.33358 35.631451 
L 159.094489 35.631451 
L 159.094489 22.687916 
L 159.855398 22.687916 
L 159.855398 37.700053 
L 160.616307 37.700053 
L 160.616307 29.839367 
L 161.377216 29.839367 
L 161.377216 33.267335 
L 162.138125 33.267335 
L 162.138125 32.883166 
L 162.899034 32.883166 
L 162.899034 30.371293 
L 163.659943 30.371293 
L 163.659943 33.917467 
L 164.420852 33.917467 
L 164.420852 25.377098 
L 165.181761 25.377098 
L 165.181761 47.097414 
L 165.94267 47.097414 
L 165.94267 43.935409 
L 166.70358 43.935409 
L 166.70358 45.944908 
L 167.464489 45.944908 
L 167.464489 41.600844 
L 168.225398 41.600844 
L 168.225398 32.646755 
L 168.986307 32.646755 
L 168.986307 34.951768 
L 169.747216 34.951768 
L 169.747216 26.44095 
L 170.508125 26.44095 
L 170.508125 59.774987 
L 171.269034 59.774987 
L 171.269034 46.092665 
L 172.029943 46.092665 
L 172.029943 52.682639 
L 172.790852 52.682639 
L 172.790852 59.597678 
L 173.551761 59.597678 
L 173.551761 44.703747 
L 174.31267 44.703747 
L 174.31267 54.042005 
L 175.07358 54.042005 
L 175.07358 61.311662 
L 175.834489 61.311662 
L 175.834489 56.110607 
L 176.595398 56.110607 
L 176.595398 67.99029 
L 177.356307 67.99029 
L 177.356307 55.637784 
L 178.117216 55.637784 
L 178.117216 75.378153 
L 178.878125 75.378153 
L 178.878125 40.625646 
L 179.639034 40.625646 
L 179.639034 65.33066 
L 180.399943 65.33066 
L 180.399943 63.262058 
L 181.160852 63.262058 
L 181.160852 72.423008 
L 181.921761 72.423008 
L 181.921761 77.387652 
L 182.68267 77.387652 
L 182.68267 76.382902 
L 183.44358 76.382902 
L 183.44358 79.840422 
L 184.204489 79.840422 
L 184.204489 83.948074 
L 184.965398 83.948074 
L 184.965398 76.412454 
L 185.726307 76.412454 
L 185.726307 91.661003 
L 186.487216 91.661003 
L 186.487216 81.702164 
L 187.248125 81.702164 
L 187.248125 85.455198 
L 188.009034 85.455198 
L 188.009034 92.695303 
L 188.769943 92.695303 
L 188.769943 104.249921 
L 189.530852 104.249921 
L 189.530852 97.275778 
L 190.291761 97.275778 
L 190.291761 84.923272 
L 191.05267 84.923272 
L 191.05267 98.310079 
L 191.81358 98.310079 
L 191.81358 102.565488 
L 192.574489 102.565488 
L 192.574489 101.117467 
L 193.335398 101.117467 
L 193.335398 112.938047 
L 194.096307 112.938047 
L 194.096307 112.140158 
L 194.857216 112.140158 
L 194.857216 97.955462 
L 195.618125 97.955462 
L 195.618125 100.142269 
L 196.379034 100.142269 
L 196.379034 104.811398 
L 197.139943 104.811398 
L 197.139943 109.12591 
L 197.900852 109.12591 
L 197.900852 112.878945 
L 198.661761 112.878945 
L 198.661761 113.79504 
L 199.42267 113.79504 
L 199.42267 118.70058 
L 200.18358 118.70058 
L 200.18358 126.177098 
L 200.944489 126.177098 
L 200.944489 111.342269 
L 201.705398 111.342269 
L 201.705398 114.267863 
L 202.466307 114.267863 
L 202.466307 118.818786 
L 203.227216 118.818786 
L 203.227216 110.780792 
L 203.988125 110.780792 
L 203.988125 117.725383 
L 204.749034 117.725383 
L 204.749034 123.635673 
L 205.509943 123.635673 
L 205.509943 129.161794 
L 206.270852 129.161794 
L 206.270852 120.030396 
L 207.031761 120.030396 
L 207.031761 124.167599 
L 207.79267 124.167599 
L 207.79267 133.180792 
L 208.55358 133.180792 
L 208.55358 121.123799 
L 209.314489 121.123799 
L 209.314489 133.535409 
L 210.075398 133.535409 
L 210.075398 132.205594 
L 210.836307 132.205594 
L 210.836307 130.609815 
L 211.597216 130.609815 
L 211.597216 132.146491 
L 212.358125 132.146491 
L 212.358125 131.348602 
L 213.119034 131.348602 
L 213.119034 141.336992 
L 213.879943 141.336992 
L 213.879943 142.903219 
L 214.640852 142.903219 
L 214.640852 131.289499 
L 215.401761 131.289499 
L 215.401761 147.749657 
L 216.16267 147.749657 
L 216.16267 127.24095 
L 216.92358 127.24095 
L 216.92358 145.651504 
L 217.684489 145.651504 
L 217.684489 138.972876 
L 218.445398 138.972876 
L 218.445398 139.357045 
L 219.206307 139.357045 
L 219.206307 144.321689 
L 219.967216 144.321689 
L 219.967216 146.212982 
L 220.728125 146.212982 
L 220.728125 145.799261 
L 221.489034 145.799261 
L 221.489034 144.203483 
L 222.249943 144.203483 
L 222.249943 128.600317 
L 223.010852 128.600317 
L 223.010852 162.761794 
L 223.771761 162.761794 
L 223.771761 140.420897 
L 224.53267 140.420897 
L 224.53267 148.724855 
L 225.29358 148.724855 
L 225.29358 157.531187 
L 226.054489 157.531187 
L 226.054489 152.655198 
L 226.815398 152.655198 
L 226.815398 144.942269 
L 227.576307 144.942269 
L 227.576307 151.236728 
L 228.337216 151.236728 
L 228.337216 154.221425 
L 229.098125 154.221425 
L 229.098125 144.824063 
L 229.859034 144.824063 
L 229.859034 165.687388 
L 230.619943 165.687388 
L 230.619943 148.340686 
L 231.380852 148.340686 
L 231.380852 163.145963 
L 232.141761 163.145963 
L 232.141761 157.678945 
L 232.90267 157.678945 
L 232.90267 152.418786 
L 233.66358 152.418786 
L 233.66358 161.875251 
L 234.424489 161.875251 
L 234.424489 162.436728 
L 235.185398 162.436728 
L 235.185398 161.786596 
L 235.946307 161.786596 
L 235.946307 155.935409 
L 236.707216 155.935409 
L 236.707216 168.347018 
L 237.468125 168.347018 
L 237.468125 155.669446 
L 238.229034 155.669446 
L 238.229034 164.50533 
L 238.989943 164.50533 
L 238.989943 162.968654 
L 239.750852 162.968654 
L 239.750852 166.573931 
L 240.511761 166.573931 
L 240.511761 165.214565 
L 241.27267 165.214565 
L 241.27267 163.08686 
L 242.03358 163.08686 
L 242.03358 169.263113 
L 242.794489 169.263113 
L 242.794489 163.530132 
L 243.555398 163.530132 
L 243.555398 170.947546 
L 244.316307 170.947546 
L 244.316307 169.942797 
L 245.077216 169.942797 
L 245.077216 171.183958 
L 245.838125 171.183958 
L 245.838125 166.898997 
L 246.599034 166.898997 
L 246.599034 175.084749 
L 247.359943 175.084749 
L 247.359943 170.41562 
L 248.120852 170.41562 
L 248.120852 165.244116 
L 248.881761 165.244116 
L 248.881761 183.181847 
L 249.64267 183.181847 
L 249.64267 169.381319 
L 250.40358 169.381319 
L 250.40358 177.74438 
L 251.164489 177.74438 
L 251.164489 183.536464 
L 251.925398 183.536464 
L 251.925398 176.946491 
L 252.686307 176.946491 
L 252.686307 178.305858 
L 253.447216 178.305858 
L 253.447216 180.463113 
L 254.208125 180.463113 
L 254.208125 183.418259 
L 254.969034 183.418259 
L 254.969034 182.265752 
L 255.729943 182.265752 
L 255.729943 180.138047 
L 256.490852 180.138047 
L 256.490852 184.984485 
L 257.251761 184.984485 
L 257.251761 180.315356 
L 258.01267 180.315356 
L 258.01267 185.191346 
L 258.77358 185.191346 
L 258.77358 191.574459 
L 259.534489 191.574459 
L 259.534489 184.245699 
L 260.295398 184.245699 
L 260.295398 187.496359 
L 261.056307 187.496359 
L 261.056307 191.219842 
L 261.817216 191.219842 
L 261.817216 189.121689 
L 262.578125 189.121689 
L 262.578125 192.579208 
L 263.339034 192.579208 
L 263.339034 193.790818 
L 264.099943 193.790818 
L 264.099943 187.200844 
L 264.860852 187.200844 
L 264.860852 197.721161 
L 265.621761 197.721161 
L 265.621761 196.214037 
L 266.38267 196.214037 
L 266.38267 192.786069 
L 267.14358 192.786069 
L 267.14358 193.258892 
L 267.904489 193.258892 
L 267.904489 195.829868 
L 268.665398 195.829868 
L 268.665398 196.775515 
L 269.426307 196.775515 
L 269.426307 190.924327 
L 270.187216 190.924327 
L 270.187216 200.498997 
L 270.948125 200.498997 
L 270.948125 198.489499 
L 271.709034 198.489499 
L 271.709034 199.553351 
L 272.469943 199.553351 
L 272.469943 199.789763 
L 273.230852 199.789763 
L 273.230852 202.59715 
L 273.991761 202.59715 
L 273.991761 198.51905 
L 274.75267 198.51905 
L 274.75267 203.424591 
L 275.51358 203.424591 
L 275.51358 202.508496 
L 276.274489 202.508496 
L 276.274489 201.887916 
L 277.035398 201.887916 
L 277.035398 202.331187 
L 277.796307 202.331187 
L 277.796307 200.676306 
L 278.557216 200.676306 
L 278.557216 203.306385 
L 279.318125 203.306385 
L 279.318125 205.522744 
L 280.079034 205.522744 
L 280.079034 206.941214 
L 280.839943 206.941214 
L 280.839943 205.906913 
L 281.600852 205.906913 
L 281.600852 206.231979 
L 282.361761 206.231979 
L 282.361761 208.743852 
L 283.12267 208.743852 
L 283.12267 206.291082 
L 283.88358 206.291082 
L 283.88358 208.211926 
L 284.644489 208.211926 
L 284.644489 208.418786 
L 285.405398 208.418786 
L 285.405398 207.88686 
L 286.166307 207.88686 
L 286.166307 210.280528 
L 286.927216 210.280528 
L 286.927216 208.862058 
L 287.688125 208.862058 
L 287.688125 210.664697 
L 288.449034 210.664697 
L 288.449034 211.167071 
L 289.209943 211.167071 
L 289.209943 210.280528 
L 289.970852 210.280528 
L 289.970852 210.516939 
L 290.731761 210.516939 
L 290.731761 211.787652 
L 291.49267 211.787652 
L 291.49267 212.999261 
L 292.25358 212.999261 
L 292.25358 211.994512 
L 293.014489 211.994512 
L 293.014489 212.644644 
L 293.775398 212.644644 
L 293.775398 214.122216 
L 294.536307 214.122216 
L 294.536307 212.940158 
L 296.058125 213.028813 
L 296.058125 214.890554 
L 296.819034 214.890554 
L 296.819034 213.206121 
L 297.579943 213.206121 
L 297.579943 215.097414 
L 298.340852 215.097414 
L 298.340852 215.304274 
L 299.101761 215.304274 
L 299.101761 215.717995 
L 299.86267 215.717995 
L 299.86267 215.392929 
L 300.62358 215.392929 
L 300.62358 216.545435 
L 301.384489 216.545435 
L 301.384489 216.161266 
L 302.145398 216.161266 
L 302.145398 216.279472 
L 302.906307 216.279472 
L 302.906307 216.161266 
L 303.667216 216.161266 
L 303.667216 216.545435 
L 304.428125 216.545435 
L 304.428125 217.579736 
L 305.949943 217.609288 
L 305.949943 217.845699 
L 308.99358 217.904802 
L 308.99358 218.200317 
L 309.754489 218.200317 
L 309.754489 218.436728 
L 310.515398 218.436728 
L 310.515398 218.554934 
L 311.276307 218.554934 
L 311.276307 218.702691 
L 312.037216 218.702691 
L 312.037216 218.88 
L 372.909943 218.88 
L 372.909943 218.88 
" clip-path="url(#paecfc6e5f6)" style="fill: none; stroke: #1f77b4; stroke-width: 1.5; stroke-linecap: square"/>
   </g>
   <g id="line2d_21">
    <path d="M 68.546307 218.88 
L 75.394489 218.88 
L 75.394489 218.732243 
L 76.155398 218.732243 
L 76.155398 218.88 
L 77.677216 218.88 
L 77.677216 218.732243 
L 78.438125 218.732243 
L 78.438125 218.88 
L 79.959943 218.88 
L 79.959943 218.614037 
L 81.481761 218.643588 
L 81.481761 218.88 
L 82.24267 218.88 
L 82.24267 218.614037 
L 84.525398 218.702691 
L 84.525398 218.407177 
L 85.286307 218.407177 
L 85.286307 218.170765 
L 86.047216 218.170765 
L 86.047216 218.348074 
L 86.808125 218.348074 
L 86.808125 218.88 
L 87.569034 218.88 
L 87.569034 218.288971 
L 88.329943 218.288971 
L 88.329943 217.638839 
L 89.090852 217.638839 
L 89.090852 218.229868 
L 89.851761 218.229868 
L 89.851761 217.638839 
L 90.61267 217.638839 
L 90.61267 217.816148 
L 91.37358 217.816148 
L 91.37358 217.609288 
L 92.134489 217.609288 
L 92.134489 217.431979 
L 93.656307 217.491082 
L 93.656307 217.816148 
L 94.417216 217.816148 
L 94.417216 217.166016 
L 95.178125 217.166016 
L 95.178125 217.343325 
L 96.699943 217.313773 
L 96.699943 216.043061 
L 97.460852 216.043061 
L 97.460852 216.900053 
L 98.221761 216.900053 
L 98.221761 215.836201 
L 98.98267 215.836201 
L 98.98267 215.067863 
L 100.504489 215.156517 
L 100.504489 214.624591 
L 102.026307 214.565488 
L 102.026307 214.181319 
L 102.787216 214.181319 
L 102.787216 213.767599 
L 103.548125 213.767599 
L 103.548125 213.206121 
L 104.309034 213.206121 
L 104.309034 210.753351 
L 105.069943 210.753351 
L 105.069943 211.728549 
L 105.830852 211.728549 
L 105.830852 210.103219 
L 106.591761 210.103219 
L 106.591761 210.664697 
L 107.35267 210.664697 
L 107.35267 208.123272 
L 108.11358 208.123272 
L 108.11358 207.148074 
L 108.874489 207.148074 
L 108.874489 204.192929 
L 109.635398 204.192929 
L 109.635398 202.951768 
L 110.396307 202.951768 
L 110.396307 201.858364 
L 111.157216 201.858364 
L 111.157216 197.632507 
L 111.918125 197.632507 
L 111.918125 196.864169 
L 112.679034 196.864169 
L 112.679034 194.145435 
L 113.439943 194.145435 
L 113.439943 189.298997 
L 114.961761 189.269446 
L 114.961761 181.970237 
L 115.72267 181.970237 
L 115.72267 183.950185 
L 116.48358 183.950185 
L 116.48358 177.182902 
L 117.244489 177.182902 
L 117.244489 176.828285 
L 118.005398 176.828285 
L 118.005398 171.154406 
L 118.766307 171.154406 
L 118.766307 169.292665 
L 119.527216 169.292665 
L 119.527216 161.845699 
L 120.288125 161.845699 
L 120.288125 158.210871 
L 121.049034 158.210871 
L 121.049034 160.013509 
L 121.809943 160.013509 
L 121.809943 155.610343 
L 122.570852 155.610343 
L 122.570852 147.690554 
L 123.331761 147.690554 
L 123.331761 146.153879 
L 124.09267 146.153879 
L 124.09267 139.504802 
L 124.85358 139.504802 
L 124.85358 135.042533 
L 125.614489 135.042533 
L 125.614489 131.762322 
L 126.375398 131.762322 
L 126.375398 123.694776 
L 127.136307 123.694776 
L 127.136307 119.291609 
L 127.897216 119.291609 
L 127.897216 116.04095 
L 128.658125 116.04095 
L 128.658125 113.617731 
L 129.419034 113.617731 
L 129.419034 106.939103 
L 130.179943 106.939103 
L 130.179943 96.123272 
L 130.940852 96.123272 
L 130.940852 95.561794 
L 131.701761 95.561794 
L 131.701761 93.43409 
L 132.46267 93.43409 
L 132.46267 87.996623 
L 133.22358 87.996623 
L 133.22358 78.540158 
L 133.984489 78.540158 
L 133.984489 75.348602 
L 134.745398 75.348602 
L 134.745398 72.836728 
L 135.506307 72.836728 
L 135.506307 65.182902 
L 136.267216 65.182902 
L 136.267216 52.71219 
L 137.028125 52.71219 
L 137.028125 55.874195 
L 137.789034 55.874195 
L 137.789034 57.410871 
L 138.549943 57.410871 
L 138.549943 60.720633 
L 139.310852 60.720633 
L 139.310852 44.644644 
L 140.071761 44.644644 
L 140.071761 44.349129 
L 140.83267 44.349129 
L 140.83267 46.063113 
L 141.59358 46.063113 
L 141.59358 41.246227 
L 142.354489 41.246227 
L 142.354489 52.682639 
L 143.115398 52.682639 
L 143.115398 39.177625 
L 143.876307 39.177625 
L 143.876307 33.326438 
L 144.637216 33.326438 
L 144.637216 40.389235 
L 145.398125 40.389235 
L 145.398125 35.986069 
L 146.159034 35.986069 
L 146.159034 30.193984 
L 146.919943 30.193984 
L 146.919943 40.536992 
L 147.680852 40.536992 
L 147.680852 32.76496 
L 148.441761 32.76496 
L 148.441761 34.18343 
L 149.20267 34.18343 
L 149.20267 25.731715 
L 149.96358 25.731715 
L 149.96358 44.290026 
L 150.724489 44.290026 
L 150.724489 43.34438 
L 151.485398 43.34438 
L 151.485398 23.574459 
L 152.246307 23.574459 
L 152.246307 45.59029 
L 153.007216 45.59029 
L 153.007216 35.6019 
L 153.768125 35.6019 
L 153.768125 27.800317 
L 154.529034 27.800317 
L 154.529034 31.257836 
L 155.289943 31.257836 
L 155.289943 33.178681 
L 156.050852 33.178681 
L 156.050852 44.083166 
L 156.811761 44.083166 
L 156.811761 31.582902 
L 157.57267 31.582902 
L 157.57267 38.527493 
L 158.33358 38.527493 
L 158.33358 23.958628 
L 159.094489 23.958628 
L 159.094489 33.887916 
L 159.855398 33.887916 
L 159.855398 37.995567 
L 160.616307 37.995567 
L 160.616307 33.385541 
L 161.377216 33.385541 
L 161.377216 32.026174 
L 162.138125 32.026174 
L 162.138125 17.28 
L 162.899034 17.28 
L 162.899034 40.152823 
L 163.659943 40.152823 
L 163.659943 38.970765 
L 164.420852 38.970765 
L 164.420852 34.272084 
L 165.181761 34.272084 
L 165.181761 45.856253 
L 165.94267 45.856253 
L 165.94267 50.850449 
L 166.70358 50.850449 
L 166.70358 34.744908 
L 167.464489 34.744908 
L 167.464489 32.498997 
L 168.225398 32.498997 
L 168.225398 39.532243 
L 168.986307 39.532243 
L 168.986307 44.053615 
L 169.747216 44.053615 
L 169.747216 43.433034 
L 170.508125 43.433034 
L 170.508125 38.379736 
L 171.269034 38.379736 
L 171.269034 56.819842 
L 172.029943 56.819842 
L 172.029943 45.767599 
L 172.790852 45.767599 
L 172.790852 45.147018 
L 173.551761 45.147018 
L 173.551761 58.977098 
L 174.31267 58.977098 
L 174.31267 53.864697 
L 175.07358 53.864697 
L 175.07358 57.204011 
L 175.834489 57.204011 
L 175.834489 57.588179 
L 176.595398 57.588179 
L 176.595398 55.637784 
L 177.356307 55.637784 
L 177.356307 62.818786 
L 178.117216 62.818786 
L 178.117216 60.45467 
L 178.878125 60.45467 
L 178.878125 79.426702 
L 179.639034 79.426702 
L 179.639034 66.542269 
L 180.399943 66.542269 
L 180.399943 64.000844 
L 181.160852 64.000844 
L 181.160852 75.585013 
L 181.921761 75.585013 
L 181.921761 70.472612 
L 182.68267 70.472612 
L 182.68267 76.885277 
L 183.44358 76.885277 
L 183.44358 73.841478 
L 184.204489 73.841478 
L 184.204489 77.3581 
L 184.965398 77.3581 
L 184.965398 80.549657 
L 185.726307 80.549657 
L 185.726307 86.903219 
L 187.248125 86.814565 
L 187.248125 87.435145 
L 188.009034 87.435145 
L 188.009034 88.617203 
L 188.769943 88.617203 
L 188.769943 91.956517 
L 189.530852 91.956517 
L 189.530852 101.79715 
L 190.291761 101.79715 
L 190.291761 97.30533 
L 191.05267 97.30533 
L 191.05267 106.968654 
L 191.81358 106.968654 
L 191.81358 97.246227 
L 192.574489 97.246227 
L 192.574489 100.881055 
L 193.335398 100.881055 
L 193.335398 96.773404 
L 194.096307 96.773404 
L 194.096307 98.191873 
L 194.857216 98.191873 
L 194.857216 112.849393 
L 195.618125 112.849393 
L 195.618125 107.618786 
L 196.379034 107.618786 
L 196.379034 110.455726 
L 197.139943 110.455726 
L 197.139943 102.831451 
L 197.900852 102.831451 
L 197.900852 109.510079 
L 198.661761 109.510079 
L 198.661761 123.635673 
L 199.42267 123.635673 
L 199.42267 107.116412 
L 200.18358 107.116412 
L 200.18358 121.153351 
L 200.944489 121.153351 
L 200.944489 106.998206 
L 201.705398 106.998206 
L 201.705398 110.869446 
L 202.466307 110.869446 
L 202.466307 125.40876 
L 203.227216 125.40876 
L 203.227216 122.069446 
L 203.988125 122.069446 
L 203.988125 113.144908 
L 204.749034 113.144908 
L 204.749034 121.833034 
L 205.509943 121.833034 
L 205.509943 134.56971 
L 206.270852 134.56971 
L 206.270852 120.857836 
L 207.031761 120.857836 
L 207.031761 128.009288 
L 207.79267 128.009288 
L 207.79267 120.473668 
L 208.55358 120.473668 
L 208.55358 140.154934 
L 209.314489 140.154934 
L 209.314489 124.315356 
L 210.075398 124.315356 
L 210.075398 124.078945 
L 210.836307 124.078945 
L 210.836307 130.550712 
L 211.597216 130.550712 
L 211.597216 133.505858 
L 212.358125 133.505858 
L 212.358125 134.126438 
L 213.119034 134.126438 
L 213.119034 142.903219 
L 213.879943 142.903219 
L 213.879943 128.275251 
L 214.640852 128.275251 
L 214.640852 142.844116 
L 215.401761 142.844116 
L 215.401761 142.134881 
L 216.16267 142.134881 
L 216.16267 133.801372 
L 216.92358 133.801372 
L 216.92358 143.553351 
L 217.684489 143.553351 
L 217.684489 138.500053 
L 218.445398 138.500053 
L 218.445398 146.094776 
L 219.206307 146.094776 
L 219.206307 138.559156 
L 219.967216 138.559156 
L 219.967216 134.215092 
L 220.728125 134.215092 
L 220.728125 156.76285 
L 221.489034 156.76285 
L 221.489034 140.332243 
L 222.249943 140.332243 
L 222.249943 151.68 
L 223.010852 151.68 
L 223.010852 145.828813 
L 223.771761 145.828813 
L 223.771761 146.656253 
L 224.53267 146.656253 
L 224.53267 143.110079 
L 225.29358 143.110079 
L 225.29358 147.129077 
L 226.054489 147.129077 
L 226.054489 157.087916 
L 226.815398 157.087916 
L 226.815398 152.507441 
L 227.576307 152.507441 
L 227.576307 152.330132 
L 228.337216 152.330132 
L 228.337216 153.837256 
L 229.098125 153.837256 
L 229.098125 158.861003 
L 229.859034 158.861003 
L 229.859034 144.76496 
L 230.619943 144.76496 
L 230.619943 148.931715 
L 231.380852 148.931715 
L 231.380852 164.209815 
L 232.141761 164.209815 
L 232.141761 158.063113 
L 232.90267 158.063113 
L 232.90267 155.994512 
L 233.66358 155.994512 
L 233.66358 159.954406 
L 234.424489 159.954406 
L 234.424489 163.707441 
L 235.185398 163.707441 
L 235.185398 165.510079 
L 235.946307 165.510079 
L 235.946307 154.014565 
L 236.707216 154.014565 
L 236.707216 166.633034 
L 237.468125 166.633034 
L 237.468125 155.817203 
L 238.229034 155.817203 
L 238.229034 163.323272 
L 238.989943 163.323272 
L 238.989943 165.864697 
L 239.750852 165.864697 
L 239.750852 158.151768 
L 240.511761 158.151768 
L 240.511761 166.810343 
L 241.27267 166.810343 
L 241.27267 162.25942 
L 242.03358 162.25942 
L 242.03358 169.765488 
L 242.794489 169.765488 
L 242.794489 171.213509 
L 243.555398 171.213509 
L 243.555398 165.628285 
L 244.316307 165.628285 
L 244.316307 170.917995 
L 245.077216 170.917995 
L 245.077216 166.042005 
L 245.838125 166.042005 
L 245.838125 176.53277 
L 246.599034 176.53277 
L 246.599034 175.025646 
L 247.359943 175.025646 
L 247.359943 167.578681 
L 248.120852 167.578681 
L 248.120852 170.917995 
L 248.881761 170.917995 
L 248.881761 176.207704 
L 249.64267 176.207704 
L 249.64267 176.385013 
L 250.40358 176.385013 
L 250.40358 175.232507 
L 251.164489 175.232507 
L 251.164489 177.064697 
L 251.925398 177.064697 
L 251.925398 182.177098 
L 252.686307 182.177098 
L 252.686307 176.385013 
L 253.447216 176.385013 
L 253.447216 177.95124 
L 254.208125 177.95124 
L 254.208125 187.053087 
L 254.969034 187.053087 
L 254.969034 180.581319 
L 255.729943 180.581319 
L 255.729943 182.768127 
L 256.490852 182.768127 
L 256.490852 179.78343 
L 257.251761 179.78343 
L 257.251761 189.298997 
L 258.01267 189.298997 
L 258.01267 185.250449 
L 258.77358 185.250449 
L 258.77358 183.831979 
L 259.534489 183.831979 
L 259.534489 188.560211 
L 260.295398 188.560211 
L 260.295398 186.491609 
L 261.056307 186.491609 
L 261.056307 187.910079 
L 261.817216 187.910079 
L 261.817216 190.628813 
L 262.578125 190.628813 
L 262.578125 194.588707 
L 263.339034 194.588707 
L 263.339034 189.121689 
L 264.099943 189.121689 
L 264.099943 192.579208 
L 264.860852 192.579208 
L 264.860852 194.44095 
L 265.621761 194.44095 
L 265.621761 191.338047 
L 266.38267 191.338047 
L 266.38267 196.805066 
L 267.14358 196.805066 
L 267.14358 195.711662 
L 267.904489 195.711662 
L 267.904489 192.874723 
L 268.665398 192.874723 
L 268.665398 196.539103 
L 269.426307 196.539103 
L 269.426307 194.470501 
L 270.187216 194.470501 
L 270.187216 199.494248 
L 270.948125 199.494248 
L 270.948125 196.775515 
L 271.709034 196.775515 
L 271.709034 200.262586 
L 272.469943 200.262586 
L 272.469943 200.380792 
L 273.230852 200.380792 
L 273.230852 199.671557 
L 273.991761 199.671557 
L 273.991761 202.272084 
L 274.75267 202.272084 
L 274.75267 200.853615 
L 275.51358 200.853615 
L 275.51358 201.385541 
L 276.274489 201.385541 
L 276.274489 202.951768 
L 277.035398 202.951768 
L 277.035398 202.242533 
L 277.796307 202.242533 
L 277.796307 203.040422 
L 278.557216 203.040422 
L 278.557216 202.774459 
L 279.318125 202.774459 
L 279.318125 204.902164 
L 280.839943 204.990818 
L 280.839943 204.754406 
L 281.600852 204.754406 
L 281.600852 208.862058 
L 282.361761 208.862058 
L 282.361761 205.759156 
L 283.12267 205.759156 
L 283.12267 208.862058 
L 283.88358 208.862058 
L 283.88358 207.768654 
L 284.644489 207.768654 
L 284.644489 206.113773 
L 285.405398 206.113773 
L 285.405398 210.901108 
L 286.166307 210.901108 
L 286.166307 208.005066 
L 286.927216 208.005066 
L 286.927216 209.630396 
L 287.688125 209.630396 
L 287.688125 212.083166 
L 288.449034 212.083166 
L 288.449034 208.477889 
L 289.209943 208.477889 
L 289.209943 212.733298 
L 289.970852 212.733298 
L 289.970852 209.453087 
L 290.731761 209.453087 
L 290.731761 211.107968 
L 291.49267 211.107968 
L 291.49267 213.17657 
L 292.25358 213.17657 
L 292.25358 212.260475 
L 293.014489 212.260475 
L 293.014489 212.585541 
L 293.775398 212.585541 
L 293.775398 213.294776 
L 294.536307 213.294776 
L 294.536307 213.619842 
L 295.297216 213.619842 
L 295.297216 213.472084 
L 296.058125 213.472084 
L 296.058125 214.329077 
L 296.819034 214.329077 
L 296.819034 214.004011 
L 297.579943 214.004011 
L 297.579943 214.565488 
L 298.340852 214.565488 
L 298.340852 215.245172 
L 299.101761 215.245172 
L 299.101761 215.688443 
L 299.86267 215.688443 
L 299.86267 216.013509 
L 302.906307 216.043061 
L 302.906307 216.279472 
L 303.667216 216.279472 
L 303.667216 217.077361 
L 305.189034 217.077361 
L 305.189034 217.845699 
L 308.99358 217.875251 
L 308.99358 218.229868 
L 309.754489 218.229868 
L 309.754489 218.436728 
L 310.515398 218.436728 
L 310.515398 218.554934 
L 311.276307 218.554934 
L 311.276307 218.732243 
L 312.037216 218.732243 
L 312.037216 218.88 
L 372.909943 218.88 
L 372.909943 218.88 
" clip-path="url(#paecfc6e5f6)" style="fill: none; stroke: #ff7f0e; stroke-width: 1.5; stroke-linecap: square"/>
   </g>
   <g id="line2d_22">
    <path d="M 68.546307 218.88 
L 73.87267 218.820897 
L 73.87267 218.732243 
L 79.199034 218.67314 
L 79.199034 218.584485 
L 80.720852 218.614037 
L 80.720852 218.732243 
L 81.481761 218.732243 
L 81.481761 218.584485 
L 82.24267 218.584485 
L 82.24267 218.407177 
L 83.00358 218.407177 
L 83.00358 218.614037 
L 84.525398 218.614037 
L 84.525398 218.348074 
L 86.047216 218.288971 
L 86.047216 217.993456 
L 87.569034 217.934354 
L 87.569034 218.141214 
L 88.329943 218.141214 
L 88.329943 217.934354 
L 90.61267 217.934354 
L 90.61267 217.638839 
L 91.37358 217.638839 
L 91.37358 217.875251 
L 92.134489 217.875251 
L 92.134489 217.491082 
L 95.178125 217.402427 
L 95.178125 217.106913 
L 95.939034 217.106913 
L 95.939034 216.752296 
L 96.699943 216.752296 
L 96.699943 216.900053 
L 97.460852 216.900053 
L 97.460852 216.013509 
L 98.98267 216.013509 
L 98.98267 215.717995 
L 99.74358 215.717995 
L 99.74358 214.890554 
L 100.504489 214.890554 
L 100.504489 215.097414 
L 101.265398 215.097414 
L 101.265398 214.565488 
L 102.026307 214.565488 
L 102.026307 213.885805 
L 103.548125 213.944908 
L 103.548125 212.230923 
L 104.309034 212.230923 
L 104.309034 211.698997 
L 105.069943 211.698997 
L 105.069943 211.462586 
L 105.830852 211.462586 
L 105.830852 210.487388 
L 106.591761 210.487388 
L 106.591761 209.541741 
L 107.35267 209.541741 
L 107.35267 208.507441 
L 108.11358 208.507441 
L 108.11358 206.734354 
L 108.874489 206.734354 
L 108.874489 203.956517 
L 109.635398 203.956517 
L 109.635398 203.483694 
L 110.396307 203.483694 
L 110.396307 202.065224 
L 111.157216 202.065224 
L 111.157216 198.341741 
L 111.918125 198.341741 
L 111.918125 196.391346 
L 112.679034 196.391346 
L 112.679034 192.786069 
L 113.439943 192.786069 
L 113.439943 190.687916 
L 114.200852 190.687916 
L 114.200852 187.762322 
L 114.961761 187.762322 
L 114.961761 182.649921 
L 115.72267 182.649921 
L 115.72267 181.763377 
L 116.48358 181.763377 
L 116.48358 177.833034 
L 117.244489 177.833034 
L 117.244489 175.971293 
L 118.005398 175.971293 
L 118.005398 172.986596 
L 118.766307 172.986596 
L 118.766307 168.642533 
L 119.527216 168.642533 
L 119.527216 164.682639 
L 120.288125 164.682639 
L 120.288125 159.688443 
L 121.049034 159.688443 
L 121.049034 156.76285 
L 121.809943 156.76285 
L 121.809943 153.71905 
L 122.570852 153.71905 
L 122.570852 150.350185 
L 123.331761 150.350185 
L 123.331761 142.164433 
L 124.09267 142.164433 
L 124.09267 141.868918 
L 124.85358 141.868918 
L 124.85358 135.840422 
L 125.614489 135.840422 
L 125.614489 128.600317 
L 126.375398 128.600317 
L 126.375398 124.610871 
L 127.136307 124.610871 
L 127.136307 119.49847 
L 127.897216 119.49847 
L 127.897216 117.991346 
L 128.658125 117.991346 
L 128.658125 109.155462 
L 129.419034 109.155462 
L 129.419034 104.752296 
L 130.179943 104.752296 
L 130.179943 101.147018 
L 130.940852 101.147018 
L 130.940852 96.064169 
L 131.701761 96.064169 
L 131.701761 89.444644 
L 132.46267 89.444644 
L 132.46267 83.770765 
L 133.22358 83.770765 
L 133.22358 80.579208 
L 133.984489 80.579208 
L 133.984489 77.505858 
L 134.745398 77.505858 
L 134.745398 69.467863 
L 135.506307 69.467863 
L 135.506307 62.789235 
L 136.267216 62.789235 
L 136.267216 59.243061 
L 137.028125 59.243061 
L 137.028125 54.219314 
L 137.789034 54.219314 
L 137.789034 57.204011 
L 138.549943 57.204011 
L 138.549943 54.633034 
L 139.310852 54.633034 
L 139.310852 47.924855 
L 140.071761 47.924855 
L 140.071761 48.870501 
L 140.83267 48.870501 
L 140.83267 42.989763 
L 141.59358 42.989763 
L 141.59358 41.955462 
L 142.354489 41.955462 
L 142.354489 43.817203 
L 143.115398 43.817203 
L 143.115398 40.950712 
L 143.876307 40.950712 
L 143.876307 41.128021 
L 144.637216 41.128021 
L 144.637216 40.211926 
L 145.398125 40.211926 
L 145.398125 38.970765 
L 146.159034 38.970765 
L 146.159034 37.079472 
L 146.919943 37.079472 
L 146.919943 33.178681 
L 147.680852 33.178681 
L 147.680852 32.883166 
L 148.441761 32.883166 
L 148.441761 35.158628 
L 149.20267 35.158628 
L 149.20267 31.996623 
L 149.96358 31.996623 
L 149.96358 36.577098 
L 150.724489 36.577098 
L 150.724489 33.828813 
L 151.485398 33.828813 
L 151.485398 35.306385 
L 152.246307 35.306385 
L 152.246307 32.646755 
L 153.007216 32.646755 
L 153.007216 33.149129 
L 153.768125 33.149129 
L 153.768125 34.538047 
L 154.529034 34.538047 
L 154.529034 35.188179 
L 155.289943 35.188179 
L 155.289943 37.345435 
L 156.050852 37.345435 
L 156.050852 33.474195 
L 156.811761 33.474195 
L 156.811761 37.286332 
L 157.57267 37.286332 
L 157.57267 33.503747 
L 158.33358 33.503747 
L 158.33358 34.685805 
L 159.094489 34.685805 
L 159.094489 33.917467 
L 159.855398 33.917467 
L 159.855398 28.243588 
L 160.616307 28.243588 
L 160.616307 32.469446 
L 161.377216 32.469446 
L 161.377216 33.887916 
L 162.138125 33.887916 
L 162.138125 36.813509 
L 162.899034 36.813509 
L 162.899034 35.483694 
L 163.659943 35.483694 
L 163.659943 37.936464 
L 164.420852 37.936464 
L 164.420852 40.625646 
L 165.181761 40.625646 
L 165.181761 34.18343 
L 165.94267 34.18343 
L 165.94267 39.68 
L 166.70358 39.68 
L 166.70358 41.896359 
L 167.464489 41.896359 
L 167.464489 37.286332 
L 168.225398 37.286332 
L 168.225398 41.985013 
L 169.747216 42.014565 
L 169.747216 40.773404 
L 170.508125 40.773404 
L 170.508125 44.083166 
L 171.269034 44.083166 
L 171.269034 47.658892 
L 172.029943 47.658892 
L 172.029943 48.604538 
L 172.790852 48.604538 
L 172.790852 49.904802 
L 173.551761 49.904802 
L 173.551761 53.539631 
L 174.31267 53.539631 
L 174.31267 52.357573 
L 175.07358 52.357573 
L 175.07358 58.711135 
L 175.834489 58.711135 
L 175.834489 60.750185 
L 176.595398 60.750185 
L 176.595398 61.193456 
L 177.356307 61.193456 
L 177.356307 62.789235 
L 178.117216 62.789235 
L 178.117216 66.098997 
L 179.639034 66.069446 
L 179.639034 71.86153 
L 180.399943 71.86153 
L 180.399943 73.811926 
L 181.160852 73.811926 
L 181.160852 68.640422 
L 181.921761 68.640422 
L 181.921761 72.600317 
L 182.68267 72.600317 
L 182.68267 74.284749 
L 183.44358 74.284749 
L 183.44358 76.73752 
L 184.204489 76.73752 
L 184.204489 79.958628 
L 184.965398 79.958628 
L 184.965398 84.27314 
L 185.726307 84.27314 
L 185.726307 83.623008 
L 186.487216 83.623008 
L 186.487216 89.060475 
L 187.248125 89.060475 
L 187.248125 86.755462 
L 188.009034 86.755462 
L 188.009034 91.838311 
L 189.530852 91.838311 
L 189.530852 97.541741 
L 190.291761 97.541741 
L 190.291761 94.911662 
L 191.05267 94.911662 
L 191.05267 98.250976 
L 191.81358 98.250976 
L 191.81358 100.112718 
L 192.574489 100.112718 
L 192.574489 101.678945 
L 193.335398 101.678945 
L 193.335398 100.437784 
L 194.096307 100.437784 
L 194.096307 103.392929 
L 194.857216 103.392929 
L 194.857216 105.077361 
L 195.618125 105.077361 
L 195.618125 108.416675 
L 196.379034 108.416675 
L 196.379034 103.540686 
L 197.139943 103.540686 
L 197.139943 110.633034 
L 197.900852 110.633034 
L 197.900852 107.736992 
L 198.661761 107.736992 
L 198.661761 112.465224 
L 199.42267 112.465224 
L 199.42267 112.58343 
L 200.18358 112.58343 
L 200.18358 113.558628 
L 200.944489 113.558628 
L 200.944489 118.464169 
L 201.705398 118.464169 
L 201.705398 117.016148 
L 202.466307 117.016148 
L 202.466307 119.971293 
L 203.227216 119.971293 
L 203.227216 118.877889 
L 203.988125 118.877889 
L 203.988125 121.360211 
L 205.509943 121.271557 
L 205.509943 125.349657 
L 206.270852 125.349657 
L 206.270852 124.256253 
L 207.031761 124.256253 
L 207.031761 124.492665 
L 207.79267 124.492665 
L 207.79267 126.974987 
L 208.55358 126.974987 
L 208.55358 131.880528 
L 209.314489 131.880528 
L 209.314489 129.161794 
L 210.075398 129.161794 
L 210.075398 129.69372 
L 210.836307 129.69372 
L 210.836307 131.466807 
L 211.597216 131.466807 
L 211.597216 131.259947 
L 212.358125 131.259947 
L 212.358125 133.830923 
L 213.119034 133.830923 
L 213.119034 134.835673 
L 213.879943 134.835673 
L 213.879943 135.042533 
L 214.640852 135.042533 
L 214.640852 139.357045 
L 215.401761 139.357045 
L 215.401761 139.504802 
L 216.16267 139.504802 
L 216.16267 137.495303 
L 216.92358 137.495303 
L 216.92358 138.913773 
L 217.684489 138.913773 
L 217.684489 142.31219 
L 218.445398 142.31219 
L 218.445398 140.864169 
L 219.206307 140.864169 
L 219.206307 143.760211 
L 219.967216 143.760211 
L 219.967216 146.449393 
L 220.728125 146.449393 
L 220.728125 142.991873 
L 221.489034 142.991873 
L 221.489034 146.508496 
L 222.249943 146.508496 
L 222.249943 144.676306 
L 223.010852 144.676306 
L 223.010852 145.740158 
L 223.771761 145.740158 
L 223.771761 149.079472 
L 224.53267 149.079472 
L 224.53267 148.606649 
L 225.29358 148.606649 
L 225.29358 148.902164 
L 226.054489 148.902164 
L 226.054489 151.088971 
L 226.815398 151.088971 
L 226.815398 152.389235 
L 227.576307 152.389235 
L 227.576307 153.187124 
L 229.098125 153.157573 
L 229.098125 153.423536 
L 229.859034 153.423536 
L 229.859034 152.271029 
L 230.619943 152.271029 
L 230.619943 156.201372 
L 231.380852 156.201372 
L 231.380852 156.378681 
L 232.141761 156.378681 
L 232.141761 161.25467 
L 232.90267 161.25467 
L 232.90267 157.649393 
L 233.66358 157.649393 
L 233.66358 159.688443 
L 234.424489 159.688443 
L 234.424489 157.265224 
L 235.185398 157.265224 
L 235.185398 161.993456 
L 235.946307 161.993456 
L 235.946307 160.249921 
L 236.707216 160.249921 
L 236.707216 161.343325 
L 237.468125 161.343325 
L 237.468125 160.811398 
L 238.989943 160.811398 
L 238.989943 164.475778 
L 239.750852 164.475778 
L 239.750852 164.71219 
L 240.511761 164.71219 
L 240.511761 165.155462 
L 241.27267 165.155462 
L 241.27267 164.859947 
L 242.03358 164.859947 
L 242.03358 166.514828 
L 242.794489 166.514828 
L 242.794489 168.79029 
L 243.555398 168.79029 
L 243.555398 170.031451 
L 244.316307 170.031451 
L 244.316307 169.588179 
L 245.077216 169.588179 
L 245.077216 167.874195 
L 245.838125 167.874195 
L 245.838125 170.0019 
L 246.599034 170.0019 
L 246.599034 173.607177 
L 247.359943 173.607177 
L 247.359943 171.302164 
L 248.120852 171.302164 
L 248.120852 174.523272 
L 248.881761 174.523272 
L 248.881761 175.114301 
L 249.64267 175.114301 
L 249.64267 174.641478 
L 250.40358 174.641478 
L 250.40358 175.49847 
L 251.164489 175.49847 
L 251.164489 178.1581 
L 252.686307 178.098997 
L 252.686307 179.487916 
L 253.447216 179.487916 
L 253.447216 180.315356 
L 254.208125 180.315356 
L 254.208125 181.852032 
L 254.969034 181.852032 
L 254.969034 182.797678 
L 255.729943 182.797678 
L 255.729943 184.186596 
L 257.251761 184.127493 
L 257.251761 184.718522 
L 258.01267 184.718522 
L 258.01267 185.250449 
L 258.77358 185.250449 
L 258.77358 185.69372 
L 259.534489 185.69372 
L 259.534489 186.136992 
L 260.295398 186.136992 
L 260.295398 188.323799 
L 261.056307 188.323799 
L 261.056307 189.269446 
L 261.817216 189.269446 
L 261.817216 186.69847 
L 262.578125 186.69847 
L 262.578125 190.451504 
L 263.339034 190.451504 
L 263.339034 191.278945 
L 264.099943 191.278945 
L 264.099943 192.726966 
L 264.860852 192.726966 
L 264.860852 193.052032 
L 265.621761 193.052032 
L 265.621761 194.618259 
L 267.14358 194.677361 
L 267.14358 195.120633 
L 267.904489 195.120633 
L 267.904489 195.85942 
L 268.665398 195.85942 
L 268.665398 194.943325 
L 269.426307 194.943325 
L 269.426307 198.164433 
L 270.187216 198.164433 
L 270.187216 197.987124 
L 270.948125 197.987124 
L 270.948125 198.134881 
L 271.709034 198.134881 
L 271.709034 199.021425 
L 272.469943 199.021425 
L 272.469943 199.523799 
L 273.230852 199.523799 
L 273.230852 199.819314 
L 273.991761 199.819314 
L 273.991761 201.208232 
L 274.75267 201.208232 
L 274.75267 200.173931 
L 275.51358 200.173931 
L 275.51358 202.833562 
L 276.274489 202.833562 
L 276.274489 201.415092 
L 277.035398 201.415092 
L 277.035398 202.449393 
L 277.796307 202.449393 
L 277.796307 203.129077 
L 278.557216 203.129077 
L 278.557216 203.661003 
L 279.318125 203.661003 
L 279.318125 204.42934 
L 280.079034 204.42934 
L 280.079034 205.936464 
L 280.839943 205.936464 
L 280.839943 205.522744 
L 281.600852 205.522744 
L 281.600852 205.286332 
L 282.361761 205.286332 
L 282.361761 207.207177 
L 283.12267 207.207177 
L 283.12267 207.325383 
L 283.88358 207.325383 
L 283.88358 207.650449 
L 284.644489 207.650449 
L 284.644489 208.891609 
L 285.405398 208.891609 
L 285.405398 209.157573 
L 286.927216 209.068918 
L 286.927216 209.689499 
L 287.688125 209.689499 
L 287.688125 210.339631 
L 289.209943 210.310079 
L 289.209943 210.812454 
L 290.731761 210.812454 
L 290.731761 211.462586 
L 291.49267 211.462586 
L 291.49267 211.905858 
L 292.25358 211.905858 
L 292.25358 212.76285 
L 293.775398 212.851504 
L 293.775398 212.999261 
L 294.536307 212.999261 
L 294.536307 213.738047 
L 295.297216 213.738047 
L 295.297216 213.235673 
L 296.058125 213.235673 
L 296.058125 214.861003 
L 296.819034 214.861003 
L 296.819034 214.210871 
L 297.579943 214.210871 
L 297.579943 214.772348 
L 298.340852 214.772348 
L 298.340852 214.949657 
L 299.101761 214.949657 
L 299.101761 215.452032 
L 299.86267 215.452032 
L 299.86267 215.658892 
L 300.62358 215.658892 
L 300.62358 216.190818 
L 301.384489 216.190818 
L 301.384489 216.013509 
L 302.145398 216.013509 
L 302.145398 215.806649 
L 302.906307 215.806649 
L 302.906307 216.663641 
L 303.667216 216.663641 
L 303.667216 216.811398 
L 304.428125 216.811398 
L 304.428125 217.313773 
L 305.189034 217.313773 
L 305.189034 217.727493 
L 305.949943 217.727493 
L 305.949943 217.934354 
L 307.471761 217.845699 
L 307.471761 217.816148 
L 308.99358 217.904802 
L 308.99358 218.200317 
L 309.754489 218.200317 
L 309.754489 218.46628 
L 310.515398 218.46628 
L 310.515398 218.584485 
L 312.037216 218.584485 
L 312.037216 218.850449 
L 372.909943 218.88 
L 372.909943 218.88 
" clip-path="url(#paecfc6e5f6)" style="fill: none; stroke: #2ca02c; stroke-width: 1.5; stroke-linecap: square"/>
   </g>
  </g>
 </g>
 <defs>
  <clipPath id="paecfc6e5f6">
   <rect x="53.328125" y="7.2" width="334.8" height="221.76"/>
  </clipPath>
 </defs>
</svg>
