<?xml version="1.0" encoding="utf-8" standalone="no"?>
<!DOCTYPE svg PUBLIC "-//W3C//DTD SVG 1.1//EN"
  "http://www.w3.org/Graphics/SVG/1.1/DTD/svg11.dtd">
<svg xmlns:xlink="http://www.w3.org/1999/xlink" width="395.328125pt" height="270.070141pt" viewBox="0 0 395.328125 270.070141" xmlns="http://www.w3.org/2000/svg" version="1.1">
 <metadata>
  <rdf:RDF xmlns:dc="http://purl.org/dc/elements/1.1/" xmlns:cc="http://creativecommons.org/ns#" xmlns:rdf="http://www.w3.org/1999/02/22-rdf-syntax-ns#">
   <cc:Work>
    <dc:type rdf:resource="http://purl.org/dc/dcmitype/StillImage"/>
    <dc:date>2025-12-05T13:47:29.041080</dc:date>
    <dc:format>image/svg+xml</dc:format>
    <dc:creator>
     <cc:Agent>
      <dc:title>Matplotlib v3.10.7, https://matplotlib.org/</dc:title>
     </cc:Agent>
    </dc:creator>
   </cc:Work>
  </rdf:RDF>
 </metadata>
 <defs>
  <style type="text/css">*{stroke-linejoin: round; stroke-linecap: butt}</style>
 </defs>
 <g id="figure_1">
  <g id="patch_1">
   <path d="M 0 270.070141 
L 395.328125 270.070141 
L 395.328125 0 
L 0 0 
z
" style="fill: #ffffff"/>
  </g>
  <g id="axes_1">
   <g id="patch_2">
    <path d="M 53.328125 230.829516 
L 388.128125 230.829516 
L 388.128125 9.069516 
L 53.328125 9.069516 
z
" style="fill: #ffffff"/>
   </g>
   <g id="matplotlib.axis_1">
    <g id="xtick_1">
     <g id="line2d_1">
      <defs>
       <path id="md35f730376" d="M 0 0 
L 0 3.5 
" style="stroke: #000000; stroke-width: 0.8"/>
      </defs>
      <g>
       <use xlink:href="#md35f730376" x="68.546307" y="230.829516" style="stroke: #000000; stroke-width: 0.8"/>
      </g>
     </g>
     <g id="text_1">
      <!-- 1 -->
      <g transform="translate(65.365057 245.427954) scale(0.1 -0.1)">
       <defs>
        <path id="DejaVuSans-31" d="M 794 531 
L 1825 531 
L 1825 4091 
L 703 3866 
L 703 4441 
L 1819 4666 
L 2450 4666 
L 2450 531 
L 3481 531 
L 3481 0 
L 794 0 
L 794 531 
z
" transform="scale(0.015625)"/>
       </defs>
       <use xlink:href="#DejaVuSans-31"/>
      </g>
     </g>
    </g>
    <g id="xtick_2">
     <g id="line2d_2">
      <g>
       <use xlink:href="#md35f730376" x="112.026826" y="230.829516" style="stroke: #000000; stroke-width: 0.8"/>
      </g>
     </g>
     <g id="text_2">
      <!-- 2 -->
      <g transform="translate(108.845576 245.427954) scale(0.1 -0.1)">
       <defs>
        <path id="DejaVuSans-32" d="M 1228 531 
L 3431 531 
L 3431 0 
L 469 0 
L 469 531 
Q 828 903 1448 1529 
Q 2069 2156 2228 2338 
Q 2531 2678 2651 2914 
Q 2772 3150 2772 3378 
Q 2772 3750 2511 3984 
Q 2250 4219 1831 4219 
Q 1534 4219 1204 4116 
Q 875 4013 500 3803 
L 500 4441 
Q 881 4594 1212 4672 
Q 1544 4750 1819 4750 
Q 2544 4750 2975 4387 
Q 3406 4025 3406 3419 
Q 3406 3131 3298 2873 
Q 3191 2616 2906 2266 
Q 2828 2175 2409 1742 
Q 1991 1309 1228 531 
z
" transform="scale(0.015625)"/>
       </defs>
       <use xlink:href="#DejaVuSans-32"/>
      </g>
     </g>
    </g>
    <g id="xtick_3">
     <g id="line2d_3">
      <g>
       <use xlink:href="#md35f730376" x="155.507346" y="230.829516" style="stroke: #000000; stroke-width: 0.8"/>
      </g>
     </g>
     <g id="text_3">
      <!-- 3 -->
      <g transform="translate(152.326096 245.427954) scale(0.1 -0.1)">
       <defs>
        <path id="DejaVuSans-33" d="M 2597 2516 
Q 3050 2419 3304 2112 
Q 3559 1806 3559 1356 
Q 3559 666 3084 287 
Q 2609 -91 1734 -91 
Q 1441 -91 1130 -33 
Q 819 25 488 141 
L 488 750 
Q 750 597 1062 519 
Q 1375 441 1716 441 
Q 2309 441 2620 675 
Q 2931 909 2931 1356 
Q 2931 1769 2642 2001 
Q 2353 2234 1838 2234 
L 1294 2234 
L 1294 2753 
L 1863 2753 
Q 2328 2753 2575 2939 
Q 2822 3125 2822 3475 
Q 2822 3834 2567 4026 
Q 2313 4219 1838 4219 
Q 1578 4219 1281 4162 
Q 984 4106 628 3988 
L 628 4550 
Q 988 4650 1302 4700 
Q 1616 4750 1894 4750 
Q 2613 4750 3031 4423 
Q 3450 4097 3450 3541 
Q 3450 3153 3228 2886 
Q 3006 2619 2597 2516 
z
" transform="scale(0.015625)"/>
       </defs>
       <use xlink:href="#DejaVuSans-33"/>
      </g>
     </g>
    </g>
    <g id="xtick_4">
     <g id="line2d_4">
      <g>
       <use xlink:href="#md35f730376" x="198.987865" y="230.829516" style="stroke: #000000; stroke-width: 0.8"/>
      </g>
     </g>
     <g id="text_4">
      <!-- 4 -->
      <g transform="translate(195.806615 245.427954) scale(0.1 -0.1)">
       <defs>
        <path id="DejaVuSans-34" d="M 2419 4116 
L 825 1625 
L 2419 1625 
L 2419 4116 
z
M 2253 4666 
L 3047 4666 
L 3047 1625 
L 3713 1625 
L 3713 1100 
L 3047 1100 
L 3047 0 
L 2419 0 
L 2419 1100 
L 313 1100 
L 313 1709 
L 2253 4666 
z
" transform="scale(0.015625)"/>
       </defs>
       <use xlink:href="#DejaVuSans-34"/>
      </g>
     </g>
    </g>
    <g id="xtick_5">
     <g id="line2d_5">
      <g>
       <use xlink:href="#md35f730376" x="242.468385" y="230.829516" style="stroke: #000000; stroke-width: 0.8"/>
      </g>
     </g>
     <g id="text_5">
      <!-- 5 -->
      <g transform="translate(239.287135 245.427954) scale(0.1 -0.1)">
       <defs>
        <path id="DejaVuSans-35" d="M 691 4666 
L 3169 4666 
L 3169 4134 
L 1269 4134 
L 1269 2991 
Q 1406 3038 1543 3061 
Q 1681 3084 1819 3084 
Q 2600 3084 3056 2656 
Q 3513 2228 3513 1497 
Q 3513 744 3044 326 
Q 2575 -91 1722 -91 
Q 1428 -91 1123 -41 
Q 819 9 494 109 
L 494 744 
Q 775 591 1075 516 
Q 1375 441 1709 441 
Q 2250 441 2565 725 
Q 2881 1009 2881 1497 
Q 2881 1984 2565 2268 
Q 2250 2553 1709 2553 
Q 1456 2553 1204 2497 
Q 953 2441 691 2322 
L 691 4666 
z
" transform="scale(0.015625)"/>
       </defs>
       <use xlink:href="#DejaVuSans-35"/>
      </g>
     </g>
    </g>
    <g id="xtick_6">
     <g id="line2d_6">
      <g>
       <use xlink:href="#md35f730376" x="285.948904" y="230.829516" style="stroke: #000000; stroke-width: 0.8"/>
      </g>
     </g>
     <g id="text_6">
      <!-- 6 -->
      <g transform="translate(282.767654 245.427954) scale(0.1 -0.1)">
       <defs>
        <path id="DejaVuSans-36" d="M 2113 2584 
Q 1688 2584 1439 2293 
Q 1191 2003 1191 1497 
Q 1191 994 1439 701 
Q 1688 409 2113 409 
Q 2538 409 2786 701 
Q 3034 994 3034 1497 
Q 3034 2003 2786 2293 
Q 2538 2584 2113 2584 
z
M 3366 4563 
L 3366 3988 
Q 3128 4100 2886 4159 
Q 2644 4219 2406 4219 
Q 1781 4219 1451 3797 
Q 1122 3375 1075 2522 
Q 1259 2794 1537 2939 
Q 1816 3084 2150 3084 
Q 2853 3084 3261 2657 
Q 3669 2231 3669 1497 
Q 3669 778 3244 343 
Q 2819 -91 2113 -91 
Q 1303 -91 875 529 
Q 447 1150 447 2328 
Q 447 3434 972 4092 
Q 1497 4750 2381 4750 
Q 2619 4750 2861 4703 
Q 3103 4656 3366 4563 
z
" transform="scale(0.015625)"/>
       </defs>
       <use xlink:href="#DejaVuSans-36"/>
      </g>
     </g>
    </g>
    <g id="xtick_7">
     <g id="line2d_7">
      <g>
       <use xlink:href="#md35f730376" x="329.429424" y="230.829516" style="stroke: #000000; stroke-width: 0.8"/>
      </g>
     </g>
     <g id="text_7">
      <!-- 7 -->
      <g transform="translate(326.248174 245.427954) scale(0.1 -0.1)">
       <defs>
        <path id="DejaVuSans-37" d="M 525 4666 
L 3525 4666 
L 3525 4397 
L 1831 0 
L 1172 0 
L 2766 4134 
L 525 4134 
L 525 4666 
z
" transform="scale(0.015625)"/>
       </defs>
       <use xlink:href="#DejaVuSans-37"/>
      </g>
     </g>
    </g>
    <g id="xtick_8">
     <g id="line2d_8">
      <g>
       <use xlink:href="#md35f730376" x="372.909943" y="230.829516" style="stroke: #000000; stroke-width: 0.8"/>
      </g>
     </g>
     <g id="text_8">
      <!-- 8 -->
      <g transform="translate(369.728693 245.427954) scale(0.1 -0.1)">
       <defs>
        <path id="DejaVuSans-38" d="M 2034 2216 
Q 1584 2216 1326 1975 
Q 1069 1734 1069 1313 
Q 1069 891 1326 650 
Q 1584 409 2034 409 
Q 2484 409 2743 651 
Q 3003 894 3003 1313 
Q 3003 1734 2745 1975 
Q 2488 2216 2034 2216 
z
M 1403 2484 
Q 997 2584 770 2862 
Q 544 3141 544 3541 
Q 544 4100 942 4425 
Q 1341 4750 2034 4750 
Q 2731 4750 3128 4425 
Q 3525 4100 3525 3541 
Q 3525 3141 3298 2862 
Q 3072 2584 2669 2484 
Q 3125 2378 3379 2068 
Q 3634 1759 3634 1313 
Q 3634 634 3220 271 
Q 2806 -91 2034 -91 
Q 1263 -91 848 271 
Q 434 634 434 1313 
Q 434 1759 690 2068 
Q 947 2378 1403 2484 
z
M 1172 3481 
Q 1172 3119 1398 2916 
Q 1625 2713 2034 2713 
Q 2441 2713 2670 2916 
Q 2900 3119 2900 3481 
Q 2900 3844 2670 4047 
Q 2441 4250 2034 4250 
Q 1625 4250 1398 4047 
Q 1172 3844 1172 3481 
z
" transform="scale(0.015625)"/>
       </defs>
       <use xlink:href="#DejaVuSans-38"/>
      </g>
     </g>
    </g>
    <g id="text_9">
     <!-- wavelength [Å] -->
     <g transform="translate(182.690625 260.790454) scale(0.1 -0.1)">
      <defs>
       <path id="DejaVuSans-77" d="M 269 3500 
L 844 3500 
L 1563 769 
L 2278 3500 
L 2956 3500 
L 3675 769 
L 4391 3500 
L 4966 3500 
L 4050 0 
L 3372 0 
L 2619 2869 
L 1863 0 
L 1184 0 
L 269 3500 
z
" transform="scale(0.015625)"/>
       <path id="DejaVuSans-61" d="M 2194 1759 
Q 1497 1759 1228 1600 
Q 959 1441 959 1056 
Q 959 750 1161 570 
Q 1363 391 1709 391 
Q 2188 391 2477 730 
Q 2766 1069 2766 1631 
L 2766 1759 
L 2194 1759 
z
M 3341 1997 
L 3341 0 
L 2766 0 
L 2766 531 
Q 2569 213 2275 61 
Q 1981 -91 1556 -91 
Q 1019 -91 701 211 
Q 384 513 384 1019 
Q 384 1609 779 1909 
Q 1175 2209 1959 2209 
L 2766 2209 
L 2766 2266 
Q 2766 2663 2505 2880 
Q 2244 3097 1772 3097 
Q 1472 3097 1187 3025 
Q 903 2953 641 2809 
L 641 3341 
Q 956 3463 1253 3523 
Q 1550 3584 1831 3584 
Q 2591 3584 2966 3190 
Q 3341 2797 3341 1997 
z
" transform="scale(0.015625)"/>
       <path id="DejaVuSans-76" d="M 191 3500 
L 800 3500 
L 1894 563 
L 2988 3500 
L 3597 3500 
L 2284 0 
L 1503 0 
L 191 3500 
z
" transform="scale(0.015625)"/>
       <path id="DejaVuSans-65" d="M 3597 1894 
L 3597 1613 
L 953 1613 
Q 991 1019 1311 708 
Q 1631 397 2203 397 
Q 2534 397 2845 478 
Q 3156 559 3463 722 
L 3463 178 
Q 3153 47 2828 -22 
Q 2503 -91 2169 -91 
Q 1331 -91 842 396 
Q 353 884 353 1716 
Q 353 2575 817 3079 
Q 1281 3584 2069 3584 
Q 2775 3584 3186 3129 
Q 3597 2675 3597 1894 
z
M 3022 2063 
Q 3016 2534 2758 2815 
Q 2500 3097 2075 3097 
Q 1594 3097 1305 2825 
Q 1016 2553 972 2059 
L 3022 2063 
z
" transform="scale(0.015625)"/>
       <path id="DejaVuSans-6c" d="M 603 4863 
L 1178 4863 
L 1178 0 
L 603 0 
L 603 4863 
z
" transform="scale(0.015625)"/>
       <path id="DejaVuSans-6e" d="M 3513 2113 
L 3513 0 
L 2938 0 
L 2938 2094 
Q 2938 2591 2744 2837 
Q 2550 3084 2163 3084 
Q 1697 3084 1428 2787 
Q 1159 2491 1159 1978 
L 1159 0 
L 581 0 
L 581 3500 
L 1159 3500 
L 1159 2956 
Q 1366 3272 1645 3428 
Q 1925 3584 2291 3584 
Q 2894 3584 3203 3211 
Q 3513 2838 3513 2113 
z
" transform="scale(0.015625)"/>
       <path id="DejaVuSans-67" d="M 2906 1791 
Q 2906 2416 2648 2759 
Q 2391 3103 1925 3103 
Q 1463 3103 1205 2759 
Q 947 2416 947 1791 
Q 947 1169 1205 825 
Q 1463 481 1925 481 
Q 2391 481 2648 825 
Q 2906 1169 2906 1791 
z
M 3481 434 
Q 3481 -459 3084 -895 
Q 2688 -1331 1869 -1331 
Q 1566 -1331 1297 -1286 
Q 1028 -1241 775 -1147 
L 775 -588 
Q 1028 -725 1275 -790 
Q 1522 -856 1778 -856 
Q 2344 -856 2625 -561 
Q 2906 -266 2906 331 
L 2906 616 
Q 2728 306 2450 153 
Q 2172 0 1784 0 
Q 1141 0 747 490 
Q 353 981 353 1791 
Q 353 2603 747 3093 
Q 1141 3584 1784 3584 
Q 2172 3584 2450 3431 
Q 2728 3278 2906 2969 
L 2906 3500 
L 3481 3500 
L 3481 434 
z
" transform="scale(0.015625)"/>
       <path id="DejaVuSans-74" d="M 1172 4494 
L 1172 3500 
L 2356 3500 
L 2356 3053 
L 1172 3053 
L 1172 1153 
Q 1172 725 1289 603 
Q 1406 481 1766 481 
L 2356 481 
L 2356 0 
L 1766 0 
Q 1100 0 847 248 
Q 594 497 594 1153 
L 594 3053 
L 172 3053 
L 172 3500 
L 594 3500 
L 594 4494 
L 1172 4494 
z
" transform="scale(0.015625)"/>
       <path id="DejaVuSans-68" d="M 3513 2113 
L 3513 0 
L 2938 0 
L 2938 2094 
Q 2938 2591 2744 2837 
Q 2550 3084 2163 3084 
Q 1697 3084 1428 2787 
Q 1159 2491 1159 1978 
L 1159 0 
L 581 0 
L 581 4863 
L 1159 4863 
L 1159 2956 
Q 1366 3272 1645 3428 
Q 1925 3584 2291 3584 
Q 2894 3584 3203 3211 
Q 3513 2838 3513 2113 
z
" transform="scale(0.015625)"/>
       <path id="DejaVuSans-20" transform="scale(0.015625)"/>
       <path id="DejaVuSans-5b" d="M 550 4863 
L 1875 4863 
L 1875 4416 
L 1125 4416 
L 1125 -397 
L 1875 -397 
L 1875 -844 
L 550 -844 
L 550 4863 
z
" transform="scale(0.015625)"/>
       <path id="DejaVuSans-c5" d="M 2663 5081 
Q 2663 5278 2523 5417 
Q 2384 5556 2188 5556 
Q 1988 5556 1852 5420 
Q 1716 5284 1716 5081 
Q 1716 4884 1853 4746 
Q 1991 4609 2188 4609 
Q 2384 4609 2523 4746 
Q 2663 4884 2663 5081 
z
M 2188 4044 
L 1338 1722 
L 3041 1722 
L 2188 4044 
z
M 1716 4366 
Q 1525 4494 1428 4673 
Q 1331 4853 1331 5081 
Q 1331 5441 1579 5691 
Q 1828 5941 2188 5941 
Q 2544 5941 2795 5689 
Q 3047 5438 3047 5081 
Q 3047 4863 2948 4678 
Q 2850 4494 2663 4366 
L 4325 0 
L 3669 0 
L 3244 1197 
L 1141 1197 
L 716 0 
L 50 0 
L 1716 4366 
z
" transform="scale(0.015625)"/>
       <path id="DejaVuSans-5d" d="M 1947 4863 
L 1947 -844 
L 622 -844 
L 622 -397 
L 1369 -397 
L 1369 4416 
L 622 4416 
L 622 4863 
L 1947 4863 
z
" transform="scale(0.015625)"/>
      </defs>
      <use xlink:href="#DejaVuSans-77"/>
      <use xlink:href="#DejaVuSans-61" transform="translate(81.787109 0)"/>
      <use xlink:href="#DejaVuSans-76" transform="translate(143.066406 0)"/>
      <use xlink:href="#DejaVuSans-65" transform="translate(202.246094 0)"/>
      <use xlink:href="#DejaVuSans-6c" transform="translate(263.769531 0)"/>
      <use xlink:href="#DejaVuSans-65" transform="translate(291.552734 0)"/>
      <use xlink:href="#DejaVuSans-6e" transform="translate(353.076172 0)"/>
      <use xlink:href="#DejaVuSans-67" transform="translate(416.455078 0)"/>
      <use xlink:href="#DejaVuSans-74" transform="translate(479.931641 0)"/>
      <use xlink:href="#DejaVuSans-68" transform="translate(519.140625 0)"/>
      <use xlink:href="#DejaVuSans-20" transform="translate(582.519531 0)"/>
      <use xlink:href="#DejaVuSans-5b" transform="translate(614.306641 0)"/>
      <use xlink:href="#DejaVuSans-c5" transform="translate(653.320312 0)"/>
      <use xlink:href="#DejaVuSans-5d" transform="translate(721.728516 0)"/>
     </g>
    </g>
   </g>
   <g id="matplotlib.axis_2">
    <g id="ytick_1">
     <g id="line2d_9">
      <defs>
       <path id="m8787d6cadb" d="M 0 0 
L -3.5 0 
" style="stroke: #000000; stroke-width: 0.8"/>
      </defs>
      <g>
       <use xlink:href="#m8787d6cadb" x="53.328125" y="220.749516" style="stroke: #000000; stroke-width: 0.8"/>
      </g>
     </g>
     <g id="text_10">
      <!-- 0 -->
      <g transform="translate(39.965625 224.548735) scale(0.1 -0.1)">
       <defs>
        <path id="DejaVuSans-30" d="M 2034 4250 
Q 1547 4250 1301 3770 
Q 1056 3291 1056 2328 
Q 1056 1369 1301 889 
Q 1547 409 2034 409 
Q 2525 409 2770 889 
Q 3016 1369 3016 2328 
Q 3016 3291 2770 3770 
Q 2525 4250 2034 4250 
z
M 2034 4750 
Q 2819 4750 3233 4129 
Q 3647 3509 3647 2328 
Q 3647 1150 3233 529 
Q 2819 -91 2034 -91 
Q 1250 -91 836 529 
Q 422 1150 422 2328 
Q 422 3509 836 4129 
Q 1250 4750 2034 4750 
z
" transform="scale(0.015625)"/>
       </defs>
       <use xlink:href="#DejaVuSans-30"/>
      </g>
     </g>
    </g>
    <g id="ytick_2">
     <g id="line2d_10">
      <g>
       <use xlink:href="#m8787d6cadb" x="53.328125" y="190.785188" style="stroke: #000000; stroke-width: 0.8"/>
      </g>
     </g>
     <g id="text_11">
      <!-- 1000 -->
      <g transform="translate(20.878125 194.584407) scale(0.1 -0.1)">
       <use xlink:href="#DejaVuSans-31"/>
       <use xlink:href="#DejaVuSans-30" transform="translate(63.623047 0)"/>
       <use xlink:href="#DejaVuSans-30" transform="translate(127.246094 0)"/>
       <use xlink:href="#DejaVuSans-30" transform="translate(190.869141 0)"/>
      </g>
     </g>
    </g>
    <g id="ytick_3">
     <g id="line2d_11">
      <g>
       <use xlink:href="#m8787d6cadb" x="53.328125" y="160.82086" style="stroke: #000000; stroke-width: 0.8"/>
      </g>
     </g>
     <g id="text_12">
      <!-- 2000 -->
      <g transform="translate(20.878125 164.620078) scale(0.1 -0.1)">
       <use xlink:href="#DejaVuSans-32"/>
       <use xlink:href="#DejaVuSans-30" transform="translate(63.623047 0)"/>
       <use xlink:href="#DejaVuSans-30" transform="translate(127.246094 0)"/>
       <use xlink:href="#DejaVuSans-30" transform="translate(190.869141 0)"/>
      </g>
     </g>
    </g>
    <g id="ytick_4">
     <g id="line2d_12">
      <g>
       <use xlink:href="#m8787d6cadb" x="53.328125" y="130.856531" style="stroke: #000000; stroke-width: 0.8"/>
      </g>
     </g>
     <g id="text_13">
      <!-- 3000 -->
      <g transform="translate(20.878125 134.65575) scale(0.1 -0.1)">
       <use xlink:href="#DejaVuSans-33"/>
       <use xlink:href="#DejaVuSans-30" transform="translate(63.623047 0)"/>
       <use xlink:href="#DejaVuSans-30" transform="translate(127.246094 0)"/>
       <use xlink:href="#DejaVuSans-30" transform="translate(190.869141 0)"/>
      </g>
     </g>
    </g>
    <g id="ytick_5">
     <g id="line2d_13">
      <g>
       <use xlink:href="#m8787d6cadb" x="53.328125" y="100.892203" style="stroke: #000000; stroke-width: 0.8"/>
      </g>
     </g>
     <g id="text_14">
      <!-- 4000 -->
      <g transform="translate(20.878125 104.691422) scale(0.1 -0.1)">
       <use xlink:href="#DejaVuSans-34"/>
       <use xlink:href="#DejaVuSans-30" transform="translate(63.623047 0)"/>
       <use xlink:href="#DejaVuSans-30" transform="translate(127.246094 0)"/>
       <use xlink:href="#DejaVuSans-30" transform="translate(190.869141 0)"/>
      </g>
     </g>
    </g>
    <g id="ytick_6">
     <g id="line2d_14">
      <g>
       <use xlink:href="#m8787d6cadb" x="53.328125" y="70.927875" style="stroke: #000000; stroke-width: 0.8"/>
      </g>
     </g>
     <g id="text_15">
      <!-- 5000 -->
      <g transform="translate(20.878125 74.727094) scale(0.1 -0.1)">
       <use xlink:href="#DejaVuSans-35"/>
       <use xlink:href="#DejaVuSans-30" transform="translate(63.623047 0)"/>
       <use xlink:href="#DejaVuSans-30" transform="translate(127.246094 0)"/>
       <use xlink:href="#DejaVuSans-30" transform="translate(190.869141 0)"/>
      </g>
     </g>
    </g>
    <g id="ytick_7">
     <g id="line2d_15">
      <g>
       <use xlink:href="#m8787d6cadb" x="53.328125" y="40.963547" style="stroke: #000000; stroke-width: 0.8"/>
      </g>
     </g>
     <g id="text_16">
      <!-- 6000 -->
      <g transform="translate(20.878125 44.762766) scale(0.1 -0.1)">
       <use xlink:href="#DejaVuSans-36"/>
       <use xlink:href="#DejaVuSans-30" transform="translate(63.623047 0)"/>
       <use xlink:href="#DejaVuSans-30" transform="translate(127.246094 0)"/>
       <use xlink:href="#DejaVuSans-30" transform="translate(190.869141 0)"/>
      </g>
     </g>
    </g>
    <g id="ytick_8">
     <g id="line2d_16">
      <g>
       <use xlink:href="#m8787d6cadb" x="53.328125" y="10.999219" style="stroke: #000000; stroke-width: 0.8"/>
      </g>
     </g>
     <g id="text_17">
      <!-- 7000 -->
      <g transform="translate(20.878125 14.798438) scale(0.1 -0.1)">
       <use xlink:href="#DejaVuSans-37"/>
       <use xlink:href="#DejaVuSans-30" transform="translate(63.623047 0)"/>
       <use xlink:href="#DejaVuSans-30" transform="translate(127.246094 0)"/>
       <use xlink:href="#DejaVuSans-30" transform="translate(190.869141 0)"/>
      </g>
     </g>
    </g>
    <g id="text_18">
     <!-- [counts] -->
     <g transform="translate(14.798438 140.562016) rotate(-90) scale(0.1 -0.1)">
      <defs>
       <path id="DejaVuSans-63" d="M 3122 3366 
L 3122 2828 
Q 2878 2963 2633 3030 
Q 2388 3097 2138 3097 
Q 1578 3097 1268 2742 
Q 959 2388 959 1747 
Q 959 1106 1268 751 
Q 1578 397 2138 397 
Q 2388 397 2633 464 
Q 2878 531 3122 666 
L 3122 134 
Q 2881 22 2623 -34 
Q 2366 -91 2075 -91 
Q 1284 -91 818 406 
Q 353 903 353 1747 
Q 353 2603 823 3093 
Q 1294 3584 2113 3584 
Q 2378 3584 2631 3529 
Q 2884 3475 3122 3366 
z
" transform="scale(0.015625)"/>
       <path id="DejaVuSans-6f" d="M 1959 3097 
Q 1497 3097 1228 2736 
Q 959 2375 959 1747 
Q 959 1119 1226 758 
Q 1494 397 1959 397 
Q 2419 397 2687 759 
Q 2956 1122 2956 1747 
Q 2956 2369 2687 2733 
Q 2419 3097 1959 3097 
z
M 1959 3584 
Q 2709 3584 3137 3096 
Q 3566 2609 3566 1747 
Q 3566 888 3137 398 
Q 2709 -91 1959 -91 
Q 1206 -91 779 398 
Q 353 888 353 1747 
Q 353 2609 779 3096 
Q 1206 3584 1959 3584 
z
" transform="scale(0.015625)"/>
       <path id="DejaVuSans-75" d="M 544 1381 
L 544 3500 
L 1119 3500 
L 1119 1403 
Q 1119 906 1312 657 
Q 1506 409 1894 409 
Q 2359 409 2629 706 
Q 2900 1003 2900 1516 
L 2900 3500 
L 3475 3500 
L 3475 0 
L 2900 0 
L 2900 538 
Q 2691 219 2414 64 
Q 2138 -91 1772 -91 
Q 1169 -91 856 284 
Q 544 659 544 1381 
z
M 1991 3584 
L 1991 3584 
z
" transform="scale(0.015625)"/>
       <path id="DejaVuSans-73" d="M 2834 3397 
L 2834 2853 
Q 2591 2978 2328 3040 
Q 2066 3103 1784 3103 
Q 1356 3103 1142 2972 
Q 928 2841 928 2578 
Q 928 2378 1081 2264 
Q 1234 2150 1697 2047 
L 1894 2003 
Q 2506 1872 2764 1633 
Q 3022 1394 3022 966 
Q 3022 478 2636 193 
Q 2250 -91 1575 -91 
Q 1294 -91 989 -36 
Q 684 19 347 128 
L 347 722 
Q 666 556 975 473 
Q 1284 391 1588 391 
Q 1994 391 2212 530 
Q 2431 669 2431 922 
Q 2431 1156 2273 1281 
Q 2116 1406 1581 1522 
L 1381 1569 
Q 847 1681 609 1914 
Q 372 2147 372 2553 
Q 372 3047 722 3315 
Q 1072 3584 1716 3584 
Q 2034 3584 2315 3537 
Q 2597 3491 2834 3397 
z
" transform="scale(0.015625)"/>
      </defs>
      <use xlink:href="#DejaVuSans-5b"/>
      <use xlink:href="#DejaVuSans-63" transform="translate(39.013672 0)"/>
      <use xlink:href="#DejaVuSans-6f" transform="translate(93.994141 0)"/>
      <use xlink:href="#DejaVuSans-75" transform="translate(155.175781 0)"/>
      <use xlink:href="#DejaVuSans-6e" transform="translate(218.554688 0)"/>
      <use xlink:href="#DejaVuSans-74" transform="translate(281.933594 0)"/>
      <use xlink:href="#DejaVuSans-73" transform="translate(321.142578 0)"/>
      <use xlink:href="#DejaVuSans-5d" transform="translate(373.242188 0)"/>
     </g>
    </g>
   </g>
   <g id="line2d_17">
    <path d="M 68.546307 220.749516 
L 74.63358 220.719552 
L 74.63358 220.599694 
L 76.155398 220.629659 
L 76.155398 220.749516 
L 76.916307 220.749516 
L 76.916307 220.599694 
L 77.677216 220.599694 
L 77.677216 220.749516 
L 79.199034 220.749516 
L 79.199034 220.539766 
L 79.959943 220.539766 
L 79.959943 220.419908 
L 80.720852 220.419908 
L 80.720852 220.629659 
L 81.481761 220.629659 
L 81.481761 220.389944 
L 83.764489 220.419908 
L 83.764489 220.270087 
L 86.808125 220.240122 
L 86.808125 220.090301 
L 87.569034 220.090301 
L 87.569034 219.88055 
L 88.329943 219.88055 
L 88.329943 220.180194 
L 89.090852 220.180194 
L 89.090852 219.491014 
L 89.851761 219.491014 
L 89.851761 219.910515 
L 91.37358 219.820622 
L 91.37358 219.790658 
L 92.134489 219.790658 
L 92.134489 219.2513 
L 92.895398 219.2513 
L 92.895398 219.700765 
L 93.656307 219.700765 
L 93.656307 218.891728 
L 94.417216 218.891728 
L 94.417216 219.2513 
L 95.178125 219.2513 
L 95.178125 218.622049 
L 95.939034 218.622049 
L 95.939034 218.412298 
L 96.699943 218.412298 
L 96.699943 218.592084 
L 97.460852 218.592084 
L 97.460852 218.232512 
L 98.221761 218.232512 
L 98.221761 217.842976 
L 98.98267 217.842976 
L 98.98267 217.423476 
L 99.74358 217.423476 
L 99.74358 216.76426 
L 100.504489 216.76426 
L 100.504489 217.393511 
L 101.265398 217.393511 
L 101.265398 216.224902 
L 102.026307 216.224902 
L 102.026307 215.535723 
L 102.787216 215.535723 
L 102.787216 215.056294 
L 103.548125 215.056294 
L 103.548125 213.64797 
L 104.309034 213.64797 
L 104.309034 214.636793 
L 105.069943 214.636793 
L 105.069943 213.378291 
L 105.830852 213.378291 
L 105.830852 211.370681 
L 106.591761 211.370681 
L 106.591761 209.812536 
L 107.35267 209.812536 
L 107.35267 209.932394 
L 108.11358 209.932394 
L 108.11358 209.662715 
L 108.874489 209.662715 
L 108.874489 206.696246 
L 109.635398 206.696246 
L 109.635398 203.699813 
L 110.396307 203.699813 
L 110.396307 201.272703 
L 111.157216 201.272703 
L 111.157216 200.193987 
L 111.918125 200.193987 
L 111.918125 197.047732 
L 112.679034 197.047732 
L 112.679034 194.291014 
L 113.439943 194.291014 
L 113.439943 192.732869 
L 114.200852 192.732869 
L 114.200852 186.680075 
L 114.961761 186.680075 
L 114.961761 187.579005 
L 115.72267 187.579005 
L 115.72267 183.923357 
L 116.48358 183.923357 
L 116.48358 177.30124 
L 117.244489 177.30124 
L 117.244489 174.993987 
L 118.005398 174.993987 
L 118.005398 172.207304 
L 118.766307 172.207304 
L 118.766307 167.712655 
L 119.527216 167.712655 
L 119.527216 163.847257 
L 120.288125 163.847257 
L 120.288125 161.540004 
L 121.049034 161.540004 
L 121.049034 154.228707 
L 121.809943 154.228707 
L 121.809943 157.974248 
L 122.570852 157.974248 
L 122.570852 150.722881 
L 123.331761 150.722881 
L 123.331761 147.576627 
L 124.09267 147.576627 
L 124.09267 145.089587 
L 124.85358 145.089587 
L 124.85358 136.759504 
L 125.614489 136.759504 
L 125.614489 130.377102 
L 126.375398 130.377102 
L 126.375398 123.185663 
L 127.136307 123.185663 
L 127.136307 123.725021 
L 127.897216 123.725021 
L 127.897216 113.7469 
L 128.658125 113.7469 
L 128.658125 109.52193 
L 129.419034 109.52193 
L 129.419034 107.93382 
L 130.179943 107.93382 
L 130.179943 105.986139 
L 130.940852 105.986139 
L 130.940852 99.004451 
L 131.701761 99.004451 
L 131.701761 93.550943 
L 132.46267 93.550943 
L 132.46267 94.330015 
L 133.22358 94.330015 
L 133.22358 77.909564 
L 133.984489 77.909564 
L 133.984489 76.621097 
L 134.745398 76.621097 
L 134.745398 83.782572 
L 135.506307 83.782572 
L 135.506307 63.286971 
L 136.267216 63.286971 
L 136.267216 49.773059 
L 137.028125 49.773059 
L 137.028125 62.328113 
L 137.789034 62.328113 
L 137.789034 46.896484 
L 138.549943 46.896484 
L 138.549943 51.391133 
L 139.310852 51.391133 
L 139.310852 47.166163 
L 140.071761 47.166163 
L 140.071761 58.402786 
L 140.83267 58.402786 
L 140.83267 45.158553 
L 141.59358 45.158553 
L 141.59358 47.28602 
L 142.354489 47.28602 
L 142.354489 41.413012 
L 143.115398 41.413012 
L 143.115398 39.914795 
L 143.876307 39.914795 
L 143.876307 33.951894 
L 144.637216 33.951894 
L 144.637216 38.955937 
L 145.398125 38.955937 
L 145.398125 28.408493 
L 146.159034 28.408493 
L 146.159034 42.311942 
L 146.919943 42.311942 
L 146.919943 42.641549 
L 147.680852 42.641549 
L 147.680852 27.329778 
L 148.441761 27.329778 
L 148.441761 36.319076 
L 149.20267 36.319076 
L 149.20267 38.716222 
L 149.96358 38.716222 
L 149.96358 34.82086 
L 150.724489 34.82086 
L 150.724489 47.885307 
L 151.485398 47.885307 
L 151.485398 21.396841 
L 152.246307 21.396841 
L 152.246307 43.150943 
L 153.007216 43.150943 
L 153.007216 27.030134 
L 153.768125 27.030134 
L 153.768125 41.083404 
L 154.529034 41.083404 
L 154.529034 28.498386 
L 155.289943 28.498386 
L 155.289943 37.93715 
L 156.050852 37.93715 
L 156.050852 34.82086 
L 156.811761 34.82086 
L 156.811761 19.149516 
L 157.57267 19.149516 
L 157.57267 42.551656 
L 158.33358 42.551656 
L 158.33358 30.925497 
L 159.094489 30.925497 
L 159.094489 46.057483 
L 159.855398 46.057483 
L 159.855398 37.667471 
L 160.616307 37.667471 
L 160.616307 27.539528 
L 161.377216 27.539528 
L 161.377216 35.480075 
L 162.138125 35.480075 
L 162.138125 24.483166 
L 162.899034 24.483166 
L 162.899034 28.498386 
L 163.659943 28.498386 
L 163.659943 32.423713 
L 164.420852 32.423713 
L 164.420852 35.899575 
L 165.181761 35.899575 
L 165.181761 41.26319 
L 165.94267 41.26319 
L 165.94267 28.228707 
L 166.70358 28.228707 
L 166.70358 37.637507 
L 167.464489 37.637507 
L 167.464489 48.214914 
L 168.225398 48.214914 
L 168.225398 31.70457 
L 168.986307 31.70457 
L 168.986307 41.383048 
L 169.747216 41.383048 
L 169.747216 32.573535 
L 170.508125 32.573535 
L 170.508125 44.85891 
L 171.269034 44.85891 
L 171.269034 41.832512 
L 172.029943 41.832512 
L 172.029943 51.660812 
L 172.790852 51.660812 
L 172.790852 44.739052 
L 173.551761 44.739052 
L 173.551761 47.07627 
L 174.31267 47.07627 
L 174.31267 58.282929 
L 175.07358 58.282929 
L 175.07358 56.065568 
L 175.834489 56.065568 
L 175.834489 67.601835 
L 176.595398 67.601835 
L 176.595398 64.605402 
L 177.356307 64.605402 
L 177.356307 55.616103 
L 178.117216 55.616103 
L 178.117216 53.129064 
L 178.878125 53.129064 
L 178.878125 59.721216 
L 179.639034 59.721216 
L 179.639034 77.549992 
L 180.399943 77.549992 
L 180.399943 77.729778 
L 181.160852 77.729778 
L 181.160852 67.302191 
L 181.921761 67.302191 
L 181.921761 76.50124 
L 182.68267 76.50124 
L 182.68267 76.830848 
L 183.44358 76.830848 
L 183.44358 85.130967 
L 184.204489 85.130967 
L 184.204489 75.901954 
L 184.965398 75.901954 
L 184.965398 85.370681 
L 185.726307 85.370681 
L 185.726307 80.276746 
L 186.487216 80.276746 
L 186.487216 92.052726 
L 187.248125 92.052726 
L 187.248125 83.512893 
L 188.009034 83.512893 
L 188.009034 94.869373 
L 188.769943 94.869373 
L 188.769943 91.123832 
L 189.530852 91.123832 
L 189.530852 85.850111 
L 190.291761 85.850111 
L 190.291761 100.892203 
L 191.05267 100.892203 
L 191.05267 87.378291 
L 191.81358 87.378291 
L 191.81358 98.644879 
L 192.574489 98.644879 
L 192.574489 91.183761 
L 193.335398 91.183761 
L 193.335398 110.63061 
L 194.096307 110.63061 
L 194.096307 94.899338 
L 194.857216 94.899338 
L 194.857216 118.810872 
L 195.618125 118.810872 
L 195.618125 100.232988 
L 196.379034 100.232988 
L 196.379034 107.903856 
L 197.139943 107.903856 
L 197.139943 104.427994 
L 197.900852 104.427994 
L 197.900852 110.660574 
L 198.661761 110.660574 
L 198.661761 112.218719 
L 199.42267 112.218719 
L 199.42267 113.836793 
L 200.18358 113.836793 
L 200.18358 114.106472 
L 200.944489 114.106472 
L 200.944489 117.732156 
L 201.705398 117.732156 
L 201.705398 116.293868 
L 202.466307 116.293868 
L 202.466307 112.218719 
L 203.227216 112.218719 
L 203.227216 128.429421 
L 203.988125 128.429421 
L 203.988125 110.960218 
L 204.749034 110.960218 
L 204.749034 133.313606 
L 205.509943 133.313606 
L 205.509943 116.86319 
L 206.270852 116.86319 
L 206.270852 122.88602 
L 207.031761 122.88602 
L 207.031761 130.317174 
L 207.79267 130.317174 
L 207.79267 130.886496 
L 208.55358 130.886496 
L 208.55358 126.062239 
L 209.314489 126.062239 
L 209.314489 131.995176 
L 210.075398 131.995176 
L 210.075398 127.470562 
L 210.836307 127.470562 
L 210.836307 126.092203 
L 211.597216 126.092203 
L 211.597216 133.073892 
L 212.358125 133.073892 
L 212.358125 136.609682 
L 213.119034 136.609682 
L 213.119034 133.313606 
L 213.879943 133.313606 
L 213.879943 138.587328 
L 214.640852 138.587328 
L 214.640852 136.669611 
L 215.401761 136.669611 
L 215.401761 121.56759 
L 216.16267 121.56759 
L 216.16267 149.823951 
L 216.92358 149.823951 
L 216.92358 141.673654 
L 217.684489 141.673654 
L 217.684489 142.812298 
L 218.445398 142.812298 
L 218.445398 152.370919 
L 219.206307 152.370919 
L 219.206307 139.725973 
L 219.967216 139.725973 
L 219.967216 145.089587 
L 220.728125 145.089587 
L 220.728125 142.302905 
L 221.489034 142.302905 
L 221.489034 146.647732 
L 222.249943 146.647732 
L 222.249943 146.318125 
L 223.010852 146.318125 
L 223.010852 145.569017 
L 223.771761 145.569017 
L 223.771761 153.719314 
L 224.53267 153.719314 
L 224.53267 149.88388 
L 225.29358 149.88388 
L 225.29358 147.846306 
L 226.054489 147.846306 
L 226.054489 154.198743 
L 226.815398 154.198743 
L 226.815398 156.086496 
L 227.576307 156.086496 
L 227.576307 138.677221 
L 228.337216 138.677221 
L 228.337216 167.323119 
L 229.098125 167.323119 
L 229.098125 146.378053 
L 229.859034 146.378053 
L 229.859034 158.81325 
L 230.619943 158.81325 
L 230.619943 166.064617 
L 231.380852 166.064617 
L 231.380852 152.79042 
L 232.141761 152.79042 
L 232.141761 156.535961 
L 233.66358 156.535961 
L 233.66358 160.461288 
L 234.424489 160.461288 
L 234.424489 159.382572 
L 235.185398 159.382572 
L 235.185398 161.809682 
L 235.946307 161.809682 
L 235.946307 166.903618 
L 236.707216 166.903618 
L 236.707216 153.779243 
L 237.468125 153.779243 
L 237.468125 166.903618 
L 238.229034 166.903618 
L 238.229034 167.442976 
L 238.989943 167.442976 
L 238.989943 157.884355 
L 239.750852 157.884355 
L 239.750852 175.233702 
L 240.511761 175.233702 
L 240.511761 165.315509 
L 241.27267 165.315509 
L 241.27267 169.2708 
L 242.03358 169.2708 
L 242.03358 167.95237 
L 242.794489 167.95237 
L 242.794489 172.38709 
L 243.555398 172.38709 
L 243.555398 165.764974 
L 244.316307 165.764974 
L 244.316307 174.095057 
L 245.077216 174.095057 
L 245.077216 172.027518 
L 245.838125 172.027518 
L 245.838125 174.095057 
L 246.599034 174.095057 
L 246.599034 173.585663 
L 247.359943 173.585663 
L 247.359943 176.552132 
L 248.120852 176.552132 
L 248.120852 175.623238 
L 248.881761 175.623238 
L 248.881761 173.675556 
L 249.64267 173.675556 
L 249.64267 176.40231 
L 250.40358 176.40231 
L 250.40358 169.660336 
L 251.164489 169.660336 
L 251.164489 181.945711 
L 251.925398 181.945711 
L 251.925398 180.657245 
L 252.686307 180.657245 
L 252.686307 181.705996 
L 253.447216 181.705996 
L 253.447216 177.540955 
L 254.208125 177.540955 
L 254.208125 182.275319 
L 254.969034 182.275319 
L 254.969034 182.42514 
L 255.729943 182.42514 
L 255.729943 178.829421 
L 256.490852 178.829421 
L 256.490852 187.728826 
L 257.251761 187.728826 
L 257.251761 183.803499 
L 258.01267 183.803499 
L 258.01267 187.728826 
L 258.77358 187.728826 
L 258.77358 188.687685 
L 259.534489 188.687685 
L 259.534489 191.744046 
L 260.295398 191.744046 
L 260.295398 189.227043 
L 261.056307 189.227043 
L 261.056307 190.24583 
L 261.817216 190.24583 
L 261.817216 192.403262 
L 262.578125 192.403262 
L 262.578125 189.466757 
L 263.339034 189.466757 
L 263.339034 192.852726 
L 264.099943 192.852726 
L 264.099943 192.343333 
L 264.860852 192.343333 
L 264.860852 190.395652 
L 265.621761 190.395652 
L 265.621761 197.527162 
L 266.38267 197.527162 
L 266.38267 196.05891 
L 267.14358 196.05891 
L 267.14358 197.107661 
L 267.904489 197.107661 
L 267.904489 200.07413 
L 268.665398 200.07413 
L 268.665398 197.766876 
L 269.426307 197.766876 
L 269.426307 198.096484 
L 270.187216 198.096484 
L 270.187216 198.875556 
L 270.948125 198.875556 
L 270.948125 198.665806 
L 271.709034 198.665806 
L 271.709034 200.583523 
L 272.469943 200.583523 
L 272.469943 202.021811 
L 273.230852 202.021811 
L 273.230852 201.152845 
L 273.991761 201.152845 
L 273.991761 201.722168 
L 274.75267 201.722168 
L 274.75267 202.800883 
L 275.51358 202.800883 
L 275.51358 203.160455 
L 276.274489 203.160455 
L 276.274489 203.819671 
L 277.035398 203.819671 
L 277.035398 204.958315 
L 277.796307 204.958315 
L 277.796307 206.576389 
L 278.557216 206.576389 
L 278.557216 207.565212 
L 279.318125 207.565212 
L 279.318125 205.767352 
L 280.079034 205.767352 
L 280.079034 206.037031 
L 280.839943 206.037031 
L 280.839943 210.142144 
L 281.600852 210.142144 
L 281.600852 207.355461 
L 282.361761 207.355461 
L 282.361761 206.066995 
L 283.12267 206.066995 
L 283.12267 210.262001 
L 283.88358 210.262001 
L 283.88358 209.423 
L 284.644489 209.423 
L 284.644489 212.059861 
L 285.405398 212.059861 
L 285.405398 209.482929 
L 286.166307 209.482929 
L 286.166307 210.202072 
L 286.927216 210.202072 
L 286.927216 212.089825 
L 288.449034 212.029897 
L 288.449034 212.449397 
L 289.209943 212.449397 
L 289.209943 213.498149 
L 289.970852 213.498149 
L 289.970852 213.018719 
L 290.731761 213.018719 
L 290.731761 212.659147 
L 291.49267 212.659147 
L 291.49267 213.677935 
L 292.25358 213.677935 
L 292.25358 214.457007 
L 293.014489 214.457007 
L 293.014489 213.767828 
L 293.775398 213.767828 
L 293.775398 214.846543 
L 294.536307 214.846543 
L 294.536307 215.325973 
L 295.297216 215.325973 
L 295.297216 215.176151 
L 296.058125 215.176151 
L 296.058125 215.026329 
L 296.819034 215.026329 
L 296.819034 216.464617 
L 297.579943 216.464617 
L 297.579943 216.614439 
L 298.340852 216.614439 
L 298.340852 217.153797 
L 299.101761 217.153797 
L 299.101761 216.944046 
L 299.86267 216.944046 
L 299.86267 218.022762 
L 300.62358 218.022762 
L 300.62358 217.45344 
L 301.384489 217.45344 
L 301.384489 218.082691 
L 302.145398 218.082691 
L 302.145398 218.801835 
L 302.906307 218.801835 
L 302.906307 218.232512 
L 303.667216 218.232512 
L 303.667216 218.532156 
L 304.428125 218.532156 
L 304.428125 219.191371 
L 305.189034 219.191371 
L 305.189034 219.011585 
L 306.710852 219.071514 
L 306.710852 219.520979 
L 307.471761 219.520979 
L 307.471761 219.730729 
L 308.23267 219.730729 
L 308.23267 220.150229 
L 309.754489 220.060336 
L 309.754489 220.479837 
L 310.515398 220.479837 
L 310.515398 220.749516 
L 372.909943 220.749516 
L 372.909943 220.749516 
" clip-path="url(#p1f32f8ccfd)" style="fill: none; stroke: #1f77b4; stroke-width: 1.5; stroke-linecap: square"/>
   </g>
   <g id="line2d_18">
    <path d="M 68.546307 220.749516 
L 76.916307 220.689587 
L 76.916307 220.629659 
L 78.438125 220.689587 
L 78.438125 220.749516 
L 79.959943 220.749516 
L 79.959943 220.539766 
L 83.00358 220.599694 
L 83.00358 220.300051 
L 83.764489 220.300051 
L 83.764489 220.150229 
L 84.525398 220.150229 
L 84.525398 220.56973 
L 85.286307 220.56973 
L 85.286307 219.970443 
L 86.047216 219.970443 
L 86.047216 220.479837 
L 86.808125 220.479837 
L 86.808125 219.970443 
L 87.569034 219.970443 
L 87.569034 220.090301 
L 88.329943 220.090301 
L 88.329943 219.820622 
L 89.090852 219.820622 
L 89.090852 219.550943 
L 89.851761 219.550943 
L 89.851761 220.000408 
L 90.61267 220.000408 
L 90.61267 219.760693 
L 91.37358 219.760693 
L 91.37358 219.580907 
L 92.134489 219.580907 
L 92.134489 219.820622 
L 92.895398 219.820622 
L 92.895398 219.161407 
L 93.656307 219.161407 
L 93.656307 219.011585 
L 94.417216 219.011585 
L 94.417216 219.371157 
L 95.178125 219.371157 
L 95.178125 218.382334 
L 95.939034 218.382334 
L 95.939034 218.741906 
L 97.460852 218.681977 
L 97.460852 217.66319 
L 98.221761 217.66319 
L 98.221761 218.082691 
L 98.98267 218.082691 
L 98.98267 217.093868 
L 99.74358 217.093868 
L 99.74358 217.633226 
L 100.504489 217.633226 
L 100.504489 217.24369 
L 101.265398 217.24369 
L 101.265398 215.325973 
L 102.787216 215.355937 
L 102.787216 215.475794 
L 103.548125 215.475794 
L 103.548125 214.247257 
L 104.309034 214.247257 
L 104.309034 213.857721 
L 105.069943 213.857721 
L 105.069943 212.509326 
L 105.830852 212.509326 
L 105.830852 211.64036 
L 106.591761 211.64036 
L 106.591761 211.520503 
L 107.35267 211.520503 
L 107.35267 209.63275 
L 108.11358 209.63275 
L 108.11358 207.505283 
L 108.874489 207.505283 
L 108.874489 206.51646 
L 109.635398 206.51646 
L 109.635398 204.7186 
L 110.396307 204.7186 
L 110.396307 200.253916 
L 111.157216 200.253916 
L 111.157216 201.722168 
L 111.918125 201.722168 
L 111.918125 197.257483 
L 112.679034 197.257483 
L 112.679034 193.392084 
L 113.439943 193.392084 
L 113.439943 193.182334 
L 114.200852 193.182334 
L 114.200852 188.178291 
L 114.961761 188.178291 
L 114.961761 184.223 
L 116.48358 184.312893 
L 116.48358 174.724308 
L 117.244489 174.724308 
L 117.244489 177.421097 
L 118.005398 177.421097 
L 118.005398 174.964023 
L 118.766307 174.964023 
L 118.766307 164.716222 
L 119.527216 164.716222 
L 119.527216 164.416579 
L 120.288125 164.416579 
L 120.288125 160.850824 
L 121.049034 160.850824 
L 121.049034 157.554748 
L 121.809943 157.554748 
L 121.809943 152.550705 
L 122.570852 152.550705 
L 122.570852 150.333345 
L 123.331761 150.333345 
L 123.331761 147.396841 
L 124.09267 147.396841 
L 124.09267 144.100765 
L 124.85358 144.100765 
L 124.85358 136.04036 
L 125.614489 136.04036 
L 125.614489 129.957602 
L 126.375398 129.957602 
L 126.375398 127.59042 
L 127.136307 127.59042 
L 127.136307 119.97948 
L 127.897216 119.97948 
L 127.897216 112.63822 
L 128.658125 112.63822 
L 128.658125 109.851537 
L 129.419034 109.851537 
L 129.419034 109.701716 
L 130.179943 109.701716 
L 130.179943 102.360455 
L 130.940852 102.360455 
L 130.940852 100.952132 
L 131.701761 100.952132 
L 131.701761 97.536199 
L 132.46267 97.536199 
L 132.46267 86.359504 
L 133.22358 86.359504 
L 133.22358 79.647495 
L 133.984489 79.647495 
L 133.984489 83.303143 
L 134.745398 83.303143 
L 134.745398 66.912655 
L 135.506307 66.912655 
L 135.506307 69.279837 
L 136.267216 69.279837 
L 136.267216 59.062001 
L 137.028125 59.062001 
L 137.028125 48.844165 
L 137.789034 48.844165 
L 137.789034 50.40231 
L 138.549943 50.40231 
L 138.549943 54.687209 
L 139.310852 54.687209 
L 139.310852 52.469849 
L 140.071761 52.469849 
L 140.071761 47.675556 
L 140.83267 47.675556 
L 140.83267 48.934058 
L 141.59358 48.934058 
L 141.59358 39.555224 
L 142.354489 39.555224 
L 142.354489 45.06866 
L 143.115398 45.06866 
L 143.115398 44.679124 
L 143.876307 44.679124 
L 143.876307 36.019433 
L 144.637216 36.019433 
L 144.637216 38.296722 
L 145.398125 38.296722 
L 145.398125 29.936674 
L 146.159034 29.936674 
L 146.159034 32.154034 
L 146.919943 32.154034 
L 146.919943 45.338339 
L 147.680852 45.338339 
L 147.680852 39.585188 
L 148.441761 39.585188 
L 148.441761 31.644641 
L 149.20267 31.644641 
L 149.20267 38.955937 
L 149.96358 38.955937 
L 149.96358 36.678648 
L 150.724489 36.678648 
L 150.724489 37.817292 
L 151.485398 37.817292 
L 151.485398 40.214439 
L 152.246307 40.214439 
L 152.246307 25.292203 
L 153.007216 25.292203 
L 153.007216 32.723357 
L 153.768125 32.723357 
L 153.768125 39.764974 
L 154.529034 39.764974 
L 154.529034 25.022524 
L 155.289943 25.022524 
L 155.289943 35.210396 
L 156.050852 35.210396 
L 156.050852 29.816817 
L 156.811761 29.816817 
L 156.811761 33.472465 
L 157.57267 33.472465 
L 157.57267 33.262715 
L 158.33358 33.262715 
L 158.33358 51.481026 
L 159.094489 51.481026 
L 159.094489 37.727399 
L 159.855398 37.727399 
L 159.855398 35.090539 
L 160.616307 35.090539 
L 160.616307 30.416103 
L 161.377216 30.416103 
L 161.377216 19.65891 
L 162.138125 19.65891 
L 162.138125 39.615152 
L 162.899034 39.615152 
L 162.899034 32.12407 
L 163.659943 32.12407 
L 163.659943 25.801597 
L 164.420852 25.801597 
L 164.420852 32.663428 
L 165.181761 32.663428 
L 165.181761 41.652726 
L 165.94267 41.652726 
L 165.94267 34.910753 
L 166.70358 34.910753 
L 166.70358 42.521692 
L 167.464489 42.521692 
L 167.464489 44.469373 
L 168.225398 44.469373 
L 168.225398 35.92954 
L 168.986307 35.92954 
L 168.986307 47.49577 
L 169.747216 47.49577 
L 169.747216 41.113369 
L 170.508125 41.113369 
L 170.508125 37.637507 
L 171.269034 37.637507 
L 171.269034 42.821335 
L 172.029943 42.821335 
L 172.029943 37.128113 
L 172.790852 37.128113 
L 172.790852 55.076746 
L 173.551761 55.076746 
L 173.551761 49.803024 
L 174.31267 49.803024 
L 174.31267 65.204688 
L 175.07358 65.204688 
L 175.07358 69.429659 
L 175.834489 69.429659 
L 175.834489 44.229659 
L 176.595398 44.229659 
L 176.595398 55.705996 
L 177.356307 55.705996 
L 177.356307 62.687685 
L 178.117216 62.687685 
L 178.117216 64.815152 
L 178.878125 64.815152 
L 178.878125 66.133583 
L 179.639034 66.133583 
L 179.639034 61.758791 
L 180.399943 61.758791 
L 180.399943 72.965449 
L 181.160852 72.965449 
L 181.160852 75.572346 
L 181.921761 75.572346 
L 181.921761 72.426092 
L 182.68267 72.426092 
L 182.68267 82.52407 
L 183.44358 82.52407 
L 183.44358 82.673892 
L 184.204489 82.673892 
L 184.204489 88.606829 
L 184.965398 88.606829 
L 184.965398 79.707423 
L 186.487216 79.647495 
L 186.487216 79.377816 
L 187.248125 79.377816 
L 187.248125 90.854153 
L 188.009034 90.854153 
L 188.009034 99.393987 
L 188.769943 99.393987 
L 188.769943 81.41539 
L 189.530852 81.41539 
L 189.530852 91.633226 
L 190.291761 91.633226 
L 190.291761 87.767828 
L 191.05267 87.767828 
L 191.05267 98.58495 
L 191.81358 98.58495 
L 191.81358 107.694106 
L 192.574489 107.694106 
L 192.574489 96.217768 
L 193.335398 96.217768 
L 193.335398 93.910515 
L 194.096307 93.910515 
L 194.096307 98.435128 
L 194.857216 98.435128 
L 194.857216 105.626567 
L 195.618125 105.626567 
L 195.618125 109.611823 
L 196.379034 109.611823 
L 196.379034 105.356888 
L 197.139943 105.356888 
L 197.139943 106.765212 
L 197.900852 106.765212 
L 197.900852 115.095295 
L 198.661761 115.095295 
L 198.661761 105.596603 
L 199.42267 105.596603 
L 199.42267 112.937863 
L 200.18358 112.937863 
L 200.18358 118.211585 
L 200.944489 118.211585 
L 200.944489 123.245592 
L 201.705398 123.245592 
L 201.705398 116.353797 
L 202.466307 116.353797 
L 202.466307 111.050111 
L 203.227216 111.050111 
L 203.227216 115.424902 
L 203.988125 115.424902 
L 203.988125 119.889587 
L 204.749034 119.889587 
L 204.749034 126.69149 
L 205.509943 126.69149 
L 205.509943 120.009445 
L 206.270852 120.009445 
L 206.270852 123.425378 
L 207.031761 123.425378 
L 207.031761 127.081026 
L 207.79267 127.081026 
L 207.79267 130.856531 
L 208.55358 130.856531 
L 208.55358 131.845354 
L 209.314489 131.845354 
L 209.314489 123.5752 
L 210.075398 123.5752 
L 210.075398 137.478648 
L 210.836307 137.478648 
L 210.836307 129.088636 
L 211.597216 129.088636 
L 211.597216 133.972822 
L 212.358125 133.972822 
L 212.358125 135.291252 
L 213.119034 135.291252 
L 213.119034 131.246068 
L 213.879943 131.246068 
L 213.879943 135.590895 
L 214.640852 135.590895 
L 214.640852 135.920503 
L 215.401761 135.920503 
L 215.401761 133.942857 
L 216.16267 133.942857 
L 216.16267 140.624902 
L 216.92358 140.624902 
L 216.92358 142.722405 
L 217.684489 142.722405 
L 217.684489 138.73715 
L 218.445398 138.73715 
L 218.445398 143.052013 
L 219.206307 143.052013 
L 219.206307 143.950943 
L 219.967216 143.950943 
L 219.967216 147.726448 
L 220.728125 147.726448 
L 220.728125 151.112417 
L 221.489034 151.112417 
L 221.489034 144.75998 
L 222.249943 144.75998 
L 222.249943 138.976864 
L 223.010852 138.976864 
L 223.010852 150.243452 
L 223.771761 150.243452 
L 223.771761 150.123594 
L 224.53267 150.123594 
L 224.53267 149.374486 
L 225.29358 149.374486 
L 225.29358 149.164736 
L 226.054489 149.164736 
L 226.054489 150.363309 
L 226.815398 150.363309 
L 226.815398 156.625854 
L 227.576307 156.625854 
L 227.576307 153.030134 
L 228.337216 153.030134 
L 228.337216 153.629421 
L 229.859034 153.719314 
L 229.859034 158.81325 
L 230.619943 158.81325 
L 230.619943 151.442025 
L 231.380852 151.442025 
L 231.380852 161.000646 
L 232.141761 161.000646 
L 232.141761 155.247495 
L 232.90267 155.247495 
L 232.90267 158.933107 
L 233.66358 158.933107 
L 233.66358 160.611109 
L 234.424489 160.611109 
L 234.424489 166.753797 
L 235.185398 166.753797 
L 235.185398 161.450111 
L 236.707216 161.510039 
L 236.707216 161.270325 
L 237.468125 161.270325 
L 237.468125 157.734534 
L 238.229034 157.734534 
L 238.229034 163.517649 
L 238.989943 163.517649 
L 238.989943 170.109801 
L 239.750852 170.109801 
L 239.750852 169.720265 
L 240.511761 169.720265 
L 240.511761 167.742619 
L 241.27267 167.742619 
L 241.27267 164.416579 
L 242.03358 164.416579 
L 242.03358 168.941193 
L 242.794489 168.941193 
L 242.794489 172.327162 
L 243.555398 172.327162 
L 243.555398 169.450586 
L 244.316307 169.450586 
L 244.316307 174.544522 
L 245.077216 174.544522 
L 245.077216 165.854867 
L 245.838125 165.854867 
L 245.838125 177.181383 
L 246.599034 177.181383 
L 246.599034 176.40231 
L 247.359943 176.40231 
L 247.359943 169.780194 
L 248.120852 169.780194 
L 248.120852 177.600883 
L 248.881761 177.600883 
L 248.881761 171.637982 
L 249.64267 171.637982 
L 249.64267 176.282453 
L 250.40358 176.282453 
L 250.40358 179.188993 
L 251.164489 179.188993 
L 251.164489 178.619671 
L 251.925398 178.619671 
L 251.925398 180.747138 
L 252.686307 180.747138 
L 252.686307 177.331204 
L 253.447216 177.331204 
L 253.447216 182.21539 
L 254.208125 182.21539 
L 254.208125 180.027994 
L 254.969034 180.027994 
L 254.969034 185.721216 
L 255.729943 185.721216 
L 255.729943 179.218957 
L 256.490852 179.218957 
L 256.490852 186.799932 
L 257.251761 186.799932 
L 257.251761 183.054391 
L 258.01267 183.054391 
L 258.01267 186.590182 
L 258.77358 186.590182 
L 258.77358 189.826329 
L 259.534489 189.826329 
L 259.534489 188.178291 
L 260.295398 188.178291 
L 260.295398 189.736436 
L 261.056307 189.736436 
L 261.056307 191.444403 
L 261.817216 191.444403 
L 261.817216 190.066044 
L 262.578125 190.066044 
L 262.578125 193.991371 
L 263.339034 193.991371 
L 263.339034 186.110753 
L 264.099943 186.110753 
L 264.099943 196.68816 
L 264.860852 196.68816 
L 264.860852 193.272227 
L 265.621761 193.272227 
L 265.621761 192.702905 
L 266.38267 192.702905 
L 266.38267 195.309801 
L 267.14358 195.309801 
L 267.14358 198.396127 
L 267.904489 198.396127 
L 267.904489 196.568303 
L 268.665398 196.568303 
L 268.665398 201.302667 
L 269.426307 201.302667 
L 269.426307 199.1752 
L 270.187216 199.1752 
L 270.187216 198.186377 
L 270.948125 198.186377 
L 270.948125 201.212774 
L 271.709034 201.212774 
L 271.709034 197.197554 
L 272.469943 197.197554 
L 272.469943 203.280313 
L 273.230852 203.280313 
L 273.230852 197.886734 
L 273.991761 197.886734 
L 273.991761 203.520027 
L 274.75267 203.520027 
L 274.75267 202.141668 
L 275.51358 202.141668 
L 275.51358 202.770919 
L 276.274489 202.770919 
L 276.274489 205.977102 
L 277.035398 205.977102 
L 277.035398 203.909564 
L 277.796307 203.909564 
L 277.796307 206.72621 
L 278.557216 206.72621 
L 278.557216 206.546424 
L 279.318125 206.546424 
L 279.318125 205.977102 
L 280.079034 205.977102 
L 280.079034 207.20564 
L 280.839943 207.20564 
L 280.839943 207.355461 
L 281.600852 207.355461 
L 281.600852 207.055818 
L 282.361761 207.055818 
L 282.361761 208.554034 
L 283.12267 208.554034 
L 283.12267 209.093392 
L 283.88358 209.093392 
L 283.88358 209.902429 
L 284.644489 209.902429 
L 284.644489 210.471751 
L 285.405398 210.471751 
L 285.405398 209.033464 
L 286.166307 209.033464 
L 286.166307 211.880075 
L 286.927216 211.880075 
L 286.927216 211.460574 
L 288.449034 211.400646 
L 288.449034 213.618006 
L 289.209943 213.618006 
L 289.209943 212.74904 
L 289.970852 212.74904 
L 289.970852 212.898862 
L 290.731761 212.898862 
L 290.731761 213.677935 
L 291.49267 213.677935 
L 291.49267 212.719076 
L 292.25358 212.719076 
L 292.25358 214.427043 
L 293.014489 214.427043 
L 293.014489 214.247257 
L 293.775398 214.247257 
L 293.775398 214.876508 
L 294.536307 214.876508 
L 294.536307 214.636793 
L 295.297216 214.636793 
L 295.297216 215.385901 
L 296.058125 215.385901 
L 296.058125 215.865331 
L 297.579943 215.805402 
L 297.579943 216.614439 
L 298.340852 216.614439 
L 298.340852 217.093868 
L 299.86267 217.063904 
L 299.86267 217.753083 
L 301.384489 217.693155 
L 301.384489 218.202548 
L 302.145398 218.202548 
L 302.145398 218.472227 
L 302.906307 218.472227 
L 302.906307 218.292441 
L 303.667216 218.292441 
L 303.667216 218.831799 
L 305.189034 218.77187 
L 305.189034 219.311228 
L 305.949943 219.311228 
L 305.949943 219.101478 
L 306.710852 219.101478 
L 306.710852 219.431086 
L 307.471761 219.431086 
L 307.471761 219.580907 
L 308.23267 219.580907 
L 308.23267 220.150229 
L 309.754489 220.180194 
L 309.754489 220.539766 
L 310.515398 220.539766 
L 310.515398 220.749516 
L 372.909943 220.749516 
L 372.909943 220.749516 
" clip-path="url(#p1f32f8ccfd)" style="fill: none; stroke: #ff7f0e; stroke-width: 1.5; stroke-linecap: square"/>
   </g>
   <g id="line2d_19">
    <path d="M 68.546307 220.719552 
L 77.677216 220.629659 
L 77.677216 220.599694 
L 81.481761 220.509801 
L 81.481761 220.419908 
L 82.24267 220.419908 
L 82.24267 220.539766 
L 83.764489 220.479837 
L 83.764489 220.330015 
L 85.286307 220.240122 
L 85.286307 220.150229 
L 86.808125 220.180194 
L 86.808125 220.000408 
L 87.569034 220.000408 
L 87.569034 220.150229 
L 88.329943 220.150229 
L 88.329943 219.820622 
L 89.090852 219.820622 
L 89.090852 220.090301 
L 89.851761 220.090301 
L 89.851761 219.580907 
L 90.61267 219.580907 
L 90.61267 219.820622 
L 91.37358 219.820622 
L 91.37358 219.610872 
L 92.895398 219.700765 
L 92.895398 219.131442 
L 93.656307 219.131442 
L 93.656307 218.891728 
L 94.417216 218.891728 
L 94.417216 219.071514 
L 95.178125 219.071514 
L 95.178125 218.831799 
L 96.699943 218.801835 
L 96.699943 218.592084 
L 97.460852 218.592084 
L 97.460852 217.932869 
L 98.221761 217.932869 
L 98.221761 217.45344 
L 98.98267 217.45344 
L 98.98267 217.962833 
L 99.74358 217.962833 
L 99.74358 216.76426 
L 100.504489 216.76426 
L 100.504489 217.003975 
L 101.265398 217.003975 
L 101.265398 215.955224 
L 102.026307 215.955224 
L 102.026307 215.23608 
L 103.548125 215.325973 
L 103.548125 214.636793 
L 104.309034 214.636793 
L 104.309034 213.168541 
L 105.069943 213.168541 
L 105.069943 213.468184 
L 105.830852 213.468184 
L 105.830852 211.340717 
L 106.591761 211.340717 
L 106.591761 210.561644 
L 107.35267 210.561644 
L 107.35267 209.542857 
L 108.11358 209.542857 
L 108.11358 207.685069 
L 108.874489 207.685069 
L 108.874489 206.72621 
L 109.635398 206.72621 
L 109.635398 204.269136 
L 110.396307 204.269136 
L 110.396307 201.812061 
L 111.157216 201.812061 
L 111.157216 199.894344 
L 111.918125 199.894344 
L 111.918125 197.766876 
L 112.679034 197.766876 
L 112.679034 194.68055 
L 113.439943 194.68055 
L 113.439943 191.56426 
L 114.200852 191.56426 
L 114.200852 188.358077 
L 114.961761 188.358077 
L 114.961761 184.462715 
L 115.72267 184.462715 
L 115.72267 183.204213 
L 116.48358 183.204213 
L 116.48358 177.810634 
L 117.244489 177.810634 
L 117.244489 175.08388 
L 118.005398 175.08388 
L 118.005398 172.17734 
L 118.766307 172.17734 
L 118.766307 166.753797 
L 119.527216 166.753797 
L 119.527216 165.285545 
L 120.288125 165.285545 
L 120.288125 160.701002 
L 121.049034 160.701002 
L 121.049034 157.674605 
L 121.809943 157.674605 
L 121.809943 152.041311 
L 122.570852 152.041311 
L 122.570852 150.812774 
L 123.331761 150.812774 
L 123.331761 145.748803 
L 124.09267 145.748803 
L 124.09267 141.523832 
L 124.85358 141.523832 
L 124.85358 137.208969 
L 125.614489 137.208969 
L 125.614489 130.167352 
L 126.375398 130.167352 
L 126.375398 128.039885 
L 127.136307 128.039885 
L 127.136307 120.998268 
L 127.897216 120.998268 
L 127.897216 111.619433 
L 128.658125 111.619433 
L 128.658125 112.818006 
L 129.419034 112.818006 
L 129.419034 105.237031 
L 130.179943 105.237031 
L 130.179943 103.229421 
L 130.940852 103.229421 
L 130.940852 98.884593 
L 131.701761 98.884593 
L 131.701761 96.57734 
L 132.46267 96.57734 
L 132.46267 87.348327 
L 133.22358 87.348327 
L 133.22358 80.336674 
L 133.984489 80.336674 
L 133.984489 76.351419 
L 134.745398 76.351419 
L 134.745398 69.519552 
L 135.506307 69.519552 
L 135.506307 67.961407 
L 136.267216 67.961407 
L 136.267216 59.990895 
L 137.028125 59.990895 
L 137.028125 52.230134 
L 137.789034 52.230134 
L 137.789034 53.5186 
L 138.549943 53.5186 
L 138.549943 51.720741 
L 139.310852 51.720741 
L 139.310852 49.623238 
L 140.071761 49.623238 
L 140.071761 47.046306 
L 140.83267 47.046306 
L 140.83267 48.065093 
L 142.354489 48.005164 
L 142.354489 39.165687 
L 143.115398 39.165687 
L 143.115398 45.338339 
L 143.876307 45.338339 
L 143.876307 38.716222 
L 144.637216 38.716222 
L 144.637216 32.933107 
L 145.398125 32.933107 
L 145.398125 40.15451 
L 146.159034 40.15451 
L 146.159034 30.595889 
L 146.919943 30.595889 
L 146.919943 41.95237 
L 147.680852 41.95237 
L 147.680852 35.24036 
L 148.441761 35.24036 
L 148.441761 39.25558 
L 149.20267 39.25558 
L 149.20267 40.993511 
L 149.96358 40.993511 
L 149.96358 34.910753 
L 150.724489 34.910753 
L 150.724489 37.24797 
L 151.485398 37.24797 
L 151.485398 36.858434 
L 152.246307 36.858434 
L 152.246307 29.876746 
L 153.007216 29.876746 
L 153.007216 30.476032 
L 153.768125 30.476032 
L 153.768125 31.105283 
L 155.289943 31.075319 
L 155.289943 31.315033 
L 156.050852 31.315033 
L 156.050852 34.311466 
L 156.811761 34.311466 
L 156.811761 37.367828 
L 157.57267 37.367828 
L 157.57267 38.656294 
L 158.33358 38.656294 
L 158.33358 36.558791 
L 159.094489 36.558791 
L 159.094489 30.895533 
L 159.855398 30.895533 
L 159.855398 37.457721 
L 160.616307 37.457721 
L 160.616307 29.307423 
L 161.377216 29.307423 
L 161.377216 32.303856 
L 162.138125 32.303856 
L 162.138125 31.464855 
L 162.899034 31.464855 
L 162.899034 32.094106 
L 163.659943 32.094106 
L 163.659943 35.210396 
L 164.420852 35.210396 
L 164.420852 36.468898 
L 165.181761 36.468898 
L 165.181761 38.746187 
L 165.94267 38.746187 
L 165.94267 36.588755 
L 166.70358 36.588755 
L 166.70358 42.132156 
L 167.464489 42.132156 
L 167.464489 42.641549 
L 168.225398 42.641549 
L 168.225398 41.712655 
L 168.986307 41.712655 
L 168.986307 39.94476 
L 169.747216 39.94476 
L 169.747216 43.840122 
L 170.508125 43.840122 
L 170.508125 39.405402 
L 171.269034 39.405402 
L 171.269034 44.619195 
L 172.029943 44.619195 
L 172.029943 47.046306 
L 172.790852 47.046306 
L 172.790852 50.162596 
L 173.551761 50.162596 
L 173.551761 51.630848 
L 174.31267 51.630848 
L 174.31267 55.556175 
L 175.834489 55.466282 
L 175.834489 59.062001 
L 176.595398 59.062001 
L 176.595398 61.279361 
L 177.356307 61.279361 
L 177.356307 63.826329 
L 178.117216 63.826329 
L 178.117216 60.710039 
L 178.878125 60.710039 
L 178.878125 65.953797 
L 179.639034 65.953797 
L 179.639034 69.909088 
L 180.399943 69.909088 
L 180.399943 68.620622 
L 181.160852 68.620622 
L 181.160852 73.834415 
L 181.921761 73.834415 
L 181.921761 77.789706 
L 182.68267 77.789706 
L 182.68267 78.418957 
L 183.44358 78.418957 
L 183.44358 80.816103 
L 184.965398 80.905996 
L 184.965398 85.490539 
L 185.726307 85.490539 
L 185.726307 84.981145 
L 186.487216 84.981145 
L 186.487216 80.336674 
L 187.248125 80.336674 
L 187.248125 86.119789 
L 188.009034 86.119789 
L 188.009034 89.116222 
L 188.769943 89.116222 
L 188.769943 89.865331 
L 189.530852 89.865331 
L 189.530852 85.850111 
L 190.291761 85.850111 
L 190.291761 96.966876 
L 191.05267 96.966876 
L 191.05267 98.465093 
L 191.81358 98.465093 
L 191.81358 95.378767 
L 192.574489 95.378767 
L 192.574489 100.352845 
L 193.335398 100.352845 
L 193.335398 101.371633 
L 194.096307 101.371633 
L 194.096307 104.427994 
L 194.857216 104.427994 
L 194.857216 107.484355 
L 195.618125 107.484355 
L 195.618125 100.952132 
L 196.379034 100.952132 
L 196.379034 103.798743 
L 197.139943 103.798743 
L 197.139943 106.076032 
L 197.900852 106.076032 
L 197.900852 110.900289 
L 198.661761 110.900289 
L 198.661761 108.353321 
L 199.42267 108.353321 
L 199.42267 115.125259 
L 200.18358 115.125259 
L 200.18358 112.84797 
L 200.944489 112.84797 
L 200.944489 118.780907 
L 201.705398 118.780907 
L 201.705398 118.930729 
L 202.466307 118.930729 
L 202.466307 120.518838 
L 203.227216 120.518838 
L 203.227216 118.900765 
L 203.988125 118.900765 
L 203.988125 117.55237 
L 204.749034 117.55237 
L 204.749034 121.507661 
L 205.509943 121.507661 
L 205.509943 120.87841 
L 206.270852 120.87841 
L 206.270852 126.182096 
L 207.031761 126.182096 
L 207.031761 125.343095 
L 207.79267 125.343095 
L 207.79267 127.830134 
L 208.55358 127.830134 
L 208.55358 129.927637 
L 209.314489 129.927637 
L 209.314489 130.886496 
L 210.075398 130.886496 
L 210.075398 131.455818 
L 210.836307 131.455818 
L 210.836307 133.073892 
L 211.597216 133.073892 
L 211.597216 132.744284 
L 212.358125 132.744284 
L 212.358125 133.583285 
L 213.119034 133.583285 
L 213.119034 133.852964 
L 213.879943 133.852964 
L 213.879943 132.624427 
L 214.640852 132.624427 
L 214.640852 135.14143 
L 215.401761 135.14143 
L 215.401761 141.763547 
L 216.16267 141.763547 
L 216.16267 139.306472 
L 216.92358 139.306472 
L 216.92358 140.025616 
L 217.684489 140.025616 
L 217.684489 141.254153 
L 218.445398 141.254153 
L 218.445398 143.022049 
L 219.206307 143.022049 
L 219.206307 144.370443 
L 219.967216 144.370443 
L 219.967216 145.119552 
L 220.728125 145.119552 
L 220.728125 147.696484 
L 221.489034 147.696484 
L 221.489034 146.497911 
L 222.249943 146.497911 
L 222.249943 145.509088 
L 223.010852 145.509088 
L 223.010852 146.28816 
L 223.771761 146.28816 
L 223.771761 148.355699 
L 224.53267 148.355699 
L 224.53267 149.88388 
L 225.29358 149.88388 
L 225.29358 150.752845 
L 226.054489 150.752845 
L 226.054489 152.191133 
L 226.815398 152.191133 
L 226.815398 153.419671 
L 227.576307 153.419671 
L 227.576307 152.520741 
L 228.337216 152.520741 
L 228.337216 154.558315 
L 229.098125 154.558315 
L 229.098125 155.726924 
L 229.859034 155.726924 
L 229.859034 154.678172 
L 230.619943 154.678172 
L 230.619943 154.10885 
L 231.380852 154.10885 
L 231.380852 156.595889 
L 232.141761 156.595889 
L 232.141761 158.393749 
L 232.90267 158.393749 
L 232.90267 160.521216 
L 233.66358 160.521216 
L 233.66358 158.723357 
L 234.424489 158.723357 
L 234.424489 161.959504 
L 235.185398 161.959504 
L 235.185398 162.289112 
L 235.946307 162.289112 
L 235.946307 162.13929 
L 236.707216 162.13929 
L 236.707216 164.416579 
L 237.468125 164.416579 
L 237.468125 164.596365 
L 238.229034 164.596365 
L 238.229034 164.266757 
L 238.989943 164.266757 
L 238.989943 166.933583 
L 239.750852 166.933583 
L 239.750852 164.866044 
L 240.511761 164.866044 
L 240.511761 168.701478 
L 241.27267 168.701478 
L 241.27267 168.132156 
L 242.03358 168.132156 
L 242.03358 165.555224 
L 242.794489 165.555224 
L 242.794489 170.739052 
L 243.555398 170.739052 
L 243.555398 173.465806 
L 244.316307 173.465806 
L 244.316307 169.600408 
L 245.077216 169.600408 
L 245.077216 173.49577 
L 245.838125 173.49577 
L 245.838125 172.327162 
L 246.599034 172.327162 
L 246.599034 173.49577 
L 248.120852 173.49577 
L 248.120852 173.765449 
L 248.881761 173.765449 
L 248.881761 176.252489 
L 249.64267 176.252489 
L 249.64267 175.713131 
L 250.40358 175.713131 
L 250.40358 176.612061 
L 251.164489 176.612061 
L 251.164489 178.020384 
L 251.925398 178.020384 
L 251.925398 179.278886 
L 252.686307 179.278886 
L 252.686307 181.945711 
L 253.447216 181.945711 
L 253.447216 180.866995 
L 254.208125 180.866995 
L 254.208125 182.574962 
L 254.969034 182.574962 
L 254.969034 180.777102 
L 255.729943 180.777102 
L 255.729943 183.144284 
L 256.490852 183.144284 
L 256.490852 184.193036 
L 257.251761 184.193036 
L 257.251761 186.769968 
L 258.01267 186.769968 
L 258.01267 186.290539 
L 259.534489 186.290539 
L 259.534489 189.496722 
L 260.295398 189.496722 
L 260.295398 188.208256 
L 261.056307 188.208256 
L 261.056307 189.856294 
L 261.817216 189.856294 
L 261.817216 190.215866 
L 262.578125 190.215866 
L 262.578125 191.414439 
L 263.339034 191.414439 
L 263.339034 193.272227 
L 264.099943 193.272227 
L 264.099943 192.852726 
L 264.860852 192.852726 
L 264.860852 194.890301 
L 265.621761 194.890301 
L 265.621761 194.380907 
L 266.38267 194.380907 
L 266.38267 195.609445 
L 267.14358 195.609445 
L 267.14358 196.568303 
L 267.904489 196.568303 
L 267.904489 197.287447 
L 268.665398 197.287447 
L 268.665398 198.605877 
L 269.426307 198.605877 
L 269.426307 199.205164 
L 270.948125 199.1752 
L 270.948125 200.313844 
L 271.709034 200.313844 
L 271.709034 200.553559 
L 272.469943 200.553559 
L 272.469943 199.834415 
L 273.230852 199.834415 
L 273.230852 200.463666 
L 273.991761 200.463666 
L 273.991761 201.332631 
L 274.75267 201.332631 
L 274.75267 203.789706 
L 275.51358 203.789706 
L 275.51358 203.040598 
L 276.274489 203.040598 
L 276.274489 204.149278 
L 277.035398 204.149278 
L 277.035398 205.19803 
L 277.796307 205.19803 
L 277.796307 205.677459 
L 278.557216 205.677459 
L 278.557216 206.456531 
L 280.839943 206.396603 
L 280.839943 207.595176 
L 281.600852 207.595176 
L 281.600852 207.385426 
L 282.361761 207.385426 
L 282.361761 207.565212 
L 283.12267 207.565212 
L 283.12267 209.123357 
L 283.88358 209.123357 
L 283.88358 209.842501 
L 285.405398 209.872465 
L 285.405398 210.232037 
L 286.166307 210.232037 
L 286.166307 211.460574 
L 287.688125 211.550467 
L 287.688125 211.64036 
L 288.449034 211.64036 
L 288.449034 212.988755 
L 289.209943 212.988755 
L 289.209943 212.419433 
L 289.970852 212.419433 
L 289.970852 213.498149 
L 290.731761 213.498149 
L 290.731761 213.138577 
L 291.49267 213.138577 
L 291.49267 213.258434 
L 293.014489 213.198505 
L 293.014489 214.786615 
L 294.536307 214.816579 
L 294.536307 215.116222 
L 295.297216 215.116222 
L 295.297216 215.355937 
L 296.058125 215.355937 
L 296.058125 215.955224 
L 297.579943 215.865331 
L 297.579943 216.164974 
L 298.340852 216.164974 
L 298.340852 217.093868 
L 299.86267 217.183761 
L 299.86267 217.842976 
L 300.62358 217.842976 
L 300.62358 218.142619 
L 301.384489 218.142619 
L 301.384489 218.022762 
L 302.145398 218.022762 
L 302.145398 218.142619 
L 302.906307 218.142619 
L 302.906307 218.412298 
L 303.667216 218.412298 
L 303.667216 218.652013 
L 304.428125 218.652013 
L 304.428125 219.041549 
L 305.949943 219.071514 
L 305.949943 219.191371 
L 306.710852 219.191371 
L 306.710852 219.491014 
L 307.471761 219.491014 
L 307.471761 219.700765 
L 308.23267 219.700765 
L 308.23267 220.120265 
L 309.754489 220.060336 
L 309.754489 220.330015 
L 310.515398 220.330015 
L 310.515398 220.509801 
L 312.037216 220.599694 
L 312.037216 220.659623 
L 372.909943 220.749516 
L 372.909943 220.749516 
" clip-path="url(#p1f32f8ccfd)" style="fill: none; stroke: #2ca02c; stroke-width: 1.5; stroke-linecap: square"/>
   </g>
   <g id="patch_3">
    <path d="M 53.328125 230.829516 
L 53.328125 9.069516 
" style="fill: none; stroke: #000000; stroke-width: 0.8; stroke-linejoin: miter; stroke-linecap: square"/>
   </g>
   <g id="patch_4">
    <path d="M 388.128125 230.829516 
L 388.128125 9.069516 
" style="fill: none; stroke: #000000; stroke-width: 0.8; stroke-linejoin: miter; stroke-linecap: square"/>
   </g>
   <g id="patch_5">
    <path d="M 53.328125 230.829516 
L 388.128125 230.829516 
" style="fill: none; stroke: #000000; stroke-width: 0.8; stroke-linejoin: miter; stroke-linecap: square"/>
   </g>
   <g id="patch_6">
    <path d="M 53.328125 9.069516 
L 388.128125 9.069516 
" style="fill: none; stroke: #000000; stroke-width: 0.8; stroke-linejoin: miter; stroke-linecap: square"/>
   </g>
   <g id="legend_1">
    <g id="patch_7">
     <path d="M 306.904688 61.103891 
L 381.128125 61.103891 
Q 383.128125 61.103891 383.128125 59.103891 
L 383.128125 16.069516 
Q 383.128125 14.069516 381.128125 14.069516 
L 306.904688 14.069516 
Q 304.904688 14.069516 304.904688 16.069516 
L 304.904688 59.103891 
Q 304.904688 61.103891 306.904688 61.103891 
z
" style="fill: #ffffff; opacity: 0.8; stroke: #cccccc; stroke-linejoin: miter"/>
    </g>
    <g id="line2d_20">
     <path d="M 308.904688 22.167954 
L 308.904688 22.167954 
L 318.904688 22.167954 
L 318.904688 22.167954 
L 328.904688 22.167954 
" style="fill: none; stroke: #1f77b4; stroke-width: 1.5; stroke-linecap: square"/>
    </g>
    <g id="text_19">
     <!-- monitor -->
     <g transform="translate(336.904688 25.667954) scale(0.1 -0.1)">
      <defs>
       <path id="DejaVuSans-6d" d="M 3328 2828 
Q 3544 3216 3844 3400 
Q 4144 3584 4550 3584 
Q 5097 3584 5394 3201 
Q 5691 2819 5691 2113 
L 5691 0 
L 5113 0 
L 5113 2094 
Q 5113 2597 4934 2840 
Q 4756 3084 4391 3084 
Q 3944 3084 3684 2787 
Q 3425 2491 3425 1978 
L 3425 0 
L 2847 0 
L 2847 2094 
Q 2847 2600 2669 2842 
Q 2491 3084 2119 3084 
Q 1678 3084 1418 2786 
Q 1159 2488 1159 1978 
L 1159 0 
L 581 0 
L 581 3500 
L 1159 3500 
L 1159 2956 
Q 1356 3278 1631 3431 
Q 1906 3584 2284 3584 
Q 2666 3584 2933 3390 
Q 3200 3197 3328 2828 
z
" transform="scale(0.015625)"/>
       <path id="DejaVuSans-69" d="M 603 3500 
L 1178 3500 
L 1178 0 
L 603 0 
L 603 3500 
z
M 603 4863 
L 1178 4863 
L 1178 4134 
L 603 4134 
L 603 4863 
z
" transform="scale(0.015625)"/>
       <path id="DejaVuSans-72" d="M 2631 2963 
Q 2534 3019 2420 3045 
Q 2306 3072 2169 3072 
Q 1681 3072 1420 2755 
Q 1159 2438 1159 1844 
L 1159 0 
L 581 0 
L 581 3500 
L 1159 3500 
L 1159 2956 
Q 1341 3275 1631 3429 
Q 1922 3584 2338 3584 
Q 2397 3584 2469 3576 
Q 2541 3569 2628 3553 
L 2631 2963 
z
" transform="scale(0.015625)"/>
      </defs>
      <use xlink:href="#DejaVuSans-6d"/>
      <use xlink:href="#DejaVuSans-6f" transform="translate(97.412109 0)"/>
      <use xlink:href="#DejaVuSans-6e" transform="translate(158.59375 0)"/>
      <use xlink:href="#DejaVuSans-69" transform="translate(221.972656 0)"/>
      <use xlink:href="#DejaVuSans-74" transform="translate(249.755859 0)"/>
      <use xlink:href="#DejaVuSans-6f" transform="translate(288.964844 0)"/>
      <use xlink:href="#DejaVuSans-72" transform="translate(350.146484 0)"/>
     </g>
    </g>
    <g id="line2d_21">
     <path d="M 308.904688 36.846079 
L 308.904688 36.846079 
L 318.904688 36.846079 
L 318.904688 36.846079 
L 328.904688 36.846079 
" style="fill: none; stroke: #ff7f0e; stroke-width: 1.5; stroke-linecap: square"/>
    </g>
    <g id="text_20">
     <!-- detector -->
     <g transform="translate(336.904688 40.346079) scale(0.1 -0.1)">
      <defs>
       <path id="DejaVuSans-64" d="M 2906 2969 
L 2906 4863 
L 3481 4863 
L 3481 0 
L 2906 0 
L 2906 525 
Q 2725 213 2448 61 
Q 2172 -91 1784 -91 
Q 1150 -91 751 415 
Q 353 922 353 1747 
Q 353 2572 751 3078 
Q 1150 3584 1784 3584 
Q 2172 3584 2448 3432 
Q 2725 3281 2906 2969 
z
M 947 1747 
Q 947 1113 1208 752 
Q 1469 391 1925 391 
Q 2381 391 2643 752 
Q 2906 1113 2906 1747 
Q 2906 2381 2643 2742 
Q 2381 3103 1925 3103 
Q 1469 3103 1208 2742 
Q 947 2381 947 1747 
z
" transform="scale(0.015625)"/>
      </defs>
      <use xlink:href="#DejaVuSans-64"/>
      <use xlink:href="#DejaVuSans-65" transform="translate(63.476562 0)"/>
      <use xlink:href="#DejaVuSans-74" transform="translate(125 0)"/>
      <use xlink:href="#DejaVuSans-65" transform="translate(164.208984 0)"/>
      <use xlink:href="#DejaVuSans-63" transform="translate(225.732422 0)"/>
      <use xlink:href="#DejaVuSans-74" transform="translate(280.712891 0)"/>
      <use xlink:href="#DejaVuSans-6f" transform="translate(319.921875 0)"/>
      <use xlink:href="#DejaVuSans-72" transform="translate(381.103516 0)"/>
     </g>
    </g>
    <g id="line2d_22">
     <path d="M 308.904688 51.524204 
L 308.904688 51.524204 
L 318.904688 51.524204 
L 318.904688 51.524204 
L 328.904688 51.524204 
" style="fill: none; stroke: #2ca02c; stroke-width: 1.5; stroke-linecap: square"/>
    </g>
    <g id="text_21">
     <!-- true -->
     <g transform="translate(336.904688 55.024204) scale(0.1 -0.1)">
      <use xlink:href="#DejaVuSans-74"/>
      <use xlink:href="#DejaVuSans-72" transform="translate(39.208984 0)"/>
      <use xlink:href="#DejaVuSans-75" transform="translate(80.322266 0)"/>
      <use xlink:href="#DejaVuSans-65" transform="translate(143.701172 0)"/>
     </g>
    </g>
   </g>
  </g>
 </g>
 <defs>
  <clipPath id="p1f32f8ccfd">
   <rect x="53.328125" y="9.069516" width="334.8" height="221.76"/>
  </clipPath>
 </defs>
</svg>
