<?xml version="1.0" encoding="utf-8" standalone="no"?>
<!DOCTYPE svg PUBLIC "-//W3C//DTD SVG 1.1//EN"
  "http://www.w3.org/Graphics/SVG/1.1/DTD/svg11.dtd">
<svg xmlns:xlink="http://www.w3.org/1999/xlink" width="396.310413pt" height="266.51625pt" viewBox="0 0 396.310413 266.51625" xmlns="http://www.w3.org/2000/svg" version="1.1">
 <metadata>
  <rdf:RDF xmlns:dc="http://purl.org/dc/elements/1.1/" xmlns:cc="http://creativecommons.org/ns#" xmlns:rdf="http://www.w3.org/1999/02/22-rdf-syntax-ns#">
   <cc:Work>
    <dc:type rdf:resource="http://purl.org/dc/dcmitype/StillImage"/>
    <dc:date>2025-03-17T10:46:56.051098</dc:date>
    <dc:format>image/svg+xml</dc:format>
    <dc:creator>
     <cc:Agent>
      <dc:title>Matplotlib v3.10.0, https://matplotlib.org/</dc:title>
     </cc:Agent>
    </dc:creator>
   </cc:Work>
  </rdf:RDF>
 </metadata>
 <defs>
  <style type="text/css">*{stroke-linejoin: round; stroke-linecap: butt}</style>
 </defs>
 <g id="figure_1">
  <g id="patch_1">
   <path d="M 0 266.51625 
L 396.310413 266.51625 
L 396.310413 0 
L 0 0 
z
" style="fill: #ffffff"/>
  </g>
  <g id="axes_1">
   <g id="patch_2">
    <path d="M 46.965625 228.96 
L 381.765625 228.96 
L 381.765625 7.2 
L 46.965625 7.2 
z
" style="fill: #ffffff"/>
   </g>
   <g id="matplotlib.axis_1">
    <g id="xtick_1">
     <g id="line2d_1">
      <defs>
       <path id="m9e4a991a93" d="M 0 0 
L 0 3.5 
" style="stroke: #000000; stroke-width: 0.8"/>
      </defs>
      <g>
       <use xlink:href="#m9e4a991a93" x="71.727154" y="228.96" style="stroke: #000000; stroke-width: 0.8"/>
      </g>
     </g>
     <g id="text_1">
      <!-- 20000 -->
      <g transform="translate(55.820904 243.558437) scale(0.1 -0.1)">
       <defs>
        <path id="DejaVuSans-32" d="M 1228 531 
L 3431 531 
L 3431 0 
L 469 0 
L 469 531 
Q 828 903 1448 1529 
Q 2069 2156 2228 2338 
Q 2531 2678 2651 2914 
Q 2772 3150 2772 3378 
Q 2772 3750 2511 3984 
Q 2250 4219 1831 4219 
Q 1534 4219 1204 4116 
Q 875 4013 500 3803 
L 500 4441 
Q 881 4594 1212 4672 
Q 1544 4750 1819 4750 
Q 2544 4750 2975 4387 
Q 3406 4025 3406 3419 
Q 3406 3131 3298 2873 
Q 3191 2616 2906 2266 
Q 2828 2175 2409 1742 
Q 1991 1309 1228 531 
z
" transform="scale(0.015625)"/>
        <path id="DejaVuSans-30" d="M 2034 4250 
Q 1547 4250 1301 3770 
Q 1056 3291 1056 2328 
Q 1056 1369 1301 889 
Q 1547 409 2034 409 
Q 2525 409 2770 889 
Q 3016 1369 3016 2328 
Q 3016 3291 2770 3770 
Q 2525 4250 2034 4250 
z
M 2034 4750 
Q 2819 4750 3233 4129 
Q 3647 3509 3647 2328 
Q 3647 1150 3233 529 
Q 2819 -91 2034 -91 
Q 1250 -91 836 529 
Q 422 1150 422 2328 
Q 422 3509 836 4129 
Q 1250 4750 2034 4750 
z
" transform="scale(0.015625)"/>
       </defs>
       <use xlink:href="#DejaVuSans-32"/>
       <use xlink:href="#DejaVuSans-30" transform="translate(63.623047 0)"/>
       <use xlink:href="#DejaVuSans-30" transform="translate(127.246094 0)"/>
       <use xlink:href="#DejaVuSans-30" transform="translate(190.869141 0)"/>
       <use xlink:href="#DejaVuSans-30" transform="translate(254.492188 0)"/>
      </g>
     </g>
    </g>
    <g id="xtick_2">
     <g id="line2d_2">
      <g>
       <use xlink:href="#m9e4a991a93" x="114.795298" y="228.96" style="stroke: #000000; stroke-width: 0.8"/>
      </g>
     </g>
     <g id="text_2">
      <!-- 30000 -->
      <g transform="translate(98.889048 243.558437) scale(0.1 -0.1)">
       <defs>
        <path id="DejaVuSans-33" d="M 2597 2516 
Q 3050 2419 3304 2112 
Q 3559 1806 3559 1356 
Q 3559 666 3084 287 
Q 2609 -91 1734 -91 
Q 1441 -91 1130 -33 
Q 819 25 488 141 
L 488 750 
Q 750 597 1062 519 
Q 1375 441 1716 441 
Q 2309 441 2620 675 
Q 2931 909 2931 1356 
Q 2931 1769 2642 2001 
Q 2353 2234 1838 2234 
L 1294 2234 
L 1294 2753 
L 1863 2753 
Q 2328 2753 2575 2939 
Q 2822 3125 2822 3475 
Q 2822 3834 2567 4026 
Q 2313 4219 1838 4219 
Q 1578 4219 1281 4162 
Q 984 4106 628 3988 
L 628 4550 
Q 988 4650 1302 4700 
Q 1616 4750 1894 4750 
Q 2613 4750 3031 4423 
Q 3450 4097 3450 3541 
Q 3450 3153 3228 2886 
Q 3006 2619 2597 2516 
z
" transform="scale(0.015625)"/>
       </defs>
       <use xlink:href="#DejaVuSans-33"/>
       <use xlink:href="#DejaVuSans-30" transform="translate(63.623047 0)"/>
       <use xlink:href="#DejaVuSans-30" transform="translate(127.246094 0)"/>
       <use xlink:href="#DejaVuSans-30" transform="translate(190.869141 0)"/>
       <use xlink:href="#DejaVuSans-30" transform="translate(254.492188 0)"/>
      </g>
     </g>
    </g>
    <g id="xtick_3">
     <g id="line2d_3">
      <g>
       <use xlink:href="#m9e4a991a93" x="157.863442" y="228.96" style="stroke: #000000; stroke-width: 0.8"/>
      </g>
     </g>
     <g id="text_3">
      <!-- 40000 -->
      <g transform="translate(141.957192 243.558437) scale(0.1 -0.1)">
       <defs>
        <path id="DejaVuSans-34" d="M 2419 4116 
L 825 1625 
L 2419 1625 
L 2419 4116 
z
M 2253 4666 
L 3047 4666 
L 3047 1625 
L 3713 1625 
L 3713 1100 
L 3047 1100 
L 3047 0 
L 2419 0 
L 2419 1100 
L 313 1100 
L 313 1709 
L 2253 4666 
z
" transform="scale(0.015625)"/>
       </defs>
       <use xlink:href="#DejaVuSans-34"/>
       <use xlink:href="#DejaVuSans-30" transform="translate(63.623047 0)"/>
       <use xlink:href="#DejaVuSans-30" transform="translate(127.246094 0)"/>
       <use xlink:href="#DejaVuSans-30" transform="translate(190.869141 0)"/>
       <use xlink:href="#DejaVuSans-30" transform="translate(254.492188 0)"/>
      </g>
     </g>
    </g>
    <g id="xtick_4">
     <g id="line2d_4">
      <g>
       <use xlink:href="#m9e4a991a93" x="200.931586" y="228.96" style="stroke: #000000; stroke-width: 0.8"/>
      </g>
     </g>
     <g id="text_4">
      <!-- 50000 -->
      <g transform="translate(185.025336 243.558437) scale(0.1 -0.1)">
       <defs>
        <path id="DejaVuSans-35" d="M 691 4666 
L 3169 4666 
L 3169 4134 
L 1269 4134 
L 1269 2991 
Q 1406 3038 1543 3061 
Q 1681 3084 1819 3084 
Q 2600 3084 3056 2656 
Q 3513 2228 3513 1497 
Q 3513 744 3044 326 
Q 2575 -91 1722 -91 
Q 1428 -91 1123 -41 
Q 819 9 494 109 
L 494 744 
Q 775 591 1075 516 
Q 1375 441 1709 441 
Q 2250 441 2565 725 
Q 2881 1009 2881 1497 
Q 2881 1984 2565 2268 
Q 2250 2553 1709 2553 
Q 1456 2553 1204 2497 
Q 953 2441 691 2322 
L 691 4666 
z
" transform="scale(0.015625)"/>
       </defs>
       <use xlink:href="#DejaVuSans-35"/>
       <use xlink:href="#DejaVuSans-30" transform="translate(63.623047 0)"/>
       <use xlink:href="#DejaVuSans-30" transform="translate(127.246094 0)"/>
       <use xlink:href="#DejaVuSans-30" transform="translate(190.869141 0)"/>
       <use xlink:href="#DejaVuSans-30" transform="translate(254.492188 0)"/>
      </g>
     </g>
    </g>
    <g id="xtick_5">
     <g id="line2d_5">
      <g>
       <use xlink:href="#m9e4a991a93" x="243.999731" y="228.96" style="stroke: #000000; stroke-width: 0.8"/>
      </g>
     </g>
     <g id="text_5">
      <!-- 60000 -->
      <g transform="translate(228.093481 243.558437) scale(0.1 -0.1)">
       <defs>
        <path id="DejaVuSans-36" d="M 2113 2584 
Q 1688 2584 1439 2293 
Q 1191 2003 1191 1497 
Q 1191 994 1439 701 
Q 1688 409 2113 409 
Q 2538 409 2786 701 
Q 3034 994 3034 1497 
Q 3034 2003 2786 2293 
Q 2538 2584 2113 2584 
z
M 3366 4563 
L 3366 3988 
Q 3128 4100 2886 4159 
Q 2644 4219 2406 4219 
Q 1781 4219 1451 3797 
Q 1122 3375 1075 2522 
Q 1259 2794 1537 2939 
Q 1816 3084 2150 3084 
Q 2853 3084 3261 2657 
Q 3669 2231 3669 1497 
Q 3669 778 3244 343 
Q 2819 -91 2113 -91 
Q 1303 -91 875 529 
Q 447 1150 447 2328 
Q 447 3434 972 4092 
Q 1497 4750 2381 4750 
Q 2619 4750 2861 4703 
Q 3103 4656 3366 4563 
z
" transform="scale(0.015625)"/>
       </defs>
       <use xlink:href="#DejaVuSans-36"/>
       <use xlink:href="#DejaVuSans-30" transform="translate(63.623047 0)"/>
       <use xlink:href="#DejaVuSans-30" transform="translate(127.246094 0)"/>
       <use xlink:href="#DejaVuSans-30" transform="translate(190.869141 0)"/>
       <use xlink:href="#DejaVuSans-30" transform="translate(254.492188 0)"/>
      </g>
     </g>
    </g>
    <g id="xtick_6">
     <g id="line2d_6">
      <g>
       <use xlink:href="#m9e4a991a93" x="287.067875" y="228.96" style="stroke: #000000; stroke-width: 0.8"/>
      </g>
     </g>
     <g id="text_6">
      <!-- 70000 -->
      <g transform="translate(271.161625 243.558437) scale(0.1 -0.1)">
       <defs>
        <path id="DejaVuSans-37" d="M 525 4666 
L 3525 4666 
L 3525 4397 
L 1831 0 
L 1172 0 
L 2766 4134 
L 525 4134 
L 525 4666 
z
" transform="scale(0.015625)"/>
       </defs>
       <use xlink:href="#DejaVuSans-37"/>
       <use xlink:href="#DejaVuSans-30" transform="translate(63.623047 0)"/>
       <use xlink:href="#DejaVuSans-30" transform="translate(127.246094 0)"/>
       <use xlink:href="#DejaVuSans-30" transform="translate(190.869141 0)"/>
       <use xlink:href="#DejaVuSans-30" transform="translate(254.492188 0)"/>
      </g>
     </g>
    </g>
    <g id="xtick_7">
     <g id="line2d_7">
      <g>
       <use xlink:href="#m9e4a991a93" x="330.136019" y="228.96" style="stroke: #000000; stroke-width: 0.8"/>
      </g>
     </g>
     <g id="text_7">
      <!-- 80000 -->
      <g transform="translate(314.229769 243.558437) scale(0.1 -0.1)">
       <defs>
        <path id="DejaVuSans-38" d="M 2034 2216 
Q 1584 2216 1326 1975 
Q 1069 1734 1069 1313 
Q 1069 891 1326 650 
Q 1584 409 2034 409 
Q 2484 409 2743 651 
Q 3003 894 3003 1313 
Q 3003 1734 2745 1975 
Q 2488 2216 2034 2216 
z
M 1403 2484 
Q 997 2584 770 2862 
Q 544 3141 544 3541 
Q 544 4100 942 4425 
Q 1341 4750 2034 4750 
Q 2731 4750 3128 4425 
Q 3525 4100 3525 3541 
Q 3525 3141 3298 2862 
Q 3072 2584 2669 2484 
Q 3125 2378 3379 2068 
Q 3634 1759 3634 1313 
Q 3634 634 3220 271 
Q 2806 -91 2034 -91 
Q 1263 -91 848 271 
Q 434 634 434 1313 
Q 434 1759 690 2068 
Q 947 2378 1403 2484 
z
M 1172 3481 
Q 1172 3119 1398 2916 
Q 1625 2713 2034 2713 
Q 2441 2713 2670 2916 
Q 2900 3119 2900 3481 
Q 2900 3844 2670 4047 
Q 2441 4250 2034 4250 
Q 1625 4250 1398 4047 
Q 1172 3844 1172 3481 
z
" transform="scale(0.015625)"/>
       </defs>
       <use xlink:href="#DejaVuSans-38"/>
       <use xlink:href="#DejaVuSans-30" transform="translate(63.623047 0)"/>
       <use xlink:href="#DejaVuSans-30" transform="translate(127.246094 0)"/>
       <use xlink:href="#DejaVuSans-30" transform="translate(190.869141 0)"/>
       <use xlink:href="#DejaVuSans-30" transform="translate(254.492188 0)"/>
      </g>
     </g>
    </g>
    <g id="xtick_8">
     <g id="line2d_8">
      <g>
       <use xlink:href="#m9e4a991a93" x="373.204163" y="228.96" style="stroke: #000000; stroke-width: 0.8"/>
      </g>
     </g>
     <g id="text_8">
      <!-- 90000 -->
      <g transform="translate(357.297913 243.558437) scale(0.1 -0.1)">
       <defs>
        <path id="DejaVuSans-39" d="M 703 97 
L 703 672 
Q 941 559 1184 500 
Q 1428 441 1663 441 
Q 2288 441 2617 861 
Q 2947 1281 2994 2138 
Q 2813 1869 2534 1725 
Q 2256 1581 1919 1581 
Q 1219 1581 811 2004 
Q 403 2428 403 3163 
Q 403 3881 828 4315 
Q 1253 4750 1959 4750 
Q 2769 4750 3195 4129 
Q 3622 3509 3622 2328 
Q 3622 1225 3098 567 
Q 2575 -91 1691 -91 
Q 1453 -91 1209 -44 
Q 966 3 703 97 
z
M 1959 2075 
Q 2384 2075 2632 2365 
Q 2881 2656 2881 3163 
Q 2881 3666 2632 3958 
Q 2384 4250 1959 4250 
Q 1534 4250 1286 3958 
Q 1038 3666 1038 3163 
Q 1038 2656 1286 2365 
Q 1534 2075 1959 2075 
z
" transform="scale(0.015625)"/>
       </defs>
       <use xlink:href="#DejaVuSans-39"/>
       <use xlink:href="#DejaVuSans-30" transform="translate(63.623047 0)"/>
       <use xlink:href="#DejaVuSans-30" transform="translate(127.246094 0)"/>
       <use xlink:href="#DejaVuSans-30" transform="translate(190.869141 0)"/>
       <use xlink:href="#DejaVuSans-30" transform="translate(254.492188 0)"/>
      </g>
     </g>
    </g>
    <g id="text_9">
     <!-- tof [µs] -->
     <g transform="translate(196.309375 257.236562) scale(0.1 -0.1)">
      <defs>
       <path id="DejaVuSans-74" d="M 1172 4494 
L 1172 3500 
L 2356 3500 
L 2356 3053 
L 1172 3053 
L 1172 1153 
Q 1172 725 1289 603 
Q 1406 481 1766 481 
L 2356 481 
L 2356 0 
L 1766 0 
Q 1100 0 847 248 
Q 594 497 594 1153 
L 594 3053 
L 172 3053 
L 172 3500 
L 594 3500 
L 594 4494 
L 1172 4494 
z
" transform="scale(0.015625)"/>
       <path id="DejaVuSans-6f" d="M 1959 3097 
Q 1497 3097 1228 2736 
Q 959 2375 959 1747 
Q 959 1119 1226 758 
Q 1494 397 1959 397 
Q 2419 397 2687 759 
Q 2956 1122 2956 1747 
Q 2956 2369 2687 2733 
Q 2419 3097 1959 3097 
z
M 1959 3584 
Q 2709 3584 3137 3096 
Q 3566 2609 3566 1747 
Q 3566 888 3137 398 
Q 2709 -91 1959 -91 
Q 1206 -91 779 398 
Q 353 888 353 1747 
Q 353 2609 779 3096 
Q 1206 3584 1959 3584 
z
" transform="scale(0.015625)"/>
       <path id="DejaVuSans-66" d="M 2375 4863 
L 2375 4384 
L 1825 4384 
Q 1516 4384 1395 4259 
Q 1275 4134 1275 3809 
L 1275 3500 
L 2222 3500 
L 2222 3053 
L 1275 3053 
L 1275 0 
L 697 0 
L 697 3053 
L 147 3053 
L 147 3500 
L 697 3500 
L 697 3744 
Q 697 4328 969 4595 
Q 1241 4863 1831 4863 
L 2375 4863 
z
" transform="scale(0.015625)"/>
       <path id="DejaVuSans-20" transform="scale(0.015625)"/>
       <path id="DejaVuSans-5b" d="M 550 4863 
L 1875 4863 
L 1875 4416 
L 1125 4416 
L 1125 -397 
L 1875 -397 
L 1875 -844 
L 550 -844 
L 550 4863 
z
" transform="scale(0.015625)"/>
       <path id="DejaVuSans-b5" d="M 544 -1331 
L 544 3500 
L 1119 3500 
L 1119 1325 
Q 1119 872 1334 640 
Q 1550 409 1972 409 
Q 2434 409 2667 671 
Q 2900 934 2900 1459 
L 2900 3500 
L 3475 3500 
L 3475 806 
Q 3475 619 3529 530 
Q 3584 441 3700 441 
Q 3728 441 3778 458 
Q 3828 475 3916 513 
L 3916 50 
Q 3788 -22 3673 -56 
Q 3559 -91 3450 -91 
Q 3234 -91 3106 31 
Q 2978 153 2931 403 
Q 2775 156 2548 32 
Q 2322 -91 2016 -91 
Q 1697 -91 1473 31 
Q 1250 153 1119 397 
L 1119 -1331 
L 544 -1331 
z
" transform="scale(0.015625)"/>
       <path id="DejaVuSans-73" d="M 2834 3397 
L 2834 2853 
Q 2591 2978 2328 3040 
Q 2066 3103 1784 3103 
Q 1356 3103 1142 2972 
Q 928 2841 928 2578 
Q 928 2378 1081 2264 
Q 1234 2150 1697 2047 
L 1894 2003 
Q 2506 1872 2764 1633 
Q 3022 1394 3022 966 
Q 3022 478 2636 193 
Q 2250 -91 1575 -91 
Q 1294 -91 989 -36 
Q 684 19 347 128 
L 347 722 
Q 666 556 975 473 
Q 1284 391 1588 391 
Q 1994 391 2212 530 
Q 2431 669 2431 922 
Q 2431 1156 2273 1281 
Q 2116 1406 1581 1522 
L 1381 1569 
Q 847 1681 609 1914 
Q 372 2147 372 2553 
Q 372 3047 722 3315 
Q 1072 3584 1716 3584 
Q 2034 3584 2315 3537 
Q 2597 3491 2834 3397 
z
" transform="scale(0.015625)"/>
       <path id="DejaVuSans-5d" d="M 1947 4863 
L 1947 -844 
L 622 -844 
L 622 -397 
L 1369 -397 
L 1369 4416 
L 622 4416 
L 622 4863 
L 1947 4863 
z
" transform="scale(0.015625)"/>
      </defs>
      <use xlink:href="#DejaVuSans-74"/>
      <use xlink:href="#DejaVuSans-6f" transform="translate(39.208984 0)"/>
      <use xlink:href="#DejaVuSans-66" transform="translate(100.390625 0)"/>
      <use xlink:href="#DejaVuSans-20" transform="translate(135.595703 0)"/>
      <use xlink:href="#DejaVuSans-5b" transform="translate(167.382812 0)"/>
      <use xlink:href="#DejaVuSans-b5" transform="translate(206.396484 0)"/>
      <use xlink:href="#DejaVuSans-73" transform="translate(270.019531 0)"/>
      <use xlink:href="#DejaVuSans-5d" transform="translate(322.119141 0)"/>
     </g>
    </g>
   </g>
   <g id="matplotlib.axis_2">
    <g id="ytick_1">
     <g id="line2d_9">
      <defs>
       <path id="m2be53f5170" d="M 0 0 
L -3.5 0 
" style="stroke: #000000; stroke-width: 0.8"/>
      </defs>
      <g>
       <use xlink:href="#m2be53f5170" x="46.965625" y="219.650937" style="stroke: #000000; stroke-width: 0.8"/>
      </g>
     </g>
     <g id="text_10">
      <!-- 0 -->
      <g transform="translate(33.603125 223.450156) scale(0.1 -0.1)">
       <use xlink:href="#DejaVuSans-30"/>
      </g>
     </g>
    </g>
    <g id="ytick_2">
     <g id="line2d_10">
      <g>
       <use xlink:href="#m2be53f5170" x="46.965625" y="181.104092" style="stroke: #000000; stroke-width: 0.8"/>
      </g>
     </g>
     <g id="text_11">
      <!-- 100 -->
      <g transform="translate(20.878125 184.903311) scale(0.1 -0.1)">
       <defs>
        <path id="DejaVuSans-31" d="M 794 531 
L 1825 531 
L 1825 4091 
L 703 3866 
L 703 4441 
L 1819 4666 
L 2450 4666 
L 2450 531 
L 3481 531 
L 3481 0 
L 794 0 
L 794 531 
z
" transform="scale(0.015625)"/>
       </defs>
       <use xlink:href="#DejaVuSans-31"/>
       <use xlink:href="#DejaVuSans-30" transform="translate(63.623047 0)"/>
       <use xlink:href="#DejaVuSans-30" transform="translate(127.246094 0)"/>
      </g>
     </g>
    </g>
    <g id="ytick_3">
     <g id="line2d_11">
      <g>
       <use xlink:href="#m2be53f5170" x="46.965625" y="142.557247" style="stroke: #000000; stroke-width: 0.8"/>
      </g>
     </g>
     <g id="text_12">
      <!-- 200 -->
      <g transform="translate(20.878125 146.356465) scale(0.1 -0.1)">
       <use xlink:href="#DejaVuSans-32"/>
       <use xlink:href="#DejaVuSans-30" transform="translate(63.623047 0)"/>
       <use xlink:href="#DejaVuSans-30" transform="translate(127.246094 0)"/>
      </g>
     </g>
    </g>
    <g id="ytick_4">
     <g id="line2d_12">
      <g>
       <use xlink:href="#m2be53f5170" x="46.965625" y="104.010402" style="stroke: #000000; stroke-width: 0.8"/>
      </g>
     </g>
     <g id="text_13">
      <!-- 300 -->
      <g transform="translate(20.878125 107.80962) scale(0.1 -0.1)">
       <use xlink:href="#DejaVuSans-33"/>
       <use xlink:href="#DejaVuSans-30" transform="translate(63.623047 0)"/>
       <use xlink:href="#DejaVuSans-30" transform="translate(127.246094 0)"/>
      </g>
     </g>
    </g>
    <g id="ytick_5">
     <g id="line2d_13">
      <g>
       <use xlink:href="#m2be53f5170" x="46.965625" y="65.463556" style="stroke: #000000; stroke-width: 0.8"/>
      </g>
     </g>
     <g id="text_14">
      <!-- 400 -->
      <g transform="translate(20.878125 69.262775) scale(0.1 -0.1)">
       <use xlink:href="#DejaVuSans-34"/>
       <use xlink:href="#DejaVuSans-30" transform="translate(63.623047 0)"/>
       <use xlink:href="#DejaVuSans-30" transform="translate(127.246094 0)"/>
      </g>
     </g>
    </g>
    <g id="ytick_6">
     <g id="line2d_14">
      <g>
       <use xlink:href="#m2be53f5170" x="46.965625" y="26.916711" style="stroke: #000000; stroke-width: 0.8"/>
      </g>
     </g>
     <g id="text_15">
      <!-- 500 -->
      <g transform="translate(20.878125 30.71593) scale(0.1 -0.1)">
       <use xlink:href="#DejaVuSans-35"/>
       <use xlink:href="#DejaVuSans-30" transform="translate(63.623047 0)"/>
       <use xlink:href="#DejaVuSans-30" transform="translate(127.246094 0)"/>
      </g>
     </g>
    </g>
    <g id="text_16">
     <!-- [counts] -->
     <g transform="translate(14.798438 138.6925) rotate(-90) scale(0.1 -0.1)">
      <defs>
       <path id="DejaVuSans-63" d="M 3122 3366 
L 3122 2828 
Q 2878 2963 2633 3030 
Q 2388 3097 2138 3097 
Q 1578 3097 1268 2742 
Q 959 2388 959 1747 
Q 959 1106 1268 751 
Q 1578 397 2138 397 
Q 2388 397 2633 464 
Q 2878 531 3122 666 
L 3122 134 
Q 2881 22 2623 -34 
Q 2366 -91 2075 -91 
Q 1284 -91 818 406 
Q 353 903 353 1747 
Q 353 2603 823 3093 
Q 1294 3584 2113 3584 
Q 2378 3584 2631 3529 
Q 2884 3475 3122 3366 
z
" transform="scale(0.015625)"/>
       <path id="DejaVuSans-75" d="M 544 1381 
L 544 3500 
L 1119 3500 
L 1119 1403 
Q 1119 906 1312 657 
Q 1506 409 1894 409 
Q 2359 409 2629 706 
Q 2900 1003 2900 1516 
L 2900 3500 
L 3475 3500 
L 3475 0 
L 2900 0 
L 2900 538 
Q 2691 219 2414 64 
Q 2138 -91 1772 -91 
Q 1169 -91 856 284 
Q 544 659 544 1381 
z
M 1991 3584 
L 1991 3584 
z
" transform="scale(0.015625)"/>
       <path id="DejaVuSans-6e" d="M 3513 2113 
L 3513 0 
L 2938 0 
L 2938 2094 
Q 2938 2591 2744 2837 
Q 2550 3084 2163 3084 
Q 1697 3084 1428 2787 
Q 1159 2491 1159 1978 
L 1159 0 
L 581 0 
L 581 3500 
L 1159 3500 
L 1159 2956 
Q 1366 3272 1645 3428 
Q 1925 3584 2291 3584 
Q 2894 3584 3203 3211 
Q 3513 2838 3513 2113 
z
" transform="scale(0.015625)"/>
      </defs>
      <use xlink:href="#DejaVuSans-5b"/>
      <use xlink:href="#DejaVuSans-63" transform="translate(39.013672 0)"/>
      <use xlink:href="#DejaVuSans-6f" transform="translate(93.994141 0)"/>
      <use xlink:href="#DejaVuSans-75" transform="translate(155.175781 0)"/>
      <use xlink:href="#DejaVuSans-6e" transform="translate(218.554688 0)"/>
      <use xlink:href="#DejaVuSans-74" transform="translate(281.933594 0)"/>
      <use xlink:href="#DejaVuSans-73" transform="translate(321.142578 0)"/>
      <use xlink:href="#DejaVuSans-5d" transform="translate(373.242188 0)"/>
     </g>
    </g>
   </g>
   <g id="patch_3">
    <path d="M 46.965625 228.96 
L 46.965625 7.2 
" style="fill: none; stroke: #000000; stroke-width: 0.8; stroke-linejoin: miter; stroke-linecap: square"/>
   </g>
   <g id="patch_4">
    <path d="M 381.765625 228.96 
L 381.765625 7.2 
" style="fill: none; stroke: #000000; stroke-width: 0.8; stroke-linejoin: miter; stroke-linecap: square"/>
   </g>
   <g id="patch_5">
    <path d="M 46.965625 228.96 
L 381.765625 228.96 
" style="fill: none; stroke: #000000; stroke-width: 0.8; stroke-linejoin: miter; stroke-linecap: square"/>
   </g>
   <g id="patch_6">
    <path d="M 46.965625 7.2 
L 381.765625 7.2 
" style="fill: none; stroke: #000000; stroke-width: 0.8; stroke-linejoin: miter; stroke-linecap: square"/>
   </g>
   <g id="line2d_15">
    <path d="M 62.183807 216.181721 
L 63.198352 216.181721 
L 63.198352 209.243289 
L 64.212898 209.243289 
L 64.212898 205.774073 
L 65.227443 205.774073 
L 65.227443 206.159541 
L 66.241989 206.159541 
L 66.241989 195.751893 
L 67.256534 195.751893 
L 67.256534 191.126272 
L 68.27108 191.126272 
L 68.27108 187.271587 
L 69.285625 187.271587 
L 69.285625 188.427992 
L 70.30017 188.427992 
L 70.30017 181.48956 
L 71.314716 181.48956 
L 71.314716 171.46738 
L 72.329261 171.46738 
L 72.329261 163.372543 
L 73.343807 163.372543 
L 73.343807 164.914417 
L 74.358352 164.914417 
L 74.358352 158.361453 
L 75.372898 158.361453 
L 75.372898 150.652084 
L 76.387443 150.652084 
L 76.387443 152.193958 
L 77.401989 152.193958 
L 77.401989 147.953805 
L 78.416534 147.953805 
L 78.416534 134.462409 
L 79.43108 134.462409 
L 79.43108 144.484589 
L 80.445625 144.484589 
L 80.445625 135.618815 
L 81.46017 135.618815 
L 81.46017 116.345392 
L 83.489261 116.345392 
L 83.489261 109.792428 
L 84.503807 109.792428 
L 84.503807 110.563365 
L 85.518352 110.563365 
L 85.518352 104.010402 
L 86.532898 104.010402 
L 86.532898 115.188987 
L 87.547443 115.188987 
L 87.547443 103.624933 
L 88.561989 103.624933 
L 88.561989 105.552275 
L 89.576534 105.552275 
L 89.576534 95.915564 
L 90.59108 95.915564 
L 90.59108 61.608872 
L 91.605625 61.608872 
L 91.605625 78.569484 
L 92.62017 78.569484 
L 92.62017 83.966042 
L 93.634716 83.966042 
L 93.634716 83.580574 
L 94.649261 83.580574 
L 94.649261 71.245583 
L 95.663807 71.245583 
L 95.663807 92.446348 
L 96.678352 92.446348 
L 96.678352 72.01652 
L 97.692898 72.01652 
L 97.692898 73.172925 
L 98.707443 73.172925 
L 98.707443 61.223403 
L 99.721989 61.223403 
L 99.721989 70.089178 
L 100.736534 70.089178 
L 100.736534 49.65935 
L 101.75108 49.65935 
L 101.75108 54.67044 
L 102.765625 54.67044 
L 102.765625 48.117476 
L 103.78017 48.117476 
L 103.78017 43.877323 
L 104.794716 43.877323 
L 104.794716 44.262792 
L 105.809261 44.262792 
L 105.809261 60.452467 
L 106.823807 60.452467 
L 106.823807 35.782486 
L 107.838352 35.782486 
L 107.838352 33.084207 
L 108.852898 33.084207 
L 108.852898 38.866233 
L 109.867443 38.866233 
L 109.867443 45.804665 
L 110.881989 45.804665 
L 110.881989 40.022639 
L 111.896534 40.022639 
L 111.896534 27.30218 
L 112.91108 27.30218 
L 112.91108 38.480765 
L 113.925625 38.480765 
L 113.925625 17.28 
L 114.94017 17.28 
L 114.94017 23.447495 
L 115.954716 23.447495 
L 115.954716 36.553423 
L 116.969261 36.553423 
L 116.969261 47.732008 
L 117.983807 47.732008 
L 117.983807 47.346539 
L 118.998352 47.346539 
L 118.998352 44.64826 
L 120.012898 44.64826 
L 120.012898 34.240612 
L 121.027443 34.240612 
L 121.027443 28.458585 
L 123.056534 28.458585 
L 123.056534 44.262792 
L 124.07108 44.262792 
L 124.07108 34.62608 
L 125.085625 34.62608 
L 125.085625 67.00543 
L 126.10017 67.00543 
L 126.10017 37.324359 
L 127.114716 37.324359 
L 127.114716 66.234493 
L 128.129261 66.234493 
L 128.129261 44.64826 
L 129.143807 44.64826 
L 129.143807 56.597782 
L 130.158352 56.597782 
L 130.158352 49.273881 
L 131.172898 49.273881 
L 131.172898 56.597782 
L 132.187443 56.597782 
L 132.187443 76.256673 
L 133.201989 76.256673 
L 133.201989 43.877323 
L 134.216534 43.877323 
L 134.216534 79.725889 
L 135.23108 79.725889 
L 135.23108 68.932772 
L 136.245625 68.932772 
L 136.245625 53.899503 
L 137.26017 53.899503 
L 137.26017 75.485736 
L 138.274716 75.485736 
L 138.274716 67.776367 
L 139.289261 67.776367 
L 139.289261 70.474646 
L 140.303807 70.474646 
L 140.303807 65.849025 
L 141.318352 65.849025 
L 141.318352 55.441377 
L 142.332898 55.441377 
L 142.332898 66.234493 
L 143.347443 66.234493 
L 143.347443 60.837935 
L 144.361989 60.837935 
L 144.361989 62.379809 
L 145.376534 62.379809 
L 145.376534 56.212314 
L 146.39108 56.212314 
L 146.39108 62.379809 
L 147.405625 62.379809 
L 147.405625 67.390899 
L 148.42017 67.390899 
L 148.42017 64.69262 
L 149.434716 64.69262 
L 149.434716 66.234493 
L 150.449261 66.234493 
L 150.449261 83.580574 
L 151.463807 83.580574 
L 151.463807 70.860115 
L 152.478352 70.860115 
L 152.478352 68.161836 
L 153.492898 68.161836 
L 153.492898 77.02761 
L 154.507443 77.02761 
L 154.507443 73.943862 
L 155.521989 73.943862 
L 155.521989 65.849025 
L 156.536534 65.849025 
L 156.536534 72.01652 
L 157.55108 72.01652 
L 157.55108 65.849025 
L 159.58017 65.849025 
L 159.58017 66.234493 
L 160.594716 66.234493 
L 160.594716 80.111358 
L 161.609261 80.111358 
L 161.609261 78.954952 
L 162.623807 78.954952 
L 162.623807 74.329331 
L 163.638352 74.329331 
L 163.638352 86.278853 
L 164.652898 86.278853 
L 164.652898 78.184015 
L 165.667443 78.184015 
L 165.667443 61.99434 
L 166.681989 61.99434 
L 166.681989 71.245583 
L 167.696534 71.245583 
L 167.696534 84.736979 
L 168.71108 84.736979 
L 168.71108 70.089178 
L 169.725625 70.089178 
L 169.725625 89.3626 
L 170.74017 89.3626 
L 170.74017 86.278853 
L 171.754716 86.278853 
L 171.754716 82.424168 
L 172.769261 82.424168 
L 172.769261 80.882294 
L 173.783807 80.882294 
L 173.783807 75.100268 
L 174.798352 75.100268 
L 174.798352 103.239465 
L 175.812898 103.239465 
L 175.812898 93.988222 
L 176.827443 93.988222 
L 176.827443 106.323212 
L 177.841989 106.323212 
L 177.841989 94.37369 
L 178.856534 94.37369 
L 178.856534 87.04979 
L 179.87108 87.04979 
L 179.87108 100.541185 
L 181.90017 100.541185 
L 181.90017 105.937744 
L 182.914716 105.937744 
L 182.914716 119.814608 
L 183.929261 119.814608 
L 183.929261 114.803518 
L 184.943807 114.803518 
L 184.943807 118.658203 
L 185.958352 118.658203 
L 185.958352 126.75304 
L 186.972898 126.75304 
L 186.972898 124.440229 
L 187.987443 124.440229 
L 187.987443 136.004283 
L 189.001989 136.004283 
L 189.001989 139.088031 
L 190.016534 139.088031 
L 190.016534 146.411931 
L 191.03108 146.411931 
L 191.03108 151.037553 
L 192.045625 151.037553 
L 192.045625 142.557247 
L 193.06017 142.557247 
L 193.06017 165.685354 
L 194.074716 165.685354 
L 194.074716 164.14348 
L 195.089261 164.14348 
L 195.089261 173.009254 
L 196.103807 173.009254 
L 196.103807 180.718623 
L 197.118352 180.718623 
L 197.118352 170.696444 
L 198.132898 170.696444 
L 198.132898 171.46738 
L 199.147443 171.46738 
L 199.147443 183.416902 
L 200.161989 183.416902 
L 200.161989 189.584398 
L 202.19108 189.584398 
L 202.19108 196.52283 
L 204.22017 196.52283 
L 204.22017 203.461262 
L 205.234716 203.461262 
L 205.234716 208.472352 
L 206.249261 208.472352 
L 206.249261 211.556099 
L 207.263807 211.556099 
L 207.263807 213.097973 
L 208.278352 213.097973 
L 208.278352 211.941568 
L 209.292898 211.941568 
L 209.292898 216.181721 
L 210.307443 216.181721 
L 210.307443 218.109063 
L 211.321989 218.109063 
L 211.321989 216.567189 
L 212.336534 216.567189 
L 212.336534 214.639847 
L 213.35108 214.639847 
L 213.35108 213.483442 
L 214.365625 213.483442 
L 214.365625 206.159541 
L 215.38017 206.159541 
L 215.38017 198.835641 
L 216.394716 198.835641 
L 216.394716 196.908298 
L 217.409261 196.908298 
L 217.409261 199.221109 
L 218.423807 199.221109 
L 218.423807 190.355335 
L 219.438352 190.355335 
L 219.438352 177.249407 
L 220.452898 177.249407 
L 220.452898 188.813461 
L 221.467443 188.813461 
L 221.467443 182.645966 
L 222.481989 182.645966 
L 222.481989 176.47847 
L 224.51108 176.47847 
L 224.51108 170.310975 
L 225.525625 170.310975 
L 225.525625 168.769101 
L 226.54017 168.769101 
L 226.54017 167.998164 
L 227.554716 167.998164 
L 227.554716 159.13239 
L 228.569261 159.13239 
L 228.569261 161.059732 
L 229.583807 161.059732 
L 229.583807 153.350363 
L 230.598352 153.350363 
L 230.598352 149.495679 
L 231.612898 149.495679 
L 231.612898 145.255526 
L 232.627443 145.255526 
L 232.627443 146.026463 
L 233.641989 146.026463 
L 233.641989 160.674264 
L 234.656534 160.674264 
L 234.656534 141.015373 
L 235.67108 141.015373 
L 235.67108 141.78631 
L 236.685625 141.78631 
L 236.685625 141.400841 
L 237.70017 141.400841 
L 237.70017 138.317094 
L 238.714716 138.317094 
L 238.714716 144.09912 
L 239.729261 144.09912 
L 239.729261 122.512887 
L 240.743807 122.512887 
L 240.743807 132.149598 
L 241.758352 132.149598 
L 241.758352 132.920535 
L 242.772898 132.920535 
L 242.772898 114.032581 
L 243.787443 114.032581 
L 243.787443 119.42914 
L 244.801989 119.42914 
L 244.801989 121.74195 
L 245.816534 121.74195 
L 245.816534 113.261644 
L 246.83108 113.261644 
L 246.83108 108.250554 
L 247.845625 108.250554 
L 247.845625 100.155717 
L 248.86017 100.155717 
L 248.86017 102.468528 
L 249.874716 102.468528 
L 249.874716 106.323212 
L 250.889261 106.323212 
L 250.889261 109.40696 
L 251.903807 109.40696 
L 251.903807 105.166807 
L 252.918352 105.166807 
L 252.918352 98.999312 
L 253.932898 98.999312 
L 253.932898 82.0387 
L 254.947443 82.0387 
L 254.947443 113.261644 
L 255.961989 113.261644 
L 255.961989 102.853996 
L 256.976534 102.853996 
L 256.976534 96.686501 
L 257.99108 96.686501 
L 257.99108 86.664321 
L 259.005625 86.664321 
L 259.005625 78.184015 
L 260.02017 78.184015 
L 260.02017 91.289943 
L 261.034716 91.289943 
L 261.034716 90.133537 
L 262.049261 90.133537 
L 262.049261 89.3626 
L 263.063807 89.3626 
L 263.063807 77.413078 
L 264.078352 77.413078 
L 264.078352 96.301033 
L 265.092898 96.301033 
L 265.092898 87.435258 
L 266.107443 87.435258 
L 266.107443 93.988222 
L 267.121989 93.988222 
L 267.121989 95.915564 
L 268.136534 95.915564 
L 268.136534 103.624933 
L 269.15108 103.624933 
L 269.15108 105.937744 
L 270.165625 105.937744 
L 270.165625 114.803518 
L 271.18017 114.803518 
L 271.18017 97.457438 
L 272.194716 97.457438 
L 272.194716 90.133537 
L 273.209261 90.133537 
L 273.209261 98.613843 
L 274.223807 98.613843 
L 274.223807 98.228375 
L 275.238352 98.228375 
L 275.238352 114.41805 
L 276.252898 114.41805 
L 276.252898 117.116329 
L 277.267443 117.116329 
L 277.267443 111.719771 
L 278.281989 111.719771 
L 278.281989 115.574455 
L 279.296534 115.574455 
L 279.296534 101.697591 
L 280.31108 101.697591 
L 280.31108 121.356482 
L 281.325625 121.356482 
L 281.325625 123.283824 
L 282.34017 123.283824 
L 282.34017 114.41805 
L 283.354716 114.41805 
L 283.354716 98.228375 
L 284.369261 98.228375 
L 284.369261 118.272734 
L 285.383807 118.272734 
L 285.383807 108.636023 
L 286.398352 108.636023 
L 286.398352 123.283824 
L 287.412898 123.283824 
L 287.412898 118.658203 
L 288.427443 118.658203 
L 288.427443 124.825698 
L 289.441989 124.825698 
L 289.441989 122.898356 
L 290.456534 122.898356 
L 290.456534 113.261644 
L 291.47108 113.261644 
L 291.47108 127.138509 
L 292.485625 127.138509 
L 292.485625 127.909446 
L 293.50017 127.909446 
L 293.50017 129.451319 
L 294.514716 129.451319 
L 294.514716 127.138509 
L 295.529261 127.138509 
L 295.529261 121.74195 
L 296.543807 121.74195 
L 296.543807 115.574455 
L 297.558352 115.574455 
L 297.558352 127.523977 
L 298.572898 127.523977 
L 298.572898 132.149598 
L 299.587443 132.149598 
L 299.587443 127.909446 
L 301.616534 127.909446 
L 301.616534 129.065851 
L 302.63108 129.065851 
L 302.63108 145.255526 
L 303.645625 145.255526 
L 303.645625 143.713652 
L 304.66017 143.713652 
L 304.66017 132.920535 
L 305.674716 132.920535 
L 305.674716 147.568337 
L 306.689261 147.568337 
L 306.689261 135.233346 
L 307.703807 135.233346 
L 307.703807 131.76413 
L 308.718352 131.76413 
L 308.718352 140.629904 
L 309.732898 140.629904 
L 309.732898 143.713652 
L 310.747443 143.713652 
L 310.747443 141.400841 
L 311.761989 141.400841 
L 311.761989 138.317094 
L 312.776534 138.317094 
L 312.776534 149.495679 
L 313.79108 149.495679 
L 313.79108 143.713652 
L 315.82017 143.713652 
L 315.82017 151.423021 
L 316.834716 151.423021 
L 316.834716 156.819579 
L 317.849261 156.819579 
L 317.849261 155.277706 
L 318.863807 155.277706 
L 318.863807 143.713652 
L 319.878352 143.713652 
L 319.878352 159.517859 
L 320.892898 159.517859 
L 320.892898 151.808489 
L 321.907443 151.808489 
L 321.907443 157.205048 
L 322.921989 157.205048 
L 322.921989 161.830669 
L 323.936534 161.830669 
L 323.936534 165.299885 
L 324.95108 165.299885 
L 324.95108 161.059732 
L 325.965625 161.059732 
L 325.965625 163.758011 
L 326.98017 163.758011 
L 326.98017 173.780191 
L 327.994716 173.780191 
L 327.994716 170.310975 
L 329.009261 170.310975 
L 329.009261 166.841759 
L 330.023807 166.841759 
L 330.023807 175.707533 
L 331.038352 175.707533 
L 331.038352 171.081912 
L 332.052898 171.081912 
L 332.052898 173.394723 
L 333.067443 173.394723 
L 333.067443 168.769101 
L 334.081989 168.769101 
L 334.081989 171.081912 
L 335.096534 171.081912 
L 335.096534 174.551128 
L 336.11108 174.551128 
L 336.11108 179.17675 
L 337.125625 179.17675 
L 337.125625 185.344245 
L 338.14017 185.344245 
L 338.14017 189.198929 
L 339.154716 189.198929 
L 339.154716 185.729713 
L 340.169261 185.729713 
L 340.169261 193.824551 
L 341.183807 193.824551 
L 341.183807 194.595488 
L 342.198352 194.595488 
L 342.198352 193.824551 
L 343.212898 193.824551 
L 343.212898 196.52283 
L 344.227443 196.52283 
L 344.227443 198.064704 
L 346.256534 198.064704 
L 346.256534 199.606577 
L 347.27108 199.606577 
L 347.27108 200.762983 
L 348.285625 200.762983 
L 348.285625 205.388604 
L 349.30017 205.388604 
L 349.30017 206.54501 
L 351.329261 206.54501 
L 351.329261 208.472352 
L 352.343807 208.472352 
L 352.343807 211.556099 
L 353.358352 211.556099 
L 353.358352 212.712505 
L 354.372898 212.712505 
L 354.372898 211.556099 
L 355.387443 211.556099 
L 355.387443 212.712505 
L 356.401989 212.712505 
L 356.401989 215.025315 
L 357.416534 215.025315 
L 357.416534 213.483442 
L 358.43108 213.483442 
L 358.43108 214.639847 
L 360.46017 214.639847 
L 360.46017 218.109063 
L 361.474716 218.109063 
L 361.474716 218.88 
L 362.489261 218.88 
L 362.489261 218.494532 
L 365.532898 218.494532 
L 365.532898 218.88 
L 366.547443 218.88 
L 366.547443 218.88 
" clip-path="url(#p8aa48988f6)" style="fill: none; stroke: #1f77b4; stroke-width: 1.5; stroke-linecap: square"/>
   </g>
  </g>
 </g>
 <defs>
  <clipPath id="p8aa48988f6">
   <rect x="46.965625" y="7.2" width="334.8" height="221.76"/>
  </clipPath>
 </defs>
</svg>
