<?xml version="1.0" encoding="utf-8" standalone="no"?>
<!DOCTYPE svg PUBLIC "-//W3C//DTD SVG 1.1//EN"
  "http://www.w3.org/Graphics/SVG/1.1/DTD/svg11.dtd">
<svg xmlns:xlink="http://www.w3.org/1999/xlink" width="388.965625pt" height="268.200625pt" viewBox="0 0 388.965625 268.200625" xmlns="http://www.w3.org/2000/svg" version="1.1">
 <metadata>
  <rdf:RDF xmlns:dc="http://purl.org/dc/elements/1.1/" xmlns:cc="http://creativecommons.org/ns#" xmlns:rdf="http://www.w3.org/1999/02/22-rdf-syntax-ns#">
   <cc:Work>
    <dc:type rdf:resource="http://purl.org/dc/dcmitype/StillImage"/>
    <dc:date>2026-01-15T09:10:26.510034</dc:date>
    <dc:format>image/svg+xml</dc:format>
    <dc:creator>
     <cc:Agent>
      <dc:title>Matplotlib v3.10.7, https://matplotlib.org/</dc:title>
     </cc:Agent>
    </dc:creator>
   </cc:Work>
  </rdf:RDF>
 </metadata>
 <defs>
  <style type="text/css">*{stroke-linejoin: round; stroke-linecap: butt}</style>
 </defs>
 <g id="figure_1">
  <g id="patch_1">
   <path d="M 0 268.200625 
L 388.965625 268.200625 
L 388.965625 0 
L 0 0 
z
" style="fill: #ffffff"/>
  </g>
  <g id="axes_1">
   <g id="patch_2">
    <path d="M 46.965625 228.96 
L 381.765625 228.96 
L 381.765625 7.2 
L 46.965625 7.2 
z
" style="fill: #ffffff"/>
   </g>
   <g id="matplotlib.axis_1">
    <g id="xtick_1">
     <g id="line2d_1">
      <defs>
       <path id="m33b99824ae" d="M 0 0 
L 0 3.5 
" style="stroke: #000000; stroke-width: 0.8"/>
      </defs>
      <g>
       <use xlink:href="#m33b99824ae" x="62.183807" y="228.96" style="stroke: #000000; stroke-width: 0.8"/>
      </g>
     </g>
     <g id="text_1">
      <!-- 6.0 -->
      <g transform="translate(54.232244 243.558437) scale(0.1 -0.1)">
       <defs>
        <path id="DejaVuSans-36" d="M 2113 2584 
Q 1688 2584 1439 2293 
Q 1191 2003 1191 1497 
Q 1191 994 1439 701 
Q 1688 409 2113 409 
Q 2538 409 2786 701 
Q 3034 994 3034 1497 
Q 3034 2003 2786 2293 
Q 2538 2584 2113 2584 
z
M 3366 4563 
L 3366 3988 
Q 3128 4100 2886 4159 
Q 2644 4219 2406 4219 
Q 1781 4219 1451 3797 
Q 1122 3375 1075 2522 
Q 1259 2794 1537 2939 
Q 1816 3084 2150 3084 
Q 2853 3084 3261 2657 
Q 3669 2231 3669 1497 
Q 3669 778 3244 343 
Q 2819 -91 2113 -91 
Q 1303 -91 875 529 
Q 447 1150 447 2328 
Q 447 3434 972 4092 
Q 1497 4750 2381 4750 
Q 2619 4750 2861 4703 
Q 3103 4656 3366 4563 
z
" transform="scale(0.015625)"/>
        <path id="DejaVuSans-2e" d="M 684 794 
L 1344 794 
L 1344 0 
L 684 0 
L 684 794 
z
" transform="scale(0.015625)"/>
        <path id="DejaVuSans-30" d="M 2034 4250 
Q 1547 4250 1301 3770 
Q 1056 3291 1056 2328 
Q 1056 1369 1301 889 
Q 1547 409 2034 409 
Q 2525 409 2770 889 
Q 3016 1369 3016 2328 
Q 3016 3291 2770 3770 
Q 2525 4250 2034 4250 
z
M 2034 4750 
Q 2819 4750 3233 4129 
Q 3647 3509 3647 2328 
Q 3647 1150 3233 529 
Q 2819 -91 2034 -91 
Q 1250 -91 836 529 
Q 422 1150 422 2328 
Q 422 3509 836 4129 
Q 1250 4750 2034 4750 
z
" transform="scale(0.015625)"/>
       </defs>
       <use xlink:href="#DejaVuSans-36"/>
       <use xlink:href="#DejaVuSans-2e" transform="translate(63.623047 0)"/>
       <use xlink:href="#DejaVuSans-30" transform="translate(95.410156 0)"/>
      </g>
     </g>
    </g>
    <g id="xtick_2">
     <g id="line2d_2">
      <g>
       <use xlink:href="#m33b99824ae" x="112.91108" y="228.96" style="stroke: #000000; stroke-width: 0.8"/>
      </g>
     </g>
     <g id="text_2">
      <!-- 6.5 -->
      <g transform="translate(104.959517 243.558437) scale(0.1 -0.1)">
       <defs>
        <path id="DejaVuSans-35" d="M 691 4666 
L 3169 4666 
L 3169 4134 
L 1269 4134 
L 1269 2991 
Q 1406 3038 1543 3061 
Q 1681 3084 1819 3084 
Q 2600 3084 3056 2656 
Q 3513 2228 3513 1497 
Q 3513 744 3044 326 
Q 2575 -91 1722 -91 
Q 1428 -91 1123 -41 
Q 819 9 494 109 
L 494 744 
Q 775 591 1075 516 
Q 1375 441 1709 441 
Q 2250 441 2565 725 
Q 2881 1009 2881 1497 
Q 2881 1984 2565 2268 
Q 2250 2553 1709 2553 
Q 1456 2553 1204 2497 
Q 953 2441 691 2322 
L 691 4666 
z
" transform="scale(0.015625)"/>
       </defs>
       <use xlink:href="#DejaVuSans-36"/>
       <use xlink:href="#DejaVuSans-2e" transform="translate(63.623047 0)"/>
       <use xlink:href="#DejaVuSans-35" transform="translate(95.410156 0)"/>
      </g>
     </g>
    </g>
    <g id="xtick_3">
     <g id="line2d_3">
      <g>
       <use xlink:href="#m33b99824ae" x="163.638352" y="228.96" style="stroke: #000000; stroke-width: 0.8"/>
      </g>
     </g>
     <g id="text_3">
      <!-- 7.0 -->
      <g transform="translate(155.68679 243.558437) scale(0.1 -0.1)">
       <defs>
        <path id="DejaVuSans-37" d="M 525 4666 
L 3525 4666 
L 3525 4397 
L 1831 0 
L 1172 0 
L 2766 4134 
L 525 4134 
L 525 4666 
z
" transform="scale(0.015625)"/>
       </defs>
       <use xlink:href="#DejaVuSans-37"/>
       <use xlink:href="#DejaVuSans-2e" transform="translate(63.623047 0)"/>
       <use xlink:href="#DejaVuSans-30" transform="translate(95.410156 0)"/>
      </g>
     </g>
    </g>
    <g id="xtick_4">
     <g id="line2d_4">
      <g>
       <use xlink:href="#m33b99824ae" x="214.365625" y="228.96" style="stroke: #000000; stroke-width: 0.8"/>
      </g>
     </g>
     <g id="text_4">
      <!-- 7.5 -->
      <g transform="translate(206.414063 243.558437) scale(0.1 -0.1)">
       <use xlink:href="#DejaVuSans-37"/>
       <use xlink:href="#DejaVuSans-2e" transform="translate(63.623047 0)"/>
       <use xlink:href="#DejaVuSans-35" transform="translate(95.410156 0)"/>
      </g>
     </g>
    </g>
    <g id="xtick_5">
     <g id="line2d_5">
      <g>
       <use xlink:href="#m33b99824ae" x="265.092898" y="228.96" style="stroke: #000000; stroke-width: 0.8"/>
      </g>
     </g>
     <g id="text_5">
      <!-- 8.0 -->
      <g transform="translate(257.141335 243.558437) scale(0.1 -0.1)">
       <defs>
        <path id="DejaVuSans-38" d="M 2034 2216 
Q 1584 2216 1326 1975 
Q 1069 1734 1069 1313 
Q 1069 891 1326 650 
Q 1584 409 2034 409 
Q 2484 409 2743 651 
Q 3003 894 3003 1313 
Q 3003 1734 2745 1975 
Q 2488 2216 2034 2216 
z
M 1403 2484 
Q 997 2584 770 2862 
Q 544 3141 544 3541 
Q 544 4100 942 4425 
Q 1341 4750 2034 4750 
Q 2731 4750 3128 4425 
Q 3525 4100 3525 3541 
Q 3525 3141 3298 2862 
Q 3072 2584 2669 2484 
Q 3125 2378 3379 2068 
Q 3634 1759 3634 1313 
Q 3634 634 3220 271 
Q 2806 -91 2034 -91 
Q 1263 -91 848 271 
Q 434 634 434 1313 
Q 434 1759 690 2068 
Q 947 2378 1403 2484 
z
M 1172 3481 
Q 1172 3119 1398 2916 
Q 1625 2713 2034 2713 
Q 2441 2713 2670 2916 
Q 2900 3119 2900 3481 
Q 2900 3844 2670 4047 
Q 2441 4250 2034 4250 
Q 1625 4250 1398 4047 
Q 1172 3844 1172 3481 
z
" transform="scale(0.015625)"/>
       </defs>
       <use xlink:href="#DejaVuSans-38"/>
       <use xlink:href="#DejaVuSans-2e" transform="translate(63.623047 0)"/>
       <use xlink:href="#DejaVuSans-30" transform="translate(95.410156 0)"/>
      </g>
     </g>
    </g>
    <g id="xtick_6">
     <g id="line2d_6">
      <g>
       <use xlink:href="#m33b99824ae" x="315.82017" y="228.96" style="stroke: #000000; stroke-width: 0.8"/>
      </g>
     </g>
     <g id="text_6">
      <!-- 8.5 -->
      <g transform="translate(307.868608 243.558437) scale(0.1 -0.1)">
       <use xlink:href="#DejaVuSans-38"/>
       <use xlink:href="#DejaVuSans-2e" transform="translate(63.623047 0)"/>
       <use xlink:href="#DejaVuSans-35" transform="translate(95.410156 0)"/>
      </g>
     </g>
    </g>
    <g id="xtick_7">
     <g id="line2d_7">
      <g>
       <use xlink:href="#m33b99824ae" x="366.547443" y="228.96" style="stroke: #000000; stroke-width: 0.8"/>
      </g>
     </g>
     <g id="text_7">
      <!-- 9.0 -->
      <g transform="translate(358.595881 243.558437) scale(0.1 -0.1)">
       <defs>
        <path id="DejaVuSans-39" d="M 703 97 
L 703 672 
Q 941 559 1184 500 
Q 1428 441 1663 441 
Q 2288 441 2617 861 
Q 2947 1281 2994 2138 
Q 2813 1869 2534 1725 
Q 2256 1581 1919 1581 
Q 1219 1581 811 2004 
Q 403 2428 403 3163 
Q 403 3881 828 4315 
Q 1253 4750 1959 4750 
Q 2769 4750 3195 4129 
Q 3622 3509 3622 2328 
Q 3622 1225 3098 567 
Q 2575 -91 1691 -91 
Q 1453 -91 1209 -44 
Q 966 3 703 97 
z
M 1959 2075 
Q 2384 2075 2632 2365 
Q 2881 2656 2881 3163 
Q 2881 3666 2632 3958 
Q 2384 4250 1959 4250 
Q 1534 4250 1286 3958 
Q 1038 3666 1038 3163 
Q 1038 2656 1286 2365 
Q 1534 2075 1959 2075 
z
" transform="scale(0.015625)"/>
       </defs>
       <use xlink:href="#DejaVuSans-39"/>
       <use xlink:href="#DejaVuSans-2e" transform="translate(63.623047 0)"/>
       <use xlink:href="#DejaVuSans-30" transform="translate(95.410156 0)"/>
      </g>
     </g>
    </g>
    <g id="text_8">
     <!-- wavelength [Å] -->
     <g transform="translate(176.328125 258.920937) scale(0.1 -0.1)">
      <defs>
       <path id="DejaVuSans-77" d="M 269 3500 
L 844 3500 
L 1563 769 
L 2278 3500 
L 2956 3500 
L 3675 769 
L 4391 3500 
L 4966 3500 
L 4050 0 
L 3372 0 
L 2619 2869 
L 1863 0 
L 1184 0 
L 269 3500 
z
" transform="scale(0.015625)"/>
       <path id="DejaVuSans-61" d="M 2194 1759 
Q 1497 1759 1228 1600 
Q 959 1441 959 1056 
Q 959 750 1161 570 
Q 1363 391 1709 391 
Q 2188 391 2477 730 
Q 2766 1069 2766 1631 
L 2766 1759 
L 2194 1759 
z
M 3341 1997 
L 3341 0 
L 2766 0 
L 2766 531 
Q 2569 213 2275 61 
Q 1981 -91 1556 -91 
Q 1019 -91 701 211 
Q 384 513 384 1019 
Q 384 1609 779 1909 
Q 1175 2209 1959 2209 
L 2766 2209 
L 2766 2266 
Q 2766 2663 2505 2880 
Q 2244 3097 1772 3097 
Q 1472 3097 1187 3025 
Q 903 2953 641 2809 
L 641 3341 
Q 956 3463 1253 3523 
Q 1550 3584 1831 3584 
Q 2591 3584 2966 3190 
Q 3341 2797 3341 1997 
z
" transform="scale(0.015625)"/>
       <path id="DejaVuSans-76" d="M 191 3500 
L 800 3500 
L 1894 563 
L 2988 3500 
L 3597 3500 
L 2284 0 
L 1503 0 
L 191 3500 
z
" transform="scale(0.015625)"/>
       <path id="DejaVuSans-65" d="M 3597 1894 
L 3597 1613 
L 953 1613 
Q 991 1019 1311 708 
Q 1631 397 2203 397 
Q 2534 397 2845 478 
Q 3156 559 3463 722 
L 3463 178 
Q 3153 47 2828 -22 
Q 2503 -91 2169 -91 
Q 1331 -91 842 396 
Q 353 884 353 1716 
Q 353 2575 817 3079 
Q 1281 3584 2069 3584 
Q 2775 3584 3186 3129 
Q 3597 2675 3597 1894 
z
M 3022 2063 
Q 3016 2534 2758 2815 
Q 2500 3097 2075 3097 
Q 1594 3097 1305 2825 
Q 1016 2553 972 2059 
L 3022 2063 
z
" transform="scale(0.015625)"/>
       <path id="DejaVuSans-6c" d="M 603 4863 
L 1178 4863 
L 1178 0 
L 603 0 
L 603 4863 
z
" transform="scale(0.015625)"/>
       <path id="DejaVuSans-6e" d="M 3513 2113 
L 3513 0 
L 2938 0 
L 2938 2094 
Q 2938 2591 2744 2837 
Q 2550 3084 2163 3084 
Q 1697 3084 1428 2787 
Q 1159 2491 1159 1978 
L 1159 0 
L 581 0 
L 581 3500 
L 1159 3500 
L 1159 2956 
Q 1366 3272 1645 3428 
Q 1925 3584 2291 3584 
Q 2894 3584 3203 3211 
Q 3513 2838 3513 2113 
z
" transform="scale(0.015625)"/>
       <path id="DejaVuSans-67" d="M 2906 1791 
Q 2906 2416 2648 2759 
Q 2391 3103 1925 3103 
Q 1463 3103 1205 2759 
Q 947 2416 947 1791 
Q 947 1169 1205 825 
Q 1463 481 1925 481 
Q 2391 481 2648 825 
Q 2906 1169 2906 1791 
z
M 3481 434 
Q 3481 -459 3084 -895 
Q 2688 -1331 1869 -1331 
Q 1566 -1331 1297 -1286 
Q 1028 -1241 775 -1147 
L 775 -588 
Q 1028 -725 1275 -790 
Q 1522 -856 1778 -856 
Q 2344 -856 2625 -561 
Q 2906 -266 2906 331 
L 2906 616 
Q 2728 306 2450 153 
Q 2172 0 1784 0 
Q 1141 0 747 490 
Q 353 981 353 1791 
Q 353 2603 747 3093 
Q 1141 3584 1784 3584 
Q 2172 3584 2450 3431 
Q 2728 3278 2906 2969 
L 2906 3500 
L 3481 3500 
L 3481 434 
z
" transform="scale(0.015625)"/>
       <path id="DejaVuSans-74" d="M 1172 4494 
L 1172 3500 
L 2356 3500 
L 2356 3053 
L 1172 3053 
L 1172 1153 
Q 1172 725 1289 603 
Q 1406 481 1766 481 
L 2356 481 
L 2356 0 
L 1766 0 
Q 1100 0 847 248 
Q 594 497 594 1153 
L 594 3053 
L 172 3053 
L 172 3500 
L 594 3500 
L 594 4494 
L 1172 4494 
z
" transform="scale(0.015625)"/>
       <path id="DejaVuSans-68" d="M 3513 2113 
L 3513 0 
L 2938 0 
L 2938 2094 
Q 2938 2591 2744 2837 
Q 2550 3084 2163 3084 
Q 1697 3084 1428 2787 
Q 1159 2491 1159 1978 
L 1159 0 
L 581 0 
L 581 4863 
L 1159 4863 
L 1159 2956 
Q 1366 3272 1645 3428 
Q 1925 3584 2291 3584 
Q 2894 3584 3203 3211 
Q 3513 2838 3513 2113 
z
" transform="scale(0.015625)"/>
       <path id="DejaVuSans-20" transform="scale(0.015625)"/>
       <path id="DejaVuSans-5b" d="M 550 4863 
L 1875 4863 
L 1875 4416 
L 1125 4416 
L 1125 -397 
L 1875 -397 
L 1875 -844 
L 550 -844 
L 550 4863 
z
" transform="scale(0.015625)"/>
       <path id="DejaVuSans-c5" d="M 2663 5081 
Q 2663 5278 2523 5417 
Q 2384 5556 2188 5556 
Q 1988 5556 1852 5420 
Q 1716 5284 1716 5081 
Q 1716 4884 1853 4746 
Q 1991 4609 2188 4609 
Q 2384 4609 2523 4746 
Q 2663 4884 2663 5081 
z
M 2188 4044 
L 1338 1722 
L 3041 1722 
L 2188 4044 
z
M 1716 4366 
Q 1525 4494 1428 4673 
Q 1331 4853 1331 5081 
Q 1331 5441 1579 5691 
Q 1828 5941 2188 5941 
Q 2544 5941 2795 5689 
Q 3047 5438 3047 5081 
Q 3047 4863 2948 4678 
Q 2850 4494 2663 4366 
L 4325 0 
L 3669 0 
L 3244 1197 
L 1141 1197 
L 716 0 
L 50 0 
L 1716 4366 
z
" transform="scale(0.015625)"/>
       <path id="DejaVuSans-5d" d="M 1947 4863 
L 1947 -844 
L 622 -844 
L 622 -397 
L 1369 -397 
L 1369 4416 
L 622 4416 
L 622 4863 
L 1947 4863 
z
" transform="scale(0.015625)"/>
      </defs>
      <use xlink:href="#DejaVuSans-77"/>
      <use xlink:href="#DejaVuSans-61" transform="translate(81.787109 0)"/>
      <use xlink:href="#DejaVuSans-76" transform="translate(143.066406 0)"/>
      <use xlink:href="#DejaVuSans-65" transform="translate(202.246094 0)"/>
      <use xlink:href="#DejaVuSans-6c" transform="translate(263.769531 0)"/>
      <use xlink:href="#DejaVuSans-65" transform="translate(291.552734 0)"/>
      <use xlink:href="#DejaVuSans-6e" transform="translate(353.076172 0)"/>
      <use xlink:href="#DejaVuSans-67" transform="translate(416.455078 0)"/>
      <use xlink:href="#DejaVuSans-74" transform="translate(479.931641 0)"/>
      <use xlink:href="#DejaVuSans-68" transform="translate(519.140625 0)"/>
      <use xlink:href="#DejaVuSans-20" transform="translate(582.519531 0)"/>
      <use xlink:href="#DejaVuSans-5b" transform="translate(614.306641 0)"/>
      <use xlink:href="#DejaVuSans-c5" transform="translate(653.320312 0)"/>
      <use xlink:href="#DejaVuSans-5d" transform="translate(721.728516 0)"/>
     </g>
    </g>
   </g>
   <g id="matplotlib.axis_2">
    <g id="ytick_1">
     <g id="line2d_8">
      <defs>
       <path id="m71ab6da0e5" d="M 0 0 
L -3.5 0 
" style="stroke: #000000; stroke-width: 0.8"/>
      </defs>
      <g>
       <use xlink:href="#m71ab6da0e5" x="46.965625" y="218.88" style="stroke: #000000; stroke-width: 0.8"/>
      </g>
     </g>
     <g id="text_9">
      <!-- 0 -->
      <g transform="translate(33.603125 222.679219) scale(0.1 -0.1)">
       <use xlink:href="#DejaVuSans-30"/>
      </g>
     </g>
    </g>
    <g id="ytick_2">
     <g id="line2d_9">
      <g>
       <use xlink:href="#m71ab6da0e5" x="46.965625" y="176.168136" style="stroke: #000000; stroke-width: 0.8"/>
      </g>
     </g>
     <g id="text_10">
      <!-- 100 -->
      <g transform="translate(20.878125 179.967354) scale(0.1 -0.1)">
       <defs>
        <path id="DejaVuSans-31" d="M 794 531 
L 1825 531 
L 1825 4091 
L 703 3866 
L 703 4441 
L 1819 4666 
L 2450 4666 
L 2450 531 
L 3481 531 
L 3481 0 
L 794 0 
L 794 531 
z
" transform="scale(0.015625)"/>
       </defs>
       <use xlink:href="#DejaVuSans-31"/>
       <use xlink:href="#DejaVuSans-30" transform="translate(63.623047 0)"/>
       <use xlink:href="#DejaVuSans-30" transform="translate(127.246094 0)"/>
      </g>
     </g>
    </g>
    <g id="ytick_3">
     <g id="line2d_10">
      <g>
       <use xlink:href="#m71ab6da0e5" x="46.965625" y="133.456271" style="stroke: #000000; stroke-width: 0.8"/>
      </g>
     </g>
     <g id="text_11">
      <!-- 200 -->
      <g transform="translate(20.878125 137.25549) scale(0.1 -0.1)">
       <defs>
        <path id="DejaVuSans-32" d="M 1228 531 
L 3431 531 
L 3431 0 
L 469 0 
L 469 531 
Q 828 903 1448 1529 
Q 2069 2156 2228 2338 
Q 2531 2678 2651 2914 
Q 2772 3150 2772 3378 
Q 2772 3750 2511 3984 
Q 2250 4219 1831 4219 
Q 1534 4219 1204 4116 
Q 875 4013 500 3803 
L 500 4441 
Q 881 4594 1212 4672 
Q 1544 4750 1819 4750 
Q 2544 4750 2975 4387 
Q 3406 4025 3406 3419 
Q 3406 3131 3298 2873 
Q 3191 2616 2906 2266 
Q 2828 2175 2409 1742 
Q 1991 1309 1228 531 
z
" transform="scale(0.015625)"/>
       </defs>
       <use xlink:href="#DejaVuSans-32"/>
       <use xlink:href="#DejaVuSans-30" transform="translate(63.623047 0)"/>
       <use xlink:href="#DejaVuSans-30" transform="translate(127.246094 0)"/>
      </g>
     </g>
    </g>
    <g id="ytick_4">
     <g id="line2d_11">
      <g>
       <use xlink:href="#m71ab6da0e5" x="46.965625" y="90.744407" style="stroke: #000000; stroke-width: 0.8"/>
      </g>
     </g>
     <g id="text_12">
      <!-- 300 -->
      <g transform="translate(20.878125 94.543626) scale(0.1 -0.1)">
       <defs>
        <path id="DejaVuSans-33" d="M 2597 2516 
Q 3050 2419 3304 2112 
Q 3559 1806 3559 1356 
Q 3559 666 3084 287 
Q 2609 -91 1734 -91 
Q 1441 -91 1130 -33 
Q 819 25 488 141 
L 488 750 
Q 750 597 1062 519 
Q 1375 441 1716 441 
Q 2309 441 2620 675 
Q 2931 909 2931 1356 
Q 2931 1769 2642 2001 
Q 2353 2234 1838 2234 
L 1294 2234 
L 1294 2753 
L 1863 2753 
Q 2328 2753 2575 2939 
Q 2822 3125 2822 3475 
Q 2822 3834 2567 4026 
Q 2313 4219 1838 4219 
Q 1578 4219 1281 4162 
Q 984 4106 628 3988 
L 628 4550 
Q 988 4650 1302 4700 
Q 1616 4750 1894 4750 
Q 2613 4750 3031 4423 
Q 3450 4097 3450 3541 
Q 3450 3153 3228 2886 
Q 3006 2619 2597 2516 
z
" transform="scale(0.015625)"/>
       </defs>
       <use xlink:href="#DejaVuSans-33"/>
       <use xlink:href="#DejaVuSans-30" transform="translate(63.623047 0)"/>
       <use xlink:href="#DejaVuSans-30" transform="translate(127.246094 0)"/>
      </g>
     </g>
    </g>
    <g id="ytick_5">
     <g id="line2d_12">
      <g>
       <use xlink:href="#m71ab6da0e5" x="46.965625" y="48.032542" style="stroke: #000000; stroke-width: 0.8"/>
      </g>
     </g>
     <g id="text_13">
      <!-- 400 -->
      <g transform="translate(20.878125 51.831761) scale(0.1 -0.1)">
       <defs>
        <path id="DejaVuSans-34" d="M 2419 4116 
L 825 1625 
L 2419 1625 
L 2419 4116 
z
M 2253 4666 
L 3047 4666 
L 3047 1625 
L 3713 1625 
L 3713 1100 
L 3047 1100 
L 3047 0 
L 2419 0 
L 2419 1100 
L 313 1100 
L 313 1709 
L 2253 4666 
z
" transform="scale(0.015625)"/>
       </defs>
       <use xlink:href="#DejaVuSans-34"/>
       <use xlink:href="#DejaVuSans-30" transform="translate(63.623047 0)"/>
       <use xlink:href="#DejaVuSans-30" transform="translate(127.246094 0)"/>
      </g>
     </g>
    </g>
    <g id="text_14">
     <!-- [counts] -->
     <g transform="translate(14.798438 138.6925) rotate(-90) scale(0.1 -0.1)">
      <defs>
       <path id="DejaVuSans-63" d="M 3122 3366 
L 3122 2828 
Q 2878 2963 2633 3030 
Q 2388 3097 2138 3097 
Q 1578 3097 1268 2742 
Q 959 2388 959 1747 
Q 959 1106 1268 751 
Q 1578 397 2138 397 
Q 2388 397 2633 464 
Q 2878 531 3122 666 
L 3122 134 
Q 2881 22 2623 -34 
Q 2366 -91 2075 -91 
Q 1284 -91 818 406 
Q 353 903 353 1747 
Q 353 2603 823 3093 
Q 1294 3584 2113 3584 
Q 2378 3584 2631 3529 
Q 2884 3475 3122 3366 
z
" transform="scale(0.015625)"/>
       <path id="DejaVuSans-6f" d="M 1959 3097 
Q 1497 3097 1228 2736 
Q 959 2375 959 1747 
Q 959 1119 1226 758 
Q 1494 397 1959 397 
Q 2419 397 2687 759 
Q 2956 1122 2956 1747 
Q 2956 2369 2687 2733 
Q 2419 3097 1959 3097 
z
M 1959 3584 
Q 2709 3584 3137 3096 
Q 3566 2609 3566 1747 
Q 3566 888 3137 398 
Q 2709 -91 1959 -91 
Q 1206 -91 779 398 
Q 353 888 353 1747 
Q 353 2609 779 3096 
Q 1206 3584 1959 3584 
z
" transform="scale(0.015625)"/>
       <path id="DejaVuSans-75" d="M 544 1381 
L 544 3500 
L 1119 3500 
L 1119 1403 
Q 1119 906 1312 657 
Q 1506 409 1894 409 
Q 2359 409 2629 706 
Q 2900 1003 2900 1516 
L 2900 3500 
L 3475 3500 
L 3475 0 
L 2900 0 
L 2900 538 
Q 2691 219 2414 64 
Q 2138 -91 1772 -91 
Q 1169 -91 856 284 
Q 544 659 544 1381 
z
M 1991 3584 
L 1991 3584 
z
" transform="scale(0.015625)"/>
       <path id="DejaVuSans-73" d="M 2834 3397 
L 2834 2853 
Q 2591 2978 2328 3040 
Q 2066 3103 1784 3103 
Q 1356 3103 1142 2972 
Q 928 2841 928 2578 
Q 928 2378 1081 2264 
Q 1234 2150 1697 2047 
L 1894 2003 
Q 2506 1872 2764 1633 
Q 3022 1394 3022 966 
Q 3022 478 2636 193 
Q 2250 -91 1575 -91 
Q 1294 -91 989 -36 
Q 684 19 347 128 
L 347 722 
Q 666 556 975 473 
Q 1284 391 1588 391 
Q 1994 391 2212 530 
Q 2431 669 2431 922 
Q 2431 1156 2273 1281 
Q 2116 1406 1581 1522 
L 1381 1569 
Q 847 1681 609 1914 
Q 372 2147 372 2553 
Q 372 3047 722 3315 
Q 1072 3584 1716 3584 
Q 2034 3584 2315 3537 
Q 2597 3491 2834 3397 
z
" transform="scale(0.015625)"/>
      </defs>
      <use xlink:href="#DejaVuSans-5b"/>
      <use xlink:href="#DejaVuSans-63" transform="translate(39.013672 0)"/>
      <use xlink:href="#DejaVuSans-6f" transform="translate(93.994141 0)"/>
      <use xlink:href="#DejaVuSans-75" transform="translate(155.175781 0)"/>
      <use xlink:href="#DejaVuSans-6e" transform="translate(218.554688 0)"/>
      <use xlink:href="#DejaVuSans-74" transform="translate(281.933594 0)"/>
      <use xlink:href="#DejaVuSans-73" transform="translate(321.142578 0)"/>
      <use xlink:href="#DejaVuSans-5d" transform="translate(373.242188 0)"/>
     </g>
    </g>
   </g>
   <g id="line2d_13">
    <path d="M 62.183807 218.88 
L 65.227443 218.88 
L 65.227443 218.452881 
L 68.27108 218.452881 
L 68.27108 218.025763 
L 71.314716 218.025763 
L 71.314716 217.598644 
L 74.358352 217.598644 
L 74.358352 218.88 
L 95.663807 218.88 
L 95.663807 216.744407 
L 98.707443 216.744407 
L 98.707443 215.463051 
L 101.75108 215.463051 
L 101.75108 214.181695 
L 104.794716 214.181695 
L 104.794716 215.035932 
L 107.838352 215.035932 
L 107.838352 213.754576 
L 110.881989 213.754576 
L 110.881989 214.181695 
L 113.925625 214.181695 
L 113.925625 211.618983 
L 116.969261 211.618983 
L 116.969261 209.056271 
L 120.012898 209.056271 
L 120.012898 206.493559 
L 123.056534 206.493559 
L 123.056534 202.222373 
L 126.10017 202.222373 
L 126.10017 202.649492 
L 129.143807 202.649492 
L 129.143807 203.503729 
L 132.187443 203.503729 
L 132.187443 202.649492 
L 135.23108 202.649492 
L 135.23108 191.544407 
L 138.274716 191.544407 
L 138.274716 187.27322 
L 141.318352 187.27322 
L 141.318352 178.730847 
L 144.361989 178.730847 
L 144.361989 166.771525 
L 147.405625 166.771525 
L 147.405625 151.395254 
L 150.449261 151.395254 
L 150.449261 150.113898 
L 153.492898 150.113898 
L 153.492898 129.185085 
L 156.536534 129.185085 
L 156.536534 134.310508 
L 159.58017 134.310508 
L 159.58017 100.995254 
L 162.623807 100.995254 
L 162.623807 86.046102 
L 165.667443 86.046102 
L 165.667443 71.524068 
L 168.71108 71.524068 
L 168.71108 64.263051 
L 171.754716 64.263051 
L 171.754716 54.012203 
L 174.798352 54.012203 
L 174.798352 61.700339 
L 177.841989 61.700339 
L 177.841989 39.063051 
L 180.885625 39.063051 
L 180.885625 24.113898 
L 183.929261 24.113898 
L 183.929261 27.530847 
L 186.972898 27.530847 
L 186.972898 17.28 
L 190.016534 17.28 
L 190.016534 43.334237 
L 193.06017 43.334237 
L 193.06017 62.127458 
L 196.103807 62.127458 
L 196.103807 55.720678 
L 199.147443 55.720678 
L 199.147443 56.147797 
L 202.19108 56.147797 
L 202.19108 67.252881 
L 205.234716 67.252881 
L 205.234716 68.961356 
L 208.278352 68.961356 
L 208.278352 57.856271 
L 211.321989 57.856271 
L 211.321989 65.117288 
L 214.365625 65.117288 
L 214.365625 59.137627 
L 217.409261 59.137627 
L 217.409261 65.117288 
L 220.452898 65.117288 
L 220.452898 56.147797 
L 223.496534 56.147797 
L 223.496534 77.07661 
L 226.54017 77.07661 
L 226.54017 83.48339 
L 229.583807 83.48339 
L 229.583807 81.774915 
L 232.627443 81.774915 
L 232.627443 89.463051 
L 238.714716 89.463051 
L 238.714716 92.88 
L 241.758352 92.88 
L 241.758352 68.534237 
L 244.801989 68.534237 
L 244.801989 87.327458 
L 247.845625 87.327458 
L 247.845625 95.442712 
L 250.889261 95.442712 
L 250.889261 100.568136 
L 253.932898 100.568136 
L 253.932898 99.28678 
L 256.976534 99.28678 
L 256.976534 110.391864 
L 260.02017 110.391864 
L 260.02017 83.056271 
L 263.063807 83.056271 
L 263.063807 89.890169 
L 266.107443 89.890169 
L 266.107443 112.100339 
L 272.194716 112.100339 
L 272.194716 114.663051 
L 275.238352 114.663051 
L 275.238352 111.246102 
L 278.281989 111.246102 
L 278.281989 126.622373 
L 281.325625 126.622373 
L 281.325625 120.642712 
L 284.369261 120.642712 
L 284.369261 119.361356 
L 287.412898 119.361356 
L 287.412898 137.727458 
L 290.456534 137.727458 
L 290.456534 142.425763 
L 293.50017 142.425763 
L 293.50017 148.405424 
L 296.543807 148.405424 
L 296.543807 163.354576 
L 299.587443 163.354576 
L 299.587443 168.907119 
L 302.63108 168.907119 
L 302.63108 185.991864 
L 305.674716 185.991864 
L 305.674716 195.388475 
L 308.718352 195.388475 
L 308.718352 191.117288 
L 311.761989 191.117288 
L 311.761989 202.222373 
L 314.805625 202.222373 
L 314.805625 217.171525 
L 317.849261 217.171525 
L 317.849261 218.88 
L 366.547443 218.88 
L 366.547443 218.88 
" clip-path="url(#p11aa4bdfe6)" style="fill: none; stroke: #1f77b4; stroke-width: 1.5; stroke-linecap: square"/>
   </g>
   <g id="line2d_14">
    <path d="M 62.183807 218.88 
L 86.532898 218.88 
L 86.532898 216.744407 
L 89.576534 216.744407 
L 89.576534 215.890169 
L 92.62017 215.890169 
L 92.62017 218.88 
L 95.663807 218.88 
L 95.663807 217.598644 
L 98.707443 217.598644 
L 98.707443 213.327458 
L 101.75108 213.327458 
L 101.75108 216.317288 
L 104.794716 216.317288 
L 104.794716 215.035932 
L 107.838352 215.035932 
L 107.838352 212.900339 
L 113.925625 212.900339 
L 113.925625 211.618983 
L 116.969261 211.618983 
L 116.969261 204.357966 
L 120.012898 204.357966 
L 120.012898 209.056271 
L 123.056534 209.056271 
L 123.056534 206.066441 
L 126.10017 206.066441 
L 126.10017 203.503729 
L 129.143807 203.503729 
L 129.143807 202.649492 
L 132.187443 202.649492 
L 132.187443 193.252881 
L 135.23108 193.252881 
L 135.23108 195.388475 
L 138.274716 195.388475 
L 138.274716 179.585085 
L 141.318352 179.585085 
L 141.318352 175.313898 
L 144.361989 175.313898 
L 144.361989 177.022373 
L 147.405625 177.022373 
L 147.405625 153.530847 
L 150.449261 153.530847 
L 150.449261 152.67661 
L 153.492898 152.67661 
L 153.492898 113.808814 
L 156.536534 113.808814 
L 156.536534 126.195254 
L 159.58017 126.195254 
L 159.58017 89.035932 
L 162.623807 89.035932 
L 162.623807 91.598644 
L 165.667443 91.598644 
L 165.667443 82.202034 
L 168.71108 82.202034 
L 168.71108 57.002034 
L 171.754716 57.002034 
L 171.754716 68.534237 
L 174.798352 68.534237 
L 174.798352 62.127458 
L 177.841989 62.127458 
L 177.841989 34.364746 
L 180.885625 34.364746 
L 180.885625 34.791864 
L 183.929261 34.791864 
L 183.929261 49.313898 
L 186.972898 49.313898 
L 186.972898 50.595254 
L 190.016534 50.595254 
L 190.016534 38.208814 
L 193.06017 38.208814 
L 193.06017 37.781695 
L 196.103807 37.781695 
L 196.103807 49.313898 
L 199.147443 49.313898 
L 199.147443 67.252881 
L 202.19108 67.252881 
L 202.19108 56.574915 
L 205.234716 56.574915 
L 205.234716 78.357966 
L 208.278352 78.357966 
L 208.278352 45.896949 
L 211.321989 45.896949 
L 211.321989 60.418983 
L 217.409261 60.418983 
L 217.409261 77.503729 
L 220.452898 77.503729 
L 220.452898 71.951186 
L 223.496534 71.951186 
L 223.496534 67.68 
L 226.54017 67.68 
L 226.54017 74.08678 
L 229.583807 74.08678 
L 229.583807 69.388475 
L 232.627443 69.388475 
L 232.627443 81.774915 
L 235.67108 81.774915 
L 235.67108 90.317288 
L 238.714716 90.317288 
L 238.714716 106.974915 
L 241.758352 106.974915 
L 241.758352 69.388475 
L 244.801989 69.388475 
L 244.801989 79.212203 
L 247.845625 79.212203 
L 247.845625 121.069831 
L 250.889261 121.069831 
L 250.889261 68.534237 
L 253.932898 68.534237 
L 253.932898 114.663051 
L 256.976534 114.663051 
L 256.976534 98.432542 
L 260.02017 98.432542 
L 260.02017 100.568136 
L 263.063807 100.568136 
L 263.063807 111.67322 
L 266.107443 111.67322 
L 266.107443 121.924068 
L 269.15108 121.924068 
L 269.15108 90.744407 
L 272.194716 90.744407 
L 272.194716 118.08 
L 275.238352 118.08 
L 275.238352 98.859661 
L 278.281989 98.859661 
L 278.281989 126.622373 
L 281.325625 126.622373 
L 281.325625 125.768136 
L 284.369261 125.768136 
L 284.369261 118.934237 
L 287.412898 118.934237 
L 287.412898 144.561356 
L 290.456534 144.561356 
L 290.456534 132.174915 
L 293.50017 132.174915 
L 293.50017 163.354576 
L 296.543807 163.354576 
L 296.543807 150.113898 
L 299.587443 150.113898 
L 299.587443 172.751186 
L 302.63108 172.751186 
L 302.63108 171.896949 
L 305.674716 171.896949 
L 305.674716 188.127458 
L 308.718352 188.127458 
L 308.718352 196.669831 
L 311.761989 196.669831 
L 311.761989 199.232542 
L 314.805625 199.232542 
L 314.805625 207.774915 
L 317.849261 207.774915 
L 317.849261 218.88 
L 366.547443 218.88 
L 366.547443 218.88 
" clip-path="url(#p11aa4bdfe6)" style="fill: none; stroke: #ff7f0e; stroke-width: 1.5; stroke-linecap: square"/>
   </g>
   <g id="line2d_15">
    <path d="M 62.183807 218.88 
L 98.707443 218.88 
L 98.707443 216.317288 
L 101.75108 216.317288 
L 101.75108 215.890169 
L 104.794716 215.890169 
L 104.794716 216.744407 
L 107.838352 216.744407 
L 107.838352 215.035932 
L 110.881989 215.035932 
L 110.881989 211.191864 
L 113.925625 211.191864 
L 113.925625 213.754576 
L 116.969261 213.754576 
L 116.969261 218.452881 
L 120.012898 218.452881 
L 120.012898 206.066441 
L 123.056534 206.066441 
L 123.056534 207.347797 
L 126.10017 207.347797 
L 126.10017 203.07661 
L 129.143807 203.07661 
L 129.143807 205.639322 
L 132.187443 205.639322 
L 132.187443 190.690169 
L 135.23108 190.690169 
L 135.23108 197.096949 
L 138.274716 197.096949 
L 138.274716 180.866441 
L 141.318352 180.866441 
L 141.318352 173.605424 
L 144.361989 173.605424 
L 144.361989 175.313898 
L 147.405625 175.313898 
L 147.405625 154.812203 
L 150.449261 154.812203 
L 150.449261 149.259661 
L 153.492898 149.259661 
L 153.492898 114.663051 
L 156.536534 114.663051 
L 156.536534 126.622373 
L 159.58017 126.622373 
L 159.58017 93.734237 
L 162.623807 93.734237 
L 162.623807 95.442712 
L 165.667443 95.442712 
L 165.667443 81.347797 
L 168.71108 81.347797 
L 168.71108 58.710508 
L 171.754716 58.710508 
L 171.754716 54.866441 
L 174.798352 54.866441 
L 174.798352 65.544407 
L 177.841989 65.544407 
L 177.841989 46.324068 
L 180.885625 46.324068 
L 180.885625 20.696949 
L 183.929261 20.696949 
L 183.929261 60.846102 
L 186.972898 60.846102 
L 186.972898 40.344407 
L 190.016534 40.344407 
L 190.016534 42.907119 
L 193.06017 42.907119 
L 193.06017 39.917288 
L 196.103807 39.917288 
L 196.103807 47.605424 
L 199.147443 47.605424 
L 199.147443 62.554576 
L 202.19108 62.554576 
L 202.19108 64.263051 
L 205.234716 64.263051 
L 205.234716 76.222373 
L 208.278352 76.222373 
L 208.278352 42.907119 
L 211.321989 42.907119 
L 211.321989 62.554576 
L 214.365625 62.554576 
L 214.365625 60.418983 
L 217.409261 60.418983 
L 217.409261 79.212203 
L 220.452898 79.212203 
L 220.452898 68.534237 
L 223.496534 68.534237 
L 223.496534 59.137627 
L 226.54017 59.137627 
L 226.54017 85.191864 
L 229.583807 85.191864 
L 229.583807 65.544407 
L 232.627443 65.544407 
L 232.627443 92.025763 
L 235.67108 92.025763 
L 235.67108 82.629153 
L 238.714716 82.629153 
L 238.714716 106.547797 
L 241.758352 106.547797 
L 241.758352 68.534237 
L 244.801989 68.534237 
L 244.801989 76.649492 
L 247.845625 76.649492 
L 247.845625 118.507119 
L 250.889261 118.507119 
L 250.889261 73.232542 
L 253.932898 73.232542 
L 253.932898 120.642712 
L 256.976534 120.642712 
L 256.976534 100.568136 
L 260.02017 100.568136 
L 260.02017 98.859661 
L 263.063807 98.859661 
L 263.063807 107.402034 
L 266.107443 107.402034 
L 266.107443 117.652881 
L 269.15108 117.652881 
L 269.15108 94.588475 
L 272.194716 94.588475 
L 272.194716 111.246102 
L 275.238352 111.246102 
L 275.238352 103.985085 
L 278.281989 103.985085 
L 278.281989 125.341017 
L 281.325625 125.341017 
L 281.325625 132.174915 
L 284.369261 132.174915 
L 284.369261 116.371525 
L 287.412898 116.371525 
L 287.412898 144.134237 
L 290.456534 144.134237 
L 290.456534 135.164746 
L 293.50017 135.164746 
L 293.50017 156.947797 
L 296.543807 156.947797 
L 296.543807 153.103729 
L 299.587443 153.103729 
L 299.587443 175.313898 
L 302.63108 175.313898 
L 302.63108 168.48 
L 305.674716 168.48 
L 305.674716 191.544407 
L 308.718352 191.544407 
L 308.718352 194.107119 
L 311.761989 194.107119 
L 311.761989 198.805424 
L 314.805625 198.805424 
L 314.805625 206.920678 
L 317.849261 206.920678 
L 317.849261 216.317288 
L 320.892898 216.317288 
L 320.892898 218.88 
L 366.547443 218.88 
L 366.547443 218.88 
" clip-path="url(#p11aa4bdfe6)" style="fill: none; stroke: #2ca02c; stroke-width: 1.5; stroke-linecap: square"/>
   </g>
   <g id="line2d_16">
    <path d="M 62.183807 218.88 
L 98.707443 218.88 
L 98.707443 215.035932 
L 101.75108 215.035932 
L 101.75108 218.452881 
L 104.794716 218.452881 
L 104.794716 217.171525 
L 107.838352 217.171525 
L 107.838352 215.463051 
L 110.881989 215.463051 
L 110.881989 218.88 
L 113.925625 218.88 
L 113.925625 215.035932 
L 120.012898 215.035932 
L 120.012898 211.191864 
L 123.056534 211.191864 
L 123.056534 218.025763 
L 126.10017 218.025763 
L 126.10017 201.795254 
L 129.143807 201.795254 
L 129.143807 206.066441 
L 132.187443 206.066441 
L 132.187443 191.544407 
L 135.23108 191.544407 
L 135.23108 195.388475 
L 138.274716 195.388475 
L 138.274716 183.429153 
L 141.318352 183.429153 
L 141.318352 172.751186 
L 144.361989 172.751186 
L 144.361989 176.595254 
L 147.405625 176.595254 
L 147.405625 153.103729 
L 150.449261 153.103729 
L 150.449261 148.832542 
L 153.492898 148.832542 
L 153.492898 118.934237 
L 156.536534 118.934237 
L 156.536534 123.205424 
L 159.58017 123.205424 
L 159.58017 97.578305 
L 162.623807 97.578305 
L 162.623807 87.327458 
L 165.667443 87.327458 
L 165.667443 88.181695 
L 168.71108 88.181695 
L 168.71108 56.574915 
L 171.754716 56.574915 
L 171.754716 59.564746 
L 174.798352 59.564746 
L 174.798352 58.710508 
L 177.841989 58.710508 
L 177.841989 51.022373 
L 180.885625 51.022373 
L 180.885625 24.541017 
L 183.929261 24.541017 
L 183.929261 63.408814 
L 186.972898 63.408814 
L 186.972898 34.791864 
L 190.016534 34.791864 
L 190.016534 37.781695 
L 193.06017 37.781695 
L 193.06017 45.896949 
L 196.103807 45.896949 
L 196.103807 44.188475 
L 199.147443 44.188475 
L 199.147443 62.554576 
L 202.19108 62.554576 
L 202.19108 61.700339 
L 205.234716 61.700339 
L 205.234716 71.096949 
L 208.278352 71.096949 
L 208.278352 44.615593 
L 211.321989 44.615593 
L 211.321989 73.232542 
L 214.365625 73.232542 
L 214.365625 54.866441 
L 217.409261 54.866441 
L 217.409261 75.368136 
L 220.452898 75.368136 
L 220.452898 74.513898 
L 223.496534 74.513898 
L 223.496534 63.408814 
L 226.54017 63.408814 
L 226.54017 77.07661 
L 229.583807 77.07661 
L 229.583807 62.127458 
L 232.627443 62.127458 
L 232.627443 102.27661 
L 235.67108 102.27661 
L 235.67108 72.378305 
L 238.714716 72.378305 
L 238.714716 102.27661 
L 241.758352 102.27661 
L 241.758352 75.795254 
L 244.801989 75.795254 
L 244.801989 83.48339 
L 247.845625 83.48339 
L 247.845625 110.818983 
L 250.889261 110.818983 
L 250.889261 85.618983 
L 253.932898 85.618983 
L 253.932898 106.974915 
L 256.976534 106.974915 
L 256.976534 109.537627 
L 260.02017 109.537627 
L 260.02017 98.005424 
L 263.063807 98.005424 
L 263.063807 111.246102 
L 266.107443 111.246102 
L 266.107443 110.818983 
L 269.15108 110.818983 
L 269.15108 96.724068 
L 272.194716 96.724068 
L 272.194716 105.693559 
L 275.238352 105.693559 
L 275.238352 111.67322 
L 278.281989 111.67322 
L 278.281989 121.496949 
L 281.325625 121.496949 
L 281.325625 130.466441 
L 284.369261 130.466441 
L 284.369261 116.798644 
L 287.412898 116.798644 
L 287.412898 144.134237 
L 290.456534 144.134237 
L 290.456534 135.591864 
L 293.50017 135.591864 
L 293.50017 163.354576 
L 296.543807 163.354576 
L 296.543807 144.988475 
L 299.587443 144.988475 
L 299.587443 177.022373 
L 302.63108 177.022373 
L 302.63108 170.615593 
L 305.674716 170.615593 
L 305.674716 189.835932 
L 308.718352 189.835932 
L 308.718352 193.68 
L 311.761989 193.68 
L 311.761989 199.659661 
L 314.805625 199.659661 
L 314.805625 206.066441 
L 317.849261 206.066441 
L 317.849261 215.890169 
L 320.892898 215.890169 
L 320.892898 218.88 
L 366.547443 218.88 
L 366.547443 218.88 
" clip-path="url(#p11aa4bdfe6)" style="fill: none; stroke: #d62728; stroke-width: 1.5; stroke-linecap: square"/>
   </g>
   <g id="line2d_17">
    <path d="M 62.183807 218.025763 
L 65.227443 218.025763 
L 65.227443 218.88 
L 68.27108 218.88 
L 68.27108 218.025763 
L 74.358352 218.025763 
L 74.358352 218.452881 
L 77.401989 218.452881 
L 77.401989 218.025763 
L 83.489261 218.025763 
L 83.489261 218.88 
L 86.532898 218.88 
L 86.532898 217.171525 
L 89.576534 217.171525 
L 89.576534 215.035932 
L 92.62017 215.035932 
L 92.62017 215.890169 
L 98.707443 215.890169 
L 98.707443 214.181695 
L 101.75108 214.181695 
L 101.75108 215.463051 
L 104.794716 215.463051 
L 104.794716 214.608814 
L 110.881989 214.608814 
L 110.881989 211.191864 
L 113.925625 211.191864 
L 113.925625 209.056271 
L 116.969261 209.056271 
L 116.969261 211.618983 
L 120.012898 211.618983 
L 120.012898 203.503729 
L 123.056534 203.503729 
L 123.056534 202.649492 
L 126.10017 202.649492 
L 126.10017 209.910508 
L 129.143807 209.910508 
L 129.143807 200.941017 
L 132.187443 200.941017 
L 132.187443 194.107119 
L 135.23108 194.107119 
L 135.23108 192.825763 
L 138.274716 192.825763 
L 138.274716 184.28339 
L 141.318352 184.28339 
L 141.318352 172.324068 
L 144.361989 172.324068 
L 144.361989 176.168136 
L 147.405625 176.168136 
L 147.405625 153.957966 
L 150.449261 153.957966 
L 150.449261 141.998644 
L 153.492898 141.998644 
L 153.492898 122.778305 
L 156.536534 122.778305 
L 156.536534 119.361356 
L 159.58017 119.361356 
L 159.58017 107.829153 
L 162.623807 107.829153 
L 162.623807 86.900339 
L 165.667443 86.900339 
L 165.667443 79.639322 
L 168.71108 79.639322 
L 168.71108 72.805424 
L 171.754716 72.805424 
L 171.754716 50.595254 
L 174.798352 50.595254 
L 174.798352 57.429153 
L 177.841989 57.429153 
L 177.841989 51.87661 
L 180.885625 51.87661 
L 180.885625 35.646102 
L 183.929261 35.646102 
L 183.929261 44.188475 
L 186.972898 44.188475 
L 186.972898 44.615593 
L 190.016534 44.615593 
L 190.016534 45.896949 
L 193.06017 45.896949 
L 193.06017 35.646102 
L 196.103807 35.646102 
L 196.103807 42.907119 
L 199.147443 42.907119 
L 199.147443 61.27322 
L 202.19108 61.27322 
L 202.19108 68.534237 
L 205.234716 68.534237 
L 205.234716 61.700339 
L 208.278352 61.700339 
L 208.278352 57.429153 
L 211.321989 57.429153 
L 211.321989 76.649492 
L 214.365625 76.649492 
L 214.365625 51.87661 
L 217.409261 51.87661 
L 217.409261 66.398644 
L 220.452898 66.398644 
L 220.452898 70.669831 
L 223.496534 70.669831 
L 223.496534 67.252881 
L 226.54017 67.252881 
L 226.54017 76.649492 
L 229.583807 76.649492 
L 229.583807 72.378305 
L 232.627443 72.378305 
L 232.627443 91.598644 
L 235.67108 91.598644 
L 235.67108 80.493559 
L 238.714716 80.493559 
L 238.714716 76.649492 
L 241.758352 76.649492 
L 241.758352 93.734237 
L 244.801989 93.734237 
L 244.801989 85.191864 
L 247.845625 85.191864 
L 247.845625 101.422373 
L 250.889261 101.422373 
L 250.889261 97.578305 
L 253.932898 97.578305 
L 253.932898 110.818983 
L 256.976534 110.818983 
L 256.976534 103.557966 
L 260.02017 103.557966 
L 260.02017 95.015593 
L 263.063807 95.015593 
L 263.063807 103.557966 
L 266.107443 103.557966 
L 266.107443 111.246102 
L 269.15108 111.246102 
L 269.15108 104.412203 
L 272.194716 104.412203 
L 272.194716 106.547797 
L 275.238352 106.547797 
L 275.238352 112.954576 
L 278.281989 112.954576 
L 278.281989 123.632542 
L 281.325625 123.632542 
L 281.325625 130.893559 
L 284.369261 130.893559 
L 284.369261 122.778305 
L 287.412898 122.778305 
L 287.412898 136.446102 
L 290.456534 136.446102 
L 290.456534 139.863051 
L 293.50017 139.863051 
L 293.50017 150.968136 
L 296.543807 150.968136 
L 296.543807 153.103729 
L 299.587443 153.103729 
L 299.587443 168.907119 
L 302.63108 168.907119 
L 302.63108 177.022373 
L 305.674716 177.022373 
L 305.674716 190.690169 
L 308.718352 190.690169 
L 308.718352 192.398644 
L 311.761989 192.398644 
L 311.761989 200.08678 
L 314.805625 200.08678 
L 314.805625 204.785085 
L 317.849261 204.785085 
L 317.849261 213.327458 
L 320.892898 213.327458 
L 320.892898 216.744407 
L 323.936534 216.744407 
L 323.936534 218.452881 
L 326.98017 218.452881 
L 326.98017 218.88 
L 366.547443 218.88 
L 366.547443 218.88 
" clip-path="url(#p11aa4bdfe6)" style="fill: none; stroke: #9467bd; stroke-width: 1.5; stroke-linecap: square"/>
   </g>
   <g id="patch_3">
    <path d="M 46.965625 228.96 
L 46.965625 7.2 
" style="fill: none; stroke: #000000; stroke-width: 0.8; stroke-linejoin: miter; stroke-linecap: square"/>
   </g>
   <g id="patch_4">
    <path d="M 381.765625 228.96 
L 381.765625 7.2 
" style="fill: none; stroke: #000000; stroke-width: 0.8; stroke-linejoin: miter; stroke-linecap: square"/>
   </g>
   <g id="patch_5">
    <path d="M 46.965625 228.96 
L 381.765625 228.96 
" style="fill: none; stroke: #000000; stroke-width: 0.8; stroke-linejoin: miter; stroke-linecap: square"/>
   </g>
   <g id="patch_6">
    <path d="M 46.965625 7.2 
L 381.765625 7.2 
" style="fill: none; stroke: #000000; stroke-width: 0.8; stroke-linejoin: miter; stroke-linecap: square"/>
   </g>
   <g id="legend_1">
    <g id="patch_7">
     <path d="M 300.542188 88.590625 
L 374.765625 88.590625 
Q 376.765625 88.590625 376.765625 86.590625 
L 376.765625 14.2 
Q 376.765625 12.2 374.765625 12.2 
L 300.542188 12.2 
Q 298.542188 12.2 298.542188 14.2 
L 298.542188 86.590625 
Q 298.542188 88.590625 300.542188 88.590625 
z
" style="fill: #ffffff; opacity: 0.8; stroke: #cccccc; stroke-linejoin: miter"/>
    </g>
    <g id="line2d_18">
     <path d="M 302.542188 20.298437 
L 302.542188 20.298437 
L 312.542188 20.298437 
L 312.542188 20.298437 
L 322.542188 20.298437 
" style="fill: none; stroke: #1f77b4; stroke-width: 1.5; stroke-linecap: square"/>
    </g>
    <g id="text_15">
     <!-- beam -->
     <g transform="translate(330.542188 23.798437) scale(0.1 -0.1)">
      <defs>
       <path id="DejaVuSans-62" d="M 3116 1747 
Q 3116 2381 2855 2742 
Q 2594 3103 2138 3103 
Q 1681 3103 1420 2742 
Q 1159 2381 1159 1747 
Q 1159 1113 1420 752 
Q 1681 391 2138 391 
Q 2594 391 2855 752 
Q 3116 1113 3116 1747 
z
M 1159 2969 
Q 1341 3281 1617 3432 
Q 1894 3584 2278 3584 
Q 2916 3584 3314 3078 
Q 3713 2572 3713 1747 
Q 3713 922 3314 415 
Q 2916 -91 2278 -91 
Q 1894 -91 1617 61 
Q 1341 213 1159 525 
L 1159 0 
L 581 0 
L 581 4863 
L 1159 4863 
L 1159 2969 
z
" transform="scale(0.015625)"/>
       <path id="DejaVuSans-6d" d="M 3328 2828 
Q 3544 3216 3844 3400 
Q 4144 3584 4550 3584 
Q 5097 3584 5394 3201 
Q 5691 2819 5691 2113 
L 5691 0 
L 5113 0 
L 5113 2094 
Q 5113 2597 4934 2840 
Q 4756 3084 4391 3084 
Q 3944 3084 3684 2787 
Q 3425 2491 3425 1978 
L 3425 0 
L 2847 0 
L 2847 2094 
Q 2847 2600 2669 2842 
Q 2491 3084 2119 3084 
Q 1678 3084 1418 2786 
Q 1159 2488 1159 1978 
L 1159 0 
L 581 0 
L 581 3500 
L 1159 3500 
L 1159 2956 
Q 1356 3278 1631 3431 
Q 1906 3584 2284 3584 
Q 2666 3584 2933 3390 
Q 3200 3197 3328 2828 
z
" transform="scale(0.015625)"/>
      </defs>
      <use xlink:href="#DejaVuSans-62"/>
      <use xlink:href="#DejaVuSans-65" transform="translate(63.476562 0)"/>
      <use xlink:href="#DejaVuSans-61" transform="translate(125 0)"/>
      <use xlink:href="#DejaVuSans-6d" transform="translate(186.279297 0)"/>
     </g>
    </g>
    <g id="line2d_19">
     <path d="M 302.542188 34.976562 
L 302.542188 34.976562 
L 312.542188 34.976562 
L 312.542188 34.976562 
L 322.542188 34.976562 
" style="fill: none; stroke: #ff7f0e; stroke-width: 1.5; stroke-linecap: square"/>
    </g>
    <g id="text_16">
     <!-- sample -->
     <g transform="translate(330.542188 38.476562) scale(0.1 -0.1)">
      <defs>
       <path id="DejaVuSans-70" d="M 1159 525 
L 1159 -1331 
L 581 -1331 
L 581 3500 
L 1159 3500 
L 1159 2969 
Q 1341 3281 1617 3432 
Q 1894 3584 2278 3584 
Q 2916 3584 3314 3078 
Q 3713 2572 3713 1747 
Q 3713 922 3314 415 
Q 2916 -91 2278 -91 
Q 1894 -91 1617 61 
Q 1341 213 1159 525 
z
M 3116 1747 
Q 3116 2381 2855 2742 
Q 2594 3103 2138 3103 
Q 1681 3103 1420 2742 
Q 1159 2381 1159 1747 
Q 1159 1113 1420 752 
Q 1681 391 2138 391 
Q 2594 391 2855 752 
Q 3116 1113 3116 1747 
z
" transform="scale(0.015625)"/>
      </defs>
      <use xlink:href="#DejaVuSans-73"/>
      <use xlink:href="#DejaVuSans-61" transform="translate(52.099609 0)"/>
      <use xlink:href="#DejaVuSans-6d" transform="translate(113.378906 0)"/>
      <use xlink:href="#DejaVuSans-70" transform="translate(210.791016 0)"/>
      <use xlink:href="#DejaVuSans-6c" transform="translate(274.267578 0)"/>
      <use xlink:href="#DejaVuSans-65" transform="translate(302.050781 0)"/>
     </g>
    </g>
    <g id="line2d_20">
     <path d="M 302.542188 49.654687 
L 302.542188 49.654687 
L 312.542188 49.654687 
L 312.542188 49.654687 
L 322.542188 49.654687 
" style="fill: none; stroke: #2ca02c; stroke-width: 1.5; stroke-linecap: square"/>
    </g>
    <g id="text_17">
     <!-- monitor -->
     <g transform="translate(330.542188 53.154687) scale(0.1 -0.1)">
      <defs>
       <path id="DejaVuSans-69" d="M 603 3500 
L 1178 3500 
L 1178 0 
L 603 0 
L 603 3500 
z
M 603 4863 
L 1178 4863 
L 1178 4134 
L 603 4134 
L 603 4863 
z
" transform="scale(0.015625)"/>
       <path id="DejaVuSans-72" d="M 2631 2963 
Q 2534 3019 2420 3045 
Q 2306 3072 2169 3072 
Q 1681 3072 1420 2755 
Q 1159 2438 1159 1844 
L 1159 0 
L 581 0 
L 581 3500 
L 1159 3500 
L 1159 2956 
Q 1341 3275 1631 3429 
Q 1922 3584 2338 3584 
Q 2397 3584 2469 3576 
Q 2541 3569 2628 3553 
L 2631 2963 
z
" transform="scale(0.015625)"/>
      </defs>
      <use xlink:href="#DejaVuSans-6d"/>
      <use xlink:href="#DejaVuSans-6f" transform="translate(97.412109 0)"/>
      <use xlink:href="#DejaVuSans-6e" transform="translate(158.59375 0)"/>
      <use xlink:href="#DejaVuSans-69" transform="translate(221.972656 0)"/>
      <use xlink:href="#DejaVuSans-74" transform="translate(249.755859 0)"/>
      <use xlink:href="#DejaVuSans-6f" transform="translate(288.964844 0)"/>
      <use xlink:href="#DejaVuSans-72" transform="translate(350.146484 0)"/>
     </g>
    </g>
    <g id="line2d_21">
     <path d="M 302.542188 64.332812 
L 302.542188 64.332812 
L 312.542188 64.332812 
L 312.542188 64.332812 
L 322.542188 64.332812 
" style="fill: none; stroke: #d62728; stroke-width: 1.5; stroke-linecap: square"/>
    </g>
    <g id="text_18">
     <!-- detector -->
     <g transform="translate(330.542188 67.832812) scale(0.1 -0.1)">
      <defs>
       <path id="DejaVuSans-64" d="M 2906 2969 
L 2906 4863 
L 3481 4863 
L 3481 0 
L 2906 0 
L 2906 525 
Q 2725 213 2448 61 
Q 2172 -91 1784 -91 
Q 1150 -91 751 415 
Q 353 922 353 1747 
Q 353 2572 751 3078 
Q 1150 3584 1784 3584 
Q 2172 3584 2448 3432 
Q 2725 3281 2906 2969 
z
M 947 1747 
Q 947 1113 1208 752 
Q 1469 391 1925 391 
Q 2381 391 2643 752 
Q 2906 1113 2906 1747 
Q 2906 2381 2643 2742 
Q 2381 3103 1925 3103 
Q 1469 3103 1208 2742 
Q 947 2381 947 1747 
z
" transform="scale(0.015625)"/>
      </defs>
      <use xlink:href="#DejaVuSans-64"/>
      <use xlink:href="#DejaVuSans-65" transform="translate(63.476562 0)"/>
      <use xlink:href="#DejaVuSans-74" transform="translate(125 0)"/>
      <use xlink:href="#DejaVuSans-65" transform="translate(164.208984 0)"/>
      <use xlink:href="#DejaVuSans-63" transform="translate(225.732422 0)"/>
      <use xlink:href="#DejaVuSans-74" transform="translate(280.712891 0)"/>
      <use xlink:href="#DejaVuSans-6f" transform="translate(319.921875 0)"/>
      <use xlink:href="#DejaVuSans-72" transform="translate(381.103516 0)"/>
     </g>
    </g>
    <g id="line2d_22">
     <path d="M 302.542188 79.010937 
L 302.542188 79.010937 
L 312.542188 79.010937 
L 312.542188 79.010937 
L 322.542188 79.010937 
" style="fill: none; stroke: #9467bd; stroke-width: 1.5; stroke-linecap: square"/>
    </g>
    <g id="text_19">
     <!-- true -->
     <g transform="translate(330.542188 82.510937) scale(0.1 -0.1)">
      <use xlink:href="#DejaVuSans-74"/>
      <use xlink:href="#DejaVuSans-72" transform="translate(39.208984 0)"/>
      <use xlink:href="#DejaVuSans-75" transform="translate(80.322266 0)"/>
      <use xlink:href="#DejaVuSans-65" transform="translate(143.701172 0)"/>
     </g>
    </g>
   </g>
  </g>
 </g>
 <defs>
  <clipPath id="p11aa4bdfe6">
   <rect x="46.965625" y="7.2" width="334.8" height="221.76"/>
  </clipPath>
 </defs>
</svg>
