<?xml version="1.0" encoding="utf-8" standalone="no"?>
<!DOCTYPE svg PUBLIC "-//W3C//DTD SVG 1.1//EN"
  "http://www.w3.org/Graphics/SVG/1.1/DTD/svg11.dtd">
<svg xmlns:xlink="http://www.w3.org/1999/xlink" width="401.690625pt" height="266.51625pt" viewBox="0 0 401.690625 266.51625" xmlns="http://www.w3.org/2000/svg" version="1.1">
 <metadata>
  <rdf:RDF xmlns:dc="http://purl.org/dc/elements/1.1/" xmlns:cc="http://creativecommons.org/ns#" xmlns:rdf="http://www.w3.org/1999/02/22-rdf-syntax-ns#">
   <cc:Work>
    <dc:type rdf:resource="http://purl.org/dc/dcmitype/StillImage"/>
    <dc:date>2025-04-10T08:51:14.920887</dc:date>
    <dc:format>image/svg+xml</dc:format>
    <dc:creator>
     <cc:Agent>
      <dc:title>Matplotlib v3.10.1, https://matplotlib.org/</dc:title>
     </cc:Agent>
    </dc:creator>
   </cc:Work>
  </rdf:RDF>
 </metadata>
 <defs>
  <style type="text/css">*{stroke-linejoin: round; stroke-linecap: butt}</style>
 </defs>
 <g id="figure_1">
  <g id="patch_1">
   <path d="M 0 266.51625 
L 401.690625 266.51625 
L 401.690625 0 
L 0 0 
z
" style="fill: #ffffff"/>
  </g>
  <g id="axes_1">
   <g id="patch_2">
    <path d="M 59.690625 228.96 
L 394.490625 228.96 
L 394.490625 7.2 
L 59.690625 7.2 
z
" style="fill: #ffffff"/>
   </g>
   <g id="matplotlib.axis_1">
    <g id="xtick_1">
     <g id="line2d_1">
      <defs>
       <path id="m9258bd586f" d="M 0 0 
L 0 3.5 
" style="stroke: #000000; stroke-width: 0.8"/>
      </defs>
      <g>
       <use xlink:href="#m9258bd586f" x="80.875434" y="228.96" style="stroke: #000000; stroke-width: 0.8"/>
      </g>
     </g>
     <g id="text_1">
      <!-- 20000 -->
      <g transform="translate(64.969184 243.558437) scale(0.1 -0.1)">
       <defs>
        <path id="DejaVuSans-32" d="M 1228 531 
L 3431 531 
L 3431 0 
L 469 0 
L 469 531 
Q 828 903 1448 1529 
Q 2069 2156 2228 2338 
Q 2531 2678 2651 2914 
Q 2772 3150 2772 3378 
Q 2772 3750 2511 3984 
Q 2250 4219 1831 4219 
Q 1534 4219 1204 4116 
Q 875 4013 500 3803 
L 500 4441 
Q 881 4594 1212 4672 
Q 1544 4750 1819 4750 
Q 2544 4750 2975 4387 
Q 3406 4025 3406 3419 
Q 3406 3131 3298 2873 
Q 3191 2616 2906 2266 
Q 2828 2175 2409 1742 
Q 1991 1309 1228 531 
z
" transform="scale(0.015625)"/>
        <path id="DejaVuSans-30" d="M 2034 4250 
Q 1547 4250 1301 3770 
Q 1056 3291 1056 2328 
Q 1056 1369 1301 889 
Q 1547 409 2034 409 
Q 2525 409 2770 889 
Q 3016 1369 3016 2328 
Q 3016 3291 2770 3770 
Q 2525 4250 2034 4250 
z
M 2034 4750 
Q 2819 4750 3233 4129 
Q 3647 3509 3647 2328 
Q 3647 1150 3233 529 
Q 2819 -91 2034 -91 
Q 1250 -91 836 529 
Q 422 1150 422 2328 
Q 422 3509 836 4129 
Q 1250 4750 2034 4750 
z
" transform="scale(0.015625)"/>
       </defs>
       <use xlink:href="#DejaVuSans-32"/>
       <use xlink:href="#DejaVuSans-30" transform="translate(63.623047 0)"/>
       <use xlink:href="#DejaVuSans-30" transform="translate(127.246094 0)"/>
       <use xlink:href="#DejaVuSans-30" transform="translate(190.869141 0)"/>
       <use xlink:href="#DejaVuSans-30" transform="translate(254.492188 0)"/>
      </g>
     </g>
    </g>
    <g id="xtick_2">
     <g id="line2d_2">
      <g>
       <use xlink:href="#m9258bd586f" x="121.729613" y="228.96" style="stroke: #000000; stroke-width: 0.8"/>
      </g>
     </g>
     <g id="text_2">
      <!-- 40000 -->
      <g transform="translate(105.823363 243.558437) scale(0.1 -0.1)">
       <defs>
        <path id="DejaVuSans-34" d="M 2419 4116 
L 825 1625 
L 2419 1625 
L 2419 4116 
z
M 2253 4666 
L 3047 4666 
L 3047 1625 
L 3713 1625 
L 3713 1100 
L 3047 1100 
L 3047 0 
L 2419 0 
L 2419 1100 
L 313 1100 
L 313 1709 
L 2253 4666 
z
" transform="scale(0.015625)"/>
       </defs>
       <use xlink:href="#DejaVuSans-34"/>
       <use xlink:href="#DejaVuSans-30" transform="translate(63.623047 0)"/>
       <use xlink:href="#DejaVuSans-30" transform="translate(127.246094 0)"/>
       <use xlink:href="#DejaVuSans-30" transform="translate(190.869141 0)"/>
       <use xlink:href="#DejaVuSans-30" transform="translate(254.492188 0)"/>
      </g>
     </g>
    </g>
    <g id="xtick_3">
     <g id="line2d_3">
      <g>
       <use xlink:href="#m9258bd586f" x="162.583793" y="228.96" style="stroke: #000000; stroke-width: 0.8"/>
      </g>
     </g>
     <g id="text_3">
      <!-- 60000 -->
      <g transform="translate(146.677543 243.558437) scale(0.1 -0.1)">
       <defs>
        <path id="DejaVuSans-36" d="M 2113 2584 
Q 1688 2584 1439 2293 
Q 1191 2003 1191 1497 
Q 1191 994 1439 701 
Q 1688 409 2113 409 
Q 2538 409 2786 701 
Q 3034 994 3034 1497 
Q 3034 2003 2786 2293 
Q 2538 2584 2113 2584 
z
M 3366 4563 
L 3366 3988 
Q 3128 4100 2886 4159 
Q 2644 4219 2406 4219 
Q 1781 4219 1451 3797 
Q 1122 3375 1075 2522 
Q 1259 2794 1537 2939 
Q 1816 3084 2150 3084 
Q 2853 3084 3261 2657 
Q 3669 2231 3669 1497 
Q 3669 778 3244 343 
Q 2819 -91 2113 -91 
Q 1303 -91 875 529 
Q 447 1150 447 2328 
Q 447 3434 972 4092 
Q 1497 4750 2381 4750 
Q 2619 4750 2861 4703 
Q 3103 4656 3366 4563 
z
" transform="scale(0.015625)"/>
       </defs>
       <use xlink:href="#DejaVuSans-36"/>
       <use xlink:href="#DejaVuSans-30" transform="translate(63.623047 0)"/>
       <use xlink:href="#DejaVuSans-30" transform="translate(127.246094 0)"/>
       <use xlink:href="#DejaVuSans-30" transform="translate(190.869141 0)"/>
       <use xlink:href="#DejaVuSans-30" transform="translate(254.492188 0)"/>
      </g>
     </g>
    </g>
    <g id="xtick_4">
     <g id="line2d_4">
      <g>
       <use xlink:href="#m9258bd586f" x="203.437972" y="228.96" style="stroke: #000000; stroke-width: 0.8"/>
      </g>
     </g>
     <g id="text_4">
      <!-- 80000 -->
      <g transform="translate(187.531722 243.558437) scale(0.1 -0.1)">
       <defs>
        <path id="DejaVuSans-38" d="M 2034 2216 
Q 1584 2216 1326 1975 
Q 1069 1734 1069 1313 
Q 1069 891 1326 650 
Q 1584 409 2034 409 
Q 2484 409 2743 651 
Q 3003 894 3003 1313 
Q 3003 1734 2745 1975 
Q 2488 2216 2034 2216 
z
M 1403 2484 
Q 997 2584 770 2862 
Q 544 3141 544 3541 
Q 544 4100 942 4425 
Q 1341 4750 2034 4750 
Q 2731 4750 3128 4425 
Q 3525 4100 3525 3541 
Q 3525 3141 3298 2862 
Q 3072 2584 2669 2484 
Q 3125 2378 3379 2068 
Q 3634 1759 3634 1313 
Q 3634 634 3220 271 
Q 2806 -91 2034 -91 
Q 1263 -91 848 271 
Q 434 634 434 1313 
Q 434 1759 690 2068 
Q 947 2378 1403 2484 
z
M 1172 3481 
Q 1172 3119 1398 2916 
Q 1625 2713 2034 2713 
Q 2441 2713 2670 2916 
Q 2900 3119 2900 3481 
Q 2900 3844 2670 4047 
Q 2441 4250 2034 4250 
Q 1625 4250 1398 4047 
Q 1172 3844 1172 3481 
z
" transform="scale(0.015625)"/>
       </defs>
       <use xlink:href="#DejaVuSans-38"/>
       <use xlink:href="#DejaVuSans-30" transform="translate(63.623047 0)"/>
       <use xlink:href="#DejaVuSans-30" transform="translate(127.246094 0)"/>
       <use xlink:href="#DejaVuSans-30" transform="translate(190.869141 0)"/>
       <use xlink:href="#DejaVuSans-30" transform="translate(254.492188 0)"/>
      </g>
     </g>
    </g>
    <g id="xtick_5">
     <g id="line2d_5">
      <g>
       <use xlink:href="#m9258bd586f" x="244.292151" y="228.96" style="stroke: #000000; stroke-width: 0.8"/>
      </g>
     </g>
     <g id="text_5">
      <!-- 100000 -->
      <g transform="translate(225.204651 243.558437) scale(0.1 -0.1)">
       <defs>
        <path id="DejaVuSans-31" d="M 794 531 
L 1825 531 
L 1825 4091 
L 703 3866 
L 703 4441 
L 1819 4666 
L 2450 4666 
L 2450 531 
L 3481 531 
L 3481 0 
L 794 0 
L 794 531 
z
" transform="scale(0.015625)"/>
       </defs>
       <use xlink:href="#DejaVuSans-31"/>
       <use xlink:href="#DejaVuSans-30" transform="translate(63.623047 0)"/>
       <use xlink:href="#DejaVuSans-30" transform="translate(127.246094 0)"/>
       <use xlink:href="#DejaVuSans-30" transform="translate(190.869141 0)"/>
       <use xlink:href="#DejaVuSans-30" transform="translate(254.492188 0)"/>
       <use xlink:href="#DejaVuSans-30" transform="translate(318.115234 0)"/>
      </g>
     </g>
    </g>
    <g id="xtick_6">
     <g id="line2d_6">
      <g>
       <use xlink:href="#m9258bd586f" x="285.146331" y="228.96" style="stroke: #000000; stroke-width: 0.8"/>
      </g>
     </g>
     <g id="text_6">
      <!-- 120000 -->
      <g transform="translate(266.058831 243.558437) scale(0.1 -0.1)">
       <use xlink:href="#DejaVuSans-31"/>
       <use xlink:href="#DejaVuSans-32" transform="translate(63.623047 0)"/>
       <use xlink:href="#DejaVuSans-30" transform="translate(127.246094 0)"/>
       <use xlink:href="#DejaVuSans-30" transform="translate(190.869141 0)"/>
       <use xlink:href="#DejaVuSans-30" transform="translate(254.492188 0)"/>
       <use xlink:href="#DejaVuSans-30" transform="translate(318.115234 0)"/>
      </g>
     </g>
    </g>
    <g id="xtick_7">
     <g id="line2d_7">
      <g>
       <use xlink:href="#m9258bd586f" x="326.00051" y="228.96" style="stroke: #000000; stroke-width: 0.8"/>
      </g>
     </g>
     <g id="text_7">
      <!-- 140000 -->
      <g transform="translate(306.91301 243.558437) scale(0.1 -0.1)">
       <use xlink:href="#DejaVuSans-31"/>
       <use xlink:href="#DejaVuSans-34" transform="translate(63.623047 0)"/>
       <use xlink:href="#DejaVuSans-30" transform="translate(127.246094 0)"/>
       <use xlink:href="#DejaVuSans-30" transform="translate(190.869141 0)"/>
       <use xlink:href="#DejaVuSans-30" transform="translate(254.492188 0)"/>
       <use xlink:href="#DejaVuSans-30" transform="translate(318.115234 0)"/>
      </g>
     </g>
    </g>
    <g id="xtick_8">
     <g id="line2d_8">
      <g>
       <use xlink:href="#m9258bd586f" x="366.85469" y="228.96" style="stroke: #000000; stroke-width: 0.8"/>
      </g>
     </g>
     <g id="text_8">
      <!-- 160000 -->
      <g transform="translate(347.76719 243.558437) scale(0.1 -0.1)">
       <use xlink:href="#DejaVuSans-31"/>
       <use xlink:href="#DejaVuSans-36" transform="translate(63.623047 0)"/>
       <use xlink:href="#DejaVuSans-30" transform="translate(127.246094 0)"/>
       <use xlink:href="#DejaVuSans-30" transform="translate(190.869141 0)"/>
       <use xlink:href="#DejaVuSans-30" transform="translate(254.492188 0)"/>
       <use xlink:href="#DejaVuSans-30" transform="translate(318.115234 0)"/>
      </g>
     </g>
    </g>
    <g id="text_9">
     <!-- tof [µs] -->
     <g transform="translate(209.034375 257.236562) scale(0.1 -0.1)">
      <defs>
       <path id="DejaVuSans-74" d="M 1172 4494 
L 1172 3500 
L 2356 3500 
L 2356 3053 
L 1172 3053 
L 1172 1153 
Q 1172 725 1289 603 
Q 1406 481 1766 481 
L 2356 481 
L 2356 0 
L 1766 0 
Q 1100 0 847 248 
Q 594 497 594 1153 
L 594 3053 
L 172 3053 
L 172 3500 
L 594 3500 
L 594 4494 
L 1172 4494 
z
" transform="scale(0.015625)"/>
       <path id="DejaVuSans-6f" d="M 1959 3097 
Q 1497 3097 1228 2736 
Q 959 2375 959 1747 
Q 959 1119 1226 758 
Q 1494 397 1959 397 
Q 2419 397 2687 759 
Q 2956 1122 2956 1747 
Q 2956 2369 2687 2733 
Q 2419 3097 1959 3097 
z
M 1959 3584 
Q 2709 3584 3137 3096 
Q 3566 2609 3566 1747 
Q 3566 888 3137 398 
Q 2709 -91 1959 -91 
Q 1206 -91 779 398 
Q 353 888 353 1747 
Q 353 2609 779 3096 
Q 1206 3584 1959 3584 
z
" transform="scale(0.015625)"/>
       <path id="DejaVuSans-66" d="M 2375 4863 
L 2375 4384 
L 1825 4384 
Q 1516 4384 1395 4259 
Q 1275 4134 1275 3809 
L 1275 3500 
L 2222 3500 
L 2222 3053 
L 1275 3053 
L 1275 0 
L 697 0 
L 697 3053 
L 147 3053 
L 147 3500 
L 697 3500 
L 697 3744 
Q 697 4328 969 4595 
Q 1241 4863 1831 4863 
L 2375 4863 
z
" transform="scale(0.015625)"/>
       <path id="DejaVuSans-20" transform="scale(0.015625)"/>
       <path id="DejaVuSans-5b" d="M 550 4863 
L 1875 4863 
L 1875 4416 
L 1125 4416 
L 1125 -397 
L 1875 -397 
L 1875 -844 
L 550 -844 
L 550 4863 
z
" transform="scale(0.015625)"/>
       <path id="DejaVuSans-b5" d="M 544 -1331 
L 544 3500 
L 1119 3500 
L 1119 1325 
Q 1119 872 1334 640 
Q 1550 409 1972 409 
Q 2434 409 2667 671 
Q 2900 934 2900 1459 
L 2900 3500 
L 3475 3500 
L 3475 806 
Q 3475 619 3529 530 
Q 3584 441 3700 441 
Q 3728 441 3778 458 
Q 3828 475 3916 513 
L 3916 50 
Q 3788 -22 3673 -56 
Q 3559 -91 3450 -91 
Q 3234 -91 3106 31 
Q 2978 153 2931 403 
Q 2775 156 2548 32 
Q 2322 -91 2016 -91 
Q 1697 -91 1473 31 
Q 1250 153 1119 397 
L 1119 -1331 
L 544 -1331 
z
" transform="scale(0.015625)"/>
       <path id="DejaVuSans-73" d="M 2834 3397 
L 2834 2853 
Q 2591 2978 2328 3040 
Q 2066 3103 1784 3103 
Q 1356 3103 1142 2972 
Q 928 2841 928 2578 
Q 928 2378 1081 2264 
Q 1234 2150 1697 2047 
L 1894 2003 
Q 2506 1872 2764 1633 
Q 3022 1394 3022 966 
Q 3022 478 2636 193 
Q 2250 -91 1575 -91 
Q 1294 -91 989 -36 
Q 684 19 347 128 
L 347 722 
Q 666 556 975 473 
Q 1284 391 1588 391 
Q 1994 391 2212 530 
Q 2431 669 2431 922 
Q 2431 1156 2273 1281 
Q 2116 1406 1581 1522 
L 1381 1569 
Q 847 1681 609 1914 
Q 372 2147 372 2553 
Q 372 3047 722 3315 
Q 1072 3584 1716 3584 
Q 2034 3584 2315 3537 
Q 2597 3491 2834 3397 
z
" transform="scale(0.015625)"/>
       <path id="DejaVuSans-5d" d="M 1947 4863 
L 1947 -844 
L 622 -844 
L 622 -397 
L 1369 -397 
L 1369 4416 
L 622 4416 
L 622 4863 
L 1947 4863 
z
" transform="scale(0.015625)"/>
      </defs>
      <use xlink:href="#DejaVuSans-74"/>
      <use xlink:href="#DejaVuSans-6f" transform="translate(39.208984 0)"/>
      <use xlink:href="#DejaVuSans-66" transform="translate(100.390625 0)"/>
      <use xlink:href="#DejaVuSans-20" transform="translate(135.595703 0)"/>
      <use xlink:href="#DejaVuSans-5b" transform="translate(167.382812 0)"/>
      <use xlink:href="#DejaVuSans-b5" transform="translate(206.396484 0)"/>
      <use xlink:href="#DejaVuSans-73" transform="translate(270.019531 0)"/>
      <use xlink:href="#DejaVuSans-5d" transform="translate(322.119141 0)"/>
     </g>
    </g>
   </g>
   <g id="matplotlib.axis_2">
    <g id="ytick_1">
     <g id="line2d_9">
      <defs>
       <path id="m2bd420027a" d="M 0 0 
L -3.5 0 
" style="stroke: #000000; stroke-width: 0.8"/>
      </defs>
      <g>
       <use xlink:href="#m2bd420027a" x="59.690625" y="218.88" style="stroke: #000000; stroke-width: 0.8"/>
      </g>
     </g>
     <g id="text_10">
      <!-- 0 -->
      <g transform="translate(46.328125 222.679219) scale(0.1 -0.1)">
       <use xlink:href="#DejaVuSans-30"/>
      </g>
     </g>
    </g>
    <g id="ytick_2">
     <g id="line2d_10">
      <g>
       <use xlink:href="#m2bd420027a" x="59.690625" y="185.765677" style="stroke: #000000; stroke-width: 0.8"/>
      </g>
     </g>
     <g id="text_11">
      <!-- 2000 -->
      <g transform="translate(27.240625 189.564895) scale(0.1 -0.1)">
       <use xlink:href="#DejaVuSans-32"/>
       <use xlink:href="#DejaVuSans-30" transform="translate(63.623047 0)"/>
       <use xlink:href="#DejaVuSans-30" transform="translate(127.246094 0)"/>
       <use xlink:href="#DejaVuSans-30" transform="translate(190.869141 0)"/>
      </g>
     </g>
    </g>
    <g id="ytick_3">
     <g id="line2d_11">
      <g>
       <use xlink:href="#m2bd420027a" x="59.690625" y="152.651353" style="stroke: #000000; stroke-width: 0.8"/>
      </g>
     </g>
     <g id="text_12">
      <!-- 4000 -->
      <g transform="translate(27.240625 156.450572) scale(0.1 -0.1)">
       <use xlink:href="#DejaVuSans-34"/>
       <use xlink:href="#DejaVuSans-30" transform="translate(63.623047 0)"/>
       <use xlink:href="#DejaVuSans-30" transform="translate(127.246094 0)"/>
       <use xlink:href="#DejaVuSans-30" transform="translate(190.869141 0)"/>
      </g>
     </g>
    </g>
    <g id="ytick_4">
     <g id="line2d_12">
      <g>
       <use xlink:href="#m2bd420027a" x="59.690625" y="119.53703" style="stroke: #000000; stroke-width: 0.8"/>
      </g>
     </g>
     <g id="text_13">
      <!-- 6000 -->
      <g transform="translate(27.240625 123.336249) scale(0.1 -0.1)">
       <use xlink:href="#DejaVuSans-36"/>
       <use xlink:href="#DejaVuSans-30" transform="translate(63.623047 0)"/>
       <use xlink:href="#DejaVuSans-30" transform="translate(127.246094 0)"/>
       <use xlink:href="#DejaVuSans-30" transform="translate(190.869141 0)"/>
      </g>
     </g>
    </g>
    <g id="ytick_5">
     <g id="line2d_13">
      <g>
       <use xlink:href="#m2bd420027a" x="59.690625" y="86.422707" style="stroke: #000000; stroke-width: 0.8"/>
      </g>
     </g>
     <g id="text_14">
      <!-- 8000 -->
      <g transform="translate(27.240625 90.221926) scale(0.1 -0.1)">
       <use xlink:href="#DejaVuSans-38"/>
       <use xlink:href="#DejaVuSans-30" transform="translate(63.623047 0)"/>
       <use xlink:href="#DejaVuSans-30" transform="translate(127.246094 0)"/>
       <use xlink:href="#DejaVuSans-30" transform="translate(190.869141 0)"/>
      </g>
     </g>
    </g>
    <g id="ytick_6">
     <g id="line2d_14">
      <g>
       <use xlink:href="#m2bd420027a" x="59.690625" y="53.308384" style="stroke: #000000; stroke-width: 0.8"/>
      </g>
     </g>
     <g id="text_15">
      <!-- 10000 -->
      <g transform="translate(20.878125 57.107602) scale(0.1 -0.1)">
       <use xlink:href="#DejaVuSans-31"/>
       <use xlink:href="#DejaVuSans-30" transform="translate(63.623047 0)"/>
       <use xlink:href="#DejaVuSans-30" transform="translate(127.246094 0)"/>
       <use xlink:href="#DejaVuSans-30" transform="translate(190.869141 0)"/>
       <use xlink:href="#DejaVuSans-30" transform="translate(254.492188 0)"/>
      </g>
     </g>
    </g>
    <g id="ytick_7">
     <g id="line2d_15">
      <g>
       <use xlink:href="#m2bd420027a" x="59.690625" y="20.19406" style="stroke: #000000; stroke-width: 0.8"/>
      </g>
     </g>
     <g id="text_16">
      <!-- 12000 -->
      <g transform="translate(20.878125 23.993279) scale(0.1 -0.1)">
       <use xlink:href="#DejaVuSans-31"/>
       <use xlink:href="#DejaVuSans-32" transform="translate(63.623047 0)"/>
       <use xlink:href="#DejaVuSans-30" transform="translate(127.246094 0)"/>
       <use xlink:href="#DejaVuSans-30" transform="translate(190.869141 0)"/>
       <use xlink:href="#DejaVuSans-30" transform="translate(254.492188 0)"/>
      </g>
     </g>
    </g>
    <g id="text_17">
     <!-- [counts] -->
     <g transform="translate(14.798438 138.6925) rotate(-90) scale(0.1 -0.1)">
      <defs>
       <path id="DejaVuSans-63" d="M 3122 3366 
L 3122 2828 
Q 2878 2963 2633 3030 
Q 2388 3097 2138 3097 
Q 1578 3097 1268 2742 
Q 959 2388 959 1747 
Q 959 1106 1268 751 
Q 1578 397 2138 397 
Q 2388 397 2633 464 
Q 2878 531 3122 666 
L 3122 134 
Q 2881 22 2623 -34 
Q 2366 -91 2075 -91 
Q 1284 -91 818 406 
Q 353 903 353 1747 
Q 353 2603 823 3093 
Q 1294 3584 2113 3584 
Q 2378 3584 2631 3529 
Q 2884 3475 3122 3366 
z
" transform="scale(0.015625)"/>
       <path id="DejaVuSans-75" d="M 544 1381 
L 544 3500 
L 1119 3500 
L 1119 1403 
Q 1119 906 1312 657 
Q 1506 409 1894 409 
Q 2359 409 2629 706 
Q 2900 1003 2900 1516 
L 2900 3500 
L 3475 3500 
L 3475 0 
L 2900 0 
L 2900 538 
Q 2691 219 2414 64 
Q 2138 -91 1772 -91 
Q 1169 -91 856 284 
Q 544 659 544 1381 
z
M 1991 3584 
L 1991 3584 
z
" transform="scale(0.015625)"/>
       <path id="DejaVuSans-6e" d="M 3513 2113 
L 3513 0 
L 2938 0 
L 2938 2094 
Q 2938 2591 2744 2837 
Q 2550 3084 2163 3084 
Q 1697 3084 1428 2787 
Q 1159 2491 1159 1978 
L 1159 0 
L 581 0 
L 581 3500 
L 1159 3500 
L 1159 2956 
Q 1366 3272 1645 3428 
Q 1925 3584 2291 3584 
Q 2894 3584 3203 3211 
Q 3513 2838 3513 2113 
z
" transform="scale(0.015625)"/>
      </defs>
      <use xlink:href="#DejaVuSans-5b"/>
      <use xlink:href="#DejaVuSans-63" transform="translate(39.013672 0)"/>
      <use xlink:href="#DejaVuSans-6f" transform="translate(93.994141 0)"/>
      <use xlink:href="#DejaVuSans-75" transform="translate(155.175781 0)"/>
      <use xlink:href="#DejaVuSans-6e" transform="translate(218.554688 0)"/>
      <use xlink:href="#DejaVuSans-74" transform="translate(281.933594 0)"/>
      <use xlink:href="#DejaVuSans-73" transform="translate(321.142578 0)"/>
      <use xlink:href="#DejaVuSans-5d" transform="translate(373.242188 0)"/>
     </g>
    </g>
   </g>
   <g id="patch_3">
    <path d="M 59.690625 228.96 
L 59.690625 7.2 
" style="fill: none; stroke: #000000; stroke-width: 0.8; stroke-linejoin: miter; stroke-linecap: square"/>
   </g>
   <g id="patch_4">
    <path d="M 394.490625 228.96 
L 394.490625 7.2 
" style="fill: none; stroke: #000000; stroke-width: 0.8; stroke-linejoin: miter; stroke-linecap: square"/>
   </g>
   <g id="patch_5">
    <path d="M 59.690625 228.96 
L 394.490625 228.96 
" style="fill: none; stroke: #000000; stroke-width: 0.8; stroke-linejoin: miter; stroke-linecap: square"/>
   </g>
   <g id="patch_6">
    <path d="M 59.690625 7.2 
L 394.490625 7.2 
" style="fill: none; stroke: #000000; stroke-width: 0.8; stroke-linejoin: miter; stroke-linecap: square"/>
   </g>
   <g id="legend_1">
    <g id="patch_7">
     <path d="M 313.267188 44.55625 
L 387.490625 44.55625 
Q 389.490625 44.55625 389.490625 42.55625 
L 389.490625 14.2 
Q 389.490625 12.2 387.490625 12.2 
L 313.267188 12.2 
Q 311.267188 12.2 311.267188 14.2 
L 311.267188 42.55625 
Q 311.267188 44.55625 313.267188 44.55625 
z
" style="fill: #ffffff; opacity: 0.8; stroke: #cccccc; stroke-linejoin: miter"/>
    </g>
    <g id="line2d_16">
     <path d="M 315.267188 20.298437 
L 315.267188 20.298437 
L 325.267188 20.298437 
L 325.267188 20.298437 
L 335.267188 20.298437 
" style="fill: none; stroke: #1f77b4; stroke-width: 1.5; stroke-linecap: square"/>
    </g>
    <g id="text_18">
     <!-- monitor -->
     <g transform="translate(343.267188 23.798437) scale(0.1 -0.1)">
      <defs>
       <path id="DejaVuSans-6d" d="M 3328 2828 
Q 3544 3216 3844 3400 
Q 4144 3584 4550 3584 
Q 5097 3584 5394 3201 
Q 5691 2819 5691 2113 
L 5691 0 
L 5113 0 
L 5113 2094 
Q 5113 2597 4934 2840 
Q 4756 3084 4391 3084 
Q 3944 3084 3684 2787 
Q 3425 2491 3425 1978 
L 3425 0 
L 2847 0 
L 2847 2094 
Q 2847 2600 2669 2842 
Q 2491 3084 2119 3084 
Q 1678 3084 1418 2786 
Q 1159 2488 1159 1978 
L 1159 0 
L 581 0 
L 581 3500 
L 1159 3500 
L 1159 2956 
Q 1356 3278 1631 3431 
Q 1906 3584 2284 3584 
Q 2666 3584 2933 3390 
Q 3200 3197 3328 2828 
z
" transform="scale(0.015625)"/>
       <path id="DejaVuSans-69" d="M 603 3500 
L 1178 3500 
L 1178 0 
L 603 0 
L 603 3500 
z
M 603 4863 
L 1178 4863 
L 1178 4134 
L 603 4134 
L 603 4863 
z
" transform="scale(0.015625)"/>
       <path id="DejaVuSans-72" d="M 2631 2963 
Q 2534 3019 2420 3045 
Q 2306 3072 2169 3072 
Q 1681 3072 1420 2755 
Q 1159 2438 1159 1844 
L 1159 0 
L 581 0 
L 581 3500 
L 1159 3500 
L 1159 2956 
Q 1341 3275 1631 3429 
Q 1922 3584 2338 3584 
Q 2397 3584 2469 3576 
Q 2541 3569 2628 3553 
L 2631 2963 
z
" transform="scale(0.015625)"/>
      </defs>
      <use xlink:href="#DejaVuSans-6d"/>
      <use xlink:href="#DejaVuSans-6f" transform="translate(97.412109 0)"/>
      <use xlink:href="#DejaVuSans-6e" transform="translate(158.59375 0)"/>
      <use xlink:href="#DejaVuSans-69" transform="translate(221.972656 0)"/>
      <use xlink:href="#DejaVuSans-74" transform="translate(249.755859 0)"/>
      <use xlink:href="#DejaVuSans-6f" transform="translate(288.964844 0)"/>
      <use xlink:href="#DejaVuSans-72" transform="translate(350.146484 0)"/>
     </g>
    </g>
    <g id="line2d_17">
     <path d="M 315.267188 34.976562 
L 315.267188 34.976562 
L 325.267188 34.976562 
L 325.267188 34.976562 
L 335.267188 34.976562 
" style="fill: none; stroke: #ff7f0e; stroke-width: 1.5; stroke-linecap: square"/>
    </g>
    <g id="text_19">
     <!-- detector -->
     <g transform="translate(343.267188 38.476562) scale(0.1 -0.1)">
      <defs>
       <path id="DejaVuSans-64" d="M 2906 2969 
L 2906 4863 
L 3481 4863 
L 3481 0 
L 2906 0 
L 2906 525 
Q 2725 213 2448 61 
Q 2172 -91 1784 -91 
Q 1150 -91 751 415 
Q 353 922 353 1747 
Q 353 2572 751 3078 
Q 1150 3584 1784 3584 
Q 2172 3584 2448 3432 
Q 2725 3281 2906 2969 
z
M 947 1747 
Q 947 1113 1208 752 
Q 1469 391 1925 391 
Q 2381 391 2643 752 
Q 2906 1113 2906 1747 
Q 2906 2381 2643 2742 
Q 2381 3103 1925 3103 
Q 1469 3103 1208 2742 
Q 947 2381 947 1747 
z
" transform="scale(0.015625)"/>
       <path id="DejaVuSans-65" d="M 3597 1894 
L 3597 1613 
L 953 1613 
Q 991 1019 1311 708 
Q 1631 397 2203 397 
Q 2534 397 2845 478 
Q 3156 559 3463 722 
L 3463 178 
Q 3153 47 2828 -22 
Q 2503 -91 2169 -91 
Q 1331 -91 842 396 
Q 353 884 353 1716 
Q 353 2575 817 3079 
Q 1281 3584 2069 3584 
Q 2775 3584 3186 3129 
Q 3597 2675 3597 1894 
z
M 3022 2063 
Q 3016 2534 2758 2815 
Q 2500 3097 2075 3097 
Q 1594 3097 1305 2825 
Q 1016 2553 972 2059 
L 3022 2063 
z
" transform="scale(0.015625)"/>
      </defs>
      <use xlink:href="#DejaVuSans-64"/>
      <use xlink:href="#DejaVuSans-65" transform="translate(63.476562 0)"/>
      <use xlink:href="#DejaVuSans-74" transform="translate(125 0)"/>
      <use xlink:href="#DejaVuSans-65" transform="translate(164.208984 0)"/>
      <use xlink:href="#DejaVuSans-63" transform="translate(225.732422 0)"/>
      <use xlink:href="#DejaVuSans-74" transform="translate(280.712891 0)"/>
      <use xlink:href="#DejaVuSans-6f" transform="translate(319.921875 0)"/>
      <use xlink:href="#DejaVuSans-72" transform="translate(381.103516 0)"/>
     </g>
    </g>
   </g>
   <g id="line2d_18">
    <path d="M 74.908807 218.681314 
L 76.951516 218.697871 
L 76.951516 218.863443 
L 77.97287 218.863443 
L 77.97287 218.615085 
L 78.994225 218.615085 
L 78.994225 218.730986 
L 80.015579 218.730986 
L 80.015579 218.615085 
L 81.036934 218.615085 
L 81.036934 218.482628 
L 82.058288 218.482628 
L 82.058288 218.250828 
L 85.122352 218.168042 
L 85.122352 217.820342 
L 88.186415 217.787227 
L 88.186415 217.240841 
L 89.20777 217.240841 
L 89.20777 216.860026 
L 90.229124 216.860026 
L 90.229124 216.578555 
L 91.250479 216.578555 
L 91.250479 216.08184 
L 93.293188 216.065283 
L 93.293188 214.475795 
L 94.314542 214.475795 
L 94.314542 212.836636 
L 96.357251 212.86975 
L 96.357251 210.800105 
L 97.378605 210.800105 
L 97.378605 209.757004 
L 98.39996 209.757004 
L 98.39996 208.299974 
L 99.421314 208.299974 
L 99.421314 203.663968 
L 100.442669 203.663968 
L 100.442669 200.965151 
L 101.464023 200.965151 
L 101.464023 195.120473 
L 102.485378 195.120473 
L 102.485378 190.716268 
L 103.506732 190.716268 
L 103.506732 185.202733 
L 104.528087 185.202733 
L 104.528087 176.195637 
L 105.549441 176.195637 
L 105.549441 172.751748 
L 106.570796 172.751748 
L 106.570796 169.804573 
L 107.59215 169.804573 
L 107.59215 155.979343 
L 108.613505 155.979343 
L 108.613505 149.935979 
L 109.634859 149.935979 
L 109.634859 140.514954 
L 110.656214 140.514954 
L 110.656214 131.375401 
L 111.677568 131.375401 
L 111.677568 125.43138 
L 112.698923 125.43138 
L 112.698923 117.119685 
L 113.720277 117.119685 
L 113.720277 103.90707 
L 114.741632 103.90707 
L 114.741632 89.750696 
L 115.762986 89.750696 
L 115.762986 86.803522 
L 116.784341 86.803522 
L 116.784341 75.246623 
L 117.805695 75.246623 
L 117.805695 59.765677 
L 118.82705 59.765677 
L 118.82705 55.129671 
L 119.848404 55.129671 
L 119.848404 44.880788 
L 120.869759 44.880788 
L 120.869759 42.678686 
L 121.891113 42.678686 
L 121.891113 40.691827 
L 122.912468 40.691827 
L 122.912468 32.44636 
L 123.933822 32.44636 
L 123.933822 33.092089 
L 124.955177 33.092089 
L 124.955177 32.926518 
L 125.976531 32.926518 
L 125.976531 29.283942 
L 126.997886 29.283942 
L 126.997886 18.190644 
L 128.01924 18.190644 
L 128.01924 25.641367 
L 129.040594 25.641367 
L 129.040594 20.790118 
L 130.061949 20.790118 
L 130.061949 28.456084 
L 131.083303 28.456084 
L 131.083303 22.230591 
L 132.104658 22.230591 
L 132.104658 24.267122 
L 133.126012 24.267122 
L 133.126012 24.416137 
L 134.147367 24.416137 
L 134.147367 24.813509 
L 135.168721 24.813509 
L 135.168721 27.164625 
L 136.190076 27.164625 
L 136.190076 28.124941 
L 137.21143 28.124941 
L 137.21143 23.505493 
L 138.232785 23.505493 
L 138.232785 21.07159 
L 139.254139 21.07159 
L 139.254139 17.28 
L 140.275494 17.28 
L 140.275494 25.674481 
L 141.296848 25.674481 
L 141.296848 21.518633 
L 142.318203 21.518633 
L 142.318203 30.2277 
L 143.339557 30.2277 
L 143.339557 39.599054 
L 144.360912 39.599054 
L 144.360912 36.767779 
L 145.382266 36.767779 
L 145.382266 41.403784 
L 146.403621 41.403784 
L 146.403621 54.517057 
L 147.424975 54.517057 
L 147.424975 53.291827 
L 148.44633 53.291827 
L 148.44633 51.553325 
L 149.467684 51.553325 
L 149.467684 62.232694 
L 150.489039 62.232694 
L 150.489039 63.474481 
L 151.510393 63.474481 
L 151.510393 61.487622 
L 152.531748 61.487622 
L 152.531748 73.061078 
L 153.553102 73.061078 
L 153.553102 78.82297 
L 154.574457 78.82297 
L 154.574457 80.876058 
L 155.595811 80.876058 
L 155.595811 82.912589 
L 156.617166 82.912589 
L 156.617166 83.525204 
L 157.63852 83.525204 
L 157.63852 87.565151 
L 158.659875 87.565151 
L 158.659875 93.360158 
L 159.681229 93.360158 
L 159.681229 98.029277 
L 160.702584 98.029277 
L 160.702584 95.578817 
L 161.723938 95.578817 
L 161.723938 103.807727 
L 162.745292 103.807727 
L 162.745292 103.509698 
L 163.766647 103.509698 
L 163.766647 103.178555 
L 164.788001 103.178555 
L 164.788001 112.583022 
L 165.809356 112.583022 
L 165.809356 112.980394 
L 166.83071 112.980394 
L 166.83071 116.291827 
L 167.852065 116.291827 
L 167.852065 116.97067 
L 168.873419 116.97067 
L 168.873419 120.265545 
L 169.894774 120.265545 
L 169.894774 122.10339 
L 170.916128 122.10339 
L 170.916128 126.159895 
L 171.937483 126.159895 
L 171.937483 128.527569 
L 172.958837 128.527569 
L 172.958837 127.99774 
L 173.980192 127.99774 
L 173.980192 128.361997 
L 175.001546 128.361997 
L 175.001546 130.7959 
L 176.022901 130.7959 
L 176.022901 135.067648 
L 177.044255 135.067648 
L 177.044255 141.409041 
L 178.06561 141.409041 
L 178.06561 137.700237 
L 179.086964 137.700237 
L 179.086964 140.432168 
L 180.108319 140.432168 
L 180.108319 140.614297 
L 181.129673 140.614297 
L 181.129673 141.359369 
L 182.151028 141.359369 
L 182.151028 147.965677 
L 183.172382 147.965677 
L 183.172382 150.482365 
L 184.193737 150.482365 
L 184.193737 144.902602 
L 185.215091 144.902602 
L 185.215091 155.151485 
L 186.236446 155.151485 
L 186.236446 152.005624 
L 187.2578 152.005624 
L 187.2578 152.750696 
L 188.279155 152.750696 
L 188.279155 155.350171 
L 189.300509 155.350171 
L 189.300509 157.469488 
L 190.321864 157.469488 
L 190.321864 157.320473 
L 191.343218 157.320473 
L 191.343218 160.66502 
L 193.385927 160.731248 
L 193.385927 164.903653 
L 194.407281 164.903653 
L 194.407281 164.059238 
L 195.428636 164.059238 
L 195.428636 164.440053 
L 196.44999 164.440053 
L 196.44999 170.947017 
L 197.471345 170.947017 
L 197.471345 166.476583 
L 198.492699 166.476583 
L 198.492699 172.50339 
L 199.514054 172.50339 
L 199.514054 173.016662 
L 200.535408 173.016662 
L 200.535408 170.483417 
L 201.556763 170.483417 
L 201.556763 172.718633 
L 202.578117 172.718633 
L 202.578117 177.453982 
L 203.599472 177.453982 
L 203.599472 175.284993 
L 204.620826 175.284993 
L 204.620826 180.864757 
L 205.642181 180.864757 
L 205.642181 182.404573 
L 206.663535 182.404573 
L 206.663535 185.517319 
L 207.68489 185.517319 
L 207.68489 188.332037 
L 208.706244 188.332037 
L 208.706244 190.401682 
L 209.727599 190.401682 
L 209.727599 191.014297 
L 210.748953 191.014297 
L 210.748953 191.676583 
L 211.770308 191.676583 
L 211.770308 192.438213 
L 212.791662 192.438213 
L 212.791662 196.676846 
L 213.813017 196.676846 
L 213.813017 194.67343 
L 214.834371 194.67343 
L 214.834371 198.46502 
L 216.87708 198.514691 
L 216.87708 199.524678 
L 217.898435 199.524678 
L 217.898435 200.650565 
L 218.919789 200.650565 
L 218.919789 202.074481 
L 219.941144 202.074481 
L 219.941144 203.200368 
L 220.962498 203.200368 
L 220.962498 204.607727 
L 221.983853 204.607727 
L 221.983853 205.005099 
L 223.005207 205.005099 
L 223.005207 205.617714 
L 224.026562 205.617714 
L 224.026562 206.892615 
L 225.047916 206.892615 
L 225.047916 207.637687 
L 226.069271 207.637687 
L 226.069271 208.084731 
L 227.090625 208.084731 
L 227.090625 209.906018 
L 228.111979 209.906018 
L 228.111979 209.574875 
L 229.133334 209.574875 
L 229.133334 211.909435 
L 230.154688 211.909435 
L 230.154688 212.439264 
L 231.176043 212.439264 
L 231.176043 211.710749 
L 232.197397 211.710749 
L 232.197397 213.051879 
L 233.218752 213.051879 
L 233.218752 213.366465 
L 234.240106 213.366465 
L 234.240106 214.85661 
L 235.261461 214.85661 
L 235.261461 215.568568 
L 237.30417 215.518896 
L 237.30417 216.131511 
L 238.325524 216.131511 
L 238.325524 216.959369 
L 239.346879 216.959369 
L 239.346879 217.30707 
L 240.368233 217.30707 
L 240.368233 217.952799 
L 241.389588 217.952799 
L 241.389588 218.217714 
L 243.432297 218.300499 
L 243.432297 218.797214 
L 379.272443 218.88 
L 379.272443 218.88 
" clip-path="url(#p94430b73e8)" style="fill: none; stroke: #1f77b4; stroke-width: 1.5; stroke-linecap: square"/>
   </g>
   <g id="line2d_19">
    <path d="M 74.908807 218.88 
L 105.549441 218.797214 
L 105.549441 218.7641 
L 107.59215 218.7641 
L 107.59215 218.631643 
L 112.698923 218.6482 
L 112.698923 218.515742 
L 113.720277 218.515742 
L 113.720277 218.399842 
L 115.762986 218.333614 
L 115.762986 218.168042 
L 116.784341 218.168042 
L 116.784341 218.416399 
L 117.805695 218.416399 
L 117.805695 218.068699 
L 119.848404 217.969356 
L 119.848404 218.317057 
L 120.869759 218.317057 
L 120.869759 217.787227 
L 122.912468 217.853456 
L 122.912468 217.505756 
L 124.955177 217.555427 
L 124.955177 217.207727 
L 126.997886 217.158055 
L 126.997886 217.571984 
L 128.01924 217.571984 
L 128.01924 216.860026 
L 129.040594 216.860026 
L 129.040594 216.181183 
L 130.061949 216.181183 
L 130.061949 215.833482 
L 131.083303 215.833482 
L 131.083303 215.618239 
L 132.104658 215.618239 
L 132.104658 214.326781 
L 133.126012 214.326781 
L 133.126012 215.121524 
L 134.147367 215.121524 
L 134.147367 214.09498 
L 135.168721 214.09498 
L 135.168721 214.426124 
L 136.190076 214.426124 
L 136.190076 212.704179 
L 137.21143 212.704179 
L 137.21143 212.98565 
L 138.232785 212.98565 
L 138.232785 210.965677 
L 139.254139 210.965677 
L 139.254139 210.502076 
L 140.275494 210.502076 
L 140.275494 208.763574 
L 141.296848 208.763574 
L 141.296848 207.770145 
L 142.318203 207.770145 
L 142.318203 206.445572 
L 143.339557 206.445572 
L 143.339557 202.504967 
L 144.360912 202.504967 
L 144.360912 201.660552 
L 145.382266 201.660552 
L 145.382266 199.92205 
L 146.403621 199.92205 
L 146.403621 197.852405 
L 147.424975 197.852405 
L 147.424975 196.163574 
L 148.44633 196.163574 
L 148.44633 192.80247 
L 149.467684 192.80247 
L 149.467684 190.616925 
L 150.489039 190.616925 
L 150.489039 190.23611 
L 151.510393 190.23611 
L 151.510393 186.97435 
L 152.531748 186.97435 
L 152.531748 182.255558 
L 153.553102 182.255558 
L 153.553102 182.023758 
L 154.574457 182.023758 
L 154.574457 178.97724 
L 155.595811 178.97724 
L 155.595811 172.321261 
L 156.617166 172.321261 
L 156.617166 169.788016 
L 157.63852 169.788016 
L 157.63852 170.251616 
L 158.659875 170.251616 
L 158.659875 161.476321 
L 159.681229 161.476321 
L 159.681229 164.953325 
L 160.702584 164.953325 
L 160.702584 158.578817 
L 161.723938 158.578817 
L 161.723938 155.350171 
L 162.745292 155.350171 
L 162.745292 151.310223 
L 163.766647 151.310223 
L 163.766647 148.247148 
L 164.788001 148.247148 
L 164.788001 141.856084 
L 165.809356 141.856084 
L 165.809356 140.71364 
L 166.83071 140.71364 
L 166.83071 138.130723 
L 167.852065 138.130723 
L 167.852065 133.726518 
L 168.873419 133.726518 
L 168.873419 129.603784 
L 169.894774 129.603784 
L 169.894774 123.808778 
L 170.916128 123.808778 
L 170.916128 122.616662 
L 171.937483 122.616662 
L 171.937483 117.682628 
L 172.958837 117.682628 
L 172.958837 117.235585 
L 173.980192 117.235585 
L 173.980192 112.450565 
L 175.001546 112.450565 
L 175.001546 111.854507 
L 176.022901 111.854507 
L 176.022901 113.990381 
L 177.044255 113.990381 
L 177.044255 113.06318 
L 178.06561 113.06318 
L 178.06561 108.427175 
L 179.086964 108.427175 
L 179.086964 105.330986 
L 180.108319 105.330986 
L 180.108319 107.665545 
L 181.129673 107.665545 
L 181.129673 108.079474 
L 182.151028 108.079474 
L 182.151028 107.880788 
L 183.172382 107.880788 
L 183.172382 102.615611 
L 184.193737 102.615611 
L 184.193737 99.767779 
L 185.215091 99.767779 
L 185.215091 105.612457 
L 186.236446 105.612457 
L 186.236446 99.35385 
L 187.2578 99.35385 
L 187.2578 103.824284 
L 188.279155 103.824284 
L 188.279155 102.400368 
L 189.300509 102.400368 
L 189.300509 98.459763 
L 190.321864 98.459763 
L 190.321864 104.701813 
L 191.343218 104.701813 
L 191.343218 99.304179 
L 192.364573 99.304179 
L 192.364573 103.012983 
L 193.385927 103.012983 
L 193.385927 100.69498 
L 194.407281 100.69498 
L 194.407281 104.470013 
L 195.428636 104.470013 
L 195.428636 104.354113 
L 196.44999 104.354113 
L 196.44999 101.754639 
L 197.471345 101.754639 
L 197.471345 103.79117 
L 198.492699 103.79117 
L 198.492699 102.383811 
L 199.514054 102.383811 
L 199.514054 105.529671 
L 200.535408 105.529671 
L 200.535408 103.112326 
L 201.556763 103.112326 
L 201.556763 98.410092 
L 202.578117 98.410092 
L 202.578117 107.05293 
L 203.599472 107.05293 
L 203.599472 97.499448 
L 204.620826 97.499448 
L 204.620826 99.966465 
L 205.642181 99.966465 
L 205.642181 102.880526 
L 206.663535 102.880526 
L 206.663535 102.085782 
L 207.68489 102.085782 
L 207.68489 101.307595 
L 208.706244 101.307595 
L 208.706244 102.68184 
L 209.727599 102.68184 
L 209.727599 108.04636 
L 210.748953 108.04636 
L 210.748953 103.426912 
L 211.770308 103.426912 
L 211.770308 107.499974 
L 212.791662 107.499974 
L 212.791662 111.440578 
L 213.813017 111.440578 
L 213.813017 114.205624 
L 214.834371 114.205624 
L 214.834371 107.16883 
L 215.855726 107.16883 
L 215.855726 110.529934 
L 216.87708 110.529934 
L 216.87708 121.010618 
L 217.898435 121.010618 
L 217.898435 118.642943 
L 218.919789 118.642943 
L 218.919789 121.109961 
L 219.941144 121.109961 
L 219.941144 122.517319 
L 220.962498 122.517319 
L 220.962498 112.748594 
L 221.983853 112.748594 
L 221.983853 113.973824 
L 223.005207 113.973824 
L 223.005207 121.176189 
L 224.026562 121.176189 
L 224.026562 125.381708 
L 225.047916 125.381708 
L 225.047916 133.660289 
L 226.069271 133.660289 
L 226.069271 130.862129 
L 227.090625 130.862129 
L 227.090625 126.209566 
L 228.111979 126.209566 
L 228.111979 130.646886 
L 229.133334 130.646886 
L 229.133334 132.848988 
L 230.154688 132.848988 
L 230.154688 137.965151 
L 231.176043 137.965151 
L 231.176043 135.796163 
L 232.197397 135.796163 
L 232.197397 134.256347 
L 233.218752 134.256347 
L 233.218752 139.37251 
L 234.240106 139.37251 
L 234.240106 137.435322 
L 235.261461 137.435322 
L 235.261461 140.001682 
L 236.282815 140.001682 
L 236.282815 140.779869 
L 237.30417 140.779869 
L 237.30417 139.952011 
L 238.325524 139.952011 
L 238.325524 144.538344 
L 239.346879 144.538344 
L 239.346879 142.584599 
L 240.368233 142.584599 
L 240.368233 141.82297 
L 241.389588 141.82297 
L 241.389588 147.932562 
L 242.410942 147.932562 
L 242.410942 149.98565 
L 243.432297 149.98565 
L 243.432297 149.455821 
L 244.453651 149.455821 
L 244.453651 148.710749 
L 245.475006 148.710749 
L 245.475006 148.147806 
L 246.49636 148.147806 
L 246.49636 154.009041 
L 247.517715 154.009041 
L 247.517715 147.336505 
L 248.539069 147.336505 
L 248.539069 160.681577 
L 249.560424 160.681577 
L 249.560424 152.96594 
L 250.581778 152.96594 
L 250.581778 152.535453 
L 251.603133 152.535453 
L 251.603133 160.234534 
L 252.624487 160.234534 
L 252.624487 158.048988 
L 253.645842 158.048988 
L 253.645842 160.002733 
L 254.667196 160.002733 
L 254.667196 157.039001 
L 255.688551 157.039001 
L 255.688551 158.628489 
L 256.709905 158.628489 
L 256.709905 162.983022 
L 257.73126 162.983022 
L 257.73126 162.718108 
L 258.752614 162.718108 
L 258.752614 161.708121 
L 259.773969 161.708121 
L 259.773969 162.420079 
L 260.795323 162.420079 
L 260.795323 164.92021 
L 261.816677 164.92021 
L 261.816677 158.827175 
L 262.838032 158.827175 
L 262.838032 164.754639 
L 263.859386 164.754639 
L 263.859386 171.410618 
L 264.880741 171.410618 
L 264.880741 170.201945 
L 265.902095 170.201945 
L 265.902095 165.599054 
L 266.92345 165.599054 
L 266.92345 169.804573 
L 267.944804 169.804573 
L 267.944804 168.281314 
L 268.966159 168.281314 
L 268.966159 170.119159 
L 269.987513 170.119159 
L 269.987513 171.16226 
L 271.008868 171.16226 
L 271.008868 171.311275 
L 272.030222 171.311275 
L 272.030222 171.145703 
L 273.051577 171.145703 
L 273.051577 170.152273 
L 274.072931 170.152273 
L 274.072931 172.900762 
L 275.094286 172.900762 
L 275.094286 173.198791 
L 276.11564 173.198791 
L 276.11564 173.72862 
L 277.136995 173.72862 
L 277.136995 173.976978 
L 278.158349 173.976978 
L 278.158349 172.238476 
L 279.179704 172.238476 
L 279.179704 180.8482 
L 280.201058 180.8482 
L 280.201058 179.341498 
L 281.222413 179.341498 
L 281.222413 178.348068 
L 282.243767 178.348068 
L 282.243767 177.63611 
L 283.265122 177.63611 
L 283.265122 177.420867 
L 284.286476 177.420867 
L 284.286476 178.099711 
L 285.307831 178.099711 
L 285.307831 181.295243 
L 287.35054 181.295243 
L 287.35054 177.718896 
L 288.371894 177.718896 
L 288.371894 180.9641 
L 289.393249 180.9641 
L 289.393249 183.696032 
L 290.414603 183.696032 
L 290.414603 179.788541 
L 291.435958 179.788541 
L 291.435958 183.580131 
L 292.457312 183.580131 
L 292.457312 182.404573 
L 293.478666 182.404573 
L 293.478666 183.53046 
L 294.500021 183.53046 
L 294.500021 188.067122 
L 295.521375 188.067122 
L 295.521375 184.490775 
L 296.54273 184.490775 
L 296.54273 186.576978 
L 297.564084 186.576978 
L 297.564084 186.146491 
L 298.585439 186.146491 
L 298.585439 184.954376 
L 299.606793 184.954376 
L 299.606793 185.86502 
L 300.628148 185.86502 
L 300.628148 188.762523 
L 301.649502 188.762523 
L 301.649502 190.517582 
L 302.670857 190.517582 
L 302.670857 187.471064 
L 303.692211 187.471064 
L 303.692211 189.640053 
L 304.713566 189.640053 
L 304.713566 189.77251 
L 305.73492 189.77251 
L 305.73492 192.057398 
L 306.756275 192.057398 
L 306.756275 192.322313 
L 307.777629 192.322313 
L 307.777629 189.259238 
L 308.798984 189.259238 
L 308.798984 191.875269 
L 309.820338 191.875269 
L 309.820338 191.742812 
L 310.841693 191.742812 
L 310.841693 192.785913 
L 311.863047 192.785913 
L 311.863047 191.477898 
L 312.884402 191.477898 
L 312.884402 194.143601 
L 313.905756 194.143601 
L 313.905756 196.925204 
L 314.927111 196.925204 
L 314.927111 197.488147 
L 315.948465 197.488147 
L 315.948465 196.925204 
L 316.96982 196.925204 
L 316.96982 196.411932 
L 317.991174 196.411932 
L 317.991174 195.600631 
L 319.012529 195.600631 
L 319.012529 202.173824 
L 320.033883 202.173824 
L 320.033883 199.475007 
L 321.055238 199.475007 
L 321.055238 200.849251 
L 322.076592 200.849251 
L 322.076592 202.653982 
L 323.097947 202.653982 
L 323.097947 200.932037 
L 324.119301 200.932037 
L 324.119301 203.548068 
L 325.140656 203.548068 
L 325.140656 201.081051 
L 326.16201 201.081051 
L 326.16201 203.846097 
L 327.183364 203.846097 
L 327.183364 204.773298 
L 328.204719 204.773298 
L 328.204719 204.922313 
L 329.226073 204.922313 
L 329.226073 204.260026 
L 330.247428 204.260026 
L 330.247428 205.733614 
L 331.268782 205.733614 
L 331.268782 204.491827 
L 332.290137 204.491827 
L 332.290137 206.561472 
L 333.311491 206.561472 
L 333.311491 205.915742 
L 334.332846 205.915742 
L 334.332846 206.876058 
L 335.3542 206.876058 
L 335.3542 208.862917 
L 336.375555 208.862917 
L 336.375555 205.915742 
L 337.396909 205.915742 
L 337.396909 209.359632 
L 338.418264 209.359632 
L 338.418264 208.184074 
L 339.439618 208.184074 
L 339.439618 209.127832 
L 340.460973 209.127832 
L 340.460973 209.95569 
L 341.482327 209.95569 
L 341.482327 209.674218 
L 342.503682 209.674218 
L 342.503682 210.253719 
L 343.525036 210.253719 
L 343.525036 210.651091 
L 344.546391 210.651091 
L 344.546391 211.429277 
L 345.567745 211.429277 
L 345.567745 210.237162 
L 346.5891 210.237162 
L 346.5891 211.031905 
L 347.610454 211.031905 
L 347.610454 211.76042 
L 348.631809 211.76042 
L 348.631809 212.836636 
L 349.653163 212.836636 
L 349.653163 212.075007 
L 350.674518 212.075007 
L 350.674518 213.134665 
L 351.695872 213.134665 
L 351.695872 213.018765 
L 352.717227 213.018765 
L 352.717227 212.604836 
L 353.738581 212.604836 
L 353.738581 213.714166 
L 354.759936 213.714166 
L 354.759936 214.359895 
L 355.78129 214.359895 
L 355.78129 214.508909 
L 356.802645 214.508909 
L 356.802645 214.85661 
L 359.866708 214.906281 
L 359.866708 214.724152 
L 360.888062 214.724152 
L 360.888062 215.303653 
L 361.909417 215.303653 
L 361.909417 215.618239 
L 362.930771 215.618239 
L 362.930771 216.08184 
L 363.952126 216.08184 
L 363.952126 216.214297 
L 364.97348 216.214297 
L 364.97348 216.677898 
L 365.994835 216.677898 
L 365.994835 216.975926 
L 367.016189 216.975926 
L 367.016189 216.860026 
L 369.058898 216.843469 
L 369.058898 217.091827 
L 370.080253 217.091827 
L 370.080253 217.605099 
L 371.101607 217.605099 
L 371.101607 217.936242 
L 372.122962 217.936242 
L 372.122962 217.754113 
L 373.144316 217.754113 
L 373.144316 218.035585 
L 374.165671 218.035585 
L 374.165671 218.350171 
L 377.229734 218.416399 
L 377.229734 218.515742 
L 378.251089 218.515742 
L 378.251089 218.697871 
L 379.272443 218.697871 
L 379.272443 218.697871 
" clip-path="url(#p94430b73e8)" style="fill: none; stroke: #ff7f0e; stroke-width: 1.5; stroke-linecap: square"/>
   </g>
  </g>
 </g>
 <defs>
  <clipPath id="p94430b73e8">
   <rect x="59.690625" y="7.2" width="334.8" height="221.76"/>
  </clipPath>
 </defs>
</svg>
