<?xml version="1.0" encoding="utf-8" standalone="no"?>
<!DOCTYPE svg PUBLIC "-//W3C//DTD SVG 1.1//EN"
  "http://www.w3.org/Graphics/SVG/1.1/DTD/svg11.dtd">
<svg xmlns:xlink="http://www.w3.org/1999/xlink" width="872.39952pt" height="296.39952pt" viewBox="0 0 872.39952 296.39952" xmlns="http://www.w3.org/2000/svg" version="1.1">
 <metadata>
  <rdf:RDF xmlns:dc="http://purl.org/dc/elements/1.1/" xmlns:cc="http://creativecommons.org/ns#" xmlns:rdf="http://www.w3.org/1999/02/22-rdf-syntax-ns#">
   <cc:Work>
    <dc:type rdf:resource="http://purl.org/dc/dcmitype/StillImage"/>
    <dc:date>2025-11-07T09:33:01.068172</dc:date>
    <dc:format>image/svg+xml</dc:format>
    <dc:creator>
     <cc:Agent>
      <dc:title>Matplotlib v3.10.7, https://matplotlib.org/</dc:title>
     </cc:Agent>
    </dc:creator>
   </cc:Work>
  </rdf:RDF>
 </metadata>
 <defs>
  <style type="text/css">*{stroke-linejoin: round; stroke-linecap: butt}</style>
 </defs>
 <g id="figure_1">
  <g id="patch_1">
   <path d="M 0 296.39952 
L 872.39952 296.39952 
L 872.39952 0 
L 0 0 
z
" style="fill: #ffffff"/>
  </g>
  <g id="axes_1">
   <g id="patch_2">
    <path d="M 46.965625 257.158895 
L 414.59976 257.158895 
L 414.59976 22.318125 
L 46.965625 22.318125 
z
" style="fill: #ffffff"/>
   </g>
   <g id="matplotlib.axis_1">
    <g id="xtick_1">
     <g id="line2d_1">
      <defs>
       <path id="mced439a79d" d="M 0 0 
L 0 3.5 
" style="stroke: #000000; stroke-width: 0.8"/>
      </defs>
      <g>
       <use xlink:href="#mced439a79d" x="81.266418" y="257.158895" style="stroke: #000000; stroke-width: 0.8"/>
      </g>
     </g>
     <g id="text_1">
      <!-- 1.0 -->
      <g transform="translate(73.314855 271.757332) scale(0.1 -0.1)">
       <defs>
        <path id="DejaVuSans-31" d="M 794 531 
L 1825 531 
L 1825 4091 
L 703 3866 
L 703 4441 
L 1819 4666 
L 2450 4666 
L 2450 531 
L 3481 531 
L 3481 0 
L 794 0 
L 794 531 
z
" transform="scale(0.015625)"/>
        <path id="DejaVuSans-2e" d="M 684 794 
L 1344 794 
L 1344 0 
L 684 0 
L 684 794 
z
" transform="scale(0.015625)"/>
        <path id="DejaVuSans-30" d="M 2034 4250 
Q 1547 4250 1301 3770 
Q 1056 3291 1056 2328 
Q 1056 1369 1301 889 
Q 1547 409 2034 409 
Q 2525 409 2770 889 
Q 3016 1369 3016 2328 
Q 3016 3291 2770 3770 
Q 2525 4250 2034 4250 
z
M 2034 4750 
Q 2819 4750 3233 4129 
Q 3647 3509 3647 2328 
Q 3647 1150 3233 529 
Q 2819 -91 2034 -91 
Q 1250 -91 836 529 
Q 422 1150 422 2328 
Q 422 3509 836 4129 
Q 1250 4750 2034 4750 
z
" transform="scale(0.015625)"/>
       </defs>
       <use xlink:href="#DejaVuSans-31"/>
       <use xlink:href="#DejaVuSans-2e" transform="translate(63.623047 0)"/>
       <use xlink:href="#DejaVuSans-30" transform="translate(95.410156 0)"/>
      </g>
     </g>
    </g>
    <g id="xtick_2">
     <g id="line2d_2">
      <g>
       <use xlink:href="#mced439a79d" x="125.241793" y="257.158895" style="stroke: #000000; stroke-width: 0.8"/>
      </g>
     </g>
     <g id="text_2">
      <!-- 1.5 -->
      <g transform="translate(117.29023 271.757332) scale(0.1 -0.1)">
       <defs>
        <path id="DejaVuSans-35" d="M 691 4666 
L 3169 4666 
L 3169 4134 
L 1269 4134 
L 1269 2991 
Q 1406 3038 1543 3061 
Q 1681 3084 1819 3084 
Q 2600 3084 3056 2656 
Q 3513 2228 3513 1497 
Q 3513 744 3044 326 
Q 2575 -91 1722 -91 
Q 1428 -91 1123 -41 
Q 819 9 494 109 
L 494 744 
Q 775 591 1075 516 
Q 1375 441 1709 441 
Q 2250 441 2565 725 
Q 2881 1009 2881 1497 
Q 2881 1984 2565 2268 
Q 2250 2553 1709 2553 
Q 1456 2553 1204 2497 
Q 953 2441 691 2322 
L 691 4666 
z
" transform="scale(0.015625)"/>
       </defs>
       <use xlink:href="#DejaVuSans-31"/>
       <use xlink:href="#DejaVuSans-2e" transform="translate(63.623047 0)"/>
       <use xlink:href="#DejaVuSans-35" transform="translate(95.410156 0)"/>
      </g>
     </g>
    </g>
    <g id="xtick_3">
     <g id="line2d_3">
      <g>
       <use xlink:href="#mced439a79d" x="169.217168" y="257.158895" style="stroke: #000000; stroke-width: 0.8"/>
      </g>
     </g>
     <g id="text_3">
      <!-- 2.0 -->
      <g transform="translate(161.265605 271.757332) scale(0.1 -0.1)">
       <defs>
        <path id="DejaVuSans-32" d="M 1228 531 
L 3431 531 
L 3431 0 
L 469 0 
L 469 531 
Q 828 903 1448 1529 
Q 2069 2156 2228 2338 
Q 2531 2678 2651 2914 
Q 2772 3150 2772 3378 
Q 2772 3750 2511 3984 
Q 2250 4219 1831 4219 
Q 1534 4219 1204 4116 
Q 875 4013 500 3803 
L 500 4441 
Q 881 4594 1212 4672 
Q 1544 4750 1819 4750 
Q 2544 4750 2975 4387 
Q 3406 4025 3406 3419 
Q 3406 3131 3298 2873 
Q 3191 2616 2906 2266 
Q 2828 2175 2409 1742 
Q 1991 1309 1228 531 
z
" transform="scale(0.015625)"/>
       </defs>
       <use xlink:href="#DejaVuSans-32"/>
       <use xlink:href="#DejaVuSans-2e" transform="translate(63.623047 0)"/>
       <use xlink:href="#DejaVuSans-30" transform="translate(95.410156 0)"/>
      </g>
     </g>
    </g>
    <g id="xtick_4">
     <g id="line2d_4">
      <g>
       <use xlink:href="#mced439a79d" x="213.192543" y="257.158895" style="stroke: #000000; stroke-width: 0.8"/>
      </g>
     </g>
     <g id="text_4">
      <!-- 2.5 -->
      <g transform="translate(205.24098 271.757332) scale(0.1 -0.1)">
       <use xlink:href="#DejaVuSans-32"/>
       <use xlink:href="#DejaVuSans-2e" transform="translate(63.623047 0)"/>
       <use xlink:href="#DejaVuSans-35" transform="translate(95.410156 0)"/>
      </g>
     </g>
    </g>
    <g id="xtick_5">
     <g id="line2d_5">
      <g>
       <use xlink:href="#mced439a79d" x="257.167918" y="257.158895" style="stroke: #000000; stroke-width: 0.8"/>
      </g>
     </g>
     <g id="text_5">
      <!-- 3.0 -->
      <g transform="translate(249.216355 271.757332) scale(0.1 -0.1)">
       <defs>
        <path id="DejaVuSans-33" d="M 2597 2516 
Q 3050 2419 3304 2112 
Q 3559 1806 3559 1356 
Q 3559 666 3084 287 
Q 2609 -91 1734 -91 
Q 1441 -91 1130 -33 
Q 819 25 488 141 
L 488 750 
Q 750 597 1062 519 
Q 1375 441 1716 441 
Q 2309 441 2620 675 
Q 2931 909 2931 1356 
Q 2931 1769 2642 2001 
Q 2353 2234 1838 2234 
L 1294 2234 
L 1294 2753 
L 1863 2753 
Q 2328 2753 2575 2939 
Q 2822 3125 2822 3475 
Q 2822 3834 2567 4026 
Q 2313 4219 1838 4219 
Q 1578 4219 1281 4162 
Q 984 4106 628 3988 
L 628 4550 
Q 988 4650 1302 4700 
Q 1616 4750 1894 4750 
Q 2613 4750 3031 4423 
Q 3450 4097 3450 3541 
Q 3450 3153 3228 2886 
Q 3006 2619 2597 2516 
z
" transform="scale(0.015625)"/>
       </defs>
       <use xlink:href="#DejaVuSans-33"/>
       <use xlink:href="#DejaVuSans-2e" transform="translate(63.623047 0)"/>
       <use xlink:href="#DejaVuSans-30" transform="translate(95.410156 0)"/>
      </g>
     </g>
    </g>
    <g id="xtick_6">
     <g id="line2d_6">
      <g>
       <use xlink:href="#mced439a79d" x="301.143293" y="257.158895" style="stroke: #000000; stroke-width: 0.8"/>
      </g>
     </g>
     <g id="text_6">
      <!-- 3.5 -->
      <g transform="translate(293.19173 271.757332) scale(0.1 -0.1)">
       <use xlink:href="#DejaVuSans-33"/>
       <use xlink:href="#DejaVuSans-2e" transform="translate(63.623047 0)"/>
       <use xlink:href="#DejaVuSans-35" transform="translate(95.410156 0)"/>
      </g>
     </g>
    </g>
    <g id="xtick_7">
     <g id="line2d_7">
      <g>
       <use xlink:href="#mced439a79d" x="345.118668" y="257.158895" style="stroke: #000000; stroke-width: 0.8"/>
      </g>
     </g>
     <g id="text_7">
      <!-- 4.0 -->
      <g transform="translate(337.167105 271.757332) scale(0.1 -0.1)">
       <defs>
        <path id="DejaVuSans-34" d="M 2419 4116 
L 825 1625 
L 2419 1625 
L 2419 4116 
z
M 2253 4666 
L 3047 4666 
L 3047 1625 
L 3713 1625 
L 3713 1100 
L 3047 1100 
L 3047 0 
L 2419 0 
L 2419 1100 
L 313 1100 
L 313 1709 
L 2253 4666 
z
" transform="scale(0.015625)"/>
       </defs>
       <use xlink:href="#DejaVuSans-34"/>
       <use xlink:href="#DejaVuSans-2e" transform="translate(63.623047 0)"/>
       <use xlink:href="#DejaVuSans-30" transform="translate(95.410156 0)"/>
      </g>
     </g>
    </g>
    <g id="xtick_8">
     <g id="line2d_8">
      <g>
       <use xlink:href="#mced439a79d" x="389.094043" y="257.158895" style="stroke: #000000; stroke-width: 0.8"/>
      </g>
     </g>
     <g id="text_8">
      <!-- 4.5 -->
      <g transform="translate(381.14248 271.757332) scale(0.1 -0.1)">
       <use xlink:href="#DejaVuSans-34"/>
       <use xlink:href="#DejaVuSans-2e" transform="translate(63.623047 0)"/>
       <use xlink:href="#DejaVuSans-35" transform="translate(95.410156 0)"/>
      </g>
     </g>
    </g>
    <g id="text_9">
     <!-- wavelength [Å] -->
     <g transform="translate(192.745193 287.119832) scale(0.1 -0.1)">
      <defs>
       <path id="DejaVuSans-77" d="M 269 3500 
L 844 3500 
L 1563 769 
L 2278 3500 
L 2956 3500 
L 3675 769 
L 4391 3500 
L 4966 3500 
L 4050 0 
L 3372 0 
L 2619 2869 
L 1863 0 
L 1184 0 
L 269 3500 
z
" transform="scale(0.015625)"/>
       <path id="DejaVuSans-61" d="M 2194 1759 
Q 1497 1759 1228 1600 
Q 959 1441 959 1056 
Q 959 750 1161 570 
Q 1363 391 1709 391 
Q 2188 391 2477 730 
Q 2766 1069 2766 1631 
L 2766 1759 
L 2194 1759 
z
M 3341 1997 
L 3341 0 
L 2766 0 
L 2766 531 
Q 2569 213 2275 61 
Q 1981 -91 1556 -91 
Q 1019 -91 701 211 
Q 384 513 384 1019 
Q 384 1609 779 1909 
Q 1175 2209 1959 2209 
L 2766 2209 
L 2766 2266 
Q 2766 2663 2505 2880 
Q 2244 3097 1772 3097 
Q 1472 3097 1187 3025 
Q 903 2953 641 2809 
L 641 3341 
Q 956 3463 1253 3523 
Q 1550 3584 1831 3584 
Q 2591 3584 2966 3190 
Q 3341 2797 3341 1997 
z
" transform="scale(0.015625)"/>
       <path id="DejaVuSans-76" d="M 191 3500 
L 800 3500 
L 1894 563 
L 2988 3500 
L 3597 3500 
L 2284 0 
L 1503 0 
L 191 3500 
z
" transform="scale(0.015625)"/>
       <path id="DejaVuSans-65" d="M 3597 1894 
L 3597 1613 
L 953 1613 
Q 991 1019 1311 708 
Q 1631 397 2203 397 
Q 2534 397 2845 478 
Q 3156 559 3463 722 
L 3463 178 
Q 3153 47 2828 -22 
Q 2503 -91 2169 -91 
Q 1331 -91 842 396 
Q 353 884 353 1716 
Q 353 2575 817 3079 
Q 1281 3584 2069 3584 
Q 2775 3584 3186 3129 
Q 3597 2675 3597 1894 
z
M 3022 2063 
Q 3016 2534 2758 2815 
Q 2500 3097 2075 3097 
Q 1594 3097 1305 2825 
Q 1016 2553 972 2059 
L 3022 2063 
z
" transform="scale(0.015625)"/>
       <path id="DejaVuSans-6c" d="M 603 4863 
L 1178 4863 
L 1178 0 
L 603 0 
L 603 4863 
z
" transform="scale(0.015625)"/>
       <path id="DejaVuSans-6e" d="M 3513 2113 
L 3513 0 
L 2938 0 
L 2938 2094 
Q 2938 2591 2744 2837 
Q 2550 3084 2163 3084 
Q 1697 3084 1428 2787 
Q 1159 2491 1159 1978 
L 1159 0 
L 581 0 
L 581 3500 
L 1159 3500 
L 1159 2956 
Q 1366 3272 1645 3428 
Q 1925 3584 2291 3584 
Q 2894 3584 3203 3211 
Q 3513 2838 3513 2113 
z
" transform="scale(0.015625)"/>
       <path id="DejaVuSans-67" d="M 2906 1791 
Q 2906 2416 2648 2759 
Q 2391 3103 1925 3103 
Q 1463 3103 1205 2759 
Q 947 2416 947 1791 
Q 947 1169 1205 825 
Q 1463 481 1925 481 
Q 2391 481 2648 825 
Q 2906 1169 2906 1791 
z
M 3481 434 
Q 3481 -459 3084 -895 
Q 2688 -1331 1869 -1331 
Q 1566 -1331 1297 -1286 
Q 1028 -1241 775 -1147 
L 775 -588 
Q 1028 -725 1275 -790 
Q 1522 -856 1778 -856 
Q 2344 -856 2625 -561 
Q 2906 -266 2906 331 
L 2906 616 
Q 2728 306 2450 153 
Q 2172 0 1784 0 
Q 1141 0 747 490 
Q 353 981 353 1791 
Q 353 2603 747 3093 
Q 1141 3584 1784 3584 
Q 2172 3584 2450 3431 
Q 2728 3278 2906 2969 
L 2906 3500 
L 3481 3500 
L 3481 434 
z
" transform="scale(0.015625)"/>
       <path id="DejaVuSans-74" d="M 1172 4494 
L 1172 3500 
L 2356 3500 
L 2356 3053 
L 1172 3053 
L 1172 1153 
Q 1172 725 1289 603 
Q 1406 481 1766 481 
L 2356 481 
L 2356 0 
L 1766 0 
Q 1100 0 847 248 
Q 594 497 594 1153 
L 594 3053 
L 172 3053 
L 172 3500 
L 594 3500 
L 594 4494 
L 1172 4494 
z
" transform="scale(0.015625)"/>
       <path id="DejaVuSans-68" d="M 3513 2113 
L 3513 0 
L 2938 0 
L 2938 2094 
Q 2938 2591 2744 2837 
Q 2550 3084 2163 3084 
Q 1697 3084 1428 2787 
Q 1159 2491 1159 1978 
L 1159 0 
L 581 0 
L 581 4863 
L 1159 4863 
L 1159 2956 
Q 1366 3272 1645 3428 
Q 1925 3584 2291 3584 
Q 2894 3584 3203 3211 
Q 3513 2838 3513 2113 
z
" transform="scale(0.015625)"/>
       <path id="DejaVuSans-20" transform="scale(0.015625)"/>
       <path id="DejaVuSans-5b" d="M 550 4863 
L 1875 4863 
L 1875 4416 
L 1125 4416 
L 1125 -397 
L 1875 -397 
L 1875 -844 
L 550 -844 
L 550 4863 
z
" transform="scale(0.015625)"/>
       <path id="DejaVuSans-c5" d="M 2663 5081 
Q 2663 5278 2523 5417 
Q 2384 5556 2188 5556 
Q 1988 5556 1852 5420 
Q 1716 5284 1716 5081 
Q 1716 4884 1853 4746 
Q 1991 4609 2188 4609 
Q 2384 4609 2523 4746 
Q 2663 4884 2663 5081 
z
M 2188 4044 
L 1338 1722 
L 3041 1722 
L 2188 4044 
z
M 1716 4366 
Q 1525 4494 1428 4673 
Q 1331 4853 1331 5081 
Q 1331 5441 1579 5691 
Q 1828 5941 2188 5941 
Q 2544 5941 2795 5689 
Q 3047 5438 3047 5081 
Q 3047 4863 2948 4678 
Q 2850 4494 2663 4366 
L 4325 0 
L 3669 0 
L 3244 1197 
L 1141 1197 
L 716 0 
L 50 0 
L 1716 4366 
z
" transform="scale(0.015625)"/>
       <path id="DejaVuSans-5d" d="M 1947 4863 
L 1947 -844 
L 622 -844 
L 622 -397 
L 1369 -397 
L 1369 4416 
L 622 4416 
L 622 4863 
L 1947 4863 
z
" transform="scale(0.015625)"/>
      </defs>
      <use xlink:href="#DejaVuSans-77"/>
      <use xlink:href="#DejaVuSans-61" transform="translate(81.787109 0)"/>
      <use xlink:href="#DejaVuSans-76" transform="translate(143.066406 0)"/>
      <use xlink:href="#DejaVuSans-65" transform="translate(202.246094 0)"/>
      <use xlink:href="#DejaVuSans-6c" transform="translate(263.769531 0)"/>
      <use xlink:href="#DejaVuSans-65" transform="translate(291.552734 0)"/>
      <use xlink:href="#DejaVuSans-6e" transform="translate(353.076172 0)"/>
      <use xlink:href="#DejaVuSans-67" transform="translate(416.455078 0)"/>
      <use xlink:href="#DejaVuSans-74" transform="translate(479.931641 0)"/>
      <use xlink:href="#DejaVuSans-68" transform="translate(519.140625 0)"/>
      <use xlink:href="#DejaVuSans-20" transform="translate(582.519531 0)"/>
      <use xlink:href="#DejaVuSans-5b" transform="translate(614.306641 0)"/>
      <use xlink:href="#DejaVuSans-c5" transform="translate(653.320312 0)"/>
      <use xlink:href="#DejaVuSans-5d" transform="translate(721.728516 0)"/>
     </g>
    </g>
   </g>
   <g id="matplotlib.axis_2">
    <g id="ytick_1">
     <g id="line2d_9">
      <defs>
       <path id="m1cc0b1f6ef" d="M 0 0 
L -3.5 0 
" style="stroke: #000000; stroke-width: 0.8"/>
      </defs>
      <g>
       <use xlink:href="#m1cc0b1f6ef" x="46.965625" y="246.484315" style="stroke: #000000; stroke-width: 0.8"/>
      </g>
     </g>
     <g id="text_10">
      <!-- 0 -->
      <g transform="translate(33.603125 250.283533) scale(0.1 -0.1)">
       <use xlink:href="#DejaVuSans-30"/>
      </g>
     </g>
    </g>
    <g id="ytick_2">
     <g id="line2d_10">
      <g>
       <use xlink:href="#m1cc0b1f6ef" x="46.965625" y="219.930632" style="stroke: #000000; stroke-width: 0.8"/>
      </g>
     </g>
     <g id="text_11">
      <!-- 100 -->
      <g transform="translate(20.878125 223.729851) scale(0.1 -0.1)">
       <use xlink:href="#DejaVuSans-31"/>
       <use xlink:href="#DejaVuSans-30" transform="translate(63.623047 0)"/>
       <use xlink:href="#DejaVuSans-30" transform="translate(127.246094 0)"/>
      </g>
     </g>
    </g>
    <g id="ytick_3">
     <g id="line2d_11">
      <g>
       <use xlink:href="#m1cc0b1f6ef" x="46.965625" y="193.376949" style="stroke: #000000; stroke-width: 0.8"/>
      </g>
     </g>
     <g id="text_12">
      <!-- 200 -->
      <g transform="translate(20.878125 197.176168) scale(0.1 -0.1)">
       <use xlink:href="#DejaVuSans-32"/>
       <use xlink:href="#DejaVuSans-30" transform="translate(63.623047 0)"/>
       <use xlink:href="#DejaVuSans-30" transform="translate(127.246094 0)"/>
      </g>
     </g>
    </g>
    <g id="ytick_4">
     <g id="line2d_12">
      <g>
       <use xlink:href="#m1cc0b1f6ef" x="46.965625" y="166.823266" style="stroke: #000000; stroke-width: 0.8"/>
      </g>
     </g>
     <g id="text_13">
      <!-- 300 -->
      <g transform="translate(20.878125 170.622485) scale(0.1 -0.1)">
       <use xlink:href="#DejaVuSans-33"/>
       <use xlink:href="#DejaVuSans-30" transform="translate(63.623047 0)"/>
       <use xlink:href="#DejaVuSans-30" transform="translate(127.246094 0)"/>
      </g>
     </g>
    </g>
    <g id="ytick_5">
     <g id="line2d_13">
      <g>
       <use xlink:href="#m1cc0b1f6ef" x="46.965625" y="140.269584" style="stroke: #000000; stroke-width: 0.8"/>
      </g>
     </g>
     <g id="text_14">
      <!-- 400 -->
      <g transform="translate(20.878125 144.068802) scale(0.1 -0.1)">
       <use xlink:href="#DejaVuSans-34"/>
       <use xlink:href="#DejaVuSans-30" transform="translate(63.623047 0)"/>
       <use xlink:href="#DejaVuSans-30" transform="translate(127.246094 0)"/>
      </g>
     </g>
    </g>
    <g id="ytick_6">
     <g id="line2d_14">
      <g>
       <use xlink:href="#m1cc0b1f6ef" x="46.965625" y="113.715901" style="stroke: #000000; stroke-width: 0.8"/>
      </g>
     </g>
     <g id="text_15">
      <!-- 500 -->
      <g transform="translate(20.878125 117.51512) scale(0.1 -0.1)">
       <use xlink:href="#DejaVuSans-35"/>
       <use xlink:href="#DejaVuSans-30" transform="translate(63.623047 0)"/>
       <use xlink:href="#DejaVuSans-30" transform="translate(127.246094 0)"/>
      </g>
     </g>
    </g>
    <g id="ytick_7">
     <g id="line2d_15">
      <g>
       <use xlink:href="#m1cc0b1f6ef" x="46.965625" y="87.162218" style="stroke: #000000; stroke-width: 0.8"/>
      </g>
     </g>
     <g id="text_16">
      <!-- 600 -->
      <g transform="translate(20.878125 90.961437) scale(0.1 -0.1)">
       <defs>
        <path id="DejaVuSans-36" d="M 2113 2584 
Q 1688 2584 1439 2293 
Q 1191 2003 1191 1497 
Q 1191 994 1439 701 
Q 1688 409 2113 409 
Q 2538 409 2786 701 
Q 3034 994 3034 1497 
Q 3034 2003 2786 2293 
Q 2538 2584 2113 2584 
z
M 3366 4563 
L 3366 3988 
Q 3128 4100 2886 4159 
Q 2644 4219 2406 4219 
Q 1781 4219 1451 3797 
Q 1122 3375 1075 2522 
Q 1259 2794 1537 2939 
Q 1816 3084 2150 3084 
Q 2853 3084 3261 2657 
Q 3669 2231 3669 1497 
Q 3669 778 3244 343 
Q 2819 -91 2113 -91 
Q 1303 -91 875 529 
Q 447 1150 447 2328 
Q 447 3434 972 4092 
Q 1497 4750 2381 4750 
Q 2619 4750 2861 4703 
Q 3103 4656 3366 4563 
z
" transform="scale(0.015625)"/>
       </defs>
       <use xlink:href="#DejaVuSans-36"/>
       <use xlink:href="#DejaVuSans-30" transform="translate(63.623047 0)"/>
       <use xlink:href="#DejaVuSans-30" transform="translate(127.246094 0)"/>
      </g>
     </g>
    </g>
    <g id="ytick_8">
     <g id="line2d_16">
      <g>
       <use xlink:href="#m1cc0b1f6ef" x="46.965625" y="60.608535" style="stroke: #000000; stroke-width: 0.8"/>
      </g>
     </g>
     <g id="text_17">
      <!-- 700 -->
      <g transform="translate(20.878125 64.407754) scale(0.1 -0.1)">
       <defs>
        <path id="DejaVuSans-37" d="M 525 4666 
L 3525 4666 
L 3525 4397 
L 1831 0 
L 1172 0 
L 2766 4134 
L 525 4134 
L 525 4666 
z
" transform="scale(0.015625)"/>
       </defs>
       <use xlink:href="#DejaVuSans-37"/>
       <use xlink:href="#DejaVuSans-30" transform="translate(63.623047 0)"/>
       <use xlink:href="#DejaVuSans-30" transform="translate(127.246094 0)"/>
      </g>
     </g>
    </g>
    <g id="ytick_9">
     <g id="line2d_17">
      <g>
       <use xlink:href="#m1cc0b1f6ef" x="46.965625" y="34.054853" style="stroke: #000000; stroke-width: 0.8"/>
      </g>
     </g>
     <g id="text_18">
      <!-- 800 -->
      <g transform="translate(20.878125 37.854072) scale(0.1 -0.1)">
       <defs>
        <path id="DejaVuSans-38" d="M 2034 2216 
Q 1584 2216 1326 1975 
Q 1069 1734 1069 1313 
Q 1069 891 1326 650 
Q 1584 409 2034 409 
Q 2484 409 2743 651 
Q 3003 894 3003 1313 
Q 3003 1734 2745 1975 
Q 2488 2216 2034 2216 
z
M 1403 2484 
Q 997 2584 770 2862 
Q 544 3141 544 3541 
Q 544 4100 942 4425 
Q 1341 4750 2034 4750 
Q 2731 4750 3128 4425 
Q 3525 4100 3525 3541 
Q 3525 3141 3298 2862 
Q 3072 2584 2669 2484 
Q 3125 2378 3379 2068 
Q 3634 1759 3634 1313 
Q 3634 634 3220 271 
Q 2806 -91 2034 -91 
Q 1263 -91 848 271 
Q 434 634 434 1313 
Q 434 1759 690 2068 
Q 947 2378 1403 2484 
z
M 1172 3481 
Q 1172 3119 1398 2916 
Q 1625 2713 2034 2713 
Q 2441 2713 2670 2916 
Q 2900 3119 2900 3481 
Q 2900 3844 2670 4047 
Q 2441 4250 2034 4250 
Q 1625 4250 1398 4047 
Q 1172 3844 1172 3481 
z
" transform="scale(0.015625)"/>
       </defs>
       <use xlink:href="#DejaVuSans-38"/>
       <use xlink:href="#DejaVuSans-30" transform="translate(63.623047 0)"/>
       <use xlink:href="#DejaVuSans-30" transform="translate(127.246094 0)"/>
      </g>
     </g>
    </g>
    <g id="text_19">
     <!-- [counts] -->
     <g transform="translate(14.798437 160.35101) rotate(-90) scale(0.1 -0.1)">
      <defs>
       <path id="DejaVuSans-63" d="M 3122 3366 
L 3122 2828 
Q 2878 2963 2633 3030 
Q 2388 3097 2138 3097 
Q 1578 3097 1268 2742 
Q 959 2388 959 1747 
Q 959 1106 1268 751 
Q 1578 397 2138 397 
Q 2388 397 2633 464 
Q 2878 531 3122 666 
L 3122 134 
Q 2881 22 2623 -34 
Q 2366 -91 2075 -91 
Q 1284 -91 818 406 
Q 353 903 353 1747 
Q 353 2603 823 3093 
Q 1294 3584 2113 3584 
Q 2378 3584 2631 3529 
Q 2884 3475 3122 3366 
z
" transform="scale(0.015625)"/>
       <path id="DejaVuSans-6f" d="M 1959 3097 
Q 1497 3097 1228 2736 
Q 959 2375 959 1747 
Q 959 1119 1226 758 
Q 1494 397 1959 397 
Q 2419 397 2687 759 
Q 2956 1122 2956 1747 
Q 2956 2369 2687 2733 
Q 2419 3097 1959 3097 
z
M 1959 3584 
Q 2709 3584 3137 3096 
Q 3566 2609 3566 1747 
Q 3566 888 3137 398 
Q 2709 -91 1959 -91 
Q 1206 -91 779 398 
Q 353 888 353 1747 
Q 353 2609 779 3096 
Q 1206 3584 1959 3584 
z
" transform="scale(0.015625)"/>
       <path id="DejaVuSans-75" d="M 544 1381 
L 544 3500 
L 1119 3500 
L 1119 1403 
Q 1119 906 1312 657 
Q 1506 409 1894 409 
Q 2359 409 2629 706 
Q 2900 1003 2900 1516 
L 2900 3500 
L 3475 3500 
L 3475 0 
L 2900 0 
L 2900 538 
Q 2691 219 2414 64 
Q 2138 -91 1772 -91 
Q 1169 -91 856 284 
Q 544 659 544 1381 
z
M 1991 3584 
L 1991 3584 
z
" transform="scale(0.015625)"/>
       <path id="DejaVuSans-73" d="M 2834 3397 
L 2834 2853 
Q 2591 2978 2328 3040 
Q 2066 3103 1784 3103 
Q 1356 3103 1142 2972 
Q 928 2841 928 2578 
Q 928 2378 1081 2264 
Q 1234 2150 1697 2047 
L 1894 2003 
Q 2506 1872 2764 1633 
Q 3022 1394 3022 966 
Q 3022 478 2636 193 
Q 2250 -91 1575 -91 
Q 1294 -91 989 -36 
Q 684 19 347 128 
L 347 722 
Q 666 556 975 473 
Q 1284 391 1588 391 
Q 1994 391 2212 530 
Q 2431 669 2431 922 
Q 2431 1156 2273 1281 
Q 2116 1406 1581 1522 
L 1381 1569 
Q 847 1681 609 1914 
Q 372 2147 372 2553 
Q 372 3047 722 3315 
Q 1072 3584 1716 3584 
Q 2034 3584 2315 3537 
Q 2597 3491 2834 3397 
z
" transform="scale(0.015625)"/>
      </defs>
      <use xlink:href="#DejaVuSans-5b"/>
      <use xlink:href="#DejaVuSans-63" transform="translate(39.013672 0)"/>
      <use xlink:href="#DejaVuSans-6f" transform="translate(93.994141 0)"/>
      <use xlink:href="#DejaVuSans-75" transform="translate(155.175781 0)"/>
      <use xlink:href="#DejaVuSans-6e" transform="translate(218.554688 0)"/>
      <use xlink:href="#DejaVuSans-74" transform="translate(281.933594 0)"/>
      <use xlink:href="#DejaVuSans-73" transform="translate(321.142578 0)"/>
      <use xlink:href="#DejaVuSans-5d" transform="translate(373.242188 0)"/>
     </g>
    </g>
   </g>
   <g id="line2d_18">
    <path d="M 63.676268 246.484315 
L 72.031589 246.484315 
L 72.031589 243.828946 
L 73.702653 243.828946 
L 73.702653 233.207473 
L 75.373717 233.207473 
L 75.373717 229.489958 
L 77.044782 229.489958 
L 77.044782 221.258316 
L 78.715846 221.258316 
L 78.715846 216.478653 
L 80.38691 216.478653 
L 80.38691 206.919327 
L 82.057974 206.919327 
L 82.057974 195.235707 
L 83.729039 195.235707 
L 83.729039 189.92497 
L 85.400103 189.92497 
L 85.400103 177.975813 
L 87.071167 177.975813 
L 87.071167 172.39954 
L 88.742231 172.39954 
L 88.742231 167.35434 
L 90.413296 167.35434 
L 90.413296 162.30914 
L 92.08436 162.30914 
L 92.08436 138.410826 
L 93.755424 138.410826 
L 93.755424 145.58032 
L 95.426488 145.58032 
L 95.426488 126.992742 
L 97.097553 126.992742 
L 97.097553 124.868448 
L 98.768617 124.868448 
L 98.768617 114.246975 
L 100.439681 114.246975 
L 100.439681 117.433417 
L 102.110745 117.433417 
L 102.110745 96.456007 
L 103.78181 96.456007 
L 103.78181 103.625501 
L 105.452874 103.625501 
L 105.452874 89.817586 
L 107.123938 89.817586 
L 107.123938 89.286513 
L 108.795002 89.286513 
L 108.795002 75.744135 
L 110.466067 75.744135 
L 110.466067 71.761082 
L 112.137131 71.761082 
L 112.137131 84.772387 
L 113.808195 84.772387 
L 113.808195 66.715883 
L 115.479259 66.715883 
L 115.479259 67.77803 
L 117.150323 67.77803 
L 117.150323 60.874072 
L 118.821388 60.874072 
L 118.821388 64.857125 
L 120.492452 64.857125 
L 120.492452 44.145252 
L 122.163516 44.145252 
L 122.163516 60.342999 
L 123.834581 60.342999 
L 123.834581 42.286494 
L 125.505645 42.286494 
L 125.505645 38.037905 
L 127.176709 38.037905 
L 127.176709 32.992705 
L 128.847773 32.992705 
L 128.847773 42.286494 
L 130.518838 42.286494 
L 130.518838 45.2074 
L 132.189902 45.2074 
L 132.189902 56.89102 
L 133.860966 56.89102 
L 133.860966 43.879715 
L 135.53203 43.879715 
L 135.53203 73.885377 
L 137.203095 73.885377 
L 137.203095 58.218704 
L 138.874159 58.218704 
L 138.874159 62.467293 
L 140.545223 62.467293 
L 140.545223 52.642431 
L 142.216287 52.642431 
L 142.216287 83.179166 
L 143.887352 83.179166 
L 143.887352 66.184809 
L 145.558416 66.184809 
L 145.558416 70.167861 
L 147.22948 70.167861 
L 147.22948 72.557693 
L 148.900544 72.557693 
L 148.900544 66.184809 
L 150.571609 66.184809 
L 150.571609 81.320408 
L 152.242673 81.320408 
L 152.242673 75.744135 
L 153.913737 75.744135 
L 153.913737 70.433398 
L 155.584801 70.433398 
L 155.584801 83.444703 
L 157.255866 83.444703 
L 157.255866 82.117018 
L 158.92693 82.117018 
L 158.92693 75.744135 
L 160.597994 75.744135 
L 160.597994 72.557693 
L 162.269058 72.557693 
L 162.269058 74.150914 
L 163.940123 74.150914 
L 163.940123 81.054871 
L 165.611187 81.054871 
L 165.611187 96.721544 
L 167.282251 96.721544 
L 167.282251 82.382555 
L 168.953315 82.382555 
L 168.953315 91.941881 
L 170.62438 91.941881 
L 170.62438 74.416451 
L 172.295444 74.416451 
L 172.295444 86.631145 
L 175.637572 86.631145 
L 175.637572 76.275208 
L 177.308637 76.275208 
L 177.308637 78.930577 
L 178.979701 78.930577 
L 178.979701 85.834534 
L 180.650765 85.834534 
L 180.650765 106.015333 
L 182.321829 106.015333 
L 182.321829 82.117018 
L 183.992894 82.117018 
L 183.992894 100.43906 
L 185.663958 100.43906 
L 185.663958 96.987081 
L 187.335022 96.987081 
L 187.335022 106.28087 
L 189.006086 106.28087 
L 189.006086 106.015333 
L 190.677151 106.015333 
L 190.677151 97.252618 
L 192.348215 97.252618 
L 192.348215 112.91929 
L 194.019279 112.91929 
L 194.019279 111.591606 
L 195.690343 111.591606 
L 195.690343 120.354322 
L 197.361408 120.354322 
L 197.361408 130.179184 
L 199.032472 130.179184 
L 199.032472 133.631163 
L 200.703536 133.631163 
L 200.703536 139.207436 
L 202.3746 139.207436 
L 202.3746 150.094446 
L 204.045665 150.094446 
L 204.045665 147.173541 
L 205.716729 147.173541 
L 205.716729 165.761119 
L 207.387793 165.761119 
L 207.387793 173.461687 
L 209.058857 173.461687 
L 209.058857 179.03796 
L 210.729922 179.03796 
L 210.729922 189.92497 
L 212.400986 189.92497 
L 212.400986 193.376949 
L 214.07205 193.376949 
L 214.07205 206.919327 
L 215.743114 206.919327 
L 215.743114 209.840232 
L 217.414179 209.840232 
L 217.414179 218.868485 
L 219.085243 218.868485 
L 219.085243 229.489958 
L 220.756307 229.489958 
L 220.756307 227.896737 
L 222.427371 227.896737 
L 222.427371 232.410863 
L 224.098435 232.410863 
L 224.098435 239.049283 
L 225.7695 239.049283 
L 225.7695 240.908041 
L 227.440564 240.908041 
L 227.440564 244.36002 
L 229.111628 244.36002 
L 229.111628 244.094483 
L 230.782693 244.094483 
L 230.782693 233.738547 
L 232.453757 233.738547 
L 232.453757 223.913684 
L 234.124821 223.913684 
L 234.124821 218.071874 
L 235.795885 218.071874 
L 235.795885 211.964527 
L 237.466949 211.964527 
L 237.466949 206.919327 
L 239.138014 206.919327 
L 239.138014 190.190507 
L 240.809078 190.190507 
L 240.809078 197.360002 
L 242.480142 197.360002 
L 242.480142 185.941918 
L 245.822271 185.941918 
L 245.822271 185.676381 
L 247.493335 185.676381 
L 247.493335 165.495582 
L 249.164399 165.495582 
L 249.164399 178.772424 
L 250.835464 178.772424 
L 250.835464 165.230045 
L 252.506528 165.230045 
L 252.506528 157.263941 
L 254.177592 157.263941 
L 254.177592 166.026656 
L 255.848656 166.026656 
L 255.848656 145.58032 
L 257.51972 145.58032 
L 257.51972 154.874109 
L 259.190785 154.874109 
L 259.190785 145.314783 
L 260.861849 145.314783 
L 260.861849 142.128341 
L 262.532913 142.128341 
L 262.532913 138.145289 
L 264.203978 138.145289 
L 264.203978 130.710258 
L 265.875042 130.710258 
L 265.875042 141.331731 
L 267.546106 141.331731 
L 267.546106 126.727205 
L 269.21717 126.727205 
L 269.21717 127.258279 
L 270.888234 127.258279 
L 270.888234 123.00969 
L 272.559299 123.00969 
L 272.559299 115.574659 
L 274.230363 115.574659 
L 274.230363 109.467312 
L 275.901427 109.467312 
L 275.901427 121.150932 
L 277.572492 121.150932 
L 277.572492 92.472955 
L 279.243556 92.472955 
L 279.243556 106.546407 
L 280.91462 106.546407 
L 280.91462 108.405164 
L 282.585684 108.405164 
L 282.585684 103.359965 
L 284.256749 103.359965 
L 284.256749 109.732849 
L 285.927813 109.732849 
L 285.927813 121.682006 
L 287.598877 121.682006 
L 287.598877 118.495564 
L 289.269941 118.495564 
L 289.269941 126.461669 
L 290.941006 126.461669 
L 290.941006 106.546407 
L 292.61207 106.546407 
L 292.61207 120.354322 
L 294.283134 120.354322 
L 294.283134 123.00969 
L 295.954198 123.00969 
L 295.954198 123.540764 
L 297.625263 123.540764 
L 297.625263 123.275227 
L 299.296327 123.275227 
L 299.296327 142.393878 
L 300.967391 142.393878 
L 300.967391 132.303479 
L 302.638455 132.303479 
L 302.638455 132.569016 
L 304.309519 132.569016 
L 304.309519 142.128341 
L 305.980584 142.128341 
L 305.980584 137.348679 
L 307.651648 137.348679 
L 307.651648 133.8967 
L 309.322712 133.8967 
L 309.322712 135.489921 
L 310.993777 135.489921 
L 310.993777 145.845857 
L 312.664841 145.845857 
L 312.664841 135.489921 
L 314.335905 135.489921 
L 314.335905 143.190489 
L 316.006969 143.190489 
L 316.006969 138.410826 
L 317.678033 138.410826 
L 317.678033 151.953204 
L 319.349098 151.953204 
L 319.349098 151.687667 
L 321.020162 151.687667 
L 321.020162 150.359983 
L 322.691226 150.359983 
L 322.691226 158.591625 
L 324.362291 158.591625 
L 324.362291 151.42213 
L 326.033355 151.42213 
L 326.033355 160.981456 
L 327.704419 160.981456 
L 327.704419 159.653772 
L 329.375483 159.653772 
L 329.375483 175.851519 
L 331.046547 175.851519 
L 331.046547 161.778067 
L 332.717612 161.778067 
L 332.717612 161.246993 
L 334.388676 161.246993 
L 334.388676 160.981456 
L 336.05974 160.981456 
L 336.05974 164.964509 
L 337.730805 164.964509 
L 337.730805 179.303497 
L 339.401869 179.303497 
L 339.401869 174.523834 
L 342.743997 174.523834 
L 342.743997 175.851519 
L 344.415062 175.851519 
L 344.415062 180.896718 
L 346.086126 180.896718 
L 346.086126 182.224402 
L 347.75719 182.224402 
L 347.75719 176.117055 
L 349.428254 176.117055 
L 349.428254 186.472992 
L 351.099318 186.472992 
L 351.099318 198.156612 
L 352.770383 198.156612 
L 352.770383 191.783728 
L 354.441447 191.783728 
L 354.441447 196.297854 
L 356.112511 196.297854 
L 356.112511 200.81198 
L 357.783576 200.81198 
L 357.783576 203.467349 
L 359.45464 203.467349 
L 359.45464 206.122717 
L 361.125704 206.122717 
L 361.125704 212.230064 
L 362.796768 212.230064 
L 362.796768 212.761137 
L 364.467832 212.761137 
L 364.467832 214.088822 
L 366.138897 214.088822 
L 366.138897 221.258316 
L 367.809961 221.258316 
L 367.809961 225.241368 
L 369.481025 225.241368 
L 369.481025 224.444758 
L 371.15209 224.444758 
L 371.15209 227.896737 
L 372.823154 227.896737 
L 372.823154 233.47301 
L 374.494218 233.47301 
L 374.494218 231.083179 
L 376.165282 231.083179 
L 376.165282 235.862841 
L 377.836346 235.862841 
L 377.836346 241.439115 
L 379.507411 241.439115 
L 379.507411 239.580357 
L 381.178475 239.580357 
L 381.178475 242.235725 
L 382.849539 242.235725 
L 382.849539 244.094483 
L 386.191668 244.094483 
L 386.191668 246.484315 
L 397.889117 246.484315 
L 397.889117 246.484315 
" clip-path="url(#p490be5bfe6)" style="fill: none; stroke: #1f77b4; stroke-width: 1.5; stroke-linecap: square"/>
   </g>
   <g id="line2d_19">
    <path d="M 63.676268 246.484315 
L 72.031589 246.484315 
L 72.031589 243.563409 
L 73.702653 243.563409 
L 73.702653 233.47301 
L 75.373717 233.47301 
L 75.373717 229.224421 
L 77.044782 229.224421 
L 77.044782 220.992779 
L 78.715846 220.992779 
L 78.715846 214.619895 
L 80.38691 214.619895 
L 80.38691 208.778085 
L 82.057974 208.778085 
L 82.057974 193.642486 
L 83.729039 193.642486 
L 83.729039 191.783728 
L 85.400103 191.783728 
L 85.400103 179.303497 
L 87.071167 179.303497 
L 87.071167 169.478635 
L 88.742231 169.478635 
L 88.742231 167.619877 
L 90.413296 167.619877 
L 90.413296 161.778067 
L 92.08436 161.778067 
L 92.08436 142.128341 
L 93.755424 142.128341 
L 93.755424 144.252636 
L 95.426488 144.252636 
L 95.426488 126.461669 
L 97.097553 126.461669 
L 97.097553 123.275227 
L 98.768617 123.275227 
L 98.768617 115.043585 
L 100.439681 115.043585 
L 100.439681 113.981438 
L 102.110745 113.981438 
L 102.110745 106.811943 
L 103.78181 106.811943 
L 103.78181 93.004028 
L 105.452874 93.004028 
L 105.452874 90.614197 
L 107.123938 90.614197 
L 107.123938 87.958829 
L 108.795002 87.958829 
L 108.795002 78.133966 
L 110.466067 78.133966 
L 110.466067 80.258261 
L 112.137131 80.258261 
L 112.137131 73.088766 
L 113.808195 73.088766 
L 113.808195 66.981419 
L 115.479259 66.981419 
L 115.479259 77.071819 
L 117.150323 77.071819 
L 117.150323 54.766725 
L 118.821388 54.766725 
L 118.821388 54.235652 
L 120.492452 54.235652 
L 120.492452 53.173504 
L 122.163516 53.173504 
L 122.163516 56.625483 
L 123.834581 56.625483 
L 123.834581 45.738473 
L 125.505645 45.738473 
L 125.505645 46.269547 
L 127.176709 46.269547 
L 127.176709 38.568979 
L 128.847773 38.568979 
L 128.847773 37.772368 
L 130.518838 37.772368 
L 130.518838 38.568979 
L 132.189902 38.568979 
L 132.189902 52.907967 
L 133.860966 52.907967 
L 133.860966 53.970115 
L 135.53203 53.970115 
L 135.53203 69.105714 
L 137.203095 69.105714 
L 137.203095 59.546388 
L 138.874159 59.546388 
L 138.874159 57.156557 
L 140.545223 57.156557 
L 140.545223 62.467293 
L 142.216287 62.467293 
L 142.216287 79.992724 
L 143.887352 79.992724 
L 143.887352 66.450346 
L 145.558416 66.450346 
L 145.558416 72.292156 
L 147.22948 72.292156 
L 147.22948 62.201756 
L 148.900544 62.201756 
L 148.900544 75.744135 
L 150.571609 75.744135 
L 150.571609 73.61984 
L 152.242673 73.61984 
L 152.242673 74.150914 
L 153.913737 74.150914 
L 153.913737 83.179166 
L 155.584801 83.179166 
L 155.584801 67.246956 
L 157.255866 67.246956 
L 157.255866 80.789334 
L 158.92693 80.789334 
L 158.92693 78.133966 
L 160.597994 78.133966 
L 160.597994 75.478598 
L 162.269058 75.478598 
L 162.269058 84.50685 
L 163.940123 84.50685 
L 163.940123 78.399503 
L 165.611187 78.399503 
L 165.611187 86.100071 
L 167.282251 86.100071 
L 167.282251 87.162218 
L 168.953315 87.162218 
L 168.953315 90.614197 
L 170.62438 90.614197 
L 170.62438 83.179166 
L 172.295444 83.179166 
L 172.295444 74.681987 
L 173.966508 74.681987 
L 173.966508 96.987081 
L 175.637572 96.987081 
L 175.637572 68.309103 
L 177.308637 68.309103 
L 177.308637 87.693292 
L 178.979701 87.693292 
L 178.979701 83.444703 
L 180.650765 83.444703 
L 180.650765 96.987081 
L 182.321829 96.987081 
L 182.321829 97.783691 
L 183.992894 97.783691 
L 183.992894 93.535102 
L 185.663958 93.535102 
L 185.663958 94.331713 
L 187.335022 94.331713 
L 187.335022 103.359965 
L 189.006086 103.359965 
L 189.006086 110.794996 
L 190.677151 110.794996 
L 190.677151 99.907986 
L 192.348215 99.907986 
L 192.348215 108.139628 
L 194.019279 108.139628 
L 194.019279 110.529459 
L 195.690343 110.529459 
L 195.690343 126.461669 
L 197.361408 126.461669 
L 197.361408 126.992742 
L 199.032472 126.992742 
L 199.032472 128.05489 
L 200.703536 128.05489 
L 200.703536 145.58032 
L 202.3746 145.58032 
L 202.3746 143.987099 
L 204.045665 143.987099 
L 204.045665 158.060551 
L 205.716729 158.060551 
L 205.716729 161.246993 
L 207.387793 161.246993 
L 207.387793 173.992761 
L 209.058857 173.992761 
L 209.058857 179.303497 
L 210.729922 179.303497 
L 210.729922 189.12836 
L 212.400986 189.12836 
L 212.400986 195.235707 
L 214.07205 195.235707 
L 214.07205 205.326106 
L 215.743114 205.326106 
L 215.743114 209.043622 
L 217.414179 209.043622 
L 217.414179 218.602948 
L 219.085243 218.602948 
L 219.085243 228.958884 
L 220.756307 228.958884 
L 220.756307 229.755494 
L 222.427371 229.755494 
L 222.427371 232.410863 
L 224.098435 232.410863 
L 224.098435 237.456062 
L 225.7695 237.456062 
L 225.7695 241.704652 
L 227.440564 241.704652 
L 227.440564 243.297873 
L 230.782693 243.297873 
L 230.782693 233.207473 
L 232.453757 233.207473 
L 232.453757 224.975832 
L 234.124821 224.975832 
L 234.124821 218.071874 
L 235.795885 218.071874 
L 235.795885 210.90238 
L 237.466949 210.90238 
L 237.466949 206.122717 
L 239.138014 206.122717 
L 239.138014 193.376949 
L 240.809078 193.376949 
L 240.809078 195.235707 
L 242.480142 195.235707 
L 242.480142 187.004065 
L 244.151207 187.004065 
L 244.151207 185.941918 
L 245.822271 185.941918 
L 245.822271 183.28655 
L 247.493335 183.28655 
L 247.493335 170.009708 
L 249.164399 170.009708 
L 249.164399 174.523834 
L 250.835464 174.523834 
L 250.835464 166.026656 
L 252.506528 166.026656 
L 252.506528 158.326088 
L 254.177592 158.326088 
L 254.177592 160.715919 
L 255.848656 160.715919 
L 255.848656 147.173541 
L 257.51972 147.173541 
L 257.51972 154.343035 
L 259.190785 154.343035 
L 259.190785 145.845857 
L 260.861849 145.845857 
L 260.861849 141.862805 
L 262.532913 141.862805 
L 262.532913 141.597268 
L 264.203978 141.597268 
L 264.203978 133.631163 
L 265.875042 133.631163 
L 265.875042 139.472973 
L 267.546106 139.472973 
L 267.546106 124.602911 
L 269.21717 124.602911 
L 269.21717 122.744153 
L 270.888234 122.744153 
L 270.888234 128.320426 
L 272.559299 128.320426 
L 272.559299 110.263922 
L 274.230363 110.263922 
L 274.230363 113.715901 
L 275.901427 113.715901 
L 275.901427 115.840196 
L 277.572492 115.840196 
L 277.572492 103.094428 
L 279.243556 103.094428 
L 279.243556 103.625501 
L 280.91462 103.625501 
L 280.91462 114.512511 
L 282.585684 114.512511 
L 282.585684 102.563354 
L 284.256749 102.563354 
L 284.256749 96.721544 
L 285.927813 96.721544 
L 285.927813 124.071837 
L 287.598877 124.071837 
L 287.598877 125.133985 
L 289.269941 125.133985 
L 289.269941 122.744153 
L 290.941006 122.744153 
L 290.941006 110.794996 
L 292.61207 110.794996 
L 292.61207 115.574659 
L 294.283134 115.574659 
L 294.283134 120.885395 
L 295.954198 120.885395 
L 295.954198 126.196132 
L 297.625263 126.196132 
L 297.625263 128.05489 
L 299.296327 128.05489 
L 299.296327 137.083142 
L 300.967391 137.083142 
L 300.967391 133.100089 
L 302.638455 133.100089 
L 302.638455 134.162237 
L 304.309519 134.162237 
L 304.309519 138.410826 
L 305.980584 138.410826 
L 305.980584 134.958847 
L 307.651648 134.958847 
L 307.651648 132.569016 
L 309.322712 132.569016 
L 309.322712 141.597268 
L 310.993777 141.597268 
L 310.993777 143.190489 
L 312.664841 143.190489 
L 312.664841 138.410826 
L 314.335905 138.410826 
L 314.335905 143.987099 
L 316.006969 143.987099 
L 316.006969 139.472973 
L 317.678033 139.472973 
L 317.678033 143.987099 
L 319.349098 143.987099 
L 319.349098 161.246993 
L 321.020162 161.246993 
L 321.020162 155.936256 
L 322.691226 155.936256 
L 322.691226 150.62552 
L 324.362291 150.62552 
L 324.362291 153.546425 
L 326.033355 153.546425 
L 326.033355 162.043603 
L 327.704419 162.043603 
L 327.704419 166.026656 
L 329.375483 166.026656 
L 329.375483 162.043603 
L 331.046547 162.043603 
L 331.046547 162.30914 
L 332.717612 162.30914 
L 332.717612 160.450383 
L 334.388676 160.450383 
L 334.388676 168.150951 
L 336.05974 168.150951 
L 336.05974 166.823266 
L 337.730805 166.823266 
L 337.730805 171.071856 
L 339.401869 171.071856 
L 339.401869 176.648129 
L 341.072933 176.648129 
L 341.072933 177.444739 
L 342.743997 177.444739 
L 342.743997 178.24135 
L 344.415062 178.24135 
L 344.415062 181.427792 
L 346.086126 181.427792 
L 346.086126 174.523834 
L 347.75719 174.523834 
L 347.75719 183.021013 
L 349.428254 183.021013 
L 349.428254 182.489939 
L 351.099318 182.489939 
L 351.099318 193.111412 
L 352.770383 193.111412 
L 352.770383 196.297854 
L 356.112511 196.297854 
L 356.112511 203.201812 
L 357.783576 203.201812 
L 357.783576 201.874128 
L 359.45464 201.874128 
L 359.45464 207.981475 
L 361.125704 207.981475 
L 361.125704 210.105769 
L 362.796768 210.105769 
L 362.796768 213.292211 
L 364.467832 213.292211 
L 364.467832 213.557748 
L 366.138897 213.557748 
L 366.138897 223.648147 
L 367.809961 223.648147 
L 367.809961 222.851537 
L 369.481025 222.851537 
L 369.481025 223.117074 
L 371.15209 223.117074 
L 371.15209 230.552105 
L 374.494218 230.552105 
L 374.494218 232.410863 
L 376.165282 232.410863 
L 376.165282 237.190526 
L 377.836346 237.190526 
L 377.836346 240.376968 
L 379.507411 240.376968 
L 379.507411 240.111431 
L 381.178475 240.111431 
L 381.178475 241.704652 
L 382.849539 241.704652 
L 382.849539 244.36002 
L 384.520603 244.36002 
L 384.520603 243.828946 
L 386.191668 243.828946 
L 386.191668 246.484315 
L 387.862732 246.484315 
L 387.862732 245.953241 
L 389.533796 245.953241 
L 389.533796 246.484315 
L 397.889117 246.484315 
L 397.889117 246.484315 
" clip-path="url(#p490be5bfe6)" style="fill: none; stroke: #ff7f0e; stroke-width: 1.5; stroke-linecap: square"/>
   </g>
   <g id="patch_3">
    <path d="M 46.965625 257.158895 
L 46.965625 22.318125 
" style="fill: none; stroke: #000000; stroke-width: 0.8; stroke-linejoin: miter; stroke-linecap: square"/>
   </g>
   <g id="patch_4">
    <path d="M 414.59976 257.158895 
L 414.59976 22.318125 
" style="fill: none; stroke: #000000; stroke-width: 0.8; stroke-linejoin: miter; stroke-linecap: square"/>
   </g>
   <g id="patch_5">
    <path d="M 46.965625 257.158895 
L 414.59976 257.158895 
" style="fill: none; stroke: #000000; stroke-width: 0.8; stroke-linejoin: miter; stroke-linecap: square"/>
   </g>
   <g id="patch_6">
    <path d="M 46.965625 22.318125 
L 414.59976 22.318125 
" style="fill: none; stroke: #000000; stroke-width: 0.8; stroke-linejoin: miter; stroke-linecap: square"/>
   </g>
   <g id="text_20">
    <!-- Pixel 1 -->
    <g transform="translate(211.18613 16.318125) scale(0.12 -0.12)">
     <defs>
      <path id="DejaVuSans-50" d="M 1259 4147 
L 1259 2394 
L 2053 2394 
Q 2494 2394 2734 2622 
Q 2975 2850 2975 3272 
Q 2975 3691 2734 3919 
Q 2494 4147 2053 4147 
L 1259 4147 
z
M 628 4666 
L 2053 4666 
Q 2838 4666 3239 4311 
Q 3641 3956 3641 3272 
Q 3641 2581 3239 2228 
Q 2838 1875 2053 1875 
L 1259 1875 
L 1259 0 
L 628 0 
L 628 4666 
z
" transform="scale(0.015625)"/>
      <path id="DejaVuSans-69" d="M 603 3500 
L 1178 3500 
L 1178 0 
L 603 0 
L 603 3500 
z
M 603 4863 
L 1178 4863 
L 1178 4134 
L 603 4134 
L 603 4863 
z
" transform="scale(0.015625)"/>
      <path id="DejaVuSans-78" d="M 3513 3500 
L 2247 1797 
L 3578 0 
L 2900 0 
L 1881 1375 
L 863 0 
L 184 0 
L 1544 1831 
L 300 3500 
L 978 3500 
L 1906 2253 
L 2834 3500 
L 3513 3500 
z
" transform="scale(0.015625)"/>
     </defs>
     <use xlink:href="#DejaVuSans-50"/>
     <use xlink:href="#DejaVuSans-69" transform="translate(58.052734 0)"/>
     <use xlink:href="#DejaVuSans-78" transform="translate(85.835938 0)"/>
     <use xlink:href="#DejaVuSans-65" transform="translate(141.890625 0)"/>
     <use xlink:href="#DejaVuSans-6c" transform="translate(203.414062 0)"/>
     <use xlink:href="#DejaVuSans-20" transform="translate(231.197266 0)"/>
     <use xlink:href="#DejaVuSans-31" transform="translate(262.984375 0)"/>
    </g>
   </g>
   <g id="legend_1">
    <g id="patch_7">
     <path d="M 310.596635 59.9525 
L 407.59976 59.9525 
Q 409.59976 59.9525 409.59976 57.9525 
L 409.59976 29.318125 
Q 409.59976 27.318125 407.59976 27.318125 
L 310.596635 27.318125 
Q 308.596635 27.318125 308.596635 29.318125 
L 308.596635 57.9525 
Q 308.596635 59.9525 310.596635 59.9525 
z
" style="fill: #ffffff; opacity: 0.8; stroke: #cccccc; stroke-linejoin: miter"/>
    </g>
    <g id="line2d_20">
     <path d="M 312.596635 35.416562 
L 312.596635 35.416562 
L 322.596635 35.416562 
L 322.596635 35.416562 
L 332.596635 35.416562 
" style="fill: none; stroke: #1f77b4; stroke-width: 1.5; stroke-linecap: square"/>
    </g>
    <g id="text_21">
     <!-- wfm -->
     <g transform="translate(340.596635 38.916562) scale(0.1 -0.1)">
      <defs>
       <path id="DejaVuSans-66" d="M 2375 4863 
L 2375 4384 
L 1825 4384 
Q 1516 4384 1395 4259 
Q 1275 4134 1275 3809 
L 1275 3500 
L 2222 3500 
L 2222 3053 
L 1275 3053 
L 1275 0 
L 697 0 
L 697 3053 
L 147 3053 
L 147 3500 
L 697 3500 
L 697 3744 
Q 697 4328 969 4595 
Q 1241 4863 1831 4863 
L 2375 4863 
z
" transform="scale(0.015625)"/>
       <path id="DejaVuSans-6d" d="M 3328 2828 
Q 3544 3216 3844 3400 
Q 4144 3584 4550 3584 
Q 5097 3584 5394 3201 
Q 5691 2819 5691 2113 
L 5691 0 
L 5113 0 
L 5113 2094 
Q 5113 2597 4934 2840 
Q 4756 3084 4391 3084 
Q 3944 3084 3684 2787 
Q 3425 2491 3425 1978 
L 3425 0 
L 2847 0 
L 2847 2094 
Q 2847 2600 2669 2842 
Q 2491 3084 2119 3084 
Q 1678 3084 1418 2786 
Q 1159 2488 1159 1978 
L 1159 0 
L 581 0 
L 581 3500 
L 1159 3500 
L 1159 2956 
Q 1356 3278 1631 3431 
Q 1906 3584 2284 3584 
Q 2666 3584 2933 3390 
Q 3200 3197 3328 2828 
z
" transform="scale(0.015625)"/>
      </defs>
      <use xlink:href="#DejaVuSans-77"/>
      <use xlink:href="#DejaVuSans-66" transform="translate(81.787109 0)"/>
      <use xlink:href="#DejaVuSans-6d" transform="translate(116.992188 0)"/>
     </g>
    </g>
    <g id="line2d_21">
     <path d="M 312.596635 50.094687 
L 312.596635 50.094687 
L 322.596635 50.094687 
L 322.596635 50.094687 
L 332.596635 50.094687 
" style="fill: none; stroke: #ff7f0e; stroke-width: 1.5; stroke-linecap: square"/>
    </g>
    <g id="text_22">
     <!-- ground_truth -->
     <g transform="translate(340.596635 53.594687) scale(0.1 -0.1)">
      <defs>
       <path id="DejaVuSans-72" d="M 2631 2963 
Q 2534 3019 2420 3045 
Q 2306 3072 2169 3072 
Q 1681 3072 1420 2755 
Q 1159 2438 1159 1844 
L 1159 0 
L 581 0 
L 581 3500 
L 1159 3500 
L 1159 2956 
Q 1341 3275 1631 3429 
Q 1922 3584 2338 3584 
Q 2397 3584 2469 3576 
Q 2541 3569 2628 3553 
L 2631 2963 
z
" transform="scale(0.015625)"/>
       <path id="DejaVuSans-64" d="M 2906 2969 
L 2906 4863 
L 3481 4863 
L 3481 0 
L 2906 0 
L 2906 525 
Q 2725 213 2448 61 
Q 2172 -91 1784 -91 
Q 1150 -91 751 415 
Q 353 922 353 1747 
Q 353 2572 751 3078 
Q 1150 3584 1784 3584 
Q 2172 3584 2448 3432 
Q 2725 3281 2906 2969 
z
M 947 1747 
Q 947 1113 1208 752 
Q 1469 391 1925 391 
Q 2381 391 2643 752 
Q 2906 1113 2906 1747 
Q 2906 2381 2643 2742 
Q 2381 3103 1925 3103 
Q 1469 3103 1208 2742 
Q 947 2381 947 1747 
z
" transform="scale(0.015625)"/>
       <path id="DejaVuSans-5f" d="M 3263 -1063 
L 3263 -1509 
L -63 -1509 
L -63 -1063 
L 3263 -1063 
z
" transform="scale(0.015625)"/>
      </defs>
      <use xlink:href="#DejaVuSans-67"/>
      <use xlink:href="#DejaVuSans-72" transform="translate(63.476562 0)"/>
      <use xlink:href="#DejaVuSans-6f" transform="translate(102.339844 0)"/>
      <use xlink:href="#DejaVuSans-75" transform="translate(163.521484 0)"/>
      <use xlink:href="#DejaVuSans-6e" transform="translate(226.900391 0)"/>
      <use xlink:href="#DejaVuSans-64" transform="translate(290.279297 0)"/>
      <use xlink:href="#DejaVuSans-5f" transform="translate(353.755859 0)"/>
      <use xlink:href="#DejaVuSans-74" transform="translate(403.755859 0)"/>
      <use xlink:href="#DejaVuSans-72" transform="translate(442.964844 0)"/>
      <use xlink:href="#DejaVuSans-75" transform="translate(484.078125 0)"/>
      <use xlink:href="#DejaVuSans-74" transform="translate(547.457031 0)"/>
      <use xlink:href="#DejaVuSans-68" transform="translate(586.666016 0)"/>
     </g>
    </g>
   </g>
  </g>
  <g id="axes_2">
   <g id="patch_8">
    <path d="M 497.565385 257.158895 
L 865.19952 257.158895 
L 865.19952 22.318125 
L 497.565385 22.318125 
z
" style="fill: #ffffff"/>
   </g>
   <g id="matplotlib.axis_3">
    <g id="xtick_9">
     <g id="line2d_22">
      <g>
       <use xlink:href="#mced439a79d" x="531.866178" y="257.158895" style="stroke: #000000; stroke-width: 0.8"/>
      </g>
     </g>
     <g id="text_23">
      <!-- 1.0 -->
      <g transform="translate(523.914615 271.757332) scale(0.1 -0.1)">
       <use xlink:href="#DejaVuSans-31"/>
       <use xlink:href="#DejaVuSans-2e" transform="translate(63.623047 0)"/>
       <use xlink:href="#DejaVuSans-30" transform="translate(95.410156 0)"/>
      </g>
     </g>
    </g>
    <g id="xtick_10">
     <g id="line2d_23">
      <g>
       <use xlink:href="#mced439a79d" x="575.841553" y="257.158895" style="stroke: #000000; stroke-width: 0.8"/>
      </g>
     </g>
     <g id="text_24">
      <!-- 1.5 -->
      <g transform="translate(567.88999 271.757332) scale(0.1 -0.1)">
       <use xlink:href="#DejaVuSans-31"/>
       <use xlink:href="#DejaVuSans-2e" transform="translate(63.623047 0)"/>
       <use xlink:href="#DejaVuSans-35" transform="translate(95.410156 0)"/>
      </g>
     </g>
    </g>
    <g id="xtick_11">
     <g id="line2d_24">
      <g>
       <use xlink:href="#mced439a79d" x="619.816928" y="257.158895" style="stroke: #000000; stroke-width: 0.8"/>
      </g>
     </g>
     <g id="text_25">
      <!-- 2.0 -->
      <g transform="translate(611.865365 271.757332) scale(0.1 -0.1)">
       <use xlink:href="#DejaVuSans-32"/>
       <use xlink:href="#DejaVuSans-2e" transform="translate(63.623047 0)"/>
       <use xlink:href="#DejaVuSans-30" transform="translate(95.410156 0)"/>
      </g>
     </g>
    </g>
    <g id="xtick_12">
     <g id="line2d_25">
      <g>
       <use xlink:href="#mced439a79d" x="663.792303" y="257.158895" style="stroke: #000000; stroke-width: 0.8"/>
      </g>
     </g>
     <g id="text_26">
      <!-- 2.5 -->
      <g transform="translate(655.84074 271.757332) scale(0.1 -0.1)">
       <use xlink:href="#DejaVuSans-32"/>
       <use xlink:href="#DejaVuSans-2e" transform="translate(63.623047 0)"/>
       <use xlink:href="#DejaVuSans-35" transform="translate(95.410156 0)"/>
      </g>
     </g>
    </g>
    <g id="xtick_13">
     <g id="line2d_26">
      <g>
       <use xlink:href="#mced439a79d" x="707.767677" y="257.158895" style="stroke: #000000; stroke-width: 0.8"/>
      </g>
     </g>
     <g id="text_27">
      <!-- 3.0 -->
      <g transform="translate(699.816115 271.757332) scale(0.1 -0.1)">
       <use xlink:href="#DejaVuSans-33"/>
       <use xlink:href="#DejaVuSans-2e" transform="translate(63.623047 0)"/>
       <use xlink:href="#DejaVuSans-30" transform="translate(95.410156 0)"/>
      </g>
     </g>
    </g>
    <g id="xtick_14">
     <g id="line2d_27">
      <g>
       <use xlink:href="#mced439a79d" x="751.743052" y="257.158895" style="stroke: #000000; stroke-width: 0.8"/>
      </g>
     </g>
     <g id="text_28">
      <!-- 3.5 -->
      <g transform="translate(743.79149 271.757332) scale(0.1 -0.1)">
       <use xlink:href="#DejaVuSans-33"/>
       <use xlink:href="#DejaVuSans-2e" transform="translate(63.623047 0)"/>
       <use xlink:href="#DejaVuSans-35" transform="translate(95.410156 0)"/>
      </g>
     </g>
    </g>
    <g id="xtick_15">
     <g id="line2d_28">
      <g>
       <use xlink:href="#mced439a79d" x="795.718427" y="257.158895" style="stroke: #000000; stroke-width: 0.8"/>
      </g>
     </g>
     <g id="text_29">
      <!-- 4.0 -->
      <g transform="translate(787.766865 271.757332) scale(0.1 -0.1)">
       <use xlink:href="#DejaVuSans-34"/>
       <use xlink:href="#DejaVuSans-2e" transform="translate(63.623047 0)"/>
       <use xlink:href="#DejaVuSans-30" transform="translate(95.410156 0)"/>
      </g>
     </g>
    </g>
    <g id="xtick_16">
     <g id="line2d_29">
      <g>
       <use xlink:href="#mced439a79d" x="839.693802" y="257.158895" style="stroke: #000000; stroke-width: 0.8"/>
      </g>
     </g>
     <g id="text_30">
      <!-- 4.5 -->
      <g transform="translate(831.74224 271.757332) scale(0.1 -0.1)">
       <use xlink:href="#DejaVuSans-34"/>
       <use xlink:href="#DejaVuSans-2e" transform="translate(63.623047 0)"/>
       <use xlink:href="#DejaVuSans-35" transform="translate(95.410156 0)"/>
      </g>
     </g>
    </g>
    <g id="text_31">
     <!-- wavelength [Å] -->
     <g transform="translate(643.344952 287.119832) scale(0.1 -0.1)">
      <use xlink:href="#DejaVuSans-77"/>
      <use xlink:href="#DejaVuSans-61" transform="translate(81.787109 0)"/>
      <use xlink:href="#DejaVuSans-76" transform="translate(143.066406 0)"/>
      <use xlink:href="#DejaVuSans-65" transform="translate(202.246094 0)"/>
      <use xlink:href="#DejaVuSans-6c" transform="translate(263.769531 0)"/>
      <use xlink:href="#DejaVuSans-65" transform="translate(291.552734 0)"/>
      <use xlink:href="#DejaVuSans-6e" transform="translate(353.076172 0)"/>
      <use xlink:href="#DejaVuSans-67" transform="translate(416.455078 0)"/>
      <use xlink:href="#DejaVuSans-74" transform="translate(479.931641 0)"/>
      <use xlink:href="#DejaVuSans-68" transform="translate(519.140625 0)"/>
      <use xlink:href="#DejaVuSans-20" transform="translate(582.519531 0)"/>
      <use xlink:href="#DejaVuSans-5b" transform="translate(614.306641 0)"/>
      <use xlink:href="#DejaVuSans-c5" transform="translate(653.320312 0)"/>
      <use xlink:href="#DejaVuSans-5d" transform="translate(721.728516 0)"/>
     </g>
    </g>
   </g>
   <g id="matplotlib.axis_4">
    <g id="ytick_10">
     <g id="line2d_30">
      <g>
       <use xlink:href="#m1cc0b1f6ef" x="497.565385" y="246.484315" style="stroke: #000000; stroke-width: 0.8"/>
      </g>
     </g>
     <g id="text_32">
      <!-- 0 -->
      <g transform="translate(484.202885 250.283533) scale(0.1 -0.1)">
       <use xlink:href="#DejaVuSans-30"/>
      </g>
     </g>
    </g>
    <g id="ytick_11">
     <g id="line2d_31">
      <g>
       <use xlink:href="#m1cc0b1f6ef" x="497.565385" y="219.596203" style="stroke: #000000; stroke-width: 0.8"/>
      </g>
     </g>
     <g id="text_33">
      <!-- 100 -->
      <g transform="translate(471.477885 223.395421) scale(0.1 -0.1)">
       <use xlink:href="#DejaVuSans-31"/>
       <use xlink:href="#DejaVuSans-30" transform="translate(63.623047 0)"/>
       <use xlink:href="#DejaVuSans-30" transform="translate(127.246094 0)"/>
      </g>
     </g>
    </g>
    <g id="ytick_12">
     <g id="line2d_32">
      <g>
       <use xlink:href="#m1cc0b1f6ef" x="497.565385" y="192.708091" style="stroke: #000000; stroke-width: 0.8"/>
      </g>
     </g>
     <g id="text_34">
      <!-- 200 -->
      <g transform="translate(471.477885 196.507309) scale(0.1 -0.1)">
       <use xlink:href="#DejaVuSans-32"/>
       <use xlink:href="#DejaVuSans-30" transform="translate(63.623047 0)"/>
       <use xlink:href="#DejaVuSans-30" transform="translate(127.246094 0)"/>
      </g>
     </g>
    </g>
    <g id="ytick_13">
     <g id="line2d_33">
      <g>
       <use xlink:href="#m1cc0b1f6ef" x="497.565385" y="165.819979" style="stroke: #000000; stroke-width: 0.8"/>
      </g>
     </g>
     <g id="text_35">
      <!-- 300 -->
      <g transform="translate(471.477885 169.619197) scale(0.1 -0.1)">
       <use xlink:href="#DejaVuSans-33"/>
       <use xlink:href="#DejaVuSans-30" transform="translate(63.623047 0)"/>
       <use xlink:href="#DejaVuSans-30" transform="translate(127.246094 0)"/>
      </g>
     </g>
    </g>
    <g id="ytick_14">
     <g id="line2d_34">
      <g>
       <use xlink:href="#m1cc0b1f6ef" x="497.565385" y="138.931867" style="stroke: #000000; stroke-width: 0.8"/>
      </g>
     </g>
     <g id="text_36">
      <!-- 400 -->
      <g transform="translate(471.477885 142.731085) scale(0.1 -0.1)">
       <use xlink:href="#DejaVuSans-34"/>
       <use xlink:href="#DejaVuSans-30" transform="translate(63.623047 0)"/>
       <use xlink:href="#DejaVuSans-30" transform="translate(127.246094 0)"/>
      </g>
     </g>
    </g>
    <g id="ytick_15">
     <g id="line2d_35">
      <g>
       <use xlink:href="#m1cc0b1f6ef" x="497.565385" y="112.043755" style="stroke: #000000; stroke-width: 0.8"/>
      </g>
     </g>
     <g id="text_37">
      <!-- 500 -->
      <g transform="translate(471.477885 115.842973) scale(0.1 -0.1)">
       <use xlink:href="#DejaVuSans-35"/>
       <use xlink:href="#DejaVuSans-30" transform="translate(63.623047 0)"/>
       <use xlink:href="#DejaVuSans-30" transform="translate(127.246094 0)"/>
      </g>
     </g>
    </g>
    <g id="ytick_16">
     <g id="line2d_36">
      <g>
       <use xlink:href="#m1cc0b1f6ef" x="497.565385" y="85.155643" style="stroke: #000000; stroke-width: 0.8"/>
      </g>
     </g>
     <g id="text_38">
      <!-- 600 -->
      <g transform="translate(471.477885 88.954861) scale(0.1 -0.1)">
       <use xlink:href="#DejaVuSans-36"/>
       <use xlink:href="#DejaVuSans-30" transform="translate(63.623047 0)"/>
       <use xlink:href="#DejaVuSans-30" transform="translate(127.246094 0)"/>
      </g>
     </g>
    </g>
    <g id="ytick_17">
     <g id="line2d_37">
      <g>
       <use xlink:href="#m1cc0b1f6ef" x="497.565385" y="58.267531" style="stroke: #000000; stroke-width: 0.8"/>
      </g>
     </g>
     <g id="text_39">
      <!-- 700 -->
      <g transform="translate(471.477885 62.066749) scale(0.1 -0.1)">
       <use xlink:href="#DejaVuSans-37"/>
       <use xlink:href="#DejaVuSans-30" transform="translate(63.623047 0)"/>
       <use xlink:href="#DejaVuSans-30" transform="translate(127.246094 0)"/>
      </g>
     </g>
    </g>
    <g id="ytick_18">
     <g id="line2d_38">
      <g>
       <use xlink:href="#m1cc0b1f6ef" x="497.565385" y="31.379419" style="stroke: #000000; stroke-width: 0.8"/>
      </g>
     </g>
     <g id="text_40">
      <!-- 800 -->
      <g transform="translate(471.477885 35.178637) scale(0.1 -0.1)">
       <use xlink:href="#DejaVuSans-38"/>
       <use xlink:href="#DejaVuSans-30" transform="translate(63.623047 0)"/>
       <use xlink:href="#DejaVuSans-30" transform="translate(127.246094 0)"/>
      </g>
     </g>
    </g>
    <g id="text_41">
     <!-- [counts] -->
     <g transform="translate(465.398198 160.35101) rotate(-90) scale(0.1 -0.1)">
      <use xlink:href="#DejaVuSans-5b"/>
      <use xlink:href="#DejaVuSans-63" transform="translate(39.013672 0)"/>
      <use xlink:href="#DejaVuSans-6f" transform="translate(93.994141 0)"/>
      <use xlink:href="#DejaVuSans-75" transform="translate(155.175781 0)"/>
      <use xlink:href="#DejaVuSans-6e" transform="translate(218.554688 0)"/>
      <use xlink:href="#DejaVuSans-74" transform="translate(281.933594 0)"/>
      <use xlink:href="#DejaVuSans-73" transform="translate(321.142578 0)"/>
      <use xlink:href="#DejaVuSans-5d" transform="translate(373.242188 0)"/>
     </g>
    </g>
   </g>
   <g id="line2d_39">
    <path d="M 514.276028 246.484315 
L 522.631349 246.484315 
L 522.631349 244.871028 
L 524.302413 244.871028 
L 524.302413 232.502496 
L 525.973477 232.502496 
L 525.973477 230.082566 
L 527.644542 230.082566 
L 527.644542 220.402846 
L 529.315606 220.402846 
L 529.315606 214.21858 
L 530.98667 214.21858 
L 530.98667 208.034314 
L 532.657734 208.034314 
L 532.657734 194.321377 
L 534.328799 194.321377 
L 534.328799 188.943755 
L 535.999863 188.943755 
L 535.999863 177.112986 
L 537.670927 177.112986 
L 537.670927 175.499699 
L 539.341991 175.499699 
L 539.341991 162.324524 
L 541.013056 162.324524 
L 541.013056 161.786762 
L 542.68412 161.786762 
L 542.68412 137.049699 
L 544.355184 137.049699 
L 544.355184 144.309489 
L 546.026248 144.309489 
L 546.026248 125.21893 
L 547.697313 125.21893 
L 547.697313 123.067881 
L 549.368377 123.067881 
L 549.368377 113.119279 
L 551.039441 113.119279 
L 551.039441 116.076971 
L 552.710505 116.076971 
L 552.710505 95.104244 
L 554.38157 95.104244 
L 554.38157 101.019629 
L 556.052634 101.019629 
L 556.052634 89.457741 
L 557.723698 89.457741 
L 557.723698 85.424524 
L 559.394762 85.424524 
L 559.394762 71.711587 
L 561.065827 71.711587 
L 561.065827 74.669279 
L 562.736891 74.669279 
L 562.736891 77.626971 
L 564.407955 77.626971 
L 564.407955 66.333964 
L 566.079019 66.333964 
L 566.079019 72.51823 
L 567.750084 72.51823 
L 567.750084 53.158789 
L 569.421148 53.158789 
L 569.421148 62.031866 
L 571.092212 62.031866 
L 571.092212 43.479069 
L 572.763276 43.479069 
L 572.763276 53.965433 
L 574.434341 53.965433 
L 574.434341 41.32802 
L 576.105405 41.32802 
L 576.105405 32.992705 
L 577.776469 32.992705 
L 577.776469 35.143754 
L 579.447533 35.143754 
L 579.447533 43.74795 
L 581.118598 43.74795 
L 581.118598 40.252496 
L 582.789662 40.252496 
L 582.789662 47.781167 
L 584.460726 47.781167 
L 584.460726 43.479069 
L 586.13179 43.479069 
L 586.13179 67.947251 
L 587.802855 67.947251 
L 587.802855 60.687461 
L 589.473919 60.687461 
L 589.473919 58.267531 
L 591.144983 58.267531 
L 591.144983 54.234314 
L 592.816047 54.234314 
L 592.816047 80.315783 
L 594.487112 80.315783 
L 594.487112 61.494104 
L 596.158176 61.494104 
L 596.158176 67.947251 
L 597.82924 67.947251 
L 597.82924 70.904943 
L 599.500304 70.904943 
L 599.500304 63.645153 
L 601.171369 63.645153 
L 601.171369 78.702496 
L 602.842433 78.702496 
L 602.842433 71.442706 
L 606.184561 71.442706 
L 606.184561 79.509139 
L 607.855626 79.509139 
L 607.855626 81.929069 
L 609.52669 81.929069 
L 609.52669 76.551447 
L 611.197754 76.551447 
L 611.197754 67.409489 
L 612.868818 67.409489 
L 612.868818 70.904943 
L 614.539882 70.904943 
L 614.539882 78.971377 
L 616.210947 78.971377 
L 616.210947 93.759839 
L 617.882011 93.759839 
L 617.882011 84.080118 
L 619.553075 84.080118 
L 619.553075 87.037811 
L 621.22414 87.037811 
L 621.22414 72.51823 
L 622.895204 72.51823 
L 622.895204 83.004594 
L 624.566268 83.004594 
L 624.566268 85.155643 
L 626.237332 85.155643 
L 626.237332 77.895852 
L 627.908397 77.895852 
L 627.908397 73.055992 
L 629.579461 73.055992 
L 629.579461 85.693405 
L 631.250525 85.693405 
L 631.250525 102.901797 
L 632.921589 102.901797 
L 632.921589 84.61788 
L 634.592654 84.61788 
L 634.592654 91.877671 
L 636.263718 91.877671 
L 636.263718 96.717531 
L 637.934782 96.717531 
L 637.934782 108.817181 
L 639.605846 108.817181 
L 639.605846 101.557391 
L 641.27691 101.557391 
L 641.27691 97.524174 
L 642.947975 97.524174 
L 642.947975 107.741657 
L 644.619039 107.741657 
L 644.619039 110.699349 
L 646.290103 110.699349 
L 646.290103 119.303545 
L 647.961168 119.303545 
L 647.961168 128.445503 
L 649.632232 128.445503 
L 649.632232 132.209839 
L 651.303296 132.209839 
L 651.303296 138.931867 
L 652.97436 138.931867 
L 652.97436 147.804944 
L 654.645424 147.804944 
L 654.645424 146.191657 
L 656.316489 146.191657 
L 656.316489 165.551097 
L 657.987553 165.551097 
L 657.987553 171.735363 
L 659.658617 171.735363 
L 659.658617 178.18851 
L 661.329682 178.18851 
L 661.329682 188.674874 
L 663.000746 188.674874 
L 663.000746 193.245853 
L 664.67181 193.245853 
L 664.67181 206.95879 
L 666.342874 206.95879 
L 666.342874 209.647601 
L 668.013938 209.647601 
L 668.013938 217.714035 
L 669.685003 217.714035 
L 669.685003 228.738161 
L 673.027131 228.738161 
L 673.027131 233.040259 
L 674.698195 233.040259 
L 674.698195 237.342356 
L 676.36926 237.342356 
L 676.36926 241.913336 
L 678.040324 241.913336 
L 678.040324 243.526622 
L 681.382452 243.526622 
L 681.382452 232.502496 
L 683.053517 232.502496 
L 683.053517 225.242706 
L 684.724581 225.242706 
L 684.724581 217.445154 
L 686.395645 217.445154 
L 686.395645 210.454244 
L 688.06671 210.454244 
L 688.06671 206.689909 
L 689.737774 206.689909 
L 689.737774 190.557042 
L 691.408838 190.557042 
L 691.408838 197.816832 
L 693.079902 197.816832 
L 693.079902 183.297251 
L 694.750967 183.297251 
L 694.750967 185.179419 
L 696.422031 185.179419 
L 696.422031 183.835014 
L 698.093095 183.835014 
L 698.093095 165.282216 
L 699.764159 165.282216 
L 699.764159 178.18851 
L 701.435224 178.18851 
L 701.435224 166.626622 
L 703.106288 166.626622 
L 703.106288 154.25809 
L 704.777352 154.25809 
L 704.777352 165.819979 
L 706.448416 165.819979 
L 706.448416 142.427321 
L 708.119481 142.427321 
L 708.119481 155.602496 
L 709.790545 155.602496 
L 709.790545 143.233965 
L 711.461609 143.233965 
L 711.461609 139.73851 
L 713.132673 139.73851 
L 713.132673 135.705293 
L 714.803738 135.705293 
L 714.803738 131.403195 
L 716.474802 131.403195 
L 716.474802 139.200748 
L 718.145866 139.200748 
L 718.145866 126.025573 
L 719.81693 126.025573 
L 719.81693 126.563335 
L 721.487995 126.563335 
L 721.487995 120.379069 
L 723.159059 120.379069 
L 723.159059 110.161587 
L 724.830123 110.161587 
L 724.830123 112.581517 
L 726.501187 112.581517 
L 726.501187 116.614734 
L 728.172252 116.614734 
L 728.172252 90.533265 
L 729.843316 90.533265 
L 729.843316 106.935013 
L 733.185444 106.935013 
L 733.185444 101.28851 
L 734.856509 101.28851 
L 734.856509 106.12837 
L 736.527573 106.12837 
L 736.527573 120.110188 
L 738.198637 120.110188 
L 738.198637 119.034664 
L 739.869701 119.034664 
L 739.869701 120.64795 
L 741.540766 120.64795 
L 741.540766 107.472776 
L 743.21183 107.472776 
L 743.21183 120.916832 
L 744.882894 120.916832 
L 744.882894 120.110188 
L 746.553958 120.110188 
L 746.553958 123.605643 
L 748.225023 123.605643 
L 748.225023 120.110188 
L 749.896087 120.110188 
L 749.896087 141.351797 
L 751.567151 141.351797 
L 751.567151 130.05879 
L 753.238215 130.05879 
L 753.238215 132.47872 
L 754.909279 132.47872 
L 754.909279 140.545153 
L 756.580344 140.545153 
L 756.580344 135.436412 
L 758.251408 135.436412 
L 758.251408 132.747601 
L 759.922472 132.747601 
L 759.922472 134.092006 
L 761.593537 134.092006 
L 761.593537 143.233965 
L 763.264601 143.233965 
L 763.264601 136.780818 
L 764.935665 136.780818 
L 764.935665 141.082916 
L 766.606729 141.082916 
L 766.606729 136.243055 
L 768.277793 136.243055 
L 768.277793 150.493755 
L 769.948858 150.493755 
L 769.948858 150.762636 
L 771.619922 150.762636 
L 771.619922 150.224874 
L 773.290986 150.224874 
L 773.290986 157.215783 
L 774.962051 157.215783 
L 774.962051 149.149349 
L 776.633115 149.149349 
L 776.633115 159.904594 
L 778.304179 159.904594 
L 778.304179 161.786762 
L 779.975243 161.786762 
L 779.975243 170.659839 
L 781.646308 170.659839 
L 781.646308 160.980118 
L 783.317372 160.980118 
L 783.317372 159.366832 
L 786.6595 159.366832 
L 786.6595 166.895503 
L 788.330565 166.895503 
L 788.330565 178.18851 
L 790.001629 178.18851 
L 790.001629 172.004244 
L 791.672693 172.004244 
L 791.672693 174.693056 
L 793.343757 174.693056 
L 793.343757 178.457391 
L 795.014822 178.457391 
L 795.014822 177.381867 
L 796.685886 177.381867 
L 796.685886 181.683965 
L 798.35695 181.683965 
L 798.35695 173.886412 
L 800.028014 173.886412 
L 800.028014 184.910538 
L 801.699079 184.910538 
L 801.699079 199.699 
L 803.370143 199.699 
L 803.370143 190.557042 
L 805.041207 190.557042 
L 805.041207 195.934664 
L 806.712271 195.934664 
L 806.712271 199.699 
L 808.383336 199.699 
L 808.383336 202.925573 
L 810.0544 202.925573 
L 810.0544 205.345503 
L 811.725464 205.345503 
L 811.725464 212.336412 
L 813.396528 212.336412 
L 813.396528 211.79865 
L 815.067593 211.79865 
L 815.067593 214.756342 
L 816.738657 214.756342 
L 816.738657 220.402846 
L 818.409721 220.402846 
L 818.409721 224.973825 
L 820.080785 224.973825 
L 820.080785 223.8983 
L 821.75185 223.8983 
L 821.75185 227.931517 
L 823.422914 227.931517 
L 823.422914 233.30914 
L 825.093978 233.30914 
L 825.093978 230.88921 
L 826.765042 230.88921 
L 826.765042 235.72907 
L 828.436107 235.72907 
L 828.436107 241.375573 
L 830.107171 241.375573 
L 830.107171 239.493405 
L 831.778235 239.493405 
L 831.778235 241.913336 
L 833.449299 241.913336 
L 833.449299 244.064384 
L 835.120363 244.064384 
L 835.120363 244.333266 
L 836.791428 244.333266 
L 836.791428 246.484315 
L 848.488877 246.484315 
L 848.488877 246.484315 
" clip-path="url(#p18b51433e5)" style="fill: none; stroke: #1f77b4; stroke-width: 1.5; stroke-linecap: square"/>
   </g>
   <g id="line2d_40">
    <path d="M 514.276028 246.484315 
L 522.631349 246.484315 
L 522.631349 243.526622 
L 524.302413 243.526622 
L 524.302413 233.30914 
L 525.973477 233.30914 
L 525.973477 229.007042 
L 527.644542 229.007042 
L 527.644542 220.671727 
L 529.315606 220.671727 
L 529.315606 214.21858 
L 530.98667 214.21858 
L 530.98667 208.303196 
L 532.657734 208.303196 
L 532.657734 192.976972 
L 534.328799 192.976972 
L 534.328799 191.094804 
L 535.999863 191.094804 
L 535.999863 178.457391 
L 537.670927 178.457391 
L 537.670927 168.50879 
L 539.341991 168.50879 
L 539.341991 166.626622 
L 541.013056 166.626622 
L 541.013056 160.711237 
L 542.68412 160.711237 
L 542.68412 140.814034 
L 544.355184 140.814034 
L 544.355184 142.965083 
L 546.026248 142.965083 
L 546.026248 124.950048 
L 547.697313 124.950048 
L 547.697313 121.723475 
L 549.368377 121.723475 
L 549.368377 113.38816 
L 551.039441 113.38816 
L 551.039441 112.312636 
L 552.710505 112.312636 
L 552.710505 105.052846 
L 554.38157 105.052846 
L 554.38157 91.071027 
L 556.052634 91.071027 
L 556.052634 88.651097 
L 557.723698 88.651097 
L 557.723698 85.962286 
L 559.394762 85.962286 
L 559.394762 76.013685 
L 561.065827 76.013685 
L 561.065827 78.164734 
L 562.736891 78.164734 
L 562.736891 70.904943 
L 564.407955 70.904943 
L 564.407955 64.720678 
L 566.079019 64.720678 
L 566.079019 74.93816 
L 567.750084 74.93816 
L 567.750084 52.352146 
L 569.421148 52.352146 
L 569.421148 51.814384 
L 571.092212 51.814384 
L 571.092212 50.738859 
L 572.763276 50.738859 
L 572.763276 54.234314 
L 574.434341 54.234314 
L 574.434341 43.210188 
L 576.105405 43.210188 
L 576.105405 43.74795 
L 577.776469 43.74795 
L 577.776469 35.950398 
L 579.447533 35.950398 
L 579.447533 35.143754 
L 581.118598 35.143754 
L 581.118598 35.950398 
L 582.789662 35.950398 
L 582.789662 50.469978 
L 584.460726 50.469978 
L 584.460726 51.545503 
L 586.13179 51.545503 
L 586.13179 66.871727 
L 587.802855 66.871727 
L 587.802855 57.192006 
L 589.473919 57.192006 
L 589.473919 54.772076 
L 591.144983 54.772076 
L 591.144983 60.149699 
L 592.816047 60.149699 
L 592.816047 77.895852 
L 594.487112 77.895852 
L 594.487112 64.182915 
L 596.158176 64.182915 
L 596.158176 70.0983 
L 597.82924 70.0983 
L 597.82924 59.880817 
L 599.500304 59.880817 
L 599.500304 73.593755 
L 601.171369 73.593755 
L 601.171369 71.442706 
L 602.842433 71.442706 
L 602.842433 71.980468 
L 604.513497 71.980468 
L 604.513497 81.122426 
L 606.184561 81.122426 
L 606.184561 64.989559 
L 607.855626 64.989559 
L 607.855626 78.702496 
L 609.52669 78.702496 
L 609.52669 76.013685 
L 611.197754 76.013685 
L 611.197754 73.324873 
L 612.868818 73.324873 
L 612.868818 82.466831 
L 614.539882 82.466831 
L 614.539882 76.282566 
L 616.210947 76.282566 
L 616.210947 84.080118 
L 617.882011 84.080118 
L 617.882011 85.155643 
L 619.553075 85.155643 
L 619.553075 88.651097 
L 621.22414 88.651097 
L 621.22414 81.122426 
L 622.895204 81.122426 
L 622.895204 72.51823 
L 624.566268 72.51823 
L 624.566268 95.104244 
L 626.237332 95.104244 
L 626.237332 66.065083 
L 627.908397 66.065083 
L 627.908397 85.693405 
L 629.579461 85.693405 
L 629.579461 81.391307 
L 631.250525 81.391307 
L 631.250525 95.104244 
L 632.921589 95.104244 
L 632.921589 95.910887 
L 634.592654 95.910887 
L 634.592654 91.60879 
L 636.263718 91.60879 
L 636.263718 92.415433 
L 637.934782 92.415433 
L 637.934782 101.557391 
L 639.605846 101.557391 
L 639.605846 109.086062 
L 641.27691 109.086062 
L 641.27691 98.061936 
L 642.947975 98.061936 
L 642.947975 106.397251 
L 644.619039 106.397251 
L 644.619039 108.817181 
L 646.290103 108.817181 
L 646.290103 124.950048 
L 647.961168 124.950048 
L 647.961168 125.487811 
L 649.632232 125.487811 
L 649.632232 126.563335 
L 651.303296 126.563335 
L 651.303296 144.309489 
L 652.97436 144.309489 
L 652.97436 142.696202 
L 654.645424 142.696202 
L 654.645424 156.946902 
L 656.316489 156.946902 
L 656.316489 160.173475 
L 657.987553 160.173475 
L 657.987553 173.079769 
L 659.658617 173.079769 
L 659.658617 178.457391 
L 661.329682 178.457391 
L 661.329682 188.405993 
L 663.000746 188.405993 
L 663.000746 194.590258 
L 664.67181 194.590258 
L 664.67181 204.807741 
L 666.342874 204.807741 
L 666.342874 208.572077 
L 668.013938 208.572077 
L 668.013938 218.251797 
L 669.685003 218.251797 
L 669.685003 228.738161 
L 671.356067 228.738161 
L 671.356067 229.544804 
L 673.027131 229.544804 
L 673.027131 232.233615 
L 674.698195 232.233615 
L 674.698195 237.342356 
L 676.36926 237.342356 
L 676.36926 241.644454 
L 678.040324 241.644454 
L 678.040324 243.257741 
L 681.382452 243.257741 
L 681.382452 233.040259 
L 683.053517 233.040259 
L 683.053517 224.704944 
L 684.724581 224.704944 
L 684.724581 217.714035 
L 686.395645 217.714035 
L 686.395645 210.454244 
L 688.06671 210.454244 
L 688.06671 205.614384 
L 689.737774 205.614384 
L 689.737774 192.708091 
L 691.408838 192.708091 
L 691.408838 194.590258 
L 693.079902 194.590258 
L 693.079902 186.254944 
L 694.750967 186.254944 
L 694.750967 185.179419 
L 696.422031 185.179419 
L 696.422031 182.490608 
L 698.093095 182.490608 
L 698.093095 169.046552 
L 699.764159 169.046552 
L 699.764159 173.617531 
L 701.435224 173.617531 
L 701.435224 165.013335 
L 703.106288 165.013335 
L 703.106288 157.215783 
L 704.777352 157.215783 
L 704.777352 159.635713 
L 706.448416 159.635713 
L 706.448416 145.922776 
L 708.119481 145.922776 
L 708.119481 153.182566 
L 709.790545 153.182566 
L 709.790545 144.57837 
L 711.461609 144.57837 
L 711.461609 140.545153 
L 713.132673 140.545153 
L 713.132673 140.276272 
L 714.803738 140.276272 
L 714.803738 132.209839 
L 716.474802 132.209839 
L 716.474802 138.125223 
L 718.145866 138.125223 
L 718.145866 123.067881 
L 719.81693 123.067881 
L 719.81693 121.185713 
L 721.487995 121.185713 
L 721.487995 126.832216 
L 723.159059 126.832216 
L 723.159059 108.5483 
L 724.830123 108.5483 
L 724.830123 112.043755 
L 726.501187 112.043755 
L 726.501187 114.194804 
L 728.172252 114.194804 
L 728.172252 101.28851 
L 729.843316 101.28851 
L 729.843316 101.826272 
L 731.51438 101.826272 
L 731.51438 112.850398 
L 733.185444 112.850398 
L 733.185444 100.750748 
L 734.856509 100.750748 
L 734.856509 94.835363 
L 736.527573 94.835363 
L 736.527573 122.530118 
L 738.198637 122.530118 
L 738.198637 123.605643 
L 739.869701 123.605643 
L 739.869701 121.185713 
L 741.540766 121.185713 
L 741.540766 109.086062 
L 743.21183 109.086062 
L 743.21183 113.925923 
L 744.882894 113.925923 
L 744.882894 119.303545 
L 746.553958 119.303545 
L 746.553958 124.681167 
L 748.225023 124.681167 
L 748.225023 126.563335 
L 749.896087 126.563335 
L 749.896087 135.705293 
L 751.567151 135.705293 
L 751.567151 131.672076 
L 753.238215 131.672076 
L 753.238215 132.747601 
L 754.909279 132.747601 
L 754.909279 137.049699 
L 756.580344 137.049699 
L 756.580344 133.554244 
L 758.251408 133.554244 
L 758.251408 131.134314 
L 759.922472 131.134314 
L 759.922472 140.276272 
L 761.593537 140.276272 
L 761.593537 141.889559 
L 763.264601 141.889559 
L 763.264601 137.049699 
L 764.935665 137.049699 
L 764.935665 142.696202 
L 766.606729 142.696202 
L 766.606729 138.125223 
L 768.277793 138.125223 
L 768.277793 142.696202 
L 769.948858 142.696202 
L 769.948858 160.173475 
L 771.619922 160.173475 
L 771.619922 154.795853 
L 773.290986 154.795853 
L 773.290986 149.41823 
L 774.962051 149.41823 
L 774.962051 152.375923 
L 776.633115 152.375923 
L 776.633115 160.980118 
L 778.304179 160.980118 
L 778.304179 165.013335 
L 779.975243 165.013335 
L 779.975243 160.980118 
L 781.646308 160.980118 
L 781.646308 161.249 
L 783.317372 161.249 
L 783.317372 159.366832 
L 784.988436 159.366832 
L 784.988436 167.164384 
L 786.6595 167.164384 
L 786.6595 165.819979 
L 788.330565 165.819979 
L 788.330565 170.122077 
L 790.001629 170.122077 
L 790.001629 175.76858 
L 791.672693 175.76858 
L 791.672693 176.575223 
L 793.343757 176.575223 
L 793.343757 177.381867 
L 795.014822 177.381867 
L 795.014822 180.60844 
L 796.685886 180.60844 
L 796.685886 173.617531 
L 798.35695 173.617531 
L 798.35695 182.221727 
L 800.028014 182.221727 
L 800.028014 181.683965 
L 801.699079 181.683965 
L 801.699079 192.439209 
L 803.370143 192.439209 
L 803.370143 195.665783 
L 806.712271 195.665783 
L 806.712271 202.656692 
L 808.383336 202.656692 
L 808.383336 201.312286 
L 810.0544 201.312286 
L 810.0544 207.496552 
L 811.725464 207.496552 
L 811.725464 209.647601 
L 813.396528 209.647601 
L 813.396528 212.874175 
L 815.067593 212.874175 
L 815.067593 213.143056 
L 816.738657 213.143056 
L 816.738657 223.360538 
L 818.409721 223.360538 
L 818.409721 222.553895 
L 820.080785 222.553895 
L 820.080785 222.822776 
L 821.75185 222.822776 
L 821.75185 230.351447 
L 825.093978 230.351447 
L 825.093978 232.233615 
L 826.765042 232.233615 
L 826.765042 237.073475 
L 828.436107 237.073475 
L 828.436107 240.300049 
L 830.107171 240.300049 
L 830.107171 240.031168 
L 831.778235 240.031168 
L 831.778235 241.644454 
L 833.449299 241.644454 
L 833.449299 244.333266 
L 835.120363 244.333266 
L 835.120363 243.795503 
L 836.791428 243.795503 
L 836.791428 246.484315 
L 838.462492 246.484315 
L 838.462492 245.946552 
L 840.133556 245.946552 
L 840.133556 246.484315 
L 848.488877 246.484315 
L 848.488877 246.484315 
" clip-path="url(#p18b51433e5)" style="fill: none; stroke: #ff7f0e; stroke-width: 1.5; stroke-linecap: square"/>
   </g>
   <g id="patch_9">
    <path d="M 497.565385 257.158895 
L 497.565385 22.318125 
" style="fill: none; stroke: #000000; stroke-width: 0.8; stroke-linejoin: miter; stroke-linecap: square"/>
   </g>
   <g id="patch_10">
    <path d="M 865.19952 257.158895 
L 865.19952 22.318125 
" style="fill: none; stroke: #000000; stroke-width: 0.8; stroke-linejoin: miter; stroke-linecap: square"/>
   </g>
   <g id="patch_11">
    <path d="M 497.565385 257.158895 
L 865.19952 257.158895 
" style="fill: none; stroke: #000000; stroke-width: 0.8; stroke-linejoin: miter; stroke-linecap: square"/>
   </g>
   <g id="patch_12">
    <path d="M 497.565385 22.318125 
L 865.19952 22.318125 
" style="fill: none; stroke: #000000; stroke-width: 0.8; stroke-linejoin: miter; stroke-linecap: square"/>
   </g>
   <g id="text_42">
    <!-- Pixel 2 -->
    <g transform="translate(661.78589 16.318125) scale(0.12 -0.12)">
     <use xlink:href="#DejaVuSans-50"/>
     <use xlink:href="#DejaVuSans-69" transform="translate(58.052734 0)"/>
     <use xlink:href="#DejaVuSans-78" transform="translate(85.835938 0)"/>
     <use xlink:href="#DejaVuSans-65" transform="translate(141.890625 0)"/>
     <use xlink:href="#DejaVuSans-6c" transform="translate(203.414062 0)"/>
     <use xlink:href="#DejaVuSans-20" transform="translate(231.197266 0)"/>
     <use xlink:href="#DejaVuSans-32" transform="translate(262.984375 0)"/>
    </g>
   </g>
   <g id="legend_2">
    <g id="patch_13">
     <path d="M 761.196395 59.9525 
L 858.19952 59.9525 
Q 860.19952 59.9525 860.19952 57.9525 
L 860.19952 29.318125 
Q 860.19952 27.318125 858.19952 27.318125 
L 761.196395 27.318125 
Q 759.196395 27.318125 759.196395 29.318125 
L 759.196395 57.9525 
Q 759.196395 59.9525 761.196395 59.9525 
z
" style="fill: #ffffff; opacity: 0.8; stroke: #cccccc; stroke-linejoin: miter"/>
    </g>
    <g id="line2d_41">
     <path d="M 763.196395 35.416562 
L 763.196395 35.416562 
L 773.196395 35.416562 
L 773.196395 35.416562 
L 783.196395 35.416562 
" style="fill: none; stroke: #1f77b4; stroke-width: 1.5; stroke-linecap: square"/>
    </g>
    <g id="text_43">
     <!-- wfm -->
     <g transform="translate(791.196395 38.916562) scale(0.1 -0.1)">
      <use xlink:href="#DejaVuSans-77"/>
      <use xlink:href="#DejaVuSans-66" transform="translate(81.787109 0)"/>
      <use xlink:href="#DejaVuSans-6d" transform="translate(116.992188 0)"/>
     </g>
    </g>
    <g id="line2d_42">
     <path d="M 763.196395 50.094687 
L 763.196395 50.094687 
L 773.196395 50.094687 
L 773.196395 50.094687 
L 783.196395 50.094687 
" style="fill: none; stroke: #ff7f0e; stroke-width: 1.5; stroke-linecap: square"/>
    </g>
    <g id="text_44">
     <!-- ground_truth -->
     <g transform="translate(791.196395 53.594687) scale(0.1 -0.1)">
      <use xlink:href="#DejaVuSans-67"/>
      <use xlink:href="#DejaVuSans-72" transform="translate(63.476562 0)"/>
      <use xlink:href="#DejaVuSans-6f" transform="translate(102.339844 0)"/>
      <use xlink:href="#DejaVuSans-75" transform="translate(163.521484 0)"/>
      <use xlink:href="#DejaVuSans-6e" transform="translate(226.900391 0)"/>
      <use xlink:href="#DejaVuSans-64" transform="translate(290.279297 0)"/>
      <use xlink:href="#DejaVuSans-5f" transform="translate(353.755859 0)"/>
      <use xlink:href="#DejaVuSans-74" transform="translate(403.755859 0)"/>
      <use xlink:href="#DejaVuSans-72" transform="translate(442.964844 0)"/>
      <use xlink:href="#DejaVuSans-75" transform="translate(484.078125 0)"/>
      <use xlink:href="#DejaVuSans-74" transform="translate(547.457031 0)"/>
      <use xlink:href="#DejaVuSans-68" transform="translate(586.666016 0)"/>
     </g>
    </g>
   </g>
  </g>
 </g>
 <defs>
  <clipPath id="p490be5bfe6">
   <rect x="46.965625" y="22.318125" width="367.634135" height="234.84077"/>
  </clipPath>
  <clipPath id="p18b51433e5">
   <rect x="497.565385" y="22.318125" width="367.634135" height="234.84077"/>
  </clipPath>
 </defs>
</svg>
