<?xml version="1.0" encoding="utf-8" standalone="no"?>
<!DOCTYPE svg PUBLIC "-//W3C//DTD SVG 1.1//EN"
  "http://www.w3.org/Graphics/SVG/1.1/DTD/svg11.dtd">
<svg xmlns:xlink="http://www.w3.org/1999/xlink" width="395.328125pt" height="266.51625pt" viewBox="0 0 395.328125 266.51625" xmlns="http://www.w3.org/2000/svg" version="1.1">
 <metadata>
  <rdf:RDF xmlns:dc="http://purl.org/dc/elements/1.1/" xmlns:cc="http://creativecommons.org/ns#" xmlns:rdf="http://www.w3.org/1999/02/22-rdf-syntax-ns#">
   <cc:Work>
    <dc:type rdf:resource="http://purl.org/dc/dcmitype/StillImage"/>
    <dc:date>2025-01-30T11:58:31.787144</dc:date>
    <dc:format>image/svg+xml</dc:format>
    <dc:creator>
     <cc:Agent>
      <dc:title>Matplotlib v3.10.0, https://matplotlib.org/</dc:title>
     </cc:Agent>
    </dc:creator>
   </cc:Work>
  </rdf:RDF>
 </metadata>
 <defs>
  <style type="text/css">*{stroke-linejoin: round; stroke-linecap: butt}</style>
 </defs>
 <g id="figure_1">
  <g id="patch_1">
   <path d="M 0 266.51625 
L 395.328125 266.51625 
L 395.328125 0 
L 0 0 
z
" style="fill: #ffffff"/>
  </g>
  <g id="axes_1">
   <g id="patch_2">
    <path d="M 53.328125 228.96 
L 388.128125 228.96 
L 388.128125 7.2 
L 53.328125 7.2 
z
" style="fill: #ffffff"/>
   </g>
   <g id="matplotlib.axis_1">
    <g id="xtick_1">
     <g id="line2d_1">
      <defs>
       <path id="mb68a303e4a" d="M 0 0 
L 0 3.5 
" style="stroke: #000000; stroke-width: 0.8"/>
      </defs>
      <g>
       <use xlink:href="#mb68a303e4a" x="109.991443" y="228.96" style="stroke: #000000; stroke-width: 0.8"/>
      </g>
     </g>
     <g id="text_1">
      <!-- 0.02 -->
      <g transform="translate(98.858631 243.558437) scale(0.1 -0.1)">
       <defs>
        <path id="DejaVuSans-30" d="M 2034 4250 
Q 1547 4250 1301 3770 
Q 1056 3291 1056 2328 
Q 1056 1369 1301 889 
Q 1547 409 2034 409 
Q 2525 409 2770 889 
Q 3016 1369 3016 2328 
Q 3016 3291 2770 3770 
Q 2525 4250 2034 4250 
z
M 2034 4750 
Q 2819 4750 3233 4129 
Q 3647 3509 3647 2328 
Q 3647 1150 3233 529 
Q 2819 -91 2034 -91 
Q 1250 -91 836 529 
Q 422 1150 422 2328 
Q 422 3509 836 4129 
Q 1250 4750 2034 4750 
z
" transform="scale(0.015625)"/>
        <path id="DejaVuSans-2e" d="M 684 794 
L 1344 794 
L 1344 0 
L 684 0 
L 684 794 
z
" transform="scale(0.015625)"/>
        <path id="DejaVuSans-32" d="M 1228 531 
L 3431 531 
L 3431 0 
L 469 0 
L 469 531 
Q 828 903 1448 1529 
Q 2069 2156 2228 2338 
Q 2531 2678 2651 2914 
Q 2772 3150 2772 3378 
Q 2772 3750 2511 3984 
Q 2250 4219 1831 4219 
Q 1534 4219 1204 4116 
Q 875 4013 500 3803 
L 500 4441 
Q 881 4594 1212 4672 
Q 1544 4750 1819 4750 
Q 2544 4750 2975 4387 
Q 3406 4025 3406 3419 
Q 3406 3131 3298 2873 
Q 3191 2616 2906 2266 
Q 2828 2175 2409 1742 
Q 1991 1309 1228 531 
z
" transform="scale(0.015625)"/>
       </defs>
       <use xlink:href="#DejaVuSans-30"/>
       <use xlink:href="#DejaVuSans-2e" transform="translate(63.623047 0)"/>
       <use xlink:href="#DejaVuSans-30" transform="translate(95.410156 0)"/>
       <use xlink:href="#DejaVuSans-32" transform="translate(159.033203 0)"/>
      </g>
     </g>
    </g>
    <g id="xtick_2">
     <g id="line2d_2">
      <g>
       <use xlink:href="#mb68a303e4a" x="172.301796" y="228.96" style="stroke: #000000; stroke-width: 0.8"/>
      </g>
     </g>
     <g id="text_2">
      <!-- 0.03 -->
      <g transform="translate(161.168983 243.558437) scale(0.1 -0.1)">
       <defs>
        <path id="DejaVuSans-33" d="M 2597 2516 
Q 3050 2419 3304 2112 
Q 3559 1806 3559 1356 
Q 3559 666 3084 287 
Q 2609 -91 1734 -91 
Q 1441 -91 1130 -33 
Q 819 25 488 141 
L 488 750 
Q 750 597 1062 519 
Q 1375 441 1716 441 
Q 2309 441 2620 675 
Q 2931 909 2931 1356 
Q 2931 1769 2642 2001 
Q 2353 2234 1838 2234 
L 1294 2234 
L 1294 2753 
L 1863 2753 
Q 2328 2753 2575 2939 
Q 2822 3125 2822 3475 
Q 2822 3834 2567 4026 
Q 2313 4219 1838 4219 
Q 1578 4219 1281 4162 
Q 984 4106 628 3988 
L 628 4550 
Q 988 4650 1302 4700 
Q 1616 4750 1894 4750 
Q 2613 4750 3031 4423 
Q 3450 4097 3450 3541 
Q 3450 3153 3228 2886 
Q 3006 2619 2597 2516 
z
" transform="scale(0.015625)"/>
       </defs>
       <use xlink:href="#DejaVuSans-30"/>
       <use xlink:href="#DejaVuSans-2e" transform="translate(63.623047 0)"/>
       <use xlink:href="#DejaVuSans-30" transform="translate(95.410156 0)"/>
       <use xlink:href="#DejaVuSans-33" transform="translate(159.033203 0)"/>
      </g>
     </g>
    </g>
    <g id="xtick_3">
     <g id="line2d_3">
      <g>
       <use xlink:href="#mb68a303e4a" x="234.612148" y="228.96" style="stroke: #000000; stroke-width: 0.8"/>
      </g>
     </g>
     <g id="text_3">
      <!-- 0.04 -->
      <g transform="translate(223.479335 243.558437) scale(0.1 -0.1)">
       <defs>
        <path id="DejaVuSans-34" d="M 2419 4116 
L 825 1625 
L 2419 1625 
L 2419 4116 
z
M 2253 4666 
L 3047 4666 
L 3047 1625 
L 3713 1625 
L 3713 1100 
L 3047 1100 
L 3047 0 
L 2419 0 
L 2419 1100 
L 313 1100 
L 313 1709 
L 2253 4666 
z
" transform="scale(0.015625)"/>
       </defs>
       <use xlink:href="#DejaVuSans-30"/>
       <use xlink:href="#DejaVuSans-2e" transform="translate(63.623047 0)"/>
       <use xlink:href="#DejaVuSans-30" transform="translate(95.410156 0)"/>
       <use xlink:href="#DejaVuSans-34" transform="translate(159.033203 0)"/>
      </g>
     </g>
    </g>
    <g id="xtick_4">
     <g id="line2d_4">
      <g>
       <use xlink:href="#mb68a303e4a" x="296.9225" y="228.96" style="stroke: #000000; stroke-width: 0.8"/>
      </g>
     </g>
     <g id="text_4">
      <!-- 0.05 -->
      <g transform="translate(285.789688 243.558437) scale(0.1 -0.1)">
       <defs>
        <path id="DejaVuSans-35" d="M 691 4666 
L 3169 4666 
L 3169 4134 
L 1269 4134 
L 1269 2991 
Q 1406 3038 1543 3061 
Q 1681 3084 1819 3084 
Q 2600 3084 3056 2656 
Q 3513 2228 3513 1497 
Q 3513 744 3044 326 
Q 2575 -91 1722 -91 
Q 1428 -91 1123 -41 
Q 819 9 494 109 
L 494 744 
Q 775 591 1075 516 
Q 1375 441 1709 441 
Q 2250 441 2565 725 
Q 2881 1009 2881 1497 
Q 2881 1984 2565 2268 
Q 2250 2553 1709 2553 
Q 1456 2553 1204 2497 
Q 953 2441 691 2322 
L 691 4666 
z
" transform="scale(0.015625)"/>
       </defs>
       <use xlink:href="#DejaVuSans-30"/>
       <use xlink:href="#DejaVuSans-2e" transform="translate(63.623047 0)"/>
       <use xlink:href="#DejaVuSans-30" transform="translate(95.410156 0)"/>
       <use xlink:href="#DejaVuSans-35" transform="translate(159.033203 0)"/>
      </g>
     </g>
    </g>
    <g id="xtick_5">
     <g id="line2d_5">
      <g>
       <use xlink:href="#mb68a303e4a" x="359.232853" y="228.96" style="stroke: #000000; stroke-width: 0.8"/>
      </g>
     </g>
     <g id="text_5">
      <!-- 0.06 -->
      <g transform="translate(348.10004 243.558437) scale(0.1 -0.1)">
       <defs>
        <path id="DejaVuSans-36" d="M 2113 2584 
Q 1688 2584 1439 2293 
Q 1191 2003 1191 1497 
Q 1191 994 1439 701 
Q 1688 409 2113 409 
Q 2538 409 2786 701 
Q 3034 994 3034 1497 
Q 3034 2003 2786 2293 
Q 2538 2584 2113 2584 
z
M 3366 4563 
L 3366 3988 
Q 3128 4100 2886 4159 
Q 2644 4219 2406 4219 
Q 1781 4219 1451 3797 
Q 1122 3375 1075 2522 
Q 1259 2794 1537 2939 
Q 1816 3084 2150 3084 
Q 2853 3084 3261 2657 
Q 3669 2231 3669 1497 
Q 3669 778 3244 343 
Q 2819 -91 2113 -91 
Q 1303 -91 875 529 
Q 447 1150 447 2328 
Q 447 3434 972 4092 
Q 1497 4750 2381 4750 
Q 2619 4750 2861 4703 
Q 3103 4656 3366 4563 
z
" transform="scale(0.015625)"/>
       </defs>
       <use xlink:href="#DejaVuSans-30"/>
       <use xlink:href="#DejaVuSans-2e" transform="translate(63.623047 0)"/>
       <use xlink:href="#DejaVuSans-30" transform="translate(95.410156 0)"/>
       <use xlink:href="#DejaVuSans-36" transform="translate(159.033203 0)"/>
      </g>
     </g>
    </g>
    <g id="text_6">
     <!-- tof [s] -->
     <g transform="translate(205.853125 257.236562) scale(0.1 -0.1)">
      <defs>
       <path id="DejaVuSans-74" d="M 1172 4494 
L 1172 3500 
L 2356 3500 
L 2356 3053 
L 1172 3053 
L 1172 1153 
Q 1172 725 1289 603 
Q 1406 481 1766 481 
L 2356 481 
L 2356 0 
L 1766 0 
Q 1100 0 847 248 
Q 594 497 594 1153 
L 594 3053 
L 172 3053 
L 172 3500 
L 594 3500 
L 594 4494 
L 1172 4494 
z
" transform="scale(0.015625)"/>
       <path id="DejaVuSans-6f" d="M 1959 3097 
Q 1497 3097 1228 2736 
Q 959 2375 959 1747 
Q 959 1119 1226 758 
Q 1494 397 1959 397 
Q 2419 397 2687 759 
Q 2956 1122 2956 1747 
Q 2956 2369 2687 2733 
Q 2419 3097 1959 3097 
z
M 1959 3584 
Q 2709 3584 3137 3096 
Q 3566 2609 3566 1747 
Q 3566 888 3137 398 
Q 2709 -91 1959 -91 
Q 1206 -91 779 398 
Q 353 888 353 1747 
Q 353 2609 779 3096 
Q 1206 3584 1959 3584 
z
" transform="scale(0.015625)"/>
       <path id="DejaVuSans-66" d="M 2375 4863 
L 2375 4384 
L 1825 4384 
Q 1516 4384 1395 4259 
Q 1275 4134 1275 3809 
L 1275 3500 
L 2222 3500 
L 2222 3053 
L 1275 3053 
L 1275 0 
L 697 0 
L 697 3053 
L 147 3053 
L 147 3500 
L 697 3500 
L 697 3744 
Q 697 4328 969 4595 
Q 1241 4863 1831 4863 
L 2375 4863 
z
" transform="scale(0.015625)"/>
       <path id="DejaVuSans-20" transform="scale(0.015625)"/>
       <path id="DejaVuSans-5b" d="M 550 4863 
L 1875 4863 
L 1875 4416 
L 1125 4416 
L 1125 -397 
L 1875 -397 
L 1875 -844 
L 550 -844 
L 550 4863 
z
" transform="scale(0.015625)"/>
       <path id="DejaVuSans-73" d="M 2834 3397 
L 2834 2853 
Q 2591 2978 2328 3040 
Q 2066 3103 1784 3103 
Q 1356 3103 1142 2972 
Q 928 2841 928 2578 
Q 928 2378 1081 2264 
Q 1234 2150 1697 2047 
L 1894 2003 
Q 2506 1872 2764 1633 
Q 3022 1394 3022 966 
Q 3022 478 2636 193 
Q 2250 -91 1575 -91 
Q 1294 -91 989 -36 
Q 684 19 347 128 
L 347 722 
Q 666 556 975 473 
Q 1284 391 1588 391 
Q 1994 391 2212 530 
Q 2431 669 2431 922 
Q 2431 1156 2273 1281 
Q 2116 1406 1581 1522 
L 1381 1569 
Q 847 1681 609 1914 
Q 372 2147 372 2553 
Q 372 3047 722 3315 
Q 1072 3584 1716 3584 
Q 2034 3584 2315 3537 
Q 2597 3491 2834 3397 
z
" transform="scale(0.015625)"/>
       <path id="DejaVuSans-5d" d="M 1947 4863 
L 1947 -844 
L 622 -844 
L 622 -397 
L 1369 -397 
L 1369 4416 
L 622 4416 
L 622 4863 
L 1947 4863 
z
" transform="scale(0.015625)"/>
      </defs>
      <use xlink:href="#DejaVuSans-74"/>
      <use xlink:href="#DejaVuSans-6f" transform="translate(39.208984 0)"/>
      <use xlink:href="#DejaVuSans-66" transform="translate(100.390625 0)"/>
      <use xlink:href="#DejaVuSans-20" transform="translate(135.595703 0)"/>
      <use xlink:href="#DejaVuSans-5b" transform="translate(167.382812 0)"/>
      <use xlink:href="#DejaVuSans-73" transform="translate(206.396484 0)"/>
      <use xlink:href="#DejaVuSans-5d" transform="translate(258.496094 0)"/>
     </g>
    </g>
   </g>
   <g id="matplotlib.axis_2">
    <g id="ytick_1">
     <g id="line2d_6">
      <defs>
       <path id="m917ce9441d" d="M 0 0 
L -3.5 0 
" style="stroke: #000000; stroke-width: 0.8"/>
      </defs>
      <g>
       <use xlink:href="#m917ce9441d" x="53.328125" y="219.695534" style="stroke: #000000; stroke-width: 0.8"/>
      </g>
     </g>
     <g id="text_7">
      <!-- 0 -->
      <g transform="translate(39.965625 223.494753) scale(0.1 -0.1)">
       <use xlink:href="#DejaVuSans-30"/>
      </g>
     </g>
    </g>
    <g id="ytick_2">
     <g id="line2d_7">
      <g>
       <use xlink:href="#m917ce9441d" x="53.328125" y="178.918835" style="stroke: #000000; stroke-width: 0.8"/>
      </g>
     </g>
     <g id="text_8">
      <!-- 500 -->
      <g transform="translate(27.240625 182.718054) scale(0.1 -0.1)">
       <use xlink:href="#DejaVuSans-35"/>
       <use xlink:href="#DejaVuSans-30" transform="translate(63.623047 0)"/>
       <use xlink:href="#DejaVuSans-30" transform="translate(127.246094 0)"/>
      </g>
     </g>
    </g>
    <g id="ytick_3">
     <g id="line2d_8">
      <g>
       <use xlink:href="#m917ce9441d" x="53.328125" y="138.142136" style="stroke: #000000; stroke-width: 0.8"/>
      </g>
     </g>
     <g id="text_9">
      <!-- 1000 -->
      <g transform="translate(20.878125 141.941355) scale(0.1 -0.1)">
       <defs>
        <path id="DejaVuSans-31" d="M 794 531 
L 1825 531 
L 1825 4091 
L 703 3866 
L 703 4441 
L 1819 4666 
L 2450 4666 
L 2450 531 
L 3481 531 
L 3481 0 
L 794 0 
L 794 531 
z
" transform="scale(0.015625)"/>
       </defs>
       <use xlink:href="#DejaVuSans-31"/>
       <use xlink:href="#DejaVuSans-30" transform="translate(63.623047 0)"/>
       <use xlink:href="#DejaVuSans-30" transform="translate(127.246094 0)"/>
       <use xlink:href="#DejaVuSans-30" transform="translate(190.869141 0)"/>
      </g>
     </g>
    </g>
    <g id="ytick_4">
     <g id="line2d_9">
      <g>
       <use xlink:href="#m917ce9441d" x="53.328125" y="97.365437" style="stroke: #000000; stroke-width: 0.8"/>
      </g>
     </g>
     <g id="text_10">
      <!-- 1500 -->
      <g transform="translate(20.878125 101.164656) scale(0.1 -0.1)">
       <use xlink:href="#DejaVuSans-31"/>
       <use xlink:href="#DejaVuSans-35" transform="translate(63.623047 0)"/>
       <use xlink:href="#DejaVuSans-30" transform="translate(127.246094 0)"/>
       <use xlink:href="#DejaVuSans-30" transform="translate(190.869141 0)"/>
      </g>
     </g>
    </g>
    <g id="ytick_5">
     <g id="line2d_10">
      <g>
       <use xlink:href="#m917ce9441d" x="53.328125" y="56.588738" style="stroke: #000000; stroke-width: 0.8"/>
      </g>
     </g>
     <g id="text_11">
      <!-- 2000 -->
      <g transform="translate(20.878125 60.387957) scale(0.1 -0.1)">
       <use xlink:href="#DejaVuSans-32"/>
       <use xlink:href="#DejaVuSans-30" transform="translate(63.623047 0)"/>
       <use xlink:href="#DejaVuSans-30" transform="translate(127.246094 0)"/>
       <use xlink:href="#DejaVuSans-30" transform="translate(190.869141 0)"/>
      </g>
     </g>
    </g>
    <g id="ytick_6">
     <g id="line2d_11">
      <g>
       <use xlink:href="#m917ce9441d" x="53.328125" y="15.812039" style="stroke: #000000; stroke-width: 0.8"/>
      </g>
     </g>
     <g id="text_12">
      <!-- 2500 -->
      <g transform="translate(20.878125 19.611258) scale(0.1 -0.1)">
       <use xlink:href="#DejaVuSans-32"/>
       <use xlink:href="#DejaVuSans-35" transform="translate(63.623047 0)"/>
       <use xlink:href="#DejaVuSans-30" transform="translate(127.246094 0)"/>
       <use xlink:href="#DejaVuSans-30" transform="translate(190.869141 0)"/>
      </g>
     </g>
    </g>
    <g id="text_13">
     <!-- [counts] -->
     <g transform="translate(14.798438 138.6925) rotate(-90) scale(0.1 -0.1)">
      <defs>
       <path id="DejaVuSans-63" d="M 3122 3366 
L 3122 2828 
Q 2878 2963 2633 3030 
Q 2388 3097 2138 3097 
Q 1578 3097 1268 2742 
Q 959 2388 959 1747 
Q 959 1106 1268 751 
Q 1578 397 2138 397 
Q 2388 397 2633 464 
Q 2878 531 3122 666 
L 3122 134 
Q 2881 22 2623 -34 
Q 2366 -91 2075 -91 
Q 1284 -91 818 406 
Q 353 903 353 1747 
Q 353 2603 823 3093 
Q 1294 3584 2113 3584 
Q 2378 3584 2631 3529 
Q 2884 3475 3122 3366 
z
" transform="scale(0.015625)"/>
       <path id="DejaVuSans-75" d="M 544 1381 
L 544 3500 
L 1119 3500 
L 1119 1403 
Q 1119 906 1312 657 
Q 1506 409 1894 409 
Q 2359 409 2629 706 
Q 2900 1003 2900 1516 
L 2900 3500 
L 3475 3500 
L 3475 0 
L 2900 0 
L 2900 538 
Q 2691 219 2414 64 
Q 2138 -91 1772 -91 
Q 1169 -91 856 284 
Q 544 659 544 1381 
z
M 1991 3584 
L 1991 3584 
z
" transform="scale(0.015625)"/>
       <path id="DejaVuSans-6e" d="M 3513 2113 
L 3513 0 
L 2938 0 
L 2938 2094 
Q 2938 2591 2744 2837 
Q 2550 3084 2163 3084 
Q 1697 3084 1428 2787 
Q 1159 2491 1159 1978 
L 1159 0 
L 581 0 
L 581 3500 
L 1159 3500 
L 1159 2956 
Q 1366 3272 1645 3428 
Q 1925 3584 2291 3584 
Q 2894 3584 3203 3211 
Q 3513 2838 3513 2113 
z
" transform="scale(0.015625)"/>
      </defs>
      <use xlink:href="#DejaVuSans-5b"/>
      <use xlink:href="#DejaVuSans-63" transform="translate(39.013672 0)"/>
      <use xlink:href="#DejaVuSans-6f" transform="translate(93.994141 0)"/>
      <use xlink:href="#DejaVuSans-75" transform="translate(155.175781 0)"/>
      <use xlink:href="#DejaVuSans-6e" transform="translate(218.554688 0)"/>
      <use xlink:href="#DejaVuSans-74" transform="translate(281.933594 0)"/>
      <use xlink:href="#DejaVuSans-73" transform="translate(321.142578 0)"/>
      <use xlink:href="#DejaVuSans-5d" transform="translate(373.242188 0)"/>
     </g>
    </g>
   </g>
   <g id="patch_3">
    <path d="M 53.328125 228.96 
L 53.328125 7.2 
" style="fill: none; stroke: #000000; stroke-width: 0.8; stroke-linejoin: miter; stroke-linecap: square"/>
   </g>
   <g id="patch_4">
    <path d="M 388.128125 228.96 
L 388.128125 7.2 
" style="fill: none; stroke: #000000; stroke-width: 0.8; stroke-linejoin: miter; stroke-linecap: square"/>
   </g>
   <g id="patch_5">
    <path d="M 53.328125 228.96 
L 388.128125 228.96 
" style="fill: none; stroke: #000000; stroke-width: 0.8; stroke-linejoin: miter; stroke-linecap: square"/>
   </g>
   <g id="patch_6">
    <path d="M 53.328125 7.2 
L 388.128125 7.2 
" style="fill: none; stroke: #000000; stroke-width: 0.8; stroke-linejoin: miter; stroke-linecap: square"/>
   </g>
   <g id="line2d_12">
    <path d="M 68.546307 183.812039 
L 69.560852 183.812039 
L 69.560852 161.629515 
L 70.575398 161.629515 
L 70.575398 117.998447 
L 71.589943 117.998447 
L 71.589943 102.258641 
L 72.604489 102.258641 
L 72.604489 99.241165 
L 73.619034 99.241165 
L 73.619034 92.63534 
L 74.63358 92.63534 
L 74.63358 83.746019 
L 75.648125 83.746019 
L 75.648125 88.394563 
L 76.66267 88.394563 
L 76.66267 82.767379 
L 77.677216 82.767379 
L 77.677216 81.299417 
L 78.691761 81.299417 
L 78.691761 76.243107 
L 79.706307 76.243107 
L 79.706307 69.229515 
L 80.720852 69.229515 
L 80.720852 54.549903 
L 81.735398 54.549903 
L 81.735398 62.949903 
L 82.749943 62.949903 
L 82.749943 52.266408 
L 83.764489 52.266408 
L 83.764489 47.454757 
L 84.779034 47.454757 
L 84.779034 44.518835 
L 85.79358 44.518835 
L 85.79358 41.827573 
L 86.808125 41.827573 
L 86.808125 29.51301 
L 87.82267 29.51301 
L 87.82267 36.037282 
L 88.837216 36.037282 
L 88.837216 17.28 
L 89.851761 17.28 
L 89.851761 23.804272 
L 90.866307 23.804272 
L 90.866307 18.584854 
L 91.880852 18.584854 
L 91.880852 27.881942 
L 92.895398 27.881942 
L 92.895398 23.722718 
L 93.909943 23.722718 
L 93.909943 21.194563 
L 94.924489 21.194563 
L 94.924489 26.332427 
L 95.939034 26.332427 
L 95.939034 32.041165 
L 97.968125 32.122718 
L 97.968125 33.83534 
L 98.98267 33.83534 
L 98.98267 34.161553 
L 99.997216 34.161553 
L 99.997216 45.905243 
L 101.011761 45.905243 
L 101.011761 41.501359 
L 102.026307 41.501359 
L 102.026307 26.332427 
L 103.040852 26.332427 
L 103.040852 48.678058 
L 104.055398 48.678058 
L 104.055398 53.000388 
L 105.069943 53.000388 
L 105.069943 58.301359 
L 106.084489 58.301359 
L 106.084489 75.83534 
L 107.099034 75.83534 
L 107.099034 84.316893 
L 108.11358 84.316893 
L 108.11358 91.085825 
L 109.128125 91.085825 
L 109.128125 93.36932 
L 110.14267 93.36932 
L 110.14267 102.340194 
L 111.157216 102.340194 
L 111.157216 120.526602 
L 112.171761 120.526602 
L 112.171761 126.887767 
L 113.186307 126.887767 
L 113.186307 136.674175 
L 114.200852 136.674175 
L 114.200852 138.71301 
L 115.215398 138.71301 
L 115.215398 146.623689 
L 116.229943 146.623689 
L 116.229943 147.765437 
L 117.244489 147.765437 
L 117.244489 159.264466 
L 118.259034 159.264466 
L 118.259034 163.260583 
L 119.27358 163.260583 
L 119.27358 171.008155 
L 120.288125 171.008155 
L 120.288125 178.511068 
L 121.30267 178.511068 
L 121.30267 185.52466 
L 122.317216 185.52466 
L 122.317216 188.134369 
L 123.331761 188.134369 
L 123.331761 174.678058 
L 124.346307 174.678058 
L 124.346307 160.813981 
L 125.360852 160.813981 
L 125.360852 149.804272 
L 126.375398 149.804272 
L 126.375398 134.309126 
L 127.389943 134.309126 
L 127.389943 109.598447 
L 128.404489 109.598447 
L 128.404489 93.287767 
L 129.419034 93.287767 
L 129.419034 93.450874 
L 130.43358 93.450874 
L 130.43358 97.120777 
L 131.448125 97.120777 
L 131.448125 87.089709 
L 132.46267 87.089709 
L 132.46267 92.798447 
L 133.477216 92.798447 
L 133.477216 96.549903 
L 134.491761 96.549903 
L 134.491761 97.120777 
L 135.506307 97.120777 
L 135.506307 101.116893 
L 136.520852 101.116893 
L 136.520852 93.043107 
L 137.535398 93.043107 
L 137.535398 96.549903 
L 138.549943 96.549903 
L 138.549943 103.645049 
L 139.564489 103.645049 
L 139.564489 103.971262 
L 140.579034 103.971262 
L 140.579034 101.198447 
L 141.59358 101.198447 
L 141.59358 98.914951 
L 142.608125 98.914951 
L 142.608125 104.134369 
L 143.62267 104.134369 
L 143.62267 113.349903 
L 144.637216 113.349903 
L 144.637216 116.856699 
L 145.651761 116.856699 
L 145.651761 112.371262 
L 146.666307 112.371262 
L 146.666307 109.516893 
L 147.680852 109.516893 
L 147.680852 116.448932 
L 148.695398 116.448932 
L 148.695398 115.551845 
L 149.709943 115.551845 
L 149.709943 121.505243 
L 150.724489 121.505243 
L 150.724489 120.037282 
L 151.739034 120.037282 
L 151.739034 120.281942 
L 152.75358 120.281942 
L 152.75358 127.458641 
L 153.768125 127.458641 
L 153.768125 124.767379 
L 154.78267 124.767379 
L 154.78267 121.749903 
L 155.797216 121.749903 
L 155.797216 127.458641 
L 156.811761 127.458641 
L 156.811761 129.008155 
L 157.826307 129.008155 
L 157.826307 125.338252 
L 158.840852 125.338252 
L 158.840852 123.136311 
L 159.855398 123.136311 
L 159.855398 135.450874 
L 160.869943 135.450874 
L 160.869943 121.015922 
L 161.884489 121.015922 
L 161.884489 129.415922 
L 162.899034 129.415922 
L 162.899034 131.29165 
L 163.91358 131.29165 
L 163.91358 128.600388 
L 164.928125 128.600388 
L 164.928125 143.76932 
L 165.94267 143.76932 
L 165.94267 146.297476 
L 166.957216 146.297476 
L 166.957216 138.549903 
L 167.971761 138.549903 
L 167.971761 144.666408 
L 168.986307 144.666408 
L 168.986307 145.237282 
L 170.000852 145.237282 
L 170.000852 154.534369 
L 171.015398 154.534369 
L 171.015398 146.705243 
L 172.029943 146.705243 
L 172.029943 151.43534 
L 173.044489 151.43534 
L 173.044489 157.878058 
L 174.059034 157.878058 
L 174.059034 163.505243 
L 175.07358 163.505243 
L 175.07358 156.00233 
L 176.088125 156.00233 
L 176.088125 155.186796 
L 177.10267 155.186796 
L 177.10267 146.623689 
L 178.117216 146.623689 
L 178.117216 152.087767 
L 179.131761 152.087767 
L 179.131761 147.031456 
L 180.146307 147.031456 
L 180.146307 151.027573 
L 181.160852 151.027573 
L 181.160852 143.687767 
L 182.175398 143.687767 
L 182.175398 133.575146 
L 183.189943 133.575146 
L 183.189943 129.742136 
L 184.204489 129.742136 
L 184.204489 138.95767 
L 185.219034 138.95767 
L 185.219034 143.52466 
L 186.23358 143.52466 
L 186.23358 146.379029 
L 187.248125 146.379029 
L 187.248125 157.959612 
L 188.26267 157.959612 
L 188.26267 151.19068 
L 189.277216 151.19068 
L 189.277216 160.161553 
L 190.291761 160.161553 
L 190.291761 157.633398 
L 191.306307 157.633398 
L 191.306307 153.963495 
L 192.320852 153.963495 
L 192.320852 159.264466 
L 193.335398 159.264466 
L 193.335398 157.225631 
L 194.349943 157.225631 
L 194.349943 161.140194 
L 195.364489 161.140194 
L 195.364489 159.427573 
L 196.379034 159.427573 
L 196.379034 158.204272 
L 197.39358 158.204272 
L 197.39358 164.565437 
L 198.408125 164.565437 
L 198.408125 165.625631 
L 199.42267 165.625631 
L 199.42267 161.384854 
L 200.437216 161.384854 
L 200.437216 161.711068 
L 201.451761 161.711068 
L 201.451761 165.707184 
L 202.466307 165.707184 
L 202.466307 168.316893 
L 203.480852 168.316893 
L 203.480852 171.660583 
L 204.495398 171.660583 
L 204.495398 166.685825 
L 205.509943 166.685825 
L 205.509943 174.188738 
L 206.524489 174.188738 
L 206.524489 170.111068 
L 207.539034 170.111068 
L 207.539034 178.429515 
L 208.55358 178.429515 
L 208.55358 181.610097 
L 209.568125 181.610097 
L 209.568125 176.472233 
L 210.58267 176.472233 
L 210.58267 169.947961 
L 211.597216 169.947961 
L 211.597216 182.507184 
L 212.611761 182.507184 
L 212.611761 184.056699 
L 213.626307 184.056699 
L 213.626307 183.893592 
L 214.640852 183.893592 
L 214.640852 191.967379 
L 215.655398 191.967379 
L 215.655398 193.43534 
L 216.669943 193.43534 
L 216.669943 192.456699 
L 217.684489 192.456699 
L 217.684489 188.215922 
L 218.699034 188.215922 
L 218.699034 191.804272 
L 219.71358 191.804272 
L 219.71358 195.147961 
L 220.728125 195.147961 
L 220.728125 196.045049 
L 221.74267 196.045049 
L 221.74267 196.860583 
L 222.757216 196.860583 
L 222.757216 195.963495 
L 223.771761 195.963495 
L 223.771761 196.697476 
L 224.786307 196.697476 
L 224.786307 195.474175 
L 225.800852 195.474175 
L 225.800852 194.413981 
L 226.815398 194.413981 
L 226.815398 190.907184 
L 227.829943 190.907184 
L 227.829943 192.130485 
L 228.844489 192.130485 
L 228.844489 191.804272 
L 229.859034 191.804272 
L 229.859034 188.460583 
L 230.87358 188.460583 
L 230.87358 186.013981 
L 231.888125 186.013981 
L 231.888125 185.28 
L 232.90267 185.28 
L 232.90267 184.382913 
L 233.917216 184.382913 
L 233.917216 189.765437 
L 234.931761 189.765437 
L 234.931761 192.293592 
L 235.946307 192.293592 
L 235.946307 195.147961 
L 236.960852 195.147961 
L 236.960852 196.126602 
L 237.975398 196.126602 
L 237.975398 196.942136 
L 238.989943 196.942136 
L 238.989943 199.878058 
L 240.004489 199.878058 
L 240.004489 195.474175 
L 241.019034 195.474175 
L 241.019034 197.105243 
L 242.03358 197.105243 
L 242.03358 198.083883 
L 243.048125 198.083883 
L 243.048125 200.204272 
L 244.06267 200.204272 
L 244.06267 202.487767 
L 245.077216 202.487767 
L 245.077216 200.775146 
L 246.091761 200.775146 
L 246.091761 202.56932 
L 247.106307 202.56932 
L 247.106307 205.749903 
L 248.120852 205.749903 
L 248.120852 204.281942 
L 249.135398 204.281942 
L 249.135398 203.140194 
L 250.149943 203.140194 
L 250.149943 201.59068 
L 251.164489 201.59068 
L 251.164489 207.217864 
L 253.19358 207.299417 
L 253.19358 207.544078 
L 254.208125 207.544078 
L 254.208125 204.445049 
L 255.22267 204.445049 
L 255.22267 206.973204 
L 256.237216 206.973204 
L 256.237216 205.831456 
L 257.251761 205.831456 
L 257.251761 213.823689 
L 258.266307 213.823689 
L 258.266307 211.377087 
L 259.280852 211.377087 
L 259.280852 212.600388 
L 260.295398 212.600388 
L 260.295398 212.111068 
L 261.309943 212.111068 
L 261.309943 211.784854 
L 262.324489 211.784854 
L 262.324489 210.643107 
L 263.339034 210.643107 
L 263.339034 213.008155 
L 264.35358 213.008155 
L 264.35358 213.579029 
L 265.368125 213.579029 
L 265.368125 213.742136 
L 266.38267 213.742136 
L 266.38267 214.06835 
L 267.397216 214.06835 
L 267.397216 214.639223 
L 268.411761 214.639223 
L 268.411761 214.476117 
L 269.426307 214.476117 
L 269.426307 213.986796 
L 270.440852 213.986796 
L 270.440852 213.089709 
L 271.455398 213.089709 
L 271.455398 209.909126 
L 272.469943 209.909126 
L 272.469943 209.582913 
L 273.484489 209.582913 
L 273.484489 208.604272 
L 274.499034 208.604272 
L 274.499034 210.072233 
L 275.51358 210.072233 
L 275.51358 206.40233 
L 276.528125 206.40233 
L 276.528125 208.848932 
L 277.54267 208.848932 
L 277.54267 203.466408 
L 278.557216 203.466408 
L 278.557216 205.097476 
L 279.571761 205.097476 
L 279.571761 206.728544 
L 280.586307 206.728544 
L 280.586307 208.114951 
L 281.600852 208.114951 
L 281.600852 207.788738 
L 282.615398 207.788738 
L 282.615398 209.012039 
L 283.629943 209.012039 
L 283.629943 210.806214 
L 284.644489 210.806214 
L 284.644489 209.99068 
L 286.67358 209.909126 
L 286.67358 210.398447 
L 287.688125 210.398447 
L 287.688125 210.806214 
L 288.70267 210.806214 
L 288.70267 210.96932 
L 289.717216 210.96932 
L 289.717216 209.093592 
L 290.731761 209.093592 
L 290.731761 210.806214 
L 291.746307 210.806214 
L 291.746307 213.089709 
L 292.760852 213.089709 
L 292.760852 212.518835 
L 293.775398 212.518835 
L 293.775398 212.111068 
L 294.789943 212.111068 
L 294.789943 214.965437 
L 295.804489 214.965437 
L 295.804489 214.80233 
L 296.819034 214.80233 
L 296.819034 213.823689 
L 297.83358 213.823689 
L 297.83358 213.986796 
L 298.848125 213.986796 
L 298.848125 214.394563 
L 299.86267 214.394563 
L 299.86267 215.29165 
L 301.891761 215.373204 
L 301.891761 214.149903 
L 302.906307 214.149903 
L 302.906307 216.514951 
L 303.920852 216.514951 
L 303.920852 214.720777 
L 304.935398 214.720777 
L 304.935398 216.596505 
L 305.949943 216.596505 
L 305.949943 214.476117 
L 306.964489 214.476117 
L 306.964489 216.514951 
L 307.979034 216.514951 
L 307.979034 216.759612 
L 308.99358 216.759612 
L 308.99358 216.922718 
L 310.008125 216.922718 
L 310.008125 217.167379 
L 311.02267 217.167379 
L 311.02267 217.330485 
L 313.051761 217.248932 
L 313.051761 218.146019 
L 314.066307 218.146019 
L 314.066307 216.596505 
L 315.080852 216.596505 
L 315.080852 217.004272 
L 316.095398 217.004272 
L 316.095398 216.270291 
L 317.109943 216.270291 
L 317.109943 215.454757 
L 318.124489 215.454757 
L 318.124489 214.80233 
L 319.139034 214.80233 
L 319.139034 213.089709 
L 320.15358 213.089709 
L 320.15358 213.579029 
L 321.168125 213.579029 
L 321.168125 211.621748 
L 322.18267 211.621748 
L 322.18267 211.050874 
L 323.197216 211.050874 
L 323.197216 208.848932 
L 324.211761 208.848932 
L 324.211761 205.097476 
L 325.226307 205.097476 
L 325.226307 203.140194 
L 327.255398 203.221748 
L 327.255398 201.509126 
L 328.269943 201.509126 
L 328.269943 202.487767 
L 329.284489 202.487767 
L 329.284489 201.998447 
L 330.299034 201.998447 
L 330.299034 207.870291 
L 331.31358 207.870291 
L 331.31358 208.114951 
L 332.328125 208.114951 
L 332.328125 200.041165 
L 333.34267 200.041165 
L 333.34267 206.15767 
L 334.357216 206.15767 
L 334.357216 202.32466 
L 335.371761 202.32466 
L 335.371761 205.66835 
L 337.400852 205.586796 
L 337.400852 201.182913 
L 338.415398 201.182913 
L 338.415398 207.951845 
L 339.429943 207.951845 
L 339.429943 201.916893 
L 340.444489 201.916893 
L 340.444489 203.629515 
L 341.459034 203.629515 
L 341.459034 206.320777 
L 342.47358 206.320777 
L 342.47358 204.526602 
L 343.488125 204.526602 
L 343.488125 209.012039 
L 344.50267 209.012039 
L 344.50267 203.384854 
L 345.517216 203.384854 
L 345.517216 209.909126 
L 346.531761 209.909126 
L 346.531761 209.664466 
L 347.546307 209.664466 
L 347.546307 207.462524 
L 348.560852 207.462524 
L 348.560852 213.905243 
L 349.575398 213.905243 
L 349.575398 206.15767 
L 350.589943 206.15767 
L 350.589943 210.316893 
L 351.604489 210.316893 
L 351.604489 207.544078 
L 352.619034 207.544078 
L 352.619034 212.111068 
L 353.63358 212.111068 
L 353.63358 207.136311 
L 354.648125 207.136311 
L 354.648125 209.827573 
L 355.66267 209.827573 
L 355.66267 210.072233 
L 356.677216 210.072233 
L 356.677216 213.415922 
L 357.691761 213.415922 
L 357.691761 211.458641 
L 358.706307 211.458641 
L 358.706307 213.579029 
L 359.720852 213.579029 
L 359.720852 211.621748 
L 360.735398 211.621748 
L 360.735398 212.926602 
L 361.749943 212.926602 
L 361.749943 212.192621 
L 362.764489 212.192621 
L 362.764489 214.965437 
L 363.779034 214.965437 
L 363.779034 210.96932 
L 364.79358 210.96932 
L 364.79358 216.759612 
L 365.808125 216.759612 
L 365.808125 213.823689 
L 366.82267 213.823689 
L 366.82267 216.188738 
L 367.837216 216.188738 
L 367.837216 214.55767 
L 368.851761 214.55767 
L 368.851761 217.901359 
L 369.866307 217.901359 
L 369.866307 217.493592 
L 370.880852 217.493592 
L 370.880852 217.819806 
L 371.895398 217.819806 
L 371.895398 218.88 
L 372.909943 218.88 
L 372.909943 218.88 
" clip-path="url(#p115f73e19c)" style="fill: none; stroke: #1f77b4; stroke-width: 1.5; stroke-linecap: square"/>
   </g>
  </g>
 </g>
 <defs>
  <clipPath id="p115f73e19c">
   <rect x="53.328125" y="7.2" width="334.8" height="221.76"/>
  </clipPath>
 </defs>
</svg>
