<?xml version="1.0" encoding="utf-8" standalone="no"?>
<!DOCTYPE svg PUBLIC "-//W3C//DTD SVG 1.1//EN"
  "http://www.w3.org/Graphics/SVG/1.1/DTD/svg11.dtd">
<svg xmlns:xlink="http://www.w3.org/1999/xlink" width="395.328125pt" height="266.51625pt" viewBox="0 0 395.328125 266.51625" xmlns="http://www.w3.org/2000/svg" version="1.1">
 <metadata>
  <rdf:RDF xmlns:dc="http://purl.org/dc/elements/1.1/" xmlns:cc="http://creativecommons.org/ns#" xmlns:rdf="http://www.w3.org/1999/02/22-rdf-syntax-ns#">
   <cc:Work>
    <dc:type rdf:resource="http://purl.org/dc/dcmitype/StillImage"/>
    <dc:date>2025-05-07T16:07:25.626073</dc:date>
    <dc:format>image/svg+xml</dc:format>
    <dc:creator>
     <cc:Agent>
      <dc:title>Matplotlib v3.10.1, https://matplotlib.org/</dc:title>
     </cc:Agent>
    </dc:creator>
   </cc:Work>
  </rdf:RDF>
 </metadata>
 <defs>
  <style type="text/css">*{stroke-linejoin: round; stroke-linecap: butt}</style>
 </defs>
 <g id="figure_1">
  <g id="patch_1">
   <path d="M 0 266.51625 
L 395.328125 266.51625 
L 395.328125 0 
L 0 0 
z
" style="fill: #ffffff"/>
  </g>
  <g id="axes_1">
   <g id="patch_2">
    <path d="M 53.328125 228.96 
L 388.128125 228.96 
L 388.128125 7.2 
L 53.328125 7.2 
z
" style="fill: #ffffff"/>
   </g>
   <g id="matplotlib.axis_1">
    <g id="xtick_1">
     <g id="line2d_1">
      <defs>
       <path id="m0ea571ec88" d="M 0 0 
L 0 3.5 
" style="stroke: #000000; stroke-width: 0.8"/>
      </defs>
      <g>
       <use xlink:href="#m0ea571ec88" x="109.949214" y="228.96" style="stroke: #000000; stroke-width: 0.8"/>
      </g>
     </g>
     <g id="text_1">
      <!-- 20000 -->
      <g transform="translate(94.042964 243.558437) scale(0.1 -0.1)">
       <defs>
        <path id="DejaVuSans-32" d="M 1228 531 
L 3431 531 
L 3431 0 
L 469 0 
L 469 531 
Q 828 903 1448 1529 
Q 2069 2156 2228 2338 
Q 2531 2678 2651 2914 
Q 2772 3150 2772 3378 
Q 2772 3750 2511 3984 
Q 2250 4219 1831 4219 
Q 1534 4219 1204 4116 
Q 875 4013 500 3803 
L 500 4441 
Q 881 4594 1212 4672 
Q 1544 4750 1819 4750 
Q 2544 4750 2975 4387 
Q 3406 4025 3406 3419 
Q 3406 3131 3298 2873 
Q 3191 2616 2906 2266 
Q 2828 2175 2409 1742 
Q 1991 1309 1228 531 
z
" transform="scale(0.015625)"/>
        <path id="DejaVuSans-30" d="M 2034 4250 
Q 1547 4250 1301 3770 
Q 1056 3291 1056 2328 
Q 1056 1369 1301 889 
Q 1547 409 2034 409 
Q 2525 409 2770 889 
Q 3016 1369 3016 2328 
Q 3016 3291 2770 3770 
Q 2525 4250 2034 4250 
z
M 2034 4750 
Q 2819 4750 3233 4129 
Q 3647 3509 3647 2328 
Q 3647 1150 3233 529 
Q 2819 -91 2034 -91 
Q 1250 -91 836 529 
Q 422 1150 422 2328 
Q 422 3509 836 4129 
Q 1250 4750 2034 4750 
z
" transform="scale(0.015625)"/>
       </defs>
       <use xlink:href="#DejaVuSans-32"/>
       <use xlink:href="#DejaVuSans-30" transform="translate(63.623047 0)"/>
       <use xlink:href="#DejaVuSans-30" transform="translate(127.246094 0)"/>
       <use xlink:href="#DejaVuSans-30" transform="translate(190.869141 0)"/>
       <use xlink:href="#DejaVuSans-30" transform="translate(254.492188 0)"/>
      </g>
     </g>
    </g>
    <g id="xtick_2">
     <g id="line2d_2">
      <g>
       <use xlink:href="#m0ea571ec88" x="172.387696" y="228.96" style="stroke: #000000; stroke-width: 0.8"/>
      </g>
     </g>
     <g id="text_2">
      <!-- 30000 -->
      <g transform="translate(156.481446 243.558437) scale(0.1 -0.1)">
       <defs>
        <path id="DejaVuSans-33" d="M 2597 2516 
Q 3050 2419 3304 2112 
Q 3559 1806 3559 1356 
Q 3559 666 3084 287 
Q 2609 -91 1734 -91 
Q 1441 -91 1130 -33 
Q 819 25 488 141 
L 488 750 
Q 750 597 1062 519 
Q 1375 441 1716 441 
Q 2309 441 2620 675 
Q 2931 909 2931 1356 
Q 2931 1769 2642 2001 
Q 2353 2234 1838 2234 
L 1294 2234 
L 1294 2753 
L 1863 2753 
Q 2328 2753 2575 2939 
Q 2822 3125 2822 3475 
Q 2822 3834 2567 4026 
Q 2313 4219 1838 4219 
Q 1578 4219 1281 4162 
Q 984 4106 628 3988 
L 628 4550 
Q 988 4650 1302 4700 
Q 1616 4750 1894 4750 
Q 2613 4750 3031 4423 
Q 3450 4097 3450 3541 
Q 3450 3153 3228 2886 
Q 3006 2619 2597 2516 
z
" transform="scale(0.015625)"/>
       </defs>
       <use xlink:href="#DejaVuSans-33"/>
       <use xlink:href="#DejaVuSans-30" transform="translate(63.623047 0)"/>
       <use xlink:href="#DejaVuSans-30" transform="translate(127.246094 0)"/>
       <use xlink:href="#DejaVuSans-30" transform="translate(190.869141 0)"/>
       <use xlink:href="#DejaVuSans-30" transform="translate(254.492188 0)"/>
      </g>
     </g>
    </g>
    <g id="xtick_3">
     <g id="line2d_3">
      <g>
       <use xlink:href="#m0ea571ec88" x="234.826178" y="228.96" style="stroke: #000000; stroke-width: 0.8"/>
      </g>
     </g>
     <g id="text_3">
      <!-- 40000 -->
      <g transform="translate(218.919928 243.558437) scale(0.1 -0.1)">
       <defs>
        <path id="DejaVuSans-34" d="M 2419 4116 
L 825 1625 
L 2419 1625 
L 2419 4116 
z
M 2253 4666 
L 3047 4666 
L 3047 1625 
L 3713 1625 
L 3713 1100 
L 3047 1100 
L 3047 0 
L 2419 0 
L 2419 1100 
L 313 1100 
L 313 1709 
L 2253 4666 
z
" transform="scale(0.015625)"/>
       </defs>
       <use xlink:href="#DejaVuSans-34"/>
       <use xlink:href="#DejaVuSans-30" transform="translate(63.623047 0)"/>
       <use xlink:href="#DejaVuSans-30" transform="translate(127.246094 0)"/>
       <use xlink:href="#DejaVuSans-30" transform="translate(190.869141 0)"/>
       <use xlink:href="#DejaVuSans-30" transform="translate(254.492188 0)"/>
      </g>
     </g>
    </g>
    <g id="xtick_4">
     <g id="line2d_4">
      <g>
       <use xlink:href="#m0ea571ec88" x="297.26466" y="228.96" style="stroke: #000000; stroke-width: 0.8"/>
      </g>
     </g>
     <g id="text_4">
      <!-- 50000 -->
      <g transform="translate(281.35841 243.558437) scale(0.1 -0.1)">
       <defs>
        <path id="DejaVuSans-35" d="M 691 4666 
L 3169 4666 
L 3169 4134 
L 1269 4134 
L 1269 2991 
Q 1406 3038 1543 3061 
Q 1681 3084 1819 3084 
Q 2600 3084 3056 2656 
Q 3513 2228 3513 1497 
Q 3513 744 3044 326 
Q 2575 -91 1722 -91 
Q 1428 -91 1123 -41 
Q 819 9 494 109 
L 494 744 
Q 775 591 1075 516 
Q 1375 441 1709 441 
Q 2250 441 2565 725 
Q 2881 1009 2881 1497 
Q 2881 1984 2565 2268 
Q 2250 2553 1709 2553 
Q 1456 2553 1204 2497 
Q 953 2441 691 2322 
L 691 4666 
z
" transform="scale(0.015625)"/>
       </defs>
       <use xlink:href="#DejaVuSans-35"/>
       <use xlink:href="#DejaVuSans-30" transform="translate(63.623047 0)"/>
       <use xlink:href="#DejaVuSans-30" transform="translate(127.246094 0)"/>
       <use xlink:href="#DejaVuSans-30" transform="translate(190.869141 0)"/>
       <use xlink:href="#DejaVuSans-30" transform="translate(254.492188 0)"/>
      </g>
     </g>
    </g>
    <g id="xtick_5">
     <g id="line2d_5">
      <g>
       <use xlink:href="#m0ea571ec88" x="359.703142" y="228.96" style="stroke: #000000; stroke-width: 0.8"/>
      </g>
     </g>
     <g id="text_5">
      <!-- 60000 -->
      <g transform="translate(343.796892 243.558437) scale(0.1 -0.1)">
       <defs>
        <path id="DejaVuSans-36" d="M 2113 2584 
Q 1688 2584 1439 2293 
Q 1191 2003 1191 1497 
Q 1191 994 1439 701 
Q 1688 409 2113 409 
Q 2538 409 2786 701 
Q 3034 994 3034 1497 
Q 3034 2003 2786 2293 
Q 2538 2584 2113 2584 
z
M 3366 4563 
L 3366 3988 
Q 3128 4100 2886 4159 
Q 2644 4219 2406 4219 
Q 1781 4219 1451 3797 
Q 1122 3375 1075 2522 
Q 1259 2794 1537 2939 
Q 1816 3084 2150 3084 
Q 2853 3084 3261 2657 
Q 3669 2231 3669 1497 
Q 3669 778 3244 343 
Q 2819 -91 2113 -91 
Q 1303 -91 875 529 
Q 447 1150 447 2328 
Q 447 3434 972 4092 
Q 1497 4750 2381 4750 
Q 2619 4750 2861 4703 
Q 3103 4656 3366 4563 
z
" transform="scale(0.015625)"/>
       </defs>
       <use xlink:href="#DejaVuSans-36"/>
       <use xlink:href="#DejaVuSans-30" transform="translate(63.623047 0)"/>
       <use xlink:href="#DejaVuSans-30" transform="translate(127.246094 0)"/>
       <use xlink:href="#DejaVuSans-30" transform="translate(190.869141 0)"/>
       <use xlink:href="#DejaVuSans-30" transform="translate(254.492188 0)"/>
      </g>
     </g>
    </g>
    <g id="text_6">
     <!-- tof [µs] -->
     <g transform="translate(202.671875 257.236562) scale(0.1 -0.1)">
      <defs>
       <path id="DejaVuSans-74" d="M 1172 4494 
L 1172 3500 
L 2356 3500 
L 2356 3053 
L 1172 3053 
L 1172 1153 
Q 1172 725 1289 603 
Q 1406 481 1766 481 
L 2356 481 
L 2356 0 
L 1766 0 
Q 1100 0 847 248 
Q 594 497 594 1153 
L 594 3053 
L 172 3053 
L 172 3500 
L 594 3500 
L 594 4494 
L 1172 4494 
z
" transform="scale(0.015625)"/>
       <path id="DejaVuSans-6f" d="M 1959 3097 
Q 1497 3097 1228 2736 
Q 959 2375 959 1747 
Q 959 1119 1226 758 
Q 1494 397 1959 397 
Q 2419 397 2687 759 
Q 2956 1122 2956 1747 
Q 2956 2369 2687 2733 
Q 2419 3097 1959 3097 
z
M 1959 3584 
Q 2709 3584 3137 3096 
Q 3566 2609 3566 1747 
Q 3566 888 3137 398 
Q 2709 -91 1959 -91 
Q 1206 -91 779 398 
Q 353 888 353 1747 
Q 353 2609 779 3096 
Q 1206 3584 1959 3584 
z
" transform="scale(0.015625)"/>
       <path id="DejaVuSans-66" d="M 2375 4863 
L 2375 4384 
L 1825 4384 
Q 1516 4384 1395 4259 
Q 1275 4134 1275 3809 
L 1275 3500 
L 2222 3500 
L 2222 3053 
L 1275 3053 
L 1275 0 
L 697 0 
L 697 3053 
L 147 3053 
L 147 3500 
L 697 3500 
L 697 3744 
Q 697 4328 969 4595 
Q 1241 4863 1831 4863 
L 2375 4863 
z
" transform="scale(0.015625)"/>
       <path id="DejaVuSans-20" transform="scale(0.015625)"/>
       <path id="DejaVuSans-5b" d="M 550 4863 
L 1875 4863 
L 1875 4416 
L 1125 4416 
L 1125 -397 
L 1875 -397 
L 1875 -844 
L 550 -844 
L 550 4863 
z
" transform="scale(0.015625)"/>
       <path id="DejaVuSans-b5" d="M 544 -1331 
L 544 3500 
L 1119 3500 
L 1119 1325 
Q 1119 872 1334 640 
Q 1550 409 1972 409 
Q 2434 409 2667 671 
Q 2900 934 2900 1459 
L 2900 3500 
L 3475 3500 
L 3475 806 
Q 3475 619 3529 530 
Q 3584 441 3700 441 
Q 3728 441 3778 458 
Q 3828 475 3916 513 
L 3916 50 
Q 3788 -22 3673 -56 
Q 3559 -91 3450 -91 
Q 3234 -91 3106 31 
Q 2978 153 2931 403 
Q 2775 156 2548 32 
Q 2322 -91 2016 -91 
Q 1697 -91 1473 31 
Q 1250 153 1119 397 
L 1119 -1331 
L 544 -1331 
z
" transform="scale(0.015625)"/>
       <path id="DejaVuSans-73" d="M 2834 3397 
L 2834 2853 
Q 2591 2978 2328 3040 
Q 2066 3103 1784 3103 
Q 1356 3103 1142 2972 
Q 928 2841 928 2578 
Q 928 2378 1081 2264 
Q 1234 2150 1697 2047 
L 1894 2003 
Q 2506 1872 2764 1633 
Q 3022 1394 3022 966 
Q 3022 478 2636 193 
Q 2250 -91 1575 -91 
Q 1294 -91 989 -36 
Q 684 19 347 128 
L 347 722 
Q 666 556 975 473 
Q 1284 391 1588 391 
Q 1994 391 2212 530 
Q 2431 669 2431 922 
Q 2431 1156 2273 1281 
Q 2116 1406 1581 1522 
L 1381 1569 
Q 847 1681 609 1914 
Q 372 2147 372 2553 
Q 372 3047 722 3315 
Q 1072 3584 1716 3584 
Q 2034 3584 2315 3537 
Q 2597 3491 2834 3397 
z
" transform="scale(0.015625)"/>
       <path id="DejaVuSans-5d" d="M 1947 4863 
L 1947 -844 
L 622 -844 
L 622 -397 
L 1369 -397 
L 1369 4416 
L 622 4416 
L 622 4863 
L 1947 4863 
z
" transform="scale(0.015625)"/>
      </defs>
      <use xlink:href="#DejaVuSans-74"/>
      <use xlink:href="#DejaVuSans-6f" transform="translate(39.208984 0)"/>
      <use xlink:href="#DejaVuSans-66" transform="translate(100.390625 0)"/>
      <use xlink:href="#DejaVuSans-20" transform="translate(135.595703 0)"/>
      <use xlink:href="#DejaVuSans-5b" transform="translate(167.382812 0)"/>
      <use xlink:href="#DejaVuSans-b5" transform="translate(206.396484 0)"/>
      <use xlink:href="#DejaVuSans-73" transform="translate(270.019531 0)"/>
      <use xlink:href="#DejaVuSans-5d" transform="translate(322.119141 0)"/>
     </g>
    </g>
   </g>
   <g id="matplotlib.axis_2">
    <g id="ytick_1">
     <g id="line2d_6">
      <defs>
       <path id="mdd5abd5fbd" d="M 0 0 
L -3.5 0 
" style="stroke: #000000; stroke-width: 0.8"/>
      </defs>
      <g>
       <use xlink:href="#mdd5abd5fbd" x="53.328125" y="219.787365" style="stroke: #000000; stroke-width: 0.8"/>
      </g>
     </g>
     <g id="text_7">
      <!-- 0 -->
      <g transform="translate(39.965625 223.586584) scale(0.1 -0.1)">
       <use xlink:href="#DejaVuSans-30"/>
      </g>
     </g>
    </g>
    <g id="ytick_2">
     <g id="line2d_7">
      <g>
       <use xlink:href="#mdd5abd5fbd" x="53.328125" y="178.543502" style="stroke: #000000; stroke-width: 0.8"/>
      </g>
     </g>
     <g id="text_8">
      <!-- 500 -->
      <g transform="translate(27.240625 182.342721) scale(0.1 -0.1)">
       <use xlink:href="#DejaVuSans-35"/>
       <use xlink:href="#DejaVuSans-30" transform="translate(63.623047 0)"/>
       <use xlink:href="#DejaVuSans-30" transform="translate(127.246094 0)"/>
      </g>
     </g>
    </g>
    <g id="ytick_3">
     <g id="line2d_8">
      <g>
       <use xlink:href="#mdd5abd5fbd" x="53.328125" y="137.29964" style="stroke: #000000; stroke-width: 0.8"/>
      </g>
     </g>
     <g id="text_9">
      <!-- 1000 -->
      <g transform="translate(20.878125 141.098859) scale(0.1 -0.1)">
       <defs>
        <path id="DejaVuSans-31" d="M 794 531 
L 1825 531 
L 1825 4091 
L 703 3866 
L 703 4441 
L 1819 4666 
L 2450 4666 
L 2450 531 
L 3481 531 
L 3481 0 
L 794 0 
L 794 531 
z
" transform="scale(0.015625)"/>
       </defs>
       <use xlink:href="#DejaVuSans-31"/>
       <use xlink:href="#DejaVuSans-30" transform="translate(63.623047 0)"/>
       <use xlink:href="#DejaVuSans-30" transform="translate(127.246094 0)"/>
       <use xlink:href="#DejaVuSans-30" transform="translate(190.869141 0)"/>
      </g>
     </g>
    </g>
    <g id="ytick_4">
     <g id="line2d_9">
      <g>
       <use xlink:href="#mdd5abd5fbd" x="53.328125" y="96.055777" style="stroke: #000000; stroke-width: 0.8"/>
      </g>
     </g>
     <g id="text_10">
      <!-- 1500 -->
      <g transform="translate(20.878125 99.854996) scale(0.1 -0.1)">
       <use xlink:href="#DejaVuSans-31"/>
       <use xlink:href="#DejaVuSans-35" transform="translate(63.623047 0)"/>
       <use xlink:href="#DejaVuSans-30" transform="translate(127.246094 0)"/>
       <use xlink:href="#DejaVuSans-30" transform="translate(190.869141 0)"/>
      </g>
     </g>
    </g>
    <g id="ytick_5">
     <g id="line2d_10">
      <g>
       <use xlink:href="#mdd5abd5fbd" x="53.328125" y="54.811915" style="stroke: #000000; stroke-width: 0.8"/>
      </g>
     </g>
     <g id="text_11">
      <!-- 2000 -->
      <g transform="translate(20.878125 58.611134) scale(0.1 -0.1)">
       <use xlink:href="#DejaVuSans-32"/>
       <use xlink:href="#DejaVuSans-30" transform="translate(63.623047 0)"/>
       <use xlink:href="#DejaVuSans-30" transform="translate(127.246094 0)"/>
       <use xlink:href="#DejaVuSans-30" transform="translate(190.869141 0)"/>
      </g>
     </g>
    </g>
    <g id="ytick_6">
     <g id="line2d_11">
      <g>
       <use xlink:href="#mdd5abd5fbd" x="53.328125" y="13.568052" style="stroke: #000000; stroke-width: 0.8"/>
      </g>
     </g>
     <g id="text_12">
      <!-- 2500 -->
      <g transform="translate(20.878125 17.367271) scale(0.1 -0.1)">
       <use xlink:href="#DejaVuSans-32"/>
       <use xlink:href="#DejaVuSans-35" transform="translate(63.623047 0)"/>
       <use xlink:href="#DejaVuSans-30" transform="translate(127.246094 0)"/>
       <use xlink:href="#DejaVuSans-30" transform="translate(190.869141 0)"/>
      </g>
     </g>
    </g>
    <g id="text_13">
     <!-- [counts] -->
     <g transform="translate(14.798438 138.6925) rotate(-90) scale(0.1 -0.1)">
      <defs>
       <path id="DejaVuSans-63" d="M 3122 3366 
L 3122 2828 
Q 2878 2963 2633 3030 
Q 2388 3097 2138 3097 
Q 1578 3097 1268 2742 
Q 959 2388 959 1747 
Q 959 1106 1268 751 
Q 1578 397 2138 397 
Q 2388 397 2633 464 
Q 2878 531 3122 666 
L 3122 134 
Q 2881 22 2623 -34 
Q 2366 -91 2075 -91 
Q 1284 -91 818 406 
Q 353 903 353 1747 
Q 353 2603 823 3093 
Q 1294 3584 2113 3584 
Q 2378 3584 2631 3529 
Q 2884 3475 3122 3366 
z
" transform="scale(0.015625)"/>
       <path id="DejaVuSans-75" d="M 544 1381 
L 544 3500 
L 1119 3500 
L 1119 1403 
Q 1119 906 1312 657 
Q 1506 409 1894 409 
Q 2359 409 2629 706 
Q 2900 1003 2900 1516 
L 2900 3500 
L 3475 3500 
L 3475 0 
L 2900 0 
L 2900 538 
Q 2691 219 2414 64 
Q 2138 -91 1772 -91 
Q 1169 -91 856 284 
Q 544 659 544 1381 
z
M 1991 3584 
L 1991 3584 
z
" transform="scale(0.015625)"/>
       <path id="DejaVuSans-6e" d="M 3513 2113 
L 3513 0 
L 2938 0 
L 2938 2094 
Q 2938 2591 2744 2837 
Q 2550 3084 2163 3084 
Q 1697 3084 1428 2787 
Q 1159 2491 1159 1978 
L 1159 0 
L 581 0 
L 581 3500 
L 1159 3500 
L 1159 2956 
Q 1366 3272 1645 3428 
Q 1925 3584 2291 3584 
Q 2894 3584 3203 3211 
Q 3513 2838 3513 2113 
z
" transform="scale(0.015625)"/>
      </defs>
      <use xlink:href="#DejaVuSans-5b"/>
      <use xlink:href="#DejaVuSans-63" transform="translate(39.013672 0)"/>
      <use xlink:href="#DejaVuSans-6f" transform="translate(93.994141 0)"/>
      <use xlink:href="#DejaVuSans-75" transform="translate(155.175781 0)"/>
      <use xlink:href="#DejaVuSans-6e" transform="translate(218.554688 0)"/>
      <use xlink:href="#DejaVuSans-74" transform="translate(281.933594 0)"/>
      <use xlink:href="#DejaVuSans-73" transform="translate(321.142578 0)"/>
      <use xlink:href="#DejaVuSans-5d" transform="translate(373.242188 0)"/>
     </g>
    </g>
   </g>
   <g id="line2d_12">
    <path d="M 68.546307 192.318953 
L 69.560852 192.318953 
L 69.560852 146.043339 
L 70.575398 146.043339 
L 70.575398 108.016498 
L 71.589943 108.016498 
L 71.589943 105.541866 
L 72.604489 105.541866 
L 72.604489 97.375581 
L 73.619034 97.375581 
L 73.619034 91.189002 
L 74.63358 91.189002 
L 74.63358 92.838756 
L 75.648125 92.838756 
L 75.648125 79.723208 
L 76.66267 79.723208 
L 76.66267 75.021408 
L 77.677216 75.021408 
L 77.677216 72.216825 
L 78.691761 72.216825 
L 78.691761 65.205368 
L 79.706307 65.205368 
L 79.706307 63.473126 
L 80.720852 63.473126 
L 80.720852 62.070835 
L 81.735398 62.070835 
L 81.735398 56.956596 
L 82.749943 56.956596 
L 82.749943 45.160851 
L 83.764489 45.160851 
L 83.764489 43.593584 
L 84.779034 43.593584 
L 84.779034 38.479345 
L 85.79358 38.479345 
L 85.79358 34.68491 
L 86.808125 34.68491 
L 86.808125 32.210278 
L 87.82267 32.210278 
L 87.82267 31.385401 
L 88.837216 31.385401 
L 88.837216 24.126481 
L 89.851761 24.126481 
L 89.851761 21.074435 
L 90.866307 21.074435 
L 90.866307 17.28 
L 91.880852 17.28 
L 91.880852 25.033846 
L 92.895398 25.033846 
L 92.895398 20.414534 
L 93.909943 20.414534 
L 93.909943 29.075745 
L 94.924489 29.075745 
L 94.924489 26.35365 
L 95.939034 26.35365 
L 95.939034 24.373944 
L 96.95358 24.373944 
L 96.95358 23.961506 
L 97.968125 23.961506 
L 97.968125 33.860033 
L 98.98267 33.860033 
L 98.98267 35.344812 
L 99.997216 35.344812 
L 99.997216 31.385401 
L 101.011761 31.385401 
L 101.011761 33.035155 
L 102.026307 33.035155 
L 102.026307 47.223044 
L 103.040852 47.223044 
L 103.040852 42.933682 
L 104.055398 42.933682 
L 104.055398 54.811915 
L 105.069943 54.811915 
L 105.069943 61.410933 
L 106.084489 61.410933 
L 106.084489 74.114043 
L 107.099034 74.114043 
L 107.099034 80.548085 
L 108.11358 80.548085 
L 108.11358 96.138265 
L 109.128125 96.138265 
L 109.128125 95.643339 
L 110.14267 95.643339 
L 110.14267 103.892111 
L 111.157216 103.892111 
L 111.157216 111.151031 
L 112.171761 111.151031 
L 112.171761 120.554632 
L 113.186307 120.554632 
L 113.186307 133.422717 
L 114.200852 133.422717 
L 114.200852 140.9291 
L 115.215398 140.9291 
L 115.215398 140.434173 
L 116.229943 140.434173 
L 116.229943 150.827627 
L 117.244489 150.827627 
L 117.244489 158.911424 
L 118.259034 158.911424 
L 118.259034 164.025663 
L 119.27358 164.025663 
L 119.27358 171.119607 
L 120.288125 171.119607 
L 120.288125 179.863306 
L 121.30267 179.863306 
L 121.30267 181.265597 
L 122.317216 181.265597 
L 122.317216 188.029591 
L 123.331761 188.029591 
L 123.331761 178.790966 
L 124.346307 178.790966 
L 124.346307 158.911424 
L 125.360852 158.911424 
L 125.360852 146.620753 
L 126.375398 146.620753 
L 126.375398 127.236137 
L 127.389943 127.236137 
L 127.389943 97.375581 
L 128.404489 97.375581 
L 128.404489 92.34383 
L 129.419034 92.34383 
L 129.419034 85.579836 
L 130.43358 85.579836 
L 130.43358 89.621735 
L 131.448125 89.621735 
L 131.448125 94.406023 
L 132.46267 94.406023 
L 132.46267 87.312079 
L 133.477216 87.312079 
L 133.477216 94.735974 
L 134.491761 94.735974 
L 134.491761 100.922553 
L 135.506307 100.922553 
L 135.506307 101.087529 
L 136.520852 101.087529 
L 136.520852 94.735974 
L 137.535398 94.735974 
L 137.535398 97.128118 
L 138.549943 97.128118 
L 138.549943 100.510115 
L 139.564489 100.510115 
L 139.564489 99.685237 
L 140.579034 99.685237 
L 140.579034 99.355286 
L 141.59358 99.355286 
L 141.59358 99.190311 
L 142.608125 99.190311 
L 142.608125 98.942848 
L 143.62267 98.942848 
L 143.62267 106.284255 
L 144.637216 106.284255 
L 144.637216 111.316007 
L 145.651761 111.316007 
L 145.651761 111.893421 
L 146.666307 111.893421 
L 146.666307 111.480982 
L 147.680852 111.480982 
L 147.680852 112.63581 
L 148.695398 112.63581 
L 148.695398 117.172635 
L 149.709943 117.172635 
L 149.709943 113.955614 
L 150.724489 113.955614 
L 150.724489 120.389656 
L 151.739034 120.389656 
L 151.739034 115.522881 
L 152.75358 115.522881 
L 152.75358 121.874435 
L 153.768125 121.874435 
L 153.768125 122.699313 
L 154.78267 122.699313 
L 154.78267 124.514043 
L 155.797216 124.514043 
L 155.797216 123.854141 
L 156.811761 123.854141 
L 156.811761 122.534337 
L 157.826307 122.534337 
L 157.826307 128.22599 
L 159.855398 128.22599 
L 159.855398 129.710769 
L 160.869943 129.710769 
L 160.869943 128.638429 
L 161.884489 128.638429 
L 161.884489 135.649885 
L 162.899034 135.649885 
L 162.899034 131.772962 
L 163.91358 131.772962 
L 163.91358 124.926481 
L 164.928125 124.926481 
L 164.928125 132.102913 
L 165.94267 132.102913 
L 165.94267 137.052177 
L 166.957216 137.052177 
L 166.957216 140.021735 
L 167.971761 140.021735 
L 167.971761 146.043339 
L 168.986307 146.043339 
L 168.986307 147.693093 
L 170.000852 147.693093 
L 170.000852 150.167725 
L 171.015398 150.167725 
L 171.015398 147.033191 
L 172.029943 147.033191 
L 172.029943 149.837774 
L 173.044489 149.837774 
L 173.044489 154.209624 
L 174.059034 154.209624 
L 174.059034 160.891129 
L 175.07358 160.891129 
L 175.07358 162.210933 
L 176.088125 162.210933 
L 176.088125 158.251522 
L 177.10267 158.251522 
L 177.10267 155.446939 
L 179.131761 155.529427 
L 179.131761 147.693093 
L 180.146307 147.693093 
L 180.146307 143.403732 
L 181.160852 143.403732 
L 181.160852 139.361833 
L 182.175398 139.361833 
L 182.175398 134.247594 
L 183.189943 134.247594 
L 183.189943 131.278036 
L 184.204489 131.278036 
L 184.204489 143.733682 
L 185.219034 143.733682 
L 185.219034 139.691784 
L 186.23358 139.691784 
L 186.23358 153.054795 
L 187.248125 153.054795 
L 187.248125 146.455777 
L 188.26267 146.455777 
L 188.26267 154.457087 
L 189.277216 154.457087 
L 189.277216 153.879673 
L 190.291761 153.879673 
L 190.291761 157.426645 
L 191.306307 157.426645 
L 191.306307 157.59162 
L 192.320852 157.59162 
L 192.320852 157.921571 
L 193.335398 157.921571 
L 193.335398 154.209624 
L 194.349943 154.209624 
L 194.349943 157.426645 
L 195.364489 157.426645 
L 195.364489 157.674108 
L 196.379034 157.674108 
L 196.379034 157.921571 
L 197.39358 157.921571 
L 197.39358 160.561178 
L 198.408125 160.561178 
L 198.408125 161.880982 
L 199.42267 161.880982 
L 199.42267 160.231227 
L 200.437216 160.231227 
L 200.437216 160.396203 
L 201.451761 160.396203 
L 201.451761 165.757905 
L 202.466307 165.757905 
L 202.466307 163.365761 
L 203.480852 163.365761 
L 203.480852 169.964779 
L 204.495398 169.964779 
L 204.495398 169.057414 
L 205.509943 169.057414 
L 205.509943 172.274435 
L 206.524489 172.274435 
L 206.524489 173.264288 
L 207.539034 173.264288 
L 207.539034 174.584092 
L 208.55358 174.584092 
L 208.55358 176.728773 
L 209.568125 176.728773 
L 209.568125 175.656432 
L 210.58267 175.656432 
L 210.58267 175.903895 
L 211.597216 175.903895 
L 211.597216 176.893748 
L 212.611761 176.893748 
L 212.611761 182.25545 
L 213.626307 182.25545 
L 213.626307 185.307496 
L 214.640852 185.307496 
L 214.640852 186.874763 
L 215.655398 186.874763 
L 215.655398 191.164124 
L 216.669943 191.164124 
L 216.669943 193.308805 
L 217.684489 193.308805 
L 217.684489 190.916661 
L 218.699034 190.916661 
L 218.699034 193.061342 
L 219.71358 193.061342 
L 219.71358 193.556268 
L 220.728125 193.556268 
L 220.728125 194.463633 
L 221.74267 194.463633 
L 221.74267 196.278363 
L 222.757216 196.278363 
L 222.757216 199.082946 
L 223.771761 199.082946 
L 223.771761 198.505532 
L 224.786307 198.505532 
L 224.786307 194.298658 
L 225.800852 194.298658 
L 225.800852 195.123535 
L 226.815398 195.123535 
L 226.815398 190.421735 
L 227.829943 190.421735 
L 227.829943 192.071489 
L 228.844489 192.071489 
L 228.844489 188.194566 
L 229.859034 188.194566 
L 229.859034 187.369689 
L 230.87358 187.369689 
L 230.87358 183.905205 
L 231.888125 183.905205 
L 231.888125 184.152668 
L 232.90267 184.152668 
L 232.90267 183.987692 
L 233.917216 183.987692 
L 233.917216 190.999149 
L 234.931761 190.999149 
L 234.931761 193.473781 
L 235.946307 193.473781 
L 235.946307 195.618462 
L 236.960852 195.618462 
L 236.960852 195.041047 
L 237.975398 195.041047 
L 237.975398 195.206023 
L 238.989943 195.206023 
L 238.989943 192.813879 
L 240.004489 192.813879 
L 240.004489 196.443339 
L 241.019034 196.443339 
L 241.019034 197.763142 
L 242.03358 197.763142 
L 242.03358 195.370998 
L 243.048125 195.370998 
L 243.048125 199.412897 
L 244.06267 199.412897 
L 244.06267 200.485237 
L 245.077216 200.485237 
L 245.077216 201.47509 
L 246.091761 201.47509 
L 246.091761 199.990311 
L 247.106307 199.990311 
L 247.106307 201.887529 
L 248.120852 201.887529 
L 248.120852 203.28982 
L 249.135398 203.28982 
L 249.135398 204.279673 
L 250.149943 204.279673 
L 250.149943 204.692111 
L 251.164489 204.692111 
L 251.164489 205.681964 
L 252.179034 205.681964 
L 252.179034 206.836792 
L 253.19358 206.836792 
L 253.19358 205.846939 
L 254.208125 205.846939 
L 254.208125 206.094403 
L 255.22267 206.094403 
L 255.22267 209.311424 
L 256.237216 209.311424 
L 256.237216 208.486547 
L 257.251761 208.486547 
L 257.251761 210.796203 
L 259.280852 210.796203 
L 259.280852 211.291129 
L 260.295398 211.291129 
L 260.295398 209.80635 
L 261.309943 209.80635 
L 261.309943 212.610933 
L 262.324489 212.610933 
L 262.324489 212.36347 
L 263.339034 212.36347 
L 263.339034 213.188347 
L 265.368125 213.270835 
L 265.368125 213.765761 
L 266.38267 213.765761 
L 266.38267 214.260687 
L 267.397216 214.260687 
L 267.397216 213.43581 
L 268.411761 213.43581 
L 268.411761 213.848249 
L 269.426307 213.848249 
L 269.426307 215.498003 
L 270.440852 215.498003 
L 270.440852 214.838101 
L 271.455398 214.838101 
L 271.455398 211.538592 
L 272.469943 211.538592 
L 272.469943 210.961178 
L 273.484489 210.961178 
L 273.484489 209.888838 
L 274.499034 209.888838 
L 274.499034 208.816498 
L 275.51358 208.816498 
L 275.51358 208.321571 
L 276.528125 208.321571 
L 276.528125 207.166743 
L 277.54267 207.166743 
L 277.54267 204.032209 
L 278.557216 204.032209 
L 278.557216 205.929427 
L 279.571761 205.929427 
L 279.571761 207.001768 
L 280.586307 207.001768 
L 280.586307 205.434501 
L 281.600852 205.434501 
L 281.600852 207.99162 
L 283.629943 207.99162 
L 283.629943 209.311424 
L 284.644489 209.311424 
L 284.644489 210.136301 
L 285.659034 210.136301 
L 285.659034 208.73401 
L 286.67358 208.73401 
L 286.67358 208.156596 
L 287.688125 208.156596 
L 287.688125 211.126154 
L 288.70267 211.126154 
L 288.70267 210.961178 
L 289.717216 210.961178 
L 289.717216 211.786056 
L 290.731761 211.786056 
L 290.731761 212.36347 
L 292.760852 212.36347 
L 292.760852 211.291129 
L 293.775398 211.291129 
L 293.775398 212.198494 
L 294.789943 212.198494 
L 294.789943 213.683273 
L 295.804489 213.683273 
L 295.804489 214.013224 
L 296.819034 214.013224 
L 296.819034 212.858396 
L 297.83358 212.858396 
L 297.83358 214.343175 
L 298.848125 214.343175 
L 298.848125 215.003077 
L 299.86267 215.003077 
L 299.86267 213.765761 
L 300.877216 213.765761 
L 300.877216 214.425663 
L 301.891761 214.425663 
L 301.891761 214.755614 
L 303.920852 214.838101 
L 303.920852 215.168052 
L 304.935398 215.168052 
L 304.935398 215.745466 
L 305.949943 215.745466 
L 305.949943 216.570344 
L 306.964489 216.570344 
L 306.964489 216.405368 
L 307.979034 216.405368 
L 307.979034 216.817807 
L 308.99358 216.817807 
L 308.99358 217.80766 
L 310.008125 217.80766 
L 310.008125 217.477709 
L 311.02267 217.477709 
L 311.02267 216.570344 
L 312.037216 216.570344 
L 312.037216 217.642684 
L 313.051761 217.642684 
L 313.051761 217.890147 
L 314.066307 217.890147 
L 314.066307 218.055123 
L 315.080852 218.055123 
L 315.080852 217.06527 
L 316.095398 217.06527 
L 316.095398 215.333028 
L 317.109943 215.333028 
L 317.109943 216.240393 
L 318.124489 216.240393 
L 318.124489 214.838101 
L 319.139034 214.838101 
L 319.139034 214.013224 
L 320.15358 214.013224 
L 320.15358 212.610933 
L 321.168125 212.610933 
L 321.168125 210.713715 
L 322.18267 210.713715 
L 322.18267 209.393912 
L 323.197216 209.393912 
L 323.197216 208.981473 
L 324.211761 208.981473 
L 324.211761 209.641375 
L 325.226307 209.641375 
L 325.226307 204.032209 
L 326.240852 204.032209 
L 326.240852 203.867234 
L 327.255398 203.867234 
L 327.255398 202.299967 
L 328.269943 202.299967 
L 328.269943 203.949722 
L 329.284489 203.949722 
L 329.284489 204.114697 
L 330.299034 204.114697 
L 330.299034 205.187038 
L 332.328125 205.187038 
L 332.328125 204.197185 
L 333.34267 204.197185 
L 333.34267 205.022062 
L 335.371761 205.10455 
L 335.371761 203.619771 
L 336.386307 203.619771 
L 336.386307 205.022062 
L 337.400852 205.022062 
L 337.400852 207.579182 
L 338.415398 207.579182 
L 338.415398 204.36216 
L 339.429943 204.36216 
L 339.429943 206.259378 
L 341.459034 206.259378 
L 341.459034 205.516989 
L 342.47358 205.516989 
L 342.47358 207.001768 
L 343.488125 207.001768 
L 343.488125 207.166743 
L 344.50267 207.166743 
L 344.50267 208.239083 
L 345.517216 208.239083 
L 345.517216 205.269525 
L 346.531761 205.269525 
L 346.531761 207.414206 
L 347.546307 207.414206 
L 347.546307 208.074108 
L 348.560852 208.074108 
L 348.560852 208.569034 
L 349.575398 208.569034 
L 349.575398 208.239083 
L 350.589943 208.239083 
L 350.589943 209.146448 
L 351.604489 209.146448 
L 351.604489 209.80635 
L 352.619034 209.80635 
L 352.619034 209.641375 
L 353.63358 209.641375 
L 353.63358 209.476399 
L 354.648125 209.476399 
L 354.648125 211.373617 
L 355.66267 211.373617 
L 355.66267 210.301277 
L 356.677216 210.301277 
L 356.677216 209.558887 
L 357.691761 209.558887 
L 357.691761 210.961178 
L 359.720852 210.961178 
L 359.720852 212.693421 
L 360.735398 212.693421 
L 360.735398 212.36347 
L 361.749943 212.36347 
L 361.749943 213.765761 
L 362.764489 213.765761 
L 362.764489 213.43581 
L 363.779034 213.43581 
L 363.779034 212.280982 
L 364.79358 212.280982 
L 364.79358 213.105859 
L 365.808125 213.105859 
L 365.808125 214.590638 
L 367.837216 214.590638 
L 367.837216 216.075417 
L 368.851761 216.075417 
L 368.851761 216.405368 
L 369.866307 216.405368 
L 369.866307 218.13761 
L 370.880852 218.13761 
L 370.880852 217.890147 
L 371.895398 217.890147 
L 371.895398 218.88 
L 372.909943 218.88 
L 372.909943 218.88 
" clip-path="url(#p77896a934f)" style="fill: none; stroke: #1f77b4; stroke-width: 1.5; stroke-linecap: square"/>
   </g>
   <g id="patch_3">
    <path d="M 53.328125 228.96 
L 53.328125 7.2 
" style="fill: none; stroke: #000000; stroke-width: 0.8; stroke-linejoin: miter; stroke-linecap: square"/>
   </g>
   <g id="patch_4">
    <path d="M 388.128125 228.96 
L 388.128125 7.2 
" style="fill: none; stroke: #000000; stroke-width: 0.8; stroke-linejoin: miter; stroke-linecap: square"/>
   </g>
   <g id="patch_5">
    <path d="M 53.328125 228.96 
L 388.128125 228.96 
" style="fill: none; stroke: #000000; stroke-width: 0.8; stroke-linejoin: miter; stroke-linecap: square"/>
   </g>
   <g id="patch_6">
    <path d="M 53.328125 7.2 
L 388.128125 7.2 
" style="fill: none; stroke: #000000; stroke-width: 0.8; stroke-linejoin: miter; stroke-linecap: square"/>
   </g>
  </g>
 </g>
 <defs>
  <clipPath id="p77896a934f">
   <rect x="53.328125" y="7.2" width="334.8" height="221.76"/>
  </clipPath>
 </defs>
</svg>
