<?xml version="1.0" encoding="utf-8" standalone="no"?>
<!DOCTYPE svg PUBLIC "-//W3C//DTD SVG 1.1//EN"
  "http://www.w3.org/Graphics/SVG/1.1/DTD/svg11.dtd">
<svg xmlns:xlink="http://www.w3.org/1999/xlink" width="872.39952pt" height="296.39952pt" viewBox="0 0 872.39952 296.39952" xmlns="http://www.w3.org/2000/svg" version="1.1">
 <metadata>
  <rdf:RDF xmlns:dc="http://purl.org/dc/elements/1.1/" xmlns:cc="http://creativecommons.org/ns#" xmlns:rdf="http://www.w3.org/1999/02/22-rdf-syntax-ns#">
   <cc:Work>
    <dc:type rdf:resource="http://purl.org/dc/dcmitype/StillImage"/>
    <dc:date>2025-03-02T06:36:44.644768</dc:date>
    <dc:format>image/svg+xml</dc:format>
    <dc:creator>
     <cc:Agent>
      <dc:title>Matplotlib v3.10.0, https://matplotlib.org/</dc:title>
     </cc:Agent>
    </dc:creator>
   </cc:Work>
  </rdf:RDF>
 </metadata>
 <defs>
  <style type="text/css">*{stroke-linejoin: round; stroke-linecap: butt}</style>
 </defs>
 <g id="figure_1">
  <g id="patch_1">
   <path d="M 0 296.39952 
L 872.39952 296.39952 
L 872.39952 0 
L 0 0 
z
" style="fill: #ffffff"/>
  </g>
  <g id="axes_1">
   <g id="patch_2">
    <path d="M 53.328125 257.158895 
L 431.87976 257.158895 
L 431.87976 7.2 
L 53.328125 7.2 
z
" style="fill: #ffffff"/>
   </g>
   <g id="matplotlib.axis_1">
    <g id="xtick_1">
     <g id="line2d_1">
      <defs>
       <path id="m09ae86e243" d="M 0 0 
L 0 3.5 
" style="stroke: #000000; stroke-width: 0.8"/>
      </defs>
      <g>
       <use xlink:href="#m09ae86e243" x="69.61173" y="257.158895" style="stroke: #000000; stroke-width: 0.8"/>
      </g>
     </g>
     <g id="text_1">
      <!-- 0 -->
      <g transform="translate(66.43048 271.757332) scale(0.1 -0.1)">
       <defs>
        <path id="DejaVuSans-30" d="M 2034 4250 
Q 1547 4250 1301 3770 
Q 1056 3291 1056 2328 
Q 1056 1369 1301 889 
Q 1547 409 2034 409 
Q 2525 409 2770 889 
Q 3016 1369 3016 2328 
Q 3016 3291 2770 3770 
Q 2525 4250 2034 4250 
z
M 2034 4750 
Q 2819 4750 3233 4129 
Q 3647 3509 3647 2328 
Q 3647 1150 3233 529 
Q 2819 -91 2034 -91 
Q 1250 -91 836 529 
Q 422 1150 422 2328 
Q 422 3509 836 4129 
Q 1250 4750 2034 4750 
z
" transform="scale(0.015625)"/>
       </defs>
       <use xlink:href="#DejaVuSans-30"/>
      </g>
     </g>
    </g>
    <g id="xtick_2">
     <g id="line2d_2">
      <g>
       <use xlink:href="#m09ae86e243" x="138.823339" y="257.158895" style="stroke: #000000; stroke-width: 0.8"/>
      </g>
     </g>
     <g id="text_2">
      <!-- 1000 -->
      <g transform="translate(126.098339 271.757332) scale(0.1 -0.1)">
       <defs>
        <path id="DejaVuSans-31" d="M 794 531 
L 1825 531 
L 1825 4091 
L 703 3866 
L 703 4441 
L 1819 4666 
L 2450 4666 
L 2450 531 
L 3481 531 
L 3481 0 
L 794 0 
L 794 531 
z
" transform="scale(0.015625)"/>
       </defs>
       <use xlink:href="#DejaVuSans-31"/>
       <use xlink:href="#DejaVuSans-30" transform="translate(63.623047 0)"/>
       <use xlink:href="#DejaVuSans-30" transform="translate(127.246094 0)"/>
       <use xlink:href="#DejaVuSans-30" transform="translate(190.869141 0)"/>
      </g>
     </g>
    </g>
    <g id="xtick_3">
     <g id="line2d_3">
      <g>
       <use xlink:href="#m09ae86e243" x="208.034947" y="257.158895" style="stroke: #000000; stroke-width: 0.8"/>
      </g>
     </g>
     <g id="text_3">
      <!-- 2000 -->
      <g transform="translate(195.309947 271.757332) scale(0.1 -0.1)">
       <defs>
        <path id="DejaVuSans-32" d="M 1228 531 
L 3431 531 
L 3431 0 
L 469 0 
L 469 531 
Q 828 903 1448 1529 
Q 2069 2156 2228 2338 
Q 2531 2678 2651 2914 
Q 2772 3150 2772 3378 
Q 2772 3750 2511 3984 
Q 2250 4219 1831 4219 
Q 1534 4219 1204 4116 
Q 875 4013 500 3803 
L 500 4441 
Q 881 4594 1212 4672 
Q 1544 4750 1819 4750 
Q 2544 4750 2975 4387 
Q 3406 4025 3406 3419 
Q 3406 3131 3298 2873 
Q 3191 2616 2906 2266 
Q 2828 2175 2409 1742 
Q 1991 1309 1228 531 
z
" transform="scale(0.015625)"/>
       </defs>
       <use xlink:href="#DejaVuSans-32"/>
       <use xlink:href="#DejaVuSans-30" transform="translate(63.623047 0)"/>
       <use xlink:href="#DejaVuSans-30" transform="translate(127.246094 0)"/>
       <use xlink:href="#DejaVuSans-30" transform="translate(190.869141 0)"/>
      </g>
     </g>
    </g>
    <g id="xtick_4">
     <g id="line2d_4">
      <g>
       <use xlink:href="#m09ae86e243" x="277.246556" y="257.158895" style="stroke: #000000; stroke-width: 0.8"/>
      </g>
     </g>
     <g id="text_4">
      <!-- 3000 -->
      <g transform="translate(264.521556 271.757332) scale(0.1 -0.1)">
       <defs>
        <path id="DejaVuSans-33" d="M 2597 2516 
Q 3050 2419 3304 2112 
Q 3559 1806 3559 1356 
Q 3559 666 3084 287 
Q 2609 -91 1734 -91 
Q 1441 -91 1130 -33 
Q 819 25 488 141 
L 488 750 
Q 750 597 1062 519 
Q 1375 441 1716 441 
Q 2309 441 2620 675 
Q 2931 909 2931 1356 
Q 2931 1769 2642 2001 
Q 2353 2234 1838 2234 
L 1294 2234 
L 1294 2753 
L 1863 2753 
Q 2328 2753 2575 2939 
Q 2822 3125 2822 3475 
Q 2822 3834 2567 4026 
Q 2313 4219 1838 4219 
Q 1578 4219 1281 4162 
Q 984 4106 628 3988 
L 628 4550 
Q 988 4650 1302 4700 
Q 1616 4750 1894 4750 
Q 2613 4750 3031 4423 
Q 3450 4097 3450 3541 
Q 3450 3153 3228 2886 
Q 3006 2619 2597 2516 
z
" transform="scale(0.015625)"/>
       </defs>
       <use xlink:href="#DejaVuSans-33"/>
       <use xlink:href="#DejaVuSans-30" transform="translate(63.623047 0)"/>
       <use xlink:href="#DejaVuSans-30" transform="translate(127.246094 0)"/>
       <use xlink:href="#DejaVuSans-30" transform="translate(190.869141 0)"/>
      </g>
     </g>
    </g>
    <g id="xtick_5">
     <g id="line2d_5">
      <g>
       <use xlink:href="#m09ae86e243" x="346.458164" y="257.158895" style="stroke: #000000; stroke-width: 0.8"/>
      </g>
     </g>
     <g id="text_5">
      <!-- 4000 -->
      <g transform="translate(333.733164 271.757332) scale(0.1 -0.1)">
       <defs>
        <path id="DejaVuSans-34" d="M 2419 4116 
L 825 1625 
L 2419 1625 
L 2419 4116 
z
M 2253 4666 
L 3047 4666 
L 3047 1625 
L 3713 1625 
L 3713 1100 
L 3047 1100 
L 3047 0 
L 2419 0 
L 2419 1100 
L 313 1100 
L 313 1709 
L 2253 4666 
z
" transform="scale(0.015625)"/>
       </defs>
       <use xlink:href="#DejaVuSans-34"/>
       <use xlink:href="#DejaVuSans-30" transform="translate(63.623047 0)"/>
       <use xlink:href="#DejaVuSans-30" transform="translate(127.246094 0)"/>
       <use xlink:href="#DejaVuSans-30" transform="translate(190.869141 0)"/>
      </g>
     </g>
    </g>
    <g id="xtick_6">
     <g id="line2d_6">
      <g>
       <use xlink:href="#m09ae86e243" x="415.669772" y="257.158895" style="stroke: #000000; stroke-width: 0.8"/>
      </g>
     </g>
     <g id="text_6">
      <!-- 5000 -->
      <g transform="translate(402.944772 271.757332) scale(0.1 -0.1)">
       <defs>
        <path id="DejaVuSans-35" d="M 691 4666 
L 3169 4666 
L 3169 4134 
L 1269 4134 
L 1269 2991 
Q 1406 3038 1543 3061 
Q 1681 3084 1819 3084 
Q 2600 3084 3056 2656 
Q 3513 2228 3513 1497 
Q 3513 744 3044 326 
Q 2575 -91 1722 -91 
Q 1428 -91 1123 -41 
Q 819 9 494 109 
L 494 744 
Q 775 591 1075 516 
Q 1375 441 1709 441 
Q 2250 441 2565 725 
Q 2881 1009 2881 1497 
Q 2881 1984 2565 2268 
Q 2250 2553 1709 2553 
Q 1456 2553 1204 2497 
Q 953 2441 691 2322 
L 691 4666 
z
" transform="scale(0.015625)"/>
       </defs>
       <use xlink:href="#DejaVuSans-35"/>
       <use xlink:href="#DejaVuSans-30" transform="translate(63.623047 0)"/>
       <use xlink:href="#DejaVuSans-30" transform="translate(127.246094 0)"/>
       <use xlink:href="#DejaVuSans-30" transform="translate(190.869141 0)"/>
      </g>
     </g>
    </g>
    <g id="text_7">
     <!-- time [µs] -->
     <g transform="translate(220.031286 285.435457) scale(0.1 -0.1)">
      <defs>
       <path id="DejaVuSans-74" d="M 1172 4494 
L 1172 3500 
L 2356 3500 
L 2356 3053 
L 1172 3053 
L 1172 1153 
Q 1172 725 1289 603 
Q 1406 481 1766 481 
L 2356 481 
L 2356 0 
L 1766 0 
Q 1100 0 847 248 
Q 594 497 594 1153 
L 594 3053 
L 172 3053 
L 172 3500 
L 594 3500 
L 594 4494 
L 1172 4494 
z
" transform="scale(0.015625)"/>
       <path id="DejaVuSans-69" d="M 603 3500 
L 1178 3500 
L 1178 0 
L 603 0 
L 603 3500 
z
M 603 4863 
L 1178 4863 
L 1178 4134 
L 603 4134 
L 603 4863 
z
" transform="scale(0.015625)"/>
       <path id="DejaVuSans-6d" d="M 3328 2828 
Q 3544 3216 3844 3400 
Q 4144 3584 4550 3584 
Q 5097 3584 5394 3201 
Q 5691 2819 5691 2113 
L 5691 0 
L 5113 0 
L 5113 2094 
Q 5113 2597 4934 2840 
Q 4756 3084 4391 3084 
Q 3944 3084 3684 2787 
Q 3425 2491 3425 1978 
L 3425 0 
L 2847 0 
L 2847 2094 
Q 2847 2600 2669 2842 
Q 2491 3084 2119 3084 
Q 1678 3084 1418 2786 
Q 1159 2488 1159 1978 
L 1159 0 
L 581 0 
L 581 3500 
L 1159 3500 
L 1159 2956 
Q 1356 3278 1631 3431 
Q 1906 3584 2284 3584 
Q 2666 3584 2933 3390 
Q 3200 3197 3328 2828 
z
" transform="scale(0.015625)"/>
       <path id="DejaVuSans-65" d="M 3597 1894 
L 3597 1613 
L 953 1613 
Q 991 1019 1311 708 
Q 1631 397 2203 397 
Q 2534 397 2845 478 
Q 3156 559 3463 722 
L 3463 178 
Q 3153 47 2828 -22 
Q 2503 -91 2169 -91 
Q 1331 -91 842 396 
Q 353 884 353 1716 
Q 353 2575 817 3079 
Q 1281 3584 2069 3584 
Q 2775 3584 3186 3129 
Q 3597 2675 3597 1894 
z
M 3022 2063 
Q 3016 2534 2758 2815 
Q 2500 3097 2075 3097 
Q 1594 3097 1305 2825 
Q 1016 2553 972 2059 
L 3022 2063 
z
" transform="scale(0.015625)"/>
       <path id="DejaVuSans-20" transform="scale(0.015625)"/>
       <path id="DejaVuSans-5b" d="M 550 4863 
L 1875 4863 
L 1875 4416 
L 1125 4416 
L 1125 -397 
L 1875 -397 
L 1875 -844 
L 550 -844 
L 550 4863 
z
" transform="scale(0.015625)"/>
       <path id="DejaVuSans-b5" d="M 544 -1331 
L 544 3500 
L 1119 3500 
L 1119 1325 
Q 1119 872 1334 640 
Q 1550 409 1972 409 
Q 2434 409 2667 671 
Q 2900 934 2900 1459 
L 2900 3500 
L 3475 3500 
L 3475 806 
Q 3475 619 3529 530 
Q 3584 441 3700 441 
Q 3728 441 3778 458 
Q 3828 475 3916 513 
L 3916 50 
Q 3788 -22 3673 -56 
Q 3559 -91 3450 -91 
Q 3234 -91 3106 31 
Q 2978 153 2931 403 
Q 2775 156 2548 32 
Q 2322 -91 2016 -91 
Q 1697 -91 1473 31 
Q 1250 153 1119 397 
L 1119 -1331 
L 544 -1331 
z
" transform="scale(0.015625)"/>
       <path id="DejaVuSans-73" d="M 2834 3397 
L 2834 2853 
Q 2591 2978 2328 3040 
Q 2066 3103 1784 3103 
Q 1356 3103 1142 2972 
Q 928 2841 928 2578 
Q 928 2378 1081 2264 
Q 1234 2150 1697 2047 
L 1894 2003 
Q 2506 1872 2764 1633 
Q 3022 1394 3022 966 
Q 3022 478 2636 193 
Q 2250 -91 1575 -91 
Q 1294 -91 989 -36 
Q 684 19 347 128 
L 347 722 
Q 666 556 975 473 
Q 1284 391 1588 391 
Q 1994 391 2212 530 
Q 2431 669 2431 922 
Q 2431 1156 2273 1281 
Q 2116 1406 1581 1522 
L 1381 1569 
Q 847 1681 609 1914 
Q 372 2147 372 2553 
Q 372 3047 722 3315 
Q 1072 3584 1716 3584 
Q 2034 3584 2315 3537 
Q 2597 3491 2834 3397 
z
" transform="scale(0.015625)"/>
       <path id="DejaVuSans-5d" d="M 1947 4863 
L 1947 -844 
L 622 -844 
L 622 -397 
L 1369 -397 
L 1369 4416 
L 622 4416 
L 622 4863 
L 1947 4863 
z
" transform="scale(0.015625)"/>
      </defs>
      <use xlink:href="#DejaVuSans-74"/>
      <use xlink:href="#DejaVuSans-69" transform="translate(39.208984 0)"/>
      <use xlink:href="#DejaVuSans-6d" transform="translate(66.992188 0)"/>
      <use xlink:href="#DejaVuSans-65" transform="translate(164.404297 0)"/>
      <use xlink:href="#DejaVuSans-20" transform="translate(225.927734 0)"/>
      <use xlink:href="#DejaVuSans-5b" transform="translate(257.714844 0)"/>
      <use xlink:href="#DejaVuSans-b5" transform="translate(296.728516 0)"/>
      <use xlink:href="#DejaVuSans-73" transform="translate(360.351562 0)"/>
      <use xlink:href="#DejaVuSans-5d" transform="translate(412.451172 0)"/>
     </g>
    </g>
   </g>
   <g id="matplotlib.axis_2">
    <g id="ytick_1">
     <g id="line2d_7">
      <defs>
       <path id="m55e17ff00e" d="M 0 0 
L -3.5 0 
" style="stroke: #000000; stroke-width: 0.8"/>
      </defs>
      <g>
       <use xlink:href="#m55e17ff00e" x="53.328125" y="245.797127" style="stroke: #000000; stroke-width: 0.8"/>
      </g>
     </g>
     <g id="text_8">
      <!-- 0 -->
      <g transform="translate(39.965625 249.596346) scale(0.1 -0.1)">
       <use xlink:href="#DejaVuSans-30"/>
      </g>
     </g>
    </g>
    <g id="ytick_2">
     <g id="line2d_8">
      <g>
       <use xlink:href="#m55e17ff00e" x="53.328125" y="209.955588" style="stroke: #000000; stroke-width: 0.8"/>
      </g>
     </g>
     <g id="text_9">
      <!-- 200 -->
      <g transform="translate(27.240625 213.754807) scale(0.1 -0.1)">
       <use xlink:href="#DejaVuSans-32"/>
       <use xlink:href="#DejaVuSans-30" transform="translate(63.623047 0)"/>
       <use xlink:href="#DejaVuSans-30" transform="translate(127.246094 0)"/>
      </g>
     </g>
    </g>
    <g id="ytick_3">
     <g id="line2d_9">
      <g>
       <use xlink:href="#m55e17ff00e" x="53.328125" y="174.114048" style="stroke: #000000; stroke-width: 0.8"/>
      </g>
     </g>
     <g id="text_10">
      <!-- 400 -->
      <g transform="translate(27.240625 177.913267) scale(0.1 -0.1)">
       <use xlink:href="#DejaVuSans-34"/>
       <use xlink:href="#DejaVuSans-30" transform="translate(63.623047 0)"/>
       <use xlink:href="#DejaVuSans-30" transform="translate(127.246094 0)"/>
      </g>
     </g>
    </g>
    <g id="ytick_4">
     <g id="line2d_10">
      <g>
       <use xlink:href="#m55e17ff00e" x="53.328125" y="138.272509" style="stroke: #000000; stroke-width: 0.8"/>
      </g>
     </g>
     <g id="text_11">
      <!-- 600 -->
      <g transform="translate(27.240625 142.071728) scale(0.1 -0.1)">
       <defs>
        <path id="DejaVuSans-36" d="M 2113 2584 
Q 1688 2584 1439 2293 
Q 1191 2003 1191 1497 
Q 1191 994 1439 701 
Q 1688 409 2113 409 
Q 2538 409 2786 701 
Q 3034 994 3034 1497 
Q 3034 2003 2786 2293 
Q 2538 2584 2113 2584 
z
M 3366 4563 
L 3366 3988 
Q 3128 4100 2886 4159 
Q 2644 4219 2406 4219 
Q 1781 4219 1451 3797 
Q 1122 3375 1075 2522 
Q 1259 2794 1537 2939 
Q 1816 3084 2150 3084 
Q 2853 3084 3261 2657 
Q 3669 2231 3669 1497 
Q 3669 778 3244 343 
Q 2819 -91 2113 -91 
Q 1303 -91 875 529 
Q 447 1150 447 2328 
Q 447 3434 972 4092 
Q 1497 4750 2381 4750 
Q 2619 4750 2861 4703 
Q 3103 4656 3366 4563 
z
" transform="scale(0.015625)"/>
       </defs>
       <use xlink:href="#DejaVuSans-36"/>
       <use xlink:href="#DejaVuSans-30" transform="translate(63.623047 0)"/>
       <use xlink:href="#DejaVuSans-30" transform="translate(127.246094 0)"/>
      </g>
     </g>
    </g>
    <g id="ytick_5">
     <g id="line2d_11">
      <g>
       <use xlink:href="#m55e17ff00e" x="53.328125" y="102.43097" style="stroke: #000000; stroke-width: 0.8"/>
      </g>
     </g>
     <g id="text_12">
      <!-- 800 -->
      <g transform="translate(27.240625 106.230189) scale(0.1 -0.1)">
       <defs>
        <path id="DejaVuSans-38" d="M 2034 2216 
Q 1584 2216 1326 1975 
Q 1069 1734 1069 1313 
Q 1069 891 1326 650 
Q 1584 409 2034 409 
Q 2484 409 2743 651 
Q 3003 894 3003 1313 
Q 3003 1734 2745 1975 
Q 2488 2216 2034 2216 
z
M 1403 2484 
Q 997 2584 770 2862 
Q 544 3141 544 3541 
Q 544 4100 942 4425 
Q 1341 4750 2034 4750 
Q 2731 4750 3128 4425 
Q 3525 4100 3525 3541 
Q 3525 3141 3298 2862 
Q 3072 2584 2669 2484 
Q 3125 2378 3379 2068 
Q 3634 1759 3634 1313 
Q 3634 634 3220 271 
Q 2806 -91 2034 -91 
Q 1263 -91 848 271 
Q 434 634 434 1313 
Q 434 1759 690 2068 
Q 947 2378 1403 2484 
z
M 1172 3481 
Q 1172 3119 1398 2916 
Q 1625 2713 2034 2713 
Q 2441 2713 2670 2916 
Q 2900 3119 2900 3481 
Q 2900 3844 2670 4047 
Q 2441 4250 2034 4250 
Q 1625 4250 1398 4047 
Q 1172 3844 1172 3481 
z
" transform="scale(0.015625)"/>
       </defs>
       <use xlink:href="#DejaVuSans-38"/>
       <use xlink:href="#DejaVuSans-30" transform="translate(63.623047 0)"/>
       <use xlink:href="#DejaVuSans-30" transform="translate(127.246094 0)"/>
      </g>
     </g>
    </g>
    <g id="ytick_6">
     <g id="line2d_12">
      <g>
       <use xlink:href="#m55e17ff00e" x="53.328125" y="66.589431" style="stroke: #000000; stroke-width: 0.8"/>
      </g>
     </g>
     <g id="text_13">
      <!-- 1000 -->
      <g transform="translate(20.878125 70.388649) scale(0.1 -0.1)">
       <use xlink:href="#DejaVuSans-31"/>
       <use xlink:href="#DejaVuSans-30" transform="translate(63.623047 0)"/>
       <use xlink:href="#DejaVuSans-30" transform="translate(127.246094 0)"/>
       <use xlink:href="#DejaVuSans-30" transform="translate(190.869141 0)"/>
      </g>
     </g>
    </g>
    <g id="ytick_7">
     <g id="line2d_13">
      <g>
       <use xlink:href="#m55e17ff00e" x="53.328125" y="30.747891" style="stroke: #000000; stroke-width: 0.8"/>
      </g>
     </g>
     <g id="text_14">
      <!-- 1200 -->
      <g transform="translate(20.878125 34.54711) scale(0.1 -0.1)">
       <use xlink:href="#DejaVuSans-31"/>
       <use xlink:href="#DejaVuSans-32" transform="translate(63.623047 0)"/>
       <use xlink:href="#DejaVuSans-30" transform="translate(127.246094 0)"/>
       <use xlink:href="#DejaVuSans-30" transform="translate(190.869141 0)"/>
      </g>
     </g>
    </g>
    <g id="text_15">
     <!-- [counts] -->
     <g transform="translate(14.798438 152.791947) rotate(-90) scale(0.1 -0.1)">
      <defs>
       <path id="DejaVuSans-63" d="M 3122 3366 
L 3122 2828 
Q 2878 2963 2633 3030 
Q 2388 3097 2138 3097 
Q 1578 3097 1268 2742 
Q 959 2388 959 1747 
Q 959 1106 1268 751 
Q 1578 397 2138 397 
Q 2388 397 2633 464 
Q 2878 531 3122 666 
L 3122 134 
Q 2881 22 2623 -34 
Q 2366 -91 2075 -91 
Q 1284 -91 818 406 
Q 353 903 353 1747 
Q 353 2603 823 3093 
Q 1294 3584 2113 3584 
Q 2378 3584 2631 3529 
Q 2884 3475 3122 3366 
z
" transform="scale(0.015625)"/>
       <path id="DejaVuSans-6f" d="M 1959 3097 
Q 1497 3097 1228 2736 
Q 959 2375 959 1747 
Q 959 1119 1226 758 
Q 1494 397 1959 397 
Q 2419 397 2687 759 
Q 2956 1122 2956 1747 
Q 2956 2369 2687 2733 
Q 2419 3097 1959 3097 
z
M 1959 3584 
Q 2709 3584 3137 3096 
Q 3566 2609 3566 1747 
Q 3566 888 3137 398 
Q 2709 -91 1959 -91 
Q 1206 -91 779 398 
Q 353 888 353 1747 
Q 353 2609 779 3096 
Q 1206 3584 1959 3584 
z
" transform="scale(0.015625)"/>
       <path id="DejaVuSans-75" d="M 544 1381 
L 544 3500 
L 1119 3500 
L 1119 1403 
Q 1119 906 1312 657 
Q 1506 409 1894 409 
Q 2359 409 2629 706 
Q 2900 1003 2900 1516 
L 2900 3500 
L 3475 3500 
L 3475 0 
L 2900 0 
L 2900 538 
Q 2691 219 2414 64 
Q 2138 -91 1772 -91 
Q 1169 -91 856 284 
Q 544 659 544 1381 
z
M 1991 3584 
L 1991 3584 
z
" transform="scale(0.015625)"/>
       <path id="DejaVuSans-6e" d="M 3513 2113 
L 3513 0 
L 2938 0 
L 2938 2094 
Q 2938 2591 2744 2837 
Q 2550 3084 2163 3084 
Q 1697 3084 1428 2787 
Q 1159 2491 1159 1978 
L 1159 0 
L 581 0 
L 581 3500 
L 1159 3500 
L 1159 2956 
Q 1366 3272 1645 3428 
Q 1925 3584 2291 3584 
Q 2894 3584 3203 3211 
Q 3513 2838 3513 2113 
z
" transform="scale(0.015625)"/>
      </defs>
      <use xlink:href="#DejaVuSans-5b"/>
      <use xlink:href="#DejaVuSans-63" transform="translate(39.013672 0)"/>
      <use xlink:href="#DejaVuSans-6f" transform="translate(93.994141 0)"/>
      <use xlink:href="#DejaVuSans-75" transform="translate(155.175781 0)"/>
      <use xlink:href="#DejaVuSans-6e" transform="translate(218.554688 0)"/>
      <use xlink:href="#DejaVuSans-74" transform="translate(281.933594 0)"/>
      <use xlink:href="#DejaVuSans-73" transform="translate(321.142578 0)"/>
      <use xlink:href="#DejaVuSans-5d" transform="translate(373.242188 0)"/>
     </g>
    </g>
   </g>
   <g id="patch_3">
    <path d="M 53.328125 257.158895 
L 53.328125 7.2 
" style="fill: none; stroke: #000000; stroke-width: 0.8; stroke-linejoin: miter; stroke-linecap: square"/>
   </g>
   <g id="patch_4">
    <path d="M 431.87976 257.158895 
L 431.87976 7.2 
" style="fill: none; stroke: #000000; stroke-width: 0.8; stroke-linejoin: miter; stroke-linecap: square"/>
   </g>
   <g id="patch_5">
    <path d="M 53.328125 257.158895 
L 431.87976 257.158895 
" style="fill: none; stroke: #000000; stroke-width: 0.8; stroke-linejoin: miter; stroke-linecap: square"/>
   </g>
   <g id="patch_6">
    <path d="M 53.328125 7.2 
L 431.87976 7.2 
" style="fill: none; stroke: #000000; stroke-width: 0.8; stroke-linejoin: miter; stroke-linecap: square"/>
   </g>
   <g id="line2d_14">
    <path d="M 70.535017 234.507042 
L 71.682144 234.507042 
L 71.682144 227.876357 
L 72.82927 227.876357 
L 72.82927 217.303103 
L 73.976396 217.303103 
L 73.976396 214.256572 
L 75.123522 214.256572 
L 75.123522 203.862526 
L 76.270648 203.862526 
L 76.270648 193.826895 
L 77.417774 193.826895 
L 77.417774 181.999187 
L 78.564901 181.999187 
L 78.564901 178.594241 
L 79.712027 178.594241 
L 79.712027 169.275441 
L 80.859153 169.275441 
L 80.859153 157.806148 
L 82.006279 157.806148 
L 82.006279 158.702187 
L 83.153405 158.702187 
L 83.153405 153.505163 
L 84.300531 153.505163 
L 84.300531 143.111117 
L 85.447658 143.111117 
L 85.447658 132.537863 
L 86.594784 132.537863 
L 86.594784 132.358655 
L 87.74191 132.358655 
L 87.74191 128.416086 
L 88.889036 128.416086 
L 88.889036 128.236878 
L 90.036162 128.236878 
L 90.036162 119.634909 
L 91.183288 119.634909 
L 91.183288 114.975509 
L 92.330415 114.975509 
L 92.330415 109.42007 
L 93.477541 109.42007 
L 93.477541 108.344824 
L 94.624667 108.344824 
L 94.624667 106.552747 
L 95.771793 106.552747 
L 95.771793 88.094354 
L 96.918919 88.094354 
L 96.918919 90.424054 
L 98.066045 90.424054 
L 98.066045 96.875531 
L 99.213172 96.875531 
L 99.213172 95.621077 
L 100.360298 95.621077 
L 100.360298 98.846816 
L 101.507424 98.846816 
L 101.507424 82.718123 
L 103.801676 82.718123 
L 103.801676 89.348808 
L 104.948802 89.348808 
L 104.948802 72.682492 
L 106.095929 72.682492 
L 106.095929 68.381508 
L 107.243055 68.381508 
L 107.243055 75.549815 
L 108.390181 75.549815 
L 108.390181 69.635961 
L 109.537307 69.635961 
L 109.537307 66.051808 
L 110.684433 66.051808 
L 110.684433 63.005277 
L 111.831559 63.005277 
L 111.831559 67.664677 
L 112.978686 67.664677 
L 112.978686 62.288446 
L 114.125812 62.288446 
L 114.125812 64.618146 
L 115.272938 64.618146 
L 115.272938 61.033992 
L 116.420064 61.033992 
L 116.420064 53.865684 
L 117.56719 53.865684 
L 117.56719 60.137954 
L 118.714316 60.137954 
L 118.714316 57.27063 
L 119.861443 57.27063 
L 119.861443 58.8835 
L 121.008569 58.8835 
L 121.008569 52.969646 
L 122.155695 52.969646 
L 122.155695 52.073607 
L 123.302821 52.073607 
L 123.302821 52.252815 
L 124.449947 52.252815 
L 124.449947 61.2132 
L 125.597073 61.2132 
L 125.597073 47.95183 
L 126.7442 47.95183 
L 126.7442 57.987461 
L 127.891326 57.987461 
L 127.891326 56.016177 
L 129.038452 56.016177 
L 129.038452 58.525084 
L 130.185578 58.525084 
L 130.185578 57.091423 
L 131.332704 57.091423 
L 131.332704 37.378576 
L 132.47983 37.378576 
L 132.47983 45.084507 
L 133.626957 45.084507 
L 133.626957 50.998361 
L 134.774083 50.998361 
L 134.774083 46.876584 
L 135.921209 46.876584 
L 135.921209 34.690461 
L 137.068335 34.690461 
L 137.068335 50.998361 
L 138.215461 50.998361 
L 138.215461 44.905299 
L 139.362587 44.905299 
L 139.362587 47.234999 
L 140.509714 47.234999 
L 140.509714 44.188469 
L 141.65684 44.188469 
L 141.65684 46.338961 
L 142.803966 46.338961 
L 142.803966 39.887484 
L 143.951092 39.887484 
L 143.951092 40.96273 
L 145.098218 40.96273 
L 145.098218 38.63303 
L 146.245344 38.63303 
L 146.245344 48.668661 
L 147.392471 48.668661 
L 147.392471 38.991445 
L 148.539597 38.991445 
L 148.539597 43.650845 
L 149.686723 43.650845 
L 149.686723 47.234999 
L 150.833849 47.234999 
L 150.833849 48.489453 
L 151.980975 48.489453 
L 151.980975 44.905299 
L 153.128101 44.905299 
L 153.128101 43.29243 
L 154.275228 43.29243 
L 154.275228 39.708276 
L 155.422354 39.708276 
L 155.422354 50.819153 
L 156.56948 50.819153 
L 156.56948 27.880568 
L 157.716606 27.880568 
L 157.716606 47.95183 
L 158.863732 47.95183 
L 158.863732 38.453822 
L 160.010858 38.453822 
L 160.010858 38.812238 
L 161.157985 38.812238 
L 161.157985 40.96273 
L 162.305111 40.96273 
L 162.305111 47.772622 
L 163.452237 47.772622 
L 163.452237 42.396392 
L 164.599363 42.396392 
L 164.599363 47.593415 
L 165.746489 47.593415 
L 165.746489 46.876584 
L 166.893615 46.876584 
L 166.893615 33.615214 
L 168.040742 33.615214 
L 168.040742 39.887484 
L 169.187868 39.887484 
L 169.187868 40.783522 
L 170.334994 40.783522 
L 170.334994 42.396392 
L 171.48212 42.396392 
L 171.48212 41.500353 
L 172.629246 41.500353 
L 172.629246 40.96273 
L 173.776372 40.96273 
L 173.776372 47.593415 
L 174.923499 47.593415 
L 174.923499 33.436007 
L 176.070625 33.436007 
L 176.070625 42.934015 
L 177.217751 42.934015 
L 177.217751 33.077591 
L 178.364877 33.077591 
L 178.364877 30.927099 
L 179.512003 30.927099 
L 179.512003 43.29243 
L 180.659129 43.29243 
L 180.659129 35.765707 
L 181.806256 35.765707 
L 181.806256 39.170653 
L 182.953382 39.170653 
L 182.953382 46.876584 
L 184.100508 46.876584 
L 184.100508 39.529068 
L 185.247634 39.529068 
L 185.247634 40.245899 
L 186.39476 40.245899 
L 186.39476 37.916199 
L 187.541886 37.916199 
L 187.541886 28.597399 
L 188.689013 28.597399 
L 188.689013 36.124122 
L 189.836139 36.124122 
L 189.836139 46.159753 
L 190.983265 46.159753 
L 190.983265 45.084507 
L 192.130391 45.084507 
L 192.130391 33.794422 
L 193.277517 33.794422 
L 193.277517 47.234999 
L 194.424643 47.234999 
L 194.424643 35.944915 
L 195.57177 35.944915 
L 195.57177 40.066692 
L 196.718896 40.066692 
L 196.718896 35.944915 
L 197.866022 35.944915 
L 197.866022 37.916199 
L 199.013148 37.916199 
L 199.013148 30.927099 
L 200.160274 30.927099 
L 200.160274 35.228084 
L 201.3074 35.228084 
L 201.3074 32.002345 
L 202.454527 32.002345 
L 202.454527 21.608299 
L 203.601653 21.608299 
L 203.601653 40.245899 
L 204.748779 40.245899 
L 204.748779 46.338961 
L 205.895905 46.338961 
L 205.895905 45.980546 
L 208.190157 45.980546 
L 208.190157 37.916199 
L 209.337284 37.916199 
L 209.337284 25.550868 
L 210.48441 25.550868 
L 210.48441 32.002345 
L 211.631536 32.002345 
L 211.631536 40.783522 
L 212.778662 40.783522 
L 212.778662 33.077591 
L 213.925788 33.077591 
L 213.925788 39.887484 
L 215.072914 39.887484 
L 215.072914 32.539968 
L 216.220041 32.539968 
L 216.220041 40.245899 
L 217.367167 40.245899 
L 217.367167 37.378576 
L 218.514293 37.378576 
L 218.514293 43.650845 
L 219.661419 43.650845 
L 219.661419 34.332045 
L 220.808545 34.332045 
L 220.808545 40.425107 
L 221.955671 40.425107 
L 221.955671 33.794422 
L 223.102798 33.794422 
L 223.102798 48.489453 
L 224.249924 48.489453 
L 224.249924 32.360761 
L 225.39705 32.360761 
L 225.39705 33.436007 
L 226.544176 33.436007 
L 226.544176 38.812238 
L 227.691302 38.812238 
L 227.691302 41.141938 
L 228.838428 41.141938 
L 228.838428 31.64393 
L 229.985555 31.64393 
L 229.985555 47.95183 
L 231.132681 47.95183 
L 231.132681 27.70136 
L 232.279807 27.70136 
L 232.279807 34.511253 
L 233.426933 34.511253 
L 233.426933 31.823137 
L 234.574059 31.823137 
L 234.574059 32.360761 
L 235.721185 32.360761 
L 235.721185 38.274615 
L 236.868312 38.274615 
L 236.868312 36.661745 
L 238.015438 36.661745 
L 238.015438 34.332045 
L 239.162564 34.332045 
L 239.162564 32.539968 
L 240.30969 32.539968 
L 240.30969 38.274615 
L 241.456816 38.274615 
L 241.456816 34.511253 
L 242.603942 34.511253 
L 242.603942 37.736991 
L 243.751069 37.736991 
L 243.751069 36.124122 
L 244.898195 36.124122 
L 244.898195 33.794422 
L 246.045321 33.794422 
L 246.045321 18.561768 
L 247.192447 18.561768 
L 247.192447 44.546884 
L 248.339573 44.546884 
L 248.339573 47.772622 
L 249.486699 47.772622 
L 249.486699 34.152838 
L 250.633826 34.152838 
L 250.633826 41.679561 
L 251.780952 41.679561 
L 251.780952 32.181553 
L 252.928078 32.181553 
L 252.928078 56.733007 
L 254.075204 56.733007 
L 254.075204 38.274615 
L 255.22233 38.274615 
L 255.22233 36.124122 
L 256.369456 36.124122 
L 256.369456 39.887484 
L 257.516583 39.887484 
L 257.516583 38.991445 
L 258.663709 38.991445 
L 258.663709 47.414207 
L 259.810835 47.414207 
L 259.810835 38.63303 
L 260.957961 38.63303 
L 260.957961 38.991445 
L 262.105087 38.991445 
L 262.105087 40.96273 
L 263.252213 40.96273 
L 263.252213 38.812238 
L 264.39934 38.812238 
L 264.39934 41.321145 
L 265.546466 41.321145 
L 265.546466 40.425107 
L 266.693592 40.425107 
L 266.693592 34.511253 
L 267.840718 34.511253 
L 267.840718 52.969646 
L 268.987844 52.969646 
L 268.987844 41.679561 
L 270.13497 41.679561 
L 270.13497 58.704292 
L 271.282097 58.704292 
L 271.282097 75.908231 
L 272.429223 75.908231 
L 272.429223 84.689408 
L 273.576349 84.689408 
L 273.576349 87.377523 
L 274.723475 87.377523 
L 274.723475 90.961677 
L 275.870601 90.961677 
L 275.870601 92.932962 
L 277.017727 92.932962 
L 277.017727 112.825016 
L 278.164854 112.825016 
L 278.164854 116.229963 
L 279.31198 116.229963 
L 279.31198 118.73887 
L 280.459106 118.73887 
L 280.459106 125.548763 
L 281.606232 125.548763 
L 281.606232 139.706171 
L 282.753358 139.706171 
L 282.753358 146.695271 
L 283.900484 146.695271 
L 283.900484 150.63784 
L 285.047611 150.63784 
L 285.047611 156.014071 
L 286.194737 156.014071 
L 286.194737 158.343771 
L 287.341863 158.343771 
L 287.341863 160.315056 
L 288.488989 160.315056 
L 288.488989 166.766533 
L 289.636115 166.766533 
L 289.636115 173.21801 
L 290.783241 173.21801 
L 290.783241 180.027902 
L 291.930368 180.027902 
L 291.930368 178.056618 
L 293.077494 178.056618 
L 293.077494 180.923941 
L 294.22462 180.923941 
L 294.22462 191.676403 
L 295.371746 191.676403 
L 295.371746 187.733833 
L 296.518872 187.733833 
L 296.518872 192.751649 
L 297.665998 192.751649 
L 297.665998 195.618972 
L 298.813125 195.618972 
L 298.813125 197.411049 
L 299.960251 197.411049 
L 299.960251 202.608072 
L 301.107377 202.608072 
L 301.107377 202.78728 
L 302.254503 202.78728 
L 302.254503 210.134795 
L 303.401629 210.134795 
L 303.401629 208.880342 
L 304.548755 208.880342 
L 304.548755 211.210042 
L 305.695882 211.210042 
L 305.695882 210.493211 
L 306.843008 210.493211 
L 306.843008 213.539742 
L 307.990134 213.539742 
L 307.990134 214.614988 
L 309.13726 214.614988 
L 309.13726 219.812011 
L 310.284386 219.812011 
L 310.284386 222.858542 
L 311.431512 222.858542 
L 311.431512 221.066465 
L 312.578639 221.066465 
L 312.578639 222.320919 
L 313.725765 222.320919 
L 313.725765 222.858542 
L 314.872891 222.858542 
L 314.872891 223.216957 
L 316.020017 223.216957 
L 316.020017 224.829827 
L 317.167143 224.829827 
L 317.167143 229.847642 
L 318.314269 229.847642 
L 318.314269 227.338734 
L 319.461396 227.338734 
L 319.461396 230.564473 
L 320.608522 230.564473 
L 320.608522 229.847642 
L 321.755648 229.847642 
L 321.755648 230.922888 
L 322.902774 230.922888 
L 322.902774 228.41398 
L 324.0499 228.41398 
L 324.0499 231.460511 
L 325.197026 231.460511 
L 325.197026 232.35655 
L 326.344153 232.35655 
L 326.344153 230.564473 
L 327.491279 230.564473 
L 327.491279 235.223873 
L 328.638405 235.223873 
L 328.638405 234.507042 
L 329.785531 234.507042 
L 329.785531 235.761496 
L 330.932657 235.761496 
L 330.932657 234.865458 
L 332.079783 234.865458 
L 332.079783 236.299119 
L 333.22691 236.299119 
L 333.22691 235.044665 
L 334.374036 235.044665 
L 334.374036 236.836742 
L 335.521162 236.836742 
L 335.521162 236.299119 
L 336.668288 236.299119 
L 336.668288 238.091196 
L 337.815414 238.091196 
L 337.815414 237.911988 
L 338.96254 237.911988 
L 338.96254 237.732781 
L 340.109667 237.732781 
L 340.109667 240.779312 
L 341.256793 240.779312 
L 341.256793 239.524858 
L 342.403919 239.524858 
L 342.403919 237.732781 
L 343.551045 237.732781 
L 343.551045 240.779312 
L 344.698171 240.779312 
L 344.698171 238.449611 
L 345.845297 238.449611 
L 345.845297 239.524858 
L 346.992424 239.524858 
L 346.992424 241.137727 
L 348.13955 241.137727 
L 348.13955 241.854558 
L 349.286676 241.854558 
L 349.286676 240.600104 
L 350.433802 240.600104 
L 350.433802 240.062481 
L 351.580928 240.062481 
L 351.580928 241.67535 
L 352.728054 241.67535 
L 352.728054 241.854558 
L 353.875181 241.854558 
L 353.875181 243.109012 
L 355.022307 243.109012 
L 355.022307 242.750596 
L 356.169433 242.750596 
L 356.169433 242.929804 
L 357.316559 242.929804 
L 357.316559 243.288219 
L 358.463685 243.288219 
L 358.463685 243.109012 
L 359.610811 243.109012 
L 359.610811 244.184258 
L 360.757938 244.184258 
L 360.757938 243.646635 
L 361.905064 243.646635 
L 361.905064 242.929804 
L 363.05219 242.929804 
L 363.05219 243.825842 
L 364.199316 243.825842 
L 364.199316 244.721881 
L 365.346442 244.721881 
L 365.346442 243.825842 
L 366.493568 243.825842 
L 366.493568 242.750596 
L 367.640695 242.750596 
L 367.640695 243.646635 
L 368.787821 243.646635 
L 368.787821 244.184258 
L 369.934947 244.184258 
L 369.934947 244.542673 
L 371.082073 244.542673 
L 371.082073 245.080296 
L 372.229199 245.080296 
L 372.229199 244.542673 
L 373.376325 244.542673 
L 373.376325 244.363465 
L 375.670578 244.363465 
L 375.670578 244.901089 
L 376.817704 244.901089 
L 376.817704 243.825842 
L 377.96483 243.825842 
L 377.96483 244.901089 
L 379.111956 244.901089 
L 379.111956 245.259504 
L 380.259082 245.259504 
L 380.259082 244.721881 
L 381.406209 244.721881 
L 381.406209 244.00505 
L 382.553335 244.00505 
L 382.553335 245.259504 
L 383.700461 245.259504 
L 383.700461 244.901089 
L 384.847587 244.901089 
L 384.847587 245.080296 
L 387.141839 245.080296 
L 387.141839 244.901089 
L 388.288966 244.901089 
L 388.288966 245.259504 
L 389.436092 245.259504 
L 389.436092 245.080296 
L 390.583218 245.080296 
L 390.583218 245.438712 
L 391.730344 245.438712 
L 391.730344 245.259504 
L 392.87747 245.259504 
L 392.87747 245.797127 
L 394.024596 245.797127 
L 394.024596 244.901089 
L 396.318849 244.901089 
L 396.318849 245.259504 
L 397.465975 245.259504 
L 397.465975 245.797127 
L 400.907353 245.797127 
L 400.907353 245.438712 
L 402.05448 245.438712 
L 402.05448 245.617919 
L 403.201606 245.617919 
L 403.201606 245.438712 
L 404.348732 245.438712 
L 404.348732 245.259504 
L 405.495858 245.259504 
L 405.495858 245.617919 
L 406.642984 245.617919 
L 406.642984 244.901089 
L 407.79011 244.901089 
L 407.79011 245.617919 
L 411.231489 245.617919 
L 411.231489 245.438712 
L 412.378615 245.438712 
L 412.378615 245.617919 
L 413.525741 245.617919 
L 413.525741 245.259504 
L 414.672867 245.259504 
L 414.672867 245.259504 
" clip-path="url(#pe27dd94ca4)" style="fill: none; stroke: #1f77b4; stroke-width: 1.5; stroke-linecap: square"/>
   </g>
  </g>
  <g id="axes_2">
   <g id="patch_7">
    <path d="M 486.647885 257.158895 
L 865.19952 257.158895 
L 865.19952 7.2 
L 486.647885 7.2 
z
" style="fill: #ffffff"/>
   </g>
   <g id="matplotlib.axis_3">
    <g id="xtick_7">
     <g id="line2d_15">
      <g>
       <use xlink:href="#m09ae86e243" x="500.369571" y="257.158895" style="stroke: #000000; stroke-width: 0.8"/>
      </g>
     </g>
     <g id="text_16">
      <!-- 0.0 -->
      <g transform="translate(492.418009 271.757332) scale(0.1 -0.1)">
       <defs>
        <path id="DejaVuSans-2e" d="M 684 794 
L 1344 794 
L 1344 0 
L 684 0 
L 684 794 
z
" transform="scale(0.015625)"/>
       </defs>
       <use xlink:href="#DejaVuSans-30"/>
       <use xlink:href="#DejaVuSans-2e" transform="translate(63.623047 0)"/>
       <use xlink:href="#DejaVuSans-30" transform="translate(95.410156 0)"/>
      </g>
     </g>
    </g>
    <g id="xtick_8">
     <g id="line2d_16">
      <g>
       <use xlink:href="#m09ae86e243" x="544.260229" y="257.158895" style="stroke: #000000; stroke-width: 0.8"/>
      </g>
     </g>
     <g id="text_17">
      <!-- 2.5 -->
      <g transform="translate(536.308666 271.757332) scale(0.1 -0.1)">
       <use xlink:href="#DejaVuSans-32"/>
       <use xlink:href="#DejaVuSans-2e" transform="translate(63.623047 0)"/>
       <use xlink:href="#DejaVuSans-35" transform="translate(95.410156 0)"/>
      </g>
     </g>
    </g>
    <g id="xtick_9">
     <g id="line2d_17">
      <g>
       <use xlink:href="#m09ae86e243" x="588.150887" y="257.158895" style="stroke: #000000; stroke-width: 0.8"/>
      </g>
     </g>
     <g id="text_18">
      <!-- 5.0 -->
      <g transform="translate(580.199324 271.757332) scale(0.1 -0.1)">
       <use xlink:href="#DejaVuSans-35"/>
       <use xlink:href="#DejaVuSans-2e" transform="translate(63.623047 0)"/>
       <use xlink:href="#DejaVuSans-30" transform="translate(95.410156 0)"/>
      </g>
     </g>
    </g>
    <g id="xtick_10">
     <g id="line2d_18">
      <g>
       <use xlink:href="#m09ae86e243" x="632.041544" y="257.158895" style="stroke: #000000; stroke-width: 0.8"/>
      </g>
     </g>
     <g id="text_19">
      <!-- 7.5 -->
      <g transform="translate(624.089982 271.757332) scale(0.1 -0.1)">
       <defs>
        <path id="DejaVuSans-37" d="M 525 4666 
L 3525 4666 
L 3525 4397 
L 1831 0 
L 1172 0 
L 2766 4134 
L 525 4134 
L 525 4666 
z
" transform="scale(0.015625)"/>
       </defs>
       <use xlink:href="#DejaVuSans-37"/>
       <use xlink:href="#DejaVuSans-2e" transform="translate(63.623047 0)"/>
       <use xlink:href="#DejaVuSans-35" transform="translate(95.410156 0)"/>
      </g>
     </g>
    </g>
    <g id="xtick_11">
     <g id="line2d_19">
      <g>
       <use xlink:href="#m09ae86e243" x="675.932202" y="257.158895" style="stroke: #000000; stroke-width: 0.8"/>
      </g>
     </g>
     <g id="text_20">
      <!-- 10.0 -->
      <g transform="translate(664.79939 271.757332) scale(0.1 -0.1)">
       <use xlink:href="#DejaVuSans-31"/>
       <use xlink:href="#DejaVuSans-30" transform="translate(63.623047 0)"/>
       <use xlink:href="#DejaVuSans-2e" transform="translate(127.246094 0)"/>
       <use xlink:href="#DejaVuSans-30" transform="translate(159.033203 0)"/>
      </g>
     </g>
    </g>
    <g id="xtick_12">
     <g id="line2d_20">
      <g>
       <use xlink:href="#m09ae86e243" x="719.82286" y="257.158895" style="stroke: #000000; stroke-width: 0.8"/>
      </g>
     </g>
     <g id="text_21">
      <!-- 12.5 -->
      <g transform="translate(708.690047 271.757332) scale(0.1 -0.1)">
       <use xlink:href="#DejaVuSans-31"/>
       <use xlink:href="#DejaVuSans-32" transform="translate(63.623047 0)"/>
       <use xlink:href="#DejaVuSans-2e" transform="translate(127.246094 0)"/>
       <use xlink:href="#DejaVuSans-35" transform="translate(159.033203 0)"/>
      </g>
     </g>
    </g>
    <g id="xtick_13">
     <g id="line2d_21">
      <g>
       <use xlink:href="#m09ae86e243" x="763.713518" y="257.158895" style="stroke: #000000; stroke-width: 0.8"/>
      </g>
     </g>
     <g id="text_22">
      <!-- 15.0 -->
      <g transform="translate(752.580705 271.757332) scale(0.1 -0.1)">
       <use xlink:href="#DejaVuSans-31"/>
       <use xlink:href="#DejaVuSans-35" transform="translate(63.623047 0)"/>
       <use xlink:href="#DejaVuSans-2e" transform="translate(127.246094 0)"/>
       <use xlink:href="#DejaVuSans-30" transform="translate(159.033203 0)"/>
      </g>
     </g>
    </g>
    <g id="xtick_14">
     <g id="line2d_22">
      <g>
       <use xlink:href="#m09ae86e243" x="807.604175" y="257.158895" style="stroke: #000000; stroke-width: 0.8"/>
      </g>
     </g>
     <g id="text_23">
      <!-- 17.5 -->
      <g transform="translate(796.471363 271.757332) scale(0.1 -0.1)">
       <use xlink:href="#DejaVuSans-31"/>
       <use xlink:href="#DejaVuSans-37" transform="translate(63.623047 0)"/>
       <use xlink:href="#DejaVuSans-2e" transform="translate(127.246094 0)"/>
       <use xlink:href="#DejaVuSans-35" transform="translate(159.033203 0)"/>
      </g>
     </g>
    </g>
    <g id="xtick_15">
     <g id="line2d_23">
      <g>
       <use xlink:href="#m09ae86e243" x="851.494833" y="257.158895" style="stroke: #000000; stroke-width: 0.8"/>
      </g>
     </g>
     <g id="text_24">
      <!-- 20.0 -->
      <g transform="translate(840.362021 271.757332) scale(0.1 -0.1)">
       <use xlink:href="#DejaVuSans-32"/>
       <use xlink:href="#DejaVuSans-30" transform="translate(63.623047 0)"/>
       <use xlink:href="#DejaVuSans-2e" transform="translate(127.246094 0)"/>
       <use xlink:href="#DejaVuSans-30" transform="translate(159.033203 0)"/>
      </g>
     </g>
    </g>
    <g id="text_25">
     <!-- wavelength [Å] -->
     <g transform="translate(637.886202 287.119832) scale(0.1 -0.1)">
      <defs>
       <path id="DejaVuSans-77" d="M 269 3500 
L 844 3500 
L 1563 769 
L 2278 3500 
L 2956 3500 
L 3675 769 
L 4391 3500 
L 4966 3500 
L 4050 0 
L 3372 0 
L 2619 2869 
L 1863 0 
L 1184 0 
L 269 3500 
z
" transform="scale(0.015625)"/>
       <path id="DejaVuSans-61" d="M 2194 1759 
Q 1497 1759 1228 1600 
Q 959 1441 959 1056 
Q 959 750 1161 570 
Q 1363 391 1709 391 
Q 2188 391 2477 730 
Q 2766 1069 2766 1631 
L 2766 1759 
L 2194 1759 
z
M 3341 1997 
L 3341 0 
L 2766 0 
L 2766 531 
Q 2569 213 2275 61 
Q 1981 -91 1556 -91 
Q 1019 -91 701 211 
Q 384 513 384 1019 
Q 384 1609 779 1909 
Q 1175 2209 1959 2209 
L 2766 2209 
L 2766 2266 
Q 2766 2663 2505 2880 
Q 2244 3097 1772 3097 
Q 1472 3097 1187 3025 
Q 903 2953 641 2809 
L 641 3341 
Q 956 3463 1253 3523 
Q 1550 3584 1831 3584 
Q 2591 3584 2966 3190 
Q 3341 2797 3341 1997 
z
" transform="scale(0.015625)"/>
       <path id="DejaVuSans-76" d="M 191 3500 
L 800 3500 
L 1894 563 
L 2988 3500 
L 3597 3500 
L 2284 0 
L 1503 0 
L 191 3500 
z
" transform="scale(0.015625)"/>
       <path id="DejaVuSans-6c" d="M 603 4863 
L 1178 4863 
L 1178 0 
L 603 0 
L 603 4863 
z
" transform="scale(0.015625)"/>
       <path id="DejaVuSans-67" d="M 2906 1791 
Q 2906 2416 2648 2759 
Q 2391 3103 1925 3103 
Q 1463 3103 1205 2759 
Q 947 2416 947 1791 
Q 947 1169 1205 825 
Q 1463 481 1925 481 
Q 2391 481 2648 825 
Q 2906 1169 2906 1791 
z
M 3481 434 
Q 3481 -459 3084 -895 
Q 2688 -1331 1869 -1331 
Q 1566 -1331 1297 -1286 
Q 1028 -1241 775 -1147 
L 775 -588 
Q 1028 -725 1275 -790 
Q 1522 -856 1778 -856 
Q 2344 -856 2625 -561 
Q 2906 -266 2906 331 
L 2906 616 
Q 2728 306 2450 153 
Q 2172 0 1784 0 
Q 1141 0 747 490 
Q 353 981 353 1791 
Q 353 2603 747 3093 
Q 1141 3584 1784 3584 
Q 2172 3584 2450 3431 
Q 2728 3278 2906 2969 
L 2906 3500 
L 3481 3500 
L 3481 434 
z
" transform="scale(0.015625)"/>
       <path id="DejaVuSans-68" d="M 3513 2113 
L 3513 0 
L 2938 0 
L 2938 2094 
Q 2938 2591 2744 2837 
Q 2550 3084 2163 3084 
Q 1697 3084 1428 2787 
Q 1159 2491 1159 1978 
L 1159 0 
L 581 0 
L 581 4863 
L 1159 4863 
L 1159 2956 
Q 1366 3272 1645 3428 
Q 1925 3584 2291 3584 
Q 2894 3584 3203 3211 
Q 3513 2838 3513 2113 
z
" transform="scale(0.015625)"/>
       <path id="DejaVuSans-c5" d="M 2663 5081 
Q 2663 5278 2523 5417 
Q 2384 5556 2188 5556 
Q 1988 5556 1852 5420 
Q 1716 5284 1716 5081 
Q 1716 4884 1853 4746 
Q 1991 4609 2188 4609 
Q 2384 4609 2523 4746 
Q 2663 4884 2663 5081 
z
M 2188 4044 
L 1338 1722 
L 3041 1722 
L 2188 4044 
z
M 1716 4366 
Q 1525 4494 1428 4673 
Q 1331 4853 1331 5081 
Q 1331 5441 1579 5691 
Q 1828 5941 2188 5941 
Q 2544 5941 2795 5689 
Q 3047 5438 3047 5081 
Q 3047 4863 2948 4678 
Q 2850 4494 2663 4366 
L 4325 0 
L 3669 0 
L 3244 1197 
L 1141 1197 
L 716 0 
L 50 0 
L 1716 4366 
z
" transform="scale(0.015625)"/>
      </defs>
      <use xlink:href="#DejaVuSans-77"/>
      <use xlink:href="#DejaVuSans-61" transform="translate(81.787109 0)"/>
      <use xlink:href="#DejaVuSans-76" transform="translate(143.066406 0)"/>
      <use xlink:href="#DejaVuSans-65" transform="translate(202.246094 0)"/>
      <use xlink:href="#DejaVuSans-6c" transform="translate(263.769531 0)"/>
      <use xlink:href="#DejaVuSans-65" transform="translate(291.552734 0)"/>
      <use xlink:href="#DejaVuSans-6e" transform="translate(353.076172 0)"/>
      <use xlink:href="#DejaVuSans-67" transform="translate(416.455078 0)"/>
      <use xlink:href="#DejaVuSans-74" transform="translate(479.931641 0)"/>
      <use xlink:href="#DejaVuSans-68" transform="translate(519.140625 0)"/>
      <use xlink:href="#DejaVuSans-20" transform="translate(582.519531 0)"/>
      <use xlink:href="#DejaVuSans-5b" transform="translate(614.306641 0)"/>
      <use xlink:href="#DejaVuSans-c5" transform="translate(653.320312 0)"/>
      <use xlink:href="#DejaVuSans-5d" transform="translate(721.728516 0)"/>
     </g>
    </g>
   </g>
   <g id="matplotlib.axis_4">
    <g id="ytick_8">
     <g id="line2d_24">
      <g>
       <use xlink:href="#m55e17ff00e" x="486.647885" y="245.797127" style="stroke: #000000; stroke-width: 0.8"/>
      </g>
     </g>
     <g id="text_26">
      <!-- 0 -->
      <g transform="translate(473.285385 249.596346) scale(0.1 -0.1)">
       <use xlink:href="#DejaVuSans-30"/>
      </g>
     </g>
    </g>
    <g id="ytick_9">
     <g id="line2d_25">
      <g>
       <use xlink:href="#m55e17ff00e" x="486.647885" y="193.474917" style="stroke: #000000; stroke-width: 0.8"/>
      </g>
     </g>
     <g id="text_27">
      <!-- 1000 -->
      <g transform="translate(454.197885 197.274136) scale(0.1 -0.1)">
       <use xlink:href="#DejaVuSans-31"/>
       <use xlink:href="#DejaVuSans-30" transform="translate(63.623047 0)"/>
       <use xlink:href="#DejaVuSans-30" transform="translate(127.246094 0)"/>
       <use xlink:href="#DejaVuSans-30" transform="translate(190.869141 0)"/>
      </g>
     </g>
    </g>
    <g id="ytick_10">
     <g id="line2d_26">
      <g>
       <use xlink:href="#m55e17ff00e" x="486.647885" y="141.152707" style="stroke: #000000; stroke-width: 0.8"/>
      </g>
     </g>
     <g id="text_28">
      <!-- 2000 -->
      <g transform="translate(454.197885 144.951925) scale(0.1 -0.1)">
       <use xlink:href="#DejaVuSans-32"/>
       <use xlink:href="#DejaVuSans-30" transform="translate(63.623047 0)"/>
       <use xlink:href="#DejaVuSans-30" transform="translate(127.246094 0)"/>
       <use xlink:href="#DejaVuSans-30" transform="translate(190.869141 0)"/>
      </g>
     </g>
    </g>
    <g id="ytick_11">
     <g id="line2d_27">
      <g>
       <use xlink:href="#m55e17ff00e" x="486.647885" y="88.830496" style="stroke: #000000; stroke-width: 0.8"/>
      </g>
     </g>
     <g id="text_29">
      <!-- 3000 -->
      <g transform="translate(454.197885 92.629715) scale(0.1 -0.1)">
       <use xlink:href="#DejaVuSans-33"/>
       <use xlink:href="#DejaVuSans-30" transform="translate(63.623047 0)"/>
       <use xlink:href="#DejaVuSans-30" transform="translate(127.246094 0)"/>
       <use xlink:href="#DejaVuSans-30" transform="translate(190.869141 0)"/>
      </g>
     </g>
    </g>
    <g id="ytick_12">
     <g id="line2d_28">
      <g>
       <use xlink:href="#m55e17ff00e" x="486.647885" y="36.508286" style="stroke: #000000; stroke-width: 0.8"/>
      </g>
     </g>
     <g id="text_30">
      <!-- 4000 -->
      <g transform="translate(454.197885 40.307505) scale(0.1 -0.1)">
       <use xlink:href="#DejaVuSans-34"/>
       <use xlink:href="#DejaVuSans-30" transform="translate(63.623047 0)"/>
       <use xlink:href="#DejaVuSans-30" transform="translate(127.246094 0)"/>
       <use xlink:href="#DejaVuSans-30" transform="translate(190.869141 0)"/>
      </g>
     </g>
    </g>
    <g id="text_31">
     <!-- [counts] -->
     <g transform="translate(448.118197 152.791947) rotate(-90) scale(0.1 -0.1)">
      <use xlink:href="#DejaVuSans-5b"/>
      <use xlink:href="#DejaVuSans-63" transform="translate(39.013672 0)"/>
      <use xlink:href="#DejaVuSans-6f" transform="translate(93.994141 0)"/>
      <use xlink:href="#DejaVuSans-75" transform="translate(155.175781 0)"/>
      <use xlink:href="#DejaVuSans-6e" transform="translate(218.554688 0)"/>
      <use xlink:href="#DejaVuSans-74" transform="translate(281.933594 0)"/>
      <use xlink:href="#DejaVuSans-73" transform="translate(321.142578 0)"/>
      <use xlink:href="#DejaVuSans-5d" transform="translate(373.242188 0)"/>
     </g>
    </g>
   </g>
   <g id="patch_8">
    <path d="M 486.647885 257.158895 
L 486.647885 7.2 
" style="fill: none; stroke: #000000; stroke-width: 0.8; stroke-linejoin: miter; stroke-linecap: square"/>
   </g>
   <g id="patch_9">
    <path d="M 865.19952 257.158895 
L 865.19952 7.2 
" style="fill: none; stroke: #000000; stroke-width: 0.8; stroke-linejoin: miter; stroke-linecap: square"/>
   </g>
   <g id="patch_10">
    <path d="M 486.647885 257.158895 
L 865.19952 257.158895 
" style="fill: none; stroke: #000000; stroke-width: 0.8; stroke-linejoin: miter; stroke-linecap: square"/>
   </g>
   <g id="patch_11">
    <path d="M 486.647885 7.2 
L 865.19952 7.2 
" style="fill: none; stroke: #000000; stroke-width: 0.8; stroke-linejoin: miter; stroke-linecap: square"/>
   </g>
   <g id="line2d_29">
    <path d="M 503.854777 154.547192 
L 505.001904 154.547192 
L 505.001904 148.163883 
L 506.14903 148.163883 
L 506.14903 137.804085 
L 507.296156 137.804085 
L 507.296156 133.932242 
L 508.443282 133.932242 
L 508.443282 145.652417 
L 509.590408 145.652417 
L 509.590408 155.122737 
L 510.737534 155.122737 
L 510.737534 149.001038 
L 511.884661 149.001038 
L 511.884661 128.700021 
L 513.031787 128.700021 
L 513.031787 113.264968 
L 514.178913 113.264968 
L 514.178913 81.191454 
L 515.326039 81.191454 
L 515.326039 59.425414 
L 516.473165 59.425414 
L 516.473165 43.519462 
L 517.620291 43.519462 
L 517.620291 30.386587 
L 518.767418 30.386587 
L 518.767418 24.683467 
L 519.914544 24.683467 
L 519.914544 18.561768 
L 521.06167 18.561768 
L 521.06167 19.189634 
L 522.208796 19.189634 
L 522.208796 35.932742 
L 523.355922 35.932742 
L 523.355922 43.205529 
L 524.503048 43.205529 
L 524.503048 47.443628 
L 525.650175 47.443628 
L 525.650175 68.058579 
L 526.797301 68.058579 
L 526.797301 73.970989 
L 527.944427 73.970989 
L 527.944427 77.31961 
L 529.091553 77.31961 
L 529.091553 93.17324 
L 530.238679 93.17324 
L 530.238679 90.086229 
L 531.385805 90.086229 
L 531.385805 96.469539 
L 532.532932 96.469539 
L 532.532932 91.708218 
L 533.680058 91.708218 
L 533.680058 95.841672 
L 534.827184 95.841672 
L 534.827184 93.330206 
L 535.97431 93.330206 
L 535.97431 92.074473 
L 537.121436 92.074473 
L 537.121436 87.208508 
L 538.268562 87.208508 
L 538.268562 88.516563 
L 539.415689 88.516563 
L 539.415689 71.616489 
L 540.562815 71.616489 
L 540.562815 65.076213 
L 541.709941 65.076213 
L 541.709941 56.600015 
L 542.857067 56.600015 
L 542.857067 50.687605 
L 544.004193 50.687605 
L 544.004193 36.926864 
L 545.151319 36.926864 
L 545.151319 35.514164 
L 546.298446 35.514164 
L 546.298446 38.653497 
L 547.445572 38.653497 
L 547.445572 56.390726 
L 548.592698 56.390726 
L 548.592698 65.128535 
L 549.739824 65.128535 
L 549.739824 72.139711 
L 550.88695 72.139711 
L 550.88695 75.90691 
L 552.034076 75.90691 
L 552.034076 96.574183 
L 553.181203 96.574183 
L 553.181203 95.266128 
L 554.328329 95.266128 
L 554.328329 108.608292 
L 555.475455 108.608292 
L 555.475455 113.683546 
L 556.622581 113.683546 
L 556.622581 122.735289 
L 557.769707 122.735289 
L 557.769707 123.467799 
L 558.916833 123.467799 
L 558.916833 133.042764 
L 560.06396 133.042764 
L 560.06396 134.246175 
L 561.211086 134.246175 
L 561.211086 143.193273 
L 562.358212 143.193273 
L 562.358212 147.117439 
L 563.505338 147.117439 
L 563.505338 154.861126 
L 564.652464 154.861126 
L 564.652464 155.332026 
L 565.79959 155.332026 
L 565.79959 158.105103 
L 566.946717 158.105103 
L 566.946717 166.267367 
L 568.093843 166.267367 
L 568.093843 168.9358 
L 569.240969 168.9358 
L 569.240969 169.092767 
L 570.388095 169.092767 
L 570.388095 175.894654 
L 571.535221 175.894654 
L 571.535221 179.34792 
L 572.682347 179.34792 
L 572.682347 182.90583 
L 573.829474 182.90583 
L 573.829474 188.81824 
L 574.9766 188.81824 
L 574.9766 186.306774 
L 576.123726 186.306774 
L 576.123726 190.440229 
L 577.270852 190.440229 
L 577.270852 190.70184 
L 578.417978 190.70184 
L 578.417978 196.352638 
L 579.565104 196.352638 
L 579.565104 200.276804 
L 580.712231 200.276804 
L 580.712231 197.869982 
L 581.859357 197.869982 
L 581.859357 201.009315 
L 583.006483 201.009315 
L 583.006483 204.514903 
L 584.153609 204.514903 
L 584.153609 205.61367 
L 585.300735 205.61367 
L 585.300735 207.654236 
L 586.447861 207.654236 
L 586.447861 209.328547 
L 587.594988 209.328547 
L 587.594988 211.212146 
L 588.742114 211.212146 
L 588.742114 212.886457 
L 589.88924 212.886457 
L 589.88924 214.927023 
L 591.036366 214.927023 
L 591.036366 215.08399 
L 592.183492 215.08399 
L 592.183492 217.281522 
L 593.330618 217.281522 
L 593.330618 218.066356 
L 594.477745 218.066356 
L 594.477745 217.595456 
L 595.624871 217.595456 
L 595.624871 219.426733 
L 596.771997 219.426733 
L 596.771997 221.571944 
L 597.919123 221.571944 
L 597.919123 220.525499 
L 599.066249 220.525499 
L 599.066249 224.920565 
L 600.213375 224.920565 
L 600.213375 225.391465 
L 602.507628 225.286821 
L 602.507628 225.600754 
L 603.654754 225.600754 
L 603.654754 226.908809 
L 604.80188 226.908809 
L 604.80188 226.594876 
L 605.949006 226.594876 
L 605.949006 226.437909 
L 607.096132 226.437909 
L 607.096132 228.58312 
L 608.243259 228.58312 
L 608.243259 230.362075 
L 609.390385 230.362075 
L 609.390385 229.629564 
L 610.537511 229.629564 
L 610.537511 230.780653 
L 611.684637 230.780653 
L 611.684637 230.937619 
L 612.831763 230.937619 
L 612.831763 229.99582 
L 613.978889 229.99582 
L 613.978889 233.55373 
L 615.126016 233.55373 
L 615.126016 232.873541 
L 616.273142 232.873541 
L 616.273142 233.55373 
L 617.420268 233.55373 
L 617.420268 232.559608 
L 618.567394 232.559608 
L 618.567394 235.280363 
L 619.71452 235.280363 
L 619.71452 234.233919 
L 620.861646 234.233919 
L 620.861646 234.49553 
L 622.008773 234.49553 
L 622.008773 234.704818 
L 623.155899 234.704818 
L 623.155899 237.844151 
L 624.303025 237.844151 
L 624.303025 234.861785 
L 625.450151 234.861785 
L 625.450151 235.803585 
L 626.597277 235.803585 
L 626.597277 236.012874 
L 628.89153 235.908229 
L 628.89153 237.477896 
L 630.038656 237.477896 
L 630.038656 237.11164 
L 631.185782 237.11164 
L 631.185782 238.419695 
L 632.332908 238.419695 
L 632.332908 238.105762 
L 634.62716 238.001118 
L 634.62716 239.675428 
L 635.774287 239.675428 
L 635.774287 239.047562 
L 636.921413 239.047562 
L 636.921413 239.780073 
L 638.068539 239.780073 
L 638.068539 238.733629 
L 639.215665 238.733629 
L 639.215665 240.407939 
L 640.362791 240.407939 
L 640.362791 239.256851 
L 641.509917 239.256851 
L 641.509917 240.564906 
L 642.657044 240.564906 
L 642.657044 240.721873 
L 643.80417 240.721873 
L 643.80417 240.303295 
L 644.951296 240.303295 
L 644.951296 241.14045 
L 646.098422 241.14045 
L 646.098422 241.506706 
L 647.245548 241.506706 
L 647.245548 240.407939 
L 648.392674 240.407939 
L 648.392674 240.721873 
L 649.539801 240.721873 
L 649.539801 240.564906 
L 650.686927 240.564906 
L 650.686927 241.192773 
L 651.834053 241.192773 
L 651.834053 241.454384 
L 652.981179 241.454384 
L 652.981179 241.663672 
L 654.128305 241.663672 
L 654.128305 241.454384 
L 655.275431 241.454384 
L 655.275431 241.192773 
L 656.422558 241.192773 
L 656.422558 241.768317 
L 657.569684 241.768317 
L 657.569684 241.559028 
L 658.71681 241.559028 
L 658.71681 242.239217 
L 659.863936 242.239217 
L 659.863936 242.971728 
L 661.011062 242.971728 
L 661.011062 241.506706 
L 662.158188 241.506706 
L 662.158188 242.396183 
L 663.305315 242.396183 
L 663.305315 241.245095 
L 664.452441 241.245095 
L 664.452441 242.186895 
L 666.746693 242.239217 
L 666.746693 243.02405 
L 667.893819 243.02405 
L 667.893819 242.029928 
L 669.040945 242.029928 
L 669.040945 241.715995 
L 670.188072 241.715995 
L 670.188072 243.337983 
L 671.335198 243.337983 
L 671.335198 243.076372 
L 672.482324 243.076372 
L 672.482324 243.285661 
L 673.62945 243.285661 
L 673.62945 242.971728 
L 674.776576 242.971728 
L 674.776576 243.547272 
L 678.217955 243.442628 
L 678.217955 243.337983 
L 679.365081 243.337983 
L 679.365081 243.547272 
L 680.512207 243.547272 
L 680.512207 243.861205 
L 681.659333 243.861205 
L 681.659333 243.49495 
L 683.953586 243.599594 
L 683.953586 243.96585 
L 685.100712 243.96585 
L 685.100712 243.337983 
L 686.247838 243.337983 
L 686.247838 243.49495 
L 687.394964 243.49495 
L 687.394964 244.227461 
L 688.54209 244.227461 
L 688.54209 244.070494 
L 689.689216 244.070494 
L 689.689216 243.704239 
L 690.836343 243.704239 
L 690.836343 243.547272 
L 691.983469 243.547272 
L 691.983469 244.175139 
L 693.130595 244.175139 
L 693.130595 244.489072 
L 694.277721 244.489072 
L 694.277721 244.332105 
L 695.424847 244.332105 
L 695.424847 244.593716 
L 696.571973 244.593716 
L 696.571973 244.070494 
L 697.7191 244.070494 
L 697.7191 243.861205 
L 698.866226 243.861205 
L 698.866226 244.279783 
L 700.013352 244.279783 
L 700.013352 244.070494 
L 701.160478 244.070494 
L 701.160478 244.227461 
L 702.307604 244.227461 
L 702.307604 244.384427 
L 704.601857 244.43675 
L 704.601857 244.750683 
L 706.896109 244.646038 
L 706.896109 244.332105 
L 708.043235 244.332105 
L 708.043235 244.489072 
L 710.337487 244.489072 
L 710.337487 244.279783 
L 711.484614 244.279783 
L 711.484614 244.070494 
L 712.63174 244.070494 
L 712.63174 244.489072 
L 713.778866 244.489072 
L 713.778866 244.698361 
L 714.925992 244.698361 
L 714.925992 244.541394 
L 717.220244 244.646038 
L 717.220244 245.116938 
L 718.367371 245.116938 
L 718.367371 244.541394 
L 719.514497 244.541394 
L 719.514497 244.907649 
L 720.661623 244.907649 
L 720.661623 244.646038 
L 721.808749 244.646038 
L 721.808749 244.803005 
L 726.397254 244.855327 
L 726.397254 245.012294 
L 727.54438 245.012294 
L 727.54438 245.221583 
L 728.691506 245.221583 
L 728.691506 244.698361 
L 729.838632 244.698361 
L 729.838632 245.012294 
L 732.132885 245.064616 
L 732.132885 245.221583 
L 733.280011 245.221583 
L 733.280011 244.959972 
L 734.427137 244.959972 
L 734.427137 244.750683 
L 735.574263 244.750683 
L 735.574263 245.012294 
L 736.721389 245.012294 
L 736.721389 245.273905 
L 737.868515 245.273905 
L 737.868515 245.116938 
L 740.162768 245.169261 
L 740.162768 244.959972 
L 741.309894 244.959972 
L 741.309894 244.750683 
L 742.45702 244.750683 
L 742.45702 245.169261 
L 749.339777 245.064616 
L 749.339777 245.430872 
L 750.486903 245.430872 
L 750.486903 245.221583 
L 755.075408 245.273905 
L 755.075408 245.012294 
L 756.222534 245.012294 
L 756.222534 245.273905 
L 757.36966 245.273905 
L 757.36966 245.430872 
L 766.54667 245.535516 
L 766.54667 245.169261 
L 767.693796 245.169261 
L 767.693796 245.483194 
L 773.429427 245.430872 
L 773.429427 245.64016 
L 774.576553 245.64016 
L 774.576553 245.169261 
L 776.870805 245.221583 
L 776.870805 245.483194 
L 778.017931 245.483194 
L 778.017931 245.221583 
L 779.165057 245.221583 
L 779.165057 245.378549 
L 780.312184 245.378549 
L 780.312184 245.535516 
L 784.900688 245.535516 
L 784.900688 245.273905 
L 786.047814 245.273905 
L 786.047814 245.483194 
L 789.489193 245.587838 
L 789.489193 245.326227 
L 790.636319 245.326227 
L 790.636319 245.744805 
L 792.930572 245.64016 
L 792.930572 245.430872 
L 795.224824 245.483194 
L 795.224824 245.587838 
L 805.548959 245.535516 
L 805.548959 245.430872 
L 806.696085 245.430872 
L 806.696085 245.587838 
L 815.873095 245.64016 
L 815.873095 245.744805 
L 822.755852 245.797127 
L 822.755852 245.587838 
L 827.344357 245.535516 
L 827.344357 245.744805 
L 830.785735 245.744805 
L 830.785735 245.483194 
L 831.932861 245.483194 
L 831.932861 245.797127 
L 835.37424 245.797127 
L 835.37424 245.587838 
L 836.521366 245.587838 
L 836.521366 245.744805 
L 837.668492 245.744805 
L 837.668492 245.587838 
L 838.815618 245.587838 
L 838.815618 245.744805 
L 839.962744 245.744805 
L 839.962744 245.587838 
L 843.404123 245.587838 
L 843.404123 245.744805 
L 846.845501 245.744805 
L 846.845501 245.587838 
L 847.992628 245.587838 
L 847.992628 245.587838 
" clip-path="url(#p18489663e0)" style="fill: none; stroke: #1f77b4; stroke-width: 1.5; stroke-linecap: square"/>
   </g>
  </g>
 </g>
 <defs>
  <clipPath id="pe27dd94ca4">
   <rect x="53.328125" y="7.2" width="378.551635" height="249.958895"/>
  </clipPath>
  <clipPath id="p18489663e0">
   <rect x="486.647885" y="7.2" width="378.551635" height="249.958895"/>
  </clipPath>
 </defs>
</svg>
