<?xml version="1.0" encoding="utf-8" standalone="no"?>
<!DOCTYPE svg PUBLIC "-//W3C//DTD SVG 1.1//EN"
  "http://www.w3.org/Graphics/SVG/1.1/DTD/svg11.dtd">
<svg xmlns:xlink="http://www.w3.org/1999/xlink" width="395.328125pt" height="266.51625pt" viewBox="0 0 395.328125 266.51625" xmlns="http://www.w3.org/2000/svg" version="1.1">
 <metadata>
  <rdf:RDF xmlns:dc="http://purl.org/dc/elements/1.1/" xmlns:cc="http://creativecommons.org/ns#" xmlns:rdf="http://www.w3.org/1999/02/22-rdf-syntax-ns#">
   <cc:Work>
    <dc:type rdf:resource="http://purl.org/dc/dcmitype/StillImage"/>
    <dc:date>2025-01-30T11:58:08.787970</dc:date>
    <dc:format>image/svg+xml</dc:format>
    <dc:creator>
     <cc:Agent>
      <dc:title>Matplotlib v3.10.0, https://matplotlib.org/</dc:title>
     </cc:Agent>
    </dc:creator>
   </cc:Work>
  </rdf:RDF>
 </metadata>
 <defs>
  <style type="text/css">*{stroke-linejoin: round; stroke-linecap: butt}</style>
 </defs>
 <g id="figure_1">
  <g id="patch_1">
   <path d="M 0 266.51625 
L 395.328125 266.51625 
L 395.328125 0 
L 0 0 
z
" style="fill: #ffffff"/>
  </g>
  <g id="axes_1">
   <g id="patch_2">
    <path d="M 53.328125 228.96 
L 388.128125 228.96 
L 388.128125 7.2 
L 53.328125 7.2 
z
" style="fill: #ffffff"/>
   </g>
   <g id="matplotlib.axis_1">
    <g id="xtick_1">
     <g id="line2d_1">
      <defs>
       <path id="me3c306b546" d="M 0 0 
L 0 3.5 
" style="stroke: #000000; stroke-width: 0.8"/>
      </defs>
      <g>
       <use xlink:href="#me3c306b546" x="59.296393" y="228.96" style="stroke: #000000; stroke-width: 0.8"/>
      </g>
     </g>
     <g id="text_1">
      <!-- 25000 -->
      <g transform="translate(43.390143 243.558437) scale(0.1 -0.1)">
       <defs>
        <path id="DejaVuSans-32" d="M 1228 531 
L 3431 531 
L 3431 0 
L 469 0 
L 469 531 
Q 828 903 1448 1529 
Q 2069 2156 2228 2338 
Q 2531 2678 2651 2914 
Q 2772 3150 2772 3378 
Q 2772 3750 2511 3984 
Q 2250 4219 1831 4219 
Q 1534 4219 1204 4116 
Q 875 4013 500 3803 
L 500 4441 
Q 881 4594 1212 4672 
Q 1544 4750 1819 4750 
Q 2544 4750 2975 4387 
Q 3406 4025 3406 3419 
Q 3406 3131 3298 2873 
Q 3191 2616 2906 2266 
Q 2828 2175 2409 1742 
Q 1991 1309 1228 531 
z
" transform="scale(0.015625)"/>
        <path id="DejaVuSans-35" d="M 691 4666 
L 3169 4666 
L 3169 4134 
L 1269 4134 
L 1269 2991 
Q 1406 3038 1543 3061 
Q 1681 3084 1819 3084 
Q 2600 3084 3056 2656 
Q 3513 2228 3513 1497 
Q 3513 744 3044 326 
Q 2575 -91 1722 -91 
Q 1428 -91 1123 -41 
Q 819 9 494 109 
L 494 744 
Q 775 591 1075 516 
Q 1375 441 1709 441 
Q 2250 441 2565 725 
Q 2881 1009 2881 1497 
Q 2881 1984 2565 2268 
Q 2250 2553 1709 2553 
Q 1456 2553 1204 2497 
Q 953 2441 691 2322 
L 691 4666 
z
" transform="scale(0.015625)"/>
        <path id="DejaVuSans-30" d="M 2034 4250 
Q 1547 4250 1301 3770 
Q 1056 3291 1056 2328 
Q 1056 1369 1301 889 
Q 1547 409 2034 409 
Q 2525 409 2770 889 
Q 3016 1369 3016 2328 
Q 3016 3291 2770 3770 
Q 2525 4250 2034 4250 
z
M 2034 4750 
Q 2819 4750 3233 4129 
Q 3647 3509 3647 2328 
Q 3647 1150 3233 529 
Q 2819 -91 2034 -91 
Q 1250 -91 836 529 
Q 422 1150 422 2328 
Q 422 3509 836 4129 
Q 1250 4750 2034 4750 
z
" transform="scale(0.015625)"/>
       </defs>
       <use xlink:href="#DejaVuSans-32"/>
       <use xlink:href="#DejaVuSans-35" transform="translate(63.623047 0)"/>
       <use xlink:href="#DejaVuSans-30" transform="translate(127.246094 0)"/>
       <use xlink:href="#DejaVuSans-30" transform="translate(190.869141 0)"/>
       <use xlink:href="#DejaVuSans-30" transform="translate(254.492188 0)"/>
      </g>
     </g>
    </g>
    <g id="xtick_2">
     <g id="line2d_2">
      <g>
       <use xlink:href="#me3c306b546" x="96.779599" y="228.96" style="stroke: #000000; stroke-width: 0.8"/>
      </g>
     </g>
     <g id="text_2">
      <!-- 50000 -->
      <g transform="translate(80.873349 243.558437) scale(0.1 -0.1)">
       <use xlink:href="#DejaVuSans-35"/>
       <use xlink:href="#DejaVuSans-30" transform="translate(63.623047 0)"/>
       <use xlink:href="#DejaVuSans-30" transform="translate(127.246094 0)"/>
       <use xlink:href="#DejaVuSans-30" transform="translate(190.869141 0)"/>
       <use xlink:href="#DejaVuSans-30" transform="translate(254.492188 0)"/>
      </g>
     </g>
    </g>
    <g id="xtick_3">
     <g id="line2d_3">
      <g>
       <use xlink:href="#me3c306b546" x="134.262806" y="228.96" style="stroke: #000000; stroke-width: 0.8"/>
      </g>
     </g>
     <g id="text_3">
      <!-- 75000 -->
      <g transform="translate(118.356556 243.558437) scale(0.1 -0.1)">
       <defs>
        <path id="DejaVuSans-37" d="M 525 4666 
L 3525 4666 
L 3525 4397 
L 1831 0 
L 1172 0 
L 2766 4134 
L 525 4134 
L 525 4666 
z
" transform="scale(0.015625)"/>
       </defs>
       <use xlink:href="#DejaVuSans-37"/>
       <use xlink:href="#DejaVuSans-35" transform="translate(63.623047 0)"/>
       <use xlink:href="#DejaVuSans-30" transform="translate(127.246094 0)"/>
       <use xlink:href="#DejaVuSans-30" transform="translate(190.869141 0)"/>
       <use xlink:href="#DejaVuSans-30" transform="translate(254.492188 0)"/>
      </g>
     </g>
    </g>
    <g id="xtick_4">
     <g id="line2d_4">
      <g>
       <use xlink:href="#me3c306b546" x="171.746012" y="228.96" style="stroke: #000000; stroke-width: 0.8"/>
      </g>
     </g>
     <g id="text_4">
      <!-- 100000 -->
      <g transform="translate(152.658512 243.558437) scale(0.1 -0.1)">
       <defs>
        <path id="DejaVuSans-31" d="M 794 531 
L 1825 531 
L 1825 4091 
L 703 3866 
L 703 4441 
L 1819 4666 
L 2450 4666 
L 2450 531 
L 3481 531 
L 3481 0 
L 794 0 
L 794 531 
z
" transform="scale(0.015625)"/>
       </defs>
       <use xlink:href="#DejaVuSans-31"/>
       <use xlink:href="#DejaVuSans-30" transform="translate(63.623047 0)"/>
       <use xlink:href="#DejaVuSans-30" transform="translate(127.246094 0)"/>
       <use xlink:href="#DejaVuSans-30" transform="translate(190.869141 0)"/>
       <use xlink:href="#DejaVuSans-30" transform="translate(254.492188 0)"/>
       <use xlink:href="#DejaVuSans-30" transform="translate(318.115234 0)"/>
      </g>
     </g>
    </g>
    <g id="xtick_5">
     <g id="line2d_5">
      <g>
       <use xlink:href="#me3c306b546" x="209.229219" y="228.96" style="stroke: #000000; stroke-width: 0.8"/>
      </g>
     </g>
     <g id="text_5">
      <!-- 125000 -->
      <g transform="translate(190.141719 243.558437) scale(0.1 -0.1)">
       <use xlink:href="#DejaVuSans-31"/>
       <use xlink:href="#DejaVuSans-32" transform="translate(63.623047 0)"/>
       <use xlink:href="#DejaVuSans-35" transform="translate(127.246094 0)"/>
       <use xlink:href="#DejaVuSans-30" transform="translate(190.869141 0)"/>
       <use xlink:href="#DejaVuSans-30" transform="translate(254.492188 0)"/>
       <use xlink:href="#DejaVuSans-30" transform="translate(318.115234 0)"/>
      </g>
     </g>
    </g>
    <g id="xtick_6">
     <g id="line2d_6">
      <g>
       <use xlink:href="#me3c306b546" x="246.712425" y="228.96" style="stroke: #000000; stroke-width: 0.8"/>
      </g>
     </g>
     <g id="text_6">
      <!-- 150000 -->
      <g transform="translate(227.624925 243.558437) scale(0.1 -0.1)">
       <use xlink:href="#DejaVuSans-31"/>
       <use xlink:href="#DejaVuSans-35" transform="translate(63.623047 0)"/>
       <use xlink:href="#DejaVuSans-30" transform="translate(127.246094 0)"/>
       <use xlink:href="#DejaVuSans-30" transform="translate(190.869141 0)"/>
       <use xlink:href="#DejaVuSans-30" transform="translate(254.492188 0)"/>
       <use xlink:href="#DejaVuSans-30" transform="translate(318.115234 0)"/>
      </g>
     </g>
    </g>
    <g id="xtick_7">
     <g id="line2d_7">
      <g>
       <use xlink:href="#me3c306b546" x="284.195632" y="228.96" style="stroke: #000000; stroke-width: 0.8"/>
      </g>
     </g>
     <g id="text_7">
      <!-- 175000 -->
      <g transform="translate(265.108132 243.558437) scale(0.1 -0.1)">
       <use xlink:href="#DejaVuSans-31"/>
       <use xlink:href="#DejaVuSans-37" transform="translate(63.623047 0)"/>
       <use xlink:href="#DejaVuSans-35" transform="translate(127.246094 0)"/>
       <use xlink:href="#DejaVuSans-30" transform="translate(190.869141 0)"/>
       <use xlink:href="#DejaVuSans-30" transform="translate(254.492188 0)"/>
       <use xlink:href="#DejaVuSans-30" transform="translate(318.115234 0)"/>
      </g>
     </g>
    </g>
    <g id="xtick_8">
     <g id="line2d_8">
      <g>
       <use xlink:href="#me3c306b546" x="321.678838" y="228.96" style="stroke: #000000; stroke-width: 0.8"/>
      </g>
     </g>
     <g id="text_8">
      <!-- 200000 -->
      <g transform="translate(302.591338 243.558437) scale(0.1 -0.1)">
       <use xlink:href="#DejaVuSans-32"/>
       <use xlink:href="#DejaVuSans-30" transform="translate(63.623047 0)"/>
       <use xlink:href="#DejaVuSans-30" transform="translate(127.246094 0)"/>
       <use xlink:href="#DejaVuSans-30" transform="translate(190.869141 0)"/>
       <use xlink:href="#DejaVuSans-30" transform="translate(254.492188 0)"/>
       <use xlink:href="#DejaVuSans-30" transform="translate(318.115234 0)"/>
      </g>
     </g>
    </g>
    <g id="xtick_9">
     <g id="line2d_9">
      <g>
       <use xlink:href="#me3c306b546" x="359.162045" y="228.96" style="stroke: #000000; stroke-width: 0.8"/>
      </g>
     </g>
     <g id="text_9">
      <!-- 225000 -->
      <g transform="translate(340.074545 243.558437) scale(0.1 -0.1)">
       <use xlink:href="#DejaVuSans-32"/>
       <use xlink:href="#DejaVuSans-32" transform="translate(63.623047 0)"/>
       <use xlink:href="#DejaVuSans-35" transform="translate(127.246094 0)"/>
       <use xlink:href="#DejaVuSans-30" transform="translate(190.869141 0)"/>
       <use xlink:href="#DejaVuSans-30" transform="translate(254.492188 0)"/>
       <use xlink:href="#DejaVuSans-30" transform="translate(318.115234 0)"/>
      </g>
     </g>
    </g>
    <g id="text_10">
     <!-- tof [µs] -->
     <g transform="translate(202.671875 257.236562) scale(0.1 -0.1)">
      <defs>
       <path id="DejaVuSans-74" d="M 1172 4494 
L 1172 3500 
L 2356 3500 
L 2356 3053 
L 1172 3053 
L 1172 1153 
Q 1172 725 1289 603 
Q 1406 481 1766 481 
L 2356 481 
L 2356 0 
L 1766 0 
Q 1100 0 847 248 
Q 594 497 594 1153 
L 594 3053 
L 172 3053 
L 172 3500 
L 594 3500 
L 594 4494 
L 1172 4494 
z
" transform="scale(0.015625)"/>
       <path id="DejaVuSans-6f" d="M 1959 3097 
Q 1497 3097 1228 2736 
Q 959 2375 959 1747 
Q 959 1119 1226 758 
Q 1494 397 1959 397 
Q 2419 397 2687 759 
Q 2956 1122 2956 1747 
Q 2956 2369 2687 2733 
Q 2419 3097 1959 3097 
z
M 1959 3584 
Q 2709 3584 3137 3096 
Q 3566 2609 3566 1747 
Q 3566 888 3137 398 
Q 2709 -91 1959 -91 
Q 1206 -91 779 398 
Q 353 888 353 1747 
Q 353 2609 779 3096 
Q 1206 3584 1959 3584 
z
" transform="scale(0.015625)"/>
       <path id="DejaVuSans-66" d="M 2375 4863 
L 2375 4384 
L 1825 4384 
Q 1516 4384 1395 4259 
Q 1275 4134 1275 3809 
L 1275 3500 
L 2222 3500 
L 2222 3053 
L 1275 3053 
L 1275 0 
L 697 0 
L 697 3053 
L 147 3053 
L 147 3500 
L 697 3500 
L 697 3744 
Q 697 4328 969 4595 
Q 1241 4863 1831 4863 
L 2375 4863 
z
" transform="scale(0.015625)"/>
       <path id="DejaVuSans-20" transform="scale(0.015625)"/>
       <path id="DejaVuSans-5b" d="M 550 4863 
L 1875 4863 
L 1875 4416 
L 1125 4416 
L 1125 -397 
L 1875 -397 
L 1875 -844 
L 550 -844 
L 550 4863 
z
" transform="scale(0.015625)"/>
       <path id="DejaVuSans-b5" d="M 544 -1331 
L 544 3500 
L 1119 3500 
L 1119 1325 
Q 1119 872 1334 640 
Q 1550 409 1972 409 
Q 2434 409 2667 671 
Q 2900 934 2900 1459 
L 2900 3500 
L 3475 3500 
L 3475 806 
Q 3475 619 3529 530 
Q 3584 441 3700 441 
Q 3728 441 3778 458 
Q 3828 475 3916 513 
L 3916 50 
Q 3788 -22 3673 -56 
Q 3559 -91 3450 -91 
Q 3234 -91 3106 31 
Q 2978 153 2931 403 
Q 2775 156 2548 32 
Q 2322 -91 2016 -91 
Q 1697 -91 1473 31 
Q 1250 153 1119 397 
L 1119 -1331 
L 544 -1331 
z
" transform="scale(0.015625)"/>
       <path id="DejaVuSans-73" d="M 2834 3397 
L 2834 2853 
Q 2591 2978 2328 3040 
Q 2066 3103 1784 3103 
Q 1356 3103 1142 2972 
Q 928 2841 928 2578 
Q 928 2378 1081 2264 
Q 1234 2150 1697 2047 
L 1894 2003 
Q 2506 1872 2764 1633 
Q 3022 1394 3022 966 
Q 3022 478 2636 193 
Q 2250 -91 1575 -91 
Q 1294 -91 989 -36 
Q 684 19 347 128 
L 347 722 
Q 666 556 975 473 
Q 1284 391 1588 391 
Q 1994 391 2212 530 
Q 2431 669 2431 922 
Q 2431 1156 2273 1281 
Q 2116 1406 1581 1522 
L 1381 1569 
Q 847 1681 609 1914 
Q 372 2147 372 2553 
Q 372 3047 722 3315 
Q 1072 3584 1716 3584 
Q 2034 3584 2315 3537 
Q 2597 3491 2834 3397 
z
" transform="scale(0.015625)"/>
       <path id="DejaVuSans-5d" d="M 1947 4863 
L 1947 -844 
L 622 -844 
L 622 -397 
L 1369 -397 
L 1369 4416 
L 622 4416 
L 622 4863 
L 1947 4863 
z
" transform="scale(0.015625)"/>
      </defs>
      <use xlink:href="#DejaVuSans-74"/>
      <use xlink:href="#DejaVuSans-6f" transform="translate(39.208984 0)"/>
      <use xlink:href="#DejaVuSans-66" transform="translate(100.390625 0)"/>
      <use xlink:href="#DejaVuSans-20" transform="translate(135.595703 0)"/>
      <use xlink:href="#DejaVuSans-5b" transform="translate(167.382812 0)"/>
      <use xlink:href="#DejaVuSans-b5" transform="translate(206.396484 0)"/>
      <use xlink:href="#DejaVuSans-73" transform="translate(270.019531 0)"/>
      <use xlink:href="#DejaVuSans-5d" transform="translate(322.119141 0)"/>
     </g>
    </g>
   </g>
   <g id="matplotlib.axis_2">
    <g id="ytick_1">
     <g id="line2d_10">
      <defs>
       <path id="mc76907a89a" d="M 0 0 
L -3.5 0 
" style="stroke: #000000; stroke-width: 0.8"/>
      </defs>
      <g>
       <use xlink:href="#mc76907a89a" x="53.328125" y="218.88" style="stroke: #000000; stroke-width: 0.8"/>
      </g>
     </g>
     <g id="text_11">
      <!-- 0 -->
      <g transform="translate(39.965625 222.679219) scale(0.1 -0.1)">
       <use xlink:href="#DejaVuSans-30"/>
      </g>
     </g>
    </g>
    <g id="ytick_2">
     <g id="line2d_11">
      <g>
       <use xlink:href="#mc76907a89a" x="53.328125" y="189.319883" style="stroke: #000000; stroke-width: 0.8"/>
      </g>
     </g>
     <g id="text_12">
      <!-- 200 -->
      <g transform="translate(27.240625 193.119101) scale(0.1 -0.1)">
       <use xlink:href="#DejaVuSans-32"/>
       <use xlink:href="#DejaVuSans-30" transform="translate(63.623047 0)"/>
       <use xlink:href="#DejaVuSans-30" transform="translate(127.246094 0)"/>
      </g>
     </g>
    </g>
    <g id="ytick_3">
     <g id="line2d_12">
      <g>
       <use xlink:href="#mc76907a89a" x="53.328125" y="159.759765" style="stroke: #000000; stroke-width: 0.8"/>
      </g>
     </g>
     <g id="text_13">
      <!-- 400 -->
      <g transform="translate(27.240625 163.558984) scale(0.1 -0.1)">
       <defs>
        <path id="DejaVuSans-34" d="M 2419 4116 
L 825 1625 
L 2419 1625 
L 2419 4116 
z
M 2253 4666 
L 3047 4666 
L 3047 1625 
L 3713 1625 
L 3713 1100 
L 3047 1100 
L 3047 0 
L 2419 0 
L 2419 1100 
L 313 1100 
L 313 1709 
L 2253 4666 
z
" transform="scale(0.015625)"/>
       </defs>
       <use xlink:href="#DejaVuSans-34"/>
       <use xlink:href="#DejaVuSans-30" transform="translate(63.623047 0)"/>
       <use xlink:href="#DejaVuSans-30" transform="translate(127.246094 0)"/>
      </g>
     </g>
    </g>
    <g id="ytick_4">
     <g id="line2d_13">
      <g>
       <use xlink:href="#mc76907a89a" x="53.328125" y="130.199648" style="stroke: #000000; stroke-width: 0.8"/>
      </g>
     </g>
     <g id="text_14">
      <!-- 600 -->
      <g transform="translate(27.240625 133.998867) scale(0.1 -0.1)">
       <defs>
        <path id="DejaVuSans-36" d="M 2113 2584 
Q 1688 2584 1439 2293 
Q 1191 2003 1191 1497 
Q 1191 994 1439 701 
Q 1688 409 2113 409 
Q 2538 409 2786 701 
Q 3034 994 3034 1497 
Q 3034 2003 2786 2293 
Q 2538 2584 2113 2584 
z
M 3366 4563 
L 3366 3988 
Q 3128 4100 2886 4159 
Q 2644 4219 2406 4219 
Q 1781 4219 1451 3797 
Q 1122 3375 1075 2522 
Q 1259 2794 1537 2939 
Q 1816 3084 2150 3084 
Q 2853 3084 3261 2657 
Q 3669 2231 3669 1497 
Q 3669 778 3244 343 
Q 2819 -91 2113 -91 
Q 1303 -91 875 529 
Q 447 1150 447 2328 
Q 447 3434 972 4092 
Q 1497 4750 2381 4750 
Q 2619 4750 2861 4703 
Q 3103 4656 3366 4563 
z
" transform="scale(0.015625)"/>
       </defs>
       <use xlink:href="#DejaVuSans-36"/>
       <use xlink:href="#DejaVuSans-30" transform="translate(63.623047 0)"/>
       <use xlink:href="#DejaVuSans-30" transform="translate(127.246094 0)"/>
      </g>
     </g>
    </g>
    <g id="ytick_5">
     <g id="line2d_14">
      <g>
       <use xlink:href="#mc76907a89a" x="53.328125" y="100.639531" style="stroke: #000000; stroke-width: 0.8"/>
      </g>
     </g>
     <g id="text_15">
      <!-- 800 -->
      <g transform="translate(27.240625 104.43875) scale(0.1 -0.1)">
       <defs>
        <path id="DejaVuSans-38" d="M 2034 2216 
Q 1584 2216 1326 1975 
Q 1069 1734 1069 1313 
Q 1069 891 1326 650 
Q 1584 409 2034 409 
Q 2484 409 2743 651 
Q 3003 894 3003 1313 
Q 3003 1734 2745 1975 
Q 2488 2216 2034 2216 
z
M 1403 2484 
Q 997 2584 770 2862 
Q 544 3141 544 3541 
Q 544 4100 942 4425 
Q 1341 4750 2034 4750 
Q 2731 4750 3128 4425 
Q 3525 4100 3525 3541 
Q 3525 3141 3298 2862 
Q 3072 2584 2669 2484 
Q 3125 2378 3379 2068 
Q 3634 1759 3634 1313 
Q 3634 634 3220 271 
Q 2806 -91 2034 -91 
Q 1263 -91 848 271 
Q 434 634 434 1313 
Q 434 1759 690 2068 
Q 947 2378 1403 2484 
z
M 1172 3481 
Q 1172 3119 1398 2916 
Q 1625 2713 2034 2713 
Q 2441 2713 2670 2916 
Q 2900 3119 2900 3481 
Q 2900 3844 2670 4047 
Q 2441 4250 2034 4250 
Q 1625 4250 1398 4047 
Q 1172 3844 1172 3481 
z
" transform="scale(0.015625)"/>
       </defs>
       <use xlink:href="#DejaVuSans-38"/>
       <use xlink:href="#DejaVuSans-30" transform="translate(63.623047 0)"/>
       <use xlink:href="#DejaVuSans-30" transform="translate(127.246094 0)"/>
      </g>
     </g>
    </g>
    <g id="ytick_6">
     <g id="line2d_15">
      <g>
       <use xlink:href="#mc76907a89a" x="53.328125" y="71.079413" style="stroke: #000000; stroke-width: 0.8"/>
      </g>
     </g>
     <g id="text_16">
      <!-- 1000 -->
      <g transform="translate(20.878125 74.878632) scale(0.1 -0.1)">
       <use xlink:href="#DejaVuSans-31"/>
       <use xlink:href="#DejaVuSans-30" transform="translate(63.623047 0)"/>
       <use xlink:href="#DejaVuSans-30" transform="translate(127.246094 0)"/>
       <use xlink:href="#DejaVuSans-30" transform="translate(190.869141 0)"/>
      </g>
     </g>
    </g>
    <g id="ytick_7">
     <g id="line2d_16">
      <g>
       <use xlink:href="#mc76907a89a" x="53.328125" y="41.519296" style="stroke: #000000; stroke-width: 0.8"/>
      </g>
     </g>
     <g id="text_17">
      <!-- 1200 -->
      <g transform="translate(20.878125 45.318515) scale(0.1 -0.1)">
       <use xlink:href="#DejaVuSans-31"/>
       <use xlink:href="#DejaVuSans-32" transform="translate(63.623047 0)"/>
       <use xlink:href="#DejaVuSans-30" transform="translate(127.246094 0)"/>
       <use xlink:href="#DejaVuSans-30" transform="translate(190.869141 0)"/>
      </g>
     </g>
    </g>
    <g id="ytick_8">
     <g id="line2d_17">
      <g>
       <use xlink:href="#mc76907a89a" x="53.328125" y="11.959179" style="stroke: #000000; stroke-width: 0.8"/>
      </g>
     </g>
     <g id="text_18">
      <!-- 1400 -->
      <g transform="translate(20.878125 15.758398) scale(0.1 -0.1)">
       <use xlink:href="#DejaVuSans-31"/>
       <use xlink:href="#DejaVuSans-34" transform="translate(63.623047 0)"/>
       <use xlink:href="#DejaVuSans-30" transform="translate(127.246094 0)"/>
       <use xlink:href="#DejaVuSans-30" transform="translate(190.869141 0)"/>
      </g>
     </g>
    </g>
    <g id="text_19">
     <!-- [counts] -->
     <g transform="translate(14.798438 138.6925) rotate(-90) scale(0.1 -0.1)">
      <defs>
       <path id="DejaVuSans-63" d="M 3122 3366 
L 3122 2828 
Q 2878 2963 2633 3030 
Q 2388 3097 2138 3097 
Q 1578 3097 1268 2742 
Q 959 2388 959 1747 
Q 959 1106 1268 751 
Q 1578 397 2138 397 
Q 2388 397 2633 464 
Q 2878 531 3122 666 
L 3122 134 
Q 2881 22 2623 -34 
Q 2366 -91 2075 -91 
Q 1284 -91 818 406 
Q 353 903 353 1747 
Q 353 2603 823 3093 
Q 1294 3584 2113 3584 
Q 2378 3584 2631 3529 
Q 2884 3475 3122 3366 
z
" transform="scale(0.015625)"/>
       <path id="DejaVuSans-75" d="M 544 1381 
L 544 3500 
L 1119 3500 
L 1119 1403 
Q 1119 906 1312 657 
Q 1506 409 1894 409 
Q 2359 409 2629 706 
Q 2900 1003 2900 1516 
L 2900 3500 
L 3475 3500 
L 3475 0 
L 2900 0 
L 2900 538 
Q 2691 219 2414 64 
Q 2138 -91 1772 -91 
Q 1169 -91 856 284 
Q 544 659 544 1381 
z
M 1991 3584 
L 1991 3584 
z
" transform="scale(0.015625)"/>
       <path id="DejaVuSans-6e" d="M 3513 2113 
L 3513 0 
L 2938 0 
L 2938 2094 
Q 2938 2591 2744 2837 
Q 2550 3084 2163 3084 
Q 1697 3084 1428 2787 
Q 1159 2491 1159 1978 
L 1159 0 
L 581 0 
L 581 3500 
L 1159 3500 
L 1159 2956 
Q 1366 3272 1645 3428 
Q 1925 3584 2291 3584 
Q 2894 3584 3203 3211 
Q 3513 2838 3513 2113 
z
" transform="scale(0.015625)"/>
      </defs>
      <use xlink:href="#DejaVuSans-5b"/>
      <use xlink:href="#DejaVuSans-63" transform="translate(39.013672 0)"/>
      <use xlink:href="#DejaVuSans-6f" transform="translate(93.994141 0)"/>
      <use xlink:href="#DejaVuSans-75" transform="translate(155.175781 0)"/>
      <use xlink:href="#DejaVuSans-6e" transform="translate(218.554688 0)"/>
      <use xlink:href="#DejaVuSans-74" transform="translate(281.933594 0)"/>
      <use xlink:href="#DejaVuSans-73" transform="translate(321.142578 0)"/>
      <use xlink:href="#DejaVuSans-5d" transform="translate(373.242188 0)"/>
     </g>
    </g>
   </g>
   <g id="patch_3">
    <path d="M 53.328125 228.96 
L 53.328125 7.2 
" style="fill: none; stroke: #000000; stroke-width: 0.8; stroke-linejoin: miter; stroke-linecap: square"/>
   </g>
   <g id="patch_4">
    <path d="M 388.128125 228.96 
L 388.128125 7.2 
" style="fill: none; stroke: #000000; stroke-width: 0.8; stroke-linejoin: miter; stroke-linecap: square"/>
   </g>
   <g id="patch_5">
    <path d="M 53.328125 228.96 
L 388.128125 228.96 
" style="fill: none; stroke: #000000; stroke-width: 0.8; stroke-linejoin: miter; stroke-linecap: square"/>
   </g>
   <g id="patch_6">
    <path d="M 53.328125 7.2 
L 388.128125 7.2 
" style="fill: none; stroke: #000000; stroke-width: 0.8; stroke-linejoin: miter; stroke-linecap: square"/>
   </g>
   <g id="legend_1">
    <g id="patch_7">
     <path d="M 306.904688 73.9125 
L 381.128125 73.9125 
Q 383.128125 73.9125 383.128125 71.9125 
L 383.128125 14.2 
Q 383.128125 12.2 381.128125 12.2 
L 306.904688 12.2 
Q 304.904688 12.2 304.904688 14.2 
L 304.904688 71.9125 
Q 304.904688 73.9125 306.904688 73.9125 
z
" style="fill: #ffffff; opacity: 0.8; stroke: #cccccc; stroke-linejoin: miter"/>
    </g>
    <g id="line2d_18">
     <path d="M 308.904688 20.298437 
L 308.904688 20.298437 
L 318.904688 20.298437 
L 318.904688 20.298437 
L 328.904688 20.298437 
" style="fill: none; stroke: #1f77b4; stroke-width: 1.5; stroke-linecap: square"/>
    </g>
    <g id="text_20">
     <!-- beam -->
     <g transform="translate(336.904688 23.798437) scale(0.1 -0.1)">
      <defs>
       <path id="DejaVuSans-62" d="M 3116 1747 
Q 3116 2381 2855 2742 
Q 2594 3103 2138 3103 
Q 1681 3103 1420 2742 
Q 1159 2381 1159 1747 
Q 1159 1113 1420 752 
Q 1681 391 2138 391 
Q 2594 391 2855 752 
Q 3116 1113 3116 1747 
z
M 1159 2969 
Q 1341 3281 1617 3432 
Q 1894 3584 2278 3584 
Q 2916 3584 3314 3078 
Q 3713 2572 3713 1747 
Q 3713 922 3314 415 
Q 2916 -91 2278 -91 
Q 1894 -91 1617 61 
Q 1341 213 1159 525 
L 1159 0 
L 581 0 
L 581 4863 
L 1159 4863 
L 1159 2969 
z
" transform="scale(0.015625)"/>
       <path id="DejaVuSans-65" d="M 3597 1894 
L 3597 1613 
L 953 1613 
Q 991 1019 1311 708 
Q 1631 397 2203 397 
Q 2534 397 2845 478 
Q 3156 559 3463 722 
L 3463 178 
Q 3153 47 2828 -22 
Q 2503 -91 2169 -91 
Q 1331 -91 842 396 
Q 353 884 353 1716 
Q 353 2575 817 3079 
Q 1281 3584 2069 3584 
Q 2775 3584 3186 3129 
Q 3597 2675 3597 1894 
z
M 3022 2063 
Q 3016 2534 2758 2815 
Q 2500 3097 2075 3097 
Q 1594 3097 1305 2825 
Q 1016 2553 972 2059 
L 3022 2063 
z
" transform="scale(0.015625)"/>
       <path id="DejaVuSans-61" d="M 2194 1759 
Q 1497 1759 1228 1600 
Q 959 1441 959 1056 
Q 959 750 1161 570 
Q 1363 391 1709 391 
Q 2188 391 2477 730 
Q 2766 1069 2766 1631 
L 2766 1759 
L 2194 1759 
z
M 3341 1997 
L 3341 0 
L 2766 0 
L 2766 531 
Q 2569 213 2275 61 
Q 1981 -91 1556 -91 
Q 1019 -91 701 211 
Q 384 513 384 1019 
Q 384 1609 779 1909 
Q 1175 2209 1959 2209 
L 2766 2209 
L 2766 2266 
Q 2766 2663 2505 2880 
Q 2244 3097 1772 3097 
Q 1472 3097 1187 3025 
Q 903 2953 641 2809 
L 641 3341 
Q 956 3463 1253 3523 
Q 1550 3584 1831 3584 
Q 2591 3584 2966 3190 
Q 3341 2797 3341 1997 
z
" transform="scale(0.015625)"/>
       <path id="DejaVuSans-6d" d="M 3328 2828 
Q 3544 3216 3844 3400 
Q 4144 3584 4550 3584 
Q 5097 3584 5394 3201 
Q 5691 2819 5691 2113 
L 5691 0 
L 5113 0 
L 5113 2094 
Q 5113 2597 4934 2840 
Q 4756 3084 4391 3084 
Q 3944 3084 3684 2787 
Q 3425 2491 3425 1978 
L 3425 0 
L 2847 0 
L 2847 2094 
Q 2847 2600 2669 2842 
Q 2491 3084 2119 3084 
Q 1678 3084 1418 2786 
Q 1159 2488 1159 1978 
L 1159 0 
L 581 0 
L 581 3500 
L 1159 3500 
L 1159 2956 
Q 1356 3278 1631 3431 
Q 1906 3584 2284 3584 
Q 2666 3584 2933 3390 
Q 3200 3197 3328 2828 
z
" transform="scale(0.015625)"/>
      </defs>
      <use xlink:href="#DejaVuSans-62"/>
      <use xlink:href="#DejaVuSans-65" transform="translate(63.476562 0)"/>
      <use xlink:href="#DejaVuSans-61" transform="translate(125 0)"/>
      <use xlink:href="#DejaVuSans-6d" transform="translate(186.279297 0)"/>
     </g>
    </g>
    <g id="line2d_19">
     <path d="M 308.904688 34.976562 
L 308.904688 34.976562 
L 318.904688 34.976562 
L 318.904688 34.976562 
L 328.904688 34.976562 
" style="fill: none; stroke: #ff7f0e; stroke-width: 1.5; stroke-linecap: square"/>
    </g>
    <g id="text_21">
     <!-- sample -->
     <g transform="translate(336.904688 38.476562) scale(0.1 -0.1)">
      <defs>
       <path id="DejaVuSans-70" d="M 1159 525 
L 1159 -1331 
L 581 -1331 
L 581 3500 
L 1159 3500 
L 1159 2969 
Q 1341 3281 1617 3432 
Q 1894 3584 2278 3584 
Q 2916 3584 3314 3078 
Q 3713 2572 3713 1747 
Q 3713 922 3314 415 
Q 2916 -91 2278 -91 
Q 1894 -91 1617 61 
Q 1341 213 1159 525 
z
M 3116 1747 
Q 3116 2381 2855 2742 
Q 2594 3103 2138 3103 
Q 1681 3103 1420 2742 
Q 1159 2381 1159 1747 
Q 1159 1113 1420 752 
Q 1681 391 2138 391 
Q 2594 391 2855 752 
Q 3116 1113 3116 1747 
z
" transform="scale(0.015625)"/>
       <path id="DejaVuSans-6c" d="M 603 4863 
L 1178 4863 
L 1178 0 
L 603 0 
L 603 4863 
z
" transform="scale(0.015625)"/>
      </defs>
      <use xlink:href="#DejaVuSans-73"/>
      <use xlink:href="#DejaVuSans-61" transform="translate(52.099609 0)"/>
      <use xlink:href="#DejaVuSans-6d" transform="translate(113.378906 0)"/>
      <use xlink:href="#DejaVuSans-70" transform="translate(210.791016 0)"/>
      <use xlink:href="#DejaVuSans-6c" transform="translate(274.267578 0)"/>
      <use xlink:href="#DejaVuSans-65" transform="translate(302.050781 0)"/>
     </g>
    </g>
    <g id="line2d_20">
     <path d="M 308.904688 49.654687 
L 308.904688 49.654687 
L 318.904688 49.654687 
L 318.904688 49.654687 
L 328.904688 49.654687 
" style="fill: none; stroke: #2ca02c; stroke-width: 1.5; stroke-linecap: square"/>
    </g>
    <g id="text_22">
     <!-- monitor -->
     <g transform="translate(336.904688 53.154687) scale(0.1 -0.1)">
      <defs>
       <path id="DejaVuSans-69" d="M 603 3500 
L 1178 3500 
L 1178 0 
L 603 0 
L 603 3500 
z
M 603 4863 
L 1178 4863 
L 1178 4134 
L 603 4134 
L 603 4863 
z
" transform="scale(0.015625)"/>
       <path id="DejaVuSans-72" d="M 2631 2963 
Q 2534 3019 2420 3045 
Q 2306 3072 2169 3072 
Q 1681 3072 1420 2755 
Q 1159 2438 1159 1844 
L 1159 0 
L 581 0 
L 581 3500 
L 1159 3500 
L 1159 2956 
Q 1341 3275 1631 3429 
Q 1922 3584 2338 3584 
Q 2397 3584 2469 3576 
Q 2541 3569 2628 3553 
L 2631 2963 
z
" transform="scale(0.015625)"/>
      </defs>
      <use xlink:href="#DejaVuSans-6d"/>
      <use xlink:href="#DejaVuSans-6f" transform="translate(97.412109 0)"/>
      <use xlink:href="#DejaVuSans-6e" transform="translate(158.59375 0)"/>
      <use xlink:href="#DejaVuSans-69" transform="translate(221.972656 0)"/>
      <use xlink:href="#DejaVuSans-74" transform="translate(249.755859 0)"/>
      <use xlink:href="#DejaVuSans-6f" transform="translate(288.964844 0)"/>
      <use xlink:href="#DejaVuSans-72" transform="translate(350.146484 0)"/>
     </g>
    </g>
    <g id="line2d_21">
     <path d="M 308.904688 64.332812 
L 308.904688 64.332812 
L 318.904688 64.332812 
L 318.904688 64.332812 
L 328.904688 64.332812 
" style="fill: none; stroke: #d62728; stroke-width: 1.5; stroke-linecap: square"/>
    </g>
    <g id="text_23">
     <!-- detector -->
     <g transform="translate(336.904688 67.832812) scale(0.1 -0.1)">
      <defs>
       <path id="DejaVuSans-64" d="M 2906 2969 
L 2906 4863 
L 3481 4863 
L 3481 0 
L 2906 0 
L 2906 525 
Q 2725 213 2448 61 
Q 2172 -91 1784 -91 
Q 1150 -91 751 415 
Q 353 922 353 1747 
Q 353 2572 751 3078 
Q 1150 3584 1784 3584 
Q 2172 3584 2448 3432 
Q 2725 3281 2906 2969 
z
M 947 1747 
Q 947 1113 1208 752 
Q 1469 391 1925 391 
Q 2381 391 2643 752 
Q 2906 1113 2906 1747 
Q 2906 2381 2643 2742 
Q 2381 3103 1925 3103 
Q 1469 3103 1208 2742 
Q 947 2381 947 1747 
z
" transform="scale(0.015625)"/>
      </defs>
      <use xlink:href="#DejaVuSans-64"/>
      <use xlink:href="#DejaVuSans-65" transform="translate(63.476562 0)"/>
      <use xlink:href="#DejaVuSans-74" transform="translate(125 0)"/>
      <use xlink:href="#DejaVuSans-65" transform="translate(164.208984 0)"/>
      <use xlink:href="#DejaVuSans-63" transform="translate(225.732422 0)"/>
      <use xlink:href="#DejaVuSans-74" transform="translate(280.712891 0)"/>
      <use xlink:href="#DejaVuSans-6f" transform="translate(319.921875 0)"/>
      <use xlink:href="#DejaVuSans-72" transform="translate(381.103516 0)"/>
     </g>
    </g>
   </g>
   <g id="line2d_22">
    <path d="M 68.546307 215.776188 
L 69.295971 215.776188 
L 69.295971 216.36739 
L 70.045635 216.36739 
L 70.045635 215.480587 
L 70.795299 215.480587 
L 70.795299 211.637771 
L 71.544963 211.637771 
L 71.544963 202.474135 
L 72.294627 202.474135 
L 72.294627 192.275894 
L 73.044292 192.275894 
L 73.044292 168.48 
L 73.793956 168.48 
L 73.793956 122.070616 
L 74.54362 122.070616 
L 74.54362 56.299355 
L 75.293284 56.299355 
L 75.293284 27.626041 
L 76.042948 27.626041 
L 76.042948 17.28 
L 76.792612 17.28 
L 76.792612 28.365044 
L 77.542276 28.365044 
L 77.542276 40.189091 
L 78.29194 40.189091 
L 78.29194 43.292903 
L 79.041605 43.292903 
L 79.041605 42.110499 
L 79.791269 42.110499 
L 79.791269 45.362111 
L 80.540933 45.362111 
L 80.540933 78.026041 
L 81.290597 78.026041 
L 81.290597 81.721056 
L 82.040261 81.721056 
L 82.040261 82.607859 
L 82.789925 82.607859 
L 82.789925 98.865924 
L 83.539589 98.865924 
L 83.539589 118.671202 
L 84.289254 118.671202 
L 84.289254 137.441877 
L 85.038918 137.441877 
L 85.038918 183.851261 
L 85.788582 183.851261 
L 85.788582 213.85478 
L 86.538246 213.85478 
L 86.538246 218.88 
L 372.909943 218.88 
L 372.909943 218.88 
" clip-path="url(#pd35c402473)" style="fill: none; stroke: #1f77b4; stroke-width: 1.5; stroke-linecap: square"/>
   </g>
   <g id="line2d_23">
    <path d="M 68.546307 218.88 
L 165.252979 218.88 
L 165.252979 217.697595 
L 166.002644 217.697595 
L 166.002644 218.88 
L 167.501972 218.88 
L 167.501972 217.254194 
L 168.251636 217.254194 
L 168.251636 217.845396 
L 169.0013 217.845396 
L 169.0013 216.515191 
L 169.750964 216.515191 
L 169.750964 216.958592 
L 170.500628 216.958592 
L 170.500628 215.480587 
L 171.250292 215.480587 
L 171.250292 215.184985 
L 171.999957 215.184985 
L 171.999957 212.376774 
L 172.749621 212.376774 
L 172.749621 207.942757 
L 173.499285 207.942757 
L 173.499285 210.898768 
L 174.248949 210.898768 
L 174.248949 209.125161 
L 174.998613 209.125161 
L 174.998613 208.238358 
L 175.748277 208.238358 
L 175.748277 202.917537 
L 176.497941 202.917537 
L 176.497941 198.63132 
L 177.247606 198.63132 
L 177.247606 196.414311 
L 177.99727 196.414311 
L 177.99727 187.841877 
L 178.746934 187.841877 
L 178.746934 183.70346 
L 179.496598 183.70346 
L 179.496598 180.895249 
L 180.246262 180.895249 
L 180.246262 171.140411 
L 180.995926 171.140411 
L 180.995926 165.523988 
L 181.74559 165.523988 
L 181.74559 153.699941 
L 182.495254 153.699941 
L 182.495254 159.759765 
L 183.244919 159.759765 
L 183.244919 155.177947 
L 183.994583 155.177947 
L 183.994583 148.526921 
L 184.744247 148.526921 
L 184.744247 159.316364 
L 185.493911 159.316364 
L 185.493911 150.004927 
L 186.243575 150.004927 
L 186.243575 154.438944 
L 186.993239 154.438944 
L 186.993239 156.064751 
L 187.742903 156.064751 
L 187.742903 145.423109 
L 188.492567 145.423109 
L 188.492567 161.237771 
L 189.242232 161.237771 
L 189.242232 152.074135 
L 189.991896 152.074135 
L 189.991896 167.740997 
L 190.74156 167.740997 
L 190.74156 165.523988 
L 191.491224 165.523988 
L 191.491224 156.508152 
L 192.240888 156.508152 
L 192.240888 158.577361 
L 192.990552 158.577361 
L 192.990552 153.40434 
L 193.740216 153.40434 
L 193.740216 162.124575 
L 194.48988 162.124575 
L 194.48988 165.671789 
L 195.239545 165.671789 
L 195.239545 162.715777 
L 195.989209 162.715777 
L 195.989209 161.976774 
L 196.738873 161.976774 
L 196.738873 166.706393 
L 197.488537 166.706393 
L 197.488537 163.159179 
L 198.238201 163.159179 
L 198.238201 171.288211 
L 198.987865 171.288211 
L 198.987865 172.175015 
L 199.737529 172.175015 
L 199.737529 168.332199 
L 200.487194 168.332199 
L 200.487194 171.288211 
L 201.236858 171.288211 
L 201.236858 170.99261 
L 201.986522 170.99261 
L 201.986522 180.599648 
L 202.736186 180.599648 
L 202.736186 175.131026 
L 203.48585 175.131026 
L 203.48585 164.637185 
L 204.235514 164.637185 
L 204.235514 182.521056 
L 204.985178 182.521056 
L 204.985178 173.061818 
L 205.734842 173.061818 
L 205.734842 183.851261 
L 206.484507 183.851261 
L 206.484507 182.816657 
L 207.234171 182.816657 
L 207.234171 187.989677 
L 207.983835 187.989677 
L 207.983835 187.398475 
L 208.733499 187.398475 
L 208.733499 185.920469 
L 209.483163 185.920469 
L 209.483163 191.24129 
L 210.232827 191.24129 
L 210.232827 195.675308 
L 210.982491 195.675308 
L 210.982491 191.980293 
L 211.732155 191.980293 
L 211.732155 203.360938 
L 212.48182 203.360938 
L 212.48182 208.090557 
L 213.231484 208.090557 
L 213.231484 208.238358 
L 213.981148 208.238358 
L 213.981148 212.672375 
L 214.730812 212.672375 
L 214.730812 213.559179 
L 215.480476 213.559179 
L 215.480476 217.549795 
L 216.23014 217.549795 
L 216.23014 218.436598 
L 216.979804 218.436598 
L 216.979804 218.88 
L 372.909943 218.88 
L 372.909943 218.88 
" clip-path="url(#pd35c402473)" style="fill: none; stroke: #ff7f0e; stroke-width: 1.5; stroke-linecap: square"/>
   </g>
   <g id="line2d_24">
    <path d="M 68.546307 218.88 
L 209.483163 218.88 
L 209.483163 218.732199 
L 210.232827 218.732199 
L 210.232827 218.88 
L 213.231484 218.88 
L 213.231484 218.436598 
L 214.730812 218.436598 
L 214.730812 218.88 
L 215.480476 218.88 
L 215.480476 218.584399 
L 216.23014 218.584399 
L 216.23014 217.697595 
L 216.979804 217.697595 
L 216.979804 217.254194 
L 218.479133 217.254194 
L 218.479133 216.810792 
L 219.228797 216.810792 
L 219.228797 217.845396 
L 219.978461 217.845396 
L 219.978461 215.628387 
L 220.728125 215.628387 
L 220.728125 217.697595 
L 221.477789 217.697595 
L 221.477789 215.037185 
L 222.227453 215.037185 
L 222.227453 214.298182 
L 222.977117 214.298182 
L 222.977117 211.637771 
L 223.726782 211.637771 
L 223.726782 211.933372 
L 224.476446 211.933372 
L 224.476446 212.820176 
L 225.22611 212.820176 
L 225.22611 210.898768 
L 225.975774 210.898768 
L 225.975774 210.455367 
L 226.725438 210.455367 
L 226.725438 208.386158 
L 227.475102 208.386158 
L 227.475102 207.351554 
L 228.224766 207.351554 
L 228.224766 200.996129 
L 228.97443 200.996129 
L 228.97443 204.543343 
L 229.724095 204.543343 
L 229.724095 198.483519 
L 230.473759 198.483519 
L 230.473759 192.571496 
L 231.223423 192.571496 
L 231.223423 195.084106 
L 231.973087 195.084106 
L 231.973087 189.172082 
L 232.722751 189.172082 
L 232.722751 191.24129 
L 233.472415 191.24129 
L 233.472415 179.860645 
L 234.222079 179.860645 
L 234.222079 175.722229 
L 234.971743 175.722229 
L 234.971743 173.948622 
L 235.721408 173.948622 
L 235.721408 174.392023 
L 236.471072 174.392023 
L 236.471072 171.140411 
L 237.220736 171.140411 
L 237.220736 172.175015 
L 237.9704 172.175015 
L 237.9704 166.115191 
L 238.720064 166.115191 
L 238.720064 166.558592 
L 239.469728 166.558592 
L 239.469728 174.835425 
L 240.219392 174.835425 
L 240.219392 169.958006 
L 240.969056 169.958006 
L 240.969056 169.366804 
L 241.718721 169.366804 
L 241.718721 170.697009 
L 242.468385 170.697009 
L 242.468385 168.184399 
L 243.218049 168.184399 
L 243.218049 165.228387 
L 243.967713 165.228387 
L 243.967713 178.234839 
L 244.717377 178.234839 
L 244.717377 168.48 
L 245.467041 168.48 
L 245.467041 170.697009 
L 246.216705 170.697009 
L 246.216705 182.077654 
L 246.96637 182.077654 
L 246.96637 177.939238 
L 247.716034 177.939238 
L 247.716034 171.879413 
L 248.465698 171.879413 
L 248.465698 176.313431 
L 249.215362 176.313431 
L 249.215362 171.583812 
L 249.965026 171.583812 
L 249.965026 173.800821 
L 250.71469 173.800821 
L 250.71469 171.436012 
L 251.464354 171.436012 
L 251.464354 177.939238 
L 252.214018 177.939238 
L 252.214018 174.983226 
L 252.963683 174.983226 
L 252.963683 179.565044 
L 253.713347 179.565044 
L 253.713347 175.278827 
L 254.463011 175.278827 
L 254.463011 178.087038 
L 255.212675 178.087038 
L 255.212675 177.052434 
L 255.962339 177.052434 
L 255.962339 177.200235 
L 256.712003 177.200235 
L 256.712003 182.816657 
L 257.461667 182.816657 
L 257.461667 182.373255 
L 258.211331 182.373255 
L 258.211331 185.477067 
L 258.960996 185.477067 
L 258.960996 180.599648 
L 259.71066 180.599648 
L 259.71066 183.55566 
L 260.460324 183.55566 
L 260.460324 181.782053 
L 261.209988 181.782053 
L 261.209988 183.112258 
L 261.959652 183.112258 
L 261.959652 190.058886 
L 262.709316 190.058886 
L 262.709316 187.841877 
L 263.45898 187.841877 
L 263.45898 183.55566 
L 264.208644 183.55566 
L 264.208644 180.895249 
L 264.958309 180.895249 
L 264.958309 188.876481 
L 265.707973 188.876481 
L 265.707973 184.146862 
L 266.457637 184.146862 
L 266.457637 187.694076 
L 267.207301 187.694076 
L 267.207301 193.6061 
L 267.956965 193.6061 
L 267.956965 191.980293 
L 268.706629 191.980293 
L 268.706629 193.458299 
L 269.456293 193.458299 
L 269.456293 195.231906 
L 270.205958 195.231906 
L 270.205958 197.301114 
L 270.955622 197.301114 
L 270.955622 194.492903 
L 271.705286 194.492903 
L 271.705286 195.675308 
L 272.45495 195.675308 
L 272.45495 199.074721 
L 273.204614 199.074721 
L 273.204614 200.700528 
L 273.954278 200.700528 
L 273.954278 199.518123 
L 274.703942 199.518123 
L 274.703942 202.030733 
L 275.453606 202.030733 
L 275.453606 208.82956 
L 276.203271 208.82956 
L 276.203271 210.307566 
L 276.952935 210.307566 
L 276.952935 209.716364 
L 277.702599 209.716364 
L 277.702599 213.411378 
L 278.452263 213.411378 
L 278.452263 214.445982 
L 279.201927 214.445982 
L 279.201927 215.776188 
L 279.951591 215.776188 
L 279.951591 217.401994 
L 280.701255 217.401994 
L 280.701255 217.697595 
L 281.450919 217.697595 
L 281.450919 218.88 
L 372.909943 218.88 
L 372.909943 218.88 
" clip-path="url(#pd35c402473)" style="fill: none; stroke: #2ca02c; stroke-width: 1.5; stroke-linecap: square"/>
   </g>
   <g id="line2d_25">
    <path d="M 68.546307 218.88 
L 280.701255 218.88 
L 280.701255 218.436598 
L 282.200584 218.436598 
L 282.200584 218.88 
L 285.19924 218.88 
L 285.19924 217.697595 
L 285.948904 217.697595 
L 285.948904 218.436598 
L 286.698568 218.436598 
L 286.698568 218.584399 
L 287.448232 218.584399 
L 287.448232 218.732199 
L 288.197897 218.732199 
L 288.197897 217.993196 
L 288.947561 217.993196 
L 288.947561 218.88 
L 289.697225 218.88 
L 289.697225 216.810792 
L 290.446889 216.810792 
L 290.446889 218.436598 
L 291.196553 218.436598 
L 291.196553 216.958592 
L 291.946217 216.958592 
L 291.946217 214.298182 
L 292.695881 214.298182 
L 292.695881 215.923988 
L 293.445546 215.923988 
L 293.445546 214.741584 
L 294.19521 214.741584 
L 294.19521 213.411378 
L 294.944874 213.411378 
L 294.944874 213.85478 
L 295.694538 213.85478 
L 295.694538 214.741584 
L 296.444202 214.741584 
L 296.444202 212.081173 
L 297.193866 212.081173 
L 297.193866 212.228974 
L 297.94353 212.228974 
L 297.94353 212.820176 
L 298.693194 212.820176 
L 298.693194 210.603167 
L 299.442859 210.603167 
L 299.442859 210.307566 
L 300.192523 210.307566 
L 300.192523 208.68176 
L 300.942187 208.68176 
L 300.942187 206.16915 
L 301.691851 206.16915 
L 301.691851 206.908152 
L 302.441515 206.908152 
L 302.441515 205.725748 
L 303.191179 205.725748 
L 303.191179 200.552727 
L 303.940843 200.552727 
L 303.940843 200.257126 
L 304.690507 200.257126 
L 304.690507 200.848328 
L 305.440172 200.848328 
L 305.440172 196.562111 
L 306.189836 196.562111 
L 306.189836 198.187918 
L 306.9395 198.187918 
L 306.9395 196.11871 
L 307.689164 196.11871 
L 307.689164 191.684692 
L 308.438828 191.684692 
L 308.438828 189.615484 
L 309.188492 189.615484 
L 309.188492 186.511672 
L 309.938156 186.511672 
L 309.938156 181.338651 
L 310.68782 181.338651 
L 310.68782 184.442463 
L 311.437485 184.442463 
L 311.437485 186.06827 
L 312.936813 186.06827 
L 312.936813 182.077654 
L 313.686477 182.077654 
L 313.686477 180.747449 
L 314.436141 180.747449 
L 314.436141 179.121642 
L 315.185805 179.121642 
L 315.185805 183.260059 
L 315.935469 183.260059 
L 315.935469 185.477067 
L 316.685134 185.477067 
L 316.685134 182.077654 
L 317.434798 182.077654 
L 317.434798 178.087038 
L 318.184462 178.087038 
L 318.184462 188.285279 
L 318.934126 188.285279 
L 318.934126 183.112258 
L 319.68379 183.112258 
L 319.68379 179.860645 
L 320.433454 179.860645 
L 320.433454 177.939238 
L 321.183118 177.939238 
L 321.183118 183.70346 
L 321.932782 183.70346 
L 321.932782 186.659472 
L 322.682447 186.659472 
L 322.682447 183.260059 
L 324.181775 183.260059 
L 324.181775 186.21607 
L 324.931439 186.21607 
L 324.931439 192.571496 
L 325.681103 192.571496 
L 325.681103 187.250674 
L 326.430767 187.250674 
L 326.430767 183.407859 
L 327.180431 183.407859 
L 327.180431 190.206686 
L 327.930095 190.206686 
L 327.930095 184.146862 
L 328.67976 184.146862 
L 328.67976 185.181466 
L 329.429424 185.181466 
L 329.429424 183.55566 
L 330.179088 183.55566 
L 330.179088 185.477067 
L 330.928752 185.477067 
L 330.928752 180.747449 
L 331.678416 180.747449 
L 331.678416 191.536891 
L 332.42808 191.536891 
L 332.42808 188.876481 
L 333.177744 188.876481 
L 333.177744 184.738065 
L 333.927408 184.738065 
L 333.927408 189.172082 
L 334.677073 189.172082 
L 334.677073 188.433079 
L 335.426737 188.433079 
L 335.426737 187.398475 
L 336.176401 187.398475 
L 336.176401 189.319883 
L 336.926065 189.319883 
L 336.926065 188.72868 
L 337.675729 188.72868 
L 337.675729 186.659472 
L 338.425393 186.659472 
L 338.425393 190.945689 
L 339.175057 190.945689 
L 339.175057 189.615484 
L 339.924722 189.615484 
L 339.924722 191.389091 
L 340.674386 191.389091 
L 340.674386 192.867097 
L 341.42405 192.867097 
L 341.42405 193.458299 
L 342.173714 193.458299 
L 342.173714 192.719296 
L 342.923378 192.719296 
L 342.923378 191.684692 
L 343.673042 191.684692 
L 343.673042 190.354487 
L 344.422706 190.354487 
L 344.422706 192.719296 
L 345.17237 192.719296 
L 345.17237 191.24129 
L 345.922035 191.24129 
L 345.922035 197.005513 
L 346.671699 197.005513 
L 346.671699 199.665924 
L 347.421363 199.665924 
L 347.421363 194.197302 
L 348.171027 194.197302 
L 348.171027 195.231906 
L 348.920691 195.231906 
L 348.920691 183.70346 
L 349.670355 183.70346 
L 349.670355 199.370323 
L 350.420019 199.370323 
L 350.420019 197.005513 
L 351.169683 197.005513 
L 351.169683 193.310499 
L 352.669012 193.310499 
L 352.669012 197.892317 
L 353.418676 197.892317 
L 353.418676 199.370323 
L 354.16834 199.370323 
L 354.16834 199.074721 
L 354.918004 199.074721 
L 354.918004 201.29173 
L 355.667668 201.29173 
L 355.667668 199.518123 
L 356.417332 199.518123 
L 356.417332 200.404927 
L 357.166996 200.404927 
L 357.166996 204.838944 
L 357.916661 204.838944 
L 357.916661 198.040117 
L 358.666325 198.040117 
L 358.666325 202.474135 
L 359.415989 202.474135 
L 359.415989 203.508739 
L 360.165653 203.508739 
L 360.165653 203.360938 
L 360.915317 203.360938 
L 360.915317 203.80434 
L 361.664981 203.80434 
L 361.664981 206.31695 
L 362.414645 206.31695 
L 362.414645 203.65654 
L 363.16431 203.65654 
L 363.16431 207.055953 
L 363.913974 207.055953 
L 363.913974 210.159765 
L 364.663638 210.159765 
L 364.663638 211.489971 
L 365.413302 211.489971 
L 365.413302 212.376774 
L 366.162966 212.376774 
L 366.162966 211.489971 
L 366.91263 211.489971 
L 366.91263 212.967977 
L 367.662294 212.967977 
L 367.662294 216.071789 
L 368.411958 216.071789 
L 368.411958 215.332786 
L 369.161623 215.332786 
L 369.161623 216.515191 
L 369.911287 216.515191 
L 369.911287 216.810792 
L 370.660951 216.810792 
L 370.660951 218.88 
L 372.160279 218.88 
L 372.160279 218.288798 
L 372.909943 218.288798 
L 372.909943 218.288798 
" clip-path="url(#pd35c402473)" style="fill: none; stroke: #d62728; stroke-width: 1.5; stroke-linecap: square"/>
   </g>
  </g>
 </g>
 <defs>
  <clipPath id="pd35c402473">
   <rect x="53.328125" y="7.2" width="334.8" height="221.76"/>
  </clipPath>
 </defs>
</svg>
