<?xml version="1.0" encoding="utf-8" standalone="no"?>
<!DOCTYPE svg PUBLIC "-//W3C//DTD SVG 1.1//EN"
  "http://www.w3.org/Graphics/SVG/1.1/DTD/svg11.dtd">
<svg xmlns:xlink="http://www.w3.org/1999/xlink" width="388.965625pt" height="268.200625pt" viewBox="0 0 388.965625 268.200625" xmlns="http://www.w3.org/2000/svg" version="1.1">
 <metadata>
  <rdf:RDF xmlns:dc="http://purl.org/dc/elements/1.1/" xmlns:cc="http://creativecommons.org/ns#" xmlns:rdf="http://www.w3.org/1999/02/22-rdf-syntax-ns#">
   <cc:Work>
    <dc:type rdf:resource="http://purl.org/dc/dcmitype/StillImage"/>
    <dc:date>2025-05-14T12:10:53.646146</dc:date>
    <dc:format>image/svg+xml</dc:format>
    <dc:creator>
     <cc:Agent>
      <dc:title>Matplotlib v3.10.1, https://matplotlib.org/</dc:title>
     </cc:Agent>
    </dc:creator>
   </cc:Work>
  </rdf:RDF>
 </metadata>
 <defs>
  <style type="text/css">*{stroke-linejoin: round; stroke-linecap: butt}</style>
 </defs>
 <g id="figure_1">
  <g id="patch_1">
   <path d="M 0 268.200625 
L 388.965625 268.200625 
L 388.965625 0 
L 0 0 
z
" style="fill: #ffffff"/>
  </g>
  <g id="axes_1">
   <g id="patch_2">
    <path d="M 46.965625 228.96 
L 381.765625 228.96 
L 381.765625 7.2 
L 46.965625 7.2 
z
" style="fill: #ffffff"/>
   </g>
   <g id="matplotlib.axis_1">
    <g id="xtick_1">
     <g id="line2d_1">
      <defs>
       <path id="m5f22268654" d="M 0 0 
L 0 3.5 
" style="stroke: #000000; stroke-width: 0.8"/>
      </defs>
      <g>
       <use xlink:href="#m5f22268654" x="78.202946" y="228.96" style="stroke: #000000; stroke-width: 0.8"/>
      </g>
     </g>
     <g id="text_1">
      <!-- 1.0 -->
      <g transform="translate(70.251383 243.558437) scale(0.1 -0.1)">
       <defs>
        <path id="DejaVuSans-31" d="M 794 531 
L 1825 531 
L 1825 4091 
L 703 3866 
L 703 4441 
L 1819 4666 
L 2450 4666 
L 2450 531 
L 3481 531 
L 3481 0 
L 794 0 
L 794 531 
z
" transform="scale(0.015625)"/>
        <path id="DejaVuSans-2e" d="M 684 794 
L 1344 794 
L 1344 0 
L 684 0 
L 684 794 
z
" transform="scale(0.015625)"/>
        <path id="DejaVuSans-30" d="M 2034 4250 
Q 1547 4250 1301 3770 
Q 1056 3291 1056 2328 
Q 1056 1369 1301 889 
Q 1547 409 2034 409 
Q 2525 409 2770 889 
Q 3016 1369 3016 2328 
Q 3016 3291 2770 3770 
Q 2525 4250 2034 4250 
z
M 2034 4750 
Q 2819 4750 3233 4129 
Q 3647 3509 3647 2328 
Q 3647 1150 3233 529 
Q 2819 -91 2034 -91 
Q 1250 -91 836 529 
Q 422 1150 422 2328 
Q 422 3509 836 4129 
Q 1250 4750 2034 4750 
z
" transform="scale(0.015625)"/>
       </defs>
       <use xlink:href="#DejaVuSans-31"/>
       <use xlink:href="#DejaVuSans-2e" transform="translate(63.623047 0)"/>
       <use xlink:href="#DejaVuSans-30" transform="translate(95.410156 0)"/>
      </g>
     </g>
    </g>
    <g id="xtick_2">
     <g id="line2d_2">
      <g>
       <use xlink:href="#m5f22268654" x="118.250792" y="228.96" style="stroke: #000000; stroke-width: 0.8"/>
      </g>
     </g>
     <g id="text_2">
      <!-- 1.5 -->
      <g transform="translate(110.29923 243.558437) scale(0.1 -0.1)">
       <defs>
        <path id="DejaVuSans-35" d="M 691 4666 
L 3169 4666 
L 3169 4134 
L 1269 4134 
L 1269 2991 
Q 1406 3038 1543 3061 
Q 1681 3084 1819 3084 
Q 2600 3084 3056 2656 
Q 3513 2228 3513 1497 
Q 3513 744 3044 326 
Q 2575 -91 1722 -91 
Q 1428 -91 1123 -41 
Q 819 9 494 109 
L 494 744 
Q 775 591 1075 516 
Q 1375 441 1709 441 
Q 2250 441 2565 725 
Q 2881 1009 2881 1497 
Q 2881 1984 2565 2268 
Q 2250 2553 1709 2553 
Q 1456 2553 1204 2497 
Q 953 2441 691 2322 
L 691 4666 
z
" transform="scale(0.015625)"/>
       </defs>
       <use xlink:href="#DejaVuSans-31"/>
       <use xlink:href="#DejaVuSans-2e" transform="translate(63.623047 0)"/>
       <use xlink:href="#DejaVuSans-35" transform="translate(95.410156 0)"/>
      </g>
     </g>
    </g>
    <g id="xtick_3">
     <g id="line2d_3">
      <g>
       <use xlink:href="#m5f22268654" x="158.298639" y="228.96" style="stroke: #000000; stroke-width: 0.8"/>
      </g>
     </g>
     <g id="text_3">
      <!-- 2.0 -->
      <g transform="translate(150.347077 243.558437) scale(0.1 -0.1)">
       <defs>
        <path id="DejaVuSans-32" d="M 1228 531 
L 3431 531 
L 3431 0 
L 469 0 
L 469 531 
Q 828 903 1448 1529 
Q 2069 2156 2228 2338 
Q 2531 2678 2651 2914 
Q 2772 3150 2772 3378 
Q 2772 3750 2511 3984 
Q 2250 4219 1831 4219 
Q 1534 4219 1204 4116 
Q 875 4013 500 3803 
L 500 4441 
Q 881 4594 1212 4672 
Q 1544 4750 1819 4750 
Q 2544 4750 2975 4387 
Q 3406 4025 3406 3419 
Q 3406 3131 3298 2873 
Q 3191 2616 2906 2266 
Q 2828 2175 2409 1742 
Q 1991 1309 1228 531 
z
" transform="scale(0.015625)"/>
       </defs>
       <use xlink:href="#DejaVuSans-32"/>
       <use xlink:href="#DejaVuSans-2e" transform="translate(63.623047 0)"/>
       <use xlink:href="#DejaVuSans-30" transform="translate(95.410156 0)"/>
      </g>
     </g>
    </g>
    <g id="xtick_4">
     <g id="line2d_4">
      <g>
       <use xlink:href="#m5f22268654" x="198.346486" y="228.96" style="stroke: #000000; stroke-width: 0.8"/>
      </g>
     </g>
     <g id="text_4">
      <!-- 2.5 -->
      <g transform="translate(190.394924 243.558437) scale(0.1 -0.1)">
       <use xlink:href="#DejaVuSans-32"/>
       <use xlink:href="#DejaVuSans-2e" transform="translate(63.623047 0)"/>
       <use xlink:href="#DejaVuSans-35" transform="translate(95.410156 0)"/>
      </g>
     </g>
    </g>
    <g id="xtick_5">
     <g id="line2d_5">
      <g>
       <use xlink:href="#m5f22268654" x="238.394333" y="228.96" style="stroke: #000000; stroke-width: 0.8"/>
      </g>
     </g>
     <g id="text_5">
      <!-- 3.0 -->
      <g transform="translate(230.442771 243.558437) scale(0.1 -0.1)">
       <defs>
        <path id="DejaVuSans-33" d="M 2597 2516 
Q 3050 2419 3304 2112 
Q 3559 1806 3559 1356 
Q 3559 666 3084 287 
Q 2609 -91 1734 -91 
Q 1441 -91 1130 -33 
Q 819 25 488 141 
L 488 750 
Q 750 597 1062 519 
Q 1375 441 1716 441 
Q 2309 441 2620 675 
Q 2931 909 2931 1356 
Q 2931 1769 2642 2001 
Q 2353 2234 1838 2234 
L 1294 2234 
L 1294 2753 
L 1863 2753 
Q 2328 2753 2575 2939 
Q 2822 3125 2822 3475 
Q 2822 3834 2567 4026 
Q 2313 4219 1838 4219 
Q 1578 4219 1281 4162 
Q 984 4106 628 3988 
L 628 4550 
Q 988 4650 1302 4700 
Q 1616 4750 1894 4750 
Q 2613 4750 3031 4423 
Q 3450 4097 3450 3541 
Q 3450 3153 3228 2886 
Q 3006 2619 2597 2516 
z
" transform="scale(0.015625)"/>
       </defs>
       <use xlink:href="#DejaVuSans-33"/>
       <use xlink:href="#DejaVuSans-2e" transform="translate(63.623047 0)"/>
       <use xlink:href="#DejaVuSans-30" transform="translate(95.410156 0)"/>
      </g>
     </g>
    </g>
    <g id="xtick_6">
     <g id="line2d_6">
      <g>
       <use xlink:href="#m5f22268654" x="278.44218" y="228.96" style="stroke: #000000; stroke-width: 0.8"/>
      </g>
     </g>
     <g id="text_6">
      <!-- 3.5 -->
      <g transform="translate(270.490618 243.558437) scale(0.1 -0.1)">
       <use xlink:href="#DejaVuSans-33"/>
       <use xlink:href="#DejaVuSans-2e" transform="translate(63.623047 0)"/>
       <use xlink:href="#DejaVuSans-35" transform="translate(95.410156 0)"/>
      </g>
     </g>
    </g>
    <g id="xtick_7">
     <g id="line2d_7">
      <g>
       <use xlink:href="#m5f22268654" x="318.490027" y="228.96" style="stroke: #000000; stroke-width: 0.8"/>
      </g>
     </g>
     <g id="text_7">
      <!-- 4.0 -->
      <g transform="translate(310.538464 243.558437) scale(0.1 -0.1)">
       <defs>
        <path id="DejaVuSans-34" d="M 2419 4116 
L 825 1625 
L 2419 1625 
L 2419 4116 
z
M 2253 4666 
L 3047 4666 
L 3047 1625 
L 3713 1625 
L 3713 1100 
L 3047 1100 
L 3047 0 
L 2419 0 
L 2419 1100 
L 313 1100 
L 313 1709 
L 2253 4666 
z
" transform="scale(0.015625)"/>
       </defs>
       <use xlink:href="#DejaVuSans-34"/>
       <use xlink:href="#DejaVuSans-2e" transform="translate(63.623047 0)"/>
       <use xlink:href="#DejaVuSans-30" transform="translate(95.410156 0)"/>
      </g>
     </g>
    </g>
    <g id="xtick_8">
     <g id="line2d_8">
      <g>
       <use xlink:href="#m5f22268654" x="358.537874" y="228.96" style="stroke: #000000; stroke-width: 0.8"/>
      </g>
     </g>
     <g id="text_8">
      <!-- 4.5 -->
      <g transform="translate(350.586311 243.558437) scale(0.1 -0.1)">
       <use xlink:href="#DejaVuSans-34"/>
       <use xlink:href="#DejaVuSans-2e" transform="translate(63.623047 0)"/>
       <use xlink:href="#DejaVuSans-35" transform="translate(95.410156 0)"/>
      </g>
     </g>
    </g>
    <g id="text_9">
     <!-- wavelength [Å] -->
     <g transform="translate(176.328125 258.920937) scale(0.1 -0.1)">
      <defs>
       <path id="DejaVuSans-77" d="M 269 3500 
L 844 3500 
L 1563 769 
L 2278 3500 
L 2956 3500 
L 3675 769 
L 4391 3500 
L 4966 3500 
L 4050 0 
L 3372 0 
L 2619 2869 
L 1863 0 
L 1184 0 
L 269 3500 
z
" transform="scale(0.015625)"/>
       <path id="DejaVuSans-61" d="M 2194 1759 
Q 1497 1759 1228 1600 
Q 959 1441 959 1056 
Q 959 750 1161 570 
Q 1363 391 1709 391 
Q 2188 391 2477 730 
Q 2766 1069 2766 1631 
L 2766 1759 
L 2194 1759 
z
M 3341 1997 
L 3341 0 
L 2766 0 
L 2766 531 
Q 2569 213 2275 61 
Q 1981 -91 1556 -91 
Q 1019 -91 701 211 
Q 384 513 384 1019 
Q 384 1609 779 1909 
Q 1175 2209 1959 2209 
L 2766 2209 
L 2766 2266 
Q 2766 2663 2505 2880 
Q 2244 3097 1772 3097 
Q 1472 3097 1187 3025 
Q 903 2953 641 2809 
L 641 3341 
Q 956 3463 1253 3523 
Q 1550 3584 1831 3584 
Q 2591 3584 2966 3190 
Q 3341 2797 3341 1997 
z
" transform="scale(0.015625)"/>
       <path id="DejaVuSans-76" d="M 191 3500 
L 800 3500 
L 1894 563 
L 2988 3500 
L 3597 3500 
L 2284 0 
L 1503 0 
L 191 3500 
z
" transform="scale(0.015625)"/>
       <path id="DejaVuSans-65" d="M 3597 1894 
L 3597 1613 
L 953 1613 
Q 991 1019 1311 708 
Q 1631 397 2203 397 
Q 2534 397 2845 478 
Q 3156 559 3463 722 
L 3463 178 
Q 3153 47 2828 -22 
Q 2503 -91 2169 -91 
Q 1331 -91 842 396 
Q 353 884 353 1716 
Q 353 2575 817 3079 
Q 1281 3584 2069 3584 
Q 2775 3584 3186 3129 
Q 3597 2675 3597 1894 
z
M 3022 2063 
Q 3016 2534 2758 2815 
Q 2500 3097 2075 3097 
Q 1594 3097 1305 2825 
Q 1016 2553 972 2059 
L 3022 2063 
z
" transform="scale(0.015625)"/>
       <path id="DejaVuSans-6c" d="M 603 4863 
L 1178 4863 
L 1178 0 
L 603 0 
L 603 4863 
z
" transform="scale(0.015625)"/>
       <path id="DejaVuSans-6e" d="M 3513 2113 
L 3513 0 
L 2938 0 
L 2938 2094 
Q 2938 2591 2744 2837 
Q 2550 3084 2163 3084 
Q 1697 3084 1428 2787 
Q 1159 2491 1159 1978 
L 1159 0 
L 581 0 
L 581 3500 
L 1159 3500 
L 1159 2956 
Q 1366 3272 1645 3428 
Q 1925 3584 2291 3584 
Q 2894 3584 3203 3211 
Q 3513 2838 3513 2113 
z
" transform="scale(0.015625)"/>
       <path id="DejaVuSans-67" d="M 2906 1791 
Q 2906 2416 2648 2759 
Q 2391 3103 1925 3103 
Q 1463 3103 1205 2759 
Q 947 2416 947 1791 
Q 947 1169 1205 825 
Q 1463 481 1925 481 
Q 2391 481 2648 825 
Q 2906 1169 2906 1791 
z
M 3481 434 
Q 3481 -459 3084 -895 
Q 2688 -1331 1869 -1331 
Q 1566 -1331 1297 -1286 
Q 1028 -1241 775 -1147 
L 775 -588 
Q 1028 -725 1275 -790 
Q 1522 -856 1778 -856 
Q 2344 -856 2625 -561 
Q 2906 -266 2906 331 
L 2906 616 
Q 2728 306 2450 153 
Q 2172 0 1784 0 
Q 1141 0 747 490 
Q 353 981 353 1791 
Q 353 2603 747 3093 
Q 1141 3584 1784 3584 
Q 2172 3584 2450 3431 
Q 2728 3278 2906 2969 
L 2906 3500 
L 3481 3500 
L 3481 434 
z
" transform="scale(0.015625)"/>
       <path id="DejaVuSans-74" d="M 1172 4494 
L 1172 3500 
L 2356 3500 
L 2356 3053 
L 1172 3053 
L 1172 1153 
Q 1172 725 1289 603 
Q 1406 481 1766 481 
L 2356 481 
L 2356 0 
L 1766 0 
Q 1100 0 847 248 
Q 594 497 594 1153 
L 594 3053 
L 172 3053 
L 172 3500 
L 594 3500 
L 594 4494 
L 1172 4494 
z
" transform="scale(0.015625)"/>
       <path id="DejaVuSans-68" d="M 3513 2113 
L 3513 0 
L 2938 0 
L 2938 2094 
Q 2938 2591 2744 2837 
Q 2550 3084 2163 3084 
Q 1697 3084 1428 2787 
Q 1159 2491 1159 1978 
L 1159 0 
L 581 0 
L 581 4863 
L 1159 4863 
L 1159 2956 
Q 1366 3272 1645 3428 
Q 1925 3584 2291 3584 
Q 2894 3584 3203 3211 
Q 3513 2838 3513 2113 
z
" transform="scale(0.015625)"/>
       <path id="DejaVuSans-20" transform="scale(0.015625)"/>
       <path id="DejaVuSans-5b" d="M 550 4863 
L 1875 4863 
L 1875 4416 
L 1125 4416 
L 1125 -397 
L 1875 -397 
L 1875 -844 
L 550 -844 
L 550 4863 
z
" transform="scale(0.015625)"/>
       <path id="DejaVuSans-c5" d="M 2663 5081 
Q 2663 5278 2523 5417 
Q 2384 5556 2188 5556 
Q 1988 5556 1852 5420 
Q 1716 5284 1716 5081 
Q 1716 4884 1853 4746 
Q 1991 4609 2188 4609 
Q 2384 4609 2523 4746 
Q 2663 4884 2663 5081 
z
M 2188 4044 
L 1338 1722 
L 3041 1722 
L 2188 4044 
z
M 1716 4366 
Q 1525 4494 1428 4673 
Q 1331 4853 1331 5081 
Q 1331 5441 1579 5691 
Q 1828 5941 2188 5941 
Q 2544 5941 2795 5689 
Q 3047 5438 3047 5081 
Q 3047 4863 2948 4678 
Q 2850 4494 2663 4366 
L 4325 0 
L 3669 0 
L 3244 1197 
L 1141 1197 
L 716 0 
L 50 0 
L 1716 4366 
z
" transform="scale(0.015625)"/>
       <path id="DejaVuSans-5d" d="M 1947 4863 
L 1947 -844 
L 622 -844 
L 622 -397 
L 1369 -397 
L 1369 4416 
L 622 4416 
L 622 4863 
L 1947 4863 
z
" transform="scale(0.015625)"/>
      </defs>
      <use xlink:href="#DejaVuSans-77"/>
      <use xlink:href="#DejaVuSans-61" transform="translate(81.787109 0)"/>
      <use xlink:href="#DejaVuSans-76" transform="translate(143.066406 0)"/>
      <use xlink:href="#DejaVuSans-65" transform="translate(202.246094 0)"/>
      <use xlink:href="#DejaVuSans-6c" transform="translate(263.769531 0)"/>
      <use xlink:href="#DejaVuSans-65" transform="translate(291.552734 0)"/>
      <use xlink:href="#DejaVuSans-6e" transform="translate(353.076172 0)"/>
      <use xlink:href="#DejaVuSans-67" transform="translate(416.455078 0)"/>
      <use xlink:href="#DejaVuSans-74" transform="translate(479.931641 0)"/>
      <use xlink:href="#DejaVuSans-68" transform="translate(519.140625 0)"/>
      <use xlink:href="#DejaVuSans-20" transform="translate(582.519531 0)"/>
      <use xlink:href="#DejaVuSans-5b" transform="translate(614.306641 0)"/>
      <use xlink:href="#DejaVuSans-c5" transform="translate(653.320312 0)"/>
      <use xlink:href="#DejaVuSans-5d" transform="translate(721.728516 0)"/>
     </g>
    </g>
   </g>
   <g id="matplotlib.axis_2">
    <g id="ytick_1">
     <g id="line2d_9">
      <defs>
       <path id="m6bc6472221" d="M 0 0 
L -3.5 0 
" style="stroke: #000000; stroke-width: 0.8"/>
      </defs>
      <g>
       <use xlink:href="#m6bc6472221" x="46.965625" y="218.88" style="stroke: #000000; stroke-width: 0.8"/>
      </g>
     </g>
     <g id="text_10">
      <!-- 0 -->
      <g transform="translate(33.603125 222.679219) scale(0.1 -0.1)">
       <use xlink:href="#DejaVuSans-30"/>
      </g>
     </g>
    </g>
    <g id="ytick_2">
     <g id="line2d_10">
      <g>
       <use xlink:href="#m6bc6472221" x="46.965625" y="170.007273" style="stroke: #000000; stroke-width: 0.8"/>
      </g>
     </g>
     <g id="text_11">
      <!-- 200 -->
      <g transform="translate(20.878125 173.806491) scale(0.1 -0.1)">
       <use xlink:href="#DejaVuSans-32"/>
       <use xlink:href="#DejaVuSans-30" transform="translate(63.623047 0)"/>
       <use xlink:href="#DejaVuSans-30" transform="translate(127.246094 0)"/>
      </g>
     </g>
    </g>
    <g id="ytick_3">
     <g id="line2d_11">
      <g>
       <use xlink:href="#m6bc6472221" x="46.965625" y="121.134545" style="stroke: #000000; stroke-width: 0.8"/>
      </g>
     </g>
     <g id="text_12">
      <!-- 400 -->
      <g transform="translate(20.878125 124.933764) scale(0.1 -0.1)">
       <use xlink:href="#DejaVuSans-34"/>
       <use xlink:href="#DejaVuSans-30" transform="translate(63.623047 0)"/>
       <use xlink:href="#DejaVuSans-30" transform="translate(127.246094 0)"/>
      </g>
     </g>
    </g>
    <g id="ytick_4">
     <g id="line2d_12">
      <g>
       <use xlink:href="#m6bc6472221" x="46.965625" y="72.261818" style="stroke: #000000; stroke-width: 0.8"/>
      </g>
     </g>
     <g id="text_13">
      <!-- 600 -->
      <g transform="translate(20.878125 76.061037) scale(0.1 -0.1)">
       <defs>
        <path id="DejaVuSans-36" d="M 2113 2584 
Q 1688 2584 1439 2293 
Q 1191 2003 1191 1497 
Q 1191 994 1439 701 
Q 1688 409 2113 409 
Q 2538 409 2786 701 
Q 3034 994 3034 1497 
Q 3034 2003 2786 2293 
Q 2538 2584 2113 2584 
z
M 3366 4563 
L 3366 3988 
Q 3128 4100 2886 4159 
Q 2644 4219 2406 4219 
Q 1781 4219 1451 3797 
Q 1122 3375 1075 2522 
Q 1259 2794 1537 2939 
Q 1816 3084 2150 3084 
Q 2853 3084 3261 2657 
Q 3669 2231 3669 1497 
Q 3669 778 3244 343 
Q 2819 -91 2113 -91 
Q 1303 -91 875 529 
Q 447 1150 447 2328 
Q 447 3434 972 4092 
Q 1497 4750 2381 4750 
Q 2619 4750 2861 4703 
Q 3103 4656 3366 4563 
z
" transform="scale(0.015625)"/>
       </defs>
       <use xlink:href="#DejaVuSans-36"/>
       <use xlink:href="#DejaVuSans-30" transform="translate(63.623047 0)"/>
       <use xlink:href="#DejaVuSans-30" transform="translate(127.246094 0)"/>
      </g>
     </g>
    </g>
    <g id="ytick_5">
     <g id="line2d_13">
      <g>
       <use xlink:href="#m6bc6472221" x="46.965625" y="23.389091" style="stroke: #000000; stroke-width: 0.8"/>
      </g>
     </g>
     <g id="text_14">
      <!-- 800 -->
      <g transform="translate(20.878125 27.18831) scale(0.1 -0.1)">
       <defs>
        <path id="DejaVuSans-38" d="M 2034 2216 
Q 1584 2216 1326 1975 
Q 1069 1734 1069 1313 
Q 1069 891 1326 650 
Q 1584 409 2034 409 
Q 2484 409 2743 651 
Q 3003 894 3003 1313 
Q 3003 1734 2745 1975 
Q 2488 2216 2034 2216 
z
M 1403 2484 
Q 997 2584 770 2862 
Q 544 3141 544 3541 
Q 544 4100 942 4425 
Q 1341 4750 2034 4750 
Q 2731 4750 3128 4425 
Q 3525 4100 3525 3541 
Q 3525 3141 3298 2862 
Q 3072 2584 2669 2484 
Q 3125 2378 3379 2068 
Q 3634 1759 3634 1313 
Q 3634 634 3220 271 
Q 2806 -91 2034 -91 
Q 1263 -91 848 271 
Q 434 634 434 1313 
Q 434 1759 690 2068 
Q 947 2378 1403 2484 
z
M 1172 3481 
Q 1172 3119 1398 2916 
Q 1625 2713 2034 2713 
Q 2441 2713 2670 2916 
Q 2900 3119 2900 3481 
Q 2900 3844 2670 4047 
Q 2441 4250 2034 4250 
Q 1625 4250 1398 4047 
Q 1172 3844 1172 3481 
z
" transform="scale(0.015625)"/>
       </defs>
       <use xlink:href="#DejaVuSans-38"/>
       <use xlink:href="#DejaVuSans-30" transform="translate(63.623047 0)"/>
       <use xlink:href="#DejaVuSans-30" transform="translate(127.246094 0)"/>
      </g>
     </g>
    </g>
    <g id="text_15">
     <!-- [counts] -->
     <g transform="translate(14.798438 138.6925) rotate(-90) scale(0.1 -0.1)">
      <defs>
       <path id="DejaVuSans-63" d="M 3122 3366 
L 3122 2828 
Q 2878 2963 2633 3030 
Q 2388 3097 2138 3097 
Q 1578 3097 1268 2742 
Q 959 2388 959 1747 
Q 959 1106 1268 751 
Q 1578 397 2138 397 
Q 2388 397 2633 464 
Q 2878 531 3122 666 
L 3122 134 
Q 2881 22 2623 -34 
Q 2366 -91 2075 -91 
Q 1284 -91 818 406 
Q 353 903 353 1747 
Q 353 2603 823 3093 
Q 1294 3584 2113 3584 
Q 2378 3584 2631 3529 
Q 2884 3475 3122 3366 
z
" transform="scale(0.015625)"/>
       <path id="DejaVuSans-6f" d="M 1959 3097 
Q 1497 3097 1228 2736 
Q 959 2375 959 1747 
Q 959 1119 1226 758 
Q 1494 397 1959 397 
Q 2419 397 2687 759 
Q 2956 1122 2956 1747 
Q 2956 2369 2687 2733 
Q 2419 3097 1959 3097 
z
M 1959 3584 
Q 2709 3584 3137 3096 
Q 3566 2609 3566 1747 
Q 3566 888 3137 398 
Q 2709 -91 1959 -91 
Q 1206 -91 779 398 
Q 353 888 353 1747 
Q 353 2609 779 3096 
Q 1206 3584 1959 3584 
z
" transform="scale(0.015625)"/>
       <path id="DejaVuSans-75" d="M 544 1381 
L 544 3500 
L 1119 3500 
L 1119 1403 
Q 1119 906 1312 657 
Q 1506 409 1894 409 
Q 2359 409 2629 706 
Q 2900 1003 2900 1516 
L 2900 3500 
L 3475 3500 
L 3475 0 
L 2900 0 
L 2900 538 
Q 2691 219 2414 64 
Q 2138 -91 1772 -91 
Q 1169 -91 856 284 
Q 544 659 544 1381 
z
M 1991 3584 
L 1991 3584 
z
" transform="scale(0.015625)"/>
       <path id="DejaVuSans-73" d="M 2834 3397 
L 2834 2853 
Q 2591 2978 2328 3040 
Q 2066 3103 1784 3103 
Q 1356 3103 1142 2972 
Q 928 2841 928 2578 
Q 928 2378 1081 2264 
Q 1234 2150 1697 2047 
L 1894 2003 
Q 2506 1872 2764 1633 
Q 3022 1394 3022 966 
Q 3022 478 2636 193 
Q 2250 -91 1575 -91 
Q 1294 -91 989 -36 
Q 684 19 347 128 
L 347 722 
Q 666 556 975 473 
Q 1284 391 1588 391 
Q 1994 391 2212 530 
Q 2431 669 2431 922 
Q 2431 1156 2273 1281 
Q 2116 1406 1581 1522 
L 1381 1569 
Q 847 1681 609 1914 
Q 372 2147 372 2553 
Q 372 3047 722 3315 
Q 1072 3584 1716 3584 
Q 2034 3584 2315 3537 
Q 2597 3491 2834 3397 
z
" transform="scale(0.015625)"/>
      </defs>
      <use xlink:href="#DejaVuSans-5b"/>
      <use xlink:href="#DejaVuSans-63" transform="translate(39.013672 0)"/>
      <use xlink:href="#DejaVuSans-6f" transform="translate(93.994141 0)"/>
      <use xlink:href="#DejaVuSans-75" transform="translate(155.175781 0)"/>
      <use xlink:href="#DejaVuSans-6e" transform="translate(218.554688 0)"/>
      <use xlink:href="#DejaVuSans-74" transform="translate(281.933594 0)"/>
      <use xlink:href="#DejaVuSans-73" transform="translate(321.142578 0)"/>
      <use xlink:href="#DejaVuSans-5d" transform="translate(373.242188 0)"/>
     </g>
    </g>
   </g>
   <g id="line2d_14">
    <path d="M 62.183807 218.88 
L 69.792898 218.88 
L 69.792898 216.680727 
L 71.314716 216.680727 
L 71.314716 207.394909 
L 72.836534 207.394909 
L 72.836534 205.684364 
L 74.358352 205.684364 
L 74.358352 195.909818 
L 75.88017 195.909818 
L 75.88017 186.135273 
L 77.401989 186.135273 
L 77.401989 183.691636 
L 78.923807 183.691636 
L 78.923807 171.229091 
L 80.445625 171.229091 
L 80.445625 168.785455 
L 81.967443 168.785455 
L 81.967443 159.499636 
L 83.489261 159.499636 
L 83.489261 149.480727 
L 85.01108 149.480727 
L 85.01108 141.905455 
L 86.532898 141.905455 
L 86.532898 141.661091 
L 88.054716 141.661091 
L 88.054716 121.623273 
L 89.576534 121.623273 
L 89.576534 115.269818 
L 91.098352 115.269818 
L 91.098352 110.138182 
L 92.62017 110.138182 
L 92.62017 109.160727 
L 94.141989 109.160727 
L 94.141989 97.92 
L 95.663807 97.92 
L 95.663807 91.322182 
L 97.185625 91.322182 
L 97.185625 76.904727 
L 98.707443 76.904727 
L 98.707443 84.235636 
L 100.229261 84.235636 
L 100.229261 66.885818 
L 101.75108 66.885818 
L 101.75108 74.705455 
L 103.272898 74.705455 
L 103.272898 65.419636 
L 104.794716 65.419636 
L 104.794716 69.085091 
L 106.316534 69.085091 
L 106.316534 51.246545 
L 107.838352 51.246545 
L 107.838352 49.780364 
L 109.36017 49.780364 
L 109.36017 56.866909 
L 110.881989 56.866909 
L 110.881989 35.362909 
L 112.403807 35.362909 
L 112.403807 45.381818 
L 113.925625 45.381818 
L 113.925625 34.874182 
L 115.447443 34.874182 
L 115.447443 31.208727 
L 116.969261 31.208727 
L 116.969261 17.28 
L 118.49108 17.28 
L 118.49108 21.678545 
L 120.012898 21.678545 
L 120.012898 39.517091 
L 121.534716 39.517091 
L 121.534716 42.205091 
L 123.056534 42.205091 
L 123.056534 49.047273 
L 124.578352 49.047273 
L 124.578352 31.941818 
L 126.10017 31.941818 
L 126.10017 49.780364 
L 127.621989 49.780364 
L 127.621989 46.359273 
L 129.143807 46.359273 
L 129.143807 48.069818 
L 130.665625 48.069818 
L 130.665625 49.291636 
L 132.187443 49.291636 
L 132.187443 47.336727 
L 133.709261 47.336727 
L 133.709261 61.021091 
L 135.23108 61.021091 
L 135.23108 56.133818 
L 136.752898 56.133818 
L 136.752898 47.336727 
L 138.274716 47.336727 
L 138.274716 55.889455 
L 139.796534 55.889455 
L 139.796534 61.754182 
L 141.318352 61.754182 
L 141.318352 68.352 
L 144.361989 68.352 
L 144.361989 55.889455 
L 145.883807 55.889455 
L 145.883807 66.152727 
L 147.405625 66.152727 
L 147.405625 74.216727 
L 148.927443 74.216727 
L 148.927443 67.863273 
L 150.449261 67.863273 
L 150.449261 71.528727 
L 151.97108 71.528727 
L 151.97108 62.242909 
L 153.492898 62.242909 
L 153.492898 74.461091 
L 155.014716 74.461091 
L 155.014716 59.799273 
L 156.536534 59.799273 
L 156.536534 66.641455 
L 158.058352 66.641455 
L 158.058352 73.239273 
L 159.58017 73.239273 
L 159.58017 72.017455 
L 161.101989 72.017455 
L 161.101989 73.239273 
L 162.623807 73.239273 
L 162.623807 69.329455 
L 164.145625 69.329455 
L 164.145625 75.438545 
L 165.667443 75.438545 
L 165.667443 80.814545 
L 167.189261 80.814545 
L 167.189261 75.682909 
L 168.71108 75.682909 
L 168.71108 65.908364 
L 170.232898 65.908364 
L 170.232898 74.705455 
L 171.754716 74.705455 
L 171.754716 88.389818 
L 173.276534 88.389818 
L 173.276534 75.927273 
L 174.798352 75.927273 
L 174.798352 74.949818 
L 176.32017 74.949818 
L 176.32017 87.168 
L 177.841989 87.168 
L 177.841989 91.566545 
L 180.885625 91.566545 
L 180.885625 105.739636 
L 183.929261 105.739636 
L 183.929261 106.472727 
L 185.45108 106.472727 
L 185.45108 108.427636 
L 186.972898 108.427636 
L 186.972898 125.777455 
L 188.494716 125.777455 
L 188.494716 130.909091 
L 190.016534 130.909091 
L 190.016534 143.371636 
L 191.538352 143.371636 
L 191.538352 145.570909 
L 193.06017 145.570909 
L 193.06017 157.056 
L 194.581989 157.056 
L 194.581989 161.698909 
L 196.103807 161.698909 
L 196.103807 159.255273 
L 197.625625 159.255273 
L 197.625625 179.293091 
L 199.147443 179.293091 
L 199.147443 179.537455 
L 200.669261 179.537455 
L 200.669261 181.492364 
L 202.19108 181.492364 
L 202.19108 189.800727 
L 203.712898 189.800727 
L 203.712898 198.842182 
L 205.234716 198.842182 
L 205.234716 202.018909 
L 206.756534 202.018909 
L 206.756534 209.594182 
L 208.278352 209.594182 
L 208.278352 211.304727 
L 209.80017 211.304727 
L 209.80017 215.458909 
L 211.321989 215.458909 
L 211.321989 217.413818 
L 212.843807 217.413818 
L 212.843807 211.304727 
L 214.365625 211.304727 
L 214.365625 209.349818 
L 215.887443 209.349818 
L 215.887443 201.041455 
L 217.409261 201.041455 
L 217.409261 190.533818 
L 218.93108 190.533818 
L 218.93108 182.958545 
L 220.452898 182.958545 
L 220.452898 181.248 
L 221.974716 181.248 
L 221.974716 182.469818 
L 223.496534 182.469818 
L 223.496534 171.717818 
L 225.018352 171.717818 
L 225.018352 157.544727 
L 226.54017 157.544727 
L 226.54017 163.898182 
L 228.061989 163.898182 
L 228.061989 161.943273 
L 229.583807 161.943273 
L 229.583807 158.033455 
L 231.105625 158.033455 
L 231.105625 150.946909 
L 232.627443 150.946909 
L 232.627443 142.394182 
L 234.149261 142.394182 
L 234.149261 139.461818 
L 235.67108 139.461818 
L 235.67108 129.198545 
L 237.192898 129.198545 
L 237.192898 129.687273 
L 238.714716 129.687273 
L 238.714716 121.134545 
L 240.236534 121.134545 
L 240.236534 128.465455 
L 241.758352 128.465455 
L 241.758352 123.089455 
L 243.28017 123.089455 
L 243.28017 108.427636 
L 244.801989 108.427636 
L 244.801989 115.758545 
L 246.323807 115.758545 
L 246.323807 108.916364 
L 247.845625 108.916364 
L 247.845625 111.848727 
L 249.367443 111.848727 
L 249.367443 103.051636 
L 250.889261 103.051636 
L 250.889261 112.581818 
L 252.41108 112.581818 
L 252.41108 105.495273 
L 253.932898 105.495273 
L 253.932898 103.051636 
L 255.454716 103.051636 
L 255.454716 97.186909 
L 256.976534 97.186909 
L 256.976534 91.077818 
L 258.498352 91.077818 
L 258.498352 88.878545 
L 260.02017 88.878545 
L 260.02017 92.788364 
L 261.541989 92.788364 
L 261.541989 90.833455 
L 263.063807 90.833455 
L 263.063807 95.232 
L 264.585625 95.232 
L 264.585625 105.250909 
L 266.107443 105.250909 
L 266.107443 98.408727 
L 267.629261 98.408727 
L 267.629261 94.987636 
L 269.15108 94.987636 
L 269.15108 108.183273 
L 270.672898 108.183273 
L 270.672898 103.051636 
L 272.194716 103.051636 
L 272.194716 104.762182 
L 273.716534 104.762182 
L 273.716534 102.318545 
L 275.238352 102.318545 
L 275.238352 102.074182 
L 276.76017 102.074182 
L 276.76017 109.160727 
L 278.281989 109.160727 
L 278.281989 113.559273 
L 279.803807 113.559273 
L 279.803807 122.112 
L 281.325625 122.112 
L 281.325625 123.089455 
L 282.847443 123.089455 
L 282.847443 112.093091 
L 284.369261 112.093091 
L 284.369261 115.758545 
L 285.89108 115.758545 
L 285.89108 120.401455 
L 287.412898 120.401455 
L 287.412898 123.578182 
L 288.934716 123.578182 
L 288.934716 118.446545 
L 290.456534 118.446545 
L 290.456534 122.845091 
L 291.978352 122.845091 
L 291.978352 121.378909 
L 293.50017 121.378909 
L 293.50017 131.886545 
L 295.021989 131.886545 
L 295.021989 129.198545 
L 296.543807 129.198545 
L 296.543807 138.973091 
L 298.065625 138.973091 
L 298.065625 141.661091 
L 299.587443 141.661091 
L 299.587443 133.108364 
L 301.109261 133.108364 
L 301.109261 137.262545 
L 302.63108 137.262545 
L 302.63108 139.950545 
L 304.152898 139.950545 
L 304.152898 139.217455 
L 305.674716 139.217455 
L 305.674716 144.837818 
L 307.196534 144.837818 
L 307.196534 143.616 
L 308.718352 143.616 
L 308.718352 148.258909 
L 310.24017 148.258909 
L 310.24017 150.458182 
L 311.761989 150.458182 
L 311.761989 147.037091 
L 313.283807 147.037091 
L 313.283807 149.969455 
L 314.805625 149.969455 
L 314.805625 145.082182 
L 316.327443 145.082182 
L 316.327443 155.589818 
L 317.849261 155.589818 
L 317.849261 164.142545 
L 319.37108 164.142545 
L 319.37108 159.255273 
L 320.892898 159.255273 
L 320.892898 162.187636 
L 322.414716 162.187636 
L 322.414716 168.296727 
L 323.936534 168.296727 
L 323.936534 170.251636 
L 325.458352 170.251636 
L 325.458352 173.184 
L 326.98017 173.184 
L 326.98017 170.251636 
L 328.501989 170.251636 
L 328.501989 173.917091 
L 330.023807 173.917091 
L 330.023807 182.714182 
L 331.545625 182.714182 
L 331.545625 180.270545 
L 333.067443 180.270545 
L 333.067443 192.733091 
L 336.11108 192.733091 
L 336.11108 189.800727 
L 337.632898 189.800727 
L 337.632898 194.443636 
L 339.154716 194.443636 
L 339.154716 197.376 
L 340.676534 197.376 
L 340.676534 201.285818 
L 342.198352 201.285818 
L 342.198352 203.729455 
L 343.72017 203.729455 
L 343.72017 206.173091 
L 345.241989 206.173091 
L 345.241989 206.661818 
L 346.763807 206.661818 
L 346.763807 210.816 
L 348.285625 210.816 
L 348.285625 212.526545 
L 349.807443 212.526545 
L 349.807443 216.436364 
L 351.329261 216.436364 
L 351.329261 213.992727 
L 352.85108 213.992727 
L 352.85108 216.925091 
L 355.894716 216.925091 
L 355.894716 218.146909 
L 357.416534 218.146909 
L 357.416534 218.635636 
L 358.938352 218.635636 
L 358.938352 218.88 
L 366.547443 218.88 
L 366.547443 218.88 
" clip-path="url(#p151d021c81)" style="fill: none; stroke: #1f77b4; stroke-width: 1.5; stroke-linecap: square"/>
   </g>
   <g id="line2d_15">
    <path d="M 62.183807 218.88 
L 69.792898 218.88 
L 69.792898 216.192 
L 71.314716 216.192 
L 71.314716 207.639273 
L 72.836534 207.639273 
L 72.836534 204.706909 
L 74.358352 204.706909 
L 74.358352 196.642909 
L 75.88017 196.642909 
L 75.88017 186.379636 
L 77.401989 186.379636 
L 77.401989 183.936 
L 78.923807 183.936 
L 78.923807 171.473455 
L 80.445625 171.473455 
L 80.445625 167.319273 
L 81.967443 167.319273 
L 81.967443 160.232727 
L 83.489261 160.232727 
L 83.489261 149.236364 
L 85.01108 149.236364 
L 85.01108 146.548364 
L 86.532898 146.548364 
L 86.532898 139.217455 
L 88.054716 139.217455 
L 88.054716 119.668364 
L 89.576534 119.668364 
L 89.576534 113.314909 
L 91.098352 113.314909 
L 91.098352 112.337455 
L 92.62017 112.337455 
L 92.62017 108.672 
L 94.141989 108.672 
L 94.141989 99.630545 
L 95.663807 99.630545 
L 95.663807 86.190545 
L 97.185625 86.190545 
L 97.185625 82.280727 
L 98.707443 82.280727 
L 98.707443 81.058909 
L 100.229261 81.058909 
L 100.229261 75.682909 
L 101.75108 75.682909 
L 101.75108 66.641455 
L 103.272898 66.641455 
L 103.272898 67.618909 
L 104.794716 67.618909 
L 104.794716 62.487273 
L 106.316534 62.487273 
L 106.316534 49.780364 
L 107.838352 49.780364 
L 107.838352 51.246545 
L 109.36017 51.246545 
L 109.36017 56.622545 
L 110.881989 56.622545 
L 110.881989 42.938182 
L 112.403807 42.938182 
L 112.403807 39.761455 
L 113.925625 39.761455 
L 113.925625 38.295273 
L 115.447443 38.295273 
L 115.447443 20.456727 
L 116.969261 20.456727 
L 116.969261 26.321455 
L 118.49108 26.321455 
L 118.49108 25.832727 
L 120.012898 25.832727 
L 120.012898 36.829091 
L 121.534716 36.829091 
L 121.534716 40.983273 
L 123.056534 40.983273 
L 123.056534 43.182545 
L 124.578352 43.182545 
L 124.578352 39.272727 
L 126.10017 39.272727 
L 126.10017 49.047273 
L 127.621989 49.047273 
L 127.621989 47.092364 
L 129.143807 47.092364 
L 129.143807 44.893091 
L 130.665625 44.893091 
L 130.665625 52.957091 
L 132.187443 52.957091 
L 132.187443 50.269091 
L 133.709261 50.269091 
L 133.709261 61.021091 
L 135.23108 61.021091 
L 135.23108 51.735273 
L 136.752898 51.735273 
L 136.752898 47.336727 
L 138.274716 47.336727 
L 138.274716 58.333091 
L 139.796534 58.333091 
L 139.796534 63.953455 
L 141.318352 63.953455 
L 141.318352 62.976 
L 142.84017 62.976 
L 142.84017 70.062545 
L 144.361989 70.062545 
L 144.361989 58.577455 
L 145.883807 58.577455 
L 145.883807 60.288 
L 147.405625 60.288 
L 147.405625 72.750545 
L 148.927443 72.750545 
L 148.927443 67.863273 
L 150.449261 67.863273 
L 150.449261 70.551273 
L 151.97108 70.551273 
L 151.97108 71.04 
L 153.492898 71.04 
L 153.492898 66.397091 
L 155.014716 66.397091 
L 155.014716 68.840727 
L 156.536534 68.840727 
L 156.536534 56.133818 
L 158.058352 56.133818 
L 158.058352 80.570182 
L 159.58017 80.570182 
L 159.58017 70.551273 
L 161.101989 70.551273 
L 161.101989 65.908364 
L 162.623807 65.908364 
L 162.623807 79.592727 
L 164.145625 79.592727 
L 164.145625 76.904727 
L 165.667443 76.904727 
L 165.667443 76.171636 
L 167.189261 76.171636 
L 167.189261 74.216727 
L 168.71108 74.216727 
L 168.71108 73.483636 
L 170.232898 73.483636 
L 170.232898 78.615273 
L 171.754716 78.615273 
L 171.754716 80.325818 
L 173.276534 80.325818 
L 173.276534 74.949818 
L 174.798352 74.949818 
L 174.798352 80.814545 
L 176.32017 80.814545 
L 176.32017 83.258182 
L 177.841989 83.258182 
L 177.841989 90.589091 
L 179.363807 90.589091 
L 179.363807 90.100364 
L 180.885625 90.100364 
L 180.885625 99.386182 
L 182.407443 99.386182 
L 182.407443 113.314909 
L 183.929261 113.314909 
L 183.929261 102.562909 
L 185.45108 102.562909 
L 185.45108 116.491636 
L 186.972898 116.491636 
L 186.972898 121.867636 
L 188.494716 121.867636 
L 188.494716 130.664727 
L 190.016534 130.664727 
L 190.016534 138.973091 
L 191.538352 138.973091 
L 191.538352 148.503273 
L 193.06017 148.503273 
L 193.06017 156.567273 
L 194.581989 156.567273 
L 194.581989 163.409455 
L 196.103807 163.409455 
L 196.103807 161.454545 
L 197.625625 161.454545 
L 197.625625 178.804364 
L 199.147443 178.804364 
L 199.147443 177.338182 
L 200.669261 177.338182 
L 200.669261 181.492364 
L 202.19108 181.492364 
L 202.19108 191.755636 
L 203.712898 191.755636 
L 203.712898 196.642909 
L 205.234716 196.642909 
L 205.234716 203.485091 
L 206.756534 203.485091 
L 206.756534 208.616727 
L 208.278352 208.616727 
L 208.278352 212.037818 
L 209.80017 212.037818 
L 209.80017 215.214545 
L 211.321989 215.214545 
L 211.321989 216.925091 
L 212.843807 216.925091 
L 212.843807 211.060364 
L 214.365625 211.060364 
L 214.365625 209.349818 
L 215.887443 209.349818 
L 215.887443 200.797091 
L 217.409261 200.797091 
L 217.409261 190.778182 
L 218.93108 190.778182 
L 218.93108 184.180364 
L 220.452898 184.180364 
L 220.452898 180.759273 
L 221.974716 180.759273 
L 221.974716 182.714182 
L 223.496534 182.714182 
L 223.496534 167.563636 
L 225.018352 167.563636 
L 225.018352 160.477091 
L 226.54017 160.477091 
L 226.54017 165.853091 
L 228.061989 165.853091 
L 228.061989 160.477091 
L 229.583807 160.477091 
L 229.583807 159.255273 
L 231.105625 159.255273 
L 231.105625 146.548364 
L 232.627443 146.548364 
L 232.627443 143.616 
L 234.149261 143.616 
L 234.149261 139.706182 
L 235.67108 139.706182 
L 235.67108 130.176 
L 237.192898 130.176 
L 237.192898 128.954182 
L 238.714716 128.954182 
L 238.714716 120.401455 
L 240.236534 120.401455 
L 240.236534 133.597091 
L 241.758352 133.597091 
L 241.758352 117.957818 
L 243.28017 117.957818 
L 243.28017 110.382545 
L 244.801989 110.382545 
L 244.801989 117.713455 
L 246.323807 117.713455 
L 246.323807 108.183273 
L 247.845625 108.183273 
L 247.845625 107.694545 
L 249.367443 107.694545 
L 249.367443 107.205818 
L 250.889261 107.205818 
L 250.889261 112.581818 
L 252.41108 112.581818 
L 252.41108 107.938909 
L 253.932898 107.938909 
L 253.932898 96.942545 
L 255.454716 96.942545 
L 255.454716 95.720727 
L 256.976534 95.720727 
L 256.976534 98.653091 
L 258.498352 98.653091 
L 258.498352 83.746909 
L 260.02017 83.746909 
L 260.02017 97.675636 
L 261.541989 97.675636 
L 261.541989 83.013818 
L 263.063807 83.013818 
L 263.063807 100.608 
L 264.585625 100.608 
L 264.585625 98.897455 
L 266.107443 98.897455 
L 266.107443 96.698182 
L 267.629261 96.698182 
L 267.629261 107.450182 
L 269.15108 107.450182 
L 269.15108 98.897455 
L 270.672898 98.897455 
L 270.672898 106.961455 
L 272.194716 106.961455 
L 272.194716 99.630545 
L 273.716534 99.630545 
L 273.716534 105.006545 
L 275.238352 105.006545 
L 275.238352 103.784727 
L 276.76017 103.784727 
L 276.76017 106.961455 
L 278.281989 106.961455 
L 278.281989 119.179636 
L 279.803807 119.179636 
L 279.803807 123.333818 
L 281.325625 123.333818 
L 281.325625 110.138182 
L 282.847443 110.138182 
L 282.847443 121.867636 
L 284.369261 121.867636 
L 284.369261 114.781091 
L 285.89108 114.781091 
L 285.89108 119.179636 
L 287.412898 119.179636 
L 287.412898 120.645818 
L 288.934716 120.645818 
L 288.934716 121.378909 
L 290.456534 121.378909 
L 290.456534 123.578182 
L 291.978352 123.578182 
L 291.978352 124.555636 
L 293.50017 124.555636 
L 293.50017 127.243636 
L 295.021989 127.243636 
L 295.021989 131.642182 
L 296.543807 131.642182 
L 296.543807 135.552 
L 298.065625 135.552 
L 298.065625 142.149818 
L 299.587443 142.149818 
L 299.587443 137.262545 
L 301.109261 137.262545 
L 301.109261 136.773818 
L 302.63108 136.773818 
L 302.63108 142.638545 
L 304.152898 142.638545 
L 304.152898 137.506909 
L 305.674716 137.506909 
L 305.674716 144.593455 
L 307.196534 144.593455 
L 307.196534 144.837818 
L 308.718352 144.837818 
L 308.718352 146.304 
L 310.24017 146.304 
L 310.24017 149.236364 
L 311.761989 149.236364 
L 311.761989 149.480727 
L 313.283807 149.480727 
L 313.283807 147.525818 
L 314.805625 147.525818 
L 314.805625 152.413091 
L 316.327443 152.413091 
L 316.327443 153.634909 
L 317.849261 153.634909 
L 317.849261 155.101091 
L 319.37108 155.101091 
L 319.37108 164.142545 
L 320.892898 164.142545 
L 320.892898 165.12 
L 323.936534 165.12 
L 323.936534 171.229091 
L 325.458352 171.229091 
L 325.458352 172.450909 
L 326.98017 172.450909 
L 326.98017 169.274182 
L 328.501989 169.274182 
L 328.501989 176.605091 
L 330.023807 176.605091 
L 330.023807 180.759273 
L 331.545625 180.759273 
L 331.545625 181.492364 
L 333.067443 181.492364 
L 333.067443 190.778182 
L 334.589261 190.778182 
L 334.589261 192 
L 336.11108 192 
L 336.11108 190.289455 
L 337.632898 190.289455 
L 337.632898 194.688 
L 339.154716 194.688 
L 339.154716 197.131636 
L 340.676534 197.131636 
L 340.676534 203.240727 
L 342.198352 203.240727 
L 342.198352 202.996364 
L 343.72017 202.996364 
L 343.72017 206.173091 
L 345.241989 206.173091 
L 345.241989 205.928727 
L 346.763807 205.928727 
L 346.763807 211.060364 
L 348.285625 211.060364 
L 348.285625 212.526545 
L 349.807443 212.526545 
L 349.807443 216.192 
L 351.329261 216.192 
L 351.329261 214.481455 
L 352.85108 214.481455 
L 352.85108 216.192 
L 354.372898 216.192 
L 354.372898 217.169455 
L 355.894716 217.169455 
L 355.894716 218.146909 
L 357.416534 218.146909 
L 357.416534 218.635636 
L 360.46017 218.635636 
L 360.46017 218.88 
L 366.547443 218.88 
L 366.547443 218.88 
" clip-path="url(#p151d021c81)" style="fill: none; stroke: #ff7f0e; stroke-width: 1.5; stroke-linecap: square"/>
   </g>
   <g id="patch_3">
    <path d="M 46.965625 228.96 
L 46.965625 7.2 
" style="fill: none; stroke: #000000; stroke-width: 0.8; stroke-linejoin: miter; stroke-linecap: square"/>
   </g>
   <g id="patch_4">
    <path d="M 381.765625 228.96 
L 381.765625 7.2 
" style="fill: none; stroke: #000000; stroke-width: 0.8; stroke-linejoin: miter; stroke-linecap: square"/>
   </g>
   <g id="patch_5">
    <path d="M 46.965625 228.96 
L 381.765625 228.96 
" style="fill: none; stroke: #000000; stroke-width: 0.8; stroke-linejoin: miter; stroke-linecap: square"/>
   </g>
   <g id="patch_6">
    <path d="M 46.965625 7.2 
L 381.765625 7.2 
" style="fill: none; stroke: #000000; stroke-width: 0.8; stroke-linejoin: miter; stroke-linecap: square"/>
   </g>
   <g id="legend_1">
    <g id="patch_7">
     <path d="M 277.7625 44.834375 
L 374.765625 44.834375 
Q 376.765625 44.834375 376.765625 42.834375 
L 376.765625 14.2 
Q 376.765625 12.2 374.765625 12.2 
L 277.7625 12.2 
Q 275.7625 12.2 275.7625 14.2 
L 275.7625 42.834375 
Q 275.7625 44.834375 277.7625 44.834375 
z
" style="fill: #ffffff; opacity: 0.8; stroke: #cccccc; stroke-linejoin: miter"/>
    </g>
    <g id="line2d_16">
     <path d="M 279.7625 20.298437 
L 279.7625 20.298437 
L 289.7625 20.298437 
L 289.7625 20.298437 
L 299.7625 20.298437 
" style="fill: none; stroke: #1f77b4; stroke-width: 1.5; stroke-linecap: square"/>
    </g>
    <g id="text_16">
     <!-- wfm -->
     <g transform="translate(307.7625 23.798437) scale(0.1 -0.1)">
      <defs>
       <path id="DejaVuSans-66" d="M 2375 4863 
L 2375 4384 
L 1825 4384 
Q 1516 4384 1395 4259 
Q 1275 4134 1275 3809 
L 1275 3500 
L 2222 3500 
L 2222 3053 
L 1275 3053 
L 1275 0 
L 697 0 
L 697 3053 
L 147 3053 
L 147 3500 
L 697 3500 
L 697 3744 
Q 697 4328 969 4595 
Q 1241 4863 1831 4863 
L 2375 4863 
z
" transform="scale(0.015625)"/>
       <path id="DejaVuSans-6d" d="M 3328 2828 
Q 3544 3216 3844 3400 
Q 4144 3584 4550 3584 
Q 5097 3584 5394 3201 
Q 5691 2819 5691 2113 
L 5691 0 
L 5113 0 
L 5113 2094 
Q 5113 2597 4934 2840 
Q 4756 3084 4391 3084 
Q 3944 3084 3684 2787 
Q 3425 2491 3425 1978 
L 3425 0 
L 2847 0 
L 2847 2094 
Q 2847 2600 2669 2842 
Q 2491 3084 2119 3084 
Q 1678 3084 1418 2786 
Q 1159 2488 1159 1978 
L 1159 0 
L 581 0 
L 581 3500 
L 1159 3500 
L 1159 2956 
Q 1356 3278 1631 3431 
Q 1906 3584 2284 3584 
Q 2666 3584 2933 3390 
Q 3200 3197 3328 2828 
z
" transform="scale(0.015625)"/>
      </defs>
      <use xlink:href="#DejaVuSans-77"/>
      <use xlink:href="#DejaVuSans-66" transform="translate(81.787109 0)"/>
      <use xlink:href="#DejaVuSans-6d" transform="translate(116.992188 0)"/>
     </g>
    </g>
    <g id="line2d_17">
     <path d="M 279.7625 34.976562 
L 279.7625 34.976562 
L 289.7625 34.976562 
L 289.7625 34.976562 
L 299.7625 34.976562 
" style="fill: none; stroke: #ff7f0e; stroke-width: 1.5; stroke-linecap: square"/>
    </g>
    <g id="text_17">
     <!-- ground_truth -->
     <g transform="translate(307.7625 38.476562) scale(0.1 -0.1)">
      <defs>
       <path id="DejaVuSans-72" d="M 2631 2963 
Q 2534 3019 2420 3045 
Q 2306 3072 2169 3072 
Q 1681 3072 1420 2755 
Q 1159 2438 1159 1844 
L 1159 0 
L 581 0 
L 581 3500 
L 1159 3500 
L 1159 2956 
Q 1341 3275 1631 3429 
Q 1922 3584 2338 3584 
Q 2397 3584 2469 3576 
Q 2541 3569 2628 3553 
L 2631 2963 
z
" transform="scale(0.015625)"/>
       <path id="DejaVuSans-64" d="M 2906 2969 
L 2906 4863 
L 3481 4863 
L 3481 0 
L 2906 0 
L 2906 525 
Q 2725 213 2448 61 
Q 2172 -91 1784 -91 
Q 1150 -91 751 415 
Q 353 922 353 1747 
Q 353 2572 751 3078 
Q 1150 3584 1784 3584 
Q 2172 3584 2448 3432 
Q 2725 3281 2906 2969 
z
M 947 1747 
Q 947 1113 1208 752 
Q 1469 391 1925 391 
Q 2381 391 2643 752 
Q 2906 1113 2906 1747 
Q 2906 2381 2643 2742 
Q 2381 3103 1925 3103 
Q 1469 3103 1208 2742 
Q 947 2381 947 1747 
z
" transform="scale(0.015625)"/>
       <path id="DejaVuSans-5f" d="M 3263 -1063 
L 3263 -1509 
L -63 -1509 
L -63 -1063 
L 3263 -1063 
z
" transform="scale(0.015625)"/>
      </defs>
      <use xlink:href="#DejaVuSans-67"/>
      <use xlink:href="#DejaVuSans-72" transform="translate(63.476562 0)"/>
      <use xlink:href="#DejaVuSans-6f" transform="translate(102.339844 0)"/>
      <use xlink:href="#DejaVuSans-75" transform="translate(163.521484 0)"/>
      <use xlink:href="#DejaVuSans-6e" transform="translate(226.900391 0)"/>
      <use xlink:href="#DejaVuSans-64" transform="translate(290.279297 0)"/>
      <use xlink:href="#DejaVuSans-5f" transform="translate(353.755859 0)"/>
      <use xlink:href="#DejaVuSans-74" transform="translate(403.755859 0)"/>
      <use xlink:href="#DejaVuSans-72" transform="translate(442.964844 0)"/>
      <use xlink:href="#DejaVuSans-75" transform="translate(484.078125 0)"/>
      <use xlink:href="#DejaVuSans-74" transform="translate(547.457031 0)"/>
      <use xlink:href="#DejaVuSans-68" transform="translate(586.666016 0)"/>
     </g>
    </g>
   </g>
  </g>
 </g>
 <defs>
  <clipPath id="p151d021c81">
   <rect x="46.965625" y="7.2" width="334.8" height="221.76"/>
  </clipPath>
 </defs>
</svg>
