<?xml version="1.0" encoding="utf-8" standalone="no"?>
<!DOCTYPE svg PUBLIC "-//W3C//DTD SVG 1.1//EN"
  "http://www.w3.org/Graphics/SVG/1.1/DTD/svg11.dtd">
<svg xmlns:xlink="http://www.w3.org/1999/xlink" width="872.39952pt" height="296.39952pt" viewBox="0 0 872.39952 296.39952" xmlns="http://www.w3.org/2000/svg" version="1.1">
 <metadata>
  <rdf:RDF xmlns:dc="http://purl.org/dc/elements/1.1/" xmlns:cc="http://creativecommons.org/ns#" xmlns:rdf="http://www.w3.org/1999/02/22-rdf-syntax-ns#">
   <cc:Work>
    <dc:type rdf:resource="http://purl.org/dc/dcmitype/StillImage"/>
    <dc:date>2025-12-05T13:47:15.447510</dc:date>
    <dc:format>image/svg+xml</dc:format>
    <dc:creator>
     <cc:Agent>
      <dc:title>Matplotlib v3.10.7, https://matplotlib.org/</dc:title>
     </cc:Agent>
    </dc:creator>
   </cc:Work>
  </rdf:RDF>
 </metadata>
 <defs>
  <style type="text/css">*{stroke-linejoin: round; stroke-linecap: butt}</style>
 </defs>
 <g id="figure_1">
  <g id="patch_1">
   <path d="M 0 296.39952 
L 872.39952 296.39952 
L 872.39952 0 
L 0 0 
z
" style="fill: #ffffff"/>
  </g>
  <g id="axes_1">
   <g id="patch_2">
    <path d="M 46.965625 257.158895 
L 414.59976 257.158895 
L 414.59976 22.318125 
L 46.965625 22.318125 
z
" style="fill: #ffffff"/>
   </g>
   <g id="matplotlib.axis_1">
    <g id="xtick_1">
     <g id="line2d_1">
      <defs>
       <path id="m141ef94a36" d="M 0 0 
L 0 3.5 
" style="stroke: #000000; stroke-width: 0.8"/>
      </defs>
      <g>
       <use xlink:href="#m141ef94a36" x="81.266418" y="257.158895" style="stroke: #000000; stroke-width: 0.8"/>
      </g>
     </g>
     <g id="text_1">
      <!-- 1.0 -->
      <g transform="translate(73.314855 271.757332) scale(0.1 -0.1)">
       <defs>
        <path id="DejaVuSans-31" d="M 794 531 
L 1825 531 
L 1825 4091 
L 703 3866 
L 703 4441 
L 1819 4666 
L 2450 4666 
L 2450 531 
L 3481 531 
L 3481 0 
L 794 0 
L 794 531 
z
" transform="scale(0.015625)"/>
        <path id="DejaVuSans-2e" d="M 684 794 
L 1344 794 
L 1344 0 
L 684 0 
L 684 794 
z
" transform="scale(0.015625)"/>
        <path id="DejaVuSans-30" d="M 2034 4250 
Q 1547 4250 1301 3770 
Q 1056 3291 1056 2328 
Q 1056 1369 1301 889 
Q 1547 409 2034 409 
Q 2525 409 2770 889 
Q 3016 1369 3016 2328 
Q 3016 3291 2770 3770 
Q 2525 4250 2034 4250 
z
M 2034 4750 
Q 2819 4750 3233 4129 
Q 3647 3509 3647 2328 
Q 3647 1150 3233 529 
Q 2819 -91 2034 -91 
Q 1250 -91 836 529 
Q 422 1150 422 2328 
Q 422 3509 836 4129 
Q 1250 4750 2034 4750 
z
" transform="scale(0.015625)"/>
       </defs>
       <use xlink:href="#DejaVuSans-31"/>
       <use xlink:href="#DejaVuSans-2e" transform="translate(63.623047 0)"/>
       <use xlink:href="#DejaVuSans-30" transform="translate(95.410156 0)"/>
      </g>
     </g>
    </g>
    <g id="xtick_2">
     <g id="line2d_2">
      <g>
       <use xlink:href="#m141ef94a36" x="125.241793" y="257.158895" style="stroke: #000000; stroke-width: 0.8"/>
      </g>
     </g>
     <g id="text_2">
      <!-- 1.5 -->
      <g transform="translate(117.29023 271.757332) scale(0.1 -0.1)">
       <defs>
        <path id="DejaVuSans-35" d="M 691 4666 
L 3169 4666 
L 3169 4134 
L 1269 4134 
L 1269 2991 
Q 1406 3038 1543 3061 
Q 1681 3084 1819 3084 
Q 2600 3084 3056 2656 
Q 3513 2228 3513 1497 
Q 3513 744 3044 326 
Q 2575 -91 1722 -91 
Q 1428 -91 1123 -41 
Q 819 9 494 109 
L 494 744 
Q 775 591 1075 516 
Q 1375 441 1709 441 
Q 2250 441 2565 725 
Q 2881 1009 2881 1497 
Q 2881 1984 2565 2268 
Q 2250 2553 1709 2553 
Q 1456 2553 1204 2497 
Q 953 2441 691 2322 
L 691 4666 
z
" transform="scale(0.015625)"/>
       </defs>
       <use xlink:href="#DejaVuSans-31"/>
       <use xlink:href="#DejaVuSans-2e" transform="translate(63.623047 0)"/>
       <use xlink:href="#DejaVuSans-35" transform="translate(95.410156 0)"/>
      </g>
     </g>
    </g>
    <g id="xtick_3">
     <g id="line2d_3">
      <g>
       <use xlink:href="#m141ef94a36" x="169.217168" y="257.158895" style="stroke: #000000; stroke-width: 0.8"/>
      </g>
     </g>
     <g id="text_3">
      <!-- 2.0 -->
      <g transform="translate(161.265605 271.757332) scale(0.1 -0.1)">
       <defs>
        <path id="DejaVuSans-32" d="M 1228 531 
L 3431 531 
L 3431 0 
L 469 0 
L 469 531 
Q 828 903 1448 1529 
Q 2069 2156 2228 2338 
Q 2531 2678 2651 2914 
Q 2772 3150 2772 3378 
Q 2772 3750 2511 3984 
Q 2250 4219 1831 4219 
Q 1534 4219 1204 4116 
Q 875 4013 500 3803 
L 500 4441 
Q 881 4594 1212 4672 
Q 1544 4750 1819 4750 
Q 2544 4750 2975 4387 
Q 3406 4025 3406 3419 
Q 3406 3131 3298 2873 
Q 3191 2616 2906 2266 
Q 2828 2175 2409 1742 
Q 1991 1309 1228 531 
z
" transform="scale(0.015625)"/>
       </defs>
       <use xlink:href="#DejaVuSans-32"/>
       <use xlink:href="#DejaVuSans-2e" transform="translate(63.623047 0)"/>
       <use xlink:href="#DejaVuSans-30" transform="translate(95.410156 0)"/>
      </g>
     </g>
    </g>
    <g id="xtick_4">
     <g id="line2d_4">
      <g>
       <use xlink:href="#m141ef94a36" x="213.192543" y="257.158895" style="stroke: #000000; stroke-width: 0.8"/>
      </g>
     </g>
     <g id="text_4">
      <!-- 2.5 -->
      <g transform="translate(205.24098 271.757332) scale(0.1 -0.1)">
       <use xlink:href="#DejaVuSans-32"/>
       <use xlink:href="#DejaVuSans-2e" transform="translate(63.623047 0)"/>
       <use xlink:href="#DejaVuSans-35" transform="translate(95.410156 0)"/>
      </g>
     </g>
    </g>
    <g id="xtick_5">
     <g id="line2d_5">
      <g>
       <use xlink:href="#m141ef94a36" x="257.167918" y="257.158895" style="stroke: #000000; stroke-width: 0.8"/>
      </g>
     </g>
     <g id="text_5">
      <!-- 3.0 -->
      <g transform="translate(249.216355 271.757332) scale(0.1 -0.1)">
       <defs>
        <path id="DejaVuSans-33" d="M 2597 2516 
Q 3050 2419 3304 2112 
Q 3559 1806 3559 1356 
Q 3559 666 3084 287 
Q 2609 -91 1734 -91 
Q 1441 -91 1130 -33 
Q 819 25 488 141 
L 488 750 
Q 750 597 1062 519 
Q 1375 441 1716 441 
Q 2309 441 2620 675 
Q 2931 909 2931 1356 
Q 2931 1769 2642 2001 
Q 2353 2234 1838 2234 
L 1294 2234 
L 1294 2753 
L 1863 2753 
Q 2328 2753 2575 2939 
Q 2822 3125 2822 3475 
Q 2822 3834 2567 4026 
Q 2313 4219 1838 4219 
Q 1578 4219 1281 4162 
Q 984 4106 628 3988 
L 628 4550 
Q 988 4650 1302 4700 
Q 1616 4750 1894 4750 
Q 2613 4750 3031 4423 
Q 3450 4097 3450 3541 
Q 3450 3153 3228 2886 
Q 3006 2619 2597 2516 
z
" transform="scale(0.015625)"/>
       </defs>
       <use xlink:href="#DejaVuSans-33"/>
       <use xlink:href="#DejaVuSans-2e" transform="translate(63.623047 0)"/>
       <use xlink:href="#DejaVuSans-30" transform="translate(95.410156 0)"/>
      </g>
     </g>
    </g>
    <g id="xtick_6">
     <g id="line2d_6">
      <g>
       <use xlink:href="#m141ef94a36" x="301.143293" y="257.158895" style="stroke: #000000; stroke-width: 0.8"/>
      </g>
     </g>
     <g id="text_6">
      <!-- 3.5 -->
      <g transform="translate(293.19173 271.757332) scale(0.1 -0.1)">
       <use xlink:href="#DejaVuSans-33"/>
       <use xlink:href="#DejaVuSans-2e" transform="translate(63.623047 0)"/>
       <use xlink:href="#DejaVuSans-35" transform="translate(95.410156 0)"/>
      </g>
     </g>
    </g>
    <g id="xtick_7">
     <g id="line2d_7">
      <g>
       <use xlink:href="#m141ef94a36" x="345.118668" y="257.158895" style="stroke: #000000; stroke-width: 0.8"/>
      </g>
     </g>
     <g id="text_7">
      <!-- 4.0 -->
      <g transform="translate(337.167105 271.757332) scale(0.1 -0.1)">
       <defs>
        <path id="DejaVuSans-34" d="M 2419 4116 
L 825 1625 
L 2419 1625 
L 2419 4116 
z
M 2253 4666 
L 3047 4666 
L 3047 1625 
L 3713 1625 
L 3713 1100 
L 3047 1100 
L 3047 0 
L 2419 0 
L 2419 1100 
L 313 1100 
L 313 1709 
L 2253 4666 
z
" transform="scale(0.015625)"/>
       </defs>
       <use xlink:href="#DejaVuSans-34"/>
       <use xlink:href="#DejaVuSans-2e" transform="translate(63.623047 0)"/>
       <use xlink:href="#DejaVuSans-30" transform="translate(95.410156 0)"/>
      </g>
     </g>
    </g>
    <g id="xtick_8">
     <g id="line2d_8">
      <g>
       <use xlink:href="#m141ef94a36" x="389.094043" y="257.158895" style="stroke: #000000; stroke-width: 0.8"/>
      </g>
     </g>
     <g id="text_8">
      <!-- 4.5 -->
      <g transform="translate(381.14248 271.757332) scale(0.1 -0.1)">
       <use xlink:href="#DejaVuSans-34"/>
       <use xlink:href="#DejaVuSans-2e" transform="translate(63.623047 0)"/>
       <use xlink:href="#DejaVuSans-35" transform="translate(95.410156 0)"/>
      </g>
     </g>
    </g>
    <g id="text_9">
     <!-- wavelength [Å] -->
     <g transform="translate(192.745193 287.119832) scale(0.1 -0.1)">
      <defs>
       <path id="DejaVuSans-77" d="M 269 3500 
L 844 3500 
L 1563 769 
L 2278 3500 
L 2956 3500 
L 3675 769 
L 4391 3500 
L 4966 3500 
L 4050 0 
L 3372 0 
L 2619 2869 
L 1863 0 
L 1184 0 
L 269 3500 
z
" transform="scale(0.015625)"/>
       <path id="DejaVuSans-61" d="M 2194 1759 
Q 1497 1759 1228 1600 
Q 959 1441 959 1056 
Q 959 750 1161 570 
Q 1363 391 1709 391 
Q 2188 391 2477 730 
Q 2766 1069 2766 1631 
L 2766 1759 
L 2194 1759 
z
M 3341 1997 
L 3341 0 
L 2766 0 
L 2766 531 
Q 2569 213 2275 61 
Q 1981 -91 1556 -91 
Q 1019 -91 701 211 
Q 384 513 384 1019 
Q 384 1609 779 1909 
Q 1175 2209 1959 2209 
L 2766 2209 
L 2766 2266 
Q 2766 2663 2505 2880 
Q 2244 3097 1772 3097 
Q 1472 3097 1187 3025 
Q 903 2953 641 2809 
L 641 3341 
Q 956 3463 1253 3523 
Q 1550 3584 1831 3584 
Q 2591 3584 2966 3190 
Q 3341 2797 3341 1997 
z
" transform="scale(0.015625)"/>
       <path id="DejaVuSans-76" d="M 191 3500 
L 800 3500 
L 1894 563 
L 2988 3500 
L 3597 3500 
L 2284 0 
L 1503 0 
L 191 3500 
z
" transform="scale(0.015625)"/>
       <path id="DejaVuSans-65" d="M 3597 1894 
L 3597 1613 
L 953 1613 
Q 991 1019 1311 708 
Q 1631 397 2203 397 
Q 2534 397 2845 478 
Q 3156 559 3463 722 
L 3463 178 
Q 3153 47 2828 -22 
Q 2503 -91 2169 -91 
Q 1331 -91 842 396 
Q 353 884 353 1716 
Q 353 2575 817 3079 
Q 1281 3584 2069 3584 
Q 2775 3584 3186 3129 
Q 3597 2675 3597 1894 
z
M 3022 2063 
Q 3016 2534 2758 2815 
Q 2500 3097 2075 3097 
Q 1594 3097 1305 2825 
Q 1016 2553 972 2059 
L 3022 2063 
z
" transform="scale(0.015625)"/>
       <path id="DejaVuSans-6c" d="M 603 4863 
L 1178 4863 
L 1178 0 
L 603 0 
L 603 4863 
z
" transform="scale(0.015625)"/>
       <path id="DejaVuSans-6e" d="M 3513 2113 
L 3513 0 
L 2938 0 
L 2938 2094 
Q 2938 2591 2744 2837 
Q 2550 3084 2163 3084 
Q 1697 3084 1428 2787 
Q 1159 2491 1159 1978 
L 1159 0 
L 581 0 
L 581 3500 
L 1159 3500 
L 1159 2956 
Q 1366 3272 1645 3428 
Q 1925 3584 2291 3584 
Q 2894 3584 3203 3211 
Q 3513 2838 3513 2113 
z
" transform="scale(0.015625)"/>
       <path id="DejaVuSans-67" d="M 2906 1791 
Q 2906 2416 2648 2759 
Q 2391 3103 1925 3103 
Q 1463 3103 1205 2759 
Q 947 2416 947 1791 
Q 947 1169 1205 825 
Q 1463 481 1925 481 
Q 2391 481 2648 825 
Q 2906 1169 2906 1791 
z
M 3481 434 
Q 3481 -459 3084 -895 
Q 2688 -1331 1869 -1331 
Q 1566 -1331 1297 -1286 
Q 1028 -1241 775 -1147 
L 775 -588 
Q 1028 -725 1275 -790 
Q 1522 -856 1778 -856 
Q 2344 -856 2625 -561 
Q 2906 -266 2906 331 
L 2906 616 
Q 2728 306 2450 153 
Q 2172 0 1784 0 
Q 1141 0 747 490 
Q 353 981 353 1791 
Q 353 2603 747 3093 
Q 1141 3584 1784 3584 
Q 2172 3584 2450 3431 
Q 2728 3278 2906 2969 
L 2906 3500 
L 3481 3500 
L 3481 434 
z
" transform="scale(0.015625)"/>
       <path id="DejaVuSans-74" d="M 1172 4494 
L 1172 3500 
L 2356 3500 
L 2356 3053 
L 1172 3053 
L 1172 1153 
Q 1172 725 1289 603 
Q 1406 481 1766 481 
L 2356 481 
L 2356 0 
L 1766 0 
Q 1100 0 847 248 
Q 594 497 594 1153 
L 594 3053 
L 172 3053 
L 172 3500 
L 594 3500 
L 594 4494 
L 1172 4494 
z
" transform="scale(0.015625)"/>
       <path id="DejaVuSans-68" d="M 3513 2113 
L 3513 0 
L 2938 0 
L 2938 2094 
Q 2938 2591 2744 2837 
Q 2550 3084 2163 3084 
Q 1697 3084 1428 2787 
Q 1159 2491 1159 1978 
L 1159 0 
L 581 0 
L 581 4863 
L 1159 4863 
L 1159 2956 
Q 1366 3272 1645 3428 
Q 1925 3584 2291 3584 
Q 2894 3584 3203 3211 
Q 3513 2838 3513 2113 
z
" transform="scale(0.015625)"/>
       <path id="DejaVuSans-20" transform="scale(0.015625)"/>
       <path id="DejaVuSans-5b" d="M 550 4863 
L 1875 4863 
L 1875 4416 
L 1125 4416 
L 1125 -397 
L 1875 -397 
L 1875 -844 
L 550 -844 
L 550 4863 
z
" transform="scale(0.015625)"/>
       <path id="DejaVuSans-c5" d="M 2663 5081 
Q 2663 5278 2523 5417 
Q 2384 5556 2188 5556 
Q 1988 5556 1852 5420 
Q 1716 5284 1716 5081 
Q 1716 4884 1853 4746 
Q 1991 4609 2188 4609 
Q 2384 4609 2523 4746 
Q 2663 4884 2663 5081 
z
M 2188 4044 
L 1338 1722 
L 3041 1722 
L 2188 4044 
z
M 1716 4366 
Q 1525 4494 1428 4673 
Q 1331 4853 1331 5081 
Q 1331 5441 1579 5691 
Q 1828 5941 2188 5941 
Q 2544 5941 2795 5689 
Q 3047 5438 3047 5081 
Q 3047 4863 2948 4678 
Q 2850 4494 2663 4366 
L 4325 0 
L 3669 0 
L 3244 1197 
L 1141 1197 
L 716 0 
L 50 0 
L 1716 4366 
z
" transform="scale(0.015625)"/>
       <path id="DejaVuSans-5d" d="M 1947 4863 
L 1947 -844 
L 622 -844 
L 622 -397 
L 1369 -397 
L 1369 4416 
L 622 4416 
L 622 4863 
L 1947 4863 
z
" transform="scale(0.015625)"/>
      </defs>
      <use xlink:href="#DejaVuSans-77"/>
      <use xlink:href="#DejaVuSans-61" transform="translate(81.787109 0)"/>
      <use xlink:href="#DejaVuSans-76" transform="translate(143.066406 0)"/>
      <use xlink:href="#DejaVuSans-65" transform="translate(202.246094 0)"/>
      <use xlink:href="#DejaVuSans-6c" transform="translate(263.769531 0)"/>
      <use xlink:href="#DejaVuSans-65" transform="translate(291.552734 0)"/>
      <use xlink:href="#DejaVuSans-6e" transform="translate(353.076172 0)"/>
      <use xlink:href="#DejaVuSans-67" transform="translate(416.455078 0)"/>
      <use xlink:href="#DejaVuSans-74" transform="translate(479.931641 0)"/>
      <use xlink:href="#DejaVuSans-68" transform="translate(519.140625 0)"/>
      <use xlink:href="#DejaVuSans-20" transform="translate(582.519531 0)"/>
      <use xlink:href="#DejaVuSans-5b" transform="translate(614.306641 0)"/>
      <use xlink:href="#DejaVuSans-c5" transform="translate(653.320312 0)"/>
      <use xlink:href="#DejaVuSans-5d" transform="translate(721.728516 0)"/>
     </g>
    </g>
   </g>
   <g id="matplotlib.axis_2">
    <g id="ytick_1">
     <g id="line2d_9">
      <defs>
       <path id="m964e3529e9" d="M 0 0 
L -3.5 0 
" style="stroke: #000000; stroke-width: 0.8"/>
      </defs>
      <g>
       <use xlink:href="#m964e3529e9" x="46.965625" y="246.484315" style="stroke: #000000; stroke-width: 0.8"/>
      </g>
     </g>
     <g id="text_10">
      <!-- 0 -->
      <g transform="translate(33.603125 250.283533) scale(0.1 -0.1)">
       <use xlink:href="#DejaVuSans-30"/>
      </g>
     </g>
    </g>
    <g id="ytick_2">
     <g id="line2d_10">
      <g>
       <use xlink:href="#m964e3529e9" x="46.965625" y="219.83118" style="stroke: #000000; stroke-width: 0.8"/>
      </g>
     </g>
     <g id="text_11">
      <!-- 100 -->
      <g transform="translate(20.878125 223.630399) scale(0.1 -0.1)">
       <use xlink:href="#DejaVuSans-31"/>
       <use xlink:href="#DejaVuSans-30" transform="translate(63.623047 0)"/>
       <use xlink:href="#DejaVuSans-30" transform="translate(127.246094 0)"/>
      </g>
     </g>
    </g>
    <g id="ytick_3">
     <g id="line2d_11">
      <g>
       <use xlink:href="#m964e3529e9" x="46.965625" y="193.178045" style="stroke: #000000; stroke-width: 0.8"/>
      </g>
     </g>
     <g id="text_12">
      <!-- 200 -->
      <g transform="translate(20.878125 196.977264) scale(0.1 -0.1)">
       <use xlink:href="#DejaVuSans-32"/>
       <use xlink:href="#DejaVuSans-30" transform="translate(63.623047 0)"/>
       <use xlink:href="#DejaVuSans-30" transform="translate(127.246094 0)"/>
      </g>
     </g>
    </g>
    <g id="ytick_4">
     <g id="line2d_12">
      <g>
       <use xlink:href="#m964e3529e9" x="46.965625" y="166.52491" style="stroke: #000000; stroke-width: 0.8"/>
      </g>
     </g>
     <g id="text_13">
      <!-- 300 -->
      <g transform="translate(20.878125 170.324129) scale(0.1 -0.1)">
       <use xlink:href="#DejaVuSans-33"/>
       <use xlink:href="#DejaVuSans-30" transform="translate(63.623047 0)"/>
       <use xlink:href="#DejaVuSans-30" transform="translate(127.246094 0)"/>
      </g>
     </g>
    </g>
    <g id="ytick_5">
     <g id="line2d_13">
      <g>
       <use xlink:href="#m964e3529e9" x="46.965625" y="139.871776" style="stroke: #000000; stroke-width: 0.8"/>
      </g>
     </g>
     <g id="text_14">
      <!-- 400 -->
      <g transform="translate(20.878125 143.670994) scale(0.1 -0.1)">
       <use xlink:href="#DejaVuSans-34"/>
       <use xlink:href="#DejaVuSans-30" transform="translate(63.623047 0)"/>
       <use xlink:href="#DejaVuSans-30" transform="translate(127.246094 0)"/>
      </g>
     </g>
    </g>
    <g id="ytick_6">
     <g id="line2d_14">
      <g>
       <use xlink:href="#m964e3529e9" x="46.965625" y="113.218641" style="stroke: #000000; stroke-width: 0.8"/>
      </g>
     </g>
     <g id="text_15">
      <!-- 500 -->
      <g transform="translate(20.878125 117.01786) scale(0.1 -0.1)">
       <use xlink:href="#DejaVuSans-35"/>
       <use xlink:href="#DejaVuSans-30" transform="translate(63.623047 0)"/>
       <use xlink:href="#DejaVuSans-30" transform="translate(127.246094 0)"/>
      </g>
     </g>
    </g>
    <g id="ytick_7">
     <g id="line2d_15">
      <g>
       <use xlink:href="#m964e3529e9" x="46.965625" y="86.565506" style="stroke: #000000; stroke-width: 0.8"/>
      </g>
     </g>
     <g id="text_16">
      <!-- 600 -->
      <g transform="translate(20.878125 90.364725) scale(0.1 -0.1)">
       <defs>
        <path id="DejaVuSans-36" d="M 2113 2584 
Q 1688 2584 1439 2293 
Q 1191 2003 1191 1497 
Q 1191 994 1439 701 
Q 1688 409 2113 409 
Q 2538 409 2786 701 
Q 3034 994 3034 1497 
Q 3034 2003 2786 2293 
Q 2538 2584 2113 2584 
z
M 3366 4563 
L 3366 3988 
Q 3128 4100 2886 4159 
Q 2644 4219 2406 4219 
Q 1781 4219 1451 3797 
Q 1122 3375 1075 2522 
Q 1259 2794 1537 2939 
Q 1816 3084 2150 3084 
Q 2853 3084 3261 2657 
Q 3669 2231 3669 1497 
Q 3669 778 3244 343 
Q 2819 -91 2113 -91 
Q 1303 -91 875 529 
Q 447 1150 447 2328 
Q 447 3434 972 4092 
Q 1497 4750 2381 4750 
Q 2619 4750 2861 4703 
Q 3103 4656 3366 4563 
z
" transform="scale(0.015625)"/>
       </defs>
       <use xlink:href="#DejaVuSans-36"/>
       <use xlink:href="#DejaVuSans-30" transform="translate(63.623047 0)"/>
       <use xlink:href="#DejaVuSans-30" transform="translate(127.246094 0)"/>
      </g>
     </g>
    </g>
    <g id="ytick_8">
     <g id="line2d_16">
      <g>
       <use xlink:href="#m964e3529e9" x="46.965625" y="59.912372" style="stroke: #000000; stroke-width: 0.8"/>
      </g>
     </g>
     <g id="text_17">
      <!-- 700 -->
      <g transform="translate(20.878125 63.71159) scale(0.1 -0.1)">
       <defs>
        <path id="DejaVuSans-37" d="M 525 4666 
L 3525 4666 
L 3525 4397 
L 1831 0 
L 1172 0 
L 2766 4134 
L 525 4134 
L 525 4666 
z
" transform="scale(0.015625)"/>
       </defs>
       <use xlink:href="#DejaVuSans-37"/>
       <use xlink:href="#DejaVuSans-30" transform="translate(63.623047 0)"/>
       <use xlink:href="#DejaVuSans-30" transform="translate(127.246094 0)"/>
      </g>
     </g>
    </g>
    <g id="ytick_9">
     <g id="line2d_17">
      <g>
       <use xlink:href="#m964e3529e9" x="46.965625" y="33.259237" style="stroke: #000000; stroke-width: 0.8"/>
      </g>
     </g>
     <g id="text_18">
      <!-- 800 -->
      <g transform="translate(20.878125 37.058456) scale(0.1 -0.1)">
       <defs>
        <path id="DejaVuSans-38" d="M 2034 2216 
Q 1584 2216 1326 1975 
Q 1069 1734 1069 1313 
Q 1069 891 1326 650 
Q 1584 409 2034 409 
Q 2484 409 2743 651 
Q 3003 894 3003 1313 
Q 3003 1734 2745 1975 
Q 2488 2216 2034 2216 
z
M 1403 2484 
Q 997 2584 770 2862 
Q 544 3141 544 3541 
Q 544 4100 942 4425 
Q 1341 4750 2034 4750 
Q 2731 4750 3128 4425 
Q 3525 4100 3525 3541 
Q 3525 3141 3298 2862 
Q 3072 2584 2669 2484 
Q 3125 2378 3379 2068 
Q 3634 1759 3634 1313 
Q 3634 634 3220 271 
Q 2806 -91 2034 -91 
Q 1263 -91 848 271 
Q 434 634 434 1313 
Q 434 1759 690 2068 
Q 947 2378 1403 2484 
z
M 1172 3481 
Q 1172 3119 1398 2916 
Q 1625 2713 2034 2713 
Q 2441 2713 2670 2916 
Q 2900 3119 2900 3481 
Q 2900 3844 2670 4047 
Q 2441 4250 2034 4250 
Q 1625 4250 1398 4047 
Q 1172 3844 1172 3481 
z
" transform="scale(0.015625)"/>
       </defs>
       <use xlink:href="#DejaVuSans-38"/>
       <use xlink:href="#DejaVuSans-30" transform="translate(63.623047 0)"/>
       <use xlink:href="#DejaVuSans-30" transform="translate(127.246094 0)"/>
      </g>
     </g>
    </g>
    <g id="text_19">
     <!-- [counts] -->
     <g transform="translate(14.798437 160.35101) rotate(-90) scale(0.1 -0.1)">
      <defs>
       <path id="DejaVuSans-63" d="M 3122 3366 
L 3122 2828 
Q 2878 2963 2633 3030 
Q 2388 3097 2138 3097 
Q 1578 3097 1268 2742 
Q 959 2388 959 1747 
Q 959 1106 1268 751 
Q 1578 397 2138 397 
Q 2388 397 2633 464 
Q 2878 531 3122 666 
L 3122 134 
Q 2881 22 2623 -34 
Q 2366 -91 2075 -91 
Q 1284 -91 818 406 
Q 353 903 353 1747 
Q 353 2603 823 3093 
Q 1294 3584 2113 3584 
Q 2378 3584 2631 3529 
Q 2884 3475 3122 3366 
z
" transform="scale(0.015625)"/>
       <path id="DejaVuSans-6f" d="M 1959 3097 
Q 1497 3097 1228 2736 
Q 959 2375 959 1747 
Q 959 1119 1226 758 
Q 1494 397 1959 397 
Q 2419 397 2687 759 
Q 2956 1122 2956 1747 
Q 2956 2369 2687 2733 
Q 2419 3097 1959 3097 
z
M 1959 3584 
Q 2709 3584 3137 3096 
Q 3566 2609 3566 1747 
Q 3566 888 3137 398 
Q 2709 -91 1959 -91 
Q 1206 -91 779 398 
Q 353 888 353 1747 
Q 353 2609 779 3096 
Q 1206 3584 1959 3584 
z
" transform="scale(0.015625)"/>
       <path id="DejaVuSans-75" d="M 544 1381 
L 544 3500 
L 1119 3500 
L 1119 1403 
Q 1119 906 1312 657 
Q 1506 409 1894 409 
Q 2359 409 2629 706 
Q 2900 1003 2900 1516 
L 2900 3500 
L 3475 3500 
L 3475 0 
L 2900 0 
L 2900 538 
Q 2691 219 2414 64 
Q 2138 -91 1772 -91 
Q 1169 -91 856 284 
Q 544 659 544 1381 
z
M 1991 3584 
L 1991 3584 
z
" transform="scale(0.015625)"/>
       <path id="DejaVuSans-73" d="M 2834 3397 
L 2834 2853 
Q 2591 2978 2328 3040 
Q 2066 3103 1784 3103 
Q 1356 3103 1142 2972 
Q 928 2841 928 2578 
Q 928 2378 1081 2264 
Q 1234 2150 1697 2047 
L 1894 2003 
Q 2506 1872 2764 1633 
Q 3022 1394 3022 966 
Q 3022 478 2636 193 
Q 2250 -91 1575 -91 
Q 1294 -91 989 -36 
Q 684 19 347 128 
L 347 722 
Q 666 556 975 473 
Q 1284 391 1588 391 
Q 1994 391 2212 530 
Q 2431 669 2431 922 
Q 2431 1156 2273 1281 
Q 2116 1406 1581 1522 
L 1381 1569 
Q 847 1681 609 1914 
Q 372 2147 372 2553 
Q 372 3047 722 3315 
Q 1072 3584 1716 3584 
Q 2034 3584 2315 3537 
Q 2597 3491 2834 3397 
z
" transform="scale(0.015625)"/>
      </defs>
      <use xlink:href="#DejaVuSans-5b"/>
      <use xlink:href="#DejaVuSans-63" transform="translate(39.013672 0)"/>
      <use xlink:href="#DejaVuSans-6f" transform="translate(93.994141 0)"/>
      <use xlink:href="#DejaVuSans-75" transform="translate(155.175781 0)"/>
      <use xlink:href="#DejaVuSans-6e" transform="translate(218.554688 0)"/>
      <use xlink:href="#DejaVuSans-74" transform="translate(281.933594 0)"/>
      <use xlink:href="#DejaVuSans-73" transform="translate(321.142578 0)"/>
      <use xlink:href="#DejaVuSans-5d" transform="translate(373.242188 0)"/>
     </g>
    </g>
   </g>
   <g id="line2d_18">
    <path d="M 63.676268 246.484315 
L 72.031589 246.484315 
L 72.031589 244.885126 
L 73.702653 244.885126 
L 73.702653 237.155717 
L 75.373717 237.155717 
L 75.373717 230.492434 
L 77.044782 230.492434 
L 77.044782 220.630774 
L 78.715846 220.630774 
L 78.715846 207.570738 
L 80.38691 207.570738 
L 80.38691 208.903395 
L 82.057974 208.903395 
L 82.057974 193.444576 
L 83.729039 193.444576 
L 83.729039 193.178045 
L 85.400103 193.178045 
L 85.400103 180.917603 
L 87.071167 180.917603 
L 87.071167 171.855537 
L 88.742231 171.855537 
L 88.742231 160.927752 
L 90.413296 160.927752 
L 90.413296 156.663251 
L 92.08436 156.663251 
L 92.08436 155.863657 
L 93.755424 155.863657 
L 93.755424 136.939931 
L 95.426488 136.939931 
L 95.426488 127.344802 
L 97.097553 127.344802 
L 97.097553 128.410928 
L 98.768617 128.410928 
L 98.768617 110.286796 
L 100.439681 110.286796 
L 100.439681 106.288826 
L 102.110745 106.288826 
L 102.110745 101.757793 
L 103.78181 101.757793 
L 103.78181 85.765912 
L 105.452874 85.765912 
L 105.452874 99.625542 
L 107.123938 99.625542 
L 107.123938 88.431226 
L 108.795002 88.431226 
L 108.795002 80.968348 
L 110.466067 80.968348 
L 110.466067 80.168754 
L 112.137131 80.168754 
L 112.137131 74.571596 
L 113.808195 74.571596 
L 113.808195 54.315213 
L 115.479259 54.315213 
L 115.479259 60.178903 
L 117.150323 60.178903 
L 117.150323 43.920491 
L 118.821388 43.920491 
L 118.821388 49.78418 
L 120.492452 49.78418 
L 120.492452 51.6499 
L 122.163516 51.6499 
L 122.163516 47.385398 
L 123.834581 47.385398 
L 123.834581 48.984586 
L 125.505645 48.984586 
L 125.505645 49.251118 
L 127.176709 49.251118 
L 127.176709 44.187022 
L 130.518838 44.187022 
L 130.518838 32.992705 
L 132.189902 32.992705 
L 132.189902 46.052741 
L 133.860966 46.052741 
L 133.860966 63.910342 
L 135.53203 63.910342 
L 135.53203 50.050712 
L 137.203095 50.050712 
L 137.203095 55.914401 
L 138.874159 55.914401 
L 138.874159 56.980527 
L 140.545223 56.980527 
L 140.545223 63.377279 
L 142.216287 63.377279 
L 142.216287 79.635691 
L 143.887352 79.635691 
L 143.887352 55.914401 
L 145.558416 55.914401 
L 145.558416 64.176873 
L 147.22948 64.176873 
L 147.22948 72.705876 
L 148.900544 72.705876 
L 148.900544 66.309124 
L 150.571609 66.309124 
L 150.571609 64.176873 
L 152.242673 64.176873 
L 152.242673 78.036503 
L 153.913737 78.036503 
L 153.913737 73.238939 
L 155.584801 73.238939 
L 155.584801 72.972408 
L 157.255866 72.972408 
L 157.255866 82.034473 
L 158.92693 82.034473 
L 158.92693 88.164694 
L 160.597994 88.164694 
L 160.597994 84.166724 
L 162.269058 84.166724 
L 162.269058 85.499381 
L 163.940123 85.499381 
L 163.940123 81.767942 
L 165.611187 81.767942 
L 165.611187 78.836097 
L 167.282251 78.836097 
L 167.282251 99.625542 
L 168.953315 99.625542 
L 168.953315 80.435285 
L 170.62438 80.435285 
L 170.62438 80.968348 
L 172.295444 80.968348 
L 172.295444 79.902223 
L 173.966508 79.902223 
L 173.966508 81.767942 
L 175.637572 81.767942 
L 175.637572 88.164694 
L 177.308637 88.164694 
L 177.308637 84.966318 
L 178.979701 84.966318 
L 178.979701 73.238939 
L 180.650765 73.238939 
L 180.650765 80.968348 
L 182.321829 80.968348 
L 182.321829 96.160635 
L 183.992894 96.160635 
L 183.992894 101.491262 
L 185.663958 101.491262 
L 185.663958 81.767942 
L 187.335022 81.767942 
L 187.335022 103.09045 
L 189.006086 103.09045 
L 189.006086 102.290856 
L 190.677151 102.290856 
L 190.677151 106.821889 
L 192.348215 106.821889 
L 192.348215 113.485172 
L 194.019279 113.485172 
L 194.019279 108.954139 
L 195.690343 108.954139 
L 195.690343 106.821889 
L 197.361408 106.821889 
L 197.361408 126.545208 
L 199.032472 126.545208 
L 199.032472 132.142367 
L 200.703536 132.142367 
L 200.703536 139.871776 
L 202.3746 139.871776 
L 202.3746 143.070152 
L 204.045665 143.070152 
L 204.045665 153.997937 
L 205.716729 153.997937 
L 205.716729 162.52694 
L 207.387793 162.52694 
L 207.387793 177.452696 
L 209.058857 177.452696 
L 209.058857 173.721257 
L 210.729922 173.721257 
L 210.729922 188.913544 
L 212.400986 188.913544 
L 212.400986 196.376421 
L 214.07205 196.376421 
L 214.07205 204.638893 
L 215.743114 204.638893 
L 215.743114 211.568708 
L 217.414179 211.568708 
L 217.414179 216.099741 
L 219.085243 216.099741 
L 219.085243 224.895275 
L 220.756307 224.895275 
L 220.756307 228.893246 
L 222.427371 228.893246 
L 222.427371 229.959371 
L 224.098435 229.959371 
L 224.098435 240.620625 
L 225.7695 240.620625 
L 225.7695 241.953282 
L 227.440564 241.953282 
L 227.440564 244.885126 
L 229.111628 244.885126 
L 229.111628 238.488374 
L 230.782693 238.488374 
L 230.782693 233.424279 
L 232.453757 233.424279 
L 232.453757 228.626714 
L 234.124821 228.626714 
L 234.124821 218.765054 
L 235.795885 218.765054 
L 235.795885 215.83321 
L 237.466949 215.83321 
L 237.466949 207.037675 
L 239.138014 207.037675 
L 239.138014 204.372362 
L 240.809078 204.372362 
L 240.809078 200.907454 
L 242.480142 200.907454 
L 242.480142 186.781293 
L 244.151207 186.781293 
L 244.151207 181.983729 
L 245.822271 181.983729 
L 245.822271 181.717197 
L 247.493335 181.717197 
L 247.493335 173.987788 
L 249.164399 173.987788 
L 249.164399 170.789412 
L 250.835464 170.789412 
L 250.835464 168.657161 
L 252.506528 168.657161 
L 252.506528 151.066092 
L 254.177592 151.066092 
L 254.177592 154.264468 
L 255.848656 154.264468 
L 255.848656 149.999967 
L 257.51972 149.999967 
L 257.51972 148.66731 
L 259.190785 148.66731 
L 259.190785 149.200373 
L 260.861849 149.200373 
L 260.861849 141.737495 
L 262.532913 141.737495 
L 262.532913 135.074211 
L 264.203978 135.074211 
L 264.203978 131.875835 
L 265.875042 131.875835 
L 265.875042 135.340743 
L 267.546106 135.340743 
L 267.546106 128.410928 
L 269.21717 128.410928 
L 269.21717 118.549268 
L 270.888234 118.549268 
L 270.888234 126.545208 
L 272.559299 126.545208 
L 272.559299 118.282737 
L 274.230363 118.282737 
L 274.230363 115.883954 
L 275.901427 115.883954 
L 275.901427 112.419047 
L 277.572492 112.419047 
L 277.572492 118.016205 
L 279.243556 118.016205 
L 279.243556 105.489232 
L 280.91462 105.489232 
L 280.91462 109.753733 
L 282.585684 109.753733 
L 282.585684 122.280707 
L 284.256749 122.280707 
L 284.256749 106.022295 
L 285.927813 106.022295 
L 285.927813 111.08639 
L 287.598877 111.08639 
L 287.598877 120.148456 
L 289.269941 120.148456 
L 289.269941 121.481113 
L 290.941006 121.481113 
L 290.941006 109.487202 
L 292.61207 109.487202 
L 292.61207 124.412958 
L 294.283134 124.412958 
L 294.283134 113.485172 
L 295.954198 113.485172 
L 295.954198 135.340743 
L 297.625263 135.340743 
L 297.625263 110.553327 
L 299.296327 110.553327 
L 299.296327 127.078271 
L 300.967391 127.078271 
L 300.967391 132.408898 
L 302.638455 132.408898 
L 302.638455 135.340743 
L 304.309519 135.340743 
L 304.309519 123.613363 
L 305.980584 123.613363 
L 305.980584 132.675429 
L 307.651648 132.675429 
L 307.651648 143.603215 
L 309.322712 143.603215 
L 309.322712 134.80768 
L 310.993777 134.80768 
L 310.993777 147.068122 
L 312.664841 147.068122 
L 312.664841 146.801591 
L 314.335905 146.801591 
L 314.335905 147.867716 
L 316.006969 147.867716 
L 316.006969 153.464874 
L 317.678033 153.464874 
L 317.678033 147.601185 
L 319.349098 147.601185 
L 319.349098 141.737495 
L 321.020162 141.737495 
L 321.020162 148.933841 
L 322.691226 148.933841 
L 322.691226 152.66528 
L 324.362291 152.66528 
L 324.362291 156.130188 
L 326.033355 156.130188 
L 326.033355 154.797531 
L 327.704419 154.797531 
L 327.704419 159.861627 
L 329.375483 159.861627 
L 329.375483 156.929782 
L 331.046547 156.929782 
L 331.046547 162.260409 
L 332.717612 162.260409 
L 332.717612 163.593066 
L 334.388676 163.593066 
L 334.388676 160.661221 
L 336.05974 160.661221 
L 336.05974 172.122069 
L 337.730805 172.122069 
L 337.730805 173.454725 
L 339.401869 173.454725 
L 339.401869 177.452696 
L 341.072933 177.452696 
L 341.072933 170.256349 
L 342.743997 170.256349 
L 342.743997 178.518821 
L 344.415062 178.518821 
L 344.415062 177.452696 
L 346.086126 177.452696 
L 346.086126 187.314355 
L 347.75719 187.314355 
L 347.75719 185.981699 
L 349.428254 185.981699 
L 349.428254 190.779263 
L 351.099318 190.779263 
L 351.099318 193.977639 
L 352.770383 193.977639 
L 352.770383 199.574797 
L 354.441447 199.574797 
L 354.441447 195.043765 
L 356.112511 195.043765 
L 356.112511 198.775203 
L 357.783576 198.775203 
L 357.783576 208.636863 
L 359.45464 208.636863 
L 359.45464 203.039705 
L 361.125704 203.039705 
L 361.125704 212.634833 
L 362.796768 212.634833 
L 362.796768 219.298117 
L 364.467832 219.298117 
L 364.467832 217.432398 
L 366.138897 217.432398 
L 366.138897 223.562619 
L 367.809961 223.562619 
L 367.809961 221.963431 
L 369.481025 221.963431 
L 369.481025 228.626714 
L 371.15209 228.626714 
L 371.15209 229.69284 
L 374.494218 229.69284 
L 374.494218 232.358153 
L 376.165282 232.358153 
L 376.165282 239.021437 
L 377.836346 239.021437 
L 377.836346 241.153688 
L 379.507411 241.153688 
L 379.507411 241.953282 
L 381.178475 241.953282 
L 381.178475 241.68675 
L 382.849539 241.68675 
L 382.849539 243.55247 
L 384.520603 243.55247 
L 384.520603 245.418189 
L 386.191668 245.418189 
L 386.191668 244.885126 
L 387.862732 244.885126 
L 387.862732 245.951252 
L 389.533796 245.951252 
L 389.533796 246.217783 
L 391.204861 246.217783 
L 391.204861 246.484315 
L 397.889117 246.484315 
L 397.889117 246.484315 
" clip-path="url(#pef7d70a08d)" style="fill: none; stroke: #1f77b4; stroke-width: 1.5; stroke-linecap: square"/>
   </g>
   <g id="line2d_19">
    <path d="M 63.676268 246.484315 
L 72.031589 246.484315 
L 72.031589 244.885126 
L 73.702653 244.885126 
L 73.702653 237.68878 
L 75.373717 237.68878 
L 75.373717 229.959371 
L 77.044782 229.959371 
L 77.044782 219.564648 
L 78.715846 219.564648 
L 78.715846 208.903395 
L 80.38691 208.903395 
L 80.38691 208.370332 
L 82.057974 208.370332 
L 82.057974 192.911514 
L 83.729039 192.911514 
L 83.729039 193.977639 
L 85.400103 193.977639 
L 85.400103 178.518821 
L 87.071167 178.518821 
L 87.071167 168.923693 
L 88.742231 168.923693 
L 88.742231 161.727346 
L 90.413296 161.727346 
L 90.413296 159.595095 
L 92.08436 159.595095 
L 92.08436 153.198343 
L 93.755424 153.198343 
L 93.755424 141.737495 
L 95.426488 141.737495 
L 95.426488 128.677459 
L 97.097553 128.677459 
L 97.097553 127.078271 
L 98.768617 127.078271 
L 98.768617 108.421077 
L 100.439681 108.421077 
L 100.439681 100.425136 
L 102.110745 100.425136 
L 102.110745 109.220671 
L 103.78181 109.220671 
L 103.78181 89.763882 
L 107.123938 89.763882 
L 107.123938 91.36307 
L 108.795002 91.36307 
L 108.795002 79.102629 
L 110.466067 79.102629 
L 110.466067 82.834067 
L 112.137131 82.834067 
L 112.137131 72.439345 
L 113.808195 72.439345 
L 113.808195 51.6499 
L 115.479259 51.6499 
L 115.479259 64.443404 
L 117.150323 64.443404 
L 117.150323 41.255177 
L 118.821388 41.255177 
L 118.821388 57.513589 
L 120.492452 57.513589 
L 120.492452 46.319273 
L 122.163516 46.319273 
L 122.163516 50.850306 
L 123.834581 50.850306 
L 123.834581 49.78418 
L 125.505645 49.78418 
L 125.505645 47.385398 
L 127.176709 47.385398 
L 127.176709 42.854365 
L 128.847773 42.854365 
L 128.847773 45.78621 
L 130.518838 45.78621 
L 130.518838 34.591894 
L 132.189902 34.591894 
L 132.189902 49.517649 
L 133.860966 49.517649 
L 133.860966 56.180933 
L 135.53203 56.180933 
L 135.53203 55.381339 
L 137.203095 55.381339 
L 137.203095 56.447464 
L 138.874159 56.447464 
L 138.874159 59.64584 
L 140.545223 59.64584 
L 140.545223 62.577685 
L 142.216287 62.577685 
L 142.216287 65.242998 
L 143.887352 65.242998 
L 143.887352 63.64381 
L 145.558416 63.64381 
L 145.558416 66.309124 
L 147.22948 66.309124 
L 147.22948 75.37119 
L 148.900544 75.37119 
L 148.900544 63.64381 
L 150.571609 63.64381 
L 150.571609 63.910342 
L 152.242673 63.910342 
L 152.242673 73.238939 
L 153.913737 73.238939 
L 153.913737 77.769972 
L 155.584801 77.769972 
L 155.584801 71.906282 
L 157.255866 71.906282 
L 157.255866 77.236909 
L 158.92693 77.236909 
L 158.92693 90.830008 
L 160.597994 90.830008 
L 160.597994 88.164694 
L 162.269058 88.164694 
L 162.269058 86.032444 
L 163.940123 86.032444 
L 163.940123 82.567536 
L 165.611187 82.567536 
L 165.611187 83.100599 
L 167.282251 83.100599 
L 167.282251 88.964288 
L 168.953315 88.964288 
L 168.953315 81.501411 
L 170.62438 81.501411 
L 170.62438 76.703846 
L 172.295444 76.703846 
L 172.295444 86.565506 
L 173.966508 86.565506 
L 173.966508 78.569566 
L 175.637572 78.569566 
L 175.637572 91.629602 
L 177.308637 91.629602 
L 177.308637 89.497351 
L 178.979701 89.497351 
L 178.979701 71.906282 
L 180.650765 71.906282 
L 180.650765 81.767942 
L 182.321829 81.767942 
L 182.321829 93.22879 
L 183.992894 93.22879 
L 183.992894 98.559417 
L 185.663958 98.559417 
L 185.663958 92.962259 
L 187.335022 92.962259 
L 187.335022 94.028384 
L 189.006086 94.028384 
L 189.006086 112.152516 
L 190.677151 112.152516 
L 190.677151 104.156575 
L 192.348215 104.156575 
L 192.348215 110.020265 
L 194.019279 110.020265 
L 194.019279 110.819859 
L 195.690343 110.819859 
L 195.690343 108.421077 
L 197.361408 108.421077 
L 197.361408 127.877865 
L 199.032472 127.877865 
L 199.032472 121.214581 
L 200.703536 121.214581 
L 200.703536 147.867716 
L 202.3746 147.867716 
L 202.3746 142.537089 
L 204.045665 142.537089 
L 204.045665 150.799561 
L 205.716729 150.799561 
L 205.716729 157.995907 
L 207.387793 157.995907 
L 207.387793 178.785352 
L 209.058857 178.785352 
L 209.058857 175.853508 
L 210.729922 175.853508 
L 210.729922 188.11395 
L 212.400986 188.11395 
L 212.400986 196.642953 
L 214.07205 196.642953 
L 214.07205 205.705018 
L 215.743114 205.705018 
L 215.743114 209.702989 
L 217.414179 209.702989 
L 217.414179 217.96546 
L 219.085243 217.96546 
L 219.085243 224.362213 
L 220.756307 224.362213 
L 220.756307 228.093652 
L 222.427371 228.093652 
L 222.427371 230.225902 
L 224.098435 230.225902 
L 224.098435 241.68675 
L 225.7695 241.68675 
L 225.7695 240.887156 
L 227.440564 240.887156 
L 227.440564 244.618595 
L 229.111628 244.618595 
L 229.111628 238.221843 
L 230.782693 238.221843 
L 230.782693 233.69081 
L 232.453757 233.69081 
L 232.453757 227.82712 
L 234.124821 227.82712 
L 234.124821 219.83118 
L 235.795885 219.83118 
L 235.795885 215.566678 
L 237.466949 215.566678 
L 237.466949 208.370332 
L 239.138014 208.370332 
L 239.138014 202.773174 
L 240.809078 202.773174 
L 240.809078 200.10786 
L 242.480142 200.10786 
L 242.480142 188.380481 
L 244.151207 188.380481 
L 244.151207 182.25026 
L 245.822271 182.25026 
L 245.822271 181.983729 
L 247.493335 181.983729 
L 247.493335 175.053914 
L 249.164399 175.053914 
L 249.164399 169.989818 
L 250.835464 169.989818 
L 250.835464 163.859597 
L 252.506528 163.859597 
L 252.506528 153.464874 
L 254.177592 153.464874 
L 254.177592 157.196313 
L 255.848656 157.196313 
L 255.848656 144.66934 
L 257.51972 144.66934 
L 257.51972 153.198343 
L 259.190785 153.198343 
L 259.190785 144.402809 
L 260.861849 144.402809 
L 260.861849 140.404838 
L 262.532913 140.404838 
L 262.532913 142.004026 
L 264.203978 142.004026 
L 264.203978 138.272588 
L 265.875042 138.272588 
L 265.875042 123.346832 
L 267.546106 123.346832 
L 267.546106 134.541149 
L 269.21717 134.541149 
L 269.21717 120.94805 
L 270.888234 120.94805 
L 270.888234 126.81174 
L 272.559299 126.81174 
L 272.559299 111.885984 
L 274.230363 111.885984 
L 274.230363 117.749674 
L 275.901427 117.749674 
L 275.901427 115.883954 
L 277.572492 115.883954 
L 277.572492 107.888014 
L 279.243556 107.888014 
L 279.243556 113.751704 
L 280.91462 113.751704 
L 280.91462 105.489232 
L 282.585684 105.489232 
L 282.585684 120.94805 
L 284.256749 120.94805 
L 284.256749 114.817829 
L 285.927813 114.817829 
L 285.927813 110.819859 
L 287.598877 110.819859 
L 287.598877 117.749674 
L 289.269941 117.749674 
L 289.269941 111.885984 
L 290.941006 111.885984 
L 290.941006 121.214581 
L 292.61207 121.214581 
L 292.61207 118.549268 
L 294.283134 118.549268 
L 294.283134 117.483143 
L 295.954198 117.483143 
L 295.954198 127.078271 
L 297.625263 127.078271 
L 297.625263 123.346832 
L 299.296327 123.346832 
L 299.296327 124.146426 
L 300.967391 124.146426 
L 300.967391 130.80971 
L 302.638455 130.80971 
L 302.638455 128.94399 
L 304.309519 128.94399 
L 304.309519 127.344802 
L 305.980584 127.344802 
L 305.980584 131.342773 
L 307.651648 131.342773 
L 307.651648 140.937901 
L 309.322712 140.937901 
L 309.322712 137.472994 
L 310.993777 137.472994 
L 310.993777 152.66528 
L 312.664841 152.66528 
L 312.664841 143.070152 
L 314.335905 143.070152 
L 314.335905 148.66731 
L 316.006969 148.66731 
L 316.006969 148.400779 
L 317.678033 148.400779 
L 317.678033 153.198343 
L 319.349098 153.198343 
L 319.349098 139.338713 
L 321.020162 139.338713 
L 321.020162 149.999967 
L 322.691226 149.999967 
L 322.691226 154.264468 
L 324.362291 154.264468 
L 324.362291 154.531 
L 326.033355 154.531 
L 326.033355 158.795501 
L 327.704419 158.795501 
L 327.704419 154.264468 
L 329.375483 154.264468 
L 329.375483 161.460815 
L 331.046547 161.460815 
L 331.046547 156.396719 
L 332.717612 156.396719 
L 332.717612 161.460815 
L 334.388676 161.460815 
L 334.388676 163.859597 
L 336.05974 163.859597 
L 336.05974 173.721257 
L 337.730805 173.721257 
L 337.730805 174.520851 
L 339.401869 174.520851 
L 339.401869 176.120039 
L 341.072933 176.120039 
L 341.072933 172.655131 
L 342.743997 172.655131 
L 342.743997 176.120039 
L 344.415062 176.120039 
L 344.415062 179.851478 
L 346.086126 179.851478 
L 346.086126 181.983729 
L 347.75719 181.983729 
L 347.75719 190.2462 
L 349.428254 190.2462 
L 349.428254 188.380481 
L 351.099318 188.380481 
L 351.099318 199.041735 
L 352.770383 199.041735 
L 352.770383 192.911514 
L 354.441447 192.911514 
L 354.441447 197.709078 
L 356.112511 197.709078 
L 356.112511 202.506642 
L 357.783576 202.506642 
L 357.783576 205.705018 
L 359.45464 205.705018 
L 359.45464 204.905424 
L 361.125704 204.905424 
L 361.125704 213.700959 
L 362.796768 213.700959 
L 362.796768 215.300147 
L 364.467832 215.300147 
L 364.467832 219.83118 
L 366.138897 219.83118 
L 366.138897 221.163837 
L 367.809961 221.163837 
L 367.809961 222.763025 
L 369.481025 222.763025 
L 369.481025 230.225902 
L 371.15209 230.225902 
L 371.15209 227.294058 
L 372.823154 227.294058 
L 372.823154 229.959371 
L 374.494218 229.959371 
L 374.494218 233.957341 
L 376.165282 233.957341 
L 376.165282 237.422249 
L 377.836346 237.422249 
L 377.836346 240.620625 
L 379.507411 240.620625 
L 379.507411 241.953282 
L 381.178475 241.953282 
L 381.178475 242.486344 
L 382.849539 242.486344 
L 382.849539 243.819001 
L 384.520603 243.819001 
L 384.520603 245.151658 
L 386.191668 245.151658 
L 386.191668 244.618595 
L 387.862732 244.618595 
L 387.862732 245.684721 
L 389.533796 245.684721 
L 389.533796 246.484315 
L 397.889117 246.484315 
L 397.889117 246.484315 
" clip-path="url(#pef7d70a08d)" style="fill: none; stroke: #ff7f0e; stroke-width: 1.5; stroke-linecap: square"/>
   </g>
   <g id="patch_3">
    <path d="M 46.965625 257.158895 
L 46.965625 22.318125 
" style="fill: none; stroke: #000000; stroke-width: 0.8; stroke-linejoin: miter; stroke-linecap: square"/>
   </g>
   <g id="patch_4">
    <path d="M 414.59976 257.158895 
L 414.59976 22.318125 
" style="fill: none; stroke: #000000; stroke-width: 0.8; stroke-linejoin: miter; stroke-linecap: square"/>
   </g>
   <g id="patch_5">
    <path d="M 46.965625 257.158895 
L 414.59976 257.158895 
" style="fill: none; stroke: #000000; stroke-width: 0.8; stroke-linejoin: miter; stroke-linecap: square"/>
   </g>
   <g id="patch_6">
    <path d="M 46.965625 22.318125 
L 414.59976 22.318125 
" style="fill: none; stroke: #000000; stroke-width: 0.8; stroke-linejoin: miter; stroke-linecap: square"/>
   </g>
   <g id="text_20">
    <!-- Pixel 1 -->
    <g transform="translate(211.18613 16.318125) scale(0.12 -0.12)">
     <defs>
      <path id="DejaVuSans-50" d="M 1259 4147 
L 1259 2394 
L 2053 2394 
Q 2494 2394 2734 2622 
Q 2975 2850 2975 3272 
Q 2975 3691 2734 3919 
Q 2494 4147 2053 4147 
L 1259 4147 
z
M 628 4666 
L 2053 4666 
Q 2838 4666 3239 4311 
Q 3641 3956 3641 3272 
Q 3641 2581 3239 2228 
Q 2838 1875 2053 1875 
L 1259 1875 
L 1259 0 
L 628 0 
L 628 4666 
z
" transform="scale(0.015625)"/>
      <path id="DejaVuSans-69" d="M 603 3500 
L 1178 3500 
L 1178 0 
L 603 0 
L 603 3500 
z
M 603 4863 
L 1178 4863 
L 1178 4134 
L 603 4134 
L 603 4863 
z
" transform="scale(0.015625)"/>
      <path id="DejaVuSans-78" d="M 3513 3500 
L 2247 1797 
L 3578 0 
L 2900 0 
L 1881 1375 
L 863 0 
L 184 0 
L 1544 1831 
L 300 3500 
L 978 3500 
L 1906 2253 
L 2834 3500 
L 3513 3500 
z
" transform="scale(0.015625)"/>
     </defs>
     <use xlink:href="#DejaVuSans-50"/>
     <use xlink:href="#DejaVuSans-69" transform="translate(58.052734 0)"/>
     <use xlink:href="#DejaVuSans-78" transform="translate(85.835938 0)"/>
     <use xlink:href="#DejaVuSans-65" transform="translate(141.890625 0)"/>
     <use xlink:href="#DejaVuSans-6c" transform="translate(203.414062 0)"/>
     <use xlink:href="#DejaVuSans-20" transform="translate(231.197266 0)"/>
     <use xlink:href="#DejaVuSans-31" transform="translate(262.984375 0)"/>
    </g>
   </g>
   <g id="legend_1">
    <g id="patch_7">
     <path d="M 310.596635 59.9525 
L 407.59976 59.9525 
Q 409.59976 59.9525 409.59976 57.9525 
L 409.59976 29.318125 
Q 409.59976 27.318125 407.59976 27.318125 
L 310.596635 27.318125 
Q 308.596635 27.318125 308.596635 29.318125 
L 308.596635 57.9525 
Q 308.596635 59.9525 310.596635 59.9525 
z
" style="fill: #ffffff; opacity: 0.8; stroke: #cccccc; stroke-linejoin: miter"/>
    </g>
    <g id="line2d_20">
     <path d="M 312.596635 35.416562 
L 312.596635 35.416562 
L 322.596635 35.416562 
L 322.596635 35.416562 
L 332.596635 35.416562 
" style="fill: none; stroke: #1f77b4; stroke-width: 1.5; stroke-linecap: square"/>
    </g>
    <g id="text_21">
     <!-- wfm -->
     <g transform="translate(340.596635 38.916562) scale(0.1 -0.1)">
      <defs>
       <path id="DejaVuSans-66" d="M 2375 4863 
L 2375 4384 
L 1825 4384 
Q 1516 4384 1395 4259 
Q 1275 4134 1275 3809 
L 1275 3500 
L 2222 3500 
L 2222 3053 
L 1275 3053 
L 1275 0 
L 697 0 
L 697 3053 
L 147 3053 
L 147 3500 
L 697 3500 
L 697 3744 
Q 697 4328 969 4595 
Q 1241 4863 1831 4863 
L 2375 4863 
z
" transform="scale(0.015625)"/>
       <path id="DejaVuSans-6d" d="M 3328 2828 
Q 3544 3216 3844 3400 
Q 4144 3584 4550 3584 
Q 5097 3584 5394 3201 
Q 5691 2819 5691 2113 
L 5691 0 
L 5113 0 
L 5113 2094 
Q 5113 2597 4934 2840 
Q 4756 3084 4391 3084 
Q 3944 3084 3684 2787 
Q 3425 2491 3425 1978 
L 3425 0 
L 2847 0 
L 2847 2094 
Q 2847 2600 2669 2842 
Q 2491 3084 2119 3084 
Q 1678 3084 1418 2786 
Q 1159 2488 1159 1978 
L 1159 0 
L 581 0 
L 581 3500 
L 1159 3500 
L 1159 2956 
Q 1356 3278 1631 3431 
Q 1906 3584 2284 3584 
Q 2666 3584 2933 3390 
Q 3200 3197 3328 2828 
z
" transform="scale(0.015625)"/>
      </defs>
      <use xlink:href="#DejaVuSans-77"/>
      <use xlink:href="#DejaVuSans-66" transform="translate(81.787109 0)"/>
      <use xlink:href="#DejaVuSans-6d" transform="translate(116.992188 0)"/>
     </g>
    </g>
    <g id="line2d_21">
     <path d="M 312.596635 50.094687 
L 312.596635 50.094687 
L 322.596635 50.094687 
L 322.596635 50.094687 
L 332.596635 50.094687 
" style="fill: none; stroke: #ff7f0e; stroke-width: 1.5; stroke-linecap: square"/>
    </g>
    <g id="text_22">
     <!-- ground_truth -->
     <g transform="translate(340.596635 53.594687) scale(0.1 -0.1)">
      <defs>
       <path id="DejaVuSans-72" d="M 2631 2963 
Q 2534 3019 2420 3045 
Q 2306 3072 2169 3072 
Q 1681 3072 1420 2755 
Q 1159 2438 1159 1844 
L 1159 0 
L 581 0 
L 581 3500 
L 1159 3500 
L 1159 2956 
Q 1341 3275 1631 3429 
Q 1922 3584 2338 3584 
Q 2397 3584 2469 3576 
Q 2541 3569 2628 3553 
L 2631 2963 
z
" transform="scale(0.015625)"/>
       <path id="DejaVuSans-64" d="M 2906 2969 
L 2906 4863 
L 3481 4863 
L 3481 0 
L 2906 0 
L 2906 525 
Q 2725 213 2448 61 
Q 2172 -91 1784 -91 
Q 1150 -91 751 415 
Q 353 922 353 1747 
Q 353 2572 751 3078 
Q 1150 3584 1784 3584 
Q 2172 3584 2448 3432 
Q 2725 3281 2906 2969 
z
M 947 1747 
Q 947 1113 1208 752 
Q 1469 391 1925 391 
Q 2381 391 2643 752 
Q 2906 1113 2906 1747 
Q 2906 2381 2643 2742 
Q 2381 3103 1925 3103 
Q 1469 3103 1208 2742 
Q 947 2381 947 1747 
z
" transform="scale(0.015625)"/>
       <path id="DejaVuSans-5f" d="M 3263 -1063 
L 3263 -1509 
L -63 -1509 
L -63 -1063 
L 3263 -1063 
z
" transform="scale(0.015625)"/>
      </defs>
      <use xlink:href="#DejaVuSans-67"/>
      <use xlink:href="#DejaVuSans-72" transform="translate(63.476562 0)"/>
      <use xlink:href="#DejaVuSans-6f" transform="translate(102.339844 0)"/>
      <use xlink:href="#DejaVuSans-75" transform="translate(163.521484 0)"/>
      <use xlink:href="#DejaVuSans-6e" transform="translate(226.900391 0)"/>
      <use xlink:href="#DejaVuSans-64" transform="translate(290.279297 0)"/>
      <use xlink:href="#DejaVuSans-5f" transform="translate(353.755859 0)"/>
      <use xlink:href="#DejaVuSans-74" transform="translate(403.755859 0)"/>
      <use xlink:href="#DejaVuSans-72" transform="translate(442.964844 0)"/>
      <use xlink:href="#DejaVuSans-75" transform="translate(484.078125 0)"/>
      <use xlink:href="#DejaVuSans-74" transform="translate(547.457031 0)"/>
      <use xlink:href="#DejaVuSans-68" transform="translate(586.666016 0)"/>
     </g>
    </g>
   </g>
  </g>
  <g id="axes_2">
   <g id="patch_8">
    <path d="M 497.565385 257.158895 
L 865.19952 257.158895 
L 865.19952 22.318125 
L 497.565385 22.318125 
z
" style="fill: #ffffff"/>
   </g>
   <g id="matplotlib.axis_3">
    <g id="xtick_9">
     <g id="line2d_22">
      <g>
       <use xlink:href="#m141ef94a36" x="531.866178" y="257.158895" style="stroke: #000000; stroke-width: 0.8"/>
      </g>
     </g>
     <g id="text_23">
      <!-- 1.0 -->
      <g transform="translate(523.914615 271.757332) scale(0.1 -0.1)">
       <use xlink:href="#DejaVuSans-31"/>
       <use xlink:href="#DejaVuSans-2e" transform="translate(63.623047 0)"/>
       <use xlink:href="#DejaVuSans-30" transform="translate(95.410156 0)"/>
      </g>
     </g>
    </g>
    <g id="xtick_10">
     <g id="line2d_23">
      <g>
       <use xlink:href="#m141ef94a36" x="575.841553" y="257.158895" style="stroke: #000000; stroke-width: 0.8"/>
      </g>
     </g>
     <g id="text_24">
      <!-- 1.5 -->
      <g transform="translate(567.88999 271.757332) scale(0.1 -0.1)">
       <use xlink:href="#DejaVuSans-31"/>
       <use xlink:href="#DejaVuSans-2e" transform="translate(63.623047 0)"/>
       <use xlink:href="#DejaVuSans-35" transform="translate(95.410156 0)"/>
      </g>
     </g>
    </g>
    <g id="xtick_11">
     <g id="line2d_24">
      <g>
       <use xlink:href="#m141ef94a36" x="619.816928" y="257.158895" style="stroke: #000000; stroke-width: 0.8"/>
      </g>
     </g>
     <g id="text_25">
      <!-- 2.0 -->
      <g transform="translate(611.865365 271.757332) scale(0.1 -0.1)">
       <use xlink:href="#DejaVuSans-32"/>
       <use xlink:href="#DejaVuSans-2e" transform="translate(63.623047 0)"/>
       <use xlink:href="#DejaVuSans-30" transform="translate(95.410156 0)"/>
      </g>
     </g>
    </g>
    <g id="xtick_12">
     <g id="line2d_25">
      <g>
       <use xlink:href="#m141ef94a36" x="663.792303" y="257.158895" style="stroke: #000000; stroke-width: 0.8"/>
      </g>
     </g>
     <g id="text_26">
      <!-- 2.5 -->
      <g transform="translate(655.84074 271.757332) scale(0.1 -0.1)">
       <use xlink:href="#DejaVuSans-32"/>
       <use xlink:href="#DejaVuSans-2e" transform="translate(63.623047 0)"/>
       <use xlink:href="#DejaVuSans-35" transform="translate(95.410156 0)"/>
      </g>
     </g>
    </g>
    <g id="xtick_13">
     <g id="line2d_26">
      <g>
       <use xlink:href="#m141ef94a36" x="707.767677" y="257.158895" style="stroke: #000000; stroke-width: 0.8"/>
      </g>
     </g>
     <g id="text_27">
      <!-- 3.0 -->
      <g transform="translate(699.816115 271.757332) scale(0.1 -0.1)">
       <use xlink:href="#DejaVuSans-33"/>
       <use xlink:href="#DejaVuSans-2e" transform="translate(63.623047 0)"/>
       <use xlink:href="#DejaVuSans-30" transform="translate(95.410156 0)"/>
      </g>
     </g>
    </g>
    <g id="xtick_14">
     <g id="line2d_27">
      <g>
       <use xlink:href="#m141ef94a36" x="751.743052" y="257.158895" style="stroke: #000000; stroke-width: 0.8"/>
      </g>
     </g>
     <g id="text_28">
      <!-- 3.5 -->
      <g transform="translate(743.79149 271.757332) scale(0.1 -0.1)">
       <use xlink:href="#DejaVuSans-33"/>
       <use xlink:href="#DejaVuSans-2e" transform="translate(63.623047 0)"/>
       <use xlink:href="#DejaVuSans-35" transform="translate(95.410156 0)"/>
      </g>
     </g>
    </g>
    <g id="xtick_15">
     <g id="line2d_28">
      <g>
       <use xlink:href="#m141ef94a36" x="795.718427" y="257.158895" style="stroke: #000000; stroke-width: 0.8"/>
      </g>
     </g>
     <g id="text_29">
      <!-- 4.0 -->
      <g transform="translate(787.766865 271.757332) scale(0.1 -0.1)">
       <use xlink:href="#DejaVuSans-34"/>
       <use xlink:href="#DejaVuSans-2e" transform="translate(63.623047 0)"/>
       <use xlink:href="#DejaVuSans-30" transform="translate(95.410156 0)"/>
      </g>
     </g>
    </g>
    <g id="xtick_16">
     <g id="line2d_29">
      <g>
       <use xlink:href="#m141ef94a36" x="839.693802" y="257.158895" style="stroke: #000000; stroke-width: 0.8"/>
      </g>
     </g>
     <g id="text_30">
      <!-- 4.5 -->
      <g transform="translate(831.74224 271.757332) scale(0.1 -0.1)">
       <use xlink:href="#DejaVuSans-34"/>
       <use xlink:href="#DejaVuSans-2e" transform="translate(63.623047 0)"/>
       <use xlink:href="#DejaVuSans-35" transform="translate(95.410156 0)"/>
      </g>
     </g>
    </g>
    <g id="text_31">
     <!-- wavelength [Å] -->
     <g transform="translate(643.344952 287.119832) scale(0.1 -0.1)">
      <use xlink:href="#DejaVuSans-77"/>
      <use xlink:href="#DejaVuSans-61" transform="translate(81.787109 0)"/>
      <use xlink:href="#DejaVuSans-76" transform="translate(143.066406 0)"/>
      <use xlink:href="#DejaVuSans-65" transform="translate(202.246094 0)"/>
      <use xlink:href="#DejaVuSans-6c" transform="translate(263.769531 0)"/>
      <use xlink:href="#DejaVuSans-65" transform="translate(291.552734 0)"/>
      <use xlink:href="#DejaVuSans-6e" transform="translate(353.076172 0)"/>
      <use xlink:href="#DejaVuSans-67" transform="translate(416.455078 0)"/>
      <use xlink:href="#DejaVuSans-74" transform="translate(479.931641 0)"/>
      <use xlink:href="#DejaVuSans-68" transform="translate(519.140625 0)"/>
      <use xlink:href="#DejaVuSans-20" transform="translate(582.519531 0)"/>
      <use xlink:href="#DejaVuSans-5b" transform="translate(614.306641 0)"/>
      <use xlink:href="#DejaVuSans-c5" transform="translate(653.320312 0)"/>
      <use xlink:href="#DejaVuSans-5d" transform="translate(721.728516 0)"/>
     </g>
    </g>
   </g>
   <g id="matplotlib.axis_4">
    <g id="ytick_10">
     <g id="line2d_30">
      <g>
       <use xlink:href="#m964e3529e9" x="497.565385" y="246.484315" style="stroke: #000000; stroke-width: 0.8"/>
      </g>
     </g>
     <g id="text_32">
      <!-- 0 -->
      <g transform="translate(484.202885 250.283533) scale(0.1 -0.1)">
       <use xlink:href="#DejaVuSans-30"/>
      </g>
     </g>
    </g>
    <g id="ytick_11">
     <g id="line2d_31">
      <g>
       <use xlink:href="#m964e3529e9" x="497.565385" y="219.630024" style="stroke: #000000; stroke-width: 0.8"/>
      </g>
     </g>
     <g id="text_33">
      <!-- 100 -->
      <g transform="translate(471.477885 223.429243) scale(0.1 -0.1)">
       <use xlink:href="#DejaVuSans-31"/>
       <use xlink:href="#DejaVuSans-30" transform="translate(63.623047 0)"/>
       <use xlink:href="#DejaVuSans-30" transform="translate(127.246094 0)"/>
      </g>
     </g>
    </g>
    <g id="ytick_12">
     <g id="line2d_32">
      <g>
       <use xlink:href="#m964e3529e9" x="497.565385" y="192.775734" style="stroke: #000000; stroke-width: 0.8"/>
      </g>
     </g>
     <g id="text_34">
      <!-- 200 -->
      <g transform="translate(471.477885 196.574952) scale(0.1 -0.1)">
       <use xlink:href="#DejaVuSans-32"/>
       <use xlink:href="#DejaVuSans-30" transform="translate(63.623047 0)"/>
       <use xlink:href="#DejaVuSans-30" transform="translate(127.246094 0)"/>
      </g>
     </g>
    </g>
    <g id="ytick_13">
     <g id="line2d_33">
      <g>
       <use xlink:href="#m964e3529e9" x="497.565385" y="165.921443" style="stroke: #000000; stroke-width: 0.8"/>
      </g>
     </g>
     <g id="text_35">
      <!-- 300 -->
      <g transform="translate(471.477885 169.720662) scale(0.1 -0.1)">
       <use xlink:href="#DejaVuSans-33"/>
       <use xlink:href="#DejaVuSans-30" transform="translate(63.623047 0)"/>
       <use xlink:href="#DejaVuSans-30" transform="translate(127.246094 0)"/>
      </g>
     </g>
    </g>
    <g id="ytick_14">
     <g id="line2d_34">
      <g>
       <use xlink:href="#m964e3529e9" x="497.565385" y="139.067153" style="stroke: #000000; stroke-width: 0.8"/>
      </g>
     </g>
     <g id="text_36">
      <!-- 400 -->
      <g transform="translate(471.477885 142.866371) scale(0.1 -0.1)">
       <use xlink:href="#DejaVuSans-34"/>
       <use xlink:href="#DejaVuSans-30" transform="translate(63.623047 0)"/>
       <use xlink:href="#DejaVuSans-30" transform="translate(127.246094 0)"/>
      </g>
     </g>
    </g>
    <g id="ytick_15">
     <g id="line2d_35">
      <g>
       <use xlink:href="#m964e3529e9" x="497.565385" y="112.212862" style="stroke: #000000; stroke-width: 0.8"/>
      </g>
     </g>
     <g id="text_37">
      <!-- 500 -->
      <g transform="translate(471.477885 116.012081) scale(0.1 -0.1)">
       <use xlink:href="#DejaVuSans-35"/>
       <use xlink:href="#DejaVuSans-30" transform="translate(63.623047 0)"/>
       <use xlink:href="#DejaVuSans-30" transform="translate(127.246094 0)"/>
      </g>
     </g>
    </g>
    <g id="ytick_16">
     <g id="line2d_36">
      <g>
       <use xlink:href="#m964e3529e9" x="497.565385" y="85.358572" style="stroke: #000000; stroke-width: 0.8"/>
      </g>
     </g>
     <g id="text_38">
      <!-- 600 -->
      <g transform="translate(471.477885 89.157791) scale(0.1 -0.1)">
       <use xlink:href="#DejaVuSans-36"/>
       <use xlink:href="#DejaVuSans-30" transform="translate(63.623047 0)"/>
       <use xlink:href="#DejaVuSans-30" transform="translate(127.246094 0)"/>
      </g>
     </g>
    </g>
    <g id="ytick_17">
     <g id="line2d_37">
      <g>
       <use xlink:href="#m964e3529e9" x="497.565385" y="58.504281" style="stroke: #000000; stroke-width: 0.8"/>
      </g>
     </g>
     <g id="text_39">
      <!-- 700 -->
      <g transform="translate(471.477885 62.3035) scale(0.1 -0.1)">
       <use xlink:href="#DejaVuSans-37"/>
       <use xlink:href="#DejaVuSans-30" transform="translate(63.623047 0)"/>
       <use xlink:href="#DejaVuSans-30" transform="translate(127.246094 0)"/>
      </g>
     </g>
    </g>
    <g id="ytick_18">
     <g id="line2d_38">
      <g>
       <use xlink:href="#m964e3529e9" x="497.565385" y="31.649991" style="stroke: #000000; stroke-width: 0.8"/>
      </g>
     </g>
     <g id="text_40">
      <!-- 800 -->
      <g transform="translate(471.477885 35.44921) scale(0.1 -0.1)">
       <use xlink:href="#DejaVuSans-38"/>
       <use xlink:href="#DejaVuSans-30" transform="translate(63.623047 0)"/>
       <use xlink:href="#DejaVuSans-30" transform="translate(127.246094 0)"/>
      </g>
     </g>
    </g>
    <g id="text_41">
     <!-- [counts] -->
     <g transform="translate(465.398198 160.35101) rotate(-90) scale(0.1 -0.1)">
      <use xlink:href="#DejaVuSans-5b"/>
      <use xlink:href="#DejaVuSans-63" transform="translate(39.013672 0)"/>
      <use xlink:href="#DejaVuSans-6f" transform="translate(93.994141 0)"/>
      <use xlink:href="#DejaVuSans-75" transform="translate(155.175781 0)"/>
      <use xlink:href="#DejaVuSans-6e" transform="translate(218.554688 0)"/>
      <use xlink:href="#DejaVuSans-74" transform="translate(281.933594 0)"/>
      <use xlink:href="#DejaVuSans-73" transform="translate(321.142578 0)"/>
      <use xlink:href="#DejaVuSans-5d" transform="translate(373.242188 0)"/>
     </g>
    </g>
   </g>
   <g id="line2d_39">
    <path d="M 514.276028 246.484315 
L 522.631349 246.484315 
L 522.631349 245.678686 
L 524.302413 245.678686 
L 524.302413 237.622399 
L 525.973477 237.622399 
L 525.973477 231.445912 
L 527.644542 231.445912 
L 527.644542 217.750224 
L 529.315606 217.750224 
L 529.315606 208.351222 
L 530.98667 208.351222 
L 530.98667 207.545593 
L 532.657734 207.545593 
L 532.657734 195.729706 
L 534.328799 195.729706 
L 534.328799 191.701562 
L 535.999863 191.701562 
L 535.999863 179.885674 
L 537.670927 179.885674 
L 537.670927 170.486673 
L 539.341991 170.486673 
L 539.341991 159.476413 
L 541.013056 159.476413 
L 541.013056 157.32807 
L 542.68412 157.32807 
L 542.68412 154.911184 
L 544.355184 154.911184 
L 544.355184 136.650267 
L 546.026248 136.650267 
L 546.026248 127.251265 
L 547.697313 127.251265 
L 547.697313 125.640008 
L 549.368377 125.640008 
L 549.368377 110.333062 
L 551.039441 110.333062 
L 551.039441 105.230747 
L 552.710505 105.230747 
L 552.710505 100.93406 
L 554.38157 100.93406 
L 554.38157 84.015857 
L 556.052634 84.015857 
L 556.052634 100.128432 
L 557.723698 100.128432 
L 557.723698 85.090029 
L 559.394762 85.090029 
L 559.394762 79.987714 
L 562.736891 79.987714 
L 562.736891 73.005598 
L 564.407955 73.005598 
L 564.407955 49.642366 
L 566.079019 49.642366 
L 566.079019 63.069511 
L 567.750084 63.069511 
L 567.750084 45.614222 
L 569.421148 45.614222 
L 569.421148 41.317535 
L 571.092212 41.317535 
L 571.092212 52.059252 
L 572.763276 52.059252 
L 572.763276 48.031108 
L 574.434341 48.031108 
L 574.434341 44.54005 
L 576.105405 44.54005 
L 576.105405 50.98508 
L 577.776469 50.98508 
L 577.776469 42.391707 
L 579.447533 42.391707 
L 579.447533 35.141049 
L 581.118598 35.141049 
L 581.118598 36.752306 
L 582.789662 36.752306 
L 582.789662 43.465879 
L 584.460726 43.465879 
L 584.460726 61.726796 
L 586.13179 61.726796 
L 586.13179 48.031108 
L 587.802855 48.031108 
L 587.802855 59.846996 
L 589.473919 59.846996 
L 589.473919 51.522166 
L 591.144983 51.522166 
L 591.144983 63.338054 
L 592.816047 63.338054 
L 592.816047 79.719171 
L 594.487112 79.719171 
L 594.487112 54.476138 
L 596.158176 54.476138 
L 596.158176 61.458253 
L 597.82924 61.458253 
L 597.82924 70.320169 
L 599.500304 70.320169 
L 599.500304 68.708912 
L 601.171369 68.708912 
L 601.171369 61.726796 
L 602.842433 61.726796 
L 602.842433 74.616856 
L 604.513497 74.616856 
L 604.513497 77.302285 
L 606.184561 77.302285 
L 606.184561 66.292026 
L 607.855626 66.292026 
L 607.855626 83.478772 
L 609.52669 83.478772 
L 609.52669 85.895658 
L 611.197754 85.895658 
L 611.197754 79.450628 
L 612.868818 79.450628 
L 612.868818 87.775458 
L 614.539882 87.775458 
L 614.539882 78.913542 
L 616.210947 78.913542 
L 616.210947 81.598971 
L 617.882011 81.598971 
L 617.882011 95.294659 
L 619.553075 95.294659 
L 619.553075 79.182085 
L 621.22414 79.182085 
L 621.22414 76.765199 
L 622.895204 76.765199 
L 622.895204 77.839371 
L 624.566268 77.839371 
L 624.566268 81.330428 
L 626.237332 81.330428 
L 626.237332 89.386715 
L 627.908397 89.386715 
L 627.908397 78.376456 
L 629.579461 78.376456 
L 629.579461 84.552943 
L 631.250525 84.552943 
L 631.250525 71.662884 
L 632.921589 71.662884 
L 632.921589 96.368831 
L 634.592654 96.368831 
L 634.592654 100.396974 
L 636.263718 100.396974 
L 636.263718 79.182085 
L 637.934782 79.182085 
L 637.934782 101.202603 
L 639.605846 101.202603 
L 639.605846 104.425118 
L 641.27691 104.425118 
L 641.27691 106.842004 
L 642.947975 106.842004 
L 642.947975 110.064519 
L 644.619039 110.064519 
L 644.619039 107.647633 
L 646.290103 107.647633 
L 646.290103 106.573461 
L 647.961168 106.573461 
L 647.961168 125.640008 
L 649.632232 125.640008 
L 649.632232 129.399608 
L 651.303296 129.399608 
L 651.303296 140.141324 
L 652.97436 140.141324 
L 652.97436 143.095296 
L 654.645424 143.095296 
L 654.645424 155.44827 
L 656.316489 155.44827 
L 656.316489 159.207871 
L 657.987553 159.207871 
L 657.987553 177.200245 
L 659.658617 177.200245 
L 659.658617 173.440645 
L 661.329682 173.440645 
L 661.329682 188.479047 
L 663.000746 188.479047 
L 663.000746 196.535334 
L 664.67181 196.535334 
L 664.67181 204.323079 
L 666.342874 204.323079 
L 666.342874 210.231022 
L 668.013938 210.231022 
L 668.013938 215.870423 
L 669.685003 215.870423 
L 669.685003 224.463796 
L 671.356067 224.463796 
L 671.356067 227.954854 
L 673.027131 227.954854 
L 673.027131 231.177369 
L 674.698195 231.177369 
L 674.698195 240.844914 
L 676.36926 240.844914 
L 676.36926 241.650542 
L 678.040324 241.650542 
L 678.040324 244.873057 
L 679.711388 244.873057 
L 679.711388 239.502199 
L 681.382452 239.502199 
L 681.382452 233.862798 
L 683.053517 233.862798 
L 683.053517 228.49194 
L 684.724581 228.49194 
L 684.724581 219.092938 
L 686.395645 219.092938 
L 686.395645 215.601881 
L 688.06671 215.601881 
L 688.06671 206.202879 
L 689.737774 206.202879 
L 689.737774 204.323079 
L 691.408838 204.323079 
L 691.408838 200.563478 
L 693.079902 200.563478 
L 693.079902 187.136333 
L 694.750967 187.136333 
L 694.750967 180.691303 
L 696.422031 180.691303 
L 696.422031 181.496932 
L 698.093095 181.496932 
L 698.093095 173.172102 
L 699.764159 173.172102 
L 699.764159 171.292301 
L 701.435224 171.292301 
L 701.435224 166.189986 
L 703.106288 166.189986 
L 703.106288 151.420126 
L 704.777352 151.420126 
L 704.777352 154.105555 
L 706.448416 154.105555 
L 706.448416 148.466154 
L 708.119481 148.466154 
L 708.119481 147.929069 
L 709.790545 147.929069 
L 709.790545 148.197611 
L 711.461609 148.197611 
L 711.461609 141.215496 
L 713.132673 141.215496 
L 713.132673 134.23338 
L 714.803738 134.23338 
L 714.803738 132.085037 
L 716.474802 132.085037 
L 716.474802 133.159209 
L 718.145866 133.159209 
L 718.145866 125.90855 
L 719.81693 125.90855 
L 719.81693 120.537692 
L 721.487995 120.537692 
L 721.487995 123.223121 
L 723.159059 123.223121 
L 723.159059 117.852263 
L 724.830123 117.852263 
L 724.830123 115.166834 
L 726.501187 115.166834 
L 726.501187 113.018491 
L 728.172252 113.018491 
L 728.172252 117.315177 
L 729.843316 117.315177 
L 729.843316 102.813861 
L 731.51438 102.813861 
L 731.51438 108.184719 
L 733.185444 108.184719 
L 733.185444 119.463521 
L 734.856509 119.463521 
L 734.856509 110.870148 
L 736.527573 110.870148 
L 736.527573 104.962204 
L 738.198637 104.962204 
L 738.198637 124.565836 
L 739.869701 124.565836 
L 739.869701 113.555577 
L 741.540766 113.555577 
L 741.540766 111.138691 
L 743.21183 111.138691 
L 743.21183 124.02875 
L 744.882894 124.02875 
L 744.882894 114.898291 
L 746.553958 114.898291 
L 746.553958 132.622123 
L 748.225023 132.622123 
L 748.225023 106.573461 
L 749.896087 106.573461 
L 749.896087 130.47378 
L 751.567151 130.47378 
L 751.567151 129.668151 
L 753.238215 129.668151 
L 753.238215 135.307552 
L 754.909279 135.307552 
L 754.909279 121.880407 
L 756.580344 121.880407 
L 756.580344 131.279409 
L 758.251408 131.279409 
L 758.251408 143.632382 
L 759.922472 143.632382 
L 759.922472 135.844638 
L 761.593537 135.844638 
L 761.593537 144.975097 
L 763.264601 144.975097 
L 763.264601 145.780725 
L 766.606729 145.780725 
L 766.606729 154.911184 
L 768.277793 154.911184 
L 768.277793 144.438011 
L 771.619922 144.438011 
L 771.619922 144.706554 
L 773.290986 144.706554 
L 773.290986 152.762841 
L 774.962051 152.762841 
L 774.962051 155.179727 
L 776.633115 155.179727 
L 776.633115 150.883041 
L 778.304179 150.883041 
L 778.304179 163.504557 
L 779.975243 163.504557 
L 779.975243 153.837012 
L 781.646308 153.837012 
L 781.646308 162.698928 
L 783.317372 162.698928 
L 783.317372 165.6529 
L 784.988436 165.6529 
L 784.988436 158.133699 
L 786.6595 158.133699 
L 786.6595 172.09793 
L 790.001629 172.09793 
L 790.001629 176.663159 
L 791.672693 176.663159 
L 791.672693 171.292301 
L 793.343757 171.292301 
L 793.343757 177.200245 
L 795.014822 177.200245 
L 795.014822 177.468788 
L 796.685886 177.468788 
L 796.685886 186.330704 
L 798.35695 186.330704 
L 798.35695 185.525075 
L 800.028014 185.525075 
L 800.028014 190.62739 
L 801.699079 190.62739 
L 801.699079 193.581362 
L 803.370143 193.581362 
L 803.370143 198.95222 
L 805.041207 198.95222 
L 805.041207 193.849905 
L 806.712271 193.849905 
L 806.712271 198.95222 
L 808.383336 198.95222 
L 808.383336 208.619765 
L 810.0544 208.619765 
L 810.0544 203.785993 
L 811.725464 203.785993 
L 811.725464 211.84228 
L 813.396528 211.84228 
L 813.396528 218.018767 
L 816.738657 218.018767 
L 816.738657 223.121082 
L 818.409721 223.121082 
L 818.409721 221.778367 
L 820.080785 221.778367 
L 820.080785 228.49194 
L 821.75185 228.49194 
L 821.75185 229.566112 
L 823.422914 229.566112 
L 823.422914 228.760483 
L 825.093978 228.760483 
L 825.093978 233.057169 
L 826.765042 233.057169 
L 826.765042 238.965113 
L 828.436107 238.965113 
L 828.436107 241.113456 
L 830.107171 241.113456 
L 830.107171 241.650542 
L 831.778235 241.650542 
L 831.778235 241.919085 
L 833.449299 241.919085 
L 833.449299 243.798886 
L 835.120363 243.798886 
L 835.120363 245.1416 
L 836.791428 245.1416 
L 836.791428 244.873057 
L 838.462492 244.873057 
L 838.462492 245.678686 
L 840.133556 245.678686 
L 840.133556 246.484315 
L 848.488877 246.484315 
L 848.488877 246.484315 
" clip-path="url(#pcf3983433a)" style="fill: none; stroke: #1f77b4; stroke-width: 1.5; stroke-linecap: square"/>
   </g>
   <g id="line2d_40">
    <path d="M 514.276028 246.484315 
L 522.631349 246.484315 
L 522.631349 244.873057 
L 524.302413 244.873057 
L 524.302413 237.622399 
L 525.973477 237.622399 
L 525.973477 229.834654 
L 527.644542 229.834654 
L 527.644542 219.361481 
L 529.315606 219.361481 
L 529.315606 208.619765 
L 530.98667 208.619765 
L 530.98667 208.082679 
L 532.657734 208.082679 
L 532.657734 192.507191 
L 534.328799 192.507191 
L 534.328799 193.581362 
L 535.999863 193.581362 
L 535.999863 178.005874 
L 537.670927 178.005874 
L 537.670927 168.338329 
L 539.341991 168.338329 
L 539.341991 161.087671 
L 541.013056 161.087671 
L 541.013056 158.939328 
L 542.68412 158.939328 
L 542.68412 152.494298 
L 544.355184 152.494298 
L 544.355184 140.946953 
L 546.026248 140.946953 
L 546.026248 127.788351 
L 547.697313 127.788351 
L 547.697313 126.177093 
L 549.368377 126.177093 
L 549.368377 107.37909 
L 551.039441 107.37909 
L 551.039441 99.322803 
L 552.710505 99.322803 
L 552.710505 108.184719 
L 554.38157 108.184719 
L 554.38157 88.581087 
L 557.723698 88.581087 
L 557.723698 90.192344 
L 559.394762 90.192344 
L 559.394762 77.839371 
L 561.065827 77.839371 
L 561.065827 81.598971 
L 562.736891 81.598971 
L 562.736891 71.125798 
L 564.407955 71.125798 
L 564.407955 50.179451 
L 566.079019 50.179451 
L 566.079019 63.069511 
L 567.750084 63.069511 
L 567.750084 39.706278 
L 569.421148 39.706278 
L 569.421148 56.087395 
L 571.092212 56.087395 
L 571.092212 44.808593 
L 572.763276 44.808593 
L 572.763276 49.373823 
L 574.434341 49.373823 
L 574.434341 48.299651 
L 576.105405 48.299651 
L 576.105405 45.882765 
L 577.776469 45.882765 
L 577.776469 41.317535 
L 579.447533 41.317535 
L 579.447533 44.271507 
L 581.118598 44.271507 
L 581.118598 32.992705 
L 582.789662 32.992705 
L 582.789662 48.031108 
L 584.460726 48.031108 
L 584.460726 54.744681 
L 586.13179 54.744681 
L 586.13179 53.939052 
L 587.802855 53.939052 
L 587.802855 55.013224 
L 589.473919 55.013224 
L 589.473919 58.235738 
L 591.144983 58.235738 
L 591.144983 61.18971 
L 592.816047 61.18971 
L 592.816047 63.875139 
L 594.487112 63.875139 
L 594.487112 62.263882 
L 596.158176 62.263882 
L 596.158176 64.949311 
L 597.82924 64.949311 
L 597.82924 74.07977 
L 599.500304 74.07977 
L 599.500304 62.263882 
L 601.171369 62.263882 
L 601.171369 62.532425 
L 602.842433 62.532425 
L 602.842433 71.931427 
L 604.513497 71.931427 
L 604.513497 76.496656 
L 606.184561 76.496656 
L 606.184561 70.588712 
L 607.855626 70.588712 
L 607.855626 75.95957 
L 609.52669 75.95957 
L 609.52669 89.655258 
L 611.197754 89.655258 
L 611.197754 86.969829 
L 612.868818 86.969829 
L 612.868818 84.821486 
L 614.539882 84.821486 
L 614.539882 81.330428 
L 616.210947 81.330428 
L 616.210947 81.867514 
L 617.882011 81.867514 
L 617.882011 87.775458 
L 619.553075 87.775458 
L 619.553075 80.256257 
L 621.22414 80.256257 
L 621.22414 75.422484 
L 622.895204 75.422484 
L 622.895204 85.358572 
L 624.566268 85.358572 
L 624.566268 77.302285 
L 626.237332 77.302285 
L 626.237332 90.460887 
L 627.908397 90.460887 
L 627.908397 88.312544 
L 629.579461 88.312544 
L 629.579461 70.588712 
L 631.250525 70.588712 
L 631.250525 80.5248 
L 632.921589 80.5248 
L 632.921589 92.072144 
L 634.592654 92.072144 
L 634.592654 97.443003 
L 636.263718 97.443003 
L 636.263718 91.803602 
L 637.934782 91.803602 
L 637.934782 92.877773 
L 639.605846 92.877773 
L 639.605846 111.138691 
L 641.27691 111.138691 
L 641.27691 103.082404 
L 642.947975 103.082404 
L 642.947975 108.990347 
L 644.619039 108.990347 
L 644.619039 109.795976 
L 646.290103 109.795976 
L 646.290103 107.37909 
L 647.961168 107.37909 
L 647.961168 126.982722 
L 649.632232 126.982722 
L 649.632232 120.269149 
L 651.303296 120.269149 
L 651.303296 147.12344 
L 652.97436 147.12344 
L 652.97436 141.752582 
L 654.645424 141.752582 
L 654.645424 150.077412 
L 656.316489 150.077412 
L 656.316489 157.32807 
L 657.987553 157.32807 
L 657.987553 178.274417 
L 659.658617 178.274417 
L 659.658617 175.320445 
L 661.329682 175.320445 
L 661.329682 187.673418 
L 663.000746 187.673418 
L 663.000746 196.266791 
L 664.67181 196.266791 
L 664.67181 205.39725 
L 666.342874 205.39725 
L 666.342874 209.425394 
L 668.013938 209.425394 
L 668.013938 217.750224 
L 669.685003 217.750224 
L 669.685003 224.195253 
L 671.356067 224.195253 
L 671.356067 227.954854 
L 673.027131 227.954854 
L 673.027131 230.103197 
L 674.698195 230.103197 
L 674.698195 241.650542 
L 676.36926 241.650542 
L 676.36926 240.844914 
L 678.040324 240.844914 
L 678.040324 244.604514 
L 679.711388 244.604514 
L 679.711388 238.159485 
L 681.382452 238.159485 
L 681.382452 233.594255 
L 683.053517 233.594255 
L 683.053517 227.686311 
L 684.724581 227.686311 
L 684.724581 219.630024 
L 686.395645 219.630024 
L 686.395645 215.333338 
L 688.06671 215.333338 
L 688.06671 208.082679 
L 689.737774 208.082679 
L 689.737774 202.443278 
L 691.408838 202.443278 
L 691.408838 199.757849 
L 693.079902 199.757849 
L 693.079902 187.941961 
L 694.750967 187.941961 
L 694.750967 181.765475 
L 696.422031 181.765475 
L 696.422031 181.496932 
L 698.093095 181.496932 
L 698.093095 174.514816 
L 699.764159 174.514816 
L 699.764159 169.412501 
L 701.435224 169.412501 
L 701.435224 163.236014 
L 703.106288 163.236014 
L 703.106288 152.762841 
L 704.777352 152.762841 
L 704.777352 156.522442 
L 706.448416 156.522442 
L 706.448416 143.900925 
L 708.119481 143.900925 
L 708.119481 152.494298 
L 709.790545 152.494298 
L 709.790545 143.632382 
L 711.461609 143.632382 
L 711.461609 139.604239 
L 713.132673 139.604239 
L 713.132673 141.215496 
L 714.803738 141.215496 
L 714.803738 137.455895 
L 716.474802 137.455895 
L 716.474802 122.417493 
L 718.145866 122.417493 
L 718.145866 133.696295 
L 719.81693 133.696295 
L 719.81693 120.000607 
L 721.487995 120.000607 
L 721.487995 125.90855 
L 723.159059 125.90855 
L 723.159059 110.870148 
L 724.830123 110.870148 
L 724.830123 116.778092 
L 726.501187 116.778092 
L 726.501187 114.898291 
L 728.172252 114.898291 
L 728.172252 106.842004 
L 729.843316 106.842004 
L 729.843316 112.749948 
L 731.51438 112.749948 
L 731.51438 104.425118 
L 733.185444 104.425118 
L 733.185444 120.000607 
L 734.856509 120.000607 
L 734.856509 113.82412 
L 736.527573 113.82412 
L 736.527573 109.795976 
L 738.198637 109.795976 
L 738.198637 116.778092 
L 739.869701 116.778092 
L 739.869701 110.870148 
L 741.540766 110.870148 
L 741.540766 120.269149 
L 743.21183 120.269149 
L 743.21183 117.58372 
L 744.882894 117.58372 
L 744.882894 116.509549 
L 746.553958 116.509549 
L 746.553958 126.177093 
L 748.225023 126.177093 
L 748.225023 122.417493 
L 749.896087 122.417493 
L 749.896087 123.223121 
L 751.567151 123.223121 
L 751.567151 129.936694 
L 753.238215 129.936694 
L 753.238215 128.056894 
L 754.909279 128.056894 
L 754.909279 126.445636 
L 756.580344 126.445636 
L 756.580344 130.47378 
L 758.251408 130.47378 
L 758.251408 140.141324 
L 759.922472 140.141324 
L 759.922472 136.650267 
L 761.593537 136.650267 
L 761.593537 151.957212 
L 763.264601 151.957212 
L 763.264601 142.289668 
L 764.935665 142.289668 
L 764.935665 147.929069 
L 766.606729 147.929069 
L 766.606729 147.660526 
L 768.277793 147.660526 
L 768.277793 152.494298 
L 769.948858 152.494298 
L 769.948858 138.530067 
L 771.619922 138.530067 
L 771.619922 149.271783 
L 773.290986 149.271783 
L 773.290986 153.56847 
L 774.962051 153.56847 
L 774.962051 153.837012 
L 776.633115 153.837012 
L 776.633115 158.133699 
L 778.304179 158.133699 
L 778.304179 153.56847 
L 779.975243 153.56847 
L 779.975243 160.819128 
L 781.646308 160.819128 
L 781.646308 155.716813 
L 783.317372 155.716813 
L 783.317372 160.819128 
L 784.988436 160.819128 
L 784.988436 163.236014 
L 786.6595 163.236014 
L 786.6595 173.172102 
L 788.330565 173.172102 
L 788.330565 173.97773 
L 790.001629 173.97773 
L 790.001629 175.588988 
L 791.672693 175.588988 
L 791.672693 172.09793 
L 793.343757 172.09793 
L 793.343757 175.588988 
L 795.014822 175.588988 
L 795.014822 179.348588 
L 796.685886 179.348588 
L 796.685886 181.496932 
L 798.35695 181.496932 
L 798.35695 189.821762 
L 800.028014 189.821762 
L 800.028014 187.941961 
L 801.699079 187.941961 
L 801.699079 198.683678 
L 803.370143 198.683678 
L 803.370143 192.507191 
L 805.041207 192.507191 
L 805.041207 197.340963 
L 806.712271 197.340963 
L 806.712271 202.174735 
L 808.383336 202.174735 
L 808.383336 205.39725 
L 810.0544 205.39725 
L 810.0544 204.591621 
L 811.725464 204.591621 
L 811.725464 213.453537 
L 813.396528 213.453537 
L 813.396528 215.064795 
L 815.067593 215.064795 
L 815.067593 219.630024 
L 816.738657 219.630024 
L 816.738657 220.972739 
L 818.409721 220.972739 
L 818.409721 222.583996 
L 820.080785 222.583996 
L 820.080785 230.103197 
L 821.75185 230.103197 
L 821.75185 227.149225 
L 823.422914 227.149225 
L 823.422914 229.834654 
L 825.093978 229.834654 
L 825.093978 233.862798 
L 826.765042 233.862798 
L 826.765042 237.353856 
L 828.436107 237.353856 
L 828.436107 240.576371 
L 830.107171 240.576371 
L 830.107171 241.919085 
L 831.778235 241.919085 
L 831.778235 242.456171 
L 833.449299 242.456171 
L 833.449299 243.798886 
L 835.120363 243.798886 
L 835.120363 245.1416 
L 836.791428 245.1416 
L 836.791428 244.604514 
L 838.462492 244.604514 
L 838.462492 245.678686 
L 840.133556 245.678686 
L 840.133556 246.484315 
L 848.488877 246.484315 
L 848.488877 246.484315 
" clip-path="url(#pcf3983433a)" style="fill: none; stroke: #ff7f0e; stroke-width: 1.5; stroke-linecap: square"/>
   </g>
   <g id="patch_9">
    <path d="M 497.565385 257.158895 
L 497.565385 22.318125 
" style="fill: none; stroke: #000000; stroke-width: 0.8; stroke-linejoin: miter; stroke-linecap: square"/>
   </g>
   <g id="patch_10">
    <path d="M 865.19952 257.158895 
L 865.19952 22.318125 
" style="fill: none; stroke: #000000; stroke-width: 0.8; stroke-linejoin: miter; stroke-linecap: square"/>
   </g>
   <g id="patch_11">
    <path d="M 497.565385 257.158895 
L 865.19952 257.158895 
" style="fill: none; stroke: #000000; stroke-width: 0.8; stroke-linejoin: miter; stroke-linecap: square"/>
   </g>
   <g id="patch_12">
    <path d="M 497.565385 22.318125 
L 865.19952 22.318125 
" style="fill: none; stroke: #000000; stroke-width: 0.8; stroke-linejoin: miter; stroke-linecap: square"/>
   </g>
   <g id="text_42">
    <!-- Pixel 2 -->
    <g transform="translate(661.78589 16.318125) scale(0.12 -0.12)">
     <use xlink:href="#DejaVuSans-50"/>
     <use xlink:href="#DejaVuSans-69" transform="translate(58.052734 0)"/>
     <use xlink:href="#DejaVuSans-78" transform="translate(85.835938 0)"/>
     <use xlink:href="#DejaVuSans-65" transform="translate(141.890625 0)"/>
     <use xlink:href="#DejaVuSans-6c" transform="translate(203.414062 0)"/>
     <use xlink:href="#DejaVuSans-20" transform="translate(231.197266 0)"/>
     <use xlink:href="#DejaVuSans-32" transform="translate(262.984375 0)"/>
    </g>
   </g>
   <g id="legend_2">
    <g id="patch_13">
     <path d="M 761.196395 59.9525 
L 858.19952 59.9525 
Q 860.19952 59.9525 860.19952 57.9525 
L 860.19952 29.318125 
Q 860.19952 27.318125 858.19952 27.318125 
L 761.196395 27.318125 
Q 759.196395 27.318125 759.196395 29.318125 
L 759.196395 57.9525 
Q 759.196395 59.9525 761.196395 59.9525 
z
" style="fill: #ffffff; opacity: 0.8; stroke: #cccccc; stroke-linejoin: miter"/>
    </g>
    <g id="line2d_41">
     <path d="M 763.196395 35.416562 
L 763.196395 35.416562 
L 773.196395 35.416562 
L 773.196395 35.416562 
L 783.196395 35.416562 
" style="fill: none; stroke: #1f77b4; stroke-width: 1.5; stroke-linecap: square"/>
    </g>
    <g id="text_43">
     <!-- wfm -->
     <g transform="translate(791.196395 38.916562) scale(0.1 -0.1)">
      <use xlink:href="#DejaVuSans-77"/>
      <use xlink:href="#DejaVuSans-66" transform="translate(81.787109 0)"/>
      <use xlink:href="#DejaVuSans-6d" transform="translate(116.992188 0)"/>
     </g>
    </g>
    <g id="line2d_42">
     <path d="M 763.196395 50.094687 
L 763.196395 50.094687 
L 773.196395 50.094687 
L 773.196395 50.094687 
L 783.196395 50.094687 
" style="fill: none; stroke: #ff7f0e; stroke-width: 1.5; stroke-linecap: square"/>
    </g>
    <g id="text_44">
     <!-- ground_truth -->
     <g transform="translate(791.196395 53.594687) scale(0.1 -0.1)">
      <use xlink:href="#DejaVuSans-67"/>
      <use xlink:href="#DejaVuSans-72" transform="translate(63.476562 0)"/>
      <use xlink:href="#DejaVuSans-6f" transform="translate(102.339844 0)"/>
      <use xlink:href="#DejaVuSans-75" transform="translate(163.521484 0)"/>
      <use xlink:href="#DejaVuSans-6e" transform="translate(226.900391 0)"/>
      <use xlink:href="#DejaVuSans-64" transform="translate(290.279297 0)"/>
      <use xlink:href="#DejaVuSans-5f" transform="translate(353.755859 0)"/>
      <use xlink:href="#DejaVuSans-74" transform="translate(403.755859 0)"/>
      <use xlink:href="#DejaVuSans-72" transform="translate(442.964844 0)"/>
      <use xlink:href="#DejaVuSans-75" transform="translate(484.078125 0)"/>
      <use xlink:href="#DejaVuSans-74" transform="translate(547.457031 0)"/>
      <use xlink:href="#DejaVuSans-68" transform="translate(586.666016 0)"/>
     </g>
    </g>
   </g>
  </g>
 </g>
 <defs>
  <clipPath id="pef7d70a08d">
   <rect x="46.965625" y="22.318125" width="367.634135" height="234.84077"/>
  </clipPath>
  <clipPath id="pcf3983433a">
   <rect x="497.565385" y="22.318125" width="367.634135" height="234.84077"/>
  </clipPath>
 </defs>
</svg>
