<?xml version="1.0" encoding="utf-8" standalone="no"?>
<!DOCTYPE svg PUBLIC "-//W3C//DTD SVG 1.1//EN"
  "http://www.w3.org/Graphics/SVG/1.1/DTD/svg11.dtd">
<svg xmlns:xlink="http://www.w3.org/1999/xlink" width="872.39952pt" height="296.39952pt" viewBox="0 0 872.39952 296.39952" xmlns="http://www.w3.org/2000/svg" version="1.1">
 <metadata>
  <rdf:RDF xmlns:dc="http://purl.org/dc/elements/1.1/" xmlns:cc="http://creativecommons.org/ns#" xmlns:rdf="http://www.w3.org/1999/02/22-rdf-syntax-ns#">
   <cc:Work>
    <dc:type rdf:resource="http://purl.org/dc/dcmitype/StillImage"/>
    <dc:date>2026-02-02T14:27:41.270697</dc:date>
    <dc:format>image/svg+xml</dc:format>
    <dc:creator>
     <cc:Agent>
      <dc:title>Matplotlib v3.10.8, https://matplotlib.org/</dc:title>
     </cc:Agent>
    </dc:creator>
   </cc:Work>
  </rdf:RDF>
 </metadata>
 <defs>
  <style type="text/css">*{stroke-linejoin: round; stroke-linecap: butt}</style>
 </defs>
 <g id="figure_1">
  <g id="patch_1">
   <path d="M 0 296.39952 
L 872.39952 296.39952 
L 872.39952 0 
L 0 0 
z
" style="fill: #ffffff"/>
  </g>
  <g id="axes_1">
   <g id="patch_2">
    <path d="M 53.328125 257.158895 
L 414.59976 257.158895 
L 414.59976 7.2 
L 53.328125 7.2 
z
" style="fill: #ffffff"/>
   </g>
   <g id="matplotlib.axis_1">
    <g id="xtick_1">
     <g id="line2d_1">
      <defs>
       <path id="m5593bed639" d="M 0 0 
L 0 3.5 
" style="stroke: #000000; stroke-width: 0.8"/>
      </defs>
      <g>
       <use xlink:href="#m5593bed639" x="68.919593" y="257.158895" style="stroke: #000000; stroke-width: 0.8"/>
      </g>
     </g>
     <g id="text_1">
      <!-- 0 -->
      <g transform="translate(65.738343 271.757332) scale(0.1 -0.1)">
       <defs>
        <path id="DejaVuSans-30" d="M 2034 4250 
Q 1547 4250 1301 3770 
Q 1056 3291 1056 2328 
Q 1056 1369 1301 889 
Q 1547 409 2034 409 
Q 2525 409 2770 889 
Q 3016 1369 3016 2328 
Q 3016 3291 2770 3770 
Q 2525 4250 2034 4250 
z
M 2034 4750 
Q 2819 4750 3233 4129 
Q 3647 3509 3647 2328 
Q 3647 1150 3233 529 
Q 2819 -91 2034 -91 
Q 1250 -91 836 529 
Q 422 1150 422 2328 
Q 422 3509 836 4129 
Q 1250 4750 2034 4750 
z
" transform="scale(0.015625)"/>
       </defs>
       <use xlink:href="#DejaVuSans-30"/>
      </g>
     </g>
    </g>
    <g id="xtick_2">
     <g id="line2d_2">
      <g>
       <use xlink:href="#m5593bed639" x="135.011168" y="257.158895" style="stroke: #000000; stroke-width: 0.8"/>
      </g>
     </g>
     <g id="text_2">
      <!-- 1000 -->
      <g transform="translate(122.286168 271.757332) scale(0.1 -0.1)">
       <defs>
        <path id="DejaVuSans-31" d="M 794 531 
L 1825 531 
L 1825 4091 
L 703 3866 
L 703 4441 
L 1819 4666 
L 2450 4666 
L 2450 531 
L 3481 531 
L 3481 0 
L 794 0 
L 794 531 
z
" transform="scale(0.015625)"/>
       </defs>
       <use xlink:href="#DejaVuSans-31"/>
       <use xlink:href="#DejaVuSans-30" transform="translate(63.623047 0)"/>
       <use xlink:href="#DejaVuSans-30" transform="translate(127.246094 0)"/>
       <use xlink:href="#DejaVuSans-30" transform="translate(190.869141 0)"/>
      </g>
     </g>
    </g>
    <g id="xtick_3">
     <g id="line2d_3">
      <g>
       <use xlink:href="#m5593bed639" x="201.102743" y="257.158895" style="stroke: #000000; stroke-width: 0.8"/>
      </g>
     </g>
     <g id="text_3">
      <!-- 2000 -->
      <g transform="translate(188.377743 271.757332) scale(0.1 -0.1)">
       <defs>
        <path id="DejaVuSans-32" d="M 1228 531 
L 3431 531 
L 3431 0 
L 469 0 
L 469 531 
Q 828 903 1448 1529 
Q 2069 2156 2228 2338 
Q 2531 2678 2651 2914 
Q 2772 3150 2772 3378 
Q 2772 3750 2511 3984 
Q 2250 4219 1831 4219 
Q 1534 4219 1204 4116 
Q 875 4013 500 3803 
L 500 4441 
Q 881 4594 1212 4672 
Q 1544 4750 1819 4750 
Q 2544 4750 2975 4387 
Q 3406 4025 3406 3419 
Q 3406 3131 3298 2873 
Q 3191 2616 2906 2266 
Q 2828 2175 2409 1742 
Q 1991 1309 1228 531 
z
" transform="scale(0.015625)"/>
       </defs>
       <use xlink:href="#DejaVuSans-32"/>
       <use xlink:href="#DejaVuSans-30" transform="translate(63.623047 0)"/>
       <use xlink:href="#DejaVuSans-30" transform="translate(127.246094 0)"/>
       <use xlink:href="#DejaVuSans-30" transform="translate(190.869141 0)"/>
      </g>
     </g>
    </g>
    <g id="xtick_4">
     <g id="line2d_4">
      <g>
       <use xlink:href="#m5593bed639" x="267.194318" y="257.158895" style="stroke: #000000; stroke-width: 0.8"/>
      </g>
     </g>
     <g id="text_4">
      <!-- 3000 -->
      <g transform="translate(254.469318 271.757332) scale(0.1 -0.1)">
       <defs>
        <path id="DejaVuSans-33" d="M 2597 2516 
Q 3050 2419 3304 2112 
Q 3559 1806 3559 1356 
Q 3559 666 3084 287 
Q 2609 -91 1734 -91 
Q 1441 -91 1130 -33 
Q 819 25 488 141 
L 488 750 
Q 750 597 1062 519 
Q 1375 441 1716 441 
Q 2309 441 2620 675 
Q 2931 909 2931 1356 
Q 2931 1769 2642 2001 
Q 2353 2234 1838 2234 
L 1294 2234 
L 1294 2753 
L 1863 2753 
Q 2328 2753 2575 2939 
Q 2822 3125 2822 3475 
Q 2822 3834 2567 4026 
Q 2313 4219 1838 4219 
Q 1578 4219 1281 4162 
Q 984 4106 628 3988 
L 628 4550 
Q 988 4650 1302 4700 
Q 1616 4750 1894 4750 
Q 2613 4750 3031 4423 
Q 3450 4097 3450 3541 
Q 3450 3153 3228 2886 
Q 3006 2619 2597 2516 
z
" transform="scale(0.015625)"/>
       </defs>
       <use xlink:href="#DejaVuSans-33"/>
       <use xlink:href="#DejaVuSans-30" transform="translate(63.623047 0)"/>
       <use xlink:href="#DejaVuSans-30" transform="translate(127.246094 0)"/>
       <use xlink:href="#DejaVuSans-30" transform="translate(190.869141 0)"/>
      </g>
     </g>
    </g>
    <g id="xtick_5">
     <g id="line2d_5">
      <g>
       <use xlink:href="#m5593bed639" x="333.285893" y="257.158895" style="stroke: #000000; stroke-width: 0.8"/>
      </g>
     </g>
     <g id="text_5">
      <!-- 4000 -->
      <g transform="translate(320.560893 271.757332) scale(0.1 -0.1)">
       <defs>
        <path id="DejaVuSans-34" d="M 2419 4116 
L 825 1625 
L 2419 1625 
L 2419 4116 
z
M 2253 4666 
L 3047 4666 
L 3047 1625 
L 3713 1625 
L 3713 1100 
L 3047 1100 
L 3047 0 
L 2419 0 
L 2419 1100 
L 313 1100 
L 313 1709 
L 2253 4666 
z
" transform="scale(0.015625)"/>
       </defs>
       <use xlink:href="#DejaVuSans-34"/>
       <use xlink:href="#DejaVuSans-30" transform="translate(63.623047 0)"/>
       <use xlink:href="#DejaVuSans-30" transform="translate(127.246094 0)"/>
       <use xlink:href="#DejaVuSans-30" transform="translate(190.869141 0)"/>
      </g>
     </g>
    </g>
    <g id="xtick_6">
     <g id="line2d_6">
      <g>
       <use xlink:href="#m5593bed639" x="399.377469" y="257.158895" style="stroke: #000000; stroke-width: 0.8"/>
      </g>
     </g>
     <g id="text_6">
      <!-- 5000 -->
      <g transform="translate(386.652469 271.757332) scale(0.1 -0.1)">
       <defs>
        <path id="DejaVuSans-35" d="M 691 4666 
L 3169 4666 
L 3169 4134 
L 1269 4134 
L 1269 2991 
Q 1406 3038 1543 3061 
Q 1681 3084 1819 3084 
Q 2600 3084 3056 2656 
Q 3513 2228 3513 1497 
Q 3513 744 3044 326 
Q 2575 -91 1722 -91 
Q 1428 -91 1123 -41 
Q 819 9 494 109 
L 494 744 
Q 775 591 1075 516 
Q 1375 441 1709 441 
Q 2250 441 2565 725 
Q 2881 1009 2881 1497 
Q 2881 1984 2565 2268 
Q 2250 2553 1709 2553 
Q 1456 2553 1204 2497 
Q 953 2441 691 2322 
L 691 4666 
z
" transform="scale(0.015625)"/>
       </defs>
       <use xlink:href="#DejaVuSans-35"/>
       <use xlink:href="#DejaVuSans-30" transform="translate(63.623047 0)"/>
       <use xlink:href="#DejaVuSans-30" transform="translate(127.246094 0)"/>
       <use xlink:href="#DejaVuSans-30" transform="translate(190.869141 0)"/>
      </g>
     </g>
    </g>
    <g id="text_7">
     <!-- birth_time [µs] -->
     <g transform="translate(197.14363 285.435457) scale(0.1 -0.1)">
      <defs>
       <path id="DejaVuSans-62" d="M 3116 1747 
Q 3116 2381 2855 2742 
Q 2594 3103 2138 3103 
Q 1681 3103 1420 2742 
Q 1159 2381 1159 1747 
Q 1159 1113 1420 752 
Q 1681 391 2138 391 
Q 2594 391 2855 752 
Q 3116 1113 3116 1747 
z
M 1159 2969 
Q 1341 3281 1617 3432 
Q 1894 3584 2278 3584 
Q 2916 3584 3314 3078 
Q 3713 2572 3713 1747 
Q 3713 922 3314 415 
Q 2916 -91 2278 -91 
Q 1894 -91 1617 61 
Q 1341 213 1159 525 
L 1159 0 
L 581 0 
L 581 4863 
L 1159 4863 
L 1159 2969 
z
" transform="scale(0.015625)"/>
       <path id="DejaVuSans-69" d="M 603 3500 
L 1178 3500 
L 1178 0 
L 603 0 
L 603 3500 
z
M 603 4863 
L 1178 4863 
L 1178 4134 
L 603 4134 
L 603 4863 
z
" transform="scale(0.015625)"/>
       <path id="DejaVuSans-72" d="M 2631 2963 
Q 2534 3019 2420 3045 
Q 2306 3072 2169 3072 
Q 1681 3072 1420 2755 
Q 1159 2438 1159 1844 
L 1159 0 
L 581 0 
L 581 3500 
L 1159 3500 
L 1159 2956 
Q 1341 3275 1631 3429 
Q 1922 3584 2338 3584 
Q 2397 3584 2469 3576 
Q 2541 3569 2628 3553 
L 2631 2963 
z
" transform="scale(0.015625)"/>
       <path id="DejaVuSans-74" d="M 1172 4494 
L 1172 3500 
L 2356 3500 
L 2356 3053 
L 1172 3053 
L 1172 1153 
Q 1172 725 1289 603 
Q 1406 481 1766 481 
L 2356 481 
L 2356 0 
L 1766 0 
Q 1100 0 847 248 
Q 594 497 594 1153 
L 594 3053 
L 172 3053 
L 172 3500 
L 594 3500 
L 594 4494 
L 1172 4494 
z
" transform="scale(0.015625)"/>
       <path id="DejaVuSans-68" d="M 3513 2113 
L 3513 0 
L 2938 0 
L 2938 2094 
Q 2938 2591 2744 2837 
Q 2550 3084 2163 3084 
Q 1697 3084 1428 2787 
Q 1159 2491 1159 1978 
L 1159 0 
L 581 0 
L 581 4863 
L 1159 4863 
L 1159 2956 
Q 1366 3272 1645 3428 
Q 1925 3584 2291 3584 
Q 2894 3584 3203 3211 
Q 3513 2838 3513 2113 
z
" transform="scale(0.015625)"/>
       <path id="DejaVuSans-5f" d="M 3263 -1063 
L 3263 -1509 
L -63 -1509 
L -63 -1063 
L 3263 -1063 
z
" transform="scale(0.015625)"/>
       <path id="DejaVuSans-6d" d="M 3328 2828 
Q 3544 3216 3844 3400 
Q 4144 3584 4550 3584 
Q 5097 3584 5394 3201 
Q 5691 2819 5691 2113 
L 5691 0 
L 5113 0 
L 5113 2094 
Q 5113 2597 4934 2840 
Q 4756 3084 4391 3084 
Q 3944 3084 3684 2787 
Q 3425 2491 3425 1978 
L 3425 0 
L 2847 0 
L 2847 2094 
Q 2847 2600 2669 2842 
Q 2491 3084 2119 3084 
Q 1678 3084 1418 2786 
Q 1159 2488 1159 1978 
L 1159 0 
L 581 0 
L 581 3500 
L 1159 3500 
L 1159 2956 
Q 1356 3278 1631 3431 
Q 1906 3584 2284 3584 
Q 2666 3584 2933 3390 
Q 3200 3197 3328 2828 
z
" transform="scale(0.015625)"/>
       <path id="DejaVuSans-65" d="M 3597 1894 
L 3597 1613 
L 953 1613 
Q 991 1019 1311 708 
Q 1631 397 2203 397 
Q 2534 397 2845 478 
Q 3156 559 3463 722 
L 3463 178 
Q 3153 47 2828 -22 
Q 2503 -91 2169 -91 
Q 1331 -91 842 396 
Q 353 884 353 1716 
Q 353 2575 817 3079 
Q 1281 3584 2069 3584 
Q 2775 3584 3186 3129 
Q 3597 2675 3597 1894 
z
M 3022 2063 
Q 3016 2534 2758 2815 
Q 2500 3097 2075 3097 
Q 1594 3097 1305 2825 
Q 1016 2553 972 2059 
L 3022 2063 
z
" transform="scale(0.015625)"/>
       <path id="DejaVuSans-20" transform="scale(0.015625)"/>
       <path id="DejaVuSans-5b" d="M 550 4863 
L 1875 4863 
L 1875 4416 
L 1125 4416 
L 1125 -397 
L 1875 -397 
L 1875 -844 
L 550 -844 
L 550 4863 
z
" transform="scale(0.015625)"/>
       <path id="DejaVuSans-b5" d="M 544 -1331 
L 544 3500 
L 1119 3500 
L 1119 1325 
Q 1119 872 1334 640 
Q 1550 409 1972 409 
Q 2434 409 2667 671 
Q 2900 934 2900 1459 
L 2900 3500 
L 3475 3500 
L 3475 806 
Q 3475 619 3529 530 
Q 3584 441 3700 441 
Q 3728 441 3778 458 
Q 3828 475 3916 513 
L 3916 50 
Q 3788 -22 3673 -56 
Q 3559 -91 3450 -91 
Q 3234 -91 3106 31 
Q 2978 153 2931 403 
Q 2775 156 2548 32 
Q 2322 -91 2016 -91 
Q 1697 -91 1473 31 
Q 1250 153 1119 397 
L 1119 -1331 
L 544 -1331 
z
" transform="scale(0.015625)"/>
       <path id="DejaVuSans-73" d="M 2834 3397 
L 2834 2853 
Q 2591 2978 2328 3040 
Q 2066 3103 1784 3103 
Q 1356 3103 1142 2972 
Q 928 2841 928 2578 
Q 928 2378 1081 2264 
Q 1234 2150 1697 2047 
L 1894 2003 
Q 2506 1872 2764 1633 
Q 3022 1394 3022 966 
Q 3022 478 2636 193 
Q 2250 -91 1575 -91 
Q 1294 -91 989 -36 
Q 684 19 347 128 
L 347 722 
Q 666 556 975 473 
Q 1284 391 1588 391 
Q 1994 391 2212 530 
Q 2431 669 2431 922 
Q 2431 1156 2273 1281 
Q 2116 1406 1581 1522 
L 1381 1569 
Q 847 1681 609 1914 
Q 372 2147 372 2553 
Q 372 3047 722 3315 
Q 1072 3584 1716 3584 
Q 2034 3584 2315 3537 
Q 2597 3491 2834 3397 
z
" transform="scale(0.015625)"/>
       <path id="DejaVuSans-5d" d="M 1947 4863 
L 1947 -844 
L 622 -844 
L 622 -397 
L 1369 -397 
L 1369 4416 
L 622 4416 
L 622 4863 
L 1947 4863 
z
" transform="scale(0.015625)"/>
      </defs>
      <use xlink:href="#DejaVuSans-62"/>
      <use xlink:href="#DejaVuSans-69" transform="translate(63.476562 0)"/>
      <use xlink:href="#DejaVuSans-72" transform="translate(91.259766 0)"/>
      <use xlink:href="#DejaVuSans-74" transform="translate(132.373047 0)"/>
      <use xlink:href="#DejaVuSans-68" transform="translate(171.582031 0)"/>
      <use xlink:href="#DejaVuSans-5f" transform="translate(234.960938 0)"/>
      <use xlink:href="#DejaVuSans-74" transform="translate(284.960938 0)"/>
      <use xlink:href="#DejaVuSans-69" transform="translate(324.169922 0)"/>
      <use xlink:href="#DejaVuSans-6d" transform="translate(351.953125 0)"/>
      <use xlink:href="#DejaVuSans-65" transform="translate(449.365234 0)"/>
      <use xlink:href="#DejaVuSans-20" transform="translate(510.888672 0)"/>
      <use xlink:href="#DejaVuSans-5b" transform="translate(542.675781 0)"/>
      <use xlink:href="#DejaVuSans-b5" transform="translate(581.689453 0)"/>
      <use xlink:href="#DejaVuSans-73" transform="translate(645.3125 0)"/>
      <use xlink:href="#DejaVuSans-5d" transform="translate(697.412109 0)"/>
     </g>
    </g>
   </g>
   <g id="matplotlib.axis_2">
    <g id="ytick_1">
     <g id="line2d_7">
      <defs>
       <path id="ma3da328b40" d="M 0 0 
L -3.5 0 
" style="stroke: #000000; stroke-width: 0.8"/>
      </defs>
      <g>
       <use xlink:href="#ma3da328b40" x="53.328125" y="245.797127" style="stroke: #000000; stroke-width: 0.8"/>
      </g>
     </g>
     <g id="text_8">
      <!-- 0 -->
      <g transform="translate(39.965625 249.596346) scale(0.1 -0.1)">
       <use xlink:href="#DejaVuSans-30"/>
      </g>
     </g>
    </g>
    <g id="ytick_2">
     <g id="line2d_8">
      <g>
       <use xlink:href="#ma3da328b40" x="53.328125" y="208.727737" style="stroke: #000000; stroke-width: 0.8"/>
      </g>
     </g>
     <g id="text_9">
      <!-- 200 -->
      <g transform="translate(27.240625 212.526956) scale(0.1 -0.1)">
       <use xlink:href="#DejaVuSans-32"/>
       <use xlink:href="#DejaVuSans-30" transform="translate(63.623047 0)"/>
       <use xlink:href="#DejaVuSans-30" transform="translate(127.246094 0)"/>
      </g>
     </g>
    </g>
    <g id="ytick_3">
     <g id="line2d_9">
      <g>
       <use xlink:href="#ma3da328b40" x="53.328125" y="171.658348" style="stroke: #000000; stroke-width: 0.8"/>
      </g>
     </g>
     <g id="text_10">
      <!-- 400 -->
      <g transform="translate(27.240625 175.457566) scale(0.1 -0.1)">
       <use xlink:href="#DejaVuSans-34"/>
       <use xlink:href="#DejaVuSans-30" transform="translate(63.623047 0)"/>
       <use xlink:href="#DejaVuSans-30" transform="translate(127.246094 0)"/>
      </g>
     </g>
    </g>
    <g id="ytick_4">
     <g id="line2d_10">
      <g>
       <use xlink:href="#ma3da328b40" x="53.328125" y="134.588958" style="stroke: #000000; stroke-width: 0.8"/>
      </g>
     </g>
     <g id="text_11">
      <!-- 600 -->
      <g transform="translate(27.240625 138.388177) scale(0.1 -0.1)">
       <defs>
        <path id="DejaVuSans-36" d="M 2113 2584 
Q 1688 2584 1439 2293 
Q 1191 2003 1191 1497 
Q 1191 994 1439 701 
Q 1688 409 2113 409 
Q 2538 409 2786 701 
Q 3034 994 3034 1497 
Q 3034 2003 2786 2293 
Q 2538 2584 2113 2584 
z
M 3366 4563 
L 3366 3988 
Q 3128 4100 2886 4159 
Q 2644 4219 2406 4219 
Q 1781 4219 1451 3797 
Q 1122 3375 1075 2522 
Q 1259 2794 1537 2939 
Q 1816 3084 2150 3084 
Q 2853 3084 3261 2657 
Q 3669 2231 3669 1497 
Q 3669 778 3244 343 
Q 2819 -91 2113 -91 
Q 1303 -91 875 529 
Q 447 1150 447 2328 
Q 447 3434 972 4092 
Q 1497 4750 2381 4750 
Q 2619 4750 2861 4703 
Q 3103 4656 3366 4563 
z
" transform="scale(0.015625)"/>
       </defs>
       <use xlink:href="#DejaVuSans-36"/>
       <use xlink:href="#DejaVuSans-30" transform="translate(63.623047 0)"/>
       <use xlink:href="#DejaVuSans-30" transform="translate(127.246094 0)"/>
      </g>
     </g>
    </g>
    <g id="ytick_5">
     <g id="line2d_11">
      <g>
       <use xlink:href="#ma3da328b40" x="53.328125" y="97.519568" style="stroke: #000000; stroke-width: 0.8"/>
      </g>
     </g>
     <g id="text_12">
      <!-- 800 -->
      <g transform="translate(27.240625 101.318787) scale(0.1 -0.1)">
       <defs>
        <path id="DejaVuSans-38" d="M 2034 2216 
Q 1584 2216 1326 1975 
Q 1069 1734 1069 1313 
Q 1069 891 1326 650 
Q 1584 409 2034 409 
Q 2484 409 2743 651 
Q 3003 894 3003 1313 
Q 3003 1734 2745 1975 
Q 2488 2216 2034 2216 
z
M 1403 2484 
Q 997 2584 770 2862 
Q 544 3141 544 3541 
Q 544 4100 942 4425 
Q 1341 4750 2034 4750 
Q 2731 4750 3128 4425 
Q 3525 4100 3525 3541 
Q 3525 3141 3298 2862 
Q 3072 2584 2669 2484 
Q 3125 2378 3379 2068 
Q 3634 1759 3634 1313 
Q 3634 634 3220 271 
Q 2806 -91 2034 -91 
Q 1263 -91 848 271 
Q 434 634 434 1313 
Q 434 1759 690 2068 
Q 947 2378 1403 2484 
z
M 1172 3481 
Q 1172 3119 1398 2916 
Q 1625 2713 2034 2713 
Q 2441 2713 2670 2916 
Q 2900 3119 2900 3481 
Q 2900 3844 2670 4047 
Q 2441 4250 2034 4250 
Q 1625 4250 1398 4047 
Q 1172 3844 1172 3481 
z
" transform="scale(0.015625)"/>
       </defs>
       <use xlink:href="#DejaVuSans-38"/>
       <use xlink:href="#DejaVuSans-30" transform="translate(63.623047 0)"/>
       <use xlink:href="#DejaVuSans-30" transform="translate(127.246094 0)"/>
      </g>
     </g>
    </g>
    <g id="ytick_6">
     <g id="line2d_12">
      <g>
       <use xlink:href="#ma3da328b40" x="53.328125" y="60.450178" style="stroke: #000000; stroke-width: 0.8"/>
      </g>
     </g>
     <g id="text_13">
      <!-- 1000 -->
      <g transform="translate(20.878125 64.249397) scale(0.1 -0.1)">
       <use xlink:href="#DejaVuSans-31"/>
       <use xlink:href="#DejaVuSans-30" transform="translate(63.623047 0)"/>
       <use xlink:href="#DejaVuSans-30" transform="translate(127.246094 0)"/>
       <use xlink:href="#DejaVuSans-30" transform="translate(190.869141 0)"/>
      </g>
     </g>
    </g>
    <g id="ytick_7">
     <g id="line2d_13">
      <g>
       <use xlink:href="#ma3da328b40" x="53.328125" y="23.380789" style="stroke: #000000; stroke-width: 0.8"/>
      </g>
     </g>
     <g id="text_14">
      <!-- 1200 -->
      <g transform="translate(20.878125 27.180007) scale(0.1 -0.1)">
       <use xlink:href="#DejaVuSans-31"/>
       <use xlink:href="#DejaVuSans-32" transform="translate(63.623047 0)"/>
       <use xlink:href="#DejaVuSans-30" transform="translate(127.246094 0)"/>
       <use xlink:href="#DejaVuSans-30" transform="translate(190.869141 0)"/>
      </g>
     </g>
    </g>
    <g id="text_15">
     <!-- [counts] -->
     <g transform="translate(14.798438 152.791947) rotate(-90) scale(0.1 -0.1)">
      <defs>
       <path id="DejaVuSans-63" d="M 3122 3366 
L 3122 2828 
Q 2878 2963 2633 3030 
Q 2388 3097 2138 3097 
Q 1578 3097 1268 2742 
Q 959 2388 959 1747 
Q 959 1106 1268 751 
Q 1578 397 2138 397 
Q 2388 397 2633 464 
Q 2878 531 3122 666 
L 3122 134 
Q 2881 22 2623 -34 
Q 2366 -91 2075 -91 
Q 1284 -91 818 406 
Q 353 903 353 1747 
Q 353 2603 823 3093 
Q 1294 3584 2113 3584 
Q 2378 3584 2631 3529 
Q 2884 3475 3122 3366 
z
" transform="scale(0.015625)"/>
       <path id="DejaVuSans-6f" d="M 1959 3097 
Q 1497 3097 1228 2736 
Q 959 2375 959 1747 
Q 959 1119 1226 758 
Q 1494 397 1959 397 
Q 2419 397 2687 759 
Q 2956 1122 2956 1747 
Q 2956 2369 2687 2733 
Q 2419 3097 1959 3097 
z
M 1959 3584 
Q 2709 3584 3137 3096 
Q 3566 2609 3566 1747 
Q 3566 888 3137 398 
Q 2709 -91 1959 -91 
Q 1206 -91 779 398 
Q 353 888 353 1747 
Q 353 2609 779 3096 
Q 1206 3584 1959 3584 
z
" transform="scale(0.015625)"/>
       <path id="DejaVuSans-75" d="M 544 1381 
L 544 3500 
L 1119 3500 
L 1119 1403 
Q 1119 906 1312 657 
Q 1506 409 1894 409 
Q 2359 409 2629 706 
Q 2900 1003 2900 1516 
L 2900 3500 
L 3475 3500 
L 3475 0 
L 2900 0 
L 2900 538 
Q 2691 219 2414 64 
Q 2138 -91 1772 -91 
Q 1169 -91 856 284 
Q 544 659 544 1381 
z
M 1991 3584 
L 1991 3584 
z
" transform="scale(0.015625)"/>
       <path id="DejaVuSans-6e" d="M 3513 2113 
L 3513 0 
L 2938 0 
L 2938 2094 
Q 2938 2591 2744 2837 
Q 2550 3084 2163 3084 
Q 1697 3084 1428 2787 
Q 1159 2491 1159 1978 
L 1159 0 
L 581 0 
L 581 3500 
L 1159 3500 
L 1159 2956 
Q 1366 3272 1645 3428 
Q 1925 3584 2291 3584 
Q 2894 3584 3203 3211 
Q 3513 2838 3513 2113 
z
" transform="scale(0.015625)"/>
      </defs>
      <use xlink:href="#DejaVuSans-5b"/>
      <use xlink:href="#DejaVuSans-63" transform="translate(39.013672 0)"/>
      <use xlink:href="#DejaVuSans-6f" transform="translate(93.994141 0)"/>
      <use xlink:href="#DejaVuSans-75" transform="translate(155.175781 0)"/>
      <use xlink:href="#DejaVuSans-6e" transform="translate(218.554688 0)"/>
      <use xlink:href="#DejaVuSans-74" transform="translate(281.933594 0)"/>
      <use xlink:href="#DejaVuSans-73" transform="translate(321.142578 0)"/>
      <use xlink:href="#DejaVuSans-5d" transform="translate(373.242188 0)"/>
     </g>
    </g>
   </g>
   <g id="line2d_14">
    <path d="M 69.749563 235.232351 
L 70.844325 235.232351 
L 70.844325 228.189167 
L 71.939088 228.189167 
L 71.939088 219.292513 
L 73.033851 219.292513 
L 73.033851 210.39586 
L 74.128613 210.39586 
L 74.128613 202.981982 
L 75.223376 202.981982 
L 75.223376 192.602553 
L 76.318138 192.602553 
L 76.318138 190.378389 
L 77.412901 190.378389 
L 77.412901 178.701532 
L 78.507663 178.701532 
L 78.507663 170.546266 
L 79.602426 170.546266 
L 79.602426 162.205653 
L 80.697188 162.205653 
L 80.697188 147.563244 
L 81.791951 147.563244 
L 81.791951 153.309 
L 82.886713 153.309 
L 82.886713 140.705407 
L 83.981476 140.705407 
L 83.981476 138.481244 
L 85.076238 138.481244 
L 85.076238 126.619039 
L 86.171001 126.619039 
L 86.171001 118.093079 
L 87.265763 118.093079 
L 87.265763 114.38614 
L 88.360526 114.38614 
L 88.360526 119.205161 
L 89.455288 119.205161 
L 89.455288 106.045528 
L 90.550051 106.045528 
L 90.550051 112.532671 
L 91.644814 112.532671 
L 91.644814 103.265324 
L 92.739576 103.265324 
L 92.739576 110.308508 
L 93.834339 110.308508 
L 93.834339 95.480752 
L 94.929101 95.480752 
L 94.929101 87.140139 
L 96.023864 87.140139 
L 96.023864 94.183323 
L 97.118626 94.183323 
L 97.118626 88.437568 
L 98.213389 88.437568 
L 98.213389 76.390016 
L 99.308151 76.390016 
L 99.308151 73.053771 
L 100.402914 73.053771 
L 100.402914 79.355567 
L 101.497676 79.355567 
L 101.497676 66.195934 
L 102.592439 66.195934 
L 102.592439 68.605444 
L 103.687201 68.605444 
L 103.687201 73.795159 
L 104.781964 73.795159 
L 104.781964 73.053771 
L 105.876726 73.053771 
L 105.876726 69.717526 
L 106.971489 69.717526 
L 106.971489 64.527811 
L 108.066252 64.527811 
L 108.066252 57.484627 
L 109.161014 57.484627 
L 109.161014 62.488995 
L 110.255777 62.488995 
L 110.255777 62.303648 
L 111.350539 62.303648 
L 111.350539 58.226015 
L 112.445302 58.226015 
L 112.445302 46.549157 
L 113.540064 46.549157 
L 113.540064 53.406994 
L 114.634827 53.406994 
L 114.634827 43.583606 
L 115.729589 43.583606 
L 115.729589 56.372545 
L 116.824352 56.372545 
L 116.824352 53.592341 
L 117.919114 53.592341 
L 117.919114 47.661239 
L 119.013877 47.661239 
L 119.013877 45.993116 
L 120.108639 45.993116 
L 120.108639 42.286177 
L 121.203402 42.286177 
L 121.203402 49.144014 
L 122.298164 49.144014 
L 122.298164 45.066382 
L 123.392927 45.066382 
L 123.392927 50.256096 
L 124.487689 50.256096 
L 124.487689 41.730137 
L 125.582452 41.730137 
L 125.582452 41.915483 
L 126.677215 41.915483 
L 126.677215 32.648136 
L 127.771977 32.648136 
L 127.771977 38.764585 
L 128.86674 38.764585 
L 128.86674 39.320626 
L 129.961502 39.320626 
L 129.961502 33.574871 
L 131.056265 33.574871 
L 131.056265 39.505973 
L 132.151027 39.505973 
L 132.151027 38.764585 
L 133.24579 38.764585 
L 133.24579 45.807769 
L 134.340552 45.807769 
L 134.340552 47.105198 
L 135.435315 47.105198 
L 135.435315 35.057646 
L 136.530077 35.057646 
L 136.530077 28.199809 
L 137.62484 28.199809 
L 137.62484 27.458421 
L 138.719602 27.458421 
L 138.719602 37.467157 
L 139.814365 37.467157 
L 139.814365 36.725769 
L 140.909127 36.725769 
L 140.909127 39.135279 
L 142.00389 39.135279 
L 142.00389 40.062014 
L 143.098652 40.062014 
L 143.098652 50.070749 
L 144.193415 50.070749 
L 144.193415 42.286177 
L 145.288178 42.286177 
L 145.288178 36.911116 
L 147.477703 36.911116 
L 147.477703 36.540422 
L 148.572465 36.540422 
L 148.572465 42.10083 
L 149.667228 42.10083 
L 149.667228 25.975646 
L 150.76199 25.975646 
L 150.76199 48.958668 
L 151.856753 48.958668 
L 151.856753 34.316259 
L 152.951515 34.316259 
L 152.951515 22.824748 
L 154.046278 22.824748 
L 154.046278 25.604952 
L 155.14104 25.604952 
L 155.14104 40.988749 
L 156.235803 40.988749 
L 156.235803 26.902381 
L 157.330565 26.902381 
L 157.330565 42.10083 
L 158.425328 42.10083 
L 158.425328 34.501606 
L 159.52009 34.501606 
L 159.52009 29.867932 
L 160.614853 29.867932 
L 160.614853 30.053279 
L 161.709615 30.053279 
L 161.709615 31.536054 
L 162.804378 31.536054 
L 162.804378 38.579238 
L 163.899141 38.579238 
L 163.899141 22.639401 
L 164.993903 22.639401 
L 164.993903 24.863564 
L 166.088666 24.863564 
L 166.088666 35.613687 
L 167.183428 35.613687 
L 167.183428 41.359443 
L 168.278191 41.359443 
L 168.278191 37.28181 
L 169.372953 37.28181 
L 169.372953 41.730137 
L 170.467716 41.730137 
L 170.467716 30.053279 
L 171.562478 30.053279 
L 171.562478 23.751483 
L 172.657241 23.751483 
L 172.657241 40.988749 
L 173.752003 40.988749 
L 173.752003 35.057646 
L 174.846766 35.057646 
L 174.846766 29.682585 
L 175.941528 29.682585 
L 175.941528 40.247361 
L 177.036291 40.247361 
L 177.036291 25.048911 
L 178.131053 25.048911 
L 178.131053 38.393891 
L 179.225816 38.393891 
L 179.225816 31.536054 
L 180.320579 31.536054 
L 180.320579 44.324994 
L 181.415341 44.324994 
L 181.415341 31.16536 
L 182.510104 31.16536 
L 182.510104 46.36381 
L 183.604866 46.36381 
L 183.604866 28.385156 
L 184.699629 28.385156 
L 184.699629 30.794667 
L 185.794391 30.794667 
L 185.794391 30.053279 
L 186.889154 30.053279 
L 186.889154 33.01883 
L 187.983916 33.01883 
L 187.983916 40.247361 
L 189.078679 40.247361 
L 189.078679 39.69132 
L 190.173441 39.69132 
L 190.173441 34.130912 
L 191.268204 34.130912 
L 191.268204 18.561768 
L 192.362966 18.561768 
L 192.362966 29.126544 
L 193.457729 29.126544 
L 193.457729 38.393891 
L 194.552491 38.393891 
L 194.552491 32.092095 
L 195.647254 32.092095 
L 195.647254 28.75585 
L 196.742016 28.75585 
L 196.742016 28.014462 
L 197.836779 28.014462 
L 197.836779 33.01883 
L 198.931542 33.01883 
L 198.931542 34.872299 
L 200.026304 34.872299 
L 200.026304 30.053279 
L 201.121067 30.053279 
L 201.121067 33.945565 
L 202.215829 33.945565 
L 202.215829 26.531687 
L 203.310592 26.531687 
L 203.310592 32.092095 
L 204.405354 32.092095 
L 204.405354 31.536054 
L 205.500117 31.536054 
L 205.500117 21.712666 
L 206.594879 21.712666 
L 206.594879 30.423973 
L 207.689642 30.423973 
L 207.689642 27.458421 
L 208.784404 27.458421 
L 208.784404 25.419605 
L 209.879167 25.419605 
L 209.879167 28.941197 
L 210.973929 28.941197 
L 210.973929 30.053279 
L 212.068692 30.053279 
L 212.068692 29.682585 
L 213.163454 29.682585 
L 213.163454 36.725769 
L 214.258217 36.725769 
L 214.258217 25.234258 
L 215.352979 25.234258 
L 215.352979 20.044544 
L 216.447742 20.044544 
L 216.447742 39.69132 
L 217.542505 39.69132 
L 217.542505 26.160993 
L 218.637267 26.160993 
L 218.637267 33.574871 
L 219.73203 33.574871 
L 219.73203 31.906748 
L 220.826792 31.906748 
L 220.826792 37.837851 
L 221.921555 37.837851 
L 221.921555 38.023198 
L 223.016317 38.023198 
L 223.016317 37.467157 
L 224.11108 37.467157 
L 224.11108 37.652504 
L 225.205842 37.652504 
L 225.205842 21.527319 
L 226.300605 21.527319 
L 226.300605 30.980014 
L 227.395367 30.980014 
L 227.395367 23.751483 
L 228.49013 23.751483 
L 228.49013 33.204177 
L 229.584892 33.204177 
L 229.584892 29.311891 
L 230.679655 29.311891 
L 230.679655 27.087728 
L 231.774417 27.087728 
L 231.774417 37.467157 
L 232.86918 37.467157 
L 232.86918 25.419605 
L 233.963942 25.419605 
L 233.963942 29.867932 
L 235.058705 29.867932 
L 235.058705 40.432708 
L 236.153468 40.432708 
L 236.153468 25.234258 
L 237.24823 25.234258 
L 237.24823 28.014462 
L 238.342993 28.014462 
L 238.342993 26.34634 
L 239.437755 26.34634 
L 239.437755 28.75585 
L 240.532518 28.75585 
L 240.532518 34.130912 
L 241.62728 34.130912 
L 241.62728 32.648136 
L 242.722043 32.648136 
L 242.722043 31.906748 
L 243.816805 31.906748 
L 243.816805 42.286177 
L 244.911568 42.286177 
L 244.911568 21.341972 
L 246.00633 21.341972 
L 246.00633 39.69132 
L 247.101093 39.69132 
L 247.101093 35.057646 
L 248.195855 35.057646 
L 248.195855 37.096463 
L 249.290618 37.096463 
L 249.290618 28.014462 
L 250.38538 28.014462 
L 250.38538 41.54479 
L 251.480143 41.54479 
L 251.480143 38.764585 
L 252.574906 38.764585 
L 252.574906 29.867932 
L 253.669668 29.867932 
L 253.669668 30.794667 
L 254.764431 30.794667 
L 254.764431 28.385156 
L 255.859193 28.385156 
L 255.859193 23.010095 
L 256.953956 23.010095 
L 256.953956 18.747115 
L 258.048718 18.747115 
L 258.048718 29.867932 
L 259.143481 29.867932 
L 259.143481 35.613687 
L 260.238243 35.613687 
L 260.238243 40.988749 
L 261.333006 40.988749 
L 261.333006 55.260464 
L 262.427768 55.260464 
L 262.427768 76.76071 
L 263.522531 76.76071 
L 263.522531 80.282302 
L 264.617293 80.282302 
L 264.617293 86.213404 
L 265.712056 86.213404 
L 265.712056 101.411854 
L 266.806818 101.411854 
L 266.806818 96.036793 
L 267.901581 96.036793 
L 267.901581 116.610304 
L 268.996343 116.610304 
L 268.996343 111.605936 
L 270.091106 111.605936 
L 270.091106 121.243978 
L 271.185869 121.243978 
L 271.185869 131.623407 
L 272.280631 131.623407 
L 272.280631 132.550141 
L 273.375394 132.550141 
L 273.375394 150.158102 
L 274.470156 150.158102 
L 274.470156 153.123653 
L 275.564919 153.123653 
L 275.564919 152.752959 
L 276.659681 152.752959 
L 276.659681 157.942673 
L 277.754444 157.942673 
L 277.754444 158.313367 
L 278.849206 158.313367 
L 278.849206 170.175572 
L 279.943969 170.175572 
L 279.943969 165.912592 
L 281.038731 165.912592 
L 281.038731 173.511817 
L 282.133494 173.511817 
L 282.133494 183.149858 
L 283.228256 183.149858 
L 283.228256 187.968879 
L 284.323019 187.968879 
L 284.323019 192.046512 
L 285.417781 192.046512 
L 285.417781 190.563736 
L 286.512544 190.563736 
L 286.512544 198.904349 
L 287.607306 198.904349 
L 287.607306 198.348308 
L 288.702069 198.348308 
L 288.702069 202.240594 
L 289.796832 202.240594 
L 289.796832 206.318227 
L 290.891594 206.318227 
L 290.891594 200.572472 
L 291.986357 200.572472 
L 291.986357 203.908717 
L 293.081119 203.908717 
L 293.081119 213.546758 
L 294.175882 213.546758 
L 294.175882 214.65884 
L 295.270644 214.65884 
L 295.270644 211.693288 
L 296.365407 211.693288 
L 296.365407 214.65884 
L 297.460169 214.65884 
L 297.460169 216.326962 
L 298.554932 216.326962 
L 298.554932 218.551126 
L 299.649694 218.551126 
L 299.649694 218.180432 
L 300.744457 218.180432 
L 300.744457 219.292513 
L 301.839219 219.292513 
L 301.839219 217.995085 
L 302.933982 217.995085 
L 302.933982 222.814105 
L 304.028744 222.814105 
L 304.028744 224.852922 
L 305.123507 224.852922 
L 305.123507 227.262432 
L 306.218269 227.262432 
L 306.218269 229.671943 
L 307.313032 229.671943 
L 307.313032 226.335697 
L 308.407795 226.335697 
L 308.407795 225.965004 
L 309.502557 225.965004 
L 309.502557 229.486596 
L 310.59732 229.486596 
L 310.59732 228.189167 
L 311.692082 228.189167 
L 311.692082 230.227983 
L 312.786845 230.227983 
L 312.786845 232.081453 
L 313.881607 232.081453 
L 313.881607 231.525412 
L 314.97637 231.525412 
L 314.97637 233.378881 
L 316.071132 233.378881 
L 316.071132 233.008188 
L 317.165895 233.008188 
L 317.165895 236.715127 
L 318.260657 236.715127 
L 318.260657 237.08582 
L 319.35542 237.08582 
L 319.35542 236.52978 
L 320.450182 236.52978 
L 320.450182 236.900474 
L 321.544945 236.900474 
L 321.544945 236.344433 
L 322.639707 236.344433 
L 322.639707 237.827208 
L 324.829233 237.827208 
L 324.829233 237.271167 
L 325.923995 237.271167 
L 325.923995 236.900474 
L 328.11352 236.900474 
L 328.11352 238.383249 
L 329.208283 238.383249 
L 329.208283 237.271167 
L 330.303045 237.271167 
L 330.303045 239.866025 
L 331.397808 239.866025 
L 331.397808 239.309984 
L 332.49257 239.309984 
L 332.49257 238.568596 
L 333.587333 238.568596 
L 333.587333 241.719494 
L 334.682095 241.719494 
L 334.682095 242.646229 
L 335.776858 242.646229 
L 335.776858 240.236719 
L 336.87162 240.236719 
L 336.87162 242.460882 
L 337.966383 242.460882 
L 337.966383 242.090188 
L 339.061145 242.090188 
L 339.061145 241.904841 
L 340.155908 241.904841 
L 340.155908 243.387617 
L 341.25067 243.387617 
L 341.25067 241.904841 
L 342.345433 241.904841 
L 342.345433 242.275535 
L 343.440196 242.275535 
L 343.440196 242.646229 
L 344.534958 242.646229 
L 344.534958 243.572964 
L 345.629721 243.572964 
L 345.629721 241.534147 
L 346.724483 241.534147 
L 346.724483 243.387617 
L 347.819246 243.387617 
L 347.819246 242.831576 
L 348.914008 242.831576 
L 348.914008 243.943658 
L 350.008771 243.943658 
L 350.008771 244.685045 
L 351.103533 244.685045 
L 351.103533 243.016923 
L 352.198296 243.016923 
L 352.198296 243.758311 
L 353.293058 243.758311 
L 353.293058 244.314351 
L 354.387821 244.314351 
L 354.387821 243.20227 
L 355.482583 243.20227 
L 355.482583 242.646229 
L 356.577346 242.646229 
L 356.577346 245.055739 
L 357.672108 245.055739 
L 357.672108 243.758311 
L 358.766871 243.758311 
L 358.766871 244.499698 
L 359.861633 244.499698 
L 359.861633 243.758311 
L 360.956396 243.758311 
L 360.956396 245.055739 
L 362.051159 245.055739 
L 362.051159 244.314351 
L 364.240684 244.314351 
L 364.240684 245.426433 
L 365.335446 245.426433 
L 365.335446 244.314351 
L 366.430209 244.314351 
L 366.430209 244.685045 
L 368.619734 244.685045 
L 368.619734 245.241086 
L 369.714496 245.241086 
L 369.714496 243.758311 
L 370.809259 243.758311 
L 370.809259 245.61178 
L 371.904021 245.61178 
L 371.904021 244.314351 
L 372.998784 244.314351 
L 372.998784 244.870392 
L 375.188309 244.870392 
L 375.188309 245.055739 
L 376.283071 245.055739 
L 376.283071 245.61178 
L 377.377834 245.61178 
L 377.377834 245.426433 
L 378.472596 245.426433 
L 378.472596 244.314351 
L 379.567359 244.314351 
L 379.567359 245.055739 
L 381.756884 245.055739 
L 381.756884 244.870392 
L 382.851647 244.870392 
L 382.851647 245.055739 
L 383.946409 245.055739 
L 383.946409 244.499698 
L 385.041172 244.499698 
L 385.041172 245.241086 
L 386.135934 245.241086 
L 386.135934 245.61178 
L 387.230697 245.61178 
L 387.230697 245.241086 
L 388.325459 245.241086 
L 388.325459 245.61178 
L 389.420222 245.61178 
L 389.420222 245.055739 
L 390.514984 245.055739 
L 390.514984 245.797127 
L 391.609747 245.797127 
L 391.609747 245.055739 
L 392.704509 245.055739 
L 392.704509 245.426433 
L 393.799272 245.426433 
L 393.799272 245.61178 
L 395.988797 245.61178 
L 395.988797 245.426433 
L 397.08356 245.426433 
L 397.08356 245.241086 
L 398.178322 245.241086 
L 398.178322 245.241086 
" clip-path="url(#p4dc0803fcb)" style="fill: none; stroke: #1f77b4; stroke-width: 1.5; stroke-linecap: square"/>
   </g>
   <g id="patch_3">
    <path d="M 53.328125 257.158895 
L 53.328125 7.2 
" style="fill: none; stroke: #000000; stroke-width: 0.8; stroke-linejoin: miter; stroke-linecap: square"/>
   </g>
   <g id="patch_4">
    <path d="M 414.59976 257.158895 
L 414.59976 7.2 
" style="fill: none; stroke: #000000; stroke-width: 0.8; stroke-linejoin: miter; stroke-linecap: square"/>
   </g>
   <g id="patch_5">
    <path d="M 53.328125 257.158895 
L 414.59976 257.158895 
" style="fill: none; stroke: #000000; stroke-width: 0.8; stroke-linejoin: miter; stroke-linecap: square"/>
   </g>
   <g id="patch_6">
    <path d="M 53.328125 7.2 
L 414.59976 7.2 
" style="fill: none; stroke: #000000; stroke-width: 0.8; stroke-linejoin: miter; stroke-linecap: square"/>
   </g>
  </g>
  <g id="axes_2">
   <g id="patch_7">
    <path d="M 503.927885 257.158895 
L 865.19952 257.158895 
L 865.19952 7.2 
L 503.927885 7.2 
z
" style="fill: #ffffff"/>
   </g>
   <g id="matplotlib.axis_3">
    <g id="xtick_7">
     <g id="line2d_15">
      <g>
       <use xlink:href="#m5593bed639" x="517.028032" y="257.158895" style="stroke: #000000; stroke-width: 0.8"/>
      </g>
     </g>
     <g id="text_16">
      <!-- 0.0 -->
      <g transform="translate(509.076469 271.757332) scale(0.1 -0.1)">
       <defs>
        <path id="DejaVuSans-2e" d="M 684 794 
L 1344 794 
L 1344 0 
L 684 0 
L 684 794 
z
" transform="scale(0.015625)"/>
       </defs>
       <use xlink:href="#DejaVuSans-30"/>
       <use xlink:href="#DejaVuSans-2e" transform="translate(63.623047 0)"/>
       <use xlink:href="#DejaVuSans-30" transform="translate(95.410156 0)"/>
      </g>
     </g>
    </g>
    <g id="xtick_8">
     <g id="line2d_16">
      <g>
       <use xlink:href="#m5593bed639" x="558.853906" y="257.158895" style="stroke: #000000; stroke-width: 0.8"/>
      </g>
     </g>
     <g id="text_17">
      <!-- 2.5 -->
      <g transform="translate(550.902343 271.757332) scale(0.1 -0.1)">
       <use xlink:href="#DejaVuSans-32"/>
       <use xlink:href="#DejaVuSans-2e" transform="translate(63.623047 0)"/>
       <use xlink:href="#DejaVuSans-35" transform="translate(95.410156 0)"/>
      </g>
     </g>
    </g>
    <g id="xtick_9">
     <g id="line2d_17">
      <g>
       <use xlink:href="#m5593bed639" x="600.67978" y="257.158895" style="stroke: #000000; stroke-width: 0.8"/>
      </g>
     </g>
     <g id="text_18">
      <!-- 5.0 -->
      <g transform="translate(592.728218 271.757332) scale(0.1 -0.1)">
       <use xlink:href="#DejaVuSans-35"/>
       <use xlink:href="#DejaVuSans-2e" transform="translate(63.623047 0)"/>
       <use xlink:href="#DejaVuSans-30" transform="translate(95.410156 0)"/>
      </g>
     </g>
    </g>
    <g id="xtick_10">
     <g id="line2d_18">
      <g>
       <use xlink:href="#m5593bed639" x="642.505654" y="257.158895" style="stroke: #000000; stroke-width: 0.8"/>
      </g>
     </g>
     <g id="text_19">
      <!-- 7.5 -->
      <g transform="translate(634.554092 271.757332) scale(0.1 -0.1)">
       <defs>
        <path id="DejaVuSans-37" d="M 525 4666 
L 3525 4666 
L 3525 4397 
L 1831 0 
L 1172 0 
L 2766 4134 
L 525 4134 
L 525 4666 
z
" transform="scale(0.015625)"/>
       </defs>
       <use xlink:href="#DejaVuSans-37"/>
       <use xlink:href="#DejaVuSans-2e" transform="translate(63.623047 0)"/>
       <use xlink:href="#DejaVuSans-35" transform="translate(95.410156 0)"/>
      </g>
     </g>
    </g>
    <g id="xtick_11">
     <g id="line2d_19">
      <g>
       <use xlink:href="#m5593bed639" x="684.331529" y="257.158895" style="stroke: #000000; stroke-width: 0.8"/>
      </g>
     </g>
     <g id="text_20">
      <!-- 10.0 -->
      <g transform="translate(673.198716 271.757332) scale(0.1 -0.1)">
       <use xlink:href="#DejaVuSans-31"/>
       <use xlink:href="#DejaVuSans-30" transform="translate(63.623047 0)"/>
       <use xlink:href="#DejaVuSans-2e" transform="translate(127.246094 0)"/>
       <use xlink:href="#DejaVuSans-30" transform="translate(159.033203 0)"/>
      </g>
     </g>
    </g>
    <g id="xtick_12">
     <g id="line2d_20">
      <g>
       <use xlink:href="#m5593bed639" x="726.157403" y="257.158895" style="stroke: #000000; stroke-width: 0.8"/>
      </g>
     </g>
     <g id="text_21">
      <!-- 12.5 -->
      <g transform="translate(715.024591 271.757332) scale(0.1 -0.1)">
       <use xlink:href="#DejaVuSans-31"/>
       <use xlink:href="#DejaVuSans-32" transform="translate(63.623047 0)"/>
       <use xlink:href="#DejaVuSans-2e" transform="translate(127.246094 0)"/>
       <use xlink:href="#DejaVuSans-35" transform="translate(159.033203 0)"/>
      </g>
     </g>
    </g>
    <g id="xtick_13">
     <g id="line2d_21">
      <g>
       <use xlink:href="#m5593bed639" x="767.983277" y="257.158895" style="stroke: #000000; stroke-width: 0.8"/>
      </g>
     </g>
     <g id="text_22">
      <!-- 15.0 -->
      <g transform="translate(756.850465 271.757332) scale(0.1 -0.1)">
       <use xlink:href="#DejaVuSans-31"/>
       <use xlink:href="#DejaVuSans-35" transform="translate(63.623047 0)"/>
       <use xlink:href="#DejaVuSans-2e" transform="translate(127.246094 0)"/>
       <use xlink:href="#DejaVuSans-30" transform="translate(159.033203 0)"/>
      </g>
     </g>
    </g>
    <g id="xtick_14">
     <g id="line2d_22">
      <g>
       <use xlink:href="#m5593bed639" x="809.809152" y="257.158895" style="stroke: #000000; stroke-width: 0.8"/>
      </g>
     </g>
     <g id="text_23">
      <!-- 17.5 -->
      <g transform="translate(798.676339 271.757332) scale(0.1 -0.1)">
       <use xlink:href="#DejaVuSans-31"/>
       <use xlink:href="#DejaVuSans-37" transform="translate(63.623047 0)"/>
       <use xlink:href="#DejaVuSans-2e" transform="translate(127.246094 0)"/>
       <use xlink:href="#DejaVuSans-35" transform="translate(159.033203 0)"/>
      </g>
     </g>
    </g>
    <g id="xtick_15">
     <g id="line2d_23">
      <g>
       <use xlink:href="#m5593bed639" x="851.635026" y="257.158895" style="stroke: #000000; stroke-width: 0.8"/>
      </g>
     </g>
     <g id="text_24">
      <!-- 20.0 -->
      <g transform="translate(840.502213 271.757332) scale(0.1 -0.1)">
       <use xlink:href="#DejaVuSans-32"/>
       <use xlink:href="#DejaVuSans-30" transform="translate(63.623047 0)"/>
       <use xlink:href="#DejaVuSans-2e" transform="translate(127.246094 0)"/>
       <use xlink:href="#DejaVuSans-30" transform="translate(159.033203 0)"/>
      </g>
     </g>
    </g>
    <g id="text_25">
     <!-- wavelength [Å] -->
     <g transform="translate(646.526202 287.119832) scale(0.1 -0.1)">
      <defs>
       <path id="DejaVuSans-77" d="M 269 3500 
L 844 3500 
L 1563 769 
L 2278 3500 
L 2956 3500 
L 3675 769 
L 4391 3500 
L 4966 3500 
L 4050 0 
L 3372 0 
L 2619 2869 
L 1863 0 
L 1184 0 
L 269 3500 
z
" transform="scale(0.015625)"/>
       <path id="DejaVuSans-61" d="M 2194 1759 
Q 1497 1759 1228 1600 
Q 959 1441 959 1056 
Q 959 750 1161 570 
Q 1363 391 1709 391 
Q 2188 391 2477 730 
Q 2766 1069 2766 1631 
L 2766 1759 
L 2194 1759 
z
M 3341 1997 
L 3341 0 
L 2766 0 
L 2766 531 
Q 2569 213 2275 61 
Q 1981 -91 1556 -91 
Q 1019 -91 701 211 
Q 384 513 384 1019 
Q 384 1609 779 1909 
Q 1175 2209 1959 2209 
L 2766 2209 
L 2766 2266 
Q 2766 2663 2505 2880 
Q 2244 3097 1772 3097 
Q 1472 3097 1187 3025 
Q 903 2953 641 2809 
L 641 3341 
Q 956 3463 1253 3523 
Q 1550 3584 1831 3584 
Q 2591 3584 2966 3190 
Q 3341 2797 3341 1997 
z
" transform="scale(0.015625)"/>
       <path id="DejaVuSans-76" d="M 191 3500 
L 800 3500 
L 1894 563 
L 2988 3500 
L 3597 3500 
L 2284 0 
L 1503 0 
L 191 3500 
z
" transform="scale(0.015625)"/>
       <path id="DejaVuSans-6c" d="M 603 4863 
L 1178 4863 
L 1178 0 
L 603 0 
L 603 4863 
z
" transform="scale(0.015625)"/>
       <path id="DejaVuSans-67" d="M 2906 1791 
Q 2906 2416 2648 2759 
Q 2391 3103 1925 3103 
Q 1463 3103 1205 2759 
Q 947 2416 947 1791 
Q 947 1169 1205 825 
Q 1463 481 1925 481 
Q 2391 481 2648 825 
Q 2906 1169 2906 1791 
z
M 3481 434 
Q 3481 -459 3084 -895 
Q 2688 -1331 1869 -1331 
Q 1566 -1331 1297 -1286 
Q 1028 -1241 775 -1147 
L 775 -588 
Q 1028 -725 1275 -790 
Q 1522 -856 1778 -856 
Q 2344 -856 2625 -561 
Q 2906 -266 2906 331 
L 2906 616 
Q 2728 306 2450 153 
Q 2172 0 1784 0 
Q 1141 0 747 490 
Q 353 981 353 1791 
Q 353 2603 747 3093 
Q 1141 3584 1784 3584 
Q 2172 3584 2450 3431 
Q 2728 3278 2906 2969 
L 2906 3500 
L 3481 3500 
L 3481 434 
z
" transform="scale(0.015625)"/>
       <path id="DejaVuSans-c5" d="M 2663 5081 
Q 2663 5278 2523 5417 
Q 2384 5556 2188 5556 
Q 1988 5556 1852 5420 
Q 1716 5284 1716 5081 
Q 1716 4884 1853 4746 
Q 1991 4609 2188 4609 
Q 2384 4609 2523 4746 
Q 2663 4884 2663 5081 
z
M 2188 4044 
L 1338 1722 
L 3041 1722 
L 2188 4044 
z
M 1716 4366 
Q 1525 4494 1428 4673 
Q 1331 4853 1331 5081 
Q 1331 5441 1579 5691 
Q 1828 5941 2188 5941 
Q 2544 5941 2795 5689 
Q 3047 5438 3047 5081 
Q 3047 4863 2948 4678 
Q 2850 4494 2663 4366 
L 4325 0 
L 3669 0 
L 3244 1197 
L 1141 1197 
L 716 0 
L 50 0 
L 1716 4366 
z
" transform="scale(0.015625)"/>
      </defs>
      <use xlink:href="#DejaVuSans-77"/>
      <use xlink:href="#DejaVuSans-61" transform="translate(81.787109 0)"/>
      <use xlink:href="#DejaVuSans-76" transform="translate(143.066406 0)"/>
      <use xlink:href="#DejaVuSans-65" transform="translate(202.246094 0)"/>
      <use xlink:href="#DejaVuSans-6c" transform="translate(263.769531 0)"/>
      <use xlink:href="#DejaVuSans-65" transform="translate(291.552734 0)"/>
      <use xlink:href="#DejaVuSans-6e" transform="translate(353.076172 0)"/>
      <use xlink:href="#DejaVuSans-67" transform="translate(416.455078 0)"/>
      <use xlink:href="#DejaVuSans-74" transform="translate(479.931641 0)"/>
      <use xlink:href="#DejaVuSans-68" transform="translate(519.140625 0)"/>
      <use xlink:href="#DejaVuSans-20" transform="translate(582.519531 0)"/>
      <use xlink:href="#DejaVuSans-5b" transform="translate(614.306641 0)"/>
      <use xlink:href="#DejaVuSans-c5" transform="translate(653.320312 0)"/>
      <use xlink:href="#DejaVuSans-5d" transform="translate(721.728516 0)"/>
     </g>
    </g>
   </g>
   <g id="matplotlib.axis_4">
    <g id="ytick_8">
     <g id="line2d_24">
      <g>
       <use xlink:href="#ma3da328b40" x="503.927885" y="245.797127" style="stroke: #000000; stroke-width: 0.8"/>
      </g>
     </g>
     <g id="text_26">
      <!-- 0 -->
      <g transform="translate(490.565385 249.596346) scale(0.1 -0.1)">
       <use xlink:href="#DejaVuSans-30"/>
      </g>
     </g>
    </g>
    <g id="ytick_9">
     <g id="line2d_25">
      <g>
       <use xlink:href="#ma3da328b40" x="503.927885" y="191.628984" style="stroke: #000000; stroke-width: 0.8"/>
      </g>
     </g>
     <g id="text_27">
      <!-- 1000 -->
      <g transform="translate(471.477885 195.428203) scale(0.1 -0.1)">
       <use xlink:href="#DejaVuSans-31"/>
       <use xlink:href="#DejaVuSans-30" transform="translate(63.623047 0)"/>
       <use xlink:href="#DejaVuSans-30" transform="translate(127.246094 0)"/>
       <use xlink:href="#DejaVuSans-30" transform="translate(190.869141 0)"/>
      </g>
     </g>
    </g>
    <g id="ytick_10">
     <g id="line2d_26">
      <g>
       <use xlink:href="#ma3da328b40" x="503.927885" y="137.460841" style="stroke: #000000; stroke-width: 0.8"/>
      </g>
     </g>
     <g id="text_28">
      <!-- 2000 -->
      <g transform="translate(471.477885 141.26006) scale(0.1 -0.1)">
       <use xlink:href="#DejaVuSans-32"/>
       <use xlink:href="#DejaVuSans-30" transform="translate(63.623047 0)"/>
       <use xlink:href="#DejaVuSans-30" transform="translate(127.246094 0)"/>
       <use xlink:href="#DejaVuSans-30" transform="translate(190.869141 0)"/>
      </g>
     </g>
    </g>
    <g id="ytick_11">
     <g id="line2d_27">
      <g>
       <use xlink:href="#ma3da328b40" x="503.927885" y="83.292699" style="stroke: #000000; stroke-width: 0.8"/>
      </g>
     </g>
     <g id="text_29">
      <!-- 3000 -->
      <g transform="translate(471.477885 87.091917) scale(0.1 -0.1)">
       <use xlink:href="#DejaVuSans-33"/>
       <use xlink:href="#DejaVuSans-30" transform="translate(63.623047 0)"/>
       <use xlink:href="#DejaVuSans-30" transform="translate(127.246094 0)"/>
       <use xlink:href="#DejaVuSans-30" transform="translate(190.869141 0)"/>
      </g>
     </g>
    </g>
    <g id="ytick_12">
     <g id="line2d_28">
      <g>
       <use xlink:href="#ma3da328b40" x="503.927885" y="29.124556" style="stroke: #000000; stroke-width: 0.8"/>
      </g>
     </g>
     <g id="text_30">
      <!-- 4000 -->
      <g transform="translate(471.477885 32.923775) scale(0.1 -0.1)">
       <use xlink:href="#DejaVuSans-34"/>
       <use xlink:href="#DejaVuSans-30" transform="translate(63.623047 0)"/>
       <use xlink:href="#DejaVuSans-30" transform="translate(127.246094 0)"/>
       <use xlink:href="#DejaVuSans-30" transform="translate(190.869141 0)"/>
      </g>
     </g>
    </g>
    <g id="text_31">
     <!-- [counts] -->
     <g transform="translate(465.398197 152.791947) rotate(-90) scale(0.1 -0.1)">
      <use xlink:href="#DejaVuSans-5b"/>
      <use xlink:href="#DejaVuSans-63" transform="translate(39.013672 0)"/>
      <use xlink:href="#DejaVuSans-6f" transform="translate(93.994141 0)"/>
      <use xlink:href="#DejaVuSans-75" transform="translate(155.175781 0)"/>
      <use xlink:href="#DejaVuSans-6e" transform="translate(218.554688 0)"/>
      <use xlink:href="#DejaVuSans-74" transform="translate(281.933594 0)"/>
      <use xlink:href="#DejaVuSans-73" transform="translate(321.142578 0)"/>
      <use xlink:href="#DejaVuSans-5d" transform="translate(373.242188 0)"/>
     </g>
    </g>
   </g>
   <g id="line2d_29">
    <path d="M 520.349323 154.686311 
L 521.444085 154.686311 
L 521.444085 148.456974 
L 522.538848 148.456974 
L 522.538848 135.673293 
L 523.633611 135.673293 
L 523.633611 137.244169 
L 524.728373 137.244169 
L 524.728373 144.394364 
L 525.823136 144.394364 
L 525.823136 145.206886 
L 526.917898 145.206886 
L 526.917898 142.877656 
L 528.012661 142.877656 
L 528.012661 125.706354 
L 529.107423 125.706354 
L 529.107423 98.947292 
L 530.202186 98.947292 
L 530.202186 79.500929 
L 531.296948 79.500929 
L 531.296948 60.21707 
L 532.391711 60.21707 
L 532.391711 29.828742 
L 533.486473 29.828742 
L 533.486473 18.561768 
L 534.581236 18.561768 
L 534.581236 24.086919 
L 535.675998 24.086919 
L 535.675998 20.674326 
L 536.770761 20.674326 
L 536.770761 22.732715 
L 537.865523 22.732715 
L 537.865523 28.853715 
L 538.960286 28.853715 
L 538.960286 37.520618 
L 540.055048 37.520618 
L 540.055048 43.424946 
L 541.149811 43.424946 
L 541.149811 57.29199 
L 542.244574 57.29199 
L 542.244574 67.583937 
L 543.339336 67.583937 
L 543.339336 68.017282 
L 544.434099 68.017282 
L 544.434099 81.396814 
L 545.528861 81.396814 
L 545.528861 83.888548 
L 546.623624 83.888548 
L 546.623624 87.788654 
L 547.718386 87.788654 
L 547.718386 91.038743 
L 548.813149 91.038743 
L 548.813149 88.384504 
L 549.907911 88.384504 
L 549.907911 92.717955 
L 551.002674 92.717955 
L 551.002674 90.226221 
L 552.097436 90.226221 
L 552.097436 85.134415 
L 553.192199 85.134415 
L 553.192199 73.542433 
L 554.286961 73.542433 
L 554.286961 70.563185 
L 555.381724 70.563185 
L 555.381724 56.479468 
L 556.476486 56.479468 
L 556.476486 48.462583 
L 557.571249 48.462583 
L 557.571249 44.616645 
L 558.666012 44.616645 
L 558.666012 30.587096 
L 559.760774 30.587096 
L 559.760774 31.61629 
L 560.855537 31.61629 
L 560.855537 36.491423 
L 561.950299 36.491423 
L 561.950299 42.233246 
L 563.045062 42.233246 
L 563.045062 51.17099 
L 564.139824 51.17099 
L 564.139824 73.163256 
L 565.234587 73.163256 
L 565.234587 70.725689 
L 566.329349 70.725689 
L 566.329349 78.092557 
L 567.424112 78.092557 
L 567.424112 91.905433 
L 568.518874 91.905433 
L 568.518874 98.784787 
L 569.613637 98.784787 
L 569.613637 106.693336 
L 570.708399 106.693336 
L 570.708399 117.906142 
L 571.803162 117.906142 
L 571.803162 117.147788 
L 572.897924 117.147788 
L 572.897924 125.598018 
L 573.992687 125.598018 
L 573.992687 132.2607 
L 575.087449 132.2607 
L 575.087449 139.031718 
L 576.182212 139.031718 
L 576.182212 144.5027 
L 577.276975 144.5027 
L 577.276975 147.265275 
L 578.371737 147.265275 
L 578.371737 152.573753 
L 579.4665 152.573753 
L 579.4665 158.315576 
L 580.561262 158.315576 
L 580.561262 163.353214 
L 581.656025 163.353214 
L 581.656025 165.140762 
L 582.750787 165.140762 
L 582.750787 172.182621 
L 583.84555 172.182621 
L 583.84555 175.378541 
L 584.940312 175.378541 
L 584.940312 178.791134 
L 586.035075 178.791134 
L 586.035075 179.332816 
L 587.129837 179.332816 
L 587.129837 182.257896 
L 588.2246 182.257896 
L 588.2246 186.21217 
L 589.319362 186.21217 
L 589.319362 188.487232 
L 590.414125 188.487232 
L 590.414125 191.412312 
L 591.508887 191.412312 
L 591.508887 189.028913 
L 592.60365 189.028913 
L 592.60365 193.849878 
L 593.698412 193.849878 
L 593.698412 200.079215 
L 594.793175 200.079215 
L 594.793175 200.566728 
L 595.887938 200.566728 
L 595.887938 199.970878 
L 596.9827 199.970878 
L 596.9827 202.570949 
L 598.077463 202.570949 
L 598.077463 206.200215 
L 599.172225 206.200215 
L 599.172225 206.958569 
L 600.266988 206.958569 
L 600.266988 210.371162 
L 601.36175 210.371162 
L 601.36175 212.429551 
L 602.456513 212.429551 
L 602.456513 209.82948 
L 603.551275 209.82948 
L 603.551275 217.142179 
L 604.646038 217.142179 
L 604.646038 215.571303 
L 605.7408 215.571303 
L 605.7408 217.250516 
L 606.835563 217.250516 
L 606.835563 217.467188 
L 607.930325 217.467188 
L 607.930325 220.121427 
L 610.11985 220.067259 
L 610.11985 221.421463 
L 611.214613 221.421463 
L 611.214613 222.938171 
L 612.309375 222.938171 
L 612.309375 221.583967 
L 613.404138 221.583967 
L 613.404138 224.888224 
L 615.593663 224.942392 
L 615.593663 225.484073 
L 616.688426 225.484073 
L 616.688426 227.109118 
L 619.972713 227.163286 
L 619.972713 228.78833 
L 621.067476 228.78833 
L 621.067476 230.738383 
L 622.162238 230.738383 
L 622.162238 231.009224 
L 623.257001 231.009224 
L 623.257001 231.171728 
L 624.351763 231.171728 
L 624.351763 230.955056 
L 625.446526 230.955056 
L 625.446526 231.280065 
L 626.541288 231.280065 
L 626.541288 231.821746 
L 627.636051 231.821746 
L 627.636051 232.092587 
L 628.730813 232.092587 
L 628.730813 233.44679 
L 629.825576 233.44679 
L 629.825576 234.367649 
L 630.920339 234.367649 
L 630.920339 235.884357 
L 632.015101 235.884357 
L 632.015101 234.584321 
L 633.109864 234.584321 
L 633.109864 234.963498 
L 635.299389 234.855162 
L 635.299389 236.046861 
L 636.394151 236.046861 
L 636.394151 235.234339 
L 637.488914 235.234339 
L 637.488914 236.317702 
L 638.583676 236.317702 
L 638.583676 236.751047 
L 639.678439 236.751047 
L 639.678439 236.534375 
L 640.773201 236.534375 
L 640.773201 238.051083 
L 641.867964 238.051083 
L 641.867964 237.455233 
L 642.962726 237.455233 
L 642.962726 237.780242 
L 644.057489 237.780242 
L 644.057489 237.563569 
L 645.152251 237.563569 
L 645.152251 236.805215 
L 646.247014 236.805215 
L 646.247014 238.7011 
L 647.341776 238.7011 
L 647.341776 238.267755 
L 648.436539 238.267755 
L 648.436539 239.242782 
L 649.531302 239.242782 
L 649.531302 240.976162 
L 650.626064 240.976162 
L 650.626064 240.651153 
L 651.720827 240.651153 
L 651.720827 239.784463 
L 656.099877 239.676127 
L 656.099877 240.976162 
L 657.194639 240.976162 
L 657.194639 240.542817 
L 660.478927 240.434481 
L 660.478927 240.813658 
L 662.668452 240.75949 
L 662.668452 241.247003 
L 663.763214 241.247003 
L 663.763214 240.921994 
L 664.857977 240.921994 
L 664.857977 241.463676 
L 665.952739 241.463676 
L 665.952739 240.921994 
L 667.047502 240.921994 
L 667.047502 242.113693 
L 668.142265 242.113693 
L 668.142265 241.517844 
L 669.237027 241.517844 
L 669.237027 242.113693 
L 670.33179 242.113693 
L 670.33179 241.734516 
L 671.426552 241.734516 
L 671.426552 242.926215 
L 672.521315 242.926215 
L 672.521315 242.384534 
L 673.616077 242.384534 
L 673.616077 242.167861 
L 675.805602 242.276198 
L 675.805602 243.142888 
L 676.900365 243.142888 
L 676.900365 242.276198 
L 677.995127 242.276198 
L 677.995127 243.034552 
L 679.08989 243.034552 
L 679.08989 242.384534 
L 680.184652 242.384534 
L 680.184652 243.142888 
L 681.279415 243.142888 
L 681.279415 242.709543 
L 682.374177 242.709543 
L 682.374177 242.438702 
L 683.46894 242.438702 
L 683.46894 243.197056 
L 684.563702 243.197056 
L 684.563702 243.359561 
L 685.658465 243.359561 
L 685.658465 243.576233 
L 686.753228 243.576233 
L 686.753228 243.251224 
L 687.84799 243.251224 
L 687.84799 243.901242 
L 688.942753 243.901242 
L 688.942753 243.305392 
L 690.037515 243.305392 
L 690.037515 243.792906 
L 691.132278 243.792906 
L 691.132278 242.763711 
L 692.22704 242.763711 
L 692.22704 243.792906 
L 693.321803 243.792906 
L 693.321803 243.95541 
L 694.416565 243.95541 
L 694.416565 243.684569 
L 695.511328 243.684569 
L 695.511328 243.251224 
L 698.795615 243.142888 
L 698.795615 243.738738 
L 699.890378 243.738738 
L 699.890378 244.117915 
L 700.98514 244.117915 
L 700.98514 243.738738 
L 702.079903 243.738738 
L 702.079903 244.226251 
L 703.174666 244.226251 
L 703.174666 244.388755 
L 704.269428 244.388755 
L 704.269428 244.172083 
L 705.364191 244.172083 
L 705.364191 244.659596 
L 706.458953 244.659596 
L 706.458953 244.226251 
L 707.553716 244.226251 
L 707.553716 243.95541 
L 708.648478 243.95541 
L 708.648478 244.876269 
L 709.743241 244.876269 
L 709.743241 243.901242 
L 710.838003 243.901242 
L 710.838003 244.388755 
L 711.932766 244.388755 
L 711.932766 244.117915 
L 714.122291 244.226251 
L 714.122291 244.442923 
L 716.311816 244.388755 
L 716.311816 244.8221 
L 717.406578 244.8221 
L 717.406578 244.334587 
L 718.501341 244.334587 
L 718.501341 244.117915 
L 719.596103 244.117915 
L 719.596103 244.605428 
L 721.785629 244.713764 
L 721.785629 244.984605 
L 723.975154 244.984605 
L 723.975154 244.497092 
L 725.069916 244.497092 
L 725.069916 244.984605 
L 726.164679 244.984605 
L 726.164679 244.605428 
L 727.259441 244.605428 
L 727.259441 244.388755 
L 728.354204 244.388755 
L 728.354204 244.984605 
L 730.543729 244.930437 
L 730.543729 244.605428 
L 731.638491 244.605428 
L 731.638491 244.984605 
L 732.733254 244.984605 
L 732.733254 244.659596 
L 733.828016 244.659596 
L 733.828016 245.092941 
L 736.017541 245.038773 
L 736.017541 245.255446 
L 737.112304 245.255446 
L 737.112304 244.767932 
L 738.207066 244.767932 
L 738.207066 244.930437 
L 742.586117 244.984605 
L 742.586117 245.363782 
L 743.680879 245.363782 
L 743.680879 244.8221 
L 744.775642 244.8221 
L 744.775642 245.092941 
L 745.870404 245.092941 
L 745.870404 244.659596 
L 746.965167 244.659596 
L 746.965167 244.984605 
L 749.154692 244.930437 
L 749.154692 245.201277 
L 750.249454 245.201277 
L 750.249454 245.41795 
L 752.438979 245.363782 
L 752.438979 244.930437 
L 753.533742 244.930437 
L 753.533742 245.147109 
L 754.628504 245.147109 
L 754.628504 245.472118 
L 755.723267 245.472118 
L 755.723267 245.309614 
L 756.818029 245.309614 
L 756.818029 245.147109 
L 759.007555 245.038773 
L 759.007555 245.41795 
L 761.19708 245.472118 
L 761.19708 244.930437 
L 762.291842 244.930437 
L 762.291842 245.363782 
L 763.386605 245.363782 
L 763.386605 245.092941 
L 764.481367 245.092941 
L 764.481367 245.526286 
L 765.57613 245.526286 
L 765.57613 245.363782 
L 766.670892 245.363782 
L 766.670892 245.580454 
L 768.860417 245.472118 
L 768.860417 245.201277 
L 769.95518 245.201277 
L 769.95518 245.363782 
L 777.618518 245.41795 
L 777.618518 245.526286 
L 778.71328 245.526286 
L 778.71328 245.688791 
L 779.808043 245.688791 
L 779.808043 245.41795 
L 781.997568 245.526286 
L 781.997568 245.580454 
L 786.376618 245.526286 
L 786.376618 245.092941 
L 787.47138 245.092941 
L 787.47138 245.526286 
L 788.566143 245.526286 
L 788.566143 245.255446 
L 790.755668 245.363782 
L 790.755668 245.688791 
L 791.85043 245.688791 
L 791.85043 245.526286 
L 796.229481 245.526286 
L 796.229481 245.363782 
L 797.324243 245.363782 
L 797.324243 245.201277 
L 798.419006 245.201277 
L 798.419006 245.526286 
L 803.892818 245.472118 
L 803.892818 245.688791 
L 804.987581 245.688791 
L 804.987581 245.526286 
L 808.271868 245.580454 
L 808.271868 245.363782 
L 810.461393 245.363782 
L 810.461393 245.688791 
L 815.935206 245.580454 
L 815.935206 245.526286 
L 818.124731 245.634623 
L 818.124731 245.688791 
L 841.114744 245.797127 
L 841.114744 245.526286 
L 842.209507 245.526286 
L 842.209507 245.688791 
L 848.778082 245.688791 
L 848.778082 245.688791 
" clip-path="url(#pd2228a9627)" style="fill: none; stroke: #1f77b4; stroke-width: 1.5; stroke-linecap: square"/>
   </g>
   <g id="patch_8">
    <path d="M 503.927885 257.158895 
L 503.927885 7.2 
" style="fill: none; stroke: #000000; stroke-width: 0.8; stroke-linejoin: miter; stroke-linecap: square"/>
   </g>
   <g id="patch_9">
    <path d="M 865.19952 257.158895 
L 865.19952 7.2 
" style="fill: none; stroke: #000000; stroke-width: 0.8; stroke-linejoin: miter; stroke-linecap: square"/>
   </g>
   <g id="patch_10">
    <path d="M 503.927885 257.158895 
L 865.19952 257.158895 
" style="fill: none; stroke: #000000; stroke-width: 0.8; stroke-linejoin: miter; stroke-linecap: square"/>
   </g>
   <g id="patch_11">
    <path d="M 503.927885 7.2 
L 865.19952 7.2 
" style="fill: none; stroke: #000000; stroke-width: 0.8; stroke-linejoin: miter; stroke-linecap: square"/>
   </g>
  </g>
 </g>
 <defs>
  <clipPath id="p4dc0803fcb">
   <rect x="53.328125" y="7.2" width="361.271635" height="249.958895"/>
  </clipPath>
  <clipPath id="pd2228a9627">
   <rect x="503.927885" y="7.2" width="361.271635" height="249.958895"/>
  </clipPath>
 </defs>
</svg>
