<?xml version="1.0" encoding="utf-8" standalone="no"?>
<!DOCTYPE svg PUBLIC "-//W3C//DTD SVG 1.1//EN"
  "http://www.w3.org/Graphics/SVG/1.1/DTD/svg11.dtd">
<svg xmlns:xlink="http://www.w3.org/1999/xlink" width="388.965625pt" height="268.200625pt" viewBox="0 0 388.965625 268.200625" xmlns="http://www.w3.org/2000/svg" version="1.1">
 <metadata>
  <rdf:RDF xmlns:dc="http://purl.org/dc/elements/1.1/" xmlns:cc="http://creativecommons.org/ns#" xmlns:rdf="http://www.w3.org/1999/02/22-rdf-syntax-ns#">
   <cc:Work>
    <dc:type rdf:resource="http://purl.org/dc/dcmitype/StillImage"/>
    <dc:date>2025-05-14T12:10:59.555952</dc:date>
    <dc:format>image/svg+xml</dc:format>
    <dc:creator>
     <cc:Agent>
      <dc:title>Matplotlib v3.10.1, https://matplotlib.org/</dc:title>
     </cc:Agent>
    </dc:creator>
   </cc:Work>
  </rdf:RDF>
 </metadata>
 <defs>
  <style type="text/css">*{stroke-linejoin: round; stroke-linecap: butt}</style>
 </defs>
 <g id="figure_1">
  <g id="patch_1">
   <path d="M 0 268.200625 
L 388.965625 268.200625 
L 388.965625 0 
L 0 0 
z
" style="fill: #ffffff"/>
  </g>
  <g id="axes_1">
   <g id="patch_2">
    <path d="M 46.965625 228.96 
L 381.765625 228.96 
L 381.765625 7.2 
L 46.965625 7.2 
z
" style="fill: #ffffff"/>
   </g>
   <g id="matplotlib.axis_1">
    <g id="xtick_1">
     <g id="line2d_1">
      <defs>
       <path id="m7e61445972" d="M 0 0 
L 0 3.5 
" style="stroke: #000000; stroke-width: 0.8"/>
      </defs>
      <g>
       <use xlink:href="#m7e61445972" x="78.202946" y="228.96" style="stroke: #000000; stroke-width: 0.8"/>
      </g>
     </g>
     <g id="text_1">
      <!-- 1.0 -->
      <g transform="translate(70.251383 243.558437) scale(0.1 -0.1)">
       <defs>
        <path id="DejaVuSans-31" d="M 794 531 
L 1825 531 
L 1825 4091 
L 703 3866 
L 703 4441 
L 1819 4666 
L 2450 4666 
L 2450 531 
L 3481 531 
L 3481 0 
L 794 0 
L 794 531 
z
" transform="scale(0.015625)"/>
        <path id="DejaVuSans-2e" d="M 684 794 
L 1344 794 
L 1344 0 
L 684 0 
L 684 794 
z
" transform="scale(0.015625)"/>
        <path id="DejaVuSans-30" d="M 2034 4250 
Q 1547 4250 1301 3770 
Q 1056 3291 1056 2328 
Q 1056 1369 1301 889 
Q 1547 409 2034 409 
Q 2525 409 2770 889 
Q 3016 1369 3016 2328 
Q 3016 3291 2770 3770 
Q 2525 4250 2034 4250 
z
M 2034 4750 
Q 2819 4750 3233 4129 
Q 3647 3509 3647 2328 
Q 3647 1150 3233 529 
Q 2819 -91 2034 -91 
Q 1250 -91 836 529 
Q 422 1150 422 2328 
Q 422 3509 836 4129 
Q 1250 4750 2034 4750 
z
" transform="scale(0.015625)"/>
       </defs>
       <use xlink:href="#DejaVuSans-31"/>
       <use xlink:href="#DejaVuSans-2e" transform="translate(63.623047 0)"/>
       <use xlink:href="#DejaVuSans-30" transform="translate(95.410156 0)"/>
      </g>
     </g>
    </g>
    <g id="xtick_2">
     <g id="line2d_2">
      <g>
       <use xlink:href="#m7e61445972" x="118.250792" y="228.96" style="stroke: #000000; stroke-width: 0.8"/>
      </g>
     </g>
     <g id="text_2">
      <!-- 1.5 -->
      <g transform="translate(110.29923 243.558437) scale(0.1 -0.1)">
       <defs>
        <path id="DejaVuSans-35" d="M 691 4666 
L 3169 4666 
L 3169 4134 
L 1269 4134 
L 1269 2991 
Q 1406 3038 1543 3061 
Q 1681 3084 1819 3084 
Q 2600 3084 3056 2656 
Q 3513 2228 3513 1497 
Q 3513 744 3044 326 
Q 2575 -91 1722 -91 
Q 1428 -91 1123 -41 
Q 819 9 494 109 
L 494 744 
Q 775 591 1075 516 
Q 1375 441 1709 441 
Q 2250 441 2565 725 
Q 2881 1009 2881 1497 
Q 2881 1984 2565 2268 
Q 2250 2553 1709 2553 
Q 1456 2553 1204 2497 
Q 953 2441 691 2322 
L 691 4666 
z
" transform="scale(0.015625)"/>
       </defs>
       <use xlink:href="#DejaVuSans-31"/>
       <use xlink:href="#DejaVuSans-2e" transform="translate(63.623047 0)"/>
       <use xlink:href="#DejaVuSans-35" transform="translate(95.410156 0)"/>
      </g>
     </g>
    </g>
    <g id="xtick_3">
     <g id="line2d_3">
      <g>
       <use xlink:href="#m7e61445972" x="158.298639" y="228.96" style="stroke: #000000; stroke-width: 0.8"/>
      </g>
     </g>
     <g id="text_3">
      <!-- 2.0 -->
      <g transform="translate(150.347077 243.558437) scale(0.1 -0.1)">
       <defs>
        <path id="DejaVuSans-32" d="M 1228 531 
L 3431 531 
L 3431 0 
L 469 0 
L 469 531 
Q 828 903 1448 1529 
Q 2069 2156 2228 2338 
Q 2531 2678 2651 2914 
Q 2772 3150 2772 3378 
Q 2772 3750 2511 3984 
Q 2250 4219 1831 4219 
Q 1534 4219 1204 4116 
Q 875 4013 500 3803 
L 500 4441 
Q 881 4594 1212 4672 
Q 1544 4750 1819 4750 
Q 2544 4750 2975 4387 
Q 3406 4025 3406 3419 
Q 3406 3131 3298 2873 
Q 3191 2616 2906 2266 
Q 2828 2175 2409 1742 
Q 1991 1309 1228 531 
z
" transform="scale(0.015625)"/>
       </defs>
       <use xlink:href="#DejaVuSans-32"/>
       <use xlink:href="#DejaVuSans-2e" transform="translate(63.623047 0)"/>
       <use xlink:href="#DejaVuSans-30" transform="translate(95.410156 0)"/>
      </g>
     </g>
    </g>
    <g id="xtick_4">
     <g id="line2d_4">
      <g>
       <use xlink:href="#m7e61445972" x="198.346486" y="228.96" style="stroke: #000000; stroke-width: 0.8"/>
      </g>
     </g>
     <g id="text_4">
      <!-- 2.5 -->
      <g transform="translate(190.394924 243.558437) scale(0.1 -0.1)">
       <use xlink:href="#DejaVuSans-32"/>
       <use xlink:href="#DejaVuSans-2e" transform="translate(63.623047 0)"/>
       <use xlink:href="#DejaVuSans-35" transform="translate(95.410156 0)"/>
      </g>
     </g>
    </g>
    <g id="xtick_5">
     <g id="line2d_5">
      <g>
       <use xlink:href="#m7e61445972" x="238.394333" y="228.96" style="stroke: #000000; stroke-width: 0.8"/>
      </g>
     </g>
     <g id="text_5">
      <!-- 3.0 -->
      <g transform="translate(230.442771 243.558437) scale(0.1 -0.1)">
       <defs>
        <path id="DejaVuSans-33" d="M 2597 2516 
Q 3050 2419 3304 2112 
Q 3559 1806 3559 1356 
Q 3559 666 3084 287 
Q 2609 -91 1734 -91 
Q 1441 -91 1130 -33 
Q 819 25 488 141 
L 488 750 
Q 750 597 1062 519 
Q 1375 441 1716 441 
Q 2309 441 2620 675 
Q 2931 909 2931 1356 
Q 2931 1769 2642 2001 
Q 2353 2234 1838 2234 
L 1294 2234 
L 1294 2753 
L 1863 2753 
Q 2328 2753 2575 2939 
Q 2822 3125 2822 3475 
Q 2822 3834 2567 4026 
Q 2313 4219 1838 4219 
Q 1578 4219 1281 4162 
Q 984 4106 628 3988 
L 628 4550 
Q 988 4650 1302 4700 
Q 1616 4750 1894 4750 
Q 2613 4750 3031 4423 
Q 3450 4097 3450 3541 
Q 3450 3153 3228 2886 
Q 3006 2619 2597 2516 
z
" transform="scale(0.015625)"/>
       </defs>
       <use xlink:href="#DejaVuSans-33"/>
       <use xlink:href="#DejaVuSans-2e" transform="translate(63.623047 0)"/>
       <use xlink:href="#DejaVuSans-30" transform="translate(95.410156 0)"/>
      </g>
     </g>
    </g>
    <g id="xtick_6">
     <g id="line2d_6">
      <g>
       <use xlink:href="#m7e61445972" x="278.44218" y="228.96" style="stroke: #000000; stroke-width: 0.8"/>
      </g>
     </g>
     <g id="text_6">
      <!-- 3.5 -->
      <g transform="translate(270.490618 243.558437) scale(0.1 -0.1)">
       <use xlink:href="#DejaVuSans-33"/>
       <use xlink:href="#DejaVuSans-2e" transform="translate(63.623047 0)"/>
       <use xlink:href="#DejaVuSans-35" transform="translate(95.410156 0)"/>
      </g>
     </g>
    </g>
    <g id="xtick_7">
     <g id="line2d_7">
      <g>
       <use xlink:href="#m7e61445972" x="318.490027" y="228.96" style="stroke: #000000; stroke-width: 0.8"/>
      </g>
     </g>
     <g id="text_7">
      <!-- 4.0 -->
      <g transform="translate(310.538464 243.558437) scale(0.1 -0.1)">
       <defs>
        <path id="DejaVuSans-34" d="M 2419 4116 
L 825 1625 
L 2419 1625 
L 2419 4116 
z
M 2253 4666 
L 3047 4666 
L 3047 1625 
L 3713 1625 
L 3713 1100 
L 3047 1100 
L 3047 0 
L 2419 0 
L 2419 1100 
L 313 1100 
L 313 1709 
L 2253 4666 
z
" transform="scale(0.015625)"/>
       </defs>
       <use xlink:href="#DejaVuSans-34"/>
       <use xlink:href="#DejaVuSans-2e" transform="translate(63.623047 0)"/>
       <use xlink:href="#DejaVuSans-30" transform="translate(95.410156 0)"/>
      </g>
     </g>
    </g>
    <g id="xtick_8">
     <g id="line2d_8">
      <g>
       <use xlink:href="#m7e61445972" x="358.537874" y="228.96" style="stroke: #000000; stroke-width: 0.8"/>
      </g>
     </g>
     <g id="text_8">
      <!-- 4.5 -->
      <g transform="translate(350.586311 243.558437) scale(0.1 -0.1)">
       <use xlink:href="#DejaVuSans-34"/>
       <use xlink:href="#DejaVuSans-2e" transform="translate(63.623047 0)"/>
       <use xlink:href="#DejaVuSans-35" transform="translate(95.410156 0)"/>
      </g>
     </g>
    </g>
    <g id="text_9">
     <!-- wavelength [Å] -->
     <g transform="translate(176.328125 258.920937) scale(0.1 -0.1)">
      <defs>
       <path id="DejaVuSans-77" d="M 269 3500 
L 844 3500 
L 1563 769 
L 2278 3500 
L 2956 3500 
L 3675 769 
L 4391 3500 
L 4966 3500 
L 4050 0 
L 3372 0 
L 2619 2869 
L 1863 0 
L 1184 0 
L 269 3500 
z
" transform="scale(0.015625)"/>
       <path id="DejaVuSans-61" d="M 2194 1759 
Q 1497 1759 1228 1600 
Q 959 1441 959 1056 
Q 959 750 1161 570 
Q 1363 391 1709 391 
Q 2188 391 2477 730 
Q 2766 1069 2766 1631 
L 2766 1759 
L 2194 1759 
z
M 3341 1997 
L 3341 0 
L 2766 0 
L 2766 531 
Q 2569 213 2275 61 
Q 1981 -91 1556 -91 
Q 1019 -91 701 211 
Q 384 513 384 1019 
Q 384 1609 779 1909 
Q 1175 2209 1959 2209 
L 2766 2209 
L 2766 2266 
Q 2766 2663 2505 2880 
Q 2244 3097 1772 3097 
Q 1472 3097 1187 3025 
Q 903 2953 641 2809 
L 641 3341 
Q 956 3463 1253 3523 
Q 1550 3584 1831 3584 
Q 2591 3584 2966 3190 
Q 3341 2797 3341 1997 
z
" transform="scale(0.015625)"/>
       <path id="DejaVuSans-76" d="M 191 3500 
L 800 3500 
L 1894 563 
L 2988 3500 
L 3597 3500 
L 2284 0 
L 1503 0 
L 191 3500 
z
" transform="scale(0.015625)"/>
       <path id="DejaVuSans-65" d="M 3597 1894 
L 3597 1613 
L 953 1613 
Q 991 1019 1311 708 
Q 1631 397 2203 397 
Q 2534 397 2845 478 
Q 3156 559 3463 722 
L 3463 178 
Q 3153 47 2828 -22 
Q 2503 -91 2169 -91 
Q 1331 -91 842 396 
Q 353 884 353 1716 
Q 353 2575 817 3079 
Q 1281 3584 2069 3584 
Q 2775 3584 3186 3129 
Q 3597 2675 3597 1894 
z
M 3022 2063 
Q 3016 2534 2758 2815 
Q 2500 3097 2075 3097 
Q 1594 3097 1305 2825 
Q 1016 2553 972 2059 
L 3022 2063 
z
" transform="scale(0.015625)"/>
       <path id="DejaVuSans-6c" d="M 603 4863 
L 1178 4863 
L 1178 0 
L 603 0 
L 603 4863 
z
" transform="scale(0.015625)"/>
       <path id="DejaVuSans-6e" d="M 3513 2113 
L 3513 0 
L 2938 0 
L 2938 2094 
Q 2938 2591 2744 2837 
Q 2550 3084 2163 3084 
Q 1697 3084 1428 2787 
Q 1159 2491 1159 1978 
L 1159 0 
L 581 0 
L 581 3500 
L 1159 3500 
L 1159 2956 
Q 1366 3272 1645 3428 
Q 1925 3584 2291 3584 
Q 2894 3584 3203 3211 
Q 3513 2838 3513 2113 
z
" transform="scale(0.015625)"/>
       <path id="DejaVuSans-67" d="M 2906 1791 
Q 2906 2416 2648 2759 
Q 2391 3103 1925 3103 
Q 1463 3103 1205 2759 
Q 947 2416 947 1791 
Q 947 1169 1205 825 
Q 1463 481 1925 481 
Q 2391 481 2648 825 
Q 2906 1169 2906 1791 
z
M 3481 434 
Q 3481 -459 3084 -895 
Q 2688 -1331 1869 -1331 
Q 1566 -1331 1297 -1286 
Q 1028 -1241 775 -1147 
L 775 -588 
Q 1028 -725 1275 -790 
Q 1522 -856 1778 -856 
Q 2344 -856 2625 -561 
Q 2906 -266 2906 331 
L 2906 616 
Q 2728 306 2450 153 
Q 2172 0 1784 0 
Q 1141 0 747 490 
Q 353 981 353 1791 
Q 353 2603 747 3093 
Q 1141 3584 1784 3584 
Q 2172 3584 2450 3431 
Q 2728 3278 2906 2969 
L 2906 3500 
L 3481 3500 
L 3481 434 
z
" transform="scale(0.015625)"/>
       <path id="DejaVuSans-74" d="M 1172 4494 
L 1172 3500 
L 2356 3500 
L 2356 3053 
L 1172 3053 
L 1172 1153 
Q 1172 725 1289 603 
Q 1406 481 1766 481 
L 2356 481 
L 2356 0 
L 1766 0 
Q 1100 0 847 248 
Q 594 497 594 1153 
L 594 3053 
L 172 3053 
L 172 3500 
L 594 3500 
L 594 4494 
L 1172 4494 
z
" transform="scale(0.015625)"/>
       <path id="DejaVuSans-68" d="M 3513 2113 
L 3513 0 
L 2938 0 
L 2938 2094 
Q 2938 2591 2744 2837 
Q 2550 3084 2163 3084 
Q 1697 3084 1428 2787 
Q 1159 2491 1159 1978 
L 1159 0 
L 581 0 
L 581 4863 
L 1159 4863 
L 1159 2956 
Q 1366 3272 1645 3428 
Q 1925 3584 2291 3584 
Q 2894 3584 3203 3211 
Q 3513 2838 3513 2113 
z
" transform="scale(0.015625)"/>
       <path id="DejaVuSans-20" transform="scale(0.015625)"/>
       <path id="DejaVuSans-5b" d="M 550 4863 
L 1875 4863 
L 1875 4416 
L 1125 4416 
L 1125 -397 
L 1875 -397 
L 1875 -844 
L 550 -844 
L 550 4863 
z
" transform="scale(0.015625)"/>
       <path id="DejaVuSans-c5" d="M 2663 5081 
Q 2663 5278 2523 5417 
Q 2384 5556 2188 5556 
Q 1988 5556 1852 5420 
Q 1716 5284 1716 5081 
Q 1716 4884 1853 4746 
Q 1991 4609 2188 4609 
Q 2384 4609 2523 4746 
Q 2663 4884 2663 5081 
z
M 2188 4044 
L 1338 1722 
L 3041 1722 
L 2188 4044 
z
M 1716 4366 
Q 1525 4494 1428 4673 
Q 1331 4853 1331 5081 
Q 1331 5441 1579 5691 
Q 1828 5941 2188 5941 
Q 2544 5941 2795 5689 
Q 3047 5438 3047 5081 
Q 3047 4863 2948 4678 
Q 2850 4494 2663 4366 
L 4325 0 
L 3669 0 
L 3244 1197 
L 1141 1197 
L 716 0 
L 50 0 
L 1716 4366 
z
" transform="scale(0.015625)"/>
       <path id="DejaVuSans-5d" d="M 1947 4863 
L 1947 -844 
L 622 -844 
L 622 -397 
L 1369 -397 
L 1369 4416 
L 622 4416 
L 622 4863 
L 1947 4863 
z
" transform="scale(0.015625)"/>
      </defs>
      <use xlink:href="#DejaVuSans-77"/>
      <use xlink:href="#DejaVuSans-61" transform="translate(81.787109 0)"/>
      <use xlink:href="#DejaVuSans-76" transform="translate(143.066406 0)"/>
      <use xlink:href="#DejaVuSans-65" transform="translate(202.246094 0)"/>
      <use xlink:href="#DejaVuSans-6c" transform="translate(263.769531 0)"/>
      <use xlink:href="#DejaVuSans-65" transform="translate(291.552734 0)"/>
      <use xlink:href="#DejaVuSans-6e" transform="translate(353.076172 0)"/>
      <use xlink:href="#DejaVuSans-67" transform="translate(416.455078 0)"/>
      <use xlink:href="#DejaVuSans-74" transform="translate(479.931641 0)"/>
      <use xlink:href="#DejaVuSans-68" transform="translate(519.140625 0)"/>
      <use xlink:href="#DejaVuSans-20" transform="translate(582.519531 0)"/>
      <use xlink:href="#DejaVuSans-5b" transform="translate(614.306641 0)"/>
      <use xlink:href="#DejaVuSans-c5" transform="translate(653.320312 0)"/>
      <use xlink:href="#DejaVuSans-5d" transform="translate(721.728516 0)"/>
     </g>
    </g>
   </g>
   <g id="matplotlib.axis_2">
    <g id="ytick_1">
     <g id="line2d_9">
      <defs>
       <path id="m77d7c2c288" d="M 0 0 
L -3.5 0 
" style="stroke: #000000; stroke-width: 0.8"/>
      </defs>
      <g>
       <use xlink:href="#m77d7c2c288" x="46.965625" y="218.88" style="stroke: #000000; stroke-width: 0.8"/>
      </g>
     </g>
     <g id="text_10">
      <!-- 0 -->
      <g transform="translate(33.603125 222.679219) scale(0.1 -0.1)">
       <use xlink:href="#DejaVuSans-30"/>
      </g>
     </g>
    </g>
    <g id="ytick_2">
     <g id="line2d_10">
      <g>
       <use xlink:href="#m77d7c2c288" x="46.965625" y="194.113415" style="stroke: #000000; stroke-width: 0.8"/>
      </g>
     </g>
     <g id="text_11">
      <!-- 100 -->
      <g transform="translate(20.878125 197.912634) scale(0.1 -0.1)">
       <use xlink:href="#DejaVuSans-31"/>
       <use xlink:href="#DejaVuSans-30" transform="translate(63.623047 0)"/>
       <use xlink:href="#DejaVuSans-30" transform="translate(127.246094 0)"/>
      </g>
     </g>
    </g>
    <g id="ytick_3">
     <g id="line2d_11">
      <g>
       <use xlink:href="#m77d7c2c288" x="46.965625" y="169.34683" style="stroke: #000000; stroke-width: 0.8"/>
      </g>
     </g>
     <g id="text_12">
      <!-- 200 -->
      <g transform="translate(20.878125 173.146049) scale(0.1 -0.1)">
       <use xlink:href="#DejaVuSans-32"/>
       <use xlink:href="#DejaVuSans-30" transform="translate(63.623047 0)"/>
       <use xlink:href="#DejaVuSans-30" transform="translate(127.246094 0)"/>
      </g>
     </g>
    </g>
    <g id="ytick_4">
     <g id="line2d_12">
      <g>
       <use xlink:href="#m77d7c2c288" x="46.965625" y="144.580246" style="stroke: #000000; stroke-width: 0.8"/>
      </g>
     </g>
     <g id="text_13">
      <!-- 300 -->
      <g transform="translate(20.878125 148.379464) scale(0.1 -0.1)">
       <use xlink:href="#DejaVuSans-33"/>
       <use xlink:href="#DejaVuSans-30" transform="translate(63.623047 0)"/>
       <use xlink:href="#DejaVuSans-30" transform="translate(127.246094 0)"/>
      </g>
     </g>
    </g>
    <g id="ytick_5">
     <g id="line2d_13">
      <g>
       <use xlink:href="#m77d7c2c288" x="46.965625" y="119.813661" style="stroke: #000000; stroke-width: 0.8"/>
      </g>
     </g>
     <g id="text_14">
      <!-- 400 -->
      <g transform="translate(20.878125 123.61288) scale(0.1 -0.1)">
       <use xlink:href="#DejaVuSans-34"/>
       <use xlink:href="#DejaVuSans-30" transform="translate(63.623047 0)"/>
       <use xlink:href="#DejaVuSans-30" transform="translate(127.246094 0)"/>
      </g>
     </g>
    </g>
    <g id="ytick_6">
     <g id="line2d_14">
      <g>
       <use xlink:href="#m77d7c2c288" x="46.965625" y="95.047076" style="stroke: #000000; stroke-width: 0.8"/>
      </g>
     </g>
     <g id="text_15">
      <!-- 500 -->
      <g transform="translate(20.878125 98.846295) scale(0.1 -0.1)">
       <use xlink:href="#DejaVuSans-35"/>
       <use xlink:href="#DejaVuSans-30" transform="translate(63.623047 0)"/>
       <use xlink:href="#DejaVuSans-30" transform="translate(127.246094 0)"/>
      </g>
     </g>
    </g>
    <g id="ytick_7">
     <g id="line2d_15">
      <g>
       <use xlink:href="#m77d7c2c288" x="46.965625" y="70.280491" style="stroke: #000000; stroke-width: 0.8"/>
      </g>
     </g>
     <g id="text_16">
      <!-- 600 -->
      <g transform="translate(20.878125 74.07971) scale(0.1 -0.1)">
       <defs>
        <path id="DejaVuSans-36" d="M 2113 2584 
Q 1688 2584 1439 2293 
Q 1191 2003 1191 1497 
Q 1191 994 1439 701 
Q 1688 409 2113 409 
Q 2538 409 2786 701 
Q 3034 994 3034 1497 
Q 3034 2003 2786 2293 
Q 2538 2584 2113 2584 
z
M 3366 4563 
L 3366 3988 
Q 3128 4100 2886 4159 
Q 2644 4219 2406 4219 
Q 1781 4219 1451 3797 
Q 1122 3375 1075 2522 
Q 1259 2794 1537 2939 
Q 1816 3084 2150 3084 
Q 2853 3084 3261 2657 
Q 3669 2231 3669 1497 
Q 3669 778 3244 343 
Q 2819 -91 2113 -91 
Q 1303 -91 875 529 
Q 447 1150 447 2328 
Q 447 3434 972 4092 
Q 1497 4750 2381 4750 
Q 2619 4750 2861 4703 
Q 3103 4656 3366 4563 
z
" transform="scale(0.015625)"/>
       </defs>
       <use xlink:href="#DejaVuSans-36"/>
       <use xlink:href="#DejaVuSans-30" transform="translate(63.623047 0)"/>
       <use xlink:href="#DejaVuSans-30" transform="translate(127.246094 0)"/>
      </g>
     </g>
    </g>
    <g id="ytick_8">
     <g id="line2d_16">
      <g>
       <use xlink:href="#m77d7c2c288" x="46.965625" y="45.513907" style="stroke: #000000; stroke-width: 0.8"/>
      </g>
     </g>
     <g id="text_17">
      <!-- 700 -->
      <g transform="translate(20.878125 49.313125) scale(0.1 -0.1)">
       <defs>
        <path id="DejaVuSans-37" d="M 525 4666 
L 3525 4666 
L 3525 4397 
L 1831 0 
L 1172 0 
L 2766 4134 
L 525 4134 
L 525 4666 
z
" transform="scale(0.015625)"/>
       </defs>
       <use xlink:href="#DejaVuSans-37"/>
       <use xlink:href="#DejaVuSans-30" transform="translate(63.623047 0)"/>
       <use xlink:href="#DejaVuSans-30" transform="translate(127.246094 0)"/>
      </g>
     </g>
    </g>
    <g id="ytick_9">
     <g id="line2d_17">
      <g>
       <use xlink:href="#m77d7c2c288" x="46.965625" y="20.747322" style="stroke: #000000; stroke-width: 0.8"/>
      </g>
     </g>
     <g id="text_18">
      <!-- 800 -->
      <g transform="translate(20.878125 24.546541) scale(0.1 -0.1)">
       <defs>
        <path id="DejaVuSans-38" d="M 2034 2216 
Q 1584 2216 1326 1975 
Q 1069 1734 1069 1313 
Q 1069 891 1326 650 
Q 1584 409 2034 409 
Q 2484 409 2743 651 
Q 3003 894 3003 1313 
Q 3003 1734 2745 1975 
Q 2488 2216 2034 2216 
z
M 1403 2484 
Q 997 2584 770 2862 
Q 544 3141 544 3541 
Q 544 4100 942 4425 
Q 1341 4750 2034 4750 
Q 2731 4750 3128 4425 
Q 3525 4100 3525 3541 
Q 3525 3141 3298 2862 
Q 3072 2584 2669 2484 
Q 3125 2378 3379 2068 
Q 3634 1759 3634 1313 
Q 3634 634 3220 271 
Q 2806 -91 2034 -91 
Q 1263 -91 848 271 
Q 434 634 434 1313 
Q 434 1759 690 2068 
Q 947 2378 1403 2484 
z
M 1172 3481 
Q 1172 3119 1398 2916 
Q 1625 2713 2034 2713 
Q 2441 2713 2670 2916 
Q 2900 3119 2900 3481 
Q 2900 3844 2670 4047 
Q 2441 4250 2034 4250 
Q 1625 4250 1398 4047 
Q 1172 3844 1172 3481 
z
" transform="scale(0.015625)"/>
       </defs>
       <use xlink:href="#DejaVuSans-38"/>
       <use xlink:href="#DejaVuSans-30" transform="translate(63.623047 0)"/>
       <use xlink:href="#DejaVuSans-30" transform="translate(127.246094 0)"/>
      </g>
     </g>
    </g>
    <g id="text_19">
     <!-- [counts] -->
     <g transform="translate(14.798438 138.6925) rotate(-90) scale(0.1 -0.1)">
      <defs>
       <path id="DejaVuSans-63" d="M 3122 3366 
L 3122 2828 
Q 2878 2963 2633 3030 
Q 2388 3097 2138 3097 
Q 1578 3097 1268 2742 
Q 959 2388 959 1747 
Q 959 1106 1268 751 
Q 1578 397 2138 397 
Q 2388 397 2633 464 
Q 2878 531 3122 666 
L 3122 134 
Q 2881 22 2623 -34 
Q 2366 -91 2075 -91 
Q 1284 -91 818 406 
Q 353 903 353 1747 
Q 353 2603 823 3093 
Q 1294 3584 2113 3584 
Q 2378 3584 2631 3529 
Q 2884 3475 3122 3366 
z
" transform="scale(0.015625)"/>
       <path id="DejaVuSans-6f" d="M 1959 3097 
Q 1497 3097 1228 2736 
Q 959 2375 959 1747 
Q 959 1119 1226 758 
Q 1494 397 1959 397 
Q 2419 397 2687 759 
Q 2956 1122 2956 1747 
Q 2956 2369 2687 2733 
Q 2419 3097 1959 3097 
z
M 1959 3584 
Q 2709 3584 3137 3096 
Q 3566 2609 3566 1747 
Q 3566 888 3137 398 
Q 2709 -91 1959 -91 
Q 1206 -91 779 398 
Q 353 888 353 1747 
Q 353 2609 779 3096 
Q 1206 3584 1959 3584 
z
" transform="scale(0.015625)"/>
       <path id="DejaVuSans-75" d="M 544 1381 
L 544 3500 
L 1119 3500 
L 1119 1403 
Q 1119 906 1312 657 
Q 1506 409 1894 409 
Q 2359 409 2629 706 
Q 2900 1003 2900 1516 
L 2900 3500 
L 3475 3500 
L 3475 0 
L 2900 0 
L 2900 538 
Q 2691 219 2414 64 
Q 2138 -91 1772 -91 
Q 1169 -91 856 284 
Q 544 659 544 1381 
z
M 1991 3584 
L 1991 3584 
z
" transform="scale(0.015625)"/>
       <path id="DejaVuSans-73" d="M 2834 3397 
L 2834 2853 
Q 2591 2978 2328 3040 
Q 2066 3103 1784 3103 
Q 1356 3103 1142 2972 
Q 928 2841 928 2578 
Q 928 2378 1081 2264 
Q 1234 2150 1697 2047 
L 1894 2003 
Q 2506 1872 2764 1633 
Q 3022 1394 3022 966 
Q 3022 478 2636 193 
Q 2250 -91 1575 -91 
Q 1294 -91 989 -36 
Q 684 19 347 128 
L 347 722 
Q 666 556 975 473 
Q 1284 391 1588 391 
Q 1994 391 2212 530 
Q 2431 669 2431 922 
Q 2431 1156 2273 1281 
Q 2116 1406 1581 1522 
L 1381 1569 
Q 847 1681 609 1914 
Q 372 2147 372 2553 
Q 372 3047 722 3315 
Q 1072 3584 1716 3584 
Q 2034 3584 2315 3537 
Q 2597 3491 2834 3397 
z
" transform="scale(0.015625)"/>
      </defs>
      <use xlink:href="#DejaVuSans-5b"/>
      <use xlink:href="#DejaVuSans-63" transform="translate(39.013672 0)"/>
      <use xlink:href="#DejaVuSans-6f" transform="translate(93.994141 0)"/>
      <use xlink:href="#DejaVuSans-75" transform="translate(155.175781 0)"/>
      <use xlink:href="#DejaVuSans-6e" transform="translate(218.554688 0)"/>
      <use xlink:href="#DejaVuSans-74" transform="translate(281.933594 0)"/>
      <use xlink:href="#DejaVuSans-73" transform="translate(321.142578 0)"/>
      <use xlink:href="#DejaVuSans-5d" transform="translate(373.242188 0)"/>
     </g>
    </g>
   </g>
   <g id="line2d_18">
    <path d="M 62.183807 218.88 
L 69.792898 218.88 
L 69.792898 216.898673 
L 71.314716 216.898673 
L 71.314716 210.211695 
L 72.836534 210.211695 
L 72.836534 198.819066 
L 74.358352 198.819066 
L 74.358352 189.903096 
L 75.88017 189.903096 
L 75.88017 184.702113 
L 77.401989 184.702113 
L 77.401989 178.262801 
L 78.923807 178.262801 
L 78.923807 171.328157 
L 80.445625 171.328157 
L 80.445625 167.61317 
L 81.967443 167.61317 
L 81.967443 153.743882 
L 83.489261 153.743882 
L 83.489261 152.257887 
L 85.01108 152.257887 
L 85.01108 137.645602 
L 86.532898 137.645602 
L 86.532898 131.20629 
L 88.054716 131.20629 
L 88.054716 126.748305 
L 89.576534 126.748305 
L 89.576534 126.252973 
L 91.098352 126.252973 
L 91.098352 113.622015 
L 92.62017 113.622015 
L 92.62017 108.421032 
L 94.141989 108.421032 
L 94.141989 103.220049 
L 95.663807 103.220049 
L 95.663807 87.369435 
L 97.185625 87.369435 
L 97.185625 86.874103 
L 98.707443 86.874103 
L 98.707443 81.177789 
L 100.229261 81.177789 
L 100.229261 70.032826 
L 101.75108 70.032826 
L 101.75108 68.051499 
L 103.272898 68.051499 
L 103.272898 62.355184 
L 104.794716 62.355184 
L 104.794716 55.668206 
L 106.316534 55.668206 
L 106.316534 45.513907 
L 107.838352 45.513907 
L 107.838352 61.364521 
L 109.36017 61.364521 
L 109.36017 43.284914 
L 110.881989 43.284914 
L 110.881989 37.836265 
L 112.403807 37.836265 
L 112.403807 35.607273 
L 113.925625 35.607273 
L 113.925625 30.40629 
L 115.447443 30.40629 
L 115.447443 39.817592 
L 116.969261 39.817592 
L 116.969261 25.700639 
L 118.49108 25.700639 
L 118.49108 34.864275 
L 120.012898 34.864275 
L 120.012898 17.28 
L 121.534716 17.28 
L 121.534716 30.40629 
L 123.056534 30.40629 
L 123.056534 20.994988 
L 124.578352 20.994988 
L 124.578352 39.074595 
L 126.10017 39.074595 
L 126.10017 41.798919 
L 127.621989 41.798919 
L 127.621989 48.485897 
L 129.143807 48.485897 
L 129.143807 41.551253 
L 130.665625 41.551253 
L 130.665625 45.266241 
L 132.187443 45.266241 
L 132.187443 46.999902 
L 133.709261 46.999902 
L 133.709261 36.102604 
L 135.23108 36.102604 
L 135.23108 37.340934 
L 136.752898 37.340934 
L 136.752898 54.677543 
L 138.274716 54.677543 
L 138.274716 49.971892 
L 139.796534 49.971892 
L 139.796534 53.934545 
L 141.318352 53.934545 
L 141.318352 63.841179 
L 142.84017 63.841179 
L 142.84017 65.327174 
L 144.361989 65.327174 
L 144.361989 67.803833 
L 145.883807 67.803833 
L 145.883807 66.070172 
L 147.405625 66.070172 
L 147.405625 55.172875 
L 148.927443 55.172875 
L 148.927443 61.612187 
L 150.449261 61.612187 
L 150.449261 55.915872 
L 151.97108 55.915872 
L 151.97108 50.962555 
L 153.492898 50.962555 
L 153.492898 68.051499 
L 155.014716 68.051499 
L 155.014716 68.794496 
L 158.058352 68.794496 
L 158.058352 70.280491 
L 159.58017 70.280491 
L 159.58017 58.392531 
L 161.101989 58.392531 
L 161.101989 80.434791 
L 162.623807 80.434791 
L 162.623807 59.878526 
L 164.145625 59.878526 
L 164.145625 76.472138 
L 165.667443 76.472138 
L 165.667443 76.224472 
L 167.189261 76.224472 
L 167.189261 74.738477 
L 168.71108 74.738477 
L 168.71108 76.224472 
L 170.232898 76.224472 
L 170.232898 64.088845 
L 171.754716 64.088845 
L 171.754716 76.967469 
L 173.276534 76.967469 
L 173.276534 90.093759 
L 174.798352 90.093759 
L 174.798352 78.453464 
L 176.32017 78.453464 
L 176.32017 88.360098 
L 177.841989 88.360098 
L 177.841989 81.67312 
L 179.363807 81.67312 
L 179.363807 96.533071 
L 180.885625 96.533071 
L 180.885625 92.075086 
L 182.407443 92.075086 
L 182.407443 90.836757 
L 183.929261 90.836757 
L 183.929261 107.9257 
L 185.45108 107.9257 
L 185.45108 116.841671 
L 188.494716 116.841671 
L 188.494716 123.280983 
L 190.016534 123.280983 
L 190.016534 130.958624 
L 191.538352 130.958624 
L 191.538352 141.608256 
L 193.06017 141.608256 
L 193.06017 144.084914 
L 194.581989 144.084914 
L 194.581989 159.192531 
L 196.103807 159.192531 
L 196.103807 164.393514 
L 197.625625 164.393514 
L 197.625625 173.804816 
L 199.147443 173.804816 
L 199.147443 175.786143 
L 200.669261 175.786143 
L 200.669261 178.510467 
L 202.19108 178.510467 
L 202.19108 165.384177 
L 203.712898 165.384177 
L 203.712898 167.61317 
L 205.234716 167.61317 
L 205.234716 167.860835 
L 206.756534 167.860835 
L 206.756534 146.809238 
L 208.278352 146.809238 
L 208.278352 141.112924 
L 209.80017 141.112924 
L 209.80017 134.673612 
L 211.321989 134.673612 
L 211.321989 125.014644 
L 212.843807 125.014644 
L 212.843807 120.061327 
L 214.365625 120.061327 
L 214.365625 112.879017 
L 215.887443 112.879017 
L 215.887443 109.659361 
L 217.409261 109.659361 
L 217.409261 111.145356 
L 218.93108 111.145356 
L 218.93108 91.82742 
L 220.452898 91.82742 
L 220.452898 98.514398 
L 221.974716 98.514398 
L 221.974716 85.88344 
L 223.496534 85.88344 
L 223.496534 89.103096 
L 225.018352 89.103096 
L 225.018352 81.920786 
L 226.54017 81.920786 
L 226.54017 86.874103 
L 228.061989 86.874103 
L 228.061989 66.81317 
L 229.583807 66.81317 
L 229.583807 64.831843 
L 231.105625 64.831843 
L 231.105625 67.308501 
L 232.627443 67.308501 
L 232.627443 65.57484 
L 234.149261 65.57484 
L 234.149261 58.144865 
L 235.67108 58.144865 
L 235.67108 71.518821 
L 237.192898 71.518821 
L 237.192898 55.915872 
L 238.714716 55.915872 
L 238.714716 64.831843 
L 240.236534 64.831843 
L 240.236534 64.336511 
L 241.758352 64.336511 
L 241.758352 59.878526 
L 243.28017 59.878526 
L 243.28017 61.116855 
L 244.801989 61.116855 
L 244.801989 75.72914 
L 246.323807 75.72914 
L 246.323807 79.691794 
L 247.845625 79.691794 
L 247.845625 72.014152 
L 249.367443 72.014152 
L 249.367443 72.261818 
L 250.889261 72.261818 
L 250.889261 62.355184 
L 252.41108 62.355184 
L 252.41108 90.341425 
L 253.932898 90.341425 
L 253.932898 75.481474 
L 255.454716 75.481474 
L 255.454716 83.159115 
L 256.976534 83.159115 
L 256.976534 87.369435 
L 258.498352 87.369435 
L 258.498352 80.187125 
L 260.02017 80.187125 
L 260.02017 86.131106 
L 261.541989 86.131106 
L 261.541989 93.065749 
L 263.063807 93.065749 
L 263.063807 87.121769 
L 264.585625 87.121769 
L 264.585625 93.561081 
L 266.107443 93.561081 
L 266.107443 102.477052 
L 267.629261 102.477052 
L 267.629261 90.589091 
L 269.15108 90.589091 
L 269.15108 102.724717 
L 270.672898 102.724717 
L 270.672898 104.95371 
L 272.194716 104.95371 
L 272.194716 106.192039 
L 273.716534 106.192039 
L 273.716534 108.916364 
L 276.76017 108.916364 
L 276.76017 106.192039 
L 278.281989 106.192039 
L 278.281989 115.10801 
L 279.803807 115.10801 
L 279.803807 108.668698 
L 281.325625 108.668698 
L 281.325625 109.907027 
L 282.847443 109.907027 
L 282.847443 125.26231 
L 284.369261 125.26231 
L 284.369261 120.308993 
L 285.89108 120.308993 
L 285.89108 120.804324 
L 287.412898 120.804324 
L 287.412898 116.346339 
L 288.934716 116.346339 
L 288.934716 124.766978 
L 290.456534 124.766978 
L 290.456534 126.252973 
L 291.978352 126.252973 
L 291.978352 128.481966 
L 293.50017 128.481966 
L 293.50017 127.243636 
L 295.021989 127.243636 
L 295.021989 131.701622 
L 296.543807 131.701622 
L 296.543807 130.215627 
L 298.065625 130.215627 
L 298.065625 140.865258 
L 299.587443 140.865258 
L 299.587443 127.491302 
L 301.109261 127.491302 
L 301.109261 141.36059 
L 302.63108 141.36059 
L 302.63108 135.911941 
L 304.152898 135.911941 
L 304.152898 143.341916 
L 305.674716 143.341916 
L 305.674716 143.589582 
L 307.196534 143.589582 
L 307.196534 149.038231 
L 308.718352 149.038231 
L 308.718352 139.379263 
L 310.24017 139.379263 
L 310.24017 144.580246 
L 311.761989 144.580246 
L 311.761989 153.496216 
L 313.283807 153.496216 
L 313.283807 152.505553 
L 314.805625 152.505553 
L 314.805625 150.524226 
L 316.327443 150.524226 
L 316.327443 151.762555 
L 317.849261 151.762555 
L 317.849261 161.916855 
L 319.37108 161.916855 
L 319.37108 163.155184 
L 320.892898 163.155184 
L 320.892898 162.164521 
L 322.414716 162.164521 
L 322.414716 168.603833 
L 323.936534 168.603833 
L 323.936534 170.58516 
L 325.458352 170.58516 
L 325.458352 177.024472 
L 326.98017 177.024472 
L 326.98017 174.300147 
L 330.023807 174.300147 
L 330.023807 180.739459 
L 331.545625 180.739459 
L 331.545625 185.692776 
L 333.067443 185.692776 
L 333.067443 185.197445 
L 334.589261 185.197445 
L 334.589261 188.417101 
L 336.11108 188.417101 
L 336.11108 192.62742 
L 337.632898 192.62742 
L 337.632898 195.351744 
L 339.154716 195.351744 
L 339.154716 198.076069 
L 340.676534 198.076069 
L 340.676534 200.800393 
L 342.198352 200.800393 
L 342.198352 204.763047 
L 343.72017 204.763047 
L 343.72017 207.982703 
L 345.241989 207.982703 
L 345.241989 206.744373 
L 346.763807 206.744373 
L 346.763807 211.450025 
L 348.285625 211.450025 
L 348.285625 211.945356 
L 349.807443 211.945356 
L 349.807443 214.917346 
L 351.329261 214.917346 
L 351.329261 212.93602 
L 352.85108 212.93602 
L 352.85108 215.90801 
L 354.372898 215.90801 
L 354.372898 218.137002 
L 355.894716 218.137002 
L 355.894716 218.632334 
L 358.938352 218.632334 
L 358.938352 218.88 
L 366.547443 218.88 
L 366.547443 218.88 
" clip-path="url(#p3da64e254c)" style="fill: none; stroke: #1f77b4; stroke-width: 1.5; stroke-linecap: square"/>
   </g>
   <g id="line2d_19">
    <path d="M 62.183807 218.88 
L 69.792898 218.88 
L 69.792898 216.651007 
L 71.314716 216.651007 
L 71.314716 210.459361 
L 72.836534 210.459361 
L 72.836534 199.066732 
L 74.358352 199.066732 
L 74.358352 189.65543 
L 75.88017 189.65543 
L 75.88017 184.206781 
L 77.401989 184.206781 
L 77.401989 177.767469 
L 78.923807 177.767469 
L 78.923807 171.575823 
L 80.445625 171.575823 
L 80.445625 168.108501 
L 81.967443 168.108501 
L 81.967443 154.734545 
L 83.489261 154.734545 
L 83.489261 149.781229 
L 85.01108 149.781229 
L 85.01108 137.893268 
L 86.532898 137.893268 
L 86.532898 130.710958 
L 88.054716 130.710958 
L 88.054716 130.958624 
L 89.576534 130.958624 
L 89.576534 125.757641 
L 91.098352 125.757641 
L 91.098352 112.383686 
L 92.62017 112.383686 
L 92.62017 109.907027 
L 94.141989 109.907027 
L 94.141989 98.019066 
L 95.663807 98.019066 
L 95.663807 95.542408 
L 97.185625 95.542408 
L 97.185625 81.177789 
L 98.707443 81.177789 
L 98.707443 78.453464 
L 100.229261 78.453464 
L 100.229261 73.500147 
L 101.75108 73.500147 
L 101.75108 62.60285 
L 103.272898 62.60285 
L 103.272898 68.794496 
L 104.794716 68.794496 
L 104.794716 57.154201 
L 106.316534 57.154201 
L 106.316534 42.541916 
L 107.838352 42.541916 
L 107.838352 60.126192 
L 109.36017 60.126192 
L 109.36017 38.083931 
L 110.881989 38.083931 
L 110.881989 43.780246 
L 112.403807 43.780246 
L 112.403807 38.331597 
L 113.925625 38.331597 
L 113.925625 33.37828 
L 115.447443 33.37828 
L 115.447443 34.864275 
L 116.969261 34.864275 
L 116.969261 27.929631 
L 118.49108 27.929631 
L 118.49108 21.737985 
L 120.012898 21.737985 
L 120.012898 31.644619 
L 121.534716 31.644619 
L 121.534716 22.233317 
L 123.056534 22.233317 
L 123.056534 33.130614 
L 124.578352 33.130614 
L 124.578352 40.808256 
L 126.10017 40.808256 
L 126.10017 32.882948 
L 127.621989 32.882948 
L 127.621989 48.733563 
L 129.143807 48.733563 
L 129.143807 42.294251 
L 130.665625 42.294251 
L 130.665625 51.457887 
L 132.187443 51.457887 
L 132.187443 35.111941 
L 133.709261 35.111941 
L 133.709261 43.780246 
L 135.23108 43.780246 
L 135.23108 32.139951 
L 136.752898 32.139951 
L 136.752898 58.392531 
L 138.274716 58.392531 
L 138.274716 50.962555 
L 139.796534 50.962555 
L 139.796534 53.68688 
L 141.318352 53.68688 
L 141.318352 69.289828 
L 142.84017 69.289828 
L 142.84017 64.088845 
L 144.361989 64.088845 
L 144.361989 61.859853 
L 145.883807 61.859853 
L 145.883807 65.327174 
L 147.405625 65.327174 
L 147.405625 58.392531 
L 148.927443 58.392531 
L 148.927443 61.612187 
L 150.449261 61.612187 
L 150.449261 49.47656 
L 151.97108 49.47656 
L 151.97108 57.154201 
L 153.492898 57.154201 
L 153.492898 64.584177 
L 155.014716 64.584177 
L 155.014716 73.500147 
L 156.536534 73.500147 
L 156.536534 60.869189 
L 158.058352 60.869189 
L 158.058352 75.481474 
L 159.58017 75.481474 
L 159.58017 56.163538 
L 161.101989 56.163538 
L 161.101989 82.91145 
L 162.623807 82.91145 
L 162.623807 67.556167 
L 164.145625 67.556167 
L 164.145625 64.088845 
L 165.667443 64.088845 
L 165.667443 79.691794 
L 167.189261 79.691794 
L 167.189261 70.032826 
L 168.71108 70.032826 
L 168.71108 81.67312 
L 170.232898 81.67312 
L 170.232898 65.822506 
L 171.754716 65.822506 
L 171.754716 74.986143 
L 173.276534 74.986143 
L 173.276534 89.350762 
L 174.798352 89.350762 
L 174.798352 76.472138 
L 176.32017 76.472138 
L 176.32017 88.607764 
L 177.841989 88.607764 
L 177.841989 85.140442 
L 179.363807 85.140442 
L 179.363807 87.864767 
L 180.885625 87.864767 
L 180.885625 98.762064 
L 182.407443 98.762064 
L 182.407443 96.03774 
L 183.929261 96.03774 
L 183.929261 109.411695 
L 185.45108 109.411695 
L 185.45108 114.365012 
L 186.972898 114.365012 
L 186.972898 116.098673 
L 188.494716 116.098673 
L 188.494716 121.299656 
L 190.016534 121.299656 
L 190.016534 128.729631 
L 191.538352 128.729631 
L 191.538352 143.094251 
L 193.06017 143.094251 
L 193.06017 136.407273 
L 194.581989 136.407273 
L 194.581989 151.267224 
L 196.103807 151.267224 
L 196.103807 153.991548 
L 197.625625 153.991548 
L 197.625625 156.468206 
L 199.147443 156.468206 
L 199.147443 154.48688 
L 200.669261 154.48688 
L 200.669261 157.211204 
L 202.19108 157.211204 
L 202.19108 155.725209 
L 203.712898 155.725209 
L 203.712898 149.533563 
L 205.234716 149.533563 
L 205.234716 148.047568 
L 206.756534 148.047568 
L 206.756534 138.883931 
L 208.278352 138.883931 
L 208.278352 138.140934 
L 209.80017 138.140934 
L 209.80017 129.472629 
L 211.321989 129.472629 
L 211.321989 125.509975 
L 212.843807 125.509975 
L 212.843807 116.841671 
L 214.365625 116.841671 
L 214.365625 107.9257 
L 215.887443 107.9257 
L 215.887443 113.374349 
L 217.409261 113.374349 
L 217.409261 105.696708 
L 218.93108 105.696708 
L 218.93108 99.00973 
L 220.452898 99.00973 
L 220.452898 89.350762 
L 221.974716 89.350762 
L 221.974716 96.03774 
L 223.496534 96.03774 
L 223.496534 86.626437 
L 226.54017 86.626437 
L 226.54017 81.425455 
L 228.061989 81.425455 
L 228.061989 64.584177 
L 229.583807 64.584177 
L 229.583807 68.794496 
L 231.105625 68.794496 
L 231.105625 70.280491 
L 232.627443 70.280491 
L 232.627443 56.906536 
L 234.149261 56.906536 
L 234.149261 70.032826 
L 235.67108 70.032826 
L 235.67108 61.364521 
L 237.192898 61.364521 
L 237.192898 61.116855 
L 238.714716 61.116855 
L 238.714716 67.308501 
L 240.236534 67.308501 
L 240.236534 62.850516 
L 241.758352 62.850516 
L 241.758352 58.392531 
L 243.28017 58.392531 
L 243.28017 63.345848 
L 244.801989 63.345848 
L 244.801989 72.75715 
L 246.323807 72.75715 
L 246.323807 82.416118 
L 247.845625 82.416118 
L 247.845625 71.023489 
L 249.367443 71.023489 
L 249.367443 79.444128 
L 250.889261 79.444128 
L 250.889261 58.392531 
L 252.41108 58.392531 
L 252.41108 82.91145 
L 253.932898 82.91145 
L 253.932898 80.930123 
L 255.454716 80.930123 
L 255.454716 86.378771 
L 256.976534 86.378771 
L 256.976534 76.719803 
L 258.498352 76.719803 
L 258.498352 89.103096 
L 260.02017 89.103096 
L 260.02017 87.617101 
L 261.541989 87.617101 
L 261.541989 86.626437 
L 263.063807 86.626437 
L 263.063807 88.85543 
L 264.585625 88.85543 
L 264.585625 96.03774 
L 266.107443 96.03774 
L 266.107443 91.084423 
L 267.629261 91.084423 
L 267.629261 100.000393 
L 269.15108 100.000393 
L 269.15108 103.467715 
L 270.672898 103.467715 
L 270.672898 104.95371 
L 272.194716 104.95371 
L 272.194716 103.963047 
L 273.716534 103.963047 
L 273.716534 105.449042 
L 275.238352 105.449042 
L 275.238352 112.879017 
L 276.76017 112.879017 
L 276.76017 107.430369 
L 278.281989 107.430369 
L 278.281989 111.888354 
L 279.803807 111.888354 
L 279.803807 108.668698 
L 281.325625 108.668698 
L 281.325625 114.365012 
L 282.847443 114.365012 
L 282.847443 117.832334 
L 284.369261 117.832334 
L 284.369261 128.729631 
L 285.89108 128.729631 
L 285.89108 119.813661 
L 287.412898 119.813661 
L 287.412898 119.565995 
L 288.934716 119.565995 
L 288.934716 115.355676 
L 290.456534 115.355676 
L 290.456534 136.159607 
L 291.978352 136.159607 
L 291.978352 117.832334 
L 293.50017 117.832334 
L 293.50017 131.20629 
L 295.021989 131.20629 
L 295.021989 127.243636 
L 296.543807 127.243636 
L 296.543807 136.902604 
L 298.065625 136.902604 
L 298.065625 131.949287 
L 299.587443 131.949287 
L 299.587443 134.425946 
L 301.109261 134.425946 
L 301.109261 141.36059 
L 302.63108 141.36059 
L 302.63108 138.3886 
L 304.152898 138.3886 
L 304.152898 136.654939 
L 305.674716 136.654939 
L 305.674716 143.094251 
L 307.196534 143.094251 
L 307.196534 152.753219 
L 308.718352 152.753219 
L 308.718352 144.084914 
L 310.24017 144.084914 
L 310.24017 139.379263 
L 311.761989 139.379263 
L 311.761989 153.743882 
L 313.283807 153.743882 
L 313.283807 156.468206 
L 314.805625 156.468206 
L 314.805625 151.514889 
L 316.327443 151.514889 
L 316.327443 150.524226 
L 317.849261 150.524226 
L 317.849261 168.356167 
L 319.37108 168.356167 
L 319.37108 154.48688 
L 320.892898 154.48688 
L 320.892898 160.183194 
L 322.414716 160.183194 
L 322.414716 171.328157 
L 323.936534 171.328157 
L 323.936534 171.823489 
L 325.458352 171.823489 
L 325.458352 174.795479 
L 326.98017 174.795479 
L 326.98017 173.804816 
L 328.501989 173.804816 
L 328.501989 171.823489 
L 330.023807 171.823489 
L 330.023807 182.225455 
L 331.545625 182.225455 
L 331.545625 187.426437 
L 333.067443 187.426437 
L 333.067443 185.197445 
L 334.589261 185.197445 
L 334.589261 186.931106 
L 336.11108 186.931106 
L 336.11108 193.865749 
L 337.632898 193.865749 
L 337.632898 194.608747 
L 339.154716 194.608747 
L 339.154716 198.323735 
L 340.676534 198.323735 
L 340.676534 202.038722 
L 342.198352 202.038722 
L 342.198352 205.506044 
L 343.72017 205.506044 
L 343.72017 206.744373 
L 345.241989 206.744373 
L 345.241989 206.992039 
L 346.763807 206.992039 
L 346.763807 211.945356 
L 348.285625 211.945356 
L 348.285625 210.459361 
L 349.807443 210.459361 
L 349.807443 215.412678 
L 351.329261 215.412678 
L 351.329261 212.688354 
L 352.85108 212.688354 
L 352.85108 215.90801 
L 354.372898 215.90801 
L 354.372898 218.137002 
L 355.894716 218.137002 
L 355.894716 218.632334 
L 358.938352 218.632334 
L 358.938352 218.88 
L 366.547443 218.88 
L 366.547443 218.88 
" clip-path="url(#p3da64e254c)" style="fill: none; stroke: #ff7f0e; stroke-width: 1.5; stroke-linecap: square"/>
   </g>
   <g id="patch_3">
    <path d="M 46.965625 228.96 
L 46.965625 7.2 
" style="fill: none; stroke: #000000; stroke-width: 0.8; stroke-linejoin: miter; stroke-linecap: square"/>
   </g>
   <g id="patch_4">
    <path d="M 381.765625 228.96 
L 381.765625 7.2 
" style="fill: none; stroke: #000000; stroke-width: 0.8; stroke-linejoin: miter; stroke-linecap: square"/>
   </g>
   <g id="patch_5">
    <path d="M 46.965625 228.96 
L 381.765625 228.96 
" style="fill: none; stroke: #000000; stroke-width: 0.8; stroke-linejoin: miter; stroke-linecap: square"/>
   </g>
   <g id="patch_6">
    <path d="M 46.965625 7.2 
L 381.765625 7.2 
" style="fill: none; stroke: #000000; stroke-width: 0.8; stroke-linejoin: miter; stroke-linecap: square"/>
   </g>
   <g id="legend_1">
    <g id="patch_7">
     <path d="M 277.7625 44.834375 
L 374.765625 44.834375 
Q 376.765625 44.834375 376.765625 42.834375 
L 376.765625 14.2 
Q 376.765625 12.2 374.765625 12.2 
L 277.7625 12.2 
Q 275.7625 12.2 275.7625 14.2 
L 275.7625 42.834375 
Q 275.7625 44.834375 277.7625 44.834375 
z
" style="fill: #ffffff; opacity: 0.8; stroke: #cccccc; stroke-linejoin: miter"/>
    </g>
    <g id="line2d_20">
     <path d="M 279.7625 20.298437 
L 279.7625 20.298437 
L 289.7625 20.298437 
L 289.7625 20.298437 
L 299.7625 20.298437 
" style="fill: none; stroke: #1f77b4; stroke-width: 1.5; stroke-linecap: square"/>
    </g>
    <g id="text_20">
     <!-- wfm -->
     <g transform="translate(307.7625 23.798437) scale(0.1 -0.1)">
      <defs>
       <path id="DejaVuSans-66" d="M 2375 4863 
L 2375 4384 
L 1825 4384 
Q 1516 4384 1395 4259 
Q 1275 4134 1275 3809 
L 1275 3500 
L 2222 3500 
L 2222 3053 
L 1275 3053 
L 1275 0 
L 697 0 
L 697 3053 
L 147 3053 
L 147 3500 
L 697 3500 
L 697 3744 
Q 697 4328 969 4595 
Q 1241 4863 1831 4863 
L 2375 4863 
z
" transform="scale(0.015625)"/>
       <path id="DejaVuSans-6d" d="M 3328 2828 
Q 3544 3216 3844 3400 
Q 4144 3584 4550 3584 
Q 5097 3584 5394 3201 
Q 5691 2819 5691 2113 
L 5691 0 
L 5113 0 
L 5113 2094 
Q 5113 2597 4934 2840 
Q 4756 3084 4391 3084 
Q 3944 3084 3684 2787 
Q 3425 2491 3425 1978 
L 3425 0 
L 2847 0 
L 2847 2094 
Q 2847 2600 2669 2842 
Q 2491 3084 2119 3084 
Q 1678 3084 1418 2786 
Q 1159 2488 1159 1978 
L 1159 0 
L 581 0 
L 581 3500 
L 1159 3500 
L 1159 2956 
Q 1356 3278 1631 3431 
Q 1906 3584 2284 3584 
Q 2666 3584 2933 3390 
Q 3200 3197 3328 2828 
z
" transform="scale(0.015625)"/>
      </defs>
      <use xlink:href="#DejaVuSans-77"/>
      <use xlink:href="#DejaVuSans-66" transform="translate(81.787109 0)"/>
      <use xlink:href="#DejaVuSans-6d" transform="translate(116.992188 0)"/>
     </g>
    </g>
    <g id="line2d_21">
     <path d="M 279.7625 34.976562 
L 279.7625 34.976562 
L 289.7625 34.976562 
L 289.7625 34.976562 
L 299.7625 34.976562 
" style="fill: none; stroke: #ff7f0e; stroke-width: 1.5; stroke-linecap: square"/>
    </g>
    <g id="text_21">
     <!-- ground_truth -->
     <g transform="translate(307.7625 38.476562) scale(0.1 -0.1)">
      <defs>
       <path id="DejaVuSans-72" d="M 2631 2963 
Q 2534 3019 2420 3045 
Q 2306 3072 2169 3072 
Q 1681 3072 1420 2755 
Q 1159 2438 1159 1844 
L 1159 0 
L 581 0 
L 581 3500 
L 1159 3500 
L 1159 2956 
Q 1341 3275 1631 3429 
Q 1922 3584 2338 3584 
Q 2397 3584 2469 3576 
Q 2541 3569 2628 3553 
L 2631 2963 
z
" transform="scale(0.015625)"/>
       <path id="DejaVuSans-64" d="M 2906 2969 
L 2906 4863 
L 3481 4863 
L 3481 0 
L 2906 0 
L 2906 525 
Q 2725 213 2448 61 
Q 2172 -91 1784 -91 
Q 1150 -91 751 415 
Q 353 922 353 1747 
Q 353 2572 751 3078 
Q 1150 3584 1784 3584 
Q 2172 3584 2448 3432 
Q 2725 3281 2906 2969 
z
M 947 1747 
Q 947 1113 1208 752 
Q 1469 391 1925 391 
Q 2381 391 2643 752 
Q 2906 1113 2906 1747 
Q 2906 2381 2643 2742 
Q 2381 3103 1925 3103 
Q 1469 3103 1208 2742 
Q 947 2381 947 1747 
z
" transform="scale(0.015625)"/>
       <path id="DejaVuSans-5f" d="M 3263 -1063 
L 3263 -1509 
L -63 -1509 
L -63 -1063 
L 3263 -1063 
z
" transform="scale(0.015625)"/>
      </defs>
      <use xlink:href="#DejaVuSans-67"/>
      <use xlink:href="#DejaVuSans-72" transform="translate(63.476562 0)"/>
      <use xlink:href="#DejaVuSans-6f" transform="translate(102.339844 0)"/>
      <use xlink:href="#DejaVuSans-75" transform="translate(163.521484 0)"/>
      <use xlink:href="#DejaVuSans-6e" transform="translate(226.900391 0)"/>
      <use xlink:href="#DejaVuSans-64" transform="translate(290.279297 0)"/>
      <use xlink:href="#DejaVuSans-5f" transform="translate(353.755859 0)"/>
      <use xlink:href="#DejaVuSans-74" transform="translate(403.755859 0)"/>
      <use xlink:href="#DejaVuSans-72" transform="translate(442.964844 0)"/>
      <use xlink:href="#DejaVuSans-75" transform="translate(484.078125 0)"/>
      <use xlink:href="#DejaVuSans-74" transform="translate(547.457031 0)"/>
      <use xlink:href="#DejaVuSans-68" transform="translate(586.666016 0)"/>
     </g>
    </g>
   </g>
  </g>
 </g>
 <defs>
  <clipPath id="p3da64e254c">
   <rect x="46.965625" y="7.2" width="334.8" height="221.76"/>
  </clipPath>
 </defs>
</svg>
