<?xml version="1.0" encoding="utf-8" standalone="no"?>
<!DOCTYPE svg PUBLIC "-//W3C//DTD SVG 1.1//EN"
  "http://www.w3.org/Graphics/SVG/1.1/DTD/svg11.dtd">
<svg xmlns:xlink="http://www.w3.org/1999/xlink" width="395.328125pt" height="268.200625pt" viewBox="0 0 395.328125 268.200625" xmlns="http://www.w3.org/2000/svg" version="1.1">
 <metadata>
  <rdf:RDF xmlns:dc="http://purl.org/dc/elements/1.1/" xmlns:cc="http://creativecommons.org/ns#" xmlns:rdf="http://www.w3.org/1999/02/22-rdf-syntax-ns#">
   <cc:Work>
    <dc:type rdf:resource="http://purl.org/dc/dcmitype/StillImage"/>
    <dc:date>2025-03-17T10:47:35.895157</dc:date>
    <dc:format>image/svg+xml</dc:format>
    <dc:creator>
     <cc:Agent>
      <dc:title>Matplotlib v3.10.0, https://matplotlib.org/</dc:title>
     </cc:Agent>
    </dc:creator>
   </cc:Work>
  </rdf:RDF>
 </metadata>
 <defs>
  <style type="text/css">*{stroke-linejoin: round; stroke-linecap: butt}</style>
 </defs>
 <g id="figure_1">
  <g id="patch_1">
   <path d="M 0 268.200625 
L 395.328125 268.200625 
L 395.328125 0 
L 0 0 
z
" style="fill: #ffffff"/>
  </g>
  <g id="axes_1">
   <g id="patch_2">
    <path d="M 53.328125 228.96 
L 388.128125 228.96 
L 388.128125 7.2 
L 53.328125 7.2 
z
" style="fill: #ffffff"/>
   </g>
   <g id="matplotlib.axis_1">
    <g id="xtick_1">
     <g id="line2d_1">
      <defs>
       <path id="m0aea7a64b1" d="M 0 0 
L 0 3.5 
" style="stroke: #000000; stroke-width: 0.8"/>
      </defs>
      <g>
       <use xlink:href="#m0aea7a64b1" x="68.546307" y="228.96" style="stroke: #000000; stroke-width: 0.8"/>
      </g>
     </g>
     <g id="text_1">
      <!-- 2 -->
      <g transform="translate(65.365057 243.558437) scale(0.1 -0.1)">
       <defs>
        <path id="DejaVuSans-32" d="M 1228 531 
L 3431 531 
L 3431 0 
L 469 0 
L 469 531 
Q 828 903 1448 1529 
Q 2069 2156 2228 2338 
Q 2531 2678 2651 2914 
Q 2772 3150 2772 3378 
Q 2772 3750 2511 3984 
Q 2250 4219 1831 4219 
Q 1534 4219 1204 4116 
Q 875 4013 500 3803 
L 500 4441 
Q 881 4594 1212 4672 
Q 1544 4750 1819 4750 
Q 2544 4750 2975 4387 
Q 3406 4025 3406 3419 
Q 3406 3131 3298 2873 
Q 3191 2616 2906 2266 
Q 2828 2175 2409 1742 
Q 1991 1309 1228 531 
z
" transform="scale(0.015625)"/>
       </defs>
       <use xlink:href="#DejaVuSans-32"/>
      </g>
     </g>
    </g>
    <g id="xtick_2">
     <g id="line2d_2">
      <g>
       <use xlink:href="#m0aea7a64b1" x="106.591761" y="228.96" style="stroke: #000000; stroke-width: 0.8"/>
      </g>
     </g>
     <g id="text_2">
      <!-- 3 -->
      <g transform="translate(103.410511 243.558437) scale(0.1 -0.1)">
       <defs>
        <path id="DejaVuSans-33" d="M 2597 2516 
Q 3050 2419 3304 2112 
Q 3559 1806 3559 1356 
Q 3559 666 3084 287 
Q 2609 -91 1734 -91 
Q 1441 -91 1130 -33 
Q 819 25 488 141 
L 488 750 
Q 750 597 1062 519 
Q 1375 441 1716 441 
Q 2309 441 2620 675 
Q 2931 909 2931 1356 
Q 2931 1769 2642 2001 
Q 2353 2234 1838 2234 
L 1294 2234 
L 1294 2753 
L 1863 2753 
Q 2328 2753 2575 2939 
Q 2822 3125 2822 3475 
Q 2822 3834 2567 4026 
Q 2313 4219 1838 4219 
Q 1578 4219 1281 4162 
Q 984 4106 628 3988 
L 628 4550 
Q 988 4650 1302 4700 
Q 1616 4750 1894 4750 
Q 2613 4750 3031 4423 
Q 3450 4097 3450 3541 
Q 3450 3153 3228 2886 
Q 3006 2619 2597 2516 
z
" transform="scale(0.015625)"/>
       </defs>
       <use xlink:href="#DejaVuSans-33"/>
      </g>
     </g>
    </g>
    <g id="xtick_3">
     <g id="line2d_3">
      <g>
       <use xlink:href="#m0aea7a64b1" x="144.637216" y="228.96" style="stroke: #000000; stroke-width: 0.8"/>
      </g>
     </g>
     <g id="text_3">
      <!-- 4 -->
      <g transform="translate(141.455966 243.558437) scale(0.1 -0.1)">
       <defs>
        <path id="DejaVuSans-34" d="M 2419 4116 
L 825 1625 
L 2419 1625 
L 2419 4116 
z
M 2253 4666 
L 3047 4666 
L 3047 1625 
L 3713 1625 
L 3713 1100 
L 3047 1100 
L 3047 0 
L 2419 0 
L 2419 1100 
L 313 1100 
L 313 1709 
L 2253 4666 
z
" transform="scale(0.015625)"/>
       </defs>
       <use xlink:href="#DejaVuSans-34"/>
      </g>
     </g>
    </g>
    <g id="xtick_4">
     <g id="line2d_4">
      <g>
       <use xlink:href="#m0aea7a64b1" x="182.68267" y="228.96" style="stroke: #000000; stroke-width: 0.8"/>
      </g>
     </g>
     <g id="text_4">
      <!-- 5 -->
      <g transform="translate(179.50142 243.558437) scale(0.1 -0.1)">
       <defs>
        <path id="DejaVuSans-35" d="M 691 4666 
L 3169 4666 
L 3169 4134 
L 1269 4134 
L 1269 2991 
Q 1406 3038 1543 3061 
Q 1681 3084 1819 3084 
Q 2600 3084 3056 2656 
Q 3513 2228 3513 1497 
Q 3513 744 3044 326 
Q 2575 -91 1722 -91 
Q 1428 -91 1123 -41 
Q 819 9 494 109 
L 494 744 
Q 775 591 1075 516 
Q 1375 441 1709 441 
Q 2250 441 2565 725 
Q 2881 1009 2881 1497 
Q 2881 1984 2565 2268 
Q 2250 2553 1709 2553 
Q 1456 2553 1204 2497 
Q 953 2441 691 2322 
L 691 4666 
z
" transform="scale(0.015625)"/>
       </defs>
       <use xlink:href="#DejaVuSans-35"/>
      </g>
     </g>
    </g>
    <g id="xtick_5">
     <g id="line2d_5">
      <g>
       <use xlink:href="#m0aea7a64b1" x="220.728125" y="228.96" style="stroke: #000000; stroke-width: 0.8"/>
      </g>
     </g>
     <g id="text_5">
      <!-- 6 -->
      <g transform="translate(217.546875 243.558437) scale(0.1 -0.1)">
       <defs>
        <path id="DejaVuSans-36" d="M 2113 2584 
Q 1688 2584 1439 2293 
Q 1191 2003 1191 1497 
Q 1191 994 1439 701 
Q 1688 409 2113 409 
Q 2538 409 2786 701 
Q 3034 994 3034 1497 
Q 3034 2003 2786 2293 
Q 2538 2584 2113 2584 
z
M 3366 4563 
L 3366 3988 
Q 3128 4100 2886 4159 
Q 2644 4219 2406 4219 
Q 1781 4219 1451 3797 
Q 1122 3375 1075 2522 
Q 1259 2794 1537 2939 
Q 1816 3084 2150 3084 
Q 2853 3084 3261 2657 
Q 3669 2231 3669 1497 
Q 3669 778 3244 343 
Q 2819 -91 2113 -91 
Q 1303 -91 875 529 
Q 447 1150 447 2328 
Q 447 3434 972 4092 
Q 1497 4750 2381 4750 
Q 2619 4750 2861 4703 
Q 3103 4656 3366 4563 
z
" transform="scale(0.015625)"/>
       </defs>
       <use xlink:href="#DejaVuSans-36"/>
      </g>
     </g>
    </g>
    <g id="xtick_6">
     <g id="line2d_6">
      <g>
       <use xlink:href="#m0aea7a64b1" x="258.77358" y="228.96" style="stroke: #000000; stroke-width: 0.8"/>
      </g>
     </g>
     <g id="text_6">
      <!-- 7 -->
      <g transform="translate(255.59233 243.558437) scale(0.1 -0.1)">
       <defs>
        <path id="DejaVuSans-37" d="M 525 4666 
L 3525 4666 
L 3525 4397 
L 1831 0 
L 1172 0 
L 2766 4134 
L 525 4134 
L 525 4666 
z
" transform="scale(0.015625)"/>
       </defs>
       <use xlink:href="#DejaVuSans-37"/>
      </g>
     </g>
    </g>
    <g id="xtick_7">
     <g id="line2d_7">
      <g>
       <use xlink:href="#m0aea7a64b1" x="296.819034" y="228.96" style="stroke: #000000; stroke-width: 0.8"/>
      </g>
     </g>
     <g id="text_7">
      <!-- 8 -->
      <g transform="translate(293.637784 243.558437) scale(0.1 -0.1)">
       <defs>
        <path id="DejaVuSans-38" d="M 2034 2216 
Q 1584 2216 1326 1975 
Q 1069 1734 1069 1313 
Q 1069 891 1326 650 
Q 1584 409 2034 409 
Q 2484 409 2743 651 
Q 3003 894 3003 1313 
Q 3003 1734 2745 1975 
Q 2488 2216 2034 2216 
z
M 1403 2484 
Q 997 2584 770 2862 
Q 544 3141 544 3541 
Q 544 4100 942 4425 
Q 1341 4750 2034 4750 
Q 2731 4750 3128 4425 
Q 3525 4100 3525 3541 
Q 3525 3141 3298 2862 
Q 3072 2584 2669 2484 
Q 3125 2378 3379 2068 
Q 3634 1759 3634 1313 
Q 3634 634 3220 271 
Q 2806 -91 2034 -91 
Q 1263 -91 848 271 
Q 434 634 434 1313 
Q 434 1759 690 2068 
Q 947 2378 1403 2484 
z
M 1172 3481 
Q 1172 3119 1398 2916 
Q 1625 2713 2034 2713 
Q 2441 2713 2670 2916 
Q 2900 3119 2900 3481 
Q 2900 3844 2670 4047 
Q 2441 4250 2034 4250 
Q 1625 4250 1398 4047 
Q 1172 3844 1172 3481 
z
" transform="scale(0.015625)"/>
       </defs>
       <use xlink:href="#DejaVuSans-38"/>
      </g>
     </g>
    </g>
    <g id="xtick_8">
     <g id="line2d_8">
      <g>
       <use xlink:href="#m0aea7a64b1" x="334.864489" y="228.96" style="stroke: #000000; stroke-width: 0.8"/>
      </g>
     </g>
     <g id="text_8">
      <!-- 9 -->
      <g transform="translate(331.683239 243.558437) scale(0.1 -0.1)">
       <defs>
        <path id="DejaVuSans-39" d="M 703 97 
L 703 672 
Q 941 559 1184 500 
Q 1428 441 1663 441 
Q 2288 441 2617 861 
Q 2947 1281 2994 2138 
Q 2813 1869 2534 1725 
Q 2256 1581 1919 1581 
Q 1219 1581 811 2004 
Q 403 2428 403 3163 
Q 403 3881 828 4315 
Q 1253 4750 1959 4750 
Q 2769 4750 3195 4129 
Q 3622 3509 3622 2328 
Q 3622 1225 3098 567 
Q 2575 -91 1691 -91 
Q 1453 -91 1209 -44 
Q 966 3 703 97 
z
M 1959 2075 
Q 2384 2075 2632 2365 
Q 2881 2656 2881 3163 
Q 2881 3666 2632 3958 
Q 2384 4250 1959 4250 
Q 1534 4250 1286 3958 
Q 1038 3666 1038 3163 
Q 1038 2656 1286 2365 
Q 1534 2075 1959 2075 
z
" transform="scale(0.015625)"/>
       </defs>
       <use xlink:href="#DejaVuSans-39"/>
      </g>
     </g>
    </g>
    <g id="xtick_9">
     <g id="line2d_9">
      <g>
       <use xlink:href="#m0aea7a64b1" x="372.909943" y="228.96" style="stroke: #000000; stroke-width: 0.8"/>
      </g>
     </g>
     <g id="text_9">
      <!-- 10 -->
      <g transform="translate(366.547443 243.558437) scale(0.1 -0.1)">
       <defs>
        <path id="DejaVuSans-31" d="M 794 531 
L 1825 531 
L 1825 4091 
L 703 3866 
L 703 4441 
L 1819 4666 
L 2450 4666 
L 2450 531 
L 3481 531 
L 3481 0 
L 794 0 
L 794 531 
z
" transform="scale(0.015625)"/>
        <path id="DejaVuSans-30" d="M 2034 4250 
Q 1547 4250 1301 3770 
Q 1056 3291 1056 2328 
Q 1056 1369 1301 889 
Q 1547 409 2034 409 
Q 2525 409 2770 889 
Q 3016 1369 3016 2328 
Q 3016 3291 2770 3770 
Q 2525 4250 2034 4250 
z
M 2034 4750 
Q 2819 4750 3233 4129 
Q 3647 3509 3647 2328 
Q 3647 1150 3233 529 
Q 2819 -91 2034 -91 
Q 1250 -91 836 529 
Q 422 1150 422 2328 
Q 422 3509 836 4129 
Q 1250 4750 2034 4750 
z
" transform="scale(0.015625)"/>
       </defs>
       <use xlink:href="#DejaVuSans-31"/>
       <use xlink:href="#DejaVuSans-30" transform="translate(63.623047 0)"/>
      </g>
     </g>
    </g>
    <g id="text_10">
     <!-- wavelength [Å] -->
     <g transform="translate(182.690625 258.920937) scale(0.1 -0.1)">
      <defs>
       <path id="DejaVuSans-77" d="M 269 3500 
L 844 3500 
L 1563 769 
L 2278 3500 
L 2956 3500 
L 3675 769 
L 4391 3500 
L 4966 3500 
L 4050 0 
L 3372 0 
L 2619 2869 
L 1863 0 
L 1184 0 
L 269 3500 
z
" transform="scale(0.015625)"/>
       <path id="DejaVuSans-61" d="M 2194 1759 
Q 1497 1759 1228 1600 
Q 959 1441 959 1056 
Q 959 750 1161 570 
Q 1363 391 1709 391 
Q 2188 391 2477 730 
Q 2766 1069 2766 1631 
L 2766 1759 
L 2194 1759 
z
M 3341 1997 
L 3341 0 
L 2766 0 
L 2766 531 
Q 2569 213 2275 61 
Q 1981 -91 1556 -91 
Q 1019 -91 701 211 
Q 384 513 384 1019 
Q 384 1609 779 1909 
Q 1175 2209 1959 2209 
L 2766 2209 
L 2766 2266 
Q 2766 2663 2505 2880 
Q 2244 3097 1772 3097 
Q 1472 3097 1187 3025 
Q 903 2953 641 2809 
L 641 3341 
Q 956 3463 1253 3523 
Q 1550 3584 1831 3584 
Q 2591 3584 2966 3190 
Q 3341 2797 3341 1997 
z
" transform="scale(0.015625)"/>
       <path id="DejaVuSans-76" d="M 191 3500 
L 800 3500 
L 1894 563 
L 2988 3500 
L 3597 3500 
L 2284 0 
L 1503 0 
L 191 3500 
z
" transform="scale(0.015625)"/>
       <path id="DejaVuSans-65" d="M 3597 1894 
L 3597 1613 
L 953 1613 
Q 991 1019 1311 708 
Q 1631 397 2203 397 
Q 2534 397 2845 478 
Q 3156 559 3463 722 
L 3463 178 
Q 3153 47 2828 -22 
Q 2503 -91 2169 -91 
Q 1331 -91 842 396 
Q 353 884 353 1716 
Q 353 2575 817 3079 
Q 1281 3584 2069 3584 
Q 2775 3584 3186 3129 
Q 3597 2675 3597 1894 
z
M 3022 2063 
Q 3016 2534 2758 2815 
Q 2500 3097 2075 3097 
Q 1594 3097 1305 2825 
Q 1016 2553 972 2059 
L 3022 2063 
z
" transform="scale(0.015625)"/>
       <path id="DejaVuSans-6c" d="M 603 4863 
L 1178 4863 
L 1178 0 
L 603 0 
L 603 4863 
z
" transform="scale(0.015625)"/>
       <path id="DejaVuSans-6e" d="M 3513 2113 
L 3513 0 
L 2938 0 
L 2938 2094 
Q 2938 2591 2744 2837 
Q 2550 3084 2163 3084 
Q 1697 3084 1428 2787 
Q 1159 2491 1159 1978 
L 1159 0 
L 581 0 
L 581 3500 
L 1159 3500 
L 1159 2956 
Q 1366 3272 1645 3428 
Q 1925 3584 2291 3584 
Q 2894 3584 3203 3211 
Q 3513 2838 3513 2113 
z
" transform="scale(0.015625)"/>
       <path id="DejaVuSans-67" d="M 2906 1791 
Q 2906 2416 2648 2759 
Q 2391 3103 1925 3103 
Q 1463 3103 1205 2759 
Q 947 2416 947 1791 
Q 947 1169 1205 825 
Q 1463 481 1925 481 
Q 2391 481 2648 825 
Q 2906 1169 2906 1791 
z
M 3481 434 
Q 3481 -459 3084 -895 
Q 2688 -1331 1869 -1331 
Q 1566 -1331 1297 -1286 
Q 1028 -1241 775 -1147 
L 775 -588 
Q 1028 -725 1275 -790 
Q 1522 -856 1778 -856 
Q 2344 -856 2625 -561 
Q 2906 -266 2906 331 
L 2906 616 
Q 2728 306 2450 153 
Q 2172 0 1784 0 
Q 1141 0 747 490 
Q 353 981 353 1791 
Q 353 2603 747 3093 
Q 1141 3584 1784 3584 
Q 2172 3584 2450 3431 
Q 2728 3278 2906 2969 
L 2906 3500 
L 3481 3500 
L 3481 434 
z
" transform="scale(0.015625)"/>
       <path id="DejaVuSans-74" d="M 1172 4494 
L 1172 3500 
L 2356 3500 
L 2356 3053 
L 1172 3053 
L 1172 1153 
Q 1172 725 1289 603 
Q 1406 481 1766 481 
L 2356 481 
L 2356 0 
L 1766 0 
Q 1100 0 847 248 
Q 594 497 594 1153 
L 594 3053 
L 172 3053 
L 172 3500 
L 594 3500 
L 594 4494 
L 1172 4494 
z
" transform="scale(0.015625)"/>
       <path id="DejaVuSans-68" d="M 3513 2113 
L 3513 0 
L 2938 0 
L 2938 2094 
Q 2938 2591 2744 2837 
Q 2550 3084 2163 3084 
Q 1697 3084 1428 2787 
Q 1159 2491 1159 1978 
L 1159 0 
L 581 0 
L 581 4863 
L 1159 4863 
L 1159 2956 
Q 1366 3272 1645 3428 
Q 1925 3584 2291 3584 
Q 2894 3584 3203 3211 
Q 3513 2838 3513 2113 
z
" transform="scale(0.015625)"/>
       <path id="DejaVuSans-20" transform="scale(0.015625)"/>
       <path id="DejaVuSans-5b" d="M 550 4863 
L 1875 4863 
L 1875 4416 
L 1125 4416 
L 1125 -397 
L 1875 -397 
L 1875 -844 
L 550 -844 
L 550 4863 
z
" transform="scale(0.015625)"/>
       <path id="DejaVuSans-c5" d="M 2663 5081 
Q 2663 5278 2523 5417 
Q 2384 5556 2188 5556 
Q 1988 5556 1852 5420 
Q 1716 5284 1716 5081 
Q 1716 4884 1853 4746 
Q 1991 4609 2188 4609 
Q 2384 4609 2523 4746 
Q 2663 4884 2663 5081 
z
M 2188 4044 
L 1338 1722 
L 3041 1722 
L 2188 4044 
z
M 1716 4366 
Q 1525 4494 1428 4673 
Q 1331 4853 1331 5081 
Q 1331 5441 1579 5691 
Q 1828 5941 2188 5941 
Q 2544 5941 2795 5689 
Q 3047 5438 3047 5081 
Q 3047 4863 2948 4678 
Q 2850 4494 2663 4366 
L 4325 0 
L 3669 0 
L 3244 1197 
L 1141 1197 
L 716 0 
L 50 0 
L 1716 4366 
z
" transform="scale(0.015625)"/>
       <path id="DejaVuSans-5d" d="M 1947 4863 
L 1947 -844 
L 622 -844 
L 622 -397 
L 1369 -397 
L 1369 4416 
L 622 4416 
L 622 4863 
L 1947 4863 
z
" transform="scale(0.015625)"/>
      </defs>
      <use xlink:href="#DejaVuSans-77"/>
      <use xlink:href="#DejaVuSans-61" transform="translate(81.787109 0)"/>
      <use xlink:href="#DejaVuSans-76" transform="translate(143.066406 0)"/>
      <use xlink:href="#DejaVuSans-65" transform="translate(202.246094 0)"/>
      <use xlink:href="#DejaVuSans-6c" transform="translate(263.769531 0)"/>
      <use xlink:href="#DejaVuSans-65" transform="translate(291.552734 0)"/>
      <use xlink:href="#DejaVuSans-6e" transform="translate(353.076172 0)"/>
      <use xlink:href="#DejaVuSans-67" transform="translate(416.455078 0)"/>
      <use xlink:href="#DejaVuSans-74" transform="translate(479.931641 0)"/>
      <use xlink:href="#DejaVuSans-68" transform="translate(519.140625 0)"/>
      <use xlink:href="#DejaVuSans-20" transform="translate(582.519531 0)"/>
      <use xlink:href="#DejaVuSans-5b" transform="translate(614.306641 0)"/>
      <use xlink:href="#DejaVuSans-c5" transform="translate(653.320312 0)"/>
      <use xlink:href="#DejaVuSans-5d" transform="translate(721.728516 0)"/>
     </g>
    </g>
   </g>
   <g id="matplotlib.axis_2">
    <g id="ytick_1">
     <g id="line2d_10">
      <defs>
       <path id="m6c6ad5548f" d="M 0 0 
L -3.5 0 
" style="stroke: #000000; stroke-width: 0.8"/>
      </defs>
      <g>
       <use xlink:href="#m6c6ad5548f" x="53.328125" y="218.88" style="stroke: #000000; stroke-width: 0.8"/>
      </g>
     </g>
     <g id="text_11">
      <!-- 0 -->
      <g transform="translate(39.965625 222.679219) scale(0.1 -0.1)">
       <use xlink:href="#DejaVuSans-30"/>
      </g>
     </g>
    </g>
    <g id="ytick_2">
     <g id="line2d_11">
      <g>
       <use xlink:href="#m6c6ad5548f" x="53.328125" y="181.505139" style="stroke: #000000; stroke-width: 0.8"/>
      </g>
     </g>
     <g id="text_12">
      <!-- 500 -->
      <g transform="translate(27.240625 185.304358) scale(0.1 -0.1)">
       <use xlink:href="#DejaVuSans-35"/>
       <use xlink:href="#DejaVuSans-30" transform="translate(63.623047 0)"/>
       <use xlink:href="#DejaVuSans-30" transform="translate(127.246094 0)"/>
      </g>
     </g>
    </g>
    <g id="ytick_3">
     <g id="line2d_12">
      <g>
       <use xlink:href="#m6c6ad5548f" x="53.328125" y="144.130278" style="stroke: #000000; stroke-width: 0.8"/>
      </g>
     </g>
     <g id="text_13">
      <!-- 1000 -->
      <g transform="translate(20.878125 147.929497) scale(0.1 -0.1)">
       <use xlink:href="#DejaVuSans-31"/>
       <use xlink:href="#DejaVuSans-30" transform="translate(63.623047 0)"/>
       <use xlink:href="#DejaVuSans-30" transform="translate(127.246094 0)"/>
       <use xlink:href="#DejaVuSans-30" transform="translate(190.869141 0)"/>
      </g>
     </g>
    </g>
    <g id="ytick_4">
     <g id="line2d_13">
      <g>
       <use xlink:href="#m6c6ad5548f" x="53.328125" y="106.755417" style="stroke: #000000; stroke-width: 0.8"/>
      </g>
     </g>
     <g id="text_14">
      <!-- 1500 -->
      <g transform="translate(20.878125 110.554636) scale(0.1 -0.1)">
       <use xlink:href="#DejaVuSans-31"/>
       <use xlink:href="#DejaVuSans-35" transform="translate(63.623047 0)"/>
       <use xlink:href="#DejaVuSans-30" transform="translate(127.246094 0)"/>
       <use xlink:href="#DejaVuSans-30" transform="translate(190.869141 0)"/>
      </g>
     </g>
    </g>
    <g id="ytick_5">
     <g id="line2d_14">
      <g>
       <use xlink:href="#m6c6ad5548f" x="53.328125" y="69.380556" style="stroke: #000000; stroke-width: 0.8"/>
      </g>
     </g>
     <g id="text_15">
      <!-- 2000 -->
      <g transform="translate(20.878125 73.179775) scale(0.1 -0.1)">
       <use xlink:href="#DejaVuSans-32"/>
       <use xlink:href="#DejaVuSans-30" transform="translate(63.623047 0)"/>
       <use xlink:href="#DejaVuSans-30" transform="translate(127.246094 0)"/>
       <use xlink:href="#DejaVuSans-30" transform="translate(190.869141 0)"/>
      </g>
     </g>
    </g>
    <g id="ytick_6">
     <g id="line2d_15">
      <g>
       <use xlink:href="#m6c6ad5548f" x="53.328125" y="32.005695" style="stroke: #000000; stroke-width: 0.8"/>
      </g>
     </g>
     <g id="text_16">
      <!-- 2500 -->
      <g transform="translate(20.878125 35.804914) scale(0.1 -0.1)">
       <use xlink:href="#DejaVuSans-32"/>
       <use xlink:href="#DejaVuSans-35" transform="translate(63.623047 0)"/>
       <use xlink:href="#DejaVuSans-30" transform="translate(127.246094 0)"/>
       <use xlink:href="#DejaVuSans-30" transform="translate(190.869141 0)"/>
      </g>
     </g>
    </g>
    <g id="text_17">
     <!-- [counts] -->
     <g transform="translate(14.798438 138.6925) rotate(-90) scale(0.1 -0.1)">
      <defs>
       <path id="DejaVuSans-63" d="M 3122 3366 
L 3122 2828 
Q 2878 2963 2633 3030 
Q 2388 3097 2138 3097 
Q 1578 3097 1268 2742 
Q 959 2388 959 1747 
Q 959 1106 1268 751 
Q 1578 397 2138 397 
Q 2388 397 2633 464 
Q 2878 531 3122 666 
L 3122 134 
Q 2881 22 2623 -34 
Q 2366 -91 2075 -91 
Q 1284 -91 818 406 
Q 353 903 353 1747 
Q 353 2603 823 3093 
Q 1294 3584 2113 3584 
Q 2378 3584 2631 3529 
Q 2884 3475 3122 3366 
z
" transform="scale(0.015625)"/>
       <path id="DejaVuSans-6f" d="M 1959 3097 
Q 1497 3097 1228 2736 
Q 959 2375 959 1747 
Q 959 1119 1226 758 
Q 1494 397 1959 397 
Q 2419 397 2687 759 
Q 2956 1122 2956 1747 
Q 2956 2369 2687 2733 
Q 2419 3097 1959 3097 
z
M 1959 3584 
Q 2709 3584 3137 3096 
Q 3566 2609 3566 1747 
Q 3566 888 3137 398 
Q 2709 -91 1959 -91 
Q 1206 -91 779 398 
Q 353 888 353 1747 
Q 353 2609 779 3096 
Q 1206 3584 1959 3584 
z
" transform="scale(0.015625)"/>
       <path id="DejaVuSans-75" d="M 544 1381 
L 544 3500 
L 1119 3500 
L 1119 1403 
Q 1119 906 1312 657 
Q 1506 409 1894 409 
Q 2359 409 2629 706 
Q 2900 1003 2900 1516 
L 2900 3500 
L 3475 3500 
L 3475 0 
L 2900 0 
L 2900 538 
Q 2691 219 2414 64 
Q 2138 -91 1772 -91 
Q 1169 -91 856 284 
Q 544 659 544 1381 
z
M 1991 3584 
L 1991 3584 
z
" transform="scale(0.015625)"/>
       <path id="DejaVuSans-73" d="M 2834 3397 
L 2834 2853 
Q 2591 2978 2328 3040 
Q 2066 3103 1784 3103 
Q 1356 3103 1142 2972 
Q 928 2841 928 2578 
Q 928 2378 1081 2264 
Q 1234 2150 1697 2047 
L 1894 2003 
Q 2506 1872 2764 1633 
Q 3022 1394 3022 966 
Q 3022 478 2636 193 
Q 2250 -91 1575 -91 
Q 1294 -91 989 -36 
Q 684 19 347 128 
L 347 722 
Q 666 556 975 473 
Q 1284 391 1588 391 
Q 1994 391 2212 530 
Q 2431 669 2431 922 
Q 2431 1156 2273 1281 
Q 2116 1406 1581 1522 
L 1381 1569 
Q 847 1681 609 1914 
Q 372 2147 372 2553 
Q 372 3047 722 3315 
Q 1072 3584 1716 3584 
Q 2034 3584 2315 3537 
Q 2597 3491 2834 3397 
z
" transform="scale(0.015625)"/>
      </defs>
      <use xlink:href="#DejaVuSans-5b"/>
      <use xlink:href="#DejaVuSans-63" transform="translate(39.013672 0)"/>
      <use xlink:href="#DejaVuSans-6f" transform="translate(93.994141 0)"/>
      <use xlink:href="#DejaVuSans-75" transform="translate(155.175781 0)"/>
      <use xlink:href="#DejaVuSans-6e" transform="translate(218.554688 0)"/>
      <use xlink:href="#DejaVuSans-74" transform="translate(281.933594 0)"/>
      <use xlink:href="#DejaVuSans-73" transform="translate(321.142578 0)"/>
      <use xlink:href="#DejaVuSans-5d" transform="translate(373.242188 0)"/>
     </g>
    </g>
   </g>
   <g id="patch_3">
    <path d="M 53.328125 228.96 
L 53.328125 7.2 
" style="fill: none; stroke: #000000; stroke-width: 0.8; stroke-linejoin: miter; stroke-linecap: square"/>
   </g>
   <g id="patch_4">
    <path d="M 388.128125 228.96 
L 388.128125 7.2 
" style="fill: none; stroke: #000000; stroke-width: 0.8; stroke-linejoin: miter; stroke-linecap: square"/>
   </g>
   <g id="patch_5">
    <path d="M 53.328125 228.96 
L 388.128125 228.96 
" style="fill: none; stroke: #000000; stroke-width: 0.8; stroke-linejoin: miter; stroke-linecap: square"/>
   </g>
   <g id="patch_6">
    <path d="M 53.328125 7.2 
L 388.128125 7.2 
" style="fill: none; stroke: #000000; stroke-width: 0.8; stroke-linejoin: miter; stroke-linecap: square"/>
   </g>
   <g id="legend_1">
    <g id="patch_7">
     <path d="M 284.125 44.834375 
L 381.128125 44.834375 
Q 383.128125 44.834375 383.128125 42.834375 
L 383.128125 14.2 
Q 383.128125 12.2 381.128125 12.2 
L 284.125 12.2 
Q 282.125 12.2 282.125 14.2 
L 282.125 42.834375 
Q 282.125 44.834375 284.125 44.834375 
z
" style="fill: #ffffff; opacity: 0.8; stroke: #cccccc; stroke-linejoin: miter"/>
    </g>
    <g id="line2d_16">
     <path d="M 286.125 20.298437 
L 286.125 20.298437 
L 296.125 20.298437 
L 296.125 20.298437 
L 306.125 20.298437 
" style="fill: none; stroke: #1f77b4; stroke-width: 1.5; stroke-linecap: square"/>
    </g>
    <g id="text_18">
     <!-- wfm -->
     <g transform="translate(314.125 23.798437) scale(0.1 -0.1)">
      <defs>
       <path id="DejaVuSans-66" d="M 2375 4863 
L 2375 4384 
L 1825 4384 
Q 1516 4384 1395 4259 
Q 1275 4134 1275 3809 
L 1275 3500 
L 2222 3500 
L 2222 3053 
L 1275 3053 
L 1275 0 
L 697 0 
L 697 3053 
L 147 3053 
L 147 3500 
L 697 3500 
L 697 3744 
Q 697 4328 969 4595 
Q 1241 4863 1831 4863 
L 2375 4863 
z
" transform="scale(0.015625)"/>
       <path id="DejaVuSans-6d" d="M 3328 2828 
Q 3544 3216 3844 3400 
Q 4144 3584 4550 3584 
Q 5097 3584 5394 3201 
Q 5691 2819 5691 2113 
L 5691 0 
L 5113 0 
L 5113 2094 
Q 5113 2597 4934 2840 
Q 4756 3084 4391 3084 
Q 3944 3084 3684 2787 
Q 3425 2491 3425 1978 
L 3425 0 
L 2847 0 
L 2847 2094 
Q 2847 2600 2669 2842 
Q 2491 3084 2119 3084 
Q 1678 3084 1418 2786 
Q 1159 2488 1159 1978 
L 1159 0 
L 581 0 
L 581 3500 
L 1159 3500 
L 1159 2956 
Q 1356 3278 1631 3431 
Q 1906 3584 2284 3584 
Q 2666 3584 2933 3390 
Q 3200 3197 3328 2828 
z
" transform="scale(0.015625)"/>
      </defs>
      <use xlink:href="#DejaVuSans-77"/>
      <use xlink:href="#DejaVuSans-66" transform="translate(81.787109 0)"/>
      <use xlink:href="#DejaVuSans-6d" transform="translate(116.992188 0)"/>
     </g>
    </g>
    <g id="line2d_17">
     <path d="M 286.125 34.976562 
L 286.125 34.976562 
L 296.125 34.976562 
L 296.125 34.976562 
L 306.125 34.976562 
" style="fill: none; stroke: #ff7f0e; stroke-width: 1.5; stroke-linecap: square"/>
    </g>
    <g id="text_19">
     <!-- ground_truth -->
     <g transform="translate(314.125 38.476562) scale(0.1 -0.1)">
      <defs>
       <path id="DejaVuSans-72" d="M 2631 2963 
Q 2534 3019 2420 3045 
Q 2306 3072 2169 3072 
Q 1681 3072 1420 2755 
Q 1159 2438 1159 1844 
L 1159 0 
L 581 0 
L 581 3500 
L 1159 3500 
L 1159 2956 
Q 1341 3275 1631 3429 
Q 1922 3584 2338 3584 
Q 2397 3584 2469 3576 
Q 2541 3569 2628 3553 
L 2631 2963 
z
" transform="scale(0.015625)"/>
       <path id="DejaVuSans-64" d="M 2906 2969 
L 2906 4863 
L 3481 4863 
L 3481 0 
L 2906 0 
L 2906 525 
Q 2725 213 2448 61 
Q 2172 -91 1784 -91 
Q 1150 -91 751 415 
Q 353 922 353 1747 
Q 353 2572 751 3078 
Q 1150 3584 1784 3584 
Q 2172 3584 2448 3432 
Q 2725 3281 2906 2969 
z
M 947 1747 
Q 947 1113 1208 752 
Q 1469 391 1925 391 
Q 2381 391 2643 752 
Q 2906 1113 2906 1747 
Q 2906 2381 2643 2742 
Q 2381 3103 1925 3103 
Q 1469 3103 1208 2742 
Q 947 2381 947 1747 
z
" transform="scale(0.015625)"/>
       <path id="DejaVuSans-5f" d="M 3263 -1063 
L 3263 -1509 
L -63 -1509 
L -63 -1063 
L 3263 -1063 
z
" transform="scale(0.015625)"/>
      </defs>
      <use xlink:href="#DejaVuSans-67"/>
      <use xlink:href="#DejaVuSans-72" transform="translate(63.476562 0)"/>
      <use xlink:href="#DejaVuSans-6f" transform="translate(102.339844 0)"/>
      <use xlink:href="#DejaVuSans-75" transform="translate(163.521484 0)"/>
      <use xlink:href="#DejaVuSans-6e" transform="translate(226.900391 0)"/>
      <use xlink:href="#DejaVuSans-64" transform="translate(290.279297 0)"/>
      <use xlink:href="#DejaVuSans-5f" transform="translate(353.755859 0)"/>
      <use xlink:href="#DejaVuSans-74" transform="translate(403.755859 0)"/>
      <use xlink:href="#DejaVuSans-72" transform="translate(442.964844 0)"/>
      <use xlink:href="#DejaVuSans-75" transform="translate(484.078125 0)"/>
      <use xlink:href="#DejaVuSans-74" transform="translate(547.457031 0)"/>
      <use xlink:href="#DejaVuSans-68" transform="translate(586.666016 0)"/>
     </g>
    </g>
   </g>
   <g id="line2d_18">
    <path d="M 68.546307 218.88 
L 69.560852 218.88 
L 69.560852 202.80881 
L 70.575398 202.80881 
L 70.575398 152.203248 
L 71.589943 152.203248 
L 71.589943 113.781891 
L 72.604489 113.781891 
L 72.604489 104.662425 
L 73.619034 104.662425 
L 73.619034 96.813704 
L 74.63358 96.813704 
L 74.63358 92.47822 
L 75.648125 92.47822 
L 75.648125 87.17099 
L 76.66267 87.17099 
L 76.66267 86.498242 
L 77.677216 86.498242 
L 77.677216 76.40703 
L 79.706307 76.40703 
L 79.706307 68.109811 
L 80.720852 68.109811 
L 80.720852 67.138065 
L 81.735398 67.138065 
L 81.735398 63.774327 
L 82.749943 63.774327 
L 82.749943 53.757864 
L 83.764489 53.757864 
L 83.764489 48.301135 
L 84.779034 48.301135 
L 84.779034 49.347631 
L 85.79358 49.347631 
L 85.79358 36.789677 
L 86.808125 36.789677 
L 86.808125 39.480667 
L 87.82267 39.480667 
L 87.82267 26.548966 
L 88.837216 26.548966 
L 88.837216 26.175217 
L 89.851761 26.175217 
L 89.851761 18.027497 
L 90.866307 18.027497 
L 90.866307 23.484227 
L 91.880852 23.484227 
L 91.880852 26.324716 
L 92.895398 26.324716 
L 92.895398 28.04396 
L 93.909943 28.04396 
L 93.909943 29.389455 
L 94.924489 29.389455 
L 94.924489 25.950968 
L 95.939034 25.950968 
L 95.939034 29.389455 
L 96.95358 29.389455 
L 96.95358 34.472436 
L 97.968125 34.472436 
L 97.968125 40.377664 
L 98.98267 40.377664 
L 98.98267 39.331168 
L 99.997216 39.331168 
L 99.997216 34.771435 
L 101.011761 34.771435 
L 101.011761 42.993904 
L 102.026307 42.993904 
L 102.026307 51.141624 
L 103.040852 51.141624 
L 103.040852 58.616596 
L 104.055398 58.616596 
L 104.055398 71.0998 
L 105.069943 71.0998 
L 105.069943 85.376997 
L 106.084489 85.376997 
L 106.084489 93.001468 
L 107.099034 93.001468 
L 107.099034 99.953192 
L 108.11358 99.953192 
L 108.11358 106.605918 
L 109.128125 106.605918 
L 109.128125 115.725384 
L 110.14267 115.725384 
L 110.14267 129.479333 
L 111.157216 129.479333 
L 111.157216 132.618821 
L 112.171761 132.618821 
L 112.171761 144.279778 
L 113.186307 144.279778 
L 113.186307 149.587008 
L 114.200852 149.587008 
L 114.200852 150.110256 
L 115.215398 150.110256 
L 115.215398 158.855973 
L 116.229943 158.855973 
L 116.229943 168.648187 
L 117.244489 168.648187 
L 117.244489 175.525161 
L 118.259034 175.525161 
L 118.259034 181.430389 
L 119.27358 181.430389 
L 119.27358 185.093126 
L 120.288125 185.093126 
L 120.288125 187.485117 
L 121.30267 187.485117 
L 121.30267 163.864205 
L 122.317216 163.864205 
L 122.317216 147.494016 
L 123.331761 147.494016 
L 123.331761 134.039066 
L 124.346307 134.039066 
L 124.346307 99.130945 
L 125.360852 99.130945 
L 125.360852 93.150968 
L 126.375398 93.150968 
L 126.375398 94.197464 
L 128.404489 94.197464 
L 128.404489 93.524716 
L 129.419034 93.524716 
L 129.419034 92.702469 
L 130.43358 92.702469 
L 130.43358 103.690679 
L 131.448125 103.690679 
L 131.448125 100.775439 
L 132.46267 100.775439 
L 132.46267 99.130945 
L 133.477216 99.130945 
L 133.477216 93.674216 
L 134.491761 93.674216 
L 134.491761 102.195684 
L 135.506307 102.195684 
L 135.506307 103.765428 
L 136.520852 103.765428 
L 136.520852 109.296908 
L 137.535398 109.296908 
L 137.535398 107.129166 
L 138.549943 107.129166 
L 138.549943 102.793682 
L 139.564489 102.793682 
L 139.564489 112.286897 
L 140.579034 112.286897 
L 140.579034 106.456418 
L 141.59358 106.456418 
L 141.59358 113.183893 
L 142.608125 113.183893 
L 142.608125 113.707141 
L 143.62267 113.707141 
L 143.62267 116.77188 
L 144.637216 116.77188 
L 144.637216 114.305139 
L 145.651761 114.305139 
L 145.651761 121.630612 
L 146.666307 121.630612 
L 146.666307 120.883115 
L 147.680852 120.883115 
L 147.680852 122.15386 
L 148.695398 122.15386 
L 148.695398 121.929611 
L 149.709943 121.929611 
L 149.709943 122.602358 
L 150.724489 122.602358 
L 150.724489 123.574105 
L 151.739034 123.574105 
L 151.739034 127.162091 
L 152.75358 127.162091 
L 152.75358 125.592347 
L 153.768125 125.592347 
L 153.768125 127.46109 
L 154.78267 127.46109 
L 154.78267 129.554082 
L 155.797216 129.554082 
L 155.797216 126.788343 
L 156.811761 126.788343 
L 156.811761 132.170323 
L 157.826307 132.170323 
L 157.826307 129.853081 
L 158.840852 129.853081 
L 158.840852 128.956085 
L 159.855398 128.956085 
L 159.855398 133.216819 
L 160.869943 133.216819 
L 160.869943 134.786563 
L 161.884489 134.786563 
L 161.884489 147.643515 
L 162.899034 147.643515 
L 162.899034 149.661758 
L 163.91358 149.661758 
L 163.91358 144.504027 
L 164.928125 144.504027 
L 164.928125 152.875996 
L 165.94267 152.875996 
L 165.94267 149.06376 
L 166.957216 149.06376 
L 166.957216 156.164983 
L 167.971761 156.164983 
L 167.971761 161.546963 
L 168.986307 161.546963 
L 168.986307 162.817709 
L 170.000852 162.817709 
L 170.000852 160.276218 
L 171.015398 160.276218 
L 171.015398 154.44574 
L 172.029943 154.44574 
L 172.029943 149.512258 
L 173.044489 149.512258 
L 173.044489 148.465762 
L 174.059034 148.465762 
L 174.059034 139.047297 
L 175.07358 139.047297 
L 175.07358 133.142069 
L 176.088125 133.142069 
L 176.088125 129.479333 
L 177.10267 129.479333 
L 177.10267 142.336285 
L 178.117216 142.336285 
L 178.117216 146.671769 
L 179.131761 146.671769 
L 179.131761 145.774772 
L 180.146307 145.774772 
L 180.146307 149.288009 
L 181.160852 149.288009 
L 181.160852 156.837731 
L 182.175398 156.837731 
L 182.175398 155.940734 
L 183.189943 155.940734 
L 183.189943 156.98723 
L 184.204489 156.98723 
L 184.204489 157.13673 
L 185.219034 157.13673 
L 185.219034 157.809477 
L 186.23358 157.809477 
L 186.23358 158.332725 
L 187.248125 158.332725 
L 187.248125 156.239733 
L 188.26267 156.239733 
L 188.26267 160.724716 
L 189.277216 160.724716 
L 189.277216 160.948966 
L 190.291761 160.948966 
L 190.291761 162.144961 
L 191.306307 162.144961 
L 191.306307 158.033726 
L 192.320852 158.033726 
L 192.320852 163.938954 
L 193.335398 163.938954 
L 193.335398 165.13495 
L 194.349943 165.13495 
L 194.349943 169.171435 
L 195.364489 169.171435 
L 195.364489 165.583448 
L 196.379034 165.583448 
L 196.379034 169.993682 
L 197.39358 169.993682 
L 197.39358 173.20792 
L 198.408125 173.20792 
L 198.408125 170.36743 
L 199.42267 170.36743 
L 199.42267 174.179666 
L 200.437216 174.179666 
L 200.437216 175.89891 
L 201.451761 175.89891 
L 201.451761 178.814149 
L 202.466307 178.814149 
L 202.466307 180.159644 
L 203.480852 180.159644 
L 203.480852 183.224383 
L 204.495398 183.224383 
L 204.495398 185.317375 
L 205.509943 185.317375 
L 205.509943 194.063092 
L 206.524489 194.063092 
L 206.524489 191.596352 
L 207.539034 191.596352 
L 207.539034 190.475106 
L 208.55358 190.475106 
L 208.55358 190.624605 
L 209.568125 190.624605 
L 209.568125 193.240845 
L 210.58267 193.240845 
L 210.58267 193.838843 
L 211.597216 193.838843 
L 211.597216 192.493348 
L 212.611761 192.493348 
L 212.611761 196.305584 
L 213.626307 196.305584 
L 213.626307 198.847075 
L 214.640852 198.847075 
L 214.640852 195.184338 
L 215.655398 195.184338 
L 215.655398 194.81059 
L 216.669943 194.81059 
L 216.669943 192.269099 
L 217.684489 192.269099 
L 217.684489 191.147853 
L 218.699034 191.147853 
L 218.699034 188.681112 
L 219.71358 188.681112 
L 219.71358 184.794127 
L 220.728125 184.794127 
L 220.728125 182.701135 
L 221.74267 182.701135 
L 221.74267 186.438621 
L 223.771761 186.363871 
L 223.771761 194.362091 
L 224.786307 194.362091 
L 224.786307 191.671101 
L 225.800852 191.671101 
L 225.800852 194.063092 
L 226.815398 194.063092 
L 226.815398 196.679333 
L 227.829943 196.679333 
L 227.829943 195.333838 
L 228.844489 195.333838 
L 228.844489 197.35208 
L 229.859034 197.35208 
L 229.859034 198.174327 
L 230.87358 198.174327 
L 230.87358 198.398576 
L 231.888125 198.398576 
L 231.888125 199.519822 
L 233.917216 199.594572 
L 233.917216 201.837063 
L 234.931761 201.837063 
L 234.931761 200.865317 
L 235.946307 200.865317 
L 235.946307 203.631057 
L 236.960852 203.631057 
L 236.960852 203.107809 
L 237.975398 203.107809 
L 237.975398 202.584561 
L 238.989943 202.584561 
L 238.989943 203.780556 
L 240.004489 203.780556 
L 240.004489 203.631057 
L 241.019034 203.631057 
L 241.019034 205.051301 
L 242.03358 205.051301 
L 242.03358 203.631057 
L 243.048125 203.631057 
L 243.048125 207.518042 
L 245.077216 207.518042 
L 245.077216 211.031279 
L 246.091761 211.031279 
L 246.091761 210.508031 
L 248.120852 210.582781 
L 248.120852 211.106029 
L 249.135398 211.106029 
L 249.135398 211.405028 
L 250.149943 211.405028 
L 250.149943 211.255528 
L 251.164489 211.255528 
L 251.164489 211.778776 
L 252.179034 211.778776 
L 252.179034 212.900022 
L 254.208125 212.900022 
L 254.208125 213.871769 
L 256.237216 213.871769 
L 256.237216 214.544516 
L 257.251761 214.544516 
L 257.251761 212.376774 
L 258.266307 212.376774 
L 258.266307 210.80703 
L 259.280852 210.80703 
L 259.280852 208.415039 
L 260.295398 208.415039 
L 260.295398 208.938287 
L 261.309943 208.938287 
L 261.309943 207.144294 
L 262.324489 207.144294 
L 262.324489 206.546296 
L 263.339034 206.546296 
L 263.339034 204.229055 
L 264.35358 204.229055 
L 264.35358 206.770545 
L 265.368125 206.770545 
L 265.368125 205.126051 
L 266.38267 205.126051 
L 266.38267 205.3503 
L 267.397216 205.3503 
L 267.397216 207.592792 
L 268.411761 207.592792 
L 268.411761 209.312036 
L 269.426307 209.312036 
L 269.426307 207.966541 
L 270.440852 207.966541 
L 270.440852 208.639288 
L 271.455398 208.639288 
L 271.455398 209.685784 
L 272.469943 209.685784 
L 272.469943 209.536285 
L 273.484489 209.536285 
L 273.484489 208.489789 
L 274.499034 208.489789 
L 274.499034 209.611034 
L 275.51358 209.611034 
L 275.51358 211.704027 
L 276.528125 211.704027 
L 276.528125 211.405028 
L 277.54267 211.405028 
L 277.54267 210.508031 
L 278.557216 210.508031 
L 278.557216 211.180779 
L 279.571761 211.180779 
L 279.571761 212.227275 
L 280.586307 212.227275 
L 280.586307 213.199021 
L 281.600852 213.199021 
L 281.600852 212.227275 
L 282.615398 212.227275 
L 282.615398 213.273771 
L 284.644489 213.273771 
L 284.644489 213.946518 
L 285.659034 213.946518 
L 285.659034 214.469766 
L 286.67358 214.469766 
L 286.67358 212.601023 
L 287.688125 212.601023 
L 287.688125 214.993014 
L 289.717216 214.918265 
L 289.717216 215.964761 
L 290.731761 215.964761 
L 290.731761 214.843515 
L 291.746307 214.843515 
L 291.746307 216.039511 
L 292.760852 216.039511 
L 292.760852 216.787008 
L 293.775398 216.787008 
L 293.775398 216.488009 
L 294.789943 216.488009 
L 294.789943 216.861758 
L 295.804489 216.861758 
L 295.804489 216.637508 
L 296.819034 216.637508 
L 296.819034 216.936507 
L 297.83358 216.936507 
L 297.83358 216.787008 
L 298.848125 216.787008 
L 298.848125 215.516263 
L 299.86267 215.516263 
L 299.86267 214.918265 
L 300.877216 214.918265 
L 300.877216 213.946518 
L 301.891761 213.946518 
L 301.891761 212.376774 
L 302.906307 212.376774 
L 302.906307 212.077775 
L 303.920852 212.077775 
L 303.920852 210.73228 
L 305.949943 210.73228 
L 305.949943 206.994794 
L 306.964489 206.994794 
L 306.964489 205.42505 
L 307.979034 205.42505 
L 307.979034 204.827052 
L 308.99358 204.827052 
L 308.99358 203.705806 
L 310.008125 203.705806 
L 310.008125 204.303804 
L 311.02267 204.303804 
L 311.02267 202.88356 
L 314.066307 202.88356 
L 314.066307 204.602803 
L 315.080852 204.602803 
L 315.080852 202.061313 
L 316.095398 202.061313 
L 316.095398 202.80881 
L 317.109943 202.80881 
L 317.109943 202.285562 
L 318.124489 202.285562 
L 318.124489 204.752303 
L 319.139034 204.752303 
L 319.139034 206.322047 
L 320.15358 206.322047 
L 320.15358 202.73406 
L 321.168125 202.73406 
L 321.168125 203.631057 
L 322.18267 203.631057 
L 322.18267 204.752303 
L 323.197216 204.752303 
L 323.197216 205.3503 
L 324.211761 205.3503 
L 324.211761 206.994794 
L 325.226307 206.994794 
L 325.226307 207.891791 
L 326.240852 207.891791 
L 326.240852 206.322047 
L 327.255398 206.322047 
L 327.255398 208.340289 
L 328.269943 208.340289 
L 328.269943 206.621046 
L 329.284489 206.621046 
L 329.284489 207.667542 
L 330.299034 207.667542 
L 330.299034 208.564538 
L 331.31358 208.564538 
L 331.31358 210.358532 
L 332.328125 210.358532 
L 332.328125 208.340289 
L 333.34267 208.340289 
L 333.34267 209.237286 
L 334.357216 209.237286 
L 334.357216 208.489789 
L 335.371761 208.489789 
L 335.371761 210.358532 
L 336.386307 210.358532 
L 336.386307 210.134283 
L 337.400852 210.134283 
L 337.400852 209.910033 
L 338.415398 209.910033 
L 338.415398 209.685784 
L 339.429943 209.685784 
L 339.429943 209.312036 
L 341.459034 209.237286 
L 341.459034 210.657531 
L 342.47358 210.657531 
L 342.47358 211.330278 
L 343.488125 211.330278 
L 343.488125 213.199021 
L 344.50267 213.199021 
L 344.50267 213.42327 
L 345.517216 213.42327 
L 345.517216 213.871769 
L 346.531761 213.871769 
L 346.531761 214.395017 
L 347.546307 214.395017 
L 347.546307 215.516263 
L 349.575398 215.441513 
L 349.575398 216.637508 
L 350.589943 216.637508 
L 350.589943 217.684004 
L 351.604489 217.684004 
L 351.604489 218.581001 
L 352.619034 218.581001 
L 352.619034 218.88 
L 372.909943 218.88 
L 372.909943 218.88 
" clip-path="url(#p30f6d97bb6)" style="fill: none; stroke: #1f77b4; stroke-width: 1.5; stroke-linecap: square"/>
   </g>
   <g id="line2d_19">
    <path d="M 68.546307 211.778776 
L 69.560852 211.778776 
L 69.560852 185.018376 
L 70.575398 185.018376 
L 70.575398 155.566986 
L 71.589943 155.566986 
L 71.589943 132.84307 
L 72.604489 132.84307 
L 72.604489 103.466429 
L 73.619034 103.466429 
L 73.619034 94.496463 
L 74.63358 94.496463 
L 74.63358 94.346963 
L 75.648125 94.346963 
L 75.648125 84.255751 
L 76.66267 84.255751 
L 76.66267 89.637731 
L 77.677216 89.637731 
L 77.677216 81.639511 
L 78.691761 81.639511 
L 78.691761 74.314038 
L 79.706307 74.314038 
L 79.706307 67.362314 
L 80.720852 67.362314 
L 80.720852 61.681335 
L 81.735398 61.681335 
L 81.735398 67.362314 
L 82.749943 67.362314 
L 82.749943 52.18812 
L 83.764489 52.18812 
L 83.764489 48.002136 
L 84.779034 48.002136 
L 84.779034 47.404138 
L 85.79358 47.404138 
L 85.79358 46.581891 
L 86.808125 46.581891 
L 86.808125 29.688454 
L 87.82267 29.688454 
L 87.82267 28.567208 
L 88.837216 28.567208 
L 88.837216 30.361201 
L 89.851761 30.361201 
L 89.851761 17.28 
L 90.866307 17.28 
L 90.866307 22.58723 
L 91.880852 22.58723 
L 91.880852 30.585451 
L 92.895398 30.585451 
L 92.895398 27.371212 
L 93.909943 27.371212 
L 93.909943 26.548966 
L 94.924489 26.548966 
L 94.924489 26.175217 
L 95.939034 26.175217 
L 95.939034 31.407697 
L 96.95358 31.407697 
L 96.95358 37.761424 
L 97.968125 37.761424 
L 97.968125 35.892681 
L 98.98267 35.892681 
L 98.98267 34.248187 
L 99.997216 34.248187 
L 99.997216 42.395907 
L 101.011761 42.395907 
L 101.011761 49.198131 
L 102.026307 49.198131 
L 102.026307 49.870879 
L 103.040852 49.870879 
L 103.040852 59.812592 
L 104.055398 59.812592 
L 104.055398 72.445295 
L 105.069943 72.445295 
L 105.069943 80.144516 
L 106.084489 80.144516 
L 106.084489 93.524716 
L 107.099034 93.524716 
L 107.099034 101.074438 
L 108.11358 101.074438 
L 108.11358 110.717152 
L 109.128125 110.717152 
L 109.128125 113.258643 
L 110.14267 113.258643 
L 110.14267 125.368098 
L 111.157216 125.368098 
L 111.157216 136.132058 
L 112.171761 136.132058 
L 112.171761 141.289789 
L 113.186307 141.289789 
L 113.186307 149.736507 
L 114.200852 149.736507 
L 114.200852 152.502247 
L 115.215398 152.502247 
L 115.215398 158.257976 
L 116.229943 158.257976 
L 116.229943 168.124939 
L 117.244489 168.124939 
L 117.244489 175.97366 
L 118.259034 175.97366 
L 118.259034 179.337397 
L 119.27358 179.337397 
L 119.27358 182.402136 
L 120.288125 182.402136 
L 120.288125 173.880667 
L 121.30267 173.880667 
L 121.30267 159.080222 
L 122.317216 159.080222 
L 122.317216 143.009032 
L 123.331761 143.009032 
L 123.331761 132.618821 
L 124.346307 132.618821 
L 124.346307 114.678888 
L 125.360852 114.678888 
L 125.360852 101.149188 
L 126.375398 101.149188 
L 126.375398 91.506474 
L 127.389943 91.506474 
L 127.389943 89.86198 
L 128.404489 89.86198 
L 128.404489 101.672436 
L 129.419034 101.672436 
L 129.419034 94.047964 
L 130.43358 94.047964 
L 130.43358 95.019711 
L 131.448125 95.019711 
L 131.448125 99.056196 
L 132.46267 99.056196 
L 132.46267 99.355195 
L 133.477216 99.355195 
L 133.477216 103.017931 
L 134.491761 103.017931 
L 134.491761 100.177442 
L 135.506307 100.177442 
L 135.506307 102.270434 
L 136.520852 102.270434 
L 136.520852 103.914928 
L 137.535398 103.914928 
L 137.535398 107.876663 
L 138.549943 107.876663 
L 138.549943 108.026162 
L 139.564489 108.026162 
L 139.564489 108.997909 
L 140.579034 108.997909 
L 140.579034 106.08267 
L 141.59358 106.08267 
L 141.59358 110.119155 
L 142.608125 110.119155 
L 142.608125 116.84663 
L 143.62267 116.84663 
L 143.62267 112.361646 
L 144.637216 112.361646 
L 144.637216 114.977887 
L 145.651761 114.977887 
L 145.651761 121.780111 
L 146.666307 121.780111 
L 146.666307 124.097353 
L 147.680852 124.097353 
L 147.680852 123.424605 
L 148.695398 123.424605 
L 148.695398 114.454638 
L 149.709943 114.454638 
L 149.709943 124.620601 
L 150.724489 124.620601 
L 150.724489 122.976107 
L 151.739034 122.976107 
L 151.739034 126.638843 
L 152.75358 126.638843 
L 152.75358 130.22683 
L 153.768125 130.22683 
L 153.768125 128.657086 
L 154.78267 128.657086 
L 154.78267 134.412814 
L 155.797216 134.412814 
L 155.797216 131.198576 
L 156.811761 131.198576 
L 156.811761 133.142069 
L 157.826307 133.142069 
L 157.826307 135.60881 
L 158.840852 135.60881 
L 158.840852 135.085562 
L 159.855398 135.085562 
L 159.855398 134.188565 
L 160.869943 134.188565 
L 160.869943 135.235061 
L 161.884489 135.235061 
L 161.884489 141.514038 
L 162.899034 141.514038 
L 162.899034 145.176774 
L 163.91358 145.176774 
L 163.91358 147.568765 
L 164.928125 147.568765 
L 164.928125 144.279778 
L 165.94267 144.279778 
L 165.94267 153.025495 
L 166.957216 153.025495 
L 166.957216 155.492236 
L 167.971761 155.492236 
L 167.971761 163.041958 
L 168.986307 163.041958 
L 168.986307 159.902469 
L 170.000852 159.902469 
L 170.000852 154.669989 
L 171.015398 154.669989 
L 171.015398 152.726496 
L 172.029943 152.726496 
L 172.029943 141.514038 
L 173.044489 141.514038 
L 173.044489 144.504027 
L 174.059034 144.504027 
L 174.059034 145.326274 
L 175.07358 145.326274 
L 175.07358 140.617041 
L 176.088125 140.617041 
L 176.088125 136.132058 
L 178.117216 136.132058 
L 178.117216 144.279778 
L 179.131761 144.279778 
L 179.131761 148.241513 
L 180.146307 148.241513 
L 180.146307 151.082002 
L 181.160852 151.082002 
L 181.160852 156.837731 
L 182.175398 156.837731 
L 182.175398 154.29624 
L 183.189943 154.29624 
L 183.189943 152.950745 
L 184.204489 152.950745 
L 184.204489 155.716485 
L 185.219034 155.716485 
L 185.219034 161.397464 
L 186.23358 161.397464 
L 186.23358 154.44574 
L 187.248125 154.44574 
L 187.248125 161.845962 
L 188.26267 161.845962 
L 188.26267 158.706474 
L 189.277216 158.706474 
L 189.277216 156.239733 
L 190.291761 156.239733 
L 190.291761 157.286229 
L 191.306307 157.286229 
L 191.306307 163.789455 
L 192.320852 163.789455 
L 192.320852 165.957197 
L 193.335398 165.957197 
L 193.335398 168.498687 
L 195.364489 168.423938 
L 195.364489 167.975439 
L 196.379034 167.975439 
L 196.379034 171.787675 
L 197.39358 171.787675 
L 197.39358 172.609922 
L 198.408125 172.609922 
L 198.408125 178.4404 
L 199.42267 178.4404 
L 199.42267 175.599911 
L 200.437216 175.599911 
L 200.437216 176.870656 
L 201.451761 176.870656 
L 201.451761 178.290901 
L 202.466307 178.290901 
L 202.466307 181.804138 
L 203.480852 181.804138 
L 203.480852 184.868877 
L 204.495398 184.868877 
L 204.495398 184.569878 
L 205.509943 184.569878 
L 205.509943 185.093126 
L 206.524489 185.093126 
L 206.524489 188.456863 
L 207.539034 188.456863 
L 207.539034 191.372102 
L 208.55358 191.372102 
L 208.55358 189.877108 
L 209.568125 189.877108 
L 209.568125 191.297353 
L 210.58267 191.297353 
L 210.58267 194.960089 
L 211.597216 194.960089 
L 211.597216 193.689344 
L 212.611761 193.689344 
L 212.611761 195.333838 
L 213.626307 195.333838 
L 213.626307 193.913593 
L 214.640852 193.913593 
L 214.640852 195.707586 
L 215.655398 195.707586 
L 215.655398 191.372102 
L 217.684489 191.446852 
L 217.684489 190.848854 
L 218.699034 190.848854 
L 218.699034 187.410367 
L 219.71358 187.410367 
L 219.71358 189.054861 
L 220.728125 189.054861 
L 220.728125 184.943626 
L 221.74267 184.943626 
L 221.74267 187.410367 
L 223.771761 187.485117 
L 223.771761 189.27911 
L 224.786307 189.27911 
L 224.786307 193.091346 
L 225.800852 193.091346 
L 225.800852 195.034839 
L 226.815398 195.034839 
L 226.815398 193.166096 
L 227.829943 193.166096 
L 227.829943 195.707586 
L 228.844489 195.707586 
L 228.844489 196.455083 
L 229.859034 196.455083 
L 229.859034 199.594572 
L 230.87358 199.594572 
L 230.87358 197.202581 
L 231.888125 197.202581 
L 231.888125 201.463315 
L 232.90267 201.463315 
L 232.90267 197.202581 
L 233.917216 197.202581 
L 233.917216 201.837063 
L 234.931761 201.837063 
L 234.931761 201.687564 
L 235.946307 201.687564 
L 235.946307 202.210812 
L 236.960852 202.210812 
L 236.960852 205.200801 
L 237.975398 205.200801 
L 237.975398 203.406808 
L 238.989943 203.406808 
L 238.989943 203.930056 
L 240.004489 203.930056 
L 240.004489 205.275551 
L 241.019034 205.275551 
L 241.019034 204.976552 
L 242.03358 204.976552 
L 242.03358 207.293793 
L 243.048125 207.293793 
L 243.048125 207.443293 
L 244.06267 207.443293 
L 244.06267 208.04129 
L 245.077216 208.04129 
L 245.077216 208.19079 
L 246.091761 208.19079 
L 246.091761 209.162536 
L 247.106307 209.162536 
L 247.106307 209.611034 
L 248.120852 209.611034 
L 248.120852 209.760534 
L 249.135398 209.760534 
L 249.135398 211.554527 
L 250.149943 211.554527 
L 250.149943 210.73228 
L 251.164489 210.73228 
L 251.164489 211.704027 
L 252.179034 211.704027 
L 252.179034 212.152525 
L 253.19358 212.152525 
L 253.19358 214.320267 
L 254.208125 214.320267 
L 254.208125 213.199021 
L 255.22267 213.199021 
L 255.22267 213.348521 
L 256.237216 213.348521 
L 256.237216 213.049522 
L 257.251761 213.049522 
L 257.251761 209.910033 
L 258.266307 209.910033 
L 258.266307 209.760534 
L 259.280852 209.760534 
L 259.280852 208.938287 
L 260.295398 208.938287 
L 260.295398 208.265539 
L 261.309943 208.265539 
L 261.309943 207.368543 
L 262.324489 207.368543 
L 262.324489 208.265539 
L 263.339034 208.265539 
L 263.339034 205.200801 
L 264.35358 205.200801 
L 264.35358 205.798799 
L 265.368125 205.798799 
L 265.368125 206.172547 
L 266.38267 206.172547 
L 266.38267 205.649299 
L 267.397216 205.649299 
L 267.397216 208.415039 
L 268.411761 208.415039 
L 268.411761 207.891791 
L 269.426307 207.891791 
L 269.426307 209.984783 
L 270.440852 209.984783 
L 270.440852 209.087786 
L 271.455398 209.087786 
L 271.455398 208.11604 
L 272.469943 208.11604 
L 272.469943 207.667542 
L 273.484489 207.667542 
L 273.484489 210.73228 
L 274.499034 210.73228 
L 274.499034 209.835284 
L 275.51358 209.835284 
L 275.51358 209.685784 
L 276.528125 209.685784 
L 276.528125 212.302024 
L 277.54267 212.302024 
L 277.54267 211.405028 
L 278.557216 211.405028 
L 278.557216 211.704027 
L 280.586307 211.629277 
L 280.586307 212.750523 
L 281.600852 212.750523 
L 281.600852 213.199021 
L 282.615398 213.199021 
L 282.615398 212.900022 
L 283.629943 212.900022 
L 283.629943 213.273771 
L 284.644489 213.273771 
L 284.644489 213.49802 
L 285.659034 213.49802 
L 285.659034 214.096018 
L 286.67358 214.096018 
L 286.67358 213.647519 
L 287.688125 213.647519 
L 287.688125 213.49802 
L 288.70267 213.49802 
L 288.70267 215.217264 
L 289.717216 215.217264 
L 289.717216 215.441513 
L 290.731761 215.441513 
L 290.731761 215.217264 
L 291.746307 215.217264 
L 291.746307 216.11426 
L 292.760852 216.11426 
L 292.760852 216.861758 
L 293.775398 216.861758 
L 293.775398 216.039511 
L 294.789943 216.039511 
L 294.789943 216.936507 
L 295.804489 216.936507 
L 295.804489 216.26376 
L 296.819034 216.26376 
L 296.819034 216.637508 
L 297.83358 216.637508 
L 297.83358 215.964761 
L 298.848125 215.964761 
L 298.848125 215.665762 
L 299.86267 215.665762 
L 299.86267 214.170768 
L 300.877216 214.170768 
L 300.877216 212.974772 
L 301.891761 212.974772 
L 301.891761 211.479778 
L 302.906307 211.479778 
L 302.906307 210.80703 
L 303.920852 210.80703 
L 303.920852 210.657531 
L 304.935398 210.657531 
L 304.935398 209.312036 
L 305.949943 209.312036 
L 305.949943 207.144294 
L 306.964489 207.144294 
L 306.964489 205.873548 
L 308.99358 205.798799 
L 308.99358 205.574549 
L 310.008125 205.574549 
L 310.008125 206.023048 
L 311.02267 206.023048 
L 311.02267 203.705806 
L 312.037216 203.705806 
L 312.037216 202.88356 
L 313.051761 202.88356 
L 313.051761 203.332058 
L 314.066307 203.332058 
L 314.066307 203.780556 
L 315.080852 203.780556 
L 315.080852 202.65931 
L 316.095398 202.65931 
L 316.095398 203.631057 
L 317.109943 203.631057 
L 317.109943 204.976552 
L 318.124489 204.976552 
L 318.124489 202.360311 
L 319.139034 202.360311 
L 319.139034 204.079555 
L 320.15358 204.079555 
L 320.15358 205.126051 
L 321.168125 205.126051 
L 321.168125 204.453304 
L 322.18267 204.453304 
L 322.18267 205.42505 
L 323.197216 205.42505 
L 323.197216 205.200801 
L 324.211761 205.200801 
L 324.211761 206.247297 
L 325.226307 206.247297 
L 325.226307 206.621046 
L 326.240852 206.621046 
L 326.240852 206.994794 
L 327.255398 206.994794 
L 327.255398 208.564538 
L 328.269943 208.564538 
L 328.269943 209.312036 
L 329.284489 209.312036 
L 329.284489 207.592792 
L 330.299034 207.592792 
L 330.299034 207.293793 
L 331.31358 207.293793 
L 331.31358 208.11604 
L 332.328125 208.11604 
L 332.328125 209.685784 
L 333.34267 209.685784 
L 333.34267 208.415039 
L 334.357216 208.415039 
L 334.357216 207.069544 
L 335.371761 207.069544 
L 335.371761 209.386785 
L 336.386307 209.386785 
L 336.386307 209.984783 
L 337.400852 209.984783 
L 337.400852 210.358532 
L 338.415398 210.358532 
L 338.415398 210.582781 
L 339.429943 210.582781 
L 339.429943 211.704027 
L 340.444489 211.704027 
L 340.444489 210.80703 
L 341.459034 210.80703 
L 341.459034 211.180779 
L 342.47358 211.180779 
L 342.47358 210.657531 
L 343.488125 210.657531 
L 343.488125 212.526274 
L 344.50267 212.526274 
L 344.50267 211.853526 
L 345.517216 211.853526 
L 345.517216 213.722269 
L 347.546307 213.797019 
L 347.546307 215.067764 
L 348.560852 215.067764 
L 348.560852 215.217264 
L 349.575398 215.217264 
L 349.575398 217.833504 
L 350.589943 217.833504 
L 350.589943 217.011257 
L 351.604489 217.011257 
L 351.604489 217.983003 
L 352.619034 217.983003 
L 352.619034 218.431502 
L 353.63358 218.431502 
L 353.63358 218.80525 
L 372.909943 218.88 
L 372.909943 218.88 
" clip-path="url(#p30f6d97bb6)" style="fill: none; stroke: #ff7f0e; stroke-width: 1.5; stroke-linecap: square"/>
   </g>
  </g>
 </g>
 <defs>
  <clipPath id="p30f6d97bb6">
   <rect x="53.328125" y="7.2" width="334.8" height="221.76"/>
  </clipPath>
 </defs>
</svg>
