<?xml version="1.0" encoding="utf-8" standalone="no"?>
<!DOCTYPE svg PUBLIC "-//W3C//DTD SVG 1.1//EN"
  "http://www.w3.org/Graphics/SVG/1.1/DTD/svg11.dtd">
<svg xmlns:xlink="http://www.w3.org/1999/xlink" width="395.328125pt" height="268.200625pt" viewBox="0 0 395.328125 268.200625" xmlns="http://www.w3.org/2000/svg" version="1.1">
 <metadata>
  <rdf:RDF xmlns:dc="http://purl.org/dc/elements/1.1/" xmlns:cc="http://creativecommons.org/ns#" xmlns:rdf="http://www.w3.org/1999/02/22-rdf-syntax-ns#">
   <cc:Work>
    <dc:type rdf:resource="http://purl.org/dc/dcmitype/StillImage"/>
    <dc:date>2025-04-10T08:51:27.270722</dc:date>
    <dc:format>image/svg+xml</dc:format>
    <dc:creator>
     <cc:Agent>
      <dc:title>Matplotlib v3.10.1, https://matplotlib.org/</dc:title>
     </cc:Agent>
    </dc:creator>
   </cc:Work>
  </rdf:RDF>
 </metadata>
 <defs>
  <style type="text/css">*{stroke-linejoin: round; stroke-linecap: butt}</style>
 </defs>
 <g id="figure_1">
  <g id="patch_1">
   <path d="M 0 268.200625 
L 395.328125 268.200625 
L 395.328125 0 
L 0 0 
z
" style="fill: #ffffff"/>
  </g>
  <g id="axes_1">
   <g id="patch_2">
    <path d="M 53.328125 228.96 
L 388.128125 228.96 
L 388.128125 7.2 
L 53.328125 7.2 
z
" style="fill: #ffffff"/>
   </g>
   <g id="matplotlib.axis_1">
    <g id="xtick_1">
     <g id="line2d_1">
      <defs>
       <path id="m666a8bd97e" d="M 0 0 
L 0 3.5 
" style="stroke: #000000; stroke-width: 0.8"/>
      </defs>
      <g>
       <use xlink:href="#m666a8bd97e" x="68.546307" y="228.96" style="stroke: #000000; stroke-width: 0.8"/>
      </g>
     </g>
     <g id="text_1">
      <!-- 2 -->
      <g transform="translate(65.365057 243.558437) scale(0.1 -0.1)">
       <defs>
        <path id="DejaVuSans-32" d="M 1228 531 
L 3431 531 
L 3431 0 
L 469 0 
L 469 531 
Q 828 903 1448 1529 
Q 2069 2156 2228 2338 
Q 2531 2678 2651 2914 
Q 2772 3150 2772 3378 
Q 2772 3750 2511 3984 
Q 2250 4219 1831 4219 
Q 1534 4219 1204 4116 
Q 875 4013 500 3803 
L 500 4441 
Q 881 4594 1212 4672 
Q 1544 4750 1819 4750 
Q 2544 4750 2975 4387 
Q 3406 4025 3406 3419 
Q 3406 3131 3298 2873 
Q 3191 2616 2906 2266 
Q 2828 2175 2409 1742 
Q 1991 1309 1228 531 
z
" transform="scale(0.015625)"/>
       </defs>
       <use xlink:href="#DejaVuSans-32"/>
      </g>
     </g>
    </g>
    <g id="xtick_2">
     <g id="line2d_2">
      <g>
       <use xlink:href="#m666a8bd97e" x="106.591761" y="228.96" style="stroke: #000000; stroke-width: 0.8"/>
      </g>
     </g>
     <g id="text_2">
      <!-- 3 -->
      <g transform="translate(103.410511 243.558437) scale(0.1 -0.1)">
       <defs>
        <path id="DejaVuSans-33" d="M 2597 2516 
Q 3050 2419 3304 2112 
Q 3559 1806 3559 1356 
Q 3559 666 3084 287 
Q 2609 -91 1734 -91 
Q 1441 -91 1130 -33 
Q 819 25 488 141 
L 488 750 
Q 750 597 1062 519 
Q 1375 441 1716 441 
Q 2309 441 2620 675 
Q 2931 909 2931 1356 
Q 2931 1769 2642 2001 
Q 2353 2234 1838 2234 
L 1294 2234 
L 1294 2753 
L 1863 2753 
Q 2328 2753 2575 2939 
Q 2822 3125 2822 3475 
Q 2822 3834 2567 4026 
Q 2313 4219 1838 4219 
Q 1578 4219 1281 4162 
Q 984 4106 628 3988 
L 628 4550 
Q 988 4650 1302 4700 
Q 1616 4750 1894 4750 
Q 2613 4750 3031 4423 
Q 3450 4097 3450 3541 
Q 3450 3153 3228 2886 
Q 3006 2619 2597 2516 
z
" transform="scale(0.015625)"/>
       </defs>
       <use xlink:href="#DejaVuSans-33"/>
      </g>
     </g>
    </g>
    <g id="xtick_3">
     <g id="line2d_3">
      <g>
       <use xlink:href="#m666a8bd97e" x="144.637216" y="228.96" style="stroke: #000000; stroke-width: 0.8"/>
      </g>
     </g>
     <g id="text_3">
      <!-- 4 -->
      <g transform="translate(141.455966 243.558437) scale(0.1 -0.1)">
       <defs>
        <path id="DejaVuSans-34" d="M 2419 4116 
L 825 1625 
L 2419 1625 
L 2419 4116 
z
M 2253 4666 
L 3047 4666 
L 3047 1625 
L 3713 1625 
L 3713 1100 
L 3047 1100 
L 3047 0 
L 2419 0 
L 2419 1100 
L 313 1100 
L 313 1709 
L 2253 4666 
z
" transform="scale(0.015625)"/>
       </defs>
       <use xlink:href="#DejaVuSans-34"/>
      </g>
     </g>
    </g>
    <g id="xtick_4">
     <g id="line2d_4">
      <g>
       <use xlink:href="#m666a8bd97e" x="182.68267" y="228.96" style="stroke: #000000; stroke-width: 0.8"/>
      </g>
     </g>
     <g id="text_4">
      <!-- 5 -->
      <g transform="translate(179.50142 243.558437) scale(0.1 -0.1)">
       <defs>
        <path id="DejaVuSans-35" d="M 691 4666 
L 3169 4666 
L 3169 4134 
L 1269 4134 
L 1269 2991 
Q 1406 3038 1543 3061 
Q 1681 3084 1819 3084 
Q 2600 3084 3056 2656 
Q 3513 2228 3513 1497 
Q 3513 744 3044 326 
Q 2575 -91 1722 -91 
Q 1428 -91 1123 -41 
Q 819 9 494 109 
L 494 744 
Q 775 591 1075 516 
Q 1375 441 1709 441 
Q 2250 441 2565 725 
Q 2881 1009 2881 1497 
Q 2881 1984 2565 2268 
Q 2250 2553 1709 2553 
Q 1456 2553 1204 2497 
Q 953 2441 691 2322 
L 691 4666 
z
" transform="scale(0.015625)"/>
       </defs>
       <use xlink:href="#DejaVuSans-35"/>
      </g>
     </g>
    </g>
    <g id="xtick_5">
     <g id="line2d_5">
      <g>
       <use xlink:href="#m666a8bd97e" x="220.728125" y="228.96" style="stroke: #000000; stroke-width: 0.8"/>
      </g>
     </g>
     <g id="text_5">
      <!-- 6 -->
      <g transform="translate(217.546875 243.558437) scale(0.1 -0.1)">
       <defs>
        <path id="DejaVuSans-36" d="M 2113 2584 
Q 1688 2584 1439 2293 
Q 1191 2003 1191 1497 
Q 1191 994 1439 701 
Q 1688 409 2113 409 
Q 2538 409 2786 701 
Q 3034 994 3034 1497 
Q 3034 2003 2786 2293 
Q 2538 2584 2113 2584 
z
M 3366 4563 
L 3366 3988 
Q 3128 4100 2886 4159 
Q 2644 4219 2406 4219 
Q 1781 4219 1451 3797 
Q 1122 3375 1075 2522 
Q 1259 2794 1537 2939 
Q 1816 3084 2150 3084 
Q 2853 3084 3261 2657 
Q 3669 2231 3669 1497 
Q 3669 778 3244 343 
Q 2819 -91 2113 -91 
Q 1303 -91 875 529 
Q 447 1150 447 2328 
Q 447 3434 972 4092 
Q 1497 4750 2381 4750 
Q 2619 4750 2861 4703 
Q 3103 4656 3366 4563 
z
" transform="scale(0.015625)"/>
       </defs>
       <use xlink:href="#DejaVuSans-36"/>
      </g>
     </g>
    </g>
    <g id="xtick_6">
     <g id="line2d_6">
      <g>
       <use xlink:href="#m666a8bd97e" x="258.77358" y="228.96" style="stroke: #000000; stroke-width: 0.8"/>
      </g>
     </g>
     <g id="text_6">
      <!-- 7 -->
      <g transform="translate(255.59233 243.558437) scale(0.1 -0.1)">
       <defs>
        <path id="DejaVuSans-37" d="M 525 4666 
L 3525 4666 
L 3525 4397 
L 1831 0 
L 1172 0 
L 2766 4134 
L 525 4134 
L 525 4666 
z
" transform="scale(0.015625)"/>
       </defs>
       <use xlink:href="#DejaVuSans-37"/>
      </g>
     </g>
    </g>
    <g id="xtick_7">
     <g id="line2d_7">
      <g>
       <use xlink:href="#m666a8bd97e" x="296.819034" y="228.96" style="stroke: #000000; stroke-width: 0.8"/>
      </g>
     </g>
     <g id="text_7">
      <!-- 8 -->
      <g transform="translate(293.637784 243.558437) scale(0.1 -0.1)">
       <defs>
        <path id="DejaVuSans-38" d="M 2034 2216 
Q 1584 2216 1326 1975 
Q 1069 1734 1069 1313 
Q 1069 891 1326 650 
Q 1584 409 2034 409 
Q 2484 409 2743 651 
Q 3003 894 3003 1313 
Q 3003 1734 2745 1975 
Q 2488 2216 2034 2216 
z
M 1403 2484 
Q 997 2584 770 2862 
Q 544 3141 544 3541 
Q 544 4100 942 4425 
Q 1341 4750 2034 4750 
Q 2731 4750 3128 4425 
Q 3525 4100 3525 3541 
Q 3525 3141 3298 2862 
Q 3072 2584 2669 2484 
Q 3125 2378 3379 2068 
Q 3634 1759 3634 1313 
Q 3634 634 3220 271 
Q 2806 -91 2034 -91 
Q 1263 -91 848 271 
Q 434 634 434 1313 
Q 434 1759 690 2068 
Q 947 2378 1403 2484 
z
M 1172 3481 
Q 1172 3119 1398 2916 
Q 1625 2713 2034 2713 
Q 2441 2713 2670 2916 
Q 2900 3119 2900 3481 
Q 2900 3844 2670 4047 
Q 2441 4250 2034 4250 
Q 1625 4250 1398 4047 
Q 1172 3844 1172 3481 
z
" transform="scale(0.015625)"/>
       </defs>
       <use xlink:href="#DejaVuSans-38"/>
      </g>
     </g>
    </g>
    <g id="xtick_8">
     <g id="line2d_8">
      <g>
       <use xlink:href="#m666a8bd97e" x="334.864489" y="228.96" style="stroke: #000000; stroke-width: 0.8"/>
      </g>
     </g>
     <g id="text_8">
      <!-- 9 -->
      <g transform="translate(331.683239 243.558437) scale(0.1 -0.1)">
       <defs>
        <path id="DejaVuSans-39" d="M 703 97 
L 703 672 
Q 941 559 1184 500 
Q 1428 441 1663 441 
Q 2288 441 2617 861 
Q 2947 1281 2994 2138 
Q 2813 1869 2534 1725 
Q 2256 1581 1919 1581 
Q 1219 1581 811 2004 
Q 403 2428 403 3163 
Q 403 3881 828 4315 
Q 1253 4750 1959 4750 
Q 2769 4750 3195 4129 
Q 3622 3509 3622 2328 
Q 3622 1225 3098 567 
Q 2575 -91 1691 -91 
Q 1453 -91 1209 -44 
Q 966 3 703 97 
z
M 1959 2075 
Q 2384 2075 2632 2365 
Q 2881 2656 2881 3163 
Q 2881 3666 2632 3958 
Q 2384 4250 1959 4250 
Q 1534 4250 1286 3958 
Q 1038 3666 1038 3163 
Q 1038 2656 1286 2365 
Q 1534 2075 1959 2075 
z
" transform="scale(0.015625)"/>
       </defs>
       <use xlink:href="#DejaVuSans-39"/>
      </g>
     </g>
    </g>
    <g id="xtick_9">
     <g id="line2d_9">
      <g>
       <use xlink:href="#m666a8bd97e" x="372.909943" y="228.96" style="stroke: #000000; stroke-width: 0.8"/>
      </g>
     </g>
     <g id="text_9">
      <!-- 10 -->
      <g transform="translate(366.547443 243.558437) scale(0.1 -0.1)">
       <defs>
        <path id="DejaVuSans-31" d="M 794 531 
L 1825 531 
L 1825 4091 
L 703 3866 
L 703 4441 
L 1819 4666 
L 2450 4666 
L 2450 531 
L 3481 531 
L 3481 0 
L 794 0 
L 794 531 
z
" transform="scale(0.015625)"/>
        <path id="DejaVuSans-30" d="M 2034 4250 
Q 1547 4250 1301 3770 
Q 1056 3291 1056 2328 
Q 1056 1369 1301 889 
Q 1547 409 2034 409 
Q 2525 409 2770 889 
Q 3016 1369 3016 2328 
Q 3016 3291 2770 3770 
Q 2525 4250 2034 4250 
z
M 2034 4750 
Q 2819 4750 3233 4129 
Q 3647 3509 3647 2328 
Q 3647 1150 3233 529 
Q 2819 -91 2034 -91 
Q 1250 -91 836 529 
Q 422 1150 422 2328 
Q 422 3509 836 4129 
Q 1250 4750 2034 4750 
z
" transform="scale(0.015625)"/>
       </defs>
       <use xlink:href="#DejaVuSans-31"/>
       <use xlink:href="#DejaVuSans-30" transform="translate(63.623047 0)"/>
      </g>
     </g>
    </g>
    <g id="text_10">
     <!-- wavelength [Å] -->
     <g transform="translate(182.690625 258.920937) scale(0.1 -0.1)">
      <defs>
       <path id="DejaVuSans-77" d="M 269 3500 
L 844 3500 
L 1563 769 
L 2278 3500 
L 2956 3500 
L 3675 769 
L 4391 3500 
L 4966 3500 
L 4050 0 
L 3372 0 
L 2619 2869 
L 1863 0 
L 1184 0 
L 269 3500 
z
" transform="scale(0.015625)"/>
       <path id="DejaVuSans-61" d="M 2194 1759 
Q 1497 1759 1228 1600 
Q 959 1441 959 1056 
Q 959 750 1161 570 
Q 1363 391 1709 391 
Q 2188 391 2477 730 
Q 2766 1069 2766 1631 
L 2766 1759 
L 2194 1759 
z
M 3341 1997 
L 3341 0 
L 2766 0 
L 2766 531 
Q 2569 213 2275 61 
Q 1981 -91 1556 -91 
Q 1019 -91 701 211 
Q 384 513 384 1019 
Q 384 1609 779 1909 
Q 1175 2209 1959 2209 
L 2766 2209 
L 2766 2266 
Q 2766 2663 2505 2880 
Q 2244 3097 1772 3097 
Q 1472 3097 1187 3025 
Q 903 2953 641 2809 
L 641 3341 
Q 956 3463 1253 3523 
Q 1550 3584 1831 3584 
Q 2591 3584 2966 3190 
Q 3341 2797 3341 1997 
z
" transform="scale(0.015625)"/>
       <path id="DejaVuSans-76" d="M 191 3500 
L 800 3500 
L 1894 563 
L 2988 3500 
L 3597 3500 
L 2284 0 
L 1503 0 
L 191 3500 
z
" transform="scale(0.015625)"/>
       <path id="DejaVuSans-65" d="M 3597 1894 
L 3597 1613 
L 953 1613 
Q 991 1019 1311 708 
Q 1631 397 2203 397 
Q 2534 397 2845 478 
Q 3156 559 3463 722 
L 3463 178 
Q 3153 47 2828 -22 
Q 2503 -91 2169 -91 
Q 1331 -91 842 396 
Q 353 884 353 1716 
Q 353 2575 817 3079 
Q 1281 3584 2069 3584 
Q 2775 3584 3186 3129 
Q 3597 2675 3597 1894 
z
M 3022 2063 
Q 3016 2534 2758 2815 
Q 2500 3097 2075 3097 
Q 1594 3097 1305 2825 
Q 1016 2553 972 2059 
L 3022 2063 
z
" transform="scale(0.015625)"/>
       <path id="DejaVuSans-6c" d="M 603 4863 
L 1178 4863 
L 1178 0 
L 603 0 
L 603 4863 
z
" transform="scale(0.015625)"/>
       <path id="DejaVuSans-6e" d="M 3513 2113 
L 3513 0 
L 2938 0 
L 2938 2094 
Q 2938 2591 2744 2837 
Q 2550 3084 2163 3084 
Q 1697 3084 1428 2787 
Q 1159 2491 1159 1978 
L 1159 0 
L 581 0 
L 581 3500 
L 1159 3500 
L 1159 2956 
Q 1366 3272 1645 3428 
Q 1925 3584 2291 3584 
Q 2894 3584 3203 3211 
Q 3513 2838 3513 2113 
z
" transform="scale(0.015625)"/>
       <path id="DejaVuSans-67" d="M 2906 1791 
Q 2906 2416 2648 2759 
Q 2391 3103 1925 3103 
Q 1463 3103 1205 2759 
Q 947 2416 947 1791 
Q 947 1169 1205 825 
Q 1463 481 1925 481 
Q 2391 481 2648 825 
Q 2906 1169 2906 1791 
z
M 3481 434 
Q 3481 -459 3084 -895 
Q 2688 -1331 1869 -1331 
Q 1566 -1331 1297 -1286 
Q 1028 -1241 775 -1147 
L 775 -588 
Q 1028 -725 1275 -790 
Q 1522 -856 1778 -856 
Q 2344 -856 2625 -561 
Q 2906 -266 2906 331 
L 2906 616 
Q 2728 306 2450 153 
Q 2172 0 1784 0 
Q 1141 0 747 490 
Q 353 981 353 1791 
Q 353 2603 747 3093 
Q 1141 3584 1784 3584 
Q 2172 3584 2450 3431 
Q 2728 3278 2906 2969 
L 2906 3500 
L 3481 3500 
L 3481 434 
z
" transform="scale(0.015625)"/>
       <path id="DejaVuSans-74" d="M 1172 4494 
L 1172 3500 
L 2356 3500 
L 2356 3053 
L 1172 3053 
L 1172 1153 
Q 1172 725 1289 603 
Q 1406 481 1766 481 
L 2356 481 
L 2356 0 
L 1766 0 
Q 1100 0 847 248 
Q 594 497 594 1153 
L 594 3053 
L 172 3053 
L 172 3500 
L 594 3500 
L 594 4494 
L 1172 4494 
z
" transform="scale(0.015625)"/>
       <path id="DejaVuSans-68" d="M 3513 2113 
L 3513 0 
L 2938 0 
L 2938 2094 
Q 2938 2591 2744 2837 
Q 2550 3084 2163 3084 
Q 1697 3084 1428 2787 
Q 1159 2491 1159 1978 
L 1159 0 
L 581 0 
L 581 4863 
L 1159 4863 
L 1159 2956 
Q 1366 3272 1645 3428 
Q 1925 3584 2291 3584 
Q 2894 3584 3203 3211 
Q 3513 2838 3513 2113 
z
" transform="scale(0.015625)"/>
       <path id="DejaVuSans-20" transform="scale(0.015625)"/>
       <path id="DejaVuSans-5b" d="M 550 4863 
L 1875 4863 
L 1875 4416 
L 1125 4416 
L 1125 -397 
L 1875 -397 
L 1875 -844 
L 550 -844 
L 550 4863 
z
" transform="scale(0.015625)"/>
       <path id="DejaVuSans-c5" d="M 2663 5081 
Q 2663 5278 2523 5417 
Q 2384 5556 2188 5556 
Q 1988 5556 1852 5420 
Q 1716 5284 1716 5081 
Q 1716 4884 1853 4746 
Q 1991 4609 2188 4609 
Q 2384 4609 2523 4746 
Q 2663 4884 2663 5081 
z
M 2188 4044 
L 1338 1722 
L 3041 1722 
L 2188 4044 
z
M 1716 4366 
Q 1525 4494 1428 4673 
Q 1331 4853 1331 5081 
Q 1331 5441 1579 5691 
Q 1828 5941 2188 5941 
Q 2544 5941 2795 5689 
Q 3047 5438 3047 5081 
Q 3047 4863 2948 4678 
Q 2850 4494 2663 4366 
L 4325 0 
L 3669 0 
L 3244 1197 
L 1141 1197 
L 716 0 
L 50 0 
L 1716 4366 
z
" transform="scale(0.015625)"/>
       <path id="DejaVuSans-5d" d="M 1947 4863 
L 1947 -844 
L 622 -844 
L 622 -397 
L 1369 -397 
L 1369 4416 
L 622 4416 
L 622 4863 
L 1947 4863 
z
" transform="scale(0.015625)"/>
      </defs>
      <use xlink:href="#DejaVuSans-77"/>
      <use xlink:href="#DejaVuSans-61" transform="translate(81.787109 0)"/>
      <use xlink:href="#DejaVuSans-76" transform="translate(143.066406 0)"/>
      <use xlink:href="#DejaVuSans-65" transform="translate(202.246094 0)"/>
      <use xlink:href="#DejaVuSans-6c" transform="translate(263.769531 0)"/>
      <use xlink:href="#DejaVuSans-65" transform="translate(291.552734 0)"/>
      <use xlink:href="#DejaVuSans-6e" transform="translate(353.076172 0)"/>
      <use xlink:href="#DejaVuSans-67" transform="translate(416.455078 0)"/>
      <use xlink:href="#DejaVuSans-74" transform="translate(479.931641 0)"/>
      <use xlink:href="#DejaVuSans-68" transform="translate(519.140625 0)"/>
      <use xlink:href="#DejaVuSans-20" transform="translate(582.519531 0)"/>
      <use xlink:href="#DejaVuSans-5b" transform="translate(614.306641 0)"/>
      <use xlink:href="#DejaVuSans-c5" transform="translate(653.320312 0)"/>
      <use xlink:href="#DejaVuSans-5d" transform="translate(721.728516 0)"/>
     </g>
    </g>
   </g>
   <g id="matplotlib.axis_2">
    <g id="ytick_1">
     <g id="line2d_10">
      <defs>
       <path id="m9d0aa7aafd" d="M 0 0 
L -3.5 0 
" style="stroke: #000000; stroke-width: 0.8"/>
      </defs>
      <g>
       <use xlink:href="#m9d0aa7aafd" x="53.328125" y="218.88" style="stroke: #000000; stroke-width: 0.8"/>
      </g>
     </g>
     <g id="text_11">
      <!-- 0 -->
      <g transform="translate(39.965625 222.679219) scale(0.1 -0.1)">
       <use xlink:href="#DejaVuSans-30"/>
      </g>
     </g>
    </g>
    <g id="ytick_2">
     <g id="line2d_11">
      <g>
       <use xlink:href="#m9d0aa7aafd" x="53.328125" y="181.141325" style="stroke: #000000; stroke-width: 0.8"/>
      </g>
     </g>
     <g id="text_12">
      <!-- 500 -->
      <g transform="translate(27.240625 184.940544) scale(0.1 -0.1)">
       <use xlink:href="#DejaVuSans-35"/>
       <use xlink:href="#DejaVuSans-30" transform="translate(63.623047 0)"/>
       <use xlink:href="#DejaVuSans-30" transform="translate(127.246094 0)"/>
      </g>
     </g>
    </g>
    <g id="ytick_3">
     <g id="line2d_12">
      <g>
       <use xlink:href="#m9d0aa7aafd" x="53.328125" y="143.402651" style="stroke: #000000; stroke-width: 0.8"/>
      </g>
     </g>
     <g id="text_13">
      <!-- 1000 -->
      <g transform="translate(20.878125 147.201869) scale(0.1 -0.1)">
       <use xlink:href="#DejaVuSans-31"/>
       <use xlink:href="#DejaVuSans-30" transform="translate(63.623047 0)"/>
       <use xlink:href="#DejaVuSans-30" transform="translate(127.246094 0)"/>
       <use xlink:href="#DejaVuSans-30" transform="translate(190.869141 0)"/>
      </g>
     </g>
    </g>
    <g id="ytick_4">
     <g id="line2d_13">
      <g>
       <use xlink:href="#m9d0aa7aafd" x="53.328125" y="105.663976" style="stroke: #000000; stroke-width: 0.8"/>
      </g>
     </g>
     <g id="text_14">
      <!-- 1500 -->
      <g transform="translate(20.878125 109.463195) scale(0.1 -0.1)">
       <use xlink:href="#DejaVuSans-31"/>
       <use xlink:href="#DejaVuSans-35" transform="translate(63.623047 0)"/>
       <use xlink:href="#DejaVuSans-30" transform="translate(127.246094 0)"/>
       <use xlink:href="#DejaVuSans-30" transform="translate(190.869141 0)"/>
      </g>
     </g>
    </g>
    <g id="ytick_5">
     <g id="line2d_14">
      <g>
       <use xlink:href="#m9d0aa7aafd" x="53.328125" y="67.925301" style="stroke: #000000; stroke-width: 0.8"/>
      </g>
     </g>
     <g id="text_15">
      <!-- 2000 -->
      <g transform="translate(20.878125 71.72452) scale(0.1 -0.1)">
       <use xlink:href="#DejaVuSans-32"/>
       <use xlink:href="#DejaVuSans-30" transform="translate(63.623047 0)"/>
       <use xlink:href="#DejaVuSans-30" transform="translate(127.246094 0)"/>
       <use xlink:href="#DejaVuSans-30" transform="translate(190.869141 0)"/>
      </g>
     </g>
    </g>
    <g id="ytick_6">
     <g id="line2d_15">
      <g>
       <use xlink:href="#m9d0aa7aafd" x="53.328125" y="30.186627" style="stroke: #000000; stroke-width: 0.8"/>
      </g>
     </g>
     <g id="text_16">
      <!-- 2500 -->
      <g transform="translate(20.878125 33.985845) scale(0.1 -0.1)">
       <use xlink:href="#DejaVuSans-32"/>
       <use xlink:href="#DejaVuSans-35" transform="translate(63.623047 0)"/>
       <use xlink:href="#DejaVuSans-30" transform="translate(127.246094 0)"/>
       <use xlink:href="#DejaVuSans-30" transform="translate(190.869141 0)"/>
      </g>
     </g>
    </g>
    <g id="text_17">
     <!-- [counts] -->
     <g transform="translate(14.798438 138.6925) rotate(-90) scale(0.1 -0.1)">
      <defs>
       <path id="DejaVuSans-63" d="M 3122 3366 
L 3122 2828 
Q 2878 2963 2633 3030 
Q 2388 3097 2138 3097 
Q 1578 3097 1268 2742 
Q 959 2388 959 1747 
Q 959 1106 1268 751 
Q 1578 397 2138 397 
Q 2388 397 2633 464 
Q 2878 531 3122 666 
L 3122 134 
Q 2881 22 2623 -34 
Q 2366 -91 2075 -91 
Q 1284 -91 818 406 
Q 353 903 353 1747 
Q 353 2603 823 3093 
Q 1294 3584 2113 3584 
Q 2378 3584 2631 3529 
Q 2884 3475 3122 3366 
z
" transform="scale(0.015625)"/>
       <path id="DejaVuSans-6f" d="M 1959 3097 
Q 1497 3097 1228 2736 
Q 959 2375 959 1747 
Q 959 1119 1226 758 
Q 1494 397 1959 397 
Q 2419 397 2687 759 
Q 2956 1122 2956 1747 
Q 2956 2369 2687 2733 
Q 2419 3097 1959 3097 
z
M 1959 3584 
Q 2709 3584 3137 3096 
Q 3566 2609 3566 1747 
Q 3566 888 3137 398 
Q 2709 -91 1959 -91 
Q 1206 -91 779 398 
Q 353 888 353 1747 
Q 353 2609 779 3096 
Q 1206 3584 1959 3584 
z
" transform="scale(0.015625)"/>
       <path id="DejaVuSans-75" d="M 544 1381 
L 544 3500 
L 1119 3500 
L 1119 1403 
Q 1119 906 1312 657 
Q 1506 409 1894 409 
Q 2359 409 2629 706 
Q 2900 1003 2900 1516 
L 2900 3500 
L 3475 3500 
L 3475 0 
L 2900 0 
L 2900 538 
Q 2691 219 2414 64 
Q 2138 -91 1772 -91 
Q 1169 -91 856 284 
Q 544 659 544 1381 
z
M 1991 3584 
L 1991 3584 
z
" transform="scale(0.015625)"/>
       <path id="DejaVuSans-73" d="M 2834 3397 
L 2834 2853 
Q 2591 2978 2328 3040 
Q 2066 3103 1784 3103 
Q 1356 3103 1142 2972 
Q 928 2841 928 2578 
Q 928 2378 1081 2264 
Q 1234 2150 1697 2047 
L 1894 2003 
Q 2506 1872 2764 1633 
Q 3022 1394 3022 966 
Q 3022 478 2636 193 
Q 2250 -91 1575 -91 
Q 1294 -91 989 -36 
Q 684 19 347 128 
L 347 722 
Q 666 556 975 473 
Q 1284 391 1588 391 
Q 1994 391 2212 530 
Q 2431 669 2431 922 
Q 2431 1156 2273 1281 
Q 2116 1406 1581 1522 
L 1381 1569 
Q 847 1681 609 1914 
Q 372 2147 372 2553 
Q 372 3047 722 3315 
Q 1072 3584 1716 3584 
Q 2034 3584 2315 3537 
Q 2597 3491 2834 3397 
z
" transform="scale(0.015625)"/>
      </defs>
      <use xlink:href="#DejaVuSans-5b"/>
      <use xlink:href="#DejaVuSans-63" transform="translate(39.013672 0)"/>
      <use xlink:href="#DejaVuSans-6f" transform="translate(93.994141 0)"/>
      <use xlink:href="#DejaVuSans-75" transform="translate(155.175781 0)"/>
      <use xlink:href="#DejaVuSans-6e" transform="translate(218.554688 0)"/>
      <use xlink:href="#DejaVuSans-74" transform="translate(281.933594 0)"/>
      <use xlink:href="#DejaVuSans-73" transform="translate(321.142578 0)"/>
      <use xlink:href="#DejaVuSans-5d" transform="translate(373.242188 0)"/>
     </g>
    </g>
   </g>
   <g id="patch_3">
    <path d="M 53.328125 228.96 
L 53.328125 7.2 
" style="fill: none; stroke: #000000; stroke-width: 0.8; stroke-linejoin: miter; stroke-linecap: square"/>
   </g>
   <g id="patch_4">
    <path d="M 388.128125 228.96 
L 388.128125 7.2 
" style="fill: none; stroke: #000000; stroke-width: 0.8; stroke-linejoin: miter; stroke-linecap: square"/>
   </g>
   <g id="patch_5">
    <path d="M 53.328125 228.96 
L 388.128125 228.96 
" style="fill: none; stroke: #000000; stroke-width: 0.8; stroke-linejoin: miter; stroke-linecap: square"/>
   </g>
   <g id="patch_6">
    <path d="M 53.328125 7.2 
L 388.128125 7.2 
" style="fill: none; stroke: #000000; stroke-width: 0.8; stroke-linejoin: miter; stroke-linecap: square"/>
   </g>
   <g id="line2d_16">
    <path d="M 68.546307 218.88 
L 69.560852 218.88 
L 69.560852 203.256189 
L 70.575398 203.256189 
L 70.575398 154.573298 
L 71.589943 154.573298 
L 71.589943 114.721258 
L 72.604489 114.721258 
L 72.604489 103.85252 
L 73.619034 103.85252 
L 73.619034 95.097147 
L 74.63358 95.097147 
L 74.63358 90.493029 
L 75.648125 90.493029 
L 75.648125 90.266597 
L 76.66267 90.266597 
L 76.66267 86.568207 
L 77.677216 86.568207 
L 77.677216 79.095949 
L 78.691761 79.095949 
L 78.691761 80.982883 
L 79.706307 80.982883 
L 79.706307 71.397259 
L 80.720852 71.397259 
L 80.720852 60.075657 
L 81.735398 60.075657 
L 81.735398 56.528222 
L 82.749943 56.528222 
L 82.749943 54.037469 
L 83.764489 54.037469 
L 83.764489 52.075058 
L 84.779034 52.075058 
L 84.779034 45.584006 
L 85.79358 45.584006 
L 85.79358 35.922905 
L 86.808125 35.922905 
L 86.808125 29.280899 
L 87.82267 29.280899 
L 87.82267 28.148738 
L 88.837216 28.148738 
L 88.837216 21.959596 
L 89.851761 21.959596 
L 89.851761 23.318188 
L 90.866307 23.318188 
L 90.866307 17.28 
L 91.880852 17.28 
L 91.880852 22.487937 
L 92.895398 22.487937 
L 92.895398 18.789547 
L 93.909943 18.789547 
L 93.909943 28.148738 
L 94.924489 28.148738 
L 94.924489 19.921707 
L 95.939034 19.921707 
L 95.939034 27.092055 
L 96.95358 27.092055 
L 96.95358 35.545519 
L 97.968125 35.545519 
L 97.968125 36.375769 
L 98.98267 36.375769 
L 98.98267 39.168431 
L 99.997216 39.168431 
L 99.997216 38.64009 
L 101.011761 38.64009 
L 101.011761 35.017177 
L 102.026307 35.017177 
L 102.026307 47.018076 
L 103.040852 47.018076 
L 103.040852 54.263901 
L 104.055398 54.263901 
L 104.055398 77.058061 
L 105.069943 77.058061 
L 105.069943 83.775545 
L 106.084489 83.775545 
L 106.084489 93.210213 
L 107.099034 93.210213 
L 107.099034 97.059558 
L 108.11358 97.059558 
L 108.11358 104.154429 
L 109.128125 104.154429 
L 109.128125 112.155028 
L 110.14267 112.155028 
L 110.14267 120.683969 
L 111.157216 120.683969 
L 111.157216 131.401752 
L 112.171761 131.401752 
L 112.171761 138.949487 
L 113.186307 138.949487 
L 113.186307 140.760943 
L 114.200852 140.760943 
L 114.200852 155.252595 
L 115.215398 155.252595 
L 115.215398 160.2341 
L 116.229943 160.2341 
L 116.229943 165.592991 
L 117.244489 165.592991 
L 117.244489 170.046155 
L 118.259034 170.046155 
L 118.259034 181.820621 
L 119.27358 181.820621 
L 119.27358 190.274085 
L 120.288125 190.274085 
L 120.288125 188.613583 
L 121.30267 188.613583 
L 121.30267 167.857312 
L 122.317216 167.857312 
L 122.317216 152.53541 
L 123.331761 152.53541 
L 123.331761 130.722456 
L 124.346307 130.722456 
L 124.346307 98.72006 
L 125.360852 98.72006 
L 125.360852 85.436046 
L 126.375398 85.436046 
L 126.375398 86.19082 
L 127.389943 86.19082 
L 127.389943 90.266597 
L 128.404489 90.266597 
L 128.404489 98.644583 
L 129.419034 98.644583 
L 129.419034 95.323579 
L 131.448125 95.399057 
L 131.448125 92.832827 
L 132.46267 92.832827 
L 132.46267 101.814631 
L 134.491761 101.890109 
L 134.491761 104.758248 
L 135.506307 104.758248 
L 135.506307 107.701864 
L 136.520852 107.701864 
L 136.520852 109.966185 
L 137.535398 109.966185 
L 137.535398 109.135934 
L 138.549943 109.135934 
L 138.549943 105.965885 
L 139.564489 105.965885 
L 139.564489 109.890708 
L 140.579034 109.890708 
L 140.579034 116.155328 
L 141.59358 116.155328 
L 141.59358 111.551209 
L 142.608125 111.551209 
L 142.608125 115.174122 
L 143.62267 115.174122 
L 143.62267 111.928596 
L 144.637216 111.928596 
L 144.637216 117.51392 
L 145.651761 117.51392 
L 145.651761 114.796735 
L 146.666307 114.796735 
L 146.666307 119.627286 
L 147.680852 119.627286 
L 147.680852 122.948289 
L 148.695398 122.948289 
L 148.695398 117.664875 
L 149.709943 117.664875 
L 149.709943 122.495425 
L 150.724489 122.495425 
L 150.724489 125.21261 
L 151.739034 125.21261 
L 151.739034 127.627885 
L 152.75358 127.627885 
L 152.75358 128.382658 
L 153.768125 128.382658 
L 153.768125 129.590296 
L 154.78267 129.590296 
L 154.78267 130.571501 
L 155.797216 130.571501 
L 155.797216 129.288386 
L 156.811761 129.288386 
L 156.811761 131.779139 
L 157.826307 131.779139 
L 157.826307 126.722156 
L 158.840852 126.722156 
L 158.840852 133.364163 
L 159.855398 133.364163 
L 159.855398 131.024365 
L 160.869943 131.024365 
L 160.869943 137.666372 
L 161.884489 137.666372 
L 161.884489 146.799131 
L 162.899034 146.799131 
L 162.899034 150.799431 
L 163.91358 150.799431 
L 163.91358 151.780636 
L 164.928125 151.780636 
L 164.928125 154.497821 
L 165.94267 154.497821 
L 165.94267 150.723954 
L 166.957216 150.723954 
L 166.957216 153.365661 
L 167.971761 153.365661 
L 167.971761 157.441438 
L 168.986307 157.441438 
L 168.986307 163.555103 
L 170.000852 163.555103 
L 170.000852 157.516915 
L 171.015398 157.516915 
L 171.015398 154.573298 
L 172.029943 154.573298 
L 172.029943 149.365361 
L 173.044489 149.365361 
L 173.044489 144.685766 
L 174.059034 144.685766 
L 174.059034 136.383257 
L 175.07358 136.383257 
L 175.07358 134.87371 
L 176.088125 134.87371 
L 176.088125 127.325975 
L 177.10267 127.325975 
L 177.10267 139.251396 
L 178.117216 139.251396 
L 178.117216 145.666971 
L 179.131761 145.666971 
L 179.131761 143.478128 
L 180.146307 143.478128 
L 180.146307 150.120135 
L 181.160852 150.120135 
L 181.160852 160.385054 
L 182.175398 160.385054 
L 182.175398 155.479027 
L 183.189943 155.479027 
L 183.189943 156.384755 
L 184.204489 156.384755 
L 184.204489 153.365661 
L 185.219034 153.365661 
L 185.219034 157.894302 
L 186.23358 157.894302 
L 186.23358 158.649075 
L 187.248125 158.649075 
L 187.248125 159.328371 
L 188.26267 159.328371 
L 188.26267 157.064051 
L 189.277216 157.064051 
L 189.277216 165.140127 
L 190.291761 165.140127 
L 190.291761 164.611786 
L 191.306307 164.611786 
L 191.306307 159.781235 
L 193.335398 159.856713 
L 193.335398 166.574197 
L 194.349943 166.574197 
L 194.349943 168.159221 
L 195.364489 168.159221 
L 195.364489 164.913695 
L 196.379034 164.913695 
L 196.379034 174.272887 
L 197.39358 174.272887 
L 197.39358 168.159221 
L 198.408125 168.159221 
L 198.408125 173.442636 
L 199.42267 173.442636 
L 199.42267 176.310775 
L 200.437216 176.310775 
L 200.437216 177.820322 
L 201.451761 177.820322 
L 201.451761 175.933388 
L 202.466307 175.933388 
L 202.466307 182.273486 
L 203.480852 182.273486 
L 203.480852 183.179214 
L 204.495398 183.179214 
L 204.495398 184.084942 
L 205.509943 184.084942 
L 205.509943 192.161018 
L 206.524489 192.161018 
L 206.524489 189.896698 
L 207.539034 189.896698 
L 207.539034 193.519611 
L 208.55358 193.519611 
L 208.55358 194.198907 
L 210.58267 194.198907 
L 210.58267 191.859109 
L 211.597216 191.859109 
L 211.597216 194.651771 
L 212.611761 194.651771 
L 212.611761 197.444433 
L 213.626307 197.444433 
L 213.626307 196.312273 
L 214.640852 196.312273 
L 214.640852 197.218001 
L 215.655398 197.218001 
L 215.655398 193.519611 
L 216.669943 193.519611 
L 216.669943 190.500517 
L 217.684489 190.500517 
L 217.684489 191.104335 
L 218.699034 191.104335 
L 218.699034 188.236196 
L 219.71358 188.236196 
L 219.71358 185.29258 
L 220.728125 185.29258 
L 220.728125 183.254691 
L 221.74267 183.254691 
L 221.74267 185.217102 
L 222.757216 185.217102 
L 222.757216 183.783033 
L 223.771761 183.783033 
L 223.771761 191.859109 
L 224.786307 191.859109 
L 224.786307 193.142224 
L 225.800852 193.142224 
L 225.800852 193.368656 
L 226.815398 193.368656 
L 226.815398 194.425339 
L 227.829943 194.425339 
L 227.829943 195.632976 
L 228.844489 195.632976 
L 228.844489 199.104934 
L 229.859034 199.104934 
L 229.859034 196.614182 
L 230.87358 196.614182 
L 230.87358 197.444433 
L 231.888125 197.444433 
L 231.888125 198.803025 
L 232.90267 198.803025 
L 232.90267 200.614481 
L 233.917216 200.614481 
L 233.917216 200.991868 
L 234.931761 200.991868 
L 234.931761 203.256189 
L 235.946307 203.256189 
L 235.946307 201.2183 
L 236.960852 201.2183 
L 236.960852 203.029757 
L 237.975398 203.029757 
L 237.975398 205.445032 
L 238.989943 205.445032 
L 238.989943 203.709053 
L 240.004489 203.709053 
L 240.004489 203.935485 
L 241.019034 203.935485 
L 241.019034 205.067645 
L 242.03358 205.067645 
L 242.03358 207.331966 
L 243.048125 207.331966 
L 243.048125 207.633875 
L 244.06267 207.633875 
L 244.06267 208.388648 
L 245.077216 208.388648 
L 245.077216 208.766035 
L 246.091761 208.766035 
L 246.091761 210.426537 
L 248.120852 210.426537 
L 248.120852 209.822718 
L 249.135398 209.822718 
L 249.135398 211.936084 
L 250.149943 211.936084 
L 250.149943 212.162516 
L 251.164489 212.162516 
L 251.164489 211.860607 
L 252.179034 211.860607 
L 252.179034 212.011561 
L 253.19358 212.011561 
L 253.19358 213.219199 
L 254.208125 213.219199 
L 254.208125 213.445631 
L 255.22267 213.445631 
L 255.22267 214.04945 
L 257.251761 213.973972 
L 257.251761 214.577791 
L 258.266307 214.577791 
L 258.266307 209.822718 
L 259.280852 209.822718 
L 259.280852 207.78483 
L 260.295398 207.78483 
L 260.295398 207.331966 
L 261.309943 207.331966 
L 261.309943 208.162216 
L 262.324489 208.162216 
L 262.324489 206.652669 
L 263.339034 206.652669 
L 263.339034 204.463826 
L 264.35358 204.463826 
L 264.35358 206.879101 
L 265.368125 206.879101 
L 265.368125 205.445032 
L 266.38267 205.445032 
L 266.38267 206.577192 
L 267.397216 206.577192 
L 267.397216 206.199805 
L 268.411761 206.199805 
L 268.411761 208.086739 
L 269.426307 208.086739 
L 269.426307 208.539603 
L 270.440852 208.539603 
L 270.440852 209.369854 
L 271.455398 209.369854 
L 271.455398 208.766035 
L 273.484489 208.690558 
L 273.484489 209.596286 
L 274.499034 209.596286 
L 274.499034 209.822718 
L 275.51358 209.822718 
L 275.51358 211.030356 
L 276.528125 211.030356 
L 276.528125 210.879401 
L 277.54267 210.879401 
L 277.54267 212.162516 
L 278.557216 212.162516 
L 278.557216 211.785129 
L 279.571761 211.785129 
L 279.571761 212.539903 
L 280.586307 212.539903 
L 280.586307 211.105833 
L 281.600852 211.105833 
L 281.600852 213.294676 
L 282.615398 213.294676 
L 282.615398 213.068244 
L 283.629943 213.068244 
L 283.629943 213.898495 
L 284.644489 213.898495 
L 284.644489 214.728746 
L 285.659034 214.728746 
L 285.659034 213.898495 
L 286.67358 213.898495 
L 286.67358 214.04945 
L 287.688125 214.04945 
L 287.688125 214.577791 
L 289.717216 214.502314 
L 289.717216 214.955178 
L 290.731761 214.955178 
L 290.731761 214.804223 
L 291.746307 214.804223 
L 291.746307 216.691157 
L 293.775398 216.61568 
L 293.775398 216.389247 
L 294.789943 216.389247 
L 294.789943 216.842112 
L 295.804489 216.842112 
L 295.804489 216.993066 
L 297.83358 217.068544 
L 297.83358 215.558997 
L 298.848125 215.558997 
L 298.848125 216.087338 
L 299.86267 216.087338 
L 299.86267 215.483519 
L 300.877216 215.483519 
L 300.877216 213.370154 
L 301.891761 213.370154 
L 301.891761 212.690857 
L 302.906307 212.690857 
L 302.906307 211.407742 
L 303.920852 211.407742 
L 303.920852 210.879401 
L 304.935398 210.879401 
L 304.935398 209.369854 
L 305.949943 209.369854 
L 305.949943 206.879101 
L 306.964489 206.879101 
L 306.964489 204.614781 
L 307.979034 204.614781 
L 307.979034 203.558098 
L 308.99358 203.558098 
L 308.99358 203.935485 
L 310.008125 203.935485 
L 310.008125 203.180711 
L 311.02267 203.180711 
L 311.02267 204.010962 
L 312.037216 204.010962 
L 312.037216 205.067645 
L 313.051761 205.067645 
L 313.051761 203.558098 
L 314.066307 203.558098 
L 314.066307 204.08644 
L 315.080852 204.08644 
L 315.080852 203.558098 
L 316.095398 203.558098 
L 316.095398 203.256189 
L 317.109943 203.256189 
L 317.109943 205.897896 
L 319.139034 205.822419 
L 319.139034 204.237394 
L 320.15358 204.237394 
L 320.15358 205.595987 
L 321.168125 205.595987 
L 321.168125 204.08644 
L 323.197216 204.08644 
L 323.197216 204.91669 
L 324.211761 204.91669 
L 324.211761 205.143122 
L 325.226307 205.143122 
L 325.226307 204.388349 
L 326.240852 204.388349 
L 326.240852 205.595987 
L 328.269943 205.671464 
L 328.269943 206.879101 
L 329.284489 206.879101 
L 329.284489 206.501715 
L 330.299034 206.501715 
L 330.299034 208.388648 
L 331.31358 208.388648 
L 331.31358 208.539603 
L 332.328125 208.539603 
L 332.328125 210.502014 
L 333.34267 210.502014 
L 333.34267 210.35106 
L 334.357216 210.35106 
L 334.357216 209.218899 
L 335.371761 209.218899 
L 335.371761 209.067945 
L 336.386307 209.067945 
L 336.386307 209.596286 
L 337.400852 209.596286 
L 337.400852 210.728446 
L 338.415398 210.728446 
L 338.415398 210.879401 
L 339.429943 210.879401 
L 339.429943 211.558697 
L 340.444489 211.558697 
L 340.444489 211.256788 
L 341.459034 211.256788 
L 341.459034 212.917289 
L 342.47358 212.917289 
L 342.47358 212.766335 
L 345.517216 212.690857 
L 345.517216 212.917289 
L 346.531761 212.917289 
L 346.531761 214.04945 
L 347.546307 214.04945 
L 347.546307 215.483519 
L 348.560852 215.483519 
L 348.560852 215.936383 
L 349.575398 215.936383 
L 349.575398 216.766634 
L 350.589943 216.766634 
L 350.589943 217.521408 
L 351.604489 217.521408 
L 351.604489 218.729045 
L 352.619034 218.729045 
L 352.619034 218.88 
L 372.909943 218.88 
L 372.909943 218.88 
" clip-path="url(#p4d14be7115)" style="fill: none; stroke: #1f77b4; stroke-width: 1.5; stroke-linecap: square"/>
   </g>
  </g>
 </g>
 <defs>
  <clipPath id="p4d14be7115">
   <rect x="53.328125" y="7.2" width="334.8" height="221.76"/>
  </clipPath>
 </defs>
</svg>
