<?xml version="1.0" encoding="UTF-8" standalone="no"?>
<!DOCTYPE svg PUBLIC "-//W3C//DTD SVG 1.1//EN"
 "http://www.w3.org/Graphics/SVG/1.1/DTD/svg11.dtd">
<!-- Generated by graphviz version 2.43.0 (0)
 -->
<!-- Title: %3 Pages: 1 -->
<svg width="1063pt" height="169pt"
 viewBox="0.00 0.00 1062.50 169.00" xmlns="http://www.w3.org/2000/svg" xmlns:xlink="http://www.w3.org/1999/xlink">
<g id="graph0" class="graph" transform="scale(1 1) rotate(0) translate(4 165)">
<title>%3</title>
<polygon fill="white" stroke="transparent" points="-4,4 -4,-165 1058.5,-165 1058.5,4 -4,4"/>
<!-- DetectorData[SampleRun] -->
<g id="node1" class="node">
<title>DetectorData[SampleRun]</title>
<polygon fill="none" stroke="black" points="279,-97 74,-97 74,-74 279,-74 279,-97"/>
<text text-anchor="middle" x="176.5" y="-81.8" font-family="Times,serif" font-size="14.00">DetectorData[SampleRun]</text>
</g>
<!-- DetectorTofData[SampleRun] -->
<g id="node3" class="node">
<title>DetectorTofData[SampleRun]</title>
<polygon fill="none" stroke="black" points="613,-33 386,-33 386,0 613,0 613,-33"/>
<text text-anchor="start" x="394" y="-18.8" font-family="Times,serif" font-size="14.00">DetectorTofData[SampleRun]</text>
<text text-anchor="start" x="409.5" y="-7.2" font-family="Times,serif" font-size="11.00">via:</text>
<text text-anchor="start" x="430.5" y="-7.2" font-family="Times,serif" font-style="italic" font-size="11.00">detector_time_of_flight_data</text>
</g>
<!-- DetectorData[SampleRun]&#45;&gt;DetectorTofData[SampleRun] -->
<g id="edge1" class="edge">
<title>DetectorData[SampleRun]&#45;&gt;DetectorTofData[SampleRun]</title>
<path fill="none" stroke="black" d="M227.32,-73.96C277.46,-63.56 355,-47.47 414.51,-35.13"/>
<polygon fill="black" stroke="black" points="415.57,-38.48 424.65,-33.03 414.15,-31.63 415.57,-38.48"/>
</g>
<!-- DetectorLtotal[SampleRun] -->
<g id="node2" class="node">
<title>DetectorLtotal[SampleRun]</title>
<polygon fill="none" stroke="black" points="499,-97 286,-97 286,-74 499,-74 499,-97"/>
<text text-anchor="middle" x="392.5" y="-81.8" font-family="Times,serif" font-size="14.00">DetectorLtotal[SampleRun]</text>
</g>
<!-- DetectorLtotal[SampleRun]&#45;&gt;DetectorTofData[SampleRun] -->
<g id="edge3" class="edge">
<title>DetectorLtotal[SampleRun]&#45;&gt;DetectorTofData[SampleRun]</title>
<path fill="none" stroke="black" d="M409.69,-73.74C424.79,-64.28 447.18,-50.26 465.84,-38.58"/>
<polygon fill="black" stroke="black" points="467.75,-41.51 474.37,-33.23 464.04,-35.58 467.75,-41.51"/>
</g>
<!-- TimeOfFlightLookupTable -->
<g id="node4" class="node">
<title>TimeOfFlightLookupTable</title>
<polygon fill="none" stroke="black" points="707,-102 506,-102 506,-69 707,-69 707,-102"/>
<text text-anchor="start" x="514" y="-87.8" font-family="Times,serif" font-size="14.00">TimeOfFlightLookupTable</text>
<text text-anchor="start" x="523.5" y="-76.2" font-family="Times,serif" font-size="11.00">via:</text>
<text text-anchor="start" x="544.5" y="-76.2" font-family="Times,serif" font-style="italic" font-size="11.00">compute_tof_lookup_table</text>
</g>
<!-- TimeOfFlightLookupTable&#45;&gt;DetectorTofData[SampleRun] -->
<g id="edge2" class="edge">
<title>TimeOfFlightLookupTable&#45;&gt;DetectorTofData[SampleRun]</title>
<path fill="none" stroke="black" d="M581.68,-68.96C567.34,-59.98 549.08,-48.55 533.42,-38.74"/>
<polygon fill="black" stroke="black" points="534.89,-35.53 524.55,-33.19 531.17,-41.46 534.89,-35.53"/>
</g>
<!-- PulseStrideOffset -->
<g id="node5" class="node">
<title>PulseStrideOffset</title>
<polygon fill="none" stroke="black" points="857,-97 714,-97 714,-74 857,-74 857,-97"/>
<text text-anchor="middle" x="785.5" y="-81.8" font-family="Times,serif" font-size="14.00">PulseStrideOffset</text>
</g>
<!-- PulseStrideOffset&#45;&gt;DetectorTofData[SampleRun] -->
<g id="edge4" class="edge">
<title>PulseStrideOffset&#45;&gt;DetectorTofData[SampleRun]</title>
<path fill="none" stroke="black" d="M740.5,-73.96C696.38,-63.62 628.3,-47.67 575.73,-35.36"/>
<polygon fill="black" stroke="black" points="576.31,-31.9 565.77,-33.03 574.71,-38.71 576.31,-31.9"/>
</g>
<!-- DistanceResolution -->
<g id="node6" class="node">
<title>DistanceResolution</title>
<polygon fill="none" stroke="black" points="155,-161 0,-161 0,-138 155,-138 155,-161"/>
<text text-anchor="middle" x="77.5" y="-145.8" font-family="Times,serif" font-size="14.00">DistanceResolution</text>
</g>
<!-- DistanceResolution&#45;&gt;TimeOfFlightLookupTable -->
<g id="edge7" class="edge">
<title>DistanceResolution&#45;&gt;TimeOfFlightLookupTable</title>
<path fill="none" stroke="black" d="M155.1,-138.4C156.24,-138.27 157.37,-138.13 158.5,-138 307.47,-120.53 347.71,-121.16 495.99,-102.68"/>
<polygon fill="black" stroke="black" points="496.43,-106.15 505.92,-101.44 495.56,-99.21 496.43,-106.15"/>
</g>
<!-- LookupTableRelativeErrorThreshold -->
<g id="node7" class="node">
<title>LookupTableRelativeErrorThreshold</title>
<polygon fill="none" stroke="black" points="437,-161 162,-161 162,-138 437,-138 437,-161"/>
<text text-anchor="middle" x="299.5" y="-145.8" font-family="Times,serif" font-size="14.00">LookupTableRelativeErrorThreshold</text>
</g>
<!-- LookupTableRelativeErrorThreshold&#45;&gt;TimeOfFlightLookupTable -->
<g id="edge11" class="edge">
<title>LookupTableRelativeErrorThreshold&#45;&gt;TimeOfFlightLookupTable</title>
<path fill="none" stroke="black" d="M351.58,-137.98C397.56,-128.7 465.51,-114.97 519.7,-104.03"/>
<polygon fill="black" stroke="black" points="520.54,-107.43 529.65,-102.02 519.15,-100.57 520.54,-107.43"/>
</g>
<!-- LtotalRange -->
<g id="node8" class="node">
<title>LtotalRange</title>
<polygon fill="none" stroke="black" points="548.5,-161 444.5,-161 444.5,-138 548.5,-138 548.5,-161"/>
<text text-anchor="middle" x="496.5" y="-145.8" font-family="Times,serif" font-size="14.00">LtotalRange</text>
</g>
<!-- LtotalRange&#45;&gt;TimeOfFlightLookupTable -->
<g id="edge6" class="edge">
<title>LtotalRange&#45;&gt;TimeOfFlightLookupTable</title>
<path fill="none" stroke="black" d="M515.16,-137.98C530.12,-129.55 551.57,-117.46 569.93,-107.11"/>
<polygon fill="black" stroke="black" points="571.66,-110.16 578.65,-102.2 568.22,-104.06 571.66,-110.16"/>
</g>
<!-- PulsePeriod -->
<g id="node9" class="node">
<title>PulsePeriod</title>
<polygon fill="none" stroke="black" points="657,-161 556,-161 556,-138 657,-138 657,-161"/>
<text text-anchor="middle" x="606.5" y="-145.8" font-family="Times,serif" font-size="14.00">PulsePeriod</text>
</g>
<!-- PulsePeriod&#45;&gt;TimeOfFlightLookupTable -->
<g id="edge9" class="edge">
<title>PulsePeriod&#45;&gt;TimeOfFlightLookupTable</title>
<path fill="none" stroke="black" d="M606.5,-137.98C606.5,-130.93 606.5,-121.32 606.5,-112.31"/>
<polygon fill="black" stroke="black" points="610,-112.2 606.5,-102.2 603,-112.2 610,-112.2"/>
</g>
<!-- PulseStride -->
<g id="node10" class="node">
<title>PulseStride</title>
<polygon fill="none" stroke="black" points="764.5,-161 664.5,-161 664.5,-138 764.5,-138 764.5,-161"/>
<text text-anchor="middle" x="714.5" y="-145.8" font-family="Times,serif" font-size="14.00">PulseStride</text>
</g>
<!-- PulseStride&#45;&gt;TimeOfFlightLookupTable -->
<g id="edge10" class="edge">
<title>PulseStride&#45;&gt;TimeOfFlightLookupTable</title>
<path fill="none" stroke="black" d="M696.18,-137.98C681.62,-129.63 660.81,-117.68 642.9,-107.4"/>
<polygon fill="black" stroke="black" points="644.26,-104.14 633.84,-102.2 640.77,-110.21 644.26,-104.14"/>
</g>
<!-- SimulationResults -->
<g id="node11" class="node">
<title>SimulationResults</title>
<polygon fill="none" stroke="black" points="919,-161 772,-161 772,-138 919,-138 919,-161"/>
<text text-anchor="middle" x="845.5" y="-145.8" font-family="Times,serif" font-size="14.00">SimulationResults</text>
</g>
<!-- SimulationResults&#45;&gt;TimeOfFlightLookupTable -->
<g id="edge5" class="edge">
<title>SimulationResults&#45;&gt;TimeOfFlightLookupTable</title>
<path fill="none" stroke="black" d="M804.96,-137.98C769.82,-128.87 718.19,-115.47 676.4,-104.63"/>
<polygon fill="black" stroke="black" points="677.12,-101.2 666.56,-102.08 675.36,-107.98 677.12,-101.2"/>
</g>
<!-- TimeResolution -->
<g id="node12" class="node">
<title>TimeResolution</title>
<polygon fill="none" stroke="black" points="1054.5,-161 926.5,-161 926.5,-138 1054.5,-138 1054.5,-161"/>
<text text-anchor="middle" x="990.5" y="-145.8" font-family="Times,serif" font-size="14.00">TimeResolution</text>
</g>
<!-- TimeResolution&#45;&gt;TimeOfFlightLookupTable -->
<g id="edge8" class="edge">
<title>TimeResolution&#45;&gt;TimeOfFlightLookupTable</title>
<path fill="none" stroke="black" d="M926.23,-138.12C868.03,-128.73 781.17,-114.7 712.67,-103.64"/>
<polygon fill="black" stroke="black" points="713.13,-100.17 702.7,-102.03 712.01,-107.08 713.13,-100.17"/>
</g>
</g>
</svg>
