<?xml version="1.0" encoding="utf-8" standalone="no"?>
<!DOCTYPE svg PUBLIC "-//W3C//DTD SVG 1.1//EN"
  "http://www.w3.org/Graphics/SVG/1.1/DTD/svg11.dtd">
<svg xmlns:xlink="http://www.w3.org/1999/xlink" width="393.936227pt" height="266.51625pt" viewBox="0 0 393.936227 266.51625" xmlns="http://www.w3.org/2000/svg" version="1.1">
 <metadata>
  <rdf:RDF xmlns:dc="http://purl.org/dc/elements/1.1/" xmlns:cc="http://creativecommons.org/ns#" xmlns:rdf="http://www.w3.org/1999/02/22-rdf-syntax-ns#">
   <cc:Work>
    <dc:type rdf:resource="http://purl.org/dc/dcmitype/StillImage"/>
    <dc:date>2025-01-30T11:57:53.382747</dc:date>
    <dc:format>image/svg+xml</dc:format>
    <dc:creator>
     <cc:Agent>
      <dc:title>Matplotlib v3.10.0, https://matplotlib.org/</dc:title>
     </cc:Agent>
    </dc:creator>
   </cc:Work>
  </rdf:RDF>
 </metadata>
 <defs>
  <style type="text/css">*{stroke-linejoin: round; stroke-linecap: butt}</style>
 </defs>
 <g id="figure_1">
  <g id="patch_1">
   <path d="M 0 266.51625 
L 393.936227 266.51625 
L 393.936227 0 
L 0 0 
z
" style="fill: #ffffff"/>
  </g>
  <g id="axes_1">
   <g id="patch_2">
    <path d="M 46.965625 228.96 
L 381.765625 228.96 
L 381.765625 7.2 
L 46.965625 7.2 
z
" style="fill: #ffffff"/>
   </g>
   <g id="matplotlib.axis_1">
    <g id="xtick_1">
     <g id="line2d_1">
      <defs>
       <path id="m24f26e1897" d="M 0 0 
L 0 3.5 
" style="stroke: #000000; stroke-width: 0.8"/>
      </defs>
      <g>
       <use xlink:href="#m24f26e1897" x="72.05605" y="228.96" style="stroke: #000000; stroke-width: 0.8"/>
      </g>
     </g>
     <g id="text_1">
      <!-- 0.02 -->
      <g transform="translate(60.923238 243.558437) scale(0.1 -0.1)">
       <defs>
        <path id="DejaVuSans-30" d="M 2034 4250 
Q 1547 4250 1301 3770 
Q 1056 3291 1056 2328 
Q 1056 1369 1301 889 
Q 1547 409 2034 409 
Q 2525 409 2770 889 
Q 3016 1369 3016 2328 
Q 3016 3291 2770 3770 
Q 2525 4250 2034 4250 
z
M 2034 4750 
Q 2819 4750 3233 4129 
Q 3647 3509 3647 2328 
Q 3647 1150 3233 529 
Q 2819 -91 2034 -91 
Q 1250 -91 836 529 
Q 422 1150 422 2328 
Q 422 3509 836 4129 
Q 1250 4750 2034 4750 
z
" transform="scale(0.015625)"/>
        <path id="DejaVuSans-2e" d="M 684 794 
L 1344 794 
L 1344 0 
L 684 0 
L 684 794 
z
" transform="scale(0.015625)"/>
        <path id="DejaVuSans-32" d="M 1228 531 
L 3431 531 
L 3431 0 
L 469 0 
L 469 531 
Q 828 903 1448 1529 
Q 2069 2156 2228 2338 
Q 2531 2678 2651 2914 
Q 2772 3150 2772 3378 
Q 2772 3750 2511 3984 
Q 2250 4219 1831 4219 
Q 1534 4219 1204 4116 
Q 875 4013 500 3803 
L 500 4441 
Q 881 4594 1212 4672 
Q 1544 4750 1819 4750 
Q 2544 4750 2975 4387 
Q 3406 4025 3406 3419 
Q 3406 3131 3298 2873 
Q 3191 2616 2906 2266 
Q 2828 2175 2409 1742 
Q 1991 1309 1228 531 
z
" transform="scale(0.015625)"/>
       </defs>
       <use xlink:href="#DejaVuSans-30"/>
       <use xlink:href="#DejaVuSans-2e" transform="translate(63.623047 0)"/>
       <use xlink:href="#DejaVuSans-30" transform="translate(95.410156 0)"/>
       <use xlink:href="#DejaVuSans-32" transform="translate(159.033203 0)"/>
      </g>
     </g>
    </g>
    <g id="xtick_2">
     <g id="line2d_2">
      <g>
       <use xlink:href="#m24f26e1897" x="115.419959" y="228.96" style="stroke: #000000; stroke-width: 0.8"/>
      </g>
     </g>
     <g id="text_2">
      <!-- 0.03 -->
      <g transform="translate(104.287147 243.558437) scale(0.1 -0.1)">
       <defs>
        <path id="DejaVuSans-33" d="M 2597 2516 
Q 3050 2419 3304 2112 
Q 3559 1806 3559 1356 
Q 3559 666 3084 287 
Q 2609 -91 1734 -91 
Q 1441 -91 1130 -33 
Q 819 25 488 141 
L 488 750 
Q 750 597 1062 519 
Q 1375 441 1716 441 
Q 2309 441 2620 675 
Q 2931 909 2931 1356 
Q 2931 1769 2642 2001 
Q 2353 2234 1838 2234 
L 1294 2234 
L 1294 2753 
L 1863 2753 
Q 2328 2753 2575 2939 
Q 2822 3125 2822 3475 
Q 2822 3834 2567 4026 
Q 2313 4219 1838 4219 
Q 1578 4219 1281 4162 
Q 984 4106 628 3988 
L 628 4550 
Q 988 4650 1302 4700 
Q 1616 4750 1894 4750 
Q 2613 4750 3031 4423 
Q 3450 4097 3450 3541 
Q 3450 3153 3228 2886 
Q 3006 2619 2597 2516 
z
" transform="scale(0.015625)"/>
       </defs>
       <use xlink:href="#DejaVuSans-30"/>
       <use xlink:href="#DejaVuSans-2e" transform="translate(63.623047 0)"/>
       <use xlink:href="#DejaVuSans-30" transform="translate(95.410156 0)"/>
       <use xlink:href="#DejaVuSans-33" transform="translate(159.033203 0)"/>
      </g>
     </g>
    </g>
    <g id="xtick_3">
     <g id="line2d_3">
      <g>
       <use xlink:href="#m24f26e1897" x="158.783868" y="228.96" style="stroke: #000000; stroke-width: 0.8"/>
      </g>
     </g>
     <g id="text_3">
      <!-- 0.04 -->
      <g transform="translate(147.651056 243.558437) scale(0.1 -0.1)">
       <defs>
        <path id="DejaVuSans-34" d="M 2419 4116 
L 825 1625 
L 2419 1625 
L 2419 4116 
z
M 2253 4666 
L 3047 4666 
L 3047 1625 
L 3713 1625 
L 3713 1100 
L 3047 1100 
L 3047 0 
L 2419 0 
L 2419 1100 
L 313 1100 
L 313 1709 
L 2253 4666 
z
" transform="scale(0.015625)"/>
       </defs>
       <use xlink:href="#DejaVuSans-30"/>
       <use xlink:href="#DejaVuSans-2e" transform="translate(63.623047 0)"/>
       <use xlink:href="#DejaVuSans-30" transform="translate(95.410156 0)"/>
       <use xlink:href="#DejaVuSans-34" transform="translate(159.033203 0)"/>
      </g>
     </g>
    </g>
    <g id="xtick_4">
     <g id="line2d_4">
      <g>
       <use xlink:href="#m24f26e1897" x="202.147777" y="228.96" style="stroke: #000000; stroke-width: 0.8"/>
      </g>
     </g>
     <g id="text_4">
      <!-- 0.05 -->
      <g transform="translate(191.014965 243.558437) scale(0.1 -0.1)">
       <defs>
        <path id="DejaVuSans-35" d="M 691 4666 
L 3169 4666 
L 3169 4134 
L 1269 4134 
L 1269 2991 
Q 1406 3038 1543 3061 
Q 1681 3084 1819 3084 
Q 2600 3084 3056 2656 
Q 3513 2228 3513 1497 
Q 3513 744 3044 326 
Q 2575 -91 1722 -91 
Q 1428 -91 1123 -41 
Q 819 9 494 109 
L 494 744 
Q 775 591 1075 516 
Q 1375 441 1709 441 
Q 2250 441 2565 725 
Q 2881 1009 2881 1497 
Q 2881 1984 2565 2268 
Q 2250 2553 1709 2553 
Q 1456 2553 1204 2497 
Q 953 2441 691 2322 
L 691 4666 
z
" transform="scale(0.015625)"/>
       </defs>
       <use xlink:href="#DejaVuSans-30"/>
       <use xlink:href="#DejaVuSans-2e" transform="translate(63.623047 0)"/>
       <use xlink:href="#DejaVuSans-30" transform="translate(95.410156 0)"/>
       <use xlink:href="#DejaVuSans-35" transform="translate(159.033203 0)"/>
      </g>
     </g>
    </g>
    <g id="xtick_5">
     <g id="line2d_5">
      <g>
       <use xlink:href="#m24f26e1897" x="245.511687" y="228.96" style="stroke: #000000; stroke-width: 0.8"/>
      </g>
     </g>
     <g id="text_5">
      <!-- 0.06 -->
      <g transform="translate(234.378874 243.558437) scale(0.1 -0.1)">
       <defs>
        <path id="DejaVuSans-36" d="M 2113 2584 
Q 1688 2584 1439 2293 
Q 1191 2003 1191 1497 
Q 1191 994 1439 701 
Q 1688 409 2113 409 
Q 2538 409 2786 701 
Q 3034 994 3034 1497 
Q 3034 2003 2786 2293 
Q 2538 2584 2113 2584 
z
M 3366 4563 
L 3366 3988 
Q 3128 4100 2886 4159 
Q 2644 4219 2406 4219 
Q 1781 4219 1451 3797 
Q 1122 3375 1075 2522 
Q 1259 2794 1537 2939 
Q 1816 3084 2150 3084 
Q 2853 3084 3261 2657 
Q 3669 2231 3669 1497 
Q 3669 778 3244 343 
Q 2819 -91 2113 -91 
Q 1303 -91 875 529 
Q 447 1150 447 2328 
Q 447 3434 972 4092 
Q 1497 4750 2381 4750 
Q 2619 4750 2861 4703 
Q 3103 4656 3366 4563 
z
" transform="scale(0.015625)"/>
       </defs>
       <use xlink:href="#DejaVuSans-30"/>
       <use xlink:href="#DejaVuSans-2e" transform="translate(63.623047 0)"/>
       <use xlink:href="#DejaVuSans-30" transform="translate(95.410156 0)"/>
       <use xlink:href="#DejaVuSans-36" transform="translate(159.033203 0)"/>
      </g>
     </g>
    </g>
    <g id="xtick_6">
     <g id="line2d_6">
      <g>
       <use xlink:href="#m24f26e1897" x="288.875596" y="228.96" style="stroke: #000000; stroke-width: 0.8"/>
      </g>
     </g>
     <g id="text_6">
      <!-- 0.07 -->
      <g transform="translate(277.742783 243.558437) scale(0.1 -0.1)">
       <defs>
        <path id="DejaVuSans-37" d="M 525 4666 
L 3525 4666 
L 3525 4397 
L 1831 0 
L 1172 0 
L 2766 4134 
L 525 4134 
L 525 4666 
z
" transform="scale(0.015625)"/>
       </defs>
       <use xlink:href="#DejaVuSans-30"/>
       <use xlink:href="#DejaVuSans-2e" transform="translate(63.623047 0)"/>
       <use xlink:href="#DejaVuSans-30" transform="translate(95.410156 0)"/>
       <use xlink:href="#DejaVuSans-37" transform="translate(159.033203 0)"/>
      </g>
     </g>
    </g>
    <g id="xtick_7">
     <g id="line2d_7">
      <g>
       <use xlink:href="#m24f26e1897" x="332.239505" y="228.96" style="stroke: #000000; stroke-width: 0.8"/>
      </g>
     </g>
     <g id="text_7">
      <!-- 0.08 -->
      <g transform="translate(321.106692 243.558437) scale(0.1 -0.1)">
       <defs>
        <path id="DejaVuSans-38" d="M 2034 2216 
Q 1584 2216 1326 1975 
Q 1069 1734 1069 1313 
Q 1069 891 1326 650 
Q 1584 409 2034 409 
Q 2484 409 2743 651 
Q 3003 894 3003 1313 
Q 3003 1734 2745 1975 
Q 2488 2216 2034 2216 
z
M 1403 2484 
Q 997 2584 770 2862 
Q 544 3141 544 3541 
Q 544 4100 942 4425 
Q 1341 4750 2034 4750 
Q 2731 4750 3128 4425 
Q 3525 4100 3525 3541 
Q 3525 3141 3298 2862 
Q 3072 2584 2669 2484 
Q 3125 2378 3379 2068 
Q 3634 1759 3634 1313 
Q 3634 634 3220 271 
Q 2806 -91 2034 -91 
Q 1263 -91 848 271 
Q 434 634 434 1313 
Q 434 1759 690 2068 
Q 947 2378 1403 2484 
z
M 1172 3481 
Q 1172 3119 1398 2916 
Q 1625 2713 2034 2713 
Q 2441 2713 2670 2916 
Q 2900 3119 2900 3481 
Q 2900 3844 2670 4047 
Q 2441 4250 2034 4250 
Q 1625 4250 1398 4047 
Q 1172 3844 1172 3481 
z
" transform="scale(0.015625)"/>
       </defs>
       <use xlink:href="#DejaVuSans-30"/>
       <use xlink:href="#DejaVuSans-2e" transform="translate(63.623047 0)"/>
       <use xlink:href="#DejaVuSans-30" transform="translate(95.410156 0)"/>
       <use xlink:href="#DejaVuSans-38" transform="translate(159.033203 0)"/>
      </g>
     </g>
    </g>
    <g id="xtick_8">
     <g id="line2d_8">
      <g>
       <use xlink:href="#m24f26e1897" x="375.603414" y="228.96" style="stroke: #000000; stroke-width: 0.8"/>
      </g>
     </g>
     <g id="text_8">
      <!-- 0.09 -->
      <g transform="translate(364.470602 243.558437) scale(0.1 -0.1)">
       <defs>
        <path id="DejaVuSans-39" d="M 703 97 
L 703 672 
Q 941 559 1184 500 
Q 1428 441 1663 441 
Q 2288 441 2617 861 
Q 2947 1281 2994 2138 
Q 2813 1869 2534 1725 
Q 2256 1581 1919 1581 
Q 1219 1581 811 2004 
Q 403 2428 403 3163 
Q 403 3881 828 4315 
Q 1253 4750 1959 4750 
Q 2769 4750 3195 4129 
Q 3622 3509 3622 2328 
Q 3622 1225 3098 567 
Q 2575 -91 1691 -91 
Q 1453 -91 1209 -44 
Q 966 3 703 97 
z
M 1959 2075 
Q 2384 2075 2632 2365 
Q 2881 2656 2881 3163 
Q 2881 3666 2632 3958 
Q 2384 4250 1959 4250 
Q 1534 4250 1286 3958 
Q 1038 3666 1038 3163 
Q 1038 2656 1286 2365 
Q 1534 2075 1959 2075 
z
" transform="scale(0.015625)"/>
       </defs>
       <use xlink:href="#DejaVuSans-30"/>
       <use xlink:href="#DejaVuSans-2e" transform="translate(63.623047 0)"/>
       <use xlink:href="#DejaVuSans-30" transform="translate(95.410156 0)"/>
       <use xlink:href="#DejaVuSans-39" transform="translate(159.033203 0)"/>
      </g>
     </g>
    </g>
    <g id="text_9">
     <!-- tof [s] -->
     <g transform="translate(199.490625 257.236562) scale(0.1 -0.1)">
      <defs>
       <path id="DejaVuSans-74" d="M 1172 4494 
L 1172 3500 
L 2356 3500 
L 2356 3053 
L 1172 3053 
L 1172 1153 
Q 1172 725 1289 603 
Q 1406 481 1766 481 
L 2356 481 
L 2356 0 
L 1766 0 
Q 1100 0 847 248 
Q 594 497 594 1153 
L 594 3053 
L 172 3053 
L 172 3500 
L 594 3500 
L 594 4494 
L 1172 4494 
z
" transform="scale(0.015625)"/>
       <path id="DejaVuSans-6f" d="M 1959 3097 
Q 1497 3097 1228 2736 
Q 959 2375 959 1747 
Q 959 1119 1226 758 
Q 1494 397 1959 397 
Q 2419 397 2687 759 
Q 2956 1122 2956 1747 
Q 2956 2369 2687 2733 
Q 2419 3097 1959 3097 
z
M 1959 3584 
Q 2709 3584 3137 3096 
Q 3566 2609 3566 1747 
Q 3566 888 3137 398 
Q 2709 -91 1959 -91 
Q 1206 -91 779 398 
Q 353 888 353 1747 
Q 353 2609 779 3096 
Q 1206 3584 1959 3584 
z
" transform="scale(0.015625)"/>
       <path id="DejaVuSans-66" d="M 2375 4863 
L 2375 4384 
L 1825 4384 
Q 1516 4384 1395 4259 
Q 1275 4134 1275 3809 
L 1275 3500 
L 2222 3500 
L 2222 3053 
L 1275 3053 
L 1275 0 
L 697 0 
L 697 3053 
L 147 3053 
L 147 3500 
L 697 3500 
L 697 3744 
Q 697 4328 969 4595 
Q 1241 4863 1831 4863 
L 2375 4863 
z
" transform="scale(0.015625)"/>
       <path id="DejaVuSans-20" transform="scale(0.015625)"/>
       <path id="DejaVuSans-5b" d="M 550 4863 
L 1875 4863 
L 1875 4416 
L 1125 4416 
L 1125 -397 
L 1875 -397 
L 1875 -844 
L 550 -844 
L 550 4863 
z
" transform="scale(0.015625)"/>
       <path id="DejaVuSans-73" d="M 2834 3397 
L 2834 2853 
Q 2591 2978 2328 3040 
Q 2066 3103 1784 3103 
Q 1356 3103 1142 2972 
Q 928 2841 928 2578 
Q 928 2378 1081 2264 
Q 1234 2150 1697 2047 
L 1894 2003 
Q 2506 1872 2764 1633 
Q 3022 1394 3022 966 
Q 3022 478 2636 193 
Q 2250 -91 1575 -91 
Q 1294 -91 989 -36 
Q 684 19 347 128 
L 347 722 
Q 666 556 975 473 
Q 1284 391 1588 391 
Q 1994 391 2212 530 
Q 2431 669 2431 922 
Q 2431 1156 2273 1281 
Q 2116 1406 1581 1522 
L 1381 1569 
Q 847 1681 609 1914 
Q 372 2147 372 2553 
Q 372 3047 722 3315 
Q 1072 3584 1716 3584 
Q 2034 3584 2315 3537 
Q 2597 3491 2834 3397 
z
" transform="scale(0.015625)"/>
       <path id="DejaVuSans-5d" d="M 1947 4863 
L 1947 -844 
L 622 -844 
L 622 -397 
L 1369 -397 
L 1369 4416 
L 622 4416 
L 622 4863 
L 1947 4863 
z
" transform="scale(0.015625)"/>
      </defs>
      <use xlink:href="#DejaVuSans-74"/>
      <use xlink:href="#DejaVuSans-6f" transform="translate(39.208984 0)"/>
      <use xlink:href="#DejaVuSans-66" transform="translate(100.390625 0)"/>
      <use xlink:href="#DejaVuSans-20" transform="translate(135.595703 0)"/>
      <use xlink:href="#DejaVuSans-5b" transform="translate(167.382812 0)"/>
      <use xlink:href="#DejaVuSans-73" transform="translate(206.396484 0)"/>
      <use xlink:href="#DejaVuSans-5d" transform="translate(258.496094 0)"/>
     </g>
    </g>
   </g>
   <g id="matplotlib.axis_2">
    <g id="ytick_1">
     <g id="line2d_9">
      <defs>
       <path id="m2b2994c42d" d="M 0 0 
L -3.5 0 
" style="stroke: #000000; stroke-width: 0.8"/>
      </defs>
      <g>
       <use xlink:href="#m2b2994c42d" x="46.965625" y="219.642193" style="stroke: #000000; stroke-width: 0.8"/>
      </g>
     </g>
     <g id="text_10">
      <!-- 0 -->
      <g transform="translate(33.603125 223.441412) scale(0.1 -0.1)">
       <use xlink:href="#DejaVuSans-30"/>
      </g>
     </g>
    </g>
    <g id="ytick_2">
     <g id="line2d_10">
      <g>
       <use xlink:href="#m2b2994c42d" x="46.965625" y="181.532552" style="stroke: #000000; stroke-width: 0.8"/>
      </g>
     </g>
     <g id="text_11">
      <!-- 100 -->
      <g transform="translate(20.878125 185.331771) scale(0.1 -0.1)">
       <defs>
        <path id="DejaVuSans-31" d="M 794 531 
L 1825 531 
L 1825 4091 
L 703 3866 
L 703 4441 
L 1819 4666 
L 2450 4666 
L 2450 531 
L 3481 531 
L 3481 0 
L 794 0 
L 794 531 
z
" transform="scale(0.015625)"/>
       </defs>
       <use xlink:href="#DejaVuSans-31"/>
       <use xlink:href="#DejaVuSans-30" transform="translate(63.623047 0)"/>
       <use xlink:href="#DejaVuSans-30" transform="translate(127.246094 0)"/>
      </g>
     </g>
    </g>
    <g id="ytick_3">
     <g id="line2d_11">
      <g>
       <use xlink:href="#m2b2994c42d" x="46.965625" y="143.422911" style="stroke: #000000; stroke-width: 0.8"/>
      </g>
     </g>
     <g id="text_12">
      <!-- 200 -->
      <g transform="translate(20.878125 147.22213) scale(0.1 -0.1)">
       <use xlink:href="#DejaVuSans-32"/>
       <use xlink:href="#DejaVuSans-30" transform="translate(63.623047 0)"/>
       <use xlink:href="#DejaVuSans-30" transform="translate(127.246094 0)"/>
      </g>
     </g>
    </g>
    <g id="ytick_4">
     <g id="line2d_12">
      <g>
       <use xlink:href="#m2b2994c42d" x="46.965625" y="105.31327" style="stroke: #000000; stroke-width: 0.8"/>
      </g>
     </g>
     <g id="text_13">
      <!-- 300 -->
      <g transform="translate(20.878125 109.112489) scale(0.1 -0.1)">
       <use xlink:href="#DejaVuSans-33"/>
       <use xlink:href="#DejaVuSans-30" transform="translate(63.623047 0)"/>
       <use xlink:href="#DejaVuSans-30" transform="translate(127.246094 0)"/>
      </g>
     </g>
    </g>
    <g id="ytick_5">
     <g id="line2d_13">
      <g>
       <use xlink:href="#m2b2994c42d" x="46.965625" y="67.203629" style="stroke: #000000; stroke-width: 0.8"/>
      </g>
     </g>
     <g id="text_14">
      <!-- 400 -->
      <g transform="translate(20.878125 71.002848) scale(0.1 -0.1)">
       <use xlink:href="#DejaVuSans-34"/>
       <use xlink:href="#DejaVuSans-30" transform="translate(63.623047 0)"/>
       <use xlink:href="#DejaVuSans-30" transform="translate(127.246094 0)"/>
      </g>
     </g>
    </g>
    <g id="ytick_6">
     <g id="line2d_14">
      <g>
       <use xlink:href="#m2b2994c42d" x="46.965625" y="29.093989" style="stroke: #000000; stroke-width: 0.8"/>
      </g>
     </g>
     <g id="text_15">
      <!-- 500 -->
      <g transform="translate(20.878125 32.893207) scale(0.1 -0.1)">
       <use xlink:href="#DejaVuSans-35"/>
       <use xlink:href="#DejaVuSans-30" transform="translate(63.623047 0)"/>
       <use xlink:href="#DejaVuSans-30" transform="translate(127.246094 0)"/>
      </g>
     </g>
    </g>
    <g id="text_16">
     <!-- [counts] -->
     <g transform="translate(14.798438 138.6925) rotate(-90) scale(0.1 -0.1)">
      <defs>
       <path id="DejaVuSans-63" d="M 3122 3366 
L 3122 2828 
Q 2878 2963 2633 3030 
Q 2388 3097 2138 3097 
Q 1578 3097 1268 2742 
Q 959 2388 959 1747 
Q 959 1106 1268 751 
Q 1578 397 2138 397 
Q 2388 397 2633 464 
Q 2878 531 3122 666 
L 3122 134 
Q 2881 22 2623 -34 
Q 2366 -91 2075 -91 
Q 1284 -91 818 406 
Q 353 903 353 1747 
Q 353 2603 823 3093 
Q 1294 3584 2113 3584 
Q 2378 3584 2631 3529 
Q 2884 3475 3122 3366 
z
" transform="scale(0.015625)"/>
       <path id="DejaVuSans-75" d="M 544 1381 
L 544 3500 
L 1119 3500 
L 1119 1403 
Q 1119 906 1312 657 
Q 1506 409 1894 409 
Q 2359 409 2629 706 
Q 2900 1003 2900 1516 
L 2900 3500 
L 3475 3500 
L 3475 0 
L 2900 0 
L 2900 538 
Q 2691 219 2414 64 
Q 2138 -91 1772 -91 
Q 1169 -91 856 284 
Q 544 659 544 1381 
z
M 1991 3584 
L 1991 3584 
z
" transform="scale(0.015625)"/>
       <path id="DejaVuSans-6e" d="M 3513 2113 
L 3513 0 
L 2938 0 
L 2938 2094 
Q 2938 2591 2744 2837 
Q 2550 3084 2163 3084 
Q 1697 3084 1428 2787 
Q 1159 2491 1159 1978 
L 1159 0 
L 581 0 
L 581 3500 
L 1159 3500 
L 1159 2956 
Q 1366 3272 1645 3428 
Q 1925 3584 2291 3584 
Q 2894 3584 3203 3211 
Q 3513 2838 3513 2113 
z
" transform="scale(0.015625)"/>
      </defs>
      <use xlink:href="#DejaVuSans-5b"/>
      <use xlink:href="#DejaVuSans-63" transform="translate(39.013672 0)"/>
      <use xlink:href="#DejaVuSans-6f" transform="translate(93.994141 0)"/>
      <use xlink:href="#DejaVuSans-75" transform="translate(155.175781 0)"/>
      <use xlink:href="#DejaVuSans-6e" transform="translate(218.554688 0)"/>
      <use xlink:href="#DejaVuSans-74" transform="translate(281.933594 0)"/>
      <use xlink:href="#DejaVuSans-73" transform="translate(321.142578 0)"/>
      <use xlink:href="#DejaVuSans-5d" transform="translate(373.242188 0)"/>
     </g>
    </g>
   </g>
   <g id="patch_3">
    <path d="M 46.965625 228.96 
L 46.965625 7.2 
" style="fill: none; stroke: #000000; stroke-width: 0.8; stroke-linejoin: miter; stroke-linecap: square"/>
   </g>
   <g id="patch_4">
    <path d="M 381.765625 228.96 
L 381.765625 7.2 
" style="fill: none; stroke: #000000; stroke-width: 0.8; stroke-linejoin: miter; stroke-linecap: square"/>
   </g>
   <g id="patch_5">
    <path d="M 46.965625 228.96 
L 381.765625 228.96 
" style="fill: none; stroke: #000000; stroke-width: 0.8; stroke-linejoin: miter; stroke-linecap: square"/>
   </g>
   <g id="patch_6">
    <path d="M 46.965625 7.2 
L 381.765625 7.2 
" style="fill: none; stroke: #000000; stroke-width: 0.8; stroke-linejoin: miter; stroke-linecap: square"/>
   </g>
   <g id="line2d_15">
    <path d="M 62.183807 216.212325 
L 63.198352 216.212325 
L 63.198352 212.020265 
L 64.212898 212.020265 
L 64.212898 209.733686 
L 65.227443 209.733686 
L 65.227443 198.300794 
L 66.241989 198.300794 
L 66.241989 190.297769 
L 67.256534 190.297769 
L 67.256534 198.68189 
L 68.27108 198.68189 
L 68.27108 187.630095 
L 69.285625 187.630095 
L 69.285625 184.581323 
L 70.30017 184.581323 
L 70.30017 181.913648 
L 71.314716 181.913648 
L 71.314716 180.770359 
L 72.329261 180.770359 
L 72.329261 167.431985 
L 73.343807 167.431985 
L 73.343807 174.29172 
L 74.358352 174.29172 
L 74.358352 172.386238 
L 75.372898 172.386238 
L 75.372898 151.044839 
L 76.387443 151.044839 
L 76.387443 149.90155 
L 77.401989 149.90155 
L 77.401989 148.377164 
L 78.416534 148.377164 
L 78.416534 142.279622 
L 79.43108 142.279622 
L 79.43108 133.895501 
L 80.445625 133.895501 
L 80.445625 132.371115 
L 81.46017 132.371115 
L 81.46017 116.746163 
L 82.474716 116.746163 
L 82.474716 126.273573 
L 83.489261 126.273573 
L 83.489261 123.986994 
L 84.503807 123.986994 
L 84.503807 113.697391 
L 85.518352 113.697391 
L 85.518352 106.837656 
L 86.532898 106.837656 
L 86.532898 99.977921 
L 87.547443 99.977921 
L 87.547443 91.212703 
L 88.561989 91.212703 
L 88.561989 101.502306 
L 89.576534 101.502306 
L 89.576534 86.25845 
L 90.59108 86.25845 
L 90.59108 90.069414 
L 91.605625 90.069414 
L 91.605625 80.9231 
L 92.62017 80.9231 
L 92.62017 87.401739 
L 94.649261 87.401739 
L 94.649261 78.255425 
L 95.663807 78.255425 
L 95.663807 74.444461 
L 96.678352 74.444461 
L 96.678352 58.819509 
L 97.692898 58.819509 
L 97.692898 72.920076 
L 98.707443 72.920076 
L 98.707443 63.011569 
L 99.721989 63.011569 
L 99.721989 64.917051 
L 100.736534 64.917051 
L 100.736534 68.728015 
L 101.75108 68.728015 
L 101.75108 62.630473 
L 102.765625 62.630473 
L 102.765625 59.581701 
L 103.78017 59.581701 
L 103.78017 44.718941 
L 104.794716 44.718941 
L 104.794716 28.712892 
L 105.809261 28.712892 
L 105.809261 53.103062 
L 106.823807 53.103062 
L 106.823807 59.581701 
L 107.838352 59.581701 
L 107.838352 36.715917 
L 108.852898 36.715917 
L 108.852898 44.718941 
L 109.867443 44.718941 
L 109.867443 38.240302 
L 110.881989 38.240302 
L 110.881989 30.618374 
L 111.896534 30.618374 
L 111.896534 45.100038 
L 112.91108 45.100038 
L 112.91108 37.47811 
L 113.925625 37.47811 
L 113.925625 39.383592 
L 114.94017 39.383592 
L 114.94017 19.566578 
L 115.954716 19.566578 
L 115.954716 35.191531 
L 116.969261 35.191531 
L 116.969261 17.28 
L 117.983807 17.28 
L 117.983807 45.100038 
L 118.998352 45.100038 
L 118.998352 54.627448 
L 120.012898 54.627448 
L 120.012898 37.097013 
L 121.027443 37.097013 
L 121.027443 33.667146 
L 122.041989 33.667146 
L 122.041989 61.106087 
L 123.056534 61.106087 
L 123.056534 58.438412 
L 124.07108 58.438412 
L 124.07108 55.770737 
L 125.085625 55.770737 
L 125.085625 43.956749 
L 126.10017 43.956749 
L 126.10017 40.907977 
L 127.114716 40.907977 
L 127.114716 36.715917 
L 128.129261 36.715917 
L 128.129261 58.438412 
L 129.143807 58.438412 
L 129.143807 53.865255 
L 130.158352 53.865255 
L 130.158352 65.298147 
L 131.172898 65.298147 
L 131.172898 64.917051 
L 132.187443 64.917051 
L 132.187443 61.487183 
L 133.201989 61.487183 
L 133.201989 47.767713 
L 134.216534 47.767713 
L 134.216534 60.343894 
L 135.23108 60.343894 
L 135.23108 70.252401 
L 136.245625 70.252401 
L 136.245625 58.819509 
L 137.26017 58.819509 
L 137.26017 83.971871 
L 138.274716 83.971871 
L 138.274716 60.343894 
L 140.303807 60.343894 
L 140.303807 80.9231 
L 141.318352 80.9231 
L 141.318352 58.438412 
L 142.332898 58.438412 
L 142.332898 72.920076 
L 143.347443 72.920076 
L 143.347443 67.584726 
L 144.361989 67.584726 
L 144.361989 71.776786 
L 145.376534 71.776786 
L 145.376534 67.965822 
L 146.39108 67.965822 
L 146.39108 58.819509 
L 147.405625 58.819509 
L 147.405625 80.9231 
L 148.42017 80.9231 
L 148.42017 78.255425 
L 149.434716 78.255425 
L 149.434716 61.86828 
L 150.449261 61.86828 
L 150.449261 75.968847 
L 151.463807 75.968847 
L 151.463807 82.066389 
L 152.478352 82.066389 
L 152.478352 79.779811 
L 153.492898 79.779811 
L 153.492898 75.58775 
L 154.507443 75.58775 
L 154.507443 75.206654 
L 155.521989 75.206654 
L 155.521989 61.86828 
L 156.536534 61.86828 
L 156.536534 88.926125 
L 157.55108 88.926125 
L 157.55108 79.017618 
L 158.565625 79.017618 
L 158.565625 66.06034 
L 159.58017 66.06034 
L 159.58017 77.112136 
L 160.594716 77.112136 
L 160.594716 88.545028 
L 161.609261 88.545028 
L 161.609261 91.5938 
L 162.623807 91.5938 
L 162.623807 81.685293 
L 163.638352 81.685293 
L 163.638352 68.728015 
L 164.652898 68.728015 
L 164.652898 75.206654 
L 165.667443 75.206654 
L 165.667443 76.349943 
L 166.681989 76.349943 
L 166.681989 63.011569 
L 167.696534 63.011569 
L 167.696534 85.496257 
L 168.71108 85.496257 
L 168.71108 82.447486 
L 169.725625 82.447486 
L 169.725625 63.011569 
L 170.74017 63.011569 
L 170.74017 97.310246 
L 171.754716 97.310246 
L 171.754716 78.255425 
L 172.769261 78.255425 
L 172.769261 93.499282 
L 173.783807 93.499282 
L 173.783807 77.874329 
L 174.798352 77.874329 
L 174.798352 85.496257 
L 175.812898 85.496257 
L 175.812898 90.069414 
L 176.827443 90.069414 
L 176.827443 75.206654 
L 177.841989 75.206654 
L 177.841989 100.359017 
L 178.856534 100.359017 
L 178.856534 97.691342 
L 179.87108 97.691342 
L 179.87108 113.697391 
L 180.885625 113.697391 
L 180.885625 95.78586 
L 181.90017 95.78586 
L 181.90017 101.502306 
L 182.914716 101.502306 
L 182.914716 119.413837 
L 183.929261 119.413837 
L 183.929261 109.124234 
L 184.943807 109.124234 
L 184.943807 119.794934 
L 185.958352 119.794934 
L 185.958352 127.797958 
L 186.972898 127.797958 
L 186.972898 137.706465 
L 187.987443 137.706465 
L 187.987443 134.657694 
L 189.001989 134.657694 
L 189.001989 142.660718 
L 190.016534 142.660718 
L 190.016534 152.569225 
L 191.03108 152.569225 
L 191.03108 145.328393 
L 192.045625 145.328393 
L 192.045625 155.2369 
L 193.06017 155.2369 
L 193.06017 147.996068 
L 194.074716 147.996068 
L 194.074716 165.907599 
L 195.089261 165.907599 
L 195.089261 169.337467 
L 196.103807 169.337467 
L 196.103807 165.526503 
L 197.118352 165.526503 
L 197.118352 170.480756 
L 198.132898 170.480756 
L 198.132898 176.959395 
L 199.147443 176.959395 
L 199.147443 183.056938 
L 200.161989 183.056938 
L 200.161989 184.200227 
L 201.176534 184.200227 
L 201.176534 191.822155 
L 202.19108 191.822155 
L 202.19108 196.014216 
L 203.205625 196.014216 
L 203.205625 194.108733 
L 204.22017 194.108733 
L 204.22017 199.444083 
L 206.249261 199.444083 
L 206.249261 207.447108 
L 207.263807 207.447108 
L 207.263807 211.639168 
L 208.278352 211.639168 
L 208.278352 208.971493 
L 209.292898 208.971493 
L 209.292898 211.639168 
L 210.307443 211.639168 
L 210.307443 215.450132 
L 211.321989 215.450132 
L 211.321989 217.736711 
L 212.336534 217.736711 
L 212.336534 218.88 
L 213.35108 218.88 
L 213.35108 214.306843 
L 214.365625 214.306843 
L 214.365625 209.35259 
L 215.38017 209.35259 
L 215.38017 206.684915 
L 216.394716 206.684915 
L 216.394716 199.444083 
L 217.409261 199.444083 
L 217.409261 203.636144 
L 218.423807 203.636144 
L 218.423807 197.538601 
L 219.438352 197.538601 
L 219.438352 195.633119 
L 220.452898 195.633119 
L 220.452898 184.96242 
L 221.467443 184.96242 
L 221.467443 182.675841 
L 222.481989 182.675841 
L 222.481989 188.773384 
L 223.496534 188.773384 
L 223.496534 180.389263 
L 224.51108 180.389263 
L 224.51108 173.910624 
L 225.525625 173.910624 
L 225.525625 171.624045 
L 226.54017 171.624045 
L 226.54017 171.242949 
L 227.554716 171.242949 
L 227.554716 170.480756 
L 228.569261 170.480756 
L 228.569261 160.953346 
L 229.583807 160.953346 
L 229.583807 164.002117 
L 230.598352 164.002117 
L 230.598352 162.858828 
L 231.612898 162.858828 
L 231.612898 157.904575 
L 232.627443 157.904575 
L 232.627443 158.285671 
L 234.656534 158.285671 
L 234.656534 154.093611 
L 235.67108 154.093611 
L 235.67108 145.328393 
L 236.685625 145.328393 
L 236.685625 146.090586 
L 237.70017 146.090586 
L 237.70017 136.182079 
L 238.714716 136.182079 
L 238.714716 141.898526 
L 239.729261 141.898526 
L 239.729261 133.133308 
L 240.743807 133.133308 
L 240.743807 146.471682 
L 241.758352 146.471682 
L 241.758352 135.419887 
L 242.772898 135.419887 
L 242.772898 123.605898 
L 243.787443 123.605898 
L 243.787443 129.70344 
L 244.801989 129.70344 
L 244.801989 114.459584 
L 245.816534 114.459584 
L 245.816534 115.221777 
L 246.83108 115.221777 
L 246.83108 109.505331 
L 247.845625 109.505331 
L 247.845625 110.64862 
L 248.86017 110.64862 
L 248.86017 118.270548 
L 249.874716 118.270548 
L 249.874716 111.029716 
L 250.889261 111.029716 
L 250.889261 111.410813 
L 251.903807 111.410813 
L 251.903807 106.837656 
L 252.918352 106.837656 
L 252.918352 99.977921 
L 253.932898 99.977921 
L 253.932898 108.743138 
L 254.947443 108.743138 
L 254.947443 106.075463 
L 255.961989 106.075463 
L 255.961989 86.25845 
L 256.976534 86.25845 
L 256.976534 114.840681 
L 257.99108 114.840681 
L 257.99108 103.026692 
L 259.005625 103.026692 
L 259.005625 101.502306 
L 260.02017 101.502306 
L 260.02017 95.404764 
L 261.034716 95.404764 
L 261.034716 88.545028 
L 262.049261 88.545028 
L 262.049261 104.932174 
L 263.063807 104.932174 
L 263.063807 86.25845 
L 264.078352 86.25845 
L 264.078352 99.596824 
L 265.092898 99.596824 
L 265.092898 93.499282 
L 266.107443 93.499282 
L 266.107443 103.788885 
L 267.121989 103.788885 
L 267.121989 88.545028 
L 268.136534 88.545028 
L 268.136534 109.124234 
L 269.15108 109.124234 
L 269.15108 107.980945 
L 270.165625 107.980945 
L 270.165625 95.404764 
L 271.18017 95.404764 
L 271.18017 105.694367 
L 272.194716 105.694367 
L 272.194716 106.837656 
L 273.209261 106.837656 
L 273.209261 88.545028 
L 274.223807 88.545028 
L 274.223807 111.029716 
L 275.238352 111.029716 
L 275.238352 115.602873 
L 276.252898 115.602873 
L 276.252898 89.688318 
L 277.267443 89.688318 
L 277.267443 109.886427 
L 278.281989 109.886427 
L 278.281989 117.127259 
L 279.296534 117.127259 
L 279.296534 122.081512 
L 280.31108 122.081512 
L 280.31108 120.938223 
L 281.325625 120.938223 
L 281.325625 112.935198 
L 282.34017 112.935198 
L 282.34017 109.505331 
L 283.354716 109.505331 
L 283.354716 117.889452 
L 284.369261 117.889452 
L 284.369261 113.316295 
L 285.383807 113.316295 
L 285.383807 119.794934 
L 286.398352 119.794934 
L 286.398352 116.746163 
L 287.412898 116.746163 
L 287.412898 111.791909 
L 288.427443 111.791909 
L 288.427443 119.032741 
L 289.441989 119.032741 
L 289.441989 122.462609 
L 290.456534 122.462609 
L 290.456534 103.788885 
L 291.47108 103.788885 
L 291.47108 125.892476 
L 292.485625 125.892476 
L 292.485625 128.179055 
L 293.50017 128.179055 
L 293.50017 122.081512 
L 294.514716 122.081512 
L 294.514716 132.752212 
L 295.529261 132.752212 
L 295.529261 124.749187 
L 296.543807 124.749187 
L 296.543807 122.462609 
L 297.558352 122.462609 
L 297.558352 124.368091 
L 298.572898 124.368091 
L 298.572898 133.514405 
L 299.587443 133.514405 
L 299.587443 138.468658 
L 300.601989 138.468658 
L 300.601989 122.081512 
L 301.616534 122.081512 
L 301.616534 125.130284 
L 302.63108 125.130284 
L 302.63108 140.37414 
L 303.645625 140.37414 
L 303.645625 137.706465 
L 304.66017 137.706465 
L 304.66017 141.898526 
L 305.674716 141.898526 
L 305.674716 137.706465 
L 306.689261 137.706465 
L 306.689261 135.419887 
L 307.703807 135.419887 
L 307.703807 146.852779 
L 308.718352 146.852779 
L 308.718352 134.276597 
L 309.732898 134.276597 
L 309.732898 142.279622 
L 310.747443 142.279622 
L 310.747443 143.422911 
L 311.761989 143.422911 
L 311.761989 149.520454 
L 312.776534 149.520454 
L 312.776534 145.328393 
L 313.79108 145.328393 
L 313.79108 143.804008 
L 315.82017 143.804008 
L 315.82017 144.947297 
L 316.834716 144.947297 
L 316.834716 154.855803 
L 317.849261 154.855803 
L 317.849261 147.996068 
L 318.863807 147.996068 
L 318.863807 147.233875 
L 319.878352 147.233875 
L 319.878352 155.617996 
L 320.892898 155.617996 
L 320.892898 147.614972 
L 321.907443 147.614972 
L 321.907443 157.523478 
L 322.921989 157.523478 
L 322.921989 151.044839 
L 323.936534 151.044839 
L 323.936534 158.285671 
L 324.95108 158.285671 
L 324.95108 162.096635 
L 325.965625 162.096635 
L 325.965625 172.386238 
L 326.98017 172.386238 
L 326.98017 158.285671 
L 327.994716 158.285671 
L 327.994716 164.383214 
L 329.009261 164.383214 
L 329.009261 170.09966 
L 330.023807 170.09966 
L 330.023807 168.194178 
L 331.038352 168.194178 
L 331.038352 165.907599 
L 332.052898 165.907599 
L 332.052898 166.669792 
L 333.067443 166.669792 
L 333.067443 175.816106 
L 334.081989 175.816106 
L 334.081989 174.672817 
L 335.096534 174.672817 
L 335.096534 175.435009 
L 336.11108 175.435009 
L 336.11108 178.483781 
L 337.125625 178.483781 
L 337.125625 179.62707 
L 338.14017 179.62707 
L 338.14017 187.630095 
L 339.154716 187.630095 
L 339.154716 180.008166 
L 340.169261 180.008166 
L 340.169261 181.913648 
L 341.183807 181.913648 
L 341.183807 188.011191 
L 342.198352 188.011191 
L 342.198352 194.870926 
L 343.212898 194.870926 
L 343.212898 185.343516 
L 344.227443 185.343516 
L 344.227443 185.724612 
L 345.241989 185.724612 
L 345.241989 199.062987 
L 346.256534 199.062987 
L 346.256534 195.633119 
L 347.27108 195.633119 
L 347.27108 197.157505 
L 348.285625 197.157505 
L 348.285625 200.206276 
L 349.30017 200.206276 
L 349.30017 203.255047 
L 350.314716 203.255047 
L 350.314716 207.828204 
L 351.329261 207.828204 
L 351.329261 206.684915 
L 352.343807 206.684915 
L 352.343807 207.828204 
L 353.358352 207.828204 
L 353.358352 209.733686 
L 354.372898 209.733686 
L 354.372898 210.876975 
L 355.387443 210.876975 
L 355.387443 212.401361 
L 356.401989 212.401361 
L 356.401989 210.876975 
L 358.43108 210.876975 
L 358.43108 216.593422 
L 359.445625 216.593422 
L 359.445625 215.069036 
L 361.474716 215.069036 
L 361.474716 217.355614 
L 362.489261 217.355614 
L 362.489261 215.831229 
L 363.503807 215.831229 
L 363.503807 217.736711 
L 365.532898 217.736711 
L 365.532898 218.88 
L 366.547443 218.88 
L 366.547443 218.88 
" clip-path="url(#pcdbaedc30e)" style="fill: none; stroke: #1f77b4; stroke-width: 1.5; stroke-linecap: square"/>
   </g>
  </g>
 </g>
 <defs>
  <clipPath id="pcdbaedc30e">
   <rect x="46.965625" y="7.2" width="334.8" height="221.76"/>
  </clipPath>
 </defs>
</svg>
