<?xml version="1.0" encoding="utf-8" standalone="no"?>
<!DOCTYPE svg PUBLIC "-//W3C//DTD SVG 1.1//EN"
  "http://www.w3.org/Graphics/SVG/1.1/DTD/svg11.dtd">
<svg xmlns:xlink="http://www.w3.org/1999/xlink" width="397.31816pt" height="266.51625pt" viewBox="0 0 397.31816 266.51625" xmlns="http://www.w3.org/2000/svg" version="1.1">
 <metadata>
  <rdf:RDF xmlns:dc="http://purl.org/dc/elements/1.1/" xmlns:cc="http://creativecommons.org/ns#" xmlns:rdf="http://www.w3.org/1999/02/22-rdf-syntax-ns#">
   <cc:Work>
    <dc:type rdf:resource="http://purl.org/dc/dcmitype/StillImage"/>
    <dc:date>2025-05-22T08:31:08.045977</dc:date>
    <dc:format>image/svg+xml</dc:format>
    <dc:creator>
     <cc:Agent>
      <dc:title>Matplotlib v3.10.3, https://matplotlib.org/</dc:title>
     </cc:Agent>
    </dc:creator>
   </cc:Work>
  </rdf:RDF>
 </metadata>
 <defs>
  <style type="text/css">*{stroke-linejoin: round; stroke-linecap: butt}</style>
 </defs>
 <g id="figure_1">
  <g id="patch_1">
   <path d="M 0 266.51625 
L 397.31816 266.51625 
L 397.31816 0 
L 0 0 
z
" style="fill: #ffffff"/>
  </g>
  <g id="axes_1">
   <g id="patch_2">
    <path d="M 46.965625 228.96 
L 381.765625 228.96 
L 381.765625 7.2 
L 46.965625 7.2 
z
" style="fill: #ffffff"/>
   </g>
   <g id="matplotlib.axis_1">
    <g id="xtick_1">
     <g id="line2d_1">
      <defs>
       <path id="m75dd4fb1f3" d="M 0 0 
L 0 3.5 
" style="stroke: #000000; stroke-width: 0.8"/>
      </defs>
      <g>
       <use xlink:href="#m75dd4fb1f3" x="71.826651" y="228.96" style="stroke: #000000; stroke-width: 0.8"/>
      </g>
     </g>
     <g id="text_1">
      <!-- 20000 -->
      <g transform="translate(55.920401 243.558437) scale(0.1 -0.1)">
       <defs>
        <path id="DejaVuSans-32" d="M 1228 531 
L 3431 531 
L 3431 0 
L 469 0 
L 469 531 
Q 828 903 1448 1529 
Q 2069 2156 2228 2338 
Q 2531 2678 2651 2914 
Q 2772 3150 2772 3378 
Q 2772 3750 2511 3984 
Q 2250 4219 1831 4219 
Q 1534 4219 1204 4116 
Q 875 4013 500 3803 
L 500 4441 
Q 881 4594 1212 4672 
Q 1544 4750 1819 4750 
Q 2544 4750 2975 4387 
Q 3406 4025 3406 3419 
Q 3406 3131 3298 2873 
Q 3191 2616 2906 2266 
Q 2828 2175 2409 1742 
Q 1991 1309 1228 531 
z
" transform="scale(0.015625)"/>
        <path id="DejaVuSans-30" d="M 2034 4250 
Q 1547 4250 1301 3770 
Q 1056 3291 1056 2328 
Q 1056 1369 1301 889 
Q 1547 409 2034 409 
Q 2525 409 2770 889 
Q 3016 1369 3016 2328 
Q 3016 3291 2770 3770 
Q 2525 4250 2034 4250 
z
M 2034 4750 
Q 2819 4750 3233 4129 
Q 3647 3509 3647 2328 
Q 3647 1150 3233 529 
Q 2819 -91 2034 -91 
Q 1250 -91 836 529 
Q 422 1150 422 2328 
Q 422 3509 836 4129 
Q 1250 4750 2034 4750 
z
" transform="scale(0.015625)"/>
       </defs>
       <use xlink:href="#DejaVuSans-32"/>
       <use xlink:href="#DejaVuSans-30" transform="translate(63.623047 0)"/>
       <use xlink:href="#DejaVuSans-30" transform="translate(127.246094 0)"/>
       <use xlink:href="#DejaVuSans-30" transform="translate(190.869141 0)"/>
       <use xlink:href="#DejaVuSans-30" transform="translate(254.492188 0)"/>
      </g>
     </g>
    </g>
    <g id="xtick_2">
     <g id="line2d_2">
      <g>
       <use xlink:href="#m75dd4fb1f3" x="115.024545" y="228.96" style="stroke: #000000; stroke-width: 0.8"/>
      </g>
     </g>
     <g id="text_2">
      <!-- 30000 -->
      <g transform="translate(99.118295 243.558437) scale(0.1 -0.1)">
       <defs>
        <path id="DejaVuSans-33" d="M 2597 2516 
Q 3050 2419 3304 2112 
Q 3559 1806 3559 1356 
Q 3559 666 3084 287 
Q 2609 -91 1734 -91 
Q 1441 -91 1130 -33 
Q 819 25 488 141 
L 488 750 
Q 750 597 1062 519 
Q 1375 441 1716 441 
Q 2309 441 2620 675 
Q 2931 909 2931 1356 
Q 2931 1769 2642 2001 
Q 2353 2234 1838 2234 
L 1294 2234 
L 1294 2753 
L 1863 2753 
Q 2328 2753 2575 2939 
Q 2822 3125 2822 3475 
Q 2822 3834 2567 4026 
Q 2313 4219 1838 4219 
Q 1578 4219 1281 4162 
Q 984 4106 628 3988 
L 628 4550 
Q 988 4650 1302 4700 
Q 1616 4750 1894 4750 
Q 2613 4750 3031 4423 
Q 3450 4097 3450 3541 
Q 3450 3153 3228 2886 
Q 3006 2619 2597 2516 
z
" transform="scale(0.015625)"/>
       </defs>
       <use xlink:href="#DejaVuSans-33"/>
       <use xlink:href="#DejaVuSans-30" transform="translate(63.623047 0)"/>
       <use xlink:href="#DejaVuSans-30" transform="translate(127.246094 0)"/>
       <use xlink:href="#DejaVuSans-30" transform="translate(190.869141 0)"/>
       <use xlink:href="#DejaVuSans-30" transform="translate(254.492188 0)"/>
      </g>
     </g>
    </g>
    <g id="xtick_3">
     <g id="line2d_3">
      <g>
       <use xlink:href="#m75dd4fb1f3" x="158.222439" y="228.96" style="stroke: #000000; stroke-width: 0.8"/>
      </g>
     </g>
     <g id="text_3">
      <!-- 40000 -->
      <g transform="translate(142.316189 243.558437) scale(0.1 -0.1)">
       <defs>
        <path id="DejaVuSans-34" d="M 2419 4116 
L 825 1625 
L 2419 1625 
L 2419 4116 
z
M 2253 4666 
L 3047 4666 
L 3047 1625 
L 3713 1625 
L 3713 1100 
L 3047 1100 
L 3047 0 
L 2419 0 
L 2419 1100 
L 313 1100 
L 313 1709 
L 2253 4666 
z
" transform="scale(0.015625)"/>
       </defs>
       <use xlink:href="#DejaVuSans-34"/>
       <use xlink:href="#DejaVuSans-30" transform="translate(63.623047 0)"/>
       <use xlink:href="#DejaVuSans-30" transform="translate(127.246094 0)"/>
       <use xlink:href="#DejaVuSans-30" transform="translate(190.869141 0)"/>
       <use xlink:href="#DejaVuSans-30" transform="translate(254.492188 0)"/>
      </g>
     </g>
    </g>
    <g id="xtick_4">
     <g id="line2d_4">
      <g>
       <use xlink:href="#m75dd4fb1f3" x="201.420333" y="228.96" style="stroke: #000000; stroke-width: 0.8"/>
      </g>
     </g>
     <g id="text_4">
      <!-- 50000 -->
      <g transform="translate(185.514083 243.558437) scale(0.1 -0.1)">
       <defs>
        <path id="DejaVuSans-35" d="M 691 4666 
L 3169 4666 
L 3169 4134 
L 1269 4134 
L 1269 2991 
Q 1406 3038 1543 3061 
Q 1681 3084 1819 3084 
Q 2600 3084 3056 2656 
Q 3513 2228 3513 1497 
Q 3513 744 3044 326 
Q 2575 -91 1722 -91 
Q 1428 -91 1123 -41 
Q 819 9 494 109 
L 494 744 
Q 775 591 1075 516 
Q 1375 441 1709 441 
Q 2250 441 2565 725 
Q 2881 1009 2881 1497 
Q 2881 1984 2565 2268 
Q 2250 2553 1709 2553 
Q 1456 2553 1204 2497 
Q 953 2441 691 2322 
L 691 4666 
z
" transform="scale(0.015625)"/>
       </defs>
       <use xlink:href="#DejaVuSans-35"/>
       <use xlink:href="#DejaVuSans-30" transform="translate(63.623047 0)"/>
       <use xlink:href="#DejaVuSans-30" transform="translate(127.246094 0)"/>
       <use xlink:href="#DejaVuSans-30" transform="translate(190.869141 0)"/>
       <use xlink:href="#DejaVuSans-30" transform="translate(254.492188 0)"/>
      </g>
     </g>
    </g>
    <g id="xtick_5">
     <g id="line2d_5">
      <g>
       <use xlink:href="#m75dd4fb1f3" x="244.618228" y="228.96" style="stroke: #000000; stroke-width: 0.8"/>
      </g>
     </g>
     <g id="text_5">
      <!-- 60000 -->
      <g transform="translate(228.711978 243.558437) scale(0.1 -0.1)">
       <defs>
        <path id="DejaVuSans-36" d="M 2113 2584 
Q 1688 2584 1439 2293 
Q 1191 2003 1191 1497 
Q 1191 994 1439 701 
Q 1688 409 2113 409 
Q 2538 409 2786 701 
Q 3034 994 3034 1497 
Q 3034 2003 2786 2293 
Q 2538 2584 2113 2584 
z
M 3366 4563 
L 3366 3988 
Q 3128 4100 2886 4159 
Q 2644 4219 2406 4219 
Q 1781 4219 1451 3797 
Q 1122 3375 1075 2522 
Q 1259 2794 1537 2939 
Q 1816 3084 2150 3084 
Q 2853 3084 3261 2657 
Q 3669 2231 3669 1497 
Q 3669 778 3244 343 
Q 2819 -91 2113 -91 
Q 1303 -91 875 529 
Q 447 1150 447 2328 
Q 447 3434 972 4092 
Q 1497 4750 2381 4750 
Q 2619 4750 2861 4703 
Q 3103 4656 3366 4563 
z
" transform="scale(0.015625)"/>
       </defs>
       <use xlink:href="#DejaVuSans-36"/>
       <use xlink:href="#DejaVuSans-30" transform="translate(63.623047 0)"/>
       <use xlink:href="#DejaVuSans-30" transform="translate(127.246094 0)"/>
       <use xlink:href="#DejaVuSans-30" transform="translate(190.869141 0)"/>
       <use xlink:href="#DejaVuSans-30" transform="translate(254.492188 0)"/>
      </g>
     </g>
    </g>
    <g id="xtick_6">
     <g id="line2d_6">
      <g>
       <use xlink:href="#m75dd4fb1f3" x="287.816122" y="228.96" style="stroke: #000000; stroke-width: 0.8"/>
      </g>
     </g>
     <g id="text_6">
      <!-- 70000 -->
      <g transform="translate(271.909872 243.558437) scale(0.1 -0.1)">
       <defs>
        <path id="DejaVuSans-37" d="M 525 4666 
L 3525 4666 
L 3525 4397 
L 1831 0 
L 1172 0 
L 2766 4134 
L 525 4134 
L 525 4666 
z
" transform="scale(0.015625)"/>
       </defs>
       <use xlink:href="#DejaVuSans-37"/>
       <use xlink:href="#DejaVuSans-30" transform="translate(63.623047 0)"/>
       <use xlink:href="#DejaVuSans-30" transform="translate(127.246094 0)"/>
       <use xlink:href="#DejaVuSans-30" transform="translate(190.869141 0)"/>
       <use xlink:href="#DejaVuSans-30" transform="translate(254.492188 0)"/>
      </g>
     </g>
    </g>
    <g id="xtick_7">
     <g id="line2d_7">
      <g>
       <use xlink:href="#m75dd4fb1f3" x="331.014016" y="228.96" style="stroke: #000000; stroke-width: 0.8"/>
      </g>
     </g>
     <g id="text_7">
      <!-- 80000 -->
      <g transform="translate(315.107766 243.558437) scale(0.1 -0.1)">
       <defs>
        <path id="DejaVuSans-38" d="M 2034 2216 
Q 1584 2216 1326 1975 
Q 1069 1734 1069 1313 
Q 1069 891 1326 650 
Q 1584 409 2034 409 
Q 2484 409 2743 651 
Q 3003 894 3003 1313 
Q 3003 1734 2745 1975 
Q 2488 2216 2034 2216 
z
M 1403 2484 
Q 997 2584 770 2862 
Q 544 3141 544 3541 
Q 544 4100 942 4425 
Q 1341 4750 2034 4750 
Q 2731 4750 3128 4425 
Q 3525 4100 3525 3541 
Q 3525 3141 3298 2862 
Q 3072 2584 2669 2484 
Q 3125 2378 3379 2068 
Q 3634 1759 3634 1313 
Q 3634 634 3220 271 
Q 2806 -91 2034 -91 
Q 1263 -91 848 271 
Q 434 634 434 1313 
Q 434 1759 690 2068 
Q 947 2378 1403 2484 
z
M 1172 3481 
Q 1172 3119 1398 2916 
Q 1625 2713 2034 2713 
Q 2441 2713 2670 2916 
Q 2900 3119 2900 3481 
Q 2900 3844 2670 4047 
Q 2441 4250 2034 4250 
Q 1625 4250 1398 4047 
Q 1172 3844 1172 3481 
z
" transform="scale(0.015625)"/>
       </defs>
       <use xlink:href="#DejaVuSans-38"/>
       <use xlink:href="#DejaVuSans-30" transform="translate(63.623047 0)"/>
       <use xlink:href="#DejaVuSans-30" transform="translate(127.246094 0)"/>
       <use xlink:href="#DejaVuSans-30" transform="translate(190.869141 0)"/>
       <use xlink:href="#DejaVuSans-30" transform="translate(254.492188 0)"/>
      </g>
     </g>
    </g>
    <g id="xtick_8">
     <g id="line2d_8">
      <g>
       <use xlink:href="#m75dd4fb1f3" x="374.21191" y="228.96" style="stroke: #000000; stroke-width: 0.8"/>
      </g>
     </g>
     <g id="text_8">
      <!-- 90000 -->
      <g transform="translate(358.30566 243.558437) scale(0.1 -0.1)">
       <defs>
        <path id="DejaVuSans-39" d="M 703 97 
L 703 672 
Q 941 559 1184 500 
Q 1428 441 1663 441 
Q 2288 441 2617 861 
Q 2947 1281 2994 2138 
Q 2813 1869 2534 1725 
Q 2256 1581 1919 1581 
Q 1219 1581 811 2004 
Q 403 2428 403 3163 
Q 403 3881 828 4315 
Q 1253 4750 1959 4750 
Q 2769 4750 3195 4129 
Q 3622 3509 3622 2328 
Q 3622 1225 3098 567 
Q 2575 -91 1691 -91 
Q 1453 -91 1209 -44 
Q 966 3 703 97 
z
M 1959 2075 
Q 2384 2075 2632 2365 
Q 2881 2656 2881 3163 
Q 2881 3666 2632 3958 
Q 2384 4250 1959 4250 
Q 1534 4250 1286 3958 
Q 1038 3666 1038 3163 
Q 1038 2656 1286 2365 
Q 1534 2075 1959 2075 
z
" transform="scale(0.015625)"/>
       </defs>
       <use xlink:href="#DejaVuSans-39"/>
       <use xlink:href="#DejaVuSans-30" transform="translate(63.623047 0)"/>
       <use xlink:href="#DejaVuSans-30" transform="translate(127.246094 0)"/>
       <use xlink:href="#DejaVuSans-30" transform="translate(190.869141 0)"/>
       <use xlink:href="#DejaVuSans-30" transform="translate(254.492188 0)"/>
      </g>
     </g>
    </g>
    <g id="text_9">
     <!-- tof [µs] -->
     <g transform="translate(196.309375 257.236562) scale(0.1 -0.1)">
      <defs>
       <path id="DejaVuSans-74" d="M 1172 4494 
L 1172 3500 
L 2356 3500 
L 2356 3053 
L 1172 3053 
L 1172 1153 
Q 1172 725 1289 603 
Q 1406 481 1766 481 
L 2356 481 
L 2356 0 
L 1766 0 
Q 1100 0 847 248 
Q 594 497 594 1153 
L 594 3053 
L 172 3053 
L 172 3500 
L 594 3500 
L 594 4494 
L 1172 4494 
z
" transform="scale(0.015625)"/>
       <path id="DejaVuSans-6f" d="M 1959 3097 
Q 1497 3097 1228 2736 
Q 959 2375 959 1747 
Q 959 1119 1226 758 
Q 1494 397 1959 397 
Q 2419 397 2687 759 
Q 2956 1122 2956 1747 
Q 2956 2369 2687 2733 
Q 2419 3097 1959 3097 
z
M 1959 3584 
Q 2709 3584 3137 3096 
Q 3566 2609 3566 1747 
Q 3566 888 3137 398 
Q 2709 -91 1959 -91 
Q 1206 -91 779 398 
Q 353 888 353 1747 
Q 353 2609 779 3096 
Q 1206 3584 1959 3584 
z
" transform="scale(0.015625)"/>
       <path id="DejaVuSans-66" d="M 2375 4863 
L 2375 4384 
L 1825 4384 
Q 1516 4384 1395 4259 
Q 1275 4134 1275 3809 
L 1275 3500 
L 2222 3500 
L 2222 3053 
L 1275 3053 
L 1275 0 
L 697 0 
L 697 3053 
L 147 3053 
L 147 3500 
L 697 3500 
L 697 3744 
Q 697 4328 969 4595 
Q 1241 4863 1831 4863 
L 2375 4863 
z
" transform="scale(0.015625)"/>
       <path id="DejaVuSans-20" transform="scale(0.015625)"/>
       <path id="DejaVuSans-5b" d="M 550 4863 
L 1875 4863 
L 1875 4416 
L 1125 4416 
L 1125 -397 
L 1875 -397 
L 1875 -844 
L 550 -844 
L 550 4863 
z
" transform="scale(0.015625)"/>
       <path id="DejaVuSans-b5" d="M 544 -1331 
L 544 3500 
L 1119 3500 
L 1119 1325 
Q 1119 872 1334 640 
Q 1550 409 1972 409 
Q 2434 409 2667 671 
Q 2900 934 2900 1459 
L 2900 3500 
L 3475 3500 
L 3475 806 
Q 3475 619 3529 530 
Q 3584 441 3700 441 
Q 3728 441 3778 458 
Q 3828 475 3916 513 
L 3916 50 
Q 3788 -22 3673 -56 
Q 3559 -91 3450 -91 
Q 3234 -91 3106 31 
Q 2978 153 2931 403 
Q 2775 156 2548 32 
Q 2322 -91 2016 -91 
Q 1697 -91 1473 31 
Q 1250 153 1119 397 
L 1119 -1331 
L 544 -1331 
z
" transform="scale(0.015625)"/>
       <path id="DejaVuSans-73" d="M 2834 3397 
L 2834 2853 
Q 2591 2978 2328 3040 
Q 2066 3103 1784 3103 
Q 1356 3103 1142 2972 
Q 928 2841 928 2578 
Q 928 2378 1081 2264 
Q 1234 2150 1697 2047 
L 1894 2003 
Q 2506 1872 2764 1633 
Q 3022 1394 3022 966 
Q 3022 478 2636 193 
Q 2250 -91 1575 -91 
Q 1294 -91 989 -36 
Q 684 19 347 128 
L 347 722 
Q 666 556 975 473 
Q 1284 391 1588 391 
Q 1994 391 2212 530 
Q 2431 669 2431 922 
Q 2431 1156 2273 1281 
Q 2116 1406 1581 1522 
L 1381 1569 
Q 847 1681 609 1914 
Q 372 2147 372 2553 
Q 372 3047 722 3315 
Q 1072 3584 1716 3584 
Q 2034 3584 2315 3537 
Q 2597 3491 2834 3397 
z
" transform="scale(0.015625)"/>
       <path id="DejaVuSans-5d" d="M 1947 4863 
L 1947 -844 
L 622 -844 
L 622 -397 
L 1369 -397 
L 1369 4416 
L 622 4416 
L 622 4863 
L 1947 4863 
z
" transform="scale(0.015625)"/>
      </defs>
      <use xlink:href="#DejaVuSans-74"/>
      <use xlink:href="#DejaVuSans-6f" transform="translate(39.208984 0)"/>
      <use xlink:href="#DejaVuSans-66" transform="translate(100.390625 0)"/>
      <use xlink:href="#DejaVuSans-20" transform="translate(135.595703 0)"/>
      <use xlink:href="#DejaVuSans-5b" transform="translate(167.382812 0)"/>
      <use xlink:href="#DejaVuSans-b5" transform="translate(206.396484 0)"/>
      <use xlink:href="#DejaVuSans-73" transform="translate(270.019531 0)"/>
      <use xlink:href="#DejaVuSans-5d" transform="translate(322.119141 0)"/>
     </g>
    </g>
   </g>
   <g id="matplotlib.axis_2">
    <g id="ytick_1">
     <g id="line2d_9">
      <defs>
       <path id="m70e6947dcd" d="M 0 0 
L -3.5 0 
" style="stroke: #000000; stroke-width: 0.8"/>
      </defs>
      <g>
       <use xlink:href="#m70e6947dcd" x="46.965625" y="219.645085" style="stroke: #000000; stroke-width: 0.8"/>
      </g>
     </g>
     <g id="text_10">
      <!-- 0 -->
      <g transform="translate(33.603125 223.444304) scale(0.1 -0.1)">
       <use xlink:href="#DejaVuSans-30"/>
      </g>
     </g>
    </g>
    <g id="ytick_2">
     <g id="line2d_10">
      <g>
       <use xlink:href="#m70e6947dcd" x="46.965625" y="181.390816" style="stroke: #000000; stroke-width: 0.8"/>
      </g>
     </g>
     <g id="text_11">
      <!-- 100 -->
      <g transform="translate(20.878125 185.190035) scale(0.1 -0.1)">
       <defs>
        <path id="DejaVuSans-31" d="M 794 531 
L 1825 531 
L 1825 4091 
L 703 3866 
L 703 4441 
L 1819 4666 
L 2450 4666 
L 2450 531 
L 3481 531 
L 3481 0 
L 794 0 
L 794 531 
z
" transform="scale(0.015625)"/>
       </defs>
       <use xlink:href="#DejaVuSans-31"/>
       <use xlink:href="#DejaVuSans-30" transform="translate(63.623047 0)"/>
       <use xlink:href="#DejaVuSans-30" transform="translate(127.246094 0)"/>
      </g>
     </g>
    </g>
    <g id="ytick_3">
     <g id="line2d_11">
      <g>
       <use xlink:href="#m70e6947dcd" x="46.965625" y="143.136546" style="stroke: #000000; stroke-width: 0.8"/>
      </g>
     </g>
     <g id="text_12">
      <!-- 200 -->
      <g transform="translate(20.878125 146.935765) scale(0.1 -0.1)">
       <use xlink:href="#DejaVuSans-32"/>
       <use xlink:href="#DejaVuSans-30" transform="translate(63.623047 0)"/>
       <use xlink:href="#DejaVuSans-30" transform="translate(127.246094 0)"/>
      </g>
     </g>
    </g>
    <g id="ytick_4">
     <g id="line2d_12">
      <g>
       <use xlink:href="#m70e6947dcd" x="46.965625" y="104.882277" style="stroke: #000000; stroke-width: 0.8"/>
      </g>
     </g>
     <g id="text_13">
      <!-- 300 -->
      <g transform="translate(20.878125 108.681496) scale(0.1 -0.1)">
       <use xlink:href="#DejaVuSans-33"/>
       <use xlink:href="#DejaVuSans-30" transform="translate(63.623047 0)"/>
       <use xlink:href="#DejaVuSans-30" transform="translate(127.246094 0)"/>
      </g>
     </g>
    </g>
    <g id="ytick_5">
     <g id="line2d_13">
      <g>
       <use xlink:href="#m70e6947dcd" x="46.965625" y="66.628008" style="stroke: #000000; stroke-width: 0.8"/>
      </g>
     </g>
     <g id="text_14">
      <!-- 400 -->
      <g transform="translate(20.878125 70.427226) scale(0.1 -0.1)">
       <use xlink:href="#DejaVuSans-34"/>
       <use xlink:href="#DejaVuSans-30" transform="translate(63.623047 0)"/>
       <use xlink:href="#DejaVuSans-30" transform="translate(127.246094 0)"/>
      </g>
     </g>
    </g>
    <g id="ytick_6">
     <g id="line2d_14">
      <g>
       <use xlink:href="#m70e6947dcd" x="46.965625" y="28.373738" style="stroke: #000000; stroke-width: 0.8"/>
      </g>
     </g>
     <g id="text_15">
      <!-- 500 -->
      <g transform="translate(20.878125 32.172957) scale(0.1 -0.1)">
       <use xlink:href="#DejaVuSans-35"/>
       <use xlink:href="#DejaVuSans-30" transform="translate(63.623047 0)"/>
       <use xlink:href="#DejaVuSans-30" transform="translate(127.246094 0)"/>
      </g>
     </g>
    </g>
    <g id="text_16">
     <!-- [counts] -->
     <g transform="translate(14.798438 138.6925) rotate(-90) scale(0.1 -0.1)">
      <defs>
       <path id="DejaVuSans-63" d="M 3122 3366 
L 3122 2828 
Q 2878 2963 2633 3030 
Q 2388 3097 2138 3097 
Q 1578 3097 1268 2742 
Q 959 2388 959 1747 
Q 959 1106 1268 751 
Q 1578 397 2138 397 
Q 2388 397 2633 464 
Q 2878 531 3122 666 
L 3122 134 
Q 2881 22 2623 -34 
Q 2366 -91 2075 -91 
Q 1284 -91 818 406 
Q 353 903 353 1747 
Q 353 2603 823 3093 
Q 1294 3584 2113 3584 
Q 2378 3584 2631 3529 
Q 2884 3475 3122 3366 
z
" transform="scale(0.015625)"/>
       <path id="DejaVuSans-75" d="M 544 1381 
L 544 3500 
L 1119 3500 
L 1119 1403 
Q 1119 906 1312 657 
Q 1506 409 1894 409 
Q 2359 409 2629 706 
Q 2900 1003 2900 1516 
L 2900 3500 
L 3475 3500 
L 3475 0 
L 2900 0 
L 2900 538 
Q 2691 219 2414 64 
Q 2138 -91 1772 -91 
Q 1169 -91 856 284 
Q 544 659 544 1381 
z
M 1991 3584 
L 1991 3584 
z
" transform="scale(0.015625)"/>
       <path id="DejaVuSans-6e" d="M 3513 2113 
L 3513 0 
L 2938 0 
L 2938 2094 
Q 2938 2591 2744 2837 
Q 2550 3084 2163 3084 
Q 1697 3084 1428 2787 
Q 1159 2491 1159 1978 
L 1159 0 
L 581 0 
L 581 3500 
L 1159 3500 
L 1159 2956 
Q 1366 3272 1645 3428 
Q 1925 3584 2291 3584 
Q 2894 3584 3203 3211 
Q 3513 2838 3513 2113 
z
" transform="scale(0.015625)"/>
      </defs>
      <use xlink:href="#DejaVuSans-5b"/>
      <use xlink:href="#DejaVuSans-63" transform="translate(39.013672 0)"/>
      <use xlink:href="#DejaVuSans-6f" transform="translate(93.994141 0)"/>
      <use xlink:href="#DejaVuSans-75" transform="translate(155.175781 0)"/>
      <use xlink:href="#DejaVuSans-6e" transform="translate(218.554688 0)"/>
      <use xlink:href="#DejaVuSans-74" transform="translate(281.933594 0)"/>
      <use xlink:href="#DejaVuSans-73" transform="translate(321.142578 0)"/>
      <use xlink:href="#DejaVuSans-5d" transform="translate(373.242188 0)"/>
     </g>
    </g>
   </g>
   <g id="line2d_15">
    <path d="M 62.183807 215.819658 
L 63.198352 215.819658 
L 63.198352 212.376774 
L 64.212898 212.376774 
L 64.212898 208.168805 
L 65.227443 208.168805 
L 65.227443 196.692524 
L 66.241989 196.692524 
L 66.241989 197.075066 
L 67.256534 197.075066 
L 67.256534 195.162353 
L 68.27108 195.162353 
L 68.27108 190.189298 
L 69.285625 190.189298 
L 69.285625 183.686072 
L 70.30017 183.686072 
L 70.30017 177.182846 
L 71.314716 177.182846 
L 71.314716 172.592334 
L 72.329261 172.592334 
L 72.329261 164.94148 
L 73.343807 164.94148 
L 73.343807 165.706565 
L 74.358352 165.706565 
L 74.358352 160.73351 
L 75.372898 160.73351 
L 75.372898 141.606376 
L 76.387443 141.606376 
L 76.387443 149.639772 
L 77.401989 149.639772 
L 77.401989 152.700114 
L 78.416534 152.700114 
L 78.416534 148.109602 
L 79.43108 148.109602 
L 79.43108 138.546034 
L 80.445625 138.546034 
L 80.445625 128.599924 
L 82.474716 128.599924 
L 82.474716 127.834839 
L 83.489261 127.834839 
L 83.489261 103.352106 
L 84.503807 103.352106 
L 84.503807 115.593472 
L 85.518352 115.593472 
L 85.518352 92.258368 
L 86.532898 92.258368 
L 86.532898 98.379051 
L 87.547443 98.379051 
L 87.547443 95.701252 
L 88.561989 95.701252 
L 88.561989 104.882277 
L 89.576534 104.882277 
L 89.576534 85.755142 
L 90.59108 85.755142 
L 90.59108 91.875825 
L 91.605625 91.875825 
L 91.605625 91.493283 
L 92.62017 91.493283 
L 92.62017 84.607514 
L 93.634716 84.607514 
L 93.634716 69.688349 
L 94.649261 69.688349 
L 94.649261 85.3726 
L 95.663807 85.3726 
L 95.663807 62.037495 
L 96.678352 62.037495 
L 96.678352 76.574118 
L 97.692898 76.574118 
L 97.692898 78.869374 
L 98.707443 78.869374 
L 98.707443 58.594611 
L 99.721989 58.594611 
L 99.721989 59.359696 
L 100.736534 59.359696 
L 100.736534 71.21852 
L 101.75108 71.21852 
L 101.75108 57.829526 
L 102.765625 57.829526 
L 102.765625 61.27241 
L 103.78017 61.27241 
L 103.78017 54.386641 
L 104.794716 54.386641 
L 104.794716 39.850019 
L 105.809261 39.850019 
L 105.809261 39.467476 
L 106.823807 39.467476 
L 106.823807 29.903909 
L 107.838352 29.903909 
L 107.838352 31.816622 
L 108.852898 31.816622 
L 108.852898 37.554763 
L 109.867443 37.554763 
L 109.867443 45.205617 
L 110.881989 45.205617 
L 110.881989 44.057989 
L 111.896534 44.057989 
L 111.896534 32.96425 
L 112.91108 32.96425 
L 112.91108 17.28 
L 113.925625 17.28 
L 113.925625 37.937306 
L 114.94017 37.937306 
L 114.94017 36.407135 
L 115.954716 36.407135 
L 115.954716 47.883416 
L 116.969261 47.883416 
L 116.969261 22.253055 
L 117.983807 22.253055 
L 117.983807 35.642049 
L 118.998352 35.642049 
L 118.998352 26.078482 
L 120.012898 26.078482 
L 120.012898 60.507324 
L 121.027443 60.507324 
L 121.027443 32.581708 
L 122.041989 32.581708 
L 122.041989 30.286452 
L 123.056534 30.286452 
L 123.056534 53.239013 
L 124.07108 53.239013 
L 124.07108 55.916812 
L 125.085625 55.916812 
L 125.085625 63.185123 
L 126.10017 63.185123 
L 126.10017 62.420038 
L 127.114716 62.420038 
L 127.114716 55.151727 
L 128.129261 55.151727 
L 128.129261 52.856471 
L 129.143807 52.856471 
L 129.143807 40.997647 
L 130.158352 40.997647 
L 130.158352 70.070892 
L 131.172898 70.070892 
L 131.172898 78.869374 
L 132.187443 78.869374 
L 132.187443 51.708843 
L 133.201989 51.708843 
L 133.201989 54.769184 
L 134.216534 54.769184 
L 134.216534 55.534269 
L 135.23108 55.534269 
L 135.23108 68.540721 
L 136.245625 68.540721 
L 136.245625 54.386641 
L 137.26017 54.386641 
L 137.26017 64.332751 
L 138.274716 64.332751 
L 138.274716 61.27241 
L 139.289261 61.27241 
L 139.289261 66.245465 
L 140.303807 66.245465 
L 140.303807 81.547173 
L 141.318352 81.547173 
L 141.318352 59.359696 
L 142.332898 59.359696 
L 142.332898 62.037495 
L 143.347443 62.037495 
L 143.347443 76.191575 
L 144.361989 76.191575 
L 144.361989 62.420038 
L 145.376534 62.420038 
L 145.376534 71.601063 
L 146.39108 71.601063 
L 146.39108 68.923264 
L 147.405625 68.923264 
L 147.405625 86.137685 
L 148.42017 86.137685 
L 148.42017 78.486831 
L 149.434716 78.486831 
L 149.434716 67.01055 
L 150.449261 67.01055 
L 150.449261 67.393093 
L 151.463807 67.393093 
L 151.463807 65.862922 
L 152.478352 65.862922 
L 152.478352 71.983605 
L 153.492898 71.983605 
L 153.492898 75.809032 
L 154.507443 75.809032 
L 154.507443 80.017002 
L 155.521989 80.017002 
L 155.521989 65.097837 
L 156.536534 65.097837 
L 156.536534 76.191575 
L 157.55108 76.191575 
L 157.55108 62.420038 
L 158.565625 62.420038 
L 158.565625 77.339203 
L 159.58017 77.339203 
L 159.58017 53.621556 
L 160.594716 53.621556 
L 160.594716 78.104288 
L 161.609261 78.104288 
L 161.609261 82.312258 
L 162.623807 82.312258 
L 162.623807 71.21852 
L 163.638352 71.21852 
L 163.638352 76.574118 
L 164.652898 76.574118 
L 164.652898 67.775636 
L 165.667443 67.775636 
L 165.667443 97.231423 
L 166.681989 97.231423 
L 166.681989 73.513776 
L 167.696534 73.513776 
L 167.696534 81.16463 
L 168.71108 81.16463 
L 168.71108 93.788539 
L 169.725625 93.788539 
L 169.725625 83.459886 
L 170.74017 83.459886 
L 170.74017 82.312258 
L 171.754716 82.312258 
L 171.754716 90.345655 
L 172.769261 90.345655 
L 172.769261 99.526679 
L 173.783807 99.526679 
L 173.783807 72.748691 
L 174.798352 72.748691 
L 174.798352 88.050398 
L 175.812898 88.050398 
L 175.812898 108.707704 
L 176.827443 108.707704 
L 176.827443 91.875825 
L 177.841989 91.875825 
L 177.841989 83.459886 
L 178.856534 83.459886 
L 178.856534 97.613966 
L 179.87108 97.613966 
L 179.87108 109.855332 
L 180.885625 109.855332 
L 180.885625 109.090247 
L 181.90017 109.090247 
L 181.90017 101.05685 
L 182.914716 101.05685 
L 182.914716 101.821935 
L 183.929261 101.821935 
L 183.929261 115.593472 
L 184.943807 115.593472 
L 184.943807 115.976015 
L 185.958352 115.976015 
L 185.958352 115.21093 
L 186.972898 115.21093 
L 186.972898 132.042808 
L 187.987443 132.042808 
L 187.987443 126.687211 
L 189.001989 126.687211 
L 189.001989 138.928577 
L 190.016534 138.928577 
L 190.016534 148.492144 
L 191.03108 148.492144 
L 191.03108 144.284175 
L 192.045625 144.284175 
L 192.045625 155.377913 
L 193.06017 155.377913 
L 193.06017 153.082657 
L 194.074716 153.082657 
L 194.074716 157.290626 
L 195.089261 157.290626 
L 195.089261 165.324023 
L 196.103807 165.324023 
L 196.103807 168.001822 
L 197.118352 168.001822 
L 197.118352 171.444706 
L 198.132898 171.444706 
L 198.132898 177.565389 
L 199.147443 177.565389 
L 199.147443 183.686072 
L 200.161989 183.686072 
L 200.161989 179.09556 
L 201.176534 179.09556 
L 201.176534 197.840152 
L 202.19108 197.840152 
L 202.19108 195.162353 
L 203.205625 195.162353 
L 203.205625 190.954383 
L 204.22017 190.954383 
L 204.22017 200.135408 
L 205.234716 200.135408 
L 205.234716 205.108463 
L 206.249261 205.108463 
L 206.249261 208.551347 
L 207.263807 208.551347 
L 207.263807 211.611689 
L 208.278352 211.611689 
L 208.278352 213.524402 
L 209.292898 213.524402 
L 209.292898 215.437116 
L 210.307443 215.437116 
L 210.307443 215.819658 
L 211.321989 215.819658 
L 211.321989 218.114915 
L 212.336534 218.114915 
L 212.336534 217.349829 
L 213.35108 217.349829 
L 213.35108 212.376774 
L 214.365625 212.376774 
L 214.365625 209.698975 
L 215.38017 209.698975 
L 215.38017 203.19575 
L 216.394716 203.19575 
L 216.394716 202.430664 
L 217.409261 202.430664 
L 217.409261 197.075066 
L 218.423807 197.075066 
L 218.423807 195.162353 
L 220.452898 195.162353 
L 220.452898 184.068615 
L 221.467443 184.068615 
L 221.467443 177.565389 
L 223.496534 177.565389 
L 223.496534 176.417761 
L 224.51108 176.417761 
L 224.51108 177.947932 
L 225.525625 177.947932 
L 225.525625 166.089108 
L 226.54017 166.089108 
L 226.54017 172.209791 
L 227.554716 172.209791 
L 227.554716 161.881139 
L 228.569261 161.881139 
L 228.569261 156.908083 
L 229.583807 156.908083 
L 229.583807 159.968425 
L 230.598352 159.968425 
L 230.598352 154.612827 
L 231.612898 154.612827 
L 231.612898 161.116053 
L 232.627443 161.116053 
L 232.627443 147.344516 
L 234.656534 147.344516 
L 234.656534 138.163491 
L 235.67108 138.163491 
L 235.67108 141.223833 
L 236.685625 141.223833 
L 236.685625 138.546034 
L 237.70017 138.546034 
L 237.70017 130.512638 
L 238.714716 130.512638 
L 238.714716 140.458748 
L 239.729261 140.458748 
L 239.729261 131.660266 
L 240.743807 131.660266 
L 240.743807 114.445844 
L 241.758352 114.445844 
L 241.758352 133.955522 
L 242.772898 133.955522 
L 242.772898 128.982467 
L 243.787443 128.982467 
L 243.787443 114.063302 
L 244.801989 114.063302 
L 244.801989 133.190436 
L 245.816534 133.190436 
L 245.816534 128.217381 
L 246.83108 128.217381 
L 246.83108 112.533131 
L 247.845625 112.533131 
L 247.845625 125.15704 
L 248.86017 125.15704 
L 248.86017 102.204478 
L 249.874716 102.204478 
L 249.874716 112.150588 
L 250.889261 112.150588 
L 250.889261 103.352106 
L 251.903807 103.352106 
L 251.903807 113.298216 
L 252.918352 113.298216 
L 252.918352 101.821935 
L 253.932898 101.821935 
L 253.932898 93.788539 
L 254.947443 93.788539 
L 254.947443 124.009412 
L 255.961989 124.009412 
L 255.961989 101.439393 
L 256.976534 101.439393 
L 256.976534 98.761594 
L 257.99108 98.761594 
L 257.99108 95.701252 
L 259.005625 95.701252 
L 259.005625 104.499734 
L 260.02017 104.499734 
L 260.02017 85.3726 
L 261.034716 85.3726 
L 261.034716 104.499734 
L 262.049261 104.499734 
L 262.049261 76.574118 
L 263.063807 76.574118 
L 263.063807 94.553624 
L 264.078352 94.553624 
L 264.078352 106.412448 
L 265.092898 106.412448 
L 265.092898 88.050398 
L 266.107443 88.050398 
L 266.107443 90.345655 
L 267.121989 90.345655 
L 267.121989 89.580569 
L 268.136534 89.580569 
L 268.136534 106.029905 
L 269.15108 106.029905 
L 269.15108 115.976015 
L 270.165625 115.976015 
L 270.165625 90.728197 
L 271.18017 90.728197 
L 271.18017 102.587021 
L 272.194716 102.587021 
L 272.194716 99.909222 
L 273.209261 99.909222 
L 273.209261 98.761594 
L 274.223807 98.761594 
L 274.223807 92.258368 
L 275.238352 92.258368 
L 275.238352 106.412448 
L 276.252898 106.412448 
L 276.252898 121.331613 
L 277.267443 121.331613 
L 277.267443 112.915674 
L 278.281989 112.915674 
L 278.281989 117.888729 
L 279.296534 117.888729 
L 279.296534 101.821935 
L 280.31108 101.821935 
L 280.31108 109.855332 
L 281.325625 109.855332 
L 281.325625 117.888729 
L 282.34017 117.888729 
L 282.34017 113.298216 
L 283.354716 113.298216 
L 283.354716 124.009412 
L 284.369261 124.009412 
L 284.369261 119.418899 
L 285.383807 119.418899 
L 285.383807 104.117192 
L 286.398352 104.117192 
L 286.398352 128.599924 
L 287.412898 128.599924 
L 287.412898 110.620417 
L 288.427443 110.620417 
L 288.427443 122.096698 
L 289.441989 122.096698 
L 289.441989 124.391954 
L 290.456534 124.391954 
L 290.456534 133.572979 
L 291.47108 133.572979 
L 291.47108 131.277723 
L 292.485625 131.277723 
L 292.485625 124.391954 
L 293.50017 124.391954 
L 293.50017 130.89518 
L 294.514716 130.89518 
L 294.514716 126.304668 
L 295.529261 126.304668 
L 295.529261 123.626869 
L 296.543807 123.626869 
L 296.543807 120.566528 
L 297.558352 120.566528 
L 297.558352 129.365009 
L 298.572898 129.365009 
L 298.572898 124.774497 
L 299.587443 124.774497 
L 299.587443 125.539583 
L 300.601989 125.539583 
L 300.601989 131.277723 
L 301.616534 131.277723 
L 301.616534 135.868235 
L 302.63108 135.868235 
L 302.63108 139.31112 
L 303.645625 139.31112 
L 303.645625 142.754004 
L 304.66017 142.754004 
L 304.66017 137.398406 
L 305.674716 137.398406 
L 305.674716 139.31112 
L 306.689261 139.31112 
L 306.689261 140.076205 
L 307.703807 140.076205 
L 307.703807 146.196888 
L 308.718352 146.196888 
L 308.718352 142.754004 
L 309.732898 142.754004 
L 309.732898 144.284175 
L 310.747443 144.284175 
L 310.747443 150.022315 
L 311.761989 150.022315 
L 311.761989 135.868235 
L 312.776534 135.868235 
L 312.776534 144.666717 
L 313.79108 144.666717 
L 313.79108 141.606376 
L 314.805625 141.606376 
L 314.805625 150.404858 
L 315.82017 150.404858 
L 315.82017 143.136546 
L 316.834716 143.136546 
L 316.834716 159.968425 
L 317.849261 159.968425 
L 317.849261 157.290626 
L 318.863807 157.290626 
L 318.863807 156.908083 
L 319.878352 156.908083 
L 319.878352 150.022315 
L 320.892898 150.022315 
L 320.892898 147.727059 
L 321.907443 147.727059 
L 321.907443 152.317571 
L 322.921989 152.317571 
L 322.921989 159.585882 
L 323.936534 159.585882 
L 323.936534 161.116053 
L 324.95108 161.116053 
L 324.95108 163.028767 
L 325.965625 163.028767 
L 325.965625 153.082657 
L 326.98017 153.082657 
L 326.98017 161.498596 
L 327.994716 161.498596 
L 327.994716 177.182846 
L 329.009261 177.182846 
L 329.009261 163.411309 
L 330.023807 163.411309 
L 330.023807 167.236736 
L 331.038352 167.236736 
L 331.038352 171.444706 
L 332.052898 171.444706 
L 332.052898 168.766907 
L 333.067443 168.766907 
L 333.067443 162.263681 
L 334.081989 162.263681 
L 334.081989 182.920987 
L 335.096534 182.920987 
L 335.096534 172.592334 
L 336.11108 172.592334 
L 336.11108 177.947932 
L 337.125625 177.947932 
L 337.125625 180.243188 
L 338.14017 180.243188 
L 338.14017 185.598786 
L 339.154716 185.598786 
L 339.154716 186.363871 
L 340.169261 186.363871 
L 340.169261 179.09556 
L 341.183807 179.09556 
L 341.183807 190.189298 
L 342.198352 190.189298 
L 342.198352 191.336926 
L 343.212898 191.336926 
L 343.212898 180.625731 
L 344.227443 180.625731 
L 344.227443 197.075066 
L 345.241989 197.075066 
L 345.241989 200.517951 
L 346.256534 200.517951 
L 346.256534 205.108463 
L 347.27108 205.108463 
L 347.27108 195.544896 
L 348.285625 195.544896 
L 348.285625 200.517951 
L 349.30017 200.517951 
L 349.30017 202.048121 
L 350.314716 202.048121 
L 350.314716 205.108463 
L 351.329261 205.108463 
L 351.329261 206.638634 
L 352.343807 206.638634 
L 352.343807 205.491006 
L 353.358352 205.491006 
L 353.358352 209.316433 
L 354.372898 209.316433 
L 354.372898 212.759317 
L 355.387443 212.759317 
L 355.387443 213.14186 
L 356.401989 213.14186 
L 356.401989 213.524402 
L 357.416534 213.524402 
L 357.416534 210.846603 
L 358.43108 210.846603 
L 358.43108 215.437116 
L 359.445625 215.437116 
L 359.445625 215.819658 
L 360.46017 215.819658 
L 360.46017 217.349829 
L 361.474716 217.349829 
L 361.474716 217.732372 
L 362.489261 217.732372 
L 362.489261 217.349829 
L 363.503807 217.349829 
L 363.503807 217.732372 
L 364.518352 217.732372 
L 364.518352 218.497457 
L 365.532898 218.497457 
L 365.532898 218.88 
L 366.547443 218.88 
L 366.547443 218.88 
" clip-path="url(#pd43b9d795d)" style="fill: none; stroke: #1f77b4; stroke-width: 1.5; stroke-linecap: square"/>
   </g>
   <g id="patch_3">
    <path d="M 46.965625 228.96 
L 46.965625 7.2 
" style="fill: none; stroke: #000000; stroke-width: 0.8; stroke-linejoin: miter; stroke-linecap: square"/>
   </g>
   <g id="patch_4">
    <path d="M 381.765625 228.96 
L 381.765625 7.2 
" style="fill: none; stroke: #000000; stroke-width: 0.8; stroke-linejoin: miter; stroke-linecap: square"/>
   </g>
   <g id="patch_5">
    <path d="M 46.965625 228.96 
L 381.765625 228.96 
" style="fill: none; stroke: #000000; stroke-width: 0.8; stroke-linejoin: miter; stroke-linecap: square"/>
   </g>
   <g id="patch_6">
    <path d="M 46.965625 7.2 
L 381.765625 7.2 
" style="fill: none; stroke: #000000; stroke-width: 0.8; stroke-linejoin: miter; stroke-linecap: square"/>
   </g>
  </g>
 </g>
 <defs>
  <clipPath id="pd43b9d795d">
   <rect x="46.965625" y="7.2" width="334.8" height="221.76"/>
  </clipPath>
 </defs>
</svg>
