<?xml version="1.0" encoding="UTF-8" standalone="no"?>
<!DOCTYPE svg PUBLIC "-//W3C//DTD SVG 1.1//EN"
 "http://www.w3.org/Graphics/SVG/1.1/DTD/svg11.dtd">
<!-- Generated by graphviz version 2.43.0 (0)
 -->
<!-- Title: %3 Pages: 1 -->
<svg width="1773pt" height="654pt"
 viewBox="0.00 0.00 1772.50 654.00" xmlns="http://www.w3.org/2000/svg" xmlns:xlink="http://www.w3.org/1999/xlink">
<g id="graph0" class="graph" transform="scale(1 1) rotate(0) translate(4 650)">
<title>%3</title>
<polygon fill="white" stroke="transparent" points="-4,4 -4,-650 1768.5,-650 1768.5,4 -4,4"/>
<g id="clust11" class="cluster">
<title>cluster_NeXusClass</title>
<polygon fill="#f0f0ff" stroke="#f0f0ff" points="991.5,-476 991.5,-546 1346.5,-546 1346.5,-476 991.5,-476"/>
<text text-anchor="middle" x="1169" y="-530.8" font-family="Times,serif" font-size="14.00">NeXusClass</text>
</g>
<!-- NeXusAllComponentLocationSpec[NXdisk_chopper, SampleRun] -->
<g id="node1" class="node">
<title>NeXusAllComponentLocationSpec[NXdisk_chopper, SampleRun]</title>
<polygon fill="none" stroke="black" points="983.5,-516 509.5,-516 509.5,-483 983.5,-483 983.5,-516"/>
<text text-anchor="start" x="517.5" y="-501.8" font-family="Times,serif" font-size="14.00">NeXusAllComponentLocationSpec[NXdisk_chopper, SampleRun]</text>
<text text-anchor="start" x="680" y="-490.2" font-family="Times,serif" font-size="11.00">via:</text>
<text text-anchor="start" x="701" y="-490.2" font-family="Times,serif" font-style="italic" font-size="11.00">all_component_spec</text>
</g>
<!-- AllNeXusComponents[NXdisk_chopper, SampleRun] -->
<g id="node2" class="node">
<title>AllNeXusComponents[NXdisk_chopper, SampleRun]</title>
<polygon fill="none" stroke="black" points="1191.5,-447 805.5,-447 805.5,-414 1191.5,-414 1191.5,-447"/>
<text text-anchor="start" x="813.5" y="-432.8" font-family="Times,serif" font-size="14.00">AllNeXusComponents[NXdisk_chopper, SampleRun]</text>
<text text-anchor="start" x="911" y="-421.2" font-family="Times,serif" font-size="11.00">via:</text>
<text text-anchor="start" x="932" y="-421.2" font-family="Times,serif" font-style="italic" font-size="11.00">load_all_nexus_components</text>
</g>
<!-- NeXusAllComponentLocationSpec[NXdisk_chopper, SampleRun]&#45;&gt;AllNeXusComponents[NXdisk_chopper, SampleRun] -->
<g id="edge1" class="edge">
<title>NeXusAllComponentLocationSpec[NXdisk_chopper, SampleRun]&#45;&gt;AllNeXusComponents[NXdisk_chopper, SampleRun]</title>
<path fill="none" stroke="black" d="M804.95,-482.96C842.34,-473.02 891.01,-460.08 930.19,-449.66"/>
<polygon fill="black" stroke="black" points="931.17,-453.02 939.93,-447.07 929.37,-446.26 931.17,-453.02"/>
</g>
<!-- Choppers[SampleRun] -->
<g id="node4" class="node">
<title>Choppers[SampleRun]</title>
<polygon fill="none" stroke="black" points="1122,-378 945,-378 945,-345 1122,-345 1122,-378"/>
<text text-anchor="start" x="953" y="-363.8" font-family="Times,serif" font-size="14.00">Choppers[SampleRun]</text>
<text text-anchor="start" x="964.5" y="-352.2" font-family="Times,serif" font-size="11.00">via:</text>
<text text-anchor="start" x="985.5" y="-352.2" font-family="Times,serif" font-style="italic" font-size="11.00">parse_disk_choppers</text>
</g>
<!-- AllNeXusComponents[NXdisk_chopper, SampleRun]&#45;&gt;Choppers[SampleRun] -->
<g id="edge3" class="edge">
<title>AllNeXusComponents[NXdisk_chopper, SampleRun]&#45;&gt;Choppers[SampleRun]</title>
<path fill="none" stroke="black" d="M1006.62,-413.96C1010.75,-406.04 1015.88,-396.22 1020.55,-387.29"/>
<polygon fill="black" stroke="black" points="1023.66,-388.9 1025.18,-378.42 1017.45,-385.66 1023.66,-388.9"/>
</g>
<!-- NeXusClass[NXdisk_chopper] -->
<g id="node3" class="node">
<title>NeXusClass[NXdisk_chopper]</title>
<polygon fill="none" stroke="black" points="1183.5,-515 999.5,-515 999.5,-484 1183.5,-484 1183.5,-515"/>
<text text-anchor="start" x="1037" y="-502.4" font-family="Times,serif" font-size="12.00">[NXdisk_chopper]</text>
<text text-anchor="start" x="1007.5" y="-491.2" font-family="Times,serif" font-size="11.00">via:</text>
<text text-anchor="start" x="1028.5" y="-491.2" font-family="Times,serif" font-style="italic" font-size="11.00">nx_class_for_disk_chopper</text>
</g>
<!-- NeXusClass[NXdisk_chopper]&#45;&gt;AllNeXusComponents[NXdisk_chopper, SampleRun] -->
<g id="edge2" class="edge">
<title>NeXusClass[NXdisk_chopper]&#45;&gt;AllNeXusComponents[NXdisk_chopper, SampleRun]</title>
<path fill="none" stroke="black" d="M1071.32,-483.96C1058.84,-474.97 1042.6,-463.27 1028.62,-453.2"/>
<polygon fill="black" stroke="black" points="1030.42,-450.18 1020.26,-447.18 1026.33,-455.86 1030.42,-450.18"/>
</g>
<!-- SimulationResults -->
<g id="node26" class="node">
<title>SimulationResults</title>
<polygon fill="none" stroke="black" points="1224.5,-171 982.5,-171 982.5,-138 1224.5,-138 1224.5,-171"/>
<text text-anchor="start" x="1038" y="-156.8" font-family="Times,serif" font-size="14.00">SimulationResults</text>
<text text-anchor="start" x="990.5" y="-145.2" font-family="Times,serif" font-size="11.00">via:</text>
<text text-anchor="start" x="1011.5" y="-145.2" font-family="Times,serif" font-style="italic" font-size="11.00">simulate_chopper_cascade_using_tof</text>
</g>
<!-- Choppers[SampleRun]&#45;&gt;SimulationResults -->
<g id="edge18" class="edge">
<title>Choppers[SampleRun]&#45;&gt;SimulationResults</title>
<path fill="none" stroke="black" d="M1043.98,-344.95C1058.36,-322.75 1083.73,-280.19 1095.5,-240 1101.1,-220.86 1103.02,-198.34 1103.58,-181.36"/>
<polygon fill="black" stroke="black" points="1107.08,-181.16 1103.78,-171.1 1100.08,-181.03 1107.08,-181.16"/>
</g>
<!-- DetectorData[SampleRun] -->
<g id="node5" class="node">
<title>DetectorData[SampleRun]</title>
<polygon fill="none" stroke="black" points="205,-97 0,-97 0,-74 205,-74 205,-97"/>
<text text-anchor="middle" x="102.5" y="-81.8" font-family="Times,serif" font-size="14.00">DetectorData[SampleRun]</text>
</g>
<!-- DetectorTofData[SampleRun] -->
<g id="node7" class="node">
<title>DetectorTofData[SampleRun]</title>
<polygon fill="none" stroke="black" points="524,-33 297,-33 297,0 524,0 524,-33"/>
<text text-anchor="start" x="305" y="-18.8" font-family="Times,serif" font-size="14.00">DetectorTofData[SampleRun]</text>
<text text-anchor="start" x="320.5" y="-7.2" font-family="Times,serif" font-size="11.00">via:</text>
<text text-anchor="start" x="341.5" y="-7.2" font-family="Times,serif" font-style="italic" font-size="11.00">detector_time_of_flight_data</text>
</g>
<!-- DetectorData[SampleRun]&#45;&gt;DetectorTofData[SampleRun] -->
<g id="edge4" class="edge">
<title>DetectorData[SampleRun]&#45;&gt;DetectorTofData[SampleRun]</title>
<path fill="none" stroke="black" d="M150.96,-73.96C198.67,-63.58 272.4,-47.54 329.11,-35.21"/>
<polygon fill="black" stroke="black" points="330.1,-38.57 339.13,-33.03 328.61,-31.73 330.1,-38.57"/>
</g>
<!-- DetectorLtotal[SampleRun] -->
<g id="node6" class="node">
<title>DetectorLtotal[SampleRun]</title>
<polygon fill="none" stroke="black" points="425,-97 212,-97 212,-74 425,-74 425,-97"/>
<text text-anchor="middle" x="318.5" y="-81.8" font-family="Times,serif" font-size="14.00">DetectorLtotal[SampleRun]</text>
</g>
<!-- DetectorLtotal[SampleRun]&#45;&gt;DetectorTofData[SampleRun] -->
<g id="edge6" class="edge">
<title>DetectorLtotal[SampleRun]&#45;&gt;DetectorTofData[SampleRun]</title>
<path fill="none" stroke="black" d="M333.28,-73.74C345.97,-64.5 364.65,-50.89 380.46,-39.38"/>
<polygon fill="black" stroke="black" points="382.87,-41.95 388.89,-33.23 378.75,-36.29 382.87,-41.95"/>
</g>
<!-- TimeOfFlightLookupTable -->
<g id="node8" class="node">
<title>TimeOfFlightLookupTable</title>
<polygon fill="none" stroke="black" points="783,-102 582,-102 582,-69 783,-69 783,-102"/>
<text text-anchor="start" x="590" y="-87.8" font-family="Times,serif" font-size="14.00">TimeOfFlightLookupTable</text>
<text text-anchor="start" x="599.5" y="-76.2" font-family="Times,serif" font-size="11.00">via:</text>
<text text-anchor="start" x="620.5" y="-76.2" font-family="Times,serif" font-style="italic" font-size="11.00">compute_tof_lookup_table</text>
</g>
<!-- TimeOfFlightLookupTable&#45;&gt;DetectorTofData[SampleRun] -->
<g id="edge5" class="edge">
<title>TimeOfFlightLookupTable&#45;&gt;DetectorTofData[SampleRun]</title>
<path fill="none" stroke="black" d="M619.41,-68.96C578.79,-58.95 525.85,-45.91 483.43,-35.46"/>
<polygon fill="black" stroke="black" points="484.26,-32.06 473.71,-33.07 482.59,-38.86 484.26,-32.06"/>
</g>
<!-- PulseStrideOffset -->
<g id="node9" class="node">
<title>PulseStrideOffset</title>
<polygon fill="none" stroke="black" points="575,-97 432,-97 432,-74 575,-74 575,-97"/>
<text text-anchor="middle" x="503.5" y="-81.8" font-family="Times,serif" font-size="14.00">PulseStrideOffset</text>
</g>
<!-- PulseStrideOffset&#45;&gt;DetectorTofData[SampleRun] -->
<g id="edge7" class="edge">
<title>PulseStrideOffset&#45;&gt;DetectorTofData[SampleRun]</title>
<path fill="none" stroke="black" d="M488.56,-73.74C475.73,-64.5 456.85,-50.89 440.86,-39.38"/>
<polygon fill="black" stroke="black" points="442.5,-36.24 432.34,-33.23 438.41,-41.92 442.5,-36.24"/>
</g>
<!-- DistanceResolution -->
<g id="node10" class="node">
<title>DistanceResolution</title>
<polygon fill="none" stroke="black" points="231,-166 76,-166 76,-143 231,-143 231,-166"/>
<text text-anchor="middle" x="153.5" y="-150.8" font-family="Times,serif" font-size="14.00">DistanceResolution</text>
</g>
<!-- DistanceResolution&#45;&gt;TimeOfFlightLookupTable -->
<g id="edge23" class="edge">
<title>DistanceResolution&#45;&gt;TimeOfFlightLookupTable</title>
<path fill="none" stroke="black" d="M205.24,-142.92C214.94,-141.13 225.01,-139.4 234.5,-138 382.87,-116.06 423.68,-120.97 571.99,-102.67"/>
<polygon fill="black" stroke="black" points="572.43,-106.15 581.92,-101.44 571.56,-99.2 572.43,-106.15"/>
</g>
<!-- Filename[SampleRun] -->
<g id="node11" class="node">
<title>Filename[SampleRun]</title>
<polygon fill="none" stroke="red" stroke-dasharray="5,2" points="1156,-646 981,-646 981,-623 1156,-623 1156,-646"/>
<text text-anchor="middle" x="1068.5" y="-630.8" font-family="Times,serif" font-size="14.00" fill="red">Filename[SampleRun]</text>
</g>
<!-- NeXusFileSpec[SampleRun] -->
<g id="node14" class="node">
<title>NeXusFileSpec[SampleRun]</title>
<polygon fill="none" stroke="black" points="1261,-587 1044,-587 1044,-554 1261,-554 1261,-587"/>
<text text-anchor="start" x="1052" y="-572.8" font-family="Times,serif" font-size="14.00">NeXusFileSpec[SampleRun]</text>
<text text-anchor="start" x="1082.5" y="-561.2" font-family="Times,serif" font-size="11.00">via:</text>
<text text-anchor="start" x="1103.5" y="-561.2" font-family="Times,serif" font-style="italic" font-size="11.00">file_path_to_file_spec</text>
</g>
<!-- Filename[SampleRun]&#45;&gt;NeXusFileSpec[SampleRun] -->
<g id="edge12" class="edge">
<title>Filename[SampleRun]&#45;&gt;NeXusFileSpec[SampleRun]</title>
<path fill="none" stroke="black" d="M1082.75,-622.98C1093.76,-614.86 1109.37,-603.33 1123.03,-593.25"/>
<polygon fill="black" stroke="black" points="1125.26,-595.95 1131.23,-587.2 1121.11,-590.32 1125.26,-595.95"/>
</g>
<!-- LookupTableRelativeErrorThreshold -->
<g id="node12" class="node">
<title>LookupTableRelativeErrorThreshold</title>
<polygon fill="none" stroke="black" points="513,-166 238,-166 238,-143 513,-143 513,-166"/>
<text text-anchor="middle" x="375.5" y="-150.8" font-family="Times,serif" font-size="14.00">LookupTableRelativeErrorThreshold</text>
</g>
<!-- LookupTableRelativeErrorThreshold&#45;&gt;TimeOfFlightLookupTable -->
<g id="edge27" class="edge">
<title>LookupTableRelativeErrorThreshold&#45;&gt;TimeOfFlightLookupTable</title>
<path fill="none" stroke="black" d="M423.81,-142.96C471.36,-132.58 544.85,-116.54 601.37,-104.21"/>
<polygon fill="black" stroke="black" points="602.34,-107.58 611.36,-102.03 600.84,-100.74 602.34,-107.58"/>
</g>
<!-- LtotalRange -->
<g id="node13" class="node">
<title>LtotalRange</title>
<polygon fill="none" stroke="black" points="624.5,-166 520.5,-166 520.5,-143 624.5,-143 624.5,-166"/>
<text text-anchor="middle" x="572.5" y="-150.8" font-family="Times,serif" font-size="14.00">LtotalRange</text>
</g>
<!-- LtotalRange&#45;&gt;TimeOfFlightLookupTable -->
<g id="edge22" class="edge">
<title>LtotalRange&#45;&gt;TimeOfFlightLookupTable</title>
<path fill="none" stroke="black" d="M590.17,-142.74C605.69,-133.28 628.72,-119.26 647.89,-107.58"/>
<polygon fill="black" stroke="black" points="649.95,-110.43 656.67,-102.23 646.31,-104.45 649.95,-110.43"/>
</g>
<!-- NeXusFileSpec[SampleRun]&#45;&gt;NeXusAllComponentLocationSpec[NXdisk_chopper, SampleRun] -->
<g id="edge8" class="edge">
<title>NeXusFileSpec[SampleRun]&#45;&gt;NeXusAllComponentLocationSpec[NXdisk_chopper, SampleRun]</title>
<path fill="none" stroke="black" d="M1043.92,-554.36C1026.05,-551.7 1007.74,-548.86 990.5,-546 938.91,-537.45 881.41,-526.78 835.19,-517.93"/>
<polygon fill="black" stroke="black" points="835.68,-514.46 825.2,-516.01 834.36,-521.33 835.68,-514.46"/>
</g>
<!-- NeXusComponentLocationSpec[NXsource, SampleRun] -->
<g id="node16" class="node">
<title>NeXusComponentLocationSpec[NXsource, SampleRun]</title>
<polygon fill="none" stroke="black" points="1764.5,-516 1354.5,-516 1354.5,-483 1764.5,-483 1764.5,-516"/>
<text text-anchor="start" x="1362.5" y="-501.8" font-family="Times,serif" font-size="14.00">NeXusComponentLocationSpec[NXsource, SampleRun]</text>
<text text-anchor="start" x="1481" y="-490.2" font-family="Times,serif" font-size="11.00">via:</text>
<text text-anchor="start" x="1502" y="-490.2" font-family="Times,serif" font-style="italic" font-size="11.00">unique_component_spec</text>
</g>
<!-- NeXusFileSpec[SampleRun]&#45;&gt;NeXusComponentLocationSpec[NXsource, SampleRun] -->
<g id="edge9" class="edge">
<title>NeXusFileSpec[SampleRun]&#45;&gt;NeXusComponentLocationSpec[NXsource, SampleRun]</title>
<path fill="none" stroke="black" d="M1261.05,-558.2C1289.27,-554.78 1319.59,-550.67 1347.5,-546 1393.29,-538.34 1444.16,-527.5 1484.6,-518.33"/>
<polygon fill="black" stroke="black" points="1485.41,-521.73 1494.38,-516.09 1483.85,-514.91 1485.41,-521.73"/>
</g>
<!-- NeXusClass[NXsource] -->
<g id="node15" class="node">
<title>NeXusClass[NXsource]</title>
<polygon fill="none" stroke="black" points="1338.5,-515 1190.5,-515 1190.5,-484 1338.5,-484 1338.5,-515"/>
<text text-anchor="start" x="1230" y="-502.4" font-family="Times,serif" font-size="12.00">[NXsource]</text>
<text text-anchor="start" x="1198.5" y="-491.2" font-family="Times,serif" font-size="11.00">via:</text>
<text text-anchor="start" x="1219.5" y="-491.2" font-family="Times,serif" font-style="italic" font-size="11.00">nx_class_for_source</text>
</g>
<!-- NeXusComponent[NXsource, SampleRun] -->
<g id="node17" class="node">
<title>NeXusComponent[NXsource, SampleRun]</title>
<polygon fill="none" stroke="black" points="1514,-447 1199,-447 1199,-414 1514,-414 1514,-447"/>
<text text-anchor="start" x="1207" y="-432.8" font-family="Times,serif" font-size="14.00">NeXusComponent[NXsource, SampleRun]</text>
<text text-anchor="start" x="1281.5" y="-421.2" font-family="Times,serif" font-size="11.00">via:</text>
<text text-anchor="start" x="1302.5" y="-421.2" font-family="Times,serif" font-style="italic" font-size="11.00">load_nexus_component</text>
</g>
<!-- NeXusClass[NXsource]&#45;&gt;NeXusComponent[NXsource, SampleRun] -->
<g id="edge11" class="edge">
<title>NeXusClass[NXsource]&#45;&gt;NeXusComponent[NXsource, SampleRun]</title>
<path fill="none" stroke="black" d="M1284.46,-483.96C1296.8,-474.97 1312.87,-463.27 1326.7,-453.2"/>
<polygon fill="black" stroke="black" points="1328.95,-455.89 1334.97,-447.18 1324.83,-450.24 1328.95,-455.89"/>
</g>
<!-- NeXusComponentLocationSpec[NXsource, SampleRun]&#45;&gt;NeXusComponent[NXsource, SampleRun] -->
<g id="edge10" class="edge">
<title>NeXusComponentLocationSpec[NXsource, SampleRun]&#45;&gt;NeXusComponent[NXsource, SampleRun]</title>
<path fill="none" stroke="black" d="M1512.42,-482.96C1482.93,-473.23 1444.74,-460.63 1413.54,-450.33"/>
<polygon fill="black" stroke="black" points="1414.27,-446.88 1403.68,-447.07 1412.08,-453.53 1414.27,-446.88"/>
</g>
<!-- NeXusTransformationChain[NXsource, SampleRun] -->
<g id="node19" class="node">
<title>NeXusTransformationChain[NXsource, SampleRun]</title>
<polygon fill="none" stroke="black" points="1531,-378 1146,-378 1146,-345 1531,-345 1531,-378"/>
<text text-anchor="start" x="1154" y="-363.8" font-family="Times,serif" font-size="14.00">NeXusTransformationChain[NXsource, SampleRun]</text>
<text text-anchor="start" x="1256.5" y="-352.2" font-family="Times,serif" font-size="11.00">via:</text>
<text text-anchor="start" x="1277.5" y="-352.2" font-family="Times,serif" font-style="italic" font-size="11.00">get_transformation_chain</text>
</g>
<!-- NeXusComponent[NXsource, SampleRun]&#45;&gt;NeXusTransformationChain[NXsource, SampleRun] -->
<g id="edge14" class="edge">
<title>NeXusComponent[NXsource, SampleRun]&#45;&gt;NeXusTransformationChain[NXsource, SampleRun]</title>
<path fill="none" stroke="black" d="M1352.33,-413.96C1350.26,-406.29 1347.73,-396.84 1345.39,-388.14"/>
<polygon fill="black" stroke="black" points="1348.75,-387.17 1342.78,-378.42 1341.99,-388.99 1348.75,-387.17"/>
</g>
<!-- PreopenNeXusFile -->
<g id="node18" class="node">
<title>PreopenNeXusFile</title>
<polygon fill="none" stroke="black" points="1312,-646 1163,-646 1163,-623 1312,-623 1312,-646"/>
<text text-anchor="middle" x="1237.5" y="-630.8" font-family="Times,serif" font-size="14.00">PreopenNeXusFile</text>
</g>
<!-- PreopenNeXusFile&#45;&gt;NeXusFileSpec[SampleRun] -->
<g id="edge13" class="edge">
<title>PreopenNeXusFile&#45;&gt;NeXusFileSpec[SampleRun]</title>
<path fill="none" stroke="black" d="M1223.08,-622.98C1211.94,-614.86 1196.14,-603.33 1182.32,-593.25"/>
<polygon fill="black" stroke="black" points="1184.16,-590.26 1174.02,-587.2 1180.04,-595.92 1184.16,-590.26"/>
</g>
<!-- NeXusTransformation[NXsource, SampleRun] -->
<g id="node20" class="node">
<title>NeXusTransformation[NXsource, SampleRun]</title>
<polygon fill="none" stroke="black" points="1510.5,-309 1166.5,-309 1166.5,-276 1510.5,-276 1510.5,-309"/>
<text text-anchor="start" x="1174.5" y="-294.8" font-family="Times,serif" font-size="14.00">NeXusTransformation[NXsource, SampleRun]</text>
<text text-anchor="start" x="1277.5" y="-283.2" font-family="Times,serif" font-size="11.00">via:</text>
<text text-anchor="start" x="1298.5" y="-283.2" font-family="Times,serif" font-style="italic" font-size="11.00">to_transformation</text>
</g>
<!-- NeXusTransformationChain[NXsource, SampleRun]&#45;&gt;NeXusTransformation[NXsource, SampleRun] -->
<g id="edge15" class="edge">
<title>NeXusTransformationChain[NXsource, SampleRun]&#45;&gt;NeXusTransformation[NXsource, SampleRun]</title>
<path fill="none" stroke="black" d="M1338.5,-344.96C1338.5,-337.38 1338.5,-328.05 1338.5,-319.42"/>
<polygon fill="black" stroke="black" points="1342,-319.42 1338.5,-309.42 1335,-319.42 1342,-319.42"/>
</g>
<!-- Position[NXsource, SampleRun] -->
<g id="node23" class="node">
<title>Position[NXsource, SampleRun]</title>
<polygon fill="none" stroke="black" points="1409.5,-240 1165.5,-240 1165.5,-207 1409.5,-207 1409.5,-240"/>
<text text-anchor="start" x="1173.5" y="-225.8" font-family="Times,serif" font-size="14.00">Position[NXsource, SampleRun]</text>
<text text-anchor="start" x="1227.5" y="-214.2" font-family="Times,serif" font-size="11.00">via:</text>
<text text-anchor="start" x="1248.5" y="-214.2" font-family="Times,serif" font-style="italic" font-size="11.00">compute_position</text>
</g>
<!-- NeXusTransformation[NXsource, SampleRun]&#45;&gt;Position[NXsource, SampleRun] -->
<g id="edge17" class="edge">
<title>NeXusTransformation[NXsource, SampleRun]&#45;&gt;Position[NXsource, SampleRun]</title>
<path fill="none" stroke="black" d="M1326.67,-275.96C1320.45,-267.79 1312.7,-257.6 1305.73,-248.45"/>
<polygon fill="black" stroke="black" points="1308.46,-246.26 1299.62,-240.42 1302.89,-250.5 1308.46,-246.26"/>
</g>
<!-- TimeInterval[SampleRun] -->
<g id="node21" class="node">
<title>TimeInterval[SampleRun]</title>
<polygon fill="none" stroke="black" points="1738.5,-378 1538.5,-378 1538.5,-345 1738.5,-345 1738.5,-378"/>
<text text-anchor="start" x="1546.5" y="-363.8" font-family="Times,serif" font-size="14.00">TimeInterval[SampleRun]</text>
<text text-anchor="start" x="1579" y="-352.2" font-family="Times,serif" font-size="11.00">via:</text>
<text text-anchor="start" x="1600" y="-352.2" font-family="Times,serif" font-style="italic" font-size="11.00">full_time_interval</text>
</g>
<!-- TimeInterval[SampleRun]&#45;&gt;NeXusTransformation[NXsource, SampleRun] -->
<g id="edge16" class="edge">
<title>TimeInterval[SampleRun]&#45;&gt;NeXusTransformation[NXsource, SampleRun]</title>
<path fill="none" stroke="black" d="M1568.92,-344.96C1523.75,-334.87 1464.78,-321.7 1417.8,-311.21"/>
<polygon fill="black" stroke="black" points="1418.48,-307.78 1407.96,-309.01 1416.96,-314.61 1418.48,-307.78"/>
</g>
<!-- NumberOfSimulatedNeutrons -->
<g id="node22" class="node">
<title>NumberOfSimulatedNeutrons</title>
<polygon fill="none" stroke="red" stroke-dasharray="5,2" points="1093,-235 862,-235 862,-212 1093,-212 1093,-235"/>
<text text-anchor="middle" x="977.5" y="-219.8" font-family="Times,serif" font-size="14.00" fill="red">NumberOfSimulatedNeutrons</text>
</g>
<!-- NumberOfSimulatedNeutrons&#45;&gt;SimulationResults -->
<g id="edge19" class="edge">
<title>NumberOfSimulatedNeutrons&#45;&gt;SimulationResults</title>
<path fill="none" stroke="black" d="M997.47,-211.88C1015.64,-202.22 1042.97,-187.69 1065.33,-175.8"/>
<polygon fill="black" stroke="black" points="1067.06,-178.84 1074.25,-171.05 1063.78,-172.66 1067.06,-178.84"/>
</g>
<!-- Position[NXsource, SampleRun]&#45;&gt;SimulationResults -->
<g id="edge20" class="edge">
<title>Position[NXsource, SampleRun]&#45;&gt;SimulationResults</title>
<path fill="none" stroke="black" d="M1244.82,-206.96C1218.33,-197.31 1184.08,-184.84 1155.94,-174.6"/>
<polygon fill="black" stroke="black" points="1156.86,-171.2 1146.26,-171.07 1154.46,-177.78 1156.86,-171.2"/>
</g>
<!-- PulsePeriod -->
<g id="node24" class="node">
<title>PulsePeriod</title>
<polygon fill="none" stroke="black" points="733,-166 632,-166 632,-143 733,-143 733,-166"/>
<text text-anchor="middle" x="682.5" y="-150.8" font-family="Times,serif" font-size="14.00">PulsePeriod</text>
</g>
<!-- PulsePeriod&#45;&gt;TimeOfFlightLookupTable -->
<g id="edge25" class="edge">
<title>PulsePeriod&#45;&gt;TimeOfFlightLookupTable</title>
<path fill="none" stroke="black" d="M682.5,-142.74C682.5,-134.52 682.5,-122.86 682.5,-112.28"/>
<polygon fill="black" stroke="black" points="686,-112.23 682.5,-102.23 679,-112.24 686,-112.23"/>
</g>
<!-- PulseStride -->
<g id="node25" class="node">
<title>PulseStride</title>
<polygon fill="none" stroke="black" points="840.5,-166 740.5,-166 740.5,-143 840.5,-143 840.5,-166"/>
<text text-anchor="middle" x="790.5" y="-150.8" font-family="Times,serif" font-size="14.00">PulseStride</text>
</g>
<!-- PulseStride&#45;&gt;TimeOfFlightLookupTable -->
<g id="edge26" class="edge">
<title>PulseStride&#45;&gt;TimeOfFlightLookupTable</title>
<path fill="none" stroke="black" d="M773.15,-142.74C757.91,-133.28 735.3,-119.26 716.48,-107.58"/>
<polygon fill="black" stroke="black" points="718.21,-104.53 707.86,-102.23 714.52,-110.48 718.21,-104.53"/>
</g>
<!-- SimulationResults&#45;&gt;TimeOfFlightLookupTable -->
<g id="edge21" class="edge">
<title>SimulationResults&#45;&gt;TimeOfFlightLookupTable</title>
<path fill="none" stroke="black" d="M1005.86,-137.96C941.28,-127.68 856.58,-114.2 790.07,-103.62"/>
<polygon fill="black" stroke="black" points="790.4,-100.13 779.98,-102.01 789.3,-107.04 790.4,-100.13"/>
</g>
<!-- TimeResolution -->
<g id="node27" class="node">
<title>TimeResolution</title>
<polygon fill="none" stroke="black" points="975.5,-166 847.5,-166 847.5,-143 975.5,-143 975.5,-166"/>
<text text-anchor="middle" x="911.5" y="-150.8" font-family="Times,serif" font-size="14.00">TimeResolution</text>
</g>
<!-- TimeResolution&#45;&gt;TimeOfFlightLookupTable -->
<g id="edge24" class="edge">
<title>TimeResolution&#45;&gt;TimeOfFlightLookupTable</title>
<path fill="none" stroke="black" d="M875.47,-142.96C840.72,-132.79 787.39,-117.19 745.59,-104.96"/>
<polygon fill="black" stroke="black" points="746.36,-101.54 735.78,-102.09 744.4,-108.26 746.36,-101.54"/>
</g>
</g>
</svg>
