<?xml version="1.0" encoding="utf-8" standalone="no"?>
<!DOCTYPE svg PUBLIC "-//W3C//DTD SVG 1.1//EN"
  "http://www.w3.org/Graphics/SVG/1.1/DTD/svg11.dtd">
<svg xmlns:xlink="http://www.w3.org/1999/xlink" width="872.39952pt" height="296.39952pt" viewBox="0 0 872.39952 296.39952" xmlns="http://www.w3.org/2000/svg" version="1.1">
 <metadata>
  <rdf:RDF xmlns:dc="http://purl.org/dc/elements/1.1/" xmlns:cc="http://creativecommons.org/ns#" xmlns:rdf="http://www.w3.org/1999/02/22-rdf-syntax-ns#">
   <cc:Work>
    <dc:type rdf:resource="http://purl.org/dc/dcmitype/StillImage"/>
    <dc:date>2025-07-15T15:00:42.380448</dc:date>
    <dc:format>image/svg+xml</dc:format>
    <dc:creator>
     <cc:Agent>
      <dc:title>Matplotlib v3.10.3, https://matplotlib.org/</dc:title>
     </cc:Agent>
    </dc:creator>
   </cc:Work>
  </rdf:RDF>
 </metadata>
 <defs>
  <style type="text/css">*{stroke-linejoin: round; stroke-linecap: butt}</style>
 </defs>
 <g id="figure_1">
  <g id="patch_1">
   <path d="M 0 296.39952 
L 872.39952 296.39952 
L 872.39952 0 
L 0 0 
z
" style="fill: #ffffff"/>
  </g>
  <g id="axes_1">
   <g id="patch_2">
    <path d="M 53.328125 257.158895 
L 431.87976 257.158895 
L 431.87976 7.2 
L 53.328125 7.2 
z
" style="fill: #ffffff"/>
   </g>
   <g id="matplotlib.axis_1">
    <g id="xtick_1">
     <g id="line2d_1">
      <defs>
       <path id="m697ae2b00f" d="M 0 0 
L 0 3.5 
" style="stroke: #000000; stroke-width: 0.8"/>
      </defs>
      <g>
       <use xlink:href="#m697ae2b00f" x="69.591522" y="257.158895" style="stroke: #000000; stroke-width: 0.8"/>
      </g>
     </g>
     <g id="text_1">
      <!-- 0 -->
      <g transform="translate(66.410272 271.757332) scale(0.1 -0.1)">
       <defs>
        <path id="DejaVuSans-30" d="M 2034 4250 
Q 1547 4250 1301 3770 
Q 1056 3291 1056 2328 
Q 1056 1369 1301 889 
Q 1547 409 2034 409 
Q 2525 409 2770 889 
Q 3016 1369 3016 2328 
Q 3016 3291 2770 3770 
Q 2525 4250 2034 4250 
z
M 2034 4750 
Q 2819 4750 3233 4129 
Q 3647 3509 3647 2328 
Q 3647 1150 3233 529 
Q 2819 -91 2034 -91 
Q 1250 -91 836 529 
Q 422 1150 422 2328 
Q 422 3509 836 4129 
Q 1250 4750 2034 4750 
z
" transform="scale(0.015625)"/>
       </defs>
       <use xlink:href="#DejaVuSans-30"/>
      </g>
     </g>
    </g>
    <g id="xtick_2">
     <g id="line2d_2">
      <g>
       <use xlink:href="#m697ae2b00f" x="138.959322" y="257.158895" style="stroke: #000000; stroke-width: 0.8"/>
      </g>
     </g>
     <g id="text_2">
      <!-- 1000 -->
      <g transform="translate(126.234322 271.757332) scale(0.1 -0.1)">
       <defs>
        <path id="DejaVuSans-31" d="M 794 531 
L 1825 531 
L 1825 4091 
L 703 3866 
L 703 4441 
L 1819 4666 
L 2450 4666 
L 2450 531 
L 3481 531 
L 3481 0 
L 794 0 
L 794 531 
z
" transform="scale(0.015625)"/>
       </defs>
       <use xlink:href="#DejaVuSans-31"/>
       <use xlink:href="#DejaVuSans-30" transform="translate(63.623047 0)"/>
       <use xlink:href="#DejaVuSans-30" transform="translate(127.246094 0)"/>
       <use xlink:href="#DejaVuSans-30" transform="translate(190.869141 0)"/>
      </g>
     </g>
    </g>
    <g id="xtick_3">
     <g id="line2d_3">
      <g>
       <use xlink:href="#m697ae2b00f" x="208.327121" y="257.158895" style="stroke: #000000; stroke-width: 0.8"/>
      </g>
     </g>
     <g id="text_3">
      <!-- 2000 -->
      <g transform="translate(195.602121 271.757332) scale(0.1 -0.1)">
       <defs>
        <path id="DejaVuSans-32" d="M 1228 531 
L 3431 531 
L 3431 0 
L 469 0 
L 469 531 
Q 828 903 1448 1529 
Q 2069 2156 2228 2338 
Q 2531 2678 2651 2914 
Q 2772 3150 2772 3378 
Q 2772 3750 2511 3984 
Q 2250 4219 1831 4219 
Q 1534 4219 1204 4116 
Q 875 4013 500 3803 
L 500 4441 
Q 881 4594 1212 4672 
Q 1544 4750 1819 4750 
Q 2544 4750 2975 4387 
Q 3406 4025 3406 3419 
Q 3406 3131 3298 2873 
Q 3191 2616 2906 2266 
Q 2828 2175 2409 1742 
Q 1991 1309 1228 531 
z
" transform="scale(0.015625)"/>
       </defs>
       <use xlink:href="#DejaVuSans-32"/>
       <use xlink:href="#DejaVuSans-30" transform="translate(63.623047 0)"/>
       <use xlink:href="#DejaVuSans-30" transform="translate(127.246094 0)"/>
       <use xlink:href="#DejaVuSans-30" transform="translate(190.869141 0)"/>
      </g>
     </g>
    </g>
    <g id="xtick_4">
     <g id="line2d_4">
      <g>
       <use xlink:href="#m697ae2b00f" x="277.694921" y="257.158895" style="stroke: #000000; stroke-width: 0.8"/>
      </g>
     </g>
     <g id="text_4">
      <!-- 3000 -->
      <g transform="translate(264.969921 271.757332) scale(0.1 -0.1)">
       <defs>
        <path id="DejaVuSans-33" d="M 2597 2516 
Q 3050 2419 3304 2112 
Q 3559 1806 3559 1356 
Q 3559 666 3084 287 
Q 2609 -91 1734 -91 
Q 1441 -91 1130 -33 
Q 819 25 488 141 
L 488 750 
Q 750 597 1062 519 
Q 1375 441 1716 441 
Q 2309 441 2620 675 
Q 2931 909 2931 1356 
Q 2931 1769 2642 2001 
Q 2353 2234 1838 2234 
L 1294 2234 
L 1294 2753 
L 1863 2753 
Q 2328 2753 2575 2939 
Q 2822 3125 2822 3475 
Q 2822 3834 2567 4026 
Q 2313 4219 1838 4219 
Q 1578 4219 1281 4162 
Q 984 4106 628 3988 
L 628 4550 
Q 988 4650 1302 4700 
Q 1616 4750 1894 4750 
Q 2613 4750 3031 4423 
Q 3450 4097 3450 3541 
Q 3450 3153 3228 2886 
Q 3006 2619 2597 2516 
z
" transform="scale(0.015625)"/>
       </defs>
       <use xlink:href="#DejaVuSans-33"/>
       <use xlink:href="#DejaVuSans-30" transform="translate(63.623047 0)"/>
       <use xlink:href="#DejaVuSans-30" transform="translate(127.246094 0)"/>
       <use xlink:href="#DejaVuSans-30" transform="translate(190.869141 0)"/>
      </g>
     </g>
    </g>
    <g id="xtick_5">
     <g id="line2d_5">
      <g>
       <use xlink:href="#m697ae2b00f" x="347.062721" y="257.158895" style="stroke: #000000; stroke-width: 0.8"/>
      </g>
     </g>
     <g id="text_5">
      <!-- 4000 -->
      <g transform="translate(334.337721 271.757332) scale(0.1 -0.1)">
       <defs>
        <path id="DejaVuSans-34" d="M 2419 4116 
L 825 1625 
L 2419 1625 
L 2419 4116 
z
M 2253 4666 
L 3047 4666 
L 3047 1625 
L 3713 1625 
L 3713 1100 
L 3047 1100 
L 3047 0 
L 2419 0 
L 2419 1100 
L 313 1100 
L 313 1709 
L 2253 4666 
z
" transform="scale(0.015625)"/>
       </defs>
       <use xlink:href="#DejaVuSans-34"/>
       <use xlink:href="#DejaVuSans-30" transform="translate(63.623047 0)"/>
       <use xlink:href="#DejaVuSans-30" transform="translate(127.246094 0)"/>
       <use xlink:href="#DejaVuSans-30" transform="translate(190.869141 0)"/>
      </g>
     </g>
    </g>
    <g id="xtick_6">
     <g id="line2d_6">
      <g>
       <use xlink:href="#m697ae2b00f" x="416.43052" y="257.158895" style="stroke: #000000; stroke-width: 0.8"/>
      </g>
     </g>
     <g id="text_6">
      <!-- 5000 -->
      <g transform="translate(403.70552 271.757332) scale(0.1 -0.1)">
       <defs>
        <path id="DejaVuSans-35" d="M 691 4666 
L 3169 4666 
L 3169 4134 
L 1269 4134 
L 1269 2991 
Q 1406 3038 1543 3061 
Q 1681 3084 1819 3084 
Q 2600 3084 3056 2656 
Q 3513 2228 3513 1497 
Q 3513 744 3044 326 
Q 2575 -91 1722 -91 
Q 1428 -91 1123 -41 
Q 819 9 494 109 
L 494 744 
Q 775 591 1075 516 
Q 1375 441 1709 441 
Q 2250 441 2565 725 
Q 2881 1009 2881 1497 
Q 2881 1984 2565 2268 
Q 2250 2553 1709 2553 
Q 1456 2553 1204 2497 
Q 953 2441 691 2322 
L 691 4666 
z
" transform="scale(0.015625)"/>
       </defs>
       <use xlink:href="#DejaVuSans-35"/>
       <use xlink:href="#DejaVuSans-30" transform="translate(63.623047 0)"/>
       <use xlink:href="#DejaVuSans-30" transform="translate(127.246094 0)"/>
       <use xlink:href="#DejaVuSans-30" transform="translate(190.869141 0)"/>
      </g>
     </g>
    </g>
    <g id="text_7">
     <!-- birth_time [µs] -->
     <g transform="translate(205.78363 285.435457) scale(0.1 -0.1)">
      <defs>
       <path id="DejaVuSans-62" d="M 3116 1747 
Q 3116 2381 2855 2742 
Q 2594 3103 2138 3103 
Q 1681 3103 1420 2742 
Q 1159 2381 1159 1747 
Q 1159 1113 1420 752 
Q 1681 391 2138 391 
Q 2594 391 2855 752 
Q 3116 1113 3116 1747 
z
M 1159 2969 
Q 1341 3281 1617 3432 
Q 1894 3584 2278 3584 
Q 2916 3584 3314 3078 
Q 3713 2572 3713 1747 
Q 3713 922 3314 415 
Q 2916 -91 2278 -91 
Q 1894 -91 1617 61 
Q 1341 213 1159 525 
L 1159 0 
L 581 0 
L 581 4863 
L 1159 4863 
L 1159 2969 
z
" transform="scale(0.015625)"/>
       <path id="DejaVuSans-69" d="M 603 3500 
L 1178 3500 
L 1178 0 
L 603 0 
L 603 3500 
z
M 603 4863 
L 1178 4863 
L 1178 4134 
L 603 4134 
L 603 4863 
z
" transform="scale(0.015625)"/>
       <path id="DejaVuSans-72" d="M 2631 2963 
Q 2534 3019 2420 3045 
Q 2306 3072 2169 3072 
Q 1681 3072 1420 2755 
Q 1159 2438 1159 1844 
L 1159 0 
L 581 0 
L 581 3500 
L 1159 3500 
L 1159 2956 
Q 1341 3275 1631 3429 
Q 1922 3584 2338 3584 
Q 2397 3584 2469 3576 
Q 2541 3569 2628 3553 
L 2631 2963 
z
" transform="scale(0.015625)"/>
       <path id="DejaVuSans-74" d="M 1172 4494 
L 1172 3500 
L 2356 3500 
L 2356 3053 
L 1172 3053 
L 1172 1153 
Q 1172 725 1289 603 
Q 1406 481 1766 481 
L 2356 481 
L 2356 0 
L 1766 0 
Q 1100 0 847 248 
Q 594 497 594 1153 
L 594 3053 
L 172 3053 
L 172 3500 
L 594 3500 
L 594 4494 
L 1172 4494 
z
" transform="scale(0.015625)"/>
       <path id="DejaVuSans-68" d="M 3513 2113 
L 3513 0 
L 2938 0 
L 2938 2094 
Q 2938 2591 2744 2837 
Q 2550 3084 2163 3084 
Q 1697 3084 1428 2787 
Q 1159 2491 1159 1978 
L 1159 0 
L 581 0 
L 581 4863 
L 1159 4863 
L 1159 2956 
Q 1366 3272 1645 3428 
Q 1925 3584 2291 3584 
Q 2894 3584 3203 3211 
Q 3513 2838 3513 2113 
z
" transform="scale(0.015625)"/>
       <path id="DejaVuSans-5f" d="M 3263 -1063 
L 3263 -1509 
L -63 -1509 
L -63 -1063 
L 3263 -1063 
z
" transform="scale(0.015625)"/>
       <path id="DejaVuSans-6d" d="M 3328 2828 
Q 3544 3216 3844 3400 
Q 4144 3584 4550 3584 
Q 5097 3584 5394 3201 
Q 5691 2819 5691 2113 
L 5691 0 
L 5113 0 
L 5113 2094 
Q 5113 2597 4934 2840 
Q 4756 3084 4391 3084 
Q 3944 3084 3684 2787 
Q 3425 2491 3425 1978 
L 3425 0 
L 2847 0 
L 2847 2094 
Q 2847 2600 2669 2842 
Q 2491 3084 2119 3084 
Q 1678 3084 1418 2786 
Q 1159 2488 1159 1978 
L 1159 0 
L 581 0 
L 581 3500 
L 1159 3500 
L 1159 2956 
Q 1356 3278 1631 3431 
Q 1906 3584 2284 3584 
Q 2666 3584 2933 3390 
Q 3200 3197 3328 2828 
z
" transform="scale(0.015625)"/>
       <path id="DejaVuSans-65" d="M 3597 1894 
L 3597 1613 
L 953 1613 
Q 991 1019 1311 708 
Q 1631 397 2203 397 
Q 2534 397 2845 478 
Q 3156 559 3463 722 
L 3463 178 
Q 3153 47 2828 -22 
Q 2503 -91 2169 -91 
Q 1331 -91 842 396 
Q 353 884 353 1716 
Q 353 2575 817 3079 
Q 1281 3584 2069 3584 
Q 2775 3584 3186 3129 
Q 3597 2675 3597 1894 
z
M 3022 2063 
Q 3016 2534 2758 2815 
Q 2500 3097 2075 3097 
Q 1594 3097 1305 2825 
Q 1016 2553 972 2059 
L 3022 2063 
z
" transform="scale(0.015625)"/>
       <path id="DejaVuSans-20" transform="scale(0.015625)"/>
       <path id="DejaVuSans-5b" d="M 550 4863 
L 1875 4863 
L 1875 4416 
L 1125 4416 
L 1125 -397 
L 1875 -397 
L 1875 -844 
L 550 -844 
L 550 4863 
z
" transform="scale(0.015625)"/>
       <path id="DejaVuSans-b5" d="M 544 -1331 
L 544 3500 
L 1119 3500 
L 1119 1325 
Q 1119 872 1334 640 
Q 1550 409 1972 409 
Q 2434 409 2667 671 
Q 2900 934 2900 1459 
L 2900 3500 
L 3475 3500 
L 3475 806 
Q 3475 619 3529 530 
Q 3584 441 3700 441 
Q 3728 441 3778 458 
Q 3828 475 3916 513 
L 3916 50 
Q 3788 -22 3673 -56 
Q 3559 -91 3450 -91 
Q 3234 -91 3106 31 
Q 2978 153 2931 403 
Q 2775 156 2548 32 
Q 2322 -91 2016 -91 
Q 1697 -91 1473 31 
Q 1250 153 1119 397 
L 1119 -1331 
L 544 -1331 
z
" transform="scale(0.015625)"/>
       <path id="DejaVuSans-73" d="M 2834 3397 
L 2834 2853 
Q 2591 2978 2328 3040 
Q 2066 3103 1784 3103 
Q 1356 3103 1142 2972 
Q 928 2841 928 2578 
Q 928 2378 1081 2264 
Q 1234 2150 1697 2047 
L 1894 2003 
Q 2506 1872 2764 1633 
Q 3022 1394 3022 966 
Q 3022 478 2636 193 
Q 2250 -91 1575 -91 
Q 1294 -91 989 -36 
Q 684 19 347 128 
L 347 722 
Q 666 556 975 473 
Q 1284 391 1588 391 
Q 1994 391 2212 530 
Q 2431 669 2431 922 
Q 2431 1156 2273 1281 
Q 2116 1406 1581 1522 
L 1381 1569 
Q 847 1681 609 1914 
Q 372 2147 372 2553 
Q 372 3047 722 3315 
Q 1072 3584 1716 3584 
Q 2034 3584 2315 3537 
Q 2597 3491 2834 3397 
z
" transform="scale(0.015625)"/>
       <path id="DejaVuSans-5d" d="M 1947 4863 
L 1947 -844 
L 622 -844 
L 622 -397 
L 1369 -397 
L 1369 4416 
L 622 4416 
L 622 4863 
L 1947 4863 
z
" transform="scale(0.015625)"/>
      </defs>
      <use xlink:href="#DejaVuSans-62"/>
      <use xlink:href="#DejaVuSans-69" transform="translate(63.476562 0)"/>
      <use xlink:href="#DejaVuSans-72" transform="translate(91.259766 0)"/>
      <use xlink:href="#DejaVuSans-74" transform="translate(132.373047 0)"/>
      <use xlink:href="#DejaVuSans-68" transform="translate(171.582031 0)"/>
      <use xlink:href="#DejaVuSans-5f" transform="translate(234.960938 0)"/>
      <use xlink:href="#DejaVuSans-74" transform="translate(284.960938 0)"/>
      <use xlink:href="#DejaVuSans-69" transform="translate(324.169922 0)"/>
      <use xlink:href="#DejaVuSans-6d" transform="translate(351.953125 0)"/>
      <use xlink:href="#DejaVuSans-65" transform="translate(449.365234 0)"/>
      <use xlink:href="#DejaVuSans-20" transform="translate(510.888672 0)"/>
      <use xlink:href="#DejaVuSans-5b" transform="translate(542.675781 0)"/>
      <use xlink:href="#DejaVuSans-b5" transform="translate(581.689453 0)"/>
      <use xlink:href="#DejaVuSans-73" transform="translate(645.3125 0)"/>
      <use xlink:href="#DejaVuSans-5d" transform="translate(697.412109 0)"/>
     </g>
    </g>
   </g>
   <g id="matplotlib.axis_2">
    <g id="ytick_1">
     <g id="line2d_7">
      <defs>
       <path id="m1697cf344f" d="M 0 0 
L -3.5 0 
" style="stroke: #000000; stroke-width: 0.8"/>
      </defs>
      <g>
       <use xlink:href="#m1697cf344f" x="53.328125" y="245.797127" style="stroke: #000000; stroke-width: 0.8"/>
      </g>
     </g>
     <g id="text_8">
      <!-- 0 -->
      <g transform="translate(39.965625 249.596346) scale(0.1 -0.1)">
       <use xlink:href="#DejaVuSans-30"/>
      </g>
     </g>
    </g>
    <g id="ytick_2">
     <g id="line2d_8">
      <g>
       <use xlink:href="#m1697cf344f" x="53.328125" y="208.90827" style="stroke: #000000; stroke-width: 0.8"/>
      </g>
     </g>
     <g id="text_9">
      <!-- 200 -->
      <g transform="translate(27.240625 212.707489) scale(0.1 -0.1)">
       <use xlink:href="#DejaVuSans-32"/>
       <use xlink:href="#DejaVuSans-30" transform="translate(63.623047 0)"/>
       <use xlink:href="#DejaVuSans-30" transform="translate(127.246094 0)"/>
      </g>
     </g>
    </g>
    <g id="ytick_3">
     <g id="line2d_9">
      <g>
       <use xlink:href="#m1697cf344f" x="53.328125" y="172.019413" style="stroke: #000000; stroke-width: 0.8"/>
      </g>
     </g>
     <g id="text_10">
      <!-- 400 -->
      <g transform="translate(27.240625 175.818632) scale(0.1 -0.1)">
       <use xlink:href="#DejaVuSans-34"/>
       <use xlink:href="#DejaVuSans-30" transform="translate(63.623047 0)"/>
       <use xlink:href="#DejaVuSans-30" transform="translate(127.246094 0)"/>
      </g>
     </g>
    </g>
    <g id="ytick_4">
     <g id="line2d_10">
      <g>
       <use xlink:href="#m1697cf344f" x="53.328125" y="135.130556" style="stroke: #000000; stroke-width: 0.8"/>
      </g>
     </g>
     <g id="text_11">
      <!-- 600 -->
      <g transform="translate(27.240625 138.929775) scale(0.1 -0.1)">
       <defs>
        <path id="DejaVuSans-36" d="M 2113 2584 
Q 1688 2584 1439 2293 
Q 1191 2003 1191 1497 
Q 1191 994 1439 701 
Q 1688 409 2113 409 
Q 2538 409 2786 701 
Q 3034 994 3034 1497 
Q 3034 2003 2786 2293 
Q 2538 2584 2113 2584 
z
M 3366 4563 
L 3366 3988 
Q 3128 4100 2886 4159 
Q 2644 4219 2406 4219 
Q 1781 4219 1451 3797 
Q 1122 3375 1075 2522 
Q 1259 2794 1537 2939 
Q 1816 3084 2150 3084 
Q 2853 3084 3261 2657 
Q 3669 2231 3669 1497 
Q 3669 778 3244 343 
Q 2819 -91 2113 -91 
Q 1303 -91 875 529 
Q 447 1150 447 2328 
Q 447 3434 972 4092 
Q 1497 4750 2381 4750 
Q 2619 4750 2861 4703 
Q 3103 4656 3366 4563 
z
" transform="scale(0.015625)"/>
       </defs>
       <use xlink:href="#DejaVuSans-36"/>
       <use xlink:href="#DejaVuSans-30" transform="translate(63.623047 0)"/>
       <use xlink:href="#DejaVuSans-30" transform="translate(127.246094 0)"/>
      </g>
     </g>
    </g>
    <g id="ytick_5">
     <g id="line2d_11">
      <g>
       <use xlink:href="#m1697cf344f" x="53.328125" y="98.241699" style="stroke: #000000; stroke-width: 0.8"/>
      </g>
     </g>
     <g id="text_12">
      <!-- 800 -->
      <g transform="translate(27.240625 102.040918) scale(0.1 -0.1)">
       <defs>
        <path id="DejaVuSans-38" d="M 2034 2216 
Q 1584 2216 1326 1975 
Q 1069 1734 1069 1313 
Q 1069 891 1326 650 
Q 1584 409 2034 409 
Q 2484 409 2743 651 
Q 3003 894 3003 1313 
Q 3003 1734 2745 1975 
Q 2488 2216 2034 2216 
z
M 1403 2484 
Q 997 2584 770 2862 
Q 544 3141 544 3541 
Q 544 4100 942 4425 
Q 1341 4750 2034 4750 
Q 2731 4750 3128 4425 
Q 3525 4100 3525 3541 
Q 3525 3141 3298 2862 
Q 3072 2584 2669 2484 
Q 3125 2378 3379 2068 
Q 3634 1759 3634 1313 
Q 3634 634 3220 271 
Q 2806 -91 2034 -91 
Q 1263 -91 848 271 
Q 434 634 434 1313 
Q 434 1759 690 2068 
Q 947 2378 1403 2484 
z
M 1172 3481 
Q 1172 3119 1398 2916 
Q 1625 2713 2034 2713 
Q 2441 2713 2670 2916 
Q 2900 3119 2900 3481 
Q 2900 3844 2670 4047 
Q 2441 4250 2034 4250 
Q 1625 4250 1398 4047 
Q 1172 3844 1172 3481 
z
" transform="scale(0.015625)"/>
       </defs>
       <use xlink:href="#DejaVuSans-38"/>
       <use xlink:href="#DejaVuSans-30" transform="translate(63.623047 0)"/>
       <use xlink:href="#DejaVuSans-30" transform="translate(127.246094 0)"/>
      </g>
     </g>
    </g>
    <g id="ytick_6">
     <g id="line2d_12">
      <g>
       <use xlink:href="#m1697cf344f" x="53.328125" y="61.352842" style="stroke: #000000; stroke-width: 0.8"/>
      </g>
     </g>
     <g id="text_13">
      <!-- 1000 -->
      <g transform="translate(20.878125 65.152061) scale(0.1 -0.1)">
       <use xlink:href="#DejaVuSans-31"/>
       <use xlink:href="#DejaVuSans-30" transform="translate(63.623047 0)"/>
       <use xlink:href="#DejaVuSans-30" transform="translate(127.246094 0)"/>
       <use xlink:href="#DejaVuSans-30" transform="translate(190.869141 0)"/>
      </g>
     </g>
    </g>
    <g id="ytick_7">
     <g id="line2d_13">
      <g>
       <use xlink:href="#m1697cf344f" x="53.328125" y="24.463985" style="stroke: #000000; stroke-width: 0.8"/>
      </g>
     </g>
     <g id="text_14">
      <!-- 1200 -->
      <g transform="translate(20.878125 28.263204) scale(0.1 -0.1)">
       <use xlink:href="#DejaVuSans-31"/>
       <use xlink:href="#DejaVuSans-32" transform="translate(63.623047 0)"/>
       <use xlink:href="#DejaVuSans-30" transform="translate(127.246094 0)"/>
       <use xlink:href="#DejaVuSans-30" transform="translate(190.869141 0)"/>
      </g>
     </g>
    </g>
    <g id="text_15">
     <!-- [counts] -->
     <g transform="translate(14.798438 152.791947) rotate(-90) scale(0.1 -0.1)">
      <defs>
       <path id="DejaVuSans-63" d="M 3122 3366 
L 3122 2828 
Q 2878 2963 2633 3030 
Q 2388 3097 2138 3097 
Q 1578 3097 1268 2742 
Q 959 2388 959 1747 
Q 959 1106 1268 751 
Q 1578 397 2138 397 
Q 2388 397 2633 464 
Q 2878 531 3122 666 
L 3122 134 
Q 2881 22 2623 -34 
Q 2366 -91 2075 -91 
Q 1284 -91 818 406 
Q 353 903 353 1747 
Q 353 2603 823 3093 
Q 1294 3584 2113 3584 
Q 2378 3584 2631 3529 
Q 2884 3475 3122 3366 
z
" transform="scale(0.015625)"/>
       <path id="DejaVuSans-6f" d="M 1959 3097 
Q 1497 3097 1228 2736 
Q 959 2375 959 1747 
Q 959 1119 1226 758 
Q 1494 397 1959 397 
Q 2419 397 2687 759 
Q 2956 1122 2956 1747 
Q 2956 2369 2687 2733 
Q 2419 3097 1959 3097 
z
M 1959 3584 
Q 2709 3584 3137 3096 
Q 3566 2609 3566 1747 
Q 3566 888 3137 398 
Q 2709 -91 1959 -91 
Q 1206 -91 779 398 
Q 353 888 353 1747 
Q 353 2609 779 3096 
Q 1206 3584 1959 3584 
z
" transform="scale(0.015625)"/>
       <path id="DejaVuSans-75" d="M 544 1381 
L 544 3500 
L 1119 3500 
L 1119 1403 
Q 1119 906 1312 657 
Q 1506 409 1894 409 
Q 2359 409 2629 706 
Q 2900 1003 2900 1516 
L 2900 3500 
L 3475 3500 
L 3475 0 
L 2900 0 
L 2900 538 
Q 2691 219 2414 64 
Q 2138 -91 1772 -91 
Q 1169 -91 856 284 
Q 544 659 544 1381 
z
M 1991 3584 
L 1991 3584 
z
" transform="scale(0.015625)"/>
       <path id="DejaVuSans-6e" d="M 3513 2113 
L 3513 0 
L 2938 0 
L 2938 2094 
Q 2938 2591 2744 2837 
Q 2550 3084 2163 3084 
Q 1697 3084 1428 2787 
Q 1159 2491 1159 1978 
L 1159 0 
L 581 0 
L 581 3500 
L 1159 3500 
L 1159 2956 
Q 1366 3272 1645 3428 
Q 1925 3584 2291 3584 
Q 2894 3584 3203 3211 
Q 3513 2838 3513 2113 
z
" transform="scale(0.015625)"/>
      </defs>
      <use xlink:href="#DejaVuSans-5b"/>
      <use xlink:href="#DejaVuSans-63" transform="translate(39.013672 0)"/>
      <use xlink:href="#DejaVuSans-6f" transform="translate(93.994141 0)"/>
      <use xlink:href="#DejaVuSans-75" transform="translate(155.175781 0)"/>
      <use xlink:href="#DejaVuSans-6e" transform="translate(218.554688 0)"/>
      <use xlink:href="#DejaVuSans-74" transform="translate(281.933594 0)"/>
      <use xlink:href="#DejaVuSans-73" transform="translate(321.142578 0)"/>
      <use xlink:href="#DejaVuSans-5d" transform="translate(373.242188 0)"/>
     </g>
    </g>
   </g>
   <g id="line2d_14">
    <path d="M 70.535017 231.226029 
L 71.682144 231.226029 
L 71.682144 227.537143 
L 72.82927 227.537143 
L 72.82927 217.023819 
L 73.976396 217.023819 
L 73.976396 211.674934 
L 75.123522 211.674934 
L 75.123522 201.714943 
L 76.270648 201.714943 
L 76.270648 191.754952 
L 77.417774 191.754952 
L 77.417774 184.930513 
L 78.564901 184.930513 
L 78.564901 173.863856 
L 79.712027 173.863856 
L 79.712027 169.990526 
L 80.859153 169.990526 
L 80.859153 166.117196 
L 82.006279 166.117196 
L 82.006279 154.68165 
L 83.153405 154.68165 
L 83.153405 146.566102 
L 84.300531 146.566102 
L 84.300531 140.294996 
L 85.447658 140.294996 
L 85.447658 135.683889 
L 86.594784 135.683889 
L 86.594784 125.539453 
L 87.74191 125.539453 
L 87.74191 134.392779 
L 88.889036 134.392779 
L 88.889036 125.355009 
L 90.036162 125.355009 
L 90.036162 115.94835 
L 91.183288 115.94835 
L 91.183288 114.288352 
L 92.330415 114.288352 
L 92.330415 109.123912 
L 93.477541 109.123912 
L 93.477541 101.008363 
L 94.624667 101.008363 
L 94.624667 96.212812 
L 95.771793 96.212812 
L 95.771793 92.155038 
L 96.918919 92.155038 
L 96.918919 91.601705 
L 98.066045 91.601705 
L 98.066045 84.961711 
L 99.213172 84.961711 
L 99.213172 89.388373 
L 100.360298 89.388373 
L 100.360298 83.117268 
L 101.507424 83.117268 
L 101.507424 73.710609 
L 102.65455 73.710609 
L 102.65455 74.817275 
L 103.801676 74.817275 
L 103.801676 83.855045 
L 104.948802 83.855045 
L 104.948802 66.517282 
L 106.095929 66.517282 
L 106.095929 74.079498 
L 107.243055 74.079498 
L 107.243055 70.206168 
L 108.390181 70.206168 
L 108.390181 66.332838 
L 109.537307 66.332838 
L 109.537307 68.730613 
L 110.684433 68.730613 
L 110.684433 54.897292 
L 111.831559 54.897292 
L 111.831559 73.710609 
L 112.978686 73.710609 
L 112.978686 58.770622 
L 114.125812 58.770622 
L 114.125812 59.139511 
L 115.272938 59.139511 
L 115.272938 55.081736 
L 116.420064 55.081736 
L 116.420064 54.712848 
L 117.56719 54.712848 
L 117.56719 62.275063 
L 118.714316 62.275063 
L 118.714316 53.606182 
L 119.861443 53.606182 
L 119.861443 49.917296 
L 121.008569 49.917296 
L 121.008569 50.101741 
L 122.155695 50.101741 
L 122.155695 57.663956 
L 123.302821 57.663956 
L 123.302821 53.790626 
L 124.449947 53.790626 
L 124.449947 43.830635 
L 125.597073 43.830635 
L 125.597073 40.879526 
L 126.7442 40.879526 
L 126.7442 44.015079 
L 127.891326 44.015079 
L 127.891326 41.063971 
L 129.038452 41.063971 
L 129.038452 37.375085 
L 130.185578 37.375085 
L 130.185578 56.188402 
L 131.332704 56.188402 
L 131.332704 44.383968 
L 132.47983 44.383968 
L 132.47983 42.908414 
L 133.626957 42.908414 
L 133.626957 52.868405 
L 134.774083 52.868405 
L 134.774083 35.346198 
L 135.921209 35.346198 
L 135.921209 40.879526 
L 137.068335 40.879526 
L 137.068335 44.015079 
L 138.215461 44.015079 
L 138.215461 38.850639 
L 139.362587 38.850639 
L 139.362587 27.783982 
L 140.509714 27.783982 
L 140.509714 32.026201 
L 141.65684 32.026201 
L 141.65684 38.481751 
L 142.803966 38.481751 
L 142.803966 34.792865 
L 143.951092 34.792865 
L 143.951092 44.568412 
L 145.098218 44.568412 
L 145.098218 44.752856 
L 146.245344 44.752856 
L 146.245344 44.199524 
L 147.392471 44.199524 
L 147.392471 47.335076 
L 148.539597 47.335076 
L 148.539597 45.306189 
L 149.686723 45.306189 
L 149.686723 35.161754 
L 150.833849 35.161754 
L 150.833849 36.452864 
L 151.980975 36.452864 
L 151.980975 35.346198 
L 153.128101 35.346198 
L 153.128101 42.908414 
L 154.275228 42.908414 
L 154.275228 34.423976 
L 155.422354 34.423976 
L 155.422354 32.948422 
L 156.56948 32.948422 
L 156.56948 30.550646 
L 157.716606 30.550646 
L 157.716606 43.461746 
L 158.863732 43.461746 
L 158.863732 30.181758 
L 160.010858 30.181758 
L 160.010858 28.890648 
L 161.157985 28.890648 
L 161.157985 28.337315 
L 162.305111 28.337315 
L 162.305111 28.706204 
L 163.452237 28.706204 
L 163.452237 40.510638 
L 164.599363 40.510638 
L 164.599363 35.161754 
L 165.746489 35.161754 
L 165.746489 41.617304 
L 166.893615 41.617304 
L 166.893615 40.510638 
L 168.040742 40.510638 
L 168.040742 40.695082 
L 169.187868 40.695082 
L 169.187868 42.170636 
L 170.334994 42.170636 
L 170.334994 28.521759 
L 171.48212 28.521759 
L 171.48212 34.977309 
L 172.629246 34.977309 
L 172.629246 42.723969 
L 173.776372 42.723969 
L 173.776372 34.239532 
L 174.923499 34.239532 
L 174.923499 32.210645 
L 176.070625 32.210645 
L 176.070625 36.452864 
L 177.217751 36.452864 
L 177.217751 45.859522 
L 178.364877 45.859522 
L 178.364877 34.977309 
L 179.512003 34.977309 
L 179.512003 29.443981 
L 180.659129 29.443981 
L 180.659129 21.512877 
L 181.806256 21.512877 
L 181.806256 33.501755 
L 182.953382 33.501755 
L 182.953382 32.948422 
L 184.100508 32.948422 
L 184.100508 30.919535 
L 185.247634 30.919535 
L 185.247634 27.230649 
L 186.39476 27.230649 
L 186.39476 28.337315 
L 187.541886 28.337315 
L 187.541886 31.288424 
L 188.689013 31.288424 
L 188.689013 40.326194 
L 189.836139 40.326194 
L 189.836139 41.432859 
L 190.983265 41.432859 
L 190.983265 36.268419 
L 192.130391 36.268419 
L 192.130391 30.550646 
L 193.277517 30.550646 
L 193.277517 35.530642 
L 194.424643 35.530642 
L 194.424643 36.083975 
L 195.57177 36.083975 
L 195.57177 45.490634 
L 196.718896 45.490634 
L 196.718896 37.928418 
L 197.866022 37.928418 
L 197.866022 39.403972 
L 199.013148 39.403972 
L 199.013148 30.181758 
L 200.160274 30.181758 
L 200.160274 32.579534 
L 201.3074 32.579534 
L 201.3074 29.075092 
L 202.454527 29.075092 
L 202.454527 25.570651 
L 203.601653 25.570651 
L 203.601653 34.792865 
L 204.748779 34.792865 
L 204.748779 28.890648 
L 205.895905 28.890648 
L 205.895905 38.297306 
L 207.043031 38.297306 
L 207.043031 32.579534 
L 208.190157 32.579534 
L 208.190157 34.977309 
L 209.337284 34.977309 
L 209.337284 34.608421 
L 210.48441 34.608421 
L 210.48441 37.006196 
L 212.778662 37.006196 
L 212.778662 35.530642 
L 213.925788 35.530642 
L 213.925788 36.637308 
L 215.072914 36.637308 
L 215.072914 28.521759 
L 216.220041 28.521759 
L 216.220041 34.792865 
L 217.367167 34.792865 
L 217.367167 31.657312 
L 218.514293 31.657312 
L 218.514293 23.172875 
L 219.661419 23.172875 
L 219.661419 39.219528 
L 220.808545 39.219528 
L 220.808545 36.083975 
L 221.955671 36.083975 
L 221.955671 35.715086 
L 223.102798 35.715086 
L 223.102798 34.792865 
L 224.249924 34.792865 
L 224.249924 49.917296 
L 225.39705 49.917296 
L 225.39705 32.395089 
L 226.544176 32.395089 
L 226.544176 32.763978 
L 227.691302 32.763978 
L 227.691302 23.910652 
L 228.838428 23.910652 
L 228.838428 36.821752 
L 229.985555 36.821752 
L 229.985555 29.443981 
L 231.132681 29.443981 
L 231.132681 28.337315 
L 232.279807 28.337315 
L 232.279807 27.230649 
L 233.426933 27.230649 
L 233.426933 31.841756 
L 234.574059 31.841756 
L 234.574059 25.939539 
L 235.721185 25.939539 
L 235.721185 20.037322 
L 236.868312 20.037322 
L 236.868312 18.561768 
L 238.015438 18.561768 
L 238.015438 19.483989 
L 239.162564 19.483989 
L 239.162564 28.706204 
L 240.30969 28.706204 
L 240.30969 26.123984 
L 241.456816 26.123984 
L 241.456816 34.792865 
L 242.603942 34.792865 
L 242.603942 26.123984 
L 243.751069 26.123984 
L 243.751069 24.279541 
L 244.898195 24.279541 
L 244.898195 25.201762 
L 246.045321 25.201762 
L 246.045321 40.879526 
L 247.192447 40.879526 
L 247.192447 30.735091 
L 248.339573 30.735091 
L 248.339573 33.686199 
L 249.486699 33.686199 
L 249.486699 29.997314 
L 250.633826 29.997314 
L 250.633826 40.879526 
L 251.780952 40.879526 
L 251.780952 38.666195 
L 252.928078 38.666195 
L 252.928078 50.470629 
L 254.075204 50.470629 
L 254.075204 28.521759 
L 255.22233 28.521759 
L 255.22233 34.239532 
L 256.369456 34.239532 
L 256.369456 39.219528 
L 257.516583 39.219528 
L 257.516583 32.763978 
L 258.663709 32.763978 
L 258.663709 34.055088 
L 259.810835 34.055088 
L 259.810835 28.706204 
L 260.957961 28.706204 
L 260.957961 29.997314 
L 262.105087 29.997314 
L 262.105087 24.279541 
L 263.252213 24.279541 
L 263.252213 21.697321 
L 264.39934 21.697321 
L 264.39934 39.588416 
L 265.546466 39.588416 
L 265.546466 30.919535 
L 266.693592 30.919535 
L 266.693592 31.288424 
L 267.840718 31.288424 
L 267.840718 45.306189 
L 268.987844 45.306189 
L 268.987844 51.577295 
L 270.13497 51.577295 
L 270.13497 41.986192 
L 271.282097 41.986192 
L 271.282097 56.003958 
L 272.429223 56.003958 
L 272.429223 64.119506 
L 273.576349 64.119506 
L 273.576349 73.710609 
L 274.723475 73.710609 
L 274.723475 84.039489 
L 275.870601 84.039489 
L 275.870601 95.659479 
L 277.017727 95.659479 
L 277.017727 108.939468 
L 278.164854 108.939468 
L 278.164854 117.423905 
L 279.31198 117.423905 
L 279.31198 115.026129 
L 280.459106 115.026129 
L 280.459106 119.268348 
L 281.606232 119.268348 
L 281.606232 130.15056 
L 282.753358 130.15056 
L 282.753358 139.557219 
L 283.900484 139.557219 
L 283.900484 141.401662 
L 285.047611 141.401662 
L 285.047611 148.779433 
L 286.194737 148.779433 
L 286.194737 160.952756 
L 287.341863 160.952756 
L 287.341863 164.641642 
L 288.488989 164.641642 
L 288.488989 163.534976 
L 289.636115 163.534976 
L 289.636115 170.17497 
L 290.783241 170.17497 
L 290.783241 174.786077 
L 291.930368 174.786077 
L 291.930368 174.970522 
L 293.077494 174.970522 
L 293.077494 178.106074 
L 294.22462 178.106074 
L 294.22462 181.979404 
L 295.371746 181.979404 
L 295.371746 189.172732 
L 296.518872 189.172732 
L 296.518872 192.492729 
L 297.665998 192.492729 
L 297.665998 188.988287 
L 298.813125 188.988287 
L 298.813125 194.337172 
L 299.960251 194.337172 
L 299.960251 195.812726 
L 301.107377 195.812726 
L 301.107377 195.628282 
L 302.254503 195.628282 
L 302.254503 200.423833 
L 303.401629 200.423833 
L 303.401629 206.141606 
L 304.548755 206.141606 
L 304.548755 210.752713 
L 305.695882 210.752713 
L 305.695882 208.723826 
L 306.843008 208.723826 
L 306.843008 212.043823 
L 307.990134 212.043823 
L 307.990134 212.966044 
L 309.13726 212.966044 
L 309.13726 215.917153 
L 310.284386 215.917153 
L 310.284386 216.101597 
L 311.431512 216.101597 
L 311.431512 219.23715 
L 312.578639 219.23715 
L 312.578639 218.314929 
L 313.725765 218.314929 
L 313.725765 217.94604 
L 314.872891 217.94604 
L 314.872891 220.52826 
L 316.020017 220.52826 
L 316.020017 224.217146 
L 317.167143 224.217146 
L 317.167143 225.323811 
L 318.314269 225.323811 
L 318.314269 221.634926 
L 319.461396 221.634926 
L 319.461396 225.508256 
L 320.608522 225.508256 
L 320.608522 230.303807 
L 321.755648 230.303807 
L 321.755648 225.877144 
L 322.902774 225.877144 
L 322.902774 230.672696 
L 324.0499 230.672696 
L 324.0499 231.226029 
L 325.197026 231.226029 
L 325.197026 228.27492 
L 326.344153 228.27492 
L 326.344153 230.488251 
L 327.491279 230.488251 
L 327.491279 235.099359 
L 328.638405 235.099359 
L 328.638405 237.31269 
L 329.785531 237.31269 
L 329.785531 232.14825 
L 330.932657 232.14825 
L 330.932657 234.546026 
L 332.079783 234.546026 
L 332.079783 233.992693 
L 333.22691 233.992693 
L 333.22691 233.808249 
L 334.374036 233.808249 
L 334.374036 236.759357 
L 335.521162 236.759357 
L 335.521162 236.390469 
L 336.668288 236.390469 
L 336.668288 237.866023 
L 337.815414 237.866023 
L 337.815414 238.972689 
L 338.96254 238.972689 
L 338.96254 238.234911 
L 341.256793 238.234911 
L 341.256793 237.866023 
L 342.403919 237.866023 
L 342.403919 240.263798 
L 343.551045 240.263798 
L 343.551045 239.157133 
L 344.698171 239.157133 
L 344.698171 239.526021 
L 345.845297 239.526021 
L 345.845297 239.710466 
L 346.992424 239.710466 
L 346.992424 240.632687 
L 348.13955 240.632687 
L 348.13955 242.661574 
L 349.286676 242.661574 
L 349.286676 239.157133 
L 350.433802 239.157133 
L 350.433802 241.001576 
L 351.580928 241.001576 
L 351.580928 241.923797 
L 353.875181 241.923797 
L 353.875181 241.18602 
L 355.022307 241.18602 
L 355.022307 240.817131 
L 356.169433 240.817131 
L 356.169433 241.739353 
L 357.316559 241.739353 
L 357.316559 242.846018 
L 358.463685 242.846018 
L 358.463685 240.817131 
L 359.610811 240.817131 
L 359.610811 242.661574 
L 360.757938 242.661574 
L 360.757938 243.214907 
L 361.905064 243.214907 
L 361.905064 242.661574 
L 363.05219 242.661574 
L 363.05219 242.846018 
L 364.199316 242.846018 
L 364.199316 243.399351 
L 365.346442 243.399351 
L 365.346442 243.76824 
L 366.493568 243.76824 
L 366.493568 244.137128 
L 367.640695 244.137128 
L 367.640695 243.583796 
L 369.934947 243.583796 
L 369.934947 244.874906 
L 371.082073 244.874906 
L 371.082073 243.952684 
L 372.229199 243.952684 
L 372.229199 244.506017 
L 373.376325 244.506017 
L 373.376325 244.321573 
L 374.523452 244.321573 
L 374.523452 244.874906 
L 375.670578 244.874906 
L 375.670578 244.137128 
L 376.817704 244.137128 
L 376.817704 244.874906 
L 377.96483 244.874906 
L 377.96483 244.506017 
L 379.111956 244.506017 
L 379.111956 244.137128 
L 380.259082 244.137128 
L 380.259082 244.321573 
L 381.406209 244.321573 
L 381.406209 244.506017 
L 382.553335 244.506017 
L 382.553335 245.243794 
L 383.700461 245.243794 
L 383.700461 244.874906 
L 384.847587 244.874906 
L 384.847587 244.137128 
L 385.994713 244.137128 
L 385.994713 244.874906 
L 387.141839 244.874906 
L 387.141839 244.137128 
L 388.288966 244.137128 
L 388.288966 245.243794 
L 389.436092 245.243794 
L 389.436092 244.506017 
L 390.583218 244.506017 
L 390.583218 245.428238 
L 392.87747 245.428238 
L 392.87747 245.05935 
L 394.024596 245.05935 
L 394.024596 245.243794 
L 395.171723 245.243794 
L 395.171723 245.612683 
L 396.318849 245.612683 
L 396.318849 245.243794 
L 397.465975 245.243794 
L 397.465975 245.612683 
L 398.613101 245.612683 
L 398.613101 245.243794 
L 400.907353 245.243794 
L 400.907353 245.428238 
L 402.05448 245.428238 
L 402.05448 245.05935 
L 403.201606 245.05935 
L 403.201606 245.428238 
L 404.348732 245.428238 
L 404.348732 245.05935 
L 405.495858 245.05935 
L 405.495858 244.874906 
L 406.642984 244.874906 
L 406.642984 245.612683 
L 407.79011 245.612683 
L 407.79011 245.428238 
L 408.937237 245.428238 
L 408.937237 245.612683 
L 411.231489 245.612683 
L 411.231489 245.797127 
L 412.378615 245.797127 
L 412.378615 245.243794 
L 413.525741 245.243794 
L 413.525741 245.05935 
L 414.672867 245.05935 
L 414.672867 245.05935 
" clip-path="url(#p68a75a2788)" style="fill: none; stroke: #1f77b4; stroke-width: 1.5; stroke-linecap: square"/>
   </g>
   <g id="patch_3">
    <path d="M 53.328125 257.158895 
L 53.328125 7.2 
" style="fill: none; stroke: #000000; stroke-width: 0.8; stroke-linejoin: miter; stroke-linecap: square"/>
   </g>
   <g id="patch_4">
    <path d="M 431.87976 257.158895 
L 431.87976 7.2 
" style="fill: none; stroke: #000000; stroke-width: 0.8; stroke-linejoin: miter; stroke-linecap: square"/>
   </g>
   <g id="patch_5">
    <path d="M 53.328125 257.158895 
L 431.87976 257.158895 
" style="fill: none; stroke: #000000; stroke-width: 0.8; stroke-linejoin: miter; stroke-linecap: square"/>
   </g>
   <g id="patch_6">
    <path d="M 53.328125 7.2 
L 431.87976 7.2 
" style="fill: none; stroke: #000000; stroke-width: 0.8; stroke-linejoin: miter; stroke-linecap: square"/>
   </g>
  </g>
  <g id="axes_2">
   <g id="patch_7">
    <path d="M 486.647885 257.158895 
L 865.19952 257.158895 
L 865.19952 7.2 
L 486.647885 7.2 
z
" style="fill: #ffffff"/>
   </g>
   <g id="matplotlib.axis_3">
    <g id="xtick_7">
     <g id="line2d_15">
      <g>
       <use xlink:href="#m697ae2b00f" x="500.385756" y="257.158895" style="stroke: #000000; stroke-width: 0.8"/>
      </g>
     </g>
     <g id="text_16">
      <!-- 0.0 -->
      <g transform="translate(492.434193 271.757332) scale(0.1 -0.1)">
       <defs>
        <path id="DejaVuSans-2e" d="M 684 794 
L 1344 794 
L 1344 0 
L 684 0 
L 684 794 
z
" transform="scale(0.015625)"/>
       </defs>
       <use xlink:href="#DejaVuSans-30"/>
       <use xlink:href="#DejaVuSans-2e" transform="translate(63.623047 0)"/>
       <use xlink:href="#DejaVuSans-30" transform="translate(95.410156 0)"/>
      </g>
     </g>
    </g>
    <g id="xtick_8">
     <g id="line2d_16">
      <g>
       <use xlink:href="#m697ae2b00f" x="544.069546" y="257.158895" style="stroke: #000000; stroke-width: 0.8"/>
      </g>
     </g>
     <g id="text_17">
      <!-- 2.5 -->
      <g transform="translate(536.117984 271.757332) scale(0.1 -0.1)">
       <use xlink:href="#DejaVuSans-32"/>
       <use xlink:href="#DejaVuSans-2e" transform="translate(63.623047 0)"/>
       <use xlink:href="#DejaVuSans-35" transform="translate(95.410156 0)"/>
      </g>
     </g>
    </g>
    <g id="xtick_9">
     <g id="line2d_17">
      <g>
       <use xlink:href="#m697ae2b00f" x="587.753337" y="257.158895" style="stroke: #000000; stroke-width: 0.8"/>
      </g>
     </g>
     <g id="text_18">
      <!-- 5.0 -->
      <g transform="translate(579.801775 271.757332) scale(0.1 -0.1)">
       <use xlink:href="#DejaVuSans-35"/>
       <use xlink:href="#DejaVuSans-2e" transform="translate(63.623047 0)"/>
       <use xlink:href="#DejaVuSans-30" transform="translate(95.410156 0)"/>
      </g>
     </g>
    </g>
    <g id="xtick_10">
     <g id="line2d_18">
      <g>
       <use xlink:href="#m697ae2b00f" x="631.437128" y="257.158895" style="stroke: #000000; stroke-width: 0.8"/>
      </g>
     </g>
     <g id="text_19">
      <!-- 7.5 -->
      <g transform="translate(623.485565 271.757332) scale(0.1 -0.1)">
       <defs>
        <path id="DejaVuSans-37" d="M 525 4666 
L 3525 4666 
L 3525 4397 
L 1831 0 
L 1172 0 
L 2766 4134 
L 525 4134 
L 525 4666 
z
" transform="scale(0.015625)"/>
       </defs>
       <use xlink:href="#DejaVuSans-37"/>
       <use xlink:href="#DejaVuSans-2e" transform="translate(63.623047 0)"/>
       <use xlink:href="#DejaVuSans-35" transform="translate(95.410156 0)"/>
      </g>
     </g>
    </g>
    <g id="xtick_11">
     <g id="line2d_19">
      <g>
       <use xlink:href="#m697ae2b00f" x="675.120919" y="257.158895" style="stroke: #000000; stroke-width: 0.8"/>
      </g>
     </g>
     <g id="text_20">
      <!-- 10.0 -->
      <g transform="translate(663.988106 271.757332) scale(0.1 -0.1)">
       <use xlink:href="#DejaVuSans-31"/>
       <use xlink:href="#DejaVuSans-30" transform="translate(63.623047 0)"/>
       <use xlink:href="#DejaVuSans-2e" transform="translate(127.246094 0)"/>
       <use xlink:href="#DejaVuSans-30" transform="translate(159.033203 0)"/>
      </g>
     </g>
    </g>
    <g id="xtick_12">
     <g id="line2d_20">
      <g>
       <use xlink:href="#m697ae2b00f" x="718.804709" y="257.158895" style="stroke: #000000; stroke-width: 0.8"/>
      </g>
     </g>
     <g id="text_21">
      <!-- 12.5 -->
      <g transform="translate(707.671897 271.757332) scale(0.1 -0.1)">
       <use xlink:href="#DejaVuSans-31"/>
       <use xlink:href="#DejaVuSans-32" transform="translate(63.623047 0)"/>
       <use xlink:href="#DejaVuSans-2e" transform="translate(127.246094 0)"/>
       <use xlink:href="#DejaVuSans-35" transform="translate(159.033203 0)"/>
      </g>
     </g>
    </g>
    <g id="xtick_13">
     <g id="line2d_21">
      <g>
       <use xlink:href="#m697ae2b00f" x="762.4885" y="257.158895" style="stroke: #000000; stroke-width: 0.8"/>
      </g>
     </g>
     <g id="text_22">
      <!-- 15.0 -->
      <g transform="translate(751.355688 271.757332) scale(0.1 -0.1)">
       <use xlink:href="#DejaVuSans-31"/>
       <use xlink:href="#DejaVuSans-35" transform="translate(63.623047 0)"/>
       <use xlink:href="#DejaVuSans-2e" transform="translate(127.246094 0)"/>
       <use xlink:href="#DejaVuSans-30" transform="translate(159.033203 0)"/>
      </g>
     </g>
    </g>
    <g id="xtick_14">
     <g id="line2d_22">
      <g>
       <use xlink:href="#m697ae2b00f" x="806.172291" y="257.158895" style="stroke: #000000; stroke-width: 0.8"/>
      </g>
     </g>
     <g id="text_23">
      <!-- 17.5 -->
      <g transform="translate(795.039478 271.757332) scale(0.1 -0.1)">
       <use xlink:href="#DejaVuSans-31"/>
       <use xlink:href="#DejaVuSans-37" transform="translate(63.623047 0)"/>
       <use xlink:href="#DejaVuSans-2e" transform="translate(127.246094 0)"/>
       <use xlink:href="#DejaVuSans-35" transform="translate(159.033203 0)"/>
      </g>
     </g>
    </g>
    <g id="xtick_15">
     <g id="line2d_23">
      <g>
       <use xlink:href="#m697ae2b00f" x="849.856082" y="257.158895" style="stroke: #000000; stroke-width: 0.8"/>
      </g>
     </g>
     <g id="text_24">
      <!-- 20.0 -->
      <g transform="translate(838.723269 271.757332) scale(0.1 -0.1)">
       <use xlink:href="#DejaVuSans-32"/>
       <use xlink:href="#DejaVuSans-30" transform="translate(63.623047 0)"/>
       <use xlink:href="#DejaVuSans-2e" transform="translate(127.246094 0)"/>
       <use xlink:href="#DejaVuSans-30" transform="translate(159.033203 0)"/>
      </g>
     </g>
    </g>
    <g id="text_25">
     <!-- wavelength [Å] -->
     <g transform="translate(637.886202 287.119832) scale(0.1 -0.1)">
      <defs>
       <path id="DejaVuSans-77" d="M 269 3500 
L 844 3500 
L 1563 769 
L 2278 3500 
L 2956 3500 
L 3675 769 
L 4391 3500 
L 4966 3500 
L 4050 0 
L 3372 0 
L 2619 2869 
L 1863 0 
L 1184 0 
L 269 3500 
z
" transform="scale(0.015625)"/>
       <path id="DejaVuSans-61" d="M 2194 1759 
Q 1497 1759 1228 1600 
Q 959 1441 959 1056 
Q 959 750 1161 570 
Q 1363 391 1709 391 
Q 2188 391 2477 730 
Q 2766 1069 2766 1631 
L 2766 1759 
L 2194 1759 
z
M 3341 1997 
L 3341 0 
L 2766 0 
L 2766 531 
Q 2569 213 2275 61 
Q 1981 -91 1556 -91 
Q 1019 -91 701 211 
Q 384 513 384 1019 
Q 384 1609 779 1909 
Q 1175 2209 1959 2209 
L 2766 2209 
L 2766 2266 
Q 2766 2663 2505 2880 
Q 2244 3097 1772 3097 
Q 1472 3097 1187 3025 
Q 903 2953 641 2809 
L 641 3341 
Q 956 3463 1253 3523 
Q 1550 3584 1831 3584 
Q 2591 3584 2966 3190 
Q 3341 2797 3341 1997 
z
" transform="scale(0.015625)"/>
       <path id="DejaVuSans-76" d="M 191 3500 
L 800 3500 
L 1894 563 
L 2988 3500 
L 3597 3500 
L 2284 0 
L 1503 0 
L 191 3500 
z
" transform="scale(0.015625)"/>
       <path id="DejaVuSans-6c" d="M 603 4863 
L 1178 4863 
L 1178 0 
L 603 0 
L 603 4863 
z
" transform="scale(0.015625)"/>
       <path id="DejaVuSans-67" d="M 2906 1791 
Q 2906 2416 2648 2759 
Q 2391 3103 1925 3103 
Q 1463 3103 1205 2759 
Q 947 2416 947 1791 
Q 947 1169 1205 825 
Q 1463 481 1925 481 
Q 2391 481 2648 825 
Q 2906 1169 2906 1791 
z
M 3481 434 
Q 3481 -459 3084 -895 
Q 2688 -1331 1869 -1331 
Q 1566 -1331 1297 -1286 
Q 1028 -1241 775 -1147 
L 775 -588 
Q 1028 -725 1275 -790 
Q 1522 -856 1778 -856 
Q 2344 -856 2625 -561 
Q 2906 -266 2906 331 
L 2906 616 
Q 2728 306 2450 153 
Q 2172 0 1784 0 
Q 1141 0 747 490 
Q 353 981 353 1791 
Q 353 2603 747 3093 
Q 1141 3584 1784 3584 
Q 2172 3584 2450 3431 
Q 2728 3278 2906 2969 
L 2906 3500 
L 3481 3500 
L 3481 434 
z
" transform="scale(0.015625)"/>
       <path id="DejaVuSans-c5" d="M 2663 5081 
Q 2663 5278 2523 5417 
Q 2384 5556 2188 5556 
Q 1988 5556 1852 5420 
Q 1716 5284 1716 5081 
Q 1716 4884 1853 4746 
Q 1991 4609 2188 4609 
Q 2384 4609 2523 4746 
Q 2663 4884 2663 5081 
z
M 2188 4044 
L 1338 1722 
L 3041 1722 
L 2188 4044 
z
M 1716 4366 
Q 1525 4494 1428 4673 
Q 1331 4853 1331 5081 
Q 1331 5441 1579 5691 
Q 1828 5941 2188 5941 
Q 2544 5941 2795 5689 
Q 3047 5438 3047 5081 
Q 3047 4863 2948 4678 
Q 2850 4494 2663 4366 
L 4325 0 
L 3669 0 
L 3244 1197 
L 1141 1197 
L 716 0 
L 50 0 
L 1716 4366 
z
" transform="scale(0.015625)"/>
      </defs>
      <use xlink:href="#DejaVuSans-77"/>
      <use xlink:href="#DejaVuSans-61" transform="translate(81.787109 0)"/>
      <use xlink:href="#DejaVuSans-76" transform="translate(143.066406 0)"/>
      <use xlink:href="#DejaVuSans-65" transform="translate(202.246094 0)"/>
      <use xlink:href="#DejaVuSans-6c" transform="translate(263.769531 0)"/>
      <use xlink:href="#DejaVuSans-65" transform="translate(291.552734 0)"/>
      <use xlink:href="#DejaVuSans-6e" transform="translate(353.076172 0)"/>
      <use xlink:href="#DejaVuSans-67" transform="translate(416.455078 0)"/>
      <use xlink:href="#DejaVuSans-74" transform="translate(479.931641 0)"/>
      <use xlink:href="#DejaVuSans-68" transform="translate(519.140625 0)"/>
      <use xlink:href="#DejaVuSans-20" transform="translate(582.519531 0)"/>
      <use xlink:href="#DejaVuSans-5b" transform="translate(614.306641 0)"/>
      <use xlink:href="#DejaVuSans-c5" transform="translate(653.320312 0)"/>
      <use xlink:href="#DejaVuSans-5d" transform="translate(721.728516 0)"/>
     </g>
    </g>
   </g>
   <g id="matplotlib.axis_4">
    <g id="ytick_8">
     <g id="line2d_24">
      <g>
       <use xlink:href="#m1697cf344f" x="486.647885" y="245.797127" style="stroke: #000000; stroke-width: 0.8"/>
      </g>
     </g>
     <g id="text_26">
      <!-- 0 -->
      <g transform="translate(473.285385 249.596346) scale(0.1 -0.1)">
       <use xlink:href="#DejaVuSans-30"/>
      </g>
     </g>
    </g>
    <g id="ytick_9">
     <g id="line2d_25">
      <g>
       <use xlink:href="#m1697cf344f" x="486.647885" y="194.537177" style="stroke: #000000; stroke-width: 0.8"/>
      </g>
     </g>
     <g id="text_27">
      <!-- 1000 -->
      <g transform="translate(454.197885 198.336396) scale(0.1 -0.1)">
       <use xlink:href="#DejaVuSans-31"/>
       <use xlink:href="#DejaVuSans-30" transform="translate(63.623047 0)"/>
       <use xlink:href="#DejaVuSans-30" transform="translate(127.246094 0)"/>
       <use xlink:href="#DejaVuSans-30" transform="translate(190.869141 0)"/>
      </g>
     </g>
    </g>
    <g id="ytick_10">
     <g id="line2d_26">
      <g>
       <use xlink:href="#m1697cf344f" x="486.647885" y="143.277227" style="stroke: #000000; stroke-width: 0.8"/>
      </g>
     </g>
     <g id="text_28">
      <!-- 2000 -->
      <g transform="translate(454.197885 147.076445) scale(0.1 -0.1)">
       <use xlink:href="#DejaVuSans-32"/>
       <use xlink:href="#DejaVuSans-30" transform="translate(63.623047 0)"/>
       <use xlink:href="#DejaVuSans-30" transform="translate(127.246094 0)"/>
       <use xlink:href="#DejaVuSans-30" transform="translate(190.869141 0)"/>
      </g>
     </g>
    </g>
    <g id="ytick_11">
     <g id="line2d_27">
      <g>
       <use xlink:href="#m1697cf344f" x="486.647885" y="92.017277" style="stroke: #000000; stroke-width: 0.8"/>
      </g>
     </g>
     <g id="text_29">
      <!-- 3000 -->
      <g transform="translate(454.197885 95.816495) scale(0.1 -0.1)">
       <use xlink:href="#DejaVuSans-33"/>
       <use xlink:href="#DejaVuSans-30" transform="translate(63.623047 0)"/>
       <use xlink:href="#DejaVuSans-30" transform="translate(127.246094 0)"/>
       <use xlink:href="#DejaVuSans-30" transform="translate(190.869141 0)"/>
      </g>
     </g>
    </g>
    <g id="ytick_12">
     <g id="line2d_28">
      <g>
       <use xlink:href="#m1697cf344f" x="486.647885" y="40.757326" style="stroke: #000000; stroke-width: 0.8"/>
      </g>
     </g>
     <g id="text_30">
      <!-- 4000 -->
      <g transform="translate(454.197885 44.556545) scale(0.1 -0.1)">
       <use xlink:href="#DejaVuSans-34"/>
       <use xlink:href="#DejaVuSans-30" transform="translate(63.623047 0)"/>
       <use xlink:href="#DejaVuSans-30" transform="translate(127.246094 0)"/>
       <use xlink:href="#DejaVuSans-30" transform="translate(190.869141 0)"/>
      </g>
     </g>
    </g>
    <g id="text_31">
     <!-- [counts] -->
     <g transform="translate(448.118197 152.791947) rotate(-90) scale(0.1 -0.1)">
      <use xlink:href="#DejaVuSans-5b"/>
      <use xlink:href="#DejaVuSans-63" transform="translate(39.013672 0)"/>
      <use xlink:href="#DejaVuSans-6f" transform="translate(93.994141 0)"/>
      <use xlink:href="#DejaVuSans-75" transform="translate(155.175781 0)"/>
      <use xlink:href="#DejaVuSans-6e" transform="translate(218.554688 0)"/>
      <use xlink:href="#DejaVuSans-74" transform="translate(281.933594 0)"/>
      <use xlink:href="#DejaVuSans-73" transform="translate(321.142578 0)"/>
      <use xlink:href="#DejaVuSans-5d" transform="translate(373.242188 0)"/>
     </g>
    </g>
   </g>
   <g id="line2d_29">
    <path d="M 503.854777 157.424973 
L 505.001904 157.424973 
L 505.001904 148.249442 
L 506.14903 148.249442 
L 506.14903 144.763765 
L 507.296156 144.763765 
L 507.296156 140.868009 
L 508.443282 140.868009 
L 508.443282 149.68472 
L 509.590408 149.68472 
L 509.590408 155.682135 
L 510.737534 155.682135 
L 510.737534 150.709919 
L 511.884661 150.709919 
L 511.884661 131.282398 
L 513.031787 131.282398 
L 513.031787 106.831402 
L 514.178913 106.831402 
L 514.178913 84.840884 
L 515.326039 84.840884 
L 515.326039 61.722646 
L 516.473165 61.722646 
L 516.473165 47.11356 
L 517.620291 47.11356 
L 517.620291 35.733851 
L 518.767418 35.733851 
L 518.767418 32.606994 
L 519.914544 32.606994 
L 519.914544 18.561768 
L 521.06167 18.561768 
L 521.06167 27.788559 
L 522.208796 27.788559 
L 522.208796 35.272512 
L 523.355922 35.272512 
L 523.355922 47.36986 
L 524.503048 47.36986 
L 524.503048 57.057991 
L 525.650175 57.057991 
L 525.650175 72.333456 
L 526.797301 72.333456 
L 526.797301 68.1814 
L 527.944427 68.1814 
L 527.944427 76.895591 
L 529.091553 76.895591 
L 529.091553 90.428218 
L 530.238679 90.428218 
L 530.238679 92.478616 
L 531.385805 92.478616 
L 531.385805 96.476892 
L 532.532932 96.476892 
L 532.532932 100.885248 
L 533.680058 100.885248 
L 533.680058 103.396985 
L 534.827184 103.396985 
L 534.827184 99.14241 
L 535.97431 99.14241 
L 535.97431 93.042476 
L 537.121436 93.042476 
L 537.121436 90.889558 
L 538.268562 90.889558 
L 538.268562 82.585446 
L 539.415689 82.585446 
L 539.415689 71.205737 
L 540.562815 71.205737 
L 540.562815 66.387301 
L 541.709941 66.387301 
L 541.709941 52.342075 
L 542.857067 52.342075 
L 542.857067 47.26734 
L 544.004193 47.26734 
L 544.004193 41.885045 
L 545.151319 41.885045 
L 545.151319 36.81031 
L 546.298446 36.81031 
L 546.298446 51.931996 
L 547.445572 51.931996 
L 547.445572 53.418534 
L 548.592698 53.418534 
L 548.592698 67.053681 
L 549.739824 67.053681 
L 549.739824 76.793071 
L 550.88695 76.793071 
L 550.88695 87.096321 
L 552.034076 87.096321 
L 552.034076 98.98863 
L 553.181203 98.98863 
L 553.181203 105.396124 
L 554.328329 105.396124 
L 554.328329 106.062503 
L 555.475455 106.062503 
L 555.475455 115.699374 
L 556.622581 115.699374 
L 556.622581 124.413565 
L 557.769707 124.413565 
L 557.769707 132.102558 
L 558.916833 132.102558 
L 558.916833 133.896656 
L 560.06396 133.896656 
L 560.06396 139.48399 
L 561.211086 139.48399 
L 561.211086 143.892346 
L 562.358212 143.892346 
L 562.358212 151.991418 
L 563.505338 151.991418 
L 563.505338 157.988832 
L 564.652464 157.988832 
L 564.652464 158.501432 
L 565.79959 158.501432 
L 565.79959 163.012308 
L 566.946717 163.012308 
L 566.946717 166.292944 
L 568.093843 166.292944 
L 568.093843 169.214761 
L 569.240969 169.214761 
L 569.240969 174.802096 
L 570.388095 174.802096 
L 570.388095 175.776035 
L 571.535221 175.776035 
L 571.535221 177.365094 
L 572.682347 177.365094 
L 572.682347 183.413768 
L 573.829474 183.413768 
L 573.829474 183.567548 
L 574.9766 183.567548 
L 574.9766 188.027163 
L 576.123726 188.027163 
L 576.123726 192.384259 
L 577.270852 192.384259 
L 577.270852 194.793477 
L 578.417978 194.793477 
L 578.417978 199.150572 
L 579.565104 199.150572 
L 579.565104 201.45727 
L 580.712231 201.45727 
L 580.712231 201.66231 
L 581.859357 201.66231 
L 581.859357 201.35475 
L 583.006483 201.35475 
L 583.006483 207.198385 
L 584.153609 207.198385 
L 584.153609 208.377363 
L 585.300735 208.377363 
L 585.300735 208.069804 
L 586.447861 208.069804 
L 586.447861 210.889101 
L 587.594988 210.889101 
L 587.594988 212.22186 
L 588.742114 212.22186 
L 588.742114 213.195799 
L 589.88924 213.195799 
L 589.88924 217.142815 
L 592.183492 217.142815 
L 592.183492 220.884791 
L 593.330618 220.884791 
L 593.330618 217.706674 
L 594.477745 217.706674 
L 594.477745 219.962112 
L 595.624871 219.962112 
L 595.624871 219.603293 
L 596.771997 219.603293 
L 596.771997 221.089831 
L 597.919123 221.089831 
L 597.919123 223.037709 
L 599.066249 223.037709 
L 599.066249 224.883067 
L 600.213375 224.883067 
L 600.213375 223.499049 
L 601.360502 223.499049 
L 601.360502 224.370468 
L 602.507628 224.370468 
L 602.507628 226.267086 
L 603.654754 226.267086 
L 603.654754 225.857006 
L 604.80188 225.857006 
L 604.80188 226.574646 
L 605.949006 226.574646 
L 605.949006 229.752763 
L 607.096132 229.752763 
L 607.096132 230.162842 
L 608.243259 230.162842 
L 608.243259 228.727564 
L 609.390385 228.727564 
L 609.390385 230.675442 
L 610.537511 230.675442 
L 610.537511 231.444341 
L 611.684637 231.444341 
L 611.684637 230.265362 
L 612.831763 230.265362 
L 612.831763 232.7771 
L 615.126016 232.82836 
L 615.126016 233.648519 
L 616.273142 233.648519 
L 616.273142 234.622458 
L 617.420268 234.622458 
L 617.420268 233.135919 
L 618.567394 233.135919 
L 618.567394 234.417418 
L 619.71452 234.417418 
L 619.71452 236.314036 
L 620.861646 236.314036 
L 620.861646 234.776238 
L 622.008773 234.776238 
L 622.008773 234.981278 
L 623.155899 234.981278 
L 623.155899 235.596397 
L 624.303025 235.596397 
L 624.303025 236.467816 
L 625.450151 236.467816 
L 625.450151 235.340097 
L 626.597277 235.340097 
L 626.597277 236.980416 
L 627.744403 236.980416 
L 627.744403 237.698055 
L 628.89153 237.698055 
L 628.89153 237.493015 
L 630.038656 237.493015 
L 630.038656 237.954355 
L 632.332908 237.903095 
L 632.332908 238.108135 
L 634.62716 238.159394 
L 634.62716 238.774514 
L 635.774287 238.774514 
L 635.774287 239.594673 
L 638.068539 239.697193 
L 638.068539 240.619872 
L 639.215665 240.619872 
L 639.215665 239.953493 
L 640.362791 239.953493 
L 640.362791 240.363572 
L 641.509917 240.363572 
L 641.509917 240.671132 
L 642.657044 240.671132 
L 642.657044 240.158533 
L 643.80417 240.158533 
L 643.80417 240.722392 
L 644.951296 240.722392 
L 644.951296 240.414832 
L 646.098422 240.414832 
L 646.098422 240.671132 
L 647.245548 240.671132 
L 647.245548 240.261052 
L 648.392674 240.261052 
L 648.392674 241.081212 
L 649.539801 241.081212 
L 649.539801 241.901371 
L 650.686927 241.901371 
L 650.686927 240.978692 
L 651.834053 240.978692 
L 651.834053 241.337511 
L 652.981179 241.337511 
L 652.981179 241.491291 
L 654.128305 241.491291 
L 654.128305 241.798851 
L 655.275431 241.798851 
L 655.275431 241.440031 
L 656.422558 241.440031 
L 656.422558 241.901371 
L 657.569684 241.901371 
L 657.569684 242.106411 
L 659.863936 242.208931 
L 659.863936 242.61901 
L 661.011062 242.61901 
L 661.011062 242.82405 
L 662.158188 242.82405 
L 662.158188 242.26019 
L 663.305315 242.26019 
L 663.305315 242.92657 
L 666.746693 243.02909 
L 666.746693 243.08035 
L 667.893819 243.08035 
L 667.893819 243.490429 
L 669.040945 243.490429 
L 669.040945 242.77279 
L 670.188072 242.77279 
L 670.188072 242.92657 
L 671.335198 242.92657 
L 671.335198 243.439169 
L 672.482324 243.439169 
L 672.482324 242.67027 
L 673.62945 242.67027 
L 673.62945 242.92657 
L 674.776576 242.92657 
L 674.776576 242.67027 
L 675.923702 242.67027 
L 675.923702 243.08035 
L 677.070829 243.08035 
L 677.070829 243.797989 
L 678.217955 243.797989 
L 678.217955 243.387909 
L 679.365081 243.387909 
L 679.365081 243.541689 
L 680.512207 243.541689 
L 680.512207 243.387909 
L 681.659333 243.387909 
L 681.659333 243.797989 
L 682.806459 243.797989 
L 682.806459 243.644209 
L 683.953586 243.644209 
L 683.953586 243.849249 
L 685.100712 243.849249 
L 685.100712 243.644209 
L 686.247838 243.644209 
L 686.247838 244.310588 
L 687.394964 244.310588 
L 687.394964 244.105549 
L 688.54209 244.105549 
L 688.54209 244.413108 
L 689.689216 244.413108 
L 689.689216 243.951769 
L 693.130595 244.054289 
L 693.130595 244.156809 
L 697.7191 244.208069 
L 697.7191 244.566888 
L 698.866226 244.566888 
L 698.866226 244.105549 
L 701.160478 244.054289 
L 701.160478 244.618148 
L 702.307604 244.618148 
L 702.307604 244.413108 
L 703.45473 244.413108 
L 703.45473 244.823188 
L 704.601857 244.823188 
L 704.601857 244.208069 
L 706.896109 244.259329 
L 706.896109 244.566888 
L 708.043235 244.566888 
L 708.043235 244.003029 
L 709.190361 244.003029 
L 709.190361 244.515628 
L 710.337487 244.515628 
L 710.337487 244.259329 
L 711.484614 244.259329 
L 711.484614 244.515628 
L 712.63174 244.515628 
L 712.63174 244.310588 
L 713.778866 244.310588 
L 713.778866 244.925708 
L 718.367371 244.874448 
L 718.367371 244.310588 
L 719.514497 244.310588 
L 719.514497 244.925708 
L 721.808749 244.823188 
L 721.808749 244.566888 
L 722.955875 244.566888 
L 722.955875 245.335787 
L 724.103001 245.335787 
L 724.103001 244.823188 
L 726.397254 244.720668 
L 726.397254 245.079488 
L 728.691506 245.079488 
L 728.691506 244.925708 
L 729.838632 244.925708 
L 729.838632 244.771928 
L 730.985758 244.771928 
L 730.985758 245.130748 
L 732.132885 245.130748 
L 732.132885 244.874448 
L 733.280011 244.874448 
L 733.280011 245.028228 
L 734.427137 245.028228 
L 734.427137 245.182008 
L 742.45702 245.079488 
L 742.45702 245.028228 
L 743.604146 245.028228 
L 743.604146 245.233268 
L 751.634029 245.335787 
L 751.634029 245.079488 
L 753.928282 245.079488 
L 753.928282 245.438307 
L 755.075408 245.438307 
L 755.075408 245.284528 
L 756.222534 245.284528 
L 756.222534 245.489567 
L 757.36966 245.489567 
L 757.36966 245.284528 
L 761.958165 245.284528 
L 761.958165 245.489567 
L 763.105291 245.489567 
L 763.105291 245.335787 
L 764.252417 245.335787 
L 764.252417 245.540827 
L 767.693796 245.438307 
L 767.693796 245.335787 
L 768.840922 245.335787 
L 768.840922 245.643347 
L 769.988048 245.643347 
L 769.988048 245.438307 
L 773.429427 245.489567 
L 773.429427 245.182008 
L 774.576553 245.182008 
L 774.576553 245.387047 
L 776.870805 245.489567 
L 776.870805 245.130748 
L 778.017931 245.130748 
L 778.017931 245.387047 
L 780.312184 245.438307 
L 780.312184 245.540827 
L 781.45931 245.540827 
L 781.45931 245.387047 
L 782.606436 245.387047 
L 782.606436 245.694607 
L 783.753562 245.694607 
L 783.753562 245.540827 
L 792.930571 245.489567 
L 792.930571 245.387047 
L 795.224824 245.438307 
L 795.224824 245.694607 
L 797.519076 245.592087 
L 797.519076 245.540827 
L 798.666202 245.540827 
L 798.666202 245.797127 
L 799.813328 245.797127 
L 799.813328 245.335787 
L 800.960455 245.335787 
L 800.960455 245.540827 
L 802.107581 245.540827 
L 802.107581 245.694607 
L 804.401833 245.592087 
L 804.401833 245.540827 
L 806.696085 245.643347 
L 806.696085 245.797127 
L 808.990338 245.694607 
L 808.990338 245.592087 
L 813.578842 245.540827 
L 813.578842 245.745867 
L 814.725969 245.745867 
L 814.725969 245.540827 
L 817.020221 245.643347 
L 817.020221 245.745867 
L 818.167347 245.745867 
L 818.167347 245.592087 
L 821.608726 245.694607 
L 821.608726 245.797127 
L 822.755852 245.797127 
L 822.755852 245.643347 
L 827.344356 245.745867 
L 827.344356 245.797127 
L 828.491483 245.797127 
L 828.491483 245.643347 
L 830.785735 245.745867 
L 830.785735 245.797127 
L 833.079987 245.694607 
L 833.079987 245.643347 
L 837.668492 245.643347 
L 837.668492 245.797127 
L 841.10987 245.694607 
L 841.10987 245.540827 
L 842.256997 245.540827 
L 842.256997 245.694607 
L 847.992627 245.745867 
L 847.992627 245.745867 
" clip-path="url(#p439206d10b)" style="fill: none; stroke: #1f77b4; stroke-width: 1.5; stroke-linecap: square"/>
   </g>
   <g id="patch_8">
    <path d="M 486.647885 257.158895 
L 486.647885 7.2 
" style="fill: none; stroke: #000000; stroke-width: 0.8; stroke-linejoin: miter; stroke-linecap: square"/>
   </g>
   <g id="patch_9">
    <path d="M 865.19952 257.158895 
L 865.19952 7.2 
" style="fill: none; stroke: #000000; stroke-width: 0.8; stroke-linejoin: miter; stroke-linecap: square"/>
   </g>
   <g id="patch_10">
    <path d="M 486.647885 257.158895 
L 865.19952 257.158895 
" style="fill: none; stroke: #000000; stroke-width: 0.8; stroke-linejoin: miter; stroke-linecap: square"/>
   </g>
   <g id="patch_11">
    <path d="M 486.647885 7.2 
L 865.19952 7.2 
" style="fill: none; stroke: #000000; stroke-width: 0.8; stroke-linejoin: miter; stroke-linecap: square"/>
   </g>
  </g>
 </g>
 <defs>
  <clipPath id="p68a75a2788">
   <rect x="53.328125" y="7.2" width="378.551635" height="249.958895"/>
  </clipPath>
  <clipPath id="p439206d10b">
   <rect x="486.647885" y="7.2" width="378.551635" height="249.958895"/>
  </clipPath>
 </defs>
</svg>
