<?xml version="1.0" encoding="UTF-8" standalone="no"?>
<!DOCTYPE svg PUBLIC "-//W3C//DTD SVG 1.1//EN"
 "http://www.w3.org/Graphics/SVG/1.1/DTD/svg11.dtd">
<!-- Generated by graphviz version 2.43.0 (0)
 -->
<!-- Title: %3 Pages: 1 -->
<svg width="1168pt" height="445pt"
 viewBox="0.00 0.00 1167.50 445.00" xmlns="http://www.w3.org/2000/svg" xmlns:xlink="http://www.w3.org/1999/xlink">
<g id="graph0" class="graph" transform="scale(1 1) rotate(0) translate(4 441)">
<title>%3</title>
<polygon fill="white" stroke="transparent" points="-4,4 -4,-441 1163.5,-441 1163.5,4 -4,4"/>
<!-- DistanceResolution -->
<g id="node1" class="node">
<title>DistanceResolution</title>
<polygon fill="none" stroke="black" points="173,-437 18,-437 18,-414 173,-414 173,-437"/>
<text text-anchor="middle" x="95.5" y="-421.8" font-family="Times,serif" font-size="14.00">DistanceResolution</text>
</g>
<!-- TimeOfFlightLookupTable -->
<g id="node14" class="node">
<title>TimeOfFlightLookupTable</title>
<polygon fill="none" stroke="black" points="483,-378 282,-378 282,-345 483,-345 483,-378"/>
<text text-anchor="start" x="290" y="-363.8" font-family="Times,serif" font-size="14.00">TimeOfFlightLookupTable</text>
<text text-anchor="start" x="299.5" y="-352.2" font-family="Times,serif" font-size="11.00">via:</text>
<text text-anchor="start" x="320.5" y="-352.2" font-family="Times,serif" font-style="italic" font-size="11.00">compute_tof_lookup_table</text>
</g>
<!-- DistanceResolution&#45;&gt;TimeOfFlightLookupTable -->
<g id="edge15" class="edge">
<title>DistanceResolution&#45;&gt;TimeOfFlightLookupTable</title>
<path fill="none" stroke="black" d="M144.19,-413.98C186.99,-404.74 250.17,-391.09 300.72,-380.17"/>
<polygon fill="black" stroke="black" points="301.62,-383.55 310.65,-378.02 300.14,-376.71 301.62,-383.55"/>
</g>
<!-- SimulationResults -->
<g id="node2" class="node">
<title>SimulationResults</title>
<polygon fill="none" stroke="black" points="639,-437 492,-437 492,-414 639,-414 639,-437"/>
<text text-anchor="middle" x="565.5" y="-421.8" font-family="Times,serif" font-size="14.00">SimulationResults</text>
</g>
<!-- FastestNeutron -->
<g id="node3" class="node">
<title>FastestNeutron</title>
<polygon fill="none" stroke="black" points="641,-378 490,-378 490,-345 641,-345 641,-378"/>
<text text-anchor="start" x="509.5" y="-363.8" font-family="Times,serif" font-size="14.00">FastestNeutron</text>
<text text-anchor="start" x="498" y="-352.2" font-family="Times,serif" font-size="11.00">via:</text>
<text text-anchor="start" x="519" y="-352.2" font-family="Times,serif" font-style="italic" font-size="11.00">find_fastest_neutron</text>
</g>
<!-- SimulationResults&#45;&gt;FastestNeutron -->
<g id="edge1" class="edge">
<title>SimulationResults&#45;&gt;FastestNeutron</title>
<path fill="none" stroke="black" d="M565.5,-413.98C565.5,-406.93 565.5,-397.32 565.5,-388.31"/>
<polygon fill="black" stroke="black" points="569,-388.2 565.5,-378.2 562,-388.2 569,-388.2"/>
</g>
<!-- SimulationResults&#45;&gt;TimeOfFlightLookupTable -->
<g id="edge13" class="edge">
<title>SimulationResults&#45;&gt;TimeOfFlightLookupTable</title>
<path fill="none" stroke="black" d="M534.46,-413.98C508.12,-405.06 469.68,-392.04 438.06,-381.32"/>
<polygon fill="black" stroke="black" points="439.08,-377.97 428.48,-378.08 436.83,-384.6 439.08,-377.97"/>
</g>
<!-- PivotTimeAtDetector -->
<g id="node6" class="node">
<title>PivotTimeAtDetector</title>
<polygon fill="none" stroke="black" points="694,-309 527,-309 527,-276 694,-276 694,-309"/>
<text text-anchor="start" x="535" y="-294.8" font-family="Times,serif" font-size="14.00">PivotTimeAtDetector</text>
<text text-anchor="start" x="536" y="-283.2" font-family="Times,serif" font-size="11.00">via:</text>
<text text-anchor="start" x="557" y="-283.2" font-family="Times,serif" font-style="italic" font-size="11.00">pivot_time_at_detector</text>
</g>
<!-- FastestNeutron&#45;&gt;PivotTimeAtDetector -->
<g id="edge9" class="edge">
<title>FastestNeutron&#45;&gt;PivotTimeAtDetector</title>
<path fill="none" stroke="black" d="M575.94,-344.96C581.37,-336.88 588.13,-326.81 594.23,-317.73"/>
<polygon fill="black" stroke="black" points="597.14,-319.67 599.81,-309.42 591.33,-315.77 597.14,-319.67"/>
</g>
<!-- TimeOfArrivalMinusPivotTimeModuloPeriod -->
<g id="node4" class="node">
<title>TimeOfArrivalMinusPivotTimeModuloPeriod</title>
<polygon fill="none" stroke="black" points="785.5,-171 453.5,-171 453.5,-138 785.5,-138 785.5,-171"/>
<text text-anchor="start" x="461.5" y="-156.8" font-family="Times,serif" font-size="14.00">TimeOfArrivalMinusPivotTimeModuloPeriod</text>
<text text-anchor="start" x="471.5" y="-145.2" font-family="Times,serif" font-size="11.00">via:</text>
<text text-anchor="start" x="492.5" y="-145.2" font-family="Times,serif" font-style="italic" font-size="11.00">time_of_arrival_minus_pivot_time_modulo_period</text>
</g>
<!-- FrameFoldedTimeOfArrival -->
<g id="node5" class="node">
<title>FrameFoldedTimeOfArrival</title>
<polygon fill="none" stroke="black" points="728.5,-102 510.5,-102 510.5,-69 728.5,-69 728.5,-102"/>
<text text-anchor="start" x="521.5" y="-87.8" font-family="Times,serif" font-size="14.00">FrameFoldedTimeOfArrival</text>
<text text-anchor="start" x="518.5" y="-76.2" font-family="Times,serif" font-size="11.00">via:</text>
<text text-anchor="start" x="539.5" y="-76.2" font-family="Times,serif" font-style="italic" font-size="11.00">time_of_arrival_folded_by_frame</text>
</g>
<!-- TimeOfArrivalMinusPivotTimeModuloPeriod&#45;&gt;FrameFoldedTimeOfArrival -->
<g id="edge2" class="edge">
<title>TimeOfArrivalMinusPivotTimeModuloPeriod&#45;&gt;FrameFoldedTimeOfArrival</title>
<path fill="none" stroke="black" d="M619.5,-137.96C619.5,-130.38 619.5,-121.05 619.5,-112.42"/>
<polygon fill="black" stroke="black" points="623,-112.42 619.5,-102.42 616,-112.42 623,-112.42"/>
</g>
<!-- TofData -->
<g id="node19" class="node">
<title>TofData</title>
<polygon fill="none" stroke="black" points="779,-33 636,-33 636,0 779,0 779,-33"/>
<text text-anchor="start" x="679.5" y="-18.8" font-family="Times,serif" font-size="14.00">TofData</text>
<text text-anchor="start" x="644" y="-7.2" font-family="Times,serif" font-size="11.00">via:</text>
<text text-anchor="start" x="665" y="-7.2" font-family="Times,serif" font-style="italic" font-size="11.00">time_of_flight_data</text>
</g>
<!-- FrameFoldedTimeOfArrival&#45;&gt;TofData -->
<g id="edge20" class="edge">
<title>FrameFoldedTimeOfArrival&#45;&gt;TofData</title>
<path fill="none" stroke="black" d="M639.91,-68.96C651.49,-60.14 666.16,-48.97 678.88,-39.29"/>
<polygon fill="black" stroke="black" points="681.06,-42.03 686.9,-33.19 676.82,-36.46 681.06,-42.03"/>
</g>
<!-- PivotTimeAtDetector&#45;&gt;FrameFoldedTimeOfArrival -->
<g id="edge3" class="edge">
<title>PivotTimeAtDetector&#45;&gt;FrameFoldedTimeOfArrival</title>
<path fill="none" stroke="black" d="M535.36,-275.98C499.52,-266.91 462.14,-254.41 451.5,-240 424.57,-203.53 423.52,-174.43 450.5,-138 463.11,-120.98 481.21,-109.39 500.93,-101.55"/>
<polygon fill="black" stroke="black" points="502.21,-104.81 510.41,-98.1 499.81,-98.23 502.21,-104.81"/>
</g>
<!-- UnwrappedTimeOfArrivalMinusPivotTime -->
<g id="node17" class="node">
<title>UnwrappedTimeOfArrivalMinusPivotTime</title>
<polygon fill="none" stroke="black" points="784.5,-240 454.5,-240 454.5,-207 784.5,-207 784.5,-240"/>
<text text-anchor="start" x="469" y="-225.8" font-family="Times,serif" font-size="14.00">UnwrappedTimeOfArrivalMinusPivotTime</text>
<text text-anchor="start" x="462.5" y="-214.2" font-family="Times,serif" font-size="11.00">via:</text>
<text text-anchor="start" x="483.5" y="-214.2" font-family="Times,serif" font-style="italic" font-size="11.00">unwrapped_time_of_arrival_minus_frame_pivot_time</text>
</g>
<!-- PivotTimeAtDetector&#45;&gt;UnwrappedTimeOfArrivalMinusPivotTime -->
<g id="edge25" class="edge">
<title>PivotTimeAtDetector&#45;&gt;UnwrappedTimeOfArrivalMinusPivotTime</title>
<path fill="none" stroke="black" d="M612.59,-275.96C613.61,-268.38 614.86,-259.05 616.02,-250.42"/>
<polygon fill="black" stroke="black" points="619.5,-250.8 617.36,-240.42 612.56,-249.87 619.5,-250.8"/>
</g>
<!-- PulsePeriod -->
<g id="node7" class="node">
<title>PulsePeriod</title>
<polygon fill="none" stroke="black" points="1035,-373 934,-373 934,-350 1035,-350 1035,-373"/>
<text text-anchor="middle" x="984.5" y="-357.8" font-family="Times,serif" font-size="14.00">PulsePeriod</text>
</g>
<!-- FramePeriod -->
<g id="node8" class="node">
<title>FramePeriod</title>
<polygon fill="none" stroke="black" points="1126.5,-309 1014.5,-309 1014.5,-276 1126.5,-276 1126.5,-309"/>
<text text-anchor="start" x="1024" y="-294.8" font-family="Times,serif" font-size="14.00">FramePeriod</text>
<text text-anchor="start" x="1022.5" y="-283.2" font-family="Times,serif" font-size="11.00">via:</text>
<text text-anchor="start" x="1043.5" y="-283.2" font-family="Times,serif" font-style="italic" font-size="11.00">frame_period</text>
</g>
<!-- PulsePeriod&#45;&gt;FramePeriod -->
<g id="edge4" class="edge">
<title>PulsePeriod&#45;&gt;FramePeriod</title>
<path fill="none" stroke="black" d="M998.32,-349.74C1010.07,-340.58 1027.32,-327.14 1042.01,-315.7"/>
<polygon fill="black" stroke="black" points="1044.57,-318.14 1050.3,-309.23 1040.26,-312.62 1044.57,-318.14"/>
</g>
<!-- UnwrappedTimeOfArrival -->
<g id="node20" class="node">
<title>UnwrappedTimeOfArrival</title>
<polygon fill="none" stroke="black" points="1007.5,-309 807.5,-309 807.5,-276 1007.5,-276 1007.5,-309"/>
<text text-anchor="start" x="815.5" y="-294.8" font-family="Times,serif" font-size="14.00">UnwrappedTimeOfArrival</text>
<text text-anchor="start" x="821" y="-283.2" font-family="Times,serif" font-size="11.00">via:</text>
<text text-anchor="start" x="842" y="-283.2" font-family="Times,serif" font-style="italic" font-size="11.00">unwrapped_time_of_arrival</text>
</g>
<!-- PulsePeriod&#45;&gt;UnwrappedTimeOfArrival -->
<g id="edge23" class="edge">
<title>PulsePeriod&#45;&gt;UnwrappedTimeOfArrival</title>
<path fill="none" stroke="black" d="M972.13,-349.74C961.71,-340.67 946.45,-327.39 933.38,-316.02"/>
<polygon fill="black" stroke="black" points="935.42,-313.16 925.58,-309.23 930.83,-318.44 935.42,-313.16"/>
</g>
<!-- FramePeriod&#45;&gt;TimeOfArrivalMinusPivotTimeModuloPeriod -->
<g id="edge12" class="edge">
<title>FramePeriod&#45;&gt;TimeOfArrivalMinusPivotTimeModuloPeriod</title>
<path fill="none" stroke="black" d="M1018.76,-275.9C935.02,-250.65 770.16,-200.93 680.71,-173.96"/>
<polygon fill="black" stroke="black" points="681.56,-170.56 670.98,-171.02 679.54,-177.26 681.56,-170.56"/>
</g>
<!-- PulseStride -->
<g id="node9" class="node">
<title>PulseStride</title>
<polygon fill="none" stroke="black" points="1142.5,-373 1042.5,-373 1042.5,-350 1142.5,-350 1142.5,-373"/>
<text text-anchor="middle" x="1092.5" y="-357.8" font-family="Times,serif" font-size="14.00">PulseStride</text>
</g>
<!-- PulseStride&#45;&gt;FramePeriod -->
<g id="edge5" class="edge">
<title>PulseStride&#45;&gt;FramePeriod</title>
<path fill="none" stroke="black" d="M1088.97,-349.74C1086.24,-341.44 1082.36,-329.62 1078.86,-318.95"/>
<polygon fill="black" stroke="black" points="1082.11,-317.64 1075.67,-309.23 1075.46,-319.83 1082.11,-317.64"/>
</g>
<!-- LookupTableRelativeErrorThreshold -->
<g id="node10" class="node">
<title>LookupTableRelativeErrorThreshold</title>
<polygon fill="none" stroke="black" points="275,-373 0,-373 0,-350 275,-350 275,-373"/>
<text text-anchor="middle" x="137.5" y="-357.8" font-family="Times,serif" font-size="14.00">LookupTableRelativeErrorThreshold</text>
</g>
<!-- MaskedTimeOfFlightLookupTable -->
<g id="node15" class="node">
<title>MaskedTimeOfFlightLookupTable</title>
<polygon fill="none" stroke="black" points="511,-309 254,-309 254,-276 511,-276 511,-309"/>
<text text-anchor="start" x="262" y="-294.8" font-family="Times,serif" font-size="14.00">MaskedTimeOfFlightLookupTable</text>
<text text-anchor="start" x="301.5" y="-283.2" font-family="Times,serif" font-size="11.00">via:</text>
<text text-anchor="start" x="322.5" y="-283.2" font-family="Times,serif" font-style="italic" font-size="11.00">masked_tof_lookup_table</text>
</g>
<!-- LookupTableRelativeErrorThreshold&#45;&gt;MaskedTimeOfFlightLookupTable -->
<g id="edge8" class="edge">
<title>LookupTableRelativeErrorThreshold&#45;&gt;MaskedTimeOfFlightLookupTable</title>
<path fill="none" stroke="black" d="M176.05,-349.96C213.46,-339.73 271,-323.99 315.84,-311.73"/>
<polygon fill="black" stroke="black" points="316.77,-315.1 325.5,-309.09 314.93,-308.35 316.77,-315.1"/>
</g>
<!-- RawData -->
<g id="node11" class="node">
<title>RawData</title>
<polygon fill="none" stroke="black" points="963,-437 882,-437 882,-414 963,-414 963,-437"/>
<text text-anchor="middle" x="922.5" y="-421.8" font-family="Times,serif" font-size="14.00">RawData</text>
</g>
<!-- Ltotal -->
<g id="node12" class="node">
<title>Ltotal</title>
<polygon fill="none" stroke="black" points="761,-378 648,-378 648,-345 761,-345 761,-378"/>
<text text-anchor="start" x="683" y="-363.8" font-family="Times,serif" font-size="14.00">Ltotal</text>
<text text-anchor="start" x="656" y="-352.2" font-family="Times,serif" font-size="11.00">via:</text>
<text text-anchor="start" x="677" y="-352.2" font-family="Times,serif" font-style="italic" font-size="11.00">extract_ltotal</text>
</g>
<!-- RawData&#45;&gt;Ltotal -->
<g id="edge6" class="edge">
<title>RawData&#45;&gt;Ltotal</title>
<path fill="none" stroke="black" d="M885.52,-413.98C853.74,-404.94 807.17,-391.7 769.23,-380.91"/>
<polygon fill="black" stroke="black" points="769.86,-377.45 759.28,-378.08 767.94,-384.18 769.86,-377.45"/>
</g>
<!-- RawData&#45;&gt;TofData -->
<g id="edge17" class="edge">
<title>RawData&#45;&gt;TofData</title>
<path fill="none" stroke="black" d="M963.04,-421.69C1020.6,-416.81 1121.7,-404.6 1145.5,-378 1170.65,-349.88 1153.5,-331.22 1153.5,-293.5 1153.5,-293.5 1153.5,-293.5 1153.5,-153.5 1153.5,-78.23 918.15,-40.55 789.38,-25.57"/>
<polygon fill="black" stroke="black" points="789.49,-22.06 779.16,-24.4 788.7,-29.01 789.49,-22.06"/>
</g>
<!-- RawData&#45;&gt;UnwrappedTimeOfArrival -->
<g id="edge21" class="edge">
<title>RawData&#45;&gt;UnwrappedTimeOfArrival</title>
<path fill="none" stroke="black" d="M921.56,-413.94C920.17,-398.7 917.42,-369.66 914.5,-345 913.51,-336.65 912.32,-327.56 911.2,-319.37"/>
<polygon fill="black" stroke="black" points="914.63,-318.68 909.79,-309.26 907.7,-319.65 914.63,-318.68"/>
</g>
<!-- Ltotal&#45;&gt;PivotTimeAtDetector -->
<g id="edge10" class="edge">
<title>Ltotal&#45;&gt;PivotTimeAtDetector</title>
<path fill="none" stroke="black" d="M682.7,-344.96C670.21,-336.06 654.36,-324.76 640.69,-315.02"/>
<polygon fill="black" stroke="black" points="642.68,-312.14 632.51,-309.19 638.62,-317.84 642.68,-312.14"/>
</g>
<!-- Ltotal&#45;&gt;TofData -->
<g id="edge19" class="edge">
<title>Ltotal&#45;&gt;TofData</title>
<path fill="none" stroke="black" d="M724.46,-344.84C751.52,-321.69 796.5,-275.53 796.5,-224.5 796.5,-224.5 796.5,-224.5 796.5,-153.5 796.5,-107.53 760.45,-64.99 734.24,-40.13"/>
<polygon fill="black" stroke="black" points="736.54,-37.49 726.81,-33.3 731.81,-42.65 736.54,-37.49"/>
</g>
<!-- LtotalRange -->
<g id="node13" class="node">
<title>LtotalRange</title>
<polygon fill="none" stroke="black" points="284.5,-437 180.5,-437 180.5,-414 284.5,-414 284.5,-437"/>
<text text-anchor="middle" x="232.5" y="-421.8" font-family="Times,serif" font-size="14.00">LtotalRange</text>
</g>
<!-- LtotalRange&#45;&gt;TimeOfFlightLookupTable -->
<g id="edge14" class="edge">
<title>LtotalRange&#45;&gt;TimeOfFlightLookupTable</title>
<path fill="none" stroke="black" d="M257.95,-413.98C279.07,-405.25 309.68,-392.6 335.28,-382.02"/>
<polygon fill="black" stroke="black" points="336.9,-385.13 344.81,-378.08 334.23,-378.66 336.9,-385.13"/>
</g>
<!-- TimeOfFlightLookupTable&#45;&gt;MaskedTimeOfFlightLookupTable -->
<g id="edge7" class="edge">
<title>TimeOfFlightLookupTable&#45;&gt;MaskedTimeOfFlightLookupTable</title>
<path fill="none" stroke="black" d="M382.5,-344.96C382.5,-337.38 382.5,-328.05 382.5,-319.42"/>
<polygon fill="black" stroke="black" points="386,-319.42 382.5,-309.42 379,-319.42 386,-319.42"/>
</g>
<!-- MaskedTimeOfFlightLookupTable&#45;&gt;TofData -->
<g id="edge18" class="edge">
<title>MaskedTimeOfFlightLookupTable&#45;&gt;TofData</title>
<path fill="none" stroke="black" d="M384.71,-275.99C389.42,-246.93 402.46,-183.18 431.5,-138 456.17,-99.62 467.35,-90.66 507.5,-69 544,-49.31 588.35,-36.9 626,-29.21"/>
<polygon fill="black" stroke="black" points="626.78,-32.63 635.92,-27.26 625.43,-25.76 626.78,-32.63"/>
</g>
<!-- PulseStrideOffset -->
<g id="node16" class="node">
<title>PulseStrideOffset</title>
<polygon fill="none" stroke="black" points="911,-373 768,-373 768,-350 911,-350 911,-373"/>
<text text-anchor="middle" x="839.5" y="-357.8" font-family="Times,serif" font-size="14.00">PulseStrideOffset</text>
</g>
<!-- PulseStrideOffset&#45;&gt;UnwrappedTimeOfArrival -->
<g id="edge22" class="edge">
<title>PulseStrideOffset&#45;&gt;UnwrappedTimeOfArrival</title>
<path fill="none" stroke="black" d="M850.43,-349.74C859.54,-340.75 872.85,-327.64 884.32,-316.34"/>
<polygon fill="black" stroke="black" points="886.86,-318.75 891.53,-309.23 881.95,-313.76 886.86,-318.75"/>
</g>
<!-- UnwrappedTimeOfArrivalMinusPivotTime&#45;&gt;TimeOfArrivalMinusPivotTimeModuloPeriod -->
<g id="edge11" class="edge">
<title>UnwrappedTimeOfArrivalMinusPivotTime&#45;&gt;TimeOfArrivalMinusPivotTimeModuloPeriod</title>
<path fill="none" stroke="black" d="M619.5,-206.96C619.5,-199.38 619.5,-190.05 619.5,-181.42"/>
<polygon fill="black" stroke="black" points="623,-181.42 619.5,-171.42 616,-181.42 623,-181.42"/>
</g>
<!-- TimeOfArrivalResolution -->
<g id="node18" class="node">
<title>TimeOfArrivalResolution</title>
<polygon fill="none" stroke="black" points="485,-437 292,-437 292,-414 485,-414 485,-437"/>
<text text-anchor="middle" x="388.5" y="-421.8" font-family="Times,serif" font-size="14.00">TimeOfArrivalResolution</text>
</g>
<!-- TimeOfArrivalResolution&#45;&gt;TimeOfFlightLookupTable -->
<g id="edge16" class="edge">
<title>TimeOfArrivalResolution&#45;&gt;TimeOfFlightLookupTable</title>
<path fill="none" stroke="black" d="M387.48,-413.98C386.8,-406.93 385.87,-397.32 385,-388.31"/>
<polygon fill="black" stroke="black" points="388.47,-387.81 384.02,-378.2 381.5,-388.49 388.47,-387.81"/>
</g>
<!-- UnwrappedTimeOfArrival&#45;&gt;UnwrappedTimeOfArrivalMinusPivotTime -->
<g id="edge24" class="edge">
<title>UnwrappedTimeOfArrival&#45;&gt;UnwrappedTimeOfArrivalMinusPivotTime</title>
<path fill="none" stroke="black" d="M840.7,-275.96C797.6,-265.93 741.4,-252.86 696.43,-242.4"/>
<polygon fill="black" stroke="black" points="696.97,-238.93 686.43,-240.07 695.38,-245.75 696.97,-238.93"/>
</g>
</g>
</svg>
