<?xml version="1.0" encoding="utf-8" standalone="no"?>
<!DOCTYPE svg PUBLIC "-//W3C//DTD SVG 1.1//EN"
  "http://www.w3.org/Graphics/SVG/1.1/DTD/svg11.dtd">
<svg xmlns:xlink="http://www.w3.org/1999/xlink" width="401.690625pt" height="266.51625pt" viewBox="0 0 401.690625 266.51625" xmlns="http://www.w3.org/2000/svg" version="1.1">
 <metadata>
  <rdf:RDF xmlns:dc="http://purl.org/dc/elements/1.1/" xmlns:cc="http://creativecommons.org/ns#" xmlns:rdf="http://www.w3.org/1999/02/22-rdf-syntax-ns#">
   <cc:Work>
    <dc:type rdf:resource="http://purl.org/dc/dcmitype/StillImage"/>
    <dc:date>2025-12-05T13:47:28.886452</dc:date>
    <dc:format>image/svg+xml</dc:format>
    <dc:creator>
     <cc:Agent>
      <dc:title>Matplotlib v3.10.7, https://matplotlib.org/</dc:title>
     </cc:Agent>
    </dc:creator>
   </cc:Work>
  </rdf:RDF>
 </metadata>
 <defs>
  <style type="text/css">*{stroke-linejoin: round; stroke-linecap: butt}</style>
 </defs>
 <g id="figure_1">
  <g id="patch_1">
   <path d="M 0 266.51625 
L 401.690625 266.51625 
L 401.690625 0 
L 0 0 
z
" style="fill: #ffffff"/>
  </g>
  <g id="axes_1">
   <g id="patch_2">
    <path d="M 59.690625 228.96 
L 394.490625 228.96 
L 394.490625 7.2 
L 59.690625 7.2 
z
" style="fill: #ffffff"/>
   </g>
   <g id="matplotlib.axis_1">
    <g id="xtick_1">
     <g id="line2d_1">
      <defs>
       <path id="m6b83574e85" d="M 0 0 
L 0 3.5 
" style="stroke: #000000; stroke-width: 0.8"/>
      </defs>
      <g>
       <use xlink:href="#m6b83574e85" x="80.686152" y="228.96" style="stroke: #000000; stroke-width: 0.8"/>
      </g>
     </g>
     <g id="text_1">
      <!-- 20000 -->
      <g transform="translate(64.779902 243.558437) scale(0.1 -0.1)">
       <defs>
        <path id="DejaVuSans-32" d="M 1228 531 
L 3431 531 
L 3431 0 
L 469 0 
L 469 531 
Q 828 903 1448 1529 
Q 2069 2156 2228 2338 
Q 2531 2678 2651 2914 
Q 2772 3150 2772 3378 
Q 2772 3750 2511 3984 
Q 2250 4219 1831 4219 
Q 1534 4219 1204 4116 
Q 875 4013 500 3803 
L 500 4441 
Q 881 4594 1212 4672 
Q 1544 4750 1819 4750 
Q 2544 4750 2975 4387 
Q 3406 4025 3406 3419 
Q 3406 3131 3298 2873 
Q 3191 2616 2906 2266 
Q 2828 2175 2409 1742 
Q 1991 1309 1228 531 
z
" transform="scale(0.015625)"/>
        <path id="DejaVuSans-30" d="M 2034 4250 
Q 1547 4250 1301 3770 
Q 1056 3291 1056 2328 
Q 1056 1369 1301 889 
Q 1547 409 2034 409 
Q 2525 409 2770 889 
Q 3016 1369 3016 2328 
Q 3016 3291 2770 3770 
Q 2525 4250 2034 4250 
z
M 2034 4750 
Q 2819 4750 3233 4129 
Q 3647 3509 3647 2328 
Q 3647 1150 3233 529 
Q 2819 -91 2034 -91 
Q 1250 -91 836 529 
Q 422 1150 422 2328 
Q 422 3509 836 4129 
Q 1250 4750 2034 4750 
z
" transform="scale(0.015625)"/>
       </defs>
       <use xlink:href="#DejaVuSans-32"/>
       <use xlink:href="#DejaVuSans-30" transform="translate(63.623047 0)"/>
       <use xlink:href="#DejaVuSans-30" transform="translate(127.246094 0)"/>
       <use xlink:href="#DejaVuSans-30" transform="translate(190.869141 0)"/>
       <use xlink:href="#DejaVuSans-30" transform="translate(254.492188 0)"/>
      </g>
     </g>
    </g>
    <g id="xtick_2">
     <g id="line2d_2">
      <g>
       <use xlink:href="#m6b83574e85" x="121.677888" y="228.96" style="stroke: #000000; stroke-width: 0.8"/>
      </g>
     </g>
     <g id="text_2">
      <!-- 40000 -->
      <g transform="translate(105.771638 243.558437) scale(0.1 -0.1)">
       <defs>
        <path id="DejaVuSans-34" d="M 2419 4116 
L 825 1625 
L 2419 1625 
L 2419 4116 
z
M 2253 4666 
L 3047 4666 
L 3047 1625 
L 3713 1625 
L 3713 1100 
L 3047 1100 
L 3047 0 
L 2419 0 
L 2419 1100 
L 313 1100 
L 313 1709 
L 2253 4666 
z
" transform="scale(0.015625)"/>
       </defs>
       <use xlink:href="#DejaVuSans-34"/>
       <use xlink:href="#DejaVuSans-30" transform="translate(63.623047 0)"/>
       <use xlink:href="#DejaVuSans-30" transform="translate(127.246094 0)"/>
       <use xlink:href="#DejaVuSans-30" transform="translate(190.869141 0)"/>
       <use xlink:href="#DejaVuSans-30" transform="translate(254.492188 0)"/>
      </g>
     </g>
    </g>
    <g id="xtick_3">
     <g id="line2d_3">
      <g>
       <use xlink:href="#m6b83574e85" x="162.669623" y="228.96" style="stroke: #000000; stroke-width: 0.8"/>
      </g>
     </g>
     <g id="text_3">
      <!-- 60000 -->
      <g transform="translate(146.763373 243.558437) scale(0.1 -0.1)">
       <defs>
        <path id="DejaVuSans-36" d="M 2113 2584 
Q 1688 2584 1439 2293 
Q 1191 2003 1191 1497 
Q 1191 994 1439 701 
Q 1688 409 2113 409 
Q 2538 409 2786 701 
Q 3034 994 3034 1497 
Q 3034 2003 2786 2293 
Q 2538 2584 2113 2584 
z
M 3366 4563 
L 3366 3988 
Q 3128 4100 2886 4159 
Q 2644 4219 2406 4219 
Q 1781 4219 1451 3797 
Q 1122 3375 1075 2522 
Q 1259 2794 1537 2939 
Q 1816 3084 2150 3084 
Q 2853 3084 3261 2657 
Q 3669 2231 3669 1497 
Q 3669 778 3244 343 
Q 2819 -91 2113 -91 
Q 1303 -91 875 529 
Q 447 1150 447 2328 
Q 447 3434 972 4092 
Q 1497 4750 2381 4750 
Q 2619 4750 2861 4703 
Q 3103 4656 3366 4563 
z
" transform="scale(0.015625)"/>
       </defs>
       <use xlink:href="#DejaVuSans-36"/>
       <use xlink:href="#DejaVuSans-30" transform="translate(63.623047 0)"/>
       <use xlink:href="#DejaVuSans-30" transform="translate(127.246094 0)"/>
       <use xlink:href="#DejaVuSans-30" transform="translate(190.869141 0)"/>
       <use xlink:href="#DejaVuSans-30" transform="translate(254.492188 0)"/>
      </g>
     </g>
    </g>
    <g id="xtick_4">
     <g id="line2d_4">
      <g>
       <use xlink:href="#m6b83574e85" x="203.661359" y="228.96" style="stroke: #000000; stroke-width: 0.8"/>
      </g>
     </g>
     <g id="text_4">
      <!-- 80000 -->
      <g transform="translate(187.755109 243.558437) scale(0.1 -0.1)">
       <defs>
        <path id="DejaVuSans-38" d="M 2034 2216 
Q 1584 2216 1326 1975 
Q 1069 1734 1069 1313 
Q 1069 891 1326 650 
Q 1584 409 2034 409 
Q 2484 409 2743 651 
Q 3003 894 3003 1313 
Q 3003 1734 2745 1975 
Q 2488 2216 2034 2216 
z
M 1403 2484 
Q 997 2584 770 2862 
Q 544 3141 544 3541 
Q 544 4100 942 4425 
Q 1341 4750 2034 4750 
Q 2731 4750 3128 4425 
Q 3525 4100 3525 3541 
Q 3525 3141 3298 2862 
Q 3072 2584 2669 2484 
Q 3125 2378 3379 2068 
Q 3634 1759 3634 1313 
Q 3634 634 3220 271 
Q 2806 -91 2034 -91 
Q 1263 -91 848 271 
Q 434 634 434 1313 
Q 434 1759 690 2068 
Q 947 2378 1403 2484 
z
M 1172 3481 
Q 1172 3119 1398 2916 
Q 1625 2713 2034 2713 
Q 2441 2713 2670 2916 
Q 2900 3119 2900 3481 
Q 2900 3844 2670 4047 
Q 2441 4250 2034 4250 
Q 1625 4250 1398 4047 
Q 1172 3844 1172 3481 
z
" transform="scale(0.015625)"/>
       </defs>
       <use xlink:href="#DejaVuSans-38"/>
       <use xlink:href="#DejaVuSans-30" transform="translate(63.623047 0)"/>
       <use xlink:href="#DejaVuSans-30" transform="translate(127.246094 0)"/>
       <use xlink:href="#DejaVuSans-30" transform="translate(190.869141 0)"/>
       <use xlink:href="#DejaVuSans-30" transform="translate(254.492188 0)"/>
      </g>
     </g>
    </g>
    <g id="xtick_5">
     <g id="line2d_5">
      <g>
       <use xlink:href="#m6b83574e85" x="244.653094" y="228.96" style="stroke: #000000; stroke-width: 0.8"/>
      </g>
     </g>
     <g id="text_5">
      <!-- 100000 -->
      <g transform="translate(225.565594 243.558437) scale(0.1 -0.1)">
       <defs>
        <path id="DejaVuSans-31" d="M 794 531 
L 1825 531 
L 1825 4091 
L 703 3866 
L 703 4441 
L 1819 4666 
L 2450 4666 
L 2450 531 
L 3481 531 
L 3481 0 
L 794 0 
L 794 531 
z
" transform="scale(0.015625)"/>
       </defs>
       <use xlink:href="#DejaVuSans-31"/>
       <use xlink:href="#DejaVuSans-30" transform="translate(63.623047 0)"/>
       <use xlink:href="#DejaVuSans-30" transform="translate(127.246094 0)"/>
       <use xlink:href="#DejaVuSans-30" transform="translate(190.869141 0)"/>
       <use xlink:href="#DejaVuSans-30" transform="translate(254.492188 0)"/>
       <use xlink:href="#DejaVuSans-30" transform="translate(318.115234 0)"/>
      </g>
     </g>
    </g>
    <g id="xtick_6">
     <g id="line2d_6">
      <g>
       <use xlink:href="#m6b83574e85" x="285.64483" y="228.96" style="stroke: #000000; stroke-width: 0.8"/>
      </g>
     </g>
     <g id="text_6">
      <!-- 120000 -->
      <g transform="translate(266.55733 243.558437) scale(0.1 -0.1)">
       <use xlink:href="#DejaVuSans-31"/>
       <use xlink:href="#DejaVuSans-32" transform="translate(63.623047 0)"/>
       <use xlink:href="#DejaVuSans-30" transform="translate(127.246094 0)"/>
       <use xlink:href="#DejaVuSans-30" transform="translate(190.869141 0)"/>
       <use xlink:href="#DejaVuSans-30" transform="translate(254.492188 0)"/>
       <use xlink:href="#DejaVuSans-30" transform="translate(318.115234 0)"/>
      </g>
     </g>
    </g>
    <g id="xtick_7">
     <g id="line2d_7">
      <g>
       <use xlink:href="#m6b83574e85" x="326.636565" y="228.96" style="stroke: #000000; stroke-width: 0.8"/>
      </g>
     </g>
     <g id="text_7">
      <!-- 140000 -->
      <g transform="translate(307.549065 243.558437) scale(0.1 -0.1)">
       <use xlink:href="#DejaVuSans-31"/>
       <use xlink:href="#DejaVuSans-34" transform="translate(63.623047 0)"/>
       <use xlink:href="#DejaVuSans-30" transform="translate(127.246094 0)"/>
       <use xlink:href="#DejaVuSans-30" transform="translate(190.869141 0)"/>
       <use xlink:href="#DejaVuSans-30" transform="translate(254.492188 0)"/>
       <use xlink:href="#DejaVuSans-30" transform="translate(318.115234 0)"/>
      </g>
     </g>
    </g>
    <g id="xtick_8">
     <g id="line2d_8">
      <g>
       <use xlink:href="#m6b83574e85" x="367.628301" y="228.96" style="stroke: #000000; stroke-width: 0.8"/>
      </g>
     </g>
     <g id="text_8">
      <!-- 160000 -->
      <g transform="translate(348.540801 243.558437) scale(0.1 -0.1)">
       <use xlink:href="#DejaVuSans-31"/>
       <use xlink:href="#DejaVuSans-36" transform="translate(63.623047 0)"/>
       <use xlink:href="#DejaVuSans-30" transform="translate(127.246094 0)"/>
       <use xlink:href="#DejaVuSans-30" transform="translate(190.869141 0)"/>
       <use xlink:href="#DejaVuSans-30" transform="translate(254.492188 0)"/>
       <use xlink:href="#DejaVuSans-30" transform="translate(318.115234 0)"/>
      </g>
     </g>
    </g>
    <g id="text_9">
     <!-- tof [µs] -->
     <g transform="translate(209.034375 257.236562) scale(0.1 -0.1)">
      <defs>
       <path id="DejaVuSans-74" d="M 1172 4494 
L 1172 3500 
L 2356 3500 
L 2356 3053 
L 1172 3053 
L 1172 1153 
Q 1172 725 1289 603 
Q 1406 481 1766 481 
L 2356 481 
L 2356 0 
L 1766 0 
Q 1100 0 847 248 
Q 594 497 594 1153 
L 594 3053 
L 172 3053 
L 172 3500 
L 594 3500 
L 594 4494 
L 1172 4494 
z
" transform="scale(0.015625)"/>
       <path id="DejaVuSans-6f" d="M 1959 3097 
Q 1497 3097 1228 2736 
Q 959 2375 959 1747 
Q 959 1119 1226 758 
Q 1494 397 1959 397 
Q 2419 397 2687 759 
Q 2956 1122 2956 1747 
Q 2956 2369 2687 2733 
Q 2419 3097 1959 3097 
z
M 1959 3584 
Q 2709 3584 3137 3096 
Q 3566 2609 3566 1747 
Q 3566 888 3137 398 
Q 2709 -91 1959 -91 
Q 1206 -91 779 398 
Q 353 888 353 1747 
Q 353 2609 779 3096 
Q 1206 3584 1959 3584 
z
" transform="scale(0.015625)"/>
       <path id="DejaVuSans-66" d="M 2375 4863 
L 2375 4384 
L 1825 4384 
Q 1516 4384 1395 4259 
Q 1275 4134 1275 3809 
L 1275 3500 
L 2222 3500 
L 2222 3053 
L 1275 3053 
L 1275 0 
L 697 0 
L 697 3053 
L 147 3053 
L 147 3500 
L 697 3500 
L 697 3744 
Q 697 4328 969 4595 
Q 1241 4863 1831 4863 
L 2375 4863 
z
" transform="scale(0.015625)"/>
       <path id="DejaVuSans-20" transform="scale(0.015625)"/>
       <path id="DejaVuSans-5b" d="M 550 4863 
L 1875 4863 
L 1875 4416 
L 1125 4416 
L 1125 -397 
L 1875 -397 
L 1875 -844 
L 550 -844 
L 550 4863 
z
" transform="scale(0.015625)"/>
       <path id="DejaVuSans-b5" d="M 544 -1331 
L 544 3500 
L 1119 3500 
L 1119 1325 
Q 1119 872 1334 640 
Q 1550 409 1972 409 
Q 2434 409 2667 671 
Q 2900 934 2900 1459 
L 2900 3500 
L 3475 3500 
L 3475 806 
Q 3475 619 3529 530 
Q 3584 441 3700 441 
Q 3728 441 3778 458 
Q 3828 475 3916 513 
L 3916 50 
Q 3788 -22 3673 -56 
Q 3559 -91 3450 -91 
Q 3234 -91 3106 31 
Q 2978 153 2931 403 
Q 2775 156 2548 32 
Q 2322 -91 2016 -91 
Q 1697 -91 1473 31 
Q 1250 153 1119 397 
L 1119 -1331 
L 544 -1331 
z
" transform="scale(0.015625)"/>
       <path id="DejaVuSans-73" d="M 2834 3397 
L 2834 2853 
Q 2591 2978 2328 3040 
Q 2066 3103 1784 3103 
Q 1356 3103 1142 2972 
Q 928 2841 928 2578 
Q 928 2378 1081 2264 
Q 1234 2150 1697 2047 
L 1894 2003 
Q 2506 1872 2764 1633 
Q 3022 1394 3022 966 
Q 3022 478 2636 193 
Q 2250 -91 1575 -91 
Q 1294 -91 989 -36 
Q 684 19 347 128 
L 347 722 
Q 666 556 975 473 
Q 1284 391 1588 391 
Q 1994 391 2212 530 
Q 2431 669 2431 922 
Q 2431 1156 2273 1281 
Q 2116 1406 1581 1522 
L 1381 1569 
Q 847 1681 609 1914 
Q 372 2147 372 2553 
Q 372 3047 722 3315 
Q 1072 3584 1716 3584 
Q 2034 3584 2315 3537 
Q 2597 3491 2834 3397 
z
" transform="scale(0.015625)"/>
       <path id="DejaVuSans-5d" d="M 1947 4863 
L 1947 -844 
L 622 -844 
L 622 -397 
L 1369 -397 
L 1369 4416 
L 622 4416 
L 622 4863 
L 1947 4863 
z
" transform="scale(0.015625)"/>
      </defs>
      <use xlink:href="#DejaVuSans-74"/>
      <use xlink:href="#DejaVuSans-6f" transform="translate(39.208984 0)"/>
      <use xlink:href="#DejaVuSans-66" transform="translate(100.390625 0)"/>
      <use xlink:href="#DejaVuSans-20" transform="translate(135.595703 0)"/>
      <use xlink:href="#DejaVuSans-5b" transform="translate(167.382812 0)"/>
      <use xlink:href="#DejaVuSans-b5" transform="translate(206.396484 0)"/>
      <use xlink:href="#DejaVuSans-73" transform="translate(270.019531 0)"/>
      <use xlink:href="#DejaVuSans-5d" transform="translate(322.119141 0)"/>
     </g>
    </g>
   </g>
   <g id="matplotlib.axis_2">
    <g id="ytick_1">
     <g id="line2d_9">
      <defs>
       <path id="m2f79633d90" d="M 0 0 
L -3.5 0 
" style="stroke: #000000; stroke-width: 0.8"/>
      </defs>
      <g>
       <use xlink:href="#m2f79633d90" x="59.690625" y="218.88" style="stroke: #000000; stroke-width: 0.8"/>
      </g>
     </g>
     <g id="text_10">
      <!-- 0 -->
      <g transform="translate(46.328125 222.679219) scale(0.1 -0.1)">
       <use xlink:href="#DejaVuSans-30"/>
      </g>
     </g>
    </g>
    <g id="ytick_2">
     <g id="line2d_10">
      <g>
       <use xlink:href="#m2f79633d90" x="59.690625" y="185.582453" style="stroke: #000000; stroke-width: 0.8"/>
      </g>
     </g>
     <g id="text_11">
      <!-- 2000 -->
      <g transform="translate(27.240625 189.381671) scale(0.1 -0.1)">
       <use xlink:href="#DejaVuSans-32"/>
       <use xlink:href="#DejaVuSans-30" transform="translate(63.623047 0)"/>
       <use xlink:href="#DejaVuSans-30" transform="translate(127.246094 0)"/>
       <use xlink:href="#DejaVuSans-30" transform="translate(190.869141 0)"/>
      </g>
     </g>
    </g>
    <g id="ytick_3">
     <g id="line2d_11">
      <g>
       <use xlink:href="#m2f79633d90" x="59.690625" y="152.284905" style="stroke: #000000; stroke-width: 0.8"/>
      </g>
     </g>
     <g id="text_12">
      <!-- 4000 -->
      <g transform="translate(27.240625 156.084124) scale(0.1 -0.1)">
       <use xlink:href="#DejaVuSans-34"/>
       <use xlink:href="#DejaVuSans-30" transform="translate(63.623047 0)"/>
       <use xlink:href="#DejaVuSans-30" transform="translate(127.246094 0)"/>
       <use xlink:href="#DejaVuSans-30" transform="translate(190.869141 0)"/>
      </g>
     </g>
    </g>
    <g id="ytick_4">
     <g id="line2d_12">
      <g>
       <use xlink:href="#m2f79633d90" x="59.690625" y="118.987358" style="stroke: #000000; stroke-width: 0.8"/>
      </g>
     </g>
     <g id="text_13">
      <!-- 6000 -->
      <g transform="translate(27.240625 122.786577) scale(0.1 -0.1)">
       <use xlink:href="#DejaVuSans-36"/>
       <use xlink:href="#DejaVuSans-30" transform="translate(63.623047 0)"/>
       <use xlink:href="#DejaVuSans-30" transform="translate(127.246094 0)"/>
       <use xlink:href="#DejaVuSans-30" transform="translate(190.869141 0)"/>
      </g>
     </g>
    </g>
    <g id="ytick_5">
     <g id="line2d_13">
      <g>
       <use xlink:href="#m2f79633d90" x="59.690625" y="85.689811" style="stroke: #000000; stroke-width: 0.8"/>
      </g>
     </g>
     <g id="text_14">
      <!-- 8000 -->
      <g transform="translate(27.240625 89.48903) scale(0.1 -0.1)">
       <use xlink:href="#DejaVuSans-38"/>
       <use xlink:href="#DejaVuSans-30" transform="translate(63.623047 0)"/>
       <use xlink:href="#DejaVuSans-30" transform="translate(127.246094 0)"/>
       <use xlink:href="#DejaVuSans-30" transform="translate(190.869141 0)"/>
      </g>
     </g>
    </g>
    <g id="ytick_6">
     <g id="line2d_14">
      <g>
       <use xlink:href="#m2f79633d90" x="59.690625" y="52.392264" style="stroke: #000000; stroke-width: 0.8"/>
      </g>
     </g>
     <g id="text_15">
      <!-- 10000 -->
      <g transform="translate(20.878125 56.191482) scale(0.1 -0.1)">
       <use xlink:href="#DejaVuSans-31"/>
       <use xlink:href="#DejaVuSans-30" transform="translate(63.623047 0)"/>
       <use xlink:href="#DejaVuSans-30" transform="translate(127.246094 0)"/>
       <use xlink:href="#DejaVuSans-30" transform="translate(190.869141 0)"/>
       <use xlink:href="#DejaVuSans-30" transform="translate(254.492188 0)"/>
      </g>
     </g>
    </g>
    <g id="ytick_7">
     <g id="line2d_15">
      <g>
       <use xlink:href="#m2f79633d90" x="59.690625" y="19.094716" style="stroke: #000000; stroke-width: 0.8"/>
      </g>
     </g>
     <g id="text_16">
      <!-- 12000 -->
      <g transform="translate(20.878125 22.893935) scale(0.1 -0.1)">
       <use xlink:href="#DejaVuSans-31"/>
       <use xlink:href="#DejaVuSans-32" transform="translate(63.623047 0)"/>
       <use xlink:href="#DejaVuSans-30" transform="translate(127.246094 0)"/>
       <use xlink:href="#DejaVuSans-30" transform="translate(190.869141 0)"/>
       <use xlink:href="#DejaVuSans-30" transform="translate(254.492188 0)"/>
      </g>
     </g>
    </g>
    <g id="text_17">
     <!-- [counts] -->
     <g transform="translate(14.798438 138.6925) rotate(-90) scale(0.1 -0.1)">
      <defs>
       <path id="DejaVuSans-63" d="M 3122 3366 
L 3122 2828 
Q 2878 2963 2633 3030 
Q 2388 3097 2138 3097 
Q 1578 3097 1268 2742 
Q 959 2388 959 1747 
Q 959 1106 1268 751 
Q 1578 397 2138 397 
Q 2388 397 2633 464 
Q 2878 531 3122 666 
L 3122 134 
Q 2881 22 2623 -34 
Q 2366 -91 2075 -91 
Q 1284 -91 818 406 
Q 353 903 353 1747 
Q 353 2603 823 3093 
Q 1294 3584 2113 3584 
Q 2378 3584 2631 3529 
Q 2884 3475 3122 3366 
z
" transform="scale(0.015625)"/>
       <path id="DejaVuSans-75" d="M 544 1381 
L 544 3500 
L 1119 3500 
L 1119 1403 
Q 1119 906 1312 657 
Q 1506 409 1894 409 
Q 2359 409 2629 706 
Q 2900 1003 2900 1516 
L 2900 3500 
L 3475 3500 
L 3475 0 
L 2900 0 
L 2900 538 
Q 2691 219 2414 64 
Q 2138 -91 1772 -91 
Q 1169 -91 856 284 
Q 544 659 544 1381 
z
M 1991 3584 
L 1991 3584 
z
" transform="scale(0.015625)"/>
       <path id="DejaVuSans-6e" d="M 3513 2113 
L 3513 0 
L 2938 0 
L 2938 2094 
Q 2938 2591 2744 2837 
Q 2550 3084 2163 3084 
Q 1697 3084 1428 2787 
Q 1159 2491 1159 1978 
L 1159 0 
L 581 0 
L 581 3500 
L 1159 3500 
L 1159 2956 
Q 1366 3272 1645 3428 
Q 1925 3584 2291 3584 
Q 2894 3584 3203 3211 
Q 3513 2838 3513 2113 
z
" transform="scale(0.015625)"/>
      </defs>
      <use xlink:href="#DejaVuSans-5b"/>
      <use xlink:href="#DejaVuSans-63" transform="translate(39.013672 0)"/>
      <use xlink:href="#DejaVuSans-6f" transform="translate(93.994141 0)"/>
      <use xlink:href="#DejaVuSans-75" transform="translate(155.175781 0)"/>
      <use xlink:href="#DejaVuSans-6e" transform="translate(218.554688 0)"/>
      <use xlink:href="#DejaVuSans-74" transform="translate(281.933594 0)"/>
      <use xlink:href="#DejaVuSans-73" transform="translate(321.142578 0)"/>
      <use xlink:href="#DejaVuSans-5d" transform="translate(373.242188 0)"/>
     </g>
    </g>
   </g>
   <g id="line2d_16">
    <path d="M 74.908807 218.780107 
L 80.032774 218.680215 
L 80.032774 218.563673 
L 81.057567 218.563673 
L 81.057567 218.447132 
L 84.131947 218.363888 
L 84.131947 218.014264 
L 85.156741 218.014264 
L 85.156741 217.781181 
L 86.181534 217.781181 
L 86.181534 217.980966 
L 87.206327 217.980966 
L 87.206327 217.581396 
L 88.231121 217.581396 
L 88.231121 217.38161 
L 89.255914 217.38161 
L 89.255914 216.998689 
L 90.280708 216.998689 
L 90.280708 216.515874 
L 91.305501 216.515874 
L 91.305501 216.29944 
L 92.330294 216.29944 
L 92.330294 215.150675 
L 93.355088 215.150675 
L 93.355088 215.300514 
L 94.379881 215.300514 
L 94.379881 213.385905 
L 95.404675 213.385905 
L 95.404675 211.854218 
L 97.454261 211.82092 
L 97.454261 208.341326 
L 98.479055 208.341326 
L 98.479055 207.558834 
L 99.503848 207.558834 
L 99.503848 203.313397 
L 100.528642 203.313397 
L 100.528642 198.951418 
L 101.553435 198.951418 
L 101.553435 193.657108 
L 102.578228 193.657108 
L 102.578228 189.045398 
L 103.603022 189.045398 
L 103.603022 183.5846 
L 104.627815 183.5846 
L 104.627815 175.459998 
L 105.652608 175.459998 
L 105.652608 169.749469 
L 106.677402 169.749469 
L 106.677402 161.541624 
L 107.702195 161.541624 
L 107.702195 154.299407 
L 108.726989 154.299407 
L 108.726989 150.103916 
L 109.751782 150.103916 
L 109.751782 142.1791 
L 110.776575 142.1791 
L 110.776575 131.290802 
L 111.801369 131.290802 
L 111.801369 119.769851 
L 112.826162 119.769851 
L 112.826162 109.747289 
L 113.850956 109.747289 
L 113.850956 101.72258 
L 114.875749 101.72258 
L 114.875749 95.229558 
L 115.900542 95.229558 
L 115.900542 87.021713 
L 116.925336 87.021713 
L 116.925336 69.690339 
L 117.950129 69.690339 
L 117.950129 68.175301 
L 118.974923 68.175301 
L 118.974923 45.632862 
L 119.999716 45.632862 
L 119.999716 41.936834 
L 121.024509 41.936834 
L 121.024509 40.405147 
L 122.049303 40.405147 
L 122.049303 41.370775 
L 123.074096 41.370775 
L 123.074096 33.545852 
L 124.098889 33.545852 
L 124.098889 26.736503 
L 125.123683 26.736503 
L 125.123683 23.323505 
L 126.148476 23.323505 
L 126.148476 30.299341 
L 127.17327 30.299341 
L 127.17327 22.624256 
L 128.198063 22.624256 
L 128.198063 27.069479 
L 129.222856 27.069479 
L 129.222856 30.232746 
L 130.24765 30.232746 
L 130.24765 21.89171 
L 131.272443 21.89171 
L 131.272443 24.305782 
L 132.297237 24.305782 
L 132.297237 22.208037 
L 133.32203 22.208037 
L 133.32203 17.28 
L 134.346823 17.28 
L 134.346823 25.071626 
L 135.371617 25.071626 
L 135.371617 31.031887 
L 136.39641 31.031887 
L 136.39641 20.426618 
L 137.421204 20.426618 
L 137.421204 18.09579 
L 138.445997 18.09579 
L 138.445997 20.626404 
L 139.47079 20.626404 
L 139.47079 27.885269 
L 140.495584 27.885269 
L 140.495584 23.007178 
L 141.520377 23.007178 
L 141.520377 30.166151 
L 142.54517 30.166151 
L 142.54517 25.387953 
L 143.569964 25.387953 
L 143.569964 32.730062 
L 144.594757 32.730062 
L 144.594757 40.321903 
L 145.619551 40.321903 
L 145.619551 36.95885 
L 146.644344 36.95885 
L 146.644344 48.91267 
L 147.669137 48.91267 
L 147.669137 57.087218 
L 148.693931 57.087218 
L 148.693931 43.934687 
L 149.718724 43.934687 
L 149.718724 60.500216 
L 150.743518 60.500216 
L 150.743518 64.129649 
L 151.768311 64.129649 
L 151.768311 66.56037 
L 152.793104 66.56037 
L 152.793104 73.369718 
L 153.817898 73.369718 
L 153.817898 75.850386 
L 154.842691 75.850386 
L 154.842691 81.044803 
L 155.867485 81.044803 
L 155.867485 80.54534 
L 156.892278 80.54534 
L 156.892278 80.12912 
L 157.917071 80.12912 
L 157.917071 85.340187 
L 158.941865 85.340187 
L 158.941865 86.039435 
L 159.966658 86.039435 
L 159.966658 94.164037 
L 160.991451 94.164037 
L 160.991451 102.93794 
L 162.016245 102.93794 
L 162.016245 100.657058 
L 163.041038 100.657058 
L 163.041038 102.555019 
L 164.065832 102.555019 
L 164.065832 106.017963 
L 165.090625 106.017963 
L 165.090625 110.513132 
L 166.115418 110.513132 
L 166.115418 107.399812 
L 167.140212 107.399812 
L 167.140212 113.476614 
L 168.165005 113.476614 
L 168.165005 118.55449 
L 169.189799 118.55449 
L 169.189799 118.870817 
L 170.214592 118.870817 
L 170.214592 123.482527 
L 171.239385 123.482527 
L 171.239385 125.130756 
L 172.264179 125.130756 
L 172.264179 119.769851 
L 173.288972 119.769851 
L 173.288972 130.524958 
L 175.338559 130.541607 
L 175.338559 122.466952 
L 176.363352 122.466952 
L 176.363352 140.131301 
L 177.388146 140.131301 
L 177.388146 143.044836 
L 178.412939 143.044836 
L 178.412939 135.203264 
L 179.437732 135.203264 
L 179.437732 137.400902 
L 180.462526 137.400902 
L 180.462526 141.546446 
L 181.487319 141.546446 
L 181.487319 147.456761 
L 182.512113 147.456761 
L 182.512113 143.311216 
L 183.536906 143.311216 
L 183.536906 150.137214 
L 184.561699 150.137214 
L 184.561699 148.239253 
L 185.586493 148.239253 
L 185.586493 147.290273 
L 186.611286 147.290273 
L 186.611286 155.431524 
L 187.63608 155.431524 
L 187.63608 152.63453 
L 188.660873 152.63453 
L 188.660873 156.047528 
L 189.685666 156.047528 
L 189.685666 155.34828 
L 190.71046 155.34828 
L 190.71046 154.782221 
L 191.735253 154.782221 
L 191.735253 163.239798 
L 192.760046 163.239798 
L 192.760046 162.490604 
L 193.78484 162.490604 
L 193.78484 162.956769 
L 194.809633 162.956769 
L 194.809633 166.20328 
L 195.834427 166.20328 
L 195.834427 166.07009 
L 196.85922 166.07009 
L 196.85922 168.534109 
L 197.884013 168.534109 
L 197.884013 170.448717 
L 198.908807 170.448717 
L 198.908807 170.615205 
L 199.9336 170.615205 
L 199.9336 171.680727 
L 200.958394 171.680727 
L 200.958394 172.629707 
L 201.983187 172.629707 
L 201.983187 177.058281 
L 203.00798 177.058281 
L 203.00798 175.876218 
L 204.032774 175.876218 
L 204.032774 177.241417 
L 205.057567 177.241417 
L 205.057567 181.969669 
L 206.082361 181.969669 
L 206.082361 184.367092 
L 207.107154 184.367092 
L 207.107154 187.447115 
L 209.156741 187.38052 
L 209.156741 186.481486 
L 210.181534 186.481486 
L 210.181534 188.712422 
L 211.206327 188.712422 
L 211.206327 191.975582 
L 212.231121 191.975582 
L 212.231121 193.35743 
L 213.255914 193.35743 
L 213.255914 196.653887 
L 214.280708 196.653887 
L 214.280708 195.854746 
L 215.305501 195.854746 
L 215.305501 195.438527 
L 216.330294 195.438527 
L 216.330294 198.501901 
L 217.355088 198.501901 
L 217.355088 199.60072 
L 218.379881 199.60072 
L 218.379881 199.917047 
L 219.404675 199.917047 
L 219.404675 202.147982 
L 220.429468 202.147982 
L 220.429468 204.595352 
L 221.454261 204.595352 
L 221.454261 202.830582 
L 222.479055 202.830582 
L 222.479055 207.159263 
L 223.503848 207.159263 
L 223.503848 204.678596 
L 224.528642 204.678596 
L 224.528642 207.925107 
L 226.578228 207.958404 
L 226.578228 209.157116 
L 227.603022 209.157116 
L 227.603022 210.156043 
L 228.627815 210.156043 
L 228.627815 211.088374 
L 229.652608 211.088374 
L 229.652608 210.838642 
L 230.677402 210.838642 
L 230.677402 212.020705 
L 231.702195 212.020705 
L 231.702195 212.919739 
L 232.726989 212.919739 
L 232.726989 212.7699 
L 233.751782 212.7699 
L 233.751782 214.368182 
L 234.776575 214.368182 
L 234.776575 214.867646 
L 235.801369 214.867646 
L 235.801369 215.533596 
L 236.826162 215.533596 
L 236.826162 215.766679 
L 237.850956 215.766679 
L 237.850956 216.582469 
L 238.875749 216.582469 
L 238.875749 216.832201 
L 239.900542 216.832201 
L 239.900542 217.081932 
L 240.925336 217.081932 
L 240.925336 217.598044 
L 241.950129 217.598044 
L 241.950129 218.214049 
L 242.974923 218.214049 
L 242.974923 218.563673 
L 243.999716 218.563673 
L 243.999716 218.88 
L 379.272443 218.88 
L 379.272443 218.88 
" clip-path="url(#p63278bdae3)" style="fill: none; stroke: #1f77b4; stroke-width: 1.5; stroke-linecap: square"/>
   </g>
   <g id="line2d_17">
    <path d="M 74.908807 218.88 
L 105.652608 218.813405 
L 105.652608 218.730161 
L 108.726989 218.796756 
L 108.726989 218.596971 
L 110.776575 218.513727 
L 110.776575 218.730161 
L 111.801369 218.730161 
L 111.801369 218.497078 
L 114.875749 218.547025 
L 114.875749 218.363888 
L 115.900542 218.363888 
L 115.900542 218.130805 
L 116.925336 218.130805 
L 116.925336 218.430483 
L 117.950129 218.430483 
L 117.950129 218.164103 
L 118.974923 218.164103 
L 118.974923 218.297293 
L 119.999716 218.297293 
L 119.999716 217.964317 
L 121.024509 217.964317 
L 121.024509 217.814478 
L 122.049303 217.814478 
L 122.049303 217.997615 
L 123.074096 217.997615 
L 123.074096 217.531449 
L 126.148476 217.448205 
L 126.148476 217.031986 
L 128.198063 217.098581 
L 128.198063 216.632416 
L 129.222856 216.632416 
L 129.222856 216.84885 
L 130.24765 216.84885 
L 130.24765 215.61684 
L 132.297237 215.550245 
L 132.297237 215.467001 
L 133.32203 215.467001 
L 133.32203 214.584616 
L 134.346823 214.584616 
L 134.346823 214.701158 
L 135.371617 214.701158 
L 135.371617 213.069578 
L 136.39641 213.069578 
L 136.39641 213.202768 
L 137.421204 213.202768 
L 137.421204 212.536817 
L 138.445997 212.536817 
L 138.445997 210.638857 
L 139.47079 210.638857 
L 139.47079 209.839716 
L 140.495584 209.839716 
L 140.495584 208.624355 
L 141.520377 208.624355 
L 141.520377 205.9772 
L 142.54517 205.9772 
L 142.54517 206.609854 
L 143.569964 206.609854 
L 143.569964 202.297821 
L 144.594757 202.297821 
L 144.594757 201.931548 
L 145.619551 201.931548 
L 145.619551 199.251096 
L 146.644344 199.251096 
L 146.644344 195.904692 
L 147.669137 195.904692 
L 147.669137 196.370858 
L 148.693931 196.370858 
L 148.693931 189.944431 
L 149.718724 189.944431 
L 149.718724 191.32628 
L 150.743518 191.32628 
L 150.743518 186.581379 
L 151.768311 186.581379 
L 151.768311 184.53358 
L 152.793104 184.53358 
L 152.793104 181.586747 
L 153.817898 181.586747 
L 153.817898 179.821977 
L 154.842691 179.821977 
L 154.842691 176.175896 
L 155.867485 176.175896 
L 155.867485 174.427774 
L 156.892278 174.427774 
L 156.892278 172.44657 
L 157.917071 172.44657 
L 157.917071 170.215635 
L 158.941865 170.215635 
L 158.941865 163.256447 
L 159.966658 163.256447 
L 159.966658 160.958917 
L 160.991451 160.958917 
L 160.991451 156.447099 
L 162.016245 156.447099 
L 162.016245 152.701125 
L 163.041038 152.701125 
L 163.041038 148.905204 
L 164.065832 148.905204 
L 164.065832 148.439039 
L 165.090625 148.439039 
L 165.090625 144.493279 
L 166.115418 144.493279 
L 166.115418 142.678563 
L 167.140212 142.678563 
L 167.140212 138.033555 
L 168.165005 138.033555 
L 168.165005 130.608202 
L 169.189799 130.608202 
L 169.189799 135.036776 
L 170.214592 135.036776 
L 170.214592 122.21722 
L 171.239385 122.21722 
L 171.239385 123.332688 
L 172.264179 123.332688 
L 172.264179 115.541062 
L 173.288972 115.541062 
L 173.288972 112.294551 
L 174.313765 112.294551 
L 174.313765 112.411093 
L 175.338559 112.411093 
L 175.338559 114.292404 
L 176.363352 114.292404 
L 176.363352 111.162435 
L 177.388146 111.162435 
L 177.388146 110.379942 
L 178.412939 110.379942 
L 178.412939 106.151154 
L 179.437732 106.151154 
L 179.437732 108.681767 
L 180.462526 108.681767 
L 180.462526 107.399812 
L 181.487319 107.399812 
L 181.487319 102.188746 
L 182.512113 102.188746 
L 182.512113 101.622687 
L 183.536906 101.622687 
L 183.536906 99.225264 
L 184.561699 99.225264 
L 184.561699 107.083485 
L 186.611286 107.15008 
L 186.611286 99.924512 
L 187.63608 99.924512 
L 187.63608 103.986813 
L 188.660873 103.986813 
L 188.660873 103.137726 
L 189.685666 103.137726 
L 189.685666 106.101207 
L 190.71046 106.101207 
L 190.71046 99.27521 
L 191.735253 99.27521 
L 191.735253 102.521721 
L 192.760046 102.521721 
L 192.760046 100.723653 
L 193.78484 100.723653 
L 193.78484 97.277357 
L 194.809633 97.277357 
L 194.809633 102.072204 
L 195.834427 102.072204 
L 195.834427 98.692503 
L 196.85922 98.692503 
L 196.85922 104.003462 
L 197.884013 104.003462 
L 197.884013 107.599597 
L 198.908807 107.599597 
L 198.908807 108.432036 
L 199.9336 108.432036 
L 199.9336 98.159742 
L 200.958394 98.159742 
L 200.958394 100.22419 
L 201.983187 100.22419 
L 201.983187 94.080793 
L 203.00798 94.080793 
L 203.00798 104.802603 
L 204.032774 104.802603 
L 204.032774 99.108722 
L 205.057567 99.108722 
L 205.057567 98.026552 
L 206.082361 98.026552 
L 206.082361 103.803677 
L 207.107154 103.803677 
L 207.107154 103.320862 
L 208.131947 103.320862 
L 208.131947 108.382089 
L 209.156741 108.382089 
L 209.156741 105.052335 
L 210.181534 105.052335 
L 210.181534 104.020111 
L 211.206327 104.020111 
L 211.206327 108.798309 
L 212.231121 108.798309 
L 212.231121 105.535149 
L 213.255914 105.535149 
L 213.255914 107.533002 
L 214.280708 107.533002 
L 214.280708 110.296698 
L 215.305501 110.296698 
L 215.305501 104.419681 
L 216.330294 104.419681 
L 216.330294 109.297772 
L 217.355088 109.297772 
L 217.355088 122.916469 
L 219.404675 122.833225 
L 219.404675 107.799382 
L 220.429468 107.799382 
L 220.429468 116.223662 
L 221.454261 116.223662 
L 221.454261 121.384782 
L 222.479055 121.384782 
L 222.479055 120.385855 
L 223.503848 120.385855 
L 223.503848 117.272534 
L 224.528642 117.272534 
L 224.528642 124.947619 
L 225.553435 124.947619 
L 225.553435 129.82571 
L 226.578228 129.82571 
L 226.578228 126.512604 
L 227.603022 126.512604 
L 227.603022 130.408417 
L 228.627815 130.408417 
L 228.627815 137.234414 
L 229.652608 137.234414 
L 229.652608 132.389621 
L 230.677402 132.389621 
L 230.677402 125.780058 
L 231.702195 125.780058 
L 231.702195 131.673724 
L 232.726989 131.673724 
L 232.726989 138.249989 
L 233.751782 138.249989 
L 233.751782 141.23012 
L 234.776575 141.23012 
L 234.776575 131.823563 
L 235.801369 131.823563 
L 235.801369 138.766101 
L 236.826162 138.766101 
L 236.826162 136.185541 
L 237.850956 136.185541 
L 237.850956 141.596393 
L 238.875749 141.596393 
L 238.875749 149.487911 
L 239.900542 149.487911 
L 239.900542 137.184468 
L 240.925336 137.184468 
L 240.925336 141.463203 
L 241.950129 141.463203 
L 241.950129 146.840756 
L 242.974923 146.840756 
L 242.974923 148.072766 
L 243.999716 148.072766 
L 243.999716 147.190381 
L 245.024509 147.190381 
L 245.024509 146.857405 
L 246.049303 146.857405 
L 246.049303 151.086194 
L 247.074096 151.086194 
L 247.074096 153.367076 
L 248.098889 153.367076 
L 248.098889 151.319277 
L 249.123683 151.319277 
L 249.123683 156.530343 
L 250.148476 156.530343 
L 250.148476 153.916485 
L 251.17327 153.916485 
L 251.17327 149.154936 
L 252.198063 149.154936 
L 252.198063 153.84989 
L 253.222856 153.84989 
L 253.222856 156.014231 
L 254.24765 156.014231 
L 254.24765 160.526048 
L 255.272443 160.526048 
L 255.272443 157.579215 
L 256.297237 157.579215 
L 256.297237 156.97986 
L 257.32203 156.97986 
L 257.32203 162.756984 
L 258.346823 162.756984 
L 258.346823 163.006716 
L 259.371617 163.006716 
L 259.371617 159.56042 
L 260.39641 159.56042 
L 260.39641 164.721539 
L 261.421204 164.721539 
L 261.421204 162.490604 
L 262.445997 162.490604 
L 262.445997 162.157628 
L 263.47079 162.157628 
L 263.47079 166.586202 
L 264.495584 166.586202 
L 264.495584 165.470734 
L 265.520377 165.470734 
L 265.520377 164.85473 
L 266.54517 164.85473 
L 266.54517 165.920251 
L 267.569964 165.920251 
L 267.569964 166.985773 
L 268.594757 166.985773 
L 268.594757 171.880512 
L 269.619551 171.880512 
L 269.619551 169.932606 
L 270.644344 169.932606 
L 270.644344 169.799415 
L 271.669137 169.799415 
L 271.669137 170.315527 
L 272.693931 170.315527 
L 272.693931 174.76075 
L 273.718724 174.76075 
L 273.718724 170.715098 
L 274.743518 170.715098 
L 274.743518 169.616279 
L 275.768311 169.616279 
L 275.768311 172.163541 
L 276.793104 172.163541 
L 276.793104 177.391256 
L 277.817898 177.391256 
L 277.817898 173.029277 
L 278.842691 173.029277 
L 278.842691 174.943886 
L 279.867485 174.943886 
L 279.867485 177.374607 
L 280.892278 177.374607 
L 280.892278 176.209193 
L 281.917071 176.209193 
L 281.917071 177.707583 
L 282.941865 177.707583 
L 282.941865 175.310159 
L 283.966658 175.310159 
L 283.966658 181.81983 
L 284.991451 181.81983 
L 284.991451 175.776325 
L 286.016245 175.776325 
L 286.016245 180.338089 
L 287.041038 180.338089 
L 287.041038 177.957314 
L 288.065832 177.957314 
L 288.065832 180.637767 
L 289.090625 180.637767 
L 289.090625 185.399316 
L 290.115418 185.399316 
L 290.115418 181.919723 
L 291.140212 181.919723 
L 291.140212 181.653342 
L 292.165005 181.653342 
L 292.165005 181.303718 
L 293.189799 181.303718 
L 293.189799 180.804255 
L 294.214592 180.804255 
L 294.214592 184.866555 
L 295.239385 184.866555 
L 295.239385 186.581379 
L 296.264179 186.581379 
L 296.264179 185.882131 
L 297.288972 185.882131 
L 297.288972 184.333795 
L 298.313765 184.333795 
L 298.313765 185.815536 
L 299.338559 185.815536 
L 299.338559 191.009953 
L 300.363352 191.009953 
L 300.363352 186.647974 
L 301.388146 186.647974 
L 301.388146 188.079769 
L 302.412939 188.079769 
L 302.412939 189.361724 
L 303.437732 189.361724 
L 303.437732 188.279554 
L 304.462526 188.279554 
L 304.462526 187.646901 
L 305.487319 187.646901 
L 305.487319 191.875689 
L 306.512113 191.875689 
L 306.512113 188.928856 
L 307.536906 188.928856 
L 307.536906 189.661402 
L 308.561699 189.661402 
L 308.561699 194.755927 
L 309.586493 194.755927 
L 309.586493 192.491694 
L 310.611286 192.491694 
L 310.611286 191.975582 
L 311.63608 191.975582 
L 311.63608 193.940137 
L 313.685666 194.023381 
L 313.685666 195.93799 
L 314.71046 195.93799 
L 314.71046 195.438527 
L 315.735253 195.438527 
L 315.735253 194.85582 
L 316.760046 194.85582 
L 316.760046 197.053458 
L 317.78484 197.053458 
L 317.78484 197.902545 
L 318.809633 197.902545 
L 318.809633 198.951418 
L 319.834427 198.951418 
L 319.834427 199.883749 
L 320.85922 199.883749 
L 320.85922 200.449808 
L 321.884013 200.449808 
L 321.884013 199.267745 
L 322.908807 199.267745 
L 322.908807 200.816081 
L 323.9336 200.816081 
L 323.9336 201.265597 
L 325.983187 201.182354 
L 325.983187 201.964846 
L 327.00798 201.964846 
L 327.00798 202.680743 
L 328.032774 202.680743 
L 328.032774 204.362269 
L 329.057567 204.362269 
L 329.057567 203.646372 
L 330.082361 203.646372 
L 330.082361 207.009424 
L 331.107154 207.009424 
L 331.107154 205.943903 
L 332.131947 205.943903 
L 332.131947 203.829509 
L 333.156741 203.829509 
L 333.156741 205.877308 
L 334.181534 205.877308 
L 334.181534 206.876234 
L 335.206327 206.876234 
L 335.206327 204.811786 
L 336.231121 204.811786 
L 336.231121 207.991702 
L 337.255914 207.991702 
L 337.255914 207.791917 
L 338.280708 207.791917 
L 338.280708 207.309102 
L 339.305501 207.309102 
L 339.305501 209.473443 
L 341.355088 209.406848 
L 341.355088 209.157116 
L 342.379881 209.157116 
L 342.379881 210.522316 
L 343.404675 210.522316 
L 343.404675 209.839716 
L 344.429468 209.839716 
L 344.429468 210.339179 
L 345.454261 210.339179 
L 345.454261 211.071725 
L 346.479055 211.071725 
L 346.479055 210.622208 
L 347.503848 210.622208 
L 347.503848 212.137247 
L 348.528642 212.137247 
L 348.528642 211.970759 
L 349.553435 211.970759 
L 349.553435 211.721027 
L 350.578228 211.721027 
L 350.578228 213.069578 
L 351.603022 213.069578 
L 351.603022 213.236066 
L 352.627815 213.236066 
L 352.627815 213.03628 
L 353.652608 213.03628 
L 353.652608 214.451426 
L 354.677402 214.451426 
L 354.677402 213.868719 
L 355.702195 213.868719 
L 355.702195 214.484724 
L 356.726989 214.484724 
L 356.726989 213.552392 
L 357.751782 213.552392 
L 357.751782 214.684509 
L 358.776575 214.684509 
L 358.776575 214.817699 
L 359.801369 214.817699 
L 359.801369 215.167323 
L 360.826162 215.167323 
L 360.826162 215.034133 
L 361.850956 215.034133 
L 361.850956 215.666787 
L 362.875749 215.666787 
L 362.875749 215.89987 
L 364.925336 215.949816 
L 364.925336 216.482577 
L 365.950129 216.482577 
L 365.950129 216.665713 
L 366.974923 216.665713 
L 366.974923 216.882147 
L 369.024509 216.98204 
L 369.024509 217.331664 
L 370.049303 217.331664 
L 370.049303 217.498152 
L 371.074096 217.498152 
L 371.074096 217.24842 
L 372.098889 217.24842 
L 372.098889 217.831127 
L 375.17327 217.79783 
L 375.17327 218.114156 
L 377.222856 218.180752 
L 377.222856 218.513727 
L 379.272443 218.530376 
L 379.272443 218.530376 
" clip-path="url(#p63278bdae3)" style="fill: none; stroke: #ff7f0e; stroke-width: 1.5; stroke-linecap: square"/>
   </g>
   <g id="patch_3">
    <path d="M 59.690625 228.96 
L 59.690625 7.2 
" style="fill: none; stroke: #000000; stroke-width: 0.8; stroke-linejoin: miter; stroke-linecap: square"/>
   </g>
   <g id="patch_4">
    <path d="M 394.490625 228.96 
L 394.490625 7.2 
" style="fill: none; stroke: #000000; stroke-width: 0.8; stroke-linejoin: miter; stroke-linecap: square"/>
   </g>
   <g id="patch_5">
    <path d="M 59.690625 228.96 
L 394.490625 228.96 
" style="fill: none; stroke: #000000; stroke-width: 0.8; stroke-linejoin: miter; stroke-linecap: square"/>
   </g>
   <g id="patch_6">
    <path d="M 59.690625 7.2 
L 394.490625 7.2 
" style="fill: none; stroke: #000000; stroke-width: 0.8; stroke-linejoin: miter; stroke-linecap: square"/>
   </g>
   <g id="legend_1">
    <g id="patch_7">
     <path d="M 313.267188 44.55625 
L 387.490625 44.55625 
Q 389.490625 44.55625 389.490625 42.55625 
L 389.490625 14.2 
Q 389.490625 12.2 387.490625 12.2 
L 313.267188 12.2 
Q 311.267188 12.2 311.267188 14.2 
L 311.267188 42.55625 
Q 311.267188 44.55625 313.267188 44.55625 
z
" style="fill: #ffffff; opacity: 0.8; stroke: #cccccc; stroke-linejoin: miter"/>
    </g>
    <g id="line2d_18">
     <path d="M 315.267188 20.298437 
L 315.267188 20.298437 
L 325.267188 20.298437 
L 325.267188 20.298437 
L 335.267188 20.298437 
" style="fill: none; stroke: #1f77b4; stroke-width: 1.5; stroke-linecap: square"/>
    </g>
    <g id="text_18">
     <!-- monitor -->
     <g transform="translate(343.267188 23.798437) scale(0.1 -0.1)">
      <defs>
       <path id="DejaVuSans-6d" d="M 3328 2828 
Q 3544 3216 3844 3400 
Q 4144 3584 4550 3584 
Q 5097 3584 5394 3201 
Q 5691 2819 5691 2113 
L 5691 0 
L 5113 0 
L 5113 2094 
Q 5113 2597 4934 2840 
Q 4756 3084 4391 3084 
Q 3944 3084 3684 2787 
Q 3425 2491 3425 1978 
L 3425 0 
L 2847 0 
L 2847 2094 
Q 2847 2600 2669 2842 
Q 2491 3084 2119 3084 
Q 1678 3084 1418 2786 
Q 1159 2488 1159 1978 
L 1159 0 
L 581 0 
L 581 3500 
L 1159 3500 
L 1159 2956 
Q 1356 3278 1631 3431 
Q 1906 3584 2284 3584 
Q 2666 3584 2933 3390 
Q 3200 3197 3328 2828 
z
" transform="scale(0.015625)"/>
       <path id="DejaVuSans-69" d="M 603 3500 
L 1178 3500 
L 1178 0 
L 603 0 
L 603 3500 
z
M 603 4863 
L 1178 4863 
L 1178 4134 
L 603 4134 
L 603 4863 
z
" transform="scale(0.015625)"/>
       <path id="DejaVuSans-72" d="M 2631 2963 
Q 2534 3019 2420 3045 
Q 2306 3072 2169 3072 
Q 1681 3072 1420 2755 
Q 1159 2438 1159 1844 
L 1159 0 
L 581 0 
L 581 3500 
L 1159 3500 
L 1159 2956 
Q 1341 3275 1631 3429 
Q 1922 3584 2338 3584 
Q 2397 3584 2469 3576 
Q 2541 3569 2628 3553 
L 2631 2963 
z
" transform="scale(0.015625)"/>
      </defs>
      <use xlink:href="#DejaVuSans-6d"/>
      <use xlink:href="#DejaVuSans-6f" transform="translate(97.412109 0)"/>
      <use xlink:href="#DejaVuSans-6e" transform="translate(158.59375 0)"/>
      <use xlink:href="#DejaVuSans-69" transform="translate(221.972656 0)"/>
      <use xlink:href="#DejaVuSans-74" transform="translate(249.755859 0)"/>
      <use xlink:href="#DejaVuSans-6f" transform="translate(288.964844 0)"/>
      <use xlink:href="#DejaVuSans-72" transform="translate(350.146484 0)"/>
     </g>
    </g>
    <g id="line2d_19">
     <path d="M 315.267188 34.976562 
L 315.267188 34.976562 
L 325.267188 34.976562 
L 325.267188 34.976562 
L 335.267188 34.976562 
" style="fill: none; stroke: #ff7f0e; stroke-width: 1.5; stroke-linecap: square"/>
    </g>
    <g id="text_19">
     <!-- detector -->
     <g transform="translate(343.267188 38.476562) scale(0.1 -0.1)">
      <defs>
       <path id="DejaVuSans-64" d="M 2906 2969 
L 2906 4863 
L 3481 4863 
L 3481 0 
L 2906 0 
L 2906 525 
Q 2725 213 2448 61 
Q 2172 -91 1784 -91 
Q 1150 -91 751 415 
Q 353 922 353 1747 
Q 353 2572 751 3078 
Q 1150 3584 1784 3584 
Q 2172 3584 2448 3432 
Q 2725 3281 2906 2969 
z
M 947 1747 
Q 947 1113 1208 752 
Q 1469 391 1925 391 
Q 2381 391 2643 752 
Q 2906 1113 2906 1747 
Q 2906 2381 2643 2742 
Q 2381 3103 1925 3103 
Q 1469 3103 1208 2742 
Q 947 2381 947 1747 
z
" transform="scale(0.015625)"/>
       <path id="DejaVuSans-65" d="M 3597 1894 
L 3597 1613 
L 953 1613 
Q 991 1019 1311 708 
Q 1631 397 2203 397 
Q 2534 397 2845 478 
Q 3156 559 3463 722 
L 3463 178 
Q 3153 47 2828 -22 
Q 2503 -91 2169 -91 
Q 1331 -91 842 396 
Q 353 884 353 1716 
Q 353 2575 817 3079 
Q 1281 3584 2069 3584 
Q 2775 3584 3186 3129 
Q 3597 2675 3597 1894 
z
M 3022 2063 
Q 3016 2534 2758 2815 
Q 2500 3097 2075 3097 
Q 1594 3097 1305 2825 
Q 1016 2553 972 2059 
L 3022 2063 
z
" transform="scale(0.015625)"/>
      </defs>
      <use xlink:href="#DejaVuSans-64"/>
      <use xlink:href="#DejaVuSans-65" transform="translate(63.476562 0)"/>
      <use xlink:href="#DejaVuSans-74" transform="translate(125 0)"/>
      <use xlink:href="#DejaVuSans-65" transform="translate(164.208984 0)"/>
      <use xlink:href="#DejaVuSans-63" transform="translate(225.732422 0)"/>
      <use xlink:href="#DejaVuSans-74" transform="translate(280.712891 0)"/>
      <use xlink:href="#DejaVuSans-6f" transform="translate(319.921875 0)"/>
      <use xlink:href="#DejaVuSans-72" transform="translate(381.103516 0)"/>
     </g>
    </g>
   </g>
  </g>
 </g>
 <defs>
  <clipPath id="p63278bdae3">
   <rect x="59.690625" y="7.2" width="334.8" height="221.76"/>
  </clipPath>
 </defs>
</svg>
