<?xml version="1.0" encoding="UTF-8" standalone="no"?>
<!DOCTYPE svg PUBLIC "-//W3C//DTD SVG 1.1//EN"
 "http://www.w3.org/Graphics/SVG/1.1/DTD/svg11.dtd">
<!-- Generated by graphviz version 2.43.0 (0)
 -->
<!-- Title: %3 Pages: 1 -->
<svg width="1379pt" height="169pt"
 viewBox="0.00 0.00 1379.00 169.00" xmlns="http://www.w3.org/2000/svg" xmlns:xlink="http://www.w3.org/1999/xlink">
<g id="graph0" class="graph" transform="scale(1 1) rotate(0) translate(4 165)">
<title>%3</title>
<polygon fill="white" stroke="transparent" points="-4,4 -4,-165 1375,-165 1375,4 -4,4"/>
<!-- DiskChoppers -->
<g id="node1" class="node">
<title>DiskChoppers</title>
<polygon fill="none" stroke="black" points="116,-161 0,-161 0,-138 116,-138 116,-161"/>
<text text-anchor="middle" x="58" y="-145.8" font-family="Times,serif" font-size="14.00">DiskChoppers</text>
</g>
<!-- SimulationResults -->
<g id="node9" class="node">
<title>SimulationResults</title>
<polygon fill="none" stroke="black" points="556,-102 314,-102 314,-69 556,-69 556,-102"/>
<text text-anchor="start" x="369.5" y="-87.8" font-family="Times,serif" font-size="14.00">SimulationResults</text>
<text text-anchor="start" x="322" y="-76.2" font-family="Times,serif" font-size="11.00">via:</text>
<text text-anchor="start" x="343" y="-76.2" font-family="Times,serif" font-style="italic" font-size="11.00">simulate_chopper_cascade_using_tof</text>
</g>
<!-- DiskChoppers&#45;&gt;SimulationResults -->
<g id="edge1" class="edge">
<title>DiskChoppers&#45;&gt;SimulationResults</title>
<path fill="none" stroke="black" d="M116.08,-138.65C117.4,-138.43 118.71,-138.22 120,-138 189.64,-126.41 267.99,-113.6 329.12,-103.66"/>
<polygon fill="black" stroke="black" points="329.86,-107.08 339.17,-102.02 328.74,-100.17 329.86,-107.08"/>
</g>
<!-- DistanceResolution -->
<g id="node2" class="node">
<title>DistanceResolution</title>
<polygon fill="none" stroke="black" points="718.5,-97 563.5,-97 563.5,-74 718.5,-74 718.5,-97"/>
<text text-anchor="middle" x="641" y="-81.8" font-family="Times,serif" font-size="14.00">DistanceResolution</text>
</g>
<!-- TimeOfFlightLookupTable -->
<g id="node12" class="node">
<title>TimeOfFlightLookupTable</title>
<polygon fill="none" stroke="black" points="1160.5,-33 959.5,-33 959.5,0 1160.5,0 1160.5,-33"/>
<text text-anchor="start" x="967.5" y="-18.8" font-family="Times,serif" font-size="14.00">TimeOfFlightLookupTable</text>
<text text-anchor="start" x="985.5" y="-7.2" font-family="Times,serif" font-size="11.00">via:</text>
<text text-anchor="start" x="1006.5" y="-7.2" font-family="Times,serif" font-style="italic" font-size="11.00">make_tof_lookup_table</text>
</g>
<!-- DistanceResolution&#45;&gt;TimeOfFlightLookupTable -->
<g id="edge9" class="edge">
<title>DistanceResolution&#45;&gt;TimeOfFlightLookupTable</title>
<path fill="none" stroke="black" d="M694.54,-73.96C703.69,-72.24 713.11,-70.53 722,-69 797.68,-56 883.18,-42.99 949.25,-33.29"/>
<polygon fill="black" stroke="black" points="949.88,-36.74 959.27,-31.83 948.87,-29.81 949.88,-36.74"/>
</g>
<!-- LookupTableRelativeErrorThreshold -->
<g id="node3" class="node">
<title>LookupTableRelativeErrorThreshold</title>
<polygon fill="none" stroke="black" points="1000.5,-97 725.5,-97 725.5,-74 1000.5,-74 1000.5,-97"/>
<text text-anchor="middle" x="863" y="-81.8" font-family="Times,serif" font-size="14.00">LookupTableRelativeErrorThreshold</text>
</g>
<!-- LookupTableRelativeErrorThreshold&#45;&gt;TimeOfFlightLookupTable -->
<g id="edge13" class="edge">
<title>LookupTableRelativeErrorThreshold&#45;&gt;TimeOfFlightLookupTable</title>
<path fill="none" stroke="black" d="M894.22,-73.88C923.77,-63.83 968.8,-48.52 1004.47,-36.38"/>
<polygon fill="black" stroke="black" points="1005.93,-39.59 1014.27,-33.05 1003.67,-32.96 1005.93,-39.59"/>
</g>
<!-- LtotalRange -->
<g id="node4" class="node">
<title>LtotalRange</title>
<polygon fill="none" stroke="black" points="1112,-97 1008,-97 1008,-74 1112,-74 1112,-97"/>
<text text-anchor="middle" x="1060" y="-81.8" font-family="Times,serif" font-size="14.00">LtotalRange</text>
</g>
<!-- LtotalRange&#45;&gt;TimeOfFlightLookupTable -->
<g id="edge8" class="edge">
<title>LtotalRange&#45;&gt;TimeOfFlightLookupTable</title>
<path fill="none" stroke="black" d="M1060,-73.74C1060,-65.52 1060,-53.86 1060,-43.28"/>
<polygon fill="black" stroke="black" points="1063.5,-43.23 1060,-33.23 1056.5,-43.24 1063.5,-43.23"/>
</g>
<!-- NumberOfSimulatedNeutrons -->
<g id="node5" class="node">
<title>NumberOfSimulatedNeutrons</title>
<polygon fill="none" stroke="black" points="354.5,-161 123.5,-161 123.5,-138 354.5,-138 354.5,-161"/>
<text text-anchor="middle" x="239" y="-145.8" font-family="Times,serif" font-size="14.00">NumberOfSimulatedNeutrons</text>
</g>
<!-- NumberOfSimulatedNeutrons&#45;&gt;SimulationResults -->
<g id="edge3" class="edge">
<title>NumberOfSimulatedNeutrons&#45;&gt;SimulationResults</title>
<path fill="none" stroke="black" d="M272.25,-137.98C300.58,-129.02 341.98,-115.93 375.93,-105.19"/>
<polygon fill="black" stroke="black" points="377.27,-108.43 385.75,-102.08 375.16,-101.76 377.27,-108.43"/>
</g>
<!-- PulsePeriod -->
<g id="node6" class="node">
<title>PulsePeriod</title>
<polygon fill="none" stroke="black" points="1220.5,-97 1119.5,-97 1119.5,-74 1220.5,-74 1220.5,-97"/>
<text text-anchor="middle" x="1170" y="-81.8" font-family="Times,serif" font-size="14.00">PulsePeriod</text>
</g>
<!-- PulsePeriod&#45;&gt;TimeOfFlightLookupTable -->
<g id="edge11" class="edge">
<title>PulsePeriod&#45;&gt;TimeOfFlightLookupTable</title>
<path fill="none" stroke="black" d="M1152.33,-73.74C1136.81,-64.28 1113.78,-50.26 1094.61,-38.58"/>
<polygon fill="black" stroke="black" points="1096.19,-35.45 1085.83,-33.23 1092.55,-41.43 1096.19,-35.45"/>
</g>
<!-- PulseStride -->
<g id="node7" class="node">
<title>PulseStride</title>
<polygon fill="none" stroke="black" points="1082,-161 982,-161 982,-138 1082,-138 1082,-161"/>
<text text-anchor="middle" x="1032" y="-145.8" font-family="Times,serif" font-size="14.00">PulseStride</text>
</g>
<!-- PulseStride&#45;&gt;SimulationResults -->
<g id="edge4" class="edge">
<title>PulseStride&#45;&gt;SimulationResults</title>
<path fill="none" stroke="black" d="M981.66,-143.96C897.17,-136.25 721.21,-119.8 566.24,-102.69"/>
<polygon fill="black" stroke="black" points="566.39,-99.18 556.07,-101.56 565.62,-106.14 566.39,-99.18"/>
</g>
<!-- PulseStride&#45;&gt;TimeOfFlightLookupTable -->
<g id="edge12" class="edge">
<title>PulseStride&#45;&gt;TimeOfFlightLookupTable</title>
<path fill="none" stroke="black" d="M1082.3,-143.31C1133.15,-136.89 1206.66,-124.04 1224,-102 1249.34,-69.79 1208.39,-48.67 1161.08,-35.6"/>
<polygon fill="black" stroke="black" points="1161.8,-32.17 1151.23,-33.02 1160.02,-38.94 1161.8,-32.17"/>
</g>
<!-- SimulationFacility -->
<g id="node8" class="node">
<title>SimulationFacility</title>
<polygon fill="none" stroke="black" points="508,-161 362,-161 362,-138 508,-138 508,-161"/>
<text text-anchor="middle" x="435" y="-145.8" font-family="Times,serif" font-size="14.00">SimulationFacility</text>
</g>
<!-- SimulationFacility&#45;&gt;SimulationResults -->
<g id="edge6" class="edge">
<title>SimulationFacility&#45;&gt;SimulationResults</title>
<path fill="none" stroke="black" d="M435,-137.98C435,-130.93 435,-121.32 435,-112.31"/>
<polygon fill="black" stroke="black" points="438.5,-112.2 435,-102.2 431.5,-112.2 438.5,-112.2"/>
</g>
<!-- SimulationResults&#45;&gt;TimeOfFlightLookupTable -->
<g id="edge7" class="edge">
<title>SimulationResults&#45;&gt;TimeOfFlightLookupTable</title>
<path fill="none" stroke="black" d="M556.07,-69.45C557.39,-69.3 558.7,-69.15 560,-69 693.71,-53.83 847.75,-38.25 949.12,-28.26"/>
<polygon fill="black" stroke="black" points="949.77,-31.71 959.38,-27.25 949.08,-24.74 949.77,-31.71"/>
</g>
<!-- SourcePosition -->
<g id="node10" class="node">
<title>SourcePosition</title>
<polygon fill="none" stroke="black" points="638.5,-161 515.5,-161 515.5,-138 638.5,-138 638.5,-161"/>
<text text-anchor="middle" x="577" y="-145.8" font-family="Times,serif" font-size="14.00">SourcePosition</text>
</g>
<!-- SourcePosition&#45;&gt;SimulationResults -->
<g id="edge2" class="edge">
<title>SourcePosition&#45;&gt;SimulationResults</title>
<path fill="none" stroke="black" d="M552.91,-137.98C533,-129.29 504.19,-116.71 480.03,-106.16"/>
<polygon fill="black" stroke="black" points="481.25,-102.87 470.68,-102.08 478.45,-109.29 481.25,-102.87"/>
</g>
<!-- SimulationSeed -->
<g id="node11" class="node">
<title>SimulationSeed</title>
<polygon fill="none" stroke="black" points="774.5,-161 645.5,-161 645.5,-138 774.5,-138 774.5,-161"/>
<text text-anchor="middle" x="710" y="-145.8" font-family="Times,serif" font-size="14.00">SimulationSeed</text>
</g>
<!-- SimulationSeed&#45;&gt;SimulationResults -->
<g id="edge5" class="edge">
<title>SimulationSeed&#45;&gt;SimulationResults</title>
<path fill="none" stroke="black" d="M663.35,-137.98C622.42,-128.75 562.05,-115.14 513.66,-104.23"/>
<polygon fill="black" stroke="black" points="514.37,-100.81 503.84,-102.02 512.83,-107.63 514.37,-100.81"/>
</g>
<!-- TimeResolution -->
<g id="node13" class="node">
<title>TimeResolution</title>
<polygon fill="none" stroke="black" points="1371,-97 1243,-97 1243,-74 1371,-74 1371,-97"/>
<text text-anchor="middle" x="1307" y="-81.8" font-family="Times,serif" font-size="14.00">TimeResolution</text>
</g>
<!-- TimeResolution&#45;&gt;TimeOfFlightLookupTable -->
<g id="edge10" class="edge">
<title>TimeResolution&#45;&gt;TimeOfFlightLookupTable</title>
<path fill="none" stroke="black" d="M1268.13,-73.96C1230.42,-63.73 1172.41,-47.99 1127.2,-35.73"/>
<polygon fill="black" stroke="black" points="1128.04,-32.33 1117.47,-33.09 1126.2,-39.08 1128.04,-32.33"/>
</g>
</g>
</svg>
