<?xml version="1.0" encoding="utf-8" standalone="no"?>
<!DOCTYPE svg PUBLIC "-//W3C//DTD SVG 1.1//EN"
  "http://www.w3.org/Graphics/SVG/1.1/DTD/svg11.dtd">
<svg xmlns:xlink="http://www.w3.org/1999/xlink" width="872.39952pt" height="296.39952pt" viewBox="0 0 872.39952 296.39952" xmlns="http://www.w3.org/2000/svg" version="1.1">
 <metadata>
  <rdf:RDF xmlns:dc="http://purl.org/dc/elements/1.1/" xmlns:cc="http://creativecommons.org/ns#" xmlns:rdf="http://www.w3.org/1999/02/22-rdf-syntax-ns#">
   <cc:Work>
    <dc:type rdf:resource="http://purl.org/dc/dcmitype/StillImage"/>
    <dc:date>2025-01-30T11:58:27.271935</dc:date>
    <dc:format>image/svg+xml</dc:format>
    <dc:creator>
     <cc:Agent>
      <dc:title>Matplotlib v3.10.0, https://matplotlib.org/</dc:title>
     </cc:Agent>
    </dc:creator>
   </cc:Work>
  </rdf:RDF>
 </metadata>
 <defs>
  <style type="text/css">*{stroke-linejoin: round; stroke-linecap: butt}</style>
 </defs>
 <g id="figure_1">
  <g id="patch_1">
   <path d="M 0 296.39952 
L 872.39952 296.39952 
L 872.39952 0 
L 0 0 
z
" style="fill: #ffffff"/>
  </g>
  <g id="axes_1">
   <g id="patch_2">
    <path d="M 53.328125 257.158895 
L 431.87976 257.158895 
L 431.87976 7.2 
L 53.328125 7.2 
z
" style="fill: #ffffff"/>
   </g>
   <g id="matplotlib.axis_1">
    <g id="xtick_1">
     <g id="line2d_1">
      <defs>
       <path id="m6a4e058986" d="M 0 0 
L 0 3.5 
" style="stroke: #000000; stroke-width: 0.8"/>
      </defs>
      <g>
       <use xlink:href="#m6a4e058986" x="69.652509" y="257.158895" style="stroke: #000000; stroke-width: 0.8"/>
      </g>
     </g>
     <g id="text_1">
      <!-- 0 -->
      <g transform="translate(66.471259 271.757332) scale(0.1 -0.1)">
       <defs>
        <path id="DejaVuSans-30" d="M 2034 4250 
Q 1547 4250 1301 3770 
Q 1056 3291 1056 2328 
Q 1056 1369 1301 889 
Q 1547 409 2034 409 
Q 2525 409 2770 889 
Q 3016 1369 3016 2328 
Q 3016 3291 2770 3770 
Q 2525 4250 2034 4250 
z
M 2034 4750 
Q 2819 4750 3233 4129 
Q 3647 3509 3647 2328 
Q 3647 1150 3233 529 
Q 2819 -91 2034 -91 
Q 1250 -91 836 529 
Q 422 1150 422 2328 
Q 422 3509 836 4129 
Q 1250 4750 2034 4750 
z
" transform="scale(0.015625)"/>
       </defs>
       <use xlink:href="#DejaVuSans-30"/>
      </g>
     </g>
    </g>
    <g id="xtick_2">
     <g id="line2d_2">
      <g>
       <use xlink:href="#m6a4e058986" x="139.007333" y="257.158895" style="stroke: #000000; stroke-width: 0.8"/>
      </g>
     </g>
     <g id="text_2">
      <!-- 1000 -->
      <g transform="translate(126.282333 271.757332) scale(0.1 -0.1)">
       <defs>
        <path id="DejaVuSans-31" d="M 794 531 
L 1825 531 
L 1825 4091 
L 703 3866 
L 703 4441 
L 1819 4666 
L 2450 4666 
L 2450 531 
L 3481 531 
L 3481 0 
L 794 0 
L 794 531 
z
" transform="scale(0.015625)"/>
       </defs>
       <use xlink:href="#DejaVuSans-31"/>
       <use xlink:href="#DejaVuSans-30" transform="translate(63.623047 0)"/>
       <use xlink:href="#DejaVuSans-30" transform="translate(127.246094 0)"/>
       <use xlink:href="#DejaVuSans-30" transform="translate(190.869141 0)"/>
      </g>
     </g>
    </g>
    <g id="xtick_3">
     <g id="line2d_3">
      <g>
       <use xlink:href="#m6a4e058986" x="208.362156" y="257.158895" style="stroke: #000000; stroke-width: 0.8"/>
      </g>
     </g>
     <g id="text_3">
      <!-- 2000 -->
      <g transform="translate(195.637156 271.757332) scale(0.1 -0.1)">
       <defs>
        <path id="DejaVuSans-32" d="M 1228 531 
L 3431 531 
L 3431 0 
L 469 0 
L 469 531 
Q 828 903 1448 1529 
Q 2069 2156 2228 2338 
Q 2531 2678 2651 2914 
Q 2772 3150 2772 3378 
Q 2772 3750 2511 3984 
Q 2250 4219 1831 4219 
Q 1534 4219 1204 4116 
Q 875 4013 500 3803 
L 500 4441 
Q 881 4594 1212 4672 
Q 1544 4750 1819 4750 
Q 2544 4750 2975 4387 
Q 3406 4025 3406 3419 
Q 3406 3131 3298 2873 
Q 3191 2616 2906 2266 
Q 2828 2175 2409 1742 
Q 1991 1309 1228 531 
z
" transform="scale(0.015625)"/>
       </defs>
       <use xlink:href="#DejaVuSans-32"/>
       <use xlink:href="#DejaVuSans-30" transform="translate(63.623047 0)"/>
       <use xlink:href="#DejaVuSans-30" transform="translate(127.246094 0)"/>
       <use xlink:href="#DejaVuSans-30" transform="translate(190.869141 0)"/>
      </g>
     </g>
    </g>
    <g id="xtick_4">
     <g id="line2d_4">
      <g>
       <use xlink:href="#m6a4e058986" x="277.71698" y="257.158895" style="stroke: #000000; stroke-width: 0.8"/>
      </g>
     </g>
     <g id="text_4">
      <!-- 3000 -->
      <g transform="translate(264.99198 271.757332) scale(0.1 -0.1)">
       <defs>
        <path id="DejaVuSans-33" d="M 2597 2516 
Q 3050 2419 3304 2112 
Q 3559 1806 3559 1356 
Q 3559 666 3084 287 
Q 2609 -91 1734 -91 
Q 1441 -91 1130 -33 
Q 819 25 488 141 
L 488 750 
Q 750 597 1062 519 
Q 1375 441 1716 441 
Q 2309 441 2620 675 
Q 2931 909 2931 1356 
Q 2931 1769 2642 2001 
Q 2353 2234 1838 2234 
L 1294 2234 
L 1294 2753 
L 1863 2753 
Q 2328 2753 2575 2939 
Q 2822 3125 2822 3475 
Q 2822 3834 2567 4026 
Q 2313 4219 1838 4219 
Q 1578 4219 1281 4162 
Q 984 4106 628 3988 
L 628 4550 
Q 988 4650 1302 4700 
Q 1616 4750 1894 4750 
Q 2613 4750 3031 4423 
Q 3450 4097 3450 3541 
Q 3450 3153 3228 2886 
Q 3006 2619 2597 2516 
z
" transform="scale(0.015625)"/>
       </defs>
       <use xlink:href="#DejaVuSans-33"/>
       <use xlink:href="#DejaVuSans-30" transform="translate(63.623047 0)"/>
       <use xlink:href="#DejaVuSans-30" transform="translate(127.246094 0)"/>
       <use xlink:href="#DejaVuSans-30" transform="translate(190.869141 0)"/>
      </g>
     </g>
    </g>
    <g id="xtick_5">
     <g id="line2d_5">
      <g>
       <use xlink:href="#m6a4e058986" x="347.071804" y="257.158895" style="stroke: #000000; stroke-width: 0.8"/>
      </g>
     </g>
     <g id="text_5">
      <!-- 4000 -->
      <g transform="translate(334.346804 271.757332) scale(0.1 -0.1)">
       <defs>
        <path id="DejaVuSans-34" d="M 2419 4116 
L 825 1625 
L 2419 1625 
L 2419 4116 
z
M 2253 4666 
L 3047 4666 
L 3047 1625 
L 3713 1625 
L 3713 1100 
L 3047 1100 
L 3047 0 
L 2419 0 
L 2419 1100 
L 313 1100 
L 313 1709 
L 2253 4666 
z
" transform="scale(0.015625)"/>
       </defs>
       <use xlink:href="#DejaVuSans-34"/>
       <use xlink:href="#DejaVuSans-30" transform="translate(63.623047 0)"/>
       <use xlink:href="#DejaVuSans-30" transform="translate(127.246094 0)"/>
       <use xlink:href="#DejaVuSans-30" transform="translate(190.869141 0)"/>
      </g>
     </g>
    </g>
    <g id="xtick_6">
     <g id="line2d_6">
      <g>
       <use xlink:href="#m6a4e058986" x="416.426627" y="257.158895" style="stroke: #000000; stroke-width: 0.8"/>
      </g>
     </g>
     <g id="text_6">
      <!-- 5000 -->
      <g transform="translate(403.701627 271.757332) scale(0.1 -0.1)">
       <defs>
        <path id="DejaVuSans-35" d="M 691 4666 
L 3169 4666 
L 3169 4134 
L 1269 4134 
L 1269 2991 
Q 1406 3038 1543 3061 
Q 1681 3084 1819 3084 
Q 2600 3084 3056 2656 
Q 3513 2228 3513 1497 
Q 3513 744 3044 326 
Q 2575 -91 1722 -91 
Q 1428 -91 1123 -41 
Q 819 9 494 109 
L 494 744 
Q 775 591 1075 516 
Q 1375 441 1709 441 
Q 2250 441 2565 725 
Q 2881 1009 2881 1497 
Q 2881 1984 2565 2268 
Q 2250 2553 1709 2553 
Q 1456 2553 1204 2497 
Q 953 2441 691 2322 
L 691 4666 
z
" transform="scale(0.015625)"/>
       </defs>
       <use xlink:href="#DejaVuSans-35"/>
       <use xlink:href="#DejaVuSans-30" transform="translate(63.623047 0)"/>
       <use xlink:href="#DejaVuSans-30" transform="translate(127.246094 0)"/>
       <use xlink:href="#DejaVuSans-30" transform="translate(190.869141 0)"/>
      </g>
     </g>
    </g>
    <g id="text_7">
     <!-- time [µs] -->
     <g transform="translate(220.031286 285.435457) scale(0.1 -0.1)">
      <defs>
       <path id="DejaVuSans-74" d="M 1172 4494 
L 1172 3500 
L 2356 3500 
L 2356 3053 
L 1172 3053 
L 1172 1153 
Q 1172 725 1289 603 
Q 1406 481 1766 481 
L 2356 481 
L 2356 0 
L 1766 0 
Q 1100 0 847 248 
Q 594 497 594 1153 
L 594 3053 
L 172 3053 
L 172 3500 
L 594 3500 
L 594 4494 
L 1172 4494 
z
" transform="scale(0.015625)"/>
       <path id="DejaVuSans-69" d="M 603 3500 
L 1178 3500 
L 1178 0 
L 603 0 
L 603 3500 
z
M 603 4863 
L 1178 4863 
L 1178 4134 
L 603 4134 
L 603 4863 
z
" transform="scale(0.015625)"/>
       <path id="DejaVuSans-6d" d="M 3328 2828 
Q 3544 3216 3844 3400 
Q 4144 3584 4550 3584 
Q 5097 3584 5394 3201 
Q 5691 2819 5691 2113 
L 5691 0 
L 5113 0 
L 5113 2094 
Q 5113 2597 4934 2840 
Q 4756 3084 4391 3084 
Q 3944 3084 3684 2787 
Q 3425 2491 3425 1978 
L 3425 0 
L 2847 0 
L 2847 2094 
Q 2847 2600 2669 2842 
Q 2491 3084 2119 3084 
Q 1678 3084 1418 2786 
Q 1159 2488 1159 1978 
L 1159 0 
L 581 0 
L 581 3500 
L 1159 3500 
L 1159 2956 
Q 1356 3278 1631 3431 
Q 1906 3584 2284 3584 
Q 2666 3584 2933 3390 
Q 3200 3197 3328 2828 
z
" transform="scale(0.015625)"/>
       <path id="DejaVuSans-65" d="M 3597 1894 
L 3597 1613 
L 953 1613 
Q 991 1019 1311 708 
Q 1631 397 2203 397 
Q 2534 397 2845 478 
Q 3156 559 3463 722 
L 3463 178 
Q 3153 47 2828 -22 
Q 2503 -91 2169 -91 
Q 1331 -91 842 396 
Q 353 884 353 1716 
Q 353 2575 817 3079 
Q 1281 3584 2069 3584 
Q 2775 3584 3186 3129 
Q 3597 2675 3597 1894 
z
M 3022 2063 
Q 3016 2534 2758 2815 
Q 2500 3097 2075 3097 
Q 1594 3097 1305 2825 
Q 1016 2553 972 2059 
L 3022 2063 
z
" transform="scale(0.015625)"/>
       <path id="DejaVuSans-20" transform="scale(0.015625)"/>
       <path id="DejaVuSans-5b" d="M 550 4863 
L 1875 4863 
L 1875 4416 
L 1125 4416 
L 1125 -397 
L 1875 -397 
L 1875 -844 
L 550 -844 
L 550 4863 
z
" transform="scale(0.015625)"/>
       <path id="DejaVuSans-b5" d="M 544 -1331 
L 544 3500 
L 1119 3500 
L 1119 1325 
Q 1119 872 1334 640 
Q 1550 409 1972 409 
Q 2434 409 2667 671 
Q 2900 934 2900 1459 
L 2900 3500 
L 3475 3500 
L 3475 806 
Q 3475 619 3529 530 
Q 3584 441 3700 441 
Q 3728 441 3778 458 
Q 3828 475 3916 513 
L 3916 50 
Q 3788 -22 3673 -56 
Q 3559 -91 3450 -91 
Q 3234 -91 3106 31 
Q 2978 153 2931 403 
Q 2775 156 2548 32 
Q 2322 -91 2016 -91 
Q 1697 -91 1473 31 
Q 1250 153 1119 397 
L 1119 -1331 
L 544 -1331 
z
" transform="scale(0.015625)"/>
       <path id="DejaVuSans-73" d="M 2834 3397 
L 2834 2853 
Q 2591 2978 2328 3040 
Q 2066 3103 1784 3103 
Q 1356 3103 1142 2972 
Q 928 2841 928 2578 
Q 928 2378 1081 2264 
Q 1234 2150 1697 2047 
L 1894 2003 
Q 2506 1872 2764 1633 
Q 3022 1394 3022 966 
Q 3022 478 2636 193 
Q 2250 -91 1575 -91 
Q 1294 -91 989 -36 
Q 684 19 347 128 
L 347 722 
Q 666 556 975 473 
Q 1284 391 1588 391 
Q 1994 391 2212 530 
Q 2431 669 2431 922 
Q 2431 1156 2273 1281 
Q 2116 1406 1581 1522 
L 1381 1569 
Q 847 1681 609 1914 
Q 372 2147 372 2553 
Q 372 3047 722 3315 
Q 1072 3584 1716 3584 
Q 2034 3584 2315 3537 
Q 2597 3491 2834 3397 
z
" transform="scale(0.015625)"/>
       <path id="DejaVuSans-5d" d="M 1947 4863 
L 1947 -844 
L 622 -844 
L 622 -397 
L 1369 -397 
L 1369 4416 
L 622 4416 
L 622 4863 
L 1947 4863 
z
" transform="scale(0.015625)"/>
      </defs>
      <use xlink:href="#DejaVuSans-74"/>
      <use xlink:href="#DejaVuSans-69" transform="translate(39.208984 0)"/>
      <use xlink:href="#DejaVuSans-6d" transform="translate(66.992188 0)"/>
      <use xlink:href="#DejaVuSans-65" transform="translate(164.404297 0)"/>
      <use xlink:href="#DejaVuSans-20" transform="translate(225.927734 0)"/>
      <use xlink:href="#DejaVuSans-5b" transform="translate(257.714844 0)"/>
      <use xlink:href="#DejaVuSans-b5" transform="translate(296.728516 0)"/>
      <use xlink:href="#DejaVuSans-73" transform="translate(360.351562 0)"/>
      <use xlink:href="#DejaVuSans-5d" transform="translate(412.451172 0)"/>
     </g>
    </g>
   </g>
   <g id="matplotlib.axis_2">
    <g id="ytick_1">
     <g id="line2d_7">
      <defs>
       <path id="m83834bc3f4" d="M 0 0 
L -3.5 0 
" style="stroke: #000000; stroke-width: 0.8"/>
      </defs>
      <g>
       <use xlink:href="#m83834bc3f4" x="53.328125" y="245.797127" style="stroke: #000000; stroke-width: 0.8"/>
      </g>
     </g>
     <g id="text_8">
      <!-- 0 -->
      <g transform="translate(39.965625 249.596346) scale(0.1 -0.1)">
       <use xlink:href="#DejaVuSans-30"/>
      </g>
     </g>
    </g>
    <g id="ytick_2">
     <g id="line2d_8">
      <g>
       <use xlink:href="#m83834bc3f4" x="53.328125" y="208.818224" style="stroke: #000000; stroke-width: 0.8"/>
      </g>
     </g>
     <g id="text_9">
      <!-- 200 -->
      <g transform="translate(27.240625 212.617443) scale(0.1 -0.1)">
       <use xlink:href="#DejaVuSans-32"/>
       <use xlink:href="#DejaVuSans-30" transform="translate(63.623047 0)"/>
       <use xlink:href="#DejaVuSans-30" transform="translate(127.246094 0)"/>
      </g>
     </g>
    </g>
    <g id="ytick_3">
     <g id="line2d_9">
      <g>
       <use xlink:href="#m83834bc3f4" x="53.328125" y="171.839321" style="stroke: #000000; stroke-width: 0.8"/>
      </g>
     </g>
     <g id="text_10">
      <!-- 400 -->
      <g transform="translate(27.240625 175.63854) scale(0.1 -0.1)">
       <use xlink:href="#DejaVuSans-34"/>
       <use xlink:href="#DejaVuSans-30" transform="translate(63.623047 0)"/>
       <use xlink:href="#DejaVuSans-30" transform="translate(127.246094 0)"/>
      </g>
     </g>
    </g>
    <g id="ytick_4">
     <g id="line2d_10">
      <g>
       <use xlink:href="#m83834bc3f4" x="53.328125" y="134.860418" style="stroke: #000000; stroke-width: 0.8"/>
      </g>
     </g>
     <g id="text_11">
      <!-- 600 -->
      <g transform="translate(27.240625 138.659637) scale(0.1 -0.1)">
       <defs>
        <path id="DejaVuSans-36" d="M 2113 2584 
Q 1688 2584 1439 2293 
Q 1191 2003 1191 1497 
Q 1191 994 1439 701 
Q 1688 409 2113 409 
Q 2538 409 2786 701 
Q 3034 994 3034 1497 
Q 3034 2003 2786 2293 
Q 2538 2584 2113 2584 
z
M 3366 4563 
L 3366 3988 
Q 3128 4100 2886 4159 
Q 2644 4219 2406 4219 
Q 1781 4219 1451 3797 
Q 1122 3375 1075 2522 
Q 1259 2794 1537 2939 
Q 1816 3084 2150 3084 
Q 2853 3084 3261 2657 
Q 3669 2231 3669 1497 
Q 3669 778 3244 343 
Q 2819 -91 2113 -91 
Q 1303 -91 875 529 
Q 447 1150 447 2328 
Q 447 3434 972 4092 
Q 1497 4750 2381 4750 
Q 2619 4750 2861 4703 
Q 3103 4656 3366 4563 
z
" transform="scale(0.015625)"/>
       </defs>
       <use xlink:href="#DejaVuSans-36"/>
       <use xlink:href="#DejaVuSans-30" transform="translate(63.623047 0)"/>
       <use xlink:href="#DejaVuSans-30" transform="translate(127.246094 0)"/>
      </g>
     </g>
    </g>
    <g id="ytick_5">
     <g id="line2d_11">
      <g>
       <use xlink:href="#m83834bc3f4" x="53.328125" y="97.881515" style="stroke: #000000; stroke-width: 0.8"/>
      </g>
     </g>
     <g id="text_12">
      <!-- 800 -->
      <g transform="translate(27.240625 101.680734) scale(0.1 -0.1)">
       <defs>
        <path id="DejaVuSans-38" d="M 2034 2216 
Q 1584 2216 1326 1975 
Q 1069 1734 1069 1313 
Q 1069 891 1326 650 
Q 1584 409 2034 409 
Q 2484 409 2743 651 
Q 3003 894 3003 1313 
Q 3003 1734 2745 1975 
Q 2488 2216 2034 2216 
z
M 1403 2484 
Q 997 2584 770 2862 
Q 544 3141 544 3541 
Q 544 4100 942 4425 
Q 1341 4750 2034 4750 
Q 2731 4750 3128 4425 
Q 3525 4100 3525 3541 
Q 3525 3141 3298 2862 
Q 3072 2584 2669 2484 
Q 3125 2378 3379 2068 
Q 3634 1759 3634 1313 
Q 3634 634 3220 271 
Q 2806 -91 2034 -91 
Q 1263 -91 848 271 
Q 434 634 434 1313 
Q 434 1759 690 2068 
Q 947 2378 1403 2484 
z
M 1172 3481 
Q 1172 3119 1398 2916 
Q 1625 2713 2034 2713 
Q 2441 2713 2670 2916 
Q 2900 3119 2900 3481 
Q 2900 3844 2670 4047 
Q 2441 4250 2034 4250 
Q 1625 4250 1398 4047 
Q 1172 3844 1172 3481 
z
" transform="scale(0.015625)"/>
       </defs>
       <use xlink:href="#DejaVuSans-38"/>
       <use xlink:href="#DejaVuSans-30" transform="translate(63.623047 0)"/>
       <use xlink:href="#DejaVuSans-30" transform="translate(127.246094 0)"/>
      </g>
     </g>
    </g>
    <g id="ytick_6">
     <g id="line2d_12">
      <g>
       <use xlink:href="#m83834bc3f4" x="53.328125" y="60.902612" style="stroke: #000000; stroke-width: 0.8"/>
      </g>
     </g>
     <g id="text_13">
      <!-- 1000 -->
      <g transform="translate(20.878125 64.701831) scale(0.1 -0.1)">
       <use xlink:href="#DejaVuSans-31"/>
       <use xlink:href="#DejaVuSans-30" transform="translate(63.623047 0)"/>
       <use xlink:href="#DejaVuSans-30" transform="translate(127.246094 0)"/>
       <use xlink:href="#DejaVuSans-30" transform="translate(190.869141 0)"/>
      </g>
     </g>
    </g>
    <g id="ytick_7">
     <g id="line2d_13">
      <g>
       <use xlink:href="#m83834bc3f4" x="53.328125" y="23.923709" style="stroke: #000000; stroke-width: 0.8"/>
      </g>
     </g>
     <g id="text_14">
      <!-- 1200 -->
      <g transform="translate(20.878125 27.722928) scale(0.1 -0.1)">
       <use xlink:href="#DejaVuSans-31"/>
       <use xlink:href="#DejaVuSans-32" transform="translate(63.623047 0)"/>
       <use xlink:href="#DejaVuSans-30" transform="translate(127.246094 0)"/>
       <use xlink:href="#DejaVuSans-30" transform="translate(190.869141 0)"/>
      </g>
     </g>
    </g>
    <g id="text_15">
     <!-- [counts] -->
     <g transform="translate(14.798438 152.791947) rotate(-90) scale(0.1 -0.1)">
      <defs>
       <path id="DejaVuSans-63" d="M 3122 3366 
L 3122 2828 
Q 2878 2963 2633 3030 
Q 2388 3097 2138 3097 
Q 1578 3097 1268 2742 
Q 959 2388 959 1747 
Q 959 1106 1268 751 
Q 1578 397 2138 397 
Q 2388 397 2633 464 
Q 2878 531 3122 666 
L 3122 134 
Q 2881 22 2623 -34 
Q 2366 -91 2075 -91 
Q 1284 -91 818 406 
Q 353 903 353 1747 
Q 353 2603 823 3093 
Q 1294 3584 2113 3584 
Q 2378 3584 2631 3529 
Q 2884 3475 3122 3366 
z
" transform="scale(0.015625)"/>
       <path id="DejaVuSans-6f" d="M 1959 3097 
Q 1497 3097 1228 2736 
Q 959 2375 959 1747 
Q 959 1119 1226 758 
Q 1494 397 1959 397 
Q 2419 397 2687 759 
Q 2956 1122 2956 1747 
Q 2956 2369 2687 2733 
Q 2419 3097 1959 3097 
z
M 1959 3584 
Q 2709 3584 3137 3096 
Q 3566 2609 3566 1747 
Q 3566 888 3137 398 
Q 2709 -91 1959 -91 
Q 1206 -91 779 398 
Q 353 888 353 1747 
Q 353 2609 779 3096 
Q 1206 3584 1959 3584 
z
" transform="scale(0.015625)"/>
       <path id="DejaVuSans-75" d="M 544 1381 
L 544 3500 
L 1119 3500 
L 1119 1403 
Q 1119 906 1312 657 
Q 1506 409 1894 409 
Q 2359 409 2629 706 
Q 2900 1003 2900 1516 
L 2900 3500 
L 3475 3500 
L 3475 0 
L 2900 0 
L 2900 538 
Q 2691 219 2414 64 
Q 2138 -91 1772 -91 
Q 1169 -91 856 284 
Q 544 659 544 1381 
z
M 1991 3584 
L 1991 3584 
z
" transform="scale(0.015625)"/>
       <path id="DejaVuSans-6e" d="M 3513 2113 
L 3513 0 
L 2938 0 
L 2938 2094 
Q 2938 2591 2744 2837 
Q 2550 3084 2163 3084 
Q 1697 3084 1428 2787 
Q 1159 2491 1159 1978 
L 1159 0 
L 581 0 
L 581 3500 
L 1159 3500 
L 1159 2956 
Q 1366 3272 1645 3428 
Q 1925 3584 2291 3584 
Q 2894 3584 3203 3211 
Q 3513 2838 3513 2113 
z
" transform="scale(0.015625)"/>
      </defs>
      <use xlink:href="#DejaVuSans-5b"/>
      <use xlink:href="#DejaVuSans-63" transform="translate(39.013672 0)"/>
      <use xlink:href="#DejaVuSans-6f" transform="translate(93.994141 0)"/>
      <use xlink:href="#DejaVuSans-75" transform="translate(155.175781 0)"/>
      <use xlink:href="#DejaVuSans-6e" transform="translate(218.554688 0)"/>
      <use xlink:href="#DejaVuSans-74" transform="translate(281.933594 0)"/>
      <use xlink:href="#DejaVuSans-73" transform="translate(321.142578 0)"/>
      <use xlink:href="#DejaVuSans-5d" transform="translate(373.242188 0)"/>
     </g>
    </g>
   </g>
   <g id="patch_3">
    <path d="M 53.328125 257.158895 
L 53.328125 7.2 
" style="fill: none; stroke: #000000; stroke-width: 0.8; stroke-linejoin: miter; stroke-linecap: square"/>
   </g>
   <g id="patch_4">
    <path d="M 431.87976 257.158895 
L 431.87976 7.2 
" style="fill: none; stroke: #000000; stroke-width: 0.8; stroke-linejoin: miter; stroke-linecap: square"/>
   </g>
   <g id="patch_5">
    <path d="M 53.328125 257.158895 
L 431.87976 257.158895 
" style="fill: none; stroke: #000000; stroke-width: 0.8; stroke-linejoin: miter; stroke-linecap: square"/>
   </g>
   <g id="patch_6">
    <path d="M 53.328125 7.2 
L 431.87976 7.2 
" style="fill: none; stroke: #000000; stroke-width: 0.8; stroke-linejoin: miter; stroke-linecap: square"/>
   </g>
   <g id="line2d_14">
    <path d="M 70.535018 234.703456 
L 71.682144 234.703456 
L 71.682144 228.786832 
L 72.82927 228.786832 
L 72.82927 215.844216 
L 73.976396 215.844216 
L 73.976396 210.852064 
L 75.123522 210.852064 
L 75.123522 201.977127 
L 76.270648 201.977127 
L 76.270648 193.10219 
L 77.417775 193.10219 
L 77.417775 186.261093 
L 78.564901 186.261093 
L 78.564901 174.797633 
L 79.712027 174.797633 
L 79.712027 168.141431 
L 80.859153 168.141431 
L 80.859153 157.04776 
L 82.006279 157.04776 
L 82.006279 150.576452 
L 83.153405 150.576452 
L 83.153405 151.131135 
L 84.300532 151.131135 
L 84.300532 144.474933 
L 85.447658 144.474933 
L 85.447658 136.524469 
L 86.594784 136.524469 
L 86.594784 130.238055 
L 87.74191 130.238055 
L 87.74191 122.287591 
L 88.889036 122.287591 
L 88.889036 128.38911 
L 90.036162 128.38911 
L 90.036162 117.665228 
L 91.183289 117.665228 
L 91.183289 108.975186 
L 92.330415 108.975186 
L 92.330415 113.412654 
L 93.477541 113.412654 
L 93.477541 99.73046 
L 94.624667 99.73046 
L 94.624667 101.024722 
L 95.771793 101.024722 
L 95.771793 107.126241 
L 96.918919 107.126241 
L 96.918919 87.897211 
L 98.066046 87.897211 
L 98.066046 86.60295 
L 99.213172 86.60295 
L 99.213172 83.829532 
L 100.360298 83.829532 
L 100.360298 82.53527 
L 101.507424 82.53527 
L 101.507424 77.173329 
L 102.65455 77.173329 
L 102.65455 73.845228 
L 103.801676 73.845228 
L 103.801676 82.905059 
L 104.948802 82.905059 
L 104.948802 73.845228 
L 106.095929 73.845228 
L 106.095929 77.358224 
L 107.243055 77.358224 
L 107.243055 75.324384 
L 108.390181 75.324384 
L 108.390181 55.725565 
L 109.537307 55.725565 
L 109.537307 70.147338 
L 110.684433 70.147338 
L 110.684433 60.347928 
L 111.831559 60.347928 
L 111.831559 49.624046 
L 112.978686 49.624046 
L 112.978686 53.87662 
L 114.125812 53.87662 
L 114.125812 71.811388 
L 115.272938 71.811388 
L 115.272938 55.540671 
L 116.420064 55.540671 
L 116.420064 59.053667 
L 117.56719 59.053667 
L 117.56719 56.834933 
L 118.714316 56.834933 
L 118.714316 54.985987 
L 119.861443 54.985987 
L 119.861443 58.314089 
L 121.008569 58.314089 
L 121.008569 52.027675 
L 122.155695 52.027675 
L 122.155695 58.498983 
L 123.302821 58.498983 
L 123.302821 49.624046 
L 124.449947 49.624046 
L 124.449947 41.488688 
L 125.597073 41.488688 
L 125.597073 45.001684 
L 126.7442 45.001684 
L 126.7442 49.439152 
L 127.891326 49.439152 
L 127.891326 44.447 
L 129.038452 44.447 
L 129.038452 48.329785 
L 130.185578 48.329785 
L 130.185578 46.48084 
L 131.332704 46.48084 
L 131.332704 51.657886 
L 132.47983 51.657886 
L 132.47983 41.118899 
L 133.626957 41.118899 
L 133.626957 42.967844 
L 134.774083 42.967844 
L 134.774083 49.993836 
L 135.921209 49.993836 
L 135.921209 45.371473 
L 137.068335 45.371473 
L 137.068335 37.605903 
L 138.215461 37.605903 
L 138.215461 38.900165 
L 139.362587 38.900165 
L 139.362587 36.496536 
L 140.509714 36.496536 
L 140.509714 36.126747 
L 141.65684 36.126747 
L 141.65684 42.598055 
L 142.803966 42.598055 
L 142.803966 41.488688 
L 143.951092 41.488688 
L 143.951092 36.866325 
L 145.098218 36.866325 
L 145.098218 28.176283 
L 146.245344 28.176283 
L 146.245344 23.923709 
L 147.392471 23.923709 
L 147.392471 44.262106 
L 148.539597 44.262106 
L 148.539597 41.118899 
L 149.686723 41.118899 
L 149.686723 34.277802 
L 150.833849 34.277802 
L 150.833849 28.915861 
L 151.980975 28.915861 
L 151.980975 36.866325 
L 153.128101 36.866325 
L 153.128101 36.496536 
L 154.275228 36.496536 
L 154.275228 34.832485 
L 155.422354 34.832485 
L 155.422354 28.361177 
L 156.56948 28.361177 
L 156.56948 29.655439 
L 157.716606 29.655439 
L 157.716606 27.991388 
L 158.863732 27.991388 
L 158.863732 25.402865 
L 160.010858 25.402865 
L 160.010858 32.428857 
L 161.157985 32.428857 
L 161.157985 25.402865 
L 162.305111 25.402865 
L 162.305111 36.68143 
L 163.452237 36.68143 
L 163.452237 42.782949 
L 164.599363 42.782949 
L 164.599363 30.210122 
L 165.746489 30.210122 
L 165.746489 31.134595 
L 166.893615 31.134595 
L 166.893615 36.496536 
L 168.040742 36.496536 
L 168.040742 39.269954 
L 169.187868 39.269954 
L 169.187868 29.840333 
L 170.334994 29.840333 
L 170.334994 30.210122 
L 171.48212 30.210122 
L 171.48212 42.043371 
L 172.629246 42.043371 
L 172.629246 24.108603 
L 173.776372 24.108603 
L 173.776372 35.756958 
L 174.923499 35.756958 
L 174.923499 30.210122 
L 176.070625 30.210122 
L 176.070625 42.598055 
L 177.217751 42.598055 
L 177.217751 32.059068 
L 178.364877 32.059068 
L 178.364877 36.311641 
L 179.512003 36.311641 
L 179.512003 33.353329 
L 180.659129 33.353329 
L 180.659129 19.671135 
L 181.806256 19.671135 
L 181.806256 27.621599 
L 182.953382 27.621599 
L 182.953382 38.71527 
L 184.100508 38.71527 
L 184.100508 37.605903 
L 185.247634 37.605903 
L 185.247634 35.202274 
L 186.39476 35.202274 
L 186.39476 32.428857 
L 187.541886 32.428857 
L 187.541886 29.28565 
L 188.689013 29.28565 
L 188.689013 28.730966 
L 189.836139 28.730966 
L 189.836139 33.353329 
L 190.983265 33.353329 
L 190.983265 33.723118 
L 192.130391 33.723118 
L 192.130391 26.512232 
L 193.277517 26.512232 
L 193.277517 40.009532 
L 194.424643 40.009532 
L 194.424643 38.160587 
L 195.57177 38.160587 
L 195.57177 20.965397 
L 196.718896 20.965397 
L 196.718896 23.738814 
L 197.866022 23.738814 
L 197.866022 42.043371 
L 199.013148 42.043371 
L 199.013148 19.85603 
L 200.160274 19.85603 
L 200.160274 31.504384 
L 201.3074 31.504384 
L 201.3074 35.756958 
L 202.454527 35.756958 
L 202.454527 30.9497 
L 203.601653 30.9497 
L 203.601653 24.293498 
L 204.748779 24.293498 
L 204.748779 29.655439 
L 205.895905 29.655439 
L 205.895905 31.874173 
L 207.043031 31.874173 
L 207.043031 40.934004 
L 208.190157 40.934004 
L 208.190157 33.908013 
L 209.337284 33.908013 
L 209.337284 25.21797 
L 210.48441 25.21797 
L 210.48441 32.98354 
L 211.631536 32.98354 
L 211.631536 26.882021 
L 212.778662 26.882021 
L 212.778662 22.814342 
L 213.925788 22.814342 
L 213.925788 18.561768 
L 215.072914 18.561768 
L 215.072914 25.957549 
L 216.220041 25.957549 
L 216.220041 19.671135 
L 217.367167 19.671135 
L 217.367167 39.639743 
L 218.514293 39.639743 
L 218.514293 35.01738 
L 219.661419 35.01738 
L 219.661419 32.798646 
L 220.808545 32.798646 
L 220.808545 29.28565 
L 221.955671 29.28565 
L 221.955671 20.595608 
L 223.102798 20.595608 
L 223.102798 42.043371 
L 224.249924 42.043371 
L 224.249924 35.756958 
L 225.39705 35.756958 
L 225.39705 38.530376 
L 226.544176 38.530376 
L 226.544176 36.496536 
L 227.691302 36.496536 
L 227.691302 37.605903 
L 228.838428 37.605903 
L 228.838428 18.931557 
L 229.985555 18.931557 
L 229.985555 41.303793 
L 231.132681 41.303793 
L 231.132681 31.319489 
L 232.279807 31.319489 
L 232.279807 36.68143 
L 233.426933 36.68143 
L 233.426933 29.840333 
L 234.574059 29.840333 
L 234.574059 25.957549 
L 235.721185 25.957549 
L 235.721185 24.108603 
L 236.868312 24.108603 
L 236.868312 42.228266 
L 238.015438 42.228266 
L 238.015438 27.806494 
L 239.162564 27.806494 
L 239.162564 41.673582 
L 240.30969 41.673582 
L 240.30969 30.9497 
L 241.456816 30.9497 
L 241.456816 41.673582 
L 242.603942 41.673582 
L 242.603942 28.730966 
L 243.751069 28.730966 
L 243.751069 25.033076 
L 244.898195 25.033076 
L 244.898195 25.957549 
L 246.045321 25.957549 
L 246.045321 42.043371 
L 247.192447 42.043371 
L 247.192447 31.689279 
L 248.339573 31.689279 
L 248.339573 32.98354 
L 249.486699 32.98354 
L 249.486699 31.689279 
L 250.633826 31.689279 
L 250.633826 41.118899 
L 251.780952 41.118899 
L 251.780952 35.941852 
L 252.928078 35.941852 
L 252.928078 41.118899 
L 254.075204 41.118899 
L 254.075204 30.764806 
L 255.22233 30.764806 
L 255.22233 19.671135 
L 256.369456 19.671135 
L 256.369456 40.009532 
L 257.516583 40.009532 
L 257.516583 26.882021 
L 258.663709 26.882021 
L 258.663709 33.168435 
L 259.810835 33.168435 
L 259.810835 32.243962 
L 260.957961 32.243962 
L 260.957961 35.01738 
L 262.105087 35.01738 
L 262.105087 35.941852 
L 263.252213 35.941852 
L 263.252213 36.496536 
L 264.39934 36.496536 
L 264.39934 34.092907 
L 265.546466 34.092907 
L 265.546466 31.319489 
L 266.693592 31.319489 
L 266.693592 23.738814 
L 267.840718 23.738814 
L 267.840718 33.168435 
L 268.987844 33.168435 
L 268.987844 42.782949 
L 270.13497 42.782949 
L 270.13497 46.295945 
L 271.282097 46.295945 
L 271.282097 56.465144 
L 272.429223 56.465144 
L 272.429223 69.222865 
L 273.576349 69.222865 
L 273.576349 66.634342 
L 274.723475 66.634342 
L 274.723475 94.368519 
L 275.870601 94.368519 
L 275.870601 86.048266 
L 277.017727 86.048266 
L 277.017727 104.722612 
L 278.164854 104.722612 
L 278.164854 112.673076 
L 279.31198 112.673076 
L 279.31198 130.977633 
L 280.459106 130.977633 
L 280.459106 126.170376 
L 281.606232 126.170376 
L 281.606232 128.943793 
L 282.753358 128.943793 
L 282.753358 135.599996 
L 283.900484 135.599996 
L 283.900484 144.659827 
L 285.047611 144.659827 
L 285.047611 149.836874 
L 286.194737 149.836874 
L 286.194737 163.519068 
L 287.341863 163.519068 
L 287.341863 159.821178 
L 288.488989 159.821178 
L 288.488989 163.519068 
L 289.636115 163.519068 
L 289.636115 165.183118 
L 290.783241 165.183118 
L 290.783241 174.612739 
L 291.930368 174.612739 
L 291.930368 177.386156 
L 293.077494 177.386156 
L 293.077494 178.125735 
L 294.22462 178.125735 
L 294.22462 180.344469 
L 295.371746 180.344469 
L 295.371746 194.581346 
L 296.518872 194.581346 
L 296.518872 191.068351 
L 297.665998 191.068351 
L 297.665998 197.354764 
L 298.813125 197.354764 
L 298.813125 197.909448 
L 299.960251 197.909448 
L 299.960251 202.346916 
L 301.107377 202.346916 
L 301.107377 199.388604 
L 302.254503 199.388604 
L 302.254503 203.271389 
L 303.401629 203.271389 
L 303.401629 205.305228 
L 304.548755 205.305228 
L 304.548755 206.784384 
L 305.695882 206.784384 
L 305.695882 208.448435 
L 306.843008 208.448435 
L 306.843008 213.255692 
L 307.990134 213.255692 
L 307.990134 213.070798 
L 309.13726 213.070798 
L 309.13726 214.365059 
L 310.284386 214.365059 
L 310.284386 218.987422 
L 311.431512 218.987422 
L 311.431512 219.172317 
L 312.578639 219.172317 
L 312.578639 220.651473 
L 313.725765 220.651473 
L 313.725765 220.836368 
L 314.872891 220.836368 
L 314.872891 223.424891 
L 317.167143 223.424891 
L 317.167143 221.391051 
L 318.314269 221.391051 
L 318.314269 226.752992 
L 319.461396 226.752992 
L 319.461396 228.417043 
L 320.608522 228.417043 
L 320.608522 224.349363 
L 321.755648 224.349363 
L 321.755648 226.198308 
L 322.902774 226.198308 
L 322.902774 231.930038 
L 324.0499 231.930038 
L 324.0499 233.409195 
L 325.197026 233.409195 
L 325.197026 229.341515 
L 326.344153 229.341515 
L 326.344153 232.854511 
L 327.491279 232.854511 
L 327.491279 232.484722 
L 328.638405 232.484722 
L 328.638405 228.786832 
L 329.785531 228.786832 
L 329.785531 232.484722 
L 330.932657 232.484722 
L 330.932657 231.930038 
L 332.079783 231.930038 
L 332.079783 238.401346 
L 333.22691 238.401346 
L 333.22691 238.586241 
L 334.374036 238.586241 
L 334.374036 236.552401 
L 335.521162 236.552401 
L 335.521162 237.107085 
L 336.668288 237.107085 
L 336.668288 236.182612 
L 337.815414 236.182612 
L 337.815414 238.401346 
L 338.96254 238.401346 
L 338.96254 237.476874 
L 340.109667 237.476874 
L 340.109667 236.92219 
L 341.256793 236.92219 
L 341.256793 238.95603 
L 342.403919 238.95603 
L 342.403919 239.140925 
L 344.698171 239.140925 
L 344.698171 239.325819 
L 345.845297 239.325819 
L 345.845297 241.914342 
L 346.992424 241.914342 
L 346.992424 238.031557 
L 348.13955 238.031557 
L 348.13955 240.620081 
L 349.286676 240.620081 
L 349.286676 242.099237 
L 350.433802 242.099237 
L 350.433802 242.284131 
L 351.580928 242.284131 
L 351.580928 240.250292 
L 352.728054 240.250292 
L 352.728054 242.284131 
L 353.875181 242.284131 
L 353.875181 241.914342 
L 355.022307 241.914342 
L 355.022307 241.544553 
L 356.169433 241.544553 
L 356.169433 242.099237 
L 357.316559 242.099237 
L 357.316559 243.948182 
L 358.463685 243.948182 
L 358.463685 244.68776 
L 359.610811 244.68776 
L 359.610811 243.393498 
L 360.757938 243.393498 
L 360.757938 243.578393 
L 361.905064 243.578393 
L 361.905064 242.099237 
L 363.05219 242.099237 
L 363.05219 243.578393 
L 364.199316 243.578393 
L 364.199316 243.393498 
L 365.346442 243.393498 
L 365.346442 242.838815 
L 367.640695 242.838815 
L 367.640695 243.208604 
L 368.787821 243.208604 
L 368.787821 244.317971 
L 369.934947 244.317971 
L 369.934947 243.948182 
L 372.229199 243.948182 
L 372.229199 244.68776 
L 373.376325 244.68776 
L 373.376325 244.502865 
L 374.523452 244.502865 
L 374.523452 243.948182 
L 375.670578 243.948182 
L 375.670578 243.763287 
L 376.817704 243.763287 
L 376.817704 243.578393 
L 377.96483 243.578393 
L 377.96483 245.427338 
L 379.111956 245.427338 
L 379.111956 244.872654 
L 380.259082 244.872654 
L 380.259082 244.133076 
L 381.406209 244.133076 
L 381.406209 245.242444 
L 382.553335 245.242444 
L 382.553335 245.057549 
L 383.700461 245.057549 
L 383.700461 244.68776 
L 384.847587 244.68776 
L 384.847587 245.242444 
L 385.994713 245.242444 
L 385.994713 245.057549 
L 387.141839 245.057549 
L 387.141839 244.68776 
L 388.288966 244.68776 
L 388.288966 245.427338 
L 389.436092 245.427338 
L 389.436092 245.242444 
L 390.583218 245.242444 
L 390.583218 244.872654 
L 391.730344 244.872654 
L 391.730344 245.242444 
L 392.87747 245.242444 
L 392.87747 245.612233 
L 394.024596 245.612233 
L 394.024596 245.057549 
L 395.171723 245.057549 
L 395.171723 245.242444 
L 396.318849 245.242444 
L 396.318849 245.427338 
L 397.465975 245.427338 
L 397.465975 245.242444 
L 398.613101 245.242444 
L 398.613101 245.427338 
L 399.760227 245.427338 
L 399.760227 245.612233 
L 400.907353 245.612233 
L 400.907353 245.242444 
L 402.05448 245.242444 
L 402.05448 245.797127 
L 403.201606 245.797127 
L 403.201606 244.872654 
L 404.348732 244.872654 
L 404.348732 244.68776 
L 405.495858 244.68776 
L 405.495858 245.612233 
L 406.642984 245.612233 
L 406.642984 245.427338 
L 408.937237 245.427338 
L 408.937237 245.242444 
L 411.231489 245.242444 
L 411.231489 245.612233 
L 413.525741 245.612233 
L 413.525741 245.242444 
L 414.672867 245.242444 
L 414.672867 245.242444 
" clip-path="url(#p013c630a1f)" style="fill: none; stroke: #1f77b4; stroke-width: 1.5; stroke-linecap: square"/>
   </g>
  </g>
  <g id="axes_2">
   <g id="patch_7">
    <path d="M 486.647885 257.158895 
L 865.19952 257.158895 
L 865.19952 7.2 
L 486.647885 7.2 
z
" style="fill: #ffffff"/>
   </g>
   <g id="matplotlib.axis_3">
    <g id="xtick_7">
     <g id="line2d_15">
      <g>
       <use xlink:href="#m6a4e058986" x="500.372469" y="257.158895" style="stroke: #000000; stroke-width: 0.8"/>
      </g>
     </g>
     <g id="text_16">
      <!-- 0.0 -->
      <g transform="translate(492.420907 271.757332) scale(0.1 -0.1)">
       <defs>
        <path id="DejaVuSans-2e" d="M 684 794 
L 1344 794 
L 1344 0 
L 684 0 
L 684 794 
z
" transform="scale(0.015625)"/>
       </defs>
       <use xlink:href="#DejaVuSans-30"/>
       <use xlink:href="#DejaVuSans-2e" transform="translate(63.623047 0)"/>
       <use xlink:href="#DejaVuSans-30" transform="translate(95.410156 0)"/>
      </g>
     </g>
    </g>
    <g id="xtick_8">
     <g id="line2d_16">
      <g>
       <use xlink:href="#m6a4e058986" x="544.220159" y="257.158895" style="stroke: #000000; stroke-width: 0.8"/>
      </g>
     </g>
     <g id="text_17">
      <!-- 2.5 -->
      <g transform="translate(536.268596 271.757332) scale(0.1 -0.1)">
       <use xlink:href="#DejaVuSans-32"/>
       <use xlink:href="#DejaVuSans-2e" transform="translate(63.623047 0)"/>
       <use xlink:href="#DejaVuSans-35" transform="translate(95.410156 0)"/>
      </g>
     </g>
    </g>
    <g id="xtick_9">
     <g id="line2d_17">
      <g>
       <use xlink:href="#m6a4e058986" x="588.067849" y="257.158895" style="stroke: #000000; stroke-width: 0.8"/>
      </g>
     </g>
     <g id="text_18">
      <!-- 5.0 -->
      <g transform="translate(580.116286 271.757332) scale(0.1 -0.1)">
       <use xlink:href="#DejaVuSans-35"/>
       <use xlink:href="#DejaVuSans-2e" transform="translate(63.623047 0)"/>
       <use xlink:href="#DejaVuSans-30" transform="translate(95.410156 0)"/>
      </g>
     </g>
    </g>
    <g id="xtick_10">
     <g id="line2d_18">
      <g>
       <use xlink:href="#m6a4e058986" x="631.915538" y="257.158895" style="stroke: #000000; stroke-width: 0.8"/>
      </g>
     </g>
     <g id="text_19">
      <!-- 7.5 -->
      <g transform="translate(623.963976 271.757332) scale(0.1 -0.1)">
       <defs>
        <path id="DejaVuSans-37" d="M 525 4666 
L 3525 4666 
L 3525 4397 
L 1831 0 
L 1172 0 
L 2766 4134 
L 525 4134 
L 525 4666 
z
" transform="scale(0.015625)"/>
       </defs>
       <use xlink:href="#DejaVuSans-37"/>
       <use xlink:href="#DejaVuSans-2e" transform="translate(63.623047 0)"/>
       <use xlink:href="#DejaVuSans-35" transform="translate(95.410156 0)"/>
      </g>
     </g>
    </g>
    <g id="xtick_11">
     <g id="line2d_19">
      <g>
       <use xlink:href="#m6a4e058986" x="675.763228" y="257.158895" style="stroke: #000000; stroke-width: 0.8"/>
      </g>
     </g>
     <g id="text_20">
      <!-- 10.0 -->
      <g transform="translate(664.630416 271.757332) scale(0.1 -0.1)">
       <use xlink:href="#DejaVuSans-31"/>
       <use xlink:href="#DejaVuSans-30" transform="translate(63.623047 0)"/>
       <use xlink:href="#DejaVuSans-2e" transform="translate(127.246094 0)"/>
       <use xlink:href="#DejaVuSans-30" transform="translate(159.033203 0)"/>
      </g>
     </g>
    </g>
    <g id="xtick_12">
     <g id="line2d_20">
      <g>
       <use xlink:href="#m6a4e058986" x="719.610918" y="257.158895" style="stroke: #000000; stroke-width: 0.8"/>
      </g>
     </g>
     <g id="text_21">
      <!-- 12.5 -->
      <g transform="translate(708.478106 271.757332) scale(0.1 -0.1)">
       <use xlink:href="#DejaVuSans-31"/>
       <use xlink:href="#DejaVuSans-32" transform="translate(63.623047 0)"/>
       <use xlink:href="#DejaVuSans-2e" transform="translate(127.246094 0)"/>
       <use xlink:href="#DejaVuSans-35" transform="translate(159.033203 0)"/>
      </g>
     </g>
    </g>
    <g id="xtick_13">
     <g id="line2d_21">
      <g>
       <use xlink:href="#m6a4e058986" x="763.458608" y="257.158895" style="stroke: #000000; stroke-width: 0.8"/>
      </g>
     </g>
     <g id="text_22">
      <!-- 15.0 -->
      <g transform="translate(752.325795 271.757332) scale(0.1 -0.1)">
       <use xlink:href="#DejaVuSans-31"/>
       <use xlink:href="#DejaVuSans-35" transform="translate(63.623047 0)"/>
       <use xlink:href="#DejaVuSans-2e" transform="translate(127.246094 0)"/>
       <use xlink:href="#DejaVuSans-30" transform="translate(159.033203 0)"/>
      </g>
     </g>
    </g>
    <g id="xtick_14">
     <g id="line2d_22">
      <g>
       <use xlink:href="#m6a4e058986" x="807.306298" y="257.158895" style="stroke: #000000; stroke-width: 0.8"/>
      </g>
     </g>
     <g id="text_23">
      <!-- 17.5 -->
      <g transform="translate(796.173485 271.757332) scale(0.1 -0.1)">
       <use xlink:href="#DejaVuSans-31"/>
       <use xlink:href="#DejaVuSans-37" transform="translate(63.623047 0)"/>
       <use xlink:href="#DejaVuSans-2e" transform="translate(127.246094 0)"/>
       <use xlink:href="#DejaVuSans-35" transform="translate(159.033203 0)"/>
      </g>
     </g>
    </g>
    <g id="xtick_15">
     <g id="line2d_23">
      <g>
       <use xlink:href="#m6a4e058986" x="851.153988" y="257.158895" style="stroke: #000000; stroke-width: 0.8"/>
      </g>
     </g>
     <g id="text_24">
      <!-- 20.0 -->
      <g transform="translate(840.021175 271.757332) scale(0.1 -0.1)">
       <use xlink:href="#DejaVuSans-32"/>
       <use xlink:href="#DejaVuSans-30" transform="translate(63.623047 0)"/>
       <use xlink:href="#DejaVuSans-2e" transform="translate(127.246094 0)"/>
       <use xlink:href="#DejaVuSans-30" transform="translate(159.033203 0)"/>
      </g>
     </g>
    </g>
    <g id="text_25">
     <!-- wavelength [Å] -->
     <g transform="translate(637.886202 287.119832) scale(0.1 -0.1)">
      <defs>
       <path id="DejaVuSans-77" d="M 269 3500 
L 844 3500 
L 1563 769 
L 2278 3500 
L 2956 3500 
L 3675 769 
L 4391 3500 
L 4966 3500 
L 4050 0 
L 3372 0 
L 2619 2869 
L 1863 0 
L 1184 0 
L 269 3500 
z
" transform="scale(0.015625)"/>
       <path id="DejaVuSans-61" d="M 2194 1759 
Q 1497 1759 1228 1600 
Q 959 1441 959 1056 
Q 959 750 1161 570 
Q 1363 391 1709 391 
Q 2188 391 2477 730 
Q 2766 1069 2766 1631 
L 2766 1759 
L 2194 1759 
z
M 3341 1997 
L 3341 0 
L 2766 0 
L 2766 531 
Q 2569 213 2275 61 
Q 1981 -91 1556 -91 
Q 1019 -91 701 211 
Q 384 513 384 1019 
Q 384 1609 779 1909 
Q 1175 2209 1959 2209 
L 2766 2209 
L 2766 2266 
Q 2766 2663 2505 2880 
Q 2244 3097 1772 3097 
Q 1472 3097 1187 3025 
Q 903 2953 641 2809 
L 641 3341 
Q 956 3463 1253 3523 
Q 1550 3584 1831 3584 
Q 2591 3584 2966 3190 
Q 3341 2797 3341 1997 
z
" transform="scale(0.015625)"/>
       <path id="DejaVuSans-76" d="M 191 3500 
L 800 3500 
L 1894 563 
L 2988 3500 
L 3597 3500 
L 2284 0 
L 1503 0 
L 191 3500 
z
" transform="scale(0.015625)"/>
       <path id="DejaVuSans-6c" d="M 603 4863 
L 1178 4863 
L 1178 0 
L 603 0 
L 603 4863 
z
" transform="scale(0.015625)"/>
       <path id="DejaVuSans-67" d="M 2906 1791 
Q 2906 2416 2648 2759 
Q 2391 3103 1925 3103 
Q 1463 3103 1205 2759 
Q 947 2416 947 1791 
Q 947 1169 1205 825 
Q 1463 481 1925 481 
Q 2391 481 2648 825 
Q 2906 1169 2906 1791 
z
M 3481 434 
Q 3481 -459 3084 -895 
Q 2688 -1331 1869 -1331 
Q 1566 -1331 1297 -1286 
Q 1028 -1241 775 -1147 
L 775 -588 
Q 1028 -725 1275 -790 
Q 1522 -856 1778 -856 
Q 2344 -856 2625 -561 
Q 2906 -266 2906 331 
L 2906 616 
Q 2728 306 2450 153 
Q 2172 0 1784 0 
Q 1141 0 747 490 
Q 353 981 353 1791 
Q 353 2603 747 3093 
Q 1141 3584 1784 3584 
Q 2172 3584 2450 3431 
Q 2728 3278 2906 2969 
L 2906 3500 
L 3481 3500 
L 3481 434 
z
" transform="scale(0.015625)"/>
       <path id="DejaVuSans-68" d="M 3513 2113 
L 3513 0 
L 2938 0 
L 2938 2094 
Q 2938 2591 2744 2837 
Q 2550 3084 2163 3084 
Q 1697 3084 1428 2787 
Q 1159 2491 1159 1978 
L 1159 0 
L 581 0 
L 581 4863 
L 1159 4863 
L 1159 2956 
Q 1366 3272 1645 3428 
Q 1925 3584 2291 3584 
Q 2894 3584 3203 3211 
Q 3513 2838 3513 2113 
z
" transform="scale(0.015625)"/>
       <path id="DejaVuSans-c5" d="M 2663 5081 
Q 2663 5278 2523 5417 
Q 2384 5556 2188 5556 
Q 1988 5556 1852 5420 
Q 1716 5284 1716 5081 
Q 1716 4884 1853 4746 
Q 1991 4609 2188 4609 
Q 2384 4609 2523 4746 
Q 2663 4884 2663 5081 
z
M 2188 4044 
L 1338 1722 
L 3041 1722 
L 2188 4044 
z
M 1716 4366 
Q 1525 4494 1428 4673 
Q 1331 4853 1331 5081 
Q 1331 5441 1579 5691 
Q 1828 5941 2188 5941 
Q 2544 5941 2795 5689 
Q 3047 5438 3047 5081 
Q 3047 4863 2948 4678 
Q 2850 4494 2663 4366 
L 4325 0 
L 3669 0 
L 3244 1197 
L 1141 1197 
L 716 0 
L 50 0 
L 1716 4366 
z
" transform="scale(0.015625)"/>
      </defs>
      <use xlink:href="#DejaVuSans-77"/>
      <use xlink:href="#DejaVuSans-61" transform="translate(81.787109 0)"/>
      <use xlink:href="#DejaVuSans-76" transform="translate(143.066406 0)"/>
      <use xlink:href="#DejaVuSans-65" transform="translate(202.246094 0)"/>
      <use xlink:href="#DejaVuSans-6c" transform="translate(263.769531 0)"/>
      <use xlink:href="#DejaVuSans-65" transform="translate(291.552734 0)"/>
      <use xlink:href="#DejaVuSans-6e" transform="translate(353.076172 0)"/>
      <use xlink:href="#DejaVuSans-67" transform="translate(416.455078 0)"/>
      <use xlink:href="#DejaVuSans-74" transform="translate(479.931641 0)"/>
      <use xlink:href="#DejaVuSans-68" transform="translate(519.140625 0)"/>
      <use xlink:href="#DejaVuSans-20" transform="translate(582.519531 0)"/>
      <use xlink:href="#DejaVuSans-5b" transform="translate(614.306641 0)"/>
      <use xlink:href="#DejaVuSans-c5" transform="translate(653.320312 0)"/>
      <use xlink:href="#DejaVuSans-5d" transform="translate(721.728516 0)"/>
     </g>
    </g>
   </g>
   <g id="matplotlib.axis_4">
    <g id="ytick_8">
     <g id="line2d_24">
      <g>
       <use xlink:href="#m83834bc3f4" x="486.647885" y="245.797127" style="stroke: #000000; stroke-width: 0.8"/>
      </g>
     </g>
     <g id="text_26">
      <!-- 0 -->
      <g transform="translate(473.285385 249.596346) scale(0.1 -0.1)">
       <use xlink:href="#DejaVuSans-30"/>
      </g>
     </g>
    </g>
    <g id="ytick_9">
     <g id="line2d_25">
      <g>
       <use xlink:href="#m83834bc3f4" x="486.647885" y="193.869486" style="stroke: #000000; stroke-width: 0.8"/>
      </g>
     </g>
     <g id="text_27">
      <!-- 1000 -->
      <g transform="translate(454.197885 197.668704) scale(0.1 -0.1)">
       <use xlink:href="#DejaVuSans-31"/>
       <use xlink:href="#DejaVuSans-30" transform="translate(63.623047 0)"/>
       <use xlink:href="#DejaVuSans-30" transform="translate(127.246094 0)"/>
       <use xlink:href="#DejaVuSans-30" transform="translate(190.869141 0)"/>
      </g>
     </g>
    </g>
    <g id="ytick_10">
     <g id="line2d_26">
      <g>
       <use xlink:href="#m83834bc3f4" x="486.647885" y="141.941844" style="stroke: #000000; stroke-width: 0.8"/>
      </g>
     </g>
     <g id="text_28">
      <!-- 2000 -->
      <g transform="translate(454.197885 145.741063) scale(0.1 -0.1)">
       <use xlink:href="#DejaVuSans-32"/>
       <use xlink:href="#DejaVuSans-30" transform="translate(63.623047 0)"/>
       <use xlink:href="#DejaVuSans-30" transform="translate(127.246094 0)"/>
       <use xlink:href="#DejaVuSans-30" transform="translate(190.869141 0)"/>
      </g>
     </g>
    </g>
    <g id="ytick_11">
     <g id="line2d_27">
      <g>
       <use xlink:href="#m83834bc3f4" x="486.647885" y="90.014203" style="stroke: #000000; stroke-width: 0.8"/>
      </g>
     </g>
     <g id="text_29">
      <!-- 3000 -->
      <g transform="translate(454.197885 93.813421) scale(0.1 -0.1)">
       <use xlink:href="#DejaVuSans-33"/>
       <use xlink:href="#DejaVuSans-30" transform="translate(63.623047 0)"/>
       <use xlink:href="#DejaVuSans-30" transform="translate(127.246094 0)"/>
       <use xlink:href="#DejaVuSans-30" transform="translate(190.869141 0)"/>
      </g>
     </g>
    </g>
    <g id="ytick_12">
     <g id="line2d_28">
      <g>
       <use xlink:href="#m83834bc3f4" x="486.647885" y="38.086561" style="stroke: #000000; stroke-width: 0.8"/>
      </g>
     </g>
     <g id="text_30">
      <!-- 4000 -->
      <g transform="translate(454.197885 41.88578) scale(0.1 -0.1)">
       <use xlink:href="#DejaVuSans-34"/>
       <use xlink:href="#DejaVuSans-30" transform="translate(63.623047 0)"/>
       <use xlink:href="#DejaVuSans-30" transform="translate(127.246094 0)"/>
       <use xlink:href="#DejaVuSans-30" transform="translate(190.869141 0)"/>
      </g>
     </g>
    </g>
    <g id="text_31">
     <!-- [counts] -->
     <g transform="translate(448.118197 152.791947) rotate(-90) scale(0.1 -0.1)">
      <use xlink:href="#DejaVuSans-5b"/>
      <use xlink:href="#DejaVuSans-63" transform="translate(39.013672 0)"/>
      <use xlink:href="#DejaVuSans-6f" transform="translate(93.994141 0)"/>
      <use xlink:href="#DejaVuSans-75" transform="translate(155.175781 0)"/>
      <use xlink:href="#DejaVuSans-6e" transform="translate(218.554688 0)"/>
      <use xlink:href="#DejaVuSans-74" transform="translate(281.933594 0)"/>
      <use xlink:href="#DejaVuSans-73" transform="translate(321.142578 0)"/>
      <use xlink:href="#DejaVuSans-5d" transform="translate(373.242188 0)"/>
     </g>
    </g>
   </g>
   <g id="patch_8">
    <path d="M 486.647885 257.158895 
L 486.647885 7.2 
" style="fill: none; stroke: #000000; stroke-width: 0.8; stroke-linejoin: miter; stroke-linecap: square"/>
   </g>
   <g id="patch_9">
    <path d="M 865.19952 257.158895 
L 865.19952 7.2 
" style="fill: none; stroke: #000000; stroke-width: 0.8; stroke-linejoin: miter; stroke-linecap: square"/>
   </g>
   <g id="patch_10">
    <path d="M 486.647885 257.158895 
L 865.19952 257.158895 
" style="fill: none; stroke: #000000; stroke-width: 0.8; stroke-linejoin: miter; stroke-linecap: square"/>
   </g>
   <g id="patch_11">
    <path d="M 486.647885 7.2 
L 865.19952 7.2 
" style="fill: none; stroke: #000000; stroke-width: 0.8; stroke-linejoin: miter; stroke-linecap: square"/>
   </g>
   <g id="line2d_29">
    <path d="M 503.854777 159.077966 
L 505.001904 159.077966 
L 505.001904 144.90172 
L 506.14903 144.90172 
L 506.14903 140.124377 
L 507.296156 140.124377 
L 507.296156 140.695581 
L 508.443282 140.695581 
L 508.443282 147.342319 
L 509.590408 147.342319 
L 509.590408 155.91038 
L 510.737534 155.91038 
L 510.737534 148.173161 
L 511.884661 148.173161 
L 511.884661 130.569691 
L 513.031787 130.569691 
L 513.031787 106.890686 
L 514.178913 106.890686 
L 514.178913 87.469748 
L 515.326039 87.469748 
L 515.326039 62.440625 
L 516.473165 62.440625 
L 516.473165 40.475233 
L 517.620291 40.475233 
L 517.620291 26.091276 
L 518.767418 26.091276 
L 518.767418 29.31079 
L 519.914544 29.31079 
L 519.914544 18.561768 
L 521.06167 18.561768 
L 521.06167 30.660908 
L 522.208796 30.660908 
L 522.208796 30.868619 
L 523.355922 30.868619 
L 523.355922 51.53582 
L 524.503048 51.53582 
L 524.503048 49.510642 
L 525.650175 49.510642 
L 525.650175 66.439053 
L 526.797301 66.439053 
L 526.797301 69.60664 
L 527.944427 69.60664 
L 527.944427 83.67903 
L 529.091553 83.67903 
L 529.091553 89.442999 
L 530.238679 89.442999 
L 530.238679 92.662512 
L 531.385805 92.662512 
L 531.385805 96.764796 
L 532.532932 96.764796 
L 532.532932 98.114915 
L 533.680058 98.114915 
L 533.680058 100.451659 
L 534.827184 100.451659 
L 534.827184 99.257323 
L 535.97431 99.257323 
L 535.97431 94.47998 
L 537.121436 94.47998 
L 537.121436 86.431195 
L 538.268562 86.431195 
L 538.268562 83.730958 
L 539.415689 83.730958 
L 539.415689 76.461088 
L 540.562815 76.461088 
L 540.562815 60.675085 
L 541.709941 60.675085 
L 541.709941 49.56257 
L 542.857067 49.56257 
L 542.857067 47.537392 
L 544.004193 47.537392 
L 544.004193 40.007884 
L 545.151319 40.007884 
L 545.151319 39.332825 
L 546.298446 39.332825 
L 546.298446 50.341485 
L 547.445572 50.341485 
L 547.445572 54.755334 
L 548.592698 54.755334 
L 548.592698 60.103881 
L 549.739824 60.103881 
L 549.739824 70.645192 
L 550.88695 70.645192 
L 550.88695 79.161326 
L 552.034076 79.161326 
L 552.034076 94.791546 
L 553.181203 94.791546 
L 553.181203 97.284072 
L 554.328329 97.284072 
L 554.328329 105.852133 
L 555.475455 105.852133 
L 555.475455 112.654654 
L 556.622581 112.654654 
L 556.622581 121.638136 
L 557.769707 121.638136 
L 557.769707 122.728617 
L 558.916833 122.728617 
L 558.916833 130.36198 
L 560.06396 130.36198 
L 560.06396 134.77583 
L 561.211086 134.77583 
L 561.211086 145.940272 
L 562.358212 145.940272 
L 562.358212 147.082681 
L 563.505338 147.082681 
L 563.505338 154.819899 
L 564.652464 154.819899 
L 564.652464 157.675919 
L 565.79959 157.675919 
L 565.79959 158.299051 
L 566.946717 158.299051 
L 566.946717 167.957592 
L 568.093843 167.957592 
L 568.093843 170.813613 
L 569.240969 170.813613 
L 569.240969 173.150357 
L 570.388095 173.150357 
L 570.388095 178.291193 
L 571.535221 178.291193 
L 571.535221 181.978056 
L 572.682347 181.978056 
L 572.682347 179.225891 
L 573.829474 179.225891 
L 573.829474 186.911182 
L 574.9766 186.911182 
L 574.9766 189.403708 
L 576.123726 189.403708 
L 576.123726 193.76563 
L 577.270852 193.76563 
L 577.270852 194.284907 
L 578.417978 194.284907 
L 578.417978 195.479242 
L 579.565104 195.479242 
L 579.565104 199.06225 
L 580.712231 199.06225 
L 580.712231 200.464296 
L 581.859357 200.464296 
L 581.859357 203.00875 
L 583.006483 203.00875 
L 583.006483 203.943448 
L 584.153609 203.943448 
L 584.153609 204.203086 
L 585.300735 204.203086 
L 585.300735 211.888377 
L 586.447861 211.888377 
L 586.447861 209.447778 
L 587.594988 209.447778 
L 587.594988 211.992232 
L 588.742114 211.992232 
L 588.742114 212.511509 
L 589.88924 212.511509 
L 589.88924 214.90018 
L 591.036366 214.90018 
L 591.036366 218.43126 
L 592.183492 218.43126 
L 592.183492 213.913555 
L 593.330618 213.913555 
L 593.330618 218.535115 
L 594.477745 218.535115 
L 594.477745 220.664149 
L 595.624871 220.664149 
L 595.624871 221.027642 
L 596.771997 221.027642 
L 596.771997 219.781379 
L 597.919123 219.781379 
L 597.919123 223.364386 
L 599.066249 223.364386 
L 599.066249 222.585471 
L 600.213375 222.585471 
L 600.213375 223.987518 
L 601.360502 223.987518 
L 601.360502 224.506794 
L 602.507628 224.506794 
L 602.507628 225.285709 
L 603.654754 225.285709 
L 603.654754 226.895466 
L 605.949006 226.947393 
L 605.949006 228.401367 
L 607.096132 228.401367 
L 607.096132 229.180282 
L 608.243259 229.180282 
L 608.243259 228.972571 
L 610.537511 228.920644 
L 610.537511 229.907269 
L 611.684637 229.907269 
L 611.684637 231.880519 
L 612.831763 231.880519 
L 612.831763 231.672809 
L 613.978889 231.672809 
L 613.978889 232.140157 
L 615.126016 232.140157 
L 615.126016 232.555578 
L 616.273142 232.555578 
L 616.273142 235.048105 
L 617.420268 235.048105 
L 617.420268 233.386421 
L 618.567394 233.386421 
L 618.567394 232.659434 
L 619.71452 232.659434 
L 619.71452 235.255816 
L 620.861647 235.255816 
L 620.861647 234.892322 
L 622.008773 234.892322 
L 622.008773 235.619309 
L 623.155899 235.619309 
L 623.155899 237.073283 
L 625.450151 237.021356 
L 625.450151 236.70979 
L 626.597277 236.70979 
L 626.597277 237.59256 
L 627.744403 237.59256 
L 627.744403 237.80027 
L 628.89153 237.80027 
L 628.89153 237.488704 
L 630.038656 237.488704 
L 630.038656 236.813645 
L 631.185782 236.813645 
L 631.185782 237.644487 
L 632.332908 237.644487 
L 632.332908 238.007981 
L 634.62716 238.111836 
L 634.62716 238.371474 
L 635.774287 238.371474 
L 635.774287 238.631113 
L 636.921413 238.631113 
L 636.921413 240.137014 
L 639.215665 240.085086 
L 639.215665 239.202317 
L 640.362791 239.202317 
L 640.362791 239.617738 
L 641.509917 239.617738 
L 641.509917 240.188942 
L 642.657044 240.188942 
L 642.657044 239.877376 
L 643.80417 239.877376 
L 643.80417 240.604363 
L 644.951296 240.604363 
L 644.951296 240.292797 
L 646.098422 240.292797 
L 646.098422 239.825448 
L 647.245548 239.825448 
L 647.245548 240.864001 
L 649.539801 240.967856 
L 649.539801 242.006409 
L 650.686927 242.006409 
L 650.686927 241.487133 
L 651.834053 241.487133 
L 651.834053 240.915929 
L 652.981179 240.915929 
L 652.981179 240.292797 
L 654.128305 240.292797 
L 654.128305 241.33135 
L 655.275431 241.33135 
L 655.275431 242.110265 
L 656.422558 242.110265 
L 656.422558 241.746771 
L 657.569684 241.746771 
L 657.569684 242.473758 
L 658.71681 242.473758 
L 658.71681 241.694843 
L 659.863936 241.694843 
L 659.863936 242.21412 
L 662.158188 242.266047 
L 662.158188 242.785324 
L 663.305315 242.785324 
L 663.305315 242.941107 
L 664.452441 242.941107 
L 664.452441 242.733396 
L 665.599567 242.733396 
L 665.599567 243.09689 
L 666.746693 243.09689 
L 666.746693 242.681469 
L 667.893819 242.681469 
L 667.893819 243.044962 
L 669.040945 243.044962 
L 669.040945 242.889179 
L 671.335198 242.837251 
L 671.335198 242.733396 
L 672.482324 242.733396 
L 672.482324 242.525686 
L 673.62945 242.525686 
L 673.62945 243.356528 
L 674.776576 243.356528 
L 674.776576 242.941107 
L 675.923702 242.941107 
L 675.923702 242.577613 
L 677.070829 242.577613 
L 677.070829 243.460383 
L 679.365081 243.356528 
L 679.365081 243.044962 
L 680.512207 243.044962 
L 680.512207 244.239298 
L 681.659333 244.239298 
L 681.659333 243.408456 
L 682.806459 243.408456 
L 682.806459 243.616166 
L 685.100712 243.512311 
L 685.100712 244.239298 
L 686.247838 244.239298 
L 686.247838 243.97966 
L 687.394964 243.97966 
L 687.394964 244.18737 
L 688.54209 244.18737 
L 688.54209 243.460383 
L 689.689216 243.460383 
L 689.689216 244.031587 
L 691.983469 244.083515 
L 691.983469 244.447008 
L 693.130595 244.447008 
L 693.130595 244.239298 
L 695.424847 244.343153 
L 695.424847 243.875804 
L 697.7191 243.927732 
L 697.7191 244.395081 
L 698.866226 244.395081 
L 698.866226 243.460383 
L 700.013352 243.460383 
L 700.013352 244.135443 
L 702.307604 244.239298 
L 702.307604 244.447008 
L 703.45473 244.447008 
L 703.45473 244.239298 
L 704.601857 244.239298 
L 704.601857 244.447008 
L 705.748983 244.447008 
L 705.748983 244.810502 
L 706.896109 244.810502 
L 706.896109 244.550864 
L 709.190361 244.447008 
L 709.190361 244.706647 
L 710.337487 244.706647 
L 710.337487 244.862429 
L 712.63174 244.810502 
L 712.63174 244.498936 
L 713.778866 244.498936 
L 713.778866 244.758574 
L 714.925992 244.758574 
L 714.925992 244.135443 
L 716.073118 244.135443 
L 716.073118 244.862429 
L 717.220245 244.862429 
L 717.220245 245.173995 
L 718.367371 245.173995 
L 718.367371 244.706647 
L 719.514497 244.706647 
L 719.514497 244.966285 
L 725.250128 244.914357 
L 725.250128 244.654719 
L 726.397254 244.654719 
L 726.397254 244.966285 
L 728.691506 245.07014 
L 728.691506 244.706647 
L 729.838632 244.706647 
L 729.838632 245.173995 
L 732.132885 245.173995 
L 732.132885 244.810502 
L 733.280011 244.810502 
L 733.280011 245.277851 
L 734.427137 245.277851 
L 734.427137 245.122068 
L 735.574263 245.122068 
L 735.574263 244.914357 
L 737.868515 244.914357 
L 737.868515 245.173995 
L 744.751272 245.122068 
L 744.751272 245.018212 
L 745.898399 245.018212 
L 745.898399 245.329778 
L 747.045525 245.329778 
L 747.045525 244.758574 
L 748.192651 244.758574 
L 748.192651 245.018212 
L 749.339777 245.018212 
L 749.339777 245.381706 
L 750.486903 245.381706 
L 750.486903 245.173995 
L 751.634029 245.173995 
L 751.634029 245.329778 
L 759.663913 245.329778 
L 759.663913 245.018212 
L 760.811039 245.018212 
L 760.811039 245.173995 
L 761.958165 245.173995 
L 761.958165 245.537489 
L 763.105291 245.537489 
L 763.105291 245.329778 
L 766.54667 245.381706 
L 766.54667 245.018212 
L 767.693796 245.018212 
L 767.693796 245.745199 
L 768.840922 245.745199 
L 768.840922 245.225923 
L 769.988048 245.225923 
L 769.988048 245.589416 
L 771.135174 245.589416 
L 771.135174 245.381706 
L 773.429427 245.277851 
L 773.429427 245.07014 
L 774.576553 245.07014 
L 774.576553 245.589416 
L 776.870805 245.693272 
L 776.870805 245.329778 
L 778.017931 245.329778 
L 778.017931 245.537489 
L 780.312184 245.537489 
L 780.312184 245.329778 
L 781.45931 245.329778 
L 781.45931 245.537489 
L 783.753562 245.589416 
L 783.753562 245.745199 
L 784.900688 245.745199 
L 784.900688 245.433634 
L 786.047814 245.433634 
L 786.047814 245.641344 
L 787.194941 245.641344 
L 787.194941 245.433634 
L 792.930571 245.433634 
L 792.930571 245.589416 
L 797.519076 245.485561 
L 797.519076 245.381706 
L 799.813328 245.485561 
L 799.813328 245.693272 
L 800.960455 245.693272 
L 800.960455 245.537489 
L 803.254707 245.641344 
L 803.254707 245.693272 
L 806.696085 245.641344 
L 806.696085 245.537489 
L 810.137464 245.589416 
L 810.137464 245.745199 
L 811.28459 245.745199 
L 811.28459 245.589416 
L 815.873095 245.537489 
L 815.873095 245.433634 
L 817.020221 245.433634 
L 817.020221 245.589416 
L 820.461599 245.693272 
L 820.461599 245.745199 
L 822.755852 245.693272 
L 822.755852 245.589416 
L 825.050104 245.693272 
L 825.050104 245.745199 
L 828.491483 245.693272 
L 828.491483 245.537489 
L 829.638609 245.537489 
L 829.638609 245.693272 
L 831.932861 245.641344 
L 831.932861 245.537489 
L 833.079987 245.537489 
L 833.079987 245.745199 
L 834.227113 245.745199 
L 834.227113 245.485561 
L 835.37424 245.485561 
L 835.37424 245.797127 
L 836.521366 245.797127 
L 836.521366 245.641344 
L 844.551249 245.589416 
L 844.551249 245.797127 
L 847.992628 245.693272 
L 847.992628 245.693272 
" clip-path="url(#p0cd8700c80)" style="fill: none; stroke: #1f77b4; stroke-width: 1.5; stroke-linecap: square"/>
   </g>
  </g>
 </g>
 <defs>
  <clipPath id="p013c630a1f">
   <rect x="53.328125" y="7.2" width="378.551635" height="249.958895"/>
  </clipPath>
  <clipPath id="p0cd8700c80">
   <rect x="486.647885" y="7.2" width="378.551635" height="249.958895"/>
  </clipPath>
 </defs>
</svg>
