<?xml version="1.0" encoding="utf-8" standalone="no"?>
<!DOCTYPE svg PUBLIC "-//W3C//DTD SVG 1.1//EN"
  "http://www.w3.org/Graphics/SVG/1.1/DTD/svg11.dtd">
<svg xmlns:xlink="http://www.w3.org/1999/xlink" width="872.39952pt" height="296.39952pt" viewBox="0 0 872.39952 296.39952" xmlns="http://www.w3.org/2000/svg" version="1.1">
 <metadata>
  <rdf:RDF xmlns:dc="http://purl.org/dc/elements/1.1/" xmlns:cc="http://creativecommons.org/ns#" xmlns:rdf="http://www.w3.org/1999/02/22-rdf-syntax-ns#">
   <cc:Work>
    <dc:type rdf:resource="http://purl.org/dc/dcmitype/StillImage"/>
    <dc:date>2025-05-14T12:10:55.342786</dc:date>
    <dc:format>image/svg+xml</dc:format>
    <dc:creator>
     <cc:Agent>
      <dc:title>Matplotlib v3.10.1, https://matplotlib.org/</dc:title>
     </cc:Agent>
    </dc:creator>
   </cc:Work>
  </rdf:RDF>
 </metadata>
 <defs>
  <style type="text/css">*{stroke-linejoin: round; stroke-linecap: butt}</style>
 </defs>
 <g id="figure_1">
  <g id="patch_1">
   <path d="M 0 296.39952 
L 872.39952 296.39952 
L 872.39952 0 
L 0 0 
z
" style="fill: #ffffff"/>
  </g>
  <g id="axes_1">
   <g id="patch_2">
    <path d="M 46.965625 257.158895 
L 431.87976 257.158895 
L 431.87976 22.318125 
L 46.965625 22.318125 
z
" style="fill: #ffffff"/>
   </g>
   <g id="matplotlib.axis_1">
    <g id="xtick_1">
     <g id="line2d_1">
      <defs>
       <path id="m465b2169ad" d="M 0 0 
L 0 3.5 
" style="stroke: #000000; stroke-width: 0.8"/>
      </defs>
      <g>
       <use xlink:href="#m465b2169ad" x="82.878666" y="257.158895" style="stroke: #000000; stroke-width: 0.8"/>
      </g>
     </g>
     <g id="text_1">
      <!-- 1.0 -->
      <g transform="translate(74.927104 271.757332) scale(0.1 -0.1)">
       <defs>
        <path id="DejaVuSans-31" d="M 794 531 
L 1825 531 
L 1825 4091 
L 703 3866 
L 703 4441 
L 1819 4666 
L 2450 4666 
L 2450 531 
L 3481 531 
L 3481 0 
L 794 0 
L 794 531 
z
" transform="scale(0.015625)"/>
        <path id="DejaVuSans-2e" d="M 684 794 
L 1344 794 
L 1344 0 
L 684 0 
L 684 794 
z
" transform="scale(0.015625)"/>
        <path id="DejaVuSans-30" d="M 2034 4250 
Q 1547 4250 1301 3770 
Q 1056 3291 1056 2328 
Q 1056 1369 1301 889 
Q 1547 409 2034 409 
Q 2525 409 2770 889 
Q 3016 1369 3016 2328 
Q 3016 3291 2770 3770 
Q 2525 4250 2034 4250 
z
M 2034 4750 
Q 2819 4750 3233 4129 
Q 3647 3509 3647 2328 
Q 3647 1150 3233 529 
Q 2819 -91 2034 -91 
Q 1250 -91 836 529 
Q 422 1150 422 2328 
Q 422 3509 836 4129 
Q 1250 4750 2034 4750 
z
" transform="scale(0.015625)"/>
       </defs>
       <use xlink:href="#DejaVuSans-31"/>
       <use xlink:href="#DejaVuSans-2e" transform="translate(63.623047 0)"/>
       <use xlink:href="#DejaVuSans-30" transform="translate(95.410156 0)"/>
      </g>
     </g>
    </g>
    <g id="xtick_2">
     <g id="line2d_2">
      <g>
       <use xlink:href="#m465b2169ad" x="128.921027" y="257.158895" style="stroke: #000000; stroke-width: 0.8"/>
      </g>
     </g>
     <g id="text_2">
      <!-- 1.5 -->
      <g transform="translate(120.969464 271.757332) scale(0.1 -0.1)">
       <defs>
        <path id="DejaVuSans-35" d="M 691 4666 
L 3169 4666 
L 3169 4134 
L 1269 4134 
L 1269 2991 
Q 1406 3038 1543 3061 
Q 1681 3084 1819 3084 
Q 2600 3084 3056 2656 
Q 3513 2228 3513 1497 
Q 3513 744 3044 326 
Q 2575 -91 1722 -91 
Q 1428 -91 1123 -41 
Q 819 9 494 109 
L 494 744 
Q 775 591 1075 516 
Q 1375 441 1709 441 
Q 2250 441 2565 725 
Q 2881 1009 2881 1497 
Q 2881 1984 2565 2268 
Q 2250 2553 1709 2553 
Q 1456 2553 1204 2497 
Q 953 2441 691 2322 
L 691 4666 
z
" transform="scale(0.015625)"/>
       </defs>
       <use xlink:href="#DejaVuSans-31"/>
       <use xlink:href="#DejaVuSans-2e" transform="translate(63.623047 0)"/>
       <use xlink:href="#DejaVuSans-35" transform="translate(95.410156 0)"/>
      </g>
     </g>
    </g>
    <g id="xtick_3">
     <g id="line2d_3">
      <g>
       <use xlink:href="#m465b2169ad" x="174.963388" y="257.158895" style="stroke: #000000; stroke-width: 0.8"/>
      </g>
     </g>
     <g id="text_3">
      <!-- 2.0 -->
      <g transform="translate(167.011825 271.757332) scale(0.1 -0.1)">
       <defs>
        <path id="DejaVuSans-32" d="M 1228 531 
L 3431 531 
L 3431 0 
L 469 0 
L 469 531 
Q 828 903 1448 1529 
Q 2069 2156 2228 2338 
Q 2531 2678 2651 2914 
Q 2772 3150 2772 3378 
Q 2772 3750 2511 3984 
Q 2250 4219 1831 4219 
Q 1534 4219 1204 4116 
Q 875 4013 500 3803 
L 500 4441 
Q 881 4594 1212 4672 
Q 1544 4750 1819 4750 
Q 2544 4750 2975 4387 
Q 3406 4025 3406 3419 
Q 3406 3131 3298 2873 
Q 3191 2616 2906 2266 
Q 2828 2175 2409 1742 
Q 1991 1309 1228 531 
z
" transform="scale(0.015625)"/>
       </defs>
       <use xlink:href="#DejaVuSans-32"/>
       <use xlink:href="#DejaVuSans-2e" transform="translate(63.623047 0)"/>
       <use xlink:href="#DejaVuSans-30" transform="translate(95.410156 0)"/>
      </g>
     </g>
    </g>
    <g id="xtick_4">
     <g id="line2d_4">
      <g>
       <use xlink:href="#m465b2169ad" x="221.005748" y="257.158895" style="stroke: #000000; stroke-width: 0.8"/>
      </g>
     </g>
     <g id="text_4">
      <!-- 2.5 -->
      <g transform="translate(213.054186 271.757332) scale(0.1 -0.1)">
       <use xlink:href="#DejaVuSans-32"/>
       <use xlink:href="#DejaVuSans-2e" transform="translate(63.623047 0)"/>
       <use xlink:href="#DejaVuSans-35" transform="translate(95.410156 0)"/>
      </g>
     </g>
    </g>
    <g id="xtick_5">
     <g id="line2d_5">
      <g>
       <use xlink:href="#m465b2169ad" x="267.048109" y="257.158895" style="stroke: #000000; stroke-width: 0.8"/>
      </g>
     </g>
     <g id="text_5">
      <!-- 3.0 -->
      <g transform="translate(259.096546 271.757332) scale(0.1 -0.1)">
       <defs>
        <path id="DejaVuSans-33" d="M 2597 2516 
Q 3050 2419 3304 2112 
Q 3559 1806 3559 1356 
Q 3559 666 3084 287 
Q 2609 -91 1734 -91 
Q 1441 -91 1130 -33 
Q 819 25 488 141 
L 488 750 
Q 750 597 1062 519 
Q 1375 441 1716 441 
Q 2309 441 2620 675 
Q 2931 909 2931 1356 
Q 2931 1769 2642 2001 
Q 2353 2234 1838 2234 
L 1294 2234 
L 1294 2753 
L 1863 2753 
Q 2328 2753 2575 2939 
Q 2822 3125 2822 3475 
Q 2822 3834 2567 4026 
Q 2313 4219 1838 4219 
Q 1578 4219 1281 4162 
Q 984 4106 628 3988 
L 628 4550 
Q 988 4650 1302 4700 
Q 1616 4750 1894 4750 
Q 2613 4750 3031 4423 
Q 3450 4097 3450 3541 
Q 3450 3153 3228 2886 
Q 3006 2619 2597 2516 
z
" transform="scale(0.015625)"/>
       </defs>
       <use xlink:href="#DejaVuSans-33"/>
       <use xlink:href="#DejaVuSans-2e" transform="translate(63.623047 0)"/>
       <use xlink:href="#DejaVuSans-30" transform="translate(95.410156 0)"/>
      </g>
     </g>
    </g>
    <g id="xtick_6">
     <g id="line2d_6">
      <g>
       <use xlink:href="#m465b2169ad" x="313.09047" y="257.158895" style="stroke: #000000; stroke-width: 0.8"/>
      </g>
     </g>
     <g id="text_6">
      <!-- 3.5 -->
      <g transform="translate(305.138907 271.757332) scale(0.1 -0.1)">
       <use xlink:href="#DejaVuSans-33"/>
       <use xlink:href="#DejaVuSans-2e" transform="translate(63.623047 0)"/>
       <use xlink:href="#DejaVuSans-35" transform="translate(95.410156 0)"/>
      </g>
     </g>
    </g>
    <g id="xtick_7">
     <g id="line2d_7">
      <g>
       <use xlink:href="#m465b2169ad" x="359.13283" y="257.158895" style="stroke: #000000; stroke-width: 0.8"/>
      </g>
     </g>
     <g id="text_7">
      <!-- 4.0 -->
      <g transform="translate(351.181268 271.757332) scale(0.1 -0.1)">
       <defs>
        <path id="DejaVuSans-34" d="M 2419 4116 
L 825 1625 
L 2419 1625 
L 2419 4116 
z
M 2253 4666 
L 3047 4666 
L 3047 1625 
L 3713 1625 
L 3713 1100 
L 3047 1100 
L 3047 0 
L 2419 0 
L 2419 1100 
L 313 1100 
L 313 1709 
L 2253 4666 
z
" transform="scale(0.015625)"/>
       </defs>
       <use xlink:href="#DejaVuSans-34"/>
       <use xlink:href="#DejaVuSans-2e" transform="translate(63.623047 0)"/>
       <use xlink:href="#DejaVuSans-30" transform="translate(95.410156 0)"/>
      </g>
     </g>
    </g>
    <g id="xtick_8">
     <g id="line2d_8">
      <g>
       <use xlink:href="#m465b2169ad" x="405.175191" y="257.158895" style="stroke: #000000; stroke-width: 0.8"/>
      </g>
     </g>
     <g id="text_8">
      <!-- 4.5 -->
      <g transform="translate(397.223628 271.757332) scale(0.1 -0.1)">
       <use xlink:href="#DejaVuSans-34"/>
       <use xlink:href="#DejaVuSans-2e" transform="translate(63.623047 0)"/>
       <use xlink:href="#DejaVuSans-35" transform="translate(95.410156 0)"/>
      </g>
     </g>
    </g>
    <g id="text_9">
     <!-- wavelength [Å] -->
     <g transform="translate(201.385193 287.119832) scale(0.1 -0.1)">
      <defs>
       <path id="DejaVuSans-77" d="M 269 3500 
L 844 3500 
L 1563 769 
L 2278 3500 
L 2956 3500 
L 3675 769 
L 4391 3500 
L 4966 3500 
L 4050 0 
L 3372 0 
L 2619 2869 
L 1863 0 
L 1184 0 
L 269 3500 
z
" transform="scale(0.015625)"/>
       <path id="DejaVuSans-61" d="M 2194 1759 
Q 1497 1759 1228 1600 
Q 959 1441 959 1056 
Q 959 750 1161 570 
Q 1363 391 1709 391 
Q 2188 391 2477 730 
Q 2766 1069 2766 1631 
L 2766 1759 
L 2194 1759 
z
M 3341 1997 
L 3341 0 
L 2766 0 
L 2766 531 
Q 2569 213 2275 61 
Q 1981 -91 1556 -91 
Q 1019 -91 701 211 
Q 384 513 384 1019 
Q 384 1609 779 1909 
Q 1175 2209 1959 2209 
L 2766 2209 
L 2766 2266 
Q 2766 2663 2505 2880 
Q 2244 3097 1772 3097 
Q 1472 3097 1187 3025 
Q 903 2953 641 2809 
L 641 3341 
Q 956 3463 1253 3523 
Q 1550 3584 1831 3584 
Q 2591 3584 2966 3190 
Q 3341 2797 3341 1997 
z
" transform="scale(0.015625)"/>
       <path id="DejaVuSans-76" d="M 191 3500 
L 800 3500 
L 1894 563 
L 2988 3500 
L 3597 3500 
L 2284 0 
L 1503 0 
L 191 3500 
z
" transform="scale(0.015625)"/>
       <path id="DejaVuSans-65" d="M 3597 1894 
L 3597 1613 
L 953 1613 
Q 991 1019 1311 708 
Q 1631 397 2203 397 
Q 2534 397 2845 478 
Q 3156 559 3463 722 
L 3463 178 
Q 3153 47 2828 -22 
Q 2503 -91 2169 -91 
Q 1331 -91 842 396 
Q 353 884 353 1716 
Q 353 2575 817 3079 
Q 1281 3584 2069 3584 
Q 2775 3584 3186 3129 
Q 3597 2675 3597 1894 
z
M 3022 2063 
Q 3016 2534 2758 2815 
Q 2500 3097 2075 3097 
Q 1594 3097 1305 2825 
Q 1016 2553 972 2059 
L 3022 2063 
z
" transform="scale(0.015625)"/>
       <path id="DejaVuSans-6c" d="M 603 4863 
L 1178 4863 
L 1178 0 
L 603 0 
L 603 4863 
z
" transform="scale(0.015625)"/>
       <path id="DejaVuSans-6e" d="M 3513 2113 
L 3513 0 
L 2938 0 
L 2938 2094 
Q 2938 2591 2744 2837 
Q 2550 3084 2163 3084 
Q 1697 3084 1428 2787 
Q 1159 2491 1159 1978 
L 1159 0 
L 581 0 
L 581 3500 
L 1159 3500 
L 1159 2956 
Q 1366 3272 1645 3428 
Q 1925 3584 2291 3584 
Q 2894 3584 3203 3211 
Q 3513 2838 3513 2113 
z
" transform="scale(0.015625)"/>
       <path id="DejaVuSans-67" d="M 2906 1791 
Q 2906 2416 2648 2759 
Q 2391 3103 1925 3103 
Q 1463 3103 1205 2759 
Q 947 2416 947 1791 
Q 947 1169 1205 825 
Q 1463 481 1925 481 
Q 2391 481 2648 825 
Q 2906 1169 2906 1791 
z
M 3481 434 
Q 3481 -459 3084 -895 
Q 2688 -1331 1869 -1331 
Q 1566 -1331 1297 -1286 
Q 1028 -1241 775 -1147 
L 775 -588 
Q 1028 -725 1275 -790 
Q 1522 -856 1778 -856 
Q 2344 -856 2625 -561 
Q 2906 -266 2906 331 
L 2906 616 
Q 2728 306 2450 153 
Q 2172 0 1784 0 
Q 1141 0 747 490 
Q 353 981 353 1791 
Q 353 2603 747 3093 
Q 1141 3584 1784 3584 
Q 2172 3584 2450 3431 
Q 2728 3278 2906 2969 
L 2906 3500 
L 3481 3500 
L 3481 434 
z
" transform="scale(0.015625)"/>
       <path id="DejaVuSans-74" d="M 1172 4494 
L 1172 3500 
L 2356 3500 
L 2356 3053 
L 1172 3053 
L 1172 1153 
Q 1172 725 1289 603 
Q 1406 481 1766 481 
L 2356 481 
L 2356 0 
L 1766 0 
Q 1100 0 847 248 
Q 594 497 594 1153 
L 594 3053 
L 172 3053 
L 172 3500 
L 594 3500 
L 594 4494 
L 1172 4494 
z
" transform="scale(0.015625)"/>
       <path id="DejaVuSans-68" d="M 3513 2113 
L 3513 0 
L 2938 0 
L 2938 2094 
Q 2938 2591 2744 2837 
Q 2550 3084 2163 3084 
Q 1697 3084 1428 2787 
Q 1159 2491 1159 1978 
L 1159 0 
L 581 0 
L 581 4863 
L 1159 4863 
L 1159 2956 
Q 1366 3272 1645 3428 
Q 1925 3584 2291 3584 
Q 2894 3584 3203 3211 
Q 3513 2838 3513 2113 
z
" transform="scale(0.015625)"/>
       <path id="DejaVuSans-20" transform="scale(0.015625)"/>
       <path id="DejaVuSans-5b" d="M 550 4863 
L 1875 4863 
L 1875 4416 
L 1125 4416 
L 1125 -397 
L 1875 -397 
L 1875 -844 
L 550 -844 
L 550 4863 
z
" transform="scale(0.015625)"/>
       <path id="DejaVuSans-c5" d="M 2663 5081 
Q 2663 5278 2523 5417 
Q 2384 5556 2188 5556 
Q 1988 5556 1852 5420 
Q 1716 5284 1716 5081 
Q 1716 4884 1853 4746 
Q 1991 4609 2188 4609 
Q 2384 4609 2523 4746 
Q 2663 4884 2663 5081 
z
M 2188 4044 
L 1338 1722 
L 3041 1722 
L 2188 4044 
z
M 1716 4366 
Q 1525 4494 1428 4673 
Q 1331 4853 1331 5081 
Q 1331 5441 1579 5691 
Q 1828 5941 2188 5941 
Q 2544 5941 2795 5689 
Q 3047 5438 3047 5081 
Q 3047 4863 2948 4678 
Q 2850 4494 2663 4366 
L 4325 0 
L 3669 0 
L 3244 1197 
L 1141 1197 
L 716 0 
L 50 0 
L 1716 4366 
z
" transform="scale(0.015625)"/>
       <path id="DejaVuSans-5d" d="M 1947 4863 
L 1947 -844 
L 622 -844 
L 622 -397 
L 1369 -397 
L 1369 4416 
L 622 4416 
L 622 4863 
L 1947 4863 
z
" transform="scale(0.015625)"/>
      </defs>
      <use xlink:href="#DejaVuSans-77"/>
      <use xlink:href="#DejaVuSans-61" transform="translate(81.787109 0)"/>
      <use xlink:href="#DejaVuSans-76" transform="translate(143.066406 0)"/>
      <use xlink:href="#DejaVuSans-65" transform="translate(202.246094 0)"/>
      <use xlink:href="#DejaVuSans-6c" transform="translate(263.769531 0)"/>
      <use xlink:href="#DejaVuSans-65" transform="translate(291.552734 0)"/>
      <use xlink:href="#DejaVuSans-6e" transform="translate(353.076172 0)"/>
      <use xlink:href="#DejaVuSans-67" transform="translate(416.455078 0)"/>
      <use xlink:href="#DejaVuSans-74" transform="translate(479.931641 0)"/>
      <use xlink:href="#DejaVuSans-68" transform="translate(519.140625 0)"/>
      <use xlink:href="#DejaVuSans-20" transform="translate(582.519531 0)"/>
      <use xlink:href="#DejaVuSans-5b" transform="translate(614.306641 0)"/>
      <use xlink:href="#DejaVuSans-c5" transform="translate(653.320312 0)"/>
      <use xlink:href="#DejaVuSans-5d" transform="translate(721.728516 0)"/>
     </g>
    </g>
   </g>
   <g id="matplotlib.axis_2">
    <g id="ytick_1">
     <g id="line2d_9">
      <defs>
       <path id="m3981d6be1c" d="M 0 0 
L -3.5 0 
" style="stroke: #000000; stroke-width: 0.8"/>
      </defs>
      <g>
       <use xlink:href="#m3981d6be1c" x="46.965625" y="246.484315" style="stroke: #000000; stroke-width: 0.8"/>
      </g>
     </g>
     <g id="text_10">
      <!-- 0 -->
      <g transform="translate(33.603125 250.283533) scale(0.1 -0.1)">
       <use xlink:href="#DejaVuSans-30"/>
      </g>
     </g>
    </g>
    <g id="ytick_2">
     <g id="line2d_10">
      <g>
       <use xlink:href="#m3981d6be1c" x="46.965625" y="195.652979" style="stroke: #000000; stroke-width: 0.8"/>
      </g>
     </g>
     <g id="text_11">
      <!-- 200 -->
      <g transform="translate(20.878125 199.452198) scale(0.1 -0.1)">
       <use xlink:href="#DejaVuSans-32"/>
       <use xlink:href="#DejaVuSans-30" transform="translate(63.623047 0)"/>
       <use xlink:href="#DejaVuSans-30" transform="translate(127.246094 0)"/>
      </g>
     </g>
    </g>
    <g id="ytick_3">
     <g id="line2d_11">
      <g>
       <use xlink:href="#m3981d6be1c" x="46.965625" y="144.821644" style="stroke: #000000; stroke-width: 0.8"/>
      </g>
     </g>
     <g id="text_12">
      <!-- 400 -->
      <g transform="translate(20.878125 148.620862) scale(0.1 -0.1)">
       <use xlink:href="#DejaVuSans-34"/>
       <use xlink:href="#DejaVuSans-30" transform="translate(63.623047 0)"/>
       <use xlink:href="#DejaVuSans-30" transform="translate(127.246094 0)"/>
      </g>
     </g>
    </g>
    <g id="ytick_4">
     <g id="line2d_12">
      <g>
       <use xlink:href="#m3981d6be1c" x="46.965625" y="93.990308" style="stroke: #000000; stroke-width: 0.8"/>
      </g>
     </g>
     <g id="text_13">
      <!-- 600 -->
      <g transform="translate(20.878125 97.789527) scale(0.1 -0.1)">
       <defs>
        <path id="DejaVuSans-36" d="M 2113 2584 
Q 1688 2584 1439 2293 
Q 1191 2003 1191 1497 
Q 1191 994 1439 701 
Q 1688 409 2113 409 
Q 2538 409 2786 701 
Q 3034 994 3034 1497 
Q 3034 2003 2786 2293 
Q 2538 2584 2113 2584 
z
M 3366 4563 
L 3366 3988 
Q 3128 4100 2886 4159 
Q 2644 4219 2406 4219 
Q 1781 4219 1451 3797 
Q 1122 3375 1075 2522 
Q 1259 2794 1537 2939 
Q 1816 3084 2150 3084 
Q 2853 3084 3261 2657 
Q 3669 2231 3669 1497 
Q 3669 778 3244 343 
Q 2819 -91 2113 -91 
Q 1303 -91 875 529 
Q 447 1150 447 2328 
Q 447 3434 972 4092 
Q 1497 4750 2381 4750 
Q 2619 4750 2861 4703 
Q 3103 4656 3366 4563 
z
" transform="scale(0.015625)"/>
       </defs>
       <use xlink:href="#DejaVuSans-36"/>
       <use xlink:href="#DejaVuSans-30" transform="translate(63.623047 0)"/>
       <use xlink:href="#DejaVuSans-30" transform="translate(127.246094 0)"/>
      </g>
     </g>
    </g>
    <g id="ytick_5">
     <g id="line2d_13">
      <g>
       <use xlink:href="#m3981d6be1c" x="46.965625" y="43.158973" style="stroke: #000000; stroke-width: 0.8"/>
      </g>
     </g>
     <g id="text_14">
      <!-- 800 -->
      <g transform="translate(20.878125 46.958191) scale(0.1 -0.1)">
       <defs>
        <path id="DejaVuSans-38" d="M 2034 2216 
Q 1584 2216 1326 1975 
Q 1069 1734 1069 1313 
Q 1069 891 1326 650 
Q 1584 409 2034 409 
Q 2484 409 2743 651 
Q 3003 894 3003 1313 
Q 3003 1734 2745 1975 
Q 2488 2216 2034 2216 
z
M 1403 2484 
Q 997 2584 770 2862 
Q 544 3141 544 3541 
Q 544 4100 942 4425 
Q 1341 4750 2034 4750 
Q 2731 4750 3128 4425 
Q 3525 4100 3525 3541 
Q 3525 3141 3298 2862 
Q 3072 2584 2669 2484 
Q 3125 2378 3379 2068 
Q 3634 1759 3634 1313 
Q 3634 634 3220 271 
Q 2806 -91 2034 -91 
Q 1263 -91 848 271 
Q 434 634 434 1313 
Q 434 1759 690 2068 
Q 947 2378 1403 2484 
z
M 1172 3481 
Q 1172 3119 1398 2916 
Q 1625 2713 2034 2713 
Q 2441 2713 2670 2916 
Q 2900 3119 2900 3481 
Q 2900 3844 2670 4047 
Q 2441 4250 2034 4250 
Q 1625 4250 1398 4047 
Q 1172 3844 1172 3481 
z
" transform="scale(0.015625)"/>
       </defs>
       <use xlink:href="#DejaVuSans-38"/>
       <use xlink:href="#DejaVuSans-30" transform="translate(63.623047 0)"/>
       <use xlink:href="#DejaVuSans-30" transform="translate(127.246094 0)"/>
      </g>
     </g>
    </g>
    <g id="text_15">
     <!-- [counts] -->
     <g transform="translate(14.798437 160.35101) rotate(-90) scale(0.1 -0.1)">
      <defs>
       <path id="DejaVuSans-63" d="M 3122 3366 
L 3122 2828 
Q 2878 2963 2633 3030 
Q 2388 3097 2138 3097 
Q 1578 3097 1268 2742 
Q 959 2388 959 1747 
Q 959 1106 1268 751 
Q 1578 397 2138 397 
Q 2388 397 2633 464 
Q 2878 531 3122 666 
L 3122 134 
Q 2881 22 2623 -34 
Q 2366 -91 2075 -91 
Q 1284 -91 818 406 
Q 353 903 353 1747 
Q 353 2603 823 3093 
Q 1294 3584 2113 3584 
Q 2378 3584 2631 3529 
Q 2884 3475 3122 3366 
z
" transform="scale(0.015625)"/>
       <path id="DejaVuSans-6f" d="M 1959 3097 
Q 1497 3097 1228 2736 
Q 959 2375 959 1747 
Q 959 1119 1226 758 
Q 1494 397 1959 397 
Q 2419 397 2687 759 
Q 2956 1122 2956 1747 
Q 2956 2369 2687 2733 
Q 2419 3097 1959 3097 
z
M 1959 3584 
Q 2709 3584 3137 3096 
Q 3566 2609 3566 1747 
Q 3566 888 3137 398 
Q 2709 -91 1959 -91 
Q 1206 -91 779 398 
Q 353 888 353 1747 
Q 353 2609 779 3096 
Q 1206 3584 1959 3584 
z
" transform="scale(0.015625)"/>
       <path id="DejaVuSans-75" d="M 544 1381 
L 544 3500 
L 1119 3500 
L 1119 1403 
Q 1119 906 1312 657 
Q 1506 409 1894 409 
Q 2359 409 2629 706 
Q 2900 1003 2900 1516 
L 2900 3500 
L 3475 3500 
L 3475 0 
L 2900 0 
L 2900 538 
Q 2691 219 2414 64 
Q 2138 -91 1772 -91 
Q 1169 -91 856 284 
Q 544 659 544 1381 
z
M 1991 3584 
L 1991 3584 
z
" transform="scale(0.015625)"/>
       <path id="DejaVuSans-73" d="M 2834 3397 
L 2834 2853 
Q 2591 2978 2328 3040 
Q 2066 3103 1784 3103 
Q 1356 3103 1142 2972 
Q 928 2841 928 2578 
Q 928 2378 1081 2264 
Q 1234 2150 1697 2047 
L 1894 2003 
Q 2506 1872 2764 1633 
Q 3022 1394 3022 966 
Q 3022 478 2636 193 
Q 2250 -91 1575 -91 
Q 1294 -91 989 -36 
Q 684 19 347 128 
L 347 722 
Q 666 556 975 473 
Q 1284 391 1588 391 
Q 1994 391 2212 530 
Q 2431 669 2431 922 
Q 2431 1156 2273 1281 
Q 2116 1406 1581 1522 
L 1381 1569 
Q 847 1681 609 1914 
Q 372 2147 372 2553 
Q 372 3047 722 3315 
Q 1072 3584 1716 3584 
Q 2034 3584 2315 3537 
Q 2597 3491 2834 3397 
z
" transform="scale(0.015625)"/>
      </defs>
      <use xlink:href="#DejaVuSans-5b"/>
      <use xlink:href="#DejaVuSans-63" transform="translate(39.013672 0)"/>
      <use xlink:href="#DejaVuSans-6f" transform="translate(93.994141 0)"/>
      <use xlink:href="#DejaVuSans-75" transform="translate(155.175781 0)"/>
      <use xlink:href="#DejaVuSans-6e" transform="translate(218.554688 0)"/>
      <use xlink:href="#DejaVuSans-74" transform="translate(281.933594 0)"/>
      <use xlink:href="#DejaVuSans-73" transform="translate(321.142578 0)"/>
      <use xlink:href="#DejaVuSans-5d" transform="translate(373.242188 0)"/>
     </g>
    </g>
   </g>
   <g id="line2d_14">
    <path d="M 64.461722 246.484315 
L 73.209771 246.484315 
L 73.209771 243.942748 
L 74.95938 243.942748 
L 74.95938 238.351301 
L 76.70899 238.351301 
L 76.70899 231.997384 
L 78.4586 231.997384 
L 78.4586 224.62684 
L 80.208209 224.62684 
L 80.208209 216.493827 
L 81.957819 216.493827 
L 81.957819 204.548463 
L 83.707429 204.548463 
L 83.707429 200.736113 
L 85.457039 200.736113 
L 85.457039 191.840629 
L 87.206648 191.840629 
L 87.206648 180.657735 
L 88.956258 180.657735 
L 88.956258 175.574602 
L 90.705868 175.574602 
L 90.705868 164.900021 
L 92.455477 164.900021 
L 92.455477 149.904777 
L 94.205087 149.904777 
L 94.205087 146.854897 
L 95.954697 146.854897 
L 95.954697 138.467727 
L 97.704306 138.467727 
L 97.704306 131.097183 
L 99.453916 131.097183 
L 99.453916 129.06393 
L 101.203526 129.06393 
L 101.203526 121.185073 
L 102.953136 121.185073 
L 102.953136 120.930916 
L 104.702745 120.930916 
L 104.702745 109.493865 
L 106.452355 109.493865 
L 106.452355 101.360852 
L 108.201965 101.360852 
L 108.201965 114.068686 
L 109.951574 114.068686 
L 109.951574 91.448741 
L 111.701184 91.448741 
L 111.701184 80.265847 
L 113.450794 80.265847 
L 113.450794 89.669645 
L 115.200403 89.669645 
L 115.200403 91.194585 
L 116.950013 91.194585 
L 116.950013 54.08771 
L 118.699623 54.08771 
L 118.699623 69.082954 
L 120.449233 69.082954 
L 120.449233 62.729037 
L 122.198842 62.729037 
L 122.198842 47.987949 
L 123.948452 47.987949 
L 123.948452 61.204097 
L 125.698062 61.204097 
L 125.698062 58.916687 
L 127.447671 58.916687 
L 127.447671 47.225479 
L 129.197281 47.225479 
L 129.197281 50.783673 
L 130.946891 50.783673 
L 130.946891 38.075839 
L 132.696501 38.075839 
L 132.696501 47.987949 
L 134.44611 47.987949 
L 134.44611 61.204097 
L 136.19572 61.204097 
L 136.19572 32.992705 
L 137.94533 32.992705 
L 137.94533 63.491507 
L 139.694939 63.491507 
L 139.694939 64.76229 
L 141.444549 64.76229 
L 141.444549 63.23735 
L 143.194159 63.23735 
L 143.194159 57.90006 
L 144.943768 57.90006 
L 144.943768 72.641147 
L 146.693378 72.641147 
L 146.693378 87.636391 
L 148.442988 87.636391 
L 148.442988 78.995064 
L 150.192598 78.995064 
L 150.192598 77.978437 
L 151.942207 77.978437 
L 151.942207 76.199341 
L 153.691817 76.199341 
L 153.691817 71.116207 
L 155.441427 71.116207 
L 155.441427 85.857294 
L 157.191036 85.857294 
L 157.191036 84.332354 
L 158.940646 84.332354 
L 158.940646 74.420244 
L 160.690256 74.420244 
L 160.690256 84.586511 
L 162.439866 84.586511 
L 162.439866 85.603138 
L 164.189475 85.603138 
L 164.189475 76.707654 
L 165.939085 76.707654 
L 165.939085 82.553258 
L 167.688695 82.553258 
L 167.688695 75.182714 
L 169.438304 75.182714 
L 169.438304 99.835912 
L 171.187914 99.835912 
L 171.187914 98.819285 
L 172.937524 98.819285 
L 172.937524 90.686271 
L 174.687133 90.686271 
L 174.687133 92.211211 
L 176.436743 92.211211 
L 176.436743 96.277718 
L 178.186353 96.277718 
L 178.186353 93.481995 
L 179.935963 93.481995 
L 179.935963 80.520004 
L 181.685572 80.520004 
L 181.685572 86.873921 
L 183.435182 86.873921 
L 183.435182 103.394105 
L 185.184792 103.394105 
L 185.184792 100.090068 
L 186.934401 100.090068 
L 186.934401 95.769405 
L 188.684011 95.769405 
L 188.684011 105.681515 
L 190.433621 105.681515 
L 190.433621 96.277718 
L 192.18323 96.277718 
L 192.18323 100.598382 
L 193.93284 100.598382 
L 193.93284 113.814529 
L 195.68245 113.814529 
L 195.68245 104.664889 
L 197.43206 104.664889 
L 197.43206 110.764649 
L 199.181669 110.764649 
L 199.181669 118.897662 
L 200.931279 118.897662 
L 200.931279 120.676759 
L 202.680889 120.676759 
L 202.680889 126.268206 
L 204.430498 126.268206 
L 204.430498 126.014049 
L 206.180108 126.014049 
L 206.180108 142.78839 
L 207.929718 142.78839 
L 207.929718 132.367966 
L 209.679328 132.367966 
L 209.679328 153.208814 
L 211.428937 153.208814 
L 211.428937 159.054417 
L 213.178547 159.054417 
L 213.178547 165.408334 
L 214.928157 165.408334 
L 214.928157 167.187431 
L 216.677766 167.187431 
L 216.677766 182.182675 
L 218.427376 182.182675 
L 218.427376 188.536592 
L 220.176986 188.536592 
L 220.176986 203.277679 
L 221.926595 203.277679 
L 221.926595 206.32756 
L 223.676205 206.32756 
L 223.676205 217.256297 
L 225.425815 217.256297 
L 225.425815 220.05202 
L 227.175425 220.05202 
L 227.175425 228.693347 
L 228.925034 228.693347 
L 228.925034 227.168407 
L 230.674644 227.168407 
L 230.674644 234.538951 
L 232.424254 234.538951 
L 232.424254 238.859614 
L 234.173863 238.859614 
L 234.173863 242.671964 
L 235.923473 242.671964 
L 235.923473 244.451061 
L 237.673083 244.451061 
L 237.673083 238.097144 
L 239.422693 238.097144 
L 239.422693 232.251541 
L 241.172302 232.251541 
L 241.172302 230.980757 
L 242.921912 230.980757 
L 242.921912 224.372684 
L 244.671522 224.372684 
L 244.671522 209.123283 
L 246.421131 209.123283 
L 246.421131 208.869126 
L 248.170741 208.869126 
L 248.170741 199.719486 
L 249.920351 199.719486 
L 249.920351 198.957016 
L 251.66996 198.957016 
L 251.66996 197.432076 
L 253.41957 197.432076 
L 253.41957 191.332316 
L 255.16918 191.332316 
L 255.16918 186.503339 
L 256.91879 186.503339 
L 256.91879 169.220685 
L 258.668399 169.220685 
L 258.668399 168.204058 
L 260.418009 168.204058 
L 260.418009 167.441588 
L 262.167619 167.441588 
L 262.167619 171.762251 
L 263.917228 171.762251 
L 263.917228 161.341828 
L 265.666838 161.341828 
L 265.666838 151.429717 
L 267.416448 151.429717 
L 267.416448 157.021164 
L 269.166057 157.021164 
L 269.166057 146.092427 
L 270.915667 146.092427 
L 270.915667 150.921404 
L 272.665277 150.921404 
L 272.665277 145.83827 
L 274.414887 145.83827 
L 274.414887 142.78839 
L 276.164496 142.78839 
L 276.164496 133.63875 
L 277.914106 133.63875 
L 277.914106 136.68863 
L 279.663716 136.68863 
L 279.663716 134.909533 
L 281.413325 134.909533 
L 281.413325 134.40122 
L 283.162935 134.40122 
L 283.162935 128.555616 
L 284.912545 128.555616 
L 284.912545 119.405976 
L 286.662155 119.405976 
L 286.662155 111.018805 
L 288.411764 111.018805 
L 288.411764 109.748022 
L 290.161374 109.748022 
L 290.161374 114.322842 
L 291.910984 114.322842 
L 291.910984 109.239709 
L 293.660593 109.239709 
L 293.660593 114.322842 
L 295.410203 114.322842 
L 295.410203 111.527119 
L 297.159813 111.527119 
L 297.159813 115.593626 
L 298.909422 115.593626 
L 298.909422 124.489109 
L 300.659032 124.489109 
L 300.659032 121.693386 
L 302.408642 121.693386 
L 302.408642 124.997423 
L 304.158252 124.997423 
L 304.158252 121.947543 
L 305.907861 121.947543 
L 305.907861 143.805017 
L 307.657471 143.805017 
L 307.657471 120.168446 
L 309.407081 120.168446 
L 309.407081 136.68863 
L 311.15669 136.68863 
L 311.15669 133.130436 
L 312.9063 133.130436 
L 312.9063 134.40122 
L 314.65591 134.40122 
L 314.65591 125.251579 
L 316.405519 125.251579 
L 316.405519 141.771763 
L 318.155129 141.771763 
L 318.155129 141.009293 
L 319.904739 141.009293 
L 319.904739 142.534233 
L 321.654349 142.534233 
L 321.654349 147.617367 
L 323.403958 147.617367 
L 323.403958 150.921404 
L 325.153568 150.921404 
L 325.153568 142.02592 
L 326.903178 142.02592 
L 326.903178 141.26345 
L 328.652787 141.26345 
L 328.652787 157.529477 
L 330.402397 157.529477 
L 330.402397 156.258694 
L 332.152007 156.258694 
L 332.152007 151.938031 
L 333.901617 151.938031 
L 333.901617 158.037791 
L 335.651226 158.037791 
L 335.651226 152.446344 
L 337.400836 152.446344 
L 337.400836 168.966528 
L 339.150446 168.966528 
L 339.150446 166.933274 
L 340.900055 166.933274 
L 340.900055 161.087671 
L 342.649665 161.087671 
L 342.649665 163.375081 
L 344.399275 163.375081 
L 344.399275 165.408334 
L 346.148884 165.408334 
L 346.148884 159.816888 
L 347.898494 159.816888 
L 347.898494 176.082915 
L 349.648104 176.082915 
L 349.648104 169.220685 
L 351.397714 169.220685 
L 351.397714 177.099542 
L 353.147323 177.099542 
L 353.147323 181.928518 
L 354.896933 181.928518 
L 354.896933 175.574602 
L 356.646543 175.574602 
L 356.646543 190.315689 
L 358.396152 190.315689 
L 358.396152 179.386952 
L 360.145762 179.386952 
L 360.145762 186.249182 
L 361.895372 186.249182 
L 361.895372 195.652979 
L 363.644982 195.652979 
L 363.644982 191.840629 
L 365.394591 191.840629 
L 365.394591 194.382196 
L 367.144201 194.382196 
L 367.144201 201.498583 
L 368.893811 201.498583 
L 368.893811 195.398822 
L 370.64342 195.398822 
L 370.64342 199.465329 
L 372.39303 199.465329 
L 372.39303 205.565089 
L 374.14264 205.565089 
L 374.14264 209.123283 
L 375.892249 209.123283 
L 375.892249 214.206417 
L 377.641859 214.206417 
L 377.641859 215.985513 
L 379.391469 215.985513 
L 379.391469 222.593587 
L 381.141079 222.593587 
L 381.141079 224.62684 
L 382.890688 224.62684 
L 382.890688 227.168407 
L 384.640298 227.168407 
L 384.640298 230.980757 
L 386.389908 230.980757 
L 386.389908 232.759854 
L 388.139517 232.759854 
L 388.139517 233.268167 
L 389.889127 233.268167 
L 389.889127 236.063891 
L 391.638737 236.063891 
L 391.638737 238.097144 
L 393.388347 238.097144 
L 393.388347 240.130398 
L 395.137956 240.130398 
L 395.137956 243.688591 
L 396.887566 243.688591 
L 396.887566 244.196904 
L 398.637176 244.196904 
L 398.637176 243.434434 
L 400.386785 243.434434 
L 400.386785 244.196904 
L 402.136395 244.196904 
L 402.136395 245.467688 
L 403.886005 245.467688 
L 403.886005 245.721845 
L 405.635614 245.721845 
L 405.635614 246.484315 
L 414.383663 246.484315 
L 414.383663 246.484315 
" clip-path="url(#p9a41dd5f6d)" style="fill: none; stroke: #1f77b4; stroke-width: 1.5; stroke-linecap: square"/>
   </g>
   <g id="line2d_15">
    <path d="M 64.461722 246.484315 
L 73.209771 246.484315 
L 73.209771 243.688591 
L 74.95938 243.688591 
L 74.95938 238.859614 
L 76.70899 238.859614 
L 76.70899 231.997384 
L 78.4586 231.997384 
L 78.4586 223.86437 
L 80.208209 223.86437 
L 80.208209 217.76461 
L 81.957819 217.76461 
L 81.957819 203.785993 
L 83.707429 203.785993 
L 83.707429 200.481956 
L 85.457039 200.481956 
L 85.457039 191.840629 
L 87.206648 191.840629 
L 87.206648 179.895265 
L 88.956258 179.895265 
L 88.956258 176.591228 
L 90.705868 176.591228 
L 90.705868 161.850141 
L 92.455477 161.850141 
L 92.455477 151.683874 
L 94.205087 151.683874 
L 94.205087 148.379837 
L 95.954697 148.379837 
L 95.954697 138.721883 
L 97.704306 138.721883 
L 97.704306 131.35134 
L 99.453916 131.35134 
L 99.453916 123.472483 
L 101.203526 123.472483 
L 101.203526 124.997423 
L 102.953136 124.997423 
L 102.953136 123.726639 
L 104.702745 123.726639 
L 104.702745 100.344225 
L 106.452355 100.344225 
L 106.452355 113.052059 
L 108.201965 113.052059 
L 108.201965 115.847782 
L 109.951574 115.847782 
L 109.951574 82.553258 
L 111.701184 82.553258 
L 111.701184 81.028317 
L 113.450794 81.028317 
L 113.450794 89.415488 
L 115.200403 89.415488 
L 115.200403 90.940428 
L 116.950013 90.940428 
L 116.950013 58.66253 
L 118.699623 58.66253 
L 118.699623 63.23735 
L 120.449233 63.23735 
L 120.449233 62.220723 
L 122.198842 62.220723 
L 122.198842 49.512889 
L 123.948452 49.512889 
L 123.948452 62.729037 
L 125.698062 62.729037 
L 125.698062 56.629276 
L 127.447671 56.629276 
L 127.447671 48.242106 
L 129.197281 48.242106 
L 129.197281 49.767046 
L 130.946891 49.767046 
L 130.946891 44.175599 
L 132.696501 44.175599 
L 132.696501 39.854936 
L 134.44611 39.854936 
L 134.44611 54.596023 
L 136.19572 54.596023 
L 136.19572 49.512889 
L 137.94533 49.512889 
L 137.94533 62.220723 
L 139.694939 62.220723 
L 139.694939 57.90006 
L 141.444549 57.90006 
L 141.444549 65.778917 
L 143.194159 65.778917 
L 143.194159 58.154217 
L 144.943768 58.154217 
L 144.943768 81.536631 
L 146.693378 81.536631 
L 146.693378 74.928557 
L 148.442988 74.928557 
L 148.442988 81.282474 
L 150.192598 81.282474 
L 150.192598 78.740907 
L 151.942207 78.740907 
L 151.942207 85.348981 
L 153.691817 85.348981 
L 153.691817 65.52476 
L 155.441427 65.52476 
L 155.441427 81.536631 
L 157.191036 81.536631 
L 157.191036 83.824041 
L 158.940646 83.824041 
L 158.940646 78.995064 
L 162.439866 78.995064 
L 162.439866 87.890548 
L 164.189475 87.890548 
L 164.189475 76.453497 
L 165.939085 76.453497 
L 165.939085 82.553258 
L 167.688695 82.553258 
L 167.688695 85.857294 
L 169.438304 85.857294 
L 169.438304 96.277718 
L 171.187914 96.277718 
L 171.187914 98.056815 
L 172.937524 98.056815 
L 172.937524 93.481995 
L 174.687133 93.481995 
L 174.687133 87.890548 
L 176.436743 87.890548 
L 176.436743 95.261091 
L 178.186353 95.261091 
L 178.186353 87.128078 
L 179.935963 87.128078 
L 179.935963 78.995064 
L 181.685572 78.995064 
L 181.685572 90.686271 
L 183.435182 90.686271 
L 183.435182 105.935672 
L 185.184792 105.935672 
L 185.184792 95.515248 
L 186.934401 95.515248 
L 186.934401 105.427359 
L 188.684011 105.427359 
L 188.684011 99.073442 
L 190.433621 99.073442 
L 190.433621 95.261091 
L 192.18323 95.261091 
L 192.18323 112.543746 
L 193.93284 112.543746 
L 193.93284 104.156575 
L 195.68245 104.156575 
L 195.68245 104.664889 
L 197.43206 104.664889 
L 197.43206 112.543746 
L 199.181669 112.543746 
L 199.181669 117.881036 
L 200.931279 117.881036 
L 200.931279 116.356096 
L 202.680889 116.356096 
L 202.680889 128.809773 
L 204.430498 128.809773 
L 204.430498 134.909533 
L 206.180108 134.909533 
L 206.180108 141.771763 
L 207.929718 141.771763 
L 207.929718 129.06393 
L 209.679328 129.06393 
L 209.679328 152.446344 
L 211.428937 152.446344 
L 211.428937 156.004537 
L 213.178547 156.004537 
L 213.178547 165.916648 
L 214.928157 165.916648 
L 214.928157 169.983155 
L 216.677766 169.983155 
L 216.677766 179.895265 
L 218.427376 179.895265 
L 218.427376 192.348942 
L 220.176986 192.348942 
L 220.176986 200.990269 
L 221.926595 200.990269 
L 221.926595 205.565089 
L 223.676205 205.565089 
L 223.676205 216.747983 
L 225.425815 216.747983 
L 225.425815 219.035393 
L 227.175425 219.035393 
L 227.175425 226.91425 
L 228.925034 226.91425 
L 228.925034 229.709974 
L 230.674644 229.709974 
L 230.674644 234.030637 
L 232.424254 234.030637 
L 232.424254 238.859614 
L 234.173863 238.859614 
L 234.173863 242.417808 
L 235.923473 242.417808 
L 235.923473 243.942748 
L 237.673083 243.942748 
L 237.673083 237.842988 
L 239.422693 237.842988 
L 239.422693 232.759854 
L 241.172302 232.759854 
L 241.172302 230.218287 
L 242.921912 230.218287 
L 242.921912 224.372684 
L 244.671522 224.372684 
L 244.671522 209.885753 
L 246.421131 209.885753 
L 246.421131 210.648223 
L 248.170741 210.648223 
L 248.170741 197.940389 
L 249.920351 197.940389 
L 249.920351 197.432076 
L 251.66996 197.432076 
L 251.66996 197.177919 
L 253.41957 197.177919 
L 253.41957 194.636352 
L 255.16918 194.636352 
L 255.16918 183.453459 
L 256.91879 183.453459 
L 256.91879 172.270565 
L 258.668399 172.270565 
L 258.668399 165.662491 
L 260.418009 165.662491 
L 260.418009 166.170804 
L 262.167619 166.170804 
L 262.167619 170.237311 
L 263.917228 170.237311 
L 263.917228 161.595984 
L 265.666838 161.595984 
L 265.666838 154.987911 
L 267.416448 154.987911 
L 267.416448 157.783634 
L 269.166057 157.783634 
L 269.166057 145.329957 
L 270.915667 145.329957 
L 270.915667 152.700501 
L 272.665277 152.700501 
L 272.665277 145.83827 
L 274.414887 145.83827 
L 274.414887 139.992667 
L 276.164496 139.992667 
L 276.164496 130.58887 
L 277.914106 130.58887 
L 277.914106 136.68863 
L 279.663716 136.68863 
L 279.663716 134.40122 
L 281.413325 134.40122 
L 281.413325 136.68863 
L 283.162935 136.68863 
L 283.162935 131.35134 
L 284.912545 131.35134 
L 284.912545 115.847782 
L 286.662155 115.847782 
L 286.662155 113.306216 
L 288.411764 113.306216 
L 288.411764 111.527119 
L 290.161374 111.527119 
L 290.161374 115.085312 
L 291.910984 115.085312 
L 291.910984 109.239709 
L 293.660593 109.239709 
L 293.660593 115.339469 
L 295.410203 115.339469 
L 295.410203 116.101939 
L 297.159813 116.101939 
L 297.159813 111.272962 
L 298.909422 111.272962 
L 298.909422 118.135192 
L 300.659032 118.135192 
L 300.659032 126.776519 
L 302.408642 126.776519 
L 302.408642 118.135192 
L 304.158252 118.135192 
L 304.158252 134.655376 
L 305.907861 134.655376 
L 305.907861 133.130436 
L 307.657471 133.130436 
L 307.657471 128.809773 
L 309.407081 128.809773 
L 309.407081 134.147063 
L 311.15669 134.147063 
L 311.15669 130.843026 
L 312.9063 130.843026 
L 312.9063 128.047303 
L 314.65591 128.047303 
L 314.65591 133.130436 
L 316.405519 133.130436 
L 316.405519 139.992667 
L 318.155129 139.992667 
L 318.155129 137.705257 
L 319.904739 137.705257 
L 319.904739 147.871524 
L 321.654349 147.871524 
L 321.654349 144.821644 
L 323.403958 144.821644 
L 323.403958 146.346584 
L 325.153568 146.346584 
L 325.153568 149.65062 
L 326.903178 149.65062 
L 326.903178 147.617367 
L 328.652787 147.617367 
L 328.652787 148.88815 
L 330.402397 148.88815 
L 330.402397 147.617367 
L 332.152007 147.617367 
L 332.152007 162.612611 
L 333.901617 162.612611 
L 333.901617 152.954657 
L 335.651226 152.954657 
L 335.651226 158.037791 
L 337.400836 158.037791 
L 337.400836 164.137551 
L 339.150446 164.137551 
L 339.150446 173.033035 
L 340.900055 173.033035 
L 340.900055 158.037791 
L 342.649665 158.037791 
L 342.649665 166.424961 
L 344.399275 166.424961 
L 344.399275 160.833514 
L 346.148884 160.833514 
L 346.148884 160.071044 
L 347.898494 160.071044 
L 347.898494 172.016408 
L 349.648104 172.016408 
L 349.648104 171.762251 
L 351.397714 171.762251 
L 351.397714 180.657735 
L 353.147323 180.657735 
L 353.147323 180.911892 
L 354.896933 180.911892 
L 354.896933 178.878638 
L 356.646543 178.878638 
L 356.646543 184.724242 
L 358.396152 184.724242 
L 358.396152 178.624482 
L 360.145762 178.624482 
L 360.145762 191.586472 
L 361.895372 191.586472 
L 361.895372 192.094786 
L 363.644982 192.094786 
L 363.644982 191.332316 
L 365.394591 191.332316 
L 365.394591 197.686232 
L 367.144201 197.686232 
L 367.144201 194.128039 
L 368.893811 194.128039 
L 368.893811 203.023523 
L 370.64342 203.023523 
L 370.64342 195.652979 
L 372.39303 195.652979 
L 372.39303 206.835873 
L 374.14264 206.835873 
L 374.14264 206.32756 
L 375.892249 206.32756 
L 375.892249 214.71473 
L 377.641859 214.71473 
L 377.641859 218.272923 
L 379.391469 218.272923 
L 379.391469 220.306177 
L 381.141079 220.306177 
L 381.141079 226.660094 
L 382.890688 226.660094 
L 382.890688 227.168407 
L 384.640298 227.168407 
L 384.640298 232.759854 
L 386.389908 232.759854 
L 386.389908 230.980757 
L 388.139517 230.980757 
L 388.139517 232.505697 
L 389.889127 232.505697 
L 389.889127 237.080517 
L 391.638737 237.080517 
L 391.638737 238.351301 
L 393.388347 238.351301 
L 393.388347 239.876241 
L 395.137956 239.876241 
L 395.137956 243.688591 
L 396.887566 243.688591 
L 396.887566 243.942748 
L 398.637176 243.942748 
L 398.637176 243.688591 
L 400.386785 243.688591 
L 400.386785 243.942748 
L 402.136395 243.942748 
L 402.136395 245.213531 
L 403.886005 245.213531 
L 403.886005 245.721845 
L 405.635614 245.721845 
L 405.635614 246.484315 
L 414.383663 246.484315 
L 414.383663 246.484315 
" clip-path="url(#p9a41dd5f6d)" style="fill: none; stroke: #ff7f0e; stroke-width: 1.5; stroke-linecap: square"/>
   </g>
   <g id="patch_3">
    <path d="M 46.965625 257.158895 
L 46.965625 22.318125 
" style="fill: none; stroke: #000000; stroke-width: 0.8; stroke-linejoin: miter; stroke-linecap: square"/>
   </g>
   <g id="patch_4">
    <path d="M 431.87976 257.158895 
L 431.87976 22.318125 
" style="fill: none; stroke: #000000; stroke-width: 0.8; stroke-linejoin: miter; stroke-linecap: square"/>
   </g>
   <g id="patch_5">
    <path d="M 46.965625 257.158895 
L 431.87976 257.158895 
" style="fill: none; stroke: #000000; stroke-width: 0.8; stroke-linejoin: miter; stroke-linecap: square"/>
   </g>
   <g id="patch_6">
    <path d="M 46.965625 22.318125 
L 431.87976 22.318125 
" style="fill: none; stroke: #000000; stroke-width: 0.8; stroke-linejoin: miter; stroke-linecap: square"/>
   </g>
   <g id="text_16">
    <!-- Pixel 1 -->
    <g transform="translate(219.82613 16.318125) scale(0.12 -0.12)">
     <defs>
      <path id="DejaVuSans-50" d="M 1259 4147 
L 1259 2394 
L 2053 2394 
Q 2494 2394 2734 2622 
Q 2975 2850 2975 3272 
Q 2975 3691 2734 3919 
Q 2494 4147 2053 4147 
L 1259 4147 
z
M 628 4666 
L 2053 4666 
Q 2838 4666 3239 4311 
Q 3641 3956 3641 3272 
Q 3641 2581 3239 2228 
Q 2838 1875 2053 1875 
L 1259 1875 
L 1259 0 
L 628 0 
L 628 4666 
z
" transform="scale(0.015625)"/>
      <path id="DejaVuSans-69" d="M 603 3500 
L 1178 3500 
L 1178 0 
L 603 0 
L 603 3500 
z
M 603 4863 
L 1178 4863 
L 1178 4134 
L 603 4134 
L 603 4863 
z
" transform="scale(0.015625)"/>
      <path id="DejaVuSans-78" d="M 3513 3500 
L 2247 1797 
L 3578 0 
L 2900 0 
L 1881 1375 
L 863 0 
L 184 0 
L 1544 1831 
L 300 3500 
L 978 3500 
L 1906 2253 
L 2834 3500 
L 3513 3500 
z
" transform="scale(0.015625)"/>
     </defs>
     <use xlink:href="#DejaVuSans-50"/>
     <use xlink:href="#DejaVuSans-69" transform="translate(58.052734 0)"/>
     <use xlink:href="#DejaVuSans-78" transform="translate(85.835938 0)"/>
     <use xlink:href="#DejaVuSans-65" transform="translate(141.890625 0)"/>
     <use xlink:href="#DejaVuSans-6c" transform="translate(203.414062 0)"/>
     <use xlink:href="#DejaVuSans-20" transform="translate(231.197266 0)"/>
     <use xlink:href="#DejaVuSans-31" transform="translate(262.984375 0)"/>
    </g>
   </g>
   <g id="legend_1">
    <g id="patch_7">
     <path d="M 327.876635 59.9525 
L 424.87976 59.9525 
Q 426.87976 59.9525 426.87976 57.9525 
L 426.87976 29.318125 
Q 426.87976 27.318125 424.87976 27.318125 
L 327.876635 27.318125 
Q 325.876635 27.318125 325.876635 29.318125 
L 325.876635 57.9525 
Q 325.876635 59.9525 327.876635 59.9525 
z
" style="fill: #ffffff; opacity: 0.8; stroke: #cccccc; stroke-linejoin: miter"/>
    </g>
    <g id="line2d_16">
     <path d="M 329.876635 35.416562 
L 329.876635 35.416562 
L 339.876635 35.416562 
L 339.876635 35.416562 
L 349.876635 35.416562 
" style="fill: none; stroke: #1f77b4; stroke-width: 1.5; stroke-linecap: square"/>
    </g>
    <g id="text_17">
     <!-- wfm -->
     <g transform="translate(357.876635 38.916562) scale(0.1 -0.1)">
      <defs>
       <path id="DejaVuSans-66" d="M 2375 4863 
L 2375 4384 
L 1825 4384 
Q 1516 4384 1395 4259 
Q 1275 4134 1275 3809 
L 1275 3500 
L 2222 3500 
L 2222 3053 
L 1275 3053 
L 1275 0 
L 697 0 
L 697 3053 
L 147 3053 
L 147 3500 
L 697 3500 
L 697 3744 
Q 697 4328 969 4595 
Q 1241 4863 1831 4863 
L 2375 4863 
z
" transform="scale(0.015625)"/>
       <path id="DejaVuSans-6d" d="M 3328 2828 
Q 3544 3216 3844 3400 
Q 4144 3584 4550 3584 
Q 5097 3584 5394 3201 
Q 5691 2819 5691 2113 
L 5691 0 
L 5113 0 
L 5113 2094 
Q 5113 2597 4934 2840 
Q 4756 3084 4391 3084 
Q 3944 3084 3684 2787 
Q 3425 2491 3425 1978 
L 3425 0 
L 2847 0 
L 2847 2094 
Q 2847 2600 2669 2842 
Q 2491 3084 2119 3084 
Q 1678 3084 1418 2786 
Q 1159 2488 1159 1978 
L 1159 0 
L 581 0 
L 581 3500 
L 1159 3500 
L 1159 2956 
Q 1356 3278 1631 3431 
Q 1906 3584 2284 3584 
Q 2666 3584 2933 3390 
Q 3200 3197 3328 2828 
z
" transform="scale(0.015625)"/>
      </defs>
      <use xlink:href="#DejaVuSans-77"/>
      <use xlink:href="#DejaVuSans-66" transform="translate(81.787109 0)"/>
      <use xlink:href="#DejaVuSans-6d" transform="translate(116.992188 0)"/>
     </g>
    </g>
    <g id="line2d_17">
     <path d="M 329.876635 50.094687 
L 329.876635 50.094687 
L 339.876635 50.094687 
L 339.876635 50.094687 
L 349.876635 50.094687 
" style="fill: none; stroke: #ff7f0e; stroke-width: 1.5; stroke-linecap: square"/>
    </g>
    <g id="text_18">
     <!-- ground_truth -->
     <g transform="translate(357.876635 53.594687) scale(0.1 -0.1)">
      <defs>
       <path id="DejaVuSans-72" d="M 2631 2963 
Q 2534 3019 2420 3045 
Q 2306 3072 2169 3072 
Q 1681 3072 1420 2755 
Q 1159 2438 1159 1844 
L 1159 0 
L 581 0 
L 581 3500 
L 1159 3500 
L 1159 2956 
Q 1341 3275 1631 3429 
Q 1922 3584 2338 3584 
Q 2397 3584 2469 3576 
Q 2541 3569 2628 3553 
L 2631 2963 
z
" transform="scale(0.015625)"/>
       <path id="DejaVuSans-64" d="M 2906 2969 
L 2906 4863 
L 3481 4863 
L 3481 0 
L 2906 0 
L 2906 525 
Q 2725 213 2448 61 
Q 2172 -91 1784 -91 
Q 1150 -91 751 415 
Q 353 922 353 1747 
Q 353 2572 751 3078 
Q 1150 3584 1784 3584 
Q 2172 3584 2448 3432 
Q 2725 3281 2906 2969 
z
M 947 1747 
Q 947 1113 1208 752 
Q 1469 391 1925 391 
Q 2381 391 2643 752 
Q 2906 1113 2906 1747 
Q 2906 2381 2643 2742 
Q 2381 3103 1925 3103 
Q 1469 3103 1208 2742 
Q 947 2381 947 1747 
z
" transform="scale(0.015625)"/>
       <path id="DejaVuSans-5f" d="M 3263 -1063 
L 3263 -1509 
L -63 -1509 
L -63 -1063 
L 3263 -1063 
z
" transform="scale(0.015625)"/>
      </defs>
      <use xlink:href="#DejaVuSans-67"/>
      <use xlink:href="#DejaVuSans-72" transform="translate(63.476562 0)"/>
      <use xlink:href="#DejaVuSans-6f" transform="translate(102.339844 0)"/>
      <use xlink:href="#DejaVuSans-75" transform="translate(163.521484 0)"/>
      <use xlink:href="#DejaVuSans-6e" transform="translate(226.900391 0)"/>
      <use xlink:href="#DejaVuSans-64" transform="translate(290.279297 0)"/>
      <use xlink:href="#DejaVuSans-5f" transform="translate(353.755859 0)"/>
      <use xlink:href="#DejaVuSans-74" transform="translate(403.755859 0)"/>
      <use xlink:href="#DejaVuSans-72" transform="translate(442.964844 0)"/>
      <use xlink:href="#DejaVuSans-75" transform="translate(484.078125 0)"/>
      <use xlink:href="#DejaVuSans-74" transform="translate(547.457031 0)"/>
      <use xlink:href="#DejaVuSans-68" transform="translate(586.666016 0)"/>
     </g>
    </g>
   </g>
  </g>
  <g id="axes_2">
   <g id="patch_8">
    <path d="M 480.285385 257.158895 
L 865.19952 257.158895 
L 865.19952 22.318125 
L 480.285385 22.318125 
z
" style="fill: #ffffff"/>
   </g>
   <g id="matplotlib.axis_3">
    <g id="xtick_9">
     <g id="line2d_18">
      <g>
       <use xlink:href="#m465b2169ad" x="516.198426" y="257.158895" style="stroke: #000000; stroke-width: 0.8"/>
      </g>
     </g>
     <g id="text_19">
      <!-- 1.0 -->
      <g transform="translate(508.246864 271.757332) scale(0.1 -0.1)">
       <use xlink:href="#DejaVuSans-31"/>
       <use xlink:href="#DejaVuSans-2e" transform="translate(63.623047 0)"/>
       <use xlink:href="#DejaVuSans-30" transform="translate(95.410156 0)"/>
      </g>
     </g>
    </g>
    <g id="xtick_10">
     <g id="line2d_19">
      <g>
       <use xlink:href="#m465b2169ad" x="562.240787" y="257.158895" style="stroke: #000000; stroke-width: 0.8"/>
      </g>
     </g>
     <g id="text_20">
      <!-- 1.5 -->
      <g transform="translate(554.289224 271.757332) scale(0.1 -0.1)">
       <use xlink:href="#DejaVuSans-31"/>
       <use xlink:href="#DejaVuSans-2e" transform="translate(63.623047 0)"/>
       <use xlink:href="#DejaVuSans-35" transform="translate(95.410156 0)"/>
      </g>
     </g>
    </g>
    <g id="xtick_11">
     <g id="line2d_20">
      <g>
       <use xlink:href="#m465b2169ad" x="608.283148" y="257.158895" style="stroke: #000000; stroke-width: 0.8"/>
      </g>
     </g>
     <g id="text_21">
      <!-- 2.0 -->
      <g transform="translate(600.331585 271.757332) scale(0.1 -0.1)">
       <use xlink:href="#DejaVuSans-32"/>
       <use xlink:href="#DejaVuSans-2e" transform="translate(63.623047 0)"/>
       <use xlink:href="#DejaVuSans-30" transform="translate(95.410156 0)"/>
      </g>
     </g>
    </g>
    <g id="xtick_12">
     <g id="line2d_21">
      <g>
       <use xlink:href="#m465b2169ad" x="654.325508" y="257.158895" style="stroke: #000000; stroke-width: 0.8"/>
      </g>
     </g>
     <g id="text_22">
      <!-- 2.5 -->
      <g transform="translate(646.373946 271.757332) scale(0.1 -0.1)">
       <use xlink:href="#DejaVuSans-32"/>
       <use xlink:href="#DejaVuSans-2e" transform="translate(63.623047 0)"/>
       <use xlink:href="#DejaVuSans-35" transform="translate(95.410156 0)"/>
      </g>
     </g>
    </g>
    <g id="xtick_13">
     <g id="line2d_22">
      <g>
       <use xlink:href="#m465b2169ad" x="700.367869" y="257.158895" style="stroke: #000000; stroke-width: 0.8"/>
      </g>
     </g>
     <g id="text_23">
      <!-- 3.0 -->
      <g transform="translate(692.416306 271.757332) scale(0.1 -0.1)">
       <use xlink:href="#DejaVuSans-33"/>
       <use xlink:href="#DejaVuSans-2e" transform="translate(63.623047 0)"/>
       <use xlink:href="#DejaVuSans-30" transform="translate(95.410156 0)"/>
      </g>
     </g>
    </g>
    <g id="xtick_14">
     <g id="line2d_23">
      <g>
       <use xlink:href="#m465b2169ad" x="746.41023" y="257.158895" style="stroke: #000000; stroke-width: 0.8"/>
      </g>
     </g>
     <g id="text_24">
      <!-- 3.5 -->
      <g transform="translate(738.458667 271.757332) scale(0.1 -0.1)">
       <use xlink:href="#DejaVuSans-33"/>
       <use xlink:href="#DejaVuSans-2e" transform="translate(63.623047 0)"/>
       <use xlink:href="#DejaVuSans-35" transform="translate(95.410156 0)"/>
      </g>
     </g>
    </g>
    <g id="xtick_15">
     <g id="line2d_24">
      <g>
       <use xlink:href="#m465b2169ad" x="792.45259" y="257.158895" style="stroke: #000000; stroke-width: 0.8"/>
      </g>
     </g>
     <g id="text_25">
      <!-- 4.0 -->
      <g transform="translate(784.501028 271.757332) scale(0.1 -0.1)">
       <use xlink:href="#DejaVuSans-34"/>
       <use xlink:href="#DejaVuSans-2e" transform="translate(63.623047 0)"/>
       <use xlink:href="#DejaVuSans-30" transform="translate(95.410156 0)"/>
      </g>
     </g>
    </g>
    <g id="xtick_16">
     <g id="line2d_25">
      <g>
       <use xlink:href="#m465b2169ad" x="838.494951" y="257.158895" style="stroke: #000000; stroke-width: 0.8"/>
      </g>
     </g>
     <g id="text_26">
      <!-- 4.5 -->
      <g transform="translate(830.543388 271.757332) scale(0.1 -0.1)">
       <use xlink:href="#DejaVuSans-34"/>
       <use xlink:href="#DejaVuSans-2e" transform="translate(63.623047 0)"/>
       <use xlink:href="#DejaVuSans-35" transform="translate(95.410156 0)"/>
      </g>
     </g>
    </g>
    <g id="text_27">
     <!-- wavelength [Å] -->
     <g transform="translate(634.704952 287.119832) scale(0.1 -0.1)">
      <use xlink:href="#DejaVuSans-77"/>
      <use xlink:href="#DejaVuSans-61" transform="translate(81.787109 0)"/>
      <use xlink:href="#DejaVuSans-76" transform="translate(143.066406 0)"/>
      <use xlink:href="#DejaVuSans-65" transform="translate(202.246094 0)"/>
      <use xlink:href="#DejaVuSans-6c" transform="translate(263.769531 0)"/>
      <use xlink:href="#DejaVuSans-65" transform="translate(291.552734 0)"/>
      <use xlink:href="#DejaVuSans-6e" transform="translate(353.076172 0)"/>
      <use xlink:href="#DejaVuSans-67" transform="translate(416.455078 0)"/>
      <use xlink:href="#DejaVuSans-74" transform="translate(479.931641 0)"/>
      <use xlink:href="#DejaVuSans-68" transform="translate(519.140625 0)"/>
      <use xlink:href="#DejaVuSans-20" transform="translate(582.519531 0)"/>
      <use xlink:href="#DejaVuSans-5b" transform="translate(614.306641 0)"/>
      <use xlink:href="#DejaVuSans-c5" transform="translate(653.320312 0)"/>
      <use xlink:href="#DejaVuSans-5d" transform="translate(721.728516 0)"/>
     </g>
    </g>
   </g>
   <g id="matplotlib.axis_4">
    <g id="ytick_6">
     <g id="line2d_26">
      <g>
       <use xlink:href="#m3981d6be1c" x="480.285385" y="246.484315" style="stroke: #000000; stroke-width: 0.8"/>
      </g>
     </g>
     <g id="text_28">
      <!-- 0 -->
      <g transform="translate(466.922885 250.283533) scale(0.1 -0.1)">
       <use xlink:href="#DejaVuSans-30"/>
      </g>
     </g>
    </g>
    <g id="ytick_7">
     <g id="line2d_27">
      <g>
       <use xlink:href="#m3981d6be1c" x="480.285385" y="194.728773" style="stroke: #000000; stroke-width: 0.8"/>
      </g>
     </g>
     <g id="text_29">
      <!-- 200 -->
      <g transform="translate(454.197885 198.527992) scale(0.1 -0.1)">
       <use xlink:href="#DejaVuSans-32"/>
       <use xlink:href="#DejaVuSans-30" transform="translate(63.623047 0)"/>
       <use xlink:href="#DejaVuSans-30" transform="translate(127.246094 0)"/>
      </g>
     </g>
    </g>
    <g id="ytick_8">
     <g id="line2d_28">
      <g>
       <use xlink:href="#m3981d6be1c" x="480.285385" y="142.973231" style="stroke: #000000; stroke-width: 0.8"/>
      </g>
     </g>
     <g id="text_30">
      <!-- 400 -->
      <g transform="translate(454.197885 146.77245) scale(0.1 -0.1)">
       <use xlink:href="#DejaVuSans-34"/>
       <use xlink:href="#DejaVuSans-30" transform="translate(63.623047 0)"/>
       <use xlink:href="#DejaVuSans-30" transform="translate(127.246094 0)"/>
      </g>
     </g>
    </g>
    <g id="ytick_9">
     <g id="line2d_29">
      <g>
       <use xlink:href="#m3981d6be1c" x="480.285385" y="91.21769" style="stroke: #000000; stroke-width: 0.8"/>
      </g>
     </g>
     <g id="text_31">
      <!-- 600 -->
      <g transform="translate(454.197885 95.016909) scale(0.1 -0.1)">
       <use xlink:href="#DejaVuSans-36"/>
       <use xlink:href="#DejaVuSans-30" transform="translate(63.623047 0)"/>
       <use xlink:href="#DejaVuSans-30" transform="translate(127.246094 0)"/>
      </g>
     </g>
    </g>
    <g id="ytick_10">
     <g id="line2d_30">
      <g>
       <use xlink:href="#m3981d6be1c" x="480.285385" y="39.462148" style="stroke: #000000; stroke-width: 0.8"/>
      </g>
     </g>
     <g id="text_32">
      <!-- 800 -->
      <g transform="translate(454.197885 43.261367) scale(0.1 -0.1)">
       <use xlink:href="#DejaVuSans-38"/>
       <use xlink:href="#DejaVuSans-30" transform="translate(63.623047 0)"/>
       <use xlink:href="#DejaVuSans-30" transform="translate(127.246094 0)"/>
      </g>
     </g>
    </g>
    <g id="text_33">
     <!-- [counts] -->
     <g transform="translate(448.118198 160.35101) rotate(-90) scale(0.1 -0.1)">
      <use xlink:href="#DejaVuSans-5b"/>
      <use xlink:href="#DejaVuSans-63" transform="translate(39.013672 0)"/>
      <use xlink:href="#DejaVuSans-6f" transform="translate(93.994141 0)"/>
      <use xlink:href="#DejaVuSans-75" transform="translate(155.175781 0)"/>
      <use xlink:href="#DejaVuSans-6e" transform="translate(218.554688 0)"/>
      <use xlink:href="#DejaVuSans-74" transform="translate(281.933594 0)"/>
      <use xlink:href="#DejaVuSans-73" transform="translate(321.142578 0)"/>
      <use xlink:href="#DejaVuSans-5d" transform="translate(373.242188 0)"/>
     </g>
    </g>
   </g>
   <g id="line2d_31">
    <path d="M 497.781482 246.484315 
L 506.529531 246.484315 
L 506.529531 245.190426 
L 508.27914 245.190426 
L 508.27914 237.427095 
L 510.02875 237.427095 
L 510.02875 230.698874 
L 511.77836 230.698874 
L 511.77836 224.746987 
L 513.527969 224.746987 
L 513.527969 217.242434 
L 515.277579 217.242434 
L 515.277579 202.750882 
L 517.027189 202.750882 
L 517.027189 198.869216 
L 518.776799 198.869216 
L 518.776799 191.62344 
L 520.526408 191.62344 
L 520.526408 181.013554 
L 522.276018 181.013554 
L 522.276018 173.767779 
L 524.025628 173.767779 
L 524.025628 161.087671 
L 525.775237 161.087671 
L 525.775237 150.219007 
L 527.524847 150.219007 
L 527.524847 144.784675 
L 529.274457 144.784675 
L 529.274457 135.986233 
L 531.024066 135.986233 
L 531.024066 129.516791 
L 532.773676 129.516791 
L 532.773676 126.670236 
L 534.523286 126.670236 
L 534.523286 119.165682 
L 536.272896 119.165682 
L 536.272896 118.906905 
L 538.022505 118.906905 
L 538.022505 106.744352 
L 539.772115 106.744352 
L 539.772115 98.463466 
L 541.521725 98.463466 
L 541.521725 109.849685 
L 543.271334 109.849685 
L 543.271334 90.958912 
L 545.020944 90.958912 
L 545.020944 77.243694 
L 546.770554 77.243694 
L 546.770554 86.300913 
L 548.520163 86.300913 
L 548.520163 87.336024 
L 550.269773 87.336024 
L 550.269773 53.436144 
L 552.019383 53.436144 
L 552.019383 63.269697 
L 553.768993 63.269697 
L 553.768993 61.458253 
L 555.518602 61.458253 
L 555.518602 43.861369 
L 557.268212 43.861369 
L 557.268212 58.352921 
L 559.017822 58.352921 
L 559.017822 52.142256 
L 560.767431 52.142256 
L 560.767431 45.414035 
L 562.517041 45.414035 
L 562.517041 49.554479 
L 564.266651 49.554479 
L 564.266651 32.992705 
L 566.016261 32.992705 
L 566.016261 46.190369 
L 567.76587 46.190369 
L 567.76587 50.330812 
L 569.51548 50.330812 
L 569.51548 34.545372 
L 571.26509 34.545372 
L 571.26509 61.458253 
L 573.014699 61.458253 
L 573.014699 57.31781 
L 574.764309 57.31781 
L 574.764309 64.822364 
L 576.513919 64.822364 
L 576.513919 50.072034 
L 578.263528 50.072034 
L 578.263528 71.291806 
L 580.013138 71.291806 
L 580.013138 85.265802 
L 581.762748 85.265802 
L 581.762748 75.43225 
L 583.512358 75.43225 
L 583.512358 75.949805 
L 585.261967 75.949805 
L 585.261967 74.397139 
L 587.011577 74.397139 
L 587.011577 65.598697 
L 588.761187 65.598697 
L 588.761187 83.713136 
L 590.510796 83.713136 
L 590.510796 80.866581 
L 592.260406 80.866581 
L 592.260406 70.256695 
L 594.010016 70.256695 
L 594.010016 83.454359 
L 595.759626 83.454359 
L 595.759626 81.384137 
L 597.509235 81.384137 
L 597.509235 75.949805 
L 599.258845 75.949805 
L 599.258845 78.020027 
L 601.008455 78.020027 
L 601.008455 75.173472 
L 602.758064 75.173472 
L 602.758064 91.21769 
L 604.507674 91.21769 
L 604.507674 98.463466 
L 606.257284 98.463466 
L 606.257284 88.112357 
L 608.006893 88.112357 
L 608.006893 89.923801 
L 609.756503 89.923801 
L 609.756503 93.287911 
L 611.506113 93.287911 
L 611.506113 90.441357 
L 613.255723 90.441357 
L 613.255723 80.349026 
L 616.754942 80.349026 
L 616.754942 101.827576 
L 618.504552 101.827576 
L 618.504552 94.064245 
L 620.254161 94.064245 
L 620.254161 95.616911 
L 622.003771 95.616911 
L 622.003771 105.709241 
L 623.753381 105.709241 
L 623.753381 90.700134 
L 625.50299 90.700134 
L 625.50299 98.981021 
L 627.2526 98.981021 
L 627.2526 111.661129 
L 629.00221 111.661129 
L 629.00221 100.533687 
L 630.75182 100.533687 
L 630.75182 105.968019 
L 632.501429 105.968019 
L 632.501429 120.200793 
L 634.251039 120.200793 
L 634.251039 118.389349 
L 636.000649 118.389349 
L 636.000649 122.78857 
L 637.750258 122.78857 
L 637.750258 125.117569 
L 639.499868 125.117569 
L 639.499868 139.867899 
L 641.249478 139.867899 
L 641.249478 131.587012 
L 642.999088 131.587012 
L 642.999088 152.030451 
L 644.748697 152.030451 
L 644.748697 156.429672 
L 646.498307 156.429672 
L 646.498307 163.157893 
L 648.247917 163.157893 
L 648.247917 166.522003 
L 649.997526 166.522003 
L 649.997526 180.754777 
L 651.747136 180.754777 
L 651.747136 188.25933 
L 653.496746 188.25933 
L 653.496746 202.233326 
L 655.246355 202.233326 
L 655.246355 205.856214 
L 656.995965 205.856214 
L 656.995965 215.689767 
L 658.745575 215.689767 
L 658.745575 219.830211 
L 660.495185 219.830211 
L 660.495185 228.88743 
L 662.244794 228.88743 
L 662.244794 227.334764 
L 663.994404 227.334764 
L 663.994404 233.545429 
L 665.744014 233.545429 
L 665.744014 238.720983 
L 667.493623 238.720983 
L 667.493623 242.602649 
L 669.243233 242.602649 
L 669.243233 244.672871 
L 670.992843 244.672871 
L 670.992843 239.238539 
L 672.742453 239.238539 
L 672.742453 231.992763 
L 674.492062 231.992763 
L 674.492062 230.440097 
L 676.241672 230.440097 
L 676.241672 224.229432 
L 677.991282 224.229432 
L 677.991282 208.961547 
L 679.740891 208.961547 
L 679.740891 207.926436 
L 681.490501 207.926436 
L 681.490501 198.869216 
L 683.240111 198.869216 
L 683.240111 196.798995 
L 684.98972 196.798995 
L 684.98972 197.31655 
L 686.73933 197.31655 
L 686.73933 190.329552 
L 688.48894 190.329552 
L 688.48894 186.189109 
L 690.23855 186.189109 
L 690.23855 167.557114 
L 691.988159 167.557114 
L 691.988159 166.522003 
L 693.737769 166.522003 
L 693.737769 165.486892 
L 695.487379 165.486892 
L 695.487379 170.403668 
L 697.236988 170.403668 
L 697.236988 160.570115 
L 698.986598 160.570115 
L 698.986598 149.183896 
L 700.736208 149.183896 
L 700.736208 154.618228 
L 702.485817 154.618228 
L 702.485817 146.078564 
L 704.235427 146.078564 
L 704.235427 148.666341 
L 705.985037 148.666341 
L 705.985037 144.525898 
L 707.734647 144.525898 
L 707.734647 140.644232 
L 709.484256 140.644232 
L 709.484256 131.84579 
L 711.233866 131.84579 
L 711.233866 133.139678 
L 712.983476 133.139678 
L 712.983476 134.692345 
L 714.733085 134.692345 
L 714.733085 130.810679 
L 716.482695 130.810679 
L 716.482695 126.15268 
L 718.232305 126.15268 
L 718.232305 117.871794 
L 719.981915 117.871794 
L 719.981915 106.226797 
L 721.731524 106.226797 
L 721.731524 108.814574 
L 723.481134 108.814574 
L 723.481134 112.178684 
L 725.230744 112.178684 
L 725.230744 108.297018 
L 726.980353 108.297018 
L 726.980353 111.143573 
L 728.729963 111.143573 
L 728.729963 111.402351 
L 730.479573 111.402351 
L 730.479573 109.849685 
L 732.229182 109.849685 
L 732.229182 120.718348 
L 733.978792 120.718348 
L 733.978792 122.78857 
L 735.728402 122.78857 
L 735.728402 120.718348 
L 739.227621 120.718348 
L 739.227621 139.350343 
L 740.977231 139.350343 
L 740.977231 120.977126 
L 742.726841 120.977126 
L 742.726841 135.986233 
L 744.47645 135.986233 
L 744.47645 128.48168 
L 746.22606 128.48168 
L 746.22606 133.916012 
L 747.97567 133.916012 
L 747.97567 122.271015 
L 749.725279 122.271015 
L 749.725279 140.385454 
L 751.474889 140.385454 
L 751.474889 139.350343 
L 753.224499 139.350343 
L 753.224499 140.126677 
L 754.974109 140.126677 
L 754.974109 145.561008 
L 756.723718 145.561008 
L 756.723718 149.960229 
L 758.473328 149.960229 
L 758.473328 138.57401 
L 760.222938 138.57401 
L 760.222938 139.867899 
L 761.972547 139.867899 
L 761.972547 156.170894 
L 763.722157 156.170894 
L 763.722157 153.065562 
L 765.471767 153.065562 
L 765.471767 153.841895 
L 767.221377 153.841895 
L 767.221377 153.065562 
L 770.720596 153.065562 
L 770.720596 166.263225 
L 772.470206 166.263225 
L 772.470206 164.710559 
L 774.219815 164.710559 
L 774.219815 160.570115 
L 775.969425 160.570115 
L 775.969425 160.828893 
L 777.719035 160.828893 
L 777.719035 162.122782 
L 779.468644 162.122782 
L 779.468644 163.157893 
L 781.218254 163.157893 
L 781.218254 171.956335 
L 782.967864 171.956335 
L 782.967864 170.662446 
L 784.717474 170.662446 
L 784.717474 172.732668 
L 786.467083 172.732668 
L 786.467083 181.789888 
L 788.216693 181.789888 
L 788.216693 174.544112 
L 789.966303 174.544112 
L 789.966303 188.776886 
L 791.715912 188.776886 
L 791.715912 178.425777 
L 793.465522 178.425777 
L 793.465522 185.153998 
L 795.215132 185.153998 
L 795.215132 194.987551 
L 796.964742 194.987551 
L 796.964742 190.847107 
L 798.714351 190.847107 
L 798.714351 193.434884 
L 800.463961 193.434884 
L 800.463961 199.904327 
L 802.213571 199.904327 
L 802.213571 194.987551 
L 803.96318 194.987551 
L 803.96318 199.127994 
L 805.71279 199.127994 
L 805.71279 204.303548 
L 807.4624 204.303548 
L 807.4624 207.667658 
L 809.212009 207.667658 
L 809.212009 214.137101 
L 810.961619 214.137101 
L 810.961619 215.172212 
L 812.711229 215.172212 
L 812.711229 222.417988 
L 814.460839 222.417988 
L 814.460839 224.488209 
L 816.210448 224.488209 
L 816.210448 227.075986 
L 817.960058 227.075986 
L 817.960058 230.698874 
L 819.709668 230.698874 
L 819.709668 232.251541 
L 821.459277 232.251541 
L 821.459277 233.027874 
L 823.208887 233.027874 
L 823.208887 235.874429 
L 824.958497 235.874429 
L 824.958497 237.94465 
L 826.708106 237.94465 
L 826.708106 240.014872 
L 828.457716 240.014872 
L 828.457716 243.63776 
L 830.207326 243.63776 
L 830.207326 244.155315 
L 831.956936 244.155315 
L 831.956936 243.378982 
L 833.706545 243.378982 
L 833.706545 243.63776 
L 835.456155 243.63776 
L 835.456155 245.449204 
L 837.205765 245.449204 
L 837.205765 246.484315 
L 847.703423 246.484315 
L 847.703423 246.484315 
" clip-path="url(#p83d09a33ac)" style="fill: none; stroke: #1f77b4; stroke-width: 1.5; stroke-linecap: square"/>
   </g>
   <g id="line2d_32">
    <path d="M 497.781482 246.484315 
L 506.529531 246.484315 
L 506.529531 243.63776 
L 508.27914 243.63776 
L 508.27914 238.720983 
L 510.02875 238.720983 
L 510.02875 231.733985 
L 511.77836 231.733985 
L 511.77836 223.453099 
L 513.527969 223.453099 
L 513.527969 217.242434 
L 515.277579 217.242434 
L 515.277579 203.00966 
L 517.027189 203.00966 
L 517.027189 199.645549 
L 518.776799 199.645549 
L 518.776799 190.847107 
L 520.526408 190.847107 
L 520.526408 178.684555 
L 522.276018 178.684555 
L 522.276018 175.320445 
L 524.025628 175.320445 
L 524.025628 160.311338 
L 525.775237 160.311338 
L 525.775237 149.960229 
L 527.524847 149.960229 
L 527.524847 146.596119 
L 529.274457 146.596119 
L 529.274457 136.762566 
L 531.024066 136.762566 
L 531.024066 129.258013 
L 532.773676 129.258013 
L 532.773676 121.235904 
L 534.523286 121.235904 
L 534.523286 122.78857 
L 536.272896 122.78857 
L 536.272896 121.494682 
L 538.022505 121.494682 
L 538.022505 97.687132 
L 539.772115 97.687132 
L 539.772115 110.626018 
L 541.521725 110.626018 
L 541.521725 113.472573 
L 543.271334 113.472573 
L 543.271334 79.572693 
L 545.020944 79.572693 
L 545.020944 78.020027 
L 546.770554 78.020027 
L 546.770554 86.559691 
L 548.520163 86.559691 
L 548.520163 88.112357 
L 550.269773 88.112357 
L 550.269773 55.247588 
L 552.019383 55.247588 
L 552.019383 59.905587 
L 553.768993 59.905587 
L 553.768993 58.870476 
L 555.518602 58.870476 
L 555.518602 45.931591 
L 557.268212 45.931591 
L 557.268212 59.388032 
L 559.017822 59.388032 
L 559.017822 53.177367 
L 560.767431 53.177367 
L 560.767431 44.637702 
L 562.517041 44.637702 
L 562.517041 46.190369 
L 564.266651 46.190369 
L 564.266651 40.497259 
L 566.016261 40.497259 
L 566.016261 36.098038 
L 567.76587 36.098038 
L 567.76587 51.107145 
L 569.51548 51.107145 
L 569.51548 45.931591 
L 571.26509 45.931591 
L 571.26509 58.870476 
L 573.014699 58.870476 
L 573.014699 54.471255 
L 574.764309 54.471255 
L 574.764309 62.493364 
L 576.513919 62.493364 
L 576.513919 54.730033 
L 578.263528 54.730033 
L 578.263528 78.537582 
L 580.013138 78.537582 
L 580.013138 71.809362 
L 581.762748 71.809362 
L 581.762748 78.278804 
L 583.512358 78.278804 
L 583.512358 75.691027 
L 585.261967 75.691027 
L 585.261967 82.419248 
L 587.011577 82.419248 
L 587.011577 62.234586 
L 588.761187 62.234586 
L 588.761187 78.537582 
L 590.510796 78.537582 
L 590.510796 80.866581 
L 592.260406 80.866581 
L 592.260406 75.949805 
L 595.759626 75.949805 
L 595.759626 85.007025 
L 597.509235 85.007025 
L 597.509235 73.362028 
L 599.258845 73.362028 
L 599.258845 79.572693 
L 601.008455 79.572693 
L 601.008455 82.936803 
L 602.758064 82.936803 
L 602.758064 93.546689 
L 604.507674 93.546689 
L 604.507674 95.358133 
L 606.257284 95.358133 
L 606.257284 90.700134 
L 608.006893 90.700134 
L 608.006893 85.007025 
L 609.756503 85.007025 
L 609.756503 92.511578 
L 611.506113 92.511578 
L 611.506113 84.230692 
L 613.255723 84.230692 
L 613.255723 75.949805 
L 615.005332 75.949805 
L 615.005332 87.85358 
L 616.754942 87.85358 
L 616.754942 103.380242 
L 618.504552 103.380242 
L 618.504552 92.770356 
L 620.254161 92.770356 
L 620.254161 102.862687 
L 622.003771 102.862687 
L 622.003771 96.393244 
L 623.753381 96.393244 
L 623.753381 92.511578 
L 625.50299 92.511578 
L 625.50299 110.108462 
L 627.2526 110.108462 
L 627.2526 101.568798 
L 629.00221 101.568798 
L 629.00221 102.086353 
L 630.75182 102.086353 
L 630.75182 110.108462 
L 632.501429 110.108462 
L 632.501429 115.542794 
L 634.251039 115.542794 
L 634.251039 113.990128 
L 636.000649 113.990128 
L 636.000649 126.670236 
L 637.750258 126.670236 
L 637.750258 132.880901 
L 639.499868 132.880901 
L 639.499868 139.867899 
L 641.249478 139.867899 
L 641.249478 126.929013 
L 642.999088 126.929013 
L 642.999088 150.736563 
L 644.748697 150.736563 
L 644.748697 154.359451 
L 646.498307 154.359451 
L 646.498307 164.451781 
L 648.247917 164.451781 
L 648.247917 168.592224 
L 649.997526 168.592224 
L 649.997526 178.684555 
L 651.747136 178.684555 
L 651.747136 191.364663 
L 653.496746 191.364663 
L 653.496746 200.163105 
L 655.246355 200.163105 
L 655.246355 204.821104 
L 656.995965 204.821104 
L 656.995965 216.207323 
L 658.745575 216.207323 
L 658.745575 218.536322 
L 660.495185 218.536322 
L 660.495185 226.558431 
L 662.244794 226.558431 
L 662.244794 229.404986 
L 663.994404 229.404986 
L 663.994404 233.804207 
L 665.744014 233.804207 
L 665.744014 238.720983 
L 667.493623 238.720983 
L 667.493623 242.343871 
L 669.243233 242.343871 
L 669.243233 243.896537 
L 670.992843 243.896537 
L 670.992843 237.685872 
L 672.742453 237.685872 
L 672.742453 232.510318 
L 674.492062 232.510318 
L 674.492062 229.922541 
L 676.241672 229.922541 
L 676.241672 223.970654 
L 677.991282 223.970654 
L 677.991282 209.220325 
L 679.740891 209.220325 
L 679.740891 209.996658 
L 681.490501 209.996658 
L 681.490501 197.057772 
L 683.240111 197.057772 
L 683.240111 196.540217 
L 684.98972 196.540217 
L 684.98972 196.281439 
L 686.73933 196.281439 
L 686.73933 193.693662 
L 688.48894 193.693662 
L 688.48894 182.307443 
L 690.23855 182.307443 
L 690.23855 170.921224 
L 691.988159 170.921224 
L 691.988159 164.193003 
L 693.737769 164.193003 
L 693.737769 164.710559 
L 695.487379 164.710559 
L 695.487379 168.851002 
L 697.236988 168.851002 
L 697.236988 160.05256 
L 698.986598 160.05256 
L 698.986598 153.32434 
L 700.736208 153.32434 
L 700.736208 156.170894 
L 702.485817 156.170894 
L 702.485817 143.490787 
L 704.235427 143.490787 
L 704.235427 150.99534 
L 705.985037 150.99534 
L 705.985037 144.008342 
L 707.734647 144.008342 
L 707.734647 138.056455 
L 709.484256 138.056455 
L 709.484256 128.48168 
L 711.233866 128.48168 
L 711.233866 134.692345 
L 712.983476 134.692345 
L 712.983476 132.363345 
L 714.733085 132.363345 
L 714.733085 134.692345 
L 716.482695 134.692345 
L 716.482695 129.258013 
L 718.232305 129.258013 
L 718.232305 113.472573 
L 719.981915 113.472573 
L 719.981915 110.884796 
L 721.731524 110.884796 
L 721.731524 109.073352 
L 723.481134 109.073352 
L 723.481134 112.69624 
L 725.230744 112.69624 
L 725.230744 106.744352 
L 726.980353 106.744352 
L 726.980353 112.955017 
L 728.729963 112.955017 
L 728.729963 113.73135 
L 730.479573 113.73135 
L 730.479573 108.814574 
L 732.229182 108.814574 
L 732.229182 115.801572 
L 733.978792 115.801572 
L 733.978792 124.600014 
L 735.728402 124.600014 
L 735.728402 115.801572 
L 737.478012 115.801572 
L 737.478012 132.622123 
L 739.227621 132.622123 
L 739.227621 131.069457 
L 740.977231 131.069457 
L 740.977231 126.670236 
L 742.726841 126.670236 
L 742.726841 132.104568 
L 744.47645 132.104568 
L 744.47645 128.740457 
L 746.22606 128.740457 
L 746.22606 125.893903 
L 747.97567 125.893903 
L 747.97567 131.069457 
L 749.725279 131.069457 
L 749.725279 138.056455 
L 751.474889 138.056455 
L 751.474889 135.727456 
L 753.224499 135.727456 
L 753.224499 146.078564 
L 754.974109 146.078564 
L 754.974109 142.973231 
L 756.723718 142.973231 
L 756.723718 144.525898 
L 758.473328 144.525898 
L 758.473328 147.890008 
L 760.222938 147.890008 
L 760.222938 145.819786 
L 761.972547 145.819786 
L 761.972547 147.113675 
L 763.722157 147.113675 
L 763.722157 145.819786 
L 765.471767 145.819786 
L 765.471767 161.087671 
L 767.221377 161.087671 
L 767.221377 151.254118 
L 768.970986 151.254118 
L 768.970986 156.429672 
L 770.720596 156.429672 
L 770.720596 162.640337 
L 772.470206 162.640337 
L 772.470206 171.697557 
L 774.219815 171.697557 
L 774.219815 156.429672 
L 775.969425 156.429672 
L 775.969425 164.969337 
L 777.719035 164.969337 
L 777.719035 159.276227 
L 779.468644 159.276227 
L 779.468644 158.499894 
L 781.218254 158.499894 
L 781.218254 170.662446 
L 782.967864 170.662446 
L 782.967864 170.403668 
L 784.717474 170.403668 
L 784.717474 179.460888 
L 786.467083 179.460888 
L 786.467083 179.719666 
L 788.216693 179.719666 
L 788.216693 177.649444 
L 789.966303 177.649444 
L 789.966303 183.601332 
L 791.715912 183.601332 
L 791.715912 177.390667 
L 793.465522 177.390667 
L 793.465522 190.58833 
L 795.215132 190.58833 
L 795.215132 191.105885 
L 796.964742 191.105885 
L 796.964742 190.329552 
L 798.714351 190.329552 
L 798.714351 196.798995 
L 800.463961 196.798995 
L 800.463961 193.176107 
L 802.213571 193.176107 
L 802.213571 202.233326 
L 803.96318 202.233326 
L 803.96318 194.728773 
L 805.71279 194.728773 
L 805.71279 206.114992 
L 807.4624 206.114992 
L 807.4624 205.597437 
L 809.212009 205.597437 
L 809.212009 214.137101 
L 810.961619 214.137101 
L 810.961619 217.759989 
L 812.711229 217.759989 
L 812.711229 219.830211 
L 814.460839 219.830211 
L 814.460839 226.299653 
L 816.210448 226.299653 
L 816.210448 226.817209 
L 817.960058 226.817209 
L 817.960058 232.510318 
L 819.709668 232.510318 
L 819.709668 230.698874 
L 821.459277 230.698874 
L 821.459277 232.251541 
L 823.208887 232.251541 
L 823.208887 236.909539 
L 824.958497 236.909539 
L 824.958497 238.203428 
L 826.708106 238.203428 
L 826.708106 239.756094 
L 828.457716 239.756094 
L 828.457716 243.63776 
L 830.207326 243.63776 
L 830.207326 243.896537 
L 831.956936 243.896537 
L 831.956936 243.63776 
L 833.706545 243.63776 
L 833.706545 243.896537 
L 835.456155 243.896537 
L 835.456155 245.190426 
L 837.205765 245.190426 
L 837.205765 245.707981 
L 838.955374 245.707981 
L 838.955374 246.484315 
L 847.703423 246.484315 
L 847.703423 246.484315 
" clip-path="url(#p83d09a33ac)" style="fill: none; stroke: #ff7f0e; stroke-width: 1.5; stroke-linecap: square"/>
   </g>
   <g id="patch_9">
    <path d="M 480.285385 257.158895 
L 480.285385 22.318125 
" style="fill: none; stroke: #000000; stroke-width: 0.8; stroke-linejoin: miter; stroke-linecap: square"/>
   </g>
   <g id="patch_10">
    <path d="M 865.19952 257.158895 
L 865.19952 22.318125 
" style="fill: none; stroke: #000000; stroke-width: 0.8; stroke-linejoin: miter; stroke-linecap: square"/>
   </g>
   <g id="patch_11">
    <path d="M 480.285385 257.158895 
L 865.19952 257.158895 
" style="fill: none; stroke: #000000; stroke-width: 0.8; stroke-linejoin: miter; stroke-linecap: square"/>
   </g>
   <g id="patch_12">
    <path d="M 480.285385 22.318125 
L 865.19952 22.318125 
" style="fill: none; stroke: #000000; stroke-width: 0.8; stroke-linejoin: miter; stroke-linecap: square"/>
   </g>
   <g id="text_34">
    <!-- Pixel 2 -->
    <g transform="translate(653.14589 16.318125) scale(0.12 -0.12)">
     <use xlink:href="#DejaVuSans-50"/>
     <use xlink:href="#DejaVuSans-69" transform="translate(58.052734 0)"/>
     <use xlink:href="#DejaVuSans-78" transform="translate(85.835938 0)"/>
     <use xlink:href="#DejaVuSans-65" transform="translate(141.890625 0)"/>
     <use xlink:href="#DejaVuSans-6c" transform="translate(203.414062 0)"/>
     <use xlink:href="#DejaVuSans-20" transform="translate(231.197266 0)"/>
     <use xlink:href="#DejaVuSans-32" transform="translate(262.984375 0)"/>
    </g>
   </g>
   <g id="legend_2">
    <g id="patch_13">
     <path d="M 761.196395 59.9525 
L 858.19952 59.9525 
Q 860.19952 59.9525 860.19952 57.9525 
L 860.19952 29.318125 
Q 860.19952 27.318125 858.19952 27.318125 
L 761.196395 27.318125 
Q 759.196395 27.318125 759.196395 29.318125 
L 759.196395 57.9525 
Q 759.196395 59.9525 761.196395 59.9525 
z
" style="fill: #ffffff; opacity: 0.8; stroke: #cccccc; stroke-linejoin: miter"/>
    </g>
    <g id="line2d_33">
     <path d="M 763.196395 35.416562 
L 763.196395 35.416562 
L 773.196395 35.416562 
L 773.196395 35.416562 
L 783.196395 35.416562 
" style="fill: none; stroke: #1f77b4; stroke-width: 1.5; stroke-linecap: square"/>
    </g>
    <g id="text_35">
     <!-- wfm -->
     <g transform="translate(791.196395 38.916562) scale(0.1 -0.1)">
      <use xlink:href="#DejaVuSans-77"/>
      <use xlink:href="#DejaVuSans-66" transform="translate(81.787109 0)"/>
      <use xlink:href="#DejaVuSans-6d" transform="translate(116.992188 0)"/>
     </g>
    </g>
    <g id="line2d_34">
     <path d="M 763.196395 50.094687 
L 763.196395 50.094687 
L 773.196395 50.094687 
L 773.196395 50.094687 
L 783.196395 50.094687 
" style="fill: none; stroke: #ff7f0e; stroke-width: 1.5; stroke-linecap: square"/>
    </g>
    <g id="text_36">
     <!-- ground_truth -->
     <g transform="translate(791.196395 53.594687) scale(0.1 -0.1)">
      <use xlink:href="#DejaVuSans-67"/>
      <use xlink:href="#DejaVuSans-72" transform="translate(63.476562 0)"/>
      <use xlink:href="#DejaVuSans-6f" transform="translate(102.339844 0)"/>
      <use xlink:href="#DejaVuSans-75" transform="translate(163.521484 0)"/>
      <use xlink:href="#DejaVuSans-6e" transform="translate(226.900391 0)"/>
      <use xlink:href="#DejaVuSans-64" transform="translate(290.279297 0)"/>
      <use xlink:href="#DejaVuSans-5f" transform="translate(353.755859 0)"/>
      <use xlink:href="#DejaVuSans-74" transform="translate(403.755859 0)"/>
      <use xlink:href="#DejaVuSans-72" transform="translate(442.964844 0)"/>
      <use xlink:href="#DejaVuSans-75" transform="translate(484.078125 0)"/>
      <use xlink:href="#DejaVuSans-74" transform="translate(547.457031 0)"/>
      <use xlink:href="#DejaVuSans-68" transform="translate(586.666016 0)"/>
     </g>
    </g>
   </g>
  </g>
 </g>
 <defs>
  <clipPath id="p9a41dd5f6d">
   <rect x="46.965625" y="22.318125" width="384.914135" height="234.84077"/>
  </clipPath>
  <clipPath id="p83d09a33ac">
   <rect x="480.285385" y="22.318125" width="384.914135" height="234.84077"/>
  </clipPath>
 </defs>
</svg>
