<?xml version="1.0" encoding="utf-8" standalone="no"?>
<!DOCTYPE svg PUBLIC "-//W3C//DTD SVG 1.1//EN"
  "http://www.w3.org/Graphics/SVG/1.1/DTD/svg11.dtd">
<svg xmlns:xlink="http://www.w3.org/1999/xlink" width="396.921503pt" height="266.51625pt" viewBox="0 0 396.921503 266.51625" xmlns="http://www.w3.org/2000/svg" version="1.1">
 <metadata>
  <rdf:RDF xmlns:dc="http://purl.org/dc/elements/1.1/" xmlns:cc="http://creativecommons.org/ns#" xmlns:rdf="http://www.w3.org/1999/02/22-rdf-syntax-ns#">
   <cc:Work>
    <dc:type rdf:resource="http://purl.org/dc/dcmitype/StillImage"/>
    <dc:date>2025-03-02T06:36:49.182011</dc:date>
    <dc:format>image/svg+xml</dc:format>
    <dc:creator>
     <cc:Agent>
      <dc:title>Matplotlib v3.10.0, https://matplotlib.org/</dc:title>
     </cc:Agent>
    </dc:creator>
   </cc:Work>
  </rdf:RDF>
 </metadata>
 <defs>
  <style type="text/css">*{stroke-linejoin: round; stroke-linecap: butt}</style>
 </defs>
 <g id="figure_1">
  <g id="patch_1">
   <path d="M 0 266.51625 
L 396.921503 266.51625 
L 396.921503 0 
L 0 0 
z
" style="fill: #ffffff"/>
  </g>
  <g id="axes_1">
   <g id="patch_2">
    <path d="M 46.965625 228.96 
L 381.765625 228.96 
L 381.765625 7.2 
L 46.965625 7.2 
z
" style="fill: #ffffff"/>
   </g>
   <g id="matplotlib.axis_1">
    <g id="xtick_1">
     <g id="line2d_1">
      <defs>
       <path id="m80a75e5744" d="M 0 0 
L 0 3.5 
" style="stroke: #000000; stroke-width: 0.8"/>
      </defs>
      <g>
       <use xlink:href="#m80a75e5744" x="71.752326" y="228.96" style="stroke: #000000; stroke-width: 0.8"/>
      </g>
     </g>
     <g id="text_1">
      <!-- 20000 -->
      <g transform="translate(55.846076 243.558437) scale(0.1 -0.1)">
       <defs>
        <path id="DejaVuSans-32" d="M 1228 531 
L 3431 531 
L 3431 0 
L 469 0 
L 469 531 
Q 828 903 1448 1529 
Q 2069 2156 2228 2338 
Q 2531 2678 2651 2914 
Q 2772 3150 2772 3378 
Q 2772 3750 2511 3984 
Q 2250 4219 1831 4219 
Q 1534 4219 1204 4116 
Q 875 4013 500 3803 
L 500 4441 
Q 881 4594 1212 4672 
Q 1544 4750 1819 4750 
Q 2544 4750 2975 4387 
Q 3406 4025 3406 3419 
Q 3406 3131 3298 2873 
Q 3191 2616 2906 2266 
Q 2828 2175 2409 1742 
Q 1991 1309 1228 531 
z
" transform="scale(0.015625)"/>
        <path id="DejaVuSans-30" d="M 2034 4250 
Q 1547 4250 1301 3770 
Q 1056 3291 1056 2328 
Q 1056 1369 1301 889 
Q 1547 409 2034 409 
Q 2525 409 2770 889 
Q 3016 1369 3016 2328 
Q 3016 3291 2770 3770 
Q 2525 4250 2034 4250 
z
M 2034 4750 
Q 2819 4750 3233 4129 
Q 3647 3509 3647 2328 
Q 3647 1150 3233 529 
Q 2819 -91 2034 -91 
Q 1250 -91 836 529 
Q 422 1150 422 2328 
Q 422 3509 836 4129 
Q 1250 4750 2034 4750 
z
" transform="scale(0.015625)"/>
       </defs>
       <use xlink:href="#DejaVuSans-32"/>
       <use xlink:href="#DejaVuSans-30" transform="translate(63.623047 0)"/>
       <use xlink:href="#DejaVuSans-30" transform="translate(127.246094 0)"/>
       <use xlink:href="#DejaVuSans-30" transform="translate(190.869141 0)"/>
       <use xlink:href="#DejaVuSans-30" transform="translate(254.492188 0)"/>
      </g>
     </g>
    </g>
    <g id="xtick_2">
     <g id="line2d_2">
      <g>
       <use xlink:href="#m80a75e5744" x="114.904172" y="228.96" style="stroke: #000000; stroke-width: 0.8"/>
      </g>
     </g>
     <g id="text_2">
      <!-- 30000 -->
      <g transform="translate(98.997922 243.558437) scale(0.1 -0.1)">
       <defs>
        <path id="DejaVuSans-33" d="M 2597 2516 
Q 3050 2419 3304 2112 
Q 3559 1806 3559 1356 
Q 3559 666 3084 287 
Q 2609 -91 1734 -91 
Q 1441 -91 1130 -33 
Q 819 25 488 141 
L 488 750 
Q 750 597 1062 519 
Q 1375 441 1716 441 
Q 2309 441 2620 675 
Q 2931 909 2931 1356 
Q 2931 1769 2642 2001 
Q 2353 2234 1838 2234 
L 1294 2234 
L 1294 2753 
L 1863 2753 
Q 2328 2753 2575 2939 
Q 2822 3125 2822 3475 
Q 2822 3834 2567 4026 
Q 2313 4219 1838 4219 
Q 1578 4219 1281 4162 
Q 984 4106 628 3988 
L 628 4550 
Q 988 4650 1302 4700 
Q 1616 4750 1894 4750 
Q 2613 4750 3031 4423 
Q 3450 4097 3450 3541 
Q 3450 3153 3228 2886 
Q 3006 2619 2597 2516 
z
" transform="scale(0.015625)"/>
       </defs>
       <use xlink:href="#DejaVuSans-33"/>
       <use xlink:href="#DejaVuSans-30" transform="translate(63.623047 0)"/>
       <use xlink:href="#DejaVuSans-30" transform="translate(127.246094 0)"/>
       <use xlink:href="#DejaVuSans-30" transform="translate(190.869141 0)"/>
       <use xlink:href="#DejaVuSans-30" transform="translate(254.492188 0)"/>
      </g>
     </g>
    </g>
    <g id="xtick_3">
     <g id="line2d_3">
      <g>
       <use xlink:href="#m80a75e5744" x="158.056019" y="228.96" style="stroke: #000000; stroke-width: 0.8"/>
      </g>
     </g>
     <g id="text_3">
      <!-- 40000 -->
      <g transform="translate(142.149769 243.558437) scale(0.1 -0.1)">
       <defs>
        <path id="DejaVuSans-34" d="M 2419 4116 
L 825 1625 
L 2419 1625 
L 2419 4116 
z
M 2253 4666 
L 3047 4666 
L 3047 1625 
L 3713 1625 
L 3713 1100 
L 3047 1100 
L 3047 0 
L 2419 0 
L 2419 1100 
L 313 1100 
L 313 1709 
L 2253 4666 
z
" transform="scale(0.015625)"/>
       </defs>
       <use xlink:href="#DejaVuSans-34"/>
       <use xlink:href="#DejaVuSans-30" transform="translate(63.623047 0)"/>
       <use xlink:href="#DejaVuSans-30" transform="translate(127.246094 0)"/>
       <use xlink:href="#DejaVuSans-30" transform="translate(190.869141 0)"/>
       <use xlink:href="#DejaVuSans-30" transform="translate(254.492188 0)"/>
      </g>
     </g>
    </g>
    <g id="xtick_4">
     <g id="line2d_4">
      <g>
       <use xlink:href="#m80a75e5744" x="201.207866" y="228.96" style="stroke: #000000; stroke-width: 0.8"/>
      </g>
     </g>
     <g id="text_4">
      <!-- 50000 -->
      <g transform="translate(185.301616 243.558437) scale(0.1 -0.1)">
       <defs>
        <path id="DejaVuSans-35" d="M 691 4666 
L 3169 4666 
L 3169 4134 
L 1269 4134 
L 1269 2991 
Q 1406 3038 1543 3061 
Q 1681 3084 1819 3084 
Q 2600 3084 3056 2656 
Q 3513 2228 3513 1497 
Q 3513 744 3044 326 
Q 2575 -91 1722 -91 
Q 1428 -91 1123 -41 
Q 819 9 494 109 
L 494 744 
Q 775 591 1075 516 
Q 1375 441 1709 441 
Q 2250 441 2565 725 
Q 2881 1009 2881 1497 
Q 2881 1984 2565 2268 
Q 2250 2553 1709 2553 
Q 1456 2553 1204 2497 
Q 953 2441 691 2322 
L 691 4666 
z
" transform="scale(0.015625)"/>
       </defs>
       <use xlink:href="#DejaVuSans-35"/>
       <use xlink:href="#DejaVuSans-30" transform="translate(63.623047 0)"/>
       <use xlink:href="#DejaVuSans-30" transform="translate(127.246094 0)"/>
       <use xlink:href="#DejaVuSans-30" transform="translate(190.869141 0)"/>
       <use xlink:href="#DejaVuSans-30" transform="translate(254.492188 0)"/>
      </g>
     </g>
    </g>
    <g id="xtick_5">
     <g id="line2d_5">
      <g>
       <use xlink:href="#m80a75e5744" x="244.359713" y="228.96" style="stroke: #000000; stroke-width: 0.8"/>
      </g>
     </g>
     <g id="text_5">
      <!-- 60000 -->
      <g transform="translate(228.453463 243.558437) scale(0.1 -0.1)">
       <defs>
        <path id="DejaVuSans-36" d="M 2113 2584 
Q 1688 2584 1439 2293 
Q 1191 2003 1191 1497 
Q 1191 994 1439 701 
Q 1688 409 2113 409 
Q 2538 409 2786 701 
Q 3034 994 3034 1497 
Q 3034 2003 2786 2293 
Q 2538 2584 2113 2584 
z
M 3366 4563 
L 3366 3988 
Q 3128 4100 2886 4159 
Q 2644 4219 2406 4219 
Q 1781 4219 1451 3797 
Q 1122 3375 1075 2522 
Q 1259 2794 1537 2939 
Q 1816 3084 2150 3084 
Q 2853 3084 3261 2657 
Q 3669 2231 3669 1497 
Q 3669 778 3244 343 
Q 2819 -91 2113 -91 
Q 1303 -91 875 529 
Q 447 1150 447 2328 
Q 447 3434 972 4092 
Q 1497 4750 2381 4750 
Q 2619 4750 2861 4703 
Q 3103 4656 3366 4563 
z
" transform="scale(0.015625)"/>
       </defs>
       <use xlink:href="#DejaVuSans-36"/>
       <use xlink:href="#DejaVuSans-30" transform="translate(63.623047 0)"/>
       <use xlink:href="#DejaVuSans-30" transform="translate(127.246094 0)"/>
       <use xlink:href="#DejaVuSans-30" transform="translate(190.869141 0)"/>
       <use xlink:href="#DejaVuSans-30" transform="translate(254.492188 0)"/>
      </g>
     </g>
    </g>
    <g id="xtick_6">
     <g id="line2d_6">
      <g>
       <use xlink:href="#m80a75e5744" x="287.511559" y="228.96" style="stroke: #000000; stroke-width: 0.8"/>
      </g>
     </g>
     <g id="text_6">
      <!-- 70000 -->
      <g transform="translate(271.605309 243.558437) scale(0.1 -0.1)">
       <defs>
        <path id="DejaVuSans-37" d="M 525 4666 
L 3525 4666 
L 3525 4397 
L 1831 0 
L 1172 0 
L 2766 4134 
L 525 4134 
L 525 4666 
z
" transform="scale(0.015625)"/>
       </defs>
       <use xlink:href="#DejaVuSans-37"/>
       <use xlink:href="#DejaVuSans-30" transform="translate(63.623047 0)"/>
       <use xlink:href="#DejaVuSans-30" transform="translate(127.246094 0)"/>
       <use xlink:href="#DejaVuSans-30" transform="translate(190.869141 0)"/>
       <use xlink:href="#DejaVuSans-30" transform="translate(254.492188 0)"/>
      </g>
     </g>
    </g>
    <g id="xtick_7">
     <g id="line2d_7">
      <g>
       <use xlink:href="#m80a75e5744" x="330.663406" y="228.96" style="stroke: #000000; stroke-width: 0.8"/>
      </g>
     </g>
     <g id="text_7">
      <!-- 80000 -->
      <g transform="translate(314.757156 243.558437) scale(0.1 -0.1)">
       <defs>
        <path id="DejaVuSans-38" d="M 2034 2216 
Q 1584 2216 1326 1975 
Q 1069 1734 1069 1313 
Q 1069 891 1326 650 
Q 1584 409 2034 409 
Q 2484 409 2743 651 
Q 3003 894 3003 1313 
Q 3003 1734 2745 1975 
Q 2488 2216 2034 2216 
z
M 1403 2484 
Q 997 2584 770 2862 
Q 544 3141 544 3541 
Q 544 4100 942 4425 
Q 1341 4750 2034 4750 
Q 2731 4750 3128 4425 
Q 3525 4100 3525 3541 
Q 3525 3141 3298 2862 
Q 3072 2584 2669 2484 
Q 3125 2378 3379 2068 
Q 3634 1759 3634 1313 
Q 3634 634 3220 271 
Q 2806 -91 2034 -91 
Q 1263 -91 848 271 
Q 434 634 434 1313 
Q 434 1759 690 2068 
Q 947 2378 1403 2484 
z
M 1172 3481 
Q 1172 3119 1398 2916 
Q 1625 2713 2034 2713 
Q 2441 2713 2670 2916 
Q 2900 3119 2900 3481 
Q 2900 3844 2670 4047 
Q 2441 4250 2034 4250 
Q 1625 4250 1398 4047 
Q 1172 3844 1172 3481 
z
" transform="scale(0.015625)"/>
       </defs>
       <use xlink:href="#DejaVuSans-38"/>
       <use xlink:href="#DejaVuSans-30" transform="translate(63.623047 0)"/>
       <use xlink:href="#DejaVuSans-30" transform="translate(127.246094 0)"/>
       <use xlink:href="#DejaVuSans-30" transform="translate(190.869141 0)"/>
       <use xlink:href="#DejaVuSans-30" transform="translate(254.492188 0)"/>
      </g>
     </g>
    </g>
    <g id="xtick_8">
     <g id="line2d_8">
      <g>
       <use xlink:href="#m80a75e5744" x="373.815253" y="228.96" style="stroke: #000000; stroke-width: 0.8"/>
      </g>
     </g>
     <g id="text_8">
      <!-- 90000 -->
      <g transform="translate(357.909003 243.558437) scale(0.1 -0.1)">
       <defs>
        <path id="DejaVuSans-39" d="M 703 97 
L 703 672 
Q 941 559 1184 500 
Q 1428 441 1663 441 
Q 2288 441 2617 861 
Q 2947 1281 2994 2138 
Q 2813 1869 2534 1725 
Q 2256 1581 1919 1581 
Q 1219 1581 811 2004 
Q 403 2428 403 3163 
Q 403 3881 828 4315 
Q 1253 4750 1959 4750 
Q 2769 4750 3195 4129 
Q 3622 3509 3622 2328 
Q 3622 1225 3098 567 
Q 2575 -91 1691 -91 
Q 1453 -91 1209 -44 
Q 966 3 703 97 
z
M 1959 2075 
Q 2384 2075 2632 2365 
Q 2881 2656 2881 3163 
Q 2881 3666 2632 3958 
Q 2384 4250 1959 4250 
Q 1534 4250 1286 3958 
Q 1038 3666 1038 3163 
Q 1038 2656 1286 2365 
Q 1534 2075 1959 2075 
z
" transform="scale(0.015625)"/>
       </defs>
       <use xlink:href="#DejaVuSans-39"/>
       <use xlink:href="#DejaVuSans-30" transform="translate(63.623047 0)"/>
       <use xlink:href="#DejaVuSans-30" transform="translate(127.246094 0)"/>
       <use xlink:href="#DejaVuSans-30" transform="translate(190.869141 0)"/>
       <use xlink:href="#DejaVuSans-30" transform="translate(254.492188 0)"/>
      </g>
     </g>
    </g>
    <g id="text_9">
     <!-- tof [µs] -->
     <g transform="translate(196.309375 257.236562) scale(0.1 -0.1)">
      <defs>
       <path id="DejaVuSans-74" d="M 1172 4494 
L 1172 3500 
L 2356 3500 
L 2356 3053 
L 1172 3053 
L 1172 1153 
Q 1172 725 1289 603 
Q 1406 481 1766 481 
L 2356 481 
L 2356 0 
L 1766 0 
Q 1100 0 847 248 
Q 594 497 594 1153 
L 594 3053 
L 172 3053 
L 172 3500 
L 594 3500 
L 594 4494 
L 1172 4494 
z
" transform="scale(0.015625)"/>
       <path id="DejaVuSans-6f" d="M 1959 3097 
Q 1497 3097 1228 2736 
Q 959 2375 959 1747 
Q 959 1119 1226 758 
Q 1494 397 1959 397 
Q 2419 397 2687 759 
Q 2956 1122 2956 1747 
Q 2956 2369 2687 2733 
Q 2419 3097 1959 3097 
z
M 1959 3584 
Q 2709 3584 3137 3096 
Q 3566 2609 3566 1747 
Q 3566 888 3137 398 
Q 2709 -91 1959 -91 
Q 1206 -91 779 398 
Q 353 888 353 1747 
Q 353 2609 779 3096 
Q 1206 3584 1959 3584 
z
" transform="scale(0.015625)"/>
       <path id="DejaVuSans-66" d="M 2375 4863 
L 2375 4384 
L 1825 4384 
Q 1516 4384 1395 4259 
Q 1275 4134 1275 3809 
L 1275 3500 
L 2222 3500 
L 2222 3053 
L 1275 3053 
L 1275 0 
L 697 0 
L 697 3053 
L 147 3053 
L 147 3500 
L 697 3500 
L 697 3744 
Q 697 4328 969 4595 
Q 1241 4863 1831 4863 
L 2375 4863 
z
" transform="scale(0.015625)"/>
       <path id="DejaVuSans-20" transform="scale(0.015625)"/>
       <path id="DejaVuSans-5b" d="M 550 4863 
L 1875 4863 
L 1875 4416 
L 1125 4416 
L 1125 -397 
L 1875 -397 
L 1875 -844 
L 550 -844 
L 550 4863 
z
" transform="scale(0.015625)"/>
       <path id="DejaVuSans-b5" d="M 544 -1331 
L 544 3500 
L 1119 3500 
L 1119 1325 
Q 1119 872 1334 640 
Q 1550 409 1972 409 
Q 2434 409 2667 671 
Q 2900 934 2900 1459 
L 2900 3500 
L 3475 3500 
L 3475 806 
Q 3475 619 3529 530 
Q 3584 441 3700 441 
Q 3728 441 3778 458 
Q 3828 475 3916 513 
L 3916 50 
Q 3788 -22 3673 -56 
Q 3559 -91 3450 -91 
Q 3234 -91 3106 31 
Q 2978 153 2931 403 
Q 2775 156 2548 32 
Q 2322 -91 2016 -91 
Q 1697 -91 1473 31 
Q 1250 153 1119 397 
L 1119 -1331 
L 544 -1331 
z
" transform="scale(0.015625)"/>
       <path id="DejaVuSans-73" d="M 2834 3397 
L 2834 2853 
Q 2591 2978 2328 3040 
Q 2066 3103 1784 3103 
Q 1356 3103 1142 2972 
Q 928 2841 928 2578 
Q 928 2378 1081 2264 
Q 1234 2150 1697 2047 
L 1894 2003 
Q 2506 1872 2764 1633 
Q 3022 1394 3022 966 
Q 3022 478 2636 193 
Q 2250 -91 1575 -91 
Q 1294 -91 989 -36 
Q 684 19 347 128 
L 347 722 
Q 666 556 975 473 
Q 1284 391 1588 391 
Q 1994 391 2212 530 
Q 2431 669 2431 922 
Q 2431 1156 2273 1281 
Q 2116 1406 1581 1522 
L 1381 1569 
Q 847 1681 609 1914 
Q 372 2147 372 2553 
Q 372 3047 722 3315 
Q 1072 3584 1716 3584 
Q 2034 3584 2315 3537 
Q 2597 3491 2834 3397 
z
" transform="scale(0.015625)"/>
       <path id="DejaVuSans-5d" d="M 1947 4863 
L 1947 -844 
L 622 -844 
L 622 -397 
L 1369 -397 
L 1369 4416 
L 622 4416 
L 622 4863 
L 1947 4863 
z
" transform="scale(0.015625)"/>
      </defs>
      <use xlink:href="#DejaVuSans-74"/>
      <use xlink:href="#DejaVuSans-6f" transform="translate(39.208984 0)"/>
      <use xlink:href="#DejaVuSans-66" transform="translate(100.390625 0)"/>
      <use xlink:href="#DejaVuSans-20" transform="translate(135.595703 0)"/>
      <use xlink:href="#DejaVuSans-5b" transform="translate(167.382812 0)"/>
      <use xlink:href="#DejaVuSans-b5" transform="translate(206.396484 0)"/>
      <use xlink:href="#DejaVuSans-73" transform="translate(270.019531 0)"/>
      <use xlink:href="#DejaVuSans-5d" transform="translate(322.119141 0)"/>
     </g>
    </g>
   </g>
   <g id="matplotlib.axis_2">
    <g id="ytick_1">
     <g id="line2d_9">
      <defs>
       <path id="m5458fd1b16" d="M 0 0 
L -3.5 0 
" style="stroke: #000000; stroke-width: 0.8"/>
      </defs>
      <g>
       <use xlink:href="#m5458fd1b16" x="46.965625" y="220.036405" style="stroke: #000000; stroke-width: 0.8"/>
      </g>
     </g>
     <g id="text_10">
      <!-- 0 -->
      <g transform="translate(33.603125 223.835624) scale(0.1 -0.1)">
       <use xlink:href="#DejaVuSans-30"/>
      </g>
     </g>
    </g>
    <g id="ytick_2">
     <g id="line2d_10">
      <g>
       <use xlink:href="#m5458fd1b16" x="46.965625" y="181.48956" style="stroke: #000000; stroke-width: 0.8"/>
      </g>
     </g>
     <g id="text_11">
      <!-- 100 -->
      <g transform="translate(20.878125 185.288779) scale(0.1 -0.1)">
       <defs>
        <path id="DejaVuSans-31" d="M 794 531 
L 1825 531 
L 1825 4091 
L 703 3866 
L 703 4441 
L 1819 4666 
L 2450 4666 
L 2450 531 
L 3481 531 
L 3481 0 
L 794 0 
L 794 531 
z
" transform="scale(0.015625)"/>
       </defs>
       <use xlink:href="#DejaVuSans-31"/>
       <use xlink:href="#DejaVuSans-30" transform="translate(63.623047 0)"/>
       <use xlink:href="#DejaVuSans-30" transform="translate(127.246094 0)"/>
      </g>
     </g>
    </g>
    <g id="ytick_3">
     <g id="line2d_11">
      <g>
       <use xlink:href="#m5458fd1b16" x="46.965625" y="142.942715" style="stroke: #000000; stroke-width: 0.8"/>
      </g>
     </g>
     <g id="text_12">
      <!-- 200 -->
      <g transform="translate(20.878125 146.741934) scale(0.1 -0.1)">
       <use xlink:href="#DejaVuSans-32"/>
       <use xlink:href="#DejaVuSans-30" transform="translate(63.623047 0)"/>
       <use xlink:href="#DejaVuSans-30" transform="translate(127.246094 0)"/>
      </g>
     </g>
    </g>
    <g id="ytick_4">
     <g id="line2d_12">
      <g>
       <use xlink:href="#m5458fd1b16" x="46.965625" y="104.39587" style="stroke: #000000; stroke-width: 0.8"/>
      </g>
     </g>
     <g id="text_13">
      <!-- 300 -->
      <g transform="translate(20.878125 108.195089) scale(0.1 -0.1)">
       <use xlink:href="#DejaVuSans-33"/>
       <use xlink:href="#DejaVuSans-30" transform="translate(63.623047 0)"/>
       <use xlink:href="#DejaVuSans-30" transform="translate(127.246094 0)"/>
      </g>
     </g>
    </g>
    <g id="ytick_5">
     <g id="line2d_13">
      <g>
       <use xlink:href="#m5458fd1b16" x="46.965625" y="65.849025" style="stroke: #000000; stroke-width: 0.8"/>
      </g>
     </g>
     <g id="text_14">
      <!-- 400 -->
      <g transform="translate(20.878125 69.648244) scale(0.1 -0.1)">
       <use xlink:href="#DejaVuSans-34"/>
       <use xlink:href="#DejaVuSans-30" transform="translate(63.623047 0)"/>
       <use xlink:href="#DejaVuSans-30" transform="translate(127.246094 0)"/>
      </g>
     </g>
    </g>
    <g id="ytick_6">
     <g id="line2d_14">
      <g>
       <use xlink:href="#m5458fd1b16" x="46.965625" y="27.30218" style="stroke: #000000; stroke-width: 0.8"/>
      </g>
     </g>
     <g id="text_15">
      <!-- 500 -->
      <g transform="translate(20.878125 31.101398) scale(0.1 -0.1)">
       <use xlink:href="#DejaVuSans-35"/>
       <use xlink:href="#DejaVuSans-30" transform="translate(63.623047 0)"/>
       <use xlink:href="#DejaVuSans-30" transform="translate(127.246094 0)"/>
      </g>
     </g>
    </g>
    <g id="text_16">
     <!-- [counts] -->
     <g transform="translate(14.798438 138.6925) rotate(-90) scale(0.1 -0.1)">
      <defs>
       <path id="DejaVuSans-63" d="M 3122 3366 
L 3122 2828 
Q 2878 2963 2633 3030 
Q 2388 3097 2138 3097 
Q 1578 3097 1268 2742 
Q 959 2388 959 1747 
Q 959 1106 1268 751 
Q 1578 397 2138 397 
Q 2388 397 2633 464 
Q 2878 531 3122 666 
L 3122 134 
Q 2881 22 2623 -34 
Q 2366 -91 2075 -91 
Q 1284 -91 818 406 
Q 353 903 353 1747 
Q 353 2603 823 3093 
Q 1294 3584 2113 3584 
Q 2378 3584 2631 3529 
Q 2884 3475 3122 3366 
z
" transform="scale(0.015625)"/>
       <path id="DejaVuSans-75" d="M 544 1381 
L 544 3500 
L 1119 3500 
L 1119 1403 
Q 1119 906 1312 657 
Q 1506 409 1894 409 
Q 2359 409 2629 706 
Q 2900 1003 2900 1516 
L 2900 3500 
L 3475 3500 
L 3475 0 
L 2900 0 
L 2900 538 
Q 2691 219 2414 64 
Q 2138 -91 1772 -91 
Q 1169 -91 856 284 
Q 544 659 544 1381 
z
M 1991 3584 
L 1991 3584 
z
" transform="scale(0.015625)"/>
       <path id="DejaVuSans-6e" d="M 3513 2113 
L 3513 0 
L 2938 0 
L 2938 2094 
Q 2938 2591 2744 2837 
Q 2550 3084 2163 3084 
Q 1697 3084 1428 2787 
Q 1159 2491 1159 1978 
L 1159 0 
L 581 0 
L 581 3500 
L 1159 3500 
L 1159 2956 
Q 1366 3272 1645 3428 
Q 1925 3584 2291 3584 
Q 2894 3584 3203 3211 
Q 3513 2838 3513 2113 
z
" transform="scale(0.015625)"/>
      </defs>
      <use xlink:href="#DejaVuSans-5b"/>
      <use xlink:href="#DejaVuSans-63" transform="translate(39.013672 0)"/>
      <use xlink:href="#DejaVuSans-6f" transform="translate(93.994141 0)"/>
      <use xlink:href="#DejaVuSans-75" transform="translate(155.175781 0)"/>
      <use xlink:href="#DejaVuSans-6e" transform="translate(218.554688 0)"/>
      <use xlink:href="#DejaVuSans-74" transform="translate(281.933594 0)"/>
      <use xlink:href="#DejaVuSans-73" transform="translate(321.142578 0)"/>
      <use xlink:href="#DejaVuSans-5d" transform="translate(373.242188 0)"/>
     </g>
    </g>
   </g>
   <g id="patch_3">
    <path d="M 46.965625 228.96 
L 46.965625 7.2 
" style="fill: none; stroke: #000000; stroke-width: 0.8; stroke-linejoin: miter; stroke-linecap: square"/>
   </g>
   <g id="patch_4">
    <path d="M 381.765625 228.96 
L 381.765625 7.2 
" style="fill: none; stroke: #000000; stroke-width: 0.8; stroke-linejoin: miter; stroke-linecap: square"/>
   </g>
   <g id="patch_5">
    <path d="M 46.965625 228.96 
L 381.765625 228.96 
" style="fill: none; stroke: #000000; stroke-width: 0.8; stroke-linejoin: miter; stroke-linecap: square"/>
   </g>
   <g id="patch_6">
    <path d="M 46.965625 7.2 
L 381.765625 7.2 
" style="fill: none; stroke: #000000; stroke-width: 0.8; stroke-linejoin: miter; stroke-linecap: square"/>
   </g>
   <g id="line2d_15">
    <path d="M 62.183807 215.796252 
L 63.198352 215.796252 
L 63.198352 209.628757 
L 64.212898 209.628757 
L 64.212898 210.785163 
L 65.227443 210.785163 
L 65.227443 198.835641 
L 66.241989 198.835641 
L 66.241989 196.908298 
L 67.256534 196.908298 
L 67.256534 194.980956 
L 68.27108 194.980956 
L 68.27108 191.126272 
L 69.285625 191.126272 
L 69.285625 190.355335 
L 70.30017 190.355335 
L 70.30017 177.249407 
L 71.314716 177.249407 
L 71.314716 173.780191 
L 72.329261 173.780191 
L 72.329261 172.623786 
L 73.343807 172.623786 
L 73.343807 162.601606 
L 74.358352 162.601606 
L 74.358352 162.987075 
L 75.372898 162.987075 
L 75.372898 160.674264 
L 76.387443 160.674264 
L 76.387443 150.266616 
L 77.401989 150.266616 
L 77.401989 149.881147 
L 78.416534 149.881147 
L 78.416534 137.160688 
L 79.43108 137.160688 
L 79.43108 140.629904 
L 80.445625 140.629904 
L 80.445625 132.149598 
L 81.46017 132.149598 
L 81.46017 122.898356 
L 82.474716 122.898356 
L 82.474716 118.272734 
L 83.489261 118.272734 
L 83.489261 119.814608 
L 84.503807 119.814608 
L 84.503807 113.647113 
L 85.518352 113.647113 
L 85.518352 115.574455 
L 86.532898 115.574455 
L 86.532898 110.563365 
L 87.547443 110.563365 
L 87.547443 100.926654 
L 88.561989 100.926654 
L 88.561989 98.613843 
L 89.576534 98.613843 
L 89.576534 97.071969 
L 90.59108 97.071969 
L 90.59108 75.485736 
L 91.605625 75.485736 
L 91.605625 95.144627 
L 92.62017 95.144627 
L 92.62017 90.519006 
L 93.634716 90.519006 
L 93.634716 81.653231 
L 94.649261 81.653231 
L 94.649261 70.089178 
L 95.663807 70.089178 
L 95.663807 73.172925 
L 96.678352 73.172925 
L 96.678352 70.474646 
L 97.692898 70.474646 
L 97.692898 58.139656 
L 98.707443 58.139656 
L 98.707443 67.776367 
L 99.721989 67.776367 
L 99.721989 73.172925 
L 100.736534 73.172925 
L 100.736534 64.307151 
L 101.75108 64.307151 
L 101.75108 47.346539 
L 102.765625 47.346539 
L 102.765625 62.379809 
L 103.78017 62.379809 
L 103.78017 49.65935 
L 104.794716 49.65935 
L 104.794716 44.64826 
L 105.809261 44.64826 
L 105.809261 24.218432 
L 106.823807 24.218432 
L 106.823807 52.357629 
L 107.838352 52.357629 
L 107.838352 33.855143 
L 108.852898 33.855143 
L 108.852898 34.62608 
L 109.867443 34.62608 
L 109.867443 33.084207 
L 110.881989 33.084207 
L 110.881989 41.949981 
L 111.896534 41.949981 
L 111.896534 27.30218 
L 112.91108 27.30218 
L 112.91108 41.179044 
L 113.925625 41.179044 
L 113.925625 17.28 
L 114.94017 17.28 
L 114.94017 31.156864 
L 115.954716 31.156864 
L 115.954716 42.335449 
L 116.969261 42.335449 
L 116.969261 40.793576 
L 117.983807 40.793576 
L 117.983807 28.458585 
L 118.998352 28.458585 
L 118.998352 40.793576 
L 120.012898 40.793576 
L 120.012898 35.397017 
L 121.027443 35.397017 
L 121.027443 38.480765 
L 122.041989 38.480765 
L 122.041989 56.597782 
L 123.056534 56.597782 
L 123.056534 45.033728 
L 124.07108 45.033728 
L 124.07108 33.469675 
L 125.085625 33.469675 
L 125.085625 52.357629 
L 126.10017 52.357629 
L 126.10017 49.65935 
L 127.114716 49.65935 
L 127.114716 59.296061 
L 128.129261 59.296061 
L 128.129261 47.732008 
L 129.143807 47.732008 
L 129.143807 63.536214 
L 130.158352 63.536214 
L 130.158352 72.01652 
L 131.172898 72.01652 
L 131.172898 60.837935 
L 132.187443 60.837935 
L 132.187443 48.117476 
L 133.201989 48.117476 
L 133.201989 57.368719 
L 134.216534 57.368719 
L 134.216534 55.441377 
L 135.23108 55.441377 
L 135.23108 64.69262 
L 136.245625 64.69262 
L 136.245625 71.631052 
L 137.26017 71.631052 
L 137.26017 62.379809 
L 138.274716 62.379809 
L 138.274716 61.608872 
L 139.289261 61.608872 
L 139.289261 58.910593 
L 140.303807 58.910593 
L 140.303807 58.139656 
L 142.332898 58.139656 
L 142.332898 51.586692 
L 143.347443 51.586692 
L 143.347443 74.714799 
L 144.361989 74.714799 
L 144.361989 67.390899 
L 145.376534 67.390899 
L 145.376534 49.65935 
L 146.39108 49.65935 
L 146.39108 69.318241 
L 147.405625 69.318241 
L 147.405625 60.452467 
L 148.42017 60.452467 
L 148.42017 68.547304 
L 149.434716 68.547304 
L 149.434716 70.089178 
L 150.449261 70.089178 
L 150.449261 68.932772 
L 151.463807 68.932772 
L 151.463807 90.133537 
L 152.478352 90.133537 
L 152.478352 76.642141 
L 153.492898 76.642141 
L 153.492898 73.943862 
L 154.507443 73.943862 
L 154.507443 80.111358 
L 155.521989 80.111358 
L 155.521989 69.703709 
L 156.536534 69.703709 
L 156.536534 82.809637 
L 157.55108 82.809637 
L 157.55108 84.736979 
L 158.565625 84.736979 
L 158.565625 82.0387 
L 159.58017 82.0387 
L 159.58017 66.619962 
L 160.594716 66.619962 
L 160.594716 75.100268 
L 161.609261 75.100268 
L 161.609261 66.234493 
L 162.623807 66.234493 
L 162.623807 69.318241 
L 163.638352 69.318241 
L 163.638352 85.507916 
L 164.652898 85.507916 
L 164.652898 83.580574 
L 165.667443 83.580574 
L 165.667443 78.954952 
L 166.681989 78.954952 
L 166.681989 93.988222 
L 167.696534 93.988222 
L 167.696534 83.966042 
L 168.71108 83.966042 
L 168.71108 80.882294 
L 169.725625 80.882294 
L 169.725625 82.809637 
L 170.74017 82.809637 
L 170.74017 84.351511 
L 171.754716 84.351511 
L 171.754716 96.301033 
L 172.769261 96.301033 
L 172.769261 82.809637 
L 173.783807 82.809637 
L 173.783807 104.781338 
L 174.798352 104.781338 
L 174.798352 73.943862 
L 175.812898 73.943862 
L 175.812898 90.519006 
L 176.827443 90.519006 
L 176.827443 101.697591 
L 177.841989 101.697591 
L 177.841989 94.37369 
L 178.856534 94.37369 
L 178.856534 90.133537 
L 179.87108 90.133537 
L 179.87108 94.759159 
L 180.885625 94.759159 
L 180.885625 105.937744 
L 181.90017 105.937744 
L 181.90017 113.647113 
L 182.914716 113.647113 
L 182.914716 107.479618 
L 183.929261 107.479618 
L 183.929261 116.345392 
L 184.943807 116.345392 
L 184.943807 129.836788 
L 185.958352 129.836788 
L 185.958352 132.149598 
L 186.972898 132.149598 
L 186.972898 127.909446 
L 187.987443 127.909446 
L 187.987443 136.389751 
L 189.001989 136.389751 
L 189.001989 144.09912 
L 190.016534 144.09912 
L 190.016534 139.858967 
L 191.03108 139.858967 
L 191.03108 143.713652 
L 192.045625 143.713652 
L 192.045625 148.339273 
L 193.06017 148.339273 
L 193.06017 157.205048 
L 194.074716 157.205048 
L 194.074716 154.892237 
L 195.089261 154.892237 
L 195.089261 167.612696 
L 196.103807 167.612696 
L 196.103807 179.17675 
L 197.118352 179.17675 
L 197.118352 182.645966 
L 198.132898 182.645966 
L 198.132898 175.322065 
L 199.147443 175.322065 
L 199.147443 176.863939 
L 200.161989 176.863939 
L 200.161989 188.042524 
L 201.176534 188.042524 
L 201.176534 188.427992 
L 202.19108 188.427992 
L 202.19108 196.52283 
L 203.205625 196.52283 
L 203.205625 201.53392 
L 204.22017 201.53392 
L 204.22017 204.617667 
L 205.234716 204.617667 
L 205.234716 210.399694 
L 206.249261 210.399694 
L 206.249261 208.086883 
L 207.263807 208.086883 
L 207.263807 210.785163 
L 208.278352 210.785163 
L 208.278352 215.410784 
L 209.292898 215.410784 
L 209.292898 216.181721 
L 210.307443 216.181721 
L 210.307443 218.494532 
L 212.336534 218.494532 
L 212.336534 215.796252 
L 213.35108 215.796252 
L 213.35108 213.483442 
L 214.365625 213.483442 
L 214.365625 205.774073 
L 215.38017 205.774073 
L 215.38017 203.84673 
L 216.394716 203.84673 
L 216.394716 200.762983 
L 217.409261 200.762983 
L 217.409261 200.377514 
L 218.423807 200.377514 
L 218.423807 192.668145 
L 219.438352 192.668145 
L 219.438352 189.969866 
L 220.452898 189.969866 
L 220.452898 191.897208 
L 221.467443 191.897208 
L 221.467443 180.718623 
L 222.481989 180.718623 
L 222.481989 178.791281 
L 223.496534 178.791281 
L 223.496534 169.540038 
L 224.51108 169.540038 
L 224.51108 169.15457 
L 225.525625 169.15457 
L 225.525625 170.310975 
L 226.54017 170.310975 
L 226.54017 160.288795 
L 227.554716 160.288795 
L 227.554716 156.434111 
L 228.569261 156.434111 
L 228.569261 163.758011 
L 229.583807 163.758011 
L 229.583807 152.964895 
L 230.598352 152.964895 
L 230.598352 151.423021 
L 231.612898 151.423021 
L 231.612898 150.266616 
L 232.627443 150.266616 
L 232.627443 150.652084 
L 233.641989 150.652084 
L 233.641989 139.088031 
L 234.656534 139.088031 
L 234.656534 147.182868 
L 235.67108 147.182868 
L 235.67108 141.400841 
L 236.685625 141.400841 
L 236.685625 136.004283 
L 237.70017 136.004283 
L 237.70017 132.535067 
L 238.714716 132.535067 
L 238.714716 138.702562 
L 239.729261 138.702562 
L 239.729261 125.211166 
L 240.743807 125.211166 
L 240.743807 125.596635 
L 241.758352 125.596635 
L 241.758352 127.138509 
L 242.772898 127.138509 
L 242.772898 142.171778 
L 243.787443 142.171778 
L 243.787443 111.334302 
L 244.801989 111.334302 
L 244.801989 107.479618 
L 245.816534 107.479618 
L 245.816534 128.294914 
L 246.83108 128.294914 
L 246.83108 109.792428 
L 247.845625 109.792428 
L 247.845625 117.116329 
L 248.86017 117.116329 
L 248.86017 104.39587 
L 249.874716 104.39587 
L 249.874716 114.803518 
L 250.889261 114.803518 
L 250.889261 117.116329 
L 251.903807 117.116329 
L 251.903807 108.636023 
L 252.918352 108.636023 
L 252.918352 118.658203 
L 253.932898 118.658203 
L 253.932898 97.842906 
L 254.947443 97.842906 
L 254.947443 98.613843 
L 255.961989 98.613843 
L 255.961989 104.781338 
L 256.976534 104.781338 
L 256.976534 101.697591 
L 257.99108 101.697591 
L 257.99108 103.624933 
L 259.005625 103.624933 
L 259.005625 83.195105 
L 260.02017 83.195105 
L 260.02017 102.083059 
L 261.034716 102.083059 
L 261.034716 87.435258 
L 262.049261 87.435258 
L 262.049261 82.809637 
L 263.063807 82.809637 
L 263.063807 94.759159 
L 265.092898 94.759159 
L 265.092898 82.424168 
L 266.107443 82.424168 
L 266.107443 80.496826 
L 267.121989 80.496826 
L 267.121989 99.770249 
L 268.136534 99.770249 
L 268.136534 105.166807 
L 269.15108 105.166807 
L 269.15108 100.155717 
L 270.165625 100.155717 
L 270.165625 101.312122 
L 271.18017 101.312122 
L 271.18017 104.39587 
L 272.194716 104.39587 
L 272.194716 98.999312 
L 273.209261 98.999312 
L 273.209261 105.166807 
L 274.223807 105.166807 
L 274.223807 111.334302 
L 275.238352 111.334302 
L 275.238352 98.613843 
L 276.252898 98.613843 
L 276.252898 105.937744 
L 277.267443 105.937744 
L 277.267443 96.301033 
L 278.281989 96.301033 
L 278.281989 115.574455 
L 279.296534 115.574455 
L 279.296534 107.094149 
L 280.31108 107.094149 
L 280.31108 115.188987 
L 281.325625 115.188987 
L 281.325625 116.73086 
L 282.34017 116.73086 
L 282.34017 115.574455 
L 283.354716 115.574455 
L 283.354716 114.803518 
L 284.369261 114.803518 
L 284.369261 117.501797 
L 285.383807 117.501797 
L 285.383807 124.054761 
L 286.398352 124.054761 
L 286.398352 122.898356 
L 287.412898 122.898356 
L 287.412898 111.334302 
L 288.427443 111.334302 
L 288.427443 126.75304 
L 289.441989 126.75304 
L 289.441989 129.065851 
L 290.456534 129.065851 
L 290.456534 116.73086 
L 291.47108 116.73086 
L 291.47108 127.138509 
L 292.485625 127.138509 
L 292.485625 135.233346 
L 293.50017 135.233346 
L 293.50017 141.400841 
L 294.514716 141.400841 
L 294.514716 132.535067 
L 295.529261 132.535067 
L 295.529261 131.378662 
L 296.543807 131.378662 
L 296.543807 121.356482 
L 297.558352 121.356482 
L 297.558352 134.462409 
L 298.572898 134.462409 
L 298.572898 122.898356 
L 299.587443 122.898356 
L 299.587443 129.451319 
L 300.601989 129.451319 
L 300.601989 129.836788 
L 301.616534 129.836788 
L 301.616534 128.680382 
L 302.63108 128.680382 
L 302.63108 131.378662 
L 303.645625 131.378662 
L 303.645625 140.629904 
L 304.66017 140.629904 
L 304.66017 152.193958 
L 305.674716 152.193958 
L 305.674716 133.306004 
L 306.689261 133.306004 
L 306.689261 141.78631 
L 307.703807 141.78631 
L 307.703807 137.931625 
L 309.732898 137.931625 
L 309.732898 139.858967 
L 310.747443 139.858967 
L 310.747443 152.579426 
L 311.761989 152.579426 
L 311.761989 146.411931 
L 312.776534 146.411931 
L 312.776534 146.7974 
L 313.79108 146.7974 
L 313.79108 149.881147 
L 314.805625 149.881147 
L 314.805625 149.495679 
L 315.82017 149.495679 
L 315.82017 151.423021 
L 316.834716 151.423021 
L 316.834716 162.601606 
L 317.849261 162.601606 
L 317.849261 151.037553 
L 318.863807 151.037553 
L 318.863807 156.434111 
L 319.878352 156.434111 
L 319.878352 149.11021 
L 320.892898 149.11021 
L 320.892898 153.735832 
L 321.907443 153.735832 
L 321.907443 154.1213 
L 322.921989 154.1213 
L 322.921989 160.674264 
L 323.936534 160.674264 
L 323.936534 160.288795 
L 325.965625 160.288795 
L 325.965625 165.685354 
L 326.98017 165.685354 
L 326.98017 158.361453 
L 327.994716 158.361453 
L 327.994716 166.841759 
L 329.009261 166.841759 
L 329.009261 152.193958 
L 330.023807 152.193958 
L 330.023807 161.059732 
L 331.038352 161.059732 
L 331.038352 169.15457 
L 332.052898 169.15457 
L 332.052898 172.623786 
L 333.067443 172.623786 
L 333.067443 166.456291 
L 334.081989 166.456291 
L 334.081989 166.841759 
L 335.096534 166.841759 
L 335.096534 183.416902 
L 336.11108 183.416902 
L 336.11108 181.104092 
L 337.125625 181.104092 
L 337.125625 183.416902 
L 338.14017 183.416902 
L 338.14017 187.271587 
L 339.154716 187.271587 
L 339.154716 185.344245 
L 340.169261 185.344245 
L 340.169261 193.439082 
L 341.183807 193.439082 
L 341.183807 191.51174 
L 342.198352 191.51174 
L 342.198352 192.282677 
L 343.212898 192.282677 
L 343.212898 195.751893 
L 344.227443 195.751893 
L 344.227443 194.595488 
L 345.241989 194.595488 
L 345.241989 202.304857 
L 346.256534 202.304857 
L 346.256534 196.908298 
L 347.27108 196.908298 
L 347.27108 202.690325 
L 348.285625 202.690325 
L 348.285625 200.762983 
L 349.30017 200.762983 
L 349.30017 206.930478 
L 350.314716 206.930478 
L 350.314716 209.628757 
L 351.329261 209.628757 
L 351.329261 207.701415 
L 352.343807 207.701415 
L 352.343807 210.014226 
L 353.358352 210.014226 
L 353.358352 210.785163 
L 354.372898 210.785163 
L 354.372898 208.85782 
L 355.387443 208.85782 
L 355.387443 211.556099 
L 356.401989 211.556099 
L 356.401989 217.338126 
L 357.416534 217.338126 
L 357.416534 216.567189 
L 358.43108 216.567189 
L 358.43108 216.181721 
L 359.445625 216.181721 
L 359.445625 215.410784 
L 360.46017 215.410784 
L 360.46017 215.796252 
L 361.474716 215.796252 
L 361.474716 216.567189 
L 362.489261 216.567189 
L 362.489261 218.88 
L 365.532898 218.88 
L 365.532898 218.494532 
L 366.547443 218.494532 
L 366.547443 218.494532 
" clip-path="url(#p0e1e2d86f9)" style="fill: none; stroke: #1f77b4; stroke-width: 1.5; stroke-linecap: square"/>
   </g>
  </g>
 </g>
 <defs>
  <clipPath id="p0e1e2d86f9">
   <rect x="46.965625" y="7.2" width="334.8" height="221.76"/>
  </clipPath>
 </defs>
</svg>
