<?xml version="1.0" encoding="utf-8" standalone="no"?>
<!DOCTYPE svg PUBLIC "-//W3C//DTD SVG 1.1//EN"
  "http://www.w3.org/Graphics/SVG/1.1/DTD/svg11.dtd">
<svg xmlns:xlink="http://www.w3.org/1999/xlink" width="395.328125pt" height="266.51625pt" viewBox="0 0 395.328125 266.51625" xmlns="http://www.w3.org/2000/svg" version="1.1">
 <metadata>
  <rdf:RDF xmlns:dc="http://purl.org/dc/elements/1.1/" xmlns:cc="http://creativecommons.org/ns#" xmlns:rdf="http://www.w3.org/1999/02/22-rdf-syntax-ns#">
   <cc:Work>
    <dc:type rdf:resource="http://purl.org/dc/dcmitype/StillImage"/>
    <dc:date>2025-02-27T10:08:57.095574</dc:date>
    <dc:format>image/svg+xml</dc:format>
    <dc:creator>
     <cc:Agent>
      <dc:title>Matplotlib v3.10.0, https://matplotlib.org/</dc:title>
     </cc:Agent>
    </dc:creator>
   </cc:Work>
  </rdf:RDF>
 </metadata>
 <defs>
  <style type="text/css">*{stroke-linejoin: round; stroke-linecap: butt}</style>
 </defs>
 <g id="figure_1">
  <g id="patch_1">
   <path d="M 0 266.51625 
L 395.328125 266.51625 
L 395.328125 0 
L 0 0 
z
" style="fill: #ffffff"/>
  </g>
  <g id="axes_1">
   <g id="patch_2">
    <path d="M 53.328125 228.96 
L 388.128125 228.96 
L 388.128125 7.2 
L 53.328125 7.2 
z
" style="fill: #ffffff"/>
   </g>
   <g id="matplotlib.axis_1">
    <g id="xtick_1">
     <g id="line2d_1">
      <defs>
       <path id="m667c97c8a5" d="M 0 0 
L 0 3.5 
" style="stroke: #000000; stroke-width: 0.8"/>
      </defs>
      <g>
       <use xlink:href="#m667c97c8a5" x="57.728183" y="228.96" style="stroke: #000000; stroke-width: 0.8"/>
      </g>
     </g>
     <g id="text_1">
      <!-- 25000 -->
      <g transform="translate(41.821933 243.558437) scale(0.1 -0.1)">
       <defs>
        <path id="DejaVuSans-32" d="M 1228 531 
L 3431 531 
L 3431 0 
L 469 0 
L 469 531 
Q 828 903 1448 1529 
Q 2069 2156 2228 2338 
Q 2531 2678 2651 2914 
Q 2772 3150 2772 3378 
Q 2772 3750 2511 3984 
Q 2250 4219 1831 4219 
Q 1534 4219 1204 4116 
Q 875 4013 500 3803 
L 500 4441 
Q 881 4594 1212 4672 
Q 1544 4750 1819 4750 
Q 2544 4750 2975 4387 
Q 3406 4025 3406 3419 
Q 3406 3131 3298 2873 
Q 3191 2616 2906 2266 
Q 2828 2175 2409 1742 
Q 1991 1309 1228 531 
z
" transform="scale(0.015625)"/>
        <path id="DejaVuSans-35" d="M 691 4666 
L 3169 4666 
L 3169 4134 
L 1269 4134 
L 1269 2991 
Q 1406 3038 1543 3061 
Q 1681 3084 1819 3084 
Q 2600 3084 3056 2656 
Q 3513 2228 3513 1497 
Q 3513 744 3044 326 
Q 2575 -91 1722 -91 
Q 1428 -91 1123 -41 
Q 819 9 494 109 
L 494 744 
Q 775 591 1075 516 
Q 1375 441 1709 441 
Q 2250 441 2565 725 
Q 2881 1009 2881 1497 
Q 2881 1984 2565 2268 
Q 2250 2553 1709 2553 
Q 1456 2553 1204 2497 
Q 953 2441 691 2322 
L 691 4666 
z
" transform="scale(0.015625)"/>
        <path id="DejaVuSans-30" d="M 2034 4250 
Q 1547 4250 1301 3770 
Q 1056 3291 1056 2328 
Q 1056 1369 1301 889 
Q 1547 409 2034 409 
Q 2525 409 2770 889 
Q 3016 1369 3016 2328 
Q 3016 3291 2770 3770 
Q 2525 4250 2034 4250 
z
M 2034 4750 
Q 2819 4750 3233 4129 
Q 3647 3509 3647 2328 
Q 3647 1150 3233 529 
Q 2819 -91 2034 -91 
Q 1250 -91 836 529 
Q 422 1150 422 2328 
Q 422 3509 836 4129 
Q 1250 4750 2034 4750 
z
" transform="scale(0.015625)"/>
       </defs>
       <use xlink:href="#DejaVuSans-32"/>
       <use xlink:href="#DejaVuSans-35" transform="translate(63.623047 0)"/>
       <use xlink:href="#DejaVuSans-30" transform="translate(127.246094 0)"/>
       <use xlink:href="#DejaVuSans-30" transform="translate(190.869141 0)"/>
       <use xlink:href="#DejaVuSans-30" transform="translate(254.492188 0)"/>
      </g>
     </g>
    </g>
    <g id="xtick_2">
     <g id="line2d_2">
      <g>
       <use xlink:href="#m667c97c8a5" x="95.773638" y="228.96" style="stroke: #000000; stroke-width: 0.8"/>
      </g>
     </g>
     <g id="text_2">
      <!-- 50000 -->
      <g transform="translate(79.867388 243.558437) scale(0.1 -0.1)">
       <use xlink:href="#DejaVuSans-35"/>
       <use xlink:href="#DejaVuSans-30" transform="translate(63.623047 0)"/>
       <use xlink:href="#DejaVuSans-30" transform="translate(127.246094 0)"/>
       <use xlink:href="#DejaVuSans-30" transform="translate(190.869141 0)"/>
       <use xlink:href="#DejaVuSans-30" transform="translate(254.492188 0)"/>
      </g>
     </g>
    </g>
    <g id="xtick_3">
     <g id="line2d_3">
      <g>
       <use xlink:href="#m667c97c8a5" x="133.819092" y="228.96" style="stroke: #000000; stroke-width: 0.8"/>
      </g>
     </g>
     <g id="text_3">
      <!-- 75000 -->
      <g transform="translate(117.912842 243.558437) scale(0.1 -0.1)">
       <defs>
        <path id="DejaVuSans-37" d="M 525 4666 
L 3525 4666 
L 3525 4397 
L 1831 0 
L 1172 0 
L 2766 4134 
L 525 4134 
L 525 4666 
z
" transform="scale(0.015625)"/>
       </defs>
       <use xlink:href="#DejaVuSans-37"/>
       <use xlink:href="#DejaVuSans-35" transform="translate(63.623047 0)"/>
       <use xlink:href="#DejaVuSans-30" transform="translate(127.246094 0)"/>
       <use xlink:href="#DejaVuSans-30" transform="translate(190.869141 0)"/>
       <use xlink:href="#DejaVuSans-30" transform="translate(254.492188 0)"/>
      </g>
     </g>
    </g>
    <g id="xtick_4">
     <g id="line2d_4">
      <g>
       <use xlink:href="#m667c97c8a5" x="171.864547" y="228.96" style="stroke: #000000; stroke-width: 0.8"/>
      </g>
     </g>
     <g id="text_4">
      <!-- 100000 -->
      <g transform="translate(152.777047 243.558437) scale(0.1 -0.1)">
       <defs>
        <path id="DejaVuSans-31" d="M 794 531 
L 1825 531 
L 1825 4091 
L 703 3866 
L 703 4441 
L 1819 4666 
L 2450 4666 
L 2450 531 
L 3481 531 
L 3481 0 
L 794 0 
L 794 531 
z
" transform="scale(0.015625)"/>
       </defs>
       <use xlink:href="#DejaVuSans-31"/>
       <use xlink:href="#DejaVuSans-30" transform="translate(63.623047 0)"/>
       <use xlink:href="#DejaVuSans-30" transform="translate(127.246094 0)"/>
       <use xlink:href="#DejaVuSans-30" transform="translate(190.869141 0)"/>
       <use xlink:href="#DejaVuSans-30" transform="translate(254.492188 0)"/>
       <use xlink:href="#DejaVuSans-30" transform="translate(318.115234 0)"/>
      </g>
     </g>
    </g>
    <g id="xtick_5">
     <g id="line2d_5">
      <g>
       <use xlink:href="#m667c97c8a5" x="209.910001" y="228.96" style="stroke: #000000; stroke-width: 0.8"/>
      </g>
     </g>
     <g id="text_5">
      <!-- 125000 -->
      <g transform="translate(190.822501 243.558437) scale(0.1 -0.1)">
       <use xlink:href="#DejaVuSans-31"/>
       <use xlink:href="#DejaVuSans-32" transform="translate(63.623047 0)"/>
       <use xlink:href="#DejaVuSans-35" transform="translate(127.246094 0)"/>
       <use xlink:href="#DejaVuSans-30" transform="translate(190.869141 0)"/>
       <use xlink:href="#DejaVuSans-30" transform="translate(254.492188 0)"/>
       <use xlink:href="#DejaVuSans-30" transform="translate(318.115234 0)"/>
      </g>
     </g>
    </g>
    <g id="xtick_6">
     <g id="line2d_6">
      <g>
       <use xlink:href="#m667c97c8a5" x="247.955456" y="228.96" style="stroke: #000000; stroke-width: 0.8"/>
      </g>
     </g>
     <g id="text_6">
      <!-- 150000 -->
      <g transform="translate(228.867956 243.558437) scale(0.1 -0.1)">
       <use xlink:href="#DejaVuSans-31"/>
       <use xlink:href="#DejaVuSans-35" transform="translate(63.623047 0)"/>
       <use xlink:href="#DejaVuSans-30" transform="translate(127.246094 0)"/>
       <use xlink:href="#DejaVuSans-30" transform="translate(190.869141 0)"/>
       <use xlink:href="#DejaVuSans-30" transform="translate(254.492188 0)"/>
       <use xlink:href="#DejaVuSans-30" transform="translate(318.115234 0)"/>
      </g>
     </g>
    </g>
    <g id="xtick_7">
     <g id="line2d_7">
      <g>
       <use xlink:href="#m667c97c8a5" x="286.00091" y="228.96" style="stroke: #000000; stroke-width: 0.8"/>
      </g>
     </g>
     <g id="text_7">
      <!-- 175000 -->
      <g transform="translate(266.91341 243.558437) scale(0.1 -0.1)">
       <use xlink:href="#DejaVuSans-31"/>
       <use xlink:href="#DejaVuSans-37" transform="translate(63.623047 0)"/>
       <use xlink:href="#DejaVuSans-35" transform="translate(127.246094 0)"/>
       <use xlink:href="#DejaVuSans-30" transform="translate(190.869141 0)"/>
       <use xlink:href="#DejaVuSans-30" transform="translate(254.492188 0)"/>
       <use xlink:href="#DejaVuSans-30" transform="translate(318.115234 0)"/>
      </g>
     </g>
    </g>
    <g id="xtick_8">
     <g id="line2d_8">
      <g>
       <use xlink:href="#m667c97c8a5" x="324.046365" y="228.96" style="stroke: #000000; stroke-width: 0.8"/>
      </g>
     </g>
     <g id="text_8">
      <!-- 200000 -->
      <g transform="translate(304.958865 243.558437) scale(0.1 -0.1)">
       <use xlink:href="#DejaVuSans-32"/>
       <use xlink:href="#DejaVuSans-30" transform="translate(63.623047 0)"/>
       <use xlink:href="#DejaVuSans-30" transform="translate(127.246094 0)"/>
       <use xlink:href="#DejaVuSans-30" transform="translate(190.869141 0)"/>
       <use xlink:href="#DejaVuSans-30" transform="translate(254.492188 0)"/>
       <use xlink:href="#DejaVuSans-30" transform="translate(318.115234 0)"/>
      </g>
     </g>
    </g>
    <g id="xtick_9">
     <g id="line2d_9">
      <g>
       <use xlink:href="#m667c97c8a5" x="362.09182" y="228.96" style="stroke: #000000; stroke-width: 0.8"/>
      </g>
     </g>
     <g id="text_9">
      <!-- 225000 -->
      <g transform="translate(343.00432 243.558437) scale(0.1 -0.1)">
       <use xlink:href="#DejaVuSans-32"/>
       <use xlink:href="#DejaVuSans-32" transform="translate(63.623047 0)"/>
       <use xlink:href="#DejaVuSans-35" transform="translate(127.246094 0)"/>
       <use xlink:href="#DejaVuSans-30" transform="translate(190.869141 0)"/>
       <use xlink:href="#DejaVuSans-30" transform="translate(254.492188 0)"/>
       <use xlink:href="#DejaVuSans-30" transform="translate(318.115234 0)"/>
      </g>
     </g>
    </g>
    <g id="text_10">
     <!-- tof [µs] -->
     <g transform="translate(202.671875 257.236562) scale(0.1 -0.1)">
      <defs>
       <path id="DejaVuSans-74" d="M 1172 4494 
L 1172 3500 
L 2356 3500 
L 2356 3053 
L 1172 3053 
L 1172 1153 
Q 1172 725 1289 603 
Q 1406 481 1766 481 
L 2356 481 
L 2356 0 
L 1766 0 
Q 1100 0 847 248 
Q 594 497 594 1153 
L 594 3053 
L 172 3053 
L 172 3500 
L 594 3500 
L 594 4494 
L 1172 4494 
z
" transform="scale(0.015625)"/>
       <path id="DejaVuSans-6f" d="M 1959 3097 
Q 1497 3097 1228 2736 
Q 959 2375 959 1747 
Q 959 1119 1226 758 
Q 1494 397 1959 397 
Q 2419 397 2687 759 
Q 2956 1122 2956 1747 
Q 2956 2369 2687 2733 
Q 2419 3097 1959 3097 
z
M 1959 3584 
Q 2709 3584 3137 3096 
Q 3566 2609 3566 1747 
Q 3566 888 3137 398 
Q 2709 -91 1959 -91 
Q 1206 -91 779 398 
Q 353 888 353 1747 
Q 353 2609 779 3096 
Q 1206 3584 1959 3584 
z
" transform="scale(0.015625)"/>
       <path id="DejaVuSans-66" d="M 2375 4863 
L 2375 4384 
L 1825 4384 
Q 1516 4384 1395 4259 
Q 1275 4134 1275 3809 
L 1275 3500 
L 2222 3500 
L 2222 3053 
L 1275 3053 
L 1275 0 
L 697 0 
L 697 3053 
L 147 3053 
L 147 3500 
L 697 3500 
L 697 3744 
Q 697 4328 969 4595 
Q 1241 4863 1831 4863 
L 2375 4863 
z
" transform="scale(0.015625)"/>
       <path id="DejaVuSans-20" transform="scale(0.015625)"/>
       <path id="DejaVuSans-5b" d="M 550 4863 
L 1875 4863 
L 1875 4416 
L 1125 4416 
L 1125 -397 
L 1875 -397 
L 1875 -844 
L 550 -844 
L 550 4863 
z
" transform="scale(0.015625)"/>
       <path id="DejaVuSans-b5" d="M 544 -1331 
L 544 3500 
L 1119 3500 
L 1119 1325 
Q 1119 872 1334 640 
Q 1550 409 1972 409 
Q 2434 409 2667 671 
Q 2900 934 2900 1459 
L 2900 3500 
L 3475 3500 
L 3475 806 
Q 3475 619 3529 530 
Q 3584 441 3700 441 
Q 3728 441 3778 458 
Q 3828 475 3916 513 
L 3916 50 
Q 3788 -22 3673 -56 
Q 3559 -91 3450 -91 
Q 3234 -91 3106 31 
Q 2978 153 2931 403 
Q 2775 156 2548 32 
Q 2322 -91 2016 -91 
Q 1697 -91 1473 31 
Q 1250 153 1119 397 
L 1119 -1331 
L 544 -1331 
z
" transform="scale(0.015625)"/>
       <path id="DejaVuSans-73" d="M 2834 3397 
L 2834 2853 
Q 2591 2978 2328 3040 
Q 2066 3103 1784 3103 
Q 1356 3103 1142 2972 
Q 928 2841 928 2578 
Q 928 2378 1081 2264 
Q 1234 2150 1697 2047 
L 1894 2003 
Q 2506 1872 2764 1633 
Q 3022 1394 3022 966 
Q 3022 478 2636 193 
Q 2250 -91 1575 -91 
Q 1294 -91 989 -36 
Q 684 19 347 128 
L 347 722 
Q 666 556 975 473 
Q 1284 391 1588 391 
Q 1994 391 2212 530 
Q 2431 669 2431 922 
Q 2431 1156 2273 1281 
Q 2116 1406 1581 1522 
L 1381 1569 
Q 847 1681 609 1914 
Q 372 2147 372 2553 
Q 372 3047 722 3315 
Q 1072 3584 1716 3584 
Q 2034 3584 2315 3537 
Q 2597 3491 2834 3397 
z
" transform="scale(0.015625)"/>
       <path id="DejaVuSans-5d" d="M 1947 4863 
L 1947 -844 
L 622 -844 
L 622 -397 
L 1369 -397 
L 1369 4416 
L 622 4416 
L 622 4863 
L 1947 4863 
z
" transform="scale(0.015625)"/>
      </defs>
      <use xlink:href="#DejaVuSans-74"/>
      <use xlink:href="#DejaVuSans-6f" transform="translate(39.208984 0)"/>
      <use xlink:href="#DejaVuSans-66" transform="translate(100.390625 0)"/>
      <use xlink:href="#DejaVuSans-20" transform="translate(135.595703 0)"/>
      <use xlink:href="#DejaVuSans-5b" transform="translate(167.382812 0)"/>
      <use xlink:href="#DejaVuSans-b5" transform="translate(206.396484 0)"/>
      <use xlink:href="#DejaVuSans-73" transform="translate(270.019531 0)"/>
      <use xlink:href="#DejaVuSans-5d" transform="translate(322.119141 0)"/>
     </g>
    </g>
   </g>
   <g id="matplotlib.axis_2">
    <g id="ytick_1">
     <g id="line2d_10">
      <defs>
       <path id="mbedc7249ce" d="M 0 0 
L -3.5 0 
" style="stroke: #000000; stroke-width: 0.8"/>
      </defs>
      <g>
       <use xlink:href="#mbedc7249ce" x="53.328125" y="218.88" style="stroke: #000000; stroke-width: 0.8"/>
      </g>
     </g>
     <g id="text_11">
      <!-- 0 -->
      <g transform="translate(39.965625 222.679219) scale(0.1 -0.1)">
       <use xlink:href="#DejaVuSans-30"/>
      </g>
     </g>
    </g>
    <g id="ytick_2">
     <g id="line2d_11">
      <g>
       <use xlink:href="#mbedc7249ce" x="53.328125" y="190.304522" style="stroke: #000000; stroke-width: 0.8"/>
      </g>
     </g>
     <g id="text_12">
      <!-- 200 -->
      <g transform="translate(27.240625 194.10374) scale(0.1 -0.1)">
       <use xlink:href="#DejaVuSans-32"/>
       <use xlink:href="#DejaVuSans-30" transform="translate(63.623047 0)"/>
       <use xlink:href="#DejaVuSans-30" transform="translate(127.246094 0)"/>
      </g>
     </g>
    </g>
    <g id="ytick_3">
     <g id="line2d_12">
      <g>
       <use xlink:href="#mbedc7249ce" x="53.328125" y="161.729043" style="stroke: #000000; stroke-width: 0.8"/>
      </g>
     </g>
     <g id="text_13">
      <!-- 400 -->
      <g transform="translate(27.240625 165.528262) scale(0.1 -0.1)">
       <defs>
        <path id="DejaVuSans-34" d="M 2419 4116 
L 825 1625 
L 2419 1625 
L 2419 4116 
z
M 2253 4666 
L 3047 4666 
L 3047 1625 
L 3713 1625 
L 3713 1100 
L 3047 1100 
L 3047 0 
L 2419 0 
L 2419 1100 
L 313 1100 
L 313 1709 
L 2253 4666 
z
" transform="scale(0.015625)"/>
       </defs>
       <use xlink:href="#DejaVuSans-34"/>
       <use xlink:href="#DejaVuSans-30" transform="translate(63.623047 0)"/>
       <use xlink:href="#DejaVuSans-30" transform="translate(127.246094 0)"/>
      </g>
     </g>
    </g>
    <g id="ytick_4">
     <g id="line2d_13">
      <g>
       <use xlink:href="#mbedc7249ce" x="53.328125" y="133.153565" style="stroke: #000000; stroke-width: 0.8"/>
      </g>
     </g>
     <g id="text_14">
      <!-- 600 -->
      <g transform="translate(27.240625 136.952784) scale(0.1 -0.1)">
       <defs>
        <path id="DejaVuSans-36" d="M 2113 2584 
Q 1688 2584 1439 2293 
Q 1191 2003 1191 1497 
Q 1191 994 1439 701 
Q 1688 409 2113 409 
Q 2538 409 2786 701 
Q 3034 994 3034 1497 
Q 3034 2003 2786 2293 
Q 2538 2584 2113 2584 
z
M 3366 4563 
L 3366 3988 
Q 3128 4100 2886 4159 
Q 2644 4219 2406 4219 
Q 1781 4219 1451 3797 
Q 1122 3375 1075 2522 
Q 1259 2794 1537 2939 
Q 1816 3084 2150 3084 
Q 2853 3084 3261 2657 
Q 3669 2231 3669 1497 
Q 3669 778 3244 343 
Q 2819 -91 2113 -91 
Q 1303 -91 875 529 
Q 447 1150 447 2328 
Q 447 3434 972 4092 
Q 1497 4750 2381 4750 
Q 2619 4750 2861 4703 
Q 3103 4656 3366 4563 
z
" transform="scale(0.015625)"/>
       </defs>
       <use xlink:href="#DejaVuSans-36"/>
       <use xlink:href="#DejaVuSans-30" transform="translate(63.623047 0)"/>
       <use xlink:href="#DejaVuSans-30" transform="translate(127.246094 0)"/>
      </g>
     </g>
    </g>
    <g id="ytick_5">
     <g id="line2d_14">
      <g>
       <use xlink:href="#mbedc7249ce" x="53.328125" y="104.578086" style="stroke: #000000; stroke-width: 0.8"/>
      </g>
     </g>
     <g id="text_15">
      <!-- 800 -->
      <g transform="translate(27.240625 108.377305) scale(0.1 -0.1)">
       <defs>
        <path id="DejaVuSans-38" d="M 2034 2216 
Q 1584 2216 1326 1975 
Q 1069 1734 1069 1313 
Q 1069 891 1326 650 
Q 1584 409 2034 409 
Q 2484 409 2743 651 
Q 3003 894 3003 1313 
Q 3003 1734 2745 1975 
Q 2488 2216 2034 2216 
z
M 1403 2484 
Q 997 2584 770 2862 
Q 544 3141 544 3541 
Q 544 4100 942 4425 
Q 1341 4750 2034 4750 
Q 2731 4750 3128 4425 
Q 3525 4100 3525 3541 
Q 3525 3141 3298 2862 
Q 3072 2584 2669 2484 
Q 3125 2378 3379 2068 
Q 3634 1759 3634 1313 
Q 3634 634 3220 271 
Q 2806 -91 2034 -91 
Q 1263 -91 848 271 
Q 434 634 434 1313 
Q 434 1759 690 2068 
Q 947 2378 1403 2484 
z
M 1172 3481 
Q 1172 3119 1398 2916 
Q 1625 2713 2034 2713 
Q 2441 2713 2670 2916 
Q 2900 3119 2900 3481 
Q 2900 3844 2670 4047 
Q 2441 4250 2034 4250 
Q 1625 4250 1398 4047 
Q 1172 3844 1172 3481 
z
" transform="scale(0.015625)"/>
       </defs>
       <use xlink:href="#DejaVuSans-38"/>
       <use xlink:href="#DejaVuSans-30" transform="translate(63.623047 0)"/>
       <use xlink:href="#DejaVuSans-30" transform="translate(127.246094 0)"/>
      </g>
     </g>
    </g>
    <g id="ytick_6">
     <g id="line2d_15">
      <g>
       <use xlink:href="#mbedc7249ce" x="53.328125" y="76.002608" style="stroke: #000000; stroke-width: 0.8"/>
      </g>
     </g>
     <g id="text_16">
      <!-- 1000 -->
      <g transform="translate(20.878125 79.801827) scale(0.1 -0.1)">
       <use xlink:href="#DejaVuSans-31"/>
       <use xlink:href="#DejaVuSans-30" transform="translate(63.623047 0)"/>
       <use xlink:href="#DejaVuSans-30" transform="translate(127.246094 0)"/>
       <use xlink:href="#DejaVuSans-30" transform="translate(190.869141 0)"/>
      </g>
     </g>
    </g>
    <g id="ytick_7">
     <g id="line2d_16">
      <g>
       <use xlink:href="#mbedc7249ce" x="53.328125" y="47.42713" style="stroke: #000000; stroke-width: 0.8"/>
      </g>
     </g>
     <g id="text_17">
      <!-- 1200 -->
      <g transform="translate(20.878125 51.226348) scale(0.1 -0.1)">
       <use xlink:href="#DejaVuSans-31"/>
       <use xlink:href="#DejaVuSans-32" transform="translate(63.623047 0)"/>
       <use xlink:href="#DejaVuSans-30" transform="translate(127.246094 0)"/>
       <use xlink:href="#DejaVuSans-30" transform="translate(190.869141 0)"/>
      </g>
     </g>
    </g>
    <g id="ytick_8">
     <g id="line2d_17">
      <g>
       <use xlink:href="#mbedc7249ce" x="53.328125" y="18.851651" style="stroke: #000000; stroke-width: 0.8"/>
      </g>
     </g>
     <g id="text_18">
      <!-- 1400 -->
      <g transform="translate(20.878125 22.65087) scale(0.1 -0.1)">
       <use xlink:href="#DejaVuSans-31"/>
       <use xlink:href="#DejaVuSans-34" transform="translate(63.623047 0)"/>
       <use xlink:href="#DejaVuSans-30" transform="translate(127.246094 0)"/>
       <use xlink:href="#DejaVuSans-30" transform="translate(190.869141 0)"/>
      </g>
     </g>
    </g>
    <g id="text_19">
     <!-- [counts] -->
     <g transform="translate(14.798438 138.6925) rotate(-90) scale(0.1 -0.1)">
      <defs>
       <path id="DejaVuSans-63" d="M 3122 3366 
L 3122 2828 
Q 2878 2963 2633 3030 
Q 2388 3097 2138 3097 
Q 1578 3097 1268 2742 
Q 959 2388 959 1747 
Q 959 1106 1268 751 
Q 1578 397 2138 397 
Q 2388 397 2633 464 
Q 2878 531 3122 666 
L 3122 134 
Q 2881 22 2623 -34 
Q 2366 -91 2075 -91 
Q 1284 -91 818 406 
Q 353 903 353 1747 
Q 353 2603 823 3093 
Q 1294 3584 2113 3584 
Q 2378 3584 2631 3529 
Q 2884 3475 3122 3366 
z
" transform="scale(0.015625)"/>
       <path id="DejaVuSans-75" d="M 544 1381 
L 544 3500 
L 1119 3500 
L 1119 1403 
Q 1119 906 1312 657 
Q 1506 409 1894 409 
Q 2359 409 2629 706 
Q 2900 1003 2900 1516 
L 2900 3500 
L 3475 3500 
L 3475 0 
L 2900 0 
L 2900 538 
Q 2691 219 2414 64 
Q 2138 -91 1772 -91 
Q 1169 -91 856 284 
Q 544 659 544 1381 
z
M 1991 3584 
L 1991 3584 
z
" transform="scale(0.015625)"/>
       <path id="DejaVuSans-6e" d="M 3513 2113 
L 3513 0 
L 2938 0 
L 2938 2094 
Q 2938 2591 2744 2837 
Q 2550 3084 2163 3084 
Q 1697 3084 1428 2787 
Q 1159 2491 1159 1978 
L 1159 0 
L 581 0 
L 581 3500 
L 1159 3500 
L 1159 2956 
Q 1366 3272 1645 3428 
Q 1925 3584 2291 3584 
Q 2894 3584 3203 3211 
Q 3513 2838 3513 2113 
z
" transform="scale(0.015625)"/>
      </defs>
      <use xlink:href="#DejaVuSans-5b"/>
      <use xlink:href="#DejaVuSans-63" transform="translate(39.013672 0)"/>
      <use xlink:href="#DejaVuSans-6f" transform="translate(93.994141 0)"/>
      <use xlink:href="#DejaVuSans-75" transform="translate(155.175781 0)"/>
      <use xlink:href="#DejaVuSans-6e" transform="translate(218.554688 0)"/>
      <use xlink:href="#DejaVuSans-74" transform="translate(281.933594 0)"/>
      <use xlink:href="#DejaVuSans-73" transform="translate(321.142578 0)"/>
      <use xlink:href="#DejaVuSans-5d" transform="translate(373.242188 0)"/>
     </g>
    </g>
   </g>
   <g id="patch_3">
    <path d="M 53.328125 228.96 
L 53.328125 7.2 
" style="fill: none; stroke: #000000; stroke-width: 0.8; stroke-linejoin: miter; stroke-linecap: square"/>
   </g>
   <g id="patch_4">
    <path d="M 388.128125 228.96 
L 388.128125 7.2 
" style="fill: none; stroke: #000000; stroke-width: 0.8; stroke-linejoin: miter; stroke-linecap: square"/>
   </g>
   <g id="patch_5">
    <path d="M 53.328125 228.96 
L 388.128125 228.96 
" style="fill: none; stroke: #000000; stroke-width: 0.8; stroke-linejoin: miter; stroke-linecap: square"/>
   </g>
   <g id="patch_6">
    <path d="M 53.328125 7.2 
L 388.128125 7.2 
" style="fill: none; stroke: #000000; stroke-width: 0.8; stroke-linejoin: miter; stroke-linecap: square"/>
   </g>
   <g id="legend_1">
    <g id="patch_7">
     <path d="M 306.904688 73.9125 
L 381.128125 73.9125 
Q 383.128125 73.9125 383.128125 71.9125 
L 383.128125 14.2 
Q 383.128125 12.2 381.128125 12.2 
L 306.904688 12.2 
Q 304.904688 12.2 304.904688 14.2 
L 304.904688 71.9125 
Q 304.904688 73.9125 306.904688 73.9125 
z
" style="fill: #ffffff; opacity: 0.8; stroke: #cccccc; stroke-linejoin: miter"/>
    </g>
    <g id="line2d_18">
     <path d="M 308.904688 20.298437 
L 308.904688 20.298437 
L 318.904688 20.298437 
L 318.904688 20.298437 
L 328.904688 20.298437 
" style="fill: none; stroke: #1f77b4; stroke-width: 1.5; stroke-linecap: square"/>
    </g>
    <g id="text_20">
     <!-- beam -->
     <g transform="translate(336.904688 23.798437) scale(0.1 -0.1)">
      <defs>
       <path id="DejaVuSans-62" d="M 3116 1747 
Q 3116 2381 2855 2742 
Q 2594 3103 2138 3103 
Q 1681 3103 1420 2742 
Q 1159 2381 1159 1747 
Q 1159 1113 1420 752 
Q 1681 391 2138 391 
Q 2594 391 2855 752 
Q 3116 1113 3116 1747 
z
M 1159 2969 
Q 1341 3281 1617 3432 
Q 1894 3584 2278 3584 
Q 2916 3584 3314 3078 
Q 3713 2572 3713 1747 
Q 3713 922 3314 415 
Q 2916 -91 2278 -91 
Q 1894 -91 1617 61 
Q 1341 213 1159 525 
L 1159 0 
L 581 0 
L 581 4863 
L 1159 4863 
L 1159 2969 
z
" transform="scale(0.015625)"/>
       <path id="DejaVuSans-65" d="M 3597 1894 
L 3597 1613 
L 953 1613 
Q 991 1019 1311 708 
Q 1631 397 2203 397 
Q 2534 397 2845 478 
Q 3156 559 3463 722 
L 3463 178 
Q 3153 47 2828 -22 
Q 2503 -91 2169 -91 
Q 1331 -91 842 396 
Q 353 884 353 1716 
Q 353 2575 817 3079 
Q 1281 3584 2069 3584 
Q 2775 3584 3186 3129 
Q 3597 2675 3597 1894 
z
M 3022 2063 
Q 3016 2534 2758 2815 
Q 2500 3097 2075 3097 
Q 1594 3097 1305 2825 
Q 1016 2553 972 2059 
L 3022 2063 
z
" transform="scale(0.015625)"/>
       <path id="DejaVuSans-61" d="M 2194 1759 
Q 1497 1759 1228 1600 
Q 959 1441 959 1056 
Q 959 750 1161 570 
Q 1363 391 1709 391 
Q 2188 391 2477 730 
Q 2766 1069 2766 1631 
L 2766 1759 
L 2194 1759 
z
M 3341 1997 
L 3341 0 
L 2766 0 
L 2766 531 
Q 2569 213 2275 61 
Q 1981 -91 1556 -91 
Q 1019 -91 701 211 
Q 384 513 384 1019 
Q 384 1609 779 1909 
Q 1175 2209 1959 2209 
L 2766 2209 
L 2766 2266 
Q 2766 2663 2505 2880 
Q 2244 3097 1772 3097 
Q 1472 3097 1187 3025 
Q 903 2953 641 2809 
L 641 3341 
Q 956 3463 1253 3523 
Q 1550 3584 1831 3584 
Q 2591 3584 2966 3190 
Q 3341 2797 3341 1997 
z
" transform="scale(0.015625)"/>
       <path id="DejaVuSans-6d" d="M 3328 2828 
Q 3544 3216 3844 3400 
Q 4144 3584 4550 3584 
Q 5097 3584 5394 3201 
Q 5691 2819 5691 2113 
L 5691 0 
L 5113 0 
L 5113 2094 
Q 5113 2597 4934 2840 
Q 4756 3084 4391 3084 
Q 3944 3084 3684 2787 
Q 3425 2491 3425 1978 
L 3425 0 
L 2847 0 
L 2847 2094 
Q 2847 2600 2669 2842 
Q 2491 3084 2119 3084 
Q 1678 3084 1418 2786 
Q 1159 2488 1159 1978 
L 1159 0 
L 581 0 
L 581 3500 
L 1159 3500 
L 1159 2956 
Q 1356 3278 1631 3431 
Q 1906 3584 2284 3584 
Q 2666 3584 2933 3390 
Q 3200 3197 3328 2828 
z
" transform="scale(0.015625)"/>
      </defs>
      <use xlink:href="#DejaVuSans-62"/>
      <use xlink:href="#DejaVuSans-65" transform="translate(63.476562 0)"/>
      <use xlink:href="#DejaVuSans-61" transform="translate(125 0)"/>
      <use xlink:href="#DejaVuSans-6d" transform="translate(186.279297 0)"/>
     </g>
    </g>
    <g id="line2d_19">
     <path d="M 308.904688 34.976562 
L 308.904688 34.976562 
L 318.904688 34.976562 
L 318.904688 34.976562 
L 328.904688 34.976562 
" style="fill: none; stroke: #ff7f0e; stroke-width: 1.5; stroke-linecap: square"/>
    </g>
    <g id="text_21">
     <!-- sample -->
     <g transform="translate(336.904688 38.476562) scale(0.1 -0.1)">
      <defs>
       <path id="DejaVuSans-70" d="M 1159 525 
L 1159 -1331 
L 581 -1331 
L 581 3500 
L 1159 3500 
L 1159 2969 
Q 1341 3281 1617 3432 
Q 1894 3584 2278 3584 
Q 2916 3584 3314 3078 
Q 3713 2572 3713 1747 
Q 3713 922 3314 415 
Q 2916 -91 2278 -91 
Q 1894 -91 1617 61 
Q 1341 213 1159 525 
z
M 3116 1747 
Q 3116 2381 2855 2742 
Q 2594 3103 2138 3103 
Q 1681 3103 1420 2742 
Q 1159 2381 1159 1747 
Q 1159 1113 1420 752 
Q 1681 391 2138 391 
Q 2594 391 2855 752 
Q 3116 1113 3116 1747 
z
" transform="scale(0.015625)"/>
       <path id="DejaVuSans-6c" d="M 603 4863 
L 1178 4863 
L 1178 0 
L 603 0 
L 603 4863 
z
" transform="scale(0.015625)"/>
      </defs>
      <use xlink:href="#DejaVuSans-73"/>
      <use xlink:href="#DejaVuSans-61" transform="translate(52.099609 0)"/>
      <use xlink:href="#DejaVuSans-6d" transform="translate(113.378906 0)"/>
      <use xlink:href="#DejaVuSans-70" transform="translate(210.791016 0)"/>
      <use xlink:href="#DejaVuSans-6c" transform="translate(274.267578 0)"/>
      <use xlink:href="#DejaVuSans-65" transform="translate(302.050781 0)"/>
     </g>
    </g>
    <g id="line2d_20">
     <path d="M 308.904688 49.654687 
L 308.904688 49.654687 
L 318.904688 49.654687 
L 318.904688 49.654687 
L 328.904688 49.654687 
" style="fill: none; stroke: #2ca02c; stroke-width: 1.5; stroke-linecap: square"/>
    </g>
    <g id="text_22">
     <!-- monitor -->
     <g transform="translate(336.904688 53.154687) scale(0.1 -0.1)">
      <defs>
       <path id="DejaVuSans-69" d="M 603 3500 
L 1178 3500 
L 1178 0 
L 603 0 
L 603 3500 
z
M 603 4863 
L 1178 4863 
L 1178 4134 
L 603 4134 
L 603 4863 
z
" transform="scale(0.015625)"/>
       <path id="DejaVuSans-72" d="M 2631 2963 
Q 2534 3019 2420 3045 
Q 2306 3072 2169 3072 
Q 1681 3072 1420 2755 
Q 1159 2438 1159 1844 
L 1159 0 
L 581 0 
L 581 3500 
L 1159 3500 
L 1159 2956 
Q 1341 3275 1631 3429 
Q 1922 3584 2338 3584 
Q 2397 3584 2469 3576 
Q 2541 3569 2628 3553 
L 2631 2963 
z
" transform="scale(0.015625)"/>
      </defs>
      <use xlink:href="#DejaVuSans-6d"/>
      <use xlink:href="#DejaVuSans-6f" transform="translate(97.412109 0)"/>
      <use xlink:href="#DejaVuSans-6e" transform="translate(158.59375 0)"/>
      <use xlink:href="#DejaVuSans-69" transform="translate(221.972656 0)"/>
      <use xlink:href="#DejaVuSans-74" transform="translate(249.755859 0)"/>
      <use xlink:href="#DejaVuSans-6f" transform="translate(288.964844 0)"/>
      <use xlink:href="#DejaVuSans-72" transform="translate(350.146484 0)"/>
     </g>
    </g>
    <g id="line2d_21">
     <path d="M 308.904688 64.332812 
L 308.904688 64.332812 
L 318.904688 64.332812 
L 318.904688 64.332812 
L 328.904688 64.332812 
" style="fill: none; stroke: #d62728; stroke-width: 1.5; stroke-linecap: square"/>
    </g>
    <g id="text_23">
     <!-- detector -->
     <g transform="translate(336.904688 67.832812) scale(0.1 -0.1)">
      <defs>
       <path id="DejaVuSans-64" d="M 2906 2969 
L 2906 4863 
L 3481 4863 
L 3481 0 
L 2906 0 
L 2906 525 
Q 2725 213 2448 61 
Q 2172 -91 1784 -91 
Q 1150 -91 751 415 
Q 353 922 353 1747 
Q 353 2572 751 3078 
Q 1150 3584 1784 3584 
Q 2172 3584 2448 3432 
Q 2725 3281 2906 2969 
z
M 947 1747 
Q 947 1113 1208 752 
Q 1469 391 1925 391 
Q 2381 391 2643 752 
Q 2906 1113 2906 1747 
Q 2906 2381 2643 2742 
Q 2381 3103 1925 3103 
Q 1469 3103 1208 2742 
Q 947 2381 947 1747 
z
" transform="scale(0.015625)"/>
      </defs>
      <use xlink:href="#DejaVuSans-64"/>
      <use xlink:href="#DejaVuSans-65" transform="translate(63.476562 0)"/>
      <use xlink:href="#DejaVuSans-74" transform="translate(125 0)"/>
      <use xlink:href="#DejaVuSans-65" transform="translate(164.208984 0)"/>
      <use xlink:href="#DejaVuSans-63" transform="translate(225.732422 0)"/>
      <use xlink:href="#DejaVuSans-74" transform="translate(280.712891 0)"/>
      <use xlink:href="#DejaVuSans-6f" transform="translate(319.921875 0)"/>
      <use xlink:href="#DejaVuSans-72" transform="translate(381.103516 0)"/>
     </g>
    </g>
   </g>
   <g id="line2d_22">
    <path d="M 68.546307 214.736556 
L 69.307216 214.736556 
L 69.307216 211.73613 
L 70.068125 211.73613 
L 70.068125 208.164196 
L 70.829034 208.164196 
L 70.829034 194.019334 
L 71.589943 194.019334 
L 71.589943 168.872913 
L 72.350852 168.872913 
L 72.350852 141.869086 
L 73.111761 141.869086 
L 73.111761 73.14506 
L 73.87267 73.14506 
L 73.87267 30.710475 
L 74.63358 30.710475 
L 74.63358 35.282551 
L 75.394489 35.282551 
L 75.394489 17.28 
L 76.155398 17.28 
L 76.155398 47.998639 
L 76.916307 47.998639 
L 76.916307 45.855478 
L 77.677216 45.855478 
L 77.677216 69.716003 
L 78.438125 69.716003 
L 78.438125 74.430957 
L 79.199034 74.430957 
L 79.199034 74.002325 
L 79.959943 74.002325 
L 79.959943 81.003317 
L 80.720852 81.003317 
L 80.720852 102.292048 
L 81.481761 102.292048 
L 81.481761 105.006719 
L 82.24267 105.006719 
L 82.24267 109.578795 
L 83.00358 109.578795 
L 83.00358 146.441162 
L 83.764489 146.441162 
L 83.764489 175.302395 
L 84.525398 175.302395 
L 84.525398 198.162778 
L 85.286307 198.162778 
L 85.286307 216.593962 
L 86.047216 216.593962 
L 86.047216 218.88 
L 372.909943 218.88 
L 372.909943 218.88 
" clip-path="url(#p4fb217eecb)" style="fill: none; stroke: #1f77b4; stroke-width: 1.5; stroke-linecap: square"/>
   </g>
   <g id="line2d_23">
    <path d="M 68.546307 218.88 
L 165.94267 218.88 
L 165.94267 217.736981 
L 166.70358 217.736981 
L 166.70358 217.594103 
L 167.464489 217.594103 
L 167.464489 218.88 
L 168.986307 218.88 
L 168.986307 218.594245 
L 169.747216 218.594245 
L 169.747216 216.736839 
L 170.508125 216.736839 
L 170.508125 215.165188 
L 171.269034 215.165188 
L 171.269034 218.88 
L 172.029943 218.88 
L 172.029943 215.308065 
L 172.790852 215.308065 
L 172.790852 214.165046 
L 173.551761 214.165046 
L 173.551761 209.450092 
L 174.31267 209.450092 
L 174.31267 213.022027 
L 175.07358 213.022027 
L 175.07358 203.163487 
L 175.834489 203.163487 
L 175.834489 206.021035 
L 176.595398 206.021035 
L 176.595398 200.448816 
L 177.356307 200.448816 
L 177.356307 195.30523 
L 178.117216 195.30523 
L 178.117216 195.448108 
L 178.878125 195.448108 
L 178.878125 191.876173 
L 179.639034 191.876173 
L 179.639034 180.588859 
L 180.399943 180.588859 
L 180.399943 171.444706 
L 181.160852 171.444706 
L 181.160852 170.301687 
L 181.921761 170.301687 
L 181.921761 161.014656 
L 182.68267 161.014656 
L 182.68267 157.871354 
L 183.44358 157.871354 
L 183.44358 152.299135 
L 184.204489 152.299135 
L 184.204489 163.157817 
L 184.965398 163.157817 
L 184.965398 156.156825 
L 185.726307 156.156825 
L 185.726307 162.729185 
L 186.487216 162.729185 
L 186.487216 144.155124 
L 187.248125 144.155124 
L 187.248125 157.585599 
L 188.009034 157.585599 
L 188.009034 166.015365 
L 188.769943 166.015365 
L 188.769943 153.585032 
L 189.530852 153.585032 
L 189.530852 155.299561 
L 190.291761 155.299561 
L 190.291761 157.871354 
L 191.05267 157.871354 
L 191.05267 161.871921 
L 191.81358 161.871921 
L 191.81358 154.870928 
L 192.574489 154.870928 
L 192.574489 164.443714 
L 193.335398 164.443714 
L 193.335398 165.300978 
L 194.096307 165.300978 
L 194.096307 171.587583 
L 194.857216 171.587583 
L 194.857216 171.730461 
L 195.618125 171.730461 
L 195.618125 165.443855 
L 196.379034 165.443855 
L 196.379034 165.015223 
L 197.139943 165.015223 
L 197.139943 171.444706 
L 197.900852 171.444706 
L 197.900852 173.587867 
L 198.661761 173.587867 
L 198.661761 169.444422 
L 199.42267 169.444422 
L 199.42267 172.159093 
L 200.18358 172.159093 
L 200.18358 170.158809 
L 200.944489 170.158809 
L 200.944489 179.588717 
L 201.705398 179.588717 
L 201.705398 178.588575 
L 202.466307 178.588575 
L 202.466307 170.158809 
L 203.227216 170.158809 
L 203.227216 181.446123 
L 203.988125 181.446123 
L 203.988125 180.445982 
L 204.749034 180.445982 
L 204.749034 179.874472 
L 205.509943 179.874472 
L 205.509943 180.303104 
L 206.270852 180.303104 
L 206.270852 185.589568 
L 207.031761 185.589568 
L 207.031761 180.874614 
L 207.79267 180.874614 
L 207.79267 183.875039 
L 208.55358 183.875039 
L 208.55358 184.875181 
L 209.314489 184.875181 
L 209.314489 188.73287 
L 210.075398 188.73287 
L 210.075398 193.590702 
L 210.836307 193.590702 
L 210.836307 192.59056 
L 211.597216 192.59056 
L 211.597216 197.734146 
L 212.358125 197.734146 
L 212.358125 201.734713 
L 213.119034 201.734713 
L 213.119034 205.306648 
L 213.879943 205.306648 
L 213.879943 207.592686 
L 214.640852 207.592686 
L 214.640852 210.878866 
L 215.401761 210.878866 
L 215.401761 217.736981 
L 216.16267 217.736981 
L 216.16267 216.16533 
L 216.92358 216.16533 
L 216.92358 218.88 
L 372.909943 218.88 
L 372.909943 218.88 
" clip-path="url(#p4fb217eecb)" style="fill: none; stroke: #ff7f0e; stroke-width: 1.5; stroke-linecap: square"/>
   </g>
   <g id="line2d_24">
    <path d="M 68.546307 218.88 
L 215.401761 218.88 
L 215.401761 218.165613 
L 216.16267 218.165613 
L 216.16267 218.594245 
L 216.92358 218.594245 
L 216.92358 218.88 
L 218.445398 218.88 
L 218.445398 218.737123 
L 219.206307 218.737123 
L 219.206307 218.165613 
L 220.728125 218.165613 
L 220.728125 217.736981 
L 221.489034 217.736981 
L 221.489034 218.88 
L 222.249943 218.88 
L 222.249943 218.022736 
L 223.010852 218.022736 
L 223.010852 214.736556 
L 223.771761 214.736556 
L 223.771761 215.02231 
L 224.53267 215.02231 
L 224.53267 214.307923 
L 225.29358 214.307923 
L 225.29358 212.30764 
L 226.054489 212.30764 
L 226.054489 214.307923 
L 226.815398 214.307923 
L 226.815398 208.878583 
L 227.576307 208.878583 
L 227.576307 206.449667 
L 228.337216 206.449667 
L 228.337216 209.59297 
L 229.098125 209.59297 
L 229.098125 205.16377 
L 229.859034 205.16377 
L 229.859034 201.448958 
L 230.619943 201.448958 
L 230.619943 202.020468 
L 231.380852 202.020468 
L 231.380852 198.59141 
L 232.141761 198.59141 
L 232.141761 198.019901 
L 232.90267 198.019901 
L 232.90267 192.876315 
L 233.66358 192.876315 
L 233.66358 183.589284 
L 234.424489 183.589284 
L 234.424489 186.732587 
L 235.185398 186.732587 
L 235.185398 178.731453 
L 235.946307 178.731453 
L 235.946307 177.302679 
L 236.707216 177.302679 
L 236.707216 173.730744 
L 237.468125 173.730744 
L 237.468125 171.158951 
L 238.229034 171.158951 
L 238.229034 172.87348 
L 238.989943 172.87348 
L 238.989943 175.731028 
L 239.750852 175.731028 
L 239.750852 170.158809 
L 240.511761 170.158809 
L 240.511761 175.731028 
L 242.03358 175.731028 
L 242.03358 162.586308 
L 242.794489 162.586308 
L 242.794489 172.30197 
L 243.555398 172.30197 
L 243.555398 175.302395 
L 244.316307 175.302395 
L 244.316307 172.016215 
L 245.077216 172.016215 
L 245.077216 174.445131 
L 245.838125 174.445131 
L 245.838125 171.301828 
L 246.599034 171.301828 
L 246.599034 170.444564 
L 247.359943 170.444564 
L 247.359943 175.873905 
L 248.120852 175.873905 
L 248.120852 175.445273 
L 248.881761 175.445273 
L 248.881761 172.87348 
L 249.64267 172.87348 
L 249.64267 173.159235 
L 250.40358 173.159235 
L 250.40358 178.445698 
L 251.164489 178.445698 
L 251.164489 175.159518 
L 251.925398 175.159518 
L 251.925398 183.875039 
L 252.686307 183.875039 
L 252.686307 182.303388 
L 253.447216 182.303388 
L 253.447216 184.160794 
L 254.208125 184.160794 
L 254.208125 178.159943 
L 254.969034 178.159943 
L 254.969034 181.303246 
L 255.729943 181.303246 
L 255.729943 179.44584 
L 256.490852 179.44584 
L 256.490852 181.731878 
L 257.251761 181.731878 
L 257.251761 182.16051 
L 258.01267 182.16051 
L 258.01267 183.017775 
L 258.77358 183.017775 
L 258.77358 184.446549 
L 259.534489 184.446549 
L 259.534489 182.446265 
L 261.056307 182.446265 
L 261.056307 188.589993 
L 262.578125 188.589993 
L 262.578125 186.875464 
L 263.339034 186.875464 
L 263.339034 183.732162 
L 264.099943 183.732162 
L 264.099943 188.304238 
L 264.860852 188.304238 
L 264.860852 192.733437 
L 265.621761 192.733437 
L 265.621761 188.018483 
L 266.38267 188.018483 
L 266.38267 188.875748 
L 267.14358 188.875748 
L 267.14358 192.161928 
L 267.904489 192.161928 
L 267.904489 188.447116 
L 268.665398 188.447116 
L 268.665398 194.019334 
L 269.426307 194.019334 
L 269.426307 194.305089 
L 270.187216 194.305089 
L 270.187216 189.875889 
L 270.948125 189.875889 
L 270.948125 195.162353 
L 271.709034 195.162353 
L 271.709034 190.161644 
L 272.469943 190.161644 
L 272.469943 195.87674 
L 273.230852 195.87674 
L 273.230852 201.734713 
L 273.991761 201.734713 
L 273.991761 196.734004 
L 274.75267 196.734004 
L 274.75267 199.591552 
L 275.51358 199.591552 
L 275.51358 203.592119 
L 276.274489 203.592119 
L 276.274489 202.020468 
L 277.035398 202.020468 
L 277.035398 208.735705 
L 277.796307 208.735705 
L 277.796307 208.021318 
L 278.557216 208.021318 
L 278.557216 210.021602 
L 279.318125 210.021602 
L 279.318125 211.593253 
L 280.079034 211.593253 
L 280.079034 213.593536 
L 280.839943 213.593536 
L 280.839943 218.30849 
L 281.600852 218.30849 
L 281.600852 217.308349 
L 282.361761 217.308349 
L 282.361761 218.88 
L 372.909943 218.88 
L 372.909943 218.88 
" clip-path="url(#p4fb217eecb)" style="fill: none; stroke: #2ca02c; stroke-width: 1.5; stroke-linecap: square"/>
   </g>
   <g id="line2d_25">
    <path d="M 68.546307 218.88 
L 283.12267 218.88 
L 283.12267 218.022736 
L 283.88358 218.022736 
L 283.88358 218.88 
L 284.644489 218.88 
L 284.644489 218.022736 
L 285.405398 218.022736 
L 285.405398 218.88 
L 289.970852 218.88 
L 289.970852 217.736981 
L 290.731761 217.736981 
L 290.731761 218.88 
L 294.536307 218.88 
L 294.536307 217.594103 
L 295.297216 217.594103 
L 295.297216 216.16533 
L 296.058125 216.16533 
L 296.058125 215.59382 
L 296.819034 215.59382 
L 296.819034 214.022169 
L 297.579943 214.022169 
L 297.579943 216.022452 
L 298.340852 216.022452 
L 298.340852 214.879433 
L 299.101761 214.879433 
L 299.101761 213.164904 
L 299.86267 213.164904 
L 299.86267 211.021743 
L 300.62358 211.021743 
L 300.62358 209.307215 
L 301.384489 209.307215 
L 301.384489 211.593253 
L 302.145398 211.593253 
L 302.145398 209.878724 
L 302.906307 209.878724 
L 302.906307 208.735705 
L 303.667216 208.735705 
L 303.667216 204.449383 
L 304.428125 204.449383 
L 304.428125 205.020893 
L 305.189034 205.020893 
L 305.189034 205.73528 
L 305.949943 205.73528 
L 305.949943 204.163629 
L 306.710852 204.163629 
L 306.710852 203.592119 
L 307.471761 203.592119 
L 307.471761 202.306223 
L 308.23267 202.306223 
L 308.23267 193.733579 
L 308.99358 193.733579 
L 308.99358 192.161928 
L 309.754489 192.161928 
L 309.754489 196.019617 
L 310.515398 196.019617 
L 310.515398 192.59056 
L 311.276307 192.59056 
L 311.276307 185.589568 
L 312.037216 185.589568 
L 312.037216 185.44669 
L 312.798125 185.44669 
L 312.798125 191.161786 
L 313.559034 191.161786 
L 313.559034 183.589284 
L 314.319943 183.589284 
L 314.319943 178.159943 
L 315.080852 178.159943 
L 315.080852 187.446974 
L 315.841761 187.446974 
L 315.841761 186.446832 
L 316.60267 186.446832 
L 316.60267 186.732587 
L 317.36358 186.732587 
L 317.36358 182.16051 
L 318.124489 182.16051 
L 318.124489 188.018483 
L 318.885398 188.018483 
L 318.885398 185.732445 
L 319.646307 185.732445 
L 319.646307 180.445982 
L 320.407216 180.445982 
L 320.407216 182.16051 
L 321.168125 182.16051 
L 321.168125 183.160652 
L 321.929034 183.160652 
L 321.929034 185.018058 
L 322.689943 185.018058 
L 322.689943 183.875039 
L 323.450852 183.875039 
L 323.450852 187.875606 
L 324.211761 187.875606 
L 324.211761 183.732162 
L 324.97267 183.732162 
L 324.97267 186.161077 
L 325.73358 186.161077 
L 325.73358 184.446549 
L 326.494489 184.446549 
L 326.494489 180.874614 
L 327.255398 180.874614 
L 327.255398 188.73287 
L 328.016307 188.73287 
L 328.016307 185.589568 
L 328.777216 185.589568 
L 328.777216 185.44669 
L 329.538125 185.44669 
L 329.538125 184.589426 
L 331.059943 184.589426 
L 331.059943 189.30438 
L 331.820852 189.30438 
L 331.820852 189.733012 
L 332.581761 189.733012 
L 332.581761 185.875322 
L 333.34267 185.875322 
L 333.34267 194.019334 
L 334.10358 194.019334 
L 334.10358 190.161644 
L 334.864489 190.161644 
L 334.864489 193.162069 
L 335.625398 193.162069 
L 335.625398 189.733012 
L 336.386307 189.733012 
L 336.386307 191.018909 
L 337.147216 191.018909 
L 337.147216 188.018483 
L 337.908125 188.018483 
L 337.908125 193.304947 
L 338.669034 193.304947 
L 338.669034 191.447541 
L 339.429943 191.447541 
L 339.429943 190.733154 
L 340.190852 190.733154 
L 340.190852 192.161928 
L 340.951761 192.161928 
L 340.951761 187.304096 
L 341.71267 187.304096 
L 341.71267 196.019617 
L 342.47358 196.019617 
L 342.47358 193.019192 
L 343.234489 193.019192 
L 343.234489 191.733296 
L 343.995398 191.733296 
L 343.995398 192.876315 
L 345.517216 192.876315 
L 345.517216 196.162495 
L 346.278125 196.162495 
L 346.278125 194.733721 
L 347.039034 194.733721 
L 347.039034 196.876882 
L 347.799943 196.876882 
L 347.799943 193.304947 
L 348.560852 193.304947 
L 348.560852 194.305089 
L 349.321761 194.305089 
L 349.321761 194.590843 
L 350.08267 194.590843 
L 350.08267 196.876882 
L 350.84358 196.876882 
L 350.84358 199.734429 
L 351.604489 199.734429 
L 351.604489 199.591552 
L 352.365398 199.591552 
L 352.365398 192.01905 
L 353.126307 192.01905 
L 353.126307 198.59141 
L 353.887216 198.59141 
L 353.887216 197.877023 
L 354.648125 197.877023 
L 354.648125 197.448391 
L 355.409034 197.448391 
L 355.409034 198.734288 
L 356.169943 198.734288 
L 356.169943 200.305939 
L 356.930852 200.305939 
L 356.930852 202.4491 
L 357.691761 202.4491 
L 357.691761 196.591127 
L 358.45267 196.591127 
L 358.45267 199.877307 
L 359.21358 199.877307 
L 359.21358 197.591269 
L 359.974489 197.591269 
L 359.974489 198.305656 
L 360.735398 198.305656 
L 360.735398 203.877874 
L 361.496307 203.877874 
L 361.496307 202.591977 
L 362.257216 202.591977 
L 362.257216 204.449383 
L 363.018125 204.449383 
L 363.018125 202.020468 
L 363.779034 202.020468 
L 363.779034 205.306648 
L 364.539943 205.306648 
L 364.539943 206.021035 
L 365.300852 206.021035 
L 365.300852 207.878441 
L 366.061761 207.878441 
L 366.061761 205.878157 
L 366.82267 205.878157 
L 366.82267 209.735847 
L 367.58358 209.735847 
L 367.58358 211.879008 
L 368.344489 211.879008 
L 368.344489 209.02146 
L 369.105398 209.02146 
L 369.105398 213.022027 
L 369.866307 213.022027 
L 369.866307 212.736272 
L 370.627216 212.736272 
L 370.627216 213.593536 
L 371.388125 213.593536 
L 371.388125 216.022452 
L 372.149034 216.022452 
L 372.149034 215.879575 
L 372.909943 215.879575 
L 372.909943 215.879575 
" clip-path="url(#p4fb217eecb)" style="fill: none; stroke: #d62728; stroke-width: 1.5; stroke-linecap: square"/>
   </g>
  </g>
 </g>
 <defs>
  <clipPath id="p4fb217eecb">
   <rect x="53.328125" y="7.2" width="334.8" height="221.76"/>
  </clipPath>
 </defs>
</svg>
