<?xml version="1.0" encoding="utf-8" standalone="no"?>
<!DOCTYPE svg PUBLIC "-//W3C//DTD SVG 1.1//EN"
  "http://www.w3.org/Graphics/SVG/1.1/DTD/svg11.dtd">
<svg xmlns:xlink="http://www.w3.org/1999/xlink" width="395.328125pt" height="268.200625pt" viewBox="0 0 395.328125 268.200625" xmlns="http://www.w3.org/2000/svg" version="1.1">
 <metadata>
  <rdf:RDF xmlns:dc="http://purl.org/dc/elements/1.1/" xmlns:cc="http://creativecommons.org/ns#" xmlns:rdf="http://www.w3.org/1999/02/22-rdf-syntax-ns#">
   <cc:Work>
    <dc:type rdf:resource="http://purl.org/dc/dcmitype/StillImage"/>
    <dc:date>2025-03-02T06:37:28.689596</dc:date>
    <dc:format>image/svg+xml</dc:format>
    <dc:creator>
     <cc:Agent>
      <dc:title>Matplotlib v3.10.0, https://matplotlib.org/</dc:title>
     </cc:Agent>
    </dc:creator>
   </cc:Work>
  </rdf:RDF>
 </metadata>
 <defs>
  <style type="text/css">*{stroke-linejoin: round; stroke-linecap: butt}</style>
 </defs>
 <g id="figure_1">
  <g id="patch_1">
   <path d="M 0 268.200625 
L 395.328125 268.200625 
L 395.328125 0 
L 0 0 
z
" style="fill: #ffffff"/>
  </g>
  <g id="axes_1">
   <g id="patch_2">
    <path d="M 53.328125 228.96 
L 388.128125 228.96 
L 388.128125 7.2 
L 53.328125 7.2 
z
" style="fill: #ffffff"/>
   </g>
   <g id="matplotlib.axis_1">
    <g id="xtick_1">
     <g id="line2d_1">
      <defs>
       <path id="mc3a93f7e38" d="M 0 0 
L 0 3.5 
" style="stroke: #000000; stroke-width: 0.8"/>
      </defs>
      <g>
       <use xlink:href="#mc3a93f7e38" x="68.546307" y="228.96" style="stroke: #000000; stroke-width: 0.8"/>
      </g>
     </g>
     <g id="text_1">
      <!-- 2 -->
      <g transform="translate(65.365057 243.558437) scale(0.1 -0.1)">
       <defs>
        <path id="DejaVuSans-32" d="M 1228 531 
L 3431 531 
L 3431 0 
L 469 0 
L 469 531 
Q 828 903 1448 1529 
Q 2069 2156 2228 2338 
Q 2531 2678 2651 2914 
Q 2772 3150 2772 3378 
Q 2772 3750 2511 3984 
Q 2250 4219 1831 4219 
Q 1534 4219 1204 4116 
Q 875 4013 500 3803 
L 500 4441 
Q 881 4594 1212 4672 
Q 1544 4750 1819 4750 
Q 2544 4750 2975 4387 
Q 3406 4025 3406 3419 
Q 3406 3131 3298 2873 
Q 3191 2616 2906 2266 
Q 2828 2175 2409 1742 
Q 1991 1309 1228 531 
z
" transform="scale(0.015625)"/>
       </defs>
       <use xlink:href="#DejaVuSans-32"/>
      </g>
     </g>
    </g>
    <g id="xtick_2">
     <g id="line2d_2">
      <g>
       <use xlink:href="#mc3a93f7e38" x="106.591761" y="228.96" style="stroke: #000000; stroke-width: 0.8"/>
      </g>
     </g>
     <g id="text_2">
      <!-- 3 -->
      <g transform="translate(103.410511 243.558437) scale(0.1 -0.1)">
       <defs>
        <path id="DejaVuSans-33" d="M 2597 2516 
Q 3050 2419 3304 2112 
Q 3559 1806 3559 1356 
Q 3559 666 3084 287 
Q 2609 -91 1734 -91 
Q 1441 -91 1130 -33 
Q 819 25 488 141 
L 488 750 
Q 750 597 1062 519 
Q 1375 441 1716 441 
Q 2309 441 2620 675 
Q 2931 909 2931 1356 
Q 2931 1769 2642 2001 
Q 2353 2234 1838 2234 
L 1294 2234 
L 1294 2753 
L 1863 2753 
Q 2328 2753 2575 2939 
Q 2822 3125 2822 3475 
Q 2822 3834 2567 4026 
Q 2313 4219 1838 4219 
Q 1578 4219 1281 4162 
Q 984 4106 628 3988 
L 628 4550 
Q 988 4650 1302 4700 
Q 1616 4750 1894 4750 
Q 2613 4750 3031 4423 
Q 3450 4097 3450 3541 
Q 3450 3153 3228 2886 
Q 3006 2619 2597 2516 
z
" transform="scale(0.015625)"/>
       </defs>
       <use xlink:href="#DejaVuSans-33"/>
      </g>
     </g>
    </g>
    <g id="xtick_3">
     <g id="line2d_3">
      <g>
       <use xlink:href="#mc3a93f7e38" x="144.637216" y="228.96" style="stroke: #000000; stroke-width: 0.8"/>
      </g>
     </g>
     <g id="text_3">
      <!-- 4 -->
      <g transform="translate(141.455966 243.558437) scale(0.1 -0.1)">
       <defs>
        <path id="DejaVuSans-34" d="M 2419 4116 
L 825 1625 
L 2419 1625 
L 2419 4116 
z
M 2253 4666 
L 3047 4666 
L 3047 1625 
L 3713 1625 
L 3713 1100 
L 3047 1100 
L 3047 0 
L 2419 0 
L 2419 1100 
L 313 1100 
L 313 1709 
L 2253 4666 
z
" transform="scale(0.015625)"/>
       </defs>
       <use xlink:href="#DejaVuSans-34"/>
      </g>
     </g>
    </g>
    <g id="xtick_4">
     <g id="line2d_4">
      <g>
       <use xlink:href="#mc3a93f7e38" x="182.68267" y="228.96" style="stroke: #000000; stroke-width: 0.8"/>
      </g>
     </g>
     <g id="text_4">
      <!-- 5 -->
      <g transform="translate(179.50142 243.558437) scale(0.1 -0.1)">
       <defs>
        <path id="DejaVuSans-35" d="M 691 4666 
L 3169 4666 
L 3169 4134 
L 1269 4134 
L 1269 2991 
Q 1406 3038 1543 3061 
Q 1681 3084 1819 3084 
Q 2600 3084 3056 2656 
Q 3513 2228 3513 1497 
Q 3513 744 3044 326 
Q 2575 -91 1722 -91 
Q 1428 -91 1123 -41 
Q 819 9 494 109 
L 494 744 
Q 775 591 1075 516 
Q 1375 441 1709 441 
Q 2250 441 2565 725 
Q 2881 1009 2881 1497 
Q 2881 1984 2565 2268 
Q 2250 2553 1709 2553 
Q 1456 2553 1204 2497 
Q 953 2441 691 2322 
L 691 4666 
z
" transform="scale(0.015625)"/>
       </defs>
       <use xlink:href="#DejaVuSans-35"/>
      </g>
     </g>
    </g>
    <g id="xtick_5">
     <g id="line2d_5">
      <g>
       <use xlink:href="#mc3a93f7e38" x="220.728125" y="228.96" style="stroke: #000000; stroke-width: 0.8"/>
      </g>
     </g>
     <g id="text_5">
      <!-- 6 -->
      <g transform="translate(217.546875 243.558437) scale(0.1 -0.1)">
       <defs>
        <path id="DejaVuSans-36" d="M 2113 2584 
Q 1688 2584 1439 2293 
Q 1191 2003 1191 1497 
Q 1191 994 1439 701 
Q 1688 409 2113 409 
Q 2538 409 2786 701 
Q 3034 994 3034 1497 
Q 3034 2003 2786 2293 
Q 2538 2584 2113 2584 
z
M 3366 4563 
L 3366 3988 
Q 3128 4100 2886 4159 
Q 2644 4219 2406 4219 
Q 1781 4219 1451 3797 
Q 1122 3375 1075 2522 
Q 1259 2794 1537 2939 
Q 1816 3084 2150 3084 
Q 2853 3084 3261 2657 
Q 3669 2231 3669 1497 
Q 3669 778 3244 343 
Q 2819 -91 2113 -91 
Q 1303 -91 875 529 
Q 447 1150 447 2328 
Q 447 3434 972 4092 
Q 1497 4750 2381 4750 
Q 2619 4750 2861 4703 
Q 3103 4656 3366 4563 
z
" transform="scale(0.015625)"/>
       </defs>
       <use xlink:href="#DejaVuSans-36"/>
      </g>
     </g>
    </g>
    <g id="xtick_6">
     <g id="line2d_6">
      <g>
       <use xlink:href="#mc3a93f7e38" x="258.77358" y="228.96" style="stroke: #000000; stroke-width: 0.8"/>
      </g>
     </g>
     <g id="text_6">
      <!-- 7 -->
      <g transform="translate(255.59233 243.558437) scale(0.1 -0.1)">
       <defs>
        <path id="DejaVuSans-37" d="M 525 4666 
L 3525 4666 
L 3525 4397 
L 1831 0 
L 1172 0 
L 2766 4134 
L 525 4134 
L 525 4666 
z
" transform="scale(0.015625)"/>
       </defs>
       <use xlink:href="#DejaVuSans-37"/>
      </g>
     </g>
    </g>
    <g id="xtick_7">
     <g id="line2d_7">
      <g>
       <use xlink:href="#mc3a93f7e38" x="296.819034" y="228.96" style="stroke: #000000; stroke-width: 0.8"/>
      </g>
     </g>
     <g id="text_7">
      <!-- 8 -->
      <g transform="translate(293.637784 243.558437) scale(0.1 -0.1)">
       <defs>
        <path id="DejaVuSans-38" d="M 2034 2216 
Q 1584 2216 1326 1975 
Q 1069 1734 1069 1313 
Q 1069 891 1326 650 
Q 1584 409 2034 409 
Q 2484 409 2743 651 
Q 3003 894 3003 1313 
Q 3003 1734 2745 1975 
Q 2488 2216 2034 2216 
z
M 1403 2484 
Q 997 2584 770 2862 
Q 544 3141 544 3541 
Q 544 4100 942 4425 
Q 1341 4750 2034 4750 
Q 2731 4750 3128 4425 
Q 3525 4100 3525 3541 
Q 3525 3141 3298 2862 
Q 3072 2584 2669 2484 
Q 3125 2378 3379 2068 
Q 3634 1759 3634 1313 
Q 3634 634 3220 271 
Q 2806 -91 2034 -91 
Q 1263 -91 848 271 
Q 434 634 434 1313 
Q 434 1759 690 2068 
Q 947 2378 1403 2484 
z
M 1172 3481 
Q 1172 3119 1398 2916 
Q 1625 2713 2034 2713 
Q 2441 2713 2670 2916 
Q 2900 3119 2900 3481 
Q 2900 3844 2670 4047 
Q 2441 4250 2034 4250 
Q 1625 4250 1398 4047 
Q 1172 3844 1172 3481 
z
" transform="scale(0.015625)"/>
       </defs>
       <use xlink:href="#DejaVuSans-38"/>
      </g>
     </g>
    </g>
    <g id="xtick_8">
     <g id="line2d_8">
      <g>
       <use xlink:href="#mc3a93f7e38" x="334.864489" y="228.96" style="stroke: #000000; stroke-width: 0.8"/>
      </g>
     </g>
     <g id="text_8">
      <!-- 9 -->
      <g transform="translate(331.683239 243.558437) scale(0.1 -0.1)">
       <defs>
        <path id="DejaVuSans-39" d="M 703 97 
L 703 672 
Q 941 559 1184 500 
Q 1428 441 1663 441 
Q 2288 441 2617 861 
Q 2947 1281 2994 2138 
Q 2813 1869 2534 1725 
Q 2256 1581 1919 1581 
Q 1219 1581 811 2004 
Q 403 2428 403 3163 
Q 403 3881 828 4315 
Q 1253 4750 1959 4750 
Q 2769 4750 3195 4129 
Q 3622 3509 3622 2328 
Q 3622 1225 3098 567 
Q 2575 -91 1691 -91 
Q 1453 -91 1209 -44 
Q 966 3 703 97 
z
M 1959 2075 
Q 2384 2075 2632 2365 
Q 2881 2656 2881 3163 
Q 2881 3666 2632 3958 
Q 2384 4250 1959 4250 
Q 1534 4250 1286 3958 
Q 1038 3666 1038 3163 
Q 1038 2656 1286 2365 
Q 1534 2075 1959 2075 
z
" transform="scale(0.015625)"/>
       </defs>
       <use xlink:href="#DejaVuSans-39"/>
      </g>
     </g>
    </g>
    <g id="xtick_9">
     <g id="line2d_9">
      <g>
       <use xlink:href="#mc3a93f7e38" x="372.909943" y="228.96" style="stroke: #000000; stroke-width: 0.8"/>
      </g>
     </g>
     <g id="text_9">
      <!-- 10 -->
      <g transform="translate(366.547443 243.558437) scale(0.1 -0.1)">
       <defs>
        <path id="DejaVuSans-31" d="M 794 531 
L 1825 531 
L 1825 4091 
L 703 3866 
L 703 4441 
L 1819 4666 
L 2450 4666 
L 2450 531 
L 3481 531 
L 3481 0 
L 794 0 
L 794 531 
z
" transform="scale(0.015625)"/>
        <path id="DejaVuSans-30" d="M 2034 4250 
Q 1547 4250 1301 3770 
Q 1056 3291 1056 2328 
Q 1056 1369 1301 889 
Q 1547 409 2034 409 
Q 2525 409 2770 889 
Q 3016 1369 3016 2328 
Q 3016 3291 2770 3770 
Q 2525 4250 2034 4250 
z
M 2034 4750 
Q 2819 4750 3233 4129 
Q 3647 3509 3647 2328 
Q 3647 1150 3233 529 
Q 2819 -91 2034 -91 
Q 1250 -91 836 529 
Q 422 1150 422 2328 
Q 422 3509 836 4129 
Q 1250 4750 2034 4750 
z
" transform="scale(0.015625)"/>
       </defs>
       <use xlink:href="#DejaVuSans-31"/>
       <use xlink:href="#DejaVuSans-30" transform="translate(63.623047 0)"/>
      </g>
     </g>
    </g>
    <g id="text_10">
     <!-- wavelength [Å] -->
     <g transform="translate(182.690625 258.920937) scale(0.1 -0.1)">
      <defs>
       <path id="DejaVuSans-77" d="M 269 3500 
L 844 3500 
L 1563 769 
L 2278 3500 
L 2956 3500 
L 3675 769 
L 4391 3500 
L 4966 3500 
L 4050 0 
L 3372 0 
L 2619 2869 
L 1863 0 
L 1184 0 
L 269 3500 
z
" transform="scale(0.015625)"/>
       <path id="DejaVuSans-61" d="M 2194 1759 
Q 1497 1759 1228 1600 
Q 959 1441 959 1056 
Q 959 750 1161 570 
Q 1363 391 1709 391 
Q 2188 391 2477 730 
Q 2766 1069 2766 1631 
L 2766 1759 
L 2194 1759 
z
M 3341 1997 
L 3341 0 
L 2766 0 
L 2766 531 
Q 2569 213 2275 61 
Q 1981 -91 1556 -91 
Q 1019 -91 701 211 
Q 384 513 384 1019 
Q 384 1609 779 1909 
Q 1175 2209 1959 2209 
L 2766 2209 
L 2766 2266 
Q 2766 2663 2505 2880 
Q 2244 3097 1772 3097 
Q 1472 3097 1187 3025 
Q 903 2953 641 2809 
L 641 3341 
Q 956 3463 1253 3523 
Q 1550 3584 1831 3584 
Q 2591 3584 2966 3190 
Q 3341 2797 3341 1997 
z
" transform="scale(0.015625)"/>
       <path id="DejaVuSans-76" d="M 191 3500 
L 800 3500 
L 1894 563 
L 2988 3500 
L 3597 3500 
L 2284 0 
L 1503 0 
L 191 3500 
z
" transform="scale(0.015625)"/>
       <path id="DejaVuSans-65" d="M 3597 1894 
L 3597 1613 
L 953 1613 
Q 991 1019 1311 708 
Q 1631 397 2203 397 
Q 2534 397 2845 478 
Q 3156 559 3463 722 
L 3463 178 
Q 3153 47 2828 -22 
Q 2503 -91 2169 -91 
Q 1331 -91 842 396 
Q 353 884 353 1716 
Q 353 2575 817 3079 
Q 1281 3584 2069 3584 
Q 2775 3584 3186 3129 
Q 3597 2675 3597 1894 
z
M 3022 2063 
Q 3016 2534 2758 2815 
Q 2500 3097 2075 3097 
Q 1594 3097 1305 2825 
Q 1016 2553 972 2059 
L 3022 2063 
z
" transform="scale(0.015625)"/>
       <path id="DejaVuSans-6c" d="M 603 4863 
L 1178 4863 
L 1178 0 
L 603 0 
L 603 4863 
z
" transform="scale(0.015625)"/>
       <path id="DejaVuSans-6e" d="M 3513 2113 
L 3513 0 
L 2938 0 
L 2938 2094 
Q 2938 2591 2744 2837 
Q 2550 3084 2163 3084 
Q 1697 3084 1428 2787 
Q 1159 2491 1159 1978 
L 1159 0 
L 581 0 
L 581 3500 
L 1159 3500 
L 1159 2956 
Q 1366 3272 1645 3428 
Q 1925 3584 2291 3584 
Q 2894 3584 3203 3211 
Q 3513 2838 3513 2113 
z
" transform="scale(0.015625)"/>
       <path id="DejaVuSans-67" d="M 2906 1791 
Q 2906 2416 2648 2759 
Q 2391 3103 1925 3103 
Q 1463 3103 1205 2759 
Q 947 2416 947 1791 
Q 947 1169 1205 825 
Q 1463 481 1925 481 
Q 2391 481 2648 825 
Q 2906 1169 2906 1791 
z
M 3481 434 
Q 3481 -459 3084 -895 
Q 2688 -1331 1869 -1331 
Q 1566 -1331 1297 -1286 
Q 1028 -1241 775 -1147 
L 775 -588 
Q 1028 -725 1275 -790 
Q 1522 -856 1778 -856 
Q 2344 -856 2625 -561 
Q 2906 -266 2906 331 
L 2906 616 
Q 2728 306 2450 153 
Q 2172 0 1784 0 
Q 1141 0 747 490 
Q 353 981 353 1791 
Q 353 2603 747 3093 
Q 1141 3584 1784 3584 
Q 2172 3584 2450 3431 
Q 2728 3278 2906 2969 
L 2906 3500 
L 3481 3500 
L 3481 434 
z
" transform="scale(0.015625)"/>
       <path id="DejaVuSans-74" d="M 1172 4494 
L 1172 3500 
L 2356 3500 
L 2356 3053 
L 1172 3053 
L 1172 1153 
Q 1172 725 1289 603 
Q 1406 481 1766 481 
L 2356 481 
L 2356 0 
L 1766 0 
Q 1100 0 847 248 
Q 594 497 594 1153 
L 594 3053 
L 172 3053 
L 172 3500 
L 594 3500 
L 594 4494 
L 1172 4494 
z
" transform="scale(0.015625)"/>
       <path id="DejaVuSans-68" d="M 3513 2113 
L 3513 0 
L 2938 0 
L 2938 2094 
Q 2938 2591 2744 2837 
Q 2550 3084 2163 3084 
Q 1697 3084 1428 2787 
Q 1159 2491 1159 1978 
L 1159 0 
L 581 0 
L 581 4863 
L 1159 4863 
L 1159 2956 
Q 1366 3272 1645 3428 
Q 1925 3584 2291 3584 
Q 2894 3584 3203 3211 
Q 3513 2838 3513 2113 
z
" transform="scale(0.015625)"/>
       <path id="DejaVuSans-20" transform="scale(0.015625)"/>
       <path id="DejaVuSans-5b" d="M 550 4863 
L 1875 4863 
L 1875 4416 
L 1125 4416 
L 1125 -397 
L 1875 -397 
L 1875 -844 
L 550 -844 
L 550 4863 
z
" transform="scale(0.015625)"/>
       <path id="DejaVuSans-c5" d="M 2663 5081 
Q 2663 5278 2523 5417 
Q 2384 5556 2188 5556 
Q 1988 5556 1852 5420 
Q 1716 5284 1716 5081 
Q 1716 4884 1853 4746 
Q 1991 4609 2188 4609 
Q 2384 4609 2523 4746 
Q 2663 4884 2663 5081 
z
M 2188 4044 
L 1338 1722 
L 3041 1722 
L 2188 4044 
z
M 1716 4366 
Q 1525 4494 1428 4673 
Q 1331 4853 1331 5081 
Q 1331 5441 1579 5691 
Q 1828 5941 2188 5941 
Q 2544 5941 2795 5689 
Q 3047 5438 3047 5081 
Q 3047 4863 2948 4678 
Q 2850 4494 2663 4366 
L 4325 0 
L 3669 0 
L 3244 1197 
L 1141 1197 
L 716 0 
L 50 0 
L 1716 4366 
z
" transform="scale(0.015625)"/>
       <path id="DejaVuSans-5d" d="M 1947 4863 
L 1947 -844 
L 622 -844 
L 622 -397 
L 1369 -397 
L 1369 4416 
L 622 4416 
L 622 4863 
L 1947 4863 
z
" transform="scale(0.015625)"/>
      </defs>
      <use xlink:href="#DejaVuSans-77"/>
      <use xlink:href="#DejaVuSans-61" transform="translate(81.787109 0)"/>
      <use xlink:href="#DejaVuSans-76" transform="translate(143.066406 0)"/>
      <use xlink:href="#DejaVuSans-65" transform="translate(202.246094 0)"/>
      <use xlink:href="#DejaVuSans-6c" transform="translate(263.769531 0)"/>
      <use xlink:href="#DejaVuSans-65" transform="translate(291.552734 0)"/>
      <use xlink:href="#DejaVuSans-6e" transform="translate(353.076172 0)"/>
      <use xlink:href="#DejaVuSans-67" transform="translate(416.455078 0)"/>
      <use xlink:href="#DejaVuSans-74" transform="translate(479.931641 0)"/>
      <use xlink:href="#DejaVuSans-68" transform="translate(519.140625 0)"/>
      <use xlink:href="#DejaVuSans-20" transform="translate(582.519531 0)"/>
      <use xlink:href="#DejaVuSans-5b" transform="translate(614.306641 0)"/>
      <use xlink:href="#DejaVuSans-c5" transform="translate(653.320312 0)"/>
      <use xlink:href="#DejaVuSans-5d" transform="translate(721.728516 0)"/>
     </g>
    </g>
   </g>
   <g id="matplotlib.axis_2">
    <g id="ytick_1">
     <g id="line2d_10">
      <defs>
       <path id="ma71ee984e1" d="M 0 0 
L -3.5 0 
" style="stroke: #000000; stroke-width: 0.8"/>
      </defs>
      <g>
       <use xlink:href="#ma71ee984e1" x="53.328125" y="218.88" style="stroke: #000000; stroke-width: 0.8"/>
      </g>
     </g>
     <g id="text_11">
      <!-- 0 -->
      <g transform="translate(39.965625 222.679219) scale(0.1 -0.1)">
       <use xlink:href="#DejaVuSans-30"/>
      </g>
     </g>
    </g>
    <g id="ytick_2">
     <g id="line2d_11">
      <g>
       <use xlink:href="#ma71ee984e1" x="53.328125" y="181.155449" style="stroke: #000000; stroke-width: 0.8"/>
      </g>
     </g>
     <g id="text_12">
      <!-- 500 -->
      <g transform="translate(27.240625 184.954668) scale(0.1 -0.1)">
       <use xlink:href="#DejaVuSans-35"/>
       <use xlink:href="#DejaVuSans-30" transform="translate(63.623047 0)"/>
       <use xlink:href="#DejaVuSans-30" transform="translate(127.246094 0)"/>
      </g>
     </g>
    </g>
    <g id="ytick_3">
     <g id="line2d_12">
      <g>
       <use xlink:href="#ma71ee984e1" x="53.328125" y="143.430898" style="stroke: #000000; stroke-width: 0.8"/>
      </g>
     </g>
     <g id="text_13">
      <!-- 1000 -->
      <g transform="translate(20.878125 147.230117) scale(0.1 -0.1)">
       <use xlink:href="#DejaVuSans-31"/>
       <use xlink:href="#DejaVuSans-30" transform="translate(63.623047 0)"/>
       <use xlink:href="#DejaVuSans-30" transform="translate(127.246094 0)"/>
       <use xlink:href="#DejaVuSans-30" transform="translate(190.869141 0)"/>
      </g>
     </g>
    </g>
    <g id="ytick_4">
     <g id="line2d_13">
      <g>
       <use xlink:href="#ma71ee984e1" x="53.328125" y="105.706347" style="stroke: #000000; stroke-width: 0.8"/>
      </g>
     </g>
     <g id="text_14">
      <!-- 1500 -->
      <g transform="translate(20.878125 109.505566) scale(0.1 -0.1)">
       <use xlink:href="#DejaVuSans-31"/>
       <use xlink:href="#DejaVuSans-35" transform="translate(63.623047 0)"/>
       <use xlink:href="#DejaVuSans-30" transform="translate(127.246094 0)"/>
       <use xlink:href="#DejaVuSans-30" transform="translate(190.869141 0)"/>
      </g>
     </g>
    </g>
    <g id="ytick_5">
     <g id="line2d_14">
      <g>
       <use xlink:href="#ma71ee984e1" x="53.328125" y="67.981796" style="stroke: #000000; stroke-width: 0.8"/>
      </g>
     </g>
     <g id="text_15">
      <!-- 2000 -->
      <g transform="translate(20.878125 71.781015) scale(0.1 -0.1)">
       <use xlink:href="#DejaVuSans-32"/>
       <use xlink:href="#DejaVuSans-30" transform="translate(63.623047 0)"/>
       <use xlink:href="#DejaVuSans-30" transform="translate(127.246094 0)"/>
       <use xlink:href="#DejaVuSans-30" transform="translate(190.869141 0)"/>
      </g>
     </g>
    </g>
    <g id="ytick_6">
     <g id="line2d_15">
      <g>
       <use xlink:href="#ma71ee984e1" x="53.328125" y="30.257246" style="stroke: #000000; stroke-width: 0.8"/>
      </g>
     </g>
     <g id="text_16">
      <!-- 2500 -->
      <g transform="translate(20.878125 34.056464) scale(0.1 -0.1)">
       <use xlink:href="#DejaVuSans-32"/>
       <use xlink:href="#DejaVuSans-35" transform="translate(63.623047 0)"/>
       <use xlink:href="#DejaVuSans-30" transform="translate(127.246094 0)"/>
       <use xlink:href="#DejaVuSans-30" transform="translate(190.869141 0)"/>
      </g>
     </g>
    </g>
    <g id="text_17">
     <!-- [counts] -->
     <g transform="translate(14.798438 138.6925) rotate(-90) scale(0.1 -0.1)">
      <defs>
       <path id="DejaVuSans-63" d="M 3122 3366 
L 3122 2828 
Q 2878 2963 2633 3030 
Q 2388 3097 2138 3097 
Q 1578 3097 1268 2742 
Q 959 2388 959 1747 
Q 959 1106 1268 751 
Q 1578 397 2138 397 
Q 2388 397 2633 464 
Q 2878 531 3122 666 
L 3122 134 
Q 2881 22 2623 -34 
Q 2366 -91 2075 -91 
Q 1284 -91 818 406 
Q 353 903 353 1747 
Q 353 2603 823 3093 
Q 1294 3584 2113 3584 
Q 2378 3584 2631 3529 
Q 2884 3475 3122 3366 
z
" transform="scale(0.015625)"/>
       <path id="DejaVuSans-6f" d="M 1959 3097 
Q 1497 3097 1228 2736 
Q 959 2375 959 1747 
Q 959 1119 1226 758 
Q 1494 397 1959 397 
Q 2419 397 2687 759 
Q 2956 1122 2956 1747 
Q 2956 2369 2687 2733 
Q 2419 3097 1959 3097 
z
M 1959 3584 
Q 2709 3584 3137 3096 
Q 3566 2609 3566 1747 
Q 3566 888 3137 398 
Q 2709 -91 1959 -91 
Q 1206 -91 779 398 
Q 353 888 353 1747 
Q 353 2609 779 3096 
Q 1206 3584 1959 3584 
z
" transform="scale(0.015625)"/>
       <path id="DejaVuSans-75" d="M 544 1381 
L 544 3500 
L 1119 3500 
L 1119 1403 
Q 1119 906 1312 657 
Q 1506 409 1894 409 
Q 2359 409 2629 706 
Q 2900 1003 2900 1516 
L 2900 3500 
L 3475 3500 
L 3475 0 
L 2900 0 
L 2900 538 
Q 2691 219 2414 64 
Q 2138 -91 1772 -91 
Q 1169 -91 856 284 
Q 544 659 544 1381 
z
M 1991 3584 
L 1991 3584 
z
" transform="scale(0.015625)"/>
       <path id="DejaVuSans-73" d="M 2834 3397 
L 2834 2853 
Q 2591 2978 2328 3040 
Q 2066 3103 1784 3103 
Q 1356 3103 1142 2972 
Q 928 2841 928 2578 
Q 928 2378 1081 2264 
Q 1234 2150 1697 2047 
L 1894 2003 
Q 2506 1872 2764 1633 
Q 3022 1394 3022 966 
Q 3022 478 2636 193 
Q 2250 -91 1575 -91 
Q 1294 -91 989 -36 
Q 684 19 347 128 
L 347 722 
Q 666 556 975 473 
Q 1284 391 1588 391 
Q 1994 391 2212 530 
Q 2431 669 2431 922 
Q 2431 1156 2273 1281 
Q 2116 1406 1581 1522 
L 1381 1569 
Q 847 1681 609 1914 
Q 372 2147 372 2553 
Q 372 3047 722 3315 
Q 1072 3584 1716 3584 
Q 2034 3584 2315 3537 
Q 2597 3491 2834 3397 
z
" transform="scale(0.015625)"/>
      </defs>
      <use xlink:href="#DejaVuSans-5b"/>
      <use xlink:href="#DejaVuSans-63" transform="translate(39.013672 0)"/>
      <use xlink:href="#DejaVuSans-6f" transform="translate(93.994141 0)"/>
      <use xlink:href="#DejaVuSans-75" transform="translate(155.175781 0)"/>
      <use xlink:href="#DejaVuSans-6e" transform="translate(218.554688 0)"/>
      <use xlink:href="#DejaVuSans-74" transform="translate(281.933594 0)"/>
      <use xlink:href="#DejaVuSans-73" transform="translate(321.142578 0)"/>
      <use xlink:href="#DejaVuSans-5d" transform="translate(373.242188 0)"/>
     </g>
    </g>
   </g>
   <g id="patch_3">
    <path d="M 53.328125 228.96 
L 53.328125 7.2 
" style="fill: none; stroke: #000000; stroke-width: 0.8; stroke-linejoin: miter; stroke-linecap: square"/>
   </g>
   <g id="patch_4">
    <path d="M 388.128125 228.96 
L 388.128125 7.2 
" style="fill: none; stroke: #000000; stroke-width: 0.8; stroke-linejoin: miter; stroke-linecap: square"/>
   </g>
   <g id="patch_5">
    <path d="M 53.328125 228.96 
L 388.128125 228.96 
" style="fill: none; stroke: #000000; stroke-width: 0.8; stroke-linejoin: miter; stroke-linecap: square"/>
   </g>
   <g id="patch_6">
    <path d="M 53.328125 7.2 
L 388.128125 7.2 
" style="fill: none; stroke: #000000; stroke-width: 0.8; stroke-linejoin: miter; stroke-linecap: square"/>
   </g>
   <g id="line2d_16">
    <path d="M 68.546307 218.88 
L 69.560852 218.88 
L 69.560852 200.168623 
L 70.575398 200.168623 
L 70.575398 156.860838 
L 71.589943 156.860838 
L 71.589943 107.894371 
L 72.604489 107.894371 
L 72.604489 98.236886 
L 73.619034 98.236886 
L 73.619034 88.353054 
L 74.63358 88.353054 
L 74.63358 89.258443 
L 75.648125 89.258443 
L 75.648125 85.561437 
L 76.66267 85.561437 
L 76.66267 88.051257 
L 77.677216 88.051257 
L 77.677216 81.788982 
L 78.691761 81.788982 
L 78.691761 72.056048 
L 80.720852 71.980599 
L 80.720852 60.361437 
L 81.735398 60.361437 
L 81.735398 59.757844 
L 82.749943 59.757844 
L 82.749943 50.779401 
L 83.764489 50.779401 
L 83.764489 46.026108 
L 84.779034 46.026108 
L 84.779034 36.821317 
L 85.79358 36.821317 
L 85.79358 39.688383 
L 86.808125 39.688383 
L 86.808125 35.236886 
L 87.82267 35.236886 
L 87.82267 21.731497 
L 88.837216 21.731497 
L 88.837216 24.447665 
L 89.851761 24.447665 
L 89.851761 17.28 
L 90.866307 17.28 
L 90.866307 26.635689 
L 91.880852 26.635689 
L 91.880852 25.881198 
L 92.895398 25.881198 
L 92.895398 24.372216 
L 93.909943 24.372216 
L 93.909943 35.387784 
L 94.924489 35.387784 
L 94.924489 28.672814 
L 95.939034 28.672814 
L 95.939034 22.561437 
L 96.95358 22.561437 
L 96.95358 34.557844 
L 97.968125 34.557844 
L 97.968125 36.368623 
L 98.98267 36.368623 
L 98.98267 42.027305 
L 99.997216 42.027305 
L 99.997216 40.669222 
L 101.011761 40.669222 
L 101.011761 42.329102 
L 102.026307 42.329102 
L 102.026307 47.384192 
L 103.040852 47.384192 
L 103.040852 63.756647 
L 104.055398 63.756647 
L 104.055398 73.036886 
L 105.069943 73.036886 
L 105.069943 80.732695 
L 106.084489 80.732695 
L 106.084489 88.353054 
L 107.099034 88.353054 
L 107.099034 97.633293 
L 108.11358 97.633293 
L 108.11358 104.876407 
L 109.128125 104.876407 
L 109.128125 116.797365 
L 110.14267 116.797365 
L 110.14267 125.851257 
L 111.157216 125.851257 
L 111.157216 129.548263 
L 112.171761 129.548263 
L 112.171761 140.262036 
L 113.186307 140.262036 
L 113.186307 142.978204 
L 114.200852 142.978204 
L 114.200852 152.711138 
L 115.215398 152.711138 
L 115.215398 157.313533 
L 116.229943 157.313533 
L 116.229943 169.30994 
L 117.244489 169.30994 
L 117.244489 175.345868 
L 118.259034 175.345868 
L 118.259034 181.381796 
L 119.27358 181.381796 
L 119.27358 187.644072 
L 120.288125 187.644072 
L 120.288125 184.173413 
L 121.30267 184.173413 
L 121.30267 161.463234 
L 122.317216 161.463234 
L 122.317216 148.410539 
L 123.331761 148.410539 
L 123.331761 131.283593 
L 124.346307 131.283593 
L 124.346307 100.877605 
L 125.360852 100.877605 
L 125.360852 94.53988 
L 126.375398 94.53988 
L 126.375398 86.240479 
L 127.389943 86.240479 
L 127.389943 90.691976 
L 128.404489 90.691976 
L 128.404489 93.106347 
L 129.419034 93.106347 
L 129.419034 92.05006 
L 130.43358 92.05006 
L 130.43358 92.653653 
L 131.448125 92.653653 
L 131.448125 98.538683 
L 132.46267 98.538683 
L 132.46267 103.744671 
L 133.477216 103.744671 
L 133.477216 107.818922 
L 134.491761 107.818922 
L 134.491761 104.423713 
L 135.506307 104.423713 
L 135.506307 97.784192 
L 136.520852 97.784192 
L 136.520852 106.460838 
L 137.535398 106.460838 
L 137.535398 103.518323 
L 138.549943 103.518323 
L 138.549943 108.196168 
L 139.564489 108.196168 
L 139.564489 110.610539 
L 140.579034 110.610539 
L 140.579034 110.761437 
L 141.59358 110.761437 
L 141.59358 111.36503 
L 142.608125 111.36503 
L 142.608125 113.402156 
L 143.62267 113.402156 
L 143.62267 118.457246 
L 144.637216 118.457246 
L 144.637216 116.344671 
L 145.651761 116.344671 
L 145.651761 118.306347 
L 146.666307 118.306347 
L 146.666307 120.56982 
L 147.680852 120.56982 
L 147.680852 116.344671 
L 148.695398 116.344671 
L 148.695398 115.212934 
L 149.709943 115.212934 
L 149.709943 117.627305 
L 150.724489 117.627305 
L 150.724489 122.757844 
L 151.739034 122.757844 
L 151.739034 126.303952 
L 152.75358 126.303952 
L 152.75358 129.925509 
L 153.768125 129.925509 
L 153.768125 119.287186 
L 154.78267 119.287186 
L 154.78267 119.890778 
L 155.797216 119.890778 
L 155.797216 127.812934 
L 156.811761 127.812934 
L 156.811761 130.453653 
L 157.826307 130.453653 
L 157.826307 130.830898 
L 158.840852 130.830898 
L 158.840852 135.056048 
L 159.855398 135.056048 
L 159.855398 129.246467 
L 160.869943 129.246467 
L 160.869943 135.056048 
L 161.884489 135.056048 
L 161.884489 144.336287 
L 162.899034 144.336287 
L 162.899034 151.730299 
L 163.91358 151.730299 
L 163.91358 150.674012 
L 164.928125 150.674012 
L 164.928125 153.541078 
L 165.94267 153.541078 
L 165.94267 151.881198 
L 166.957216 151.881198 
L 166.957216 153.767425 
L 167.971761 153.767425 
L 167.971761 158.294371 
L 170.000852 158.36982 
L 170.000852 158.068024 
L 171.015398 158.068024 
L 171.015398 153.767425 
L 172.029943 153.767425 
L 172.029943 150.447665 
L 173.044489 150.447665 
L 173.044489 145.920719 
L 174.059034 145.920719 
L 174.059034 140.186587 
L 175.07358 140.186587 
L 175.07358 129.548263 
L 176.088125 129.548263 
L 176.088125 132.868024 
L 177.10267 132.868024 
L 177.10267 135.961437 
L 178.117216 135.961437 
L 178.117216 146.448862 
L 179.131761 146.448862 
L 179.131761 148.712335 
L 180.146307 148.712335 
L 180.146307 150.900359 
L 181.160852 150.900359 
L 181.160852 158.747066 
L 182.175398 158.747066 
L 182.175398 158.143473 
L 183.189943 158.143473 
L 183.189943 155.125509 
L 184.204489 155.125509 
L 184.204489 154.446467 
L 185.219034 154.446467 
L 185.219034 157.464431 
L 186.23358 157.464431 
L 186.23358 157.690778 
L 187.248125 157.690778 
L 187.248125 156.785389 
L 188.26267 156.785389 
L 188.26267 159.652455 
L 189.277216 159.652455 
L 189.277216 162.745868 
L 190.291761 162.745868 
L 190.291761 159.727904 
L 191.306307 159.727904 
L 191.306307 165.235689 
L 192.320852 165.235689 
L 192.320852 164.330299 
L 193.335398 164.330299 
L 193.335398 166.216527 
L 194.349943 166.216527 
L 194.349943 164.782994 
L 195.364489 164.782994 
L 195.364489 168.404551 
L 196.379034 168.404551 
L 196.379034 172.478802 
L 197.39358 172.478802 
L 197.39358 174.666826 
L 198.408125 174.666826 
L 198.408125 175.044072 
L 199.42267 175.044072 
L 199.42267 175.723114 
L 200.437216 175.723114 
L 200.437216 176.85485 
L 201.451761 176.85485 
L 201.451761 177.458443 
L 202.466307 177.458443 
L 202.466307 175.496766 
L 203.480852 175.496766 
L 203.480852 187.342275 
L 204.495398 187.342275 
L 204.495398 186.587784 
L 205.509943 186.587784 
L 205.509943 190.28479 
L 206.524489 190.28479 
L 206.524489 189.077605 
L 207.539034 189.077605 
L 207.539034 192.397365 
L 208.55358 192.397365 
L 208.55358 192.246467 
L 209.568125 192.246467 
L 209.568125 190.133892 
L 210.58267 190.133892 
L 210.58267 195.792575 
L 211.597216 195.792575 
L 211.597216 195.038084 
L 212.611761 195.038084 
L 212.611761 195.717126 
L 213.626307 195.717126 
L 213.626307 197.980599 
L 214.640852 197.980599 
L 214.640852 199.036886 
L 215.655398 199.036886 
L 215.655398 193.529102 
L 216.669943 193.529102 
L 216.669943 192.472814 
L 217.684489 192.472814 
L 217.684489 191.265629 
L 218.699034 191.265629 
L 218.699034 187.342275 
L 219.71358 187.342275 
L 219.71358 186.889581 
L 220.728125 186.889581 
L 220.728125 179.42012 
L 221.74267 179.42012 
L 221.74267 187.79497 
L 222.757216 187.79497 
L 222.757216 188.398563 
L 223.771761 188.398563 
L 223.771761 191.341078 
L 224.786307 191.341078 
L 224.786307 194.585389 
L 225.800852 194.585389 
L 225.800852 195.113533 
L 226.815398 195.113533 
L 226.815398 197.150659 
L 227.829943 197.150659 
L 227.829943 196.094371 
L 228.844489 196.094371 
L 228.844489 196.924311 
L 229.859034 196.924311 
L 229.859034 195.490778 
L 230.87358 195.490778 
L 230.87358 197.754251 
L 231.888125 197.754251 
L 231.888125 201.451257 
L 232.90267 201.451257 
L 232.90267 200.168623 
L 233.917216 200.168623 
L 233.917216 200.545868 
L 234.931761 200.545868 
L 234.931761 203.111138 
L 235.946307 203.111138 
L 235.946307 202.281198 
L 236.960852 202.281198 
L 236.960852 203.79018 
L 237.975398 203.79018 
L 237.975398 203.337485 
L 238.989943 203.337485 
L 238.989943 203.79018 
L 240.004489 203.79018 
L 240.004489 205.978204 
L 241.019034 205.978204 
L 241.019034 207.260838 
L 242.03358 207.260838 
L 242.03358 206.732695 
L 243.048125 206.732695 
L 243.048125 207.185389 
L 244.06267 207.185389 
L 244.06267 207.864431 
L 245.077216 207.864431 
L 245.077216 209.67521 
L 246.091761 209.67521 
L 246.091761 210.429701 
L 248.120852 210.354251 
L 248.120852 212.014132 
L 249.135398 212.014132 
L 249.135398 210.731497 
L 250.149943 210.731497 
L 250.149943 212.391377 
L 251.164489 212.391377 
L 251.164489 213.145868 
L 252.179034 213.145868 
L 252.179034 213.749461 
L 253.19358 213.749461 
L 253.19358 213.598563 
L 254.208125 213.598563 
L 254.208125 213.221317 
L 255.22267 213.221317 
L 255.22267 214.579401 
L 256.237216 214.579401 
L 256.237216 215.258443 
L 257.251761 215.258443 
L 257.251761 213.975808 
L 258.266307 213.975808 
L 258.266307 212.014132 
L 259.280852 212.014132 
L 259.280852 210.127904 
L 260.295398 210.127904 
L 260.295398 207.788982 
L 261.309943 207.788982 
L 261.309943 208.090778 
L 262.324489 208.090778 
L 262.324489 205.902754 
L 263.339034 205.902754 
L 263.339034 204.771018 
L 264.35358 204.771018 
L 264.35358 204.62012 
L 265.368125 204.62012 
L 265.368125 205.676407 
L 266.38267 205.676407 
L 266.38267 206.959042 
L 267.397216 206.959042 
L 267.397216 209.373413 
L 268.411761 209.373413 
L 268.411761 207.93988 
L 269.426307 207.93988 
L 269.426307 207.260838 
L 270.440852 207.260838 
L 270.440852 208.166228 
L 271.455398 208.166228 
L 271.455398 208.996168 
L 272.469943 208.996168 
L 272.469943 210.50515 
L 273.484489 210.50515 
L 273.484489 209.297964 
L 274.499034 209.297964 
L 274.499034 210.127904 
L 275.51358 210.127904 
L 275.51358 211.636886 
L 276.528125 211.636886 
L 276.528125 212.16503 
L 277.54267 212.16503 
L 277.54267 210.806946 
L 278.557216 210.806946 
L 278.557216 212.391377 
L 279.571761 212.391377 
L 279.571761 211.33509 
L 280.586307 211.33509 
L 280.586307 211.636886 
L 281.600852 211.636886 
L 281.600852 211.863234 
L 282.615398 211.863234 
L 282.615398 213.598563 
L 286.67358 213.674012 
L 286.67358 215.032096 
L 287.688125 215.032096 
L 287.688125 214.65485 
L 288.70267 214.65485 
L 288.70267 215.032096 
L 289.717216 215.032096 
L 289.717216 215.711138 
L 291.746307 215.711138 
L 291.746307 216.541078 
L 294.789943 216.616527 
L 294.789943 216.314731 
L 295.804489 216.314731 
L 295.804489 216.842874 
L 296.819034 216.842874 
L 296.819034 217.748263 
L 297.83358 217.748263 
L 297.83358 216.163832 
L 298.848125 216.163832 
L 298.848125 216.691976 
L 299.86267 216.691976 
L 299.86267 214.881198 
L 300.877216 214.881198 
L 300.877216 213.82491 
L 301.891761 213.82491 
L 301.891761 213.674012 
L 302.906307 213.674012 
L 302.906307 212.466826 
L 303.920852 212.466826 
L 303.920852 209.67521 
L 304.935398 209.67521 
L 304.935398 208.468024 
L 305.949943 208.468024 
L 305.949943 206.959042 
L 306.964489 206.959042 
L 306.964489 204.62012 
L 307.979034 204.62012 
L 307.979034 202.96024 
L 308.99358 202.96024 
L 308.99358 203.412934 
L 310.008125 203.412934 
L 310.008125 202.130299 
L 311.02267 202.130299 
L 311.02267 204.016527 
L 312.037216 204.016527 
L 312.037216 204.242874 
L 313.051761 204.242874 
L 313.051761 204.393772 
L 314.066307 204.393772 
L 314.066307 203.262036 
L 315.080852 203.262036 
L 315.080852 204.544671 
L 316.095398 204.544671 
L 316.095398 203.563832 
L 317.109943 203.563832 
L 317.109943 205.223713 
L 318.124489 205.223713 
L 318.124489 203.186587 
L 319.139034 203.186587 
L 319.139034 206.883593 
L 320.15358 206.883593 
L 320.15358 204.544671 
L 321.168125 204.544671 
L 321.168125 205.299162 
L 322.18267 205.299162 
L 322.18267 205.902754 
L 323.197216 205.902754 
L 323.197216 204.016527 
L 324.211761 204.016527 
L 324.211761 202.88479 
L 325.226307 202.88479 
L 325.226307 204.167425 
L 326.240852 204.167425 
L 326.240852 206.959042 
L 327.255398 206.959042 
L 327.255398 208.015329 
L 328.269943 208.015329 
L 328.269943 206.808144 
L 329.284489 206.808144 
L 329.284489 208.694371 
L 330.299034 208.694371 
L 330.299034 208.015329 
L 331.31358 208.015329 
L 331.31358 208.76982 
L 332.328125 208.76982 
L 332.328125 209.071617 
L 333.34267 209.071617 
L 333.34267 209.524311 
L 334.357216 209.524311 
L 334.357216 209.977006 
L 335.371761 209.977006 
L 335.371761 209.448862 
L 336.386307 209.448862 
L 336.386307 208.468024 
L 337.400852 208.468024 
L 337.400852 209.977006 
L 338.415398 209.977006 
L 338.415398 207.93988 
L 339.429943 207.93988 
L 339.429943 211.184192 
L 340.444489 211.184192 
L 340.444489 209.977006 
L 341.459034 209.977006 
L 341.459034 212.16503 
L 342.47358 212.16503 
L 342.47358 211.410539 
L 343.488125 211.410539 
L 343.488125 211.938683 
L 344.50267 211.938683 
L 344.50267 211.712335 
L 345.517216 211.712335 
L 345.517216 213.975808 
L 346.531761 213.975808 
L 346.531761 213.749461 
L 347.546307 213.749461 
L 347.546307 215.258443 
L 348.560852 215.258443 
L 348.560852 214.65485 
L 349.575398 214.65485 
L 349.575398 216.842874 
L 350.589943 216.842874 
L 350.589943 217.295569 
L 351.604489 217.295569 
L 351.604489 218.502754 
L 352.619034 218.502754 
L 352.619034 218.88 
L 372.909943 218.88 
L 372.909943 218.88 
" clip-path="url(#pf3b38169d9)" style="fill: none; stroke: #1f77b4; stroke-width: 1.5; stroke-linecap: square"/>
   </g>
  </g>
 </g>
 <defs>
  <clipPath id="pf3b38169d9">
   <rect x="53.328125" y="7.2" width="334.8" height="221.76"/>
  </clipPath>
 </defs>
</svg>
