<?xml version="1.0" encoding="utf-8" standalone="no"?>
<!DOCTYPE svg PUBLIC "-//W3C//DTD SVG 1.1//EN"
  "http://www.w3.org/Graphics/SVG/1.1/DTD/svg11.dtd">
<svg xmlns:xlink="http://www.w3.org/1999/xlink" width="872.39952pt" height="296.39952pt" viewBox="0 0 872.39952 296.39952" xmlns="http://www.w3.org/2000/svg" version="1.1">
 <metadata>
  <rdf:RDF xmlns:dc="http://purl.org/dc/elements/1.1/" xmlns:cc="http://creativecommons.org/ns#" xmlns:rdf="http://www.w3.org/1999/02/22-rdf-syntax-ns#">
   <cc:Work>
    <dc:type rdf:resource="http://purl.org/dc/dcmitype/StillImage"/>
    <dc:date>2025-05-07T16:06:53.159352</dc:date>
    <dc:format>image/svg+xml</dc:format>
    <dc:creator>
     <cc:Agent>
      <dc:title>Matplotlib v3.10.1, https://matplotlib.org/</dc:title>
     </cc:Agent>
    </dc:creator>
   </cc:Work>
  </rdf:RDF>
 </metadata>
 <defs>
  <style type="text/css">*{stroke-linejoin: round; stroke-linecap: butt}</style>
 </defs>
 <g id="figure_1">
  <g id="patch_1">
   <path d="M 0 296.39952 
L 872.39952 296.39952 
L 872.39952 0 
L 0 0 
z
" style="fill: #ffffff"/>
  </g>
  <g id="axes_1">
   <g id="patch_2">
    <path d="M 46.965625 257.158895 
L 431.87976 257.158895 
L 431.87976 22.318125 
L 46.965625 22.318125 
z
" style="fill: #ffffff"/>
   </g>
   <g id="matplotlib.axis_1">
    <g id="xtick_1">
     <g id="line2d_1">
      <defs>
       <path id="m6b2880bd99" d="M 0 0 
L 0 3.5 
" style="stroke: #000000; stroke-width: 0.8"/>
      </defs>
      <g>
       <use xlink:href="#m6b2880bd99" x="82.878666" y="257.158895" style="stroke: #000000; stroke-width: 0.8"/>
      </g>
     </g>
     <g id="text_1">
      <!-- 1.0 -->
      <g transform="translate(74.927104 271.757332) scale(0.1 -0.1)">
       <defs>
        <path id="DejaVuSans-31" d="M 794 531 
L 1825 531 
L 1825 4091 
L 703 3866 
L 703 4441 
L 1819 4666 
L 2450 4666 
L 2450 531 
L 3481 531 
L 3481 0 
L 794 0 
L 794 531 
z
" transform="scale(0.015625)"/>
        <path id="DejaVuSans-2e" d="M 684 794 
L 1344 794 
L 1344 0 
L 684 0 
L 684 794 
z
" transform="scale(0.015625)"/>
        <path id="DejaVuSans-30" d="M 2034 4250 
Q 1547 4250 1301 3770 
Q 1056 3291 1056 2328 
Q 1056 1369 1301 889 
Q 1547 409 2034 409 
Q 2525 409 2770 889 
Q 3016 1369 3016 2328 
Q 3016 3291 2770 3770 
Q 2525 4250 2034 4250 
z
M 2034 4750 
Q 2819 4750 3233 4129 
Q 3647 3509 3647 2328 
Q 3647 1150 3233 529 
Q 2819 -91 2034 -91 
Q 1250 -91 836 529 
Q 422 1150 422 2328 
Q 422 3509 836 4129 
Q 1250 4750 2034 4750 
z
" transform="scale(0.015625)"/>
       </defs>
       <use xlink:href="#DejaVuSans-31"/>
       <use xlink:href="#DejaVuSans-2e" transform="translate(63.623047 0)"/>
       <use xlink:href="#DejaVuSans-30" transform="translate(95.410156 0)"/>
      </g>
     </g>
    </g>
    <g id="xtick_2">
     <g id="line2d_2">
      <g>
       <use xlink:href="#m6b2880bd99" x="128.921027" y="257.158895" style="stroke: #000000; stroke-width: 0.8"/>
      </g>
     </g>
     <g id="text_2">
      <!-- 1.5 -->
      <g transform="translate(120.969464 271.757332) scale(0.1 -0.1)">
       <defs>
        <path id="DejaVuSans-35" d="M 691 4666 
L 3169 4666 
L 3169 4134 
L 1269 4134 
L 1269 2991 
Q 1406 3038 1543 3061 
Q 1681 3084 1819 3084 
Q 2600 3084 3056 2656 
Q 3513 2228 3513 1497 
Q 3513 744 3044 326 
Q 2575 -91 1722 -91 
Q 1428 -91 1123 -41 
Q 819 9 494 109 
L 494 744 
Q 775 591 1075 516 
Q 1375 441 1709 441 
Q 2250 441 2565 725 
Q 2881 1009 2881 1497 
Q 2881 1984 2565 2268 
Q 2250 2553 1709 2553 
Q 1456 2553 1204 2497 
Q 953 2441 691 2322 
L 691 4666 
z
" transform="scale(0.015625)"/>
       </defs>
       <use xlink:href="#DejaVuSans-31"/>
       <use xlink:href="#DejaVuSans-2e" transform="translate(63.623047 0)"/>
       <use xlink:href="#DejaVuSans-35" transform="translate(95.410156 0)"/>
      </g>
     </g>
    </g>
    <g id="xtick_3">
     <g id="line2d_3">
      <g>
       <use xlink:href="#m6b2880bd99" x="174.963388" y="257.158895" style="stroke: #000000; stroke-width: 0.8"/>
      </g>
     </g>
     <g id="text_3">
      <!-- 2.0 -->
      <g transform="translate(167.011825 271.757332) scale(0.1 -0.1)">
       <defs>
        <path id="DejaVuSans-32" d="M 1228 531 
L 3431 531 
L 3431 0 
L 469 0 
L 469 531 
Q 828 903 1448 1529 
Q 2069 2156 2228 2338 
Q 2531 2678 2651 2914 
Q 2772 3150 2772 3378 
Q 2772 3750 2511 3984 
Q 2250 4219 1831 4219 
Q 1534 4219 1204 4116 
Q 875 4013 500 3803 
L 500 4441 
Q 881 4594 1212 4672 
Q 1544 4750 1819 4750 
Q 2544 4750 2975 4387 
Q 3406 4025 3406 3419 
Q 3406 3131 3298 2873 
Q 3191 2616 2906 2266 
Q 2828 2175 2409 1742 
Q 1991 1309 1228 531 
z
" transform="scale(0.015625)"/>
       </defs>
       <use xlink:href="#DejaVuSans-32"/>
       <use xlink:href="#DejaVuSans-2e" transform="translate(63.623047 0)"/>
       <use xlink:href="#DejaVuSans-30" transform="translate(95.410156 0)"/>
      </g>
     </g>
    </g>
    <g id="xtick_4">
     <g id="line2d_4">
      <g>
       <use xlink:href="#m6b2880bd99" x="221.005748" y="257.158895" style="stroke: #000000; stroke-width: 0.8"/>
      </g>
     </g>
     <g id="text_4">
      <!-- 2.5 -->
      <g transform="translate(213.054186 271.757332) scale(0.1 -0.1)">
       <use xlink:href="#DejaVuSans-32"/>
       <use xlink:href="#DejaVuSans-2e" transform="translate(63.623047 0)"/>
       <use xlink:href="#DejaVuSans-35" transform="translate(95.410156 0)"/>
      </g>
     </g>
    </g>
    <g id="xtick_5">
     <g id="line2d_5">
      <g>
       <use xlink:href="#m6b2880bd99" x="267.048109" y="257.158895" style="stroke: #000000; stroke-width: 0.8"/>
      </g>
     </g>
     <g id="text_5">
      <!-- 3.0 -->
      <g transform="translate(259.096546 271.757332) scale(0.1 -0.1)">
       <defs>
        <path id="DejaVuSans-33" d="M 2597 2516 
Q 3050 2419 3304 2112 
Q 3559 1806 3559 1356 
Q 3559 666 3084 287 
Q 2609 -91 1734 -91 
Q 1441 -91 1130 -33 
Q 819 25 488 141 
L 488 750 
Q 750 597 1062 519 
Q 1375 441 1716 441 
Q 2309 441 2620 675 
Q 2931 909 2931 1356 
Q 2931 1769 2642 2001 
Q 2353 2234 1838 2234 
L 1294 2234 
L 1294 2753 
L 1863 2753 
Q 2328 2753 2575 2939 
Q 2822 3125 2822 3475 
Q 2822 3834 2567 4026 
Q 2313 4219 1838 4219 
Q 1578 4219 1281 4162 
Q 984 4106 628 3988 
L 628 4550 
Q 988 4650 1302 4700 
Q 1616 4750 1894 4750 
Q 2613 4750 3031 4423 
Q 3450 4097 3450 3541 
Q 3450 3153 3228 2886 
Q 3006 2619 2597 2516 
z
" transform="scale(0.015625)"/>
       </defs>
       <use xlink:href="#DejaVuSans-33"/>
       <use xlink:href="#DejaVuSans-2e" transform="translate(63.623047 0)"/>
       <use xlink:href="#DejaVuSans-30" transform="translate(95.410156 0)"/>
      </g>
     </g>
    </g>
    <g id="xtick_6">
     <g id="line2d_6">
      <g>
       <use xlink:href="#m6b2880bd99" x="313.09047" y="257.158895" style="stroke: #000000; stroke-width: 0.8"/>
      </g>
     </g>
     <g id="text_6">
      <!-- 3.5 -->
      <g transform="translate(305.138907 271.757332) scale(0.1 -0.1)">
       <use xlink:href="#DejaVuSans-33"/>
       <use xlink:href="#DejaVuSans-2e" transform="translate(63.623047 0)"/>
       <use xlink:href="#DejaVuSans-35" transform="translate(95.410156 0)"/>
      </g>
     </g>
    </g>
    <g id="xtick_7">
     <g id="line2d_7">
      <g>
       <use xlink:href="#m6b2880bd99" x="359.13283" y="257.158895" style="stroke: #000000; stroke-width: 0.8"/>
      </g>
     </g>
     <g id="text_7">
      <!-- 4.0 -->
      <g transform="translate(351.181268 271.757332) scale(0.1 -0.1)">
       <defs>
        <path id="DejaVuSans-34" d="M 2419 4116 
L 825 1625 
L 2419 1625 
L 2419 4116 
z
M 2253 4666 
L 3047 4666 
L 3047 1625 
L 3713 1625 
L 3713 1100 
L 3047 1100 
L 3047 0 
L 2419 0 
L 2419 1100 
L 313 1100 
L 313 1709 
L 2253 4666 
z
" transform="scale(0.015625)"/>
       </defs>
       <use xlink:href="#DejaVuSans-34"/>
       <use xlink:href="#DejaVuSans-2e" transform="translate(63.623047 0)"/>
       <use xlink:href="#DejaVuSans-30" transform="translate(95.410156 0)"/>
      </g>
     </g>
    </g>
    <g id="xtick_8">
     <g id="line2d_8">
      <g>
       <use xlink:href="#m6b2880bd99" x="405.175191" y="257.158895" style="stroke: #000000; stroke-width: 0.8"/>
      </g>
     </g>
     <g id="text_8">
      <!-- 4.5 -->
      <g transform="translate(397.223628 271.757332) scale(0.1 -0.1)">
       <use xlink:href="#DejaVuSans-34"/>
       <use xlink:href="#DejaVuSans-2e" transform="translate(63.623047 0)"/>
       <use xlink:href="#DejaVuSans-35" transform="translate(95.410156 0)"/>
      </g>
     </g>
    </g>
    <g id="text_9">
     <!-- wavelength [Å] -->
     <g transform="translate(201.385193 287.119832) scale(0.1 -0.1)">
      <defs>
       <path id="DejaVuSans-77" d="M 269 3500 
L 844 3500 
L 1563 769 
L 2278 3500 
L 2956 3500 
L 3675 769 
L 4391 3500 
L 4966 3500 
L 4050 0 
L 3372 0 
L 2619 2869 
L 1863 0 
L 1184 0 
L 269 3500 
z
" transform="scale(0.015625)"/>
       <path id="DejaVuSans-61" d="M 2194 1759 
Q 1497 1759 1228 1600 
Q 959 1441 959 1056 
Q 959 750 1161 570 
Q 1363 391 1709 391 
Q 2188 391 2477 730 
Q 2766 1069 2766 1631 
L 2766 1759 
L 2194 1759 
z
M 3341 1997 
L 3341 0 
L 2766 0 
L 2766 531 
Q 2569 213 2275 61 
Q 1981 -91 1556 -91 
Q 1019 -91 701 211 
Q 384 513 384 1019 
Q 384 1609 779 1909 
Q 1175 2209 1959 2209 
L 2766 2209 
L 2766 2266 
Q 2766 2663 2505 2880 
Q 2244 3097 1772 3097 
Q 1472 3097 1187 3025 
Q 903 2953 641 2809 
L 641 3341 
Q 956 3463 1253 3523 
Q 1550 3584 1831 3584 
Q 2591 3584 2966 3190 
Q 3341 2797 3341 1997 
z
" transform="scale(0.015625)"/>
       <path id="DejaVuSans-76" d="M 191 3500 
L 800 3500 
L 1894 563 
L 2988 3500 
L 3597 3500 
L 2284 0 
L 1503 0 
L 191 3500 
z
" transform="scale(0.015625)"/>
       <path id="DejaVuSans-65" d="M 3597 1894 
L 3597 1613 
L 953 1613 
Q 991 1019 1311 708 
Q 1631 397 2203 397 
Q 2534 397 2845 478 
Q 3156 559 3463 722 
L 3463 178 
Q 3153 47 2828 -22 
Q 2503 -91 2169 -91 
Q 1331 -91 842 396 
Q 353 884 353 1716 
Q 353 2575 817 3079 
Q 1281 3584 2069 3584 
Q 2775 3584 3186 3129 
Q 3597 2675 3597 1894 
z
M 3022 2063 
Q 3016 2534 2758 2815 
Q 2500 3097 2075 3097 
Q 1594 3097 1305 2825 
Q 1016 2553 972 2059 
L 3022 2063 
z
" transform="scale(0.015625)"/>
       <path id="DejaVuSans-6c" d="M 603 4863 
L 1178 4863 
L 1178 0 
L 603 0 
L 603 4863 
z
" transform="scale(0.015625)"/>
       <path id="DejaVuSans-6e" d="M 3513 2113 
L 3513 0 
L 2938 0 
L 2938 2094 
Q 2938 2591 2744 2837 
Q 2550 3084 2163 3084 
Q 1697 3084 1428 2787 
Q 1159 2491 1159 1978 
L 1159 0 
L 581 0 
L 581 3500 
L 1159 3500 
L 1159 2956 
Q 1366 3272 1645 3428 
Q 1925 3584 2291 3584 
Q 2894 3584 3203 3211 
Q 3513 2838 3513 2113 
z
" transform="scale(0.015625)"/>
       <path id="DejaVuSans-67" d="M 2906 1791 
Q 2906 2416 2648 2759 
Q 2391 3103 1925 3103 
Q 1463 3103 1205 2759 
Q 947 2416 947 1791 
Q 947 1169 1205 825 
Q 1463 481 1925 481 
Q 2391 481 2648 825 
Q 2906 1169 2906 1791 
z
M 3481 434 
Q 3481 -459 3084 -895 
Q 2688 -1331 1869 -1331 
Q 1566 -1331 1297 -1286 
Q 1028 -1241 775 -1147 
L 775 -588 
Q 1028 -725 1275 -790 
Q 1522 -856 1778 -856 
Q 2344 -856 2625 -561 
Q 2906 -266 2906 331 
L 2906 616 
Q 2728 306 2450 153 
Q 2172 0 1784 0 
Q 1141 0 747 490 
Q 353 981 353 1791 
Q 353 2603 747 3093 
Q 1141 3584 1784 3584 
Q 2172 3584 2450 3431 
Q 2728 3278 2906 2969 
L 2906 3500 
L 3481 3500 
L 3481 434 
z
" transform="scale(0.015625)"/>
       <path id="DejaVuSans-74" d="M 1172 4494 
L 1172 3500 
L 2356 3500 
L 2356 3053 
L 1172 3053 
L 1172 1153 
Q 1172 725 1289 603 
Q 1406 481 1766 481 
L 2356 481 
L 2356 0 
L 1766 0 
Q 1100 0 847 248 
Q 594 497 594 1153 
L 594 3053 
L 172 3053 
L 172 3500 
L 594 3500 
L 594 4494 
L 1172 4494 
z
" transform="scale(0.015625)"/>
       <path id="DejaVuSans-68" d="M 3513 2113 
L 3513 0 
L 2938 0 
L 2938 2094 
Q 2938 2591 2744 2837 
Q 2550 3084 2163 3084 
Q 1697 3084 1428 2787 
Q 1159 2491 1159 1978 
L 1159 0 
L 581 0 
L 581 4863 
L 1159 4863 
L 1159 2956 
Q 1366 3272 1645 3428 
Q 1925 3584 2291 3584 
Q 2894 3584 3203 3211 
Q 3513 2838 3513 2113 
z
" transform="scale(0.015625)"/>
       <path id="DejaVuSans-20" transform="scale(0.015625)"/>
       <path id="DejaVuSans-5b" d="M 550 4863 
L 1875 4863 
L 1875 4416 
L 1125 4416 
L 1125 -397 
L 1875 -397 
L 1875 -844 
L 550 -844 
L 550 4863 
z
" transform="scale(0.015625)"/>
       <path id="DejaVuSans-c5" d="M 2663 5081 
Q 2663 5278 2523 5417 
Q 2384 5556 2188 5556 
Q 1988 5556 1852 5420 
Q 1716 5284 1716 5081 
Q 1716 4884 1853 4746 
Q 1991 4609 2188 4609 
Q 2384 4609 2523 4746 
Q 2663 4884 2663 5081 
z
M 2188 4044 
L 1338 1722 
L 3041 1722 
L 2188 4044 
z
M 1716 4366 
Q 1525 4494 1428 4673 
Q 1331 4853 1331 5081 
Q 1331 5441 1579 5691 
Q 1828 5941 2188 5941 
Q 2544 5941 2795 5689 
Q 3047 5438 3047 5081 
Q 3047 4863 2948 4678 
Q 2850 4494 2663 4366 
L 4325 0 
L 3669 0 
L 3244 1197 
L 1141 1197 
L 716 0 
L 50 0 
L 1716 4366 
z
" transform="scale(0.015625)"/>
       <path id="DejaVuSans-5d" d="M 1947 4863 
L 1947 -844 
L 622 -844 
L 622 -397 
L 1369 -397 
L 1369 4416 
L 622 4416 
L 622 4863 
L 1947 4863 
z
" transform="scale(0.015625)"/>
      </defs>
      <use xlink:href="#DejaVuSans-77"/>
      <use xlink:href="#DejaVuSans-61" transform="translate(81.787109 0)"/>
      <use xlink:href="#DejaVuSans-76" transform="translate(143.066406 0)"/>
      <use xlink:href="#DejaVuSans-65" transform="translate(202.246094 0)"/>
      <use xlink:href="#DejaVuSans-6c" transform="translate(263.769531 0)"/>
      <use xlink:href="#DejaVuSans-65" transform="translate(291.552734 0)"/>
      <use xlink:href="#DejaVuSans-6e" transform="translate(353.076172 0)"/>
      <use xlink:href="#DejaVuSans-67" transform="translate(416.455078 0)"/>
      <use xlink:href="#DejaVuSans-74" transform="translate(479.931641 0)"/>
      <use xlink:href="#DejaVuSans-68" transform="translate(519.140625 0)"/>
      <use xlink:href="#DejaVuSans-20" transform="translate(582.519531 0)"/>
      <use xlink:href="#DejaVuSans-5b" transform="translate(614.306641 0)"/>
      <use xlink:href="#DejaVuSans-c5" transform="translate(653.320312 0)"/>
      <use xlink:href="#DejaVuSans-5d" transform="translate(721.728516 0)"/>
     </g>
    </g>
   </g>
   <g id="matplotlib.axis_2">
    <g id="ytick_1">
     <g id="line2d_9">
      <defs>
       <path id="mcda8f54e9b" d="M 0 0 
L -3.5 0 
" style="stroke: #000000; stroke-width: 0.8"/>
      </defs>
      <g>
       <use xlink:href="#mcda8f54e9b" x="46.965625" y="246.484315" style="stroke: #000000; stroke-width: 0.8"/>
      </g>
     </g>
     <g id="text_10">
      <!-- 0 -->
      <g transform="translate(33.603125 250.283533) scale(0.1 -0.1)">
       <use xlink:href="#DejaVuSans-30"/>
      </g>
     </g>
    </g>
    <g id="ytick_2">
     <g id="line2d_10">
      <g>
       <use xlink:href="#mcda8f54e9b" x="46.965625" y="220.029344" style="stroke: #000000; stroke-width: 0.8"/>
      </g>
     </g>
     <g id="text_11">
      <!-- 100 -->
      <g transform="translate(20.878125 223.828563) scale(0.1 -0.1)">
       <use xlink:href="#DejaVuSans-31"/>
       <use xlink:href="#DejaVuSans-30" transform="translate(63.623047 0)"/>
       <use xlink:href="#DejaVuSans-30" transform="translate(127.246094 0)"/>
      </g>
     </g>
    </g>
    <g id="ytick_3">
     <g id="line2d_11">
      <g>
       <use xlink:href="#mcda8f54e9b" x="46.965625" y="193.574374" style="stroke: #000000; stroke-width: 0.8"/>
      </g>
     </g>
     <g id="text_12">
      <!-- 200 -->
      <g transform="translate(20.878125 197.373593) scale(0.1 -0.1)">
       <use xlink:href="#DejaVuSans-32"/>
       <use xlink:href="#DejaVuSans-30" transform="translate(63.623047 0)"/>
       <use xlink:href="#DejaVuSans-30" transform="translate(127.246094 0)"/>
      </g>
     </g>
    </g>
    <g id="ytick_4">
     <g id="line2d_12">
      <g>
       <use xlink:href="#mcda8f54e9b" x="46.965625" y="167.119404" style="stroke: #000000; stroke-width: 0.8"/>
      </g>
     </g>
     <g id="text_13">
      <!-- 300 -->
      <g transform="translate(20.878125 170.918623) scale(0.1 -0.1)">
       <use xlink:href="#DejaVuSans-33"/>
       <use xlink:href="#DejaVuSans-30" transform="translate(63.623047 0)"/>
       <use xlink:href="#DejaVuSans-30" transform="translate(127.246094 0)"/>
      </g>
     </g>
    </g>
    <g id="ytick_5">
     <g id="line2d_13">
      <g>
       <use xlink:href="#mcda8f54e9b" x="46.965625" y="140.664434" style="stroke: #000000; stroke-width: 0.8"/>
      </g>
     </g>
     <g id="text_14">
      <!-- 400 -->
      <g transform="translate(20.878125 144.463653) scale(0.1 -0.1)">
       <use xlink:href="#DejaVuSans-34"/>
       <use xlink:href="#DejaVuSans-30" transform="translate(63.623047 0)"/>
       <use xlink:href="#DejaVuSans-30" transform="translate(127.246094 0)"/>
      </g>
     </g>
    </g>
    <g id="ytick_6">
     <g id="line2d_14">
      <g>
       <use xlink:href="#mcda8f54e9b" x="46.965625" y="114.209464" style="stroke: #000000; stroke-width: 0.8"/>
      </g>
     </g>
     <g id="text_15">
      <!-- 500 -->
      <g transform="translate(20.878125 118.008683) scale(0.1 -0.1)">
       <use xlink:href="#DejaVuSans-35"/>
       <use xlink:href="#DejaVuSans-30" transform="translate(63.623047 0)"/>
       <use xlink:href="#DejaVuSans-30" transform="translate(127.246094 0)"/>
      </g>
     </g>
    </g>
    <g id="ytick_7">
     <g id="line2d_15">
      <g>
       <use xlink:href="#mcda8f54e9b" x="46.965625" y="87.754494" style="stroke: #000000; stroke-width: 0.8"/>
      </g>
     </g>
     <g id="text_16">
      <!-- 600 -->
      <g transform="translate(20.878125 91.553712) scale(0.1 -0.1)">
       <defs>
        <path id="DejaVuSans-36" d="M 2113 2584 
Q 1688 2584 1439 2293 
Q 1191 2003 1191 1497 
Q 1191 994 1439 701 
Q 1688 409 2113 409 
Q 2538 409 2786 701 
Q 3034 994 3034 1497 
Q 3034 2003 2786 2293 
Q 2538 2584 2113 2584 
z
M 3366 4563 
L 3366 3988 
Q 3128 4100 2886 4159 
Q 2644 4219 2406 4219 
Q 1781 4219 1451 3797 
Q 1122 3375 1075 2522 
Q 1259 2794 1537 2939 
Q 1816 3084 2150 3084 
Q 2853 3084 3261 2657 
Q 3669 2231 3669 1497 
Q 3669 778 3244 343 
Q 2819 -91 2113 -91 
Q 1303 -91 875 529 
Q 447 1150 447 2328 
Q 447 3434 972 4092 
Q 1497 4750 2381 4750 
Q 2619 4750 2861 4703 
Q 3103 4656 3366 4563 
z
" transform="scale(0.015625)"/>
       </defs>
       <use xlink:href="#DejaVuSans-36"/>
       <use xlink:href="#DejaVuSans-30" transform="translate(63.623047 0)"/>
       <use xlink:href="#DejaVuSans-30" transform="translate(127.246094 0)"/>
      </g>
     </g>
    </g>
    <g id="ytick_8">
     <g id="line2d_16">
      <g>
       <use xlink:href="#mcda8f54e9b" x="46.965625" y="61.299524" style="stroke: #000000; stroke-width: 0.8"/>
      </g>
     </g>
     <g id="text_17">
      <!-- 700 -->
      <g transform="translate(20.878125 65.098742) scale(0.1 -0.1)">
       <defs>
        <path id="DejaVuSans-37" d="M 525 4666 
L 3525 4666 
L 3525 4397 
L 1831 0 
L 1172 0 
L 2766 4134 
L 525 4134 
L 525 4666 
z
" transform="scale(0.015625)"/>
       </defs>
       <use xlink:href="#DejaVuSans-37"/>
       <use xlink:href="#DejaVuSans-30" transform="translate(63.623047 0)"/>
       <use xlink:href="#DejaVuSans-30" transform="translate(127.246094 0)"/>
      </g>
     </g>
    </g>
    <g id="ytick_9">
     <g id="line2d_17">
      <g>
       <use xlink:href="#mcda8f54e9b" x="46.965625" y="34.844553" style="stroke: #000000; stroke-width: 0.8"/>
      </g>
     </g>
     <g id="text_18">
      <!-- 800 -->
      <g transform="translate(20.878125 38.643772) scale(0.1 -0.1)">
       <defs>
        <path id="DejaVuSans-38" d="M 2034 2216 
Q 1584 2216 1326 1975 
Q 1069 1734 1069 1313 
Q 1069 891 1326 650 
Q 1584 409 2034 409 
Q 2484 409 2743 651 
Q 3003 894 3003 1313 
Q 3003 1734 2745 1975 
Q 2488 2216 2034 2216 
z
M 1403 2484 
Q 997 2584 770 2862 
Q 544 3141 544 3541 
Q 544 4100 942 4425 
Q 1341 4750 2034 4750 
Q 2731 4750 3128 4425 
Q 3525 4100 3525 3541 
Q 3525 3141 3298 2862 
Q 3072 2584 2669 2484 
Q 3125 2378 3379 2068 
Q 3634 1759 3634 1313 
Q 3634 634 3220 271 
Q 2806 -91 2034 -91 
Q 1263 -91 848 271 
Q 434 634 434 1313 
Q 434 1759 690 2068 
Q 947 2378 1403 2484 
z
M 1172 3481 
Q 1172 3119 1398 2916 
Q 1625 2713 2034 2713 
Q 2441 2713 2670 2916 
Q 2900 3119 2900 3481 
Q 2900 3844 2670 4047 
Q 2441 4250 2034 4250 
Q 1625 4250 1398 4047 
Q 1172 3844 1172 3481 
z
" transform="scale(0.015625)"/>
       </defs>
       <use xlink:href="#DejaVuSans-38"/>
       <use xlink:href="#DejaVuSans-30" transform="translate(63.623047 0)"/>
       <use xlink:href="#DejaVuSans-30" transform="translate(127.246094 0)"/>
      </g>
     </g>
    </g>
    <g id="text_19">
     <!-- [counts] -->
     <g transform="translate(14.798437 160.35101) rotate(-90) scale(0.1 -0.1)">
      <defs>
       <path id="DejaVuSans-63" d="M 3122 3366 
L 3122 2828 
Q 2878 2963 2633 3030 
Q 2388 3097 2138 3097 
Q 1578 3097 1268 2742 
Q 959 2388 959 1747 
Q 959 1106 1268 751 
Q 1578 397 2138 397 
Q 2388 397 2633 464 
Q 2878 531 3122 666 
L 3122 134 
Q 2881 22 2623 -34 
Q 2366 -91 2075 -91 
Q 1284 -91 818 406 
Q 353 903 353 1747 
Q 353 2603 823 3093 
Q 1294 3584 2113 3584 
Q 2378 3584 2631 3529 
Q 2884 3475 3122 3366 
z
" transform="scale(0.015625)"/>
       <path id="DejaVuSans-6f" d="M 1959 3097 
Q 1497 3097 1228 2736 
Q 959 2375 959 1747 
Q 959 1119 1226 758 
Q 1494 397 1959 397 
Q 2419 397 2687 759 
Q 2956 1122 2956 1747 
Q 2956 2369 2687 2733 
Q 2419 3097 1959 3097 
z
M 1959 3584 
Q 2709 3584 3137 3096 
Q 3566 2609 3566 1747 
Q 3566 888 3137 398 
Q 2709 -91 1959 -91 
Q 1206 -91 779 398 
Q 353 888 353 1747 
Q 353 2609 779 3096 
Q 1206 3584 1959 3584 
z
" transform="scale(0.015625)"/>
       <path id="DejaVuSans-75" d="M 544 1381 
L 544 3500 
L 1119 3500 
L 1119 1403 
Q 1119 906 1312 657 
Q 1506 409 1894 409 
Q 2359 409 2629 706 
Q 2900 1003 2900 1516 
L 2900 3500 
L 3475 3500 
L 3475 0 
L 2900 0 
L 2900 538 
Q 2691 219 2414 64 
Q 2138 -91 1772 -91 
Q 1169 -91 856 284 
Q 544 659 544 1381 
z
M 1991 3584 
L 1991 3584 
z
" transform="scale(0.015625)"/>
       <path id="DejaVuSans-73" d="M 2834 3397 
L 2834 2853 
Q 2591 2978 2328 3040 
Q 2066 3103 1784 3103 
Q 1356 3103 1142 2972 
Q 928 2841 928 2578 
Q 928 2378 1081 2264 
Q 1234 2150 1697 2047 
L 1894 2003 
Q 2506 1872 2764 1633 
Q 3022 1394 3022 966 
Q 3022 478 2636 193 
Q 2250 -91 1575 -91 
Q 1294 -91 989 -36 
Q 684 19 347 128 
L 347 722 
Q 666 556 975 473 
Q 1284 391 1588 391 
Q 1994 391 2212 530 
Q 2431 669 2431 922 
Q 2431 1156 2273 1281 
Q 2116 1406 1581 1522 
L 1381 1569 
Q 847 1681 609 1914 
Q 372 2147 372 2553 
Q 372 3047 722 3315 
Q 1072 3584 1716 3584 
Q 2034 3584 2315 3537 
Q 2597 3491 2834 3397 
z
" transform="scale(0.015625)"/>
      </defs>
      <use xlink:href="#DejaVuSans-5b"/>
      <use xlink:href="#DejaVuSans-63" transform="translate(39.013672 0)"/>
      <use xlink:href="#DejaVuSans-6f" transform="translate(93.994141 0)"/>
      <use xlink:href="#DejaVuSans-75" transform="translate(155.175781 0)"/>
      <use xlink:href="#DejaVuSans-6e" transform="translate(218.554688 0)"/>
      <use xlink:href="#DejaVuSans-74" transform="translate(281.933594 0)"/>
      <use xlink:href="#DejaVuSans-73" transform="translate(321.142578 0)"/>
      <use xlink:href="#DejaVuSans-5d" transform="translate(373.242188 0)"/>
     </g>
    </g>
   </g>
   <g id="line2d_18">
    <path d="M 64.461722 246.484315 
L 73.209771 246.484315 
L 73.209771 242.516069 
L 74.95938 242.516069 
L 74.95938 238.547824 
L 76.70899 238.547824 
L 76.70899 227.701286 
L 78.4586 227.701286 
L 78.4586 224.791239 
L 80.208209 224.791239 
L 80.208209 212.092853 
L 81.957819 212.092853 
L 81.957819 197.27807 
L 83.707429 197.27807 
L 83.707429 196.748971 
L 85.457039 196.748971 
L 85.457039 189.870678 
L 87.206648 189.870678 
L 87.206648 177.172293 
L 88.956258 177.172293 
L 88.956258 169.235802 
L 90.705868 169.235802 
L 90.705868 161.034761 
L 92.455477 161.034761 
L 92.455477 164.209357 
L 94.205087 164.209357 
L 94.205087 148.336375 
L 95.954697 148.336375 
L 95.954697 145.955428 
L 97.704306 145.955428 
L 97.704306 120.823206 
L 99.453916 120.823206 
L 99.453916 123.997803 
L 101.203526 123.997803 
L 101.203526 104.421125 
L 102.953136 104.421125 
L 102.953136 107.066622 
L 104.702745 107.066622 
L 104.702745 102.040178 
L 106.452355 102.040178 
L 106.452355 103.627476 
L 108.201965 103.627476 
L 108.201965 103.362926 
L 109.951574 103.362926 
L 109.951574 87.225394 
L 111.701184 87.225394 
L 111.701184 72.93971 
L 113.450794 72.93971 
L 113.450794 80.876201 
L 115.200403 80.876201 
L 115.200403 58.389477 
L 116.950013 58.389477 
L 116.950013 80.876201 
L 118.699623 80.876201 
L 118.699623 51.511185 
L 120.449233 51.511185 
L 120.449233 47.01384 
L 122.198842 47.01384 
L 122.198842 57.066728 
L 123.948452 57.066728 
L 123.948452 38.548249 
L 125.698062 38.548249 
L 125.698062 40.664647 
L 127.447671 40.664647 
L 127.447671 43.839243 
L 129.197281 43.839243 
L 129.197281 37.49005 
L 130.946891 37.49005 
L 130.946891 48.336588 
L 132.696501 48.336588 
L 132.696501 42.516495 
L 134.44611 42.516495 
L 134.44611 50.452986 
L 136.19572 50.452986 
L 136.19572 57.860377 
L 137.94533 57.860377 
L 137.94533 65.796868 
L 139.694939 65.796868 
L 139.694939 49.923886 
L 141.444549 49.923886 
L 141.444549 48.601138 
L 143.194159 48.601138 
L 143.194159 60.770424 
L 144.943768 60.770424 
L 144.943768 73.46881 
L 146.693378 73.46881 
L 146.693378 63.680471 
L 148.442988 63.680471 
L 148.442988 65.796868 
L 150.192598 65.796868 
L 150.192598 81.9344 
L 151.942207 81.9344 
L 151.942207 77.701605 
L 153.691817 77.701605 
L 153.691817 74.262459 
L 155.441427 74.262459 
L 155.441427 77.437055 
L 157.191036 77.437055 
L 157.191036 80.347102 
L 158.940646 80.347102 
L 158.940646 84.844447 
L 160.690256 84.844447 
L 160.690256 73.997909 
L 162.439866 73.997909 
L 162.439866 78.495254 
L 165.939085 78.495254 
L 165.939085 79.818003 
L 167.688695 79.818003 
L 167.688695 84.050798 
L 169.438304 84.050798 
L 169.438304 87.754494 
L 171.187914 87.754494 
L 171.187914 61.034974 
L 172.937524 61.034974 
L 172.937524 83.521698 
L 174.687133 83.521698 
L 174.687133 78.759804 
L 176.436743 78.759804 
L 176.436743 87.754494 
L 178.186353 87.754494 
L 178.186353 82.19895 
L 179.935963 82.19895 
L 179.935963 88.019043 
L 181.685572 88.019043 
L 181.685572 75.320658 
L 183.435182 75.320658 
L 183.435182 89.870891 
L 185.184792 89.870891 
L 185.184792 80.347102 
L 186.934401 80.347102 
L 186.934401 95.426435 
L 190.433621 95.426435 
L 190.433621 97.013733 
L 192.18323 97.013733 
L 192.18323 99.130131 
L 193.93284 99.130131 
L 193.93284 100.452879 
L 195.68245 100.452879 
L 195.68245 100.18833 
L 197.43206 100.18833 
L 197.43206 112.622166 
L 199.181669 112.622166 
L 199.181669 112.093066 
L 200.931279 112.093066 
L 200.931279 115.003113 
L 202.680889 115.003113 
L 202.680889 123.997803 
L 204.430498 123.997803 
L 204.430498 132.992493 
L 206.180108 132.992493 
L 206.180108 125.320551 
L 207.929718 125.320551 
L 207.929718 144.36813 
L 209.679328 144.36813 
L 209.679328 152.040071 
L 211.428937 152.040071 
L 211.428937 156.801966 
L 213.178547 156.801966 
L 213.178547 170.294001 
L 214.928157 170.294001 
L 214.928157 182.198737 
L 216.677766 182.198737 
L 216.677766 188.28338 
L 218.427376 188.28338 
L 218.427376 186.431532 
L 220.176986 186.431532 
L 220.176986 192.251626 
L 221.926595 192.251626 
L 221.926595 202.833614 
L 223.676205 202.833614 
L 223.676205 212.621953 
L 225.425815 212.621953 
L 225.425815 221.352093 
L 227.175425 221.352093 
L 227.175425 225.055789 
L 228.925034 225.055789 
L 228.925034 226.643087 
L 230.674644 226.643087 
L 230.674644 236.695976 
L 232.424254 236.695976 
L 232.424254 237.489625 
L 234.173863 237.489625 
L 234.173863 244.103367 
L 235.923473 244.103367 
L 235.923473 243.574268 
L 237.673083 243.574268 
L 237.673083 240.135122 
L 239.422693 240.135122 
L 239.422693 232.46318 
L 241.172302 232.46318 
L 241.172302 222.145742 
L 242.921912 222.145742 
L 242.921912 222.939391 
L 244.671522 222.939391 
L 244.671522 215.531999 
L 246.421131 215.531999 
L 246.421131 207.066409 
L 249.920351 207.066409 
L 249.920351 197.54262 
L 251.66996 197.54262 
L 251.66996 190.664328 
L 253.41957 190.664328 
L 253.41957 191.193427 
L 255.16918 191.193427 
L 255.16918 177.436842 
L 256.91879 177.436842 
L 256.91879 183.521486 
L 258.668399 183.521486 
L 258.668399 166.854854 
L 260.418009 166.854854 
L 260.418009 173.733147 
L 262.167619 173.733147 
L 262.167619 159.976562 
L 263.917228 159.976562 
L 263.917228 151.775521 
L 265.666838 151.775521 
L 265.666838 152.304621 
L 267.416448 152.304621 
L 267.416448 155.479217 
L 269.166057 155.479217 
L 269.166057 142.251732 
L 270.915667 142.251732 
L 270.915667 140.399884 
L 272.665277 140.399884 
L 272.665277 138.018937 
L 274.414887 138.018937 
L 274.414887 144.10358 
L 276.164496 144.10358 
L 276.164496 129.553346 
L 277.914106 129.553346 
L 277.914106 125.056002 
L 279.663716 125.056002 
L 279.663716 125.320551 
L 281.413325 125.320551 
L 281.413325 122.675054 
L 283.162935 122.675054 
L 283.162935 120.823206 
L 284.912545 120.823206 
L 284.912545 100.717429 
L 286.662155 100.717429 
L 286.662155 115.267663 
L 288.411764 115.267663 
L 288.411764 125.849651 
L 290.161374 125.849651 
L 290.161374 100.717429 
L 291.910984 100.717429 
L 291.910984 104.421125 
L 293.660593 104.421125 
L 293.660593 106.802072 
L 295.410203 106.802072 
L 295.410203 110.505768 
L 297.159813 110.505768 
L 297.159813 106.008423 
L 298.909422 106.008423 
L 298.909422 113.151265 
L 300.659032 113.151265 
L 300.659032 115.267663 
L 302.408642 115.267663 
L 302.408642 125.320551 
L 304.158252 125.320551 
L 304.158252 120.823206 
L 305.907861 120.823206 
L 305.907861 122.410505 
L 307.657471 122.410505 
L 307.657471 119.500458 
L 309.407081 119.500458 
L 309.407081 127.436949 
L 311.15669 127.436949 
L 311.15669 121.087756 
L 312.9063 121.087756 
L 312.9063 133.521592 
L 314.65591 133.521592 
L 314.65591 133.786142 
L 316.405519 133.786142 
L 316.405519 128.230598 
L 318.155129 128.230598 
L 318.155129 141.458083 
L 319.904739 141.458083 
L 319.904739 138.548036 
L 321.654349 138.548036 
L 321.654349 139.870785 
L 323.403958 139.870785 
L 323.403958 130.346996 
L 325.153568 130.346996 
L 325.153568 146.749077 
L 326.903178 146.749077 
L 326.903178 139.341685 
L 328.652787 139.341685 
L 328.652787 142.251732 
L 330.402397 142.251732 
L 330.402397 148.600925 
L 332.152007 148.600925 
L 332.152007 155.214668 
L 333.901617 155.214668 
L 333.901617 150.188223 
L 335.651226 150.188223 
L 335.651226 159.182913 
L 337.400836 159.182913 
L 337.400836 153.891919 
L 339.150446 153.891919 
L 339.150446 159.712012 
L 340.900055 159.712012 
L 340.900055 165.003006 
L 342.649665 165.003006 
L 342.649665 161.034761 
L 344.399275 161.034761 
L 344.399275 160.241112 
L 346.148884 160.241112 
L 346.148884 157.331065 
L 347.898494 157.331065 
L 347.898494 167.913053 
L 349.648104 167.913053 
L 349.648104 166.325755 
L 351.397714 166.325755 
L 351.397714 169.764901 
L 353.147323 169.764901 
L 353.147323 174.791345 
L 354.896933 174.791345 
L 354.896933 187.225181 
L 356.646543 187.225181 
L 356.646543 173.204047 
L 358.396152 173.204047 
L 358.396152 181.934187 
L 360.145762 181.934187 
L 360.145762 182.727836 
L 361.895372 182.727836 
L 361.895372 185.373334 
L 363.644982 185.373334 
L 363.644982 191.987076 
L 365.394591 191.987076 
L 365.394591 191.722526 
L 367.144201 191.722526 
L 367.144201 195.955322 
L 368.893811 195.955322 
L 368.893811 200.717216 
L 370.64342 200.717216 
L 370.64342 198.600819 
L 372.39303 198.600819 
L 372.39303 206.801859 
L 374.14264 206.801859 
L 374.14264 208.918257 
L 375.892249 208.918257 
L 375.892249 213.151052 
L 377.641859 213.151052 
L 377.641859 220.029344 
L 379.391469 220.029344 
L 379.391469 220.293894 
L 381.141079 220.293894 
L 381.141079 224.791239 
L 382.890688 224.791239 
L 382.890688 225.320338 
L 384.640298 225.320338 
L 384.640298 226.907637 
L 386.389908 226.907637 
L 386.389908 230.082233 
L 388.139517 230.082233 
L 388.139517 233.521379 
L 389.889127 233.521379 
L 389.889127 235.637777 
L 391.638737 235.637777 
L 391.638737 236.431426 
L 393.388347 236.431426 
L 393.388347 240.135122 
L 395.137956 240.135122 
L 395.137956 240.399671 
L 396.887566 240.399671 
L 396.887566 243.309718 
L 398.637176 243.309718 
L 398.637176 244.367917 
L 400.386785 244.367917 
L 400.386785 244.103367 
L 402.136395 244.103367 
L 402.136395 245.161566 
L 405.635614 245.161566 
L 405.635614 246.484315 
L 414.383663 246.484315 
L 414.383663 246.484315 
" clip-path="url(#p3f7aec8bc5)" style="fill: none; stroke: #1f77b4; stroke-width: 1.5; stroke-linecap: square"/>
   </g>
   <g id="line2d_19">
    <path d="M 64.461722 246.484315 
L 73.209771 246.484315 
L 73.209771 242.516069 
L 74.95938 242.516069 
L 74.95938 238.547824 
L 76.70899 238.547824 
L 76.70899 227.965835 
L 78.4586 227.965835 
L 78.4586 223.99759 
L 80.208209 223.99759 
L 80.208209 212.886502 
L 81.957819 212.886502 
L 81.957819 196.484421 
L 83.707429 196.484421 
L 83.707429 197.01352 
L 85.457039 197.01352 
L 85.457039 187.489731 
L 87.206648 187.489731 
L 87.206648 179.55324 
L 88.956258 179.55324 
L 88.956258 166.854854 
L 90.705868 166.854854 
L 90.705868 166.061205 
L 92.455477 166.061205 
L 92.455477 160.770211 
L 94.205087 160.770211 
L 94.205087 150.981872 
L 95.954697 150.981872 
L 95.954697 143.574481 
L 97.704306 143.574481 
L 97.704306 122.410505 
L 99.453916 122.410505 
L 99.453916 125.849651 
L 101.203526 125.849651 
L 101.203526 104.421125 
L 102.953136 104.421125 
L 102.953136 101.775628 
L 104.702745 101.775628 
L 104.702745 101.511078 
L 106.452355 101.511078 
L 106.452355 107.595721 
L 108.201965 107.595721 
L 108.201965 99.92378 
L 109.951574 99.92378 
L 109.951574 86.960845 
L 111.701184 86.960845 
L 111.701184 71.352412 
L 113.450794 71.352412 
L 113.450794 76.907956 
L 115.200403 76.907956 
L 115.200403 65.796868 
L 116.950013 65.796868 
L 116.950013 76.378856 
L 118.699623 76.378856 
L 118.699623 54.421231 
L 120.449233 54.421231 
L 120.449233 57.860377 
L 122.198842 57.860377 
L 122.198842 45.426541 
L 123.948452 45.426541 
L 123.948452 42.781044 
L 125.698062 42.781044 
L 125.698062 32.992705 
L 127.447671 32.992705 
L 127.447671 55.21488 
L 129.197281 55.21488 
L 129.197281 38.548249 
L 130.946891 38.548249 
L 130.946891 42.781044 
L 132.696501 42.781044 
L 132.696501 44.103793 
L 134.44611 44.103793 
L 134.44611 48.336588 
L 136.19572 48.336588 
L 136.19572 60.241325 
L 137.94533 60.241325 
L 137.94533 54.950331 
L 139.694939 54.950331 
L 139.694939 53.098483 
L 141.444549 53.098483 
L 141.444549 56.802179 
L 143.194159 56.802179 
L 143.194159 59.976775 
L 144.943768 59.976775 
L 144.943768 71.087862 
L 146.693378 71.087862 
L 146.693378 70.294213 
L 148.442988 70.294213 
L 148.442988 58.389477 
L 150.192598 58.389477 
L 150.192598 81.405301 
L 151.942207 81.405301 
L 151.942207 78.230704 
L 153.691817 78.230704 
L 153.691817 73.997909 
L 155.441427 73.997909 
L 155.441427 75.849757 
L 157.191036 75.849757 
L 157.191036 79.818003 
L 158.940646 79.818003 
L 158.940646 75.585207 
L 160.690256 75.585207 
L 160.690256 81.669851 
L 162.439866 81.669851 
L 162.439866 82.4635 
L 164.189475 82.4635 
L 164.189475 86.167195 
L 165.939085 86.167195 
L 165.939085 80.876201 
L 167.688695 80.876201 
L 167.688695 69.236015 
L 169.438304 69.236015 
L 169.438304 86.960845 
L 171.187914 86.960845 
L 171.187914 75.056108 
L 172.937524 75.056108 
L 172.937524 83.521698 
L 174.687133 83.521698 
L 174.687133 80.082552 
L 176.436743 80.082552 
L 176.436743 78.495254 
L 178.186353 78.495254 
L 178.186353 82.728049 
L 179.935963 82.728049 
L 179.935963 86.431745 
L 181.685572 86.431745 
L 181.685572 83.257149 
L 183.435182 83.257149 
L 183.435182 90.135441 
L 185.184792 90.135441 
L 185.184792 87.225394 
L 186.934401 87.225394 
L 186.934401 83.521698 
L 188.684011 83.521698 
L 188.684011 94.368236 
L 190.433621 94.368236 
L 190.433621 100.981979 
L 192.18323 100.981979 
L 192.18323 97.013733 
L 193.93284 97.013733 
L 193.93284 97.807382 
L 195.68245 97.807382 
L 195.68245 110.770318 
L 197.43206 110.770318 
L 197.43206 110.241218 
L 199.181669 110.241218 
L 199.181669 105.743873 
L 200.931279 105.743873 
L 200.931279 111.563967 
L 202.680889 111.563967 
L 202.680889 129.553346 
L 204.430498 129.553346 
L 204.430498 129.288797 
L 206.180108 129.288797 
L 206.180108 132.198844 
L 207.929718 132.198844 
L 207.929718 139.606235 
L 209.679328 139.606235 
L 209.679328 152.304621 
L 211.428937 152.304621 
L 211.428937 156.008317 
L 213.178547 156.008317 
L 213.178547 175.584995 
L 214.928157 175.584995 
L 214.928157 177.965942 
L 216.677766 177.965942 
L 216.677766 187.754281 
L 218.427376 187.754281 
L 218.427376 185.637883 
L 220.176986 185.637883 
L 220.176986 189.341579 
L 221.926595 189.341579 
L 221.926595 206.00821 
L 223.676205 206.00821 
L 223.676205 214.473801 
L 225.425815 214.473801 
L 225.425815 220.822994 
L 227.175425 220.822994 
L 227.175425 222.939391 
L 228.925034 222.939391 
L 228.925034 228.494935 
L 230.674644 228.494935 
L 230.674644 235.902326 
L 232.424254 235.902326 
L 232.424254 237.754174 
L 234.173863 237.754174 
L 234.173863 244.367917 
L 235.923473 244.367917 
L 235.923473 241.72242 
L 237.673083 241.72242 
L 237.673083 240.399671 
L 239.422693 240.399671 
L 239.422693 231.934081 
L 241.172302 231.934081 
L 241.172302 223.468491 
L 242.921912 223.468491 
L 242.921912 222.410292 
L 244.671522 222.410292 
L 244.671522 217.119298 
L 246.421131 217.119298 
L 246.421131 205.214561 
L 248.170741 205.214561 
L 248.170741 207.330959 
L 249.920351 207.330959 
L 249.920351 197.27807 
L 251.66996 197.27807 
L 251.66996 190.928877 
L 253.41957 190.928877 
L 253.41957 191.987076 
L 255.16918 191.987076 
L 255.16918 175.055895 
L 256.91879 175.055895 
L 256.91879 183.786035 
L 258.668399 183.786035 
L 258.668399 167.913053 
L 260.418009 167.913053 
L 260.418009 175.320445 
L 262.167619 175.320445 
L 262.167619 158.124714 
L 263.917228 158.124714 
L 263.917228 151.775521 
L 265.666838 151.775521 
L 265.666838 153.891919 
L 267.416448 153.891919 
L 267.416448 157.331065 
L 269.166057 157.331065 
L 269.166057 138.812586 
L 270.915667 138.812586 
L 270.915667 138.548036 
L 274.414887 138.548036 
L 274.414887 139.077136 
L 276.164496 139.077136 
L 276.164496 135.902539 
L 277.914106 135.902539 
L 277.914106 122.410505 
L 279.663716 122.410505 
L 279.663716 124.526902 
L 281.413325 124.526902 
L 281.413325 123.733253 
L 283.162935 123.733253 
L 283.162935 116.061312 
L 284.912545 116.061312 
L 284.912545 112.357616 
L 286.662155 112.357616 
L 286.662155 111.563967 
L 288.411764 111.563967 
L 288.411764 117.64861 
L 290.161374 117.64861 
L 290.161374 108.65392 
L 291.910984 108.65392 
L 291.910984 106.537522 
L 293.660593 106.537522 
L 293.660593 104.950224 
L 295.410203 104.950224 
L 295.410203 109.447569 
L 297.159813 109.447569 
L 297.159813 116.061312 
L 298.909422 116.061312 
L 298.909422 107.860271 
L 300.659032 107.860271 
L 300.659032 112.622166 
L 302.408642 112.622166 
L 302.408642 123.997803 
L 304.158252 123.997803 
L 304.158252 121.352306 
L 305.907861 121.352306 
L 305.907861 121.881405 
L 307.657471 121.881405 
L 307.657471 122.939604 
L 309.407081 122.939604 
L 309.407081 120.823206 
L 311.15669 120.823206 
L 311.15669 125.056002 
L 312.9063 125.056002 
L 312.9063 129.288797 
L 314.65591 129.288797 
L 314.65591 129.553346 
L 316.405519 129.553346 
L 316.405519 139.870785 
L 318.155129 139.870785 
L 318.155129 137.489838 
L 319.904739 137.489838 
L 319.904739 136.960738 
L 321.654349 136.960738 
L 321.654349 134.050691 
L 323.403958 134.050691 
L 323.403958 140.664434 
L 325.153568 140.664434 
L 325.153568 144.10358 
L 326.903178 144.10358 
L 326.903178 141.193533 
L 328.652787 141.193533 
L 328.652787 143.83903 
L 330.402397 143.83903 
L 330.402397 142.780832 
L 332.152007 142.780832 
L 332.152007 153.891919 
L 333.901617 153.891919 
L 333.901617 158.124714 
L 335.651226 158.124714 
L 335.651226 154.950118 
L 337.400836 154.950118 
L 337.400836 158.389264 
L 339.150446 158.389264 
L 339.150446 161.034761 
L 340.900055 161.034761 
L 340.900055 163.151159 
L 342.649665 163.151159 
L 342.649665 157.066515 
L 344.399275 157.066515 
L 344.399275 162.09296 
L 346.148884 162.09296 
L 346.148884 158.124714 
L 347.898494 158.124714 
L 347.898494 168.177603 
L 349.648104 168.177603 
L 349.648104 165.003006 
L 351.397714 165.003006 
L 351.397714 166.854854 
L 353.147323 166.854854 
L 353.147323 175.320445 
L 354.896933 175.320445 
L 354.896933 185.108784 
L 356.646543 185.108784 
L 356.646543 179.28869 
L 358.396152 179.28869 
L 358.396152 177.965942 
L 360.145762 177.965942 
L 360.145762 183.256936 
L 361.895372 183.256936 
L 361.895372 188.81248 
L 363.644982 188.81248 
L 363.644982 192.251626 
L 365.394591 192.251626 
L 365.394591 187.489731 
L 367.144201 187.489731 
L 367.144201 195.161672 
L 368.893811 195.161672 
L 368.893811 200.717216 
L 370.64342 200.717216 
L 370.64342 199.923567 
L 372.39303 199.923567 
L 372.39303 207.595508 
L 374.14264 207.595508 
L 374.14264 210.241005 
L 375.892249 210.241005 
L 375.892249 213.415602 
L 377.641859 213.415602 
L 377.641859 217.912947 
L 379.391469 217.912947 
L 379.391469 221.616643 
L 381.141079 221.616643 
L 381.141079 223.468491 
L 382.890688 223.468491 
L 382.890688 225.849438 
L 384.640298 225.849438 
L 384.640298 225.584888 
L 386.389908 225.584888 
L 386.389908 231.404982 
L 388.139517 231.404982 
L 388.139517 232.99228 
L 389.889127 232.99228 
L 389.889127 235.902326 
L 391.638737 235.902326 
L 391.638737 236.431426 
L 393.388347 236.431426 
L 393.388347 239.076923 
L 395.137956 239.076923 
L 395.137956 241.193321 
L 396.887566 241.193321 
L 396.887566 243.309718 
L 398.637176 243.309718 
L 398.637176 243.574268 
L 400.386785 243.574268 
L 400.386785 244.897016 
L 403.886005 244.897016 
L 403.886005 245.426116 
L 407.385224 245.426116 
L 407.385224 246.484315 
L 414.383663 246.484315 
L 414.383663 246.484315 
" clip-path="url(#p3f7aec8bc5)" style="fill: none; stroke: #ff7f0e; stroke-width: 1.5; stroke-linecap: square"/>
   </g>
   <g id="patch_3">
    <path d="M 46.965625 257.158895 
L 46.965625 22.318125 
" style="fill: none; stroke: #000000; stroke-width: 0.8; stroke-linejoin: miter; stroke-linecap: square"/>
   </g>
   <g id="patch_4">
    <path d="M 431.87976 257.158895 
L 431.87976 22.318125 
" style="fill: none; stroke: #000000; stroke-width: 0.8; stroke-linejoin: miter; stroke-linecap: square"/>
   </g>
   <g id="patch_5">
    <path d="M 46.965625 257.158895 
L 431.87976 257.158895 
" style="fill: none; stroke: #000000; stroke-width: 0.8; stroke-linejoin: miter; stroke-linecap: square"/>
   </g>
   <g id="patch_6">
    <path d="M 46.965625 22.318125 
L 431.87976 22.318125 
" style="fill: none; stroke: #000000; stroke-width: 0.8; stroke-linejoin: miter; stroke-linecap: square"/>
   </g>
   <g id="text_20">
    <!-- Pixel 1 -->
    <g transform="translate(219.82613 16.318125) scale(0.12 -0.12)">
     <defs>
      <path id="DejaVuSans-50" d="M 1259 4147 
L 1259 2394 
L 2053 2394 
Q 2494 2394 2734 2622 
Q 2975 2850 2975 3272 
Q 2975 3691 2734 3919 
Q 2494 4147 2053 4147 
L 1259 4147 
z
M 628 4666 
L 2053 4666 
Q 2838 4666 3239 4311 
Q 3641 3956 3641 3272 
Q 3641 2581 3239 2228 
Q 2838 1875 2053 1875 
L 1259 1875 
L 1259 0 
L 628 0 
L 628 4666 
z
" transform="scale(0.015625)"/>
      <path id="DejaVuSans-69" d="M 603 3500 
L 1178 3500 
L 1178 0 
L 603 0 
L 603 3500 
z
M 603 4863 
L 1178 4863 
L 1178 4134 
L 603 4134 
L 603 4863 
z
" transform="scale(0.015625)"/>
      <path id="DejaVuSans-78" d="M 3513 3500 
L 2247 1797 
L 3578 0 
L 2900 0 
L 1881 1375 
L 863 0 
L 184 0 
L 1544 1831 
L 300 3500 
L 978 3500 
L 1906 2253 
L 2834 3500 
L 3513 3500 
z
" transform="scale(0.015625)"/>
     </defs>
     <use xlink:href="#DejaVuSans-50"/>
     <use xlink:href="#DejaVuSans-69" transform="translate(58.052734 0)"/>
     <use xlink:href="#DejaVuSans-78" transform="translate(85.835938 0)"/>
     <use xlink:href="#DejaVuSans-65" transform="translate(141.890625 0)"/>
     <use xlink:href="#DejaVuSans-6c" transform="translate(203.414062 0)"/>
     <use xlink:href="#DejaVuSans-20" transform="translate(231.197266 0)"/>
     <use xlink:href="#DejaVuSans-31" transform="translate(262.984375 0)"/>
    </g>
   </g>
   <g id="legend_1">
    <g id="patch_7">
     <path d="M 327.876635 59.9525 
L 424.87976 59.9525 
Q 426.87976 59.9525 426.87976 57.9525 
L 426.87976 29.318125 
Q 426.87976 27.318125 424.87976 27.318125 
L 327.876635 27.318125 
Q 325.876635 27.318125 325.876635 29.318125 
L 325.876635 57.9525 
Q 325.876635 59.9525 327.876635 59.9525 
z
" style="fill: #ffffff; opacity: 0.8; stroke: #cccccc; stroke-linejoin: miter"/>
    </g>
    <g id="line2d_20">
     <path d="M 329.876635 35.416562 
L 329.876635 35.416562 
L 339.876635 35.416562 
L 339.876635 35.416562 
L 349.876635 35.416562 
" style="fill: none; stroke: #1f77b4; stroke-width: 1.5; stroke-linecap: square"/>
    </g>
    <g id="text_21">
     <!-- wfm -->
     <g transform="translate(357.876635 38.916562) scale(0.1 -0.1)">
      <defs>
       <path id="DejaVuSans-66" d="M 2375 4863 
L 2375 4384 
L 1825 4384 
Q 1516 4384 1395 4259 
Q 1275 4134 1275 3809 
L 1275 3500 
L 2222 3500 
L 2222 3053 
L 1275 3053 
L 1275 0 
L 697 0 
L 697 3053 
L 147 3053 
L 147 3500 
L 697 3500 
L 697 3744 
Q 697 4328 969 4595 
Q 1241 4863 1831 4863 
L 2375 4863 
z
" transform="scale(0.015625)"/>
       <path id="DejaVuSans-6d" d="M 3328 2828 
Q 3544 3216 3844 3400 
Q 4144 3584 4550 3584 
Q 5097 3584 5394 3201 
Q 5691 2819 5691 2113 
L 5691 0 
L 5113 0 
L 5113 2094 
Q 5113 2597 4934 2840 
Q 4756 3084 4391 3084 
Q 3944 3084 3684 2787 
Q 3425 2491 3425 1978 
L 3425 0 
L 2847 0 
L 2847 2094 
Q 2847 2600 2669 2842 
Q 2491 3084 2119 3084 
Q 1678 3084 1418 2786 
Q 1159 2488 1159 1978 
L 1159 0 
L 581 0 
L 581 3500 
L 1159 3500 
L 1159 2956 
Q 1356 3278 1631 3431 
Q 1906 3584 2284 3584 
Q 2666 3584 2933 3390 
Q 3200 3197 3328 2828 
z
" transform="scale(0.015625)"/>
      </defs>
      <use xlink:href="#DejaVuSans-77"/>
      <use xlink:href="#DejaVuSans-66" transform="translate(81.787109 0)"/>
      <use xlink:href="#DejaVuSans-6d" transform="translate(116.992188 0)"/>
     </g>
    </g>
    <g id="line2d_21">
     <path d="M 329.876635 50.094687 
L 329.876635 50.094687 
L 339.876635 50.094687 
L 339.876635 50.094687 
L 349.876635 50.094687 
" style="fill: none; stroke: #ff7f0e; stroke-width: 1.5; stroke-linecap: square"/>
    </g>
    <g id="text_22">
     <!-- ground_truth -->
     <g transform="translate(357.876635 53.594687) scale(0.1 -0.1)">
      <defs>
       <path id="DejaVuSans-72" d="M 2631 2963 
Q 2534 3019 2420 3045 
Q 2306 3072 2169 3072 
Q 1681 3072 1420 2755 
Q 1159 2438 1159 1844 
L 1159 0 
L 581 0 
L 581 3500 
L 1159 3500 
L 1159 2956 
Q 1341 3275 1631 3429 
Q 1922 3584 2338 3584 
Q 2397 3584 2469 3576 
Q 2541 3569 2628 3553 
L 2631 2963 
z
" transform="scale(0.015625)"/>
       <path id="DejaVuSans-64" d="M 2906 2969 
L 2906 4863 
L 3481 4863 
L 3481 0 
L 2906 0 
L 2906 525 
Q 2725 213 2448 61 
Q 2172 -91 1784 -91 
Q 1150 -91 751 415 
Q 353 922 353 1747 
Q 353 2572 751 3078 
Q 1150 3584 1784 3584 
Q 2172 3584 2448 3432 
Q 2725 3281 2906 2969 
z
M 947 1747 
Q 947 1113 1208 752 
Q 1469 391 1925 391 
Q 2381 391 2643 752 
Q 2906 1113 2906 1747 
Q 2906 2381 2643 2742 
Q 2381 3103 1925 3103 
Q 1469 3103 1208 2742 
Q 947 2381 947 1747 
z
" transform="scale(0.015625)"/>
       <path id="DejaVuSans-5f" d="M 3263 -1063 
L 3263 -1509 
L -63 -1509 
L -63 -1063 
L 3263 -1063 
z
" transform="scale(0.015625)"/>
      </defs>
      <use xlink:href="#DejaVuSans-67"/>
      <use xlink:href="#DejaVuSans-72" transform="translate(63.476562 0)"/>
      <use xlink:href="#DejaVuSans-6f" transform="translate(102.339844 0)"/>
      <use xlink:href="#DejaVuSans-75" transform="translate(163.521484 0)"/>
      <use xlink:href="#DejaVuSans-6e" transform="translate(226.900391 0)"/>
      <use xlink:href="#DejaVuSans-64" transform="translate(290.279297 0)"/>
      <use xlink:href="#DejaVuSans-5f" transform="translate(353.755859 0)"/>
      <use xlink:href="#DejaVuSans-74" transform="translate(403.755859 0)"/>
      <use xlink:href="#DejaVuSans-72" transform="translate(442.964844 0)"/>
      <use xlink:href="#DejaVuSans-75" transform="translate(484.078125 0)"/>
      <use xlink:href="#DejaVuSans-74" transform="translate(547.457031 0)"/>
      <use xlink:href="#DejaVuSans-68" transform="translate(586.666016 0)"/>
     </g>
    </g>
   </g>
  </g>
  <g id="axes_2">
   <g id="patch_8">
    <path d="M 480.285385 257.158895 
L 865.19952 257.158895 
L 865.19952 22.318125 
L 480.285385 22.318125 
z
" style="fill: #ffffff"/>
   </g>
   <g id="matplotlib.axis_3">
    <g id="xtick_9">
     <g id="line2d_22">
      <g>
       <use xlink:href="#m6b2880bd99" x="516.198426" y="257.158895" style="stroke: #000000; stroke-width: 0.8"/>
      </g>
     </g>
     <g id="text_23">
      <!-- 1.0 -->
      <g transform="translate(508.246864 271.757332) scale(0.1 -0.1)">
       <use xlink:href="#DejaVuSans-31"/>
       <use xlink:href="#DejaVuSans-2e" transform="translate(63.623047 0)"/>
       <use xlink:href="#DejaVuSans-30" transform="translate(95.410156 0)"/>
      </g>
     </g>
    </g>
    <g id="xtick_10">
     <g id="line2d_23">
      <g>
       <use xlink:href="#m6b2880bd99" x="562.240787" y="257.158895" style="stroke: #000000; stroke-width: 0.8"/>
      </g>
     </g>
     <g id="text_24">
      <!-- 1.5 -->
      <g transform="translate(554.289224 271.757332) scale(0.1 -0.1)">
       <use xlink:href="#DejaVuSans-31"/>
       <use xlink:href="#DejaVuSans-2e" transform="translate(63.623047 0)"/>
       <use xlink:href="#DejaVuSans-35" transform="translate(95.410156 0)"/>
      </g>
     </g>
    </g>
    <g id="xtick_11">
     <g id="line2d_24">
      <g>
       <use xlink:href="#m6b2880bd99" x="608.283148" y="257.158895" style="stroke: #000000; stroke-width: 0.8"/>
      </g>
     </g>
     <g id="text_25">
      <!-- 2.0 -->
      <g transform="translate(600.331585 271.757332) scale(0.1 -0.1)">
       <use xlink:href="#DejaVuSans-32"/>
       <use xlink:href="#DejaVuSans-2e" transform="translate(63.623047 0)"/>
       <use xlink:href="#DejaVuSans-30" transform="translate(95.410156 0)"/>
      </g>
     </g>
    </g>
    <g id="xtick_12">
     <g id="line2d_25">
      <g>
       <use xlink:href="#m6b2880bd99" x="654.325508" y="257.158895" style="stroke: #000000; stroke-width: 0.8"/>
      </g>
     </g>
     <g id="text_26">
      <!-- 2.5 -->
      <g transform="translate(646.373946 271.757332) scale(0.1 -0.1)">
       <use xlink:href="#DejaVuSans-32"/>
       <use xlink:href="#DejaVuSans-2e" transform="translate(63.623047 0)"/>
       <use xlink:href="#DejaVuSans-35" transform="translate(95.410156 0)"/>
      </g>
     </g>
    </g>
    <g id="xtick_13">
     <g id="line2d_26">
      <g>
       <use xlink:href="#m6b2880bd99" x="700.367869" y="257.158895" style="stroke: #000000; stroke-width: 0.8"/>
      </g>
     </g>
     <g id="text_27">
      <!-- 3.0 -->
      <g transform="translate(692.416306 271.757332) scale(0.1 -0.1)">
       <use xlink:href="#DejaVuSans-33"/>
       <use xlink:href="#DejaVuSans-2e" transform="translate(63.623047 0)"/>
       <use xlink:href="#DejaVuSans-30" transform="translate(95.410156 0)"/>
      </g>
     </g>
    </g>
    <g id="xtick_14">
     <g id="line2d_27">
      <g>
       <use xlink:href="#m6b2880bd99" x="746.41023" y="257.158895" style="stroke: #000000; stroke-width: 0.8"/>
      </g>
     </g>
     <g id="text_28">
      <!-- 3.5 -->
      <g transform="translate(738.458667 271.757332) scale(0.1 -0.1)">
       <use xlink:href="#DejaVuSans-33"/>
       <use xlink:href="#DejaVuSans-2e" transform="translate(63.623047 0)"/>
       <use xlink:href="#DejaVuSans-35" transform="translate(95.410156 0)"/>
      </g>
     </g>
    </g>
    <g id="xtick_15">
     <g id="line2d_28">
      <g>
       <use xlink:href="#m6b2880bd99" x="792.45259" y="257.158895" style="stroke: #000000; stroke-width: 0.8"/>
      </g>
     </g>
     <g id="text_29">
      <!-- 4.0 -->
      <g transform="translate(784.501028 271.757332) scale(0.1 -0.1)">
       <use xlink:href="#DejaVuSans-34"/>
       <use xlink:href="#DejaVuSans-2e" transform="translate(63.623047 0)"/>
       <use xlink:href="#DejaVuSans-30" transform="translate(95.410156 0)"/>
      </g>
     </g>
    </g>
    <g id="xtick_16">
     <g id="line2d_29">
      <g>
       <use xlink:href="#m6b2880bd99" x="838.494951" y="257.158895" style="stroke: #000000; stroke-width: 0.8"/>
      </g>
     </g>
     <g id="text_30">
      <!-- 4.5 -->
      <g transform="translate(830.543388 271.757332) scale(0.1 -0.1)">
       <use xlink:href="#DejaVuSans-34"/>
       <use xlink:href="#DejaVuSans-2e" transform="translate(63.623047 0)"/>
       <use xlink:href="#DejaVuSans-35" transform="translate(95.410156 0)"/>
      </g>
     </g>
    </g>
    <g id="text_31">
     <!-- wavelength [Å] -->
     <g transform="translate(634.704952 287.119832) scale(0.1 -0.1)">
      <use xlink:href="#DejaVuSans-77"/>
      <use xlink:href="#DejaVuSans-61" transform="translate(81.787109 0)"/>
      <use xlink:href="#DejaVuSans-76" transform="translate(143.066406 0)"/>
      <use xlink:href="#DejaVuSans-65" transform="translate(202.246094 0)"/>
      <use xlink:href="#DejaVuSans-6c" transform="translate(263.769531 0)"/>
      <use xlink:href="#DejaVuSans-65" transform="translate(291.552734 0)"/>
      <use xlink:href="#DejaVuSans-6e" transform="translate(353.076172 0)"/>
      <use xlink:href="#DejaVuSans-67" transform="translate(416.455078 0)"/>
      <use xlink:href="#DejaVuSans-74" transform="translate(479.931641 0)"/>
      <use xlink:href="#DejaVuSans-68" transform="translate(519.140625 0)"/>
      <use xlink:href="#DejaVuSans-20" transform="translate(582.519531 0)"/>
      <use xlink:href="#DejaVuSans-5b" transform="translate(614.306641 0)"/>
      <use xlink:href="#DejaVuSans-c5" transform="translate(653.320312 0)"/>
      <use xlink:href="#DejaVuSans-5d" transform="translate(721.728516 0)"/>
     </g>
    </g>
   </g>
   <g id="matplotlib.axis_4">
    <g id="ytick_10">
     <g id="line2d_30">
      <g>
       <use xlink:href="#mcda8f54e9b" x="480.285385" y="246.484315" style="stroke: #000000; stroke-width: 0.8"/>
      </g>
     </g>
     <g id="text_32">
      <!-- 0 -->
      <g transform="translate(466.922885 250.283533) scale(0.1 -0.1)">
       <use xlink:href="#DejaVuSans-30"/>
      </g>
     </g>
    </g>
    <g id="ytick_11">
     <g id="line2d_31">
      <g>
       <use xlink:href="#mcda8f54e9b" x="480.285385" y="194.603" style="stroke: #000000; stroke-width: 0.8"/>
      </g>
     </g>
     <g id="text_33">
      <!-- 200 -->
      <g transform="translate(454.197885 198.402219) scale(0.1 -0.1)">
       <use xlink:href="#DejaVuSans-32"/>
       <use xlink:href="#DejaVuSans-30" transform="translate(63.623047 0)"/>
       <use xlink:href="#DejaVuSans-30" transform="translate(127.246094 0)"/>
      </g>
     </g>
    </g>
    <g id="ytick_12">
     <g id="line2d_32">
      <g>
       <use xlink:href="#mcda8f54e9b" x="480.285385" y="142.721686" style="stroke: #000000; stroke-width: 0.8"/>
      </g>
     </g>
     <g id="text_34">
      <!-- 400 -->
      <g transform="translate(454.197885 146.520904) scale(0.1 -0.1)">
       <use xlink:href="#DejaVuSans-34"/>
       <use xlink:href="#DejaVuSans-30" transform="translate(63.623047 0)"/>
       <use xlink:href="#DejaVuSans-30" transform="translate(127.246094 0)"/>
      </g>
     </g>
    </g>
    <g id="ytick_13">
     <g id="line2d_33">
      <g>
       <use xlink:href="#mcda8f54e9b" x="480.285385" y="90.840371" style="stroke: #000000; stroke-width: 0.8"/>
      </g>
     </g>
     <g id="text_35">
      <!-- 600 -->
      <g transform="translate(454.197885 94.63959) scale(0.1 -0.1)">
       <use xlink:href="#DejaVuSans-36"/>
       <use xlink:href="#DejaVuSans-30" transform="translate(63.623047 0)"/>
       <use xlink:href="#DejaVuSans-30" transform="translate(127.246094 0)"/>
      </g>
     </g>
    </g>
    <g id="ytick_14">
     <g id="line2d_34">
      <g>
       <use xlink:href="#mcda8f54e9b" x="480.285385" y="38.959057" style="stroke: #000000; stroke-width: 0.8"/>
      </g>
     </g>
     <g id="text_36">
      <!-- 800 -->
      <g transform="translate(454.197885 42.758275) scale(0.1 -0.1)">
       <use xlink:href="#DejaVuSans-38"/>
       <use xlink:href="#DejaVuSans-30" transform="translate(63.623047 0)"/>
       <use xlink:href="#DejaVuSans-30" transform="translate(127.246094 0)"/>
      </g>
     </g>
    </g>
    <g id="text_37">
     <!-- [counts] -->
     <g transform="translate(448.118198 160.35101) rotate(-90) scale(0.1 -0.1)">
      <use xlink:href="#DejaVuSans-5b"/>
      <use xlink:href="#DejaVuSans-63" transform="translate(39.013672 0)"/>
      <use xlink:href="#DejaVuSans-6f" transform="translate(93.994141 0)"/>
      <use xlink:href="#DejaVuSans-75" transform="translate(155.175781 0)"/>
      <use xlink:href="#DejaVuSans-6e" transform="translate(218.554688 0)"/>
      <use xlink:href="#DejaVuSans-74" transform="translate(281.933594 0)"/>
      <use xlink:href="#DejaVuSans-73" transform="translate(321.142578 0)"/>
      <use xlink:href="#DejaVuSans-5d" transform="translate(373.242188 0)"/>
     </g>
    </g>
   </g>
   <g id="line2d_35">
    <path d="M 497.781482 246.484315 
L 506.529531 246.484315 
L 506.529531 245.187282 
L 508.27914 245.187282 
L 508.27914 238.442711 
L 510.02875 238.442711 
L 510.02875 228.585261 
L 511.77836 228.585261 
L 511.77836 224.694162 
L 513.527969 224.694162 
L 513.527969 214.3179 
L 515.277579 214.3179 
L 515.277579 195.640626 
L 517.027189 195.640626 
L 517.027189 199.531725 
L 518.776799 199.531725 
L 518.776799 189.674275 
L 520.526408 189.674275 
L 520.526408 178.779199 
L 522.276018 178.779199 
L 522.276018 171.775222 
L 524.025628 171.775222 
L 524.025628 162.695992 
L 525.775237 162.695992 
L 525.775237 165.290057 
L 527.524847 165.290057 
L 527.524847 151.541509 
L 529.274457 151.541509 
L 529.274457 145.834564 
L 531.024066 145.834564 
L 531.024066 123.785006 
L 532.773676 123.785006 
L 532.773676 125.860258 
L 534.523286 125.860258 
L 534.523286 107.961205 
L 536.272896 107.961205 
L 536.272896 111.33349 
L 538.022505 111.33349 
L 538.022505 101.476041 
L 539.772115 101.476041 
L 539.772115 108.220611 
L 541.521725 108.220611 
L 541.521725 105.885952 
L 543.271334 105.885952 
L 543.271334 89.024525 
L 545.020944 89.024525 
L 545.020944 79.945295 
L 546.770554 79.945295 
L 546.770554 79.685888 
L 548.520163 79.685888 
L 548.520163 63.862088 
L 550.269773 63.862088 
L 550.269773 85.133427 
L 552.019383 85.133427 
L 552.019383 50.113539 
L 553.768993 50.113539 
L 553.768993 58.673956 
L 555.518602 58.673956 
L 555.518602 57.117517 
L 557.268212 57.117517 
L 557.268212 42.071935 
L 559.017822 42.071935 
L 559.017822 44.666001 
L 560.767431 44.666001 
L 560.767431 52.448198 
L 562.517041 52.448198 
L 562.517041 32.992705 
L 564.266651 32.992705 
L 564.266651 59.711582 
L 566.016261 59.711582 
L 566.016261 43.887781 
L 567.76587 43.887781 
L 567.76587 53.485825 
L 569.51548 53.485825 
L 569.51548 65.418527 
L 571.26509 65.418527 
L 571.26509 67.753186 
L 573.014699 67.753186 
L 573.014699 53.485825 
L 574.764309 53.485825 
L 574.764309 50.632352 
L 576.513919 50.632352 
L 576.513919 62.565055 
L 578.263528 62.565055 
L 578.263528 80.982921 
L 580.013138 80.982921 
L 580.013138 64.121494 
L 581.762748 64.121494 
L 581.762748 71.125472 
L 583.512358 71.125472 
L 583.512358 84.87402 
L 585.261967 84.87402 
L 585.261967 80.204702 
L 587.011577 80.204702 
L 587.011577 76.57301 
L 588.761187 76.57301 
L 588.761187 81.501734 
L 590.510796 81.501734 
L 590.510796 84.355207 
L 592.260406 84.355207 
L 592.260406 88.505712 
L 594.010016 88.505712 
L 594.010016 77.870042 
L 595.759626 77.870042 
L 595.759626 79.685888 
L 597.509235 79.685888 
L 597.509235 83.317581 
L 599.258845 83.317581 
L 599.258845 80.464108 
L 601.008455 80.464108 
L 601.008455 88.246305 
L 602.758064 88.246305 
L 602.758064 91.359184 
L 604.507674 91.359184 
L 604.507674 63.602681 
L 606.257284 63.602681 
L 606.257284 87.727492 
L 608.006893 87.727492 
L 608.006893 85.133427 
L 609.756503 85.133427 
L 609.756503 87.468086 
L 611.506113 87.468086 
L 611.506113 86.949273 
L 613.255723 86.949273 
L 613.255723 86.171053 
L 615.005332 86.171053 
L 615.005332 84.87402 
L 616.754942 84.87402 
L 616.754942 90.580965 
L 618.504552 90.580965 
L 618.504552 83.058174 
L 620.254161 83.058174 
L 620.254161 100.697821 
L 622.003771 100.697821 
L 622.003771 96.547316 
L 623.753381 96.547316 
L 623.753381 100.957227 
L 627.2526 100.957227 
L 627.2526 103.03248 
L 629.00221 103.03248 
L 629.00221 102.513667 
L 630.75182 102.513667 
L 630.75182 116.781028 
L 632.501429 116.781028 
L 632.501429 113.927556 
L 634.251039 113.927556 
L 634.251039 118.856281 
L 636.000649 118.856281 
L 636.000649 124.563226 
L 637.750258 124.563226 
L 637.750258 135.977115 
L 639.499868 135.977115 
L 639.499868 127.416698 
L 641.249478 127.416698 
L 641.249478 146.612784 
L 642.999088 146.612784 
L 642.999088 153.616762 
L 644.748697 153.616762 
L 644.748697 157.248454 
L 646.498307 157.248454 
L 646.498307 173.331661 
L 648.247917 173.331661 
L 648.247917 183.448517 
L 649.997526 183.448517 
L 649.997526 188.377242 
L 651.747136 188.377242 
L 651.747136 188.117836 
L 653.496746 188.117836 
L 653.496746 193.565374 
L 655.246355 193.565374 
L 655.246355 203.68223 
L 656.995965 203.68223 
L 656.995965 212.76146 
L 658.745575 212.76146 
L 658.745575 222.100097 
L 660.495185 222.100097 
L 660.495185 224.694162 
L 662.244794 224.694162 
L 662.244794 228.066448 
L 663.994404 228.066448 
L 663.994404 236.886271 
L 665.744014 236.886271 
L 665.744014 237.664491 
L 667.493623 237.664491 
L 667.493623 244.149655 
L 670.992843 244.149655 
L 670.992843 239.99915 
L 672.742453 239.99915 
L 672.742453 231.957546 
L 674.492062 231.957546 
L 674.492062 223.137723 
L 676.241672 223.137723 
L 676.241672 223.656536 
L 677.991282 223.656536 
L 677.991282 217.171372 
L 679.740891 217.171372 
L 679.740891 205.23867 
L 681.490501 205.23867 
L 681.490501 209.389175 
L 683.240111 209.389175 
L 683.240111 198.494099 
L 684.98972 198.494099 
L 684.98972 192.008934 
L 688.48894 192.008934 
L 688.48894 178.519793 
L 690.23855 178.519793 
L 690.23855 185.004957 
L 691.988159 185.004957 
L 691.988159 168.402936 
L 693.737769 168.402936 
L 693.737769 175.147507 
L 695.487379 175.147507 
L 695.487379 160.361333 
L 697.236988 160.361333 
L 697.236988 154.913794 
L 698.986598 154.913794 
L 698.986598 154.135575 
L 700.736208 154.135575 
L 700.736208 158.026673 
L 702.485817 158.026673 
L 702.485817 143.759312 
L 704.235427 143.759312 
L 704.235427 141.165246 
L 705.985037 141.165246 
L 705.985037 141.943466 
L 707.734647 141.943466 
L 707.734647 145.315751 
L 709.484256 145.315751 
L 709.484256 131.04839 
L 711.233866 131.04839 
L 711.233866 128.194918 
L 712.983476 128.194918 
L 712.983476 127.157291 
L 714.733085 127.157291 
L 714.733085 123.266193 
L 716.482695 123.266193 
L 716.482695 123.006786 
L 718.232305 123.006786 
L 718.232305 107.701798 
L 719.981915 107.701798 
L 719.981915 114.705776 
L 721.731524 114.705776 
L 721.731524 131.04839 
L 723.481134 131.04839 
L 723.481134 102.773073 
L 725.230744 102.773073 
L 725.230744 106.923579 
L 726.980353 106.923579 
L 726.980353 108.739425 
L 728.729963 108.739425 
L 728.729963 111.33349 
L 730.479573 111.33349 
L 730.479573 111.852303 
L 732.229182 111.852303 
L 732.229182 114.186963 
L 733.978792 114.186963 
L 733.978792 118.856281 
L 735.728402 118.856281 
L 735.728402 127.676104 
L 737.478012 127.676104 
L 737.478012 124.303819 
L 739.227621 124.303819 
L 739.227621 121.709753 
L 740.977231 121.709753 
L 740.977231 125.082039 
L 742.726841 125.082039 
L 742.726841 128.194918 
L 744.47645 128.194918 
L 744.47645 124.044412 
L 746.22606 124.044412 
L 746.22606 135.198895 
L 747.97567 135.198895 
L 747.97567 137.014741 
L 749.725279 137.014741 
L 749.725279 129.751357 
L 751.474889 129.751357 
L 751.474889 142.981092 
L 753.224499 142.981092 
L 753.224499 142.202872 
L 754.974109 142.202872 
L 754.974109 141.165246 
L 756.723718 141.165246 
L 756.723718 132.864236 
L 758.473328 132.864236 
L 758.473328 147.909817 
L 760.222938 147.909817 
L 760.222938 142.202872 
L 761.972547 142.202872 
L 761.972547 142.721686 
L 763.722157 142.721686 
L 763.722157 151.282102 
L 765.471767 151.282102 
L 765.471767 156.210827 
L 767.221377 156.210827 
L 767.221377 152.319729 
L 768.970986 152.319729 
L 768.970986 160.620739 
L 770.720596 160.620739 
L 770.720596 158.545486 
L 772.470206 158.545486 
L 772.470206 159.583113 
L 774.219815 159.583113 
L 774.219815 166.58709 
L 775.969425 166.58709 
L 775.969425 161.398959 
L 777.719035 161.398959 
L 777.719035 163.733618 
L 779.468644 163.733618 
L 779.468644 157.50786 
L 781.218254 157.50786 
L 781.218254 168.921749 
L 784.717474 168.921749 
L 784.717474 170.997002 
L 786.467083 170.997002 
L 786.467083 177.482166 
L 788.216693 177.482166 
L 788.216693 187.599023 
L 789.966303 187.599023 
L 789.966303 174.369287 
L 791.715912 174.369287 
L 791.715912 183.189111 
L 793.465522 183.189111 
L 793.465522 183.967331 
L 795.215132 183.967331 
L 795.215132 188.117836 
L 796.964742 188.117836 
L 796.964742 192.268341 
L 798.714351 192.268341 
L 798.714351 192.527747 
L 800.463961 192.527747 
L 800.463961 196.159439 
L 802.213571 196.159439 
L 802.213571 202.385197 
L 803.96318 202.385197 
L 803.96318 199.272318 
L 805.71279 199.272318 
L 805.71279 208.092142 
L 807.4624 208.092142 
L 807.4624 209.389175 
L 809.212009 209.389175 
L 809.212009 213.020867 
L 810.961619 213.020867 
L 810.961619 221.321877 
L 814.460839 221.321877 
L 814.460839 224.694162 
L 816.210448 224.694162 
L 816.210448 225.731789 
L 817.960058 225.731789 
L 817.960058 227.028822 
L 819.709668 227.028822 
L 819.709668 231.179327 
L 821.459277 231.179327 
L 821.459277 232.995173 
L 823.208887 232.995173 
L 823.208887 236.108052 
L 824.958497 236.108052 
L 824.958497 236.626865 
L 826.708106 236.626865 
L 826.708106 240.258557 
L 828.457716 240.258557 
L 828.457716 240.517963 
L 830.207326 240.517963 
L 830.207326 243.371436 
L 831.956936 243.371436 
L 831.956936 243.890249 
L 833.706545 243.890249 
L 833.706545 244.668469 
L 835.456155 244.668469 
L 835.456155 244.927875 
L 838.955374 244.927875 
L 838.955374 246.484315 
L 847.703423 246.484315 
L 847.703423 246.484315 
" clip-path="url(#p10feb30d26)" style="fill: none; stroke: #1f77b4; stroke-width: 1.5; stroke-linecap: square"/>
   </g>
   <g id="line2d_36">
    <path d="M 497.781482 246.484315 
L 506.529531 246.484315 
L 506.529531 242.593216 
L 508.27914 242.593216 
L 508.27914 238.702117 
L 510.02875 238.702117 
L 510.02875 228.325854 
L 511.77836 228.325854 
L 511.77836 224.434756 
L 513.527969 224.434756 
L 513.527969 213.53968 
L 515.277579 213.53968 
L 515.277579 197.456472 
L 517.027189 197.456472 
L 517.027189 197.975286 
L 518.776799 197.975286 
L 518.776799 188.636649 
L 520.526408 188.636649 
L 520.526408 180.854452 
L 522.276018 180.854452 
L 522.276018 168.402936 
L 524.025628 168.402936 
L 524.025628 167.624717 
L 525.775237 167.624717 
L 525.775237 162.436585 
L 527.524847 162.436585 
L 527.524847 152.838542 
L 529.274457 152.838542 
L 529.274457 145.575158 
L 531.024066 145.575158 
L 531.024066 124.822632 
L 532.773676 124.822632 
L 532.773676 128.194918 
L 534.523286 128.194918 
L 534.523286 107.182985 
L 536.272896 107.182985 
L 536.272896 104.588919 
L 538.022505 104.588919 
L 538.022505 104.329513 
L 539.772115 104.329513 
L 539.772115 110.295864 
L 541.521725 110.295864 
L 541.521725 102.773073 
L 543.271334 102.773073 
L 543.271334 90.062151 
L 545.020944 90.062151 
L 545.020944 74.757164 
L 546.770554 74.757164 
L 546.770554 80.204702 
L 548.520163 80.204702 
L 548.520163 69.309626 
L 550.269773 69.309626 
L 550.269773 79.685888 
L 552.019383 79.685888 
L 552.019383 58.155143 
L 553.768993 58.155143 
L 553.768993 61.527428 
L 555.518602 61.527428 
L 555.518602 49.33532 
L 557.268212 49.33532 
L 557.268212 46.741254 
L 559.017822 46.741254 
L 559.017822 37.143211 
L 560.767431 37.143211 
L 560.767431 58.933363 
L 562.517041 58.933363 
L 562.517041 42.590749 
L 564.266651 42.590749 
L 564.266651 46.741254 
L 566.016261 46.741254 
L 566.016261 48.038287 
L 567.76587 48.038287 
L 567.76587 52.188792 
L 569.51548 52.188792 
L 569.51548 63.862088 
L 571.26509 63.862088 
L 571.26509 58.673956 
L 573.014699 58.673956 
L 573.014699 56.85811 
L 574.764309 56.85811 
L 574.764309 60.489802 
L 576.513919 60.489802 
L 576.513919 63.602681 
L 578.263528 63.602681 
L 578.263528 74.497757 
L 580.013138 74.497757 
L 580.013138 73.719537 
L 581.762748 73.719537 
L 581.762748 62.046242 
L 583.512358 62.046242 
L 583.512358 84.614613 
L 585.261967 84.614613 
L 585.261967 81.501734 
L 587.011577 81.501734 
L 587.011577 77.351229 
L 588.761187 77.351229 
L 588.761187 79.167075 
L 590.510796 79.167075 
L 590.510796 83.058174 
L 592.260406 83.058174 
L 592.260406 78.907669 
L 594.010016 78.907669 
L 594.010016 84.87402 
L 595.759626 84.87402 
L 595.759626 85.65224 
L 597.509235 85.65224 
L 597.509235 89.283932 
L 599.258845 89.283932 
L 599.258845 84.0958 
L 601.008455 84.0958 
L 601.008455 72.681911 
L 602.758064 72.681911 
L 602.758064 90.062151 
L 604.507674 90.062151 
L 604.507674 78.388856 
L 606.257284 78.388856 
L 606.257284 86.689866 
L 608.006893 86.689866 
L 608.006893 83.317581 
L 609.756503 83.317581 
L 609.756503 81.761141 
L 611.506113 81.761141 
L 611.506113 85.911646 
L 613.255723 85.911646 
L 613.255723 89.543338 
L 615.005332 89.543338 
L 615.005332 86.430459 
L 616.754942 86.430459 
L 616.754942 93.17503 
L 618.504552 93.17503 
L 618.504552 90.321558 
L 620.254161 90.321558 
L 620.254161 86.689866 
L 622.003771 86.689866 
L 622.003771 97.325535 
L 623.753381 97.325535 
L 623.753381 103.8107 
L 625.50299 103.8107 
L 625.50299 99.919601 
L 627.2526 99.919601 
L 627.2526 100.697821 
L 629.00221 100.697821 
L 629.00221 113.408743 
L 630.75182 113.408743 
L 630.75182 112.88993 
L 632.501429 112.88993 
L 632.501429 108.480018 
L 634.251039 108.480018 
L 634.251039 114.186963 
L 636.000649 114.186963 
L 636.000649 131.82661 
L 637.750258 131.82661 
L 637.750258 131.567203 
L 639.499868 131.567203 
L 639.499868 134.420675 
L 641.249478 134.420675 
L 641.249478 141.684059 
L 642.999088 141.684059 
L 642.999088 154.135575 
L 644.748697 154.135575 
L 644.748697 157.767267 
L 646.498307 157.767267 
L 646.498307 176.963353 
L 648.247917 176.963353 
L 648.247917 179.298012 
L 649.997526 179.298012 
L 649.997526 188.896055 
L 651.747136 188.896055 
L 651.747136 186.820803 
L 653.496746 186.820803 
L 653.496746 190.452495 
L 655.246355 190.452495 
L 655.246355 206.795109 
L 656.995965 206.795109 
L 656.995965 215.096119 
L 658.745575 215.096119 
L 658.745575 221.321877 
L 660.495185 221.321877 
L 660.495185 223.39713 
L 662.244794 223.39713 
L 662.244794 228.844668 
L 663.994404 228.844668 
L 663.994404 236.108052 
L 665.744014 236.108052 
L 665.744014 237.923898 
L 667.493623 237.923898 
L 667.493623 244.409062 
L 669.243233 244.409062 
L 669.243233 241.814996 
L 670.992843 241.814996 
L 670.992843 240.517963 
L 672.742453 240.517963 
L 672.742453 232.216953 
L 674.492062 232.216953 
L 674.492062 223.915943 
L 676.241672 223.915943 
L 676.241672 222.878316 
L 677.991282 222.878316 
L 677.991282 217.690185 
L 679.740891 217.690185 
L 679.740891 206.016889 
L 681.490501 206.016889 
L 681.490501 208.092142 
L 683.240111 208.092142 
L 683.240111 198.234692 
L 684.98972 198.234692 
L 684.98972 192.008934 
L 686.73933 192.008934 
L 686.73933 193.046561 
L 688.48894 193.046561 
L 688.48894 176.44454 
L 690.23855 176.44454 
L 690.23855 185.004957 
L 691.988159 185.004957 
L 691.988159 169.440563 
L 693.737769 169.440563 
L 693.737769 176.703947 
L 695.487379 176.703947 
L 695.487379 159.842519 
L 697.236988 159.842519 
L 697.236988 153.616762 
L 698.986598 153.616762 
L 698.986598 155.692014 
L 700.736208 155.692014 
L 700.736208 159.0643 
L 702.485817 159.0643 
L 702.485817 140.90584 
L 704.235427 140.90584 
L 704.235427 140.646433 
L 707.734647 140.646433 
L 707.734647 141.165246 
L 709.484256 141.165246 
L 709.484256 138.052367 
L 711.233866 138.052367 
L 711.233866 124.822632 
L 712.983476 124.822632 
L 712.983476 126.897885 
L 714.733085 126.897885 
L 714.733085 126.119665 
L 716.482695 126.119665 
L 716.482695 118.596874 
L 718.232305 118.596874 
L 718.232305 114.965182 
L 719.981915 114.965182 
L 719.981915 114.186963 
L 721.731524 114.186963 
L 721.731524 120.153314 
L 723.481134 120.153314 
L 723.481134 111.33349 
L 725.230744 111.33349 
L 725.230744 109.258238 
L 726.980353 109.258238 
L 726.980353 107.701798 
L 728.729963 107.701798 
L 728.729963 112.11171 
L 730.479573 112.11171 
L 730.479573 118.596874 
L 732.229182 118.596874 
L 732.229182 110.555271 
L 733.978792 110.555271 
L 733.978792 115.224589 
L 735.728402 115.224589 
L 735.728402 126.379072 
L 737.478012 126.379072 
L 737.478012 123.785006 
L 739.227621 123.785006 
L 739.227621 124.303819 
L 740.977231 124.303819 
L 740.977231 125.341445 
L 742.726841 125.341445 
L 742.726841 123.266193 
L 744.47645 123.266193 
L 744.47645 127.416698 
L 746.22606 127.416698 
L 746.22606 131.567203 
L 747.97567 131.567203 
L 747.97567 131.82661 
L 749.725279 131.82661 
L 749.725279 141.943466 
L 751.474889 141.943466 
L 751.474889 139.608807 
L 753.224499 139.608807 
L 753.224499 139.089994 
L 754.974109 139.089994 
L 754.974109 136.236521 
L 756.723718 136.236521 
L 756.723718 142.721686 
L 758.473328 142.721686 
L 758.473328 146.093971 
L 760.222938 146.093971 
L 760.222938 143.240499 
L 761.972547 143.240499 
L 761.972547 145.834564 
L 763.722157 145.834564 
L 763.722157 144.796938 
L 765.471767 144.796938 
L 765.471767 155.692014 
L 767.221377 155.692014 
L 767.221377 159.842519 
L 768.970986 159.842519 
L 768.970986 156.72964 
L 770.720596 156.72964 
L 770.720596 160.101926 
L 772.470206 160.101926 
L 772.470206 162.695992 
L 774.219815 162.695992 
L 774.219815 164.771244 
L 775.969425 164.771244 
L 775.969425 158.804893 
L 777.719035 158.804893 
L 777.719035 163.733618 
L 779.468644 163.733618 
L 779.468644 159.842519 
L 781.218254 159.842519 
L 781.218254 169.699969 
L 782.967864 169.699969 
L 782.967864 166.58709 
L 784.717474 166.58709 
L 784.717474 168.402936 
L 786.467083 168.402936 
L 786.467083 176.703947 
L 788.216693 176.703947 
L 788.216693 186.30199 
L 789.966303 186.30199 
L 789.966303 180.595045 
L 791.715912 180.595045 
L 791.715912 179.298012 
L 793.465522 179.298012 
L 793.465522 184.486144 
L 795.215132 184.486144 
L 795.215132 189.933682 
L 796.964742 189.933682 
L 796.964742 193.305967 
L 798.714351 193.305967 
L 798.714351 188.636649 
L 800.463961 188.636649 
L 800.463961 196.159439 
L 802.213571 196.159439 
L 802.213571 201.606978 
L 803.96318 201.606978 
L 803.96318 200.828758 
L 805.71279 200.828758 
L 805.71279 208.351548 
L 807.4624 208.351548 
L 807.4624 210.945614 
L 809.212009 210.945614 
L 809.212009 214.058493 
L 810.961619 214.058493 
L 810.961619 218.468405 
L 812.711229 218.468405 
L 812.711229 222.100097 
L 814.460839 222.100097 
L 814.460839 223.915943 
L 816.210448 223.915943 
L 816.210448 226.250602 
L 817.960058 226.250602 
L 817.960058 225.991195 
L 819.709668 225.991195 
L 819.709668 231.69814 
L 821.459277 231.69814 
L 821.459277 233.254579 
L 823.208887 233.254579 
L 823.208887 236.108052 
L 824.958497 236.108052 
L 824.958497 236.626865 
L 826.708106 236.626865 
L 826.708106 239.220931 
L 828.457716 239.220931 
L 828.457716 241.296183 
L 830.207326 241.296183 
L 830.207326 243.371436 
L 831.956936 243.371436 
L 831.956936 243.630842 
L 833.706545 243.630842 
L 833.706545 244.927875 
L 837.205765 244.927875 
L 837.205765 245.446688 
L 840.704984 245.446688 
L 840.704984 246.484315 
L 847.703423 246.484315 
L 847.703423 246.484315 
" clip-path="url(#p10feb30d26)" style="fill: none; stroke: #ff7f0e; stroke-width: 1.5; stroke-linecap: square"/>
   </g>
   <g id="patch_9">
    <path d="M 480.285385 257.158895 
L 480.285385 22.318125 
" style="fill: none; stroke: #000000; stroke-width: 0.8; stroke-linejoin: miter; stroke-linecap: square"/>
   </g>
   <g id="patch_10">
    <path d="M 865.19952 257.158895 
L 865.19952 22.318125 
" style="fill: none; stroke: #000000; stroke-width: 0.8; stroke-linejoin: miter; stroke-linecap: square"/>
   </g>
   <g id="patch_11">
    <path d="M 480.285385 257.158895 
L 865.19952 257.158895 
" style="fill: none; stroke: #000000; stroke-width: 0.8; stroke-linejoin: miter; stroke-linecap: square"/>
   </g>
   <g id="patch_12">
    <path d="M 480.285385 22.318125 
L 865.19952 22.318125 
" style="fill: none; stroke: #000000; stroke-width: 0.8; stroke-linejoin: miter; stroke-linecap: square"/>
   </g>
   <g id="text_38">
    <!-- Pixel 2 -->
    <g transform="translate(653.14589 16.318125) scale(0.12 -0.12)">
     <use xlink:href="#DejaVuSans-50"/>
     <use xlink:href="#DejaVuSans-69" transform="translate(58.052734 0)"/>
     <use xlink:href="#DejaVuSans-78" transform="translate(85.835938 0)"/>
     <use xlink:href="#DejaVuSans-65" transform="translate(141.890625 0)"/>
     <use xlink:href="#DejaVuSans-6c" transform="translate(203.414062 0)"/>
     <use xlink:href="#DejaVuSans-20" transform="translate(231.197266 0)"/>
     <use xlink:href="#DejaVuSans-32" transform="translate(262.984375 0)"/>
    </g>
   </g>
   <g id="legend_2">
    <g id="patch_13">
     <path d="M 761.196395 59.9525 
L 858.19952 59.9525 
Q 860.19952 59.9525 860.19952 57.9525 
L 860.19952 29.318125 
Q 860.19952 27.318125 858.19952 27.318125 
L 761.196395 27.318125 
Q 759.196395 27.318125 759.196395 29.318125 
L 759.196395 57.9525 
Q 759.196395 59.9525 761.196395 59.9525 
z
" style="fill: #ffffff; opacity: 0.8; stroke: #cccccc; stroke-linejoin: miter"/>
    </g>
    <g id="line2d_37">
     <path d="M 763.196395 35.416562 
L 763.196395 35.416562 
L 773.196395 35.416562 
L 773.196395 35.416562 
L 783.196395 35.416562 
" style="fill: none; stroke: #1f77b4; stroke-width: 1.5; stroke-linecap: square"/>
    </g>
    <g id="text_39">
     <!-- wfm -->
     <g transform="translate(791.196395 38.916562) scale(0.1 -0.1)">
      <use xlink:href="#DejaVuSans-77"/>
      <use xlink:href="#DejaVuSans-66" transform="translate(81.787109 0)"/>
      <use xlink:href="#DejaVuSans-6d" transform="translate(116.992188 0)"/>
     </g>
    </g>
    <g id="line2d_38">
     <path d="M 763.196395 50.094687 
L 763.196395 50.094687 
L 773.196395 50.094687 
L 773.196395 50.094687 
L 783.196395 50.094687 
" style="fill: none; stroke: #ff7f0e; stroke-width: 1.5; stroke-linecap: square"/>
    </g>
    <g id="text_40">
     <!-- ground_truth -->
     <g transform="translate(791.196395 53.594687) scale(0.1 -0.1)">
      <use xlink:href="#DejaVuSans-67"/>
      <use xlink:href="#DejaVuSans-72" transform="translate(63.476562 0)"/>
      <use xlink:href="#DejaVuSans-6f" transform="translate(102.339844 0)"/>
      <use xlink:href="#DejaVuSans-75" transform="translate(163.521484 0)"/>
      <use xlink:href="#DejaVuSans-6e" transform="translate(226.900391 0)"/>
      <use xlink:href="#DejaVuSans-64" transform="translate(290.279297 0)"/>
      <use xlink:href="#DejaVuSans-5f" transform="translate(353.755859 0)"/>
      <use xlink:href="#DejaVuSans-74" transform="translate(403.755859 0)"/>
      <use xlink:href="#DejaVuSans-72" transform="translate(442.964844 0)"/>
      <use xlink:href="#DejaVuSans-75" transform="translate(484.078125 0)"/>
      <use xlink:href="#DejaVuSans-74" transform="translate(547.457031 0)"/>
      <use xlink:href="#DejaVuSans-68" transform="translate(586.666016 0)"/>
     </g>
    </g>
   </g>
  </g>
 </g>
 <defs>
  <clipPath id="p3f7aec8bc5">
   <rect x="46.965625" y="22.318125" width="384.914135" height="234.84077"/>
  </clipPath>
  <clipPath id="p10feb30d26">
   <rect x="480.285385" y="22.318125" width="384.914135" height="234.84077"/>
  </clipPath>
 </defs>
</svg>
