<?xml version="1.0" encoding="utf-8" standalone="no"?>
<!DOCTYPE svg PUBLIC "-//W3C//DTD SVG 1.1//EN"
  "http://www.w3.org/Graphics/SVG/1.1/DTD/svg11.dtd">
<svg xmlns:xlink="http://www.w3.org/1999/xlink" width="401.690625pt" height="266.51625pt" viewBox="0 0 401.690625 266.51625" xmlns="http://www.w3.org/2000/svg" version="1.1">
 <metadata>
  <rdf:RDF xmlns:dc="http://purl.org/dc/elements/1.1/" xmlns:cc="http://creativecommons.org/ns#" xmlns:rdf="http://www.w3.org/1999/02/22-rdf-syntax-ns#">
   <cc:Work>
    <dc:type rdf:resource="http://purl.org/dc/dcmitype/StillImage"/>
    <dc:date>2025-11-07T09:33:15.740321</dc:date>
    <dc:format>image/svg+xml</dc:format>
    <dc:creator>
     <cc:Agent>
      <dc:title>Matplotlib v3.10.7, https://matplotlib.org/</dc:title>
     </cc:Agent>
    </dc:creator>
   </cc:Work>
  </rdf:RDF>
 </metadata>
 <defs>
  <style type="text/css">*{stroke-linejoin: round; stroke-linecap: butt}</style>
 </defs>
 <g id="figure_1">
  <g id="patch_1">
   <path d="M 0 266.51625 
L 401.690625 266.51625 
L 401.690625 0 
L 0 0 
z
" style="fill: #ffffff"/>
  </g>
  <g id="axes_1">
   <g id="patch_2">
    <path d="M 59.690625 228.96 
L 394.490625 228.96 
L 394.490625 7.2 
L 59.690625 7.2 
z
" style="fill: #ffffff"/>
   </g>
   <g id="matplotlib.axis_1">
    <g id="xtick_1">
     <g id="line2d_1">
      <defs>
       <path id="ma7d4d84a26" d="M 0 0 
L 0 3.5 
" style="stroke: #000000; stroke-width: 0.8"/>
      </defs>
      <g>
       <use xlink:href="#ma7d4d84a26" x="79.680178" y="228.96" style="stroke: #000000; stroke-width: 0.8"/>
      </g>
     </g>
     <g id="text_1">
      <!-- 20000 -->
      <g transform="translate(63.773928 243.558437) scale(0.1 -0.1)">
       <defs>
        <path id="DejaVuSans-32" d="M 1228 531 
L 3431 531 
L 3431 0 
L 469 0 
L 469 531 
Q 828 903 1448 1529 
Q 2069 2156 2228 2338 
Q 2531 2678 2651 2914 
Q 2772 3150 2772 3378 
Q 2772 3750 2511 3984 
Q 2250 4219 1831 4219 
Q 1534 4219 1204 4116 
Q 875 4013 500 3803 
L 500 4441 
Q 881 4594 1212 4672 
Q 1544 4750 1819 4750 
Q 2544 4750 2975 4387 
Q 3406 4025 3406 3419 
Q 3406 3131 3298 2873 
Q 3191 2616 2906 2266 
Q 2828 2175 2409 1742 
Q 1991 1309 1228 531 
z
" transform="scale(0.015625)"/>
        <path id="DejaVuSans-30" d="M 2034 4250 
Q 1547 4250 1301 3770 
Q 1056 3291 1056 2328 
Q 1056 1369 1301 889 
Q 1547 409 2034 409 
Q 2525 409 2770 889 
Q 3016 1369 3016 2328 
Q 3016 3291 2770 3770 
Q 2525 4250 2034 4250 
z
M 2034 4750 
Q 2819 4750 3233 4129 
Q 3647 3509 3647 2328 
Q 3647 1150 3233 529 
Q 2819 -91 2034 -91 
Q 1250 -91 836 529 
Q 422 1150 422 2328 
Q 422 3509 836 4129 
Q 1250 4750 2034 4750 
z
" transform="scale(0.015625)"/>
       </defs>
       <use xlink:href="#DejaVuSans-32"/>
       <use xlink:href="#DejaVuSans-30" transform="translate(63.623047 0)"/>
       <use xlink:href="#DejaVuSans-30" transform="translate(127.246094 0)"/>
       <use xlink:href="#DejaVuSans-30" transform="translate(190.869141 0)"/>
       <use xlink:href="#DejaVuSans-30" transform="translate(254.492188 0)"/>
      </g>
     </g>
    </g>
    <g id="xtick_2">
     <g id="line2d_2">
      <g>
       <use xlink:href="#ma7d4d84a26" x="120.397721" y="228.96" style="stroke: #000000; stroke-width: 0.8"/>
      </g>
     </g>
     <g id="text_2">
      <!-- 40000 -->
      <g transform="translate(104.491471 243.558437) scale(0.1 -0.1)">
       <defs>
        <path id="DejaVuSans-34" d="M 2419 4116 
L 825 1625 
L 2419 1625 
L 2419 4116 
z
M 2253 4666 
L 3047 4666 
L 3047 1625 
L 3713 1625 
L 3713 1100 
L 3047 1100 
L 3047 0 
L 2419 0 
L 2419 1100 
L 313 1100 
L 313 1709 
L 2253 4666 
z
" transform="scale(0.015625)"/>
       </defs>
       <use xlink:href="#DejaVuSans-34"/>
       <use xlink:href="#DejaVuSans-30" transform="translate(63.623047 0)"/>
       <use xlink:href="#DejaVuSans-30" transform="translate(127.246094 0)"/>
       <use xlink:href="#DejaVuSans-30" transform="translate(190.869141 0)"/>
       <use xlink:href="#DejaVuSans-30" transform="translate(254.492188 0)"/>
      </g>
     </g>
    </g>
    <g id="xtick_3">
     <g id="line2d_3">
      <g>
       <use xlink:href="#ma7d4d84a26" x="161.115264" y="228.96" style="stroke: #000000; stroke-width: 0.8"/>
      </g>
     </g>
     <g id="text_3">
      <!-- 60000 -->
      <g transform="translate(145.209014 243.558437) scale(0.1 -0.1)">
       <defs>
        <path id="DejaVuSans-36" d="M 2113 2584 
Q 1688 2584 1439 2293 
Q 1191 2003 1191 1497 
Q 1191 994 1439 701 
Q 1688 409 2113 409 
Q 2538 409 2786 701 
Q 3034 994 3034 1497 
Q 3034 2003 2786 2293 
Q 2538 2584 2113 2584 
z
M 3366 4563 
L 3366 3988 
Q 3128 4100 2886 4159 
Q 2644 4219 2406 4219 
Q 1781 4219 1451 3797 
Q 1122 3375 1075 2522 
Q 1259 2794 1537 2939 
Q 1816 3084 2150 3084 
Q 2853 3084 3261 2657 
Q 3669 2231 3669 1497 
Q 3669 778 3244 343 
Q 2819 -91 2113 -91 
Q 1303 -91 875 529 
Q 447 1150 447 2328 
Q 447 3434 972 4092 
Q 1497 4750 2381 4750 
Q 2619 4750 2861 4703 
Q 3103 4656 3366 4563 
z
" transform="scale(0.015625)"/>
       </defs>
       <use xlink:href="#DejaVuSans-36"/>
       <use xlink:href="#DejaVuSans-30" transform="translate(63.623047 0)"/>
       <use xlink:href="#DejaVuSans-30" transform="translate(127.246094 0)"/>
       <use xlink:href="#DejaVuSans-30" transform="translate(190.869141 0)"/>
       <use xlink:href="#DejaVuSans-30" transform="translate(254.492188 0)"/>
      </g>
     </g>
    </g>
    <g id="xtick_4">
     <g id="line2d_4">
      <g>
       <use xlink:href="#ma7d4d84a26" x="201.832808" y="228.96" style="stroke: #000000; stroke-width: 0.8"/>
      </g>
     </g>
     <g id="text_4">
      <!-- 80000 -->
      <g transform="translate(185.926558 243.558437) scale(0.1 -0.1)">
       <defs>
        <path id="DejaVuSans-38" d="M 2034 2216 
Q 1584 2216 1326 1975 
Q 1069 1734 1069 1313 
Q 1069 891 1326 650 
Q 1584 409 2034 409 
Q 2484 409 2743 651 
Q 3003 894 3003 1313 
Q 3003 1734 2745 1975 
Q 2488 2216 2034 2216 
z
M 1403 2484 
Q 997 2584 770 2862 
Q 544 3141 544 3541 
Q 544 4100 942 4425 
Q 1341 4750 2034 4750 
Q 2731 4750 3128 4425 
Q 3525 4100 3525 3541 
Q 3525 3141 3298 2862 
Q 3072 2584 2669 2484 
Q 3125 2378 3379 2068 
Q 3634 1759 3634 1313 
Q 3634 634 3220 271 
Q 2806 -91 2034 -91 
Q 1263 -91 848 271 
Q 434 634 434 1313 
Q 434 1759 690 2068 
Q 947 2378 1403 2484 
z
M 1172 3481 
Q 1172 3119 1398 2916 
Q 1625 2713 2034 2713 
Q 2441 2713 2670 2916 
Q 2900 3119 2900 3481 
Q 2900 3844 2670 4047 
Q 2441 4250 2034 4250 
Q 1625 4250 1398 4047 
Q 1172 3844 1172 3481 
z
" transform="scale(0.015625)"/>
       </defs>
       <use xlink:href="#DejaVuSans-38"/>
       <use xlink:href="#DejaVuSans-30" transform="translate(63.623047 0)"/>
       <use xlink:href="#DejaVuSans-30" transform="translate(127.246094 0)"/>
       <use xlink:href="#DejaVuSans-30" transform="translate(190.869141 0)"/>
       <use xlink:href="#DejaVuSans-30" transform="translate(254.492188 0)"/>
      </g>
     </g>
    </g>
    <g id="xtick_5">
     <g id="line2d_5">
      <g>
       <use xlink:href="#ma7d4d84a26" x="242.550351" y="228.96" style="stroke: #000000; stroke-width: 0.8"/>
      </g>
     </g>
     <g id="text_5">
      <!-- 100000 -->
      <g transform="translate(223.462851 243.558437) scale(0.1 -0.1)">
       <defs>
        <path id="DejaVuSans-31" d="M 794 531 
L 1825 531 
L 1825 4091 
L 703 3866 
L 703 4441 
L 1819 4666 
L 2450 4666 
L 2450 531 
L 3481 531 
L 3481 0 
L 794 0 
L 794 531 
z
" transform="scale(0.015625)"/>
       </defs>
       <use xlink:href="#DejaVuSans-31"/>
       <use xlink:href="#DejaVuSans-30" transform="translate(63.623047 0)"/>
       <use xlink:href="#DejaVuSans-30" transform="translate(127.246094 0)"/>
       <use xlink:href="#DejaVuSans-30" transform="translate(190.869141 0)"/>
       <use xlink:href="#DejaVuSans-30" transform="translate(254.492188 0)"/>
       <use xlink:href="#DejaVuSans-30" transform="translate(318.115234 0)"/>
      </g>
     </g>
    </g>
    <g id="xtick_6">
     <g id="line2d_6">
      <g>
       <use xlink:href="#ma7d4d84a26" x="283.267894" y="228.96" style="stroke: #000000; stroke-width: 0.8"/>
      </g>
     </g>
     <g id="text_6">
      <!-- 120000 -->
      <g transform="translate(264.180394 243.558437) scale(0.1 -0.1)">
       <use xlink:href="#DejaVuSans-31"/>
       <use xlink:href="#DejaVuSans-32" transform="translate(63.623047 0)"/>
       <use xlink:href="#DejaVuSans-30" transform="translate(127.246094 0)"/>
       <use xlink:href="#DejaVuSans-30" transform="translate(190.869141 0)"/>
       <use xlink:href="#DejaVuSans-30" transform="translate(254.492188 0)"/>
       <use xlink:href="#DejaVuSans-30" transform="translate(318.115234 0)"/>
      </g>
     </g>
    </g>
    <g id="xtick_7">
     <g id="line2d_7">
      <g>
       <use xlink:href="#ma7d4d84a26" x="323.985438" y="228.96" style="stroke: #000000; stroke-width: 0.8"/>
      </g>
     </g>
     <g id="text_7">
      <!-- 140000 -->
      <g transform="translate(304.897938 243.558437) scale(0.1 -0.1)">
       <use xlink:href="#DejaVuSans-31"/>
       <use xlink:href="#DejaVuSans-34" transform="translate(63.623047 0)"/>
       <use xlink:href="#DejaVuSans-30" transform="translate(127.246094 0)"/>
       <use xlink:href="#DejaVuSans-30" transform="translate(190.869141 0)"/>
       <use xlink:href="#DejaVuSans-30" transform="translate(254.492188 0)"/>
       <use xlink:href="#DejaVuSans-30" transform="translate(318.115234 0)"/>
      </g>
     </g>
    </g>
    <g id="xtick_8">
     <g id="line2d_8">
      <g>
       <use xlink:href="#ma7d4d84a26" x="364.702981" y="228.96" style="stroke: #000000; stroke-width: 0.8"/>
      </g>
     </g>
     <g id="text_8">
      <!-- 160000 -->
      <g transform="translate(345.615481 243.558437) scale(0.1 -0.1)">
       <use xlink:href="#DejaVuSans-31"/>
       <use xlink:href="#DejaVuSans-36" transform="translate(63.623047 0)"/>
       <use xlink:href="#DejaVuSans-30" transform="translate(127.246094 0)"/>
       <use xlink:href="#DejaVuSans-30" transform="translate(190.869141 0)"/>
       <use xlink:href="#DejaVuSans-30" transform="translate(254.492188 0)"/>
       <use xlink:href="#DejaVuSans-30" transform="translate(318.115234 0)"/>
      </g>
     </g>
    </g>
    <g id="text_9">
     <!-- tof [µs] -->
     <g transform="translate(209.034375 257.236562) scale(0.1 -0.1)">
      <defs>
       <path id="DejaVuSans-74" d="M 1172 4494 
L 1172 3500 
L 2356 3500 
L 2356 3053 
L 1172 3053 
L 1172 1153 
Q 1172 725 1289 603 
Q 1406 481 1766 481 
L 2356 481 
L 2356 0 
L 1766 0 
Q 1100 0 847 248 
Q 594 497 594 1153 
L 594 3053 
L 172 3053 
L 172 3500 
L 594 3500 
L 594 4494 
L 1172 4494 
z
" transform="scale(0.015625)"/>
       <path id="DejaVuSans-6f" d="M 1959 3097 
Q 1497 3097 1228 2736 
Q 959 2375 959 1747 
Q 959 1119 1226 758 
Q 1494 397 1959 397 
Q 2419 397 2687 759 
Q 2956 1122 2956 1747 
Q 2956 2369 2687 2733 
Q 2419 3097 1959 3097 
z
M 1959 3584 
Q 2709 3584 3137 3096 
Q 3566 2609 3566 1747 
Q 3566 888 3137 398 
Q 2709 -91 1959 -91 
Q 1206 -91 779 398 
Q 353 888 353 1747 
Q 353 2609 779 3096 
Q 1206 3584 1959 3584 
z
" transform="scale(0.015625)"/>
       <path id="DejaVuSans-66" d="M 2375 4863 
L 2375 4384 
L 1825 4384 
Q 1516 4384 1395 4259 
Q 1275 4134 1275 3809 
L 1275 3500 
L 2222 3500 
L 2222 3053 
L 1275 3053 
L 1275 0 
L 697 0 
L 697 3053 
L 147 3053 
L 147 3500 
L 697 3500 
L 697 3744 
Q 697 4328 969 4595 
Q 1241 4863 1831 4863 
L 2375 4863 
z
" transform="scale(0.015625)"/>
       <path id="DejaVuSans-20" transform="scale(0.015625)"/>
       <path id="DejaVuSans-5b" d="M 550 4863 
L 1875 4863 
L 1875 4416 
L 1125 4416 
L 1125 -397 
L 1875 -397 
L 1875 -844 
L 550 -844 
L 550 4863 
z
" transform="scale(0.015625)"/>
       <path id="DejaVuSans-b5" d="M 544 -1331 
L 544 3500 
L 1119 3500 
L 1119 1325 
Q 1119 872 1334 640 
Q 1550 409 1972 409 
Q 2434 409 2667 671 
Q 2900 934 2900 1459 
L 2900 3500 
L 3475 3500 
L 3475 806 
Q 3475 619 3529 530 
Q 3584 441 3700 441 
Q 3728 441 3778 458 
Q 3828 475 3916 513 
L 3916 50 
Q 3788 -22 3673 -56 
Q 3559 -91 3450 -91 
Q 3234 -91 3106 31 
Q 2978 153 2931 403 
Q 2775 156 2548 32 
Q 2322 -91 2016 -91 
Q 1697 -91 1473 31 
Q 1250 153 1119 397 
L 1119 -1331 
L 544 -1331 
z
" transform="scale(0.015625)"/>
       <path id="DejaVuSans-73" d="M 2834 3397 
L 2834 2853 
Q 2591 2978 2328 3040 
Q 2066 3103 1784 3103 
Q 1356 3103 1142 2972 
Q 928 2841 928 2578 
Q 928 2378 1081 2264 
Q 1234 2150 1697 2047 
L 1894 2003 
Q 2506 1872 2764 1633 
Q 3022 1394 3022 966 
Q 3022 478 2636 193 
Q 2250 -91 1575 -91 
Q 1294 -91 989 -36 
Q 684 19 347 128 
L 347 722 
Q 666 556 975 473 
Q 1284 391 1588 391 
Q 1994 391 2212 530 
Q 2431 669 2431 922 
Q 2431 1156 2273 1281 
Q 2116 1406 1581 1522 
L 1381 1569 
Q 847 1681 609 1914 
Q 372 2147 372 2553 
Q 372 3047 722 3315 
Q 1072 3584 1716 3584 
Q 2034 3584 2315 3537 
Q 2597 3491 2834 3397 
z
" transform="scale(0.015625)"/>
       <path id="DejaVuSans-5d" d="M 1947 4863 
L 1947 -844 
L 622 -844 
L 622 -397 
L 1369 -397 
L 1369 4416 
L 622 4416 
L 622 4863 
L 1947 4863 
z
" transform="scale(0.015625)"/>
      </defs>
      <use xlink:href="#DejaVuSans-74"/>
      <use xlink:href="#DejaVuSans-6f" transform="translate(39.208984 0)"/>
      <use xlink:href="#DejaVuSans-66" transform="translate(100.390625 0)"/>
      <use xlink:href="#DejaVuSans-20" transform="translate(135.595703 0)"/>
      <use xlink:href="#DejaVuSans-5b" transform="translate(167.382812 0)"/>
      <use xlink:href="#DejaVuSans-b5" transform="translate(206.396484 0)"/>
      <use xlink:href="#DejaVuSans-73" transform="translate(270.019531 0)"/>
      <use xlink:href="#DejaVuSans-5d" transform="translate(322.119141 0)"/>
     </g>
    </g>
   </g>
   <g id="matplotlib.axis_2">
    <g id="ytick_1">
     <g id="line2d_9">
      <defs>
       <path id="m7abf274d66" d="M 0 0 
L -3.5 0 
" style="stroke: #000000; stroke-width: 0.8"/>
      </defs>
      <g>
       <use xlink:href="#m7abf274d66" x="59.690625" y="218.88" style="stroke: #000000; stroke-width: 0.8"/>
      </g>
     </g>
     <g id="text_10">
      <!-- 0 -->
      <g transform="translate(46.328125 222.679219) scale(0.1 -0.1)">
       <use xlink:href="#DejaVuSans-30"/>
      </g>
     </g>
    </g>
    <g id="ytick_2">
     <g id="line2d_10">
      <g>
       <use xlink:href="#m7abf274d66" x="59.690625" y="186.211065" style="stroke: #000000; stroke-width: 0.8"/>
      </g>
     </g>
     <g id="text_11">
      <!-- 2000 -->
      <g transform="translate(27.240625 190.010283) scale(0.1 -0.1)">
       <use xlink:href="#DejaVuSans-32"/>
       <use xlink:href="#DejaVuSans-30" transform="translate(63.623047 0)"/>
       <use xlink:href="#DejaVuSans-30" transform="translate(127.246094 0)"/>
       <use xlink:href="#DejaVuSans-30" transform="translate(190.869141 0)"/>
      </g>
     </g>
    </g>
    <g id="ytick_3">
     <g id="line2d_11">
      <g>
       <use xlink:href="#m7abf274d66" x="59.690625" y="153.542129" style="stroke: #000000; stroke-width: 0.8"/>
      </g>
     </g>
     <g id="text_12">
      <!-- 4000 -->
      <g transform="translate(27.240625 157.341348) scale(0.1 -0.1)">
       <use xlink:href="#DejaVuSans-34"/>
       <use xlink:href="#DejaVuSans-30" transform="translate(63.623047 0)"/>
       <use xlink:href="#DejaVuSans-30" transform="translate(127.246094 0)"/>
       <use xlink:href="#DejaVuSans-30" transform="translate(190.869141 0)"/>
      </g>
     </g>
    </g>
    <g id="ytick_4">
     <g id="line2d_12">
      <g>
       <use xlink:href="#m7abf274d66" x="59.690625" y="120.873194" style="stroke: #000000; stroke-width: 0.8"/>
      </g>
     </g>
     <g id="text_13">
      <!-- 6000 -->
      <g transform="translate(27.240625 124.672413) scale(0.1 -0.1)">
       <use xlink:href="#DejaVuSans-36"/>
       <use xlink:href="#DejaVuSans-30" transform="translate(63.623047 0)"/>
       <use xlink:href="#DejaVuSans-30" transform="translate(127.246094 0)"/>
       <use xlink:href="#DejaVuSans-30" transform="translate(190.869141 0)"/>
      </g>
     </g>
    </g>
    <g id="ytick_5">
     <g id="line2d_13">
      <g>
       <use xlink:href="#m7abf274d66" x="59.690625" y="88.204259" style="stroke: #000000; stroke-width: 0.8"/>
      </g>
     </g>
     <g id="text_14">
      <!-- 8000 -->
      <g transform="translate(27.240625 92.003477) scale(0.1 -0.1)">
       <use xlink:href="#DejaVuSans-38"/>
       <use xlink:href="#DejaVuSans-30" transform="translate(63.623047 0)"/>
       <use xlink:href="#DejaVuSans-30" transform="translate(127.246094 0)"/>
       <use xlink:href="#DejaVuSans-30" transform="translate(190.869141 0)"/>
      </g>
     </g>
    </g>
    <g id="ytick_6">
     <g id="line2d_14">
      <g>
       <use xlink:href="#m7abf274d66" x="59.690625" y="55.535323" style="stroke: #000000; stroke-width: 0.8"/>
      </g>
     </g>
     <g id="text_15">
      <!-- 10000 -->
      <g transform="translate(20.878125 59.334542) scale(0.1 -0.1)">
       <use xlink:href="#DejaVuSans-31"/>
       <use xlink:href="#DejaVuSans-30" transform="translate(63.623047 0)"/>
       <use xlink:href="#DejaVuSans-30" transform="translate(127.246094 0)"/>
       <use xlink:href="#DejaVuSans-30" transform="translate(190.869141 0)"/>
       <use xlink:href="#DejaVuSans-30" transform="translate(254.492188 0)"/>
      </g>
     </g>
    </g>
    <g id="ytick_7">
     <g id="line2d_15">
      <g>
       <use xlink:href="#m7abf274d66" x="59.690625" y="22.866388" style="stroke: #000000; stroke-width: 0.8"/>
      </g>
     </g>
     <g id="text_16">
      <!-- 12000 -->
      <g transform="translate(20.878125 26.665607) scale(0.1 -0.1)">
       <use xlink:href="#DejaVuSans-31"/>
       <use xlink:href="#DejaVuSans-32" transform="translate(63.623047 0)"/>
       <use xlink:href="#DejaVuSans-30" transform="translate(127.246094 0)"/>
       <use xlink:href="#DejaVuSans-30" transform="translate(190.869141 0)"/>
       <use xlink:href="#DejaVuSans-30" transform="translate(254.492188 0)"/>
      </g>
     </g>
    </g>
    <g id="text_17">
     <!-- [counts] -->
     <g transform="translate(14.798438 138.6925) rotate(-90) scale(0.1 -0.1)">
      <defs>
       <path id="DejaVuSans-63" d="M 3122 3366 
L 3122 2828 
Q 2878 2963 2633 3030 
Q 2388 3097 2138 3097 
Q 1578 3097 1268 2742 
Q 959 2388 959 1747 
Q 959 1106 1268 751 
Q 1578 397 2138 397 
Q 2388 397 2633 464 
Q 2878 531 3122 666 
L 3122 134 
Q 2881 22 2623 -34 
Q 2366 -91 2075 -91 
Q 1284 -91 818 406 
Q 353 903 353 1747 
Q 353 2603 823 3093 
Q 1294 3584 2113 3584 
Q 2378 3584 2631 3529 
Q 2884 3475 3122 3366 
z
" transform="scale(0.015625)"/>
       <path id="DejaVuSans-75" d="M 544 1381 
L 544 3500 
L 1119 3500 
L 1119 1403 
Q 1119 906 1312 657 
Q 1506 409 1894 409 
Q 2359 409 2629 706 
Q 2900 1003 2900 1516 
L 2900 3500 
L 3475 3500 
L 3475 0 
L 2900 0 
L 2900 538 
Q 2691 219 2414 64 
Q 2138 -91 1772 -91 
Q 1169 -91 856 284 
Q 544 659 544 1381 
z
M 1991 3584 
L 1991 3584 
z
" transform="scale(0.015625)"/>
       <path id="DejaVuSans-6e" d="M 3513 2113 
L 3513 0 
L 2938 0 
L 2938 2094 
Q 2938 2591 2744 2837 
Q 2550 3084 2163 3084 
Q 1697 3084 1428 2787 
Q 1159 2491 1159 1978 
L 1159 0 
L 581 0 
L 581 3500 
L 1159 3500 
L 1159 2956 
Q 1366 3272 1645 3428 
Q 1925 3584 2291 3584 
Q 2894 3584 3203 3211 
Q 3513 2838 3513 2113 
z
" transform="scale(0.015625)"/>
      </defs>
      <use xlink:href="#DejaVuSans-5b"/>
      <use xlink:href="#DejaVuSans-63" transform="translate(39.013672 0)"/>
      <use xlink:href="#DejaVuSans-6f" transform="translate(93.994141 0)"/>
      <use xlink:href="#DejaVuSans-75" transform="translate(155.175781 0)"/>
      <use xlink:href="#DejaVuSans-6e" transform="translate(218.554688 0)"/>
      <use xlink:href="#DejaVuSans-74" transform="translate(281.933594 0)"/>
      <use xlink:href="#DejaVuSans-73" transform="translate(321.142578 0)"/>
      <use xlink:href="#DejaVuSans-5d" transform="translate(373.242188 0)"/>
     </g>
    </g>
   </g>
   <g id="line2d_16">
    <path d="M 74.908807 218.847331 
L 76.944684 218.781993 
L 76.944684 218.634983 
L 79.9985 218.73299 
L 79.9985 218.504307 
L 81.016438 218.504307 
L 81.016438 218.618649 
L 82.034377 218.618649 
L 82.034377 218.210287 
L 83.052315 218.210287 
L 83.052315 218.063277 
L 84.070254 218.063277 
L 84.070254 217.916266 
L 86.106131 217.867263 
L 86.106131 217.540574 
L 87.12407 217.540574 
L 87.12407 217.328226 
L 88.142008 217.328226 
L 88.142008 217.017871 
L 89.159947 217.017871 
L 89.159947 216.217482 
L 90.177886 216.217482 
L 90.177886 216.72385 
L 91.195824 216.72385 
L 91.195824 215.66211 
L 92.213763 215.66211 
L 92.213763 214.535032 
L 93.231701 214.535032 
L 93.231701 213.718308 
L 94.24964 213.718308 
L 94.24964 213.162936 
L 95.267578 213.162936 
L 95.267578 211.839844 
L 96.285517 211.839844 
L 96.285517 207.968576 
L 97.303456 207.968576 
L 97.303456 207.543879 
L 98.321394 207.543879 
L 98.321394 203.37859 
L 99.339333 203.37859 
L 99.339333 200.601731 
L 100.357271 200.601731 
L 100.357271 194.93367 
L 101.37521 194.93367 
L 101.37521 190.474361 
L 102.393149 190.474361 
L 102.393149 181.702752 
L 103.411087 181.702752 
L 103.411087 178.958561 
L 104.429026 178.958561 
L 104.429026 173.127156 
L 105.446964 173.127156 
L 105.446964 165.531629 
L 106.464903 165.531629 
L 106.464903 157.429733 
L 107.482841 157.429733 
L 107.482841 150.585591 
L 108.50078 150.585591 
L 108.50078 137.779368 
L 109.518719 137.779368 
L 109.518719 132.405328 
L 110.536657 132.405328 
L 110.536657 123.862402 
L 111.554596 123.862402 
L 111.554596 112.869305 
L 112.572534 112.869305 
L 112.572534 102.970617 
L 113.590473 102.970617 
L 113.590473 96.371492 
L 114.608412 96.371492 
L 114.608412 84.643345 
L 115.62635 84.643345 
L 115.62635 70.236344 
L 116.644289 70.236344 
L 116.644289 67.557491 
L 117.662227 67.557491 
L 117.662227 54.473583 
L 118.680166 54.473583 
L 118.680166 46.812718 
L 119.698104 46.812718 
L 119.698104 46.028663 
L 120.716043 46.028663 
L 120.716043 40.768965 
L 121.733982 40.768965 
L 121.733982 36.14631 
L 122.75192 36.14631 
L 122.75192 35.884959 
L 123.769859 35.884959 
L 123.769859 32.732406 
L 124.787797 32.732406 
L 124.787797 27.88107 
L 125.805736 27.88107 
L 125.805736 26.231288 
L 126.823675 26.231288 
L 126.823675 29.187827 
L 127.841613 29.187827 
L 127.841613 34.774215 
L 128.859552 34.774215 
L 128.859552 17.28 
L 129.87749 17.28 
L 129.87749 26.884667 
L 131.913367 26.835664 
L 131.913367 26.394633 
L 132.931306 26.394633 
L 132.931306 21.085931 
L 133.949245 21.085931 
L 133.949245 25.659582 
L 134.967183 25.659582 
L 134.967183 28.893807 
L 135.985122 28.893807 
L 135.985122 27.979076 
L 137.00306 27.979076 
L 137.00306 29.694195 
L 138.020999 29.694195 
L 138.020999 26.378298 
L 139.038938 26.378298 
L 139.038938 23.634108 
L 140.056876 23.634108 
L 140.056876 31.752338 
L 141.074815 31.752338 
L 141.074815 30.380243 
L 142.092753 30.380243 
L 142.092753 35.5256 
L 143.110692 35.5256 
L 143.110692 45.930656 
L 144.12863 45.930656 
L 144.12863 52.301099 
L 145.146569 52.301099 
L 145.146569 47.18841 
L 146.164508 47.18841 
L 146.164508 48.838192 
L 147.182446 48.838192 
L 147.182446 64.127253 
L 148.200385 64.127253 
L 148.200385 63.898571 
L 149.218323 63.898571 
L 149.218323 66.283403 
L 150.236262 66.283403 
L 150.236262 69.190938 
L 151.254201 69.190938 
L 151.254201 77.178493 
L 152.272139 77.178493 
L 152.272139 77.047817 
L 153.290078 77.047817 
L 153.290078 76.149421 
L 154.308016 76.149421 
L 154.308016 83.891959 
L 155.325955 83.891959 
L 155.325955 90.197064 
L 156.343893 90.197064 
L 156.343893 97.220885 
L 157.361832 97.220885 
L 157.361832 96.338824 
L 158.379771 96.338824 
L 158.379771 97.220885 
L 159.397709 97.220885 
L 159.397709 98.184618 
L 160.415648 98.184618 
L 160.415648 101.206495 
L 161.433586 101.206495 
L 161.433586 107.936296 
L 162.451525 107.936296 
L 162.451525 109.390063 
L 163.469464 109.390063 
L 163.469464 111.578882 
L 164.487402 111.578882 
L 164.487402 118.276014 
L 165.505341 118.276014 
L 165.505341 114.176062 
L 166.523279 114.176062 
L 166.523279 117.589966 
L 167.541218 117.589966 
L 167.541218 122.359631 
L 168.559156 122.359631 
L 168.559156 123.846067 
L 169.577095 123.846067 
L 169.577095 124.646456 
L 170.595034 124.646456 
L 170.595034 129.171104 
L 171.612972 129.171104 
L 171.612972 130.379854 
L 172.630911 130.379854 
L 172.630911 132.094973 
L 173.648849 132.094973 
L 173.648849 132.437997 
L 174.666788 132.437997 
L 174.666788 134.888167 
L 175.684727 134.888167 
L 175.684727 139.265805 
L 176.702665 139.265805 
L 176.702665 141.650637 
L 177.720604 141.650637 
L 177.720604 137.616023 
L 178.738542 137.616023 
L 178.738542 146.763325 
L 179.756481 146.763325 
L 179.756481 145.423899 
L 180.774419 145.423899 
L 180.774419 151.238969 
L 181.792358 151.238969 
L 181.792358 147.204356 
L 182.810297 147.204356 
L 182.810297 147.857735 
L 183.828235 147.857735 
L 183.828235 155.208245 
L 184.846174 155.208245 
L 184.846174 151.320642 
L 185.864112 151.320642 
L 185.864112 155.404259 
L 186.882051 155.404259 
L 186.882051 153.21544 
L 187.89999 153.21544 
L 187.89999 157.82176 
L 188.917928 157.82176 
L 188.917928 160.12492 
L 189.935867 160.12492 
L 189.935867 161.072319 
L 191.971744 160.974312 
L 191.971744 165.270277 
L 192.989682 165.270277 
L 192.989682 166.168673 
L 194.007621 166.168673 
L 194.007621 165.678639 
L 195.02556 165.678639 
L 195.02556 169.794925 
L 196.043498 169.794925 
L 196.043498 169.435566 
L 197.061437 169.435566 
L 197.061437 169.974604 
L 198.079375 169.974604 
L 198.079375 172.522781 
L 199.097314 172.522781 
L 199.097314 174.842275 
L 200.115253 174.842275 
L 200.115253 176.345046 
L 201.133191 176.345046 
L 201.133191 178.69721 
L 202.15113 178.69721 
L 202.15113 180.592008 
L 203.169068 180.592008 
L 203.169068 183.793563 
L 204.187007 183.793563 
L 204.187007 185.786368 
L 205.204945 185.786368 
L 205.204945 187.485153 
L 206.222884 187.485153 
L 206.222884 183.875236 
L 207.240823 183.875236 
L 207.240823 190.931726 
L 208.258761 190.931726 
L 208.258761 190.441692 
L 209.2767 190.441692 
L 209.2767 193.659582 
L 210.294638 193.659582 
L 210.294638 193.022538 
L 211.312577 193.022538 
L 211.312577 196.501779 
L 212.330516 196.501779 
L 212.330516 197.024482 
L 213.348454 197.024482 
L 213.348454 197.824871 
L 214.366393 197.824871 
L 214.366393 197.138824 
L 215.384331 197.138824 
L 215.384331 199.964686 
L 216.40227 199.964686 
L 216.40227 201.712474 
L 217.420208 201.712474 
L 217.420208 202.970228 
L 218.438147 202.970228 
L 218.438147 203.411259 
L 219.456086 203.411259 
L 219.456086 204.489334 
L 220.474024 204.489334 
L 220.474024 205.485737 
L 221.491963 205.485737 
L 221.491963 206.514808 
L 222.509901 206.514808 
L 222.509901 206.808828 
L 223.52784 206.808828 
L 223.52784 208.621954 
L 225.563717 208.60562 
L 225.563717 210.353408 
L 226.581656 210.353408 
L 226.581656 210.876111 
L 227.599594 210.876111 
L 227.599594 211.317141 
L 228.617533 211.317141 
L 228.617533 212.362547 
L 229.635471 212.362547 
L 229.635471 212.623899 
L 230.65341 212.623899 
L 230.65341 214.044998 
L 231.671349 214.044998 
L 231.671349 214.404356 
L 232.689287 214.404356 
L 232.689287 214.861721 
L 233.707226 214.861721 
L 233.707226 215.270083 
L 234.725164 215.270083 
L 234.725164 215.678444 
L 235.743103 215.678444 
L 235.743103 216.42983 
L 236.761042 216.42983 
L 236.761042 216.903529 
L 237.77898 216.903529 
L 237.77898 217.540574 
L 238.796919 217.540574 
L 238.796919 217.801925 
L 239.814857 217.801925 
L 239.814857 217.997939 
L 240.832796 217.997939 
L 240.832796 218.438969 
L 241.850734 218.438969 
L 241.850734 218.602314 
L 242.868673 218.602314 
L 242.868673 218.781993 
L 379.272443 218.88 
L 379.272443 218.88 
" clip-path="url(#p00fda08df0)" style="fill: none; stroke: #1f77b4; stroke-width: 1.5; stroke-linecap: square"/>
   </g>
   <g id="line2d_17">
    <path d="M 74.908807 218.88 
L 102.393149 218.847331 
L 102.393149 218.765659 
L 106.464903 218.716655 
L 106.464903 218.88 
L 107.482841 218.88 
L 107.482841 218.618649 
L 111.554596 218.520642 
L 111.554596 218.438969 
L 113.590473 218.536976 
L 113.590473 218.226621 
L 114.608412 218.226621 
L 114.608412 218.357297 
L 115.62635 218.357297 
L 115.62635 218.177618 
L 119.698104 218.177618 
L 119.698104 217.932601 
L 121.733982 217.916266 
L 121.733982 217.556908 
L 122.75192 217.556908 
L 122.75192 217.426232 
L 123.769859 217.426232 
L 123.769859 217.279222 
L 124.787797 217.279222 
L 124.787797 217.703918 
L 125.805736 217.703918 
L 125.805736 217.017871 
L 126.823675 217.017871 
L 126.823675 216.674847 
L 127.841613 216.674847 
L 127.841613 216.037803 
L 128.859552 216.037803 
L 128.859552 216.266485 
L 129.87749 216.266485 
L 129.87749 215.988799 
L 130.895429 215.988799 
L 130.895429 215.433427 
L 131.913367 215.433427 
L 131.913367 215.172076 
L 132.931306 215.172076 
L 132.931306 214.371687 
L 134.967183 214.290015 
L 134.967183 212.362547 
L 135.985122 212.362547 
L 135.985122 212.003189 
L 137.00306 212.003189 
L 137.00306 211.415148 
L 138.020999 211.415148 
L 138.020999 209.242664 
L 139.038938 209.242664 
L 139.038938 209.879708 
L 140.056876 209.879708 
L 140.056876 206.286125 
L 142.092753 206.204453 
L 142.092753 203.639942 
L 143.110692 203.639942 
L 143.110692 201.500126 
L 144.12863 201.500126 
L 144.12863 199.147963 
L 145.146569 199.147963 
L 145.146569 197.792202 
L 146.164508 197.792202 
L 146.164508 195.293029 
L 147.182446 195.293029 
L 147.182446 193.463568 
L 148.200385 193.463568 
L 148.200385 191.111405 
L 149.218323 191.111405 
L 149.218323 189.053262 
L 150.236262 189.053262 
L 150.236262 187.191133 
L 151.254201 187.191133 
L 151.254201 184.103918 
L 152.272139 184.103918 
L 152.272139 180.134643 
L 153.290078 180.134643 
L 153.290078 177.031094 
L 154.308016 177.031094 
L 154.308016 174.760603 
L 155.325955 174.760603 
L 155.325955 170.644317 
L 156.343893 170.644317 
L 156.343893 169.713252 
L 157.361832 169.713252 
L 157.361832 162.607759 
L 158.379771 162.607759 
L 158.379771 163.702168 
L 159.397709 163.702168 
L 159.397709 157.266388 
L 160.415648 157.266388 
L 160.415648 154.45686 
L 161.433586 154.45686 
L 161.433586 151.255304 
L 162.451525 151.255304 
L 162.451525 148.364103 
L 163.469464 148.364103 
L 163.469464 145.374895 
L 164.487402 145.374895 
L 164.487402 140.817579 
L 165.505341 140.817579 
L 165.505341 139.592494 
L 166.523279 139.592494 
L 166.523279 132.33999 
L 167.541218 132.33999 
L 167.541218 130.020496 
L 168.559156 130.020496 
L 168.559156 126.083889 
L 169.577095 126.083889 
L 169.577095 122.898668 
L 170.595034 122.898668 
L 170.595034 119.419426 
L 171.612972 119.419426 
L 171.612972 114.600758 
L 172.630911 114.600758 
L 172.630911 119.61544 
L 173.648849 119.61544 
L 173.648849 115.450151 
L 174.666788 115.450151 
L 174.666788 108.785688 
L 175.684727 108.785688 
L 175.684727 113.816704 
L 176.702665 113.816704 
L 176.702665 112.673291 
L 177.720604 112.673291 
L 177.720604 106.008828 
L 178.738542 106.008828 
L 178.738542 107.511599 
L 179.756481 107.511599 
L 179.756481 106.074166 
L 180.774419 106.074166 
L 180.774419 110.631483 
L 181.792358 110.631483 
L 181.792358 105.894487 
L 182.810297 105.894487 
L 182.810297 105.437122 
L 183.828235 105.437122 
L 183.828235 102.268235 
L 184.846174 102.268235 
L 184.846174 107.527934 
L 185.864112 107.527934 
L 185.864112 104.898085 
L 186.882051 104.898085 
L 186.882051 105.633136 
L 187.89999 105.633136 
L 187.89999 98.625649 
L 188.917928 98.625649 
L 188.917928 101.598522 
L 189.935867 101.598522 
L 189.935867 106.449859 
L 190.953805 106.449859 
L 190.953805 105.02876 
L 191.971744 105.02876 
L 191.971744 100.89614 
L 192.989682 100.89614 
L 192.989682 102.186563 
L 194.007621 102.186563 
L 194.007621 106.466193 
L 195.02556 106.466193 
L 195.02556 101.124823 
L 196.043498 101.124823 
L 196.043498 100.700126 
L 197.061437 100.700126 
L 197.061437 99.703724 
L 198.079375 99.703724 
L 198.079375 103.607662 
L 199.097314 103.607662 
L 199.097314 102.513252 
L 200.115253 102.513252 
L 200.115253 105.273777 
L 201.133191 105.273777 
L 201.133191 109.847428 
L 202.15113 109.847428 
L 202.15113 100.651123 
L 203.169068 100.651123 
L 203.169068 104.555061 
L 204.187007 104.555061 
L 204.187007 107.723947 
L 205.204945 107.723947 
L 205.204945 106.743879 
L 206.222884 106.743879 
L 206.222884 109.406398 
L 207.240823 109.406398 
L 207.240823 103.035955 
L 208.258761 103.035955 
L 208.258761 103.182965 
L 209.2767 103.182965 
L 209.2767 107.086903 
L 210.294638 107.086903 
L 210.294638 109.128712 
L 211.312577 109.128712 
L 211.312577 109.373729 
L 212.330516 109.373729 
L 212.330516 114.747769 
L 213.348454 114.747769 
L 213.348454 112.313933 
L 214.366393 112.313933 
L 214.366393 117.214273 
L 215.384331 117.214273 
L 215.384331 121.9186 
L 216.40227 121.9186 
L 216.40227 119.46843 
L 217.420208 119.46843 
L 217.420208 117.508294 
L 218.438147 117.508294 
L 218.438147 117.622635 
L 219.456086 117.622635 
L 219.456086 124.777132 
L 220.474024 124.777132 
L 220.474024 124.532115 
L 221.491963 124.532115 
L 221.491963 128.648401 
L 222.509901 128.648401 
L 222.509901 118.488362 
L 223.52784 118.488362 
L 223.52784 124.613787 
L 224.545779 124.613787 
L 224.545779 141.40562 
L 225.563717 141.40562 
L 225.563717 128.566728 
L 226.581656 128.566728 
L 226.581656 126.018551 
L 227.599594 126.018551 
L 227.599594 131.686612 
L 228.617533 131.686612 
L 228.617533 138.612426 
L 229.635471 138.612426 
L 229.635471 139.772173 
L 230.65341 139.772173 
L 230.65341 131.686612 
L 231.671349 131.686612 
L 231.671349 138.95545 
L 232.689287 138.95545 
L 232.689287 141.895654 
L 233.707226 141.895654 
L 233.707226 141.046262 
L 234.725164 141.046262 
L 234.725164 140.801245 
L 235.743103 140.801245 
L 235.743103 145.521906 
L 236.761042 145.521906 
L 236.761042 141.454623 
L 237.77898 141.454623 
L 237.77898 151.614662 
L 238.796919 151.614662 
L 238.796919 146.126281 
L 239.814857 146.126281 
L 239.814857 146.01194 
L 240.832796 146.01194 
L 240.832796 150.29157 
L 241.850734 150.29157 
L 241.850734 149.605523 
L 242.868673 149.605523 
L 242.868673 146.142615 
L 243.886612 146.142615 
L 243.886612 150.209898 
L 244.90455 150.209898 
L 244.90455 156.939699 
L 245.922489 156.939699 
L 245.922489 155.012231 
L 246.940427 155.012231 
L 246.940427 154.489528 
L 248.976305 154.45686 
L 248.976305 152.562061 
L 249.994243 152.562061 
L 249.994243 155.649276 
L 251.012182 155.649276 
L 251.012182 161.872708 
L 252.03012 161.872708 
L 252.03012 159.749227 
L 253.048059 159.749227 
L 253.048059 160.484278 
L 254.065997 160.484278 
L 254.065997 165.090598 
L 255.083936 165.090598 
L 255.083936 161.382674 
L 256.101875 161.382674 
L 256.101875 159.242859 
L 257.119813 159.242859 
L 257.119813 161.742032 
L 258.137752 161.742032 
L 258.137752 164.518892 
L 259.15569 164.518892 
L 259.15569 163.261138 
L 260.173629 163.261138 
L 260.173629 167.279417 
L 261.191568 167.279417 
L 261.191568 169.15788 
L 262.209506 169.15788 
L 262.209506 164.355547 
L 263.227445 164.355547 
L 263.227445 168.422829 
L 264.245383 168.422829 
L 264.245383 169.304891 
L 265.263322 169.304891 
L 265.263322 169.108877 
L 266.28126 169.108877 
L 266.28126 169.713252 
L 267.299199 169.713252 
L 267.299199 171.232358 
L 268.317138 171.232358 
L 268.317138 166.577035 
L 269.335076 166.577035 
L 269.335076 174.139893 
L 270.353015 174.139893 
L 270.353015 170.922003 
L 271.370953 170.922003 
L 271.370953 172.212426 
L 272.388892 172.212426 
L 272.388892 175.593661 
L 273.406831 175.593661 
L 273.406831 175.985688 
L 274.424769 175.985688 
L 274.424769 172.980146 
L 275.442708 172.980146 
L 275.442708 177.325114 
L 276.460646 177.325114 
L 276.460646 173.225163 
L 277.478585 173.225163 
L 277.478585 175.250637 
L 278.496523 175.250637 
L 278.496523 181.000369 
L 279.514462 181.000369 
L 279.514462 177.047428 
L 280.532401 177.047428 
L 280.532401 178.550199 
L 281.550339 178.550199 
L 281.550339 179.660943 
L 282.568278 179.660943 
L 282.568278 177.586466 
L 283.586216 177.586466 
L 283.586216 179.121906 
L 284.604155 179.121906 
L 284.604155 184.03858 
L 285.622094 184.03858 
L 285.622094 179.497598 
L 286.640032 179.497598 
L 286.640032 183.221857 
L 287.657971 183.221857 
L 287.657971 184.185591 
L 288.675909 184.185591 
L 288.675909 182.97684 
L 289.693848 182.97684 
L 289.693848 180.690015 
L 290.711786 180.690015 
L 290.711786 182.960506 
L 291.729725 182.960506 
L 291.729725 186.243734 
L 292.747664 186.243734 
L 292.747664 184.397939 
L 293.765602 184.397939 
L 293.765602 185.933379 
L 295.801479 185.933379 
L 295.801479 183.809898 
L 296.819418 183.809898 
L 296.819418 190.735712 
L 297.837357 190.735712 
L 297.837357 187.87718 
L 298.855295 187.87718 
L 298.855295 189.624968 
L 299.873234 189.624968 
L 299.873234 185.786368 
L 300.891172 185.786368 
L 300.891172 187.534157 
L 301.909111 187.534157 
L 301.909111 192.18948 
L 302.927049 192.18948 
L 302.927049 186.619426 
L 303.944988 186.619426 
L 303.944988 194.868333 
L 304.962927 194.868333 
L 304.962927 192.548838 
L 305.980865 192.548838 
L 305.980865 191.781118 
L 306.998804 191.781118 
L 306.998804 191.029733 
L 308.016742 191.029733 
L 308.016742 195.423704 
L 309.034681 195.423704 
L 309.034681 192.9572 
L 310.05262 192.9572 
L 310.05262 194.133281 
L 311.070558 194.133281 
L 311.070558 197.906544 
L 312.088497 197.906544 
L 312.088497 196.044414 
L 313.106435 196.044414 
L 313.106435 197.792202 
L 314.124374 197.792202 
L 314.124374 200.422052 
L 315.142312 200.422052 
L 315.142312 198.412912 
L 317.17819 198.33124 
L 317.17819 199.147963 
L 318.196128 199.147963 
L 318.196128 200.193369 
L 319.214067 200.193369 
L 319.214067 198.788605 
L 320.232005 198.788605 
L 320.232005 202.774215 
L 321.249944 202.774215 
L 321.249944 202.16984 
L 322.267883 202.16984 
L 322.267883 201.140768 
L 323.285821 201.140768 
L 323.285821 203.215246 
L 324.30376 203.215246 
L 324.30376 204.440331 
L 325.321698 204.440331 
L 325.321698 204.603675 
L 326.339637 204.603675 
L 326.339637 205.028371 
L 327.357575 205.028371 
L 327.357575 204.603675 
L 328.375514 204.603675 
L 328.375514 205.502071 
L 329.393453 205.502071 
L 329.393453 207.135518 
L 330.411391 207.135518 
L 330.411391 204.342324 
L 331.42933 204.342324 
L 331.42933 207.282528 
L 332.447268 207.282528 
L 332.447268 205.485737 
L 333.465207 205.485737 
L 333.465207 208.89964 
L 334.483146 208.89964 
L 334.483146 207.429538 
L 335.501084 207.429538 
L 335.501084 208.262596 
L 336.519023 208.262596 
L 336.519023 208.915975 
L 337.536961 208.915975 
L 337.536961 209.536684 
L 339.572838 209.536684 
L 339.572838 209.961381 
L 340.590777 209.961381 
L 340.590777 211.52949 
L 341.608716 211.52949 
L 341.608716 209.945046 
L 342.626654 209.945046 
L 342.626654 211.415148 
L 343.644593 211.415148 
L 343.644593 211.6765 
L 344.662531 211.6765 
L 344.662531 210.729101 
L 345.68047 210.729101 
L 345.68047 212.166534 
L 346.698409 212.166534 
L 346.698409 212.542227 
L 347.716347 212.542227 
L 347.716347 212.836247 
L 348.734286 212.836247 
L 348.734286 212.525892 
L 349.752224 212.525892 
L 349.752224 213.799981 
L 350.770163 213.799981 
L 350.770163 213.473291 
L 351.788101 213.473291 
L 351.788101 213.669305 
L 352.80604 213.669305 
L 352.80604 214.551366 
L 353.823979 214.551366 
L 353.823979 214.388021 
L 354.841917 214.388021 
L 354.841917 214.976062 
L 355.859856 214.976062 
L 355.859856 214.437025 
L 356.877794 214.437025 
L 356.877794 215.417093 
L 357.895733 215.417093 
L 357.895733 215.760117 
L 359.93161 215.80912 
L 359.93161 216.168478 
L 360.949549 216.168478 
L 360.949549 216.364492 
L 361.967487 216.364492 
L 361.967487 216.054137 
L 362.985426 216.054137 
L 362.985426 216.72385 
L 364.003364 216.72385 
L 364.003364 216.887195 
L 365.021303 216.887195 
L 365.021303 217.001536 
L 368.075119 217.066874 
L 368.075119 217.687584 
L 370.110996 217.785591 
L 370.110996 217.997939 
L 372.146873 218.063277 
L 372.146873 218.144949 
L 373.164812 218.144949 
L 373.164812 218.275625 
L 374.18275 218.275625 
L 374.18275 218.455304 
L 376.218627 218.504307 
L 376.218627 218.716655 
L 379.272443 218.651317 
L 379.272443 218.651317 
" clip-path="url(#p00fda08df0)" style="fill: none; stroke: #ff7f0e; stroke-width: 1.5; stroke-linecap: square"/>
   </g>
   <g id="patch_3">
    <path d="M 59.690625 228.96 
L 59.690625 7.2 
" style="fill: none; stroke: #000000; stroke-width: 0.8; stroke-linejoin: miter; stroke-linecap: square"/>
   </g>
   <g id="patch_4">
    <path d="M 394.490625 228.96 
L 394.490625 7.2 
" style="fill: none; stroke: #000000; stroke-width: 0.8; stroke-linejoin: miter; stroke-linecap: square"/>
   </g>
   <g id="patch_5">
    <path d="M 59.690625 228.96 
L 394.490625 228.96 
" style="fill: none; stroke: #000000; stroke-width: 0.8; stroke-linejoin: miter; stroke-linecap: square"/>
   </g>
   <g id="patch_6">
    <path d="M 59.690625 7.2 
L 394.490625 7.2 
" style="fill: none; stroke: #000000; stroke-width: 0.8; stroke-linejoin: miter; stroke-linecap: square"/>
   </g>
   <g id="legend_1">
    <g id="patch_7">
     <path d="M 313.267188 44.55625 
L 387.490625 44.55625 
Q 389.490625 44.55625 389.490625 42.55625 
L 389.490625 14.2 
Q 389.490625 12.2 387.490625 12.2 
L 313.267188 12.2 
Q 311.267188 12.2 311.267188 14.2 
L 311.267188 42.55625 
Q 311.267188 44.55625 313.267188 44.55625 
z
" style="fill: #ffffff; opacity: 0.8; stroke: #cccccc; stroke-linejoin: miter"/>
    </g>
    <g id="line2d_18">
     <path d="M 315.267188 20.298437 
L 315.267188 20.298437 
L 325.267188 20.298437 
L 325.267188 20.298437 
L 335.267188 20.298437 
" style="fill: none; stroke: #1f77b4; stroke-width: 1.5; stroke-linecap: square"/>
    </g>
    <g id="text_18">
     <!-- monitor -->
     <g transform="translate(343.267188 23.798437) scale(0.1 -0.1)">
      <defs>
       <path id="DejaVuSans-6d" d="M 3328 2828 
Q 3544 3216 3844 3400 
Q 4144 3584 4550 3584 
Q 5097 3584 5394 3201 
Q 5691 2819 5691 2113 
L 5691 0 
L 5113 0 
L 5113 2094 
Q 5113 2597 4934 2840 
Q 4756 3084 4391 3084 
Q 3944 3084 3684 2787 
Q 3425 2491 3425 1978 
L 3425 0 
L 2847 0 
L 2847 2094 
Q 2847 2600 2669 2842 
Q 2491 3084 2119 3084 
Q 1678 3084 1418 2786 
Q 1159 2488 1159 1978 
L 1159 0 
L 581 0 
L 581 3500 
L 1159 3500 
L 1159 2956 
Q 1356 3278 1631 3431 
Q 1906 3584 2284 3584 
Q 2666 3584 2933 3390 
Q 3200 3197 3328 2828 
z
" transform="scale(0.015625)"/>
       <path id="DejaVuSans-69" d="M 603 3500 
L 1178 3500 
L 1178 0 
L 603 0 
L 603 3500 
z
M 603 4863 
L 1178 4863 
L 1178 4134 
L 603 4134 
L 603 4863 
z
" transform="scale(0.015625)"/>
       <path id="DejaVuSans-72" d="M 2631 2963 
Q 2534 3019 2420 3045 
Q 2306 3072 2169 3072 
Q 1681 3072 1420 2755 
Q 1159 2438 1159 1844 
L 1159 0 
L 581 0 
L 581 3500 
L 1159 3500 
L 1159 2956 
Q 1341 3275 1631 3429 
Q 1922 3584 2338 3584 
Q 2397 3584 2469 3576 
Q 2541 3569 2628 3553 
L 2631 2963 
z
" transform="scale(0.015625)"/>
      </defs>
      <use xlink:href="#DejaVuSans-6d"/>
      <use xlink:href="#DejaVuSans-6f" transform="translate(97.412109 0)"/>
      <use xlink:href="#DejaVuSans-6e" transform="translate(158.59375 0)"/>
      <use xlink:href="#DejaVuSans-69" transform="translate(221.972656 0)"/>
      <use xlink:href="#DejaVuSans-74" transform="translate(249.755859 0)"/>
      <use xlink:href="#DejaVuSans-6f" transform="translate(288.964844 0)"/>
      <use xlink:href="#DejaVuSans-72" transform="translate(350.146484 0)"/>
     </g>
    </g>
    <g id="line2d_19">
     <path d="M 315.267188 34.976562 
L 315.267188 34.976562 
L 325.267188 34.976562 
L 325.267188 34.976562 
L 335.267188 34.976562 
" style="fill: none; stroke: #ff7f0e; stroke-width: 1.5; stroke-linecap: square"/>
    </g>
    <g id="text_19">
     <!-- detector -->
     <g transform="translate(343.267188 38.476562) scale(0.1 -0.1)">
      <defs>
       <path id="DejaVuSans-64" d="M 2906 2969 
L 2906 4863 
L 3481 4863 
L 3481 0 
L 2906 0 
L 2906 525 
Q 2725 213 2448 61 
Q 2172 -91 1784 -91 
Q 1150 -91 751 415 
Q 353 922 353 1747 
Q 353 2572 751 3078 
Q 1150 3584 1784 3584 
Q 2172 3584 2448 3432 
Q 2725 3281 2906 2969 
z
M 947 1747 
Q 947 1113 1208 752 
Q 1469 391 1925 391 
Q 2381 391 2643 752 
Q 2906 1113 2906 1747 
Q 2906 2381 2643 2742 
Q 2381 3103 1925 3103 
Q 1469 3103 1208 2742 
Q 947 2381 947 1747 
z
" transform="scale(0.015625)"/>
       <path id="DejaVuSans-65" d="M 3597 1894 
L 3597 1613 
L 953 1613 
Q 991 1019 1311 708 
Q 1631 397 2203 397 
Q 2534 397 2845 478 
Q 3156 559 3463 722 
L 3463 178 
Q 3153 47 2828 -22 
Q 2503 -91 2169 -91 
Q 1331 -91 842 396 
Q 353 884 353 1716 
Q 353 2575 817 3079 
Q 1281 3584 2069 3584 
Q 2775 3584 3186 3129 
Q 3597 2675 3597 1894 
z
M 3022 2063 
Q 3016 2534 2758 2815 
Q 2500 3097 2075 3097 
Q 1594 3097 1305 2825 
Q 1016 2553 972 2059 
L 3022 2063 
z
" transform="scale(0.015625)"/>
      </defs>
      <use xlink:href="#DejaVuSans-64"/>
      <use xlink:href="#DejaVuSans-65" transform="translate(63.476562 0)"/>
      <use xlink:href="#DejaVuSans-74" transform="translate(125 0)"/>
      <use xlink:href="#DejaVuSans-65" transform="translate(164.208984 0)"/>
      <use xlink:href="#DejaVuSans-63" transform="translate(225.732422 0)"/>
      <use xlink:href="#DejaVuSans-74" transform="translate(280.712891 0)"/>
      <use xlink:href="#DejaVuSans-6f" transform="translate(319.921875 0)"/>
      <use xlink:href="#DejaVuSans-72" transform="translate(381.103516 0)"/>
     </g>
    </g>
   </g>
  </g>
 </g>
 <defs>
  <clipPath id="p00fda08df0">
   <rect x="59.690625" y="7.2" width="334.8" height="221.76"/>
  </clipPath>
 </defs>
</svg>
