<?xml version="1.0" encoding="utf-8" standalone="no"?>
<!DOCTYPE svg PUBLIC "-//W3C//DTD SVG 1.1//EN"
  "http://www.w3.org/Graphics/SVG/1.1/DTD/svg11.dtd">
<svg xmlns:xlink="http://www.w3.org/1999/xlink" width="388.965625pt" height="266.794375pt" viewBox="0 0 388.965625 266.794375" xmlns="http://www.w3.org/2000/svg" version="1.1">
 <metadata>
  <rdf:RDF xmlns:dc="http://purl.org/dc/elements/1.1/" xmlns:cc="http://creativecommons.org/ns#" xmlns:rdf="http://www.w3.org/1999/02/22-rdf-syntax-ns#">
   <cc:Work>
    <dc:type rdf:resource="http://purl.org/dc/dcmitype/StillImage"/>
    <dc:date>2025-07-15T15:00:47.509698</dc:date>
    <dc:format>image/svg+xml</dc:format>
    <dc:creator>
     <cc:Agent>
      <dc:title>Matplotlib v3.10.3, https://matplotlib.org/</dc:title>
     </cc:Agent>
    </dc:creator>
   </cc:Work>
  </rdf:RDF>
 </metadata>
 <defs>
  <style type="text/css">*{stroke-linejoin: round; stroke-linecap: butt}</style>
 </defs>
 <g id="figure_1">
  <g id="patch_1">
   <path d="M 0 266.794375 
L 388.965625 266.794375 
L 388.965625 0 
L 0 0 
z
" style="fill: #ffffff"/>
  </g>
  <g id="axes_1">
   <g id="patch_2">
    <path d="M 46.965625 228.96 
L 381.765625 228.96 
L 381.765625 7.2 
L 46.965625 7.2 
z
" style="fill: #ffffff"/>
   </g>
   <g id="matplotlib.axis_1">
    <g id="xtick_1">
     <g id="line2d_1">
      <defs>
       <path id="m5a73d54d07" d="M 0 0 
L 0 3.5 
" style="stroke: #000000; stroke-width: 0.8"/>
      </defs>
      <g>
       <use xlink:href="#m5a73d54d07" x="62.183317" y="228.96" style="stroke: #000000; stroke-width: 0.8"/>
      </g>
     </g>
     <g id="text_1">
      <!-- 0 -->
      <g transform="translate(59.002067 243.558437) scale(0.1 -0.1)">
       <defs>
        <path id="DejaVuSans-30" d="M 2034 4250 
Q 1547 4250 1301 3770 
Q 1056 3291 1056 2328 
Q 1056 1369 1301 889 
Q 1547 409 2034 409 
Q 2525 409 2770 889 
Q 3016 1369 3016 2328 
Q 3016 3291 2770 3770 
Q 2525 4250 2034 4250 
z
M 2034 4750 
Q 2819 4750 3233 4129 
Q 3647 3509 3647 2328 
Q 3647 1150 3233 529 
Q 2819 -91 2034 -91 
Q 1250 -91 836 529 
Q 422 1150 422 2328 
Q 422 3509 836 4129 
Q 1250 4750 2034 4750 
z
" transform="scale(0.015625)"/>
       </defs>
       <use xlink:href="#DejaVuSans-30"/>
      </g>
     </g>
    </g>
    <g id="xtick_2">
     <g id="line2d_2">
      <g>
       <use xlink:href="#m5a73d54d07" x="104.794399" y="228.96" style="stroke: #000000; stroke-width: 0.8"/>
      </g>
     </g>
     <g id="text_2">
      <!-- 10000 -->
      <g transform="translate(88.888149 243.558437) scale(0.1 -0.1)">
       <defs>
        <path id="DejaVuSans-31" d="M 794 531 
L 1825 531 
L 1825 4091 
L 703 3866 
L 703 4441 
L 1819 4666 
L 2450 4666 
L 2450 531 
L 3481 531 
L 3481 0 
L 794 0 
L 794 531 
z
" transform="scale(0.015625)"/>
       </defs>
       <use xlink:href="#DejaVuSans-31"/>
       <use xlink:href="#DejaVuSans-30" transform="translate(63.623047 0)"/>
       <use xlink:href="#DejaVuSans-30" transform="translate(127.246094 0)"/>
       <use xlink:href="#DejaVuSans-30" transform="translate(190.869141 0)"/>
       <use xlink:href="#DejaVuSans-30" transform="translate(254.492188 0)"/>
      </g>
     </g>
    </g>
    <g id="xtick_3">
     <g id="line2d_3">
      <g>
       <use xlink:href="#m5a73d54d07" x="147.40548" y="228.96" style="stroke: #000000; stroke-width: 0.8"/>
      </g>
     </g>
     <g id="text_3">
      <!-- 20000 -->
      <g transform="translate(131.49923 243.558437) scale(0.1 -0.1)">
       <defs>
        <path id="DejaVuSans-32" d="M 1228 531 
L 3431 531 
L 3431 0 
L 469 0 
L 469 531 
Q 828 903 1448 1529 
Q 2069 2156 2228 2338 
Q 2531 2678 2651 2914 
Q 2772 3150 2772 3378 
Q 2772 3750 2511 3984 
Q 2250 4219 1831 4219 
Q 1534 4219 1204 4116 
Q 875 4013 500 3803 
L 500 4441 
Q 881 4594 1212 4672 
Q 1544 4750 1819 4750 
Q 2544 4750 2975 4387 
Q 3406 4025 3406 3419 
Q 3406 3131 3298 2873 
Q 3191 2616 2906 2266 
Q 2828 2175 2409 1742 
Q 1991 1309 1228 531 
z
" transform="scale(0.015625)"/>
       </defs>
       <use xlink:href="#DejaVuSans-32"/>
       <use xlink:href="#DejaVuSans-30" transform="translate(63.623047 0)"/>
       <use xlink:href="#DejaVuSans-30" transform="translate(127.246094 0)"/>
       <use xlink:href="#DejaVuSans-30" transform="translate(190.869141 0)"/>
       <use xlink:href="#DejaVuSans-30" transform="translate(254.492188 0)"/>
      </g>
     </g>
    </g>
    <g id="xtick_4">
     <g id="line2d_4">
      <g>
       <use xlink:href="#m5a73d54d07" x="190.016562" y="228.96" style="stroke: #000000; stroke-width: 0.8"/>
      </g>
     </g>
     <g id="text_4">
      <!-- 30000 -->
      <g transform="translate(174.110312 243.558437) scale(0.1 -0.1)">
       <defs>
        <path id="DejaVuSans-33" d="M 2597 2516 
Q 3050 2419 3304 2112 
Q 3559 1806 3559 1356 
Q 3559 666 3084 287 
Q 2609 -91 1734 -91 
Q 1441 -91 1130 -33 
Q 819 25 488 141 
L 488 750 
Q 750 597 1062 519 
Q 1375 441 1716 441 
Q 2309 441 2620 675 
Q 2931 909 2931 1356 
Q 2931 1769 2642 2001 
Q 2353 2234 1838 2234 
L 1294 2234 
L 1294 2753 
L 1863 2753 
Q 2328 2753 2575 2939 
Q 2822 3125 2822 3475 
Q 2822 3834 2567 4026 
Q 2313 4219 1838 4219 
Q 1578 4219 1281 4162 
Q 984 4106 628 3988 
L 628 4550 
Q 988 4650 1302 4700 
Q 1616 4750 1894 4750 
Q 2613 4750 3031 4423 
Q 3450 4097 3450 3541 
Q 3450 3153 3228 2886 
Q 3006 2619 2597 2516 
z
" transform="scale(0.015625)"/>
       </defs>
       <use xlink:href="#DejaVuSans-33"/>
       <use xlink:href="#DejaVuSans-30" transform="translate(63.623047 0)"/>
       <use xlink:href="#DejaVuSans-30" transform="translate(127.246094 0)"/>
       <use xlink:href="#DejaVuSans-30" transform="translate(190.869141 0)"/>
       <use xlink:href="#DejaVuSans-30" transform="translate(254.492188 0)"/>
      </g>
     </g>
    </g>
    <g id="xtick_5">
     <g id="line2d_5">
      <g>
       <use xlink:href="#m5a73d54d07" x="232.627643" y="228.96" style="stroke: #000000; stroke-width: 0.8"/>
      </g>
     </g>
     <g id="text_5">
      <!-- 40000 -->
      <g transform="translate(216.721393 243.558437) scale(0.1 -0.1)">
       <defs>
        <path id="DejaVuSans-34" d="M 2419 4116 
L 825 1625 
L 2419 1625 
L 2419 4116 
z
M 2253 4666 
L 3047 4666 
L 3047 1625 
L 3713 1625 
L 3713 1100 
L 3047 1100 
L 3047 0 
L 2419 0 
L 2419 1100 
L 313 1100 
L 313 1709 
L 2253 4666 
z
" transform="scale(0.015625)"/>
       </defs>
       <use xlink:href="#DejaVuSans-34"/>
       <use xlink:href="#DejaVuSans-30" transform="translate(63.623047 0)"/>
       <use xlink:href="#DejaVuSans-30" transform="translate(127.246094 0)"/>
       <use xlink:href="#DejaVuSans-30" transform="translate(190.869141 0)"/>
       <use xlink:href="#DejaVuSans-30" transform="translate(254.492188 0)"/>
      </g>
     </g>
    </g>
    <g id="xtick_6">
     <g id="line2d_6">
      <g>
       <use xlink:href="#m5a73d54d07" x="275.238724" y="228.96" style="stroke: #000000; stroke-width: 0.8"/>
      </g>
     </g>
     <g id="text_6">
      <!-- 50000 -->
      <g transform="translate(259.332474 243.558437) scale(0.1 -0.1)">
       <defs>
        <path id="DejaVuSans-35" d="M 691 4666 
L 3169 4666 
L 3169 4134 
L 1269 4134 
L 1269 2991 
Q 1406 3038 1543 3061 
Q 1681 3084 1819 3084 
Q 2600 3084 3056 2656 
Q 3513 2228 3513 1497 
Q 3513 744 3044 326 
Q 2575 -91 1722 -91 
Q 1428 -91 1123 -41 
Q 819 9 494 109 
L 494 744 
Q 775 591 1075 516 
Q 1375 441 1709 441 
Q 2250 441 2565 725 
Q 2881 1009 2881 1497 
Q 2881 1984 2565 2268 
Q 2250 2553 1709 2553 
Q 1456 2553 1204 2497 
Q 953 2441 691 2322 
L 691 4666 
z
" transform="scale(0.015625)"/>
       </defs>
       <use xlink:href="#DejaVuSans-35"/>
       <use xlink:href="#DejaVuSans-30" transform="translate(63.623047 0)"/>
       <use xlink:href="#DejaVuSans-30" transform="translate(127.246094 0)"/>
       <use xlink:href="#DejaVuSans-30" transform="translate(190.869141 0)"/>
       <use xlink:href="#DejaVuSans-30" transform="translate(254.492188 0)"/>
      </g>
     </g>
    </g>
    <g id="xtick_7">
     <g id="line2d_7">
      <g>
       <use xlink:href="#m5a73d54d07" x="317.849806" y="228.96" style="stroke: #000000; stroke-width: 0.8"/>
      </g>
     </g>
     <g id="text_7">
      <!-- 60000 -->
      <g transform="translate(301.943556 243.558437) scale(0.1 -0.1)">
       <defs>
        <path id="DejaVuSans-36" d="M 2113 2584 
Q 1688 2584 1439 2293 
Q 1191 2003 1191 1497 
Q 1191 994 1439 701 
Q 1688 409 2113 409 
Q 2538 409 2786 701 
Q 3034 994 3034 1497 
Q 3034 2003 2786 2293 
Q 2538 2584 2113 2584 
z
M 3366 4563 
L 3366 3988 
Q 3128 4100 2886 4159 
Q 2644 4219 2406 4219 
Q 1781 4219 1451 3797 
Q 1122 3375 1075 2522 
Q 1259 2794 1537 2939 
Q 1816 3084 2150 3084 
Q 2853 3084 3261 2657 
Q 3669 2231 3669 1497 
Q 3669 778 3244 343 
Q 2819 -91 2113 -91 
Q 1303 -91 875 529 
Q 447 1150 447 2328 
Q 447 3434 972 4092 
Q 1497 4750 2381 4750 
Q 2619 4750 2861 4703 
Q 3103 4656 3366 4563 
z
" transform="scale(0.015625)"/>
       </defs>
       <use xlink:href="#DejaVuSans-36"/>
       <use xlink:href="#DejaVuSans-30" transform="translate(63.623047 0)"/>
       <use xlink:href="#DejaVuSans-30" transform="translate(127.246094 0)"/>
       <use xlink:href="#DejaVuSans-30" transform="translate(190.869141 0)"/>
       <use xlink:href="#DejaVuSans-30" transform="translate(254.492188 0)"/>
      </g>
     </g>
    </g>
    <g id="xtick_8">
     <g id="line2d_8">
      <g>
       <use xlink:href="#m5a73d54d07" x="360.460887" y="228.96" style="stroke: #000000; stroke-width: 0.8"/>
      </g>
     </g>
     <g id="text_8">
      <!-- 70000 -->
      <g transform="translate(344.554637 243.558437) scale(0.1 -0.1)">
       <defs>
        <path id="DejaVuSans-37" d="M 525 4666 
L 3525 4666 
L 3525 4397 
L 1831 0 
L 1172 0 
L 2766 4134 
L 525 4134 
L 525 4666 
z
" transform="scale(0.015625)"/>
       </defs>
       <use xlink:href="#DejaVuSans-37"/>
       <use xlink:href="#DejaVuSans-30" transform="translate(63.623047 0)"/>
       <use xlink:href="#DejaVuSans-30" transform="translate(127.246094 0)"/>
       <use xlink:href="#DejaVuSans-30" transform="translate(190.869141 0)"/>
       <use xlink:href="#DejaVuSans-30" transform="translate(254.492188 0)"/>
      </g>
     </g>
    </g>
    <g id="text_9">
     <!-- event_time_offset [µs] -->
     <g transform="translate(158.330469 257.236562) scale(0.1 -0.1)">
      <defs>
       <path id="DejaVuSans-65" d="M 3597 1894 
L 3597 1613 
L 953 1613 
Q 991 1019 1311 708 
Q 1631 397 2203 397 
Q 2534 397 2845 478 
Q 3156 559 3463 722 
L 3463 178 
Q 3153 47 2828 -22 
Q 2503 -91 2169 -91 
Q 1331 -91 842 396 
Q 353 884 353 1716 
Q 353 2575 817 3079 
Q 1281 3584 2069 3584 
Q 2775 3584 3186 3129 
Q 3597 2675 3597 1894 
z
M 3022 2063 
Q 3016 2534 2758 2815 
Q 2500 3097 2075 3097 
Q 1594 3097 1305 2825 
Q 1016 2553 972 2059 
L 3022 2063 
z
" transform="scale(0.015625)"/>
       <path id="DejaVuSans-76" d="M 191 3500 
L 800 3500 
L 1894 563 
L 2988 3500 
L 3597 3500 
L 2284 0 
L 1503 0 
L 191 3500 
z
" transform="scale(0.015625)"/>
       <path id="DejaVuSans-6e" d="M 3513 2113 
L 3513 0 
L 2938 0 
L 2938 2094 
Q 2938 2591 2744 2837 
Q 2550 3084 2163 3084 
Q 1697 3084 1428 2787 
Q 1159 2491 1159 1978 
L 1159 0 
L 581 0 
L 581 3500 
L 1159 3500 
L 1159 2956 
Q 1366 3272 1645 3428 
Q 1925 3584 2291 3584 
Q 2894 3584 3203 3211 
Q 3513 2838 3513 2113 
z
" transform="scale(0.015625)"/>
       <path id="DejaVuSans-74" d="M 1172 4494 
L 1172 3500 
L 2356 3500 
L 2356 3053 
L 1172 3053 
L 1172 1153 
Q 1172 725 1289 603 
Q 1406 481 1766 481 
L 2356 481 
L 2356 0 
L 1766 0 
Q 1100 0 847 248 
Q 594 497 594 1153 
L 594 3053 
L 172 3053 
L 172 3500 
L 594 3500 
L 594 4494 
L 1172 4494 
z
" transform="scale(0.015625)"/>
       <path id="DejaVuSans-5f" d="M 3263 -1063 
L 3263 -1509 
L -63 -1509 
L -63 -1063 
L 3263 -1063 
z
" transform="scale(0.015625)"/>
       <path id="DejaVuSans-69" d="M 603 3500 
L 1178 3500 
L 1178 0 
L 603 0 
L 603 3500 
z
M 603 4863 
L 1178 4863 
L 1178 4134 
L 603 4134 
L 603 4863 
z
" transform="scale(0.015625)"/>
       <path id="DejaVuSans-6d" d="M 3328 2828 
Q 3544 3216 3844 3400 
Q 4144 3584 4550 3584 
Q 5097 3584 5394 3201 
Q 5691 2819 5691 2113 
L 5691 0 
L 5113 0 
L 5113 2094 
Q 5113 2597 4934 2840 
Q 4756 3084 4391 3084 
Q 3944 3084 3684 2787 
Q 3425 2491 3425 1978 
L 3425 0 
L 2847 0 
L 2847 2094 
Q 2847 2600 2669 2842 
Q 2491 3084 2119 3084 
Q 1678 3084 1418 2786 
Q 1159 2488 1159 1978 
L 1159 0 
L 581 0 
L 581 3500 
L 1159 3500 
L 1159 2956 
Q 1356 3278 1631 3431 
Q 1906 3584 2284 3584 
Q 2666 3584 2933 3390 
Q 3200 3197 3328 2828 
z
" transform="scale(0.015625)"/>
       <path id="DejaVuSans-6f" d="M 1959 3097 
Q 1497 3097 1228 2736 
Q 959 2375 959 1747 
Q 959 1119 1226 758 
Q 1494 397 1959 397 
Q 2419 397 2687 759 
Q 2956 1122 2956 1747 
Q 2956 2369 2687 2733 
Q 2419 3097 1959 3097 
z
M 1959 3584 
Q 2709 3584 3137 3096 
Q 3566 2609 3566 1747 
Q 3566 888 3137 398 
Q 2709 -91 1959 -91 
Q 1206 -91 779 398 
Q 353 888 353 1747 
Q 353 2609 779 3096 
Q 1206 3584 1959 3584 
z
" transform="scale(0.015625)"/>
       <path id="DejaVuSans-66" d="M 2375 4863 
L 2375 4384 
L 1825 4384 
Q 1516 4384 1395 4259 
Q 1275 4134 1275 3809 
L 1275 3500 
L 2222 3500 
L 2222 3053 
L 1275 3053 
L 1275 0 
L 697 0 
L 697 3053 
L 147 3053 
L 147 3500 
L 697 3500 
L 697 3744 
Q 697 4328 969 4595 
Q 1241 4863 1831 4863 
L 2375 4863 
z
" transform="scale(0.015625)"/>
       <path id="DejaVuSans-73" d="M 2834 3397 
L 2834 2853 
Q 2591 2978 2328 3040 
Q 2066 3103 1784 3103 
Q 1356 3103 1142 2972 
Q 928 2841 928 2578 
Q 928 2378 1081 2264 
Q 1234 2150 1697 2047 
L 1894 2003 
Q 2506 1872 2764 1633 
Q 3022 1394 3022 966 
Q 3022 478 2636 193 
Q 2250 -91 1575 -91 
Q 1294 -91 989 -36 
Q 684 19 347 128 
L 347 722 
Q 666 556 975 473 
Q 1284 391 1588 391 
Q 1994 391 2212 530 
Q 2431 669 2431 922 
Q 2431 1156 2273 1281 
Q 2116 1406 1581 1522 
L 1381 1569 
Q 847 1681 609 1914 
Q 372 2147 372 2553 
Q 372 3047 722 3315 
Q 1072 3584 1716 3584 
Q 2034 3584 2315 3537 
Q 2597 3491 2834 3397 
z
" transform="scale(0.015625)"/>
       <path id="DejaVuSans-20" transform="scale(0.015625)"/>
       <path id="DejaVuSans-5b" d="M 550 4863 
L 1875 4863 
L 1875 4416 
L 1125 4416 
L 1125 -397 
L 1875 -397 
L 1875 -844 
L 550 -844 
L 550 4863 
z
" transform="scale(0.015625)"/>
       <path id="DejaVuSans-b5" d="M 544 -1331 
L 544 3500 
L 1119 3500 
L 1119 1325 
Q 1119 872 1334 640 
Q 1550 409 1972 409 
Q 2434 409 2667 671 
Q 2900 934 2900 1459 
L 2900 3500 
L 3475 3500 
L 3475 806 
Q 3475 619 3529 530 
Q 3584 441 3700 441 
Q 3728 441 3778 458 
Q 3828 475 3916 513 
L 3916 50 
Q 3788 -22 3673 -56 
Q 3559 -91 3450 -91 
Q 3234 -91 3106 31 
Q 2978 153 2931 403 
Q 2775 156 2548 32 
Q 2322 -91 2016 -91 
Q 1697 -91 1473 31 
Q 1250 153 1119 397 
L 1119 -1331 
L 544 -1331 
z
" transform="scale(0.015625)"/>
       <path id="DejaVuSans-5d" d="M 1947 4863 
L 1947 -844 
L 622 -844 
L 622 -397 
L 1369 -397 
L 1369 4416 
L 622 4416 
L 622 4863 
L 1947 4863 
z
" transform="scale(0.015625)"/>
      </defs>
      <use xlink:href="#DejaVuSans-65"/>
      <use xlink:href="#DejaVuSans-76" transform="translate(61.523438 0)"/>
      <use xlink:href="#DejaVuSans-65" transform="translate(120.703125 0)"/>
      <use xlink:href="#DejaVuSans-6e" transform="translate(182.226562 0)"/>
      <use xlink:href="#DejaVuSans-74" transform="translate(245.605469 0)"/>
      <use xlink:href="#DejaVuSans-5f" transform="translate(284.814453 0)"/>
      <use xlink:href="#DejaVuSans-74" transform="translate(334.814453 0)"/>
      <use xlink:href="#DejaVuSans-69" transform="translate(374.023438 0)"/>
      <use xlink:href="#DejaVuSans-6d" transform="translate(401.806641 0)"/>
      <use xlink:href="#DejaVuSans-65" transform="translate(499.21875 0)"/>
      <use xlink:href="#DejaVuSans-5f" transform="translate(560.742188 0)"/>
      <use xlink:href="#DejaVuSans-6f" transform="translate(610.742188 0)"/>
      <use xlink:href="#DejaVuSans-66" transform="translate(671.923828 0)"/>
      <use xlink:href="#DejaVuSans-66" transform="translate(707.128906 0)"/>
      <use xlink:href="#DejaVuSans-73" transform="translate(742.333984 0)"/>
      <use xlink:href="#DejaVuSans-65" transform="translate(794.433594 0)"/>
      <use xlink:href="#DejaVuSans-74" transform="translate(855.957031 0)"/>
      <use xlink:href="#DejaVuSans-20" transform="translate(895.166016 0)"/>
      <use xlink:href="#DejaVuSans-5b" transform="translate(926.953125 0)"/>
      <use xlink:href="#DejaVuSans-b5" transform="translate(965.966797 0)"/>
      <use xlink:href="#DejaVuSans-73" transform="translate(1029.589844 0)"/>
      <use xlink:href="#DejaVuSans-5d" transform="translate(1081.689453 0)"/>
     </g>
    </g>
   </g>
   <g id="matplotlib.axis_2">
    <g id="ytick_1">
     <g id="line2d_9">
      <defs>
       <path id="m0c509ff660" d="M 0 0 
L -3.5 0 
" style="stroke: #000000; stroke-width: 0.8"/>
      </defs>
      <g>
       <use xlink:href="#m0c509ff660" x="46.965625" y="218.88" style="stroke: #000000; stroke-width: 0.8"/>
      </g>
     </g>
     <g id="text_10">
      <!-- 0 -->
      <g transform="translate(33.603125 222.679219) scale(0.1 -0.1)">
       <use xlink:href="#DejaVuSans-30"/>
      </g>
     </g>
    </g>
    <g id="ytick_2">
     <g id="line2d_10">
      <g>
       <use xlink:href="#m0c509ff660" x="46.965625" y="185.054497" style="stroke: #000000; stroke-width: 0.8"/>
      </g>
     </g>
     <g id="text_11">
      <!-- 100 -->
      <g transform="translate(20.878125 188.853715) scale(0.1 -0.1)">
       <use xlink:href="#DejaVuSans-31"/>
       <use xlink:href="#DejaVuSans-30" transform="translate(63.623047 0)"/>
       <use xlink:href="#DejaVuSans-30" transform="translate(127.246094 0)"/>
      </g>
     </g>
    </g>
    <g id="ytick_3">
     <g id="line2d_11">
      <g>
       <use xlink:href="#m0c509ff660" x="46.965625" y="151.228993" style="stroke: #000000; stroke-width: 0.8"/>
      </g>
     </g>
     <g id="text_12">
      <!-- 200 -->
      <g transform="translate(20.878125 155.028212) scale(0.1 -0.1)">
       <use xlink:href="#DejaVuSans-32"/>
       <use xlink:href="#DejaVuSans-30" transform="translate(63.623047 0)"/>
       <use xlink:href="#DejaVuSans-30" transform="translate(127.246094 0)"/>
      </g>
     </g>
    </g>
    <g id="ytick_4">
     <g id="line2d_12">
      <g>
       <use xlink:href="#m0c509ff660" x="46.965625" y="117.40349" style="stroke: #000000; stroke-width: 0.8"/>
      </g>
     </g>
     <g id="text_13">
      <!-- 300 -->
      <g transform="translate(20.878125 121.202709) scale(0.1 -0.1)">
       <use xlink:href="#DejaVuSans-33"/>
       <use xlink:href="#DejaVuSans-30" transform="translate(63.623047 0)"/>
       <use xlink:href="#DejaVuSans-30" transform="translate(127.246094 0)"/>
      </g>
     </g>
    </g>
    <g id="ytick_5">
     <g id="line2d_13">
      <g>
       <use xlink:href="#m0c509ff660" x="46.965625" y="83.577987" style="stroke: #000000; stroke-width: 0.8"/>
      </g>
     </g>
     <g id="text_14">
      <!-- 400 -->
      <g transform="translate(20.878125 87.377205) scale(0.1 -0.1)">
       <use xlink:href="#DejaVuSans-34"/>
       <use xlink:href="#DejaVuSans-30" transform="translate(63.623047 0)"/>
       <use xlink:href="#DejaVuSans-30" transform="translate(127.246094 0)"/>
      </g>
     </g>
    </g>
    <g id="ytick_6">
     <g id="line2d_14">
      <g>
       <use xlink:href="#m0c509ff660" x="46.965625" y="49.752483" style="stroke: #000000; stroke-width: 0.8"/>
      </g>
     </g>
     <g id="text_15">
      <!-- 500 -->
      <g transform="translate(20.878125 53.551702) scale(0.1 -0.1)">
       <use xlink:href="#DejaVuSans-35"/>
       <use xlink:href="#DejaVuSans-30" transform="translate(63.623047 0)"/>
       <use xlink:href="#DejaVuSans-30" transform="translate(127.246094 0)"/>
      </g>
     </g>
    </g>
    <g id="ytick_7">
     <g id="line2d_15">
      <g>
       <use xlink:href="#m0c509ff660" x="46.965625" y="15.92698" style="stroke: #000000; stroke-width: 0.8"/>
      </g>
     </g>
     <g id="text_16">
      <!-- 600 -->
      <g transform="translate(20.878125 19.726199) scale(0.1 -0.1)">
       <use xlink:href="#DejaVuSans-36"/>
       <use xlink:href="#DejaVuSans-30" transform="translate(63.623047 0)"/>
       <use xlink:href="#DejaVuSans-30" transform="translate(127.246094 0)"/>
      </g>
     </g>
    </g>
    <g id="text_17">
     <!-- [counts] -->
     <g transform="translate(14.798438 138.6925) rotate(-90) scale(0.1 -0.1)">
      <defs>
       <path id="DejaVuSans-63" d="M 3122 3366 
L 3122 2828 
Q 2878 2963 2633 3030 
Q 2388 3097 2138 3097 
Q 1578 3097 1268 2742 
Q 959 2388 959 1747 
Q 959 1106 1268 751 
Q 1578 397 2138 397 
Q 2388 397 2633 464 
Q 2878 531 3122 666 
L 3122 134 
Q 2881 22 2623 -34 
Q 2366 -91 2075 -91 
Q 1284 -91 818 406 
Q 353 903 353 1747 
Q 353 2603 823 3093 
Q 1294 3584 2113 3584 
Q 2378 3584 2631 3529 
Q 2884 3475 3122 3366 
z
" transform="scale(0.015625)"/>
       <path id="DejaVuSans-75" d="M 544 1381 
L 544 3500 
L 1119 3500 
L 1119 1403 
Q 1119 906 1312 657 
Q 1506 409 1894 409 
Q 2359 409 2629 706 
Q 2900 1003 2900 1516 
L 2900 3500 
L 3475 3500 
L 3475 0 
L 2900 0 
L 2900 538 
Q 2691 219 2414 64 
Q 2138 -91 1772 -91 
Q 1169 -91 856 284 
Q 544 659 544 1381 
z
M 1991 3584 
L 1991 3584 
z
" transform="scale(0.015625)"/>
      </defs>
      <use xlink:href="#DejaVuSans-5b"/>
      <use xlink:href="#DejaVuSans-63" transform="translate(39.013672 0)"/>
      <use xlink:href="#DejaVuSans-6f" transform="translate(93.994141 0)"/>
      <use xlink:href="#DejaVuSans-75" transform="translate(155.175781 0)"/>
      <use xlink:href="#DejaVuSans-6e" transform="translate(218.554688 0)"/>
      <use xlink:href="#DejaVuSans-74" transform="translate(281.933594 0)"/>
      <use xlink:href="#DejaVuSans-73" transform="translate(321.142578 0)"/>
      <use xlink:href="#DejaVuSans-5d" transform="translate(373.242188 0)"/>
     </g>
    </g>
   </g>
   <g id="line2d_16">
    <path d="M 62.183807 122.477315 
L 63.198352 122.477315 
L 63.198352 128.565906 
L 64.212898 128.565906 
L 64.212898 122.13906 
L 65.227443 122.13906 
L 65.227443 123.492081 
L 66.241989 123.492081 
L 66.241989 125.521611 
L 67.256534 125.521611 
L 67.256534 115.712215 
L 68.27108 115.712215 
L 68.27108 138.713557 
L 69.285625 138.713557 
L 69.285625 136.684027 
L 70.30017 136.684027 
L 70.30017 129.242416 
L 71.314716 129.242416 
L 71.314716 136.345772 
L 72.329261 136.345772 
L 72.329261 133.977987 
L 73.343807 133.977987 
L 73.343807 138.713557 
L 74.358352 138.713557 
L 74.358352 132.286711 
L 75.372898 132.286711 
L 75.372898 132.624966 
L 76.387443 132.624966 
L 76.387443 141.757852 
L 77.401989 141.757852 
L 77.401989 145.478658 
L 78.416534 145.478658 
L 78.416534 137.022282 
L 79.43108 137.022282 
L 79.43108 148.861208 
L 80.445625 148.861208 
L 80.445625 147.508188 
L 81.46017 147.508188 
L 81.46017 142.434362 
L 82.474716 142.434362 
L 82.474716 149.537718 
L 83.489261 149.537718 
L 83.489261 160.361879 
L 84.503807 160.361879 
L 84.503807 147.508188 
L 85.518352 147.508188 
L 85.518352 155.288054 
L 86.532898 155.288054 
L 86.532898 147.169933 
L 87.547443 147.169933 
L 87.547443 141.081342 
L 88.561989 141.081342 
L 88.561989 152.582013 
L 89.576534 152.582013 
L 89.576534 155.288054 
L 90.59108 155.288054 
L 90.59108 154.273289 
L 91.605625 154.273289 
L 91.605625 157.655839 
L 92.62017 157.655839 
L 92.62017 160.361879 
L 93.634716 160.361879 
L 93.634716 158.332349 
L 94.649261 158.332349 
L 94.649261 163.406174 
L 95.663807 163.406174 
L 95.663807 171.86255 
L 96.678352 171.86255 
L 96.678352 160.361879 
L 97.692898 160.361879 
L 97.692898 161.038389 
L 98.707443 161.038389 
L 98.707443 171.18604 
L 99.721989 171.18604 
L 99.721989 168.141745 
L 100.736534 168.141745 
L 100.736534 170.847785 
L 101.75108 170.847785 
L 101.75108 175.245101 
L 102.765625 175.245101 
L 102.765625 171.86255 
L 103.78017 171.86255 
L 103.78017 176.259866 
L 104.794716 176.259866 
L 104.794716 181.671946 
L 105.809261 181.671946 
L 105.809261 180.995436 
L 106.823807 180.995436 
L 106.823807 184.377987 
L 107.838352 184.377987 
L 107.838352 182.686711 
L 108.852898 182.686711 
L 108.852898 190.128322 
L 109.867443 190.128322 
L 109.867443 192.496107 
L 110.881989 192.496107 
L 110.881989 194.525638 
L 111.896534 194.525638 
L 111.896534 191.481342 
L 112.91108 191.481342 
L 112.91108 192.496107 
L 113.925625 192.496107 
L 113.925625 196.216913 
L 114.94017 196.216913 
L 114.94017 195.878658 
L 115.954716 195.878658 
L 115.954716 199.599463 
L 116.969261 199.599463 
L 116.969261 203.658523 
L 117.983807 203.658523 
L 117.983807 205.349799 
L 118.998352 205.349799 
L 118.998352 207.379329 
L 121.027443 207.379329 
L 121.027443 210.423624 
L 122.041989 210.423624 
L 122.041989 208.394094 
L 123.056534 208.394094 
L 123.056534 208.732349 
L 124.07108 208.732349 
L 124.07108 210.085369 
L 125.085625 210.085369 
L 125.085625 213.467919 
L 126.10017 213.467919 
L 126.10017 214.482685 
L 127.114716 214.482685 
L 127.114716 215.835705 
L 129.143807 215.835705 
L 129.143807 215.49745 
L 130.158352 215.49745 
L 130.158352 216.17396 
L 131.172898 216.17396 
L 131.172898 218.20349 
L 132.187443 218.20349 
L 132.187443 218.541745 
L 133.201989 218.541745 
L 133.201989 218.20349 
L 134.216534 218.20349 
L 134.216534 218.541745 
L 135.23108 218.541745 
L 135.23108 218.88 
L 149.434716 218.88 
L 149.434716 214.82094 
L 150.449261 214.82094 
L 150.449261 212.791409 
L 151.463807 212.791409 
L 151.463807 207.041074 
L 152.478352 207.041074 
L 152.478352 201.290738 
L 153.492898 201.290738 
L 153.492898 194.863893 
L 154.507443 194.863893 
L 154.507443 190.466577 
L 155.521989 190.466577 
L 155.521989 180.318926 
L 156.536534 180.318926 
L 156.536534 183.024966 
L 157.55108 183.024966 
L 157.55108 170.50953 
L 158.565625 170.50953 
L 158.565625 168.141745 
L 159.58017 168.141745 
L 159.58017 169.15651 
L 160.594716 169.15651 
L 160.594716 163.406174 
L 161.609261 163.406174 
L 161.609261 155.288054 
L 162.623807 155.288054 
L 162.623807 152.582013 
L 163.638352 152.582013 
L 163.638352 127.551141 
L 164.652898 127.551141 
L 164.652898 143.110872 
L 165.667443 143.110872 
L 165.667443 133.301477 
L 166.681989 133.301477 
L 166.681989 122.81557 
L 167.696534 122.81557 
L 167.696534 128.904161 
L 168.71108 128.904161 
L 168.71108 104.549799 
L 169.725625 104.549799 
L 169.725625 107.594094 
L 170.74017 107.594094 
L 170.74017 106.917584 
L 171.754716 106.917584 
L 171.754716 105.902819 
L 172.769261 105.902819 
L 172.769261 97.108188 
L 173.783807 97.108188 
L 173.783807 93.387383 
L 174.798352 93.387383 
L 174.798352 94.740403 
L 175.812898 94.740403 
L 175.812898 78.165906 
L 177.841989 78.165906 
L 177.841989 65.988725 
L 178.856534 65.988725 
L 178.856534 80.871946 
L 179.87108 80.871946 
L 179.87108 61.591409 
L 180.885625 61.591409 
L 180.885625 67.00349 
L 181.90017 67.00349 
L 181.90017 58.208859 
L 182.914716 58.208859 
L 182.914716 66.32698 
L 183.929261 66.32698 
L 183.929261 61.591409 
L 184.943807 61.591409 
L 184.943807 68.35651 
L 185.958352 68.35651 
L 185.958352 57.194094 
L 186.972898 57.194094 
L 186.972898 72.077315 
L 187.987443 72.077315 
L 187.987443 48.399463 
L 189.001989 48.399463 
L 189.001989 49.752483 
L 190.016534 49.752483 
L 190.016534 37.913557 
L 192.045625 37.913557 
L 192.045625 25.059866 
L 193.06017 25.059866 
L 193.06017 33.177987 
L 194.074716 33.177987 
L 194.074716 25.736376 
L 195.089261 25.736376 
L 195.089261 30.133691 
L 196.103807 30.133691 
L 196.103807 25.398121 
L 197.118352 25.398121 
L 197.118352 38.251812 
L 198.132898 38.251812 
L 198.132898 50.428993 
L 199.147443 50.428993 
L 199.147443 57.532349 
L 200.161989 57.532349 
L 200.161989 40.281342 
L 201.176534 40.281342 
L 201.176534 38.928322 
L 202.19108 38.928322 
L 202.19108 52.120268 
L 203.205625 52.120268 
L 203.205625 50.767248 
L 204.22017 50.767248 
L 204.22017 45.693423 
L 205.234716 45.693423 
L 205.234716 38.590067 
L 206.249261 38.590067 
L 206.249261 58.208859 
L 207.263807 58.208859 
L 207.263807 67.00349 
L 208.278352 67.00349 
L 208.278352 73.092081 
L 209.292898 73.092081 
L 209.292898 74.106846 
L 210.307443 74.106846 
L 210.307443 46.708188 
L 211.321989 46.708188 
L 211.321989 70.047785 
L 212.336534 70.047785 
L 212.336534 71.73906 
L 213.35108 71.73906 
L 213.35108 71.06255 
L 214.365625 71.06255 
L 214.365625 59.223624 
L 215.38017 59.223624 
L 215.38017 73.092081 
L 216.394716 73.092081 
L 216.394716 74.106846 
L 217.409261 74.106846 
L 217.409261 71.400805 
L 218.423807 71.400805 
L 218.423807 72.41557 
L 219.438352 72.41557 
L 219.438352 71.06255 
L 220.452898 71.06255 
L 220.452898 57.532349 
L 221.467443 57.532349 
L 221.467443 75.459866 
L 222.481989 75.459866 
L 222.481989 62.606174 
L 223.496534 62.606174 
L 223.496534 75.121611 
L 224.51108 75.121611 
L 224.51108 80.871946 
L 225.525625 80.871946 
L 225.525625 62.267919 
L 226.54017 62.267919 
L 226.54017 76.474631 
L 227.554716 76.474631 
L 227.554716 75.121611 
L 228.569261 75.121611 
L 228.569261 73.430336 
L 229.583807 73.430336 
L 229.583807 91.696107 
L 230.598352 91.696107 
L 230.598352 74.445101 
L 231.612898 74.445101 
L 231.612898 86.960537 
L 232.627443 86.960537 
L 232.627443 78.165906 
L 233.641989 78.165906 
L 233.641989 80.871946 
L 234.656534 80.871946 
L 234.656534 80.195436 
L 235.67108 80.195436 
L 235.67108 73.768591 
L 236.685625 73.768591 
L 236.685625 71.06255 
L 237.70017 71.06255 
L 237.70017 91.357852 
L 238.714716 91.357852 
L 238.714716 84.931007 
L 239.729261 84.931007 
L 239.729261 72.077315 
L 240.743807 72.077315 
L 240.743807 73.768591 
L 241.758352 73.768591 
L 241.758352 75.459866 
L 242.772898 75.459866 
L 242.772898 81.210201 
L 243.787443 81.210201 
L 243.787443 81.548456 
L 244.801989 81.548456 
L 244.801989 77.151141 
L 245.816534 77.151141 
L 245.816534 78.504161 
L 246.83108 78.504161 
L 246.83108 100.152483 
L 247.845625 100.152483 
L 247.845625 78.165906 
L 248.86017 78.165906 
L 248.86017 78.842416 
L 249.874716 78.842416 
L 249.874716 80.533691 
L 250.889261 80.533691 
L 250.889261 92.372617 
L 251.903807 92.372617 
L 251.903807 110.976644 
L 252.918352 110.976644 
L 252.918352 89.666577 
L 253.932898 89.666577 
L 253.932898 93.725638 
L 254.947443 93.725638 
L 254.947443 98.461208 
L 255.961989 98.461208 
L 255.961989 107.594094 
L 256.976534 107.594094 
L 256.976534 115.035705 
L 257.99108 115.035705 
L 257.99108 103.535034 
L 259.005625 103.535034 
L 259.005625 121.124295 
L 260.02017 121.124295 
L 260.02017 120.10953 
L 261.034716 120.10953 
L 261.034716 128.904161 
L 262.049261 128.904161 
L 262.049261 128.565906 
L 263.063807 128.565906 
L 263.063807 135.331007 
L 264.078352 135.331007 
L 264.078352 136.007517 
L 265.092898 136.007517 
L 265.092898 145.816913 
L 266.107443 145.816913 
L 266.107443 150.890738 
L 267.121989 150.890738 
L 267.121989 151.905503 
L 268.136534 151.905503 
L 268.136534 161.376644 
L 269.15108 161.376644 
L 269.15108 166.45047 
L 270.165625 166.45047 
L 270.165625 169.494765 
L 271.18017 169.494765 
L 271.18017 174.906846 
L 272.194716 174.906846 
L 272.194716 179.642416 
L 273.209261 179.642416 
L 273.209261 190.128322 
L 274.223807 190.128322 
L 274.223807 186.069262 
L 275.238352 186.069262 
L 275.238352 192.834362 
L 276.252898 192.834362 
L 276.252898 195.202148 
L 277.267443 195.202148 
L 277.267443 199.261208 
L 278.281989 199.261208 
L 278.281989 203.996779 
L 279.296534 203.996779 
L 279.296534 205.349799 
L 280.31108 205.349799 
L 280.31108 206.364564 
L 281.325625 206.364564 
L 281.325625 209.070604 
L 282.34017 209.070604 
L 282.34017 213.129664 
L 283.354716 213.129664 
L 283.354716 212.453154 
L 284.369261 212.453154 
L 284.369261 216.17396 
L 285.383807 216.17396 
L 285.383807 217.188725 
L 286.398352 217.188725 
L 286.398352 218.20349 
L 287.412898 218.20349 
L 287.412898 218.541745 
L 288.427443 218.541745 
L 288.427443 218.88 
L 298.572898 218.88 
L 298.572898 215.49745 
L 299.587443 215.49745 
L 299.587443 210.085369 
L 300.601989 210.085369 
L 300.601989 206.026309 
L 301.616534 206.026309 
L 301.616534 203.658523 
L 302.63108 203.658523 
L 302.63108 201.967248 
L 303.645625 201.967248 
L 303.645625 193.172617 
L 304.66017 193.172617 
L 304.66017 184.039732 
L 305.674716 184.039732 
L 305.674716 183.363221 
L 306.689261 183.363221 
L 306.689261 183.024966 
L 307.703807 183.024966 
L 307.703807 174.568591 
L 308.718352 174.568591 
L 308.718352 170.50953 
L 309.732898 170.50953 
L 309.732898 166.45047 
L 310.747443 166.45047 
L 310.747443 162.729664 
L 311.761989 162.729664 
L 311.761989 166.788725 
L 312.776534 166.788725 
L 312.776534 156.641074 
L 313.79108 156.641074 
L 313.79108 152.582013 
L 314.805625 152.582013 
L 314.805625 146.493423 
L 315.82017 146.493423 
L 315.82017 156.302819 
L 316.834716 156.302819 
L 316.834716 149.537718 
L 317.849261 149.537718 
L 317.849261 148.184698 
L 318.863807 148.184698 
L 318.863807 139.051812 
L 319.878352 139.051812 
L 319.878352 131.948456 
L 320.892898 131.948456 
L 320.892898 135.669262 
L 321.907443 135.669262 
L 321.907443 130.257181 
L 322.921989 130.257181 
L 322.921989 129.580671 
L 323.936534 129.580671 
L 323.936534 135.331007 
L 324.95108 135.331007 
L 324.95108 116.05047 
L 325.965625 116.05047 
L 325.965625 123.492081 
L 326.98017 123.492081 
L 326.98017 116.72698 
L 327.994716 116.72698 
L 327.994716 110.638389 
L 329.009261 110.638389 
L 329.009261 127.212886 
L 330.023807 127.212886 
L 330.023807 118.08 
L 331.038352 118.08 
L 331.038352 109.623624 
L 332.052898 109.623624 
L 332.052898 105.902819 
L 333.067443 105.902819 
L 333.067443 112.329664 
L 334.081989 112.329664 
L 334.081989 101.167248 
L 335.096534 101.167248 
L 335.096534 105.564564 
L 337.125625 105.564564 
L 337.125625 103.873289 
L 338.14017 103.873289 
L 338.14017 98.122953 
L 339.154716 98.122953 
L 339.154716 89.328322 
L 341.183807 89.328322 
L 341.183807 91.696107 
L 342.198352 91.696107 
L 342.198352 95.755168 
L 343.212898 95.755168 
L 343.212898 98.799463 
L 344.227443 98.799463 
L 344.227443 99.137718 
L 345.241989 99.137718 
L 345.241989 100.490738 
L 346.256534 100.490738 
L 346.256534 98.799463 
L 347.27108 98.799463 
L 347.27108 92.372617 
L 348.285625 92.372617 
L 348.285625 111.991409 
L 349.30017 111.991409 
L 349.30017 100.152483 
L 350.314716 100.152483 
L 350.314716 94.402148 
L 351.329261 94.402148 
L 351.329261 104.549799 
L 352.343807 104.549799 
L 352.343807 118.08 
L 353.358352 118.08 
L 353.358352 111.653154 
L 354.372898 111.653154 
L 354.372898 119.094765 
L 355.387443 119.094765 
L 355.387443 106.241074 
L 356.401989 106.241074 
L 356.401989 111.653154 
L 357.416534 111.653154 
L 357.416534 107.594094 
L 358.43108 107.594094 
L 358.43108 123.492081 
L 359.445625 123.492081 
L 359.445625 106.579329 
L 360.46017 106.579329 
L 360.46017 101.505503 
L 361.474716 101.505503 
L 361.474716 112.667919 
L 362.489261 112.667919 
L 362.489261 121.124295 
L 364.518352 121.124295 
L 364.518352 118.418255 
L 365.532898 118.418255 
L 365.532898 120.447785 
L 366.547443 120.447785 
L 366.547443 120.447785 
" clip-path="url(#p1430e85ee6)" style="fill: none; stroke: #1f77b4; stroke-width: 1.5; stroke-linecap: square"/>
   </g>
   <g id="line2d_17">
    <path d="M 62.183807 133.977987 
L 63.198352 133.977987 
L 63.198352 132.286711 
L 64.212898 132.286711 
L 64.212898 127.889396 
L 65.227443 127.889396 
L 65.227443 138.375302 
L 66.241989 138.375302 
L 66.241989 133.639732 
L 67.256534 133.639732 
L 67.256534 134.654497 
L 68.27108 134.654497 
L 68.27108 125.859866 
L 69.285625 125.859866 
L 69.285625 137.360537 
L 70.30017 137.360537 
L 70.30017 145.140403 
L 71.314716 145.140403 
L 71.314716 134.992752 
L 72.329261 134.992752 
L 72.329261 148.184698 
L 73.343807 148.184698 
L 73.343807 144.125638 
L 74.358352 144.125638 
L 74.358352 143.449128 
L 75.372898 143.449128 
L 75.372898 145.816913 
L 76.387443 145.816913 
L 76.387443 153.935034 
L 77.401989 153.935034 
L 77.401989 147.508188 
L 78.416534 147.508188 
L 78.416534 152.582013 
L 79.43108 152.582013 
L 79.43108 148.522953 
L 80.445625 148.522953 
L 80.445625 142.096107 
L 81.46017 142.096107 
L 81.46017 147.169933 
L 82.474716 147.169933 
L 82.474716 153.596779 
L 83.489261 153.596779 
L 83.489261 152.243758 
L 84.503807 152.243758 
L 84.503807 157.317584 
L 85.518352 157.317584 
L 85.518352 159.008859 
L 86.532898 159.008859 
L 86.532898 157.317584 
L 87.547443 157.317584 
L 87.547443 162.729664 
L 88.561989 162.729664 
L 88.561989 172.200805 
L 89.576534 172.200805 
L 89.576534 154.611544 
L 90.59108 154.611544 
L 90.59108 162.391409 
L 91.605625 162.391409 
L 91.605625 167.80349 
L 92.62017 167.80349 
L 92.62017 172.200805 
L 93.634716 172.200805 
L 93.634716 168.818255 
L 94.649261 168.818255 
L 94.649261 170.50953 
L 95.663807 170.50953 
L 95.663807 174.906846 
L 96.678352 174.906846 
L 96.678352 177.274631 
L 97.692898 177.274631 
L 97.692898 180.318926 
L 98.707443 180.318926 
L 98.707443 181.671946 
L 99.721989 181.671946 
L 99.721989 183.024966 
L 100.736534 183.024966 
L 100.736534 182.686711 
L 101.75108 182.686711 
L 101.75108 190.128322 
L 102.765625 190.128322 
L 102.765625 194.863893 
L 103.78017 194.863893 
L 103.78017 193.510872 
L 104.794716 193.510872 
L 104.794716 191.143087 
L 105.809261 191.143087 
L 105.809261 192.496107 
L 106.823807 192.496107 
L 106.823807 197.569933 
L 107.838352 197.569933 
L 107.838352 195.540403 
L 108.852898 195.540403 
L 108.852898 203.320268 
L 109.867443 203.320268 
L 109.867443 203.996779 
L 110.881989 203.996779 
L 110.881989 206.702819 
L 111.896534 206.702819 
L 111.896534 207.379329 
L 112.91108 207.379329 
L 112.91108 207.717584 
L 113.925625 207.717584 
L 113.925625 209.070604 
L 114.94017 209.070604 
L 114.94017 209.408859 
L 115.954716 209.408859 
L 115.954716 208.394094 
L 116.969261 208.394094 
L 116.969261 212.453154 
L 117.983807 212.453154 
L 117.983807 215.835705 
L 118.998352 215.835705 
L 118.998352 214.82094 
L 120.012898 214.82094 
L 120.012898 215.49745 
L 122.041989 215.49745 
L 122.041989 216.17396 
L 123.056534 216.17396 
L 123.056534 218.20349 
L 124.07108 218.20349 
L 124.07108 218.541745 
L 125.085625 218.541745 
L 125.085625 218.20349 
L 126.10017 218.20349 
L 126.10017 218.541745 
L 127.114716 218.541745 
L 127.114716 218.88 
L 147.405625 218.88 
L 147.405625 217.52698 
L 148.42017 217.52698 
L 148.42017 213.129664 
L 149.434716 213.129664 
L 149.434716 208.394094 
L 150.449261 208.394094 
L 150.449261 203.320268 
L 151.463807 203.320268 
L 151.463807 194.863893 
L 152.478352 194.863893 
L 152.478352 193.172617 
L 153.492898 193.172617 
L 153.492898 181.671946 
L 155.521989 181.671946 
L 155.521989 170.171275 
L 156.536534 170.171275 
L 156.536534 168.141745 
L 158.565625 168.141745 
L 158.565625 162.053154 
L 159.58017 162.053154 
L 159.58017 153.258523 
L 161.609261 153.258523 
L 161.609261 127.212886 
L 162.623807 127.212886 
L 162.623807 139.390067 
L 163.638352 139.390067 
L 163.638352 132.286711 
L 164.652898 132.286711 
L 164.652898 120.10953 
L 165.667443 120.10953 
L 165.667443 123.492081 
L 166.681989 123.492081 
L 166.681989 104.211544 
L 167.696534 104.211544 
L 167.696534 105.902819 
L 168.71108 105.902819 
L 168.71108 102.520268 
L 169.725625 102.520268 
L 169.725625 101.843758 
L 170.74017 101.843758 
L 170.74017 91.019597 
L 171.754716 91.019597 
L 171.754716 94.402148 
L 172.769261 94.402148 
L 172.769261 89.666577 
L 173.783807 89.666577 
L 173.783807 73.092081 
L 174.798352 73.092081 
L 174.798352 68.35651 
L 175.812898 68.35651 
L 175.812898 60.914899 
L 176.827443 60.914899 
L 176.827443 76.474631 
L 177.841989 76.474631 
L 177.841989 63.282685 
L 178.856534 63.282685 
L 178.856534 58.885369 
L 179.87108 58.885369 
L 179.87108 59.900134 
L 180.885625 59.900134 
L 180.885625 54.826309 
L 181.90017 54.826309 
L 181.90017 62.606174 
L 182.914716 62.606174 
L 182.914716 59.561879 
L 183.929261 59.561879 
L 183.929261 60.238389 
L 184.943807 60.238389 
L 184.943807 58.885369 
L 185.958352 58.885369 
L 185.958352 50.767248 
L 186.972898 50.767248 
L 186.972898 23.030336 
L 187.987443 23.030336 
L 187.987443 44.678658 
L 189.001989 44.678658 
L 189.001989 26.412886 
L 190.016534 26.412886 
L 190.016534 17.28 
L 191.03108 17.28 
L 191.03108 31.486711 
L 192.045625 31.486711 
L 192.045625 21.677315 
L 193.06017 21.677315 
L 193.06017 23.706846 
L 194.074716 23.706846 
L 194.074716 30.133691 
L 195.089261 30.133691 
L 195.089261 40.281342 
L 196.103807 40.281342 
L 196.103807 52.458523 
L 197.118352 52.458523 
L 197.118352 41.296107 
L 198.132898 41.296107 
L 198.132898 30.133691 
L 199.147443 30.133691 
L 199.147443 49.752483 
L 200.161989 49.752483 
L 200.161989 50.090738 
L 201.176534 50.090738 
L 201.176534 38.251812 
L 202.19108 38.251812 
L 202.19108 32.163221 
L 203.205625 32.163221 
L 203.205625 54.488054 
L 204.22017 54.488054 
L 204.22017 61.591409 
L 205.234716 61.591409 
L 205.234716 73.092081 
L 206.249261 73.092081 
L 206.249261 67.68 
L 207.263807 67.68 
L 207.263807 46.031678 
L 208.278352 46.031678 
L 208.278352 67.00349 
L 209.292898 67.00349 
L 209.292898 70.047785 
L 210.307443 70.047785 
L 210.307443 65.65047 
L 211.321989 65.65047 
L 211.321989 51.782013 
L 212.336534 51.782013 
L 212.336534 73.092081 
L 213.35108 73.092081 
L 213.35108 69.70953 
L 214.365625 69.70953 
L 214.365625 67.341745 
L 215.38017 67.341745 
L 215.38017 64.635705 
L 216.394716 64.635705 
L 216.394716 69.371275 
L 217.409261 69.371275 
L 217.409261 60.576644 
L 218.423807 60.576644 
L 218.423807 64.29745 
L 219.438352 64.29745 
L 219.438352 60.238389 
L 220.452898 60.238389 
L 220.452898 84.592752 
L 221.467443 84.592752 
L 221.467443 61.591409 
L 222.481989 61.591409 
L 222.481989 62.606174 
L 223.496534 62.606174 
L 223.496534 74.445101 
L 224.51108 74.445101 
L 224.51108 76.812886 
L 225.525625 76.812886 
L 225.525625 72.753826 
L 226.54017 72.753826 
L 226.54017 84.254497 
L 227.554716 84.254497 
L 227.554716 76.136376 
L 228.569261 76.136376 
L 228.569261 78.165906 
L 229.583807 78.165906 
L 229.583807 77.151141 
L 230.598352 77.151141 
L 230.598352 77.489396 
L 231.612898 77.489396 
L 231.612898 78.842416 
L 232.627443 78.842416 
L 232.627443 60.914899 
L 233.641989 60.914899 
L 233.641989 81.210201 
L 234.656534 81.210201 
L 234.656534 81.886711 
L 235.67108 81.886711 
L 235.67108 68.694765 
L 236.685625 68.694765 
L 236.685625 73.430336 
L 237.70017 73.430336 
L 237.70017 74.106846 
L 238.714716 74.106846 
L 238.714716 75.798121 
L 239.729261 75.798121 
L 239.729261 76.474631 
L 240.743807 76.474631 
L 240.743807 74.106846 
L 242.772898 74.106846 
L 242.772898 99.137718 
L 243.787443 99.137718 
L 243.787443 73.430336 
L 244.801989 73.430336 
L 244.801989 76.474631 
L 245.816534 76.474631 
L 245.816534 78.842416 
L 246.83108 78.842416 
L 246.83108 90.343087 
L 247.845625 90.343087 
L 247.845625 106.579329 
L 248.86017 106.579329 
L 248.86017 86.284027 
L 249.874716 86.284027 
L 249.874716 90.004832 
L 250.889261 90.004832 
L 250.889261 97.784698 
L 251.903807 97.784698 
L 251.903807 102.182013 
L 252.918352 102.182013 
L 252.918352 110.638389 
L 253.932898 110.638389 
L 253.932898 103.873289 
L 254.947443 103.873289 
L 254.947443 124.845101 
L 255.961989 124.845101 
L 255.961989 117.065235 
L 256.976534 117.065235 
L 256.976534 125.859866 
L 257.99108 125.859866 
L 257.99108 129.918926 
L 259.005625 129.918926 
L 259.005625 133.301477 
L 260.02017 133.301477 
L 260.02017 132.624966 
L 261.034716 132.624966 
L 261.034716 151.905503 
L 262.049261 151.905503 
L 262.049261 147.846443 
L 263.063807 147.846443 
L 263.063807 154.611544 
L 264.078352 154.611544 
L 264.078352 158.670604 
L 265.092898 158.670604 
L 265.092898 170.50953 
L 266.107443 170.50953 
L 266.107443 168.141745 
L 267.121989 168.141745 
L 267.121989 177.612886 
L 268.136534 177.612886 
L 268.136534 178.627651 
L 269.15108 178.627651 
L 269.15108 188.775302 
L 270.165625 188.775302 
L 270.165625 192.157852 
L 271.18017 192.157852 
L 271.18017 192.496107 
L 272.194716 192.496107 
L 272.194716 197.908188 
L 273.209261 197.908188 
L 273.209261 199.937718 
L 274.223807 199.937718 
L 274.223807 206.364564 
L 275.238352 206.364564 
L 275.238352 205.688054 
L 276.252898 205.688054 
L 276.252898 206.026309 
L 277.267443 206.026309 
L 277.267443 213.129664 
L 278.281989 213.129664 
L 278.281989 211.100134 
L 279.296534 211.100134 
L 279.296534 216.512215 
L 280.31108 216.512215 
L 280.31108 216.85047 
L 281.325625 216.85047 
L 281.325625 217.188725 
L 282.34017 217.188725 
L 282.34017 218.541745 
L 283.354716 218.541745 
L 283.354716 218.88 
L 293.50017 218.88 
L 293.50017 216.512215 
L 294.514716 216.512215 
L 294.514716 211.100134 
L 295.529261 211.100134 
L 295.529261 206.364564 
L 296.543807 206.364564 
L 296.543807 204.335034 
L 297.558352 204.335034 
L 297.558352 200.275973 
L 298.572898 200.275973 
L 298.572898 194.187383 
L 299.587443 194.187383 
L 299.587443 184.039732 
L 300.601989 184.039732 
L 300.601989 181.671946 
L 301.616534 181.671946 
L 301.616534 183.024966 
L 302.63108 183.024966 
L 302.63108 173.21557 
L 303.645625 173.21557 
L 303.645625 169.494765 
L 304.66017 169.494765 
L 304.66017 164.082685 
L 305.674716 164.082685 
L 305.674716 164.42094 
L 307.703807 164.42094 
L 307.703807 153.935034 
L 308.718352 153.935034 
L 308.718352 149.537718 
L 309.732898 149.537718 
L 309.732898 147.169933 
L 310.747443 147.169933 
L 310.747443 150.214228 
L 311.761989 150.214228 
L 311.761989 153.258523 
L 312.776534 153.258523 
L 312.776534 140.066577 
L 313.79108 140.066577 
L 313.79108 136.684027 
L 314.805625 136.684027 
L 314.805625 131.948456 
L 315.82017 131.948456 
L 315.82017 127.212886 
L 316.834716 127.212886 
L 316.834716 135.331007 
L 317.849261 135.331007 
L 317.849261 122.13906 
L 318.863807 122.13906 
L 318.863807 129.242416 
L 319.878352 129.242416 
L 319.878352 114.02094 
L 320.892898 114.02094 
L 320.892898 121.46255 
L 321.907443 121.46255 
L 321.907443 108.270604 
L 322.921989 108.270604 
L 322.921989 120.78604 
L 323.936534 120.78604 
L 323.936534 117.40349 
L 324.95108 117.40349 
L 324.95108 114.359195 
L 325.965625 114.359195 
L 325.965625 95.416913 
L 326.98017 95.416913 
L 326.98017 116.388725 
L 327.994716 116.388725 
L 327.994716 103.535034 
L 329.009261 103.535034 
L 329.009261 97.784698 
L 330.023807 97.784698 
L 330.023807 102.520268 
L 331.038352 102.520268 
L 331.038352 98.799463 
L 332.052898 98.799463 
L 332.052898 100.490738 
L 333.067443 100.490738 
L 333.067443 88.313557 
L 334.081989 88.313557 
L 334.081989 84.254497 
L 335.096534 84.254497 
L 335.096534 86.284027 
L 336.11108 86.284027 
L 336.11108 94.063893 
L 337.125625 94.063893 
L 337.125625 95.078658 
L 338.14017 95.078658 
L 338.14017 94.740403 
L 339.154716 94.740403 
L 339.154716 95.755168 
L 340.169261 95.755168 
L 340.169261 100.828993 
L 341.183807 100.828993 
L 341.183807 90.343087 
L 342.198352 90.343087 
L 342.198352 105.902819 
L 343.212898 105.902819 
L 343.212898 98.122953 
L 344.227443 98.122953 
L 344.227443 91.019597 
L 345.241989 91.019597 
L 345.241989 102.182013 
L 346.256534 102.182013 
L 346.256534 118.08 
L 347.27108 118.08 
L 347.27108 108.270604 
L 348.285625 108.270604 
L 348.285625 109.623624 
L 349.30017 109.623624 
L 349.30017 110.976644 
L 350.314716 110.976644 
L 350.314716 103.535034 
L 351.329261 103.535034 
L 351.329261 112.667919 
L 352.343807 112.667919 
L 352.343807 115.035705 
L 353.358352 115.035705 
L 353.358352 105.902819 
L 354.372898 105.902819 
L 354.372898 104.211544 
L 355.387443 104.211544 
L 355.387443 100.152483 
L 356.401989 100.152483 
L 356.401989 125.521611 
L 357.416534 125.521611 
L 357.416534 120.447785 
L 358.43108 120.447785 
L 358.43108 114.02094 
L 359.445625 114.02094 
L 359.445625 116.72698 
L 360.46017 116.72698 
L 360.46017 121.124295 
L 361.474716 121.124295 
L 361.474716 122.13906 
L 362.489261 122.13906 
L 362.489261 125.183356 
L 363.503807 125.183356 
L 363.503807 124.845101 
L 364.518352 124.845101 
L 364.518352 116.72698 
L 365.532898 116.72698 
L 365.532898 125.183356 
L 366.547443 125.183356 
L 366.547443 125.183356 
" clip-path="url(#p1430e85ee6)" style="fill: none; stroke: #ff7f0e; stroke-width: 1.5; stroke-linecap: square"/>
   </g>
   <g id="patch_3">
    <path d="M 46.965625 228.96 
L 46.965625 7.2 
" style="fill: none; stroke: #000000; stroke-width: 0.8; stroke-linejoin: miter; stroke-linecap: square"/>
   </g>
   <g id="patch_4">
    <path d="M 381.765625 228.96 
L 381.765625 7.2 
" style="fill: none; stroke: #000000; stroke-width: 0.8; stroke-linejoin: miter; stroke-linecap: square"/>
   </g>
   <g id="patch_5">
    <path d="M 46.965625 228.96 
L 381.765625 228.96 
" style="fill: none; stroke: #000000; stroke-width: 0.8; stroke-linejoin: miter; stroke-linecap: square"/>
   </g>
   <g id="patch_6">
    <path d="M 46.965625 7.2 
L 381.765625 7.2 
" style="fill: none; stroke: #000000; stroke-width: 0.8; stroke-linejoin: miter; stroke-linecap: square"/>
   </g>
   <g id="legend_1">
    <g id="patch_7">
     <path d="M 246.957813 45.1125 
L 374.765625 45.1125 
Q 376.765625 45.1125 376.765625 43.1125 
L 376.765625 14.2 
Q 376.765625 12.2 374.765625 12.2 
L 246.957813 12.2 
Q 244.957813 12.2 244.957813 14.2 
L 244.957813 43.1125 
Q 244.957813 45.1125 246.957813 45.1125 
z
" style="fill: #ffffff; opacity: 0.8; stroke: #cccccc; stroke-linejoin: miter"/>
    </g>
    <g id="line2d_18">
     <path d="M 248.957813 20.298437 
L 248.957813 20.298437 
L 258.957813 20.298437 
L 258.957813 20.298437 
L 268.957813 20.298437 
" style="fill: none; stroke: #1f77b4; stroke-width: 1.5; stroke-linecap: square"/>
    </g>
    <g id="text_18">
     <!-- detector_number:0 -->
     <g transform="translate(276.957813 23.798437) scale(0.1 -0.1)">
      <defs>
       <path id="DejaVuSans-64" d="M 2906 2969 
L 2906 4863 
L 3481 4863 
L 3481 0 
L 2906 0 
L 2906 525 
Q 2725 213 2448 61 
Q 2172 -91 1784 -91 
Q 1150 -91 751 415 
Q 353 922 353 1747 
Q 353 2572 751 3078 
Q 1150 3584 1784 3584 
Q 2172 3584 2448 3432 
Q 2725 3281 2906 2969 
z
M 947 1747 
Q 947 1113 1208 752 
Q 1469 391 1925 391 
Q 2381 391 2643 752 
Q 2906 1113 2906 1747 
Q 2906 2381 2643 2742 
Q 2381 3103 1925 3103 
Q 1469 3103 1208 2742 
Q 947 2381 947 1747 
z
" transform="scale(0.015625)"/>
       <path id="DejaVuSans-72" d="M 2631 2963 
Q 2534 3019 2420 3045 
Q 2306 3072 2169 3072 
Q 1681 3072 1420 2755 
Q 1159 2438 1159 1844 
L 1159 0 
L 581 0 
L 581 3500 
L 1159 3500 
L 1159 2956 
Q 1341 3275 1631 3429 
Q 1922 3584 2338 3584 
Q 2397 3584 2469 3576 
Q 2541 3569 2628 3553 
L 2631 2963 
z
" transform="scale(0.015625)"/>
       <path id="DejaVuSans-62" d="M 3116 1747 
Q 3116 2381 2855 2742 
Q 2594 3103 2138 3103 
Q 1681 3103 1420 2742 
Q 1159 2381 1159 1747 
Q 1159 1113 1420 752 
Q 1681 391 2138 391 
Q 2594 391 2855 752 
Q 3116 1113 3116 1747 
z
M 1159 2969 
Q 1341 3281 1617 3432 
Q 1894 3584 2278 3584 
Q 2916 3584 3314 3078 
Q 3713 2572 3713 1747 
Q 3713 922 3314 415 
Q 2916 -91 2278 -91 
Q 1894 -91 1617 61 
Q 1341 213 1159 525 
L 1159 0 
L 581 0 
L 581 4863 
L 1159 4863 
L 1159 2969 
z
" transform="scale(0.015625)"/>
       <path id="DejaVuSans-3a" d="M 750 794 
L 1409 794 
L 1409 0 
L 750 0 
L 750 794 
z
M 750 3309 
L 1409 3309 
L 1409 2516 
L 750 2516 
L 750 3309 
z
" transform="scale(0.015625)"/>
      </defs>
      <use xlink:href="#DejaVuSans-64"/>
      <use xlink:href="#DejaVuSans-65" transform="translate(63.476562 0)"/>
      <use xlink:href="#DejaVuSans-74" transform="translate(125 0)"/>
      <use xlink:href="#DejaVuSans-65" transform="translate(164.208984 0)"/>
      <use xlink:href="#DejaVuSans-63" transform="translate(225.732422 0)"/>
      <use xlink:href="#DejaVuSans-74" transform="translate(280.712891 0)"/>
      <use xlink:href="#DejaVuSans-6f" transform="translate(319.921875 0)"/>
      <use xlink:href="#DejaVuSans-72" transform="translate(381.103516 0)"/>
      <use xlink:href="#DejaVuSans-5f" transform="translate(422.216797 0)"/>
      <use xlink:href="#DejaVuSans-6e" transform="translate(472.216797 0)"/>
      <use xlink:href="#DejaVuSans-75" transform="translate(535.595703 0)"/>
      <use xlink:href="#DejaVuSans-6d" transform="translate(598.974609 0)"/>
      <use xlink:href="#DejaVuSans-62" transform="translate(696.386719 0)"/>
      <use xlink:href="#DejaVuSans-65" transform="translate(759.863281 0)"/>
      <use xlink:href="#DejaVuSans-72" transform="translate(821.386719 0)"/>
      <use xlink:href="#DejaVuSans-3a" transform="translate(860.75 0)"/>
      <use xlink:href="#DejaVuSans-30" transform="translate(894.441406 0)"/>
     </g>
    </g>
    <g id="line2d_19">
     <path d="M 248.957813 35.254687 
L 248.957813 35.254687 
L 258.957813 35.254687 
L 258.957813 35.254687 
L 268.957813 35.254687 
" style="fill: none; stroke: #ff7f0e; stroke-width: 1.5; stroke-linecap: square"/>
    </g>
    <g id="text_19">
     <!-- detector_number:1 -->
     <g transform="translate(276.957813 38.754687) scale(0.1 -0.1)">
      <use xlink:href="#DejaVuSans-64"/>
      <use xlink:href="#DejaVuSans-65" transform="translate(63.476562 0)"/>
      <use xlink:href="#DejaVuSans-74" transform="translate(125 0)"/>
      <use xlink:href="#DejaVuSans-65" transform="translate(164.208984 0)"/>
      <use xlink:href="#DejaVuSans-63" transform="translate(225.732422 0)"/>
      <use xlink:href="#DejaVuSans-74" transform="translate(280.712891 0)"/>
      <use xlink:href="#DejaVuSans-6f" transform="translate(319.921875 0)"/>
      <use xlink:href="#DejaVuSans-72" transform="translate(381.103516 0)"/>
      <use xlink:href="#DejaVuSans-5f" transform="translate(422.216797 0)"/>
      <use xlink:href="#DejaVuSans-6e" transform="translate(472.216797 0)"/>
      <use xlink:href="#DejaVuSans-75" transform="translate(535.595703 0)"/>
      <use xlink:href="#DejaVuSans-6d" transform="translate(598.974609 0)"/>
      <use xlink:href="#DejaVuSans-62" transform="translate(696.386719 0)"/>
      <use xlink:href="#DejaVuSans-65" transform="translate(759.863281 0)"/>
      <use xlink:href="#DejaVuSans-72" transform="translate(821.386719 0)"/>
      <use xlink:href="#DejaVuSans-3a" transform="translate(860.75 0)"/>
      <use xlink:href="#DejaVuSans-31" transform="translate(894.441406 0)"/>
     </g>
    </g>
   </g>
  </g>
 </g>
 <defs>
  <clipPath id="p1430e85ee6">
   <rect x="46.965625" y="7.2" width="334.8" height="221.76"/>
  </clipPath>
 </defs>
</svg>
