<?xml version="1.0" encoding="utf-8" standalone="no"?>
<!DOCTYPE svg PUBLIC "-//W3C//DTD SVG 1.1//EN"
  "http://www.w3.org/Graphics/SVG/1.1/DTD/svg11.dtd">
<svg xmlns:xlink="http://www.w3.org/1999/xlink" width="872.39952pt" height="296.39952pt" viewBox="0 0 872.39952 296.39952" xmlns="http://www.w3.org/2000/svg" version="1.1">
 <metadata>
  <rdf:RDF xmlns:dc="http://purl.org/dc/elements/1.1/" xmlns:cc="http://creativecommons.org/ns#" xmlns:rdf="http://www.w3.org/1999/02/22-rdf-syntax-ns#">
   <cc:Work>
    <dc:type rdf:resource="http://purl.org/dc/dcmitype/StillImage"/>
    <dc:date>2025-05-14T12:11:23.086509</dc:date>
    <dc:format>image/svg+xml</dc:format>
    <dc:creator>
     <cc:Agent>
      <dc:title>Matplotlib v3.10.1, https://matplotlib.org/</dc:title>
     </cc:Agent>
    </dc:creator>
   </cc:Work>
  </rdf:RDF>
 </metadata>
 <defs>
  <style type="text/css">*{stroke-linejoin: round; stroke-linecap: butt}</style>
 </defs>
 <g id="figure_1">
  <g id="patch_1">
   <path d="M 0 296.39952 
L 872.39952 296.39952 
L 872.39952 0 
L 0 0 
z
" style="fill: #ffffff"/>
  </g>
  <g id="axes_1">
   <g id="patch_2">
    <path d="M 53.328125 257.158895 
L 431.87976 257.158895 
L 431.87976 7.2 
L 53.328125 7.2 
z
" style="fill: #ffffff"/>
   </g>
   <g id="matplotlib.axis_1">
    <g id="xtick_1">
     <g id="line2d_1">
      <defs>
       <path id="m02d2193e7f" d="M 0 0 
L 0 3.5 
" style="stroke: #000000; stroke-width: 0.8"/>
      </defs>
      <g>
       <use xlink:href="#m02d2193e7f" x="69.661553" y="257.158895" style="stroke: #000000; stroke-width: 0.8"/>
      </g>
     </g>
     <g id="text_1">
      <!-- 0 -->
      <g transform="translate(66.480303 271.757332) scale(0.1 -0.1)">
       <defs>
        <path id="DejaVuSans-30" d="M 2034 4250 
Q 1547 4250 1301 3770 
Q 1056 3291 1056 2328 
Q 1056 1369 1301 889 
Q 1547 409 2034 409 
Q 2525 409 2770 889 
Q 3016 1369 3016 2328 
Q 3016 3291 2770 3770 
Q 2525 4250 2034 4250 
z
M 2034 4750 
Q 2819 4750 3233 4129 
Q 3647 3509 3647 2328 
Q 3647 1150 3233 529 
Q 2819 -91 2034 -91 
Q 1250 -91 836 529 
Q 422 1150 422 2328 
Q 422 3509 836 4129 
Q 1250 4750 2034 4750 
z
" transform="scale(0.015625)"/>
       </defs>
       <use xlink:href="#DejaVuSans-30"/>
      </g>
     </g>
    </g>
    <g id="xtick_2">
     <g id="line2d_2">
      <g>
       <use xlink:href="#m02d2193e7f" x="139.010954" y="257.158895" style="stroke: #000000; stroke-width: 0.8"/>
      </g>
     </g>
     <g id="text_2">
      <!-- 1000 -->
      <g transform="translate(126.285954 271.757332) scale(0.1 -0.1)">
       <defs>
        <path id="DejaVuSans-31" d="M 794 531 
L 1825 531 
L 1825 4091 
L 703 3866 
L 703 4441 
L 1819 4666 
L 2450 4666 
L 2450 531 
L 3481 531 
L 3481 0 
L 794 0 
L 794 531 
z
" transform="scale(0.015625)"/>
       </defs>
       <use xlink:href="#DejaVuSans-31"/>
       <use xlink:href="#DejaVuSans-30" transform="translate(63.623047 0)"/>
       <use xlink:href="#DejaVuSans-30" transform="translate(127.246094 0)"/>
       <use xlink:href="#DejaVuSans-30" transform="translate(190.869141 0)"/>
      </g>
     </g>
    </g>
    <g id="xtick_3">
     <g id="line2d_3">
      <g>
       <use xlink:href="#m02d2193e7f" x="208.360355" y="257.158895" style="stroke: #000000; stroke-width: 0.8"/>
      </g>
     </g>
     <g id="text_3">
      <!-- 2000 -->
      <g transform="translate(195.635355 271.757332) scale(0.1 -0.1)">
       <defs>
        <path id="DejaVuSans-32" d="M 1228 531 
L 3431 531 
L 3431 0 
L 469 0 
L 469 531 
Q 828 903 1448 1529 
Q 2069 2156 2228 2338 
Q 2531 2678 2651 2914 
Q 2772 3150 2772 3378 
Q 2772 3750 2511 3984 
Q 2250 4219 1831 4219 
Q 1534 4219 1204 4116 
Q 875 4013 500 3803 
L 500 4441 
Q 881 4594 1212 4672 
Q 1544 4750 1819 4750 
Q 2544 4750 2975 4387 
Q 3406 4025 3406 3419 
Q 3406 3131 3298 2873 
Q 3191 2616 2906 2266 
Q 2828 2175 2409 1742 
Q 1991 1309 1228 531 
z
" transform="scale(0.015625)"/>
       </defs>
       <use xlink:href="#DejaVuSans-32"/>
       <use xlink:href="#DejaVuSans-30" transform="translate(63.623047 0)"/>
       <use xlink:href="#DejaVuSans-30" transform="translate(127.246094 0)"/>
       <use xlink:href="#DejaVuSans-30" transform="translate(190.869141 0)"/>
      </g>
     </g>
    </g>
    <g id="xtick_4">
     <g id="line2d_4">
      <g>
       <use xlink:href="#m02d2193e7f" x="277.709756" y="257.158895" style="stroke: #000000; stroke-width: 0.8"/>
      </g>
     </g>
     <g id="text_4">
      <!-- 3000 -->
      <g transform="translate(264.984756 271.757332) scale(0.1 -0.1)">
       <defs>
        <path id="DejaVuSans-33" d="M 2597 2516 
Q 3050 2419 3304 2112 
Q 3559 1806 3559 1356 
Q 3559 666 3084 287 
Q 2609 -91 1734 -91 
Q 1441 -91 1130 -33 
Q 819 25 488 141 
L 488 750 
Q 750 597 1062 519 
Q 1375 441 1716 441 
Q 2309 441 2620 675 
Q 2931 909 2931 1356 
Q 2931 1769 2642 2001 
Q 2353 2234 1838 2234 
L 1294 2234 
L 1294 2753 
L 1863 2753 
Q 2328 2753 2575 2939 
Q 2822 3125 2822 3475 
Q 2822 3834 2567 4026 
Q 2313 4219 1838 4219 
Q 1578 4219 1281 4162 
Q 984 4106 628 3988 
L 628 4550 
Q 988 4650 1302 4700 
Q 1616 4750 1894 4750 
Q 2613 4750 3031 4423 
Q 3450 4097 3450 3541 
Q 3450 3153 3228 2886 
Q 3006 2619 2597 2516 
z
" transform="scale(0.015625)"/>
       </defs>
       <use xlink:href="#DejaVuSans-33"/>
       <use xlink:href="#DejaVuSans-30" transform="translate(63.623047 0)"/>
       <use xlink:href="#DejaVuSans-30" transform="translate(127.246094 0)"/>
       <use xlink:href="#DejaVuSans-30" transform="translate(190.869141 0)"/>
      </g>
     </g>
    </g>
    <g id="xtick_5">
     <g id="line2d_5">
      <g>
       <use xlink:href="#m02d2193e7f" x="347.059157" y="257.158895" style="stroke: #000000; stroke-width: 0.8"/>
      </g>
     </g>
     <g id="text_5">
      <!-- 4000 -->
      <g transform="translate(334.334157 271.757332) scale(0.1 -0.1)">
       <defs>
        <path id="DejaVuSans-34" d="M 2419 4116 
L 825 1625 
L 2419 1625 
L 2419 4116 
z
M 2253 4666 
L 3047 4666 
L 3047 1625 
L 3713 1625 
L 3713 1100 
L 3047 1100 
L 3047 0 
L 2419 0 
L 2419 1100 
L 313 1100 
L 313 1709 
L 2253 4666 
z
" transform="scale(0.015625)"/>
       </defs>
       <use xlink:href="#DejaVuSans-34"/>
       <use xlink:href="#DejaVuSans-30" transform="translate(63.623047 0)"/>
       <use xlink:href="#DejaVuSans-30" transform="translate(127.246094 0)"/>
       <use xlink:href="#DejaVuSans-30" transform="translate(190.869141 0)"/>
      </g>
     </g>
    </g>
    <g id="xtick_6">
     <g id="line2d_6">
      <g>
       <use xlink:href="#m02d2193e7f" x="416.408558" y="257.158895" style="stroke: #000000; stroke-width: 0.8"/>
      </g>
     </g>
     <g id="text_6">
      <!-- 5000 -->
      <g transform="translate(403.683558 271.757332) scale(0.1 -0.1)">
       <defs>
        <path id="DejaVuSans-35" d="M 691 4666 
L 3169 4666 
L 3169 4134 
L 1269 4134 
L 1269 2991 
Q 1406 3038 1543 3061 
Q 1681 3084 1819 3084 
Q 2600 3084 3056 2656 
Q 3513 2228 3513 1497 
Q 3513 744 3044 326 
Q 2575 -91 1722 -91 
Q 1428 -91 1123 -41 
Q 819 9 494 109 
L 494 744 
Q 775 591 1075 516 
Q 1375 441 1709 441 
Q 2250 441 2565 725 
Q 2881 1009 2881 1497 
Q 2881 1984 2565 2268 
Q 2250 2553 1709 2553 
Q 1456 2553 1204 2497 
Q 953 2441 691 2322 
L 691 4666 
z
" transform="scale(0.015625)"/>
       </defs>
       <use xlink:href="#DejaVuSans-35"/>
       <use xlink:href="#DejaVuSans-30" transform="translate(63.623047 0)"/>
       <use xlink:href="#DejaVuSans-30" transform="translate(127.246094 0)"/>
       <use xlink:href="#DejaVuSans-30" transform="translate(190.869141 0)"/>
      </g>
     </g>
    </g>
    <g id="text_7">
     <!-- birth_time [µs] -->
     <g transform="translate(205.78363 285.435457) scale(0.1 -0.1)">
      <defs>
       <path id="DejaVuSans-62" d="M 3116 1747 
Q 3116 2381 2855 2742 
Q 2594 3103 2138 3103 
Q 1681 3103 1420 2742 
Q 1159 2381 1159 1747 
Q 1159 1113 1420 752 
Q 1681 391 2138 391 
Q 2594 391 2855 752 
Q 3116 1113 3116 1747 
z
M 1159 2969 
Q 1341 3281 1617 3432 
Q 1894 3584 2278 3584 
Q 2916 3584 3314 3078 
Q 3713 2572 3713 1747 
Q 3713 922 3314 415 
Q 2916 -91 2278 -91 
Q 1894 -91 1617 61 
Q 1341 213 1159 525 
L 1159 0 
L 581 0 
L 581 4863 
L 1159 4863 
L 1159 2969 
z
" transform="scale(0.015625)"/>
       <path id="DejaVuSans-69" d="M 603 3500 
L 1178 3500 
L 1178 0 
L 603 0 
L 603 3500 
z
M 603 4863 
L 1178 4863 
L 1178 4134 
L 603 4134 
L 603 4863 
z
" transform="scale(0.015625)"/>
       <path id="DejaVuSans-72" d="M 2631 2963 
Q 2534 3019 2420 3045 
Q 2306 3072 2169 3072 
Q 1681 3072 1420 2755 
Q 1159 2438 1159 1844 
L 1159 0 
L 581 0 
L 581 3500 
L 1159 3500 
L 1159 2956 
Q 1341 3275 1631 3429 
Q 1922 3584 2338 3584 
Q 2397 3584 2469 3576 
Q 2541 3569 2628 3553 
L 2631 2963 
z
" transform="scale(0.015625)"/>
       <path id="DejaVuSans-74" d="M 1172 4494 
L 1172 3500 
L 2356 3500 
L 2356 3053 
L 1172 3053 
L 1172 1153 
Q 1172 725 1289 603 
Q 1406 481 1766 481 
L 2356 481 
L 2356 0 
L 1766 0 
Q 1100 0 847 248 
Q 594 497 594 1153 
L 594 3053 
L 172 3053 
L 172 3500 
L 594 3500 
L 594 4494 
L 1172 4494 
z
" transform="scale(0.015625)"/>
       <path id="DejaVuSans-68" d="M 3513 2113 
L 3513 0 
L 2938 0 
L 2938 2094 
Q 2938 2591 2744 2837 
Q 2550 3084 2163 3084 
Q 1697 3084 1428 2787 
Q 1159 2491 1159 1978 
L 1159 0 
L 581 0 
L 581 4863 
L 1159 4863 
L 1159 2956 
Q 1366 3272 1645 3428 
Q 1925 3584 2291 3584 
Q 2894 3584 3203 3211 
Q 3513 2838 3513 2113 
z
" transform="scale(0.015625)"/>
       <path id="DejaVuSans-5f" d="M 3263 -1063 
L 3263 -1509 
L -63 -1509 
L -63 -1063 
L 3263 -1063 
z
" transform="scale(0.015625)"/>
       <path id="DejaVuSans-6d" d="M 3328 2828 
Q 3544 3216 3844 3400 
Q 4144 3584 4550 3584 
Q 5097 3584 5394 3201 
Q 5691 2819 5691 2113 
L 5691 0 
L 5113 0 
L 5113 2094 
Q 5113 2597 4934 2840 
Q 4756 3084 4391 3084 
Q 3944 3084 3684 2787 
Q 3425 2491 3425 1978 
L 3425 0 
L 2847 0 
L 2847 2094 
Q 2847 2600 2669 2842 
Q 2491 3084 2119 3084 
Q 1678 3084 1418 2786 
Q 1159 2488 1159 1978 
L 1159 0 
L 581 0 
L 581 3500 
L 1159 3500 
L 1159 2956 
Q 1356 3278 1631 3431 
Q 1906 3584 2284 3584 
Q 2666 3584 2933 3390 
Q 3200 3197 3328 2828 
z
" transform="scale(0.015625)"/>
       <path id="DejaVuSans-65" d="M 3597 1894 
L 3597 1613 
L 953 1613 
Q 991 1019 1311 708 
Q 1631 397 2203 397 
Q 2534 397 2845 478 
Q 3156 559 3463 722 
L 3463 178 
Q 3153 47 2828 -22 
Q 2503 -91 2169 -91 
Q 1331 -91 842 396 
Q 353 884 353 1716 
Q 353 2575 817 3079 
Q 1281 3584 2069 3584 
Q 2775 3584 3186 3129 
Q 3597 2675 3597 1894 
z
M 3022 2063 
Q 3016 2534 2758 2815 
Q 2500 3097 2075 3097 
Q 1594 3097 1305 2825 
Q 1016 2553 972 2059 
L 3022 2063 
z
" transform="scale(0.015625)"/>
       <path id="DejaVuSans-20" transform="scale(0.015625)"/>
       <path id="DejaVuSans-5b" d="M 550 4863 
L 1875 4863 
L 1875 4416 
L 1125 4416 
L 1125 -397 
L 1875 -397 
L 1875 -844 
L 550 -844 
L 550 4863 
z
" transform="scale(0.015625)"/>
       <path id="DejaVuSans-b5" d="M 544 -1331 
L 544 3500 
L 1119 3500 
L 1119 1325 
Q 1119 872 1334 640 
Q 1550 409 1972 409 
Q 2434 409 2667 671 
Q 2900 934 2900 1459 
L 2900 3500 
L 3475 3500 
L 3475 806 
Q 3475 619 3529 530 
Q 3584 441 3700 441 
Q 3728 441 3778 458 
Q 3828 475 3916 513 
L 3916 50 
Q 3788 -22 3673 -56 
Q 3559 -91 3450 -91 
Q 3234 -91 3106 31 
Q 2978 153 2931 403 
Q 2775 156 2548 32 
Q 2322 -91 2016 -91 
Q 1697 -91 1473 31 
Q 1250 153 1119 397 
L 1119 -1331 
L 544 -1331 
z
" transform="scale(0.015625)"/>
       <path id="DejaVuSans-73" d="M 2834 3397 
L 2834 2853 
Q 2591 2978 2328 3040 
Q 2066 3103 1784 3103 
Q 1356 3103 1142 2972 
Q 928 2841 928 2578 
Q 928 2378 1081 2264 
Q 1234 2150 1697 2047 
L 1894 2003 
Q 2506 1872 2764 1633 
Q 3022 1394 3022 966 
Q 3022 478 2636 193 
Q 2250 -91 1575 -91 
Q 1294 -91 989 -36 
Q 684 19 347 128 
L 347 722 
Q 666 556 975 473 
Q 1284 391 1588 391 
Q 1994 391 2212 530 
Q 2431 669 2431 922 
Q 2431 1156 2273 1281 
Q 2116 1406 1581 1522 
L 1381 1569 
Q 847 1681 609 1914 
Q 372 2147 372 2553 
Q 372 3047 722 3315 
Q 1072 3584 1716 3584 
Q 2034 3584 2315 3537 
Q 2597 3491 2834 3397 
z
" transform="scale(0.015625)"/>
       <path id="DejaVuSans-5d" d="M 1947 4863 
L 1947 -844 
L 622 -844 
L 622 -397 
L 1369 -397 
L 1369 4416 
L 622 4416 
L 622 4863 
L 1947 4863 
z
" transform="scale(0.015625)"/>
      </defs>
      <use xlink:href="#DejaVuSans-62"/>
      <use xlink:href="#DejaVuSans-69" transform="translate(63.476562 0)"/>
      <use xlink:href="#DejaVuSans-72" transform="translate(91.259766 0)"/>
      <use xlink:href="#DejaVuSans-74" transform="translate(132.373047 0)"/>
      <use xlink:href="#DejaVuSans-68" transform="translate(171.582031 0)"/>
      <use xlink:href="#DejaVuSans-5f" transform="translate(234.960938 0)"/>
      <use xlink:href="#DejaVuSans-74" transform="translate(284.960938 0)"/>
      <use xlink:href="#DejaVuSans-69" transform="translate(324.169922 0)"/>
      <use xlink:href="#DejaVuSans-6d" transform="translate(351.953125 0)"/>
      <use xlink:href="#DejaVuSans-65" transform="translate(449.365234 0)"/>
      <use xlink:href="#DejaVuSans-20" transform="translate(510.888672 0)"/>
      <use xlink:href="#DejaVuSans-5b" transform="translate(542.675781 0)"/>
      <use xlink:href="#DejaVuSans-b5" transform="translate(581.689453 0)"/>
      <use xlink:href="#DejaVuSans-73" transform="translate(645.3125 0)"/>
      <use xlink:href="#DejaVuSans-5d" transform="translate(697.412109 0)"/>
     </g>
    </g>
   </g>
   <g id="matplotlib.axis_2">
    <g id="ytick_1">
     <g id="line2d_7">
      <defs>
       <path id="m219cd69564" d="M 0 0 
L -3.5 0 
" style="stroke: #000000; stroke-width: 0.8"/>
      </defs>
      <g>
       <use xlink:href="#m219cd69564" x="53.328125" y="245.797127" style="stroke: #000000; stroke-width: 0.8"/>
      </g>
     </g>
     <g id="text_8">
      <!-- 0 -->
      <g transform="translate(39.965625 249.596346) scale(0.1 -0.1)">
       <use xlink:href="#DejaVuSans-30"/>
      </g>
     </g>
    </g>
    <g id="ytick_2">
     <g id="line2d_8">
      <g>
       <use xlink:href="#m219cd69564" x="53.328125" y="209.293455" style="stroke: #000000; stroke-width: 0.8"/>
      </g>
     </g>
     <g id="text_9">
      <!-- 200 -->
      <g transform="translate(27.240625 213.092674) scale(0.1 -0.1)">
       <use xlink:href="#DejaVuSans-32"/>
       <use xlink:href="#DejaVuSans-30" transform="translate(63.623047 0)"/>
       <use xlink:href="#DejaVuSans-30" transform="translate(127.246094 0)"/>
      </g>
     </g>
    </g>
    <g id="ytick_3">
     <g id="line2d_9">
      <g>
       <use xlink:href="#m219cd69564" x="53.328125" y="172.789783" style="stroke: #000000; stroke-width: 0.8"/>
      </g>
     </g>
     <g id="text_10">
      <!-- 400 -->
      <g transform="translate(27.240625 176.589002) scale(0.1 -0.1)">
       <use xlink:href="#DejaVuSans-34"/>
       <use xlink:href="#DejaVuSans-30" transform="translate(63.623047 0)"/>
       <use xlink:href="#DejaVuSans-30" transform="translate(127.246094 0)"/>
      </g>
     </g>
    </g>
    <g id="ytick_4">
     <g id="line2d_10">
      <g>
       <use xlink:href="#m219cd69564" x="53.328125" y="136.286111" style="stroke: #000000; stroke-width: 0.8"/>
      </g>
     </g>
     <g id="text_11">
      <!-- 600 -->
      <g transform="translate(27.240625 140.085329) scale(0.1 -0.1)">
       <defs>
        <path id="DejaVuSans-36" d="M 2113 2584 
Q 1688 2584 1439 2293 
Q 1191 2003 1191 1497 
Q 1191 994 1439 701 
Q 1688 409 2113 409 
Q 2538 409 2786 701 
Q 3034 994 3034 1497 
Q 3034 2003 2786 2293 
Q 2538 2584 2113 2584 
z
M 3366 4563 
L 3366 3988 
Q 3128 4100 2886 4159 
Q 2644 4219 2406 4219 
Q 1781 4219 1451 3797 
Q 1122 3375 1075 2522 
Q 1259 2794 1537 2939 
Q 1816 3084 2150 3084 
Q 2853 3084 3261 2657 
Q 3669 2231 3669 1497 
Q 3669 778 3244 343 
Q 2819 -91 2113 -91 
Q 1303 -91 875 529 
Q 447 1150 447 2328 
Q 447 3434 972 4092 
Q 1497 4750 2381 4750 
Q 2619 4750 2861 4703 
Q 3103 4656 3366 4563 
z
" transform="scale(0.015625)"/>
       </defs>
       <use xlink:href="#DejaVuSans-36"/>
       <use xlink:href="#DejaVuSans-30" transform="translate(63.623047 0)"/>
       <use xlink:href="#DejaVuSans-30" transform="translate(127.246094 0)"/>
      </g>
     </g>
    </g>
    <g id="ytick_5">
     <g id="line2d_11">
      <g>
       <use xlink:href="#m219cd69564" x="53.328125" y="99.782438" style="stroke: #000000; stroke-width: 0.8"/>
      </g>
     </g>
     <g id="text_12">
      <!-- 800 -->
      <g transform="translate(27.240625 103.581657) scale(0.1 -0.1)">
       <defs>
        <path id="DejaVuSans-38" d="M 2034 2216 
Q 1584 2216 1326 1975 
Q 1069 1734 1069 1313 
Q 1069 891 1326 650 
Q 1584 409 2034 409 
Q 2484 409 2743 651 
Q 3003 894 3003 1313 
Q 3003 1734 2745 1975 
Q 2488 2216 2034 2216 
z
M 1403 2484 
Q 997 2584 770 2862 
Q 544 3141 544 3541 
Q 544 4100 942 4425 
Q 1341 4750 2034 4750 
Q 2731 4750 3128 4425 
Q 3525 4100 3525 3541 
Q 3525 3141 3298 2862 
Q 3072 2584 2669 2484 
Q 3125 2378 3379 2068 
Q 3634 1759 3634 1313 
Q 3634 634 3220 271 
Q 2806 -91 2034 -91 
Q 1263 -91 848 271 
Q 434 634 434 1313 
Q 434 1759 690 2068 
Q 947 2378 1403 2484 
z
M 1172 3481 
Q 1172 3119 1398 2916 
Q 1625 2713 2034 2713 
Q 2441 2713 2670 2916 
Q 2900 3119 2900 3481 
Q 2900 3844 2670 4047 
Q 2441 4250 2034 4250 
Q 1625 4250 1398 4047 
Q 1172 3844 1172 3481 
z
" transform="scale(0.015625)"/>
       </defs>
       <use xlink:href="#DejaVuSans-38"/>
       <use xlink:href="#DejaVuSans-30" transform="translate(63.623047 0)"/>
       <use xlink:href="#DejaVuSans-30" transform="translate(127.246094 0)"/>
      </g>
     </g>
    </g>
    <g id="ytick_6">
     <g id="line2d_12">
      <g>
       <use xlink:href="#m219cd69564" x="53.328125" y="63.278766" style="stroke: #000000; stroke-width: 0.8"/>
      </g>
     </g>
     <g id="text_13">
      <!-- 1000 -->
      <g transform="translate(20.878125 67.077985) scale(0.1 -0.1)">
       <use xlink:href="#DejaVuSans-31"/>
       <use xlink:href="#DejaVuSans-30" transform="translate(63.623047 0)"/>
       <use xlink:href="#DejaVuSans-30" transform="translate(127.246094 0)"/>
       <use xlink:href="#DejaVuSans-30" transform="translate(190.869141 0)"/>
      </g>
     </g>
    </g>
    <g id="ytick_7">
     <g id="line2d_13">
      <g>
       <use xlink:href="#m219cd69564" x="53.328125" y="26.775094" style="stroke: #000000; stroke-width: 0.8"/>
      </g>
     </g>
     <g id="text_14">
      <!-- 1200 -->
      <g transform="translate(20.878125 30.574313) scale(0.1 -0.1)">
       <use xlink:href="#DejaVuSans-31"/>
       <use xlink:href="#DejaVuSans-32" transform="translate(63.623047 0)"/>
       <use xlink:href="#DejaVuSans-30" transform="translate(127.246094 0)"/>
       <use xlink:href="#DejaVuSans-30" transform="translate(190.869141 0)"/>
      </g>
     </g>
    </g>
    <g id="text_15">
     <!-- [counts] -->
     <g transform="translate(14.798438 152.791947) rotate(-90) scale(0.1 -0.1)">
      <defs>
       <path id="DejaVuSans-63" d="M 3122 3366 
L 3122 2828 
Q 2878 2963 2633 3030 
Q 2388 3097 2138 3097 
Q 1578 3097 1268 2742 
Q 959 2388 959 1747 
Q 959 1106 1268 751 
Q 1578 397 2138 397 
Q 2388 397 2633 464 
Q 2878 531 3122 666 
L 3122 134 
Q 2881 22 2623 -34 
Q 2366 -91 2075 -91 
Q 1284 -91 818 406 
Q 353 903 353 1747 
Q 353 2603 823 3093 
Q 1294 3584 2113 3584 
Q 2378 3584 2631 3529 
Q 2884 3475 3122 3366 
z
" transform="scale(0.015625)"/>
       <path id="DejaVuSans-6f" d="M 1959 3097 
Q 1497 3097 1228 2736 
Q 959 2375 959 1747 
Q 959 1119 1226 758 
Q 1494 397 1959 397 
Q 2419 397 2687 759 
Q 2956 1122 2956 1747 
Q 2956 2369 2687 2733 
Q 2419 3097 1959 3097 
z
M 1959 3584 
Q 2709 3584 3137 3096 
Q 3566 2609 3566 1747 
Q 3566 888 3137 398 
Q 2709 -91 1959 -91 
Q 1206 -91 779 398 
Q 353 888 353 1747 
Q 353 2609 779 3096 
Q 1206 3584 1959 3584 
z
" transform="scale(0.015625)"/>
       <path id="DejaVuSans-75" d="M 544 1381 
L 544 3500 
L 1119 3500 
L 1119 1403 
Q 1119 906 1312 657 
Q 1506 409 1894 409 
Q 2359 409 2629 706 
Q 2900 1003 2900 1516 
L 2900 3500 
L 3475 3500 
L 3475 0 
L 2900 0 
L 2900 538 
Q 2691 219 2414 64 
Q 2138 -91 1772 -91 
Q 1169 -91 856 284 
Q 544 659 544 1381 
z
M 1991 3584 
L 1991 3584 
z
" transform="scale(0.015625)"/>
       <path id="DejaVuSans-6e" d="M 3513 2113 
L 3513 0 
L 2938 0 
L 2938 2094 
Q 2938 2591 2744 2837 
Q 2550 3084 2163 3084 
Q 1697 3084 1428 2787 
Q 1159 2491 1159 1978 
L 1159 0 
L 581 0 
L 581 3500 
L 1159 3500 
L 1159 2956 
Q 1366 3272 1645 3428 
Q 1925 3584 2291 3584 
Q 2894 3584 3203 3211 
Q 3513 2838 3513 2113 
z
" transform="scale(0.015625)"/>
      </defs>
      <use xlink:href="#DejaVuSans-5b"/>
      <use xlink:href="#DejaVuSans-63" transform="translate(39.013672 0)"/>
      <use xlink:href="#DejaVuSans-6f" transform="translate(93.994141 0)"/>
      <use xlink:href="#DejaVuSans-75" transform="translate(155.175781 0)"/>
      <use xlink:href="#DejaVuSans-6e" transform="translate(218.554688 0)"/>
      <use xlink:href="#DejaVuSans-74" transform="translate(281.933594 0)"/>
      <use xlink:href="#DejaVuSans-73" transform="translate(321.142578 0)"/>
      <use xlink:href="#DejaVuSans-5d" transform="translate(373.242188 0)"/>
     </g>
    </g>
   </g>
   <g id="line2d_14">
    <path d="M 70.535017 234.115952 
L 71.682144 234.115952 
L 71.682144 229.005438 
L 72.82927 229.005438 
L 72.82927 220.062038 
L 73.976396 220.062038 
L 73.976396 213.12634 
L 75.123522 213.12634 
L 75.123522 203.817904 
L 76.270648 203.817904 
L 76.270648 193.231839 
L 77.417774 193.231839 
L 77.417774 190.129027 
L 78.564901 190.129027 
L 78.564901 180.090517 
L 79.712027 180.090517 
L 79.712027 168.409342 
L 80.859153 168.409342 
L 80.859153 160.013498 
L 82.006279 160.013498 
L 82.006279 155.633057 
L 83.153405 155.633057 
L 83.153405 145.046992 
L 84.300531 145.046992 
L 84.300531 141.031588 
L 85.447658 141.031588 
L 85.447658 138.841368 
L 86.594784 138.841368 
L 86.594784 137.563739 
L 87.74191 137.563739 
L 87.74191 123.874862 
L 88.889036 123.874862 
L 88.889036 125.700046 
L 90.036162 125.700046 
L 90.036162 114.201389 
L 91.183288 114.201389 
L 91.183288 116.574128 
L 92.330415 116.574128 
L 92.330415 101.607622 
L 93.477541 101.607622 
L 93.477541 106.170581 
L 94.624667 106.170581 
L 94.624667 97.957255 
L 95.771793 97.957255 
L 95.771793 95.949553 
L 96.918919 95.949553 
L 96.918919 87.918745 
L 98.066045 87.918745 
L 98.066045 94.306888 
L 99.213172 94.306888 
L 99.213172 83.173268 
L 100.360298 83.173268 
L 100.360298 77.515198 
L 101.507424 77.515198 
L 101.507424 81.713121 
L 102.65455 81.713121 
L 102.65455 77.33268 
L 103.801676 77.33268 
L 103.801676 78.975345 
L 104.948802 78.975345 
L 104.948802 83.173268 
L 106.095929 83.173268 
L 106.095929 78.610309 
L 107.243055 78.610309 
L 107.243055 72.404684 
L 108.390181 72.404684 
L 108.390181 86.27608 
L 109.537307 86.27608 
L 109.537307 68.936836 
L 110.684433 68.936836 
L 110.684433 60.358473 
L 111.831559 60.358473 
L 111.831559 55.612995 
L 112.978686 55.612995 
L 112.978686 56.525587 
L 114.125812 56.525587 
L 114.125812 62.91373 
L 115.272938 62.91373 
L 115.272938 57.25566 
L 116.420064 57.25566 
L 116.420064 56.708105 
L 117.56719 56.708105 
L 117.56719 49.224853 
L 118.714316 49.224853 
L 118.714316 50.319963 
L 119.861443 50.319963 
L 119.861443 54.335367 
L 121.008569 54.335367 
L 121.008569 49.772408 
L 122.155695 49.772408 
L 122.155695 53.240256 
L 123.302821 53.240256 
L 123.302821 56.890624 
L 124.449947 56.890624 
L 124.449947 53.057738 
L 125.597073 53.057738 
L 125.597073 43.019228 
L 126.7442 43.019228 
L 126.7442 47.217151 
L 127.891326 47.217151 
L 127.891326 40.098935 
L 129.038452 40.098935 
L 129.038452 53.240256 
L 130.185578 53.240256 
L 130.185578 45.209449 
L 131.332704 45.209449 
L 131.332704 46.669596 
L 132.47983 46.669596 
L 132.47983 52.145146 
L 133.626957 52.145146 
L 133.626957 51.050036 
L 134.774083 51.050036 
L 134.774083 33.163237 
L 135.921209 33.163237 
L 135.921209 34.075829 
L 137.068335 34.075829 
L 137.068335 46.669596 
L 138.215461 46.669596 
L 138.215461 46.12204 
L 139.362587 46.12204 
L 139.362587 39.186343 
L 140.509714 39.186343 
L 140.509714 47.582187 
L 141.65684 47.582187 
L 141.65684 39.003824 
L 142.803966 39.003824 
L 142.803966 40.64649 
L 143.951092 40.64649 
L 143.951092 39.733898 
L 145.098218 39.733898 
L 145.098218 49.042334 
L 146.245344 49.042334 
L 146.245344 39.916416 
L 147.392471 39.916416 
L 147.392471 41.7416 
L 148.539597 41.7416 
L 148.539597 48.129742 
L 149.686723 48.129742 
L 149.686723 39.733898 
L 150.833849 39.733898 
L 150.833849 39.916416 
L 151.980975 39.916416 
L 151.980975 23.489764 
L 153.128101 23.489764 
L 153.128101 40.64649 
L 154.275228 40.64649 
L 154.275228 35.170939 
L 155.422354 35.170939 
L 155.422354 33.710792 
L 156.56948 33.710792 
L 156.56948 31.155535 
L 157.716606 31.155535 
L 157.716606 45.391967 
L 158.863732 45.391967 
L 158.863732 41.7416 
L 160.010858 41.7416 
L 160.010858 32.615682 
L 161.157985 32.615682 
L 161.157985 38.273751 
L 162.305111 38.273751 
L 162.305111 36.083531 
L 163.452237 36.083531 
L 163.452237 39.003824 
L 164.599363 39.003824 
L 164.599363 32.615682 
L 165.746489 32.615682 
L 165.746489 30.060425 
L 166.893615 30.060425 
L 166.893615 34.258347 
L 168.040742 34.258347 
L 168.040742 34.805902 
L 169.187868 34.805902 
L 169.187868 43.019228 
L 170.334994 43.019228 
L 170.334994 36.266049 
L 171.48212 36.266049 
L 171.48212 32.615682 
L 172.629246 32.615682 
L 172.629246 45.939522 
L 173.776372 45.939522 
L 173.776372 34.258347 
L 174.923499 34.258347 
L 174.923499 34.805902 
L 176.070625 34.805902 
L 176.070625 25.497466 
L 177.217751 25.497466 
L 177.217751 29.330351 
L 178.364877 29.330351 
L 178.364877 42.106636 
L 179.512003 42.106636 
L 179.512003 30.425461 
L 180.659129 30.425461 
L 180.659129 38.273751 
L 182.953382 38.273751 
L 182.953382 37.726196 
L 184.100508 37.726196 
L 184.100508 37.908714 
L 185.247634 37.908714 
L 185.247634 38.638788 
L 186.39476 38.638788 
L 186.39476 33.163237 
L 187.541886 33.163237 
L 187.541886 37.178641 
L 188.689013 37.178641 
L 188.689013 35.718494 
L 189.836139 35.718494 
L 189.836139 34.98842 
L 190.983265 34.98842 
L 190.983265 41.559081 
L 192.130391 41.559081 
L 192.130391 38.273751 
L 194.424643 38.273751 
L 194.424643 41.559081 
L 195.57177 41.559081 
L 195.57177 18.561768 
L 196.718896 18.561768 
L 196.718896 35.901012 
L 197.866022 35.901012 
L 197.866022 43.566783 
L 199.013148 43.566783 
L 199.013148 43.201747 
L 200.160274 43.201747 
L 200.160274 41.7416 
L 201.3074 41.7416 
L 201.3074 23.489764 
L 202.454527 23.489764 
L 202.454527 35.353457 
L 203.601653 35.353457 
L 203.601653 34.440865 
L 204.748779 34.440865 
L 204.748779 28.235241 
L 205.895905 28.235241 
L 205.895905 30.790498 
L 207.043031 30.790498 
L 207.043031 37.361159 
L 208.190157 37.361159 
L 208.190157 35.353457 
L 209.337284 35.353457 
L 209.337284 40.098935 
L 210.48441 40.098935 
L 210.48441 26.957613 
L 211.631536 26.957613 
L 211.631536 27.505168 
L 212.778662 27.505168 
L 212.778662 26.410057 
L 213.925788 26.410057 
L 213.925788 40.463971 
L 215.072914 40.463971 
L 215.072914 32.980718 
L 216.220041 32.980718 
L 216.220041 27.870204 
L 217.367167 27.870204 
L 217.367167 33.89331 
L 218.514293 33.89331 
L 218.514293 29.695388 
L 219.661419 29.695388 
L 219.661419 32.068127 
L 220.808545 32.068127 
L 220.808545 28.782796 
L 221.955671 28.782796 
L 221.955671 44.296857 
L 223.102798 44.296857 
L 223.102798 38.456269 
L 224.249924 38.456269 
L 224.249924 34.258347 
L 225.39705 34.258347 
L 225.39705 35.353457 
L 226.544176 35.353457 
L 226.544176 30.425461 
L 227.691302 30.425461 
L 227.691302 28.782796 
L 228.838428 28.782796 
L 228.838428 38.091233 
L 229.985555 38.091233 
L 229.985555 35.535976 
L 231.132681 35.535976 
L 231.132681 43.201747 
L 232.279807 43.201747 
L 232.279807 29.330351 
L 233.426933 29.330351 
L 233.426933 28.417759 
L 234.574059 28.417759 
L 234.574059 48.312261 
L 235.721185 48.312261 
L 235.721185 28.235241 
L 236.868312 28.235241 
L 236.868312 40.281453 
L 238.015438 40.281453 
L 238.015438 34.98842 
L 239.162564 34.98842 
L 239.162564 37.543677 
L 240.30969 37.543677 
L 240.30969 34.258347 
L 241.456816 34.258347 
L 241.456816 25.862502 
L 242.603942 25.862502 
L 242.603942 44.114338 
L 243.751069 44.114338 
L 243.751069 32.068127 
L 244.898195 32.068127 
L 244.898195 42.106636 
L 246.045321 42.106636 
L 246.045321 31.338053 
L 247.192447 31.338053 
L 247.192447 35.718494 
L 248.339573 35.718494 
L 248.339573 37.726196 
L 249.486699 37.726196 
L 249.486699 32.7982 
L 250.633826 32.7982 
L 250.633826 33.345755 
L 251.780952 33.345755 
L 251.780952 30.242943 
L 252.928078 30.242943 
L 252.928078 42.106636 
L 254.075204 42.106636 
L 254.075204 37.178641 
L 255.22233 37.178641 
L 255.22233 42.83671 
L 256.369456 42.83671 
L 256.369456 35.901012 
L 257.516583 35.901012 
L 257.516583 41.376563 
L 258.663709 41.376563 
L 258.663709 44.661894 
L 259.810835 44.661894 
L 259.810835 32.7982 
L 260.957961 32.7982 
L 260.957961 29.51287 
L 262.105087 29.51287 
L 262.105087 33.528274 
L 263.252213 33.528274 
L 263.252213 32.615682 
L 264.39934 32.615682 
L 264.39934 39.003824 
L 265.546466 39.003824 
L 265.546466 27.505168 
L 266.693592 27.505168 
L 266.693592 39.368861 
L 267.840718 39.368861 
L 267.840718 39.733898 
L 268.987844 39.733898 
L 268.987844 41.376563 
L 270.13497 41.376563 
L 270.13497 49.589889 
L 271.282097 49.589889 
L 271.282097 63.096248 
L 272.429223 63.096248 
L 272.429223 70.944537 
L 273.576349 70.944537 
L 273.576349 74.412386 
L 274.723475 74.412386 
L 274.723475 87.736227 
L 275.870601 87.736227 
L 275.870601 98.687328 
L 277.017727 98.687328 
L 277.017727 99.59992 
L 278.164854 99.59992 
L 278.164854 102.885251 
L 279.31198 102.885251 
L 279.31198 114.383907 
L 280.459106 114.383907 
L 280.459106 137.563739 
L 281.606232 137.563739 
L 281.606232 131.90567 
L 282.753358 131.90567 
L 282.753358 140.666551 
L 283.900484 140.666551 
L 283.900484 151.252616 
L 285.047611 151.252616 
L 285.047611 145.412029 
L 286.194737 145.412029 
L 286.194737 155.450538 
L 287.341863 155.450538 
L 287.341863 162.933791 
L 288.488989 162.933791 
L 288.488989 167.314232 
L 289.636115 167.314232 
L 289.636115 172.789783 
L 290.783241 172.789783 
L 290.783241 176.44015 
L 291.930368 176.44015 
L 291.930368 178.082815 
L 293.077494 178.082815 
L 293.077494 176.622668 
L 294.22462 176.622668 
L 294.22462 185.566068 
L 295.371746 185.566068 
L 295.371746 184.653476 
L 296.518872 184.653476 
L 296.518872 182.463256 
L 297.665998 182.463256 
L 297.665998 189.033917 
L 298.813125 189.033917 
L 298.813125 201.99272 
L 299.960251 201.99272 
L 299.960251 204.182941 
L 301.107377 204.182941 
L 301.107377 200.715092 
L 302.254503 200.715092 
L 302.254503 204.547978 
L 303.401629 204.547978 
L 303.401629 206.373161 
L 304.548755 206.373161 
L 304.548755 208.563381 
L 305.695882 208.563381 
L 305.695882 210.388565 
L 306.843008 210.388565 
L 306.843008 212.213749 
L 307.990134 212.213749 
L 307.990134 215.499079 
L 309.13726 215.499079 
L 309.13726 213.12634 
L 310.284386 213.12634 
L 310.284386 218.054336 
L 311.431512 218.054336 
L 311.431512 222.617295 
L 312.578639 222.617295 
L 312.578639 218.601891 
L 313.725765 218.601891 
L 313.725765 222.982332 
L 314.872891 222.982332 
L 314.872891 222.799814 
L 316.020017 222.799814 
L 316.020017 222.252259 
L 317.167143 222.252259 
L 317.167143 224.442479 
L 318.314269 224.442479 
L 318.314269 226.815218 
L 319.461396 226.815218 
L 319.461396 225.902626 
L 320.608522 225.902626 
L 320.608522 231.560695 
L 321.755648 231.560695 
L 321.755648 229.91803 
L 322.902774 229.91803 
L 322.902774 231.01314 
L 324.0499 231.01314 
L 324.0499 230.283066 
L 325.197026 230.283066 
L 325.197026 233.20336 
L 326.344153 233.20336 
L 326.344153 233.385879 
L 327.491279 233.385879 
L 327.491279 230.283066 
L 328.638405 230.283066 
L 328.638405 233.385879 
L 329.785531 233.385879 
L 329.785531 233.933434 
L 330.932657 233.933434 
L 330.932657 235.576099 
L 332.079783 235.576099 
L 332.079783 236.306172 
L 333.22691 236.306172 
L 333.22691 235.941136 
L 334.374036 235.941136 
L 334.374036 236.671209 
L 335.521162 236.671209 
L 335.521162 236.123654 
L 336.668288 236.123654 
L 336.668288 236.853727 
L 337.815414 236.853727 
L 337.815414 237.766319 
L 338.96254 237.766319 
L 338.96254 237.583801 
L 340.109667 237.583801 
L 340.109667 237.948838 
L 341.256793 237.948838 
L 341.256793 239.408984 
L 342.403919 239.408984 
L 342.403919 240.139058 
L 343.551045 240.139058 
L 343.551045 241.234168 
L 344.698171 241.234168 
L 344.698171 239.408984 
L 345.845297 239.408984 
L 345.845297 239.591503 
L 346.992424 239.591503 
L 346.992424 239.408984 
L 348.13955 239.408984 
L 348.13955 242.329278 
L 349.286676 242.329278 
L 349.286676 240.869131 
L 350.433802 240.869131 
L 350.433802 242.14676 
L 351.580928 242.14676 
L 351.580928 242.511797 
L 352.728054 242.511797 
L 352.728054 242.694315 
L 353.875181 242.694315 
L 353.875181 240.504095 
L 355.022307 240.504095 
L 355.022307 242.329278 
L 356.169433 242.329278 
L 356.169433 243.24187 
L 357.316559 243.24187 
L 357.316559 242.694315 
L 358.463685 242.694315 
L 358.463685 243.424388 
L 359.610811 243.424388 
L 359.610811 242.876833 
L 360.757938 242.876833 
L 360.757938 243.424388 
L 361.905064 243.424388 
L 361.905064 242.876833 
L 363.05219 242.876833 
L 363.05219 242.694315 
L 365.346442 242.694315 
L 365.346442 244.33698 
L 366.493568 244.33698 
L 366.493568 244.519499 
L 367.640695 244.519499 
L 367.640695 243.789425 
L 368.787821 243.789425 
L 368.787821 243.424388 
L 369.934947 243.424388 
L 369.934947 244.702017 
L 371.082073 244.702017 
L 371.082073 243.789425 
L 372.229199 243.789425 
L 372.229199 244.884535 
L 373.376325 244.884535 
L 373.376325 242.876833 
L 374.523452 242.876833 
L 374.523452 244.33698 
L 375.670578 244.33698 
L 375.670578 243.789425 
L 376.817704 243.789425 
L 376.817704 245.067054 
L 377.96483 245.067054 
L 377.96483 245.249572 
L 379.111956 245.249572 
L 379.111956 244.519499 
L 380.259082 244.519499 
L 380.259082 245.249572 
L 381.406209 245.249572 
L 381.406209 244.884535 
L 382.553335 244.884535 
L 382.553335 245.614609 
L 383.700461 245.614609 
L 383.700461 244.519499 
L 384.847587 244.519499 
L 384.847587 244.884535 
L 389.436092 244.884535 
L 389.436092 245.249572 
L 390.583218 245.249572 
L 390.583218 244.519499 
L 391.730344 244.519499 
L 391.730344 245.614609 
L 394.024596 245.614609 
L 394.024596 245.067054 
L 395.171723 245.067054 
L 395.171723 244.884535 
L 396.318849 244.884535 
L 396.318849 245.43209 
L 402.05448 245.43209 
L 402.05448 245.614609 
L 403.201606 245.614609 
L 403.201606 245.43209 
L 404.348732 245.43209 
L 404.348732 245.614609 
L 405.495858 245.614609 
L 405.495858 244.884535 
L 406.642984 244.884535 
L 406.642984 245.067054 
L 407.79011 245.067054 
L 407.79011 245.797127 
L 408.937237 245.797127 
L 408.937237 245.43209 
L 410.084363 245.43209 
L 410.084363 245.797127 
L 411.231489 245.797127 
L 411.231489 245.614609 
L 412.378615 245.614609 
L 412.378615 245.43209 
L 413.525741 245.43209 
L 413.525741 245.614609 
L 414.672867 245.614609 
L 414.672867 245.614609 
" clip-path="url(#p491524abc2)" style="fill: none; stroke: #1f77b4; stroke-width: 1.5; stroke-linecap: square"/>
   </g>
   <g id="patch_3">
    <path d="M 53.328125 257.158895 
L 53.328125 7.2 
" style="fill: none; stroke: #000000; stroke-width: 0.8; stroke-linejoin: miter; stroke-linecap: square"/>
   </g>
   <g id="patch_4">
    <path d="M 431.87976 257.158895 
L 431.87976 7.2 
" style="fill: none; stroke: #000000; stroke-width: 0.8; stroke-linejoin: miter; stroke-linecap: square"/>
   </g>
   <g id="patch_5">
    <path d="M 53.328125 257.158895 
L 431.87976 257.158895 
" style="fill: none; stroke: #000000; stroke-width: 0.8; stroke-linejoin: miter; stroke-linecap: square"/>
   </g>
   <g id="patch_6">
    <path d="M 53.328125 7.2 
L 431.87976 7.2 
" style="fill: none; stroke: #000000; stroke-width: 0.8; stroke-linejoin: miter; stroke-linecap: square"/>
   </g>
  </g>
  <g id="axes_2">
   <g id="patch_7">
    <path d="M 486.647885 257.158895 
L 865.19952 257.158895 
L 865.19952 7.2 
L 486.647885 7.2 
z
" style="fill: #ffffff"/>
   </g>
   <g id="matplotlib.axis_3">
    <g id="xtick_7">
     <g id="line2d_15">
      <g>
       <use xlink:href="#m02d2193e7f" x="500.383207" y="257.158895" style="stroke: #000000; stroke-width: 0.8"/>
      </g>
     </g>
     <g id="text_16">
      <!-- 0.0 -->
      <g transform="translate(492.431645 271.757332) scale(0.1 -0.1)">
       <defs>
        <path id="DejaVuSans-2e" d="M 684 794 
L 1344 794 
L 1344 0 
L 684 0 
L 684 794 
z
" transform="scale(0.015625)"/>
       </defs>
       <use xlink:href="#DejaVuSans-30"/>
       <use xlink:href="#DejaVuSans-2e" transform="translate(63.623047 0)"/>
       <use xlink:href="#DejaVuSans-30" transform="translate(95.410156 0)"/>
      </g>
     </g>
    </g>
    <g id="xtick_8">
     <g id="line2d_16">
      <g>
       <use xlink:href="#m02d2193e7f" x="544.090015" y="257.158895" style="stroke: #000000; stroke-width: 0.8"/>
      </g>
     </g>
     <g id="text_17">
      <!-- 2.5 -->
      <g transform="translate(536.138452 271.757332) scale(0.1 -0.1)">
       <use xlink:href="#DejaVuSans-32"/>
       <use xlink:href="#DejaVuSans-2e" transform="translate(63.623047 0)"/>
       <use xlink:href="#DejaVuSans-35" transform="translate(95.410156 0)"/>
      </g>
     </g>
    </g>
    <g id="xtick_9">
     <g id="line2d_17">
      <g>
       <use xlink:href="#m02d2193e7f" x="587.796823" y="257.158895" style="stroke: #000000; stroke-width: 0.8"/>
      </g>
     </g>
     <g id="text_18">
      <!-- 5.0 -->
      <g transform="translate(579.84526 271.757332) scale(0.1 -0.1)">
       <use xlink:href="#DejaVuSans-35"/>
       <use xlink:href="#DejaVuSans-2e" transform="translate(63.623047 0)"/>
       <use xlink:href="#DejaVuSans-30" transform="translate(95.410156 0)"/>
      </g>
     </g>
    </g>
    <g id="xtick_10">
     <g id="line2d_18">
      <g>
       <use xlink:href="#m02d2193e7f" x="631.503631" y="257.158895" style="stroke: #000000; stroke-width: 0.8"/>
      </g>
     </g>
     <g id="text_19">
      <!-- 7.5 -->
      <g transform="translate(623.552068 271.757332) scale(0.1 -0.1)">
       <defs>
        <path id="DejaVuSans-37" d="M 525 4666 
L 3525 4666 
L 3525 4397 
L 1831 0 
L 1172 0 
L 2766 4134 
L 525 4134 
L 525 4666 
z
" transform="scale(0.015625)"/>
       </defs>
       <use xlink:href="#DejaVuSans-37"/>
       <use xlink:href="#DejaVuSans-2e" transform="translate(63.623047 0)"/>
       <use xlink:href="#DejaVuSans-35" transform="translate(95.410156 0)"/>
      </g>
     </g>
    </g>
    <g id="xtick_11">
     <g id="line2d_19">
      <g>
       <use xlink:href="#m02d2193e7f" x="675.210438" y="257.158895" style="stroke: #000000; stroke-width: 0.8"/>
      </g>
     </g>
     <g id="text_20">
      <!-- 10.0 -->
      <g transform="translate(664.077626 271.757332) scale(0.1 -0.1)">
       <use xlink:href="#DejaVuSans-31"/>
       <use xlink:href="#DejaVuSans-30" transform="translate(63.623047 0)"/>
       <use xlink:href="#DejaVuSans-2e" transform="translate(127.246094 0)"/>
       <use xlink:href="#DejaVuSans-30" transform="translate(159.033203 0)"/>
      </g>
     </g>
    </g>
    <g id="xtick_12">
     <g id="line2d_20">
      <g>
       <use xlink:href="#m02d2193e7f" x="718.917246" y="257.158895" style="stroke: #000000; stroke-width: 0.8"/>
      </g>
     </g>
     <g id="text_21">
      <!-- 12.5 -->
      <g transform="translate(707.784434 271.757332) scale(0.1 -0.1)">
       <use xlink:href="#DejaVuSans-31"/>
       <use xlink:href="#DejaVuSans-32" transform="translate(63.623047 0)"/>
       <use xlink:href="#DejaVuSans-2e" transform="translate(127.246094 0)"/>
       <use xlink:href="#DejaVuSans-35" transform="translate(159.033203 0)"/>
      </g>
     </g>
    </g>
    <g id="xtick_13">
     <g id="line2d_21">
      <g>
       <use xlink:href="#m02d2193e7f" x="762.624054" y="257.158895" style="stroke: #000000; stroke-width: 0.8"/>
      </g>
     </g>
     <g id="text_22">
      <!-- 15.0 -->
      <g transform="translate(751.491241 271.757332) scale(0.1 -0.1)">
       <use xlink:href="#DejaVuSans-31"/>
       <use xlink:href="#DejaVuSans-35" transform="translate(63.623047 0)"/>
       <use xlink:href="#DejaVuSans-2e" transform="translate(127.246094 0)"/>
       <use xlink:href="#DejaVuSans-30" transform="translate(159.033203 0)"/>
      </g>
     </g>
    </g>
    <g id="xtick_14">
     <g id="line2d_22">
      <g>
       <use xlink:href="#m02d2193e7f" x="806.330862" y="257.158895" style="stroke: #000000; stroke-width: 0.8"/>
      </g>
     </g>
     <g id="text_23">
      <!-- 17.5 -->
      <g transform="translate(795.198049 271.757332) scale(0.1 -0.1)">
       <use xlink:href="#DejaVuSans-31"/>
       <use xlink:href="#DejaVuSans-37" transform="translate(63.623047 0)"/>
       <use xlink:href="#DejaVuSans-2e" transform="translate(127.246094 0)"/>
       <use xlink:href="#DejaVuSans-35" transform="translate(159.033203 0)"/>
      </g>
     </g>
    </g>
    <g id="xtick_15">
     <g id="line2d_23">
      <g>
       <use xlink:href="#m02d2193e7f" x="850.03767" y="257.158895" style="stroke: #000000; stroke-width: 0.8"/>
      </g>
     </g>
     <g id="text_24">
      <!-- 20.0 -->
      <g transform="translate(838.904857 271.757332) scale(0.1 -0.1)">
       <use xlink:href="#DejaVuSans-32"/>
       <use xlink:href="#DejaVuSans-30" transform="translate(63.623047 0)"/>
       <use xlink:href="#DejaVuSans-2e" transform="translate(127.246094 0)"/>
       <use xlink:href="#DejaVuSans-30" transform="translate(159.033203 0)"/>
      </g>
     </g>
    </g>
    <g id="text_25">
     <!-- wavelength [Å] -->
     <g transform="translate(637.886202 287.119832) scale(0.1 -0.1)">
      <defs>
       <path id="DejaVuSans-77" d="M 269 3500 
L 844 3500 
L 1563 769 
L 2278 3500 
L 2956 3500 
L 3675 769 
L 4391 3500 
L 4966 3500 
L 4050 0 
L 3372 0 
L 2619 2869 
L 1863 0 
L 1184 0 
L 269 3500 
z
" transform="scale(0.015625)"/>
       <path id="DejaVuSans-61" d="M 2194 1759 
Q 1497 1759 1228 1600 
Q 959 1441 959 1056 
Q 959 750 1161 570 
Q 1363 391 1709 391 
Q 2188 391 2477 730 
Q 2766 1069 2766 1631 
L 2766 1759 
L 2194 1759 
z
M 3341 1997 
L 3341 0 
L 2766 0 
L 2766 531 
Q 2569 213 2275 61 
Q 1981 -91 1556 -91 
Q 1019 -91 701 211 
Q 384 513 384 1019 
Q 384 1609 779 1909 
Q 1175 2209 1959 2209 
L 2766 2209 
L 2766 2266 
Q 2766 2663 2505 2880 
Q 2244 3097 1772 3097 
Q 1472 3097 1187 3025 
Q 903 2953 641 2809 
L 641 3341 
Q 956 3463 1253 3523 
Q 1550 3584 1831 3584 
Q 2591 3584 2966 3190 
Q 3341 2797 3341 1997 
z
" transform="scale(0.015625)"/>
       <path id="DejaVuSans-76" d="M 191 3500 
L 800 3500 
L 1894 563 
L 2988 3500 
L 3597 3500 
L 2284 0 
L 1503 0 
L 191 3500 
z
" transform="scale(0.015625)"/>
       <path id="DejaVuSans-6c" d="M 603 4863 
L 1178 4863 
L 1178 0 
L 603 0 
L 603 4863 
z
" transform="scale(0.015625)"/>
       <path id="DejaVuSans-67" d="M 2906 1791 
Q 2906 2416 2648 2759 
Q 2391 3103 1925 3103 
Q 1463 3103 1205 2759 
Q 947 2416 947 1791 
Q 947 1169 1205 825 
Q 1463 481 1925 481 
Q 2391 481 2648 825 
Q 2906 1169 2906 1791 
z
M 3481 434 
Q 3481 -459 3084 -895 
Q 2688 -1331 1869 -1331 
Q 1566 -1331 1297 -1286 
Q 1028 -1241 775 -1147 
L 775 -588 
Q 1028 -725 1275 -790 
Q 1522 -856 1778 -856 
Q 2344 -856 2625 -561 
Q 2906 -266 2906 331 
L 2906 616 
Q 2728 306 2450 153 
Q 2172 0 1784 0 
Q 1141 0 747 490 
Q 353 981 353 1791 
Q 353 2603 747 3093 
Q 1141 3584 1784 3584 
Q 2172 3584 2450 3431 
Q 2728 3278 2906 2969 
L 2906 3500 
L 3481 3500 
L 3481 434 
z
" transform="scale(0.015625)"/>
       <path id="DejaVuSans-c5" d="M 2663 5081 
Q 2663 5278 2523 5417 
Q 2384 5556 2188 5556 
Q 1988 5556 1852 5420 
Q 1716 5284 1716 5081 
Q 1716 4884 1853 4746 
Q 1991 4609 2188 4609 
Q 2384 4609 2523 4746 
Q 2663 4884 2663 5081 
z
M 2188 4044 
L 1338 1722 
L 3041 1722 
L 2188 4044 
z
M 1716 4366 
Q 1525 4494 1428 4673 
Q 1331 4853 1331 5081 
Q 1331 5441 1579 5691 
Q 1828 5941 2188 5941 
Q 2544 5941 2795 5689 
Q 3047 5438 3047 5081 
Q 3047 4863 2948 4678 
Q 2850 4494 2663 4366 
L 4325 0 
L 3669 0 
L 3244 1197 
L 1141 1197 
L 716 0 
L 50 0 
L 1716 4366 
z
" transform="scale(0.015625)"/>
      </defs>
      <use xlink:href="#DejaVuSans-77"/>
      <use xlink:href="#DejaVuSans-61" transform="translate(81.787109 0)"/>
      <use xlink:href="#DejaVuSans-76" transform="translate(143.066406 0)"/>
      <use xlink:href="#DejaVuSans-65" transform="translate(202.246094 0)"/>
      <use xlink:href="#DejaVuSans-6c" transform="translate(263.769531 0)"/>
      <use xlink:href="#DejaVuSans-65" transform="translate(291.552734 0)"/>
      <use xlink:href="#DejaVuSans-6e" transform="translate(353.076172 0)"/>
      <use xlink:href="#DejaVuSans-67" transform="translate(416.455078 0)"/>
      <use xlink:href="#DejaVuSans-74" transform="translate(479.931641 0)"/>
      <use xlink:href="#DejaVuSans-68" transform="translate(519.140625 0)"/>
      <use xlink:href="#DejaVuSans-20" transform="translate(582.519531 0)"/>
      <use xlink:href="#DejaVuSans-5b" transform="translate(614.306641 0)"/>
      <use xlink:href="#DejaVuSans-c5" transform="translate(653.320312 0)"/>
      <use xlink:href="#DejaVuSans-5d" transform="translate(721.728516 0)"/>
     </g>
    </g>
   </g>
   <g id="matplotlib.axis_4">
    <g id="ytick_8">
     <g id="line2d_24">
      <g>
       <use xlink:href="#m219cd69564" x="486.647885" y="245.797127" style="stroke: #000000; stroke-width: 0.8"/>
      </g>
     </g>
     <g id="text_26">
      <!-- 0 -->
      <g transform="translate(473.285385 249.596346) scale(0.1 -0.1)">
       <use xlink:href="#DejaVuSans-30"/>
      </g>
     </g>
    </g>
    <g id="ytick_9">
     <g id="line2d_25">
      <g>
       <use xlink:href="#m219cd69564" x="486.647885" y="193.678925" style="stroke: #000000; stroke-width: 0.8"/>
      </g>
     </g>
     <g id="text_27">
      <!-- 1000 -->
      <g transform="translate(454.197885 197.478144) scale(0.1 -0.1)">
       <use xlink:href="#DejaVuSans-31"/>
       <use xlink:href="#DejaVuSans-30" transform="translate(63.623047 0)"/>
       <use xlink:href="#DejaVuSans-30" transform="translate(127.246094 0)"/>
       <use xlink:href="#DejaVuSans-30" transform="translate(190.869141 0)"/>
      </g>
     </g>
    </g>
    <g id="ytick_10">
     <g id="line2d_26">
      <g>
       <use xlink:href="#m219cd69564" x="486.647885" y="141.560724" style="stroke: #000000; stroke-width: 0.8"/>
      </g>
     </g>
     <g id="text_28">
      <!-- 2000 -->
      <g transform="translate(454.197885 145.359943) scale(0.1 -0.1)">
       <use xlink:href="#DejaVuSans-32"/>
       <use xlink:href="#DejaVuSans-30" transform="translate(63.623047 0)"/>
       <use xlink:href="#DejaVuSans-30" transform="translate(127.246094 0)"/>
       <use xlink:href="#DejaVuSans-30" transform="translate(190.869141 0)"/>
      </g>
     </g>
    </g>
    <g id="ytick_11">
     <g id="line2d_27">
      <g>
       <use xlink:href="#m219cd69564" x="486.647885" y="89.442522" style="stroke: #000000; stroke-width: 0.8"/>
      </g>
     </g>
     <g id="text_29">
      <!-- 3000 -->
      <g transform="translate(454.197885 93.241741) scale(0.1 -0.1)">
       <use xlink:href="#DejaVuSans-33"/>
       <use xlink:href="#DejaVuSans-30" transform="translate(63.623047 0)"/>
       <use xlink:href="#DejaVuSans-30" transform="translate(127.246094 0)"/>
       <use xlink:href="#DejaVuSans-30" transform="translate(190.869141 0)"/>
      </g>
     </g>
    </g>
    <g id="ytick_12">
     <g id="line2d_28">
      <g>
       <use xlink:href="#m219cd69564" x="486.647885" y="37.324321" style="stroke: #000000; stroke-width: 0.8"/>
      </g>
     </g>
     <g id="text_30">
      <!-- 4000 -->
      <g transform="translate(454.197885 41.123539) scale(0.1 -0.1)">
       <use xlink:href="#DejaVuSans-34"/>
       <use xlink:href="#DejaVuSans-30" transform="translate(63.623047 0)"/>
       <use xlink:href="#DejaVuSans-30" transform="translate(127.246094 0)"/>
       <use xlink:href="#DejaVuSans-30" transform="translate(190.869141 0)"/>
      </g>
     </g>
    </g>
    <g id="text_31">
     <!-- [counts] -->
     <g transform="translate(448.118197 152.791947) rotate(-90) scale(0.1 -0.1)">
      <use xlink:href="#DejaVuSans-5b"/>
      <use xlink:href="#DejaVuSans-63" transform="translate(39.013672 0)"/>
      <use xlink:href="#DejaVuSans-6f" transform="translate(93.994141 0)"/>
      <use xlink:href="#DejaVuSans-75" transform="translate(155.175781 0)"/>
      <use xlink:href="#DejaVuSans-6e" transform="translate(218.554688 0)"/>
      <use xlink:href="#DejaVuSans-74" transform="translate(281.933594 0)"/>
      <use xlink:href="#DejaVuSans-73" transform="translate(321.142578 0)"/>
      <use xlink:href="#DejaVuSans-5d" transform="translate(373.242188 0)"/>
     </g>
    </g>
   </g>
   <g id="line2d_29">
    <path d="M 503.854777 154.329683 
L 505.001904 154.329683 
L 505.001904 144.27087 
L 506.14903 144.27087 
L 506.14903 142.446733 
L 507.296156 142.446733 
L 507.296156 136.088313 
L 508.443282 136.088313 
L 508.443282 148.388208 
L 509.590408 148.388208 
L 509.590408 148.648799 
L 510.737534 148.648799 
L 510.737534 146.199244 
L 511.884661 146.199244 
L 511.884661 131.866738 
L 513.031787 131.866738 
L 513.031787 104.556801 
L 514.178913 104.556801 
L 514.178913 79.331591 
L 515.326039 79.331591 
L 515.326039 60.933866 
L 516.473165 60.933866 
L 516.473165 41.754368 
L 517.620291 41.754368 
L 517.620291 24.972307 
L 518.767418 24.972307 
L 518.767418 18.561768 
L 519.914544 18.561768 
L 519.914544 22.366397 
L 521.06167 22.366397 
L 521.06167 22.626988 
L 522.208796 22.626988 
L 522.208796 39.044221 
L 523.355922 39.044221 
L 523.355922 43.99545 
L 524.503048 43.99545 
L 524.503048 54.210618 
L 525.650175 54.210618 
L 525.650175 59.318202 
L 526.797301 59.318202 
L 526.797301 76.048144 
L 527.944427 76.048144 
L 527.944427 80.478191 
L 529.091553 80.478191 
L 529.091553 85.377302 
L 530.238679 85.377302 
L 530.238679 89.703113 
L 531.385805 89.703113 
L 531.385805 91.423014 
L 532.532932 91.423014 
L 532.532932 103.358082 
L 533.680058 103.358082 
L 533.680058 96.686952 
L 534.827184 96.686952 
L 534.827184 95.748825 
L 535.97431 95.748825 
L 535.97431 93.403505 
L 537.121436 93.403505 
L 537.121436 88.087449 
L 538.268562 88.087449 
L 538.268562 81.833265 
L 539.415689 81.833265 
L 539.415689 74.588835 
L 540.562815 74.588835 
L 540.562815 62.914358 
L 541.709941 62.914358 
L 541.709941 51.656826 
L 542.857067 51.656826 
L 542.857067 44.777223 
L 544.004193 44.777223 
L 544.004193 38.470921 
L 545.151319 38.470921 
L 545.151319 30.913782 
L 546.298446 30.913782 
L 546.298446 42.379786 
L 547.445572 42.379786 
L 547.445572 48.477616 
L 548.592698 48.477616 
L 548.592698 60.152093 
L 549.739824 60.152093 
L 549.739824 77.03839 
L 550.88695 77.03839 
L 550.88695 78.758291 
L 552.034076 78.758291 
L 552.034076 91.839959 
L 553.181203 91.839959 
L 553.181203 95.331879 
L 554.328329 95.331879 
L 554.328329 110.341921 
L 555.475455 110.341921 
L 555.475455 112.583004 
L 556.622581 112.583004 
L 556.622581 118.107533 
L 557.769707 118.107533 
L 557.769707 127.071864 
L 558.916833 127.071864 
L 558.916833 130.251074 
L 560.06396 130.251074 
L 560.06396 138.329395 
L 561.211086 138.329395 
L 561.211086 144.427225 
L 562.358212 144.427225 
L 562.358212 148.440326 
L 563.505338 148.440326 
L 563.505338 150.264463 
L 564.652464 150.264463 
L 564.652464 158.499139 
L 565.79959 158.499139 
L 565.79959 163.294014 
L 566.946717 163.294014 
L 566.946717 168.03677 
L 568.093843 168.03677 
L 568.093843 169.548198 
L 569.240969 169.548198 
L 569.240969 176.219328 
L 570.388095 176.219328 
L 570.388095 179.659129 
L 571.535221 179.659129 
L 571.535221 181.535384 
L 572.682347 181.535384 
L 572.682347 183.255285 
L 573.829474 183.255285 
L 573.829474 184.662477 
L 574.9766 184.662477 
L 574.9766 190.239124 
L 576.123726 190.239124 
L 576.123726 191.906907 
L 577.270852 191.906907 
L 577.270852 197.431436 
L 578.417978 197.431436 
L 578.417978 198.838627 
L 579.565104 198.838627 
L 579.565104 197.744145 
L 580.712231 197.744145 
L 580.712231 200.50641 
L 581.859357 200.50641 
L 581.859357 202.643256 
L 583.006483 202.643256 
L 583.006483 205.926703 
L 584.153609 205.926703 
L 584.153609 206.395767 
L 585.300735 206.395767 
L 585.300735 208.428376 
L 586.447861 208.428376 
L 586.447861 211.242759 
L 587.594988 211.242759 
L 587.594988 211.659705 
L 589.88924 211.555469 
L 589.88924 214.42197 
L 591.036366 214.42197 
L 591.036366 215.099506 
L 593.330618 215.151624 
L 593.330618 220.102854 
L 595.624871 220.154972 
L 595.624871 218.695662 
L 596.771997 218.695662 
L 596.771997 222.500291 
L 597.919123 222.500291 
L 597.919123 221.926991 
L 599.066249 221.926991 
L 599.066249 222.656646 
L 600.213375 222.656646 
L 600.213375 222.917237 
L 601.360502 222.917237 
L 601.360502 226.669747 
L 602.507628 226.669747 
L 602.507628 228.181175 
L 603.654754 228.181175 
L 603.654754 228.389648 
L 604.80188 228.389648 
L 604.80188 228.754475 
L 605.949006 228.754475 
L 605.949006 227.347284 
L 607.096132 227.347284 
L 607.096132 228.441766 
L 608.243259 228.441766 
L 608.243259 230.526494 
L 609.390385 230.526494 
L 609.390385 229.327775 
L 610.537511 229.327775 
L 610.537511 231.881567 
L 611.684637 231.881567 
L 611.684637 231.620976 
L 612.831763 231.620976 
L 612.831763 232.194276 
L 613.978889 232.194276 
L 613.978889 231.933685 
L 616.273142 231.881567 
L 616.273142 234.435359 
L 617.420268 234.435359 
L 617.420268 233.23664 
L 618.567394 233.23664 
L 618.567394 234.070532 
L 619.71452 234.070532 
L 619.71452 235.477723 
L 620.861647 235.477723 
L 620.861647 235.946787 
L 622.008773 235.946787 
L 622.008773 236.15526 
L 623.155899 236.15526 
L 623.155899 235.529841 
L 624.303025 235.529841 
L 624.303025 236.989151 
L 625.450151 236.989151 
L 625.450151 237.249742 
L 626.597277 237.249742 
L 626.597277 237.666688 
L 627.744403 237.666688 
L 627.744403 237.353978 
L 628.89153 237.353978 
L 628.89153 237.197624 
L 630.038656 237.197624 
L 630.038656 238.18787 
L 631.185782 238.18787 
L 631.185782 238.604815 
L 632.332908 238.604815 
L 632.332908 238.969643 
L 633.480034 238.969643 
L 633.480034 239.595061 
L 635.774287 239.595061 
L 635.774287 239.438706 
L 636.921413 239.438706 
L 636.921413 238.552697 
L 638.068539 238.552697 
L 638.068539 240.585307 
L 639.215665 240.585307 
L 639.215665 239.595061 
L 640.362791 239.595061 
L 640.362791 241.731907 
L 641.509918 241.731907 
L 641.509918 240.116243 
L 642.657044 240.116243 
L 642.657044 240.324716 
L 644.951296 240.220479 
L 644.951296 239.33447 
L 646.098422 239.33447 
L 646.098422 241.002252 
L 648.392674 240.898016 
L 648.392674 240.689543 
L 649.539801 240.689543 
L 649.539801 241.575553 
L 650.686927 241.575553 
L 650.686927 241.158607 
L 652.981179 241.054371 
L 652.981179 241.471316 
L 654.128305 241.471316 
L 654.128305 241.784026 
L 656.422558 241.888262 
L 656.422558 241.314962 
L 658.71681 241.262844 
L 658.71681 242.930626 
L 659.863936 242.930626 
L 659.863936 242.253089 
L 661.011062 242.253089 
L 661.011062 241.992498 
L 662.158189 241.992498 
L 662.158189 242.722153 
L 664.452441 242.82639 
L 664.452441 243.139099 
L 665.599567 243.139099 
L 665.599567 242.51368 
L 666.746693 242.51368 
L 666.746693 242.253089 
L 667.893819 242.253089 
L 667.893819 243.191217 
L 671.335198 243.086981 
L 671.335198 242.774271 
L 672.482324 242.774271 
L 672.482324 243.503926 
L 673.62945 243.503926 
L 673.62945 242.878508 
L 674.776576 242.878508 
L 674.776576 243.034862 
L 675.923702 243.034862 
L 675.923702 243.608163 
L 677.070829 243.608163 
L 677.070829 243.034862 
L 678.217955 243.034862 
L 678.217955 243.451808 
L 680.512207 243.503926 
L 680.512207 243.764517 
L 683.953586 243.868754 
L 683.953586 243.243335 
L 685.100712 243.243335 
L 685.100712 244.025108 
L 687.394964 244.129345 
L 687.394964 244.389936 
L 688.54209 244.389936 
L 688.54209 243.712399 
L 689.689216 243.712399 
L 689.689216 244.025108 
L 691.983469 244.077226 
L 691.983469 244.442054 
L 693.130595 244.442054 
L 693.130595 244.806881 
L 694.277721 244.806881 
L 694.277721 244.025108 
L 695.424847 244.025108 
L 695.424847 244.442054 
L 696.571974 244.442054 
L 696.571974 244.181463 
L 698.866226 244.129345 
L 698.866226 244.650527 
L 700.013352 244.650527 
L 700.013352 244.233581 
L 702.307604 244.233581 
L 702.307604 244.54629 
L 703.45473 244.54629 
L 703.45473 244.129345 
L 704.601857 244.129345 
L 704.601857 244.54629 
L 705.748983 244.54629 
L 705.748983 244.181463 
L 706.896109 244.181463 
L 706.896109 244.963236 
L 708.043235 244.963236 
L 708.043235 245.380181 
L 709.190361 245.380181 
L 709.190361 244.494172 
L 710.337487 244.494172 
L 710.337487 245.11959 
L 711.484614 245.11959 
L 711.484614 244.858999 
L 712.63174 244.858999 
L 712.63174 244.702645 
L 713.778866 244.702645 
L 713.778866 244.442054 
L 714.925992 244.442054 
L 714.925992 244.598408 
L 717.220245 244.494172 
L 717.220245 244.442054 
L 718.367371 244.442054 
L 718.367371 244.911118 
L 719.514497 244.911118 
L 719.514497 244.598408 
L 720.661623 244.598408 
L 720.661623 245.067472 
L 722.955875 244.963236 
L 722.955875 244.754763 
L 724.103002 244.754763 
L 724.103002 244.54629 
L 725.250128 244.54629 
L 725.250128 244.858999 
L 728.691506 244.806881 
L 728.691506 245.11959 
L 732.132885 245.11959 
L 732.132885 245.536536 
L 733.280011 245.536536 
L 733.280011 245.171709 
L 734.427137 245.171709 
L 734.427137 245.015354 
L 735.574263 245.015354 
L 735.574263 245.223827 
L 736.721389 245.223827 
L 736.721389 245.067472 
L 737.868516 245.067472 
L 737.868516 245.223827 
L 739.015642 245.223827 
L 739.015642 244.754763 
L 740.162768 244.754763 
L 740.162768 245.223827 
L 741.309894 245.223827 
L 741.309894 244.911118 
L 742.45702 244.911118 
L 742.45702 245.171709 
L 743.604146 245.171709 
L 743.604146 245.4323 
L 744.751273 245.4323 
L 744.751273 244.963236 
L 745.898399 244.963236 
L 745.898399 245.223827 
L 749.339777 245.171709 
L 749.339777 245.588654 
L 750.486903 245.588654 
L 750.486903 245.11959 
L 751.634029 245.11959 
L 751.634029 245.4323 
L 752.781156 245.4323 
L 752.781156 245.11959 
L 755.075408 245.223827 
L 755.075408 245.380181 
L 757.36966 245.328063 
L 757.36966 245.536536 
L 758.516787 245.536536 
L 758.516787 245.380181 
L 761.958165 245.4323 
L 761.958165 245.223827 
L 763.105291 245.223827 
L 763.105291 245.484418 
L 765.399544 245.536536 
L 765.399544 245.171709 
L 766.54667 245.171709 
L 766.54667 245.536536 
L 768.840922 245.536536 
L 768.840922 245.328063 
L 771.135174 245.223827 
L 771.135174 245.484418 
L 781.45931 245.4323 
L 781.45931 245.640772 
L 782.606436 245.640772 
L 782.606436 245.484418 
L 786.047815 245.536536 
L 786.047815 245.692891 
L 789.489193 245.588654 
L 789.489193 245.328063 
L 792.930572 245.380181 
L 792.930572 245.588654 
L 799.813329 245.536536 
L 799.813329 245.4323 
L 800.960455 245.4323 
L 800.960455 245.640772 
L 808.990338 245.692891 
L 808.990338 245.484418 
L 810.137464 245.484418 
L 810.137464 245.640772 
L 812.431716 245.692891 
L 812.431716 245.484418 
L 813.578843 245.484418 
L 813.578843 245.692891 
L 820.4616 245.640772 
L 820.4616 245.4323 
L 821.608726 245.4323 
L 821.608726 245.640772 
L 836.521366 245.692891 
L 836.521366 245.797127 
L 839.962744 245.692891 
L 839.962744 245.640772 
L 847.992628 245.536536 
L 847.992628 245.536536 
" clip-path="url(#pa4a5c307a2)" style="fill: none; stroke: #1f77b4; stroke-width: 1.5; stroke-linecap: square"/>
   </g>
   <g id="patch_8">
    <path d="M 486.647885 257.158895 
L 486.647885 7.2 
" style="fill: none; stroke: #000000; stroke-width: 0.8; stroke-linejoin: miter; stroke-linecap: square"/>
   </g>
   <g id="patch_9">
    <path d="M 865.19952 257.158895 
L 865.19952 7.2 
" style="fill: none; stroke: #000000; stroke-width: 0.8; stroke-linejoin: miter; stroke-linecap: square"/>
   </g>
   <g id="patch_10">
    <path d="M 486.647885 257.158895 
L 865.19952 257.158895 
" style="fill: none; stroke: #000000; stroke-width: 0.8; stroke-linejoin: miter; stroke-linecap: square"/>
   </g>
   <g id="patch_11">
    <path d="M 486.647885 7.2 
L 865.19952 7.2 
" style="fill: none; stroke: #000000; stroke-width: 0.8; stroke-linejoin: miter; stroke-linecap: square"/>
   </g>
  </g>
 </g>
 <defs>
  <clipPath id="p491524abc2">
   <rect x="53.328125" y="7.2" width="378.551635" height="249.958895"/>
  </clipPath>
  <clipPath id="pa4a5c307a2">
   <rect x="486.647885" y="7.2" width="378.551635" height="249.958895"/>
  </clipPath>
 </defs>
</svg>
