<?xml version="1.0" encoding="utf-8" standalone="no"?>
<!DOCTYPE svg PUBLIC "-//W3C//DTD SVG 1.1//EN"
  "http://www.w3.org/Graphics/SVG/1.1/DTD/svg11.dtd">
<svg xmlns:xlink="http://www.w3.org/1999/xlink" width="388.965625pt" height="268.200625pt" viewBox="0 0 388.965625 268.200625" xmlns="http://www.w3.org/2000/svg" version="1.1">
 <metadata>
  <rdf:RDF xmlns:dc="http://purl.org/dc/elements/1.1/" xmlns:cc="http://creativecommons.org/ns#" xmlns:rdf="http://www.w3.org/1999/02/22-rdf-syntax-ns#">
   <cc:Work>
    <dc:type rdf:resource="http://purl.org/dc/dcmitype/StillImage"/>
    <dc:date>2025-02-17T17:52:57.318521</dc:date>
    <dc:format>image/svg+xml</dc:format>
    <dc:creator>
     <cc:Agent>
      <dc:title>Matplotlib v3.10.0, https://matplotlib.org/</dc:title>
     </cc:Agent>
    </dc:creator>
   </cc:Work>
  </rdf:RDF>
 </metadata>
 <defs>
  <style type="text/css">*{stroke-linejoin: round; stroke-linecap: butt}</style>
 </defs>
 <g id="figure_1">
  <g id="patch_1">
   <path d="M 0 268.200625 
L 388.965625 268.200625 
L 388.965625 0 
L 0 0 
z
" style="fill: #ffffff"/>
  </g>
  <g id="axes_1">
   <g id="patch_2">
    <path d="M 46.965625 228.96 
L 381.765625 228.96 
L 381.765625 7.2 
L 46.965625 7.2 
z
" style="fill: #ffffff"/>
   </g>
   <g id="matplotlib.axis_1">
    <g id="xtick_1">
     <g id="line2d_1">
      <defs>
       <path id="mc509099edf" d="M 0 0 
L 0 3.5 
" style="stroke: #000000; stroke-width: 0.8"/>
      </defs>
      <g>
       <use xlink:href="#mc509099edf" x="78.202946" y="228.96" style="stroke: #000000; stroke-width: 0.8"/>
      </g>
     </g>
     <g id="text_1">
      <!-- 1.0 -->
      <g transform="translate(70.251383 243.558437) scale(0.1 -0.1)">
       <defs>
        <path id="DejaVuSans-31" d="M 794 531 
L 1825 531 
L 1825 4091 
L 703 3866 
L 703 4441 
L 1819 4666 
L 2450 4666 
L 2450 531 
L 3481 531 
L 3481 0 
L 794 0 
L 794 531 
z
" transform="scale(0.015625)"/>
        <path id="DejaVuSans-2e" d="M 684 794 
L 1344 794 
L 1344 0 
L 684 0 
L 684 794 
z
" transform="scale(0.015625)"/>
        <path id="DejaVuSans-30" d="M 2034 4250 
Q 1547 4250 1301 3770 
Q 1056 3291 1056 2328 
Q 1056 1369 1301 889 
Q 1547 409 2034 409 
Q 2525 409 2770 889 
Q 3016 1369 3016 2328 
Q 3016 3291 2770 3770 
Q 2525 4250 2034 4250 
z
M 2034 4750 
Q 2819 4750 3233 4129 
Q 3647 3509 3647 2328 
Q 3647 1150 3233 529 
Q 2819 -91 2034 -91 
Q 1250 -91 836 529 
Q 422 1150 422 2328 
Q 422 3509 836 4129 
Q 1250 4750 2034 4750 
z
" transform="scale(0.015625)"/>
       </defs>
       <use xlink:href="#DejaVuSans-31"/>
       <use xlink:href="#DejaVuSans-2e" transform="translate(63.623047 0)"/>
       <use xlink:href="#DejaVuSans-30" transform="translate(95.410156 0)"/>
      </g>
     </g>
    </g>
    <g id="xtick_2">
     <g id="line2d_2">
      <g>
       <use xlink:href="#mc509099edf" x="118.250792" y="228.96" style="stroke: #000000; stroke-width: 0.8"/>
      </g>
     </g>
     <g id="text_2">
      <!-- 1.5 -->
      <g transform="translate(110.29923 243.558437) scale(0.1 -0.1)">
       <defs>
        <path id="DejaVuSans-35" d="M 691 4666 
L 3169 4666 
L 3169 4134 
L 1269 4134 
L 1269 2991 
Q 1406 3038 1543 3061 
Q 1681 3084 1819 3084 
Q 2600 3084 3056 2656 
Q 3513 2228 3513 1497 
Q 3513 744 3044 326 
Q 2575 -91 1722 -91 
Q 1428 -91 1123 -41 
Q 819 9 494 109 
L 494 744 
Q 775 591 1075 516 
Q 1375 441 1709 441 
Q 2250 441 2565 725 
Q 2881 1009 2881 1497 
Q 2881 1984 2565 2268 
Q 2250 2553 1709 2553 
Q 1456 2553 1204 2497 
Q 953 2441 691 2322 
L 691 4666 
z
" transform="scale(0.015625)"/>
       </defs>
       <use xlink:href="#DejaVuSans-31"/>
       <use xlink:href="#DejaVuSans-2e" transform="translate(63.623047 0)"/>
       <use xlink:href="#DejaVuSans-35" transform="translate(95.410156 0)"/>
      </g>
     </g>
    </g>
    <g id="xtick_3">
     <g id="line2d_3">
      <g>
       <use xlink:href="#mc509099edf" x="158.298639" y="228.96" style="stroke: #000000; stroke-width: 0.8"/>
      </g>
     </g>
     <g id="text_3">
      <!-- 2.0 -->
      <g transform="translate(150.347077 243.558437) scale(0.1 -0.1)">
       <defs>
        <path id="DejaVuSans-32" d="M 1228 531 
L 3431 531 
L 3431 0 
L 469 0 
L 469 531 
Q 828 903 1448 1529 
Q 2069 2156 2228 2338 
Q 2531 2678 2651 2914 
Q 2772 3150 2772 3378 
Q 2772 3750 2511 3984 
Q 2250 4219 1831 4219 
Q 1534 4219 1204 4116 
Q 875 4013 500 3803 
L 500 4441 
Q 881 4594 1212 4672 
Q 1544 4750 1819 4750 
Q 2544 4750 2975 4387 
Q 3406 4025 3406 3419 
Q 3406 3131 3298 2873 
Q 3191 2616 2906 2266 
Q 2828 2175 2409 1742 
Q 1991 1309 1228 531 
z
" transform="scale(0.015625)"/>
       </defs>
       <use xlink:href="#DejaVuSans-32"/>
       <use xlink:href="#DejaVuSans-2e" transform="translate(63.623047 0)"/>
       <use xlink:href="#DejaVuSans-30" transform="translate(95.410156 0)"/>
      </g>
     </g>
    </g>
    <g id="xtick_4">
     <g id="line2d_4">
      <g>
       <use xlink:href="#mc509099edf" x="198.346486" y="228.96" style="stroke: #000000; stroke-width: 0.8"/>
      </g>
     </g>
     <g id="text_4">
      <!-- 2.5 -->
      <g transform="translate(190.394924 243.558437) scale(0.1 -0.1)">
       <use xlink:href="#DejaVuSans-32"/>
       <use xlink:href="#DejaVuSans-2e" transform="translate(63.623047 0)"/>
       <use xlink:href="#DejaVuSans-35" transform="translate(95.410156 0)"/>
      </g>
     </g>
    </g>
    <g id="xtick_5">
     <g id="line2d_5">
      <g>
       <use xlink:href="#mc509099edf" x="238.394333" y="228.96" style="stroke: #000000; stroke-width: 0.8"/>
      </g>
     </g>
     <g id="text_5">
      <!-- 3.0 -->
      <g transform="translate(230.442771 243.558437) scale(0.1 -0.1)">
       <defs>
        <path id="DejaVuSans-33" d="M 2597 2516 
Q 3050 2419 3304 2112 
Q 3559 1806 3559 1356 
Q 3559 666 3084 287 
Q 2609 -91 1734 -91 
Q 1441 -91 1130 -33 
Q 819 25 488 141 
L 488 750 
Q 750 597 1062 519 
Q 1375 441 1716 441 
Q 2309 441 2620 675 
Q 2931 909 2931 1356 
Q 2931 1769 2642 2001 
Q 2353 2234 1838 2234 
L 1294 2234 
L 1294 2753 
L 1863 2753 
Q 2328 2753 2575 2939 
Q 2822 3125 2822 3475 
Q 2822 3834 2567 4026 
Q 2313 4219 1838 4219 
Q 1578 4219 1281 4162 
Q 984 4106 628 3988 
L 628 4550 
Q 988 4650 1302 4700 
Q 1616 4750 1894 4750 
Q 2613 4750 3031 4423 
Q 3450 4097 3450 3541 
Q 3450 3153 3228 2886 
Q 3006 2619 2597 2516 
z
" transform="scale(0.015625)"/>
       </defs>
       <use xlink:href="#DejaVuSans-33"/>
       <use xlink:href="#DejaVuSans-2e" transform="translate(63.623047 0)"/>
       <use xlink:href="#DejaVuSans-30" transform="translate(95.410156 0)"/>
      </g>
     </g>
    </g>
    <g id="xtick_6">
     <g id="line2d_6">
      <g>
       <use xlink:href="#mc509099edf" x="278.44218" y="228.96" style="stroke: #000000; stroke-width: 0.8"/>
      </g>
     </g>
     <g id="text_6">
      <!-- 3.5 -->
      <g transform="translate(270.490618 243.558437) scale(0.1 -0.1)">
       <use xlink:href="#DejaVuSans-33"/>
       <use xlink:href="#DejaVuSans-2e" transform="translate(63.623047 0)"/>
       <use xlink:href="#DejaVuSans-35" transform="translate(95.410156 0)"/>
      </g>
     </g>
    </g>
    <g id="xtick_7">
     <g id="line2d_7">
      <g>
       <use xlink:href="#mc509099edf" x="318.490027" y="228.96" style="stroke: #000000; stroke-width: 0.8"/>
      </g>
     </g>
     <g id="text_7">
      <!-- 4.0 -->
      <g transform="translate(310.538464 243.558437) scale(0.1 -0.1)">
       <defs>
        <path id="DejaVuSans-34" d="M 2419 4116 
L 825 1625 
L 2419 1625 
L 2419 4116 
z
M 2253 4666 
L 3047 4666 
L 3047 1625 
L 3713 1625 
L 3713 1100 
L 3047 1100 
L 3047 0 
L 2419 0 
L 2419 1100 
L 313 1100 
L 313 1709 
L 2253 4666 
z
" transform="scale(0.015625)"/>
       </defs>
       <use xlink:href="#DejaVuSans-34"/>
       <use xlink:href="#DejaVuSans-2e" transform="translate(63.623047 0)"/>
       <use xlink:href="#DejaVuSans-30" transform="translate(95.410156 0)"/>
      </g>
     </g>
    </g>
    <g id="xtick_8">
     <g id="line2d_8">
      <g>
       <use xlink:href="#mc509099edf" x="358.537874" y="228.96" style="stroke: #000000; stroke-width: 0.8"/>
      </g>
     </g>
     <g id="text_8">
      <!-- 4.5 -->
      <g transform="translate(350.586311 243.558437) scale(0.1 -0.1)">
       <use xlink:href="#DejaVuSans-34"/>
       <use xlink:href="#DejaVuSans-2e" transform="translate(63.623047 0)"/>
       <use xlink:href="#DejaVuSans-35" transform="translate(95.410156 0)"/>
      </g>
     </g>
    </g>
    <g id="text_9">
     <!-- wavelength [Å] -->
     <g transform="translate(176.328125 258.920937) scale(0.1 -0.1)">
      <defs>
       <path id="DejaVuSans-77" d="M 269 3500 
L 844 3500 
L 1563 769 
L 2278 3500 
L 2956 3500 
L 3675 769 
L 4391 3500 
L 4966 3500 
L 4050 0 
L 3372 0 
L 2619 2869 
L 1863 0 
L 1184 0 
L 269 3500 
z
" transform="scale(0.015625)"/>
       <path id="DejaVuSans-61" d="M 2194 1759 
Q 1497 1759 1228 1600 
Q 959 1441 959 1056 
Q 959 750 1161 570 
Q 1363 391 1709 391 
Q 2188 391 2477 730 
Q 2766 1069 2766 1631 
L 2766 1759 
L 2194 1759 
z
M 3341 1997 
L 3341 0 
L 2766 0 
L 2766 531 
Q 2569 213 2275 61 
Q 1981 -91 1556 -91 
Q 1019 -91 701 211 
Q 384 513 384 1019 
Q 384 1609 779 1909 
Q 1175 2209 1959 2209 
L 2766 2209 
L 2766 2266 
Q 2766 2663 2505 2880 
Q 2244 3097 1772 3097 
Q 1472 3097 1187 3025 
Q 903 2953 641 2809 
L 641 3341 
Q 956 3463 1253 3523 
Q 1550 3584 1831 3584 
Q 2591 3584 2966 3190 
Q 3341 2797 3341 1997 
z
" transform="scale(0.015625)"/>
       <path id="DejaVuSans-76" d="M 191 3500 
L 800 3500 
L 1894 563 
L 2988 3500 
L 3597 3500 
L 2284 0 
L 1503 0 
L 191 3500 
z
" transform="scale(0.015625)"/>
       <path id="DejaVuSans-65" d="M 3597 1894 
L 3597 1613 
L 953 1613 
Q 991 1019 1311 708 
Q 1631 397 2203 397 
Q 2534 397 2845 478 
Q 3156 559 3463 722 
L 3463 178 
Q 3153 47 2828 -22 
Q 2503 -91 2169 -91 
Q 1331 -91 842 396 
Q 353 884 353 1716 
Q 353 2575 817 3079 
Q 1281 3584 2069 3584 
Q 2775 3584 3186 3129 
Q 3597 2675 3597 1894 
z
M 3022 2063 
Q 3016 2534 2758 2815 
Q 2500 3097 2075 3097 
Q 1594 3097 1305 2825 
Q 1016 2553 972 2059 
L 3022 2063 
z
" transform="scale(0.015625)"/>
       <path id="DejaVuSans-6c" d="M 603 4863 
L 1178 4863 
L 1178 0 
L 603 0 
L 603 4863 
z
" transform="scale(0.015625)"/>
       <path id="DejaVuSans-6e" d="M 3513 2113 
L 3513 0 
L 2938 0 
L 2938 2094 
Q 2938 2591 2744 2837 
Q 2550 3084 2163 3084 
Q 1697 3084 1428 2787 
Q 1159 2491 1159 1978 
L 1159 0 
L 581 0 
L 581 3500 
L 1159 3500 
L 1159 2956 
Q 1366 3272 1645 3428 
Q 1925 3584 2291 3584 
Q 2894 3584 3203 3211 
Q 3513 2838 3513 2113 
z
" transform="scale(0.015625)"/>
       <path id="DejaVuSans-67" d="M 2906 1791 
Q 2906 2416 2648 2759 
Q 2391 3103 1925 3103 
Q 1463 3103 1205 2759 
Q 947 2416 947 1791 
Q 947 1169 1205 825 
Q 1463 481 1925 481 
Q 2391 481 2648 825 
Q 2906 1169 2906 1791 
z
M 3481 434 
Q 3481 -459 3084 -895 
Q 2688 -1331 1869 -1331 
Q 1566 -1331 1297 -1286 
Q 1028 -1241 775 -1147 
L 775 -588 
Q 1028 -725 1275 -790 
Q 1522 -856 1778 -856 
Q 2344 -856 2625 -561 
Q 2906 -266 2906 331 
L 2906 616 
Q 2728 306 2450 153 
Q 2172 0 1784 0 
Q 1141 0 747 490 
Q 353 981 353 1791 
Q 353 2603 747 3093 
Q 1141 3584 1784 3584 
Q 2172 3584 2450 3431 
Q 2728 3278 2906 2969 
L 2906 3500 
L 3481 3500 
L 3481 434 
z
" transform="scale(0.015625)"/>
       <path id="DejaVuSans-74" d="M 1172 4494 
L 1172 3500 
L 2356 3500 
L 2356 3053 
L 1172 3053 
L 1172 1153 
Q 1172 725 1289 603 
Q 1406 481 1766 481 
L 2356 481 
L 2356 0 
L 1766 0 
Q 1100 0 847 248 
Q 594 497 594 1153 
L 594 3053 
L 172 3053 
L 172 3500 
L 594 3500 
L 594 4494 
L 1172 4494 
z
" transform="scale(0.015625)"/>
       <path id="DejaVuSans-68" d="M 3513 2113 
L 3513 0 
L 2938 0 
L 2938 2094 
Q 2938 2591 2744 2837 
Q 2550 3084 2163 3084 
Q 1697 3084 1428 2787 
Q 1159 2491 1159 1978 
L 1159 0 
L 581 0 
L 581 4863 
L 1159 4863 
L 1159 2956 
Q 1366 3272 1645 3428 
Q 1925 3584 2291 3584 
Q 2894 3584 3203 3211 
Q 3513 2838 3513 2113 
z
" transform="scale(0.015625)"/>
       <path id="DejaVuSans-20" transform="scale(0.015625)"/>
       <path id="DejaVuSans-5b" d="M 550 4863 
L 1875 4863 
L 1875 4416 
L 1125 4416 
L 1125 -397 
L 1875 -397 
L 1875 -844 
L 550 -844 
L 550 4863 
z
" transform="scale(0.015625)"/>
       <path id="DejaVuSans-c5" d="M 2663 5081 
Q 2663 5278 2523 5417 
Q 2384 5556 2188 5556 
Q 1988 5556 1852 5420 
Q 1716 5284 1716 5081 
Q 1716 4884 1853 4746 
Q 1991 4609 2188 4609 
Q 2384 4609 2523 4746 
Q 2663 4884 2663 5081 
z
M 2188 4044 
L 1338 1722 
L 3041 1722 
L 2188 4044 
z
M 1716 4366 
Q 1525 4494 1428 4673 
Q 1331 4853 1331 5081 
Q 1331 5441 1579 5691 
Q 1828 5941 2188 5941 
Q 2544 5941 2795 5689 
Q 3047 5438 3047 5081 
Q 3047 4863 2948 4678 
Q 2850 4494 2663 4366 
L 4325 0 
L 3669 0 
L 3244 1197 
L 1141 1197 
L 716 0 
L 50 0 
L 1716 4366 
z
" transform="scale(0.015625)"/>
       <path id="DejaVuSans-5d" d="M 1947 4863 
L 1947 -844 
L 622 -844 
L 622 -397 
L 1369 -397 
L 1369 4416 
L 622 4416 
L 622 4863 
L 1947 4863 
z
" transform="scale(0.015625)"/>
      </defs>
      <use xlink:href="#DejaVuSans-77"/>
      <use xlink:href="#DejaVuSans-61" transform="translate(81.787109 0)"/>
      <use xlink:href="#DejaVuSans-76" transform="translate(143.066406 0)"/>
      <use xlink:href="#DejaVuSans-65" transform="translate(202.246094 0)"/>
      <use xlink:href="#DejaVuSans-6c" transform="translate(263.769531 0)"/>
      <use xlink:href="#DejaVuSans-65" transform="translate(291.552734 0)"/>
      <use xlink:href="#DejaVuSans-6e" transform="translate(353.076172 0)"/>
      <use xlink:href="#DejaVuSans-67" transform="translate(416.455078 0)"/>
      <use xlink:href="#DejaVuSans-74" transform="translate(479.931641 0)"/>
      <use xlink:href="#DejaVuSans-68" transform="translate(519.140625 0)"/>
      <use xlink:href="#DejaVuSans-20" transform="translate(582.519531 0)"/>
      <use xlink:href="#DejaVuSans-5b" transform="translate(614.306641 0)"/>
      <use xlink:href="#DejaVuSans-c5" transform="translate(653.320312 0)"/>
      <use xlink:href="#DejaVuSans-5d" transform="translate(721.728516 0)"/>
     </g>
    </g>
   </g>
   <g id="matplotlib.axis_2">
    <g id="ytick_1">
     <g id="line2d_9">
      <defs>
       <path id="m2d49dc422b" d="M 0 0 
L -3.5 0 
" style="stroke: #000000; stroke-width: 0.8"/>
      </defs>
      <g>
       <use xlink:href="#m2d49dc422b" x="46.965625" y="218.88" style="stroke: #000000; stroke-width: 0.8"/>
      </g>
     </g>
     <g id="text_10">
      <!-- 0 -->
      <g transform="translate(33.603125 222.679219) scale(0.1 -0.1)">
       <use xlink:href="#DejaVuSans-30"/>
      </g>
     </g>
    </g>
    <g id="ytick_2">
     <g id="line2d_10">
      <g>
       <use xlink:href="#m2d49dc422b" x="46.965625" y="193.000668" style="stroke: #000000; stroke-width: 0.8"/>
      </g>
     </g>
     <g id="text_11">
      <!-- 100 -->
      <g transform="translate(20.878125 196.799886) scale(0.1 -0.1)">
       <use xlink:href="#DejaVuSans-31"/>
       <use xlink:href="#DejaVuSans-30" transform="translate(63.623047 0)"/>
       <use xlink:href="#DejaVuSans-30" transform="translate(127.246094 0)"/>
      </g>
     </g>
    </g>
    <g id="ytick_3">
     <g id="line2d_11">
      <g>
       <use xlink:href="#m2d49dc422b" x="46.965625" y="167.121335" style="stroke: #000000; stroke-width: 0.8"/>
      </g>
     </g>
     <g id="text_12">
      <!-- 200 -->
      <g transform="translate(20.878125 170.920554) scale(0.1 -0.1)">
       <use xlink:href="#DejaVuSans-32"/>
       <use xlink:href="#DejaVuSans-30" transform="translate(63.623047 0)"/>
       <use xlink:href="#DejaVuSans-30" transform="translate(127.246094 0)"/>
      </g>
     </g>
    </g>
    <g id="ytick_4">
     <g id="line2d_12">
      <g>
       <use xlink:href="#m2d49dc422b" x="46.965625" y="141.242003" style="stroke: #000000; stroke-width: 0.8"/>
      </g>
     </g>
     <g id="text_13">
      <!-- 300 -->
      <g transform="translate(20.878125 145.041221) scale(0.1 -0.1)">
       <use xlink:href="#DejaVuSans-33"/>
       <use xlink:href="#DejaVuSans-30" transform="translate(63.623047 0)"/>
       <use xlink:href="#DejaVuSans-30" transform="translate(127.246094 0)"/>
      </g>
     </g>
    </g>
    <g id="ytick_5">
     <g id="line2d_13">
      <g>
       <use xlink:href="#m2d49dc422b" x="46.965625" y="115.36267" style="stroke: #000000; stroke-width: 0.8"/>
      </g>
     </g>
     <g id="text_14">
      <!-- 400 -->
      <g transform="translate(20.878125 119.161889) scale(0.1 -0.1)">
       <use xlink:href="#DejaVuSans-34"/>
       <use xlink:href="#DejaVuSans-30" transform="translate(63.623047 0)"/>
       <use xlink:href="#DejaVuSans-30" transform="translate(127.246094 0)"/>
      </g>
     </g>
    </g>
    <g id="ytick_6">
     <g id="line2d_14">
      <g>
       <use xlink:href="#m2d49dc422b" x="46.965625" y="89.483338" style="stroke: #000000; stroke-width: 0.8"/>
      </g>
     </g>
     <g id="text_15">
      <!-- 500 -->
      <g transform="translate(20.878125 93.282556) scale(0.1 -0.1)">
       <use xlink:href="#DejaVuSans-35"/>
       <use xlink:href="#DejaVuSans-30" transform="translate(63.623047 0)"/>
       <use xlink:href="#DejaVuSans-30" transform="translate(127.246094 0)"/>
      </g>
     </g>
    </g>
    <g id="ytick_7">
     <g id="line2d_15">
      <g>
       <use xlink:href="#m2d49dc422b" x="46.965625" y="63.604005" style="stroke: #000000; stroke-width: 0.8"/>
      </g>
     </g>
     <g id="text_16">
      <!-- 600 -->
      <g transform="translate(20.878125 67.403224) scale(0.1 -0.1)">
       <defs>
        <path id="DejaVuSans-36" d="M 2113 2584 
Q 1688 2584 1439 2293 
Q 1191 2003 1191 1497 
Q 1191 994 1439 701 
Q 1688 409 2113 409 
Q 2538 409 2786 701 
Q 3034 994 3034 1497 
Q 3034 2003 2786 2293 
Q 2538 2584 2113 2584 
z
M 3366 4563 
L 3366 3988 
Q 3128 4100 2886 4159 
Q 2644 4219 2406 4219 
Q 1781 4219 1451 3797 
Q 1122 3375 1075 2522 
Q 1259 2794 1537 2939 
Q 1816 3084 2150 3084 
Q 2853 3084 3261 2657 
Q 3669 2231 3669 1497 
Q 3669 778 3244 343 
Q 2819 -91 2113 -91 
Q 1303 -91 875 529 
Q 447 1150 447 2328 
Q 447 3434 972 4092 
Q 1497 4750 2381 4750 
Q 2619 4750 2861 4703 
Q 3103 4656 3366 4563 
z
" transform="scale(0.015625)"/>
       </defs>
       <use xlink:href="#DejaVuSans-36"/>
       <use xlink:href="#DejaVuSans-30" transform="translate(63.623047 0)"/>
       <use xlink:href="#DejaVuSans-30" transform="translate(127.246094 0)"/>
      </g>
     </g>
    </g>
    <g id="ytick_8">
     <g id="line2d_16">
      <g>
       <use xlink:href="#m2d49dc422b" x="46.965625" y="37.724673" style="stroke: #000000; stroke-width: 0.8"/>
      </g>
     </g>
     <g id="text_17">
      <!-- 700 -->
      <g transform="translate(20.878125 41.523891) scale(0.1 -0.1)">
       <defs>
        <path id="DejaVuSans-37" d="M 525 4666 
L 3525 4666 
L 3525 4397 
L 1831 0 
L 1172 0 
L 2766 4134 
L 525 4134 
L 525 4666 
z
" transform="scale(0.015625)"/>
       </defs>
       <use xlink:href="#DejaVuSans-37"/>
       <use xlink:href="#DejaVuSans-30" transform="translate(63.623047 0)"/>
       <use xlink:href="#DejaVuSans-30" transform="translate(127.246094 0)"/>
      </g>
     </g>
    </g>
    <g id="ytick_9">
     <g id="line2d_17">
      <g>
       <use xlink:href="#m2d49dc422b" x="46.965625" y="11.84534" style="stroke: #000000; stroke-width: 0.8"/>
      </g>
     </g>
     <g id="text_18">
      <!-- 800 -->
      <g transform="translate(20.878125 15.644559) scale(0.1 -0.1)">
       <defs>
        <path id="DejaVuSans-38" d="M 2034 2216 
Q 1584 2216 1326 1975 
Q 1069 1734 1069 1313 
Q 1069 891 1326 650 
Q 1584 409 2034 409 
Q 2484 409 2743 651 
Q 3003 894 3003 1313 
Q 3003 1734 2745 1975 
Q 2488 2216 2034 2216 
z
M 1403 2484 
Q 997 2584 770 2862 
Q 544 3141 544 3541 
Q 544 4100 942 4425 
Q 1341 4750 2034 4750 
Q 2731 4750 3128 4425 
Q 3525 4100 3525 3541 
Q 3525 3141 3298 2862 
Q 3072 2584 2669 2484 
Q 3125 2378 3379 2068 
Q 3634 1759 3634 1313 
Q 3634 634 3220 271 
Q 2806 -91 2034 -91 
Q 1263 -91 848 271 
Q 434 634 434 1313 
Q 434 1759 690 2068 
Q 947 2378 1403 2484 
z
M 1172 3481 
Q 1172 3119 1398 2916 
Q 1625 2713 2034 2713 
Q 2441 2713 2670 2916 
Q 2900 3119 2900 3481 
Q 2900 3844 2670 4047 
Q 2441 4250 2034 4250 
Q 1625 4250 1398 4047 
Q 1172 3844 1172 3481 
z
" transform="scale(0.015625)"/>
       </defs>
       <use xlink:href="#DejaVuSans-38"/>
       <use xlink:href="#DejaVuSans-30" transform="translate(63.623047 0)"/>
       <use xlink:href="#DejaVuSans-30" transform="translate(127.246094 0)"/>
      </g>
     </g>
    </g>
    <g id="text_19">
     <!-- [counts] -->
     <g transform="translate(14.798438 138.6925) rotate(-90) scale(0.1 -0.1)">
      <defs>
       <path id="DejaVuSans-63" d="M 3122 3366 
L 3122 2828 
Q 2878 2963 2633 3030 
Q 2388 3097 2138 3097 
Q 1578 3097 1268 2742 
Q 959 2388 959 1747 
Q 959 1106 1268 751 
Q 1578 397 2138 397 
Q 2388 397 2633 464 
Q 2878 531 3122 666 
L 3122 134 
Q 2881 22 2623 -34 
Q 2366 -91 2075 -91 
Q 1284 -91 818 406 
Q 353 903 353 1747 
Q 353 2603 823 3093 
Q 1294 3584 2113 3584 
Q 2378 3584 2631 3529 
Q 2884 3475 3122 3366 
z
" transform="scale(0.015625)"/>
       <path id="DejaVuSans-6f" d="M 1959 3097 
Q 1497 3097 1228 2736 
Q 959 2375 959 1747 
Q 959 1119 1226 758 
Q 1494 397 1959 397 
Q 2419 397 2687 759 
Q 2956 1122 2956 1747 
Q 2956 2369 2687 2733 
Q 2419 3097 1959 3097 
z
M 1959 3584 
Q 2709 3584 3137 3096 
Q 3566 2609 3566 1747 
Q 3566 888 3137 398 
Q 2709 -91 1959 -91 
Q 1206 -91 779 398 
Q 353 888 353 1747 
Q 353 2609 779 3096 
Q 1206 3584 1959 3584 
z
" transform="scale(0.015625)"/>
       <path id="DejaVuSans-75" d="M 544 1381 
L 544 3500 
L 1119 3500 
L 1119 1403 
Q 1119 906 1312 657 
Q 1506 409 1894 409 
Q 2359 409 2629 706 
Q 2900 1003 2900 1516 
L 2900 3500 
L 3475 3500 
L 3475 0 
L 2900 0 
L 2900 538 
Q 2691 219 2414 64 
Q 2138 -91 1772 -91 
Q 1169 -91 856 284 
Q 544 659 544 1381 
z
M 1991 3584 
L 1991 3584 
z
" transform="scale(0.015625)"/>
       <path id="DejaVuSans-73" d="M 2834 3397 
L 2834 2853 
Q 2591 2978 2328 3040 
Q 2066 3103 1784 3103 
Q 1356 3103 1142 2972 
Q 928 2841 928 2578 
Q 928 2378 1081 2264 
Q 1234 2150 1697 2047 
L 1894 2003 
Q 2506 1872 2764 1633 
Q 3022 1394 3022 966 
Q 3022 478 2636 193 
Q 2250 -91 1575 -91 
Q 1294 -91 989 -36 
Q 684 19 347 128 
L 347 722 
Q 666 556 975 473 
Q 1284 391 1588 391 
Q 1994 391 2212 530 
Q 2431 669 2431 922 
Q 2431 1156 2273 1281 
Q 2116 1406 1581 1522 
L 1381 1569 
Q 847 1681 609 1914 
Q 372 2147 372 2553 
Q 372 3047 722 3315 
Q 1072 3584 1716 3584 
Q 2034 3584 2315 3537 
Q 2597 3491 2834 3397 
z
" transform="scale(0.015625)"/>
      </defs>
      <use xlink:href="#DejaVuSans-5b"/>
      <use xlink:href="#DejaVuSans-63" transform="translate(39.013672 0)"/>
      <use xlink:href="#DejaVuSans-6f" transform="translate(93.994141 0)"/>
      <use xlink:href="#DejaVuSans-75" transform="translate(155.175781 0)"/>
      <use xlink:href="#DejaVuSans-6e" transform="translate(218.554688 0)"/>
      <use xlink:href="#DejaVuSans-74" transform="translate(281.933594 0)"/>
      <use xlink:href="#DejaVuSans-73" transform="translate(321.142578 0)"/>
      <use xlink:href="#DejaVuSans-5d" transform="translate(373.242188 0)"/>
     </g>
    </g>
   </g>
   <g id="patch_3">
    <path d="M 46.965625 228.96 
L 46.965625 7.2 
" style="fill: none; stroke: #000000; stroke-width: 0.8; stroke-linejoin: miter; stroke-linecap: square"/>
   </g>
   <g id="patch_4">
    <path d="M 381.765625 228.96 
L 381.765625 7.2 
" style="fill: none; stroke: #000000; stroke-width: 0.8; stroke-linejoin: miter; stroke-linecap: square"/>
   </g>
   <g id="patch_5">
    <path d="M 46.965625 228.96 
L 381.765625 228.96 
" style="fill: none; stroke: #000000; stroke-width: 0.8; stroke-linejoin: miter; stroke-linecap: square"/>
   </g>
   <g id="patch_6">
    <path d="M 46.965625 7.2 
L 381.765625 7.2 
" style="fill: none; stroke: #000000; stroke-width: 0.8; stroke-linejoin: miter; stroke-linecap: square"/>
   </g>
   <g id="legend_1">
    <g id="patch_7">
     <path d="M 277.7625 44.834375 
L 374.765625 44.834375 
Q 376.765625 44.834375 376.765625 42.834375 
L 376.765625 14.2 
Q 376.765625 12.2 374.765625 12.2 
L 277.7625 12.2 
Q 275.7625 12.2 275.7625 14.2 
L 275.7625 42.834375 
Q 275.7625 44.834375 277.7625 44.834375 
z
" style="fill: #ffffff; opacity: 0.8; stroke: #cccccc; stroke-linejoin: miter"/>
    </g>
    <g id="line2d_18">
     <path d="M 279.7625 20.298437 
L 279.7625 20.298437 
L 289.7625 20.298437 
L 289.7625 20.298437 
L 299.7625 20.298437 
" style="fill: none; stroke: #1f77b4; stroke-width: 1.5; stroke-linecap: square"/>
    </g>
    <g id="text_20">
     <!-- wfm -->
     <g transform="translate(307.7625 23.798437) scale(0.1 -0.1)">
      <defs>
       <path id="DejaVuSans-66" d="M 2375 4863 
L 2375 4384 
L 1825 4384 
Q 1516 4384 1395 4259 
Q 1275 4134 1275 3809 
L 1275 3500 
L 2222 3500 
L 2222 3053 
L 1275 3053 
L 1275 0 
L 697 0 
L 697 3053 
L 147 3053 
L 147 3500 
L 697 3500 
L 697 3744 
Q 697 4328 969 4595 
Q 1241 4863 1831 4863 
L 2375 4863 
z
" transform="scale(0.015625)"/>
       <path id="DejaVuSans-6d" d="M 3328 2828 
Q 3544 3216 3844 3400 
Q 4144 3584 4550 3584 
Q 5097 3584 5394 3201 
Q 5691 2819 5691 2113 
L 5691 0 
L 5113 0 
L 5113 2094 
Q 5113 2597 4934 2840 
Q 4756 3084 4391 3084 
Q 3944 3084 3684 2787 
Q 3425 2491 3425 1978 
L 3425 0 
L 2847 0 
L 2847 2094 
Q 2847 2600 2669 2842 
Q 2491 3084 2119 3084 
Q 1678 3084 1418 2786 
Q 1159 2488 1159 1978 
L 1159 0 
L 581 0 
L 581 3500 
L 1159 3500 
L 1159 2956 
Q 1356 3278 1631 3431 
Q 1906 3584 2284 3584 
Q 2666 3584 2933 3390 
Q 3200 3197 3328 2828 
z
" transform="scale(0.015625)"/>
      </defs>
      <use xlink:href="#DejaVuSans-77"/>
      <use xlink:href="#DejaVuSans-66" transform="translate(81.787109 0)"/>
      <use xlink:href="#DejaVuSans-6d" transform="translate(116.992188 0)"/>
     </g>
    </g>
    <g id="line2d_19">
     <path d="M 279.7625 34.976562 
L 279.7625 34.976562 
L 289.7625 34.976562 
L 289.7625 34.976562 
L 299.7625 34.976562 
" style="fill: none; stroke: #ff7f0e; stroke-width: 1.5; stroke-linecap: square"/>
    </g>
    <g id="text_21">
     <!-- ground_truth -->
     <g transform="translate(307.7625 38.476562) scale(0.1 -0.1)">
      <defs>
       <path id="DejaVuSans-72" d="M 2631 2963 
Q 2534 3019 2420 3045 
Q 2306 3072 2169 3072 
Q 1681 3072 1420 2755 
Q 1159 2438 1159 1844 
L 1159 0 
L 581 0 
L 581 3500 
L 1159 3500 
L 1159 2956 
Q 1341 3275 1631 3429 
Q 1922 3584 2338 3584 
Q 2397 3584 2469 3576 
Q 2541 3569 2628 3553 
L 2631 2963 
z
" transform="scale(0.015625)"/>
       <path id="DejaVuSans-64" d="M 2906 2969 
L 2906 4863 
L 3481 4863 
L 3481 0 
L 2906 0 
L 2906 525 
Q 2725 213 2448 61 
Q 2172 -91 1784 -91 
Q 1150 -91 751 415 
Q 353 922 353 1747 
Q 353 2572 751 3078 
Q 1150 3584 1784 3584 
Q 2172 3584 2448 3432 
Q 2725 3281 2906 2969 
z
M 947 1747 
Q 947 1113 1208 752 
Q 1469 391 1925 391 
Q 2381 391 2643 752 
Q 2906 1113 2906 1747 
Q 2906 2381 2643 2742 
Q 2381 3103 1925 3103 
Q 1469 3103 1208 2742 
Q 947 2381 947 1747 
z
" transform="scale(0.015625)"/>
       <path id="DejaVuSans-5f" d="M 3263 -1063 
L 3263 -1509 
L -63 -1509 
L -63 -1063 
L 3263 -1063 
z
" transform="scale(0.015625)"/>
      </defs>
      <use xlink:href="#DejaVuSans-67"/>
      <use xlink:href="#DejaVuSans-72" transform="translate(63.476562 0)"/>
      <use xlink:href="#DejaVuSans-6f" transform="translate(102.339844 0)"/>
      <use xlink:href="#DejaVuSans-75" transform="translate(163.521484 0)"/>
      <use xlink:href="#DejaVuSans-6e" transform="translate(226.900391 0)"/>
      <use xlink:href="#DejaVuSans-64" transform="translate(290.279297 0)"/>
      <use xlink:href="#DejaVuSans-5f" transform="translate(353.755859 0)"/>
      <use xlink:href="#DejaVuSans-74" transform="translate(403.755859 0)"/>
      <use xlink:href="#DejaVuSans-72" transform="translate(442.964844 0)"/>
      <use xlink:href="#DejaVuSans-75" transform="translate(484.078125 0)"/>
      <use xlink:href="#DejaVuSans-74" transform="translate(547.457031 0)"/>
      <use xlink:href="#DejaVuSans-68" transform="translate(586.666016 0)"/>
     </g>
    </g>
   </g>
   <g id="line2d_20">
    <path d="M 62.183807 218.88 
L 69.792898 218.88 
L 69.792898 217.586033 
L 71.314716 217.586033 
L 71.314716 207.751887 
L 72.836534 207.751887 
L 72.836534 203.352401 
L 74.358352 203.352401 
L 74.358352 195.588601 
L 75.88017 195.588601 
L 75.88017 188.342388 
L 77.401989 188.342388 
L 77.401989 177.731861 
L 78.923807 177.731861 
L 78.923807 170.744442 
L 80.445625 170.744442 
L 80.445625 160.651502 
L 81.967443 160.651502 
L 81.967443 148.747009 
L 83.489261 148.747009 
L 83.489261 143.312349 
L 85.01108 143.312349 
L 85.01108 144.347522 
L 86.532898 144.347522 
L 86.532898 130.11389 
L 88.054716 130.11389 
L 88.054716 120.538537 
L 89.576534 120.538537 
L 89.576534 114.58629 
L 91.098352 114.58629 
L 91.098352 98.282311 
L 92.62017 98.282311 
L 92.62017 95.435584 
L 94.141989 95.435584 
L 94.141989 92.847651 
L 95.663807 92.847651 
L 95.663807 84.048678 
L 97.185625 84.048678 
L 97.185625 83.013504 
L 98.707443 83.013504 
L 98.707443 77.320051 
L 100.229261 77.320051 
L 100.229261 59.722105 
L 101.75108 59.722105 
L 101.75108 69.556252 
L 103.272898 69.556252 
L 103.272898 53.252272 
L 104.794716 53.252272 
L 104.794716 53.511065 
L 106.316534 53.511065 
L 106.316534 50.405546 
L 107.838352 50.405546 
L 107.838352 36.689499 
L 109.36017 36.689499 
L 109.36017 28.14932 
L 110.881989 28.14932 
L 110.881989 36.948293 
L 112.403807 36.948293 
L 112.403807 28.9257 
L 113.925625 28.9257 
L 113.925625 23.749833 
L 115.447443 23.749833 
L 115.447443 33.583979 
L 116.969261 33.583979 
L 116.969261 20.38552 
L 118.49108 20.38552 
L 118.49108 25.302593 
L 120.012898 25.302593 
L 120.012898 20.644313 
L 121.534716 20.644313 
L 121.534716 28.14932 
L 123.056534 28.14932 
L 123.056534 36.948293 
L 124.578352 36.948293 
L 124.578352 33.842773 
L 126.10017 33.842773 
L 126.10017 31.25484 
L 132.187443 31.25484 
L 132.187443 34.619153 
L 133.709261 34.619153 
L 133.709261 49.629166 
L 135.23108 49.629166 
L 135.23108 38.759846 
L 136.752898 38.759846 
L 136.752898 46.264852 
L 139.796534 46.264852 
L 139.796534 46.523646 
L 141.318352 46.523646 
L 141.318352 54.805032 
L 142.84017 54.805032 
L 142.84017 55.063825 
L 144.361989 55.063825 
L 144.361989 58.686932 
L 145.883807 58.686932 
L 145.883807 44.453299 
L 147.405625 44.453299 
L 147.405625 58.169345 
L 148.927443 58.169345 
L 148.927443 63.862798 
L 150.449261 63.862798 
L 150.449261 62.827625 
L 151.97108 62.827625 
L 151.97108 66.450732 
L 153.492898 66.450732 
L 153.492898 53.511065 
L 155.014716 53.511065 
L 155.014716 54.805032 
L 156.536534 54.805032 
L 156.536534 58.686932 
L 158.058352 58.686932 
L 158.058352 65.156765 
L 159.58017 65.156765 
L 159.58017 41.606573 
L 161.101989 41.606573 
L 161.101989 56.357792 
L 162.623807 56.357792 
L 162.623807 67.744698 
L 164.145625 67.744698 
L 164.145625 72.402978 
L 165.667443 72.402978 
L 165.667443 70.073838 
L 167.189261 70.073838 
L 167.189261 59.204519 
L 168.71108 59.204519 
L 168.71108 70.332632 
L 170.232898 70.332632 
L 170.232898 82.237125 
L 171.754716 82.237125 
L 171.754716 77.061258 
L 173.276534 77.061258 
L 173.276534 71.367805 
L 174.798352 71.367805 
L 174.798352 87.930578 
L 176.32017 87.930578 
L 176.32017 66.968318 
L 177.841989 66.968318 
L 177.841989 78.096431 
L 179.363807 78.096431 
L 179.363807 86.895404 
L 180.885625 86.895404 
L 180.885625 89.224544 
L 182.407443 89.224544 
L 182.407443 94.659204 
L 183.929261 94.659204 
L 183.929261 98.282311 
L 185.45108 98.282311 
L 185.45108 114.327497 
L 186.972898 114.327497 
L 186.972898 109.92801 
L 188.494716 109.92801 
L 188.494716 124.67923 
L 190.016534 124.67923 
L 190.016534 136.066136 
L 191.538352 136.066136 
L 191.538352 137.101309 
L 193.06017 137.101309 
L 193.06017 149.005802 
L 194.581989 149.005802 
L 194.581989 154.699255 
L 196.103807 154.699255 
L 196.103807 164.792195 
L 197.625625 164.792195 
L 197.625625 167.380128 
L 199.147443 167.380128 
L 199.147443 181.096175 
L 200.669261 181.096175 
L 200.669261 182.907728 
L 202.19108 182.907728 
L 202.19108 189.895148 
L 203.712898 189.895148 
L 203.712898 193.259461 
L 205.234716 193.259461 
L 205.234716 204.387574 
L 206.756534 204.387574 
L 206.756534 206.716714 
L 208.278352 206.716714 
L 208.278352 212.410167 
L 209.80017 212.410167 
L 209.80017 214.739307 
L 211.321989 214.739307 
L 211.321989 217.32724 
L 212.843807 217.32724 
L 212.843807 211.374994 
L 214.365625 211.374994 
L 214.365625 203.869987 
L 215.887443 203.869987 
L 215.887443 200.764467 
L 217.409261 200.764467 
L 217.409261 194.812221 
L 218.93108 194.812221 
L 218.93108 186.789628 
L 220.452898 186.789628 
L 220.452898 181.613761 
L 221.974716 181.613761 
L 221.974716 178.249448 
L 223.496534 178.249448 
L 223.496534 170.485648 
L 225.018352 170.485648 
L 225.018352 173.073582 
L 226.54017 173.073582 
L 226.54017 157.804775 
L 228.061989 157.804775 
L 228.061989 142.277176 
L 229.583807 142.277176 
L 229.583807 148.488216 
L 231.105625 148.488216 
L 231.105625 143.571142 
L 232.627443 143.571142 
L 232.627443 137.618896 
L 234.149261 137.618896 
L 234.149261 130.372683 
L 235.67108 130.372683 
L 235.67108 136.324929 
L 237.192898 136.324929 
L 237.192898 126.23199 
L 238.714716 126.23199 
L 238.714716 111.998357 
L 240.236534 111.998357 
L 240.236534 112.774737 
L 241.758352 112.774737 
L 241.758352 121.57371 
L 243.28017 121.57371 
L 243.28017 105.010937 
L 244.801989 105.010937 
L 244.801989 109.669217 
L 246.323807 109.669217 
L 246.323807 112.25715 
L 247.845625 112.25715 
L 247.845625 91.812478 
L 249.367443 91.812478 
L 249.367443 90.259718 
L 250.889261 90.259718 
L 250.889261 99.058691 
L 252.41108 99.058691 
L 252.41108 93.365237 
L 253.932898 93.365237 
L 253.932898 95.953171 
L 255.454716 95.953171 
L 255.454716 87.930578 
L 256.976534 87.930578 
L 256.976534 83.013504 
L 258.498352 83.013504 
L 258.498352 85.601438 
L 260.02017 85.601438 
L 260.02017 72.661772 
L 261.541989 72.661772 
L 261.541989 84.566264 
L 263.063807 84.566264 
L 263.063807 88.706958 
L 264.585625 88.706958 
L 264.585625 92.330064 
L 266.107443 92.330064 
L 266.107443 91.812478 
L 267.629261 91.812478 
L 267.629261 90.259718 
L 269.15108 90.259718 
L 269.15108 103.71697 
L 270.672898 103.71697 
L 270.672898 86.377818 
L 272.194716 86.377818 
L 272.194716 106.563697 
L 273.716534 106.563697 
L 273.716534 100.870244 
L 275.238352 100.870244 
L 275.238352 96.988344 
L 276.76017 96.988344 
L 276.76017 98.799897 
L 278.281989 98.799897 
L 278.281989 114.845083 
L 279.803807 114.845083 
L 279.803807 105.010937 
L 281.325625 105.010937 
L 281.325625 101.387831 
L 282.847443 101.387831 
L 282.847443 109.92801 
L 284.369261 109.92801 
L 284.369261 117.433017 
L 285.89108 117.433017 
L 285.89108 120.02095 
L 287.412898 120.02095 
L 287.412898 118.985777 
L 288.934716 118.985777 
L 288.934716 115.103877 
L 290.456534 115.103877 
L 290.456534 112.774737 
L 291.978352 112.774737 
L 291.978352 124.420436 
L 293.50017 124.420436 
L 293.50017 125.714403 
L 295.021989 125.714403 
L 295.021989 131.925443 
L 296.543807 131.925443 
L 296.543807 129.33751 
L 298.065625 129.33751 
L 298.065625 134.254583 
L 299.587443 134.254583 
L 299.587443 135.807343 
L 301.109261 135.807343 
L 301.109261 141.500796 
L 302.63108 141.500796 
L 302.63108 137.101309 
L 304.152898 137.101309 
L 304.152898 134.513376 
L 305.674716 134.513376 
L 305.674716 142.535969 
L 307.196534 142.535969 
L 307.196534 144.606316 
L 308.718352 144.606316 
L 308.718352 149.782182 
L 310.24017 149.782182 
L 310.24017 140.465623 
L 311.761989 140.465623 
L 311.761989 150.299769 
L 313.283807 150.299769 
L 313.283807 149.523389 
L 314.805625 149.523389 
L 314.805625 143.312349 
L 316.327443 143.312349 
L 316.327443 158.063569 
L 317.849261 158.063569 
L 317.849261 151.852529 
L 319.37108 151.852529 
L 319.37108 157.287189 
L 320.892898 157.287189 
L 320.892898 157.545982 
L 322.414716 157.545982 
L 322.414716 161.427882 
L 323.936534 161.427882 
L 323.936534 164.274608 
L 325.458352 164.274608 
L 325.458352 172.297202 
L 326.98017 172.297202 
L 326.98017 172.814788 
L 328.501989 172.814788 
L 328.501989 179.802208 
L 330.023807 179.802208 
L 330.023807 176.696688 
L 331.545625 176.696688 
L 331.545625 189.118768 
L 333.067443 189.118768 
L 333.067443 187.566008 
L 334.589261 187.566008 
L 334.589261 186.272041 
L 336.11108 186.272041 
L 336.11108 192.224288 
L 337.632898 192.224288 
L 337.632898 195.329807 
L 339.154716 195.329807 
L 339.154716 197.400154 
L 340.676534 197.400154 
L 340.676534 204.12878 
L 342.198352 204.12878 
L 342.198352 202.058434 
L 343.72017 202.058434 
L 343.72017 207.2343 
L 345.241989 207.2343 
L 345.241989 206.716714 
L 346.763807 206.716714 
L 346.763807 208.269474 
L 348.285625 208.269474 
L 348.285625 209.822234 
L 349.807443 209.822234 
L 349.807443 213.186547 
L 351.329261 213.186547 
L 351.329261 215.77448 
L 352.85108 215.77448 
L 352.85108 217.068447 
L 354.372898 217.068447 
L 354.372898 217.32724 
L 355.894716 217.32724 
L 355.894716 217.844827 
L 357.416534 217.844827 
L 357.416534 218.88 
L 366.547443 218.88 
L 366.547443 218.88 
" clip-path="url(#p3e5f5fed49)" style="fill: none; stroke: #1f77b4; stroke-width: 1.5; stroke-linecap: square"/>
   </g>
   <g id="line2d_21">
    <path d="M 62.183807 218.88 
L 69.792898 218.88 
L 69.792898 216.55086 
L 71.314716 216.55086 
L 71.314716 208.528267 
L 72.836534 208.528267 
L 72.836534 202.834814 
L 74.358352 202.834814 
L 74.358352 196.882567 
L 75.88017 196.882567 
L 75.88017 187.048421 
L 77.401989 187.048421 
L 77.401989 180.319795 
L 78.923807 180.319795 
L 78.923807 167.897715 
L 80.445625 167.897715 
L 80.445625 161.686675 
L 81.967443 161.686675 
L 81.967443 147.711836 
L 83.489261 147.711836 
L 83.489261 146.417869 
L 85.01108 146.417869 
L 85.01108 142.018383 
L 86.532898 142.018383 
L 86.532898 131.925443 
L 88.054716 131.925443 
L 88.054716 123.644056 
L 89.576534 123.644056 
L 89.576534 108.634044 
L 91.098352 108.634044 
L 91.098352 98.799897 
L 92.62017 98.799897 
L 92.62017 96.211964 
L 94.141989 96.211964 
L 94.141989 88.965751 
L 95.663807 88.965751 
L 95.663807 89.224544 
L 97.185625 89.224544 
L 97.185625 80.166778 
L 98.707443 80.166778 
L 98.707443 77.837638 
L 100.229261 77.837638 
L 100.229261 60.239692 
L 101.75108 60.239692 
L 101.75108 64.639178 
L 103.272898 64.639178 
L 103.272898 57.910552 
L 104.794716 57.910552 
L 104.794716 50.664339 
L 106.316534 50.664339 
L 106.316534 48.076406 
L 107.838352 48.076406 
L 107.838352 45.488472 
L 109.36017 45.488472 
L 109.36017 27.37294 
L 110.881989 27.37294 
L 110.881989 35.395533 
L 112.403807 35.395533 
L 112.403807 31.25484 
L 113.925625 31.25484 
L 113.925625 18.05638 
L 115.447443 18.05638 
L 115.447443 30.219666 
L 116.969261 30.219666 
L 116.969261 32.548806 
L 118.49108 32.548806 
L 118.49108 18.83276 
L 120.012898 18.83276 
L 120.012898 17.28 
L 121.534716 17.28 
L 121.534716 42.124159 
L 123.056534 42.124159 
L 123.056534 25.0438 
L 124.578352 25.0438 
L 124.578352 36.171913 
L 126.10017 36.171913 
L 126.10017 30.737253 
L 127.621989 30.737253 
L 127.621989 31.772426 
L 129.143807 31.772426 
L 129.143807 29.70208 
L 130.665625 29.70208 
L 130.665625 26.078973 
L 132.187443 26.078973 
L 132.187443 46.523646 
L 133.709261 46.523646 
L 133.709261 48.335199 
L 135.23108 48.335199 
L 135.23108 41.088986 
L 136.752898 41.088986 
L 136.752898 42.124159 
L 138.274716 42.124159 
L 138.274716 46.264852 
L 139.796534 46.264852 
L 139.796534 49.111579 
L 141.318352 49.111579 
L 141.318352 56.616585 
L 142.84017 56.616585 
L 142.84017 48.076406 
L 144.361989 48.076406 
L 144.361989 58.428139 
L 145.883807 58.428139 
L 145.883807 46.782439 
L 147.405625 46.782439 
L 147.405625 56.098999 
L 148.927443 56.098999 
L 148.927443 63.086418 
L 150.449261 63.086418 
L 150.449261 58.945725 
L 151.97108 58.945725 
L 151.97108 73.179358 
L 153.492898 73.179358 
L 153.492898 56.357792 
L 155.014716 56.357792 
L 155.014716 48.852786 
L 156.536534 48.852786 
L 156.536534 58.169345 
L 158.058352 58.169345 
L 158.058352 59.463312 
L 159.58017 59.463312 
L 159.58017 43.676919 
L 161.101989 43.676919 
L 161.101989 62.568832 
L 162.623807 62.568832 
L 162.623807 60.498485 
L 164.145625 60.498485 
L 164.145625 79.390398 
L 165.667443 79.390398 
L 165.667443 68.262285 
L 167.189261 68.262285 
L 167.189261 56.616585 
L 168.71108 56.616585 
L 168.71108 76.543671 
L 170.232898 76.543671 
L 170.232898 79.131605 
L 171.754716 79.131605 
L 171.754716 80.166778 
L 173.276534 80.166778 
L 173.276534 70.591425 
L 174.798352 70.591425 
L 174.798352 83.531091 
L 176.32017 83.531091 
L 176.32017 70.332632 
L 177.841989 70.332632 
L 177.841989 79.907985 
L 179.363807 79.907985 
L 179.363807 76.802465 
L 180.885625 76.802465 
L 180.885625 99.058691 
L 182.407443 99.058691 
L 182.407443 92.071271 
L 183.929261 92.071271 
L 183.929261 100.093864 
L 185.45108 100.093864 
L 185.45108 110.70439 
L 186.972898 110.70439 
L 186.972898 113.80991 
L 188.494716 113.80991 
L 188.494716 122.608883 
L 190.016534 122.608883 
L 190.016534 139.430449 
L 191.538352 139.430449 
L 191.538352 133.995789 
L 193.06017 133.995789 
L 193.06017 146.417869 
L 194.581989 146.417869 
L 194.581989 158.322362 
L 196.103807 158.322362 
L 196.103807 164.792195 
L 197.625625 164.792195 
L 197.625625 167.380128 
L 199.147443 167.380128 
L 199.147443 178.508241 
L 200.669261 178.508241 
L 200.669261 184.978074 
L 202.19108 184.978074 
L 202.19108 188.083594 
L 203.712898 188.083594 
L 203.712898 194.294634 
L 205.234716 194.294634 
L 205.234716 204.12878 
L 206.756534 204.12878 
L 206.756534 206.975507 
L 208.278352 206.975507 
L 208.278352 212.66896 
L 209.80017 212.66896 
L 209.80017 214.9981 
L 211.321989 214.9981 
L 211.321989 216.292067 
L 212.843807 216.292067 
L 212.843807 211.374994 
L 214.365625 211.374994 
L 214.365625 204.90516 
L 215.887443 204.90516 
L 215.887443 199.729294 
L 217.409261 199.729294 
L 217.409261 195.071014 
L 218.93108 195.071014 
L 218.93108 187.566008 
L 220.452898 187.566008 
L 220.452898 181.354968 
L 221.974716 181.354968 
L 221.974716 178.249448 
L 223.496534 178.249448 
L 223.496534 169.709268 
L 225.018352 169.709268 
L 225.018352 173.332375 
L 226.54017 173.332375 
L 226.54017 157.028395 
L 228.061989 157.028395 
L 228.061989 144.606316 
L 229.583807 144.606316 
L 229.583807 144.347522 
L 231.105625 144.347522 
L 231.105625 143.053556 
L 232.627443 143.053556 
L 232.627443 138.912863 
L 234.149261 138.912863 
L 234.149261 134.772169 
L 235.67108 134.772169 
L 235.67108 135.289756 
L 237.192898 135.289756 
L 237.192898 127.525956 
L 238.714716 127.525956 
L 238.714716 109.669217 
L 240.236534 109.669217 
L 240.236534 114.327497 
L 241.758352 114.327497 
L 241.758352 114.068703 
L 243.28017 114.068703 
L 243.28017 111.221977 
L 244.801989 111.221977 
L 244.801989 105.787317 
L 247.845625 105.787317 
L 247.845625 98.282311 
L 249.367443 98.282311 
L 249.367443 95.176791 
L 250.889261 95.176791 
L 250.889261 90.259718 
L 252.41108 90.259718 
L 252.41108 99.835071 
L 253.932898 99.835071 
L 253.932898 90.518511 
L 255.454716 90.518511 
L 255.454716 94.400411 
L 256.976534 94.400411 
L 256.976534 83.013504 
L 258.498352 83.013504 
L 258.498352 75.249705 
L 260.02017 75.249705 
L 260.02017 87.671784 
L 261.541989 87.671784 
L 261.541989 77.320051 
L 263.063807 77.320051 
L 263.063807 86.119024 
L 264.585625 86.119024 
L 264.585625 98.282311 
L 266.107443 98.282311 
L 266.107443 88.706958 
L 267.629261 88.706958 
L 267.629261 93.365237 
L 269.15108 93.365237 
L 269.15108 102.940591 
L 270.672898 102.940591 
L 270.672898 89.742131 
L 272.194716 89.742131 
L 272.194716 97.764724 
L 273.716534 97.764724 
L 273.716534 100.093864 
L 275.238352 100.093864 
L 275.238352 108.892837 
L 276.76017 108.892837 
L 276.76017 98.023517 
L 278.281989 98.023517 
L 278.281989 112.25715 
L 279.803807 112.25715 
L 279.803807 99.576277 
L 281.325625 99.576277 
L 281.325625 105.010937 
L 282.847443 105.010937 
L 282.847443 116.397843 
L 284.369261 116.397843 
L 284.369261 108.37525 
L 285.89108 108.37525 
L 285.89108 126.23199 
L 287.412898 126.23199 
L 287.412898 112.515944 
L 288.934716 112.515944 
L 288.934716 120.538537 
L 290.456534 120.538537 
L 290.456534 109.410424 
L 291.978352 109.410424 
L 291.978352 131.66665 
L 293.50017 131.66665 
L 293.50017 115.880257 
L 295.021989 115.880257 
L 295.021989 132.960616 
L 296.543807 132.960616 
L 296.543807 129.596303 
L 298.065625 129.596303 
L 298.065625 128.819923 
L 299.587443 128.819923 
L 299.587443 147.970629 
L 301.109261 147.970629 
L 301.109261 137.360103 
L 302.63108 137.360103 
L 302.63108 134.513376 
L 304.152898 134.513376 
L 304.152898 136.842516 
L 305.674716 136.842516 
L 305.674716 142.277176 
L 307.196534 142.277176 
L 307.196534 148.747009 
L 308.718352 148.747009 
L 308.718352 142.794763 
L 310.24017 142.794763 
L 310.24017 144.865109 
L 311.761989 144.865109 
L 311.761989 150.040976 
L 313.283807 150.040976 
L 313.283807 149.005802 
L 314.805625 149.005802 
L 314.805625 145.382696 
L 316.327443 145.382696 
L 316.327443 151.593736 
L 317.849261 151.593736 
L 317.849261 154.440462 
L 320.892898 154.440462 
L 320.892898 166.086162 
L 322.414716 166.086162 
L 322.414716 157.028395 
L 323.936534 157.028395 
L 323.936534 166.344955 
L 325.458352 166.344955 
L 325.458352 170.226855 
L 326.98017 170.226855 
L 326.98017 173.073582 
L 328.501989 173.073582 
L 328.501989 177.731861 
L 330.023807 177.731861 
L 330.023807 178.249448 
L 331.545625 178.249448 
L 331.545625 187.824801 
L 333.067443 187.824801 
L 333.067443 189.895148 
L 334.589261 189.895148 
L 334.589261 189.377561 
L 336.11108 189.377561 
L 336.11108 190.153941 
L 337.632898 190.153941 
L 337.632898 192.483081 
L 339.154716 192.483081 
L 339.154716 198.435327 
L 340.676534 198.435327 
L 340.676534 204.12878 
L 342.198352 204.12878 
L 342.198352 200.246881 
L 343.72017 200.246881 
L 343.72017 207.493094 
L 345.241989 207.493094 
L 345.241989 207.751887 
L 348.285625 207.751887 
L 348.285625 210.081027 
L 349.807443 210.081027 
L 349.807443 212.927754 
L 351.329261 212.927754 
L 351.329261 216.292067 
L 352.85108 216.292067 
L 352.85108 216.55086 
L 354.372898 216.55086 
L 354.372898 217.32724 
L 355.894716 217.32724 
L 355.894716 217.844827 
L 357.416534 217.844827 
L 357.416534 218.88 
L 358.938352 218.88 
L 358.938352 218.621207 
L 360.46017 218.621207 
L 360.46017 218.88 
L 366.547443 218.88 
L 366.547443 218.88 
" clip-path="url(#p3e5f5fed49)" style="fill: none; stroke: #ff7f0e; stroke-width: 1.5; stroke-linecap: square"/>
   </g>
  </g>
 </g>
 <defs>
  <clipPath id="p3e5f5fed49">
   <rect x="46.965625" y="7.2" width="334.8" height="221.76"/>
  </clipPath>
 </defs>
</svg>
