<?xml version="1.0" encoding="utf-8" standalone="no"?>
<!DOCTYPE svg PUBLIC "-//W3C//DTD SVG 1.1//EN"
  "http://www.w3.org/Graphics/SVG/1.1/DTD/svg11.dtd">
<svg xmlns:xlink="http://www.w3.org/1999/xlink" width="388.965625pt" height="266.794375pt" viewBox="0 0 388.965625 266.794375" xmlns="http://www.w3.org/2000/svg" version="1.1">
 <metadata>
  <rdf:RDF xmlns:dc="http://purl.org/dc/elements/1.1/" xmlns:cc="http://creativecommons.org/ns#" xmlns:rdf="http://www.w3.org/1999/02/22-rdf-syntax-ns#">
   <cc:Work>
    <dc:type rdf:resource="http://purl.org/dc/dcmitype/StillImage"/>
    <dc:date>2025-01-30T11:57:54.976428</dc:date>
    <dc:format>image/svg+xml</dc:format>
    <dc:creator>
     <cc:Agent>
      <dc:title>Matplotlib v3.10.0, https://matplotlib.org/</dc:title>
     </cc:Agent>
    </dc:creator>
   </cc:Work>
  </rdf:RDF>
 </metadata>
 <defs>
  <style type="text/css">*{stroke-linejoin: round; stroke-linecap: butt}</style>
 </defs>
 <g id="figure_1">
  <g id="patch_1">
   <path d="M 0 266.794375 
L 388.965625 266.794375 
L 388.965625 0 
L 0 0 
z
" style="fill: #ffffff"/>
  </g>
  <g id="axes_1">
   <g id="patch_2">
    <path d="M 46.965625 228.96 
L 381.765625 228.96 
L 381.765625 7.2 
L 46.965625 7.2 
z
" style="fill: #ffffff"/>
   </g>
   <g id="matplotlib.axis_1">
    <g id="xtick_1">
     <g id="line2d_1">
      <defs>
       <path id="m6a99fbe096" d="M 0 0 
L 0 3.5 
" style="stroke: #000000; stroke-width: 0.8"/>
      </defs>
      <g>
       <use xlink:href="#m6a99fbe096" x="62.180138" y="228.96" style="stroke: #000000; stroke-width: 0.8"/>
      </g>
     </g>
     <g id="text_1">
      <!-- 0.00 -->
      <g transform="translate(51.047325 243.558437) scale(0.1 -0.1)">
       <defs>
        <path id="DejaVuSans-30" d="M 2034 4250 
Q 1547 4250 1301 3770 
Q 1056 3291 1056 2328 
Q 1056 1369 1301 889 
Q 1547 409 2034 409 
Q 2525 409 2770 889 
Q 3016 1369 3016 2328 
Q 3016 3291 2770 3770 
Q 2525 4250 2034 4250 
z
M 2034 4750 
Q 2819 4750 3233 4129 
Q 3647 3509 3647 2328 
Q 3647 1150 3233 529 
Q 2819 -91 2034 -91 
Q 1250 -91 836 529 
Q 422 1150 422 2328 
Q 422 3509 836 4129 
Q 1250 4750 2034 4750 
z
" transform="scale(0.015625)"/>
        <path id="DejaVuSans-2e" d="M 684 794 
L 1344 794 
L 1344 0 
L 684 0 
L 684 794 
z
" transform="scale(0.015625)"/>
       </defs>
       <use xlink:href="#DejaVuSans-30"/>
       <use xlink:href="#DejaVuSans-2e" transform="translate(63.623047 0)"/>
       <use xlink:href="#DejaVuSans-30" transform="translate(95.410156 0)"/>
       <use xlink:href="#DejaVuSans-30" transform="translate(159.033203 0)"/>
      </g>
     </g>
    </g>
    <g id="xtick_2">
     <g id="line2d_2">
      <g>
       <use xlink:href="#m6a99fbe096" x="104.791634" y="228.96" style="stroke: #000000; stroke-width: 0.8"/>
      </g>
     </g>
     <g id="text_2">
      <!-- 0.01 -->
      <g transform="translate(93.658822 243.558437) scale(0.1 -0.1)">
       <defs>
        <path id="DejaVuSans-31" d="M 794 531 
L 1825 531 
L 1825 4091 
L 703 3866 
L 703 4441 
L 1819 4666 
L 2450 4666 
L 2450 531 
L 3481 531 
L 3481 0 
L 794 0 
L 794 531 
z
" transform="scale(0.015625)"/>
       </defs>
       <use xlink:href="#DejaVuSans-30"/>
       <use xlink:href="#DejaVuSans-2e" transform="translate(63.623047 0)"/>
       <use xlink:href="#DejaVuSans-30" transform="translate(95.410156 0)"/>
       <use xlink:href="#DejaVuSans-31" transform="translate(159.033203 0)"/>
      </g>
     </g>
    </g>
    <g id="xtick_3">
     <g id="line2d_3">
      <g>
       <use xlink:href="#m6a99fbe096" x="147.403131" y="228.96" style="stroke: #000000; stroke-width: 0.8"/>
      </g>
     </g>
     <g id="text_3">
      <!-- 0.02 -->
      <g transform="translate(136.270319 243.558437) scale(0.1 -0.1)">
       <defs>
        <path id="DejaVuSans-32" d="M 1228 531 
L 3431 531 
L 3431 0 
L 469 0 
L 469 531 
Q 828 903 1448 1529 
Q 2069 2156 2228 2338 
Q 2531 2678 2651 2914 
Q 2772 3150 2772 3378 
Q 2772 3750 2511 3984 
Q 2250 4219 1831 4219 
Q 1534 4219 1204 4116 
Q 875 4013 500 3803 
L 500 4441 
Q 881 4594 1212 4672 
Q 1544 4750 1819 4750 
Q 2544 4750 2975 4387 
Q 3406 4025 3406 3419 
Q 3406 3131 3298 2873 
Q 3191 2616 2906 2266 
Q 2828 2175 2409 1742 
Q 1991 1309 1228 531 
z
" transform="scale(0.015625)"/>
       </defs>
       <use xlink:href="#DejaVuSans-30"/>
       <use xlink:href="#DejaVuSans-2e" transform="translate(63.623047 0)"/>
       <use xlink:href="#DejaVuSans-30" transform="translate(95.410156 0)"/>
       <use xlink:href="#DejaVuSans-32" transform="translate(159.033203 0)"/>
      </g>
     </g>
    </g>
    <g id="xtick_4">
     <g id="line2d_4">
      <g>
       <use xlink:href="#m6a99fbe096" x="190.014628" y="228.96" style="stroke: #000000; stroke-width: 0.8"/>
      </g>
     </g>
     <g id="text_4">
      <!-- 0.03 -->
      <g transform="translate(178.881816 243.558437) scale(0.1 -0.1)">
       <defs>
        <path id="DejaVuSans-33" d="M 2597 2516 
Q 3050 2419 3304 2112 
Q 3559 1806 3559 1356 
Q 3559 666 3084 287 
Q 2609 -91 1734 -91 
Q 1441 -91 1130 -33 
Q 819 25 488 141 
L 488 750 
Q 750 597 1062 519 
Q 1375 441 1716 441 
Q 2309 441 2620 675 
Q 2931 909 2931 1356 
Q 2931 1769 2642 2001 
Q 2353 2234 1838 2234 
L 1294 2234 
L 1294 2753 
L 1863 2753 
Q 2328 2753 2575 2939 
Q 2822 3125 2822 3475 
Q 2822 3834 2567 4026 
Q 2313 4219 1838 4219 
Q 1578 4219 1281 4162 
Q 984 4106 628 3988 
L 628 4550 
Q 988 4650 1302 4700 
Q 1616 4750 1894 4750 
Q 2613 4750 3031 4423 
Q 3450 4097 3450 3541 
Q 3450 3153 3228 2886 
Q 3006 2619 2597 2516 
z
" transform="scale(0.015625)"/>
       </defs>
       <use xlink:href="#DejaVuSans-30"/>
       <use xlink:href="#DejaVuSans-2e" transform="translate(63.623047 0)"/>
       <use xlink:href="#DejaVuSans-30" transform="translate(95.410156 0)"/>
       <use xlink:href="#DejaVuSans-33" transform="translate(159.033203 0)"/>
      </g>
     </g>
    </g>
    <g id="xtick_5">
     <g id="line2d_5">
      <g>
       <use xlink:href="#m6a99fbe096" x="232.626125" y="228.96" style="stroke: #000000; stroke-width: 0.8"/>
      </g>
     </g>
     <g id="text_5">
      <!-- 0.04 -->
      <g transform="translate(221.493312 243.558437) scale(0.1 -0.1)">
       <defs>
        <path id="DejaVuSans-34" d="M 2419 4116 
L 825 1625 
L 2419 1625 
L 2419 4116 
z
M 2253 4666 
L 3047 4666 
L 3047 1625 
L 3713 1625 
L 3713 1100 
L 3047 1100 
L 3047 0 
L 2419 0 
L 2419 1100 
L 313 1100 
L 313 1709 
L 2253 4666 
z
" transform="scale(0.015625)"/>
       </defs>
       <use xlink:href="#DejaVuSans-30"/>
       <use xlink:href="#DejaVuSans-2e" transform="translate(63.623047 0)"/>
       <use xlink:href="#DejaVuSans-30" transform="translate(95.410156 0)"/>
       <use xlink:href="#DejaVuSans-34" transform="translate(159.033203 0)"/>
      </g>
     </g>
    </g>
    <g id="xtick_6">
     <g id="line2d_6">
      <g>
       <use xlink:href="#m6a99fbe096" x="275.237622" y="228.96" style="stroke: #000000; stroke-width: 0.8"/>
      </g>
     </g>
     <g id="text_6">
      <!-- 0.05 -->
      <g transform="translate(264.104809 243.558437) scale(0.1 -0.1)">
       <defs>
        <path id="DejaVuSans-35" d="M 691 4666 
L 3169 4666 
L 3169 4134 
L 1269 4134 
L 1269 2991 
Q 1406 3038 1543 3061 
Q 1681 3084 1819 3084 
Q 2600 3084 3056 2656 
Q 3513 2228 3513 1497 
Q 3513 744 3044 326 
Q 2575 -91 1722 -91 
Q 1428 -91 1123 -41 
Q 819 9 494 109 
L 494 744 
Q 775 591 1075 516 
Q 1375 441 1709 441 
Q 2250 441 2565 725 
Q 2881 1009 2881 1497 
Q 2881 1984 2565 2268 
Q 2250 2553 1709 2553 
Q 1456 2553 1204 2497 
Q 953 2441 691 2322 
L 691 4666 
z
" transform="scale(0.015625)"/>
       </defs>
       <use xlink:href="#DejaVuSans-30"/>
       <use xlink:href="#DejaVuSans-2e" transform="translate(63.623047 0)"/>
       <use xlink:href="#DejaVuSans-30" transform="translate(95.410156 0)"/>
       <use xlink:href="#DejaVuSans-35" transform="translate(159.033203 0)"/>
      </g>
     </g>
    </g>
    <g id="xtick_7">
     <g id="line2d_7">
      <g>
       <use xlink:href="#m6a99fbe096" x="317.849118" y="228.96" style="stroke: #000000; stroke-width: 0.8"/>
      </g>
     </g>
     <g id="text_7">
      <!-- 0.06 -->
      <g transform="translate(306.716306 243.558437) scale(0.1 -0.1)">
       <defs>
        <path id="DejaVuSans-36" d="M 2113 2584 
Q 1688 2584 1439 2293 
Q 1191 2003 1191 1497 
Q 1191 994 1439 701 
Q 1688 409 2113 409 
Q 2538 409 2786 701 
Q 3034 994 3034 1497 
Q 3034 2003 2786 2293 
Q 2538 2584 2113 2584 
z
M 3366 4563 
L 3366 3988 
Q 3128 4100 2886 4159 
Q 2644 4219 2406 4219 
Q 1781 4219 1451 3797 
Q 1122 3375 1075 2522 
Q 1259 2794 1537 2939 
Q 1816 3084 2150 3084 
Q 2853 3084 3261 2657 
Q 3669 2231 3669 1497 
Q 3669 778 3244 343 
Q 2819 -91 2113 -91 
Q 1303 -91 875 529 
Q 447 1150 447 2328 
Q 447 3434 972 4092 
Q 1497 4750 2381 4750 
Q 2619 4750 2861 4703 
Q 3103 4656 3366 4563 
z
" transform="scale(0.015625)"/>
       </defs>
       <use xlink:href="#DejaVuSans-30"/>
       <use xlink:href="#DejaVuSans-2e" transform="translate(63.623047 0)"/>
       <use xlink:href="#DejaVuSans-30" transform="translate(95.410156 0)"/>
       <use xlink:href="#DejaVuSans-36" transform="translate(159.033203 0)"/>
      </g>
     </g>
    </g>
    <g id="xtick_8">
     <g id="line2d_8">
      <g>
       <use xlink:href="#m6a99fbe096" x="360.460615" y="228.96" style="stroke: #000000; stroke-width: 0.8"/>
      </g>
     </g>
     <g id="text_8">
      <!-- 0.07 -->
      <g transform="translate(349.327803 243.558437) scale(0.1 -0.1)">
       <defs>
        <path id="DejaVuSans-37" d="M 525 4666 
L 3525 4666 
L 3525 4397 
L 1831 0 
L 1172 0 
L 2766 4134 
L 525 4134 
L 525 4666 
z
" transform="scale(0.015625)"/>
       </defs>
       <use xlink:href="#DejaVuSans-30"/>
       <use xlink:href="#DejaVuSans-2e" transform="translate(63.623047 0)"/>
       <use xlink:href="#DejaVuSans-30" transform="translate(95.410156 0)"/>
       <use xlink:href="#DejaVuSans-37" transform="translate(159.033203 0)"/>
      </g>
     </g>
    </g>
    <g id="text_9">
     <!-- event_time_offset [s] -->
     <g transform="translate(161.511719 257.236562) scale(0.1 -0.1)">
      <defs>
       <path id="DejaVuSans-65" d="M 3597 1894 
L 3597 1613 
L 953 1613 
Q 991 1019 1311 708 
Q 1631 397 2203 397 
Q 2534 397 2845 478 
Q 3156 559 3463 722 
L 3463 178 
Q 3153 47 2828 -22 
Q 2503 -91 2169 -91 
Q 1331 -91 842 396 
Q 353 884 353 1716 
Q 353 2575 817 3079 
Q 1281 3584 2069 3584 
Q 2775 3584 3186 3129 
Q 3597 2675 3597 1894 
z
M 3022 2063 
Q 3016 2534 2758 2815 
Q 2500 3097 2075 3097 
Q 1594 3097 1305 2825 
Q 1016 2553 972 2059 
L 3022 2063 
z
" transform="scale(0.015625)"/>
       <path id="DejaVuSans-76" d="M 191 3500 
L 800 3500 
L 1894 563 
L 2988 3500 
L 3597 3500 
L 2284 0 
L 1503 0 
L 191 3500 
z
" transform="scale(0.015625)"/>
       <path id="DejaVuSans-6e" d="M 3513 2113 
L 3513 0 
L 2938 0 
L 2938 2094 
Q 2938 2591 2744 2837 
Q 2550 3084 2163 3084 
Q 1697 3084 1428 2787 
Q 1159 2491 1159 1978 
L 1159 0 
L 581 0 
L 581 3500 
L 1159 3500 
L 1159 2956 
Q 1366 3272 1645 3428 
Q 1925 3584 2291 3584 
Q 2894 3584 3203 3211 
Q 3513 2838 3513 2113 
z
" transform="scale(0.015625)"/>
       <path id="DejaVuSans-74" d="M 1172 4494 
L 1172 3500 
L 2356 3500 
L 2356 3053 
L 1172 3053 
L 1172 1153 
Q 1172 725 1289 603 
Q 1406 481 1766 481 
L 2356 481 
L 2356 0 
L 1766 0 
Q 1100 0 847 248 
Q 594 497 594 1153 
L 594 3053 
L 172 3053 
L 172 3500 
L 594 3500 
L 594 4494 
L 1172 4494 
z
" transform="scale(0.015625)"/>
       <path id="DejaVuSans-5f" d="M 3263 -1063 
L 3263 -1509 
L -63 -1509 
L -63 -1063 
L 3263 -1063 
z
" transform="scale(0.015625)"/>
       <path id="DejaVuSans-69" d="M 603 3500 
L 1178 3500 
L 1178 0 
L 603 0 
L 603 3500 
z
M 603 4863 
L 1178 4863 
L 1178 4134 
L 603 4134 
L 603 4863 
z
" transform="scale(0.015625)"/>
       <path id="DejaVuSans-6d" d="M 3328 2828 
Q 3544 3216 3844 3400 
Q 4144 3584 4550 3584 
Q 5097 3584 5394 3201 
Q 5691 2819 5691 2113 
L 5691 0 
L 5113 0 
L 5113 2094 
Q 5113 2597 4934 2840 
Q 4756 3084 4391 3084 
Q 3944 3084 3684 2787 
Q 3425 2491 3425 1978 
L 3425 0 
L 2847 0 
L 2847 2094 
Q 2847 2600 2669 2842 
Q 2491 3084 2119 3084 
Q 1678 3084 1418 2786 
Q 1159 2488 1159 1978 
L 1159 0 
L 581 0 
L 581 3500 
L 1159 3500 
L 1159 2956 
Q 1356 3278 1631 3431 
Q 1906 3584 2284 3584 
Q 2666 3584 2933 3390 
Q 3200 3197 3328 2828 
z
" transform="scale(0.015625)"/>
       <path id="DejaVuSans-6f" d="M 1959 3097 
Q 1497 3097 1228 2736 
Q 959 2375 959 1747 
Q 959 1119 1226 758 
Q 1494 397 1959 397 
Q 2419 397 2687 759 
Q 2956 1122 2956 1747 
Q 2956 2369 2687 2733 
Q 2419 3097 1959 3097 
z
M 1959 3584 
Q 2709 3584 3137 3096 
Q 3566 2609 3566 1747 
Q 3566 888 3137 398 
Q 2709 -91 1959 -91 
Q 1206 -91 779 398 
Q 353 888 353 1747 
Q 353 2609 779 3096 
Q 1206 3584 1959 3584 
z
" transform="scale(0.015625)"/>
       <path id="DejaVuSans-66" d="M 2375 4863 
L 2375 4384 
L 1825 4384 
Q 1516 4384 1395 4259 
Q 1275 4134 1275 3809 
L 1275 3500 
L 2222 3500 
L 2222 3053 
L 1275 3053 
L 1275 0 
L 697 0 
L 697 3053 
L 147 3053 
L 147 3500 
L 697 3500 
L 697 3744 
Q 697 4328 969 4595 
Q 1241 4863 1831 4863 
L 2375 4863 
z
" transform="scale(0.015625)"/>
       <path id="DejaVuSans-73" d="M 2834 3397 
L 2834 2853 
Q 2591 2978 2328 3040 
Q 2066 3103 1784 3103 
Q 1356 3103 1142 2972 
Q 928 2841 928 2578 
Q 928 2378 1081 2264 
Q 1234 2150 1697 2047 
L 1894 2003 
Q 2506 1872 2764 1633 
Q 3022 1394 3022 966 
Q 3022 478 2636 193 
Q 2250 -91 1575 -91 
Q 1294 -91 989 -36 
Q 684 19 347 128 
L 347 722 
Q 666 556 975 473 
Q 1284 391 1588 391 
Q 1994 391 2212 530 
Q 2431 669 2431 922 
Q 2431 1156 2273 1281 
Q 2116 1406 1581 1522 
L 1381 1569 
Q 847 1681 609 1914 
Q 372 2147 372 2553 
Q 372 3047 722 3315 
Q 1072 3584 1716 3584 
Q 2034 3584 2315 3537 
Q 2597 3491 2834 3397 
z
" transform="scale(0.015625)"/>
       <path id="DejaVuSans-20" transform="scale(0.015625)"/>
       <path id="DejaVuSans-5b" d="M 550 4863 
L 1875 4863 
L 1875 4416 
L 1125 4416 
L 1125 -397 
L 1875 -397 
L 1875 -844 
L 550 -844 
L 550 4863 
z
" transform="scale(0.015625)"/>
       <path id="DejaVuSans-5d" d="M 1947 4863 
L 1947 -844 
L 622 -844 
L 622 -397 
L 1369 -397 
L 1369 4416 
L 622 4416 
L 622 4863 
L 1947 4863 
z
" transform="scale(0.015625)"/>
      </defs>
      <use xlink:href="#DejaVuSans-65"/>
      <use xlink:href="#DejaVuSans-76" transform="translate(61.523438 0)"/>
      <use xlink:href="#DejaVuSans-65" transform="translate(120.703125 0)"/>
      <use xlink:href="#DejaVuSans-6e" transform="translate(182.226562 0)"/>
      <use xlink:href="#DejaVuSans-74" transform="translate(245.605469 0)"/>
      <use xlink:href="#DejaVuSans-5f" transform="translate(284.814453 0)"/>
      <use xlink:href="#DejaVuSans-74" transform="translate(334.814453 0)"/>
      <use xlink:href="#DejaVuSans-69" transform="translate(374.023438 0)"/>
      <use xlink:href="#DejaVuSans-6d" transform="translate(401.806641 0)"/>
      <use xlink:href="#DejaVuSans-65" transform="translate(499.21875 0)"/>
      <use xlink:href="#DejaVuSans-5f" transform="translate(560.742188 0)"/>
      <use xlink:href="#DejaVuSans-6f" transform="translate(610.742188 0)"/>
      <use xlink:href="#DejaVuSans-66" transform="translate(671.923828 0)"/>
      <use xlink:href="#DejaVuSans-66" transform="translate(707.128906 0)"/>
      <use xlink:href="#DejaVuSans-73" transform="translate(742.333984 0)"/>
      <use xlink:href="#DejaVuSans-65" transform="translate(794.433594 0)"/>
      <use xlink:href="#DejaVuSans-74" transform="translate(855.957031 0)"/>
      <use xlink:href="#DejaVuSans-20" transform="translate(895.166016 0)"/>
      <use xlink:href="#DejaVuSans-5b" transform="translate(926.953125 0)"/>
      <use xlink:href="#DejaVuSans-73" transform="translate(965.966797 0)"/>
      <use xlink:href="#DejaVuSans-5d" transform="translate(1018.066406 0)"/>
     </g>
    </g>
   </g>
   <g id="matplotlib.axis_2">
    <g id="ytick_1">
     <g id="line2d_9">
      <defs>
       <path id="m905bc12f9c" d="M 0 0 
L -3.5 0 
" style="stroke: #000000; stroke-width: 0.8"/>
      </defs>
      <g>
       <use xlink:href="#m905bc12f9c" x="46.965625" y="218.88" style="stroke: #000000; stroke-width: 0.8"/>
      </g>
     </g>
     <g id="text_10">
      <!-- 0 -->
      <g transform="translate(33.603125 222.679219) scale(0.1 -0.1)">
       <use xlink:href="#DejaVuSans-30"/>
      </g>
     </g>
    </g>
    <g id="ytick_2">
     <g id="line2d_10">
      <g>
       <use xlink:href="#m905bc12f9c" x="46.965625" y="185.938824" style="stroke: #000000; stroke-width: 0.8"/>
      </g>
     </g>
     <g id="text_11">
      <!-- 100 -->
      <g transform="translate(20.878125 189.738042) scale(0.1 -0.1)">
       <use xlink:href="#DejaVuSans-31"/>
       <use xlink:href="#DejaVuSans-30" transform="translate(63.623047 0)"/>
       <use xlink:href="#DejaVuSans-30" transform="translate(127.246094 0)"/>
      </g>
     </g>
    </g>
    <g id="ytick_3">
     <g id="line2d_11">
      <g>
       <use xlink:href="#m905bc12f9c" x="46.965625" y="152.997647" style="stroke: #000000; stroke-width: 0.8"/>
      </g>
     </g>
     <g id="text_12">
      <!-- 200 -->
      <g transform="translate(20.878125 156.796866) scale(0.1 -0.1)">
       <use xlink:href="#DejaVuSans-32"/>
       <use xlink:href="#DejaVuSans-30" transform="translate(63.623047 0)"/>
       <use xlink:href="#DejaVuSans-30" transform="translate(127.246094 0)"/>
      </g>
     </g>
    </g>
    <g id="ytick_4">
     <g id="line2d_12">
      <g>
       <use xlink:href="#m905bc12f9c" x="46.965625" y="120.056471" style="stroke: #000000; stroke-width: 0.8"/>
      </g>
     </g>
     <g id="text_13">
      <!-- 300 -->
      <g transform="translate(20.878125 123.855689) scale(0.1 -0.1)">
       <use xlink:href="#DejaVuSans-33"/>
       <use xlink:href="#DejaVuSans-30" transform="translate(63.623047 0)"/>
       <use xlink:href="#DejaVuSans-30" transform="translate(127.246094 0)"/>
      </g>
     </g>
    </g>
    <g id="ytick_5">
     <g id="line2d_13">
      <g>
       <use xlink:href="#m905bc12f9c" x="46.965625" y="87.115294" style="stroke: #000000; stroke-width: 0.8"/>
      </g>
     </g>
     <g id="text_14">
      <!-- 400 -->
      <g transform="translate(20.878125 90.914513) scale(0.1 -0.1)">
       <use xlink:href="#DejaVuSans-34"/>
       <use xlink:href="#DejaVuSans-30" transform="translate(63.623047 0)"/>
       <use xlink:href="#DejaVuSans-30" transform="translate(127.246094 0)"/>
      </g>
     </g>
    </g>
    <g id="ytick_6">
     <g id="line2d_14">
      <g>
       <use xlink:href="#m905bc12f9c" x="46.965625" y="54.174118" style="stroke: #000000; stroke-width: 0.8"/>
      </g>
     </g>
     <g id="text_15">
      <!-- 500 -->
      <g transform="translate(20.878125 57.973336) scale(0.1 -0.1)">
       <use xlink:href="#DejaVuSans-35"/>
       <use xlink:href="#DejaVuSans-30" transform="translate(63.623047 0)"/>
       <use xlink:href="#DejaVuSans-30" transform="translate(127.246094 0)"/>
      </g>
     </g>
    </g>
    <g id="ytick_7">
     <g id="line2d_15">
      <g>
       <use xlink:href="#m905bc12f9c" x="46.965625" y="21.232941" style="stroke: #000000; stroke-width: 0.8"/>
      </g>
     </g>
     <g id="text_16">
      <!-- 600 -->
      <g transform="translate(20.878125 25.03216) scale(0.1 -0.1)">
       <use xlink:href="#DejaVuSans-36"/>
       <use xlink:href="#DejaVuSans-30" transform="translate(63.623047 0)"/>
       <use xlink:href="#DejaVuSans-30" transform="translate(127.246094 0)"/>
      </g>
     </g>
    </g>
    <g id="text_17">
     <!-- [counts] -->
     <g transform="translate(14.798438 138.6925) rotate(-90) scale(0.1 -0.1)">
      <defs>
       <path id="DejaVuSans-63" d="M 3122 3366 
L 3122 2828 
Q 2878 2963 2633 3030 
Q 2388 3097 2138 3097 
Q 1578 3097 1268 2742 
Q 959 2388 959 1747 
Q 959 1106 1268 751 
Q 1578 397 2138 397 
Q 2388 397 2633 464 
Q 2878 531 3122 666 
L 3122 134 
Q 2881 22 2623 -34 
Q 2366 -91 2075 -91 
Q 1284 -91 818 406 
Q 353 903 353 1747 
Q 353 2603 823 3093 
Q 1294 3584 2113 3584 
Q 2378 3584 2631 3529 
Q 2884 3475 3122 3366 
z
" transform="scale(0.015625)"/>
       <path id="DejaVuSans-75" d="M 544 1381 
L 544 3500 
L 1119 3500 
L 1119 1403 
Q 1119 906 1312 657 
Q 1506 409 1894 409 
Q 2359 409 2629 706 
Q 2900 1003 2900 1516 
L 2900 3500 
L 3475 3500 
L 3475 0 
L 2900 0 
L 2900 538 
Q 2691 219 2414 64 
Q 2138 -91 1772 -91 
Q 1169 -91 856 284 
Q 544 659 544 1381 
z
M 1991 3584 
L 1991 3584 
z
" transform="scale(0.015625)"/>
      </defs>
      <use xlink:href="#DejaVuSans-5b"/>
      <use xlink:href="#DejaVuSans-63" transform="translate(39.013672 0)"/>
      <use xlink:href="#DejaVuSans-6f" transform="translate(93.994141 0)"/>
      <use xlink:href="#DejaVuSans-75" transform="translate(155.175781 0)"/>
      <use xlink:href="#DejaVuSans-6e" transform="translate(218.554688 0)"/>
      <use xlink:href="#DejaVuSans-74" transform="translate(281.933594 0)"/>
      <use xlink:href="#DejaVuSans-73" transform="translate(321.142578 0)"/>
      <use xlink:href="#DejaVuSans-5d" transform="translate(373.242188 0)"/>
     </g>
    </g>
   </g>
   <g id="patch_3">
    <path d="M 46.965625 228.96 
L 46.965625 7.2 
" style="fill: none; stroke: #000000; stroke-width: 0.8; stroke-linejoin: miter; stroke-linecap: square"/>
   </g>
   <g id="patch_4">
    <path d="M 381.765625 228.96 
L 381.765625 7.2 
" style="fill: none; stroke: #000000; stroke-width: 0.8; stroke-linejoin: miter; stroke-linecap: square"/>
   </g>
   <g id="patch_5">
    <path d="M 46.965625 228.96 
L 381.765625 228.96 
" style="fill: none; stroke: #000000; stroke-width: 0.8; stroke-linejoin: miter; stroke-linecap: square"/>
   </g>
   <g id="patch_6">
    <path d="M 46.965625 7.2 
L 381.765625 7.2 
" style="fill: none; stroke: #000000; stroke-width: 0.8; stroke-linejoin: miter; stroke-linecap: square"/>
   </g>
   <g id="legend_1">
    <g id="patch_7">
     <path d="M 246.957813 45.1125 
L 374.765625 45.1125 
Q 376.765625 45.1125 376.765625 43.1125 
L 376.765625 14.2 
Q 376.765625 12.2 374.765625 12.2 
L 246.957813 12.2 
Q 244.957813 12.2 244.957813 14.2 
L 244.957813 43.1125 
Q 244.957813 45.1125 246.957813 45.1125 
z
" style="fill: #ffffff; opacity: 0.8; stroke: #cccccc; stroke-linejoin: miter"/>
    </g>
    <g id="line2d_16">
     <path d="M 248.957813 20.298437 
L 248.957813 20.298437 
L 258.957813 20.298437 
L 258.957813 20.298437 
L 268.957813 20.298437 
" style="fill: none; stroke: #1f77b4; stroke-width: 1.5; stroke-linecap: square"/>
    </g>
    <g id="text_18">
     <!-- detector_number:0 -->
     <g transform="translate(276.957813 23.798437) scale(0.1 -0.1)">
      <defs>
       <path id="DejaVuSans-64" d="M 2906 2969 
L 2906 4863 
L 3481 4863 
L 3481 0 
L 2906 0 
L 2906 525 
Q 2725 213 2448 61 
Q 2172 -91 1784 -91 
Q 1150 -91 751 415 
Q 353 922 353 1747 
Q 353 2572 751 3078 
Q 1150 3584 1784 3584 
Q 2172 3584 2448 3432 
Q 2725 3281 2906 2969 
z
M 947 1747 
Q 947 1113 1208 752 
Q 1469 391 1925 391 
Q 2381 391 2643 752 
Q 2906 1113 2906 1747 
Q 2906 2381 2643 2742 
Q 2381 3103 1925 3103 
Q 1469 3103 1208 2742 
Q 947 2381 947 1747 
z
" transform="scale(0.015625)"/>
       <path id="DejaVuSans-72" d="M 2631 2963 
Q 2534 3019 2420 3045 
Q 2306 3072 2169 3072 
Q 1681 3072 1420 2755 
Q 1159 2438 1159 1844 
L 1159 0 
L 581 0 
L 581 3500 
L 1159 3500 
L 1159 2956 
Q 1341 3275 1631 3429 
Q 1922 3584 2338 3584 
Q 2397 3584 2469 3576 
Q 2541 3569 2628 3553 
L 2631 2963 
z
" transform="scale(0.015625)"/>
       <path id="DejaVuSans-62" d="M 3116 1747 
Q 3116 2381 2855 2742 
Q 2594 3103 2138 3103 
Q 1681 3103 1420 2742 
Q 1159 2381 1159 1747 
Q 1159 1113 1420 752 
Q 1681 391 2138 391 
Q 2594 391 2855 752 
Q 3116 1113 3116 1747 
z
M 1159 2969 
Q 1341 3281 1617 3432 
Q 1894 3584 2278 3584 
Q 2916 3584 3314 3078 
Q 3713 2572 3713 1747 
Q 3713 922 3314 415 
Q 2916 -91 2278 -91 
Q 1894 -91 1617 61 
Q 1341 213 1159 525 
L 1159 0 
L 581 0 
L 581 4863 
L 1159 4863 
L 1159 2969 
z
" transform="scale(0.015625)"/>
       <path id="DejaVuSans-3a" d="M 750 794 
L 1409 794 
L 1409 0 
L 750 0 
L 750 794 
z
M 750 3309 
L 1409 3309 
L 1409 2516 
L 750 2516 
L 750 3309 
z
" transform="scale(0.015625)"/>
      </defs>
      <use xlink:href="#DejaVuSans-64"/>
      <use xlink:href="#DejaVuSans-65" transform="translate(63.476562 0)"/>
      <use xlink:href="#DejaVuSans-74" transform="translate(125 0)"/>
      <use xlink:href="#DejaVuSans-65" transform="translate(164.208984 0)"/>
      <use xlink:href="#DejaVuSans-63" transform="translate(225.732422 0)"/>
      <use xlink:href="#DejaVuSans-74" transform="translate(280.712891 0)"/>
      <use xlink:href="#DejaVuSans-6f" transform="translate(319.921875 0)"/>
      <use xlink:href="#DejaVuSans-72" transform="translate(381.103516 0)"/>
      <use xlink:href="#DejaVuSans-5f" transform="translate(422.216797 0)"/>
      <use xlink:href="#DejaVuSans-6e" transform="translate(472.216797 0)"/>
      <use xlink:href="#DejaVuSans-75" transform="translate(535.595703 0)"/>
      <use xlink:href="#DejaVuSans-6d" transform="translate(598.974609 0)"/>
      <use xlink:href="#DejaVuSans-62" transform="translate(696.386719 0)"/>
      <use xlink:href="#DejaVuSans-65" transform="translate(759.863281 0)"/>
      <use xlink:href="#DejaVuSans-72" transform="translate(821.386719 0)"/>
      <use xlink:href="#DejaVuSans-3a" transform="translate(860.75 0)"/>
      <use xlink:href="#DejaVuSans-30" transform="translate(894.441406 0)"/>
     </g>
    </g>
    <g id="line2d_17">
     <path d="M 248.957813 35.254687 
L 248.957813 35.254687 
L 258.957813 35.254687 
L 258.957813 35.254687 
L 268.957813 35.254687 
" style="fill: none; stroke: #ff7f0e; stroke-width: 1.5; stroke-linecap: square"/>
    </g>
    <g id="text_19">
     <!-- detector_number:1 -->
     <g transform="translate(276.957813 38.754687) scale(0.1 -0.1)">
      <use xlink:href="#DejaVuSans-64"/>
      <use xlink:href="#DejaVuSans-65" transform="translate(63.476562 0)"/>
      <use xlink:href="#DejaVuSans-74" transform="translate(125 0)"/>
      <use xlink:href="#DejaVuSans-65" transform="translate(164.208984 0)"/>
      <use xlink:href="#DejaVuSans-63" transform="translate(225.732422 0)"/>
      <use xlink:href="#DejaVuSans-74" transform="translate(280.712891 0)"/>
      <use xlink:href="#DejaVuSans-6f" transform="translate(319.921875 0)"/>
      <use xlink:href="#DejaVuSans-72" transform="translate(381.103516 0)"/>
      <use xlink:href="#DejaVuSans-5f" transform="translate(422.216797 0)"/>
      <use xlink:href="#DejaVuSans-6e" transform="translate(472.216797 0)"/>
      <use xlink:href="#DejaVuSans-75" transform="translate(535.595703 0)"/>
      <use xlink:href="#DejaVuSans-6d" transform="translate(598.974609 0)"/>
      <use xlink:href="#DejaVuSans-62" transform="translate(696.386719 0)"/>
      <use xlink:href="#DejaVuSans-65" transform="translate(759.863281 0)"/>
      <use xlink:href="#DejaVuSans-72" transform="translate(821.386719 0)"/>
      <use xlink:href="#DejaVuSans-3a" transform="translate(860.75 0)"/>
      <use xlink:href="#DejaVuSans-31" transform="translate(894.441406 0)"/>
     </g>
    </g>
   </g>
   <g id="line2d_18">
    <path d="M 62.183807 132.244706 
L 63.198352 132.244706 
L 63.198352 138.174118 
L 64.212898 138.174118 
L 64.212898 113.468235 
L 65.227443 113.468235 
L 65.227443 130.597647 
L 66.241989 130.597647 
L 66.241989 138.503529 
L 67.256534 138.503529 
L 67.256534 130.927059 
L 68.27108 130.927059 
L 68.27108 122.691765 
L 69.285625 122.691765 
L 69.285625 128.621176 
L 70.30017 128.621176 
L 70.30017 133.891765 
L 71.314716 133.891765 
L 71.314716 131.915294 
L 72.329261 131.915294 
L 72.329261 129.938824 
L 73.343807 129.938824 
L 73.343807 140.150588 
L 74.358352 140.150588 
L 74.358352 134.550588 
L 75.372898 134.550588 
L 75.372898 141.468235 
L 76.387443 141.468235 
L 76.387443 151.68 
L 77.401989 151.68 
L 77.401989 143.115294 
L 78.416534 143.115294 
L 78.416534 140.48 
L 80.445625 140.48 
L 80.445625 137.515294 
L 81.46017 137.515294 
L 81.46017 144.762353 
L 82.474716 144.762353 
L 82.474716 154.315294 
L 83.489261 154.315294 
L 83.489261 147.068235 
L 84.503807 147.068235 
L 84.503807 143.115294 
L 85.518352 143.115294 
L 85.518352 141.138824 
L 86.532898 141.138824 
L 86.532898 152.338824 
L 87.547443 152.338824 
L 87.547443 146.409412 
L 88.561989 146.409412 
L 88.561989 152.997647 
L 89.576534 152.997647 
L 89.576534 147.727059 
L 90.59108 147.727059 
L 90.59108 157.609412 
L 91.605625 157.609412 
L 91.605625 153.656471 
L 92.62017 153.656471 
L 92.62017 157.28 
L 93.634716 157.28 
L 93.634716 157.609412 
L 94.649261 157.609412 
L 94.649261 162.221176 
L 95.663807 162.221176 
L 95.663807 162.88 
L 96.678352 162.88 
L 96.678352 160.244706 
L 97.692898 160.244706 
L 97.692898 169.468235 
L 98.707443 169.468235 
L 98.707443 166.832941 
L 99.721989 166.832941 
L 99.721989 164.856471 
L 100.736534 164.856471 
L 100.736534 173.091765 
L 101.75108 173.091765 
L 101.75108 176.056471 
L 102.765625 176.056471 
L 102.765625 169.138824 
L 103.78017 169.138824 
L 103.78017 174.738824 
L 104.794716 174.738824 
L 104.794716 180.338824 
L 105.809261 180.338824 
L 105.809261 182.315294 
L 106.823807 182.315294 
L 106.823807 193.844706 
L 107.838352 193.844706 
L 107.838352 190.88 
L 108.852898 190.88 
L 108.852898 193.185882 
L 109.867443 193.185882 
L 109.867443 190.550588 
L 110.881989 190.550588 
L 110.881989 196.809412 
L 111.896534 196.809412 
L 111.896534 193.515294 
L 112.91108 193.515294 
L 112.91108 197.138824 
L 113.925625 197.138824 
L 113.925625 201.750588 
L 114.94017 201.750588 
L 114.94017 197.797647 
L 115.954716 197.797647 
L 115.954716 202.08 
L 116.969261 202.08 
L 116.969261 205.703529 
L 117.983807 205.703529 
L 117.983807 208.009412 
L 118.998352 208.009412 
L 118.998352 207.350588 
L 120.012898 207.350588 
L 120.012898 206.691765 
L 121.027443 206.691765 
L 121.027443 212.291765 
L 122.041989 212.291765 
L 122.041989 214.268235 
L 123.056534 214.268235 
L 123.056534 210.315294 
L 124.07108 210.315294 
L 124.07108 214.597647 
L 125.085625 214.597647 
L 125.085625 214.927059 
L 126.10017 214.927059 
L 126.10017 216.244706 
L 127.114716 216.244706 
L 127.114716 214.268235 
L 128.129261 214.268235 
L 128.129261 214.927059 
L 129.143807 214.927059 
L 129.143807 216.574118 
L 130.158352 216.574118 
L 130.158352 218.550588 
L 131.172898 218.550588 
L 131.172898 217.232941 
L 132.187443 217.232941 
L 132.187443 217.891765 
L 133.201989 217.891765 
L 133.201989 218.88 
L 149.434716 218.88 
L 149.434716 215.256471 
L 150.449261 215.256471 
L 150.449261 213.28 
L 151.463807 213.28 
L 151.463807 205.703529 
L 152.478352 205.703529 
L 152.478352 201.421176 
L 153.492898 201.421176 
L 153.492898 194.503529 
L 154.507443 194.503529 
L 154.507443 194.832941 
L 155.521989 194.832941 
L 155.521989 193.844706 
L 156.536534 193.844706 
L 156.536534 182.315294 
L 157.55108 182.315294 
L 157.55108 180.338824 
L 158.565625 180.338824 
L 158.565625 165.515294 
L 159.58017 165.515294 
L 159.58017 171.444706 
L 160.594716 171.444706 
L 160.594716 155.962353 
L 161.609261 155.962353 
L 161.609261 145.091765 
L 162.623807 145.091765 
L 162.623807 148.715294 
L 163.638352 148.715294 
L 163.638352 134.221176 
L 164.652898 134.221176 
L 164.652898 138.503529 
L 165.667443 138.503529 
L 165.667443 135.538824 
L 166.681989 135.538824 
L 166.681989 130.927059 
L 167.696534 130.927059 
L 167.696534 127.962353 
L 168.71108 127.962353 
L 168.71108 116.762353 
L 169.725625 116.762353 
L 169.725625 112.150588 
L 170.74017 112.150588 
L 170.74017 113.468235 
L 171.754716 113.468235 
L 171.754716 105.562353 
L 172.769261 105.562353 
L 172.769261 100.291765 
L 173.783807 100.291765 
L 173.783807 95.68 
L 174.798352 95.68 
L 174.798352 98.974118 
L 175.812898 98.974118 
L 175.812898 86.785882 
L 176.827443 86.785882 
L 176.827443 90.08 
L 177.841989 90.08 
L 177.841989 82.174118 
L 178.856534 82.174118 
L 178.856534 89.091765 
L 179.87108 89.091765 
L 179.87108 74.268235 
L 180.885625 74.268235 
L 180.885625 75.585882 
L 182.914716 75.585882 
L 182.914716 67.021176 
L 183.929261 67.021176 
L 183.929261 50.88 
L 184.943807 50.88 
L 184.943807 72.621176 
L 185.958352 72.621176 
L 185.958352 55.162353 
L 186.972898 55.162353 
L 186.972898 28.150588 
L 187.987443 28.150588 
L 187.987443 54.174118 
L 189.001989 54.174118 
L 189.001989 43.632941 
L 190.016534 43.632941 
L 190.016534 45.609412 
L 191.03108 45.609412 
L 191.03108 60.762353 
L 192.045625 60.762353 
L 192.045625 34.738824 
L 193.06017 34.738824 
L 193.06017 28.48 
L 194.074716 28.48 
L 194.074716 53.515294 
L 195.089261 53.515294 
L 195.089261 29.138824 
L 196.103807 29.138824 
L 196.103807 40.009412 
L 197.118352 40.009412 
L 197.118352 52.856471 
L 198.132898 52.856471 
L 198.132898 49.891765 
L 200.161989 49.891765 
L 200.161989 57.797647 
L 201.176534 57.797647 
L 201.176534 45.609412 
L 202.19108 45.609412 
L 202.19108 41.656471 
L 203.205625 41.656471 
L 203.205625 52.197647 
L 204.22017 52.197647 
L 204.22017 54.174118 
L 205.234716 54.174118 
L 205.234716 73.938824 
L 206.249261 73.938824 
L 206.249261 66.032941 
L 207.263807 66.032941 
L 207.263807 47.256471 
L 208.278352 47.256471 
L 208.278352 75.256471 
L 209.292898 75.256471 
L 209.292898 64.385882 
L 210.307443 64.385882 
L 210.307443 76.574118 
L 211.321989 76.574118 
L 211.321989 71.632941 
L 212.336534 71.632941 
L 212.336534 65.374118 
L 213.35108 65.374118 
L 213.35108 59.774118 
L 214.365625 59.774118 
L 214.365625 70.644706 
L 215.38017 70.644706 
L 215.38017 61.421176 
L 216.394716 61.421176 
L 216.394716 73.938824 
L 217.409261 73.938824 
L 217.409261 73.609412 
L 218.423807 73.609412 
L 218.423807 59.774118 
L 219.438352 59.774118 
L 219.438352 64.385882 
L 220.452898 64.385882 
L 220.452898 67.021176 
L 221.467443 67.021176 
L 221.467443 83.821176 
L 222.481989 83.821176 
L 222.481989 84.809412 
L 223.496534 84.809412 
L 223.496534 81.515294 
L 224.51108 81.515294 
L 224.51108 68.338824 
L 225.525625 68.338824 
L 225.525625 79.538824 
L 226.54017 79.538824 
L 226.54017 81.844706 
L 227.554716 81.844706 
L 227.554716 72.291765 
L 228.569261 72.291765 
L 228.569261 81.515294 
L 229.583807 81.515294 
L 229.583807 85.138824 
L 230.598352 85.138824 
L 230.598352 79.209412 
L 231.612898 79.209412 
L 231.612898 74.927059 
L 232.627443 74.927059 
L 232.627443 80.197647 
L 233.641989 80.197647 
L 233.641989 81.515294 
L 234.656534 81.515294 
L 234.656534 76.903529 
L 235.67108 76.903529 
L 235.67108 86.456471 
L 236.685625 86.456471 
L 236.685625 75.585882 
L 237.70017 75.585882 
L 237.70017 89.750588 
L 238.714716 89.750588 
L 238.714716 75.585882 
L 239.729261 75.585882 
L 239.729261 87.444706 
L 240.743807 87.444706 
L 240.743807 90.08 
L 241.758352 90.08 
L 241.758352 91.397647 
L 242.772898 91.397647 
L 242.772898 86.785882 
L 243.787443 86.785882 
L 243.787443 91.397647 
L 244.801989 91.397647 
L 244.801989 88.103529 
L 245.816534 88.103529 
L 245.816534 98.315294 
L 246.83108 98.315294 
L 246.83108 95.021176 
L 247.845625 95.021176 
L 247.845625 101.28 
L 248.86017 101.28 
L 248.86017 83.491765 
L 249.874716 83.491765 
L 249.874716 95.350588 
L 250.889261 95.350588 
L 250.889261 96.668235 
L 251.903807 96.668235 
L 251.903807 85.797647 
L 252.918352 85.797647 
L 252.918352 101.609412 
L 253.932898 101.609412 
L 253.932898 99.962353 
L 254.947443 99.962353 
L 254.947443 91.397647 
L 255.961989 91.397647 
L 255.961989 109.515294 
L 256.976534 109.515294 
L 256.976534 119.068235 
L 257.99108 119.068235 
L 257.99108 113.797647 
L 259.005625 113.797647 
L 259.005625 122.691765 
L 260.02017 122.691765 
L 260.02017 134.221176 
L 261.034716 134.221176 
L 261.034716 134.88 
L 262.049261 134.88 
L 262.049261 137.844706 
L 263.063807 137.844706 
L 263.063807 147.068235 
L 264.078352 147.068235 
L 264.078352 138.503529 
L 265.092898 138.503529 
L 265.092898 151.350588 
L 266.107443 151.350588 
L 266.107443 148.715294 
L 267.121989 148.715294 
L 267.121989 156.621176 
L 268.136534 156.621176 
L 268.136534 165.185882 
L 269.15108 165.185882 
L 269.15108 164.856471 
L 270.165625 164.856471 
L 270.165625 169.138824 
L 271.18017 169.138824 
L 271.18017 176.385882 
L 272.194716 176.385882 
L 272.194716 172.103529 
L 273.209261 172.103529 
L 273.209261 184.621176 
L 274.223807 184.621176 
L 274.223807 186.927059 
L 275.238352 186.927059 
L 275.238352 189.891765 
L 276.252898 189.891765 
L 276.252898 195.162353 
L 277.267443 195.162353 
L 277.267443 199.774118 
L 278.281989 199.774118 
L 278.281989 200.103529 
L 279.296534 200.103529 
L 279.296534 203.068235 
L 280.31108 203.068235 
L 280.31108 205.374118 
L 281.325625 205.374118 
L 281.325625 209.985882 
L 283.354716 209.985882 
L 283.354716 213.28 
L 284.369261 213.28 
L 284.369261 216.244706 
L 285.383807 216.244706 
L 285.383807 218.221176 
L 286.398352 218.221176 
L 286.398352 217.891765 
L 287.412898 217.891765 
L 287.412898 218.550588 
L 288.427443 218.550588 
L 288.427443 218.88 
L 297.558352 218.88 
L 297.558352 218.550588 
L 298.572898 218.550588 
L 298.572898 215.585882 
L 299.587443 215.585882 
L 299.587443 210.644706 
L 300.601989 210.644706 
L 300.601989 206.032941 
L 301.616534 206.032941 
L 301.616534 204.056471 
L 302.63108 204.056471 
L 302.63108 195.162353 
L 304.66017 195.162353 
L 304.66017 189.891765 
L 305.674716 189.891765 
L 305.674716 191.868235 
L 306.689261 191.868235 
L 306.689261 184.950588 
L 308.718352 184.950588 
L 308.718352 174.08 
L 309.732898 174.08 
L 309.732898 174.738824 
L 310.747443 174.738824 
L 310.747443 167.821176 
L 311.761989 167.821176 
L 311.761989 169.797647 
L 312.776534 169.797647 
L 312.776534 163.868235 
L 313.79108 163.868235 
L 313.79108 168.150588 
L 314.805625 168.150588 
L 314.805625 156.291765 
L 315.82017 156.291765 
L 315.82017 144.103529 
L 316.834716 144.103529 
L 316.834716 151.68 
L 317.849261 151.68 
L 317.849261 138.174118 
L 318.863807 138.174118 
L 318.863807 149.703529 
L 319.878352 149.703529 
L 319.878352 127.632941 
L 320.892898 127.632941 
L 320.892898 135.538824 
L 321.907443 135.538824 
L 321.907443 139.821176 
L 322.921989 139.821176 
L 322.921989 133.562353 
L 323.936534 133.562353 
L 323.936534 123.68 
L 324.95108 123.68 
L 324.95108 124.338824 
L 325.965625 124.338824 
L 325.965625 118.409412 
L 326.98017 118.409412 
L 326.98017 121.374118 
L 327.994716 121.374118 
L 327.994716 109.185882 
L 329.009261 109.185882 
L 329.009261 123.350588 
L 330.023807 123.350588 
L 330.023807 111.162353 
L 331.038352 111.162353 
L 331.038352 127.962353 
L 332.052898 127.962353 
L 332.052898 100.291765 
L 333.067443 100.291765 
L 333.067443 104.244706 
L 335.096534 104.244706 
L 335.096534 102.268235 
L 336.11108 102.268235 
L 336.11108 99.962353 
L 337.125625 99.962353 
L 337.125625 97.656471 
L 338.14017 97.656471 
L 338.14017 112.150588 
L 339.154716 112.150588 
L 339.154716 89.750588 
L 340.169261 89.750588 
L 340.169261 94.032941 
L 341.183807 94.032941 
L 341.183807 102.268235 
L 342.198352 102.268235 
L 342.198352 91.727059 
L 343.212898 91.727059 
L 343.212898 107.868235 
L 344.227443 107.868235 
L 344.227443 94.032941 
L 345.241989 94.032941 
L 345.241989 99.303529 
L 346.256534 99.303529 
L 346.256534 103.256471 
L 347.27108 103.256471 
L 347.27108 109.515294 
L 348.285625 109.515294 
L 348.285625 110.174118 
L 349.30017 110.174118 
L 349.30017 117.421176 
L 350.314716 117.421176 
L 350.314716 102.927059 
L 351.329261 102.927059 
L 351.329261 112.48 
L 352.343807 112.48 
L 352.343807 113.468235 
L 353.358352 113.468235 
L 353.358352 115.774118 
L 354.372898 115.774118 
L 354.372898 116.103529 
L 355.387443 116.103529 
L 355.387443 110.832941 
L 356.401989 110.832941 
L 356.401989 114.785882 
L 357.416534 114.785882 
L 357.416534 106.88 
L 358.43108 106.88 
L 358.43108 110.503529 
L 359.445625 110.503529 
L 359.445625 117.421176 
L 360.46017 117.421176 
L 360.46017 126.644706 
L 361.474716 126.644706 
L 361.474716 115.115294 
L 362.489261 115.115294 
L 362.489261 117.091765 
L 363.503807 117.091765 
L 363.503807 123.68 
L 364.518352 123.68 
L 364.518352 124.338824 
L 365.532898 124.338824 
L 365.532898 117.750588 
L 366.547443 117.750588 
L 366.547443 117.750588 
" clip-path="url(#pc7ccf9a494)" style="fill: none; stroke: #1f77b4; stroke-width: 1.5; stroke-linecap: square"/>
   </g>
   <g id="line2d_19">
    <path d="M 62.183807 124.009412 
L 63.198352 124.009412 
L 63.198352 127.632941 
L 64.212898 127.632941 
L 64.212898 127.962353 
L 65.227443 127.962353 
L 65.227443 127.632941 
L 66.241989 127.632941 
L 66.241989 133.891765 
L 67.256534 133.891765 
L 67.256534 134.88 
L 68.27108 134.88 
L 68.27108 142.456471 
L 69.285625 142.456471 
L 69.285625 139.821176 
L 70.30017 139.821176 
L 70.30017 150.691765 
L 71.314716 150.691765 
L 71.314716 138.503529 
L 72.329261 138.503529 
L 72.329261 133.562353 
L 73.343807 133.562353 
L 73.343807 137.185882 
L 74.358352 137.185882 
L 74.358352 142.456471 
L 75.372898 142.456471 
L 75.372898 147.068235 
L 76.387443 147.068235 
L 76.387443 152.668235 
L 77.401989 152.668235 
L 77.401989 140.809412 
L 78.416534 140.809412 
L 78.416534 138.174118 
L 79.43108 138.174118 
L 79.43108 151.021176 
L 80.445625 151.021176 
L 80.445625 144.432941 
L 81.46017 144.432941 
L 81.46017 149.703529 
L 82.474716 149.703529 
L 82.474716 147.068235 
L 83.489261 147.068235 
L 83.489261 156.621176 
L 84.503807 156.621176 
L 84.503807 151.350588 
L 85.518352 151.350588 
L 85.518352 157.938824 
L 86.532898 157.938824 
L 86.532898 156.291765 
L 87.547443 156.291765 
L 87.547443 160.574118 
L 88.561989 160.574118 
L 88.561989 160.903529 
L 89.576534 160.903529 
L 89.576534 159.915294 
L 90.59108 159.915294 
L 90.59108 166.174118 
L 91.605625 166.174118 
L 91.605625 164.197647 
L 92.62017 164.197647 
L 92.62017 168.809412 
L 93.634716 168.809412 
L 93.634716 173.421176 
L 94.649261 173.421176 
L 94.649261 172.103529 
L 95.663807 172.103529 
L 95.663807 169.138824 
L 96.678352 169.138824 
L 96.678352 177.044706 
L 97.692898 177.044706 
L 97.692898 178.691765 
L 98.707443 178.691765 
L 98.707443 185.609412 
L 99.721989 185.609412 
L 99.721989 193.185882 
L 100.736534 193.185882 
L 100.736534 190.88 
L 101.75108 190.88 
L 101.75108 191.868235 
L 102.765625 191.868235 
L 102.765625 192.856471 
L 103.78017 192.856471 
L 103.78017 194.503529 
L 105.809261 194.503529 
L 105.809261 199.774118 
L 106.823807 199.774118 
L 106.823807 199.115294 
L 107.838352 199.115294 
L 107.838352 199.774118 
L 108.852898 199.774118 
L 108.852898 202.409412 
L 109.867443 202.409412 
L 109.867443 208.668235 
L 110.881989 208.668235 
L 110.881989 207.021176 
L 111.896534 207.021176 
L 111.896534 206.362353 
L 112.91108 206.362353 
L 112.91108 210.644706 
L 113.925625 210.644706 
L 113.925625 212.950588 
L 114.94017 212.950588 
L 114.94017 211.632941 
L 115.954716 211.632941 
L 115.954716 213.609412 
L 116.969261 213.609412 
L 116.969261 214.927059 
L 117.983807 214.927059 
L 117.983807 215.915294 
L 118.998352 215.915294 
L 118.998352 214.597647 
L 120.012898 214.597647 
L 120.012898 214.268235 
L 121.027443 214.268235 
L 121.027443 216.244706 
L 122.041989 216.244706 
L 122.041989 218.550588 
L 123.056534 218.550588 
L 123.056534 217.232941 
L 124.07108 217.232941 
L 124.07108 217.891765 
L 125.085625 217.891765 
L 125.085625 218.88 
L 147.405625 218.88 
L 147.405625 215.915294 
L 148.42017 215.915294 
L 148.42017 214.597647 
L 149.434716 214.597647 
L 149.434716 206.362353 
L 150.449261 206.362353 
L 150.449261 205.374118 
L 151.463807 205.374118 
L 151.463807 195.491765 
L 152.478352 195.491765 
L 152.478352 191.209412 
L 153.492898 191.209412 
L 153.492898 195.491765 
L 154.507443 195.491765 
L 154.507443 183.632941 
L 155.521989 183.632941 
L 155.521989 183.962353 
L 156.536534 183.962353 
L 156.536534 163.868235 
L 157.55108 163.868235 
L 157.55108 169.797647 
L 158.565625 169.797647 
L 158.565625 155.962353 
L 159.58017 155.962353 
L 159.58017 146.08 
L 160.594716 146.08 
L 160.594716 146.409412 
L 161.609261 146.409412 
L 161.609261 131.915294 
L 162.623807 131.915294 
L 162.623807 136.856471 
L 163.638352 136.856471 
L 163.638352 133.232941 
L 164.652898 133.232941 
L 164.652898 127.962353 
L 165.667443 127.962353 
L 165.667443 126.315294 
L 166.681989 126.315294 
L 166.681989 112.48 
L 167.696534 112.48 
L 167.696534 111.491765 
L 168.71108 111.491765 
L 168.71108 110.174118 
L 169.725625 110.174118 
L 169.725625 96.668235 
L 170.74017 96.668235 
L 170.74017 97.656471 
L 171.754716 97.656471 
L 171.754716 96.009412 
L 172.769261 96.009412 
L 172.769261 91.397647 
L 173.783807 91.397647 
L 173.783807 85.797647 
L 174.798352 85.797647 
L 174.798352 90.409412 
L 175.812898 90.409412 
L 175.812898 78.221176 
L 176.827443 78.221176 
L 176.827443 75.256471 
L 177.841989 75.256471 
L 177.841989 69.985882 
L 178.856534 69.985882 
L 178.856534 78.550588 
L 179.87108 78.550588 
L 179.87108 66.691765 
L 180.885625 66.691765 
L 180.885625 55.491765 
L 181.90017 55.491765 
L 181.90017 53.185882 
L 182.914716 53.185882 
L 182.914716 67.68 
L 183.929261 67.68 
L 183.929261 32.432941 
L 184.943807 32.432941 
L 184.943807 42.974118 
L 185.958352 42.974118 
L 185.958352 38.691765 
L 186.972898 38.691765 
L 186.972898 48.244706 
L 187.987443 48.244706 
L 187.987443 48.903529 
L 189.001989 48.903529 
L 189.001989 45.609412 
L 190.016534 45.609412 
L 190.016534 17.28 
L 191.03108 17.28 
L 191.03108 43.303529 
L 192.045625 43.303529 
L 192.045625 31.444706 
L 193.06017 31.444706 
L 193.06017 28.150588 
L 194.074716 28.150588 
L 194.074716 50.221176 
L 195.089261 50.221176 
L 195.089261 40.009412 
L 196.103807 40.009412 
L 196.103807 51.209412 
L 197.118352 51.209412 
L 197.118352 47.585882 
L 198.132898 47.585882 
L 198.132898 49.891765 
L 199.147443 49.891765 
L 199.147443 34.08 
L 200.161989 34.08 
L 200.161989 51.538824 
L 201.176534 51.538824 
L 201.176534 47.256471 
L 202.19108 47.256471 
L 202.19108 65.044706 
L 203.205625 65.044706 
L 203.205625 67.350588 
L 204.22017 67.350588 
L 204.22017 41.985882 
L 205.234716 41.985882 
L 205.234716 69.985882 
L 206.249261 69.985882 
L 206.249261 62.409412 
L 207.263807 62.409412 
L 207.263807 74.597647 
L 208.278352 74.597647 
L 208.278352 66.362353 
L 209.292898 66.362353 
L 209.292898 60.103529 
L 210.307443 60.103529 
L 210.307443 52.527059 
L 211.321989 52.527059 
L 211.321989 69.327059 
L 212.336534 69.327059 
L 212.336534 63.727059 
L 213.35108 63.727059 
L 213.35108 70.974118 
L 214.365625 70.974118 
L 214.365625 64.385882 
L 215.38017 64.385882 
L 215.38017 53.515294 
L 216.394716 53.515294 
L 216.394716 66.032941 
L 217.409261 66.032941 
L 217.409261 70.315294 
L 218.423807 70.315294 
L 218.423807 74.927059 
L 219.438352 74.927059 
L 219.438352 80.527059 
L 220.452898 80.527059 
L 220.452898 68.009412 
L 221.467443 68.009412 
L 221.467443 78.221176 
L 222.481989 78.221176 
L 222.481989 74.597647 
L 223.496534 74.597647 
L 223.496534 79.868235 
L 224.51108 79.868235 
L 224.51108 68.997647 
L 225.525625 68.997647 
L 225.525625 84.48 
L 226.54017 84.48 
L 226.54017 77.232941 
L 227.554716 77.232941 
L 227.554716 72.950588 
L 228.569261 72.950588 
L 228.569261 69.985882 
L 229.583807 69.985882 
L 229.583807 71.632941 
L 230.598352 71.632941 
L 230.598352 86.456471 
L 231.612898 86.456471 
L 231.612898 75.915294 
L 232.627443 75.915294 
L 232.627443 80.527059 
L 233.641989 80.527059 
L 233.641989 74.927059 
L 234.656534 74.927059 
L 234.656534 78.221176 
L 235.67108 78.221176 
L 235.67108 88.103529 
L 236.685625 88.103529 
L 236.685625 79.868235 
L 237.70017 79.868235 
L 237.70017 89.421176 
L 238.714716 89.421176 
L 238.714716 85.138824 
L 239.729261 85.138824 
L 239.729261 86.456471 
L 240.743807 86.456471 
L 240.743807 83.821176 
L 241.758352 83.821176 
L 241.758352 92.056471 
L 242.772898 92.056471 
L 242.772898 96.997647 
L 243.787443 96.997647 
L 243.787443 96.338824 
L 244.801989 96.338824 
L 244.801989 83.491765 
L 245.816534 83.491765 
L 245.816534 93.703529 
L 246.83108 93.703529 
L 246.83108 90.409412 
L 247.845625 90.409412 
L 247.845625 83.162353 
L 248.86017 83.162353 
L 248.86017 98.315294 
L 250.889261 98.315294 
L 250.889261 89.091765 
L 251.903807 89.091765 
L 251.903807 108.527059 
L 252.918352 108.527059 
L 252.918352 114.785882 
L 253.932898 114.785882 
L 253.932898 111.162353 
L 254.947443 111.162353 
L 254.947443 125.985882 
L 255.961989 125.985882 
L 255.961989 130.597647 
L 256.976534 130.597647 
L 256.976534 136.197647 
L 257.99108 136.197647 
L 257.99108 135.538824 
L 259.005625 135.538824 
L 259.005625 143.774118 
L 260.02017 143.774118 
L 260.02017 139.491765 
L 261.034716 139.491765 
L 261.034716 147.068235 
L 262.049261 147.068235 
L 262.049261 155.632941 
L 263.063807 155.632941 
L 263.063807 154.974118 
L 264.078352 154.974118 
L 264.078352 167.491765 
L 265.092898 167.491765 
L 265.092898 163.209412 
L 266.107443 163.209412 
L 266.107443 167.162353 
L 267.121989 167.162353 
L 267.121989 175.068235 
L 268.136534 175.068235 
L 268.136534 175.727059 
L 269.15108 175.727059 
L 269.15108 187.915294 
L 270.165625 187.915294 
L 270.165625 185.609412 
L 271.18017 185.609412 
L 271.18017 188.574118 
L 272.194716 188.574118 
L 272.194716 201.750588 
L 273.209261 201.750588 
L 273.209261 198.785882 
L 274.223807 198.785882 
L 274.223807 202.08 
L 275.238352 202.08 
L 275.238352 202.409412 
L 276.252898 202.409412 
L 276.252898 208.997647 
L 277.267443 208.997647 
L 277.267443 210.974118 
L 278.281989 210.974118 
L 278.281989 213.609412 
L 279.296534 213.609412 
L 279.296534 213.28 
L 280.31108 213.28 
L 280.31108 218.221176 
L 283.354716 218.221176 
L 283.354716 218.88 
L 293.50017 218.88 
L 293.50017 215.915294 
L 294.514716 215.915294 
L 294.514716 212.950588 
L 295.529261 212.950588 
L 295.529261 205.044706 
L 296.543807 205.044706 
L 296.543807 204.056471 
L 297.558352 204.056471 
L 297.558352 197.138824 
L 298.572898 197.138824 
L 298.572898 193.185882 
L 299.587443 193.185882 
L 299.587443 189.232941 
L 300.601989 189.232941 
L 300.601989 190.88 
L 301.616534 190.88 
L 301.616534 185.609412 
L 302.63108 185.609412 
L 302.63108 183.962353 
L 303.645625 183.962353 
L 303.645625 173.750588 
L 304.66017 173.750588 
L 304.66017 172.762353 
L 305.674716 172.762353 
L 305.674716 168.150588 
L 306.689261 168.150588 
L 306.689261 164.527059 
L 307.703807 164.527059 
L 307.703807 164.197647 
L 308.718352 164.197647 
L 308.718352 167.162353 
L 309.732898 167.162353 
L 309.732898 151.68 
L 310.747443 151.68 
L 310.747443 143.115294 
L 311.761989 143.115294 
L 311.761989 148.715294 
L 312.776534 148.715294 
L 312.776534 139.821176 
L 313.79108 139.821176 
L 313.79108 138.503529 
L 314.805625 138.503529 
L 314.805625 130.268235 
L 315.82017 130.268235 
L 315.82017 134.221176 
L 316.834716 134.221176 
L 316.834716 135.209412 
L 317.849261 135.209412 
L 317.849261 130.597647 
L 318.863807 130.597647 
L 318.863807 120.056471 
L 319.878352 120.056471 
L 319.878352 114.456471 
L 320.892898 114.456471 
L 320.892898 121.374118 
L 321.907443 121.374118 
L 321.907443 107.538824 
L 322.921989 107.538824 
L 322.921989 122.691765 
L 323.936534 122.691765 
L 323.936534 109.844706 
L 324.95108 109.844706 
L 324.95108 120.385882 
L 325.965625 120.385882 
L 325.965625 108.856471 
L 326.98017 108.856471 
L 326.98017 99.962353 
L 327.994716 99.962353 
L 327.994716 100.621176 
L 329.009261 100.621176 
L 329.009261 95.350588 
L 330.023807 95.350588 
L 330.023807 101.28 
L 331.038352 101.28 
L 331.038352 98.315294 
L 332.052898 98.315294 
L 332.052898 102.268235 
L 333.067443 102.268235 
L 333.067443 91.068235 
L 334.081989 91.068235 
L 334.081989 90.738824 
L 335.096534 90.738824 
L 335.096534 98.315294 
L 336.11108 98.315294 
L 336.11108 88.762353 
L 337.125625 88.762353 
L 337.125625 104.244706 
L 338.14017 104.244706 
L 338.14017 93.044706 
L 339.154716 93.044706 
L 339.154716 97.656471 
L 340.169261 97.656471 
L 340.169261 100.291765 
L 341.183807 100.291765 
L 341.183807 104.574118 
L 342.198352 104.574118 
L 342.198352 107.868235 
L 343.212898 107.868235 
L 343.212898 116.762353 
L 344.227443 116.762353 
L 344.227443 100.291765 
L 345.241989 100.291765 
L 345.241989 109.185882 
L 346.256534 109.185882 
L 346.256534 110.174118 
L 347.27108 110.174118 
L 347.27108 110.503529 
L 348.285625 110.503529 
L 348.285625 114.127059 
L 349.30017 114.127059 
L 349.30017 110.174118 
L 350.314716 110.174118 
L 350.314716 111.491765 
L 351.329261 111.491765 
L 351.329261 108.527059 
L 352.343807 108.527059 
L 352.343807 102.597647 
L 353.358352 102.597647 
L 353.358352 117.750588 
L 354.372898 117.750588 
L 354.372898 122.691765 
L 355.387443 122.691765 
L 355.387443 113.468235 
L 356.401989 113.468235 
L 356.401989 118.738824 
L 357.416534 118.738824 
L 357.416534 114.127059 
L 358.43108 114.127059 
L 358.43108 128.291765 
L 359.445625 128.291765 
L 359.445625 117.750588 
L 360.46017 117.750588 
L 360.46017 134.221176 
L 361.474716 134.221176 
L 361.474716 123.68 
L 362.489261 123.68 
L 362.489261 115.444706 
L 363.503807 115.444706 
L 363.503807 136.527059 
L 364.518352 136.527059 
L 364.518352 133.232941 
L 365.532898 133.232941 
L 365.532898 127.962353 
L 366.547443 127.962353 
L 366.547443 127.962353 
" clip-path="url(#pc7ccf9a494)" style="fill: none; stroke: #ff7f0e; stroke-width: 1.5; stroke-linecap: square"/>
   </g>
  </g>
 </g>
 <defs>
  <clipPath id="pc7ccf9a494">
   <rect x="46.965625" y="7.2" width="334.8" height="221.76"/>
  </clipPath>
 </defs>
</svg>
