<?xml version="1.0" encoding="utf-8" standalone="no"?>
<!DOCTYPE svg PUBLIC "-//W3C//DTD SVG 1.1//EN"
  "http://www.w3.org/Graphics/SVG/1.1/DTD/svg11.dtd">
<svg xmlns:xlink="http://www.w3.org/1999/xlink" width="872.39952pt" height="296.39952pt" viewBox="0 0 872.39952 296.39952" xmlns="http://www.w3.org/2000/svg" version="1.1">
 <metadata>
  <rdf:RDF xmlns:dc="http://purl.org/dc/elements/1.1/" xmlns:cc="http://creativecommons.org/ns#" xmlns:rdf="http://www.w3.org/1999/02/22-rdf-syntax-ns#">
   <cc:Work>
    <dc:type rdf:resource="http://purl.org/dc/dcmitype/StillImage"/>
    <dc:date>2025-04-10T08:51:24.387008</dc:date>
    <dc:format>image/svg+xml</dc:format>
    <dc:creator>
     <cc:Agent>
      <dc:title>Matplotlib v3.10.1, https://matplotlib.org/</dc:title>
     </cc:Agent>
    </dc:creator>
   </cc:Work>
  </rdf:RDF>
 </metadata>
 <defs>
  <style type="text/css">*{stroke-linejoin: round; stroke-linecap: butt}</style>
 </defs>
 <g id="figure_1">
  <g id="patch_1">
   <path d="M 0 296.39952 
L 872.39952 296.39952 
L 872.39952 0 
L 0 0 
z
" style="fill: #ffffff"/>
  </g>
  <g id="axes_1">
   <g id="patch_2">
    <path d="M 53.328125 257.158895 
L 431.87976 257.158895 
L 431.87976 7.2 
L 53.328125 7.2 
z
" style="fill: #ffffff"/>
   </g>
   <g id="matplotlib.axis_1">
    <g id="xtick_1">
     <g id="line2d_1">
      <defs>
       <path id="m0c5f161d5a" d="M 0 0 
L 0 3.5 
" style="stroke: #000000; stroke-width: 0.8"/>
      </defs>
      <g>
       <use xlink:href="#m0c5f161d5a" x="69.667812" y="257.158895" style="stroke: #000000; stroke-width: 0.8"/>
      </g>
     </g>
     <g id="text_1">
      <!-- 0 -->
      <g transform="translate(66.486562 271.757332) scale(0.1 -0.1)">
       <defs>
        <path id="DejaVuSans-30" d="M 2034 4250 
Q 1547 4250 1301 3770 
Q 1056 3291 1056 2328 
Q 1056 1369 1301 889 
Q 1547 409 2034 409 
Q 2525 409 2770 889 
Q 3016 1369 3016 2328 
Q 3016 3291 2770 3770 
Q 2525 4250 2034 4250 
z
M 2034 4750 
Q 2819 4750 3233 4129 
Q 3647 3509 3647 2328 
Q 3647 1150 3233 529 
Q 2819 -91 2034 -91 
Q 1250 -91 836 529 
Q 422 1150 422 2328 
Q 422 3509 836 4129 
Q 1250 4750 2034 4750 
z
" transform="scale(0.015625)"/>
       </defs>
       <use xlink:href="#DejaVuSans-30"/>
      </g>
     </g>
    </g>
    <g id="xtick_2">
     <g id="line2d_2">
      <g>
       <use xlink:href="#m0c5f161d5a" x="139.013425" y="257.158895" style="stroke: #000000; stroke-width: 0.8"/>
      </g>
     </g>
     <g id="text_2">
      <!-- 1000 -->
      <g transform="translate(126.288425 271.757332) scale(0.1 -0.1)">
       <defs>
        <path id="DejaVuSans-31" d="M 794 531 
L 1825 531 
L 1825 4091 
L 703 3866 
L 703 4441 
L 1819 4666 
L 2450 4666 
L 2450 531 
L 3481 531 
L 3481 0 
L 794 0 
L 794 531 
z
" transform="scale(0.015625)"/>
       </defs>
       <use xlink:href="#DejaVuSans-31"/>
       <use xlink:href="#DejaVuSans-30" transform="translate(63.623047 0)"/>
       <use xlink:href="#DejaVuSans-30" transform="translate(127.246094 0)"/>
       <use xlink:href="#DejaVuSans-30" transform="translate(190.869141 0)"/>
      </g>
     </g>
    </g>
    <g id="xtick_3">
     <g id="line2d_3">
      <g>
       <use xlink:href="#m0c5f161d5a" x="208.359038" y="257.158895" style="stroke: #000000; stroke-width: 0.8"/>
      </g>
     </g>
     <g id="text_3">
      <!-- 2000 -->
      <g transform="translate(195.634038 271.757332) scale(0.1 -0.1)">
       <defs>
        <path id="DejaVuSans-32" d="M 1228 531 
L 3431 531 
L 3431 0 
L 469 0 
L 469 531 
Q 828 903 1448 1529 
Q 2069 2156 2228 2338 
Q 2531 2678 2651 2914 
Q 2772 3150 2772 3378 
Q 2772 3750 2511 3984 
Q 2250 4219 1831 4219 
Q 1534 4219 1204 4116 
Q 875 4013 500 3803 
L 500 4441 
Q 881 4594 1212 4672 
Q 1544 4750 1819 4750 
Q 2544 4750 2975 4387 
Q 3406 4025 3406 3419 
Q 3406 3131 3298 2873 
Q 3191 2616 2906 2266 
Q 2828 2175 2409 1742 
Q 1991 1309 1228 531 
z
" transform="scale(0.015625)"/>
       </defs>
       <use xlink:href="#DejaVuSans-32"/>
       <use xlink:href="#DejaVuSans-30" transform="translate(63.623047 0)"/>
       <use xlink:href="#DejaVuSans-30" transform="translate(127.246094 0)"/>
       <use xlink:href="#DejaVuSans-30" transform="translate(190.869141 0)"/>
      </g>
     </g>
    </g>
    <g id="xtick_4">
     <g id="line2d_4">
      <g>
       <use xlink:href="#m0c5f161d5a" x="277.704651" y="257.158895" style="stroke: #000000; stroke-width: 0.8"/>
      </g>
     </g>
     <g id="text_4">
      <!-- 3000 -->
      <g transform="translate(264.979651 271.757332) scale(0.1 -0.1)">
       <defs>
        <path id="DejaVuSans-33" d="M 2597 2516 
Q 3050 2419 3304 2112 
Q 3559 1806 3559 1356 
Q 3559 666 3084 287 
Q 2609 -91 1734 -91 
Q 1441 -91 1130 -33 
Q 819 25 488 141 
L 488 750 
Q 750 597 1062 519 
Q 1375 441 1716 441 
Q 2309 441 2620 675 
Q 2931 909 2931 1356 
Q 2931 1769 2642 2001 
Q 2353 2234 1838 2234 
L 1294 2234 
L 1294 2753 
L 1863 2753 
Q 2328 2753 2575 2939 
Q 2822 3125 2822 3475 
Q 2822 3834 2567 4026 
Q 2313 4219 1838 4219 
Q 1578 4219 1281 4162 
Q 984 4106 628 3988 
L 628 4550 
Q 988 4650 1302 4700 
Q 1616 4750 1894 4750 
Q 2613 4750 3031 4423 
Q 3450 4097 3450 3541 
Q 3450 3153 3228 2886 
Q 3006 2619 2597 2516 
z
" transform="scale(0.015625)"/>
       </defs>
       <use xlink:href="#DejaVuSans-33"/>
       <use xlink:href="#DejaVuSans-30" transform="translate(63.623047 0)"/>
       <use xlink:href="#DejaVuSans-30" transform="translate(127.246094 0)"/>
       <use xlink:href="#DejaVuSans-30" transform="translate(190.869141 0)"/>
      </g>
     </g>
    </g>
    <g id="xtick_5">
     <g id="line2d_5">
      <g>
       <use xlink:href="#m0c5f161d5a" x="347.050265" y="257.158895" style="stroke: #000000; stroke-width: 0.8"/>
      </g>
     </g>
     <g id="text_5">
      <!-- 4000 -->
      <g transform="translate(334.325265 271.757332) scale(0.1 -0.1)">
       <defs>
        <path id="DejaVuSans-34" d="M 2419 4116 
L 825 1625 
L 2419 1625 
L 2419 4116 
z
M 2253 4666 
L 3047 4666 
L 3047 1625 
L 3713 1625 
L 3713 1100 
L 3047 1100 
L 3047 0 
L 2419 0 
L 2419 1100 
L 313 1100 
L 313 1709 
L 2253 4666 
z
" transform="scale(0.015625)"/>
       </defs>
       <use xlink:href="#DejaVuSans-34"/>
       <use xlink:href="#DejaVuSans-30" transform="translate(63.623047 0)"/>
       <use xlink:href="#DejaVuSans-30" transform="translate(127.246094 0)"/>
       <use xlink:href="#DejaVuSans-30" transform="translate(190.869141 0)"/>
      </g>
     </g>
    </g>
    <g id="xtick_6">
     <g id="line2d_6">
      <g>
       <use xlink:href="#m0c5f161d5a" x="416.395878" y="257.158895" style="stroke: #000000; stroke-width: 0.8"/>
      </g>
     </g>
     <g id="text_6">
      <!-- 5000 -->
      <g transform="translate(403.670878 271.757332) scale(0.1 -0.1)">
       <defs>
        <path id="DejaVuSans-35" d="M 691 4666 
L 3169 4666 
L 3169 4134 
L 1269 4134 
L 1269 2991 
Q 1406 3038 1543 3061 
Q 1681 3084 1819 3084 
Q 2600 3084 3056 2656 
Q 3513 2228 3513 1497 
Q 3513 744 3044 326 
Q 2575 -91 1722 -91 
Q 1428 -91 1123 -41 
Q 819 9 494 109 
L 494 744 
Q 775 591 1075 516 
Q 1375 441 1709 441 
Q 2250 441 2565 725 
Q 2881 1009 2881 1497 
Q 2881 1984 2565 2268 
Q 2250 2553 1709 2553 
Q 1456 2553 1204 2497 
Q 953 2441 691 2322 
L 691 4666 
z
" transform="scale(0.015625)"/>
       </defs>
       <use xlink:href="#DejaVuSans-35"/>
       <use xlink:href="#DejaVuSans-30" transform="translate(63.623047 0)"/>
       <use xlink:href="#DejaVuSans-30" transform="translate(127.246094 0)"/>
       <use xlink:href="#DejaVuSans-30" transform="translate(190.869141 0)"/>
      </g>
     </g>
    </g>
    <g id="text_7">
     <!-- birth_time [µs] -->
     <g transform="translate(205.78363 285.435457) scale(0.1 -0.1)">
      <defs>
       <path id="DejaVuSans-62" d="M 3116 1747 
Q 3116 2381 2855 2742 
Q 2594 3103 2138 3103 
Q 1681 3103 1420 2742 
Q 1159 2381 1159 1747 
Q 1159 1113 1420 752 
Q 1681 391 2138 391 
Q 2594 391 2855 752 
Q 3116 1113 3116 1747 
z
M 1159 2969 
Q 1341 3281 1617 3432 
Q 1894 3584 2278 3584 
Q 2916 3584 3314 3078 
Q 3713 2572 3713 1747 
Q 3713 922 3314 415 
Q 2916 -91 2278 -91 
Q 1894 -91 1617 61 
Q 1341 213 1159 525 
L 1159 0 
L 581 0 
L 581 4863 
L 1159 4863 
L 1159 2969 
z
" transform="scale(0.015625)"/>
       <path id="DejaVuSans-69" d="M 603 3500 
L 1178 3500 
L 1178 0 
L 603 0 
L 603 3500 
z
M 603 4863 
L 1178 4863 
L 1178 4134 
L 603 4134 
L 603 4863 
z
" transform="scale(0.015625)"/>
       <path id="DejaVuSans-72" d="M 2631 2963 
Q 2534 3019 2420 3045 
Q 2306 3072 2169 3072 
Q 1681 3072 1420 2755 
Q 1159 2438 1159 1844 
L 1159 0 
L 581 0 
L 581 3500 
L 1159 3500 
L 1159 2956 
Q 1341 3275 1631 3429 
Q 1922 3584 2338 3584 
Q 2397 3584 2469 3576 
Q 2541 3569 2628 3553 
L 2631 2963 
z
" transform="scale(0.015625)"/>
       <path id="DejaVuSans-74" d="M 1172 4494 
L 1172 3500 
L 2356 3500 
L 2356 3053 
L 1172 3053 
L 1172 1153 
Q 1172 725 1289 603 
Q 1406 481 1766 481 
L 2356 481 
L 2356 0 
L 1766 0 
Q 1100 0 847 248 
Q 594 497 594 1153 
L 594 3053 
L 172 3053 
L 172 3500 
L 594 3500 
L 594 4494 
L 1172 4494 
z
" transform="scale(0.015625)"/>
       <path id="DejaVuSans-68" d="M 3513 2113 
L 3513 0 
L 2938 0 
L 2938 2094 
Q 2938 2591 2744 2837 
Q 2550 3084 2163 3084 
Q 1697 3084 1428 2787 
Q 1159 2491 1159 1978 
L 1159 0 
L 581 0 
L 581 4863 
L 1159 4863 
L 1159 2956 
Q 1366 3272 1645 3428 
Q 1925 3584 2291 3584 
Q 2894 3584 3203 3211 
Q 3513 2838 3513 2113 
z
" transform="scale(0.015625)"/>
       <path id="DejaVuSans-5f" d="M 3263 -1063 
L 3263 -1509 
L -63 -1509 
L -63 -1063 
L 3263 -1063 
z
" transform="scale(0.015625)"/>
       <path id="DejaVuSans-6d" d="M 3328 2828 
Q 3544 3216 3844 3400 
Q 4144 3584 4550 3584 
Q 5097 3584 5394 3201 
Q 5691 2819 5691 2113 
L 5691 0 
L 5113 0 
L 5113 2094 
Q 5113 2597 4934 2840 
Q 4756 3084 4391 3084 
Q 3944 3084 3684 2787 
Q 3425 2491 3425 1978 
L 3425 0 
L 2847 0 
L 2847 2094 
Q 2847 2600 2669 2842 
Q 2491 3084 2119 3084 
Q 1678 3084 1418 2786 
Q 1159 2488 1159 1978 
L 1159 0 
L 581 0 
L 581 3500 
L 1159 3500 
L 1159 2956 
Q 1356 3278 1631 3431 
Q 1906 3584 2284 3584 
Q 2666 3584 2933 3390 
Q 3200 3197 3328 2828 
z
" transform="scale(0.015625)"/>
       <path id="DejaVuSans-65" d="M 3597 1894 
L 3597 1613 
L 953 1613 
Q 991 1019 1311 708 
Q 1631 397 2203 397 
Q 2534 397 2845 478 
Q 3156 559 3463 722 
L 3463 178 
Q 3153 47 2828 -22 
Q 2503 -91 2169 -91 
Q 1331 -91 842 396 
Q 353 884 353 1716 
Q 353 2575 817 3079 
Q 1281 3584 2069 3584 
Q 2775 3584 3186 3129 
Q 3597 2675 3597 1894 
z
M 3022 2063 
Q 3016 2534 2758 2815 
Q 2500 3097 2075 3097 
Q 1594 3097 1305 2825 
Q 1016 2553 972 2059 
L 3022 2063 
z
" transform="scale(0.015625)"/>
       <path id="DejaVuSans-20" transform="scale(0.015625)"/>
       <path id="DejaVuSans-5b" d="M 550 4863 
L 1875 4863 
L 1875 4416 
L 1125 4416 
L 1125 -397 
L 1875 -397 
L 1875 -844 
L 550 -844 
L 550 4863 
z
" transform="scale(0.015625)"/>
       <path id="DejaVuSans-b5" d="M 544 -1331 
L 544 3500 
L 1119 3500 
L 1119 1325 
Q 1119 872 1334 640 
Q 1550 409 1972 409 
Q 2434 409 2667 671 
Q 2900 934 2900 1459 
L 2900 3500 
L 3475 3500 
L 3475 806 
Q 3475 619 3529 530 
Q 3584 441 3700 441 
Q 3728 441 3778 458 
Q 3828 475 3916 513 
L 3916 50 
Q 3788 -22 3673 -56 
Q 3559 -91 3450 -91 
Q 3234 -91 3106 31 
Q 2978 153 2931 403 
Q 2775 156 2548 32 
Q 2322 -91 2016 -91 
Q 1697 -91 1473 31 
Q 1250 153 1119 397 
L 1119 -1331 
L 544 -1331 
z
" transform="scale(0.015625)"/>
       <path id="DejaVuSans-73" d="M 2834 3397 
L 2834 2853 
Q 2591 2978 2328 3040 
Q 2066 3103 1784 3103 
Q 1356 3103 1142 2972 
Q 928 2841 928 2578 
Q 928 2378 1081 2264 
Q 1234 2150 1697 2047 
L 1894 2003 
Q 2506 1872 2764 1633 
Q 3022 1394 3022 966 
Q 3022 478 2636 193 
Q 2250 -91 1575 -91 
Q 1294 -91 989 -36 
Q 684 19 347 128 
L 347 722 
Q 666 556 975 473 
Q 1284 391 1588 391 
Q 1994 391 2212 530 
Q 2431 669 2431 922 
Q 2431 1156 2273 1281 
Q 2116 1406 1581 1522 
L 1381 1569 
Q 847 1681 609 1914 
Q 372 2147 372 2553 
Q 372 3047 722 3315 
Q 1072 3584 1716 3584 
Q 2034 3584 2315 3537 
Q 2597 3491 2834 3397 
z
" transform="scale(0.015625)"/>
       <path id="DejaVuSans-5d" d="M 1947 4863 
L 1947 -844 
L 622 -844 
L 622 -397 
L 1369 -397 
L 1369 4416 
L 622 4416 
L 622 4863 
L 1947 4863 
z
" transform="scale(0.015625)"/>
      </defs>
      <use xlink:href="#DejaVuSans-62"/>
      <use xlink:href="#DejaVuSans-69" transform="translate(63.476562 0)"/>
      <use xlink:href="#DejaVuSans-72" transform="translate(91.259766 0)"/>
      <use xlink:href="#DejaVuSans-74" transform="translate(132.373047 0)"/>
      <use xlink:href="#DejaVuSans-68" transform="translate(171.582031 0)"/>
      <use xlink:href="#DejaVuSans-5f" transform="translate(234.960938 0)"/>
      <use xlink:href="#DejaVuSans-74" transform="translate(284.960938 0)"/>
      <use xlink:href="#DejaVuSans-69" transform="translate(324.169922 0)"/>
      <use xlink:href="#DejaVuSans-6d" transform="translate(351.953125 0)"/>
      <use xlink:href="#DejaVuSans-65" transform="translate(449.365234 0)"/>
      <use xlink:href="#DejaVuSans-20" transform="translate(510.888672 0)"/>
      <use xlink:href="#DejaVuSans-5b" transform="translate(542.675781 0)"/>
      <use xlink:href="#DejaVuSans-b5" transform="translate(581.689453 0)"/>
      <use xlink:href="#DejaVuSans-73" transform="translate(645.3125 0)"/>
      <use xlink:href="#DejaVuSans-5d" transform="translate(697.412109 0)"/>
     </g>
    </g>
   </g>
   <g id="matplotlib.axis_2">
    <g id="ytick_1">
     <g id="line2d_7">
      <defs>
       <path id="m0cd1ae0eed" d="M 0 0 
L -3.5 0 
" style="stroke: #000000; stroke-width: 0.8"/>
      </defs>
      <g>
       <use xlink:href="#m0cd1ae0eed" x="53.328125" y="245.797127" style="stroke: #000000; stroke-width: 0.8"/>
      </g>
     </g>
     <g id="text_8">
      <!-- 0 -->
      <g transform="translate(39.965625 249.596346) scale(0.1 -0.1)">
       <use xlink:href="#DejaVuSans-30"/>
      </g>
     </g>
    </g>
    <g id="ytick_2">
     <g id="line2d_8">
      <g>
       <use xlink:href="#m0cd1ae0eed" x="53.328125" y="209.468532" style="stroke: #000000; stroke-width: 0.8"/>
      </g>
     </g>
     <g id="text_9">
      <!-- 200 -->
      <g transform="translate(27.240625 213.267751) scale(0.1 -0.1)">
       <use xlink:href="#DejaVuSans-32"/>
       <use xlink:href="#DejaVuSans-30" transform="translate(63.623047 0)"/>
       <use xlink:href="#DejaVuSans-30" transform="translate(127.246094 0)"/>
      </g>
     </g>
    </g>
    <g id="ytick_3">
     <g id="line2d_9">
      <g>
       <use xlink:href="#m0cd1ae0eed" x="53.328125" y="173.139938" style="stroke: #000000; stroke-width: 0.8"/>
      </g>
     </g>
     <g id="text_10">
      <!-- 400 -->
      <g transform="translate(27.240625 176.939157) scale(0.1 -0.1)">
       <use xlink:href="#DejaVuSans-34"/>
       <use xlink:href="#DejaVuSans-30" transform="translate(63.623047 0)"/>
       <use xlink:href="#DejaVuSans-30" transform="translate(127.246094 0)"/>
      </g>
     </g>
    </g>
    <g id="ytick_4">
     <g id="line2d_10">
      <g>
       <use xlink:href="#m0cd1ae0eed" x="53.328125" y="136.811343" style="stroke: #000000; stroke-width: 0.8"/>
      </g>
     </g>
     <g id="text_11">
      <!-- 600 -->
      <g transform="translate(27.240625 140.610562) scale(0.1 -0.1)">
       <defs>
        <path id="DejaVuSans-36" d="M 2113 2584 
Q 1688 2584 1439 2293 
Q 1191 2003 1191 1497 
Q 1191 994 1439 701 
Q 1688 409 2113 409 
Q 2538 409 2786 701 
Q 3034 994 3034 1497 
Q 3034 2003 2786 2293 
Q 2538 2584 2113 2584 
z
M 3366 4563 
L 3366 3988 
Q 3128 4100 2886 4159 
Q 2644 4219 2406 4219 
Q 1781 4219 1451 3797 
Q 1122 3375 1075 2522 
Q 1259 2794 1537 2939 
Q 1816 3084 2150 3084 
Q 2853 3084 3261 2657 
Q 3669 2231 3669 1497 
Q 3669 778 3244 343 
Q 2819 -91 2113 -91 
Q 1303 -91 875 529 
Q 447 1150 447 2328 
Q 447 3434 972 4092 
Q 1497 4750 2381 4750 
Q 2619 4750 2861 4703 
Q 3103 4656 3366 4563 
z
" transform="scale(0.015625)"/>
       </defs>
       <use xlink:href="#DejaVuSans-36"/>
       <use xlink:href="#DejaVuSans-30" transform="translate(63.623047 0)"/>
       <use xlink:href="#DejaVuSans-30" transform="translate(127.246094 0)"/>
      </g>
     </g>
    </g>
    <g id="ytick_5">
     <g id="line2d_11">
      <g>
       <use xlink:href="#m0cd1ae0eed" x="53.328125" y="100.482749" style="stroke: #000000; stroke-width: 0.8"/>
      </g>
     </g>
     <g id="text_12">
      <!-- 800 -->
      <g transform="translate(27.240625 104.281967) scale(0.1 -0.1)">
       <defs>
        <path id="DejaVuSans-38" d="M 2034 2216 
Q 1584 2216 1326 1975 
Q 1069 1734 1069 1313 
Q 1069 891 1326 650 
Q 1584 409 2034 409 
Q 2484 409 2743 651 
Q 3003 894 3003 1313 
Q 3003 1734 2745 1975 
Q 2488 2216 2034 2216 
z
M 1403 2484 
Q 997 2584 770 2862 
Q 544 3141 544 3541 
Q 544 4100 942 4425 
Q 1341 4750 2034 4750 
Q 2731 4750 3128 4425 
Q 3525 4100 3525 3541 
Q 3525 3141 3298 2862 
Q 3072 2584 2669 2484 
Q 3125 2378 3379 2068 
Q 3634 1759 3634 1313 
Q 3634 634 3220 271 
Q 2806 -91 2034 -91 
Q 1263 -91 848 271 
Q 434 634 434 1313 
Q 434 1759 690 2068 
Q 947 2378 1403 2484 
z
M 1172 3481 
Q 1172 3119 1398 2916 
Q 1625 2713 2034 2713 
Q 2441 2713 2670 2916 
Q 2900 3119 2900 3481 
Q 2900 3844 2670 4047 
Q 2441 4250 2034 4250 
Q 1625 4250 1398 4047 
Q 1172 3844 1172 3481 
z
" transform="scale(0.015625)"/>
       </defs>
       <use xlink:href="#DejaVuSans-38"/>
       <use xlink:href="#DejaVuSans-30" transform="translate(63.623047 0)"/>
       <use xlink:href="#DejaVuSans-30" transform="translate(127.246094 0)"/>
      </g>
     </g>
    </g>
    <g id="ytick_6">
     <g id="line2d_12">
      <g>
       <use xlink:href="#m0cd1ae0eed" x="53.328125" y="64.154154" style="stroke: #000000; stroke-width: 0.8"/>
      </g>
     </g>
     <g id="text_13">
      <!-- 1000 -->
      <g transform="translate(20.878125 67.953373) scale(0.1 -0.1)">
       <use xlink:href="#DejaVuSans-31"/>
       <use xlink:href="#DejaVuSans-30" transform="translate(63.623047 0)"/>
       <use xlink:href="#DejaVuSans-30" transform="translate(127.246094 0)"/>
       <use xlink:href="#DejaVuSans-30" transform="translate(190.869141 0)"/>
      </g>
     </g>
    </g>
    <g id="ytick_7">
     <g id="line2d_13">
      <g>
       <use xlink:href="#m0cd1ae0eed" x="53.328125" y="27.82556" style="stroke: #000000; stroke-width: 0.8"/>
      </g>
     </g>
     <g id="text_14">
      <!-- 1200 -->
      <g transform="translate(20.878125 31.624778) scale(0.1 -0.1)">
       <use xlink:href="#DejaVuSans-31"/>
       <use xlink:href="#DejaVuSans-32" transform="translate(63.623047 0)"/>
       <use xlink:href="#DejaVuSans-30" transform="translate(127.246094 0)"/>
       <use xlink:href="#DejaVuSans-30" transform="translate(190.869141 0)"/>
      </g>
     </g>
    </g>
    <g id="text_15">
     <!-- [counts] -->
     <g transform="translate(14.798438 152.791947) rotate(-90) scale(0.1 -0.1)">
      <defs>
       <path id="DejaVuSans-63" d="M 3122 3366 
L 3122 2828 
Q 2878 2963 2633 3030 
Q 2388 3097 2138 3097 
Q 1578 3097 1268 2742 
Q 959 2388 959 1747 
Q 959 1106 1268 751 
Q 1578 397 2138 397 
Q 2388 397 2633 464 
Q 2878 531 3122 666 
L 3122 134 
Q 2881 22 2623 -34 
Q 2366 -91 2075 -91 
Q 1284 -91 818 406 
Q 353 903 353 1747 
Q 353 2603 823 3093 
Q 1294 3584 2113 3584 
Q 2378 3584 2631 3529 
Q 2884 3475 3122 3366 
z
" transform="scale(0.015625)"/>
       <path id="DejaVuSans-6f" d="M 1959 3097 
Q 1497 3097 1228 2736 
Q 959 2375 959 1747 
Q 959 1119 1226 758 
Q 1494 397 1959 397 
Q 2419 397 2687 759 
Q 2956 1122 2956 1747 
Q 2956 2369 2687 2733 
Q 2419 3097 1959 3097 
z
M 1959 3584 
Q 2709 3584 3137 3096 
Q 3566 2609 3566 1747 
Q 3566 888 3137 398 
Q 2709 -91 1959 -91 
Q 1206 -91 779 398 
Q 353 888 353 1747 
Q 353 2609 779 3096 
Q 1206 3584 1959 3584 
z
" transform="scale(0.015625)"/>
       <path id="DejaVuSans-75" d="M 544 1381 
L 544 3500 
L 1119 3500 
L 1119 1403 
Q 1119 906 1312 657 
Q 1506 409 1894 409 
Q 2359 409 2629 706 
Q 2900 1003 2900 1516 
L 2900 3500 
L 3475 3500 
L 3475 0 
L 2900 0 
L 2900 538 
Q 2691 219 2414 64 
Q 2138 -91 1772 -91 
Q 1169 -91 856 284 
Q 544 659 544 1381 
z
M 1991 3584 
L 1991 3584 
z
" transform="scale(0.015625)"/>
       <path id="DejaVuSans-6e" d="M 3513 2113 
L 3513 0 
L 2938 0 
L 2938 2094 
Q 2938 2591 2744 2837 
Q 2550 3084 2163 3084 
Q 1697 3084 1428 2787 
Q 1159 2491 1159 1978 
L 1159 0 
L 581 0 
L 581 3500 
L 1159 3500 
L 1159 2956 
Q 1366 3272 1645 3428 
Q 1925 3584 2291 3584 
Q 2894 3584 3203 3211 
Q 3513 2838 3513 2113 
z
" transform="scale(0.015625)"/>
      </defs>
      <use xlink:href="#DejaVuSans-5b"/>
      <use xlink:href="#DejaVuSans-63" transform="translate(39.013672 0)"/>
      <use xlink:href="#DejaVuSans-6f" transform="translate(93.994141 0)"/>
      <use xlink:href="#DejaVuSans-75" transform="translate(155.175781 0)"/>
      <use xlink:href="#DejaVuSans-6e" transform="translate(218.554688 0)"/>
      <use xlink:href="#DejaVuSans-74" transform="translate(281.933594 0)"/>
      <use xlink:href="#DejaVuSans-73" transform="translate(321.142578 0)"/>
      <use xlink:href="#DejaVuSans-5d" transform="translate(373.242188 0)"/>
     </g>
    </g>
   </g>
   <g id="patch_3">
    <path d="M 53.328125 257.158895 
L 53.328125 7.2 
" style="fill: none; stroke: #000000; stroke-width: 0.8; stroke-linejoin: miter; stroke-linecap: square"/>
   </g>
   <g id="patch_4">
    <path d="M 431.87976 257.158895 
L 431.87976 7.2 
" style="fill: none; stroke: #000000; stroke-width: 0.8; stroke-linejoin: miter; stroke-linecap: square"/>
   </g>
   <g id="patch_5">
    <path d="M 53.328125 257.158895 
L 431.87976 257.158895 
" style="fill: none; stroke: #000000; stroke-width: 0.8; stroke-linejoin: miter; stroke-linecap: square"/>
   </g>
   <g id="patch_6">
    <path d="M 53.328125 7.2 
L 431.87976 7.2 
" style="fill: none; stroke: #000000; stroke-width: 0.8; stroke-linejoin: miter; stroke-linecap: square"/>
   </g>
   <g id="line2d_14">
    <path d="M 70.535017 234.716906 
L 71.682144 234.716906 
L 71.682144 229.812545 
L 72.82927 229.812545 
L 72.82927 226.906258 
L 73.976396 226.906258 
L 73.976396 215.644394 
L 75.123522 215.644394 
L 75.123522 203.474314 
L 76.270648 203.474314 
L 76.270648 195.482024 
L 77.417774 195.482024 
L 77.417774 180.224014 
L 78.564901 180.224014 
L 78.564901 178.407584 
L 79.712027 178.407584 
L 79.712027 165.874219 
L 80.859153 165.874219 
L 80.859153 164.239432 
L 82.006279 164.239432 
L 82.006279 159.516715 
L 83.153405 159.516715 
L 83.153405 152.795925 
L 84.300531 152.795925 
L 84.300531 147.346636 
L 85.447658 147.346636 
L 85.447658 140.625846 
L 86.594784 140.625846 
L 86.594784 139.172702 
L 87.74191 139.172702 
L 87.74191 129.545624 
L 88.889036 129.545624 
L 88.889036 119.555261 
L 90.036162 119.555261 
L 90.036162 124.641264 
L 91.183288 124.641264 
L 91.183288 115.377473 
L 92.330415 115.377473 
L 92.330415 104.115608 
L 93.477541 104.115608 
L 93.477541 111.926256 
L 94.624667 111.926256 
L 94.624667 100.664392 
L 95.771793 100.664392 
L 95.771793 98.484676 
L 96.918919 98.484676 
L 96.918919 99.574534 
L 98.066045 99.574534 
L 98.066045 89.220884 
L 99.213172 89.220884 
L 99.213172 90.492385 
L 100.360298 90.492385 
L 100.360298 89.58417 
L 101.507424 89.58417 
L 101.507424 70.874944 
L 102.65455 70.874944 
L 102.65455 81.773523 
L 103.801676 81.773523 
L 103.801676 75.960947 
L 104.948802 75.960947 
L 104.948802 70.874944 
L 106.095929 70.874944 
L 106.095929 72.873017 
L 107.243055 72.873017 
L 107.243055 67.423728 
L 108.390181 67.423728 
L 108.390181 66.152227 
L 109.537307 66.152227 
L 109.537307 61.792796 
L 110.684433 61.792796 
L 110.684433 62.156081 
L 111.831559 62.156081 
L 111.831559 57.433364 
L 112.978686 57.433364 
L 112.978686 58.341579 
L 114.125812 58.341579 
L 114.125812 66.697156 
L 115.272938 66.697156 
L 115.272938 56.888435 
L 116.420064 56.888435 
L 116.420064 55.98022 
L 117.56719 55.98022 
L 117.56719 60.339652 
L 118.714316 60.339652 
L 118.714316 48.896144 
L 119.861443 48.896144 
L 119.861443 49.986002 
L 121.008569 49.986002 
L 121.008569 54.70872 
L 122.155695 54.70872 
L 122.155695 41.26714 
L 123.302821 41.26714 
L 123.302821 53.800505 
L 124.449947 53.800505 
L 124.449947 58.341579 
L 125.597073 58.341579 
L 125.597073 56.525149 
L 126.7442 56.525149 
L 126.7442 48.896144 
L 127.891326 48.896144 
L 127.891326 54.70872 
L 129.038452 54.70872 
L 129.038452 36.362779 
L 130.185578 36.362779 
L 130.185578 47.443001 
L 131.332704 47.443001 
L 131.332704 49.986002 
L 132.47983 49.986002 
L 132.47983 45.626571 
L 133.626957 45.626571 
L 133.626957 47.443001 
L 134.774083 47.443001 
L 134.774083 39.632353 
L 135.921209 39.632353 
L 135.921209 49.441073 
L 137.068335 49.441073 
L 137.068335 51.802432 
L 138.215461 51.802432 
L 138.215461 47.624644 
L 139.362587 47.624644 
L 139.362587 45.263285 
L 140.509714 45.263285 
L 140.509714 45.626571 
L 141.65684 45.626571 
L 141.65684 47.261358 
L 142.803966 47.261358 
L 142.803966 28.188846 
L 143.951092 28.188846 
L 143.951092 44.718356 
L 145.098218 44.718356 
L 145.098218 38.905781 
L 146.245344 38.905781 
L 146.245344 45.989857 
L 147.392471 45.989857 
L 147.392471 41.630426 
L 148.539597 41.630426 
L 148.539597 29.278703 
L 149.686723 29.278703 
L 149.686723 38.360852 
L 150.833849 38.360852 
L 150.833849 40.177282 
L 151.980975 40.177282 
L 151.980975 30.731847 
L 153.128101 30.731847 
L 153.128101 41.085497 
L 154.275228 41.085497 
L 154.275228 34.364707 
L 155.422354 34.364707 
L 155.422354 41.26714 
L 156.56948 41.26714 
L 156.56948 50.167645 
L 157.716606 50.167645 
L 157.716606 24.1927 
L 158.863732 24.1927 
L 158.863732 38.724138 
L 160.010858 38.724138 
L 160.010858 26.372416 
L 161.157985 26.372416 
L 161.157985 35.091278 
L 162.305111 35.091278 
L 162.305111 34.54635 
L 163.452237 34.54635 
L 163.452237 33.274849 
L 164.599363 33.274849 
L 164.599363 36.181136 
L 165.746489 36.181136 
L 165.746489 27.098988 
L 166.893615 27.098988 
L 166.893615 51.802432 
L 168.040742 51.802432 
L 168.040742 31.458419 
L 169.187868 31.458419 
L 169.187868 40.722211 
L 170.334994 40.722211 
L 170.334994 44.899999 
L 171.48212 44.899999 
L 171.48212 40.177282 
L 172.629246 40.177282 
L 172.629246 43.083569 
L 173.776372 43.083569 
L 173.776372 30.550204 
L 174.923499 30.550204 
L 174.923499 35.091278 
L 176.070625 35.091278 
L 176.070625 38.360852 
L 177.217751 38.360852 
L 177.217751 35.999493 
L 178.364877 35.999493 
L 178.364877 30.186918 
L 179.512003 30.186918 
L 179.512003 47.624644 
L 180.659129 47.624644 
L 180.659129 32.184991 
L 181.806256 32.184991 
L 181.806256 39.45071 
L 182.953382 39.45071 
L 182.953382 26.00913 
L 184.100508 26.00913 
L 184.100508 35.091278 
L 185.247634 35.091278 
L 185.247634 37.452637 
L 186.39476 37.452637 
L 186.39476 43.810141 
L 187.541886 43.810141 
L 187.541886 38.360852 
L 188.689013 38.360852 
L 188.689013 32.72992 
L 189.836139 32.72992 
L 189.836139 38.724138 
L 190.983265 38.724138 
L 190.983265 38.542495 
L 192.130391 38.542495 
L 192.130391 37.63428 
L 193.277517 37.63428 
L 193.277517 33.274849 
L 194.424643 33.274849 
L 194.424643 51.257503 
L 195.57177 51.257503 
L 195.57177 36.907708 
L 196.718896 36.907708 
L 196.718896 31.821705 
L 197.866022 31.821705 
L 197.866022 37.270994 
L 199.013148 37.270994 
L 199.013148 27.098988 
L 200.160274 27.098988 
L 200.160274 28.552131 
L 201.3074 28.552131 
L 201.3074 49.25943 
L 202.454527 49.25943 
L 202.454527 34.001421 
L 203.601653 34.001421 
L 203.601653 28.188846 
L 204.748779 28.188846 
L 204.748779 38.905781 
L 205.895905 38.905781 
L 205.895905 26.554059 
L 207.043031 26.554059 
L 207.043031 40.903854 
L 208.190157 40.903854 
L 208.190157 37.815923 
L 209.337284 37.815923 
L 209.337284 21.831341 
L 210.48441 21.831341 
L 210.48441 44.173427 
L 211.631536 44.173427 
L 211.631536 40.540568 
L 212.778662 40.540568 
L 212.778662 41.26714 
L 213.925788 41.26714 
L 213.925788 23.102842 
L 215.072914 23.102842 
L 215.072914 24.1927 
L 216.220041 24.1927 
L 216.220041 41.630426 
L 217.367167 41.630426 
L 217.367167 39.087424 
L 218.514293 39.087424 
L 218.514293 37.815923 
L 219.661419 37.815923 
L 219.661419 32.911563 
L 220.808545 32.911563 
L 220.808545 34.727993 
L 221.955671 34.727993 
L 221.955671 54.890363 
L 223.102798 54.890363 
L 223.102798 43.628498 
L 224.249924 43.628498 
L 224.249924 18.561768 
L 225.39705 18.561768 
L 225.39705 42.901926 
L 226.544176 42.901926 
L 226.544176 35.454564 
L 227.691302 35.454564 
L 227.691302 49.25943 
L 228.838428 49.25943 
L 228.838428 36.181136 
L 229.985555 36.181136 
L 229.985555 34.727993 
L 231.132681 34.727993 
L 231.132681 44.35507 
L 232.279807 44.35507 
L 232.279807 34.001421 
L 233.426933 34.001421 
L 233.426933 37.815923 
L 235.721185 37.815923 
L 235.721185 27.280631 
L 236.868312 27.280631 
L 236.868312 35.81785 
L 238.015438 35.81785 
L 238.015438 38.542495 
L 239.162564 38.542495 
L 239.162564 36.907708 
L 240.30969 36.907708 
L 240.30969 35.636207 
L 241.456816 35.636207 
L 241.456816 43.628498 
L 242.603942 43.628498 
L 242.603942 32.548277 
L 243.751069 32.548277 
L 243.751069 33.638135 
L 244.898195 33.638135 
L 244.898195 34.183064 
L 246.045321 34.183064 
L 246.045321 36.726065 
L 247.192447 36.726065 
L 247.192447 41.630426 
L 248.339573 41.630426 
L 248.339573 22.012984 
L 249.486699 22.012984 
L 249.486699 37.270994 
L 250.633826 37.270994 
L 250.633826 36.544422 
L 251.780952 36.544422 
L 251.780952 42.175354 
L 252.928078 42.175354 
L 252.928078 29.823632 
L 254.075204 29.823632 
L 254.075204 35.454564 
L 255.22233 35.454564 
L 255.22233 26.554059 
L 256.369456 26.554059 
L 256.369456 42.356997 
L 257.516583 42.356997 
L 257.516583 37.452637 
L 258.663709 37.452637 
L 258.663709 43.628498 
L 259.810835 43.628498 
L 259.810835 46.716429 
L 260.957961 46.716429 
L 260.957961 31.095133 
L 262.105087 31.095133 
L 262.105087 33.638135 
L 263.252213 33.638135 
L 263.252213 33.274849 
L 264.39934 33.274849 
L 264.39934 38.360852 
L 265.546466 38.360852 
L 265.546466 33.819778 
L 266.693592 33.819778 
L 266.693592 30.005275 
L 267.840718 30.005275 
L 267.840718 41.26714 
L 268.987844 41.26714 
L 268.987844 53.618862 
L 270.13497 53.618862 
L 270.13497 58.341579 
L 271.282097 58.341579 
L 271.282097 61.42951 
L 272.429223 61.42951 
L 272.429223 64.880726 
L 273.576349 64.880726 
L 273.576349 74.507804 
L 274.723475 74.507804 
L 274.723475 90.310742 
L 275.870601 90.310742 
L 275.870601 93.580316 
L 277.017727 93.580316 
L 277.017727 107.566825 
L 278.164854 107.566825 
L 278.164854 108.293397 
L 279.31198 108.293397 
L 279.31198 125.367836 
L 280.459106 125.367836 
L 280.459106 130.090553 
L 281.606232 130.090553 
L 281.606232 136.6297 
L 282.753358 136.6297 
L 282.753358 142.442275 
L 283.900484 142.442275 
L 283.900484 144.803634 
L 285.047611 144.803634 
L 285.047611 158.245214 
L 286.194737 158.245214 
L 286.194737 151.524424 
L 287.341863 151.524424 
L 287.341863 158.426857 
L 288.488989 158.426857 
L 288.488989 170.778579 
L 289.636115 170.778579 
L 289.636115 165.147647 
L 290.783241 165.147647 
L 290.783241 167.327363 
L 291.930368 167.327363 
L 291.930368 174.048153 
L 293.077494 174.048153 
L 293.077494 178.589227 
L 294.22462 178.589227 
L 294.22462 188.942877 
L 295.371746 188.942877 
L 295.371746 185.310017 
L 296.518872 185.310017 
L 296.518872 190.577663 
L 297.665998 190.577663 
L 297.665998 194.937095 
L 298.813125 194.937095 
L 298.813125 201.476242 
L 299.960251 201.476242 
L 299.960251 196.571881 
L 301.107377 196.571881 
L 301.107377 202.202814 
L 302.254503 202.202814 
L 302.254503 205.835673 
L 303.401629 205.835673 
L 303.401629 204.927458 
L 304.548755 204.927458 
L 304.548755 209.105247 
L 305.695882 209.105247 
L 305.695882 209.650175 
L 306.843008 209.650175 
L 306.843008 211.284962 
L 307.990134 211.284962 
L 307.990134 213.101392 
L 309.13726 213.101392 
L 309.13726 214.736179 
L 310.284386 214.736179 
L 310.284386 217.824109 
L 311.431512 217.824109 
L 311.431512 215.826037 
L 312.578639 215.826037 
L 312.578639 221.638612 
L 313.725765 221.638612 
L 313.725765 225.089828 
L 314.872891 225.089828 
L 314.872891 221.456969 
L 316.020017 221.456969 
L 316.020017 224.908185 
L 317.167143 224.908185 
L 317.167143 225.453114 
L 318.314269 225.453114 
L 318.314269 230.539117 
L 319.461396 230.539117 
L 319.461396 227.814473 
L 320.608522 227.814473 
L 320.608522 229.812545 
L 321.755648 229.812545 
L 321.755648 228.541045 
L 322.902774 228.541045 
L 322.902774 226.179686 
L 324.0499 226.179686 
L 324.0499 230.902403 
L 325.197026 230.902403 
L 325.197026 231.447332 
L 326.344153 231.447332 
L 326.344153 232.355547 
L 327.491279 232.355547 
L 327.491279 233.808691 
L 328.638405 233.808691 
L 328.638405 235.261835 
L 329.785531 235.261835 
L 329.785531 236.896621 
L 330.932657 236.896621 
L 330.932657 236.351692 
L 332.079783 236.351692 
L 332.079783 233.082119 
L 333.22691 233.082119 
L 333.22691 236.896621 
L 334.374036 236.896621 
L 334.374036 236.533335 
L 335.521162 236.533335 
L 335.521162 238.168122 
L 336.668288 238.168122 
L 336.668288 235.625121 
L 337.815414 235.625121 
L 337.815414 239.076337 
L 338.96254 239.076337 
L 338.96254 237.44155 
L 340.109667 237.44155 
L 340.109667 239.076337 
L 341.256793 239.076337 
L 341.256793 239.984552 
L 342.403919 239.984552 
L 342.403919 237.623193 
L 343.551045 237.623193 
L 343.551045 240.347838 
L 344.698171 240.347838 
L 344.698171 240.892767 
L 345.845297 240.892767 
L 345.845297 241.800982 
L 346.992424 241.800982 
L 346.992424 241.07441 
L 348.13955 241.07441 
L 348.13955 240.166195 
L 349.286676 240.166195 
L 349.286676 242.709197 
L 350.433802 242.709197 
L 350.433802 241.437696 
L 351.580928 241.437696 
L 351.580928 242.527554 
L 352.728054 242.527554 
L 352.728054 241.800982 
L 353.875181 241.800982 
L 353.875181 243.072482 
L 355.022307 243.072482 
L 355.022307 242.345911 
L 356.169433 242.345911 
L 356.169433 242.527554 
L 357.316559 242.527554 
L 357.316559 242.890839 
L 358.463685 242.890839 
L 358.463685 242.709197 
L 359.610811 242.709197 
L 359.610811 242.527554 
L 360.757938 242.527554 
L 360.757938 241.619339 
L 361.905064 241.619339 
L 361.905064 243.254125 
L 363.05219 243.254125 
L 363.05219 242.527554 
L 364.199316 242.527554 
L 364.199316 242.345911 
L 365.346442 242.345911 
L 365.346442 243.254125 
L 366.493568 243.254125 
L 366.493568 244.343983 
L 367.640695 244.343983 
L 367.640695 244.16234 
L 368.787821 244.16234 
L 368.787821 243.980697 
L 369.934947 243.980697 
L 369.934947 243.617411 
L 372.229199 243.617411 
L 372.229199 244.525626 
L 373.376325 244.525626 
L 373.376325 243.435768 
L 374.523452 243.435768 
L 374.523452 244.343983 
L 375.670578 244.343983 
L 375.670578 244.16234 
L 376.817704 244.16234 
L 376.817704 244.707269 
L 377.96483 244.707269 
L 377.96483 244.343983 
L 379.111956 244.343983 
L 379.111956 244.888912 
L 380.259082 244.888912 
L 380.259082 244.707269 
L 382.553335 244.707269 
L 382.553335 244.525626 
L 383.700461 244.525626 
L 383.700461 245.433841 
L 384.847587 245.433841 
L 384.847587 244.888912 
L 385.994713 244.888912 
L 385.994713 244.525626 
L 389.436092 244.525626 
L 389.436092 244.707269 
L 390.583218 244.707269 
L 390.583218 244.16234 
L 391.730344 244.16234 
L 391.730344 244.888912 
L 392.87747 244.888912 
L 392.87747 245.252198 
L 394.024596 245.252198 
L 394.024596 244.888912 
L 395.171723 244.888912 
L 395.171723 245.252198 
L 396.318849 245.252198 
L 396.318849 245.433841 
L 397.465975 245.433841 
L 397.465975 244.888912 
L 398.613101 244.888912 
L 398.613101 245.615484 
L 399.760227 245.615484 
L 399.760227 245.433841 
L 400.907353 245.433841 
L 400.907353 245.615484 
L 402.05448 245.615484 
L 402.05448 245.252198 
L 403.201606 245.252198 
L 403.201606 245.433841 
L 404.348732 245.433841 
L 404.348732 245.797127 
L 405.495858 245.797127 
L 405.495858 245.615484 
L 406.642984 245.615484 
L 406.642984 245.433841 
L 407.79011 245.433841 
L 407.79011 245.615484 
L 408.937237 245.615484 
L 408.937237 244.888912 
L 410.084363 244.888912 
L 410.084363 245.797127 
L 411.231489 245.797127 
L 411.231489 245.433841 
L 413.525741 245.433841 
L 413.525741 245.070555 
L 414.672867 245.070555 
L 414.672867 245.070555 
" clip-path="url(#p14cfbf40bf)" style="fill: none; stroke: #1f77b4; stroke-width: 1.5; stroke-linecap: square"/>
   </g>
  </g>
  <g id="axes_2">
   <g id="patch_7">
    <path d="M 486.647885 257.158895 
L 865.19952 257.158895 
L 865.19952 7.2 
L 486.647885 7.2 
z
" style="fill: #ffffff"/>
   </g>
   <g id="matplotlib.axis_3">
    <g id="xtick_7">
     <g id="line2d_15">
      <g>
       <use xlink:href="#m0c5f161d5a" x="500.381058" y="257.158895" style="stroke: #000000; stroke-width: 0.8"/>
      </g>
     </g>
     <g id="text_16">
      <!-- 0.0 -->
      <g transform="translate(492.429496 271.757332) scale(0.1 -0.1)">
       <defs>
        <path id="DejaVuSans-2e" d="M 684 794 
L 1344 794 
L 1344 0 
L 684 0 
L 684 794 
z
" transform="scale(0.015625)"/>
       </defs>
       <use xlink:href="#DejaVuSans-30"/>
       <use xlink:href="#DejaVuSans-2e" transform="translate(63.623047 0)"/>
       <use xlink:href="#DejaVuSans-30" transform="translate(95.410156 0)"/>
      </g>
     </g>
    </g>
    <g id="xtick_8">
     <g id="line2d_16">
      <g>
       <use xlink:href="#m0c5f161d5a" x="544.123744" y="257.158895" style="stroke: #000000; stroke-width: 0.8"/>
      </g>
     </g>
     <g id="text_17">
      <!-- 2.5 -->
      <g transform="translate(536.172181 271.757332) scale(0.1 -0.1)">
       <use xlink:href="#DejaVuSans-32"/>
       <use xlink:href="#DejaVuSans-2e" transform="translate(63.623047 0)"/>
       <use xlink:href="#DejaVuSans-35" transform="translate(95.410156 0)"/>
      </g>
     </g>
    </g>
    <g id="xtick_9">
     <g id="line2d_17">
      <g>
       <use xlink:href="#m0c5f161d5a" x="587.866429" y="257.158895" style="stroke: #000000; stroke-width: 0.8"/>
      </g>
     </g>
     <g id="text_18">
      <!-- 5.0 -->
      <g transform="translate(579.914867 271.757332) scale(0.1 -0.1)">
       <use xlink:href="#DejaVuSans-35"/>
       <use xlink:href="#DejaVuSans-2e" transform="translate(63.623047 0)"/>
       <use xlink:href="#DejaVuSans-30" transform="translate(95.410156 0)"/>
      </g>
     </g>
    </g>
    <g id="xtick_10">
     <g id="line2d_18">
      <g>
       <use xlink:href="#m0c5f161d5a" x="631.609115" y="257.158895" style="stroke: #000000; stroke-width: 0.8"/>
      </g>
     </g>
     <g id="text_19">
      <!-- 7.5 -->
      <g transform="translate(623.657552 271.757332) scale(0.1 -0.1)">
       <defs>
        <path id="DejaVuSans-37" d="M 525 4666 
L 3525 4666 
L 3525 4397 
L 1831 0 
L 1172 0 
L 2766 4134 
L 525 4134 
L 525 4666 
z
" transform="scale(0.015625)"/>
       </defs>
       <use xlink:href="#DejaVuSans-37"/>
       <use xlink:href="#DejaVuSans-2e" transform="translate(63.623047 0)"/>
       <use xlink:href="#DejaVuSans-35" transform="translate(95.410156 0)"/>
      </g>
     </g>
    </g>
    <g id="xtick_11">
     <g id="line2d_19">
      <g>
       <use xlink:href="#m0c5f161d5a" x="675.3518" y="257.158895" style="stroke: #000000; stroke-width: 0.8"/>
      </g>
     </g>
     <g id="text_20">
      <!-- 10.0 -->
      <g transform="translate(664.218988 271.757332) scale(0.1 -0.1)">
       <use xlink:href="#DejaVuSans-31"/>
       <use xlink:href="#DejaVuSans-30" transform="translate(63.623047 0)"/>
       <use xlink:href="#DejaVuSans-2e" transform="translate(127.246094 0)"/>
       <use xlink:href="#DejaVuSans-30" transform="translate(159.033203 0)"/>
      </g>
     </g>
    </g>
    <g id="xtick_12">
     <g id="line2d_20">
      <g>
       <use xlink:href="#m0c5f161d5a" x="719.094486" y="257.158895" style="stroke: #000000; stroke-width: 0.8"/>
      </g>
     </g>
     <g id="text_21">
      <!-- 12.5 -->
      <g transform="translate(707.961673 271.757332) scale(0.1 -0.1)">
       <use xlink:href="#DejaVuSans-31"/>
       <use xlink:href="#DejaVuSans-32" transform="translate(63.623047 0)"/>
       <use xlink:href="#DejaVuSans-2e" transform="translate(127.246094 0)"/>
       <use xlink:href="#DejaVuSans-35" transform="translate(159.033203 0)"/>
      </g>
     </g>
    </g>
    <g id="xtick_13">
     <g id="line2d_21">
      <g>
       <use xlink:href="#m0c5f161d5a" x="762.837171" y="257.158895" style="stroke: #000000; stroke-width: 0.8"/>
      </g>
     </g>
     <g id="text_22">
      <!-- 15.0 -->
      <g transform="translate(751.704359 271.757332) scale(0.1 -0.1)">
       <use xlink:href="#DejaVuSans-31"/>
       <use xlink:href="#DejaVuSans-35" transform="translate(63.623047 0)"/>
       <use xlink:href="#DejaVuSans-2e" transform="translate(127.246094 0)"/>
       <use xlink:href="#DejaVuSans-30" transform="translate(159.033203 0)"/>
      </g>
     </g>
    </g>
    <g id="xtick_14">
     <g id="line2d_22">
      <g>
       <use xlink:href="#m0c5f161d5a" x="806.579857" y="257.158895" style="stroke: #000000; stroke-width: 0.8"/>
      </g>
     </g>
     <g id="text_23">
      <!-- 17.5 -->
      <g transform="translate(795.447044 271.757332) scale(0.1 -0.1)">
       <use xlink:href="#DejaVuSans-31"/>
       <use xlink:href="#DejaVuSans-37" transform="translate(63.623047 0)"/>
       <use xlink:href="#DejaVuSans-2e" transform="translate(127.246094 0)"/>
       <use xlink:href="#DejaVuSans-35" transform="translate(159.033203 0)"/>
      </g>
     </g>
    </g>
    <g id="xtick_15">
     <g id="line2d_23">
      <g>
       <use xlink:href="#m0c5f161d5a" x="850.322542" y="257.158895" style="stroke: #000000; stroke-width: 0.8"/>
      </g>
     </g>
     <g id="text_24">
      <!-- 20.0 -->
      <g transform="translate(839.18973 271.757332) scale(0.1 -0.1)">
       <use xlink:href="#DejaVuSans-32"/>
       <use xlink:href="#DejaVuSans-30" transform="translate(63.623047 0)"/>
       <use xlink:href="#DejaVuSans-2e" transform="translate(127.246094 0)"/>
       <use xlink:href="#DejaVuSans-30" transform="translate(159.033203 0)"/>
      </g>
     </g>
    </g>
    <g id="text_25">
     <!-- wavelength [Å] -->
     <g transform="translate(637.886202 287.119832) scale(0.1 -0.1)">
      <defs>
       <path id="DejaVuSans-77" d="M 269 3500 
L 844 3500 
L 1563 769 
L 2278 3500 
L 2956 3500 
L 3675 769 
L 4391 3500 
L 4966 3500 
L 4050 0 
L 3372 0 
L 2619 2869 
L 1863 0 
L 1184 0 
L 269 3500 
z
" transform="scale(0.015625)"/>
       <path id="DejaVuSans-61" d="M 2194 1759 
Q 1497 1759 1228 1600 
Q 959 1441 959 1056 
Q 959 750 1161 570 
Q 1363 391 1709 391 
Q 2188 391 2477 730 
Q 2766 1069 2766 1631 
L 2766 1759 
L 2194 1759 
z
M 3341 1997 
L 3341 0 
L 2766 0 
L 2766 531 
Q 2569 213 2275 61 
Q 1981 -91 1556 -91 
Q 1019 -91 701 211 
Q 384 513 384 1019 
Q 384 1609 779 1909 
Q 1175 2209 1959 2209 
L 2766 2209 
L 2766 2266 
Q 2766 2663 2505 2880 
Q 2244 3097 1772 3097 
Q 1472 3097 1187 3025 
Q 903 2953 641 2809 
L 641 3341 
Q 956 3463 1253 3523 
Q 1550 3584 1831 3584 
Q 2591 3584 2966 3190 
Q 3341 2797 3341 1997 
z
" transform="scale(0.015625)"/>
       <path id="DejaVuSans-76" d="M 191 3500 
L 800 3500 
L 1894 563 
L 2988 3500 
L 3597 3500 
L 2284 0 
L 1503 0 
L 191 3500 
z
" transform="scale(0.015625)"/>
       <path id="DejaVuSans-6c" d="M 603 4863 
L 1178 4863 
L 1178 0 
L 603 0 
L 603 4863 
z
" transform="scale(0.015625)"/>
       <path id="DejaVuSans-67" d="M 2906 1791 
Q 2906 2416 2648 2759 
Q 2391 3103 1925 3103 
Q 1463 3103 1205 2759 
Q 947 2416 947 1791 
Q 947 1169 1205 825 
Q 1463 481 1925 481 
Q 2391 481 2648 825 
Q 2906 1169 2906 1791 
z
M 3481 434 
Q 3481 -459 3084 -895 
Q 2688 -1331 1869 -1331 
Q 1566 -1331 1297 -1286 
Q 1028 -1241 775 -1147 
L 775 -588 
Q 1028 -725 1275 -790 
Q 1522 -856 1778 -856 
Q 2344 -856 2625 -561 
Q 2906 -266 2906 331 
L 2906 616 
Q 2728 306 2450 153 
Q 2172 0 1784 0 
Q 1141 0 747 490 
Q 353 981 353 1791 
Q 353 2603 747 3093 
Q 1141 3584 1784 3584 
Q 2172 3584 2450 3431 
Q 2728 3278 2906 2969 
L 2906 3500 
L 3481 3500 
L 3481 434 
z
" transform="scale(0.015625)"/>
       <path id="DejaVuSans-c5" d="M 2663 5081 
Q 2663 5278 2523 5417 
Q 2384 5556 2188 5556 
Q 1988 5556 1852 5420 
Q 1716 5284 1716 5081 
Q 1716 4884 1853 4746 
Q 1991 4609 2188 4609 
Q 2384 4609 2523 4746 
Q 2663 4884 2663 5081 
z
M 2188 4044 
L 1338 1722 
L 3041 1722 
L 2188 4044 
z
M 1716 4366 
Q 1525 4494 1428 4673 
Q 1331 4853 1331 5081 
Q 1331 5441 1579 5691 
Q 1828 5941 2188 5941 
Q 2544 5941 2795 5689 
Q 3047 5438 3047 5081 
Q 3047 4863 2948 4678 
Q 2850 4494 2663 4366 
L 4325 0 
L 3669 0 
L 3244 1197 
L 1141 1197 
L 716 0 
L 50 0 
L 1716 4366 
z
" transform="scale(0.015625)"/>
      </defs>
      <use xlink:href="#DejaVuSans-77"/>
      <use xlink:href="#DejaVuSans-61" transform="translate(81.787109 0)"/>
      <use xlink:href="#DejaVuSans-76" transform="translate(143.066406 0)"/>
      <use xlink:href="#DejaVuSans-65" transform="translate(202.246094 0)"/>
      <use xlink:href="#DejaVuSans-6c" transform="translate(263.769531 0)"/>
      <use xlink:href="#DejaVuSans-65" transform="translate(291.552734 0)"/>
      <use xlink:href="#DejaVuSans-6e" transform="translate(353.076172 0)"/>
      <use xlink:href="#DejaVuSans-67" transform="translate(416.455078 0)"/>
      <use xlink:href="#DejaVuSans-74" transform="translate(479.931641 0)"/>
      <use xlink:href="#DejaVuSans-68" transform="translate(519.140625 0)"/>
      <use xlink:href="#DejaVuSans-20" transform="translate(582.519531 0)"/>
      <use xlink:href="#DejaVuSans-5b" transform="translate(614.306641 0)"/>
      <use xlink:href="#DejaVuSans-c5" transform="translate(653.320312 0)"/>
      <use xlink:href="#DejaVuSans-5d" transform="translate(721.728516 0)"/>
     </g>
    </g>
   </g>
   <g id="matplotlib.axis_4">
    <g id="ytick_8">
     <g id="line2d_24">
      <g>
       <use xlink:href="#m0cd1ae0eed" x="486.647885" y="245.797127" style="stroke: #000000; stroke-width: 0.8"/>
      </g>
     </g>
     <g id="text_26">
      <!-- 0 -->
      <g transform="translate(473.285385 249.596346) scale(0.1 -0.1)">
       <use xlink:href="#DejaVuSans-30"/>
      </g>
     </g>
    </g>
    <g id="ytick_9">
     <g id="line2d_25">
      <g>
       <use xlink:href="#m0cd1ae0eed" x="486.647885" y="193.499001" style="stroke: #000000; stroke-width: 0.8"/>
      </g>
     </g>
     <g id="text_27">
      <!-- 1000 -->
      <g transform="translate(454.197885 197.298219) scale(0.1 -0.1)">
       <use xlink:href="#DejaVuSans-31"/>
       <use xlink:href="#DejaVuSans-30" transform="translate(63.623047 0)"/>
       <use xlink:href="#DejaVuSans-30" transform="translate(127.246094 0)"/>
       <use xlink:href="#DejaVuSans-30" transform="translate(190.869141 0)"/>
      </g>
     </g>
    </g>
    <g id="ytick_10">
     <g id="line2d_26">
      <g>
       <use xlink:href="#m0cd1ae0eed" x="486.647885" y="141.200874" style="stroke: #000000; stroke-width: 0.8"/>
      </g>
     </g>
     <g id="text_28">
      <!-- 2000 -->
      <g transform="translate(454.197885 145.000093) scale(0.1 -0.1)">
       <use xlink:href="#DejaVuSans-32"/>
       <use xlink:href="#DejaVuSans-30" transform="translate(63.623047 0)"/>
       <use xlink:href="#DejaVuSans-30" transform="translate(127.246094 0)"/>
       <use xlink:href="#DejaVuSans-30" transform="translate(190.869141 0)"/>
      </g>
     </g>
    </g>
    <g id="ytick_11">
     <g id="line2d_27">
      <g>
       <use xlink:href="#m0cd1ae0eed" x="486.647885" y="88.902748" style="stroke: #000000; stroke-width: 0.8"/>
      </g>
     </g>
     <g id="text_29">
      <!-- 3000 -->
      <g transform="translate(454.197885 92.701967) scale(0.1 -0.1)">
       <use xlink:href="#DejaVuSans-33"/>
       <use xlink:href="#DejaVuSans-30" transform="translate(63.623047 0)"/>
       <use xlink:href="#DejaVuSans-30" transform="translate(127.246094 0)"/>
       <use xlink:href="#DejaVuSans-30" transform="translate(190.869141 0)"/>
      </g>
     </g>
    </g>
    <g id="ytick_12">
     <g id="line2d_28">
      <g>
       <use xlink:href="#m0cd1ae0eed" x="486.647885" y="36.604622" style="stroke: #000000; stroke-width: 0.8"/>
      </g>
     </g>
     <g id="text_30">
      <!-- 4000 -->
      <g transform="translate(454.197885 40.40384) scale(0.1 -0.1)">
       <use xlink:href="#DejaVuSans-34"/>
       <use xlink:href="#DejaVuSans-30" transform="translate(63.623047 0)"/>
       <use xlink:href="#DejaVuSans-30" transform="translate(127.246094 0)"/>
       <use xlink:href="#DejaVuSans-30" transform="translate(190.869141 0)"/>
      </g>
     </g>
    </g>
    <g id="text_31">
     <!-- [counts] -->
     <g transform="translate(448.118197 152.791947) rotate(-90) scale(0.1 -0.1)">
      <use xlink:href="#DejaVuSans-5b"/>
      <use xlink:href="#DejaVuSans-63" transform="translate(39.013672 0)"/>
      <use xlink:href="#DejaVuSans-6f" transform="translate(93.994141 0)"/>
      <use xlink:href="#DejaVuSans-75" transform="translate(155.175781 0)"/>
      <use xlink:href="#DejaVuSans-6e" transform="translate(218.554688 0)"/>
      <use xlink:href="#DejaVuSans-74" transform="translate(281.933594 0)"/>
      <use xlink:href="#DejaVuSans-73" transform="translate(321.142578 0)"/>
      <use xlink:href="#DejaVuSans-5d" transform="translate(373.242188 0)"/>
     </g>
    </g>
   </g>
   <g id="patch_8">
    <path d="M 486.647885 257.158895 
L 486.647885 7.2 
" style="fill: none; stroke: #000000; stroke-width: 0.8; stroke-linejoin: miter; stroke-linecap: square"/>
   </g>
   <g id="patch_9">
    <path d="M 865.19952 257.158895 
L 865.19952 7.2 
" style="fill: none; stroke: #000000; stroke-width: 0.8; stroke-linejoin: miter; stroke-linecap: square"/>
   </g>
   <g id="patch_10">
    <path d="M 486.647885 257.158895 
L 865.19952 257.158895 
" style="fill: none; stroke: #000000; stroke-width: 0.8; stroke-linejoin: miter; stroke-linecap: square"/>
   </g>
   <g id="patch_11">
    <path d="M 486.647885 7.2 
L 865.19952 7.2 
" style="fill: none; stroke: #000000; stroke-width: 0.8; stroke-linejoin: miter; stroke-linecap: square"/>
   </g>
   <g id="line2d_29">
    <path d="M 503.854777 151.869692 
L 505.001904 151.869692 
L 505.001904 142.71752 
L 506.14903 142.71752 
L 506.14903 137.173919 
L 507.296156 137.173919 
L 507.296156 135.709571 
L 508.443282 135.709571 
L 508.443282 141.985346 
L 509.590408 141.985346 
L 509.590408 155.739753 
L 510.737534 155.739753 
L 510.737534 148.784103 
L 511.884661 148.784103 
L 511.884661 130.532057 
L 513.031787 130.532057 
L 513.031787 112.01852 
L 514.178913 112.01852 
L 514.178913 87.804487 
L 515.326039 87.804487 
L 515.326039 62.701387 
L 516.473165 62.701387 
L 516.473165 36.65692 
L 517.620291 36.65692 
L 517.620291 26.824872 
L 518.767418 26.824872 
L 518.767418 24.942139 
L 519.914544 24.942139 
L 519.914544 18.561768 
L 521.06167 18.561768 
L 521.06167 24.732947 
L 522.208796 24.732947 
L 522.208796 34.931082 
L 523.355922 34.931082 
L 523.355922 47.953315 
L 524.503048 47.953315 
L 524.503048 54.961264 
L 525.650175 54.961264 
L 525.650175 57.889959 
L 526.797301 57.889959 
L 526.797301 68.611075 
L 527.944427 68.611075 
L 527.944427 80.273557 
L 529.091553 80.273557 
L 529.091553 84.352811 
L 530.238679 84.352811 
L 530.238679 92.19753 
L 531.385805 92.19753 
L 531.385805 92.929704 
L 532.532932 92.929704 
L 532.532932 93.243492 
L 533.680058 93.243492 
L 533.680058 102.866348 
L 534.827184 102.866348 
L 534.827184 92.720511 
L 535.97431 92.720511 
L 535.97431 96.956659 
L 537.121436 96.956659 
L 537.121436 92.772809 
L 538.268562 92.772809 
L 538.268562 82.051693 
L 539.415689 82.051693 
L 539.415689 73.527099 
L 540.562815 73.527099 
L 540.562815 60.975548 
L 541.709941 60.975548 
L 541.709941 57.785363 
L 542.857067 57.785363 
L 542.857067 44.815427 
L 544.004193 44.815427 
L 544.004193 43.61257 
L 545.151319 43.61257 
L 545.151319 32.996051 
L 546.298446 32.996051 
L 546.298446 47.587228 
L 547.445572 47.587228 
L 547.445572 47.221141 
L 548.592698 47.221141 
L 548.592698 59.354307 
L 549.739824 59.354307 
L 549.739824 69.081758 
L 550.88695 69.081758 
L 550.88695 81.528712 
L 552.034076 81.528712 
L 552.034076 88.798152 
L 553.181203 88.798152 
L 553.181203 95.126225 
L 554.328329 95.126225 
L 554.328329 103.598521 
L 555.475455 103.598521 
L 555.475455 108.880632 
L 556.622581 108.880632 
L 556.622581 118.085102 
L 557.769707 118.085102 
L 557.769707 126.557399 
L 558.916833 126.557399 
L 558.916833 134.559012 
L 560.06396 134.559012 
L 560.06396 137.173919 
L 561.211086 137.173919 
L 561.211086 142.71752 
L 562.358212 142.71752 
L 562.358212 148.627208 
L 563.505338 148.627208 
L 563.505338 151.92199 
L 564.652464 151.92199 
L 564.652464 159.034535 
L 565.79959 159.034535 
L 565.79959 161.858634 
L 566.946717 161.858634 
L 566.946717 165.205714 
L 568.093843 165.205714 
L 568.093843 169.703353 
L 569.240969 169.703353 
L 569.240969 172.736645 
L 570.388095 172.736645 
L 570.388095 174.410185 
L 571.535221 174.410185 
L 571.535221 178.907823 
L 572.682347 178.907823 
L 572.682347 183.405462 
L 573.829474 183.405462 
L 573.829474 187.955399 
L 574.9766 187.955399 
L 574.9766 192.609933 
L 577.270852 192.714529 
L 577.270852 194.649559 
L 578.417978 194.649559 
L 578.417978 196.375398 
L 579.565104 196.375398 
L 579.565104 197.944341 
L 580.712231 197.944341 
L 580.712231 201.291422 
L 581.859357 201.291422 
L 581.859357 203.644837 
L 583.006483 203.644837 
L 583.006483 203.435645 
L 584.153609 203.435645 
L 584.153609 205.579868 
L 585.300735 205.579868 
L 585.300735 207.933284 
L 586.447861 207.933284 
L 586.447861 208.717755 
L 587.594988 208.717755 
L 587.594988 210.495892 
L 588.742114 210.495892 
L 588.742114 215.621108 
L 589.88924 215.621108 
L 589.88924 213.476885 
L 591.036366 213.476885 
L 591.036366 214.470549 
L 592.183492 214.470549 
L 592.183492 215.830301 
L 593.330618 215.830301 
L 593.330618 219.438871 
L 594.477745 219.438871 
L 594.477745 217.660735 
L 595.624871 217.660735 
L 595.624871 222.053778 
L 596.771997 222.053778 
L 596.771997 219.229679 
L 597.919123 219.229679 
L 597.919123 222.629057 
L 599.066249 222.629057 
L 599.066249 222.26297 
L 600.213375 222.26297 
L 600.213375 224.877876 
L 601.360502 224.877876 
L 601.360502 225.243963 
L 602.507628 225.243963 
L 602.507628 226.237628 
L 603.654754 226.237628 
L 603.654754 227.126696 
L 604.80188 227.126696 
L 604.80188 226.760609 
L 605.949006 226.760609 
L 605.949006 228.329553 
L 607.096132 228.329553 
L 607.096132 230.682969 
L 609.390385 230.682969 
L 609.390385 229.741602 
L 610.537511 229.741602 
L 610.537511 230.159987 
L 612.831763 230.212285 
L 612.831763 230.473776 
L 613.978889 230.473776 
L 613.978889 232.87949 
L 615.126016 232.87949 
L 615.126016 231.20595 
L 616.273142 231.20595 
L 616.273142 233.71626 
L 617.420268 233.71626 
L 617.420268 232.722595 
L 618.567394 232.722595 
L 618.567394 233.820856 
L 620.861646 233.768558 
L 620.861646 233.611664 
L 622.008773 233.611664 
L 622.008773 234.500732 
L 623.155899 234.500732 
L 623.155899 235.965079 
L 624.303025 235.965079 
L 624.303025 236.801849 
L 625.450151 236.801849 
L 625.450151 237.377129 
L 626.597277 237.377129 
L 626.597277 236.592657 
L 627.744403 236.592657 
L 627.744403 236.958744 
L 628.89153 236.958744 
L 628.89153 237.272532 
L 630.038656 237.272532 
L 630.038656 238.370793 
L 631.185782 238.370793 
L 631.185782 238.527687 
L 632.332908 238.527687 
L 632.332908 237.638619 
L 633.480034 237.638619 
L 633.480034 238.946072 
L 634.62716 238.946072 
L 634.62716 239.416756 
L 635.774287 239.416756 
L 635.774287 238.841476 
L 636.921413 238.841476 
L 636.921413 239.939737 
L 638.068539 239.939737 
L 638.068539 238.213899 
L 639.215665 238.213899 
L 639.215665 240.148929 
L 640.362791 240.148929 
L 640.362791 239.939737 
L 641.509917 239.939737 
L 641.509917 239.678246 
L 643.80417 239.782843 
L 643.80417 240.358122 
L 644.951296 240.358122 
L 644.951296 241.142594 
L 647.245548 241.037998 
L 647.245548 240.358122 
L 649.539801 240.305824 
L 649.539801 240.567314 
L 650.686927 240.567314 
L 650.686927 241.456383 
L 651.834053 241.456383 
L 651.834053 240.148929 
L 652.981179 240.148929 
L 652.981179 241.508681 
L 654.128305 241.508681 
L 654.128305 240.724209 
L 655.275431 240.724209 
L 655.275431 242.08396 
L 656.422558 242.08396 
L 656.422558 241.24719 
L 657.569684 241.24719 
L 657.569684 241.927066 
L 659.863936 241.979364 
L 659.863936 242.502345 
L 661.011062 242.502345 
L 661.011062 242.136258 
L 662.158188 242.136258 
L 662.158188 242.397749 
L 664.452441 242.397749 
L 664.452441 243.129923 
L 665.599567 243.129923 
L 665.599567 242.293153 
L 666.746693 242.293153 
L 666.746693 243.182221 
L 667.893819 243.182221 
L 667.893819 242.711538 
L 671.335198 242.763836 
L 671.335198 242.973028 
L 672.482324 242.973028 
L 672.482324 243.234519 
L 673.62945 243.234519 
L 673.62945 243.548308 
L 674.776576 243.548308 
L 674.776576 243.234519 
L 675.923702 243.234519 
L 675.923702 243.077624 
L 677.070829 243.077624 
L 677.070829 243.496009 
L 679.365081 243.548308 
L 679.365081 244.071289 
L 681.659333 244.018991 
L 681.659333 243.600606 
L 682.806459 243.600606 
L 682.806459 243.129923 
L 683.953586 243.129923 
L 683.953586 243.966693 
L 685.100712 243.966693 
L 685.100712 243.286817 
L 686.247838 243.286817 
L 686.247838 243.600606 
L 687.394964 243.600606 
L 687.394964 243.966693 
L 689.689216 243.914394 
L 689.689216 243.600606 
L 691.983469 243.600606 
L 691.983469 243.862096 
L 693.130595 243.862096 
L 693.130595 244.59427 
L 695.424847 244.59427 
L 695.424847 243.914394 
L 696.571974 243.914394 
L 696.571974 244.59427 
L 697.7191 244.59427 
L 697.7191 244.175885 
L 700.013352 244.071289 
L 700.013352 244.646568 
L 703.45473 244.541972 
L 703.45473 244.385078 
L 705.748983 244.385078 
L 705.748983 244.59427 
L 706.896109 244.59427 
L 706.896109 244.908059 
L 708.043235 244.908059 
L 708.043235 244.33278 
L 709.190361 244.33278 
L 709.190361 244.541972 
L 711.484614 244.59427 
L 711.484614 245.16955 
L 712.63174 245.16955 
L 712.63174 244.437376 
L 713.778866 244.437376 
L 713.778866 244.855761 
L 714.925992 244.855761 
L 714.925992 244.541972 
L 718.367371 244.646568 
L 718.367371 245.012655 
L 719.514497 245.012655 
L 719.514497 244.437376 
L 720.661623 244.437376 
L 720.661623 244.698866 
L 721.808749 244.698866 
L 721.808749 245.012655 
L 722.955875 245.012655 
L 722.955875 244.646568 
L 724.103001 244.646568 
L 724.103001 244.489674 
L 725.250128 244.489674 
L 725.250128 245.012655 
L 728.691506 245.012655 
L 728.691506 244.489674 
L 729.838632 244.489674 
L 729.838632 245.16955 
L 730.985758 245.16955 
L 730.985758 244.960357 
L 733.280011 244.908059 
L 733.280011 245.378742 
L 734.427137 245.378742 
L 734.427137 245.221848 
L 735.574263 245.221848 
L 735.574263 245.064953 
L 736.721389 245.064953 
L 736.721389 245.378742 
L 739.015642 245.378742 
L 739.015642 245.064953 
L 741.309894 245.064953 
L 741.309894 244.855761 
L 742.45702 244.855761 
L 742.45702 245.535636 
L 743.604146 245.535636 
L 743.604146 245.378742 
L 745.898399 245.483338 
L 745.898399 245.012655 
L 747.045525 245.012655 
L 747.045525 245.274146 
L 749.339777 245.378742 
L 749.339777 245.535636 
L 750.486903 245.535636 
L 750.486903 245.221848 
L 752.781156 245.326444 
L 752.781156 245.43104 
L 753.928282 245.43104 
L 753.928282 245.274146 
L 757.36966 245.274146 
L 757.36966 245.483338 
L 759.663913 245.587935 
L 759.663913 245.640233 
L 761.958165 245.587935 
L 761.958165 245.43104 
L 763.105291 245.43104 
L 763.105291 245.640233 
L 764.252417 245.640233 
L 764.252417 245.378742 
L 767.693796 245.43104 
L 767.693796 245.535636 
L 768.840922 245.535636 
L 768.840922 245.117251 
L 769.988048 245.117251 
L 769.988048 245.274146 
L 771.135174 245.274146 
L 771.135174 245.587935 
L 773.429427 245.535636 
L 773.429427 245.378742 
L 775.723679 245.43104 
L 775.723679 245.587935 
L 778.017931 245.535636 
L 778.017931 245.43104 
L 788.342067 245.535636 
L 788.342067 245.274146 
L 789.489193 245.274146 
L 789.489193 245.535636 
L 797.519076 245.587935 
L 797.519076 245.744829 
L 800.960455 245.692531 
L 800.960455 245.587935 
L 802.107581 245.587935 
L 802.107581 245.378742 
L 803.254707 245.378742 
L 803.254707 245.692531 
L 805.548959 245.640233 
L 805.548959 245.483338 
L 807.843212 245.587935 
L 807.843212 245.692531 
L 810.137464 245.587935 
L 810.137464 245.535636 
L 812.431716 245.535636 
L 812.431716 245.692531 
L 837.668492 245.744829 
L 837.668492 245.535636 
L 838.815618 245.535636 
L 838.815618 245.797127 
L 842.256997 245.744829 
L 842.256997 245.640233 
L 847.992628 245.640233 
L 847.992628 245.640233 
" clip-path="url(#pbe2fe716e2)" style="fill: none; stroke: #1f77b4; stroke-width: 1.5; stroke-linecap: square"/>
   </g>
  </g>
 </g>
 <defs>
  <clipPath id="p14cfbf40bf">
   <rect x="53.328125" y="7.2" width="378.551635" height="249.958895"/>
  </clipPath>
  <clipPath id="pbe2fe716e2">
   <rect x="486.647885" y="7.2" width="378.551635" height="249.958895"/>
  </clipPath>
 </defs>
</svg>
