<?xml version="1.0" encoding="utf-8" standalone="no"?>
<!DOCTYPE svg PUBLIC "-//W3C//DTD SVG 1.1//EN"
  "http://www.w3.org/Graphics/SVG/1.1/DTD/svg11.dtd">
<svg xmlns:xlink="http://www.w3.org/1999/xlink" width="872.39952pt" height="296.39952pt" viewBox="0 0 872.39952 296.39952" xmlns="http://www.w3.org/2000/svg" version="1.1">
 <metadata>
  <rdf:RDF xmlns:dc="http://purl.org/dc/elements/1.1/" xmlns:cc="http://creativecommons.org/ns#" xmlns:rdf="http://www.w3.org/1999/02/22-rdf-syntax-ns#">
   <cc:Work>
    <dc:type rdf:resource="http://purl.org/dc/dcmitype/StillImage"/>
    <dc:date>2025-11-27T11:57:39.349392</dc:date>
    <dc:format>image/svg+xml</dc:format>
    <dc:creator>
     <cc:Agent>
      <dc:title>Matplotlib v3.10.7, https://matplotlib.org/</dc:title>
     </cc:Agent>
    </dc:creator>
   </cc:Work>
  </rdf:RDF>
 </metadata>
 <defs>
  <style type="text/css">*{stroke-linejoin: round; stroke-linecap: butt}</style>
 </defs>
 <g id="figure_1">
  <g id="patch_1">
   <path d="M 0 296.39952 
L 872.39952 296.39952 
L 872.39952 0 
L 0 0 
z
" style="fill: #ffffff"/>
  </g>
  <g id="axes_1">
   <g id="patch_2">
    <path d="M 53.328125 257.158895 
L 414.59976 257.158895 
L 414.59976 7.2 
L 53.328125 7.2 
z
" style="fill: #ffffff"/>
   </g>
   <g id="matplotlib.axis_1">
    <g id="xtick_1">
     <g id="line2d_1">
      <defs>
       <path id="m008533497a" d="M 0 0 
L 0 3.5 
" style="stroke: #000000; stroke-width: 0.8"/>
      </defs>
      <g>
       <use xlink:href="#m008533497a" x="68.879814" y="257.158895" style="stroke: #000000; stroke-width: 0.8"/>
      </g>
     </g>
     <g id="text_1">
      <!-- 0 -->
      <g transform="translate(65.698564 271.757332) scale(0.1 -0.1)">
       <defs>
        <path id="DejaVuSans-30" d="M 2034 4250 
Q 1547 4250 1301 3770 
Q 1056 3291 1056 2328 
Q 1056 1369 1301 889 
Q 1547 409 2034 409 
Q 2525 409 2770 889 
Q 3016 1369 3016 2328 
Q 3016 3291 2770 3770 
Q 2525 4250 2034 4250 
z
M 2034 4750 
Q 2819 4750 3233 4129 
Q 3647 3509 3647 2328 
Q 3647 1150 3233 529 
Q 2819 -91 2034 -91 
Q 1250 -91 836 529 
Q 422 1150 422 2328 
Q 422 3509 836 4129 
Q 1250 4750 2034 4750 
z
" transform="scale(0.015625)"/>
       </defs>
       <use xlink:href="#DejaVuSans-30"/>
      </g>
     </g>
    </g>
    <g id="xtick_2">
     <g id="line2d_2">
      <g>
       <use xlink:href="#m008533497a" x="135.02351" y="257.158895" style="stroke: #000000; stroke-width: 0.8"/>
      </g>
     </g>
     <g id="text_2">
      <!-- 1000 -->
      <g transform="translate(122.29851 271.757332) scale(0.1 -0.1)">
       <defs>
        <path id="DejaVuSans-31" d="M 794 531 
L 1825 531 
L 1825 4091 
L 703 3866 
L 703 4441 
L 1819 4666 
L 2450 4666 
L 2450 531 
L 3481 531 
L 3481 0 
L 794 0 
L 794 531 
z
" transform="scale(0.015625)"/>
       </defs>
       <use xlink:href="#DejaVuSans-31"/>
       <use xlink:href="#DejaVuSans-30" transform="translate(63.623047 0)"/>
       <use xlink:href="#DejaVuSans-30" transform="translate(127.246094 0)"/>
       <use xlink:href="#DejaVuSans-30" transform="translate(190.869141 0)"/>
      </g>
     </g>
    </g>
    <g id="xtick_3">
     <g id="line2d_3">
      <g>
       <use xlink:href="#m008533497a" x="201.167207" y="257.158895" style="stroke: #000000; stroke-width: 0.8"/>
      </g>
     </g>
     <g id="text_3">
      <!-- 2000 -->
      <g transform="translate(188.442207 271.757332) scale(0.1 -0.1)">
       <defs>
        <path id="DejaVuSans-32" d="M 1228 531 
L 3431 531 
L 3431 0 
L 469 0 
L 469 531 
Q 828 903 1448 1529 
Q 2069 2156 2228 2338 
Q 2531 2678 2651 2914 
Q 2772 3150 2772 3378 
Q 2772 3750 2511 3984 
Q 2250 4219 1831 4219 
Q 1534 4219 1204 4116 
Q 875 4013 500 3803 
L 500 4441 
Q 881 4594 1212 4672 
Q 1544 4750 1819 4750 
Q 2544 4750 2975 4387 
Q 3406 4025 3406 3419 
Q 3406 3131 3298 2873 
Q 3191 2616 2906 2266 
Q 2828 2175 2409 1742 
Q 1991 1309 1228 531 
z
" transform="scale(0.015625)"/>
       </defs>
       <use xlink:href="#DejaVuSans-32"/>
       <use xlink:href="#DejaVuSans-30" transform="translate(63.623047 0)"/>
       <use xlink:href="#DejaVuSans-30" transform="translate(127.246094 0)"/>
       <use xlink:href="#DejaVuSans-30" transform="translate(190.869141 0)"/>
      </g>
     </g>
    </g>
    <g id="xtick_4">
     <g id="line2d_4">
      <g>
       <use xlink:href="#m008533497a" x="267.310903" y="257.158895" style="stroke: #000000; stroke-width: 0.8"/>
      </g>
     </g>
     <g id="text_4">
      <!-- 3000 -->
      <g transform="translate(254.585903 271.757332) scale(0.1 -0.1)">
       <defs>
        <path id="DejaVuSans-33" d="M 2597 2516 
Q 3050 2419 3304 2112 
Q 3559 1806 3559 1356 
Q 3559 666 3084 287 
Q 2609 -91 1734 -91 
Q 1441 -91 1130 -33 
Q 819 25 488 141 
L 488 750 
Q 750 597 1062 519 
Q 1375 441 1716 441 
Q 2309 441 2620 675 
Q 2931 909 2931 1356 
Q 2931 1769 2642 2001 
Q 2353 2234 1838 2234 
L 1294 2234 
L 1294 2753 
L 1863 2753 
Q 2328 2753 2575 2939 
Q 2822 3125 2822 3475 
Q 2822 3834 2567 4026 
Q 2313 4219 1838 4219 
Q 1578 4219 1281 4162 
Q 984 4106 628 3988 
L 628 4550 
Q 988 4650 1302 4700 
Q 1616 4750 1894 4750 
Q 2613 4750 3031 4423 
Q 3450 4097 3450 3541 
Q 3450 3153 3228 2886 
Q 3006 2619 2597 2516 
z
" transform="scale(0.015625)"/>
       </defs>
       <use xlink:href="#DejaVuSans-33"/>
       <use xlink:href="#DejaVuSans-30" transform="translate(63.623047 0)"/>
       <use xlink:href="#DejaVuSans-30" transform="translate(127.246094 0)"/>
       <use xlink:href="#DejaVuSans-30" transform="translate(190.869141 0)"/>
      </g>
     </g>
    </g>
    <g id="xtick_5">
     <g id="line2d_5">
      <g>
       <use xlink:href="#m008533497a" x="333.4546" y="257.158895" style="stroke: #000000; stroke-width: 0.8"/>
      </g>
     </g>
     <g id="text_5">
      <!-- 4000 -->
      <g transform="translate(320.7296 271.757332) scale(0.1 -0.1)">
       <defs>
        <path id="DejaVuSans-34" d="M 2419 4116 
L 825 1625 
L 2419 1625 
L 2419 4116 
z
M 2253 4666 
L 3047 4666 
L 3047 1625 
L 3713 1625 
L 3713 1100 
L 3047 1100 
L 3047 0 
L 2419 0 
L 2419 1100 
L 313 1100 
L 313 1709 
L 2253 4666 
z
" transform="scale(0.015625)"/>
       </defs>
       <use xlink:href="#DejaVuSans-34"/>
       <use xlink:href="#DejaVuSans-30" transform="translate(63.623047 0)"/>
       <use xlink:href="#DejaVuSans-30" transform="translate(127.246094 0)"/>
       <use xlink:href="#DejaVuSans-30" transform="translate(190.869141 0)"/>
      </g>
     </g>
    </g>
    <g id="xtick_6">
     <g id="line2d_6">
      <g>
       <use xlink:href="#m008533497a" x="399.598296" y="257.158895" style="stroke: #000000; stroke-width: 0.8"/>
      </g>
     </g>
     <g id="text_6">
      <!-- 5000 -->
      <g transform="translate(386.873296 271.757332) scale(0.1 -0.1)">
       <defs>
        <path id="DejaVuSans-35" d="M 691 4666 
L 3169 4666 
L 3169 4134 
L 1269 4134 
L 1269 2991 
Q 1406 3038 1543 3061 
Q 1681 3084 1819 3084 
Q 2600 3084 3056 2656 
Q 3513 2228 3513 1497 
Q 3513 744 3044 326 
Q 2575 -91 1722 -91 
Q 1428 -91 1123 -41 
Q 819 9 494 109 
L 494 744 
Q 775 591 1075 516 
Q 1375 441 1709 441 
Q 2250 441 2565 725 
Q 2881 1009 2881 1497 
Q 2881 1984 2565 2268 
Q 2250 2553 1709 2553 
Q 1456 2553 1204 2497 
Q 953 2441 691 2322 
L 691 4666 
z
" transform="scale(0.015625)"/>
       </defs>
       <use xlink:href="#DejaVuSans-35"/>
       <use xlink:href="#DejaVuSans-30" transform="translate(63.623047 0)"/>
       <use xlink:href="#DejaVuSans-30" transform="translate(127.246094 0)"/>
       <use xlink:href="#DejaVuSans-30" transform="translate(190.869141 0)"/>
      </g>
     </g>
    </g>
    <g id="text_7">
     <!-- birth_time [µs] -->
     <g transform="translate(197.14363 285.435457) scale(0.1 -0.1)">
      <defs>
       <path id="DejaVuSans-62" d="M 3116 1747 
Q 3116 2381 2855 2742 
Q 2594 3103 2138 3103 
Q 1681 3103 1420 2742 
Q 1159 2381 1159 1747 
Q 1159 1113 1420 752 
Q 1681 391 2138 391 
Q 2594 391 2855 752 
Q 3116 1113 3116 1747 
z
M 1159 2969 
Q 1341 3281 1617 3432 
Q 1894 3584 2278 3584 
Q 2916 3584 3314 3078 
Q 3713 2572 3713 1747 
Q 3713 922 3314 415 
Q 2916 -91 2278 -91 
Q 1894 -91 1617 61 
Q 1341 213 1159 525 
L 1159 0 
L 581 0 
L 581 4863 
L 1159 4863 
L 1159 2969 
z
" transform="scale(0.015625)"/>
       <path id="DejaVuSans-69" d="M 603 3500 
L 1178 3500 
L 1178 0 
L 603 0 
L 603 3500 
z
M 603 4863 
L 1178 4863 
L 1178 4134 
L 603 4134 
L 603 4863 
z
" transform="scale(0.015625)"/>
       <path id="DejaVuSans-72" d="M 2631 2963 
Q 2534 3019 2420 3045 
Q 2306 3072 2169 3072 
Q 1681 3072 1420 2755 
Q 1159 2438 1159 1844 
L 1159 0 
L 581 0 
L 581 3500 
L 1159 3500 
L 1159 2956 
Q 1341 3275 1631 3429 
Q 1922 3584 2338 3584 
Q 2397 3584 2469 3576 
Q 2541 3569 2628 3553 
L 2631 2963 
z
" transform="scale(0.015625)"/>
       <path id="DejaVuSans-74" d="M 1172 4494 
L 1172 3500 
L 2356 3500 
L 2356 3053 
L 1172 3053 
L 1172 1153 
Q 1172 725 1289 603 
Q 1406 481 1766 481 
L 2356 481 
L 2356 0 
L 1766 0 
Q 1100 0 847 248 
Q 594 497 594 1153 
L 594 3053 
L 172 3053 
L 172 3500 
L 594 3500 
L 594 4494 
L 1172 4494 
z
" transform="scale(0.015625)"/>
       <path id="DejaVuSans-68" d="M 3513 2113 
L 3513 0 
L 2938 0 
L 2938 2094 
Q 2938 2591 2744 2837 
Q 2550 3084 2163 3084 
Q 1697 3084 1428 2787 
Q 1159 2491 1159 1978 
L 1159 0 
L 581 0 
L 581 4863 
L 1159 4863 
L 1159 2956 
Q 1366 3272 1645 3428 
Q 1925 3584 2291 3584 
Q 2894 3584 3203 3211 
Q 3513 2838 3513 2113 
z
" transform="scale(0.015625)"/>
       <path id="DejaVuSans-5f" d="M 3263 -1063 
L 3263 -1509 
L -63 -1509 
L -63 -1063 
L 3263 -1063 
z
" transform="scale(0.015625)"/>
       <path id="DejaVuSans-6d" d="M 3328 2828 
Q 3544 3216 3844 3400 
Q 4144 3584 4550 3584 
Q 5097 3584 5394 3201 
Q 5691 2819 5691 2113 
L 5691 0 
L 5113 0 
L 5113 2094 
Q 5113 2597 4934 2840 
Q 4756 3084 4391 3084 
Q 3944 3084 3684 2787 
Q 3425 2491 3425 1978 
L 3425 0 
L 2847 0 
L 2847 2094 
Q 2847 2600 2669 2842 
Q 2491 3084 2119 3084 
Q 1678 3084 1418 2786 
Q 1159 2488 1159 1978 
L 1159 0 
L 581 0 
L 581 3500 
L 1159 3500 
L 1159 2956 
Q 1356 3278 1631 3431 
Q 1906 3584 2284 3584 
Q 2666 3584 2933 3390 
Q 3200 3197 3328 2828 
z
" transform="scale(0.015625)"/>
       <path id="DejaVuSans-65" d="M 3597 1894 
L 3597 1613 
L 953 1613 
Q 991 1019 1311 708 
Q 1631 397 2203 397 
Q 2534 397 2845 478 
Q 3156 559 3463 722 
L 3463 178 
Q 3153 47 2828 -22 
Q 2503 -91 2169 -91 
Q 1331 -91 842 396 
Q 353 884 353 1716 
Q 353 2575 817 3079 
Q 1281 3584 2069 3584 
Q 2775 3584 3186 3129 
Q 3597 2675 3597 1894 
z
M 3022 2063 
Q 3016 2534 2758 2815 
Q 2500 3097 2075 3097 
Q 1594 3097 1305 2825 
Q 1016 2553 972 2059 
L 3022 2063 
z
" transform="scale(0.015625)"/>
       <path id="DejaVuSans-20" transform="scale(0.015625)"/>
       <path id="DejaVuSans-5b" d="M 550 4863 
L 1875 4863 
L 1875 4416 
L 1125 4416 
L 1125 -397 
L 1875 -397 
L 1875 -844 
L 550 -844 
L 550 4863 
z
" transform="scale(0.015625)"/>
       <path id="DejaVuSans-b5" d="M 544 -1331 
L 544 3500 
L 1119 3500 
L 1119 1325 
Q 1119 872 1334 640 
Q 1550 409 1972 409 
Q 2434 409 2667 671 
Q 2900 934 2900 1459 
L 2900 3500 
L 3475 3500 
L 3475 806 
Q 3475 619 3529 530 
Q 3584 441 3700 441 
Q 3728 441 3778 458 
Q 3828 475 3916 513 
L 3916 50 
Q 3788 -22 3673 -56 
Q 3559 -91 3450 -91 
Q 3234 -91 3106 31 
Q 2978 153 2931 403 
Q 2775 156 2548 32 
Q 2322 -91 2016 -91 
Q 1697 -91 1473 31 
Q 1250 153 1119 397 
L 1119 -1331 
L 544 -1331 
z
" transform="scale(0.015625)"/>
       <path id="DejaVuSans-73" d="M 2834 3397 
L 2834 2853 
Q 2591 2978 2328 3040 
Q 2066 3103 1784 3103 
Q 1356 3103 1142 2972 
Q 928 2841 928 2578 
Q 928 2378 1081 2264 
Q 1234 2150 1697 2047 
L 1894 2003 
Q 2506 1872 2764 1633 
Q 3022 1394 3022 966 
Q 3022 478 2636 193 
Q 2250 -91 1575 -91 
Q 1294 -91 989 -36 
Q 684 19 347 128 
L 347 722 
Q 666 556 975 473 
Q 1284 391 1588 391 
Q 1994 391 2212 530 
Q 2431 669 2431 922 
Q 2431 1156 2273 1281 
Q 2116 1406 1581 1522 
L 1381 1569 
Q 847 1681 609 1914 
Q 372 2147 372 2553 
Q 372 3047 722 3315 
Q 1072 3584 1716 3584 
Q 2034 3584 2315 3537 
Q 2597 3491 2834 3397 
z
" transform="scale(0.015625)"/>
       <path id="DejaVuSans-5d" d="M 1947 4863 
L 1947 -844 
L 622 -844 
L 622 -397 
L 1369 -397 
L 1369 4416 
L 622 4416 
L 622 4863 
L 1947 4863 
z
" transform="scale(0.015625)"/>
      </defs>
      <use xlink:href="#DejaVuSans-62"/>
      <use xlink:href="#DejaVuSans-69" transform="translate(63.476562 0)"/>
      <use xlink:href="#DejaVuSans-72" transform="translate(91.259766 0)"/>
      <use xlink:href="#DejaVuSans-74" transform="translate(132.373047 0)"/>
      <use xlink:href="#DejaVuSans-68" transform="translate(171.582031 0)"/>
      <use xlink:href="#DejaVuSans-5f" transform="translate(234.960938 0)"/>
      <use xlink:href="#DejaVuSans-74" transform="translate(284.960938 0)"/>
      <use xlink:href="#DejaVuSans-69" transform="translate(324.169922 0)"/>
      <use xlink:href="#DejaVuSans-6d" transform="translate(351.953125 0)"/>
      <use xlink:href="#DejaVuSans-65" transform="translate(449.365234 0)"/>
      <use xlink:href="#DejaVuSans-20" transform="translate(510.888672 0)"/>
      <use xlink:href="#DejaVuSans-5b" transform="translate(542.675781 0)"/>
      <use xlink:href="#DejaVuSans-b5" transform="translate(581.689453 0)"/>
      <use xlink:href="#DejaVuSans-73" transform="translate(645.3125 0)"/>
      <use xlink:href="#DejaVuSans-5d" transform="translate(697.412109 0)"/>
     </g>
    </g>
   </g>
   <g id="matplotlib.axis_2">
    <g id="ytick_1">
     <g id="line2d_7">
      <defs>
       <path id="mc17e836321" d="M 0 0 
L -3.5 0 
" style="stroke: #000000; stroke-width: 0.8"/>
      </defs>
      <g>
       <use xlink:href="#mc17e836321" x="53.328125" y="245.797127" style="stroke: #000000; stroke-width: 0.8"/>
      </g>
     </g>
     <g id="text_8">
      <!-- 0 -->
      <g transform="translate(39.965625 249.596346) scale(0.1 -0.1)">
       <use xlink:href="#DejaVuSans-30"/>
      </g>
     </g>
    </g>
    <g id="ytick_2">
     <g id="line2d_8">
      <g>
       <use xlink:href="#mc17e836321" x="53.328125" y="209.785184" style="stroke: #000000; stroke-width: 0.8"/>
      </g>
     </g>
     <g id="text_9">
      <!-- 200 -->
      <g transform="translate(27.240625 213.584403) scale(0.1 -0.1)">
       <use xlink:href="#DejaVuSans-32"/>
       <use xlink:href="#DejaVuSans-30" transform="translate(63.623047 0)"/>
       <use xlink:href="#DejaVuSans-30" transform="translate(127.246094 0)"/>
      </g>
     </g>
    </g>
    <g id="ytick_3">
     <g id="line2d_9">
      <g>
       <use xlink:href="#mc17e836321" x="53.328125" y="173.773241" style="stroke: #000000; stroke-width: 0.8"/>
      </g>
     </g>
     <g id="text_10">
      <!-- 400 -->
      <g transform="translate(27.240625 177.57246) scale(0.1 -0.1)">
       <use xlink:href="#DejaVuSans-34"/>
       <use xlink:href="#DejaVuSans-30" transform="translate(63.623047 0)"/>
       <use xlink:href="#DejaVuSans-30" transform="translate(127.246094 0)"/>
      </g>
     </g>
    </g>
    <g id="ytick_4">
     <g id="line2d_10">
      <g>
       <use xlink:href="#mc17e836321" x="53.328125" y="137.761299" style="stroke: #000000; stroke-width: 0.8"/>
      </g>
     </g>
     <g id="text_11">
      <!-- 600 -->
      <g transform="translate(27.240625 141.560517) scale(0.1 -0.1)">
       <defs>
        <path id="DejaVuSans-36" d="M 2113 2584 
Q 1688 2584 1439 2293 
Q 1191 2003 1191 1497 
Q 1191 994 1439 701 
Q 1688 409 2113 409 
Q 2538 409 2786 701 
Q 3034 994 3034 1497 
Q 3034 2003 2786 2293 
Q 2538 2584 2113 2584 
z
M 3366 4563 
L 3366 3988 
Q 3128 4100 2886 4159 
Q 2644 4219 2406 4219 
Q 1781 4219 1451 3797 
Q 1122 3375 1075 2522 
Q 1259 2794 1537 2939 
Q 1816 3084 2150 3084 
Q 2853 3084 3261 2657 
Q 3669 2231 3669 1497 
Q 3669 778 3244 343 
Q 2819 -91 2113 -91 
Q 1303 -91 875 529 
Q 447 1150 447 2328 
Q 447 3434 972 4092 
Q 1497 4750 2381 4750 
Q 2619 4750 2861 4703 
Q 3103 4656 3366 4563 
z
" transform="scale(0.015625)"/>
       </defs>
       <use xlink:href="#DejaVuSans-36"/>
       <use xlink:href="#DejaVuSans-30" transform="translate(63.623047 0)"/>
       <use xlink:href="#DejaVuSans-30" transform="translate(127.246094 0)"/>
      </g>
     </g>
    </g>
    <g id="ytick_5">
     <g id="line2d_11">
      <g>
       <use xlink:href="#mc17e836321" x="53.328125" y="101.749356" style="stroke: #000000; stroke-width: 0.8"/>
      </g>
     </g>
     <g id="text_12">
      <!-- 800 -->
      <g transform="translate(27.240625 105.548575) scale(0.1 -0.1)">
       <defs>
        <path id="DejaVuSans-38" d="M 2034 2216 
Q 1584 2216 1326 1975 
Q 1069 1734 1069 1313 
Q 1069 891 1326 650 
Q 1584 409 2034 409 
Q 2484 409 2743 651 
Q 3003 894 3003 1313 
Q 3003 1734 2745 1975 
Q 2488 2216 2034 2216 
z
M 1403 2484 
Q 997 2584 770 2862 
Q 544 3141 544 3541 
Q 544 4100 942 4425 
Q 1341 4750 2034 4750 
Q 2731 4750 3128 4425 
Q 3525 4100 3525 3541 
Q 3525 3141 3298 2862 
Q 3072 2584 2669 2484 
Q 3125 2378 3379 2068 
Q 3634 1759 3634 1313 
Q 3634 634 3220 271 
Q 2806 -91 2034 -91 
Q 1263 -91 848 271 
Q 434 634 434 1313 
Q 434 1759 690 2068 
Q 947 2378 1403 2484 
z
M 1172 3481 
Q 1172 3119 1398 2916 
Q 1625 2713 2034 2713 
Q 2441 2713 2670 2916 
Q 2900 3119 2900 3481 
Q 2900 3844 2670 4047 
Q 2441 4250 2034 4250 
Q 1625 4250 1398 4047 
Q 1172 3844 1172 3481 
z
" transform="scale(0.015625)"/>
       </defs>
       <use xlink:href="#DejaVuSans-38"/>
       <use xlink:href="#DejaVuSans-30" transform="translate(63.623047 0)"/>
       <use xlink:href="#DejaVuSans-30" transform="translate(127.246094 0)"/>
      </g>
     </g>
    </g>
    <g id="ytick_6">
     <g id="line2d_12">
      <g>
       <use xlink:href="#mc17e836321" x="53.328125" y="65.737413" style="stroke: #000000; stroke-width: 0.8"/>
      </g>
     </g>
     <g id="text_13">
      <!-- 1000 -->
      <g transform="translate(20.878125 69.536632) scale(0.1 -0.1)">
       <use xlink:href="#DejaVuSans-31"/>
       <use xlink:href="#DejaVuSans-30" transform="translate(63.623047 0)"/>
       <use xlink:href="#DejaVuSans-30" transform="translate(127.246094 0)"/>
       <use xlink:href="#DejaVuSans-30" transform="translate(190.869141 0)"/>
      </g>
     </g>
    </g>
    <g id="ytick_7">
     <g id="line2d_13">
      <g>
       <use xlink:href="#mc17e836321" x="53.328125" y="29.72547" style="stroke: #000000; stroke-width: 0.8"/>
      </g>
     </g>
     <g id="text_14">
      <!-- 1200 -->
      <g transform="translate(20.878125 33.524689) scale(0.1 -0.1)">
       <use xlink:href="#DejaVuSans-31"/>
       <use xlink:href="#DejaVuSans-32" transform="translate(63.623047 0)"/>
       <use xlink:href="#DejaVuSans-30" transform="translate(127.246094 0)"/>
       <use xlink:href="#DejaVuSans-30" transform="translate(190.869141 0)"/>
      </g>
     </g>
    </g>
    <g id="text_15">
     <!-- [counts] -->
     <g transform="translate(14.798438 152.791947) rotate(-90) scale(0.1 -0.1)">
      <defs>
       <path id="DejaVuSans-63" d="M 3122 3366 
L 3122 2828 
Q 2878 2963 2633 3030 
Q 2388 3097 2138 3097 
Q 1578 3097 1268 2742 
Q 959 2388 959 1747 
Q 959 1106 1268 751 
Q 1578 397 2138 397 
Q 2388 397 2633 464 
Q 2878 531 3122 666 
L 3122 134 
Q 2881 22 2623 -34 
Q 2366 -91 2075 -91 
Q 1284 -91 818 406 
Q 353 903 353 1747 
Q 353 2603 823 3093 
Q 1294 3584 2113 3584 
Q 2378 3584 2631 3529 
Q 2884 3475 3122 3366 
z
" transform="scale(0.015625)"/>
       <path id="DejaVuSans-6f" d="M 1959 3097 
Q 1497 3097 1228 2736 
Q 959 2375 959 1747 
Q 959 1119 1226 758 
Q 1494 397 1959 397 
Q 2419 397 2687 759 
Q 2956 1122 2956 1747 
Q 2956 2369 2687 2733 
Q 2419 3097 1959 3097 
z
M 1959 3584 
Q 2709 3584 3137 3096 
Q 3566 2609 3566 1747 
Q 3566 888 3137 398 
Q 2709 -91 1959 -91 
Q 1206 -91 779 398 
Q 353 888 353 1747 
Q 353 2609 779 3096 
Q 1206 3584 1959 3584 
z
" transform="scale(0.015625)"/>
       <path id="DejaVuSans-75" d="M 544 1381 
L 544 3500 
L 1119 3500 
L 1119 1403 
Q 1119 906 1312 657 
Q 1506 409 1894 409 
Q 2359 409 2629 706 
Q 2900 1003 2900 1516 
L 2900 3500 
L 3475 3500 
L 3475 0 
L 2900 0 
L 2900 538 
Q 2691 219 2414 64 
Q 2138 -91 1772 -91 
Q 1169 -91 856 284 
Q 544 659 544 1381 
z
M 1991 3584 
L 1991 3584 
z
" transform="scale(0.015625)"/>
       <path id="DejaVuSans-6e" d="M 3513 2113 
L 3513 0 
L 2938 0 
L 2938 2094 
Q 2938 2591 2744 2837 
Q 2550 3084 2163 3084 
Q 1697 3084 1428 2787 
Q 1159 2491 1159 1978 
L 1159 0 
L 581 0 
L 581 3500 
L 1159 3500 
L 1159 2956 
Q 1366 3272 1645 3428 
Q 1925 3584 2291 3584 
Q 2894 3584 3203 3211 
Q 3513 2838 3513 2113 
z
" transform="scale(0.015625)"/>
      </defs>
      <use xlink:href="#DejaVuSans-5b"/>
      <use xlink:href="#DejaVuSans-63" transform="translate(39.013672 0)"/>
      <use xlink:href="#DejaVuSans-6f" transform="translate(93.994141 0)"/>
      <use xlink:href="#DejaVuSans-75" transform="translate(155.175781 0)"/>
      <use xlink:href="#DejaVuSans-6e" transform="translate(218.554688 0)"/>
      <use xlink:href="#DejaVuSans-74" transform="translate(281.933594 0)"/>
      <use xlink:href="#DejaVuSans-73" transform="translate(321.142578 0)"/>
      <use xlink:href="#DejaVuSans-5d" transform="translate(373.242188 0)"/>
     </g>
    </g>
   </g>
   <g id="line2d_14">
    <path d="M 69.749563 235.713783 
L 70.844325 235.713783 
L 70.844325 228.151275 
L 71.939088 228.151275 
L 71.939088 222.389364 
L 73.033851 222.389364 
L 73.033851 214.646797 
L 74.128613 214.646797 
L 74.128613 200.602139 
L 75.223376 200.602139 
L 75.223376 196.100646 
L 76.318138 196.100646 
L 76.318138 185.117003 
L 77.412901 185.117003 
L 77.412901 180.615511 
L 78.507663 180.615511 
L 78.507663 168.911629 
L 79.602426 168.911629 
L 79.602426 170.172047 
L 80.697188 170.172047 
L 80.697188 154.326792 
L 81.791951 154.326792 
L 81.791951 143.34315 
L 82.886713 143.34315 
L 82.886713 138.481537 
L 83.981476 138.481537 
L 83.981476 140.282135 
L 85.076238 140.282135 
L 85.076238 128.038074 
L 86.171001 128.038074 
L 86.171001 131.999388 
L 87.265763 131.999388 
L 87.265763 127.137776 
L 88.360526 127.137776 
L 88.360526 121.555924 
L 89.455288 121.555924 
L 89.455288 110.212162 
L 90.550051 110.212162 
L 90.550051 115.073775 
L 91.644814 115.073775 
L 91.644814 103.549953 
L 92.739576 103.549953 
L 92.739576 106.610968 
L 93.834339 106.610968 
L 93.834339 96.347564 
L 94.929101 96.347564 
L 94.929101 99.04846 
L 96.023864 99.04846 
L 96.023864 86.44428 
L 97.118626 86.44428 
L 97.118626 92.386251 
L 98.213389 92.386251 
L 98.213389 85.543982 
L 99.308151 85.543982 
L 99.308151 82.843086 
L 100.402914 82.843086 
L 100.402914 83.563325 
L 101.497676 83.563325 
L 101.497676 81.762728 
L 102.592439 81.762728 
L 102.592439 64.837114 
L 103.687201 64.837114 
L 103.687201 70.238906 
L 104.781964 70.238906 
L 104.781964 69.338607 
L 105.876726 69.338607 
L 105.876726 68.618368 
L 106.971489 68.618368 
L 106.971489 68.258249 
L 108.066252 68.258249 
L 108.066252 70.599025 
L 109.161014 70.599025 
L 109.161014 63.576696 
L 110.255777 63.576696 
L 110.255777 68.078189 
L 111.350539 68.078189 
L 111.350539 66.457652 
L 112.445302 66.457652 
L 112.445302 71.679384 
L 113.540064 71.679384 
L 113.540064 62.316278 
L 114.634827 62.316278 
L 114.634827 53.853472 
L 115.729589 53.853472 
L 115.729589 54.033532 
L 116.824352 54.033532 
L 116.824352 63.576696 
L 117.919114 63.576696 
L 117.919114 49.171919 
L 119.013877 49.171919 
L 119.013877 58.895144 
L 120.108639 58.895144 
L 120.108639 52.773114 
L 121.203402 52.773114 
L 121.203402 43.410008 
L 122.298164 43.410008 
L 122.298164 47.731442 
L 123.392927 47.731442 
L 123.392927 51.872815 
L 124.487689 51.872815 
L 124.487689 58.535024 
L 125.582452 58.535024 
L 125.582452 52.593054 
L 126.677215 52.593054 
L 126.677215 43.049889 
L 127.771977 43.049889 
L 127.771977 53.313293 
L 128.86674 53.313293 
L 128.86674 48.45168 
L 129.961502 48.45168 
L 129.961502 50.252278 
L 131.056265 50.252278 
L 131.056265 49.532039 
L 132.151027 49.532039 
L 132.151027 40.709113 
L 133.24579 40.709113 
L 133.24579 50.612397 
L 134.340552 50.612397 
L 134.340552 48.99186 
L 135.435315 48.99186 
L 135.435315 36.20762 
L 136.530077 36.20762 
L 136.530077 38.188277 
L 137.62484 38.188277 
L 137.62484 48.271621 
L 138.719602 48.271621 
L 138.719602 47.911501 
L 139.814365 47.911501 
L 139.814365 44.310307 
L 140.909127 44.310307 
L 140.909127 54.75377 
L 142.00389 54.75377 
L 142.00389 39.448695 
L 143.098652 39.448695 
L 143.098652 42.32965 
L 144.193415 42.32965 
L 144.193415 48.99186 
L 145.288178 48.99186 
L 145.288178 44.130247 
L 146.38294 44.130247 
L 146.38294 34.767142 
L 147.477703 34.767142 
L 147.477703 46.290964 
L 148.572465 46.290964 
L 148.572465 46.831143 
L 149.667228 46.831143 
L 149.667228 48.63174 
L 150.76199 48.63174 
L 150.76199 37.648098 
L 151.856753 37.648098 
L 151.856753 36.747799 
L 152.951515 36.747799 
L 152.951515 40.889172 
L 154.046278 40.889172 
L 154.046278 31.886187 
L 155.14104 31.886187 
L 155.14104 41.069232 
L 156.235803 41.069232 
L 156.235803 38.188277 
L 157.330565 38.188277 
L 157.330565 44.670426 
L 158.425328 44.670426 
L 158.425328 50.432337 
L 159.52009 50.432337 
L 159.52009 29.545411 
L 160.614853 29.545411 
L 160.614853 42.68977 
L 161.709615 42.68977 
L 161.709615 45.750785 
L 162.804378 45.750785 
L 162.804378 39.808814 
L 163.899141 39.808814 
L 163.899141 42.14959 
L 164.993903 42.14959 
L 164.993903 42.68977 
L 166.088666 42.68977 
L 166.088666 38.728456 
L 167.183428 38.728456 
L 167.183428 36.567739 
L 168.278191 36.567739 
L 168.278191 38.008217 
L 169.372953 38.008217 
L 169.372953 25.404037 
L 170.467716 25.404037 
L 170.467716 47.911501 
L 171.562478 47.911501 
L 171.562478 25.764157 
L 172.657241 25.764157 
L 172.657241 41.609411 
L 173.752003 41.609411 
L 173.752003 35.847501 
L 174.846766 35.847501 
L 174.846766 31.165948 
L 175.941528 31.165948 
L 175.941528 44.130247 
L 177.036291 44.130247 
L 177.036291 29.185291 
L 178.131053 29.185291 
L 178.131053 38.008217 
L 179.225816 38.008217 
L 179.225816 38.548396 
L 180.320579 38.548396 
L 180.320579 36.02756 
L 181.415341 36.02756 
L 181.415341 39.448695 
L 182.510104 39.448695 
L 182.510104 34.407023 
L 183.604866 34.407023 
L 183.604866 36.567739 
L 184.699629 36.567739 
L 184.699629 32.606426 
L 185.794391 32.606426 
L 185.794391 33.686784 
L 186.889154 33.686784 
L 186.889154 49.712098 
L 187.983916 49.712098 
L 187.983916 41.429352 
L 189.078679 41.429352 
L 189.078679 32.786485 
L 190.173441 32.786485 
L 190.173441 39.088575 
L 191.268204 39.088575 
L 191.268204 32.426366 
L 192.362966 32.426366 
L 192.362966 39.988874 
L 193.457729 39.988874 
L 193.457729 39.448695 
L 194.552491 39.448695 
L 194.552491 20.362365 
L 195.647254 20.362365 
L 195.647254 36.02756 
L 196.742016 36.02756 
L 196.742016 37.107918 
L 197.836779 37.107918 
L 197.836779 43.770128 
L 198.931542 43.770128 
L 198.931542 34.587083 
L 200.026304 34.587083 
L 200.026304 50.612397 
L 201.121067 50.612397 
L 201.121067 41.429352 
L 202.215829 41.429352 
L 202.215829 33.866844 
L 203.310592 33.866844 
L 203.310592 33.506724 
L 204.405354 33.506724 
L 204.405354 34.407023 
L 205.500117 34.407023 
L 205.500117 33.146605 
L 206.594879 33.146605 
L 206.594879 50.792457 
L 207.689642 50.792457 
L 207.689642 45.030546 
L 208.784404 45.030546 
L 208.784404 26.124276 
L 209.879167 26.124276 
L 209.879167 29.72547 
L 210.973929 29.72547 
L 210.973929 39.088575 
L 212.068692 39.088575 
L 212.068692 30.265649 
L 213.163454 30.265649 
L 213.163454 42.50971 
L 214.258217 42.50971 
L 214.258217 46.110904 
L 215.352979 46.110904 
L 215.352979 37.828157 
L 216.447742 37.828157 
L 216.447742 27.024575 
L 217.542505 27.024575 
L 217.542505 37.107918 
L 219.73203 37.107918 
L 219.73203 38.368336 
L 220.826792 38.368336 
L 220.826792 37.828157 
L 221.921555 37.828157 
L 221.921555 42.869829 
L 224.11108 42.869829 
L 224.11108 40.529053 
L 225.205842 40.529053 
L 225.205842 37.468038 
L 226.300605 37.468038 
L 226.300605 43.229949 
L 227.395367 43.229949 
L 227.395367 43.410008 
L 228.49013 43.410008 
L 228.49013 44.310307 
L 229.584892 44.310307 
L 229.584892 41.609411 
L 230.679655 41.609411 
L 230.679655 42.50971 
L 231.774417 42.50971 
L 231.774417 42.68977 
L 232.86918 42.68977 
L 232.86918 47.191262 
L 233.963942 47.191262 
L 233.963942 38.008217 
L 235.058705 38.008217 
L 235.058705 40.348993 
L 236.153468 40.348993 
L 236.153468 18.561768 
L 237.24823 18.561768 
L 237.24823 27.024575 
L 238.342993 27.024575 
L 238.342993 37.107918 
L 239.437755 37.107918 
L 239.437755 32.966545 
L 240.532518 32.966545 
L 240.532518 39.088575 
L 241.62728 39.088575 
L 241.62728 41.429352 
L 242.722043 41.429352 
L 242.722043 26.844515 
L 243.816805 26.844515 
L 243.816805 51.152576 
L 244.911568 51.152576 
L 244.911568 36.747799 
L 246.00633 36.747799 
L 246.00633 31.165948 
L 247.101093 31.165948 
L 247.101093 33.866844 
L 248.195855 33.866844 
L 248.195855 27.924873 
L 249.290618 27.924873 
L 249.290618 42.32965 
L 250.38538 42.32965 
L 250.38538 36.02756 
L 251.480143 36.02756 
L 251.480143 34.947202 
L 252.574906 34.947202 
L 252.574906 37.107918 
L 253.669668 37.107918 
L 253.669668 39.448695 
L 254.764431 39.448695 
L 254.764431 41.429352 
L 255.859193 41.429352 
L 255.859193 27.924873 
L 256.953956 27.924873 
L 256.953956 32.786485 
L 258.048718 32.786485 
L 258.048718 38.548396 
L 259.143481 38.548396 
L 259.143481 56.014188 
L 260.238243 56.014188 
L 260.238243 46.471024 
L 261.333006 46.471024 
L 261.333006 70.599025 
L 262.427768 70.599025 
L 262.427768 76.901115 
L 263.522531 76.901115 
L 263.522531 81.042489 
L 264.617293 81.042489 
L 264.617293 95.987445 
L 265.712056 95.987445 
L 265.712056 97.968102 
L 266.806818 97.968102 
L 266.806818 106.430908 
L 267.901581 106.430908 
L 267.901581 122.456223 
L 268.996343 122.456223 
L 268.996343 116.154133 
L 270.091106 116.154133 
L 270.091106 130.37885 
L 271.185869 130.37885 
L 271.185869 136.500881 
L 272.280631 136.500881 
L 272.280631 133.980045 
L 273.375394 133.980045 
L 273.375394 146.224105 
L 274.470156 146.224105 
L 274.470156 156.307449 
L 275.564919 156.307449 
L 275.564919 164.230077 
L 276.659681 164.230077 
L 276.659681 166.750913 
L 277.754444 166.750913 
L 277.754444 169.631868 
L 278.849206 169.631868 
L 278.849206 170.352107 
L 279.943969 170.352107 
L 279.943969 177.914615 
L 281.038731 177.914615 
L 281.038731 179.355093 
L 282.133494 179.355093 
L 282.133494 181.515809 
L 283.228256 181.515809 
L 283.228256 183.316406 
L 284.323019 183.316406 
L 284.323019 192.499452 
L 285.417781 192.499452 
L 285.417781 193.039631 
L 286.512544 193.039631 
L 286.512544 196.640825 
L 287.607306 196.640825 
L 287.607306 193.219691 
L 288.702069 193.219691 
L 288.702069 201.862557 
L 289.796832 201.862557 
L 289.796832 204.563453 
L 290.891594 204.563453 
L 290.891594 205.103632 
L 291.986357 205.103632 
L 291.986357 202.402736 
L 293.081119 202.402736 
L 293.081119 208.704826 
L 294.175882 208.704826 
L 294.175882 210.145304 
L 295.270644 210.145304 
L 295.270644 211.945901 
L 296.365407 211.945901 
L 296.365407 216.807513 
L 297.460169 216.807513 
L 297.460169 219.328349 
L 298.554932 219.328349 
L 298.554932 216.627453 
L 299.649694 216.627453 
L 299.649694 217.707812 
L 300.744457 217.707812 
L 300.744457 216.447394 
L 301.839219 216.447394 
L 301.839219 218.96823 
L 302.933982 218.96823 
L 302.933982 222.749484 
L 304.028744 222.749484 
L 304.028744 225.630439 
L 305.123507 225.630439 
L 305.123507 223.109603 
L 306.218269 223.109603 
L 306.218269 227.791156 
L 307.313032 227.791156 
L 307.313032 227.611096 
L 308.407795 227.611096 
L 308.407795 228.511394 
L 309.502557 228.511394 
L 309.502557 225.27032 
L 310.59732 225.27032 
L 310.59732 230.672111 
L 311.692082 230.672111 
L 311.692082 232.832828 
L 312.786845 232.832828 
L 312.786845 232.112589 
L 313.881607 232.112589 
L 313.881607 231.03223 
L 314.97637 231.03223 
L 314.97637 232.472708 
L 316.071132 232.472708 
L 316.071132 233.733126 
L 317.165895 233.733126 
L 317.165895 236.794141 
L 318.260657 236.794141 
L 318.260657 237.154261 
L 319.35542 237.154261 
L 319.35542 233.192947 
L 320.450182 233.192947 
L 320.450182 234.813484 
L 321.544945 234.813484 
L 321.544945 240.035216 
L 322.639707 240.035216 
L 322.639707 237.51438 
L 323.73447 237.51438 
L 323.73447 237.69444 
L 324.829233 237.69444 
L 324.829233 234.993544 
L 325.923995 234.993544 
L 325.923995 236.974201 
L 327.018758 236.974201 
L 327.018758 238.414679 
L 328.11352 238.414679 
L 328.11352 238.954858 
L 329.208283 238.954858 
L 329.208283 238.054559 
L 330.303045 238.054559 
L 330.303045 237.69444 
L 331.397808 237.69444 
L 331.397808 239.314977 
L 332.49257 239.314977 
L 332.49257 240.395336 
L 333.587333 240.395336 
L 333.587333 240.575395 
L 334.682095 240.575395 
L 334.682095 242.015873 
L 335.776858 242.015873 
L 335.776858 241.835813 
L 336.87162 241.835813 
L 336.87162 239.314977 
L 337.966383 239.314977 
L 337.966383 241.835813 
L 339.061145 241.835813 
L 339.061145 240.395336 
L 340.155908 240.395336 
L 340.155908 242.375992 
L 341.25067 242.375992 
L 341.25067 242.736112 
L 342.345433 242.736112 
L 342.345433 240.575395 
L 343.440196 240.575395 
L 343.440196 244.716769 
L 344.534958 244.716769 
L 344.534958 243.63641 
L 345.629721 243.63641 
L 345.629721 241.115574 
L 346.724483 241.115574 
L 346.724483 243.276291 
L 348.914008 243.276291 
L 348.914008 244.17659 
L 350.008771 244.17659 
L 350.008771 244.536709 
L 352.198296 244.536709 
L 352.198296 242.195933 
L 353.293058 242.195933 
L 353.293058 243.456351 
L 354.387821 243.456351 
L 354.387821 243.63641 
L 355.482583 243.63641 
L 355.482583 243.81647 
L 356.577346 243.81647 
L 356.577346 244.356649 
L 357.672108 244.356649 
L 357.672108 243.63641 
L 358.766871 243.63641 
L 358.766871 244.356649 
L 359.861633 244.356649 
L 359.861633 244.716769 
L 360.956396 244.716769 
L 360.956396 244.356649 
L 362.051159 244.356649 
L 362.051159 243.81647 
L 364.240684 243.81647 
L 364.240684 245.076888 
L 365.335446 245.076888 
L 365.335446 244.536709 
L 366.430209 244.536709 
L 366.430209 245.076888 
L 368.619734 245.076888 
L 368.619734 244.356649 
L 369.714496 244.356649 
L 369.714496 244.536709 
L 370.809259 244.536709 
L 370.809259 245.076888 
L 371.904021 245.076888 
L 371.904021 245.617067 
L 372.998784 245.617067 
L 372.998784 245.437008 
L 374.093546 245.437008 
L 374.093546 244.356649 
L 375.188309 244.356649 
L 375.188309 244.716769 
L 376.283071 244.716769 
L 376.283071 245.437008 
L 377.377834 245.437008 
L 377.377834 245.256948 
L 378.472596 245.256948 
L 378.472596 244.716769 
L 379.567359 244.716769 
L 379.567359 245.256948 
L 381.756884 245.256948 
L 381.756884 245.076888 
L 382.851647 245.076888 
L 382.851647 245.256948 
L 383.946409 245.256948 
L 383.946409 245.437008 
L 385.041172 245.437008 
L 385.041172 245.617067 
L 386.135934 245.617067 
L 386.135934 245.256948 
L 388.325459 245.256948 
L 388.325459 245.076888 
L 389.420222 245.076888 
L 389.420222 245.256948 
L 391.609747 245.256948 
L 391.609747 245.617067 
L 394.894034 245.617067 
L 394.894034 245.437008 
L 395.988797 245.437008 
L 395.988797 245.797127 
L 397.08356 245.797127 
L 397.08356 245.437008 
L 398.178322 245.437008 
L 398.178322 245.437008 
" clip-path="url(#p8e7b468a2c)" style="fill: none; stroke: #1f77b4; stroke-width: 1.5; stroke-linecap: square"/>
   </g>
   <g id="patch_3">
    <path d="M 53.328125 257.158895 
L 53.328125 7.2 
" style="fill: none; stroke: #000000; stroke-width: 0.8; stroke-linejoin: miter; stroke-linecap: square"/>
   </g>
   <g id="patch_4">
    <path d="M 414.59976 257.158895 
L 414.59976 7.2 
" style="fill: none; stroke: #000000; stroke-width: 0.8; stroke-linejoin: miter; stroke-linecap: square"/>
   </g>
   <g id="patch_5">
    <path d="M 53.328125 257.158895 
L 414.59976 257.158895 
" style="fill: none; stroke: #000000; stroke-width: 0.8; stroke-linejoin: miter; stroke-linecap: square"/>
   </g>
   <g id="patch_6">
    <path d="M 53.328125 7.2 
L 414.59976 7.2 
" style="fill: none; stroke: #000000; stroke-width: 0.8; stroke-linejoin: miter; stroke-linecap: square"/>
   </g>
  </g>
  <g id="axes_2">
   <g id="patch_7">
    <path d="M 503.927885 257.158895 
L 865.19952 257.158895 
L 865.19952 7.2 
L 503.927885 7.2 
z
" style="fill: #ffffff"/>
   </g>
   <g id="matplotlib.axis_3">
    <g id="xtick_7">
     <g id="line2d_15">
      <g>
       <use xlink:href="#m008533497a" x="517.034209" y="257.158895" style="stroke: #000000; stroke-width: 0.8"/>
      </g>
     </g>
     <g id="text_16">
      <!-- 0.0 -->
      <g transform="translate(509.082646 271.757332) scale(0.1 -0.1)">
       <defs>
        <path id="DejaVuSans-2e" d="M 684 794 
L 1344 794 
L 1344 0 
L 684 0 
L 684 794 
z
" transform="scale(0.015625)"/>
       </defs>
       <use xlink:href="#DejaVuSans-30"/>
       <use xlink:href="#DejaVuSans-2e" transform="translate(63.623047 0)"/>
       <use xlink:href="#DejaVuSans-30" transform="translate(95.410156 0)"/>
      </g>
     </g>
    </g>
    <g id="xtick_8">
     <g id="line2d_16">
      <g>
       <use xlink:href="#m008533497a" x="558.778802" y="257.158895" style="stroke: #000000; stroke-width: 0.8"/>
      </g>
     </g>
     <g id="text_17">
      <!-- 2.5 -->
      <g transform="translate(550.827239 271.757332) scale(0.1 -0.1)">
       <use xlink:href="#DejaVuSans-32"/>
       <use xlink:href="#DejaVuSans-2e" transform="translate(63.623047 0)"/>
       <use xlink:href="#DejaVuSans-35" transform="translate(95.410156 0)"/>
      </g>
     </g>
    </g>
    <g id="xtick_9">
     <g id="line2d_17">
      <g>
       <use xlink:href="#m008533497a" x="600.523394" y="257.158895" style="stroke: #000000; stroke-width: 0.8"/>
      </g>
     </g>
     <g id="text_18">
      <!-- 5.0 -->
      <g transform="translate(592.571832 271.757332) scale(0.1 -0.1)">
       <use xlink:href="#DejaVuSans-35"/>
       <use xlink:href="#DejaVuSans-2e" transform="translate(63.623047 0)"/>
       <use xlink:href="#DejaVuSans-30" transform="translate(95.410156 0)"/>
      </g>
     </g>
    </g>
    <g id="xtick_10">
     <g id="line2d_18">
      <g>
       <use xlink:href="#m008533497a" x="642.267987" y="257.158895" style="stroke: #000000; stroke-width: 0.8"/>
      </g>
     </g>
     <g id="text_19">
      <!-- 7.5 -->
      <g transform="translate(634.316425 271.757332) scale(0.1 -0.1)">
       <defs>
        <path id="DejaVuSans-37" d="M 525 4666 
L 3525 4666 
L 3525 4397 
L 1831 0 
L 1172 0 
L 2766 4134 
L 525 4134 
L 525 4666 
z
" transform="scale(0.015625)"/>
       </defs>
       <use xlink:href="#DejaVuSans-37"/>
       <use xlink:href="#DejaVuSans-2e" transform="translate(63.623047 0)"/>
       <use xlink:href="#DejaVuSans-35" transform="translate(95.410156 0)"/>
      </g>
     </g>
    </g>
    <g id="xtick_11">
     <g id="line2d_19">
      <g>
       <use xlink:href="#m008533497a" x="684.01258" y="257.158895" style="stroke: #000000; stroke-width: 0.8"/>
      </g>
     </g>
     <g id="text_20">
      <!-- 10.0 -->
      <g transform="translate(672.879767 271.757332) scale(0.1 -0.1)">
       <use xlink:href="#DejaVuSans-31"/>
       <use xlink:href="#DejaVuSans-30" transform="translate(63.623047 0)"/>
       <use xlink:href="#DejaVuSans-2e" transform="translate(127.246094 0)"/>
       <use xlink:href="#DejaVuSans-30" transform="translate(159.033203 0)"/>
      </g>
     </g>
    </g>
    <g id="xtick_12">
     <g id="line2d_20">
      <g>
       <use xlink:href="#m008533497a" x="725.757173" y="257.158895" style="stroke: #000000; stroke-width: 0.8"/>
      </g>
     </g>
     <g id="text_21">
      <!-- 12.5 -->
      <g transform="translate(714.62436 271.757332) scale(0.1 -0.1)">
       <use xlink:href="#DejaVuSans-31"/>
       <use xlink:href="#DejaVuSans-32" transform="translate(63.623047 0)"/>
       <use xlink:href="#DejaVuSans-2e" transform="translate(127.246094 0)"/>
       <use xlink:href="#DejaVuSans-35" transform="translate(159.033203 0)"/>
      </g>
     </g>
    </g>
    <g id="xtick_13">
     <g id="line2d_21">
      <g>
       <use xlink:href="#m008533497a" x="767.501765" y="257.158895" style="stroke: #000000; stroke-width: 0.8"/>
      </g>
     </g>
     <g id="text_22">
      <!-- 15.0 -->
      <g transform="translate(756.368953 271.757332) scale(0.1 -0.1)">
       <use xlink:href="#DejaVuSans-31"/>
       <use xlink:href="#DejaVuSans-35" transform="translate(63.623047 0)"/>
       <use xlink:href="#DejaVuSans-2e" transform="translate(127.246094 0)"/>
       <use xlink:href="#DejaVuSans-30" transform="translate(159.033203 0)"/>
      </g>
     </g>
    </g>
    <g id="xtick_14">
     <g id="line2d_22">
      <g>
       <use xlink:href="#m008533497a" x="809.246358" y="257.158895" style="stroke: #000000; stroke-width: 0.8"/>
      </g>
     </g>
     <g id="text_23">
      <!-- 17.5 -->
      <g transform="translate(798.113546 271.757332) scale(0.1 -0.1)">
       <use xlink:href="#DejaVuSans-31"/>
       <use xlink:href="#DejaVuSans-37" transform="translate(63.623047 0)"/>
       <use xlink:href="#DejaVuSans-2e" transform="translate(127.246094 0)"/>
       <use xlink:href="#DejaVuSans-35" transform="translate(159.033203 0)"/>
      </g>
     </g>
    </g>
    <g id="xtick_15">
     <g id="line2d_23">
      <g>
       <use xlink:href="#m008533497a" x="850.990951" y="257.158895" style="stroke: #000000; stroke-width: 0.8"/>
      </g>
     </g>
     <g id="text_24">
      <!-- 20.0 -->
      <g transform="translate(839.858138 271.757332) scale(0.1 -0.1)">
       <use xlink:href="#DejaVuSans-32"/>
       <use xlink:href="#DejaVuSans-30" transform="translate(63.623047 0)"/>
       <use xlink:href="#DejaVuSans-2e" transform="translate(127.246094 0)"/>
       <use xlink:href="#DejaVuSans-30" transform="translate(159.033203 0)"/>
      </g>
     </g>
    </g>
    <g id="text_25">
     <!-- wavelength [Å] -->
     <g transform="translate(646.526202 287.119832) scale(0.1 -0.1)">
      <defs>
       <path id="DejaVuSans-77" d="M 269 3500 
L 844 3500 
L 1563 769 
L 2278 3500 
L 2956 3500 
L 3675 769 
L 4391 3500 
L 4966 3500 
L 4050 0 
L 3372 0 
L 2619 2869 
L 1863 0 
L 1184 0 
L 269 3500 
z
" transform="scale(0.015625)"/>
       <path id="DejaVuSans-61" d="M 2194 1759 
Q 1497 1759 1228 1600 
Q 959 1441 959 1056 
Q 959 750 1161 570 
Q 1363 391 1709 391 
Q 2188 391 2477 730 
Q 2766 1069 2766 1631 
L 2766 1759 
L 2194 1759 
z
M 3341 1997 
L 3341 0 
L 2766 0 
L 2766 531 
Q 2569 213 2275 61 
Q 1981 -91 1556 -91 
Q 1019 -91 701 211 
Q 384 513 384 1019 
Q 384 1609 779 1909 
Q 1175 2209 1959 2209 
L 2766 2209 
L 2766 2266 
Q 2766 2663 2505 2880 
Q 2244 3097 1772 3097 
Q 1472 3097 1187 3025 
Q 903 2953 641 2809 
L 641 3341 
Q 956 3463 1253 3523 
Q 1550 3584 1831 3584 
Q 2591 3584 2966 3190 
Q 3341 2797 3341 1997 
z
" transform="scale(0.015625)"/>
       <path id="DejaVuSans-76" d="M 191 3500 
L 800 3500 
L 1894 563 
L 2988 3500 
L 3597 3500 
L 2284 0 
L 1503 0 
L 191 3500 
z
" transform="scale(0.015625)"/>
       <path id="DejaVuSans-6c" d="M 603 4863 
L 1178 4863 
L 1178 0 
L 603 0 
L 603 4863 
z
" transform="scale(0.015625)"/>
       <path id="DejaVuSans-67" d="M 2906 1791 
Q 2906 2416 2648 2759 
Q 2391 3103 1925 3103 
Q 1463 3103 1205 2759 
Q 947 2416 947 1791 
Q 947 1169 1205 825 
Q 1463 481 1925 481 
Q 2391 481 2648 825 
Q 2906 1169 2906 1791 
z
M 3481 434 
Q 3481 -459 3084 -895 
Q 2688 -1331 1869 -1331 
Q 1566 -1331 1297 -1286 
Q 1028 -1241 775 -1147 
L 775 -588 
Q 1028 -725 1275 -790 
Q 1522 -856 1778 -856 
Q 2344 -856 2625 -561 
Q 2906 -266 2906 331 
L 2906 616 
Q 2728 306 2450 153 
Q 2172 0 1784 0 
Q 1141 0 747 490 
Q 353 981 353 1791 
Q 353 2603 747 3093 
Q 1141 3584 1784 3584 
Q 2172 3584 2450 3431 
Q 2728 3278 2906 2969 
L 2906 3500 
L 3481 3500 
L 3481 434 
z
" transform="scale(0.015625)"/>
       <path id="DejaVuSans-c5" d="M 2663 5081 
Q 2663 5278 2523 5417 
Q 2384 5556 2188 5556 
Q 1988 5556 1852 5420 
Q 1716 5284 1716 5081 
Q 1716 4884 1853 4746 
Q 1991 4609 2188 4609 
Q 2384 4609 2523 4746 
Q 2663 4884 2663 5081 
z
M 2188 4044 
L 1338 1722 
L 3041 1722 
L 2188 4044 
z
M 1716 4366 
Q 1525 4494 1428 4673 
Q 1331 4853 1331 5081 
Q 1331 5441 1579 5691 
Q 1828 5941 2188 5941 
Q 2544 5941 2795 5689 
Q 3047 5438 3047 5081 
Q 3047 4863 2948 4678 
Q 2850 4494 2663 4366 
L 4325 0 
L 3669 0 
L 3244 1197 
L 1141 1197 
L 716 0 
L 50 0 
L 1716 4366 
z
" transform="scale(0.015625)"/>
      </defs>
      <use xlink:href="#DejaVuSans-77"/>
      <use xlink:href="#DejaVuSans-61" transform="translate(81.787109 0)"/>
      <use xlink:href="#DejaVuSans-76" transform="translate(143.066406 0)"/>
      <use xlink:href="#DejaVuSans-65" transform="translate(202.246094 0)"/>
      <use xlink:href="#DejaVuSans-6c" transform="translate(263.769531 0)"/>
      <use xlink:href="#DejaVuSans-65" transform="translate(291.552734 0)"/>
      <use xlink:href="#DejaVuSans-6e" transform="translate(353.076172 0)"/>
      <use xlink:href="#DejaVuSans-67" transform="translate(416.455078 0)"/>
      <use xlink:href="#DejaVuSans-74" transform="translate(479.931641 0)"/>
      <use xlink:href="#DejaVuSans-68" transform="translate(519.140625 0)"/>
      <use xlink:href="#DejaVuSans-20" transform="translate(582.519531 0)"/>
      <use xlink:href="#DejaVuSans-5b" transform="translate(614.306641 0)"/>
      <use xlink:href="#DejaVuSans-c5" transform="translate(653.320312 0)"/>
      <use xlink:href="#DejaVuSans-5d" transform="translate(721.728516 0)"/>
     </g>
    </g>
   </g>
   <g id="matplotlib.axis_4">
    <g id="ytick_8">
     <g id="line2d_24">
      <g>
       <use xlink:href="#mc17e836321" x="503.927885" y="245.797127" style="stroke: #000000; stroke-width: 0.8"/>
      </g>
     </g>
     <g id="text_26">
      <!-- 0 -->
      <g transform="translate(490.565385 249.596346) scale(0.1 -0.1)">
       <use xlink:href="#DejaVuSans-30"/>
      </g>
     </g>
    </g>
    <g id="ytick_9">
     <g id="line2d_25">
      <g>
       <use xlink:href="#mc17e836321" x="503.927885" y="193.523062" style="stroke: #000000; stroke-width: 0.8"/>
      </g>
     </g>
     <g id="text_27">
      <!-- 1000 -->
      <g transform="translate(471.477885 197.322281) scale(0.1 -0.1)">
       <use xlink:href="#DejaVuSans-31"/>
       <use xlink:href="#DejaVuSans-30" transform="translate(63.623047 0)"/>
       <use xlink:href="#DejaVuSans-30" transform="translate(127.246094 0)"/>
       <use xlink:href="#DejaVuSans-30" transform="translate(190.869141 0)"/>
      </g>
     </g>
    </g>
    <g id="ytick_10">
     <g id="line2d_26">
      <g>
       <use xlink:href="#mc17e836321" x="503.927885" y="141.248998" style="stroke: #000000; stroke-width: 0.8"/>
      </g>
     </g>
     <g id="text_28">
      <!-- 2000 -->
      <g transform="translate(471.477885 145.048216) scale(0.1 -0.1)">
       <use xlink:href="#DejaVuSans-32"/>
       <use xlink:href="#DejaVuSans-30" transform="translate(63.623047 0)"/>
       <use xlink:href="#DejaVuSans-30" transform="translate(127.246094 0)"/>
       <use xlink:href="#DejaVuSans-30" transform="translate(190.869141 0)"/>
      </g>
     </g>
    </g>
    <g id="ytick_11">
     <g id="line2d_27">
      <g>
       <use xlink:href="#mc17e836321" x="503.927885" y="88.974933" style="stroke: #000000; stroke-width: 0.8"/>
      </g>
     </g>
     <g id="text_29">
      <!-- 3000 -->
      <g transform="translate(471.477885 92.774152) scale(0.1 -0.1)">
       <use xlink:href="#DejaVuSans-33"/>
       <use xlink:href="#DejaVuSans-30" transform="translate(63.623047 0)"/>
       <use xlink:href="#DejaVuSans-30" transform="translate(127.246094 0)"/>
       <use xlink:href="#DejaVuSans-30" transform="translate(190.869141 0)"/>
      </g>
     </g>
    </g>
    <g id="ytick_12">
     <g id="line2d_28">
      <g>
       <use xlink:href="#mc17e836321" x="503.927885" y="36.700868" style="stroke: #000000; stroke-width: 0.8"/>
      </g>
     </g>
     <g id="text_30">
      <!-- 4000 -->
      <g transform="translate(471.477885 40.500087) scale(0.1 -0.1)">
       <use xlink:href="#DejaVuSans-34"/>
       <use xlink:href="#DejaVuSans-30" transform="translate(63.623047 0)"/>
       <use xlink:href="#DejaVuSans-30" transform="translate(127.246094 0)"/>
       <use xlink:href="#DejaVuSans-30" transform="translate(190.869141 0)"/>
      </g>
     </g>
    </g>
    <g id="text_31">
     <!-- [counts] -->
     <g transform="translate(465.398197 152.791947) rotate(-90) scale(0.1 -0.1)">
      <use xlink:href="#DejaVuSans-5b"/>
      <use xlink:href="#DejaVuSans-63" transform="translate(39.013672 0)"/>
      <use xlink:href="#DejaVuSans-6f" transform="translate(93.994141 0)"/>
      <use xlink:href="#DejaVuSans-75" transform="translate(155.175781 0)"/>
      <use xlink:href="#DejaVuSans-6e" transform="translate(218.554688 0)"/>
      <use xlink:href="#DejaVuSans-74" transform="translate(281.933594 0)"/>
      <use xlink:href="#DejaVuSans-73" transform="translate(321.142578 0)"/>
      <use xlink:href="#DejaVuSans-5d" transform="translate(373.242188 0)"/>
     </g>
    </g>
   </g>
   <g id="line2d_29">
    <path d="M 520.349323 152.644744 
L 521.444085 152.644744 
L 521.444085 149.037833 
L 522.538848 149.037833 
L 522.538848 140.778531 
L 523.633611 140.778531 
L 523.633611 138.58302 
L 524.728373 138.58302 
L 524.728373 147.208241 
L 525.823136 147.208241 
L 525.823136 157.976698 
L 526.917898 157.976698 
L 526.917898 151.703811 
L 528.012661 151.703811 
L 528.012661 125.409956 
L 529.107423 125.409956 
L 529.107423 104.50033 
L 530.202186 104.50033 
L 530.202186 81.813386 
L 531.296948 81.813386 
L 531.296948 64.824315 
L 532.391711 64.824315 
L 532.391711 36.230402 
L 533.486473 36.230402 
L 533.486473 22.273227 
L 534.581236 22.273227 
L 534.581236 26.873344 
L 535.675998 26.873344 
L 535.675998 18.561768 
L 536.770761 18.561768 
L 536.770761 21.698212 
L 537.865523 21.698212 
L 537.865523 33.51215 
L 538.960286 33.51215 
L 538.960286 47.364778 
L 540.055048 47.364778 
L 540.055048 53.846762 
L 541.149811 53.846762 
L 541.149811 61.374227 
L 542.244574 61.374227 
L 542.244574 75.958691 
L 543.339336 75.958691 
L 543.339336 76.951898 
L 544.434099 76.951898 
L 544.434099 85.315749 
L 545.528861 85.315749 
L 545.528861 94.829628 
L 546.623624 94.829628 
L 546.623624 95.038725 
L 547.718386 95.038725 
L 547.718386 98.175168 
L 548.813149 98.175168 
L 548.813149 97.129687 
L 549.907911 97.129687 
L 549.907911 100.736598 
L 551.002674 100.736598 
L 551.002674 92.215925 
L 552.097436 92.215925 
L 552.097436 88.399918 
L 553.192199 88.399918 
L 553.192199 79.565601 
L 554.286961 79.565601 
L 554.286961 69.528981 
L 555.381724 69.528981 
L 555.381724 61.949242 
L 556.476486 61.949242 
L 556.476486 55.205887 
L 557.571249 55.205887 
L 557.571249 47.78297 
L 558.666012 47.78297 
L 558.666012 35.341743 
L 559.760774 35.341743 
L 559.760774 37.119061 
L 560.855537 37.119061 
L 560.855537 44.123786 
L 561.950299 44.123786 
L 561.950299 50.553496 
L 563.045062 50.553496 
L 563.045062 59.021894 
L 564.139824 59.021894 
L 564.139824 73.867728 
L 565.234587 73.867728 
L 565.234587 85.577119 
L 566.329349 85.577119 
L 566.329349 89.915866 
L 567.424112 89.915866 
L 567.424112 93.104584 
L 568.518874 93.104584 
L 568.518874 104.186686 
L 569.613637 104.186686 
L 569.613637 114.484677 
L 570.708399 114.484677 
L 570.708399 119.450713 
L 571.803162 119.450713 
L 571.803162 124.887215 
L 572.897924 124.887215 
L 572.897924 129.853252 
L 573.992687 129.853252 
L 573.992687 140.25579 
L 575.087449 140.25579 
L 575.087449 144.385442 
L 576.182212 144.385442 
L 576.182212 145.483197 
L 577.276975 145.483197 
L 577.276975 153.481129 
L 578.371737 153.481129 
L 578.371737 157.976698 
L 579.4665 157.976698 
L 579.4665 162.001801 
L 580.561262 162.001801 
L 580.561262 165.97463 
L 581.656025 165.97463 
L 581.656025 171.620229 
L 582.750787 171.620229 
L 582.750787 175.48851 
L 583.84555 175.48851 
L 583.84555 177.788569 
L 584.940312 177.788569 
L 584.940312 179.774983 
L 586.035075 179.774983 
L 586.035075 182.702331 
L 587.129837 182.702331 
L 587.129837 182.911427 
L 588.2246 182.911427 
L 588.2246 190.177522 
L 589.319362 190.177522 
L 589.319362 191.013907 
L 590.414125 191.013907 
L 590.414125 195.927669 
L 591.508887 195.927669 
L 591.508887 197.495891 
L 592.60365 197.495891 
L 592.60365 197.966358 
L 593.698412 197.966358 
L 593.698412 199.116387 
L 594.793175 199.116387 
L 594.793175 202.305105 
L 595.887938 202.305105 
L 595.887938 202.932394 
L 596.9827 202.932394 
L 596.9827 206.121112 
L 598.077463 206.121112 
L 598.077463 209.466652 
L 599.172225 209.466652 
L 599.172225 209.780296 
L 600.266988 209.780296 
L 600.266988 210.041667 
L 601.36175 210.041667 
L 601.36175 212.91674 
L 602.456513 212.91674 
L 602.456513 213.125837 
L 603.551275 213.125837 
L 603.551275 215.634992 
L 604.646038 215.634992 
L 604.646038 219.241902 
L 605.7408 219.241902 
L 605.7408 220.339658 
L 606.835563 220.339658 
L 606.835563 218.666887 
L 607.930325 218.666887 
L 607.930325 220.339658 
L 609.025088 220.339658 
L 609.025088 221.907879 
L 610.11985 221.907879 
L 610.11985 219.921465 
L 611.214613 219.921465 
L 611.214613 223.319279 
L 612.309375 223.319279 
L 612.309375 225.932982 
L 614.498901 225.985257 
L 614.498901 225.567064 
L 616.688426 225.619338 
L 616.688426 226.246627 
L 617.783188 226.246627 
L 617.783188 229.1217 
L 618.877951 229.1217 
L 618.877951 229.801263 
L 619.972713 229.801263 
L 619.972713 229.173974 
L 621.067476 229.173974 
L 621.067476 230.585374 
L 622.162238 230.585374 
L 622.162238 228.703508 
L 623.257001 228.703508 
L 623.257001 230.846745 
L 624.351763 230.846745 
L 624.351763 231.68313 
L 625.446526 231.68313 
L 625.446526 232.780885 
L 627.636051 232.885433 
L 627.636051 232.153596 
L 628.730813 232.153596 
L 628.730813 233.564996 
L 630.920339 233.61727 
L 630.920339 234.140011 
L 632.015101 234.140011 
L 632.015101 234.505929 
L 633.109864 234.505929 
L 633.109864 234.192285 
L 634.204626 234.192285 
L 634.204626 234.558203 
L 635.299389 234.558203 
L 635.299389 234.715025 
L 636.394151 234.715025 
L 636.394151 237.328729 
L 637.488914 237.328729 
L 637.488914 236.283247 
L 638.583676 236.283247 
L 638.583676 237.015084 
L 639.678439 237.015084 
L 639.678439 238.37421 
L 640.773201 238.37421 
L 640.773201 236.649166 
L 641.867964 236.649166 
L 641.867964 238.321936 
L 642.962726 238.321936 
L 642.962726 237.590099 
L 644.057489 237.590099 
L 644.057489 237.799195 
L 645.152251 237.799195 
L 645.152251 238.478758 
L 646.247014 238.478758 
L 646.247014 239.210595 
L 647.341776 239.210595 
L 647.341776 239.053773 
L 648.436539 239.053773 
L 648.436539 239.315143 
L 649.531302 239.315143 
L 649.531302 238.740128 
L 650.626064 238.740128 
L 650.626064 239.315143 
L 651.720827 239.315143 
L 651.720827 240.203802 
L 652.815589 240.203802 
L 652.815589 239.315143 
L 653.910352 239.315143 
L 653.910352 240.30835 
L 656.099877 240.203802 
L 656.099877 239.053773 
L 657.194639 239.053773 
L 657.194639 240.465172 
L 659.384164 240.517447 
L 659.384164 240.674269 
L 660.478927 240.674269 
L 660.478927 241.040187 
L 661.573689 241.040187 
L 661.573689 241.667476 
L 662.668452 241.667476 
L 662.668452 241.249283 
L 663.763214 241.249283 
L 663.763214 242.503861 
L 664.857977 242.503861 
L 664.857977 242.347039 
L 667.047502 242.347039 
L 667.047502 241.667476 
L 668.142265 241.667476 
L 668.142265 242.033394 
L 669.237027 242.033394 
L 669.237027 242.503861 
L 670.33179 242.503861 
L 670.33179 242.765231 
L 672.521315 242.712957 
L 672.521315 242.190217 
L 673.616077 242.190217 
L 673.616077 242.451587 
L 674.71084 242.451587 
L 674.71084 243.706164 
L 675.805602 243.706164 
L 675.805602 242.765231 
L 676.900365 242.765231 
L 676.900365 243.026602 
L 677.995127 243.026602 
L 677.995127 242.817505 
L 680.184652 242.922053 
L 680.184652 243.026602 
L 684.563702 242.922053 
L 684.563702 243.65389 
L 685.658465 243.65389 
L 685.658465 243.183424 
L 686.753228 243.183424 
L 686.753228 243.601616 
L 687.84799 243.601616 
L 687.84799 242.347039 
L 688.942753 242.347039 
L 688.942753 243.810713 
L 693.321803 243.915261 
L 693.321803 244.333453 
L 694.416565 244.333453 
L 694.416565 243.706164 
L 695.511328 243.706164 
L 695.511328 244.333453 
L 696.60609 244.333453 
L 696.60609 244.019809 
L 697.700853 244.019809 
L 697.700853 243.706164 
L 698.795615 243.706164 
L 698.795615 244.019809 
L 699.890378 244.019809 
L 699.890378 243.340246 
L 700.98514 243.340246 
L 700.98514 244.019809 
L 702.079903 244.019809 
L 702.079903 243.13115 
L 703.174666 243.13115 
L 703.174666 243.915261 
L 704.269428 243.915261 
L 704.269428 244.333453 
L 710.838003 244.438001 
L 710.838003 244.80392 
L 711.932766 244.80392 
L 711.932766 244.333453 
L 714.122291 244.333453 
L 714.122291 244.176631 
L 715.217053 244.176631 
L 715.217053 244.80392 
L 716.311816 244.80392 
L 716.311816 244.647098 
L 717.406578 244.647098 
L 717.406578 245.013016 
L 718.501341 245.013016 
L 718.501341 244.385727 
L 719.596103 244.385727 
L 719.596103 244.856194 
L 720.690866 244.856194 
L 720.690866 244.490275 
L 721.785629 244.490275 
L 721.785629 244.80392 
L 722.880391 244.80392 
L 722.880391 244.438001 
L 725.069916 244.490275 
L 725.069916 244.647098 
L 726.164679 244.647098 
L 726.164679 245.274386 
L 727.259441 245.274386 
L 727.259441 244.908468 
L 728.354204 244.908468 
L 728.354204 245.06529 
L 729.448966 245.06529 
L 729.448966 244.699372 
L 730.543729 244.699372 
L 730.543729 245.013016 
L 731.638491 245.013016 
L 731.638491 244.751646 
L 732.733254 244.751646 
L 732.733254 245.013016 
L 738.207066 245.013016 
L 738.207066 245.222112 
L 739.301829 245.222112 
L 739.301829 245.378935 
L 740.396592 245.378935 
L 740.396592 244.908468 
L 741.491354 244.908468 
L 741.491354 245.169838 
L 743.680879 245.117564 
L 743.680879 245.013016 
L 744.775642 245.013016 
L 744.775642 245.32666 
L 745.870404 245.32666 
L 745.870404 245.013016 
L 746.965167 245.013016 
L 746.965167 245.169838 
L 752.438979 245.06529 
L 752.438979 245.483483 
L 753.533742 245.483483 
L 753.533742 244.80392 
L 754.628504 244.80392 
L 754.628504 245.32666 
L 755.723267 245.32666 
L 755.723267 245.06529 
L 757.912792 245.169838 
L 757.912792 245.32666 
L 760.102317 245.32666 
L 760.102317 245.117564 
L 761.19708 245.117564 
L 761.19708 245.32666 
L 763.386605 245.378935 
L 763.386605 245.117564 
L 764.481367 245.117564 
L 764.481367 245.378935 
L 765.57613 245.378935 
L 765.57613 245.222112 
L 766.670892 245.222112 
L 766.670892 245.378935 
L 768.860417 245.483483 
L 768.860417 245.535757 
L 771.049942 245.483483 
L 771.049942 245.32666 
L 777.618518 245.378935 
L 777.618518 245.588031 
L 778.71328 245.588031 
L 778.71328 245.378935 
L 784.187093 245.32666 
L 784.187093 245.640305 
L 785.281855 245.640305 
L 785.281855 245.483483 
L 788.566143 245.431209 
L 788.566143 245.169838 
L 789.660905 245.169838 
L 789.660905 245.588031 
L 791.85043 245.535757 
L 791.85043 245.744853 
L 792.945193 245.744853 
L 792.945193 245.535757 
L 794.039956 245.535757 
L 794.039956 245.378935 
L 796.229481 245.431209 
L 796.229481 245.640305 
L 799.513768 245.692579 
L 799.513768 245.32666 
L 800.608531 245.32666 
L 800.608531 245.640305 
L 804.987581 245.588031 
L 804.987581 245.431209 
L 806.082343 245.431209 
L 806.082343 245.692579 
L 808.271868 245.640305 
L 808.271868 245.535757 
L 809.366631 245.535757 
L 809.366631 245.692579 
L 814.840444 245.588031 
L 814.840444 245.535757 
L 815.935206 245.535757 
L 815.935206 245.692579 
L 820.314256 245.588031 
L 820.314256 245.535757 
L 822.503781 245.588031 
L 822.503781 245.744853 
L 827.977594 245.640305 
L 827.977594 245.588031 
L 832.356644 245.692579 
L 832.356644 245.797127 
L 836.735694 245.797127 
L 836.735694 245.640305 
L 840.019982 245.640305 
L 840.019982 245.797127 
L 846.588557 245.692579 
L 846.588557 245.640305 
L 848.778082 245.692579 
L 848.778082 245.692579 
" clip-path="url(#p42ee501c6d)" style="fill: none; stroke: #1f77b4; stroke-width: 1.5; stroke-linecap: square"/>
   </g>
   <g id="patch_8">
    <path d="M 503.927885 257.158895 
L 503.927885 7.2 
" style="fill: none; stroke: #000000; stroke-width: 0.8; stroke-linejoin: miter; stroke-linecap: square"/>
   </g>
   <g id="patch_9">
    <path d="M 865.19952 257.158895 
L 865.19952 7.2 
" style="fill: none; stroke: #000000; stroke-width: 0.8; stroke-linejoin: miter; stroke-linecap: square"/>
   </g>
   <g id="patch_10">
    <path d="M 503.927885 257.158895 
L 865.19952 257.158895 
" style="fill: none; stroke: #000000; stroke-width: 0.8; stroke-linejoin: miter; stroke-linecap: square"/>
   </g>
   <g id="patch_11">
    <path d="M 503.927885 7.2 
L 865.19952 7.2 
" style="fill: none; stroke: #000000; stroke-width: 0.8; stroke-linejoin: miter; stroke-linecap: square"/>
   </g>
  </g>
 </g>
 <defs>
  <clipPath id="p8e7b468a2c">
   <rect x="53.328125" y="7.2" width="361.271635" height="249.958895"/>
  </clipPath>
  <clipPath id="p42ee501c6d">
   <rect x="503.927885" y="7.2" width="361.271635" height="249.958895"/>
  </clipPath>
 </defs>
</svg>
