<?xml version="1.0" encoding="utf-8" standalone="no"?>
<!DOCTYPE svg PUBLIC "-//W3C//DTD SVG 1.1//EN"
  "http://www.w3.org/Graphics/SVG/1.1/DTD/svg11.dtd">
<svg xmlns:xlink="http://www.w3.org/1999/xlink" width="872.39952pt" height="296.39952pt" viewBox="0 0 872.39952 296.39952" xmlns="http://www.w3.org/2000/svg" version="1.1">
 <metadata>
  <rdf:RDF xmlns:dc="http://purl.org/dc/elements/1.1/" xmlns:cc="http://creativecommons.org/ns#" xmlns:rdf="http://www.w3.org/1999/02/22-rdf-syntax-ns#">
   <cc:Work>
    <dc:type rdf:resource="http://purl.org/dc/dcmitype/StillImage"/>
    <dc:date>2025-07-15T15:01:13.949637</dc:date>
    <dc:format>image/svg+xml</dc:format>
    <dc:creator>
     <cc:Agent>
      <dc:title>Matplotlib v3.10.3, https://matplotlib.org/</dc:title>
     </cc:Agent>
    </dc:creator>
   </cc:Work>
  </rdf:RDF>
 </metadata>
 <defs>
  <style type="text/css">*{stroke-linejoin: round; stroke-linecap: butt}</style>
 </defs>
 <g id="figure_1">
  <g id="patch_1">
   <path d="M 0 296.39952 
L 872.39952 296.39952 
L 872.39952 0 
L 0 0 
z
" style="fill: #ffffff"/>
  </g>
  <g id="axes_1">
   <g id="patch_2">
    <path d="M 53.328125 257.158895 
L 431.87976 257.158895 
L 431.87976 7.2 
L 53.328125 7.2 
z
" style="fill: #ffffff"/>
   </g>
   <g id="matplotlib.axis_1">
    <g id="xtick_1">
     <g id="line2d_1">
      <defs>
       <path id="mb1029932fa" d="M 0 0 
L 0 3.5 
" style="stroke: #000000; stroke-width: 0.8"/>
      </defs>
      <g>
       <use xlink:href="#mb1029932fa" x="69.673655" y="257.158895" style="stroke: #000000; stroke-width: 0.8"/>
      </g>
     </g>
     <g id="text_1">
      <!-- 0 -->
      <g transform="translate(66.492405 271.757332) scale(0.1 -0.1)">
       <defs>
        <path id="DejaVuSans-30" d="M 2034 4250 
Q 1547 4250 1301 3770 
Q 1056 3291 1056 2328 
Q 1056 1369 1301 889 
Q 1547 409 2034 409 
Q 2525 409 2770 889 
Q 3016 1369 3016 2328 
Q 3016 3291 2770 3770 
Q 2525 4250 2034 4250 
z
M 2034 4750 
Q 2819 4750 3233 4129 
Q 3647 3509 3647 2328 
Q 3647 1150 3233 529 
Q 2819 -91 2034 -91 
Q 1250 -91 836 529 
Q 422 1150 422 2328 
Q 422 3509 836 4129 
Q 1250 4750 2034 4750 
z
" transform="scale(0.015625)"/>
       </defs>
       <use xlink:href="#DejaVuSans-30"/>
      </g>
     </g>
    </g>
    <g id="xtick_2">
     <g id="line2d_2">
      <g>
       <use xlink:href="#mb1029932fa" x="138.873442" y="257.158895" style="stroke: #000000; stroke-width: 0.8"/>
      </g>
     </g>
     <g id="text_2">
      <!-- 1000 -->
      <g transform="translate(126.148442 271.757332) scale(0.1 -0.1)">
       <defs>
        <path id="DejaVuSans-31" d="M 794 531 
L 1825 531 
L 1825 4091 
L 703 3866 
L 703 4441 
L 1819 4666 
L 2450 4666 
L 2450 531 
L 3481 531 
L 3481 0 
L 794 0 
L 794 531 
z
" transform="scale(0.015625)"/>
       </defs>
       <use xlink:href="#DejaVuSans-31"/>
       <use xlink:href="#DejaVuSans-30" transform="translate(63.623047 0)"/>
       <use xlink:href="#DejaVuSans-30" transform="translate(127.246094 0)"/>
       <use xlink:href="#DejaVuSans-30" transform="translate(190.869141 0)"/>
      </g>
     </g>
    </g>
    <g id="xtick_3">
     <g id="line2d_3">
      <g>
       <use xlink:href="#mb1029932fa" x="208.073228" y="257.158895" style="stroke: #000000; stroke-width: 0.8"/>
      </g>
     </g>
     <g id="text_3">
      <!-- 2000 -->
      <g transform="translate(195.348228 271.757332) scale(0.1 -0.1)">
       <defs>
        <path id="DejaVuSans-32" d="M 1228 531 
L 3431 531 
L 3431 0 
L 469 0 
L 469 531 
Q 828 903 1448 1529 
Q 2069 2156 2228 2338 
Q 2531 2678 2651 2914 
Q 2772 3150 2772 3378 
Q 2772 3750 2511 3984 
Q 2250 4219 1831 4219 
Q 1534 4219 1204 4116 
Q 875 4013 500 3803 
L 500 4441 
Q 881 4594 1212 4672 
Q 1544 4750 1819 4750 
Q 2544 4750 2975 4387 
Q 3406 4025 3406 3419 
Q 3406 3131 3298 2873 
Q 3191 2616 2906 2266 
Q 2828 2175 2409 1742 
Q 1991 1309 1228 531 
z
" transform="scale(0.015625)"/>
       </defs>
       <use xlink:href="#DejaVuSans-32"/>
       <use xlink:href="#DejaVuSans-30" transform="translate(63.623047 0)"/>
       <use xlink:href="#DejaVuSans-30" transform="translate(127.246094 0)"/>
       <use xlink:href="#DejaVuSans-30" transform="translate(190.869141 0)"/>
      </g>
     </g>
    </g>
    <g id="xtick_4">
     <g id="line2d_4">
      <g>
       <use xlink:href="#mb1029932fa" x="277.273015" y="257.158895" style="stroke: #000000; stroke-width: 0.8"/>
      </g>
     </g>
     <g id="text_4">
      <!-- 3000 -->
      <g transform="translate(264.548015 271.757332) scale(0.1 -0.1)">
       <defs>
        <path id="DejaVuSans-33" d="M 2597 2516 
Q 3050 2419 3304 2112 
Q 3559 1806 3559 1356 
Q 3559 666 3084 287 
Q 2609 -91 1734 -91 
Q 1441 -91 1130 -33 
Q 819 25 488 141 
L 488 750 
Q 750 597 1062 519 
Q 1375 441 1716 441 
Q 2309 441 2620 675 
Q 2931 909 2931 1356 
Q 2931 1769 2642 2001 
Q 2353 2234 1838 2234 
L 1294 2234 
L 1294 2753 
L 1863 2753 
Q 2328 2753 2575 2939 
Q 2822 3125 2822 3475 
Q 2822 3834 2567 4026 
Q 2313 4219 1838 4219 
Q 1578 4219 1281 4162 
Q 984 4106 628 3988 
L 628 4550 
Q 988 4650 1302 4700 
Q 1616 4750 1894 4750 
Q 2613 4750 3031 4423 
Q 3450 4097 3450 3541 
Q 3450 3153 3228 2886 
Q 3006 2619 2597 2516 
z
" transform="scale(0.015625)"/>
       </defs>
       <use xlink:href="#DejaVuSans-33"/>
       <use xlink:href="#DejaVuSans-30" transform="translate(63.623047 0)"/>
       <use xlink:href="#DejaVuSans-30" transform="translate(127.246094 0)"/>
       <use xlink:href="#DejaVuSans-30" transform="translate(190.869141 0)"/>
      </g>
     </g>
    </g>
    <g id="xtick_5">
     <g id="line2d_5">
      <g>
       <use xlink:href="#mb1029932fa" x="346.472801" y="257.158895" style="stroke: #000000; stroke-width: 0.8"/>
      </g>
     </g>
     <g id="text_5">
      <!-- 4000 -->
      <g transform="translate(333.747801 271.757332) scale(0.1 -0.1)">
       <defs>
        <path id="DejaVuSans-34" d="M 2419 4116 
L 825 1625 
L 2419 1625 
L 2419 4116 
z
M 2253 4666 
L 3047 4666 
L 3047 1625 
L 3713 1625 
L 3713 1100 
L 3047 1100 
L 3047 0 
L 2419 0 
L 2419 1100 
L 313 1100 
L 313 1709 
L 2253 4666 
z
" transform="scale(0.015625)"/>
       </defs>
       <use xlink:href="#DejaVuSans-34"/>
       <use xlink:href="#DejaVuSans-30" transform="translate(63.623047 0)"/>
       <use xlink:href="#DejaVuSans-30" transform="translate(127.246094 0)"/>
       <use xlink:href="#DejaVuSans-30" transform="translate(190.869141 0)"/>
      </g>
     </g>
    </g>
    <g id="xtick_6">
     <g id="line2d_6">
      <g>
       <use xlink:href="#mb1029932fa" x="415.672588" y="257.158895" style="stroke: #000000; stroke-width: 0.8"/>
      </g>
     </g>
     <g id="text_6">
      <!-- 5000 -->
      <g transform="translate(402.947588 271.757332) scale(0.1 -0.1)">
       <defs>
        <path id="DejaVuSans-35" d="M 691 4666 
L 3169 4666 
L 3169 4134 
L 1269 4134 
L 1269 2991 
Q 1406 3038 1543 3061 
Q 1681 3084 1819 3084 
Q 2600 3084 3056 2656 
Q 3513 2228 3513 1497 
Q 3513 744 3044 326 
Q 2575 -91 1722 -91 
Q 1428 -91 1123 -41 
Q 819 9 494 109 
L 494 744 
Q 775 591 1075 516 
Q 1375 441 1709 441 
Q 2250 441 2565 725 
Q 2881 1009 2881 1497 
Q 2881 1984 2565 2268 
Q 2250 2553 1709 2553 
Q 1456 2553 1204 2497 
Q 953 2441 691 2322 
L 691 4666 
z
" transform="scale(0.015625)"/>
       </defs>
       <use xlink:href="#DejaVuSans-35"/>
       <use xlink:href="#DejaVuSans-30" transform="translate(63.623047 0)"/>
       <use xlink:href="#DejaVuSans-30" transform="translate(127.246094 0)"/>
       <use xlink:href="#DejaVuSans-30" transform="translate(190.869141 0)"/>
      </g>
     </g>
    </g>
    <g id="text_7">
     <!-- birth_time [µs] -->
     <g transform="translate(205.78363 285.435457) scale(0.1 -0.1)">
      <defs>
       <path id="DejaVuSans-62" d="M 3116 1747 
Q 3116 2381 2855 2742 
Q 2594 3103 2138 3103 
Q 1681 3103 1420 2742 
Q 1159 2381 1159 1747 
Q 1159 1113 1420 752 
Q 1681 391 2138 391 
Q 2594 391 2855 752 
Q 3116 1113 3116 1747 
z
M 1159 2969 
Q 1341 3281 1617 3432 
Q 1894 3584 2278 3584 
Q 2916 3584 3314 3078 
Q 3713 2572 3713 1747 
Q 3713 922 3314 415 
Q 2916 -91 2278 -91 
Q 1894 -91 1617 61 
Q 1341 213 1159 525 
L 1159 0 
L 581 0 
L 581 4863 
L 1159 4863 
L 1159 2969 
z
" transform="scale(0.015625)"/>
       <path id="DejaVuSans-69" d="M 603 3500 
L 1178 3500 
L 1178 0 
L 603 0 
L 603 3500 
z
M 603 4863 
L 1178 4863 
L 1178 4134 
L 603 4134 
L 603 4863 
z
" transform="scale(0.015625)"/>
       <path id="DejaVuSans-72" d="M 2631 2963 
Q 2534 3019 2420 3045 
Q 2306 3072 2169 3072 
Q 1681 3072 1420 2755 
Q 1159 2438 1159 1844 
L 1159 0 
L 581 0 
L 581 3500 
L 1159 3500 
L 1159 2956 
Q 1341 3275 1631 3429 
Q 1922 3584 2338 3584 
Q 2397 3584 2469 3576 
Q 2541 3569 2628 3553 
L 2631 2963 
z
" transform="scale(0.015625)"/>
       <path id="DejaVuSans-74" d="M 1172 4494 
L 1172 3500 
L 2356 3500 
L 2356 3053 
L 1172 3053 
L 1172 1153 
Q 1172 725 1289 603 
Q 1406 481 1766 481 
L 2356 481 
L 2356 0 
L 1766 0 
Q 1100 0 847 248 
Q 594 497 594 1153 
L 594 3053 
L 172 3053 
L 172 3500 
L 594 3500 
L 594 4494 
L 1172 4494 
z
" transform="scale(0.015625)"/>
       <path id="DejaVuSans-68" d="M 3513 2113 
L 3513 0 
L 2938 0 
L 2938 2094 
Q 2938 2591 2744 2837 
Q 2550 3084 2163 3084 
Q 1697 3084 1428 2787 
Q 1159 2491 1159 1978 
L 1159 0 
L 581 0 
L 581 4863 
L 1159 4863 
L 1159 2956 
Q 1366 3272 1645 3428 
Q 1925 3584 2291 3584 
Q 2894 3584 3203 3211 
Q 3513 2838 3513 2113 
z
" transform="scale(0.015625)"/>
       <path id="DejaVuSans-5f" d="M 3263 -1063 
L 3263 -1509 
L -63 -1509 
L -63 -1063 
L 3263 -1063 
z
" transform="scale(0.015625)"/>
       <path id="DejaVuSans-6d" d="M 3328 2828 
Q 3544 3216 3844 3400 
Q 4144 3584 4550 3584 
Q 5097 3584 5394 3201 
Q 5691 2819 5691 2113 
L 5691 0 
L 5113 0 
L 5113 2094 
Q 5113 2597 4934 2840 
Q 4756 3084 4391 3084 
Q 3944 3084 3684 2787 
Q 3425 2491 3425 1978 
L 3425 0 
L 2847 0 
L 2847 2094 
Q 2847 2600 2669 2842 
Q 2491 3084 2119 3084 
Q 1678 3084 1418 2786 
Q 1159 2488 1159 1978 
L 1159 0 
L 581 0 
L 581 3500 
L 1159 3500 
L 1159 2956 
Q 1356 3278 1631 3431 
Q 1906 3584 2284 3584 
Q 2666 3584 2933 3390 
Q 3200 3197 3328 2828 
z
" transform="scale(0.015625)"/>
       <path id="DejaVuSans-65" d="M 3597 1894 
L 3597 1613 
L 953 1613 
Q 991 1019 1311 708 
Q 1631 397 2203 397 
Q 2534 397 2845 478 
Q 3156 559 3463 722 
L 3463 178 
Q 3153 47 2828 -22 
Q 2503 -91 2169 -91 
Q 1331 -91 842 396 
Q 353 884 353 1716 
Q 353 2575 817 3079 
Q 1281 3584 2069 3584 
Q 2775 3584 3186 3129 
Q 3597 2675 3597 1894 
z
M 3022 2063 
Q 3016 2534 2758 2815 
Q 2500 3097 2075 3097 
Q 1594 3097 1305 2825 
Q 1016 2553 972 2059 
L 3022 2063 
z
" transform="scale(0.015625)"/>
       <path id="DejaVuSans-20" transform="scale(0.015625)"/>
       <path id="DejaVuSans-5b" d="M 550 4863 
L 1875 4863 
L 1875 4416 
L 1125 4416 
L 1125 -397 
L 1875 -397 
L 1875 -844 
L 550 -844 
L 550 4863 
z
" transform="scale(0.015625)"/>
       <path id="DejaVuSans-b5" d="M 544 -1331 
L 544 3500 
L 1119 3500 
L 1119 1325 
Q 1119 872 1334 640 
Q 1550 409 1972 409 
Q 2434 409 2667 671 
Q 2900 934 2900 1459 
L 2900 3500 
L 3475 3500 
L 3475 806 
Q 3475 619 3529 530 
Q 3584 441 3700 441 
Q 3728 441 3778 458 
Q 3828 475 3916 513 
L 3916 50 
Q 3788 -22 3673 -56 
Q 3559 -91 3450 -91 
Q 3234 -91 3106 31 
Q 2978 153 2931 403 
Q 2775 156 2548 32 
Q 2322 -91 2016 -91 
Q 1697 -91 1473 31 
Q 1250 153 1119 397 
L 1119 -1331 
L 544 -1331 
z
" transform="scale(0.015625)"/>
       <path id="DejaVuSans-73" d="M 2834 3397 
L 2834 2853 
Q 2591 2978 2328 3040 
Q 2066 3103 1784 3103 
Q 1356 3103 1142 2972 
Q 928 2841 928 2578 
Q 928 2378 1081 2264 
Q 1234 2150 1697 2047 
L 1894 2003 
Q 2506 1872 2764 1633 
Q 3022 1394 3022 966 
Q 3022 478 2636 193 
Q 2250 -91 1575 -91 
Q 1294 -91 989 -36 
Q 684 19 347 128 
L 347 722 
Q 666 556 975 473 
Q 1284 391 1588 391 
Q 1994 391 2212 530 
Q 2431 669 2431 922 
Q 2431 1156 2273 1281 
Q 2116 1406 1581 1522 
L 1381 1569 
Q 847 1681 609 1914 
Q 372 2147 372 2553 
Q 372 3047 722 3315 
Q 1072 3584 1716 3584 
Q 2034 3584 2315 3537 
Q 2597 3491 2834 3397 
z
" transform="scale(0.015625)"/>
       <path id="DejaVuSans-5d" d="M 1947 4863 
L 1947 -844 
L 622 -844 
L 622 -397 
L 1369 -397 
L 1369 4416 
L 622 4416 
L 622 4863 
L 1947 4863 
z
" transform="scale(0.015625)"/>
      </defs>
      <use xlink:href="#DejaVuSans-62"/>
      <use xlink:href="#DejaVuSans-69" transform="translate(63.476562 0)"/>
      <use xlink:href="#DejaVuSans-72" transform="translate(91.259766 0)"/>
      <use xlink:href="#DejaVuSans-74" transform="translate(132.373047 0)"/>
      <use xlink:href="#DejaVuSans-68" transform="translate(171.582031 0)"/>
      <use xlink:href="#DejaVuSans-5f" transform="translate(234.960938 0)"/>
      <use xlink:href="#DejaVuSans-74" transform="translate(284.960938 0)"/>
      <use xlink:href="#DejaVuSans-69" transform="translate(324.169922 0)"/>
      <use xlink:href="#DejaVuSans-6d" transform="translate(351.953125 0)"/>
      <use xlink:href="#DejaVuSans-65" transform="translate(449.365234 0)"/>
      <use xlink:href="#DejaVuSans-20" transform="translate(510.888672 0)"/>
      <use xlink:href="#DejaVuSans-5b" transform="translate(542.675781 0)"/>
      <use xlink:href="#DejaVuSans-b5" transform="translate(581.689453 0)"/>
      <use xlink:href="#DejaVuSans-73" transform="translate(645.3125 0)"/>
      <use xlink:href="#DejaVuSans-5d" transform="translate(697.412109 0)"/>
     </g>
    </g>
   </g>
   <g id="matplotlib.axis_2">
    <g id="ytick_1">
     <g id="line2d_7">
      <defs>
       <path id="m428c9271bd" d="M 0 0 
L -3.5 0 
" style="stroke: #000000; stroke-width: 0.8"/>
      </defs>
      <g>
       <use xlink:href="#m428c9271bd" x="53.328125" y="245.797127" style="stroke: #000000; stroke-width: 0.8"/>
      </g>
     </g>
     <g id="text_8">
      <!-- 0 -->
      <g transform="translate(39.965625 249.596346) scale(0.1 -0.1)">
       <use xlink:href="#DejaVuSans-30"/>
      </g>
     </g>
    </g>
    <g id="ytick_2">
     <g id="line2d_8">
      <g>
       <use xlink:href="#m428c9271bd" x="53.328125" y="209.146263" style="stroke: #000000; stroke-width: 0.8"/>
      </g>
     </g>
     <g id="text_9">
      <!-- 200 -->
      <g transform="translate(27.240625 212.945481) scale(0.1 -0.1)">
       <use xlink:href="#DejaVuSans-32"/>
       <use xlink:href="#DejaVuSans-30" transform="translate(63.623047 0)"/>
       <use xlink:href="#DejaVuSans-30" transform="translate(127.246094 0)"/>
      </g>
     </g>
    </g>
    <g id="ytick_3">
     <g id="line2d_9">
      <g>
       <use xlink:href="#m428c9271bd" x="53.328125" y="172.495398" style="stroke: #000000; stroke-width: 0.8"/>
      </g>
     </g>
     <g id="text_10">
      <!-- 400 -->
      <g transform="translate(27.240625 176.294617) scale(0.1 -0.1)">
       <use xlink:href="#DejaVuSans-34"/>
       <use xlink:href="#DejaVuSans-30" transform="translate(63.623047 0)"/>
       <use xlink:href="#DejaVuSans-30" transform="translate(127.246094 0)"/>
      </g>
     </g>
    </g>
    <g id="ytick_4">
     <g id="line2d_10">
      <g>
       <use xlink:href="#m428c9271bd" x="53.328125" y="135.844534" style="stroke: #000000; stroke-width: 0.8"/>
      </g>
     </g>
     <g id="text_11">
      <!-- 600 -->
      <g transform="translate(27.240625 139.643753) scale(0.1 -0.1)">
       <defs>
        <path id="DejaVuSans-36" d="M 2113 2584 
Q 1688 2584 1439 2293 
Q 1191 2003 1191 1497 
Q 1191 994 1439 701 
Q 1688 409 2113 409 
Q 2538 409 2786 701 
Q 3034 994 3034 1497 
Q 3034 2003 2786 2293 
Q 2538 2584 2113 2584 
z
M 3366 4563 
L 3366 3988 
Q 3128 4100 2886 4159 
Q 2644 4219 2406 4219 
Q 1781 4219 1451 3797 
Q 1122 3375 1075 2522 
Q 1259 2794 1537 2939 
Q 1816 3084 2150 3084 
Q 2853 3084 3261 2657 
Q 3669 2231 3669 1497 
Q 3669 778 3244 343 
Q 2819 -91 2113 -91 
Q 1303 -91 875 529 
Q 447 1150 447 2328 
Q 447 3434 972 4092 
Q 1497 4750 2381 4750 
Q 2619 4750 2861 4703 
Q 3103 4656 3366 4563 
z
" transform="scale(0.015625)"/>
       </defs>
       <use xlink:href="#DejaVuSans-36"/>
       <use xlink:href="#DejaVuSans-30" transform="translate(63.623047 0)"/>
       <use xlink:href="#DejaVuSans-30" transform="translate(127.246094 0)"/>
      </g>
     </g>
    </g>
    <g id="ytick_5">
     <g id="line2d_11">
      <g>
       <use xlink:href="#m428c9271bd" x="53.328125" y="99.19367" style="stroke: #000000; stroke-width: 0.8"/>
      </g>
     </g>
     <g id="text_12">
      <!-- 800 -->
      <g transform="translate(27.240625 102.992888) scale(0.1 -0.1)">
       <defs>
        <path id="DejaVuSans-38" d="M 2034 2216 
Q 1584 2216 1326 1975 
Q 1069 1734 1069 1313 
Q 1069 891 1326 650 
Q 1584 409 2034 409 
Q 2484 409 2743 651 
Q 3003 894 3003 1313 
Q 3003 1734 2745 1975 
Q 2488 2216 2034 2216 
z
M 1403 2484 
Q 997 2584 770 2862 
Q 544 3141 544 3541 
Q 544 4100 942 4425 
Q 1341 4750 2034 4750 
Q 2731 4750 3128 4425 
Q 3525 4100 3525 3541 
Q 3525 3141 3298 2862 
Q 3072 2584 2669 2484 
Q 3125 2378 3379 2068 
Q 3634 1759 3634 1313 
Q 3634 634 3220 271 
Q 2806 -91 2034 -91 
Q 1263 -91 848 271 
Q 434 634 434 1313 
Q 434 1759 690 2068 
Q 947 2378 1403 2484 
z
M 1172 3481 
Q 1172 3119 1398 2916 
Q 1625 2713 2034 2713 
Q 2441 2713 2670 2916 
Q 2900 3119 2900 3481 
Q 2900 3844 2670 4047 
Q 2441 4250 2034 4250 
Q 1625 4250 1398 4047 
Q 1172 3844 1172 3481 
z
" transform="scale(0.015625)"/>
       </defs>
       <use xlink:href="#DejaVuSans-38"/>
       <use xlink:href="#DejaVuSans-30" transform="translate(63.623047 0)"/>
       <use xlink:href="#DejaVuSans-30" transform="translate(127.246094 0)"/>
      </g>
     </g>
    </g>
    <g id="ytick_6">
     <g id="line2d_12">
      <g>
       <use xlink:href="#m428c9271bd" x="53.328125" y="62.542805" style="stroke: #000000; stroke-width: 0.8"/>
      </g>
     </g>
     <g id="text_13">
      <!-- 1000 -->
      <g transform="translate(20.878125 66.342024) scale(0.1 -0.1)">
       <use xlink:href="#DejaVuSans-31"/>
       <use xlink:href="#DejaVuSans-30" transform="translate(63.623047 0)"/>
       <use xlink:href="#DejaVuSans-30" transform="translate(127.246094 0)"/>
       <use xlink:href="#DejaVuSans-30" transform="translate(190.869141 0)"/>
      </g>
     </g>
    </g>
    <g id="ytick_7">
     <g id="line2d_13">
      <g>
       <use xlink:href="#m428c9271bd" x="53.328125" y="25.891941" style="stroke: #000000; stroke-width: 0.8"/>
      </g>
     </g>
     <g id="text_14">
      <!-- 1200 -->
      <g transform="translate(20.878125 29.69116) scale(0.1 -0.1)">
       <use xlink:href="#DejaVuSans-31"/>
       <use xlink:href="#DejaVuSans-32" transform="translate(63.623047 0)"/>
       <use xlink:href="#DejaVuSans-30" transform="translate(127.246094 0)"/>
       <use xlink:href="#DejaVuSans-30" transform="translate(190.869141 0)"/>
      </g>
     </g>
    </g>
    <g id="text_15">
     <!-- [counts] -->
     <g transform="translate(14.798438 152.791947) rotate(-90) scale(0.1 -0.1)">
      <defs>
       <path id="DejaVuSans-63" d="M 3122 3366 
L 3122 2828 
Q 2878 2963 2633 3030 
Q 2388 3097 2138 3097 
Q 1578 3097 1268 2742 
Q 959 2388 959 1747 
Q 959 1106 1268 751 
Q 1578 397 2138 397 
Q 2388 397 2633 464 
Q 2878 531 3122 666 
L 3122 134 
Q 2881 22 2623 -34 
Q 2366 -91 2075 -91 
Q 1284 -91 818 406 
Q 353 903 353 1747 
Q 353 2603 823 3093 
Q 1294 3584 2113 3584 
Q 2378 3584 2631 3529 
Q 2884 3475 3122 3366 
z
" transform="scale(0.015625)"/>
       <path id="DejaVuSans-6f" d="M 1959 3097 
Q 1497 3097 1228 2736 
Q 959 2375 959 1747 
Q 959 1119 1226 758 
Q 1494 397 1959 397 
Q 2419 397 2687 759 
Q 2956 1122 2956 1747 
Q 2956 2369 2687 2733 
Q 2419 3097 1959 3097 
z
M 1959 3584 
Q 2709 3584 3137 3096 
Q 3566 2609 3566 1747 
Q 3566 888 3137 398 
Q 2709 -91 1959 -91 
Q 1206 -91 779 398 
Q 353 888 353 1747 
Q 353 2609 779 3096 
Q 1206 3584 1959 3584 
z
" transform="scale(0.015625)"/>
       <path id="DejaVuSans-75" d="M 544 1381 
L 544 3500 
L 1119 3500 
L 1119 1403 
Q 1119 906 1312 657 
Q 1506 409 1894 409 
Q 2359 409 2629 706 
Q 2900 1003 2900 1516 
L 2900 3500 
L 3475 3500 
L 3475 0 
L 2900 0 
L 2900 538 
Q 2691 219 2414 64 
Q 2138 -91 1772 -91 
Q 1169 -91 856 284 
Q 544 659 544 1381 
z
M 1991 3584 
L 1991 3584 
z
" transform="scale(0.015625)"/>
       <path id="DejaVuSans-6e" d="M 3513 2113 
L 3513 0 
L 2938 0 
L 2938 2094 
Q 2938 2591 2744 2837 
Q 2550 3084 2163 3084 
Q 1697 3084 1428 2787 
Q 1159 2491 1159 1978 
L 1159 0 
L 581 0 
L 581 3500 
L 1159 3500 
L 1159 2956 
Q 1366 3272 1645 3428 
Q 1925 3584 2291 3584 
Q 2894 3584 3203 3211 
Q 3513 2838 3513 2113 
z
" transform="scale(0.015625)"/>
      </defs>
      <use xlink:href="#DejaVuSans-5b"/>
      <use xlink:href="#DejaVuSans-63" transform="translate(39.013672 0)"/>
      <use xlink:href="#DejaVuSans-6f" transform="translate(93.994141 0)"/>
      <use xlink:href="#DejaVuSans-75" transform="translate(155.175781 0)"/>
      <use xlink:href="#DejaVuSans-6e" transform="translate(218.554688 0)"/>
      <use xlink:href="#DejaVuSans-74" transform="translate(281.933594 0)"/>
      <use xlink:href="#DejaVuSans-73" transform="translate(321.142578 0)"/>
      <use xlink:href="#DejaVuSans-5d" transform="translate(373.242188 0)"/>
     </g>
    </g>
   </g>
   <g id="line2d_14">
    <path d="M 70.535018 233.702342 
L 71.682144 233.702342 
L 71.682144 227.288441 
L 72.82927 227.288441 
L 72.82927 223.4401 
L 73.976396 223.4401 
L 73.976396 209.696026 
L 75.123522 209.696026 
L 75.123522 204.198396 
L 76.270648 204.198396 
L 76.270648 197.417986 
L 77.417775 197.417986 
L 77.417775 181.841369 
L 78.564901 181.841369 
L 78.564901 174.69445 
L 79.712027 174.69445 
L 79.712027 164.981971 
L 80.859153 164.981971 
L 80.859153 158.201561 
L 82.006279 158.201561 
L 82.006279 152.703932 
L 83.153405 152.703932 
L 83.153405 146.839793 
L 84.300532 146.839793 
L 84.300532 156.002509 
L 85.447658 156.002509 
L 85.447658 134.195245 
L 86.594784 134.195245 
L 86.594784 128.514361 
L 87.74191 128.514361 
L 87.74191 125.399038 
L 88.889036 125.399038 
L 88.889036 116.969339 
L 90.036162 116.969339 
L 90.036162 113.854015 
L 91.183289 113.854015 
L 91.183289 112.021472 
L 92.330415 112.021472 
L 92.330415 103.408519 
L 93.477541 103.408519 
L 93.477541 98.277398 
L 94.624667 98.277398 
L 94.624667 105.607571 
L 95.771793 105.607571 
L 95.771793 82.700781 
L 96.918919 82.700781 
L 96.918919 87.282139 
L 98.066046 87.282139 
L 98.066046 84.899832 
L 99.213172 84.899832 
L 99.213172 94.245803 
L 100.360298 94.245803 
L 100.360298 85.63285 
L 101.507424 85.63285 
L 101.507424 77.56966 
L 102.65455 77.56966 
L 102.65455 75.370608 
L 103.801676 75.370608 
L 103.801676 81.784509 
L 104.948802 81.784509 
L 104.948802 84.350069 
L 106.095929 84.350069 
L 106.095929 74.820845 
L 107.243055 74.820845 
L 107.243055 77.203151 
L 108.390181 77.203151 
L 108.390181 71.888776 
L 109.537307 71.888776 
L 109.537307 56.861921 
L 110.684433 56.861921 
L 110.684433 66.757655 
L 111.831559 66.757655 
L 111.831559 55.029378 
L 112.978686 55.029378 
L 112.978686 53.563343 
L 114.125812 53.563343 
L 114.125812 67.673926 
L 115.272938 67.673926 
L 115.272938 55.212632 
L 116.420064 55.212632 
L 116.420064 49.898257 
L 117.56719 49.898257 
L 117.56719 59.977245 
L 119.861443 59.977245 
L 119.861443 55.212632 
L 121.008569 55.212632 
L 121.008569 48.981985 
L 122.155695 48.981985 
L 122.155695 41.651813 
L 123.302821 41.651813 
L 123.302821 59.79399 
L 124.449947 59.79399 
L 124.449947 44.217373 
L 125.597073 44.217373 
L 125.597073 55.212632 
L 126.7442 55.212632 
L 126.7442 47.332696 
L 127.891326 47.332696 
L 127.891326 46.599679 
L 129.038452 46.599679 
L 129.038452 55.395887 
L 130.185578 55.395887 
L 130.185578 53.01358 
L 131.332704 53.01358 
L 131.332704 40.002524 
L 132.47983 40.002524 
L 132.47983 47.149442 
L 133.626957 47.149442 
L 133.626957 36.154183 
L 134.774083 36.154183 
L 134.774083 40.185778 
L 135.921209 40.185778 
L 135.921209 43.484356 
L 137.068335 43.484356 
L 137.068335 44.217373 
L 138.215461 44.217373 
L 138.215461 35.60442 
L 139.362587 35.60442 
L 139.362587 30.10679 
L 140.509714 30.10679 
L 140.509714 44.95039 
L 141.65684 44.95039 
L 141.65684 43.850864 
L 142.803966 43.850864 
L 142.803966 32.672351 
L 143.951092 32.672351 
L 143.951092 40.918795 
L 145.098218 40.918795 
L 145.098218 28.274247 
L 146.245344 28.274247 
L 146.245344 28.090993 
L 147.392471 28.090993 
L 147.392471 44.400627 
L 148.539597 44.400627 
L 148.539597 33.955131 
L 149.686723 33.955131 
L 149.686723 44.400627 
L 150.833849 44.400627 
L 150.833849 39.086252 
L 151.980975 39.086252 
L 151.980975 41.468558 
L 153.128101 41.468558 
L 153.128101 42.38483 
L 154.275228 42.38483 
L 154.275228 40.735541 
L 155.422354 40.735541 
L 155.422354 29.190519 
L 156.56948 29.190519 
L 156.56948 32.672351 
L 157.716606 32.672351 
L 157.716606 35.970929 
L 158.863732 35.970929 
L 158.863732 36.154183 
L 160.010858 36.154183 
L 160.010858 30.290045 
L 161.157985 30.290045 
L 161.157985 34.504894 
L 162.305111 34.504894 
L 162.305111 45.133645 
L 163.452237 45.133645 
L 163.452237 29.373773 
L 164.599363 29.373773 
L 164.599363 37.070454 
L 165.746489 37.070454 
L 165.746489 33.771877 
L 166.893615 33.771877 
L 166.893615 30.656553 
L 168.040742 30.656553 
L 168.040742 41.468558 
L 169.187868 41.468558 
L 169.187868 42.568084 
L 170.334994 42.568084 
L 170.334994 37.803472 
L 171.48212 37.803472 
L 171.48212 29.557027 
L 172.629246 29.557027 
L 172.629246 30.839808 
L 173.776372 30.839808 
L 173.776372 44.95039 
L 174.923499 44.95039 
L 174.923499 34.138385 
L 176.070625 34.138385 
L 176.070625 29.190519 
L 177.217751 29.190519 
L 177.217751 22.410109 
L 178.364877 22.410109 
L 178.364877 25.525432 
L 179.512003 25.525432 
L 179.512003 20.577565 
L 180.659129 20.577565 
L 180.659129 42.201575 
L 181.806256 42.201575 
L 181.806256 26.441704 
L 182.953382 26.441704 
L 182.953382 19.661294 
L 184.100508 19.661294 
L 184.100508 48.248968 
L 185.247634 48.248968 
L 185.247634 31.023062 
L 186.39476 31.023062 
L 186.39476 24.425906 
L 187.541886 24.425906 
L 187.541886 27.174721 
L 188.689013 27.174721 
L 188.689013 38.719743 
L 189.836139 38.719743 
L 189.836139 31.756079 
L 190.983265 31.756079 
L 190.983265 33.038859 
L 192.130391 33.038859 
L 192.130391 46.966188 
L 193.277517 46.966188 
L 193.277517 29.740282 
L 194.424643 29.740282 
L 194.424643 40.552287 
L 195.57177 40.552287 
L 195.57177 21.310583 
L 196.718896 21.310583 
L 196.718896 46.966188 
L 197.866022 46.966188 
L 197.866022 29.923536 
L 199.013148 29.923536 
L 199.013148 43.117847 
L 200.160274 43.117847 
L 200.160274 29.373773 
L 201.3074 29.373773 
L 201.3074 39.452761 
L 202.454527 39.452761 
L 202.454527 33.405368 
L 203.601653 33.405368 
L 203.601653 33.222114 
L 204.748779 33.222114 
L 204.748779 39.636015 
L 205.895905 39.636015 
L 205.895905 37.803472 
L 207.043031 37.803472 
L 207.043031 18.561768 
L 208.190157 18.561768 
L 208.190157 41.468558 
L 209.337284 41.468558 
L 209.337284 36.8872 
L 210.48441 36.8872 
L 210.48441 30.473299 
L 211.631536 30.473299 
L 211.631536 37.070454 
L 212.778662 37.070454 
L 212.778662 39.452761 
L 213.925788 39.452761 
L 213.925788 24.425906 
L 215.072914 24.425906 
L 215.072914 46.233171 
L 216.220041 46.233171 
L 216.220041 30.656553 
L 217.367167 30.656553 
L 217.367167 30.10679 
L 218.514293 30.10679 
L 218.514293 25.158924 
L 219.661419 25.158924 
L 219.661419 34.504894 
L 220.808545 34.504894 
L 220.808545 27.907738 
L 221.955671 27.907738 
L 221.955671 34.688148 
L 223.102798 34.688148 
L 223.102798 27.357975 
L 224.249924 27.357975 
L 224.249924 39.452761 
L 225.39705 39.452761 
L 225.39705 27.724484 
L 226.544176 27.724484 
L 226.544176 40.552287 
L 227.691302 40.552287 
L 227.691302 42.018321 
L 228.838428 42.018321 
L 228.838428 26.808212 
L 229.985555 26.808212 
L 229.985555 34.504894 
L 231.132681 34.504894 
L 231.132681 33.955131 
L 232.279807 33.955131 
L 232.279807 38.536489 
L 233.426933 38.536489 
L 233.426933 25.891941 
L 234.574059 25.891941 
L 234.574059 38.536489 
L 235.721185 38.536489 
L 235.721185 31.939333 
L 236.868312 31.939333 
L 236.868312 45.500153 
L 238.015438 45.500153 
L 238.015438 32.489096 
L 239.162564 32.489096 
L 239.162564 39.086252 
L 240.30969 39.086252 
L 240.30969 27.54123 
L 241.456816 27.54123 
L 241.456816 28.274247 
L 242.603942 28.274247 
L 242.603942 35.60442 
L 243.751069 35.60442 
L 243.751069 34.504894 
L 244.898195 34.504894 
L 244.898195 31.572825 
L 246.045321 31.572825 
L 246.045321 34.688148 
L 247.192447 34.688148 
L 247.192447 32.489096 
L 248.339573 32.489096 
L 248.339573 33.771877 
L 249.486699 33.771877 
L 249.486699 27.724484 
L 250.633826 27.724484 
L 250.633826 26.991467 
L 251.780952 26.991467 
L 251.780952 27.907738 
L 252.928078 27.907738 
L 252.928078 41.835067 
L 254.075204 41.835067 
L 254.075204 28.640756 
L 255.22233 28.640756 
L 255.22233 30.656553 
L 256.369456 30.656553 
L 256.369456 41.10205 
L 257.516583 41.10205 
L 257.516583 31.023062 
L 258.663709 31.023062 
L 258.663709 30.290045 
L 259.810835 30.290045 
L 259.810835 34.871403 
L 260.957961 34.871403 
L 260.957961 24.242652 
L 262.105087 24.242652 
L 262.105087 29.007264 
L 263.252213 29.007264 
L 263.252213 29.190519 
L 264.39934 29.190519 
L 264.39934 38.719743 
L 265.546466 38.719743 
L 265.546466 37.253709 
L 266.693592 37.253709 
L 266.693592 45.316899 
L 267.840718 45.316899 
L 267.840718 34.871403 
L 268.987844 34.871403 
L 268.987844 52.097309 
L 270.13497 52.097309 
L 270.13497 63.275822 
L 271.282097 63.275822 
L 271.282097 69.506469 
L 272.429223 69.506469 
L 272.429223 76.836642 
L 273.576349 76.836642 
L 273.576349 87.098884 
L 274.723475 87.098884 
L 274.723475 97.544381 
L 275.870601 97.544381 
L 275.870601 95.711837 
L 277.017727 95.711837 
L 277.017727 105.424317 
L 278.164854 105.424317 
L 278.164854 112.937744 
L 279.31198 112.937744 
L 279.31198 121.733951 
L 280.459106 121.733951 
L 280.459106 130.346904 
L 281.606232 130.346904 
L 281.606232 134.928262 
L 282.753358 134.928262 
L 282.753358 139.50962 
L 283.900484 139.50962 
L 283.900484 145.00725 
L 285.047611 145.00725 
L 285.047611 152.154169 
L 286.194737 152.154169 
L 286.194737 154.35322 
L 287.341863 154.35322 
L 287.341863 163.332682 
L 288.488989 163.332682 
L 288.488989 164.432208 
L 289.636115 164.432208 
L 289.636115 171.029364 
L 290.783241 171.029364 
L 290.783241 178.9093 
L 291.930368 178.9093 
L 291.930368 175.244213 
L 293.077494 175.244213 
L 293.077494 186.239472 
L 294.22462 186.239472 
L 294.22462 184.956692 
L 295.371746 184.956692 
L 295.371746 190.637576 
L 296.518872 190.637576 
L 296.518872 188.25527 
L 297.665998 188.25527 
L 297.665998 194.669171 
L 298.813125 194.669171 
L 298.813125 196.31846 
L 299.960251 196.31846 
L 299.960251 201.632835 
L 301.107377 201.632835 
L 301.107377 202.365853 
L 302.254503 202.365853 
L 302.254503 202.732361 
L 303.401629 202.732361 
L 303.401629 205.297922 
L 304.548755 205.297922 
L 304.548755 212.261586 
L 305.695882 212.261586 
L 305.695882 210.429043 
L 306.843008 210.429043 
L 306.843008 214.460638 
L 307.990134 214.460638 
L 307.990134 217.94247 
L 309.13726 217.94247 
L 309.13726 218.675487 
L 310.284386 218.675487 
L 310.284386 218.492233 
L 311.431512 218.492233 
L 311.431512 217.575961 
L 312.578639 217.575961 
L 312.578639 223.806608 
L 313.725765 223.806608 
L 313.725765 218.492233 
L 314.872891 218.492233 
L 314.872891 224.173117 
L 316.020017 224.173117 
L 316.020017 226.555423 
L 317.167143 226.555423 
L 317.167143 229.487492 
L 318.314269 229.487492 
L 318.314269 226.00566 
L 319.461396 226.00566 
L 319.461396 227.654949 
L 320.608522 227.654949 
L 320.608522 231.136781 
L 321.755648 231.136781 
L 321.755648 232.236307 
L 322.902774 232.236307 
L 322.902774 230.770273 
L 324.0499 230.770273 
L 324.0499 234.985122 
L 325.197026 234.985122 
L 325.197026 230.587018 
L 326.344153 230.587018 
L 326.344153 232.969325 
L 327.491279 232.969325 
L 327.491279 233.702342 
L 328.638405 233.702342 
L 328.638405 235.351631 
L 330.932657 235.351631 
L 330.932657 234.06885 
L 332.079783 234.06885 
L 332.079783 235.351631 
L 333.22691 235.351631 
L 333.22691 236.817665 
L 334.374036 236.817665 
L 334.374036 232.78607 
L 335.521162 232.78607 
L 335.521162 237.917191 
L 336.668288 237.917191 
L 336.668288 237.367428 
L 337.815414 237.367428 
L 337.815414 237.184174 
L 338.96254 237.184174 
L 338.96254 236.634411 
L 340.109667 236.634411 
L 340.109667 238.100446 
L 341.256793 238.100446 
L 341.256793 240.116243 
L 342.403919 240.116243 
L 342.403919 239.749734 
L 343.551045 239.749734 
L 343.551045 239.016717 
L 344.698171 239.016717 
L 344.698171 239.932989 
L 345.845297 239.932989 
L 345.845297 240.299497 
L 346.992424 240.299497 
L 346.992424 241.765532 
L 348.13955 241.765532 
L 348.13955 240.666006 
L 349.286676 240.666006 
L 349.286676 240.299497 
L 350.433802 240.299497 
L 350.433802 239.383226 
L 351.580928 239.383226 
L 351.580928 241.765532 
L 352.728054 241.765532 
L 352.728054 242.681804 
L 353.875181 242.681804 
L 353.875181 240.84926 
L 355.022307 240.84926 
L 355.022307 242.498549 
L 356.169433 242.498549 
L 356.169433 244.147838 
L 357.316559 244.147838 
L 357.316559 243.414821 
L 358.463685 243.414821 
L 358.463685 241.765532 
L 359.610811 241.765532 
L 359.610811 242.498549 
L 360.757938 242.498549 
L 360.757938 242.865058 
L 361.905064 242.865058 
L 361.905064 242.681804 
L 363.05219 242.681804 
L 363.05219 243.048312 
L 364.199316 243.048312 
L 364.199316 243.414821 
L 365.346442 243.414821 
L 365.346442 243.231567 
L 366.493568 243.231567 
L 366.493568 243.78133 
L 367.640695 243.78133 
L 367.640695 244.331092 
L 368.787821 244.331092 
L 368.787821 243.231567 
L 369.934947 243.231567 
L 369.934947 243.78133 
L 371.082073 243.78133 
L 371.082073 244.514347 
L 372.229199 244.514347 
L 372.229199 243.78133 
L 373.376325 243.78133 
L 373.376325 244.697601 
L 375.670578 244.697601 
L 375.670578 244.514347 
L 376.817704 244.514347 
L 376.817704 243.964584 
L 377.96483 243.964584 
L 377.96483 244.697601 
L 379.111956 244.697601 
L 379.111956 244.880855 
L 380.259082 244.880855 
L 380.259082 244.697601 
L 382.553335 244.697601 
L 382.553335 245.06411 
L 383.700461 245.06411 
L 383.700461 244.880855 
L 384.847587 244.880855 
L 384.847587 245.247364 
L 387.141839 245.247364 
L 387.141839 245.06411 
L 388.288966 245.06411 
L 388.288966 244.880855 
L 389.436092 244.880855 
L 389.436092 244.514347 
L 390.583218 244.514347 
L 390.583218 245.06411 
L 391.730344 245.06411 
L 391.730344 245.247364 
L 392.87747 245.247364 
L 392.87747 244.880855 
L 394.024596 244.880855 
L 394.024596 245.613873 
L 397.465975 245.613873 
L 397.465975 245.247364 
L 402.05448 245.247364 
L 402.05448 245.430618 
L 404.348732 245.430618 
L 404.348732 245.613873 
L 405.495858 245.613873 
L 405.495858 245.797127 
L 406.642984 245.797127 
L 406.642984 245.613873 
L 407.79011 245.613873 
L 407.79011 245.247364 
L 408.937237 245.247364 
L 408.937237 245.797127 
L 410.084363 245.797127 
L 410.084363 245.247364 
L 411.231489 245.247364 
L 411.231489 245.430618 
L 412.378615 245.430618 
L 412.378615 245.797127 
L 413.525741 245.797127 
L 413.525741 245.247364 
L 414.672867 245.247364 
L 414.672867 245.247364 
" clip-path="url(#p0a9d7c7b63)" style="fill: none; stroke: #1f77b4; stroke-width: 1.5; stroke-linecap: square"/>
   </g>
   <g id="patch_3">
    <path d="M 53.328125 257.158895 
L 53.328125 7.2 
" style="fill: none; stroke: #000000; stroke-width: 0.8; stroke-linejoin: miter; stroke-linecap: square"/>
   </g>
   <g id="patch_4">
    <path d="M 431.87976 257.158895 
L 431.87976 7.2 
" style="fill: none; stroke: #000000; stroke-width: 0.8; stroke-linejoin: miter; stroke-linecap: square"/>
   </g>
   <g id="patch_5">
    <path d="M 53.328125 257.158895 
L 431.87976 257.158895 
" style="fill: none; stroke: #000000; stroke-width: 0.8; stroke-linejoin: miter; stroke-linecap: square"/>
   </g>
   <g id="patch_6">
    <path d="M 53.328125 7.2 
L 431.87976 7.2 
" style="fill: none; stroke: #000000; stroke-width: 0.8; stroke-linejoin: miter; stroke-linecap: square"/>
   </g>
  </g>
  <g id="axes_2">
   <g id="patch_7">
    <path d="M 486.647885 257.158895 
L 865.19952 257.158895 
L 865.19952 7.2 
L 486.647885 7.2 
z
" style="fill: #ffffff"/>
   </g>
   <g id="matplotlib.axis_3">
    <g id="xtick_7">
     <g id="line2d_15">
      <g>
       <use xlink:href="#mb1029932fa" x="500.385717" y="257.158895" style="stroke: #000000; stroke-width: 0.8"/>
      </g>
     </g>
     <g id="text_16">
      <!-- 0.0 -->
      <g transform="translate(492.434154 271.757332) scale(0.1 -0.1)">
       <defs>
        <path id="DejaVuSans-2e" d="M 684 794 
L 1344 794 
L 1344 0 
L 684 0 
L 684 794 
z
" transform="scale(0.015625)"/>
       </defs>
       <use xlink:href="#DejaVuSans-30"/>
       <use xlink:href="#DejaVuSans-2e" transform="translate(63.623047 0)"/>
       <use xlink:href="#DejaVuSans-30" transform="translate(95.410156 0)"/>
      </g>
     </g>
    </g>
    <g id="xtick_8">
     <g id="line2d_16">
      <g>
       <use xlink:href="#mb1029932fa" x="544.072905" y="257.158895" style="stroke: #000000; stroke-width: 0.8"/>
      </g>
     </g>
     <g id="text_17">
      <!-- 2.5 -->
      <g transform="translate(536.121343 271.757332) scale(0.1 -0.1)">
       <use xlink:href="#DejaVuSans-32"/>
       <use xlink:href="#DejaVuSans-2e" transform="translate(63.623047 0)"/>
       <use xlink:href="#DejaVuSans-35" transform="translate(95.410156 0)"/>
      </g>
     </g>
    </g>
    <g id="xtick_9">
     <g id="line2d_17">
      <g>
       <use xlink:href="#mb1029932fa" x="587.760093" y="257.158895" style="stroke: #000000; stroke-width: 0.8"/>
      </g>
     </g>
     <g id="text_18">
      <!-- 5.0 -->
      <g transform="translate(579.808531 271.757332) scale(0.1 -0.1)">
       <use xlink:href="#DejaVuSans-35"/>
       <use xlink:href="#DejaVuSans-2e" transform="translate(63.623047 0)"/>
       <use xlink:href="#DejaVuSans-30" transform="translate(95.410156 0)"/>
      </g>
     </g>
    </g>
    <g id="xtick_10">
     <g id="line2d_18">
      <g>
       <use xlink:href="#mb1029932fa" x="631.447282" y="257.158895" style="stroke: #000000; stroke-width: 0.8"/>
      </g>
     </g>
     <g id="text_19">
      <!-- 7.5 -->
      <g transform="translate(623.495719 271.757332) scale(0.1 -0.1)">
       <defs>
        <path id="DejaVuSans-37" d="M 525 4666 
L 3525 4666 
L 3525 4397 
L 1831 0 
L 1172 0 
L 2766 4134 
L 525 4134 
L 525 4666 
z
" transform="scale(0.015625)"/>
       </defs>
       <use xlink:href="#DejaVuSans-37"/>
       <use xlink:href="#DejaVuSans-2e" transform="translate(63.623047 0)"/>
       <use xlink:href="#DejaVuSans-35" transform="translate(95.410156 0)"/>
      </g>
     </g>
    </g>
    <g id="xtick_11">
     <g id="line2d_19">
      <g>
       <use xlink:href="#mb1029932fa" x="675.13447" y="257.158895" style="stroke: #000000; stroke-width: 0.8"/>
      </g>
     </g>
     <g id="text_20">
      <!-- 10.0 -->
      <g transform="translate(664.001657 271.757332) scale(0.1 -0.1)">
       <use xlink:href="#DejaVuSans-31"/>
       <use xlink:href="#DejaVuSans-30" transform="translate(63.623047 0)"/>
       <use xlink:href="#DejaVuSans-2e" transform="translate(127.246094 0)"/>
       <use xlink:href="#DejaVuSans-30" transform="translate(159.033203 0)"/>
      </g>
     </g>
    </g>
    <g id="xtick_12">
     <g id="line2d_20">
      <g>
       <use xlink:href="#mb1029932fa" x="718.821658" y="257.158895" style="stroke: #000000; stroke-width: 0.8"/>
      </g>
     </g>
     <g id="text_21">
      <!-- 12.5 -->
      <g transform="translate(707.688845 271.757332) scale(0.1 -0.1)">
       <use xlink:href="#DejaVuSans-31"/>
       <use xlink:href="#DejaVuSans-32" transform="translate(63.623047 0)"/>
       <use xlink:href="#DejaVuSans-2e" transform="translate(127.246094 0)"/>
       <use xlink:href="#DejaVuSans-35" transform="translate(159.033203 0)"/>
      </g>
     </g>
    </g>
    <g id="xtick_13">
     <g id="line2d_21">
      <g>
       <use xlink:href="#mb1029932fa" x="762.508846" y="257.158895" style="stroke: #000000; stroke-width: 0.8"/>
      </g>
     </g>
     <g id="text_22">
      <!-- 15.0 -->
      <g transform="translate(751.376034 271.757332) scale(0.1 -0.1)">
       <use xlink:href="#DejaVuSans-31"/>
       <use xlink:href="#DejaVuSans-35" transform="translate(63.623047 0)"/>
       <use xlink:href="#DejaVuSans-2e" transform="translate(127.246094 0)"/>
       <use xlink:href="#DejaVuSans-30" transform="translate(159.033203 0)"/>
      </g>
     </g>
    </g>
    <g id="xtick_14">
     <g id="line2d_22">
      <g>
       <use xlink:href="#mb1029932fa" x="806.196034" y="257.158895" style="stroke: #000000; stroke-width: 0.8"/>
      </g>
     </g>
     <g id="text_23">
      <!-- 17.5 -->
      <g transform="translate(795.063222 271.757332) scale(0.1 -0.1)">
       <use xlink:href="#DejaVuSans-31"/>
       <use xlink:href="#DejaVuSans-37" transform="translate(63.623047 0)"/>
       <use xlink:href="#DejaVuSans-2e" transform="translate(127.246094 0)"/>
       <use xlink:href="#DejaVuSans-35" transform="translate(159.033203 0)"/>
      </g>
     </g>
    </g>
    <g id="xtick_15">
     <g id="line2d_23">
      <g>
       <use xlink:href="#mb1029932fa" x="849.883223" y="257.158895" style="stroke: #000000; stroke-width: 0.8"/>
      </g>
     </g>
     <g id="text_24">
      <!-- 20.0 -->
      <g transform="translate(838.75041 271.757332) scale(0.1 -0.1)">
       <use xlink:href="#DejaVuSans-32"/>
       <use xlink:href="#DejaVuSans-30" transform="translate(63.623047 0)"/>
       <use xlink:href="#DejaVuSans-2e" transform="translate(127.246094 0)"/>
       <use xlink:href="#DejaVuSans-30" transform="translate(159.033203 0)"/>
      </g>
     </g>
    </g>
    <g id="text_25">
     <!-- wavelength [Å] -->
     <g transform="translate(637.886202 287.119832) scale(0.1 -0.1)">
      <defs>
       <path id="DejaVuSans-77" d="M 269 3500 
L 844 3500 
L 1563 769 
L 2278 3500 
L 2956 3500 
L 3675 769 
L 4391 3500 
L 4966 3500 
L 4050 0 
L 3372 0 
L 2619 2869 
L 1863 0 
L 1184 0 
L 269 3500 
z
" transform="scale(0.015625)"/>
       <path id="DejaVuSans-61" d="M 2194 1759 
Q 1497 1759 1228 1600 
Q 959 1441 959 1056 
Q 959 750 1161 570 
Q 1363 391 1709 391 
Q 2188 391 2477 730 
Q 2766 1069 2766 1631 
L 2766 1759 
L 2194 1759 
z
M 3341 1997 
L 3341 0 
L 2766 0 
L 2766 531 
Q 2569 213 2275 61 
Q 1981 -91 1556 -91 
Q 1019 -91 701 211 
Q 384 513 384 1019 
Q 384 1609 779 1909 
Q 1175 2209 1959 2209 
L 2766 2209 
L 2766 2266 
Q 2766 2663 2505 2880 
Q 2244 3097 1772 3097 
Q 1472 3097 1187 3025 
Q 903 2953 641 2809 
L 641 3341 
Q 956 3463 1253 3523 
Q 1550 3584 1831 3584 
Q 2591 3584 2966 3190 
Q 3341 2797 3341 1997 
z
" transform="scale(0.015625)"/>
       <path id="DejaVuSans-76" d="M 191 3500 
L 800 3500 
L 1894 563 
L 2988 3500 
L 3597 3500 
L 2284 0 
L 1503 0 
L 191 3500 
z
" transform="scale(0.015625)"/>
       <path id="DejaVuSans-6c" d="M 603 4863 
L 1178 4863 
L 1178 0 
L 603 0 
L 603 4863 
z
" transform="scale(0.015625)"/>
       <path id="DejaVuSans-67" d="M 2906 1791 
Q 2906 2416 2648 2759 
Q 2391 3103 1925 3103 
Q 1463 3103 1205 2759 
Q 947 2416 947 1791 
Q 947 1169 1205 825 
Q 1463 481 1925 481 
Q 2391 481 2648 825 
Q 2906 1169 2906 1791 
z
M 3481 434 
Q 3481 -459 3084 -895 
Q 2688 -1331 1869 -1331 
Q 1566 -1331 1297 -1286 
Q 1028 -1241 775 -1147 
L 775 -588 
Q 1028 -725 1275 -790 
Q 1522 -856 1778 -856 
Q 2344 -856 2625 -561 
Q 2906 -266 2906 331 
L 2906 616 
Q 2728 306 2450 153 
Q 2172 0 1784 0 
Q 1141 0 747 490 
Q 353 981 353 1791 
Q 353 2603 747 3093 
Q 1141 3584 1784 3584 
Q 2172 3584 2450 3431 
Q 2728 3278 2906 2969 
L 2906 3500 
L 3481 3500 
L 3481 434 
z
" transform="scale(0.015625)"/>
       <path id="DejaVuSans-c5" d="M 2663 5081 
Q 2663 5278 2523 5417 
Q 2384 5556 2188 5556 
Q 1988 5556 1852 5420 
Q 1716 5284 1716 5081 
Q 1716 4884 1853 4746 
Q 1991 4609 2188 4609 
Q 2384 4609 2523 4746 
Q 2663 4884 2663 5081 
z
M 2188 4044 
L 1338 1722 
L 3041 1722 
L 2188 4044 
z
M 1716 4366 
Q 1525 4494 1428 4673 
Q 1331 4853 1331 5081 
Q 1331 5441 1579 5691 
Q 1828 5941 2188 5941 
Q 2544 5941 2795 5689 
Q 3047 5438 3047 5081 
Q 3047 4863 2948 4678 
Q 2850 4494 2663 4366 
L 4325 0 
L 3669 0 
L 3244 1197 
L 1141 1197 
L 716 0 
L 50 0 
L 1716 4366 
z
" transform="scale(0.015625)"/>
      </defs>
      <use xlink:href="#DejaVuSans-77"/>
      <use xlink:href="#DejaVuSans-61" transform="translate(81.787109 0)"/>
      <use xlink:href="#DejaVuSans-76" transform="translate(143.066406 0)"/>
      <use xlink:href="#DejaVuSans-65" transform="translate(202.246094 0)"/>
      <use xlink:href="#DejaVuSans-6c" transform="translate(263.769531 0)"/>
      <use xlink:href="#DejaVuSans-65" transform="translate(291.552734 0)"/>
      <use xlink:href="#DejaVuSans-6e" transform="translate(353.076172 0)"/>
      <use xlink:href="#DejaVuSans-67" transform="translate(416.455078 0)"/>
      <use xlink:href="#DejaVuSans-74" transform="translate(479.931641 0)"/>
      <use xlink:href="#DejaVuSans-68" transform="translate(519.140625 0)"/>
      <use xlink:href="#DejaVuSans-20" transform="translate(582.519531 0)"/>
      <use xlink:href="#DejaVuSans-5b" transform="translate(614.306641 0)"/>
      <use xlink:href="#DejaVuSans-c5" transform="translate(653.320312 0)"/>
      <use xlink:href="#DejaVuSans-5d" transform="translate(721.728516 0)"/>
     </g>
    </g>
   </g>
   <g id="matplotlib.axis_4">
    <g id="ytick_8">
     <g id="line2d_24">
      <g>
       <use xlink:href="#m428c9271bd" x="486.647885" y="245.797127" style="stroke: #000000; stroke-width: 0.8"/>
      </g>
     </g>
     <g id="text_26">
      <!-- 0 -->
      <g transform="translate(473.285385 249.596346) scale(0.1 -0.1)">
       <use xlink:href="#DejaVuSans-30"/>
      </g>
     </g>
    </g>
    <g id="ytick_9">
     <g id="line2d_25">
      <g>
       <use xlink:href="#m428c9271bd" x="486.647885" y="193.232852" style="stroke: #000000; stroke-width: 0.8"/>
      </g>
     </g>
     <g id="text_27">
      <!-- 1000 -->
      <g transform="translate(454.197885 197.032071) scale(0.1 -0.1)">
       <use xlink:href="#DejaVuSans-31"/>
       <use xlink:href="#DejaVuSans-30" transform="translate(63.623047 0)"/>
       <use xlink:href="#DejaVuSans-30" transform="translate(127.246094 0)"/>
       <use xlink:href="#DejaVuSans-30" transform="translate(190.869141 0)"/>
      </g>
     </g>
    </g>
    <g id="ytick_10">
     <g id="line2d_26">
      <g>
       <use xlink:href="#m428c9271bd" x="486.647885" y="140.668578" style="stroke: #000000; stroke-width: 0.8"/>
      </g>
     </g>
     <g id="text_28">
      <!-- 2000 -->
      <g transform="translate(454.197885 144.467797) scale(0.1 -0.1)">
       <use xlink:href="#DejaVuSans-32"/>
       <use xlink:href="#DejaVuSans-30" transform="translate(63.623047 0)"/>
       <use xlink:href="#DejaVuSans-30" transform="translate(127.246094 0)"/>
       <use xlink:href="#DejaVuSans-30" transform="translate(190.869141 0)"/>
      </g>
     </g>
    </g>
    <g id="ytick_11">
     <g id="line2d_27">
      <g>
       <use xlink:href="#m428c9271bd" x="486.647885" y="88.104303" style="stroke: #000000; stroke-width: 0.8"/>
      </g>
     </g>
     <g id="text_29">
      <!-- 3000 -->
      <g transform="translate(454.197885 91.903522) scale(0.1 -0.1)">
       <use xlink:href="#DejaVuSans-33"/>
       <use xlink:href="#DejaVuSans-30" transform="translate(63.623047 0)"/>
       <use xlink:href="#DejaVuSans-30" transform="translate(127.246094 0)"/>
       <use xlink:href="#DejaVuSans-30" transform="translate(190.869141 0)"/>
      </g>
     </g>
    </g>
    <g id="ytick_12">
     <g id="line2d_28">
      <g>
       <use xlink:href="#m428c9271bd" x="486.647885" y="35.540029" style="stroke: #000000; stroke-width: 0.8"/>
      </g>
     </g>
     <g id="text_30">
      <!-- 4000 -->
      <g transform="translate(454.197885 39.339247) scale(0.1 -0.1)">
       <use xlink:href="#DejaVuSans-34"/>
       <use xlink:href="#DejaVuSans-30" transform="translate(63.623047 0)"/>
       <use xlink:href="#DejaVuSans-30" transform="translate(127.246094 0)"/>
       <use xlink:href="#DejaVuSans-30" transform="translate(190.869141 0)"/>
      </g>
     </g>
    </g>
    <g id="text_31">
     <!-- [counts] -->
     <g transform="translate(448.118197 152.791947) rotate(-90) scale(0.1 -0.1)">
      <use xlink:href="#DejaVuSans-5b"/>
      <use xlink:href="#DejaVuSans-63" transform="translate(39.013672 0)"/>
      <use xlink:href="#DejaVuSans-6f" transform="translate(93.994141 0)"/>
      <use xlink:href="#DejaVuSans-75" transform="translate(155.175781 0)"/>
      <use xlink:href="#DejaVuSans-6e" transform="translate(218.554688 0)"/>
      <use xlink:href="#DejaVuSans-74" transform="translate(281.933594 0)"/>
      <use xlink:href="#DejaVuSans-73" transform="translate(321.142578 0)"/>
      <use xlink:href="#DejaVuSans-5d" transform="translate(373.242188 0)"/>
     </g>
    </g>
   </g>
   <g id="line2d_29">
    <path d="M 503.854777 152.337847 
L 505.001904 152.337847 
L 505.001904 146.871162 
L 506.14903 146.871162 
L 506.14903 137.9878 
L 508.443282 137.935236 
L 508.443282 145.189105 
L 509.590408 145.189105 
L 509.590408 155.176318 
L 510.737534 155.176318 
L 510.737534 143.507049 
L 511.884661 143.507049 
L 511.884661 128.421102 
L 513.031787 128.421102 
L 513.031787 107.973599 
L 514.178913 107.973599 
L 514.178913 81.586333 
L 515.326039 81.586333 
L 515.326039 58.247795 
L 516.473165 58.247795 
L 516.473165 35.4349 
L 517.620291 35.4349 
L 517.620291 21.032289 
L 518.767418 21.032289 
L 518.767418 21.557932 
L 519.914544 21.557932 
L 519.914544 18.561768 
L 521.06167 18.561768 
L 521.06167 27.07718 
L 522.208796 27.07718 
L 522.208796 28.654109 
L 523.355922 28.654109 
L 523.355922 43.214413 
L 524.503048 43.214413 
L 524.503048 48.996483 
L 525.650175 48.996483 
L 525.650175 65.18628 
L 526.797301 65.18628 
L 526.797301 71.861942 
L 527.944427 71.861942 
L 527.944427 76.540163 
L 529.091553 76.540163 
L 529.091553 86.159425 
L 530.238679 86.159425 
L 530.238679 95.93638 
L 531.385805 95.93638 
L 531.385805 94.201759 
L 532.532932 94.201759 
L 532.532932 92.099188 
L 533.680058 92.099188 
L 533.680058 98.669722 
L 534.827184 98.669722 
L 534.827184 91.25816 
L 535.97431 91.25816 
L 535.97431 93.097909 
L 537.121436 93.097909 
L 537.121436 88.31456 
L 538.268562 88.31456 
L 538.268562 78.011963 
L 539.415689 78.011963 
L 539.415689 73.491435 
L 540.562815 73.491435 
L 540.562815 56.250353 
L 541.709941 56.250353 
L 541.709941 55.093939 
L 542.857067 55.093939 
L 542.857067 41.532356 
L 544.004193 41.532356 
L 544.004193 30.966937 
L 545.151319 30.966937 
L 545.151319 36.643878 
L 546.298446 36.643878 
L 546.298446 39.587478 
L 547.445572 39.587478 
L 547.445572 56.986253 
L 548.592698 56.986253 
L 548.592698 66.342694 
L 549.739824 66.342694 
L 549.739824 68.970907 
L 550.88695 68.970907 
L 550.88695 84.845318 
L 552.034076 84.845318 
L 552.034076 91.100467 
L 553.181203 91.100467 
L 553.181203 95.410737 
L 554.328329 95.410737 
L 554.328329 107.185135 
L 555.475455 107.185135 
L 555.475455 114.386441 
L 556.622581 114.386441 
L 556.622581 120.536461 
L 557.769707 120.536461 
L 557.769707 123.900574 
L 558.916833 123.900574 
L 558.916833 136.778822 
L 560.06396 136.778822 
L 560.06396 135.569843 
L 561.211086 135.569843 
L 561.211086 141.93012 
L 562.358212 141.93012 
L 562.358212 146.240391 
L 563.505338 146.240391 
L 563.505338 152.075025 
L 564.652464 152.075025 
L 564.652464 153.073747 
L 565.79959 153.073747 
L 565.79959 160.590438 
L 566.946717 160.590438 
L 566.946717 160.222488 
L 568.093843 160.222488 
L 568.093843 169.736622 
L 569.240969 169.736622 
L 569.240969 172.627657 
L 570.388095 172.627657 
L 570.388095 174.519971 
L 571.535221 174.519971 
L 571.535221 182.246919 
L 572.682347 182.246919 
L 572.682347 182.404612 
L 573.829474 182.404612 
L 573.829474 184.980261 
L 574.9766 184.980261 
L 574.9766 186.767447 
L 576.123726 186.767447 
L 576.123726 191.655924 
L 577.270852 191.655924 
L 577.270852 193.968752 
L 578.417978 193.968752 
L 578.417978 196.123888 
L 579.565104 196.123888 
L 579.565104 199.382873 
L 580.712231 199.382873 
L 580.712231 201.432879 
L 581.859357 201.432879 
L 581.859357 202.536729 
L 583.006483 202.536729 
L 583.006483 203.1675 
L 584.153609 203.1675 
L 584.153609 203.640579 
L 585.300735 203.640579 
L 585.300735 209.31752 
L 586.447861 209.31752 
L 586.447861 208.686749 
L 587.594988 208.686749 
L 587.594988 209.895727 
L 588.742114 209.895727 
L 588.742114 214.731641 
L 589.88924 214.731641 
L 589.88924 214.468819 
L 591.036366 214.468819 
L 591.036366 215.835491 
L 592.183492 215.835491 
L 592.183492 218.200883 
L 594.477745 218.148319 
L 594.477745 218.884218 
L 595.624871 218.884218 
L 595.624871 220.040632 
L 596.771997 220.040632 
L 596.771997 221.091918 
L 597.919123 221.091918 
L 597.919123 224.56116 
L 599.066249 224.56116 
L 599.066249 223.82526 
L 600.213375 223.82526 
L 600.213375 224.035517 
L 601.360502 224.035517 
L 601.360502 224.666289 
L 602.507628 224.666289 
L 602.507628 225.29706 
L 603.654754 225.29706 
L 603.654754 226.558603 
L 604.80188 226.558603 
L 604.80188 227.662452 
L 605.949006 227.662452 
L 605.949006 228.503481 
L 608.243259 228.556045 
L 608.243259 229.134252 
L 609.390385 229.134252 
L 609.390385 230.448359 
L 610.537511 230.448359 
L 610.537511 232.971444 
L 611.684637 232.971444 
L 611.684637 230.395795 
L 612.831763 230.395795 
L 612.831763 231.131694 
L 613.978889 231.131694 
L 613.978889 233.865037 
L 616.273142 233.970165 
L 616.273142 234.600937 
L 617.420268 234.600937 
L 617.420268 232.813751 
L 618.567394 232.813751 
L 618.567394 234.443244 
L 619.71452 234.443244 
L 619.71452 234.916322 
L 620.861646 234.916322 
L 620.861646 233.602215 
L 622.008773 233.602215 
L 622.008773 235.704786 
L 623.155899 235.704786 
L 623.155899 237.124022 
L 624.303025 237.124022 
L 624.303025 235.179144 
L 625.450151 235.179144 
L 625.450151 237.491972 
L 626.597277 237.491972 
L 626.597277 235.915043 
L 628.89153 235.967608 
L 628.89153 238.070179 
L 630.038656 238.070179 
L 630.038656 237.071457 
L 631.185782 237.071457 
L 631.185782 237.96505 
L 632.332908 237.96505 
L 632.332908 238.963771 
L 633.480034 238.963771 
L 633.480034 240.067621 
L 634.62716 240.067621 
L 634.62716 238.595821 
L 635.774287 238.595821 
L 635.774287 239.331721 
L 636.921413 239.331721 
L 636.921413 238.017614 
L 638.068539 238.017614 
L 638.068539 238.858643 
L 639.215665 238.858643 
L 639.215665 239.699671 
L 640.362791 239.699671 
L 640.362791 239.857364 
L 641.509917 239.857364 
L 641.509917 238.963771 
L 642.657044 238.963771 
L 642.657044 240.488135 
L 643.80417 240.488135 
L 643.80417 239.909928 
L 644.951296 239.909928 
L 644.951296 240.330442 
L 647.245548 240.330442 
L 647.245548 241.381728 
L 648.392674 241.381728 
L 648.392674 240.750957 
L 651.834053 240.856085 
L 651.834053 241.276599 
L 652.981179 241.276599 
L 652.981179 241.591985 
L 654.128305 241.591985 
L 654.128305 242.275321 
L 655.275431 242.275321 
L 655.275431 241.591985 
L 656.422558 241.591985 
L 656.422558 241.907371 
L 658.71681 241.802242 
L 658.71681 241.434292 
L 659.863936 241.434292 
L 659.863936 242.380449 
L 661.011062 242.380449 
L 661.011062 242.170192 
L 662.158188 242.170192 
L 662.158188 242.380449 
L 663.305315 242.380449 
L 663.305315 242.800963 
L 665.599567 242.748399 
L 665.599567 243.221478 
L 666.746693 243.221478 
L 666.746693 242.275321 
L 667.893819 242.275321 
L 667.893819 242.695835 
L 670.188072 242.800963 
L 670.188072 242.853528 
L 672.482324 242.800963 
L 672.482324 242.590706 
L 673.62945 242.590706 
L 673.62945 242.800963 
L 674.776576 242.800963 
L 674.776576 243.484299 
L 675.923702 243.484299 
L 675.923702 242.800963 
L 677.070829 242.800963 
L 677.070829 243.37917 
L 678.217955 243.37917 
L 678.217955 243.589428 
L 682.806459 243.589428 
L 682.806459 243.74712 
L 685.100712 243.641992 
L 685.100712 243.904813 
L 686.247838 243.904813 
L 686.247838 243.641992 
L 689.689216 243.694556 
L 689.689216 243.904813 
L 691.983469 244.009942 
L 691.983469 244.220199 
L 693.130595 244.220199 
L 693.130595 243.641992 
L 694.277721 243.641992 
L 694.277721 244.640713 
L 695.424847 244.640713 
L 695.424847 244.430456 
L 697.7191 244.377892 
L 697.7191 243.904813 
L 698.866226 243.904813 
L 698.866226 244.693277 
L 700.013352 244.693277 
L 700.013352 244.220199 
L 701.160478 244.220199 
L 701.160478 244.009942 
L 702.307604 244.009942 
L 702.307604 245.061227 
L 703.45473 245.061227 
L 703.45473 244.48302 
L 704.601857 244.48302 
L 704.601857 244.325327 
L 711.484614 244.430456 
L 711.484614 244.798406 
L 712.63174 244.798406 
L 712.63174 244.588149 
L 713.778866 244.588149 
L 713.778866 244.85097 
L 716.073118 244.956099 
L 716.073118 245.008663 
L 718.367371 245.061227 
L 718.367371 244.640713 
L 719.514497 244.640713 
L 719.514497 245.061227 
L 720.661623 245.061227 
L 720.661623 244.640713 
L 722.955875 244.535584 
L 722.955875 244.798406 
L 724.103001 244.798406 
L 724.103001 244.377892 
L 726.397254 244.48302 
L 726.397254 245.061227 
L 730.985758 245.166356 
L 730.985758 245.21892 
L 732.132885 245.21892 
L 732.132885 244.640713 
L 733.280011 244.640713 
L 733.280011 244.956099 
L 734.427137 244.956099 
L 734.427137 245.113791 
L 737.868515 245.061227 
L 737.868515 245.271484 
L 739.015642 245.271484 
L 739.015642 245.061227 
L 741.309894 245.166356 
L 741.309894 245.324049 
L 742.45702 245.324049 
L 742.45702 245.113791 
L 743.604146 245.113791 
L 743.604146 245.429177 
L 745.898399 245.429177 
L 745.898399 245.113791 
L 747.045525 245.113791 
L 747.045525 245.324049 
L 752.781156 245.271484 
L 752.781156 244.903534 
L 753.928282 244.903534 
L 753.928282 245.324049 
L 758.516786 245.271484 
L 758.516786 245.534306 
L 760.811039 245.481741 
L 760.811039 245.376613 
L 765.399543 245.429177 
L 765.399543 245.534306 
L 767.693796 245.534306 
L 767.693796 245.324049 
L 768.840922 245.324049 
L 768.840922 245.534306 
L 776.870805 245.429177 
L 776.870805 245.324049 
L 778.017931 245.324049 
L 778.017931 245.534306 
L 784.900688 245.429177 
L 784.900688 245.691998 
L 789.489193 245.58687 
L 789.489193 245.324049 
L 790.636319 245.324049 
L 790.636319 245.58687 
L 802.107581 245.639434 
L 802.107581 245.744563 
L 803.254707 245.744563 
L 803.254707 245.534306 
L 810.137464 245.639434 
L 810.137464 245.691998 
L 815.873095 245.744563 
L 815.873095 245.376613 
L 817.020221 245.376613 
L 817.020221 245.639434 
L 819.314473 245.639434 
L 819.314473 245.797127 
L 821.608726 245.691998 
L 821.608726 245.639434 
L 822.755852 245.639434 
L 822.755852 245.376613 
L 823.902978 245.376613 
L 823.902978 245.534306 
L 825.050104 245.534306 
L 825.050104 245.797127 
L 834.227114 245.744563 
L 834.227114 245.481741 
L 835.37424 245.481741 
L 835.37424 245.691998 
L 846.845501 245.691998 
L 846.845501 245.534306 
L 847.992628 245.534306 
L 847.992628 245.534306 
" clip-path="url(#pe7a8c777dd)" style="fill: none; stroke: #1f77b4; stroke-width: 1.5; stroke-linecap: square"/>
   </g>
   <g id="patch_8">
    <path d="M 486.647885 257.158895 
L 486.647885 7.2 
" style="fill: none; stroke: #000000; stroke-width: 0.8; stroke-linejoin: miter; stroke-linecap: square"/>
   </g>
   <g id="patch_9">
    <path d="M 865.19952 257.158895 
L 865.19952 7.2 
" style="fill: none; stroke: #000000; stroke-width: 0.8; stroke-linejoin: miter; stroke-linecap: square"/>
   </g>
   <g id="patch_10">
    <path d="M 486.647885 257.158895 
L 865.19952 257.158895 
" style="fill: none; stroke: #000000; stroke-width: 0.8; stroke-linejoin: miter; stroke-linecap: square"/>
   </g>
   <g id="patch_11">
    <path d="M 486.647885 7.2 
L 865.19952 7.2 
" style="fill: none; stroke: #000000; stroke-width: 0.8; stroke-linejoin: miter; stroke-linecap: square"/>
   </g>
  </g>
 </g>
 <defs>
  <clipPath id="p0a9d7c7b63">
   <rect x="53.328125" y="7.2" width="378.551635" height="249.958895"/>
  </clipPath>
  <clipPath id="pe7a8c777dd">
   <rect x="486.647885" y="7.2" width="378.551635" height="249.958895"/>
  </clipPath>
 </defs>
</svg>
