<?xml version="1.0" encoding="utf-8" standalone="no"?>
<!DOCTYPE svg PUBLIC "-//W3C//DTD SVG 1.1//EN"
  "http://www.w3.org/Graphics/SVG/1.1/DTD/svg11.dtd">
<svg xmlns:xlink="http://www.w3.org/1999/xlink" width="395.328125pt" height="268.200625pt" viewBox="0 0 395.328125 268.200625" xmlns="http://www.w3.org/2000/svg" version="1.1">
 <metadata>
  <rdf:RDF xmlns:dc="http://purl.org/dc/elements/1.1/" xmlns:cc="http://creativecommons.org/ns#" xmlns:rdf="http://www.w3.org/1999/02/22-rdf-syntax-ns#">
   <cc:Work>
    <dc:type rdf:resource="http://purl.org/dc/dcmitype/StillImage"/>
    <dc:date>2026-04-23T13:17:25.345971</dc:date>
    <dc:format>image/svg+xml</dc:format>
    <dc:creator>
     <cc:Agent>
      <dc:title>Matplotlib v3.10.8, https://matplotlib.org/</dc:title>
     </cc:Agent>
    </dc:creator>
   </cc:Work>
  </rdf:RDF>
 </metadata>
 <defs>
  <style type="text/css">*{stroke-linejoin: round; stroke-linecap: butt}</style>
 </defs>
 <g id="figure_1">
  <g id="patch_1">
   <path d="M 0 268.200625 
L 395.328125 268.200625 
L 395.328125 0 
L 0 0 
z
" style="fill: #ffffff"/>
  </g>
  <g id="axes_1">
   <g id="patch_2">
    <path d="M 53.328125 228.96 
L 388.128125 228.96 
L 388.128125 7.2 
L 53.328125 7.2 
z
" style="fill: #ffffff"/>
   </g>
   <g id="matplotlib.axis_1">
    <g id="xtick_1">
     <g id="line2d_1">
      <defs>
       <path id="mb5fb30feb5" d="M 0 0 
L 0 3.5 
" style="stroke: #000000; stroke-width: 0.8"/>
      </defs>
      <g>
       <use xlink:href="#mb5fb30feb5" x="68.546307" y="228.96" style="stroke: #000000; stroke-width: 0.8"/>
      </g>
     </g>
     <g id="text_1">
      <!-- 1 -->
      <g transform="translate(65.365057 243.558437) scale(0.1 -0.1)">
       <defs>
        <path id="DejaVuSans-31" d="M 794 531 
L 1825 531 
L 1825 4091 
L 703 3866 
L 703 4441 
L 1819 4666 
L 2450 4666 
L 2450 531 
L 3481 531 
L 3481 0 
L 794 0 
L 794 531 
z
" transform="scale(0.015625)"/>
       </defs>
       <use xlink:href="#DejaVuSans-31"/>
      </g>
     </g>
    </g>
    <g id="xtick_2">
     <g id="line2d_2">
      <g>
       <use xlink:href="#mb5fb30feb5" x="112.026826" y="228.96" style="stroke: #000000; stroke-width: 0.8"/>
      </g>
     </g>
     <g id="text_2">
      <!-- 2 -->
      <g transform="translate(108.845576 243.558437) scale(0.1 -0.1)">
       <defs>
        <path id="DejaVuSans-32" d="M 1228 531 
L 3431 531 
L 3431 0 
L 469 0 
L 469 531 
Q 828 903 1448 1529 
Q 2069 2156 2228 2338 
Q 2531 2678 2651 2914 
Q 2772 3150 2772 3378 
Q 2772 3750 2511 3984 
Q 2250 4219 1831 4219 
Q 1534 4219 1204 4116 
Q 875 4013 500 3803 
L 500 4441 
Q 881 4594 1212 4672 
Q 1544 4750 1819 4750 
Q 2544 4750 2975 4387 
Q 3406 4025 3406 3419 
Q 3406 3131 3298 2873 
Q 3191 2616 2906 2266 
Q 2828 2175 2409 1742 
Q 1991 1309 1228 531 
z
" transform="scale(0.015625)"/>
       </defs>
       <use xlink:href="#DejaVuSans-32"/>
      </g>
     </g>
    </g>
    <g id="xtick_3">
     <g id="line2d_3">
      <g>
       <use xlink:href="#mb5fb30feb5" x="155.507346" y="228.96" style="stroke: #000000; stroke-width: 0.8"/>
      </g>
     </g>
     <g id="text_3">
      <!-- 3 -->
      <g transform="translate(152.326096 243.558437) scale(0.1 -0.1)">
       <defs>
        <path id="DejaVuSans-33" d="M 2597 2516 
Q 3050 2419 3304 2112 
Q 3559 1806 3559 1356 
Q 3559 666 3084 287 
Q 2609 -91 1734 -91 
Q 1441 -91 1130 -33 
Q 819 25 488 141 
L 488 750 
Q 750 597 1062 519 
Q 1375 441 1716 441 
Q 2309 441 2620 675 
Q 2931 909 2931 1356 
Q 2931 1769 2642 2001 
Q 2353 2234 1838 2234 
L 1294 2234 
L 1294 2753 
L 1863 2753 
Q 2328 2753 2575 2939 
Q 2822 3125 2822 3475 
Q 2822 3834 2567 4026 
Q 2313 4219 1838 4219 
Q 1578 4219 1281 4162 
Q 984 4106 628 3988 
L 628 4550 
Q 988 4650 1302 4700 
Q 1616 4750 1894 4750 
Q 2613 4750 3031 4423 
Q 3450 4097 3450 3541 
Q 3450 3153 3228 2886 
Q 3006 2619 2597 2516 
z
" transform="scale(0.015625)"/>
       </defs>
       <use xlink:href="#DejaVuSans-33"/>
      </g>
     </g>
    </g>
    <g id="xtick_4">
     <g id="line2d_4">
      <g>
       <use xlink:href="#mb5fb30feb5" x="198.987865" y="228.96" style="stroke: #000000; stroke-width: 0.8"/>
      </g>
     </g>
     <g id="text_4">
      <!-- 4 -->
      <g transform="translate(195.806615 243.558437) scale(0.1 -0.1)">
       <defs>
        <path id="DejaVuSans-34" d="M 2419 4116 
L 825 1625 
L 2419 1625 
L 2419 4116 
z
M 2253 4666 
L 3047 4666 
L 3047 1625 
L 3713 1625 
L 3713 1100 
L 3047 1100 
L 3047 0 
L 2419 0 
L 2419 1100 
L 313 1100 
L 313 1709 
L 2253 4666 
z
" transform="scale(0.015625)"/>
       </defs>
       <use xlink:href="#DejaVuSans-34"/>
      </g>
     </g>
    </g>
    <g id="xtick_5">
     <g id="line2d_5">
      <g>
       <use xlink:href="#mb5fb30feb5" x="242.468385" y="228.96" style="stroke: #000000; stroke-width: 0.8"/>
      </g>
     </g>
     <g id="text_5">
      <!-- 5 -->
      <g transform="translate(239.287135 243.558437) scale(0.1 -0.1)">
       <defs>
        <path id="DejaVuSans-35" d="M 691 4666 
L 3169 4666 
L 3169 4134 
L 1269 4134 
L 1269 2991 
Q 1406 3038 1543 3061 
Q 1681 3084 1819 3084 
Q 2600 3084 3056 2656 
Q 3513 2228 3513 1497 
Q 3513 744 3044 326 
Q 2575 -91 1722 -91 
Q 1428 -91 1123 -41 
Q 819 9 494 109 
L 494 744 
Q 775 591 1075 516 
Q 1375 441 1709 441 
Q 2250 441 2565 725 
Q 2881 1009 2881 1497 
Q 2881 1984 2565 2268 
Q 2250 2553 1709 2553 
Q 1456 2553 1204 2497 
Q 953 2441 691 2322 
L 691 4666 
z
" transform="scale(0.015625)"/>
       </defs>
       <use xlink:href="#DejaVuSans-35"/>
      </g>
     </g>
    </g>
    <g id="xtick_6">
     <g id="line2d_6">
      <g>
       <use xlink:href="#mb5fb30feb5" x="285.948904" y="228.96" style="stroke: #000000; stroke-width: 0.8"/>
      </g>
     </g>
     <g id="text_6">
      <!-- 6 -->
      <g transform="translate(282.767654 243.558437) scale(0.1 -0.1)">
       <defs>
        <path id="DejaVuSans-36" d="M 2113 2584 
Q 1688 2584 1439 2293 
Q 1191 2003 1191 1497 
Q 1191 994 1439 701 
Q 1688 409 2113 409 
Q 2538 409 2786 701 
Q 3034 994 3034 1497 
Q 3034 2003 2786 2293 
Q 2538 2584 2113 2584 
z
M 3366 4563 
L 3366 3988 
Q 3128 4100 2886 4159 
Q 2644 4219 2406 4219 
Q 1781 4219 1451 3797 
Q 1122 3375 1075 2522 
Q 1259 2794 1537 2939 
Q 1816 3084 2150 3084 
Q 2853 3084 3261 2657 
Q 3669 2231 3669 1497 
Q 3669 778 3244 343 
Q 2819 -91 2113 -91 
Q 1303 -91 875 529 
Q 447 1150 447 2328 
Q 447 3434 972 4092 
Q 1497 4750 2381 4750 
Q 2619 4750 2861 4703 
Q 3103 4656 3366 4563 
z
" transform="scale(0.015625)"/>
       </defs>
       <use xlink:href="#DejaVuSans-36"/>
      </g>
     </g>
    </g>
    <g id="xtick_7">
     <g id="line2d_7">
      <g>
       <use xlink:href="#mb5fb30feb5" x="329.429424" y="228.96" style="stroke: #000000; stroke-width: 0.8"/>
      </g>
     </g>
     <g id="text_7">
      <!-- 7 -->
      <g transform="translate(326.248174 243.558437) scale(0.1 -0.1)">
       <defs>
        <path id="DejaVuSans-37" d="M 525 4666 
L 3525 4666 
L 3525 4397 
L 1831 0 
L 1172 0 
L 2766 4134 
L 525 4134 
L 525 4666 
z
" transform="scale(0.015625)"/>
       </defs>
       <use xlink:href="#DejaVuSans-37"/>
      </g>
     </g>
    </g>
    <g id="xtick_8">
     <g id="line2d_8">
      <g>
       <use xlink:href="#mb5fb30feb5" x="372.909943" y="228.96" style="stroke: #000000; stroke-width: 0.8"/>
      </g>
     </g>
     <g id="text_8">
      <!-- 8 -->
      <g transform="translate(369.728693 243.558437) scale(0.1 -0.1)">
       <defs>
        <path id="DejaVuSans-38" d="M 2034 2216 
Q 1584 2216 1326 1975 
Q 1069 1734 1069 1313 
Q 1069 891 1326 650 
Q 1584 409 2034 409 
Q 2484 409 2743 651 
Q 3003 894 3003 1313 
Q 3003 1734 2745 1975 
Q 2488 2216 2034 2216 
z
M 1403 2484 
Q 997 2584 770 2862 
Q 544 3141 544 3541 
Q 544 4100 942 4425 
Q 1341 4750 2034 4750 
Q 2731 4750 3128 4425 
Q 3525 4100 3525 3541 
Q 3525 3141 3298 2862 
Q 3072 2584 2669 2484 
Q 3125 2378 3379 2068 
Q 3634 1759 3634 1313 
Q 3634 634 3220 271 
Q 2806 -91 2034 -91 
Q 1263 -91 848 271 
Q 434 634 434 1313 
Q 434 1759 690 2068 
Q 947 2378 1403 2484 
z
M 1172 3481 
Q 1172 3119 1398 2916 
Q 1625 2713 2034 2713 
Q 2441 2713 2670 2916 
Q 2900 3119 2900 3481 
Q 2900 3844 2670 4047 
Q 2441 4250 2034 4250 
Q 1625 4250 1398 4047 
Q 1172 3844 1172 3481 
z
" transform="scale(0.015625)"/>
       </defs>
       <use xlink:href="#DejaVuSans-38"/>
      </g>
     </g>
    </g>
    <g id="text_9">
     <!-- wavelength [Å] -->
     <g transform="translate(182.690625 258.920937) scale(0.1 -0.1)">
      <defs>
       <path id="DejaVuSans-77" d="M 269 3500 
L 844 3500 
L 1563 769 
L 2278 3500 
L 2956 3500 
L 3675 769 
L 4391 3500 
L 4966 3500 
L 4050 0 
L 3372 0 
L 2619 2869 
L 1863 0 
L 1184 0 
L 269 3500 
z
" transform="scale(0.015625)"/>
       <path id="DejaVuSans-61" d="M 2194 1759 
Q 1497 1759 1228 1600 
Q 959 1441 959 1056 
Q 959 750 1161 570 
Q 1363 391 1709 391 
Q 2188 391 2477 730 
Q 2766 1069 2766 1631 
L 2766 1759 
L 2194 1759 
z
M 3341 1997 
L 3341 0 
L 2766 0 
L 2766 531 
Q 2569 213 2275 61 
Q 1981 -91 1556 -91 
Q 1019 -91 701 211 
Q 384 513 384 1019 
Q 384 1609 779 1909 
Q 1175 2209 1959 2209 
L 2766 2209 
L 2766 2266 
Q 2766 2663 2505 2880 
Q 2244 3097 1772 3097 
Q 1472 3097 1187 3025 
Q 903 2953 641 2809 
L 641 3341 
Q 956 3463 1253 3523 
Q 1550 3584 1831 3584 
Q 2591 3584 2966 3190 
Q 3341 2797 3341 1997 
z
" transform="scale(0.015625)"/>
       <path id="DejaVuSans-76" d="M 191 3500 
L 800 3500 
L 1894 563 
L 2988 3500 
L 3597 3500 
L 2284 0 
L 1503 0 
L 191 3500 
z
" transform="scale(0.015625)"/>
       <path id="DejaVuSans-65" d="M 3597 1894 
L 3597 1613 
L 953 1613 
Q 991 1019 1311 708 
Q 1631 397 2203 397 
Q 2534 397 2845 478 
Q 3156 559 3463 722 
L 3463 178 
Q 3153 47 2828 -22 
Q 2503 -91 2169 -91 
Q 1331 -91 842 396 
Q 353 884 353 1716 
Q 353 2575 817 3079 
Q 1281 3584 2069 3584 
Q 2775 3584 3186 3129 
Q 3597 2675 3597 1894 
z
M 3022 2063 
Q 3016 2534 2758 2815 
Q 2500 3097 2075 3097 
Q 1594 3097 1305 2825 
Q 1016 2553 972 2059 
L 3022 2063 
z
" transform="scale(0.015625)"/>
       <path id="DejaVuSans-6c" d="M 603 4863 
L 1178 4863 
L 1178 0 
L 603 0 
L 603 4863 
z
" transform="scale(0.015625)"/>
       <path id="DejaVuSans-6e" d="M 3513 2113 
L 3513 0 
L 2938 0 
L 2938 2094 
Q 2938 2591 2744 2837 
Q 2550 3084 2163 3084 
Q 1697 3084 1428 2787 
Q 1159 2491 1159 1978 
L 1159 0 
L 581 0 
L 581 3500 
L 1159 3500 
L 1159 2956 
Q 1366 3272 1645 3428 
Q 1925 3584 2291 3584 
Q 2894 3584 3203 3211 
Q 3513 2838 3513 2113 
z
" transform="scale(0.015625)"/>
       <path id="DejaVuSans-67" d="M 2906 1791 
Q 2906 2416 2648 2759 
Q 2391 3103 1925 3103 
Q 1463 3103 1205 2759 
Q 947 2416 947 1791 
Q 947 1169 1205 825 
Q 1463 481 1925 481 
Q 2391 481 2648 825 
Q 2906 1169 2906 1791 
z
M 3481 434 
Q 3481 -459 3084 -895 
Q 2688 -1331 1869 -1331 
Q 1566 -1331 1297 -1286 
Q 1028 -1241 775 -1147 
L 775 -588 
Q 1028 -725 1275 -790 
Q 1522 -856 1778 -856 
Q 2344 -856 2625 -561 
Q 2906 -266 2906 331 
L 2906 616 
Q 2728 306 2450 153 
Q 2172 0 1784 0 
Q 1141 0 747 490 
Q 353 981 353 1791 
Q 353 2603 747 3093 
Q 1141 3584 1784 3584 
Q 2172 3584 2450 3431 
Q 2728 3278 2906 2969 
L 2906 3500 
L 3481 3500 
L 3481 434 
z
" transform="scale(0.015625)"/>
       <path id="DejaVuSans-74" d="M 1172 4494 
L 1172 3500 
L 2356 3500 
L 2356 3053 
L 1172 3053 
L 1172 1153 
Q 1172 725 1289 603 
Q 1406 481 1766 481 
L 2356 481 
L 2356 0 
L 1766 0 
Q 1100 0 847 248 
Q 594 497 594 1153 
L 594 3053 
L 172 3053 
L 172 3500 
L 594 3500 
L 594 4494 
L 1172 4494 
z
" transform="scale(0.015625)"/>
       <path id="DejaVuSans-68" d="M 3513 2113 
L 3513 0 
L 2938 0 
L 2938 2094 
Q 2938 2591 2744 2837 
Q 2550 3084 2163 3084 
Q 1697 3084 1428 2787 
Q 1159 2491 1159 1978 
L 1159 0 
L 581 0 
L 581 4863 
L 1159 4863 
L 1159 2956 
Q 1366 3272 1645 3428 
Q 1925 3584 2291 3584 
Q 2894 3584 3203 3211 
Q 3513 2838 3513 2113 
z
" transform="scale(0.015625)"/>
       <path id="DejaVuSans-20" transform="scale(0.015625)"/>
       <path id="DejaVuSans-5b" d="M 550 4863 
L 1875 4863 
L 1875 4416 
L 1125 4416 
L 1125 -397 
L 1875 -397 
L 1875 -844 
L 550 -844 
L 550 4863 
z
" transform="scale(0.015625)"/>
       <path id="DejaVuSans-c5" d="M 2663 5081 
Q 2663 5278 2523 5417 
Q 2384 5556 2188 5556 
Q 1988 5556 1852 5420 
Q 1716 5284 1716 5081 
Q 1716 4884 1853 4746 
Q 1991 4609 2188 4609 
Q 2384 4609 2523 4746 
Q 2663 4884 2663 5081 
z
M 2188 4044 
L 1338 1722 
L 3041 1722 
L 2188 4044 
z
M 1716 4366 
Q 1525 4494 1428 4673 
Q 1331 4853 1331 5081 
Q 1331 5441 1579 5691 
Q 1828 5941 2188 5941 
Q 2544 5941 2795 5689 
Q 3047 5438 3047 5081 
Q 3047 4863 2948 4678 
Q 2850 4494 2663 4366 
L 4325 0 
L 3669 0 
L 3244 1197 
L 1141 1197 
L 716 0 
L 50 0 
L 1716 4366 
z
" transform="scale(0.015625)"/>
       <path id="DejaVuSans-5d" d="M 1947 4863 
L 1947 -844 
L 622 -844 
L 622 -397 
L 1369 -397 
L 1369 4416 
L 622 4416 
L 622 4863 
L 1947 4863 
z
" transform="scale(0.015625)"/>
      </defs>
      <use xlink:href="#DejaVuSans-77"/>
      <use xlink:href="#DejaVuSans-61" transform="translate(81.787109 0)"/>
      <use xlink:href="#DejaVuSans-76" transform="translate(143.066406 0)"/>
      <use xlink:href="#DejaVuSans-65" transform="translate(202.246094 0)"/>
      <use xlink:href="#DejaVuSans-6c" transform="translate(263.769531 0)"/>
      <use xlink:href="#DejaVuSans-65" transform="translate(291.552734 0)"/>
      <use xlink:href="#DejaVuSans-6e" transform="translate(353.076172 0)"/>
      <use xlink:href="#DejaVuSans-67" transform="translate(416.455078 0)"/>
      <use xlink:href="#DejaVuSans-74" transform="translate(479.931641 0)"/>
      <use xlink:href="#DejaVuSans-68" transform="translate(519.140625 0)"/>
      <use xlink:href="#DejaVuSans-20" transform="translate(582.519531 0)"/>
      <use xlink:href="#DejaVuSans-5b" transform="translate(614.306641 0)"/>
      <use xlink:href="#DejaVuSans-c5" transform="translate(653.320312 0)"/>
      <use xlink:href="#DejaVuSans-5d" transform="translate(721.728516 0)"/>
     </g>
    </g>
   </g>
   <g id="matplotlib.axis_2">
    <g id="ytick_1">
     <g id="line2d_9">
      <defs>
       <path id="m9311ed8639" d="M 0 0 
L -3.5 0 
" style="stroke: #000000; stroke-width: 0.8"/>
      </defs>
      <g>
       <use xlink:href="#m9311ed8639" x="53.328125" y="218.88" style="stroke: #000000; stroke-width: 0.8"/>
      </g>
     </g>
     <g id="text_10">
      <!-- 0 -->
      <g transform="translate(39.965625 222.679219) scale(0.1 -0.1)">
       <defs>
        <path id="DejaVuSans-30" d="M 2034 4250 
Q 1547 4250 1301 3770 
Q 1056 3291 1056 2328 
Q 1056 1369 1301 889 
Q 1547 409 2034 409 
Q 2525 409 2770 889 
Q 3016 1369 3016 2328 
Q 3016 3291 2770 3770 
Q 2525 4250 2034 4250 
z
M 2034 4750 
Q 2819 4750 3233 4129 
Q 3647 3509 3647 2328 
Q 3647 1150 3233 529 
Q 2819 -91 2034 -91 
Q 1250 -91 836 529 
Q 422 1150 422 2328 
Q 422 3509 836 4129 
Q 1250 4750 2034 4750 
z
" transform="scale(0.015625)"/>
       </defs>
       <use xlink:href="#DejaVuSans-30"/>
      </g>
     </g>
    </g>
    <g id="ytick_2">
     <g id="line2d_10">
      <g>
       <use xlink:href="#m9311ed8639" x="53.328125" y="191.852248" style="stroke: #000000; stroke-width: 0.8"/>
      </g>
     </g>
     <g id="text_11">
      <!-- 1000 -->
      <g transform="translate(20.878125 195.651467) scale(0.1 -0.1)">
       <use xlink:href="#DejaVuSans-31"/>
       <use xlink:href="#DejaVuSans-30" transform="translate(63.623047 0)"/>
       <use xlink:href="#DejaVuSans-30" transform="translate(127.246094 0)"/>
       <use xlink:href="#DejaVuSans-30" transform="translate(190.869141 0)"/>
      </g>
     </g>
    </g>
    <g id="ytick_3">
     <g id="line2d_11">
      <g>
       <use xlink:href="#m9311ed8639" x="53.328125" y="164.824497" style="stroke: #000000; stroke-width: 0.8"/>
      </g>
     </g>
     <g id="text_12">
      <!-- 2000 -->
      <g transform="translate(20.878125 168.623715) scale(0.1 -0.1)">
       <use xlink:href="#DejaVuSans-32"/>
       <use xlink:href="#DejaVuSans-30" transform="translate(63.623047 0)"/>
       <use xlink:href="#DejaVuSans-30" transform="translate(127.246094 0)"/>
       <use xlink:href="#DejaVuSans-30" transform="translate(190.869141 0)"/>
      </g>
     </g>
    </g>
    <g id="ytick_4">
     <g id="line2d_12">
      <g>
       <use xlink:href="#m9311ed8639" x="53.328125" y="137.796745" style="stroke: #000000; stroke-width: 0.8"/>
      </g>
     </g>
     <g id="text_13">
      <!-- 3000 -->
      <g transform="translate(20.878125 141.595964) scale(0.1 -0.1)">
       <use xlink:href="#DejaVuSans-33"/>
       <use xlink:href="#DejaVuSans-30" transform="translate(63.623047 0)"/>
       <use xlink:href="#DejaVuSans-30" transform="translate(127.246094 0)"/>
       <use xlink:href="#DejaVuSans-30" transform="translate(190.869141 0)"/>
      </g>
     </g>
    </g>
    <g id="ytick_5">
     <g id="line2d_13">
      <g>
       <use xlink:href="#m9311ed8639" x="53.328125" y="110.768993" style="stroke: #000000; stroke-width: 0.8"/>
      </g>
     </g>
     <g id="text_14">
      <!-- 4000 -->
      <g transform="translate(20.878125 114.568212) scale(0.1 -0.1)">
       <use xlink:href="#DejaVuSans-34"/>
       <use xlink:href="#DejaVuSans-30" transform="translate(63.623047 0)"/>
       <use xlink:href="#DejaVuSans-30" transform="translate(127.246094 0)"/>
       <use xlink:href="#DejaVuSans-30" transform="translate(190.869141 0)"/>
      </g>
     </g>
    </g>
    <g id="ytick_6">
     <g id="line2d_14">
      <g>
       <use xlink:href="#m9311ed8639" x="53.328125" y="83.741241" style="stroke: #000000; stroke-width: 0.8"/>
      </g>
     </g>
     <g id="text_15">
      <!-- 5000 -->
      <g transform="translate(20.878125 87.54046) scale(0.1 -0.1)">
       <use xlink:href="#DejaVuSans-35"/>
       <use xlink:href="#DejaVuSans-30" transform="translate(63.623047 0)"/>
       <use xlink:href="#DejaVuSans-30" transform="translate(127.246094 0)"/>
       <use xlink:href="#DejaVuSans-30" transform="translate(190.869141 0)"/>
      </g>
     </g>
    </g>
    <g id="ytick_7">
     <g id="line2d_15">
      <g>
       <use xlink:href="#m9311ed8639" x="53.328125" y="56.71349" style="stroke: #000000; stroke-width: 0.8"/>
      </g>
     </g>
     <g id="text_16">
      <!-- 6000 -->
      <g transform="translate(20.878125 60.512708) scale(0.1 -0.1)">
       <use xlink:href="#DejaVuSans-36"/>
       <use xlink:href="#DejaVuSans-30" transform="translate(63.623047 0)"/>
       <use xlink:href="#DejaVuSans-30" transform="translate(127.246094 0)"/>
       <use xlink:href="#DejaVuSans-30" transform="translate(190.869141 0)"/>
      </g>
     </g>
    </g>
    <g id="ytick_8">
     <g id="line2d_16">
      <g>
       <use xlink:href="#m9311ed8639" x="53.328125" y="29.685738" style="stroke: #000000; stroke-width: 0.8"/>
      </g>
     </g>
     <g id="text_17">
      <!-- 7000 -->
      <g transform="translate(20.878125 33.484957) scale(0.1 -0.1)">
       <use xlink:href="#DejaVuSans-37"/>
       <use xlink:href="#DejaVuSans-30" transform="translate(63.623047 0)"/>
       <use xlink:href="#DejaVuSans-30" transform="translate(127.246094 0)"/>
       <use xlink:href="#DejaVuSans-30" transform="translate(190.869141 0)"/>
      </g>
     </g>
    </g>
    <g id="text_18">
     <!-- [counts] -->
     <g transform="translate(14.798438 138.6925) rotate(-90) scale(0.1 -0.1)">
      <defs>
       <path id="DejaVuSans-63" d="M 3122 3366 
L 3122 2828 
Q 2878 2963 2633 3030 
Q 2388 3097 2138 3097 
Q 1578 3097 1268 2742 
Q 959 2388 959 1747 
Q 959 1106 1268 751 
Q 1578 397 2138 397 
Q 2388 397 2633 464 
Q 2878 531 3122 666 
L 3122 134 
Q 2881 22 2623 -34 
Q 2366 -91 2075 -91 
Q 1284 -91 818 406 
Q 353 903 353 1747 
Q 353 2603 823 3093 
Q 1294 3584 2113 3584 
Q 2378 3584 2631 3529 
Q 2884 3475 3122 3366 
z
" transform="scale(0.015625)"/>
       <path id="DejaVuSans-6f" d="M 1959 3097 
Q 1497 3097 1228 2736 
Q 959 2375 959 1747 
Q 959 1119 1226 758 
Q 1494 397 1959 397 
Q 2419 397 2687 759 
Q 2956 1122 2956 1747 
Q 2956 2369 2687 2733 
Q 2419 3097 1959 3097 
z
M 1959 3584 
Q 2709 3584 3137 3096 
Q 3566 2609 3566 1747 
Q 3566 888 3137 398 
Q 2709 -91 1959 -91 
Q 1206 -91 779 398 
Q 353 888 353 1747 
Q 353 2609 779 3096 
Q 1206 3584 1959 3584 
z
" transform="scale(0.015625)"/>
       <path id="DejaVuSans-75" d="M 544 1381 
L 544 3500 
L 1119 3500 
L 1119 1403 
Q 1119 906 1312 657 
Q 1506 409 1894 409 
Q 2359 409 2629 706 
Q 2900 1003 2900 1516 
L 2900 3500 
L 3475 3500 
L 3475 0 
L 2900 0 
L 2900 538 
Q 2691 219 2414 64 
Q 2138 -91 1772 -91 
Q 1169 -91 856 284 
Q 544 659 544 1381 
z
M 1991 3584 
L 1991 3584 
z
" transform="scale(0.015625)"/>
       <path id="DejaVuSans-73" d="M 2834 3397 
L 2834 2853 
Q 2591 2978 2328 3040 
Q 2066 3103 1784 3103 
Q 1356 3103 1142 2972 
Q 928 2841 928 2578 
Q 928 2378 1081 2264 
Q 1234 2150 1697 2047 
L 1894 2003 
Q 2506 1872 2764 1633 
Q 3022 1394 3022 966 
Q 3022 478 2636 193 
Q 2250 -91 1575 -91 
Q 1294 -91 989 -36 
Q 684 19 347 128 
L 347 722 
Q 666 556 975 473 
Q 1284 391 1588 391 
Q 1994 391 2212 530 
Q 2431 669 2431 922 
Q 2431 1156 2273 1281 
Q 2116 1406 1581 1522 
L 1381 1569 
Q 847 1681 609 1914 
Q 372 2147 372 2553 
Q 372 3047 722 3315 
Q 1072 3584 1716 3584 
Q 2034 3584 2315 3537 
Q 2597 3491 2834 3397 
z
" transform="scale(0.015625)"/>
      </defs>
      <use xlink:href="#DejaVuSans-5b"/>
      <use xlink:href="#DejaVuSans-63" transform="translate(39.013672 0)"/>
      <use xlink:href="#DejaVuSans-6f" transform="translate(93.994141 0)"/>
      <use xlink:href="#DejaVuSans-75" transform="translate(155.175781 0)"/>
      <use xlink:href="#DejaVuSans-6e" transform="translate(218.554688 0)"/>
      <use xlink:href="#DejaVuSans-74" transform="translate(281.933594 0)"/>
      <use xlink:href="#DejaVuSans-73" transform="translate(321.142578 0)"/>
      <use xlink:href="#DejaVuSans-5d" transform="translate(373.242188 0)"/>
     </g>
    </g>
   </g>
   <g id="line2d_17">
    <path d="M 68.546307 218.88 
L 77.677216 218.852972 
L 77.677216 218.63675 
L 78.438125 218.63675 
L 78.438125 218.825944 
L 79.199034 218.825944 
L 79.199034 218.690806 
L 82.24267 218.771889 
L 82.24267 218.474584 
L 83.00358 218.474584 
L 83.00358 218.123223 
L 83.764489 218.123223 
L 83.764489 218.63675 
L 86.047216 218.63675 
L 86.047216 218.285389 
L 87.569034 218.312417 
L 87.569034 217.501585 
L 88.329943 217.501585 
L 88.329943 217.961056 
L 89.090852 217.961056 
L 89.090852 218.312417 
L 89.851761 218.312417 
L 89.851761 218.015112 
L 90.61267 218.015112 
L 90.61267 218.177278 
L 91.37358 218.177278 
L 91.37358 217.339418 
L 92.134489 217.339418 
L 92.134489 217.825918 
L 92.895398 217.825918 
L 92.895398 217.663751 
L 94.417216 217.690779 
L 94.417216 216.934002 
L 95.178125 216.934002 
L 95.178125 217.501585 
L 95.939034 217.501585 
L 95.939034 216.96103 
L 96.699943 216.96103 
L 96.699943 215.744781 
L 97.460852 215.744781 
L 97.460852 216.663724 
L 98.221761 216.663724 
L 98.221761 216.879946 
L 98.98267 216.879946 
L 98.98267 216.150197 
L 99.74358 216.150197 
L 99.74358 216.47453 
L 100.504489 216.47453 
L 100.504489 214.501504 
L 101.265398 214.501504 
L 101.265398 215.63667 
L 102.026307 215.63667 
L 102.026307 213.393366 
L 102.787216 213.393366 
L 102.787216 214.528532 
L 103.548125 214.528532 
L 103.548125 213.82581 
L 104.309034 213.82581 
L 104.309034 211.933868 
L 105.069943 211.933868 
L 105.069943 211.258174 
L 105.830852 211.258174 
L 105.830852 211.744674 
L 106.591761 211.744674 
L 106.591761 210.447341 
L 107.35267 210.447341 
L 107.35267 207.744566 
L 108.874489 207.771594 
L 108.874489 206.933734 
L 109.635398 206.933734 
L 109.635398 202.960654 
L 110.396307 202.960654 
L 110.396307 201.4471 
L 111.157216 201.4471 
L 111.157216 201.068712 
L 111.918125 201.068712 
L 111.918125 198.987575 
L 112.679034 198.987575 
L 112.679034 194.23069 
L 113.439943 194.23069 
L 113.439943 192.473887 
L 114.200852 192.473887 
L 114.200852 191.392777 
L 114.961761 191.392777 
L 114.961761 187.74403 
L 115.72267 187.74403 
L 115.72267 182.230369 
L 116.48358 182.230369 
L 116.48358 182.716868 
L 117.244489 182.716868 
L 117.244489 175.203153 
L 118.766307 175.311264 
L 118.766307 173.230127 
L 119.527216 173.230127 
L 119.527216 167.581327 
L 120.288125 167.581327 
L 120.288125 166.22994 
L 121.049034 166.22994 
L 121.049034 163.229859 
L 121.809943 163.229859 
L 121.809943 158.716225 
L 122.570852 158.716225 
L 122.570852 155.013423 
L 123.331761 155.013423 
L 123.331761 154.553951 
L 124.09267 154.553951 
L 124.09267 144.607738 
L 124.85358 144.607738 
L 124.85358 143.310406 
L 125.614489 143.310406 
L 125.614489 145.580737 
L 126.375398 145.580737 
L 126.375398 131.256029 
L 127.136307 131.256029 
L 127.136307 125.093702 
L 127.897216 125.093702 
L 127.897216 121.769288 
L 128.658125 121.769288 
L 128.658125 123.228787 
L 129.419034 123.228787 
L 129.419034 113.255546 
L 130.179943 113.255546 
L 130.179943 111.174409 
L 130.940852 111.174409 
L 130.940852 107.336469 
L 131.701761 107.336469 
L 131.701761 100.255198 
L 132.46267 100.255198 
L 132.46267 106.039137 
L 133.22358 106.039137 
L 133.22358 105.201276 
L 133.984489 105.201276 
L 133.984489 83.362853 
L 134.745398 83.362853 
L 134.745398 73.65989 
L 135.506307 73.65989 
L 135.506307 84.011519 
L 136.267216 84.011519 
L 136.267216 63.037984 
L 137.028125 63.037984 
L 137.028125 73.119335 
L 137.789034 73.119335 
L 137.789034 62.254179 
L 138.549943 62.254179 
L 138.549943 81.011439 
L 139.310852 81.011439 
L 139.310852 63.037984 
L 140.071761 63.037984 
L 140.071761 65.36237 
L 140.83267 65.36237 
L 140.83267 62.36229 
L 142.354489 62.443373 
L 142.354489 59.037876 
L 143.115398 59.037876 
L 143.115398 59.902764 
L 143.876307 59.902764 
L 143.876307 63.254206 
L 144.637216 63.254206 
L 144.637216 39.118423 
L 145.398125 39.118423 
L 145.398125 58.713543 
L 146.159034 58.713543 
L 146.159034 55.686435 
L 146.919943 55.686435 
L 146.919943 45.388862 
L 147.680852 45.388862 
L 147.680852 70.41656 
L 148.441761 70.41656 
L 148.441761 37.794064 
L 149.20267 37.794064 
L 149.20267 57.929739 
L 149.96358 57.929739 
L 149.96358 52.578244 
L 150.724489 52.578244 
L 150.724489 41.091449 
L 151.485398 41.091449 
L 151.485398 61.821735 
L 152.246307 61.821735 
L 152.246307 47.010527 
L 153.007216 47.010527 
L 153.007216 52.49716 
L 153.768125 52.49716 
L 153.768125 55.470213 
L 154.529034 55.470213 
L 154.529034 46.740249 
L 155.289943 46.740249 
L 155.289943 17.28 
L 156.050852 17.28 
L 156.050852 73.605835 
L 156.811761 73.605835 
L 156.811761 38.361646 
L 157.57267 38.361646 
L 157.57267 55.767518 
L 158.33358 55.767518 
L 158.33358 58.956793 
L 159.094489 58.956793 
L 159.094489 43.118531 
L 159.855398 43.118531 
L 159.855398 67.984062 
L 160.616307 67.984062 
L 160.616307 39.442756 
L 161.377216 39.442756 
L 161.377216 56.47024 
L 162.138125 56.47024 
L 162.138125 53.632326 
L 162.899034 53.632326 
L 162.899034 39.226534 
L 163.659943 39.226534 
L 163.659943 47.713248 
L 164.420852 47.713248 
L 164.420852 55.253991 
L 165.181761 55.253991 
L 165.181761 36.253482 
L 165.94267 36.253482 
L 165.94267 49.091664 
L 166.70358 49.091664 
L 166.70358 75.57886 
L 167.464489 75.57886 
L 167.464489 32.469596 
L 168.225398 32.469596 
L 168.225398 50.686301 
L 168.986307 50.686301 
L 168.986307 52.362022 
L 169.747216 52.362022 
L 169.747216 60.416292 
L 170.508125 60.416292 
L 170.508125 58.172988 
L 171.269034 58.172988 
L 171.269034 65.470481 
L 172.029943 65.470481 
L 172.029943 61.03793 
L 172.790852 61.03793 
L 172.790852 54.145853 
L 173.551761 54.145853 
L 173.551761 76.06536 
L 174.31267 76.06536 
L 174.31267 63.281233 
L 175.07358 63.281233 
L 175.07358 79.497884 
L 175.834489 79.497884 
L 175.834489 77.14647 
L 176.595398 77.14647 
L 176.595398 71.173337 
L 177.356307 71.173337 
L 177.356307 74.524778 
L 178.117216 74.524778 
L 178.117216 76.578887 
L 178.878125 76.578887 
L 178.878125 78.335691 
L 179.639034 78.335691 
L 179.639034 84.200713 
L 180.399943 84.200713 
L 180.399943 75.362638 
L 181.160852 75.362638 
L 181.160852 86.335906 
L 181.921761 86.335906 
L 181.921761 92.336066 
L 182.68267 92.336066 
L 182.68267 84.200713 
L 183.44358 84.200713 
L 183.44358 100.147087 
L 184.204489 100.147087 
L 184.204489 96.606451 
L 184.965398 96.606451 
L 184.965398 86.822405 
L 185.726307 86.822405 
L 185.726307 98.336227 
L 186.487216 98.336227 
L 186.487216 101.79578 
L 187.248125 101.79578 
L 187.248125 109.012189 
L 188.009034 109.012189 
L 188.009034 77.038359 
L 188.769943 77.038359 
L 188.769943 110.904132 
L 189.530852 110.904132 
L 189.530852 95.17398 
L 190.291761 95.17398 
L 190.291761 97.741617 
L 191.05267 97.741617 
L 191.05267 123.120676 
L 191.81358 123.120676 
L 191.81358 112.01227 
L 192.574489 112.01227 
L 192.574489 115.147489 
L 193.335398 115.147489 
L 193.335398 126.580228 
L 194.096307 126.580228 
L 194.096307 90.173846 
L 194.857216 90.173846 
L 194.857216 116.147516 
L 195.618125 116.147516 
L 195.618125 116.688071 
L 196.379034 116.688071 
L 196.379034 111.174409 
L 197.139943 111.174409 
L 197.139943 114.444767 
L 197.900852 114.444767 
L 197.900852 121.417927 
L 198.661761 121.417927 
L 198.661761 118.958402 
L 199.42267 118.958402 
L 199.42267 125.553173 
L 200.18358 125.553173 
L 200.18358 125.904534 
L 200.944489 125.904534 
L 200.944489 120.201679 
L 201.705398 120.201679 
L 201.705398 128.499198 
L 202.466307 128.499198 
L 202.466307 125.174785 
L 203.227216 125.174785 
L 203.227216 143.74285 
L 203.988125 143.74285 
L 203.988125 132.742555 
L 204.749034 132.742555 
L 204.749034 127.904588 
L 205.509943 127.904588 
L 205.509943 125.553173 
L 206.270852 125.553173 
L 206.270852 133.012833 
L 207.031761 133.012833 
L 207.031761 133.202027 
L 208.55358 133.310138 
L 208.55358 139.526521 
L 209.314489 139.526521 
L 209.314489 136.796718 
L 210.836307 136.823746 
L 210.836307 141.013047 
L 211.597216 141.013047 
L 211.597216 139.391382 
L 212.358125 139.391382 
L 212.358125 138.364328 
L 213.119034 138.364328 
L 213.119034 152.013342 
L 213.879943 152.013342 
L 213.879943 135.175053 
L 214.640852 135.175053 
L 214.640852 148.31054 
L 215.401761 148.31054 
L 215.401761 130.607363 
L 216.16267 130.607363 
L 216.16267 159.25678 
L 216.92358 159.25678 
L 216.92358 138.09405 
L 217.684489 138.09405 
L 217.684489 147.175375 
L 218.445398 147.175375 
L 218.445398 149.337595 
L 219.206307 149.337595 
L 219.206307 160.959528 
L 219.967216 160.959528 
L 219.967216 145.06721 
L 220.728125 145.06721 
L 220.728125 153.797174 
L 221.489034 153.797174 
L 221.489034 152.932286 
L 222.249943 152.932286 
L 222.249943 155.797228 
L 223.010852 155.797228 
L 223.010852 147.905124 
L 223.771761 147.905124 
L 223.771761 149.715983 
L 224.53267 149.715983 
L 224.53267 163.878525 
L 225.29358 163.878525 
L 225.29358 159.986529 
L 226.054489 159.986529 
L 226.054489 156.040477 
L 226.815398 156.040477 
L 226.815398 157.716198 
L 227.576307 157.716198 
L 227.576307 161.581166 
L 229.098125 161.581166 
L 229.098125 148.040263 
L 229.859034 148.040263 
L 229.859034 163.473109 
L 230.619943 163.473109 
L 230.619943 160.148696 
L 231.380852 160.148696 
L 231.380852 162.986609 
L 232.141761 162.986609 
L 232.141761 159.040558 
L 232.90267 159.040558 
L 232.90267 165.635329 
L 233.66358 165.635329 
L 233.66358 164.473136 
L 234.424489 164.473136 
L 234.424489 160.418973 
L 235.185398 160.418973 
L 235.185398 173.716627 
L 235.946307 173.716627 
L 235.946307 168.554326 
L 236.707216 168.554326 
L 236.707216 161.932527 
L 237.468125 161.932527 
L 237.468125 169.959769 
L 238.229034 169.959769 
L 238.229034 166.662384 
L 239.750852 166.716439 
L 239.750852 166.175884 
L 240.511761 166.175884 
L 240.511761 164.635302 
L 241.27267 164.635302 
L 241.27267 187.446725 
L 242.03358 187.446725 
L 242.03358 163.202831 
L 242.794489 163.202831 
L 242.794489 173.500405 
L 243.555398 173.500405 
L 243.555398 167.121855 
L 244.316307 167.121855 
L 244.316307 178.554594 
L 245.077216 178.554594 
L 245.077216 178.176206 
L 245.838125 178.176206 
L 245.838125 176.311291 
L 246.599034 176.311291 
L 246.599034 163.743387 
L 247.359943 163.743387 
L 247.359943 177.52754 
L 248.120852 177.52754 
L 248.120852 175.716681 
L 248.881761 175.716681 
L 248.881761 179.878954 
L 249.64267 179.878954 
L 249.64267 182.122258 
L 250.40358 182.122258 
L 250.40358 181.716841 
L 251.164489 181.716841 
L 251.164489 174.473404 
L 251.925398 174.473404 
L 251.925398 184.365561 
L 252.686307 184.365561 
L 252.686307 181.743869 
L 253.447216 181.743869 
L 253.447216 180.716815 
L 254.208125 180.716815 
L 254.208125 173.986904 
L 254.969034 173.986904 
L 254.969034 188.662974 
L 255.729943 188.662974 
L 255.729943 186.933197 
L 256.490852 186.933197 
L 256.490852 185.58181 
L 257.251761 185.58181 
L 257.251761 188.690001 
L 258.01267 188.690001 
L 258.01267 189.960306 
L 258.77358 189.960306 
L 258.77358 192.041443 
L 259.534489 192.041443 
L 259.534489 186.825086 
L 260.295398 186.825086 
L 260.295398 193.284719 
L 261.056307 193.284719 
L 261.056307 190.554916 
L 261.817216 190.554916 
L 261.817216 192.122526 
L 262.578125 192.122526 
L 262.578125 192.527942 
L 263.339034 192.527942 
L 263.339034 194.527996 
L 264.099943 194.527996 
L 264.099943 193.176608 
L 264.860852 193.176608 
L 264.860852 194.933412 
L 265.621761 194.933412 
L 265.621761 197.419965 
L 266.38267 197.419965 
L 266.38267 196.04155 
L 267.14358 196.04155 
L 267.14358 199.28488 
L 267.904489 199.28488 
L 267.904489 198.987575 
L 268.665398 198.987575 
L 268.665398 197.663215 
L 269.426307 197.663215 
L 269.426307 201.744405 
L 270.187216 201.744405 
L 270.187216 198.365936 
L 270.948125 198.365936 
L 270.948125 199.717324 
L 271.709034 199.717324 
L 271.709034 200.960601 
L 272.469943 200.960601 
L 272.469943 200.176796 
L 273.230852 200.176796 
L 273.230852 203.987709 
L 273.991761 203.987709 
L 273.991761 202.555238 
L 274.75267 202.555238 
L 274.75267 200.825462 
L 275.51358 200.825462 
L 275.51358 202.501182 
L 277.035398 202.501182 
L 277.035398 203.501209 
L 277.796307 203.501209 
L 277.796307 206.528317 
L 278.557216 206.528317 
L 278.557216 204.420153 
L 279.318125 204.420153 
L 279.318125 207.960788 
L 280.079034 207.960788 
L 280.079034 208.474316 
L 280.839943 208.474316 
L 280.839943 203.798515 
L 281.600852 203.798515 
L 281.600852 207.663483 
L 282.361761 207.663483 
L 282.361761 210.366258 
L 283.12267 210.366258 
L 283.12267 205.555318 
L 283.88358 205.555318 
L 283.88358 210.852758 
L 284.644489 210.852758 
L 284.644489 206.744539 
L 285.405398 206.744539 
L 285.405398 211.177091 
L 286.166307 211.177091 
L 286.166307 207.987816 
L 286.927216 207.987816 
L 286.927216 211.90684 
L 287.688125 211.90684 
L 287.688125 212.663617 
L 288.449034 212.663617 
L 288.449034 209.150009 
L 289.209943 209.150009 
L 289.209943 211.285202 
L 289.970852 211.285202 
L 289.970852 212.663617 
L 290.731761 212.663617 
L 290.731761 211.366285 
L 291.49267 211.366285 
L 291.49267 212.555506 
L 292.25358 212.555506 
L 292.25358 213.096061 
L 293.014489 213.096061 
L 293.014489 214.31231 
L 293.775398 214.31231 
L 293.775398 212.339284 
L 294.536307 212.339284 
L 294.536307 213.852838 
L 295.297216 213.852838 
L 295.297216 214.123116 
L 296.058125 214.123116 
L 296.058125 214.31231 
L 296.819034 214.31231 
L 296.819034 214.447449 
L 297.579943 214.447449 
L 297.579943 216.069114 
L 298.340852 216.069114 
L 298.340852 215.582614 
L 299.86267 215.609642 
L 299.86267 215.798836 
L 300.62358 215.798836 
L 300.62358 216.501558 
L 301.384489 216.501558 
L 301.384489 216.771835 
L 302.145398 216.771835 
L 302.145398 216.420475 
L 302.906307 216.420475 
L 302.906307 216.934002 
L 303.667216 216.934002 
L 303.667216 216.582641 
L 304.428125 216.582641 
L 304.428125 217.015085 
L 305.189034 217.015085 
L 305.189034 217.501585 
L 306.710852 217.474557 
L 306.710852 218.069167 
L 307.471761 218.069167 
L 307.471761 218.258362 
L 308.23267 218.258362 
L 308.23267 217.852945 
L 308.99358 217.852945 
L 308.99358 218.420528 
L 309.754489 218.420528 
L 309.754489 218.555667 
L 312.037216 218.663778 
L 312.037216 218.771889 
L 372.909943 218.88 
L 372.909943 218.88 
" clip-path="url(#pd688f304cf)" style="fill: none; stroke: #1f77b4; stroke-width: 1.5; stroke-linecap: square"/>
   </g>
   <g id="line2d_18">
    <path d="M 68.546307 218.88 
L 79.199034 218.88 
L 79.199034 218.717833 
L 79.959943 218.717833 
L 79.959943 218.555667 
L 80.720852 218.555667 
L 80.720852 218.717833 
L 83.00358 218.609722 
L 83.00358 218.339445 
L 83.764489 218.339445 
L 83.764489 218.555667 
L 86.047216 218.528639 
L 86.047216 218.231334 
L 87.569034 218.123223 
L 87.569034 218.015112 
L 88.329943 218.015112 
L 88.329943 217.879973 
L 89.090852 217.879973 
L 89.090852 218.420528 
L 89.851761 218.420528 
L 89.851761 217.771862 
L 92.134489 217.852945 
L 92.134489 217.907001 
L 92.895398 217.907001 
L 92.895398 217.258335 
L 93.656307 217.258335 
L 93.656307 217.501585 
L 94.417216 217.501585 
L 94.417216 217.771862 
L 95.178125 217.771862 
L 95.178125 217.123196 
L 95.939034 217.123196 
L 95.939034 216.069114 
L 96.699943 216.069114 
L 96.699943 216.609669 
L 97.460852 216.609669 
L 97.460852 216.879946 
L 98.98267 216.879946 
L 98.98267 215.87992 
L 99.74358 215.87992 
L 99.74358 216.015058 
L 100.504489 216.015058 
L 100.504489 215.069087 
L 101.265398 215.069087 
L 101.265398 214.663671 
L 102.026307 214.663671 
L 102.026307 215.39342 
L 102.787216 215.39342 
L 102.787216 213.420394 
L 103.548125 213.420394 
L 103.548125 213.636616 
L 104.309034 213.636616 
L 104.309034 210.960869 
L 105.069943 210.960869 
L 105.069943 213.447422 
L 105.830852 213.447422 
L 105.830852 210.393286 
L 107.35267 210.474369 
L 107.35267 207.33915 
L 108.11358 207.33915 
L 108.11358 208.068899 
L 108.874489 208.068899 
L 108.874489 206.339123 
L 109.635398 206.339123 
L 109.635398 203.636348 
L 110.396307 203.636348 
L 110.396307 201.420072 
L 111.157216 201.420072 
L 111.157216 200.987628 
L 111.918125 200.987628 
L 111.918125 196.095605 
L 112.679034 196.095605 
L 112.679034 195.852356 
L 113.439943 195.852356 
L 113.439943 193.663108 
L 114.200852 193.663108 
L 114.200852 190.419777 
L 114.961761 190.419777 
L 114.961761 187.176447 
L 115.72267 187.176447 
L 115.72267 182.014147 
L 116.48358 182.014147 
L 116.48358 182.500646 
L 117.244489 182.500646 
L 117.244489 179.149205 
L 118.005398 179.149205 
L 118.005398 172.905794 
L 118.766307 172.905794 
L 118.766307 173.257155 
L 119.527216 173.257155 
L 119.527216 166.635356 
L 120.288125 166.635356 
L 120.288125 163.743387 
L 121.049034 163.743387 
L 121.049034 163.932581 
L 121.809943 163.932581 
L 121.809943 162.094694 
L 122.570852 162.094694 
L 122.570852 150.391677 
L 123.331761 150.391677 
L 123.331761 153.824202 
L 124.09267 153.824202 
L 124.09267 147.067264 
L 124.85358 147.067264 
L 124.85358 144.82396 
L 125.614489 144.82396 
L 125.614489 136.742663 
L 126.375398 136.742663 
L 126.375398 133.174999 
L 127.136307 133.174999 
L 127.136307 125.012618 
L 127.897216 125.012618 
L 127.897216 127.472144 
L 128.658125 127.472144 
L 128.658125 118.958402 
L 129.419034 118.958402 
L 129.419034 116.363738 
L 130.179943 116.363738 
L 130.179943 110.68791 
L 130.940852 110.68791 
L 130.940852 102.228224 
L 131.701761 102.228224 
L 131.701761 108.174329 
L 132.46267 108.174329 
L 132.46267 95.498313 
L 133.22358 95.498313 
L 133.22358 101.30928 
L 133.984489 101.30928 
L 133.984489 88.092709 
L 134.745398 88.092709 
L 134.745398 74.173417 
L 135.506307 74.173417 
L 135.506307 76.227526 
L 136.267216 76.227526 
L 136.267216 74.551806 
L 137.028125 74.551806 
L 137.028125 66.416453 
L 137.789034 66.416453 
L 137.789034 75.57886 
L 138.549943 75.57886 
L 138.549943 66.497536 
L 140.071761 66.551591 
L 140.071761 65.984009 
L 140.83267 65.984009 
L 140.83267 66.470508 
L 141.59358 66.470508 
L 141.59358 56.145907 
L 142.354489 56.145907 
L 142.354489 57.686489 
L 143.115398 57.686489 
L 143.115398 59.254098 
L 143.876307 59.254098 
L 143.876307 58.902738 
L 144.637216 58.902738 
L 144.637216 57.902711 
L 145.398125 57.902711 
L 145.398125 44.415863 
L 146.159034 44.415863 
L 146.159034 53.740437 
L 146.919943 53.740437 
L 146.919943 58.091905 
L 147.680852 58.091905 
L 147.680852 51.551189 
L 148.441761 51.551189 
L 148.441761 54.794519 
L 149.20267 54.794519 
L 149.20267 60.875764 
L 149.96358 60.875764 
L 149.96358 40.740088 
L 150.724489 40.740088 
L 150.724489 53.47016 
L 151.485398 53.47016 
L 151.485398 55.63238 
L 152.246307 55.63238 
L 152.246307 47.956498 
L 153.007216 47.956498 
L 153.007216 40.415755 
L 153.768125 40.415755 
L 153.768125 50.145746 
L 154.529034 50.145746 
L 154.529034 51.037662 
L 155.289943 51.037662 
L 155.289943 45.686167 
L 156.050852 45.686167 
L 156.050852 46.199694 
L 156.811761 46.199694 
L 156.811761 51.6593 
L 157.57267 51.6593 
L 157.57267 51.90255 
L 158.33358 51.90255 
L 158.33358 53.632326 
L 159.094489 53.632326 
L 159.094489 58.064877 
L 159.855398 58.064877 
L 159.855398 56.497268 
L 160.616307 56.497268 
L 160.616307 41.983365 
L 161.377216 41.983365 
L 161.377216 54.578297 
L 162.138125 54.578297 
L 162.138125 45.794278 
L 162.899034 45.794278 
L 162.899034 33.604762 
L 163.659943 33.604762 
L 163.659943 70.713865 
L 164.420852 70.713865 
L 164.420852 52.686355 
L 165.181761 52.686355 
L 165.181761 48.41597 
L 165.94267 48.41597 
L 165.94267 46.415916 
L 166.70358 46.415916 
L 166.70358 53.253938 
L 167.464489 53.253938 
L 167.464489 51.713356 
L 168.225398 51.713356 
L 168.225398 70.821976 
L 168.986307 70.821976 
L 168.986307 45.307779 
L 169.747216 45.307779 
L 169.747216 53.578271 
L 170.508125 53.578271 
L 170.508125 61.767679 
L 171.269034 61.767679 
L 171.269034 48.253803 
L 172.029943 48.253803 
L 172.029943 77.119442 
L 172.790852 77.119442 
L 172.790852 61.794707 
L 173.551761 61.794707 
L 173.551761 67.794868 
L 174.31267 67.794868 
L 174.31267 62.146068 
L 175.07358 62.146068 
L 175.07358 69.984116 
L 175.834489 69.984116 
L 175.834489 75.200472 
L 176.595398 75.200472 
L 176.595398 86.741322 
L 177.356307 86.741322 
L 177.356307 74.281528 
L 178.117216 74.281528 
L 178.117216 61.335235 
L 178.878125 61.335235 
L 178.878125 84.633157 
L 179.639034 84.633157 
L 179.639034 74.578834 
L 180.399943 74.578834 
L 180.399943 92.606344 
L 181.160852 92.606344 
L 181.160852 82.281743 
L 181.921761 82.281743 
L 181.921761 80.3898 
L 182.68267 80.3898 
L 182.68267 112.147408 
L 183.44358 112.147408 
L 183.44358 82.308771 
L 184.204489 82.308771 
L 184.204489 90.471152 
L 184.965398 90.471152 
L 184.965398 104.55261 
L 185.726307 104.55261 
L 185.726307 79.741134 
L 186.487216 79.741134 
L 186.487216 114.498823 
L 187.248125 114.498823 
L 187.248125 90.336013 
L 188.009034 90.336013 
L 188.009034 94.417203 
L 188.769943 94.417203 
L 188.769943 103.174195 
L 189.530852 103.174195 
L 189.530852 102.174168 
L 190.291761 102.174168 
L 190.291761 113.93124 
L 191.05267 113.93124 
L 191.05267 107.120247 
L 191.81358 107.120247 
L 191.81358 110.796021 
L 192.574489 110.796021 
L 192.574489 111.76902 
L 193.335398 111.76902 
L 193.335398 106.255359 
L 194.096307 106.255359 
L 194.096307 119.58004 
L 194.857216 119.58004 
L 194.857216 109.228411 
L 195.618125 109.228411 
L 195.618125 111.714964 
L 196.379034 111.714964 
L 196.379034 115.85021 
L 197.139943 115.85021 
L 197.139943 111.850103 
L 197.900852 111.850103 
L 197.900852 120.201679 
L 198.661761 120.201679 
L 198.661761 123.958536 
L 199.42267 123.958536 
L 199.42267 118.877319 
L 200.18358 118.877319 
L 200.18358 128.71542 
L 200.944489 128.71542 
L 200.944489 124.14773 
L 201.705398 124.14773 
L 201.705398 131.229001 
L 202.466307 131.229001 
L 202.466307 126.688339 
L 203.227216 126.688339 
L 203.227216 127.850532 
L 203.988125 127.850532 
L 203.988125 135.229108 
L 204.749034 135.229108 
L 204.749034 131.472251 
L 205.509943 131.472251 
L 205.509943 130.03978 
L 206.270852 130.03978 
L 206.270852 132.877694 
L 207.031761 132.877694 
L 207.031761 131.201973 
L 207.79267 131.201973 
L 207.79267 136.742663 
L 208.55358 136.742663 
L 208.55358 135.796691 
L 209.314489 135.796691 
L 209.314489 137.931884 
L 210.075398 137.931884 
L 210.075398 141.121158 
L 210.836307 141.121158 
L 210.836307 135.904802 
L 211.597216 135.904802 
L 211.597216 143.607711 
L 212.358125 143.607711 
L 212.358125 138.688661 
L 213.119034 138.688661 
L 213.119034 142.472546 
L 213.879943 142.472546 
L 213.879943 135.742636 
L 214.640852 135.742636 
L 214.640852 140.634659 
L 215.401761 140.634659 
L 215.401761 149.851122 
L 216.16267 149.851122 
L 216.16267 152.580925 
L 216.92358 152.580925 
L 216.92358 136.607524 
L 217.684489 136.607524 
L 217.684489 151.310621 
L 218.445398 151.310621 
L 218.445398 148.229457 
L 219.206307 148.229457 
L 219.206307 156.283727 
L 219.967216 156.283727 
L 219.967216 148.283513 
L 220.728125 148.283513 
L 220.728125 155.959394 
L 221.489034 155.959394 
L 221.489034 147.851069 
L 222.249943 147.851069 
L 222.249943 149.013262 
L 223.010852 149.013262 
L 223.010852 157.905392 
L 223.771761 157.905392 
L 223.771761 156.472921 
L 224.53267 156.472921 
L 224.53267 153.986368 
L 225.29358 153.986368 
L 225.29358 161.581166 
L 226.054489 161.581166 
L 226.054489 155.445867 
L 226.815398 155.445867 
L 226.815398 151.283593 
L 227.576307 151.283593 
L 227.576307 169.635436 
L 228.337216 169.635436 
L 228.337216 161.256833 
L 229.098125 161.256833 
L 229.098125 158.581086 
L 229.859034 158.581086 
L 229.859034 151.472787 
L 230.619943 151.472787 
L 230.619943 170.175991 
L 231.380852 170.175991 
L 231.380852 156.959421 
L 232.141761 156.959421 
L 232.141761 159.85139 
L 232.90267 159.85139 
L 232.90267 157.013476 
L 233.66358 157.013476 
L 233.66358 162.959582 
L 234.424489 162.959582 
L 234.424489 174.067988 
L 235.185398 174.067988 
L 235.185398 163.716359 
L 235.946307 163.716359 
L 235.946307 168.446215 
L 236.707216 168.446215 
L 236.707216 173.067961 
L 237.468125 173.067961 
L 237.468125 161.608194 
L 238.229034 161.608194 
L 238.229034 158.229725 
L 238.989943 158.229725 
L 238.989943 175.60857 
L 239.750852 175.60857 
L 239.750852 165.419107 
L 240.511761 165.419107 
L 240.511761 169.013798 
L 241.27267 169.013798 
L 241.27267 175.932903 
L 242.03358 175.932903 
L 242.03358 168.716493 
L 242.794489 168.716493 
L 242.794489 175.662625 
L 243.555398 175.662625 
L 243.555398 171.500351 
L 244.316307 171.500351 
L 244.316307 170.55438 
L 245.077216 170.55438 
L 245.077216 182.824979 
L 245.838125 182.824979 
L 245.838125 165.905607 
L 246.599034 165.905607 
L 246.599034 176.554541 
L 247.359943 176.554541 
L 247.359943 182.203341 
L 248.120852 182.203341 
L 248.120852 173.2031 
L 248.881761 173.2031 
L 248.881761 176.095069 
L 249.64267 176.095069 
L 249.64267 181.85198 
L 250.40358 181.85198 
L 250.40358 171.203046 
L 251.164489 171.203046 
L 251.164489 187.798086 
L 251.925398 187.798086 
L 251.925398 179.851927 
L 252.686307 179.851927 
L 252.686307 179.014066 
L 253.447216 179.014066 
L 253.447216 178.041067 
L 254.208125 178.041067 
L 254.208125 186.473726 
L 254.969034 186.473726 
L 254.969034 185.473699 
L 255.729943 185.473699 
L 255.729943 186.473726 
L 256.490852 186.473726 
L 256.490852 186.608864 
L 257.251761 186.608864 
L 257.251761 188.068363 
L 258.01267 188.068363 
L 258.01267 188.257557 
L 258.77358 188.257557 
L 258.77358 182.068202 
L 259.534489 182.068202 
L 259.534489 198.744325 
L 260.295398 198.744325 
L 260.295398 189.230556 
L 261.056307 189.230556 
L 261.056307 191.690082 
L 261.817216 191.690082 
L 261.817216 190.176528 
L 262.578125 190.176528 
L 262.578125 192.338748 
L 263.339034 192.338748 
L 263.339034 191.176554 
L 264.099943 191.176554 
L 264.099943 197.257799 
L 264.860852 197.257799 
L 264.860852 195.771272 
L 265.621761 195.771272 
L 265.621761 195.338828 
L 266.38267 195.338828 
L 266.38267 195.987494 
L 267.14358 195.987494 
L 267.14358 199.014602 
L 267.904489 199.014602 
L 267.904489 199.744352 
L 268.665398 199.744352 
L 268.665398 196.771299 
L 269.426307 196.771299 
L 269.426307 201.393045 
L 270.187216 201.393045 
L 270.187216 198.338909 
L 270.948125 198.338909 
L 270.948125 201.906572 
L 271.709034 201.906572 
L 271.709034 198.095659 
L 272.469943 198.095659 
L 272.469943 202.393071 
L 273.230852 202.393071 
L 273.230852 201.474128 
L 273.991761 201.474128 
L 273.991761 202.825515 
L 274.75267 202.825515 
L 274.75267 200.501129 
L 275.51358 200.501129 
L 275.51358 205.663429 
L 276.274489 205.663429 
L 276.274489 199.420019 
L 277.035398 199.420019 
L 277.035398 204.93368 
L 277.796307 204.93368 
L 277.796307 204.771514 
L 278.557216 204.771514 
L 278.557216 206.312095 
L 279.318125 206.312095 
L 279.318125 204.636375 
L 280.079034 204.636375 
L 280.079034 208.312149 
L 280.839943 208.312149 
L 280.839943 206.933734 
L 281.600852 206.933734 
L 281.600852 208.717565 
L 282.361761 208.717565 
L 282.361761 207.663483 
L 283.12267 207.663483 
L 283.12267 206.528317 
L 283.88358 206.528317 
L 283.88358 207.663483 
L 284.644489 207.663483 
L 284.644489 209.717592 
L 285.405398 209.717592 
L 285.405398 211.041952 
L 286.166307 211.041952 
L 286.166307 208.66351 
L 286.927216 208.66351 
L 286.927216 210.663563 
L 287.688125 210.663563 
L 287.688125 212.177118 
L 288.449034 212.177118 
L 288.449034 210.123008 
L 289.209943 210.123008 
L 289.209943 211.933868 
L 289.970852 211.933868 
L 289.970852 211.582507 
L 291.49267 211.690618 
L 291.49267 212.069007 
L 292.25358 212.069007 
L 292.25358 213.960949 
L 293.014489 213.960949 
L 293.014489 212.879839 
L 293.775398 212.879839 
L 293.775398 213.609588 
L 295.297216 213.582561 
L 295.297216 214.339338 
L 296.819034 214.339338 
L 296.819034 214.609615 
L 297.579943 214.609615 
L 297.579943 215.258281 
L 298.340852 215.258281 
L 298.340852 215.474503 
L 299.86267 215.501531 
L 299.86267 216.177225 
L 300.62358 216.177225 
L 300.62358 216.042086 
L 301.384489 216.042086 
L 301.384489 216.771835 
L 303.667216 216.744808 
L 303.667216 216.528586 
L 304.428125 216.528586 
L 304.428125 217.123196 
L 305.189034 217.123196 
L 305.189034 217.582668 
L 306.710852 217.528612 
L 306.710852 217.907001 
L 307.471761 217.907001 
L 307.471761 218.258362 
L 308.23267 218.258362 
L 308.23267 218.096195 
L 308.99358 218.096195 
L 308.99358 218.339445 
L 310.515398 218.447556 
L 310.515398 218.88 
L 311.276307 218.88 
L 311.276307 218.744861 
L 313.559034 218.825944 
L 313.559034 218.88 
L 372.909943 218.88 
L 372.909943 218.88 
" clip-path="url(#pd688f304cf)" style="fill: none; stroke: #ff7f0e; stroke-width: 1.5; stroke-linecap: square"/>
   </g>
   <g id="line2d_19">
    <path d="M 68.546307 218.852972 
L 76.155398 218.825944 
L 76.155398 218.717833 
L 80.720852 218.690806 
L 80.720852 218.555667 
L 84.525398 218.528639 
L 84.525398 218.312417 
L 86.047216 218.3935 
L 86.047216 218.177278 
L 86.808125 218.177278 
L 86.808125 218.420528 
L 87.569034 218.420528 
L 87.569034 218.285389 
L 88.329943 218.285389 
L 88.329943 217.879973 
L 92.134489 217.771862 
L 92.134489 217.474557 
L 95.178125 217.420501 
L 95.178125 217.177252 
L 95.939034 217.177252 
L 95.939034 216.879946 
L 96.699943 216.879946 
L 96.699943 216.47453 
L 97.460852 216.47453 
L 97.460852 216.609669 
L 98.221761 216.609669 
L 98.221761 216.366419 
L 98.98267 216.366419 
L 98.98267 216.042086 
L 99.74358 216.042086 
L 99.74358 215.798836 
L 100.504489 215.798836 
L 100.504489 215.258281 
L 101.265398 215.258281 
L 101.265398 215.123143 
L 102.026307 215.123143 
L 102.026307 214.609615 
L 102.787216 214.609615 
L 102.787216 213.879866 
L 103.548125 213.879866 
L 103.548125 212.933895 
L 104.309034 212.933895 
L 104.309034 212.636589 
L 105.069943 212.636589 
L 105.069943 211.528452 
L 105.830852 211.528452 
L 105.830852 211.177091 
L 106.591761 211.177091 
L 106.591761 209.717592 
L 107.35267 209.717592 
L 107.35267 208.852704 
L 108.11358 208.852704 
L 108.11358 207.258067 
L 108.874489 207.258067 
L 108.874489 205.230985 
L 109.635398 205.230985 
L 109.635398 204.068792 
L 110.396307 204.068792 
L 110.396307 201.176823 
L 111.157216 201.176823 
L 111.157216 201.041684 
L 111.918125 201.041684 
L 111.918125 197.852409 
L 112.679034 197.852409 
L 112.679034 194.609079 
L 113.439943 194.609079 
L 113.439943 193.068497 
L 114.200852 193.068497 
L 114.200852 190.419777 
L 114.961761 190.419777 
L 114.961761 187.825113 
L 115.72267 187.825113 
L 115.72267 183.473645 
L 116.48358 183.473645 
L 116.48358 182.608757 
L 117.244489 182.608757 
L 117.244489 175.392347 
L 118.005398 175.392347 
L 118.005398 175.662625 
L 118.766307 175.662625 
L 118.766307 171.797657 
L 119.527216 171.797657 
L 119.527216 168.851632 
L 120.288125 168.851632 
L 120.288125 163.202831 
L 121.049034 163.202831 
L 121.049034 162.527138 
L 121.809943 162.527138 
L 121.809943 158.310808 
L 122.570852 158.310808 
L 122.570852 155.743172 
L 123.331761 155.743172 
L 123.331761 151.148454 
L 124.09267 151.148454 
L 124.09267 147.526735 
L 124.85358 147.526735 
L 124.85358 142.391463 
L 125.614489 142.391463 
L 125.614489 139.769771 
L 126.375398 139.769771 
L 126.375398 131.553334 
L 127.136307 131.553334 
L 127.136307 125.661284 
L 127.897216 125.661284 
L 127.897216 123.742314 
L 128.658125 123.742314 
L 128.658125 121.228733 
L 129.419034 121.228733 
L 129.419034 113.904212 
L 130.179943 113.904212 
L 130.179943 108.904078 
L 130.940852 108.904078 
L 130.940852 110.093299 
L 131.701761 110.093299 
L 131.701761 104.363416 
L 132.46267 104.363416 
L 132.46267 97.038895 
L 133.22358 97.038895 
L 133.22358 93.552315 
L 133.984489 93.552315 
L 133.984489 87.60621 
L 134.745398 87.60621 
L 134.745398 80.497911 
L 135.506307 80.497911 
L 135.506307 76.551859 
L 136.267216 76.551859 
L 136.267216 74.389639 
L 137.028125 74.389639 
L 137.028125 71.903086 
L 137.789034 71.903086 
L 137.789034 68.713812 
L 138.549943 68.713812 
L 138.549943 64.794788 
L 139.310852 64.794788 
L 139.310852 70.713865 
L 140.071761 70.713865 
L 140.071761 65.794814 
L 140.83267 65.794814 
L 140.83267 62.767706 
L 141.59358 62.767706 
L 141.59358 61.497402 
L 142.354489 61.497402 
L 142.354489 56.95674 
L 143.115398 56.95674 
L 143.115398 58.956793 
L 143.876307 58.956793 
L 143.876307 52.902577 
L 144.637216 52.902577 
L 144.637216 54.956686 
L 145.398125 54.956686 
L 145.398125 55.659407 
L 146.159034 55.659407 
L 146.159034 51.443078 
L 146.919943 51.443078 
L 146.919943 50.82144 
L 147.680852 50.82144 
L 147.680852 55.497241 
L 148.441761 55.497241 
L 148.441761 54.794519 
L 149.20267 54.794519 
L 149.20267 53.389076 
L 149.96358 53.389076 
L 149.96358 53.172854 
L 150.724489 53.172854 
L 150.724489 51.41605 
L 151.485398 51.41605 
L 151.485398 50.929551 
L 152.246307 50.929551 
L 152.246307 49.443025 
L 153.007216 49.443025 
L 153.007216 48.551109 
L 153.768125 48.551109 
L 153.768125 45.118584 
L 155.289943 45.17264 
L 155.289943 44.551001 
L 156.050852 44.551001 
L 156.050852 52.037689 
L 156.811761 52.037689 
L 156.811761 54.253964 
L 157.57267 54.253964 
L 157.57267 49.74033 
L 158.33358 49.74033 
L 158.33358 51.578217 
L 159.094489 51.578217 
L 159.094489 55.037769 
L 159.855398 55.037769 
L 159.855398 50.983606 
L 160.616307 50.983606 
L 160.616307 49.388969 
L 161.377216 49.388969 
L 161.377216 50.848468 
L 162.138125 50.848468 
L 162.138125 48.199748 
L 162.899034 48.199748 
L 162.899034 47.92947 
L 163.659943 47.92947 
L 163.659943 52.524188 
L 165.181761 52.49716 
L 165.181761 51.443078 
L 165.94267 51.443078 
L 165.94267 55.551296 
L 166.70358 55.551296 
L 166.70358 56.95674 
L 167.464489 56.95674 
L 167.464489 54.875603 
L 168.225398 54.875603 
L 168.225398 56.416184 
L 168.986307 56.416184 
L 168.986307 57.091878 
L 169.747216 57.091878 
L 169.747216 53.902604 
L 170.508125 53.902604 
L 170.508125 57.199989 
L 171.269034 57.199989 
L 171.269034 62.11904 
L 172.029943 62.11904 
L 172.029943 58.902738 
L 172.790852 58.902738 
L 172.790852 65.281287 
L 173.551761 65.281287 
L 173.551761 66.173203 
L 174.31267 66.173203 
L 174.31267 68.632728 
L 175.07358 68.632728 
L 175.07358 75.038305 
L 175.834489 75.038305 
L 175.834489 75.281555 
L 176.595398 75.281555 
L 176.595398 74.686945 
L 177.356307 74.686945 
L 177.356307 73.281502 
L 178.117216 73.281502 
L 178.117216 78.146497 
L 178.878125 78.146497 
L 178.878125 76.038332 
L 179.639034 76.038332 
L 179.639034 82.714187 
L 180.399943 82.714187 
L 180.399943 83.119603 
L 181.160852 83.119603 
L 181.160852 88.957598 
L 181.921761 88.957598 
L 181.921761 86.687266 
L 182.68267 86.687266 
L 182.68267 90.417096 
L 183.44358 90.417096 
L 183.44358 95.146953 
L 184.204489 95.146953 
L 184.204489 93.633399 
L 184.965398 93.633399 
L 184.965398 95.687508 
L 185.726307 95.687508 
L 185.726307 94.768564 
L 186.487216 94.768564 
L 186.487216 94.173954 
L 187.248125 94.173954 
L 187.248125 98.552449 
L 188.009034 98.552449 
L 188.009034 100.633586 
L 188.769943 100.633586 
L 188.769943 99.336254 
L 189.530852 99.336254 
L 189.530852 104.741805 
L 190.291761 104.741805 
L 190.291761 107.228358 
L 191.05267 107.228358 
L 191.05267 107.79594 
L 191.81358 107.79594 
L 191.81358 111.687937 
L 192.574489 111.687937 
L 192.574489 110.147355 
L 193.335398 110.147355 
L 193.335398 110.68791 
L 194.096307 110.68791 
L 194.096307 112.147408 
L 194.857216 112.147408 
L 194.857216 116.147516 
L 195.618125 116.147516 
L 195.618125 113.606907 
L 196.379034 113.606907 
L 196.379034 112.958241 
L 197.139943 112.958241 
L 197.139943 114.363684 
L 197.900852 114.363684 
L 197.900852 117.634042 
L 198.661761 117.634042 
L 198.661761 120.553039 
L 199.42267 120.553039 
L 199.42267 123.390953 
L 200.18358 123.390953 
L 200.18358 124.63423 
L 200.944489 124.63423 
L 200.944489 126.012645 
L 201.705398 126.012645 
L 201.705398 127.958643 
L 202.466307 127.958643 
L 202.466307 129.634364 
L 203.227216 129.634364 
L 203.227216 126.472117 
L 203.988125 126.472117 
L 203.988125 131.526306 
L 204.749034 131.526306 
L 204.749034 131.229001 
L 205.509943 131.229001 
L 205.509943 131.066835 
L 206.270852 131.066835 
L 206.270852 132.202 
L 207.031761 132.202 
L 207.031761 134.904775 
L 207.79267 134.904775 
L 207.79267 137.01294 
L 208.55358 137.01294 
L 208.55358 138.012967 
L 210.075398 138.09405 
L 210.075398 137.49944 
L 210.836307 137.49944 
L 210.836307 140.202215 
L 212.358125 140.148159 
L 212.358125 138.553522 
L 213.119034 138.553522 
L 213.119034 141.769824 
L 213.879943 141.769824 
L 213.879943 141.418464 
L 214.640852 141.418464 
L 214.640852 142.094157 
L 215.401761 142.094157 
L 215.401761 143.121212 
L 216.16267 143.121212 
L 216.16267 148.391624 
L 216.92358 148.391624 
L 216.92358 148.580818 
L 217.684489 148.580818 
L 217.684489 148.31054 
L 218.445398 148.31054 
L 218.445398 149.418678 
L 219.206307 149.418678 
L 219.206307 150.364649 
L 219.967216 150.364649 
L 219.967216 151.229537 
L 220.728125 151.229537 
L 220.728125 150.1214 
L 221.489034 150.1214 
L 221.489034 151.770093 
L 222.249943 151.770093 
L 222.249943 151.499815 
L 223.010852 151.499815 
L 223.010852 154.824228 
L 223.771761 154.824228 
L 223.771761 154.175562 
L 224.53267 154.175562 
L 224.53267 156.797254 
L 225.29358 156.797254 
L 225.29358 156.229672 
L 226.054489 156.229672 
L 226.054489 157.905392 
L 226.815398 157.905392 
L 226.815398 160.013557 
L 227.576307 160.013557 
L 227.576307 158.310808 
L 228.337216 158.310808 
L 228.337216 160.689251 
L 229.098125 160.689251 
L 229.098125 159.364891 
L 229.859034 159.364891 
L 229.859034 161.905499 
L 230.619943 161.905499 
L 230.619943 161.419 
L 231.380852 161.419 
L 231.380852 160.986556 
L 232.141761 160.986556 
L 232.141761 160.202751 
L 232.90267 160.202751 
L 232.90267 161.040611 
L 233.66358 161.040611 
L 233.66358 164.986663 
L 234.424489 164.986663 
L 234.424489 165.121802 
L 235.185398 165.121802 
L 235.185398 166.5813 
L 235.946307 166.5813 
L 235.946307 164.446108 
L 236.707216 164.446108 
L 236.707216 166.716439 
L 237.468125 166.716439 
L 237.468125 167.338077 
L 238.229034 167.338077 
L 238.229034 168.229993 
L 238.989943 168.229993 
L 238.989943 167.040772 
L 239.750852 167.040772 
L 239.750852 169.284076 
L 241.27267 169.392187 
L 241.27267 171.257101 
L 242.03358 171.257101 
L 242.03358 170.959796 
L 242.794489 170.959796 
L 242.794489 174.365293 
L 243.555398 174.365293 
L 243.555398 173.040933 
L 244.316307 173.040933 
L 244.316307 175.040987 
L 245.077216 175.040987 
L 245.077216 174.500432 
L 246.599034 174.554487 
L 246.599034 177.014013 
L 247.359943 177.014013 
L 247.359943 173.500405 
L 248.120852 173.500405 
L 248.120852 177.446457 
L 249.64267 177.446457 
L 249.64267 176.932929 
L 250.40358 176.932929 
L 250.40358 178.905955 
L 251.164489 178.905955 
L 251.164489 180.068149 
L 251.925398 180.068149 
L 251.925398 181.095203 
L 252.686307 181.095203 
L 252.686307 182.230369 
L 253.447216 182.230369 
L 253.447216 184.392589 
L 254.208125 184.392589 
L 254.208125 183.825006 
L 254.969034 183.825006 
L 254.969034 183.41959 
L 255.729943 183.41959 
L 255.729943 184.0142 
L 256.490852 184.0142 
L 256.490852 187.257531 
L 257.251761 187.257531 
L 257.251761 186.365615 
L 258.01267 186.365615 
L 258.01267 187.98728 
L 258.77358 187.98728 
L 258.77358 189.122445 
L 259.534489 189.122445 
L 259.534489 189.31164 
L 260.295398 189.31164 
L 260.295398 191.338721 
L 261.056307 191.338721 
L 261.056307 190.825194 
L 261.817216 190.825194 
L 261.817216 192.041443 
L 262.578125 192.041443 
L 262.578125 193.500941 
L 263.339034 193.500941 
L 263.339034 192.690109 
L 264.099943 192.690109 
L 264.099943 193.122553 
L 264.860852 193.122553 
L 264.860852 195.068551 
L 265.621761 195.068551 
L 265.621761 195.771272 
L 266.38267 195.771272 
L 266.38267 196.419938 
L 267.14358 196.419938 
L 267.14358 197.987548 
L 267.904489 197.987548 
L 267.904489 199.122714 
L 268.665398 199.122714 
L 268.665398 198.44702 
L 269.426307 198.44702 
L 269.426307 200.12274 
L 270.187216 200.12274 
L 270.187216 199.203797 
L 270.948125 199.203797 
L 270.948125 199.906518 
L 271.709034 199.906518 
L 271.709034 200.176796 
L 272.469943 200.176796 
L 272.469943 200.744379 
L 273.230852 200.744379 
L 273.230852 201.555211 
L 273.991761 201.555211 
L 273.991761 202.203877 
L 275.51358 202.203877 
L 275.51358 203.095793 
L 276.274489 203.095793 
L 276.274489 203.312015 
L 277.035398 203.312015 
L 277.035398 203.690404 
L 277.796307 203.690404 
L 277.796307 204.798541 
L 278.557216 204.798541 
L 278.557216 205.203958 
L 279.318125 205.203958 
L 279.318125 206.50129 
L 280.079034 206.50129 
L 280.079034 206.879678 
L 280.839943 206.879678 
L 280.839943 207.609428 
L 281.600852 207.609428 
L 281.600852 207.447261 
L 282.361761 207.447261 
L 282.361761 206.987789 
L 283.12267 206.987789 
L 283.12267 207.744566 
L 283.88358 207.744566 
L 283.88358 208.771621 
L 285.405398 208.744593 
L 285.405398 209.717592 
L 286.166307 209.717592 
L 286.166307 210.501397 
L 286.927216 210.501397 
L 286.927216 211.609535 
L 287.688125 211.609535 
L 287.688125 210.095981 
L 288.449034 210.095981 
L 288.449034 210.960869 
L 289.209943 210.960869 
L 289.209943 212.014951 
L 289.970852 212.014951 
L 289.970852 211.150063 
L 290.731761 211.150063 
L 290.731761 212.123062 
L 291.49267 212.123062 
L 291.49267 212.447395 
L 292.25358 212.447395 
L 292.25358 213.47445 
L 293.014489 213.47445 
L 293.014489 212.609562 
L 293.775398 212.609562 
L 293.775398 213.933921 
L 295.297216 213.852838 
L 295.297216 214.501504 
L 296.058125 214.501504 
L 296.058125 214.177171 
L 296.819034 214.177171 
L 296.819034 214.663671 
L 297.579943 214.663671 
L 297.579943 214.852865 
L 298.340852 214.852865 
L 298.340852 215.420448 
L 299.101761 215.420448 
L 299.101761 215.609642 
L 300.62358 215.717753 
L 300.62358 216.771835 
L 301.384489 216.771835 
L 301.384489 216.096142 
L 302.145398 216.096142 
L 302.145398 216.798863 
L 302.906307 216.798863 
L 302.906307 216.555613 
L 303.667216 216.555613 
L 303.667216 216.798863 
L 304.428125 216.798863 
L 304.428125 217.096168 
L 305.189034 217.096168 
L 305.189034 217.55564 
L 306.710852 217.582668 
L 306.710852 217.879973 
L 307.471761 217.879973 
L 307.471761 218.177278 
L 308.99358 218.096195 
L 308.99358 218.366473 
L 310.515398 218.447556 
L 310.515398 218.528639 
L 311.276307 218.528639 
L 311.276307 218.717833 
L 313.559034 218.771889 
L 313.559034 218.88 
L 372.909943 218.88 
L 372.909943 218.88 
" clip-path="url(#pd688f304cf)" style="fill: none; stroke: #2ca02c; stroke-width: 1.5; stroke-linecap: square"/>
   </g>
   <g id="patch_3">
    <path d="M 53.328125 228.96 
L 53.328125 7.2 
" style="fill: none; stroke: #000000; stroke-width: 0.8; stroke-linejoin: miter; stroke-linecap: square"/>
   </g>
   <g id="patch_4">
    <path d="M 388.128125 228.96 
L 388.128125 7.2 
" style="fill: none; stroke: #000000; stroke-width: 0.8; stroke-linejoin: miter; stroke-linecap: square"/>
   </g>
   <g id="patch_5">
    <path d="M 53.328125 228.96 
L 388.128125 228.96 
" style="fill: none; stroke: #000000; stroke-width: 0.8; stroke-linejoin: miter; stroke-linecap: square"/>
   </g>
   <g id="patch_6">
    <path d="M 53.328125 7.2 
L 388.128125 7.2 
" style="fill: none; stroke: #000000; stroke-width: 0.8; stroke-linejoin: miter; stroke-linecap: square"/>
   </g>
   <g id="legend_1">
    <g id="patch_7">
     <path d="M 306.904688 59.234375 
L 381.128125 59.234375 
Q 383.128125 59.234375 383.128125 57.234375 
L 383.128125 14.2 
Q 383.128125 12.2 381.128125 12.2 
L 306.904688 12.2 
Q 304.904688 12.2 304.904688 14.2 
L 304.904688 57.234375 
Q 304.904688 59.234375 306.904688 59.234375 
z
" style="fill: #ffffff; opacity: 0.8; stroke: #cccccc; stroke-linejoin: miter"/>
    </g>
    <g id="line2d_20">
     <path d="M 308.904688 20.298438 
L 308.904688 20.298438 
L 318.904688 20.298438 
L 318.904688 20.298438 
L 328.904688 20.298438 
" style="fill: none; stroke: #1f77b4; stroke-width: 1.5; stroke-linecap: square"/>
    </g>
    <g id="text_19">
     <!-- monitor -->
     <g transform="translate(336.904688 23.798438) scale(0.1 -0.1)">
      <defs>
       <path id="DejaVuSans-6d" d="M 3328 2828 
Q 3544 3216 3844 3400 
Q 4144 3584 4550 3584 
Q 5097 3584 5394 3201 
Q 5691 2819 5691 2113 
L 5691 0 
L 5113 0 
L 5113 2094 
Q 5113 2597 4934 2840 
Q 4756 3084 4391 3084 
Q 3944 3084 3684 2787 
Q 3425 2491 3425 1978 
L 3425 0 
L 2847 0 
L 2847 2094 
Q 2847 2600 2669 2842 
Q 2491 3084 2119 3084 
Q 1678 3084 1418 2786 
Q 1159 2488 1159 1978 
L 1159 0 
L 581 0 
L 581 3500 
L 1159 3500 
L 1159 2956 
Q 1356 3278 1631 3431 
Q 1906 3584 2284 3584 
Q 2666 3584 2933 3390 
Q 3200 3197 3328 2828 
z
" transform="scale(0.015625)"/>
       <path id="DejaVuSans-69" d="M 603 3500 
L 1178 3500 
L 1178 0 
L 603 0 
L 603 3500 
z
M 603 4863 
L 1178 4863 
L 1178 4134 
L 603 4134 
L 603 4863 
z
" transform="scale(0.015625)"/>
       <path id="DejaVuSans-72" d="M 2631 2963 
Q 2534 3019 2420 3045 
Q 2306 3072 2169 3072 
Q 1681 3072 1420 2755 
Q 1159 2438 1159 1844 
L 1159 0 
L 581 0 
L 581 3500 
L 1159 3500 
L 1159 2956 
Q 1341 3275 1631 3429 
Q 1922 3584 2338 3584 
Q 2397 3584 2469 3576 
Q 2541 3569 2628 3553 
L 2631 2963 
z
" transform="scale(0.015625)"/>
      </defs>
      <use xlink:href="#DejaVuSans-6d"/>
      <use xlink:href="#DejaVuSans-6f" transform="translate(97.412109 0)"/>
      <use xlink:href="#DejaVuSans-6e" transform="translate(158.59375 0)"/>
      <use xlink:href="#DejaVuSans-69" transform="translate(221.972656 0)"/>
      <use xlink:href="#DejaVuSans-74" transform="translate(249.755859 0)"/>
      <use xlink:href="#DejaVuSans-6f" transform="translate(288.964844 0)"/>
      <use xlink:href="#DejaVuSans-72" transform="translate(350.146484 0)"/>
     </g>
    </g>
    <g id="line2d_21">
     <path d="M 308.904688 34.976562 
L 308.904688 34.976562 
L 318.904688 34.976562 
L 318.904688 34.976562 
L 328.904688 34.976562 
" style="fill: none; stroke: #ff7f0e; stroke-width: 1.5; stroke-linecap: square"/>
    </g>
    <g id="text_20">
     <!-- detector -->
     <g transform="translate(336.904688 38.476562) scale(0.1 -0.1)">
      <defs>
       <path id="DejaVuSans-64" d="M 2906 2969 
L 2906 4863 
L 3481 4863 
L 3481 0 
L 2906 0 
L 2906 525 
Q 2725 213 2448 61 
Q 2172 -91 1784 -91 
Q 1150 -91 751 415 
Q 353 922 353 1747 
Q 353 2572 751 3078 
Q 1150 3584 1784 3584 
Q 2172 3584 2448 3432 
Q 2725 3281 2906 2969 
z
M 947 1747 
Q 947 1113 1208 752 
Q 1469 391 1925 391 
Q 2381 391 2643 752 
Q 2906 1113 2906 1747 
Q 2906 2381 2643 2742 
Q 2381 3103 1925 3103 
Q 1469 3103 1208 2742 
Q 947 2381 947 1747 
z
" transform="scale(0.015625)"/>
      </defs>
      <use xlink:href="#DejaVuSans-64"/>
      <use xlink:href="#DejaVuSans-65" transform="translate(63.476562 0)"/>
      <use xlink:href="#DejaVuSans-74" transform="translate(125 0)"/>
      <use xlink:href="#DejaVuSans-65" transform="translate(164.208984 0)"/>
      <use xlink:href="#DejaVuSans-63" transform="translate(225.732422 0)"/>
      <use xlink:href="#DejaVuSans-74" transform="translate(280.712891 0)"/>
      <use xlink:href="#DejaVuSans-6f" transform="translate(319.921875 0)"/>
      <use xlink:href="#DejaVuSans-72" transform="translate(381.103516 0)"/>
     </g>
    </g>
    <g id="line2d_22">
     <path d="M 308.904688 49.654688 
L 308.904688 49.654688 
L 318.904688 49.654688 
L 318.904688 49.654688 
L 328.904688 49.654688 
" style="fill: none; stroke: #2ca02c; stroke-width: 1.5; stroke-linecap: square"/>
    </g>
    <g id="text_21">
     <!-- true -->
     <g transform="translate(336.904688 53.154688) scale(0.1 -0.1)">
      <use xlink:href="#DejaVuSans-74"/>
      <use xlink:href="#DejaVuSans-72" transform="translate(39.208984 0)"/>
      <use xlink:href="#DejaVuSans-75" transform="translate(80.322266 0)"/>
      <use xlink:href="#DejaVuSans-65" transform="translate(143.701172 0)"/>
     </g>
    </g>
   </g>
  </g>
 </g>
 <defs>
  <clipPath id="pd688f304cf">
   <rect x="53.328125" y="7.2" width="334.8" height="221.76"/>
  </clipPath>
 </defs>
</svg>
