<?xml version="1.0" encoding="utf-8" standalone="no"?>
<!DOCTYPE svg PUBLIC "-//W3C//DTD SVG 1.1//EN"
  "http://www.w3.org/Graphics/SVG/1.1/DTD/svg11.dtd">
<svg xmlns:xlink="http://www.w3.org/1999/xlink" width="872.39952pt" height="296.39952pt" viewBox="0 0 872.39952 296.39952" xmlns="http://www.w3.org/2000/svg" version="1.1">
 <metadata>
  <rdf:RDF xmlns:dc="http://purl.org/dc/elements/1.1/" xmlns:cc="http://creativecommons.org/ns#" xmlns:rdf="http://www.w3.org/1999/02/22-rdf-syntax-ns#">
   <cc:Work>
    <dc:type rdf:resource="http://purl.org/dc/dcmitype/StillImage"/>
    <dc:date>2025-03-02T06:36:51.521713</dc:date>
    <dc:format>image/svg+xml</dc:format>
    <dc:creator>
     <cc:Agent>
      <dc:title>Matplotlib v3.10.0, https://matplotlib.org/</dc:title>
     </cc:Agent>
    </dc:creator>
   </cc:Work>
  </rdf:RDF>
 </metadata>
 <defs>
  <style type="text/css">*{stroke-linejoin: round; stroke-linecap: butt}</style>
 </defs>
 <g id="figure_1">
  <g id="patch_1">
   <path d="M 0 296.39952 
L 872.39952 296.39952 
L 872.39952 0 
L 0 0 
z
" style="fill: #ffffff"/>
  </g>
  <g id="axes_1">
   <g id="patch_2">
    <path d="M 46.965625 257.158895 
L 431.87976 257.158895 
L 431.87976 22.318125 
L 46.965625 22.318125 
z
" style="fill: #ffffff"/>
   </g>
   <g id="matplotlib.axis_1">
    <g id="xtick_1">
     <g id="line2d_1">
      <defs>
       <path id="m0920d1f5a7" d="M 0 0 
L 0 3.5 
" style="stroke: #000000; stroke-width: 0.8"/>
      </defs>
      <g>
       <use xlink:href="#m0920d1f5a7" x="82.878666" y="257.158895" style="stroke: #000000; stroke-width: 0.8"/>
      </g>
     </g>
     <g id="text_1">
      <!-- 1.0 -->
      <g transform="translate(74.927104 271.757332) scale(0.1 -0.1)">
       <defs>
        <path id="DejaVuSans-31" d="M 794 531 
L 1825 531 
L 1825 4091 
L 703 3866 
L 703 4441 
L 1819 4666 
L 2450 4666 
L 2450 531 
L 3481 531 
L 3481 0 
L 794 0 
L 794 531 
z
" transform="scale(0.015625)"/>
        <path id="DejaVuSans-2e" d="M 684 794 
L 1344 794 
L 1344 0 
L 684 0 
L 684 794 
z
" transform="scale(0.015625)"/>
        <path id="DejaVuSans-30" d="M 2034 4250 
Q 1547 4250 1301 3770 
Q 1056 3291 1056 2328 
Q 1056 1369 1301 889 
Q 1547 409 2034 409 
Q 2525 409 2770 889 
Q 3016 1369 3016 2328 
Q 3016 3291 2770 3770 
Q 2525 4250 2034 4250 
z
M 2034 4750 
Q 2819 4750 3233 4129 
Q 3647 3509 3647 2328 
Q 3647 1150 3233 529 
Q 2819 -91 2034 -91 
Q 1250 -91 836 529 
Q 422 1150 422 2328 
Q 422 3509 836 4129 
Q 1250 4750 2034 4750 
z
" transform="scale(0.015625)"/>
       </defs>
       <use xlink:href="#DejaVuSans-31"/>
       <use xlink:href="#DejaVuSans-2e" transform="translate(63.623047 0)"/>
       <use xlink:href="#DejaVuSans-30" transform="translate(95.410156 0)"/>
      </g>
     </g>
    </g>
    <g id="xtick_2">
     <g id="line2d_2">
      <g>
       <use xlink:href="#m0920d1f5a7" x="128.921027" y="257.158895" style="stroke: #000000; stroke-width: 0.8"/>
      </g>
     </g>
     <g id="text_2">
      <!-- 1.5 -->
      <g transform="translate(120.969464 271.757332) scale(0.1 -0.1)">
       <defs>
        <path id="DejaVuSans-35" d="M 691 4666 
L 3169 4666 
L 3169 4134 
L 1269 4134 
L 1269 2991 
Q 1406 3038 1543 3061 
Q 1681 3084 1819 3084 
Q 2600 3084 3056 2656 
Q 3513 2228 3513 1497 
Q 3513 744 3044 326 
Q 2575 -91 1722 -91 
Q 1428 -91 1123 -41 
Q 819 9 494 109 
L 494 744 
Q 775 591 1075 516 
Q 1375 441 1709 441 
Q 2250 441 2565 725 
Q 2881 1009 2881 1497 
Q 2881 1984 2565 2268 
Q 2250 2553 1709 2553 
Q 1456 2553 1204 2497 
Q 953 2441 691 2322 
L 691 4666 
z
" transform="scale(0.015625)"/>
       </defs>
       <use xlink:href="#DejaVuSans-31"/>
       <use xlink:href="#DejaVuSans-2e" transform="translate(63.623047 0)"/>
       <use xlink:href="#DejaVuSans-35" transform="translate(95.410156 0)"/>
      </g>
     </g>
    </g>
    <g id="xtick_3">
     <g id="line2d_3">
      <g>
       <use xlink:href="#m0920d1f5a7" x="174.963388" y="257.158895" style="stroke: #000000; stroke-width: 0.8"/>
      </g>
     </g>
     <g id="text_3">
      <!-- 2.0 -->
      <g transform="translate(167.011825 271.757332) scale(0.1 -0.1)">
       <defs>
        <path id="DejaVuSans-32" d="M 1228 531 
L 3431 531 
L 3431 0 
L 469 0 
L 469 531 
Q 828 903 1448 1529 
Q 2069 2156 2228 2338 
Q 2531 2678 2651 2914 
Q 2772 3150 2772 3378 
Q 2772 3750 2511 3984 
Q 2250 4219 1831 4219 
Q 1534 4219 1204 4116 
Q 875 4013 500 3803 
L 500 4441 
Q 881 4594 1212 4672 
Q 1544 4750 1819 4750 
Q 2544 4750 2975 4387 
Q 3406 4025 3406 3419 
Q 3406 3131 3298 2873 
Q 3191 2616 2906 2266 
Q 2828 2175 2409 1742 
Q 1991 1309 1228 531 
z
" transform="scale(0.015625)"/>
       </defs>
       <use xlink:href="#DejaVuSans-32"/>
       <use xlink:href="#DejaVuSans-2e" transform="translate(63.623047 0)"/>
       <use xlink:href="#DejaVuSans-30" transform="translate(95.410156 0)"/>
      </g>
     </g>
    </g>
    <g id="xtick_4">
     <g id="line2d_4">
      <g>
       <use xlink:href="#m0920d1f5a7" x="221.005748" y="257.158895" style="stroke: #000000; stroke-width: 0.8"/>
      </g>
     </g>
     <g id="text_4">
      <!-- 2.5 -->
      <g transform="translate(213.054186 271.757332) scale(0.1 -0.1)">
       <use xlink:href="#DejaVuSans-32"/>
       <use xlink:href="#DejaVuSans-2e" transform="translate(63.623047 0)"/>
       <use xlink:href="#DejaVuSans-35" transform="translate(95.410156 0)"/>
      </g>
     </g>
    </g>
    <g id="xtick_5">
     <g id="line2d_5">
      <g>
       <use xlink:href="#m0920d1f5a7" x="267.048109" y="257.158895" style="stroke: #000000; stroke-width: 0.8"/>
      </g>
     </g>
     <g id="text_5">
      <!-- 3.0 -->
      <g transform="translate(259.096546 271.757332) scale(0.1 -0.1)">
       <defs>
        <path id="DejaVuSans-33" d="M 2597 2516 
Q 3050 2419 3304 2112 
Q 3559 1806 3559 1356 
Q 3559 666 3084 287 
Q 2609 -91 1734 -91 
Q 1441 -91 1130 -33 
Q 819 25 488 141 
L 488 750 
Q 750 597 1062 519 
Q 1375 441 1716 441 
Q 2309 441 2620 675 
Q 2931 909 2931 1356 
Q 2931 1769 2642 2001 
Q 2353 2234 1838 2234 
L 1294 2234 
L 1294 2753 
L 1863 2753 
Q 2328 2753 2575 2939 
Q 2822 3125 2822 3475 
Q 2822 3834 2567 4026 
Q 2313 4219 1838 4219 
Q 1578 4219 1281 4162 
Q 984 4106 628 3988 
L 628 4550 
Q 988 4650 1302 4700 
Q 1616 4750 1894 4750 
Q 2613 4750 3031 4423 
Q 3450 4097 3450 3541 
Q 3450 3153 3228 2886 
Q 3006 2619 2597 2516 
z
" transform="scale(0.015625)"/>
       </defs>
       <use xlink:href="#DejaVuSans-33"/>
       <use xlink:href="#DejaVuSans-2e" transform="translate(63.623047 0)"/>
       <use xlink:href="#DejaVuSans-30" transform="translate(95.410156 0)"/>
      </g>
     </g>
    </g>
    <g id="xtick_6">
     <g id="line2d_6">
      <g>
       <use xlink:href="#m0920d1f5a7" x="313.09047" y="257.158895" style="stroke: #000000; stroke-width: 0.8"/>
      </g>
     </g>
     <g id="text_6">
      <!-- 3.5 -->
      <g transform="translate(305.138907 271.757332) scale(0.1 -0.1)">
       <use xlink:href="#DejaVuSans-33"/>
       <use xlink:href="#DejaVuSans-2e" transform="translate(63.623047 0)"/>
       <use xlink:href="#DejaVuSans-35" transform="translate(95.410156 0)"/>
      </g>
     </g>
    </g>
    <g id="xtick_7">
     <g id="line2d_7">
      <g>
       <use xlink:href="#m0920d1f5a7" x="359.13283" y="257.158895" style="stroke: #000000; stroke-width: 0.8"/>
      </g>
     </g>
     <g id="text_7">
      <!-- 4.0 -->
      <g transform="translate(351.181268 271.757332) scale(0.1 -0.1)">
       <defs>
        <path id="DejaVuSans-34" d="M 2419 4116 
L 825 1625 
L 2419 1625 
L 2419 4116 
z
M 2253 4666 
L 3047 4666 
L 3047 1625 
L 3713 1625 
L 3713 1100 
L 3047 1100 
L 3047 0 
L 2419 0 
L 2419 1100 
L 313 1100 
L 313 1709 
L 2253 4666 
z
" transform="scale(0.015625)"/>
       </defs>
       <use xlink:href="#DejaVuSans-34"/>
       <use xlink:href="#DejaVuSans-2e" transform="translate(63.623047 0)"/>
       <use xlink:href="#DejaVuSans-30" transform="translate(95.410156 0)"/>
      </g>
     </g>
    </g>
    <g id="xtick_8">
     <g id="line2d_8">
      <g>
       <use xlink:href="#m0920d1f5a7" x="405.175191" y="257.158895" style="stroke: #000000; stroke-width: 0.8"/>
      </g>
     </g>
     <g id="text_8">
      <!-- 4.5 -->
      <g transform="translate(397.223628 271.757332) scale(0.1 -0.1)">
       <use xlink:href="#DejaVuSans-34"/>
       <use xlink:href="#DejaVuSans-2e" transform="translate(63.623047 0)"/>
       <use xlink:href="#DejaVuSans-35" transform="translate(95.410156 0)"/>
      </g>
     </g>
    </g>
    <g id="text_9">
     <!-- wavelength [Å] -->
     <g transform="translate(201.385193 287.119832) scale(0.1 -0.1)">
      <defs>
       <path id="DejaVuSans-77" d="M 269 3500 
L 844 3500 
L 1563 769 
L 2278 3500 
L 2956 3500 
L 3675 769 
L 4391 3500 
L 4966 3500 
L 4050 0 
L 3372 0 
L 2619 2869 
L 1863 0 
L 1184 0 
L 269 3500 
z
" transform="scale(0.015625)"/>
       <path id="DejaVuSans-61" d="M 2194 1759 
Q 1497 1759 1228 1600 
Q 959 1441 959 1056 
Q 959 750 1161 570 
Q 1363 391 1709 391 
Q 2188 391 2477 730 
Q 2766 1069 2766 1631 
L 2766 1759 
L 2194 1759 
z
M 3341 1997 
L 3341 0 
L 2766 0 
L 2766 531 
Q 2569 213 2275 61 
Q 1981 -91 1556 -91 
Q 1019 -91 701 211 
Q 384 513 384 1019 
Q 384 1609 779 1909 
Q 1175 2209 1959 2209 
L 2766 2209 
L 2766 2266 
Q 2766 2663 2505 2880 
Q 2244 3097 1772 3097 
Q 1472 3097 1187 3025 
Q 903 2953 641 2809 
L 641 3341 
Q 956 3463 1253 3523 
Q 1550 3584 1831 3584 
Q 2591 3584 2966 3190 
Q 3341 2797 3341 1997 
z
" transform="scale(0.015625)"/>
       <path id="DejaVuSans-76" d="M 191 3500 
L 800 3500 
L 1894 563 
L 2988 3500 
L 3597 3500 
L 2284 0 
L 1503 0 
L 191 3500 
z
" transform="scale(0.015625)"/>
       <path id="DejaVuSans-65" d="M 3597 1894 
L 3597 1613 
L 953 1613 
Q 991 1019 1311 708 
Q 1631 397 2203 397 
Q 2534 397 2845 478 
Q 3156 559 3463 722 
L 3463 178 
Q 3153 47 2828 -22 
Q 2503 -91 2169 -91 
Q 1331 -91 842 396 
Q 353 884 353 1716 
Q 353 2575 817 3079 
Q 1281 3584 2069 3584 
Q 2775 3584 3186 3129 
Q 3597 2675 3597 1894 
z
M 3022 2063 
Q 3016 2534 2758 2815 
Q 2500 3097 2075 3097 
Q 1594 3097 1305 2825 
Q 1016 2553 972 2059 
L 3022 2063 
z
" transform="scale(0.015625)"/>
       <path id="DejaVuSans-6c" d="M 603 4863 
L 1178 4863 
L 1178 0 
L 603 0 
L 603 4863 
z
" transform="scale(0.015625)"/>
       <path id="DejaVuSans-6e" d="M 3513 2113 
L 3513 0 
L 2938 0 
L 2938 2094 
Q 2938 2591 2744 2837 
Q 2550 3084 2163 3084 
Q 1697 3084 1428 2787 
Q 1159 2491 1159 1978 
L 1159 0 
L 581 0 
L 581 3500 
L 1159 3500 
L 1159 2956 
Q 1366 3272 1645 3428 
Q 1925 3584 2291 3584 
Q 2894 3584 3203 3211 
Q 3513 2838 3513 2113 
z
" transform="scale(0.015625)"/>
       <path id="DejaVuSans-67" d="M 2906 1791 
Q 2906 2416 2648 2759 
Q 2391 3103 1925 3103 
Q 1463 3103 1205 2759 
Q 947 2416 947 1791 
Q 947 1169 1205 825 
Q 1463 481 1925 481 
Q 2391 481 2648 825 
Q 2906 1169 2906 1791 
z
M 3481 434 
Q 3481 -459 3084 -895 
Q 2688 -1331 1869 -1331 
Q 1566 -1331 1297 -1286 
Q 1028 -1241 775 -1147 
L 775 -588 
Q 1028 -725 1275 -790 
Q 1522 -856 1778 -856 
Q 2344 -856 2625 -561 
Q 2906 -266 2906 331 
L 2906 616 
Q 2728 306 2450 153 
Q 2172 0 1784 0 
Q 1141 0 747 490 
Q 353 981 353 1791 
Q 353 2603 747 3093 
Q 1141 3584 1784 3584 
Q 2172 3584 2450 3431 
Q 2728 3278 2906 2969 
L 2906 3500 
L 3481 3500 
L 3481 434 
z
" transform="scale(0.015625)"/>
       <path id="DejaVuSans-74" d="M 1172 4494 
L 1172 3500 
L 2356 3500 
L 2356 3053 
L 1172 3053 
L 1172 1153 
Q 1172 725 1289 603 
Q 1406 481 1766 481 
L 2356 481 
L 2356 0 
L 1766 0 
Q 1100 0 847 248 
Q 594 497 594 1153 
L 594 3053 
L 172 3053 
L 172 3500 
L 594 3500 
L 594 4494 
L 1172 4494 
z
" transform="scale(0.015625)"/>
       <path id="DejaVuSans-68" d="M 3513 2113 
L 3513 0 
L 2938 0 
L 2938 2094 
Q 2938 2591 2744 2837 
Q 2550 3084 2163 3084 
Q 1697 3084 1428 2787 
Q 1159 2491 1159 1978 
L 1159 0 
L 581 0 
L 581 4863 
L 1159 4863 
L 1159 2956 
Q 1366 3272 1645 3428 
Q 1925 3584 2291 3584 
Q 2894 3584 3203 3211 
Q 3513 2838 3513 2113 
z
" transform="scale(0.015625)"/>
       <path id="DejaVuSans-20" transform="scale(0.015625)"/>
       <path id="DejaVuSans-5b" d="M 550 4863 
L 1875 4863 
L 1875 4416 
L 1125 4416 
L 1125 -397 
L 1875 -397 
L 1875 -844 
L 550 -844 
L 550 4863 
z
" transform="scale(0.015625)"/>
       <path id="DejaVuSans-c5" d="M 2663 5081 
Q 2663 5278 2523 5417 
Q 2384 5556 2188 5556 
Q 1988 5556 1852 5420 
Q 1716 5284 1716 5081 
Q 1716 4884 1853 4746 
Q 1991 4609 2188 4609 
Q 2384 4609 2523 4746 
Q 2663 4884 2663 5081 
z
M 2188 4044 
L 1338 1722 
L 3041 1722 
L 2188 4044 
z
M 1716 4366 
Q 1525 4494 1428 4673 
Q 1331 4853 1331 5081 
Q 1331 5441 1579 5691 
Q 1828 5941 2188 5941 
Q 2544 5941 2795 5689 
Q 3047 5438 3047 5081 
Q 3047 4863 2948 4678 
Q 2850 4494 2663 4366 
L 4325 0 
L 3669 0 
L 3244 1197 
L 1141 1197 
L 716 0 
L 50 0 
L 1716 4366 
z
" transform="scale(0.015625)"/>
       <path id="DejaVuSans-5d" d="M 1947 4863 
L 1947 -844 
L 622 -844 
L 622 -397 
L 1369 -397 
L 1369 4416 
L 622 4416 
L 622 4863 
L 1947 4863 
z
" transform="scale(0.015625)"/>
      </defs>
      <use xlink:href="#DejaVuSans-77"/>
      <use xlink:href="#DejaVuSans-61" transform="translate(81.787109 0)"/>
      <use xlink:href="#DejaVuSans-76" transform="translate(143.066406 0)"/>
      <use xlink:href="#DejaVuSans-65" transform="translate(202.246094 0)"/>
      <use xlink:href="#DejaVuSans-6c" transform="translate(263.769531 0)"/>
      <use xlink:href="#DejaVuSans-65" transform="translate(291.552734 0)"/>
      <use xlink:href="#DejaVuSans-6e" transform="translate(353.076172 0)"/>
      <use xlink:href="#DejaVuSans-67" transform="translate(416.455078 0)"/>
      <use xlink:href="#DejaVuSans-74" transform="translate(479.931641 0)"/>
      <use xlink:href="#DejaVuSans-68" transform="translate(519.140625 0)"/>
      <use xlink:href="#DejaVuSans-20" transform="translate(582.519531 0)"/>
      <use xlink:href="#DejaVuSans-5b" transform="translate(614.306641 0)"/>
      <use xlink:href="#DejaVuSans-c5" transform="translate(653.320312 0)"/>
      <use xlink:href="#DejaVuSans-5d" transform="translate(721.728516 0)"/>
     </g>
    </g>
   </g>
   <g id="matplotlib.axis_2">
    <g id="ytick_1">
     <g id="line2d_9">
      <defs>
       <path id="me2227dae15" d="M 0 0 
L -3.5 0 
" style="stroke: #000000; stroke-width: 0.8"/>
      </defs>
      <g>
       <use xlink:href="#me2227dae15" x="46.965625" y="246.484315" style="stroke: #000000; stroke-width: 0.8"/>
      </g>
     </g>
     <g id="text_10">
      <!-- 0 -->
      <g transform="translate(33.603125 250.283533) scale(0.1 -0.1)">
       <use xlink:href="#DejaVuSans-30"/>
      </g>
     </g>
    </g>
    <g id="ytick_2">
     <g id="line2d_10">
      <g>
       <use xlink:href="#me2227dae15" x="46.965625" y="219.73098" style="stroke: #000000; stroke-width: 0.8"/>
      </g>
     </g>
     <g id="text_11">
      <!-- 100 -->
      <g transform="translate(20.878125 223.530199) scale(0.1 -0.1)">
       <use xlink:href="#DejaVuSans-31"/>
       <use xlink:href="#DejaVuSans-30" transform="translate(63.623047 0)"/>
       <use xlink:href="#DejaVuSans-30" transform="translate(127.246094 0)"/>
      </g>
     </g>
    </g>
    <g id="ytick_3">
     <g id="line2d_11">
      <g>
       <use xlink:href="#me2227dae15" x="46.965625" y="192.977646" style="stroke: #000000; stroke-width: 0.8"/>
      </g>
     </g>
     <g id="text_12">
      <!-- 200 -->
      <g transform="translate(20.878125 196.776864) scale(0.1 -0.1)">
       <use xlink:href="#DejaVuSans-32"/>
       <use xlink:href="#DejaVuSans-30" transform="translate(63.623047 0)"/>
       <use xlink:href="#DejaVuSans-30" transform="translate(127.246094 0)"/>
      </g>
     </g>
    </g>
    <g id="ytick_4">
     <g id="line2d_12">
      <g>
       <use xlink:href="#me2227dae15" x="46.965625" y="166.224311" style="stroke: #000000; stroke-width: 0.8"/>
      </g>
     </g>
     <g id="text_13">
      <!-- 300 -->
      <g transform="translate(20.878125 170.02353) scale(0.1 -0.1)">
       <use xlink:href="#DejaVuSans-33"/>
       <use xlink:href="#DejaVuSans-30" transform="translate(63.623047 0)"/>
       <use xlink:href="#DejaVuSans-30" transform="translate(127.246094 0)"/>
      </g>
     </g>
    </g>
    <g id="ytick_5">
     <g id="line2d_13">
      <g>
       <use xlink:href="#me2227dae15" x="46.965625" y="139.470977" style="stroke: #000000; stroke-width: 0.8"/>
      </g>
     </g>
     <g id="text_14">
      <!-- 400 -->
      <g transform="translate(20.878125 143.270195) scale(0.1 -0.1)">
       <use xlink:href="#DejaVuSans-34"/>
       <use xlink:href="#DejaVuSans-30" transform="translate(63.623047 0)"/>
       <use xlink:href="#DejaVuSans-30" transform="translate(127.246094 0)"/>
      </g>
     </g>
    </g>
    <g id="ytick_6">
     <g id="line2d_14">
      <g>
       <use xlink:href="#me2227dae15" x="46.965625" y="112.717642" style="stroke: #000000; stroke-width: 0.8"/>
      </g>
     </g>
     <g id="text_15">
      <!-- 500 -->
      <g transform="translate(20.878125 116.516861) scale(0.1 -0.1)">
       <use xlink:href="#DejaVuSans-35"/>
       <use xlink:href="#DejaVuSans-30" transform="translate(63.623047 0)"/>
       <use xlink:href="#DejaVuSans-30" transform="translate(127.246094 0)"/>
      </g>
     </g>
    </g>
    <g id="ytick_7">
     <g id="line2d_15">
      <g>
       <use xlink:href="#me2227dae15" x="46.965625" y="85.964308" style="stroke: #000000; stroke-width: 0.8"/>
      </g>
     </g>
     <g id="text_16">
      <!-- 600 -->
      <g transform="translate(20.878125 89.763526) scale(0.1 -0.1)">
       <defs>
        <path id="DejaVuSans-36" d="M 2113 2584 
Q 1688 2584 1439 2293 
Q 1191 2003 1191 1497 
Q 1191 994 1439 701 
Q 1688 409 2113 409 
Q 2538 409 2786 701 
Q 3034 994 3034 1497 
Q 3034 2003 2786 2293 
Q 2538 2584 2113 2584 
z
M 3366 4563 
L 3366 3988 
Q 3128 4100 2886 4159 
Q 2644 4219 2406 4219 
Q 1781 4219 1451 3797 
Q 1122 3375 1075 2522 
Q 1259 2794 1537 2939 
Q 1816 3084 2150 3084 
Q 2853 3084 3261 2657 
Q 3669 2231 3669 1497 
Q 3669 778 3244 343 
Q 2819 -91 2113 -91 
Q 1303 -91 875 529 
Q 447 1150 447 2328 
Q 447 3434 972 4092 
Q 1497 4750 2381 4750 
Q 2619 4750 2861 4703 
Q 3103 4656 3366 4563 
z
" transform="scale(0.015625)"/>
       </defs>
       <use xlink:href="#DejaVuSans-36"/>
       <use xlink:href="#DejaVuSans-30" transform="translate(63.623047 0)"/>
       <use xlink:href="#DejaVuSans-30" transform="translate(127.246094 0)"/>
      </g>
     </g>
    </g>
    <g id="ytick_8">
     <g id="line2d_16">
      <g>
       <use xlink:href="#me2227dae15" x="46.965625" y="59.210973" style="stroke: #000000; stroke-width: 0.8"/>
      </g>
     </g>
     <g id="text_17">
      <!-- 700 -->
      <g transform="translate(20.878125 63.010192) scale(0.1 -0.1)">
       <defs>
        <path id="DejaVuSans-37" d="M 525 4666 
L 3525 4666 
L 3525 4397 
L 1831 0 
L 1172 0 
L 2766 4134 
L 525 4134 
L 525 4666 
z
" transform="scale(0.015625)"/>
       </defs>
       <use xlink:href="#DejaVuSans-37"/>
       <use xlink:href="#DejaVuSans-30" transform="translate(63.623047 0)"/>
       <use xlink:href="#DejaVuSans-30" transform="translate(127.246094 0)"/>
      </g>
     </g>
    </g>
    <g id="ytick_9">
     <g id="line2d_17">
      <g>
       <use xlink:href="#me2227dae15" x="46.965625" y="32.457639" style="stroke: #000000; stroke-width: 0.8"/>
      </g>
     </g>
     <g id="text_18">
      <!-- 800 -->
      <g transform="translate(20.878125 36.256858) scale(0.1 -0.1)">
       <defs>
        <path id="DejaVuSans-38" d="M 2034 2216 
Q 1584 2216 1326 1975 
Q 1069 1734 1069 1313 
Q 1069 891 1326 650 
Q 1584 409 2034 409 
Q 2484 409 2743 651 
Q 3003 894 3003 1313 
Q 3003 1734 2745 1975 
Q 2488 2216 2034 2216 
z
M 1403 2484 
Q 997 2584 770 2862 
Q 544 3141 544 3541 
Q 544 4100 942 4425 
Q 1341 4750 2034 4750 
Q 2731 4750 3128 4425 
Q 3525 4100 3525 3541 
Q 3525 3141 3298 2862 
Q 3072 2584 2669 2484 
Q 3125 2378 3379 2068 
Q 3634 1759 3634 1313 
Q 3634 634 3220 271 
Q 2806 -91 2034 -91 
Q 1263 -91 848 271 
Q 434 634 434 1313 
Q 434 1759 690 2068 
Q 947 2378 1403 2484 
z
M 1172 3481 
Q 1172 3119 1398 2916 
Q 1625 2713 2034 2713 
Q 2441 2713 2670 2916 
Q 2900 3119 2900 3481 
Q 2900 3844 2670 4047 
Q 2441 4250 2034 4250 
Q 1625 4250 1398 4047 
Q 1172 3844 1172 3481 
z
" transform="scale(0.015625)"/>
       </defs>
       <use xlink:href="#DejaVuSans-38"/>
       <use xlink:href="#DejaVuSans-30" transform="translate(63.623047 0)"/>
       <use xlink:href="#DejaVuSans-30" transform="translate(127.246094 0)"/>
      </g>
     </g>
    </g>
    <g id="text_19">
     <!-- [counts] -->
     <g transform="translate(14.798437 160.35101) rotate(-90) scale(0.1 -0.1)">
      <defs>
       <path id="DejaVuSans-63" d="M 3122 3366 
L 3122 2828 
Q 2878 2963 2633 3030 
Q 2388 3097 2138 3097 
Q 1578 3097 1268 2742 
Q 959 2388 959 1747 
Q 959 1106 1268 751 
Q 1578 397 2138 397 
Q 2388 397 2633 464 
Q 2878 531 3122 666 
L 3122 134 
Q 2881 22 2623 -34 
Q 2366 -91 2075 -91 
Q 1284 -91 818 406 
Q 353 903 353 1747 
Q 353 2603 823 3093 
Q 1294 3584 2113 3584 
Q 2378 3584 2631 3529 
Q 2884 3475 3122 3366 
z
" transform="scale(0.015625)"/>
       <path id="DejaVuSans-6f" d="M 1959 3097 
Q 1497 3097 1228 2736 
Q 959 2375 959 1747 
Q 959 1119 1226 758 
Q 1494 397 1959 397 
Q 2419 397 2687 759 
Q 2956 1122 2956 1747 
Q 2956 2369 2687 2733 
Q 2419 3097 1959 3097 
z
M 1959 3584 
Q 2709 3584 3137 3096 
Q 3566 2609 3566 1747 
Q 3566 888 3137 398 
Q 2709 -91 1959 -91 
Q 1206 -91 779 398 
Q 353 888 353 1747 
Q 353 2609 779 3096 
Q 1206 3584 1959 3584 
z
" transform="scale(0.015625)"/>
       <path id="DejaVuSans-75" d="M 544 1381 
L 544 3500 
L 1119 3500 
L 1119 1403 
Q 1119 906 1312 657 
Q 1506 409 1894 409 
Q 2359 409 2629 706 
Q 2900 1003 2900 1516 
L 2900 3500 
L 3475 3500 
L 3475 0 
L 2900 0 
L 2900 538 
Q 2691 219 2414 64 
Q 2138 -91 1772 -91 
Q 1169 -91 856 284 
Q 544 659 544 1381 
z
M 1991 3584 
L 1991 3584 
z
" transform="scale(0.015625)"/>
       <path id="DejaVuSans-73" d="M 2834 3397 
L 2834 2853 
Q 2591 2978 2328 3040 
Q 2066 3103 1784 3103 
Q 1356 3103 1142 2972 
Q 928 2841 928 2578 
Q 928 2378 1081 2264 
Q 1234 2150 1697 2047 
L 1894 2003 
Q 2506 1872 2764 1633 
Q 3022 1394 3022 966 
Q 3022 478 2636 193 
Q 2250 -91 1575 -91 
Q 1294 -91 989 -36 
Q 684 19 347 128 
L 347 722 
Q 666 556 975 473 
Q 1284 391 1588 391 
Q 1994 391 2212 530 
Q 2431 669 2431 922 
Q 2431 1156 2273 1281 
Q 2116 1406 1581 1522 
L 1381 1569 
Q 847 1681 609 1914 
Q 372 2147 372 2553 
Q 372 3047 722 3315 
Q 1072 3584 1716 3584 
Q 2034 3584 2315 3537 
Q 2597 3491 2834 3397 
z
" transform="scale(0.015625)"/>
      </defs>
      <use xlink:href="#DejaVuSans-5b"/>
      <use xlink:href="#DejaVuSans-63" transform="translate(39.013672 0)"/>
      <use xlink:href="#DejaVuSans-6f" transform="translate(93.994141 0)"/>
      <use xlink:href="#DejaVuSans-75" transform="translate(155.175781 0)"/>
      <use xlink:href="#DejaVuSans-6e" transform="translate(218.554688 0)"/>
      <use xlink:href="#DejaVuSans-74" transform="translate(281.933594 0)"/>
      <use xlink:href="#DejaVuSans-73" transform="translate(321.142578 0)"/>
      <use xlink:href="#DejaVuSans-5d" transform="translate(373.242188 0)"/>
     </g>
    </g>
   </g>
   <g id="patch_3">
    <path d="M 46.965625 257.158895 
L 46.965625 22.318125 
" style="fill: none; stroke: #000000; stroke-width: 0.8; stroke-linejoin: miter; stroke-linecap: square"/>
   </g>
   <g id="patch_4">
    <path d="M 431.87976 257.158895 
L 431.87976 22.318125 
" style="fill: none; stroke: #000000; stroke-width: 0.8; stroke-linejoin: miter; stroke-linecap: square"/>
   </g>
   <g id="patch_5">
    <path d="M 46.965625 257.158895 
L 431.87976 257.158895 
" style="fill: none; stroke: #000000; stroke-width: 0.8; stroke-linejoin: miter; stroke-linecap: square"/>
   </g>
   <g id="patch_6">
    <path d="M 46.965625 22.318125 
L 431.87976 22.318125 
" style="fill: none; stroke: #000000; stroke-width: 0.8; stroke-linejoin: miter; stroke-linecap: square"/>
   </g>
   <g id="text_20">
    <!-- Pixel 1 -->
    <g transform="translate(219.82613 16.318125) scale(0.12 -0.12)">
     <defs>
      <path id="DejaVuSans-50" d="M 1259 4147 
L 1259 2394 
L 2053 2394 
Q 2494 2394 2734 2622 
Q 2975 2850 2975 3272 
Q 2975 3691 2734 3919 
Q 2494 4147 2053 4147 
L 1259 4147 
z
M 628 4666 
L 2053 4666 
Q 2838 4666 3239 4311 
Q 3641 3956 3641 3272 
Q 3641 2581 3239 2228 
Q 2838 1875 2053 1875 
L 1259 1875 
L 1259 0 
L 628 0 
L 628 4666 
z
" transform="scale(0.015625)"/>
      <path id="DejaVuSans-69" d="M 603 3500 
L 1178 3500 
L 1178 0 
L 603 0 
L 603 3500 
z
M 603 4863 
L 1178 4863 
L 1178 4134 
L 603 4134 
L 603 4863 
z
" transform="scale(0.015625)"/>
      <path id="DejaVuSans-78" d="M 3513 3500 
L 2247 1797 
L 3578 0 
L 2900 0 
L 1881 1375 
L 863 0 
L 184 0 
L 1544 1831 
L 300 3500 
L 978 3500 
L 1906 2253 
L 2834 3500 
L 3513 3500 
z
" transform="scale(0.015625)"/>
     </defs>
     <use xlink:href="#DejaVuSans-50"/>
     <use xlink:href="#DejaVuSans-69" transform="translate(58.052734 0)"/>
     <use xlink:href="#DejaVuSans-78" transform="translate(85.835938 0)"/>
     <use xlink:href="#DejaVuSans-65" transform="translate(141.890625 0)"/>
     <use xlink:href="#DejaVuSans-6c" transform="translate(203.414062 0)"/>
     <use xlink:href="#DejaVuSans-20" transform="translate(231.197266 0)"/>
     <use xlink:href="#DejaVuSans-31" transform="translate(262.984375 0)"/>
    </g>
   </g>
   <g id="legend_1">
    <g id="patch_7">
     <path d="M 327.876635 59.9525 
L 424.87976 59.9525 
Q 426.87976 59.9525 426.87976 57.9525 
L 426.87976 29.318125 
Q 426.87976 27.318125 424.87976 27.318125 
L 327.876635 27.318125 
Q 325.876635 27.318125 325.876635 29.318125 
L 325.876635 57.9525 
Q 325.876635 59.9525 327.876635 59.9525 
z
" style="fill: #ffffff; opacity: 0.8; stroke: #cccccc; stroke-linejoin: miter"/>
    </g>
    <g id="line2d_18">
     <path d="M 329.876635 35.416562 
L 329.876635 35.416562 
L 339.876635 35.416562 
L 339.876635 35.416562 
L 349.876635 35.416562 
" style="fill: none; stroke: #1f77b4; stroke-width: 1.5; stroke-linecap: square"/>
    </g>
    <g id="text_21">
     <!-- wfm -->
     <g transform="translate(357.876635 38.916562) scale(0.1 -0.1)">
      <defs>
       <path id="DejaVuSans-66" d="M 2375 4863 
L 2375 4384 
L 1825 4384 
Q 1516 4384 1395 4259 
Q 1275 4134 1275 3809 
L 1275 3500 
L 2222 3500 
L 2222 3053 
L 1275 3053 
L 1275 0 
L 697 0 
L 697 3053 
L 147 3053 
L 147 3500 
L 697 3500 
L 697 3744 
Q 697 4328 969 4595 
Q 1241 4863 1831 4863 
L 2375 4863 
z
" transform="scale(0.015625)"/>
       <path id="DejaVuSans-6d" d="M 3328 2828 
Q 3544 3216 3844 3400 
Q 4144 3584 4550 3584 
Q 5097 3584 5394 3201 
Q 5691 2819 5691 2113 
L 5691 0 
L 5113 0 
L 5113 2094 
Q 5113 2597 4934 2840 
Q 4756 3084 4391 3084 
Q 3944 3084 3684 2787 
Q 3425 2491 3425 1978 
L 3425 0 
L 2847 0 
L 2847 2094 
Q 2847 2600 2669 2842 
Q 2491 3084 2119 3084 
Q 1678 3084 1418 2786 
Q 1159 2488 1159 1978 
L 1159 0 
L 581 0 
L 581 3500 
L 1159 3500 
L 1159 2956 
Q 1356 3278 1631 3431 
Q 1906 3584 2284 3584 
Q 2666 3584 2933 3390 
Q 3200 3197 3328 2828 
z
" transform="scale(0.015625)"/>
      </defs>
      <use xlink:href="#DejaVuSans-77"/>
      <use xlink:href="#DejaVuSans-66" transform="translate(81.787109 0)"/>
      <use xlink:href="#DejaVuSans-6d" transform="translate(116.992188 0)"/>
     </g>
    </g>
    <g id="line2d_19">
     <path d="M 329.876635 50.094687 
L 329.876635 50.094687 
L 339.876635 50.094687 
L 339.876635 50.094687 
L 349.876635 50.094687 
" style="fill: none; stroke: #ff7f0e; stroke-width: 1.5; stroke-linecap: square"/>
    </g>
    <g id="text_22">
     <!-- ground_truth -->
     <g transform="translate(357.876635 53.594687) scale(0.1 -0.1)">
      <defs>
       <path id="DejaVuSans-72" d="M 2631 2963 
Q 2534 3019 2420 3045 
Q 2306 3072 2169 3072 
Q 1681 3072 1420 2755 
Q 1159 2438 1159 1844 
L 1159 0 
L 581 0 
L 581 3500 
L 1159 3500 
L 1159 2956 
Q 1341 3275 1631 3429 
Q 1922 3584 2338 3584 
Q 2397 3584 2469 3576 
Q 2541 3569 2628 3553 
L 2631 2963 
z
" transform="scale(0.015625)"/>
       <path id="DejaVuSans-64" d="M 2906 2969 
L 2906 4863 
L 3481 4863 
L 3481 0 
L 2906 0 
L 2906 525 
Q 2725 213 2448 61 
Q 2172 -91 1784 -91 
Q 1150 -91 751 415 
Q 353 922 353 1747 
Q 353 2572 751 3078 
Q 1150 3584 1784 3584 
Q 2172 3584 2448 3432 
Q 2725 3281 2906 2969 
z
M 947 1747 
Q 947 1113 1208 752 
Q 1469 391 1925 391 
Q 2381 391 2643 752 
Q 2906 1113 2906 1747 
Q 2906 2381 2643 2742 
Q 2381 3103 1925 3103 
Q 1469 3103 1208 2742 
Q 947 2381 947 1747 
z
" transform="scale(0.015625)"/>
       <path id="DejaVuSans-5f" d="M 3263 -1063 
L 3263 -1509 
L -63 -1509 
L -63 -1063 
L 3263 -1063 
z
" transform="scale(0.015625)"/>
      </defs>
      <use xlink:href="#DejaVuSans-67"/>
      <use xlink:href="#DejaVuSans-72" transform="translate(63.476562 0)"/>
      <use xlink:href="#DejaVuSans-6f" transform="translate(102.339844 0)"/>
      <use xlink:href="#DejaVuSans-75" transform="translate(163.521484 0)"/>
      <use xlink:href="#DejaVuSans-6e" transform="translate(226.900391 0)"/>
      <use xlink:href="#DejaVuSans-64" transform="translate(290.279297 0)"/>
      <use xlink:href="#DejaVuSans-5f" transform="translate(353.755859 0)"/>
      <use xlink:href="#DejaVuSans-74" transform="translate(403.755859 0)"/>
      <use xlink:href="#DejaVuSans-72" transform="translate(442.964844 0)"/>
      <use xlink:href="#DejaVuSans-75" transform="translate(484.078125 0)"/>
      <use xlink:href="#DejaVuSans-74" transform="translate(547.457031 0)"/>
      <use xlink:href="#DejaVuSans-68" transform="translate(586.666016 0)"/>
     </g>
    </g>
   </g>
   <g id="line2d_20">
    <path d="M 64.461722 246.484315 
L 73.209771 246.484315 
L 73.209771 244.879114 
L 74.95938 244.879114 
L 74.95938 235.782981 
L 76.70899 235.782981 
L 76.70899 228.024514 
L 78.4586 228.024514 
L 78.4586 219.73098 
L 80.208209 219.73098 
L 80.208209 212.240046 
L 81.957819 212.240046 
L 81.957819 203.946513 
L 83.707429 203.946513 
L 83.707429 195.117912 
L 85.457039 195.117912 
L 85.457039 192.977646 
L 87.206648 192.977646 
L 87.206648 181.473712 
L 88.956258 181.473712 
L 88.956258 167.026911 
L 90.705868 167.026911 
L 90.705868 164.084044 
L 92.455477 164.084044 
L 92.455477 163.816511 
L 94.205087 163.816511 
L 94.205087 154.185311 
L 95.954697 154.185311 
L 95.954697 139.203443 
L 97.704306 139.203443 
L 97.704306 132.247576 
L 99.453916 132.247576 
L 99.453916 115.125442 
L 101.203526 115.125442 
L 101.203526 116.998176 
L 102.953136 116.998176 
L 102.953136 107.902042 
L 104.702745 107.902042 
L 104.702745 98.270842 
L 106.452355 98.270842 
L 106.452355 102.283842 
L 108.201965 102.283842 
L 108.201965 94.525375 
L 109.951574 94.525375 
L 109.951574 80.078574 
L 111.701184 80.078574 
L 111.701184 76.333107 
L 113.450794 76.333107 
L 113.450794 64.56164 
L 115.200403 64.56164 
L 115.200403 66.96944 
L 116.950013 66.96944 
L 116.950013 53.592773 
L 118.699623 53.592773 
L 118.699623 59.210973 
L 120.449233 59.210973 
L 120.449233 45.566773 
L 122.198842 45.566773 
L 122.198842 50.649906 
L 123.948452 50.649906 
L 123.948452 54.395373 
L 125.698062 54.395373 
L 125.698062 47.171973 
L 127.447671 47.171973 
L 127.447671 37.540772 
L 129.197281 37.540772 
L 129.197281 33.795305 
L 130.946891 33.795305 
L 130.946891 42.623906 
L 132.696501 42.623906 
L 132.696501 35.668039 
L 134.44611 35.668039 
L 134.44611 46.101839 
L 136.19572 46.101839 
L 136.19572 52.52264 
L 137.94533 52.52264 
L 137.94533 56.268106 
L 139.694939 56.268106 
L 139.694939 57.33824 
L 141.444549 57.33824 
L 141.444549 62.95644 
L 143.194159 62.95644 
L 143.194159 55.197973 
L 144.943768 55.197973 
L 144.943768 61.618773 
L 146.693378 61.618773 
L 146.693378 53.592773 
L 148.442988 53.592773 
L 148.442988 72.855174 
L 150.192598 72.855174 
L 150.192598 72.320107 
L 151.942207 72.320107 
L 151.942207 57.070706 
L 153.691817 57.070706 
L 153.691817 67.77204 
L 155.441427 67.77204 
L 155.441427 74.995441 
L 157.191036 74.995441 
L 157.191036 85.964308 
L 158.940646 85.964308 
L 158.940646 74.995441 
L 160.690256 74.995441 
L 160.690256 80.881174 
L 162.439866 80.881174 
L 162.439866 87.301974 
L 164.189475 87.301974 
L 164.189475 81.951308 
L 165.939085 81.951308 
L 165.939085 76.600641 
L 167.688695 76.600641 
L 167.688695 89.442241 
L 169.438304 89.442241 
L 169.438304 76.065574 
L 171.187914 76.065574 
L 171.187914 83.824041 
L 172.937524 83.824041 
L 172.937524 74.192841 
L 174.687133 74.192841 
L 174.687133 84.626641 
L 176.436743 84.626641 
L 176.436743 81.148708 
L 178.186353 81.148708 
L 178.186353 94.257841 
L 179.935963 94.257841 
L 179.935963 83.288974 
L 181.685572 83.288974 
L 181.685572 80.881174 
L 183.435182 80.881174 
L 183.435182 87.569508 
L 185.184792 87.569508 
L 185.184792 84.626641 
L 186.934401 84.626641 
L 186.934401 87.569508 
L 188.684011 87.569508 
L 188.684011 85.161708 
L 190.433621 85.161708 
L 190.433621 93.990308 
L 192.18323 93.990308 
L 192.18323 89.442241 
L 193.93284 89.442241 
L 193.93284 92.652641 
L 195.68245 92.652641 
L 195.68245 100.678642 
L 197.43206 100.678642 
L 197.43206 103.086442 
L 199.181669 103.086442 
L 199.181669 111.915042 
L 200.931279 111.915042 
L 200.931279 96.398108 
L 202.680889 96.398108 
L 202.680889 124.221576 
L 204.430498 124.221576 
L 204.430498 136.795643 
L 206.180108 136.795643 
L 206.180108 141.076177 
L 207.929718 141.076177 
L 207.929718 133.852776 
L 209.679328 133.852776 
L 209.679328 146.694377 
L 211.428937 146.694377 
L 211.428937 156.058044 
L 213.178547 156.058044 
L 213.178547 169.167178 
L 214.928157 169.167178 
L 214.928157 171.574978 
L 216.677766 171.574978 
L 216.677766 172.377578 
L 218.427376 172.377578 
L 218.427376 185.486712 
L 220.176986 185.486712 
L 220.176986 194.315312 
L 221.926595 194.315312 
L 221.926595 198.595846 
L 223.676205 198.595846 
L 223.676205 210.09978 
L 225.425815 210.09978 
L 225.425815 216.52058 
L 227.175425 216.52058 
L 227.175425 225.081647 
L 228.925034 225.081647 
L 228.925034 228.55958 
L 230.674644 228.55958 
L 230.674644 236.050514 
L 232.424254 236.050514 
L 232.424254 240.063514 
L 234.173863 240.063514 
L 234.173863 243.273914 
L 235.923473 243.273914 
L 235.923473 243.808981 
L 237.673083 243.808981 
L 237.673083 238.458314 
L 239.422693 238.458314 
L 239.422693 230.699847 
L 241.172302 230.699847 
L 241.172302 222.673847 
L 242.921912 222.673847 
L 242.921912 223.74398 
L 244.671522 223.74398 
L 244.671522 212.50758 
L 246.421131 212.50758 
L 246.421131 210.90238 
L 248.170741 210.90238 
L 248.170741 202.876379 
L 249.920351 202.876379 
L 249.920351 193.245179 
L 251.66996 193.245179 
L 251.66996 185.219179 
L 253.41957 185.219179 
L 253.41957 185.754245 
L 255.16918 185.754245 
L 255.16918 183.881512 
L 256.91879 183.881512 
L 256.91879 170.237311 
L 258.668399 170.237311 
L 258.668399 174.250311 
L 260.418009 174.250311 
L 260.418009 165.154178 
L 262.167619 165.154178 
L 262.167619 172.110045 
L 263.917228 172.110045 
L 263.917228 154.452844 
L 265.666838 154.452844 
L 265.666838 148.299577 
L 267.416448 148.299577 
L 267.416448 146.426844 
L 269.166057 146.426844 
L 269.166057 145.891777 
L 270.915667 145.891777 
L 270.915667 142.681377 
L 272.665277 142.681377 
L 272.665277 144.019044 
L 274.414887 144.019044 
L 274.414887 124.756643 
L 276.164496 124.756643 
L 276.164496 131.444976 
L 277.914106 131.444976 
L 277.914106 130.10731 
L 279.663716 130.10731 
L 279.663716 126.361843 
L 281.413325 126.361843 
L 281.413325 133.31771 
L 283.162935 133.31771 
L 283.162935 119.941042 
L 284.912545 119.941042 
L 284.912545 104.156575 
L 286.662155 104.156575 
L 286.662155 110.844909 
L 288.411764 110.844909 
L 288.411764 105.761775 
L 290.161374 105.761775 
L 290.161374 102.818908 
L 291.910984 102.818908 
L 291.910984 108.704642 
L 293.660593 108.704642 
L 293.660593 107.366975 
L 295.410203 107.366975 
L 295.410203 108.704642 
L 297.159813 108.704642 
L 297.159813 116.463109 
L 298.909422 116.463109 
L 298.909422 120.208576 
L 300.659032 120.208576 
L 300.659032 122.883909 
L 302.408642 122.883909 
L 302.408642 116.730642 
L 304.158252 116.730642 
L 304.158252 117.800776 
L 305.907861 117.800776 
L 305.907861 129.572243 
L 307.657471 129.572243 
L 307.657471 128.769643 
L 309.407081 128.769643 
L 309.407081 131.980043 
L 311.15669 131.980043 
L 311.15669 130.642376 
L 312.9063 130.642376 
L 312.9063 137.598243 
L 314.65591 137.598243 
L 314.65591 125.826776 
L 316.405519 125.826776 
L 316.405519 145.089177 
L 318.155129 145.089177 
L 318.155129 138.668377 
L 319.904739 138.668377 
L 319.904739 149.904777 
L 321.654349 149.904777 
L 321.654349 144.286577 
L 323.403958 144.286577 
L 323.403958 136.795643 
L 325.153568 136.795643 
L 325.153568 135.993043 
L 326.903178 135.993043 
L 326.903178 151.509977 
L 328.652787 151.509977 
L 328.652787 135.457976 
L 330.402397 135.457976 
L 330.402397 147.76451 
L 332.152007 147.76451 
L 332.152007 149.36971 
L 333.901617 149.36971 
L 333.901617 150.439844 
L 335.651226 150.439844 
L 335.651226 155.255444 
L 337.400836 155.255444 
L 337.400836 153.115177 
L 339.150446 153.115177 
L 339.150446 160.606111 
L 340.900055 160.606111 
L 340.900055 159.268444 
L 342.649665 159.268444 
L 342.649665 156.593111 
L 344.399275 156.593111 
L 344.399275 160.873644 
L 346.148884 160.873644 
L 346.148884 164.351578 
L 347.898494 164.351578 
L 347.898494 164.886644 
L 349.648104 164.886644 
L 349.648104 171.574978 
L 351.397714 171.574978 
L 351.397714 166.759378 
L 353.147323 166.759378 
L 353.147323 168.899645 
L 354.896933 168.899645 
L 354.896933 177.995778 
L 356.646543 177.995778 
L 356.646543 180.136045 
L 358.396152 180.136045 
L 358.396152 174.517845 
L 360.145762 174.517845 
L 360.145762 179.868512 
L 361.895372 179.868512 
L 361.895372 185.486712 
L 363.644982 185.486712 
L 363.644982 179.868512 
L 365.394591 179.868512 
L 365.394591 189.499712 
L 367.144201 189.499712 
L 367.144201 187.359445 
L 368.893811 187.359445 
L 368.893811 196.188046 
L 370.64342 196.188046 
L 370.64342 205.016646 
L 372.39303 205.016646 
L 372.39303 206.88938 
L 374.14264 206.88938 
L 374.14264 207.424446 
L 375.892249 207.424446 
L 375.892249 215.450447 
L 377.641859 215.450447 
L 377.641859 218.660847 
L 379.391469 218.660847 
L 379.391469 218.92838 
L 381.141079 218.92838 
L 381.141079 221.33618 
L 382.890688 221.33618 
L 382.890688 228.024514 
L 384.640298 228.024514 
L 384.640298 226.95438 
L 386.389908 226.95438 
L 386.389908 233.910247 
L 388.139517 233.910247 
L 388.139517 232.305047 
L 389.889127 232.305047 
L 389.889127 236.050514 
L 391.638737 236.050514 
L 391.638737 236.318047 
L 393.388347 236.318047 
L 393.388347 240.866114 
L 395.137956 240.866114 
L 395.137956 239.528448 
L 396.887566 239.528448 
L 396.887566 242.471314 
L 398.637176 242.471314 
L 398.637176 244.344048 
L 400.386785 244.344048 
L 400.386785 245.414181 
L 402.136395 245.414181 
L 402.136395 245.949248 
L 405.635614 245.949248 
L 405.635614 246.484315 
L 414.383663 246.484315 
L 414.383663 246.484315 
" clip-path="url(#p6c60a4f1e1)" style="fill: none; stroke: #1f77b4; stroke-width: 1.5; stroke-linecap: square"/>
   </g>
   <g id="line2d_21">
    <path d="M 64.461722 246.484315 
L 73.209771 246.484315 
L 73.209771 244.076514 
L 74.95938 244.076514 
L 74.95938 235.782981 
L 76.70899 235.782981 
L 76.70899 228.55958 
L 78.4586 228.55958 
L 78.4586 220.266047 
L 80.208209 220.266047 
L 80.208209 213.31018 
L 81.957819 213.31018 
L 81.957819 202.073779 
L 83.707429 202.073779 
L 83.707429 195.117912 
L 85.457039 195.117912 
L 85.457039 191.372446 
L 87.206648 191.372446 
L 87.206648 183.078912 
L 88.956258 183.078912 
L 88.956258 167.294445 
L 90.705868 167.294445 
L 90.705868 163.548978 
L 92.455477 163.548978 
L 92.455477 164.351578 
L 94.205087 164.351578 
L 94.205087 153.917777 
L 95.954697 153.917777 
L 95.954697 140.006043 
L 97.704306 140.006043 
L 97.704306 127.164443 
L 99.453916 127.164443 
L 99.453916 124.489109 
L 101.203526 124.489109 
L 101.203526 114.590376 
L 102.953136 114.590376 
L 102.953136 100.678642 
L 104.702745 100.678642 
L 104.702745 103.621508 
L 106.452355 103.621508 
L 106.452355 105.226709 
L 108.201965 105.226709 
L 108.201965 87.837041 
L 109.951574 87.837041 
L 109.951574 78.740907 
L 111.701184 78.740907 
L 111.701184 83.824041 
L 113.450794 83.824041 
L 113.450794 62.95644 
L 115.200403 62.95644 
L 115.200403 64.294107 
L 116.950013 64.294107 
L 116.950013 61.35124 
L 118.699623 61.35124 
L 118.699623 41.018706 
L 120.449233 41.018706 
L 120.449233 56.000573 
L 122.198842 56.000573 
L 122.198842 56.53564 
L 123.948452 56.53564 
L 123.948452 53.592773 
L 125.698062 53.592773 
L 125.698062 43.158973 
L 127.447671 43.158973 
L 127.447671 42.088839 
L 129.197281 42.088839 
L 129.197281 32.992705 
L 130.946891 32.992705 
L 130.946891 34.330372 
L 132.696501 34.330372 
L 132.696501 35.935572 
L 134.44611 35.935572 
L 134.44611 52.52264 
L 136.19572 52.52264 
L 136.19572 49.312239 
L 137.94533 49.312239 
L 137.94533 54.93044 
L 139.694939 54.93044 
L 139.694939 53.592773 
L 141.444549 53.592773 
L 141.444549 68.57464 
L 143.194159 68.57464 
L 143.194159 65.36424 
L 144.943768 65.36424 
L 144.943768 52.52264 
L 146.693378 52.52264 
L 146.693378 53.860306 
L 148.442988 53.860306 
L 148.442988 65.36424 
L 150.192598 65.36424 
L 150.192598 73.657774 
L 151.942207 73.657774 
L 151.942207 70.17984 
L 153.691817 70.17984 
L 153.691817 65.096707 
L 155.441427 65.096707 
L 155.441427 73.657774 
L 157.191036 73.657774 
L 157.191036 74.192841 
L 158.940646 74.192841 
L 158.940646 84.894174 
L 160.690256 84.894174 
L 160.690256 89.174708 
L 162.439866 89.174708 
L 162.439866 77.670774 
L 164.189475 77.670774 
L 164.189475 74.995441 
L 165.939085 74.995441 
L 165.939085 88.104574 
L 167.688695 88.104574 
L 167.688695 77.938307 
L 169.438304 77.938307 
L 169.438304 78.473374 
L 171.187914 78.473374 
L 171.187914 83.556508 
L 172.937524 83.556508 
L 172.937524 76.333107 
L 174.687133 76.333107 
L 174.687133 82.486374 
L 176.436743 82.486374 
L 176.436743 91.047441 
L 178.186353 91.047441 
L 178.186353 87.301974 
L 179.935963 87.301974 
L 179.935963 86.231841 
L 181.685572 86.231841 
L 181.685572 77.135707 
L 183.435182 77.135707 
L 183.435182 89.709775 
L 185.184792 89.709775 
L 185.184792 84.626641 
L 186.934401 84.626641 
L 186.934401 86.499374 
L 188.684011 86.499374 
L 188.684011 91.047441 
L 190.433621 91.047441 
L 190.433621 89.174708 
L 192.18323 89.174708 
L 192.18323 92.652641 
L 193.93284 92.652641 
L 193.93284 91.582508 
L 195.68245 91.582508 
L 195.68245 95.327975 
L 197.43206 95.327975 
L 197.43206 109.774775 
L 199.181669 109.774775 
L 199.181669 104.959175 
L 202.680889 104.959175 
L 202.680889 126.896909 
L 204.430498 126.896909 
L 204.430498 137.598243 
L 206.180108 137.598243 
L 206.180108 137.33071 
L 207.929718 137.33071 
L 207.929718 131.71251 
L 209.679328 131.71251 
L 209.679328 144.55411 
L 211.428937 144.55411 
L 211.428937 158.465844 
L 213.178547 158.465844 
L 213.178547 169.969778 
L 214.928157 169.969778 
L 214.928157 169.702245 
L 216.677766 169.702245 
L 216.677766 170.237311 
L 218.427376 170.237311 
L 218.427376 188.697112 
L 220.176986 188.697112 
L 220.176986 193.512712 
L 221.926595 193.512712 
L 221.926595 197.793246 
L 223.676205 197.793246 
L 223.676205 210.367313 
L 225.425815 210.367313 
L 225.425815 216.253047 
L 227.175425 216.253047 
L 227.175425 223.476447 
L 228.925034 223.476447 
L 228.925034 230.164781 
L 230.674644 230.164781 
L 230.674644 235.515447 
L 232.424254 235.515447 
L 232.424254 239.795981 
L 234.173863 239.795981 
L 234.173863 243.273914 
L 237.673083 243.273914 
L 237.673083 237.655714 
L 239.422693 237.655714 
L 239.422693 230.699847 
L 241.172302 230.699847 
L 241.172302 223.208914 
L 242.921912 223.208914 
L 242.921912 223.476447 
L 244.671522 223.476447 
L 244.671522 212.240046 
L 246.421131 212.240046 
L 246.421131 210.634846 
L 248.170741 210.634846 
L 248.170741 202.608846 
L 249.920351 202.608846 
L 249.920351 194.047779 
L 251.66996 194.047779 
L 251.66996 188.964645 
L 253.41957 188.964645 
L 253.41957 181.206178 
L 255.16918 181.206178 
L 255.16918 184.149045 
L 256.91879 184.149045 
L 256.91879 169.969778 
L 258.668399 169.969778 
L 258.668399 173.982778 
L 260.418009 173.982778 
L 260.418009 166.759378 
L 262.167619 166.759378 
L 262.167619 170.504845 
L 263.917228 170.504845 
L 263.917228 152.580111 
L 265.666838 152.580111 
L 265.666838 149.102177 
L 267.416448 149.102177 
L 267.416448 144.55411 
L 269.166057 144.55411 
L 269.166057 148.032044 
L 270.915667 148.032044 
L 270.915667 139.470977 
L 272.665277 139.470977 
L 272.665277 142.413843 
L 274.414887 142.413843 
L 274.414887 132.247576 
L 276.164496 132.247576 
L 276.164496 126.629376 
L 277.914106 126.629376 
L 277.914106 127.431976 
L 279.663716 127.431976 
L 279.663716 134.12031 
L 281.413325 134.12031 
L 281.413325 127.699509 
L 283.162935 127.699509 
L 283.162935 119.673509 
L 284.912545 119.673509 
L 284.912545 111.647509 
L 286.662155 111.647509 
L 286.662155 111.112442 
L 288.411764 111.112442 
L 288.411764 103.353975 
L 290.161374 103.353975 
L 290.161374 105.226709 
L 291.910984 105.226709 
L 291.910984 109.507242 
L 293.660593 109.507242 
L 293.660593 112.182575 
L 295.410203 112.182575 
L 295.410203 107.902042 
L 297.159813 107.902042 
L 297.159813 103.889042 
L 298.909422 103.889042 
L 298.909422 131.177443 
L 300.659032 131.177443 
L 300.659032 112.450109 
L 302.408642 112.450109 
L 302.408642 121.011176 
L 304.158252 121.011176 
L 304.158252 122.081309 
L 305.907861 122.081309 
L 305.907861 132.247576 
L 307.657471 132.247576 
L 307.657471 121.278709 
L 309.407081 121.278709 
L 309.407081 136.260577 
L 311.15669 136.260577 
L 311.15669 129.037176 
L 312.9063 129.037176 
L 312.9063 135.457976 
L 314.65591 135.457976 
L 314.65591 133.050176 
L 316.405519 133.050176 
L 316.405519 135.457976 
L 318.155129 135.457976 
L 318.155129 142.94891 
L 319.904739 142.94891 
L 319.904739 147.76451 
L 321.654349 147.76451 
L 321.654349 142.413843 
L 323.403958 142.413843 
L 323.403958 135.457976 
L 325.153568 135.457976 
L 325.153568 140.006043 
L 326.903178 140.006043 
L 326.903178 145.624244 
L 328.652787 145.624244 
L 328.652787 144.55411 
L 330.402397 144.55411 
L 330.402397 141.076177 
L 332.152007 141.076177 
L 332.152007 149.904777 
L 333.901617 149.904777 
L 333.901617 150.97491 
L 335.651226 150.97491 
L 335.651226 160.873644 
L 337.400836 160.873644 
L 337.400836 155.790511 
L 339.150446 155.790511 
L 339.150446 152.580111 
L 340.900055 152.580111 
L 340.900055 159.268444 
L 342.649665 159.268444 
L 342.649665 162.211311 
L 344.399275 162.211311 
L 344.399275 160.873644 
L 346.148884 160.873644 
L 346.148884 163.281444 
L 347.898494 163.281444 
L 347.898494 162.211311 
L 349.648104 162.211311 
L 349.648104 165.421711 
L 351.397714 165.421711 
L 351.397714 166.491844 
L 353.147323 166.491844 
L 353.147323 178.798378 
L 354.896933 178.798378 
L 354.896933 171.574978 
L 356.646543 171.574978 
L 356.646543 180.671112 
L 358.396152 180.671112 
L 358.396152 177.460712 
L 360.145762 177.460712 
L 360.145762 179.868512 
L 361.895372 179.868512 
L 361.895372 188.162045 
L 363.644982 188.162045 
L 363.644982 177.460712 
L 365.394591 177.460712 
L 365.394591 189.499712 
L 367.144201 189.499712 
L 367.144201 185.754245 
L 368.893811 185.754245 
L 368.893811 196.723112 
L 370.64342 196.723112 
L 370.64342 205.016646 
L 372.39303 205.016646 
L 372.39303 207.69198 
L 374.14264 207.69198 
L 374.14264 210.90238 
L 375.892249 210.90238 
L 375.892249 210.367313 
L 377.641859 210.367313 
L 377.641859 221.068647 
L 379.391469 221.068647 
L 379.391469 219.998513 
L 381.141079 219.998513 
L 381.141079 219.195913 
L 382.890688 219.195913 
L 382.890688 227.489447 
L 384.640298 227.489447 
L 384.640298 230.432314 
L 386.389908 230.432314 
L 386.389908 229.094647 
L 388.139517 229.094647 
L 388.139517 234.445314 
L 391.638737 234.445314 
L 391.638737 238.458314 
L 393.388347 238.458314 
L 393.388347 239.260914 
L 395.137956 239.260914 
L 395.137956 240.331048 
L 396.887566 240.331048 
L 396.887566 242.203781 
L 398.637176 242.203781 
L 398.637176 244.344048 
L 400.386785 244.344048 
L 400.386785 245.414181 
L 402.136395 245.414181 
L 402.136395 245.949248 
L 405.635614 245.949248 
L 405.635614 246.484315 
L 414.383663 246.484315 
L 414.383663 246.484315 
" clip-path="url(#p6c60a4f1e1)" style="fill: none; stroke: #ff7f0e; stroke-width: 1.5; stroke-linecap: square"/>
   </g>
  </g>
  <g id="axes_2">
   <g id="patch_8">
    <path d="M 480.285385 257.158895 
L 865.19952 257.158895 
L 865.19952 22.318125 
L 480.285385 22.318125 
z
" style="fill: #ffffff"/>
   </g>
   <g id="matplotlib.axis_3">
    <g id="xtick_9">
     <g id="line2d_22">
      <g>
       <use xlink:href="#m0920d1f5a7" x="516.198426" y="257.158895" style="stroke: #000000; stroke-width: 0.8"/>
      </g>
     </g>
     <g id="text_23">
      <!-- 1.0 -->
      <g transform="translate(508.246864 271.757332) scale(0.1 -0.1)">
       <use xlink:href="#DejaVuSans-31"/>
       <use xlink:href="#DejaVuSans-2e" transform="translate(63.623047 0)"/>
       <use xlink:href="#DejaVuSans-30" transform="translate(95.410156 0)"/>
      </g>
     </g>
    </g>
    <g id="xtick_10">
     <g id="line2d_23">
      <g>
       <use xlink:href="#m0920d1f5a7" x="562.240787" y="257.158895" style="stroke: #000000; stroke-width: 0.8"/>
      </g>
     </g>
     <g id="text_24">
      <!-- 1.5 -->
      <g transform="translate(554.289224 271.757332) scale(0.1 -0.1)">
       <use xlink:href="#DejaVuSans-31"/>
       <use xlink:href="#DejaVuSans-2e" transform="translate(63.623047 0)"/>
       <use xlink:href="#DejaVuSans-35" transform="translate(95.410156 0)"/>
      </g>
     </g>
    </g>
    <g id="xtick_11">
     <g id="line2d_24">
      <g>
       <use xlink:href="#m0920d1f5a7" x="608.283148" y="257.158895" style="stroke: #000000; stroke-width: 0.8"/>
      </g>
     </g>
     <g id="text_25">
      <!-- 2.0 -->
      <g transform="translate(600.331585 271.757332) scale(0.1 -0.1)">
       <use xlink:href="#DejaVuSans-32"/>
       <use xlink:href="#DejaVuSans-2e" transform="translate(63.623047 0)"/>
       <use xlink:href="#DejaVuSans-30" transform="translate(95.410156 0)"/>
      </g>
     </g>
    </g>
    <g id="xtick_12">
     <g id="line2d_25">
      <g>
       <use xlink:href="#m0920d1f5a7" x="654.325508" y="257.158895" style="stroke: #000000; stroke-width: 0.8"/>
      </g>
     </g>
     <g id="text_26">
      <!-- 2.5 -->
      <g transform="translate(646.373946 271.757332) scale(0.1 -0.1)">
       <use xlink:href="#DejaVuSans-32"/>
       <use xlink:href="#DejaVuSans-2e" transform="translate(63.623047 0)"/>
       <use xlink:href="#DejaVuSans-35" transform="translate(95.410156 0)"/>
      </g>
     </g>
    </g>
    <g id="xtick_13">
     <g id="line2d_26">
      <g>
       <use xlink:href="#m0920d1f5a7" x="700.367869" y="257.158895" style="stroke: #000000; stroke-width: 0.8"/>
      </g>
     </g>
     <g id="text_27">
      <!-- 3.0 -->
      <g transform="translate(692.416306 271.757332) scale(0.1 -0.1)">
       <use xlink:href="#DejaVuSans-33"/>
       <use xlink:href="#DejaVuSans-2e" transform="translate(63.623047 0)"/>
       <use xlink:href="#DejaVuSans-30" transform="translate(95.410156 0)"/>
      </g>
     </g>
    </g>
    <g id="xtick_14">
     <g id="line2d_27">
      <g>
       <use xlink:href="#m0920d1f5a7" x="746.41023" y="257.158895" style="stroke: #000000; stroke-width: 0.8"/>
      </g>
     </g>
     <g id="text_28">
      <!-- 3.5 -->
      <g transform="translate(738.458667 271.757332) scale(0.1 -0.1)">
       <use xlink:href="#DejaVuSans-33"/>
       <use xlink:href="#DejaVuSans-2e" transform="translate(63.623047 0)"/>
       <use xlink:href="#DejaVuSans-35" transform="translate(95.410156 0)"/>
      </g>
     </g>
    </g>
    <g id="xtick_15">
     <g id="line2d_28">
      <g>
       <use xlink:href="#m0920d1f5a7" x="792.45259" y="257.158895" style="stroke: #000000; stroke-width: 0.8"/>
      </g>
     </g>
     <g id="text_29">
      <!-- 4.0 -->
      <g transform="translate(784.501028 271.757332) scale(0.1 -0.1)">
       <use xlink:href="#DejaVuSans-34"/>
       <use xlink:href="#DejaVuSans-2e" transform="translate(63.623047 0)"/>
       <use xlink:href="#DejaVuSans-30" transform="translate(95.410156 0)"/>
      </g>
     </g>
    </g>
    <g id="xtick_16">
     <g id="line2d_29">
      <g>
       <use xlink:href="#m0920d1f5a7" x="838.494951" y="257.158895" style="stroke: #000000; stroke-width: 0.8"/>
      </g>
     </g>
     <g id="text_30">
      <!-- 4.5 -->
      <g transform="translate(830.543388 271.757332) scale(0.1 -0.1)">
       <use xlink:href="#DejaVuSans-34"/>
       <use xlink:href="#DejaVuSans-2e" transform="translate(63.623047 0)"/>
       <use xlink:href="#DejaVuSans-35" transform="translate(95.410156 0)"/>
      </g>
     </g>
    </g>
    <g id="text_31">
     <!-- wavelength [Å] -->
     <g transform="translate(634.704952 287.119832) scale(0.1 -0.1)">
      <use xlink:href="#DejaVuSans-77"/>
      <use xlink:href="#DejaVuSans-61" transform="translate(81.787109 0)"/>
      <use xlink:href="#DejaVuSans-76" transform="translate(143.066406 0)"/>
      <use xlink:href="#DejaVuSans-65" transform="translate(202.246094 0)"/>
      <use xlink:href="#DejaVuSans-6c" transform="translate(263.769531 0)"/>
      <use xlink:href="#DejaVuSans-65" transform="translate(291.552734 0)"/>
      <use xlink:href="#DejaVuSans-6e" transform="translate(353.076172 0)"/>
      <use xlink:href="#DejaVuSans-67" transform="translate(416.455078 0)"/>
      <use xlink:href="#DejaVuSans-74" transform="translate(479.931641 0)"/>
      <use xlink:href="#DejaVuSans-68" transform="translate(519.140625 0)"/>
      <use xlink:href="#DejaVuSans-20" transform="translate(582.519531 0)"/>
      <use xlink:href="#DejaVuSans-5b" transform="translate(614.306641 0)"/>
      <use xlink:href="#DejaVuSans-c5" transform="translate(653.320312 0)"/>
      <use xlink:href="#DejaVuSans-5d" transform="translate(721.728516 0)"/>
     </g>
    </g>
   </g>
   <g id="matplotlib.axis_4">
    <g id="ytick_10">
     <g id="line2d_30">
      <g>
       <use xlink:href="#me2227dae15" x="480.285385" y="246.484315" style="stroke: #000000; stroke-width: 0.8"/>
      </g>
     </g>
     <g id="text_32">
      <!-- 0 -->
      <g transform="translate(466.922885 250.283533) scale(0.1 -0.1)">
       <use xlink:href="#DejaVuSans-30"/>
      </g>
     </g>
    </g>
    <g id="ytick_11">
     <g id="line2d_31">
      <g>
       <use xlink:href="#me2227dae15" x="480.285385" y="219.73098" style="stroke: #000000; stroke-width: 0.8"/>
      </g>
     </g>
     <g id="text_33">
      <!-- 100 -->
      <g transform="translate(454.197885 223.530199) scale(0.1 -0.1)">
       <use xlink:href="#DejaVuSans-31"/>
       <use xlink:href="#DejaVuSans-30" transform="translate(63.623047 0)"/>
       <use xlink:href="#DejaVuSans-30" transform="translate(127.246094 0)"/>
      </g>
     </g>
    </g>
    <g id="ytick_12">
     <g id="line2d_32">
      <g>
       <use xlink:href="#me2227dae15" x="480.285385" y="192.977646" style="stroke: #000000; stroke-width: 0.8"/>
      </g>
     </g>
     <g id="text_34">
      <!-- 200 -->
      <g transform="translate(454.197885 196.776864) scale(0.1 -0.1)">
       <use xlink:href="#DejaVuSans-32"/>
       <use xlink:href="#DejaVuSans-30" transform="translate(63.623047 0)"/>
       <use xlink:href="#DejaVuSans-30" transform="translate(127.246094 0)"/>
      </g>
     </g>
    </g>
    <g id="ytick_13">
     <g id="line2d_33">
      <g>
       <use xlink:href="#me2227dae15" x="480.285385" y="166.224311" style="stroke: #000000; stroke-width: 0.8"/>
      </g>
     </g>
     <g id="text_35">
      <!-- 300 -->
      <g transform="translate(454.197885 170.02353) scale(0.1 -0.1)">
       <use xlink:href="#DejaVuSans-33"/>
       <use xlink:href="#DejaVuSans-30" transform="translate(63.623047 0)"/>
       <use xlink:href="#DejaVuSans-30" transform="translate(127.246094 0)"/>
      </g>
     </g>
    </g>
    <g id="ytick_14">
     <g id="line2d_34">
      <g>
       <use xlink:href="#me2227dae15" x="480.285385" y="139.470977" style="stroke: #000000; stroke-width: 0.8"/>
      </g>
     </g>
     <g id="text_36">
      <!-- 400 -->
      <g transform="translate(454.197885 143.270195) scale(0.1 -0.1)">
       <use xlink:href="#DejaVuSans-34"/>
       <use xlink:href="#DejaVuSans-30" transform="translate(63.623047 0)"/>
       <use xlink:href="#DejaVuSans-30" transform="translate(127.246094 0)"/>
      </g>
     </g>
    </g>
    <g id="ytick_15">
     <g id="line2d_35">
      <g>
       <use xlink:href="#me2227dae15" x="480.285385" y="112.717642" style="stroke: #000000; stroke-width: 0.8"/>
      </g>
     </g>
     <g id="text_37">
      <!-- 500 -->
      <g transform="translate(454.197885 116.516861) scale(0.1 -0.1)">
       <use xlink:href="#DejaVuSans-35"/>
       <use xlink:href="#DejaVuSans-30" transform="translate(63.623047 0)"/>
       <use xlink:href="#DejaVuSans-30" transform="translate(127.246094 0)"/>
      </g>
     </g>
    </g>
    <g id="ytick_16">
     <g id="line2d_36">
      <g>
       <use xlink:href="#me2227dae15" x="480.285385" y="85.964308" style="stroke: #000000; stroke-width: 0.8"/>
      </g>
     </g>
     <g id="text_38">
      <!-- 600 -->
      <g transform="translate(454.197885 89.763526) scale(0.1 -0.1)">
       <use xlink:href="#DejaVuSans-36"/>
       <use xlink:href="#DejaVuSans-30" transform="translate(63.623047 0)"/>
       <use xlink:href="#DejaVuSans-30" transform="translate(127.246094 0)"/>
      </g>
     </g>
    </g>
    <g id="ytick_17">
     <g id="line2d_37">
      <g>
       <use xlink:href="#me2227dae15" x="480.285385" y="59.210973" style="stroke: #000000; stroke-width: 0.8"/>
      </g>
     </g>
     <g id="text_39">
      <!-- 700 -->
      <g transform="translate(454.197885 63.010192) scale(0.1 -0.1)">
       <use xlink:href="#DejaVuSans-37"/>
       <use xlink:href="#DejaVuSans-30" transform="translate(63.623047 0)"/>
       <use xlink:href="#DejaVuSans-30" transform="translate(127.246094 0)"/>
      </g>
     </g>
    </g>
    <g id="ytick_18">
     <g id="line2d_38">
      <g>
       <use xlink:href="#me2227dae15" x="480.285385" y="32.457639" style="stroke: #000000; stroke-width: 0.8"/>
      </g>
     </g>
     <g id="text_40">
      <!-- 800 -->
      <g transform="translate(454.197885 36.256858) scale(0.1 -0.1)">
       <use xlink:href="#DejaVuSans-38"/>
       <use xlink:href="#DejaVuSans-30" transform="translate(63.623047 0)"/>
       <use xlink:href="#DejaVuSans-30" transform="translate(127.246094 0)"/>
      </g>
     </g>
    </g>
    <g id="text_41">
     <!-- [counts] -->
     <g transform="translate(448.118198 160.35101) rotate(-90) scale(0.1 -0.1)">
      <use xlink:href="#DejaVuSans-5b"/>
      <use xlink:href="#DejaVuSans-63" transform="translate(39.013672 0)"/>
      <use xlink:href="#DejaVuSans-6f" transform="translate(93.994141 0)"/>
      <use xlink:href="#DejaVuSans-75" transform="translate(155.175781 0)"/>
      <use xlink:href="#DejaVuSans-6e" transform="translate(218.554688 0)"/>
      <use xlink:href="#DejaVuSans-74" transform="translate(281.933594 0)"/>
      <use xlink:href="#DejaVuSans-73" transform="translate(321.142578 0)"/>
      <use xlink:href="#DejaVuSans-5d" transform="translate(373.242188 0)"/>
     </g>
    </g>
   </g>
   <g id="patch_9">
    <path d="M 480.285385 257.158895 
L 480.285385 22.318125 
" style="fill: none; stroke: #000000; stroke-width: 0.8; stroke-linejoin: miter; stroke-linecap: square"/>
   </g>
   <g id="patch_10">
    <path d="M 865.19952 257.158895 
L 865.19952 22.318125 
" style="fill: none; stroke: #000000; stroke-width: 0.8; stroke-linejoin: miter; stroke-linecap: square"/>
   </g>
   <g id="patch_11">
    <path d="M 480.285385 257.158895 
L 865.19952 257.158895 
" style="fill: none; stroke: #000000; stroke-width: 0.8; stroke-linejoin: miter; stroke-linecap: square"/>
   </g>
   <g id="patch_12">
    <path d="M 480.285385 22.318125 
L 865.19952 22.318125 
" style="fill: none; stroke: #000000; stroke-width: 0.8; stroke-linejoin: miter; stroke-linecap: square"/>
   </g>
   <g id="text_42">
    <!-- Pixel 2 -->
    <g transform="translate(653.14589 16.318125) scale(0.12 -0.12)">
     <use xlink:href="#DejaVuSans-50"/>
     <use xlink:href="#DejaVuSans-69" transform="translate(58.052734 0)"/>
     <use xlink:href="#DejaVuSans-78" transform="translate(85.835938 0)"/>
     <use xlink:href="#DejaVuSans-65" transform="translate(141.890625 0)"/>
     <use xlink:href="#DejaVuSans-6c" transform="translate(203.414062 0)"/>
     <use xlink:href="#DejaVuSans-20" transform="translate(231.197266 0)"/>
     <use xlink:href="#DejaVuSans-32" transform="translate(262.984375 0)"/>
    </g>
   </g>
   <g id="legend_2">
    <g id="patch_13">
     <path d="M 761.196395 59.9525 
L 858.19952 59.9525 
Q 860.19952 59.9525 860.19952 57.9525 
L 860.19952 29.318125 
Q 860.19952 27.318125 858.19952 27.318125 
L 761.196395 27.318125 
Q 759.196395 27.318125 759.196395 29.318125 
L 759.196395 57.9525 
Q 759.196395 59.9525 761.196395 59.9525 
z
" style="fill: #ffffff; opacity: 0.8; stroke: #cccccc; stroke-linejoin: miter"/>
    </g>
    <g id="line2d_39">
     <path d="M 763.196395 35.416562 
L 763.196395 35.416562 
L 773.196395 35.416562 
L 773.196395 35.416562 
L 783.196395 35.416562 
" style="fill: none; stroke: #1f77b4; stroke-width: 1.5; stroke-linecap: square"/>
    </g>
    <g id="text_43">
     <!-- wfm -->
     <g transform="translate(791.196395 38.916562) scale(0.1 -0.1)">
      <use xlink:href="#DejaVuSans-77"/>
      <use xlink:href="#DejaVuSans-66" transform="translate(81.787109 0)"/>
      <use xlink:href="#DejaVuSans-6d" transform="translate(116.992188 0)"/>
     </g>
    </g>
    <g id="line2d_40">
     <path d="M 763.196395 50.094687 
L 763.196395 50.094687 
L 773.196395 50.094687 
L 773.196395 50.094687 
L 783.196395 50.094687 
" style="fill: none; stroke: #ff7f0e; stroke-width: 1.5; stroke-linecap: square"/>
    </g>
    <g id="text_44">
     <!-- ground_truth -->
     <g transform="translate(791.196395 53.594687) scale(0.1 -0.1)">
      <use xlink:href="#DejaVuSans-67"/>
      <use xlink:href="#DejaVuSans-72" transform="translate(63.476562 0)"/>
      <use xlink:href="#DejaVuSans-6f" transform="translate(102.339844 0)"/>
      <use xlink:href="#DejaVuSans-75" transform="translate(163.521484 0)"/>
      <use xlink:href="#DejaVuSans-6e" transform="translate(226.900391 0)"/>
      <use xlink:href="#DejaVuSans-64" transform="translate(290.279297 0)"/>
      <use xlink:href="#DejaVuSans-5f" transform="translate(353.755859 0)"/>
      <use xlink:href="#DejaVuSans-74" transform="translate(403.755859 0)"/>
      <use xlink:href="#DejaVuSans-72" transform="translate(442.964844 0)"/>
      <use xlink:href="#DejaVuSans-75" transform="translate(484.078125 0)"/>
      <use xlink:href="#DejaVuSans-74" transform="translate(547.457031 0)"/>
      <use xlink:href="#DejaVuSans-68" transform="translate(586.666016 0)"/>
     </g>
    </g>
   </g>
   <g id="line2d_41">
    <path d="M 497.781482 246.484315 
L 506.529531 246.484315 
L 506.529531 245.949248 
L 508.27914 245.949248 
L 508.27914 235.247914 
L 510.02875 235.247914 
L 510.02875 228.827114 
L 511.77836 228.827114 
L 511.77836 219.195913 
L 513.527969 219.195913 
L 513.527969 213.31018 
L 515.277579 213.31018 
L 515.277579 202.876379 
L 517.027189 202.876379 
L 517.027189 195.652979 
L 518.776799 195.652979 
L 518.776799 192.710112 
L 520.526408 192.710112 
L 520.526408 180.938645 
L 522.276018 180.938645 
L 522.276018 166.759378 
L 524.025628 166.759378 
L 524.025628 165.154178 
L 525.775237 165.154178 
L 525.775237 163.548978 
L 527.524847 163.548978 
L 527.524847 153.650244 
L 529.274457 153.650244 
L 529.274457 139.203443 
L 531.024066 139.203443 
L 531.024066 131.444976 
L 532.773676 131.444976 
L 532.773676 116.730642 
L 534.523286 116.730642 
L 534.523286 116.195576 
L 536.272896 116.195576 
L 536.272896 109.239709 
L 538.022505 109.239709 
L 538.022505 96.665641 
L 539.772115 96.665641 
L 539.772115 102.551375 
L 541.521725 102.551375 
L 541.521725 93.187708 
L 543.271334 93.187708 
L 543.271334 82.753908 
L 545.020944 82.753908 
L 545.020944 74.460374 
L 546.770554 74.460374 
L 546.770554 66.16684 
L 548.520163 66.16684 
L 548.520163 64.026573 
L 550.269773 64.026573 
L 550.269773 57.33824 
L 552.019383 57.33824 
L 552.019383 52.52264 
L 553.768993 52.52264 
L 553.768993 48.509639 
L 555.518602 48.509639 
L 555.518602 52.52264 
L 557.268212 52.52264 
L 557.268212 51.184973 
L 559.017822 51.184973 
L 559.017822 47.707039 
L 560.767431 47.707039 
L 560.767431 38.878439 
L 562.517041 38.878439 
L 562.517041 33.260239 
L 564.266651 33.260239 
L 564.266651 41.821306 
L 567.76587 41.821306 
L 567.76587 43.961573 
L 569.51548 43.961573 
L 569.51548 49.044706 
L 571.26509 49.044706 
L 571.26509 59.74604 
L 573.014699 59.74604 
L 573.014699 56.000573 
L 574.764309 56.000573 
L 574.764309 62.15384 
L 576.513919 62.15384 
L 576.513919 58.94344 
L 578.263528 58.94344 
L 578.263528 57.33824 
L 580.013138 57.33824 
L 580.013138 55.465506 
L 581.762748 55.465506 
L 581.762748 70.17984 
L 583.512358 70.17984 
L 583.512358 74.727907 
L 585.261967 74.727907 
L 585.261967 58.14084 
L 587.011577 58.14084 
L 587.011577 66.701907 
L 588.761187 66.701907 
L 588.761187 73.390241 
L 590.510796 73.390241 
L 590.510796 86.766908 
L 592.260406 86.766908 
L 592.260406 77.670774 
L 594.010016 77.670774 
L 594.010016 78.740907 
L 595.759626 78.740907 
L 595.759626 87.034441 
L 597.509235 87.034441 
L 597.509235 82.753908 
L 599.258845 82.753908 
L 599.258845 79.543507 
L 601.008455 79.543507 
L 601.008455 83.556508 
L 602.758064 83.556508 
L 602.758064 80.078574 
L 604.507674 80.078574 
L 604.507674 80.881174 
L 606.257284 80.881174 
L 606.257284 74.727907 
L 608.006893 74.727907 
L 608.006893 84.894174 
L 609.756503 84.894174 
L 609.756503 82.486374 
L 611.506113 82.486374 
L 611.506113 93.455241 
L 613.255723 93.455241 
L 613.255723 81.416241 
L 615.005332 81.416241 
L 615.005332 83.556508 
L 616.754942 83.556508 
L 616.754942 87.034441 
L 618.504552 87.034441 
L 618.504552 78.740907 
L 620.254161 78.740907 
L 620.254161 92.920175 
L 622.003771 92.920175 
L 622.003771 87.569508 
L 623.753381 87.569508 
L 623.753381 91.582508 
L 625.50299 91.582508 
L 625.50299 91.047441 
L 627.2526 91.047441 
L 627.2526 91.314975 
L 629.00221 91.314975 
L 629.00221 98.538375 
L 630.75182 98.538375 
L 630.75182 104.959175 
L 632.501429 104.959175 
L 632.501429 111.915042 
L 634.251039 111.915042 
L 634.251039 96.398108 
L 636.000649 96.398108 
L 636.000649 125.291709 
L 637.750258 125.291709 
L 637.750258 134.92291 
L 639.499868 134.92291 
L 639.499868 142.14631 
L 641.249478 142.14631 
L 641.249478 134.387843 
L 642.999088 134.387843 
L 642.999088 146.426844 
L 644.748697 146.426844 
L 644.748697 156.325577 
L 646.498307 156.325577 
L 646.498307 168.364578 
L 648.247917 168.364578 
L 648.247917 172.912645 
L 649.997526 172.912645 
L 649.997526 171.039911 
L 651.747136 171.039911 
L 651.747136 185.754245 
L 653.496746 185.754245 
L 653.496746 192.442579 
L 655.246355 192.442579 
L 655.246355 200.468579 
L 656.995965 200.468579 
L 656.995965 209.832246 
L 658.745575 209.832246 
L 658.745575 216.52058 
L 660.495185 216.52058 
L 660.495185 225.34918 
L 662.244794 225.34918 
L 662.244794 228.024514 
L 663.994404 228.024514 
L 663.994404 236.318047 
L 665.744014 236.318047 
L 665.744014 240.331048 
L 667.493623 240.331048 
L 667.493623 243.541448 
L 670.992843 243.541448 
L 670.992843 238.725848 
L 672.742453 238.725848 
L 672.742453 230.967381 
L 674.492062 230.967381 
L 674.492062 222.673847 
L 676.241672 222.673847 
L 676.241672 223.476447 
L 677.991282 223.476447 
L 677.991282 212.775113 
L 679.740891 212.775113 
L 679.740891 210.367313 
L 681.490501 210.367313 
L 681.490501 203.411446 
L 683.240111 203.411446 
L 683.240111 194.047779 
L 684.98972 194.047779 
L 684.98972 184.416579 
L 686.73933 184.416579 
L 686.73933 185.754245 
L 688.48894 185.754245 
L 688.48894 183.613979 
L 690.23855 183.613979 
L 690.23855 171.574978 
L 691.988159 171.574978 
L 691.988159 173.715245 
L 693.737769 173.715245 
L 693.737769 165.689244 
L 695.487379 165.689244 
L 695.487379 171.574978 
L 697.236988 171.574978 
L 697.236988 154.185311 
L 698.986598 154.185311 
L 698.986598 148.56711 
L 700.736208 148.56711 
L 700.736208 146.96191 
L 702.485817 146.96191 
L 702.485817 145.35671 
L 704.235427 145.35671 
L 704.235427 140.006043 
L 705.985037 140.006043 
L 705.985037 146.426844 
L 707.734647 146.426844 
L 707.734647 125.024176 
L 709.484256 125.024176 
L 709.484256 129.30471 
L 711.233866 129.30471 
L 711.233866 132.782643 
L 712.983476 132.782643 
L 712.983476 126.094309 
L 714.733085 126.094309 
L 714.733085 133.852776 
L 716.482695 133.852776 
L 716.482695 119.138442 
L 718.232305 119.138442 
L 718.232305 104.424108 
L 719.981915 104.424108 
L 719.981915 109.507242 
L 721.731524 109.507242 
L 721.731524 107.366975 
L 723.481134 107.366975 
L 723.481134 101.481242 
L 725.230744 101.481242 
L 725.230744 111.112442 
L 726.980353 111.112442 
L 726.980353 104.959175 
L 728.729963 104.959175 
L 728.729963 109.507242 
L 730.479573 109.507242 
L 730.479573 115.928042 
L 732.229182 115.928042 
L 732.229182 121.813776 
L 733.978792 121.813776 
L 733.978792 118.870909 
L 735.728402 118.870909 
L 735.728402 118.068309 
L 737.478012 118.068309 
L 737.478012 118.870909 
L 739.227621 118.870909 
L 739.227621 130.10731 
L 740.977231 130.10731 
L 740.977231 127.967043 
L 742.726841 127.967043 
L 742.726841 133.31771 
L 744.47645 133.31771 
L 744.47645 129.30471 
L 746.22606 129.30471 
L 746.22606 137.33071 
L 747.97567 137.33071 
L 747.97567 126.094309 
L 749.725279 126.094309 
L 749.725279 146.15931 
L 751.474889 146.15931 
L 751.474889 139.470977 
L 753.224499 139.470977 
L 753.224499 148.299577 
L 754.974109 148.299577 
L 754.974109 143.75151 
L 756.723718 143.75151 
L 756.723718 136.795643 
L 758.473328 136.795643 
L 758.473328 136.260577 
L 760.222938 136.260577 
L 760.222938 150.707377 
L 761.972547 150.707377 
L 761.972547 136.795643 
L 763.722157 136.795643 
L 763.722157 146.426844 
L 765.471767 146.426844 
L 765.471767 152.045044 
L 767.221377 152.045044 
L 767.221377 147.76451 
L 768.970986 147.76451 
L 768.970986 156.325577 
L 770.720596 156.325577 
L 770.720596 153.382711 
L 772.470206 153.382711 
L 772.470206 159.535978 
L 774.219815 159.535978 
L 774.219815 160.338578 
L 775.969425 160.338578 
L 775.969425 156.058044 
L 777.719035 156.058044 
L 777.719035 160.873644 
L 779.468644 160.873644 
L 779.468644 167.026911 
L 781.218254 167.026911 
L 781.218254 162.211311 
L 782.967864 162.211311 
L 782.967864 168.899645 
L 784.717474 168.899645 
L 784.717474 167.026911 
L 786.467083 167.026911 
L 786.467083 171.039911 
L 788.216693 171.039911 
L 788.216693 178.530845 
L 789.966303 178.530845 
L 789.966303 180.136045 
L 791.715912 180.136045 
L 791.715912 174.250311 
L 793.465522 174.250311 
L 793.465522 179.065912 
L 795.215132 179.065912 
L 795.215132 187.091912 
L 796.964742 187.091912 
L 796.964742 178.263312 
L 798.714351 178.263312 
L 798.714351 190.569845 
L 800.463961 190.569845 
L 800.463961 187.359445 
L 802.213571 187.359445 
L 802.213571 196.188046 
L 803.96318 196.188046 
L 803.96318 205.284179 
L 805.71279 205.284179 
L 805.71279 206.354313 
L 807.4624 206.354313 
L 807.4624 207.156913 
L 809.212009 207.156913 
L 809.212009 215.985513 
L 810.961619 215.985513 
L 810.961619 218.393313 
L 812.711229 218.393313 
L 812.711229 219.463447 
L 814.460839 219.463447 
L 814.460839 221.603713 
L 816.210448 221.603713 
L 816.210448 227.75698 
L 817.960058 227.75698 
L 817.960058 227.489447 
L 819.709668 227.489447 
L 819.709668 233.107647 
L 821.459277 233.107647 
L 821.459277 232.305047 
L 823.208887 232.305047 
L 823.208887 236.050514 
L 824.958497 236.050514 
L 824.958497 236.318047 
L 826.708106 236.318047 
L 826.708106 240.866114 
L 828.457716 240.866114 
L 828.457716 239.528448 
L 830.207326 239.528448 
L 830.207326 242.471314 
L 831.956936 242.471314 
L 831.956936 244.344048 
L 833.706545 244.344048 
L 833.706545 245.414181 
L 835.456155 245.414181 
L 835.456155 245.949248 
L 838.955374 245.949248 
L 838.955374 246.484315 
L 847.703423 246.484315 
L 847.703423 246.484315 
" clip-path="url(#p03cab81501)" style="fill: none; stroke: #1f77b4; stroke-width: 1.5; stroke-linecap: square"/>
   </g>
   <g id="line2d_42">
    <path d="M 497.781482 246.484315 
L 506.529531 246.484315 
L 506.529531 244.076514 
L 508.27914 244.076514 
L 508.27914 235.782981 
L 510.02875 235.782981 
L 510.02875 228.55958 
L 511.77836 228.55958 
L 511.77836 220.266047 
L 513.527969 220.266047 
L 513.527969 213.31018 
L 515.277579 213.31018 
L 515.277579 202.073779 
L 517.027189 202.073779 
L 517.027189 195.117912 
L 518.776799 195.117912 
L 518.776799 191.372446 
L 520.526408 191.372446 
L 520.526408 183.078912 
L 522.276018 183.078912 
L 522.276018 167.294445 
L 524.025628 167.294445 
L 524.025628 163.548978 
L 525.775237 163.548978 
L 525.775237 164.351578 
L 527.524847 164.351578 
L 527.524847 153.917777 
L 529.274457 153.917777 
L 529.274457 140.006043 
L 531.024066 140.006043 
L 531.024066 127.164443 
L 532.773676 127.164443 
L 532.773676 124.489109 
L 534.523286 124.489109 
L 534.523286 114.590376 
L 536.272896 114.590376 
L 536.272896 100.678642 
L 538.022505 100.678642 
L 538.022505 103.621508 
L 539.772115 103.621508 
L 539.772115 105.226709 
L 541.521725 105.226709 
L 541.521725 87.837041 
L 543.271334 87.837041 
L 543.271334 78.740907 
L 545.020944 78.740907 
L 545.020944 83.824041 
L 546.770554 83.824041 
L 546.770554 62.95644 
L 548.520163 62.95644 
L 548.520163 64.294107 
L 550.269773 64.294107 
L 550.269773 61.35124 
L 552.019383 61.35124 
L 552.019383 41.018706 
L 553.768993 41.018706 
L 553.768993 56.000573 
L 555.518602 56.000573 
L 555.518602 56.53564 
L 557.268212 56.53564 
L 557.268212 53.592773 
L 559.017822 53.592773 
L 559.017822 43.158973 
L 560.767431 43.158973 
L 560.767431 42.088839 
L 562.517041 42.088839 
L 562.517041 32.992705 
L 564.266651 32.992705 
L 564.266651 34.330372 
L 566.016261 34.330372 
L 566.016261 35.935572 
L 567.76587 35.935572 
L 567.76587 52.52264 
L 569.51548 52.52264 
L 569.51548 49.312239 
L 571.26509 49.312239 
L 571.26509 54.93044 
L 573.014699 54.93044 
L 573.014699 53.592773 
L 574.764309 53.592773 
L 574.764309 68.57464 
L 576.513919 68.57464 
L 576.513919 65.36424 
L 578.263528 65.36424 
L 578.263528 52.52264 
L 580.013138 52.52264 
L 580.013138 53.860306 
L 581.762748 53.860306 
L 581.762748 65.36424 
L 583.512358 65.36424 
L 583.512358 73.657774 
L 585.261967 73.657774 
L 585.261967 70.17984 
L 587.011577 70.17984 
L 587.011577 65.096707 
L 588.761187 65.096707 
L 588.761187 73.657774 
L 590.510796 73.657774 
L 590.510796 74.192841 
L 592.260406 74.192841 
L 592.260406 84.894174 
L 594.010016 84.894174 
L 594.010016 89.174708 
L 595.759626 89.174708 
L 595.759626 77.670774 
L 597.509235 77.670774 
L 597.509235 74.995441 
L 599.258845 74.995441 
L 599.258845 88.104574 
L 601.008455 88.104574 
L 601.008455 77.938307 
L 602.758064 77.938307 
L 602.758064 78.473374 
L 604.507674 78.473374 
L 604.507674 83.556508 
L 606.257284 83.556508 
L 606.257284 76.333107 
L 608.006893 76.333107 
L 608.006893 82.486374 
L 609.756503 82.486374 
L 609.756503 91.047441 
L 611.506113 91.047441 
L 611.506113 87.301974 
L 613.255723 87.301974 
L 613.255723 86.231841 
L 615.005332 86.231841 
L 615.005332 77.135707 
L 616.754942 77.135707 
L 616.754942 89.709775 
L 618.504552 89.709775 
L 618.504552 84.626641 
L 620.254161 84.626641 
L 620.254161 86.499374 
L 622.003771 86.499374 
L 622.003771 91.047441 
L 623.753381 91.047441 
L 623.753381 89.174708 
L 625.50299 89.174708 
L 625.50299 92.652641 
L 627.2526 92.652641 
L 627.2526 91.582508 
L 629.00221 91.582508 
L 629.00221 95.327975 
L 630.75182 95.327975 
L 630.75182 109.774775 
L 632.501429 109.774775 
L 632.501429 104.959175 
L 636.000649 104.959175 
L 636.000649 126.896909 
L 637.750258 126.896909 
L 637.750258 137.598243 
L 639.499868 137.598243 
L 639.499868 137.33071 
L 641.249478 137.33071 
L 641.249478 131.71251 
L 642.999088 131.71251 
L 642.999088 144.55411 
L 644.748697 144.55411 
L 644.748697 158.465844 
L 646.498307 158.465844 
L 646.498307 169.969778 
L 648.247917 169.969778 
L 648.247917 169.702245 
L 649.997526 169.702245 
L 649.997526 170.237311 
L 651.747136 170.237311 
L 651.747136 188.697112 
L 653.496746 188.697112 
L 653.496746 193.512712 
L 655.246355 193.512712 
L 655.246355 197.793246 
L 656.995965 197.793246 
L 656.995965 210.367313 
L 658.745575 210.367313 
L 658.745575 216.253047 
L 660.495185 216.253047 
L 660.495185 223.476447 
L 662.244794 223.476447 
L 662.244794 230.164781 
L 663.994404 230.164781 
L 663.994404 235.515447 
L 665.744014 235.515447 
L 665.744014 239.795981 
L 667.493623 239.795981 
L 667.493623 243.273914 
L 670.992843 243.273914 
L 670.992843 237.655714 
L 672.742453 237.655714 
L 672.742453 230.699847 
L 674.492062 230.699847 
L 674.492062 223.208914 
L 676.241672 223.208914 
L 676.241672 223.476447 
L 677.991282 223.476447 
L 677.991282 212.240046 
L 679.740891 212.240046 
L 679.740891 210.634846 
L 681.490501 210.634846 
L 681.490501 202.608846 
L 683.240111 202.608846 
L 683.240111 194.047779 
L 684.98972 194.047779 
L 684.98972 188.964645 
L 686.73933 188.964645 
L 686.73933 181.206178 
L 688.48894 181.206178 
L 688.48894 184.149045 
L 690.23855 184.149045 
L 690.23855 169.969778 
L 691.988159 169.969778 
L 691.988159 173.982778 
L 693.737769 173.982778 
L 693.737769 166.759378 
L 695.487379 166.759378 
L 695.487379 170.504845 
L 697.236988 170.504845 
L 697.236988 152.580111 
L 698.986598 152.580111 
L 698.986598 149.102177 
L 700.736208 149.102177 
L 700.736208 144.55411 
L 702.485817 144.55411 
L 702.485817 148.032044 
L 704.235427 148.032044 
L 704.235427 139.470977 
L 705.985037 139.470977 
L 705.985037 142.413843 
L 707.734647 142.413843 
L 707.734647 132.247576 
L 709.484256 132.247576 
L 709.484256 126.629376 
L 711.233866 126.629376 
L 711.233866 127.431976 
L 712.983476 127.431976 
L 712.983476 134.12031 
L 714.733085 134.12031 
L 714.733085 127.699509 
L 716.482695 127.699509 
L 716.482695 119.673509 
L 718.232305 119.673509 
L 718.232305 111.647509 
L 719.981915 111.647509 
L 719.981915 111.112442 
L 721.731524 111.112442 
L 721.731524 103.353975 
L 723.481134 103.353975 
L 723.481134 105.226709 
L 725.230744 105.226709 
L 725.230744 109.507242 
L 726.980353 109.507242 
L 726.980353 112.182575 
L 728.729963 112.182575 
L 728.729963 107.902042 
L 730.479573 107.902042 
L 730.479573 103.889042 
L 732.229182 103.889042 
L 732.229182 131.177443 
L 733.978792 131.177443 
L 733.978792 112.450109 
L 735.728402 112.450109 
L 735.728402 121.011176 
L 737.478012 121.011176 
L 737.478012 122.081309 
L 739.227621 122.081309 
L 739.227621 132.247576 
L 740.977231 132.247576 
L 740.977231 121.278709 
L 742.726841 121.278709 
L 742.726841 136.260577 
L 744.47645 136.260577 
L 744.47645 129.037176 
L 746.22606 129.037176 
L 746.22606 135.457976 
L 747.97567 135.457976 
L 747.97567 133.050176 
L 749.725279 133.050176 
L 749.725279 135.457976 
L 751.474889 135.457976 
L 751.474889 142.94891 
L 753.224499 142.94891 
L 753.224499 147.76451 
L 754.974109 147.76451 
L 754.974109 142.413843 
L 756.723718 142.413843 
L 756.723718 135.457976 
L 758.473328 135.457976 
L 758.473328 140.006043 
L 760.222938 140.006043 
L 760.222938 145.624244 
L 761.972547 145.624244 
L 761.972547 144.55411 
L 763.722157 144.55411 
L 763.722157 141.076177 
L 765.471767 141.076177 
L 765.471767 149.904777 
L 767.221377 149.904777 
L 767.221377 150.97491 
L 768.970986 150.97491 
L 768.970986 160.873644 
L 770.720596 160.873644 
L 770.720596 155.790511 
L 772.470206 155.790511 
L 772.470206 152.580111 
L 774.219815 152.580111 
L 774.219815 159.268444 
L 775.969425 159.268444 
L 775.969425 162.211311 
L 777.719035 162.211311 
L 777.719035 160.873644 
L 779.468644 160.873644 
L 779.468644 163.281444 
L 781.218254 163.281444 
L 781.218254 162.211311 
L 782.967864 162.211311 
L 782.967864 165.421711 
L 784.717474 165.421711 
L 784.717474 166.491844 
L 786.467083 166.491844 
L 786.467083 178.798378 
L 788.216693 178.798378 
L 788.216693 171.574978 
L 789.966303 171.574978 
L 789.966303 180.671112 
L 791.715912 180.671112 
L 791.715912 177.460712 
L 793.465522 177.460712 
L 793.465522 179.868512 
L 795.215132 179.868512 
L 795.215132 188.162045 
L 796.964742 188.162045 
L 796.964742 177.460712 
L 798.714351 177.460712 
L 798.714351 189.499712 
L 800.463961 189.499712 
L 800.463961 185.754245 
L 802.213571 185.754245 
L 802.213571 196.723112 
L 803.96318 196.723112 
L 803.96318 205.016646 
L 805.71279 205.016646 
L 805.71279 207.69198 
L 807.4624 207.69198 
L 807.4624 210.90238 
L 809.212009 210.90238 
L 809.212009 210.367313 
L 810.961619 210.367313 
L 810.961619 221.068647 
L 812.711229 221.068647 
L 812.711229 219.998513 
L 814.460839 219.998513 
L 814.460839 219.195913 
L 816.210448 219.195913 
L 816.210448 227.489447 
L 817.960058 227.489447 
L 817.960058 230.432314 
L 819.709668 230.432314 
L 819.709668 229.094647 
L 821.459277 229.094647 
L 821.459277 234.445314 
L 824.958497 234.445314 
L 824.958497 238.458314 
L 826.708106 238.458314 
L 826.708106 239.260914 
L 828.457716 239.260914 
L 828.457716 240.331048 
L 830.207326 240.331048 
L 830.207326 242.203781 
L 831.956936 242.203781 
L 831.956936 244.344048 
L 833.706545 244.344048 
L 833.706545 245.414181 
L 835.456155 245.414181 
L 835.456155 245.949248 
L 838.955374 245.949248 
L 838.955374 246.484315 
L 847.703423 246.484315 
L 847.703423 246.484315 
" clip-path="url(#p03cab81501)" style="fill: none; stroke: #ff7f0e; stroke-width: 1.5; stroke-linecap: square"/>
   </g>
  </g>
 </g>
 <defs>
  <clipPath id="p6c60a4f1e1">
   <rect x="46.965625" y="22.318125" width="384.914135" height="234.84077"/>
  </clipPath>
  <clipPath id="p03cab81501">
   <rect x="480.285385" y="22.318125" width="384.914135" height="234.84077"/>
  </clipPath>
 </defs>
</svg>
