<?xml version="1.0" encoding="UTF-8" standalone="no"?>
<!DOCTYPE svg PUBLIC "-//W3C//DTD SVG 1.1//EN"
 "http://www.w3.org/Graphics/SVG/1.1/DTD/svg11.dtd">
<!-- Generated by graphviz version 2.43.0 (0)
 -->
<!-- Title: %3 Pages: 1 -->
<svg width="1063pt" height="169pt"
 viewBox="0.00 0.00 1063.00 169.00" xmlns="http://www.w3.org/2000/svg" xmlns:xlink="http://www.w3.org/1999/xlink">
<g id="graph0" class="graph" transform="scale(1 1) rotate(0) translate(4 165)">
<title>%3</title>
<polygon fill="white" stroke="transparent" points="-4,4 -4,-165 1059,-165 1059,4 -4,4"/>
<!-- DistanceResolution -->
<g id="node1" class="node">
<title>DistanceResolution</title>
<polygon fill="none" stroke="black" points="1055,-161 900,-161 900,-138 1055,-138 1055,-161"/>
<text text-anchor="middle" x="977.5" y="-145.8" font-family="Times,serif" font-size="14.00">DistanceResolution</text>
</g>
<!-- TimeOfFlightLookupTable -->
<g id="node10" class="node">
<title>TimeOfFlightLookupTable</title>
<polygon fill="none" stroke="black" points="630,-102 429,-102 429,-69 630,-69 630,-102"/>
<text text-anchor="start" x="437" y="-87.8" font-family="Times,serif" font-size="14.00">TimeOfFlightLookupTable</text>
<text text-anchor="start" x="446.5" y="-76.2" font-family="Times,serif" font-size="11.00">via:</text>
<text text-anchor="start" x="467.5" y="-76.2" font-family="Times,serif" font-style="italic" font-size="11.00">compute_tof_lookup_table</text>
</g>
<!-- DistanceResolution&#45;&gt;TimeOfFlightLookupTable -->
<g id="edge3" class="edge">
<title>DistanceResolution&#45;&gt;TimeOfFlightLookupTable</title>
<path fill="none" stroke="black" d="M901.5,-137.98C829.92,-128.08 721.84,-113.12 640.6,-101.87"/>
<polygon fill="black" stroke="black" points="640.71,-98.36 630.32,-100.45 639.75,-105.29 640.71,-98.36"/>
</g>
<!-- LookupTableRelativeErrorThreshold -->
<g id="node2" class="node">
<title>LookupTableRelativeErrorThreshold</title>
<polygon fill="none" stroke="black" points="491,-161 216,-161 216,-138 491,-138 491,-161"/>
<text text-anchor="middle" x="353.5" y="-145.8" font-family="Times,serif" font-size="14.00">LookupTableRelativeErrorThreshold</text>
</g>
<!-- LookupTableRelativeErrorThreshold&#45;&gt;TimeOfFlightLookupTable -->
<g id="edge7" class="edge">
<title>LookupTableRelativeErrorThreshold&#45;&gt;TimeOfFlightLookupTable</title>
<path fill="none" stroke="black" d="M383.36,-137.98C408.58,-129.1 445.33,-116.15 475.67,-105.46"/>
<polygon fill="black" stroke="black" points="477.01,-108.7 485.27,-102.08 474.68,-102.1 477.01,-108.7"/>
</g>
<!-- Ltotal -->
<g id="node3" class="node">
<title>Ltotal</title>
<polygon fill="none" stroke="black" points="132,-97 73,-97 73,-74 132,-74 132,-97"/>
<text text-anchor="middle" x="102.5" y="-81.8" font-family="Times,serif" font-size="14.00">Ltotal</text>
</g>
<!-- TofData -->
<g id="node12" class="node">
<title>TofData</title>
<polygon fill="none" stroke="black" points="271,-33 128,-33 128,0 271,0 271,-33"/>
<text text-anchor="start" x="171.5" y="-18.8" font-family="Times,serif" font-size="14.00">TofData</text>
<text text-anchor="start" x="136" y="-7.2" font-family="Times,serif" font-size="11.00">via:</text>
<text text-anchor="start" x="157" y="-7.2" font-family="Times,serif" font-style="italic" font-size="11.00">time_of_flight_data</text>
</g>
<!-- Ltotal&#45;&gt;TofData -->
<g id="edge10" class="edge">
<title>Ltotal&#45;&gt;TofData</title>
<path fill="none" stroke="black" d="M118.08,-73.74C131.58,-64.41 151.52,-50.64 168.29,-39.06"/>
<polygon fill="black" stroke="black" points="170.48,-41.8 176.72,-33.23 166.5,-36.04 170.48,-41.8"/>
</g>
<!-- LtotalRange -->
<g id="node4" class="node">
<title>LtotalRange</title>
<polygon fill="none" stroke="black" points="602.5,-161 498.5,-161 498.5,-138 602.5,-138 602.5,-161"/>
<text text-anchor="middle" x="550.5" y="-145.8" font-family="Times,serif" font-size="14.00">LtotalRange</text>
</g>
<!-- LtotalRange&#45;&gt;TimeOfFlightLookupTable -->
<g id="edge2" class="edge">
<title>LtotalRange&#45;&gt;TimeOfFlightLookupTable</title>
<path fill="none" stroke="black" d="M546.94,-137.98C544.5,-130.78 541.15,-120.9 538.04,-111.72"/>
<polygon fill="black" stroke="black" points="541.34,-110.55 534.82,-102.2 534.71,-112.79 541.34,-110.55"/>
</g>
<!-- PulsePeriod -->
<g id="node5" class="node">
<title>PulsePeriod</title>
<polygon fill="none" stroke="black" points="101,-161 0,-161 0,-138 101,-138 101,-161"/>
<text text-anchor="middle" x="50.5" y="-145.8" font-family="Times,serif" font-size="14.00">PulsePeriod</text>
</g>
<!-- PulsePeriod&#45;&gt;TimeOfFlightLookupTable -->
<g id="edge5" class="edge">
<title>PulsePeriod&#45;&gt;TimeOfFlightLookupTable</title>
<path fill="none" stroke="black" d="M101.07,-138.55C102.22,-138.36 103.37,-138.18 104.5,-138 237.16,-117.17 271.2,-118.26 404.5,-102 409.2,-101.43 414.01,-100.84 418.86,-100.24"/>
<polygon fill="black" stroke="black" points="419.37,-103.71 428.87,-99.01 418.52,-96.76 419.37,-103.71"/>
</g>
<!-- PulsePeriod&#45;&gt;TofData -->
<g id="edge11" class="edge">
<title>PulsePeriod&#45;&gt;TofData</title>
<path fill="none" stroke="black" d="M76.53,-137.91C94.39,-129.82 117.94,-117.44 135.5,-102 149.12,-90.02 148.6,-83.5 159.5,-69 166.41,-59.81 174.13,-49.81 180.93,-41.08"/>
<polygon fill="black" stroke="black" points="183.71,-43.21 187.12,-33.18 178.2,-38.9 183.71,-43.21"/>
</g>
<!-- PulseStride -->
<g id="node6" class="node">
<title>PulseStride</title>
<polygon fill="none" stroke="black" points="208.5,-161 108.5,-161 108.5,-138 208.5,-138 208.5,-161"/>
<text text-anchor="middle" x="158.5" y="-145.8" font-family="Times,serif" font-size="14.00">PulseStride</text>
</g>
<!-- PulseStride&#45;&gt;TimeOfFlightLookupTable -->
<g id="edge6" class="edge">
<title>PulseStride&#45;&gt;TimeOfFlightLookupTable</title>
<path fill="none" stroke="black" d="M208.5,-138.72C209.85,-138.48 211.18,-138.23 212.5,-138 281,-125.78 358.05,-113.23 419.04,-103.58"/>
<polygon fill="black" stroke="black" points="419.74,-107.02 429.07,-102 418.65,-100.1 419.74,-107.02"/>
</g>
<!-- PulseStride&#45;&gt;TofData -->
<g id="edge12" class="edge">
<title>PulseStride&#45;&gt;TofData</title>
<path fill="none" stroke="black" d="M158.03,-137.87C157.67,-122.3 158.29,-92.58 166.5,-69 169.83,-59.43 175.27,-49.83 180.78,-41.56"/>
<polygon fill="black" stroke="black" points="183.79,-43.36 186.69,-33.17 178.07,-39.33 183.79,-43.36"/>
</g>
<!-- PulseStrideOffset -->
<g id="node7" class="node">
<title>PulseStrideOffset</title>
<polygon fill="none" stroke="black" points="313,-97 170,-97 170,-74 313,-74 313,-97"/>
<text text-anchor="middle" x="241.5" y="-81.8" font-family="Times,serif" font-size="14.00">PulseStrideOffset</text>
</g>
<!-- PulseStrideOffset&#45;&gt;TofData -->
<g id="edge13" class="edge">
<title>PulseStrideOffset&#45;&gt;TofData</title>
<path fill="none" stroke="black" d="M234.75,-73.74C229.39,-65.18 221.68,-52.88 214.84,-41.97"/>
<polygon fill="black" stroke="black" points="217.64,-39.85 209.36,-33.23 211.71,-43.57 217.64,-39.85"/>
</g>
<!-- RawData -->
<g id="node8" class="node">
<title>RawData</title>
<polygon fill="none" stroke="black" points="401,-97 320,-97 320,-74 401,-74 401,-97"/>
<text text-anchor="middle" x="360.5" y="-81.8" font-family="Times,serif" font-size="14.00">RawData</text>
</g>
<!-- RawData&#45;&gt;TofData -->
<g id="edge8" class="edge">
<title>RawData&#45;&gt;TofData</title>
<path fill="none" stroke="black" d="M334.99,-73.88C311.25,-64 275.29,-49.04 246.38,-37.01"/>
<polygon fill="black" stroke="black" points="247.45,-33.66 236.87,-33.05 244.76,-40.13 247.45,-33.66"/>
</g>
<!-- SimulationResults -->
<g id="node9" class="node">
<title>SimulationResults</title>
<polygon fill="none" stroke="red" stroke-dasharray="5,2" points="757,-161 610,-161 610,-138 757,-138 757,-161"/>
<text text-anchor="middle" x="683.5" y="-145.8" font-family="Times,serif" font-size="14.00" fill="red">SimulationResults</text>
</g>
<!-- SimulationResults&#45;&gt;TimeOfFlightLookupTable -->
<g id="edge1" class="edge">
<title>SimulationResults&#45;&gt;TimeOfFlightLookupTable</title>
<path fill="none" stroke="black" d="M657.38,-137.98C635.59,-129.21 603.98,-116.49 577.64,-105.88"/>
<polygon fill="black" stroke="black" points="578.78,-102.57 568.2,-102.08 576.17,-109.06 578.78,-102.57"/>
</g>
<!-- TimeOfFlightLookupTable&#45;&gt;TofData -->
<g id="edge9" class="edge">
<title>TimeOfFlightLookupTable&#45;&gt;TofData</title>
<path fill="none" stroke="black" d="M452.96,-68.96C401.45,-58.5 333.6,-44.73 281.06,-34.06"/>
<polygon fill="black" stroke="black" points="281.6,-30.6 271.11,-32.04 280.21,-37.46 281.6,-30.6"/>
</g>
<!-- TimeResolution -->
<g id="node11" class="node">
<title>TimeResolution</title>
<polygon fill="none" stroke="black" points="892.5,-161 764.5,-161 764.5,-138 892.5,-138 892.5,-161"/>
<text text-anchor="middle" x="828.5" y="-145.8" font-family="Times,serif" font-size="14.00">TimeResolution</text>
</g>
<!-- TimeResolution&#45;&gt;TimeOfFlightLookupTable -->
<g id="edge4" class="edge">
<title>TimeResolution&#45;&gt;TimeOfFlightLookupTable</title>
<path fill="none" stroke="black" d="M777.78,-137.98C733.09,-128.72 667.09,-115.03 614.37,-104.1"/>
<polygon fill="black" stroke="black" points="614.85,-100.62 604.35,-102.02 613.43,-107.48 614.85,-100.62"/>
</g>
</g>
</svg>
