<?xml version="1.0" encoding="utf-8" standalone="no"?>
<!DOCTYPE svg PUBLIC "-//W3C//DTD SVG 1.1//EN"
  "http://www.w3.org/Graphics/SVG/1.1/DTD/svg11.dtd">
<svg xmlns:xlink="http://www.w3.org/1999/xlink" width="395.328125pt" height="268.200625pt" viewBox="0 0 395.328125 268.200625" xmlns="http://www.w3.org/2000/svg" version="1.1">
 <metadata>
  <rdf:RDF xmlns:dc="http://purl.org/dc/elements/1.1/" xmlns:cc="http://creativecommons.org/ns#" xmlns:rdf="http://www.w3.org/1999/02/22-rdf-syntax-ns#">
   <cc:Work>
    <dc:type rdf:resource="http://purl.org/dc/dcmitype/StillImage"/>
    <dc:date>2025-07-15T15:01:16.581940</dc:date>
    <dc:format>image/svg+xml</dc:format>
    <dc:creator>
     <cc:Agent>
      <dc:title>Matplotlib v3.10.3, https://matplotlib.org/</dc:title>
     </cc:Agent>
    </dc:creator>
   </cc:Work>
  </rdf:RDF>
 </metadata>
 <defs>
  <style type="text/css">*{stroke-linejoin: round; stroke-linecap: butt}</style>
 </defs>
 <g id="figure_1">
  <g id="patch_1">
   <path d="M 0 268.200625 
L 395.328125 268.200625 
L 395.328125 0 
L 0 0 
z
" style="fill: #ffffff"/>
  </g>
  <g id="axes_1">
   <g id="patch_2">
    <path d="M 53.328125 228.96 
L 388.128125 228.96 
L 388.128125 7.2 
L 53.328125 7.2 
z
" style="fill: #ffffff"/>
   </g>
   <g id="matplotlib.axis_1">
    <g id="xtick_1">
     <g id="line2d_1">
      <defs>
       <path id="mc8d2b0f39d" d="M 0 0 
L 0 3.5 
" style="stroke: #000000; stroke-width: 0.8"/>
      </defs>
      <g>
       <use xlink:href="#mc8d2b0f39d" x="68.546307" y="228.96" style="stroke: #000000; stroke-width: 0.8"/>
      </g>
     </g>
     <g id="text_1">
      <!-- 2 -->
      <g transform="translate(65.365057 243.558437) scale(0.1 -0.1)">
       <defs>
        <path id="DejaVuSans-32" d="M 1228 531 
L 3431 531 
L 3431 0 
L 469 0 
L 469 531 
Q 828 903 1448 1529 
Q 2069 2156 2228 2338 
Q 2531 2678 2651 2914 
Q 2772 3150 2772 3378 
Q 2772 3750 2511 3984 
Q 2250 4219 1831 4219 
Q 1534 4219 1204 4116 
Q 875 4013 500 3803 
L 500 4441 
Q 881 4594 1212 4672 
Q 1544 4750 1819 4750 
Q 2544 4750 2975 4387 
Q 3406 4025 3406 3419 
Q 3406 3131 3298 2873 
Q 3191 2616 2906 2266 
Q 2828 2175 2409 1742 
Q 1991 1309 1228 531 
z
" transform="scale(0.015625)"/>
       </defs>
       <use xlink:href="#DejaVuSans-32"/>
      </g>
     </g>
    </g>
    <g id="xtick_2">
     <g id="line2d_2">
      <g>
       <use xlink:href="#mc8d2b0f39d" x="106.591761" y="228.96" style="stroke: #000000; stroke-width: 0.8"/>
      </g>
     </g>
     <g id="text_2">
      <!-- 3 -->
      <g transform="translate(103.410511 243.558437) scale(0.1 -0.1)">
       <defs>
        <path id="DejaVuSans-33" d="M 2597 2516 
Q 3050 2419 3304 2112 
Q 3559 1806 3559 1356 
Q 3559 666 3084 287 
Q 2609 -91 1734 -91 
Q 1441 -91 1130 -33 
Q 819 25 488 141 
L 488 750 
Q 750 597 1062 519 
Q 1375 441 1716 441 
Q 2309 441 2620 675 
Q 2931 909 2931 1356 
Q 2931 1769 2642 2001 
Q 2353 2234 1838 2234 
L 1294 2234 
L 1294 2753 
L 1863 2753 
Q 2328 2753 2575 2939 
Q 2822 3125 2822 3475 
Q 2822 3834 2567 4026 
Q 2313 4219 1838 4219 
Q 1578 4219 1281 4162 
Q 984 4106 628 3988 
L 628 4550 
Q 988 4650 1302 4700 
Q 1616 4750 1894 4750 
Q 2613 4750 3031 4423 
Q 3450 4097 3450 3541 
Q 3450 3153 3228 2886 
Q 3006 2619 2597 2516 
z
" transform="scale(0.015625)"/>
       </defs>
       <use xlink:href="#DejaVuSans-33"/>
      </g>
     </g>
    </g>
    <g id="xtick_3">
     <g id="line2d_3">
      <g>
       <use xlink:href="#mc8d2b0f39d" x="144.637216" y="228.96" style="stroke: #000000; stroke-width: 0.8"/>
      </g>
     </g>
     <g id="text_3">
      <!-- 4 -->
      <g transform="translate(141.455966 243.558437) scale(0.1 -0.1)">
       <defs>
        <path id="DejaVuSans-34" d="M 2419 4116 
L 825 1625 
L 2419 1625 
L 2419 4116 
z
M 2253 4666 
L 3047 4666 
L 3047 1625 
L 3713 1625 
L 3713 1100 
L 3047 1100 
L 3047 0 
L 2419 0 
L 2419 1100 
L 313 1100 
L 313 1709 
L 2253 4666 
z
" transform="scale(0.015625)"/>
       </defs>
       <use xlink:href="#DejaVuSans-34"/>
      </g>
     </g>
    </g>
    <g id="xtick_4">
     <g id="line2d_4">
      <g>
       <use xlink:href="#mc8d2b0f39d" x="182.68267" y="228.96" style="stroke: #000000; stroke-width: 0.8"/>
      </g>
     </g>
     <g id="text_4">
      <!-- 5 -->
      <g transform="translate(179.50142 243.558437) scale(0.1 -0.1)">
       <defs>
        <path id="DejaVuSans-35" d="M 691 4666 
L 3169 4666 
L 3169 4134 
L 1269 4134 
L 1269 2991 
Q 1406 3038 1543 3061 
Q 1681 3084 1819 3084 
Q 2600 3084 3056 2656 
Q 3513 2228 3513 1497 
Q 3513 744 3044 326 
Q 2575 -91 1722 -91 
Q 1428 -91 1123 -41 
Q 819 9 494 109 
L 494 744 
Q 775 591 1075 516 
Q 1375 441 1709 441 
Q 2250 441 2565 725 
Q 2881 1009 2881 1497 
Q 2881 1984 2565 2268 
Q 2250 2553 1709 2553 
Q 1456 2553 1204 2497 
Q 953 2441 691 2322 
L 691 4666 
z
" transform="scale(0.015625)"/>
       </defs>
       <use xlink:href="#DejaVuSans-35"/>
      </g>
     </g>
    </g>
    <g id="xtick_5">
     <g id="line2d_5">
      <g>
       <use xlink:href="#mc8d2b0f39d" x="220.728125" y="228.96" style="stroke: #000000; stroke-width: 0.8"/>
      </g>
     </g>
     <g id="text_5">
      <!-- 6 -->
      <g transform="translate(217.546875 243.558437) scale(0.1 -0.1)">
       <defs>
        <path id="DejaVuSans-36" d="M 2113 2584 
Q 1688 2584 1439 2293 
Q 1191 2003 1191 1497 
Q 1191 994 1439 701 
Q 1688 409 2113 409 
Q 2538 409 2786 701 
Q 3034 994 3034 1497 
Q 3034 2003 2786 2293 
Q 2538 2584 2113 2584 
z
M 3366 4563 
L 3366 3988 
Q 3128 4100 2886 4159 
Q 2644 4219 2406 4219 
Q 1781 4219 1451 3797 
Q 1122 3375 1075 2522 
Q 1259 2794 1537 2939 
Q 1816 3084 2150 3084 
Q 2853 3084 3261 2657 
Q 3669 2231 3669 1497 
Q 3669 778 3244 343 
Q 2819 -91 2113 -91 
Q 1303 -91 875 529 
Q 447 1150 447 2328 
Q 447 3434 972 4092 
Q 1497 4750 2381 4750 
Q 2619 4750 2861 4703 
Q 3103 4656 3366 4563 
z
" transform="scale(0.015625)"/>
       </defs>
       <use xlink:href="#DejaVuSans-36"/>
      </g>
     </g>
    </g>
    <g id="xtick_6">
     <g id="line2d_6">
      <g>
       <use xlink:href="#mc8d2b0f39d" x="258.77358" y="228.96" style="stroke: #000000; stroke-width: 0.8"/>
      </g>
     </g>
     <g id="text_6">
      <!-- 7 -->
      <g transform="translate(255.59233 243.558437) scale(0.1 -0.1)">
       <defs>
        <path id="DejaVuSans-37" d="M 525 4666 
L 3525 4666 
L 3525 4397 
L 1831 0 
L 1172 0 
L 2766 4134 
L 525 4134 
L 525 4666 
z
" transform="scale(0.015625)"/>
       </defs>
       <use xlink:href="#DejaVuSans-37"/>
      </g>
     </g>
    </g>
    <g id="xtick_7">
     <g id="line2d_7">
      <g>
       <use xlink:href="#mc8d2b0f39d" x="296.819034" y="228.96" style="stroke: #000000; stroke-width: 0.8"/>
      </g>
     </g>
     <g id="text_7">
      <!-- 8 -->
      <g transform="translate(293.637784 243.558437) scale(0.1 -0.1)">
       <defs>
        <path id="DejaVuSans-38" d="M 2034 2216 
Q 1584 2216 1326 1975 
Q 1069 1734 1069 1313 
Q 1069 891 1326 650 
Q 1584 409 2034 409 
Q 2484 409 2743 651 
Q 3003 894 3003 1313 
Q 3003 1734 2745 1975 
Q 2488 2216 2034 2216 
z
M 1403 2484 
Q 997 2584 770 2862 
Q 544 3141 544 3541 
Q 544 4100 942 4425 
Q 1341 4750 2034 4750 
Q 2731 4750 3128 4425 
Q 3525 4100 3525 3541 
Q 3525 3141 3298 2862 
Q 3072 2584 2669 2484 
Q 3125 2378 3379 2068 
Q 3634 1759 3634 1313 
Q 3634 634 3220 271 
Q 2806 -91 2034 -91 
Q 1263 -91 848 271 
Q 434 634 434 1313 
Q 434 1759 690 2068 
Q 947 2378 1403 2484 
z
M 1172 3481 
Q 1172 3119 1398 2916 
Q 1625 2713 2034 2713 
Q 2441 2713 2670 2916 
Q 2900 3119 2900 3481 
Q 2900 3844 2670 4047 
Q 2441 4250 2034 4250 
Q 1625 4250 1398 4047 
Q 1172 3844 1172 3481 
z
" transform="scale(0.015625)"/>
       </defs>
       <use xlink:href="#DejaVuSans-38"/>
      </g>
     </g>
    </g>
    <g id="xtick_8">
     <g id="line2d_8">
      <g>
       <use xlink:href="#mc8d2b0f39d" x="334.864489" y="228.96" style="stroke: #000000; stroke-width: 0.8"/>
      </g>
     </g>
     <g id="text_8">
      <!-- 9 -->
      <g transform="translate(331.683239 243.558437) scale(0.1 -0.1)">
       <defs>
        <path id="DejaVuSans-39" d="M 703 97 
L 703 672 
Q 941 559 1184 500 
Q 1428 441 1663 441 
Q 2288 441 2617 861 
Q 2947 1281 2994 2138 
Q 2813 1869 2534 1725 
Q 2256 1581 1919 1581 
Q 1219 1581 811 2004 
Q 403 2428 403 3163 
Q 403 3881 828 4315 
Q 1253 4750 1959 4750 
Q 2769 4750 3195 4129 
Q 3622 3509 3622 2328 
Q 3622 1225 3098 567 
Q 2575 -91 1691 -91 
Q 1453 -91 1209 -44 
Q 966 3 703 97 
z
M 1959 2075 
Q 2384 2075 2632 2365 
Q 2881 2656 2881 3163 
Q 2881 3666 2632 3958 
Q 2384 4250 1959 4250 
Q 1534 4250 1286 3958 
Q 1038 3666 1038 3163 
Q 1038 2656 1286 2365 
Q 1534 2075 1959 2075 
z
" transform="scale(0.015625)"/>
       </defs>
       <use xlink:href="#DejaVuSans-39"/>
      </g>
     </g>
    </g>
    <g id="xtick_9">
     <g id="line2d_9">
      <g>
       <use xlink:href="#mc8d2b0f39d" x="372.909943" y="228.96" style="stroke: #000000; stroke-width: 0.8"/>
      </g>
     </g>
     <g id="text_9">
      <!-- 10 -->
      <g transform="translate(366.547443 243.558437) scale(0.1 -0.1)">
       <defs>
        <path id="DejaVuSans-31" d="M 794 531 
L 1825 531 
L 1825 4091 
L 703 3866 
L 703 4441 
L 1819 4666 
L 2450 4666 
L 2450 531 
L 3481 531 
L 3481 0 
L 794 0 
L 794 531 
z
" transform="scale(0.015625)"/>
        <path id="DejaVuSans-30" d="M 2034 4250 
Q 1547 4250 1301 3770 
Q 1056 3291 1056 2328 
Q 1056 1369 1301 889 
Q 1547 409 2034 409 
Q 2525 409 2770 889 
Q 3016 1369 3016 2328 
Q 3016 3291 2770 3770 
Q 2525 4250 2034 4250 
z
M 2034 4750 
Q 2819 4750 3233 4129 
Q 3647 3509 3647 2328 
Q 3647 1150 3233 529 
Q 2819 -91 2034 -91 
Q 1250 -91 836 529 
Q 422 1150 422 2328 
Q 422 3509 836 4129 
Q 1250 4750 2034 4750 
z
" transform="scale(0.015625)"/>
       </defs>
       <use xlink:href="#DejaVuSans-31"/>
       <use xlink:href="#DejaVuSans-30" transform="translate(63.623047 0)"/>
      </g>
     </g>
    </g>
    <g id="text_10">
     <!-- wavelength [Å] -->
     <g transform="translate(182.690625 258.920937) scale(0.1 -0.1)">
      <defs>
       <path id="DejaVuSans-77" d="M 269 3500 
L 844 3500 
L 1563 769 
L 2278 3500 
L 2956 3500 
L 3675 769 
L 4391 3500 
L 4966 3500 
L 4050 0 
L 3372 0 
L 2619 2869 
L 1863 0 
L 1184 0 
L 269 3500 
z
" transform="scale(0.015625)"/>
       <path id="DejaVuSans-61" d="M 2194 1759 
Q 1497 1759 1228 1600 
Q 959 1441 959 1056 
Q 959 750 1161 570 
Q 1363 391 1709 391 
Q 2188 391 2477 730 
Q 2766 1069 2766 1631 
L 2766 1759 
L 2194 1759 
z
M 3341 1997 
L 3341 0 
L 2766 0 
L 2766 531 
Q 2569 213 2275 61 
Q 1981 -91 1556 -91 
Q 1019 -91 701 211 
Q 384 513 384 1019 
Q 384 1609 779 1909 
Q 1175 2209 1959 2209 
L 2766 2209 
L 2766 2266 
Q 2766 2663 2505 2880 
Q 2244 3097 1772 3097 
Q 1472 3097 1187 3025 
Q 903 2953 641 2809 
L 641 3341 
Q 956 3463 1253 3523 
Q 1550 3584 1831 3584 
Q 2591 3584 2966 3190 
Q 3341 2797 3341 1997 
z
" transform="scale(0.015625)"/>
       <path id="DejaVuSans-76" d="M 191 3500 
L 800 3500 
L 1894 563 
L 2988 3500 
L 3597 3500 
L 2284 0 
L 1503 0 
L 191 3500 
z
" transform="scale(0.015625)"/>
       <path id="DejaVuSans-65" d="M 3597 1894 
L 3597 1613 
L 953 1613 
Q 991 1019 1311 708 
Q 1631 397 2203 397 
Q 2534 397 2845 478 
Q 3156 559 3463 722 
L 3463 178 
Q 3153 47 2828 -22 
Q 2503 -91 2169 -91 
Q 1331 -91 842 396 
Q 353 884 353 1716 
Q 353 2575 817 3079 
Q 1281 3584 2069 3584 
Q 2775 3584 3186 3129 
Q 3597 2675 3597 1894 
z
M 3022 2063 
Q 3016 2534 2758 2815 
Q 2500 3097 2075 3097 
Q 1594 3097 1305 2825 
Q 1016 2553 972 2059 
L 3022 2063 
z
" transform="scale(0.015625)"/>
       <path id="DejaVuSans-6c" d="M 603 4863 
L 1178 4863 
L 1178 0 
L 603 0 
L 603 4863 
z
" transform="scale(0.015625)"/>
       <path id="DejaVuSans-6e" d="M 3513 2113 
L 3513 0 
L 2938 0 
L 2938 2094 
Q 2938 2591 2744 2837 
Q 2550 3084 2163 3084 
Q 1697 3084 1428 2787 
Q 1159 2491 1159 1978 
L 1159 0 
L 581 0 
L 581 3500 
L 1159 3500 
L 1159 2956 
Q 1366 3272 1645 3428 
Q 1925 3584 2291 3584 
Q 2894 3584 3203 3211 
Q 3513 2838 3513 2113 
z
" transform="scale(0.015625)"/>
       <path id="DejaVuSans-67" d="M 2906 1791 
Q 2906 2416 2648 2759 
Q 2391 3103 1925 3103 
Q 1463 3103 1205 2759 
Q 947 2416 947 1791 
Q 947 1169 1205 825 
Q 1463 481 1925 481 
Q 2391 481 2648 825 
Q 2906 1169 2906 1791 
z
M 3481 434 
Q 3481 -459 3084 -895 
Q 2688 -1331 1869 -1331 
Q 1566 -1331 1297 -1286 
Q 1028 -1241 775 -1147 
L 775 -588 
Q 1028 -725 1275 -790 
Q 1522 -856 1778 -856 
Q 2344 -856 2625 -561 
Q 2906 -266 2906 331 
L 2906 616 
Q 2728 306 2450 153 
Q 2172 0 1784 0 
Q 1141 0 747 490 
Q 353 981 353 1791 
Q 353 2603 747 3093 
Q 1141 3584 1784 3584 
Q 2172 3584 2450 3431 
Q 2728 3278 2906 2969 
L 2906 3500 
L 3481 3500 
L 3481 434 
z
" transform="scale(0.015625)"/>
       <path id="DejaVuSans-74" d="M 1172 4494 
L 1172 3500 
L 2356 3500 
L 2356 3053 
L 1172 3053 
L 1172 1153 
Q 1172 725 1289 603 
Q 1406 481 1766 481 
L 2356 481 
L 2356 0 
L 1766 0 
Q 1100 0 847 248 
Q 594 497 594 1153 
L 594 3053 
L 172 3053 
L 172 3500 
L 594 3500 
L 594 4494 
L 1172 4494 
z
" transform="scale(0.015625)"/>
       <path id="DejaVuSans-68" d="M 3513 2113 
L 3513 0 
L 2938 0 
L 2938 2094 
Q 2938 2591 2744 2837 
Q 2550 3084 2163 3084 
Q 1697 3084 1428 2787 
Q 1159 2491 1159 1978 
L 1159 0 
L 581 0 
L 581 4863 
L 1159 4863 
L 1159 2956 
Q 1366 3272 1645 3428 
Q 1925 3584 2291 3584 
Q 2894 3584 3203 3211 
Q 3513 2838 3513 2113 
z
" transform="scale(0.015625)"/>
       <path id="DejaVuSans-20" transform="scale(0.015625)"/>
       <path id="DejaVuSans-5b" d="M 550 4863 
L 1875 4863 
L 1875 4416 
L 1125 4416 
L 1125 -397 
L 1875 -397 
L 1875 -844 
L 550 -844 
L 550 4863 
z
" transform="scale(0.015625)"/>
       <path id="DejaVuSans-c5" d="M 2663 5081 
Q 2663 5278 2523 5417 
Q 2384 5556 2188 5556 
Q 1988 5556 1852 5420 
Q 1716 5284 1716 5081 
Q 1716 4884 1853 4746 
Q 1991 4609 2188 4609 
Q 2384 4609 2523 4746 
Q 2663 4884 2663 5081 
z
M 2188 4044 
L 1338 1722 
L 3041 1722 
L 2188 4044 
z
M 1716 4366 
Q 1525 4494 1428 4673 
Q 1331 4853 1331 5081 
Q 1331 5441 1579 5691 
Q 1828 5941 2188 5941 
Q 2544 5941 2795 5689 
Q 3047 5438 3047 5081 
Q 3047 4863 2948 4678 
Q 2850 4494 2663 4366 
L 4325 0 
L 3669 0 
L 3244 1197 
L 1141 1197 
L 716 0 
L 50 0 
L 1716 4366 
z
" transform="scale(0.015625)"/>
       <path id="DejaVuSans-5d" d="M 1947 4863 
L 1947 -844 
L 622 -844 
L 622 -397 
L 1369 -397 
L 1369 4416 
L 622 4416 
L 622 4863 
L 1947 4863 
z
" transform="scale(0.015625)"/>
      </defs>
      <use xlink:href="#DejaVuSans-77"/>
      <use xlink:href="#DejaVuSans-61" transform="translate(81.787109 0)"/>
      <use xlink:href="#DejaVuSans-76" transform="translate(143.066406 0)"/>
      <use xlink:href="#DejaVuSans-65" transform="translate(202.246094 0)"/>
      <use xlink:href="#DejaVuSans-6c" transform="translate(263.769531 0)"/>
      <use xlink:href="#DejaVuSans-65" transform="translate(291.552734 0)"/>
      <use xlink:href="#DejaVuSans-6e" transform="translate(353.076172 0)"/>
      <use xlink:href="#DejaVuSans-67" transform="translate(416.455078 0)"/>
      <use xlink:href="#DejaVuSans-74" transform="translate(479.931641 0)"/>
      <use xlink:href="#DejaVuSans-68" transform="translate(519.140625 0)"/>
      <use xlink:href="#DejaVuSans-20" transform="translate(582.519531 0)"/>
      <use xlink:href="#DejaVuSans-5b" transform="translate(614.306641 0)"/>
      <use xlink:href="#DejaVuSans-c5" transform="translate(653.320312 0)"/>
      <use xlink:href="#DejaVuSans-5d" transform="translate(721.728516 0)"/>
     </g>
    </g>
   </g>
   <g id="matplotlib.axis_2">
    <g id="ytick_1">
     <g id="line2d_10">
      <defs>
       <path id="m1adac64fc8" d="M 0 0 
L -3.5 0 
" style="stroke: #000000; stroke-width: 0.8"/>
      </defs>
      <g>
       <use xlink:href="#m1adac64fc8" x="53.328125" y="218.88" style="stroke: #000000; stroke-width: 0.8"/>
      </g>
     </g>
     <g id="text_11">
      <!-- 0 -->
      <g transform="translate(39.965625 222.679219) scale(0.1 -0.1)">
       <use xlink:href="#DejaVuSans-30"/>
      </g>
     </g>
    </g>
    <g id="ytick_2">
     <g id="line2d_11">
      <g>
       <use xlink:href="#m1adac64fc8" x="53.328125" y="181.477403" style="stroke: #000000; stroke-width: 0.8"/>
      </g>
     </g>
     <g id="text_12">
      <!-- 500 -->
      <g transform="translate(27.240625 185.276621) scale(0.1 -0.1)">
       <use xlink:href="#DejaVuSans-35"/>
       <use xlink:href="#DejaVuSans-30" transform="translate(63.623047 0)"/>
       <use xlink:href="#DejaVuSans-30" transform="translate(127.246094 0)"/>
      </g>
     </g>
    </g>
    <g id="ytick_3">
     <g id="line2d_12">
      <g>
       <use xlink:href="#m1adac64fc8" x="53.328125" y="144.074805" style="stroke: #000000; stroke-width: 0.8"/>
      </g>
     </g>
     <g id="text_13">
      <!-- 1000 -->
      <g transform="translate(20.878125 147.874024) scale(0.1 -0.1)">
       <use xlink:href="#DejaVuSans-31"/>
       <use xlink:href="#DejaVuSans-30" transform="translate(63.623047 0)"/>
       <use xlink:href="#DejaVuSans-30" transform="translate(127.246094 0)"/>
       <use xlink:href="#DejaVuSans-30" transform="translate(190.869141 0)"/>
      </g>
     </g>
    </g>
    <g id="ytick_4">
     <g id="line2d_13">
      <g>
       <use xlink:href="#m1adac64fc8" x="53.328125" y="106.672208" style="stroke: #000000; stroke-width: 0.8"/>
      </g>
     </g>
     <g id="text_14">
      <!-- 1500 -->
      <g transform="translate(20.878125 110.471427) scale(0.1 -0.1)">
       <use xlink:href="#DejaVuSans-31"/>
       <use xlink:href="#DejaVuSans-35" transform="translate(63.623047 0)"/>
       <use xlink:href="#DejaVuSans-30" transform="translate(127.246094 0)"/>
       <use xlink:href="#DejaVuSans-30" transform="translate(190.869141 0)"/>
      </g>
     </g>
    </g>
    <g id="ytick_5">
     <g id="line2d_14">
      <g>
       <use xlink:href="#m1adac64fc8" x="53.328125" y="69.26961" style="stroke: #000000; stroke-width: 0.8"/>
      </g>
     </g>
     <g id="text_15">
      <!-- 2000 -->
      <g transform="translate(20.878125 73.068829) scale(0.1 -0.1)">
       <use xlink:href="#DejaVuSans-32"/>
       <use xlink:href="#DejaVuSans-30" transform="translate(63.623047 0)"/>
       <use xlink:href="#DejaVuSans-30" transform="translate(127.246094 0)"/>
       <use xlink:href="#DejaVuSans-30" transform="translate(190.869141 0)"/>
      </g>
     </g>
    </g>
    <g id="ytick_6">
     <g id="line2d_15">
      <g>
       <use xlink:href="#m1adac64fc8" x="53.328125" y="31.867013" style="stroke: #000000; stroke-width: 0.8"/>
      </g>
     </g>
     <g id="text_16">
      <!-- 2500 -->
      <g transform="translate(20.878125 35.666232) scale(0.1 -0.1)">
       <use xlink:href="#DejaVuSans-32"/>
       <use xlink:href="#DejaVuSans-35" transform="translate(63.623047 0)"/>
       <use xlink:href="#DejaVuSans-30" transform="translate(127.246094 0)"/>
       <use xlink:href="#DejaVuSans-30" transform="translate(190.869141 0)"/>
      </g>
     </g>
    </g>
    <g id="text_17">
     <!-- [counts] -->
     <g transform="translate(14.798438 138.6925) rotate(-90) scale(0.1 -0.1)">
      <defs>
       <path id="DejaVuSans-63" d="M 3122 3366 
L 3122 2828 
Q 2878 2963 2633 3030 
Q 2388 3097 2138 3097 
Q 1578 3097 1268 2742 
Q 959 2388 959 1747 
Q 959 1106 1268 751 
Q 1578 397 2138 397 
Q 2388 397 2633 464 
Q 2878 531 3122 666 
L 3122 134 
Q 2881 22 2623 -34 
Q 2366 -91 2075 -91 
Q 1284 -91 818 406 
Q 353 903 353 1747 
Q 353 2603 823 3093 
Q 1294 3584 2113 3584 
Q 2378 3584 2631 3529 
Q 2884 3475 3122 3366 
z
" transform="scale(0.015625)"/>
       <path id="DejaVuSans-6f" d="M 1959 3097 
Q 1497 3097 1228 2736 
Q 959 2375 959 1747 
Q 959 1119 1226 758 
Q 1494 397 1959 397 
Q 2419 397 2687 759 
Q 2956 1122 2956 1747 
Q 2956 2369 2687 2733 
Q 2419 3097 1959 3097 
z
M 1959 3584 
Q 2709 3584 3137 3096 
Q 3566 2609 3566 1747 
Q 3566 888 3137 398 
Q 2709 -91 1959 -91 
Q 1206 -91 779 398 
Q 353 888 353 1747 
Q 353 2609 779 3096 
Q 1206 3584 1959 3584 
z
" transform="scale(0.015625)"/>
       <path id="DejaVuSans-75" d="M 544 1381 
L 544 3500 
L 1119 3500 
L 1119 1403 
Q 1119 906 1312 657 
Q 1506 409 1894 409 
Q 2359 409 2629 706 
Q 2900 1003 2900 1516 
L 2900 3500 
L 3475 3500 
L 3475 0 
L 2900 0 
L 2900 538 
Q 2691 219 2414 64 
Q 2138 -91 1772 -91 
Q 1169 -91 856 284 
Q 544 659 544 1381 
z
M 1991 3584 
L 1991 3584 
z
" transform="scale(0.015625)"/>
       <path id="DejaVuSans-73" d="M 2834 3397 
L 2834 2853 
Q 2591 2978 2328 3040 
Q 2066 3103 1784 3103 
Q 1356 3103 1142 2972 
Q 928 2841 928 2578 
Q 928 2378 1081 2264 
Q 1234 2150 1697 2047 
L 1894 2003 
Q 2506 1872 2764 1633 
Q 3022 1394 3022 966 
Q 3022 478 2636 193 
Q 2250 -91 1575 -91 
Q 1294 -91 989 -36 
Q 684 19 347 128 
L 347 722 
Q 666 556 975 473 
Q 1284 391 1588 391 
Q 1994 391 2212 530 
Q 2431 669 2431 922 
Q 2431 1156 2273 1281 
Q 2116 1406 1581 1522 
L 1381 1569 
Q 847 1681 609 1914 
Q 372 2147 372 2553 
Q 372 3047 722 3315 
Q 1072 3584 1716 3584 
Q 2034 3584 2315 3537 
Q 2597 3491 2834 3397 
z
" transform="scale(0.015625)"/>
      </defs>
      <use xlink:href="#DejaVuSans-5b"/>
      <use xlink:href="#DejaVuSans-63" transform="translate(39.013672 0)"/>
      <use xlink:href="#DejaVuSans-6f" transform="translate(93.994141 0)"/>
      <use xlink:href="#DejaVuSans-75" transform="translate(155.175781 0)"/>
      <use xlink:href="#DejaVuSans-6e" transform="translate(218.554688 0)"/>
      <use xlink:href="#DejaVuSans-74" transform="translate(281.933594 0)"/>
      <use xlink:href="#DejaVuSans-73" transform="translate(321.142578 0)"/>
      <use xlink:href="#DejaVuSans-5d" transform="translate(373.242188 0)"/>
     </g>
    </g>
   </g>
   <g id="line2d_16">
    <path d="M 68.546307 218.88 
L 69.560852 218.88 
L 69.560852 203.544935 
L 70.575398 203.544935 
L 70.575398 154.622338 
L 71.589943 154.622338 
L 71.589943 116.920519 
L 72.604489 116.920519 
L 72.604489 100.987013 
L 73.619034 100.987013 
L 73.619034 94.404156 
L 74.63358 94.404156 
L 74.63358 92.758442 
L 75.648125 92.758442 
L 75.648125 93.581299 
L 76.66267 93.581299 
L 76.66267 85.053506 
L 77.677216 85.053506 
L 77.677216 82.584935 
L 78.691761 82.584935 
L 78.691761 71.663377 
L 79.706307 71.663377 
L 79.706307 63.285195 
L 80.720852 63.285195 
L 80.720852 61.789091 
L 81.735398 61.789091 
L 81.735398 58.871688 
L 82.749943 58.871688 
L 82.749943 51.166753 
L 83.764489 51.166753 
L 83.764489 54.383377 
L 84.779034 54.383377 
L 84.779034 45.780779 
L 85.79358 45.780779 
L 85.79358 36.57974 
L 86.808125 36.57974 
L 86.808125 38.075844 
L 87.82267 38.075844 
L 87.82267 33.213506 
L 88.837216 33.213506 
L 88.837216 24.610909 
L 89.851761 24.610909 
L 89.851761 25.658182 
L 90.866307 25.658182 
L 90.866307 17.579221 
L 91.880852 17.579221 
L 91.880852 17.28 
L 92.895398 17.28 
L 92.895398 22.815584 
L 93.909943 22.815584 
L 93.909943 27.752727 
L 94.924489 27.752727 
L 94.924489 32.315844 
L 95.939034 32.315844 
L 95.939034 35.083636 
L 96.95358 35.083636 
L 96.95358 34.111169 
L 97.968125 34.111169 
L 97.968125 39.197922 
L 98.98267 39.197922 
L 98.98267 32.989091 
L 99.997216 32.989091 
L 99.997216 38.30026 
L 101.011761 38.30026 
L 101.011761 48.623377 
L 102.026307 48.623377 
L 102.026307 39.945974 
L 103.040852 39.945974 
L 103.040852 58.273247 
L 104.055398 58.273247 
L 104.055398 64.257662 
L 105.069943 64.257662 
L 105.069943 79.891948 
L 106.084489 79.891948 
L 106.084489 87.821299 
L 107.099034 87.821299 
L 107.099034 96.797922 
L 108.11358 96.797922 
L 108.11358 105.400519 
L 109.128125 105.400519 
L 109.128125 116.097662 
L 110.14267 116.097662 
L 110.14267 124.550649 
L 111.157216 124.550649 
L 111.157216 128.365714 
L 112.171761 128.365714 
L 112.171761 139.137662 
L 113.186307 139.137662 
L 113.186307 149.311169 
L 114.200852 149.311169 
L 114.200852 157.315325 
L 115.215398 157.315325 
L 115.215398 159.185455 
L 116.229943 159.185455 
L 116.229943 165.843117 
L 117.244489 165.843117 
L 117.244489 174.595325 
L 118.259034 174.595325 
L 118.259034 182.823896 
L 119.27358 182.823896 
L 119.27358 186.414545 
L 120.288125 186.414545 
L 120.288125 185.965714 
L 121.30267 185.965714 
L 121.30267 161.28 
L 122.317216 161.28 
L 122.317216 150.882078 
L 123.331761 150.882078 
L 123.331761 134.649351 
L 124.346307 134.649351 
L 124.346307 105.69974 
L 125.360852 105.69974 
L 125.360852 92.384416 
L 126.375398 92.384416 
L 126.375398 89.467013 
L 127.389943 89.467013 
L 127.389943 94.104935 
L 128.404489 94.104935 
L 128.404489 97.321558 
L 129.419034 97.321558 
L 129.419034 92.085195 
L 130.43358 92.085195 
L 130.43358 90.514286 
L 131.448125 90.514286 
L 131.448125 98.518442 
L 132.46267 98.518442 
L 132.46267 96.573506 
L 133.477216 96.573506 
L 133.477216 97.171948 
L 134.491761 97.171948 
L 134.491761 112.132987 
L 135.506307 112.132987 
L 135.506307 107.42026 
L 136.520852 107.42026 
L 136.520852 101.959481 
L 137.535398 101.959481 
L 137.535398 103.081558 
L 138.549943 103.081558 
L 138.549943 107.869091 
L 139.564489 107.869091 
L 139.564489 112.357403 
L 140.579034 112.357403 
L 140.579034 112.806234 
L 141.59358 112.806234 
L 141.59358 120.735584 
L 142.608125 120.735584 
L 142.608125 109.739221 
L 143.62267 109.739221 
L 143.62267 113.554286 
L 144.637216 113.554286 
L 144.637216 119.314286 
L 145.651761 119.314286 
L 145.651761 118.042597 
L 147.680852 117.967792 
L 147.680852 119.912727 
L 148.695398 119.912727 
L 148.695398 125.223896 
L 149.709943 125.223896 
L 149.709943 123.802597 
L 150.724489 123.802597 
L 150.724489 121.259221 
L 151.739034 121.259221 
L 151.739034 131.731948 
L 152.75358 131.731948 
L 152.75358 126.645195 
L 153.768125 126.645195 
L 153.768125 132.255584 
L 154.78267 132.255584 
L 154.78267 131.582338 
L 155.797216 131.582338 
L 155.797216 125.523117 
L 156.811761 125.523117 
L 156.811761 131.731948 
L 157.826307 131.731948 
L 157.826307 125.149091 
L 158.840852 125.149091 
L 158.840852 129.787013 
L 159.855398 129.787013 
L 159.855398 142.354286 
L 160.869943 142.354286 
L 160.869943 148.114286 
L 161.884489 148.114286 
L 161.884489 154.622338 
L 162.899034 154.622338 
L 162.899034 151.77974 
L 163.91358 151.77974 
L 163.91358 148.338701 
L 164.928125 148.338701 
L 164.928125 149.685195 
L 165.94267 149.685195 
L 165.94267 145.944935 
L 166.957216 145.944935 
L 166.957216 155.894026 
L 167.971761 155.894026 
L 167.971761 160.980779 
L 168.986307 160.980779 
L 168.986307 163.673766 
L 170.000852 163.673766 
L 170.000852 159.559481 
L 171.015398 159.559481 
L 171.015398 152.378182 
L 172.029943 152.378182 
L 172.029943 151.854545 
L 173.044489 151.854545 
L 173.044489 147.590649 
L 174.059034 147.590649 
L 174.059034 141.755844 
L 175.07358 141.755844 
L 175.07358 134.798961 
L 176.088125 134.798961 
L 176.088125 132.554805 
L 177.10267 132.554805 
L 177.10267 134.050909 
L 178.117216 134.050909 
L 178.117216 143.625974 
L 179.131761 143.625974 
L 179.131761 145.645714 
L 180.146307 145.645714 
L 180.146307 149.685195 
L 181.160852 149.685195 
L 181.160852 156.866494 
L 182.175398 156.866494 
L 182.175398 159.634286 
L 183.189943 159.634286 
L 183.189943 157.988571 
L 184.204489 157.988571 
L 184.204489 159.110649 
L 185.219034 159.110649 
L 185.219034 159.335065 
L 186.23358 159.335065 
L 186.23358 160.232727 
L 187.248125 160.232727 
L 187.248125 159.858701 
L 188.26267 159.858701 
L 188.26267 154.771948 
L 189.277216 154.771948 
L 189.277216 162.626494 
L 190.291761 162.626494 
L 190.291761 162.252468 
L 191.306307 162.252468 
L 191.306307 159.783896 
L 192.320852 159.783896 
L 192.320852 168.685714 
L 193.335398 168.685714 
L 193.335398 161.579221 
L 194.349943 161.579221 
L 194.349943 167.414026 
L 195.364489 167.414026 
L 195.364489 172.8 
L 196.379034 172.8 
L 196.379034 174.520519 
L 197.39358 174.520519 
L 197.39358 171.378701 
L 198.408125 171.378701 
L 198.408125 174.370909 
L 199.42267 174.370909 
L 199.42267 167.563636 
L 200.437216 167.563636 
L 200.437216 173.473247 
L 201.451761 173.473247 
L 201.451761 181.926234 
L 202.466307 181.926234 
L 202.466307 185.741299 
L 203.480852 185.741299 
L 203.480852 172.65039 
L 204.495398 172.65039 
L 204.495398 177.886753 
L 205.509943 177.886753 
L 205.509943 191.576104 
L 206.524489 191.576104 
L 206.524489 192.772987 
L 207.539034 192.772987 
L 207.539034 191.576104 
L 208.55358 191.576104 
L 208.55358 193.446234 
L 209.568125 193.446234 
L 209.568125 193.670649 
L 210.58267 193.670649 
L 210.58267 191.875325 
L 211.597216 191.875325 
L 211.597216 198.682597 
L 212.611761 198.682597 
L 212.611761 199.430649 
L 213.626307 199.430649 
L 213.626307 198.607792 
L 214.640852 198.607792 
L 214.640852 195.091948 
L 215.655398 195.091948 
L 215.655398 193.82026 
L 216.669943 193.82026 
L 216.669943 192.997403 
L 217.684489 192.997403 
L 217.684489 189.705974 
L 218.699034 189.705974 
L 218.699034 186.713766 
L 219.71358 186.713766 
L 219.71358 185.142857 
L 220.728125 185.142857 
L 220.728125 180.729351 
L 221.74267 180.729351 
L 221.74267 185.068052 
L 222.757216 185.068052 
L 222.757216 190.678442 
L 223.771761 190.678442 
L 223.771761 194.942338 
L 224.786307 194.942338 
L 224.786307 194.418701 
L 225.800852 194.418701 
L 225.800852 196.288831 
L 226.815398 196.288831 
L 226.815398 196.812468 
L 227.829943 196.812468 
L 227.829943 196.214026 
L 228.844489 196.214026 
L 228.844489 195.914805 
L 229.859034 195.914805 
L 229.859034 197.336104 
L 230.87358 197.336104 
L 230.87358 198.832208 
L 232.90267 198.832208 
L 232.90267 201.824416 
L 233.917216 201.824416 
L 233.917216 200.328312 
L 234.931761 200.328312 
L 234.931761 200.851948 
L 235.946307 200.851948 
L 235.946307 203.096104 
L 236.960852 203.096104 
L 236.960852 201.300779 
L 237.975398 201.300779 
L 237.975398 202.497662 
L 238.989943 202.497662 
L 238.989943 200.328312 
L 240.004489 200.328312 
L 240.004489 200.702338 
L 241.019034 200.702338 
L 241.019034 208.781299 
L 242.03358 208.781299 
L 242.03358 207.883636 
L 243.048125 207.883636 
L 243.048125 207.285195 
L 244.06267 207.285195 
L 244.06267 206.686753 
L 245.077216 206.686753 
L 245.077216 210.651429 
L 246.091761 210.651429 
L 246.091761 211.025455 
L 247.106307 211.025455 
L 247.106307 209.978182 
L 248.120852 209.978182 
L 248.120852 212.297143 
L 249.135398 212.297143 
L 249.135398 211.24987 
L 250.149943 211.24987 
L 250.149943 212.222338 
L 251.164489 212.222338 
L 251.164489 212.97039 
L 252.179034 212.97039 
L 252.179034 211.923117 
L 253.19358 211.923117 
L 253.19358 213.568831 
L 255.22267 213.568831 
L 255.22267 214.541299 
L 256.237216 214.541299 
L 256.237216 214.092468 
L 257.251761 214.092468 
L 257.251761 213.419221 
L 258.266307 213.419221 
L 258.266307 211.175065 
L 259.280852 211.175065 
L 259.280852 209.604156 
L 260.295398 209.604156 
L 260.295398 208.556883 
L 261.309943 208.556883 
L 261.309943 208.781299 
L 262.324489 208.781299 
L 262.324489 205.714286 
L 263.339034 205.714286 
L 263.339034 202.796883 
L 264.35358 202.796883 
L 264.35358 205.041039 
L 265.368125 205.041039 
L 265.368125 209.529351 
L 266.38267 209.529351 
L 266.38267 208.257662 
L 267.397216 208.257662 
L 267.397216 207.135584 
L 268.411761 207.135584 
L 268.411761 207.584416 
L 269.426307 207.584416 
L 269.426307 209.678961 
L 270.440852 209.678961 
L 270.440852 209.155325 
L 271.455398 209.155325 
L 271.455398 209.753766 
L 272.469943 209.753766 
L 272.469943 210.352208 
L 273.484489 210.352208 
L 273.484489 209.828571 
L 274.499034 209.828571 
L 274.499034 209.454545 
L 275.51358 209.454545 
L 275.51358 210.726234 
L 276.528125 210.726234 
L 276.528125 210.875844 
L 277.54267 210.875844 
L 277.54267 212.521558 
L 278.557216 212.521558 
L 278.557216 211.324675 
L 279.571761 211.324675 
L 279.571761 211.997922 
L 281.600852 212.072727 
L 281.600852 214.391688 
L 283.629943 214.466494 
L 283.629943 213.718442 
L 284.644489 213.718442 
L 284.644489 214.391688 
L 285.659034 214.391688 
L 285.659034 214.017662 
L 286.67358 214.017662 
L 286.67358 215.663377 
L 287.688125 215.663377 
L 287.688125 215.513766 
L 288.70267 215.513766 
L 288.70267 215.289351 
L 289.717216 215.289351 
L 289.717216 214.915325 
L 291.746307 214.915325 
L 291.746307 215.588571 
L 292.760852 215.588571 
L 292.760852 216.785455 
L 293.775398 216.785455 
L 293.775398 216.486234 
L 294.789943 216.486234 
L 294.789943 217.533506 
L 295.804489 217.533506 
L 295.804489 217.159481 
L 296.819034 217.159481 
L 296.819034 216.261818 
L 297.83358 216.261818 
L 297.83358 217.608312 
L 298.848125 217.608312 
L 298.848125 216.261818 
L 299.86267 216.261818 
L 299.86267 216.411429 
L 300.877216 216.411429 
L 300.877216 214.017662 
L 301.891761 214.017662 
L 301.891761 211.698701 
L 302.906307 211.698701 
L 302.906307 211.848312 
L 303.920852 211.848312 
L 303.920852 212.297143 
L 304.935398 212.297143 
L 304.935398 210.801039 
L 305.949943 210.801039 
L 305.949943 209.678961 
L 306.964489 209.678961 
L 306.964489 204.816623 
L 307.979034 204.816623 
L 307.979034 204.367792 
L 308.99358 204.367792 
L 308.99358 200.777143 
L 310.008125 200.777143 
L 310.008125 202.871688 
L 311.02267 202.871688 
L 311.02267 203.544935 
L 313.051761 203.544935 
L 313.051761 204.367792 
L 314.066307 204.367792 
L 314.066307 200.777143 
L 315.080852 200.777143 
L 315.080852 201.899221 
L 316.095398 201.899221 
L 316.095398 203.320519 
L 318.124489 203.320519 
L 318.124489 205.863896 
L 319.139034 205.863896 
L 319.139034 205.639481 
L 320.15358 205.639481 
L 320.15358 203.096104 
L 321.168125 203.096104 
L 321.168125 202.871688 
L 322.18267 202.871688 
L 322.18267 204.218182 
L 323.197216 204.218182 
L 323.197216 205.190649 
L 324.211761 205.190649 
L 324.211761 206.686753 
L 325.226307 206.686753 
L 325.226307 207.584416 
L 326.240852 207.584416 
L 326.240852 206.686753 
L 327.255398 206.686753 
L 327.255398 207.883636 
L 328.269943 207.883636 
L 328.269943 206.761558 
L 329.284489 206.761558 
L 329.284489 208.182857 
L 330.299034 208.182857 
L 330.299034 207.584416 
L 331.31358 207.584416 
L 331.31358 208.856104 
L 332.328125 208.856104 
L 332.328125 204.966234 
L 333.34267 204.966234 
L 333.34267 207.285195 
L 334.357216 207.285195 
L 334.357216 209.23013 
L 335.371761 209.23013 
L 335.371761 208.930909 
L 336.386307 208.930909 
L 336.386307 209.903377 
L 337.400852 209.903377 
L 337.400852 209.454545 
L 338.415398 209.454545 
L 338.415398 211.623896 
L 339.429943 211.623896 
L 339.429943 210.427013 
L 340.444489 210.427013 
L 340.444489 211.025455 
L 341.459034 211.025455 
L 341.459034 212.371948 
L 342.47358 212.371948 
L 342.47358 212.147532 
L 343.488125 212.147532 
L 343.488125 213.718442 
L 344.50267 213.718442 
L 344.50267 213.419221 
L 345.517216 213.419221 
L 345.517216 213.793247 
L 346.531761 213.793247 
L 346.531761 213.26961 
L 347.546307 213.26961 
L 347.546307 214.915325 
L 348.560852 214.915325 
L 348.560852 216.561039 
L 349.575398 216.561039 
L 349.575398 217.683117 
L 350.589943 217.683117 
L 350.589943 217.832727 
L 351.604489 217.832727 
L 351.604489 218.057143 
L 352.619034 218.057143 
L 352.619034 218.88 
L 372.909943 218.88 
L 372.909943 218.88 
" clip-path="url(#pb76d0bf4a5)" style="fill: none; stroke: #1f77b4; stroke-width: 1.5; stroke-linecap: square"/>
   </g>
   <g id="line2d_17">
    <path d="M 68.546307 210.726234 
L 69.560852 210.726234 
L 69.560852 186.638961 
L 70.575398 186.638961 
L 70.575398 158.661818 
L 71.589943 158.661818 
L 71.589943 129.861818 
L 72.604489 129.861818 
L 72.604489 105.998961 
L 73.619034 105.998961 
L 73.619034 93.207273 
L 74.63358 93.207273 
L 74.63358 96.648312 
L 75.648125 96.648312 
L 75.648125 90.813506 
L 76.66267 90.813506 
L 76.66267 85.876364 
L 77.677216 85.876364 
L 77.677216 80.714805 
L 78.691761 80.714805 
L 78.691761 69.568831 
L 79.706307 69.568831 
L 79.706307 70.017662 
L 80.720852 70.017662 
L 80.720852 60.068571 
L 81.735398 60.068571 
L 81.735398 58.946494 
L 82.749943 58.946494 
L 82.749943 48.772987 
L 83.764489 48.772987 
L 83.764489 53.635325 
L 84.779034 53.635325 
L 84.779034 45.855584 
L 85.79358 45.855584 
L 85.79358 40.843636 
L 86.808125 40.843636 
L 86.808125 35.981299 
L 87.82267 35.981299 
L 87.82267 28.351169 
L 88.837216 28.351169 
L 88.837216 28.126753 
L 89.851761 28.126753 
L 89.851761 19.449351 
L 90.866307 19.449351 
L 90.866307 24.835325 
L 91.880852 24.835325 
L 91.880852 19.598961 
L 92.895398 19.598961 
L 92.895398 29.174026 
L 93.909943 29.174026 
L 93.909943 21.693506 
L 94.924489 21.693506 
L 94.924489 36.654545 
L 95.939034 36.654545 
L 95.939034 32.914286 
L 96.95358 32.914286 
L 96.95358 34.111169 
L 97.968125 34.111169 
L 97.968125 31.343377 
L 98.98267 31.343377 
L 98.98267 40.095584 
L 99.997216 40.095584 
L 99.997216 38.898701 
L 101.011761 38.898701 
L 101.011761 41.741299 
L 102.026307 41.741299 
L 102.026307 53.485714 
L 103.040852 53.485714 
L 103.040852 53.036883 
L 104.055398 53.036883 
L 104.055398 71.663377 
L 105.069943 71.663377 
L 105.069943 78.76987 
L 106.084489 78.76987 
L 106.084489 85.726753 
L 107.099034 85.726753 
L 107.099034 97.171948 
L 108.11358 97.171948 
L 108.11358 105.250909 
L 109.128125 105.250909 
L 109.128125 115.2 
L 110.14267 115.2 
L 110.14267 122.530909 
L 111.157216 122.530909 
L 111.157216 130.60987 
L 112.171761 130.60987 
L 112.171761 138.015584 
L 113.186307 138.015584 
L 113.186307 148.263896 
L 114.200852 148.263896 
L 114.200852 153.126234 
L 115.215398 153.126234 
L 115.215398 159.858701 
L 116.229943 159.858701 
L 116.229943 165.768312 
L 117.244489 165.768312 
L 117.244489 176.839481 
L 118.259034 176.839481 
L 118.259034 180.953766 
L 119.27358 180.953766 
L 119.27358 183.048312 
L 120.288125 183.048312 
L 120.288125 175.193766 
L 121.30267 175.193766 
L 121.30267 158.287792 
L 122.317216 158.287792 
L 122.317216 142.952727 
L 123.331761 142.952727 
L 123.331761 130.834286 
L 124.346307 130.834286 
L 124.346307 117.743377 
L 125.360852 117.743377 
L 125.360852 101.66026 
L 126.375398 101.66026 
L 126.375398 96.423896 
L 127.389943 96.423896 
L 127.389943 89.541818 
L 128.404489 89.541818 
L 128.404489 94.927792 
L 129.419034 94.927792 
L 129.419034 93.581299 
L 130.43358 93.581299 
L 130.43358 95.451429 
L 131.448125 95.451429 
L 131.448125 97.171948 
L 132.46267 97.171948 
L 132.46267 101.959481 
L 133.477216 101.959481 
L 133.477216 100.762597 
L 134.491761 100.762597 
L 134.491761 104.203636 
L 135.506307 104.203636 
L 135.506307 104.951688 
L 136.520852 104.951688 
L 136.520852 101.510649 
L 137.535398 101.510649 
L 137.535398 105.69974 
L 138.549943 105.69974 
L 138.549943 110.711688 
L 139.564489 110.711688 
L 139.564489 107.121039 
L 140.579034 107.121039 
L 140.579034 111.983377 
L 141.59358 111.983377 
L 141.59358 108.467532 
L 142.608125 108.467532 
L 142.608125 115.873247 
L 143.62267 115.873247 
L 143.62267 118.267013 
L 144.637216 118.267013 
L 144.637216 115.2 
L 145.651761 115.2 
L 145.651761 119.987532 
L 146.666307 119.987532 
L 146.666307 122.904935 
L 147.680852 122.904935 
L 147.680852 118.341818 
L 148.695398 118.341818 
L 148.695398 120.511169 
L 149.709943 120.511169 
L 149.709943 123.578182 
L 150.724489 123.578182 
L 150.724489 130.60987 
L 151.739034 130.60987 
L 151.739034 128.290909 
L 152.75358 128.290909 
L 152.75358 129.188571 
L 153.768125 129.188571 
L 153.768125 127.094026 
L 154.78267 127.094026 
L 154.78267 134.125714 
L 155.797216 134.125714 
L 155.797216 135.621818 
L 156.811761 135.621818 
L 156.811761 134.275325 
L 157.826307 134.275325 
L 157.826307 136.36987 
L 158.840852 136.36987 
L 158.840852 142.877922 
L 159.855398 142.877922 
L 159.855398 138.688831 
L 160.869943 138.688831 
L 160.869943 140.932987 
L 161.884489 140.932987 
L 161.884489 145.87013 
L 162.899034 145.87013 
L 162.899034 146.318961 
L 163.91358 146.318961 
L 163.91358 145.570909 
L 164.928125 145.570909 
L 164.928125 148.488312 
L 165.94267 148.488312 
L 165.94267 149.685195 
L 166.957216 149.685195 
L 166.957216 156.567273 
L 167.971761 156.567273 
L 167.971761 160.232727 
L 168.986307 160.232727 
L 168.986307 155.894026 
L 170.000852 155.894026 
L 170.000852 154.472727 
L 171.015398 154.472727 
L 171.015398 150.807273 
L 172.029943 150.807273 
L 172.029943 146.543377 
L 173.044489 146.543377 
L 173.044489 142.578701 
L 174.059034 142.578701 
L 174.059034 144.374026 
L 175.07358 144.374026 
L 175.07358 139.362078 
L 176.088125 139.362078 
L 176.088125 139.137662 
L 177.10267 139.137662 
L 177.10267 134.424935 
L 178.117216 134.424935 
L 178.117216 140.184935 
L 179.131761 140.184935 
L 179.131761 146.618182 
L 180.146307 146.618182 
L 180.146307 153.575065 
L 181.160852 153.575065 
L 181.160852 157.464935 
L 182.175398 157.464935 
L 182.175398 159.26026 
L 183.189943 159.26026 
L 183.189943 157.614545 
L 184.204489 157.614545 
L 184.204489 156.492468 
L 185.219034 156.492468 
L 185.219034 157.165714 
L 186.23358 157.165714 
L 186.23358 162.402078 
L 187.248125 162.402078 
L 187.248125 159.858701 
L 188.26267 159.858701 
L 188.26267 159.26026 
L 189.277216 159.26026 
L 189.277216 157.988571 
L 190.291761 157.988571 
L 190.291761 158.512208 
L 191.306307 158.512208 
L 191.306307 163.075325 
L 192.320852 163.075325 
L 192.320852 165.16987 
L 193.335398 165.16987 
L 193.335398 164.421818 
L 194.349943 164.421818 
L 194.349943 169.957403 
L 195.364489 169.957403 
L 195.364489 171.453506 
L 196.379034 171.453506 
L 196.379034 171.004675 
L 197.39358 171.004675 
L 197.39358 176.390649 
L 198.408125 176.390649 
L 198.408125 175.867013 
L 199.42267 175.867013 
L 199.42267 173.697662 
L 200.437216 173.697662 
L 200.437216 180.729351 
L 201.451761 180.729351 
L 201.451761 177.587532 
L 202.466307 177.587532 
L 202.466307 181.327792 
L 203.480852 181.327792 
L 203.480852 181.477403 
L 204.495398 181.477403 
L 204.495398 183.871169 
L 205.509943 183.871169 
L 205.509943 186.713766 
L 206.524489 186.713766 
L 206.524489 186.115325 
L 207.539034 186.115325 
L 207.539034 189.631169 
L 209.568125 189.631169 
L 209.568125 193.221818 
L 210.58267 193.221818 
L 210.58267 192.997403 
L 211.597216 192.997403 
L 211.597216 195.316364 
L 212.611761 195.316364 
L 212.611761 197.71013 
L 213.626307 197.71013 
L 213.626307 195.765195 
L 214.640852 195.765195 
L 214.640852 193.82026 
L 215.655398 193.82026 
L 215.655398 193.670649 
L 216.669943 193.670649 
L 216.669943 192.548571 
L 217.684489 192.548571 
L 217.684489 189.107532 
L 218.699034 189.107532 
L 218.699034 186.33974 
L 219.71358 186.33974 
L 219.71358 186.713766 
L 220.728125 186.713766 
L 220.728125 189.406753 
L 221.74267 189.406753 
L 221.74267 186.938182 
L 223.771761 186.863377 
L 223.771761 190.902857 
L 224.786307 190.902857 
L 224.786307 194.269091 
L 225.800852 194.269091 
L 225.800852 193.745455 
L 226.815398 193.745455 
L 226.815398 195.98961 
L 227.829943 195.98961 
L 227.829943 195.391169 
L 228.844489 195.391169 
L 228.844489 197.336104 
L 229.859034 197.336104 
L 229.859034 197.635325 
L 230.87358 197.635325 
L 230.87358 196.662857 
L 231.888125 196.662857 
L 231.888125 201.151169 
L 232.90267 201.151169 
L 232.90267 201.375584 
L 233.917216 201.375584 
L 233.917216 199.72987 
L 234.931761 199.72987 
L 234.931761 201.74961 
L 235.946307 201.74961 
L 235.946307 200.851948 
L 236.960852 200.851948 
L 236.960852 203.096104 
L 238.989943 203.170909 
L 238.989943 203.544935 
L 240.004489 203.544935 
L 240.004489 204.218182 
L 241.019034 204.218182 
L 241.019034 207.434805 
L 242.03358 207.434805 
L 242.03358 207.21039 
L 243.048125 207.21039 
L 243.048125 208.332468 
L 244.06267 208.332468 
L 244.06267 209.37974 
L 245.077216 209.37974 
L 245.077216 207.285195 
L 246.091761 207.285195 
L 246.091761 208.930909 
L 247.106307 208.930909 
L 247.106307 210.202597 
L 248.120852 210.202597 
L 248.120852 209.080519 
L 249.135398 209.080519 
L 249.135398 210.576623 
L 250.149943 210.576623 
L 250.149943 212.820779 
L 251.164489 212.820779 
L 251.164489 212.371948 
L 252.179034 212.371948 
L 252.179034 212.671169 
L 253.19358 212.671169 
L 253.19358 213.568831 
L 254.208125 213.568831 
L 254.208125 213.045195 
L 255.22267 213.045195 
L 255.22267 214.466494 
L 256.237216 214.466494 
L 256.237216 212.297143 
L 257.251761 212.297143 
L 257.251761 211.549091 
L 258.266307 211.549091 
L 258.266307 209.529351 
L 259.280852 209.529351 
L 259.280852 211.24987 
L 260.295398 211.24987 
L 260.295398 207.584416 
L 261.309943 207.584416 
L 261.309943 208.407273 
L 262.324489 208.407273 
L 262.324489 206.387532 
L 263.339034 206.387532 
L 263.339034 205.190649 
L 264.35358 205.190649 
L 264.35358 206.387532 
L 265.368125 206.387532 
L 265.368125 207.060779 
L 266.38267 207.060779 
L 266.38267 208.482078 
L 267.397216 208.482078 
L 267.397216 207.285195 
L 268.411761 207.285195 
L 268.411761 207.958442 
L 269.426307 207.958442 
L 269.426307 209.604156 
L 270.440852 209.604156 
L 270.440852 209.454545 
L 271.455398 209.454545 
L 271.455398 208.556883 
L 272.469943 208.556883 
L 272.469943 209.23013 
L 273.484489 209.23013 
L 273.484489 210.127792 
L 274.499034 210.127792 
L 274.499034 210.427013 
L 276.528125 210.352208 
L 276.528125 212.446753 
L 277.54267 212.446753 
L 277.54267 211.24987 
L 278.557216 211.24987 
L 278.557216 211.474286 
L 279.571761 211.474286 
L 279.571761 213.12 
L 280.586307 213.12 
L 280.586307 212.820779 
L 281.600852 212.820779 
L 281.600852 213.194805 
L 282.615398 213.194805 
L 282.615398 213.643636 
L 283.629943 213.643636 
L 283.629943 214.316883 
L 284.644489 214.316883 
L 284.644489 214.466494 
L 285.659034 214.466494 
L 285.659034 213.718442 
L 286.67358 213.718442 
L 286.67358 215.513766 
L 289.717216 215.438961 
L 289.717216 214.765714 
L 290.731761 214.765714 
L 290.731761 215.13974 
L 291.746307 215.13974 
L 291.746307 215.663377 
L 292.760852 215.663377 
L 292.760852 216.112208 
L 293.775398 216.112208 
L 293.775398 216.935065 
L 294.789943 216.935065 
L 294.789943 216.785455 
L 295.804489 216.785455 
L 295.804489 216.336623 
L 296.819034 216.336623 
L 296.819034 216.037403 
L 297.83358 216.037403 
L 297.83358 216.785455 
L 298.848125 216.785455 
L 298.848125 215.588571 
L 299.86267 215.588571 
L 299.86267 213.419221 
L 300.877216 213.419221 
L 300.877216 214.092468 
L 301.891761 214.092468 
L 301.891761 211.923117 
L 302.906307 211.923117 
L 302.906307 211.474286 
L 303.920852 211.474286 
L 303.920852 209.753766 
L 304.935398 209.753766 
L 304.935398 208.033247 
L 305.949943 208.033247 
L 305.949943 209.23013 
L 306.964489 209.23013 
L 306.964489 206.911169 
L 307.979034 206.911169 
L 307.979034 206.312727 
L 308.99358 206.312727 
L 308.99358 205.639481 
L 310.008125 205.639481 
L 310.008125 204.966234 
L 311.02267 204.966234 
L 311.02267 202.273247 
L 312.037216 202.273247 
L 312.037216 201.6 
L 313.051761 201.6 
L 313.051761 201.375584 
L 314.066307 201.375584 
L 314.066307 203.021299 
L 315.080852 203.021299 
L 315.080852 203.694545 
L 316.095398 203.694545 
L 316.095398 202.348052 
L 317.109943 202.348052 
L 317.109943 204.517403 
L 319.139034 204.442597 
L 319.139034 204.143377 
L 320.15358 204.143377 
L 320.15358 204.966234 
L 321.168125 204.966234 
L 321.168125 205.190649 
L 322.18267 205.190649 
L 322.18267 205.48987 
L 323.197216 205.48987 
L 323.197216 206.911169 
L 324.211761 206.911169 
L 324.211761 205.48987 
L 325.226307 205.48987 
L 325.226307 207.734026 
L 326.240852 207.734026 
L 326.240852 206.611948 
L 327.255398 206.611948 
L 327.255398 209.080519 
L 328.269943 209.080519 
L 328.269943 207.584416 
L 329.284489 207.584416 
L 329.284489 207.36 
L 330.299034 207.36 
L 330.299034 206.312727 
L 331.31358 206.312727 
L 331.31358 208.930909 
L 332.328125 208.930909 
L 332.328125 206.686753 
L 333.34267 206.686753 
L 333.34267 208.182857 
L 334.357216 208.182857 
L 334.357216 208.781299 
L 336.386307 208.856104 
L 336.386307 209.304935 
L 337.400852 209.304935 
L 337.400852 209.155325 
L 338.415398 209.155325 
L 338.415398 209.37974 
L 339.429943 209.37974 
L 339.429943 211.025455 
L 341.459034 210.950649 
L 341.459034 211.324675 
L 342.47358 211.324675 
L 342.47358 211.474286 
L 343.488125 211.474286 
L 343.488125 212.297143 
L 344.50267 212.297143 
L 344.50267 214.316883 
L 345.517216 214.316883 
L 345.517216 213.718442 
L 346.531761 213.718442 
L 346.531761 214.017662 
L 347.546307 214.017662 
L 347.546307 214.915325 
L 348.560852 214.915325 
L 348.560852 216.261818 
L 349.575398 216.261818 
L 349.575398 217.159481 
L 350.589943 217.159481 
L 350.589943 217.907532 
L 352.619034 217.982338 
L 352.619034 218.431169 
L 353.63358 218.431169 
L 353.63358 218.805195 
L 372.909943 218.88 
L 372.909943 218.88 
" clip-path="url(#pb76d0bf4a5)" style="fill: none; stroke: #ff7f0e; stroke-width: 1.5; stroke-linecap: square"/>
   </g>
   <g id="patch_3">
    <path d="M 53.328125 228.96 
L 53.328125 7.2 
" style="fill: none; stroke: #000000; stroke-width: 0.8; stroke-linejoin: miter; stroke-linecap: square"/>
   </g>
   <g id="patch_4">
    <path d="M 388.128125 228.96 
L 388.128125 7.2 
" style="fill: none; stroke: #000000; stroke-width: 0.8; stroke-linejoin: miter; stroke-linecap: square"/>
   </g>
   <g id="patch_5">
    <path d="M 53.328125 228.96 
L 388.128125 228.96 
" style="fill: none; stroke: #000000; stroke-width: 0.8; stroke-linejoin: miter; stroke-linecap: square"/>
   </g>
   <g id="patch_6">
    <path d="M 53.328125 7.2 
L 388.128125 7.2 
" style="fill: none; stroke: #000000; stroke-width: 0.8; stroke-linejoin: miter; stroke-linecap: square"/>
   </g>
   <g id="legend_1">
    <g id="patch_7">
     <path d="M 284.125 44.834375 
L 381.128125 44.834375 
Q 383.128125 44.834375 383.128125 42.834375 
L 383.128125 14.2 
Q 383.128125 12.2 381.128125 12.2 
L 284.125 12.2 
Q 282.125 12.2 282.125 14.2 
L 282.125 42.834375 
Q 282.125 44.834375 284.125 44.834375 
z
" style="fill: #ffffff; opacity: 0.8; stroke: #cccccc; stroke-linejoin: miter"/>
    </g>
    <g id="line2d_18">
     <path d="M 286.125 20.298437 
L 286.125 20.298437 
L 296.125 20.298437 
L 296.125 20.298437 
L 306.125 20.298437 
" style="fill: none; stroke: #1f77b4; stroke-width: 1.5; stroke-linecap: square"/>
    </g>
    <g id="text_18">
     <!-- wfm -->
     <g transform="translate(314.125 23.798437) scale(0.1 -0.1)">
      <defs>
       <path id="DejaVuSans-66" d="M 2375 4863 
L 2375 4384 
L 1825 4384 
Q 1516 4384 1395 4259 
Q 1275 4134 1275 3809 
L 1275 3500 
L 2222 3500 
L 2222 3053 
L 1275 3053 
L 1275 0 
L 697 0 
L 697 3053 
L 147 3053 
L 147 3500 
L 697 3500 
L 697 3744 
Q 697 4328 969 4595 
Q 1241 4863 1831 4863 
L 2375 4863 
z
" transform="scale(0.015625)"/>
       <path id="DejaVuSans-6d" d="M 3328 2828 
Q 3544 3216 3844 3400 
Q 4144 3584 4550 3584 
Q 5097 3584 5394 3201 
Q 5691 2819 5691 2113 
L 5691 0 
L 5113 0 
L 5113 2094 
Q 5113 2597 4934 2840 
Q 4756 3084 4391 3084 
Q 3944 3084 3684 2787 
Q 3425 2491 3425 1978 
L 3425 0 
L 2847 0 
L 2847 2094 
Q 2847 2600 2669 2842 
Q 2491 3084 2119 3084 
Q 1678 3084 1418 2786 
Q 1159 2488 1159 1978 
L 1159 0 
L 581 0 
L 581 3500 
L 1159 3500 
L 1159 2956 
Q 1356 3278 1631 3431 
Q 1906 3584 2284 3584 
Q 2666 3584 2933 3390 
Q 3200 3197 3328 2828 
z
" transform="scale(0.015625)"/>
      </defs>
      <use xlink:href="#DejaVuSans-77"/>
      <use xlink:href="#DejaVuSans-66" transform="translate(81.787109 0)"/>
      <use xlink:href="#DejaVuSans-6d" transform="translate(116.992188 0)"/>
     </g>
    </g>
    <g id="line2d_19">
     <path d="M 286.125 34.976562 
L 286.125 34.976562 
L 296.125 34.976562 
L 296.125 34.976562 
L 306.125 34.976562 
" style="fill: none; stroke: #ff7f0e; stroke-width: 1.5; stroke-linecap: square"/>
    </g>
    <g id="text_19">
     <!-- ground_truth -->
     <g transform="translate(314.125 38.476562) scale(0.1 -0.1)">
      <defs>
       <path id="DejaVuSans-72" d="M 2631 2963 
Q 2534 3019 2420 3045 
Q 2306 3072 2169 3072 
Q 1681 3072 1420 2755 
Q 1159 2438 1159 1844 
L 1159 0 
L 581 0 
L 581 3500 
L 1159 3500 
L 1159 2956 
Q 1341 3275 1631 3429 
Q 1922 3584 2338 3584 
Q 2397 3584 2469 3576 
Q 2541 3569 2628 3553 
L 2631 2963 
z
" transform="scale(0.015625)"/>
       <path id="DejaVuSans-64" d="M 2906 2969 
L 2906 4863 
L 3481 4863 
L 3481 0 
L 2906 0 
L 2906 525 
Q 2725 213 2448 61 
Q 2172 -91 1784 -91 
Q 1150 -91 751 415 
Q 353 922 353 1747 
Q 353 2572 751 3078 
Q 1150 3584 1784 3584 
Q 2172 3584 2448 3432 
Q 2725 3281 2906 2969 
z
M 947 1747 
Q 947 1113 1208 752 
Q 1469 391 1925 391 
Q 2381 391 2643 752 
Q 2906 1113 2906 1747 
Q 2906 2381 2643 2742 
Q 2381 3103 1925 3103 
Q 1469 3103 1208 2742 
Q 947 2381 947 1747 
z
" transform="scale(0.015625)"/>
       <path id="DejaVuSans-5f" d="M 3263 -1063 
L 3263 -1509 
L -63 -1509 
L -63 -1063 
L 3263 -1063 
z
" transform="scale(0.015625)"/>
      </defs>
      <use xlink:href="#DejaVuSans-67"/>
      <use xlink:href="#DejaVuSans-72" transform="translate(63.476562 0)"/>
      <use xlink:href="#DejaVuSans-6f" transform="translate(102.339844 0)"/>
      <use xlink:href="#DejaVuSans-75" transform="translate(163.521484 0)"/>
      <use xlink:href="#DejaVuSans-6e" transform="translate(226.900391 0)"/>
      <use xlink:href="#DejaVuSans-64" transform="translate(290.279297 0)"/>
      <use xlink:href="#DejaVuSans-5f" transform="translate(353.755859 0)"/>
      <use xlink:href="#DejaVuSans-74" transform="translate(403.755859 0)"/>
      <use xlink:href="#DejaVuSans-72" transform="translate(442.964844 0)"/>
      <use xlink:href="#DejaVuSans-75" transform="translate(484.078125 0)"/>
      <use xlink:href="#DejaVuSans-74" transform="translate(547.457031 0)"/>
      <use xlink:href="#DejaVuSans-68" transform="translate(586.666016 0)"/>
     </g>
    </g>
   </g>
  </g>
 </g>
 <defs>
  <clipPath id="pb76d0bf4a5">
   <rect x="53.328125" y="7.2" width="334.8" height="221.76"/>
  </clipPath>
 </defs>
</svg>
