<?xml version="1.0" encoding="UTF-8" standalone="no"?>
<!DOCTYPE svg PUBLIC "-//W3C//DTD SVG 1.1//EN"
 "http://www.w3.org/Graphics/SVG/1.1/DTD/svg11.dtd">
<!-- Generated by graphviz version 2.43.0 (0)
 -->
<!-- Title: %3 Pages: 1 -->
<svg width="764pt" height="169pt"
 viewBox="0.00 0.00 763.50 169.00" xmlns="http://www.w3.org/2000/svg" xmlns:xlink="http://www.w3.org/1999/xlink">
<g id="graph0" class="graph" transform="scale(1 1) rotate(0) translate(4 165)">
<title>%3</title>
<polygon fill="white" stroke="transparent" points="-4,4 -4,-165 759.5,-165 759.5,4 -4,4"/>
<!-- DetectorLtotal[SampleRun] -->
<g id="node1" class="node">
<title>DetectorLtotal[SampleRun]</title>
<polygon fill="none" stroke="black" points="213,-97 0,-97 0,-74 213,-74 213,-97"/>
<text text-anchor="middle" x="106.5" y="-81.8" font-family="Times,serif" font-size="14.00">DetectorLtotal[SampleRun]</text>
</g>
<!-- TofDetector[SampleRun] -->
<g id="node4" class="node">
<title>TofDetector[SampleRun]</title>
<polygon fill="none" stroke="black" points="479.5,-33 283.5,-33 283.5,0 479.5,0 479.5,-33"/>
<text text-anchor="start" x="293" y="-18.8" font-family="Times,serif" font-size="14.00">TofDetector[SampleRun]</text>
<text text-anchor="start" x="291.5" y="-7.2" font-family="Times,serif" font-size="11.00">via:</text>
<text text-anchor="start" x="312.5" y="-7.2" font-family="Times,serif" font-style="italic" font-size="11.00">detector_time_of_flight_data</text>
</g>
<!-- DetectorLtotal[SampleRun]&#45;&gt;TofDetector[SampleRun] -->
<g id="edge3" class="edge">
<title>DetectorLtotal[SampleRun]&#45;&gt;TofDetector[SampleRun]</title>
<path fill="none" stroke="black" d="M149.77,-73.96C192.1,-63.64 257.38,-47.74 307.88,-35.44"/>
<polygon fill="black" stroke="black" points="308.89,-38.79 317.78,-33.03 307.23,-31.99 308.89,-38.79"/>
</g>
<!-- PulseStrideOffset -->
<g id="node2" class="node">
<title>PulseStrideOffset</title>
<polygon fill="none" stroke="black" points="363,-97 220,-97 220,-74 363,-74 363,-97"/>
<text text-anchor="middle" x="291.5" y="-81.8" font-family="Times,serif" font-size="14.00">PulseStrideOffset</text>
</g>
<!-- PulseStrideOffset&#45;&gt;TofDetector[SampleRun] -->
<g id="edge4" class="edge">
<title>PulseStrideOffset&#45;&gt;TofDetector[SampleRun]</title>
<path fill="none" stroke="black" d="M305.96,-73.74C318.37,-64.5 336.65,-50.89 352.11,-39.38"/>
<polygon fill="black" stroke="black" points="354.43,-42.01 360.36,-33.23 350.25,-36.4 354.43,-42.01"/>
</g>
<!-- RawDetector[SampleRun] -->
<g id="node3" class="node">
<title>RawDetector[SampleRun]</title>
<polygon fill="none" stroke="black" points="572.5,-97 370.5,-97 370.5,-74 572.5,-74 572.5,-97"/>
<text text-anchor="middle" x="471.5" y="-81.8" font-family="Times,serif" font-size="14.00">RawDetector[SampleRun]</text>
</g>
<!-- RawDetector[SampleRun]&#45;&gt;TofDetector[SampleRun] -->
<g id="edge1" class="edge">
<title>RawDetector[SampleRun]&#45;&gt;TofDetector[SampleRun]</title>
<path fill="none" stroke="black" d="M457.04,-73.74C444.63,-64.5 426.35,-50.89 410.89,-39.38"/>
<polygon fill="black" stroke="black" points="412.75,-36.4 402.64,-33.23 408.57,-42.01 412.75,-36.4"/>
</g>
<!-- TofLookupTable -->
<g id="node5" class="node">
<title>TofLookupTable</title>
<polygon fill="none" stroke="black" points="737.5,-102 579.5,-102 579.5,-69 737.5,-69 737.5,-102"/>
<text text-anchor="start" x="602.5" y="-87.8" font-family="Times,serif" font-size="14.00">TofLookupTable</text>
<text text-anchor="start" x="587.5" y="-76.2" font-family="Times,serif" font-size="11.00">via:</text>
<text text-anchor="start" x="608.5" y="-76.2" font-family="Times,serif" font-style="italic" font-size="11.00">load_tof_lookup_table</text>
</g>
<!-- TofLookupTable&#45;&gt;TofDetector[SampleRun] -->
<g id="edge2" class="edge">
<title>TofLookupTable&#45;&gt;TofDetector[SampleRun]</title>
<path fill="none" stroke="black" d="M594.25,-68.96C552.89,-58.95 498.97,-45.91 455.77,-35.46"/>
<polygon fill="black" stroke="black" points="456.42,-32.02 445.88,-33.07 454.77,-38.82 456.42,-32.02"/>
</g>
<!-- TofLookupTableFilename -->
<g id="node6" class="node">
<title>TofLookupTableFilename</title>
<polygon fill="none" stroke="red" stroke-dasharray="5,2" points="755.5,-161 561.5,-161 561.5,-138 755.5,-138 755.5,-161"/>
<text text-anchor="middle" x="658.5" y="-145.8" font-family="Times,serif" font-size="14.00" fill="red">TofLookupTableFilename</text>
</g>
<!-- TofLookupTableFilename&#45;&gt;TofLookupTable -->
<g id="edge5" class="edge">
<title>TofLookupTableFilename&#45;&gt;TofLookupTable</title>
<path fill="none" stroke="black" d="M658.5,-137.98C658.5,-130.93 658.5,-121.32 658.5,-112.31"/>
<polygon fill="black" stroke="black" points="662,-112.2 658.5,-102.2 655,-112.2 662,-112.2"/>
</g>
</g>
</svg>
