<?xml version="1.0" encoding="utf-8" standalone="no"?>
<!DOCTYPE svg PUBLIC "-//W3C//DTD SVG 1.1//EN"
  "http://www.w3.org/Graphics/SVG/1.1/DTD/svg11.dtd">
<svg xmlns:xlink="http://www.w3.org/1999/xlink" width="401.690625pt" height="266.51625pt" viewBox="0 0 401.690625 266.51625" xmlns="http://www.w3.org/2000/svg" version="1.1">
 <metadata>
  <rdf:RDF xmlns:dc="http://purl.org/dc/elements/1.1/" xmlns:cc="http://creativecommons.org/ns#" xmlns:rdf="http://www.w3.org/1999/02/22-rdf-syntax-ns#">
   <cc:Work>
    <dc:type rdf:resource="http://purl.org/dc/dcmitype/StillImage"/>
    <dc:date>2025-03-02T06:37:12.338590</dc:date>
    <dc:format>image/svg+xml</dc:format>
    <dc:creator>
     <cc:Agent>
      <dc:title>Matplotlib v3.10.0, https://matplotlib.org/</dc:title>
     </cc:Agent>
    </dc:creator>
   </cc:Work>
  </rdf:RDF>
 </metadata>
 <defs>
  <style type="text/css">*{stroke-linejoin: round; stroke-linecap: butt}</style>
 </defs>
 <g id="figure_1">
  <g id="patch_1">
   <path d="M 0 266.51625 
L 401.690625 266.51625 
L 401.690625 0 
L 0 0 
z
" style="fill: #ffffff"/>
  </g>
  <g id="axes_1">
   <g id="patch_2">
    <path d="M 59.690625 228.96 
L 394.490625 228.96 
L 394.490625 7.2 
L 59.690625 7.2 
z
" style="fill: #ffffff"/>
   </g>
   <g id="matplotlib.axis_1">
    <g id="xtick_1">
     <g id="line2d_1">
      <defs>
       <path id="m39eefdb6c0" d="M 0 0 
L 0 3.5 
" style="stroke: #000000; stroke-width: 0.8"/>
      </defs>
      <g>
       <use xlink:href="#m39eefdb6c0" x="80.708449" y="228.96" style="stroke: #000000; stroke-width: 0.8"/>
      </g>
     </g>
     <g id="text_1">
      <!-- 20000 -->
      <g transform="translate(64.802199 243.558437) scale(0.1 -0.1)">
       <defs>
        <path id="DejaVuSans-32" d="M 1228 531 
L 3431 531 
L 3431 0 
L 469 0 
L 469 531 
Q 828 903 1448 1529 
Q 2069 2156 2228 2338 
Q 2531 2678 2651 2914 
Q 2772 3150 2772 3378 
Q 2772 3750 2511 3984 
Q 2250 4219 1831 4219 
Q 1534 4219 1204 4116 
Q 875 4013 500 3803 
L 500 4441 
Q 881 4594 1212 4672 
Q 1544 4750 1819 4750 
Q 2544 4750 2975 4387 
Q 3406 4025 3406 3419 
Q 3406 3131 3298 2873 
Q 3191 2616 2906 2266 
Q 2828 2175 2409 1742 
Q 1991 1309 1228 531 
z
" transform="scale(0.015625)"/>
        <path id="DejaVuSans-30" d="M 2034 4250 
Q 1547 4250 1301 3770 
Q 1056 3291 1056 2328 
Q 1056 1369 1301 889 
Q 1547 409 2034 409 
Q 2525 409 2770 889 
Q 3016 1369 3016 2328 
Q 3016 3291 2770 3770 
Q 2525 4250 2034 4250 
z
M 2034 4750 
Q 2819 4750 3233 4129 
Q 3647 3509 3647 2328 
Q 3647 1150 3233 529 
Q 2819 -91 2034 -91 
Q 1250 -91 836 529 
Q 422 1150 422 2328 
Q 422 3509 836 4129 
Q 1250 4750 2034 4750 
z
" transform="scale(0.015625)"/>
       </defs>
       <use xlink:href="#DejaVuSans-32"/>
       <use xlink:href="#DejaVuSans-30" transform="translate(63.623047 0)"/>
       <use xlink:href="#DejaVuSans-30" transform="translate(127.246094 0)"/>
       <use xlink:href="#DejaVuSans-30" transform="translate(190.869141 0)"/>
       <use xlink:href="#DejaVuSans-30" transform="translate(254.492188 0)"/>
      </g>
     </g>
    </g>
    <g id="xtick_2">
     <g id="line2d_2">
      <g>
       <use xlink:href="#m39eefdb6c0" x="121.425992" y="228.96" style="stroke: #000000; stroke-width: 0.8"/>
      </g>
     </g>
     <g id="text_2">
      <!-- 40000 -->
      <g transform="translate(105.519742 243.558437) scale(0.1 -0.1)">
       <defs>
        <path id="DejaVuSans-34" d="M 2419 4116 
L 825 1625 
L 2419 1625 
L 2419 4116 
z
M 2253 4666 
L 3047 4666 
L 3047 1625 
L 3713 1625 
L 3713 1100 
L 3047 1100 
L 3047 0 
L 2419 0 
L 2419 1100 
L 313 1100 
L 313 1709 
L 2253 4666 
z
" transform="scale(0.015625)"/>
       </defs>
       <use xlink:href="#DejaVuSans-34"/>
       <use xlink:href="#DejaVuSans-30" transform="translate(63.623047 0)"/>
       <use xlink:href="#DejaVuSans-30" transform="translate(127.246094 0)"/>
       <use xlink:href="#DejaVuSans-30" transform="translate(190.869141 0)"/>
       <use xlink:href="#DejaVuSans-30" transform="translate(254.492188 0)"/>
      </g>
     </g>
    </g>
    <g id="xtick_3">
     <g id="line2d_3">
      <g>
       <use xlink:href="#m39eefdb6c0" x="162.143535" y="228.96" style="stroke: #000000; stroke-width: 0.8"/>
      </g>
     </g>
     <g id="text_3">
      <!-- 60000 -->
      <g transform="translate(146.237285 243.558437) scale(0.1 -0.1)">
       <defs>
        <path id="DejaVuSans-36" d="M 2113 2584 
Q 1688 2584 1439 2293 
Q 1191 2003 1191 1497 
Q 1191 994 1439 701 
Q 1688 409 2113 409 
Q 2538 409 2786 701 
Q 3034 994 3034 1497 
Q 3034 2003 2786 2293 
Q 2538 2584 2113 2584 
z
M 3366 4563 
L 3366 3988 
Q 3128 4100 2886 4159 
Q 2644 4219 2406 4219 
Q 1781 4219 1451 3797 
Q 1122 3375 1075 2522 
Q 1259 2794 1537 2939 
Q 1816 3084 2150 3084 
Q 2853 3084 3261 2657 
Q 3669 2231 3669 1497 
Q 3669 778 3244 343 
Q 2819 -91 2113 -91 
Q 1303 -91 875 529 
Q 447 1150 447 2328 
Q 447 3434 972 4092 
Q 1497 4750 2381 4750 
Q 2619 4750 2861 4703 
Q 3103 4656 3366 4563 
z
" transform="scale(0.015625)"/>
       </defs>
       <use xlink:href="#DejaVuSans-36"/>
       <use xlink:href="#DejaVuSans-30" transform="translate(63.623047 0)"/>
       <use xlink:href="#DejaVuSans-30" transform="translate(127.246094 0)"/>
       <use xlink:href="#DejaVuSans-30" transform="translate(190.869141 0)"/>
       <use xlink:href="#DejaVuSans-30" transform="translate(254.492188 0)"/>
      </g>
     </g>
    </g>
    <g id="xtick_4">
     <g id="line2d_4">
      <g>
       <use xlink:href="#m39eefdb6c0" x="202.861079" y="228.96" style="stroke: #000000; stroke-width: 0.8"/>
      </g>
     </g>
     <g id="text_4">
      <!-- 80000 -->
      <g transform="translate(186.954829 243.558437) scale(0.1 -0.1)">
       <defs>
        <path id="DejaVuSans-38" d="M 2034 2216 
Q 1584 2216 1326 1975 
Q 1069 1734 1069 1313 
Q 1069 891 1326 650 
Q 1584 409 2034 409 
Q 2484 409 2743 651 
Q 3003 894 3003 1313 
Q 3003 1734 2745 1975 
Q 2488 2216 2034 2216 
z
M 1403 2484 
Q 997 2584 770 2862 
Q 544 3141 544 3541 
Q 544 4100 942 4425 
Q 1341 4750 2034 4750 
Q 2731 4750 3128 4425 
Q 3525 4100 3525 3541 
Q 3525 3141 3298 2862 
Q 3072 2584 2669 2484 
Q 3125 2378 3379 2068 
Q 3634 1759 3634 1313 
Q 3634 634 3220 271 
Q 2806 -91 2034 -91 
Q 1263 -91 848 271 
Q 434 634 434 1313 
Q 434 1759 690 2068 
Q 947 2378 1403 2484 
z
M 1172 3481 
Q 1172 3119 1398 2916 
Q 1625 2713 2034 2713 
Q 2441 2713 2670 2916 
Q 2900 3119 2900 3481 
Q 2900 3844 2670 4047 
Q 2441 4250 2034 4250 
Q 1625 4250 1398 4047 
Q 1172 3844 1172 3481 
z
" transform="scale(0.015625)"/>
       </defs>
       <use xlink:href="#DejaVuSans-38"/>
       <use xlink:href="#DejaVuSans-30" transform="translate(63.623047 0)"/>
       <use xlink:href="#DejaVuSans-30" transform="translate(127.246094 0)"/>
       <use xlink:href="#DejaVuSans-30" transform="translate(190.869141 0)"/>
       <use xlink:href="#DejaVuSans-30" transform="translate(254.492188 0)"/>
      </g>
     </g>
    </g>
    <g id="xtick_5">
     <g id="line2d_5">
      <g>
       <use xlink:href="#m39eefdb6c0" x="243.578622" y="228.96" style="stroke: #000000; stroke-width: 0.8"/>
      </g>
     </g>
     <g id="text_5">
      <!-- 100000 -->
      <g transform="translate(224.491122 243.558437) scale(0.1 -0.1)">
       <defs>
        <path id="DejaVuSans-31" d="M 794 531 
L 1825 531 
L 1825 4091 
L 703 3866 
L 703 4441 
L 1819 4666 
L 2450 4666 
L 2450 531 
L 3481 531 
L 3481 0 
L 794 0 
L 794 531 
z
" transform="scale(0.015625)"/>
       </defs>
       <use xlink:href="#DejaVuSans-31"/>
       <use xlink:href="#DejaVuSans-30" transform="translate(63.623047 0)"/>
       <use xlink:href="#DejaVuSans-30" transform="translate(127.246094 0)"/>
       <use xlink:href="#DejaVuSans-30" transform="translate(190.869141 0)"/>
       <use xlink:href="#DejaVuSans-30" transform="translate(254.492188 0)"/>
       <use xlink:href="#DejaVuSans-30" transform="translate(318.115234 0)"/>
      </g>
     </g>
    </g>
    <g id="xtick_6">
     <g id="line2d_6">
      <g>
       <use xlink:href="#m39eefdb6c0" x="284.296165" y="228.96" style="stroke: #000000; stroke-width: 0.8"/>
      </g>
     </g>
     <g id="text_6">
      <!-- 120000 -->
      <g transform="translate(265.208665 243.558437) scale(0.1 -0.1)">
       <use xlink:href="#DejaVuSans-31"/>
       <use xlink:href="#DejaVuSans-32" transform="translate(63.623047 0)"/>
       <use xlink:href="#DejaVuSans-30" transform="translate(127.246094 0)"/>
       <use xlink:href="#DejaVuSans-30" transform="translate(190.869141 0)"/>
       <use xlink:href="#DejaVuSans-30" transform="translate(254.492188 0)"/>
       <use xlink:href="#DejaVuSans-30" transform="translate(318.115234 0)"/>
      </g>
     </g>
    </g>
    <g id="xtick_7">
     <g id="line2d_7">
      <g>
       <use xlink:href="#m39eefdb6c0" x="325.013709" y="228.96" style="stroke: #000000; stroke-width: 0.8"/>
      </g>
     </g>
     <g id="text_7">
      <!-- 140000 -->
      <g transform="translate(305.926209 243.558437) scale(0.1 -0.1)">
       <use xlink:href="#DejaVuSans-31"/>
       <use xlink:href="#DejaVuSans-34" transform="translate(63.623047 0)"/>
       <use xlink:href="#DejaVuSans-30" transform="translate(127.246094 0)"/>
       <use xlink:href="#DejaVuSans-30" transform="translate(190.869141 0)"/>
       <use xlink:href="#DejaVuSans-30" transform="translate(254.492188 0)"/>
       <use xlink:href="#DejaVuSans-30" transform="translate(318.115234 0)"/>
      </g>
     </g>
    </g>
    <g id="xtick_8">
     <g id="line2d_8">
      <g>
       <use xlink:href="#m39eefdb6c0" x="365.731252" y="228.96" style="stroke: #000000; stroke-width: 0.8"/>
      </g>
     </g>
     <g id="text_8">
      <!-- 160000 -->
      <g transform="translate(346.643752 243.558437) scale(0.1 -0.1)">
       <use xlink:href="#DejaVuSans-31"/>
       <use xlink:href="#DejaVuSans-36" transform="translate(63.623047 0)"/>
       <use xlink:href="#DejaVuSans-30" transform="translate(127.246094 0)"/>
       <use xlink:href="#DejaVuSans-30" transform="translate(190.869141 0)"/>
       <use xlink:href="#DejaVuSans-30" transform="translate(254.492188 0)"/>
       <use xlink:href="#DejaVuSans-30" transform="translate(318.115234 0)"/>
      </g>
     </g>
    </g>
    <g id="text_9">
     <!-- tof [µs] -->
     <g transform="translate(209.034375 257.236562) scale(0.1 -0.1)">
      <defs>
       <path id="DejaVuSans-74" d="M 1172 4494 
L 1172 3500 
L 2356 3500 
L 2356 3053 
L 1172 3053 
L 1172 1153 
Q 1172 725 1289 603 
Q 1406 481 1766 481 
L 2356 481 
L 2356 0 
L 1766 0 
Q 1100 0 847 248 
Q 594 497 594 1153 
L 594 3053 
L 172 3053 
L 172 3500 
L 594 3500 
L 594 4494 
L 1172 4494 
z
" transform="scale(0.015625)"/>
       <path id="DejaVuSans-6f" d="M 1959 3097 
Q 1497 3097 1228 2736 
Q 959 2375 959 1747 
Q 959 1119 1226 758 
Q 1494 397 1959 397 
Q 2419 397 2687 759 
Q 2956 1122 2956 1747 
Q 2956 2369 2687 2733 
Q 2419 3097 1959 3097 
z
M 1959 3584 
Q 2709 3584 3137 3096 
Q 3566 2609 3566 1747 
Q 3566 888 3137 398 
Q 2709 -91 1959 -91 
Q 1206 -91 779 398 
Q 353 888 353 1747 
Q 353 2609 779 3096 
Q 1206 3584 1959 3584 
z
" transform="scale(0.015625)"/>
       <path id="DejaVuSans-66" d="M 2375 4863 
L 2375 4384 
L 1825 4384 
Q 1516 4384 1395 4259 
Q 1275 4134 1275 3809 
L 1275 3500 
L 2222 3500 
L 2222 3053 
L 1275 3053 
L 1275 0 
L 697 0 
L 697 3053 
L 147 3053 
L 147 3500 
L 697 3500 
L 697 3744 
Q 697 4328 969 4595 
Q 1241 4863 1831 4863 
L 2375 4863 
z
" transform="scale(0.015625)"/>
       <path id="DejaVuSans-20" transform="scale(0.015625)"/>
       <path id="DejaVuSans-5b" d="M 550 4863 
L 1875 4863 
L 1875 4416 
L 1125 4416 
L 1125 -397 
L 1875 -397 
L 1875 -844 
L 550 -844 
L 550 4863 
z
" transform="scale(0.015625)"/>
       <path id="DejaVuSans-b5" d="M 544 -1331 
L 544 3500 
L 1119 3500 
L 1119 1325 
Q 1119 872 1334 640 
Q 1550 409 1972 409 
Q 2434 409 2667 671 
Q 2900 934 2900 1459 
L 2900 3500 
L 3475 3500 
L 3475 806 
Q 3475 619 3529 530 
Q 3584 441 3700 441 
Q 3728 441 3778 458 
Q 3828 475 3916 513 
L 3916 50 
Q 3788 -22 3673 -56 
Q 3559 -91 3450 -91 
Q 3234 -91 3106 31 
Q 2978 153 2931 403 
Q 2775 156 2548 32 
Q 2322 -91 2016 -91 
Q 1697 -91 1473 31 
Q 1250 153 1119 397 
L 1119 -1331 
L 544 -1331 
z
" transform="scale(0.015625)"/>
       <path id="DejaVuSans-73" d="M 2834 3397 
L 2834 2853 
Q 2591 2978 2328 3040 
Q 2066 3103 1784 3103 
Q 1356 3103 1142 2972 
Q 928 2841 928 2578 
Q 928 2378 1081 2264 
Q 1234 2150 1697 2047 
L 1894 2003 
Q 2506 1872 2764 1633 
Q 3022 1394 3022 966 
Q 3022 478 2636 193 
Q 2250 -91 1575 -91 
Q 1294 -91 989 -36 
Q 684 19 347 128 
L 347 722 
Q 666 556 975 473 
Q 1284 391 1588 391 
Q 1994 391 2212 530 
Q 2431 669 2431 922 
Q 2431 1156 2273 1281 
Q 2116 1406 1581 1522 
L 1381 1569 
Q 847 1681 609 1914 
Q 372 2147 372 2553 
Q 372 3047 722 3315 
Q 1072 3584 1716 3584 
Q 2034 3584 2315 3537 
Q 2597 3491 2834 3397 
z
" transform="scale(0.015625)"/>
       <path id="DejaVuSans-5d" d="M 1947 4863 
L 1947 -844 
L 622 -844 
L 622 -397 
L 1369 -397 
L 1369 4416 
L 622 4416 
L 622 4863 
L 1947 4863 
z
" transform="scale(0.015625)"/>
      </defs>
      <use xlink:href="#DejaVuSans-74"/>
      <use xlink:href="#DejaVuSans-6f" transform="translate(39.208984 0)"/>
      <use xlink:href="#DejaVuSans-66" transform="translate(100.390625 0)"/>
      <use xlink:href="#DejaVuSans-20" transform="translate(135.595703 0)"/>
      <use xlink:href="#DejaVuSans-5b" transform="translate(167.382812 0)"/>
      <use xlink:href="#DejaVuSans-b5" transform="translate(206.396484 0)"/>
      <use xlink:href="#DejaVuSans-73" transform="translate(270.019531 0)"/>
      <use xlink:href="#DejaVuSans-5d" transform="translate(322.119141 0)"/>
     </g>
    </g>
   </g>
   <g id="matplotlib.axis_2">
    <g id="ytick_1">
     <g id="line2d_9">
      <defs>
       <path id="m60c05cc42e" d="M 0 0 
L -3.5 0 
" style="stroke: #000000; stroke-width: 0.8"/>
      </defs>
      <g>
       <use xlink:href="#m60c05cc42e" x="59.690625" y="218.88" style="stroke: #000000; stroke-width: 0.8"/>
      </g>
     </g>
     <g id="text_10">
      <!-- 0 -->
      <g transform="translate(46.328125 222.679219) scale(0.1 -0.1)">
       <use xlink:href="#DejaVuSans-30"/>
      </g>
     </g>
    </g>
    <g id="ytick_2">
     <g id="line2d_10">
      <g>
       <use xlink:href="#m60c05cc42e" x="59.690625" y="185.828111" style="stroke: #000000; stroke-width: 0.8"/>
      </g>
     </g>
     <g id="text_11">
      <!-- 2000 -->
      <g transform="translate(27.240625 189.627329) scale(0.1 -0.1)">
       <use xlink:href="#DejaVuSans-32"/>
       <use xlink:href="#DejaVuSans-30" transform="translate(63.623047 0)"/>
       <use xlink:href="#DejaVuSans-30" transform="translate(127.246094 0)"/>
       <use xlink:href="#DejaVuSans-30" transform="translate(190.869141 0)"/>
      </g>
     </g>
    </g>
    <g id="ytick_3">
     <g id="line2d_11">
      <g>
       <use xlink:href="#m60c05cc42e" x="59.690625" y="152.776221" style="stroke: #000000; stroke-width: 0.8"/>
      </g>
     </g>
     <g id="text_12">
      <!-- 4000 -->
      <g transform="translate(27.240625 156.57544) scale(0.1 -0.1)">
       <use xlink:href="#DejaVuSans-34"/>
       <use xlink:href="#DejaVuSans-30" transform="translate(63.623047 0)"/>
       <use xlink:href="#DejaVuSans-30" transform="translate(127.246094 0)"/>
       <use xlink:href="#DejaVuSans-30" transform="translate(190.869141 0)"/>
      </g>
     </g>
    </g>
    <g id="ytick_4">
     <g id="line2d_12">
      <g>
       <use xlink:href="#m60c05cc42e" x="59.690625" y="119.724332" style="stroke: #000000; stroke-width: 0.8"/>
      </g>
     </g>
     <g id="text_13">
      <!-- 6000 -->
      <g transform="translate(27.240625 123.52355) scale(0.1 -0.1)">
       <use xlink:href="#DejaVuSans-36"/>
       <use xlink:href="#DejaVuSans-30" transform="translate(63.623047 0)"/>
       <use xlink:href="#DejaVuSans-30" transform="translate(127.246094 0)"/>
       <use xlink:href="#DejaVuSans-30" transform="translate(190.869141 0)"/>
      </g>
     </g>
    </g>
    <g id="ytick_5">
     <g id="line2d_13">
      <g>
       <use xlink:href="#m60c05cc42e" x="59.690625" y="86.672442" style="stroke: #000000; stroke-width: 0.8"/>
      </g>
     </g>
     <g id="text_14">
      <!-- 8000 -->
      <g transform="translate(27.240625 90.471661) scale(0.1 -0.1)">
       <use xlink:href="#DejaVuSans-38"/>
       <use xlink:href="#DejaVuSans-30" transform="translate(63.623047 0)"/>
       <use xlink:href="#DejaVuSans-30" transform="translate(127.246094 0)"/>
       <use xlink:href="#DejaVuSans-30" transform="translate(190.869141 0)"/>
      </g>
     </g>
    </g>
    <g id="ytick_6">
     <g id="line2d_14">
      <g>
       <use xlink:href="#m60c05cc42e" x="59.690625" y="53.620553" style="stroke: #000000; stroke-width: 0.8"/>
      </g>
     </g>
     <g id="text_15">
      <!-- 10000 -->
      <g transform="translate(20.878125 57.419771) scale(0.1 -0.1)">
       <use xlink:href="#DejaVuSans-31"/>
       <use xlink:href="#DejaVuSans-30" transform="translate(63.623047 0)"/>
       <use xlink:href="#DejaVuSans-30" transform="translate(127.246094 0)"/>
       <use xlink:href="#DejaVuSans-30" transform="translate(190.869141 0)"/>
       <use xlink:href="#DejaVuSans-30" transform="translate(254.492188 0)"/>
      </g>
     </g>
    </g>
    <g id="ytick_7">
     <g id="line2d_15">
      <g>
       <use xlink:href="#m60c05cc42e" x="59.690625" y="20.568663" style="stroke: #000000; stroke-width: 0.8"/>
      </g>
     </g>
     <g id="text_16">
      <!-- 12000 -->
      <g transform="translate(20.878125 24.367882) scale(0.1 -0.1)">
       <use xlink:href="#DejaVuSans-31"/>
       <use xlink:href="#DejaVuSans-32" transform="translate(63.623047 0)"/>
       <use xlink:href="#DejaVuSans-30" transform="translate(127.246094 0)"/>
       <use xlink:href="#DejaVuSans-30" transform="translate(190.869141 0)"/>
       <use xlink:href="#DejaVuSans-30" transform="translate(254.492188 0)"/>
      </g>
     </g>
    </g>
    <g id="text_17">
     <!-- [counts] -->
     <g transform="translate(14.798438 138.6925) rotate(-90) scale(0.1 -0.1)">
      <defs>
       <path id="DejaVuSans-63" d="M 3122 3366 
L 3122 2828 
Q 2878 2963 2633 3030 
Q 2388 3097 2138 3097 
Q 1578 3097 1268 2742 
Q 959 2388 959 1747 
Q 959 1106 1268 751 
Q 1578 397 2138 397 
Q 2388 397 2633 464 
Q 2878 531 3122 666 
L 3122 134 
Q 2881 22 2623 -34 
Q 2366 -91 2075 -91 
Q 1284 -91 818 406 
Q 353 903 353 1747 
Q 353 2603 823 3093 
Q 1294 3584 2113 3584 
Q 2378 3584 2631 3529 
Q 2884 3475 3122 3366 
z
" transform="scale(0.015625)"/>
       <path id="DejaVuSans-75" d="M 544 1381 
L 544 3500 
L 1119 3500 
L 1119 1403 
Q 1119 906 1312 657 
Q 1506 409 1894 409 
Q 2359 409 2629 706 
Q 2900 1003 2900 1516 
L 2900 3500 
L 3475 3500 
L 3475 0 
L 2900 0 
L 2900 538 
Q 2691 219 2414 64 
Q 2138 -91 1772 -91 
Q 1169 -91 856 284 
Q 544 659 544 1381 
z
M 1991 3584 
L 1991 3584 
z
" transform="scale(0.015625)"/>
       <path id="DejaVuSans-6e" d="M 3513 2113 
L 3513 0 
L 2938 0 
L 2938 2094 
Q 2938 2591 2744 2837 
Q 2550 3084 2163 3084 
Q 1697 3084 1428 2787 
Q 1159 2491 1159 1978 
L 1159 0 
L 581 0 
L 581 3500 
L 1159 3500 
L 1159 2956 
Q 1366 3272 1645 3428 
Q 1925 3584 2291 3584 
Q 2894 3584 3203 3211 
Q 3513 2838 3513 2113 
z
" transform="scale(0.015625)"/>
      </defs>
      <use xlink:href="#DejaVuSans-5b"/>
      <use xlink:href="#DejaVuSans-63" transform="translate(39.013672 0)"/>
      <use xlink:href="#DejaVuSans-6f" transform="translate(93.994141 0)"/>
      <use xlink:href="#DejaVuSans-75" transform="translate(155.175781 0)"/>
      <use xlink:href="#DejaVuSans-6e" transform="translate(218.554688 0)"/>
      <use xlink:href="#DejaVuSans-74" transform="translate(281.933594 0)"/>
      <use xlink:href="#DejaVuSans-73" transform="translate(321.142578 0)"/>
      <use xlink:href="#DejaVuSans-5d" transform="translate(373.242188 0)"/>
     </g>
    </g>
   </g>
   <g id="patch_3">
    <path d="M 59.690625 228.96 
L 59.690625 7.2 
" style="fill: none; stroke: #000000; stroke-width: 0.8; stroke-linejoin: miter; stroke-linecap: square"/>
   </g>
   <g id="patch_4">
    <path d="M 394.490625 228.96 
L 394.490625 7.2 
" style="fill: none; stroke: #000000; stroke-width: 0.8; stroke-linejoin: miter; stroke-linecap: square"/>
   </g>
   <g id="patch_5">
    <path d="M 59.690625 228.96 
L 394.490625 228.96 
" style="fill: none; stroke: #000000; stroke-width: 0.8; stroke-linejoin: miter; stroke-linecap: square"/>
   </g>
   <g id="patch_6">
    <path d="M 59.690625 7.2 
L 394.490625 7.2 
" style="fill: none; stroke: #000000; stroke-width: 0.8; stroke-linejoin: miter; stroke-linecap: square"/>
   </g>
   <g id="legend_1">
    <g id="patch_7">
     <path d="M 313.267188 44.55625 
L 387.490625 44.55625 
Q 389.490625 44.55625 389.490625 42.55625 
L 389.490625 14.2 
Q 389.490625 12.2 387.490625 12.2 
L 313.267188 12.2 
Q 311.267188 12.2 311.267188 14.2 
L 311.267188 42.55625 
Q 311.267188 44.55625 313.267188 44.55625 
z
" style="fill: #ffffff; opacity: 0.8; stroke: #cccccc; stroke-linejoin: miter"/>
    </g>
    <g id="line2d_16">
     <path d="M 315.267188 20.298437 
L 315.267188 20.298437 
L 325.267188 20.298437 
L 325.267188 20.298437 
L 335.267188 20.298437 
" style="fill: none; stroke: #1f77b4; stroke-width: 1.5; stroke-linecap: square"/>
    </g>
    <g id="text_18">
     <!-- monitor -->
     <g transform="translate(343.267188 23.798437) scale(0.1 -0.1)">
      <defs>
       <path id="DejaVuSans-6d" d="M 3328 2828 
Q 3544 3216 3844 3400 
Q 4144 3584 4550 3584 
Q 5097 3584 5394 3201 
Q 5691 2819 5691 2113 
L 5691 0 
L 5113 0 
L 5113 2094 
Q 5113 2597 4934 2840 
Q 4756 3084 4391 3084 
Q 3944 3084 3684 2787 
Q 3425 2491 3425 1978 
L 3425 0 
L 2847 0 
L 2847 2094 
Q 2847 2600 2669 2842 
Q 2491 3084 2119 3084 
Q 1678 3084 1418 2786 
Q 1159 2488 1159 1978 
L 1159 0 
L 581 0 
L 581 3500 
L 1159 3500 
L 1159 2956 
Q 1356 3278 1631 3431 
Q 1906 3584 2284 3584 
Q 2666 3584 2933 3390 
Q 3200 3197 3328 2828 
z
" transform="scale(0.015625)"/>
       <path id="DejaVuSans-69" d="M 603 3500 
L 1178 3500 
L 1178 0 
L 603 0 
L 603 3500 
z
M 603 4863 
L 1178 4863 
L 1178 4134 
L 603 4134 
L 603 4863 
z
" transform="scale(0.015625)"/>
       <path id="DejaVuSans-72" d="M 2631 2963 
Q 2534 3019 2420 3045 
Q 2306 3072 2169 3072 
Q 1681 3072 1420 2755 
Q 1159 2438 1159 1844 
L 1159 0 
L 581 0 
L 581 3500 
L 1159 3500 
L 1159 2956 
Q 1341 3275 1631 3429 
Q 1922 3584 2338 3584 
Q 2397 3584 2469 3576 
Q 2541 3569 2628 3553 
L 2631 2963 
z
" transform="scale(0.015625)"/>
      </defs>
      <use xlink:href="#DejaVuSans-6d"/>
      <use xlink:href="#DejaVuSans-6f" transform="translate(97.412109 0)"/>
      <use xlink:href="#DejaVuSans-6e" transform="translate(158.59375 0)"/>
      <use xlink:href="#DejaVuSans-69" transform="translate(221.972656 0)"/>
      <use xlink:href="#DejaVuSans-74" transform="translate(249.755859 0)"/>
      <use xlink:href="#DejaVuSans-6f" transform="translate(288.964844 0)"/>
      <use xlink:href="#DejaVuSans-72" transform="translate(350.146484 0)"/>
     </g>
    </g>
    <g id="line2d_17">
     <path d="M 315.267188 34.976562 
L 315.267188 34.976562 
L 325.267188 34.976562 
L 325.267188 34.976562 
L 335.267188 34.976562 
" style="fill: none; stroke: #ff7f0e; stroke-width: 1.5; stroke-linecap: square"/>
    </g>
    <g id="text_19">
     <!-- detector -->
     <g transform="translate(343.267188 38.476562) scale(0.1 -0.1)">
      <defs>
       <path id="DejaVuSans-64" d="M 2906 2969 
L 2906 4863 
L 3481 4863 
L 3481 0 
L 2906 0 
L 2906 525 
Q 2725 213 2448 61 
Q 2172 -91 1784 -91 
Q 1150 -91 751 415 
Q 353 922 353 1747 
Q 353 2572 751 3078 
Q 1150 3584 1784 3584 
Q 2172 3584 2448 3432 
Q 2725 3281 2906 2969 
z
M 947 1747 
Q 947 1113 1208 752 
Q 1469 391 1925 391 
Q 2381 391 2643 752 
Q 2906 1113 2906 1747 
Q 2906 2381 2643 2742 
Q 2381 3103 1925 3103 
Q 1469 3103 1208 2742 
Q 947 2381 947 1747 
z
" transform="scale(0.015625)"/>
       <path id="DejaVuSans-65" d="M 3597 1894 
L 3597 1613 
L 953 1613 
Q 991 1019 1311 708 
Q 1631 397 2203 397 
Q 2534 397 2845 478 
Q 3156 559 3463 722 
L 3463 178 
Q 3153 47 2828 -22 
Q 2503 -91 2169 -91 
Q 1331 -91 842 396 
Q 353 884 353 1716 
Q 353 2575 817 3079 
Q 1281 3584 2069 3584 
Q 2775 3584 3186 3129 
Q 3597 2675 3597 1894 
z
M 3022 2063 
Q 3016 2534 2758 2815 
Q 2500 3097 2075 3097 
Q 1594 3097 1305 2825 
Q 1016 2553 972 2059 
L 3022 2063 
z
" transform="scale(0.015625)"/>
      </defs>
      <use xlink:href="#DejaVuSans-64"/>
      <use xlink:href="#DejaVuSans-65" transform="translate(63.476562 0)"/>
      <use xlink:href="#DejaVuSans-74" transform="translate(125 0)"/>
      <use xlink:href="#DejaVuSans-65" transform="translate(164.208984 0)"/>
      <use xlink:href="#DejaVuSans-63" transform="translate(225.732422 0)"/>
      <use xlink:href="#DejaVuSans-74" transform="translate(280.712891 0)"/>
      <use xlink:href="#DejaVuSans-6f" transform="translate(319.921875 0)"/>
      <use xlink:href="#DejaVuSans-72" transform="translate(381.103516 0)"/>
     </g>
    </g>
   </g>
   <g id="line2d_18">
    <path d="M 74.908807 218.714741 
L 76.944684 218.764318 
L 76.944684 218.88 
L 77.962623 218.88 
L 77.962623 218.566007 
L 78.980561 218.566007 
L 78.980561 218.681689 
L 81.016438 218.582533 
L 81.016438 218.516429 
L 83.052315 218.466851 
L 83.052315 218.318118 
L 84.070254 218.318118 
L 84.070254 218.119807 
L 85.088193 218.119807 
L 85.088193 218.004125 
L 86.106131 218.004125 
L 86.106131 217.723184 
L 87.12407 217.723184 
L 87.12407 217.376139 
L 88.142008 217.376139 
L 88.142008 217.078672 
L 89.159947 217.078672 
L 89.159947 216.698575 
L 91.195824 216.682049 
L 91.195824 216.252375 
L 92.213763 216.252375 
L 92.213763 215.343448 
L 93.231701 215.343448 
L 93.231701 214.649358 
L 94.24964 214.649358 
L 94.24964 213.442964 
L 95.267578 213.442964 
L 95.267578 212.269622 
L 96.285517 212.269622 
L 96.285517 211.344169 
L 97.303456 211.344169 
L 97.303456 209.691575 
L 98.321394 209.691575 
L 98.321394 207.047424 
L 99.339333 207.047424 
L 99.339333 203.262982 
L 100.357271 203.262982 
L 100.357271 200.86672 
L 101.37521 200.86672 
L 101.37521 195.363581 
L 102.393149 195.363581 
L 102.393149 187.679016 
L 103.411087 187.679016 
L 103.411087 184.919184 
L 104.429026 184.919184 
L 104.429026 176.804945 
L 105.446964 176.804945 
L 105.446964 173.169237 
L 106.464903 173.169237 
L 106.464903 164.427012 
L 107.482841 164.427012 
L 107.482841 157.816634 
L 108.50078 157.816634 
L 108.50078 147.190452 
L 109.518719 147.190452 
L 109.518719 138.332545 
L 110.536657 138.332545 
L 110.536657 134.019274 
L 111.554596 134.019274 
L 111.554596 120.203584 
L 112.572534 120.203584 
L 112.572534 115.758105 
L 113.590473 115.758105 
L 113.590473 103.826373 
L 114.608412 103.826373 
L 114.608412 100.157613 
L 115.62635 100.157613 
L 115.62635 75.550481 
L 116.644289 75.550481 
L 116.644289 71.84867 
L 117.662227 71.84867 
L 117.662227 66.857834 
L 118.680166 66.857834 
L 118.680166 50.480623 
L 119.698104 50.480623 
L 119.698104 45.721151 
L 120.716043 45.721151 
L 120.716043 42.531644 
L 121.733982 42.531644 
L 121.733982 42.845637 
L 122.75192 42.845637 
L 122.75192 32.252506 
L 123.769859 32.252506 
L 123.769859 33.938152 
L 124.787797 33.938152 
L 124.787797 21.345382 
L 125.805736 21.345382 
L 125.805736 26.8981 
L 126.823675 26.8981 
L 126.823675 34.252145 
L 127.841613 34.252145 
L 127.841613 26.170958 
L 128.859552 26.170958 
L 128.859552 26.964204 
L 129.87749 26.964204 
L 129.87749 29.277836 
L 130.895429 29.277836 
L 130.895429 23.047555 
L 131.913367 23.047555 
L 131.913367 27.641767 
L 132.931306 27.641767 
L 132.931306 17.28 
L 133.949245 17.28 
L 133.949245 22.518724 
L 134.967183 22.518724 
L 134.967183 28.831635 
L 135.985122 28.831635 
L 135.985122 24.948038 
L 137.00306 24.948038 
L 137.00306 23.791222 
L 138.020999 23.791222 
L 138.020999 27.59219 
L 139.038938 27.59219 
L 139.038938 22.204732 
L 140.056876 22.204732 
L 140.056876 27.195567 
L 141.074815 27.195567 
L 141.074815 31.723676 
L 142.092753 31.723676 
L 142.092753 25.394239 
L 143.110692 25.394239 
L 143.110692 31.789779 
L 144.12863 31.789779 
L 144.12863 46.448292 
L 145.146569 46.448292 
L 145.146569 43.407519 
L 146.164508 43.407519 
L 146.164508 39.738759 
L 147.182446 39.738759 
L 147.182446 49.356859 
L 148.200385 49.356859 
L 148.200385 58.429602 
L 149.218323 58.429602 
L 149.218323 61.751317 
L 150.236262 61.751317 
L 150.236262 62.84203 
L 151.254201 62.84203 
L 151.254201 68.09728 
L 152.272139 68.09728 
L 152.272139 74.773762 
L 153.290078 74.773762 
L 153.290078 67.667606 
L 154.308016 67.667606 
L 154.308016 79.913331 
L 155.325955 79.913331 
L 155.325955 87.399584 
L 156.343893 87.399584 
L 156.343893 91.150973 
L 157.361832 91.150973 
L 157.361832 82.326119 
L 158.379771 82.326119 
L 158.379771 92.208633 
L 159.397709 92.208633 
L 159.397709 100.53771 
L 160.415648 100.53771 
L 160.415648 97.034209 
L 161.433586 97.034209 
L 161.433586 96.455801 
L 162.451525 96.455801 
L 162.451525 101.958941 
L 163.469464 101.958941 
L 163.469464 111.378729 
L 164.487402 111.378729 
L 164.487402 113.791517 
L 165.505341 113.791517 
L 165.505341 110.734218 
L 166.523279 110.734218 
L 166.523279 115.212749 
L 167.541218 115.212749 
L 167.541218 116.881869 
L 168.559156 116.881869 
L 168.559156 118.170893 
L 169.577095 118.170893 
L 169.577095 120.05485 
L 170.595034 120.05485 
L 170.595034 126.053768 
L 171.612972 126.053768 
L 171.612972 128.218667 
L 172.630911 128.218667 
L 172.630911 128.830127 
L 173.648849 128.830127 
L 173.648849 131.077656 
L 174.666788 131.077656 
L 174.666788 132.102264 
L 175.684727 132.102264 
L 175.684727 132.912035 
L 176.702665 132.912035 
L 176.702665 135.638816 
L 177.720604 135.638816 
L 177.720604 138.84485 
L 178.738542 138.84485 
L 178.738542 142.827602 
L 179.756481 142.827602 
L 179.756481 140.414814 
L 180.774419 140.414814 
L 180.774419 144.761138 
L 181.792358 144.761138 
L 181.792358 149.256195 
L 182.810297 149.256195 
L 182.810297 150.165122 
L 183.828235 150.165122 
L 183.828235 150.495641 
L 184.846174 150.495641 
L 184.846174 150.04944 
L 185.864112 150.04944 
L 185.864112 147.868015 
L 186.882051 147.868015 
L 186.882051 153.073688 
L 187.89999 153.073688 
L 187.89999 156.511085 
L 188.917928 156.511085 
L 188.917928 156.676344 
L 189.935867 156.676344 
L 189.935867 163.352826 
L 190.953805 163.352826 
L 190.953805 157.585271 
L 191.971744 157.585271 
L 191.971744 166.162236 
L 192.989682 166.162236 
L 192.989682 161.435816 
L 194.007621 161.435816 
L 194.007621 165.831717 
L 195.02556 165.831717 
L 195.02556 168.905543 
L 196.043498 168.905543 
L 196.043498 163.94776 
L 197.061437 163.94776 
L 197.061437 172.970925 
L 198.079375 172.970925 
L 198.079375 171.781057 
L 199.097314 171.781057 
L 199.097314 168.839439 
L 200.115253 168.839439 
L 200.115253 173.598911 
L 201.133191 173.598911 
L 201.133191 177.234619 
L 202.15113 177.234619 
L 202.15113 174.028586 
L 203.169068 174.028586 
L 203.169068 180.688542 
L 204.187007 180.688542 
L 204.187007 182.555973 
L 205.204945 182.555973 
L 205.204945 183.745841 
L 206.222884 183.745841 
L 206.222884 184.886132 
L 207.240823 184.886132 
L 207.240823 189.629078 
L 208.258761 189.629078 
L 208.258761 187.66249 
L 209.2767 187.66249 
L 209.2767 191.083361 
L 210.294638 191.083361 
L 210.294638 195.08264 
L 211.312577 195.08264 
L 211.312577 190.554531 
L 212.330516 190.554531 
L 212.330516 194.966958 
L 213.348454 194.966958 
L 213.348454 195.991567 
L 214.366393 195.991567 
L 214.366393 199.544645 
L 215.384331 199.544645 
L 215.384331 198.784451 
L 216.40227 198.784451 
L 216.40227 199.80906 
L 217.420208 199.80906 
L 217.420208 200.354416 
L 218.438147 200.354416 
L 218.438147 204.436324 
L 219.456086 204.436324 
L 219.456086 203.39519 
L 220.474024 203.39519 
L 220.474024 203.973598 
L 221.491963 203.973598 
L 221.491963 206.254178 
L 222.509901 206.254178 
L 222.509901 205.427881 
L 223.52784 205.427881 
L 223.52784 206.799534 
L 224.545779 206.799534 
L 224.545779 209.361056 
L 225.563717 209.361056 
L 225.563717 207.724987 
L 226.581656 207.724987 
L 226.581656 210.699657 
L 227.599594 210.699657 
L 227.599594 210.468294 
L 228.617533 210.468294 
L 228.617533 211.476377 
L 229.635471 211.476377 
L 229.635471 212.038259 
L 230.65341 212.038259 
L 230.65341 213.128971 
L 231.671349 213.128971 
L 231.671349 213.707379 
L 232.689287 213.707379 
L 232.689287 214.318839 
L 233.707226 214.318839 
L 233.707226 215.574811 
L 234.725164 215.574811 
L 234.725164 215.260818 
L 235.743103 215.260818 
L 235.743103 216.169745 
L 236.761042 216.169745 
L 236.761042 215.806174 
L 237.77898 215.806174 
L 237.77898 217.062146 
L 238.796919 217.062146 
L 238.796919 217.409191 
L 239.814857 217.409191 
L 239.814857 217.723184 
L 240.832796 217.723184 
L 240.832796 218.152858 
L 241.850734 218.152858 
L 241.850734 218.433799 
L 242.868673 218.433799 
L 242.868673 218.88 
L 379.272443 218.88 
L 379.272443 218.88 
" clip-path="url(#pa0f5a066b1)" style="fill: none; stroke: #1f77b4; stroke-width: 1.5; stroke-linecap: square"/>
   </g>
   <g id="line2d_19">
    <path d="M 74.908807 218.88 
L 103.411087 218.79737 
L 103.411087 218.764318 
L 109.518719 218.780844 
L 109.518719 218.566007 
L 112.572534 218.665163 
L 112.572534 218.18591 
L 113.590473 218.18591 
L 113.590473 218.632111 
L 114.608412 218.632111 
L 114.608412 218.417274 
L 115.62635 218.417274 
L 115.62635 218.136332 
L 116.644289 218.136332 
L 116.644289 218.499903 
L 117.662227 218.499903 
L 117.662227 217.904969 
L 118.680166 217.904969 
L 118.680166 218.169384 
L 120.716043 218.152858 
L 120.716043 217.491821 
L 121.733982 217.491821 
L 121.733982 217.82234 
L 122.75192 217.82234 
L 122.75192 217.425717 
L 123.769859 217.425717 
L 123.769859 217.723184 
L 124.787797 217.723184 
L 124.787797 217.227406 
L 125.805736 217.227406 
L 125.805736 217.376139 
L 126.823675 217.376139 
L 126.823675 216.781205 
L 128.859552 216.682049 
L 128.859552 216.235849 
L 129.87749 216.235849 
L 129.87749 215.971434 
L 130.895429 215.971434 
L 130.895429 215.541759 
L 131.913367 215.541759 
L 131.913367 215.690493 
L 132.931306 215.690493 
L 132.931306 214.401469 
L 134.967183 214.401469 
L 134.967183 213.740431 
L 137.00306 213.657801 
L 137.00306 211.674688 
L 138.020999 211.674688 
L 138.020999 211.393747 
L 139.038938 211.393747 
L 139.038938 210.170827 
L 140.056876 210.170827 
L 140.056876 208.931381 
L 141.074815 208.931381 
L 141.074815 207.543202 
L 142.092753 207.543202 
L 142.092753 205.246096 
L 143.110692 205.246096 
L 143.110692 203.180352 
L 144.12863 203.180352 
L 144.12863 201.610388 
L 145.146569 201.610388 
L 145.146569 199.379385 
L 146.164508 199.379385 
L 146.164508 196.999649 
L 147.182446 196.999649 
L 147.182446 195.594944 
L 148.200385 195.594944 
L 148.200385 192.917741 
L 149.218323 192.917741 
L 149.218323 191.975762 
L 150.236262 191.975762 
L 150.236262 188.637521 
L 151.254201 188.637521 
L 151.254201 186.307363 
L 152.272139 186.307363 
L 152.272139 180.886853 
L 153.290078 180.886853 
L 153.290078 181.663572 
L 154.308016 181.663572 
L 154.308016 176.920626 
L 155.325955 176.920626 
L 155.325955 172.012421 
L 156.343893 172.012421 
L 156.343893 171.582746 
L 157.361832 171.582746 
L 157.361832 169.004699 
L 158.379771 169.004699 
L 158.379771 165.53425 
L 159.397709 165.53425 
L 159.397709 160.774778 
L 160.415648 160.774778 
L 160.415648 158.775139 
L 161.433586 158.775139 
L 161.433586 154.94112 
L 162.451525 154.94112 
L 162.451525 150.082492 
L 163.469464 150.082492 
L 163.469464 151.553301 
L 164.487402 151.553301 
L 164.487402 143.835685 
L 165.505341 143.835685 
L 165.505341 140.084295 
L 166.523279 140.084295 
L 166.523279 133.25908 
L 167.541218 133.25908 
L 167.541218 134.0358 
L 168.559156 134.0358 
L 168.559156 130.928922 
L 169.577095 130.928922 
L 169.577095 126.136398 
L 170.595034 126.136398 
L 170.595034 121.079459 
L 171.612972 121.079459 
L 171.612972 117.873426 
L 172.630911 117.873426 
L 172.630911 118.203945 
L 173.648849 118.203945 
L 173.648849 111.990189 
L 174.666788 111.990189 
L 174.666788 113.163531 
L 175.684727 113.163531 
L 175.684727 114.204666 
L 176.702665 114.204666 
L 176.702665 112.568597 
L 177.720604 112.568597 
L 177.720604 106.751465 
L 178.738542 106.751465 
L 178.738542 105.726856 
L 179.756481 105.726856 
L 179.756481 112.799961 
L 180.774419 112.799961 
L 180.774419 101.975467 
L 181.792358 101.975467 
L 181.792358 105.34676 
L 182.810297 105.34676 
L 182.810297 101.545792 
L 183.828235 101.545792 
L 183.828235 102.471245 
L 184.846174 102.471245 
L 184.846174 101.644948 
L 185.864112 101.644948 
L 185.864112 109.709609 
L 186.882051 109.709609 
L 186.882051 103.148809 
L 187.89999 103.148809 
L 187.89999 109.098149 
L 188.917928 109.098149 
L 188.917928 98.00924 
L 189.935867 98.00924 
L 189.935867 105.478967 
L 190.953805 105.478967 
L 190.953805 100.504658 
L 191.971744 100.504658 
L 191.971744 101.925889 
L 192.989682 101.925889 
L 192.989682 102.223356 
L 194.007621 102.223356 
L 194.007621 100.223717 
L 195.02556 100.223717 
L 195.02556 105.71033 
L 196.043498 105.71033 
L 196.043498 98.157974 
L 197.061437 98.157974 
L 197.061437 104.65267 
L 198.079375 104.65267 
L 198.079375 101.050014 
L 199.097314 101.050014 
L 199.097314 105.231078 
L 200.115253 105.231078 
L 200.115253 104.900559 
L 201.133191 104.900559 
L 201.133191 97.777877 
L 202.15113 97.777877 
L 202.15113 101.793681 
L 203.169068 101.793681 
L 203.169068 107.511658 
L 204.187007 107.511658 
L 204.187007 108.486689 
L 205.204945 108.486689 
L 205.204945 99.364368 
L 206.222884 99.364368 
L 206.222884 100.074983 
L 207.240823 100.074983 
L 207.240823 106.239161 
L 208.258761 106.239161 
L 208.258761 108.123118 
L 209.2767 108.123118 
L 209.2767 110.998633 
L 210.294638 110.998633 
L 210.294638 99.199108 
L 211.312577 99.199108 
L 211.312577 110.139284 
L 212.330516 110.139284 
L 212.330516 101.991993 
L 213.348454 101.991993 
L 213.348454 109.048571 
L 214.366393 109.048571 
L 214.366393 115.163171 
L 215.384331 115.163171 
L 215.384331 114.254244 
L 216.40227 114.254244 
L 216.40227 111.015159 
L 217.420208 111.015159 
L 217.420208 114.122036 
L 218.438147 114.122036 
L 218.438147 115.014437 
L 219.456086 115.014437 
L 219.456086 118.83193 
L 220.474024 118.83193 
L 220.474024 125.855457 
L 221.491963 125.855457 
L 221.491963 125.095264 
L 222.509901 125.095264 
L 222.509901 121.393452 
L 223.52784 121.393452 
L 223.52784 127.045325 
L 224.545779 127.045325 
L 224.545779 127.9212 
L 225.563717 127.9212 
L 225.563717 130.912396 
L 226.581656 130.912396 
L 226.581656 128.152563 
L 227.599594 128.152563 
L 227.599594 125.194419 
L 228.617533 125.194419 
L 228.617533 132.829406 
L 229.635471 132.829406 
L 229.635471 137.754137 
L 230.65341 137.754137 
L 230.65341 131.011552 
L 231.671349 131.011552 
L 231.671349 139.357154 
L 232.689287 139.357154 
L 232.689287 138.514331 
L 233.707226 138.514331 
L 233.707226 136.531217 
L 234.725164 136.531217 
L 234.725164 138.547383 
L 235.743103 138.547383 
L 235.743103 139.671147 
L 236.761042 139.671147 
L 236.761042 144.62893 
L 237.77898 144.62893 
L 237.77898 145.917954 
L 238.796919 145.917954 
L 238.796919 140.910593 
L 239.814857 140.910593 
L 239.814857 144.298411 
L 240.832796 144.298411 
L 240.832796 151.206256 
L 241.850734 151.206256 
L 241.850734 146.198895 
L 242.868673 146.198895 
L 242.868673 145.207338 
L 244.90455 145.174286 
L 244.90455 151.239308 
L 245.922489 151.239308 
L 245.922489 153.7182 
L 246.940427 153.7182 
L 246.940427 149.867655 
L 247.958366 149.867655 
L 247.958366 154.594075 
L 248.976305 154.594075 
L 248.976305 157.238226 
L 249.994243 157.238226 
L 249.994243 154.825438 
L 251.012182 154.825438 
L 251.012182 155.337742 
L 252.03012 155.337742 
L 252.03012 159.353547 
L 254.065997 159.436177 
L 254.065997 157.502641 
L 255.083936 157.502641 
L 255.083936 157.188648 
L 256.101875 157.188648 
L 256.101875 160.80783 
L 257.119813 160.80783 
L 257.119813 164.360908 
L 258.137752 164.360908 
L 258.137752 161.386238 
L 259.15569 161.386238 
L 259.15569 162.609158 
L 260.173629 162.609158 
L 260.173629 165.53425 
L 261.191568 165.53425 
L 261.191568 163.17104 
L 262.209506 163.17104 
L 262.209506 164.179123 
L 263.227445 164.179123 
L 263.227445 166.724118 
L 264.245383 166.724118 
L 264.245383 171.268753 
L 265.263322 171.268753 
L 265.263322 167.269475 
L 266.28126 167.269475 
L 266.28126 165.17068 
L 267.299199 165.17068 
L 267.299199 166.806748 
L 268.317138 166.806748 
L 268.317138 170.789501 
L 269.335076 170.789501 
L 269.335076 169.81447 
L 270.353015 169.81447 
L 270.353015 171.400961 
L 271.370953 171.400961 
L 271.370953 173.532808 
L 272.388892 173.532808 
L 272.388892 171.450539 
L 273.406831 171.450539 
L 273.406831 173.268392 
L 274.424769 173.268392 
L 274.424769 174.061638 
L 275.442708 174.061638 
L 275.442708 173.830275 
L 276.460646 173.830275 
L 276.460646 173.48323 
L 277.478585 173.48323 
L 277.478585 176.061277 
L 278.496523 176.061277 
L 278.496523 183.415323 
L 279.514462 183.415323 
L 279.514462 175.565499 
L 280.532401 175.565499 
L 280.532401 174.887935 
L 281.550339 174.887935 
L 281.550339 177.036308 
L 282.568278 177.036308 
L 282.568278 178.457539 
L 283.586216 178.457539 
L 283.586216 176.656211 
L 284.604155 176.656211 
L 284.604155 179.680459 
L 285.622094 179.680459 
L 285.622094 180.853801 
L 286.640032 180.853801 
L 286.640032 183.448374 
L 287.657971 183.448374 
L 287.657971 178.341858 
L 288.675909 178.341858 
L 288.675909 183.167433 
L 289.693848 183.167433 
L 289.693848 184.15899 
L 290.711786 184.15899 
L 290.711786 181.944513 
L 291.729725 181.944513 
L 291.729725 184.125938 
L 292.747664 184.125938 
L 292.747664 183.795419 
L 293.765602 183.795419 
L 293.765602 184.010257 
L 294.783541 184.010257 
L 294.783541 186.356941 
L 295.801479 186.356941 
L 295.801479 189.893493 
L 296.819418 189.893493 
L 296.819418 185.530643 
L 297.837357 185.530643 
L 297.837357 185.150547 
L 298.855295 185.150547 
L 298.855295 186.257785 
L 299.873234 186.257785 
L 299.873234 189.744759 
L 300.891172 189.744759 
L 300.891172 190.736316 
L 301.909111 190.736316 
L 301.909111 187.166712 
L 302.927049 187.166712 
L 302.927049 189.794337 
L 303.944988 189.794337 
L 303.944988 188.769729 
L 304.962927 188.769729 
L 304.962927 193.644882 
L 305.980865 193.644882 
L 305.980865 192.47154 
L 306.998804 192.47154 
L 306.998804 190.554531 
L 308.016742 190.554531 
L 308.016742 191.909658 
L 309.034681 191.909658 
L 309.034681 192.934267 
L 310.05262 192.934267 
L 310.05262 192.339333 
L 311.070558 192.339333 
L 311.070558 192.157547 
L 312.088497 192.157547 
L 312.088497 197.726791 
L 313.106435 197.726791 
L 313.106435 196.83439 
L 314.124374 196.83439 
L 314.124374 195.512314 
L 315.142312 195.512314 
L 315.142312 198.040784 
L 316.160251 198.040784 
L 316.160251 200.189156 
L 317.17819 200.189156 
L 317.17819 197.065753 
L 318.196128 197.065753 
L 318.196128 199.164548 
L 319.214067 199.164548 
L 319.214067 199.395911 
L 320.232005 199.395911 
L 320.232005 199.974319 
L 321.249944 199.974319 
L 321.249944 201.312921 
L 322.267883 201.312921 
L 322.267883 201.957433 
L 323.285821 201.957433 
L 323.285821 203.130775 
L 324.30376 203.130775 
L 324.30376 202.304477 
L 325.321698 202.304477 
L 325.321698 204.552006 
L 326.339637 204.552006 
L 326.339637 202.767204 
L 327.357575 202.767204 
L 327.357575 205.444407 
L 328.375514 205.444407 
L 328.375514 204.766843 
L 329.393453 204.766843 
L 329.393453 203.428242 
L 330.411391 203.428242 
L 330.411391 207.295313 
L 331.42933 207.295313 
L 331.42933 204.733791 
L 332.447268 204.733791 
L 332.447268 208.452129 
L 333.465207 208.452129 
L 333.465207 207.59278 
L 334.483146 207.59278 
L 334.483146 207.444046 
L 335.501084 207.444046 
L 335.501084 208.12161 
L 336.519023 208.12161 
L 336.519023 207.824143 
L 337.536961 207.824143 
L 337.536961 209.410634 
L 338.5549 209.410634 
L 338.5549 210.154301 
L 339.572838 210.154301 
L 339.572838 209.17927 
L 340.590777 209.17927 
L 340.590777 210.749235 
L 341.608716 210.749235 
L 341.608716 209.658523 
L 342.626654 209.658523 
L 342.626654 210.666605 
L 343.644593 210.666605 
L 343.644593 211.575532 
L 344.662531 211.575532 
L 344.662531 210.864917 
L 345.68047 210.864917 
L 345.68047 211.09628 
L 346.698409 211.09628 
L 346.698409 212.434882 
L 347.716347 212.434882 
L 347.716347 211.922577 
L 348.734286 211.922577 
L 348.734286 213.310757 
L 349.752224 213.310757 
L 349.752224 212.286148 
L 350.770163 212.286148 
L 350.770163 213.98832 
L 351.788101 213.98832 
L 351.788101 212.93066 
L 352.80604 212.93066 
L 352.80604 214.07095 
L 353.823979 214.07095 
L 353.823979 214.401469 
L 354.841917 214.401469 
L 354.841917 214.533677 
L 356.877794 214.451047 
L 356.877794 215.145136 
L 357.895733 215.145136 
L 357.895733 214.930299 
L 358.913672 214.930299 
L 358.913672 215.855752 
L 359.93161 215.855752 
L 359.93161 215.508707 
L 360.949549 215.508707 
L 360.949549 216.169745 
L 361.967487 216.169745 
L 361.967487 216.533316 
L 362.985426 216.533316 
L 362.985426 216.748153 
L 364.003364 216.748153 
L 364.003364 216.979516 
L 365.021303 216.979516 
L 365.021303 216.698575 
L 366.039242 216.698575 
L 366.039242 217.012568 
L 369.093057 216.996042 
L 369.093057 217.57445 
L 370.110996 217.57445 
L 370.110996 217.706658 
L 371.128935 217.706658 
L 371.128935 217.871917 
L 372.146873 217.871917 
L 372.146873 218.119807 
L 375.200689 218.18591 
L 375.200689 218.450325 
L 376.218627 218.450325 
L 376.218627 218.566007 
L 378.254505 218.599059 
L 378.254505 218.830422 
L 379.272443 218.830422 
L 379.272443 218.830422 
" clip-path="url(#pa0f5a066b1)" style="fill: none; stroke: #ff7f0e; stroke-width: 1.5; stroke-linecap: square"/>
   </g>
  </g>
 </g>
 <defs>
  <clipPath id="pa0f5a066b1">
   <rect x="59.690625" y="7.2" width="334.8" height="221.76"/>
  </clipPath>
 </defs>
</svg>
