<?xml version="1.0" encoding="utf-8" standalone="no"?>
<!DOCTYPE svg PUBLIC "-//W3C//DTD SVG 1.1//EN"
  "http://www.w3.org/Graphics/SVG/1.1/DTD/svg11.dtd">
<svg xmlns:xlink="http://www.w3.org/1999/xlink" width="395.328125pt" height="268.200625pt" viewBox="0 0 395.328125 268.200625" xmlns="http://www.w3.org/2000/svg" version="1.1">
 <metadata>
  <rdf:RDF xmlns:dc="http://purl.org/dc/elements/1.1/" xmlns:cc="http://creativecommons.org/ns#" xmlns:rdf="http://www.w3.org/1999/02/22-rdf-syntax-ns#">
   <cc:Work>
    <dc:type rdf:resource="http://purl.org/dc/dcmitype/StillImage"/>
    <dc:date>2026-04-23T13:17:37.865747</dc:date>
    <dc:format>image/svg+xml</dc:format>
    <dc:creator>
     <cc:Agent>
      <dc:title>Matplotlib v3.10.8, https://matplotlib.org/</dc:title>
     </cc:Agent>
    </dc:creator>
   </cc:Work>
  </rdf:RDF>
 </metadata>
 <defs>
  <style type="text/css">*{stroke-linejoin: round; stroke-linecap: butt}</style>
 </defs>
 <g id="figure_1">
  <g id="patch_1">
   <path d="M 0 268.200625 
L 395.328125 268.200625 
L 395.328125 0 
L 0 0 
z
" style="fill: #ffffff"/>
  </g>
  <g id="axes_1">
   <g id="patch_2">
    <path d="M 53.328125 228.96 
L 388.128125 228.96 
L 388.128125 7.2 
L 53.328125 7.2 
z
" style="fill: #ffffff"/>
   </g>
   <g id="matplotlib.axis_1">
    <g id="xtick_1">
     <g id="line2d_1">
      <defs>
       <path id="m9f84eb3266" d="M 0 0 
L 0 3.5 
" style="stroke: #000000; stroke-width: 0.8"/>
      </defs>
      <g>
       <use xlink:href="#m9f84eb3266" x="68.546307" y="228.96" style="stroke: #000000; stroke-width: 0.8"/>
      </g>
     </g>
     <g id="text_1">
      <!-- 2 -->
      <g transform="translate(65.365057 243.558437) scale(0.1 -0.1)">
       <defs>
        <path id="DejaVuSans-32" d="M 1228 531 
L 3431 531 
L 3431 0 
L 469 0 
L 469 531 
Q 828 903 1448 1529 
Q 2069 2156 2228 2338 
Q 2531 2678 2651 2914 
Q 2772 3150 2772 3378 
Q 2772 3750 2511 3984 
Q 2250 4219 1831 4219 
Q 1534 4219 1204 4116 
Q 875 4013 500 3803 
L 500 4441 
Q 881 4594 1212 4672 
Q 1544 4750 1819 4750 
Q 2544 4750 2975 4387 
Q 3406 4025 3406 3419 
Q 3406 3131 3298 2873 
Q 3191 2616 2906 2266 
Q 2828 2175 2409 1742 
Q 1991 1309 1228 531 
z
" transform="scale(0.015625)"/>
       </defs>
       <use xlink:href="#DejaVuSans-32"/>
      </g>
     </g>
    </g>
    <g id="xtick_2">
     <g id="line2d_2">
      <g>
       <use xlink:href="#m9f84eb3266" x="106.591761" y="228.96" style="stroke: #000000; stroke-width: 0.8"/>
      </g>
     </g>
     <g id="text_2">
      <!-- 3 -->
      <g transform="translate(103.410511 243.558437) scale(0.1 -0.1)">
       <defs>
        <path id="DejaVuSans-33" d="M 2597 2516 
Q 3050 2419 3304 2112 
Q 3559 1806 3559 1356 
Q 3559 666 3084 287 
Q 2609 -91 1734 -91 
Q 1441 -91 1130 -33 
Q 819 25 488 141 
L 488 750 
Q 750 597 1062 519 
Q 1375 441 1716 441 
Q 2309 441 2620 675 
Q 2931 909 2931 1356 
Q 2931 1769 2642 2001 
Q 2353 2234 1838 2234 
L 1294 2234 
L 1294 2753 
L 1863 2753 
Q 2328 2753 2575 2939 
Q 2822 3125 2822 3475 
Q 2822 3834 2567 4026 
Q 2313 4219 1838 4219 
Q 1578 4219 1281 4162 
Q 984 4106 628 3988 
L 628 4550 
Q 988 4650 1302 4700 
Q 1616 4750 1894 4750 
Q 2613 4750 3031 4423 
Q 3450 4097 3450 3541 
Q 3450 3153 3228 2886 
Q 3006 2619 2597 2516 
z
" transform="scale(0.015625)"/>
       </defs>
       <use xlink:href="#DejaVuSans-33"/>
      </g>
     </g>
    </g>
    <g id="xtick_3">
     <g id="line2d_3">
      <g>
       <use xlink:href="#m9f84eb3266" x="144.637216" y="228.96" style="stroke: #000000; stroke-width: 0.8"/>
      </g>
     </g>
     <g id="text_3">
      <!-- 4 -->
      <g transform="translate(141.455966 243.558437) scale(0.1 -0.1)">
       <defs>
        <path id="DejaVuSans-34" d="M 2419 4116 
L 825 1625 
L 2419 1625 
L 2419 4116 
z
M 2253 4666 
L 3047 4666 
L 3047 1625 
L 3713 1625 
L 3713 1100 
L 3047 1100 
L 3047 0 
L 2419 0 
L 2419 1100 
L 313 1100 
L 313 1709 
L 2253 4666 
z
" transform="scale(0.015625)"/>
       </defs>
       <use xlink:href="#DejaVuSans-34"/>
      </g>
     </g>
    </g>
    <g id="xtick_4">
     <g id="line2d_4">
      <g>
       <use xlink:href="#m9f84eb3266" x="182.68267" y="228.96" style="stroke: #000000; stroke-width: 0.8"/>
      </g>
     </g>
     <g id="text_4">
      <!-- 5 -->
      <g transform="translate(179.50142 243.558437) scale(0.1 -0.1)">
       <defs>
        <path id="DejaVuSans-35" d="M 691 4666 
L 3169 4666 
L 3169 4134 
L 1269 4134 
L 1269 2991 
Q 1406 3038 1543 3061 
Q 1681 3084 1819 3084 
Q 2600 3084 3056 2656 
Q 3513 2228 3513 1497 
Q 3513 744 3044 326 
Q 2575 -91 1722 -91 
Q 1428 -91 1123 -41 
Q 819 9 494 109 
L 494 744 
Q 775 591 1075 516 
Q 1375 441 1709 441 
Q 2250 441 2565 725 
Q 2881 1009 2881 1497 
Q 2881 1984 2565 2268 
Q 2250 2553 1709 2553 
Q 1456 2553 1204 2497 
Q 953 2441 691 2322 
L 691 4666 
z
" transform="scale(0.015625)"/>
       </defs>
       <use xlink:href="#DejaVuSans-35"/>
      </g>
     </g>
    </g>
    <g id="xtick_5">
     <g id="line2d_5">
      <g>
       <use xlink:href="#m9f84eb3266" x="220.728125" y="228.96" style="stroke: #000000; stroke-width: 0.8"/>
      </g>
     </g>
     <g id="text_5">
      <!-- 6 -->
      <g transform="translate(217.546875 243.558437) scale(0.1 -0.1)">
       <defs>
        <path id="DejaVuSans-36" d="M 2113 2584 
Q 1688 2584 1439 2293 
Q 1191 2003 1191 1497 
Q 1191 994 1439 701 
Q 1688 409 2113 409 
Q 2538 409 2786 701 
Q 3034 994 3034 1497 
Q 3034 2003 2786 2293 
Q 2538 2584 2113 2584 
z
M 3366 4563 
L 3366 3988 
Q 3128 4100 2886 4159 
Q 2644 4219 2406 4219 
Q 1781 4219 1451 3797 
Q 1122 3375 1075 2522 
Q 1259 2794 1537 2939 
Q 1816 3084 2150 3084 
Q 2853 3084 3261 2657 
Q 3669 2231 3669 1497 
Q 3669 778 3244 343 
Q 2819 -91 2113 -91 
Q 1303 -91 875 529 
Q 447 1150 447 2328 
Q 447 3434 972 4092 
Q 1497 4750 2381 4750 
Q 2619 4750 2861 4703 
Q 3103 4656 3366 4563 
z
" transform="scale(0.015625)"/>
       </defs>
       <use xlink:href="#DejaVuSans-36"/>
      </g>
     </g>
    </g>
    <g id="xtick_6">
     <g id="line2d_6">
      <g>
       <use xlink:href="#m9f84eb3266" x="258.77358" y="228.96" style="stroke: #000000; stroke-width: 0.8"/>
      </g>
     </g>
     <g id="text_6">
      <!-- 7 -->
      <g transform="translate(255.59233 243.558437) scale(0.1 -0.1)">
       <defs>
        <path id="DejaVuSans-37" d="M 525 4666 
L 3525 4666 
L 3525 4397 
L 1831 0 
L 1172 0 
L 2766 4134 
L 525 4134 
L 525 4666 
z
" transform="scale(0.015625)"/>
       </defs>
       <use xlink:href="#DejaVuSans-37"/>
      </g>
     </g>
    </g>
    <g id="xtick_7">
     <g id="line2d_7">
      <g>
       <use xlink:href="#m9f84eb3266" x="296.819034" y="228.96" style="stroke: #000000; stroke-width: 0.8"/>
      </g>
     </g>
     <g id="text_7">
      <!-- 8 -->
      <g transform="translate(293.637784 243.558437) scale(0.1 -0.1)">
       <defs>
        <path id="DejaVuSans-38" d="M 2034 2216 
Q 1584 2216 1326 1975 
Q 1069 1734 1069 1313 
Q 1069 891 1326 650 
Q 1584 409 2034 409 
Q 2484 409 2743 651 
Q 3003 894 3003 1313 
Q 3003 1734 2745 1975 
Q 2488 2216 2034 2216 
z
M 1403 2484 
Q 997 2584 770 2862 
Q 544 3141 544 3541 
Q 544 4100 942 4425 
Q 1341 4750 2034 4750 
Q 2731 4750 3128 4425 
Q 3525 4100 3525 3541 
Q 3525 3141 3298 2862 
Q 3072 2584 2669 2484 
Q 3125 2378 3379 2068 
Q 3634 1759 3634 1313 
Q 3634 634 3220 271 
Q 2806 -91 2034 -91 
Q 1263 -91 848 271 
Q 434 634 434 1313 
Q 434 1759 690 2068 
Q 947 2378 1403 2484 
z
M 1172 3481 
Q 1172 3119 1398 2916 
Q 1625 2713 2034 2713 
Q 2441 2713 2670 2916 
Q 2900 3119 2900 3481 
Q 2900 3844 2670 4047 
Q 2441 4250 2034 4250 
Q 1625 4250 1398 4047 
Q 1172 3844 1172 3481 
z
" transform="scale(0.015625)"/>
       </defs>
       <use xlink:href="#DejaVuSans-38"/>
      </g>
     </g>
    </g>
    <g id="xtick_8">
     <g id="line2d_8">
      <g>
       <use xlink:href="#m9f84eb3266" x="334.864489" y="228.96" style="stroke: #000000; stroke-width: 0.8"/>
      </g>
     </g>
     <g id="text_8">
      <!-- 9 -->
      <g transform="translate(331.683239 243.558437) scale(0.1 -0.1)">
       <defs>
        <path id="DejaVuSans-39" d="M 703 97 
L 703 672 
Q 941 559 1184 500 
Q 1428 441 1663 441 
Q 2288 441 2617 861 
Q 2947 1281 2994 2138 
Q 2813 1869 2534 1725 
Q 2256 1581 1919 1581 
Q 1219 1581 811 2004 
Q 403 2428 403 3163 
Q 403 3881 828 4315 
Q 1253 4750 1959 4750 
Q 2769 4750 3195 4129 
Q 3622 3509 3622 2328 
Q 3622 1225 3098 567 
Q 2575 -91 1691 -91 
Q 1453 -91 1209 -44 
Q 966 3 703 97 
z
M 1959 2075 
Q 2384 2075 2632 2365 
Q 2881 2656 2881 3163 
Q 2881 3666 2632 3958 
Q 2384 4250 1959 4250 
Q 1534 4250 1286 3958 
Q 1038 3666 1038 3163 
Q 1038 2656 1286 2365 
Q 1534 2075 1959 2075 
z
" transform="scale(0.015625)"/>
       </defs>
       <use xlink:href="#DejaVuSans-39"/>
      </g>
     </g>
    </g>
    <g id="xtick_9">
     <g id="line2d_9">
      <g>
       <use xlink:href="#m9f84eb3266" x="372.909943" y="228.96" style="stroke: #000000; stroke-width: 0.8"/>
      </g>
     </g>
     <g id="text_9">
      <!-- 10 -->
      <g transform="translate(366.547443 243.558437) scale(0.1 -0.1)">
       <defs>
        <path id="DejaVuSans-31" d="M 794 531 
L 1825 531 
L 1825 4091 
L 703 3866 
L 703 4441 
L 1819 4666 
L 2450 4666 
L 2450 531 
L 3481 531 
L 3481 0 
L 794 0 
L 794 531 
z
" transform="scale(0.015625)"/>
        <path id="DejaVuSans-30" d="M 2034 4250 
Q 1547 4250 1301 3770 
Q 1056 3291 1056 2328 
Q 1056 1369 1301 889 
Q 1547 409 2034 409 
Q 2525 409 2770 889 
Q 3016 1369 3016 2328 
Q 3016 3291 2770 3770 
Q 2525 4250 2034 4250 
z
M 2034 4750 
Q 2819 4750 3233 4129 
Q 3647 3509 3647 2328 
Q 3647 1150 3233 529 
Q 2819 -91 2034 -91 
Q 1250 -91 836 529 
Q 422 1150 422 2328 
Q 422 3509 836 4129 
Q 1250 4750 2034 4750 
z
" transform="scale(0.015625)"/>
       </defs>
       <use xlink:href="#DejaVuSans-31"/>
       <use xlink:href="#DejaVuSans-30" transform="translate(63.623047 0)"/>
      </g>
     </g>
    </g>
    <g id="text_10">
     <!-- wavelength [Å] -->
     <g transform="translate(182.690625 258.920937) scale(0.1 -0.1)">
      <defs>
       <path id="DejaVuSans-77" d="M 269 3500 
L 844 3500 
L 1563 769 
L 2278 3500 
L 2956 3500 
L 3675 769 
L 4391 3500 
L 4966 3500 
L 4050 0 
L 3372 0 
L 2619 2869 
L 1863 0 
L 1184 0 
L 269 3500 
z
" transform="scale(0.015625)"/>
       <path id="DejaVuSans-61" d="M 2194 1759 
Q 1497 1759 1228 1600 
Q 959 1441 959 1056 
Q 959 750 1161 570 
Q 1363 391 1709 391 
Q 2188 391 2477 730 
Q 2766 1069 2766 1631 
L 2766 1759 
L 2194 1759 
z
M 3341 1997 
L 3341 0 
L 2766 0 
L 2766 531 
Q 2569 213 2275 61 
Q 1981 -91 1556 -91 
Q 1019 -91 701 211 
Q 384 513 384 1019 
Q 384 1609 779 1909 
Q 1175 2209 1959 2209 
L 2766 2209 
L 2766 2266 
Q 2766 2663 2505 2880 
Q 2244 3097 1772 3097 
Q 1472 3097 1187 3025 
Q 903 2953 641 2809 
L 641 3341 
Q 956 3463 1253 3523 
Q 1550 3584 1831 3584 
Q 2591 3584 2966 3190 
Q 3341 2797 3341 1997 
z
" transform="scale(0.015625)"/>
       <path id="DejaVuSans-76" d="M 191 3500 
L 800 3500 
L 1894 563 
L 2988 3500 
L 3597 3500 
L 2284 0 
L 1503 0 
L 191 3500 
z
" transform="scale(0.015625)"/>
       <path id="DejaVuSans-65" d="M 3597 1894 
L 3597 1613 
L 953 1613 
Q 991 1019 1311 708 
Q 1631 397 2203 397 
Q 2534 397 2845 478 
Q 3156 559 3463 722 
L 3463 178 
Q 3153 47 2828 -22 
Q 2503 -91 2169 -91 
Q 1331 -91 842 396 
Q 353 884 353 1716 
Q 353 2575 817 3079 
Q 1281 3584 2069 3584 
Q 2775 3584 3186 3129 
Q 3597 2675 3597 1894 
z
M 3022 2063 
Q 3016 2534 2758 2815 
Q 2500 3097 2075 3097 
Q 1594 3097 1305 2825 
Q 1016 2553 972 2059 
L 3022 2063 
z
" transform="scale(0.015625)"/>
       <path id="DejaVuSans-6c" d="M 603 4863 
L 1178 4863 
L 1178 0 
L 603 0 
L 603 4863 
z
" transform="scale(0.015625)"/>
       <path id="DejaVuSans-6e" d="M 3513 2113 
L 3513 0 
L 2938 0 
L 2938 2094 
Q 2938 2591 2744 2837 
Q 2550 3084 2163 3084 
Q 1697 3084 1428 2787 
Q 1159 2491 1159 1978 
L 1159 0 
L 581 0 
L 581 3500 
L 1159 3500 
L 1159 2956 
Q 1366 3272 1645 3428 
Q 1925 3584 2291 3584 
Q 2894 3584 3203 3211 
Q 3513 2838 3513 2113 
z
" transform="scale(0.015625)"/>
       <path id="DejaVuSans-67" d="M 2906 1791 
Q 2906 2416 2648 2759 
Q 2391 3103 1925 3103 
Q 1463 3103 1205 2759 
Q 947 2416 947 1791 
Q 947 1169 1205 825 
Q 1463 481 1925 481 
Q 2391 481 2648 825 
Q 2906 1169 2906 1791 
z
M 3481 434 
Q 3481 -459 3084 -895 
Q 2688 -1331 1869 -1331 
Q 1566 -1331 1297 -1286 
Q 1028 -1241 775 -1147 
L 775 -588 
Q 1028 -725 1275 -790 
Q 1522 -856 1778 -856 
Q 2344 -856 2625 -561 
Q 2906 -266 2906 331 
L 2906 616 
Q 2728 306 2450 153 
Q 2172 0 1784 0 
Q 1141 0 747 490 
Q 353 981 353 1791 
Q 353 2603 747 3093 
Q 1141 3584 1784 3584 
Q 2172 3584 2450 3431 
Q 2728 3278 2906 2969 
L 2906 3500 
L 3481 3500 
L 3481 434 
z
" transform="scale(0.015625)"/>
       <path id="DejaVuSans-74" d="M 1172 4494 
L 1172 3500 
L 2356 3500 
L 2356 3053 
L 1172 3053 
L 1172 1153 
Q 1172 725 1289 603 
Q 1406 481 1766 481 
L 2356 481 
L 2356 0 
L 1766 0 
Q 1100 0 847 248 
Q 594 497 594 1153 
L 594 3053 
L 172 3053 
L 172 3500 
L 594 3500 
L 594 4494 
L 1172 4494 
z
" transform="scale(0.015625)"/>
       <path id="DejaVuSans-68" d="M 3513 2113 
L 3513 0 
L 2938 0 
L 2938 2094 
Q 2938 2591 2744 2837 
Q 2550 3084 2163 3084 
Q 1697 3084 1428 2787 
Q 1159 2491 1159 1978 
L 1159 0 
L 581 0 
L 581 4863 
L 1159 4863 
L 1159 2956 
Q 1366 3272 1645 3428 
Q 1925 3584 2291 3584 
Q 2894 3584 3203 3211 
Q 3513 2838 3513 2113 
z
" transform="scale(0.015625)"/>
       <path id="DejaVuSans-20" transform="scale(0.015625)"/>
       <path id="DejaVuSans-5b" d="M 550 4863 
L 1875 4863 
L 1875 4416 
L 1125 4416 
L 1125 -397 
L 1875 -397 
L 1875 -844 
L 550 -844 
L 550 4863 
z
" transform="scale(0.015625)"/>
       <path id="DejaVuSans-c5" d="M 2663 5081 
Q 2663 5278 2523 5417 
Q 2384 5556 2188 5556 
Q 1988 5556 1852 5420 
Q 1716 5284 1716 5081 
Q 1716 4884 1853 4746 
Q 1991 4609 2188 4609 
Q 2384 4609 2523 4746 
Q 2663 4884 2663 5081 
z
M 2188 4044 
L 1338 1722 
L 3041 1722 
L 2188 4044 
z
M 1716 4366 
Q 1525 4494 1428 4673 
Q 1331 4853 1331 5081 
Q 1331 5441 1579 5691 
Q 1828 5941 2188 5941 
Q 2544 5941 2795 5689 
Q 3047 5438 3047 5081 
Q 3047 4863 2948 4678 
Q 2850 4494 2663 4366 
L 4325 0 
L 3669 0 
L 3244 1197 
L 1141 1197 
L 716 0 
L 50 0 
L 1716 4366 
z
" transform="scale(0.015625)"/>
       <path id="DejaVuSans-5d" d="M 1947 4863 
L 1947 -844 
L 622 -844 
L 622 -397 
L 1369 -397 
L 1369 4416 
L 622 4416 
L 622 4863 
L 1947 4863 
z
" transform="scale(0.015625)"/>
      </defs>
      <use xlink:href="#DejaVuSans-77"/>
      <use xlink:href="#DejaVuSans-61" transform="translate(81.787109 0)"/>
      <use xlink:href="#DejaVuSans-76" transform="translate(143.066406 0)"/>
      <use xlink:href="#DejaVuSans-65" transform="translate(202.246094 0)"/>
      <use xlink:href="#DejaVuSans-6c" transform="translate(263.769531 0)"/>
      <use xlink:href="#DejaVuSans-65" transform="translate(291.552734 0)"/>
      <use xlink:href="#DejaVuSans-6e" transform="translate(353.076172 0)"/>
      <use xlink:href="#DejaVuSans-67" transform="translate(416.455078 0)"/>
      <use xlink:href="#DejaVuSans-74" transform="translate(479.931641 0)"/>
      <use xlink:href="#DejaVuSans-68" transform="translate(519.140625 0)"/>
      <use xlink:href="#DejaVuSans-20" transform="translate(582.519531 0)"/>
      <use xlink:href="#DejaVuSans-5b" transform="translate(614.306641 0)"/>
      <use xlink:href="#DejaVuSans-c5" transform="translate(653.320312 0)"/>
      <use xlink:href="#DejaVuSans-5d" transform="translate(721.728516 0)"/>
     </g>
    </g>
   </g>
   <g id="matplotlib.axis_2">
    <g id="ytick_1">
     <g id="line2d_10">
      <defs>
       <path id="m8dd74df432" d="M 0 0 
L -3.5 0 
" style="stroke: #000000; stroke-width: 0.8"/>
      </defs>
      <g>
       <use xlink:href="#m8dd74df432" x="53.328125" y="218.88" style="stroke: #000000; stroke-width: 0.8"/>
      </g>
     </g>
     <g id="text_11">
      <!-- 0 -->
      <g transform="translate(39.965625 222.679219) scale(0.1 -0.1)">
       <use xlink:href="#DejaVuSans-30"/>
      </g>
     </g>
    </g>
    <g id="ytick_2">
     <g id="line2d_11">
      <g>
       <use xlink:href="#m8dd74df432" x="53.328125" y="181.518992" style="stroke: #000000; stroke-width: 0.8"/>
      </g>
     </g>
     <g id="text_12">
      <!-- 500 -->
      <g transform="translate(27.240625 185.318211) scale(0.1 -0.1)">
       <use xlink:href="#DejaVuSans-35"/>
       <use xlink:href="#DejaVuSans-30" transform="translate(63.623047 0)"/>
       <use xlink:href="#DejaVuSans-30" transform="translate(127.246094 0)"/>
      </g>
     </g>
    </g>
    <g id="ytick_3">
     <g id="line2d_12">
      <g>
       <use xlink:href="#m8dd74df432" x="53.328125" y="144.157984" style="stroke: #000000; stroke-width: 0.8"/>
      </g>
     </g>
     <g id="text_13">
      <!-- 1000 -->
      <g transform="translate(20.878125 147.957202) scale(0.1 -0.1)">
       <use xlink:href="#DejaVuSans-31"/>
       <use xlink:href="#DejaVuSans-30" transform="translate(63.623047 0)"/>
       <use xlink:href="#DejaVuSans-30" transform="translate(127.246094 0)"/>
       <use xlink:href="#DejaVuSans-30" transform="translate(190.869141 0)"/>
      </g>
     </g>
    </g>
    <g id="ytick_4">
     <g id="line2d_13">
      <g>
       <use xlink:href="#m8dd74df432" x="53.328125" y="106.796976" style="stroke: #000000; stroke-width: 0.8"/>
      </g>
     </g>
     <g id="text_14">
      <!-- 1500 -->
      <g transform="translate(20.878125 110.596194) scale(0.1 -0.1)">
       <use xlink:href="#DejaVuSans-31"/>
       <use xlink:href="#DejaVuSans-35" transform="translate(63.623047 0)"/>
       <use xlink:href="#DejaVuSans-30" transform="translate(127.246094 0)"/>
       <use xlink:href="#DejaVuSans-30" transform="translate(190.869141 0)"/>
      </g>
     </g>
    </g>
    <g id="ytick_5">
     <g id="line2d_14">
      <g>
       <use xlink:href="#m8dd74df432" x="53.328125" y="69.435967" style="stroke: #000000; stroke-width: 0.8"/>
      </g>
     </g>
     <g id="text_15">
      <!-- 2000 -->
      <g transform="translate(20.878125 73.235186) scale(0.1 -0.1)">
       <use xlink:href="#DejaVuSans-32"/>
       <use xlink:href="#DejaVuSans-30" transform="translate(63.623047 0)"/>
       <use xlink:href="#DejaVuSans-30" transform="translate(127.246094 0)"/>
       <use xlink:href="#DejaVuSans-30" transform="translate(190.869141 0)"/>
      </g>
     </g>
    </g>
    <g id="ytick_6">
     <g id="line2d_15">
      <g>
       <use xlink:href="#m8dd74df432" x="53.328125" y="32.074959" style="stroke: #000000; stroke-width: 0.8"/>
      </g>
     </g>
     <g id="text_16">
      <!-- 2500 -->
      <g transform="translate(20.878125 35.874178) scale(0.1 -0.1)">
       <use xlink:href="#DejaVuSans-32"/>
       <use xlink:href="#DejaVuSans-35" transform="translate(63.623047 0)"/>
       <use xlink:href="#DejaVuSans-30" transform="translate(127.246094 0)"/>
       <use xlink:href="#DejaVuSans-30" transform="translate(190.869141 0)"/>
      </g>
     </g>
    </g>
    <g id="text_17">
     <!-- [counts] -->
     <g transform="translate(14.798438 138.6925) rotate(-90) scale(0.1 -0.1)">
      <defs>
       <path id="DejaVuSans-63" d="M 3122 3366 
L 3122 2828 
Q 2878 2963 2633 3030 
Q 2388 3097 2138 3097 
Q 1578 3097 1268 2742 
Q 959 2388 959 1747 
Q 959 1106 1268 751 
Q 1578 397 2138 397 
Q 2388 397 2633 464 
Q 2878 531 3122 666 
L 3122 134 
Q 2881 22 2623 -34 
Q 2366 -91 2075 -91 
Q 1284 -91 818 406 
Q 353 903 353 1747 
Q 353 2603 823 3093 
Q 1294 3584 2113 3584 
Q 2378 3584 2631 3529 
Q 2884 3475 3122 3366 
z
" transform="scale(0.015625)"/>
       <path id="DejaVuSans-6f" d="M 1959 3097 
Q 1497 3097 1228 2736 
Q 959 2375 959 1747 
Q 959 1119 1226 758 
Q 1494 397 1959 397 
Q 2419 397 2687 759 
Q 2956 1122 2956 1747 
Q 2956 2369 2687 2733 
Q 2419 3097 1959 3097 
z
M 1959 3584 
Q 2709 3584 3137 3096 
Q 3566 2609 3566 1747 
Q 3566 888 3137 398 
Q 2709 -91 1959 -91 
Q 1206 -91 779 398 
Q 353 888 353 1747 
Q 353 2609 779 3096 
Q 1206 3584 1959 3584 
z
" transform="scale(0.015625)"/>
       <path id="DejaVuSans-75" d="M 544 1381 
L 544 3500 
L 1119 3500 
L 1119 1403 
Q 1119 906 1312 657 
Q 1506 409 1894 409 
Q 2359 409 2629 706 
Q 2900 1003 2900 1516 
L 2900 3500 
L 3475 3500 
L 3475 0 
L 2900 0 
L 2900 538 
Q 2691 219 2414 64 
Q 2138 -91 1772 -91 
Q 1169 -91 856 284 
Q 544 659 544 1381 
z
M 1991 3584 
L 1991 3584 
z
" transform="scale(0.015625)"/>
       <path id="DejaVuSans-73" d="M 2834 3397 
L 2834 2853 
Q 2591 2978 2328 3040 
Q 2066 3103 1784 3103 
Q 1356 3103 1142 2972 
Q 928 2841 928 2578 
Q 928 2378 1081 2264 
Q 1234 2150 1697 2047 
L 1894 2003 
Q 2506 1872 2764 1633 
Q 3022 1394 3022 966 
Q 3022 478 2636 193 
Q 2250 -91 1575 -91 
Q 1294 -91 989 -36 
Q 684 19 347 128 
L 347 722 
Q 666 556 975 473 
Q 1284 391 1588 391 
Q 1994 391 2212 530 
Q 2431 669 2431 922 
Q 2431 1156 2273 1281 
Q 2116 1406 1581 1522 
L 1381 1569 
Q 847 1681 609 1914 
Q 372 2147 372 2553 
Q 372 3047 722 3315 
Q 1072 3584 1716 3584 
Q 2034 3584 2315 3537 
Q 2597 3491 2834 3397 
z
" transform="scale(0.015625)"/>
      </defs>
      <use xlink:href="#DejaVuSans-5b"/>
      <use xlink:href="#DejaVuSans-63" transform="translate(39.013672 0)"/>
      <use xlink:href="#DejaVuSans-6f" transform="translate(93.994141 0)"/>
      <use xlink:href="#DejaVuSans-75" transform="translate(155.175781 0)"/>
      <use xlink:href="#DejaVuSans-6e" transform="translate(218.554688 0)"/>
      <use xlink:href="#DejaVuSans-74" transform="translate(281.933594 0)"/>
      <use xlink:href="#DejaVuSans-73" transform="translate(321.142578 0)"/>
      <use xlink:href="#DejaVuSans-5d" transform="translate(373.242188 0)"/>
     </g>
    </g>
   </g>
   <g id="line2d_16">
    <path d="M 68.546307 218.88 
L 70.575398 218.88 
L 70.575398 182.639822 
L 71.589943 182.639822 
L 71.589943 115.539451 
L 72.604489 115.539451 
L 72.604489 99.474218 
L 73.619034 99.474218 
L 73.619034 89.610912 
L 74.63358 89.610912 
L 74.63358 90.358132 
L 75.648125 90.358132 
L 75.648125 94.617287 
L 76.66267 94.617287 
L 76.66267 77.580667 
L 77.677216 77.580667 
L 77.677216 86.995641 
L 78.691761 86.995641 
L 78.691761 75.936783 
L 79.706307 75.936783 
L 79.706307 76.609281 
L 80.720852 76.609281 
L 80.720852 63.757094 
L 81.735398 63.757094 
L 81.735398 57.405723 
L 82.749943 57.405723 
L 82.749943 49.485189 
L 83.764489 49.485189 
L 83.764489 50.232409 
L 84.779034 50.232409 
L 84.779034 43.731594 
L 85.79358 43.731594 
L 85.79358 39.771327 
L 86.808125 39.771327 
L 86.808125 42.610764 
L 87.82267 42.610764 
L 87.82267 35.586894 
L 88.837216 35.586894 
L 88.837216 20.268881 
L 89.851761 20.268881 
L 89.851761 18.849162 
L 90.866307 18.849162 
L 90.866307 17.28 
L 91.880852 17.28 
L 91.880852 19.372216 
L 92.895398 19.372216 
L 92.895398 31.551905 
L 93.909943 31.551905 
L 93.909943 30.057465 
L 94.924489 30.057465 
L 94.924489 29.683855 
L 95.939034 29.683855 
L 95.939034 28.114692 
L 96.95358 28.114692 
L 96.95358 26.022476 
L 98.98267 25.947754 
L 98.98267 36.707724 
L 99.997216 36.707724 
L 99.997216 43.432706 
L 101.011761 43.432706 
L 101.011761 47.617139 
L 102.026307 47.617139 
L 102.026307 54.117954 
L 103.040852 54.117954 
L 103.040852 59.796827 
L 104.055398 59.796827 
L 104.055398 68.165693 
L 105.069943 68.165693 
L 105.069943 80.046494 
L 106.084489 80.046494 
L 106.084489 90.881186 
L 107.099034 90.881186 
L 107.099034 94.094233 
L 108.11358 94.094233 
L 108.11358 103.583929 
L 109.128125 103.583929 
L 109.128125 118.603054 
L 110.14267 118.603054 
L 110.14267 124.132483 
L 111.157216 124.132483 
L 111.157216 133.995789 
L 112.171761 133.995789 
L 112.171761 141.169103 
L 113.186307 141.169103 
L 113.186307 143.784374 
L 114.200852 143.784374 
L 114.200852 153.423514 
L 115.215398 153.423514 
L 115.215398 155.14212 
L 116.229943 155.14212 
L 116.229943 164.40765 
L 117.244489 164.40765 
L 117.244489 177.409281 
L 118.259034 177.409281 
L 118.259034 182.639822 
L 119.27358 182.639822 
L 119.27358 187.945085 
L 120.288125 187.945085 
L 120.288125 194.968955 
L 121.30267 194.968955 
L 121.30267 196.762283 
L 122.317216 196.762283 
L 122.317216 150.808243 
L 123.331761 150.808243 
L 123.331761 131.305797 
L 124.346307 131.305797 
L 124.346307 113.671401 
L 125.360852 113.671401 
L 125.360852 94.467843 
L 126.375398 94.467843 
L 126.375398 90.28341 
L 127.389943 90.28341 
L 127.389943 81.989266 
L 128.404489 81.989266 
L 128.404489 95.887561 
L 129.419034 95.887561 
L 129.419034 94.168955 
L 130.43358 94.168955 
L 130.43358 99.250052 
L 131.448125 99.250052 
L 131.448125 99.399496 
L 132.46267 99.399496 
L 132.46267 95.962283 
L 133.477216 95.962283 
L 133.477216 96.634781 
L 134.491761 96.634781 
L 134.491761 102.089489 
L 135.506307 102.089489 
L 135.506307 104.630037 
L 136.520852 104.630037 
L 136.520852 104.106983 
L 137.535398 104.106983 
L 137.535398 110.458354 
L 138.549943 110.458354 
L 138.549943 111.504463 
L 139.564489 111.504463 
L 139.564489 110.533076 
L 140.579034 110.533076 
L 140.579034 112.251683 
L 141.59358 112.251683 
L 141.59358 109.486968 
L 142.608125 109.486968 
L 142.608125 106.273921 
L 143.62267 106.273921 
L 143.62267 116.95917 
L 144.637216 116.95917 
L 144.637216 118.528332 
L 145.651761 118.528332 
L 145.651761 115.688895 
L 146.666307 115.688895 
L 146.666307 121.293047 
L 147.680852 121.293047 
L 147.680852 122.264433 
L 148.695398 122.264433 
L 148.695398 125.029148 
L 150.724489 125.029148 
L 150.724489 126.897198 
L 151.739034 126.897198 
L 151.739034 127.420252 
L 152.75358 127.420252 
L 152.75358 129.363024 
L 153.768125 129.363024 
L 153.768125 121.218325 
L 154.78267 121.218325 
L 154.78267 118.304166 
L 155.797216 118.304166 
L 155.797216 131.754129 
L 156.811761 131.754129 
L 156.811761 134.294678 
L 157.826307 134.294678 
L 157.826307 123.310541 
L 158.840852 123.310541 
L 158.840852 129.512468 
L 159.855398 129.512468 
L 159.855398 119.57444 
L 160.869943 119.57444 
L 160.869943 141.991045 
L 161.884489 141.991045 
L 161.884489 152.078517 
L 162.899034 152.078517 
L 162.899034 159.550719 
L 163.91358 159.550719 
L 163.91358 154.843232 
L 164.928125 154.843232 
L 164.928125 153.498236 
L 165.94267 153.498236 
L 165.94267 146.026034 
L 166.957216 146.026034 
L 166.957216 151.107131 
L 167.971761 151.107131 
L 167.971761 160.372661 
L 168.986307 160.372661 
L 168.986307 167.247087 
L 170.000852 167.247087 
L 170.000852 165.005426 
L 171.015398 165.005426 
L 171.015398 150.882965 
L 172.029943 150.882965 
L 172.029943 150.061023 
L 173.044489 150.061023 
L 173.044489 142.065767 
L 174.059034 142.065767 
L 174.059034 138.777999 
L 175.07358 138.777999 
L 175.07358 134.294678 
L 176.088125 134.294678 
L 176.088125 132.650793 
L 177.10267 132.650793 
L 177.10267 135.415508 
L 178.117216 135.415508 
L 178.117216 139.301053 
L 179.131761 139.301053 
L 179.131761 151.406019 
L 180.146307 151.406019 
L 180.146307 150.957687 
L 181.160852 150.957687 
L 181.160852 159.774885 
L 182.175398 159.774885 
L 182.175398 158.803499 
L 183.189943 158.803499 
L 183.189943 161.642936 
L 184.204489 161.642936 
L 184.204489 165.90209 
L 185.219034 165.90209 
L 185.219034 155.51573 
L 186.23358 155.51573 
L 186.23358 159.251831 
L 187.248125 159.251831 
L 187.248125 154.245456 
L 188.26267 154.245456 
L 188.26267 156.935448 
L 189.277216 156.935448 
L 189.277216 160.970437 
L 190.291761 160.970437 
L 190.291761 164.258206 
L 191.306307 164.258206 
L 191.306307 167.471253 
L 192.320852 167.471253 
L 192.320852 168.293195 
L 193.335398 168.293195 
L 193.335398 162.091268 
L 194.349943 162.091268 
L 194.349943 162.464878 
L 195.364489 162.464878 
L 195.364489 173.67318 
L 196.379034 173.67318 
L 196.379034 173.150126 
L 197.39358 173.150126 
L 197.39358 171.132632 
L 198.408125 171.132632 
L 198.408125 174.196234 
L 199.42267 174.196234 
L 199.42267 181.294826 
L 200.437216 181.294826 
L 200.437216 183.461764 
L 201.451761 183.461764 
L 201.451761 176.736783 
L 202.466307 176.736783 
L 202.466307 177.334559 
L 203.480852 177.334559 
L 203.480852 177.185115 
L 204.495398 177.185115 
L 204.495398 180.69705 
L 205.509943 180.69705 
L 205.509943 191.681186 
L 206.524489 191.681186 
L 206.524489 195.716175 
L 207.539034 195.716175 
L 207.539034 193.026182 
L 208.55358 193.026182 
L 208.55358 191.232854 
L 209.568125 191.232854 
L 209.568125 193.997569 
L 210.58267 193.997569 
L 210.58267 192.57785 
L 211.597216 192.57785 
L 211.597216 194.744789 
L 212.611761 194.744789 
L 212.611761 195.566731 
L 214.640852 195.492009 
L 214.640852 197.883113 
L 215.655398 197.883113 
L 215.655398 194.147013 
L 216.669943 194.147013 
L 216.669943 189.514248 
L 217.684489 189.514248 
L 217.684489 191.681186 
L 218.699034 191.681186 
L 218.699034 190.261468 
L 219.71358 190.261468 
L 219.71358 187.870363 
L 220.728125 187.870363 
L 220.728125 182.19149 
L 221.74267 182.19149 
L 221.74267 184.134262 
L 222.757216 184.134262 
L 222.757216 187.496753 
L 223.771761 187.496753 
L 223.771761 190.485634 
L 224.786307 190.485634 
L 224.786307 193.922847 
L 226.815398 193.997569 
L 226.815398 194.371179 
L 227.829943 194.371179 
L 227.829943 195.193121 
L 228.844489 195.193121 
L 228.844489 196.164507 
L 229.859034 196.164507 
L 229.859034 195.566731 
L 230.87358 195.566731 
L 230.87358 200.050052 
L 231.888125 200.050052 
L 231.888125 201.693936 
L 232.90267 201.693936 
L 232.90267 200.199496 
L 233.917216 200.199496 
L 233.917216 200.573106 
L 234.931761 200.573106 
L 234.931761 202.515878 
L 235.946307 202.515878 
L 235.946307 201.170882 
L 236.960852 201.170882 
L 236.960852 203.487265 
L 238.989943 203.561987 
L 238.989943 205.131149 
L 240.004489 205.131149 
L 240.004489 205.953091 
L 241.019034 205.953091 
L 241.019034 205.504759 
L 242.03358 205.504759 
L 242.03358 204.981705 
L 243.048125 204.981705 
L 243.048125 205.803647 
L 244.06267 205.803647 
L 244.06267 207.148643 
L 245.077216 207.148643 
L 245.077216 210.212246 
L 246.091761 210.212246 
L 246.091761 209.091416 
L 247.106307 209.091416 
L 247.106307 210.36169 
L 248.120852 210.36169 
L 248.120852 211.48252 
L 249.135398 211.48252 
L 249.135398 212.379185 
L 250.149943 212.379185 
L 250.149943 212.229741 
L 251.164489 212.229741 
L 251.164489 210.884744 
L 252.179034 210.884744 
L 252.179034 211.557242 
L 253.19358 211.557242 
L 253.19358 212.827517 
L 254.208125 212.827517 
L 254.208125 214.396679 
L 256.237216 214.321957 
L 256.237216 214.620845 
L 257.251761 214.620845 
L 257.251761 212.528629 
L 258.266307 212.528629 
L 258.266307 210.884744 
L 259.280852 210.884744 
L 259.280852 211.258354 
L 260.295398 211.258354 
L 260.295398 208.792528 
L 261.309943 208.792528 
L 261.309943 205.504759 
L 262.324489 205.504759 
L 262.324489 205.131149 
L 263.339034 205.131149 
L 263.339034 203.038933 
L 264.35358 203.038933 
L 264.35358 205.878369 
L 266.38267 205.953091 
L 266.38267 208.344196 
L 267.397216 208.344196 
L 267.397216 208.643084 
L 268.411761 208.643084 
L 268.411761 207.74642 
L 269.426307 207.74642 
L 269.426307 208.418918 
L 270.440852 208.418918 
L 270.440852 207.895864 
L 271.455398 207.895864 
L 271.455398 209.315582 
L 272.469943 209.315582 
L 272.469943 209.166138 
L 273.484489 209.166138 
L 273.484489 210.959466 
L 274.499034 210.959466 
L 274.499034 211.10891 
L 275.51358 211.10891 
L 275.51358 210.959466 
L 277.54267 210.884744 
L 277.54267 208.643084 
L 278.557216 208.643084 
L 278.557216 212.005574 
L 279.571761 212.005574 
L 279.571761 211.557242 
L 280.586307 211.557242 
L 280.586307 212.752795 
L 281.600852 212.752795 
L 281.600852 213.724181 
L 282.615398 213.724181 
L 282.615398 214.919733 
L 283.629943 214.919733 
L 283.629943 213.201127 
L 284.644489 213.201127 
L 284.644489 213.574737 
L 285.659034 213.574737 
L 285.659034 213.798903 
L 286.67358 213.798903 
L 286.67358 214.471401 
L 287.688125 214.471401 
L 287.688125 215.368065 
L 288.70267 215.368065 
L 288.70267 214.994455 
L 289.717216 214.994455 
L 289.717216 215.517509 
L 290.731761 215.517509 
L 290.731761 215.368065 
L 291.746307 215.368065 
L 291.746307 216.190007 
L 292.760852 216.190007 
L 292.760852 216.339451 
L 294.789943 216.339451 
L 294.789943 216.713062 
L 296.819034 216.63834 
L 296.819034 216.339451 
L 297.83358 216.339451 
L 297.83358 216.115285 
L 298.848125 216.115285 
L 298.848125 215.741675 
L 299.86267 215.741675 
L 299.86267 215.592231 
L 300.877216 215.592231 
L 300.877216 214.845011 
L 301.891761 214.845011 
L 301.891761 212.902239 
L 302.906307 212.902239 
L 302.906307 213.275849 
L 303.920852 213.275849 
L 303.920852 210.7353 
L 304.935398 210.7353 
L 304.935398 210.36169 
L 305.949943 210.36169 
L 305.949943 206.849755 
L 306.964489 206.849755 
L 306.964489 201.46977 
L 307.979034 201.46977 
L 307.979034 204.533373 
L 308.99358 204.533373 
L 308.99358 205.654203 
L 310.008125 205.654203 
L 310.008125 203.711431 
L 311.02267 203.711431 
L 311.02267 204.832261 
L 312.037216 204.832261 
L 312.037216 201.320326 
L 313.051761 201.320326 
L 313.051761 204.085041 
L 314.066307 204.085041 
L 314.066307 206.177257 
L 315.080852 206.177257 
L 315.080852 206.027813 
L 316.095398 206.027813 
L 316.095398 203.561987 
L 317.109943 203.561987 
L 317.109943 206.401423 
L 318.124489 206.401423 
L 318.124489 206.177257 
L 319.139034 206.177257 
L 319.139034 204.757539 
L 320.15358 204.757539 
L 320.15358 207.447532 
L 321.168125 207.447532 
L 321.168125 207.073921 
L 322.18267 207.073921 
L 322.18267 201.245604 
L 323.197216 201.245604 
L 323.197216 201.619214 
L 324.211761 201.619214 
L 324.211761 208.49364 
L 325.226307 208.49364 
L 325.226307 210.585856 
L 326.240852 210.585856 
L 326.240852 207.447532 
L 327.255398 207.447532 
L 327.255398 204.159763 
L 328.269943 204.159763 
L 328.269943 207.148643 
L 329.284489 207.148643 
L 329.284489 210.212246 
L 330.299034 210.212246 
L 330.299034 205.803647 
L 331.31358 205.803647 
L 331.31358 206.849755 
L 332.328125 206.849755 
L 332.328125 211.333076 
L 333.34267 211.333076 
L 333.34267 211.930852 
L 334.357216 211.930852 
L 334.357216 205.579481 
L 335.371761 205.579481 
L 335.371761 206.102535 
L 336.386307 206.102535 
L 336.386307 211.706686 
L 337.400852 211.706686 
L 337.400852 210.7353 
L 338.415398 210.7353 
L 338.415398 209.838636 
L 339.429943 209.838636 
L 339.429943 211.333076 
L 340.444489 211.333076 
L 340.444489 213.649459 
L 341.459034 213.649459 
L 341.459034 212.976961 
L 342.47358 212.976961 
L 342.47358 211.407798 
L 343.488125 211.407798 
L 343.488125 210.959466 
L 344.50267 210.959466 
L 344.50267 212.976961 
L 345.517216 212.976961 
L 345.517216 214.023069 
L 346.531761 214.023069 
L 346.531761 214.919733 
L 347.546307 214.919733 
L 347.546307 215.517509 
L 348.560852 215.517509 
L 348.560852 215.143899 
L 349.575398 215.143899 
L 349.575398 215.891119 
L 350.589943 215.891119 
L 350.589943 217.310838 
L 351.604489 217.310838 
L 351.604489 218.581112 
L 352.619034 218.581112 
L 352.619034 218.88 
L 372.909943 218.88 
L 372.909943 218.88 
" clip-path="url(#pb8e2927e97)" style="fill: none; stroke: #1f77b4; stroke-width: 1.5; stroke-linecap: square"/>
   </g>
   <g id="line2d_17">
    <path d="M 68.546307 212.005574 
L 69.560852 212.005574 
L 69.560852 186.749533 
L 70.575398 186.749533 
L 70.575398 161.79238 
L 71.589943 161.79238 
L 71.589943 127.420252 
L 72.604489 127.420252 
L 72.604489 101.865322 
L 73.619034 101.865322 
L 73.619034 89.461468 
L 74.63358 89.461468 
L 74.63358 92.450348 
L 75.648125 92.450348 
L 75.648125 88.041749 
L 76.66267 88.041749 
L 76.66267 81.615656 
L 77.677216 81.615656 
L 77.677216 85.426479 
L 78.691761 85.426479 
L 78.691761 80.64427 
L 79.706307 80.64427 
L 79.706307 71.079852 
L 80.720852 71.079852 
L 80.720852 67.269029 
L 81.735398 67.269029 
L 81.735398 53.5949 
L 82.749943 53.5949 
L 82.749943 50.456575 
L 83.764489 50.456575 
L 83.764489 48.065471 
L 84.779034 48.065471 
L 84.779034 44.553536 
L 85.79358 44.553536 
L 85.79358 46.272142 
L 86.808125 46.272142 
L 86.808125 37.828554 
L 87.82267 37.828554 
L 87.82267 31.327739 
L 88.837216 31.327739 
L 88.837216 27.143306 
L 89.851761 27.143306 
L 89.851761 17.952498 
L 91.880852 18.02722 
L 91.880852 25.723588 
L 92.895398 25.723588 
L 92.895398 24.602758 
L 93.909943 24.602758 
L 93.909943 31.925515 
L 94.924489 31.925515 
L 94.924489 27.068584 
L 95.939034 27.068584 
L 95.939034 28.787191 
L 96.95358 28.787191 
L 96.95358 29.086079 
L 98.98267 29.086079 
L 98.98267 35.736338 
L 99.997216 35.736338 
L 99.997216 41.714099 
L 101.011761 41.714099 
L 101.011761 47.542417 
L 102.026307 47.542417 
L 102.026307 56.359615 
L 103.040852 56.359615 
L 103.040852 65.774589 
L 104.055398 65.774589 
L 104.055398 66.970141 
L 105.069943 66.970141 
L 105.069943 80.569548 
L 106.084489 80.569548 
L 106.084489 90.65702 
L 107.099034 90.65702 
L 107.099034 100.819214 
L 108.11358 100.819214 
L 108.11358 106.572809 
L 109.128125 106.572809 
L 109.128125 114.045011 
L 110.14267 114.045011 
L 110.14267 120.695271 
L 111.157216 120.695271 
L 111.157216 129.21358 
L 112.171761 129.21358 
L 112.171761 140.944937 
L 113.186307 140.944937 
L 113.186307 144.979926 
L 114.200852 144.979926 
L 114.200852 151.854351 
L 115.215398 151.854351 
L 115.215398 159.027665 
L 116.229943 159.027665 
L 116.229943 165.080148 
L 117.244489 165.080148 
L 117.244489 171.730408 
L 118.259034 171.730408 
L 118.259034 182.5651 
L 120.288125 182.639822 
L 120.288125 178.081779 
L 121.30267 178.081779 
L 121.30267 160.671549 
L 122.317216 160.671549 
L 122.317216 144.232706 
L 123.331761 144.232706 
L 123.331761 134.817732 
L 124.346307 134.817732 
L 124.346307 123.235819 
L 125.360852 123.235819 
L 125.360852 101.715878 
L 126.375398 101.715878 
L 126.375398 90.881186 
L 127.389943 90.881186 
L 127.389943 92.973403 
L 128.404489 92.973403 
L 128.404489 91.628406 
L 129.419034 91.628406 
L 129.419034 93.720623 
L 130.43358 93.720623 
L 130.43358 94.766731 
L 131.448125 94.766731 
L 131.448125 97.905056 
L 132.46267 97.905056 
L 132.46267 98.278666 
L 133.477216 98.278666 
L 133.477216 97.157835 
L 134.491761 97.157835 
L 134.491761 99.54894 
L 135.506307 99.54894 
L 135.506307 103.359763 
L 136.520852 103.359763 
L 136.520852 110.607798 
L 137.535398 110.607798 
L 137.535398 105.302535 
L 138.549943 105.302535 
L 138.549943 109.636412 
L 139.564489 109.636412 
L 139.564489 112.475849 
L 140.579034 112.475849 
L 140.579034 110.607798 
L 141.59358 110.607798 
L 141.59358 105.750867 
L 142.608125 105.750867 
L 142.608125 108.81447 
L 143.62267 108.81447 
L 143.62267 115.913062 
L 145.651761 115.987784 
L 145.651761 118.378888 
L 146.666307 118.378888 
L 146.666307 119.499718 
L 147.680852 119.499718 
L 147.680852 128.615804 
L 148.695398 128.615804 
L 148.695398 122.114989 
L 149.709943 122.114989 
L 149.709943 125.552202 
L 150.724489 125.552202 
L 150.724489 123.983039 
L 151.739034 123.983039 
L 151.739034 124.730259 
L 152.75358 124.730259 
L 152.75358 130.782743 
L 153.768125 130.782743 
L 153.768125 128.541082 
L 154.78267 128.541082 
L 154.78267 129.960801 
L 155.797216 129.960801 
L 155.797216 132.277183 
L 156.811761 132.277183 
L 156.811761 131.156353 
L 157.826307 131.156353 
L 157.826307 132.277183 
L 158.840852 132.277183 
L 158.840852 133.771623 
L 159.855398 133.771623 
L 159.855398 139.824107 
L 160.869943 139.824107 
L 160.869943 140.347161 
L 161.884489 140.347161 
L 161.884489 136.909948 
L 162.899034 136.909948 
L 162.899034 144.905204 
L 163.91358 144.905204 
L 163.91358 145.801868 
L 164.928125 145.801868 
L 164.928125 152.003795 
L 165.94267 152.003795 
L 165.94267 152.452128 
L 166.957216 152.452128 
L 166.957216 155.067398 
L 167.971761 155.067398 
L 167.971761 159.102387 
L 168.986307 159.102387 
L 168.986307 156.113506 
L 170.000852 156.113506 
L 170.000852 157.533225 
L 171.015398 157.533225 
L 171.015398 149.239081 
L 172.029943 149.239081 
L 172.029943 144.905204 
L 173.044489 144.905204 
L 173.044489 138.404388 
L 174.059034 138.404388 
L 174.059034 142.289933 
L 175.07358 142.289933 
L 175.07358 139.525219 
L 176.088125 139.525219 
L 176.088125 140.347161 
L 177.10267 140.347161 
L 177.10267 135.191342 
L 178.117216 135.191342 
L 178.117216 141.169103 
L 179.131761 141.169103 
L 179.131761 146.399644 
L 180.146307 146.399644 
L 180.146307 151.704907 
L 181.160852 151.704907 
L 181.160852 155.51573 
L 182.175398 155.51573 
L 182.175398 153.572958 
L 183.189943 153.572958 
L 183.189943 157.458503 
L 184.204489 157.458503 
L 184.204489 161.568213 
L 185.219034 161.568213 
L 185.219034 160.820993 
L 186.23358 160.820993 
L 186.23358 161.194603 
L 187.248125 161.194603 
L 187.248125 156.711282 
L 188.26267 156.711282 
L 188.26267 158.654055 
L 189.277216 158.654055 
L 189.277216 160.223217 
L 190.291761 160.223217 
L 190.291761 165.080148 
L 192.320852 165.080148 
L 192.320852 170.609577 
L 193.335398 170.609577 
L 193.335398 163.66043 
L 194.349943 163.66043 
L 194.349943 170.011801 
L 195.364489 170.011801 
L 195.364489 169.712913 
L 196.379034 169.712913 
L 196.379034 172.402906 
L 197.39358 172.402906 
L 197.39358 175.989563 
L 199.42267 175.914841 
L 199.42267 178.081779 
L 201.451761 178.081779 
L 201.451761 179.501497 
L 202.466307 179.501497 
L 202.466307 181.593714 
L 203.480852 181.593714 
L 203.480852 184.507872 
L 204.495398 184.507872 
L 204.495398 187.347309 
L 205.509943 187.347309 
L 205.509943 185.255093 
L 206.524489 185.255093 
L 206.524489 189.439526 
L 207.539034 189.439526 
L 207.539034 187.272587 
L 208.55358 187.272587 
L 208.55358 190.7098 
L 209.568125 190.7098 
L 209.568125 191.307576 
L 210.58267 191.307576 
L 210.58267 195.716175 
L 211.597216 195.716175 
L 211.597216 192.652572 
L 212.611761 192.652572 
L 212.611761 195.267843 
L 213.626307 195.267843 
L 213.626307 197.733669 
L 214.640852 197.733669 
L 214.640852 192.727294 
L 215.655398 192.727294 
L 215.655398 194.221735 
L 216.669943 194.221735 
L 216.669943 190.112024 
L 217.684489 190.112024 
L 217.684489 188.468139 
L 219.71358 188.468139 
L 219.71358 184.806761 
L 220.728125 184.806761 
L 220.728125 186.898977 
L 221.74267 186.898977 
L 221.74267 188.169251 
L 222.757216 188.169251 
L 222.757216 187.272587 
L 224.786307 187.272587 
L 224.786307 191.681186 
L 225.800852 191.681186 
L 225.800852 194.894233 
L 227.829943 194.819511 
L 227.829943 195.267843 
L 228.844489 195.267843 
L 228.844489 196.089785 
L 229.859034 196.089785 
L 229.859034 201.170882 
L 230.87358 201.170882 
L 230.87358 198.555612 
L 231.888125 198.555612 
L 231.888125 197.061171 
L 232.90267 197.061171 
L 232.90267 201.170882 
L 233.917216 201.170882 
L 233.917216 201.693936 
L 234.931761 201.693936 
L 234.931761 202.515878 
L 235.946307 202.515878 
L 235.946307 201.245604 
L 236.960852 201.245604 
L 236.960852 203.561987 
L 237.975398 203.561987 
L 237.975398 203.337821 
L 238.989943 203.337821 
L 238.989943 203.860875 
L 240.004489 203.860875 
L 240.004489 204.608095 
L 241.019034 204.608095 
L 241.019034 207.148643 
L 242.03358 207.148643 
L 242.03358 206.550867 
L 243.048125 206.550867 
L 243.048125 207.74642 
L 244.06267 207.74642 
L 244.06267 207.895864 
L 245.077216 207.895864 
L 245.077216 209.390304 
L 246.091761 209.390304 
L 246.091761 209.016694 
L 247.106307 209.016694 
L 247.106307 208.643084 
L 248.120852 208.643084 
L 248.120852 210.511134 
L 249.135398 210.511134 
L 249.135398 210.7353 
L 250.149943 210.7353 
L 250.149943 212.304463 
L 251.164489 212.304463 
L 251.164489 211.034188 
L 252.179034 211.034188 
L 252.179034 212.678073 
L 253.19358 212.678073 
L 253.19358 213.425293 
L 254.208125 213.425293 
L 254.208125 213.873625 
L 255.22267 213.873625 
L 255.22267 213.724181 
L 256.237216 213.724181 
L 256.237216 212.528629 
L 257.251761 212.528629 
L 257.251761 210.884744 
L 258.266307 210.884744 
L 258.266307 210.436412 
L 259.280852 210.436412 
L 259.280852 209.689192 
L 260.295398 209.689192 
L 260.295398 208.344196 
L 261.309943 208.344196 
L 261.309943 207.447532 
L 262.324489 207.447532 
L 262.324489 206.027813 
L 263.339034 206.027813 
L 263.339034 205.205871 
L 265.368125 205.280593 
L 265.368125 205.056427 
L 266.38267 205.056427 
L 266.38267 208.643084 
L 267.397216 208.643084 
L 267.397216 208.49364 
L 269.426307 208.418918 
L 269.426307 209.016694 
L 270.440852 209.016694 
L 270.440852 207.671698 
L 271.455398 207.671698 
L 271.455398 209.539748 
L 272.469943 209.539748 
L 272.469943 208.194752 
L 273.484489 208.194752 
L 273.484489 210.959466 
L 274.499034 210.959466 
L 274.499034 211.333076 
L 275.51358 211.333076 
L 275.51358 210.511134 
L 276.528125 210.511134 
L 276.528125 210.286968 
L 277.54267 210.286968 
L 277.54267 211.407798 
L 278.557216 211.407798 
L 278.557216 212.379185 
L 279.571761 212.379185 
L 279.571761 211.706686 
L 280.586307 211.706686 
L 280.586307 212.603351 
L 281.600852 212.603351 
L 281.600852 212.902239 
L 282.615398 212.902239 
L 282.615398 213.798903 
L 283.629943 213.798903 
L 283.629943 213.275849 
L 284.644489 213.275849 
L 284.644489 213.500015 
L 285.659034 213.500015 
L 285.659034 214.396679 
L 287.688125 214.396679 
L 287.688125 214.546123 
L 288.70267 214.546123 
L 288.70267 215.293343 
L 291.746307 215.293343 
L 291.746307 215.891119 
L 292.760852 215.891119 
L 292.760852 216.264729 
L 293.775398 216.264729 
L 293.775398 216.488895 
L 294.789943 216.488895 
L 294.789943 216.787784 
L 295.804489 216.787784 
L 295.804489 216.488895 
L 296.819034 216.488895 
L 296.819034 215.293343 
L 297.83358 215.293343 
L 297.83358 216.190007 
L 298.848125 216.190007 
L 298.848125 215.218621 
L 299.86267 215.218621 
L 299.86267 214.471401 
L 300.877216 214.471401 
L 300.877216 213.275849 
L 301.891761 213.275849 
L 301.891761 212.453907 
L 302.906307 212.453907 
L 302.906307 210.585856 
L 303.920852 210.585856 
L 303.920852 210.959466 
L 304.935398 210.959466 
L 304.935398 208.643084 
L 305.949943 208.643084 
L 305.949943 208.86725 
L 306.964489 208.86725 
L 306.964489 207.671698 
L 307.979034 207.671698 
L 307.979034 205.430037 
L 308.99358 205.430037 
L 308.99358 205.654203 
L 310.008125 205.654203 
L 310.008125 205.280593 
L 311.02267 205.280593 
L 311.02267 203.860875 
L 312.037216 203.860875 
L 312.037216 204.085041 
L 313.051761 204.085041 
L 313.051761 204.682817 
L 314.066307 204.682817 
L 314.066307 203.711431 
L 315.080852 203.711431 
L 315.080852 204.234485 
L 316.095398 204.234485 
L 316.095398 202.740044 
L 317.109943 202.740044 
L 317.109943 203.337821 
L 318.124489 203.337821 
L 318.124489 207.073921 
L 319.139034 207.073921 
L 319.139034 205.654203 
L 320.15358 205.654203 
L 320.15358 203.935597 
L 321.168125 203.935597 
L 321.168125 205.728925 
L 322.18267 205.728925 
L 322.18267 205.504759 
L 323.197216 205.504759 
L 323.197216 205.803647 
L 324.211761 205.803647 
L 324.211761 207.74642 
L 325.226307 207.74642 
L 325.226307 208.269474 
L 326.240852 208.269474 
L 326.240852 206.775033 
L 327.255398 206.775033 
L 327.255398 207.073921 
L 328.269943 207.073921 
L 328.269943 207.821142 
L 329.284489 207.821142 
L 329.284489 207.970586 
L 330.299034 207.970586 
L 330.299034 208.418918 
L 331.31358 208.418918 
L 331.31358 206.924477 
L 332.328125 206.924477 
L 332.328125 209.016694 
L 333.34267 209.016694 
L 333.34267 209.465026 
L 334.357216 209.465026 
L 334.357216 208.792528 
L 335.371761 208.792528 
L 335.371761 209.61447 
L 336.386307 209.61447 
L 336.386307 210.36169 
L 337.400852 210.36169 
L 337.400852 210.660578 
L 338.415398 210.660578 
L 338.415398 210.810022 
L 339.429943 210.810022 
L 339.429943 210.660578 
L 340.444489 210.660578 
L 340.444489 210.884744 
L 341.459034 210.884744 
L 341.459034 211.034188 
L 342.47358 211.034188 
L 342.47358 212.155019 
L 344.50267 212.229741 
L 344.50267 213.425293 
L 345.517216 213.425293 
L 345.517216 213.724181 
L 346.531761 213.724181 
L 346.531761 214.695567 
L 347.546307 214.695567 
L 347.546307 215.143899 
L 348.560852 215.143899 
L 348.560852 215.741675 
L 349.575398 215.741675 
L 349.575398 215.965841 
L 350.589943 215.965841 
L 350.589943 217.086672 
L 351.604489 217.086672 
L 351.604489 217.833892 
L 352.619034 217.833892 
L 352.619034 218.581112 
L 353.63358 218.581112 
L 353.63358 218.805278 
L 372.909943 218.88 
L 372.909943 218.88 
" clip-path="url(#pb8e2927e97)" style="fill: none; stroke: #ff7f0e; stroke-width: 1.5; stroke-linecap: square"/>
   </g>
   <g id="patch_3">
    <path d="M 53.328125 228.96 
L 53.328125 7.2 
" style="fill: none; stroke: #000000; stroke-width: 0.8; stroke-linejoin: miter; stroke-linecap: square"/>
   </g>
   <g id="patch_4">
    <path d="M 388.128125 228.96 
L 388.128125 7.2 
" style="fill: none; stroke: #000000; stroke-width: 0.8; stroke-linejoin: miter; stroke-linecap: square"/>
   </g>
   <g id="patch_5">
    <path d="M 53.328125 228.96 
L 388.128125 228.96 
" style="fill: none; stroke: #000000; stroke-width: 0.8; stroke-linejoin: miter; stroke-linecap: square"/>
   </g>
   <g id="patch_6">
    <path d="M 53.328125 7.2 
L 388.128125 7.2 
" style="fill: none; stroke: #000000; stroke-width: 0.8; stroke-linejoin: miter; stroke-linecap: square"/>
   </g>
   <g id="legend_1">
    <g id="patch_7">
     <path d="M 284.125 44.834375 
L 381.128125 44.834375 
Q 383.128125 44.834375 383.128125 42.834375 
L 383.128125 14.2 
Q 383.128125 12.2 381.128125 12.2 
L 284.125 12.2 
Q 282.125 12.2 282.125 14.2 
L 282.125 42.834375 
Q 282.125 44.834375 284.125 44.834375 
z
" style="fill: #ffffff; opacity: 0.8; stroke: #cccccc; stroke-linejoin: miter"/>
    </g>
    <g id="line2d_18">
     <path d="M 286.125 20.298437 
L 286.125 20.298437 
L 296.125 20.298437 
L 296.125 20.298437 
L 306.125 20.298437 
" style="fill: none; stroke: #1f77b4; stroke-width: 1.5; stroke-linecap: square"/>
    </g>
    <g id="text_18">
     <!-- wfm -->
     <g transform="translate(314.125 23.798437) scale(0.1 -0.1)">
      <defs>
       <path id="DejaVuSans-66" d="M 2375 4863 
L 2375 4384 
L 1825 4384 
Q 1516 4384 1395 4259 
Q 1275 4134 1275 3809 
L 1275 3500 
L 2222 3500 
L 2222 3053 
L 1275 3053 
L 1275 0 
L 697 0 
L 697 3053 
L 147 3053 
L 147 3500 
L 697 3500 
L 697 3744 
Q 697 4328 969 4595 
Q 1241 4863 1831 4863 
L 2375 4863 
z
" transform="scale(0.015625)"/>
       <path id="DejaVuSans-6d" d="M 3328 2828 
Q 3544 3216 3844 3400 
Q 4144 3584 4550 3584 
Q 5097 3584 5394 3201 
Q 5691 2819 5691 2113 
L 5691 0 
L 5113 0 
L 5113 2094 
Q 5113 2597 4934 2840 
Q 4756 3084 4391 3084 
Q 3944 3084 3684 2787 
Q 3425 2491 3425 1978 
L 3425 0 
L 2847 0 
L 2847 2094 
Q 2847 2600 2669 2842 
Q 2491 3084 2119 3084 
Q 1678 3084 1418 2786 
Q 1159 2488 1159 1978 
L 1159 0 
L 581 0 
L 581 3500 
L 1159 3500 
L 1159 2956 
Q 1356 3278 1631 3431 
Q 1906 3584 2284 3584 
Q 2666 3584 2933 3390 
Q 3200 3197 3328 2828 
z
" transform="scale(0.015625)"/>
      </defs>
      <use xlink:href="#DejaVuSans-77"/>
      <use xlink:href="#DejaVuSans-66" transform="translate(81.787109 0)"/>
      <use xlink:href="#DejaVuSans-6d" transform="translate(116.992188 0)"/>
     </g>
    </g>
    <g id="line2d_19">
     <path d="M 286.125 34.976562 
L 286.125 34.976562 
L 296.125 34.976562 
L 296.125 34.976562 
L 306.125 34.976562 
" style="fill: none; stroke: #ff7f0e; stroke-width: 1.5; stroke-linecap: square"/>
    </g>
    <g id="text_19">
     <!-- ground_truth -->
     <g transform="translate(314.125 38.476562) scale(0.1 -0.1)">
      <defs>
       <path id="DejaVuSans-72" d="M 2631 2963 
Q 2534 3019 2420 3045 
Q 2306 3072 2169 3072 
Q 1681 3072 1420 2755 
Q 1159 2438 1159 1844 
L 1159 0 
L 581 0 
L 581 3500 
L 1159 3500 
L 1159 2956 
Q 1341 3275 1631 3429 
Q 1922 3584 2338 3584 
Q 2397 3584 2469 3576 
Q 2541 3569 2628 3553 
L 2631 2963 
z
" transform="scale(0.015625)"/>
       <path id="DejaVuSans-64" d="M 2906 2969 
L 2906 4863 
L 3481 4863 
L 3481 0 
L 2906 0 
L 2906 525 
Q 2725 213 2448 61 
Q 2172 -91 1784 -91 
Q 1150 -91 751 415 
Q 353 922 353 1747 
Q 353 2572 751 3078 
Q 1150 3584 1784 3584 
Q 2172 3584 2448 3432 
Q 2725 3281 2906 2969 
z
M 947 1747 
Q 947 1113 1208 752 
Q 1469 391 1925 391 
Q 2381 391 2643 752 
Q 2906 1113 2906 1747 
Q 2906 2381 2643 2742 
Q 2381 3103 1925 3103 
Q 1469 3103 1208 2742 
Q 947 2381 947 1747 
z
" transform="scale(0.015625)"/>
       <path id="DejaVuSans-5f" d="M 3263 -1063 
L 3263 -1509 
L -63 -1509 
L -63 -1063 
L 3263 -1063 
z
" transform="scale(0.015625)"/>
      </defs>
      <use xlink:href="#DejaVuSans-67"/>
      <use xlink:href="#DejaVuSans-72" transform="translate(63.476562 0)"/>
      <use xlink:href="#DejaVuSans-6f" transform="translate(102.339844 0)"/>
      <use xlink:href="#DejaVuSans-75" transform="translate(163.521484 0)"/>
      <use xlink:href="#DejaVuSans-6e" transform="translate(226.900391 0)"/>
      <use xlink:href="#DejaVuSans-64" transform="translate(290.279297 0)"/>
      <use xlink:href="#DejaVuSans-5f" transform="translate(353.755859 0)"/>
      <use xlink:href="#DejaVuSans-74" transform="translate(403.755859 0)"/>
      <use xlink:href="#DejaVuSans-72" transform="translate(442.964844 0)"/>
      <use xlink:href="#DejaVuSans-75" transform="translate(484.078125 0)"/>
      <use xlink:href="#DejaVuSans-74" transform="translate(547.457031 0)"/>
      <use xlink:href="#DejaVuSans-68" transform="translate(586.666016 0)"/>
     </g>
    </g>
   </g>
  </g>
 </g>
 <defs>
  <clipPath id="pb8e2927e97">
   <rect x="53.328125" y="7.2" width="334.8" height="221.76"/>
  </clipPath>
 </defs>
</svg>
