<?xml version="1.0" encoding="utf-8" standalone="no"?>
<!DOCTYPE svg PUBLIC "-//W3C//DTD SVG 1.1//EN"
  "http://www.w3.org/Graphics/SVG/1.1/DTD/svg11.dtd">
<svg xmlns:xlink="http://www.w3.org/1999/xlink" width="388.965625pt" height="266.794375pt" viewBox="0 0 388.965625 266.794375" xmlns="http://www.w3.org/2000/svg" version="1.1">
 <metadata>
  <rdf:RDF xmlns:dc="http://purl.org/dc/elements/1.1/" xmlns:cc="http://creativecommons.org/ns#" xmlns:rdf="http://www.w3.org/1999/02/22-rdf-syntax-ns#">
   <cc:Work>
    <dc:type rdf:resource="http://purl.org/dc/dcmitype/StillImage"/>
    <dc:date>2025-04-10T08:50:58.363643</dc:date>
    <dc:format>image/svg+xml</dc:format>
    <dc:creator>
     <cc:Agent>
      <dc:title>Matplotlib v3.10.1, https://matplotlib.org/</dc:title>
     </cc:Agent>
    </dc:creator>
   </cc:Work>
  </rdf:RDF>
 </metadata>
 <defs>
  <style type="text/css">*{stroke-linejoin: round; stroke-linecap: butt}</style>
 </defs>
 <g id="figure_1">
  <g id="patch_1">
   <path d="M 0 266.794375 
L 388.965625 266.794375 
L 388.965625 0 
L 0 0 
z
" style="fill: #ffffff"/>
  </g>
  <g id="axes_1">
   <g id="patch_2">
    <path d="M 46.965625 228.96 
L 381.765625 228.96 
L 381.765625 7.2 
L 46.965625 7.2 
z
" style="fill: #ffffff"/>
   </g>
   <g id="matplotlib.axis_1">
    <g id="xtick_1">
     <g id="line2d_1">
      <defs>
       <path id="m14e34f82d6" d="M 0 0 
L 0 3.5 
" style="stroke: #000000; stroke-width: 0.8"/>
      </defs>
      <g>
       <use xlink:href="#m14e34f82d6" x="62.182728" y="228.96" style="stroke: #000000; stroke-width: 0.8"/>
      </g>
     </g>
     <g id="text_1">
      <!-- 0 -->
      <g transform="translate(59.001478 243.558437) scale(0.1 -0.1)">
       <defs>
        <path id="DejaVuSans-30" d="M 2034 4250 
Q 1547 4250 1301 3770 
Q 1056 3291 1056 2328 
Q 1056 1369 1301 889 
Q 1547 409 2034 409 
Q 2525 409 2770 889 
Q 3016 1369 3016 2328 
Q 3016 3291 2770 3770 
Q 2525 4250 2034 4250 
z
M 2034 4750 
Q 2819 4750 3233 4129 
Q 3647 3509 3647 2328 
Q 3647 1150 3233 529 
Q 2819 -91 2034 -91 
Q 1250 -91 836 529 
Q 422 1150 422 2328 
Q 422 3509 836 4129 
Q 1250 4750 2034 4750 
z
" transform="scale(0.015625)"/>
       </defs>
       <use xlink:href="#DejaVuSans-30"/>
      </g>
     </g>
    </g>
    <g id="xtick_2">
     <g id="line2d_2">
      <g>
       <use xlink:href="#m14e34f82d6" x="104.793819" y="228.96" style="stroke: #000000; stroke-width: 0.8"/>
      </g>
     </g>
     <g id="text_2">
      <!-- 10000 -->
      <g transform="translate(88.887569 243.558437) scale(0.1 -0.1)">
       <defs>
        <path id="DejaVuSans-31" d="M 794 531 
L 1825 531 
L 1825 4091 
L 703 3866 
L 703 4441 
L 1819 4666 
L 2450 4666 
L 2450 531 
L 3481 531 
L 3481 0 
L 794 0 
L 794 531 
z
" transform="scale(0.015625)"/>
       </defs>
       <use xlink:href="#DejaVuSans-31"/>
       <use xlink:href="#DejaVuSans-30" transform="translate(63.623047 0)"/>
       <use xlink:href="#DejaVuSans-30" transform="translate(127.246094 0)"/>
       <use xlink:href="#DejaVuSans-30" transform="translate(190.869141 0)"/>
       <use xlink:href="#DejaVuSans-30" transform="translate(254.492188 0)"/>
      </g>
     </g>
    </g>
    <g id="xtick_3">
     <g id="line2d_3">
      <g>
       <use xlink:href="#m14e34f82d6" x="147.404911" y="228.96" style="stroke: #000000; stroke-width: 0.8"/>
      </g>
     </g>
     <g id="text_3">
      <!-- 20000 -->
      <g transform="translate(131.498661 243.558437) scale(0.1 -0.1)">
       <defs>
        <path id="DejaVuSans-32" d="M 1228 531 
L 3431 531 
L 3431 0 
L 469 0 
L 469 531 
Q 828 903 1448 1529 
Q 2069 2156 2228 2338 
Q 2531 2678 2651 2914 
Q 2772 3150 2772 3378 
Q 2772 3750 2511 3984 
Q 2250 4219 1831 4219 
Q 1534 4219 1204 4116 
Q 875 4013 500 3803 
L 500 4441 
Q 881 4594 1212 4672 
Q 1544 4750 1819 4750 
Q 2544 4750 2975 4387 
Q 3406 4025 3406 3419 
Q 3406 3131 3298 2873 
Q 3191 2616 2906 2266 
Q 2828 2175 2409 1742 
Q 1991 1309 1228 531 
z
" transform="scale(0.015625)"/>
       </defs>
       <use xlink:href="#DejaVuSans-32"/>
       <use xlink:href="#DejaVuSans-30" transform="translate(63.623047 0)"/>
       <use xlink:href="#DejaVuSans-30" transform="translate(127.246094 0)"/>
       <use xlink:href="#DejaVuSans-30" transform="translate(190.869141 0)"/>
       <use xlink:href="#DejaVuSans-30" transform="translate(254.492188 0)"/>
      </g>
     </g>
    </g>
    <g id="xtick_4">
     <g id="line2d_4">
      <g>
       <use xlink:href="#m14e34f82d6" x="190.016002" y="228.96" style="stroke: #000000; stroke-width: 0.8"/>
      </g>
     </g>
     <g id="text_4">
      <!-- 30000 -->
      <g transform="translate(174.109752 243.558437) scale(0.1 -0.1)">
       <defs>
        <path id="DejaVuSans-33" d="M 2597 2516 
Q 3050 2419 3304 2112 
Q 3559 1806 3559 1356 
Q 3559 666 3084 287 
Q 2609 -91 1734 -91 
Q 1441 -91 1130 -33 
Q 819 25 488 141 
L 488 750 
Q 750 597 1062 519 
Q 1375 441 1716 441 
Q 2309 441 2620 675 
Q 2931 909 2931 1356 
Q 2931 1769 2642 2001 
Q 2353 2234 1838 2234 
L 1294 2234 
L 1294 2753 
L 1863 2753 
Q 2328 2753 2575 2939 
Q 2822 3125 2822 3475 
Q 2822 3834 2567 4026 
Q 2313 4219 1838 4219 
Q 1578 4219 1281 4162 
Q 984 4106 628 3988 
L 628 4550 
Q 988 4650 1302 4700 
Q 1616 4750 1894 4750 
Q 2613 4750 3031 4423 
Q 3450 4097 3450 3541 
Q 3450 3153 3228 2886 
Q 3006 2619 2597 2516 
z
" transform="scale(0.015625)"/>
       </defs>
       <use xlink:href="#DejaVuSans-33"/>
       <use xlink:href="#DejaVuSans-30" transform="translate(63.623047 0)"/>
       <use xlink:href="#DejaVuSans-30" transform="translate(127.246094 0)"/>
       <use xlink:href="#DejaVuSans-30" transform="translate(190.869141 0)"/>
       <use xlink:href="#DejaVuSans-30" transform="translate(254.492188 0)"/>
      </g>
     </g>
    </g>
    <g id="xtick_5">
     <g id="line2d_5">
      <g>
       <use xlink:href="#m14e34f82d6" x="232.627094" y="228.96" style="stroke: #000000; stroke-width: 0.8"/>
      </g>
     </g>
     <g id="text_5">
      <!-- 40000 -->
      <g transform="translate(216.720844 243.558437) scale(0.1 -0.1)">
       <defs>
        <path id="DejaVuSans-34" d="M 2419 4116 
L 825 1625 
L 2419 1625 
L 2419 4116 
z
M 2253 4666 
L 3047 4666 
L 3047 1625 
L 3713 1625 
L 3713 1100 
L 3047 1100 
L 3047 0 
L 2419 0 
L 2419 1100 
L 313 1100 
L 313 1709 
L 2253 4666 
z
" transform="scale(0.015625)"/>
       </defs>
       <use xlink:href="#DejaVuSans-34"/>
       <use xlink:href="#DejaVuSans-30" transform="translate(63.623047 0)"/>
       <use xlink:href="#DejaVuSans-30" transform="translate(127.246094 0)"/>
       <use xlink:href="#DejaVuSans-30" transform="translate(190.869141 0)"/>
       <use xlink:href="#DejaVuSans-30" transform="translate(254.492188 0)"/>
      </g>
     </g>
    </g>
    <g id="xtick_6">
     <g id="line2d_6">
      <g>
       <use xlink:href="#m14e34f82d6" x="275.238186" y="228.96" style="stroke: #000000; stroke-width: 0.8"/>
      </g>
     </g>
     <g id="text_6">
      <!-- 50000 -->
      <g transform="translate(259.331936 243.558437) scale(0.1 -0.1)">
       <defs>
        <path id="DejaVuSans-35" d="M 691 4666 
L 3169 4666 
L 3169 4134 
L 1269 4134 
L 1269 2991 
Q 1406 3038 1543 3061 
Q 1681 3084 1819 3084 
Q 2600 3084 3056 2656 
Q 3513 2228 3513 1497 
Q 3513 744 3044 326 
Q 2575 -91 1722 -91 
Q 1428 -91 1123 -41 
Q 819 9 494 109 
L 494 744 
Q 775 591 1075 516 
Q 1375 441 1709 441 
Q 2250 441 2565 725 
Q 2881 1009 2881 1497 
Q 2881 1984 2565 2268 
Q 2250 2553 1709 2553 
Q 1456 2553 1204 2497 
Q 953 2441 691 2322 
L 691 4666 
z
" transform="scale(0.015625)"/>
       </defs>
       <use xlink:href="#DejaVuSans-35"/>
       <use xlink:href="#DejaVuSans-30" transform="translate(63.623047 0)"/>
       <use xlink:href="#DejaVuSans-30" transform="translate(127.246094 0)"/>
       <use xlink:href="#DejaVuSans-30" transform="translate(190.869141 0)"/>
       <use xlink:href="#DejaVuSans-30" transform="translate(254.492188 0)"/>
      </g>
     </g>
    </g>
    <g id="xtick_7">
     <g id="line2d_7">
      <g>
       <use xlink:href="#m14e34f82d6" x="317.849277" y="228.96" style="stroke: #000000; stroke-width: 0.8"/>
      </g>
     </g>
     <g id="text_7">
      <!-- 60000 -->
      <g transform="translate(301.943027 243.558437) scale(0.1 -0.1)">
       <defs>
        <path id="DejaVuSans-36" d="M 2113 2584 
Q 1688 2584 1439 2293 
Q 1191 2003 1191 1497 
Q 1191 994 1439 701 
Q 1688 409 2113 409 
Q 2538 409 2786 701 
Q 3034 994 3034 1497 
Q 3034 2003 2786 2293 
Q 2538 2584 2113 2584 
z
M 3366 4563 
L 3366 3988 
Q 3128 4100 2886 4159 
Q 2644 4219 2406 4219 
Q 1781 4219 1451 3797 
Q 1122 3375 1075 2522 
Q 1259 2794 1537 2939 
Q 1816 3084 2150 3084 
Q 2853 3084 3261 2657 
Q 3669 2231 3669 1497 
Q 3669 778 3244 343 
Q 2819 -91 2113 -91 
Q 1303 -91 875 529 
Q 447 1150 447 2328 
Q 447 3434 972 4092 
Q 1497 4750 2381 4750 
Q 2619 4750 2861 4703 
Q 3103 4656 3366 4563 
z
" transform="scale(0.015625)"/>
       </defs>
       <use xlink:href="#DejaVuSans-36"/>
       <use xlink:href="#DejaVuSans-30" transform="translate(63.623047 0)"/>
       <use xlink:href="#DejaVuSans-30" transform="translate(127.246094 0)"/>
       <use xlink:href="#DejaVuSans-30" transform="translate(190.869141 0)"/>
       <use xlink:href="#DejaVuSans-30" transform="translate(254.492188 0)"/>
      </g>
     </g>
    </g>
    <g id="xtick_8">
     <g id="line2d_8">
      <g>
       <use xlink:href="#m14e34f82d6" x="360.460369" y="228.96" style="stroke: #000000; stroke-width: 0.8"/>
      </g>
     </g>
     <g id="text_8">
      <!-- 70000 -->
      <g transform="translate(344.554119 243.558437) scale(0.1 -0.1)">
       <defs>
        <path id="DejaVuSans-37" d="M 525 4666 
L 3525 4666 
L 3525 4397 
L 1831 0 
L 1172 0 
L 2766 4134 
L 525 4134 
L 525 4666 
z
" transform="scale(0.015625)"/>
       </defs>
       <use xlink:href="#DejaVuSans-37"/>
       <use xlink:href="#DejaVuSans-30" transform="translate(63.623047 0)"/>
       <use xlink:href="#DejaVuSans-30" transform="translate(127.246094 0)"/>
       <use xlink:href="#DejaVuSans-30" transform="translate(190.869141 0)"/>
       <use xlink:href="#DejaVuSans-30" transform="translate(254.492188 0)"/>
      </g>
     </g>
    </g>
    <g id="text_9">
     <!-- event_time_offset [µs] -->
     <g transform="translate(158.330469 257.236562) scale(0.1 -0.1)">
      <defs>
       <path id="DejaVuSans-65" d="M 3597 1894 
L 3597 1613 
L 953 1613 
Q 991 1019 1311 708 
Q 1631 397 2203 397 
Q 2534 397 2845 478 
Q 3156 559 3463 722 
L 3463 178 
Q 3153 47 2828 -22 
Q 2503 -91 2169 -91 
Q 1331 -91 842 396 
Q 353 884 353 1716 
Q 353 2575 817 3079 
Q 1281 3584 2069 3584 
Q 2775 3584 3186 3129 
Q 3597 2675 3597 1894 
z
M 3022 2063 
Q 3016 2534 2758 2815 
Q 2500 3097 2075 3097 
Q 1594 3097 1305 2825 
Q 1016 2553 972 2059 
L 3022 2063 
z
" transform="scale(0.015625)"/>
       <path id="DejaVuSans-76" d="M 191 3500 
L 800 3500 
L 1894 563 
L 2988 3500 
L 3597 3500 
L 2284 0 
L 1503 0 
L 191 3500 
z
" transform="scale(0.015625)"/>
       <path id="DejaVuSans-6e" d="M 3513 2113 
L 3513 0 
L 2938 0 
L 2938 2094 
Q 2938 2591 2744 2837 
Q 2550 3084 2163 3084 
Q 1697 3084 1428 2787 
Q 1159 2491 1159 1978 
L 1159 0 
L 581 0 
L 581 3500 
L 1159 3500 
L 1159 2956 
Q 1366 3272 1645 3428 
Q 1925 3584 2291 3584 
Q 2894 3584 3203 3211 
Q 3513 2838 3513 2113 
z
" transform="scale(0.015625)"/>
       <path id="DejaVuSans-74" d="M 1172 4494 
L 1172 3500 
L 2356 3500 
L 2356 3053 
L 1172 3053 
L 1172 1153 
Q 1172 725 1289 603 
Q 1406 481 1766 481 
L 2356 481 
L 2356 0 
L 1766 0 
Q 1100 0 847 248 
Q 594 497 594 1153 
L 594 3053 
L 172 3053 
L 172 3500 
L 594 3500 
L 594 4494 
L 1172 4494 
z
" transform="scale(0.015625)"/>
       <path id="DejaVuSans-5f" d="M 3263 -1063 
L 3263 -1509 
L -63 -1509 
L -63 -1063 
L 3263 -1063 
z
" transform="scale(0.015625)"/>
       <path id="DejaVuSans-69" d="M 603 3500 
L 1178 3500 
L 1178 0 
L 603 0 
L 603 3500 
z
M 603 4863 
L 1178 4863 
L 1178 4134 
L 603 4134 
L 603 4863 
z
" transform="scale(0.015625)"/>
       <path id="DejaVuSans-6d" d="M 3328 2828 
Q 3544 3216 3844 3400 
Q 4144 3584 4550 3584 
Q 5097 3584 5394 3201 
Q 5691 2819 5691 2113 
L 5691 0 
L 5113 0 
L 5113 2094 
Q 5113 2597 4934 2840 
Q 4756 3084 4391 3084 
Q 3944 3084 3684 2787 
Q 3425 2491 3425 1978 
L 3425 0 
L 2847 0 
L 2847 2094 
Q 2847 2600 2669 2842 
Q 2491 3084 2119 3084 
Q 1678 3084 1418 2786 
Q 1159 2488 1159 1978 
L 1159 0 
L 581 0 
L 581 3500 
L 1159 3500 
L 1159 2956 
Q 1356 3278 1631 3431 
Q 1906 3584 2284 3584 
Q 2666 3584 2933 3390 
Q 3200 3197 3328 2828 
z
" transform="scale(0.015625)"/>
       <path id="DejaVuSans-6f" d="M 1959 3097 
Q 1497 3097 1228 2736 
Q 959 2375 959 1747 
Q 959 1119 1226 758 
Q 1494 397 1959 397 
Q 2419 397 2687 759 
Q 2956 1122 2956 1747 
Q 2956 2369 2687 2733 
Q 2419 3097 1959 3097 
z
M 1959 3584 
Q 2709 3584 3137 3096 
Q 3566 2609 3566 1747 
Q 3566 888 3137 398 
Q 2709 -91 1959 -91 
Q 1206 -91 779 398 
Q 353 888 353 1747 
Q 353 2609 779 3096 
Q 1206 3584 1959 3584 
z
" transform="scale(0.015625)"/>
       <path id="DejaVuSans-66" d="M 2375 4863 
L 2375 4384 
L 1825 4384 
Q 1516 4384 1395 4259 
Q 1275 4134 1275 3809 
L 1275 3500 
L 2222 3500 
L 2222 3053 
L 1275 3053 
L 1275 0 
L 697 0 
L 697 3053 
L 147 3053 
L 147 3500 
L 697 3500 
L 697 3744 
Q 697 4328 969 4595 
Q 1241 4863 1831 4863 
L 2375 4863 
z
" transform="scale(0.015625)"/>
       <path id="DejaVuSans-73" d="M 2834 3397 
L 2834 2853 
Q 2591 2978 2328 3040 
Q 2066 3103 1784 3103 
Q 1356 3103 1142 2972 
Q 928 2841 928 2578 
Q 928 2378 1081 2264 
Q 1234 2150 1697 2047 
L 1894 2003 
Q 2506 1872 2764 1633 
Q 3022 1394 3022 966 
Q 3022 478 2636 193 
Q 2250 -91 1575 -91 
Q 1294 -91 989 -36 
Q 684 19 347 128 
L 347 722 
Q 666 556 975 473 
Q 1284 391 1588 391 
Q 1994 391 2212 530 
Q 2431 669 2431 922 
Q 2431 1156 2273 1281 
Q 2116 1406 1581 1522 
L 1381 1569 
Q 847 1681 609 1914 
Q 372 2147 372 2553 
Q 372 3047 722 3315 
Q 1072 3584 1716 3584 
Q 2034 3584 2315 3537 
Q 2597 3491 2834 3397 
z
" transform="scale(0.015625)"/>
       <path id="DejaVuSans-20" transform="scale(0.015625)"/>
       <path id="DejaVuSans-5b" d="M 550 4863 
L 1875 4863 
L 1875 4416 
L 1125 4416 
L 1125 -397 
L 1875 -397 
L 1875 -844 
L 550 -844 
L 550 4863 
z
" transform="scale(0.015625)"/>
       <path id="DejaVuSans-b5" d="M 544 -1331 
L 544 3500 
L 1119 3500 
L 1119 1325 
Q 1119 872 1334 640 
Q 1550 409 1972 409 
Q 2434 409 2667 671 
Q 2900 934 2900 1459 
L 2900 3500 
L 3475 3500 
L 3475 806 
Q 3475 619 3529 530 
Q 3584 441 3700 441 
Q 3728 441 3778 458 
Q 3828 475 3916 513 
L 3916 50 
Q 3788 -22 3673 -56 
Q 3559 -91 3450 -91 
Q 3234 -91 3106 31 
Q 2978 153 2931 403 
Q 2775 156 2548 32 
Q 2322 -91 2016 -91 
Q 1697 -91 1473 31 
Q 1250 153 1119 397 
L 1119 -1331 
L 544 -1331 
z
" transform="scale(0.015625)"/>
       <path id="DejaVuSans-5d" d="M 1947 4863 
L 1947 -844 
L 622 -844 
L 622 -397 
L 1369 -397 
L 1369 4416 
L 622 4416 
L 622 4863 
L 1947 4863 
z
" transform="scale(0.015625)"/>
      </defs>
      <use xlink:href="#DejaVuSans-65"/>
      <use xlink:href="#DejaVuSans-76" transform="translate(61.523438 0)"/>
      <use xlink:href="#DejaVuSans-65" transform="translate(120.703125 0)"/>
      <use xlink:href="#DejaVuSans-6e" transform="translate(182.226562 0)"/>
      <use xlink:href="#DejaVuSans-74" transform="translate(245.605469 0)"/>
      <use xlink:href="#DejaVuSans-5f" transform="translate(284.814453 0)"/>
      <use xlink:href="#DejaVuSans-74" transform="translate(334.814453 0)"/>
      <use xlink:href="#DejaVuSans-69" transform="translate(374.023438 0)"/>
      <use xlink:href="#DejaVuSans-6d" transform="translate(401.806641 0)"/>
      <use xlink:href="#DejaVuSans-65" transform="translate(499.21875 0)"/>
      <use xlink:href="#DejaVuSans-5f" transform="translate(560.742188 0)"/>
      <use xlink:href="#DejaVuSans-6f" transform="translate(610.742188 0)"/>
      <use xlink:href="#DejaVuSans-66" transform="translate(671.923828 0)"/>
      <use xlink:href="#DejaVuSans-66" transform="translate(707.128906 0)"/>
      <use xlink:href="#DejaVuSans-73" transform="translate(742.333984 0)"/>
      <use xlink:href="#DejaVuSans-65" transform="translate(794.433594 0)"/>
      <use xlink:href="#DejaVuSans-74" transform="translate(855.957031 0)"/>
      <use xlink:href="#DejaVuSans-20" transform="translate(895.166016 0)"/>
      <use xlink:href="#DejaVuSans-5b" transform="translate(926.953125 0)"/>
      <use xlink:href="#DejaVuSans-b5" transform="translate(965.966797 0)"/>
      <use xlink:href="#DejaVuSans-73" transform="translate(1029.589844 0)"/>
      <use xlink:href="#DejaVuSans-5d" transform="translate(1081.689453 0)"/>
     </g>
    </g>
   </g>
   <g id="matplotlib.axis_2">
    <g id="ytick_1">
     <g id="line2d_9">
      <defs>
       <path id="m479423a71d" d="M 0 0 
L -3.5 0 
" style="stroke: #000000; stroke-width: 0.8"/>
      </defs>
      <g>
       <use xlink:href="#m479423a71d" x="46.965625" y="218.88" style="stroke: #000000; stroke-width: 0.8"/>
      </g>
     </g>
     <g id="text_10">
      <!-- 0 -->
      <g transform="translate(33.603125 222.679219) scale(0.1 -0.1)">
       <use xlink:href="#DejaVuSans-30"/>
      </g>
     </g>
    </g>
    <g id="ytick_2">
     <g id="line2d_10">
      <g>
       <use xlink:href="#m479423a71d" x="46.965625" y="185.167625" style="stroke: #000000; stroke-width: 0.8"/>
      </g>
     </g>
     <g id="text_11">
      <!-- 100 -->
      <g transform="translate(20.878125 188.966844) scale(0.1 -0.1)">
       <use xlink:href="#DejaVuSans-31"/>
       <use xlink:href="#DejaVuSans-30" transform="translate(63.623047 0)"/>
       <use xlink:href="#DejaVuSans-30" transform="translate(127.246094 0)"/>
      </g>
     </g>
    </g>
    <g id="ytick_3">
     <g id="line2d_11">
      <g>
       <use xlink:href="#m479423a71d" x="46.965625" y="151.455251" style="stroke: #000000; stroke-width: 0.8"/>
      </g>
     </g>
     <g id="text_12">
      <!-- 200 -->
      <g transform="translate(20.878125 155.25447) scale(0.1 -0.1)">
       <use xlink:href="#DejaVuSans-32"/>
       <use xlink:href="#DejaVuSans-30" transform="translate(63.623047 0)"/>
       <use xlink:href="#DejaVuSans-30" transform="translate(127.246094 0)"/>
      </g>
     </g>
    </g>
    <g id="ytick_4">
     <g id="line2d_12">
      <g>
       <use xlink:href="#m479423a71d" x="46.965625" y="117.742876" style="stroke: #000000; stroke-width: 0.8"/>
      </g>
     </g>
     <g id="text_13">
      <!-- 300 -->
      <g transform="translate(20.878125 121.542095) scale(0.1 -0.1)">
       <use xlink:href="#DejaVuSans-33"/>
       <use xlink:href="#DejaVuSans-30" transform="translate(63.623047 0)"/>
       <use xlink:href="#DejaVuSans-30" transform="translate(127.246094 0)"/>
      </g>
     </g>
    </g>
    <g id="ytick_5">
     <g id="line2d_13">
      <g>
       <use xlink:href="#m479423a71d" x="46.965625" y="84.030502" style="stroke: #000000; stroke-width: 0.8"/>
      </g>
     </g>
     <g id="text_14">
      <!-- 400 -->
      <g transform="translate(20.878125 87.82972) scale(0.1 -0.1)">
       <use xlink:href="#DejaVuSans-34"/>
       <use xlink:href="#DejaVuSans-30" transform="translate(63.623047 0)"/>
       <use xlink:href="#DejaVuSans-30" transform="translate(127.246094 0)"/>
      </g>
     </g>
    </g>
    <g id="ytick_6">
     <g id="line2d_14">
      <g>
       <use xlink:href="#m479423a71d" x="46.965625" y="50.318127" style="stroke: #000000; stroke-width: 0.8"/>
      </g>
     </g>
     <g id="text_15">
      <!-- 500 -->
      <g transform="translate(20.878125 54.117346) scale(0.1 -0.1)">
       <use xlink:href="#DejaVuSans-35"/>
       <use xlink:href="#DejaVuSans-30" transform="translate(63.623047 0)"/>
       <use xlink:href="#DejaVuSans-30" transform="translate(127.246094 0)"/>
      </g>
     </g>
    </g>
    <g id="ytick_7">
     <g id="line2d_15">
      <g>
       <use xlink:href="#m479423a71d" x="46.965625" y="16.605753" style="stroke: #000000; stroke-width: 0.8"/>
      </g>
     </g>
     <g id="text_16">
      <!-- 600 -->
      <g transform="translate(20.878125 20.404971) scale(0.1 -0.1)">
       <use xlink:href="#DejaVuSans-36"/>
       <use xlink:href="#DejaVuSans-30" transform="translate(63.623047 0)"/>
       <use xlink:href="#DejaVuSans-30" transform="translate(127.246094 0)"/>
      </g>
     </g>
    </g>
    <g id="text_17">
     <!-- [counts] -->
     <g transform="translate(14.798438 138.6925) rotate(-90) scale(0.1 -0.1)">
      <defs>
       <path id="DejaVuSans-63" d="M 3122 3366 
L 3122 2828 
Q 2878 2963 2633 3030 
Q 2388 3097 2138 3097 
Q 1578 3097 1268 2742 
Q 959 2388 959 1747 
Q 959 1106 1268 751 
Q 1578 397 2138 397 
Q 2388 397 2633 464 
Q 2878 531 3122 666 
L 3122 134 
Q 2881 22 2623 -34 
Q 2366 -91 2075 -91 
Q 1284 -91 818 406 
Q 353 903 353 1747 
Q 353 2603 823 3093 
Q 1294 3584 2113 3584 
Q 2378 3584 2631 3529 
Q 2884 3475 3122 3366 
z
" transform="scale(0.015625)"/>
       <path id="DejaVuSans-75" d="M 544 1381 
L 544 3500 
L 1119 3500 
L 1119 1403 
Q 1119 906 1312 657 
Q 1506 409 1894 409 
Q 2359 409 2629 706 
Q 2900 1003 2900 1516 
L 2900 3500 
L 3475 3500 
L 3475 0 
L 2900 0 
L 2900 538 
Q 2691 219 2414 64 
Q 2138 -91 1772 -91 
Q 1169 -91 856 284 
Q 544 659 544 1381 
z
M 1991 3584 
L 1991 3584 
z
" transform="scale(0.015625)"/>
      </defs>
      <use xlink:href="#DejaVuSans-5b"/>
      <use xlink:href="#DejaVuSans-63" transform="translate(39.013672 0)"/>
      <use xlink:href="#DejaVuSans-6f" transform="translate(93.994141 0)"/>
      <use xlink:href="#DejaVuSans-75" transform="translate(155.175781 0)"/>
      <use xlink:href="#DejaVuSans-6e" transform="translate(218.554688 0)"/>
      <use xlink:href="#DejaVuSans-74" transform="translate(281.933594 0)"/>
      <use xlink:href="#DejaVuSans-73" transform="translate(321.142578 0)"/>
      <use xlink:href="#DejaVuSans-5d" transform="translate(373.242188 0)"/>
     </g>
    </g>
   </g>
   <g id="patch_3">
    <path d="M 46.965625 228.96 
L 46.965625 7.2 
" style="fill: none; stroke: #000000; stroke-width: 0.8; stroke-linejoin: miter; stroke-linecap: square"/>
   </g>
   <g id="patch_4">
    <path d="M 381.765625 228.96 
L 381.765625 7.2 
" style="fill: none; stroke: #000000; stroke-width: 0.8; stroke-linejoin: miter; stroke-linecap: square"/>
   </g>
   <g id="patch_5">
    <path d="M 46.965625 228.96 
L 381.765625 228.96 
" style="fill: none; stroke: #000000; stroke-width: 0.8; stroke-linejoin: miter; stroke-linecap: square"/>
   </g>
   <g id="patch_6">
    <path d="M 46.965625 7.2 
L 381.765625 7.2 
" style="fill: none; stroke: #000000; stroke-width: 0.8; stroke-linejoin: miter; stroke-linecap: square"/>
   </g>
   <g id="legend_1">
    <g id="patch_7">
     <path d="M 246.957813 45.1125 
L 374.765625 45.1125 
Q 376.765625 45.1125 376.765625 43.1125 
L 376.765625 14.2 
Q 376.765625 12.2 374.765625 12.2 
L 246.957813 12.2 
Q 244.957813 12.2 244.957813 14.2 
L 244.957813 43.1125 
Q 244.957813 45.1125 246.957813 45.1125 
z
" style="fill: #ffffff; opacity: 0.8; stroke: #cccccc; stroke-linejoin: miter"/>
    </g>
    <g id="line2d_16">
     <path d="M 248.957813 20.298437 
L 248.957813 20.298437 
L 258.957813 20.298437 
L 258.957813 20.298437 
L 268.957813 20.298437 
" style="fill: none; stroke: #1f77b4; stroke-width: 1.5; stroke-linecap: square"/>
    </g>
    <g id="text_18">
     <!-- detector_number:0 -->
     <g transform="translate(276.957813 23.798437) scale(0.1 -0.1)">
      <defs>
       <path id="DejaVuSans-64" d="M 2906 2969 
L 2906 4863 
L 3481 4863 
L 3481 0 
L 2906 0 
L 2906 525 
Q 2725 213 2448 61 
Q 2172 -91 1784 -91 
Q 1150 -91 751 415 
Q 353 922 353 1747 
Q 353 2572 751 3078 
Q 1150 3584 1784 3584 
Q 2172 3584 2448 3432 
Q 2725 3281 2906 2969 
z
M 947 1747 
Q 947 1113 1208 752 
Q 1469 391 1925 391 
Q 2381 391 2643 752 
Q 2906 1113 2906 1747 
Q 2906 2381 2643 2742 
Q 2381 3103 1925 3103 
Q 1469 3103 1208 2742 
Q 947 2381 947 1747 
z
" transform="scale(0.015625)"/>
       <path id="DejaVuSans-72" d="M 2631 2963 
Q 2534 3019 2420 3045 
Q 2306 3072 2169 3072 
Q 1681 3072 1420 2755 
Q 1159 2438 1159 1844 
L 1159 0 
L 581 0 
L 581 3500 
L 1159 3500 
L 1159 2956 
Q 1341 3275 1631 3429 
Q 1922 3584 2338 3584 
Q 2397 3584 2469 3576 
Q 2541 3569 2628 3553 
L 2631 2963 
z
" transform="scale(0.015625)"/>
       <path id="DejaVuSans-62" d="M 3116 1747 
Q 3116 2381 2855 2742 
Q 2594 3103 2138 3103 
Q 1681 3103 1420 2742 
Q 1159 2381 1159 1747 
Q 1159 1113 1420 752 
Q 1681 391 2138 391 
Q 2594 391 2855 752 
Q 3116 1113 3116 1747 
z
M 1159 2969 
Q 1341 3281 1617 3432 
Q 1894 3584 2278 3584 
Q 2916 3584 3314 3078 
Q 3713 2572 3713 1747 
Q 3713 922 3314 415 
Q 2916 -91 2278 -91 
Q 1894 -91 1617 61 
Q 1341 213 1159 525 
L 1159 0 
L 581 0 
L 581 4863 
L 1159 4863 
L 1159 2969 
z
" transform="scale(0.015625)"/>
       <path id="DejaVuSans-3a" d="M 750 794 
L 1409 794 
L 1409 0 
L 750 0 
L 750 794 
z
M 750 3309 
L 1409 3309 
L 1409 2516 
L 750 2516 
L 750 3309 
z
" transform="scale(0.015625)"/>
      </defs>
      <use xlink:href="#DejaVuSans-64"/>
      <use xlink:href="#DejaVuSans-65" transform="translate(63.476562 0)"/>
      <use xlink:href="#DejaVuSans-74" transform="translate(125 0)"/>
      <use xlink:href="#DejaVuSans-65" transform="translate(164.208984 0)"/>
      <use xlink:href="#DejaVuSans-63" transform="translate(225.732422 0)"/>
      <use xlink:href="#DejaVuSans-74" transform="translate(280.712891 0)"/>
      <use xlink:href="#DejaVuSans-6f" transform="translate(319.921875 0)"/>
      <use xlink:href="#DejaVuSans-72" transform="translate(381.103516 0)"/>
      <use xlink:href="#DejaVuSans-5f" transform="translate(422.216797 0)"/>
      <use xlink:href="#DejaVuSans-6e" transform="translate(472.216797 0)"/>
      <use xlink:href="#DejaVuSans-75" transform="translate(535.595703 0)"/>
      <use xlink:href="#DejaVuSans-6d" transform="translate(598.974609 0)"/>
      <use xlink:href="#DejaVuSans-62" transform="translate(696.386719 0)"/>
      <use xlink:href="#DejaVuSans-65" transform="translate(759.863281 0)"/>
      <use xlink:href="#DejaVuSans-72" transform="translate(821.386719 0)"/>
      <use xlink:href="#DejaVuSans-3a" transform="translate(860.75 0)"/>
      <use xlink:href="#DejaVuSans-30" transform="translate(894.441406 0)"/>
     </g>
    </g>
    <g id="line2d_17">
     <path d="M 248.957813 35.254687 
L 248.957813 35.254687 
L 258.957813 35.254687 
L 258.957813 35.254687 
L 268.957813 35.254687 
" style="fill: none; stroke: #ff7f0e; stroke-width: 1.5; stroke-linecap: square"/>
    </g>
    <g id="text_19">
     <!-- detector_number:1 -->
     <g transform="translate(276.957813 38.754687) scale(0.1 -0.1)">
      <use xlink:href="#DejaVuSans-64"/>
      <use xlink:href="#DejaVuSans-65" transform="translate(63.476562 0)"/>
      <use xlink:href="#DejaVuSans-74" transform="translate(125 0)"/>
      <use xlink:href="#DejaVuSans-65" transform="translate(164.208984 0)"/>
      <use xlink:href="#DejaVuSans-63" transform="translate(225.732422 0)"/>
      <use xlink:href="#DejaVuSans-74" transform="translate(280.712891 0)"/>
      <use xlink:href="#DejaVuSans-6f" transform="translate(319.921875 0)"/>
      <use xlink:href="#DejaVuSans-72" transform="translate(381.103516 0)"/>
      <use xlink:href="#DejaVuSans-5f" transform="translate(422.216797 0)"/>
      <use xlink:href="#DejaVuSans-6e" transform="translate(472.216797 0)"/>
      <use xlink:href="#DejaVuSans-75" transform="translate(535.595703 0)"/>
      <use xlink:href="#DejaVuSans-6d" transform="translate(598.974609 0)"/>
      <use xlink:href="#DejaVuSans-62" transform="translate(696.386719 0)"/>
      <use xlink:href="#DejaVuSans-65" transform="translate(759.863281 0)"/>
      <use xlink:href="#DejaVuSans-72" transform="translate(821.386719 0)"/>
      <use xlink:href="#DejaVuSans-3a" transform="translate(860.75 0)"/>
      <use xlink:href="#DejaVuSans-31" transform="translate(894.441406 0)"/>
     </g>
    </g>
   </g>
   <g id="line2d_18">
    <path d="M 62.183807 127.519465 
L 63.198352 127.519465 
L 63.198352 128.193712 
L 64.212898 128.193712 
L 64.212898 123.47398 
L 65.227443 123.47398 
L 65.227443 108.303411 
L 66.241989 108.303411 
L 66.241989 128.193712 
L 67.256534 128.193712 
L 67.256534 132.913445 
L 68.27108 132.913445 
L 68.27108 123.811104 
L 69.285625 123.811104 
L 69.285625 130.890702 
L 70.30017 130.890702 
L 70.30017 133.924816 
L 71.314716 133.924816 
L 71.314716 133.587692 
L 72.329261 133.587692 
L 72.329261 134.936187 
L 73.343807 134.936187 
L 73.343807 140.667291 
L 74.358352 140.667291 
L 74.358352 142.35291 
L 75.372898 142.35291 
L 75.372898 144.038528 
L 76.387443 144.038528 
L 76.387443 140.330167 
L 77.401989 140.330167 
L 77.401989 138.644548 
L 78.416534 138.644548 
L 78.416534 143.701405 
L 79.43108 143.701405 
L 79.43108 156.849231 
L 80.445625 156.849231 
L 80.445625 148.758261 
L 81.46017 148.758261 
L 81.46017 146.398395 
L 82.474716 146.398395 
L 82.474716 146.061271 
L 83.489261 146.061271 
L 83.489261 156.174983 
L 84.503807 156.174983 
L 84.503807 149.769632 
L 85.518352 149.769632 
L 85.518352 158.871973 
L 86.532898 158.871973 
L 86.532898 144.375652 
L 87.547443 144.375652 
L 87.547443 156.849231 
L 88.561989 156.849231 
L 88.561989 146.735518 
L 89.576534 146.735518 
L 89.576534 152.129498 
L 90.59108 152.129498 
L 90.59108 147.072642 
L 91.605625 147.072642 
L 91.605625 157.860602 
L 92.62017 157.860602 
L 92.62017 156.849231 
L 93.634716 156.849231 
L 93.634716 154.489365 
L 94.649261 154.489365 
L 94.649261 163.254582 
L 95.663807 163.254582 
L 95.663807 165.951572 
L 96.678352 165.951572 
L 96.678352 168.311438 
L 97.692898 168.311438 
L 97.692898 160.220468 
L 98.707443 160.220468 
L 98.707443 171.345552 
L 99.721989 171.345552 
L 99.721989 172.694047 
L 100.736534 172.694047 
L 100.736534 172.019799 
L 101.75108 172.019799 
L 101.75108 176.402408 
L 102.765625 176.402408 
L 102.765625 173.705418 
L 103.78017 173.705418 
L 103.78017 174.716789 
L 104.794716 174.716789 
L 104.794716 180.110769 
L 105.809261 180.110769 
L 105.809261 181.459264 
L 106.823807 181.459264 
L 106.823807 180.785017 
L 107.838352 180.785017 
L 107.838352 183.144883 
L 108.852898 183.144883 
L 108.852898 187.864615 
L 109.867443 187.864615 
L 109.867443 190.224482 
L 110.881989 190.224482 
L 110.881989 189.550234 
L 111.896534 189.550234 
L 111.896534 197.30408 
L 112.91108 197.30408 
L 112.91108 202.023813 
L 113.925625 202.023813 
L 113.925625 202.360936 
L 114.94017 202.360936 
L 114.94017 197.978328 
L 115.954716 197.978328 
L 115.954716 200.00107 
L 116.969261 200.00107 
L 116.969261 203.035184 
L 117.983807 203.035184 
L 117.983807 207.417793 
L 118.998352 207.417793 
L 118.998352 205.39505 
L 120.012898 205.39505 
L 120.012898 204.383679 
L 121.027443 204.383679 
L 121.027443 203.372308 
L 122.041989 203.372308 
L 122.041989 209.440535 
L 123.056534 209.440535 
L 123.056534 211.126154 
L 124.07108 211.126154 
L 124.07108 212.474649 
L 125.085625 212.474649 
L 125.085625 213.148896 
L 126.10017 213.148896 
L 126.10017 214.834515 
L 128.129261 214.834515 
L 128.129261 216.520134 
L 130.158352 216.520134 
L 130.158352 215.845886 
L 131.172898 215.845886 
L 131.172898 218.542876 
L 132.187443 218.542876 
L 132.187443 217.531505 
L 133.201989 217.531505 
L 133.201989 218.542876 
L 134.216534 218.542876 
L 134.216534 218.88 
L 149.434716 218.88 
L 149.434716 216.520134 
L 150.449261 216.520134 
L 150.449261 210.114783 
L 151.463807 210.114783 
L 151.463807 208.429164 
L 152.478352 208.429164 
L 152.478352 200.00107 
L 153.492898 200.00107 
L 153.492898 191.572977 
L 154.507443 191.572977 
L 154.507443 189.21311 
L 155.521989 189.21311 
L 155.521989 184.156254 
L 156.536534 184.156254 
L 156.536534 180.785017 
L 157.55108 180.785017 
L 157.55108 171.008428 
L 158.565625 171.008428 
L 158.565625 169.997057 
L 159.58017 169.997057 
L 159.58017 161.231839 
L 160.594716 161.231839 
L 160.594716 163.254582 
L 161.609261 163.254582 
L 161.609261 152.129498 
L 162.623807 152.129498 
L 162.623807 141.341538 
L 163.638352 141.341538 
L 163.638352 144.038528 
L 164.652898 144.038528 
L 164.652898 131.227826 
L 165.667443 131.227826 
L 165.667443 117.405753 
L 166.681989 117.405753 
L 166.681989 122.125485 
L 167.696534 122.125485 
L 167.696534 133.250569 
L 168.71108 133.250569 
L 168.71108 112.348896 
L 169.725625 112.348896 
L 169.725625 104.59505 
L 170.74017 104.59505 
L 170.74017 106.617793 
L 171.754716 106.617793 
L 171.754716 98.189699 
L 172.769261 98.189699 
L 172.769261 99.538194 
L 173.783807 99.538194 
L 173.783807 96.166957 
L 174.798352 96.166957 
L 174.798352 86.053244 
L 175.812898 86.053244 
L 175.812898 91.1101 
L 176.827443 91.1101 
L 176.827443 86.727492 
L 177.841989 86.727492 
L 177.841989 82.682007 
L 178.856534 82.682007 
L 178.856534 71.219799 
L 179.87108 71.219799 
L 179.87108 63.465953 
L 180.885625 63.465953 
L 180.885625 60.768963 
L 181.90017 60.768963 
L 181.90017 65.151572 
L 182.914716 65.151572 
L 182.914716 53.352241 
L 183.929261 53.352241 
L 183.929261 64.140201 
L 184.943807 64.140201 
L 184.943807 66.500067 
L 185.958352 66.500067 
L 185.958352 63.465953 
L 186.972898 63.465953 
L 186.972898 45.598395 
L 187.987443 45.598395 
L 187.987443 51.329498 
L 189.001989 51.329498 
L 189.001989 37.844548 
L 190.016534 37.844548 
L 190.016534 51.666622 
L 191.03108 51.666622 
L 191.03108 36.833177 
L 192.045625 36.833177 
L 192.045625 40.878662 
L 193.06017 40.878662 
L 193.06017 26.045217 
L 194.074716 26.045217 
L 194.074716 38.85592 
L 195.089261 38.85592 
L 195.089261 33.46194 
L 196.103807 33.46194 
L 196.103807 34.810435 
L 197.118352 34.810435 
L 197.118352 38.181672 
L 198.132898 38.181672 
L 198.132898 37.844548 
L 199.147443 37.844548 
L 199.147443 42.227157 
L 200.161989 42.227157 
L 200.161989 54.026488 
L 201.176534 54.026488 
L 201.176534 60.768963 
L 202.19108 60.768963 
L 202.19108 60.094716 
L 203.205625 60.094716 
L 203.205625 43.575652 
L 204.22017 43.575652 
L 204.22017 58.071973 
L 205.234716 58.071973 
L 205.234716 51.666622 
L 206.249261 51.666622 
L 206.249261 37.507425 
L 207.263807 37.507425 
L 207.263807 55.03786 
L 208.278352 55.03786 
L 208.278352 54.700736 
L 209.292898 54.700736 
L 209.292898 59.757592 
L 210.307443 59.757592 
L 210.307443 68.859933 
L 211.321989 68.859933 
L 211.321989 60.768963 
L 212.336534 60.768963 
L 212.336534 62.791706 
L 213.35108 62.791706 
L 213.35108 58.746221 
L 214.365625 58.746221 
L 214.365625 72.231171 
L 215.38017 72.231171 
L 215.38017 67.511438 
L 216.394716 67.511438 
L 216.394716 64.814448 
L 217.409261 64.814448 
L 217.409261 58.746221 
L 218.423807 58.746221 
L 218.423807 65.151572 
L 219.438352 65.151572 
L 219.438352 61.106087 
L 220.452898 61.106087 
L 220.452898 58.071973 
L 221.467443 58.071973 
L 221.467443 75.939532 
L 222.481989 75.939532 
L 222.481989 76.950903 
L 223.496534 76.950903 
L 223.496534 67.174314 
L 224.51108 67.174314 
L 224.51108 78.636522 
L 225.525625 78.636522 
L 225.525625 82.344883 
L 226.54017 82.344883 
L 226.54017 70.545552 
L 227.554716 70.545552 
L 227.554716 77.288027 
L 228.569261 77.288027 
L 228.569261 63.128829 
L 229.583807 63.128829 
L 229.583807 93.132843 
L 230.598352 93.132843 
L 230.598352 88.41311 
L 231.612898 88.41311 
L 231.612898 80.996388 
L 232.627443 80.996388 
L 232.627443 86.053244 
L 233.641989 86.053244 
L 233.641989 66.837191 
L 234.656534 66.837191 
L 234.656534 78.299398 
L 235.67108 78.299398 
L 235.67108 66.500067 
L 236.685625 66.500067 
L 236.685625 87.738863 
L 237.70017 87.738863 
L 237.70017 85.71612 
L 238.714716 85.71612 
L 238.714716 82.007759 
L 239.729261 82.007759 
L 239.729261 86.727492 
L 240.743807 86.727492 
L 240.743807 69.534181 
L 241.758352 69.534181 
L 241.758352 85.041873 
L 242.772898 85.041873 
L 242.772898 91.1101 
L 243.787443 91.1101 
L 243.787443 93.80709 
L 244.801989 93.80709 
L 244.801989 98.526823 
L 245.816534 98.526823 
L 245.816534 100.886689 
L 246.83108 100.886689 
L 246.83108 91.1101 
L 247.845625 91.1101 
L 247.845625 87.401739 
L 248.86017 87.401739 
L 248.86017 91.1101 
L 249.874716 91.1101 
L 249.874716 96.50408 
L 250.889261 96.50408 
L 250.889261 86.390368 
L 251.903807 86.390368 
L 251.903807 94.818462 
L 252.918352 94.818462 
L 252.918352 100.212441 
L 253.932898 100.212441 
L 253.932898 101.223813 
L 254.947443 101.223813 
L 254.947443 101.560936 
L 255.961989 101.560936 
L 255.961989 108.303411 
L 256.976534 108.303411 
L 256.976534 109.314783 
L 257.99108 109.314783 
L 257.99108 107.29204 
L 259.005625 107.29204 
L 259.005625 111.674649 
L 260.02017 111.674649 
L 260.02017 112.68602 
L 261.034716 112.68602 
L 261.034716 130.216455 
L 262.049261 130.216455 
L 262.049261 132.576321 
L 263.063807 132.576321 
L 263.063807 134.936187 
L 264.078352 134.936187 
L 264.078352 148.084013 
L 265.092898 148.084013 
L 265.092898 149.769632 
L 266.107443 149.769632 
L 266.107443 154.152241 
L 267.121989 154.152241 
L 267.121989 162.243211 
L 268.136534 162.243211 
L 268.136534 159.209097 
L 269.15108 159.209097 
L 269.15108 167.300067 
L 270.165625 167.300067 
L 270.165625 166.962943 
L 271.18017 166.962943 
L 271.18017 174.379666 
L 272.194716 174.379666 
L 272.194716 170.671304 
L 273.209261 170.671304 
L 273.209261 184.156254 
L 275.238352 184.156254 
L 275.238352 186.178997 
L 276.252898 186.178997 
L 276.252898 196.629833 
L 277.267443 196.629833 
L 277.267443 201.012441 
L 278.281989 201.012441 
L 278.281989 198.989699 
L 279.296534 198.989699 
L 279.296534 203.035184 
L 280.31108 203.035184 
L 280.31108 206.069298 
L 281.325625 206.069298 
L 281.325625 209.777659 
L 282.34017 209.777659 
L 282.34017 213.48602 
L 283.354716 213.48602 
L 283.354716 213.823144 
L 284.369261 213.823144 
L 284.369261 215.508763 
L 285.383807 215.508763 
L 285.383807 217.531505 
L 286.398352 217.531505 
L 286.398352 218.88 
L 298.572898 218.88 
L 298.572898 214.160268 
L 299.587443 214.160268 
L 299.587443 212.137525 
L 300.601989 212.137525 
L 300.601989 202.69806 
L 301.616534 202.69806 
L 301.616534 202.023813 
L 302.63108 202.023813 
L 302.63108 196.292709 
L 303.645625 196.292709 
L 303.645625 198.989699 
L 304.66017 198.989699 
L 304.66017 194.269967 
L 305.674716 194.269967 
L 305.674716 187.864615 
L 306.689261 187.864615 
L 306.689261 183.144883 
L 307.703807 183.144883 
L 307.703807 180.110769 
L 308.718352 180.110769 
L 308.718352 176.739532 
L 309.732898 176.739532 
L 309.732898 161.906087 
L 310.747443 161.906087 
L 310.747443 168.985686 
L 311.761989 168.985686 
L 311.761989 167.637191 
L 312.776534 167.637191 
L 312.776534 170.334181 
L 313.79108 170.334181 
L 313.79108 156.174983 
L 314.805625 156.174983 
L 314.805625 159.546221 
L 315.82017 159.546221 
L 315.82017 152.129498 
L 316.834716 152.129498 
L 316.834716 143.027157 
L 318.863807 143.027157 
L 318.863807 138.981672 
L 319.878352 138.981672 
L 319.878352 134.936187 
L 320.892898 134.936187 
L 320.892898 138.644548 
L 321.907443 138.644548 
L 321.907443 134.599064 
L 322.921989 134.599064 
L 322.921989 131.902074 
L 323.936534 131.902074 
L 323.936534 127.182341 
L 324.95108 127.182341 
L 324.95108 131.227826 
L 325.965625 131.227826 
L 325.965625 122.799732 
L 327.994716 122.799732 
L 327.994716 117.742876 
L 329.009261 117.742876 
L 329.009261 120.439866 
L 330.023807 120.439866 
L 330.023807 118.08 
L 331.038352 118.08 
L 331.038352 113.023144 
L 332.052898 113.023144 
L 332.052898 103.246555 
L 333.067443 103.246555 
L 333.067443 108.640535 
L 334.081989 108.640535 
L 334.081989 109.98903 
L 335.096534 109.98903 
L 335.096534 102.572308 
L 336.11108 102.572308 
L 336.11108 111.337525 
L 337.125625 111.337525 
L 337.125625 88.075987 
L 338.14017 88.075987 
L 338.14017 101.560936 
L 339.154716 101.560936 
L 339.154716 97.178328 
L 340.169261 97.178328 
L 340.169261 86.727492 
L 341.183807 86.727492 
L 341.183807 99.20107 
L 342.198352 99.20107 
L 342.198352 97.178328 
L 343.212898 97.178328 
L 343.212898 99.875318 
L 344.227443 99.875318 
L 344.227443 96.166957 
L 345.241989 96.166957 
L 345.241989 100.886689 
L 346.256534 100.886689 
L 346.256534 86.727492 
L 347.27108 86.727492 
L 347.27108 101.89806 
L 350.314716 101.89806 
L 350.314716 107.966288 
L 351.329261 107.966288 
L 351.329261 105.269298 
L 352.343807 105.269298 
L 352.343807 105.943545 
L 353.358352 105.943545 
L 353.358352 104.59505 
L 354.372898 104.59505 
L 354.372898 106.280669 
L 355.387443 106.280669 
L 355.387443 114.371639 
L 356.401989 114.371639 
L 356.401989 112.68602 
L 357.416534 112.68602 
L 357.416534 115.720134 
L 358.43108 115.720134 
L 358.43108 106.617793 
L 359.445625 106.617793 
L 359.445625 126.17097 
L 360.46017 126.17097 
L 360.46017 116.731505 
L 361.474716 116.731505 
L 361.474716 123.136856 
L 362.489261 123.136856 
L 362.489261 124.822475 
L 363.503807 124.822475 
L 363.503807 120.102742 
L 364.518352 120.102742 
L 364.518352 104.59505 
L 365.532898 104.59505 
L 365.532898 133.587692 
L 366.547443 133.587692 
L 366.547443 133.587692 
" clip-path="url(#pb7e401ebb7)" style="fill: none; stroke: #1f77b4; stroke-width: 1.5; stroke-linecap: square"/>
   </g>
   <g id="line2d_19">
    <path d="M 62.183807 121.788361 
L 63.198352 121.788361 
L 63.198352 129.542207 
L 64.212898 129.542207 
L 64.212898 132.576321 
L 65.227443 132.576321 
L 65.227443 131.902074 
L 66.241989 131.902074 
L 66.241989 133.250569 
L 67.256534 133.250569 
L 67.256534 142.690033 
L 68.27108 142.690033 
L 68.27108 141.678662 
L 69.285625 141.678662 
L 69.285625 142.015786 
L 70.30017 142.015786 
L 70.30017 137.296054 
L 71.314716 137.296054 
L 71.314716 136.284682 
L 72.329261 136.284682 
L 72.329261 154.826488 
L 73.343807 154.826488 
L 73.343807 146.735518 
L 74.358352 146.735518 
L 74.358352 148.758261 
L 75.372898 148.758261 
L 75.372898 142.690033 
L 76.387443 142.690033 
L 76.387443 154.152241 
L 77.401989 154.152241 
L 77.401989 150.781003 
L 78.416534 150.781003 
L 78.416534 155.83786 
L 79.43108 155.83786 
L 79.43108 143.364281 
L 80.445625 143.364281 
L 80.445625 152.466622 
L 81.46017 152.466622 
L 81.46017 146.061271 
L 82.474716 146.061271 
L 82.474716 151.118127 
L 83.489261 151.118127 
L 83.489261 144.712776 
L 84.503807 144.712776 
L 84.503807 156.512107 
L 85.518352 156.512107 
L 85.518352 154.826488 
L 86.532898 154.826488 
L 86.532898 152.129498 
L 87.547443 152.129498 
L 87.547443 163.591706 
L 88.561989 163.591706 
L 88.561989 164.940201 
L 89.576534 164.940201 
L 89.576534 169.322809 
L 90.59108 169.322809 
L 90.59108 157.860602 
L 91.605625 157.860602 
L 91.605625 167.637191 
L 92.62017 167.637191 
L 92.62017 173.705418 
L 93.634716 173.705418 
L 93.634716 172.356923 
L 94.649261 172.356923 
L 94.649261 174.042542 
L 95.663807 174.042542 
L 95.663807 174.716789 
L 96.678352 174.716789 
L 96.678352 173.705418 
L 97.692898 173.705418 
L 97.692898 180.110769 
L 98.707443 180.110769 
L 98.707443 180.785017 
L 99.721989 180.785017 
L 99.721989 181.459264 
L 100.736534 181.459264 
L 100.736534 184.830502 
L 101.75108 184.830502 
L 101.75108 188.875987 
L 102.765625 188.875987 
L 102.765625 187.527492 
L 103.78017 187.527492 
L 103.78017 191.9101 
L 104.794716 191.9101 
L 104.794716 202.69806 
L 105.809261 202.69806 
L 105.809261 198.315452 
L 106.823807 198.315452 
L 106.823807 202.023813 
L 107.838352 202.023813 
L 107.838352 194.944214 
L 108.852898 194.944214 
L 108.852898 205.057926 
L 109.867443 205.057926 
L 109.867443 205.39505 
L 110.881989 205.39505 
L 110.881989 206.406421 
L 111.896534 206.406421 
L 111.896534 204.383679 
L 113.925625 204.383679 
L 113.925625 205.057926 
L 114.94017 205.057926 
L 114.94017 210.451906 
L 115.954716 210.451906 
L 115.954716 211.463278 
L 116.969261 211.463278 
L 116.969261 213.823144 
L 117.983807 213.823144 
L 117.983807 214.497391 
L 118.998352 214.497391 
L 118.998352 214.834515 
L 120.012898 214.834515 
L 120.012898 216.18301 
L 122.041989 216.18301 
L 122.041989 215.845886 
L 123.056534 215.845886 
L 123.056534 218.542876 
L 124.07108 218.542876 
L 124.07108 217.531505 
L 125.085625 217.531505 
L 125.085625 218.542876 
L 126.10017 218.542876 
L 126.10017 218.88 
L 147.405625 218.88 
L 147.405625 217.531505 
L 148.42017 217.531505 
L 148.42017 212.137525 
L 149.434716 212.137525 
L 149.434716 209.777659 
L 150.449261 209.777659 
L 150.449261 203.035184 
L 151.463807 203.035184 
L 151.463807 189.887358 
L 152.478352 189.887358 
L 152.478352 192.921472 
L 153.492898 192.921472 
L 153.492898 182.470635 
L 154.507443 182.470635 
L 154.507443 180.447893 
L 155.521989 180.447893 
L 155.521989 171.682676 
L 156.536534 171.682676 
L 156.536534 172.356923 
L 157.55108 172.356923 
L 157.55108 161.906087 
L 158.565625 161.906087 
L 158.565625 160.220468 
L 159.58017 160.220468 
L 159.58017 149.095385 
L 160.594716 149.095385 
L 160.594716 141.004415 
L 161.609261 141.004415 
L 161.609261 141.678662 
L 162.623807 141.678662 
L 162.623807 130.890702 
L 163.638352 130.890702 
L 163.638352 115.045886 
L 164.652898 115.045886 
L 164.652898 120.102742 
L 165.667443 120.102742 
L 165.667443 128.193712 
L 166.681989 128.193712 
L 166.681989 111.337525 
L 167.696534 111.337525 
L 167.696534 102.572308 
L 168.71108 102.572308 
L 168.71108 101.89806 
L 169.725625 101.89806 
L 169.725625 92.121472 
L 170.74017 92.121472 
L 170.74017 96.841204 
L 171.754716 96.841204 
L 171.754716 91.784348 
L 172.769261 91.784348 
L 172.769261 81.333512 
L 173.783807 81.333512 
L 173.783807 94.818462 
L 174.798352 94.818462 
L 174.798352 69.534181 
L 175.812898 69.534181 
L 175.812898 78.299398 
L 176.827443 78.299398 
L 176.827443 74.591037 
L 177.841989 74.591037 
L 177.841989 53.015117 
L 178.856534 53.015117 
L 178.856534 65.488696 
L 179.87108 65.488696 
L 179.87108 55.712107 
L 180.885625 55.712107 
L 180.885625 50.992375 
L 181.90017 50.992375 
L 181.90017 57.060602 
L 182.914716 57.060602 
L 182.914716 62.454582 
L 183.929261 62.454582 
L 183.929261 48.969632 
L 184.943807 48.969632 
L 184.943807 46.272642 
L 185.958352 46.272642 
L 185.958352 41.890033 
L 186.972898 41.890033 
L 186.972898 41.215786 
L 187.987443 41.215786 
L 187.987443 36.496054 
L 189.001989 36.496054 
L 189.001989 39.530167 
L 190.016534 39.530167 
L 190.016534 30.427826 
L 191.03108 30.427826 
L 191.03108 17.28 
L 192.045625 17.28 
L 192.045625 33.124816 
L 193.06017 33.124816 
L 193.06017 35.821806 
L 194.074716 35.821806 
L 194.074716 23.011104 
L 195.089261 23.011104 
L 195.089261 38.85592 
L 196.103807 38.85592 
L 196.103807 40.204415 
L 197.118352 40.204415 
L 197.118352 49.64388 
L 198.132898 49.64388 
L 198.132898 53.689365 
L 199.147443 53.689365 
L 199.147443 57.060602 
L 200.161989 57.060602 
L 200.161989 40.878662 
L 201.176534 40.878662 
L 201.176534 52.34087 
L 202.19108 52.34087 
L 202.19108 53.352241 
L 203.205625 53.352241 
L 203.205625 28.742207 
L 204.22017 28.742207 
L 204.22017 51.666622 
L 205.234716 51.666622 
L 205.234716 50.318127 
L 206.249261 50.318127 
L 206.249261 57.734849 
L 207.263807 57.734849 
L 207.263807 63.128829 
L 208.278352 63.128829 
L 208.278352 57.397726 
L 209.292898 57.397726 
L 209.292898 56.386355 
L 210.307443 56.386355 
L 210.307443 65.151572 
L 211.321989 65.151572 
L 211.321989 63.465953 
L 212.336534 63.465953 
L 212.336534 64.140201 
L 213.35108 64.140201 
L 213.35108 56.386355 
L 214.365625 56.386355 
L 214.365625 59.083344 
L 215.38017 59.083344 
L 215.38017 59.420468 
L 216.394716 59.420468 
L 216.394716 61.106087 
L 217.409261 61.106087 
L 217.409261 45.598395 
L 218.423807 45.598395 
L 218.423807 82.682007 
L 219.438352 82.682007 
L 219.438352 69.534181 
L 220.452898 69.534181 
L 220.452898 59.420468 
L 221.467443 59.420468 
L 221.467443 84.367625 
L 222.481989 84.367625 
L 222.481989 79.310769 
L 223.496534 79.310769 
L 223.496534 71.219799 
L 224.51108 71.219799 
L 224.51108 62.791706 
L 225.525625 62.791706 
L 225.525625 74.591037 
L 226.54017 74.591037 
L 226.54017 83.01913 
L 227.554716 83.01913 
L 227.554716 74.591037 
L 228.569261 74.591037 
L 228.569261 92.121472 
L 229.583807 92.121472 
L 229.583807 64.814448 
L 230.598352 64.814448 
L 230.598352 67.511438 
L 231.612898 67.511438 
L 231.612898 73.916789 
L 232.627443 73.916789 
L 232.627443 75.939532 
L 233.641989 75.939532 
L 233.641989 83.356254 
L 234.656534 83.356254 
L 234.656534 81.670635 
L 235.67108 81.670635 
L 235.67108 78.973645 
L 236.685625 78.973645 
L 236.685625 74.591037 
L 237.70017 74.591037 
L 237.70017 74.928161 
L 238.714716 74.928161 
L 238.714716 83.693378 
L 239.729261 83.693378 
L 239.729261 98.526823 
L 240.743807 98.526823 
L 240.743807 92.795719 
L 241.758352 92.795719 
L 241.758352 97.852575 
L 242.772898 97.852575 
L 242.772898 86.390368 
L 244.801989 86.390368 
L 244.801989 87.738863 
L 245.816534 87.738863 
L 245.816534 94.144214 
L 246.83108 94.144214 
L 246.83108 80.996388 
L 247.845625 80.996388 
L 247.845625 92.458595 
L 248.86017 92.458595 
L 248.86017 99.538194 
L 249.874716 99.538194 
L 249.874716 98.189699 
L 250.889261 98.189699 
L 250.889261 96.841204 
L 251.903807 96.841204 
L 251.903807 104.59505 
L 252.918352 104.59505 
L 252.918352 107.629164 
L 254.947443 107.629164 
L 254.947443 108.303411 
L 255.961989 108.303411 
L 255.961989 112.68602 
L 256.976534 112.68602 
L 256.976534 129.879331 
L 257.99108 129.879331 
L 257.99108 128.193712 
L 259.005625 128.193712 
L 259.005625 138.307425 
L 260.02017 138.307425 
L 260.02017 150.781003 
L 261.034716 150.781003 
L 261.034716 146.061271 
L 262.049261 146.061271 
L 262.049261 159.546221 
L 263.063807 159.546221 
L 263.063807 153.14087 
L 264.078352 153.14087 
L 264.078352 165.277324 
L 265.092898 165.277324 
L 265.092898 163.928829 
L 266.107443 163.928829 
L 266.107443 171.008428 
L 267.121989 171.008428 
L 267.121989 168.648562 
L 268.136534 168.648562 
L 268.136534 178.088027 
L 269.15108 178.088027 
L 269.15108 182.133512 
L 270.165625 182.133512 
L 270.165625 185.504749 
L 271.18017 185.504749 
L 271.18017 190.898729 
L 272.194716 190.898729 
L 272.194716 197.30408 
L 273.209261 197.30408 
L 273.209261 198.652575 
L 274.223807 198.652575 
L 274.223807 204.046555 
L 275.238352 204.046555 
L 275.238352 202.360936 
L 276.252898 202.360936 
L 276.252898 209.777659 
L 277.267443 209.777659 
L 277.267443 211.463278 
L 278.281989 211.463278 
L 278.281989 214.160268 
L 279.296534 214.160268 
L 279.296534 215.171639 
L 280.31108 215.171639 
L 280.31108 216.857258 
L 281.325625 216.857258 
L 281.325625 218.542876 
L 282.34017 218.542876 
L 282.34017 218.88 
L 293.50017 218.88 
L 293.50017 215.171639 
L 294.514716 215.171639 
L 294.514716 212.137525 
L 295.529261 212.137525 
L 295.529261 204.046555 
L 297.558352 204.046555 
L 297.558352 195.618462 
L 298.572898 195.618462 
L 298.572898 197.978328 
L 299.587443 197.978328 
L 299.587443 193.258595 
L 300.601989 193.258595 
L 300.601989 186.853244 
L 301.616534 186.853244 
L 301.616534 182.470635 
L 302.63108 182.470635 
L 302.63108 180.110769 
L 303.645625 180.110769 
L 303.645625 173.368294 
L 304.66017 173.368294 
L 304.66017 161.906087 
L 305.674716 161.906087 
L 305.674716 168.985686 
L 306.689261 168.985686 
L 306.689261 164.940201 
L 307.703807 164.940201 
L 307.703807 169.322809 
L 308.718352 169.322809 
L 308.718352 150.106756 
L 309.732898 150.106756 
L 309.732898 158.871973 
L 310.747443 158.871973 
L 310.747443 148.421137 
L 311.761989 148.421137 
L 311.761989 142.015786 
L 312.776534 142.015786 
L 312.776534 141.004415 
L 313.79108 141.004415 
L 313.79108 137.296054 
L 314.805625 137.296054 
L 314.805625 134.26194 
L 315.82017 134.26194 
L 315.82017 137.633177 
L 316.834716 137.633177 
L 316.834716 131.56495 
L 317.849261 131.56495 
L 317.849261 118.754247 
L 318.863807 118.754247 
L 318.863807 131.227826 
L 319.878352 131.227826 
L 319.878352 128.193712 
L 320.892898 128.193712 
L 320.892898 121.451237 
L 321.907443 121.451237 
L 321.907443 119.428495 
L 322.921989 119.428495 
L 322.921989 106.954916 
L 323.936534 106.954916 
L 323.936534 129.879331 
L 324.95108 129.879331 
L 324.95108 105.269298 
L 325.965625 105.269298 
L 325.965625 107.966288 
L 326.98017 107.966288 
L 326.98017 102.572308 
L 327.994716 102.572308 
L 327.994716 108.977659 
L 329.009261 108.977659 
L 329.009261 93.469967 
L 330.023807 93.469967 
L 330.023807 111.000401 
L 331.038352 111.000401 
L 331.038352 93.132843 
L 332.052898 93.132843 
L 332.052898 96.166957 
L 333.067443 96.166957 
L 333.067443 91.784348 
L 334.081989 91.784348 
L 334.081989 86.390368 
L 335.096534 86.390368 
L 335.096534 92.121472 
L 336.11108 92.121472 
L 336.11108 95.492709 
L 337.125625 95.492709 
L 337.125625 97.178328 
L 338.14017 97.178328 
L 338.14017 92.458595 
L 339.154716 92.458595 
L 339.154716 99.875318 
L 340.169261 99.875318 
L 340.169261 85.71612 
L 341.183807 85.71612 
L 341.183807 97.178328 
L 342.198352 97.178328 
L 342.198352 98.189699 
L 343.212898 98.189699 
L 343.212898 99.538194 
L 344.227443 99.538194 
L 344.227443 104.59505 
L 345.241989 104.59505 
L 345.241989 102.572308 
L 346.256534 102.572308 
L 346.256534 103.583679 
L 347.27108 103.583679 
L 347.27108 100.886689 
L 348.285625 100.886689 
L 348.285625 106.954916 
L 349.30017 106.954916 
L 349.30017 109.98903 
L 350.314716 109.98903 
L 350.314716 107.29204 
L 351.329261 107.29204 
L 351.329261 108.303411 
L 352.343807 108.303411 
L 352.343807 117.742876 
L 353.358352 117.742876 
L 353.358352 118.08 
L 354.372898 118.08 
L 354.372898 117.742876 
L 355.387443 117.742876 
L 355.387443 118.754247 
L 356.401989 118.754247 
L 356.401989 120.439866 
L 357.416534 120.439866 
L 357.416534 114.708763 
L 358.43108 114.708763 
L 358.43108 110.663278 
L 359.445625 110.663278 
L 359.445625 127.856589 
L 360.46017 127.856589 
L 360.46017 132.913445 
L 361.474716 132.913445 
L 361.474716 120.77699 
L 362.489261 120.77699 
L 362.489261 112.68602 
L 363.503807 112.68602 
L 363.503807 117.742876 
L 364.518352 117.742876 
L 364.518352 128.193712 
L 365.532898 128.193712 
L 365.532898 127.519465 
L 366.547443 127.519465 
L 366.547443 127.519465 
" clip-path="url(#pb7e401ebb7)" style="fill: none; stroke: #ff7f0e; stroke-width: 1.5; stroke-linecap: square"/>
   </g>
  </g>
 </g>
 <defs>
  <clipPath id="pb7e401ebb7">
   <rect x="46.965625" y="7.2" width="334.8" height="221.76"/>
  </clipPath>
 </defs>
</svg>
