<?xml version="1.0" encoding="utf-8" standalone="no"?>
<!DOCTYPE svg PUBLIC "-//W3C//DTD SVG 1.1//EN"
  "http://www.w3.org/Graphics/SVG/1.1/DTD/svg11.dtd">
<svg xmlns:xlink="http://www.w3.org/1999/xlink" width="388.965625pt" height="266.794375pt" viewBox="0 0 388.965625 266.794375" xmlns="http://www.w3.org/2000/svg" version="1.1">
 <metadata>
  <rdf:RDF xmlns:dc="http://purl.org/dc/elements/1.1/" xmlns:cc="http://creativecommons.org/ns#" xmlns:rdf="http://www.w3.org/1999/02/22-rdf-syntax-ns#">
   <cc:Work>
    <dc:type rdf:resource="http://purl.org/dc/dcmitype/StillImage"/>
    <dc:date>2025-02-17T17:52:58.906639</dc:date>
    <dc:format>image/svg+xml</dc:format>
    <dc:creator>
     <cc:Agent>
      <dc:title>Matplotlib v3.10.0, https://matplotlib.org/</dc:title>
     </cc:Agent>
    </dc:creator>
   </cc:Work>
  </rdf:RDF>
 </metadata>
 <defs>
  <style type="text/css">*{stroke-linejoin: round; stroke-linecap: butt}</style>
 </defs>
 <g id="figure_1">
  <g id="patch_1">
   <path d="M 0 266.794375 
L 388.965625 266.794375 
L 388.965625 0 
L 0 0 
z
" style="fill: #ffffff"/>
  </g>
  <g id="axes_1">
   <g id="patch_2">
    <path d="M 46.965625 228.96 
L 381.765625 228.96 
L 381.765625 7.2 
L 46.965625 7.2 
z
" style="fill: #ffffff"/>
   </g>
   <g id="matplotlib.axis_1">
    <g id="xtick_1">
     <g id="line2d_1">
      <defs>
       <path id="m0ff021fd43" d="M 0 0 
L 0 3.5 
" style="stroke: #000000; stroke-width: 0.8"/>
      </defs>
      <g>
       <use xlink:href="#m0ff021fd43" x="62.183639" y="228.96" style="stroke: #000000; stroke-width: 0.8"/>
      </g>
     </g>
     <g id="text_1">
      <!-- 0 -->
      <g transform="translate(59.002389 243.558437) scale(0.1 -0.1)">
       <defs>
        <path id="DejaVuSans-30" d="M 2034 4250 
Q 1547 4250 1301 3770 
Q 1056 3291 1056 2328 
Q 1056 1369 1301 889 
Q 1547 409 2034 409 
Q 2525 409 2770 889 
Q 3016 1369 3016 2328 
Q 3016 3291 2770 3770 
Q 2525 4250 2034 4250 
z
M 2034 4750 
Q 2819 4750 3233 4129 
Q 3647 3509 3647 2328 
Q 3647 1150 3233 529 
Q 2819 -91 2034 -91 
Q 1250 -91 836 529 
Q 422 1150 422 2328 
Q 422 3509 836 4129 
Q 1250 4750 2034 4750 
z
" transform="scale(0.015625)"/>
       </defs>
       <use xlink:href="#DejaVuSans-30"/>
      </g>
     </g>
    </g>
    <g id="xtick_2">
     <g id="line2d_2">
      <g>
       <use xlink:href="#m0ff021fd43" x="104.795085" y="228.96" style="stroke: #000000; stroke-width: 0.8"/>
      </g>
     </g>
     <g id="text_2">
      <!-- 10000 -->
      <g transform="translate(88.888835 243.558437) scale(0.1 -0.1)">
       <defs>
        <path id="DejaVuSans-31" d="M 794 531 
L 1825 531 
L 1825 4091 
L 703 3866 
L 703 4441 
L 1819 4666 
L 2450 4666 
L 2450 531 
L 3481 531 
L 3481 0 
L 794 0 
L 794 531 
z
" transform="scale(0.015625)"/>
       </defs>
       <use xlink:href="#DejaVuSans-31"/>
       <use xlink:href="#DejaVuSans-30" transform="translate(63.623047 0)"/>
       <use xlink:href="#DejaVuSans-30" transform="translate(127.246094 0)"/>
       <use xlink:href="#DejaVuSans-30" transform="translate(190.869141 0)"/>
       <use xlink:href="#DejaVuSans-30" transform="translate(254.492188 0)"/>
      </g>
     </g>
    </g>
    <g id="xtick_3">
     <g id="line2d_3">
      <g>
       <use xlink:href="#m0ff021fd43" x="147.40653" y="228.96" style="stroke: #000000; stroke-width: 0.8"/>
      </g>
     </g>
     <g id="text_3">
      <!-- 20000 -->
      <g transform="translate(131.50028 243.558437) scale(0.1 -0.1)">
       <defs>
        <path id="DejaVuSans-32" d="M 1228 531 
L 3431 531 
L 3431 0 
L 469 0 
L 469 531 
Q 828 903 1448 1529 
Q 2069 2156 2228 2338 
Q 2531 2678 2651 2914 
Q 2772 3150 2772 3378 
Q 2772 3750 2511 3984 
Q 2250 4219 1831 4219 
Q 1534 4219 1204 4116 
Q 875 4013 500 3803 
L 500 4441 
Q 881 4594 1212 4672 
Q 1544 4750 1819 4750 
Q 2544 4750 2975 4387 
Q 3406 4025 3406 3419 
Q 3406 3131 3298 2873 
Q 3191 2616 2906 2266 
Q 2828 2175 2409 1742 
Q 1991 1309 1228 531 
z
" transform="scale(0.015625)"/>
       </defs>
       <use xlink:href="#DejaVuSans-32"/>
       <use xlink:href="#DejaVuSans-30" transform="translate(63.623047 0)"/>
       <use xlink:href="#DejaVuSans-30" transform="translate(127.246094 0)"/>
       <use xlink:href="#DejaVuSans-30" transform="translate(190.869141 0)"/>
       <use xlink:href="#DejaVuSans-30" transform="translate(254.492188 0)"/>
      </g>
     </g>
    </g>
    <g id="xtick_4">
     <g id="line2d_4">
      <g>
       <use xlink:href="#m0ff021fd43" x="190.017976" y="228.96" style="stroke: #000000; stroke-width: 0.8"/>
      </g>
     </g>
     <g id="text_4">
      <!-- 30000 -->
      <g transform="translate(174.111726 243.558437) scale(0.1 -0.1)">
       <defs>
        <path id="DejaVuSans-33" d="M 2597 2516 
Q 3050 2419 3304 2112 
Q 3559 1806 3559 1356 
Q 3559 666 3084 287 
Q 2609 -91 1734 -91 
Q 1441 -91 1130 -33 
Q 819 25 488 141 
L 488 750 
Q 750 597 1062 519 
Q 1375 441 1716 441 
Q 2309 441 2620 675 
Q 2931 909 2931 1356 
Q 2931 1769 2642 2001 
Q 2353 2234 1838 2234 
L 1294 2234 
L 1294 2753 
L 1863 2753 
Q 2328 2753 2575 2939 
Q 2822 3125 2822 3475 
Q 2822 3834 2567 4026 
Q 2313 4219 1838 4219 
Q 1578 4219 1281 4162 
Q 984 4106 628 3988 
L 628 4550 
Q 988 4650 1302 4700 
Q 1616 4750 1894 4750 
Q 2613 4750 3031 4423 
Q 3450 4097 3450 3541 
Q 3450 3153 3228 2886 
Q 3006 2619 2597 2516 
z
" transform="scale(0.015625)"/>
       </defs>
       <use xlink:href="#DejaVuSans-33"/>
       <use xlink:href="#DejaVuSans-30" transform="translate(63.623047 0)"/>
       <use xlink:href="#DejaVuSans-30" transform="translate(127.246094 0)"/>
       <use xlink:href="#DejaVuSans-30" transform="translate(190.869141 0)"/>
       <use xlink:href="#DejaVuSans-30" transform="translate(254.492188 0)"/>
      </g>
     </g>
    </g>
    <g id="xtick_5">
     <g id="line2d_5">
      <g>
       <use xlink:href="#m0ff021fd43" x="232.629421" y="228.96" style="stroke: #000000; stroke-width: 0.8"/>
      </g>
     </g>
     <g id="text_5">
      <!-- 40000 -->
      <g transform="translate(216.723171 243.558437) scale(0.1 -0.1)">
       <defs>
        <path id="DejaVuSans-34" d="M 2419 4116 
L 825 1625 
L 2419 1625 
L 2419 4116 
z
M 2253 4666 
L 3047 4666 
L 3047 1625 
L 3713 1625 
L 3713 1100 
L 3047 1100 
L 3047 0 
L 2419 0 
L 2419 1100 
L 313 1100 
L 313 1709 
L 2253 4666 
z
" transform="scale(0.015625)"/>
       </defs>
       <use xlink:href="#DejaVuSans-34"/>
       <use xlink:href="#DejaVuSans-30" transform="translate(63.623047 0)"/>
       <use xlink:href="#DejaVuSans-30" transform="translate(127.246094 0)"/>
       <use xlink:href="#DejaVuSans-30" transform="translate(190.869141 0)"/>
       <use xlink:href="#DejaVuSans-30" transform="translate(254.492188 0)"/>
      </g>
     </g>
    </g>
    <g id="xtick_6">
     <g id="line2d_6">
      <g>
       <use xlink:href="#m0ff021fd43" x="275.240867" y="228.96" style="stroke: #000000; stroke-width: 0.8"/>
      </g>
     </g>
     <g id="text_6">
      <!-- 50000 -->
      <g transform="translate(259.334617 243.558437) scale(0.1 -0.1)">
       <defs>
        <path id="DejaVuSans-35" d="M 691 4666 
L 3169 4666 
L 3169 4134 
L 1269 4134 
L 1269 2991 
Q 1406 3038 1543 3061 
Q 1681 3084 1819 3084 
Q 2600 3084 3056 2656 
Q 3513 2228 3513 1497 
Q 3513 744 3044 326 
Q 2575 -91 1722 -91 
Q 1428 -91 1123 -41 
Q 819 9 494 109 
L 494 744 
Q 775 591 1075 516 
Q 1375 441 1709 441 
Q 2250 441 2565 725 
Q 2881 1009 2881 1497 
Q 2881 1984 2565 2268 
Q 2250 2553 1709 2553 
Q 1456 2553 1204 2497 
Q 953 2441 691 2322 
L 691 4666 
z
" transform="scale(0.015625)"/>
       </defs>
       <use xlink:href="#DejaVuSans-35"/>
       <use xlink:href="#DejaVuSans-30" transform="translate(63.623047 0)"/>
       <use xlink:href="#DejaVuSans-30" transform="translate(127.246094 0)"/>
       <use xlink:href="#DejaVuSans-30" transform="translate(190.869141 0)"/>
       <use xlink:href="#DejaVuSans-30" transform="translate(254.492188 0)"/>
      </g>
     </g>
    </g>
    <g id="xtick_7">
     <g id="line2d_7">
      <g>
       <use xlink:href="#m0ff021fd43" x="317.852312" y="228.96" style="stroke: #000000; stroke-width: 0.8"/>
      </g>
     </g>
     <g id="text_7">
      <!-- 60000 -->
      <g transform="translate(301.946062 243.558437) scale(0.1 -0.1)">
       <defs>
        <path id="DejaVuSans-36" d="M 2113 2584 
Q 1688 2584 1439 2293 
Q 1191 2003 1191 1497 
Q 1191 994 1439 701 
Q 1688 409 2113 409 
Q 2538 409 2786 701 
Q 3034 994 3034 1497 
Q 3034 2003 2786 2293 
Q 2538 2584 2113 2584 
z
M 3366 4563 
L 3366 3988 
Q 3128 4100 2886 4159 
Q 2644 4219 2406 4219 
Q 1781 4219 1451 3797 
Q 1122 3375 1075 2522 
Q 1259 2794 1537 2939 
Q 1816 3084 2150 3084 
Q 2853 3084 3261 2657 
Q 3669 2231 3669 1497 
Q 3669 778 3244 343 
Q 2819 -91 2113 -91 
Q 1303 -91 875 529 
Q 447 1150 447 2328 
Q 447 3434 972 4092 
Q 1497 4750 2381 4750 
Q 2619 4750 2861 4703 
Q 3103 4656 3366 4563 
z
" transform="scale(0.015625)"/>
       </defs>
       <use xlink:href="#DejaVuSans-36"/>
       <use xlink:href="#DejaVuSans-30" transform="translate(63.623047 0)"/>
       <use xlink:href="#DejaVuSans-30" transform="translate(127.246094 0)"/>
       <use xlink:href="#DejaVuSans-30" transform="translate(190.869141 0)"/>
       <use xlink:href="#DejaVuSans-30" transform="translate(254.492188 0)"/>
      </g>
     </g>
    </g>
    <g id="xtick_8">
     <g id="line2d_8">
      <g>
       <use xlink:href="#m0ff021fd43" x="360.463758" y="228.96" style="stroke: #000000; stroke-width: 0.8"/>
      </g>
     </g>
     <g id="text_8">
      <!-- 70000 -->
      <g transform="translate(344.557508 243.558437) scale(0.1 -0.1)">
       <defs>
        <path id="DejaVuSans-37" d="M 525 4666 
L 3525 4666 
L 3525 4397 
L 1831 0 
L 1172 0 
L 2766 4134 
L 525 4134 
L 525 4666 
z
" transform="scale(0.015625)"/>
       </defs>
       <use xlink:href="#DejaVuSans-37"/>
       <use xlink:href="#DejaVuSans-30" transform="translate(63.623047 0)"/>
       <use xlink:href="#DejaVuSans-30" transform="translate(127.246094 0)"/>
       <use xlink:href="#DejaVuSans-30" transform="translate(190.869141 0)"/>
       <use xlink:href="#DejaVuSans-30" transform="translate(254.492188 0)"/>
      </g>
     </g>
    </g>
    <g id="text_9">
     <!-- event_time_offset [µs] -->
     <g transform="translate(158.330469 257.236562) scale(0.1 -0.1)">
      <defs>
       <path id="DejaVuSans-65" d="M 3597 1894 
L 3597 1613 
L 953 1613 
Q 991 1019 1311 708 
Q 1631 397 2203 397 
Q 2534 397 2845 478 
Q 3156 559 3463 722 
L 3463 178 
Q 3153 47 2828 -22 
Q 2503 -91 2169 -91 
Q 1331 -91 842 396 
Q 353 884 353 1716 
Q 353 2575 817 3079 
Q 1281 3584 2069 3584 
Q 2775 3584 3186 3129 
Q 3597 2675 3597 1894 
z
M 3022 2063 
Q 3016 2534 2758 2815 
Q 2500 3097 2075 3097 
Q 1594 3097 1305 2825 
Q 1016 2553 972 2059 
L 3022 2063 
z
" transform="scale(0.015625)"/>
       <path id="DejaVuSans-76" d="M 191 3500 
L 800 3500 
L 1894 563 
L 2988 3500 
L 3597 3500 
L 2284 0 
L 1503 0 
L 191 3500 
z
" transform="scale(0.015625)"/>
       <path id="DejaVuSans-6e" d="M 3513 2113 
L 3513 0 
L 2938 0 
L 2938 2094 
Q 2938 2591 2744 2837 
Q 2550 3084 2163 3084 
Q 1697 3084 1428 2787 
Q 1159 2491 1159 1978 
L 1159 0 
L 581 0 
L 581 3500 
L 1159 3500 
L 1159 2956 
Q 1366 3272 1645 3428 
Q 1925 3584 2291 3584 
Q 2894 3584 3203 3211 
Q 3513 2838 3513 2113 
z
" transform="scale(0.015625)"/>
       <path id="DejaVuSans-74" d="M 1172 4494 
L 1172 3500 
L 2356 3500 
L 2356 3053 
L 1172 3053 
L 1172 1153 
Q 1172 725 1289 603 
Q 1406 481 1766 481 
L 2356 481 
L 2356 0 
L 1766 0 
Q 1100 0 847 248 
Q 594 497 594 1153 
L 594 3053 
L 172 3053 
L 172 3500 
L 594 3500 
L 594 4494 
L 1172 4494 
z
" transform="scale(0.015625)"/>
       <path id="DejaVuSans-5f" d="M 3263 -1063 
L 3263 -1509 
L -63 -1509 
L -63 -1063 
L 3263 -1063 
z
" transform="scale(0.015625)"/>
       <path id="DejaVuSans-69" d="M 603 3500 
L 1178 3500 
L 1178 0 
L 603 0 
L 603 3500 
z
M 603 4863 
L 1178 4863 
L 1178 4134 
L 603 4134 
L 603 4863 
z
" transform="scale(0.015625)"/>
       <path id="DejaVuSans-6d" d="M 3328 2828 
Q 3544 3216 3844 3400 
Q 4144 3584 4550 3584 
Q 5097 3584 5394 3201 
Q 5691 2819 5691 2113 
L 5691 0 
L 5113 0 
L 5113 2094 
Q 5113 2597 4934 2840 
Q 4756 3084 4391 3084 
Q 3944 3084 3684 2787 
Q 3425 2491 3425 1978 
L 3425 0 
L 2847 0 
L 2847 2094 
Q 2847 2600 2669 2842 
Q 2491 3084 2119 3084 
Q 1678 3084 1418 2786 
Q 1159 2488 1159 1978 
L 1159 0 
L 581 0 
L 581 3500 
L 1159 3500 
L 1159 2956 
Q 1356 3278 1631 3431 
Q 1906 3584 2284 3584 
Q 2666 3584 2933 3390 
Q 3200 3197 3328 2828 
z
" transform="scale(0.015625)"/>
       <path id="DejaVuSans-6f" d="M 1959 3097 
Q 1497 3097 1228 2736 
Q 959 2375 959 1747 
Q 959 1119 1226 758 
Q 1494 397 1959 397 
Q 2419 397 2687 759 
Q 2956 1122 2956 1747 
Q 2956 2369 2687 2733 
Q 2419 3097 1959 3097 
z
M 1959 3584 
Q 2709 3584 3137 3096 
Q 3566 2609 3566 1747 
Q 3566 888 3137 398 
Q 2709 -91 1959 -91 
Q 1206 -91 779 398 
Q 353 888 353 1747 
Q 353 2609 779 3096 
Q 1206 3584 1959 3584 
z
" transform="scale(0.015625)"/>
       <path id="DejaVuSans-66" d="M 2375 4863 
L 2375 4384 
L 1825 4384 
Q 1516 4384 1395 4259 
Q 1275 4134 1275 3809 
L 1275 3500 
L 2222 3500 
L 2222 3053 
L 1275 3053 
L 1275 0 
L 697 0 
L 697 3053 
L 147 3053 
L 147 3500 
L 697 3500 
L 697 3744 
Q 697 4328 969 4595 
Q 1241 4863 1831 4863 
L 2375 4863 
z
" transform="scale(0.015625)"/>
       <path id="DejaVuSans-73" d="M 2834 3397 
L 2834 2853 
Q 2591 2978 2328 3040 
Q 2066 3103 1784 3103 
Q 1356 3103 1142 2972 
Q 928 2841 928 2578 
Q 928 2378 1081 2264 
Q 1234 2150 1697 2047 
L 1894 2003 
Q 2506 1872 2764 1633 
Q 3022 1394 3022 966 
Q 3022 478 2636 193 
Q 2250 -91 1575 -91 
Q 1294 -91 989 -36 
Q 684 19 347 128 
L 347 722 
Q 666 556 975 473 
Q 1284 391 1588 391 
Q 1994 391 2212 530 
Q 2431 669 2431 922 
Q 2431 1156 2273 1281 
Q 2116 1406 1581 1522 
L 1381 1569 
Q 847 1681 609 1914 
Q 372 2147 372 2553 
Q 372 3047 722 3315 
Q 1072 3584 1716 3584 
Q 2034 3584 2315 3537 
Q 2597 3491 2834 3397 
z
" transform="scale(0.015625)"/>
       <path id="DejaVuSans-20" transform="scale(0.015625)"/>
       <path id="DejaVuSans-5b" d="M 550 4863 
L 1875 4863 
L 1875 4416 
L 1125 4416 
L 1125 -397 
L 1875 -397 
L 1875 -844 
L 550 -844 
L 550 4863 
z
" transform="scale(0.015625)"/>
       <path id="DejaVuSans-b5" d="M 544 -1331 
L 544 3500 
L 1119 3500 
L 1119 1325 
Q 1119 872 1334 640 
Q 1550 409 1972 409 
Q 2434 409 2667 671 
Q 2900 934 2900 1459 
L 2900 3500 
L 3475 3500 
L 3475 806 
Q 3475 619 3529 530 
Q 3584 441 3700 441 
Q 3728 441 3778 458 
Q 3828 475 3916 513 
L 3916 50 
Q 3788 -22 3673 -56 
Q 3559 -91 3450 -91 
Q 3234 -91 3106 31 
Q 2978 153 2931 403 
Q 2775 156 2548 32 
Q 2322 -91 2016 -91 
Q 1697 -91 1473 31 
Q 1250 153 1119 397 
L 1119 -1331 
L 544 -1331 
z
" transform="scale(0.015625)"/>
       <path id="DejaVuSans-5d" d="M 1947 4863 
L 1947 -844 
L 622 -844 
L 622 -397 
L 1369 -397 
L 1369 4416 
L 622 4416 
L 622 4863 
L 1947 4863 
z
" transform="scale(0.015625)"/>
      </defs>
      <use xlink:href="#DejaVuSans-65"/>
      <use xlink:href="#DejaVuSans-76" transform="translate(61.523438 0)"/>
      <use xlink:href="#DejaVuSans-65" transform="translate(120.703125 0)"/>
      <use xlink:href="#DejaVuSans-6e" transform="translate(182.226562 0)"/>
      <use xlink:href="#DejaVuSans-74" transform="translate(245.605469 0)"/>
      <use xlink:href="#DejaVuSans-5f" transform="translate(284.814453 0)"/>
      <use xlink:href="#DejaVuSans-74" transform="translate(334.814453 0)"/>
      <use xlink:href="#DejaVuSans-69" transform="translate(374.023438 0)"/>
      <use xlink:href="#DejaVuSans-6d" transform="translate(401.806641 0)"/>
      <use xlink:href="#DejaVuSans-65" transform="translate(499.21875 0)"/>
      <use xlink:href="#DejaVuSans-5f" transform="translate(560.742188 0)"/>
      <use xlink:href="#DejaVuSans-6f" transform="translate(610.742188 0)"/>
      <use xlink:href="#DejaVuSans-66" transform="translate(671.923828 0)"/>
      <use xlink:href="#DejaVuSans-66" transform="translate(707.128906 0)"/>
      <use xlink:href="#DejaVuSans-73" transform="translate(742.333984 0)"/>
      <use xlink:href="#DejaVuSans-65" transform="translate(794.433594 0)"/>
      <use xlink:href="#DejaVuSans-74" transform="translate(855.957031 0)"/>
      <use xlink:href="#DejaVuSans-20" transform="translate(895.166016 0)"/>
      <use xlink:href="#DejaVuSans-5b" transform="translate(926.953125 0)"/>
      <use xlink:href="#DejaVuSans-b5" transform="translate(965.966797 0)"/>
      <use xlink:href="#DejaVuSans-73" transform="translate(1029.589844 0)"/>
      <use xlink:href="#DejaVuSans-5d" transform="translate(1081.689453 0)"/>
     </g>
    </g>
   </g>
   <g id="matplotlib.axis_2">
    <g id="ytick_1">
     <g id="line2d_9">
      <defs>
       <path id="m1aa75d4776" d="M 0 0 
L -3.5 0 
" style="stroke: #000000; stroke-width: 0.8"/>
      </defs>
      <g>
       <use xlink:href="#m1aa75d4776" x="46.965625" y="218.88" style="stroke: #000000; stroke-width: 0.8"/>
      </g>
     </g>
     <g id="text_10">
      <!-- 0 -->
      <g transform="translate(33.603125 222.679219) scale(0.1 -0.1)">
       <use xlink:href="#DejaVuSans-30"/>
      </g>
     </g>
    </g>
    <g id="ytick_2">
     <g id="line2d_10">
      <g>
       <use xlink:href="#m1aa75d4776" x="46.965625" y="183.324444" style="stroke: #000000; stroke-width: 0.8"/>
      </g>
     </g>
     <g id="text_11">
      <!-- 100 -->
      <g transform="translate(20.878125 187.123663) scale(0.1 -0.1)">
       <use xlink:href="#DejaVuSans-31"/>
       <use xlink:href="#DejaVuSans-30" transform="translate(63.623047 0)"/>
       <use xlink:href="#DejaVuSans-30" transform="translate(127.246094 0)"/>
      </g>
     </g>
    </g>
    <g id="ytick_3">
     <g id="line2d_11">
      <g>
       <use xlink:href="#m1aa75d4776" x="46.965625" y="147.768889" style="stroke: #000000; stroke-width: 0.8"/>
      </g>
     </g>
     <g id="text_12">
      <!-- 200 -->
      <g transform="translate(20.878125 151.568108) scale(0.1 -0.1)">
       <use xlink:href="#DejaVuSans-32"/>
       <use xlink:href="#DejaVuSans-30" transform="translate(63.623047 0)"/>
       <use xlink:href="#DejaVuSans-30" transform="translate(127.246094 0)"/>
      </g>
     </g>
    </g>
    <g id="ytick_4">
     <g id="line2d_12">
      <g>
       <use xlink:href="#m1aa75d4776" x="46.965625" y="112.213333" style="stroke: #000000; stroke-width: 0.8"/>
      </g>
     </g>
     <g id="text_13">
      <!-- 300 -->
      <g transform="translate(20.878125 116.012552) scale(0.1 -0.1)">
       <use xlink:href="#DejaVuSans-33"/>
       <use xlink:href="#DejaVuSans-30" transform="translate(63.623047 0)"/>
       <use xlink:href="#DejaVuSans-30" transform="translate(127.246094 0)"/>
      </g>
     </g>
    </g>
    <g id="ytick_5">
     <g id="line2d_13">
      <g>
       <use xlink:href="#m1aa75d4776" x="46.965625" y="76.657778" style="stroke: #000000; stroke-width: 0.8"/>
      </g>
     </g>
     <g id="text_14">
      <!-- 400 -->
      <g transform="translate(20.878125 80.456997) scale(0.1 -0.1)">
       <use xlink:href="#DejaVuSans-34"/>
       <use xlink:href="#DejaVuSans-30" transform="translate(63.623047 0)"/>
       <use xlink:href="#DejaVuSans-30" transform="translate(127.246094 0)"/>
      </g>
     </g>
    </g>
    <g id="ytick_6">
     <g id="line2d_14">
      <g>
       <use xlink:href="#m1aa75d4776" x="46.965625" y="41.102222" style="stroke: #000000; stroke-width: 0.8"/>
      </g>
     </g>
     <g id="text_15">
      <!-- 500 -->
      <g transform="translate(20.878125 44.901441) scale(0.1 -0.1)">
       <use xlink:href="#DejaVuSans-35"/>
       <use xlink:href="#DejaVuSans-30" transform="translate(63.623047 0)"/>
       <use xlink:href="#DejaVuSans-30" transform="translate(127.246094 0)"/>
      </g>
     </g>
    </g>
    <g id="text_16">
     <!-- [counts] -->
     <g transform="translate(14.798438 138.6925) rotate(-90) scale(0.1 -0.1)">
      <defs>
       <path id="DejaVuSans-63" d="M 3122 3366 
L 3122 2828 
Q 2878 2963 2633 3030 
Q 2388 3097 2138 3097 
Q 1578 3097 1268 2742 
Q 959 2388 959 1747 
Q 959 1106 1268 751 
Q 1578 397 2138 397 
Q 2388 397 2633 464 
Q 2878 531 3122 666 
L 3122 134 
Q 2881 22 2623 -34 
Q 2366 -91 2075 -91 
Q 1284 -91 818 406 
Q 353 903 353 1747 
Q 353 2603 823 3093 
Q 1294 3584 2113 3584 
Q 2378 3584 2631 3529 
Q 2884 3475 3122 3366 
z
" transform="scale(0.015625)"/>
       <path id="DejaVuSans-75" d="M 544 1381 
L 544 3500 
L 1119 3500 
L 1119 1403 
Q 1119 906 1312 657 
Q 1506 409 1894 409 
Q 2359 409 2629 706 
Q 2900 1003 2900 1516 
L 2900 3500 
L 3475 3500 
L 3475 0 
L 2900 0 
L 2900 538 
Q 2691 219 2414 64 
Q 2138 -91 1772 -91 
Q 1169 -91 856 284 
Q 544 659 544 1381 
z
M 1991 3584 
L 1991 3584 
z
" transform="scale(0.015625)"/>
      </defs>
      <use xlink:href="#DejaVuSans-5b"/>
      <use xlink:href="#DejaVuSans-63" transform="translate(39.013672 0)"/>
      <use xlink:href="#DejaVuSans-6f" transform="translate(93.994141 0)"/>
      <use xlink:href="#DejaVuSans-75" transform="translate(155.175781 0)"/>
      <use xlink:href="#DejaVuSans-6e" transform="translate(218.554688 0)"/>
      <use xlink:href="#DejaVuSans-74" transform="translate(281.933594 0)"/>
      <use xlink:href="#DejaVuSans-73" transform="translate(321.142578 0)"/>
      <use xlink:href="#DejaVuSans-5d" transform="translate(373.242188 0)"/>
     </g>
    </g>
   </g>
   <g id="patch_3">
    <path d="M 46.965625 228.96 
L 46.965625 7.2 
" style="fill: none; stroke: #000000; stroke-width: 0.8; stroke-linejoin: miter; stroke-linecap: square"/>
   </g>
   <g id="patch_4">
    <path d="M 381.765625 228.96 
L 381.765625 7.2 
" style="fill: none; stroke: #000000; stroke-width: 0.8; stroke-linejoin: miter; stroke-linecap: square"/>
   </g>
   <g id="patch_5">
    <path d="M 46.965625 228.96 
L 381.765625 228.96 
" style="fill: none; stroke: #000000; stroke-width: 0.8; stroke-linejoin: miter; stroke-linecap: square"/>
   </g>
   <g id="patch_6">
    <path d="M 46.965625 7.2 
L 381.765625 7.2 
" style="fill: none; stroke: #000000; stroke-width: 0.8; stroke-linejoin: miter; stroke-linecap: square"/>
   </g>
   <g id="legend_1">
    <g id="patch_7">
     <path d="M 246.957813 45.1125 
L 374.765625 45.1125 
Q 376.765625 45.1125 376.765625 43.1125 
L 376.765625 14.2 
Q 376.765625 12.2 374.765625 12.2 
L 246.957813 12.2 
Q 244.957813 12.2 244.957813 14.2 
L 244.957813 43.1125 
Q 244.957813 45.1125 246.957813 45.1125 
z
" style="fill: #ffffff; opacity: 0.8; stroke: #cccccc; stroke-linejoin: miter"/>
    </g>
    <g id="line2d_15">
     <path d="M 248.957813 20.298437 
L 248.957813 20.298437 
L 258.957813 20.298437 
L 258.957813 20.298437 
L 268.957813 20.298437 
" style="fill: none; stroke: #1f77b4; stroke-width: 1.5; stroke-linecap: square"/>
    </g>
    <g id="text_17">
     <!-- detector_number:0 -->
     <g transform="translate(276.957813 23.798437) scale(0.1 -0.1)">
      <defs>
       <path id="DejaVuSans-64" d="M 2906 2969 
L 2906 4863 
L 3481 4863 
L 3481 0 
L 2906 0 
L 2906 525 
Q 2725 213 2448 61 
Q 2172 -91 1784 -91 
Q 1150 -91 751 415 
Q 353 922 353 1747 
Q 353 2572 751 3078 
Q 1150 3584 1784 3584 
Q 2172 3584 2448 3432 
Q 2725 3281 2906 2969 
z
M 947 1747 
Q 947 1113 1208 752 
Q 1469 391 1925 391 
Q 2381 391 2643 752 
Q 2906 1113 2906 1747 
Q 2906 2381 2643 2742 
Q 2381 3103 1925 3103 
Q 1469 3103 1208 2742 
Q 947 2381 947 1747 
z
" transform="scale(0.015625)"/>
       <path id="DejaVuSans-72" d="M 2631 2963 
Q 2534 3019 2420 3045 
Q 2306 3072 2169 3072 
Q 1681 3072 1420 2755 
Q 1159 2438 1159 1844 
L 1159 0 
L 581 0 
L 581 3500 
L 1159 3500 
L 1159 2956 
Q 1341 3275 1631 3429 
Q 1922 3584 2338 3584 
Q 2397 3584 2469 3576 
Q 2541 3569 2628 3553 
L 2631 2963 
z
" transform="scale(0.015625)"/>
       <path id="DejaVuSans-62" d="M 3116 1747 
Q 3116 2381 2855 2742 
Q 2594 3103 2138 3103 
Q 1681 3103 1420 2742 
Q 1159 2381 1159 1747 
Q 1159 1113 1420 752 
Q 1681 391 2138 391 
Q 2594 391 2855 752 
Q 3116 1113 3116 1747 
z
M 1159 2969 
Q 1341 3281 1617 3432 
Q 1894 3584 2278 3584 
Q 2916 3584 3314 3078 
Q 3713 2572 3713 1747 
Q 3713 922 3314 415 
Q 2916 -91 2278 -91 
Q 1894 -91 1617 61 
Q 1341 213 1159 525 
L 1159 0 
L 581 0 
L 581 4863 
L 1159 4863 
L 1159 2969 
z
" transform="scale(0.015625)"/>
       <path id="DejaVuSans-3a" d="M 750 794 
L 1409 794 
L 1409 0 
L 750 0 
L 750 794 
z
M 750 3309 
L 1409 3309 
L 1409 2516 
L 750 2516 
L 750 3309 
z
" transform="scale(0.015625)"/>
      </defs>
      <use xlink:href="#DejaVuSans-64"/>
      <use xlink:href="#DejaVuSans-65" transform="translate(63.476562 0)"/>
      <use xlink:href="#DejaVuSans-74" transform="translate(125 0)"/>
      <use xlink:href="#DejaVuSans-65" transform="translate(164.208984 0)"/>
      <use xlink:href="#DejaVuSans-63" transform="translate(225.732422 0)"/>
      <use xlink:href="#DejaVuSans-74" transform="translate(280.712891 0)"/>
      <use xlink:href="#DejaVuSans-6f" transform="translate(319.921875 0)"/>
      <use xlink:href="#DejaVuSans-72" transform="translate(381.103516 0)"/>
      <use xlink:href="#DejaVuSans-5f" transform="translate(422.216797 0)"/>
      <use xlink:href="#DejaVuSans-6e" transform="translate(472.216797 0)"/>
      <use xlink:href="#DejaVuSans-75" transform="translate(535.595703 0)"/>
      <use xlink:href="#DejaVuSans-6d" transform="translate(598.974609 0)"/>
      <use xlink:href="#DejaVuSans-62" transform="translate(696.386719 0)"/>
      <use xlink:href="#DejaVuSans-65" transform="translate(759.863281 0)"/>
      <use xlink:href="#DejaVuSans-72" transform="translate(821.386719 0)"/>
      <use xlink:href="#DejaVuSans-3a" transform="translate(860.75 0)"/>
      <use xlink:href="#DejaVuSans-30" transform="translate(894.441406 0)"/>
     </g>
    </g>
    <g id="line2d_16">
     <path d="M 248.957813 35.254687 
L 248.957813 35.254687 
L 258.957813 35.254687 
L 258.957813 35.254687 
L 268.957813 35.254687 
" style="fill: none; stroke: #ff7f0e; stroke-width: 1.5; stroke-linecap: square"/>
    </g>
    <g id="text_18">
     <!-- detector_number:1 -->
     <g transform="translate(276.957813 38.754687) scale(0.1 -0.1)">
      <use xlink:href="#DejaVuSans-64"/>
      <use xlink:href="#DejaVuSans-65" transform="translate(63.476562 0)"/>
      <use xlink:href="#DejaVuSans-74" transform="translate(125 0)"/>
      <use xlink:href="#DejaVuSans-65" transform="translate(164.208984 0)"/>
      <use xlink:href="#DejaVuSans-63" transform="translate(225.732422 0)"/>
      <use xlink:href="#DejaVuSans-74" transform="translate(280.712891 0)"/>
      <use xlink:href="#DejaVuSans-6f" transform="translate(319.921875 0)"/>
      <use xlink:href="#DejaVuSans-72" transform="translate(381.103516 0)"/>
      <use xlink:href="#DejaVuSans-5f" transform="translate(422.216797 0)"/>
      <use xlink:href="#DejaVuSans-6e" transform="translate(472.216797 0)"/>
      <use xlink:href="#DejaVuSans-75" transform="translate(535.595703 0)"/>
      <use xlink:href="#DejaVuSans-6d" transform="translate(598.974609 0)"/>
      <use xlink:href="#DejaVuSans-62" transform="translate(696.386719 0)"/>
      <use xlink:href="#DejaVuSans-65" transform="translate(759.863281 0)"/>
      <use xlink:href="#DejaVuSans-72" transform="translate(821.386719 0)"/>
      <use xlink:href="#DejaVuSans-3a" transform="translate(860.75 0)"/>
      <use xlink:href="#DejaVuSans-31" transform="translate(894.441406 0)"/>
     </g>
    </g>
   </g>
   <g id="line2d_17">
    <path d="M 62.183807 113.28 
L 63.198352 113.28 
L 63.198352 114.702222 
L 64.212898 114.702222 
L 64.212898 123.235556 
L 65.227443 123.235556 
L 65.227443 121.457778 
L 66.241989 121.457778 
L 66.241989 125.013333 
L 67.256534 125.013333 
L 67.256534 127.146667 
L 68.27108 127.146667 
L 68.27108 122.168889 
L 69.285625 122.168889 
L 69.285625 118.613333 
L 70.30017 118.613333 
L 70.30017 137.457778 
L 71.314716 137.457778 
L 71.314716 129.635556 
L 72.329261 129.635556 
L 72.329261 129.28 
L 73.343807 129.28 
L 73.343807 128.213333 
L 74.358352 128.213333 
L 74.358352 137.457778 
L 75.372898 137.457778 
L 75.372898 127.502222 
L 76.387443 127.502222 
L 76.387443 136.035556 
L 77.401989 136.035556 
L 77.401989 134.968889 
L 78.416534 134.968889 
L 78.416534 134.613333 
L 79.43108 134.613333 
L 79.43108 129.635556 
L 80.445625 129.635556 
L 80.445625 140.657778 
L 81.46017 140.657778 
L 81.46017 135.68 
L 82.474716 135.68 
L 82.474716 147.057778 
L 83.489261 147.057778 
L 83.489261 140.302222 
L 84.503807 140.302222 
L 84.503807 149.546667 
L 85.518352 149.546667 
L 85.518352 153.102222 
L 86.532898 153.102222 
L 86.532898 144.568889 
L 87.547443 144.568889 
L 87.547443 144.924444 
L 88.561989 144.924444 
L 88.561989 153.102222 
L 89.576534 153.102222 
L 89.576534 158.435556 
L 90.59108 158.435556 
L 90.59108 157.368889 
L 91.605625 157.368889 
L 91.605625 155.235556 
L 92.62017 155.235556 
L 92.62017 161.28 
L 93.634716 161.28 
L 93.634716 151.324444 
L 94.649261 151.324444 
L 94.649261 161.991111 
L 95.663807 161.991111 
L 95.663807 157.724444 
L 96.678352 157.724444 
L 96.678352 164.835556 
L 97.692898 164.835556 
L 97.692898 167.324444 
L 98.707443 167.324444 
L 98.707443 176.568889 
L 99.721989 176.568889 
L 99.721989 170.88 
L 100.736534 170.88 
L 100.736534 163.768889 
L 101.75108 163.768889 
L 101.75108 174.08 
L 102.765625 174.08 
L 102.765625 175.146667 
L 103.78017 175.146667 
L 103.78017 176.924444 
L 104.794716 176.924444 
L 104.794716 179.768889 
L 105.809261 179.768889 
L 105.809261 184.391111 
L 106.823807 184.391111 
L 106.823807 176.924444 
L 107.838352 176.924444 
L 107.838352 188.302222 
L 108.852898 188.302222 
L 108.852898 186.88 
L 109.867443 186.88 
L 109.867443 190.791111 
L 110.881989 190.791111 
L 110.881989 193.28 
L 111.896534 193.28 
L 111.896534 187.235556 
L 112.91108 187.235556 
L 112.91108 193.28 
L 113.925625 193.28 
L 113.925625 197.546667 
L 114.94017 197.546667 
L 114.94017 193.991111 
L 115.954716 193.991111 
L 115.954716 200.035556 
L 116.969261 200.035556 
L 116.969261 201.102222 
L 117.983807 201.102222 
L 117.983807 202.524444 
L 120.012898 202.524444 
L 120.012898 209.991111 
L 121.027443 209.991111 
L 121.027443 203.591111 
L 122.041989 203.591111 
L 122.041989 208.213333 
L 123.056534 208.213333 
L 123.056534 212.124444 
L 124.07108 212.124444 
L 124.07108 211.768889 
L 125.085625 211.768889 
L 125.085625 211.413333 
L 126.10017 211.413333 
L 126.10017 212.835556 
L 127.114716 212.835556 
L 127.114716 214.968889 
L 128.129261 214.968889 
L 128.129261 216.391111 
L 129.143807 216.391111 
L 129.143807 216.035556 
L 130.158352 216.035556 
L 130.158352 215.68 
L 131.172898 215.68 
L 131.172898 217.457778 
L 132.187443 217.457778 
L 132.187443 218.524444 
L 133.201989 218.524444 
L 133.201989 218.88 
L 134.216534 218.88 
L 134.216534 218.524444 
L 135.23108 218.524444 
L 135.23108 218.88 
L 148.42017 218.88 
L 148.42017 218.524444 
L 149.434716 218.524444 
L 149.434716 217.457778 
L 150.449261 217.457778 
L 150.449261 208.924444 
L 151.463807 208.924444 
L 151.463807 205.724444 
L 152.478352 205.724444 
L 152.478352 203.235556 
L 153.492898 203.235556 
L 153.492898 194.346667 
L 154.507443 194.346667 
L 154.507443 188.302222 
L 155.521989 188.302222 
L 155.521989 179.413333 
L 157.55108 179.413333 
L 157.55108 169.813333 
L 158.565625 169.813333 
L 158.565625 164.48 
L 159.58017 164.48 
L 159.58017 157.368889 
L 160.594716 157.368889 
L 160.594716 154.88 
L 161.609261 154.88 
L 161.609261 148.48 
L 162.623807 148.48 
L 162.623807 139.946667 
L 163.638352 139.946667 
L 163.638352 134.613333 
L 164.652898 134.613333 
L 164.652898 133.546667 
L 165.667443 133.546667 
L 165.667443 117.546667 
L 166.681989 117.546667 
L 166.681989 115.413333 
L 167.696534 115.413333 
L 167.696534 113.635556 
L 168.71108 113.635556 
L 168.71108 111.857778 
L 169.725625 111.857778 
L 169.725625 108.657778 
L 170.74017 108.657778 
L 170.74017 101.546667 
L 171.754716 101.546667 
L 171.754716 100.124444 
L 172.769261 100.124444 
L 172.769261 93.368889 
L 173.783807 93.368889 
L 173.783807 90.88 
L 174.798352 90.88 
L 174.798352 78.08 
L 175.812898 78.08 
L 175.812898 85.546667 
L 176.827443 85.546667 
L 176.827443 69.191111 
L 177.841989 69.191111 
L 177.841989 65.28 
L 178.856534 65.28 
L 178.856534 64.213333 
L 179.87108 64.213333 
L 179.87108 59.946667 
L 180.885625 59.946667 
L 180.885625 55.324444 
L 181.90017 55.324444 
L 181.90017 58.88 
L 182.914716 58.88 
L 182.914716 65.991111 
L 183.929261 65.991111 
L 183.929261 44.657778 
L 184.943807 44.657778 
L 184.943807 47.502222 
L 185.958352 47.502222 
L 185.958352 44.302222 
L 186.972898 44.302222 
L 186.972898 45.013333 
L 187.987443 45.013333 
L 187.987443 43.591111 
L 189.001989 43.591111 
L 189.001989 38.968889 
L 190.016534 38.968889 
L 190.016534 49.635556 
L 191.03108 49.635556 
L 191.03108 19.413333 
L 192.045625 19.413333 
L 192.045625 36.124444 
L 193.06017 36.124444 
L 193.06017 17.991111 
L 194.074716 17.991111 
L 194.074716 25.813333 
L 195.089261 25.813333 
L 195.089261 30.435556 
L 196.103807 30.435556 
L 196.103807 42.88 
L 197.118352 42.88 
L 197.118352 31.502222 
L 198.132898 31.502222 
L 198.132898 30.08 
L 199.147443 30.08 
L 199.147443 24.746667 
L 200.161989 24.746667 
L 200.161989 48.213333 
L 201.176534 48.213333 
L 201.176534 51.768889 
L 202.19108 51.768889 
L 202.19108 26.524444 
L 203.205625 26.524444 
L 203.205625 47.146667 
L 204.22017 47.146667 
L 204.22017 36.124444 
L 205.234716 36.124444 
L 205.234716 39.324444 
L 207.263807 39.324444 
L 207.263807 41.457778 
L 208.278352 41.457778 
L 208.278352 53.191111 
L 209.292898 53.191111 
L 209.292898 44.302222 
L 210.307443 44.302222 
L 210.307443 54.257778 
L 211.321989 54.257778 
L 211.321989 50.702222 
L 212.336534 50.702222 
L 212.336534 67.413333 
L 213.35108 67.413333 
L 213.35108 59.946667 
L 214.365625 59.946667 
L 214.365625 59.591111 
L 215.38017 59.591111 
L 215.38017 56.746667 
L 216.394716 56.746667 
L 216.394716 48.924444 
L 217.409261 48.924444 
L 217.409261 57.813333 
L 218.423807 57.813333 
L 218.423807 68.835556 
L 219.438352 68.835556 
L 219.438352 56.391111 
L 220.452898 56.391111 
L 220.452898 59.591111 
L 221.467443 59.591111 
L 221.467443 68.124444 
L 222.481989 68.124444 
L 222.481989 63.146667 
L 223.496534 63.146667 
L 223.496534 71.324444 
L 224.51108 71.324444 
L 224.51108 74.168889 
L 225.525625 74.168889 
L 225.525625 64.213333 
L 226.54017 64.213333 
L 226.54017 69.902222 
L 227.554716 69.902222 
L 227.554716 76.657778 
L 228.569261 76.657778 
L 228.569261 62.08 
L 229.583807 62.08 
L 229.583807 81.635556 
L 231.612898 81.635556 
L 231.612898 75.235556 
L 232.627443 75.235556 
L 232.627443 68.48 
L 233.641989 68.48 
L 233.641989 70.613333 
L 234.656534 70.613333 
L 234.656534 72.746667 
L 235.67108 72.746667 
L 235.67108 68.48 
L 236.685625 68.48 
L 236.685625 70.968889 
L 237.70017 70.968889 
L 237.70017 76.657778 
L 238.714716 76.657778 
L 238.714716 70.613333 
L 239.729261 70.613333 
L 239.729261 72.035556 
L 240.743807 72.035556 
L 240.743807 69.902222 
L 241.758352 69.902222 
L 241.758352 61.013333 
L 242.772898 61.013333 
L 242.772898 80.924444 
L 243.787443 80.924444 
L 243.787443 83.057778 
L 244.801989 83.057778 
L 244.801989 84.48 
L 245.816534 84.48 
L 245.816534 92.302222 
L 246.83108 92.302222 
L 246.83108 81.991111 
L 247.845625 81.991111 
L 247.845625 75.235556 
L 248.86017 75.235556 
L 248.86017 79.502222 
L 249.874716 79.502222 
L 249.874716 86.257778 
L 250.889261 86.257778 
L 250.889261 94.435556 
L 251.903807 94.435556 
L 251.903807 90.524444 
L 252.918352 90.524444 
L 252.918352 104.391111 
L 253.932898 104.391111 
L 253.932898 94.435556 
L 254.947443 94.435556 
L 254.947443 97.991111 
L 255.961989 97.991111 
L 255.961989 95.146667 
L 256.976534 95.146667 
L 256.976534 110.08 
L 257.99108 110.08 
L 257.99108 104.746667 
L 259.005625 104.746667 
L 259.005625 122.524444 
L 260.02017 122.524444 
L 260.02017 117.191111 
L 261.034716 117.191111 
L 261.034716 126.435556 
L 262.049261 126.435556 
L 262.049261 133.902222 
L 263.063807 133.902222 
L 263.063807 137.457778 
L 264.078352 137.457778 
L 264.078352 140.302222 
L 265.092898 140.302222 
L 265.092898 151.324444 
L 266.107443 151.324444 
L 266.107443 148.835556 
L 267.121989 148.835556 
L 267.121989 146.346667 
L 268.136534 146.346667 
L 268.136534 160.568889 
L 269.15108 160.568889 
L 269.15108 163.768889 
L 270.165625 163.768889 
L 270.165625 166.613333 
L 271.18017 166.613333 
L 271.18017 176.213333 
L 272.194716 176.213333 
L 272.194716 170.88 
L 273.209261 170.88 
L 273.209261 181.546667 
L 274.223807 181.546667 
L 274.223807 178.702222 
L 275.238352 178.702222 
L 275.238352 185.813333 
L 277.267443 185.813333 
L 277.267443 195.413333 
L 278.281989 195.413333 
L 278.281989 200.035556 
L 279.296534 200.035556 
L 279.296534 203.946667 
L 280.31108 203.946667 
L 280.31108 208.924444 
L 281.325625 208.924444 
L 281.325625 207.857778 
L 282.34017 207.857778 
L 282.34017 212.48 
L 283.354716 212.48 
L 283.354716 213.546667 
L 284.369261 213.546667 
L 284.369261 214.613333 
L 285.383807 214.613333 
L 285.383807 217.102222 
L 286.398352 217.102222 
L 286.398352 218.168889 
L 287.412898 218.168889 
L 287.412898 218.88 
L 297.558352 218.88 
L 297.558352 217.813333 
L 298.572898 217.813333 
L 298.572898 217.102222 
L 299.587443 217.102222 
L 299.587443 208.568889 
L 300.601989 208.568889 
L 300.601989 207.146667 
L 301.616534 207.146667 
L 301.616534 201.813333 
L 302.63108 201.813333 
L 302.63108 192.213333 
L 303.645625 192.213333 
L 303.645625 190.791111 
L 304.66017 190.791111 
L 304.66017 188.302222 
L 305.674716 188.302222 
L 305.674716 185.102222 
L 306.689261 185.102222 
L 306.689261 184.035556 
L 307.703807 184.035556 
L 307.703807 173.724444 
L 308.718352 173.724444 
L 308.718352 170.88 
L 309.732898 170.88 
L 309.732898 175.502222 
L 310.747443 175.502222 
L 310.747443 164.48 
L 311.761989 164.48 
L 311.761989 160.213333 
L 312.776534 160.213333 
L 312.776534 150.613333 
L 313.79108 150.613333 
L 313.79108 138.168889 
L 314.805625 138.168889 
L 314.805625 152.746667 
L 315.82017 152.746667 
L 315.82017 148.124444 
L 316.834716 148.124444 
L 316.834716 143.146667 
L 317.849261 143.146667 
L 317.849261 150.257778 
L 318.863807 150.257778 
L 318.863807 137.813333 
L 319.878352 137.813333 
L 319.878352 133.902222 
L 320.892898 133.902222 
L 320.892898 133.191111 
L 321.907443 133.191111 
L 321.907443 128.213333 
L 322.921989 128.213333 
L 322.921989 121.102222 
L 323.936534 121.102222 
L 323.936534 131.057778 
L 324.95108 131.057778 
L 324.95108 108.657778 
L 325.965625 108.657778 
L 325.965625 114.346667 
L 326.98017 114.346667 
L 326.98017 106.168889 
L 327.994716 106.168889 
L 327.994716 115.413333 
L 329.009261 115.413333 
L 329.009261 101.902222 
L 330.023807 101.902222 
L 330.023807 111.857778 
L 331.038352 111.857778 
L 331.038352 99.768889 
L 332.052898 99.768889 
L 332.052898 108.302222 
L 333.067443 108.302222 
L 333.067443 109.724444 
L 334.081989 109.724444 
L 334.081989 99.768889 
L 335.096534 99.768889 
L 335.096534 98.346667 
L 336.11108 98.346667 
L 336.11108 86.613333 
L 337.125625 86.613333 
L 337.125625 94.435556 
L 338.14017 94.435556 
L 338.14017 92.302222 
L 339.154716 92.302222 
L 339.154716 85.902222 
L 340.169261 85.902222 
L 340.169261 92.302222 
L 341.183807 92.302222 
L 341.183807 91.235556 
L 342.198352 91.235556 
L 342.198352 81.635556 
L 343.212898 81.635556 
L 343.212898 90.88 
L 344.227443 90.88 
L 344.227443 94.435556 
L 345.241989 94.435556 
L 345.241989 93.724444 
L 346.256534 93.724444 
L 346.256534 79.502222 
L 347.27108 79.502222 
L 347.27108 87.324444 
L 348.285625 87.324444 
L 348.285625 85.191111 
L 349.30017 85.191111 
L 349.30017 94.08 
L 350.314716 94.08 
L 350.314716 92.302222 
L 351.329261 92.302222 
L 351.329261 107.235556 
L 352.343807 107.235556 
L 352.343807 104.391111 
L 353.358352 104.391111 
L 353.358352 105.102222 
L 354.372898 105.102222 
L 354.372898 97.28 
L 355.387443 97.28 
L 355.387443 101.191111 
L 356.401989 101.191111 
L 356.401989 94.791111 
L 357.416534 94.791111 
L 357.416534 106.88 
L 358.43108 106.88 
L 358.43108 115.768889 
L 360.46017 115.768889 
L 360.46017 108.302222 
L 361.474716 108.302222 
L 361.474716 98.702222 
L 362.489261 98.702222 
L 362.489261 112.213333 
L 363.503807 112.213333 
L 363.503807 121.102222 
L 364.518352 121.102222 
L 364.518352 119.324444 
L 365.532898 119.324444 
L 365.532898 108.302222 
L 366.547443 108.302222 
L 366.547443 108.302222 
" clip-path="url(#pe113130a98)" style="fill: none; stroke: #1f77b4; stroke-width: 1.5; stroke-linecap: square"/>
   </g>
   <g id="line2d_18">
    <path d="M 62.183807 114.346667 
L 63.198352 114.346667 
L 63.198352 137.102222 
L 64.212898 137.102222 
L 64.212898 118.968889 
L 65.227443 118.968889 
L 65.227443 134.257778 
L 66.241989 134.257778 
L 66.241989 124.657778 
L 67.256534 124.657778 
L 67.256534 132.124444 
L 68.27108 132.124444 
L 68.27108 131.057778 
L 69.285625 131.057778 
L 69.285625 131.413333 
L 70.30017 131.413333 
L 70.30017 130.346667 
L 71.314716 130.346667 
L 71.314716 129.991111 
L 72.329261 129.991111 
L 72.329261 133.546667 
L 73.343807 133.546667 
L 73.343807 135.68 
L 74.358352 135.68 
L 74.358352 131.413333 
L 75.372898 131.413333 
L 75.372898 146.346667 
L 76.387443 146.346667 
L 76.387443 137.102222 
L 77.401989 137.102222 
L 77.401989 147.413333 
L 78.416534 147.413333 
L 78.416534 150.968889 
L 79.43108 150.968889 
L 79.43108 144.568889 
L 80.445625 144.568889 
L 80.445625 142.791111 
L 81.46017 142.791111 
L 81.46017 151.324444 
L 82.474716 151.324444 
L 82.474716 157.368889 
L 83.489261 157.368889 
L 83.489261 155.235556 
L 84.503807 155.235556 
L 84.503807 153.813333 
L 85.518352 153.813333 
L 85.518352 159.502222 
L 86.532898 159.502222 
L 86.532898 153.102222 
L 87.547443 153.102222 
L 87.547443 159.502222 
L 88.561989 159.502222 
L 88.561989 157.368889 
L 89.576534 157.368889 
L 89.576534 165.191111 
L 90.59108 165.191111 
L 90.59108 163.057778 
L 91.605625 163.057778 
L 91.605625 175.502222 
L 92.62017 175.502222 
L 92.62017 168.391111 
L 93.634716 168.391111 
L 93.634716 164.124444 
L 94.649261 164.124444 
L 94.649261 173.724444 
L 95.663807 173.724444 
L 95.663807 172.657778 
L 96.678352 172.657778 
L 96.678352 180.835556 
L 97.692898 180.835556 
L 97.692898 179.768889 
L 98.707443 179.768889 
L 98.707443 179.057778 
L 99.721989 179.057778 
L 99.721989 183.68 
L 100.736534 183.68 
L 100.736534 185.813333 
L 101.75108 185.813333 
L 101.75108 190.08 
L 102.765625 190.08 
L 102.765625 191.146667 
L 103.78017 191.146667 
L 103.78017 186.524444 
L 104.794716 186.524444 
L 104.794716 191.502222 
L 105.809261 191.502222 
L 105.809261 196.835556 
L 106.823807 196.835556 
L 106.823807 190.791111 
L 107.838352 190.791111 
L 107.838352 202.88 
L 108.852898 202.88 
L 108.852898 196.124444 
L 109.867443 196.124444 
L 109.867443 201.457778 
L 110.881989 201.457778 
L 110.881989 203.946667 
L 111.896534 203.946667 
L 111.896534 207.857778 
L 112.91108 207.857778 
L 112.91108 203.946667 
L 113.925625 203.946667 
L 113.925625 205.724444 
L 114.94017 205.724444 
L 114.94017 211.768889 
L 115.954716 211.768889 
L 115.954716 211.413333 
L 116.969261 211.413333 
L 116.969261 209.991111 
L 117.983807 209.991111 
L 117.983807 213.191111 
L 118.998352 213.191111 
L 118.998352 214.968889 
L 120.012898 214.968889 
L 120.012898 216.391111 
L 121.027443 216.391111 
L 121.027443 215.324444 
L 122.041989 215.324444 
L 122.041989 216.035556 
L 123.056534 216.035556 
L 123.056534 217.102222 
L 124.07108 217.102222 
L 124.07108 218.524444 
L 125.085625 218.524444 
L 125.085625 218.88 
L 126.10017 218.88 
L 126.10017 218.524444 
L 127.114716 218.524444 
L 127.114716 218.88 
L 147.405625 218.88 
L 147.405625 217.813333 
L 148.42017 217.813333 
L 148.42017 211.413333 
L 149.434716 211.413333 
L 149.434716 206.791111 
L 150.449261 206.791111 
L 150.449261 204.657778 
L 151.463807 204.657778 
L 151.463807 194.346667 
L 152.478352 194.346667 
L 152.478352 192.213333 
L 153.492898 192.213333 
L 153.492898 180.124444 
L 154.507443 180.124444 
L 154.507443 179.413333 
L 155.521989 179.413333 
L 155.521989 169.102222 
L 156.536534 169.102222 
L 156.536534 166.968889 
L 157.55108 166.968889 
L 157.55108 153.457778 
L 159.58017 153.457778 
L 159.58017 148.124444 
L 160.594716 148.124444 
L 160.594716 142.08 
L 161.609261 142.08 
L 161.609261 127.857778 
L 162.623807 127.857778 
L 162.623807 132.835556 
L 163.638352 132.835556 
L 163.638352 115.413333 
L 164.652898 115.413333 
L 164.652898 113.635556 
L 165.667443 113.635556 
L 165.667443 111.146667 
L 166.681989 111.146667 
L 166.681989 107.235556 
L 167.696534 107.235556 
L 167.696534 102.613333 
L 168.71108 102.613333 
L 168.71108 104.035556 
L 169.725625 104.035556 
L 169.725625 93.368889 
L 170.74017 93.368889 
L 170.74017 94.791111 
L 171.754716 94.791111 
L 171.754716 81.991111 
L 172.769261 81.991111 
L 172.769261 77.368889 
L 173.783807 77.368889 
L 173.783807 81.28 
L 174.798352 81.28 
L 174.798352 55.68 
L 175.812898 55.68 
L 175.812898 63.502222 
L 176.827443 63.502222 
L 176.827443 58.88 
L 177.841989 58.88 
L 177.841989 52.835556 
L 178.856534 52.835556 
L 178.856534 55.68 
L 179.87108 55.68 
L 179.87108 54.613333 
L 180.885625 54.613333 
L 180.885625 58.88 
L 181.90017 58.88 
L 181.90017 39.68 
L 182.914716 39.68 
L 182.914716 40.746667 
L 183.929261 40.746667 
L 183.929261 35.057778 
L 184.943807 35.057778 
L 184.943807 39.324444 
L 185.958352 39.324444 
L 185.958352 38.613333 
L 186.972898 38.613333 
L 186.972898 47.146667 
L 187.987443 47.146667 
L 187.987443 20.835556 
L 189.001989 20.835556 
L 189.001989 27.235556 
L 190.016534 27.235556 
L 190.016534 21.902222 
L 191.03108 21.902222 
L 191.03108 17.28 
L 192.045625 17.28 
L 192.045625 25.813333 
L 193.06017 25.813333 
L 193.06017 36.835556 
L 194.074716 36.835556 
L 194.074716 27.946667 
L 196.103807 27.946667 
L 196.103807 24.391111 
L 197.118352 24.391111 
L 197.118352 29.368889 
L 198.132898 29.368889 
L 198.132898 53.191111 
L 199.147443 53.191111 
L 199.147443 23.68 
L 200.161989 23.68 
L 200.161989 36.124444 
L 201.176534 36.124444 
L 201.176534 38.613333 
L 202.19108 38.613333 
L 202.19108 33.991111 
L 203.205625 33.991111 
L 203.205625 35.768889 
L 204.22017 35.768889 
L 204.22017 37.191111 
L 205.234716 37.191111 
L 205.234716 48.924444 
L 206.249261 48.924444 
L 206.249261 41.457778 
L 207.263807 41.457778 
L 207.263807 47.857778 
L 208.278352 47.857778 
L 208.278352 45.724444 
L 209.292898 45.724444 
L 209.292898 66.346667 
L 210.307443 66.346667 
L 210.307443 53.546667 
L 211.321989 53.546667 
L 211.321989 56.746667 
L 212.336534 56.746667 
L 212.336534 52.124444 
L 213.35108 52.124444 
L 213.35108 49.991111 
L 214.365625 49.991111 
L 214.365625 49.635556 
L 215.38017 49.635556 
L 215.38017 63.857778 
L 216.394716 63.857778 
L 216.394716 57.102222 
L 217.409261 57.102222 
L 217.409261 53.546667 
L 218.423807 53.546667 
L 218.423807 62.791111 
L 219.438352 62.791111 
L 219.438352 68.124444 
L 220.452898 68.124444 
L 220.452898 62.791111 
L 221.467443 62.791111 
L 221.467443 68.48 
L 222.481989 68.48 
L 222.481989 62.435556 
L 223.496534 62.435556 
L 223.496534 70.257778 
L 224.51108 70.257778 
L 224.51108 73.102222 
L 225.525625 73.102222 
L 225.525625 61.724444 
L 226.54017 61.724444 
L 226.54017 75.591111 
L 227.554716 75.591111 
L 227.554716 79.146667 
L 228.569261 79.146667 
L 228.569261 64.924444 
L 229.583807 64.924444 
L 229.583807 69.902222 
L 230.598352 69.902222 
L 230.598352 67.413333 
L 231.612898 67.413333 
L 231.612898 60.657778 
L 232.627443 60.657778 
L 232.627443 70.257778 
L 233.641989 70.257778 
L 233.641989 73.457778 
L 234.656534 73.457778 
L 234.656534 67.768889 
L 235.67108 67.768889 
L 235.67108 67.057778 
L 236.685625 67.057778 
L 236.685625 63.502222 
L 237.70017 63.502222 
L 237.70017 62.435556 
L 238.714716 62.435556 
L 238.714716 73.102222 
L 239.729261 73.102222 
L 239.729261 82.346667 
L 240.743807 82.346667 
L 240.743807 78.435556 
L 241.758352 78.435556 
L 241.758352 86.968889 
L 242.772898 86.968889 
L 242.772898 83.057778 
L 243.787443 83.057778 
L 243.787443 72.035556 
L 244.801989 72.035556 
L 244.801989 76.302222 
L 245.816534 76.302222 
L 245.816534 81.635556 
L 246.83108 81.635556 
L 246.83108 91.591111 
L 247.845625 91.591111 
L 247.845625 89.102222 
L 248.86017 89.102222 
L 248.86017 98.702222 
L 249.874716 98.702222 
L 249.874716 94.435556 
L 250.889261 94.435556 
L 250.889261 92.657778 
L 251.903807 92.657778 
L 251.903807 95.857778 
L 252.918352 95.857778 
L 252.918352 104.746667 
L 253.932898 104.746667 
L 253.932898 103.68 
L 254.947443 103.68 
L 254.947443 123.591111 
L 255.961989 123.591111 
L 255.961989 118.613333 
L 256.976534 118.613333 
L 256.976534 123.235556 
L 257.99108 123.235556 
L 257.99108 127.146667 
L 259.005625 127.146667 
L 259.005625 142.791111 
L 260.02017 142.791111 
L 260.02017 138.168889 
L 261.034716 138.168889 
L 261.034716 148.48 
L 262.049261 148.48 
L 262.049261 150.968889 
L 263.063807 150.968889 
L 263.063807 147.413333 
L 264.078352 147.413333 
L 264.078352 157.724444 
L 265.092898 157.724444 
L 265.092898 165.191111 
L 266.107443 165.191111 
L 266.107443 170.168889 
L 267.121989 170.168889 
L 267.121989 172.302222 
L 268.136534 172.302222 
L 268.136534 176.568889 
L 269.15108 176.568889 
L 269.15108 175.857778 
L 270.165625 175.857778 
L 270.165625 180.124444 
L 271.18017 180.124444 
L 271.18017 190.08 
L 272.194716 190.08 
L 272.194716 189.724444 
L 273.209261 189.724444 
L 273.209261 197.902222 
L 274.223807 197.902222 
L 274.223807 203.235556 
L 275.238352 203.235556 
L 275.238352 204.657778 
L 276.252898 204.657778 
L 276.252898 207.502222 
L 277.267443 207.502222 
L 277.267443 211.768889 
L 279.296534 211.768889 
L 279.296534 214.257778 
L 280.31108 214.257778 
L 280.31108 217.457778 
L 281.325625 217.457778 
L 281.325625 217.813333 
L 282.34017 217.813333 
L 282.34017 218.88 
L 292.485625 218.88 
L 292.485625 218.524444 
L 293.50017 218.524444 
L 293.50017 216.746667 
L 294.514716 216.746667 
L 294.514716 210.702222 
L 295.529261 210.702222 
L 295.529261 206.435556 
L 296.543807 206.435556 
L 296.543807 203.235556 
L 297.558352 203.235556 
L 297.558352 191.502222 
L 298.572898 191.502222 
L 298.572898 192.213333 
L 299.587443 192.213333 
L 299.587443 187.235556 
L 300.601989 187.235556 
L 300.601989 182.613333 
L 301.616534 182.613333 
L 301.616534 184.035556 
L 302.63108 184.035556 
L 302.63108 173.013333 
L 303.645625 173.013333 
L 303.645625 170.168889 
L 304.66017 170.168889 
L 304.66017 171.591111 
L 305.674716 171.591111 
L 305.674716 165.902222 
L 306.689261 165.902222 
L 306.689261 157.013333 
L 307.703807 157.013333 
L 307.703807 148.835556 
L 308.718352 148.835556 
L 308.718352 137.457778 
L 309.732898 137.457778 
L 309.732898 148.48 
L 310.747443 148.48 
L 310.747443 147.057778 
L 311.761989 147.057778 
L 311.761989 145.28 
L 312.776534 145.28 
L 312.776534 147.057778 
L 313.79108 147.057778 
L 313.79108 132.124444 
L 314.805625 132.124444 
L 314.805625 131.768889 
L 315.82017 131.768889 
L 315.82017 130.346667 
L 316.834716 130.346667 
L 316.834716 122.524444 
L 317.849261 122.524444 
L 317.849261 120.391111 
L 318.863807 120.391111 
L 318.863807 123.235556 
L 319.878352 123.235556 
L 319.878352 99.768889 
L 320.892898 99.768889 
L 320.892898 114.346667 
L 321.907443 114.346667 
L 321.907443 103.68 
L 322.921989 103.68 
L 322.921989 113.28 
L 323.936534 113.28 
L 323.936534 98.346667 
L 324.95108 98.346667 
L 324.95108 110.435556 
L 325.965625 110.435556 
L 325.965625 94.435556 
L 326.98017 94.435556 
L 326.98017 112.213333 
L 327.994716 112.213333 
L 327.994716 96.924444 
L 329.009261 96.924444 
L 329.009261 93.368889 
L 330.023807 93.368889 
L 330.023807 87.68 
L 331.038352 87.68 
L 331.038352 94.08 
L 332.052898 94.08 
L 332.052898 85.902222 
L 333.067443 85.902222 
L 333.067443 88.391111 
L 334.081989 88.391111 
L 334.081989 86.257778 
L 335.096534 86.257778 
L 335.096534 88.035556 
L 336.11108 88.035556 
L 336.11108 76.657778 
L 337.125625 76.657778 
L 337.125625 84.48 
L 338.14017 84.48 
L 338.14017 89.457778 
L 339.154716 89.457778 
L 339.154716 94.435556 
L 340.169261 94.435556 
L 340.169261 77.013333 
L 341.183807 77.013333 
L 341.183807 84.835556 
L 342.198352 84.835556 
L 342.198352 81.28 
L 343.212898 81.28 
L 343.212898 92.302222 
L 344.227443 92.302222 
L 344.227443 89.813333 
L 345.241989 89.813333 
L 345.241989 103.68 
L 346.256534 103.68 
L 346.256534 99.768889 
L 347.27108 99.768889 
L 347.27108 101.191111 
L 348.285625 101.191111 
L 348.285625 99.768889 
L 349.30017 99.768889 
L 349.30017 94.08 
L 350.314716 94.08 
L 350.314716 96.924444 
L 351.329261 96.924444 
L 351.329261 105.102222 
L 352.343807 105.102222 
L 352.343807 109.368889 
L 353.358352 109.368889 
L 353.358352 112.568889 
L 354.372898 112.568889 
L 354.372898 107.235556 
L 355.387443 107.235556 
L 355.387443 100.835556 
L 356.401989 100.835556 
L 356.401989 106.88 
L 357.416534 106.88 
L 357.416534 111.146667 
L 358.43108 111.146667 
L 358.43108 122.88 
L 359.445625 122.88 
L 359.445625 108.657778 
L 360.46017 108.657778 
L 360.46017 106.168889 
L 361.474716 106.168889 
L 361.474716 120.035556 
L 362.489261 120.035556 
L 362.489261 122.524444 
L 363.503807 122.524444 
L 363.503807 118.257778 
L 364.518352 118.257778 
L 364.518352 122.168889 
L 365.532898 122.168889 
L 365.532898 122.88 
L 366.547443 122.88 
L 366.547443 122.88 
" clip-path="url(#pe113130a98)" style="fill: none; stroke: #ff7f0e; stroke-width: 1.5; stroke-linecap: square"/>
   </g>
  </g>
 </g>
 <defs>
  <clipPath id="pe113130a98">
   <rect x="46.965625" y="7.2" width="334.8" height="221.76"/>
  </clipPath>
 </defs>
</svg>
