<?xml version="1.0" encoding="utf-8" standalone="no"?>
<!DOCTYPE svg PUBLIC "-//W3C//DTD SVG 1.1//EN"
  "http://www.w3.org/Graphics/SVG/1.1/DTD/svg11.dtd">
<svg xmlns:xlink="http://www.w3.org/1999/xlink" width="401.690625pt" height="266.51625pt" viewBox="0 0 401.690625 266.51625" xmlns="http://www.w3.org/2000/svg" version="1.1">
 <metadata>
  <rdf:RDF xmlns:dc="http://purl.org/dc/elements/1.1/" xmlns:cc="http://creativecommons.org/ns#" xmlns:rdf="http://www.w3.org/1999/02/22-rdf-syntax-ns#">
   <cc:Work>
    <dc:type rdf:resource="http://purl.org/dc/dcmitype/StillImage"/>
    <dc:date>2025-11-27T11:57:58.500851</dc:date>
    <dc:format>image/svg+xml</dc:format>
    <dc:creator>
     <cc:Agent>
      <dc:title>Matplotlib v3.10.7, https://matplotlib.org/</dc:title>
     </cc:Agent>
    </dc:creator>
   </cc:Work>
  </rdf:RDF>
 </metadata>
 <defs>
  <style type="text/css">*{stroke-linejoin: round; stroke-linecap: butt}</style>
 </defs>
 <g id="figure_1">
  <g id="patch_1">
   <path d="M 0 266.51625 
L 401.690625 266.51625 
L 401.690625 0 
L 0 0 
z
" style="fill: #ffffff"/>
  </g>
  <g id="axes_1">
   <g id="patch_2">
    <path d="M 59.690625 228.96 
L 394.490625 228.96 
L 394.490625 7.2 
L 59.690625 7.2 
z
" style="fill: #ffffff"/>
   </g>
   <g id="matplotlib.axis_1">
    <g id="xtick_1">
     <g id="line2d_1">
      <defs>
       <path id="ma5b4946ce1" d="M 0 0 
L 0 3.5 
" style="stroke: #000000; stroke-width: 0.8"/>
      </defs>
      <g>
       <use xlink:href="#ma5b4946ce1" x="80.369625" y="228.96" style="stroke: #000000; stroke-width: 0.8"/>
      </g>
     </g>
     <g id="text_1">
      <!-- 20000 -->
      <g transform="translate(64.463375 243.558437) scale(0.1 -0.1)">
       <defs>
        <path id="DejaVuSans-32" d="M 1228 531 
L 3431 531 
L 3431 0 
L 469 0 
L 469 531 
Q 828 903 1448 1529 
Q 2069 2156 2228 2338 
Q 2531 2678 2651 2914 
Q 2772 3150 2772 3378 
Q 2772 3750 2511 3984 
Q 2250 4219 1831 4219 
Q 1534 4219 1204 4116 
Q 875 4013 500 3803 
L 500 4441 
Q 881 4594 1212 4672 
Q 1544 4750 1819 4750 
Q 2544 4750 2975 4387 
Q 3406 4025 3406 3419 
Q 3406 3131 3298 2873 
Q 3191 2616 2906 2266 
Q 2828 2175 2409 1742 
Q 1991 1309 1228 531 
z
" transform="scale(0.015625)"/>
        <path id="DejaVuSans-30" d="M 2034 4250 
Q 1547 4250 1301 3770 
Q 1056 3291 1056 2328 
Q 1056 1369 1301 889 
Q 1547 409 2034 409 
Q 2525 409 2770 889 
Q 3016 1369 3016 2328 
Q 3016 3291 2770 3770 
Q 2525 4250 2034 4250 
z
M 2034 4750 
Q 2819 4750 3233 4129 
Q 3647 3509 3647 2328 
Q 3647 1150 3233 529 
Q 2819 -91 2034 -91 
Q 1250 -91 836 529 
Q 422 1150 422 2328 
Q 422 3509 836 4129 
Q 1250 4750 2034 4750 
z
" transform="scale(0.015625)"/>
       </defs>
       <use xlink:href="#DejaVuSans-32"/>
       <use xlink:href="#DejaVuSans-30" transform="translate(63.623047 0)"/>
       <use xlink:href="#DejaVuSans-30" transform="translate(127.246094 0)"/>
       <use xlink:href="#DejaVuSans-30" transform="translate(190.869141 0)"/>
       <use xlink:href="#DejaVuSans-30" transform="translate(254.492188 0)"/>
      </g>
     </g>
    </g>
    <g id="xtick_2">
     <g id="line2d_2">
      <g>
       <use xlink:href="#ma5b4946ce1" x="121.223804" y="228.96" style="stroke: #000000; stroke-width: 0.8"/>
      </g>
     </g>
     <g id="text_2">
      <!-- 40000 -->
      <g transform="translate(105.317554 243.558437) scale(0.1 -0.1)">
       <defs>
        <path id="DejaVuSans-34" d="M 2419 4116 
L 825 1625 
L 2419 1625 
L 2419 4116 
z
M 2253 4666 
L 3047 4666 
L 3047 1625 
L 3713 1625 
L 3713 1100 
L 3047 1100 
L 3047 0 
L 2419 0 
L 2419 1100 
L 313 1100 
L 313 1709 
L 2253 4666 
z
" transform="scale(0.015625)"/>
       </defs>
       <use xlink:href="#DejaVuSans-34"/>
       <use xlink:href="#DejaVuSans-30" transform="translate(63.623047 0)"/>
       <use xlink:href="#DejaVuSans-30" transform="translate(127.246094 0)"/>
       <use xlink:href="#DejaVuSans-30" transform="translate(190.869141 0)"/>
       <use xlink:href="#DejaVuSans-30" transform="translate(254.492188 0)"/>
      </g>
     </g>
    </g>
    <g id="xtick_3">
     <g id="line2d_3">
      <g>
       <use xlink:href="#ma5b4946ce1" x="162.077984" y="228.96" style="stroke: #000000; stroke-width: 0.8"/>
      </g>
     </g>
     <g id="text_3">
      <!-- 60000 -->
      <g transform="translate(146.171734 243.558437) scale(0.1 -0.1)">
       <defs>
        <path id="DejaVuSans-36" d="M 2113 2584 
Q 1688 2584 1439 2293 
Q 1191 2003 1191 1497 
Q 1191 994 1439 701 
Q 1688 409 2113 409 
Q 2538 409 2786 701 
Q 3034 994 3034 1497 
Q 3034 2003 2786 2293 
Q 2538 2584 2113 2584 
z
M 3366 4563 
L 3366 3988 
Q 3128 4100 2886 4159 
Q 2644 4219 2406 4219 
Q 1781 4219 1451 3797 
Q 1122 3375 1075 2522 
Q 1259 2794 1537 2939 
Q 1816 3084 2150 3084 
Q 2853 3084 3261 2657 
Q 3669 2231 3669 1497 
Q 3669 778 3244 343 
Q 2819 -91 2113 -91 
Q 1303 -91 875 529 
Q 447 1150 447 2328 
Q 447 3434 972 4092 
Q 1497 4750 2381 4750 
Q 2619 4750 2861 4703 
Q 3103 4656 3366 4563 
z
" transform="scale(0.015625)"/>
       </defs>
       <use xlink:href="#DejaVuSans-36"/>
       <use xlink:href="#DejaVuSans-30" transform="translate(63.623047 0)"/>
       <use xlink:href="#DejaVuSans-30" transform="translate(127.246094 0)"/>
       <use xlink:href="#DejaVuSans-30" transform="translate(190.869141 0)"/>
       <use xlink:href="#DejaVuSans-30" transform="translate(254.492188 0)"/>
      </g>
     </g>
    </g>
    <g id="xtick_4">
     <g id="line2d_4">
      <g>
       <use xlink:href="#ma5b4946ce1" x="202.932163" y="228.96" style="stroke: #000000; stroke-width: 0.8"/>
      </g>
     </g>
     <g id="text_4">
      <!-- 80000 -->
      <g transform="translate(187.025913 243.558437) scale(0.1 -0.1)">
       <defs>
        <path id="DejaVuSans-38" d="M 2034 2216 
Q 1584 2216 1326 1975 
Q 1069 1734 1069 1313 
Q 1069 891 1326 650 
Q 1584 409 2034 409 
Q 2484 409 2743 651 
Q 3003 894 3003 1313 
Q 3003 1734 2745 1975 
Q 2488 2216 2034 2216 
z
M 1403 2484 
Q 997 2584 770 2862 
Q 544 3141 544 3541 
Q 544 4100 942 4425 
Q 1341 4750 2034 4750 
Q 2731 4750 3128 4425 
Q 3525 4100 3525 3541 
Q 3525 3141 3298 2862 
Q 3072 2584 2669 2484 
Q 3125 2378 3379 2068 
Q 3634 1759 3634 1313 
Q 3634 634 3220 271 
Q 2806 -91 2034 -91 
Q 1263 -91 848 271 
Q 434 634 434 1313 
Q 434 1759 690 2068 
Q 947 2378 1403 2484 
z
M 1172 3481 
Q 1172 3119 1398 2916 
Q 1625 2713 2034 2713 
Q 2441 2713 2670 2916 
Q 2900 3119 2900 3481 
Q 2900 3844 2670 4047 
Q 2441 4250 2034 4250 
Q 1625 4250 1398 4047 
Q 1172 3844 1172 3481 
z
" transform="scale(0.015625)"/>
       </defs>
       <use xlink:href="#DejaVuSans-38"/>
       <use xlink:href="#DejaVuSans-30" transform="translate(63.623047 0)"/>
       <use xlink:href="#DejaVuSans-30" transform="translate(127.246094 0)"/>
       <use xlink:href="#DejaVuSans-30" transform="translate(190.869141 0)"/>
       <use xlink:href="#DejaVuSans-30" transform="translate(254.492188 0)"/>
      </g>
     </g>
    </g>
    <g id="xtick_5">
     <g id="line2d_5">
      <g>
       <use xlink:href="#ma5b4946ce1" x="243.786343" y="228.96" style="stroke: #000000; stroke-width: 0.8"/>
      </g>
     </g>
     <g id="text_5">
      <!-- 100000 -->
      <g transform="translate(224.698843 243.558437) scale(0.1 -0.1)">
       <defs>
        <path id="DejaVuSans-31" d="M 794 531 
L 1825 531 
L 1825 4091 
L 703 3866 
L 703 4441 
L 1819 4666 
L 2450 4666 
L 2450 531 
L 3481 531 
L 3481 0 
L 794 0 
L 794 531 
z
" transform="scale(0.015625)"/>
       </defs>
       <use xlink:href="#DejaVuSans-31"/>
       <use xlink:href="#DejaVuSans-30" transform="translate(63.623047 0)"/>
       <use xlink:href="#DejaVuSans-30" transform="translate(127.246094 0)"/>
       <use xlink:href="#DejaVuSans-30" transform="translate(190.869141 0)"/>
       <use xlink:href="#DejaVuSans-30" transform="translate(254.492188 0)"/>
       <use xlink:href="#DejaVuSans-30" transform="translate(318.115234 0)"/>
      </g>
     </g>
    </g>
    <g id="xtick_6">
     <g id="line2d_6">
      <g>
       <use xlink:href="#ma5b4946ce1" x="284.640522" y="228.96" style="stroke: #000000; stroke-width: 0.8"/>
      </g>
     </g>
     <g id="text_6">
      <!-- 120000 -->
      <g transform="translate(265.553022 243.558437) scale(0.1 -0.1)">
       <use xlink:href="#DejaVuSans-31"/>
       <use xlink:href="#DejaVuSans-32" transform="translate(63.623047 0)"/>
       <use xlink:href="#DejaVuSans-30" transform="translate(127.246094 0)"/>
       <use xlink:href="#DejaVuSans-30" transform="translate(190.869141 0)"/>
       <use xlink:href="#DejaVuSans-30" transform="translate(254.492188 0)"/>
       <use xlink:href="#DejaVuSans-30" transform="translate(318.115234 0)"/>
      </g>
     </g>
    </g>
    <g id="xtick_7">
     <g id="line2d_7">
      <g>
       <use xlink:href="#ma5b4946ce1" x="325.494701" y="228.96" style="stroke: #000000; stroke-width: 0.8"/>
      </g>
     </g>
     <g id="text_7">
      <!-- 140000 -->
      <g transform="translate(306.407201 243.558437) scale(0.1 -0.1)">
       <use xlink:href="#DejaVuSans-31"/>
       <use xlink:href="#DejaVuSans-34" transform="translate(63.623047 0)"/>
       <use xlink:href="#DejaVuSans-30" transform="translate(127.246094 0)"/>
       <use xlink:href="#DejaVuSans-30" transform="translate(190.869141 0)"/>
       <use xlink:href="#DejaVuSans-30" transform="translate(254.492188 0)"/>
       <use xlink:href="#DejaVuSans-30" transform="translate(318.115234 0)"/>
      </g>
     </g>
    </g>
    <g id="xtick_8">
     <g id="line2d_8">
      <g>
       <use xlink:href="#ma5b4946ce1" x="366.348881" y="228.96" style="stroke: #000000; stroke-width: 0.8"/>
      </g>
     </g>
     <g id="text_8">
      <!-- 160000 -->
      <g transform="translate(347.261381 243.558437) scale(0.1 -0.1)">
       <use xlink:href="#DejaVuSans-31"/>
       <use xlink:href="#DejaVuSans-36" transform="translate(63.623047 0)"/>
       <use xlink:href="#DejaVuSans-30" transform="translate(127.246094 0)"/>
       <use xlink:href="#DejaVuSans-30" transform="translate(190.869141 0)"/>
       <use xlink:href="#DejaVuSans-30" transform="translate(254.492188 0)"/>
       <use xlink:href="#DejaVuSans-30" transform="translate(318.115234 0)"/>
      </g>
     </g>
    </g>
    <g id="text_9">
     <!-- tof [µs] -->
     <g transform="translate(209.034375 257.236562) scale(0.1 -0.1)">
      <defs>
       <path id="DejaVuSans-74" d="M 1172 4494 
L 1172 3500 
L 2356 3500 
L 2356 3053 
L 1172 3053 
L 1172 1153 
Q 1172 725 1289 603 
Q 1406 481 1766 481 
L 2356 481 
L 2356 0 
L 1766 0 
Q 1100 0 847 248 
Q 594 497 594 1153 
L 594 3053 
L 172 3053 
L 172 3500 
L 594 3500 
L 594 4494 
L 1172 4494 
z
" transform="scale(0.015625)"/>
       <path id="DejaVuSans-6f" d="M 1959 3097 
Q 1497 3097 1228 2736 
Q 959 2375 959 1747 
Q 959 1119 1226 758 
Q 1494 397 1959 397 
Q 2419 397 2687 759 
Q 2956 1122 2956 1747 
Q 2956 2369 2687 2733 
Q 2419 3097 1959 3097 
z
M 1959 3584 
Q 2709 3584 3137 3096 
Q 3566 2609 3566 1747 
Q 3566 888 3137 398 
Q 2709 -91 1959 -91 
Q 1206 -91 779 398 
Q 353 888 353 1747 
Q 353 2609 779 3096 
Q 1206 3584 1959 3584 
z
" transform="scale(0.015625)"/>
       <path id="DejaVuSans-66" d="M 2375 4863 
L 2375 4384 
L 1825 4384 
Q 1516 4384 1395 4259 
Q 1275 4134 1275 3809 
L 1275 3500 
L 2222 3500 
L 2222 3053 
L 1275 3053 
L 1275 0 
L 697 0 
L 697 3053 
L 147 3053 
L 147 3500 
L 697 3500 
L 697 3744 
Q 697 4328 969 4595 
Q 1241 4863 1831 4863 
L 2375 4863 
z
" transform="scale(0.015625)"/>
       <path id="DejaVuSans-20" transform="scale(0.015625)"/>
       <path id="DejaVuSans-5b" d="M 550 4863 
L 1875 4863 
L 1875 4416 
L 1125 4416 
L 1125 -397 
L 1875 -397 
L 1875 -844 
L 550 -844 
L 550 4863 
z
" transform="scale(0.015625)"/>
       <path id="DejaVuSans-b5" d="M 544 -1331 
L 544 3500 
L 1119 3500 
L 1119 1325 
Q 1119 872 1334 640 
Q 1550 409 1972 409 
Q 2434 409 2667 671 
Q 2900 934 2900 1459 
L 2900 3500 
L 3475 3500 
L 3475 806 
Q 3475 619 3529 530 
Q 3584 441 3700 441 
Q 3728 441 3778 458 
Q 3828 475 3916 513 
L 3916 50 
Q 3788 -22 3673 -56 
Q 3559 -91 3450 -91 
Q 3234 -91 3106 31 
Q 2978 153 2931 403 
Q 2775 156 2548 32 
Q 2322 -91 2016 -91 
Q 1697 -91 1473 31 
Q 1250 153 1119 397 
L 1119 -1331 
L 544 -1331 
z
" transform="scale(0.015625)"/>
       <path id="DejaVuSans-73" d="M 2834 3397 
L 2834 2853 
Q 2591 2978 2328 3040 
Q 2066 3103 1784 3103 
Q 1356 3103 1142 2972 
Q 928 2841 928 2578 
Q 928 2378 1081 2264 
Q 1234 2150 1697 2047 
L 1894 2003 
Q 2506 1872 2764 1633 
Q 3022 1394 3022 966 
Q 3022 478 2636 193 
Q 2250 -91 1575 -91 
Q 1294 -91 989 -36 
Q 684 19 347 128 
L 347 722 
Q 666 556 975 473 
Q 1284 391 1588 391 
Q 1994 391 2212 530 
Q 2431 669 2431 922 
Q 2431 1156 2273 1281 
Q 2116 1406 1581 1522 
L 1381 1569 
Q 847 1681 609 1914 
Q 372 2147 372 2553 
Q 372 3047 722 3315 
Q 1072 3584 1716 3584 
Q 2034 3584 2315 3537 
Q 2597 3491 2834 3397 
z
" transform="scale(0.015625)"/>
       <path id="DejaVuSans-5d" d="M 1947 4863 
L 1947 -844 
L 622 -844 
L 622 -397 
L 1369 -397 
L 1369 4416 
L 622 4416 
L 622 4863 
L 1947 4863 
z
" transform="scale(0.015625)"/>
      </defs>
      <use xlink:href="#DejaVuSans-74"/>
      <use xlink:href="#DejaVuSans-6f" transform="translate(39.208984 0)"/>
      <use xlink:href="#DejaVuSans-66" transform="translate(100.390625 0)"/>
      <use xlink:href="#DejaVuSans-20" transform="translate(135.595703 0)"/>
      <use xlink:href="#DejaVuSans-5b" transform="translate(167.382812 0)"/>
      <use xlink:href="#DejaVuSans-b5" transform="translate(206.396484 0)"/>
      <use xlink:href="#DejaVuSans-73" transform="translate(270.019531 0)"/>
      <use xlink:href="#DejaVuSans-5d" transform="translate(322.119141 0)"/>
     </g>
    </g>
   </g>
   <g id="matplotlib.axis_2">
    <g id="ytick_1">
     <g id="line2d_9">
      <defs>
       <path id="m499ed84e2d" d="M 0 0 
L -3.5 0 
" style="stroke: #000000; stroke-width: 0.8"/>
      </defs>
      <g>
       <use xlink:href="#m499ed84e2d" x="59.690625" y="218.88" style="stroke: #000000; stroke-width: 0.8"/>
      </g>
     </g>
     <g id="text_10">
      <!-- 0 -->
      <g transform="translate(46.328125 222.679219) scale(0.1 -0.1)">
       <use xlink:href="#DejaVuSans-30"/>
      </g>
     </g>
    </g>
    <g id="ytick_2">
     <g id="line2d_10">
      <g>
       <use xlink:href="#m499ed84e2d" x="59.690625" y="185.653795" style="stroke: #000000; stroke-width: 0.8"/>
      </g>
     </g>
     <g id="text_11">
      <!-- 2000 -->
      <g transform="translate(27.240625 189.453014) scale(0.1 -0.1)">
       <use xlink:href="#DejaVuSans-32"/>
       <use xlink:href="#DejaVuSans-30" transform="translate(63.623047 0)"/>
       <use xlink:href="#DejaVuSans-30" transform="translate(127.246094 0)"/>
       <use xlink:href="#DejaVuSans-30" transform="translate(190.869141 0)"/>
      </g>
     </g>
    </g>
    <g id="ytick_3">
     <g id="line2d_11">
      <g>
       <use xlink:href="#m499ed84e2d" x="59.690625" y="152.42759" style="stroke: #000000; stroke-width: 0.8"/>
      </g>
     </g>
     <g id="text_12">
      <!-- 4000 -->
      <g transform="translate(27.240625 156.226808) scale(0.1 -0.1)">
       <use xlink:href="#DejaVuSans-34"/>
       <use xlink:href="#DejaVuSans-30" transform="translate(63.623047 0)"/>
       <use xlink:href="#DejaVuSans-30" transform="translate(127.246094 0)"/>
       <use xlink:href="#DejaVuSans-30" transform="translate(190.869141 0)"/>
      </g>
     </g>
    </g>
    <g id="ytick_4">
     <g id="line2d_12">
      <g>
       <use xlink:href="#m499ed84e2d" x="59.690625" y="119.201384" style="stroke: #000000; stroke-width: 0.8"/>
      </g>
     </g>
     <g id="text_13">
      <!-- 6000 -->
      <g transform="translate(27.240625 123.000603) scale(0.1 -0.1)">
       <use xlink:href="#DejaVuSans-36"/>
       <use xlink:href="#DejaVuSans-30" transform="translate(63.623047 0)"/>
       <use xlink:href="#DejaVuSans-30" transform="translate(127.246094 0)"/>
       <use xlink:href="#DejaVuSans-30" transform="translate(190.869141 0)"/>
      </g>
     </g>
    </g>
    <g id="ytick_5">
     <g id="line2d_13">
      <g>
       <use xlink:href="#m499ed84e2d" x="59.690625" y="85.975179" style="stroke: #000000; stroke-width: 0.8"/>
      </g>
     </g>
     <g id="text_14">
      <!-- 8000 -->
      <g transform="translate(27.240625 89.774398) scale(0.1 -0.1)">
       <use xlink:href="#DejaVuSans-38"/>
       <use xlink:href="#DejaVuSans-30" transform="translate(63.623047 0)"/>
       <use xlink:href="#DejaVuSans-30" transform="translate(127.246094 0)"/>
       <use xlink:href="#DejaVuSans-30" transform="translate(190.869141 0)"/>
      </g>
     </g>
    </g>
    <g id="ytick_6">
     <g id="line2d_14">
      <g>
       <use xlink:href="#m499ed84e2d" x="59.690625" y="52.748974" style="stroke: #000000; stroke-width: 0.8"/>
      </g>
     </g>
     <g id="text_15">
      <!-- 10000 -->
      <g transform="translate(20.878125 56.548193) scale(0.1 -0.1)">
       <use xlink:href="#DejaVuSans-31"/>
       <use xlink:href="#DejaVuSans-30" transform="translate(63.623047 0)"/>
       <use xlink:href="#DejaVuSans-30" transform="translate(127.246094 0)"/>
       <use xlink:href="#DejaVuSans-30" transform="translate(190.869141 0)"/>
       <use xlink:href="#DejaVuSans-30" transform="translate(254.492188 0)"/>
      </g>
     </g>
    </g>
    <g id="ytick_7">
     <g id="line2d_15">
      <g>
       <use xlink:href="#m499ed84e2d" x="59.690625" y="19.522769" style="stroke: #000000; stroke-width: 0.8"/>
      </g>
     </g>
     <g id="text_16">
      <!-- 12000 -->
      <g transform="translate(20.878125 23.321988) scale(0.1 -0.1)">
       <use xlink:href="#DejaVuSans-31"/>
       <use xlink:href="#DejaVuSans-32" transform="translate(63.623047 0)"/>
       <use xlink:href="#DejaVuSans-30" transform="translate(127.246094 0)"/>
       <use xlink:href="#DejaVuSans-30" transform="translate(190.869141 0)"/>
       <use xlink:href="#DejaVuSans-30" transform="translate(254.492188 0)"/>
      </g>
     </g>
    </g>
    <g id="text_17">
     <!-- [counts] -->
     <g transform="translate(14.798438 138.6925) rotate(-90) scale(0.1 -0.1)">
      <defs>
       <path id="DejaVuSans-63" d="M 3122 3366 
L 3122 2828 
Q 2878 2963 2633 3030 
Q 2388 3097 2138 3097 
Q 1578 3097 1268 2742 
Q 959 2388 959 1747 
Q 959 1106 1268 751 
Q 1578 397 2138 397 
Q 2388 397 2633 464 
Q 2878 531 3122 666 
L 3122 134 
Q 2881 22 2623 -34 
Q 2366 -91 2075 -91 
Q 1284 -91 818 406 
Q 353 903 353 1747 
Q 353 2603 823 3093 
Q 1294 3584 2113 3584 
Q 2378 3584 2631 3529 
Q 2884 3475 3122 3366 
z
" transform="scale(0.015625)"/>
       <path id="DejaVuSans-75" d="M 544 1381 
L 544 3500 
L 1119 3500 
L 1119 1403 
Q 1119 906 1312 657 
Q 1506 409 1894 409 
Q 2359 409 2629 706 
Q 2900 1003 2900 1516 
L 2900 3500 
L 3475 3500 
L 3475 0 
L 2900 0 
L 2900 538 
Q 2691 219 2414 64 
Q 2138 -91 1772 -91 
Q 1169 -91 856 284 
Q 544 659 544 1381 
z
M 1991 3584 
L 1991 3584 
z
" transform="scale(0.015625)"/>
       <path id="DejaVuSans-6e" d="M 3513 2113 
L 3513 0 
L 2938 0 
L 2938 2094 
Q 2938 2591 2744 2837 
Q 2550 3084 2163 3084 
Q 1697 3084 1428 2787 
Q 1159 2491 1159 1978 
L 1159 0 
L 581 0 
L 581 3500 
L 1159 3500 
L 1159 2956 
Q 1366 3272 1645 3428 
Q 1925 3584 2291 3584 
Q 2894 3584 3203 3211 
Q 3513 2838 3513 2113 
z
" transform="scale(0.015625)"/>
      </defs>
      <use xlink:href="#DejaVuSans-5b"/>
      <use xlink:href="#DejaVuSans-63" transform="translate(39.013672 0)"/>
      <use xlink:href="#DejaVuSans-6f" transform="translate(93.994141 0)"/>
      <use xlink:href="#DejaVuSans-75" transform="translate(155.175781 0)"/>
      <use xlink:href="#DejaVuSans-6e" transform="translate(218.554688 0)"/>
      <use xlink:href="#DejaVuSans-74" transform="translate(281.933594 0)"/>
      <use xlink:href="#DejaVuSans-73" transform="translate(321.142578 0)"/>
      <use xlink:href="#DejaVuSans-5d" transform="translate(373.242188 0)"/>
     </g>
    </g>
   </g>
   <g id="line2d_16">
    <path d="M 74.908807 218.747095 
L 76.951516 218.747095 
L 76.951516 218.61419 
L 80.015579 218.61419 
L 80.015579 218.448059 
L 84.100997 218.414833 
L 84.100997 218.165637 
L 86.143706 218.115797 
L 86.143706 217.600791 
L 87.165061 217.600791 
L 87.165061 217.185464 
L 89.20777 217.185464 
L 89.20777 216.753523 
L 90.229124 216.753523 
L 90.229124 215.490927 
L 91.250479 215.490927 
L 91.250479 216.238517 
L 92.271833 216.238517 
L 92.271833 215.175278 
L 93.293188 215.175278 
L 93.293188 214.892855 
L 94.314542 214.892855 
L 94.314542 213.862843 
L 95.335897 213.862843 
L 95.335897 212.085241 
L 96.357251 212.085241 
L 96.357251 209.460371 
L 97.378605 209.460371 
L 97.378605 208.513424 
L 98.39996 208.513424 
L 98.39996 205.971619 
L 99.421314 205.971619 
L 99.421314 202.599159 
L 100.442669 202.599159 
L 100.442669 199.824771 
L 101.464023 199.824771 
L 101.464023 191.950161 
L 102.485378 191.950161 
L 102.485378 185.869765 
L 103.506732 185.869765 
L 103.506732 180.254536 
L 104.528087 180.254536 
L 104.528087 178.34403 
L 105.549441 178.34403 
L 105.549441 166.631792 
L 106.570796 166.631792 
L 106.570796 157.594265 
L 107.59215 157.594265 
L 107.59215 153.87293 
L 108.613505 153.87293 
L 108.613505 146.928653 
L 109.634859 146.928653 
L 109.634859 136.661755 
L 110.656214 136.661755 
L 110.656214 127.674067 
L 111.677568 127.674067 
L 111.677568 118.819283 
L 112.698923 118.819283 
L 112.698923 108.153671 
L 113.720277 108.153671 
L 113.720277 104.631693 
L 114.741632 104.631693 
L 114.741632 86.456959 
L 115.762986 86.456959 
L 115.762986 78.449444 
L 116.784341 78.449444 
L 116.784341 68.448356 
L 117.805695 68.448356 
L 117.805695 57.483708 
L 118.82705 57.483708 
L 118.82705 52.649295 
L 119.848404 52.649295 
L 119.848404 43.429023 
L 120.869759 43.429023 
L 120.869759 37.032979 
L 121.891113 37.032979 
L 121.891113 35.803609 
L 122.912468 35.803609 
L 122.912468 31.102101 
L 123.933822 31.102101 
L 123.933822 25.95204 
L 124.955177 25.95204 
L 124.955177 28.161582 
L 125.976531 28.161582 
L 125.976531 29.507244 
L 126.997886 29.507244 
L 126.997886 27.048504 
L 128.01924 27.048504 
L 128.01924 17.28 
L 129.040594 17.28 
L 129.040594 26.948826 
L 130.061949 26.948826 
L 130.061949 22.762324 
L 131.083303 22.762324 
L 131.083303 19.672287 
L 132.104658 19.672287 
L 132.104658 21.0844 
L 133.126012 21.0844 
L 133.126012 23.393622 
L 134.147367 23.393622 
L 134.147367 25.337355 
L 135.168721 25.337355 
L 135.168721 18.02759 
L 136.190076 18.02759 
L 136.190076 26.267689 
L 137.21143 26.267689 
L 137.21143 19.771965 
L 138.232785 19.771965 
L 138.232785 27.663189 
L 139.254139 27.663189 
L 139.254139 29.224821 
L 140.275494 29.224821 
L 140.275494 22.064574 
L 141.296848 22.064574 
L 141.296848 24.157824 
L 142.318203 24.157824 
L 142.318203 40.106403 
L 143.339557 40.106403 
L 143.339557 36.318616 
L 144.360912 36.318616 
L 144.360912 40.289147 
L 145.382266 40.289147 
L 145.382266 42.49869 
L 146.403621 42.49869 
L 146.403621 47.715204 
L 147.424975 47.715204 
L 147.424975 53.131075 
L 148.44633 53.131075 
L 148.44633 62.284895 
L 149.467684 62.284895 
L 149.467684 63.049098 
L 150.489039 63.049098 
L 150.489039 61.969246 
L 151.510393 61.969246 
L 151.510393 68.315451 
L 152.531748 68.315451 
L 152.531748 74.545365 
L 153.553102 74.545365 
L 153.553102 77.602176 
L 154.574457 77.602176 
L 154.574457 75.176663 
L 155.595811 75.176663 
L 155.595811 85.310655 
L 156.617166 85.310655 
L 156.617166 90.925884 
L 157.63852 90.925884 
L 157.63852 87.752781 
L 158.659875 87.752781 
L 158.659875 93.816564 
L 159.681229 93.816564 
L 159.681229 96.939827 
L 160.702584 96.939827 
L 160.702584 98.551298 
L 161.723938 98.551298 
L 161.723938 101.109716 
L 162.745292 101.109716 
L 162.745292 106.558813 
L 163.766647 106.558813 
L 163.766647 108.25335 
L 164.788001 108.25335 
L 164.788001 109.333201 
L 165.809356 109.333201 
L 165.809356 115.812311 
L 166.83071 115.812311 
L 166.83071 113.037923 
L 167.852065 113.037923 
L 167.852065 118.985414 
L 168.873419 118.985414 
L 168.873419 117.922176 
L 169.894774 117.922176 
L 169.894774 120.72979 
L 170.916128 120.72979 
L 170.916128 126.594215 
L 171.937483 126.594215 
L 171.937483 120.480593 
L 172.958837 120.480593 
L 172.958837 128.072781 
L 173.980192 128.072781 
L 173.980192 136.57869 
L 175.001546 136.57869 
L 175.001546 133.47204 
L 176.022901 133.47204 
L 176.022901 137.957577 
L 177.044255 137.957577 
L 177.044255 136.744821 
L 178.06561 136.744821 
L 178.06561 140.532608 
L 179.086964 140.532608 
L 179.086964 144.486527 
L 180.108319 144.486527 
L 180.108319 142.542794 
L 181.129673 142.542794 
L 181.129673 146.16445 
L 182.151028 146.16445 
L 182.151028 142.177305 
L 183.172382 142.177305 
L 183.172382 153.009048 
L 184.193737 153.009048 
L 184.193737 150.434017 
L 185.215091 150.434017 
L 185.215091 151.746452 
L 186.236446 151.746452 
L 186.236446 150.899184 
L 187.2578 150.899184 
L 187.2578 156.398121 
L 188.279155 156.398121 
L 188.279155 153.690185 
L 189.300509 153.690185 
L 189.300509 157.178937 
L 190.321864 157.178937 
L 190.321864 160.534784 
L 191.343218 160.534784 
L 191.343218 158.408307 
L 192.364573 158.408307 
L 192.364573 161.996737 
L 193.385927 161.996737 
L 193.385927 162.328999 
L 194.407281 162.328999 
L 194.407281 164.42225 
L 195.428636 164.42225 
L 195.428636 166.864376 
L 196.44999 166.864376 
L 196.44999 165.518714 
L 197.471345 165.518714 
L 197.471345 166.997281 
L 198.492699 166.997281 
L 198.492699 174.074462 
L 199.514054 174.074462 
L 199.514054 171.399753 
L 200.535408 171.399753 
L 200.535408 172.861706 
L 201.556763 172.861706 
L 201.556763 176.068035 
L 202.578117 176.068035 
L 202.578117 176.549815 
L 203.599472 176.549815 
L 203.599472 182.447466 
L 204.620826 182.447466 
L 204.620826 179.008554 
L 205.642181 179.008554 
L 205.642181 190.438368 
L 206.663535 190.438368 
L 206.663535 184.939431 
L 207.68489 184.939431 
L 207.68489 188.660766 
L 208.706244 188.660766 
L 208.706244 187.464623 
L 209.727599 187.464623 
L 209.727599 190.621112 
L 210.748953 190.621112 
L 210.748953 193.461953 
L 211.770308 193.461953 
L 211.770308 192.847268 
L 212.791662 192.847268 
L 212.791662 195.189716 
L 213.813017 195.189716 
L 213.813017 195.355847 
L 214.834371 195.355847 
L 214.834371 198.495723 
L 215.855726 198.495723 
L 215.855726 198.047169 
L 216.87708 198.047169 
L 216.87708 200.472682 
L 217.898435 200.472682 
L 217.898435 200.804944 
L 218.919789 200.804944 
L 218.919789 202.831743 
L 219.941144 202.831743 
L 219.941144 204.509666 
L 220.962498 204.509666 
L 220.962498 203.629172 
L 221.983853 203.629172 
L 221.983853 206.40356 
L 224.026562 206.386947 
L 224.026562 208.679555 
L 225.047916 208.679555 
L 225.047916 208.015031 
L 226.069271 208.015031 
L 226.069271 210.324252 
L 227.090625 210.324252 
L 227.090625 208.795847 
L 228.111979 208.795847 
L 228.111979 211.17152 
L 229.133334 211.17152 
L 229.133334 210.905711 
L 230.154688 210.905711 
L 230.154688 212.367664 
L 232.197397 212.40089 
L 232.197397 213.14848 
L 233.218752 213.14848 
L 233.218752 214.361236 
L 234.240106 214.361236 
L 234.240106 214.743337 
L 235.261461 214.743337 
L 235.261461 215.723511 
L 236.282815 215.723511 
L 236.282815 216.055773 
L 237.30417 216.055773 
L 237.30417 216.720297 
L 238.325524 216.720297 
L 238.325524 216.869815 
L 239.346879 216.869815 
L 239.346879 217.467886 
L 240.368233 217.467886 
L 240.368233 217.949666 
L 241.389588 217.949666 
L 241.389588 218.232089 
L 242.410942 218.232089 
L 242.410942 218.580964 
L 243.432297 218.580964 
L 243.432297 218.88 
L 379.272443 218.88 
L 379.272443 218.88 
" clip-path="url(#p3a0847e81a)" style="fill: none; stroke: #1f77b4; stroke-width: 1.5; stroke-linecap: square"/>
   </g>
   <g id="line2d_17">
    <path d="M 74.908807 218.88 
L 106.570796 218.863387 
L 106.570796 218.697256 
L 107.59215 218.697256 
L 107.59215 218.514512 
L 108.613505 218.514512 
L 108.613505 218.780321 
L 109.634859 218.780321 
L 109.634859 218.630803 
L 110.656214 218.630803 
L 110.656214 218.514512 
L 112.698923 218.531125 
L 112.698923 218.763708 
L 113.720277 218.763708 
L 113.720277 218.248702 
L 114.741632 218.248702 
L 114.741632 218.531125 
L 115.762986 218.531125 
L 115.762986 218.331768 
L 118.82705 218.298541 
L 118.82705 217.600791 
L 119.848404 217.600791 
L 119.848404 217.933053 
L 122.912468 217.833375 
L 122.912468 217.268529 
L 124.955177 217.334981 
L 124.955177 217.069172 
L 128.01924 217.002719 
L 128.01924 216.454487 
L 129.040594 216.454487 
L 129.040594 216.770136 
L 130.061949 216.770136 
L 130.061949 216.4711 
L 131.083303 216.4711 
L 131.083303 215.557379 
L 132.104658 215.557379 
L 132.104658 215.441088 
L 133.126012 215.441088 
L 133.126012 214.411075 
L 134.147367 214.411075 
L 134.147367 213.912682 
L 135.168721 213.912682 
L 135.168721 212.550408 
L 136.190076 212.550408 
L 136.190076 212.866057 
L 137.21143 212.866057 
L 137.21143 211.553622 
L 138.232785 211.553622 
L 138.232785 211.138294 
L 139.254139 211.138294 
L 139.254139 209.892311 
L 140.275494 209.892311 
L 140.275494 208.596489 
L 141.296848 208.596489 
L 141.296848 207.15115 
L 142.318203 207.15115 
L 142.318203 204.277083 
L 143.339557 204.277083 
L 143.339557 202.001088 
L 144.360912 202.001088 
L 144.360912 199.92445 
L 145.382266 199.92445 
L 145.382266 198.47911 
L 146.403621 198.47911 
L 146.403621 196.435698 
L 147.424975 196.435698 
L 147.424975 195.306007 
L 148.44633 195.306007 
L 148.44633 192.315649 
L 149.467684 192.315649 
L 149.467684 190.07288 
L 150.489039 190.07288 
L 150.489039 184.657009 
L 151.510393 184.657009 
L 151.510393 183.294734 
L 152.531748 183.294734 
L 152.531748 180.919061 
L 153.553102 180.919061 
L 153.553102 179.490334 
L 154.574457 179.490334 
L 154.574457 176.516588 
L 155.595811 176.516588 
L 155.595811 172.08089 
L 156.617166 172.08089 
L 156.617166 170.054091 
L 157.63852 170.054091 
L 157.63852 166.199852 
L 158.659875 166.199852 
L 158.659875 164.538541 
L 159.681229 164.538541 
L 159.681229 159.072831 
L 160.702584 159.072831 
L 160.702584 157.527812 
L 161.723938 157.527812 
L 161.723938 153.241632 
L 162.745292 153.241632 
L 162.745292 149.470457 
L 163.766647 149.470457 
L 163.766647 146.147837 
L 164.788001 146.147837 
L 164.788001 143.589419 
L 165.809356 143.589419 
L 165.809356 136.977404 
L 166.83071 136.977404 
L 166.83071 136.163362 
L 167.852065 136.163362 
L 167.852065 132.176218 
L 168.873419 132.176218 
L 168.873419 127.42487 
L 169.894774 127.42487 
L 169.894774 123.637083 
L 170.916128 123.637083 
L 170.916128 117.888949 
L 171.937483 117.888949 
L 171.937483 116.759258 
L 172.958837 116.759258 
L 172.958837 119.350902 
L 173.980192 119.350902 
L 173.980192 111.991298 
L 175.001546 111.991298 
L 175.001546 114.715847 
L 176.022901 114.715847 
L 176.022901 104.39911 
L 177.044255 104.39911 
L 177.044255 110.197083 
L 178.06561 110.197083 
L 178.06561 109.416267 
L 179.086964 109.416267 
L 179.086964 101.309073 
L 180.108319 101.309073 
L 180.108319 106.608653 
L 181.129673 106.608653 
L 181.129673 107.306403 
L 182.151028 107.306403 
L 182.151028 103.983782 
L 183.172382 103.983782 
L 183.172382 97.886774 
L 184.193737 97.886774 
L 184.193737 106.857849 
L 185.215091 106.857849 
L 185.215091 102.305859 
L 186.236446 102.305859 
L 186.236446 104.598467 
L 187.2578 104.598467 
L 187.2578 103.136514 
L 188.279155 103.136514 
L 188.279155 103.369098 
L 189.300509 103.369098 
L 189.300509 99.082917 
L 190.321864 99.082917 
L 190.321864 103.91733 
L 191.343218 103.91733 
L 191.343218 94.248504 
L 192.364573 94.248504 
L 192.364573 104.066848 
L 193.385927 104.066848 
L 193.385927 99.797281 
L 194.407281 99.797281 
L 194.407281 100.960198 
L 195.428636 100.960198 
L 195.428636 95.793523 
L 196.44999 95.793523 
L 196.44999 101.142942 
L 197.471345 101.142942 
L 197.471345 103.302645 
L 198.492699 103.302645 
L 198.492699 104.18314 
L 199.514054 104.18314 
L 199.514054 99.680989 
L 200.535408 99.680989 
L 200.535408 101.907145 
L 201.556763 101.907145 
L 201.556763 103.468776 
L 202.578117 103.468776 
L 202.578117 100.478418 
L 203.599472 100.478418 
L 203.599472 100.013251 
L 204.620826 100.013251 
L 204.620826 109.200297 
L 205.642181 109.200297 
L 205.642181 102.139728 
L 206.663535 102.139728 
L 206.663535 106.990754 
L 207.68489 106.990754 
L 207.68489 103.186354 
L 208.706244 103.186354 
L 208.706244 100.528257 
L 209.727599 100.528257 
L 209.727599 110.545958 
L 210.748953 110.545958 
L 210.748953 106.774784 
L 211.770308 106.774784 
L 211.770308 104.216366 
L 212.791662 104.216366 
L 212.791662 114.117775 
L 213.813017 114.117775 
L 213.813017 111.84178 
L 214.834371 111.84178 
L 214.834371 111.193869 
L 215.855726 111.193869 
L 215.855726 113.486477 
L 216.87708 113.486477 
L 216.87708 115.995056 
L 217.898435 115.995056 
L 217.898435 115.579728 
L 218.919789 115.579728 
L 218.919789 116.360544 
L 219.941144 116.360544 
L 219.941144 118.619926 
L 220.962498 118.619926 
L 220.962498 127.291965 
L 221.983853 127.291965 
L 221.983853 123.454339 
L 223.005207 123.454339 
L 223.005207 121.776415 
L 224.026562 121.776415 
L 224.026562 123.155303 
L 225.047916 123.155303 
L 225.047916 129.750705 
L 226.069271 129.750705 
L 226.069271 129.551347 
L 227.090625 129.551347 
L 227.090625 131.162818 
L 228.111979 131.162818 
L 228.111979 128.521335 
L 229.133334 128.521335 
L 229.133334 126.295179 
L 230.154688 126.295179 
L 230.154688 131.54492 
L 231.176043 131.54492 
L 231.176043 137.525637 
L 232.197397 137.525637 
L 232.197397 138.871298 
L 233.218752 138.871298 
L 233.218752 138.738393 
L 234.240106 138.738393 
L 234.240106 142.110853 
L 235.261461 142.110853 
L 235.261461 137.691768 
L 236.282815 137.691768 
L 236.282815 139.834858 
L 237.30417 139.834858 
L 237.30417 143.822002 
L 238.325524 143.822002 
L 238.325524 140.848257 
L 239.346879 140.848257 
L 239.346879 142.692311 
L 240.368233 142.692311 
L 240.368233 150.98225 
L 241.389588 150.98225 
L 241.389588 148.207862 
L 242.410942 148.207862 
L 242.410942 144.253943 
L 243.432297 144.253943 
L 243.432297 147.908826 
L 244.453651 147.908826 
L 244.453651 154.255031 
L 245.475006 154.255031 
L 245.475006 147.144623 
L 246.49636 147.144623 
L 246.49636 151.746452 
L 247.517715 151.746452 
L 247.517715 154.720198 
L 248.539069 154.720198 
L 248.539069 152.410977 
L 249.560424 152.410977 
L 249.560424 153.60712 
L 251.603133 153.656959 
L 251.603133 155.05246 
L 252.624487 155.05246 
L 252.624487 161.764153 
L 253.645842 161.764153 
L 253.645842 158.524598 
L 254.667196 158.524598 
L 254.667196 158.408307 
L 255.688551 158.408307 
L 255.688551 159.106057 
L 256.709905 159.106057 
L 256.709905 155.251817 
L 257.73126 155.251817 
L 257.73126 165.701459 
L 258.752614 165.701459 
L 258.752614 161.332213 
L 259.773969 161.332213 
L 259.773969 163.491916 
L 260.795323 163.491916 
L 260.795323 164.305958 
L 261.816677 164.305958 
L 261.816677 165.269518 
L 262.838032 165.269518 
L 262.838032 162.561582 
L 263.859386 162.561582 
L 263.859386 166.748084 
L 264.880741 166.748084 
L 264.880741 168.808109 
L 265.902095 168.808109 
L 265.902095 164.538541 
L 266.92345 164.538541 
L 266.92345 169.289889 
L 267.944804 169.289889 
L 267.944804 171.516044 
L 268.966159 171.516044 
L 268.966159 169.921187 
L 269.987513 169.921187 
L 269.987513 171.432979 
L 271.008868 171.432979 
L 271.008868 170.070705 
L 272.030222 170.070705 
L 272.030222 175.270606 
L 273.051577 175.270606 
L 273.051577 172.446378 
L 274.072931 172.446378 
L 274.072931 177.59644 
L 275.094286 177.59644 
L 275.094286 171.648949 
L 276.11564 171.648949 
L 276.11564 175.88529 
L 277.136995 175.88529 
L 277.136995 174.70576 
L 278.158349 174.70576 
L 278.158349 174.157528 
L 279.179704 174.157528 
L 279.179704 178.493548 
L 280.201058 178.493548 
L 280.201058 175.270606 
L 281.222413 175.270606 
L 281.222413 176.799011 
L 282.243767 176.799011 
L 282.243767 180.570185 
L 283.265122 180.570185 
L 283.265122 177.845637 
L 284.286476 177.845637 
L 284.286476 179.191298 
L 285.307831 179.191298 
L 285.307831 182.829567 
L 286.329185 182.829567 
L 286.329185 179.158072 
L 287.35054 179.158072 
L 287.35054 181.384227 
L 288.371894 181.384227 
L 288.371894 179.025167 
L 289.393249 179.025167 
L 289.393249 179.573399 
L 290.414603 179.573399 
L 290.414603 183.676836 
L 291.435958 183.676836 
L 291.435958 184.042324 
L 292.457312 184.042324 
L 292.457312 184.939431 
L 293.478666 184.939431 
L 293.478666 183.543931 
L 294.500021 183.543931 
L 294.500021 183.676836 
L 295.521375 183.676836 
L 295.521375 184.391199 
L 296.54273 184.391199 
L 296.54273 185.936218 
L 298.585439 185.836539 
L 298.585439 186.318319 
L 299.606793 186.318319 
L 299.606793 186.019283 
L 300.628148 186.019283 
L 300.628148 188.245439 
L 301.649502 188.245439 
L 301.649502 187.66398 
L 302.670857 187.66398 
L 302.670857 188.677379 
L 303.692211 188.677379 
L 303.692211 189.142546 
L 304.713566 189.142546 
L 304.713566 190.77063 
L 305.73492 190.77063 
L 305.73492 190.936761 
L 306.756275 190.936761 
L 306.756275 190.172559 
L 307.777629 190.172559 
L 307.777629 190.621112 
L 308.798984 190.621112 
L 308.798984 194.325834 
L 309.820338 194.325834 
L 309.820338 192.049839 
L 310.841693 192.049839 
L 310.841693 192.182744 
L 311.863047 192.182744 
L 311.863047 195.090037 
L 312.884402 195.090037 
L 312.884402 195.58843 
L 313.905756 195.58843 
L 313.905756 195.222942 
L 314.927111 195.222942 
L 314.927111 198.246527 
L 316.96982 198.163461 
L 316.96982 197.316193 
L 317.991174 197.316193 
L 317.991174 200.439456 
L 319.012529 200.439456 
L 319.012529 199.2267 
L 320.033883 199.2267 
L 320.033883 202.200445 
L 321.055238 202.200445 
L 321.055238 200.024129 
L 322.076592 200.024129 
L 322.076592 201.552534 
L 323.097947 201.552534 
L 323.097947 200.987689 
L 324.119301 200.987689 
L 324.119301 200.539135 
L 325.140656 200.539135 
L 325.140656 204.227244 
L 326.16201 204.227244 
L 326.16201 202.33335 
L 327.183364 202.33335 
L 327.183364 205.190803 
L 328.204719 205.190803 
L 328.204719 202.997874 
L 329.226073 202.997874 
L 329.226073 205.140964 
L 330.247428 205.140964 
L 330.247428 204.409988 
L 331.268782 204.409988 
L 331.268782 206.370334 
L 332.290137 206.370334 
L 332.290137 206.104524 
L 333.311491 206.104524 
L 333.311491 206.569691 
L 334.332846 206.569691 
L 334.332846 207.63293 
L 335.3542 207.63293 
L 335.3542 206.503239 
L 336.375555 206.503239 
L 336.375555 209.078269 
L 337.396909 209.078269 
L 337.396909 207.616316 
L 338.418264 207.616316 
L 338.418264 209.227787 
L 339.439618 209.227787 
L 339.439618 208.696168 
L 340.460973 208.696168 
L 340.460973 210.938937 
L 341.482327 210.938937 
L 341.482327 209.094883 
L 342.503682 209.094883 
L 342.503682 210.008603 
L 343.525036 210.008603 
L 343.525036 210.374091 
L 344.546391 210.374091 
L 344.546391 211.968949 
L 346.5891 211.935723 
L 346.5891 211.736366 
L 347.610454 211.736366 
L 347.610454 212.450729 
L 349.653163 212.517182 
L 349.653163 212.733152 
L 350.674518 212.733152 
L 350.674518 213.796391 
L 351.695872 213.796391 
L 351.695872 213.048801 
L 352.717227 213.048801 
L 352.717227 213.231545 
L 353.738581 213.231545 
L 353.738581 213.563807 
L 354.759936 213.563807 
L 354.759936 214.012361 
L 355.78129 214.012361 
L 355.78129 214.510754 
L 357.823999 214.494141 
L 357.823999 215.0756 
L 358.845353 215.0756 
L 358.845353 214.54398 
L 359.866708 214.54398 
L 359.866708 215.308183 
L 360.888062 215.308183 
L 360.888062 215.108826 
L 361.909417 215.108826 
L 361.909417 216.388035 
L 362.930771 216.388035 
L 362.930771 216.25513 
L 364.97348 216.155451 
L 364.97348 216.570779 
L 367.016189 216.620618 
L 367.016189 217.501112 
L 368.037544 217.501112 
L 368.037544 217.135624 
L 369.058898 217.135624 
L 369.058898 217.285142 
L 370.080253 217.285142 
L 370.080253 217.766922 
L 372.122962 217.683857 
L 372.122962 217.883214 
L 373.144316 217.883214 
L 373.144316 218.082571 
L 374.165671 218.082571 
L 374.165671 218.265315 
L 376.20838 218.331768 
L 376.20838 218.431446 
L 377.229734 218.431446 
L 377.229734 218.846774 
L 379.272443 218.780321 
L 379.272443 218.780321 
" clip-path="url(#p3a0847e81a)" style="fill: none; stroke: #ff7f0e; stroke-width: 1.5; stroke-linecap: square"/>
   </g>
   <g id="patch_3">
    <path d="M 59.690625 228.96 
L 59.690625 7.2 
" style="fill: none; stroke: #000000; stroke-width: 0.8; stroke-linejoin: miter; stroke-linecap: square"/>
   </g>
   <g id="patch_4">
    <path d="M 394.490625 228.96 
L 394.490625 7.2 
" style="fill: none; stroke: #000000; stroke-width: 0.8; stroke-linejoin: miter; stroke-linecap: square"/>
   </g>
   <g id="patch_5">
    <path d="M 59.690625 228.96 
L 394.490625 228.96 
" style="fill: none; stroke: #000000; stroke-width: 0.8; stroke-linejoin: miter; stroke-linecap: square"/>
   </g>
   <g id="patch_6">
    <path d="M 59.690625 7.2 
L 394.490625 7.2 
" style="fill: none; stroke: #000000; stroke-width: 0.8; stroke-linejoin: miter; stroke-linecap: square"/>
   </g>
   <g id="legend_1">
    <g id="patch_7">
     <path d="M 313.267188 44.55625 
L 387.490625 44.55625 
Q 389.490625 44.55625 389.490625 42.55625 
L 389.490625 14.2 
Q 389.490625 12.2 387.490625 12.2 
L 313.267188 12.2 
Q 311.267188 12.2 311.267188 14.2 
L 311.267188 42.55625 
Q 311.267188 44.55625 313.267188 44.55625 
z
" style="fill: #ffffff; opacity: 0.8; stroke: #cccccc; stroke-linejoin: miter"/>
    </g>
    <g id="line2d_18">
     <path d="M 315.267188 20.298437 
L 315.267188 20.298437 
L 325.267188 20.298437 
L 325.267188 20.298437 
L 335.267188 20.298437 
" style="fill: none; stroke: #1f77b4; stroke-width: 1.5; stroke-linecap: square"/>
    </g>
    <g id="text_18">
     <!-- monitor -->
     <g transform="translate(343.267188 23.798437) scale(0.1 -0.1)">
      <defs>
       <path id="DejaVuSans-6d" d="M 3328 2828 
Q 3544 3216 3844 3400 
Q 4144 3584 4550 3584 
Q 5097 3584 5394 3201 
Q 5691 2819 5691 2113 
L 5691 0 
L 5113 0 
L 5113 2094 
Q 5113 2597 4934 2840 
Q 4756 3084 4391 3084 
Q 3944 3084 3684 2787 
Q 3425 2491 3425 1978 
L 3425 0 
L 2847 0 
L 2847 2094 
Q 2847 2600 2669 2842 
Q 2491 3084 2119 3084 
Q 1678 3084 1418 2786 
Q 1159 2488 1159 1978 
L 1159 0 
L 581 0 
L 581 3500 
L 1159 3500 
L 1159 2956 
Q 1356 3278 1631 3431 
Q 1906 3584 2284 3584 
Q 2666 3584 2933 3390 
Q 3200 3197 3328 2828 
z
" transform="scale(0.015625)"/>
       <path id="DejaVuSans-69" d="M 603 3500 
L 1178 3500 
L 1178 0 
L 603 0 
L 603 3500 
z
M 603 4863 
L 1178 4863 
L 1178 4134 
L 603 4134 
L 603 4863 
z
" transform="scale(0.015625)"/>
       <path id="DejaVuSans-72" d="M 2631 2963 
Q 2534 3019 2420 3045 
Q 2306 3072 2169 3072 
Q 1681 3072 1420 2755 
Q 1159 2438 1159 1844 
L 1159 0 
L 581 0 
L 581 3500 
L 1159 3500 
L 1159 2956 
Q 1341 3275 1631 3429 
Q 1922 3584 2338 3584 
Q 2397 3584 2469 3576 
Q 2541 3569 2628 3553 
L 2631 2963 
z
" transform="scale(0.015625)"/>
      </defs>
      <use xlink:href="#DejaVuSans-6d"/>
      <use xlink:href="#DejaVuSans-6f" transform="translate(97.412109 0)"/>
      <use xlink:href="#DejaVuSans-6e" transform="translate(158.59375 0)"/>
      <use xlink:href="#DejaVuSans-69" transform="translate(221.972656 0)"/>
      <use xlink:href="#DejaVuSans-74" transform="translate(249.755859 0)"/>
      <use xlink:href="#DejaVuSans-6f" transform="translate(288.964844 0)"/>
      <use xlink:href="#DejaVuSans-72" transform="translate(350.146484 0)"/>
     </g>
    </g>
    <g id="line2d_19">
     <path d="M 315.267188 34.976562 
L 315.267188 34.976562 
L 325.267188 34.976562 
L 325.267188 34.976562 
L 335.267188 34.976562 
" style="fill: none; stroke: #ff7f0e; stroke-width: 1.5; stroke-linecap: square"/>
    </g>
    <g id="text_19">
     <!-- detector -->
     <g transform="translate(343.267188 38.476562) scale(0.1 -0.1)">
      <defs>
       <path id="DejaVuSans-64" d="M 2906 2969 
L 2906 4863 
L 3481 4863 
L 3481 0 
L 2906 0 
L 2906 525 
Q 2725 213 2448 61 
Q 2172 -91 1784 -91 
Q 1150 -91 751 415 
Q 353 922 353 1747 
Q 353 2572 751 3078 
Q 1150 3584 1784 3584 
Q 2172 3584 2448 3432 
Q 2725 3281 2906 2969 
z
M 947 1747 
Q 947 1113 1208 752 
Q 1469 391 1925 391 
Q 2381 391 2643 752 
Q 2906 1113 2906 1747 
Q 2906 2381 2643 2742 
Q 2381 3103 1925 3103 
Q 1469 3103 1208 2742 
Q 947 2381 947 1747 
z
" transform="scale(0.015625)"/>
       <path id="DejaVuSans-65" d="M 3597 1894 
L 3597 1613 
L 953 1613 
Q 991 1019 1311 708 
Q 1631 397 2203 397 
Q 2534 397 2845 478 
Q 3156 559 3463 722 
L 3463 178 
Q 3153 47 2828 -22 
Q 2503 -91 2169 -91 
Q 1331 -91 842 396 
Q 353 884 353 1716 
Q 353 2575 817 3079 
Q 1281 3584 2069 3584 
Q 2775 3584 3186 3129 
Q 3597 2675 3597 1894 
z
M 3022 2063 
Q 3016 2534 2758 2815 
Q 2500 3097 2075 3097 
Q 1594 3097 1305 2825 
Q 1016 2553 972 2059 
L 3022 2063 
z
" transform="scale(0.015625)"/>
      </defs>
      <use xlink:href="#DejaVuSans-64"/>
      <use xlink:href="#DejaVuSans-65" transform="translate(63.476562 0)"/>
      <use xlink:href="#DejaVuSans-74" transform="translate(125 0)"/>
      <use xlink:href="#DejaVuSans-65" transform="translate(164.208984 0)"/>
      <use xlink:href="#DejaVuSans-63" transform="translate(225.732422 0)"/>
      <use xlink:href="#DejaVuSans-74" transform="translate(280.712891 0)"/>
      <use xlink:href="#DejaVuSans-6f" transform="translate(319.921875 0)"/>
      <use xlink:href="#DejaVuSans-72" transform="translate(381.103516 0)"/>
     </g>
    </g>
   </g>
  </g>
 </g>
 <defs>
  <clipPath id="p3a0847e81a">
   <rect x="59.690625" y="7.2" width="334.8" height="221.76"/>
  </clipPath>
 </defs>
</svg>
