<?xml version="1.0" encoding="utf-8" standalone="no"?>
<!DOCTYPE svg PUBLIC "-//W3C//DTD SVG 1.1//EN"
  "http://www.w3.org/Graphics/SVG/1.1/DTD/svg11.dtd">
<svg xmlns:xlink="http://www.w3.org/1999/xlink" width="388.965625pt" height="270.01307pt" viewBox="0 0 388.965625 270.01307" xmlns="http://www.w3.org/2000/svg" version="1.1">
 <metadata>
  <rdf:RDF xmlns:dc="http://purl.org/dc/elements/1.1/" xmlns:cc="http://creativecommons.org/ns#" xmlns:rdf="http://www.w3.org/1999/02/22-rdf-syntax-ns#">
   <cc:Work>
    <dc:type rdf:resource="http://purl.org/dc/dcmitype/StillImage"/>
    <dc:date>2025-12-05T13:47:15.161489</dc:date>
    <dc:format>image/svg+xml</dc:format>
    <dc:creator>
     <cc:Agent>
      <dc:title>Matplotlib v3.10.7, https://matplotlib.org/</dc:title>
     </cc:Agent>
    </dc:creator>
   </cc:Work>
  </rdf:RDF>
 </metadata>
 <defs>
  <style type="text/css">*{stroke-linejoin: round; stroke-linecap: butt}</style>
 </defs>
 <g id="figure_1">
  <g id="patch_1">
   <path d="M 0 270.01307 
L 388.965625 270.01307 
L 388.965625 0 
L 0 0 
z
" style="fill: #ffffff"/>
  </g>
  <g id="axes_1">
   <g id="patch_2">
    <path d="M 46.965625 232.178695 
L 381.765625 232.178695 
L 381.765625 10.418695 
L 46.965625 10.418695 
z
" style="fill: #ffffff"/>
   </g>
   <g id="matplotlib.axis_1">
    <g id="xtick_1">
     <g id="line2d_1">
      <defs>
       <path id="m9d5fd63c69" d="M 0 0 
L 0 3.5 
" style="stroke: #000000; stroke-width: 0.8"/>
      </defs>
      <g>
       <use xlink:href="#m9d5fd63c69" x="62.177245" y="232.178695" style="stroke: #000000; stroke-width: 0.8"/>
      </g>
     </g>
     <g id="text_1">
      <!-- 0 -->
      <g transform="translate(58.995995 246.777133) scale(0.1 -0.1)">
       <defs>
        <path id="DejaVuSans-30" d="M 2034 4250 
Q 1547 4250 1301 3770 
Q 1056 3291 1056 2328 
Q 1056 1369 1301 889 
Q 1547 409 2034 409 
Q 2525 409 2770 889 
Q 3016 1369 3016 2328 
Q 3016 3291 2770 3770 
Q 2525 4250 2034 4250 
z
M 2034 4750 
Q 2819 4750 3233 4129 
Q 3647 3509 3647 2328 
Q 3647 1150 3233 529 
Q 2819 -91 2034 -91 
Q 1250 -91 836 529 
Q 422 1150 422 2328 
Q 422 3509 836 4129 
Q 1250 4750 2034 4750 
z
" transform="scale(0.015625)"/>
       </defs>
       <use xlink:href="#DejaVuSans-30"/>
      </g>
     </g>
    </g>
    <g id="xtick_2">
     <g id="line2d_2">
      <g>
       <use xlink:href="#m9d5fd63c69" x="104.78917" y="232.178695" style="stroke: #000000; stroke-width: 0.8"/>
      </g>
     </g>
     <g id="text_2">
      <!-- 10000 -->
      <g transform="translate(88.88292 246.777133) scale(0.1 -0.1)">
       <defs>
        <path id="DejaVuSans-31" d="M 794 531 
L 1825 531 
L 1825 4091 
L 703 3866 
L 703 4441 
L 1819 4666 
L 2450 4666 
L 2450 531 
L 3481 531 
L 3481 0 
L 794 0 
L 794 531 
z
" transform="scale(0.015625)"/>
       </defs>
       <use xlink:href="#DejaVuSans-31"/>
       <use xlink:href="#DejaVuSans-30" transform="translate(63.623047 0)"/>
       <use xlink:href="#DejaVuSans-30" transform="translate(127.246094 0)"/>
       <use xlink:href="#DejaVuSans-30" transform="translate(190.869141 0)"/>
       <use xlink:href="#DejaVuSans-30" transform="translate(254.492188 0)"/>
      </g>
     </g>
    </g>
    <g id="xtick_3">
     <g id="line2d_3">
      <g>
       <use xlink:href="#m9d5fd63c69" x="147.401095" y="232.178695" style="stroke: #000000; stroke-width: 0.8"/>
      </g>
     </g>
     <g id="text_3">
      <!-- 20000 -->
      <g transform="translate(131.494845 246.777133) scale(0.1 -0.1)">
       <defs>
        <path id="DejaVuSans-32" d="M 1228 531 
L 3431 531 
L 3431 0 
L 469 0 
L 469 531 
Q 828 903 1448 1529 
Q 2069 2156 2228 2338 
Q 2531 2678 2651 2914 
Q 2772 3150 2772 3378 
Q 2772 3750 2511 3984 
Q 2250 4219 1831 4219 
Q 1534 4219 1204 4116 
Q 875 4013 500 3803 
L 500 4441 
Q 881 4594 1212 4672 
Q 1544 4750 1819 4750 
Q 2544 4750 2975 4387 
Q 3406 4025 3406 3419 
Q 3406 3131 3298 2873 
Q 3191 2616 2906 2266 
Q 2828 2175 2409 1742 
Q 1991 1309 1228 531 
z
" transform="scale(0.015625)"/>
       </defs>
       <use xlink:href="#DejaVuSans-32"/>
       <use xlink:href="#DejaVuSans-30" transform="translate(63.623047 0)"/>
       <use xlink:href="#DejaVuSans-30" transform="translate(127.246094 0)"/>
       <use xlink:href="#DejaVuSans-30" transform="translate(190.869141 0)"/>
       <use xlink:href="#DejaVuSans-30" transform="translate(254.492188 0)"/>
      </g>
     </g>
    </g>
    <g id="xtick_4">
     <g id="line2d_4">
      <g>
       <use xlink:href="#m9d5fd63c69" x="190.01302" y="232.178695" style="stroke: #000000; stroke-width: 0.8"/>
      </g>
     </g>
     <g id="text_4">
      <!-- 30000 -->
      <g transform="translate(174.10677 246.777133) scale(0.1 -0.1)">
       <defs>
        <path id="DejaVuSans-33" d="M 2597 2516 
Q 3050 2419 3304 2112 
Q 3559 1806 3559 1356 
Q 3559 666 3084 287 
Q 2609 -91 1734 -91 
Q 1441 -91 1130 -33 
Q 819 25 488 141 
L 488 750 
Q 750 597 1062 519 
Q 1375 441 1716 441 
Q 2309 441 2620 675 
Q 2931 909 2931 1356 
Q 2931 1769 2642 2001 
Q 2353 2234 1838 2234 
L 1294 2234 
L 1294 2753 
L 1863 2753 
Q 2328 2753 2575 2939 
Q 2822 3125 2822 3475 
Q 2822 3834 2567 4026 
Q 2313 4219 1838 4219 
Q 1578 4219 1281 4162 
Q 984 4106 628 3988 
L 628 4550 
Q 988 4650 1302 4700 
Q 1616 4750 1894 4750 
Q 2613 4750 3031 4423 
Q 3450 4097 3450 3541 
Q 3450 3153 3228 2886 
Q 3006 2619 2597 2516 
z
" transform="scale(0.015625)"/>
       </defs>
       <use xlink:href="#DejaVuSans-33"/>
       <use xlink:href="#DejaVuSans-30" transform="translate(63.623047 0)"/>
       <use xlink:href="#DejaVuSans-30" transform="translate(127.246094 0)"/>
       <use xlink:href="#DejaVuSans-30" transform="translate(190.869141 0)"/>
       <use xlink:href="#DejaVuSans-30" transform="translate(254.492188 0)"/>
      </g>
     </g>
    </g>
    <g id="xtick_5">
     <g id="line2d_5">
      <g>
       <use xlink:href="#m9d5fd63c69" x="232.624945" y="232.178695" style="stroke: #000000; stroke-width: 0.8"/>
      </g>
     </g>
     <g id="text_5">
      <!-- 40000 -->
      <g transform="translate(216.718695 246.777133) scale(0.1 -0.1)">
       <defs>
        <path id="DejaVuSans-34" d="M 2419 4116 
L 825 1625 
L 2419 1625 
L 2419 4116 
z
M 2253 4666 
L 3047 4666 
L 3047 1625 
L 3713 1625 
L 3713 1100 
L 3047 1100 
L 3047 0 
L 2419 0 
L 2419 1100 
L 313 1100 
L 313 1709 
L 2253 4666 
z
" transform="scale(0.015625)"/>
       </defs>
       <use xlink:href="#DejaVuSans-34"/>
       <use xlink:href="#DejaVuSans-30" transform="translate(63.623047 0)"/>
       <use xlink:href="#DejaVuSans-30" transform="translate(127.246094 0)"/>
       <use xlink:href="#DejaVuSans-30" transform="translate(190.869141 0)"/>
       <use xlink:href="#DejaVuSans-30" transform="translate(254.492188 0)"/>
      </g>
     </g>
    </g>
    <g id="xtick_6">
     <g id="line2d_6">
      <g>
       <use xlink:href="#m9d5fd63c69" x="275.23687" y="232.178695" style="stroke: #000000; stroke-width: 0.8"/>
      </g>
     </g>
     <g id="text_6">
      <!-- 50000 -->
      <g transform="translate(259.33062 246.777133) scale(0.1 -0.1)">
       <defs>
        <path id="DejaVuSans-35" d="M 691 4666 
L 3169 4666 
L 3169 4134 
L 1269 4134 
L 1269 2991 
Q 1406 3038 1543 3061 
Q 1681 3084 1819 3084 
Q 2600 3084 3056 2656 
Q 3513 2228 3513 1497 
Q 3513 744 3044 326 
Q 2575 -91 1722 -91 
Q 1428 -91 1123 -41 
Q 819 9 494 109 
L 494 744 
Q 775 591 1075 516 
Q 1375 441 1709 441 
Q 2250 441 2565 725 
Q 2881 1009 2881 1497 
Q 2881 1984 2565 2268 
Q 2250 2553 1709 2553 
Q 1456 2553 1204 2497 
Q 953 2441 691 2322 
L 691 4666 
z
" transform="scale(0.015625)"/>
       </defs>
       <use xlink:href="#DejaVuSans-35"/>
       <use xlink:href="#DejaVuSans-30" transform="translate(63.623047 0)"/>
       <use xlink:href="#DejaVuSans-30" transform="translate(127.246094 0)"/>
       <use xlink:href="#DejaVuSans-30" transform="translate(190.869141 0)"/>
       <use xlink:href="#DejaVuSans-30" transform="translate(254.492188 0)"/>
      </g>
     </g>
    </g>
    <g id="xtick_7">
     <g id="line2d_7">
      <g>
       <use xlink:href="#m9d5fd63c69" x="317.848795" y="232.178695" style="stroke: #000000; stroke-width: 0.8"/>
      </g>
     </g>
     <g id="text_7">
      <!-- 60000 -->
      <g transform="translate(301.942545 246.777133) scale(0.1 -0.1)">
       <defs>
        <path id="DejaVuSans-36" d="M 2113 2584 
Q 1688 2584 1439 2293 
Q 1191 2003 1191 1497 
Q 1191 994 1439 701 
Q 1688 409 2113 409 
Q 2538 409 2786 701 
Q 3034 994 3034 1497 
Q 3034 2003 2786 2293 
Q 2538 2584 2113 2584 
z
M 3366 4563 
L 3366 3988 
Q 3128 4100 2886 4159 
Q 2644 4219 2406 4219 
Q 1781 4219 1451 3797 
Q 1122 3375 1075 2522 
Q 1259 2794 1537 2939 
Q 1816 3084 2150 3084 
Q 2853 3084 3261 2657 
Q 3669 2231 3669 1497 
Q 3669 778 3244 343 
Q 2819 -91 2113 -91 
Q 1303 -91 875 529 
Q 447 1150 447 2328 
Q 447 3434 972 4092 
Q 1497 4750 2381 4750 
Q 2619 4750 2861 4703 
Q 3103 4656 3366 4563 
z
" transform="scale(0.015625)"/>
       </defs>
       <use xlink:href="#DejaVuSans-36"/>
       <use xlink:href="#DejaVuSans-30" transform="translate(63.623047 0)"/>
       <use xlink:href="#DejaVuSans-30" transform="translate(127.246094 0)"/>
       <use xlink:href="#DejaVuSans-30" transform="translate(190.869141 0)"/>
       <use xlink:href="#DejaVuSans-30" transform="translate(254.492188 0)"/>
      </g>
     </g>
    </g>
    <g id="xtick_8">
     <g id="line2d_8">
      <g>
       <use xlink:href="#m9d5fd63c69" x="360.46072" y="232.178695" style="stroke: #000000; stroke-width: 0.8"/>
      </g>
     </g>
     <g id="text_8">
      <!-- 70000 -->
      <g transform="translate(344.55447 246.777133) scale(0.1 -0.1)">
       <defs>
        <path id="DejaVuSans-37" d="M 525 4666 
L 3525 4666 
L 3525 4397 
L 1831 0 
L 1172 0 
L 2766 4134 
L 525 4134 
L 525 4666 
z
" transform="scale(0.015625)"/>
       </defs>
       <use xlink:href="#DejaVuSans-37"/>
       <use xlink:href="#DejaVuSans-30" transform="translate(63.623047 0)"/>
       <use xlink:href="#DejaVuSans-30" transform="translate(127.246094 0)"/>
       <use xlink:href="#DejaVuSans-30" transform="translate(190.869141 0)"/>
       <use xlink:href="#DejaVuSans-30" transform="translate(254.492188 0)"/>
      </g>
     </g>
    </g>
    <g id="text_9">
     <!-- event_time_offset [µs] -->
     <g transform="translate(158.330469 260.455258) scale(0.1 -0.1)">
      <defs>
       <path id="DejaVuSans-65" d="M 3597 1894 
L 3597 1613 
L 953 1613 
Q 991 1019 1311 708 
Q 1631 397 2203 397 
Q 2534 397 2845 478 
Q 3156 559 3463 722 
L 3463 178 
Q 3153 47 2828 -22 
Q 2503 -91 2169 -91 
Q 1331 -91 842 396 
Q 353 884 353 1716 
Q 353 2575 817 3079 
Q 1281 3584 2069 3584 
Q 2775 3584 3186 3129 
Q 3597 2675 3597 1894 
z
M 3022 2063 
Q 3016 2534 2758 2815 
Q 2500 3097 2075 3097 
Q 1594 3097 1305 2825 
Q 1016 2553 972 2059 
L 3022 2063 
z
" transform="scale(0.015625)"/>
       <path id="DejaVuSans-76" d="M 191 3500 
L 800 3500 
L 1894 563 
L 2988 3500 
L 3597 3500 
L 2284 0 
L 1503 0 
L 191 3500 
z
" transform="scale(0.015625)"/>
       <path id="DejaVuSans-6e" d="M 3513 2113 
L 3513 0 
L 2938 0 
L 2938 2094 
Q 2938 2591 2744 2837 
Q 2550 3084 2163 3084 
Q 1697 3084 1428 2787 
Q 1159 2491 1159 1978 
L 1159 0 
L 581 0 
L 581 3500 
L 1159 3500 
L 1159 2956 
Q 1366 3272 1645 3428 
Q 1925 3584 2291 3584 
Q 2894 3584 3203 3211 
Q 3513 2838 3513 2113 
z
" transform="scale(0.015625)"/>
       <path id="DejaVuSans-74" d="M 1172 4494 
L 1172 3500 
L 2356 3500 
L 2356 3053 
L 1172 3053 
L 1172 1153 
Q 1172 725 1289 603 
Q 1406 481 1766 481 
L 2356 481 
L 2356 0 
L 1766 0 
Q 1100 0 847 248 
Q 594 497 594 1153 
L 594 3053 
L 172 3053 
L 172 3500 
L 594 3500 
L 594 4494 
L 1172 4494 
z
" transform="scale(0.015625)"/>
       <path id="DejaVuSans-5f" d="M 3263 -1063 
L 3263 -1509 
L -63 -1509 
L -63 -1063 
L 3263 -1063 
z
" transform="scale(0.015625)"/>
       <path id="DejaVuSans-69" d="M 603 3500 
L 1178 3500 
L 1178 0 
L 603 0 
L 603 3500 
z
M 603 4863 
L 1178 4863 
L 1178 4134 
L 603 4134 
L 603 4863 
z
" transform="scale(0.015625)"/>
       <path id="DejaVuSans-6d" d="M 3328 2828 
Q 3544 3216 3844 3400 
Q 4144 3584 4550 3584 
Q 5097 3584 5394 3201 
Q 5691 2819 5691 2113 
L 5691 0 
L 5113 0 
L 5113 2094 
Q 5113 2597 4934 2840 
Q 4756 3084 4391 3084 
Q 3944 3084 3684 2787 
Q 3425 2491 3425 1978 
L 3425 0 
L 2847 0 
L 2847 2094 
Q 2847 2600 2669 2842 
Q 2491 3084 2119 3084 
Q 1678 3084 1418 2786 
Q 1159 2488 1159 1978 
L 1159 0 
L 581 0 
L 581 3500 
L 1159 3500 
L 1159 2956 
Q 1356 3278 1631 3431 
Q 1906 3584 2284 3584 
Q 2666 3584 2933 3390 
Q 3200 3197 3328 2828 
z
" transform="scale(0.015625)"/>
       <path id="DejaVuSans-6f" d="M 1959 3097 
Q 1497 3097 1228 2736 
Q 959 2375 959 1747 
Q 959 1119 1226 758 
Q 1494 397 1959 397 
Q 2419 397 2687 759 
Q 2956 1122 2956 1747 
Q 2956 2369 2687 2733 
Q 2419 3097 1959 3097 
z
M 1959 3584 
Q 2709 3584 3137 3096 
Q 3566 2609 3566 1747 
Q 3566 888 3137 398 
Q 2709 -91 1959 -91 
Q 1206 -91 779 398 
Q 353 888 353 1747 
Q 353 2609 779 3096 
Q 1206 3584 1959 3584 
z
" transform="scale(0.015625)"/>
       <path id="DejaVuSans-66" d="M 2375 4863 
L 2375 4384 
L 1825 4384 
Q 1516 4384 1395 4259 
Q 1275 4134 1275 3809 
L 1275 3500 
L 2222 3500 
L 2222 3053 
L 1275 3053 
L 1275 0 
L 697 0 
L 697 3053 
L 147 3053 
L 147 3500 
L 697 3500 
L 697 3744 
Q 697 4328 969 4595 
Q 1241 4863 1831 4863 
L 2375 4863 
z
" transform="scale(0.015625)"/>
       <path id="DejaVuSans-73" d="M 2834 3397 
L 2834 2853 
Q 2591 2978 2328 3040 
Q 2066 3103 1784 3103 
Q 1356 3103 1142 2972 
Q 928 2841 928 2578 
Q 928 2378 1081 2264 
Q 1234 2150 1697 2047 
L 1894 2003 
Q 2506 1872 2764 1633 
Q 3022 1394 3022 966 
Q 3022 478 2636 193 
Q 2250 -91 1575 -91 
Q 1294 -91 989 -36 
Q 684 19 347 128 
L 347 722 
Q 666 556 975 473 
Q 1284 391 1588 391 
Q 1994 391 2212 530 
Q 2431 669 2431 922 
Q 2431 1156 2273 1281 
Q 2116 1406 1581 1522 
L 1381 1569 
Q 847 1681 609 1914 
Q 372 2147 372 2553 
Q 372 3047 722 3315 
Q 1072 3584 1716 3584 
Q 2034 3584 2315 3537 
Q 2597 3491 2834 3397 
z
" transform="scale(0.015625)"/>
       <path id="DejaVuSans-20" transform="scale(0.015625)"/>
       <path id="DejaVuSans-5b" d="M 550 4863 
L 1875 4863 
L 1875 4416 
L 1125 4416 
L 1125 -397 
L 1875 -397 
L 1875 -844 
L 550 -844 
L 550 4863 
z
" transform="scale(0.015625)"/>
       <path id="DejaVuSans-b5" d="M 544 -1331 
L 544 3500 
L 1119 3500 
L 1119 1325 
Q 1119 872 1334 640 
Q 1550 409 1972 409 
Q 2434 409 2667 671 
Q 2900 934 2900 1459 
L 2900 3500 
L 3475 3500 
L 3475 806 
Q 3475 619 3529 530 
Q 3584 441 3700 441 
Q 3728 441 3778 458 
Q 3828 475 3916 513 
L 3916 50 
Q 3788 -22 3673 -56 
Q 3559 -91 3450 -91 
Q 3234 -91 3106 31 
Q 2978 153 2931 403 
Q 2775 156 2548 32 
Q 2322 -91 2016 -91 
Q 1697 -91 1473 31 
Q 1250 153 1119 397 
L 1119 -1331 
L 544 -1331 
z
" transform="scale(0.015625)"/>
       <path id="DejaVuSans-5d" d="M 1947 4863 
L 1947 -844 
L 622 -844 
L 622 -397 
L 1369 -397 
L 1369 4416 
L 622 4416 
L 622 4863 
L 1947 4863 
z
" transform="scale(0.015625)"/>
      </defs>
      <use xlink:href="#DejaVuSans-65"/>
      <use xlink:href="#DejaVuSans-76" transform="translate(61.523438 0)"/>
      <use xlink:href="#DejaVuSans-65" transform="translate(120.703125 0)"/>
      <use xlink:href="#DejaVuSans-6e" transform="translate(182.226562 0)"/>
      <use xlink:href="#DejaVuSans-74" transform="translate(245.605469 0)"/>
      <use xlink:href="#DejaVuSans-5f" transform="translate(284.814453 0)"/>
      <use xlink:href="#DejaVuSans-74" transform="translate(334.814453 0)"/>
      <use xlink:href="#DejaVuSans-69" transform="translate(374.023438 0)"/>
      <use xlink:href="#DejaVuSans-6d" transform="translate(401.806641 0)"/>
      <use xlink:href="#DejaVuSans-65" transform="translate(499.21875 0)"/>
      <use xlink:href="#DejaVuSans-5f" transform="translate(560.742188 0)"/>
      <use xlink:href="#DejaVuSans-6f" transform="translate(610.742188 0)"/>
      <use xlink:href="#DejaVuSans-66" transform="translate(671.923828 0)"/>
      <use xlink:href="#DejaVuSans-66" transform="translate(707.128906 0)"/>
      <use xlink:href="#DejaVuSans-73" transform="translate(742.333984 0)"/>
      <use xlink:href="#DejaVuSans-65" transform="translate(794.433594 0)"/>
      <use xlink:href="#DejaVuSans-74" transform="translate(855.957031 0)"/>
      <use xlink:href="#DejaVuSans-20" transform="translate(895.166016 0)"/>
      <use xlink:href="#DejaVuSans-5b" transform="translate(926.953125 0)"/>
      <use xlink:href="#DejaVuSans-b5" transform="translate(965.966797 0)"/>
      <use xlink:href="#DejaVuSans-73" transform="translate(1029.589844 0)"/>
      <use xlink:href="#DejaVuSans-5d" transform="translate(1081.689453 0)"/>
     </g>
    </g>
   </g>
   <g id="matplotlib.axis_2">
    <g id="ytick_1">
     <g id="line2d_9">
      <defs>
       <path id="m6fce5cf090" d="M 0 0 
L -3.5 0 
" style="stroke: #000000; stroke-width: 0.8"/>
      </defs>
      <g>
       <use xlink:href="#m6fce5cf090" x="46.965625" y="222.098695" style="stroke: #000000; stroke-width: 0.8"/>
      </g>
     </g>
     <g id="text_10">
      <!-- 0 -->
      <g transform="translate(33.603125 225.897914) scale(0.1 -0.1)">
       <use xlink:href="#DejaVuSans-30"/>
      </g>
     </g>
    </g>
    <g id="ytick_2">
     <g id="line2d_10">
      <g>
       <use xlink:href="#m6fce5cf090" x="46.965625" y="186.915449" style="stroke: #000000; stroke-width: 0.8"/>
      </g>
     </g>
     <g id="text_11">
      <!-- 100 -->
      <g transform="translate(20.878125 190.714668) scale(0.1 -0.1)">
       <use xlink:href="#DejaVuSans-31"/>
       <use xlink:href="#DejaVuSans-30" transform="translate(63.623047 0)"/>
       <use xlink:href="#DejaVuSans-30" transform="translate(127.246094 0)"/>
      </g>
     </g>
    </g>
    <g id="ytick_3">
     <g id="line2d_11">
      <g>
       <use xlink:href="#m6fce5cf090" x="46.965625" y="151.732203" style="stroke: #000000; stroke-width: 0.8"/>
      </g>
     </g>
     <g id="text_12">
      <!-- 200 -->
      <g transform="translate(20.878125 155.531422) scale(0.1 -0.1)">
       <use xlink:href="#DejaVuSans-32"/>
       <use xlink:href="#DejaVuSans-30" transform="translate(63.623047 0)"/>
       <use xlink:href="#DejaVuSans-30" transform="translate(127.246094 0)"/>
      </g>
     </g>
    </g>
    <g id="ytick_4">
     <g id="line2d_12">
      <g>
       <use xlink:href="#m6fce5cf090" x="46.965625" y="116.548957" style="stroke: #000000; stroke-width: 0.8"/>
      </g>
     </g>
     <g id="text_13">
      <!-- 300 -->
      <g transform="translate(20.878125 120.348176) scale(0.1 -0.1)">
       <use xlink:href="#DejaVuSans-33"/>
       <use xlink:href="#DejaVuSans-30" transform="translate(63.623047 0)"/>
       <use xlink:href="#DejaVuSans-30" transform="translate(127.246094 0)"/>
      </g>
     </g>
    </g>
    <g id="ytick_5">
     <g id="line2d_13">
      <g>
       <use xlink:href="#m6fce5cf090" x="46.965625" y="81.365711" style="stroke: #000000; stroke-width: 0.8"/>
      </g>
     </g>
     <g id="text_14">
      <!-- 400 -->
      <g transform="translate(20.878125 85.16493) scale(0.1 -0.1)">
       <use xlink:href="#DejaVuSans-34"/>
       <use xlink:href="#DejaVuSans-30" transform="translate(63.623047 0)"/>
       <use xlink:href="#DejaVuSans-30" transform="translate(127.246094 0)"/>
      </g>
     </g>
    </g>
    <g id="ytick_6">
     <g id="line2d_14">
      <g>
       <use xlink:href="#m6fce5cf090" x="46.965625" y="46.182465" style="stroke: #000000; stroke-width: 0.8"/>
      </g>
     </g>
     <g id="text_15">
      <!-- 500 -->
      <g transform="translate(20.878125 49.981684) scale(0.1 -0.1)">
       <use xlink:href="#DejaVuSans-35"/>
       <use xlink:href="#DejaVuSans-30" transform="translate(63.623047 0)"/>
       <use xlink:href="#DejaVuSans-30" transform="translate(127.246094 0)"/>
      </g>
     </g>
    </g>
    <g id="ytick_7">
     <g id="line2d_15">
      <g>
       <use xlink:href="#m6fce5cf090" x="46.965625" y="10.999219" style="stroke: #000000; stroke-width: 0.8"/>
      </g>
     </g>
     <g id="text_16">
      <!-- 600 -->
      <g transform="translate(20.878125 14.798437) scale(0.1 -0.1)">
       <use xlink:href="#DejaVuSans-36"/>
       <use xlink:href="#DejaVuSans-30" transform="translate(63.623047 0)"/>
       <use xlink:href="#DejaVuSans-30" transform="translate(127.246094 0)"/>
      </g>
     </g>
    </g>
    <g id="text_17">
     <!-- [counts] -->
     <g transform="translate(14.798438 141.911195) rotate(-90) scale(0.1 -0.1)">
      <defs>
       <path id="DejaVuSans-63" d="M 3122 3366 
L 3122 2828 
Q 2878 2963 2633 3030 
Q 2388 3097 2138 3097 
Q 1578 3097 1268 2742 
Q 959 2388 959 1747 
Q 959 1106 1268 751 
Q 1578 397 2138 397 
Q 2388 397 2633 464 
Q 2878 531 3122 666 
L 3122 134 
Q 2881 22 2623 -34 
Q 2366 -91 2075 -91 
Q 1284 -91 818 406 
Q 353 903 353 1747 
Q 353 2603 823 3093 
Q 1294 3584 2113 3584 
Q 2378 3584 2631 3529 
Q 2884 3475 3122 3366 
z
" transform="scale(0.015625)"/>
       <path id="DejaVuSans-75" d="M 544 1381 
L 544 3500 
L 1119 3500 
L 1119 1403 
Q 1119 906 1312 657 
Q 1506 409 1894 409 
Q 2359 409 2629 706 
Q 2900 1003 2900 1516 
L 2900 3500 
L 3475 3500 
L 3475 0 
L 2900 0 
L 2900 538 
Q 2691 219 2414 64 
Q 2138 -91 1772 -91 
Q 1169 -91 856 284 
Q 544 659 544 1381 
z
M 1991 3584 
L 1991 3584 
z
" transform="scale(0.015625)"/>
      </defs>
      <use xlink:href="#DejaVuSans-5b"/>
      <use xlink:href="#DejaVuSans-63" transform="translate(39.013672 0)"/>
      <use xlink:href="#DejaVuSans-6f" transform="translate(93.994141 0)"/>
      <use xlink:href="#DejaVuSans-75" transform="translate(155.175781 0)"/>
      <use xlink:href="#DejaVuSans-6e" transform="translate(218.554688 0)"/>
      <use xlink:href="#DejaVuSans-74" transform="translate(281.933594 0)"/>
      <use xlink:href="#DejaVuSans-73" transform="translate(321.142578 0)"/>
      <use xlink:href="#DejaVuSans-5d" transform="translate(373.242188 0)"/>
     </g>
    </g>
   </g>
   <g id="line2d_16">
    <path d="M 62.183807 128.159428 
L 63.198352 128.159428 
L 63.198352 117.956287 
L 64.212898 117.956287 
L 64.212898 130.270423 
L 65.227443 130.270423 
L 65.227443 129.566758 
L 66.241989 129.566758 
L 66.241989 127.807596 
L 67.256534 127.807596 
L 67.256534 133.085083 
L 68.27108 133.085083 
L 68.27108 130.974088 
L 69.285625 130.974088 
L 69.285625 136.95524 
L 70.30017 136.95524 
L 70.30017 134.492412 
L 71.314716 134.492412 
L 71.314716 132.029585 
L 72.329261 132.029585 
L 72.329261 129.91859 
L 73.343807 129.91859 
L 73.343807 124.992936 
L 74.358352 124.992936 
L 74.358352 133.085083 
L 75.372898 133.085083 
L 75.372898 134.492412 
L 76.387443 134.492412 
L 76.387443 140.825397 
L 77.401989 140.825397 
L 77.401989 135.54791 
L 78.416534 135.54791 
L 78.416534 140.825397 
L 79.43108 140.825397 
L 79.43108 145.399219 
L 80.445625 145.399219 
L 80.445625 146.102884 
L 81.46017 146.102884 
L 81.46017 134.14058 
L 82.474716 134.14058 
L 82.474716 142.936392 
L 83.489261 142.936392 
L 83.489261 142.584559 
L 84.503807 142.584559 
L 84.503807 147.510214 
L 85.518352 147.510214 
L 85.518352 146.102884 
L 86.532898 146.102884 
L 86.532898 146.806549 
L 87.547443 146.806549 
L 87.547443 161.231679 
L 88.561989 161.231679 
L 88.561989 155.60236 
L 89.576534 155.60236 
L 89.576534 156.306025 
L 90.59108 156.306025 
L 90.59108 157.713355 
L 91.605625 157.713355 
L 91.605625 153.843198 
L 92.62017 153.843198 
L 92.62017 164.398172 
L 93.634716 164.398172 
L 93.634716 157.00969 
L 94.649261 157.00969 
L 94.649261 158.41702 
L 95.663807 158.41702 
L 95.663807 165.453669 
L 96.678352 165.453669 
L 96.678352 164.750004 
L 97.692898 164.750004 
L 97.692898 171.434821 
L 98.707443 171.434821 
L 98.707443 174.249481 
L 99.721989 174.249481 
L 99.721989 172.842151 
L 101.75108 172.842151 
L 101.75108 178.119638 
L 102.765625 178.119638 
L 102.765625 177.06414 
L 103.78017 177.06414 
L 103.78017 177.767805 
L 104.794716 177.767805 
L 104.794716 179.8788 
L 105.809261 179.8788 
L 105.809261 187.619114 
L 106.823807 187.619114 
L 106.823807 189.730109 
L 107.838352 189.730109 
L 107.838352 183.748957 
L 108.852898 183.748957 
L 108.852898 190.081941 
L 109.867443 190.081941 
L 109.867443 189.378276 
L 110.881989 189.378276 
L 110.881989 192.192936 
L 111.896534 192.192936 
L 111.896534 201.692412 
L 112.91108 201.692412 
L 112.91108 197.470423 
L 113.925625 197.470423 
L 113.925625 199.581418 
L 114.94017 199.581418 
L 114.94017 199.93325 
L 115.954716 199.93325 
L 115.954716 201.692412 
L 116.969261 201.692412 
L 116.969261 208.377229 
L 118.998352 208.377229 
L 118.998352 205.210737 
L 120.012898 205.210737 
L 120.012898 205.56257 
L 121.027443 205.56257 
L 121.027443 211.895554 
L 122.041989 211.895554 
L 122.041989 209.432727 
L 123.056534 209.432727 
L 123.056534 215.765711 
L 124.07108 215.765711 
L 124.07108 217.524873 
L 125.085625 217.524873 
L 125.085625 215.413878 
L 126.10017 215.413878 
L 126.10017 218.932203 
L 127.114716 218.932203 
L 127.114716 219.635868 
L 128.129261 219.635868 
L 128.129261 217.173041 
L 129.143807 217.173041 
L 129.143807 219.9877 
L 130.158352 219.9877 
L 130.158352 220.339533 
L 131.172898 220.339533 
L 131.172898 221.39503 
L 132.187443 221.39503 
L 132.187443 220.339533 
L 133.201989 220.339533 
L 133.201989 221.39503 
L 134.216534 221.39503 
L 134.216534 221.746863 
L 135.23108 221.746863 
L 135.23108 222.098695 
L 149.434716 222.098695 
L 149.434716 219.9877 
L 150.449261 219.9877 
L 150.449261 215.062046 
L 151.463807 215.062046 
L 151.463807 212.247386 
L 152.478352 212.247386 
L 152.478352 202.044245 
L 153.492898 202.044245 
L 153.492898 199.93325 
L 154.507443 199.93325 
L 154.507443 188.674611 
L 155.521989 188.674611 
L 155.521989 184.100789 
L 156.536534 184.100789 
L 156.536534 188.674611 
L 157.55108 188.674611 
L 157.55108 170.027491 
L 158.565625 170.027491 
L 158.565625 174.249481 
L 159.58017 174.249481 
L 159.58017 172.138486 
L 160.594716 172.138486 
L 160.594716 161.583512 
L 161.609261 161.583512 
L 161.609261 153.139533 
L 162.623807 153.139533 
L 162.623807 143.991889 
L 163.638352 143.991889 
L 163.638352 144.695554 
L 164.652898 144.695554 
L 164.652898 139.769899 
L 165.667443 139.769899 
L 165.667443 138.714402 
L 166.681989 138.714402 
L 166.681989 129.91859 
L 167.696534 129.91859 
L 167.696534 127.455763 
L 168.71108 127.455763 
L 168.71108 116.900789 
L 169.725625 116.900789 
L 169.725625 105.290318 
L 170.74017 105.290318 
L 170.74017 105.993983 
L 171.754716 105.993983 
L 171.754716 97.198172 
L 172.769261 97.198172 
L 172.769261 94.031679 
L 173.783807 94.031679 
L 173.783807 91.568852 
L 174.798352 91.568852 
L 174.798352 84.532203 
L 175.812898 84.532203 
L 175.812898 85.939533 
L 176.827443 85.939533 
L 176.827443 71.16257 
L 177.841989 71.16257 
L 177.841989 84.180371 
L 178.856534 84.180371 
L 178.856534 66.94058 
L 179.87108 66.94058 
L 179.87108 77.143721 
L 180.885625 77.143721 
L 180.885625 63.422255 
L 181.90017 63.422255 
L 181.90017 74.680894 
L 182.914716 74.680894 
L 182.914716 54.978276 
L 183.929261 54.978276 
L 183.929261 56.737439 
L 184.943807 56.737439 
L 184.943807 39.497648 
L 185.958352 39.497648 
L 185.958352 47.941627 
L 186.972898 47.941627 
L 186.972898 30.701837 
L 187.987443 30.701837 
L 187.987443 45.4788 
L 189.001989 45.4788 
L 189.001989 36.331156 
L 190.016534 36.331156 
L 190.016534 33.164664 
L 191.03108 33.164664 
L 191.03108 38.793983 
L 192.045625 38.793983 
L 192.045625 35.979323 
L 193.06017 35.979323 
L 193.06017 40.904978 
L 194.074716 40.904978 
L 194.074716 38.442151 
L 195.089261 38.442151 
L 195.089261 43.719638 
L 196.103807 43.719638 
L 196.103807 38.090318 
L 197.118352 38.090318 
L 197.118352 36.682988 
L 198.132898 36.682988 
L 198.132898 30.701837 
L 199.147443 30.701837 
L 199.147443 37.034821 
L 200.161989 37.034821 
L 200.161989 25.42435 
L 201.176534 25.42435 
L 201.176534 38.793983 
L 202.19108 38.793983 
L 202.19108 57.089271 
L 203.205625 57.089271 
L 203.205625 46.88613 
L 206.249261 46.88613 
L 206.249261 49.348957 
L 207.263807 49.348957 
L 207.263807 48.29346 
L 208.278352 48.29346 
L 208.278352 53.922779 
L 209.292898 53.922779 
L 209.292898 70.458905 
L 210.307443 70.458905 
L 210.307443 56.385606 
L 211.321989 56.385606 
L 211.321989 45.4788 
L 212.336534 45.4788 
L 212.336534 58.848433 
L 214.365625 58.848433 
L 214.365625 60.959428 
L 215.38017 60.959428 
L 215.38017 58.848433 
L 216.394716 58.848433 
L 216.394716 61.663093 
L 217.409261 61.663093 
L 217.409261 58.144768 
L 218.423807 58.144768 
L 218.423807 62.71859 
L 219.438352 62.71859 
L 219.438352 65.181418 
L 220.452898 65.181418 
L 220.452898 60.255763 
L 221.467443 60.255763 
L 221.467443 66.236915 
L 222.481989 66.236915 
L 222.481989 69.403407 
L 223.496534 69.403407 
L 223.496534 75.736392 
L 224.51108 75.736392 
L 224.51108 72.921732 
L 225.525625 72.921732 
L 225.525625 81.365711 
L 226.54017 81.365711 
L 226.54017 67.292412 
L 227.554716 67.292412 
L 227.554716 80.310214 
L 228.569261 80.310214 
L 228.569261 71.514402 
L 229.583807 71.514402 
L 229.583807 74.329062 
L 230.598352 74.329062 
L 230.598352 69.403407 
L 231.612898 69.403407 
L 231.612898 85.235868 
L 232.627443 85.235868 
L 232.627443 72.569899 
L 233.641989 72.569899 
L 233.641989 74.329062 
L 234.656534 74.329062 
L 234.656534 64.477753 
L 235.67108 64.477753 
L 235.67108 72.569899 
L 236.685625 72.569899 
L 236.685625 74.329062 
L 237.70017 74.329062 
L 237.70017 71.16257 
L 238.714716 71.16257 
L 238.714716 77.143721 
L 239.729261 77.143721 
L 239.729261 87.346863 
L 240.743807 87.346863 
L 240.743807 64.477753 
L 241.758352 64.477753 
L 241.758352 80.662046 
L 242.772898 80.662046 
L 242.772898 53.922779 
L 243.787443 53.922779 
L 243.787443 78.199219 
L 244.801989 78.199219 
L 244.801989 83.124873 
L 245.816534 83.124873 
L 245.816534 88.050528 
L 246.83108 88.050528 
L 246.83108 84.884036 
L 247.845625 84.884036 
L 247.845625 71.514402 
L 248.86017 71.514402 
L 248.86017 86.643198 
L 249.874716 86.643198 
L 249.874716 100.364664 
L 250.889261 100.364664 
L 250.889261 97.198172 
L 251.903807 97.198172 
L 251.903807 91.920685 
L 252.918352 91.920685 
L 252.918352 94.383512 
L 253.932898 94.383512 
L 253.932898 101.068329 
L 254.947443 101.068329 
L 254.947443 104.586653 
L 255.961989 104.586653 
L 255.961989 93.328015 
L 256.976534 93.328015 
L 256.976534 104.938486 
L 257.99108 104.938486 
L 257.99108 119.715449 
L 259.005625 119.715449 
L 259.005625 115.845292 
L 260.02017 115.845292 
L 260.02017 117.604454 
L 261.034716 117.604454 
L 261.034716 127.807596 
L 262.049261 127.807596 
L 262.049261 136.603407 
L 263.063807 136.603407 
L 263.063807 124.641104 
L 264.078352 124.641104 
L 264.078352 141.529062 
L 265.092898 141.529062 
L 265.092898 138.714402 
L 266.107443 138.714402 
L 266.107443 155.250528 
L 267.121989 155.250528 
L 267.121989 157.361522 
L 268.136534 157.361522 
L 268.136534 158.065187 
L 269.15108 158.065187 
L 269.15108 159.82435 
L 270.165625 159.82435 
L 270.165625 176.712308 
L 271.18017 176.712308 
L 271.18017 166.157334 
L 272.194716 166.157334 
L 272.194716 183.045292 
L 273.209261 183.045292 
L 273.209261 184.804454 
L 274.223807 184.804454 
L 274.223807 187.267282 
L 275.238352 187.267282 
L 275.238352 192.192936 
L 276.252898 192.192936 
L 276.252898 194.303931 
L 277.267443 194.303931 
L 277.267443 201.34058 
L 278.281989 201.34058 
L 278.281989 202.396077 
L 279.296534 202.396077 
L 279.296534 206.618067 
L 280.31108 206.618067 
L 280.31108 204.858905 
L 281.325625 204.858905 
L 281.325625 213.302884 
L 282.34017 213.302884 
L 282.34017 217.876706 
L 283.354716 217.876706 
L 283.354716 216.469376 
L 284.369261 216.469376 
L 284.369261 218.932203 
L 285.383807 218.932203 
L 285.383807 220.691365 
L 286.398352 220.691365 
L 286.398352 221.39503 
L 287.412898 221.39503 
L 287.412898 222.098695 
L 298.572898 222.098695 
L 298.572898 215.765711 
L 299.587443 215.765711 
L 299.587443 213.302884 
L 300.601989 213.302884 
L 300.601989 209.432727 
L 301.616534 209.432727 
L 301.616534 205.914402 
L 302.63108 205.914402 
L 302.63108 204.15524 
L 303.645625 204.15524 
L 303.645625 192.544768 
L 304.66017 192.544768 
L 304.66017 191.489271 
L 305.674716 191.489271 
L 305.674716 183.748957 
L 306.689261 183.748957 
L 306.689261 187.267282 
L 307.703807 187.267282 
L 307.703807 182.341627 
L 308.718352 182.341627 
L 308.718352 179.526967 
L 309.732898 179.526967 
L 309.732898 170.379323 
L 310.747443 170.379323 
L 310.747443 167.916496 
L 311.761989 167.916496 
L 311.761989 162.287177 
L 312.776534 162.287177 
L 312.776534 160.879847 
L 313.79108 160.879847 
L 313.79108 156.657857 
L 314.805625 156.657857 
L 314.805625 154.546863 
L 315.82017 154.546863 
L 315.82017 153.491365 
L 316.834716 153.491365 
L 316.834716 149.973041 
L 317.849261 149.973041 
L 317.849261 142.936392 
L 318.863807 142.936392 
L 318.863807 130.974088 
L 319.878352 130.974088 
L 319.878352 136.603407 
L 320.892898 136.603407 
L 320.892898 137.307072 
L 321.907443 137.307072 
L 321.907443 128.159428 
L 322.921989 128.159428 
L 322.921989 136.95524 
L 323.936534 136.95524 
L 323.936534 131.32592 
L 324.95108 131.32592 
L 324.95108 120.067282 
L 325.965625 120.067282 
L 325.965625 123.937439 
L 326.98017 123.937439 
L 326.98017 117.956287 
L 327.994716 117.956287 
L 327.994716 126.048433 
L 329.009261 126.048433 
L 329.009261 107.753145 
L 330.023807 107.753145 
L 330.023807 125.696601 
L 331.038352 125.696601 
L 331.038352 108.104978 
L 332.052898 108.104978 
L 332.052898 107.401313 
L 333.067443 107.401313 
L 333.067443 103.531156 
L 334.081989 103.531156 
L 334.081989 115.49346 
L 335.096534 115.49346 
L 335.096534 99.660999 
L 336.11108 99.660999 
L 336.11108 99.309166 
L 337.125625 99.309166 
L 337.125625 97.198172 
L 338.14017 97.198172 
L 338.14017 100.012831 
L 340.169261 100.012831 
L 340.169261 104.586653 
L 341.183807 104.586653 
L 341.183807 85.939533 
L 342.198352 85.939533 
L 342.198352 96.494507 
L 343.212898 96.494507 
L 343.212898 99.660999 
L 344.227443 99.660999 
L 344.227443 103.531156 
L 345.241989 103.531156 
L 345.241989 109.86414 
L 346.256534 109.86414 
L 346.256534 90.513355 
L 347.27108 90.513355 
L 347.27108 99.309166 
L 348.285625 99.309166 
L 348.285625 98.605501 
L 349.30017 98.605501 
L 349.30017 108.45681 
L 350.314716 108.45681 
L 350.314716 102.123826 
L 352.343807 102.123826 
L 352.343807 98.605501 
L 353.358352 98.605501 
L 353.358352 115.49346 
L 354.372898 115.49346 
L 354.372898 99.660999 
L 355.387443 99.660999 
L 355.387443 108.45681 
L 356.401989 108.45681 
L 356.401989 115.845292 
L 357.416534 115.845292 
L 357.416534 105.290318 
L 358.43108 105.290318 
L 358.43108 110.919638 
L 359.445625 110.919638 
L 359.445625 108.808643 
L 360.46017 108.808643 
L 360.46017 120.419114 
L 361.474716 120.419114 
L 361.474716 114.437962 
L 362.489261 114.437962 
L 362.489261 119.011784 
L 363.503807 119.011784 
L 363.503807 113.734297 
L 364.518352 113.734297 
L 364.518352 115.141627 
L 365.532898 115.141627 
L 365.532898 114.08613 
L 366.547443 114.08613 
L 366.547443 114.08613 
" clip-path="url(#p98c532f1f0)" style="fill: none; stroke: #1f77b4; stroke-width: 1.5; stroke-linecap: square"/>
   </g>
   <g id="line2d_17">
    <path d="M 62.183807 133.788748 
L 63.198352 133.788748 
L 63.198352 136.603407 
L 64.212898 136.603407 
L 64.212898 123.937439 
L 65.227443 123.937439 
L 65.227443 133.085083 
L 66.241989 133.085083 
L 66.241989 123.585606 
L 67.256534 123.585606 
L 67.256534 128.863093 
L 68.27108 128.863093 
L 68.27108 129.214926 
L 69.285625 129.214926 
L 69.285625 140.121732 
L 70.30017 140.121732 
L 70.30017 133.788748 
L 71.314716 133.788748 
L 71.314716 142.584559 
L 72.329261 142.584559 
L 72.329261 133.788748 
L 73.343807 133.788748 
L 73.343807 143.640056 
L 74.358352 143.640056 
L 74.358352 136.603407 
L 75.372898 136.603407 
L 75.372898 137.658905 
L 76.387443 137.658905 
L 76.387443 142.232727 
L 77.401989 142.232727 
L 77.401989 148.917543 
L 78.416534 148.917543 
L 78.416534 141.880894 
L 79.43108 141.880894 
L 79.43108 145.399219 
L 80.445625 145.399219 
L 80.445625 158.768852 
L 81.46017 158.768852 
L 81.46017 154.898695 
L 82.474716 154.898695 
L 82.474716 154.19503 
L 83.489261 154.19503 
L 83.489261 155.954193 
L 84.503807 155.954193 
L 84.503807 153.139533 
L 85.518352 153.139533 
L 85.518352 161.231679 
L 86.532898 161.231679 
L 86.532898 156.657857 
L 87.547443 156.657857 
L 87.547443 157.361522 
L 88.561989 157.361522 
L 88.561989 165.101837 
L 89.576534 165.101837 
L 89.576534 159.472517 
L 90.59108 159.472517 
L 90.59108 174.953145 
L 91.605625 174.953145 
L 91.605625 173.193983 
L 92.62017 173.193983 
L 92.62017 171.434821 
L 93.634716 171.434821 
L 93.634716 174.249481 
L 94.649261 174.249481 
L 94.649261 176.712308 
L 95.663807 176.712308 
L 95.663807 175.65681 
L 96.678352 175.65681 
L 96.678352 176.712308 
L 97.692898 176.712308 
L 97.692898 179.526967 
L 98.707443 179.526967 
L 98.707443 189.730109 
L 99.721989 189.730109 
L 99.721989 185.859952 
L 100.736534 185.859952 
L 100.736534 183.748957 
L 101.75108 183.748957 
L 101.75108 192.544768 
L 102.765625 192.544768 
L 102.765625 191.841104 
L 103.78017 191.841104 
L 103.78017 196.063093 
L 104.794716 196.063093 
L 104.794716 195.007596 
L 105.809261 195.007596 
L 105.809261 201.692412 
L 106.823807 201.692412 
L 106.823807 198.52592 
L 107.838352 198.52592 
L 107.838352 200.636915 
L 108.852898 200.636915 
L 108.852898 202.74791 
L 109.867443 202.74791 
L 109.867443 208.025397 
L 110.881989 208.025397 
L 110.881989 207.673564 
L 111.896534 207.673564 
L 111.896534 206.266234 
L 112.91108 206.266234 
L 112.91108 207.673564 
L 113.925625 207.673564 
L 113.925625 209.080894 
L 114.94017 209.080894 
L 114.94017 214.358381 
L 115.954716 214.358381 
L 115.954716 217.173041 
L 116.969261 217.173041 
L 116.969261 216.821208 
L 117.983807 216.821208 
L 117.983807 217.524873 
L 118.998352 217.524873 
L 118.998352 219.284036 
L 120.012898 219.284036 
L 120.012898 217.524873 
L 121.027443 217.524873 
L 121.027443 219.635868 
L 122.041989 219.635868 
L 122.041989 221.043198 
L 124.07108 221.043198 
L 124.07108 219.9877 
L 125.085625 219.9877 
L 125.085625 221.39503 
L 126.10017 221.39503 
L 126.10017 221.746863 
L 127.114716 221.746863 
L 127.114716 222.098695 
L 147.405625 222.098695 
L 147.405625 220.691365 
L 148.42017 220.691365 
L 148.42017 218.228538 
L 149.434716 218.228538 
L 149.434716 211.895554 
L 150.449261 211.895554 
L 150.449261 205.914402 
L 151.463807 205.914402 
L 151.463807 199.229585 
L 152.478352 199.229585 
L 152.478352 191.489271 
L 153.492898 191.489271 
L 153.492898 183.397125 
L 154.507443 183.397125 
L 154.507443 186.915449 
L 155.521989 186.915449 
L 155.521989 173.545816 
L 156.536534 173.545816 
L 156.536534 170.379323 
L 157.55108 170.379323 
L 157.55108 172.138486 
L 158.565625 172.138486 
L 158.565625 161.231679 
L 159.58017 161.231679 
L 159.58017 155.250528 
L 160.594716 155.250528 
L 160.594716 140.825397 
L 161.609261 140.825397 
L 161.609261 145.399219 
L 162.623807 145.399219 
L 162.623807 134.492412 
L 163.638352 134.492412 
L 163.638352 136.95524 
L 164.652898 136.95524 
L 164.652898 127.455763 
L 165.667443 127.455763 
L 165.667443 123.937439 
L 166.681989 123.937439 
L 166.681989 113.734297 
L 167.696534 113.734297 
L 167.696534 102.827491 
L 168.71108 102.827491 
L 168.71108 104.586653 
L 169.725625 104.586653 
L 169.725625 90.161522 
L 170.74017 90.161522 
L 170.74017 90.513355 
L 171.754716 90.513355 
L 171.754716 83.124873 
L 172.769261 83.124873 
L 172.769261 85.5877 
L 173.783807 85.5877 
L 173.783807 78.551051 
L 174.798352 78.551051 
L 174.798352 71.514402 
L 175.812898 71.514402 
L 175.812898 73.625397 
L 176.827443 73.625397 
L 176.827443 74.329062 
L 177.841989 74.329062 
L 177.841989 60.607596 
L 178.856534 60.607596 
L 178.856534 63.774088 
L 179.87108 63.774088 
L 179.87108 64.477753 
L 180.885625 64.477753 
L 180.885625 53.922779 
L 181.90017 53.922779 
L 181.90017 44.423303 
L 182.914716 44.423303 
L 182.914716 34.220161 
L 183.929261 34.220161 
L 183.929261 42.312308 
L 184.943807 42.312308 
L 184.943807 29.294507 
L 185.958352 29.294507 
L 185.958352 33.516496 
L 186.972898 33.516496 
L 186.972898 33.164664 
L 187.987443 33.164664 
L 187.987443 39.497648 
L 189.001989 39.497648 
L 189.001989 30.350004 
L 190.016534 30.350004 
L 190.016534 30.701837 
L 191.03108 30.701837 
L 191.03108 37.386653 
L 192.045625 37.386653 
L 192.045625 35.979323 
L 193.06017 35.979323 
L 193.06017 30.701837 
L 194.074716 30.701837 
L 194.074716 30.350004 
L 195.089261 30.350004 
L 195.089261 35.979323 
L 196.103807 35.979323 
L 196.103807 27.887177 
L 197.118352 27.887177 
L 197.118352 20.498695 
L 198.132898 20.498695 
L 198.132898 32.812831 
L 199.147443 32.812831 
L 199.147443 58.848433 
L 200.161989 58.848433 
L 200.161989 43.367805 
L 201.176534 43.367805 
L 201.176534 32.812831 
L 202.19108 32.812831 
L 202.19108 42.66414 
L 203.205625 42.66414 
L 203.205625 47.941627 
L 204.22017 47.941627 
L 204.22017 44.775135 
L 205.234716 44.775135 
L 205.234716 49.348957 
L 206.249261 49.348957 
L 206.249261 64.477753 
L 207.263807 64.477753 
L 207.263807 54.626444 
L 208.278352 54.626444 
L 208.278352 39.497648 
L 209.292898 39.497648 
L 209.292898 57.792936 
L 210.307443 57.792936 
L 210.307443 51.811784 
L 211.321989 51.811784 
L 211.321989 60.255763 
L 212.336534 60.255763 
L 212.336534 52.867282 
L 213.35108 52.867282 
L 213.35108 59.552098 
L 214.365625 59.552098 
L 214.365625 51.459952 
L 215.38017 51.459952 
L 215.38017 67.644245 
L 216.394716 67.644245 
L 216.394716 61.311261 
L 217.409261 61.311261 
L 217.409261 53.922779 
L 218.423807 53.922779 
L 218.423807 58.848433 
L 219.438352 58.848433 
L 219.438352 69.75524 
L 220.452898 69.75524 
L 220.452898 75.384559 
L 221.467443 75.384559 
L 221.467443 70.107072 
L 222.481989 70.107072 
L 222.481989 71.866234 
L 223.496534 71.866234 
L 223.496534 72.218067 
L 224.51108 72.218067 
L 224.51108 73.273564 
L 225.525625 73.273564 
L 225.525625 68.34791 
L 226.54017 68.34791 
L 226.54017 69.403407 
L 227.554716 69.403407 
L 227.554716 70.810737 
L 228.569261 70.810737 
L 228.569261 80.310214 
L 229.583807 80.310214 
L 229.583807 62.014926 
L 230.598352 62.014926 
L 230.598352 66.94058 
L 231.612898 66.94058 
L 231.612898 68.699742 
L 232.627443 68.699742 
L 232.627443 68.34791 
L 233.641989 68.34791 
L 233.641989 62.71859 
L 234.656534 62.71859 
L 234.656534 77.143721 
L 235.67108 77.143721 
L 235.67108 80.662046 
L 236.685625 80.662046 
L 236.685625 67.996077 
L 237.70017 67.996077 
L 237.70017 66.94058 
L 238.714716 66.94058 
L 238.714716 58.848433 
L 239.729261 58.848433 
L 239.729261 71.514402 
L 240.743807 71.514402 
L 240.743807 83.476706 
L 241.758352 83.476706 
L 241.758352 80.662046 
L 242.772898 80.662046 
L 242.772898 83.476706 
L 243.787443 83.476706 
L 243.787443 72.218067 
L 244.801989 72.218067 
L 244.801989 78.902884 
L 245.816534 78.902884 
L 245.816534 95.439009 
L 246.83108 95.439009 
L 246.83108 93.679847 
L 247.845625 93.679847 
L 247.845625 90.513355 
L 248.86017 90.513355 
L 248.86017 91.21702 
L 249.874716 91.21702 
L 249.874716 99.309166 
L 251.903807 99.309166 
L 251.903807 93.328015 
L 252.918352 93.328015 
L 252.918352 103.882988 
L 253.932898 103.882988 
L 253.932898 117.956287 
L 254.947443 117.956287 
L 254.947443 109.160475 
L 255.961989 109.160475 
L 255.961989 119.363617 
L 256.976534 119.363617 
L 256.976534 127.807596 
L 257.99108 127.807596 
L 257.99108 131.32592 
L 259.005625 131.32592 
L 259.005625 126.048433 
L 260.02017 126.048433 
L 260.02017 143.991889 
L 261.034716 143.991889 
L 261.034716 140.825397 
L 262.049261 140.825397 
L 262.049261 149.973041 
L 263.063807 149.973041 
L 263.063807 159.472517 
L 264.078352 159.472517 
L 264.078352 154.898695 
L 265.092898 154.898695 
L 265.092898 165.453669 
L 266.107443 165.453669 
L 266.107443 170.027491 
L 267.121989 170.027491 
L 267.121989 174.601313 
L 268.136534 174.601313 
L 268.136534 180.582465 
L 269.15108 180.582465 
L 269.15108 188.322779 
L 270.165625 188.322779 
L 270.165625 189.026444 
L 271.18017 189.026444 
L 271.18017 190.785606 
L 272.194716 190.785606 
L 272.194716 199.581418 
L 273.209261 199.581418 
L 273.209261 201.34058 
L 274.223807 201.34058 
L 274.223807 202.74791 
L 275.238352 202.74791 
L 275.238352 206.266234 
L 276.252898 206.266234 
L 276.252898 208.729062 
L 277.267443 208.729062 
L 277.267443 216.469376 
L 278.281989 216.469376 
L 278.281989 218.228538 
L 279.296534 218.228538 
L 279.296534 216.821208 
L 280.31108 216.821208 
L 280.31108 220.339533 
L 281.325625 220.339533 
L 281.325625 221.746863 
L 283.354716 221.746863 
L 283.354716 222.098695 
L 293.50017 222.098695 
L 293.50017 217.524873 
L 294.514716 217.524873 
L 294.514716 214.358381 
L 295.529261 214.358381 
L 295.529261 209.432727 
L 296.543807 209.432727 
L 296.543807 205.914402 
L 297.558352 205.914402 
L 297.558352 203.099742 
L 298.572898 203.099742 
L 298.572898 192.896601 
L 299.587443 192.896601 
L 299.587443 191.137439 
L 300.601989 191.137439 
L 300.601989 183.397125 
L 301.616534 183.397125 
L 301.616534 186.915449 
L 302.63108 186.915449 
L 302.63108 180.934297 
L 303.645625 180.934297 
L 303.645625 178.823303 
L 304.66017 178.823303 
L 304.66017 168.620161 
L 305.674716 168.620161 
L 305.674716 166.157334 
L 306.689261 166.157334 
L 306.689261 159.82435 
L 307.703807 159.82435 
L 307.703807 160.879847 
L 308.718352 160.879847 
L 308.718352 157.713355 
L 309.732898 157.713355 
L 309.732898 144.695554 
L 310.747443 144.695554 
L 310.747443 152.435868 
L 311.761989 152.435868 
L 311.761989 148.213878 
L 312.776534 148.213878 
L 312.776534 137.658905 
L 313.79108 137.658905 
L 313.79108 128.863093 
L 314.805625 128.863093 
L 314.805625 134.844245 
L 315.82017 134.844245 
L 315.82017 132.381418 
L 316.834716 132.381418 
L 316.834716 129.214926 
L 317.849261 129.214926 
L 317.849261 132.381418 
L 318.863807 132.381418 
L 318.863807 128.511261 
L 319.878352 128.511261 
L 319.878352 120.419114 
L 320.892898 120.419114 
L 320.892898 114.437962 
L 321.907443 114.437962 
L 321.907443 121.826444 
L 322.921989 121.826444 
L 322.921989 118.308119 
L 323.936534 118.308119 
L 323.936534 109.86414 
L 324.95108 109.86414 
L 324.95108 110.215973 
L 325.965625 110.215973 
L 325.965625 103.531156 
L 326.98017 103.531156 
L 326.98017 108.45681 
L 327.994716 108.45681 
L 327.994716 105.993983 
L 329.009261 105.993983 
L 329.009261 104.234821 
L 330.023807 104.234821 
L 330.023807 100.364664 
L 331.038352 100.364664 
L 331.038352 90.513355 
L 332.052898 90.513355 
L 332.052898 100.012831 
L 333.067443 100.012831 
L 333.067443 92.976182 
L 334.081989 92.976182 
L 334.081989 98.253669 
L 335.096534 98.253669 
L 335.096534 89.80969 
L 336.11108 89.80969 
L 336.11108 85.5877 
L 337.125625 85.5877 
L 337.125625 100.716496 
L 338.14017 100.716496 
L 338.14017 95.439009 
L 339.154716 95.439009 
L 339.154716 107.401313 
L 340.169261 107.401313 
L 340.169261 93.328015 
L 341.183807 93.328015 
L 341.183807 95.790842 
L 342.198352 95.790842 
L 342.198352 93.679847 
L 343.212898 93.679847 
L 343.212898 109.86414 
L 344.227443 109.86414 
L 344.227443 95.087177 
L 345.241989 95.087177 
L 345.241989 101.068329 
L 346.256534 101.068329 
L 346.256534 95.439009 
L 347.27108 95.439009 
L 347.27108 110.919638 
L 348.285625 110.919638 
L 348.285625 99.309166 
L 349.30017 99.309166 
L 349.30017 107.049481 
L 350.314716 107.049481 
L 350.314716 115.845292 
L 351.329261 115.845292 
L 351.329261 95.790842 
L 352.343807 95.790842 
L 352.343807 110.215973 
L 353.358352 110.215973 
L 353.358352 109.160475 
L 354.372898 109.160475 
L 354.372898 112.326967 
L 355.387443 112.326967 
L 355.387443 116.900789 
L 356.401989 116.900789 
L 356.401989 114.789795 
L 357.416534 114.789795 
L 357.416534 110.215973 
L 358.43108 110.215973 
L 358.43108 110.919638 
L 359.445625 110.919638 
L 359.445625 118.308119 
L 360.46017 118.308119 
L 360.46017 125.344768 
L 361.474716 125.344768 
L 361.474716 115.49346 
L 362.489261 115.49346 
L 362.489261 133.436915 
L 363.503807 133.436915 
L 363.503807 123.937439 
L 364.518352 123.937439 
L 364.518352 129.91859 
L 365.532898 129.91859 
L 365.532898 127.103931 
L 366.547443 127.103931 
L 366.547443 127.103931 
" clip-path="url(#p98c532f1f0)" style="fill: none; stroke: #ff7f0e; stroke-width: 1.5; stroke-linecap: square"/>
   </g>
   <g id="patch_3">
    <path d="M 46.965625 232.178695 
L 46.965625 10.418695 
" style="fill: none; stroke: #000000; stroke-width: 0.8; stroke-linejoin: miter; stroke-linecap: square"/>
   </g>
   <g id="patch_4">
    <path d="M 381.765625 232.178695 
L 381.765625 10.418695 
" style="fill: none; stroke: #000000; stroke-width: 0.8; stroke-linejoin: miter; stroke-linecap: square"/>
   </g>
   <g id="patch_5">
    <path d="M 46.965625 232.178695 
L 381.765625 232.178695 
" style="fill: none; stroke: #000000; stroke-width: 0.8; stroke-linejoin: miter; stroke-linecap: square"/>
   </g>
   <g id="patch_6">
    <path d="M 46.965625 10.418695 
L 381.765625 10.418695 
" style="fill: none; stroke: #000000; stroke-width: 0.8; stroke-linejoin: miter; stroke-linecap: square"/>
   </g>
   <g id="legend_1">
    <g id="patch_7">
     <path d="M 246.957813 48.331195 
L 374.765625 48.331195 
Q 376.765625 48.331195 376.765625 46.331195 
L 376.765625 17.418695 
Q 376.765625 15.418695 374.765625 15.418695 
L 246.957813 15.418695 
Q 244.957813 15.418695 244.957813 17.418695 
L 244.957813 46.331195 
Q 244.957813 48.331195 246.957813 48.331195 
z
" style="fill: #ffffff; opacity: 0.8; stroke: #cccccc; stroke-linejoin: miter"/>
    </g>
    <g id="line2d_18">
     <path d="M 248.957813 23.517133 
L 248.957813 23.517133 
L 258.957813 23.517133 
L 258.957813 23.517133 
L 268.957813 23.517133 
" style="fill: none; stroke: #1f77b4; stroke-width: 1.5; stroke-linecap: square"/>
    </g>
    <g id="text_18">
     <!-- detector_number:0 -->
     <g transform="translate(276.957813 27.017133) scale(0.1 -0.1)">
      <defs>
       <path id="DejaVuSans-64" d="M 2906 2969 
L 2906 4863 
L 3481 4863 
L 3481 0 
L 2906 0 
L 2906 525 
Q 2725 213 2448 61 
Q 2172 -91 1784 -91 
Q 1150 -91 751 415 
Q 353 922 353 1747 
Q 353 2572 751 3078 
Q 1150 3584 1784 3584 
Q 2172 3584 2448 3432 
Q 2725 3281 2906 2969 
z
M 947 1747 
Q 947 1113 1208 752 
Q 1469 391 1925 391 
Q 2381 391 2643 752 
Q 2906 1113 2906 1747 
Q 2906 2381 2643 2742 
Q 2381 3103 1925 3103 
Q 1469 3103 1208 2742 
Q 947 2381 947 1747 
z
" transform="scale(0.015625)"/>
       <path id="DejaVuSans-72" d="M 2631 2963 
Q 2534 3019 2420 3045 
Q 2306 3072 2169 3072 
Q 1681 3072 1420 2755 
Q 1159 2438 1159 1844 
L 1159 0 
L 581 0 
L 581 3500 
L 1159 3500 
L 1159 2956 
Q 1341 3275 1631 3429 
Q 1922 3584 2338 3584 
Q 2397 3584 2469 3576 
Q 2541 3569 2628 3553 
L 2631 2963 
z
" transform="scale(0.015625)"/>
       <path id="DejaVuSans-62" d="M 3116 1747 
Q 3116 2381 2855 2742 
Q 2594 3103 2138 3103 
Q 1681 3103 1420 2742 
Q 1159 2381 1159 1747 
Q 1159 1113 1420 752 
Q 1681 391 2138 391 
Q 2594 391 2855 752 
Q 3116 1113 3116 1747 
z
M 1159 2969 
Q 1341 3281 1617 3432 
Q 1894 3584 2278 3584 
Q 2916 3584 3314 3078 
Q 3713 2572 3713 1747 
Q 3713 922 3314 415 
Q 2916 -91 2278 -91 
Q 1894 -91 1617 61 
Q 1341 213 1159 525 
L 1159 0 
L 581 0 
L 581 4863 
L 1159 4863 
L 1159 2969 
z
" transform="scale(0.015625)"/>
       <path id="DejaVuSans-3a" d="M 750 794 
L 1409 794 
L 1409 0 
L 750 0 
L 750 794 
z
M 750 3309 
L 1409 3309 
L 1409 2516 
L 750 2516 
L 750 3309 
z
" transform="scale(0.015625)"/>
      </defs>
      <use xlink:href="#DejaVuSans-64"/>
      <use xlink:href="#DejaVuSans-65" transform="translate(63.476562 0)"/>
      <use xlink:href="#DejaVuSans-74" transform="translate(125 0)"/>
      <use xlink:href="#DejaVuSans-65" transform="translate(164.208984 0)"/>
      <use xlink:href="#DejaVuSans-63" transform="translate(225.732422 0)"/>
      <use xlink:href="#DejaVuSans-74" transform="translate(280.712891 0)"/>
      <use xlink:href="#DejaVuSans-6f" transform="translate(319.921875 0)"/>
      <use xlink:href="#DejaVuSans-72" transform="translate(381.103516 0)"/>
      <use xlink:href="#DejaVuSans-5f" transform="translate(422.216797 0)"/>
      <use xlink:href="#DejaVuSans-6e" transform="translate(472.216797 0)"/>
      <use xlink:href="#DejaVuSans-75" transform="translate(535.595703 0)"/>
      <use xlink:href="#DejaVuSans-6d" transform="translate(598.974609 0)"/>
      <use xlink:href="#DejaVuSans-62" transform="translate(696.386719 0)"/>
      <use xlink:href="#DejaVuSans-65" transform="translate(759.863281 0)"/>
      <use xlink:href="#DejaVuSans-72" transform="translate(821.386719 0)"/>
      <use xlink:href="#DejaVuSans-3a" transform="translate(860.75 0)"/>
      <use xlink:href="#DejaVuSans-30" transform="translate(894.441406 0)"/>
     </g>
    </g>
    <g id="line2d_19">
     <path d="M 248.957813 38.473383 
L 248.957813 38.473383 
L 258.957813 38.473383 
L 258.957813 38.473383 
L 268.957813 38.473383 
" style="fill: none; stroke: #ff7f0e; stroke-width: 1.5; stroke-linecap: square"/>
    </g>
    <g id="text_19">
     <!-- detector_number:1 -->
     <g transform="translate(276.957813 41.973383) scale(0.1 -0.1)">
      <use xlink:href="#DejaVuSans-64"/>
      <use xlink:href="#DejaVuSans-65" transform="translate(63.476562 0)"/>
      <use xlink:href="#DejaVuSans-74" transform="translate(125 0)"/>
      <use xlink:href="#DejaVuSans-65" transform="translate(164.208984 0)"/>
      <use xlink:href="#DejaVuSans-63" transform="translate(225.732422 0)"/>
      <use xlink:href="#DejaVuSans-74" transform="translate(280.712891 0)"/>
      <use xlink:href="#DejaVuSans-6f" transform="translate(319.921875 0)"/>
      <use xlink:href="#DejaVuSans-72" transform="translate(381.103516 0)"/>
      <use xlink:href="#DejaVuSans-5f" transform="translate(422.216797 0)"/>
      <use xlink:href="#DejaVuSans-6e" transform="translate(472.216797 0)"/>
      <use xlink:href="#DejaVuSans-75" transform="translate(535.595703 0)"/>
      <use xlink:href="#DejaVuSans-6d" transform="translate(598.974609 0)"/>
      <use xlink:href="#DejaVuSans-62" transform="translate(696.386719 0)"/>
      <use xlink:href="#DejaVuSans-65" transform="translate(759.863281 0)"/>
      <use xlink:href="#DejaVuSans-72" transform="translate(821.386719 0)"/>
      <use xlink:href="#DejaVuSans-3a" transform="translate(860.75 0)"/>
      <use xlink:href="#DejaVuSans-31" transform="translate(894.441406 0)"/>
     </g>
    </g>
   </g>
  </g>
 </g>
 <defs>
  <clipPath id="p98c532f1f0">
   <rect x="46.965625" y="10.418695" width="334.8" height="221.76"/>
  </clipPath>
 </defs>
</svg>
