<?xml version="1.0" encoding="utf-8" standalone="no"?>
<!DOCTYPE svg PUBLIC "-//W3C//DTD SVG 1.1//EN"
  "http://www.w3.org/Graphics/SVG/1.1/DTD/svg11.dtd">
<svg xmlns:xlink="http://www.w3.org/1999/xlink" width="872.39952pt" height="296.39952pt" viewBox="0 0 872.39952 296.39952" xmlns="http://www.w3.org/2000/svg" version="1.1">
 <metadata>
  <rdf:RDF xmlns:dc="http://purl.org/dc/elements/1.1/" xmlns:cc="http://creativecommons.org/ns#" xmlns:rdf="http://www.w3.org/1999/02/22-rdf-syntax-ns#">
   <cc:Work>
    <dc:type rdf:resource="http://purl.org/dc/dcmitype/StillImage"/>
    <dc:date>2025-05-07T16:07:21.792628</dc:date>
    <dc:format>image/svg+xml</dc:format>
    <dc:creator>
     <cc:Agent>
      <dc:title>Matplotlib v3.10.1, https://matplotlib.org/</dc:title>
     </cc:Agent>
    </dc:creator>
   </cc:Work>
  </rdf:RDF>
 </metadata>
 <defs>
  <style type="text/css">*{stroke-linejoin: round; stroke-linecap: butt}</style>
 </defs>
 <g id="figure_1">
  <g id="patch_1">
   <path d="M 0 296.39952 
L 872.39952 296.39952 
L 872.39952 0 
L 0 0 
z
" style="fill: #ffffff"/>
  </g>
  <g id="axes_1">
   <g id="patch_2">
    <path d="M 53.328125 257.158895 
L 431.87976 257.158895 
L 431.87976 7.2 
L 53.328125 7.2 
z
" style="fill: #ffffff"/>
   </g>
   <g id="matplotlib.axis_1">
    <g id="xtick_1">
     <g id="line2d_1">
      <defs>
       <path id="m5b2d722d89" d="M 0 0 
L 0 3.5 
" style="stroke: #000000; stroke-width: 0.8"/>
      </defs>
      <g>
       <use xlink:href="#m5b2d722d89" x="69.643263" y="257.158895" style="stroke: #000000; stroke-width: 0.8"/>
      </g>
     </g>
     <g id="text_1">
      <!-- 0 -->
      <g transform="translate(66.462013 271.757332) scale(0.1 -0.1)">
       <defs>
        <path id="DejaVuSans-30" d="M 2034 4250 
Q 1547 4250 1301 3770 
Q 1056 3291 1056 2328 
Q 1056 1369 1301 889 
Q 1547 409 2034 409 
Q 2525 409 2770 889 
Q 3016 1369 3016 2328 
Q 3016 3291 2770 3770 
Q 2525 4250 2034 4250 
z
M 2034 4750 
Q 2819 4750 3233 4129 
Q 3647 3509 3647 2328 
Q 3647 1150 3233 529 
Q 2819 -91 2034 -91 
Q 1250 -91 836 529 
Q 422 1150 422 2328 
Q 422 3509 836 4129 
Q 1250 4750 2034 4750 
z
" transform="scale(0.015625)"/>
       </defs>
       <use xlink:href="#DejaVuSans-30"/>
      </g>
     </g>
    </g>
    <g id="xtick_2">
     <g id="line2d_2">
      <g>
       <use xlink:href="#m5b2d722d89" x="138.87342" y="257.158895" style="stroke: #000000; stroke-width: 0.8"/>
      </g>
     </g>
     <g id="text_2">
      <!-- 1000 -->
      <g transform="translate(126.14842 271.757332) scale(0.1 -0.1)">
       <defs>
        <path id="DejaVuSans-31" d="M 794 531 
L 1825 531 
L 1825 4091 
L 703 3866 
L 703 4441 
L 1819 4666 
L 2450 4666 
L 2450 531 
L 3481 531 
L 3481 0 
L 794 0 
L 794 531 
z
" transform="scale(0.015625)"/>
       </defs>
       <use xlink:href="#DejaVuSans-31"/>
       <use xlink:href="#DejaVuSans-30" transform="translate(63.623047 0)"/>
       <use xlink:href="#DejaVuSans-30" transform="translate(127.246094 0)"/>
       <use xlink:href="#DejaVuSans-30" transform="translate(190.869141 0)"/>
      </g>
     </g>
    </g>
    <g id="xtick_3">
     <g id="line2d_3">
      <g>
       <use xlink:href="#m5b2d722d89" x="208.103578" y="257.158895" style="stroke: #000000; stroke-width: 0.8"/>
      </g>
     </g>
     <g id="text_3">
      <!-- 2000 -->
      <g transform="translate(195.378578 271.757332) scale(0.1 -0.1)">
       <defs>
        <path id="DejaVuSans-32" d="M 1228 531 
L 3431 531 
L 3431 0 
L 469 0 
L 469 531 
Q 828 903 1448 1529 
Q 2069 2156 2228 2338 
Q 2531 2678 2651 2914 
Q 2772 3150 2772 3378 
Q 2772 3750 2511 3984 
Q 2250 4219 1831 4219 
Q 1534 4219 1204 4116 
Q 875 4013 500 3803 
L 500 4441 
Q 881 4594 1212 4672 
Q 1544 4750 1819 4750 
Q 2544 4750 2975 4387 
Q 3406 4025 3406 3419 
Q 3406 3131 3298 2873 
Q 3191 2616 2906 2266 
Q 2828 2175 2409 1742 
Q 1991 1309 1228 531 
z
" transform="scale(0.015625)"/>
       </defs>
       <use xlink:href="#DejaVuSans-32"/>
       <use xlink:href="#DejaVuSans-30" transform="translate(63.623047 0)"/>
       <use xlink:href="#DejaVuSans-30" transform="translate(127.246094 0)"/>
       <use xlink:href="#DejaVuSans-30" transform="translate(190.869141 0)"/>
      </g>
     </g>
    </g>
    <g id="xtick_4">
     <g id="line2d_4">
      <g>
       <use xlink:href="#m5b2d722d89" x="277.333736" y="257.158895" style="stroke: #000000; stroke-width: 0.8"/>
      </g>
     </g>
     <g id="text_4">
      <!-- 3000 -->
      <g transform="translate(264.608736 271.757332) scale(0.1 -0.1)">
       <defs>
        <path id="DejaVuSans-33" d="M 2597 2516 
Q 3050 2419 3304 2112 
Q 3559 1806 3559 1356 
Q 3559 666 3084 287 
Q 2609 -91 1734 -91 
Q 1441 -91 1130 -33 
Q 819 25 488 141 
L 488 750 
Q 750 597 1062 519 
Q 1375 441 1716 441 
Q 2309 441 2620 675 
Q 2931 909 2931 1356 
Q 2931 1769 2642 2001 
Q 2353 2234 1838 2234 
L 1294 2234 
L 1294 2753 
L 1863 2753 
Q 2328 2753 2575 2939 
Q 2822 3125 2822 3475 
Q 2822 3834 2567 4026 
Q 2313 4219 1838 4219 
Q 1578 4219 1281 4162 
Q 984 4106 628 3988 
L 628 4550 
Q 988 4650 1302 4700 
Q 1616 4750 1894 4750 
Q 2613 4750 3031 4423 
Q 3450 4097 3450 3541 
Q 3450 3153 3228 2886 
Q 3006 2619 2597 2516 
z
" transform="scale(0.015625)"/>
       </defs>
       <use xlink:href="#DejaVuSans-33"/>
       <use xlink:href="#DejaVuSans-30" transform="translate(63.623047 0)"/>
       <use xlink:href="#DejaVuSans-30" transform="translate(127.246094 0)"/>
       <use xlink:href="#DejaVuSans-30" transform="translate(190.869141 0)"/>
      </g>
     </g>
    </g>
    <g id="xtick_5">
     <g id="line2d_5">
      <g>
       <use xlink:href="#m5b2d722d89" x="346.563893" y="257.158895" style="stroke: #000000; stroke-width: 0.8"/>
      </g>
     </g>
     <g id="text_5">
      <!-- 4000 -->
      <g transform="translate(333.838893 271.757332) scale(0.1 -0.1)">
       <defs>
        <path id="DejaVuSans-34" d="M 2419 4116 
L 825 1625 
L 2419 1625 
L 2419 4116 
z
M 2253 4666 
L 3047 4666 
L 3047 1625 
L 3713 1625 
L 3713 1100 
L 3047 1100 
L 3047 0 
L 2419 0 
L 2419 1100 
L 313 1100 
L 313 1709 
L 2253 4666 
z
" transform="scale(0.015625)"/>
       </defs>
       <use xlink:href="#DejaVuSans-34"/>
       <use xlink:href="#DejaVuSans-30" transform="translate(63.623047 0)"/>
       <use xlink:href="#DejaVuSans-30" transform="translate(127.246094 0)"/>
       <use xlink:href="#DejaVuSans-30" transform="translate(190.869141 0)"/>
      </g>
     </g>
    </g>
    <g id="xtick_6">
     <g id="line2d_6">
      <g>
       <use xlink:href="#m5b2d722d89" x="415.794051" y="257.158895" style="stroke: #000000; stroke-width: 0.8"/>
      </g>
     </g>
     <g id="text_6">
      <!-- 5000 -->
      <g transform="translate(403.069051 271.757332) scale(0.1 -0.1)">
       <defs>
        <path id="DejaVuSans-35" d="M 691 4666 
L 3169 4666 
L 3169 4134 
L 1269 4134 
L 1269 2991 
Q 1406 3038 1543 3061 
Q 1681 3084 1819 3084 
Q 2600 3084 3056 2656 
Q 3513 2228 3513 1497 
Q 3513 744 3044 326 
Q 2575 -91 1722 -91 
Q 1428 -91 1123 -41 
Q 819 9 494 109 
L 494 744 
Q 775 591 1075 516 
Q 1375 441 1709 441 
Q 2250 441 2565 725 
Q 2881 1009 2881 1497 
Q 2881 1984 2565 2268 
Q 2250 2553 1709 2553 
Q 1456 2553 1204 2497 
Q 953 2441 691 2322 
L 691 4666 
z
" transform="scale(0.015625)"/>
       </defs>
       <use xlink:href="#DejaVuSans-35"/>
       <use xlink:href="#DejaVuSans-30" transform="translate(63.623047 0)"/>
       <use xlink:href="#DejaVuSans-30" transform="translate(127.246094 0)"/>
       <use xlink:href="#DejaVuSans-30" transform="translate(190.869141 0)"/>
      </g>
     </g>
    </g>
    <g id="text_7">
     <!-- birth_time [µs] -->
     <g transform="translate(205.78363 285.435457) scale(0.1 -0.1)">
      <defs>
       <path id="DejaVuSans-62" d="M 3116 1747 
Q 3116 2381 2855 2742 
Q 2594 3103 2138 3103 
Q 1681 3103 1420 2742 
Q 1159 2381 1159 1747 
Q 1159 1113 1420 752 
Q 1681 391 2138 391 
Q 2594 391 2855 752 
Q 3116 1113 3116 1747 
z
M 1159 2969 
Q 1341 3281 1617 3432 
Q 1894 3584 2278 3584 
Q 2916 3584 3314 3078 
Q 3713 2572 3713 1747 
Q 3713 922 3314 415 
Q 2916 -91 2278 -91 
Q 1894 -91 1617 61 
Q 1341 213 1159 525 
L 1159 0 
L 581 0 
L 581 4863 
L 1159 4863 
L 1159 2969 
z
" transform="scale(0.015625)"/>
       <path id="DejaVuSans-69" d="M 603 3500 
L 1178 3500 
L 1178 0 
L 603 0 
L 603 3500 
z
M 603 4863 
L 1178 4863 
L 1178 4134 
L 603 4134 
L 603 4863 
z
" transform="scale(0.015625)"/>
       <path id="DejaVuSans-72" d="M 2631 2963 
Q 2534 3019 2420 3045 
Q 2306 3072 2169 3072 
Q 1681 3072 1420 2755 
Q 1159 2438 1159 1844 
L 1159 0 
L 581 0 
L 581 3500 
L 1159 3500 
L 1159 2956 
Q 1341 3275 1631 3429 
Q 1922 3584 2338 3584 
Q 2397 3584 2469 3576 
Q 2541 3569 2628 3553 
L 2631 2963 
z
" transform="scale(0.015625)"/>
       <path id="DejaVuSans-74" d="M 1172 4494 
L 1172 3500 
L 2356 3500 
L 2356 3053 
L 1172 3053 
L 1172 1153 
Q 1172 725 1289 603 
Q 1406 481 1766 481 
L 2356 481 
L 2356 0 
L 1766 0 
Q 1100 0 847 248 
Q 594 497 594 1153 
L 594 3053 
L 172 3053 
L 172 3500 
L 594 3500 
L 594 4494 
L 1172 4494 
z
" transform="scale(0.015625)"/>
       <path id="DejaVuSans-68" d="M 3513 2113 
L 3513 0 
L 2938 0 
L 2938 2094 
Q 2938 2591 2744 2837 
Q 2550 3084 2163 3084 
Q 1697 3084 1428 2787 
Q 1159 2491 1159 1978 
L 1159 0 
L 581 0 
L 581 4863 
L 1159 4863 
L 1159 2956 
Q 1366 3272 1645 3428 
Q 1925 3584 2291 3584 
Q 2894 3584 3203 3211 
Q 3513 2838 3513 2113 
z
" transform="scale(0.015625)"/>
       <path id="DejaVuSans-5f" d="M 3263 -1063 
L 3263 -1509 
L -63 -1509 
L -63 -1063 
L 3263 -1063 
z
" transform="scale(0.015625)"/>
       <path id="DejaVuSans-6d" d="M 3328 2828 
Q 3544 3216 3844 3400 
Q 4144 3584 4550 3584 
Q 5097 3584 5394 3201 
Q 5691 2819 5691 2113 
L 5691 0 
L 5113 0 
L 5113 2094 
Q 5113 2597 4934 2840 
Q 4756 3084 4391 3084 
Q 3944 3084 3684 2787 
Q 3425 2491 3425 1978 
L 3425 0 
L 2847 0 
L 2847 2094 
Q 2847 2600 2669 2842 
Q 2491 3084 2119 3084 
Q 1678 3084 1418 2786 
Q 1159 2488 1159 1978 
L 1159 0 
L 581 0 
L 581 3500 
L 1159 3500 
L 1159 2956 
Q 1356 3278 1631 3431 
Q 1906 3584 2284 3584 
Q 2666 3584 2933 3390 
Q 3200 3197 3328 2828 
z
" transform="scale(0.015625)"/>
       <path id="DejaVuSans-65" d="M 3597 1894 
L 3597 1613 
L 953 1613 
Q 991 1019 1311 708 
Q 1631 397 2203 397 
Q 2534 397 2845 478 
Q 3156 559 3463 722 
L 3463 178 
Q 3153 47 2828 -22 
Q 2503 -91 2169 -91 
Q 1331 -91 842 396 
Q 353 884 353 1716 
Q 353 2575 817 3079 
Q 1281 3584 2069 3584 
Q 2775 3584 3186 3129 
Q 3597 2675 3597 1894 
z
M 3022 2063 
Q 3016 2534 2758 2815 
Q 2500 3097 2075 3097 
Q 1594 3097 1305 2825 
Q 1016 2553 972 2059 
L 3022 2063 
z
" transform="scale(0.015625)"/>
       <path id="DejaVuSans-20" transform="scale(0.015625)"/>
       <path id="DejaVuSans-5b" d="M 550 4863 
L 1875 4863 
L 1875 4416 
L 1125 4416 
L 1125 -397 
L 1875 -397 
L 1875 -844 
L 550 -844 
L 550 4863 
z
" transform="scale(0.015625)"/>
       <path id="DejaVuSans-b5" d="M 544 -1331 
L 544 3500 
L 1119 3500 
L 1119 1325 
Q 1119 872 1334 640 
Q 1550 409 1972 409 
Q 2434 409 2667 671 
Q 2900 934 2900 1459 
L 2900 3500 
L 3475 3500 
L 3475 806 
Q 3475 619 3529 530 
Q 3584 441 3700 441 
Q 3728 441 3778 458 
Q 3828 475 3916 513 
L 3916 50 
Q 3788 -22 3673 -56 
Q 3559 -91 3450 -91 
Q 3234 -91 3106 31 
Q 2978 153 2931 403 
Q 2775 156 2548 32 
Q 2322 -91 2016 -91 
Q 1697 -91 1473 31 
Q 1250 153 1119 397 
L 1119 -1331 
L 544 -1331 
z
" transform="scale(0.015625)"/>
       <path id="DejaVuSans-73" d="M 2834 3397 
L 2834 2853 
Q 2591 2978 2328 3040 
Q 2066 3103 1784 3103 
Q 1356 3103 1142 2972 
Q 928 2841 928 2578 
Q 928 2378 1081 2264 
Q 1234 2150 1697 2047 
L 1894 2003 
Q 2506 1872 2764 1633 
Q 3022 1394 3022 966 
Q 3022 478 2636 193 
Q 2250 -91 1575 -91 
Q 1294 -91 989 -36 
Q 684 19 347 128 
L 347 722 
Q 666 556 975 473 
Q 1284 391 1588 391 
Q 1994 391 2212 530 
Q 2431 669 2431 922 
Q 2431 1156 2273 1281 
Q 2116 1406 1581 1522 
L 1381 1569 
Q 847 1681 609 1914 
Q 372 2147 372 2553 
Q 372 3047 722 3315 
Q 1072 3584 1716 3584 
Q 2034 3584 2315 3537 
Q 2597 3491 2834 3397 
z
" transform="scale(0.015625)"/>
       <path id="DejaVuSans-5d" d="M 1947 4863 
L 1947 -844 
L 622 -844 
L 622 -397 
L 1369 -397 
L 1369 4416 
L 622 4416 
L 622 4863 
L 1947 4863 
z
" transform="scale(0.015625)"/>
      </defs>
      <use xlink:href="#DejaVuSans-62"/>
      <use xlink:href="#DejaVuSans-69" transform="translate(63.476562 0)"/>
      <use xlink:href="#DejaVuSans-72" transform="translate(91.259766 0)"/>
      <use xlink:href="#DejaVuSans-74" transform="translate(132.373047 0)"/>
      <use xlink:href="#DejaVuSans-68" transform="translate(171.582031 0)"/>
      <use xlink:href="#DejaVuSans-5f" transform="translate(234.960938 0)"/>
      <use xlink:href="#DejaVuSans-74" transform="translate(284.960938 0)"/>
      <use xlink:href="#DejaVuSans-69" transform="translate(324.169922 0)"/>
      <use xlink:href="#DejaVuSans-6d" transform="translate(351.953125 0)"/>
      <use xlink:href="#DejaVuSans-65" transform="translate(449.365234 0)"/>
      <use xlink:href="#DejaVuSans-20" transform="translate(510.888672 0)"/>
      <use xlink:href="#DejaVuSans-5b" transform="translate(542.675781 0)"/>
      <use xlink:href="#DejaVuSans-b5" transform="translate(581.689453 0)"/>
      <use xlink:href="#DejaVuSans-73" transform="translate(645.3125 0)"/>
      <use xlink:href="#DejaVuSans-5d" transform="translate(697.412109 0)"/>
     </g>
    </g>
   </g>
   <g id="matplotlib.axis_2">
    <g id="ytick_1">
     <g id="line2d_7">
      <defs>
       <path id="mca02164d65" d="M 0 0 
L -3.5 0 
" style="stroke: #000000; stroke-width: 0.8"/>
      </defs>
      <g>
       <use xlink:href="#mca02164d65" x="53.328125" y="245.797127" style="stroke: #000000; stroke-width: 0.8"/>
      </g>
     </g>
     <g id="text_8">
      <!-- 0 -->
      <g transform="translate(39.965625 249.596346) scale(0.1 -0.1)">
       <use xlink:href="#DejaVuSans-30"/>
      </g>
     </g>
    </g>
    <g id="ytick_2">
     <g id="line2d_8">
      <g>
       <use xlink:href="#mca02164d65" x="53.328125" y="209.23472" style="stroke: #000000; stroke-width: 0.8"/>
      </g>
     </g>
     <g id="text_9">
      <!-- 200 -->
      <g transform="translate(27.240625 213.033939) scale(0.1 -0.1)">
       <use xlink:href="#DejaVuSans-32"/>
       <use xlink:href="#DejaVuSans-30" transform="translate(63.623047 0)"/>
       <use xlink:href="#DejaVuSans-30" transform="translate(127.246094 0)"/>
      </g>
     </g>
    </g>
    <g id="ytick_3">
     <g id="line2d_9">
      <g>
       <use xlink:href="#mca02164d65" x="53.328125" y="172.672313" style="stroke: #000000; stroke-width: 0.8"/>
      </g>
     </g>
     <g id="text_10">
      <!-- 400 -->
      <g transform="translate(27.240625 176.471532) scale(0.1 -0.1)">
       <use xlink:href="#DejaVuSans-34"/>
       <use xlink:href="#DejaVuSans-30" transform="translate(63.623047 0)"/>
       <use xlink:href="#DejaVuSans-30" transform="translate(127.246094 0)"/>
      </g>
     </g>
    </g>
    <g id="ytick_4">
     <g id="line2d_10">
      <g>
       <use xlink:href="#mca02164d65" x="53.328125" y="136.109906" style="stroke: #000000; stroke-width: 0.8"/>
      </g>
     </g>
     <g id="text_11">
      <!-- 600 -->
      <g transform="translate(27.240625 139.909125) scale(0.1 -0.1)">
       <defs>
        <path id="DejaVuSans-36" d="M 2113 2584 
Q 1688 2584 1439 2293 
Q 1191 2003 1191 1497 
Q 1191 994 1439 701 
Q 1688 409 2113 409 
Q 2538 409 2786 701 
Q 3034 994 3034 1497 
Q 3034 2003 2786 2293 
Q 2538 2584 2113 2584 
z
M 3366 4563 
L 3366 3988 
Q 3128 4100 2886 4159 
Q 2644 4219 2406 4219 
Q 1781 4219 1451 3797 
Q 1122 3375 1075 2522 
Q 1259 2794 1537 2939 
Q 1816 3084 2150 3084 
Q 2853 3084 3261 2657 
Q 3669 2231 3669 1497 
Q 3669 778 3244 343 
Q 2819 -91 2113 -91 
Q 1303 -91 875 529 
Q 447 1150 447 2328 
Q 447 3434 972 4092 
Q 1497 4750 2381 4750 
Q 2619 4750 2861 4703 
Q 3103 4656 3366 4563 
z
" transform="scale(0.015625)"/>
       </defs>
       <use xlink:href="#DejaVuSans-36"/>
       <use xlink:href="#DejaVuSans-30" transform="translate(63.623047 0)"/>
       <use xlink:href="#DejaVuSans-30" transform="translate(127.246094 0)"/>
      </g>
     </g>
    </g>
    <g id="ytick_5">
     <g id="line2d_11">
      <g>
       <use xlink:href="#mca02164d65" x="53.328125" y="99.547499" style="stroke: #000000; stroke-width: 0.8"/>
      </g>
     </g>
     <g id="text_12">
      <!-- 800 -->
      <g transform="translate(27.240625 103.346718) scale(0.1 -0.1)">
       <defs>
        <path id="DejaVuSans-38" d="M 2034 2216 
Q 1584 2216 1326 1975 
Q 1069 1734 1069 1313 
Q 1069 891 1326 650 
Q 1584 409 2034 409 
Q 2484 409 2743 651 
Q 3003 894 3003 1313 
Q 3003 1734 2745 1975 
Q 2488 2216 2034 2216 
z
M 1403 2484 
Q 997 2584 770 2862 
Q 544 3141 544 3541 
Q 544 4100 942 4425 
Q 1341 4750 2034 4750 
Q 2731 4750 3128 4425 
Q 3525 4100 3525 3541 
Q 3525 3141 3298 2862 
Q 3072 2584 2669 2484 
Q 3125 2378 3379 2068 
Q 3634 1759 3634 1313 
Q 3634 634 3220 271 
Q 2806 -91 2034 -91 
Q 1263 -91 848 271 
Q 434 634 434 1313 
Q 434 1759 690 2068 
Q 947 2378 1403 2484 
z
M 1172 3481 
Q 1172 3119 1398 2916 
Q 1625 2713 2034 2713 
Q 2441 2713 2670 2916 
Q 2900 3119 2900 3481 
Q 2900 3844 2670 4047 
Q 2441 4250 2034 4250 
Q 1625 4250 1398 4047 
Q 1172 3844 1172 3481 
z
" transform="scale(0.015625)"/>
       </defs>
       <use xlink:href="#DejaVuSans-38"/>
       <use xlink:href="#DejaVuSans-30" transform="translate(63.623047 0)"/>
       <use xlink:href="#DejaVuSans-30" transform="translate(127.246094 0)"/>
      </g>
     </g>
    </g>
    <g id="ytick_6">
     <g id="line2d_12">
      <g>
       <use xlink:href="#mca02164d65" x="53.328125" y="62.985092" style="stroke: #000000; stroke-width: 0.8"/>
      </g>
     </g>
     <g id="text_13">
      <!-- 1000 -->
      <g transform="translate(20.878125 66.784311) scale(0.1 -0.1)">
       <use xlink:href="#DejaVuSans-31"/>
       <use xlink:href="#DejaVuSans-30" transform="translate(63.623047 0)"/>
       <use xlink:href="#DejaVuSans-30" transform="translate(127.246094 0)"/>
       <use xlink:href="#DejaVuSans-30" transform="translate(190.869141 0)"/>
      </g>
     </g>
    </g>
    <g id="ytick_7">
     <g id="line2d_13">
      <g>
       <use xlink:href="#mca02164d65" x="53.328125" y="26.422685" style="stroke: #000000; stroke-width: 0.8"/>
      </g>
     </g>
     <g id="text_14">
      <!-- 1200 -->
      <g transform="translate(20.878125 30.221904) scale(0.1 -0.1)">
       <use xlink:href="#DejaVuSans-31"/>
       <use xlink:href="#DejaVuSans-32" transform="translate(63.623047 0)"/>
       <use xlink:href="#DejaVuSans-30" transform="translate(127.246094 0)"/>
       <use xlink:href="#DejaVuSans-30" transform="translate(190.869141 0)"/>
      </g>
     </g>
    </g>
    <g id="text_15">
     <!-- [counts] -->
     <g transform="translate(14.798438 152.791947) rotate(-90) scale(0.1 -0.1)">
      <defs>
       <path id="DejaVuSans-63" d="M 3122 3366 
L 3122 2828 
Q 2878 2963 2633 3030 
Q 2388 3097 2138 3097 
Q 1578 3097 1268 2742 
Q 959 2388 959 1747 
Q 959 1106 1268 751 
Q 1578 397 2138 397 
Q 2388 397 2633 464 
Q 2878 531 3122 666 
L 3122 134 
Q 2881 22 2623 -34 
Q 2366 -91 2075 -91 
Q 1284 -91 818 406 
Q 353 903 353 1747 
Q 353 2603 823 3093 
Q 1294 3584 2113 3584 
Q 2378 3584 2631 3529 
Q 2884 3475 3122 3366 
z
" transform="scale(0.015625)"/>
       <path id="DejaVuSans-6f" d="M 1959 3097 
Q 1497 3097 1228 2736 
Q 959 2375 959 1747 
Q 959 1119 1226 758 
Q 1494 397 1959 397 
Q 2419 397 2687 759 
Q 2956 1122 2956 1747 
Q 2956 2369 2687 2733 
Q 2419 3097 1959 3097 
z
M 1959 3584 
Q 2709 3584 3137 3096 
Q 3566 2609 3566 1747 
Q 3566 888 3137 398 
Q 2709 -91 1959 -91 
Q 1206 -91 779 398 
Q 353 888 353 1747 
Q 353 2609 779 3096 
Q 1206 3584 1959 3584 
z
" transform="scale(0.015625)"/>
       <path id="DejaVuSans-75" d="M 544 1381 
L 544 3500 
L 1119 3500 
L 1119 1403 
Q 1119 906 1312 657 
Q 1506 409 1894 409 
Q 2359 409 2629 706 
Q 2900 1003 2900 1516 
L 2900 3500 
L 3475 3500 
L 3475 0 
L 2900 0 
L 2900 538 
Q 2691 219 2414 64 
Q 2138 -91 1772 -91 
Q 1169 -91 856 284 
Q 544 659 544 1381 
z
M 1991 3584 
L 1991 3584 
z
" transform="scale(0.015625)"/>
       <path id="DejaVuSans-6e" d="M 3513 2113 
L 3513 0 
L 2938 0 
L 2938 2094 
Q 2938 2591 2744 2837 
Q 2550 3084 2163 3084 
Q 1697 3084 1428 2787 
Q 1159 2491 1159 1978 
L 1159 0 
L 581 0 
L 581 3500 
L 1159 3500 
L 1159 2956 
Q 1366 3272 1645 3428 
Q 1925 3584 2291 3584 
Q 2894 3584 3203 3211 
Q 3513 2838 3513 2113 
z
" transform="scale(0.015625)"/>
      </defs>
      <use xlink:href="#DejaVuSans-5b"/>
      <use xlink:href="#DejaVuSans-63" transform="translate(39.013672 0)"/>
      <use xlink:href="#DejaVuSans-6f" transform="translate(93.994141 0)"/>
      <use xlink:href="#DejaVuSans-75" transform="translate(155.175781 0)"/>
      <use xlink:href="#DejaVuSans-6e" transform="translate(218.554688 0)"/>
      <use xlink:href="#DejaVuSans-74" transform="translate(281.933594 0)"/>
      <use xlink:href="#DejaVuSans-73" transform="translate(321.142578 0)"/>
      <use xlink:href="#DejaVuSans-5d" transform="translate(373.242188 0)"/>
     </g>
    </g>
   </g>
   <g id="line2d_14">
    <path d="M 70.535017 230.623728 
L 71.682144 230.623728 
L 71.682144 226.967487 
L 72.82927 226.967487 
L 72.82927 215.084705 
L 73.976396 215.084705 
L 73.976396 215.267517 
L 75.123522 215.267517 
L 75.123522 201.190991 
L 76.270648 201.190991 
L 76.270648 194.061321 
L 77.417774 194.061321 
L 77.417774 186.74884 
L 78.564901 186.74884 
L 78.564901 179.984795 
L 79.712027 179.984795 
L 79.712027 173.951997 
L 80.859153 173.951997 
L 80.859153 167.370764 
L 82.006279 167.370764 
L 82.006279 161.155155 
L 83.153405 161.155155 
L 83.153405 152.562989 
L 84.300531 152.562989 
L 84.300531 133.184914 
L 85.447658 133.184914 
L 85.447658 145.250508 
L 86.594784 145.250508 
L 86.594784 130.077109 
L 87.74191 130.077109 
L 87.74191 130.259921 
L 88.889036 130.259921 
L 88.889036 123.8615 
L 90.036162 123.8615 
L 90.036162 114.720898 
L 91.183288 114.720898 
L 91.183288 113.441214 
L 92.330415 113.441214 
L 92.330415 110.699033 
L 93.477541 110.699033 
L 93.477541 103.386552 
L 94.624667 103.386552 
L 94.624667 94.428762 
L 95.771793 94.428762 
L 95.771793 96.074071 
L 96.918919 96.074071 
L 96.918919 89.310025 
L 98.066045 89.310025 
L 98.066045 92.966266 
L 99.213172 92.966266 
L 99.213172 90.58971 
L 100.360298 90.58971 
L 100.360298 82.180356 
L 101.507424 82.180356 
L 101.507424 77.792867 
L 102.65455 77.792867 
L 102.65455 82.54598 
L 103.801676 82.54598 
L 103.801676 80.900672 
L 104.948802 80.900672 
L 104.948802 74.867875 
L 106.095929 74.867875 
L 106.095929 70.663198 
L 107.243055 70.663198 
L 107.243055 66.458521 
L 108.390181 66.458521 
L 108.390181 67.189769 
L 109.537307 67.189769 
L 109.537307 66.458521 
L 110.684433 66.458521 
L 110.684433 67.555393 
L 111.831559 67.555393 
L 111.831559 66.641333 
L 112.978686 66.641333 
L 112.978686 65.727273 
L 114.125812 65.727273 
L 114.125812 63.167904 
L 115.272938 63.167904 
L 115.272938 50.553874 
L 116.420064 50.553874 
L 116.420064 61.705408 
L 117.56719 61.705408 
L 117.56719 56.952295 
L 118.714316 56.952295 
L 118.714316 52.01637 
L 119.861443 52.01637 
L 119.861443 58.963228 
L 121.008569 58.963228 
L 121.008569 54.941363 
L 122.155695 54.941363 
L 122.155695 39.585152 
L 123.302821 39.585152 
L 123.302821 53.844491 
L 124.449947 53.844491 
L 124.449947 60.0601 
L 125.597073 60.0601 
L 125.597073 47.263257 
L 126.7442 47.263257 
L 126.7442 46.714821 
L 127.891326 46.714821 
L 127.891326 47.994506 
L 129.038452 47.994506 
L 129.038452 49.27419 
L 130.185578 49.27419 
L 130.185578 46.897633 
L 131.332704 46.897633 
L 131.332704 50.736686 
L 132.47983 50.736686 
L 132.47983 48.177318 
L 133.626957 48.177318 
L 133.626957 51.650746 
L 134.774083 51.650746 
L 134.774083 38.305468 
L 135.921209 38.305468 
L 135.921209 40.499212 
L 137.068335 40.499212 
L 137.068335 41.961708 
L 138.215461 41.961708 
L 138.215461 43.972641 
L 139.362587 43.972641 
L 139.362587 38.305468 
L 140.509714 38.305468 
L 140.509714 37.208595 
L 141.65684 37.208595 
L 141.65684 43.241393 
L 142.803966 43.241393 
L 142.803966 37.757032 
L 143.951092 37.757032 
L 143.951092 35.746099 
L 145.098218 35.746099 
L 145.098218 35.563287 
L 146.245344 35.563287 
L 146.245344 40.133588 
L 147.392471 40.133588 
L 147.392471 44.521077 
L 148.539597 44.521077 
L 148.539597 45.435137 
L 149.686723 45.435137 
L 149.686723 26.239873 
L 150.833849 26.239873 
L 150.833849 41.047648 
L 151.980975 41.047648 
L 151.980975 33.552355 
L 153.128101 33.552355 
L 153.128101 44.521077 
L 154.275228 44.521077 
L 154.275228 31.541422 
L 155.422354 31.541422 
L 155.422354 47.446069 
L 156.56948 47.446069 
L 156.56948 37.391408 
L 157.716606 37.391408 
L 157.716606 35.563287 
L 158.863732 35.563287 
L 158.863732 36.111723 
L 160.010858 36.111723 
L 160.010858 39.40234 
L 161.157985 39.40234 
L 161.157985 24.228941 
L 162.305111 24.228941 
L 162.305111 33.186731 
L 163.452237 33.186731 
L 163.452237 32.272671 
L 164.599363 32.272671 
L 164.599363 36.111723 
L 165.746489 36.111723 
L 165.746489 34.283603 
L 166.893615 34.283603 
L 166.893615 39.585152 
L 168.040742 39.585152 
L 168.040742 42.875769 
L 169.187868 42.875769 
L 169.187868 31.541422 
L 170.334994 31.541422 
L 170.334994 43.241393 
L 171.48212 43.241393 
L 171.48212 32.272671 
L 172.629246 32.272671 
L 172.629246 46.349197 
L 173.776372 46.349197 
L 173.776372 23.132069 
L 174.923499 23.132069 
L 174.923499 45.617949 
L 176.070625 45.617949 
L 176.070625 37.025783 
L 177.217751 37.025783 
L 177.217751 34.283603 
L 178.364877 34.283603 
L 178.364877 39.585152 
L 179.512003 39.585152 
L 179.512003 40.3164 
L 180.659129 40.3164 
L 180.659129 26.422685 
L 181.806256 26.422685 
L 181.806256 39.036716 
L 182.953382 39.036716 
L 182.953382 31.35861 
L 184.100508 31.35861 
L 184.100508 31.724234 
L 185.247634 31.724234 
L 185.247634 31.541422 
L 186.39476 31.541422 
L 186.39476 23.680505 
L 187.541886 23.680505 
L 187.541886 34.466415 
L 188.689013 34.466415 
L 188.689013 25.143001 
L 189.836139 25.143001 
L 189.836139 34.832039 
L 190.983265 34.832039 
L 190.983265 28.61643 
L 192.130391 28.61643 
L 192.130391 34.649227 
L 193.277517 34.649227 
L 193.277517 39.950776 
L 194.424643 39.950776 
L 194.424643 39.036716 
L 195.57177 39.036716 
L 195.57177 32.089859 
L 196.718896 32.089859 
L 196.718896 41.778896 
L 197.866022 41.778896 
L 197.866022 33.552355 
L 199.013148 33.552355 
L 199.013148 25.691437 
L 200.160274 25.691437 
L 200.160274 29.713302 
L 201.3074 29.713302 
L 201.3074 35.197663 
L 203.601653 35.197663 
L 203.601653 35.746099 
L 204.748779 35.746099 
L 204.748779 39.585152 
L 205.895905 39.585152 
L 205.895905 40.682024 
L 207.043031 40.682024 
L 207.043031 18.561768 
L 208.190157 18.561768 
L 208.190157 37.57422 
L 209.337284 37.57422 
L 209.337284 27.153934 
L 210.48441 27.153934 
L 210.48441 32.455483 
L 211.631536 32.455483 
L 211.631536 47.811694 
L 212.778662 47.811694 
L 212.778662 29.164866 
L 213.925788 29.164866 
L 213.925788 29.713302 
L 215.072914 29.713302 
L 215.072914 33.552355 
L 216.220041 33.552355 
L 216.220041 43.789829 
L 217.367167 43.789829 
L 217.367167 32.638295 
L 218.514293 32.638295 
L 218.514293 40.682024 
L 219.661419 40.682024 
L 219.661419 37.208595 
L 220.808545 37.208595 
L 220.808545 31.724234 
L 221.955671 31.724234 
L 221.955671 31.175798 
L 223.102798 31.175798 
L 223.102798 24.228941 
L 224.249924 24.228941 
L 224.249924 37.391408 
L 225.39705 37.391408 
L 225.39705 33.552355 
L 226.544176 33.552355 
L 226.544176 35.746099 
L 227.691302 35.746099 
L 227.691302 24.960189 
L 228.838428 24.960189 
L 228.838428 24.411753 
L 229.985555 24.411753 
L 229.985555 37.939844 
L 231.132681 37.939844 
L 231.132681 31.541422 
L 232.279807 31.541422 
L 232.279807 26.239873 
L 233.426933 26.239873 
L 233.426933 40.3164 
L 234.574059 40.3164 
L 234.574059 35.197663 
L 235.721185 35.197663 
L 235.721185 49.091378 
L 236.868312 49.091378 
L 236.868312 38.305468 
L 238.015438 38.305468 
L 238.015438 29.164866 
L 239.162564 29.164866 
L 239.162564 39.950776 
L 240.30969 39.950776 
L 240.30969 34.283603 
L 241.456816 34.283603 
L 241.456816 26.239873 
L 242.603942 26.239873 
L 242.603942 34.649227 
L 243.751069 34.649227 
L 243.751069 26.971122 
L 244.898195 26.971122 
L 244.898195 35.014851 
L 246.045321 35.014851 
L 246.045321 31.541422 
L 247.192447 31.541422 
L 247.192447 35.928911 
L 248.339573 35.928911 
L 248.339573 35.380475 
L 249.486699 35.380475 
L 249.486699 30.810174 
L 250.633826 30.810174 
L 250.633826 31.724234 
L 251.780952 31.724234 
L 251.780952 32.821107 
L 252.928078 32.821107 
L 252.928078 33.735167 
L 254.075204 33.735167 
L 254.075204 28.61643 
L 255.22233 28.61643 
L 255.22233 28.250806 
L 256.369456 28.250806 
L 256.369456 23.680505 
L 257.516583 23.680505 
L 257.516583 38.671092 
L 258.663709 38.671092 
L 258.663709 28.067994 
L 259.810835 28.067994 
L 259.810835 34.283603 
L 260.957961 34.283603 
L 260.957961 30.810174 
L 262.105087 30.810174 
L 262.105087 24.411753 
L 263.252213 24.411753 
L 263.252213 41.961708 
L 264.39934 41.961708 
L 264.39934 35.928911 
L 265.546466 35.928911 
L 265.546466 34.649227 
L 266.693592 34.649227 
L 266.693592 41.413272 
L 267.840718 41.413272 
L 267.840718 34.100791 
L 268.987844 34.100791 
L 268.987844 51.10231 
L 270.13497 51.10231 
L 270.13497 54.575739 
L 271.282097 54.575739 
L 271.282097 58.963228 
L 272.429223 58.963228 
L 272.429223 80.71786 
L 273.576349 80.71786 
L 273.576349 79.255363 
L 274.723475 79.255363 
L 274.723475 90.955334 
L 275.870601 90.955334 
L 275.870601 97.902191 
L 277.017727 97.902191 
L 277.017727 111.24747 
L 278.164854 111.24747 
L 278.164854 111.064657 
L 279.31198 111.064657 
L 279.31198 116.549019 
L 280.459106 116.549019 
L 280.459106 133.002102 
L 281.606232 133.002102 
L 281.606232 134.281786 
L 282.753358 134.281786 
L 282.753358 139.583335 
L 283.900484 139.583335 
L 283.900484 144.702072 
L 285.047611 144.702072 
L 285.047611 153.294238 
L 286.194737 153.294238 
L 286.194737 151.100493 
L 287.341863 151.100493 
L 287.341863 163.348899 
L 288.488989 163.348899 
L 288.488989 169.930133 
L 289.636115 169.930133 
L 289.636115 170.661381 
L 290.783241 170.661381 
L 290.783241 171.941065 
L 291.930368 171.941065 
L 291.930368 181.447291 
L 293.077494 181.447291 
L 293.077494 184.006659 
L 295.371746 184.006659 
L 295.371746 191.684765 
L 296.518872 191.684765 
L 296.518872 195.70663 
L 297.665999 195.70663 
L 297.665999 193.512885 
L 298.813125 193.512885 
L 298.813125 198.631622 
L 299.960251 198.631622 
L 299.960251 201.190991 
L 301.107377 201.190991 
L 301.107377 203.750359 
L 302.254503 203.750359 
L 302.254503 204.298795 
L 303.401629 204.298795 
L 303.401629 205.212855 
L 304.548755 205.212855 
L 304.548755 204.298795 
L 305.695882 204.298795 
L 305.695882 213.805021 
L 306.843008 213.805021 
L 306.843008 212.342525 
L 307.990134 212.342525 
L 307.990134 211.06284 
L 309.13726 211.06284 
L 309.13726 214.170645 
L 310.284386 214.170645 
L 310.284386 219.472194 
L 311.431512 219.472194 
L 311.431512 220.569066 
L 312.578639 220.569066 
L 312.578639 223.311247 
L 313.725765 223.311247 
L 313.725765 219.10657 
L 314.872891 219.10657 
L 314.872891 222.214375 
L 316.020017 222.214375 
L 316.020017 222.762811 
L 317.167143 222.762811 
L 317.167143 227.1503 
L 318.314269 227.1503 
L 318.314269 226.967487 
L 319.461396 226.967487 
L 319.461396 230.258104 
L 320.608522 230.258104 
L 320.608522 226.967487 
L 321.755648 226.967487 
L 321.755648 228.247172 
L 322.902774 228.247172 
L 322.902774 229.344044 
L 324.0499 229.344044 
L 324.0499 231.7206 
L 325.197026 231.7206 
L 325.197026 232.451849 
L 326.344153 232.451849 
L 326.344153 234.279969 
L 327.491279 234.279969 
L 327.491279 231.537788 
L 328.638405 231.537788 
L 328.638405 234.097157 
L 329.785531 234.097157 
L 329.785531 235.376841 
L 330.932657 235.376841 
L 330.932657 235.011217 
L 332.079783 235.011217 
L 332.079783 238.301834 
L 333.22691 238.301834 
L 333.22691 235.742465 
L 334.374036 235.742465 
L 334.374036 237.753398 
L 335.521162 237.753398 
L 335.521162 238.119022 
L 336.668288 238.119022 
L 336.668288 237.022149 
L 337.815414 237.022149 
L 337.815414 235.559653 
L 338.96254 235.559653 
L 338.96254 236.656525 
L 340.109667 236.656525 
L 340.109667 237.93621 
L 341.256793 237.93621 
L 341.256793 237.753398 
L 342.403919 237.753398 
L 342.403919 240.312766 
L 343.551045 240.312766 
L 343.551045 239.033082 
L 344.698171 239.033082 
L 344.698171 242.323698 
L 345.845297 242.323698 
L 345.845297 240.495578 
L 346.992424 240.495578 
L 346.992424 240.861202 
L 348.13955 240.861202 
L 348.13955 241.775262 
L 349.286676 241.775262 
L 349.286676 240.67839 
L 350.433802 240.67839 
L 350.433802 242.323698 
L 351.580928 242.323698 
L 351.580928 243.237759 
L 352.728054 243.237759 
L 352.728054 242.323698 
L 353.875181 242.323698 
L 353.875181 243.420571 
L 355.022307 243.420571 
L 355.022307 241.59245 
L 357.316559 241.59245 
L 357.316559 241.958074 
L 358.463685 241.958074 
L 358.463685 241.775262 
L 359.610811 241.775262 
L 359.610811 243.420571 
L 360.757938 243.420571 
L 360.757938 242.689322 
L 363.05219 242.689322 
L 363.05219 244.151819 
L 364.199316 244.151819 
L 364.199316 243.603383 
L 365.346442 243.603383 
L 365.346442 243.054947 
L 366.493568 243.054947 
L 366.493568 243.420571 
L 367.640695 243.420571 
L 367.640695 244.700255 
L 368.787821 244.700255 
L 368.787821 244.151819 
L 369.934947 244.151819 
L 369.934947 244.334631 
L 371.082073 244.334631 
L 371.082073 243.786195 
L 372.229199 243.786195 
L 372.229199 243.237759 
L 373.376325 243.237759 
L 373.376325 245.065879 
L 374.523452 245.065879 
L 374.523452 243.969007 
L 375.670578 243.969007 
L 375.670578 244.883067 
L 376.817704 244.883067 
L 376.817704 243.786195 
L 377.96483 243.786195 
L 377.96483 244.883067 
L 379.111956 244.883067 
L 379.111956 243.969007 
L 380.259082 243.969007 
L 380.259082 245.431503 
L 381.406209 245.431503 
L 381.406209 244.883067 
L 382.553335 244.883067 
L 382.553335 245.248691 
L 383.700461 245.248691 
L 383.700461 244.700255 
L 384.847587 244.700255 
L 384.847587 245.431503 
L 385.994713 245.431503 
L 385.994713 245.248691 
L 387.141839 245.248691 
L 387.141839 245.614315 
L 388.288966 245.614315 
L 388.288966 245.065879 
L 389.436092 245.065879 
L 389.436092 244.883067 
L 391.730344 244.883067 
L 391.730344 243.969007 
L 392.87747 243.969007 
L 392.87747 244.883067 
L 397.465975 244.883067 
L 397.465975 245.065879 
L 398.613101 245.065879 
L 398.613101 244.883067 
L 399.760227 244.883067 
L 399.760227 245.431503 
L 400.907353 245.431503 
L 400.907353 245.065879 
L 402.05448 245.065879 
L 402.05448 245.431503 
L 403.201606 245.431503 
L 403.201606 245.797127 
L 404.348732 245.797127 
L 404.348732 245.248691 
L 406.642984 245.248691 
L 406.642984 245.614315 
L 407.79011 245.614315 
L 407.79011 245.431503 
L 408.937237 245.431503 
L 408.937237 245.614315 
L 410.084363 245.614315 
L 410.084363 245.248691 
L 411.231489 245.248691 
L 411.231489 245.614315 
L 412.378615 245.614315 
L 412.378615 245.431503 
L 413.525741 245.431503 
L 413.525741 245.248691 
L 414.672867 245.248691 
L 414.672867 245.248691 
" clip-path="url(#p87710e9cc5)" style="fill: none; stroke: #1f77b4; stroke-width: 1.5; stroke-linecap: square"/>
   </g>
   <g id="patch_3">
    <path d="M 53.328125 257.158895 
L 53.328125 7.2 
" style="fill: none; stroke: #000000; stroke-width: 0.8; stroke-linejoin: miter; stroke-linecap: square"/>
   </g>
   <g id="patch_4">
    <path d="M 431.87976 257.158895 
L 431.87976 7.2 
" style="fill: none; stroke: #000000; stroke-width: 0.8; stroke-linejoin: miter; stroke-linecap: square"/>
   </g>
   <g id="patch_5">
    <path d="M 53.328125 257.158895 
L 431.87976 257.158895 
" style="fill: none; stroke: #000000; stroke-width: 0.8; stroke-linejoin: miter; stroke-linecap: square"/>
   </g>
   <g id="patch_6">
    <path d="M 53.328125 7.2 
L 431.87976 7.2 
" style="fill: none; stroke: #000000; stroke-width: 0.8; stroke-linejoin: miter; stroke-linecap: square"/>
   </g>
  </g>
  <g id="axes_2">
   <g id="patch_7">
    <path d="M 486.647885 257.158895 
L 865.19952 257.158895 
L 865.19952 7.2 
L 486.647885 7.2 
z
" style="fill: #ffffff"/>
   </g>
   <g id="matplotlib.axis_3">
    <g id="xtick_7">
     <g id="line2d_15">
      <g>
       <use xlink:href="#m5b2d722d89" x="500.378084" y="257.158895" style="stroke: #000000; stroke-width: 0.8"/>
      </g>
     </g>
     <g id="text_16">
      <!-- 0.0 -->
      <g transform="translate(492.426521 271.757332) scale(0.1 -0.1)">
       <defs>
        <path id="DejaVuSans-2e" d="M 684 794 
L 1344 794 
L 1344 0 
L 684 0 
L 684 794 
z
" transform="scale(0.015625)"/>
       </defs>
       <use xlink:href="#DejaVuSans-30"/>
       <use xlink:href="#DejaVuSans-2e" transform="translate(63.623047 0)"/>
       <use xlink:href="#DejaVuSans-30" transform="translate(95.410156 0)"/>
      </g>
     </g>
    </g>
    <g id="xtick_8">
     <g id="line2d_16">
      <g>
       <use xlink:href="#m5b2d722d89" x="544.156716" y="257.158895" style="stroke: #000000; stroke-width: 0.8"/>
      </g>
     </g>
     <g id="text_17">
      <!-- 2.5 -->
      <g transform="translate(536.205153 271.757332) scale(0.1 -0.1)">
       <use xlink:href="#DejaVuSans-32"/>
       <use xlink:href="#DejaVuSans-2e" transform="translate(63.623047 0)"/>
       <use xlink:href="#DejaVuSans-35" transform="translate(95.410156 0)"/>
      </g>
     </g>
    </g>
    <g id="xtick_9">
     <g id="line2d_17">
      <g>
       <use xlink:href="#m5b2d722d89" x="587.935348" y="257.158895" style="stroke: #000000; stroke-width: 0.8"/>
      </g>
     </g>
     <g id="text_18">
      <!-- 5.0 -->
      <g transform="translate(579.983785 271.757332) scale(0.1 -0.1)">
       <use xlink:href="#DejaVuSans-35"/>
       <use xlink:href="#DejaVuSans-2e" transform="translate(63.623047 0)"/>
       <use xlink:href="#DejaVuSans-30" transform="translate(95.410156 0)"/>
      </g>
     </g>
    </g>
    <g id="xtick_10">
     <g id="line2d_18">
      <g>
       <use xlink:href="#m5b2d722d89" x="631.713979" y="257.158895" style="stroke: #000000; stroke-width: 0.8"/>
      </g>
     </g>
     <g id="text_19">
      <!-- 7.5 -->
      <g transform="translate(623.762417 271.757332) scale(0.1 -0.1)">
       <defs>
        <path id="DejaVuSans-37" d="M 525 4666 
L 3525 4666 
L 3525 4397 
L 1831 0 
L 1172 0 
L 2766 4134 
L 525 4134 
L 525 4666 
z
" transform="scale(0.015625)"/>
       </defs>
       <use xlink:href="#DejaVuSans-37"/>
       <use xlink:href="#DejaVuSans-2e" transform="translate(63.623047 0)"/>
       <use xlink:href="#DejaVuSans-35" transform="translate(95.410156 0)"/>
      </g>
     </g>
    </g>
    <g id="xtick_11">
     <g id="line2d_19">
      <g>
       <use xlink:href="#m5b2d722d89" x="675.492611" y="257.158895" style="stroke: #000000; stroke-width: 0.8"/>
      </g>
     </g>
     <g id="text_20">
      <!-- 10.0 -->
      <g transform="translate(664.359799 271.757332) scale(0.1 -0.1)">
       <use xlink:href="#DejaVuSans-31"/>
       <use xlink:href="#DejaVuSans-30" transform="translate(63.623047 0)"/>
       <use xlink:href="#DejaVuSans-2e" transform="translate(127.246094 0)"/>
       <use xlink:href="#DejaVuSans-30" transform="translate(159.033203 0)"/>
      </g>
     </g>
    </g>
    <g id="xtick_12">
     <g id="line2d_20">
      <g>
       <use xlink:href="#m5b2d722d89" x="719.271243" y="257.158895" style="stroke: #000000; stroke-width: 0.8"/>
      </g>
     </g>
     <g id="text_21">
      <!-- 12.5 -->
      <g transform="translate(708.13843 271.757332) scale(0.1 -0.1)">
       <use xlink:href="#DejaVuSans-31"/>
       <use xlink:href="#DejaVuSans-32" transform="translate(63.623047 0)"/>
       <use xlink:href="#DejaVuSans-2e" transform="translate(127.246094 0)"/>
       <use xlink:href="#DejaVuSans-35" transform="translate(159.033203 0)"/>
      </g>
     </g>
    </g>
    <g id="xtick_13">
     <g id="line2d_21">
      <g>
       <use xlink:href="#m5b2d722d89" x="763.049875" y="257.158895" style="stroke: #000000; stroke-width: 0.8"/>
      </g>
     </g>
     <g id="text_22">
      <!-- 15.0 -->
      <g transform="translate(751.917062 271.757332) scale(0.1 -0.1)">
       <use xlink:href="#DejaVuSans-31"/>
       <use xlink:href="#DejaVuSans-35" transform="translate(63.623047 0)"/>
       <use xlink:href="#DejaVuSans-2e" transform="translate(127.246094 0)"/>
       <use xlink:href="#DejaVuSans-30" transform="translate(159.033203 0)"/>
      </g>
     </g>
    </g>
    <g id="xtick_14">
     <g id="line2d_22">
      <g>
       <use xlink:href="#m5b2d722d89" x="806.828506" y="257.158895" style="stroke: #000000; stroke-width: 0.8"/>
      </g>
     </g>
     <g id="text_23">
      <!-- 17.5 -->
      <g transform="translate(795.695694 271.757332) scale(0.1 -0.1)">
       <use xlink:href="#DejaVuSans-31"/>
       <use xlink:href="#DejaVuSans-37" transform="translate(63.623047 0)"/>
       <use xlink:href="#DejaVuSans-2e" transform="translate(127.246094 0)"/>
       <use xlink:href="#DejaVuSans-35" transform="translate(159.033203 0)"/>
      </g>
     </g>
    </g>
    <g id="xtick_15">
     <g id="line2d_23">
      <g>
       <use xlink:href="#m5b2d722d89" x="850.607138" y="257.158895" style="stroke: #000000; stroke-width: 0.8"/>
      </g>
     </g>
     <g id="text_24">
      <!-- 20.0 -->
      <g transform="translate(839.474326 271.757332) scale(0.1 -0.1)">
       <use xlink:href="#DejaVuSans-32"/>
       <use xlink:href="#DejaVuSans-30" transform="translate(63.623047 0)"/>
       <use xlink:href="#DejaVuSans-2e" transform="translate(127.246094 0)"/>
       <use xlink:href="#DejaVuSans-30" transform="translate(159.033203 0)"/>
      </g>
     </g>
    </g>
    <g id="text_25">
     <!-- wavelength [Å] -->
     <g transform="translate(637.886202 287.119832) scale(0.1 -0.1)">
      <defs>
       <path id="DejaVuSans-77" d="M 269 3500 
L 844 3500 
L 1563 769 
L 2278 3500 
L 2956 3500 
L 3675 769 
L 4391 3500 
L 4966 3500 
L 4050 0 
L 3372 0 
L 2619 2869 
L 1863 0 
L 1184 0 
L 269 3500 
z
" transform="scale(0.015625)"/>
       <path id="DejaVuSans-61" d="M 2194 1759 
Q 1497 1759 1228 1600 
Q 959 1441 959 1056 
Q 959 750 1161 570 
Q 1363 391 1709 391 
Q 2188 391 2477 730 
Q 2766 1069 2766 1631 
L 2766 1759 
L 2194 1759 
z
M 3341 1997 
L 3341 0 
L 2766 0 
L 2766 531 
Q 2569 213 2275 61 
Q 1981 -91 1556 -91 
Q 1019 -91 701 211 
Q 384 513 384 1019 
Q 384 1609 779 1909 
Q 1175 2209 1959 2209 
L 2766 2209 
L 2766 2266 
Q 2766 2663 2505 2880 
Q 2244 3097 1772 3097 
Q 1472 3097 1187 3025 
Q 903 2953 641 2809 
L 641 3341 
Q 956 3463 1253 3523 
Q 1550 3584 1831 3584 
Q 2591 3584 2966 3190 
Q 3341 2797 3341 1997 
z
" transform="scale(0.015625)"/>
       <path id="DejaVuSans-76" d="M 191 3500 
L 800 3500 
L 1894 563 
L 2988 3500 
L 3597 3500 
L 2284 0 
L 1503 0 
L 191 3500 
z
" transform="scale(0.015625)"/>
       <path id="DejaVuSans-6c" d="M 603 4863 
L 1178 4863 
L 1178 0 
L 603 0 
L 603 4863 
z
" transform="scale(0.015625)"/>
       <path id="DejaVuSans-67" d="M 2906 1791 
Q 2906 2416 2648 2759 
Q 2391 3103 1925 3103 
Q 1463 3103 1205 2759 
Q 947 2416 947 1791 
Q 947 1169 1205 825 
Q 1463 481 1925 481 
Q 2391 481 2648 825 
Q 2906 1169 2906 1791 
z
M 3481 434 
Q 3481 -459 3084 -895 
Q 2688 -1331 1869 -1331 
Q 1566 -1331 1297 -1286 
Q 1028 -1241 775 -1147 
L 775 -588 
Q 1028 -725 1275 -790 
Q 1522 -856 1778 -856 
Q 2344 -856 2625 -561 
Q 2906 -266 2906 331 
L 2906 616 
Q 2728 306 2450 153 
Q 2172 0 1784 0 
Q 1141 0 747 490 
Q 353 981 353 1791 
Q 353 2603 747 3093 
Q 1141 3584 1784 3584 
Q 2172 3584 2450 3431 
Q 2728 3278 2906 2969 
L 2906 3500 
L 3481 3500 
L 3481 434 
z
" transform="scale(0.015625)"/>
       <path id="DejaVuSans-c5" d="M 2663 5081 
Q 2663 5278 2523 5417 
Q 2384 5556 2188 5556 
Q 1988 5556 1852 5420 
Q 1716 5284 1716 5081 
Q 1716 4884 1853 4746 
Q 1991 4609 2188 4609 
Q 2384 4609 2523 4746 
Q 2663 4884 2663 5081 
z
M 2188 4044 
L 1338 1722 
L 3041 1722 
L 2188 4044 
z
M 1716 4366 
Q 1525 4494 1428 4673 
Q 1331 4853 1331 5081 
Q 1331 5441 1579 5691 
Q 1828 5941 2188 5941 
Q 2544 5941 2795 5689 
Q 3047 5438 3047 5081 
Q 3047 4863 2948 4678 
Q 2850 4494 2663 4366 
L 4325 0 
L 3669 0 
L 3244 1197 
L 1141 1197 
L 716 0 
L 50 0 
L 1716 4366 
z
" transform="scale(0.015625)"/>
      </defs>
      <use xlink:href="#DejaVuSans-77"/>
      <use xlink:href="#DejaVuSans-61" transform="translate(81.787109 0)"/>
      <use xlink:href="#DejaVuSans-76" transform="translate(143.066406 0)"/>
      <use xlink:href="#DejaVuSans-65" transform="translate(202.246094 0)"/>
      <use xlink:href="#DejaVuSans-6c" transform="translate(263.769531 0)"/>
      <use xlink:href="#DejaVuSans-65" transform="translate(291.552734 0)"/>
      <use xlink:href="#DejaVuSans-6e" transform="translate(353.076172 0)"/>
      <use xlink:href="#DejaVuSans-67" transform="translate(416.455078 0)"/>
      <use xlink:href="#DejaVuSans-74" transform="translate(479.931641 0)"/>
      <use xlink:href="#DejaVuSans-68" transform="translate(519.140625 0)"/>
      <use xlink:href="#DejaVuSans-20" transform="translate(582.519531 0)"/>
      <use xlink:href="#DejaVuSans-5b" transform="translate(614.306641 0)"/>
      <use xlink:href="#DejaVuSans-c5" transform="translate(653.320312 0)"/>
      <use xlink:href="#DejaVuSans-5d" transform="translate(721.728516 0)"/>
     </g>
    </g>
   </g>
   <g id="matplotlib.axis_4">
    <g id="ytick_8">
     <g id="line2d_24">
      <g>
       <use xlink:href="#mca02164d65" x="486.647885" y="245.797127" style="stroke: #000000; stroke-width: 0.8"/>
      </g>
     </g>
     <g id="text_26">
      <!-- 0 -->
      <g transform="translate(473.285385 249.596346) scale(0.1 -0.1)">
       <use xlink:href="#DejaVuSans-30"/>
      </g>
     </g>
    </g>
    <g id="ytick_9">
     <g id="line2d_25">
      <g>
       <use xlink:href="#mca02164d65" x="486.647885" y="192.543" style="stroke: #000000; stroke-width: 0.8"/>
      </g>
     </g>
     <g id="text_27">
      <!-- 1000 -->
      <g transform="translate(454.197885 196.342219) scale(0.1 -0.1)">
       <use xlink:href="#DejaVuSans-31"/>
       <use xlink:href="#DejaVuSans-30" transform="translate(63.623047 0)"/>
       <use xlink:href="#DejaVuSans-30" transform="translate(127.246094 0)"/>
       <use xlink:href="#DejaVuSans-30" transform="translate(190.869141 0)"/>
      </g>
     </g>
    </g>
    <g id="ytick_10">
     <g id="line2d_26">
      <g>
       <use xlink:href="#mca02164d65" x="486.647885" y="139.288873" style="stroke: #000000; stroke-width: 0.8"/>
      </g>
     </g>
     <g id="text_28">
      <!-- 2000 -->
      <g transform="translate(454.197885 143.088092) scale(0.1 -0.1)">
       <use xlink:href="#DejaVuSans-32"/>
       <use xlink:href="#DejaVuSans-30" transform="translate(63.623047 0)"/>
       <use xlink:href="#DejaVuSans-30" transform="translate(127.246094 0)"/>
       <use xlink:href="#DejaVuSans-30" transform="translate(190.869141 0)"/>
      </g>
     </g>
    </g>
    <g id="ytick_11">
     <g id="line2d_27">
      <g>
       <use xlink:href="#mca02164d65" x="486.647885" y="86.034747" style="stroke: #000000; stroke-width: 0.8"/>
      </g>
     </g>
     <g id="text_29">
      <!-- 3000 -->
      <g transform="translate(454.197885 89.833965) scale(0.1 -0.1)">
       <use xlink:href="#DejaVuSans-33"/>
       <use xlink:href="#DejaVuSans-30" transform="translate(63.623047 0)"/>
       <use xlink:href="#DejaVuSans-30" transform="translate(127.246094 0)"/>
       <use xlink:href="#DejaVuSans-30" transform="translate(190.869141 0)"/>
      </g>
     </g>
    </g>
    <g id="ytick_12">
     <g id="line2d_28">
      <g>
       <use xlink:href="#mca02164d65" x="486.647885" y="32.78062" style="stroke: #000000; stroke-width: 0.8"/>
      </g>
     </g>
     <g id="text_30">
      <!-- 4000 -->
      <g transform="translate(454.197885 36.579839) scale(0.1 -0.1)">
       <use xlink:href="#DejaVuSans-34"/>
       <use xlink:href="#DejaVuSans-30" transform="translate(63.623047 0)"/>
       <use xlink:href="#DejaVuSans-30" transform="translate(127.246094 0)"/>
       <use xlink:href="#DejaVuSans-30" transform="translate(190.869141 0)"/>
      </g>
     </g>
    </g>
    <g id="text_31">
     <!-- [counts] -->
     <g transform="translate(448.118197 152.791947) rotate(-90) scale(0.1 -0.1)">
      <use xlink:href="#DejaVuSans-5b"/>
      <use xlink:href="#DejaVuSans-63" transform="translate(39.013672 0)"/>
      <use xlink:href="#DejaVuSans-6f" transform="translate(93.994141 0)"/>
      <use xlink:href="#DejaVuSans-75" transform="translate(155.175781 0)"/>
      <use xlink:href="#DejaVuSans-6e" transform="translate(218.554688 0)"/>
      <use xlink:href="#DejaVuSans-74" transform="translate(281.933594 0)"/>
      <use xlink:href="#DejaVuSans-73" transform="translate(321.142578 0)"/>
      <use xlink:href="#DejaVuSans-5d" transform="translate(373.242188 0)"/>
     </g>
    </g>
   </g>
   <g id="line2d_29">
    <path d="M 503.854777 157.661547 
L 505.001904 157.661547 
L 505.001904 147.436755 
L 506.14903 147.436755 
L 506.14903 135.401322 
L 507.296156 135.401322 
L 507.296156 136.14688 
L 508.443282 136.14688 
L 508.443282 146.424926 
L 509.590408 146.424926 
L 509.590408 150.898273 
L 510.737534 150.898273 
L 510.737534 147.916042 
L 511.884661 147.916042 
L 511.884661 127.679474 
L 513.031787 127.679474 
L 513.031787 106.803856 
L 514.178913 106.803856 
L 514.178913 81.135367 
L 515.326039 81.135367 
L 515.326039 62.389914 
L 516.473165 62.389914 
L 516.473165 36.029122 
L 517.620291 36.029122 
L 517.620291 20.212646 
L 518.767418 20.212646 
L 518.767418 20.532171 
L 519.914544 20.532171 
L 519.914544 18.561768 
L 521.06167 18.561768 
L 521.06167 19.520342 
L 522.208796 19.520342 
L 522.208796 31.609029 
L 523.355922 31.609029 
L 523.355922 42.2066 
L 524.503048 42.2066 
L 524.503048 43.644462 
L 525.650175 43.644462 
L 525.650175 57.597043 
L 526.797301 57.597043 
L 526.797301 69.738984 
L 527.944427 69.738984 
L 527.944427 78.153136 
L 529.091553 78.153136 
L 529.091553 82.946007 
L 530.238679 82.946007 
L 530.238679 89.81579 
L 531.385805 89.81579 
L 531.385805 93.650087 
L 532.532932 93.650087 
L 532.532932 87.472608 
L 533.680058 87.472608 
L 533.680058 97.750655 
L 534.827184 97.750655 
L 534.827184 93.756595 
L 535.97431 93.756595 
L 535.97431 90.401585 
L 537.121436 90.401585 
L 537.121436 86.886813 
L 538.268562 86.886813 
L 538.268562 79.857268 
L 539.415689 79.857268 
L 539.415689 67.076277 
L 540.562815 67.076277 
L 540.562815 59.833716 
L 541.709941 59.833716 
L 541.709941 53.389967 
L 542.857067 53.389967 
L 542.857067 41.141518 
L 544.004193 41.141518 
L 544.004193 36.561663 
L 545.151319 36.561663 
L 545.151319 27.561715 
L 546.298446 27.561715 
L 546.298446 42.313109 
L 547.445572 42.313109 
L 547.445572 51.419564 
L 548.592698 51.419564 
L 548.592698 59.407683 
L 549.739824 59.407683 
L 549.739824 67.875089 
L 550.88695 67.875089 
L 550.88695 79.697506 
L 552.034076 79.697506 
L 552.034076 88.324674 
L 553.181203 88.324674 
L 553.181203 91.62643 
L 554.328329 91.62643 
L 554.328329 103.661863 
L 555.475455 103.661863 
L 555.475455 108.721005 
L 556.622581 108.721005 
L 556.622581 117.188411 
L 557.769707 117.188411 
L 557.769707 120.27715 
L 558.916833 120.27715 
L 558.916833 129.969401 
L 560.06396 129.969401 
L 560.06396 131.620279 
L 561.211086 131.620279 
L 561.211086 142.8569 
L 562.358212 142.8569 
L 562.358212 146.531435 
L 563.505338 146.531435 
L 563.505338 151.004781 
L 564.652464 151.004781 
L 564.652464 155.744399 
L 565.79959 155.744399 
L 565.79959 161.069811 
L 566.946717 161.069811 
L 566.946717 163.519501 
L 568.093843 163.519501 
L 568.093843 168.472135 
L 569.240969 168.472135 
L 569.240969 171.454366 
L 570.388095 171.454366 
L 570.388095 175.714696 
L 571.535221 175.714696 
L 571.535221 175.182155 
L 572.682347 175.182155 
L 572.682347 176.353746 
L 573.829474 176.353746 
L 573.829474 184.821152 
L 574.9766 184.821152 
L 574.9766 186.7383 
L 576.123726 186.7383 
L 576.123726 186.365522 
L 577.270852 186.365522 
L 577.270852 190.838868 
L 578.417978 190.838868 
L 578.417978 192.543 
L 579.565104 192.543 
L 579.565104 197.815159 
L 580.712231 197.815159 
L 580.712231 201.383185 
L 581.859357 201.383185 
L 581.859357 200.79739 
L 583.006483 200.79739 
L 583.006483 203.460096 
L 584.153609 203.460096 
L 584.153609 205.643515 
L 585.300735 205.643515 
L 585.300735 207.134631 
L 586.447861 207.134631 
L 586.447861 209.211542 
L 587.594988 209.211542 
L 587.594988 209.9571 
L 588.742114 209.9571 
L 588.742114 211.501469 
L 589.88924 211.501469 
L 589.88924 214.110922 
L 591.036366 214.110922 
L 591.036366 214.856479 
L 592.183492 214.856479 
L 592.183492 215.602037 
L 593.330618 215.602037 
L 593.330618 217.732202 
L 594.477745 217.732202 
L 594.477745 219.755859 
L 595.624871 219.755859 
L 595.624871 220.767687 
L 596.771997 220.767687 
L 596.771997 219.11681 
L 597.919123 219.11681 
L 597.919123 221.300229 
L 599.066249 221.300229 
L 599.066249 221.779516 
L 600.213375 221.779516 
L 600.213375 223.164123 
L 601.360502 223.164123 
L 601.360502 225.667067 
L 602.507628 225.667067 
L 602.507628 224.54873 
L 603.654754 224.54873 
L 603.654754 226.199608 
L 604.80188 226.199608 
L 604.80188 227.743978 
L 605.949006 227.743978 
L 605.949006 227.530962 
L 607.096132 227.530962 
L 607.096132 229.075331 
L 608.243259 229.075331 
L 608.243259 229.288348 
L 609.390385 229.288348 
L 609.390385 229.980651 
L 610.537511 229.980651 
L 610.537511 230.140414 
L 611.684637 230.140414 
L 611.684637 230.406684 
L 612.831763 230.406684 
L 612.831763 230.246922 
L 613.978889 230.246922 
L 613.978889 232.110816 
L 615.126016 232.110816 
L 615.126016 232.909628 
L 616.273142 232.909628 
L 616.273142 234.986539 
L 617.420268 234.986539 
L 617.420268 233.44217 
L 618.567394 233.44217 
L 618.567394 234.34749 
L 619.71452 234.34749 
L 619.71452 233.70844 
L 620.861647 233.70844 
L 620.861647 234.773523 
L 622.008773 234.773523 
L 622.008773 236.371147 
L 623.155899 236.371147 
L 623.155899 235.998368 
L 624.303025 235.998368 
L 624.303025 234.773523 
L 625.450151 234.773523 
L 625.450151 236.424401 
L 626.597277 236.424401 
L 626.597277 235.785351 
L 627.744403 235.785351 
L 627.744403 237.649246 
L 628.89153 237.649246 
L 628.89153 236.79718 
L 630.038656 236.79718 
L 630.038656 237.169959 
L 631.185782 237.169959 
L 631.185782 238.554566 
L 633.480034 238.554566 
L 633.480034 237.223213 
L 634.62716 237.223213 
L 634.62716 238.288295 
L 635.774287 238.288295 
L 635.774287 238.820836 
L 636.921413 238.820836 
L 636.921413 239.832665 
L 638.068539 239.832665 
L 638.068539 239.51314 
L 639.215665 239.51314 
L 639.215665 238.235041 
L 640.362791 238.235041 
L 640.362791 239.246869 
L 641.509917 239.246869 
L 641.509917 238.927345 
L 642.657044 238.927345 
L 642.657044 240.365206 
L 643.80417 240.365206 
L 643.80417 239.885919 
L 644.951296 239.885919 
L 644.951296 240.098935 
L 646.098422 240.098935 
L 646.098422 241.004256 
L 647.245548 241.004256 
L 647.245548 241.377035 
L 648.392674 241.377035 
L 648.392674 240.897747 
L 649.539801 240.897747 
L 649.539801 240.205444 
L 650.686927 240.205444 
L 650.686927 241.483543 
L 652.981179 241.536797 
L 652.981179 241.164018 
L 654.128305 241.164018 
L 654.128305 241.483543 
L 655.275431 241.483543 
L 655.275431 241.909576 
L 656.422558 241.909576 
L 656.422558 242.442117 
L 657.569684 242.442117 
L 657.569684 242.175846 
L 658.71681 242.175846 
L 658.71681 242.335609 
L 659.863936 242.335609 
L 659.863936 241.377035 
L 661.011062 241.377035 
L 661.011062 242.069338 
L 662.158188 242.069338 
L 662.158188 241.856322 
L 665.599567 241.856322 
L 665.599567 242.388863 
L 666.746693 242.388863 
L 666.746693 243.027912 
L 669.040945 243.134421 
L 669.040945 242.655134 
L 671.335198 242.761642 
L 671.335198 242.86815 
L 672.482324 242.86815 
L 672.482324 242.601879 
L 673.62945 242.601879 
L 673.62945 243.294183 
L 674.776576 243.294183 
L 674.776576 243.77347 
L 675.923702 243.77347 
L 675.923702 242.495371 
L 677.070829 242.495371 
L 677.070829 243.77347 
L 678.217955 243.77347 
L 678.217955 243.081167 
L 679.365081 243.081167 
L 679.365081 243.5072 
L 680.512207 243.5072 
L 680.512207 243.347437 
L 681.659333 243.347437 
L 681.659333 242.974658 
L 682.806459 242.974658 
L 682.806459 244.306011 
L 683.953586 244.306011 
L 683.953586 243.294183 
L 685.100712 243.294183 
L 685.100712 243.826724 
L 687.394964 243.933233 
L 687.394964 244.306011 
L 689.689216 244.306011 
L 689.689216 243.986487 
L 690.836343 243.986487 
L 690.836343 244.465774 
L 691.983469 244.465774 
L 691.983469 244.199503 
L 695.424847 244.252757 
L 695.424847 243.933233 
L 696.571974 243.933233 
L 696.571974 244.41252 
L 697.7191 244.41252 
L 697.7191 244.838553 
L 698.866226 244.838553 
L 698.866226 244.252757 
L 700.013352 244.252757 
L 700.013352 244.465774 
L 703.45473 244.572282 
L 703.45473 244.306011 
L 704.601857 244.306011 
L 704.601857 244.092995 
L 705.748983 244.092995 
L 705.748983 244.306011 
L 708.043235 244.306011 
L 708.043235 244.67879 
L 710.337487 244.785299 
L 710.337487 245.051569 
L 711.484614 245.051569 
L 711.484614 244.465774 
L 712.63174 244.465774 
L 712.63174 244.891807 
L 713.778866 244.891807 
L 713.778866 244.625536 
L 716.073118 244.625536 
L 716.073118 244.359266 
L 717.220244 244.359266 
L 717.220244 244.732045 
L 720.661623 244.732045 
L 720.661623 244.998315 
L 722.955875 244.891807 
L 722.955875 244.838553 
L 724.103001 244.838553 
L 724.103001 244.67879 
L 725.250128 244.67879 
L 725.250128 244.891807 
L 728.691506 244.785299 
L 728.691506 244.625536 
L 729.838632 244.625536 
L 729.838632 245.158078 
L 733.280011 245.264586 
L 733.280011 244.945061 
L 734.427137 244.945061 
L 734.427137 245.104823 
L 736.721389 245.158078 
L 736.721389 244.732045 
L 737.868515 244.732045 
L 737.868515 244.945061 
L 739.015642 244.945061 
L 739.015642 245.158078 
L 740.162768 245.158078 
L 740.162768 244.998315 
L 741.309894 244.998315 
L 741.309894 245.424348 
L 743.604146 245.371094 
L 743.604146 245.104823 
L 745.898399 244.998315 
L 745.898399 245.264586 
L 749.339777 245.264586 
L 749.339777 245.424348 
L 750.486903 245.424348 
L 750.486903 245.211332 
L 751.634029 245.211332 
L 751.634029 245.424348 
L 755.075408 245.31784 
L 755.075408 245.264586 
L 758.516786 245.31784 
L 758.516786 245.477602 
L 764.252417 245.371094 
L 764.252417 245.264586 
L 767.693796 245.264586 
L 767.693796 245.530856 
L 772.282301 245.424348 
L 772.282301 245.690619 
L 773.429427 245.690619 
L 773.429427 245.477602 
L 774.576553 245.477602 
L 774.576553 245.31784 
L 776.870805 245.211332 
L 776.870805 245.584111 
L 779.165057 245.477602 
L 779.165057 245.264586 
L 780.312184 245.264586 
L 780.312184 245.584111 
L 782.606436 245.530856 
L 782.606436 245.424348 
L 783.753562 245.424348 
L 783.753562 245.584111 
L 788.342067 245.477602 
L 788.342067 245.371094 
L 790.636319 245.31784 
L 790.636319 245.584111 
L 794.077698 245.690619 
L 794.077698 245.371094 
L 795.224824 245.371094 
L 795.224824 245.530856 
L 802.107581 245.530856 
L 802.107581 245.743873 
L 803.254707 245.743873 
L 803.254707 245.584111 
L 814.725969 245.690619 
L 814.725969 245.743873 
L 817.020221 245.690619 
L 817.020221 245.530856 
L 818.167347 245.530856 
L 818.167347 245.743873 
L 826.19723 245.637365 
L 826.19723 245.584111 
L 827.344357 245.584111 
L 827.344357 245.743873 
L 836.521366 245.637365 
L 836.521366 245.584111 
L 837.668492 245.584111 
L 837.668492 245.797127 
L 838.815618 245.797127 
L 838.815618 245.584111 
L 841.10987 245.690619 
L 841.10987 245.743873 
L 842.256997 245.743873 
L 842.256997 245.584111 
L 845.698375 245.690619 
L 845.698375 245.797127 
L 847.992628 245.690619 
L 847.992628 245.690619 
" clip-path="url(#p5f8d259d18)" style="fill: none; stroke: #1f77b4; stroke-width: 1.5; stroke-linecap: square"/>
   </g>
   <g id="patch_8">
    <path d="M 486.647885 257.158895 
L 486.647885 7.2 
" style="fill: none; stroke: #000000; stroke-width: 0.8; stroke-linejoin: miter; stroke-linecap: square"/>
   </g>
   <g id="patch_9">
    <path d="M 865.19952 257.158895 
L 865.19952 7.2 
" style="fill: none; stroke: #000000; stroke-width: 0.8; stroke-linejoin: miter; stroke-linecap: square"/>
   </g>
   <g id="patch_10">
    <path d="M 486.647885 257.158895 
L 865.19952 257.158895 
" style="fill: none; stroke: #000000; stroke-width: 0.8; stroke-linejoin: miter; stroke-linecap: square"/>
   </g>
   <g id="patch_11">
    <path d="M 486.647885 7.2 
L 865.19952 7.2 
" style="fill: none; stroke: #000000; stroke-width: 0.8; stroke-linejoin: miter; stroke-linecap: square"/>
   </g>
  </g>
 </g>
 <defs>
  <clipPath id="p87710e9cc5">
   <rect x="53.328125" y="7.2" width="378.551635" height="249.958895"/>
  </clipPath>
  <clipPath id="p5f8d259d18">
   <rect x="486.647885" y="7.2" width="378.551635" height="249.958895"/>
  </clipPath>
 </defs>
</svg>
