<?xml version="1.0" encoding="utf-8" standalone="no"?>
<!DOCTYPE svg PUBLIC "-//W3C//DTD SVG 1.1//EN"
  "http://www.w3.org/Graphics/SVG/1.1/DTD/svg11.dtd">
<svg xmlns:xlink="http://www.w3.org/1999/xlink" width="872.39952pt" height="296.39952pt" viewBox="0 0 872.39952 296.39952" xmlns="http://www.w3.org/2000/svg" version="1.1">
 <metadata>
  <rdf:RDF xmlns:dc="http://purl.org/dc/elements/1.1/" xmlns:cc="http://creativecommons.org/ns#" xmlns:rdf="http://www.w3.org/1999/02/22-rdf-syntax-ns#">
   <cc:Work>
    <dc:type rdf:resource="http://purl.org/dc/dcmitype/StillImage"/>
    <dc:date>2025-02-17T17:52:52.469846</dc:date>
    <dc:format>image/svg+xml</dc:format>
    <dc:creator>
     <cc:Agent>
      <dc:title>Matplotlib v3.10.0, https://matplotlib.org/</dc:title>
     </cc:Agent>
    </dc:creator>
   </cc:Work>
  </rdf:RDF>
 </metadata>
 <defs>
  <style type="text/css">*{stroke-linejoin: round; stroke-linecap: butt}</style>
 </defs>
 <g id="figure_1">
  <g id="patch_1">
   <path d="M 0 296.39952 
L 872.39952 296.39952 
L 872.39952 0 
L 0 0 
z
" style="fill: #ffffff"/>
  </g>
  <g id="axes_1">
   <g id="patch_2">
    <path d="M 53.328125 257.158895 
L 431.87976 257.158895 
L 431.87976 7.2 
L 53.328125 7.2 
z
" style="fill: #ffffff"/>
   </g>
   <g id="matplotlib.axis_1">
    <g id="xtick_1">
     <g id="line2d_1">
      <defs>
       <path id="m5ff90a843d" d="M 0 0 
L 0 3.5 
" style="stroke: #000000; stroke-width: 0.8"/>
      </defs>
      <g>
       <use xlink:href="#m5ff90a843d" x="69.655885" y="257.158895" style="stroke: #000000; stroke-width: 0.8"/>
      </g>
     </g>
     <g id="text_1">
      <!-- 0 -->
      <g transform="translate(66.474635 271.757332) scale(0.1 -0.1)">
       <defs>
        <path id="DejaVuSans-30" d="M 2034 4250 
Q 1547 4250 1301 3770 
Q 1056 3291 1056 2328 
Q 1056 1369 1301 889 
Q 1547 409 2034 409 
Q 2525 409 2770 889 
Q 3016 1369 3016 2328 
Q 3016 3291 2770 3770 
Q 2525 4250 2034 4250 
z
M 2034 4750 
Q 2819 4750 3233 4129 
Q 3647 3509 3647 2328 
Q 3647 1150 3233 529 
Q 2819 -91 2034 -91 
Q 1250 -91 836 529 
Q 422 1150 422 2328 
Q 422 3509 836 4129 
Q 1250 4750 2034 4750 
z
" transform="scale(0.015625)"/>
       </defs>
       <use xlink:href="#DejaVuSans-30"/>
      </g>
     </g>
    </g>
    <g id="xtick_2">
     <g id="line2d_2">
      <g>
       <use xlink:href="#m5ff90a843d" x="139.136823" y="257.158895" style="stroke: #000000; stroke-width: 0.8"/>
      </g>
     </g>
     <g id="text_2">
      <!-- 1000 -->
      <g transform="translate(126.411823 271.757332) scale(0.1 -0.1)">
       <defs>
        <path id="DejaVuSans-31" d="M 794 531 
L 1825 531 
L 1825 4091 
L 703 3866 
L 703 4441 
L 1819 4666 
L 2450 4666 
L 2450 531 
L 3481 531 
L 3481 0 
L 794 0 
L 794 531 
z
" transform="scale(0.015625)"/>
       </defs>
       <use xlink:href="#DejaVuSans-31"/>
       <use xlink:href="#DejaVuSans-30" transform="translate(63.623047 0)"/>
       <use xlink:href="#DejaVuSans-30" transform="translate(127.246094 0)"/>
       <use xlink:href="#DejaVuSans-30" transform="translate(190.869141 0)"/>
      </g>
     </g>
    </g>
    <g id="xtick_3">
     <g id="line2d_3">
      <g>
       <use xlink:href="#m5ff90a843d" x="208.617761" y="257.158895" style="stroke: #000000; stroke-width: 0.8"/>
      </g>
     </g>
     <g id="text_3">
      <!-- 2000 -->
      <g transform="translate(195.892761 271.757332) scale(0.1 -0.1)">
       <defs>
        <path id="DejaVuSans-32" d="M 1228 531 
L 3431 531 
L 3431 0 
L 469 0 
L 469 531 
Q 828 903 1448 1529 
Q 2069 2156 2228 2338 
Q 2531 2678 2651 2914 
Q 2772 3150 2772 3378 
Q 2772 3750 2511 3984 
Q 2250 4219 1831 4219 
Q 1534 4219 1204 4116 
Q 875 4013 500 3803 
L 500 4441 
Q 881 4594 1212 4672 
Q 1544 4750 1819 4750 
Q 2544 4750 2975 4387 
Q 3406 4025 3406 3419 
Q 3406 3131 3298 2873 
Q 3191 2616 2906 2266 
Q 2828 2175 2409 1742 
Q 1991 1309 1228 531 
z
" transform="scale(0.015625)"/>
       </defs>
       <use xlink:href="#DejaVuSans-32"/>
       <use xlink:href="#DejaVuSans-30" transform="translate(63.623047 0)"/>
       <use xlink:href="#DejaVuSans-30" transform="translate(127.246094 0)"/>
       <use xlink:href="#DejaVuSans-30" transform="translate(190.869141 0)"/>
      </g>
     </g>
    </g>
    <g id="xtick_4">
     <g id="line2d_4">
      <g>
       <use xlink:href="#m5ff90a843d" x="278.098699" y="257.158895" style="stroke: #000000; stroke-width: 0.8"/>
      </g>
     </g>
     <g id="text_4">
      <!-- 3000 -->
      <g transform="translate(265.373699 271.757332) scale(0.1 -0.1)">
       <defs>
        <path id="DejaVuSans-33" d="M 2597 2516 
Q 3050 2419 3304 2112 
Q 3559 1806 3559 1356 
Q 3559 666 3084 287 
Q 2609 -91 1734 -91 
Q 1441 -91 1130 -33 
Q 819 25 488 141 
L 488 750 
Q 750 597 1062 519 
Q 1375 441 1716 441 
Q 2309 441 2620 675 
Q 2931 909 2931 1356 
Q 2931 1769 2642 2001 
Q 2353 2234 1838 2234 
L 1294 2234 
L 1294 2753 
L 1863 2753 
Q 2328 2753 2575 2939 
Q 2822 3125 2822 3475 
Q 2822 3834 2567 4026 
Q 2313 4219 1838 4219 
Q 1578 4219 1281 4162 
Q 984 4106 628 3988 
L 628 4550 
Q 988 4650 1302 4700 
Q 1616 4750 1894 4750 
Q 2613 4750 3031 4423 
Q 3450 4097 3450 3541 
Q 3450 3153 3228 2886 
Q 3006 2619 2597 2516 
z
" transform="scale(0.015625)"/>
       </defs>
       <use xlink:href="#DejaVuSans-33"/>
       <use xlink:href="#DejaVuSans-30" transform="translate(63.623047 0)"/>
       <use xlink:href="#DejaVuSans-30" transform="translate(127.246094 0)"/>
       <use xlink:href="#DejaVuSans-30" transform="translate(190.869141 0)"/>
      </g>
     </g>
    </g>
    <g id="xtick_5">
     <g id="line2d_5">
      <g>
       <use xlink:href="#m5ff90a843d" x="347.579638" y="257.158895" style="stroke: #000000; stroke-width: 0.8"/>
      </g>
     </g>
     <g id="text_5">
      <!-- 4000 -->
      <g transform="translate(334.854638 271.757332) scale(0.1 -0.1)">
       <defs>
        <path id="DejaVuSans-34" d="M 2419 4116 
L 825 1625 
L 2419 1625 
L 2419 4116 
z
M 2253 4666 
L 3047 4666 
L 3047 1625 
L 3713 1625 
L 3713 1100 
L 3047 1100 
L 3047 0 
L 2419 0 
L 2419 1100 
L 313 1100 
L 313 1709 
L 2253 4666 
z
" transform="scale(0.015625)"/>
       </defs>
       <use xlink:href="#DejaVuSans-34"/>
       <use xlink:href="#DejaVuSans-30" transform="translate(63.623047 0)"/>
       <use xlink:href="#DejaVuSans-30" transform="translate(127.246094 0)"/>
       <use xlink:href="#DejaVuSans-30" transform="translate(190.869141 0)"/>
      </g>
     </g>
    </g>
    <g id="xtick_6">
     <g id="line2d_6">
      <g>
       <use xlink:href="#m5ff90a843d" x="417.060576" y="257.158895" style="stroke: #000000; stroke-width: 0.8"/>
      </g>
     </g>
     <g id="text_6">
      <!-- 5000 -->
      <g transform="translate(404.335576 271.757332) scale(0.1 -0.1)">
       <defs>
        <path id="DejaVuSans-35" d="M 691 4666 
L 3169 4666 
L 3169 4134 
L 1269 4134 
L 1269 2991 
Q 1406 3038 1543 3061 
Q 1681 3084 1819 3084 
Q 2600 3084 3056 2656 
Q 3513 2228 3513 1497 
Q 3513 744 3044 326 
Q 2575 -91 1722 -91 
Q 1428 -91 1123 -41 
Q 819 9 494 109 
L 494 744 
Q 775 591 1075 516 
Q 1375 441 1709 441 
Q 2250 441 2565 725 
Q 2881 1009 2881 1497 
Q 2881 1984 2565 2268 
Q 2250 2553 1709 2553 
Q 1456 2553 1204 2497 
Q 953 2441 691 2322 
L 691 4666 
z
" transform="scale(0.015625)"/>
       </defs>
       <use xlink:href="#DejaVuSans-35"/>
       <use xlink:href="#DejaVuSans-30" transform="translate(63.623047 0)"/>
       <use xlink:href="#DejaVuSans-30" transform="translate(127.246094 0)"/>
       <use xlink:href="#DejaVuSans-30" transform="translate(190.869141 0)"/>
      </g>
     </g>
    </g>
    <g id="text_7">
     <!-- time [µs] -->
     <g transform="translate(220.031286 285.435457) scale(0.1 -0.1)">
      <defs>
       <path id="DejaVuSans-74" d="M 1172 4494 
L 1172 3500 
L 2356 3500 
L 2356 3053 
L 1172 3053 
L 1172 1153 
Q 1172 725 1289 603 
Q 1406 481 1766 481 
L 2356 481 
L 2356 0 
L 1766 0 
Q 1100 0 847 248 
Q 594 497 594 1153 
L 594 3053 
L 172 3053 
L 172 3500 
L 594 3500 
L 594 4494 
L 1172 4494 
z
" transform="scale(0.015625)"/>
       <path id="DejaVuSans-69" d="M 603 3500 
L 1178 3500 
L 1178 0 
L 603 0 
L 603 3500 
z
M 603 4863 
L 1178 4863 
L 1178 4134 
L 603 4134 
L 603 4863 
z
" transform="scale(0.015625)"/>
       <path id="DejaVuSans-6d" d="M 3328 2828 
Q 3544 3216 3844 3400 
Q 4144 3584 4550 3584 
Q 5097 3584 5394 3201 
Q 5691 2819 5691 2113 
L 5691 0 
L 5113 0 
L 5113 2094 
Q 5113 2597 4934 2840 
Q 4756 3084 4391 3084 
Q 3944 3084 3684 2787 
Q 3425 2491 3425 1978 
L 3425 0 
L 2847 0 
L 2847 2094 
Q 2847 2600 2669 2842 
Q 2491 3084 2119 3084 
Q 1678 3084 1418 2786 
Q 1159 2488 1159 1978 
L 1159 0 
L 581 0 
L 581 3500 
L 1159 3500 
L 1159 2956 
Q 1356 3278 1631 3431 
Q 1906 3584 2284 3584 
Q 2666 3584 2933 3390 
Q 3200 3197 3328 2828 
z
" transform="scale(0.015625)"/>
       <path id="DejaVuSans-65" d="M 3597 1894 
L 3597 1613 
L 953 1613 
Q 991 1019 1311 708 
Q 1631 397 2203 397 
Q 2534 397 2845 478 
Q 3156 559 3463 722 
L 3463 178 
Q 3153 47 2828 -22 
Q 2503 -91 2169 -91 
Q 1331 -91 842 396 
Q 353 884 353 1716 
Q 353 2575 817 3079 
Q 1281 3584 2069 3584 
Q 2775 3584 3186 3129 
Q 3597 2675 3597 1894 
z
M 3022 2063 
Q 3016 2534 2758 2815 
Q 2500 3097 2075 3097 
Q 1594 3097 1305 2825 
Q 1016 2553 972 2059 
L 3022 2063 
z
" transform="scale(0.015625)"/>
       <path id="DejaVuSans-20" transform="scale(0.015625)"/>
       <path id="DejaVuSans-5b" d="M 550 4863 
L 1875 4863 
L 1875 4416 
L 1125 4416 
L 1125 -397 
L 1875 -397 
L 1875 -844 
L 550 -844 
L 550 4863 
z
" transform="scale(0.015625)"/>
       <path id="DejaVuSans-b5" d="M 544 -1331 
L 544 3500 
L 1119 3500 
L 1119 1325 
Q 1119 872 1334 640 
Q 1550 409 1972 409 
Q 2434 409 2667 671 
Q 2900 934 2900 1459 
L 2900 3500 
L 3475 3500 
L 3475 806 
Q 3475 619 3529 530 
Q 3584 441 3700 441 
Q 3728 441 3778 458 
Q 3828 475 3916 513 
L 3916 50 
Q 3788 -22 3673 -56 
Q 3559 -91 3450 -91 
Q 3234 -91 3106 31 
Q 2978 153 2931 403 
Q 2775 156 2548 32 
Q 2322 -91 2016 -91 
Q 1697 -91 1473 31 
Q 1250 153 1119 397 
L 1119 -1331 
L 544 -1331 
z
" transform="scale(0.015625)"/>
       <path id="DejaVuSans-73" d="M 2834 3397 
L 2834 2853 
Q 2591 2978 2328 3040 
Q 2066 3103 1784 3103 
Q 1356 3103 1142 2972 
Q 928 2841 928 2578 
Q 928 2378 1081 2264 
Q 1234 2150 1697 2047 
L 1894 2003 
Q 2506 1872 2764 1633 
Q 3022 1394 3022 966 
Q 3022 478 2636 193 
Q 2250 -91 1575 -91 
Q 1294 -91 989 -36 
Q 684 19 347 128 
L 347 722 
Q 666 556 975 473 
Q 1284 391 1588 391 
Q 1994 391 2212 530 
Q 2431 669 2431 922 
Q 2431 1156 2273 1281 
Q 2116 1406 1581 1522 
L 1381 1569 
Q 847 1681 609 1914 
Q 372 2147 372 2553 
Q 372 3047 722 3315 
Q 1072 3584 1716 3584 
Q 2034 3584 2315 3537 
Q 2597 3491 2834 3397 
z
" transform="scale(0.015625)"/>
       <path id="DejaVuSans-5d" d="M 1947 4863 
L 1947 -844 
L 622 -844 
L 622 -397 
L 1369 -397 
L 1369 4416 
L 622 4416 
L 622 4863 
L 1947 4863 
z
" transform="scale(0.015625)"/>
      </defs>
      <use xlink:href="#DejaVuSans-74"/>
      <use xlink:href="#DejaVuSans-69" transform="translate(39.208984 0)"/>
      <use xlink:href="#DejaVuSans-6d" transform="translate(66.992188 0)"/>
      <use xlink:href="#DejaVuSans-65" transform="translate(164.404297 0)"/>
      <use xlink:href="#DejaVuSans-20" transform="translate(225.927734 0)"/>
      <use xlink:href="#DejaVuSans-5b" transform="translate(257.714844 0)"/>
      <use xlink:href="#DejaVuSans-b5" transform="translate(296.728516 0)"/>
      <use xlink:href="#DejaVuSans-73" transform="translate(360.351562 0)"/>
      <use xlink:href="#DejaVuSans-5d" transform="translate(412.451172 0)"/>
     </g>
    </g>
   </g>
   <g id="matplotlib.axis_2">
    <g id="ytick_1">
     <g id="line2d_7">
      <defs>
       <path id="mdeecd6cd5a" d="M 0 0 
L -3.5 0 
" style="stroke: #000000; stroke-width: 0.8"/>
      </defs>
      <g>
       <use xlink:href="#mdeecd6cd5a" x="53.328125" y="245.797127" style="stroke: #000000; stroke-width: 0.8"/>
      </g>
     </g>
     <g id="text_8">
      <!-- 0 -->
      <g transform="translate(39.965625 249.596346) scale(0.1 -0.1)">
       <use xlink:href="#DejaVuSans-30"/>
      </g>
     </g>
    </g>
    <g id="ytick_2">
     <g id="line2d_8">
      <g>
       <use xlink:href="#mdeecd6cd5a" x="53.328125" y="209.898966" style="stroke: #000000; stroke-width: 0.8"/>
      </g>
     </g>
     <g id="text_9">
      <!-- 200 -->
      <g transform="translate(27.240625 213.698185) scale(0.1 -0.1)">
       <use xlink:href="#DejaVuSans-32"/>
       <use xlink:href="#DejaVuSans-30" transform="translate(63.623047 0)"/>
       <use xlink:href="#DejaVuSans-30" transform="translate(127.246094 0)"/>
      </g>
     </g>
    </g>
    <g id="ytick_3">
     <g id="line2d_9">
      <g>
       <use xlink:href="#mdeecd6cd5a" x="53.328125" y="174.000805" style="stroke: #000000; stroke-width: 0.8"/>
      </g>
     </g>
     <g id="text_10">
      <!-- 400 -->
      <g transform="translate(27.240625 177.800024) scale(0.1 -0.1)">
       <use xlink:href="#DejaVuSans-34"/>
       <use xlink:href="#DejaVuSans-30" transform="translate(63.623047 0)"/>
       <use xlink:href="#DejaVuSans-30" transform="translate(127.246094 0)"/>
      </g>
     </g>
    </g>
    <g id="ytick_4">
     <g id="line2d_10">
      <g>
       <use xlink:href="#mdeecd6cd5a" x="53.328125" y="138.102644" style="stroke: #000000; stroke-width: 0.8"/>
      </g>
     </g>
     <g id="text_11">
      <!-- 600 -->
      <g transform="translate(27.240625 141.901863) scale(0.1 -0.1)">
       <defs>
        <path id="DejaVuSans-36" d="M 2113 2584 
Q 1688 2584 1439 2293 
Q 1191 2003 1191 1497 
Q 1191 994 1439 701 
Q 1688 409 2113 409 
Q 2538 409 2786 701 
Q 3034 994 3034 1497 
Q 3034 2003 2786 2293 
Q 2538 2584 2113 2584 
z
M 3366 4563 
L 3366 3988 
Q 3128 4100 2886 4159 
Q 2644 4219 2406 4219 
Q 1781 4219 1451 3797 
Q 1122 3375 1075 2522 
Q 1259 2794 1537 2939 
Q 1816 3084 2150 3084 
Q 2853 3084 3261 2657 
Q 3669 2231 3669 1497 
Q 3669 778 3244 343 
Q 2819 -91 2113 -91 
Q 1303 -91 875 529 
Q 447 1150 447 2328 
Q 447 3434 972 4092 
Q 1497 4750 2381 4750 
Q 2619 4750 2861 4703 
Q 3103 4656 3366 4563 
z
" transform="scale(0.015625)"/>
       </defs>
       <use xlink:href="#DejaVuSans-36"/>
       <use xlink:href="#DejaVuSans-30" transform="translate(63.623047 0)"/>
       <use xlink:href="#DejaVuSans-30" transform="translate(127.246094 0)"/>
      </g>
     </g>
    </g>
    <g id="ytick_5">
     <g id="line2d_11">
      <g>
       <use xlink:href="#mdeecd6cd5a" x="53.328125" y="102.204483" style="stroke: #000000; stroke-width: 0.8"/>
      </g>
     </g>
     <g id="text_12">
      <!-- 800 -->
      <g transform="translate(27.240625 106.003702) scale(0.1 -0.1)">
       <defs>
        <path id="DejaVuSans-38" d="M 2034 2216 
Q 1584 2216 1326 1975 
Q 1069 1734 1069 1313 
Q 1069 891 1326 650 
Q 1584 409 2034 409 
Q 2484 409 2743 651 
Q 3003 894 3003 1313 
Q 3003 1734 2745 1975 
Q 2488 2216 2034 2216 
z
M 1403 2484 
Q 997 2584 770 2862 
Q 544 3141 544 3541 
Q 544 4100 942 4425 
Q 1341 4750 2034 4750 
Q 2731 4750 3128 4425 
Q 3525 4100 3525 3541 
Q 3525 3141 3298 2862 
Q 3072 2584 2669 2484 
Q 3125 2378 3379 2068 
Q 3634 1759 3634 1313 
Q 3634 634 3220 271 
Q 2806 -91 2034 -91 
Q 1263 -91 848 271 
Q 434 634 434 1313 
Q 434 1759 690 2068 
Q 947 2378 1403 2484 
z
M 1172 3481 
Q 1172 3119 1398 2916 
Q 1625 2713 2034 2713 
Q 2441 2713 2670 2916 
Q 2900 3119 2900 3481 
Q 2900 3844 2670 4047 
Q 2441 4250 2034 4250 
Q 1625 4250 1398 4047 
Q 1172 3844 1172 3481 
z
" transform="scale(0.015625)"/>
       </defs>
       <use xlink:href="#DejaVuSans-38"/>
       <use xlink:href="#DejaVuSans-30" transform="translate(63.623047 0)"/>
       <use xlink:href="#DejaVuSans-30" transform="translate(127.246094 0)"/>
      </g>
     </g>
    </g>
    <g id="ytick_6">
     <g id="line2d_12">
      <g>
       <use xlink:href="#mdeecd6cd5a" x="53.328125" y="66.306322" style="stroke: #000000; stroke-width: 0.8"/>
      </g>
     </g>
     <g id="text_13">
      <!-- 1000 -->
      <g transform="translate(20.878125 70.105541) scale(0.1 -0.1)">
       <use xlink:href="#DejaVuSans-31"/>
       <use xlink:href="#DejaVuSans-30" transform="translate(63.623047 0)"/>
       <use xlink:href="#DejaVuSans-30" transform="translate(127.246094 0)"/>
       <use xlink:href="#DejaVuSans-30" transform="translate(190.869141 0)"/>
      </g>
     </g>
    </g>
    <g id="ytick_7">
     <g id="line2d_13">
      <g>
       <use xlink:href="#mdeecd6cd5a" x="53.328125" y="30.408161" style="stroke: #000000; stroke-width: 0.8"/>
      </g>
     </g>
     <g id="text_14">
      <!-- 1200 -->
      <g transform="translate(20.878125 34.20738) scale(0.1 -0.1)">
       <use xlink:href="#DejaVuSans-31"/>
       <use xlink:href="#DejaVuSans-32" transform="translate(63.623047 0)"/>
       <use xlink:href="#DejaVuSans-30" transform="translate(127.246094 0)"/>
       <use xlink:href="#DejaVuSans-30" transform="translate(190.869141 0)"/>
      </g>
     </g>
    </g>
    <g id="text_15">
     <!-- [counts] -->
     <g transform="translate(14.798438 152.791947) rotate(-90) scale(0.1 -0.1)">
      <defs>
       <path id="DejaVuSans-63" d="M 3122 3366 
L 3122 2828 
Q 2878 2963 2633 3030 
Q 2388 3097 2138 3097 
Q 1578 3097 1268 2742 
Q 959 2388 959 1747 
Q 959 1106 1268 751 
Q 1578 397 2138 397 
Q 2388 397 2633 464 
Q 2878 531 3122 666 
L 3122 134 
Q 2881 22 2623 -34 
Q 2366 -91 2075 -91 
Q 1284 -91 818 406 
Q 353 903 353 1747 
Q 353 2603 823 3093 
Q 1294 3584 2113 3584 
Q 2378 3584 2631 3529 
Q 2884 3475 3122 3366 
z
" transform="scale(0.015625)"/>
       <path id="DejaVuSans-6f" d="M 1959 3097 
Q 1497 3097 1228 2736 
Q 959 2375 959 1747 
Q 959 1119 1226 758 
Q 1494 397 1959 397 
Q 2419 397 2687 759 
Q 2956 1122 2956 1747 
Q 2956 2369 2687 2733 
Q 2419 3097 1959 3097 
z
M 1959 3584 
Q 2709 3584 3137 3096 
Q 3566 2609 3566 1747 
Q 3566 888 3137 398 
Q 2709 -91 1959 -91 
Q 1206 -91 779 398 
Q 353 888 353 1747 
Q 353 2609 779 3096 
Q 1206 3584 1959 3584 
z
" transform="scale(0.015625)"/>
       <path id="DejaVuSans-75" d="M 544 1381 
L 544 3500 
L 1119 3500 
L 1119 1403 
Q 1119 906 1312 657 
Q 1506 409 1894 409 
Q 2359 409 2629 706 
Q 2900 1003 2900 1516 
L 2900 3500 
L 3475 3500 
L 3475 0 
L 2900 0 
L 2900 538 
Q 2691 219 2414 64 
Q 2138 -91 1772 -91 
Q 1169 -91 856 284 
Q 544 659 544 1381 
z
M 1991 3584 
L 1991 3584 
z
" transform="scale(0.015625)"/>
       <path id="DejaVuSans-6e" d="M 3513 2113 
L 3513 0 
L 2938 0 
L 2938 2094 
Q 2938 2591 2744 2837 
Q 2550 3084 2163 3084 
Q 1697 3084 1428 2787 
Q 1159 2491 1159 1978 
L 1159 0 
L 581 0 
L 581 3500 
L 1159 3500 
L 1159 2956 
Q 1366 3272 1645 3428 
Q 1925 3584 2291 3584 
Q 2894 3584 3203 3211 
Q 3513 2838 3513 2113 
z
" transform="scale(0.015625)"/>
      </defs>
      <use xlink:href="#DejaVuSans-5b"/>
      <use xlink:href="#DejaVuSans-63" transform="translate(39.013672 0)"/>
      <use xlink:href="#DejaVuSans-6f" transform="translate(93.994141 0)"/>
      <use xlink:href="#DejaVuSans-75" transform="translate(155.175781 0)"/>
      <use xlink:href="#DejaVuSans-6e" transform="translate(218.554688 0)"/>
      <use xlink:href="#DejaVuSans-74" transform="translate(281.933594 0)"/>
      <use xlink:href="#DejaVuSans-73" transform="translate(321.142578 0)"/>
      <use xlink:href="#DejaVuSans-5d" transform="translate(373.242188 0)"/>
     </g>
    </g>
   </g>
   <g id="patch_3">
    <path d="M 53.328125 257.158895 
L 53.328125 7.2 
" style="fill: none; stroke: #000000; stroke-width: 0.8; stroke-linejoin: miter; stroke-linecap: square"/>
   </g>
   <g id="patch_4">
    <path d="M 431.87976 257.158895 
L 431.87976 7.2 
" style="fill: none; stroke: #000000; stroke-width: 0.8; stroke-linejoin: miter; stroke-linecap: square"/>
   </g>
   <g id="patch_5">
    <path d="M 53.328125 257.158895 
L 431.87976 257.158895 
" style="fill: none; stroke: #000000; stroke-width: 0.8; stroke-linejoin: miter; stroke-linecap: square"/>
   </g>
   <g id="patch_6">
    <path d="M 53.328125 7.2 
L 431.87976 7.2 
" style="fill: none; stroke: #000000; stroke-width: 0.8; stroke-linejoin: miter; stroke-linecap: square"/>
   </g>
   <g id="line2d_14">
    <path d="M 70.535017 235.38666 
L 71.682144 235.38666 
L 71.682144 227.489065 
L 72.82927 227.489065 
L 72.82927 224.07874 
L 73.976396 224.07874 
L 73.976396 214.027255 
L 75.123522 214.027255 
L 75.123522 202.719334 
L 76.270648 202.719334 
L 76.270648 192.84734 
L 77.417774 192.84734 
L 77.417774 189.078033 
L 78.564901 189.078033 
L 78.564901 175.795713 
L 79.712027 175.795713 
L 79.712027 171.487934 
L 80.859153 171.487934 
L 80.859153 164.487792 
L 82.006279 164.487792 
L 82.006279 156.949179 
L 84.300531 156.949179 
L 84.300531 147.615657 
L 85.447658 147.615657 
L 85.447658 138.282135 
L 86.594784 138.282135 
L 86.594784 144.025841 
L 87.74191 144.025841 
L 87.74191 129.487085 
L 88.889036 129.487085 
L 88.889036 113.512404 
L 90.036162 113.512404 
L 90.036162 113.691895 
L 91.183288 113.691895 
L 91.183288 108.30717 
L 92.330415 108.30717 
L 92.330415 112.435459 
L 93.477541 112.435459 
L 93.477541 107.409716 
L 94.624667 107.409716 
L 94.624667 100.948047 
L 95.771793 100.948047 
L 95.771793 100.768557 
L 96.918919 100.768557 
L 96.918919 98.435176 
L 98.066045 98.435176 
L 98.066045 91.973507 
L 99.213172 91.973507 
L 99.213172 89.101654 
L 100.360298 89.101654 
L 100.360298 88.742673 
L 101.507424 88.742673 
L 101.507424 75.280862 
L 102.65455 75.280862 
L 102.65455 76.716789 
L 103.801676 76.716789 
L 103.801676 81.922022 
L 104.948802 81.922022 
L 104.948802 78.511697 
L 106.095929 78.511697 
L 106.095929 87.845219 
L 107.243055 87.845219 
L 107.243055 72.767991 
L 108.390181 72.767991 
L 108.390181 72.947482 
L 109.537307 72.947482 
L 109.537307 67.203776 
L 110.684433 67.203776 
L 110.684433 72.767991 
L 111.831559 72.767991 
L 111.831559 68.280721 
L 112.978686 68.280721 
L 112.978686 66.485813 
L 114.125812 66.485813 
L 114.125812 74.921881 
L 115.272938 74.921881 
L 115.272938 64.152432 
L 116.420064 64.152432 
L 116.420064 63.075488 
L 117.56719 63.075488 
L 117.56719 63.793451 
L 118.714316 63.793451 
L 118.714316 68.280721 
L 119.861443 68.280721 
L 119.861443 54.100947 
L 121.008569 54.100947 
L 121.008569 57.152291 
L 122.155695 57.152291 
L 122.155695 68.280721 
L 123.302821 68.280721 
L 123.302821 57.331782 
L 124.449947 57.331782 
L 124.449947 45.126407 
L 125.597073 45.126407 
L 125.597073 59.306181 
L 126.7442 59.306181 
L 126.7442 40.459646 
L 127.891326 40.459646 
L 127.891326 58.408727 
L 129.038452 58.408727 
L 129.038452 54.63942 
L 130.185578 54.63942 
L 130.185578 55.177892 
L 131.332704 55.177892 
L 131.332704 50.33164 
L 132.47983 50.33164 
L 132.47983 52.306039 
L 133.626957 52.306039 
L 133.626957 50.511131 
L 134.774083 50.511131 
L 134.774083 41.536591 
L 135.921209 41.536591 
L 135.921209 55.357383 
L 137.068335 55.357383 
L 137.068335 49.972659 
L 138.215461 49.972659 
L 138.215461 35.074922 
L 139.362587 35.074922 
L 139.362587 41.895573 
L 140.509714 41.895573 
L 140.509714 44.408444 
L 141.65684 44.408444 
L 141.65684 63.434469 
L 142.803966 63.434469 
L 142.803966 40.100665 
L 143.951092 40.100665 
L 143.951092 42.793027 
L 145.098218 42.793027 
L 145.098218 47.280297 
L 146.245344 47.280297 
L 146.245344 32.38256 
L 147.392471 32.38256 
L 147.392471 37.946775 
L 148.539597 37.946775 
L 148.539597 36.151867 
L 149.686723 36.151867 
L 149.686723 42.075063 
L 150.833849 42.075063 
L 150.833849 37.049321 
L 151.980975 37.049321 
L 151.980975 54.998401 
L 153.128101 54.998401 
L 153.128101 37.767284 
L 154.275228 37.767284 
L 154.275228 30.408161 
L 155.422354 30.408161 
L 155.422354 38.664738 
L 156.56948 38.664738 
L 156.56948 42.793027 
L 157.716606 42.793027 
L 157.716606 54.100947 
L 158.863732 54.100947 
L 158.863732 38.485247 
L 160.010858 38.485247 
L 160.010858 32.921032 
L 161.157985 32.921032 
L 161.157985 48.177751 
L 162.305111 48.177751 
L 162.305111 43.51099 
L 163.452237 43.51099 
L 163.452237 43.690481 
L 164.599363 43.690481 
L 164.599363 46.023861 
L 165.746489 46.023861 
L 165.746489 51.408585 
L 166.893615 51.408585 
L 166.893615 26.818345 
L 168.040742 26.818345 
L 168.040742 37.049321 
L 169.187868 37.049321 
L 169.187868 45.485389 
L 170.334994 45.485389 
L 170.334994 52.665021 
L 171.48212 52.665021 
L 171.48212 33.280014 
L 172.629246 33.280014 
L 172.629246 33.818486 
L 173.776372 33.818486 
L 173.776372 48.536732 
L 174.923499 48.536732 
L 174.923499 31.664597 
L 176.070625 31.664597 
L 176.070625 49.075205 
L 177.217751 49.075205 
L 177.217751 42.793027 
L 178.364877 42.793027 
L 178.364877 38.485247 
L 179.512003 38.485247 
L 179.512003 39.921174 
L 180.659129 39.921174 
L 180.659129 43.152008 
L 181.806256 43.152008 
L 181.806256 45.84437 
L 182.953382 45.84437 
L 182.953382 28.792744 
L 184.100508 28.792744 
L 184.100508 40.998119 
L 185.247634 40.998119 
L 185.247634 33.997977 
L 186.39476 33.997977 
L 186.39476 32.203069 
L 187.541886 32.203069 
L 187.541886 36.510848 
L 188.689013 36.510848 
L 188.689013 39.382701 
L 189.836139 39.382701 
L 189.836139 43.331499 
L 190.983265 43.331499 
L 190.983265 52.126548 
L 192.130391 52.126548 
L 192.130391 36.690339 
L 193.277517 36.690339 
L 193.277517 35.792885 
L 194.424643 35.792885 
L 194.424643 44.408444 
L 195.57177 44.408444 
L 195.57177 46.741824 
L 196.718896 46.741824 
L 196.718896 33.459505 
L 197.866022 33.459505 
L 197.866022 48.716223 
L 199.013148 48.716223 
L 199.013148 32.741542 
L 200.160274 32.741542 
L 200.160274 32.921032 
L 201.3074 32.921032 
L 201.3074 43.690481 
L 202.454527 43.690481 
L 202.454527 33.100523 
L 203.601653 33.100523 
L 203.601653 40.459646 
L 204.748779 40.459646 
L 204.748779 29.510707 
L 205.895905 29.510707 
L 205.895905 27.177327 
L 207.043031 27.177327 
L 207.043031 39.562192 
L 208.190157 39.562192 
L 208.190157 35.074922 
L 209.337284 35.074922 
L 209.337284 45.66488 
L 210.48441 45.66488 
L 210.48441 39.562192 
L 211.631536 39.562192 
L 211.631536 36.510848 
L 212.778662 36.510848 
L 212.778662 35.972376 
L 213.925788 35.972376 
L 213.925788 24.843946 
L 215.072914 24.843946 
L 215.072914 40.639137 
L 216.220041 40.639137 
L 216.220041 38.305757 
L 217.367167 38.305757 
L 217.367167 37.049321 
L 218.514293 37.049321 
L 218.514293 30.049179 
L 219.661419 30.049179 
L 219.661419 34.71594 
L 220.808545 34.71594 
L 220.808545 35.254413 
L 221.955671 35.254413 
L 221.955671 37.408302 
L 223.102798 37.408302 
L 223.102798 33.818486 
L 224.249924 33.818486 
L 224.249924 37.767284 
L 225.39705 37.767284 
L 225.39705 44.228953 
L 226.544176 44.228953 
L 226.544176 37.587793 
L 227.691302 37.587793 
L 227.691302 23.228529 
L 228.838428 23.228529 
L 228.838428 42.972517 
L 229.985555 42.972517 
L 229.985555 39.562192 
L 231.132681 39.562192 
L 231.132681 40.818628 
L 232.279807 40.818628 
L 232.279807 31.485106 
L 233.426933 31.485106 
L 233.426933 36.690339 
L 234.574059 36.690339 
L 234.574059 41.536591 
L 235.721185 41.536591 
L 235.721185 33.280014 
L 236.868312 33.280014 
L 236.868312 35.972376 
L 238.015438 35.972376 
L 238.015438 41.895573 
L 239.162564 41.895573 
L 239.162564 42.254554 
L 240.30969 42.254554 
L 240.30969 40.100665 
L 241.456816 40.100665 
L 241.456816 44.228953 
L 242.603942 44.228953 
L 242.603942 37.946775 
L 243.751069 37.946775 
L 243.751069 41.177609 
L 244.898195 41.177609 
L 244.898195 39.02372 
L 246.045321 39.02372 
L 246.045321 36.331358 
L 247.192447 36.331358 
L 247.192447 36.510848 
L 248.339573 36.510848 
L 248.339573 32.38256 
L 249.486699 32.38256 
L 249.486699 35.254413 
L 250.633826 35.254413 
L 250.633826 44.587935 
L 251.780952 44.587935 
L 251.780952 40.280155 
L 252.928078 40.280155 
L 252.928078 51.588076 
L 254.075204 51.588076 
L 254.075204 44.767425 
L 255.22233 44.767425 
L 255.22233 45.84437 
L 256.369456 45.84437 
L 256.369456 33.638996 
L 257.516583 33.638996 
L 257.516583 35.792885 
L 258.663709 35.792885 
L 258.663709 52.306039 
L 259.810835 52.306039 
L 259.810835 18.561768 
L 260.957961 18.561768 
L 260.957961 32.741542 
L 262.105087 32.741542 
L 262.105087 50.15215 
L 263.252213 50.15215 
L 263.252213 40.639137 
L 264.39934 40.639137 
L 264.39934 38.126266 
L 265.546466 38.126266 
L 265.546466 26.997836 
L 266.693592 26.997836 
L 266.693592 42.075063 
L 267.840718 42.075063 
L 267.840718 48.716223 
L 268.987844 48.716223 
L 268.987844 52.665021 
L 270.13497 52.665021 
L 270.13497 49.434186 
L 271.282097 49.434186 
L 271.282097 59.306181 
L 272.429223 59.306181 
L 272.429223 56.075346 
L 273.576349 56.075346 
L 273.576349 81.38355 
L 274.723475 81.38355 
L 274.723475 84.075912 
L 275.870601 84.075912 
L 275.870601 90.537581 
L 277.017727 90.537581 
L 277.017727 109.204624 
L 278.164854 109.204624 
L 278.164854 117.461201 
L 279.31198 117.461201 
L 279.31198 120.333054 
L 280.459106 120.333054 
L 280.459106 123.384398 
L 281.606232 123.384398 
L 281.606232 132.538429 
L 282.753358 132.538429 
L 282.753358 144.025841 
L 283.900484 144.025841 
L 283.900484 138.461626 
L 285.047611 138.461626 
L 285.047611 156.231215 
L 286.194737 156.231215 
L 286.194737 156.410706 
L 287.341863 156.410706 
L 287.341863 160.897976 
L 288.488989 160.897976 
L 288.488989 164.846774 
L 289.636115 164.846774 
L 289.636115 166.821173 
L 290.783241 166.821173 
L 290.783241 166.2827 
L 291.930368 166.2827 
L 291.930368 179.744511 
L 293.077494 179.744511 
L 293.077494 182.436873 
L 294.22462 182.436873 
L 294.22462 188.53956 
L 295.371746 188.53956 
L 295.371746 185.488217 
L 296.518872 185.488217 
L 296.518872 194.283266 
L 297.665998 194.283266 
L 297.665998 196.078174 
L 298.813125 196.078174 
L 298.813125 197.873082 
L 299.960251 197.873082 
L 299.960251 200.026972 
L 301.107377 200.026972 
L 301.107377 202.898825 
L 302.254503 202.898825 
L 302.254503 205.950168 
L 303.401629 205.950168 
L 303.401629 210.257948 
L 304.548755 210.257948 
L 304.548755 207.924567 
L 305.695882 207.924567 
L 305.695882 211.873365 
L 306.843008 211.873365 
L 306.843008 213.309291 
L 307.990134 213.309291 
L 307.990134 213.668273 
L 309.13726 213.668273 
L 309.13726 214.386236 
L 310.284386 214.386236 
L 310.284386 219.232488 
L 311.431512 219.232488 
L 311.431512 218.514525 
L 312.578639 218.514525 
L 312.578639 219.411979 
L 314.872891 219.411979 
L 314.872891 222.463322 
L 316.020017 222.463322 
L 316.020017 224.617212 
L 317.167143 224.617212 
L 317.167143 220.668414 
L 318.314269 220.668414 
L 318.314269 226.771102 
L 319.461396 226.771102 
L 319.461396 226.950593 
L 320.608522 226.950593 
L 320.608522 228.207028 
L 321.755648 228.207028 
L 321.755648 224.617212 
L 322.902774 224.617212 
L 322.902774 228.745501 
L 324.0499 228.745501 
L 324.0499 233.232771 
L 325.197026 233.232771 
L 325.197026 232.155826 
L 326.344153 232.155826 
L 326.344153 228.027537 
L 327.491279 228.027537 
L 327.491279 233.591752 
L 328.638405 233.591752 
L 328.638405 233.05328 
L 329.785531 233.05328 
L 329.785531 233.412262 
L 330.932657 233.412262 
L 330.932657 234.848188 
L 332.079783 234.848188 
L 332.079783 235.745642 
L 333.22691 235.745642 
L 333.22691 237.361059 
L 334.374036 237.361059 
L 334.374036 236.822587 
L 335.521162 236.822587 
L 335.521162 238.976476 
L 336.668288 238.976476 
L 336.668288 238.438004 
L 337.815414 238.438004 
L 337.815414 238.796986 
L 338.96254 238.796986 
L 338.96254 236.104624 
L 340.109667 236.104624 
L 340.109667 239.69444 
L 341.256793 239.69444 
L 341.256793 238.617495 
L 342.403919 238.617495 
L 342.403919 240.412403 
L 343.551045 240.412403 
L 343.551045 239.69444 
L 344.698171 239.69444 
L 344.698171 238.617495 
L 345.845297 238.617495 
L 345.845297 241.489348 
L 346.992424 241.489348 
L 346.992424 242.207311 
L 348.13955 242.207311 
L 348.13955 241.489348 
L 349.286676 241.489348 
L 349.286676 241.309857 
L 352.728054 241.309857 
L 352.728054 241.130366 
L 353.875181 241.130366 
L 353.875181 242.02782 
L 355.022307 242.02782 
L 355.022307 242.386802 
L 356.169433 242.386802 
L 356.169433 243.643237 
L 357.316559 243.643237 
L 357.316559 243.284256 
L 358.463685 243.284256 
L 358.463685 242.566293 
L 359.610811 242.566293 
L 359.610811 243.104765 
L 360.757938 243.104765 
L 360.757938 243.284256 
L 361.905064 243.284256 
L 361.905064 241.848329 
L 363.05219 241.848329 
L 363.05219 243.284256 
L 364.199316 243.284256 
L 364.199316 244.18171 
L 365.346442 244.18171 
L 365.346442 243.463747 
L 367.640695 243.463747 
L 367.640695 243.643237 
L 368.787821 243.643237 
L 368.787821 243.284256 
L 369.934947 243.284256 
L 369.934947 244.899673 
L 371.082073 244.899673 
L 371.082073 243.822728 
L 372.229199 243.822728 
L 372.229199 244.899673 
L 373.376325 244.899673 
L 373.376325 244.18171 
L 374.523452 244.18171 
L 374.523452 244.899673 
L 375.670578 244.899673 
L 375.670578 244.540691 
L 376.817704 244.540691 
L 376.817704 245.438145 
L 377.96483 245.438145 
L 377.96483 244.540691 
L 380.259082 244.540691 
L 380.259082 244.18171 
L 381.406209 244.18171 
L 381.406209 244.361201 
L 382.553335 244.361201 
L 382.553335 244.720182 
L 383.700461 244.720182 
L 383.700461 245.617636 
L 384.847587 245.617636 
L 384.847587 244.720182 
L 385.994713 244.720182 
L 385.994713 245.079164 
L 388.288966 245.079164 
L 388.288966 244.720182 
L 389.436092 244.720182 
L 389.436092 244.899673 
L 390.583218 244.899673 
L 390.583218 245.797127 
L 391.730344 245.797127 
L 391.730344 244.720182 
L 392.87747 244.720182 
L 392.87747 245.258655 
L 396.318849 245.258655 
L 396.318849 244.899673 
L 397.465975 244.899673 
L 397.465975 245.438145 
L 398.613101 245.438145 
L 398.613101 245.079164 
L 399.760227 245.079164 
L 399.760227 245.617636 
L 400.907353 245.617636 
L 400.907353 245.258655 
L 402.05448 245.258655 
L 402.05448 245.079164 
L 404.348732 245.079164 
L 404.348732 245.617636 
L 406.642984 245.617636 
L 406.642984 245.438145 
L 407.79011 245.438145 
L 407.79011 245.797127 
L 408.937237 245.797127 
L 408.937237 245.079164 
L 410.084363 245.079164 
L 410.084363 245.617636 
L 411.231489 245.617636 
L 411.231489 244.720182 
L 412.378615 244.720182 
L 412.378615 244.899673 
L 414.672867 244.899673 
L 414.672867 244.899673 
" clip-path="url(#pf31736ba47)" style="fill: none; stroke: #1f77b4; stroke-width: 1.5; stroke-linecap: square"/>
   </g>
  </g>
  <g id="axes_2">
   <g id="patch_7">
    <path d="M 486.647885 257.158895 
L 865.19952 257.158895 
L 865.19952 7.2 
L 486.647885 7.2 
z
" style="fill: #ffffff"/>
   </g>
   <g id="matplotlib.axis_3">
    <g id="xtick_7">
     <g id="line2d_15">
      <g>
       <use xlink:href="#m5ff90a843d" x="500.361519" y="257.158895" style="stroke: #000000; stroke-width: 0.8"/>
      </g>
     </g>
     <g id="text_16">
      <!-- 0.0 -->
      <g transform="translate(492.409957 271.757332) scale(0.1 -0.1)">
       <defs>
        <path id="DejaVuSans-2e" d="M 684 794 
L 1344 794 
L 1344 0 
L 684 0 
L 684 794 
z
" transform="scale(0.015625)"/>
       </defs>
       <use xlink:href="#DejaVuSans-30"/>
       <use xlink:href="#DejaVuSans-2e" transform="translate(63.623047 0)"/>
       <use xlink:href="#DejaVuSans-30" transform="translate(95.410156 0)"/>
      </g>
     </g>
    </g>
    <g id="xtick_8">
     <g id="line2d_16">
      <g>
       <use xlink:href="#m5ff90a843d" x="544.332989" y="257.158895" style="stroke: #000000; stroke-width: 0.8"/>
      </g>
     </g>
     <g id="text_17">
      <!-- 2.5 -->
      <g transform="translate(536.381426 271.757332) scale(0.1 -0.1)">
       <use xlink:href="#DejaVuSans-32"/>
       <use xlink:href="#DejaVuSans-2e" transform="translate(63.623047 0)"/>
       <use xlink:href="#DejaVuSans-35" transform="translate(95.410156 0)"/>
      </g>
     </g>
    </g>
    <g id="xtick_9">
     <g id="line2d_17">
      <g>
       <use xlink:href="#m5ff90a843d" x="588.304458" y="257.158895" style="stroke: #000000; stroke-width: 0.8"/>
      </g>
     </g>
     <g id="text_18">
      <!-- 5.0 -->
      <g transform="translate(580.352895 271.757332) scale(0.1 -0.1)">
       <use xlink:href="#DejaVuSans-35"/>
       <use xlink:href="#DejaVuSans-2e" transform="translate(63.623047 0)"/>
       <use xlink:href="#DejaVuSans-30" transform="translate(95.410156 0)"/>
      </g>
     </g>
    </g>
    <g id="xtick_10">
     <g id="line2d_18">
      <g>
       <use xlink:href="#m5ff90a843d" x="632.275927" y="257.158895" style="stroke: #000000; stroke-width: 0.8"/>
      </g>
     </g>
     <g id="text_19">
      <!-- 7.5 -->
      <g transform="translate(624.324365 271.757332) scale(0.1 -0.1)">
       <defs>
        <path id="DejaVuSans-37" d="M 525 4666 
L 3525 4666 
L 3525 4397 
L 1831 0 
L 1172 0 
L 2766 4134 
L 525 4134 
L 525 4666 
z
" transform="scale(0.015625)"/>
       </defs>
       <use xlink:href="#DejaVuSans-37"/>
       <use xlink:href="#DejaVuSans-2e" transform="translate(63.623047 0)"/>
       <use xlink:href="#DejaVuSans-35" transform="translate(95.410156 0)"/>
      </g>
     </g>
    </g>
    <g id="xtick_11">
     <g id="line2d_19">
      <g>
       <use xlink:href="#m5ff90a843d" x="676.247396" y="257.158895" style="stroke: #000000; stroke-width: 0.8"/>
      </g>
     </g>
     <g id="text_20">
      <!-- 10.0 -->
      <g transform="translate(665.114584 271.757332) scale(0.1 -0.1)">
       <use xlink:href="#DejaVuSans-31"/>
       <use xlink:href="#DejaVuSans-30" transform="translate(63.623047 0)"/>
       <use xlink:href="#DejaVuSans-2e" transform="translate(127.246094 0)"/>
       <use xlink:href="#DejaVuSans-30" transform="translate(159.033203 0)"/>
      </g>
     </g>
    </g>
    <g id="xtick_12">
     <g id="line2d_20">
      <g>
       <use xlink:href="#m5ff90a843d" x="720.218866" y="257.158895" style="stroke: #000000; stroke-width: 0.8"/>
      </g>
     </g>
     <g id="text_21">
      <!-- 12.5 -->
      <g transform="translate(709.086053 271.757332) scale(0.1 -0.1)">
       <use xlink:href="#DejaVuSans-31"/>
       <use xlink:href="#DejaVuSans-32" transform="translate(63.623047 0)"/>
       <use xlink:href="#DejaVuSans-2e" transform="translate(127.246094 0)"/>
       <use xlink:href="#DejaVuSans-35" transform="translate(159.033203 0)"/>
      </g>
     </g>
    </g>
    <g id="xtick_13">
     <g id="line2d_21">
      <g>
       <use xlink:href="#m5ff90a843d" x="764.190335" y="257.158895" style="stroke: #000000; stroke-width: 0.8"/>
      </g>
     </g>
     <g id="text_22">
      <!-- 15.0 -->
      <g transform="translate(753.057522 271.757332) scale(0.1 -0.1)">
       <use xlink:href="#DejaVuSans-31"/>
       <use xlink:href="#DejaVuSans-35" transform="translate(63.623047 0)"/>
       <use xlink:href="#DejaVuSans-2e" transform="translate(127.246094 0)"/>
       <use xlink:href="#DejaVuSans-30" transform="translate(159.033203 0)"/>
      </g>
     </g>
    </g>
    <g id="xtick_14">
     <g id="line2d_22">
      <g>
       <use xlink:href="#m5ff90a843d" x="808.161804" y="257.158895" style="stroke: #000000; stroke-width: 0.8"/>
      </g>
     </g>
     <g id="text_23">
      <!-- 17.5 -->
      <g transform="translate(797.028992 271.757332) scale(0.1 -0.1)">
       <use xlink:href="#DejaVuSans-31"/>
       <use xlink:href="#DejaVuSans-37" transform="translate(63.623047 0)"/>
       <use xlink:href="#DejaVuSans-2e" transform="translate(127.246094 0)"/>
       <use xlink:href="#DejaVuSans-35" transform="translate(159.033203 0)"/>
      </g>
     </g>
    </g>
    <g id="xtick_15">
     <g id="line2d_23">
      <g>
       <use xlink:href="#m5ff90a843d" x="852.133273" y="257.158895" style="stroke: #000000; stroke-width: 0.8"/>
      </g>
     </g>
     <g id="text_24">
      <!-- 20.0 -->
      <g transform="translate(841.000461 271.757332) scale(0.1 -0.1)">
       <use xlink:href="#DejaVuSans-32"/>
       <use xlink:href="#DejaVuSans-30" transform="translate(63.623047 0)"/>
       <use xlink:href="#DejaVuSans-2e" transform="translate(127.246094 0)"/>
       <use xlink:href="#DejaVuSans-30" transform="translate(159.033203 0)"/>
      </g>
     </g>
    </g>
    <g id="text_25">
     <!-- wavelength [Å] -->
     <g transform="translate(637.886202 287.119832) scale(0.1 -0.1)">
      <defs>
       <path id="DejaVuSans-77" d="M 269 3500 
L 844 3500 
L 1563 769 
L 2278 3500 
L 2956 3500 
L 3675 769 
L 4391 3500 
L 4966 3500 
L 4050 0 
L 3372 0 
L 2619 2869 
L 1863 0 
L 1184 0 
L 269 3500 
z
" transform="scale(0.015625)"/>
       <path id="DejaVuSans-61" d="M 2194 1759 
Q 1497 1759 1228 1600 
Q 959 1441 959 1056 
Q 959 750 1161 570 
Q 1363 391 1709 391 
Q 2188 391 2477 730 
Q 2766 1069 2766 1631 
L 2766 1759 
L 2194 1759 
z
M 3341 1997 
L 3341 0 
L 2766 0 
L 2766 531 
Q 2569 213 2275 61 
Q 1981 -91 1556 -91 
Q 1019 -91 701 211 
Q 384 513 384 1019 
Q 384 1609 779 1909 
Q 1175 2209 1959 2209 
L 2766 2209 
L 2766 2266 
Q 2766 2663 2505 2880 
Q 2244 3097 1772 3097 
Q 1472 3097 1187 3025 
Q 903 2953 641 2809 
L 641 3341 
Q 956 3463 1253 3523 
Q 1550 3584 1831 3584 
Q 2591 3584 2966 3190 
Q 3341 2797 3341 1997 
z
" transform="scale(0.015625)"/>
       <path id="DejaVuSans-76" d="M 191 3500 
L 800 3500 
L 1894 563 
L 2988 3500 
L 3597 3500 
L 2284 0 
L 1503 0 
L 191 3500 
z
" transform="scale(0.015625)"/>
       <path id="DejaVuSans-6c" d="M 603 4863 
L 1178 4863 
L 1178 0 
L 603 0 
L 603 4863 
z
" transform="scale(0.015625)"/>
       <path id="DejaVuSans-67" d="M 2906 1791 
Q 2906 2416 2648 2759 
Q 2391 3103 1925 3103 
Q 1463 3103 1205 2759 
Q 947 2416 947 1791 
Q 947 1169 1205 825 
Q 1463 481 1925 481 
Q 2391 481 2648 825 
Q 2906 1169 2906 1791 
z
M 3481 434 
Q 3481 -459 3084 -895 
Q 2688 -1331 1869 -1331 
Q 1566 -1331 1297 -1286 
Q 1028 -1241 775 -1147 
L 775 -588 
Q 1028 -725 1275 -790 
Q 1522 -856 1778 -856 
Q 2344 -856 2625 -561 
Q 2906 -266 2906 331 
L 2906 616 
Q 2728 306 2450 153 
Q 2172 0 1784 0 
Q 1141 0 747 490 
Q 353 981 353 1791 
Q 353 2603 747 3093 
Q 1141 3584 1784 3584 
Q 2172 3584 2450 3431 
Q 2728 3278 2906 2969 
L 2906 3500 
L 3481 3500 
L 3481 434 
z
" transform="scale(0.015625)"/>
       <path id="DejaVuSans-68" d="M 3513 2113 
L 3513 0 
L 2938 0 
L 2938 2094 
Q 2938 2591 2744 2837 
Q 2550 3084 2163 3084 
Q 1697 3084 1428 2787 
Q 1159 2491 1159 1978 
L 1159 0 
L 581 0 
L 581 4863 
L 1159 4863 
L 1159 2956 
Q 1366 3272 1645 3428 
Q 1925 3584 2291 3584 
Q 2894 3584 3203 3211 
Q 3513 2838 3513 2113 
z
" transform="scale(0.015625)"/>
       <path id="DejaVuSans-c5" d="M 2663 5081 
Q 2663 5278 2523 5417 
Q 2384 5556 2188 5556 
Q 1988 5556 1852 5420 
Q 1716 5284 1716 5081 
Q 1716 4884 1853 4746 
Q 1991 4609 2188 4609 
Q 2384 4609 2523 4746 
Q 2663 4884 2663 5081 
z
M 2188 4044 
L 1338 1722 
L 3041 1722 
L 2188 4044 
z
M 1716 4366 
Q 1525 4494 1428 4673 
Q 1331 4853 1331 5081 
Q 1331 5441 1579 5691 
Q 1828 5941 2188 5941 
Q 2544 5941 2795 5689 
Q 3047 5438 3047 5081 
Q 3047 4863 2948 4678 
Q 2850 4494 2663 4366 
L 4325 0 
L 3669 0 
L 3244 1197 
L 1141 1197 
L 716 0 
L 50 0 
L 1716 4366 
z
" transform="scale(0.015625)"/>
      </defs>
      <use xlink:href="#DejaVuSans-77"/>
      <use xlink:href="#DejaVuSans-61" transform="translate(81.787109 0)"/>
      <use xlink:href="#DejaVuSans-76" transform="translate(143.066406 0)"/>
      <use xlink:href="#DejaVuSans-65" transform="translate(202.246094 0)"/>
      <use xlink:href="#DejaVuSans-6c" transform="translate(263.769531 0)"/>
      <use xlink:href="#DejaVuSans-65" transform="translate(291.552734 0)"/>
      <use xlink:href="#DejaVuSans-6e" transform="translate(353.076172 0)"/>
      <use xlink:href="#DejaVuSans-67" transform="translate(416.455078 0)"/>
      <use xlink:href="#DejaVuSans-74" transform="translate(479.931641 0)"/>
      <use xlink:href="#DejaVuSans-68" transform="translate(519.140625 0)"/>
      <use xlink:href="#DejaVuSans-20" transform="translate(582.519531 0)"/>
      <use xlink:href="#DejaVuSans-5b" transform="translate(614.306641 0)"/>
      <use xlink:href="#DejaVuSans-c5" transform="translate(653.320312 0)"/>
      <use xlink:href="#DejaVuSans-5d" transform="translate(721.728516 0)"/>
     </g>
    </g>
   </g>
   <g id="matplotlib.axis_4">
    <g id="ytick_8">
     <g id="line2d_24">
      <g>
       <use xlink:href="#mdeecd6cd5a" x="486.647885" y="245.797127" style="stroke: #000000; stroke-width: 0.8"/>
      </g>
     </g>
     <g id="text_26">
      <!-- 0 -->
      <g transform="translate(473.285385 249.596346) scale(0.1 -0.1)">
       <use xlink:href="#DejaVuSans-30"/>
      </g>
     </g>
    </g>
    <g id="ytick_9">
     <g id="line2d_25">
      <g>
       <use xlink:href="#mdeecd6cd5a" x="486.647885" y="193.964244" style="stroke: #000000; stroke-width: 0.8"/>
      </g>
     </g>
     <g id="text_27">
      <!-- 1000 -->
      <g transform="translate(454.197885 197.763463) scale(0.1 -0.1)">
       <use xlink:href="#DejaVuSans-31"/>
       <use xlink:href="#DejaVuSans-30" transform="translate(63.623047 0)"/>
       <use xlink:href="#DejaVuSans-30" transform="translate(127.246094 0)"/>
       <use xlink:href="#DejaVuSans-30" transform="translate(190.869141 0)"/>
      </g>
     </g>
    </g>
    <g id="ytick_10">
     <g id="line2d_26">
      <g>
       <use xlink:href="#mdeecd6cd5a" x="486.647885" y="142.131361" style="stroke: #000000; stroke-width: 0.8"/>
      </g>
     </g>
     <g id="text_28">
      <!-- 2000 -->
      <g transform="translate(454.197885 145.93058) scale(0.1 -0.1)">
       <use xlink:href="#DejaVuSans-32"/>
       <use xlink:href="#DejaVuSans-30" transform="translate(63.623047 0)"/>
       <use xlink:href="#DejaVuSans-30" transform="translate(127.246094 0)"/>
       <use xlink:href="#DejaVuSans-30" transform="translate(190.869141 0)"/>
      </g>
     </g>
    </g>
    <g id="ytick_11">
     <g id="line2d_27">
      <g>
       <use xlink:href="#mdeecd6cd5a" x="486.647885" y="90.298478" style="stroke: #000000; stroke-width: 0.8"/>
      </g>
     </g>
     <g id="text_29">
      <!-- 3000 -->
      <g transform="translate(454.197885 94.097697) scale(0.1 -0.1)">
       <use xlink:href="#DejaVuSans-33"/>
       <use xlink:href="#DejaVuSans-30" transform="translate(63.623047 0)"/>
       <use xlink:href="#DejaVuSans-30" transform="translate(127.246094 0)"/>
       <use xlink:href="#DejaVuSans-30" transform="translate(190.869141 0)"/>
      </g>
     </g>
    </g>
    <g id="ytick_12">
     <g id="line2d_28">
      <g>
       <use xlink:href="#mdeecd6cd5a" x="486.647885" y="38.465595" style="stroke: #000000; stroke-width: 0.8"/>
      </g>
     </g>
     <g id="text_30">
      <!-- 4000 -->
      <g transform="translate(454.197885 42.264814) scale(0.1 -0.1)">
       <use xlink:href="#DejaVuSans-34"/>
       <use xlink:href="#DejaVuSans-30" transform="translate(63.623047 0)"/>
       <use xlink:href="#DejaVuSans-30" transform="translate(127.246094 0)"/>
       <use xlink:href="#DejaVuSans-30" transform="translate(190.869141 0)"/>
      </g>
     </g>
    </g>
    <g id="text_31">
     <!-- [counts] -->
     <g transform="translate(448.118197 152.791947) rotate(-90) scale(0.1 -0.1)">
      <use xlink:href="#DejaVuSans-5b"/>
      <use xlink:href="#DejaVuSans-63" transform="translate(39.013672 0)"/>
      <use xlink:href="#DejaVuSans-6f" transform="translate(93.994141 0)"/>
      <use xlink:href="#DejaVuSans-75" transform="translate(155.175781 0)"/>
      <use xlink:href="#DejaVuSans-6e" transform="translate(218.554688 0)"/>
      <use xlink:href="#DejaVuSans-74" transform="translate(281.933594 0)"/>
      <use xlink:href="#DejaVuSans-73" transform="translate(321.142578 0)"/>
      <use xlink:href="#DejaVuSans-5d" transform="translate(373.242188 0)"/>
     </g>
    </g>
   </g>
   <g id="patch_8">
    <path d="M 486.647885 257.158895 
L 486.647885 7.2 
" style="fill: none; stroke: #000000; stroke-width: 0.8; stroke-linejoin: miter; stroke-linecap: square"/>
   </g>
   <g id="patch_9">
    <path d="M 865.19952 257.158895 
L 865.19952 7.2 
" style="fill: none; stroke: #000000; stroke-width: 0.8; stroke-linejoin: miter; stroke-linecap: square"/>
   </g>
   <g id="patch_10">
    <path d="M 486.647885 257.158895 
L 865.19952 257.158895 
" style="fill: none; stroke: #000000; stroke-width: 0.8; stroke-linejoin: miter; stroke-linecap: square"/>
   </g>
   <g id="patch_11">
    <path d="M 486.647885 7.2 
L 865.19952 7.2 
" style="fill: none; stroke: #000000; stroke-width: 0.8; stroke-linejoin: miter; stroke-linecap: square"/>
   </g>
   <g id="line2d_29">
    <path d="M 503.854777 157.370229 
L 505.001904 157.370229 
L 505.001904 150.73562 
L 506.14903 150.73562 
L 506.14903 142.701523 
L 507.296156 142.701523 
L 507.296156 138.658558 
L 508.443282 138.658558 
L 508.443282 150.165458 
L 509.590408 150.165458 
L 509.590408 152.238773 
L 511.884661 152.135107 
L 511.884661 132.853275 
L 513.031787 132.853275 
L 513.031787 113.934273 
L 514.178913 113.934273 
L 514.178913 85.996349 
L 515.326039 85.996349 
L 515.326039 62.671551 
L 516.473165 62.671551 
L 516.473165 47.018021 
L 517.620291 47.018021 
L 517.620291 31.986485 
L 518.767418 31.986485 
L 518.767418 22.656566 
L 519.914544 22.656566 
L 519.914544 18.561768 
L 521.06167 18.561768 
L 521.06167 28.824679 
L 522.208796 28.824679 
L 522.208796 37.739935 
L 523.355922 37.739935 
L 523.355922 40.279746 
L 524.503048 40.279746 
L 524.503048 55.207616 
L 525.650175 55.207616 
L 525.650175 64.174705 
L 526.797301 64.174705 
L 526.797301 72.727131 
L 527.944427 72.727131 
L 527.944427 79.880069 
L 529.091553 79.880069 
L 529.091553 89.313653 
L 531.385805 89.26182 
L 531.385805 95.896429 
L 532.532932 95.896429 
L 532.532932 100.04306 
L 533.680058 100.04306 
L 533.680058 105.07085 
L 534.827184 105.07085 
L 534.827184 98.591739 
L 535.97431 98.591739 
L 535.97431 95.222602 
L 537.121436 95.222602 
L 537.121436 92.31996 
L 538.268562 92.31996 
L 538.268562 89.469152 
L 539.415689 89.469152 
L 539.415689 73.297292 
L 540.562815 73.297292 
L 540.562815 69.409826 
L 541.709941 69.409826 
L 541.709941 58.421255 
L 542.857067 58.421255 
L 542.857067 49.039503 
L 544.004193 49.039503 
L 544.004193 37.48077 
L 545.151319 37.48077 
L 545.151319 30.068668 
L 546.298446 30.068668 
L 546.298446 42.14573 
L 547.445572 42.14573 
L 547.445572 49.195002 
L 548.592698 49.195002 
L 548.592698 64.744867 
L 549.739824 64.744867 
L 549.739824 75.577939 
L 550.88695 75.577939 
L 550.88695 84.907858 
L 552.034076 84.907858 
L 552.034076 86.981174 
L 553.181203 86.981174 
L 553.181203 97.606915 
L 554.328329 97.606915 
L 554.328329 104.915351 
L 555.475455 104.915351 
L 555.475455 112.793949 
L 556.622581 112.793949 
L 556.622581 119.169394 
L 557.769707 119.169394 
L 557.769707 126.736995 
L 558.916833 126.736995 
L 558.916833 129.691469 
L 560.06396 129.691469 
L 560.06396 136.015081 
L 561.211086 136.015081 
L 561.211086 144.463841 
L 562.358212 144.463841 
L 562.358212 149.647129 
L 563.505338 149.647129 
L 563.505338 155.037749 
L 564.652464 155.037749 
L 564.652464 156.748234 
L 565.79959 156.748234 
L 565.79959 162.138854 
L 566.946717 162.138854 
L 566.946717 163.123679 
L 568.093843 163.123679 
L 568.093843 167.581307 
L 569.240969 167.581307 
L 569.240969 171.572439 
L 570.388095 171.572439 
L 570.388095 176.392897 
L 571.535221 176.392897 
L 571.535221 177.792385 
L 572.682347 177.792385 
L 572.682347 178.518045 
L 573.829474 178.518045 
L 573.829474 185.930147 
L 574.9766 185.930147 
L 574.9766 186.863139 
L 576.123726 186.863139 
L 576.123726 189.195619 
L 577.270852 189.195619 
L 577.270852 195.104567 
L 578.417978 195.104567 
L 578.417978 195.726562 
L 579.565104 195.726562 
L 579.565104 199.147532 
L 580.712231 199.147532 
L 580.712231 200.028691 
L 581.859357 200.028691 
L 581.859357 203.96799 
L 583.006483 203.96799 
L 583.006483 204.538152 
L 584.153609 204.538152 
L 584.153609 209.514109 
L 585.300735 209.514109 
L 585.300735 206.352303 
L 586.447861 206.352303 
L 586.447861 208.840281 
L 587.594988 208.840281 
L 587.594988 210.913597 
L 588.742114 210.913597 
L 588.742114 213.66074 
L 589.88924 213.66074 
L 589.88924 214.801063 
L 591.036366 214.801063 
L 591.036366 215.785888 
L 592.183492 215.785888 
L 592.183492 217.548206 
L 593.330618 217.548206 
L 593.330618 218.014702 
L 594.477745 218.014702 
L 594.477745 218.377532 
L 595.624871 218.377532 
L 595.624871 221.798502 
L 596.771997 221.798502 
L 596.771997 222.213165 
L 597.919123 222.213165 
L 597.919123 221.487505 
L 599.066249 221.487505 
L 599.066249 225.219472 
L 600.213375 225.219472 
L 600.213375 222.783327 
L 601.360502 222.783327 
L 601.360502 224.597478 
L 602.507628 224.597478 
L 602.507628 226.981791 
L 603.654754 226.981791 
L 603.654754 226.61896 
L 604.80188 226.61896 
L 604.80188 226.411629 
L 605.949006 226.411629 
L 605.949006 228.22578 
L 607.096132 228.22578 
L 607.096132 228.433111 
L 608.243259 228.433111 
L 608.243259 230.610092 
L 609.390385 230.610092 
L 609.390385 230.765591 
L 610.537511 230.765591 
L 610.537511 230.039931 
L 611.684637 230.039931 
L 611.684637 230.713758 
L 612.831763 230.713758 
L 612.831763 232.37241 
L 613.978889 232.37241 
L 613.978889 231.802249 
L 615.126016 231.802249 
L 615.126016 232.994405 
L 616.273142 232.994405 
L 616.273142 232.216912 
L 617.420268 232.216912 
L 617.420268 234.134728 
L 618.567394 234.134728 
L 618.567394 235.275052 
L 619.71452 235.275052 
L 619.71452 233.357235 
L 620.861647 233.357235 
L 620.861647 234.601224 
L 622.008773 234.601224 
L 622.008773 236.467208 
L 623.155899 236.467208 
L 623.155899 236.259877 
L 624.303025 236.259877 
L 624.303025 236.67454 
L 626.597277 236.726373 
L 626.597277 235.741548 
L 627.744403 235.741548 
L 627.744403 236.933704 
L 628.89153 236.933704 
L 628.89153 236.208044 
L 630.038656 236.208044 
L 630.038656 239.214351 
L 631.185782 239.214351 
L 631.185782 237.244701 
L 632.332908 237.244701 
L 632.332908 237.555699 
L 633.480034 237.555699 
L 633.480034 239.318017 
L 634.62716 239.318017 
L 634.62716 238.281359 
L 635.774287 238.281359 
L 635.774287 238.799688 
L 636.921413 238.799688 
L 636.921413 238.955186 
L 638.068539 238.955186 
L 638.068539 239.784513 
L 639.215665 239.784513 
L 639.215665 240.45834 
L 640.362791 240.45834 
L 640.362791 239.940011 
L 641.509917 239.940011 
L 641.509917 238.644189 
L 642.657044 238.644189 
L 642.657044 240.354674 
L 643.80417 240.354674 
L 643.80417 241.650496 
L 644.951296 241.650496 
L 644.951296 239.577181 
L 646.098422 239.577181 
L 646.098422 241.339499 
L 648.392674 241.235833 
L 648.392674 241.184 
L 649.539801 241.184 
L 649.539801 240.45834 
L 650.686927 240.45834 
L 650.686927 241.443165 
L 651.834053 241.443165 
L 651.834053 242.013327 
L 652.981179 242.013327 
L 652.981179 241.184 
L 654.128305 241.184 
L 654.128305 241.546831 
L 655.275431 241.546831 
L 655.275431 241.857828 
L 656.422558 241.857828 
L 656.422558 241.650496 
L 658.71681 241.754162 
L 658.71681 242.376157 
L 659.863936 242.376157 
L 659.863936 242.583488 
L 661.011062 242.583488 
L 661.011062 242.168825 
L 663.305315 242.065159 
L 663.305315 242.531655 
L 664.452441 242.531655 
L 664.452441 242.013327 
L 665.599567 242.013327 
L 665.599567 242.894486 
L 666.746693 242.894486 
L 666.746693 242.42799 
L 667.893819 242.42799 
L 667.893819 241.598664 
L 669.040946 241.598664 
L 669.040946 242.998151 
L 670.188072 242.998151 
L 670.188072 242.376157 
L 671.335198 242.376157 
L 671.335198 243.568313 
L 672.482324 243.568313 
L 672.482324 242.376157 
L 673.62945 242.376157 
L 673.62945 243.620146 
L 674.776576 243.620146 
L 674.776576 244.086642 
L 675.923702 244.086642 
L 675.923702 242.998151 
L 677.070829 242.998151 
L 677.070829 243.205483 
L 679.365081 243.15365 
L 679.365081 242.894486 
L 680.512207 242.894486 
L 680.512207 243.723812 
L 681.659333 243.723812 
L 681.659333 243.87931 
L 685.100712 243.827477 
L 685.100712 244.345806 
L 688.54209 244.293973 
L 688.54209 244.034809 
L 689.689216 244.034809 
L 689.689216 244.242141 
L 690.836343 244.242141 
L 690.836343 244.086642 
L 695.424847 244.034809 
L 695.424847 244.345806 
L 696.571974 244.345806 
L 696.571974 243.982976 
L 697.7191 243.982976 
L 697.7191 244.604971 
L 700.013352 244.656804 
L 700.013352 243.982976 
L 701.160478 243.982976 
L 701.160478 244.345806 
L 702.307604 244.345806 
L 702.307604 244.708637 
L 705.748983 244.708637 
L 705.748983 244.449472 
L 708.043235 244.397639 
L 708.043235 244.864135 
L 709.190361 244.864135 
L 709.190361 244.656804 
L 710.337487 244.656804 
L 710.337487 244.345806 
L 711.484614 244.345806 
L 711.484614 244.501305 
L 713.778866 244.604971 
L 713.778866 244.656804 
L 714.925992 244.656804 
L 714.925992 244.812302 
L 719.514497 244.760469 
L 719.514497 245.330631 
L 720.661623 245.330631 
L 720.661623 244.967801 
L 721.808749 244.967801 
L 721.808749 245.175132 
L 722.955875 245.175132 
L 722.955875 245.382464 
L 724.103002 245.382464 
L 724.103002 244.864135 
L 725.250128 244.864135 
L 725.250128 245.226965 
L 726.397254 245.226965 
L 726.397254 244.812302 
L 729.838632 244.864135 
L 729.838632 245.382464 
L 730.985758 245.382464 
L 730.985758 244.864135 
L 733.280011 244.967801 
L 733.280011 245.071467 
L 734.427137 245.071467 
L 734.427137 244.812302 
L 735.574263 244.812302 
L 735.574263 245.1233 
L 739.015642 245.019634 
L 739.015642 244.864135 
L 740.162768 244.864135 
L 740.162768 245.226965 
L 741.309894 245.226965 
L 741.309894 245.019634 
L 744.751273 245.071467 
L 744.751273 245.175132 
L 752.781156 245.1233 
L 752.781156 245.382464 
L 757.36966 245.434297 
L 757.36966 245.537963 
L 760.811039 245.641628 
L 760.811039 245.330631 
L 766.54667 245.382464 
L 766.54667 245.589796 
L 767.693796 245.589796 
L 767.693796 245.1233 
L 768.840922 245.1233 
L 768.840922 245.434297 
L 769.988048 245.434297 
L 769.988048 245.278798 
L 771.135174 245.278798 
L 771.135174 245.537963 
L 774.576553 245.537963 
L 774.576553 245.226965 
L 775.723679 245.226965 
L 775.723679 245.434297 
L 780.312184 245.537963 
L 780.312184 245.589796 
L 784.900688 245.589796 
L 784.900688 245.226965 
L 786.047814 245.226965 
L 786.047814 245.434297 
L 788.342067 245.537963 
L 788.342067 245.589796 
L 794.077698 245.537963 
L 794.077698 245.797127 
L 795.224824 245.797127 
L 795.224824 245.641628 
L 796.37195 245.641628 
L 796.37195 245.48613 
L 797.519076 245.48613 
L 797.519076 245.641628 
L 803.254707 245.589796 
L 803.254707 245.48613 
L 804.401833 245.48613 
L 804.401833 245.641628 
L 805.548959 245.641628 
L 805.548959 245.48613 
L 807.843212 245.589796 
L 807.843212 245.693461 
L 808.990338 245.693461 
L 808.990338 245.48613 
L 811.28459 245.48613 
L 811.28459 245.693461 
L 815.873095 245.589796 
L 815.873095 245.537963 
L 821.608726 245.589796 
L 821.608726 245.745294 
L 825.050104 245.641628 
L 825.050104 245.589796 
L 828.491483 245.641628 
L 828.491483 245.745294 
L 838.815618 245.797127 
L 838.815618 245.589796 
L 843.404123 245.641628 
L 843.404123 245.745294 
L 847.992628 245.641628 
L 847.992628 245.641628 
" clip-path="url(#p4bf5cb42ba)" style="fill: none; stroke: #1f77b4; stroke-width: 1.5; stroke-linecap: square"/>
   </g>
  </g>
 </g>
 <defs>
  <clipPath id="pf31736ba47">
   <rect x="53.328125" y="7.2" width="378.551635" height="249.958895"/>
  </clipPath>
  <clipPath id="p4bf5cb42ba">
   <rect x="486.647885" y="7.2" width="378.551635" height="249.958895"/>
  </clipPath>
 </defs>
</svg>
