<?xml version="1.0" encoding="utf-8" standalone="no"?>
<!DOCTYPE svg PUBLIC "-//W3C//DTD SVG 1.1//EN"
  "http://www.w3.org/Graphics/SVG/1.1/DTD/svg11.dtd">
<svg xmlns:xlink="http://www.w3.org/1999/xlink" width="396.956055pt" height="266.51625pt" viewBox="0 0 396.956055 266.51625" xmlns="http://www.w3.org/2000/svg" version="1.1">
 <metadata>
  <rdf:RDF xmlns:dc="http://purl.org/dc/elements/1.1/" xmlns:cc="http://creativecommons.org/ns#" xmlns:rdf="http://www.w3.org/1999/02/22-rdf-syntax-ns#">
   <cc:Work>
    <dc:type rdf:resource="http://purl.org/dc/dcmitype/StillImage"/>
    <dc:date>2025-05-14T12:10:53.453191</dc:date>
    <dc:format>image/svg+xml</dc:format>
    <dc:creator>
     <cc:Agent>
      <dc:title>Matplotlib v3.10.1, https://matplotlib.org/</dc:title>
     </cc:Agent>
    </dc:creator>
   </cc:Work>
  </rdf:RDF>
 </metadata>
 <defs>
  <style type="text/css">*{stroke-linejoin: round; stroke-linecap: butt}</style>
 </defs>
 <g id="figure_1">
  <g id="patch_1">
   <path d="M 0 266.51625 
L 396.956055 266.51625 
L 396.956055 0 
L 0 0 
z
" style="fill: #ffffff"/>
  </g>
  <g id="axes_1">
   <g id="patch_2">
    <path d="M 46.965625 228.96 
L 381.765625 228.96 
L 381.765625 7.2 
L 46.965625 7.2 
z
" style="fill: #ffffff"/>
   </g>
   <g id="matplotlib.axis_1">
    <g id="xtick_1">
     <g id="line2d_1">
      <defs>
       <path id="m41e5a30652" d="M 0 0 
L 0 3.5 
" style="stroke: #000000; stroke-width: 0.8"/>
      </defs>
      <g>
       <use xlink:href="#m41e5a30652" x="71.625999" y="228.96" style="stroke: #000000; stroke-width: 0.8"/>
      </g>
     </g>
     <g id="text_1">
      <!-- 20000 -->
      <g transform="translate(55.719749 243.558437) scale(0.1 -0.1)">
       <defs>
        <path id="DejaVuSans-32" d="M 1228 531 
L 3431 531 
L 3431 0 
L 469 0 
L 469 531 
Q 828 903 1448 1529 
Q 2069 2156 2228 2338 
Q 2531 2678 2651 2914 
Q 2772 3150 2772 3378 
Q 2772 3750 2511 3984 
Q 2250 4219 1831 4219 
Q 1534 4219 1204 4116 
Q 875 4013 500 3803 
L 500 4441 
Q 881 4594 1212 4672 
Q 1544 4750 1819 4750 
Q 2544 4750 2975 4387 
Q 3406 4025 3406 3419 
Q 3406 3131 3298 2873 
Q 3191 2616 2906 2266 
Q 2828 2175 2409 1742 
Q 1991 1309 1228 531 
z
" transform="scale(0.015625)"/>
        <path id="DejaVuSans-30" d="M 2034 4250 
Q 1547 4250 1301 3770 
Q 1056 3291 1056 2328 
Q 1056 1369 1301 889 
Q 1547 409 2034 409 
Q 2525 409 2770 889 
Q 3016 1369 3016 2328 
Q 3016 3291 2770 3770 
Q 2525 4250 2034 4250 
z
M 2034 4750 
Q 2819 4750 3233 4129 
Q 3647 3509 3647 2328 
Q 3647 1150 3233 529 
Q 2819 -91 2034 -91 
Q 1250 -91 836 529 
Q 422 1150 422 2328 
Q 422 3509 836 4129 
Q 1250 4750 2034 4750 
z
" transform="scale(0.015625)"/>
       </defs>
       <use xlink:href="#DejaVuSans-32"/>
       <use xlink:href="#DejaVuSans-30" transform="translate(63.623047 0)"/>
       <use xlink:href="#DejaVuSans-30" transform="translate(127.246094 0)"/>
       <use xlink:href="#DejaVuSans-30" transform="translate(190.869141 0)"/>
       <use xlink:href="#DejaVuSans-30" transform="translate(254.492188 0)"/>
      </g>
     </g>
    </g>
    <g id="xtick_2">
     <g id="line2d_2">
      <g>
       <use xlink:href="#m41e5a30652" x="114.800828" y="228.96" style="stroke: #000000; stroke-width: 0.8"/>
      </g>
     </g>
     <g id="text_2">
      <!-- 30000 -->
      <g transform="translate(98.894578 243.558437) scale(0.1 -0.1)">
       <defs>
        <path id="DejaVuSans-33" d="M 2597 2516 
Q 3050 2419 3304 2112 
Q 3559 1806 3559 1356 
Q 3559 666 3084 287 
Q 2609 -91 1734 -91 
Q 1441 -91 1130 -33 
Q 819 25 488 141 
L 488 750 
Q 750 597 1062 519 
Q 1375 441 1716 441 
Q 2309 441 2620 675 
Q 2931 909 2931 1356 
Q 2931 1769 2642 2001 
Q 2353 2234 1838 2234 
L 1294 2234 
L 1294 2753 
L 1863 2753 
Q 2328 2753 2575 2939 
Q 2822 3125 2822 3475 
Q 2822 3834 2567 4026 
Q 2313 4219 1838 4219 
Q 1578 4219 1281 4162 
Q 984 4106 628 3988 
L 628 4550 
Q 988 4650 1302 4700 
Q 1616 4750 1894 4750 
Q 2613 4750 3031 4423 
Q 3450 4097 3450 3541 
Q 3450 3153 3228 2886 
Q 3006 2619 2597 2516 
z
" transform="scale(0.015625)"/>
       </defs>
       <use xlink:href="#DejaVuSans-33"/>
       <use xlink:href="#DejaVuSans-30" transform="translate(63.623047 0)"/>
       <use xlink:href="#DejaVuSans-30" transform="translate(127.246094 0)"/>
       <use xlink:href="#DejaVuSans-30" transform="translate(190.869141 0)"/>
       <use xlink:href="#DejaVuSans-30" transform="translate(254.492188 0)"/>
      </g>
     </g>
    </g>
    <g id="xtick_3">
     <g id="line2d_3">
      <g>
       <use xlink:href="#m41e5a30652" x="157.975658" y="228.96" style="stroke: #000000; stroke-width: 0.8"/>
      </g>
     </g>
     <g id="text_3">
      <!-- 40000 -->
      <g transform="translate(142.069408 243.558437) scale(0.1 -0.1)">
       <defs>
        <path id="DejaVuSans-34" d="M 2419 4116 
L 825 1625 
L 2419 1625 
L 2419 4116 
z
M 2253 4666 
L 3047 4666 
L 3047 1625 
L 3713 1625 
L 3713 1100 
L 3047 1100 
L 3047 0 
L 2419 0 
L 2419 1100 
L 313 1100 
L 313 1709 
L 2253 4666 
z
" transform="scale(0.015625)"/>
       </defs>
       <use xlink:href="#DejaVuSans-34"/>
       <use xlink:href="#DejaVuSans-30" transform="translate(63.623047 0)"/>
       <use xlink:href="#DejaVuSans-30" transform="translate(127.246094 0)"/>
       <use xlink:href="#DejaVuSans-30" transform="translate(190.869141 0)"/>
       <use xlink:href="#DejaVuSans-30" transform="translate(254.492188 0)"/>
      </g>
     </g>
    </g>
    <g id="xtick_4">
     <g id="line2d_4">
      <g>
       <use xlink:href="#m41e5a30652" x="201.150487" y="228.96" style="stroke: #000000; stroke-width: 0.8"/>
      </g>
     </g>
     <g id="text_4">
      <!-- 50000 -->
      <g transform="translate(185.244237 243.558437) scale(0.1 -0.1)">
       <defs>
        <path id="DejaVuSans-35" d="M 691 4666 
L 3169 4666 
L 3169 4134 
L 1269 4134 
L 1269 2991 
Q 1406 3038 1543 3061 
Q 1681 3084 1819 3084 
Q 2600 3084 3056 2656 
Q 3513 2228 3513 1497 
Q 3513 744 3044 326 
Q 2575 -91 1722 -91 
Q 1428 -91 1123 -41 
Q 819 9 494 109 
L 494 744 
Q 775 591 1075 516 
Q 1375 441 1709 441 
Q 2250 441 2565 725 
Q 2881 1009 2881 1497 
Q 2881 1984 2565 2268 
Q 2250 2553 1709 2553 
Q 1456 2553 1204 2497 
Q 953 2441 691 2322 
L 691 4666 
z
" transform="scale(0.015625)"/>
       </defs>
       <use xlink:href="#DejaVuSans-35"/>
       <use xlink:href="#DejaVuSans-30" transform="translate(63.623047 0)"/>
       <use xlink:href="#DejaVuSans-30" transform="translate(127.246094 0)"/>
       <use xlink:href="#DejaVuSans-30" transform="translate(190.869141 0)"/>
       <use xlink:href="#DejaVuSans-30" transform="translate(254.492188 0)"/>
      </g>
     </g>
    </g>
    <g id="xtick_5">
     <g id="line2d_5">
      <g>
       <use xlink:href="#m41e5a30652" x="244.325317" y="228.96" style="stroke: #000000; stroke-width: 0.8"/>
      </g>
     </g>
     <g id="text_5">
      <!-- 60000 -->
      <g transform="translate(228.419067 243.558437) scale(0.1 -0.1)">
       <defs>
        <path id="DejaVuSans-36" d="M 2113 2584 
Q 1688 2584 1439 2293 
Q 1191 2003 1191 1497 
Q 1191 994 1439 701 
Q 1688 409 2113 409 
Q 2538 409 2786 701 
Q 3034 994 3034 1497 
Q 3034 2003 2786 2293 
Q 2538 2584 2113 2584 
z
M 3366 4563 
L 3366 3988 
Q 3128 4100 2886 4159 
Q 2644 4219 2406 4219 
Q 1781 4219 1451 3797 
Q 1122 3375 1075 2522 
Q 1259 2794 1537 2939 
Q 1816 3084 2150 3084 
Q 2853 3084 3261 2657 
Q 3669 2231 3669 1497 
Q 3669 778 3244 343 
Q 2819 -91 2113 -91 
Q 1303 -91 875 529 
Q 447 1150 447 2328 
Q 447 3434 972 4092 
Q 1497 4750 2381 4750 
Q 2619 4750 2861 4703 
Q 3103 4656 3366 4563 
z
" transform="scale(0.015625)"/>
       </defs>
       <use xlink:href="#DejaVuSans-36"/>
       <use xlink:href="#DejaVuSans-30" transform="translate(63.623047 0)"/>
       <use xlink:href="#DejaVuSans-30" transform="translate(127.246094 0)"/>
       <use xlink:href="#DejaVuSans-30" transform="translate(190.869141 0)"/>
       <use xlink:href="#DejaVuSans-30" transform="translate(254.492188 0)"/>
      </g>
     </g>
    </g>
    <g id="xtick_6">
     <g id="line2d_6">
      <g>
       <use xlink:href="#m41e5a30652" x="287.500146" y="228.96" style="stroke: #000000; stroke-width: 0.8"/>
      </g>
     </g>
     <g id="text_6">
      <!-- 70000 -->
      <g transform="translate(271.593896 243.558437) scale(0.1 -0.1)">
       <defs>
        <path id="DejaVuSans-37" d="M 525 4666 
L 3525 4666 
L 3525 4397 
L 1831 0 
L 1172 0 
L 2766 4134 
L 525 4134 
L 525 4666 
z
" transform="scale(0.015625)"/>
       </defs>
       <use xlink:href="#DejaVuSans-37"/>
       <use xlink:href="#DejaVuSans-30" transform="translate(63.623047 0)"/>
       <use xlink:href="#DejaVuSans-30" transform="translate(127.246094 0)"/>
       <use xlink:href="#DejaVuSans-30" transform="translate(190.869141 0)"/>
       <use xlink:href="#DejaVuSans-30" transform="translate(254.492188 0)"/>
      </g>
     </g>
    </g>
    <g id="xtick_7">
     <g id="line2d_7">
      <g>
       <use xlink:href="#m41e5a30652" x="330.674976" y="228.96" style="stroke: #000000; stroke-width: 0.8"/>
      </g>
     </g>
     <g id="text_7">
      <!-- 80000 -->
      <g transform="translate(314.768726 243.558437) scale(0.1 -0.1)">
       <defs>
        <path id="DejaVuSans-38" d="M 2034 2216 
Q 1584 2216 1326 1975 
Q 1069 1734 1069 1313 
Q 1069 891 1326 650 
Q 1584 409 2034 409 
Q 2484 409 2743 651 
Q 3003 894 3003 1313 
Q 3003 1734 2745 1975 
Q 2488 2216 2034 2216 
z
M 1403 2484 
Q 997 2584 770 2862 
Q 544 3141 544 3541 
Q 544 4100 942 4425 
Q 1341 4750 2034 4750 
Q 2731 4750 3128 4425 
Q 3525 4100 3525 3541 
Q 3525 3141 3298 2862 
Q 3072 2584 2669 2484 
Q 3125 2378 3379 2068 
Q 3634 1759 3634 1313 
Q 3634 634 3220 271 
Q 2806 -91 2034 -91 
Q 1263 -91 848 271 
Q 434 634 434 1313 
Q 434 1759 690 2068 
Q 947 2378 1403 2484 
z
M 1172 3481 
Q 1172 3119 1398 2916 
Q 1625 2713 2034 2713 
Q 2441 2713 2670 2916 
Q 2900 3119 2900 3481 
Q 2900 3844 2670 4047 
Q 2441 4250 2034 4250 
Q 1625 4250 1398 4047 
Q 1172 3844 1172 3481 
z
" transform="scale(0.015625)"/>
       </defs>
       <use xlink:href="#DejaVuSans-38"/>
       <use xlink:href="#DejaVuSans-30" transform="translate(63.623047 0)"/>
       <use xlink:href="#DejaVuSans-30" transform="translate(127.246094 0)"/>
       <use xlink:href="#DejaVuSans-30" transform="translate(190.869141 0)"/>
       <use xlink:href="#DejaVuSans-30" transform="translate(254.492188 0)"/>
      </g>
     </g>
    </g>
    <g id="xtick_8">
     <g id="line2d_8">
      <g>
       <use xlink:href="#m41e5a30652" x="373.849805" y="228.96" style="stroke: #000000; stroke-width: 0.8"/>
      </g>
     </g>
     <g id="text_8">
      <!-- 90000 -->
      <g transform="translate(357.943555 243.558437) scale(0.1 -0.1)">
       <defs>
        <path id="DejaVuSans-39" d="M 703 97 
L 703 672 
Q 941 559 1184 500 
Q 1428 441 1663 441 
Q 2288 441 2617 861 
Q 2947 1281 2994 2138 
Q 2813 1869 2534 1725 
Q 2256 1581 1919 1581 
Q 1219 1581 811 2004 
Q 403 2428 403 3163 
Q 403 3881 828 4315 
Q 1253 4750 1959 4750 
Q 2769 4750 3195 4129 
Q 3622 3509 3622 2328 
Q 3622 1225 3098 567 
Q 2575 -91 1691 -91 
Q 1453 -91 1209 -44 
Q 966 3 703 97 
z
M 1959 2075 
Q 2384 2075 2632 2365 
Q 2881 2656 2881 3163 
Q 2881 3666 2632 3958 
Q 2384 4250 1959 4250 
Q 1534 4250 1286 3958 
Q 1038 3666 1038 3163 
Q 1038 2656 1286 2365 
Q 1534 2075 1959 2075 
z
" transform="scale(0.015625)"/>
       </defs>
       <use xlink:href="#DejaVuSans-39"/>
       <use xlink:href="#DejaVuSans-30" transform="translate(63.623047 0)"/>
       <use xlink:href="#DejaVuSans-30" transform="translate(127.246094 0)"/>
       <use xlink:href="#DejaVuSans-30" transform="translate(190.869141 0)"/>
       <use xlink:href="#DejaVuSans-30" transform="translate(254.492188 0)"/>
      </g>
     </g>
    </g>
    <g id="text_9">
     <!-- tof [µs] -->
     <g transform="translate(196.309375 257.236562) scale(0.1 -0.1)">
      <defs>
       <path id="DejaVuSans-74" d="M 1172 4494 
L 1172 3500 
L 2356 3500 
L 2356 3053 
L 1172 3053 
L 1172 1153 
Q 1172 725 1289 603 
Q 1406 481 1766 481 
L 2356 481 
L 2356 0 
L 1766 0 
Q 1100 0 847 248 
Q 594 497 594 1153 
L 594 3053 
L 172 3053 
L 172 3500 
L 594 3500 
L 594 4494 
L 1172 4494 
z
" transform="scale(0.015625)"/>
       <path id="DejaVuSans-6f" d="M 1959 3097 
Q 1497 3097 1228 2736 
Q 959 2375 959 1747 
Q 959 1119 1226 758 
Q 1494 397 1959 397 
Q 2419 397 2687 759 
Q 2956 1122 2956 1747 
Q 2956 2369 2687 2733 
Q 2419 3097 1959 3097 
z
M 1959 3584 
Q 2709 3584 3137 3096 
Q 3566 2609 3566 1747 
Q 3566 888 3137 398 
Q 2709 -91 1959 -91 
Q 1206 -91 779 398 
Q 353 888 353 1747 
Q 353 2609 779 3096 
Q 1206 3584 1959 3584 
z
" transform="scale(0.015625)"/>
       <path id="DejaVuSans-66" d="M 2375 4863 
L 2375 4384 
L 1825 4384 
Q 1516 4384 1395 4259 
Q 1275 4134 1275 3809 
L 1275 3500 
L 2222 3500 
L 2222 3053 
L 1275 3053 
L 1275 0 
L 697 0 
L 697 3053 
L 147 3053 
L 147 3500 
L 697 3500 
L 697 3744 
Q 697 4328 969 4595 
Q 1241 4863 1831 4863 
L 2375 4863 
z
" transform="scale(0.015625)"/>
       <path id="DejaVuSans-20" transform="scale(0.015625)"/>
       <path id="DejaVuSans-5b" d="M 550 4863 
L 1875 4863 
L 1875 4416 
L 1125 4416 
L 1125 -397 
L 1875 -397 
L 1875 -844 
L 550 -844 
L 550 4863 
z
" transform="scale(0.015625)"/>
       <path id="DejaVuSans-b5" d="M 544 -1331 
L 544 3500 
L 1119 3500 
L 1119 1325 
Q 1119 872 1334 640 
Q 1550 409 1972 409 
Q 2434 409 2667 671 
Q 2900 934 2900 1459 
L 2900 3500 
L 3475 3500 
L 3475 806 
Q 3475 619 3529 530 
Q 3584 441 3700 441 
Q 3728 441 3778 458 
Q 3828 475 3916 513 
L 3916 50 
Q 3788 -22 3673 -56 
Q 3559 -91 3450 -91 
Q 3234 -91 3106 31 
Q 2978 153 2931 403 
Q 2775 156 2548 32 
Q 2322 -91 2016 -91 
Q 1697 -91 1473 31 
Q 1250 153 1119 397 
L 1119 -1331 
L 544 -1331 
z
" transform="scale(0.015625)"/>
       <path id="DejaVuSans-73" d="M 2834 3397 
L 2834 2853 
Q 2591 2978 2328 3040 
Q 2066 3103 1784 3103 
Q 1356 3103 1142 2972 
Q 928 2841 928 2578 
Q 928 2378 1081 2264 
Q 1234 2150 1697 2047 
L 1894 2003 
Q 2506 1872 2764 1633 
Q 3022 1394 3022 966 
Q 3022 478 2636 193 
Q 2250 -91 1575 -91 
Q 1294 -91 989 -36 
Q 684 19 347 128 
L 347 722 
Q 666 556 975 473 
Q 1284 391 1588 391 
Q 1994 391 2212 530 
Q 2431 669 2431 922 
Q 2431 1156 2273 1281 
Q 2116 1406 1581 1522 
L 1381 1569 
Q 847 1681 609 1914 
Q 372 2147 372 2553 
Q 372 3047 722 3315 
Q 1072 3584 1716 3584 
Q 2034 3584 2315 3537 
Q 2597 3491 2834 3397 
z
" transform="scale(0.015625)"/>
       <path id="DejaVuSans-5d" d="M 1947 4863 
L 1947 -844 
L 622 -844 
L 622 -397 
L 1369 -397 
L 1369 4416 
L 622 4416 
L 622 4863 
L 1947 4863 
z
" transform="scale(0.015625)"/>
      </defs>
      <use xlink:href="#DejaVuSans-74"/>
      <use xlink:href="#DejaVuSans-6f" transform="translate(39.208984 0)"/>
      <use xlink:href="#DejaVuSans-66" transform="translate(100.390625 0)"/>
      <use xlink:href="#DejaVuSans-20" transform="translate(135.595703 0)"/>
      <use xlink:href="#DejaVuSans-5b" transform="translate(167.382812 0)"/>
      <use xlink:href="#DejaVuSans-b5" transform="translate(206.396484 0)"/>
      <use xlink:href="#DejaVuSans-73" transform="translate(270.019531 0)"/>
      <use xlink:href="#DejaVuSans-5d" transform="translate(322.119141 0)"/>
     </g>
    </g>
   </g>
   <g id="matplotlib.axis_2">
    <g id="ytick_1">
     <g id="line2d_9">
      <defs>
       <path id="m38b1fa6999" d="M 0 0 
L -3.5 0 
" style="stroke: #000000; stroke-width: 0.8"/>
      </defs>
      <g>
       <use xlink:href="#m38b1fa6999" x="46.965625" y="219.264" style="stroke: #000000; stroke-width: 0.8"/>
      </g>
     </g>
     <g id="text_10">
      <!-- 0 -->
      <g transform="translate(33.603125 223.063219) scale(0.1 -0.1)">
       <use xlink:href="#DejaVuSans-30"/>
      </g>
     </g>
    </g>
    <g id="ytick_2">
     <g id="line2d_10">
      <g>
       <use xlink:href="#m38b1fa6999" x="46.965625" y="180.864" style="stroke: #000000; stroke-width: 0.8"/>
      </g>
     </g>
     <g id="text_11">
      <!-- 100 -->
      <g transform="translate(20.878125 184.663219) scale(0.1 -0.1)">
       <defs>
        <path id="DejaVuSans-31" d="M 794 531 
L 1825 531 
L 1825 4091 
L 703 3866 
L 703 4441 
L 1819 4666 
L 2450 4666 
L 2450 531 
L 3481 531 
L 3481 0 
L 794 0 
L 794 531 
z
" transform="scale(0.015625)"/>
       </defs>
       <use xlink:href="#DejaVuSans-31"/>
       <use xlink:href="#DejaVuSans-30" transform="translate(63.623047 0)"/>
       <use xlink:href="#DejaVuSans-30" transform="translate(127.246094 0)"/>
      </g>
     </g>
    </g>
    <g id="ytick_3">
     <g id="line2d_11">
      <g>
       <use xlink:href="#m38b1fa6999" x="46.965625" y="142.464" style="stroke: #000000; stroke-width: 0.8"/>
      </g>
     </g>
     <g id="text_12">
      <!-- 200 -->
      <g transform="translate(20.878125 146.263219) scale(0.1 -0.1)">
       <use xlink:href="#DejaVuSans-32"/>
       <use xlink:href="#DejaVuSans-30" transform="translate(63.623047 0)"/>
       <use xlink:href="#DejaVuSans-30" transform="translate(127.246094 0)"/>
      </g>
     </g>
    </g>
    <g id="ytick_4">
     <g id="line2d_12">
      <g>
       <use xlink:href="#m38b1fa6999" x="46.965625" y="104.064" style="stroke: #000000; stroke-width: 0.8"/>
      </g>
     </g>
     <g id="text_13">
      <!-- 300 -->
      <g transform="translate(20.878125 107.863219) scale(0.1 -0.1)">
       <use xlink:href="#DejaVuSans-33"/>
       <use xlink:href="#DejaVuSans-30" transform="translate(63.623047 0)"/>
       <use xlink:href="#DejaVuSans-30" transform="translate(127.246094 0)"/>
      </g>
     </g>
    </g>
    <g id="ytick_5">
     <g id="line2d_13">
      <g>
       <use xlink:href="#m38b1fa6999" x="46.965625" y="65.664" style="stroke: #000000; stroke-width: 0.8"/>
      </g>
     </g>
     <g id="text_14">
      <!-- 400 -->
      <g transform="translate(20.878125 69.463219) scale(0.1 -0.1)">
       <use xlink:href="#DejaVuSans-34"/>
       <use xlink:href="#DejaVuSans-30" transform="translate(63.623047 0)"/>
       <use xlink:href="#DejaVuSans-30" transform="translate(127.246094 0)"/>
      </g>
     </g>
    </g>
    <g id="ytick_6">
     <g id="line2d_14">
      <g>
       <use xlink:href="#m38b1fa6999" x="46.965625" y="27.264" style="stroke: #000000; stroke-width: 0.8"/>
      </g>
     </g>
     <g id="text_15">
      <!-- 500 -->
      <g transform="translate(20.878125 31.063219) scale(0.1 -0.1)">
       <use xlink:href="#DejaVuSans-35"/>
       <use xlink:href="#DejaVuSans-30" transform="translate(63.623047 0)"/>
       <use xlink:href="#DejaVuSans-30" transform="translate(127.246094 0)"/>
      </g>
     </g>
    </g>
    <g id="text_16">
     <!-- [counts] -->
     <g transform="translate(14.798438 138.6925) rotate(-90) scale(0.1 -0.1)">
      <defs>
       <path id="DejaVuSans-63" d="M 3122 3366 
L 3122 2828 
Q 2878 2963 2633 3030 
Q 2388 3097 2138 3097 
Q 1578 3097 1268 2742 
Q 959 2388 959 1747 
Q 959 1106 1268 751 
Q 1578 397 2138 397 
Q 2388 397 2633 464 
Q 2878 531 3122 666 
L 3122 134 
Q 2881 22 2623 -34 
Q 2366 -91 2075 -91 
Q 1284 -91 818 406 
Q 353 903 353 1747 
Q 353 2603 823 3093 
Q 1294 3584 2113 3584 
Q 2378 3584 2631 3529 
Q 2884 3475 3122 3366 
z
" transform="scale(0.015625)"/>
       <path id="DejaVuSans-75" d="M 544 1381 
L 544 3500 
L 1119 3500 
L 1119 1403 
Q 1119 906 1312 657 
Q 1506 409 1894 409 
Q 2359 409 2629 706 
Q 2900 1003 2900 1516 
L 2900 3500 
L 3475 3500 
L 3475 0 
L 2900 0 
L 2900 538 
Q 2691 219 2414 64 
Q 2138 -91 1772 -91 
Q 1169 -91 856 284 
Q 544 659 544 1381 
z
M 1991 3584 
L 1991 3584 
z
" transform="scale(0.015625)"/>
       <path id="DejaVuSans-6e" d="M 3513 2113 
L 3513 0 
L 2938 0 
L 2938 2094 
Q 2938 2591 2744 2837 
Q 2550 3084 2163 3084 
Q 1697 3084 1428 2787 
Q 1159 2491 1159 1978 
L 1159 0 
L 581 0 
L 581 3500 
L 1159 3500 
L 1159 2956 
Q 1366 3272 1645 3428 
Q 1925 3584 2291 3584 
Q 2894 3584 3203 3211 
Q 3513 2838 3513 2113 
z
" transform="scale(0.015625)"/>
      </defs>
      <use xlink:href="#DejaVuSans-5b"/>
      <use xlink:href="#DejaVuSans-63" transform="translate(39.013672 0)"/>
      <use xlink:href="#DejaVuSans-6f" transform="translate(93.994141 0)"/>
      <use xlink:href="#DejaVuSans-75" transform="translate(155.175781 0)"/>
      <use xlink:href="#DejaVuSans-6e" transform="translate(218.554688 0)"/>
      <use xlink:href="#DejaVuSans-74" transform="translate(281.933594 0)"/>
      <use xlink:href="#DejaVuSans-73" transform="translate(321.142578 0)"/>
      <use xlink:href="#DejaVuSans-5d" transform="translate(373.242188 0)"/>
     </g>
    </g>
   </g>
   <g id="line2d_15">
    <path d="M 62.183807 210.432 
L 63.198352 210.432 
L 63.198352 208.128 
L 64.212898 208.128 
L 64.212898 207.36 
L 65.227443 207.36 
L 65.227443 201.6 
L 66.241989 201.6 
L 66.241989 198.528 
L 67.256534 198.528 
L 67.256534 192 
L 68.27108 192 
L 68.27108 184.32 
L 69.285625 184.32 
L 69.285625 182.4 
L 70.30017 182.4 
L 70.30017 182.784 
L 71.314716 182.784 
L 71.314716 168.576 
L 72.329261 168.576 
L 72.329261 173.952 
L 73.343807 173.952 
L 73.343807 167.424 
L 74.358352 167.424 
L 74.358352 157.44 
L 75.372898 157.44 
L 75.372898 151.296 
L 76.387443 151.296 
L 76.387443 153.6 
L 77.401989 153.6 
L 77.401989 148.224 
L 78.416534 148.224 
L 78.416534 134.016 
L 79.43108 134.016 
L 79.43108 144 
L 80.445625 144 
L 80.445625 125.952 
L 81.46017 125.952 
L 81.46017 121.728 
L 82.474716 121.728 
L 82.474716 111.744 
L 83.489261 111.744 
L 83.489261 117.12 
L 84.503807 117.12 
L 84.503807 109.44 
L 85.518352 109.44 
L 85.518352 113.28 
L 86.532898 113.28 
L 86.532898 100.608 
L 87.547443 100.608 
L 87.547443 99.84 
L 88.561989 99.84 
L 88.561989 90.24 
L 89.576534 90.24 
L 89.576534 91.008 
L 90.59108 91.008 
L 90.59108 80.256 
L 91.605625 80.256 
L 91.605625 82.944 
L 92.62017 82.944 
L 92.62017 79.488 
L 93.634716 79.488 
L 93.634716 70.272 
L 94.649261 70.272 
L 94.649261 78.72 
L 95.663807 78.72 
L 95.663807 68.736 
L 96.678352 68.736 
L 96.678352 70.272 
L 97.692898 70.272 
L 97.692898 61.824 
L 98.707443 61.824 
L 98.707443 73.728 
L 99.721989 73.728 
L 99.721989 59.136 
L 100.736534 59.136 
L 100.736534 51.072 
L 101.75108 51.072 
L 101.75108 49.152 
L 102.765625 49.152 
L 102.765625 56.448 
L 103.78017 56.448 
L 103.78017 60.288 
L 104.794716 60.288 
L 104.794716 36.48 
L 105.809261 36.48 
L 105.809261 38.784 
L 106.823807 38.784 
L 106.823807 52.992 
L 107.838352 52.992 
L 107.838352 42.24 
L 108.852898 42.24 
L 108.852898 25.728 
L 109.867443 25.728 
L 109.867443 37.632 
L 110.881989 37.632 
L 110.881989 23.04 
L 111.896534 23.04 
L 111.896534 27.264 
L 112.91108 27.264 
L 112.91108 17.28 
L 113.925625 17.28 
L 113.925625 38.784 
L 114.94017 38.784 
L 114.94017 36.096 
L 115.954716 36.096 
L 115.954716 46.848 
L 116.969261 46.848 
L 116.969261 43.008 
L 117.983807 43.008 
L 117.983807 51.072 
L 118.998352 51.072 
L 118.998352 36.864 
L 120.012898 36.864 
L 120.012898 45.312 
L 121.027443 45.312 
L 121.027443 50.688 
L 122.041989 50.688 
L 122.041989 48.768 
L 123.056534 48.768 
L 123.056534 46.464 
L 125.085625 46.464 
L 125.085625 54.144 
L 126.10017 54.144 
L 126.10017 51.456 
L 127.114716 51.456 
L 127.114716 45.312 
L 128.129261 45.312 
L 128.129261 57.984 
L 129.143807 57.984 
L 129.143807 66.432 
L 130.158352 66.432 
L 130.158352 54.144 
L 131.172898 54.144 
L 131.172898 55.296 
L 132.187443 55.296 
L 132.187443 45.312 
L 133.201989 45.312 
L 133.201989 60.288 
L 134.216534 60.288 
L 134.216534 60.672 
L 135.23108 60.672 
L 135.23108 68.736 
L 136.245625 68.736 
L 136.245625 65.28 
L 137.26017 65.28 
L 137.26017 67.584 
L 138.274716 67.584 
L 138.274716 68.352 
L 139.289261 68.352 
L 139.289261 75.648 
L 140.303807 75.648 
L 140.303807 56.832 
L 141.318352 56.832 
L 141.318352 56.448 
L 142.332898 56.448 
L 142.332898 72.576 
L 143.347443 72.576 
L 143.347443 74.112 
L 144.361989 74.112 
L 144.361989 69.504 
L 145.376534 69.504 
L 145.376534 74.112 
L 146.39108 74.112 
L 146.39108 70.272 
L 147.405625 70.272 
L 147.405625 64.896 
L 148.42017 64.896 
L 148.42017 62.208 
L 149.434716 62.208 
L 149.434716 92.928 
L 150.449261 92.928 
L 150.449261 62.208 
L 151.463807 62.208 
L 151.463807 62.976 
L 152.478352 62.976 
L 152.478352 56.064 
L 153.492898 56.064 
L 153.492898 78.72 
L 154.507443 78.72 
L 154.507443 76.8 
L 155.521989 76.8 
L 155.521989 75.264 
L 156.536534 75.264 
L 156.536534 76.8 
L 157.55108 76.8 
L 157.55108 66.432 
L 158.565625 66.432 
L 158.565625 76.032 
L 159.58017 76.032 
L 159.58017 72.96 
L 160.594716 72.96 
L 160.594716 66.432 
L 161.609261 66.432 
L 161.609261 85.248 
L 162.623807 85.248 
L 162.623807 89.856 
L 163.638352 89.856 
L 163.638352 74.88 
L 164.652898 74.88 
L 164.652898 75.648 
L 165.667443 75.648 
L 165.667443 68.352 
L 166.681989 68.352 
L 166.681989 74.112 
L 167.696534 74.112 
L 167.696534 80.64 
L 168.71108 80.64 
L 168.71108 76.8 
L 169.725625 76.8 
L 169.725625 92.928 
L 170.74017 92.928 
L 170.74017 75.264 
L 171.754716 75.264 
L 171.754716 78.336 
L 172.769261 78.336 
L 172.769261 72.192 
L 173.783807 72.192 
L 173.783807 96.768 
L 174.798352 96.768 
L 174.798352 81.792 
L 175.812898 81.792 
L 175.812898 98.688 
L 176.827443 98.688 
L 176.827443 94.848 
L 177.841989 94.848 
L 177.841989 94.08 
L 178.856534 94.08 
L 178.856534 92.544 
L 179.87108 92.544 
L 179.87108 115.968 
L 180.885625 115.968 
L 180.885625 109.824 
L 181.90017 109.824 
L 181.90017 107.52 
L 182.914716 107.52 
L 182.914716 111.36 
L 183.929261 111.36 
L 183.929261 104.832 
L 184.943807 104.832 
L 184.943807 125.184 
L 185.958352 125.184 
L 185.958352 130.944 
L 186.972898 130.944 
L 186.972898 134.784 
L 187.987443 134.784 
L 187.987443 133.248 
L 189.001989 133.248 
L 189.001989 145.92 
L 191.03108 145.92 
L 191.03108 150.144 
L 192.045625 150.144 
L 192.045625 162.048 
L 193.06017 162.048 
L 193.06017 161.28 
L 194.074716 161.28 
L 194.074716 158.592 
L 195.089261 158.592 
L 195.089261 163.584 
L 196.103807 163.584 
L 196.103807 172.416 
L 197.118352 172.416 
L 197.118352 181.632 
L 198.132898 181.632 
L 198.132898 178.176 
L 199.147443 178.176 
L 199.147443 185.856 
L 200.161989 185.856 
L 200.161989 179.328 
L 201.176534 179.328 
L 201.176534 193.152 
L 202.19108 193.152 
L 202.19108 186.624 
L 203.205625 186.624 
L 203.205625 201.984 
L 204.22017 201.984 
L 204.22017 199.68 
L 205.234716 199.68 
L 205.234716 206.208 
L 206.249261 206.208 
L 206.249261 209.664 
L 207.263807 209.664 
L 207.263807 209.28 
L 208.278352 209.28 
L 208.278352 213.504 
L 209.292898 213.504 
L 209.292898 216.192 
L 211.321989 216.192 
L 211.321989 218.112 
L 212.336534 218.112 
L 212.336534 215.04 
L 213.35108 215.04 
L 213.35108 210.432 
L 214.365625 210.432 
L 214.365625 212.352 
L 215.38017 212.352 
L 215.38017 200.064 
L 216.394716 200.064 
L 216.394716 202.368 
L 217.409261 202.368 
L 217.409261 191.616 
L 218.423807 191.616 
L 218.423807 188.544 
L 219.438352 188.544 
L 219.438352 180.48 
L 220.452898 180.48 
L 220.452898 186.624 
L 221.467443 186.624 
L 221.467443 182.4 
L 222.481989 182.4 
L 222.481989 187.008 
L 223.496534 187.008 
L 223.496534 175.104 
L 224.51108 175.104 
L 224.51108 164.736 
L 225.525625 164.736 
L 225.525625 157.44 
L 226.54017 157.44 
L 226.54017 168.576 
L 227.554716 168.576 
L 227.554716 163.2 
L 228.569261 163.2 
L 228.569261 160.896 
L 229.583807 160.896 
L 229.583807 162.048 
L 230.598352 162.048 
L 230.598352 160.512 
L 231.612898 160.512 
L 231.612898 153.216 
L 232.627443 153.216 
L 232.627443 150.912 
L 233.641989 150.912 
L 233.641989 140.16 
L 234.656534 140.16 
L 234.656534 141.696 
L 235.67108 141.696 
L 235.67108 140.928 
L 236.685625 140.928 
L 236.685625 131.328 
L 237.70017 131.328 
L 237.70017 137.472 
L 238.714716 137.472 
L 238.714716 123.648 
L 239.729261 123.648 
L 239.729261 126.72 
L 240.743807 126.72 
L 240.743807 130.176 
L 241.758352 130.176 
L 241.758352 127.872 
L 242.772898 127.872 
L 242.772898 120.192 
L 243.787443 120.192 
L 243.787443 127.488 
L 244.801989 127.488 
L 244.801989 109.44 
L 245.816534 109.44 
L 245.816534 110.976 
L 246.83108 110.976 
L 246.83108 115.968 
L 247.845625 115.968 
L 247.845625 116.736 
L 248.86017 116.736 
L 248.86017 105.216 
L 249.874716 105.216 
L 249.874716 119.424 
L 250.889261 119.424 
L 250.889261 108.288 
L 251.903807 108.288 
L 251.903807 99.456 
L 252.918352 99.456 
L 252.918352 116.352 
L 253.932898 116.352 
L 253.932898 114.816 
L 254.947443 114.816 
L 254.947443 99.456 
L 255.961989 99.456 
L 255.961989 114.432 
L 256.976534 114.432 
L 256.976534 92.544 
L 257.99108 92.544 
L 257.99108 102.528 
L 259.005625 102.528 
L 259.005625 96.384 
L 260.02017 96.384 
L 260.02017 91.776 
L 261.034716 91.776 
L 261.034716 89.472 
L 262.049261 89.472 
L 262.049261 88.32 
L 263.063807 88.32 
L 263.063807 96 
L 264.078352 96 
L 264.078352 94.848 
L 265.092898 94.848 
L 265.092898 86.4 
L 266.107443 86.4 
L 266.107443 100.608 
L 267.121989 100.608 
L 267.121989 107.904 
L 268.136534 107.904 
L 268.136534 100.224 
L 269.15108 100.224 
L 269.15108 108.288 
L 270.165625 108.288 
L 270.165625 93.312 
L 271.18017 93.312 
L 271.18017 99.456 
L 272.194716 99.456 
L 272.194716 106.368 
L 273.209261 106.368 
L 273.209261 109.056 
L 274.223807 109.056 
L 274.223807 105.6 
L 275.238352 105.6 
L 275.238352 106.368 
L 276.252898 106.368 
L 276.252898 99.84 
L 277.267443 99.84 
L 277.267443 106.752 
L 278.281989 106.752 
L 278.281989 106.368 
L 279.296534 106.368 
L 279.296534 105.216 
L 280.31108 105.216 
L 280.31108 110.976 
L 281.325625 110.976 
L 281.325625 109.056 
L 282.34017 109.056 
L 282.34017 119.808 
L 283.354716 119.808 
L 283.354716 121.344 
L 285.383807 121.344 
L 285.383807 129.792 
L 286.398352 129.792 
L 286.398352 113.28 
L 287.412898 113.28 
L 287.412898 117.12 
L 289.441989 117.12 
L 289.441989 114.432 
L 290.456534 114.432 
L 290.456534 123.648 
L 291.47108 123.648 
L 291.47108 120.96 
L 292.485625 120.96 
L 292.485625 128.64 
L 293.50017 128.64 
L 293.50017 121.344 
L 294.514716 121.344 
L 294.514716 120.576 
L 295.529261 120.576 
L 295.529261 125.952 
L 296.543807 125.952 
L 296.543807 122.496 
L 297.558352 122.496 
L 297.558352 132.48 
L 298.572898 132.48 
L 298.572898 128.64 
L 299.587443 128.64 
L 299.587443 126.336 
L 300.601989 126.336 
L 300.601989 139.392 
L 301.616534 139.392 
L 301.616534 140.16 
L 302.63108 140.16 
L 302.63108 145.536 
L 303.645625 145.536 
L 303.645625 134.784 
L 304.66017 134.784 
L 304.66017 139.776 
L 305.674716 139.776 
L 305.674716 133.632 
L 306.689261 133.632 
L 306.689261 140.544 
L 307.703807 140.544 
L 307.703807 139.008 
L 308.718352 139.008 
L 308.718352 135.552 
L 309.732898 135.552 
L 309.732898 146.304 
L 310.747443 146.304 
L 310.747443 148.992 
L 311.761989 148.992 
L 311.761989 144 
L 312.776534 144 
L 312.776534 140.928 
L 313.79108 140.928 
L 313.79108 149.376 
L 314.805625 149.376 
L 314.805625 150.912 
L 315.82017 150.912 
L 315.82017 149.76 
L 318.863807 149.76 
L 318.863807 144.384 
L 319.878352 144.384 
L 319.878352 149.76 
L 320.892898 149.76 
L 320.892898 150.912 
L 321.907443 150.912 
L 321.907443 160.128 
L 322.921989 160.128 
L 322.921989 153.6 
L 323.936534 153.6 
L 323.936534 167.424 
L 324.95108 167.424 
L 324.95108 154.752 
L 325.965625 154.752 
L 325.965625 165.504 
L 326.98017 165.504 
L 326.98017 164.352 
L 327.994716 164.352 
L 327.994716 163.968 
L 329.009261 163.968 
L 329.009261 171.264 
L 330.023807 171.264 
L 330.023807 167.808 
L 331.038352 167.808 
L 331.038352 175.488 
L 332.052898 175.488 
L 332.052898 177.024 
L 333.067443 177.024 
L 333.067443 164.352 
L 334.081989 164.352 
L 334.081989 176.256 
L 335.096534 176.256 
L 335.096534 171.648 
L 336.11108 171.648 
L 336.11108 183.552 
L 337.125625 183.552 
L 337.125625 180.096 
L 338.14017 180.096 
L 338.14017 179.712 
L 339.154716 179.712 
L 339.154716 187.776 
L 340.169261 187.776 
L 340.169261 193.152 
L 341.183807 193.152 
L 341.183807 192.768 
L 342.198352 192.768 
L 342.198352 192.384 
L 343.212898 192.384 
L 343.212898 189.312 
L 344.227443 189.312 
L 344.227443 195.072 
L 345.241989 195.072 
L 345.241989 196.608 
L 346.256534 196.608 
L 346.256534 197.76 
L 347.27108 197.76 
L 347.27108 201.216 
L 348.285625 201.216 
L 348.285625 199.296 
L 349.30017 199.296 
L 349.30017 208.128 
L 350.314716 208.128 
L 350.314716 200.832 
L 351.329261 200.832 
L 351.329261 209.28 
L 352.343807 209.28 
L 352.343807 205.44 
L 353.358352 205.44 
L 353.358352 207.36 
L 354.372898 207.36 
L 354.372898 209.28 
L 355.387443 209.28 
L 355.387443 213.12 
L 356.401989 213.12 
L 356.401989 213.504 
L 357.416534 213.504 
L 357.416534 216.96 
L 358.43108 216.96 
L 358.43108 214.656 
L 359.445625 214.656 
L 359.445625 215.424 
L 360.46017 215.424 
L 360.46017 216.192 
L 361.474716 216.192 
L 361.474716 217.728 
L 362.489261 217.728 
L 362.489261 216.96 
L 363.503807 216.96 
L 363.503807 218.496 
L 365.532898 218.496 
L 365.532898 218.88 
L 366.547443 218.88 
L 366.547443 218.88 
" clip-path="url(#p18d8502447)" style="fill: none; stroke: #1f77b4; stroke-width: 1.5; stroke-linecap: square"/>
   </g>
   <g id="patch_3">
    <path d="M 46.965625 228.96 
L 46.965625 7.2 
" style="fill: none; stroke: #000000; stroke-width: 0.8; stroke-linejoin: miter; stroke-linecap: square"/>
   </g>
   <g id="patch_4">
    <path d="M 381.765625 228.96 
L 381.765625 7.2 
" style="fill: none; stroke: #000000; stroke-width: 0.8; stroke-linejoin: miter; stroke-linecap: square"/>
   </g>
   <g id="patch_5">
    <path d="M 46.965625 228.96 
L 381.765625 228.96 
" style="fill: none; stroke: #000000; stroke-width: 0.8; stroke-linejoin: miter; stroke-linecap: square"/>
   </g>
   <g id="patch_6">
    <path d="M 46.965625 7.2 
L 381.765625 7.2 
" style="fill: none; stroke: #000000; stroke-width: 0.8; stroke-linejoin: miter; stroke-linecap: square"/>
   </g>
  </g>
 </g>
 <defs>
  <clipPath id="p18d8502447">
   <rect x="46.965625" y="7.2" width="334.8" height="221.76"/>
  </clipPath>
 </defs>
</svg>
