<?xml version="1.0" encoding="utf-8" standalone="no"?>
<!DOCTYPE svg PUBLIC "-//W3C//DTD SVG 1.1//EN"
  "http://www.w3.org/Graphics/SVG/1.1/DTD/svg11.dtd">
<svg xmlns:xlink="http://www.w3.org/1999/xlink" width="388.965625pt" height="267.106365pt" viewBox="0 0 388.965625 267.106365" xmlns="http://www.w3.org/2000/svg" version="1.1">
 <metadata>
  <rdf:RDF xmlns:dc="http://purl.org/dc/elements/1.1/" xmlns:cc="http://creativecommons.org/ns#" xmlns:rdf="http://www.w3.org/1999/02/22-rdf-syntax-ns#">
   <cc:Work>
    <dc:type rdf:resource="http://purl.org/dc/dcmitype/StillImage"/>
    <dc:date>2025-05-26T10:49:52.711076</dc:date>
    <dc:format>image/svg+xml</dc:format>
    <dc:creator>
     <cc:Agent>
      <dc:title>Matplotlib v3.10.3, https://matplotlib.org/</dc:title>
     </cc:Agent>
    </dc:creator>
   </cc:Work>
  </rdf:RDF>
 </metadata>
 <defs>
  <style type="text/css">*{stroke-linejoin: round; stroke-linecap: butt}</style>
 </defs>
 <g id="figure_1">
  <g id="patch_1">
   <path d="M 0 267.106365 
L 388.965625 267.106365 
L 388.965625 0 
L 0 0 
z
" style="fill: #ffffff"/>
  </g>
  <g id="axes_1">
   <g id="patch_2">
    <path d="M 46.965625 229.27199 
L 381.765625 229.27199 
L 381.765625 7.51199 
L 46.965625 7.51199 
z
" style="fill: #ffffff"/>
   </g>
   <g id="matplotlib.axis_1">
    <g id="xtick_1">
     <g id="line2d_1">
      <defs>
       <path id="m98d0d1c2c1" d="M 0 0 
L 0 3.5 
" style="stroke: #000000; stroke-width: 0.8"/>
      </defs>
      <g>
       <use xlink:href="#m98d0d1c2c1" x="62.18321" y="229.27199" style="stroke: #000000; stroke-width: 0.8"/>
      </g>
     </g>
     <g id="text_1">
      <!-- 0 -->
      <g transform="translate(59.00196 243.870427) scale(0.1 -0.1)">
       <defs>
        <path id="DejaVuSans-30" d="M 2034 4250 
Q 1547 4250 1301 3770 
Q 1056 3291 1056 2328 
Q 1056 1369 1301 889 
Q 1547 409 2034 409 
Q 2525 409 2770 889 
Q 3016 1369 3016 2328 
Q 3016 3291 2770 3770 
Q 2525 4250 2034 4250 
z
M 2034 4750 
Q 2819 4750 3233 4129 
Q 3647 3509 3647 2328 
Q 3647 1150 3233 529 
Q 2819 -91 2034 -91 
Q 1250 -91 836 529 
Q 422 1150 422 2328 
Q 422 3509 836 4129 
Q 1250 4750 2034 4750 
z
" transform="scale(0.015625)"/>
       </defs>
       <use xlink:href="#DejaVuSans-30"/>
      </g>
     </g>
    </g>
    <g id="xtick_2">
     <g id="line2d_2">
      <g>
       <use xlink:href="#m98d0d1c2c1" x="104.794296" y="229.27199" style="stroke: #000000; stroke-width: 0.8"/>
      </g>
     </g>
     <g id="text_2">
      <!-- 10000 -->
      <g transform="translate(88.888046 243.870427) scale(0.1 -0.1)">
       <defs>
        <path id="DejaVuSans-31" d="M 794 531 
L 1825 531 
L 1825 4091 
L 703 3866 
L 703 4441 
L 1819 4666 
L 2450 4666 
L 2450 531 
L 3481 531 
L 3481 0 
L 794 0 
L 794 531 
z
" transform="scale(0.015625)"/>
       </defs>
       <use xlink:href="#DejaVuSans-31"/>
       <use xlink:href="#DejaVuSans-30" transform="translate(63.623047 0)"/>
       <use xlink:href="#DejaVuSans-30" transform="translate(127.246094 0)"/>
       <use xlink:href="#DejaVuSans-30" transform="translate(190.869141 0)"/>
       <use xlink:href="#DejaVuSans-30" transform="translate(254.492188 0)"/>
      </g>
     </g>
    </g>
    <g id="xtick_3">
     <g id="line2d_3">
      <g>
       <use xlink:href="#m98d0d1c2c1" x="147.405383" y="229.27199" style="stroke: #000000; stroke-width: 0.8"/>
      </g>
     </g>
     <g id="text_3">
      <!-- 20000 -->
      <g transform="translate(131.499133 243.870427) scale(0.1 -0.1)">
       <defs>
        <path id="DejaVuSans-32" d="M 1228 531 
L 3431 531 
L 3431 0 
L 469 0 
L 469 531 
Q 828 903 1448 1529 
Q 2069 2156 2228 2338 
Q 2531 2678 2651 2914 
Q 2772 3150 2772 3378 
Q 2772 3750 2511 3984 
Q 2250 4219 1831 4219 
Q 1534 4219 1204 4116 
Q 875 4013 500 3803 
L 500 4441 
Q 881 4594 1212 4672 
Q 1544 4750 1819 4750 
Q 2544 4750 2975 4387 
Q 3406 4025 3406 3419 
Q 3406 3131 3298 2873 
Q 3191 2616 2906 2266 
Q 2828 2175 2409 1742 
Q 1991 1309 1228 531 
z
" transform="scale(0.015625)"/>
       </defs>
       <use xlink:href="#DejaVuSans-32"/>
       <use xlink:href="#DejaVuSans-30" transform="translate(63.623047 0)"/>
       <use xlink:href="#DejaVuSans-30" transform="translate(127.246094 0)"/>
       <use xlink:href="#DejaVuSans-30" transform="translate(190.869141 0)"/>
       <use xlink:href="#DejaVuSans-30" transform="translate(254.492188 0)"/>
      </g>
     </g>
    </g>
    <g id="xtick_4">
     <g id="line2d_4">
      <g>
       <use xlink:href="#m98d0d1c2c1" x="190.016469" y="229.27199" style="stroke: #000000; stroke-width: 0.8"/>
      </g>
     </g>
     <g id="text_4">
      <!-- 30000 -->
      <g transform="translate(174.110219 243.870427) scale(0.1 -0.1)">
       <defs>
        <path id="DejaVuSans-33" d="M 2597 2516 
Q 3050 2419 3304 2112 
Q 3559 1806 3559 1356 
Q 3559 666 3084 287 
Q 2609 -91 1734 -91 
Q 1441 -91 1130 -33 
Q 819 25 488 141 
L 488 750 
Q 750 597 1062 519 
Q 1375 441 1716 441 
Q 2309 441 2620 675 
Q 2931 909 2931 1356 
Q 2931 1769 2642 2001 
Q 2353 2234 1838 2234 
L 1294 2234 
L 1294 2753 
L 1863 2753 
Q 2328 2753 2575 2939 
Q 2822 3125 2822 3475 
Q 2822 3834 2567 4026 
Q 2313 4219 1838 4219 
Q 1578 4219 1281 4162 
Q 984 4106 628 3988 
L 628 4550 
Q 988 4650 1302 4700 
Q 1616 4750 1894 4750 
Q 2613 4750 3031 4423 
Q 3450 4097 3450 3541 
Q 3450 3153 3228 2886 
Q 3006 2619 2597 2516 
z
" transform="scale(0.015625)"/>
       </defs>
       <use xlink:href="#DejaVuSans-33"/>
       <use xlink:href="#DejaVuSans-30" transform="translate(63.623047 0)"/>
       <use xlink:href="#DejaVuSans-30" transform="translate(127.246094 0)"/>
       <use xlink:href="#DejaVuSans-30" transform="translate(190.869141 0)"/>
       <use xlink:href="#DejaVuSans-30" transform="translate(254.492188 0)"/>
      </g>
     </g>
    </g>
    <g id="xtick_5">
     <g id="line2d_5">
      <g>
       <use xlink:href="#m98d0d1c2c1" x="232.627556" y="229.27199" style="stroke: #000000; stroke-width: 0.8"/>
      </g>
     </g>
     <g id="text_5">
      <!-- 40000 -->
      <g transform="translate(216.721306 243.870427) scale(0.1 -0.1)">
       <defs>
        <path id="DejaVuSans-34" d="M 2419 4116 
L 825 1625 
L 2419 1625 
L 2419 4116 
z
M 2253 4666 
L 3047 4666 
L 3047 1625 
L 3713 1625 
L 3713 1100 
L 3047 1100 
L 3047 0 
L 2419 0 
L 2419 1100 
L 313 1100 
L 313 1709 
L 2253 4666 
z
" transform="scale(0.015625)"/>
       </defs>
       <use xlink:href="#DejaVuSans-34"/>
       <use xlink:href="#DejaVuSans-30" transform="translate(63.623047 0)"/>
       <use xlink:href="#DejaVuSans-30" transform="translate(127.246094 0)"/>
       <use xlink:href="#DejaVuSans-30" transform="translate(190.869141 0)"/>
       <use xlink:href="#DejaVuSans-30" transform="translate(254.492188 0)"/>
      </g>
     </g>
    </g>
    <g id="xtick_6">
     <g id="line2d_6">
      <g>
       <use xlink:href="#m98d0d1c2c1" x="275.238642" y="229.27199" style="stroke: #000000; stroke-width: 0.8"/>
      </g>
     </g>
     <g id="text_6">
      <!-- 50000 -->
      <g transform="translate(259.332392 243.870427) scale(0.1 -0.1)">
       <defs>
        <path id="DejaVuSans-35" d="M 691 4666 
L 3169 4666 
L 3169 4134 
L 1269 4134 
L 1269 2991 
Q 1406 3038 1543 3061 
Q 1681 3084 1819 3084 
Q 2600 3084 3056 2656 
Q 3513 2228 3513 1497 
Q 3513 744 3044 326 
Q 2575 -91 1722 -91 
Q 1428 -91 1123 -41 
Q 819 9 494 109 
L 494 744 
Q 775 591 1075 516 
Q 1375 441 1709 441 
Q 2250 441 2565 725 
Q 2881 1009 2881 1497 
Q 2881 1984 2565 2268 
Q 2250 2553 1709 2553 
Q 1456 2553 1204 2497 
Q 953 2441 691 2322 
L 691 4666 
z
" transform="scale(0.015625)"/>
       </defs>
       <use xlink:href="#DejaVuSans-35"/>
       <use xlink:href="#DejaVuSans-30" transform="translate(63.623047 0)"/>
       <use xlink:href="#DejaVuSans-30" transform="translate(127.246094 0)"/>
       <use xlink:href="#DejaVuSans-30" transform="translate(190.869141 0)"/>
       <use xlink:href="#DejaVuSans-30" transform="translate(254.492188 0)"/>
      </g>
     </g>
    </g>
    <g id="xtick_7">
     <g id="line2d_7">
      <g>
       <use xlink:href="#m98d0d1c2c1" x="317.849729" y="229.27199" style="stroke: #000000; stroke-width: 0.8"/>
      </g>
     </g>
     <g id="text_7">
      <!-- 60000 -->
      <g transform="translate(301.943479 243.870427) scale(0.1 -0.1)">
       <defs>
        <path id="DejaVuSans-36" d="M 2113 2584 
Q 1688 2584 1439 2293 
Q 1191 2003 1191 1497 
Q 1191 994 1439 701 
Q 1688 409 2113 409 
Q 2538 409 2786 701 
Q 3034 994 3034 1497 
Q 3034 2003 2786 2293 
Q 2538 2584 2113 2584 
z
M 3366 4563 
L 3366 3988 
Q 3128 4100 2886 4159 
Q 2644 4219 2406 4219 
Q 1781 4219 1451 3797 
Q 1122 3375 1075 2522 
Q 1259 2794 1537 2939 
Q 1816 3084 2150 3084 
Q 2853 3084 3261 2657 
Q 3669 2231 3669 1497 
Q 3669 778 3244 343 
Q 2819 -91 2113 -91 
Q 1303 -91 875 529 
Q 447 1150 447 2328 
Q 447 3434 972 4092 
Q 1497 4750 2381 4750 
Q 2619 4750 2861 4703 
Q 3103 4656 3366 4563 
z
" transform="scale(0.015625)"/>
       </defs>
       <use xlink:href="#DejaVuSans-36"/>
       <use xlink:href="#DejaVuSans-30" transform="translate(63.623047 0)"/>
       <use xlink:href="#DejaVuSans-30" transform="translate(127.246094 0)"/>
       <use xlink:href="#DejaVuSans-30" transform="translate(190.869141 0)"/>
       <use xlink:href="#DejaVuSans-30" transform="translate(254.492188 0)"/>
      </g>
     </g>
    </g>
    <g id="xtick_8">
     <g id="line2d_8">
      <g>
       <use xlink:href="#m98d0d1c2c1" x="360.460815" y="229.27199" style="stroke: #000000; stroke-width: 0.8"/>
      </g>
     </g>
     <g id="text_8">
      <!-- 70000 -->
      <g transform="translate(344.554565 243.870427) scale(0.1 -0.1)">
       <defs>
        <path id="DejaVuSans-37" d="M 525 4666 
L 3525 4666 
L 3525 4397 
L 1831 0 
L 1172 0 
L 2766 4134 
L 525 4134 
L 525 4666 
z
" transform="scale(0.015625)"/>
       </defs>
       <use xlink:href="#DejaVuSans-37"/>
       <use xlink:href="#DejaVuSans-30" transform="translate(63.623047 0)"/>
       <use xlink:href="#DejaVuSans-30" transform="translate(127.246094 0)"/>
       <use xlink:href="#DejaVuSans-30" transform="translate(190.869141 0)"/>
       <use xlink:href="#DejaVuSans-30" transform="translate(254.492188 0)"/>
      </g>
     </g>
    </g>
    <g id="text_9">
     <!-- event_time_offset [µs] -->
     <g transform="translate(158.330469 257.548552) scale(0.1 -0.1)">
      <defs>
       <path id="DejaVuSans-65" d="M 3597 1894 
L 3597 1613 
L 953 1613 
Q 991 1019 1311 708 
Q 1631 397 2203 397 
Q 2534 397 2845 478 
Q 3156 559 3463 722 
L 3463 178 
Q 3153 47 2828 -22 
Q 2503 -91 2169 -91 
Q 1331 -91 842 396 
Q 353 884 353 1716 
Q 353 2575 817 3079 
Q 1281 3584 2069 3584 
Q 2775 3584 3186 3129 
Q 3597 2675 3597 1894 
z
M 3022 2063 
Q 3016 2534 2758 2815 
Q 2500 3097 2075 3097 
Q 1594 3097 1305 2825 
Q 1016 2553 972 2059 
L 3022 2063 
z
" transform="scale(0.015625)"/>
       <path id="DejaVuSans-76" d="M 191 3500 
L 800 3500 
L 1894 563 
L 2988 3500 
L 3597 3500 
L 2284 0 
L 1503 0 
L 191 3500 
z
" transform="scale(0.015625)"/>
       <path id="DejaVuSans-6e" d="M 3513 2113 
L 3513 0 
L 2938 0 
L 2938 2094 
Q 2938 2591 2744 2837 
Q 2550 3084 2163 3084 
Q 1697 3084 1428 2787 
Q 1159 2491 1159 1978 
L 1159 0 
L 581 0 
L 581 3500 
L 1159 3500 
L 1159 2956 
Q 1366 3272 1645 3428 
Q 1925 3584 2291 3584 
Q 2894 3584 3203 3211 
Q 3513 2838 3513 2113 
z
" transform="scale(0.015625)"/>
       <path id="DejaVuSans-74" d="M 1172 4494 
L 1172 3500 
L 2356 3500 
L 2356 3053 
L 1172 3053 
L 1172 1153 
Q 1172 725 1289 603 
Q 1406 481 1766 481 
L 2356 481 
L 2356 0 
L 1766 0 
Q 1100 0 847 248 
Q 594 497 594 1153 
L 594 3053 
L 172 3053 
L 172 3500 
L 594 3500 
L 594 4494 
L 1172 4494 
z
" transform="scale(0.015625)"/>
       <path id="DejaVuSans-5f" d="M 3263 -1063 
L 3263 -1509 
L -63 -1509 
L -63 -1063 
L 3263 -1063 
z
" transform="scale(0.015625)"/>
       <path id="DejaVuSans-69" d="M 603 3500 
L 1178 3500 
L 1178 0 
L 603 0 
L 603 3500 
z
M 603 4863 
L 1178 4863 
L 1178 4134 
L 603 4134 
L 603 4863 
z
" transform="scale(0.015625)"/>
       <path id="DejaVuSans-6d" d="M 3328 2828 
Q 3544 3216 3844 3400 
Q 4144 3584 4550 3584 
Q 5097 3584 5394 3201 
Q 5691 2819 5691 2113 
L 5691 0 
L 5113 0 
L 5113 2094 
Q 5113 2597 4934 2840 
Q 4756 3084 4391 3084 
Q 3944 3084 3684 2787 
Q 3425 2491 3425 1978 
L 3425 0 
L 2847 0 
L 2847 2094 
Q 2847 2600 2669 2842 
Q 2491 3084 2119 3084 
Q 1678 3084 1418 2786 
Q 1159 2488 1159 1978 
L 1159 0 
L 581 0 
L 581 3500 
L 1159 3500 
L 1159 2956 
Q 1356 3278 1631 3431 
Q 1906 3584 2284 3584 
Q 2666 3584 2933 3390 
Q 3200 3197 3328 2828 
z
" transform="scale(0.015625)"/>
       <path id="DejaVuSans-6f" d="M 1959 3097 
Q 1497 3097 1228 2736 
Q 959 2375 959 1747 
Q 959 1119 1226 758 
Q 1494 397 1959 397 
Q 2419 397 2687 759 
Q 2956 1122 2956 1747 
Q 2956 2369 2687 2733 
Q 2419 3097 1959 3097 
z
M 1959 3584 
Q 2709 3584 3137 3096 
Q 3566 2609 3566 1747 
Q 3566 888 3137 398 
Q 2709 -91 1959 -91 
Q 1206 -91 779 398 
Q 353 888 353 1747 
Q 353 2609 779 3096 
Q 1206 3584 1959 3584 
z
" transform="scale(0.015625)"/>
       <path id="DejaVuSans-66" d="M 2375 4863 
L 2375 4384 
L 1825 4384 
Q 1516 4384 1395 4259 
Q 1275 4134 1275 3809 
L 1275 3500 
L 2222 3500 
L 2222 3053 
L 1275 3053 
L 1275 0 
L 697 0 
L 697 3053 
L 147 3053 
L 147 3500 
L 697 3500 
L 697 3744 
Q 697 4328 969 4595 
Q 1241 4863 1831 4863 
L 2375 4863 
z
" transform="scale(0.015625)"/>
       <path id="DejaVuSans-73" d="M 2834 3397 
L 2834 2853 
Q 2591 2978 2328 3040 
Q 2066 3103 1784 3103 
Q 1356 3103 1142 2972 
Q 928 2841 928 2578 
Q 928 2378 1081 2264 
Q 1234 2150 1697 2047 
L 1894 2003 
Q 2506 1872 2764 1633 
Q 3022 1394 3022 966 
Q 3022 478 2636 193 
Q 2250 -91 1575 -91 
Q 1294 -91 989 -36 
Q 684 19 347 128 
L 347 722 
Q 666 556 975 473 
Q 1284 391 1588 391 
Q 1994 391 2212 530 
Q 2431 669 2431 922 
Q 2431 1156 2273 1281 
Q 2116 1406 1581 1522 
L 1381 1569 
Q 847 1681 609 1914 
Q 372 2147 372 2553 
Q 372 3047 722 3315 
Q 1072 3584 1716 3584 
Q 2034 3584 2315 3537 
Q 2597 3491 2834 3397 
z
" transform="scale(0.015625)"/>
       <path id="DejaVuSans-20" transform="scale(0.015625)"/>
       <path id="DejaVuSans-5b" d="M 550 4863 
L 1875 4863 
L 1875 4416 
L 1125 4416 
L 1125 -397 
L 1875 -397 
L 1875 -844 
L 550 -844 
L 550 4863 
z
" transform="scale(0.015625)"/>
       <path id="DejaVuSans-b5" d="M 544 -1331 
L 544 3500 
L 1119 3500 
L 1119 1325 
Q 1119 872 1334 640 
Q 1550 409 1972 409 
Q 2434 409 2667 671 
Q 2900 934 2900 1459 
L 2900 3500 
L 3475 3500 
L 3475 806 
Q 3475 619 3529 530 
Q 3584 441 3700 441 
Q 3728 441 3778 458 
Q 3828 475 3916 513 
L 3916 50 
Q 3788 -22 3673 -56 
Q 3559 -91 3450 -91 
Q 3234 -91 3106 31 
Q 2978 153 2931 403 
Q 2775 156 2548 32 
Q 2322 -91 2016 -91 
Q 1697 -91 1473 31 
Q 1250 153 1119 397 
L 1119 -1331 
L 544 -1331 
z
" transform="scale(0.015625)"/>
       <path id="DejaVuSans-5d" d="M 1947 4863 
L 1947 -844 
L 622 -844 
L 622 -397 
L 1369 -397 
L 1369 4416 
L 622 4416 
L 622 4863 
L 1947 4863 
z
" transform="scale(0.015625)"/>
      </defs>
      <use xlink:href="#DejaVuSans-65"/>
      <use xlink:href="#DejaVuSans-76" transform="translate(61.523438 0)"/>
      <use xlink:href="#DejaVuSans-65" transform="translate(120.703125 0)"/>
      <use xlink:href="#DejaVuSans-6e" transform="translate(182.226562 0)"/>
      <use xlink:href="#DejaVuSans-74" transform="translate(245.605469 0)"/>
      <use xlink:href="#DejaVuSans-5f" transform="translate(284.814453 0)"/>
      <use xlink:href="#DejaVuSans-74" transform="translate(334.814453 0)"/>
      <use xlink:href="#DejaVuSans-69" transform="translate(374.023438 0)"/>
      <use xlink:href="#DejaVuSans-6d" transform="translate(401.806641 0)"/>
      <use xlink:href="#DejaVuSans-65" transform="translate(499.21875 0)"/>
      <use xlink:href="#DejaVuSans-5f" transform="translate(560.742188 0)"/>
      <use xlink:href="#DejaVuSans-6f" transform="translate(610.742188 0)"/>
      <use xlink:href="#DejaVuSans-66" transform="translate(671.923828 0)"/>
      <use xlink:href="#DejaVuSans-66" transform="translate(707.128906 0)"/>
      <use xlink:href="#DejaVuSans-73" transform="translate(742.333984 0)"/>
      <use xlink:href="#DejaVuSans-65" transform="translate(794.433594 0)"/>
      <use xlink:href="#DejaVuSans-74" transform="translate(855.957031 0)"/>
      <use xlink:href="#DejaVuSans-20" transform="translate(895.166016 0)"/>
      <use xlink:href="#DejaVuSans-5b" transform="translate(926.953125 0)"/>
      <use xlink:href="#DejaVuSans-b5" transform="translate(965.966797 0)"/>
      <use xlink:href="#DejaVuSans-73" transform="translate(1029.589844 0)"/>
      <use xlink:href="#DejaVuSans-5d" transform="translate(1081.689453 0)"/>
     </g>
    </g>
   </g>
   <g id="matplotlib.axis_2">
    <g id="ytick_1">
     <g id="line2d_9">
      <defs>
       <path id="mdfe95518dc" d="M 0 0 
L -3.5 0 
" style="stroke: #000000; stroke-width: 0.8"/>
      </defs>
      <g>
       <use xlink:href="#mdfe95518dc" x="46.965625" y="219.19199" style="stroke: #000000; stroke-width: 0.8"/>
      </g>
     </g>
     <g id="text_10">
      <!-- 0 -->
      <g transform="translate(33.603125 222.991209) scale(0.1 -0.1)">
       <use xlink:href="#DejaVuSans-30"/>
      </g>
     </g>
    </g>
    <g id="ytick_2">
     <g id="line2d_10">
      <g>
       <use xlink:href="#mdfe95518dc" x="46.965625" y="184.493195" style="stroke: #000000; stroke-width: 0.8"/>
      </g>
     </g>
     <g id="text_11">
      <!-- 100 -->
      <g transform="translate(20.878125 188.292413) scale(0.1 -0.1)">
       <use xlink:href="#DejaVuSans-31"/>
       <use xlink:href="#DejaVuSans-30" transform="translate(63.623047 0)"/>
       <use xlink:href="#DejaVuSans-30" transform="translate(127.246094 0)"/>
      </g>
     </g>
    </g>
    <g id="ytick_3">
     <g id="line2d_11">
      <g>
       <use xlink:href="#mdfe95518dc" x="46.965625" y="149.794399" style="stroke: #000000; stroke-width: 0.8"/>
      </g>
     </g>
     <g id="text_12">
      <!-- 200 -->
      <g transform="translate(20.878125 153.593618) scale(0.1 -0.1)">
       <use xlink:href="#DejaVuSans-32"/>
       <use xlink:href="#DejaVuSans-30" transform="translate(63.623047 0)"/>
       <use xlink:href="#DejaVuSans-30" transform="translate(127.246094 0)"/>
      </g>
     </g>
    </g>
    <g id="ytick_4">
     <g id="line2d_12">
      <g>
       <use xlink:href="#mdfe95518dc" x="46.965625" y="115.095604" style="stroke: #000000; stroke-width: 0.8"/>
      </g>
     </g>
     <g id="text_13">
      <!-- 300 -->
      <g transform="translate(20.878125 118.894823) scale(0.1 -0.1)">
       <use xlink:href="#DejaVuSans-33"/>
       <use xlink:href="#DejaVuSans-30" transform="translate(63.623047 0)"/>
       <use xlink:href="#DejaVuSans-30" transform="translate(127.246094 0)"/>
      </g>
     </g>
    </g>
    <g id="ytick_5">
     <g id="line2d_13">
      <g>
       <use xlink:href="#mdfe95518dc" x="46.965625" y="80.396809" style="stroke: #000000; stroke-width: 0.8"/>
      </g>
     </g>
     <g id="text_14">
      <!-- 400 -->
      <g transform="translate(20.878125 84.196028) scale(0.1 -0.1)">
       <use xlink:href="#DejaVuSans-34"/>
       <use xlink:href="#DejaVuSans-30" transform="translate(63.623047 0)"/>
       <use xlink:href="#DejaVuSans-30" transform="translate(127.246094 0)"/>
      </g>
     </g>
    </g>
    <g id="ytick_6">
     <g id="line2d_14">
      <g>
       <use xlink:href="#mdfe95518dc" x="46.965625" y="45.698014" style="stroke: #000000; stroke-width: 0.8"/>
      </g>
     </g>
     <g id="text_15">
      <!-- 500 -->
      <g transform="translate(20.878125 49.497233) scale(0.1 -0.1)">
       <use xlink:href="#DejaVuSans-35"/>
       <use xlink:href="#DejaVuSans-30" transform="translate(63.623047 0)"/>
       <use xlink:href="#DejaVuSans-30" transform="translate(127.246094 0)"/>
      </g>
     </g>
    </g>
    <g id="ytick_7">
     <g id="line2d_15">
      <g>
       <use xlink:href="#mdfe95518dc" x="46.965625" y="10.999219" style="stroke: #000000; stroke-width: 0.8"/>
      </g>
     </g>
     <g id="text_16">
      <!-- 600 -->
      <g transform="translate(20.878125 14.798437) scale(0.1 -0.1)">
       <use xlink:href="#DejaVuSans-36"/>
       <use xlink:href="#DejaVuSans-30" transform="translate(63.623047 0)"/>
       <use xlink:href="#DejaVuSans-30" transform="translate(127.246094 0)"/>
      </g>
     </g>
    </g>
    <g id="text_17">
     <!-- [counts] -->
     <g transform="translate(14.798438 139.00449) rotate(-90) scale(0.1 -0.1)">
      <defs>
       <path id="DejaVuSans-63" d="M 3122 3366 
L 3122 2828 
Q 2878 2963 2633 3030 
Q 2388 3097 2138 3097 
Q 1578 3097 1268 2742 
Q 959 2388 959 1747 
Q 959 1106 1268 751 
Q 1578 397 2138 397 
Q 2388 397 2633 464 
Q 2878 531 3122 666 
L 3122 134 
Q 2881 22 2623 -34 
Q 2366 -91 2075 -91 
Q 1284 -91 818 406 
Q 353 903 353 1747 
Q 353 2603 823 3093 
Q 1294 3584 2113 3584 
Q 2378 3584 2631 3529 
Q 2884 3475 3122 3366 
z
" transform="scale(0.015625)"/>
       <path id="DejaVuSans-75" d="M 544 1381 
L 544 3500 
L 1119 3500 
L 1119 1403 
Q 1119 906 1312 657 
Q 1506 409 1894 409 
Q 2359 409 2629 706 
Q 2900 1003 2900 1516 
L 2900 3500 
L 3475 3500 
L 3475 0 
L 2900 0 
L 2900 538 
Q 2691 219 2414 64 
Q 2138 -91 1772 -91 
Q 1169 -91 856 284 
Q 544 659 544 1381 
z
M 1991 3584 
L 1991 3584 
z
" transform="scale(0.015625)"/>
      </defs>
      <use xlink:href="#DejaVuSans-5b"/>
      <use xlink:href="#DejaVuSans-63" transform="translate(39.013672 0)"/>
      <use xlink:href="#DejaVuSans-6f" transform="translate(93.994141 0)"/>
      <use xlink:href="#DejaVuSans-75" transform="translate(155.175781 0)"/>
      <use xlink:href="#DejaVuSans-6e" transform="translate(218.554688 0)"/>
      <use xlink:href="#DejaVuSans-74" transform="translate(281.933594 0)"/>
      <use xlink:href="#DejaVuSans-73" transform="translate(321.142578 0)"/>
      <use xlink:href="#DejaVuSans-5d" transform="translate(373.242188 0)"/>
     </g>
    </g>
   </g>
   <g id="line2d_16">
    <path d="M 62.183807 127.587171 
L 63.198352 127.587171 
L 63.198352 114.05464 
L 64.212898 114.05464 
L 64.212898 135.567893 
L 65.227443 135.567893 
L 65.227443 131.05705 
L 66.241989 131.05705 
L 66.241989 134.179942 
L 67.256534 134.179942 
L 67.256534 131.404038 
L 68.27108 131.404038 
L 68.27108 123.770303 
L 69.285625 123.770303 
L 69.285625 131.05705 
L 70.30017 131.05705 
L 70.30017 128.628134 
L 71.314716 128.628134 
L 71.314716 136.261869 
L 72.329261 136.261869 
L 72.329261 130.710062 
L 73.343807 130.710062 
L 73.343807 139.384761 
L 74.358352 139.384761 
L 74.358352 140.425725 
L 75.372898 140.425725 
L 75.372898 133.485966 
L 76.387443 133.485966 
L 76.387443 131.404038 
L 77.401989 131.404038 
L 77.401989 135.914881 
L 78.416534 135.914881 
L 78.416534 147.365484 
L 79.43108 147.365484 
L 79.43108 146.671508 
L 80.445625 146.671508 
L 80.445625 138.690785 
L 81.46017 138.690785 
L 81.46017 154.652231 
L 82.474716 154.652231 
L 82.474716 146.671508 
L 84.503807 146.671508 
L 84.503807 147.365484 
L 85.518352 147.365484 
L 85.518352 150.835363 
L 86.532898 150.835363 
L 86.532898 156.040183 
L 87.547443 156.040183 
L 87.547443 152.917291 
L 88.561989 152.917291 
L 88.561989 153.611267 
L 89.576534 153.611267 
L 89.576534 146.671508 
L 90.59108 146.671508 
L 90.59108 153.611267 
L 91.605625 153.611267 
L 91.605625 163.673918 
L 92.62017 163.673918 
L 92.62017 154.305243 
L 93.634716 154.305243 
L 93.634716 158.12211 
L 94.649261 158.12211 
L 94.649261 170.266689 
L 95.663807 170.266689 
L 95.663807 170.960665 
L 96.678352 170.960665 
L 96.678352 163.673918 
L 97.692898 163.673918 
L 97.692898 162.632954 
L 98.707443 162.632954 
L 98.707443 173.042592 
L 99.721989 173.042592 
L 99.721989 169.919701 
L 100.736534 169.919701 
L 100.736534 172.001628 
L 101.75108 172.001628 
L 101.75108 174.777532 
L 102.765625 174.777532 
L 102.765625 173.38958 
L 103.78017 173.38958 
L 103.78017 179.982351 
L 104.794716 179.982351 
L 104.794716 171.65464 
L 105.809261 171.65464 
L 105.809261 187.963074 
L 106.823807 187.963074 
L 106.823807 183.452231 
L 107.838352 183.452231 
L 107.838352 177.900424 
L 108.852898 177.900424 
L 108.852898 186.228134 
L 109.867443 186.228134 
L 109.867443 196.290785 
L 110.881989 196.290785 
L 110.881989 190.738978 
L 112.91108 190.738978 
L 112.91108 196.984761 
L 113.925625 196.984761 
L 113.925625 194.555845 
L 114.94017 194.555845 
L 114.94017 193.861869 
L 115.954716 193.861869 
L 115.954716 195.596809 
L 116.969261 195.596809 
L 116.969261 201.495604 
L 117.983807 201.495604 
L 117.983807 202.883556 
L 118.998352 202.883556 
L 118.998352 203.230544 
L 120.012898 203.230544 
L 120.012898 206.700424 
L 121.027443 206.700424 
L 121.027443 204.618496 
L 122.041989 204.618496 
L 122.041989 209.476327 
L 123.056534 209.476327 
L 123.056534 211.558255 
L 124.07108 211.558255 
L 124.07108 211.905243 
L 125.085625 211.905243 
L 125.085625 213.293195 
L 126.10017 213.293195 
L 126.10017 212.252231 
L 127.114716 212.252231 
L 127.114716 216.069098 
L 128.129261 216.069098 
L 128.129261 216.763074 
L 129.143807 216.763074 
L 129.143807 217.45705 
L 130.158352 217.45705 
L 130.158352 217.110062 
L 131.172898 217.110062 
L 131.172898 219.19199 
L 132.187443 219.19199 
L 132.187443 218.845002 
L 133.201989 218.845002 
L 133.201989 218.498014 
L 134.216534 218.498014 
L 134.216534 219.19199 
L 135.23108 219.19199 
L 135.23108 218.845002 
L 136.245625 218.845002 
L 136.245625 219.19199 
L 149.434716 219.19199 
L 149.434716 215.375122 
L 150.449261 215.375122 
L 150.449261 212.946207 
L 151.463807 212.946207 
L 151.463807 207.047412 
L 153.492898 207.047412 
L 153.492898 199.760665 
L 154.507443 199.760665 
L 154.507443 194.555845 
L 155.521989 194.555845 
L 155.521989 186.92211 
L 156.536534 186.92211 
L 156.536534 177.553436 
L 157.55108 177.553436 
L 157.55108 170.266689 
L 158.565625 170.266689 
L 158.565625 173.38958 
L 159.58017 173.38958 
L 159.58017 162.285966 
L 160.594716 162.285966 
L 160.594716 158.816086 
L 161.609261 158.816086 
L 161.609261 148.05946 
L 162.623807 148.05946 
L 162.623807 149.100424 
L 163.638352 149.100424 
L 163.638352 139.384761 
L 164.652898 139.384761 
L 164.652898 137.302833 
L 165.667443 137.302833 
L 165.667443 129.32211 
L 166.681989 129.32211 
L 166.681989 125.852231 
L 167.696534 125.852231 
L 167.696534 119.953436 
L 168.71108 119.953436 
L 168.71108 108.155845 
L 169.725625 108.155845 
L 169.725625 117.52452 
L 170.74017 117.52452 
L 170.74017 103.298014 
L 171.754716 103.298014 
L 171.754716 106.420905 
L 172.769261 106.420905 
L 172.769261 100.52211 
L 173.783807 100.52211 
L 173.783807 86.98958 
L 174.798352 86.98958 
L 174.798352 80.396809 
L 175.812898 80.396809 
L 175.812898 78.314881 
L 176.827443 78.314881 
L 176.827443 79.702833 
L 177.841989 79.702833 
L 177.841989 89.418496 
L 178.856534 89.418496 
L 178.856534 63.741387 
L 179.87108 63.741387 
L 179.87108 74.498014 
L 180.885625 74.498014 
L 180.885625 54.025725 
L 181.90017 54.025725 
L 181.90017 65.476327 
L 182.914716 65.476327 
L 182.914716 58.18958 
L 183.929261 58.18958 
L 183.929261 52.984761 
L 184.943807 52.984761 
L 184.943807 54.025725 
L 185.958352 54.025725 
L 185.958352 50.555845 
L 186.972898 50.555845 
L 186.972898 58.883556 
L 187.987443 58.883556 
L 187.987443 56.45464 
L 189.001989 56.45464 
L 189.001989 32.85946 
L 190.016534 32.85946 
L 190.016534 39.799219 
L 191.03108 39.799219 
L 191.03108 39.105243 
L 192.045625 39.105243 
L 192.045625 35.635363 
L 193.06017 35.635363 
L 193.06017 23.143797 
L 194.074716 23.143797 
L 194.074716 29.736568 
L 195.089261 29.736568 
L 195.089261 39.452231 
L 196.103807 39.452231 
L 196.103807 34.594399 
L 197.118352 34.594399 
L 197.118352 32.165484 
L 198.132898 32.165484 
L 198.132898 28.001628 
L 199.147443 28.001628 
L 199.147443 38.064279 
L 200.161989 38.064279 
L 200.161989 44.310062 
L 201.176534 44.310062 
L 201.176534 43.963074 
L 202.19108 43.963074 
L 202.19108 54.025725 
L 203.205625 54.025725 
L 203.205625 33.900424 
L 204.22017 33.900424 
L 204.22017 39.452231 
L 205.234716 39.452231 
L 205.234716 42.228134 
L 206.249261 42.228134 
L 206.249261 39.452231 
L 207.263807 39.452231 
L 207.263807 51.249821 
L 208.278352 51.249821 
L 208.278352 39.799219 
L 209.292898 39.799219 
L 209.292898 60.618496 
L 210.307443 60.618496 
L 210.307443 63.047412 
L 211.321989 63.047412 
L 211.321989 66.170303 
L 212.336534 66.170303 
L 212.336534 57.842592 
L 213.35108 57.842592 
L 213.35108 73.804038 
L 214.365625 73.804038 
L 214.365625 56.45464 
L 215.38017 56.45464 
L 215.38017 57.148616 
L 216.394716 57.148616 
L 216.394716 71.72211 
L 217.409261 71.72211 
L 217.409261 68.946207 
L 218.423807 68.946207 
L 218.423807 66.170303 
L 219.438352 66.170303 
L 219.438352 64.435363 
L 220.452898 64.435363 
L 220.452898 62.700424 
L 221.467443 62.700424 
L 221.467443 55.760665 
L 222.481989 55.760665 
L 222.481989 68.946207 
L 223.496534 68.946207 
L 223.496534 63.047412 
L 224.51108 63.047412 
L 224.51108 73.110062 
L 225.525625 73.110062 
L 225.525625 68.599219 
L 226.54017 68.599219 
L 226.54017 79.008857 
L 227.554716 79.008857 
L 227.554716 63.047412 
L 228.569261 63.047412 
L 228.569261 77.273918 
L 229.583807 77.273918 
L 229.583807 65.823315 
L 230.598352 65.823315 
L 230.598352 82.825725 
L 231.612898 82.825725 
L 231.612898 60.965484 
L 232.627443 60.965484 
L 232.627443 87.336568 
L 233.641989 87.336568 
L 233.641989 86.642592 
L 234.656534 86.642592 
L 234.656534 83.519701 
L 235.67108 83.519701 
L 235.67108 80.743797 
L 236.685625 80.743797 
L 236.685625 82.825725 
L 237.70017 82.825725 
L 237.70017 86.295604 
L 238.714716 86.295604 
L 238.714716 69.640183 
L 239.729261 69.640183 
L 239.729261 66.170303 
L 240.743807 66.170303 
L 240.743807 83.519701 
L 241.758352 83.519701 
L 241.758352 79.008857 
L 242.772898 79.008857 
L 242.772898 97.746207 
L 243.787443 97.746207 
L 243.787443 67.211267 
L 244.801989 67.211267 
L 244.801989 79.702833 
L 245.816534 79.702833 
L 245.816534 76.232954 
L 246.83108 76.232954 
L 246.83108 75.19199 
L 247.845625 75.19199 
L 247.845625 88.377532 
L 248.86017 88.377532 
L 248.86017 86.98958 
L 249.874716 86.98958 
L 249.874716 87.683556 
L 250.889261 87.683556 
L 250.889261 102.951026 
L 251.903807 102.951026 
L 251.903807 100.175122 
L 252.918352 100.175122 
L 252.918352 90.806448 
L 253.932898 90.806448 
L 253.932898 100.52211 
L 254.947443 100.52211 
L 254.947443 103.645002 
L 255.961989 103.645002 
L 255.961989 100.869098 
L 256.976534 100.869098 
L 256.976534 108.502833 
L 257.99108 108.502833 
L 257.99108 114.748616 
L 259.005625 114.748616 
L 259.005625 114.401628 
L 260.02017 114.401628 
L 260.02017 115.095604 
L 261.034716 115.095604 
L 261.034716 127.934159 
L 262.049261 127.934159 
L 262.049261 131.751026 
L 263.063807 131.751026 
L 263.063807 130.710062 
L 264.078352 130.710062 
L 264.078352 137.302833 
L 265.092898 137.302833 
L 265.092898 145.630544 
L 266.107443 145.630544 
L 266.107443 145.283556 
L 267.121989 145.283556 
L 267.121989 148.753436 
L 268.136534 148.753436 
L 268.136534 154.999219 
L 269.15108 154.999219 
L 269.15108 171.65464 
L 270.165625 171.65464 
L 270.165625 167.837773 
L 271.18017 167.837773 
L 271.18017 172.695604 
L 272.194716 172.695604 
L 272.194716 178.247412 
L 273.209261 178.247412 
L 273.209261 174.083556 
L 274.223807 174.083556 
L 274.223807 183.452231 
L 275.238352 183.452231 
L 275.238352 193.861869 
L 276.252898 193.861869 
L 276.252898 195.943797 
L 277.267443 195.943797 
L 277.267443 201.495604 
L 278.281989 201.495604 
L 278.281989 200.801628 
L 279.296534 200.801628 
L 279.296534 201.842592 
L 280.31108 201.842592 
L 280.31108 208.782351 
L 281.325625 208.782351 
L 281.325625 212.946207 
L 282.34017 212.946207 
L 282.34017 214.334159 
L 283.354716 214.334159 
L 283.354716 212.599219 
L 284.369261 212.599219 
L 284.369261 216.069098 
L 285.383807 216.069098 
L 285.383807 218.498014 
L 286.398352 218.498014 
L 286.398352 219.19199 
L 298.572898 219.19199 
L 298.572898 214.681146 
L 299.587443 214.681146 
L 299.587443 206.700424 
L 300.601989 206.700424 
L 300.601989 205.65946 
L 301.616534 205.65946 
L 301.616534 198.719701 
L 302.63108 198.719701 
L 302.63108 198.025725 
L 303.645625 198.025725 
L 303.645625 190.738978 
L 304.66017 190.738978 
L 304.66017 191.432954 
L 305.674716 191.432954 
L 305.674716 182.758255 
L 306.689261 182.758255 
L 306.689261 169.919701 
L 307.703807 169.919701 
L 307.703807 183.452231 
L 308.718352 183.452231 
L 308.718352 168.184761 
L 309.732898 168.184761 
L 309.732898 171.307652 
L 310.747443 171.307652 
L 310.747443 161.938978 
L 311.761989 161.938978 
L 311.761989 162.979942 
L 312.776534 162.979942 
L 312.776534 160.551026 
L 313.79108 160.551026 
L 313.79108 155.346207 
L 314.805625 155.346207 
L 314.805625 159.510062 
L 315.82017 159.510062 
L 315.82017 148.406448 
L 316.834716 148.406448 
L 316.834716 147.712472 
L 317.849261 147.712472 
L 317.849261 144.242592 
L 318.863807 144.242592 
L 318.863807 142.85464 
L 319.878352 142.85464 
L 319.878352 133.485966 
L 320.892898 133.485966 
L 320.892898 130.363074 
L 321.907443 130.363074 
L 321.907443 135.220905 
L 322.921989 135.220905 
L 322.921989 130.363074 
L 324.95108 130.363074 
L 324.95108 125.852231 
L 325.965625 125.852231 
L 325.965625 116.830544 
L 326.98017 116.830544 
L 326.98017 115.442592 
L 327.994716 115.442592 
L 327.994716 114.05464 
L 329.009261 114.05464 
L 329.009261 105.72693 
L 330.023807 105.72693 
L 330.023807 114.401628 
L 331.038352 114.401628 
L 331.038352 103.298014 
L 332.052898 103.298014 
L 332.052898 116.136568 
L 333.067443 116.136568 
L 333.067443 117.177532 
L 334.081989 117.177532 
L 334.081989 105.379942 
L 335.096534 105.379942 
L 335.096534 103.298014 
L 336.11108 103.298014 
L 336.11108 90.45946 
L 337.125625 90.45946 
L 337.125625 115.095604 
L 338.14017 115.095604 
L 338.14017 98.787171 
L 339.154716 98.787171 
L 339.154716 94.970303 
L 340.169261 94.970303 
L 340.169261 90.806448 
L 341.183807 90.806448 
L 341.183807 93.929339 
L 342.198352 93.929339 
L 342.198352 82.131749 
L 343.212898 82.131749 
L 343.212898 85.948616 
L 344.227443 85.948616 
L 344.227443 98.787171 
L 345.241989 98.787171 
L 345.241989 107.461869 
L 346.256534 107.461869 
L 346.256534 97.052231 
L 347.27108 97.052231 
L 347.27108 100.175122 
L 348.285625 100.175122 
L 348.285625 101.216086 
L 349.30017 101.216086 
L 349.30017 84.560665 
L 350.314716 84.560665 
L 350.314716 112.319701 
L 351.329261 112.319701 
L 351.329261 99.481146 
L 352.343807 99.481146 
L 352.343807 103.645002 
L 353.358352 103.645002 
L 353.358352 110.584761 
L 354.372898 110.584761 
L 354.372898 112.319701 
L 355.387443 112.319701 
L 355.387443 110.584761 
L 356.401989 110.584761 
L 356.401989 118.912472 
L 357.416534 118.912472 
L 357.416534 113.013677 
L 358.43108 113.013677 
L 358.43108 110.584761 
L 359.445625 110.584761 
L 359.445625 118.218496 
L 360.46017 118.218496 
L 360.46017 112.666689 
L 362.489261 112.666689 
L 362.489261 117.871508 
L 363.503807 117.871508 
L 363.503807 110.237773 
L 364.518352 110.237773 
L 364.518352 136.261869 
L 365.532898 136.261869 
L 365.532898 124.811267 
L 366.547443 124.811267 
L 366.547443 124.811267 
" clip-path="url(#p0aff8384c1)" style="fill: none; stroke: #1f77b4; stroke-width: 1.5; stroke-linecap: square"/>
   </g>
   <g id="line2d_17">
    <path d="M 62.183807 119.953436 
L 63.198352 119.953436 
L 63.198352 133.138978 
L 64.212898 133.138978 
L 64.212898 130.363074 
L 65.227443 130.363074 
L 65.227443 128.281146 
L 66.241989 128.281146 
L 66.241989 134.52693 
L 67.256534 134.52693 
L 67.256534 139.037773 
L 68.27108 139.037773 
L 68.27108 131.05705 
L 69.285625 131.05705 
L 69.285625 129.669098 
L 70.30017 129.669098 
L 70.30017 134.873918 
L 71.314716 134.873918 
L 71.314716 144.58958 
L 72.329261 144.58958 
L 72.329261 142.507652 
L 73.343807 142.507652 
L 73.343807 139.384761 
L 74.358352 139.384761 
L 74.358352 150.488375 
L 75.372898 150.488375 
L 75.372898 145.977532 
L 76.387443 145.977532 
L 76.387443 145.630544 
L 77.401989 145.630544 
L 77.401989 144.58958 
L 78.416534 144.58958 
L 78.416534 150.488375 
L 79.43108 150.488375 
L 79.43108 153.264279 
L 80.445625 153.264279 
L 80.445625 151.876327 
L 81.46017 151.876327 
L 81.46017 151.182351 
L 82.474716 151.182351 
L 82.474716 145.630544 
L 83.489261 145.630544 
L 83.489261 153.611267 
L 84.503807 153.611267 
L 84.503807 159.85705 
L 85.518352 159.85705 
L 85.518352 154.999219 
L 86.532898 154.999219 
L 86.532898 157.081146 
L 87.547443 157.081146 
L 87.547443 165.755845 
L 88.561989 165.755845 
L 88.561989 172.695604 
L 89.576534 172.695604 
L 89.576534 160.551026 
L 90.59108 160.551026 
L 90.59108 164.020905 
L 91.605625 164.020905 
L 91.605625 170.960665 
L 92.62017 170.960665 
L 92.62017 171.65464 
L 93.634716 171.65464 
L 93.634716 168.878737 
L 94.649261 168.878737 
L 94.649261 173.042592 
L 95.663807 173.042592 
L 95.663807 175.818496 
L 96.678352 175.818496 
L 96.678352 174.777532 
L 97.692898 174.777532 
L 97.692898 179.288375 
L 98.707443 179.288375 
L 98.707443 185.187171 
L 99.721989 185.187171 
L 99.721989 175.12452 
L 100.736534 175.12452 
L 100.736534 183.799219 
L 101.75108 183.799219 
L 101.75108 186.92211 
L 102.765625 186.92211 
L 102.765625 196.637773 
L 103.78017 196.637773 
L 103.78017 191.085966 
L 105.809261 191.085966 
L 105.809261 199.413677 
L 106.823807 199.413677 
L 106.823807 187.616086 
L 107.838352 187.616086 
L 107.838352 199.066689 
L 108.852898 199.066689 
L 108.852898 196.637773 
L 109.867443 196.637773 
L 109.867443 202.883556 
L 110.881989 202.883556 
L 110.881989 202.18958 
L 111.896534 202.18958 
L 111.896534 203.230544 
L 112.91108 203.230544 
L 112.91108 207.741387 
L 113.925625 207.741387 
L 113.925625 206.353436 
L 114.94017 206.353436 
L 114.94017 212.946207 
L 115.954716 212.946207 
L 115.954716 211.558255 
L 116.969261 211.558255 
L 116.969261 211.211267 
L 117.983807 211.211267 
L 117.983807 211.905243 
L 118.998352 211.905243 
L 118.998352 216.416086 
L 120.012898 216.416086 
L 120.012898 216.069098 
L 121.027443 216.069098 
L 121.027443 217.45705 
L 122.041989 217.45705 
L 122.041989 217.110062 
L 123.056534 217.110062 
L 123.056534 219.19199 
L 124.07108 219.19199 
L 124.07108 218.845002 
L 125.085625 218.845002 
L 125.085625 218.498014 
L 126.10017 218.498014 
L 126.10017 219.19199 
L 127.114716 219.19199 
L 127.114716 218.845002 
L 128.129261 218.845002 
L 128.129261 219.19199 
L 147.405625 219.19199 
L 147.405625 218.151026 
L 148.42017 218.151026 
L 148.42017 212.252231 
L 149.434716 212.252231 
L 149.434716 208.088375 
L 150.449261 208.088375 
L 150.449261 207.741387 
L 151.463807 207.741387 
L 151.463807 201.495604 
L 152.478352 201.495604 
L 152.478352 195.249821 
L 153.492898 195.249821 
L 153.492898 191.779942 
L 154.507443 191.779942 
L 154.507443 172.001628 
L 155.521989 172.001628 
L 155.521989 173.736568 
L 156.536534 173.736568 
L 156.536534 170.960665 
L 157.55108 170.960665 
L 157.55108 163.32693 
L 158.565625 163.32693 
L 158.565625 160.898014 
L 159.58017 160.898014 
L 159.58017 143.895604 
L 160.594716 143.895604 
L 160.594716 147.365484 
L 161.609261 147.365484 
L 161.609261 139.384761 
L 162.623807 139.384761 
L 162.623807 134.52693 
L 163.638352 134.52693 
L 163.638352 128.281146 
L 164.652898 128.281146 
L 164.652898 123.076327 
L 165.667443 123.076327 
L 165.667443 118.912472 
L 166.681989 118.912472 
L 166.681989 102.604038 
L 167.696534 102.604038 
L 167.696534 110.584761 
L 168.71108 110.584761 
L 168.71108 106.767893 
L 169.725625 106.767893 
L 169.725625 100.175122 
L 170.74017 100.175122 
L 170.74017 92.888375 
L 171.754716 92.888375 
L 171.754716 81.784761 
L 173.783807 81.784761 
L 173.783807 76.92693 
L 174.798352 76.92693 
L 174.798352 72.763074 
L 175.812898 72.763074 
L 175.812898 79.355845 
L 176.827443 79.355845 
L 176.827443 63.047412 
L 177.841989 63.047412 
L 177.841989 69.293195 
L 178.856534 69.293195 
L 178.856534 55.760665 
L 179.87108 55.760665 
L 179.87108 59.230544 
L 180.885625 59.230544 
L 180.885625 50.208857 
L 181.90017 50.208857 
L 181.90017 46.39199 
L 182.914716 46.39199 
L 182.914716 48.12693 
L 183.929261 48.12693 
L 183.929261 45.004038 
L 184.943807 45.004038 
L 184.943807 60.618496 
L 185.958352 60.618496 
L 185.958352 37.023315 
L 186.972898 37.023315 
L 186.972898 28.001628 
L 187.987443 28.001628 
L 187.987443 42.92211 
L 189.001989 42.92211 
L 189.001989 34.247412 
L 190.016534 34.247412 
L 190.016534 17.59199 
L 191.03108 17.59199 
L 191.03108 18.632954 
L 192.045625 18.632954 
L 192.045625 29.042592 
L 193.06017 29.042592 
L 193.06017 41.534159 
L 194.074716 41.534159 
L 194.074716 27.307652 
L 195.089261 27.307652 
L 195.089261 19.673918 
L 196.103807 19.673918 
L 196.103807 30.430544 
L 197.118352 30.430544 
L 197.118352 41.881146 
L 198.132898 41.881146 
L 198.132898 39.452231 
L 199.147443 39.452231 
L 199.147443 47.432954 
L 200.161989 47.432954 
L 200.161989 38.064279 
L 201.176534 38.064279 
L 201.176534 31.818496 
L 202.19108 31.818496 
L 202.19108 38.758255 
L 203.205625 38.758255 
L 203.205625 33.553436 
L 204.22017 33.553436 
L 204.22017 45.698014 
L 205.234716 45.698014 
L 205.234716 38.411267 
L 206.249261 38.411267 
L 206.249261 56.801628 
L 207.263807 56.801628 
L 207.263807 57.842592 
L 208.278352 57.842592 
L 208.278352 59.92452 
L 209.292898 59.92452 
L 209.292898 64.435363 
L 210.307443 64.435363 
L 210.307443 61.65946 
L 211.321989 61.65946 
L 211.321989 51.943797 
L 212.336534 51.943797 
L 212.336534 56.801628 
L 213.35108 56.801628 
L 213.35108 65.476327 
L 214.365625 65.476327 
L 214.365625 66.517291 
L 215.38017 66.517291 
L 215.38017 59.577532 
L 216.394716 59.577532 
L 216.394716 62.006448 
L 217.409261 62.006448 
L 217.409261 60.618496 
L 218.423807 60.618496 
L 218.423807 45.351026 
L 219.438352 45.351026 
L 219.438352 68.599219 
L 220.452898 68.599219 
L 220.452898 68.252231 
L 221.467443 68.252231 
L 221.467443 59.577532 
L 222.481989 59.577532 
L 222.481989 73.45705 
L 223.496534 73.45705 
L 223.496534 73.110062 
L 224.51108 73.110062 
L 224.51108 65.823315 
L 225.525625 65.823315 
L 225.525625 77.273918 
L 226.54017 77.273918 
L 226.54017 57.842592 
L 227.554716 57.842592 
L 227.554716 65.476327 
L 228.569261 65.476327 
L 228.569261 79.008857 
L 229.583807 79.008857 
L 229.583807 83.866689 
L 230.598352 83.866689 
L 230.598352 73.110062 
L 231.612898 73.110062 
L 231.612898 80.396809 
L 232.627443 80.396809 
L 232.627443 85.25464 
L 233.641989 85.25464 
L 233.641989 79.355845 
L 234.656534 79.355845 
L 234.656534 64.088375 
L 235.67108 64.088375 
L 235.67108 66.517291 
L 236.685625 66.517291 
L 236.685625 77.620905 
L 237.70017 77.620905 
L 237.70017 72.763074 
L 238.714716 72.763074 
L 238.714716 97.052231 
L 239.729261 97.052231 
L 239.729261 65.476327 
L 240.743807 65.476327 
L 240.743807 77.273918 
L 241.758352 77.273918 
L 241.758352 71.375122 
L 242.772898 71.375122 
L 242.772898 73.804038 
L 243.787443 73.804038 
L 243.787443 82.825725 
L 244.801989 82.825725 
L 244.801989 84.907652 
L 246.83108 84.907652 
L 246.83108 99.481146 
L 247.845625 99.481146 
L 247.845625 96.011267 
L 248.86017 96.011267 
L 248.86017 87.336568 
L 249.874716 87.336568 
L 249.874716 100.175122 
L 250.889261 100.175122 
L 250.889261 98.440183 
L 251.903807 98.440183 
L 251.903807 100.52211 
L 252.918352 100.52211 
L 252.918352 108.155845 
L 253.932898 108.155845 
L 253.932898 105.379942 
L 254.947443 105.379942 
L 254.947443 116.136568 
L 255.961989 116.136568 
L 255.961989 114.05464 
L 256.976534 114.05464 
L 256.976534 126.199219 
L 257.99108 126.199219 
L 257.99108 132.098014 
L 259.005625 132.098014 
L 259.005625 133.138978 
L 260.02017 133.138978 
L 260.02017 139.731749 
L 261.034716 139.731749 
L 261.034716 144.242592 
L 262.049261 144.242592 
L 262.049261 138.690785 
L 263.063807 138.690785 
L 263.063807 150.141387 
L 264.078352 150.141387 
L 264.078352 159.163074 
L 265.092898 159.163074 
L 265.092898 169.225725 
L 266.107443 169.225725 
L 266.107443 170.960665 
L 267.121989 170.960665 
L 267.121989 173.736568 
L 269.15108 173.736568 
L 269.15108 178.247412 
L 270.165625 178.247412 
L 270.165625 190.738978 
L 271.18017 190.738978 
L 271.18017 191.432954 
L 272.194716 191.432954 
L 272.194716 197.331749 
L 273.209261 197.331749 
L 273.209261 201.842592 
L 274.223807 201.842592 
L 274.223807 202.883556 
L 275.238352 202.883556 
L 275.238352 204.271508 
L 276.252898 204.271508 
L 276.252898 212.252231 
L 277.267443 212.252231 
L 277.267443 213.640183 
L 278.281989 213.640183 
L 278.281989 214.334159 
L 279.296534 214.334159 
L 279.296534 213.293195 
L 280.31108 213.293195 
L 280.31108 218.498014 
L 281.325625 218.498014 
L 281.325625 219.19199 
L 293.50017 219.19199 
L 293.50017 216.069098 
L 294.514716 216.069098 
L 294.514716 208.435363 
L 295.529261 208.435363 
L 295.529261 204.271508 
L 296.543807 204.271508 
L 296.543807 202.18958 
L 297.558352 202.18958 
L 297.558352 194.902833 
L 298.572898 194.902833 
L 298.572898 190.39199 
L 299.587443 190.39199 
L 299.587443 192.820905 
L 300.601989 192.820905 
L 300.601989 183.105243 
L 301.616534 183.105243 
L 301.616534 167.143797 
L 302.63108 167.143797 
L 302.63108 182.758255 
L 303.645625 182.758255 
L 303.645625 167.143797 
L 304.66017 167.143797 
L 304.66017 171.307652 
L 305.674716 171.307652 
L 305.674716 157.775122 
L 306.689261 157.775122 
L 306.689261 164.020905 
L 307.703807 164.020905 
L 307.703807 157.775122 
L 308.718352 157.775122 
L 308.718352 154.305243 
L 309.732898 154.305243 
L 309.732898 156.734159 
L 310.747443 156.734159 
L 310.747443 144.58958 
L 311.761989 144.58958 
L 311.761989 141.466689 
L 312.776534 141.466689 
L 312.776534 146.32452 
L 313.79108 146.32452 
L 313.79108 137.996809 
L 314.805625 137.996809 
L 314.805625 131.05705 
L 315.82017 131.05705 
L 315.82017 123.423315 
L 316.834716 123.423315 
L 316.834716 139.384761 
L 317.849261 139.384761 
L 317.849261 125.158255 
L 318.863807 125.158255 
L 318.863807 126.893195 
L 319.878352 126.893195 
L 319.878352 120.300424 
L 320.892898 120.300424 
L 320.892898 115.78958 
L 321.907443 115.78958 
L 321.907443 110.931749 
L 322.921989 110.931749 
L 322.921989 107.114881 
L 323.936534 107.114881 
L 323.936534 105.032954 
L 324.95108 105.032954 
L 324.95108 101.216086 
L 325.965625 101.216086 
L 325.965625 118.912472 
L 326.98017 118.912472 
L 326.98017 107.808857 
L 327.994716 107.808857 
L 327.994716 105.72693 
L 329.009261 105.72693 
L 329.009261 107.461869 
L 330.023807 107.461869 
L 330.023807 91.153436 
L 331.038352 91.153436 
L 331.038352 101.563074 
L 332.052898 101.563074 
L 332.052898 99.481146 
L 333.067443 99.481146 
L 333.067443 98.440183 
L 334.081989 98.440183 
L 334.081989 82.478737 
L 335.096534 82.478737 
L 335.096534 90.112472 
L 336.11108 90.112472 
L 336.11108 87.683556 
L 337.125625 87.683556 
L 337.125625 80.396809 
L 338.14017 80.396809 
L 338.14017 93.582351 
L 339.154716 93.582351 
L 339.154716 99.828134 
L 340.169261 99.828134 
L 340.169261 97.052231 
L 341.183807 97.052231 
L 341.183807 97.399219 
L 342.198352 97.399219 
L 342.198352 99.481146 
L 343.212898 99.481146 
L 343.212898 79.355845 
L 344.227443 79.355845 
L 344.227443 110.584761 
L 345.241989 110.584761 
L 345.241989 97.052231 
L 346.256534 97.052231 
L 346.256534 103.645002 
L 347.27108 103.645002 
L 347.27108 102.951026 
L 348.285625 102.951026 
L 348.285625 111.278737 
L 350.314716 111.278737 
L 350.314716 114.748616 
L 351.329261 114.748616 
L 351.329261 107.114881 
L 352.343807 107.114881 
L 352.343807 110.237773 
L 353.358352 110.237773 
L 353.358352 113.013677 
L 354.372898 113.013677 
L 354.372898 113.707652 
L 355.387443 113.707652 
L 355.387443 110.584761 
L 356.401989 110.584761 
L 356.401989 115.78958 
L 357.416534 115.78958 
L 357.416534 115.095604 
L 358.43108 115.095604 
L 358.43108 129.669098 
L 359.445625 129.669098 
L 359.445625 125.505243 
L 360.46017 125.505243 
L 360.46017 111.625725 
L 361.474716 111.625725 
L 361.474716 128.628134 
L 362.489261 128.628134 
L 362.489261 129.32211 
L 363.503807 129.32211 
L 363.503807 132.445002 
L 364.518352 132.445002 
L 364.518352 129.32211 
L 365.532898 129.32211 
L 365.532898 126.199219 
L 366.547443 126.199219 
L 366.547443 126.199219 
" clip-path="url(#p0aff8384c1)" style="fill: none; stroke: #ff7f0e; stroke-width: 1.5; stroke-linecap: square"/>
   </g>
   <g id="patch_3">
    <path d="M 46.965625 229.27199 
L 46.965625 7.51199 
" style="fill: none; stroke: #000000; stroke-width: 0.8; stroke-linejoin: miter; stroke-linecap: square"/>
   </g>
   <g id="patch_4">
    <path d="M 381.765625 229.27199 
L 381.765625 7.51199 
" style="fill: none; stroke: #000000; stroke-width: 0.8; stroke-linejoin: miter; stroke-linecap: square"/>
   </g>
   <g id="patch_5">
    <path d="M 46.965625 229.27199 
L 381.765625 229.27199 
" style="fill: none; stroke: #000000; stroke-width: 0.8; stroke-linejoin: miter; stroke-linecap: square"/>
   </g>
   <g id="patch_6">
    <path d="M 46.965625 7.51199 
L 381.765625 7.51199 
" style="fill: none; stroke: #000000; stroke-width: 0.8; stroke-linejoin: miter; stroke-linecap: square"/>
   </g>
   <g id="legend_1">
    <g id="patch_7">
     <path d="M 246.957813 45.42449 
L 374.765625 45.42449 
Q 376.765625 45.42449 376.765625 43.42449 
L 376.765625 14.51199 
Q 376.765625 12.51199 374.765625 12.51199 
L 246.957813 12.51199 
Q 244.957813 12.51199 244.957813 14.51199 
L 244.957813 43.42449 
Q 244.957813 45.42449 246.957813 45.42449 
z
" style="fill: #ffffff; opacity: 0.8; stroke: #cccccc; stroke-linejoin: miter"/>
    </g>
    <g id="line2d_18">
     <path d="M 248.957813 20.610427 
L 248.957813 20.610427 
L 258.957813 20.610427 
L 258.957813 20.610427 
L 268.957813 20.610427 
" style="fill: none; stroke: #1f77b4; stroke-width: 1.5; stroke-linecap: square"/>
    </g>
    <g id="text_18">
     <!-- detector_number:0 -->
     <g transform="translate(276.957813 24.110427) scale(0.1 -0.1)">
      <defs>
       <path id="DejaVuSans-64" d="M 2906 2969 
L 2906 4863 
L 3481 4863 
L 3481 0 
L 2906 0 
L 2906 525 
Q 2725 213 2448 61 
Q 2172 -91 1784 -91 
Q 1150 -91 751 415 
Q 353 922 353 1747 
Q 353 2572 751 3078 
Q 1150 3584 1784 3584 
Q 2172 3584 2448 3432 
Q 2725 3281 2906 2969 
z
M 947 1747 
Q 947 1113 1208 752 
Q 1469 391 1925 391 
Q 2381 391 2643 752 
Q 2906 1113 2906 1747 
Q 2906 2381 2643 2742 
Q 2381 3103 1925 3103 
Q 1469 3103 1208 2742 
Q 947 2381 947 1747 
z
" transform="scale(0.015625)"/>
       <path id="DejaVuSans-72" d="M 2631 2963 
Q 2534 3019 2420 3045 
Q 2306 3072 2169 3072 
Q 1681 3072 1420 2755 
Q 1159 2438 1159 1844 
L 1159 0 
L 581 0 
L 581 3500 
L 1159 3500 
L 1159 2956 
Q 1341 3275 1631 3429 
Q 1922 3584 2338 3584 
Q 2397 3584 2469 3576 
Q 2541 3569 2628 3553 
L 2631 2963 
z
" transform="scale(0.015625)"/>
       <path id="DejaVuSans-62" d="M 3116 1747 
Q 3116 2381 2855 2742 
Q 2594 3103 2138 3103 
Q 1681 3103 1420 2742 
Q 1159 2381 1159 1747 
Q 1159 1113 1420 752 
Q 1681 391 2138 391 
Q 2594 391 2855 752 
Q 3116 1113 3116 1747 
z
M 1159 2969 
Q 1341 3281 1617 3432 
Q 1894 3584 2278 3584 
Q 2916 3584 3314 3078 
Q 3713 2572 3713 1747 
Q 3713 922 3314 415 
Q 2916 -91 2278 -91 
Q 1894 -91 1617 61 
Q 1341 213 1159 525 
L 1159 0 
L 581 0 
L 581 4863 
L 1159 4863 
L 1159 2969 
z
" transform="scale(0.015625)"/>
       <path id="DejaVuSans-3a" d="M 750 794 
L 1409 794 
L 1409 0 
L 750 0 
L 750 794 
z
M 750 3309 
L 1409 3309 
L 1409 2516 
L 750 2516 
L 750 3309 
z
" transform="scale(0.015625)"/>
      </defs>
      <use xlink:href="#DejaVuSans-64"/>
      <use xlink:href="#DejaVuSans-65" transform="translate(63.476562 0)"/>
      <use xlink:href="#DejaVuSans-74" transform="translate(125 0)"/>
      <use xlink:href="#DejaVuSans-65" transform="translate(164.208984 0)"/>
      <use xlink:href="#DejaVuSans-63" transform="translate(225.732422 0)"/>
      <use xlink:href="#DejaVuSans-74" transform="translate(280.712891 0)"/>
      <use xlink:href="#DejaVuSans-6f" transform="translate(319.921875 0)"/>
      <use xlink:href="#DejaVuSans-72" transform="translate(381.103516 0)"/>
      <use xlink:href="#DejaVuSans-5f" transform="translate(422.216797 0)"/>
      <use xlink:href="#DejaVuSans-6e" transform="translate(472.216797 0)"/>
      <use xlink:href="#DejaVuSans-75" transform="translate(535.595703 0)"/>
      <use xlink:href="#DejaVuSans-6d" transform="translate(598.974609 0)"/>
      <use xlink:href="#DejaVuSans-62" transform="translate(696.386719 0)"/>
      <use xlink:href="#DejaVuSans-65" transform="translate(759.863281 0)"/>
      <use xlink:href="#DejaVuSans-72" transform="translate(821.386719 0)"/>
      <use xlink:href="#DejaVuSans-3a" transform="translate(860.75 0)"/>
      <use xlink:href="#DejaVuSans-30" transform="translate(894.441406 0)"/>
     </g>
    </g>
    <g id="line2d_19">
     <path d="M 248.957813 35.566677 
L 248.957813 35.566677 
L 258.957813 35.566677 
L 258.957813 35.566677 
L 268.957813 35.566677 
" style="fill: none; stroke: #ff7f0e; stroke-width: 1.5; stroke-linecap: square"/>
    </g>
    <g id="text_19">
     <!-- detector_number:1 -->
     <g transform="translate(276.957813 39.066677) scale(0.1 -0.1)">
      <use xlink:href="#DejaVuSans-64"/>
      <use xlink:href="#DejaVuSans-65" transform="translate(63.476562 0)"/>
      <use xlink:href="#DejaVuSans-74" transform="translate(125 0)"/>
      <use xlink:href="#DejaVuSans-65" transform="translate(164.208984 0)"/>
      <use xlink:href="#DejaVuSans-63" transform="translate(225.732422 0)"/>
      <use xlink:href="#DejaVuSans-74" transform="translate(280.712891 0)"/>
      <use xlink:href="#DejaVuSans-6f" transform="translate(319.921875 0)"/>
      <use xlink:href="#DejaVuSans-72" transform="translate(381.103516 0)"/>
      <use xlink:href="#DejaVuSans-5f" transform="translate(422.216797 0)"/>
      <use xlink:href="#DejaVuSans-6e" transform="translate(472.216797 0)"/>
      <use xlink:href="#DejaVuSans-75" transform="translate(535.595703 0)"/>
      <use xlink:href="#DejaVuSans-6d" transform="translate(598.974609 0)"/>
      <use xlink:href="#DejaVuSans-62" transform="translate(696.386719 0)"/>
      <use xlink:href="#DejaVuSans-65" transform="translate(759.863281 0)"/>
      <use xlink:href="#DejaVuSans-72" transform="translate(821.386719 0)"/>
      <use xlink:href="#DejaVuSans-3a" transform="translate(860.75 0)"/>
      <use xlink:href="#DejaVuSans-31" transform="translate(894.441406 0)"/>
     </g>
    </g>
   </g>
  </g>
 </g>
 <defs>
  <clipPath id="p0aff8384c1">
   <rect x="46.965625" y="7.51199" width="334.8" height="221.76"/>
  </clipPath>
 </defs>
</svg>
