<?xml version="1.0" encoding="utf-8" standalone="no"?>
<!DOCTYPE svg PUBLIC "-//W3C//DTD SVG 1.1//EN"
  "http://www.w3.org/Graphics/SVG/1.1/DTD/svg11.dtd">
<svg xmlns:xlink="http://www.w3.org/1999/xlink" width="401.690625pt" height="266.51625pt" viewBox="0 0 401.690625 266.51625" xmlns="http://www.w3.org/2000/svg" version="1.1">
 <metadata>
  <rdf:RDF xmlns:dc="http://purl.org/dc/elements/1.1/" xmlns:cc="http://creativecommons.org/ns#" xmlns:rdf="http://www.w3.org/1999/02/22-rdf-syntax-ns#">
   <cc:Work>
    <dc:type rdf:resource="http://purl.org/dc/dcmitype/StillImage"/>
    <dc:date>2025-05-14T12:11:13.440156</dc:date>
    <dc:format>image/svg+xml</dc:format>
    <dc:creator>
     <cc:Agent>
      <dc:title>Matplotlib v3.10.1, https://matplotlib.org/</dc:title>
     </cc:Agent>
    </dc:creator>
   </cc:Work>
  </rdf:RDF>
 </metadata>
 <defs>
  <style type="text/css">*{stroke-linejoin: round; stroke-linecap: butt}</style>
 </defs>
 <g id="figure_1">
  <g id="patch_1">
   <path d="M 0 266.51625 
L 401.690625 266.51625 
L 401.690625 0 
L 0 0 
z
" style="fill: #ffffff"/>
  </g>
  <g id="axes_1">
   <g id="patch_2">
    <path d="M 59.690625 228.96 
L 394.490625 228.96 
L 394.490625 7.2 
L 59.690625 7.2 
z
" style="fill: #ffffff"/>
   </g>
   <g id="matplotlib.axis_1">
    <g id="xtick_1">
     <g id="line2d_1">
      <defs>
       <path id="m2567c961db" d="M 0 0 
L 0 3.5 
" style="stroke: #000000; stroke-width: 0.8"/>
      </defs>
      <g>
       <use xlink:href="#m2567c961db" x="79.891114" y="228.96" style="stroke: #000000; stroke-width: 0.8"/>
      </g>
     </g>
     <g id="text_1">
      <!-- 20000 -->
      <g transform="translate(63.984864 243.558437) scale(0.1 -0.1)">
       <defs>
        <path id="DejaVuSans-32" d="M 1228 531 
L 3431 531 
L 3431 0 
L 469 0 
L 469 531 
Q 828 903 1448 1529 
Q 2069 2156 2228 2338 
Q 2531 2678 2651 2914 
Q 2772 3150 2772 3378 
Q 2772 3750 2511 3984 
Q 2250 4219 1831 4219 
Q 1534 4219 1204 4116 
Q 875 4013 500 3803 
L 500 4441 
Q 881 4594 1212 4672 
Q 1544 4750 1819 4750 
Q 2544 4750 2975 4387 
Q 3406 4025 3406 3419 
Q 3406 3131 3298 2873 
Q 3191 2616 2906 2266 
Q 2828 2175 2409 1742 
Q 1991 1309 1228 531 
z
" transform="scale(0.015625)"/>
        <path id="DejaVuSans-30" d="M 2034 4250 
Q 1547 4250 1301 3770 
Q 1056 3291 1056 2328 
Q 1056 1369 1301 889 
Q 1547 409 2034 409 
Q 2525 409 2770 889 
Q 3016 1369 3016 2328 
Q 3016 3291 2770 3770 
Q 2525 4250 2034 4250 
z
M 2034 4750 
Q 2819 4750 3233 4129 
Q 3647 3509 3647 2328 
Q 3647 1150 3233 529 
Q 2819 -91 2034 -91 
Q 1250 -91 836 529 
Q 422 1150 422 2328 
Q 422 3509 836 4129 
Q 1250 4750 2034 4750 
z
" transform="scale(0.015625)"/>
       </defs>
       <use xlink:href="#DejaVuSans-32"/>
       <use xlink:href="#DejaVuSans-30" transform="translate(63.623047 0)"/>
       <use xlink:href="#DejaVuSans-30" transform="translate(127.246094 0)"/>
       <use xlink:href="#DejaVuSans-30" transform="translate(190.869141 0)"/>
       <use xlink:href="#DejaVuSans-30" transform="translate(254.492188 0)"/>
      </g>
     </g>
    </g>
    <g id="xtick_2">
     <g id="line2d_2">
      <g>
       <use xlink:href="#m2567c961db" x="120.608657" y="228.96" style="stroke: #000000; stroke-width: 0.8"/>
      </g>
     </g>
     <g id="text_2">
      <!-- 40000 -->
      <g transform="translate(104.702407 243.558437) scale(0.1 -0.1)">
       <defs>
        <path id="DejaVuSans-34" d="M 2419 4116 
L 825 1625 
L 2419 1625 
L 2419 4116 
z
M 2253 4666 
L 3047 4666 
L 3047 1625 
L 3713 1625 
L 3713 1100 
L 3047 1100 
L 3047 0 
L 2419 0 
L 2419 1100 
L 313 1100 
L 313 1709 
L 2253 4666 
z
" transform="scale(0.015625)"/>
       </defs>
       <use xlink:href="#DejaVuSans-34"/>
       <use xlink:href="#DejaVuSans-30" transform="translate(63.623047 0)"/>
       <use xlink:href="#DejaVuSans-30" transform="translate(127.246094 0)"/>
       <use xlink:href="#DejaVuSans-30" transform="translate(190.869141 0)"/>
       <use xlink:href="#DejaVuSans-30" transform="translate(254.492188 0)"/>
      </g>
     </g>
    </g>
    <g id="xtick_3">
     <g id="line2d_3">
      <g>
       <use xlink:href="#m2567c961db" x="161.326201" y="228.96" style="stroke: #000000; stroke-width: 0.8"/>
      </g>
     </g>
     <g id="text_3">
      <!-- 60000 -->
      <g transform="translate(145.419951 243.558437) scale(0.1 -0.1)">
       <defs>
        <path id="DejaVuSans-36" d="M 2113 2584 
Q 1688 2584 1439 2293 
Q 1191 2003 1191 1497 
Q 1191 994 1439 701 
Q 1688 409 2113 409 
Q 2538 409 2786 701 
Q 3034 994 3034 1497 
Q 3034 2003 2786 2293 
Q 2538 2584 2113 2584 
z
M 3366 4563 
L 3366 3988 
Q 3128 4100 2886 4159 
Q 2644 4219 2406 4219 
Q 1781 4219 1451 3797 
Q 1122 3375 1075 2522 
Q 1259 2794 1537 2939 
Q 1816 3084 2150 3084 
Q 2853 3084 3261 2657 
Q 3669 2231 3669 1497 
Q 3669 778 3244 343 
Q 2819 -91 2113 -91 
Q 1303 -91 875 529 
Q 447 1150 447 2328 
Q 447 3434 972 4092 
Q 1497 4750 2381 4750 
Q 2619 4750 2861 4703 
Q 3103 4656 3366 4563 
z
" transform="scale(0.015625)"/>
       </defs>
       <use xlink:href="#DejaVuSans-36"/>
       <use xlink:href="#DejaVuSans-30" transform="translate(63.623047 0)"/>
       <use xlink:href="#DejaVuSans-30" transform="translate(127.246094 0)"/>
       <use xlink:href="#DejaVuSans-30" transform="translate(190.869141 0)"/>
       <use xlink:href="#DejaVuSans-30" transform="translate(254.492188 0)"/>
      </g>
     </g>
    </g>
    <g id="xtick_4">
     <g id="line2d_4">
      <g>
       <use xlink:href="#m2567c961db" x="202.043744" y="228.96" style="stroke: #000000; stroke-width: 0.8"/>
      </g>
     </g>
     <g id="text_4">
      <!-- 80000 -->
      <g transform="translate(186.137494 243.558437) scale(0.1 -0.1)">
       <defs>
        <path id="DejaVuSans-38" d="M 2034 2216 
Q 1584 2216 1326 1975 
Q 1069 1734 1069 1313 
Q 1069 891 1326 650 
Q 1584 409 2034 409 
Q 2484 409 2743 651 
Q 3003 894 3003 1313 
Q 3003 1734 2745 1975 
Q 2488 2216 2034 2216 
z
M 1403 2484 
Q 997 2584 770 2862 
Q 544 3141 544 3541 
Q 544 4100 942 4425 
Q 1341 4750 2034 4750 
Q 2731 4750 3128 4425 
Q 3525 4100 3525 3541 
Q 3525 3141 3298 2862 
Q 3072 2584 2669 2484 
Q 3125 2378 3379 2068 
Q 3634 1759 3634 1313 
Q 3634 634 3220 271 
Q 2806 -91 2034 -91 
Q 1263 -91 848 271 
Q 434 634 434 1313 
Q 434 1759 690 2068 
Q 947 2378 1403 2484 
z
M 1172 3481 
Q 1172 3119 1398 2916 
Q 1625 2713 2034 2713 
Q 2441 2713 2670 2916 
Q 2900 3119 2900 3481 
Q 2900 3844 2670 4047 
Q 2441 4250 2034 4250 
Q 1625 4250 1398 4047 
Q 1172 3844 1172 3481 
z
" transform="scale(0.015625)"/>
       </defs>
       <use xlink:href="#DejaVuSans-38"/>
       <use xlink:href="#DejaVuSans-30" transform="translate(63.623047 0)"/>
       <use xlink:href="#DejaVuSans-30" transform="translate(127.246094 0)"/>
       <use xlink:href="#DejaVuSans-30" transform="translate(190.869141 0)"/>
       <use xlink:href="#DejaVuSans-30" transform="translate(254.492188 0)"/>
      </g>
     </g>
    </g>
    <g id="xtick_5">
     <g id="line2d_5">
      <g>
       <use xlink:href="#m2567c961db" x="242.761287" y="228.96" style="stroke: #000000; stroke-width: 0.8"/>
      </g>
     </g>
     <g id="text_5">
      <!-- 100000 -->
      <g transform="translate(223.673787 243.558437) scale(0.1 -0.1)">
       <defs>
        <path id="DejaVuSans-31" d="M 794 531 
L 1825 531 
L 1825 4091 
L 703 3866 
L 703 4441 
L 1819 4666 
L 2450 4666 
L 2450 531 
L 3481 531 
L 3481 0 
L 794 0 
L 794 531 
z
" transform="scale(0.015625)"/>
       </defs>
       <use xlink:href="#DejaVuSans-31"/>
       <use xlink:href="#DejaVuSans-30" transform="translate(63.623047 0)"/>
       <use xlink:href="#DejaVuSans-30" transform="translate(127.246094 0)"/>
       <use xlink:href="#DejaVuSans-30" transform="translate(190.869141 0)"/>
       <use xlink:href="#DejaVuSans-30" transform="translate(254.492188 0)"/>
       <use xlink:href="#DejaVuSans-30" transform="translate(318.115234 0)"/>
      </g>
     </g>
    </g>
    <g id="xtick_6">
     <g id="line2d_6">
      <g>
       <use xlink:href="#m2567c961db" x="283.478831" y="228.96" style="stroke: #000000; stroke-width: 0.8"/>
      </g>
     </g>
     <g id="text_6">
      <!-- 120000 -->
      <g transform="translate(264.391331 243.558437) scale(0.1 -0.1)">
       <use xlink:href="#DejaVuSans-31"/>
       <use xlink:href="#DejaVuSans-32" transform="translate(63.623047 0)"/>
       <use xlink:href="#DejaVuSans-30" transform="translate(127.246094 0)"/>
       <use xlink:href="#DejaVuSans-30" transform="translate(190.869141 0)"/>
       <use xlink:href="#DejaVuSans-30" transform="translate(254.492188 0)"/>
       <use xlink:href="#DejaVuSans-30" transform="translate(318.115234 0)"/>
      </g>
     </g>
    </g>
    <g id="xtick_7">
     <g id="line2d_7">
      <g>
       <use xlink:href="#m2567c961db" x="324.196374" y="228.96" style="stroke: #000000; stroke-width: 0.8"/>
      </g>
     </g>
     <g id="text_7">
      <!-- 140000 -->
      <g transform="translate(305.108874 243.558437) scale(0.1 -0.1)">
       <use xlink:href="#DejaVuSans-31"/>
       <use xlink:href="#DejaVuSans-34" transform="translate(63.623047 0)"/>
       <use xlink:href="#DejaVuSans-30" transform="translate(127.246094 0)"/>
       <use xlink:href="#DejaVuSans-30" transform="translate(190.869141 0)"/>
       <use xlink:href="#DejaVuSans-30" transform="translate(254.492188 0)"/>
       <use xlink:href="#DejaVuSans-30" transform="translate(318.115234 0)"/>
      </g>
     </g>
    </g>
    <g id="xtick_8">
     <g id="line2d_8">
      <g>
       <use xlink:href="#m2567c961db" x="364.913917" y="228.96" style="stroke: #000000; stroke-width: 0.8"/>
      </g>
     </g>
     <g id="text_8">
      <!-- 160000 -->
      <g transform="translate(345.826417 243.558437) scale(0.1 -0.1)">
       <use xlink:href="#DejaVuSans-31"/>
       <use xlink:href="#DejaVuSans-36" transform="translate(63.623047 0)"/>
       <use xlink:href="#DejaVuSans-30" transform="translate(127.246094 0)"/>
       <use xlink:href="#DejaVuSans-30" transform="translate(190.869141 0)"/>
       <use xlink:href="#DejaVuSans-30" transform="translate(254.492188 0)"/>
       <use xlink:href="#DejaVuSans-30" transform="translate(318.115234 0)"/>
      </g>
     </g>
    </g>
    <g id="text_9">
     <!-- tof [µs] -->
     <g transform="translate(209.034375 257.236562) scale(0.1 -0.1)">
      <defs>
       <path id="DejaVuSans-74" d="M 1172 4494 
L 1172 3500 
L 2356 3500 
L 2356 3053 
L 1172 3053 
L 1172 1153 
Q 1172 725 1289 603 
Q 1406 481 1766 481 
L 2356 481 
L 2356 0 
L 1766 0 
Q 1100 0 847 248 
Q 594 497 594 1153 
L 594 3053 
L 172 3053 
L 172 3500 
L 594 3500 
L 594 4494 
L 1172 4494 
z
" transform="scale(0.015625)"/>
       <path id="DejaVuSans-6f" d="M 1959 3097 
Q 1497 3097 1228 2736 
Q 959 2375 959 1747 
Q 959 1119 1226 758 
Q 1494 397 1959 397 
Q 2419 397 2687 759 
Q 2956 1122 2956 1747 
Q 2956 2369 2687 2733 
Q 2419 3097 1959 3097 
z
M 1959 3584 
Q 2709 3584 3137 3096 
Q 3566 2609 3566 1747 
Q 3566 888 3137 398 
Q 2709 -91 1959 -91 
Q 1206 -91 779 398 
Q 353 888 353 1747 
Q 353 2609 779 3096 
Q 1206 3584 1959 3584 
z
" transform="scale(0.015625)"/>
       <path id="DejaVuSans-66" d="M 2375 4863 
L 2375 4384 
L 1825 4384 
Q 1516 4384 1395 4259 
Q 1275 4134 1275 3809 
L 1275 3500 
L 2222 3500 
L 2222 3053 
L 1275 3053 
L 1275 0 
L 697 0 
L 697 3053 
L 147 3053 
L 147 3500 
L 697 3500 
L 697 3744 
Q 697 4328 969 4595 
Q 1241 4863 1831 4863 
L 2375 4863 
z
" transform="scale(0.015625)"/>
       <path id="DejaVuSans-20" transform="scale(0.015625)"/>
       <path id="DejaVuSans-5b" d="M 550 4863 
L 1875 4863 
L 1875 4416 
L 1125 4416 
L 1125 -397 
L 1875 -397 
L 1875 -844 
L 550 -844 
L 550 4863 
z
" transform="scale(0.015625)"/>
       <path id="DejaVuSans-b5" d="M 544 -1331 
L 544 3500 
L 1119 3500 
L 1119 1325 
Q 1119 872 1334 640 
Q 1550 409 1972 409 
Q 2434 409 2667 671 
Q 2900 934 2900 1459 
L 2900 3500 
L 3475 3500 
L 3475 806 
Q 3475 619 3529 530 
Q 3584 441 3700 441 
Q 3728 441 3778 458 
Q 3828 475 3916 513 
L 3916 50 
Q 3788 -22 3673 -56 
Q 3559 -91 3450 -91 
Q 3234 -91 3106 31 
Q 2978 153 2931 403 
Q 2775 156 2548 32 
Q 2322 -91 2016 -91 
Q 1697 -91 1473 31 
Q 1250 153 1119 397 
L 1119 -1331 
L 544 -1331 
z
" transform="scale(0.015625)"/>
       <path id="DejaVuSans-73" d="M 2834 3397 
L 2834 2853 
Q 2591 2978 2328 3040 
Q 2066 3103 1784 3103 
Q 1356 3103 1142 2972 
Q 928 2841 928 2578 
Q 928 2378 1081 2264 
Q 1234 2150 1697 2047 
L 1894 2003 
Q 2506 1872 2764 1633 
Q 3022 1394 3022 966 
Q 3022 478 2636 193 
Q 2250 -91 1575 -91 
Q 1294 -91 989 -36 
Q 684 19 347 128 
L 347 722 
Q 666 556 975 473 
Q 1284 391 1588 391 
Q 1994 391 2212 530 
Q 2431 669 2431 922 
Q 2431 1156 2273 1281 
Q 2116 1406 1581 1522 
L 1381 1569 
Q 847 1681 609 1914 
Q 372 2147 372 2553 
Q 372 3047 722 3315 
Q 1072 3584 1716 3584 
Q 2034 3584 2315 3537 
Q 2597 3491 2834 3397 
z
" transform="scale(0.015625)"/>
       <path id="DejaVuSans-5d" d="M 1947 4863 
L 1947 -844 
L 622 -844 
L 622 -397 
L 1369 -397 
L 1369 4416 
L 622 4416 
L 622 4863 
L 1947 4863 
z
" transform="scale(0.015625)"/>
      </defs>
      <use xlink:href="#DejaVuSans-74"/>
      <use xlink:href="#DejaVuSans-6f" transform="translate(39.208984 0)"/>
      <use xlink:href="#DejaVuSans-66" transform="translate(100.390625 0)"/>
      <use xlink:href="#DejaVuSans-20" transform="translate(135.595703 0)"/>
      <use xlink:href="#DejaVuSans-5b" transform="translate(167.382812 0)"/>
      <use xlink:href="#DejaVuSans-b5" transform="translate(206.396484 0)"/>
      <use xlink:href="#DejaVuSans-73" transform="translate(270.019531 0)"/>
      <use xlink:href="#DejaVuSans-5d" transform="translate(322.119141 0)"/>
     </g>
    </g>
   </g>
   <g id="matplotlib.axis_2">
    <g id="ytick_1">
     <g id="line2d_9">
      <defs>
       <path id="meebbc32880" d="M 0 0 
L -3.5 0 
" style="stroke: #000000; stroke-width: 0.8"/>
      </defs>
      <g>
       <use xlink:href="#meebbc32880" x="59.690625" y="218.88" style="stroke: #000000; stroke-width: 0.8"/>
      </g>
     </g>
     <g id="text_10">
      <!-- 0 -->
      <g transform="translate(46.328125 222.679219) scale(0.1 -0.1)">
       <use xlink:href="#DejaVuSans-30"/>
      </g>
     </g>
    </g>
    <g id="ytick_2">
     <g id="line2d_10">
      <g>
       <use xlink:href="#meebbc32880" x="59.690625" y="185.686619" style="stroke: #000000; stroke-width: 0.8"/>
      </g>
     </g>
     <g id="text_11">
      <!-- 2000 -->
      <g transform="translate(27.240625 189.485838) scale(0.1 -0.1)">
       <use xlink:href="#DejaVuSans-32"/>
       <use xlink:href="#DejaVuSans-30" transform="translate(63.623047 0)"/>
       <use xlink:href="#DejaVuSans-30" transform="translate(127.246094 0)"/>
       <use xlink:href="#DejaVuSans-30" transform="translate(190.869141 0)"/>
      </g>
     </g>
    </g>
    <g id="ytick_3">
     <g id="line2d_11">
      <g>
       <use xlink:href="#meebbc32880" x="59.690625" y="152.493238" style="stroke: #000000; stroke-width: 0.8"/>
      </g>
     </g>
     <g id="text_12">
      <!-- 4000 -->
      <g transform="translate(27.240625 156.292457) scale(0.1 -0.1)">
       <use xlink:href="#DejaVuSans-34"/>
       <use xlink:href="#DejaVuSans-30" transform="translate(63.623047 0)"/>
       <use xlink:href="#DejaVuSans-30" transform="translate(127.246094 0)"/>
       <use xlink:href="#DejaVuSans-30" transform="translate(190.869141 0)"/>
      </g>
     </g>
    </g>
    <g id="ytick_4">
     <g id="line2d_12">
      <g>
       <use xlink:href="#meebbc32880" x="59.690625" y="119.299857" style="stroke: #000000; stroke-width: 0.8"/>
      </g>
     </g>
     <g id="text_13">
      <!-- 6000 -->
      <g transform="translate(27.240625 123.099076) scale(0.1 -0.1)">
       <use xlink:href="#DejaVuSans-36"/>
       <use xlink:href="#DejaVuSans-30" transform="translate(63.623047 0)"/>
       <use xlink:href="#DejaVuSans-30" transform="translate(127.246094 0)"/>
       <use xlink:href="#DejaVuSans-30" transform="translate(190.869141 0)"/>
      </g>
     </g>
    </g>
    <g id="ytick_5">
     <g id="line2d_13">
      <g>
       <use xlink:href="#meebbc32880" x="59.690625" y="86.106476" style="stroke: #000000; stroke-width: 0.8"/>
      </g>
     </g>
     <g id="text_14">
      <!-- 8000 -->
      <g transform="translate(27.240625 89.905694) scale(0.1 -0.1)">
       <use xlink:href="#DejaVuSans-38"/>
       <use xlink:href="#DejaVuSans-30" transform="translate(63.623047 0)"/>
       <use xlink:href="#DejaVuSans-30" transform="translate(127.246094 0)"/>
       <use xlink:href="#DejaVuSans-30" transform="translate(190.869141 0)"/>
      </g>
     </g>
    </g>
    <g id="ytick_6">
     <g id="line2d_14">
      <g>
       <use xlink:href="#meebbc32880" x="59.690625" y="52.913095" style="stroke: #000000; stroke-width: 0.8"/>
      </g>
     </g>
     <g id="text_15">
      <!-- 10000 -->
      <g transform="translate(20.878125 56.712313) scale(0.1 -0.1)">
       <use xlink:href="#DejaVuSans-31"/>
       <use xlink:href="#DejaVuSans-30" transform="translate(63.623047 0)"/>
       <use xlink:href="#DejaVuSans-30" transform="translate(127.246094 0)"/>
       <use xlink:href="#DejaVuSans-30" transform="translate(190.869141 0)"/>
       <use xlink:href="#DejaVuSans-30" transform="translate(254.492188 0)"/>
      </g>
     </g>
    </g>
    <g id="ytick_7">
     <g id="line2d_15">
      <g>
       <use xlink:href="#meebbc32880" x="59.690625" y="19.719714" style="stroke: #000000; stroke-width: 0.8"/>
      </g>
     </g>
     <g id="text_16">
      <!-- 12000 -->
      <g transform="translate(20.878125 23.518932) scale(0.1 -0.1)">
       <use xlink:href="#DejaVuSans-31"/>
       <use xlink:href="#DejaVuSans-32" transform="translate(63.623047 0)"/>
       <use xlink:href="#DejaVuSans-30" transform="translate(127.246094 0)"/>
       <use xlink:href="#DejaVuSans-30" transform="translate(190.869141 0)"/>
       <use xlink:href="#DejaVuSans-30" transform="translate(254.492188 0)"/>
      </g>
     </g>
    </g>
    <g id="text_17">
     <!-- [counts] -->
     <g transform="translate(14.798438 138.6925) rotate(-90) scale(0.1 -0.1)">
      <defs>
       <path id="DejaVuSans-63" d="M 3122 3366 
L 3122 2828 
Q 2878 2963 2633 3030 
Q 2388 3097 2138 3097 
Q 1578 3097 1268 2742 
Q 959 2388 959 1747 
Q 959 1106 1268 751 
Q 1578 397 2138 397 
Q 2388 397 2633 464 
Q 2878 531 3122 666 
L 3122 134 
Q 2881 22 2623 -34 
Q 2366 -91 2075 -91 
Q 1284 -91 818 406 
Q 353 903 353 1747 
Q 353 2603 823 3093 
Q 1294 3584 2113 3584 
Q 2378 3584 2631 3529 
Q 2884 3475 3122 3366 
z
" transform="scale(0.015625)"/>
       <path id="DejaVuSans-75" d="M 544 1381 
L 544 3500 
L 1119 3500 
L 1119 1403 
Q 1119 906 1312 657 
Q 1506 409 1894 409 
Q 2359 409 2629 706 
Q 2900 1003 2900 1516 
L 2900 3500 
L 3475 3500 
L 3475 0 
L 2900 0 
L 2900 538 
Q 2691 219 2414 64 
Q 2138 -91 1772 -91 
Q 1169 -91 856 284 
Q 544 659 544 1381 
z
M 1991 3584 
L 1991 3584 
z
" transform="scale(0.015625)"/>
       <path id="DejaVuSans-6e" d="M 3513 2113 
L 3513 0 
L 2938 0 
L 2938 2094 
Q 2938 2591 2744 2837 
Q 2550 3084 2163 3084 
Q 1697 3084 1428 2787 
Q 1159 2491 1159 1978 
L 1159 0 
L 581 0 
L 581 3500 
L 1159 3500 
L 1159 2956 
Q 1366 3272 1645 3428 
Q 1925 3584 2291 3584 
Q 2894 3584 3203 3211 
Q 3513 2838 3513 2113 
z
" transform="scale(0.015625)"/>
      </defs>
      <use xlink:href="#DejaVuSans-5b"/>
      <use xlink:href="#DejaVuSans-63" transform="translate(39.013672 0)"/>
      <use xlink:href="#DejaVuSans-6f" transform="translate(93.994141 0)"/>
      <use xlink:href="#DejaVuSans-75" transform="translate(155.175781 0)"/>
      <use xlink:href="#DejaVuSans-6e" transform="translate(218.554688 0)"/>
      <use xlink:href="#DejaVuSans-74" transform="translate(281.933594 0)"/>
      <use xlink:href="#DejaVuSans-73" transform="translate(321.142578 0)"/>
      <use xlink:href="#DejaVuSans-5d" transform="translate(373.242188 0)"/>
     </g>
    </g>
   </g>
   <g id="line2d_16">
    <path d="M 74.908807 218.78042 
L 76.944684 218.88 
L 76.944684 218.664243 
L 78.980561 218.614453 
L 78.980561 218.415293 
L 81.016438 218.514873 
L 81.016438 218.531469 
L 82.034377 218.531469 
L 82.034377 218.382099 
L 83.052315 218.382099 
L 83.052315 218.216132 
L 84.070254 218.216132 
L 84.070254 217.967182 
L 86.106131 218.016972 
L 86.106131 217.618652 
L 87.12407 217.618652 
L 87.12407 217.153944 
L 89.159947 217.170541 
L 89.159947 216.67264 
L 90.177886 216.67264 
L 90.177886 215.676839 
L 91.195824 215.676839 
L 91.195824 215.826209 
L 92.213763 215.826209 
L 92.213763 214.647844 
L 93.231701 214.647844 
L 93.231701 214.31591 
L 94.24964 214.31591 
L 94.24964 212.988175 
L 95.267578 212.988175 
L 95.267578 211.295312 
L 96.285517 211.295312 
L 96.285517 210.199931 
L 97.303456 210.199931 
L 97.303456 206.216725 
L 99.339333 206.166935 
L 99.339333 201.353895 
L 100.357271 201.353895 
L 100.357271 197.702623 
L 101.37521 197.702623 
L 101.37521 189.238311 
L 102.393149 189.238311 
L 102.393149 184.524851 
L 103.411087 184.524851 
L 103.411087 176.973356 
L 104.429026 176.973356 
L 104.429026 171.878172 
L 105.446964 171.878172 
L 105.446964 166.002944 
L 106.464903 166.002944 
L 106.464903 156.659007 
L 107.482841 156.659007 
L 107.482841 151.48084 
L 108.50078 151.48084 
L 108.50078 138.635001 
L 109.518719 138.635001 
L 109.518719 135.066713 
L 110.536657 135.066713 
L 110.536657 123.764367 
L 111.554596 123.764367 
L 111.554596 115.051104 
L 112.572534 115.051104 
L 112.572534 105.408427 
L 113.590473 105.408427 
L 113.590473 95.201462 
L 114.608412 95.201462 
L 114.608412 88.396819 
L 115.62635 88.396819 
L 115.62635 75.4514 
L 116.644289 75.4514 
L 116.644289 58.970887 
L 117.662227 58.970887 
L 117.662227 55.137051 
L 118.680166 55.137051 
L 118.680166 42.938484 
L 119.698104 42.938484 
L 119.698104 43.170837 
L 120.716043 43.170837 
L 120.716043 35.055056 
L 121.733982 35.055056 
L 121.733982 32.748116 
L 122.75192 32.748116 
L 122.75192 34.291608 
L 123.769859 34.291608 
L 123.769859 30.457772 
L 124.787797 30.457772 
L 124.787797 25.412378 
L 125.805736 25.412378 
L 125.805736 27.238014 
L 126.823675 27.238014 
L 126.823675 20.035051 
L 127.841613 20.035051 
L 127.841613 24.283803 
L 128.859552 24.283803 
L 128.859552 29.262811 
L 129.87749 29.262811 
L 129.87749 26.889484 
L 130.895429 26.889484 
L 130.895429 22.823295 
L 131.913367 22.823295 
L 131.913367 20.549548 
L 132.931306 20.549548 
L 132.931306 18.757105 
L 133.949245 18.757105 
L 133.949245 22.723714 
L 134.967183 22.723714 
L 134.967183 27.636335 
L 135.985122 27.636335 
L 135.985122 17.28 
L 137.00306 17.28 
L 137.00306 28.698523 
L 138.020999 28.698523 
L 138.020999 25.362588 
L 139.038938 25.362588 
L 139.038938 22.557748 
L 140.056876 22.557748 
L 140.056876 28.66533 
L 141.074815 28.66533 
L 141.074815 30.042855 
L 142.092753 30.042855 
L 142.092753 32.233618 
L 143.110692 32.233618 
L 143.110692 41.278815 
L 145.146569 41.195831 
L 145.146569 50.772122 
L 146.164508 50.772122 
L 146.164508 49.328209 
L 147.182446 49.328209 
L 147.182446 53.294818 
L 148.200385 53.294818 
L 148.200385 61.294423 
L 149.218323 61.294423 
L 149.218323 65.327419 
L 150.236262 65.327419 
L 150.236262 62.456192 
L 151.254201 62.456192 
L 151.254201 67.269232 
L 152.272139 67.269232 
L 152.272139 83.683359 
L 153.290078 83.683359 
L 153.290078 77.60897 
L 154.308016 77.60897 
L 154.308016 78.920109 
L 155.325955 78.920109 
L 155.325955 92.562588 
L 156.343893 92.562588 
L 156.343893 92.728555 
L 157.361832 92.728555 
L 157.361832 88.098079 
L 158.379771 88.098079 
L 158.379771 93.541793 
L 159.397709 93.541793 
L 159.397709 101.939718 
L 160.415648 101.939718 
L 160.415648 99.068491 
L 161.433586 99.068491 
L 161.433586 105.109686 
L 162.451525 105.109686 
L 162.451525 102.238459 
L 163.469464 102.238459 
L 163.469464 107.565997 
L 164.487402 107.565997 
L 164.487402 113.424628 
L 165.505341 113.424628 
L 165.505341 115.980519 
L 166.523279 115.980519 
L 166.523279 116.793756 
L 168.559156 116.694176 
L 168.559156 120.146288 
L 169.577095 120.146288 
L 169.577095 122.486421 
L 170.595034 122.486421 
L 170.595034 125.656389 
L 171.612972 125.656389 
L 171.612972 128.062909 
L 172.630911 128.062909 
L 172.630911 129.589805 
L 173.648849 129.589805 
L 173.648849 132.92574 
L 174.666788 132.92574 
L 174.666788 133.058513 
L 175.684727 133.058513 
L 175.684727 138.502228 
L 176.702665 138.502228 
L 176.702665 135.050116 
L 177.720604 135.050116 
L 177.720604 141.323665 
L 178.738542 141.323665 
L 178.738542 140.643201 
L 179.756481 140.643201 
L 179.756481 149.041126 
L 180.774419 149.041126 
L 180.774419 141.323665 
L 181.792358 141.323665 
L 181.792358 148.675999 
L 182.810297 148.675999 
L 182.810297 152.227691 
L 183.828235 152.227691 
L 183.828235 149.256883 
L 184.846174 149.256883 
L 184.846174 151.547226 
L 185.864112 151.547226 
L 185.864112 154.966145 
L 186.882051 154.966145 
L 186.882051 159.181704 
L 187.89999 159.181704 
L 187.89999 157.986742 
L 188.917928 157.986742 
L 188.917928 154.700598 
L 189.935867 154.700598 
L 189.935867 160.409859 
L 190.953805 160.409859 
L 190.953805 159.214898 
L 191.971744 159.214898 
L 191.971744 163.11512 
L 192.989682 163.11512 
L 192.989682 163.31428 
L 194.007621 163.31428 
L 194.007621 168.592028 
L 195.02556 168.592028 
L 195.02556 168.343077 
L 196.043498 168.343077 
L 196.043498 171.147918 
L 197.061437 171.147918 
L 197.061437 167.67921 
L 198.079375 167.67921 
L 198.079375 172.625023 
L 199.097314 172.625023 
L 199.097314 173.106327 
L 200.115253 173.106327 
L 200.115253 177.072937 
L 201.133191 177.072937 
L 201.133191 175.811588 
L 202.15113 175.811588 
L 202.15113 178.052141 
L 203.169068 178.052141 
L 203.169068 182.300894 
L 204.187007 182.300894 
L 204.187007 183.512452 
L 205.204945 183.512452 
L 205.204945 186.665824 
L 207.240823 186.68242 
L 207.240823 189.752808 
L 209.2767 189.653228 
L 209.2767 191.445671 
L 210.294638 191.445671 
L 210.294638 191.279704 
L 211.312577 191.279704 
L 211.312577 194.399881 
L 212.330516 194.399881 
L 212.330516 197.171529 
L 213.348454 197.171529 
L 213.348454 197.636236 
L 214.366393 197.636236 
L 214.366393 197.802203 
L 215.384331 197.802203 
L 215.384331 201.536458 
L 216.40227 201.536458 
L 216.40227 201.320701 
L 217.420208 201.320701 
L 217.420208 201.187928 
L 218.438147 201.187928 
L 218.438147 203.528061 
L 219.456086 203.528061 
L 219.456086 202.598647 
L 220.474024 202.598647 
L 220.474024 206.349499 
L 221.491963 206.349499 
L 221.491963 206.034162 
L 222.509901 206.034162 
L 222.509901 206.781013 
L 223.52784 206.781013 
L 223.52784 207.826604 
L 224.545779 207.826604 
L 224.545779 209.370096 
L 225.563717 209.370096 
L 225.563717 210.000771 
L 226.581656 210.000771 
L 226.581656 209.8514 
L 227.599594 209.8514 
L 227.599594 212.025567 
L 228.617533 212.025567 
L 228.617533 211.76002 
L 229.635471 211.76002 
L 229.635471 212.091954 
L 230.65341 212.091954 
L 230.65341 213.469479 
L 231.671349 213.469479 
L 231.671349 214.349103 
L 232.689287 214.349103 
L 232.689287 214.631247 
L 234.725164 214.631247 
L 234.725164 215.909192 
L 235.743103 215.909192 
L 235.743103 216.639447 
L 237.77898 216.67264 
L 237.77898 217.452685 
L 238.796919 217.452685 
L 238.796919 217.917392 
L 240.832796 217.900795 
L 240.832796 218.415293 
L 241.850734 218.415293 
L 241.850734 218.813613 
L 379.272443 218.88 
L 379.272443 218.88 
" clip-path="url(#p6c99c39997)" style="fill: none; stroke: #1f77b4; stroke-width: 1.5; stroke-linecap: square"/>
   </g>
   <g id="line2d_17">
    <path d="M 74.908807 218.88 
L 102.393149 218.797017 
L 102.393149 218.714033 
L 110.536657 218.647646 
L 110.536657 218.548066 
L 113.590473 218.448486 
L 113.590473 218.415293 
L 116.644289 218.398696 
L 116.644289 218.050165 
L 117.662227 218.050165 
L 117.662227 218.348906 
L 118.680166 218.348906 
L 118.680166 217.685038 
L 119.698104 217.685038 
L 119.698104 218.066762 
L 120.716043 218.066762 
L 120.716043 217.817812 
L 122.75192 217.900795 
L 122.75192 217.369701 
L 124.787797 217.452685 
L 124.787797 216.57306 
L 125.805736 216.57306 
L 125.805736 217.286718 
L 126.823675 217.286718 
L 126.823675 216.67264 
L 127.841613 216.67264 
L 127.841613 216.539867 
L 128.859552 216.539867 
L 128.859552 216.257723 
L 129.87749 216.257723 
L 129.87749 215.627049 
L 130.895429 215.627049 
L 130.895429 215.743225 
L 131.913367 215.743225 
L 131.913367 215.162341 
L 132.931306 215.162341 
L 132.931306 214.349103 
L 133.949245 214.349103 
L 133.949245 213.469479 
L 134.967183 213.469479 
L 134.967183 213.270319 
L 135.985122 213.270319 
L 135.985122 211.876197 
L 137.00306 211.876197 
L 137.00306 211.627246 
L 138.020999 211.627246 
L 138.020999 210.747622 
L 139.038938 210.747622 
L 139.038938 210.249721 
L 140.056876 210.249721 
L 140.056876 208.158538 
L 141.074815 208.158538 
L 141.074815 206.283112 
L 142.092753 206.283112 
L 142.092753 204.025962 
L 143.110692 204.025962 
L 143.110692 201.868392 
L 144.12863 201.868392 
L 144.12863 199.262712 
L 145.146569 199.262712 
L 145.146569 198.283507 
L 146.164508 198.283507 
L 146.164508 194.466268 
L 147.182446 194.466268 
L 147.182446 192.723616 
L 148.200385 192.723616 
L 148.200385 189.686421 
L 149.218323 189.686421 
L 149.218323 189.105537 
L 150.236262 189.105537 
L 150.236262 186.898177 
L 151.254201 186.898177 
L 151.254201 181.321689 
L 152.272139 181.321689 
L 152.272139 180.574838 
L 153.290078 180.574838 
L 153.290078 178.400672 
L 154.308016 178.400672 
L 154.308016 174.317886 
L 155.325955 174.317886 
L 155.325955 170.467454 
L 156.343893 170.467454 
L 156.343893 167.77879 
L 157.361832 167.77879 
L 157.361832 167.114922 
L 158.379771 167.114922 
L 158.379771 161.720998 
L 159.397709 161.720998 
L 159.397709 158.60082 
L 160.415648 158.60082 
L 160.415648 154.069923 
L 161.433586 154.069923 
L 161.433586 152.244287 
L 162.451525 152.244287 
L 162.451525 148.758982 
L 163.469464 148.758982 
L 163.469464 147.481037 
L 164.487402 147.481037 
L 164.487402 139.381852 
L 165.505341 139.381852 
L 165.505341 138.269874 
L 166.523279 138.269874 
L 166.523279 135.514823 
L 167.541218 135.514823 
L 167.541218 125.921936 
L 168.559156 125.921936 
L 168.559156 126.40324 
L 169.577095 126.40324 
L 169.577095 124.04651 
L 170.595034 124.04651 
L 170.595034 118.121492 
L 171.612972 118.121492 
L 171.612972 111.731766 
L 172.630911 111.731766 
L 172.630911 114.5698 
L 173.648849 114.5698 
L 173.648849 115.764762 
L 174.666788 115.764762 
L 174.666788 110.15508 
L 175.684727 110.15508 
L 175.684727 105.624184 
L 176.702665 105.624184 
L 176.702665 109.607389 
L 177.720604 109.607389 
L 177.720604 108.611588 
L 178.738542 108.611588 
L 178.738542 106.487212 
L 179.756481 106.487212 
L 179.756481 105.275653 
L 180.774419 105.275653 
L 180.774419 105.026703 
L 181.792358 105.026703 
L 181.792358 102.338039 
L 182.810297 102.338039 
L 182.810297 104.910526 
L 183.828235 104.910526 
L 183.828235 98.786347 
L 184.846174 98.786347 
L 184.846174 105.673974 
L 185.864112 105.673974 
L 185.864112 102.586989 
L 186.882051 102.586989 
L 186.882051 103.649178 
L 187.89999 103.649178 
L 187.89999 99.334038 
L 188.917928 99.334038 
L 188.917928 99.002104 
L 189.935867 99.002104 
L 189.935867 109.939323 
L 190.953805 109.939323 
L 190.953805 105.790151 
L 191.971744 105.790151 
L 191.971744 98.139076 
L 192.989682 98.139076 
L 192.989682 98.354833 
L 194.007621 98.354833 
L 194.007621 103.101487 
L 195.02556 103.101487 
L 195.02556 98.902524 
L 196.043498 98.902524 
L 196.043498 99.466812 
L 198.079375 99.533198 
L 198.079375 106.885532 
L 199.097314 106.885532 
L 199.097314 98.42122 
L 200.115253 98.42122 
L 200.115253 102.221862 
L 201.133191 102.221862 
L 201.133191 102.968713 
L 202.15113 102.968713 
L 202.15113 105.723764 
L 203.169068 105.723764 
L 203.169068 99.831939 
L 204.187007 99.831939 
L 204.187007 102.470813 
L 205.204945 102.470813 
L 205.204945 106.470615 
L 206.222884 106.470615 
L 206.222884 103.649178 
L 207.240823 103.649178 
L 207.240823 100.42942 
L 208.258761 100.42942 
L 208.258761 109.375036 
L 209.2767 109.375036 
L 209.2767 107.267256 
L 210.294638 107.267256 
L 210.294638 106.437422 
L 211.312577 106.437422 
L 211.312577 111.831346 
L 212.330516 111.831346 
L 212.330516 111.217268 
L 213.348454 111.217268 
L 213.348454 105.989311 
L 214.366393 105.989311 
L 214.366393 114.005512 
L 215.384331 114.005512 
L 215.384331 111.549202 
L 216.40227 111.549202 
L 216.40227 115.864342 
L 217.420208 115.864342 
L 217.420208 120.627592 
L 218.438147 120.627592 
L 218.438147 123.017515 
L 219.456086 123.017515 
L 219.456086 119.316453 
L 220.474024 119.316453 
L 220.474024 121.208476 
L 221.491963 121.208476 
L 221.491963 122.934532 
L 222.509901 122.934532 
L 222.509901 123.79756 
L 223.52784 123.79756 
L 223.52784 128.062909 
L 224.545779 128.062909 
L 224.545779 126.768367 
L 225.563717 126.768367 
L 225.563717 130.56901 
L 226.581656 130.56901 
L 226.581656 130.386446 
L 227.599594 130.386446 
L 227.599594 131.680988 
L 228.617533 131.680988 
L 228.617533 132.693386 
L 229.635471 132.693386 
L 229.635471 133.689187 
L 230.65341 133.689187 
L 230.65341 136.742979 
L 231.671349 136.742979 
L 231.671349 139.647399 
L 232.689287 139.647399 
L 232.689287 136.892349 
L 233.707226 136.892349 
L 233.707226 141.124505 
L 234.725164 141.124505 
L 234.725164 143.962539 
L 235.743103 143.962539 
L 235.743103 138.518824 
L 236.761042 138.518824 
L 236.761042 142.833964 
L 237.77898 142.833964 
L 237.77898 145.804772 
L 238.796919 145.804772 
L 238.796919 145.638805 
L 239.814857 145.638805 
L 239.814857 145.074517 
L 240.832796 145.074517 
L 240.832796 148.476839 
L 241.850734 148.476839 
L 241.850734 152.543028 
L 242.868673 152.543028 
L 242.868673 145.423048 
L 243.886612 145.423048 
L 243.886612 146.136705 
L 244.90455 146.136705 
L 244.90455 152.410254 
L 245.922489 152.410254 
L 245.922489 156.177703 
L 246.940427 156.177703 
L 246.940427 154.816775 
L 247.958366 154.816775 
L 247.958366 147.779778 
L 248.976305 147.779778 
L 248.976305 158.89956 
L 249.994243 158.89956 
L 249.994243 159.629815 
L 251.012182 159.629815 
L 251.012182 151.77958 
L 252.03012 151.77958 
L 252.03012 156.028333 
L 253.048059 156.028333 
L 253.048059 159.629815 
L 254.065997 159.629815 
L 254.065997 155.215095 
L 255.083936 155.215095 
L 255.083936 163.679407 
L 256.101875 163.679407 
L 256.101875 155.829173 
L 257.119813 155.829173 
L 257.119813 162.152512 
L 258.137752 162.152512 
L 258.137752 164.658612 
L 259.15569 164.658612 
L 259.15569 164.343275 
L 260.173629 164.343275 
L 260.173629 164.509242 
L 261.191568 164.509242 
L 261.191568 166.965552 
L 262.209506 166.965552 
L 262.209506 165.62122 
L 263.227445 165.62122 
L 263.227445 162.318479 
L 264.245383 162.318479 
L 264.245383 172.210106 
L 265.263322 172.210106 
L 265.263322 165.023739 
L 266.28126 165.023739 
L 266.28126 168.475851 
L 268.317138 168.542238 
L 268.317138 171.811786 
L 269.335076 171.811786 
L 269.335076 169.737199 
L 270.353015 169.737199 
L 270.353015 173.753598 
L 271.370953 173.753598 
L 271.370953 172.558637 
L 272.388892 172.558637 
L 272.388892 171.927962 
L 273.406831 171.927962 
L 273.406831 175.313687 
L 274.424769 175.313687 
L 274.424769 173.305488 
L 275.442708 173.305488 
L 275.442708 175.081334 
L 276.460646 175.081334 
L 276.460646 176.392472 
L 277.478585 176.392472 
L 277.478585 176.093732 
L 278.496523 176.093732 
L 278.496523 177.653821 
L 279.514462 177.653821 
L 279.514462 176.060538 
L 280.532401 176.060538 
L 280.532401 178.350882 
L 281.550339 178.350882 
L 281.550339 177.819788 
L 282.568278 177.819788 
L 282.568278 181.404673 
L 283.586216 181.404673 
L 283.586216 178.550042 
L 284.604155 178.550042 
L 284.604155 180.209711 
L 285.622094 180.209711 
L 285.622094 182.533248 
L 286.640032 182.533248 
L 286.640032 179.230506 
L 287.657971 179.230506 
L 287.657971 187.711415 
L 288.675909 187.711415 
L 288.675909 181.67022 
L 289.693848 181.67022 
L 289.693848 179.014749 
L 290.711786 179.014749 
L 290.711786 182.948165 
L 291.729725 182.948165 
L 291.729725 184.342287 
L 292.747664 184.342287 
L 292.747664 184.143127 
L 293.765602 184.143127 
L 293.765602 183.230309 
L 294.783541 183.230309 
L 294.783541 188.508056 
L 295.801479 188.508056 
L 295.801479 184.010353 
L 296.819418 184.010353 
L 296.819418 188.010156 
L 297.837357 188.010156 
L 297.837357 186.118133 
L 298.855295 186.118133 
L 298.855295 188.308896 
L 299.873234 188.308896 
L 299.873234 190.74861 
L 300.891172 190.74861 
L 300.891172 189.072344 
L 301.909111 189.072344 
L 301.909111 189.321294 
L 302.927049 189.321294 
L 302.927049 188.358686 
L 303.944988 188.358686 
L 303.944988 192.026555 
L 304.962927 192.026555 
L 304.962927 191.213317 
L 305.980865 191.213317 
L 305.980865 192.872986 
L 306.998804 192.872986 
L 306.998804 193.769207 
L 308.016742 193.769207 
L 308.016742 190.94777 
L 309.034681 190.94777 
L 309.034681 193.586644 
L 310.05262 193.586644 
L 310.05262 194.615638 
L 311.070558 194.615638 
L 311.070558 197.204722 
L 312.088497 197.204722 
L 312.088497 193.238113 
L 313.106435 193.238113 
L 313.106435 196.026357 
L 314.124374 196.026357 
L 314.124374 196.922578 
L 315.142312 196.922578 
L 315.142312 198.565651 
L 316.160251 198.565651 
L 316.160251 199.229518 
L 317.17819 199.229518 
L 317.17819 199.046955 
L 318.196128 199.046955 
L 318.196128 202.366293 
L 319.214067 202.366293 
L 319.214067 199.810403 
L 320.232005 199.810403 
L 320.232005 198.665231 
L 321.249944 198.665231 
L 321.249944 202.598647 
L 322.267883 202.598647 
L 322.267883 201.353895 
L 323.285821 201.353895 
L 323.285821 202.38289 
L 324.30376 202.38289 
L 324.30376 204.424283 
L 325.321698 204.424283 
L 325.321698 202.449276 
L 326.339637 202.449276 
L 326.339637 202.283309 
L 327.357575 202.283309 
L 327.357575 205.171134 
L 328.375514 205.171134 
L 328.375514 206.797609 
L 329.393453 206.797609 
L 329.393453 205.868195 
L 330.411391 205.868195 
L 330.411391 205.752018 
L 331.42933 205.752018 
L 331.42933 206.233322 
L 332.447268 206.233322 
L 332.447268 208.108748 
L 333.465207 208.108748 
L 333.465207 207.39509 
L 334.483146 207.39509 
L 334.483146 209.054759 
L 335.501084 209.054759 
L 335.501084 208.673035 
L 336.519023 208.673035 
L 336.519023 208.158538 
L 337.536961 208.158538 
L 337.536961 208.606649 
L 338.5549 208.606649 
L 338.5549 208.424085 
L 339.572838 208.424085 
L 339.572838 210.000771 
L 340.590777 210.000771 
L 340.590777 210.614848 
L 341.608716 210.614848 
L 341.608716 210.116947 
L 342.626654 210.116947 
L 342.626654 211.112749 
L 343.644593 211.112749 
L 343.644593 211.643843 
L 345.68047 211.544263 
L 345.68047 212.274517 
L 346.698409 212.274517 
L 346.698409 212.506871 
L 349.752224 212.540064 
L 349.752224 214.100153 
L 350.770163 214.100153 
L 350.770163 213.237125 
L 351.788101 213.237125 
L 351.788101 213.602252 
L 352.80604 213.602252 
L 352.80604 214.133347 
L 353.823979 214.133347 
L 353.823979 214.548264 
L 354.841917 214.548264 
L 354.841917 215.162341 
L 355.859856 215.162341 
L 355.859856 214.133347 
L 356.877794 214.133347 
L 356.877794 215.062761 
L 357.895733 215.062761 
L 357.895733 214.813811 
L 358.913672 214.813811 
L 358.913672 216.075159 
L 359.93161 216.075159 
L 359.93161 215.875999 
L 360.949549 215.875999 
L 360.949549 216.290916 
L 365.021303 216.357303 
L 365.021303 216.954784 
L 366.039242 216.954784 
L 366.039242 217.419491 
L 367.05718 217.419491 
L 367.05718 217.286718 
L 368.075119 217.286718 
L 368.075119 217.519071 
L 369.093057 217.519071 
L 369.093057 217.817812 
L 370.110996 217.817812 
L 370.110996 218.033569 
L 371.128935 218.033569 
L 371.128935 217.867602 
L 372.146873 217.867602 
L 372.146873 218.332309 
L 375.200689 218.332309 
L 375.200689 218.481679 
L 376.218627 218.481679 
L 376.218627 218.664243 
L 377.236566 218.664243 
L 377.236566 218.797017 
L 379.272443 218.863403 
L 379.272443 218.863403 
" clip-path="url(#p6c99c39997)" style="fill: none; stroke: #ff7f0e; stroke-width: 1.5; stroke-linecap: square"/>
   </g>
   <g id="patch_3">
    <path d="M 59.690625 228.96 
L 59.690625 7.2 
" style="fill: none; stroke: #000000; stroke-width: 0.8; stroke-linejoin: miter; stroke-linecap: square"/>
   </g>
   <g id="patch_4">
    <path d="M 394.490625 228.96 
L 394.490625 7.2 
" style="fill: none; stroke: #000000; stroke-width: 0.8; stroke-linejoin: miter; stroke-linecap: square"/>
   </g>
   <g id="patch_5">
    <path d="M 59.690625 228.96 
L 394.490625 228.96 
" style="fill: none; stroke: #000000; stroke-width: 0.8; stroke-linejoin: miter; stroke-linecap: square"/>
   </g>
   <g id="patch_6">
    <path d="M 59.690625 7.2 
L 394.490625 7.2 
" style="fill: none; stroke: #000000; stroke-width: 0.8; stroke-linejoin: miter; stroke-linecap: square"/>
   </g>
   <g id="legend_1">
    <g id="patch_7">
     <path d="M 313.267188 44.55625 
L 387.490625 44.55625 
Q 389.490625 44.55625 389.490625 42.55625 
L 389.490625 14.2 
Q 389.490625 12.2 387.490625 12.2 
L 313.267188 12.2 
Q 311.267188 12.2 311.267188 14.2 
L 311.267188 42.55625 
Q 311.267188 44.55625 313.267188 44.55625 
z
" style="fill: #ffffff; opacity: 0.8; stroke: #cccccc; stroke-linejoin: miter"/>
    </g>
    <g id="line2d_18">
     <path d="M 315.267188 20.298437 
L 315.267188 20.298437 
L 325.267188 20.298437 
L 325.267188 20.298437 
L 335.267188 20.298437 
" style="fill: none; stroke: #1f77b4; stroke-width: 1.5; stroke-linecap: square"/>
    </g>
    <g id="text_18">
     <!-- monitor -->
     <g transform="translate(343.267188 23.798437) scale(0.1 -0.1)">
      <defs>
       <path id="DejaVuSans-6d" d="M 3328 2828 
Q 3544 3216 3844 3400 
Q 4144 3584 4550 3584 
Q 5097 3584 5394 3201 
Q 5691 2819 5691 2113 
L 5691 0 
L 5113 0 
L 5113 2094 
Q 5113 2597 4934 2840 
Q 4756 3084 4391 3084 
Q 3944 3084 3684 2787 
Q 3425 2491 3425 1978 
L 3425 0 
L 2847 0 
L 2847 2094 
Q 2847 2600 2669 2842 
Q 2491 3084 2119 3084 
Q 1678 3084 1418 2786 
Q 1159 2488 1159 1978 
L 1159 0 
L 581 0 
L 581 3500 
L 1159 3500 
L 1159 2956 
Q 1356 3278 1631 3431 
Q 1906 3584 2284 3584 
Q 2666 3584 2933 3390 
Q 3200 3197 3328 2828 
z
" transform="scale(0.015625)"/>
       <path id="DejaVuSans-69" d="M 603 3500 
L 1178 3500 
L 1178 0 
L 603 0 
L 603 3500 
z
M 603 4863 
L 1178 4863 
L 1178 4134 
L 603 4134 
L 603 4863 
z
" transform="scale(0.015625)"/>
       <path id="DejaVuSans-72" d="M 2631 2963 
Q 2534 3019 2420 3045 
Q 2306 3072 2169 3072 
Q 1681 3072 1420 2755 
Q 1159 2438 1159 1844 
L 1159 0 
L 581 0 
L 581 3500 
L 1159 3500 
L 1159 2956 
Q 1341 3275 1631 3429 
Q 1922 3584 2338 3584 
Q 2397 3584 2469 3576 
Q 2541 3569 2628 3553 
L 2631 2963 
z
" transform="scale(0.015625)"/>
      </defs>
      <use xlink:href="#DejaVuSans-6d"/>
      <use xlink:href="#DejaVuSans-6f" transform="translate(97.412109 0)"/>
      <use xlink:href="#DejaVuSans-6e" transform="translate(158.59375 0)"/>
      <use xlink:href="#DejaVuSans-69" transform="translate(221.972656 0)"/>
      <use xlink:href="#DejaVuSans-74" transform="translate(249.755859 0)"/>
      <use xlink:href="#DejaVuSans-6f" transform="translate(288.964844 0)"/>
      <use xlink:href="#DejaVuSans-72" transform="translate(350.146484 0)"/>
     </g>
    </g>
    <g id="line2d_19">
     <path d="M 315.267188 34.976562 
L 315.267188 34.976562 
L 325.267188 34.976562 
L 325.267188 34.976562 
L 335.267188 34.976562 
" style="fill: none; stroke: #ff7f0e; stroke-width: 1.5; stroke-linecap: square"/>
    </g>
    <g id="text_19">
     <!-- detector -->
     <g transform="translate(343.267188 38.476562) scale(0.1 -0.1)">
      <defs>
       <path id="DejaVuSans-64" d="M 2906 2969 
L 2906 4863 
L 3481 4863 
L 3481 0 
L 2906 0 
L 2906 525 
Q 2725 213 2448 61 
Q 2172 -91 1784 -91 
Q 1150 -91 751 415 
Q 353 922 353 1747 
Q 353 2572 751 3078 
Q 1150 3584 1784 3584 
Q 2172 3584 2448 3432 
Q 2725 3281 2906 2969 
z
M 947 1747 
Q 947 1113 1208 752 
Q 1469 391 1925 391 
Q 2381 391 2643 752 
Q 2906 1113 2906 1747 
Q 2906 2381 2643 2742 
Q 2381 3103 1925 3103 
Q 1469 3103 1208 2742 
Q 947 2381 947 1747 
z
" transform="scale(0.015625)"/>
       <path id="DejaVuSans-65" d="M 3597 1894 
L 3597 1613 
L 953 1613 
Q 991 1019 1311 708 
Q 1631 397 2203 397 
Q 2534 397 2845 478 
Q 3156 559 3463 722 
L 3463 178 
Q 3153 47 2828 -22 
Q 2503 -91 2169 -91 
Q 1331 -91 842 396 
Q 353 884 353 1716 
Q 353 2575 817 3079 
Q 1281 3584 2069 3584 
Q 2775 3584 3186 3129 
Q 3597 2675 3597 1894 
z
M 3022 2063 
Q 3016 2534 2758 2815 
Q 2500 3097 2075 3097 
Q 1594 3097 1305 2825 
Q 1016 2553 972 2059 
L 3022 2063 
z
" transform="scale(0.015625)"/>
      </defs>
      <use xlink:href="#DejaVuSans-64"/>
      <use xlink:href="#DejaVuSans-65" transform="translate(63.476562 0)"/>
      <use xlink:href="#DejaVuSans-74" transform="translate(125 0)"/>
      <use xlink:href="#DejaVuSans-65" transform="translate(164.208984 0)"/>
      <use xlink:href="#DejaVuSans-63" transform="translate(225.732422 0)"/>
      <use xlink:href="#DejaVuSans-74" transform="translate(280.712891 0)"/>
      <use xlink:href="#DejaVuSans-6f" transform="translate(319.921875 0)"/>
      <use xlink:href="#DejaVuSans-72" transform="translate(381.103516 0)"/>
     </g>
    </g>
   </g>
  </g>
 </g>
 <defs>
  <clipPath id="p6c99c39997">
   <rect x="59.690625" y="7.2" width="334.8" height="221.76"/>
  </clipPath>
 </defs>
</svg>
