<?xml version="1.0" encoding="utf-8" standalone="no"?>
<!DOCTYPE svg PUBLIC "-//W3C//DTD SVG 1.1//EN"
  "http://www.w3.org/Graphics/SVG/1.1/DTD/svg11.dtd">
<svg xmlns:xlink="http://www.w3.org/1999/xlink" width="388.965625pt" height="268.200625pt" viewBox="0 0 388.965625 268.200625" xmlns="http://www.w3.org/2000/svg" version="1.1">
 <metadata>
  <rdf:RDF xmlns:dc="http://purl.org/dc/elements/1.1/" xmlns:cc="http://creativecommons.org/ns#" xmlns:rdf="http://www.w3.org/1999/02/22-rdf-syntax-ns#">
   <cc:Work>
    <dc:type rdf:resource="http://purl.org/dc/dcmitype/StillImage"/>
    <dc:date>2025-07-15T15:00:46.676751</dc:date>
    <dc:format>image/svg+xml</dc:format>
    <dc:creator>
     <cc:Agent>
      <dc:title>Matplotlib v3.10.3, https://matplotlib.org/</dc:title>
     </cc:Agent>
    </dc:creator>
   </cc:Work>
  </rdf:RDF>
 </metadata>
 <defs>
  <style type="text/css">*{stroke-linejoin: round; stroke-linecap: butt}</style>
 </defs>
 <g id="figure_1">
  <g id="patch_1">
   <path d="M 0 268.200625 
L 388.965625 268.200625 
L 388.965625 0 
L 0 0 
z
" style="fill: #ffffff"/>
  </g>
  <g id="axes_1">
   <g id="patch_2">
    <path d="M 46.965625 228.96 
L 381.765625 228.96 
L 381.765625 7.2 
L 46.965625 7.2 
z
" style="fill: #ffffff"/>
   </g>
   <g id="matplotlib.axis_1">
    <g id="xtick_1">
     <g id="line2d_1">
      <defs>
       <path id="m5f25a38b7b" d="M 0 0 
L 0 3.5 
" style="stroke: #000000; stroke-width: 0.8"/>
      </defs>
      <g>
       <use xlink:href="#m5f25a38b7b" x="78.202946" y="228.96" style="stroke: #000000; stroke-width: 0.8"/>
      </g>
     </g>
     <g id="text_1">
      <!-- 1.0 -->
      <g transform="translate(70.251383 243.558437) scale(0.1 -0.1)">
       <defs>
        <path id="DejaVuSans-31" d="M 794 531 
L 1825 531 
L 1825 4091 
L 703 3866 
L 703 4441 
L 1819 4666 
L 2450 4666 
L 2450 531 
L 3481 531 
L 3481 0 
L 794 0 
L 794 531 
z
" transform="scale(0.015625)"/>
        <path id="DejaVuSans-2e" d="M 684 794 
L 1344 794 
L 1344 0 
L 684 0 
L 684 794 
z
" transform="scale(0.015625)"/>
        <path id="DejaVuSans-30" d="M 2034 4250 
Q 1547 4250 1301 3770 
Q 1056 3291 1056 2328 
Q 1056 1369 1301 889 
Q 1547 409 2034 409 
Q 2525 409 2770 889 
Q 3016 1369 3016 2328 
Q 3016 3291 2770 3770 
Q 2525 4250 2034 4250 
z
M 2034 4750 
Q 2819 4750 3233 4129 
Q 3647 3509 3647 2328 
Q 3647 1150 3233 529 
Q 2819 -91 2034 -91 
Q 1250 -91 836 529 
Q 422 1150 422 2328 
Q 422 3509 836 4129 
Q 1250 4750 2034 4750 
z
" transform="scale(0.015625)"/>
       </defs>
       <use xlink:href="#DejaVuSans-31"/>
       <use xlink:href="#DejaVuSans-2e" transform="translate(63.623047 0)"/>
       <use xlink:href="#DejaVuSans-30" transform="translate(95.410156 0)"/>
      </g>
     </g>
    </g>
    <g id="xtick_2">
     <g id="line2d_2">
      <g>
       <use xlink:href="#m5f25a38b7b" x="118.250792" y="228.96" style="stroke: #000000; stroke-width: 0.8"/>
      </g>
     </g>
     <g id="text_2">
      <!-- 1.5 -->
      <g transform="translate(110.29923 243.558437) scale(0.1 -0.1)">
       <defs>
        <path id="DejaVuSans-35" d="M 691 4666 
L 3169 4666 
L 3169 4134 
L 1269 4134 
L 1269 2991 
Q 1406 3038 1543 3061 
Q 1681 3084 1819 3084 
Q 2600 3084 3056 2656 
Q 3513 2228 3513 1497 
Q 3513 744 3044 326 
Q 2575 -91 1722 -91 
Q 1428 -91 1123 -41 
Q 819 9 494 109 
L 494 744 
Q 775 591 1075 516 
Q 1375 441 1709 441 
Q 2250 441 2565 725 
Q 2881 1009 2881 1497 
Q 2881 1984 2565 2268 
Q 2250 2553 1709 2553 
Q 1456 2553 1204 2497 
Q 953 2441 691 2322 
L 691 4666 
z
" transform="scale(0.015625)"/>
       </defs>
       <use xlink:href="#DejaVuSans-31"/>
       <use xlink:href="#DejaVuSans-2e" transform="translate(63.623047 0)"/>
       <use xlink:href="#DejaVuSans-35" transform="translate(95.410156 0)"/>
      </g>
     </g>
    </g>
    <g id="xtick_3">
     <g id="line2d_3">
      <g>
       <use xlink:href="#m5f25a38b7b" x="158.298639" y="228.96" style="stroke: #000000; stroke-width: 0.8"/>
      </g>
     </g>
     <g id="text_3">
      <!-- 2.0 -->
      <g transform="translate(150.347077 243.558437) scale(0.1 -0.1)">
       <defs>
        <path id="DejaVuSans-32" d="M 1228 531 
L 3431 531 
L 3431 0 
L 469 0 
L 469 531 
Q 828 903 1448 1529 
Q 2069 2156 2228 2338 
Q 2531 2678 2651 2914 
Q 2772 3150 2772 3378 
Q 2772 3750 2511 3984 
Q 2250 4219 1831 4219 
Q 1534 4219 1204 4116 
Q 875 4013 500 3803 
L 500 4441 
Q 881 4594 1212 4672 
Q 1544 4750 1819 4750 
Q 2544 4750 2975 4387 
Q 3406 4025 3406 3419 
Q 3406 3131 3298 2873 
Q 3191 2616 2906 2266 
Q 2828 2175 2409 1742 
Q 1991 1309 1228 531 
z
" transform="scale(0.015625)"/>
       </defs>
       <use xlink:href="#DejaVuSans-32"/>
       <use xlink:href="#DejaVuSans-2e" transform="translate(63.623047 0)"/>
       <use xlink:href="#DejaVuSans-30" transform="translate(95.410156 0)"/>
      </g>
     </g>
    </g>
    <g id="xtick_4">
     <g id="line2d_4">
      <g>
       <use xlink:href="#m5f25a38b7b" x="198.346486" y="228.96" style="stroke: #000000; stroke-width: 0.8"/>
      </g>
     </g>
     <g id="text_4">
      <!-- 2.5 -->
      <g transform="translate(190.394924 243.558437) scale(0.1 -0.1)">
       <use xlink:href="#DejaVuSans-32"/>
       <use xlink:href="#DejaVuSans-2e" transform="translate(63.623047 0)"/>
       <use xlink:href="#DejaVuSans-35" transform="translate(95.410156 0)"/>
      </g>
     </g>
    </g>
    <g id="xtick_5">
     <g id="line2d_5">
      <g>
       <use xlink:href="#m5f25a38b7b" x="238.394333" y="228.96" style="stroke: #000000; stroke-width: 0.8"/>
      </g>
     </g>
     <g id="text_5">
      <!-- 3.0 -->
      <g transform="translate(230.442771 243.558437) scale(0.1 -0.1)">
       <defs>
        <path id="DejaVuSans-33" d="M 2597 2516 
Q 3050 2419 3304 2112 
Q 3559 1806 3559 1356 
Q 3559 666 3084 287 
Q 2609 -91 1734 -91 
Q 1441 -91 1130 -33 
Q 819 25 488 141 
L 488 750 
Q 750 597 1062 519 
Q 1375 441 1716 441 
Q 2309 441 2620 675 
Q 2931 909 2931 1356 
Q 2931 1769 2642 2001 
Q 2353 2234 1838 2234 
L 1294 2234 
L 1294 2753 
L 1863 2753 
Q 2328 2753 2575 2939 
Q 2822 3125 2822 3475 
Q 2822 3834 2567 4026 
Q 2313 4219 1838 4219 
Q 1578 4219 1281 4162 
Q 984 4106 628 3988 
L 628 4550 
Q 988 4650 1302 4700 
Q 1616 4750 1894 4750 
Q 2613 4750 3031 4423 
Q 3450 4097 3450 3541 
Q 3450 3153 3228 2886 
Q 3006 2619 2597 2516 
z
" transform="scale(0.015625)"/>
       </defs>
       <use xlink:href="#DejaVuSans-33"/>
       <use xlink:href="#DejaVuSans-2e" transform="translate(63.623047 0)"/>
       <use xlink:href="#DejaVuSans-30" transform="translate(95.410156 0)"/>
      </g>
     </g>
    </g>
    <g id="xtick_6">
     <g id="line2d_6">
      <g>
       <use xlink:href="#m5f25a38b7b" x="278.44218" y="228.96" style="stroke: #000000; stroke-width: 0.8"/>
      </g>
     </g>
     <g id="text_6">
      <!-- 3.5 -->
      <g transform="translate(270.490618 243.558437) scale(0.1 -0.1)">
       <use xlink:href="#DejaVuSans-33"/>
       <use xlink:href="#DejaVuSans-2e" transform="translate(63.623047 0)"/>
       <use xlink:href="#DejaVuSans-35" transform="translate(95.410156 0)"/>
      </g>
     </g>
    </g>
    <g id="xtick_7">
     <g id="line2d_7">
      <g>
       <use xlink:href="#m5f25a38b7b" x="318.490027" y="228.96" style="stroke: #000000; stroke-width: 0.8"/>
      </g>
     </g>
     <g id="text_7">
      <!-- 4.0 -->
      <g transform="translate(310.538464 243.558437) scale(0.1 -0.1)">
       <defs>
        <path id="DejaVuSans-34" d="M 2419 4116 
L 825 1625 
L 2419 1625 
L 2419 4116 
z
M 2253 4666 
L 3047 4666 
L 3047 1625 
L 3713 1625 
L 3713 1100 
L 3047 1100 
L 3047 0 
L 2419 0 
L 2419 1100 
L 313 1100 
L 313 1709 
L 2253 4666 
z
" transform="scale(0.015625)"/>
       </defs>
       <use xlink:href="#DejaVuSans-34"/>
       <use xlink:href="#DejaVuSans-2e" transform="translate(63.623047 0)"/>
       <use xlink:href="#DejaVuSans-30" transform="translate(95.410156 0)"/>
      </g>
     </g>
    </g>
    <g id="xtick_8">
     <g id="line2d_8">
      <g>
       <use xlink:href="#m5f25a38b7b" x="358.537874" y="228.96" style="stroke: #000000; stroke-width: 0.8"/>
      </g>
     </g>
     <g id="text_8">
      <!-- 4.5 -->
      <g transform="translate(350.586311 243.558437) scale(0.1 -0.1)">
       <use xlink:href="#DejaVuSans-34"/>
       <use xlink:href="#DejaVuSans-2e" transform="translate(63.623047 0)"/>
       <use xlink:href="#DejaVuSans-35" transform="translate(95.410156 0)"/>
      </g>
     </g>
    </g>
    <g id="text_9">
     <!-- wavelength [Å] -->
     <g transform="translate(176.328125 258.920937) scale(0.1 -0.1)">
      <defs>
       <path id="DejaVuSans-77" d="M 269 3500 
L 844 3500 
L 1563 769 
L 2278 3500 
L 2956 3500 
L 3675 769 
L 4391 3500 
L 4966 3500 
L 4050 0 
L 3372 0 
L 2619 2869 
L 1863 0 
L 1184 0 
L 269 3500 
z
" transform="scale(0.015625)"/>
       <path id="DejaVuSans-61" d="M 2194 1759 
Q 1497 1759 1228 1600 
Q 959 1441 959 1056 
Q 959 750 1161 570 
Q 1363 391 1709 391 
Q 2188 391 2477 730 
Q 2766 1069 2766 1631 
L 2766 1759 
L 2194 1759 
z
M 3341 1997 
L 3341 0 
L 2766 0 
L 2766 531 
Q 2569 213 2275 61 
Q 1981 -91 1556 -91 
Q 1019 -91 701 211 
Q 384 513 384 1019 
Q 384 1609 779 1909 
Q 1175 2209 1959 2209 
L 2766 2209 
L 2766 2266 
Q 2766 2663 2505 2880 
Q 2244 3097 1772 3097 
Q 1472 3097 1187 3025 
Q 903 2953 641 2809 
L 641 3341 
Q 956 3463 1253 3523 
Q 1550 3584 1831 3584 
Q 2591 3584 2966 3190 
Q 3341 2797 3341 1997 
z
" transform="scale(0.015625)"/>
       <path id="DejaVuSans-76" d="M 191 3500 
L 800 3500 
L 1894 563 
L 2988 3500 
L 3597 3500 
L 2284 0 
L 1503 0 
L 191 3500 
z
" transform="scale(0.015625)"/>
       <path id="DejaVuSans-65" d="M 3597 1894 
L 3597 1613 
L 953 1613 
Q 991 1019 1311 708 
Q 1631 397 2203 397 
Q 2534 397 2845 478 
Q 3156 559 3463 722 
L 3463 178 
Q 3153 47 2828 -22 
Q 2503 -91 2169 -91 
Q 1331 -91 842 396 
Q 353 884 353 1716 
Q 353 2575 817 3079 
Q 1281 3584 2069 3584 
Q 2775 3584 3186 3129 
Q 3597 2675 3597 1894 
z
M 3022 2063 
Q 3016 2534 2758 2815 
Q 2500 3097 2075 3097 
Q 1594 3097 1305 2825 
Q 1016 2553 972 2059 
L 3022 2063 
z
" transform="scale(0.015625)"/>
       <path id="DejaVuSans-6c" d="M 603 4863 
L 1178 4863 
L 1178 0 
L 603 0 
L 603 4863 
z
" transform="scale(0.015625)"/>
       <path id="DejaVuSans-6e" d="M 3513 2113 
L 3513 0 
L 2938 0 
L 2938 2094 
Q 2938 2591 2744 2837 
Q 2550 3084 2163 3084 
Q 1697 3084 1428 2787 
Q 1159 2491 1159 1978 
L 1159 0 
L 581 0 
L 581 3500 
L 1159 3500 
L 1159 2956 
Q 1366 3272 1645 3428 
Q 1925 3584 2291 3584 
Q 2894 3584 3203 3211 
Q 3513 2838 3513 2113 
z
" transform="scale(0.015625)"/>
       <path id="DejaVuSans-67" d="M 2906 1791 
Q 2906 2416 2648 2759 
Q 2391 3103 1925 3103 
Q 1463 3103 1205 2759 
Q 947 2416 947 1791 
Q 947 1169 1205 825 
Q 1463 481 1925 481 
Q 2391 481 2648 825 
Q 2906 1169 2906 1791 
z
M 3481 434 
Q 3481 -459 3084 -895 
Q 2688 -1331 1869 -1331 
Q 1566 -1331 1297 -1286 
Q 1028 -1241 775 -1147 
L 775 -588 
Q 1028 -725 1275 -790 
Q 1522 -856 1778 -856 
Q 2344 -856 2625 -561 
Q 2906 -266 2906 331 
L 2906 616 
Q 2728 306 2450 153 
Q 2172 0 1784 0 
Q 1141 0 747 490 
Q 353 981 353 1791 
Q 353 2603 747 3093 
Q 1141 3584 1784 3584 
Q 2172 3584 2450 3431 
Q 2728 3278 2906 2969 
L 2906 3500 
L 3481 3500 
L 3481 434 
z
" transform="scale(0.015625)"/>
       <path id="DejaVuSans-74" d="M 1172 4494 
L 1172 3500 
L 2356 3500 
L 2356 3053 
L 1172 3053 
L 1172 1153 
Q 1172 725 1289 603 
Q 1406 481 1766 481 
L 2356 481 
L 2356 0 
L 1766 0 
Q 1100 0 847 248 
Q 594 497 594 1153 
L 594 3053 
L 172 3053 
L 172 3500 
L 594 3500 
L 594 4494 
L 1172 4494 
z
" transform="scale(0.015625)"/>
       <path id="DejaVuSans-68" d="M 3513 2113 
L 3513 0 
L 2938 0 
L 2938 2094 
Q 2938 2591 2744 2837 
Q 2550 3084 2163 3084 
Q 1697 3084 1428 2787 
Q 1159 2491 1159 1978 
L 1159 0 
L 581 0 
L 581 4863 
L 1159 4863 
L 1159 2956 
Q 1366 3272 1645 3428 
Q 1925 3584 2291 3584 
Q 2894 3584 3203 3211 
Q 3513 2838 3513 2113 
z
" transform="scale(0.015625)"/>
       <path id="DejaVuSans-20" transform="scale(0.015625)"/>
       <path id="DejaVuSans-5b" d="M 550 4863 
L 1875 4863 
L 1875 4416 
L 1125 4416 
L 1125 -397 
L 1875 -397 
L 1875 -844 
L 550 -844 
L 550 4863 
z
" transform="scale(0.015625)"/>
       <path id="DejaVuSans-c5" d="M 2663 5081 
Q 2663 5278 2523 5417 
Q 2384 5556 2188 5556 
Q 1988 5556 1852 5420 
Q 1716 5284 1716 5081 
Q 1716 4884 1853 4746 
Q 1991 4609 2188 4609 
Q 2384 4609 2523 4746 
Q 2663 4884 2663 5081 
z
M 2188 4044 
L 1338 1722 
L 3041 1722 
L 2188 4044 
z
M 1716 4366 
Q 1525 4494 1428 4673 
Q 1331 4853 1331 5081 
Q 1331 5441 1579 5691 
Q 1828 5941 2188 5941 
Q 2544 5941 2795 5689 
Q 3047 5438 3047 5081 
Q 3047 4863 2948 4678 
Q 2850 4494 2663 4366 
L 4325 0 
L 3669 0 
L 3244 1197 
L 1141 1197 
L 716 0 
L 50 0 
L 1716 4366 
z
" transform="scale(0.015625)"/>
       <path id="DejaVuSans-5d" d="M 1947 4863 
L 1947 -844 
L 622 -844 
L 622 -397 
L 1369 -397 
L 1369 4416 
L 622 4416 
L 622 4863 
L 1947 4863 
z
" transform="scale(0.015625)"/>
      </defs>
      <use xlink:href="#DejaVuSans-77"/>
      <use xlink:href="#DejaVuSans-61" transform="translate(81.787109 0)"/>
      <use xlink:href="#DejaVuSans-76" transform="translate(143.066406 0)"/>
      <use xlink:href="#DejaVuSans-65" transform="translate(202.246094 0)"/>
      <use xlink:href="#DejaVuSans-6c" transform="translate(263.769531 0)"/>
      <use xlink:href="#DejaVuSans-65" transform="translate(291.552734 0)"/>
      <use xlink:href="#DejaVuSans-6e" transform="translate(353.076172 0)"/>
      <use xlink:href="#DejaVuSans-67" transform="translate(416.455078 0)"/>
      <use xlink:href="#DejaVuSans-74" transform="translate(479.931641 0)"/>
      <use xlink:href="#DejaVuSans-68" transform="translate(519.140625 0)"/>
      <use xlink:href="#DejaVuSans-20" transform="translate(582.519531 0)"/>
      <use xlink:href="#DejaVuSans-5b" transform="translate(614.306641 0)"/>
      <use xlink:href="#DejaVuSans-c5" transform="translate(653.320312 0)"/>
      <use xlink:href="#DejaVuSans-5d" transform="translate(721.728516 0)"/>
     </g>
    </g>
   </g>
   <g id="matplotlib.axis_2">
    <g id="ytick_1">
     <g id="line2d_9">
      <defs>
       <path id="m4f8a1d0a78" d="M 0 0 
L -3.5 0 
" style="stroke: #000000; stroke-width: 0.8"/>
      </defs>
      <g>
       <use xlink:href="#m4f8a1d0a78" x="46.965625" y="218.88" style="stroke: #000000; stroke-width: 0.8"/>
      </g>
     </g>
     <g id="text_10">
      <!-- 0 -->
      <g transform="translate(33.603125 222.679219) scale(0.1 -0.1)">
       <use xlink:href="#DejaVuSans-30"/>
      </g>
     </g>
    </g>
    <g id="ytick_2">
     <g id="line2d_10">
      <g>
       <use xlink:href="#m4f8a1d0a78" x="46.965625" y="170.534676" style="stroke: #000000; stroke-width: 0.8"/>
      </g>
     </g>
     <g id="text_11">
      <!-- 200 -->
      <g transform="translate(20.878125 174.333895) scale(0.1 -0.1)">
       <use xlink:href="#DejaVuSans-32"/>
       <use xlink:href="#DejaVuSans-30" transform="translate(63.623047 0)"/>
       <use xlink:href="#DejaVuSans-30" transform="translate(127.246094 0)"/>
      </g>
     </g>
    </g>
    <g id="ytick_3">
     <g id="line2d_11">
      <g>
       <use xlink:href="#m4f8a1d0a78" x="46.965625" y="122.189353" style="stroke: #000000; stroke-width: 0.8"/>
      </g>
     </g>
     <g id="text_12">
      <!-- 400 -->
      <g transform="translate(20.878125 125.988571) scale(0.1 -0.1)">
       <use xlink:href="#DejaVuSans-34"/>
       <use xlink:href="#DejaVuSans-30" transform="translate(63.623047 0)"/>
       <use xlink:href="#DejaVuSans-30" transform="translate(127.246094 0)"/>
      </g>
     </g>
    </g>
    <g id="ytick_4">
     <g id="line2d_12">
      <g>
       <use xlink:href="#m4f8a1d0a78" x="46.965625" y="73.844029" style="stroke: #000000; stroke-width: 0.8"/>
      </g>
     </g>
     <g id="text_13">
      <!-- 600 -->
      <g transform="translate(20.878125 77.643248) scale(0.1 -0.1)">
       <defs>
        <path id="DejaVuSans-36" d="M 2113 2584 
Q 1688 2584 1439 2293 
Q 1191 2003 1191 1497 
Q 1191 994 1439 701 
Q 1688 409 2113 409 
Q 2538 409 2786 701 
Q 3034 994 3034 1497 
Q 3034 2003 2786 2293 
Q 2538 2584 2113 2584 
z
M 3366 4563 
L 3366 3988 
Q 3128 4100 2886 4159 
Q 2644 4219 2406 4219 
Q 1781 4219 1451 3797 
Q 1122 3375 1075 2522 
Q 1259 2794 1537 2939 
Q 1816 3084 2150 3084 
Q 2853 3084 3261 2657 
Q 3669 2231 3669 1497 
Q 3669 778 3244 343 
Q 2819 -91 2113 -91 
Q 1303 -91 875 529 
Q 447 1150 447 2328 
Q 447 3434 972 4092 
Q 1497 4750 2381 4750 
Q 2619 4750 2861 4703 
Q 3103 4656 3366 4563 
z
" transform="scale(0.015625)"/>
       </defs>
       <use xlink:href="#DejaVuSans-36"/>
       <use xlink:href="#DejaVuSans-30" transform="translate(63.623047 0)"/>
       <use xlink:href="#DejaVuSans-30" transform="translate(127.246094 0)"/>
      </g>
     </g>
    </g>
    <g id="ytick_5">
     <g id="line2d_13">
      <g>
       <use xlink:href="#m4f8a1d0a78" x="46.965625" y="25.498705" style="stroke: #000000; stroke-width: 0.8"/>
      </g>
     </g>
     <g id="text_14">
      <!-- 800 -->
      <g transform="translate(20.878125 29.297924) scale(0.1 -0.1)">
       <defs>
        <path id="DejaVuSans-38" d="M 2034 2216 
Q 1584 2216 1326 1975 
Q 1069 1734 1069 1313 
Q 1069 891 1326 650 
Q 1584 409 2034 409 
Q 2484 409 2743 651 
Q 3003 894 3003 1313 
Q 3003 1734 2745 1975 
Q 2488 2216 2034 2216 
z
M 1403 2484 
Q 997 2584 770 2862 
Q 544 3141 544 3541 
Q 544 4100 942 4425 
Q 1341 4750 2034 4750 
Q 2731 4750 3128 4425 
Q 3525 4100 3525 3541 
Q 3525 3141 3298 2862 
Q 3072 2584 2669 2484 
Q 3125 2378 3379 2068 
Q 3634 1759 3634 1313 
Q 3634 634 3220 271 
Q 2806 -91 2034 -91 
Q 1263 -91 848 271 
Q 434 634 434 1313 
Q 434 1759 690 2068 
Q 947 2378 1403 2484 
z
M 1172 3481 
Q 1172 3119 1398 2916 
Q 1625 2713 2034 2713 
Q 2441 2713 2670 2916 
Q 2900 3119 2900 3481 
Q 2900 3844 2670 4047 
Q 2441 4250 2034 4250 
Q 1625 4250 1398 4047 
Q 1172 3844 1172 3481 
z
" transform="scale(0.015625)"/>
       </defs>
       <use xlink:href="#DejaVuSans-38"/>
       <use xlink:href="#DejaVuSans-30" transform="translate(63.623047 0)"/>
       <use xlink:href="#DejaVuSans-30" transform="translate(127.246094 0)"/>
      </g>
     </g>
    </g>
    <g id="text_15">
     <!-- [counts] -->
     <g transform="translate(14.798438 138.6925) rotate(-90) scale(0.1 -0.1)">
      <defs>
       <path id="DejaVuSans-63" d="M 3122 3366 
L 3122 2828 
Q 2878 2963 2633 3030 
Q 2388 3097 2138 3097 
Q 1578 3097 1268 2742 
Q 959 2388 959 1747 
Q 959 1106 1268 751 
Q 1578 397 2138 397 
Q 2388 397 2633 464 
Q 2878 531 3122 666 
L 3122 134 
Q 2881 22 2623 -34 
Q 2366 -91 2075 -91 
Q 1284 -91 818 406 
Q 353 903 353 1747 
Q 353 2603 823 3093 
Q 1294 3584 2113 3584 
Q 2378 3584 2631 3529 
Q 2884 3475 3122 3366 
z
" transform="scale(0.015625)"/>
       <path id="DejaVuSans-6f" d="M 1959 3097 
Q 1497 3097 1228 2736 
Q 959 2375 959 1747 
Q 959 1119 1226 758 
Q 1494 397 1959 397 
Q 2419 397 2687 759 
Q 2956 1122 2956 1747 
Q 2956 2369 2687 2733 
Q 2419 3097 1959 3097 
z
M 1959 3584 
Q 2709 3584 3137 3096 
Q 3566 2609 3566 1747 
Q 3566 888 3137 398 
Q 2709 -91 1959 -91 
Q 1206 -91 779 398 
Q 353 888 353 1747 
Q 353 2609 779 3096 
Q 1206 3584 1959 3584 
z
" transform="scale(0.015625)"/>
       <path id="DejaVuSans-75" d="M 544 1381 
L 544 3500 
L 1119 3500 
L 1119 1403 
Q 1119 906 1312 657 
Q 1506 409 1894 409 
Q 2359 409 2629 706 
Q 2900 1003 2900 1516 
L 2900 3500 
L 3475 3500 
L 3475 0 
L 2900 0 
L 2900 538 
Q 2691 219 2414 64 
Q 2138 -91 1772 -91 
Q 1169 -91 856 284 
Q 544 659 544 1381 
z
M 1991 3584 
L 1991 3584 
z
" transform="scale(0.015625)"/>
       <path id="DejaVuSans-73" d="M 2834 3397 
L 2834 2853 
Q 2591 2978 2328 3040 
Q 2066 3103 1784 3103 
Q 1356 3103 1142 2972 
Q 928 2841 928 2578 
Q 928 2378 1081 2264 
Q 1234 2150 1697 2047 
L 1894 2003 
Q 2506 1872 2764 1633 
Q 3022 1394 3022 966 
Q 3022 478 2636 193 
Q 2250 -91 1575 -91 
Q 1294 -91 989 -36 
Q 684 19 347 128 
L 347 722 
Q 666 556 975 473 
Q 1284 391 1588 391 
Q 1994 391 2212 530 
Q 2431 669 2431 922 
Q 2431 1156 2273 1281 
Q 2116 1406 1581 1522 
L 1381 1569 
Q 847 1681 609 1914 
Q 372 2147 372 2553 
Q 372 3047 722 3315 
Q 1072 3584 1716 3584 
Q 2034 3584 2315 3537 
Q 2597 3491 2834 3397 
z
" transform="scale(0.015625)"/>
      </defs>
      <use xlink:href="#DejaVuSans-5b"/>
      <use xlink:href="#DejaVuSans-63" transform="translate(39.013672 0)"/>
      <use xlink:href="#DejaVuSans-6f" transform="translate(93.994141 0)"/>
      <use xlink:href="#DejaVuSans-75" transform="translate(155.175781 0)"/>
      <use xlink:href="#DejaVuSans-6e" transform="translate(218.554688 0)"/>
      <use xlink:href="#DejaVuSans-74" transform="translate(281.933594 0)"/>
      <use xlink:href="#DejaVuSans-73" transform="translate(321.142578 0)"/>
      <use xlink:href="#DejaVuSans-5d" transform="translate(373.242188 0)"/>
     </g>
    </g>
   </g>
   <g id="line2d_14">
    <path d="M 62.183807 218.88 
L 69.792898 218.88 
L 69.792898 216.946187 
L 71.314716 216.946187 
L 71.314716 211.628201 
L 72.836534 211.628201 
L 72.836534 201.959137 
L 74.358352 201.959137 
L 74.358352 195.674245 
L 75.88017 195.674245 
L 75.88017 186.246906 
L 77.401989 186.246906 
L 77.401989 181.170647 
L 78.923807 181.170647 
L 78.923807 169.56777 
L 80.445625 169.56777 
L 80.445625 164.733237 
L 81.967443 164.733237 
L 81.967443 154.822446 
L 83.489261 154.822446 
L 83.489261 147.328921 
L 85.01108 147.328921 
L 85.01108 144.911655 
L 86.532898 144.911655 
L 86.532898 142.010935 
L 88.054716 142.010935 
L 88.054716 127.749065 
L 89.576534 127.749065 
L 89.576534 123.639712 
L 91.098352 123.639712 
L 91.098352 122.431079 
L 92.62017 122.431079 
L 92.62017 99.708777 
L 94.141989 99.708777 
L 94.141989 95.115971 
L 95.663807 95.115971 
L 95.663807 96.566331 
L 97.185625 96.566331 
L 97.185625 84.238273 
L 98.707443 84.238273 
L 98.707443 87.138993 
L 100.229261 87.138993 
L 100.229261 74.327482 
L 101.75108 74.327482 
L 101.75108 64.416691 
L 103.272898 64.416691 
L 103.272898 74.327482 
L 104.794716 74.327482 
L 104.794716 69.734676 
L 106.316534 69.734676 
L 106.316534 52.33036 
L 107.838352 52.33036 
L 107.838352 56.197986 
L 109.36017 56.197986 
L 109.36017 44.836835 
L 110.881989 44.836835 
L 110.881989 48.462734 
L 112.403807 48.462734 
L 112.403807 55.472806 
L 113.925625 55.472806 
L 113.925625 45.803741 
L 115.447443 45.803741 
L 115.447443 28.399424 
L 116.969261 28.399424 
L 116.969261 44.353381 
L 118.49108 44.353381 
L 118.49108 32.26705 
L 120.012898 32.26705 
L 120.012898 17.28 
L 121.534716 17.28 
L 121.534716 28.641151 
L 123.056534 28.641151 
L 123.056534 46.528921 
L 124.578352 46.528921 
L 124.578352 27.190791 
L 126.10017 27.190791 
L 126.10017 34.44259 
L 127.621989 34.44259 
L 127.621989 48.70446 
L 129.143807 48.70446 
L 129.143807 49.913094 
L 130.665625 49.913094 
L 130.665625 45.078561 
L 132.187443 45.078561 
L 132.187443 48.946187 
L 133.709261 48.946187 
L 133.709261 52.572086 
L 135.23108 52.572086 
L 135.23108 50.638273 
L 136.752898 50.638273 
L 136.752898 60.549065 
L 138.274716 60.549065 
L 138.274716 63.208058 
L 139.796534 63.208058 
L 139.796534 69.734676 
L 141.318352 69.734676 
L 141.318352 47.495827 
L 142.84017 47.495827 
L 142.84017 69.49295 
L 144.361989 69.49295 
L 144.361989 63.208058 
L 145.883807 63.208058 
L 145.883807 62.966331 
L 147.405625 62.966331 
L 147.405625 72.877122 
L 148.927443 72.877122 
L 148.927443 56.197986 
L 150.449261 56.197986 
L 150.449261 70.701583 
L 151.97108 70.701583 
L 151.97108 58.373525 
L 153.492898 58.373525 
L 153.492898 76.986475 
L 155.014716 76.986475 
L 155.014716 76.503022 
L 156.536534 76.503022 
L 156.536534 67.075683 
L 158.058352 67.075683 
L 158.058352 80.854101 
L 159.58017 80.854101 
L 159.58017 79.887194 
L 161.101989 79.887194 
L 161.101989 75.052662 
L 162.623807 75.052662 
L 162.623807 87.380719 
L 164.145625 87.380719 
L 164.145625 68.76777 
L 165.667443 68.76777 
L 165.667443 80.612374 
L 167.189261 80.612374 
L 167.189261 80.370647 
L 168.71108 80.370647 
L 168.71108 72.877122 
L 170.232898 72.877122 
L 170.232898 68.04259 
L 171.754716 68.04259 
L 171.754716 71.910216 
L 173.276534 71.910216 
L 173.276534 81.095827 
L 174.798352 81.095827 
L 174.798352 87.380719 
L 176.32017 87.380719 
L 176.32017 77.953381 
L 177.841989 77.953381 
L 177.841989 85.20518 
L 179.363807 85.20518 
L 179.363807 87.622446 
L 182.407443 87.622446 
L 182.407443 87.864173 
L 183.929261 87.864173 
L 183.929261 100.91741 
L 185.45108 100.91741 
L 185.45108 113.003741 
L 186.972898 113.003741 
L 186.972898 117.596547 
L 188.494716 117.596547 
L 188.494716 121.464173 
L 190.016534 121.464173 
L 190.016534 138.626763 
L 191.538352 138.626763 
L 191.538352 149.021007 
L 193.06017 149.021007 
L 193.06017 150.471367 
L 194.581989 150.471367 
L 194.581989 157.239712 
L 196.103807 157.239712 
L 196.103807 166.183597 
L 197.625625 166.183597 
L 197.625625 175.610935 
L 199.147443 175.610935 
L 199.147443 180.445468 
L 200.669261 180.445468 
L 200.669261 181.654101 
L 202.19108 181.654101 
L 202.19108 190.839712 
L 203.712898 190.839712 
L 203.712898 196.399424 
L 205.234716 196.399424 
L 205.234716 201.475683 
L 206.756534 201.475683 
L 206.756534 207.035396 
L 208.278352 207.035396 
L 208.278352 215.012374 
L 209.80017 215.012374 
L 209.80017 215.495827 
L 211.321989 215.495827 
L 211.321989 217.187914 
L 212.843807 217.187914 
L 212.843807 214.528921 
L 214.365625 214.528921 
L 214.365625 208.485755 
L 215.887443 208.485755 
L 215.887443 202.200863 
L 217.409261 202.200863 
L 217.409261 197.849784 
L 218.93108 197.849784 
L 218.93108 191.081439 
L 220.452898 191.081439 
L 220.452898 182.621007 
L 223.496534 182.621007 
L 223.496534 175.610935 
L 225.018352 175.610935 
L 225.018352 169.326043 
L 226.54017 169.326043 
L 226.54017 169.809496 
L 228.061989 169.809496 
L 228.061989 154.822446 
L 229.583807 154.822446 
L 229.583807 152.163453 
L 231.105625 152.163453 
L 231.105625 142.736115 
L 232.627443 142.736115 
L 232.627443 144.911655 
L 234.149261 144.911655 
L 234.149261 144.186475 
L 235.67108 144.186475 
L 235.67108 135.484317 
L 237.192898 135.484317 
L 237.192898 140.077122 
L 238.714716 140.077122 
L 238.714716 128.232518 
L 240.236534 128.232518 
L 240.236534 115.90446 
L 241.758352 115.90446 
L 241.758352 129.924604 
L 243.28017 129.924604 
L 243.28017 127.990791 
L 244.801989 127.990791 
L 244.801989 116.871367 
L 246.323807 116.871367 
L 246.323807 120.25554 
L 247.845625 120.25554 
L 247.845625 104.301583 
L 249.367443 104.301583 
L 249.367443 111.553381 
L 250.889261 111.553381 
L 250.889261 91.973525 
L 252.41108 91.973525 
L 252.41108 110.586475 
L 253.932898 110.586475 
L 253.932898 92.456978 
L 255.454716 92.456978 
L 255.454716 113.003741 
L 256.976534 113.003741 
L 256.976534 92.698705 
L 258.498352 92.698705 
L 258.498352 90.523165 
L 260.02017 90.523165 
L 260.02017 93.182158 
L 261.541989 93.182158 
L 261.541989 102.609496 
L 263.063807 102.609496 
L 263.063807 102.126043 
L 264.585625 102.126043 
L 264.585625 99.225324 
L 266.107443 99.225324 
L 266.107443 109.136115 
L 267.629261 109.136115 
L 267.629261 104.059856 
L 269.15108 104.059856 
L 269.15108 99.46705 
L 270.672898 99.46705 
L 270.672898 108.410935 
L 272.194716 108.410935 
L 272.194716 102.851223 
L 273.716534 102.851223 
L 273.716534 98.500144 
L 275.238352 98.500144 
L 275.238352 110.828201 
L 276.76017 110.828201 
L 276.76017 113.728921 
L 278.281989 113.728921 
L 278.281989 116.387914 
L 279.803807 116.387914 
L 279.803807 116.146187 
L 281.325625 116.146187 
L 281.325625 117.35482 
L 282.847443 117.35482 
L 282.847443 128.957698 
L 284.369261 128.957698 
L 284.369261 121.464173 
L 285.89108 121.464173 
L 285.89108 139.593669 
L 287.412898 139.593669 
L 287.412898 124.123165 
L 288.934716 124.123165 
L 288.934716 123.881439 
L 290.456534 123.881439 
L 290.456534 140.318849 
L 291.978352 140.318849 
L 291.978352 127.265612 
L 293.50017 127.265612 
L 293.50017 131.133237 
L 295.021989 131.133237 
L 295.021989 128.474245 
L 296.543807 128.474245 
L 296.543807 140.077122 
L 298.065625 140.077122 
L 298.065625 135.726043 
L 299.587443 135.726043 
L 299.587443 136.69295 
L 301.109261 136.69295 
L 301.109261 134.275683 
L 302.63108 134.275683 
L 302.63108 140.560576 
L 304.152898 140.560576 
L 304.152898 141.769209 
L 305.674716 141.769209 
L 305.674716 152.40518 
L 307.196534 152.40518 
L 307.196534 135.96777 
L 308.718352 135.96777 
L 308.718352 147.328921 
L 310.24017 147.328921 
L 310.24017 149.746187 
L 311.761989 149.746187 
L 311.761989 151.921727 
L 313.283807 151.921727 
L 313.283807 140.077122 
L 314.805625 140.077122 
L 314.805625 150.22964 
L 316.327443 150.22964 
L 316.327443 162.315971 
L 317.849261 162.315971 
L 317.849261 151.196547 
L 319.37108 151.196547 
L 319.37108 160.140432 
L 320.892898 160.140432 
L 320.892898 160.382158 
L 322.414716 160.382158 
L 322.414716 161.349065 
L 323.936534 161.349065 
L 323.936534 165.700144 
L 325.458352 165.700144 
L 325.458352 174.885755 
L 326.98017 174.885755 
L 326.98017 173.918849 
L 328.501989 173.918849 
L 328.501989 178.269928 
L 330.023807 178.269928 
L 330.023807 184.55482 
L 331.545625 184.55482 
L 331.545625 184.071367 
L 333.067443 184.071367 
L 333.067443 182.379281 
L 334.589261 182.379281 
L 334.589261 193.740432 
L 336.11108 193.740432 
L 336.11108 192.048345 
L 337.632898 192.048345 
L 337.632898 193.498705 
L 339.154716 193.498705 
L 339.154716 202.200863 
L 340.676534 202.200863 
L 340.676534 200.99223 
L 342.198352 200.99223 
L 342.198352 201.233957 
L 343.72017 201.233957 
L 343.72017 205.101583 
L 345.241989 205.101583 
L 345.241989 207.518849 
L 346.763807 207.518849 
L 346.763807 211.386475 
L 348.285625 211.386475 
L 348.285625 212.111655 
L 349.807443 212.111655 
L 349.807443 214.528921 
L 351.329261 214.528921 
L 351.329261 216.462734 
L 352.85108 216.462734 
L 352.85108 216.70446 
L 354.372898 216.70446 
L 354.372898 218.396547 
L 355.894716 218.396547 
L 355.894716 216.946187 
L 357.416534 216.946187 
L 357.416534 218.88 
L 366.547443 218.88 
L 366.547443 218.88 
" clip-path="url(#p7e2c5a8b94)" style="fill: none; stroke: #1f77b4; stroke-width: 1.5; stroke-linecap: square"/>
   </g>
   <g id="line2d_15">
    <path d="M 62.183807 218.88 
L 69.792898 218.88 
L 69.792898 216.462734 
L 71.314716 216.462734 
L 71.314716 211.869928 
L 72.836534 211.869928 
L 72.836534 201.71741 
L 74.358352 201.71741 
L 74.358352 196.157698 
L 75.88017 196.157698 
L 75.88017 183.82964 
L 77.401989 183.82964 
L 77.401989 183.10446 
L 78.923807 183.10446 
L 78.923807 167.875683 
L 80.445625 167.875683 
L 80.445625 166.66705 
L 81.967443 166.66705 
L 81.967443 156.997986 
L 83.489261 156.997986 
L 83.489261 148.054101 
L 85.01108 148.054101 
L 85.01108 144.911655 
L 86.532898 144.911655 
L 86.532898 136.69295 
L 88.054716 136.69295 
L 88.054716 129.682878 
L 89.576534 129.682878 
L 89.576534 123.639712 
L 91.098352 123.639712 
L 91.098352 121.705899 
L 92.62017 121.705899 
L 92.62017 98.500144 
L 94.141989 98.500144 
L 94.141989 98.258417 
L 95.663807 98.258417 
L 95.663807 96.324604 
L 97.185625 96.324604 
L 97.185625 87.138993 
L 98.707443 87.138993 
L 98.707443 84.721727 
L 100.229261 84.721727 
L 100.229261 70.701583 
L 101.75108 70.701583 
L 101.75108 60.065612 
L 103.272898 60.065612 
L 103.272898 81.337554 
L 104.794716 81.337554 
L 104.794716 58.615252 
L 106.316534 58.615252 
L 106.316534 70.943309 
L 107.838352 70.943309 
L 107.838352 48.462734 
L 109.36017 48.462734 
L 109.36017 48.70446 
L 110.881989 48.70446 
L 110.881989 47.979281 
L 112.403807 47.979281 
L 112.403807 53.780719 
L 113.925625 53.780719 
L 113.925625 42.419568 
L 115.447443 42.419568 
L 115.447443 33.233957 
L 116.969261 33.233957 
L 116.969261 42.177842 
L 118.49108 42.177842 
L 118.49108 24.048345 
L 120.012898 24.048345 
L 120.012898 36.859856 
L 121.534716 36.859856 
L 121.534716 23.564892 
L 123.056534 23.564892 
L 123.056534 42.177842 
L 124.578352 42.177842 
L 124.578352 31.541871 
L 126.10017 31.541871 
L 126.10017 32.025324 
L 127.621989 32.025324 
L 127.621989 41.694388 
L 129.143807 41.694388 
L 129.143807 53.05554 
L 130.665625 53.05554 
L 130.665625 47.495827 
L 132.187443 47.495827 
L 132.187443 51.60518 
L 133.709261 51.60518 
L 133.709261 56.681439 
L 135.23108 56.681439 
L 135.23108 47.254101 
L 136.752898 47.254101 
L 136.752898 53.538993 
L 138.274716 53.538993 
L 138.274716 65.141871 
L 139.796534 65.141871 
L 139.796534 63.691511 
L 141.318352 63.691511 
L 141.318352 55.472806 
L 142.84017 55.472806 
L 142.84017 68.284317 
L 144.361989 68.284317 
L 144.361989 63.449784 
L 145.883807 63.449784 
L 145.883807 63.933237 
L 147.405625 63.933237 
L 147.405625 65.141871 
L 148.927443 65.141871 
L 148.927443 65.383597 
L 150.449261 65.383597 
L 150.449261 65.625324 
L 151.97108 65.625324 
L 151.97108 64.900144 
L 153.492898 64.900144 
L 153.492898 65.625324 
L 155.014716 65.625324 
L 155.014716 73.844029 
L 156.536534 73.844029 
L 156.536534 76.744748 
L 158.058352 76.744748 
L 158.058352 91.006619 
L 159.58017 91.006619 
L 159.58017 67.075683 
L 161.101989 67.075683 
L 161.101989 76.503022 
L 162.623807 76.503022 
L 162.623807 77.228201 
L 164.145625 77.228201 
L 164.145625 75.536115 
L 165.667443 75.536115 
L 165.667443 83.513094 
L 167.189261 83.513094 
L 167.189261 74.810935 
L 168.71108 74.810935 
L 168.71108 75.052662 
L 170.232898 75.052662 
L 170.232898 66.833957 
L 171.754716 66.833957 
L 171.754716 83.271367 
L 173.276534 83.271367 
L 173.276534 80.128921 
L 174.798352 80.128921 
L 174.798352 81.337554 
L 176.32017 81.337554 
L 176.32017 87.622446 
L 177.841989 87.622446 
L 177.841989 78.436835 
L 179.363807 78.436835 
L 179.363807 81.095827 
L 180.885625 81.095827 
L 180.885625 94.632518 
L 182.407443 94.632518 
L 182.407443 85.688633 
L 183.929261 85.688633 
L 183.929261 105.268489 
L 185.45108 105.268489 
L 185.45108 107.685755 
L 186.972898 107.685755 
L 186.972898 118.80518 
L 188.494716 118.80518 
L 188.494716 125.331799 
L 190.016534 125.331799 
L 190.016534 135.24259 
L 191.538352 135.24259 
L 191.538352 151.438273 
L 193.06017 151.438273 
L 193.06017 149.021007 
L 194.581989 149.021007 
L 194.581989 155.305899 
L 196.103807 155.305899 
L 196.103807 166.66705 
L 197.625625 166.66705 
L 197.625625 173.435396 
L 199.147443 173.435396 
L 199.147443 180.687194 
L 200.669261 180.687194 
L 200.669261 183.346187 
L 202.19108 183.346187 
L 202.19108 190.597986 
L 203.712898 190.597986 
L 203.712898 196.157698 
L 205.234716 196.157698 
L 205.234716 200.99223 
L 206.756534 200.99223 
L 206.756534 207.035396 
L 208.278352 207.035396 
L 208.278352 215.012374 
L 209.80017 215.012374 
L 209.80017 215.495827 
L 211.321989 215.495827 
L 211.321989 216.946187 
L 212.843807 216.946187 
L 212.843807 213.803741 
L 214.365625 213.803741 
L 214.365625 208.002302 
L 215.887443 208.002302 
L 215.887443 202.684317 
L 217.409261 202.684317 
L 217.409261 197.608058 
L 218.93108 197.608058 
L 218.93108 190.839712 
L 220.452898 190.839712 
L 220.452898 183.346187 
L 221.974716 183.346187 
L 221.974716 180.928921 
L 223.496534 180.928921 
L 223.496534 176.094388 
L 225.018352 176.094388 
L 225.018352 170.776403 
L 226.54017 170.776403 
L 226.54017 169.56777 
L 228.061989 169.56777 
L 228.061989 155.789353 
L 229.583807 155.789353 
L 229.583807 150.22964 
L 231.105625 150.22964 
L 231.105625 142.252662 
L 232.627443 142.252662 
L 232.627443 148.779281 
L 234.149261 148.779281 
L 234.149261 139.835396 
L 235.67108 139.835396 
L 235.67108 139.351942 
L 237.192898 139.351942 
L 237.192898 138.626763 
L 238.714716 138.626763 
L 238.714716 128.232518 
L 240.236534 128.232518 
L 240.236534 115.662734 
L 241.758352 115.662734 
L 241.758352 131.133237 
L 243.28017 131.133237 
L 243.28017 128.474245 
L 244.801989 128.474245 
L 244.801989 112.278561 
L 246.323807 112.278561 
L 246.323807 117.838273 
L 247.845625 117.838273 
L 247.845625 108.410935 
L 250.889261 108.410935 
L 250.889261 104.785036 
L 252.41108 104.785036 
L 252.41108 100.19223 
L 253.932898 100.19223 
L 253.932898 97.049784 
L 255.454716 97.049784 
L 255.454716 107.202302 
L 256.976534 107.202302 
L 256.976534 94.874245 
L 258.498352 94.874245 
L 258.498352 97.774964 
L 260.02017 97.774964 
L 260.02017 85.20518 
L 261.541989 85.20518 
L 261.541989 106.477122 
L 263.063807 106.477122 
L 263.063807 101.884317 
L 264.585625 101.884317 
L 264.585625 104.543309 
L 266.107443 104.543309 
L 266.107443 95.357698 
L 267.629261 95.357698 
L 267.629261 111.069928 
L 269.15108 111.069928 
L 269.15108 101.64259 
L 270.672898 101.64259 
L 270.672898 106.718849 
L 272.194716 106.718849 
L 272.194716 101.64259 
L 275.238352 101.64259 
L 275.238352 107.927482 
L 276.76017 107.927482 
L 276.76017 111.069928 
L 278.281989 111.069928 
L 278.281989 122.431079 
L 279.803807 122.431079 
L 279.803807 116.387914 
L 281.325625 116.387914 
L 281.325625 113.003741 
L 282.847443 113.003741 
L 282.847443 120.25554 
L 284.369261 120.25554 
L 284.369261 134.033957 
L 285.89108 134.033957 
L 285.89108 134.275683 
L 287.412898 134.275683 
L 287.412898 124.848345 
L 288.934716 124.848345 
L 288.934716 127.265612 
L 290.456534 127.265612 
L 290.456534 129.682878 
L 291.978352 129.682878 
L 291.978352 128.474245 
L 293.50017 128.474245 
L 293.50017 138.626763 
L 295.021989 138.626763 
L 295.021989 130.891511 
L 296.543807 130.891511 
L 296.543807 135.24259 
L 299.587443 135.24259 
L 299.587443 136.209496 
L 301.109261 136.209496 
L 301.109261 136.451223 
L 302.63108 136.451223 
L 302.63108 141.285755 
L 304.152898 141.285755 
L 304.152898 146.603741 
L 305.674716 146.603741 
L 305.674716 147.328921 
L 307.196534 147.328921 
L 307.196534 138.868489 
L 308.718352 138.868489 
L 308.718352 144.911655 
L 310.24017 144.911655 
L 310.24017 150.95482 
L 311.761989 150.95482 
L 311.761989 147.812374 
L 314.805625 147.812374 
L 314.805625 145.878561 
L 316.327443 145.878561 
L 316.327443 158.931799 
L 317.849261 158.931799 
L 317.849261 154.097266 
L 319.37108 154.097266 
L 319.37108 152.646906 
L 320.892898 152.646906 
L 320.892898 165.216691 
L 322.414716 165.216691 
L 322.414716 162.074245 
L 323.936534 162.074245 
L 323.936534 166.183597 
L 325.458352 166.183597 
L 325.458352 176.577842 
L 326.98017 176.577842 
L 326.98017 177.303022 
L 328.501989 177.303022 
L 328.501989 174.402302 
L 330.023807 174.402302 
L 330.023807 184.071367 
L 331.545625 184.071367 
L 331.545625 186.00518 
L 333.067443 186.00518 
L 333.067443 181.895827 
L 334.589261 181.895827 
L 334.589261 194.465612 
L 336.11108 194.465612 
L 336.11108 191.806619 
L 337.632898 191.806619 
L 337.632898 194.223885 
L 339.154716 194.223885 
L 339.154716 199.783597 
L 340.676534 199.783597 
L 340.676534 200.99223 
L 342.198352 200.99223 
L 342.198352 202.44259 
L 343.72017 202.44259 
L 343.72017 206.068489 
L 345.241989 206.068489 
L 345.241989 205.343309 
L 346.763807 205.343309 
L 346.763807 211.869928 
L 348.285625 211.869928 
L 348.285625 212.595108 
L 349.807443 212.595108 
L 349.807443 214.287194 
L 351.329261 214.287194 
L 351.329261 216.221007 
L 352.85108 216.221007 
L 352.85108 216.70446 
L 354.372898 216.70446 
L 354.372898 218.15482 
L 355.894716 218.15482 
L 355.894716 217.187914 
L 357.416534 217.187914 
L 357.416534 218.638273 
L 358.938352 218.638273 
L 358.938352 218.88 
L 366.547443 218.88 
L 366.547443 218.88 
" clip-path="url(#p7e2c5a8b94)" style="fill: none; stroke: #ff7f0e; stroke-width: 1.5; stroke-linecap: square"/>
   </g>
   <g id="patch_3">
    <path d="M 46.965625 228.96 
L 46.965625 7.2 
" style="fill: none; stroke: #000000; stroke-width: 0.8; stroke-linejoin: miter; stroke-linecap: square"/>
   </g>
   <g id="patch_4">
    <path d="M 381.765625 228.96 
L 381.765625 7.2 
" style="fill: none; stroke: #000000; stroke-width: 0.8; stroke-linejoin: miter; stroke-linecap: square"/>
   </g>
   <g id="patch_5">
    <path d="M 46.965625 228.96 
L 381.765625 228.96 
" style="fill: none; stroke: #000000; stroke-width: 0.8; stroke-linejoin: miter; stroke-linecap: square"/>
   </g>
   <g id="patch_6">
    <path d="M 46.965625 7.2 
L 381.765625 7.2 
" style="fill: none; stroke: #000000; stroke-width: 0.8; stroke-linejoin: miter; stroke-linecap: square"/>
   </g>
   <g id="legend_1">
    <g id="patch_7">
     <path d="M 277.7625 44.834375 
L 374.765625 44.834375 
Q 376.765625 44.834375 376.765625 42.834375 
L 376.765625 14.2 
Q 376.765625 12.2 374.765625 12.2 
L 277.7625 12.2 
Q 275.7625 12.2 275.7625 14.2 
L 275.7625 42.834375 
Q 275.7625 44.834375 277.7625 44.834375 
z
" style="fill: #ffffff; opacity: 0.8; stroke: #cccccc; stroke-linejoin: miter"/>
    </g>
    <g id="line2d_16">
     <path d="M 279.7625 20.298437 
L 279.7625 20.298437 
L 289.7625 20.298437 
L 289.7625 20.298437 
L 299.7625 20.298437 
" style="fill: none; stroke: #1f77b4; stroke-width: 1.5; stroke-linecap: square"/>
    </g>
    <g id="text_16">
     <!-- wfm -->
     <g transform="translate(307.7625 23.798437) scale(0.1 -0.1)">
      <defs>
       <path id="DejaVuSans-66" d="M 2375 4863 
L 2375 4384 
L 1825 4384 
Q 1516 4384 1395 4259 
Q 1275 4134 1275 3809 
L 1275 3500 
L 2222 3500 
L 2222 3053 
L 1275 3053 
L 1275 0 
L 697 0 
L 697 3053 
L 147 3053 
L 147 3500 
L 697 3500 
L 697 3744 
Q 697 4328 969 4595 
Q 1241 4863 1831 4863 
L 2375 4863 
z
" transform="scale(0.015625)"/>
       <path id="DejaVuSans-6d" d="M 3328 2828 
Q 3544 3216 3844 3400 
Q 4144 3584 4550 3584 
Q 5097 3584 5394 3201 
Q 5691 2819 5691 2113 
L 5691 0 
L 5113 0 
L 5113 2094 
Q 5113 2597 4934 2840 
Q 4756 3084 4391 3084 
Q 3944 3084 3684 2787 
Q 3425 2491 3425 1978 
L 3425 0 
L 2847 0 
L 2847 2094 
Q 2847 2600 2669 2842 
Q 2491 3084 2119 3084 
Q 1678 3084 1418 2786 
Q 1159 2488 1159 1978 
L 1159 0 
L 581 0 
L 581 3500 
L 1159 3500 
L 1159 2956 
Q 1356 3278 1631 3431 
Q 1906 3584 2284 3584 
Q 2666 3584 2933 3390 
Q 3200 3197 3328 2828 
z
" transform="scale(0.015625)"/>
      </defs>
      <use xlink:href="#DejaVuSans-77"/>
      <use xlink:href="#DejaVuSans-66" transform="translate(81.787109 0)"/>
      <use xlink:href="#DejaVuSans-6d" transform="translate(116.992188 0)"/>
     </g>
    </g>
    <g id="line2d_17">
     <path d="M 279.7625 34.976562 
L 279.7625 34.976562 
L 289.7625 34.976562 
L 289.7625 34.976562 
L 299.7625 34.976562 
" style="fill: none; stroke: #ff7f0e; stroke-width: 1.5; stroke-linecap: square"/>
    </g>
    <g id="text_17">
     <!-- ground_truth -->
     <g transform="translate(307.7625 38.476562) scale(0.1 -0.1)">
      <defs>
       <path id="DejaVuSans-72" d="M 2631 2963 
Q 2534 3019 2420 3045 
Q 2306 3072 2169 3072 
Q 1681 3072 1420 2755 
Q 1159 2438 1159 1844 
L 1159 0 
L 581 0 
L 581 3500 
L 1159 3500 
L 1159 2956 
Q 1341 3275 1631 3429 
Q 1922 3584 2338 3584 
Q 2397 3584 2469 3576 
Q 2541 3569 2628 3553 
L 2631 2963 
z
" transform="scale(0.015625)"/>
       <path id="DejaVuSans-64" d="M 2906 2969 
L 2906 4863 
L 3481 4863 
L 3481 0 
L 2906 0 
L 2906 525 
Q 2725 213 2448 61 
Q 2172 -91 1784 -91 
Q 1150 -91 751 415 
Q 353 922 353 1747 
Q 353 2572 751 3078 
Q 1150 3584 1784 3584 
Q 2172 3584 2448 3432 
Q 2725 3281 2906 2969 
z
M 947 1747 
Q 947 1113 1208 752 
Q 1469 391 1925 391 
Q 2381 391 2643 752 
Q 2906 1113 2906 1747 
Q 2906 2381 2643 2742 
Q 2381 3103 1925 3103 
Q 1469 3103 1208 2742 
Q 947 2381 947 1747 
z
" transform="scale(0.015625)"/>
       <path id="DejaVuSans-5f" d="M 3263 -1063 
L 3263 -1509 
L -63 -1509 
L -63 -1063 
L 3263 -1063 
z
" transform="scale(0.015625)"/>
      </defs>
      <use xlink:href="#DejaVuSans-67"/>
      <use xlink:href="#DejaVuSans-72" transform="translate(63.476562 0)"/>
      <use xlink:href="#DejaVuSans-6f" transform="translate(102.339844 0)"/>
      <use xlink:href="#DejaVuSans-75" transform="translate(163.521484 0)"/>
      <use xlink:href="#DejaVuSans-6e" transform="translate(226.900391 0)"/>
      <use xlink:href="#DejaVuSans-64" transform="translate(290.279297 0)"/>
      <use xlink:href="#DejaVuSans-5f" transform="translate(353.755859 0)"/>
      <use xlink:href="#DejaVuSans-74" transform="translate(403.755859 0)"/>
      <use xlink:href="#DejaVuSans-72" transform="translate(442.964844 0)"/>
      <use xlink:href="#DejaVuSans-75" transform="translate(484.078125 0)"/>
      <use xlink:href="#DejaVuSans-74" transform="translate(547.457031 0)"/>
      <use xlink:href="#DejaVuSans-68" transform="translate(586.666016 0)"/>
     </g>
    </g>
   </g>
  </g>
 </g>
 <defs>
  <clipPath id="p7e2c5a8b94">
   <rect x="46.965625" y="7.2" width="334.8" height="221.76"/>
  </clipPath>
 </defs>
</svg>
