<?xml version="1.0" encoding="utf-8" standalone="no"?>
<!DOCTYPE svg PUBLIC "-//W3C//DTD SVG 1.1//EN"
  "http://www.w3.org/Graphics/SVG/1.1/DTD/svg11.dtd">
<svg xmlns:xlink="http://www.w3.org/1999/xlink" width="872.39952pt" height="296.39952pt" viewBox="0 0 872.39952 296.39952" xmlns="http://www.w3.org/2000/svg" version="1.1">
 <metadata>
  <rdf:RDF xmlns:dc="http://purl.org/dc/elements/1.1/" xmlns:cc="http://creativecommons.org/ns#" xmlns:rdf="http://www.w3.org/1999/02/22-rdf-syntax-ns#">
   <cc:Work>
    <dc:type rdf:resource="http://purl.org/dc/dcmitype/StillImage"/>
    <dc:date>2025-12-05T13:47:11.115731</dc:date>
    <dc:format>image/svg+xml</dc:format>
    <dc:creator>
     <cc:Agent>
      <dc:title>Matplotlib v3.10.7, https://matplotlib.org/</dc:title>
     </cc:Agent>
    </dc:creator>
   </cc:Work>
  </rdf:RDF>
 </metadata>
 <defs>
  <style type="text/css">*{stroke-linejoin: round; stroke-linecap: butt}</style>
 </defs>
 <g id="figure_1">
  <g id="patch_1">
   <path d="M 0 296.39952 
L 872.39952 296.39952 
L 872.39952 0 
L 0 0 
z
" style="fill: #ffffff"/>
  </g>
  <g id="axes_1">
   <g id="patch_2">
    <path d="M 53.328125 257.158895 
L 414.59976 257.158895 
L 414.59976 7.2 
L 53.328125 7.2 
z
" style="fill: #ffffff"/>
   </g>
   <g id="matplotlib.axis_1">
    <g id="xtick_1">
     <g id="line2d_1">
      <defs>
       <path id="mfd6268fb86" d="M 0 0 
L 0 3.5 
" style="stroke: #000000; stroke-width: 0.8"/>
      </defs>
      <g>
       <use xlink:href="#mfd6268fb86" x="68.865038" y="257.158895" style="stroke: #000000; stroke-width: 0.8"/>
      </g>
     </g>
     <g id="text_1">
      <!-- 0 -->
      <g transform="translate(65.683788 271.757332) scale(0.1 -0.1)">
       <defs>
        <path id="DejaVuSans-30" d="M 2034 4250 
Q 1547 4250 1301 3770 
Q 1056 3291 1056 2328 
Q 1056 1369 1301 889 
Q 1547 409 2034 409 
Q 2525 409 2770 889 
Q 3016 1369 3016 2328 
Q 3016 3291 2770 3770 
Q 2525 4250 2034 4250 
z
M 2034 4750 
Q 2819 4750 3233 4129 
Q 3647 3509 3647 2328 
Q 3647 1150 3233 529 
Q 2819 -91 2034 -91 
Q 1250 -91 836 529 
Q 422 1150 422 2328 
Q 422 3509 836 4129 
Q 1250 4750 2034 4750 
z
" transform="scale(0.015625)"/>
       </defs>
       <use xlink:href="#DejaVuSans-30"/>
      </g>
     </g>
    </g>
    <g id="xtick_2">
     <g id="line2d_2">
      <g>
       <use xlink:href="#mfd6268fb86" x="134.928142" y="257.158895" style="stroke: #000000; stroke-width: 0.8"/>
      </g>
     </g>
     <g id="text_2">
      <!-- 1000 -->
      <g transform="translate(122.203142 271.757332) scale(0.1 -0.1)">
       <defs>
        <path id="DejaVuSans-31" d="M 794 531 
L 1825 531 
L 1825 4091 
L 703 3866 
L 703 4441 
L 1819 4666 
L 2450 4666 
L 2450 531 
L 3481 531 
L 3481 0 
L 794 0 
L 794 531 
z
" transform="scale(0.015625)"/>
       </defs>
       <use xlink:href="#DejaVuSans-31"/>
       <use xlink:href="#DejaVuSans-30" transform="translate(63.623047 0)"/>
       <use xlink:href="#DejaVuSans-30" transform="translate(127.246094 0)"/>
       <use xlink:href="#DejaVuSans-30" transform="translate(190.869141 0)"/>
      </g>
     </g>
    </g>
    <g id="xtick_3">
     <g id="line2d_3">
      <g>
       <use xlink:href="#mfd6268fb86" x="200.991247" y="257.158895" style="stroke: #000000; stroke-width: 0.8"/>
      </g>
     </g>
     <g id="text_3">
      <!-- 2000 -->
      <g transform="translate(188.266247 271.757332) scale(0.1 -0.1)">
       <defs>
        <path id="DejaVuSans-32" d="M 1228 531 
L 3431 531 
L 3431 0 
L 469 0 
L 469 531 
Q 828 903 1448 1529 
Q 2069 2156 2228 2338 
Q 2531 2678 2651 2914 
Q 2772 3150 2772 3378 
Q 2772 3750 2511 3984 
Q 2250 4219 1831 4219 
Q 1534 4219 1204 4116 
Q 875 4013 500 3803 
L 500 4441 
Q 881 4594 1212 4672 
Q 1544 4750 1819 4750 
Q 2544 4750 2975 4387 
Q 3406 4025 3406 3419 
Q 3406 3131 3298 2873 
Q 3191 2616 2906 2266 
Q 2828 2175 2409 1742 
Q 1991 1309 1228 531 
z
" transform="scale(0.015625)"/>
       </defs>
       <use xlink:href="#DejaVuSans-32"/>
       <use xlink:href="#DejaVuSans-30" transform="translate(63.623047 0)"/>
       <use xlink:href="#DejaVuSans-30" transform="translate(127.246094 0)"/>
       <use xlink:href="#DejaVuSans-30" transform="translate(190.869141 0)"/>
      </g>
     </g>
    </g>
    <g id="xtick_4">
     <g id="line2d_4">
      <g>
       <use xlink:href="#mfd6268fb86" x="267.054352" y="257.158895" style="stroke: #000000; stroke-width: 0.8"/>
      </g>
     </g>
     <g id="text_4">
      <!-- 3000 -->
      <g transform="translate(254.329352 271.757332) scale(0.1 -0.1)">
       <defs>
        <path id="DejaVuSans-33" d="M 2597 2516 
Q 3050 2419 3304 2112 
Q 3559 1806 3559 1356 
Q 3559 666 3084 287 
Q 2609 -91 1734 -91 
Q 1441 -91 1130 -33 
Q 819 25 488 141 
L 488 750 
Q 750 597 1062 519 
Q 1375 441 1716 441 
Q 2309 441 2620 675 
Q 2931 909 2931 1356 
Q 2931 1769 2642 2001 
Q 2353 2234 1838 2234 
L 1294 2234 
L 1294 2753 
L 1863 2753 
Q 2328 2753 2575 2939 
Q 2822 3125 2822 3475 
Q 2822 3834 2567 4026 
Q 2313 4219 1838 4219 
Q 1578 4219 1281 4162 
Q 984 4106 628 3988 
L 628 4550 
Q 988 4650 1302 4700 
Q 1616 4750 1894 4750 
Q 2613 4750 3031 4423 
Q 3450 4097 3450 3541 
Q 3450 3153 3228 2886 
Q 3006 2619 2597 2516 
z
" transform="scale(0.015625)"/>
       </defs>
       <use xlink:href="#DejaVuSans-33"/>
       <use xlink:href="#DejaVuSans-30" transform="translate(63.623047 0)"/>
       <use xlink:href="#DejaVuSans-30" transform="translate(127.246094 0)"/>
       <use xlink:href="#DejaVuSans-30" transform="translate(190.869141 0)"/>
      </g>
     </g>
    </g>
    <g id="xtick_5">
     <g id="line2d_5">
      <g>
       <use xlink:href="#mfd6268fb86" x="333.117456" y="257.158895" style="stroke: #000000; stroke-width: 0.8"/>
      </g>
     </g>
     <g id="text_5">
      <!-- 4000 -->
      <g transform="translate(320.392456 271.757332) scale(0.1 -0.1)">
       <defs>
        <path id="DejaVuSans-34" d="M 2419 4116 
L 825 1625 
L 2419 1625 
L 2419 4116 
z
M 2253 4666 
L 3047 4666 
L 3047 1625 
L 3713 1625 
L 3713 1100 
L 3047 1100 
L 3047 0 
L 2419 0 
L 2419 1100 
L 313 1100 
L 313 1709 
L 2253 4666 
z
" transform="scale(0.015625)"/>
       </defs>
       <use xlink:href="#DejaVuSans-34"/>
       <use xlink:href="#DejaVuSans-30" transform="translate(63.623047 0)"/>
       <use xlink:href="#DejaVuSans-30" transform="translate(127.246094 0)"/>
       <use xlink:href="#DejaVuSans-30" transform="translate(190.869141 0)"/>
      </g>
     </g>
    </g>
    <g id="xtick_6">
     <g id="line2d_6">
      <g>
       <use xlink:href="#mfd6268fb86" x="399.180561" y="257.158895" style="stroke: #000000; stroke-width: 0.8"/>
      </g>
     </g>
     <g id="text_6">
      <!-- 5000 -->
      <g transform="translate(386.455561 271.757332) scale(0.1 -0.1)">
       <defs>
        <path id="DejaVuSans-35" d="M 691 4666 
L 3169 4666 
L 3169 4134 
L 1269 4134 
L 1269 2991 
Q 1406 3038 1543 3061 
Q 1681 3084 1819 3084 
Q 2600 3084 3056 2656 
Q 3513 2228 3513 1497 
Q 3513 744 3044 326 
Q 2575 -91 1722 -91 
Q 1428 -91 1123 -41 
Q 819 9 494 109 
L 494 744 
Q 775 591 1075 516 
Q 1375 441 1709 441 
Q 2250 441 2565 725 
Q 2881 1009 2881 1497 
Q 2881 1984 2565 2268 
Q 2250 2553 1709 2553 
Q 1456 2553 1204 2497 
Q 953 2441 691 2322 
L 691 4666 
z
" transform="scale(0.015625)"/>
       </defs>
       <use xlink:href="#DejaVuSans-35"/>
       <use xlink:href="#DejaVuSans-30" transform="translate(63.623047 0)"/>
       <use xlink:href="#DejaVuSans-30" transform="translate(127.246094 0)"/>
       <use xlink:href="#DejaVuSans-30" transform="translate(190.869141 0)"/>
      </g>
     </g>
    </g>
    <g id="text_7">
     <!-- birth_time [µs] -->
     <g transform="translate(197.14363 285.435457) scale(0.1 -0.1)">
      <defs>
       <path id="DejaVuSans-62" d="M 3116 1747 
Q 3116 2381 2855 2742 
Q 2594 3103 2138 3103 
Q 1681 3103 1420 2742 
Q 1159 2381 1159 1747 
Q 1159 1113 1420 752 
Q 1681 391 2138 391 
Q 2594 391 2855 752 
Q 3116 1113 3116 1747 
z
M 1159 2969 
Q 1341 3281 1617 3432 
Q 1894 3584 2278 3584 
Q 2916 3584 3314 3078 
Q 3713 2572 3713 1747 
Q 3713 922 3314 415 
Q 2916 -91 2278 -91 
Q 1894 -91 1617 61 
Q 1341 213 1159 525 
L 1159 0 
L 581 0 
L 581 4863 
L 1159 4863 
L 1159 2969 
z
" transform="scale(0.015625)"/>
       <path id="DejaVuSans-69" d="M 603 3500 
L 1178 3500 
L 1178 0 
L 603 0 
L 603 3500 
z
M 603 4863 
L 1178 4863 
L 1178 4134 
L 603 4134 
L 603 4863 
z
" transform="scale(0.015625)"/>
       <path id="DejaVuSans-72" d="M 2631 2963 
Q 2534 3019 2420 3045 
Q 2306 3072 2169 3072 
Q 1681 3072 1420 2755 
Q 1159 2438 1159 1844 
L 1159 0 
L 581 0 
L 581 3500 
L 1159 3500 
L 1159 2956 
Q 1341 3275 1631 3429 
Q 1922 3584 2338 3584 
Q 2397 3584 2469 3576 
Q 2541 3569 2628 3553 
L 2631 2963 
z
" transform="scale(0.015625)"/>
       <path id="DejaVuSans-74" d="M 1172 4494 
L 1172 3500 
L 2356 3500 
L 2356 3053 
L 1172 3053 
L 1172 1153 
Q 1172 725 1289 603 
Q 1406 481 1766 481 
L 2356 481 
L 2356 0 
L 1766 0 
Q 1100 0 847 248 
Q 594 497 594 1153 
L 594 3053 
L 172 3053 
L 172 3500 
L 594 3500 
L 594 4494 
L 1172 4494 
z
" transform="scale(0.015625)"/>
       <path id="DejaVuSans-68" d="M 3513 2113 
L 3513 0 
L 2938 0 
L 2938 2094 
Q 2938 2591 2744 2837 
Q 2550 3084 2163 3084 
Q 1697 3084 1428 2787 
Q 1159 2491 1159 1978 
L 1159 0 
L 581 0 
L 581 4863 
L 1159 4863 
L 1159 2956 
Q 1366 3272 1645 3428 
Q 1925 3584 2291 3584 
Q 2894 3584 3203 3211 
Q 3513 2838 3513 2113 
z
" transform="scale(0.015625)"/>
       <path id="DejaVuSans-5f" d="M 3263 -1063 
L 3263 -1509 
L -63 -1509 
L -63 -1063 
L 3263 -1063 
z
" transform="scale(0.015625)"/>
       <path id="DejaVuSans-6d" d="M 3328 2828 
Q 3544 3216 3844 3400 
Q 4144 3584 4550 3584 
Q 5097 3584 5394 3201 
Q 5691 2819 5691 2113 
L 5691 0 
L 5113 0 
L 5113 2094 
Q 5113 2597 4934 2840 
Q 4756 3084 4391 3084 
Q 3944 3084 3684 2787 
Q 3425 2491 3425 1978 
L 3425 0 
L 2847 0 
L 2847 2094 
Q 2847 2600 2669 2842 
Q 2491 3084 2119 3084 
Q 1678 3084 1418 2786 
Q 1159 2488 1159 1978 
L 1159 0 
L 581 0 
L 581 3500 
L 1159 3500 
L 1159 2956 
Q 1356 3278 1631 3431 
Q 1906 3584 2284 3584 
Q 2666 3584 2933 3390 
Q 3200 3197 3328 2828 
z
" transform="scale(0.015625)"/>
       <path id="DejaVuSans-65" d="M 3597 1894 
L 3597 1613 
L 953 1613 
Q 991 1019 1311 708 
Q 1631 397 2203 397 
Q 2534 397 2845 478 
Q 3156 559 3463 722 
L 3463 178 
Q 3153 47 2828 -22 
Q 2503 -91 2169 -91 
Q 1331 -91 842 396 
Q 353 884 353 1716 
Q 353 2575 817 3079 
Q 1281 3584 2069 3584 
Q 2775 3584 3186 3129 
Q 3597 2675 3597 1894 
z
M 3022 2063 
Q 3016 2534 2758 2815 
Q 2500 3097 2075 3097 
Q 1594 3097 1305 2825 
Q 1016 2553 972 2059 
L 3022 2063 
z
" transform="scale(0.015625)"/>
       <path id="DejaVuSans-20" transform="scale(0.015625)"/>
       <path id="DejaVuSans-5b" d="M 550 4863 
L 1875 4863 
L 1875 4416 
L 1125 4416 
L 1125 -397 
L 1875 -397 
L 1875 -844 
L 550 -844 
L 550 4863 
z
" transform="scale(0.015625)"/>
       <path id="DejaVuSans-b5" d="M 544 -1331 
L 544 3500 
L 1119 3500 
L 1119 1325 
Q 1119 872 1334 640 
Q 1550 409 1972 409 
Q 2434 409 2667 671 
Q 2900 934 2900 1459 
L 2900 3500 
L 3475 3500 
L 3475 806 
Q 3475 619 3529 530 
Q 3584 441 3700 441 
Q 3728 441 3778 458 
Q 3828 475 3916 513 
L 3916 50 
Q 3788 -22 3673 -56 
Q 3559 -91 3450 -91 
Q 3234 -91 3106 31 
Q 2978 153 2931 403 
Q 2775 156 2548 32 
Q 2322 -91 2016 -91 
Q 1697 -91 1473 31 
Q 1250 153 1119 397 
L 1119 -1331 
L 544 -1331 
z
" transform="scale(0.015625)"/>
       <path id="DejaVuSans-73" d="M 2834 3397 
L 2834 2853 
Q 2591 2978 2328 3040 
Q 2066 3103 1784 3103 
Q 1356 3103 1142 2972 
Q 928 2841 928 2578 
Q 928 2378 1081 2264 
Q 1234 2150 1697 2047 
L 1894 2003 
Q 2506 1872 2764 1633 
Q 3022 1394 3022 966 
Q 3022 478 2636 193 
Q 2250 -91 1575 -91 
Q 1294 -91 989 -36 
Q 684 19 347 128 
L 347 722 
Q 666 556 975 473 
Q 1284 391 1588 391 
Q 1994 391 2212 530 
Q 2431 669 2431 922 
Q 2431 1156 2273 1281 
Q 2116 1406 1581 1522 
L 1381 1569 
Q 847 1681 609 1914 
Q 372 2147 372 2553 
Q 372 3047 722 3315 
Q 1072 3584 1716 3584 
Q 2034 3584 2315 3537 
Q 2597 3491 2834 3397 
z
" transform="scale(0.015625)"/>
       <path id="DejaVuSans-5d" d="M 1947 4863 
L 1947 -844 
L 622 -844 
L 622 -397 
L 1369 -397 
L 1369 4416 
L 622 4416 
L 622 4863 
L 1947 4863 
z
" transform="scale(0.015625)"/>
      </defs>
      <use xlink:href="#DejaVuSans-62"/>
      <use xlink:href="#DejaVuSans-69" transform="translate(63.476562 0)"/>
      <use xlink:href="#DejaVuSans-72" transform="translate(91.259766 0)"/>
      <use xlink:href="#DejaVuSans-74" transform="translate(132.373047 0)"/>
      <use xlink:href="#DejaVuSans-68" transform="translate(171.582031 0)"/>
      <use xlink:href="#DejaVuSans-5f" transform="translate(234.960938 0)"/>
      <use xlink:href="#DejaVuSans-74" transform="translate(284.960938 0)"/>
      <use xlink:href="#DejaVuSans-69" transform="translate(324.169922 0)"/>
      <use xlink:href="#DejaVuSans-6d" transform="translate(351.953125 0)"/>
      <use xlink:href="#DejaVuSans-65" transform="translate(449.365234 0)"/>
      <use xlink:href="#DejaVuSans-20" transform="translate(510.888672 0)"/>
      <use xlink:href="#DejaVuSans-5b" transform="translate(542.675781 0)"/>
      <use xlink:href="#DejaVuSans-b5" transform="translate(581.689453 0)"/>
      <use xlink:href="#DejaVuSans-73" transform="translate(645.3125 0)"/>
      <use xlink:href="#DejaVuSans-5d" transform="translate(697.412109 0)"/>
     </g>
    </g>
   </g>
   <g id="matplotlib.axis_2">
    <g id="ytick_1">
     <g id="line2d_7">
      <defs>
       <path id="mf10d9f8c9e" d="M 0 0 
L -3.5 0 
" style="stroke: #000000; stroke-width: 0.8"/>
      </defs>
      <g>
       <use xlink:href="#mf10d9f8c9e" x="53.328125" y="245.797127" style="stroke: #000000; stroke-width: 0.8"/>
      </g>
     </g>
     <g id="text_8">
      <!-- 0 -->
      <g transform="translate(39.965625 249.596346) scale(0.1 -0.1)">
       <use xlink:href="#DejaVuSans-30"/>
      </g>
     </g>
    </g>
    <g id="ytick_2">
     <g id="line2d_8">
      <g>
       <use xlink:href="#mf10d9f8c9e" x="53.328125" y="209.027651" style="stroke: #000000; stroke-width: 0.8"/>
      </g>
     </g>
     <g id="text_9">
      <!-- 200 -->
      <g transform="translate(27.240625 212.82687) scale(0.1 -0.1)">
       <use xlink:href="#DejaVuSans-32"/>
       <use xlink:href="#DejaVuSans-30" transform="translate(63.623047 0)"/>
       <use xlink:href="#DejaVuSans-30" transform="translate(127.246094 0)"/>
      </g>
     </g>
    </g>
    <g id="ytick_3">
     <g id="line2d_9">
      <g>
       <use xlink:href="#mf10d9f8c9e" x="53.328125" y="172.258176" style="stroke: #000000; stroke-width: 0.8"/>
      </g>
     </g>
     <g id="text_10">
      <!-- 400 -->
      <g transform="translate(27.240625 176.057395) scale(0.1 -0.1)">
       <use xlink:href="#DejaVuSans-34"/>
       <use xlink:href="#DejaVuSans-30" transform="translate(63.623047 0)"/>
       <use xlink:href="#DejaVuSans-30" transform="translate(127.246094 0)"/>
      </g>
     </g>
    </g>
    <g id="ytick_4">
     <g id="line2d_10">
      <g>
       <use xlink:href="#mf10d9f8c9e" x="53.328125" y="135.4887" style="stroke: #000000; stroke-width: 0.8"/>
      </g>
     </g>
     <g id="text_11">
      <!-- 600 -->
      <g transform="translate(27.240625 139.287919) scale(0.1 -0.1)">
       <defs>
        <path id="DejaVuSans-36" d="M 2113 2584 
Q 1688 2584 1439 2293 
Q 1191 2003 1191 1497 
Q 1191 994 1439 701 
Q 1688 409 2113 409 
Q 2538 409 2786 701 
Q 3034 994 3034 1497 
Q 3034 2003 2786 2293 
Q 2538 2584 2113 2584 
z
M 3366 4563 
L 3366 3988 
Q 3128 4100 2886 4159 
Q 2644 4219 2406 4219 
Q 1781 4219 1451 3797 
Q 1122 3375 1075 2522 
Q 1259 2794 1537 2939 
Q 1816 3084 2150 3084 
Q 2853 3084 3261 2657 
Q 3669 2231 3669 1497 
Q 3669 778 3244 343 
Q 2819 -91 2113 -91 
Q 1303 -91 875 529 
Q 447 1150 447 2328 
Q 447 3434 972 4092 
Q 1497 4750 2381 4750 
Q 2619 4750 2861 4703 
Q 3103 4656 3366 4563 
z
" transform="scale(0.015625)"/>
       </defs>
       <use xlink:href="#DejaVuSans-36"/>
       <use xlink:href="#DejaVuSans-30" transform="translate(63.623047 0)"/>
       <use xlink:href="#DejaVuSans-30" transform="translate(127.246094 0)"/>
      </g>
     </g>
    </g>
    <g id="ytick_5">
     <g id="line2d_11">
      <g>
       <use xlink:href="#mf10d9f8c9e" x="53.328125" y="98.719225" style="stroke: #000000; stroke-width: 0.8"/>
      </g>
     </g>
     <g id="text_12">
      <!-- 800 -->
      <g transform="translate(27.240625 102.518443) scale(0.1 -0.1)">
       <defs>
        <path id="DejaVuSans-38" d="M 2034 2216 
Q 1584 2216 1326 1975 
Q 1069 1734 1069 1313 
Q 1069 891 1326 650 
Q 1584 409 2034 409 
Q 2484 409 2743 651 
Q 3003 894 3003 1313 
Q 3003 1734 2745 1975 
Q 2488 2216 2034 2216 
z
M 1403 2484 
Q 997 2584 770 2862 
Q 544 3141 544 3541 
Q 544 4100 942 4425 
Q 1341 4750 2034 4750 
Q 2731 4750 3128 4425 
Q 3525 4100 3525 3541 
Q 3525 3141 3298 2862 
Q 3072 2584 2669 2484 
Q 3125 2378 3379 2068 
Q 3634 1759 3634 1313 
Q 3634 634 3220 271 
Q 2806 -91 2034 -91 
Q 1263 -91 848 271 
Q 434 634 434 1313 
Q 434 1759 690 2068 
Q 947 2378 1403 2484 
z
M 1172 3481 
Q 1172 3119 1398 2916 
Q 1625 2713 2034 2713 
Q 2441 2713 2670 2916 
Q 2900 3119 2900 3481 
Q 2900 3844 2670 4047 
Q 2441 4250 2034 4250 
Q 1625 4250 1398 4047 
Q 1172 3844 1172 3481 
z
" transform="scale(0.015625)"/>
       </defs>
       <use xlink:href="#DejaVuSans-38"/>
       <use xlink:href="#DejaVuSans-30" transform="translate(63.623047 0)"/>
       <use xlink:href="#DejaVuSans-30" transform="translate(127.246094 0)"/>
      </g>
     </g>
    </g>
    <g id="ytick_6">
     <g id="line2d_12">
      <g>
       <use xlink:href="#mf10d9f8c9e" x="53.328125" y="61.949749" style="stroke: #000000; stroke-width: 0.8"/>
      </g>
     </g>
     <g id="text_13">
      <!-- 1000 -->
      <g transform="translate(20.878125 65.748968) scale(0.1 -0.1)">
       <use xlink:href="#DejaVuSans-31"/>
       <use xlink:href="#DejaVuSans-30" transform="translate(63.623047 0)"/>
       <use xlink:href="#DejaVuSans-30" transform="translate(127.246094 0)"/>
       <use xlink:href="#DejaVuSans-30" transform="translate(190.869141 0)"/>
      </g>
     </g>
    </g>
    <g id="ytick_7">
     <g id="line2d_13">
      <g>
       <use xlink:href="#mf10d9f8c9e" x="53.328125" y="25.180274" style="stroke: #000000; stroke-width: 0.8"/>
      </g>
     </g>
     <g id="text_14">
      <!-- 1200 -->
      <g transform="translate(20.878125 28.979492) scale(0.1 -0.1)">
       <use xlink:href="#DejaVuSans-31"/>
       <use xlink:href="#DejaVuSans-32" transform="translate(63.623047 0)"/>
       <use xlink:href="#DejaVuSans-30" transform="translate(127.246094 0)"/>
       <use xlink:href="#DejaVuSans-30" transform="translate(190.869141 0)"/>
      </g>
     </g>
    </g>
    <g id="text_15">
     <!-- [counts] -->
     <g transform="translate(14.798438 152.791947) rotate(-90) scale(0.1 -0.1)">
      <defs>
       <path id="DejaVuSans-63" d="M 3122 3366 
L 3122 2828 
Q 2878 2963 2633 3030 
Q 2388 3097 2138 3097 
Q 1578 3097 1268 2742 
Q 959 2388 959 1747 
Q 959 1106 1268 751 
Q 1578 397 2138 397 
Q 2388 397 2633 464 
Q 2878 531 3122 666 
L 3122 134 
Q 2881 22 2623 -34 
Q 2366 -91 2075 -91 
Q 1284 -91 818 406 
Q 353 903 353 1747 
Q 353 2603 823 3093 
Q 1294 3584 2113 3584 
Q 2378 3584 2631 3529 
Q 2884 3475 3122 3366 
z
" transform="scale(0.015625)"/>
       <path id="DejaVuSans-6f" d="M 1959 3097 
Q 1497 3097 1228 2736 
Q 959 2375 959 1747 
Q 959 1119 1226 758 
Q 1494 397 1959 397 
Q 2419 397 2687 759 
Q 2956 1122 2956 1747 
Q 2956 2369 2687 2733 
Q 2419 3097 1959 3097 
z
M 1959 3584 
Q 2709 3584 3137 3096 
Q 3566 2609 3566 1747 
Q 3566 888 3137 398 
Q 2709 -91 1959 -91 
Q 1206 -91 779 398 
Q 353 888 353 1747 
Q 353 2609 779 3096 
Q 1206 3584 1959 3584 
z
" transform="scale(0.015625)"/>
       <path id="DejaVuSans-75" d="M 544 1381 
L 544 3500 
L 1119 3500 
L 1119 1403 
Q 1119 906 1312 657 
Q 1506 409 1894 409 
Q 2359 409 2629 706 
Q 2900 1003 2900 1516 
L 2900 3500 
L 3475 3500 
L 3475 0 
L 2900 0 
L 2900 538 
Q 2691 219 2414 64 
Q 2138 -91 1772 -91 
Q 1169 -91 856 284 
Q 544 659 544 1381 
z
M 1991 3584 
L 1991 3584 
z
" transform="scale(0.015625)"/>
       <path id="DejaVuSans-6e" d="M 3513 2113 
L 3513 0 
L 2938 0 
L 2938 2094 
Q 2938 2591 2744 2837 
Q 2550 3084 2163 3084 
Q 1697 3084 1428 2787 
Q 1159 2491 1159 1978 
L 1159 0 
L 581 0 
L 581 3500 
L 1159 3500 
L 1159 2956 
Q 1366 3272 1645 3428 
Q 1925 3584 2291 3584 
Q 2894 3584 3203 3211 
Q 3513 2838 3513 2113 
z
" transform="scale(0.015625)"/>
      </defs>
      <use xlink:href="#DejaVuSans-5b"/>
      <use xlink:href="#DejaVuSans-63" transform="translate(39.013672 0)"/>
      <use xlink:href="#DejaVuSans-6f" transform="translate(93.994141 0)"/>
      <use xlink:href="#DejaVuSans-75" transform="translate(155.175781 0)"/>
      <use xlink:href="#DejaVuSans-6e" transform="translate(218.554688 0)"/>
      <use xlink:href="#DejaVuSans-74" transform="translate(281.933594 0)"/>
      <use xlink:href="#DejaVuSans-73" transform="translate(321.142578 0)"/>
      <use xlink:href="#DejaVuSans-5d" transform="translate(373.242188 0)"/>
     </g>
    </g>
   </g>
   <g id="line2d_14">
    <path d="M 69.749563 234.950132 
L 70.844325 234.950132 
L 70.844325 225.573915 
L 71.939088 225.573915 
L 71.939088 213.623836 
L 73.033851 213.623836 
L 73.033851 211.23382 
L 74.128613 211.23382 
L 74.128613 202.592993 
L 75.223376 202.592993 
L 75.223376 194.687556 
L 76.318138 194.687556 
L 76.318138 184.57595 
L 77.412901 184.57595 
L 77.412901 180.347461 
L 78.507663 180.347461 
L 78.507663 170.235855 
L 79.602426 170.235855 
L 79.602426 157.734233 
L 80.697188 157.734233 
L 80.697188 152.218812 
L 81.791951 152.218812 
L 81.791951 145.600306 
L 82.886713 145.600306 
L 82.886713 138.614106 
L 83.981476 138.614106 
L 83.981476 130.157126 
L 85.076238 130.157126 
L 85.076238 128.134805 
L 86.171001 128.134805 
L 86.171001 122.987079 
L 87.265763 122.987079 
L 87.265763 113.978557 
L 88.360526 113.978557 
L 88.360526 108.463136 
L 89.455288 108.463136 
L 89.455288 98.903072 
L 90.550051 98.903072 
L 90.550051 117.103963 
L 91.644814 117.103963 
L 91.644814 105.153883 
L 92.739576 105.153883 
L 92.739576 93.939193 
L 93.834339 93.939193 
L 93.834339 92.468414 
L 94.929101 92.468414 
L 94.929101 87.688382 
L 96.023864 87.688382 
L 96.023864 95.777667 
L 97.118626 95.777667 
L 97.118626 91.181482 
L 98.213389 91.181482 
L 98.213389 86.769145 
L 99.308151 86.769145 
L 99.308151 90.446093 
L 100.402914 90.446093 
L 100.402914 64.70746 
L 101.497676 64.70746 
L 101.497676 77.944471 
L 102.592439 77.944471 
L 102.592439 78.128318 
L 103.687201 78.128318 
L 103.687201 68.20056 
L 104.781964 68.20056 
L 104.781964 58.824344 
L 105.876726 58.824344 
L 105.876726 67.832865 
L 106.971489 67.832865 
L 106.971489 58.640496 
L 108.066252 58.640496 
L 108.066252 59.192038 
L 109.161014 59.192038 
L 109.161014 55.882786 
L 110.255777 55.882786 
L 110.255777 69.487492 
L 111.350539 69.487492 
L 111.350539 60.846665 
L 112.445302 60.846665 
L 112.445302 61.582054 
L 113.540064 61.582054 
L 113.540064 65.259002 
L 114.634827 65.259002 
L 114.634827 63.97207 
L 115.729589 63.97207 
L 115.729589 55.147396 
L 116.824352 55.147396 
L 116.824352 55.882786 
L 117.919114 55.882786 
L 117.919114 50.735059 
L 119.013877 50.735059 
L 119.013877 47.609654 
L 120.108639 47.609654 
L 120.108639 49.815822 
L 121.203402 49.815822 
L 121.203402 44.668096 
L 123.392927 44.668096 
L 123.392927 42.094232 
L 124.487689 42.094232 
L 124.487689 49.815822 
L 125.582452 49.815822 
L 125.582452 44.116553 
L 126.677215 44.116553 
L 126.677215 47.241959 
L 127.771977 47.241959 
L 127.771977 44.851943 
L 128.86674 44.851943 
L 128.86674 45.587333 
L 129.961502 45.587333 
L 129.961502 48.712738 
L 131.056265 48.712738 
L 131.056265 34.924185 
L 132.151027 34.924185 
L 132.151027 42.829622 
L 133.24579 42.829622 
L 133.24579 37.865743 
L 134.340552 37.865743 
L 134.340552 45.77118 
L 135.435315 45.77118 
L 135.435315 33.453406 
L 136.530077 33.453406 
L 136.530077 32.718016 
L 137.62484 32.718016 
L 137.62484 49.631975 
L 138.719602 49.631975 
L 138.719602 34.55649 
L 139.814365 34.55649 
L 139.814365 42.829622 
L 140.909127 42.829622 
L 140.909127 39.152674 
L 142.00389 39.152674 
L 142.00389 21.503326 
L 143.098652 21.503326 
L 143.098652 28.121832 
L 144.193415 28.121832 
L 144.193415 42.094232 
L 145.288178 42.094232 
L 145.288178 46.506569 
L 146.38294 46.506569 
L 146.38294 26.09951 
L 147.477703 26.09951 
L 147.477703 39.888064 
L 148.572465 39.888064 
L 148.572465 36.211116 
L 149.667228 36.211116 
L 149.667228 34.55649 
L 150.76199 34.55649 
L 150.76199 30.328 
L 151.856753 30.328 
L 151.856753 33.637253 
L 152.951515 33.637253 
L 152.951515 28.857221 
L 154.046278 28.857221 
L 154.046278 38.78498 
L 155.14104 38.78498 
L 155.14104 30.511848 
L 156.235803 30.511848 
L 156.235803 47.425806 
L 157.330565 47.425806 
L 157.330565 48.528891 
L 158.425328 48.528891 
L 158.425328 32.718016 
L 159.52009 32.718016 
L 159.52009 29.960305 
L 160.614853 29.960305 
L 160.614853 31.614932 
L 161.709615 31.614932 
L 161.709615 41.54269 
L 162.804378 41.54269 
L 162.804378 28.121832 
L 163.899141 28.121832 
L 163.899141 41.54269 
L 164.993903 41.54269 
L 164.993903 35.659574 
L 166.088666 35.659574 
L 166.088666 19.664852 
L 167.183428 19.664852 
L 167.183428 35.108032 
L 168.278191 35.108032 
L 168.278191 40.255759 
L 169.372953 40.255759 
L 169.372953 35.843421 
L 170.467716 35.843421 
L 170.467716 36.762658 
L 171.562478 36.762658 
L 171.562478 44.668096 
L 172.657241 44.668096 
L 172.657241 29.041068 
L 173.752003 29.041068 
L 173.752003 27.754137 
L 174.846766 27.754137 
L 174.846766 24.444884 
L 175.941528 24.444884 
L 175.941528 39.152674 
L 177.036291 39.152674 
L 177.036291 36.762658 
L 178.131053 36.762658 
L 178.131053 33.269558 
L 179.225816 33.269558 
L 179.225816 30.695695 
L 180.320579 30.695695 
L 180.320579 35.291879 
L 181.415341 35.291879 
L 181.415341 38.968827 
L 182.510104 38.968827 
L 182.510104 27.202595 
L 183.604866 27.202595 
L 183.604866 33.453406 
L 184.699629 33.453406 
L 184.699629 31.431084 
L 185.794391 31.431084 
L 185.794391 37.498048 
L 186.889154 37.498048 
L 186.889154 31.798779 
L 187.983916 31.798779 
L 187.983916 29.592611 
L 189.078679 29.592611 
L 189.078679 29.960305 
L 190.173441 29.960305 
L 190.173441 36.578811 
L 191.268204 36.578811 
L 191.268204 44.116553 
L 192.362966 44.116553 
L 192.362966 29.592611 
L 193.457729 29.592611 
L 193.457729 24.261037 
L 194.552491 24.261037 
L 194.552491 35.291879 
L 195.647254 35.291879 
L 195.647254 28.489526 
L 196.742016 28.489526 
L 196.742016 30.695695 
L 197.836779 30.695695 
L 197.836779 40.255759 
L 198.931542 40.255759 
L 198.931542 42.27808 
L 200.026304 42.27808 
L 200.026304 34.004948 
L 201.121067 34.004948 
L 201.121067 40.623453 
L 202.215829 40.623453 
L 202.215829 34.55649 
L 203.310592 34.55649 
L 203.310592 35.475727 
L 204.405354 35.475727 
L 204.405354 26.467205 
L 205.500117 26.467205 
L 205.500117 27.754137 
L 206.594879 27.754137 
L 206.594879 22.60641 
L 207.689642 22.60641 
L 207.689642 35.843421 
L 208.784404 35.843421 
L 208.784404 32.901863 
L 209.879167 32.901863 
L 209.879167 32.718016 
L 210.973929 32.718016 
L 210.973929 37.865743 
L 212.068692 37.865743 
L 212.068692 38.417285 
L 213.163454 38.417285 
L 213.163454 35.659574 
L 214.258217 35.659574 
L 214.258217 32.718016 
L 215.352979 32.718016 
L 215.352979 24.628731 
L 216.447742 24.628731 
L 216.447742 30.144153 
L 217.542505 30.144153 
L 217.542505 46.322722 
L 218.637267 46.322722 
L 218.637267 30.511848 
L 219.73203 30.511848 
L 219.73203 35.291879 
L 220.826792 35.291879 
L 220.826792 33.8211 
L 221.921555 33.8211 
L 221.921555 27.937984 
L 223.016317 27.937984 
L 223.016317 29.776458 
L 224.11108 29.776458 
L 224.11108 40.991148 
L 225.205842 40.991148 
L 225.205842 28.121832 
L 226.300605 28.121832 
L 226.300605 31.06339 
L 227.395367 31.06339 
L 227.395367 35.108032 
L 228.49013 35.108032 
L 228.49013 33.269558 
L 229.584892 33.269558 
L 229.584892 36.394964 
L 230.679655 36.394964 
L 230.679655 24.812579 
L 231.774417 24.812579 
L 231.774417 32.534169 
L 232.86918 32.534169 
L 232.86918 46.874264 
L 233.963942 46.874264 
L 233.963942 25.364121 
L 235.058705 25.364121 
L 235.058705 28.673374 
L 236.153468 28.673374 
L 236.153468 33.453406 
L 237.24823 33.453406 
L 237.24823 18.561768 
L 238.342993 18.561768 
L 238.342993 21.319479 
L 239.437755 21.319479 
L 239.437755 36.578811 
L 240.532518 36.578811 
L 240.532518 40.623453 
L 241.62728 40.623453 
L 241.62728 37.498048 
L 242.722043 37.498048 
L 242.722043 27.570289 
L 243.816805 27.570289 
L 243.816805 31.614932 
L 244.911568 31.614932 
L 244.911568 28.857221 
L 246.00633 28.857221 
L 246.00633 40.071911 
L 247.101093 40.071911 
L 247.101093 34.924185 
L 248.195855 34.924185 
L 248.195855 30.328 
L 249.290618 30.328 
L 249.290618 43.197317 
L 250.38538 43.197317 
L 250.38538 38.233437 
L 251.480143 38.233437 
L 251.480143 23.3418 
L 252.574906 23.3418 
L 252.574906 29.592611 
L 253.669668 29.592611 
L 253.669668 22.790258 
L 254.764431 22.790258 
L 254.764431 26.8349 
L 255.859193 26.8349 
L 255.859193 43.748859 
L 256.953956 43.748859 
L 256.953956 30.879542 
L 258.048718 30.879542 
L 258.048718 35.108032 
L 259.143481 35.108032 
L 259.143481 53.860465 
L 260.238243 53.860465 
L 260.238243 63.236681 
L 261.333006 63.236681 
L 261.333006 68.752102 
L 262.427768 68.752102 
L 262.427768 80.702182 
L 263.522531 80.702182 
L 263.522531 84.746824 
L 264.617293 84.746824 
L 264.617293 84.930671 
L 265.712056 84.930671 
L 265.712056 97.064598 
L 266.806818 97.064598 
L 266.806818 113.243168 
L 267.901581 113.243168 
L 267.901581 110.30161 
L 268.996343 110.30161 
L 268.996343 123.722468 
L 270.091106 123.722468 
L 270.091106 127.583263 
L 271.185869 127.583263 
L 271.185869 123.538621 
L 272.280631 123.538621 
L 272.280631 143.026443 
L 273.375394 143.026443 
L 273.375394 148.358017 
L 274.470156 148.358017 
L 274.470156 146.70339 
L 275.564919 146.70339 
L 275.564919 157.550386 
L 276.659681 157.550386 
L 276.659681 163.801196 
L 277.754444 163.801196 
L 277.754444 164.352739 
L 278.849206 164.352739 
L 278.849206 162.14657 
L 279.943969 162.14657 
L 279.943969 174.09665 
L 281.038731 174.09665 
L 281.038731 180.899003 
L 282.133494 180.899003 
L 282.133494 184.392103 
L 283.228256 184.392103 
L 283.228256 182.369782 
L 284.323019 182.369782 
L 284.323019 196.893725 
L 285.417781 196.893725 
L 285.417781 190.091372 
L 286.512544 190.091372 
L 286.512544 191.562151 
L 287.607306 191.562151 
L 287.607306 200.386825 
L 288.702069 200.386825 
L 288.702069 197.996809 
L 289.796832 197.996809 
L 289.796832 203.328383 
L 290.891594 203.328383 
L 290.891594 207.00533 
L 291.986357 207.00533 
L 291.986357 205.718399 
L 293.081119 205.718399 
L 293.081119 209.395346 
L 294.175882 209.395346 
L 294.175882 208.292262 
L 295.270644 208.292262 
L 295.270644 213.623836 
L 296.365407 213.623836 
L 296.365407 213.807683 
L 297.460169 213.807683 
L 297.460169 215.094615 
L 298.554932 215.094615 
L 298.554932 217.668478 
L 299.649694 217.668478 
L 299.649694 216.381547 
L 300.744457 216.381547 
L 300.744457 222.264663 
L 301.839219 222.264663 
L 301.839219 220.977731 
L 302.933982 220.977731 
L 302.933982 228.147779 
L 304.028744 228.147779 
L 304.028744 223.551594 
L 305.123507 223.551594 
L 305.123507 224.654679 
L 306.218269 224.654679 
L 306.218269 226.493152 
L 307.313032 226.493152 
L 307.313032 226.860847 
L 308.407795 226.860847 
L 308.407795 228.331626 
L 309.502557 228.331626 
L 309.502557 230.353947 
L 310.59732 230.353947 
L 310.59732 233.6632 
L 311.692082 233.6632 
L 311.692082 230.905489 
L 312.786845 230.905489 
L 312.786845 232.376268 
L 313.881607 232.376268 
L 313.881607 234.950132 
L 314.97637 234.950132 
L 314.97637 234.030895 
L 316.071132 234.030895 
L 316.071132 233.6632 
L 317.165895 233.6632 
L 317.165895 235.501674 
L 318.260657 235.501674 
L 318.260657 232.008574 
L 319.35542 232.008574 
L 319.35542 234.214742 
L 320.450182 234.214742 
L 320.450182 236.420911 
L 321.544945 236.420911 
L 321.544945 237.340148 
L 322.639707 237.340148 
L 322.639707 236.972453 
L 323.73447 236.972453 
L 323.73447 239.362469 
L 324.829233 239.362469 
L 324.829233 238.994774 
L 325.923995 238.994774 
L 325.923995 238.443232 
L 327.018758 238.443232 
L 327.018758 240.465553 
L 328.11352 240.465553 
L 328.11352 240.6494 
L 329.208283 240.6494 
L 329.208283 241.200943 
L 330.303045 241.200943 
L 330.303045 239.546316 
L 331.397808 239.546316 
L 331.397808 240.465553 
L 332.49257 240.465553 
L 332.49257 241.568637 
L 333.587333 241.568637 
L 333.587333 240.465553 
L 334.682095 240.465553 
L 334.682095 241.017095 
L 335.776858 241.017095 
L 335.776858 241.200943 
L 336.87162 241.200943 
L 336.87162 243.039416 
L 337.966383 243.039416 
L 337.966383 241.752485 
L 340.155908 241.752485 
L 340.155908 242.120179 
L 341.25067 242.120179 
L 341.25067 241.752485 
L 342.345433 241.752485 
L 342.345433 242.671722 
L 343.440196 242.671722 
L 343.440196 243.039416 
L 344.534958 243.039416 
L 344.534958 242.671722 
L 345.629721 242.671722 
L 345.629721 242.487874 
L 346.724483 242.487874 
L 346.724483 243.039416 
L 347.819246 243.039416 
L 347.819246 243.590959 
L 348.914008 243.590959 
L 348.914008 243.223264 
L 350.008771 243.223264 
L 350.008771 244.142501 
L 351.103533 244.142501 
L 351.103533 243.958653 
L 352.198296 243.958653 
L 352.198296 244.510195 
L 353.293058 244.510195 
L 353.293058 243.590959 
L 354.387821 243.590959 
L 354.387821 243.958653 
L 356.577346 243.958653 
L 356.577346 244.326348 
L 357.672108 244.326348 
L 357.672108 244.510195 
L 358.766871 244.510195 
L 358.766871 244.142501 
L 359.861633 244.142501 
L 359.861633 243.958653 
L 360.956396 243.958653 
L 360.956396 244.510195 
L 362.051159 244.510195 
L 362.051159 244.87789 
L 364.240684 244.87789 
L 364.240684 243.958653 
L 365.335446 243.958653 
L 365.335446 244.142501 
L 366.430209 244.142501 
L 366.430209 245.245585 
L 367.524971 245.245585 
L 367.524971 245.061738 
L 368.619734 245.061738 
L 368.619734 244.694043 
L 369.714496 244.694043 
L 369.714496 244.87789 
L 370.809259 244.87789 
L 370.809259 243.958653 
L 371.904021 243.958653 
L 371.904021 244.510195 
L 372.998784 244.510195 
L 372.998784 244.694043 
L 374.093546 244.694043 
L 374.093546 245.429432 
L 375.188309 245.429432 
L 375.188309 245.061738 
L 376.283071 245.061738 
L 376.283071 245.429432 
L 377.377834 245.429432 
L 377.377834 245.245585 
L 378.472596 245.245585 
L 378.472596 245.61328 
L 379.567359 245.61328 
L 379.567359 245.429432 
L 382.851647 245.429432 
L 382.851647 245.61328 
L 383.946409 245.61328 
L 383.946409 245.429432 
L 385.041172 245.429432 
L 385.041172 245.245585 
L 387.230697 245.245585 
L 387.230697 245.61328 
L 388.325459 245.61328 
L 388.325459 245.429432 
L 390.514984 245.429432 
L 390.514984 245.245585 
L 391.609747 245.245585 
L 391.609747 245.797127 
L 392.704509 245.797127 
L 392.704509 245.429432 
L 393.799272 245.429432 
L 393.799272 245.245585 
L 394.894034 245.245585 
L 394.894034 245.61328 
L 397.08356 245.61328 
L 397.08356 245.245585 
L 398.178322 245.245585 
L 398.178322 245.245585 
" clip-path="url(#p7bea76b219)" style="fill: none; stroke: #1f77b4; stroke-width: 1.5; stroke-linecap: square"/>
   </g>
   <g id="patch_3">
    <path d="M 53.328125 257.158895 
L 53.328125 7.2 
" style="fill: none; stroke: #000000; stroke-width: 0.8; stroke-linejoin: miter; stroke-linecap: square"/>
   </g>
   <g id="patch_4">
    <path d="M 414.59976 257.158895 
L 414.59976 7.2 
" style="fill: none; stroke: #000000; stroke-width: 0.8; stroke-linejoin: miter; stroke-linecap: square"/>
   </g>
   <g id="patch_5">
    <path d="M 53.328125 257.158895 
L 414.59976 257.158895 
" style="fill: none; stroke: #000000; stroke-width: 0.8; stroke-linejoin: miter; stroke-linecap: square"/>
   </g>
   <g id="patch_6">
    <path d="M 53.328125 7.2 
L 414.59976 7.2 
" style="fill: none; stroke: #000000; stroke-width: 0.8; stroke-linejoin: miter; stroke-linecap: square"/>
   </g>
  </g>
  <g id="axes_2">
   <g id="patch_7">
    <path d="M 503.927885 257.158895 
L 865.19952 257.158895 
L 865.19952 7.2 
L 503.927885 7.2 
z
" style="fill: #ffffff"/>
   </g>
   <g id="matplotlib.axis_3">
    <g id="xtick_7">
     <g id="line2d_15">
      <g>
       <use xlink:href="#mfd6268fb86" x="517.036734" y="257.158895" style="stroke: #000000; stroke-width: 0.8"/>
      </g>
     </g>
     <g id="text_16">
      <!-- 0.0 -->
      <g transform="translate(509.085171 271.757332) scale(0.1 -0.1)">
       <defs>
        <path id="DejaVuSans-2e" d="M 684 794 
L 1344 794 
L 1344 0 
L 684 0 
L 684 794 
z
" transform="scale(0.015625)"/>
       </defs>
       <use xlink:href="#DejaVuSans-30"/>
       <use xlink:href="#DejaVuSans-2e" transform="translate(63.623047 0)"/>
       <use xlink:href="#DejaVuSans-30" transform="translate(95.410156 0)"/>
      </g>
     </g>
    </g>
    <g id="xtick_8">
     <g id="line2d_16">
      <g>
       <use xlink:href="#mfd6268fb86" x="558.75095" y="257.158895" style="stroke: #000000; stroke-width: 0.8"/>
      </g>
     </g>
     <g id="text_17">
      <!-- 2.5 -->
      <g transform="translate(550.799387 271.757332) scale(0.1 -0.1)">
       <use xlink:href="#DejaVuSans-32"/>
       <use xlink:href="#DejaVuSans-2e" transform="translate(63.623047 0)"/>
       <use xlink:href="#DejaVuSans-35" transform="translate(95.410156 0)"/>
      </g>
     </g>
    </g>
    <g id="xtick_9">
     <g id="line2d_17">
      <g>
       <use xlink:href="#mfd6268fb86" x="600.465165" y="257.158895" style="stroke: #000000; stroke-width: 0.8"/>
      </g>
     </g>
     <g id="text_18">
      <!-- 5.0 -->
      <g transform="translate(592.513603 271.757332) scale(0.1 -0.1)">
       <use xlink:href="#DejaVuSans-35"/>
       <use xlink:href="#DejaVuSans-2e" transform="translate(63.623047 0)"/>
       <use xlink:href="#DejaVuSans-30" transform="translate(95.410156 0)"/>
      </g>
     </g>
    </g>
    <g id="xtick_10">
     <g id="line2d_18">
      <g>
       <use xlink:href="#mfd6268fb86" x="642.179381" y="257.158895" style="stroke: #000000; stroke-width: 0.8"/>
      </g>
     </g>
     <g id="text_19">
      <!-- 7.5 -->
      <g transform="translate(634.227819 271.757332) scale(0.1 -0.1)">
       <defs>
        <path id="DejaVuSans-37" d="M 525 4666 
L 3525 4666 
L 3525 4397 
L 1831 0 
L 1172 0 
L 2766 4134 
L 525 4134 
L 525 4666 
z
" transform="scale(0.015625)"/>
       </defs>
       <use xlink:href="#DejaVuSans-37"/>
       <use xlink:href="#DejaVuSans-2e" transform="translate(63.623047 0)"/>
       <use xlink:href="#DejaVuSans-35" transform="translate(95.410156 0)"/>
      </g>
     </g>
    </g>
    <g id="xtick_11">
     <g id="line2d_19">
      <g>
       <use xlink:href="#mfd6268fb86" x="683.893597" y="257.158895" style="stroke: #000000; stroke-width: 0.8"/>
      </g>
     </g>
     <g id="text_20">
      <!-- 10.0 -->
      <g transform="translate(672.760785 271.757332) scale(0.1 -0.1)">
       <use xlink:href="#DejaVuSans-31"/>
       <use xlink:href="#DejaVuSans-30" transform="translate(63.623047 0)"/>
       <use xlink:href="#DejaVuSans-2e" transform="translate(127.246094 0)"/>
       <use xlink:href="#DejaVuSans-30" transform="translate(159.033203 0)"/>
      </g>
     </g>
    </g>
    <g id="xtick_12">
     <g id="line2d_20">
      <g>
       <use xlink:href="#mfd6268fb86" x="725.607813" y="257.158895" style="stroke: #000000; stroke-width: 0.8"/>
      </g>
     </g>
     <g id="text_21">
      <!-- 12.5 -->
      <g transform="translate(714.475001 271.757332) scale(0.1 -0.1)">
       <use xlink:href="#DejaVuSans-31"/>
       <use xlink:href="#DejaVuSans-32" transform="translate(63.623047 0)"/>
       <use xlink:href="#DejaVuSans-2e" transform="translate(127.246094 0)"/>
       <use xlink:href="#DejaVuSans-35" transform="translate(159.033203 0)"/>
      </g>
     </g>
    </g>
    <g id="xtick_13">
     <g id="line2d_21">
      <g>
       <use xlink:href="#mfd6268fb86" x="767.322029" y="257.158895" style="stroke: #000000; stroke-width: 0.8"/>
      </g>
     </g>
     <g id="text_22">
      <!-- 15.0 -->
      <g transform="translate(756.189217 271.757332) scale(0.1 -0.1)">
       <use xlink:href="#DejaVuSans-31"/>
       <use xlink:href="#DejaVuSans-35" transform="translate(63.623047 0)"/>
       <use xlink:href="#DejaVuSans-2e" transform="translate(127.246094 0)"/>
       <use xlink:href="#DejaVuSans-30" transform="translate(159.033203 0)"/>
      </g>
     </g>
    </g>
    <g id="xtick_14">
     <g id="line2d_22">
      <g>
       <use xlink:href="#mfd6268fb86" x="809.036245" y="257.158895" style="stroke: #000000; stroke-width: 0.8"/>
      </g>
     </g>
     <g id="text_23">
      <!-- 17.5 -->
      <g transform="translate(797.903432 271.757332) scale(0.1 -0.1)">
       <use xlink:href="#DejaVuSans-31"/>
       <use xlink:href="#DejaVuSans-37" transform="translate(63.623047 0)"/>
       <use xlink:href="#DejaVuSans-2e" transform="translate(127.246094 0)"/>
       <use xlink:href="#DejaVuSans-35" transform="translate(159.033203 0)"/>
      </g>
     </g>
    </g>
    <g id="xtick_15">
     <g id="line2d_23">
      <g>
       <use xlink:href="#mfd6268fb86" x="850.750461" y="257.158895" style="stroke: #000000; stroke-width: 0.8"/>
      </g>
     </g>
     <g id="text_24">
      <!-- 20.0 -->
      <g transform="translate(839.617648 271.757332) scale(0.1 -0.1)">
       <use xlink:href="#DejaVuSans-32"/>
       <use xlink:href="#DejaVuSans-30" transform="translate(63.623047 0)"/>
       <use xlink:href="#DejaVuSans-2e" transform="translate(127.246094 0)"/>
       <use xlink:href="#DejaVuSans-30" transform="translate(159.033203 0)"/>
      </g>
     </g>
    </g>
    <g id="text_25">
     <!-- wavelength [Å] -->
     <g transform="translate(646.526202 287.119832) scale(0.1 -0.1)">
      <defs>
       <path id="DejaVuSans-77" d="M 269 3500 
L 844 3500 
L 1563 769 
L 2278 3500 
L 2956 3500 
L 3675 769 
L 4391 3500 
L 4966 3500 
L 4050 0 
L 3372 0 
L 2619 2869 
L 1863 0 
L 1184 0 
L 269 3500 
z
" transform="scale(0.015625)"/>
       <path id="DejaVuSans-61" d="M 2194 1759 
Q 1497 1759 1228 1600 
Q 959 1441 959 1056 
Q 959 750 1161 570 
Q 1363 391 1709 391 
Q 2188 391 2477 730 
Q 2766 1069 2766 1631 
L 2766 1759 
L 2194 1759 
z
M 3341 1997 
L 3341 0 
L 2766 0 
L 2766 531 
Q 2569 213 2275 61 
Q 1981 -91 1556 -91 
Q 1019 -91 701 211 
Q 384 513 384 1019 
Q 384 1609 779 1909 
Q 1175 2209 1959 2209 
L 2766 2209 
L 2766 2266 
Q 2766 2663 2505 2880 
Q 2244 3097 1772 3097 
Q 1472 3097 1187 3025 
Q 903 2953 641 2809 
L 641 3341 
Q 956 3463 1253 3523 
Q 1550 3584 1831 3584 
Q 2591 3584 2966 3190 
Q 3341 2797 3341 1997 
z
" transform="scale(0.015625)"/>
       <path id="DejaVuSans-76" d="M 191 3500 
L 800 3500 
L 1894 563 
L 2988 3500 
L 3597 3500 
L 2284 0 
L 1503 0 
L 191 3500 
z
" transform="scale(0.015625)"/>
       <path id="DejaVuSans-6c" d="M 603 4863 
L 1178 4863 
L 1178 0 
L 603 0 
L 603 4863 
z
" transform="scale(0.015625)"/>
       <path id="DejaVuSans-67" d="M 2906 1791 
Q 2906 2416 2648 2759 
Q 2391 3103 1925 3103 
Q 1463 3103 1205 2759 
Q 947 2416 947 1791 
Q 947 1169 1205 825 
Q 1463 481 1925 481 
Q 2391 481 2648 825 
Q 2906 1169 2906 1791 
z
M 3481 434 
Q 3481 -459 3084 -895 
Q 2688 -1331 1869 -1331 
Q 1566 -1331 1297 -1286 
Q 1028 -1241 775 -1147 
L 775 -588 
Q 1028 -725 1275 -790 
Q 1522 -856 1778 -856 
Q 2344 -856 2625 -561 
Q 2906 -266 2906 331 
L 2906 616 
Q 2728 306 2450 153 
Q 2172 0 1784 0 
Q 1141 0 747 490 
Q 353 981 353 1791 
Q 353 2603 747 3093 
Q 1141 3584 1784 3584 
Q 2172 3584 2450 3431 
Q 2728 3278 2906 2969 
L 2906 3500 
L 3481 3500 
L 3481 434 
z
" transform="scale(0.015625)"/>
       <path id="DejaVuSans-c5" d="M 2663 5081 
Q 2663 5278 2523 5417 
Q 2384 5556 2188 5556 
Q 1988 5556 1852 5420 
Q 1716 5284 1716 5081 
Q 1716 4884 1853 4746 
Q 1991 4609 2188 4609 
Q 2384 4609 2523 4746 
Q 2663 4884 2663 5081 
z
M 2188 4044 
L 1338 1722 
L 3041 1722 
L 2188 4044 
z
M 1716 4366 
Q 1525 4494 1428 4673 
Q 1331 4853 1331 5081 
Q 1331 5441 1579 5691 
Q 1828 5941 2188 5941 
Q 2544 5941 2795 5689 
Q 3047 5438 3047 5081 
Q 3047 4863 2948 4678 
Q 2850 4494 2663 4366 
L 4325 0 
L 3669 0 
L 3244 1197 
L 1141 1197 
L 716 0 
L 50 0 
L 1716 4366 
z
" transform="scale(0.015625)"/>
      </defs>
      <use xlink:href="#DejaVuSans-77"/>
      <use xlink:href="#DejaVuSans-61" transform="translate(81.787109 0)"/>
      <use xlink:href="#DejaVuSans-76" transform="translate(143.066406 0)"/>
      <use xlink:href="#DejaVuSans-65" transform="translate(202.246094 0)"/>
      <use xlink:href="#DejaVuSans-6c" transform="translate(263.769531 0)"/>
      <use xlink:href="#DejaVuSans-65" transform="translate(291.552734 0)"/>
      <use xlink:href="#DejaVuSans-6e" transform="translate(353.076172 0)"/>
      <use xlink:href="#DejaVuSans-67" transform="translate(416.455078 0)"/>
      <use xlink:href="#DejaVuSans-74" transform="translate(479.931641 0)"/>
      <use xlink:href="#DejaVuSans-68" transform="translate(519.140625 0)"/>
      <use xlink:href="#DejaVuSans-20" transform="translate(582.519531 0)"/>
      <use xlink:href="#DejaVuSans-5b" transform="translate(614.306641 0)"/>
      <use xlink:href="#DejaVuSans-c5" transform="translate(653.320312 0)"/>
      <use xlink:href="#DejaVuSans-5d" transform="translate(721.728516 0)"/>
     </g>
    </g>
   </g>
   <g id="matplotlib.axis_4">
    <g id="ytick_8">
     <g id="line2d_24">
      <g>
       <use xlink:href="#mf10d9f8c9e" x="503.927885" y="245.797127" style="stroke: #000000; stroke-width: 0.8"/>
      </g>
     </g>
     <g id="text_26">
      <!-- 0 -->
      <g transform="translate(490.565385 249.596346) scale(0.1 -0.1)">
       <use xlink:href="#DejaVuSans-30"/>
      </g>
     </g>
    </g>
    <g id="ytick_9">
     <g id="line2d_25">
      <g>
       <use xlink:href="#mf10d9f8c9e" x="503.927885" y="194.258148" style="stroke: #000000; stroke-width: 0.8"/>
      </g>
     </g>
     <g id="text_27">
      <!-- 1000 -->
      <g transform="translate(471.477885 198.057367) scale(0.1 -0.1)">
       <use xlink:href="#DejaVuSans-31"/>
       <use xlink:href="#DejaVuSans-30" transform="translate(63.623047 0)"/>
       <use xlink:href="#DejaVuSans-30" transform="translate(127.246094 0)"/>
       <use xlink:href="#DejaVuSans-30" transform="translate(190.869141 0)"/>
      </g>
     </g>
    </g>
    <g id="ytick_10">
     <g id="line2d_26">
      <g>
       <use xlink:href="#mf10d9f8c9e" x="503.927885" y="142.719169" style="stroke: #000000; stroke-width: 0.8"/>
      </g>
     </g>
     <g id="text_28">
      <!-- 2000 -->
      <g transform="translate(471.477885 146.518387) scale(0.1 -0.1)">
       <use xlink:href="#DejaVuSans-32"/>
       <use xlink:href="#DejaVuSans-30" transform="translate(63.623047 0)"/>
       <use xlink:href="#DejaVuSans-30" transform="translate(127.246094 0)"/>
       <use xlink:href="#DejaVuSans-30" transform="translate(190.869141 0)"/>
      </g>
     </g>
    </g>
    <g id="ytick_11">
     <g id="line2d_27">
      <g>
       <use xlink:href="#mf10d9f8c9e" x="503.927885" y="91.18019" style="stroke: #000000; stroke-width: 0.8"/>
      </g>
     </g>
     <g id="text_29">
      <!-- 3000 -->
      <g transform="translate(471.477885 94.979408) scale(0.1 -0.1)">
       <use xlink:href="#DejaVuSans-33"/>
       <use xlink:href="#DejaVuSans-30" transform="translate(63.623047 0)"/>
       <use xlink:href="#DejaVuSans-30" transform="translate(127.246094 0)"/>
       <use xlink:href="#DejaVuSans-30" transform="translate(190.869141 0)"/>
      </g>
     </g>
    </g>
    <g id="ytick_12">
     <g id="line2d_28">
      <g>
       <use xlink:href="#mf10d9f8c9e" x="503.927885" y="39.64121" style="stroke: #000000; stroke-width: 0.8"/>
      </g>
     </g>
     <g id="text_30">
      <!-- 4000 -->
      <g transform="translate(471.477885 43.440429) scale(0.1 -0.1)">
       <use xlink:href="#DejaVuSans-34"/>
       <use xlink:href="#DejaVuSans-30" transform="translate(63.623047 0)"/>
       <use xlink:href="#DejaVuSans-30" transform="translate(127.246094 0)"/>
       <use xlink:href="#DejaVuSans-30" transform="translate(190.869141 0)"/>
      </g>
     </g>
    </g>
    <g id="text_31">
     <!-- [counts] -->
     <g transform="translate(465.398197 152.791947) rotate(-90) scale(0.1 -0.1)">
      <use xlink:href="#DejaVuSans-5b"/>
      <use xlink:href="#DejaVuSans-63" transform="translate(39.013672 0)"/>
      <use xlink:href="#DejaVuSans-6f" transform="translate(93.994141 0)"/>
      <use xlink:href="#DejaVuSans-75" transform="translate(155.175781 0)"/>
      <use xlink:href="#DejaVuSans-6e" transform="translate(218.554688 0)"/>
      <use xlink:href="#DejaVuSans-74" transform="translate(281.933594 0)"/>
      <use xlink:href="#DejaVuSans-73" transform="translate(321.142578 0)"/>
      <use xlink:href="#DejaVuSans-5d" transform="translate(373.242188 0)"/>
     </g>
    </g>
   </g>
   <g id="line2d_29">
    <path d="M 520.349323 157.82009 
L 521.444085 157.82009 
L 521.444085 147.821528 
L 522.538848 147.821528 
L 522.538848 141.482233 
L 523.633611 141.482233 
L 523.633611 140.966843 
L 524.728373 140.966843 
L 524.728373 148.182301 
L 525.823136 148.182301 
L 525.823136 153.439276 
L 526.917898 153.439276 
L 526.917898 146.275358 
L 528.012661 146.275358 
L 528.012661 129.989041 
L 529.107423 129.989041 
L 529.107423 106.332649 
L 530.202186 106.332649 
L 530.202186 86.232448 
L 531.296948 86.232448 
L 531.296948 68.348422 
L 532.391711 68.348422 
L 532.391711 44.898186 
L 533.486473 44.898186 
L 533.486473 31.08574 
L 534.581236 31.08574 
L 534.581236 33.714228 
L 535.675998 33.714228 
L 535.675998 31.755747 
L 536.770761 31.755747 
L 536.770761 18.561768 
L 537.865523 18.561768 
L 537.865523 40.981224 
L 538.960286 40.981224 
L 538.960286 41.445075 
L 540.055048 41.445075 
L 540.055048 49.175922 
L 541.149811 49.175922 
L 541.149811 66.699174 
L 542.244574 66.699174 
L 542.244574 69.018429 
L 543.339336 69.018429 
L 543.339336 82.05779 
L 544.434099 82.05779 
L 544.434099 90.716339 
L 545.528861 90.716339 
L 545.528861 90.870956 
L 546.623624 90.870956 
L 546.623624 98.344108 
L 547.718386 98.344108 
L 547.718386 99.632582 
L 548.813149 99.632582 
L 548.813149 92.777898 
L 549.907911 92.777898 
L 549.907911 101.024135 
L 551.002674 101.024135 
L 551.002674 93.344827 
L 552.097436 93.344827 
L 552.097436 86.59322 
L 553.192199 86.59322 
L 553.192199 76.749275 
L 554.286961 76.749275 
L 554.286961 75.718496 
L 555.381724 75.718496 
L 555.381724 60.050646 
L 556.476486 60.050646 
L 556.476486 60.462958 
L 557.571249 60.462958 
L 557.571249 55.82445 
L 558.666012 55.82445 
L 558.666012 42.269698 
L 559.760774 42.269698 
L 559.760774 43.455095 
L 560.855537 43.455095 
L 560.855537 48.402837 
L 561.950299 48.402837 
L 561.950299 59.3291 
L 563.045062 59.3291 
L 563.045062 61.184504 
L 564.139824 61.184504 
L 564.139824 74.636177 
L 565.234587 74.636177 
L 565.234587 80.872394 
L 566.329349 80.872394 
L 566.329349 89.788637 
L 567.424112 89.788637 
L 567.424112 103.549545 
L 568.518874 103.549545 
L 568.518874 107.82728 
L 569.613637 107.82728 
L 569.613637 111.692703 
L 570.708399 111.692703 
L 570.708399 126.690546 
L 571.803162 126.690546 
L 571.803162 126.020539 
L 572.897924 126.020539 
L 572.897924 131.071359 
L 573.992687 131.071359 
L 573.992687 138.647589 
L 575.087449 138.647589 
L 575.087449 144.986884 
L 576.182212 144.986884 
L 576.182212 150.501555 
L 577.276975 150.501555 
L 577.276975 153.954666 
L 578.371737 153.954666 
L 578.371737 160.551656 
L 579.4665 160.551656 
L 579.4665 159.366259 
L 580.561262 159.366259 
L 580.561262 166.117865 
L 581.656025 166.117865 
L 581.656025 169.313282 
L 582.750787 169.313282 
L 582.750787 174.054868 
L 583.84555 174.054868 
L 583.84555 176.271044 
L 584.940312 176.271044 
L 584.940312 180.806474 
L 586.035075 180.806474 
L 586.035075 183.898813 
L 587.129837 183.898813 
L 587.129837 186.424223 
L 588.2246 186.424223 
L 588.2246 189.877335 
L 589.319362 189.877335 
L 589.319362 195.134311 
L 590.414125 195.134311 
L 590.414125 191.732738 
L 591.508887 191.732738 
L 591.508887 199.154351 
L 592.60365 199.154351 
L 592.60365 198.020493 
L 593.698412 198.020493 
L 593.698412 200.906676 
L 594.793175 200.906676 
L 594.793175 201.937456 
L 595.887938 201.937456 
L 595.887938 203.432086 
L 596.9827 203.432086 
L 596.9827 207.142893 
L 598.077463 207.142893 
L 598.077463 206.627503 
L 599.172225 206.627503 
L 599.172225 207.709821 
L 600.266988 207.709821 
L 600.266988 211.008316 
L 601.36175 211.008316 
L 601.36175 213.379109 
L 602.456513 213.379109 
L 602.456513 213.739882 
L 603.551275 213.739882 
L 603.551275 216.007597 
L 604.646038 216.007597 
L 604.646038 218.945319 
L 605.7408 218.945319 
L 605.7408 217.708383 
L 606.835563 217.708383 
L 606.835563 221.213034 
L 607.930325 221.213034 
L 607.930325 219.718404 
L 609.025088 219.718404 
L 609.025088 221.779963 
L 610.11985 221.779963 
L 610.11985 222.140736 
L 611.214613 222.140736 
L 611.214613 224.975379 
L 612.309375 224.975379 
L 612.309375 224.717685 
L 614.498901 224.666146 
L 614.498901 226.676166 
L 615.593663 226.676166 
L 615.593663 228.067718 
L 616.688426 228.067718 
L 616.688426 226.418471 
L 617.783188 226.418471 
L 617.783188 228.634647 
L 618.877951 228.634647 
L 618.877951 230.850823 
L 619.972713 230.850823 
L 619.972713 230.335433 
L 621.067476 230.335433 
L 621.067476 229.820044 
L 622.162238 229.820044 
L 622.162238 232.03622 
L 623.257001 232.03622 
L 623.257001 231.52083 
L 624.351763 231.52083 
L 624.351763 230.850823 
L 625.446526 230.850823 
L 625.446526 233.633928 
L 626.541288 233.633928 
L 626.541288 231.778525 
L 627.636051 231.778525 
L 627.636051 233.582389 
L 628.730813 233.582389 
L 628.730813 234.149318 
L 629.825576 234.149318 
L 629.825576 233.994701 
L 630.920339 233.994701 
L 630.920339 234.664708 
L 632.015101 234.664708 
L 632.015101 236.004721 
L 633.109864 236.004721 
L 633.109864 235.283175 
L 634.204626 235.283175 
L 634.204626 235.128558 
L 635.299389 235.128558 
L 635.299389 235.437792 
L 636.394151 235.437792 
L 636.394151 237.396273 
L 638.583676 237.396273 
L 638.583676 238.942443 
L 639.678439 238.942443 
L 639.678439 236.777806 
L 640.773201 236.777806 
L 640.773201 238.169358 
L 641.867964 238.169358 
L 641.867964 238.427053 
L 642.962726 238.427053 
L 642.962726 238.220897 
L 644.057489 238.220897 
L 644.057489 238.06628 
L 645.152251 238.06628 
L 645.152251 239.715528 
L 646.247014 239.715528 
L 646.247014 239.870144 
L 647.341776 239.870144 
L 647.341776 240.333995 
L 648.436539 240.333995 
L 648.436539 239.457833 
L 649.531302 239.457833 
L 649.531302 239.045521 
L 650.626064 239.045521 
L 650.626064 239.663989 
L 651.720827 239.663989 
L 651.720827 240.643229 
L 655.005114 240.694768 
L 655.005114 240.282456 
L 656.099877 240.282456 
L 656.099877 241.519392 
L 657.194639 241.519392 
L 657.194639 240.746307 
L 658.289402 240.746307 
L 658.289402 241.725548 
L 659.384164 241.725548 
L 659.384164 240.643229 
L 660.478927 240.643229 
L 660.478927 240.952463 
L 662.668452 241.055541 
L 662.668452 241.364775 
L 664.857977 241.261697 
L 664.857977 242.292476 
L 665.952739 242.292476 
L 665.952739 242.807866 
L 667.047502 242.807866 
L 667.047502 242.240937 
L 668.142265 242.240937 
L 668.142265 242.550171 
L 669.237027 242.550171 
L 669.237027 241.931704 
L 670.33179 241.931704 
L 670.33179 241.62247 
L 671.426552 241.62247 
L 671.426552 242.962483 
L 672.521315 242.962483 
L 672.521315 242.344015 
L 673.616077 242.344015 
L 673.616077 242.550171 
L 675.805602 242.447093 
L 675.805602 241.931704 
L 676.900365 241.931704 
L 676.900365 243.065561 
L 677.995127 243.065561 
L 677.995127 242.498632 
L 679.08989 242.498632 
L 679.08989 243.014022 
L 680.184652 243.014022 
L 680.184652 243.168639 
L 682.374177 243.271717 
L 682.374177 243.735568 
L 683.46894 243.735568 
L 683.46894 242.60171 
L 684.563702 242.60171 
L 684.563702 242.756327 
L 685.658465 242.756327 
L 685.658465 243.580951 
L 690.037515 243.684029 
L 690.037515 243.890185 
L 691.132278 243.890185 
L 691.132278 243.426334 
L 692.22704 243.426334 
L 692.22704 244.096341 
L 693.321803 244.096341 
L 693.321803 244.66327 
L 694.416565 244.66327 
L 694.416565 243.684029 
L 695.511328 243.684029 
L 695.511328 243.890185 
L 697.700853 243.941724 
L 697.700853 243.684029 
L 698.795615 243.684029 
L 698.795615 244.199419 
L 699.890378 244.199419 
L 699.890378 244.405575 
L 700.98514 244.405575 
L 700.98514 244.044802 
L 702.079903 244.044802 
L 702.079903 244.250958 
L 703.174666 244.250958 
L 703.174666 244.044802 
L 704.269428 244.044802 
L 704.269428 244.405575 
L 707.553716 244.354036 
L 707.553716 245.024042 
L 708.648478 245.024042 
L 708.648478 244.096341 
L 709.743241 244.096341 
L 709.743241 244.611731 
L 710.838003 244.611731 
L 710.838003 244.354036 
L 711.932766 244.354036 
L 711.932766 244.66327 
L 714.122291 244.766347 
L 714.122291 244.250958 
L 715.217053 244.250958 
L 715.217053 244.869425 
L 716.311816 244.869425 
L 716.311816 244.714808 
L 717.406578 244.714808 
L 717.406578 244.354036 
L 718.501341 244.354036 
L 718.501341 244.66327 
L 720.690866 244.766347 
L 720.690866 244.869425 
L 722.880391 244.817886 
L 722.880391 244.714808 
L 726.164679 244.766347 
L 726.164679 245.024042 
L 728.354204 245.075581 
L 728.354204 244.66327 
L 729.448966 244.66327 
L 729.448966 244.920964 
L 730.543729 244.920964 
L 730.543729 244.66327 
L 731.638491 244.66327 
L 731.638491 245.024042 
L 733.828016 244.920964 
L 733.828016 244.817886 
L 734.922779 244.817886 
L 734.922779 245.024042 
L 737.112304 245.024042 
L 737.112304 245.230198 
L 739.301829 245.12712 
L 739.301829 244.972503 
L 740.396592 244.972503 
L 740.396592 244.817886 
L 741.491354 244.817886 
L 741.491354 244.972503 
L 743.680879 244.972503 
L 743.680879 245.230198 
L 744.775642 245.230198 
L 744.775642 244.972503 
L 748.059929 245.024042 
L 748.059929 245.230198 
L 752.438979 245.281737 
L 752.438979 245.075581 
L 753.533742 245.075581 
L 753.533742 245.333276 
L 756.818029 245.333276 
L 756.818029 245.178659 
L 757.912792 245.178659 
L 757.912792 245.487893 
L 760.102317 245.436354 
L 760.102317 245.333276 
L 762.291842 245.436354 
L 762.291842 245.539432 
L 766.670892 245.539432 
L 766.670892 245.281737 
L 767.765655 245.281737 
L 767.765655 245.487893 
L 769.95518 245.436354 
L 769.95518 245.333276 
L 771.049942 245.333276 
L 771.049942 245.539432 
L 772.144705 245.539432 
L 772.144705 245.333276 
L 773.239467 245.333276 
L 773.239467 245.487893 
L 774.33423 245.487893 
L 774.33423 245.333276 
L 775.428993 245.333276 
L 775.428993 245.178659 
L 776.523755 245.178659 
L 776.523755 245.64251 
L 778.71328 245.539432 
L 778.71328 245.333276 
L 779.808043 245.333276 
L 779.808043 245.590971 
L 780.902805 245.590971 
L 780.902805 245.384815 
L 783.09233 245.487893 
L 783.09233 245.539432 
L 790.755668 245.64251 
L 790.755668 245.694049 
L 791.85043 245.694049 
L 791.85043 245.539432 
L 796.229481 245.590971 
L 796.229481 245.745588 
L 797.324243 245.745588 
L 797.324243 245.590971 
L 802.798056 245.539432 
L 802.798056 245.436354 
L 803.892818 245.436354 
L 803.892818 245.64251 
L 804.987581 245.64251 
L 804.987581 245.333276 
L 806.082343 245.333276 
L 806.082343 245.487893 
L 807.177106 245.487893 
L 807.177106 245.64251 
L 814.840444 245.694049 
L 814.840444 245.487893 
L 815.935206 245.487893 
L 815.935206 245.694049 
L 821.409019 245.694049 
L 821.409019 245.487893 
L 822.503781 245.487893 
L 822.503781 245.745588 
L 823.598544 245.745588 
L 823.598544 245.539432 
L 824.693306 245.539432 
L 824.693306 245.694049 
L 829.072356 245.590971 
L 829.072356 245.539432 
L 830.167119 245.539432 
L 830.167119 245.694049 
L 836.735694 245.797127 
L 836.735694 245.487893 
L 837.830457 245.487893 
L 837.830457 245.694049 
L 848.778082 245.64251 
L 848.778082 245.64251 
" clip-path="url(#p8380f287b9)" style="fill: none; stroke: #1f77b4; stroke-width: 1.5; stroke-linecap: square"/>
   </g>
   <g id="patch_8">
    <path d="M 503.927885 257.158895 
L 503.927885 7.2 
" style="fill: none; stroke: #000000; stroke-width: 0.8; stroke-linejoin: miter; stroke-linecap: square"/>
   </g>
   <g id="patch_9">
    <path d="M 865.19952 257.158895 
L 865.19952 7.2 
" style="fill: none; stroke: #000000; stroke-width: 0.8; stroke-linejoin: miter; stroke-linecap: square"/>
   </g>
   <g id="patch_10">
    <path d="M 503.927885 257.158895 
L 865.19952 257.158895 
" style="fill: none; stroke: #000000; stroke-width: 0.8; stroke-linejoin: miter; stroke-linecap: square"/>
   </g>
   <g id="patch_11">
    <path d="M 503.927885 7.2 
L 865.19952 7.2 
" style="fill: none; stroke: #000000; stroke-width: 0.8; stroke-linejoin: miter; stroke-linecap: square"/>
   </g>
  </g>
 </g>
 <defs>
  <clipPath id="p7bea76b219">
   <rect x="53.328125" y="7.2" width="361.271635" height="249.958895"/>
  </clipPath>
  <clipPath id="p8380f287b9">
   <rect x="503.927885" y="7.2" width="361.271635" height="249.958895"/>
  </clipPath>
 </defs>
</svg>
