<?xml version="1.0" encoding="utf-8" standalone="no"?>
<!DOCTYPE svg PUBLIC "-//W3C//DTD SVG 1.1//EN"
  "http://www.w3.org/Graphics/SVG/1.1/DTD/svg11.dtd">
<svg xmlns:xlink="http://www.w3.org/1999/xlink" width="395.328125pt" height="268.200625pt" viewBox="0 0 395.328125 268.200625" xmlns="http://www.w3.org/2000/svg" version="1.1">
 <metadata>
  <rdf:RDF xmlns:dc="http://purl.org/dc/elements/1.1/" xmlns:cc="http://creativecommons.org/ns#" xmlns:rdf="http://www.w3.org/1999/02/22-rdf-syntax-ns#">
   <cc:Work>
    <dc:type rdf:resource="http://purl.org/dc/dcmitype/StillImage"/>
    <dc:date>2025-11-07T09:33:15.894593</dc:date>
    <dc:format>image/svg+xml</dc:format>
    <dc:creator>
     <cc:Agent>
      <dc:title>Matplotlib v3.10.7, https://matplotlib.org/</dc:title>
     </cc:Agent>
    </dc:creator>
   </cc:Work>
  </rdf:RDF>
 </metadata>
 <defs>
  <style type="text/css">*{stroke-linejoin: round; stroke-linecap: butt}</style>
 </defs>
 <g id="figure_1">
  <g id="patch_1">
   <path d="M 0 268.200625 
L 395.328125 268.200625 
L 395.328125 0 
L 0 0 
z
" style="fill: #ffffff"/>
  </g>
  <g id="axes_1">
   <g id="patch_2">
    <path d="M 53.328125 228.96 
L 388.128125 228.96 
L 388.128125 7.2 
L 53.328125 7.2 
z
" style="fill: #ffffff"/>
   </g>
   <g id="matplotlib.axis_1">
    <g id="xtick_1">
     <g id="line2d_1">
      <defs>
       <path id="m116765d12c" d="M 0 0 
L 0 3.5 
" style="stroke: #000000; stroke-width: 0.8"/>
      </defs>
      <g>
       <use xlink:href="#m116765d12c" x="68.546307" y="228.96" style="stroke: #000000; stroke-width: 0.8"/>
      </g>
     </g>
     <g id="text_1">
      <!-- 1 -->
      <g transform="translate(65.365057 243.558437) scale(0.1 -0.1)">
       <defs>
        <path id="DejaVuSans-31" d="M 794 531 
L 1825 531 
L 1825 4091 
L 703 3866 
L 703 4441 
L 1819 4666 
L 2450 4666 
L 2450 531 
L 3481 531 
L 3481 0 
L 794 0 
L 794 531 
z
" transform="scale(0.015625)"/>
       </defs>
       <use xlink:href="#DejaVuSans-31"/>
      </g>
     </g>
    </g>
    <g id="xtick_2">
     <g id="line2d_2">
      <g>
       <use xlink:href="#m116765d12c" x="112.026826" y="228.96" style="stroke: #000000; stroke-width: 0.8"/>
      </g>
     </g>
     <g id="text_2">
      <!-- 2 -->
      <g transform="translate(108.845576 243.558437) scale(0.1 -0.1)">
       <defs>
        <path id="DejaVuSans-32" d="M 1228 531 
L 3431 531 
L 3431 0 
L 469 0 
L 469 531 
Q 828 903 1448 1529 
Q 2069 2156 2228 2338 
Q 2531 2678 2651 2914 
Q 2772 3150 2772 3378 
Q 2772 3750 2511 3984 
Q 2250 4219 1831 4219 
Q 1534 4219 1204 4116 
Q 875 4013 500 3803 
L 500 4441 
Q 881 4594 1212 4672 
Q 1544 4750 1819 4750 
Q 2544 4750 2975 4387 
Q 3406 4025 3406 3419 
Q 3406 3131 3298 2873 
Q 3191 2616 2906 2266 
Q 2828 2175 2409 1742 
Q 1991 1309 1228 531 
z
" transform="scale(0.015625)"/>
       </defs>
       <use xlink:href="#DejaVuSans-32"/>
      </g>
     </g>
    </g>
    <g id="xtick_3">
     <g id="line2d_3">
      <g>
       <use xlink:href="#m116765d12c" x="155.507346" y="228.96" style="stroke: #000000; stroke-width: 0.8"/>
      </g>
     </g>
     <g id="text_3">
      <!-- 3 -->
      <g transform="translate(152.326096 243.558437) scale(0.1 -0.1)">
       <defs>
        <path id="DejaVuSans-33" d="M 2597 2516 
Q 3050 2419 3304 2112 
Q 3559 1806 3559 1356 
Q 3559 666 3084 287 
Q 2609 -91 1734 -91 
Q 1441 -91 1130 -33 
Q 819 25 488 141 
L 488 750 
Q 750 597 1062 519 
Q 1375 441 1716 441 
Q 2309 441 2620 675 
Q 2931 909 2931 1356 
Q 2931 1769 2642 2001 
Q 2353 2234 1838 2234 
L 1294 2234 
L 1294 2753 
L 1863 2753 
Q 2328 2753 2575 2939 
Q 2822 3125 2822 3475 
Q 2822 3834 2567 4026 
Q 2313 4219 1838 4219 
Q 1578 4219 1281 4162 
Q 984 4106 628 3988 
L 628 4550 
Q 988 4650 1302 4700 
Q 1616 4750 1894 4750 
Q 2613 4750 3031 4423 
Q 3450 4097 3450 3541 
Q 3450 3153 3228 2886 
Q 3006 2619 2597 2516 
z
" transform="scale(0.015625)"/>
       </defs>
       <use xlink:href="#DejaVuSans-33"/>
      </g>
     </g>
    </g>
    <g id="xtick_4">
     <g id="line2d_4">
      <g>
       <use xlink:href="#m116765d12c" x="198.987865" y="228.96" style="stroke: #000000; stroke-width: 0.8"/>
      </g>
     </g>
     <g id="text_4">
      <!-- 4 -->
      <g transform="translate(195.806615 243.558437) scale(0.1 -0.1)">
       <defs>
        <path id="DejaVuSans-34" d="M 2419 4116 
L 825 1625 
L 2419 1625 
L 2419 4116 
z
M 2253 4666 
L 3047 4666 
L 3047 1625 
L 3713 1625 
L 3713 1100 
L 3047 1100 
L 3047 0 
L 2419 0 
L 2419 1100 
L 313 1100 
L 313 1709 
L 2253 4666 
z
" transform="scale(0.015625)"/>
       </defs>
       <use xlink:href="#DejaVuSans-34"/>
      </g>
     </g>
    </g>
    <g id="xtick_5">
     <g id="line2d_5">
      <g>
       <use xlink:href="#m116765d12c" x="242.468385" y="228.96" style="stroke: #000000; stroke-width: 0.8"/>
      </g>
     </g>
     <g id="text_5">
      <!-- 5 -->
      <g transform="translate(239.287135 243.558437) scale(0.1 -0.1)">
       <defs>
        <path id="DejaVuSans-35" d="M 691 4666 
L 3169 4666 
L 3169 4134 
L 1269 4134 
L 1269 2991 
Q 1406 3038 1543 3061 
Q 1681 3084 1819 3084 
Q 2600 3084 3056 2656 
Q 3513 2228 3513 1497 
Q 3513 744 3044 326 
Q 2575 -91 1722 -91 
Q 1428 -91 1123 -41 
Q 819 9 494 109 
L 494 744 
Q 775 591 1075 516 
Q 1375 441 1709 441 
Q 2250 441 2565 725 
Q 2881 1009 2881 1497 
Q 2881 1984 2565 2268 
Q 2250 2553 1709 2553 
Q 1456 2553 1204 2497 
Q 953 2441 691 2322 
L 691 4666 
z
" transform="scale(0.015625)"/>
       </defs>
       <use xlink:href="#DejaVuSans-35"/>
      </g>
     </g>
    </g>
    <g id="xtick_6">
     <g id="line2d_6">
      <g>
       <use xlink:href="#m116765d12c" x="285.948904" y="228.96" style="stroke: #000000; stroke-width: 0.8"/>
      </g>
     </g>
     <g id="text_6">
      <!-- 6 -->
      <g transform="translate(282.767654 243.558437) scale(0.1 -0.1)">
       <defs>
        <path id="DejaVuSans-36" d="M 2113 2584 
Q 1688 2584 1439 2293 
Q 1191 2003 1191 1497 
Q 1191 994 1439 701 
Q 1688 409 2113 409 
Q 2538 409 2786 701 
Q 3034 994 3034 1497 
Q 3034 2003 2786 2293 
Q 2538 2584 2113 2584 
z
M 3366 4563 
L 3366 3988 
Q 3128 4100 2886 4159 
Q 2644 4219 2406 4219 
Q 1781 4219 1451 3797 
Q 1122 3375 1075 2522 
Q 1259 2794 1537 2939 
Q 1816 3084 2150 3084 
Q 2853 3084 3261 2657 
Q 3669 2231 3669 1497 
Q 3669 778 3244 343 
Q 2819 -91 2113 -91 
Q 1303 -91 875 529 
Q 447 1150 447 2328 
Q 447 3434 972 4092 
Q 1497 4750 2381 4750 
Q 2619 4750 2861 4703 
Q 3103 4656 3366 4563 
z
" transform="scale(0.015625)"/>
       </defs>
       <use xlink:href="#DejaVuSans-36"/>
      </g>
     </g>
    </g>
    <g id="xtick_7">
     <g id="line2d_7">
      <g>
       <use xlink:href="#m116765d12c" x="329.429424" y="228.96" style="stroke: #000000; stroke-width: 0.8"/>
      </g>
     </g>
     <g id="text_7">
      <!-- 7 -->
      <g transform="translate(326.248174 243.558437) scale(0.1 -0.1)">
       <defs>
        <path id="DejaVuSans-37" d="M 525 4666 
L 3525 4666 
L 3525 4397 
L 1831 0 
L 1172 0 
L 2766 4134 
L 525 4134 
L 525 4666 
z
" transform="scale(0.015625)"/>
       </defs>
       <use xlink:href="#DejaVuSans-37"/>
      </g>
     </g>
    </g>
    <g id="xtick_8">
     <g id="line2d_8">
      <g>
       <use xlink:href="#m116765d12c" x="372.909943" y="228.96" style="stroke: #000000; stroke-width: 0.8"/>
      </g>
     </g>
     <g id="text_8">
      <!-- 8 -->
      <g transform="translate(369.728693 243.558437) scale(0.1 -0.1)">
       <defs>
        <path id="DejaVuSans-38" d="M 2034 2216 
Q 1584 2216 1326 1975 
Q 1069 1734 1069 1313 
Q 1069 891 1326 650 
Q 1584 409 2034 409 
Q 2484 409 2743 651 
Q 3003 894 3003 1313 
Q 3003 1734 2745 1975 
Q 2488 2216 2034 2216 
z
M 1403 2484 
Q 997 2584 770 2862 
Q 544 3141 544 3541 
Q 544 4100 942 4425 
Q 1341 4750 2034 4750 
Q 2731 4750 3128 4425 
Q 3525 4100 3525 3541 
Q 3525 3141 3298 2862 
Q 3072 2584 2669 2484 
Q 3125 2378 3379 2068 
Q 3634 1759 3634 1313 
Q 3634 634 3220 271 
Q 2806 -91 2034 -91 
Q 1263 -91 848 271 
Q 434 634 434 1313 
Q 434 1759 690 2068 
Q 947 2378 1403 2484 
z
M 1172 3481 
Q 1172 3119 1398 2916 
Q 1625 2713 2034 2713 
Q 2441 2713 2670 2916 
Q 2900 3119 2900 3481 
Q 2900 3844 2670 4047 
Q 2441 4250 2034 4250 
Q 1625 4250 1398 4047 
Q 1172 3844 1172 3481 
z
" transform="scale(0.015625)"/>
       </defs>
       <use xlink:href="#DejaVuSans-38"/>
      </g>
     </g>
    </g>
    <g id="text_9">
     <!-- wavelength [Å] -->
     <g transform="translate(182.690625 258.920937) scale(0.1 -0.1)">
      <defs>
       <path id="DejaVuSans-77" d="M 269 3500 
L 844 3500 
L 1563 769 
L 2278 3500 
L 2956 3500 
L 3675 769 
L 4391 3500 
L 4966 3500 
L 4050 0 
L 3372 0 
L 2619 2869 
L 1863 0 
L 1184 0 
L 269 3500 
z
" transform="scale(0.015625)"/>
       <path id="DejaVuSans-61" d="M 2194 1759 
Q 1497 1759 1228 1600 
Q 959 1441 959 1056 
Q 959 750 1161 570 
Q 1363 391 1709 391 
Q 2188 391 2477 730 
Q 2766 1069 2766 1631 
L 2766 1759 
L 2194 1759 
z
M 3341 1997 
L 3341 0 
L 2766 0 
L 2766 531 
Q 2569 213 2275 61 
Q 1981 -91 1556 -91 
Q 1019 -91 701 211 
Q 384 513 384 1019 
Q 384 1609 779 1909 
Q 1175 2209 1959 2209 
L 2766 2209 
L 2766 2266 
Q 2766 2663 2505 2880 
Q 2244 3097 1772 3097 
Q 1472 3097 1187 3025 
Q 903 2953 641 2809 
L 641 3341 
Q 956 3463 1253 3523 
Q 1550 3584 1831 3584 
Q 2591 3584 2966 3190 
Q 3341 2797 3341 1997 
z
" transform="scale(0.015625)"/>
       <path id="DejaVuSans-76" d="M 191 3500 
L 800 3500 
L 1894 563 
L 2988 3500 
L 3597 3500 
L 2284 0 
L 1503 0 
L 191 3500 
z
" transform="scale(0.015625)"/>
       <path id="DejaVuSans-65" d="M 3597 1894 
L 3597 1613 
L 953 1613 
Q 991 1019 1311 708 
Q 1631 397 2203 397 
Q 2534 397 2845 478 
Q 3156 559 3463 722 
L 3463 178 
Q 3153 47 2828 -22 
Q 2503 -91 2169 -91 
Q 1331 -91 842 396 
Q 353 884 353 1716 
Q 353 2575 817 3079 
Q 1281 3584 2069 3584 
Q 2775 3584 3186 3129 
Q 3597 2675 3597 1894 
z
M 3022 2063 
Q 3016 2534 2758 2815 
Q 2500 3097 2075 3097 
Q 1594 3097 1305 2825 
Q 1016 2553 972 2059 
L 3022 2063 
z
" transform="scale(0.015625)"/>
       <path id="DejaVuSans-6c" d="M 603 4863 
L 1178 4863 
L 1178 0 
L 603 0 
L 603 4863 
z
" transform="scale(0.015625)"/>
       <path id="DejaVuSans-6e" d="M 3513 2113 
L 3513 0 
L 2938 0 
L 2938 2094 
Q 2938 2591 2744 2837 
Q 2550 3084 2163 3084 
Q 1697 3084 1428 2787 
Q 1159 2491 1159 1978 
L 1159 0 
L 581 0 
L 581 3500 
L 1159 3500 
L 1159 2956 
Q 1366 3272 1645 3428 
Q 1925 3584 2291 3584 
Q 2894 3584 3203 3211 
Q 3513 2838 3513 2113 
z
" transform="scale(0.015625)"/>
       <path id="DejaVuSans-67" d="M 2906 1791 
Q 2906 2416 2648 2759 
Q 2391 3103 1925 3103 
Q 1463 3103 1205 2759 
Q 947 2416 947 1791 
Q 947 1169 1205 825 
Q 1463 481 1925 481 
Q 2391 481 2648 825 
Q 2906 1169 2906 1791 
z
M 3481 434 
Q 3481 -459 3084 -895 
Q 2688 -1331 1869 -1331 
Q 1566 -1331 1297 -1286 
Q 1028 -1241 775 -1147 
L 775 -588 
Q 1028 -725 1275 -790 
Q 1522 -856 1778 -856 
Q 2344 -856 2625 -561 
Q 2906 -266 2906 331 
L 2906 616 
Q 2728 306 2450 153 
Q 2172 0 1784 0 
Q 1141 0 747 490 
Q 353 981 353 1791 
Q 353 2603 747 3093 
Q 1141 3584 1784 3584 
Q 2172 3584 2450 3431 
Q 2728 3278 2906 2969 
L 2906 3500 
L 3481 3500 
L 3481 434 
z
" transform="scale(0.015625)"/>
       <path id="DejaVuSans-74" d="M 1172 4494 
L 1172 3500 
L 2356 3500 
L 2356 3053 
L 1172 3053 
L 1172 1153 
Q 1172 725 1289 603 
Q 1406 481 1766 481 
L 2356 481 
L 2356 0 
L 1766 0 
Q 1100 0 847 248 
Q 594 497 594 1153 
L 594 3053 
L 172 3053 
L 172 3500 
L 594 3500 
L 594 4494 
L 1172 4494 
z
" transform="scale(0.015625)"/>
       <path id="DejaVuSans-68" d="M 3513 2113 
L 3513 0 
L 2938 0 
L 2938 2094 
Q 2938 2591 2744 2837 
Q 2550 3084 2163 3084 
Q 1697 3084 1428 2787 
Q 1159 2491 1159 1978 
L 1159 0 
L 581 0 
L 581 4863 
L 1159 4863 
L 1159 2956 
Q 1366 3272 1645 3428 
Q 1925 3584 2291 3584 
Q 2894 3584 3203 3211 
Q 3513 2838 3513 2113 
z
" transform="scale(0.015625)"/>
       <path id="DejaVuSans-20" transform="scale(0.015625)"/>
       <path id="DejaVuSans-5b" d="M 550 4863 
L 1875 4863 
L 1875 4416 
L 1125 4416 
L 1125 -397 
L 1875 -397 
L 1875 -844 
L 550 -844 
L 550 4863 
z
" transform="scale(0.015625)"/>
       <path id="DejaVuSans-c5" d="M 2663 5081 
Q 2663 5278 2523 5417 
Q 2384 5556 2188 5556 
Q 1988 5556 1852 5420 
Q 1716 5284 1716 5081 
Q 1716 4884 1853 4746 
Q 1991 4609 2188 4609 
Q 2384 4609 2523 4746 
Q 2663 4884 2663 5081 
z
M 2188 4044 
L 1338 1722 
L 3041 1722 
L 2188 4044 
z
M 1716 4366 
Q 1525 4494 1428 4673 
Q 1331 4853 1331 5081 
Q 1331 5441 1579 5691 
Q 1828 5941 2188 5941 
Q 2544 5941 2795 5689 
Q 3047 5438 3047 5081 
Q 3047 4863 2948 4678 
Q 2850 4494 2663 4366 
L 4325 0 
L 3669 0 
L 3244 1197 
L 1141 1197 
L 716 0 
L 50 0 
L 1716 4366 
z
" transform="scale(0.015625)"/>
       <path id="DejaVuSans-5d" d="M 1947 4863 
L 1947 -844 
L 622 -844 
L 622 -397 
L 1369 -397 
L 1369 4416 
L 622 4416 
L 622 4863 
L 1947 4863 
z
" transform="scale(0.015625)"/>
      </defs>
      <use xlink:href="#DejaVuSans-77"/>
      <use xlink:href="#DejaVuSans-61" transform="translate(81.787109 0)"/>
      <use xlink:href="#DejaVuSans-76" transform="translate(143.066406 0)"/>
      <use xlink:href="#DejaVuSans-65" transform="translate(202.246094 0)"/>
      <use xlink:href="#DejaVuSans-6c" transform="translate(263.769531 0)"/>
      <use xlink:href="#DejaVuSans-65" transform="translate(291.552734 0)"/>
      <use xlink:href="#DejaVuSans-6e" transform="translate(353.076172 0)"/>
      <use xlink:href="#DejaVuSans-67" transform="translate(416.455078 0)"/>
      <use xlink:href="#DejaVuSans-74" transform="translate(479.931641 0)"/>
      <use xlink:href="#DejaVuSans-68" transform="translate(519.140625 0)"/>
      <use xlink:href="#DejaVuSans-20" transform="translate(582.519531 0)"/>
      <use xlink:href="#DejaVuSans-5b" transform="translate(614.306641 0)"/>
      <use xlink:href="#DejaVuSans-c5" transform="translate(653.320312 0)"/>
      <use xlink:href="#DejaVuSans-5d" transform="translate(721.728516 0)"/>
     </g>
    </g>
   </g>
   <g id="matplotlib.axis_2">
    <g id="ytick_1">
     <g id="line2d_9">
      <defs>
       <path id="m18c5e5751a" d="M 0 0 
L -3.5 0 
" style="stroke: #000000; stroke-width: 0.8"/>
      </defs>
      <g>
       <use xlink:href="#m18c5e5751a" x="53.328125" y="218.88" style="stroke: #000000; stroke-width: 0.8"/>
      </g>
     </g>
     <g id="text_10">
      <!-- 0 -->
      <g transform="translate(39.965625 222.679219) scale(0.1 -0.1)">
       <defs>
        <path id="DejaVuSans-30" d="M 2034 4250 
Q 1547 4250 1301 3770 
Q 1056 3291 1056 2328 
Q 1056 1369 1301 889 
Q 1547 409 2034 409 
Q 2525 409 2770 889 
Q 3016 1369 3016 2328 
Q 3016 3291 2770 3770 
Q 2525 4250 2034 4250 
z
M 2034 4750 
Q 2819 4750 3233 4129 
Q 3647 3509 3647 2328 
Q 3647 1150 3233 529 
Q 2819 -91 2034 -91 
Q 1250 -91 836 529 
Q 422 1150 422 2328 
Q 422 3509 836 4129 
Q 1250 4750 2034 4750 
z
" transform="scale(0.015625)"/>
       </defs>
       <use xlink:href="#DejaVuSans-30"/>
      </g>
     </g>
    </g>
    <g id="ytick_2">
     <g id="line2d_10">
      <g>
       <use xlink:href="#m18c5e5751a" x="53.328125" y="188.306752" style="stroke: #000000; stroke-width: 0.8"/>
      </g>
     </g>
     <g id="text_11">
      <!-- 1000 -->
      <g transform="translate(20.878125 192.10597) scale(0.1 -0.1)">
       <use xlink:href="#DejaVuSans-31"/>
       <use xlink:href="#DejaVuSans-30" transform="translate(63.623047 0)"/>
       <use xlink:href="#DejaVuSans-30" transform="translate(127.246094 0)"/>
       <use xlink:href="#DejaVuSans-30" transform="translate(190.869141 0)"/>
      </g>
     </g>
    </g>
    <g id="ytick_3">
     <g id="line2d_11">
      <g>
       <use xlink:href="#m18c5e5751a" x="53.328125" y="157.733503" style="stroke: #000000; stroke-width: 0.8"/>
      </g>
     </g>
     <g id="text_12">
      <!-- 2000 -->
      <g transform="translate(20.878125 161.532722) scale(0.1 -0.1)">
       <use xlink:href="#DejaVuSans-32"/>
       <use xlink:href="#DejaVuSans-30" transform="translate(63.623047 0)"/>
       <use xlink:href="#DejaVuSans-30" transform="translate(127.246094 0)"/>
       <use xlink:href="#DejaVuSans-30" transform="translate(190.869141 0)"/>
      </g>
     </g>
    </g>
    <g id="ytick_4">
     <g id="line2d_12">
      <g>
       <use xlink:href="#m18c5e5751a" x="53.328125" y="127.160255" style="stroke: #000000; stroke-width: 0.8"/>
      </g>
     </g>
     <g id="text_13">
      <!-- 3000 -->
      <g transform="translate(20.878125 130.959474) scale(0.1 -0.1)">
       <use xlink:href="#DejaVuSans-33"/>
       <use xlink:href="#DejaVuSans-30" transform="translate(63.623047 0)"/>
       <use xlink:href="#DejaVuSans-30" transform="translate(127.246094 0)"/>
       <use xlink:href="#DejaVuSans-30" transform="translate(190.869141 0)"/>
      </g>
     </g>
    </g>
    <g id="ytick_5">
     <g id="line2d_13">
      <g>
       <use xlink:href="#m18c5e5751a" x="53.328125" y="96.587006" style="stroke: #000000; stroke-width: 0.8"/>
      </g>
     </g>
     <g id="text_14">
      <!-- 4000 -->
      <g transform="translate(20.878125 100.386225) scale(0.1 -0.1)">
       <use xlink:href="#DejaVuSans-34"/>
       <use xlink:href="#DejaVuSans-30" transform="translate(63.623047 0)"/>
       <use xlink:href="#DejaVuSans-30" transform="translate(127.246094 0)"/>
       <use xlink:href="#DejaVuSans-30" transform="translate(190.869141 0)"/>
      </g>
     </g>
    </g>
    <g id="ytick_6">
     <g id="line2d_14">
      <g>
       <use xlink:href="#m18c5e5751a" x="53.328125" y="66.013758" style="stroke: #000000; stroke-width: 0.8"/>
      </g>
     </g>
     <g id="text_15">
      <!-- 5000 -->
      <g transform="translate(20.878125 69.812977) scale(0.1 -0.1)">
       <use xlink:href="#DejaVuSans-35"/>
       <use xlink:href="#DejaVuSans-30" transform="translate(63.623047 0)"/>
       <use xlink:href="#DejaVuSans-30" transform="translate(127.246094 0)"/>
       <use xlink:href="#DejaVuSans-30" transform="translate(190.869141 0)"/>
      </g>
     </g>
    </g>
    <g id="ytick_7">
     <g id="line2d_15">
      <g>
       <use xlink:href="#m18c5e5751a" x="53.328125" y="35.44051" style="stroke: #000000; stroke-width: 0.8"/>
      </g>
     </g>
     <g id="text_16">
      <!-- 6000 -->
      <g transform="translate(20.878125 39.239728) scale(0.1 -0.1)">
       <use xlink:href="#DejaVuSans-36"/>
       <use xlink:href="#DejaVuSans-30" transform="translate(63.623047 0)"/>
       <use xlink:href="#DejaVuSans-30" transform="translate(127.246094 0)"/>
       <use xlink:href="#DejaVuSans-30" transform="translate(190.869141 0)"/>
      </g>
     </g>
    </g>
    <g id="text_17">
     <!-- [counts] -->
     <g transform="translate(14.798438 138.6925) rotate(-90) scale(0.1 -0.1)">
      <defs>
       <path id="DejaVuSans-63" d="M 3122 3366 
L 3122 2828 
Q 2878 2963 2633 3030 
Q 2388 3097 2138 3097 
Q 1578 3097 1268 2742 
Q 959 2388 959 1747 
Q 959 1106 1268 751 
Q 1578 397 2138 397 
Q 2388 397 2633 464 
Q 2878 531 3122 666 
L 3122 134 
Q 2881 22 2623 -34 
Q 2366 -91 2075 -91 
Q 1284 -91 818 406 
Q 353 903 353 1747 
Q 353 2603 823 3093 
Q 1294 3584 2113 3584 
Q 2378 3584 2631 3529 
Q 2884 3475 3122 3366 
z
" transform="scale(0.015625)"/>
       <path id="DejaVuSans-6f" d="M 1959 3097 
Q 1497 3097 1228 2736 
Q 959 2375 959 1747 
Q 959 1119 1226 758 
Q 1494 397 1959 397 
Q 2419 397 2687 759 
Q 2956 1122 2956 1747 
Q 2956 2369 2687 2733 
Q 2419 3097 1959 3097 
z
M 1959 3584 
Q 2709 3584 3137 3096 
Q 3566 2609 3566 1747 
Q 3566 888 3137 398 
Q 2709 -91 1959 -91 
Q 1206 -91 779 398 
Q 353 888 353 1747 
Q 353 2609 779 3096 
Q 1206 3584 1959 3584 
z
" transform="scale(0.015625)"/>
       <path id="DejaVuSans-75" d="M 544 1381 
L 544 3500 
L 1119 3500 
L 1119 1403 
Q 1119 906 1312 657 
Q 1506 409 1894 409 
Q 2359 409 2629 706 
Q 2900 1003 2900 1516 
L 2900 3500 
L 3475 3500 
L 3475 0 
L 2900 0 
L 2900 538 
Q 2691 219 2414 64 
Q 2138 -91 1772 -91 
Q 1169 -91 856 284 
Q 544 659 544 1381 
z
M 1991 3584 
L 1991 3584 
z
" transform="scale(0.015625)"/>
       <path id="DejaVuSans-73" d="M 2834 3397 
L 2834 2853 
Q 2591 2978 2328 3040 
Q 2066 3103 1784 3103 
Q 1356 3103 1142 2972 
Q 928 2841 928 2578 
Q 928 2378 1081 2264 
Q 1234 2150 1697 2047 
L 1894 2003 
Q 2506 1872 2764 1633 
Q 3022 1394 3022 966 
Q 3022 478 2636 193 
Q 2250 -91 1575 -91 
Q 1294 -91 989 -36 
Q 684 19 347 128 
L 347 722 
Q 666 556 975 473 
Q 1284 391 1588 391 
Q 1994 391 2212 530 
Q 2431 669 2431 922 
Q 2431 1156 2273 1281 
Q 2116 1406 1581 1522 
L 1381 1569 
Q 847 1681 609 1914 
Q 372 2147 372 2553 
Q 372 3047 722 3315 
Q 1072 3584 1716 3584 
Q 2034 3584 2315 3537 
Q 2597 3491 2834 3397 
z
" transform="scale(0.015625)"/>
      </defs>
      <use xlink:href="#DejaVuSans-5b"/>
      <use xlink:href="#DejaVuSans-63" transform="translate(39.013672 0)"/>
      <use xlink:href="#DejaVuSans-6f" transform="translate(93.994141 0)"/>
      <use xlink:href="#DejaVuSans-75" transform="translate(155.175781 0)"/>
      <use xlink:href="#DejaVuSans-6e" transform="translate(218.554688 0)"/>
      <use xlink:href="#DejaVuSans-74" transform="translate(281.933594 0)"/>
      <use xlink:href="#DejaVuSans-73" transform="translate(321.142578 0)"/>
      <use xlink:href="#DejaVuSans-5d" transform="translate(373.242188 0)"/>
     </g>
    </g>
   </g>
   <g id="line2d_16">
    <path d="M 68.546307 218.88 
L 77.677216 218.88 
L 77.677216 218.757707 
L 79.199034 218.757707 
L 79.199034 218.482548 
L 79.959943 218.482548 
L 79.959943 218.727134 
L 80.720852 218.727134 
L 80.720852 218.421401 
L 81.481761 218.421401 
L 81.481761 218.665987 
L 82.24267 218.665987 
L 82.24267 218.78828 
L 83.00358 218.78828 
L 83.00358 218.421401 
L 83.764489 218.421401 
L 83.764489 218.574268 
L 85.286307 218.635414 
L 85.286307 218.390828 
L 86.808125 218.329682 
L 86.808125 218.085096 
L 87.569034 218.085096 
L 87.569034 218.268535 
L 88.329943 218.268535 
L 88.329943 217.718217 
L 89.090852 217.718217 
L 89.090852 217.932229 
L 89.851761 217.932229 
L 89.851761 218.085096 
L 90.61267 218.085096 
L 90.61267 217.809936 
L 91.37358 217.809936 
L 91.37358 216.923312 
L 92.134489 216.923312 
L 92.134489 218.146242 
L 92.895398 218.146242 
L 92.895398 217.198471 
L 93.656307 217.198471 
L 93.656307 217.56535 
L 94.417216 217.56535 
L 94.417216 217.198471 
L 95.178125 217.198471 
L 95.178125 216.801019 
L 95.939034 216.801019 
L 95.939034 216.34242 
L 96.699943 216.34242 
L 96.699943 216.036688 
L 97.460852 216.036688 
L 97.460852 216.831592 
L 98.221761 216.831592 
L 98.221761 216.036688 
L 99.74358 215.944968 
L 99.74358 214.936051 
L 100.504489 214.936051 
L 100.504489 214.324586 
L 101.265398 214.324586 
L 101.265398 214.660892 
L 102.026307 214.660892 
L 102.026307 213.407389 
L 102.787216 213.407389 
L 102.787216 213.651975 
L 103.548125 213.651975 
L 103.548125 212.826497 
L 105.069943 212.826497 
L 105.069943 210.625223 
L 105.830852 210.625223 
L 105.830852 207.904204 
L 107.35267 207.934777 
L 107.35267 207.659618 
L 108.11358 207.659618 
L 108.11358 206.83414 
L 108.874489 206.83414 
L 108.874489 202.431592 
L 109.635398 202.431592 
L 109.635398 204.602293 
L 110.396307 204.602293 
L 110.396307 199.221401 
L 111.157216 199.221401 
L 111.157216 198.609936 
L 111.918125 198.609936 
L 111.918125 194.635414 
L 112.679034 194.635414 
L 112.679034 193.687643 
L 113.439943 193.687643 
L 113.439943 189.957707 
L 114.200852 189.957707 
L 114.200852 183.904204 
L 114.961761 183.904204 
L 114.961761 181.060892 
L 115.72267 181.060892 
L 115.72267 179.134777 
L 116.48358 179.134777 
L 116.48358 179.471083 
L 117.244489 179.471083 
L 117.244489 175.710573 
L 118.005398 175.710573 
L 118.005398 171.124586 
L 118.766307 171.124586 
L 118.766307 166.508025 
L 119.527216 166.508025 
L 119.527216 163.206115 
L 120.288125 163.206115 
L 120.288125 156.204841 
L 121.049034 156.204841 
L 121.049034 157.488917 
L 121.809943 157.488917 
L 121.809943 151.527134 
L 122.570852 151.527134 
L 122.570852 144.52586 
L 123.331761 144.52586 
L 123.331761 137.922038 
L 124.09267 137.922038 
L 124.09267 138.197197 
L 124.85358 138.197197 
L 124.85358 131.715669 
L 125.614489 131.715669 
L 125.614489 128.169172 
L 126.375398 128.169172 
L 126.375398 121.901656 
L 127.136307 121.901656 
L 127.136307 120.52586 
L 127.897216 120.52586 
L 127.897216 109.458344 
L 128.658125 109.458344 
L 128.658125 104.597197 
L 129.419034 104.597197 
L 129.419034 102.793376 
L 130.179943 102.793376 
L 130.179943 97.045605 
L 130.940852 97.045605 
L 130.940852 94.752611 
L 131.701761 94.752611 
L 131.701761 87.292739 
L 132.46267 87.292739 
L 132.46267 82.278726 
L 133.22358 82.278726 
L 133.22358 72.587006 
L 133.984489 72.587006 
L 133.984489 69.223949 
L 134.745398 69.223949 
L 134.745398 68.184459 
L 135.506307 68.184459 
L 135.506307 63.415032 
L 136.267216 63.415032 
L 136.267216 55.77172 
L 137.028125 55.77172 
L 137.028125 46.966624 
L 137.789034 46.966624 
L 137.789034 46.783185 
L 138.549943 46.783185 
L 138.549943 50.910573 
L 139.310852 50.910573 
L 139.310852 44.734777 
L 140.071761 44.734777 
L 140.071761 45.98828 
L 140.83267 45.98828 
L 140.83267 39.048153 
L 141.59358 39.048153 
L 141.59358 36.449427 
L 142.354489 36.449427 
L 142.354489 37.916943 
L 143.115398 37.916943 
L 143.115398 36.816306 
L 143.876307 36.816306 
L 143.876307 35.868535 
L 144.637216 35.868535 
L 144.637216 32.016306 
L 145.398125 32.016306 
L 145.398125 38.344968 
L 146.159034 38.344968 
L 146.159034 26.757707 
L 146.919943 26.757707 
L 146.919943 30.823949 
L 147.680852 30.823949 
L 147.680852 24.984459 
L 148.441761 24.984459 
L 148.441761 26.085096 
L 149.20267 26.085096 
L 149.20267 36.265987 
L 149.96358 36.265987 
L 149.96358 24.52586 
L 150.724489 24.52586 
L 150.724489 42.350064 
L 151.485398 42.350064 
L 151.485398 21.254522 
L 152.246307 21.254522 
L 152.246307 17.28 
L 153.007216 17.28 
L 153.007216 31.741146 
L 153.768125 31.741146 
L 153.768125 25.809936 
L 154.529034 25.809936 
L 154.529034 24.34242 
L 155.289943 24.34242 
L 155.289943 32.872357 
L 156.050852 32.872357 
L 156.050852 30.334777 
L 156.811761 30.334777 
L 156.811761 20.581911 
L 157.57267 20.581911 
L 157.57267 22.722038 
L 158.33358 22.722038 
L 158.33358 23.822675 
L 159.094489 23.822675 
L 159.094489 26.604841 
L 159.855398 26.604841 
L 159.855398 26.115669 
L 160.616307 26.115669 
L 160.616307 37.51949 
L 161.377216 37.51949 
L 161.377216 21.009936 
L 162.138125 21.009936 
L 162.138125 34.248153 
L 162.899034 34.248153 
L 162.899034 21.071083 
L 163.659943 21.071083 
L 163.659943 39.904204 
L 164.420852 39.904204 
L 164.420852 38.956433 
L 165.181761 38.956433 
L 165.181761 18.655796 
L 165.94267 18.655796 
L 165.94267 22.110573 
L 166.70358 22.110573 
L 166.70358 26.696561 
L 167.464489 26.696561 
L 167.464489 28.19465 
L 168.225398 28.19465 
L 168.225398 36.051975 
L 168.986307 36.051975 
L 168.986307 28.622675 
L 169.747216 28.622675 
L 169.747216 40.668535 
L 170.508125 40.668535 
L 170.508125 36.999745 
L 171.269034 36.999745 
L 171.269034 41.310573 
L 172.029943 41.310573 
L 172.029943 49.137325 
L 172.790852 49.137325 
L 172.790852 35.807389 
L 173.551761 35.807389 
L 173.551761 56.536051 
L 174.31267 56.536051 
L 174.31267 53.23414 
L 175.07358 53.23414 
L 175.07358 48.036688 
L 175.834489 48.036688 
L 175.834489 60.327134 
L 176.595398 60.327134 
L 176.595398 41.494013 
L 177.356307 41.494013 
L 177.356307 72.372994 
L 178.117216 72.372994 
L 178.117216 56.505478 
L 178.878125 56.505478 
L 178.878125 65.646879 
L 179.639034 65.646879 
L 179.639034 65.004841 
L 180.399943 65.004841 
L 180.399943 73.962803 
L 181.160852 73.962803 
L 181.160852 61.397197 
L 181.921761 61.397197 
L 181.921761 73.871083 
L 182.68267 73.871083 
L 182.68267 67.664713 
L 183.44358 67.664713 
L 183.44358 75.491465 
L 184.204489 75.491465 
L 184.204489 76.347516 
L 184.965398 76.347516 
L 184.965398 78.854522 
L 185.726307 78.854522 
L 185.726307 72.953885 
L 186.487216 72.953885 
L 186.487216 82.492739 
L 187.248125 82.492739 
L 187.248125 86.253248 
L 188.009034 86.253248 
L 188.009034 83.16535 
L 188.769943 83.16535 
L 188.769943 98.88 
L 189.530852 98.88 
L 189.530852 83.837962 
L 190.291761 83.837962 
L 190.291761 92.979363 
L 191.05267 92.979363 
L 191.05267 101.662166 
L 191.81358 101.662166 
L 191.81358 88.913121 
L 192.574489 88.913121 
L 192.574489 104.505478 
L 193.335398 104.505478 
L 193.335398 97.137325 
L 194.096307 97.137325 
L 194.096307 97.626497 
L 194.857216 97.626497 
L 194.857216 97.106752 
L 195.618125 97.106752 
L 195.618125 102.181911 
L 196.379034 102.181911 
L 196.379034 102.334777 
L 197.139943 102.334777 
L 197.139943 107.685096 
L 197.900852 107.685096 
L 197.900852 109.488917 
L 198.661761 109.488917 
L 198.661761 111.812484 
L 199.42267 111.812484 
L 199.42267 105.972994 
L 200.18358 105.972994 
L 200.18358 117.009936 
L 200.944489 117.009936 
L 200.944489 107.654522 
L 201.705398 107.654522 
L 201.705398 116.887643 
L 202.466307 116.887643 
L 202.466307 119.027771 
L 203.227216 119.027771 
L 203.227216 104.077452 
L 203.988125 104.077452 
L 203.988125 125.356433 
L 204.749034 125.356433 
L 204.749034 112.668535 
L 205.509943 112.668535 
L 205.509943 125.14242 
L 206.270852 125.14242 
L 206.270852 123.063439 
L 207.031761 123.063439 
L 207.031761 125.845605 
L 208.55358 125.906752 
L 208.55358 122.543694 
L 209.314489 122.543694 
L 209.314489 125.509299 
L 210.075398 125.509299 
L 210.075398 118.630318 
L 210.836307 118.630318 
L 210.836307 134.772994 
L 211.597216 134.772994 
L 211.597216 127.955159 
L 212.358125 127.955159 
L 212.358125 135.567898 
L 213.119034 135.567898 
L 213.119034 130.737325 
L 213.879943 130.737325 
L 213.879943 132.48 
L 214.640852 132.48 
L 214.640852 145.84051 
L 215.401761 145.84051 
L 215.401761 122.329682 
L 216.16267 122.329682 
L 216.16267 151.863439 
L 216.92358 151.863439 
L 216.92358 121.595924 
L 217.684489 121.595924 
L 217.684489 150.823949 
L 218.445398 150.823949 
L 218.445398 128.474904 
L 219.206307 128.474904 
L 219.206307 144.739873 
L 219.967216 144.739873 
L 219.967216 140.031592 
L 220.728125 140.031592 
L 220.728125 138.441783 
L 221.489034 138.441783 
L 221.489034 141.743694 
L 222.249943 141.743694 
L 222.249943 146.390828 
L 223.010852 146.390828 
L 223.010852 147.980637 
L 223.771761 147.980637 
L 223.771761 142.385732 
L 224.53267 142.385732 
L 224.53267 152.750064 
L 225.29358 152.750064 
L 225.29358 150.701656 
L 226.054489 150.701656 
L 226.054489 143.30293 
L 226.815398 143.30293 
L 226.815398 150.273631 
L 227.576307 150.273631 
L 227.576307 146.574268 
L 228.337216 146.574268 
L 228.337216 150.823949 
L 229.098125 150.823949 
L 229.098125 151.863439 
L 229.859034 151.863439 
L 229.859034 159.506752 
L 230.619943 159.506752 
L 230.619943 150.64051 
L 231.380852 150.64051 
L 231.380852 153.178089 
L 232.141761 153.178089 
L 232.141761 156.969172 
L 232.90267 156.969172 
L 232.90267 152.872357 
L 233.66358 152.872357 
L 233.66358 153.116943 
L 234.424489 153.116943 
L 234.424489 160.882548 
L 235.185398 160.882548 
L 235.185398 156.449427 
L 235.946307 156.449427 
L 235.946307 159.139873 
L 236.707216 159.139873 
L 236.707216 159.292739 
L 237.468125 159.292739 
L 237.468125 165.957707 
L 238.229034 165.957707 
L 238.229034 157.091465 
L 238.989943 157.091465 
L 238.989943 165.651975 
L 239.750852 165.651975 
L 239.750852 156.999745 
L 240.511761 156.999745 
L 240.511761 168.953885 
L 241.27267 168.953885 
L 241.27267 162.105478 
L 242.03358 162.105478 
L 242.03358 162.441783 
L 242.794489 162.441783 
L 242.794489 169.320764 
L 243.555398 169.320764 
L 243.555398 165.254522 
L 244.316307 165.254522 
L 244.316307 168.770446 
L 245.077216 168.770446 
L 245.077216 170.513121 
L 245.838125 170.513121 
L 245.838125 171.063439 
L 246.599034 171.063439 
L 246.599034 168.648153 
L 247.359943 168.648153 
L 247.359943 168.862166 
L 248.120852 168.862166 
L 248.120852 170.941146 
L 248.881761 170.941146 
L 248.881761 172.775541 
L 249.64267 172.775541 
L 249.64267 172.897834 
L 250.40358 172.897834 
L 250.40358 174.793376 
L 251.164489 174.793376 
L 251.164489 175.099108 
L 251.925398 175.099108 
L 251.925398 174.823949 
L 252.686307 174.823949 
L 252.686307 178.370446 
L 253.447216 178.370446 
L 253.447216 174.976815 
L 254.208125 174.976815 
L 254.208125 183.323312 
L 254.969034 183.323312 
L 254.969034 178.767898 
L 255.729943 178.767898 
L 255.729943 183.659618 
L 256.490852 183.659618 
L 256.490852 183.506752 
L 257.251761 183.506752 
L 257.251761 185.18828 
L 258.01267 185.18828 
L 258.01267 187.450701 
L 258.77358 187.450701 
L 258.77358 181.488917 
L 259.534489 181.488917 
L 259.534489 189.499108 
L 260.295398 189.499108 
L 260.295398 187.878726 
L 261.056307 187.878726 
L 261.056307 182.92586 
L 261.817216 182.92586 
L 261.817216 189.896561 
L 262.578125 189.896561 
L 262.578125 191.364076 
L 263.339034 191.364076 
L 263.339034 189.774268 
L 264.099943 189.774268 
L 264.099943 191.058344 
L 264.860852 191.058344 
L 264.860852 193.901656 
L 266.38267 193.993376 
L 266.38267 191.364076 
L 267.14358 191.364076 
L 267.14358 195.644331 
L 267.904489 195.644331 
L 267.904489 196.989554 
L 269.426307 196.897834 
L 269.426307 197.41758 
L 270.187216 197.41758 
L 270.187216 195.705478 
L 270.948125 195.705478 
L 270.948125 197.448153 
L 271.709034 197.448153 
L 271.709034 199.313121 
L 272.469943 199.313121 
L 272.469943 196.958981 
L 273.230852 196.958981 
L 273.230852 197.631592 
L 273.991761 197.631592 
L 273.991761 200.658344 
L 274.75267 200.658344 
L 274.75267 203.929682 
L 275.51358 203.929682 
L 275.51358 199.894013 
L 276.274489 199.894013 
L 276.274489 202.431592 
L 277.035398 202.431592 
L 277.035398 203.899108 
L 277.796307 203.899108 
L 277.796307 203.44051 
L 278.557216 203.44051 
L 278.557216 203.868535 
L 279.318125 203.868535 
L 279.318125 204.510573 
L 281.600852 204.541146 
L 281.600852 207.201019 
L 282.361761 207.201019 
L 282.361761 206.895287 
L 283.12267 206.895287 
L 283.12267 205.580637 
L 283.88358 205.580637 
L 283.88358 207.170446 
L 284.644489 207.170446 
L 284.644489 208.24051 
L 285.405398 208.24051 
L 285.405398 208.790828 
L 286.166307 208.790828 
L 286.166307 208.637962 
L 286.927216 208.637962 
L 286.927216 208.515669 
L 287.688125 208.515669 
L 287.688125 209.646879 
L 288.449034 209.646879 
L 288.449034 211.114395 
L 289.209943 211.114395 
L 289.209943 211.420127 
L 289.970852 211.420127 
L 289.970852 210.31949 
L 290.731761 210.31949 
L 290.731761 211.053248 
L 291.49267 211.053248 
L 291.49267 212.062166 
L 292.25358 212.062166 
L 292.25358 211.450701 
L 293.014489 211.450701 
L 293.014489 213.193376 
L 293.775398 213.193376 
L 293.775398 212.673631 
L 294.536307 212.673631 
L 294.536307 213.223949 
L 295.297216 213.223949 
L 295.297216 213.896561 
L 296.058125 213.896561 
L 296.058125 214.232866 
L 296.819034 214.232866 
L 296.819034 214.508025 
L 297.579943 214.508025 
L 297.579943 214.722038 
L 299.101761 214.783185 
L 299.101761 214.905478 
L 299.86267 214.905478 
L 299.86267 215.792102 
L 300.62358 215.792102 
L 300.62358 215.669809 
L 302.145398 215.730955 
L 302.145398 215.975541 
L 302.906307 215.975541 
L 302.906307 216.984459 
L 303.667216 216.984459 
L 303.667216 216.464713 
L 304.428125 216.464713 
L 304.428125 217.504204 
L 305.189034 217.504204 
L 305.189034 217.65707 
L 305.949943 217.65707 
L 305.949943 217.443057 
L 306.710852 217.443057 
L 306.710852 217.65707 
L 307.471761 217.65707 
L 307.471761 217.84051 
L 308.23267 217.84051 
L 308.23267 218.146242 
L 308.99358 218.146242 
L 308.99358 218.299108 
L 309.754489 218.299108 
L 309.754489 218.513121 
L 312.798125 218.574268 
L 312.798125 218.88 
L 372.909943 218.88 
L 372.909943 218.88 
" clip-path="url(#p717f0de3d6)" style="fill: none; stroke: #1f77b4; stroke-width: 1.5; stroke-linecap: square"/>
   </g>
   <g id="line2d_17">
    <path d="M 68.546307 218.88 
L 79.199034 218.818854 
L 79.199034 218.543694 
L 79.959943 218.543694 
L 79.959943 218.727134 
L 80.720852 218.727134 
L 80.720852 218.482548 
L 81.481761 218.482548 
L 81.481761 218.757707 
L 82.24267 218.757707 
L 82.24267 218.88 
L 83.00358 218.88 
L 83.00358 218.390828 
L 83.764489 218.390828 
L 83.764489 218.513121 
L 84.525398 218.513121 
L 84.525398 218.727134 
L 85.286307 218.727134 
L 85.286307 218.390828 
L 86.047216 218.390828 
L 86.047216 218.237962 
L 86.808125 218.237962 
L 86.808125 218.115669 
L 88.329943 218.176815 
L 88.329943 217.84051 
L 89.090852 217.84051 
L 89.090852 217.993376 
L 89.851761 217.993376 
L 89.851761 217.595924 
L 90.61267 217.595924 
L 90.61267 218.054522 
L 91.37358 218.054522 
L 91.37358 217.229045 
L 92.134489 217.229045 
L 92.134489 217.901656 
L 92.895398 217.901656 
L 92.895398 217.198471 
L 93.656307 217.198471 
L 93.656307 217.56535 
L 94.417216 217.56535 
L 94.417216 217.076178 
L 95.178125 217.076178 
L 95.178125 216.831592 
L 95.939034 216.831592 
L 95.939034 216.372994 
L 97.460852 216.311847 
L 97.460852 216.770446 
L 98.221761 216.770446 
L 98.221761 216.250701 
L 98.98267 216.250701 
L 98.98267 215.272357 
L 99.74358 215.272357 
L 99.74358 214.966624 
L 100.504489 214.966624 
L 100.504489 214.202293 
L 101.265398 214.202293 
L 101.265398 214.599745 
L 102.026307 214.599745 
L 102.026307 213.835414 
L 102.787216 213.835414 
L 102.787216 213.162803 
L 103.548125 213.162803 
L 103.548125 213.04051 
L 104.309034 213.04051 
L 104.309034 211.848153 
L 105.069943 211.848153 
L 105.069943 211.358981 
L 105.830852 211.358981 
L 105.830852 209.524586 
L 106.591761 209.524586 
L 106.591761 207.048153 
L 107.35267 207.048153 
L 107.35267 207.262166 
L 108.11358 207.262166 
L 108.11358 206.283822 
L 108.874489 206.283822 
L 108.874489 202.981911 
L 109.635398 202.981911 
L 109.635398 203.990828 
L 110.396307 203.990828 
L 110.396307 198.54879 
L 111.157216 198.54879 
L 111.157216 198.762803 
L 111.918125 198.762803 
L 111.918125 195.246879 
L 112.679034 195.246879 
L 112.679034 193.167898 
L 113.439943 193.167898 
L 113.439943 187.511847 
L 114.200852 187.511847 
L 114.200852 185.28 
L 114.961761 185.28 
L 114.961761 183.170446 
L 115.72267 183.170446 
L 115.72267 179.593376 
L 116.48358 179.593376 
L 116.48358 177.575541 
L 117.244489 177.575541 
L 117.244489 172.683822 
L 118.005398 172.683822 
L 118.005398 172.378089 
L 118.766307 172.378089 
L 118.766307 165.865987 
L 120.288125 165.896561 
L 120.288125 157.427771 
L 121.049034 157.427771 
L 121.049034 155.16535 
L 121.809943 155.16535 
L 121.809943 148.316943 
L 122.570852 148.316943 
L 122.570852 146.451975 
L 123.331761 146.451975 
L 123.331761 139.083822 
L 124.09267 139.083822 
L 124.09267 137.28 
L 124.85358 137.28 
L 124.85358 130.676178 
L 125.614489 130.676178 
L 125.614489 125.32586 
L 126.375398 125.32586 
L 126.375398 124.286369 
L 127.136307 124.286369 
L 127.136307 114.961529 
L 127.897216 114.961529 
L 127.897216 110.83414 
L 128.658125 110.83414 
L 128.658125 106.859618 
L 129.419034 106.859618 
L 129.419034 102.732229 
L 130.179943 102.732229 
L 130.179943 98.207389 
L 130.940852 98.207389 
L 130.940852 89.157707 
L 131.701761 89.157707 
L 131.701761 87.231592 
L 132.46267 87.231592 
L 132.46267 80.169172 
L 133.22358 80.169172 
L 133.22358 78.212484 
L 133.984489 78.212484 
L 133.984489 68.826497 
L 134.745398 68.826497 
L 134.745398 65.402293 
L 135.506307 65.402293 
L 135.506307 60.174268 
L 136.267216 60.174268 
L 136.267216 53.815032 
L 137.028125 53.815032 
L 137.028125 49.534777 
L 137.789034 49.534777 
L 137.789034 54.518217 
L 138.549943 54.518217 
L 138.549943 45.713121 
L 139.310852 45.713121 
L 139.310852 45.865987 
L 140.071761 45.865987 
L 140.071761 33.330955 
L 140.83267 33.330955 
L 140.83267 43.664713 
L 141.59358 43.664713 
L 141.59358 45.774268 
L 142.354489 45.774268 
L 142.354489 31.374268 
L 143.115398 31.374268 
L 143.115398 34.706752 
L 143.876307 34.706752 
L 143.876307 38.008662 
L 144.637216 38.008662 
L 144.637216 34.431592 
L 145.398125 34.431592 
L 145.398125 29.32586 
L 146.159034 29.32586 
L 146.159034 36.663439 
L 146.919943 36.663439 
L 146.919943 28.378089 
L 147.680852 28.378089 
L 147.680852 26.085096 
L 148.441761 26.085096 
L 148.441761 35.593376 
L 149.20267 35.593376 
L 149.20267 30.304204 
L 149.96358 30.304204 
L 149.96358 30.976815 
L 150.724489 30.976815 
L 150.724489 23.425223 
L 151.485398 23.425223 
L 151.485398 20.337325 
L 152.246307 20.337325 
L 152.246307 29.478726 
L 153.007216 29.478726 
L 153.007216 35.287643 
L 153.768125 35.287643 
L 153.768125 24.739873 
L 154.529034 24.739873 
L 154.529034 23.883822 
L 155.289943 23.883822 
L 155.289943 26.513121 
L 156.050852 26.513121 
L 156.050852 34.462166 
L 156.811761 34.462166 
L 156.811761 17.830318 
L 157.57267 17.830318 
L 157.57267 26.513121 
L 158.33358 26.513121 
L 158.33358 28.041783 
L 159.094489 28.041783 
L 159.094489 24.189554 
L 159.855398 24.189554 
L 159.855398 22.538599 
L 160.616307 22.538599 
L 160.616307 26.360255 
L 161.377216 26.360255 
L 161.377216 34.370446 
L 162.138125 34.370446 
L 162.138125 39.231592 
L 162.899034 39.231592 
L 162.899034 19.63414 
L 163.659943 19.63414 
L 163.659943 30.701656 
L 164.420852 30.701656 
L 164.420852 33.330955 
L 165.181761 33.330955 
L 165.181761 28.530955 
L 165.94267 28.530955 
L 165.94267 32.199745 
L 166.70358 32.199745 
L 166.70358 45.132229 
L 167.464489 45.132229 
L 167.464489 24.158981 
L 168.225398 24.158981 
L 168.225398 27.583185 
L 168.986307 27.583185 
L 168.986307 34.706752 
L 169.747216 34.706752 
L 169.747216 35.44051 
L 170.508125 35.44051 
L 170.508125 36.235414 
L 171.269034 36.235414 
L 171.269034 46.538599 
L 172.029943 46.538599 
L 172.029943 41.646879 
L 172.790852 41.646879 
L 172.790852 49.351338 
L 173.551761 49.351338 
L 173.551761 45.193376 
L 174.31267 45.193376 
L 174.31267 61.305478 
L 175.07358 61.305478 
L 175.07358 55.313121 
L 175.834489 55.313121 
L 175.834489 49.137325 
L 176.595398 49.137325 
L 176.595398 53.815032 
L 177.356307 53.815032 
L 177.356307 63.934777 
L 178.117216 63.934777 
L 178.117216 51.185732 
L 178.878125 51.185732 
L 178.878125 57.575541 
L 179.639034 57.575541 
L 179.639034 77.539873 
L 180.399943 77.539873 
L 180.399943 59.807389 
L 181.160852 59.807389 
L 181.160852 62.436688 
L 181.921761 62.436688 
L 181.921761 89.952611 
L 182.68267 89.952611 
L 182.68267 66.074904 
L 183.44358 66.074904 
L 183.44358 66.839236 
L 184.204489 66.839236 
L 184.204489 81.972994 
L 184.965398 81.972994 
L 184.965398 72.464713 
L 185.726307 72.464713 
L 185.726307 73.84051 
L 186.487216 73.84051 
L 186.487216 92.184459 
L 187.248125 92.184459 
L 187.248125 80.108025 
L 188.009034 80.108025 
L 188.009034 88.729682 
L 188.769943 88.729682 
L 188.769943 91.54242 
L 189.530852 91.54242 
L 189.530852 89.249427 
L 190.291761 89.249427 
L 190.291761 92.673631 
L 191.05267 92.673631 
L 191.05267 101.448153 
L 191.81358 101.448153 
L 191.81358 88.179363 
L 192.574489 88.179363 
L 192.574489 89.646879 
L 193.335398 89.646879 
L 193.335398 108.846879 
L 194.096307 108.846879 
L 194.096307 98.97172 
L 194.857216 98.97172 
L 194.857216 98.513121 
L 195.618125 98.513121 
L 195.618125 102.029045 
L 196.379034 102.029045 
L 196.379034 104.383185 
L 197.139943 104.383185 
L 197.139943 102.762803 
L 197.900852 102.762803 
L 197.900852 102.212484 
L 198.661761 102.212484 
L 198.661761 111.843057 
L 199.42267 111.843057 
L 199.42267 116.245605 
L 200.18358 116.245605 
L 200.18358 111.476178 
L 200.944489 111.476178 
L 200.944489 111.353885 
L 201.705398 111.353885 
L 201.705398 112.546242 
L 202.466307 112.546242 
L 202.466307 109.580637 
L 203.227216 109.580637 
L 203.227216 110.069809 
L 203.988125 110.069809 
L 203.988125 126.579363 
L 204.749034 126.579363 
L 204.749034 130.095287 
L 205.509943 130.095287 
L 205.509943 117.468535 
L 206.270852 117.468535 
L 206.270852 117.193376 
L 207.031761 117.193376 
L 207.031761 127.863439 
L 207.79267 127.863439 
L 207.79267 125.32586 
L 208.55358 125.32586 
L 208.55358 119.944968 
L 209.314489 119.944968 
L 209.314489 124.10293 
L 210.075398 124.10293 
L 210.075398 128.536051 
L 210.836307 128.536051 
L 210.836307 125.387006 
L 211.597216 125.387006 
L 211.597216 129.025223 
L 212.358125 129.025223 
L 212.358125 135.96535 
L 213.119034 135.96535 
L 213.119034 134.987006 
L 213.879943 134.987006 
L 213.879943 129.972994 
L 214.640852 129.972994 
L 214.640852 136.026497 
L 215.401761 136.026497 
L 215.401761 135.567898 
L 216.16267 135.567898 
L 216.16267 136.851975 
L 216.92358 136.851975 
L 216.92358 139.297834 
L 217.684489 139.297834 
L 217.684489 136.760255 
L 218.445398 136.760255 
L 218.445398 139.175541 
L 219.206307 139.175541 
L 219.206307 132.541146 
L 219.967216 132.541146 
L 219.967216 145.106752 
L 220.728125 145.106752 
L 220.728125 140.367898 
L 221.489034 140.367898 
L 221.489034 141.376815 
L 222.249943 141.376815 
L 222.249943 147.950064 
L 223.010852 147.950064 
L 223.010852 147.308025 
L 223.771761 147.308025 
L 223.771761 141.376815 
L 224.53267 141.376815 
L 224.53267 150.45707 
L 225.29358 150.45707 
L 225.29358 150.885096 
L 226.054489 150.885096 
L 226.054489 143.975541 
L 226.815398 143.975541 
L 226.815398 142.936051 
L 227.576307 142.936051 
L 227.576307 156.510573 
L 228.337216 156.510573 
L 228.337216 148.683822 
L 229.098125 148.683822 
L 229.098125 154.095287 
L 229.859034 154.095287 
L 229.859034 152.566624 
L 230.619943 152.566624 
L 230.619943 148.10293 
L 231.380852 148.10293 
L 231.380852 154.584459 
L 232.141761 154.584459 
L 232.141761 157.458344 
L 232.90267 157.458344 
L 232.90267 155.532229 
L 233.66358 155.532229 
L 233.66358 157.213758 
L 234.424489 157.213758 
L 234.424489 160.179363 
L 235.185398 160.179363 
L 235.185398 161.677452 
L 235.946307 161.677452 
L 235.946307 157.641783 
L 236.707216 157.641783 
L 236.707216 165.04051 
L 237.468125 165.04051 
L 237.468125 152.71949 
L 238.229034 152.71949 
L 238.229034 164.429045 
L 238.989943 164.429045 
L 238.989943 160.301656 
L 239.750852 160.301656 
L 239.750852 161.952611 
L 240.511761 161.952611 
L 240.511761 164.031592 
L 241.27267 164.031592 
L 241.27267 164.795924 
L 242.03358 164.795924 
L 242.03358 159.995924 
L 242.794489 159.995924 
L 242.794489 171.827771 
L 243.555398 171.827771 
L 243.555398 165.743694 
L 244.316307 165.743694 
L 244.316307 169.076178 
L 245.077216 169.076178 
L 245.077216 164.612484 
L 245.838125 164.612484 
L 245.838125 173.815032 
L 246.599034 173.815032 
L 246.599034 165.743694 
L 247.359943 165.743694 
L 247.359943 173.692739 
L 248.120852 173.692739 
L 248.120852 165.651975 
L 248.881761 165.651975 
L 248.881761 179.654522 
L 249.64267 179.654522 
L 249.64267 171.644331 
L 250.40358 171.644331 
L 250.40358 176.566624 
L 251.164489 176.566624 
L 251.164489 176.169172 
L 251.925398 176.169172 
L 251.925398 173.967898 
L 252.686307 173.967898 
L 252.686307 177.697834 
L 253.447216 177.697834 
L 253.447216 177.300382 
L 254.969034 177.361529 
L 254.969034 183.629045 
L 255.729943 183.629045 
L 255.729943 181.213758 
L 256.490852 181.213758 
L 256.490852 184.423949 
L 257.251761 184.423949 
L 257.251761 186.044331 
L 258.01267 186.044331 
L 258.01267 182.528408 
L 258.77358 182.528408 
L 258.77358 189.346242 
L 259.534489 189.346242 
L 259.534489 186.31949 
L 260.295398 186.31949 
L 260.295398 185.18828 
L 261.056307 185.18828 
L 261.056307 188.031592 
L 261.817216 188.031592 
L 261.817216 185.218854 
L 262.578125 185.218854 
L 262.578125 191.088917 
L 263.339034 191.088917 
L 263.339034 191.333503 
L 264.099943 191.333503 
L 264.099943 190.446879 
L 264.860852 190.446879 
L 264.860852 192.678726 
L 265.621761 192.678726 
L 265.621761 191.058344 
L 266.38267 191.058344 
L 266.38267 196.592102 
L 267.14358 196.592102 
L 267.14358 194.665987 
L 267.904489 194.665987 
L 267.904489 196.836688 
L 268.665398 196.836688 
L 268.665398 193.993376 
L 269.426307 193.993376 
L 269.426307 197.753885 
L 270.187216 197.753885 
L 270.187216 197.998471 
L 270.948125 197.998471 
L 270.948125 197.876178 
L 271.709034 197.876178 
L 271.709034 195.155159 
L 272.469943 195.155159 
L 272.469943 198.762803 
L 273.230852 198.762803 
L 273.230852 198.395924 
L 273.991761 198.395924 
L 273.991761 201.850701 
L 274.75267 201.850701 
L 274.75267 199.190828 
L 275.51358 199.190828 
L 275.51358 202.492739 
L 276.274489 202.492739 
L 276.274489 202.21758 
L 277.035398 202.21758 
L 277.035398 202.676178 
L 277.796307 202.676178 
L 277.796307 203.532229 
L 278.557216 203.532229 
L 278.557216 204.174268 
L 279.318125 204.174268 
L 279.318125 202.615032 
L 280.079034 202.615032 
L 280.079034 207.629045 
L 280.839943 207.629045 
L 280.839943 204.143694 
L 281.600852 204.143694 
L 281.600852 206.069809 
L 282.361761 206.069809 
L 282.361761 206.681274 
L 283.12267 206.681274 
L 283.12267 205.641783 
L 283.88358 205.641783 
L 283.88358 207.690191 
L 284.644489 207.690191 
L 284.644489 207.476178 
L 285.405398 207.476178 
L 285.405398 209.035414 
L 286.166307 209.035414 
L 286.166307 208.760255 
L 286.927216 208.760255 
L 286.927216 208.209936 
L 287.688125 208.209936 
L 287.688125 210.655796 
L 288.449034 210.655796 
L 288.449034 209.524586 
L 289.209943 209.524586 
L 289.209943 209.860892 
L 289.970852 209.860892 
L 289.970852 212.153885 
L 290.731761 212.153885 
L 290.731761 211.572994 
L 291.49267 211.572994 
L 291.49267 211.420127 
L 292.25358 211.420127 
L 292.25358 212.398471 
L 293.014489 212.398471 
L 293.014489 211.787006 
L 293.775398 211.787006 
L 293.775398 212.94879 
L 294.536307 212.94879 
L 294.536307 213.651975 
L 295.297216 213.651975 
L 295.297216 213.376815 
L 296.058125 213.376815 
L 296.058125 215.058344 
L 296.819034 215.058344 
L 296.819034 214.049427 
L 297.579943 214.049427 
L 297.579943 214.691465 
L 299.101761 214.660892 
L 299.101761 214.874904 
L 299.86267 214.874904 
L 299.86267 215.975541 
L 300.62358 215.975541 
L 300.62358 215.761529 
L 301.384489 215.761529 
L 301.384489 215.608662 
L 302.145398 215.608662 
L 302.145398 215.914395 
L 302.906307 215.914395 
L 302.906307 216.892739 
L 303.667216 216.892739 
L 303.667216 216.61758 
L 304.428125 216.61758 
L 304.428125 217.65707 
L 305.189034 217.65707 
L 305.189034 217.290191 
L 305.949943 217.290191 
L 305.949943 217.65707 
L 307.471761 217.595924 
L 307.471761 217.962803 
L 308.99358 217.962803 
L 308.99358 218.329682 
L 309.754489 218.329682 
L 309.754489 218.513121 
L 310.515398 218.513121 
L 310.515398 218.635414 
L 312.798125 218.574268 
L 312.798125 218.88 
L 372.909943 218.88 
L 372.909943 218.88 
" clip-path="url(#p717f0de3d6)" style="fill: none; stroke: #ff7f0e; stroke-width: 1.5; stroke-linecap: square"/>
   </g>
   <g id="line2d_18">
    <path d="M 68.546307 218.88 
L 75.394489 218.849427 
L 75.394489 218.757707 
L 76.916307 218.849427 
L 76.916307 218.88 
L 78.438125 218.78828 
L 78.438125 218.574268 
L 79.959943 218.635414 
L 79.959943 218.727134 
L 80.720852 218.727134 
L 80.720852 218.574268 
L 85.286307 218.574268 
L 85.286307 218.360255 
L 86.047216 218.360255 
L 86.047216 218.115669 
L 86.808125 218.115669 
L 86.808125 218.360255 
L 88.329943 218.268535 
L 88.329943 217.809936 
L 89.090852 217.809936 
L 89.090852 217.993376 
L 89.851761 217.993376 
L 89.851761 217.473631 
L 90.61267 217.473631 
L 90.61267 217.871083 
L 92.134489 217.84051 
L 92.134489 217.320764 
L 92.895398 217.320764 
L 92.895398 217.595924 
L 94.417216 217.626497 
L 94.417216 217.290191 
L 95.178125 217.290191 
L 95.178125 216.372994 
L 95.939034 216.372994 
L 95.939034 216.862166 
L 96.699943 216.862166 
L 96.699943 216.281274 
L 98.98267 216.189554 
L 98.98267 215.455796 
L 99.74358 215.455796 
L 99.74358 215.088917 
L 100.504489 215.088917 
L 100.504489 214.294013 
L 102.026307 214.232866 
L 102.026307 214.141146 
L 102.787216 214.141146 
L 102.787216 212.643057 
L 103.548125 212.643057 
L 103.548125 212.520764 
L 104.309034 212.520764 
L 104.309034 212.337325 
L 105.830852 212.367898 
L 105.830852 208.485096 
L 106.591761 208.485096 
L 106.591761 208.301656 
L 107.35267 208.301656 
L 107.35267 206.558981 
L 108.11358 206.558981 
L 108.11358 205.70293 
L 108.874489 205.70293 
L 108.874489 203.960255 
L 109.635398 203.960255 
L 109.635398 201.514395 
L 110.396307 201.514395 
L 110.396307 199.68 
L 111.157216 199.68 
L 111.157216 197.32586 
L 111.918125 197.32586 
L 111.918125 194.727134 
L 112.679034 194.727134 
L 112.679034 192.801019 
L 113.439943 192.801019 
L 113.439943 190.508025 
L 114.200852 190.508025 
L 114.200852 185.402293 
L 114.961761 185.402293 
L 114.961761 183.690191 
L 115.72267 183.690191 
L 115.72267 178.248153 
L 116.48358 178.248153 
L 116.48358 176.046879 
L 117.244489 176.046879 
L 117.244489 174.946242 
L 118.005398 174.946242 
L 118.005398 169.229045 
L 118.766307 169.229045 
L 118.766307 166.660892 
L 119.527216 166.660892 
L 119.527216 165.651975 
L 120.288125 165.651975 
L 120.288125 161.310573 
L 121.049034 161.310573 
L 121.049034 152.597197 
L 121.809943 152.597197 
L 121.809943 149.539873 
L 122.570852 149.539873 
L 122.570852 144.770446 
L 123.331761 144.770446 
L 123.331761 140.918217 
L 124.09267 140.918217 
L 124.09267 132.235414 
L 124.85358 132.235414 
L 124.85358 132.755159 
L 125.614489 132.755159 
L 125.614489 125.478726 
L 126.375398 125.478726 
L 126.375398 121.534777 
L 127.136307 121.534777 
L 127.136307 117.682548 
L 127.897216 117.682548 
L 127.897216 110.436688 
L 128.658125 110.436688 
L 128.658125 106.309299 
L 129.419034 106.309299 
L 129.419034 101.662166 
L 130.179943 101.662166 
L 130.179943 97.56535 
L 130.940852 97.56535 
L 130.940852 91.450701 
L 131.701761 91.450701 
L 131.701761 87.629045 
L 132.46267 87.629045 
L 132.46267 77.845605 
L 133.22358 77.845605 
L 133.22358 78.732229 
L 133.984489 78.732229 
L 133.984489 70.630318 
L 134.745398 70.630318 
L 134.745398 62.008662 
L 135.506307 62.008662 
L 135.506307 58.156433 
L 136.267216 58.156433 
L 136.267216 51.736051 
L 137.028125 51.736051 
L 137.028125 51.216306 
L 137.789034 51.216306 
L 137.789034 49.56535 
L 138.549943 49.56535 
L 138.549943 49.167898 
L 139.310852 49.167898 
L 139.310852 41.463439 
L 140.071761 41.463439 
L 140.071761 44.337325 
L 140.83267 44.337325 
L 140.83267 41.127134 
L 141.59358 41.127134 
L 141.59358 42.50293 
L 142.354489 42.50293 
L 142.354489 34.798471 
L 143.115398 34.798471 
L 143.115398 33.239236 
L 143.876307 33.239236 
L 143.876307 33.392102 
L 144.637216 33.392102 
L 144.637216 35.043057 
L 145.398125 35.043057 
L 145.398125 33.239236 
L 146.159034 33.239236 
L 146.159034 31.58828 
L 146.919943 31.58828 
L 146.919943 31.710573 
L 147.680852 31.710573 
L 147.680852 34.737325 
L 148.441761 34.737325 
L 148.441761 27.91949 
L 149.20267 27.91949 
L 149.20267 31.374268 
L 149.96358 31.374268 
L 149.96358 27.858344 
L 150.724489 27.858344 
L 150.724489 29.662166 
L 151.485398 29.662166 
L 151.485398 24.862166 
L 152.246307 24.862166 
L 152.246307 27.246879 
L 153.007216 27.246879 
L 153.007216 27.766624 
L 153.768125 27.766624 
L 153.768125 29.081274 
L 154.529034 29.081274 
L 154.529034 25.473631 
L 155.289943 25.473631 
L 155.289943 27.399745 
L 156.050852 27.399745 
L 156.050852 25.504204 
L 156.811761 25.504204 
L 156.811761 23.792102 
L 157.57267 23.792102 
L 157.57267 23.364076 
L 158.33358 23.364076 
L 158.33358 28.592102 
L 159.094489 28.592102 
L 159.094489 27.002293 
L 159.855398 27.002293 
L 159.855398 27.185732 
L 160.616307 27.185732 
L 160.616307 26.451975 
L 161.377216 26.451975 
L 161.377216 28.408662 
L 162.138125 28.408662 
L 162.138125 29.753885 
L 162.899034 29.753885 
L 162.899034 27.552611 
L 163.659943 27.552611 
L 163.659943 29.203567 
L 164.420852 29.203567 
L 164.420852 33.636688 
L 165.181761 33.636688 
L 165.181761 37.397197 
L 165.94267 37.397197 
L 165.94267 30.243057 
L 166.70358 30.243057 
L 166.70358 35.073631 
L 167.464489 35.073631 
L 167.464489 37.183185 
L 168.225398 37.183185 
L 168.225398 32.597197 
L 168.986307 32.597197 
L 168.986307 40.14879 
L 169.747216 40.14879 
L 169.747216 37.916943 
L 170.508125 37.916943 
L 170.508125 36.908025 
L 171.269034 36.908025 
L 171.269034 43.083822 
L 172.029943 43.083822 
L 172.029943 38.589554 
L 172.790852 38.589554 
L 172.790852 42.380637 
L 173.551761 42.380637 
L 173.551761 45.285096 
L 174.31267 45.285096 
L 174.31267 51.094013 
L 175.07358 51.094013 
L 175.07358 55.955159 
L 175.834489 55.955159 
L 175.834489 58.584459 
L 176.595398 58.584459 
L 176.595398 59.134777 
L 177.356307 59.134777 
L 177.356307 58.951338 
L 178.117216 58.951338 
L 178.117216 63.170446 
L 178.878125 63.170446 
L 178.878125 59.287643 
L 179.639034 59.287643 
L 179.639034 64.851975 
L 180.399943 64.851975 
L 180.399943 63.934777 
L 181.160852 63.934777 
L 181.160852 72.464713 
L 181.921761 72.464713 
L 181.921761 69.957707 
L 182.68267 69.957707 
L 182.68267 71.027771 
L 183.44358 71.027771 
L 183.44358 74.207389 
L 184.204489 74.207389 
L 184.204489 76.958981 
L 184.965398 76.958981 
L 184.965398 78.762803 
L 185.726307 78.762803 
L 185.726307 76.867261 
L 186.487216 76.867261 
L 186.487216 81.422675 
L 187.248125 81.422675 
L 187.248125 85.855796 
L 188.009034 85.855796 
L 188.009034 85.488917 
L 188.769943 85.488917 
L 188.769943 91.81758 
L 189.530852 91.81758 
L 189.530852 91.450701 
L 190.291761 91.450701 
L 190.291761 94.324586 
L 191.05267 94.324586 
L 191.05267 91.603567 
L 191.81358 91.603567 
L 191.81358 96.953885 
L 192.574489 96.953885 
L 192.574489 95.608662 
L 193.335398 95.608662 
L 193.335398 97.626497 
L 194.096307 97.626497 
L 194.096307 99.613758 
L 194.857216 99.613758 
L 194.857216 102.181911 
L 195.618125 102.181911 
L 195.618125 100.714395 
L 196.379034 100.714395 
L 196.379034 103.77172 
L 197.139943 103.77172 
L 197.139943 101.845605 
L 197.900852 101.845605 
L 197.900852 108.785732 
L 198.661761 108.785732 
L 198.661761 110.895287 
L 199.42267 110.895287 
L 199.42267 106.859618 
L 200.18358 106.859618 
L 200.18358 109.79465 
L 200.944489 109.79465 
L 200.944489 110.956433 
L 201.705398 110.956433 
L 201.705398 114.747516 
L 202.466307 114.747516 
L 202.466307 116.643057 
L 203.227216 116.643057 
L 203.227216 116.276178 
L 203.988125 116.276178 
L 203.988125 119.883822 
L 204.749034 119.883822 
L 204.749034 121.167898 
L 205.509943 121.167898 
L 205.509943 121.809936 
L 206.270852 121.809936 
L 206.270852 121.381911 
L 207.031761 121.381911 
L 207.031761 121.626497 
L 207.79267 121.626497 
L 207.79267 124.225223 
L 208.55358 124.225223 
L 208.55358 120.801019 
L 209.314489 120.801019 
L 209.314489 128.964076 
L 210.075398 128.964076 
L 210.075398 128.566624 
L 211.597216 128.597197 
L 211.597216 129.453248 
L 212.358125 129.453248 
L 212.358125 131.746242 
L 213.119034 131.746242 
L 213.119034 132.38828 
L 213.879943 132.38828 
L 213.879943 133.305478 
L 214.640852 133.305478 
L 214.640852 133.550064 
L 216.16267 133.550064 
L 216.16267 138.136051 
L 216.92358 138.136051 
L 216.92358 134.528408 
L 217.684489 134.528408 
L 217.684489 138.074904 
L 218.445398 138.074904 
L 218.445398 138.227771 
L 219.206307 138.227771 
L 219.206307 138.686369 
L 219.967216 138.686369 
L 219.967216 142.905478 
L 220.728125 142.905478 
L 220.728125 143.21121 
L 222.249943 143.241783 
L 222.249943 142.538599 
L 223.010852 142.538599 
L 223.010852 144.739873 
L 223.771761 144.739873 
L 223.771761 144.862166 
L 224.53267 144.862166 
L 224.53267 146.849427 
L 225.29358 146.849427 
L 225.29358 148.164076 
L 226.054489 148.164076 
L 226.054489 147.705478 
L 226.815398 147.705478 
L 226.815398 147.980637 
L 227.576307 147.980637 
L 227.576307 151.741146 
L 228.337216 151.741146 
L 228.337216 151.037962 
L 229.098125 151.037962 
L 229.098125 153.606115 
L 229.859034 153.606115 
L 229.859034 149.876178 
L 230.619943 149.876178 
L 230.619943 151.832866 
L 231.380852 151.832866 
L 231.380852 153.758981 
L 232.141761 153.758981 
L 232.141761 154.187006 
L 232.90267 154.187006 
L 232.90267 156.602293 
L 233.66358 156.602293 
L 233.66358 160.515669 
L 234.424489 160.515669 
L 234.424489 158.008662 
L 235.185398 158.008662 
L 235.185398 159.598471 
L 235.946307 159.598471 
L 235.946307 159.415032 
L 236.707216 159.415032 
L 236.707216 161.004841 
L 237.468125 161.004841 
L 237.468125 159.170446 
L 238.229034 159.170446 
L 238.229034 161.035414 
L 238.989943 161.035414 
L 238.989943 164.245605 
L 239.750852 164.245605 
L 239.750852 162.686369 
L 240.511761 162.686369 
L 240.511761 164.612484 
L 241.27267 164.612484 
L 241.27267 164.092739 
L 242.03358 164.092739 
L 242.03358 166.599745 
L 242.794489 166.599745 
L 242.794489 166.08 
L 243.555398 166.08 
L 243.555398 166.324586 
L 244.316307 166.324586 
L 244.316307 167.455796 
L 245.077216 167.455796 
L 245.077216 167.333503 
L 245.838125 167.333503 
L 245.838125 167.730955 
L 246.599034 167.730955 
L 246.599034 168.953885 
L 247.359943 168.953885 
L 247.359943 170.88 
L 248.120852 170.88 
L 248.120852 172.378089 
L 248.881761 172.378089 
L 248.881761 171.827771 
L 249.64267 171.827771 
L 249.64267 174.609936 
L 250.40358 174.609936 
L 250.40358 175.160255 
L 251.925398 175.190828 
L 251.925398 175.955159 
L 252.686307 175.955159 
L 252.686307 179.471083 
L 253.447216 179.471083 
L 253.447216 179.195924 
L 254.208125 179.195924 
L 254.208125 180.235414 
L 255.729943 180.235414 
L 255.729943 183.629045 
L 256.490852 183.629045 
L 256.490852 182.344968 
L 257.251761 182.344968 
L 257.251761 183.201019 
L 258.01267 183.201019 
L 258.01267 184.179363 
L 258.77358 184.179363 
L 258.77358 187.236688 
L 259.534489 187.236688 
L 259.534489 184.760255 
L 260.295398 184.760255 
L 260.295398 186.839236 
L 261.056307 186.839236 
L 261.056307 187.572994 
L 261.817216 187.572994 
L 261.817216 189.651975 
L 262.578125 189.651975 
L 262.578125 189.529682 
L 263.339034 189.529682 
L 263.339034 191.272357 
L 264.099943 191.272357 
L 264.099943 189.621401 
L 264.860852 189.621401 
L 264.860852 191.883822 
L 265.621761 191.883822 
L 265.621761 192.801019 
L 266.38267 192.801019 
L 266.38267 193.229045 
L 267.14358 193.229045 
L 267.14358 196.01121 
L 267.904489 196.01121 
L 267.904489 195.705478 
L 269.426307 195.674904 
L 269.426307 194.941146 
L 270.187216 194.941146 
L 270.187216 198.151338 
L 270.948125 198.151338 
L 270.948125 197.081274 
L 272.469943 197.172994 
L 272.469943 198.273631 
L 273.230852 198.273631 
L 273.230852 199.313121 
L 273.991761 199.313121 
L 273.991761 199.465987 
L 274.75267 199.465987 
L 274.75267 201.147516 
L 275.51358 201.147516 
L 275.51358 201.025223 
L 276.274489 201.025223 
L 276.274489 202.767898 
L 277.035398 202.767898 
L 277.035398 203.195924 
L 277.796307 203.195924 
L 277.796307 202.737325 
L 278.557216 202.737325 
L 278.557216 203.34879 
L 279.318125 203.34879 
L 279.318125 204.938599 
L 280.079034 204.938599 
L 280.079034 204.632866 
L 280.839943 204.632866 
L 280.839943 205.855796 
L 281.600852 205.855796 
L 281.600852 206.375541 
L 282.361761 206.375541 
L 282.361761 205.458344 
L 283.12267 205.458344 
L 283.12267 207.078726 
L 283.88358 207.078726 
L 283.88358 207.415032 
L 284.644489 207.415032 
L 284.644489 208.271083 
L 285.405398 208.271083 
L 285.405398 208.087643 
L 286.166307 208.087643 
L 286.166307 207.537325 
L 286.927216 207.537325 
L 286.927216 208.454522 
L 287.688125 208.454522 
L 287.688125 210.166624 
L 288.449034 210.166624 
L 288.449034 210.472357 
L 289.209943 210.472357 
L 289.209943 209.830318 
L 289.970852 209.830318 
L 289.970852 211.267261 
L 290.731761 211.267261 
L 290.731761 211.848153 
L 292.25358 211.878726 
L 292.25358 211.695287 
L 293.014489 211.695287 
L 293.014489 212.276178 
L 293.775398 212.276178 
L 293.775398 212.85707 
L 294.536307 212.85707 
L 294.536307 214.355159 
L 295.297216 214.355159 
L 295.297216 213.315669 
L 296.058125 213.315669 
L 296.058125 214.324586 
L 297.579943 214.385732 
L 297.579943 214.508025 
L 298.340852 214.508025 
L 298.340852 214.966624 
L 299.101761 214.966624 
L 299.101761 215.241783 
L 300.62358 215.30293 
L 300.62358 216.189554 
L 301.384489 216.189554 
L 301.384489 215.425223 
L 302.145398 215.425223 
L 302.145398 216.189554 
L 303.667216 216.281274 
L 303.667216 216.831592 
L 304.428125 216.831592 
L 304.428125 217.595924 
L 305.189034 217.595924 
L 305.189034 217.381911 
L 305.949943 217.381911 
L 305.949943 217.504204 
L 306.710852 217.504204 
L 306.710852 217.809936 
L 308.23267 217.84051 
L 308.23267 218.023949 
L 308.99358 218.023949 
L 308.99358 218.299108 
L 309.754489 218.299108 
L 309.754489 218.513121 
L 311.276307 218.513121 
L 311.276307 218.696561 
L 312.037216 218.696561 
L 312.037216 218.513121 
L 312.798125 218.513121 
L 312.798125 218.88 
L 372.909943 218.88 
L 372.909943 218.88 
" clip-path="url(#p717f0de3d6)" style="fill: none; stroke: #2ca02c; stroke-width: 1.5; stroke-linecap: square"/>
   </g>
   <g id="patch_3">
    <path d="M 53.328125 228.96 
L 53.328125 7.2 
" style="fill: none; stroke: #000000; stroke-width: 0.8; stroke-linejoin: miter; stroke-linecap: square"/>
   </g>
   <g id="patch_4">
    <path d="M 388.128125 228.96 
L 388.128125 7.2 
" style="fill: none; stroke: #000000; stroke-width: 0.8; stroke-linejoin: miter; stroke-linecap: square"/>
   </g>
   <g id="patch_5">
    <path d="M 53.328125 228.96 
L 388.128125 228.96 
" style="fill: none; stroke: #000000; stroke-width: 0.8; stroke-linejoin: miter; stroke-linecap: square"/>
   </g>
   <g id="patch_6">
    <path d="M 53.328125 7.2 
L 388.128125 7.2 
" style="fill: none; stroke: #000000; stroke-width: 0.8; stroke-linejoin: miter; stroke-linecap: square"/>
   </g>
   <g id="legend_1">
    <g id="patch_7">
     <path d="M 306.904688 59.234375 
L 381.128125 59.234375 
Q 383.128125 59.234375 383.128125 57.234375 
L 383.128125 14.2 
Q 383.128125 12.2 381.128125 12.2 
L 306.904688 12.2 
Q 304.904688 12.2 304.904688 14.2 
L 304.904688 57.234375 
Q 304.904688 59.234375 306.904688 59.234375 
z
" style="fill: #ffffff; opacity: 0.8; stroke: #cccccc; stroke-linejoin: miter"/>
    </g>
    <g id="line2d_19">
     <path d="M 308.904688 20.298438 
L 308.904688 20.298438 
L 318.904688 20.298438 
L 318.904688 20.298438 
L 328.904688 20.298438 
" style="fill: none; stroke: #1f77b4; stroke-width: 1.5; stroke-linecap: square"/>
    </g>
    <g id="text_18">
     <!-- monitor -->
     <g transform="translate(336.904688 23.798438) scale(0.1 -0.1)">
      <defs>
       <path id="DejaVuSans-6d" d="M 3328 2828 
Q 3544 3216 3844 3400 
Q 4144 3584 4550 3584 
Q 5097 3584 5394 3201 
Q 5691 2819 5691 2113 
L 5691 0 
L 5113 0 
L 5113 2094 
Q 5113 2597 4934 2840 
Q 4756 3084 4391 3084 
Q 3944 3084 3684 2787 
Q 3425 2491 3425 1978 
L 3425 0 
L 2847 0 
L 2847 2094 
Q 2847 2600 2669 2842 
Q 2491 3084 2119 3084 
Q 1678 3084 1418 2786 
Q 1159 2488 1159 1978 
L 1159 0 
L 581 0 
L 581 3500 
L 1159 3500 
L 1159 2956 
Q 1356 3278 1631 3431 
Q 1906 3584 2284 3584 
Q 2666 3584 2933 3390 
Q 3200 3197 3328 2828 
z
" transform="scale(0.015625)"/>
       <path id="DejaVuSans-69" d="M 603 3500 
L 1178 3500 
L 1178 0 
L 603 0 
L 603 3500 
z
M 603 4863 
L 1178 4863 
L 1178 4134 
L 603 4134 
L 603 4863 
z
" transform="scale(0.015625)"/>
       <path id="DejaVuSans-72" d="M 2631 2963 
Q 2534 3019 2420 3045 
Q 2306 3072 2169 3072 
Q 1681 3072 1420 2755 
Q 1159 2438 1159 1844 
L 1159 0 
L 581 0 
L 581 3500 
L 1159 3500 
L 1159 2956 
Q 1341 3275 1631 3429 
Q 1922 3584 2338 3584 
Q 2397 3584 2469 3576 
Q 2541 3569 2628 3553 
L 2631 2963 
z
" transform="scale(0.015625)"/>
      </defs>
      <use xlink:href="#DejaVuSans-6d"/>
      <use xlink:href="#DejaVuSans-6f" transform="translate(97.412109 0)"/>
      <use xlink:href="#DejaVuSans-6e" transform="translate(158.59375 0)"/>
      <use xlink:href="#DejaVuSans-69" transform="translate(221.972656 0)"/>
      <use xlink:href="#DejaVuSans-74" transform="translate(249.755859 0)"/>
      <use xlink:href="#DejaVuSans-6f" transform="translate(288.964844 0)"/>
      <use xlink:href="#DejaVuSans-72" transform="translate(350.146484 0)"/>
     </g>
    </g>
    <g id="line2d_20">
     <path d="M 308.904688 34.976562 
L 308.904688 34.976562 
L 318.904688 34.976562 
L 318.904688 34.976562 
L 328.904688 34.976562 
" style="fill: none; stroke: #ff7f0e; stroke-width: 1.5; stroke-linecap: square"/>
    </g>
    <g id="text_19">
     <!-- detector -->
     <g transform="translate(336.904688 38.476562) scale(0.1 -0.1)">
      <defs>
       <path id="DejaVuSans-64" d="M 2906 2969 
L 2906 4863 
L 3481 4863 
L 3481 0 
L 2906 0 
L 2906 525 
Q 2725 213 2448 61 
Q 2172 -91 1784 -91 
Q 1150 -91 751 415 
Q 353 922 353 1747 
Q 353 2572 751 3078 
Q 1150 3584 1784 3584 
Q 2172 3584 2448 3432 
Q 2725 3281 2906 2969 
z
M 947 1747 
Q 947 1113 1208 752 
Q 1469 391 1925 391 
Q 2381 391 2643 752 
Q 2906 1113 2906 1747 
Q 2906 2381 2643 2742 
Q 2381 3103 1925 3103 
Q 1469 3103 1208 2742 
Q 947 2381 947 1747 
z
" transform="scale(0.015625)"/>
      </defs>
      <use xlink:href="#DejaVuSans-64"/>
      <use xlink:href="#DejaVuSans-65" transform="translate(63.476562 0)"/>
      <use xlink:href="#DejaVuSans-74" transform="translate(125 0)"/>
      <use xlink:href="#DejaVuSans-65" transform="translate(164.208984 0)"/>
      <use xlink:href="#DejaVuSans-63" transform="translate(225.732422 0)"/>
      <use xlink:href="#DejaVuSans-74" transform="translate(280.712891 0)"/>
      <use xlink:href="#DejaVuSans-6f" transform="translate(319.921875 0)"/>
      <use xlink:href="#DejaVuSans-72" transform="translate(381.103516 0)"/>
     </g>
    </g>
    <g id="line2d_21">
     <path d="M 308.904688 49.654688 
L 308.904688 49.654688 
L 318.904688 49.654688 
L 318.904688 49.654688 
L 328.904688 49.654688 
" style="fill: none; stroke: #2ca02c; stroke-width: 1.5; stroke-linecap: square"/>
    </g>
    <g id="text_20">
     <!-- true -->
     <g transform="translate(336.904688 53.154688) scale(0.1 -0.1)">
      <use xlink:href="#DejaVuSans-74"/>
      <use xlink:href="#DejaVuSans-72" transform="translate(39.208984 0)"/>
      <use xlink:href="#DejaVuSans-75" transform="translate(80.322266 0)"/>
      <use xlink:href="#DejaVuSans-65" transform="translate(143.701172 0)"/>
     </g>
    </g>
   </g>
  </g>
 </g>
 <defs>
  <clipPath id="p717f0de3d6">
   <rect x="53.328125" y="7.2" width="334.8" height="221.76"/>
  </clipPath>
 </defs>
</svg>
