<?xml version="1.0" encoding="utf-8" standalone="no"?>
<!DOCTYPE svg PUBLIC "-//W3C//DTD SVG 1.1//EN"
  "http://www.w3.org/Graphics/SVG/1.1/DTD/svg11.dtd">
<svg xmlns:xlink="http://www.w3.org/1999/xlink" width="388.965625pt" height="266.794375pt" viewBox="0 0 388.965625 266.794375" xmlns="http://www.w3.org/2000/svg" version="1.1">
 <metadata>
  <rdf:RDF xmlns:dc="http://purl.org/dc/elements/1.1/" xmlns:cc="http://creativecommons.org/ns#" xmlns:rdf="http://www.w3.org/1999/02/22-rdf-syntax-ns#">
   <cc:Work>
    <dc:type rdf:resource="http://purl.org/dc/dcmitype/StillImage"/>
    <dc:date>2025-01-30T11:58:07.576990</dc:date>
    <dc:format>image/svg+xml</dc:format>
    <dc:creator>
     <cc:Agent>
      <dc:title>Matplotlib v3.10.0, https://matplotlib.org/</dc:title>
     </cc:Agent>
    </dc:creator>
   </cc:Work>
  </rdf:RDF>
 </metadata>
 <defs>
  <style type="text/css">*{stroke-linejoin: round; stroke-linecap: butt}</style>
 </defs>
 <g id="figure_1">
  <g id="patch_1">
   <path d="M 0 266.794375 
L 388.965625 266.794375 
L 388.965625 0 
L 0 0 
z
" style="fill: #ffffff"/>
  </g>
  <g id="axes_1">
   <g id="patch_2">
    <path d="M 46.965625 228.96 
L 381.765625 228.96 
L 381.765625 7.2 
L 46.965625 7.2 
z
" style="fill: #ffffff"/>
   </g>
   <g id="matplotlib.axis_1">
    <g id="xtick_1">
     <g id="line2d_1">
      <defs>
       <path id="md9d988a530" d="M 0 0 
L 0 3.5 
" style="stroke: #000000; stroke-width: 0.8"/>
      </defs>
      <g>
       <use xlink:href="#md9d988a530" x="82.060516" y="228.96" style="stroke: #000000; stroke-width: 0.8"/>
      </g>
     </g>
     <g id="text_1">
      <!-- 150000 -->
      <g transform="translate(62.973016 243.558437) scale(0.1 -0.1)">
       <defs>
        <path id="DejaVuSans-31" d="M 794 531 
L 1825 531 
L 1825 4091 
L 703 3866 
L 703 4441 
L 1819 4666 
L 2450 4666 
L 2450 531 
L 3481 531 
L 3481 0 
L 794 0 
L 794 531 
z
" transform="scale(0.015625)"/>
        <path id="DejaVuSans-35" d="M 691 4666 
L 3169 4666 
L 3169 4134 
L 1269 4134 
L 1269 2991 
Q 1406 3038 1543 3061 
Q 1681 3084 1819 3084 
Q 2600 3084 3056 2656 
Q 3513 2228 3513 1497 
Q 3513 744 3044 326 
Q 2575 -91 1722 -91 
Q 1428 -91 1123 -41 
Q 819 9 494 109 
L 494 744 
Q 775 591 1075 516 
Q 1375 441 1709 441 
Q 2250 441 2565 725 
Q 2881 1009 2881 1497 
Q 2881 1984 2565 2268 
Q 2250 2553 1709 2553 
Q 1456 2553 1204 2497 
Q 953 2441 691 2322 
L 691 4666 
z
" transform="scale(0.015625)"/>
        <path id="DejaVuSans-30" d="M 2034 4250 
Q 1547 4250 1301 3770 
Q 1056 3291 1056 2328 
Q 1056 1369 1301 889 
Q 1547 409 2034 409 
Q 2525 409 2770 889 
Q 3016 1369 3016 2328 
Q 3016 3291 2770 3770 
Q 2525 4250 2034 4250 
z
M 2034 4750 
Q 2819 4750 3233 4129 
Q 3647 3509 3647 2328 
Q 3647 1150 3233 529 
Q 2819 -91 2034 -91 
Q 1250 -91 836 529 
Q 422 1150 422 2328 
Q 422 3509 836 4129 
Q 1250 4750 2034 4750 
z
" transform="scale(0.015625)"/>
       </defs>
       <use xlink:href="#DejaVuSans-31"/>
       <use xlink:href="#DejaVuSans-35" transform="translate(63.623047 0)"/>
       <use xlink:href="#DejaVuSans-30" transform="translate(127.246094 0)"/>
       <use xlink:href="#DejaVuSans-30" transform="translate(190.869141 0)"/>
       <use xlink:href="#DejaVuSans-30" transform="translate(254.492188 0)"/>
       <use xlink:href="#DejaVuSans-30" transform="translate(318.115234 0)"/>
      </g>
     </g>
    </g>
    <g id="xtick_2">
     <g id="line2d_2">
      <g>
       <use xlink:href="#md9d988a530" x="128.09989" y="228.96" style="stroke: #000000; stroke-width: 0.8"/>
      </g>
     </g>
     <g id="text_2">
      <!-- 200000 -->
      <g transform="translate(109.01239 243.558437) scale(0.1 -0.1)">
       <defs>
        <path id="DejaVuSans-32" d="M 1228 531 
L 3431 531 
L 3431 0 
L 469 0 
L 469 531 
Q 828 903 1448 1529 
Q 2069 2156 2228 2338 
Q 2531 2678 2651 2914 
Q 2772 3150 2772 3378 
Q 2772 3750 2511 3984 
Q 2250 4219 1831 4219 
Q 1534 4219 1204 4116 
Q 875 4013 500 3803 
L 500 4441 
Q 881 4594 1212 4672 
Q 1544 4750 1819 4750 
Q 2544 4750 2975 4387 
Q 3406 4025 3406 3419 
Q 3406 3131 3298 2873 
Q 3191 2616 2906 2266 
Q 2828 2175 2409 1742 
Q 1991 1309 1228 531 
z
" transform="scale(0.015625)"/>
       </defs>
       <use xlink:href="#DejaVuSans-32"/>
       <use xlink:href="#DejaVuSans-30" transform="translate(63.623047 0)"/>
       <use xlink:href="#DejaVuSans-30" transform="translate(127.246094 0)"/>
       <use xlink:href="#DejaVuSans-30" transform="translate(190.869141 0)"/>
       <use xlink:href="#DejaVuSans-30" transform="translate(254.492188 0)"/>
       <use xlink:href="#DejaVuSans-30" transform="translate(318.115234 0)"/>
      </g>
     </g>
    </g>
    <g id="xtick_3">
     <g id="line2d_3">
      <g>
       <use xlink:href="#md9d988a530" x="174.139265" y="228.96" style="stroke: #000000; stroke-width: 0.8"/>
      </g>
     </g>
     <g id="text_3">
      <!-- 250000 -->
      <g transform="translate(155.051765 243.558437) scale(0.1 -0.1)">
       <use xlink:href="#DejaVuSans-32"/>
       <use xlink:href="#DejaVuSans-35" transform="translate(63.623047 0)"/>
       <use xlink:href="#DejaVuSans-30" transform="translate(127.246094 0)"/>
       <use xlink:href="#DejaVuSans-30" transform="translate(190.869141 0)"/>
       <use xlink:href="#DejaVuSans-30" transform="translate(254.492188 0)"/>
       <use xlink:href="#DejaVuSans-30" transform="translate(318.115234 0)"/>
      </g>
     </g>
    </g>
    <g id="xtick_4">
     <g id="line2d_4">
      <g>
       <use xlink:href="#md9d988a530" x="220.17864" y="228.96" style="stroke: #000000; stroke-width: 0.8"/>
      </g>
     </g>
     <g id="text_4">
      <!-- 300000 -->
      <g transform="translate(201.09114 243.558437) scale(0.1 -0.1)">
       <defs>
        <path id="DejaVuSans-33" d="M 2597 2516 
Q 3050 2419 3304 2112 
Q 3559 1806 3559 1356 
Q 3559 666 3084 287 
Q 2609 -91 1734 -91 
Q 1441 -91 1130 -33 
Q 819 25 488 141 
L 488 750 
Q 750 597 1062 519 
Q 1375 441 1716 441 
Q 2309 441 2620 675 
Q 2931 909 2931 1356 
Q 2931 1769 2642 2001 
Q 2353 2234 1838 2234 
L 1294 2234 
L 1294 2753 
L 1863 2753 
Q 2328 2753 2575 2939 
Q 2822 3125 2822 3475 
Q 2822 3834 2567 4026 
Q 2313 4219 1838 4219 
Q 1578 4219 1281 4162 
Q 984 4106 628 3988 
L 628 4550 
Q 988 4650 1302 4700 
Q 1616 4750 1894 4750 
Q 2613 4750 3031 4423 
Q 3450 4097 3450 3541 
Q 3450 3153 3228 2886 
Q 3006 2619 2597 2516 
z
" transform="scale(0.015625)"/>
       </defs>
       <use xlink:href="#DejaVuSans-33"/>
       <use xlink:href="#DejaVuSans-30" transform="translate(63.623047 0)"/>
       <use xlink:href="#DejaVuSans-30" transform="translate(127.246094 0)"/>
       <use xlink:href="#DejaVuSans-30" transform="translate(190.869141 0)"/>
       <use xlink:href="#DejaVuSans-30" transform="translate(254.492188 0)"/>
       <use xlink:href="#DejaVuSans-30" transform="translate(318.115234 0)"/>
      </g>
     </g>
    </g>
    <g id="xtick_5">
     <g id="line2d_5">
      <g>
       <use xlink:href="#md9d988a530" x="266.218014" y="228.96" style="stroke: #000000; stroke-width: 0.8"/>
      </g>
     </g>
     <g id="text_5">
      <!-- 350000 -->
      <g transform="translate(247.130514 243.558437) scale(0.1 -0.1)">
       <use xlink:href="#DejaVuSans-33"/>
       <use xlink:href="#DejaVuSans-35" transform="translate(63.623047 0)"/>
       <use xlink:href="#DejaVuSans-30" transform="translate(127.246094 0)"/>
       <use xlink:href="#DejaVuSans-30" transform="translate(190.869141 0)"/>
       <use xlink:href="#DejaVuSans-30" transform="translate(254.492188 0)"/>
       <use xlink:href="#DejaVuSans-30" transform="translate(318.115234 0)"/>
      </g>
     </g>
    </g>
    <g id="xtick_6">
     <g id="line2d_6">
      <g>
       <use xlink:href="#md9d988a530" x="312.257389" y="228.96" style="stroke: #000000; stroke-width: 0.8"/>
      </g>
     </g>
     <g id="text_6">
      <!-- 400000 -->
      <g transform="translate(293.169889 243.558437) scale(0.1 -0.1)">
       <defs>
        <path id="DejaVuSans-34" d="M 2419 4116 
L 825 1625 
L 2419 1625 
L 2419 4116 
z
M 2253 4666 
L 3047 4666 
L 3047 1625 
L 3713 1625 
L 3713 1100 
L 3047 1100 
L 3047 0 
L 2419 0 
L 2419 1100 
L 313 1100 
L 313 1709 
L 2253 4666 
z
" transform="scale(0.015625)"/>
       </defs>
       <use xlink:href="#DejaVuSans-34"/>
       <use xlink:href="#DejaVuSans-30" transform="translate(63.623047 0)"/>
       <use xlink:href="#DejaVuSans-30" transform="translate(127.246094 0)"/>
       <use xlink:href="#DejaVuSans-30" transform="translate(190.869141 0)"/>
       <use xlink:href="#DejaVuSans-30" transform="translate(254.492188 0)"/>
       <use xlink:href="#DejaVuSans-30" transform="translate(318.115234 0)"/>
      </g>
     </g>
    </g>
    <g id="xtick_7">
     <g id="line2d_7">
      <g>
       <use xlink:href="#md9d988a530" x="358.296764" y="228.96" style="stroke: #000000; stroke-width: 0.8"/>
      </g>
     </g>
     <g id="text_7">
      <!-- 450000 -->
      <g transform="translate(339.209264 243.558437) scale(0.1 -0.1)">
       <use xlink:href="#DejaVuSans-34"/>
       <use xlink:href="#DejaVuSans-35" transform="translate(63.623047 0)"/>
       <use xlink:href="#DejaVuSans-30" transform="translate(127.246094 0)"/>
       <use xlink:href="#DejaVuSans-30" transform="translate(190.869141 0)"/>
       <use xlink:href="#DejaVuSans-30" transform="translate(254.492188 0)"/>
       <use xlink:href="#DejaVuSans-30" transform="translate(318.115234 0)"/>
      </g>
     </g>
    </g>
    <g id="text_8">
     <!-- time_of_arrival [µs] -->
     <g transform="translate(166.084375 257.236562) scale(0.1 -0.1)">
      <defs>
       <path id="DejaVuSans-74" d="M 1172 4494 
L 1172 3500 
L 2356 3500 
L 2356 3053 
L 1172 3053 
L 1172 1153 
Q 1172 725 1289 603 
Q 1406 481 1766 481 
L 2356 481 
L 2356 0 
L 1766 0 
Q 1100 0 847 248 
Q 594 497 594 1153 
L 594 3053 
L 172 3053 
L 172 3500 
L 594 3500 
L 594 4494 
L 1172 4494 
z
" transform="scale(0.015625)"/>
       <path id="DejaVuSans-69" d="M 603 3500 
L 1178 3500 
L 1178 0 
L 603 0 
L 603 3500 
z
M 603 4863 
L 1178 4863 
L 1178 4134 
L 603 4134 
L 603 4863 
z
" transform="scale(0.015625)"/>
       <path id="DejaVuSans-6d" d="M 3328 2828 
Q 3544 3216 3844 3400 
Q 4144 3584 4550 3584 
Q 5097 3584 5394 3201 
Q 5691 2819 5691 2113 
L 5691 0 
L 5113 0 
L 5113 2094 
Q 5113 2597 4934 2840 
Q 4756 3084 4391 3084 
Q 3944 3084 3684 2787 
Q 3425 2491 3425 1978 
L 3425 0 
L 2847 0 
L 2847 2094 
Q 2847 2600 2669 2842 
Q 2491 3084 2119 3084 
Q 1678 3084 1418 2786 
Q 1159 2488 1159 1978 
L 1159 0 
L 581 0 
L 581 3500 
L 1159 3500 
L 1159 2956 
Q 1356 3278 1631 3431 
Q 1906 3584 2284 3584 
Q 2666 3584 2933 3390 
Q 3200 3197 3328 2828 
z
" transform="scale(0.015625)"/>
       <path id="DejaVuSans-65" d="M 3597 1894 
L 3597 1613 
L 953 1613 
Q 991 1019 1311 708 
Q 1631 397 2203 397 
Q 2534 397 2845 478 
Q 3156 559 3463 722 
L 3463 178 
Q 3153 47 2828 -22 
Q 2503 -91 2169 -91 
Q 1331 -91 842 396 
Q 353 884 353 1716 
Q 353 2575 817 3079 
Q 1281 3584 2069 3584 
Q 2775 3584 3186 3129 
Q 3597 2675 3597 1894 
z
M 3022 2063 
Q 3016 2534 2758 2815 
Q 2500 3097 2075 3097 
Q 1594 3097 1305 2825 
Q 1016 2553 972 2059 
L 3022 2063 
z
" transform="scale(0.015625)"/>
       <path id="DejaVuSans-5f" d="M 3263 -1063 
L 3263 -1509 
L -63 -1509 
L -63 -1063 
L 3263 -1063 
z
" transform="scale(0.015625)"/>
       <path id="DejaVuSans-6f" d="M 1959 3097 
Q 1497 3097 1228 2736 
Q 959 2375 959 1747 
Q 959 1119 1226 758 
Q 1494 397 1959 397 
Q 2419 397 2687 759 
Q 2956 1122 2956 1747 
Q 2956 2369 2687 2733 
Q 2419 3097 1959 3097 
z
M 1959 3584 
Q 2709 3584 3137 3096 
Q 3566 2609 3566 1747 
Q 3566 888 3137 398 
Q 2709 -91 1959 -91 
Q 1206 -91 779 398 
Q 353 888 353 1747 
Q 353 2609 779 3096 
Q 1206 3584 1959 3584 
z
" transform="scale(0.015625)"/>
       <path id="DejaVuSans-66" d="M 2375 4863 
L 2375 4384 
L 1825 4384 
Q 1516 4384 1395 4259 
Q 1275 4134 1275 3809 
L 1275 3500 
L 2222 3500 
L 2222 3053 
L 1275 3053 
L 1275 0 
L 697 0 
L 697 3053 
L 147 3053 
L 147 3500 
L 697 3500 
L 697 3744 
Q 697 4328 969 4595 
Q 1241 4863 1831 4863 
L 2375 4863 
z
" transform="scale(0.015625)"/>
       <path id="DejaVuSans-61" d="M 2194 1759 
Q 1497 1759 1228 1600 
Q 959 1441 959 1056 
Q 959 750 1161 570 
Q 1363 391 1709 391 
Q 2188 391 2477 730 
Q 2766 1069 2766 1631 
L 2766 1759 
L 2194 1759 
z
M 3341 1997 
L 3341 0 
L 2766 0 
L 2766 531 
Q 2569 213 2275 61 
Q 1981 -91 1556 -91 
Q 1019 -91 701 211 
Q 384 513 384 1019 
Q 384 1609 779 1909 
Q 1175 2209 1959 2209 
L 2766 2209 
L 2766 2266 
Q 2766 2663 2505 2880 
Q 2244 3097 1772 3097 
Q 1472 3097 1187 3025 
Q 903 2953 641 2809 
L 641 3341 
Q 956 3463 1253 3523 
Q 1550 3584 1831 3584 
Q 2591 3584 2966 3190 
Q 3341 2797 3341 1997 
z
" transform="scale(0.015625)"/>
       <path id="DejaVuSans-72" d="M 2631 2963 
Q 2534 3019 2420 3045 
Q 2306 3072 2169 3072 
Q 1681 3072 1420 2755 
Q 1159 2438 1159 1844 
L 1159 0 
L 581 0 
L 581 3500 
L 1159 3500 
L 1159 2956 
Q 1341 3275 1631 3429 
Q 1922 3584 2338 3584 
Q 2397 3584 2469 3576 
Q 2541 3569 2628 3553 
L 2631 2963 
z
" transform="scale(0.015625)"/>
       <path id="DejaVuSans-76" d="M 191 3500 
L 800 3500 
L 1894 563 
L 2988 3500 
L 3597 3500 
L 2284 0 
L 1503 0 
L 191 3500 
z
" transform="scale(0.015625)"/>
       <path id="DejaVuSans-6c" d="M 603 4863 
L 1178 4863 
L 1178 0 
L 603 0 
L 603 4863 
z
" transform="scale(0.015625)"/>
       <path id="DejaVuSans-20" transform="scale(0.015625)"/>
       <path id="DejaVuSans-5b" d="M 550 4863 
L 1875 4863 
L 1875 4416 
L 1125 4416 
L 1125 -397 
L 1875 -397 
L 1875 -844 
L 550 -844 
L 550 4863 
z
" transform="scale(0.015625)"/>
       <path id="DejaVuSans-b5" d="M 544 -1331 
L 544 3500 
L 1119 3500 
L 1119 1325 
Q 1119 872 1334 640 
Q 1550 409 1972 409 
Q 2434 409 2667 671 
Q 2900 934 2900 1459 
L 2900 3500 
L 3475 3500 
L 3475 806 
Q 3475 619 3529 530 
Q 3584 441 3700 441 
Q 3728 441 3778 458 
Q 3828 475 3916 513 
L 3916 50 
Q 3788 -22 3673 -56 
Q 3559 -91 3450 -91 
Q 3234 -91 3106 31 
Q 2978 153 2931 403 
Q 2775 156 2548 32 
Q 2322 -91 2016 -91 
Q 1697 -91 1473 31 
Q 1250 153 1119 397 
L 1119 -1331 
L 544 -1331 
z
" transform="scale(0.015625)"/>
       <path id="DejaVuSans-73" d="M 2834 3397 
L 2834 2853 
Q 2591 2978 2328 3040 
Q 2066 3103 1784 3103 
Q 1356 3103 1142 2972 
Q 928 2841 928 2578 
Q 928 2378 1081 2264 
Q 1234 2150 1697 2047 
L 1894 2003 
Q 2506 1872 2764 1633 
Q 3022 1394 3022 966 
Q 3022 478 2636 193 
Q 2250 -91 1575 -91 
Q 1294 -91 989 -36 
Q 684 19 347 128 
L 347 722 
Q 666 556 975 473 
Q 1284 391 1588 391 
Q 1994 391 2212 530 
Q 2431 669 2431 922 
Q 2431 1156 2273 1281 
Q 2116 1406 1581 1522 
L 1381 1569 
Q 847 1681 609 1914 
Q 372 2147 372 2553 
Q 372 3047 722 3315 
Q 1072 3584 1716 3584 
Q 2034 3584 2315 3537 
Q 2597 3491 2834 3397 
z
" transform="scale(0.015625)"/>
       <path id="DejaVuSans-5d" d="M 1947 4863 
L 1947 -844 
L 622 -844 
L 622 -397 
L 1369 -397 
L 1369 4416 
L 622 4416 
L 622 4863 
L 1947 4863 
z
" transform="scale(0.015625)"/>
      </defs>
      <use xlink:href="#DejaVuSans-74"/>
      <use xlink:href="#DejaVuSans-69" transform="translate(39.208984 0)"/>
      <use xlink:href="#DejaVuSans-6d" transform="translate(66.992188 0)"/>
      <use xlink:href="#DejaVuSans-65" transform="translate(164.404297 0)"/>
      <use xlink:href="#DejaVuSans-5f" transform="translate(225.927734 0)"/>
      <use xlink:href="#DejaVuSans-6f" transform="translate(275.927734 0)"/>
      <use xlink:href="#DejaVuSans-66" transform="translate(337.109375 0)"/>
      <use xlink:href="#DejaVuSans-5f" transform="translate(372.314453 0)"/>
      <use xlink:href="#DejaVuSans-61" transform="translate(422.314453 0)"/>
      <use xlink:href="#DejaVuSans-72" transform="translate(483.59375 0)"/>
      <use xlink:href="#DejaVuSans-72" transform="translate(522.957031 0)"/>
      <use xlink:href="#DejaVuSans-69" transform="translate(564.070312 0)"/>
      <use xlink:href="#DejaVuSans-76" transform="translate(591.853516 0)"/>
      <use xlink:href="#DejaVuSans-61" transform="translate(651.033203 0)"/>
      <use xlink:href="#DejaVuSans-6c" transform="translate(712.3125 0)"/>
      <use xlink:href="#DejaVuSans-20" transform="translate(740.095703 0)"/>
      <use xlink:href="#DejaVuSans-5b" transform="translate(771.882812 0)"/>
      <use xlink:href="#DejaVuSans-b5" transform="translate(810.896484 0)"/>
      <use xlink:href="#DejaVuSans-73" transform="translate(874.519531 0)"/>
      <use xlink:href="#DejaVuSans-5d" transform="translate(926.619141 0)"/>
     </g>
    </g>
   </g>
   <g id="matplotlib.axis_2">
    <g id="ytick_1">
     <g id="line2d_8">
      <defs>
       <path id="mb222f1df2c" d="M 0 0 
L -3.5 0 
" style="stroke: #000000; stroke-width: 0.8"/>
      </defs>
      <g>
       <use xlink:href="#mb222f1df2c" x="46.965625" y="218.88" style="stroke: #000000; stroke-width: 0.8"/>
      </g>
     </g>
     <g id="text_9">
      <!-- 0 -->
      <g transform="translate(33.603125 222.679219) scale(0.1 -0.1)">
       <use xlink:href="#DejaVuSans-30"/>
      </g>
     </g>
    </g>
    <g id="ytick_2">
     <g id="line2d_9">
      <g>
       <use xlink:href="#mb222f1df2c" x="46.965625" y="190.565393" style="stroke: #000000; stroke-width: 0.8"/>
      </g>
     </g>
     <g id="text_10">
      <!-- 25 -->
      <g transform="translate(27.240625 194.364612) scale(0.1 -0.1)">
       <use xlink:href="#DejaVuSans-32"/>
       <use xlink:href="#DejaVuSans-35" transform="translate(63.623047 0)"/>
      </g>
     </g>
    </g>
    <g id="ytick_3">
     <g id="line2d_10">
      <g>
       <use xlink:href="#mb222f1df2c" x="46.965625" y="162.250787" style="stroke: #000000; stroke-width: 0.8"/>
      </g>
     </g>
     <g id="text_11">
      <!-- 50 -->
      <g transform="translate(27.240625 166.050005) scale(0.1 -0.1)">
       <use xlink:href="#DejaVuSans-35"/>
       <use xlink:href="#DejaVuSans-30" transform="translate(63.623047 0)"/>
      </g>
     </g>
    </g>
    <g id="ytick_4">
     <g id="line2d_11">
      <g>
       <use xlink:href="#mb222f1df2c" x="46.965625" y="133.93618" style="stroke: #000000; stroke-width: 0.8"/>
      </g>
     </g>
     <g id="text_12">
      <!-- 75 -->
      <g transform="translate(27.240625 137.735399) scale(0.1 -0.1)">
       <defs>
        <path id="DejaVuSans-37" d="M 525 4666 
L 3525 4666 
L 3525 4397 
L 1831 0 
L 1172 0 
L 2766 4134 
L 525 4134 
L 525 4666 
z
" transform="scale(0.015625)"/>
       </defs>
       <use xlink:href="#DejaVuSans-37"/>
       <use xlink:href="#DejaVuSans-35" transform="translate(63.623047 0)"/>
      </g>
     </g>
    </g>
    <g id="ytick_5">
     <g id="line2d_12">
      <g>
       <use xlink:href="#mb222f1df2c" x="46.965625" y="105.621573" style="stroke: #000000; stroke-width: 0.8"/>
      </g>
     </g>
     <g id="text_13">
      <!-- 100 -->
      <g transform="translate(20.878125 109.420792) scale(0.1 -0.1)">
       <use xlink:href="#DejaVuSans-31"/>
       <use xlink:href="#DejaVuSans-30" transform="translate(63.623047 0)"/>
       <use xlink:href="#DejaVuSans-30" transform="translate(127.246094 0)"/>
      </g>
     </g>
    </g>
    <g id="ytick_6">
     <g id="line2d_13">
      <g>
       <use xlink:href="#mb222f1df2c" x="46.965625" y="77.306966" style="stroke: #000000; stroke-width: 0.8"/>
      </g>
     </g>
     <g id="text_14">
      <!-- 125 -->
      <g transform="translate(20.878125 81.106185) scale(0.1 -0.1)">
       <use xlink:href="#DejaVuSans-31"/>
       <use xlink:href="#DejaVuSans-32" transform="translate(63.623047 0)"/>
       <use xlink:href="#DejaVuSans-35" transform="translate(127.246094 0)"/>
      </g>
     </g>
    </g>
    <g id="ytick_7">
     <g id="line2d_14">
      <g>
       <use xlink:href="#mb222f1df2c" x="46.965625" y="48.99236" style="stroke: #000000; stroke-width: 0.8"/>
      </g>
     </g>
     <g id="text_15">
      <!-- 150 -->
      <g transform="translate(20.878125 52.791578) scale(0.1 -0.1)">
       <use xlink:href="#DejaVuSans-31"/>
       <use xlink:href="#DejaVuSans-35" transform="translate(63.623047 0)"/>
       <use xlink:href="#DejaVuSans-30" transform="translate(127.246094 0)"/>
      </g>
     </g>
    </g>
    <g id="ytick_8">
     <g id="line2d_15">
      <g>
       <use xlink:href="#mb222f1df2c" x="46.965625" y="20.677753" style="stroke: #000000; stroke-width: 0.8"/>
      </g>
     </g>
     <g id="text_16">
      <!-- 175 -->
      <g transform="translate(20.878125 24.476972) scale(0.1 -0.1)">
       <use xlink:href="#DejaVuSans-31"/>
       <use xlink:href="#DejaVuSans-37" transform="translate(63.623047 0)"/>
       <use xlink:href="#DejaVuSans-35" transform="translate(127.246094 0)"/>
      </g>
     </g>
    </g>
    <g id="text_17">
     <!-- [counts] -->
     <g transform="translate(14.798438 138.6925) rotate(-90) scale(0.1 -0.1)">
      <defs>
       <path id="DejaVuSans-63" d="M 3122 3366 
L 3122 2828 
Q 2878 2963 2633 3030 
Q 2388 3097 2138 3097 
Q 1578 3097 1268 2742 
Q 959 2388 959 1747 
Q 959 1106 1268 751 
Q 1578 397 2138 397 
Q 2388 397 2633 464 
Q 2878 531 3122 666 
L 3122 134 
Q 2881 22 2623 -34 
Q 2366 -91 2075 -91 
Q 1284 -91 818 406 
Q 353 903 353 1747 
Q 353 2603 823 3093 
Q 1294 3584 2113 3584 
Q 2378 3584 2631 3529 
Q 2884 3475 3122 3366 
z
" transform="scale(0.015625)"/>
       <path id="DejaVuSans-75" d="M 544 1381 
L 544 3500 
L 1119 3500 
L 1119 1403 
Q 1119 906 1312 657 
Q 1506 409 1894 409 
Q 2359 409 2629 706 
Q 2900 1003 2900 1516 
L 2900 3500 
L 3475 3500 
L 3475 0 
L 2900 0 
L 2900 538 
Q 2691 219 2414 64 
Q 2138 -91 1772 -91 
Q 1169 -91 856 284 
Q 544 659 544 1381 
z
M 1991 3584 
L 1991 3584 
z
" transform="scale(0.015625)"/>
       <path id="DejaVuSans-6e" d="M 3513 2113 
L 3513 0 
L 2938 0 
L 2938 2094 
Q 2938 2591 2744 2837 
Q 2550 3084 2163 3084 
Q 1697 3084 1428 2787 
Q 1159 2491 1159 1978 
L 1159 0 
L 581 0 
L 581 3500 
L 1159 3500 
L 1159 2956 
Q 1366 3272 1645 3428 
Q 1925 3584 2291 3584 
Q 2894 3584 3203 3211 
Q 3513 2838 3513 2113 
z
" transform="scale(0.015625)"/>
      </defs>
      <use xlink:href="#DejaVuSans-5b"/>
      <use xlink:href="#DejaVuSans-63" transform="translate(39.013672 0)"/>
      <use xlink:href="#DejaVuSans-6f" transform="translate(93.994141 0)"/>
      <use xlink:href="#DejaVuSans-75" transform="translate(155.175781 0)"/>
      <use xlink:href="#DejaVuSans-6e" transform="translate(218.554688 0)"/>
      <use xlink:href="#DejaVuSans-74" transform="translate(281.933594 0)"/>
      <use xlink:href="#DejaVuSans-73" transform="translate(321.142578 0)"/>
      <use xlink:href="#DejaVuSans-5d" transform="translate(373.242188 0)"/>
     </g>
    </g>
   </g>
   <g id="patch_3">
    <path d="M 46.965625 228.96 
L 46.965625 7.2 
" style="fill: none; stroke: #000000; stroke-width: 0.8; stroke-linejoin: miter; stroke-linecap: square"/>
   </g>
   <g id="patch_4">
    <path d="M 381.765625 228.96 
L 381.765625 7.2 
" style="fill: none; stroke: #000000; stroke-width: 0.8; stroke-linejoin: miter; stroke-linecap: square"/>
   </g>
   <g id="patch_5">
    <path d="M 46.965625 228.96 
L 381.765625 228.96 
" style="fill: none; stroke: #000000; stroke-width: 0.8; stroke-linejoin: miter; stroke-linecap: square"/>
   </g>
   <g id="patch_6">
    <path d="M 46.965625 7.2 
L 381.765625 7.2 
" style="fill: none; stroke: #000000; stroke-width: 0.8; stroke-linejoin: miter; stroke-linecap: square"/>
   </g>
   <g id="line2d_16">
    <path d="M 62.183807 217.747416 
L 63.198352 217.747416 
L 63.198352 218.88 
L 65.227443 218.88 
L 65.227443 215.482247 
L 67.256534 215.482247 
L 67.256534 208.686742 
L 68.27108 208.686742 
L 68.27108 216.614831 
L 69.285625 216.614831 
L 69.285625 208.686742 
L 70.30017 208.686742 
L 70.30017 200.758652 
L 71.314716 200.758652 
L 71.314716 189.432809 
L 72.329261 189.432809 
L 72.329261 180.372135 
L 73.343807 180.372135 
L 73.343807 158.853034 
L 74.358352 158.853034 
L 74.358352 130.538427 
L 75.372898 130.538427 
L 75.372898 145.262022 
L 76.387443 145.262022 
L 76.387443 68.246292 
L 77.401989 68.246292 
L 77.401989 41.06427 
L 78.416534 41.06427 
L 78.416534 50.124944 
L 79.43108 50.124944 
L 79.43108 26.340674 
L 80.445625 26.340674 
L 80.445625 32.003596 
L 81.46017 32.003596 
L 81.46017 17.28 
L 82.474716 17.28 
L 82.474716 53.522697 
L 83.489261 53.522697 
L 83.489261 68.246292 
L 84.503807 68.246292 
L 84.503807 43.329438 
L 85.518352 43.329438 
L 85.518352 46.727191 
L 87.547443 46.727191 
L 87.547443 59.185618 
L 88.561989 59.185618 
L 88.561989 58.053034 
L 89.576534 58.053034 
L 89.576534 81.837303 
L 90.59108 81.837303 
L 90.59108 104.488989 
L 91.605625 104.488989 
L 91.605625 94.29573 
L 92.62017 94.29573 
L 92.62017 103.356404 
L 93.634716 103.356404 
L 93.634716 96.560899 
L 94.649261 96.560899 
L 94.649261 92.030562 
L 95.663807 92.030562 
L 95.663807 107.886742 
L 96.678352 107.886742 
L 96.678352 139.599101 
L 97.692898 139.599101 
L 97.692898 118.08 
L 98.707443 118.08 
L 98.707443 163.383371 
L 99.721989 163.383371 
L 99.721989 180.372135 
L 100.736534 180.372135 
L 100.736534 193.963146 
L 101.75108 193.963146 
L 101.75108 204.156404 
L 102.765625 204.156404 
L 102.765625 216.614831 
L 103.78017 216.614831 
L 103.78017 217.747416 
L 104.794716 217.747416 
L 104.794716 218.88 
L 125.085625 218.88 
L 125.085625 217.747416 
L 126.10017 217.747416 
L 126.10017 218.88 
L 127.114716 218.88 
L 127.114716 217.747416 
L 129.143807 217.747416 
L 129.143807 214.349663 
L 130.158352 214.349663 
L 130.158352 217.747416 
L 132.187443 217.747416 
L 132.187443 214.349663 
L 133.201989 214.349663 
L 133.201989 216.614831 
L 134.216534 216.614831 
L 134.216534 210.95191 
L 136.245625 210.95191 
L 136.245625 192.830562 
L 137.26017 192.830562 
L 137.26017 200.758652 
L 138.274716 200.758652 
L 138.274716 178.106966 
L 139.289261 178.106966 
L 139.289261 171.311461 
L 140.303807 171.311461 
L 140.303807 120.345169 
L 141.318352 120.345169 
L 141.318352 114.682247 
L 142.332898 114.682247 
L 142.332898 80.704719 
L 143.347443 80.704719 
L 143.347443 48.99236 
L 144.361989 48.99236 
L 144.361989 59.185618 
L 145.376534 59.185618 
L 145.376534 33.13618 
L 146.39108 33.13618 
L 146.39108 51.257528 
L 147.405625 51.257528 
L 147.405625 46.727191 
L 148.42017 46.727191 
L 148.42017 41.06427 
L 149.434716 41.06427 
L 149.434716 63.715955 
L 150.449261 63.715955 
L 150.449261 55.787865 
L 151.463807 55.787865 
L 151.463807 47.859775 
L 152.478352 47.859775 
L 152.478352 58.053034 
L 153.492898 58.053034 
L 153.492898 70.511461 
L 154.507443 70.511461 
L 154.507443 62.583371 
L 155.521989 62.583371 
L 155.521989 88.632809 
L 156.536534 88.632809 
L 156.536534 84.102472 
L 157.55108 84.102472 
L 157.55108 94.29573 
L 159.58017 94.29573 
L 159.58017 87.500225 
L 160.594716 87.500225 
L 160.594716 109.019326 
L 161.609261 109.019326 
L 161.609261 130.538427 
L 162.623807 130.538427 
L 162.623807 131.671011 
L 163.638352 131.671011 
L 163.638352 157.720449 
L 164.652898 157.720449 
L 164.652898 153.190112 
L 165.667443 153.190112 
L 165.667443 191.697978 
L 166.681989 191.697978 
L 166.681989 187.16764 
L 167.696534 187.16764 
L 167.696534 206.421573 
L 168.71108 206.421573 
L 168.71108 214.349663 
L 169.725625 214.349663 
L 169.725625 218.88 
L 191.03108 218.88 
L 191.03108 217.747416 
L 192.045625 217.747416 
L 192.045625 216.614831 
L 193.06017 216.614831 
L 193.06017 218.88 
L 194.074716 218.88 
L 194.074716 214.349663 
L 195.089261 214.349663 
L 195.089261 216.614831 
L 196.103807 216.614831 
L 196.103807 215.482247 
L 197.118352 215.482247 
L 197.118352 216.614831 
L 198.132898 216.614831 
L 198.132898 213.217079 
L 199.147443 213.217079 
L 199.147443 208.686742 
L 201.176534 208.686742 
L 201.176534 207.554157 
L 202.19108 207.554157 
L 202.19108 198.493483 
L 203.205625 198.493483 
L 203.205625 181.504719 
L 204.22017 181.504719 
L 204.22017 189.432809 
L 205.234716 189.432809 
L 205.234716 164.515955 
L 206.249261 164.515955 
L 206.249261 129.405843 
L 207.263807 129.405843 
L 207.263807 95.428315 
L 208.278352 95.428315 
L 208.278352 72.776629 
L 209.292898 72.776629 
L 209.292898 42.196854 
L 210.307443 42.196854 
L 210.307443 39.931685 
L 212.336534 39.931685 
L 212.336534 35.401348 
L 213.35108 35.401348 
L 213.35108 45.594607 
L 214.365625 45.594607 
L 214.365625 48.99236 
L 215.38017 48.99236 
L 215.38017 46.727191 
L 216.394716 46.727191 
L 216.394716 43.329438 
L 217.409261 43.329438 
L 217.409261 51.257528 
L 218.423807 51.257528 
L 218.423807 67.113708 
L 219.438352 67.113708 
L 219.438352 56.920449 
L 220.452898 56.920449 
L 220.452898 55.787865 
L 221.467443 55.787865 
L 221.467443 77.306966 
L 222.481989 77.306966 
L 222.481989 75.041798 
L 223.496534 75.041798 
L 223.496534 111.284494 
L 224.51108 111.284494 
L 224.51108 76.174382 
L 225.525625 76.174382 
L 225.525625 93.163146 
L 226.54017 93.163146 
L 226.54017 119.212584 
L 227.554716 119.212584 
L 227.554716 118.08 
L 228.569261 118.08 
L 228.569261 131.671011 
L 229.583807 131.671011 
L 229.583807 142.996854 
L 230.598352 142.996854 
L 230.598352 161.118202 
L 231.612898 161.118202 
L 231.612898 182.637303 
L 232.627443 182.637303 
L 232.627443 195.09573 
L 233.641989 195.09573 
L 233.641989 209.819326 
L 234.656534 209.819326 
L 234.656534 214.349663 
L 235.67108 214.349663 
L 235.67108 217.747416 
L 236.685625 217.747416 
L 236.685625 218.88 
L 257.99108 218.88 
L 257.99108 217.747416 
L 261.034716 217.747416 
L 261.034716 216.614831 
L 262.049261 216.614831 
L 262.049261 217.747416 
L 263.063807 217.747416 
L 263.063807 215.482247 
L 265.092898 215.482247 
L 265.092898 210.95191 
L 266.107443 210.95191 
L 266.107443 215.482247 
L 267.121989 215.482247 
L 267.121989 201.891236 
L 268.136534 201.891236 
L 268.136534 200.758652 
L 269.15108 200.758652 
L 269.15108 192.830562 
L 270.165625 192.830562 
L 270.165625 181.504719 
L 271.18017 181.504719 
L 271.18017 152.057528 
L 272.194716 152.057528 
L 272.194716 111.284494 
L 273.209261 111.284494 
L 273.209261 114.682247 
L 274.223807 114.682247 
L 274.223807 67.113708 
L 275.238352 67.113708 
L 275.238352 58.053034 
L 276.252898 58.053034 
L 276.252898 30.871011 
L 277.267443 30.871011 
L 277.267443 19.545169 
L 278.281989 19.545169 
L 278.281989 53.522697 
L 279.296534 53.522697 
L 279.296534 19.545169 
L 280.31108 19.545169 
L 280.31108 26.340674 
L 281.325625 26.340674 
L 281.325625 50.124944 
L 282.34017 50.124944 
L 282.34017 61.450787 
L 283.354716 61.450787 
L 283.354716 48.99236 
L 284.369261 48.99236 
L 284.369261 68.246292 
L 285.383807 68.246292 
L 285.383807 88.632809 
L 286.398352 88.632809 
L 286.398352 87.500225 
L 287.412898 87.500225 
L 287.412898 69.378876 
L 288.427443 69.378876 
L 288.427443 79.572135 
L 289.441989 79.572135 
L 289.441989 92.030562 
L 290.456534 92.030562 
L 290.456534 86.36764 
L 291.47108 86.36764 
L 291.47108 113.549663 
L 292.485625 113.549663 
L 292.485625 121.477753 
L 293.50017 121.477753 
L 293.50017 128.273258 
L 294.514716 128.273258 
L 294.514716 133.93618 
L 295.529261 133.93618 
L 295.529261 144.129438 
L 296.543807 144.129438 
L 296.543807 149.79236 
L 297.558352 149.79236 
L 297.558352 186.035056 
L 298.572898 186.035056 
L 298.572898 203.02382 
L 299.587443 203.02382 
L 299.587443 212.084494 
L 300.601989 212.084494 
L 300.601989 217.747416 
L 301.616534 217.747416 
L 301.616534 218.88 
L 322.921989 218.88 
L 322.921989 217.747416 
L 324.95108 217.747416 
L 324.95108 218.88 
L 325.965625 218.88 
L 325.965625 217.747416 
L 326.98017 217.747416 
L 326.98017 216.614831 
L 327.994716 216.614831 
L 327.994716 213.217079 
L 329.009261 213.217079 
L 329.009261 215.482247 
L 330.023807 215.482247 
L 330.023807 216.614831 
L 331.038352 216.614831 
L 331.038352 212.084494 
L 332.052898 212.084494 
L 332.052898 210.95191 
L 333.067443 210.95191 
L 333.067443 205.288989 
L 334.081989 205.288989 
L 334.081989 182.637303 
L 336.11108 182.637303 
L 336.11108 171.311461 
L 337.125625 171.311461 
L 337.125625 146.394607 
L 338.14017 146.394607 
L 338.14017 137.333933 
L 339.154716 137.333933 
L 339.154716 103.356404 
L 340.169261 103.356404 
L 340.169261 59.185618 
L 341.183807 59.185618 
L 341.183807 32.003596 
L 342.198352 32.003596 
L 342.198352 22.942921 
L 343.212898 22.942921 
L 343.212898 33.13618 
L 344.227443 33.13618 
L 344.227443 34.268764 
L 345.241989 34.268764 
L 345.241989 19.545169 
L 346.256534 19.545169 
L 346.256534 65.981124 
L 347.27108 65.981124 
L 347.27108 63.715955 
L 348.285625 63.715955 
L 348.285625 46.727191 
L 349.30017 46.727191 
L 349.30017 60.318202 
L 350.314716 60.318202 
L 350.314716 59.185618 
L 351.329261 59.185618 
L 351.329261 62.583371 
L 352.343807 62.583371 
L 352.343807 68.246292 
L 353.358352 68.246292 
L 353.358352 87.500225 
L 354.372898 87.500225 
L 354.372898 79.572135 
L 355.387443 79.572135 
L 355.387443 99.958652 
L 356.401989 99.958652 
L 356.401989 96.560899 
L 357.416534 96.560899 
L 357.416534 88.632809 
L 358.43108 88.632809 
L 358.43108 120.345169 
L 359.445625 120.345169 
L 359.445625 138.466517 
L 360.46017 138.466517 
L 360.46017 144.129438 
L 362.489261 144.129438 
L 362.489261 164.515955 
L 363.503807 164.515955 
L 363.503807 180.372135 
L 364.518352 180.372135 
L 364.518352 206.421573 
L 366.547443 206.421573 
L 366.547443 206.421573 
" clip-path="url(#p28784ff977)" style="fill: none; stroke: #1f77b4; stroke-width: 1.5; stroke-linecap: square"/>
   </g>
  </g>
 </g>
 <defs>
  <clipPath id="p28784ff977">
   <rect x="46.965625" y="7.2" width="334.8" height="221.76"/>
  </clipPath>
 </defs>
</svg>
