<?xml version="1.0" encoding="utf-8" standalone="no"?>
<!DOCTYPE svg PUBLIC "-//W3C//DTD SVG 1.1//EN"
  "http://www.w3.org/Graphics/SVG/1.1/DTD/svg11.dtd">
<svg xmlns:xlink="http://www.w3.org/1999/xlink" width="872.39952pt" height="296.39952pt" viewBox="0 0 872.39952 296.39952" xmlns="http://www.w3.org/2000/svg" version="1.1">
 <metadata>
  <rdf:RDF xmlns:dc="http://purl.org/dc/elements/1.1/" xmlns:cc="http://creativecommons.org/ns#" xmlns:rdf="http://www.w3.org/1999/02/22-rdf-syntax-ns#">
   <cc:Work>
    <dc:type rdf:resource="http://purl.org/dc/dcmitype/StillImage"/>
    <dc:date>2025-05-22T08:31:36.042809</dc:date>
    <dc:format>image/svg+xml</dc:format>
    <dc:creator>
     <cc:Agent>
      <dc:title>Matplotlib v3.10.3, https://matplotlib.org/</dc:title>
     </cc:Agent>
    </dc:creator>
   </cc:Work>
  </rdf:RDF>
 </metadata>
 <defs>
  <style type="text/css">*{stroke-linejoin: round; stroke-linecap: butt}</style>
 </defs>
 <g id="figure_1">
  <g id="patch_1">
   <path d="M 0 296.39952 
L 872.39952 296.39952 
L 872.39952 0 
L 0 0 
z
" style="fill: #ffffff"/>
  </g>
  <g id="axes_1">
   <g id="patch_2">
    <path d="M 53.328125 257.158895 
L 431.87976 257.158895 
L 431.87976 7.2 
L 53.328125 7.2 
z
" style="fill: #ffffff"/>
   </g>
   <g id="matplotlib.axis_1">
    <g id="xtick_1">
     <g id="line2d_1">
      <defs>
       <path id="m1545e04b16" d="M 0 0 
L 0 3.5 
" style="stroke: #000000; stroke-width: 0.8"/>
      </defs>
      <g>
       <use xlink:href="#m1545e04b16" x="69.663338" y="257.158895" style="stroke: #000000; stroke-width: 0.8"/>
      </g>
     </g>
     <g id="text_1">
      <!-- 0 -->
      <g transform="translate(66.482088 271.757332) scale(0.1 -0.1)">
       <defs>
        <path id="DejaVuSans-30" d="M 2034 4250 
Q 1547 4250 1301 3770 
Q 1056 3291 1056 2328 
Q 1056 1369 1301 889 
Q 1547 409 2034 409 
Q 2525 409 2770 889 
Q 3016 1369 3016 2328 
Q 3016 3291 2770 3770 
Q 2525 4250 2034 4250 
z
M 2034 4750 
Q 2819 4750 3233 4129 
Q 3647 3509 3647 2328 
Q 3647 1150 3233 529 
Q 2819 -91 2034 -91 
Q 1250 -91 836 529 
Q 422 1150 422 2328 
Q 422 3509 836 4129 
Q 1250 4750 2034 4750 
z
" transform="scale(0.015625)"/>
       </defs>
       <use xlink:href="#DejaVuSans-30"/>
      </g>
     </g>
    </g>
    <g id="xtick_2">
     <g id="line2d_2">
      <g>
       <use xlink:href="#m1545e04b16" x="138.889896" y="257.158895" style="stroke: #000000; stroke-width: 0.8"/>
      </g>
     </g>
     <g id="text_2">
      <!-- 1000 -->
      <g transform="translate(126.164896 271.757332) scale(0.1 -0.1)">
       <defs>
        <path id="DejaVuSans-31" d="M 794 531 
L 1825 531 
L 1825 4091 
L 703 3866 
L 703 4441 
L 1819 4666 
L 2450 4666 
L 2450 531 
L 3481 531 
L 3481 0 
L 794 0 
L 794 531 
z
" transform="scale(0.015625)"/>
       </defs>
       <use xlink:href="#DejaVuSans-31"/>
       <use xlink:href="#DejaVuSans-30" transform="translate(63.623047 0)"/>
       <use xlink:href="#DejaVuSans-30" transform="translate(127.246094 0)"/>
       <use xlink:href="#DejaVuSans-30" transform="translate(190.869141 0)"/>
      </g>
     </g>
    </g>
    <g id="xtick_3">
     <g id="line2d_3">
      <g>
       <use xlink:href="#m1545e04b16" x="208.116455" y="257.158895" style="stroke: #000000; stroke-width: 0.8"/>
      </g>
     </g>
     <g id="text_3">
      <!-- 2000 -->
      <g transform="translate(195.391455 271.757332) scale(0.1 -0.1)">
       <defs>
        <path id="DejaVuSans-32" d="M 1228 531 
L 3431 531 
L 3431 0 
L 469 0 
L 469 531 
Q 828 903 1448 1529 
Q 2069 2156 2228 2338 
Q 2531 2678 2651 2914 
Q 2772 3150 2772 3378 
Q 2772 3750 2511 3984 
Q 2250 4219 1831 4219 
Q 1534 4219 1204 4116 
Q 875 4013 500 3803 
L 500 4441 
Q 881 4594 1212 4672 
Q 1544 4750 1819 4750 
Q 2544 4750 2975 4387 
Q 3406 4025 3406 3419 
Q 3406 3131 3298 2873 
Q 3191 2616 2906 2266 
Q 2828 2175 2409 1742 
Q 1991 1309 1228 531 
z
" transform="scale(0.015625)"/>
       </defs>
       <use xlink:href="#DejaVuSans-32"/>
       <use xlink:href="#DejaVuSans-30" transform="translate(63.623047 0)"/>
       <use xlink:href="#DejaVuSans-30" transform="translate(127.246094 0)"/>
       <use xlink:href="#DejaVuSans-30" transform="translate(190.869141 0)"/>
      </g>
     </g>
    </g>
    <g id="xtick_4">
     <g id="line2d_4">
      <g>
       <use xlink:href="#m1545e04b16" x="277.343014" y="257.158895" style="stroke: #000000; stroke-width: 0.8"/>
      </g>
     </g>
     <g id="text_4">
      <!-- 3000 -->
      <g transform="translate(264.618014 271.757332) scale(0.1 -0.1)">
       <defs>
        <path id="DejaVuSans-33" d="M 2597 2516 
Q 3050 2419 3304 2112 
Q 3559 1806 3559 1356 
Q 3559 666 3084 287 
Q 2609 -91 1734 -91 
Q 1441 -91 1130 -33 
Q 819 25 488 141 
L 488 750 
Q 750 597 1062 519 
Q 1375 441 1716 441 
Q 2309 441 2620 675 
Q 2931 909 2931 1356 
Q 2931 1769 2642 2001 
Q 2353 2234 1838 2234 
L 1294 2234 
L 1294 2753 
L 1863 2753 
Q 2328 2753 2575 2939 
Q 2822 3125 2822 3475 
Q 2822 3834 2567 4026 
Q 2313 4219 1838 4219 
Q 1578 4219 1281 4162 
Q 984 4106 628 3988 
L 628 4550 
Q 988 4650 1302 4700 
Q 1616 4750 1894 4750 
Q 2613 4750 3031 4423 
Q 3450 4097 3450 3541 
Q 3450 3153 3228 2886 
Q 3006 2619 2597 2516 
z
" transform="scale(0.015625)"/>
       </defs>
       <use xlink:href="#DejaVuSans-33"/>
       <use xlink:href="#DejaVuSans-30" transform="translate(63.623047 0)"/>
       <use xlink:href="#DejaVuSans-30" transform="translate(127.246094 0)"/>
       <use xlink:href="#DejaVuSans-30" transform="translate(190.869141 0)"/>
      </g>
     </g>
    </g>
    <g id="xtick_5">
     <g id="line2d_5">
      <g>
       <use xlink:href="#m1545e04b16" x="346.569573" y="257.158895" style="stroke: #000000; stroke-width: 0.8"/>
      </g>
     </g>
     <g id="text_5">
      <!-- 4000 -->
      <g transform="translate(333.844573 271.757332) scale(0.1 -0.1)">
       <defs>
        <path id="DejaVuSans-34" d="M 2419 4116 
L 825 1625 
L 2419 1625 
L 2419 4116 
z
M 2253 4666 
L 3047 4666 
L 3047 1625 
L 3713 1625 
L 3713 1100 
L 3047 1100 
L 3047 0 
L 2419 0 
L 2419 1100 
L 313 1100 
L 313 1709 
L 2253 4666 
z
" transform="scale(0.015625)"/>
       </defs>
       <use xlink:href="#DejaVuSans-34"/>
       <use xlink:href="#DejaVuSans-30" transform="translate(63.623047 0)"/>
       <use xlink:href="#DejaVuSans-30" transform="translate(127.246094 0)"/>
       <use xlink:href="#DejaVuSans-30" transform="translate(190.869141 0)"/>
      </g>
     </g>
    </g>
    <g id="xtick_6">
     <g id="line2d_6">
      <g>
       <use xlink:href="#m1545e04b16" x="415.796132" y="257.158895" style="stroke: #000000; stroke-width: 0.8"/>
      </g>
     </g>
     <g id="text_6">
      <!-- 5000 -->
      <g transform="translate(403.071132 271.757332) scale(0.1 -0.1)">
       <defs>
        <path id="DejaVuSans-35" d="M 691 4666 
L 3169 4666 
L 3169 4134 
L 1269 4134 
L 1269 2991 
Q 1406 3038 1543 3061 
Q 1681 3084 1819 3084 
Q 2600 3084 3056 2656 
Q 3513 2228 3513 1497 
Q 3513 744 3044 326 
Q 2575 -91 1722 -91 
Q 1428 -91 1123 -41 
Q 819 9 494 109 
L 494 744 
Q 775 591 1075 516 
Q 1375 441 1709 441 
Q 2250 441 2565 725 
Q 2881 1009 2881 1497 
Q 2881 1984 2565 2268 
Q 2250 2553 1709 2553 
Q 1456 2553 1204 2497 
Q 953 2441 691 2322 
L 691 4666 
z
" transform="scale(0.015625)"/>
       </defs>
       <use xlink:href="#DejaVuSans-35"/>
       <use xlink:href="#DejaVuSans-30" transform="translate(63.623047 0)"/>
       <use xlink:href="#DejaVuSans-30" transform="translate(127.246094 0)"/>
       <use xlink:href="#DejaVuSans-30" transform="translate(190.869141 0)"/>
      </g>
     </g>
    </g>
    <g id="text_7">
     <!-- birth_time [µs] -->
     <g transform="translate(205.78363 285.435457) scale(0.1 -0.1)">
      <defs>
       <path id="DejaVuSans-62" d="M 3116 1747 
Q 3116 2381 2855 2742 
Q 2594 3103 2138 3103 
Q 1681 3103 1420 2742 
Q 1159 2381 1159 1747 
Q 1159 1113 1420 752 
Q 1681 391 2138 391 
Q 2594 391 2855 752 
Q 3116 1113 3116 1747 
z
M 1159 2969 
Q 1341 3281 1617 3432 
Q 1894 3584 2278 3584 
Q 2916 3584 3314 3078 
Q 3713 2572 3713 1747 
Q 3713 922 3314 415 
Q 2916 -91 2278 -91 
Q 1894 -91 1617 61 
Q 1341 213 1159 525 
L 1159 0 
L 581 0 
L 581 4863 
L 1159 4863 
L 1159 2969 
z
" transform="scale(0.015625)"/>
       <path id="DejaVuSans-69" d="M 603 3500 
L 1178 3500 
L 1178 0 
L 603 0 
L 603 3500 
z
M 603 4863 
L 1178 4863 
L 1178 4134 
L 603 4134 
L 603 4863 
z
" transform="scale(0.015625)"/>
       <path id="DejaVuSans-72" d="M 2631 2963 
Q 2534 3019 2420 3045 
Q 2306 3072 2169 3072 
Q 1681 3072 1420 2755 
Q 1159 2438 1159 1844 
L 1159 0 
L 581 0 
L 581 3500 
L 1159 3500 
L 1159 2956 
Q 1341 3275 1631 3429 
Q 1922 3584 2338 3584 
Q 2397 3584 2469 3576 
Q 2541 3569 2628 3553 
L 2631 2963 
z
" transform="scale(0.015625)"/>
       <path id="DejaVuSans-74" d="M 1172 4494 
L 1172 3500 
L 2356 3500 
L 2356 3053 
L 1172 3053 
L 1172 1153 
Q 1172 725 1289 603 
Q 1406 481 1766 481 
L 2356 481 
L 2356 0 
L 1766 0 
Q 1100 0 847 248 
Q 594 497 594 1153 
L 594 3053 
L 172 3053 
L 172 3500 
L 594 3500 
L 594 4494 
L 1172 4494 
z
" transform="scale(0.015625)"/>
       <path id="DejaVuSans-68" d="M 3513 2113 
L 3513 0 
L 2938 0 
L 2938 2094 
Q 2938 2591 2744 2837 
Q 2550 3084 2163 3084 
Q 1697 3084 1428 2787 
Q 1159 2491 1159 1978 
L 1159 0 
L 581 0 
L 581 4863 
L 1159 4863 
L 1159 2956 
Q 1366 3272 1645 3428 
Q 1925 3584 2291 3584 
Q 2894 3584 3203 3211 
Q 3513 2838 3513 2113 
z
" transform="scale(0.015625)"/>
       <path id="DejaVuSans-5f" d="M 3263 -1063 
L 3263 -1509 
L -63 -1509 
L -63 -1063 
L 3263 -1063 
z
" transform="scale(0.015625)"/>
       <path id="DejaVuSans-6d" d="M 3328 2828 
Q 3544 3216 3844 3400 
Q 4144 3584 4550 3584 
Q 5097 3584 5394 3201 
Q 5691 2819 5691 2113 
L 5691 0 
L 5113 0 
L 5113 2094 
Q 5113 2597 4934 2840 
Q 4756 3084 4391 3084 
Q 3944 3084 3684 2787 
Q 3425 2491 3425 1978 
L 3425 0 
L 2847 0 
L 2847 2094 
Q 2847 2600 2669 2842 
Q 2491 3084 2119 3084 
Q 1678 3084 1418 2786 
Q 1159 2488 1159 1978 
L 1159 0 
L 581 0 
L 581 3500 
L 1159 3500 
L 1159 2956 
Q 1356 3278 1631 3431 
Q 1906 3584 2284 3584 
Q 2666 3584 2933 3390 
Q 3200 3197 3328 2828 
z
" transform="scale(0.015625)"/>
       <path id="DejaVuSans-65" d="M 3597 1894 
L 3597 1613 
L 953 1613 
Q 991 1019 1311 708 
Q 1631 397 2203 397 
Q 2534 397 2845 478 
Q 3156 559 3463 722 
L 3463 178 
Q 3153 47 2828 -22 
Q 2503 -91 2169 -91 
Q 1331 -91 842 396 
Q 353 884 353 1716 
Q 353 2575 817 3079 
Q 1281 3584 2069 3584 
Q 2775 3584 3186 3129 
Q 3597 2675 3597 1894 
z
M 3022 2063 
Q 3016 2534 2758 2815 
Q 2500 3097 2075 3097 
Q 1594 3097 1305 2825 
Q 1016 2553 972 2059 
L 3022 2063 
z
" transform="scale(0.015625)"/>
       <path id="DejaVuSans-20" transform="scale(0.015625)"/>
       <path id="DejaVuSans-5b" d="M 550 4863 
L 1875 4863 
L 1875 4416 
L 1125 4416 
L 1125 -397 
L 1875 -397 
L 1875 -844 
L 550 -844 
L 550 4863 
z
" transform="scale(0.015625)"/>
       <path id="DejaVuSans-b5" d="M 544 -1331 
L 544 3500 
L 1119 3500 
L 1119 1325 
Q 1119 872 1334 640 
Q 1550 409 1972 409 
Q 2434 409 2667 671 
Q 2900 934 2900 1459 
L 2900 3500 
L 3475 3500 
L 3475 806 
Q 3475 619 3529 530 
Q 3584 441 3700 441 
Q 3728 441 3778 458 
Q 3828 475 3916 513 
L 3916 50 
Q 3788 -22 3673 -56 
Q 3559 -91 3450 -91 
Q 3234 -91 3106 31 
Q 2978 153 2931 403 
Q 2775 156 2548 32 
Q 2322 -91 2016 -91 
Q 1697 -91 1473 31 
Q 1250 153 1119 397 
L 1119 -1331 
L 544 -1331 
z
" transform="scale(0.015625)"/>
       <path id="DejaVuSans-73" d="M 2834 3397 
L 2834 2853 
Q 2591 2978 2328 3040 
Q 2066 3103 1784 3103 
Q 1356 3103 1142 2972 
Q 928 2841 928 2578 
Q 928 2378 1081 2264 
Q 1234 2150 1697 2047 
L 1894 2003 
Q 2506 1872 2764 1633 
Q 3022 1394 3022 966 
Q 3022 478 2636 193 
Q 2250 -91 1575 -91 
Q 1294 -91 989 -36 
Q 684 19 347 128 
L 347 722 
Q 666 556 975 473 
Q 1284 391 1588 391 
Q 1994 391 2212 530 
Q 2431 669 2431 922 
Q 2431 1156 2273 1281 
Q 2116 1406 1581 1522 
L 1381 1569 
Q 847 1681 609 1914 
Q 372 2147 372 2553 
Q 372 3047 722 3315 
Q 1072 3584 1716 3584 
Q 2034 3584 2315 3537 
Q 2597 3491 2834 3397 
z
" transform="scale(0.015625)"/>
       <path id="DejaVuSans-5d" d="M 1947 4863 
L 1947 -844 
L 622 -844 
L 622 -397 
L 1369 -397 
L 1369 4416 
L 622 4416 
L 622 4863 
L 1947 4863 
z
" transform="scale(0.015625)"/>
      </defs>
      <use xlink:href="#DejaVuSans-62"/>
      <use xlink:href="#DejaVuSans-69" transform="translate(63.476562 0)"/>
      <use xlink:href="#DejaVuSans-72" transform="translate(91.259766 0)"/>
      <use xlink:href="#DejaVuSans-74" transform="translate(132.373047 0)"/>
      <use xlink:href="#DejaVuSans-68" transform="translate(171.582031 0)"/>
      <use xlink:href="#DejaVuSans-5f" transform="translate(234.960938 0)"/>
      <use xlink:href="#DejaVuSans-74" transform="translate(284.960938 0)"/>
      <use xlink:href="#DejaVuSans-69" transform="translate(324.169922 0)"/>
      <use xlink:href="#DejaVuSans-6d" transform="translate(351.953125 0)"/>
      <use xlink:href="#DejaVuSans-65" transform="translate(449.365234 0)"/>
      <use xlink:href="#DejaVuSans-20" transform="translate(510.888672 0)"/>
      <use xlink:href="#DejaVuSans-5b" transform="translate(542.675781 0)"/>
      <use xlink:href="#DejaVuSans-b5" transform="translate(581.689453 0)"/>
      <use xlink:href="#DejaVuSans-73" transform="translate(645.3125 0)"/>
      <use xlink:href="#DejaVuSans-5d" transform="translate(697.412109 0)"/>
     </g>
    </g>
   </g>
   <g id="matplotlib.axis_2">
    <g id="ytick_1">
     <g id="line2d_7">
      <defs>
       <path id="mebf1584ecc" d="M 0 0 
L -3.5 0 
" style="stroke: #000000; stroke-width: 0.8"/>
      </defs>
      <g>
       <use xlink:href="#mebf1584ecc" x="53.328125" y="245.797127" style="stroke: #000000; stroke-width: 0.8"/>
      </g>
     </g>
     <g id="text_8">
      <!-- 0 -->
      <g transform="translate(39.965625 249.596346) scale(0.1 -0.1)">
       <use xlink:href="#DejaVuSans-30"/>
      </g>
     </g>
    </g>
    <g id="ytick_2">
     <g id="line2d_8">
      <g>
       <use xlink:href="#mebf1584ecc" x="53.328125" y="209.057376" style="stroke: #000000; stroke-width: 0.8"/>
      </g>
     </g>
     <g id="text_9">
      <!-- 200 -->
      <g transform="translate(27.240625 212.856595) scale(0.1 -0.1)">
       <use xlink:href="#DejaVuSans-32"/>
       <use xlink:href="#DejaVuSans-30" transform="translate(63.623047 0)"/>
       <use xlink:href="#DejaVuSans-30" transform="translate(127.246094 0)"/>
      </g>
     </g>
    </g>
    <g id="ytick_3">
     <g id="line2d_9">
      <g>
       <use xlink:href="#mebf1584ecc" x="53.328125" y="172.317625" style="stroke: #000000; stroke-width: 0.8"/>
      </g>
     </g>
     <g id="text_10">
      <!-- 400 -->
      <g transform="translate(27.240625 176.116844) scale(0.1 -0.1)">
       <use xlink:href="#DejaVuSans-34"/>
       <use xlink:href="#DejaVuSans-30" transform="translate(63.623047 0)"/>
       <use xlink:href="#DejaVuSans-30" transform="translate(127.246094 0)"/>
      </g>
     </g>
    </g>
    <g id="ytick_4">
     <g id="line2d_10">
      <g>
       <use xlink:href="#mebf1584ecc" x="53.328125" y="135.577874" style="stroke: #000000; stroke-width: 0.8"/>
      </g>
     </g>
     <g id="text_11">
      <!-- 600 -->
      <g transform="translate(27.240625 139.377093) scale(0.1 -0.1)">
       <defs>
        <path id="DejaVuSans-36" d="M 2113 2584 
Q 1688 2584 1439 2293 
Q 1191 2003 1191 1497 
Q 1191 994 1439 701 
Q 1688 409 2113 409 
Q 2538 409 2786 701 
Q 3034 994 3034 1497 
Q 3034 2003 2786 2293 
Q 2538 2584 2113 2584 
z
M 3366 4563 
L 3366 3988 
Q 3128 4100 2886 4159 
Q 2644 4219 2406 4219 
Q 1781 4219 1451 3797 
Q 1122 3375 1075 2522 
Q 1259 2794 1537 2939 
Q 1816 3084 2150 3084 
Q 2853 3084 3261 2657 
Q 3669 2231 3669 1497 
Q 3669 778 3244 343 
Q 2819 -91 2113 -91 
Q 1303 -91 875 529 
Q 447 1150 447 2328 
Q 447 3434 972 4092 
Q 1497 4750 2381 4750 
Q 2619 4750 2861 4703 
Q 3103 4656 3366 4563 
z
" transform="scale(0.015625)"/>
       </defs>
       <use xlink:href="#DejaVuSans-36"/>
       <use xlink:href="#DejaVuSans-30" transform="translate(63.623047 0)"/>
       <use xlink:href="#DejaVuSans-30" transform="translate(127.246094 0)"/>
      </g>
     </g>
    </g>
    <g id="ytick_5">
     <g id="line2d_11">
      <g>
       <use xlink:href="#mebf1584ecc" x="53.328125" y="98.838124" style="stroke: #000000; stroke-width: 0.8"/>
      </g>
     </g>
     <g id="text_12">
      <!-- 800 -->
      <g transform="translate(27.240625 102.637342) scale(0.1 -0.1)">
       <defs>
        <path id="DejaVuSans-38" d="M 2034 2216 
Q 1584 2216 1326 1975 
Q 1069 1734 1069 1313 
Q 1069 891 1326 650 
Q 1584 409 2034 409 
Q 2484 409 2743 651 
Q 3003 894 3003 1313 
Q 3003 1734 2745 1975 
Q 2488 2216 2034 2216 
z
M 1403 2484 
Q 997 2584 770 2862 
Q 544 3141 544 3541 
Q 544 4100 942 4425 
Q 1341 4750 2034 4750 
Q 2731 4750 3128 4425 
Q 3525 4100 3525 3541 
Q 3525 3141 3298 2862 
Q 3072 2584 2669 2484 
Q 3125 2378 3379 2068 
Q 3634 1759 3634 1313 
Q 3634 634 3220 271 
Q 2806 -91 2034 -91 
Q 1263 -91 848 271 
Q 434 634 434 1313 
Q 434 1759 690 2068 
Q 947 2378 1403 2484 
z
M 1172 3481 
Q 1172 3119 1398 2916 
Q 1625 2713 2034 2713 
Q 2441 2713 2670 2916 
Q 2900 3119 2900 3481 
Q 2900 3844 2670 4047 
Q 2441 4250 2034 4250 
Q 1625 4250 1398 4047 
Q 1172 3844 1172 3481 
z
" transform="scale(0.015625)"/>
       </defs>
       <use xlink:href="#DejaVuSans-38"/>
       <use xlink:href="#DejaVuSans-30" transform="translate(63.623047 0)"/>
       <use xlink:href="#DejaVuSans-30" transform="translate(127.246094 0)"/>
      </g>
     </g>
    </g>
    <g id="ytick_6">
     <g id="line2d_12">
      <g>
       <use xlink:href="#mebf1584ecc" x="53.328125" y="62.098373" style="stroke: #000000; stroke-width: 0.8"/>
      </g>
     </g>
     <g id="text_13">
      <!-- 1000 -->
      <g transform="translate(20.878125 65.897591) scale(0.1 -0.1)">
       <use xlink:href="#DejaVuSans-31"/>
       <use xlink:href="#DejaVuSans-30" transform="translate(63.623047 0)"/>
       <use xlink:href="#DejaVuSans-30" transform="translate(127.246094 0)"/>
       <use xlink:href="#DejaVuSans-30" transform="translate(190.869141 0)"/>
      </g>
     </g>
    </g>
    <g id="ytick_7">
     <g id="line2d_13">
      <g>
       <use xlink:href="#mebf1584ecc" x="53.328125" y="25.358622" style="stroke: #000000; stroke-width: 0.8"/>
      </g>
     </g>
     <g id="text_14">
      <!-- 1200 -->
      <g transform="translate(20.878125 29.157841) scale(0.1 -0.1)">
       <use xlink:href="#DejaVuSans-31"/>
       <use xlink:href="#DejaVuSans-32" transform="translate(63.623047 0)"/>
       <use xlink:href="#DejaVuSans-30" transform="translate(127.246094 0)"/>
       <use xlink:href="#DejaVuSans-30" transform="translate(190.869141 0)"/>
      </g>
     </g>
    </g>
    <g id="text_15">
     <!-- [counts] -->
     <g transform="translate(14.798438 152.791947) rotate(-90) scale(0.1 -0.1)">
      <defs>
       <path id="DejaVuSans-63" d="M 3122 3366 
L 3122 2828 
Q 2878 2963 2633 3030 
Q 2388 3097 2138 3097 
Q 1578 3097 1268 2742 
Q 959 2388 959 1747 
Q 959 1106 1268 751 
Q 1578 397 2138 397 
Q 2388 397 2633 464 
Q 2878 531 3122 666 
L 3122 134 
Q 2881 22 2623 -34 
Q 2366 -91 2075 -91 
Q 1284 -91 818 406 
Q 353 903 353 1747 
Q 353 2603 823 3093 
Q 1294 3584 2113 3584 
Q 2378 3584 2631 3529 
Q 2884 3475 3122 3366 
z
" transform="scale(0.015625)"/>
       <path id="DejaVuSans-6f" d="M 1959 3097 
Q 1497 3097 1228 2736 
Q 959 2375 959 1747 
Q 959 1119 1226 758 
Q 1494 397 1959 397 
Q 2419 397 2687 759 
Q 2956 1122 2956 1747 
Q 2956 2369 2687 2733 
Q 2419 3097 1959 3097 
z
M 1959 3584 
Q 2709 3584 3137 3096 
Q 3566 2609 3566 1747 
Q 3566 888 3137 398 
Q 2709 -91 1959 -91 
Q 1206 -91 779 398 
Q 353 888 353 1747 
Q 353 2609 779 3096 
Q 1206 3584 1959 3584 
z
" transform="scale(0.015625)"/>
       <path id="DejaVuSans-75" d="M 544 1381 
L 544 3500 
L 1119 3500 
L 1119 1403 
Q 1119 906 1312 657 
Q 1506 409 1894 409 
Q 2359 409 2629 706 
Q 2900 1003 2900 1516 
L 2900 3500 
L 3475 3500 
L 3475 0 
L 2900 0 
L 2900 538 
Q 2691 219 2414 64 
Q 2138 -91 1772 -91 
Q 1169 -91 856 284 
Q 544 659 544 1381 
z
M 1991 3584 
L 1991 3584 
z
" transform="scale(0.015625)"/>
       <path id="DejaVuSans-6e" d="M 3513 2113 
L 3513 0 
L 2938 0 
L 2938 2094 
Q 2938 2591 2744 2837 
Q 2550 3084 2163 3084 
Q 1697 3084 1428 2787 
Q 1159 2491 1159 1978 
L 1159 0 
L 581 0 
L 581 3500 
L 1159 3500 
L 1159 2956 
Q 1366 3272 1645 3428 
Q 1925 3584 2291 3584 
Q 2894 3584 3203 3211 
Q 3513 2838 3513 2113 
z
" transform="scale(0.015625)"/>
      </defs>
      <use xlink:href="#DejaVuSans-5b"/>
      <use xlink:href="#DejaVuSans-63" transform="translate(39.013672 0)"/>
      <use xlink:href="#DejaVuSans-6f" transform="translate(93.994141 0)"/>
      <use xlink:href="#DejaVuSans-75" transform="translate(155.175781 0)"/>
      <use xlink:href="#DejaVuSans-6e" transform="translate(218.554688 0)"/>
      <use xlink:href="#DejaVuSans-74" transform="translate(281.933594 0)"/>
      <use xlink:href="#DejaVuSans-73" transform="translate(321.142578 0)"/>
      <use xlink:href="#DejaVuSans-5d" transform="translate(373.242188 0)"/>
     </g>
    </g>
   </g>
   <g id="line2d_14">
    <path d="M 70.535017 235.693696 
L 71.682144 235.693696 
L 71.682144 227.059854 
L 72.82927 227.059854 
L 72.82927 221.181494 
L 73.976396 221.181494 
L 73.976396 207.587786 
L 75.123522 207.587786 
L 75.123522 201.893125 
L 76.270648 201.893125 
L 76.270648 192.34079 
L 77.417774 192.34079 
L 77.417774 181.318864 
L 78.564901 181.318864 
L 78.564901 177.828588 
L 79.712027 177.828588 
L 79.712027 164.969675 
L 80.859153 164.969675 
L 80.859153 159.458713 
L 82.006279 159.458713 
L 82.006279 153.764051 
L 84.300531 153.764051 
L 84.300531 142.558427 
L 85.447658 142.558427 
L 85.447658 133.006092 
L 86.594784 133.006092 
L 86.594784 130.434309 
L 87.74191 130.434309 
L 87.74191 129.332117 
L 88.889036 129.332117 
L 88.889036 128.781021 
L 90.036162 128.781021 
L 90.036162 110.227446 
L 91.183288 110.227446 
L 91.183288 110.594844 
L 92.330415 110.594844 
L 92.330415 99.205521 
L 93.477541 99.205521 
L 93.477541 95.898944 
L 94.624667 95.898944 
L 94.624667 89.469487 
L 95.771793 89.469487 
L 95.771793 101.593605 
L 96.918919 101.593605 
L 96.918919 93.878257 
L 98.066045 93.878257 
L 98.066045 85.979211 
L 99.213172 85.979211 
L 99.213172 90.204282 
L 100.360298 90.204282 
L 100.360298 78.080164 
L 101.507424 78.080164 
L 101.507424 70.364817 
L 102.65455 70.364817 
L 102.65455 91.490173 
L 103.801676 91.490173 
L 103.801676 75.508382 
L 104.948802 75.508382 
L 104.948802 76.977972 
L 106.095929 76.977972 
L 106.095929 77.896466 
L 107.243055 77.896466 
L 107.243055 54.934121 
L 108.390181 54.934121 
L 108.390181 63.751662 
L 109.537307 63.751662 
L 109.537307 64.853854 
L 110.684433 64.853854 
L 110.684433 65.956047 
L 111.831559 65.956047 
L 111.831559 72.569202 
L 112.978686 72.569202 
L 112.978686 66.87454 
L 114.125812 66.87454 
L 114.125812 63.751662 
L 115.272938 63.751662 
L 115.272938 51.443845 
L 116.420064 51.443845 
L 116.420064 46.851376 
L 117.56719 46.851376 
L 117.56719 64.486457 
L 118.714316 64.486457 
L 118.714316 57.138506 
L 119.861443 57.138506 
L 119.861443 49.606857 
L 121.008569 49.606857 
L 121.008569 52.546038 
L 122.155695 52.546038 
L 122.155695 55.668916 
L 123.302821 55.668916 
L 123.302821 44.279594 
L 124.449947 44.279594 
L 124.449947 39.319727 
L 125.597073 39.319727 
L 125.597073 46.483979 
L 126.7442 46.483979 
L 126.7442 51.076447 
L 127.891326 51.076447 
L 127.891326 31.053283 
L 129.038452 31.053283 
L 129.038452 40.054522 
L 130.185578 40.054522 
L 130.185578 50.157954 
L 131.332704 50.157954 
L 131.332704 49.974255 
L 132.47983 49.974255 
L 132.47983 42.258907 
L 133.626957 42.258907 
L 133.626957 46.30028 
L 134.774083 46.30028 
L 134.774083 39.870823 
L 135.921209 39.870823 
L 135.921209 54.015628 
L 137.068335 54.015628 
L 137.068335 38.401233 
L 138.215461 38.401233 
L 138.215461 38.033836 
L 139.362587 38.033836 
L 139.362587 40.789317 
L 140.509714 40.789317 
L 140.509714 43.544799 
L 141.65684 43.544799 
L 141.65684 33.257668 
L 142.803966 33.257668 
L 142.803966 46.116581 
L 143.951092 46.116581 
L 143.951092 56.036314 
L 145.098218 56.036314 
L 145.098218 49.055761 
L 146.245344 49.055761 
L 146.245344 39.136028 
L 148.539597 39.136028 
L 148.539597 38.768631 
L 149.686723 38.768631 
L 149.686723 34.54356 
L 150.833849 34.54356 
L 150.833849 31.420681 
L 151.980975 31.420681 
L 151.980975 34.176162 
L 153.128101 34.176162 
L 153.128101 40.238221 
L 154.275228 40.238221 
L 154.275228 39.687125 
L 155.422354 39.687125 
L 155.422354 42.626305 
L 156.56948 42.626305 
L 156.56948 39.687125 
L 157.716606 39.687125 
L 157.716606 31.60438 
L 158.863732 31.60438 
L 158.863732 33.625066 
L 160.010858 33.625066 
L 160.010858 37.850137 
L 161.157985 37.850137 
L 161.157985 36.747945 
L 162.305111 36.747945 
L 162.305111 37.666438 
L 163.452237 37.666438 
L 163.452237 34.727258 
L 164.599363 34.727258 
L 164.599363 35.094656 
L 165.746489 35.094656 
L 165.746489 45.198087 
L 166.893615 45.198087 
L 166.893615 33.992463 
L 168.040742 33.992463 
L 168.040742 36.196848 
L 169.187868 36.196848 
L 169.187868 33.992463 
L 170.334994 33.992463 
L 170.334994 40.054522 
L 171.48212 40.054522 
L 171.48212 29.032597 
L 172.629246 29.032597 
L 172.629246 36.747945 
L 173.776372 36.747945 
L 173.776372 40.238221 
L 174.923499 40.238221 
L 174.923499 31.236982 
L 176.070625 31.236982 
L 176.070625 31.60438 
L 177.217751 31.60438 
L 177.217751 32.706572 
L 178.364877 32.706572 
L 178.364877 25.909718 
L 179.512003 25.909718 
L 179.512003 33.808765 
L 181.806256 33.808765 
L 181.806256 26.460814 
L 182.953382 26.460814 
L 182.953382 38.033836 
L 184.100508 38.033836 
L 184.100508 38.401233 
L 185.247634 38.401233 
L 185.247634 33.625066 
L 186.39476 33.625066 
L 186.39476 27.379308 
L 187.541886 27.379308 
L 187.541886 34.910957 
L 188.689013 34.910957 
L 188.689013 30.502187 
L 189.836139 30.502187 
L 189.836139 31.420681 
L 190.983265 31.420681 
L 190.983265 34.727258 
L 192.130391 34.727258 
L 192.130391 28.665199 
L 193.277517 28.665199 
L 193.277517 33.441367 
L 194.424643 33.441367 
L 194.424643 43.3611 
L 195.57177 43.3611 
L 195.57177 18.561768 
L 196.718896 18.561768 
L 196.718896 43.3611 
L 197.866022 43.3611 
L 197.866022 29.032597 
L 199.013148 29.032597 
L 199.013148 36.196848 
L 200.160274 36.196848 
L 200.160274 22.419442 
L 201.3074 22.419442 
L 201.3074 22.970538 
L 202.454527 22.970538 
L 202.454527 30.869584 
L 203.601653 30.869584 
L 203.601653 24.807526 
L 204.748779 24.807526 
L 204.748779 43.177401 
L 205.895905 43.177401 
L 205.895905 27.563007 
L 207.043031 27.563007 
L 207.043031 35.094656 
L 208.190157 35.094656 
L 208.190157 35.829451 
L 209.337284 35.829451 
L 209.337284 31.60438 
L 210.48441 31.60438 
L 210.48441 32.155476 
L 211.631536 32.155476 
L 211.631536 31.971777 
L 212.778662 31.971777 
L 212.778662 39.870823 
L 213.925788 39.870823 
L 213.925788 22.786839 
L 215.072914 22.786839 
L 215.072914 29.583693 
L 216.220041 29.583693 
L 216.220041 31.971777 
L 217.367167 31.971777 
L 217.367167 37.115342 
L 218.514293 37.115342 
L 218.514293 31.788078 
L 219.661419 31.788078 
L 219.661419 34.54356 
L 220.808545 34.54356 
L 220.808545 35.094656 
L 221.955671 35.094656 
L 221.955671 41.156715 
L 223.102798 41.156715 
L 223.102798 28.481501 
L 224.249924 28.481501 
L 224.249924 36.01315 
L 225.39705 36.01315 
L 225.39705 27.563007 
L 226.544176 27.563007 
L 226.544176 31.971777 
L 227.691302 31.971777 
L 227.691302 26.277116 
L 228.838428 26.277116 
L 228.838428 23.705333 
L 229.985555 23.705333 
L 229.985555 38.95233 
L 231.132681 38.95233 
L 231.132681 32.155476 
L 232.279807 32.155476 
L 232.279807 40.605618 
L 233.426933 40.605618 
L 233.426933 39.319727 
L 234.574059 39.319727 
L 234.574059 33.07397 
L 235.721185 33.07397 
L 235.721185 25.542321 
L 236.868312 25.542321 
L 236.868312 30.134789 
L 238.015438 30.134789 
L 238.015438 29.583693 
L 239.162564 29.583693 
L 239.162564 24.807526 
L 240.30969 24.807526 
L 240.30969 44.83069 
L 241.456816 44.83069 
L 241.456816 20.215057 
L 242.603942 20.215057 
L 242.603942 30.869584 
L 243.751069 30.869584 
L 243.751069 33.07397 
L 244.898195 33.07397 
L 244.898195 33.257668 
L 246.045321 33.257668 
L 246.045321 36.196848 
L 247.192447 36.196848 
L 247.192447 36.01315 
L 248.339573 36.01315 
L 248.339573 35.829451 
L 249.486699 35.829451 
L 249.486699 34.54356 
L 250.633826 34.54356 
L 250.633826 31.053283 
L 251.780952 31.053283 
L 251.780952 47.035075 
L 252.928078 47.035075 
L 252.928078 39.687125 
L 254.075204 39.687125 
L 254.075204 25.174923 
L 255.22233 25.174923 
L 255.22233 30.134789 
L 256.369456 30.134789 
L 256.369456 25.726019 
L 257.516583 25.726019 
L 257.516583 34.910957 
L 258.663709 34.910957 
L 258.663709 29.216296 
L 259.810835 29.216296 
L 259.810835 24.256429 
L 260.957961 24.256429 
L 260.957961 29.216296 
L 262.105087 29.216296 
L 262.105087 27.563007 
L 263.252213 27.563007 
L 263.252213 29.216296 
L 264.39934 29.216296 
L 264.39934 23.521634 
L 265.546466 23.521634 
L 265.546466 35.645752 
L 266.693592 35.645752 
L 266.693592 28.665199 
L 267.840718 28.665199 
L 267.840718 45.014389 
L 268.987844 45.014389 
L 268.987844 51.811242 
L 270.13497 51.811242 
L 270.13497 46.30028 
L 271.282097 46.30028 
L 271.282097 63.016866 
L 272.429223 63.016866 
L 272.429223 79.549754 
L 273.576349 79.549754 
L 273.576349 76.977972 
L 274.723475 76.977972 
L 274.723475 86.16291 
L 275.870601 86.16291 
L 275.870601 101.226207 
L 277.017727 101.226207 
L 277.017727 106.553471 
L 278.164854 106.553471 
L 278.164854 115.55471 
L 279.31198 115.55471 
L 279.31198 126.209238 
L 280.459106 126.209238 
L 280.459106 129.148418 
L 281.606232 129.148418 
L 281.606232 143.293222 
L 282.753358 143.293222 
L 282.753358 134.475682 
L 283.900484 134.475682 
L 283.900484 153.396654 
L 285.047611 153.396654 
L 285.047611 153.580352 
L 286.194737 153.580352 
L 286.194737 162.030495 
L 287.341863 162.030495 
L 287.341863 160.377206 
L 288.488989 160.377206 
L 288.488989 165.153374 
L 289.636115 165.153374 
L 289.636115 169.745843 
L 290.783241 169.745843 
L 290.783241 173.05242 
L 291.930368 173.05242 
L 291.930368 182.972153 
L 293.077494 182.972153 
L 293.077494 180.584069 
L 294.22462 180.584069 
L 294.22462 188.483116 
L 295.371746 188.483116 
L 295.371746 186.095032 
L 296.518872 186.095032 
L 296.518872 196.74956 
L 297.665998 196.74956 
L 297.665998 197.851752 
L 298.813125 197.851752 
L 298.813125 201.525727 
L 299.960251 201.525727 
L 299.960251 204.281209 
L 301.107377 204.281209 
L 301.107377 202.260522 
L 302.254503 202.260522 
L 302.254503 204.09751 
L 303.401629 204.09751 
L 303.401629 206.669292 
L 304.548755 206.669292 
L 304.548755 214.935736 
L 305.695882 214.935736 
L 305.695882 209.792171 
L 306.843008 209.792171 
L 306.843008 212.363954 
L 307.990134 212.363954 
L 307.990134 213.833544 
L 309.13726 213.833544 
L 309.13726 219.528205 
L 310.284386 219.528205 
L 310.284386 215.486833 
L 311.431512 215.486833 
L 311.431512 223.569578 
L 312.578639 223.569578 
L 312.578639 220.997795 
L 313.725765 220.997795 
L 313.725765 222.099988 
L 314.872891 222.099988 
L 314.872891 223.753277 
L 316.020017 223.753277 
L 316.020017 224.304373 
L 317.167143 224.304373 
L 317.167143 225.039168 
L 318.314269 225.039168 
L 318.314269 226.692457 
L 319.461396 226.692457 
L 319.461396 226.325059 
L 320.608522 226.325059 
L 320.608522 229.08054 
L 321.755648 229.08054 
L 321.755648 229.447938 
L 322.902774 229.447938 
L 322.902774 228.713143 
L 324.0499 228.713143 
L 324.0499 229.631637 
L 325.197026 229.631637 
L 325.197026 232.938214 
L 326.344153 232.938214 
L 326.344153 234.407804 
L 327.491279 234.407804 
L 327.491279 232.387118 
L 328.638405 232.387118 
L 328.638405 232.938214 
L 329.785531 232.938214 
L 329.785531 234.958901 
L 330.932657 234.958901 
L 330.932657 235.509997 
L 332.079783 235.509997 
L 332.079783 237.163286 
L 333.22691 237.163286 
L 333.22691 233.121913 
L 334.374036 233.121913 
L 334.374036 237.714382 
L 335.521162 237.714382 
L 335.521162 237.163286 
L 336.668288 237.163286 
L 336.668288 235.326298 
L 337.815414 235.326298 
L 337.815414 236.612189 
L 338.96254 236.612189 
L 338.96254 237.346984 
L 340.109667 237.346984 
L 340.109667 237.163286 
L 341.256793 237.163286 
L 341.256793 240.286164 
L 342.403919 240.286164 
L 342.403919 239.735068 
L 343.551045 239.735068 
L 343.551045 239.551369 
L 344.698171 239.551369 
L 344.698171 238.449177 
L 345.845297 238.449177 
L 345.845297 240.286164 
L 346.992424 240.286164 
L 346.992424 240.837261 
L 348.13955 240.837261 
L 348.13955 241.204658 
L 349.286676 241.204658 
L 349.286676 240.837261 
L 350.433802 240.837261 
L 350.433802 242.674248 
L 352.728054 242.674248 
L 352.728054 241.204658 
L 353.875181 241.204658 
L 353.875181 243.776441 
L 355.022307 243.776441 
L 355.022307 241.204658 
L 356.169433 241.204658 
L 356.169433 242.306851 
L 357.316559 242.306851 
L 357.316559 241.939453 
L 358.463685 241.939453 
L 358.463685 241.020959 
L 359.610811 241.020959 
L 359.610811 242.123152 
L 360.757938 242.123152 
L 360.757938 242.490549 
L 361.905064 242.490549 
L 361.905064 243.225344 
L 363.05219 243.225344 
L 363.05219 243.776441 
L 366.493568 243.776441 
L 366.493568 243.409043 
L 367.640695 243.409043 
L 367.640695 242.490549 
L 368.787821 242.490549 
L 368.787821 243.409043 
L 369.934947 243.409043 
L 369.934947 244.694935 
L 371.082073 244.694935 
L 371.082073 244.143838 
L 372.229199 244.143838 
L 372.229199 244.878633 
L 373.376325 244.878633 
L 373.376325 245.246031 
L 374.523452 245.246031 
L 374.523452 244.327537 
L 376.817704 244.327537 
L 376.817704 243.592742 
L 377.96483 243.592742 
L 377.96483 244.327537 
L 379.111956 244.327537 
L 379.111956 244.878633 
L 380.259082 244.878633 
L 380.259082 244.327537 
L 381.406209 244.327537 
L 381.406209 245.062332 
L 383.700461 245.062332 
L 383.700461 244.694935 
L 384.847587 244.694935 
L 384.847587 244.878633 
L 385.994713 244.878633 
L 385.994713 244.694935 
L 387.141839 244.694935 
L 387.141839 244.878633 
L 388.288966 244.878633 
L 388.288966 244.694935 
L 389.436092 244.694935 
L 389.436092 244.511236 
L 390.583218 244.511236 
L 390.583218 244.327537 
L 391.730344 244.327537 
L 391.730344 244.878633 
L 392.87747 244.878633 
L 392.87747 245.42973 
L 394.024596 245.42973 
L 394.024596 244.878633 
L 395.171723 244.878633 
L 395.171723 245.797127 
L 396.318849 245.797127 
L 396.318849 245.062332 
L 398.613101 245.062332 
L 398.613101 245.42973 
L 399.760227 245.42973 
L 399.760227 245.246031 
L 400.907353 245.246031 
L 400.907353 245.613428 
L 402.05448 245.613428 
L 402.05448 245.797127 
L 403.201606 245.797127 
L 403.201606 244.694935 
L 404.348732 244.694935 
L 404.348732 245.613428 
L 405.495858 245.613428 
L 405.495858 245.062332 
L 407.79011 245.062332 
L 407.79011 245.613428 
L 408.937237 245.613428 
L 408.937237 245.246031 
L 411.231489 245.246031 
L 411.231489 245.42973 
L 412.378615 245.42973 
L 412.378615 245.797127 
L 413.525741 245.797127 
L 413.525741 245.246031 
L 414.672867 245.246031 
L 414.672867 245.246031 
" clip-path="url(#pbb19a94254)" style="fill: none; stroke: #1f77b4; stroke-width: 1.5; stroke-linecap: square"/>
   </g>
   <g id="patch_3">
    <path d="M 53.328125 257.158895 
L 53.328125 7.2 
" style="fill: none; stroke: #000000; stroke-width: 0.8; stroke-linejoin: miter; stroke-linecap: square"/>
   </g>
   <g id="patch_4">
    <path d="M 431.87976 257.158895 
L 431.87976 7.2 
" style="fill: none; stroke: #000000; stroke-width: 0.8; stroke-linejoin: miter; stroke-linecap: square"/>
   </g>
   <g id="patch_5">
    <path d="M 53.328125 257.158895 
L 431.87976 257.158895 
" style="fill: none; stroke: #000000; stroke-width: 0.8; stroke-linejoin: miter; stroke-linecap: square"/>
   </g>
   <g id="patch_6">
    <path d="M 53.328125 7.2 
L 431.87976 7.2 
" style="fill: none; stroke: #000000; stroke-width: 0.8; stroke-linejoin: miter; stroke-linecap: square"/>
   </g>
  </g>
  <g id="axes_2">
   <g id="patch_7">
    <path d="M 486.647885 257.158895 
L 865.19952 257.158895 
L 865.19952 7.2 
L 486.647885 7.2 
z
" style="fill: #ffffff"/>
   </g>
   <g id="matplotlib.axis_3">
    <g id="xtick_7">
     <g id="line2d_15">
      <g>
       <use xlink:href="#m1545e04b16" x="500.385365" y="257.158895" style="stroke: #000000; stroke-width: 0.8"/>
      </g>
     </g>
     <g id="text_16">
      <!-- 0.0 -->
      <g transform="translate(492.433802 271.757332) scale(0.1 -0.1)">
       <defs>
        <path id="DejaVuSans-2e" d="M 684 794 
L 1344 794 
L 1344 0 
L 684 0 
L 684 794 
z
" transform="scale(0.015625)"/>
       </defs>
       <use xlink:href="#DejaVuSans-30"/>
       <use xlink:href="#DejaVuSans-2e" transform="translate(63.623047 0)"/>
       <use xlink:href="#DejaVuSans-30" transform="translate(95.410156 0)"/>
      </g>
     </g>
    </g>
    <g id="xtick_8">
     <g id="line2d_16">
      <g>
       <use xlink:href="#m1545e04b16" x="544.075408" y="257.158895" style="stroke: #000000; stroke-width: 0.8"/>
      </g>
     </g>
     <g id="text_17">
      <!-- 2.5 -->
      <g transform="translate(536.123845 271.757332) scale(0.1 -0.1)">
       <use xlink:href="#DejaVuSans-32"/>
       <use xlink:href="#DejaVuSans-2e" transform="translate(63.623047 0)"/>
       <use xlink:href="#DejaVuSans-35" transform="translate(95.410156 0)"/>
      </g>
     </g>
    </g>
    <g id="xtick_9">
     <g id="line2d_17">
      <g>
       <use xlink:href="#m1545e04b16" x="587.76545" y="257.158895" style="stroke: #000000; stroke-width: 0.8"/>
      </g>
     </g>
     <g id="text_18">
      <!-- 5.0 -->
      <g transform="translate(579.813888 271.757332) scale(0.1 -0.1)">
       <use xlink:href="#DejaVuSans-35"/>
       <use xlink:href="#DejaVuSans-2e" transform="translate(63.623047 0)"/>
       <use xlink:href="#DejaVuSans-30" transform="translate(95.410156 0)"/>
      </g>
     </g>
    </g>
    <g id="xtick_10">
     <g id="line2d_18">
      <g>
       <use xlink:href="#m1545e04b16" x="631.455493" y="257.158895" style="stroke: #000000; stroke-width: 0.8"/>
      </g>
     </g>
     <g id="text_19">
      <!-- 7.5 -->
      <g transform="translate(623.503931 271.757332) scale(0.1 -0.1)">
       <defs>
        <path id="DejaVuSans-37" d="M 525 4666 
L 3525 4666 
L 3525 4397 
L 1831 0 
L 1172 0 
L 2766 4134 
L 525 4134 
L 525 4666 
z
" transform="scale(0.015625)"/>
       </defs>
       <use xlink:href="#DejaVuSans-37"/>
       <use xlink:href="#DejaVuSans-2e" transform="translate(63.623047 0)"/>
       <use xlink:href="#DejaVuSans-35" transform="translate(95.410156 0)"/>
      </g>
     </g>
    </g>
    <g id="xtick_11">
     <g id="line2d_19">
      <g>
       <use xlink:href="#m1545e04b16" x="675.145536" y="257.158895" style="stroke: #000000; stroke-width: 0.8"/>
      </g>
     </g>
     <g id="text_20">
      <!-- 10.0 -->
      <g transform="translate(664.012724 271.757332) scale(0.1 -0.1)">
       <use xlink:href="#DejaVuSans-31"/>
       <use xlink:href="#DejaVuSans-30" transform="translate(63.623047 0)"/>
       <use xlink:href="#DejaVuSans-2e" transform="translate(127.246094 0)"/>
       <use xlink:href="#DejaVuSans-30" transform="translate(159.033203 0)"/>
      </g>
     </g>
    </g>
    <g id="xtick_12">
     <g id="line2d_20">
      <g>
       <use xlink:href="#m1545e04b16" x="718.835579" y="257.158895" style="stroke: #000000; stroke-width: 0.8"/>
      </g>
     </g>
     <g id="text_21">
      <!-- 12.5 -->
      <g transform="translate(707.702766 271.757332) scale(0.1 -0.1)">
       <use xlink:href="#DejaVuSans-31"/>
       <use xlink:href="#DejaVuSans-32" transform="translate(63.623047 0)"/>
       <use xlink:href="#DejaVuSans-2e" transform="translate(127.246094 0)"/>
       <use xlink:href="#DejaVuSans-35" transform="translate(159.033203 0)"/>
      </g>
     </g>
    </g>
    <g id="xtick_13">
     <g id="line2d_21">
      <g>
       <use xlink:href="#m1545e04b16" x="762.525622" y="257.158895" style="stroke: #000000; stroke-width: 0.8"/>
      </g>
     </g>
     <g id="text_22">
      <!-- 15.0 -->
      <g transform="translate(751.392809 271.757332) scale(0.1 -0.1)">
       <use xlink:href="#DejaVuSans-31"/>
       <use xlink:href="#DejaVuSans-35" transform="translate(63.623047 0)"/>
       <use xlink:href="#DejaVuSans-2e" transform="translate(127.246094 0)"/>
       <use xlink:href="#DejaVuSans-30" transform="translate(159.033203 0)"/>
      </g>
     </g>
    </g>
    <g id="xtick_14">
     <g id="line2d_22">
      <g>
       <use xlink:href="#m1545e04b16" x="806.215665" y="257.158895" style="stroke: #000000; stroke-width: 0.8"/>
      </g>
     </g>
     <g id="text_23">
      <!-- 17.5 -->
      <g transform="translate(795.082852 271.757332) scale(0.1 -0.1)">
       <use xlink:href="#DejaVuSans-31"/>
       <use xlink:href="#DejaVuSans-37" transform="translate(63.623047 0)"/>
       <use xlink:href="#DejaVuSans-2e" transform="translate(127.246094 0)"/>
       <use xlink:href="#DejaVuSans-35" transform="translate(159.033203 0)"/>
      </g>
     </g>
    </g>
    <g id="xtick_15">
     <g id="line2d_23">
      <g>
       <use xlink:href="#m1545e04b16" x="849.905707" y="257.158895" style="stroke: #000000; stroke-width: 0.8"/>
      </g>
     </g>
     <g id="text_24">
      <!-- 20.0 -->
      <g transform="translate(838.772895 271.757332) scale(0.1 -0.1)">
       <use xlink:href="#DejaVuSans-32"/>
       <use xlink:href="#DejaVuSans-30" transform="translate(63.623047 0)"/>
       <use xlink:href="#DejaVuSans-2e" transform="translate(127.246094 0)"/>
       <use xlink:href="#DejaVuSans-30" transform="translate(159.033203 0)"/>
      </g>
     </g>
    </g>
    <g id="text_25">
     <!-- wavelength [Å] -->
     <g transform="translate(637.886202 287.119832) scale(0.1 -0.1)">
      <defs>
       <path id="DejaVuSans-77" d="M 269 3500 
L 844 3500 
L 1563 769 
L 2278 3500 
L 2956 3500 
L 3675 769 
L 4391 3500 
L 4966 3500 
L 4050 0 
L 3372 0 
L 2619 2869 
L 1863 0 
L 1184 0 
L 269 3500 
z
" transform="scale(0.015625)"/>
       <path id="DejaVuSans-61" d="M 2194 1759 
Q 1497 1759 1228 1600 
Q 959 1441 959 1056 
Q 959 750 1161 570 
Q 1363 391 1709 391 
Q 2188 391 2477 730 
Q 2766 1069 2766 1631 
L 2766 1759 
L 2194 1759 
z
M 3341 1997 
L 3341 0 
L 2766 0 
L 2766 531 
Q 2569 213 2275 61 
Q 1981 -91 1556 -91 
Q 1019 -91 701 211 
Q 384 513 384 1019 
Q 384 1609 779 1909 
Q 1175 2209 1959 2209 
L 2766 2209 
L 2766 2266 
Q 2766 2663 2505 2880 
Q 2244 3097 1772 3097 
Q 1472 3097 1187 3025 
Q 903 2953 641 2809 
L 641 3341 
Q 956 3463 1253 3523 
Q 1550 3584 1831 3584 
Q 2591 3584 2966 3190 
Q 3341 2797 3341 1997 
z
" transform="scale(0.015625)"/>
       <path id="DejaVuSans-76" d="M 191 3500 
L 800 3500 
L 1894 563 
L 2988 3500 
L 3597 3500 
L 2284 0 
L 1503 0 
L 191 3500 
z
" transform="scale(0.015625)"/>
       <path id="DejaVuSans-6c" d="M 603 4863 
L 1178 4863 
L 1178 0 
L 603 0 
L 603 4863 
z
" transform="scale(0.015625)"/>
       <path id="DejaVuSans-67" d="M 2906 1791 
Q 2906 2416 2648 2759 
Q 2391 3103 1925 3103 
Q 1463 3103 1205 2759 
Q 947 2416 947 1791 
Q 947 1169 1205 825 
Q 1463 481 1925 481 
Q 2391 481 2648 825 
Q 2906 1169 2906 1791 
z
M 3481 434 
Q 3481 -459 3084 -895 
Q 2688 -1331 1869 -1331 
Q 1566 -1331 1297 -1286 
Q 1028 -1241 775 -1147 
L 775 -588 
Q 1028 -725 1275 -790 
Q 1522 -856 1778 -856 
Q 2344 -856 2625 -561 
Q 2906 -266 2906 331 
L 2906 616 
Q 2728 306 2450 153 
Q 2172 0 1784 0 
Q 1141 0 747 490 
Q 353 981 353 1791 
Q 353 2603 747 3093 
Q 1141 3584 1784 3584 
Q 2172 3584 2450 3431 
Q 2728 3278 2906 2969 
L 2906 3500 
L 3481 3500 
L 3481 434 
z
" transform="scale(0.015625)"/>
       <path id="DejaVuSans-c5" d="M 2663 5081 
Q 2663 5278 2523 5417 
Q 2384 5556 2188 5556 
Q 1988 5556 1852 5420 
Q 1716 5284 1716 5081 
Q 1716 4884 1853 4746 
Q 1991 4609 2188 4609 
Q 2384 4609 2523 4746 
Q 2663 4884 2663 5081 
z
M 2188 4044 
L 1338 1722 
L 3041 1722 
L 2188 4044 
z
M 1716 4366 
Q 1525 4494 1428 4673 
Q 1331 4853 1331 5081 
Q 1331 5441 1579 5691 
Q 1828 5941 2188 5941 
Q 2544 5941 2795 5689 
Q 3047 5438 3047 5081 
Q 3047 4863 2948 4678 
Q 2850 4494 2663 4366 
L 4325 0 
L 3669 0 
L 3244 1197 
L 1141 1197 
L 716 0 
L 50 0 
L 1716 4366 
z
" transform="scale(0.015625)"/>
      </defs>
      <use xlink:href="#DejaVuSans-77"/>
      <use xlink:href="#DejaVuSans-61" transform="translate(81.787109 0)"/>
      <use xlink:href="#DejaVuSans-76" transform="translate(143.066406 0)"/>
      <use xlink:href="#DejaVuSans-65" transform="translate(202.246094 0)"/>
      <use xlink:href="#DejaVuSans-6c" transform="translate(263.769531 0)"/>
      <use xlink:href="#DejaVuSans-65" transform="translate(291.552734 0)"/>
      <use xlink:href="#DejaVuSans-6e" transform="translate(353.076172 0)"/>
      <use xlink:href="#DejaVuSans-67" transform="translate(416.455078 0)"/>
      <use xlink:href="#DejaVuSans-74" transform="translate(479.931641 0)"/>
      <use xlink:href="#DejaVuSans-68" transform="translate(519.140625 0)"/>
      <use xlink:href="#DejaVuSans-20" transform="translate(582.519531 0)"/>
      <use xlink:href="#DejaVuSans-5b" transform="translate(614.306641 0)"/>
      <use xlink:href="#DejaVuSans-c5" transform="translate(653.320312 0)"/>
      <use xlink:href="#DejaVuSans-5d" transform="translate(721.728516 0)"/>
     </g>
    </g>
   </g>
   <g id="matplotlib.axis_4">
    <g id="ytick_8">
     <g id="line2d_24">
      <g>
       <use xlink:href="#mebf1584ecc" x="486.647885" y="245.797127" style="stroke: #000000; stroke-width: 0.8"/>
      </g>
     </g>
     <g id="text_26">
      <!-- 0 -->
      <g transform="translate(473.285385 249.596346) scale(0.1 -0.1)">
       <use xlink:href="#DejaVuSans-30"/>
      </g>
     </g>
    </g>
    <g id="ytick_9">
     <g id="line2d_25">
      <g>
       <use xlink:href="#mebf1584ecc" x="486.647885" y="193.547102" style="stroke: #000000; stroke-width: 0.8"/>
      </g>
     </g>
     <g id="text_27">
      <!-- 1000 -->
      <g transform="translate(454.197885 197.346321) scale(0.1 -0.1)">
       <use xlink:href="#DejaVuSans-31"/>
       <use xlink:href="#DejaVuSans-30" transform="translate(63.623047 0)"/>
       <use xlink:href="#DejaVuSans-30" transform="translate(127.246094 0)"/>
       <use xlink:href="#DejaVuSans-30" transform="translate(190.869141 0)"/>
      </g>
     </g>
    </g>
    <g id="ytick_10">
     <g id="line2d_26">
      <g>
       <use xlink:href="#mebf1584ecc" x="486.647885" y="141.297077" style="stroke: #000000; stroke-width: 0.8"/>
      </g>
     </g>
     <g id="text_28">
      <!-- 2000 -->
      <g transform="translate(454.197885 145.096296) scale(0.1 -0.1)">
       <use xlink:href="#DejaVuSans-32"/>
       <use xlink:href="#DejaVuSans-30" transform="translate(63.623047 0)"/>
       <use xlink:href="#DejaVuSans-30" transform="translate(127.246094 0)"/>
       <use xlink:href="#DejaVuSans-30" transform="translate(190.869141 0)"/>
      </g>
     </g>
    </g>
    <g id="ytick_11">
     <g id="line2d_27">
      <g>
       <use xlink:href="#mebf1584ecc" x="486.647885" y="89.047052" style="stroke: #000000; stroke-width: 0.8"/>
      </g>
     </g>
     <g id="text_29">
      <!-- 3000 -->
      <g transform="translate(454.197885 92.846271) scale(0.1 -0.1)">
       <use xlink:href="#DejaVuSans-33"/>
       <use xlink:href="#DejaVuSans-30" transform="translate(63.623047 0)"/>
       <use xlink:href="#DejaVuSans-30" transform="translate(127.246094 0)"/>
       <use xlink:href="#DejaVuSans-30" transform="translate(190.869141 0)"/>
      </g>
     </g>
    </g>
    <g id="ytick_12">
     <g id="line2d_28">
      <g>
       <use xlink:href="#mebf1584ecc" x="486.647885" y="36.797027" style="stroke: #000000; stroke-width: 0.8"/>
      </g>
     </g>
     <g id="text_30">
      <!-- 4000 -->
      <g transform="translate(454.197885 40.596245) scale(0.1 -0.1)">
       <use xlink:href="#DejaVuSans-34"/>
       <use xlink:href="#DejaVuSans-30" transform="translate(63.623047 0)"/>
       <use xlink:href="#DejaVuSans-30" transform="translate(127.246094 0)"/>
       <use xlink:href="#DejaVuSans-30" transform="translate(190.869141 0)"/>
      </g>
     </g>
    </g>
    <g id="text_31">
     <!-- [counts] -->
     <g transform="translate(448.118197 152.791947) rotate(-90) scale(0.1 -0.1)">
      <use xlink:href="#DejaVuSans-5b"/>
      <use xlink:href="#DejaVuSans-63" transform="translate(39.013672 0)"/>
      <use xlink:href="#DejaVuSans-6f" transform="translate(93.994141 0)"/>
      <use xlink:href="#DejaVuSans-75" transform="translate(155.175781 0)"/>
      <use xlink:href="#DejaVuSans-6e" transform="translate(218.554688 0)"/>
      <use xlink:href="#DejaVuSans-74" transform="translate(281.933594 0)"/>
      <use xlink:href="#DejaVuSans-73" transform="translate(321.142578 0)"/>
      <use xlink:href="#DejaVuSans-5d" transform="translate(373.242188 0)"/>
     </g>
    </g>
   </g>
   <g id="line2d_29">
    <path d="M 503.854777 158.957585 
L 505.001904 158.957585 
L 505.001904 144.170828 
L 506.14903 144.170828 
L 506.14903 135.497324 
L 507.296156 135.497324 
L 507.296156 138.475576 
L 508.443282 138.475576 
L 508.443282 147.09683 
L 509.590408 147.09683 
L 509.590408 152.635332 
L 510.737534 152.635332 
L 510.737534 148.24633 
L 511.884661 148.24633 
L 511.884661 123.427568 
L 513.031787 123.427568 
L 513.031787 105.61031 
L 514.178913 105.61031 
L 514.178913 80.216798 
L 515.326039 80.216798 
L 515.326039 61.511289 
L 516.473165 61.511289 
L 516.473165 36.274526 
L 517.620291 36.274526 
L 517.620291 25.615521 
L 518.767418 25.615521 
L 518.767418 29.273023 
L 519.914544 29.273023 
L 519.914544 18.561768 
L 521.06167 18.561768 
L 521.06167 24.518271 
L 522.208796 24.518271 
L 522.208796 31.154024 
L 523.355922 31.154024 
L 523.355922 43.85078 
L 524.503048 43.85078 
L 524.503048 49.911783 
L 525.650175 49.911783 
L 525.650175 62.190539 
L 526.797301 62.190539 
L 526.797301 66.475041 
L 527.944427 66.475041 
L 527.944427 81.627548 
L 529.091553 81.627548 
L 529.091553 89.308302 
L 530.238679 89.308302 
L 530.238679 91.346053 
L 531.385805 91.346053 
L 531.385805 97.668306 
L 532.532932 97.668306 
L 532.532932 98.713306 
L 533.680058 98.713306 
L 533.680058 99.079057 
L 534.827184 99.079057 
L 534.827184 96.727805 
L 535.97431 96.727805 
L 535.97431 95.526055 
L 537.121436 95.526055 
L 537.121436 86.748051 
L 538.268562 86.748051 
L 538.268562 78.701547 
L 539.415689 78.701547 
L 539.415689 70.707293 
L 540.562815 70.707293 
L 540.562815 64.22829 
L 541.709941 64.22829 
L 541.709941 49.493783 
L 542.857067 49.493783 
L 542.857067 48.292032 
L 544.004193 48.292032 
L 544.004193 40.820279 
L 545.151319 40.820279 
L 545.151319 37.319527 
L 546.298446 37.319527 
L 546.298446 40.245528 
L 547.445572 40.245528 
L 547.445572 58.062787 
L 548.592698 58.062787 
L 548.592698 68.251542 
L 549.739824 68.251542 
L 549.739824 66.893041 
L 550.88695 66.893041 
L 550.88695 80.896048 
L 552.034076 80.896048 
L 552.034076 87.740801 
L 553.181203 87.740801 
L 553.181203 98.504306 
L 554.328329 98.504306 
L 554.328329 104.147309 
L 555.475455 104.147309 
L 555.475455 113.134313 
L 556.622581 113.134313 
L 556.622581 123.270818 
L 557.769707 123.270818 
L 557.769707 127.45082 
L 558.916833 127.45082 
L 558.916833 131.265072 
L 560.06396 131.265072 
L 560.06396 135.654074 
L 561.211086 135.654074 
L 561.211086 142.551077 
L 562.358212 142.551077 
L 562.358212 148.19408 
L 563.505338 148.19408 
L 563.505338 152.739832 
L 564.652464 152.739832 
L 564.652464 155.770334 
L 565.79959 155.770334 
L 565.79959 159.480086 
L 566.946717 159.480086 
L 566.946717 165.906839 
L 568.093843 165.906839 
L 568.093843 169.25084 
L 569.240969 169.25084 
L 569.240969 174.214593 
L 570.388095 174.214593 
L 570.388095 177.924344 
L 571.535221 177.924344 
L 571.535221 182.104346 
L 572.682347 182.104346 
L 572.682347 183.724097 
L 573.829474 183.724097 
L 573.829474 186.179848 
L 574.9766 186.179848 
L 574.9766 190.3076 
L 576.123726 190.3076 
L 576.123726 190.568851 
L 577.270852 190.568851 
L 577.270852 196.316353 
L 578.417978 196.316353 
L 578.417978 193.912852 
L 579.565104 193.912852 
L 579.565104 196.891104 
L 580.712231 196.891104 
L 580.712231 202.429606 
L 581.859357 202.429606 
L 581.859357 203.892607 
L 583.006483 203.892607 
L 583.006483 202.377356 
L 584.153609 202.377356 
L 584.153609 209.95361 
L 585.300735 209.95361 
L 585.300735 207.027608 
L 586.447861 207.027608 
L 586.447861 211.834611 
L 587.594988 211.834611 
L 587.594988 210.16261 
L 588.742114 210.16261 
L 588.742114 212.566111 
L 589.88924 212.566111 
L 589.88924 215.439862 
L 591.036366 215.439862 
L 591.036366 213.454362 
L 592.183492 213.454362 
L 592.183492 215.962363 
L 593.330618 215.962363 
L 593.330618 217.164113 
L 594.477745 217.164113 
L 594.477745 218.209114 
L 595.624871 218.209114 
L 595.624871 219.933365 
L 596.771997 219.933365 
L 596.771997 222.441366 
L 597.919123 222.441366 
L 597.919123 221.187365 
L 599.066249 221.187365 
L 599.066249 223.172866 
L 600.213375 223.172866 
L 600.213375 224.949367 
L 601.360502 224.949367 
L 601.360502 223.904367 
L 602.507628 223.904367 
L 602.507628 226.725868 
L 603.654754 226.725868 
L 603.654754 226.516868 
L 604.80188 226.516868 
L 604.80188 228.815869 
L 605.949006 228.815869 
L 605.949006 228.136619 
L 607.096132 228.136619 
L 607.096132 228.920369 
L 608.243259 228.920369 
L 608.243259 230.069869 
L 609.390385 230.069869 
L 609.390385 229.547369 
L 610.537511 229.547369 
L 610.537511 230.43562 
L 611.684637 230.43562 
L 611.684637 230.59237 
L 612.831763 230.59237 
L 612.831763 230.33112 
L 613.978889 230.33112 
L 613.978889 232.15987 
L 615.126016 232.15987 
L 615.126016 233.100371 
L 616.273142 233.100371 
L 616.273142 232.839121 
L 618.567394 232.734621 
L 618.567394 234.093121 
L 619.71452 234.093121 
L 619.71452 234.563372 
L 620.861646 234.563372 
L 620.861646 234.720122 
L 622.008773 234.720122 
L 622.008773 235.712872 
L 623.155899 235.712872 
L 623.155899 236.235372 
L 624.303025 236.235372 
L 624.303025 235.347122 
L 625.450151 235.347122 
L 625.450151 237.437123 
L 626.597277 237.437123 
L 626.597277 236.496623 
L 627.744403 236.496623 
L 627.744403 236.757873 
L 628.89153 236.757873 
L 628.89153 236.548873 
L 630.038656 236.548873 
L 630.038656 237.280373 
L 631.185782 237.280373 
L 631.185782 238.691124 
L 632.332908 238.691124 
L 632.332908 239.422624 
L 633.480034 239.422624 
L 633.480034 237.646123 
L 634.62716 237.646123 
L 634.62716 238.795624 
L 635.774287 238.795624 
L 635.774287 239.004624 
L 636.921413 239.004624 
L 636.921413 239.631624 
L 638.068539 239.631624 
L 638.068539 238.952374 
L 639.215665 238.952374 
L 639.215665 239.945124 
L 640.362791 239.945124 
L 640.362791 240.206374 
L 641.509917 240.206374 
L 641.509917 241.512625 
L 642.657044 241.512625 
L 642.657044 240.049624 
L 643.80417 240.049624 
L 643.80417 241.460375 
L 644.951296 241.460375 
L 644.951296 241.042375 
L 646.098422 241.042375 
L 646.098422 241.303625 
L 647.245548 241.303625 
L 647.245548 241.617125 
L 648.392674 241.617125 
L 648.392674 240.728875 
L 649.539801 240.728875 
L 649.539801 240.937875 
L 650.686927 240.937875 
L 650.686927 241.460375 
L 652.981179 241.564875 
L 652.981179 240.937875 
L 654.128305 240.937875 
L 654.128305 241.669375 
L 655.275431 241.669375 
L 655.275431 242.505375 
L 656.422558 242.505375 
L 656.422558 242.714376 
L 657.569684 242.714376 
L 657.569684 242.035125 
L 659.863936 242.139625 
L 659.863936 242.400875 
L 661.011062 242.400875 
L 661.011062 241.826125 
L 662.158188 241.826125 
L 662.158188 242.348625 
L 663.305315 242.348625 
L 663.305315 242.714376 
L 664.452441 242.714376 
L 664.452441 242.453125 
L 665.599567 242.453125 
L 665.599567 243.027876 
L 667.893819 242.923376 
L 667.893819 242.871126 
L 669.040945 242.871126 
L 669.040945 243.080126 
L 670.188072 243.080126 
L 670.188072 243.289126 
L 671.335198 243.289126 
L 671.335198 242.975626 
L 672.482324 242.975626 
L 672.482324 243.289126 
L 673.62945 243.289126 
L 673.62945 243.080126 
L 674.776576 243.080126 
L 674.776576 243.654876 
L 675.923702 243.654876 
L 675.923702 243.498126 
L 679.365081 243.445876 
L 679.365081 243.811626 
L 680.512207 243.811626 
L 680.512207 243.968376 
L 682.806459 244.020626 
L 682.806459 243.498126 
L 683.953586 243.498126 
L 683.953586 244.177376 
L 685.100712 244.177376 
L 685.100712 243.968376 
L 687.394964 244.072876 
L 687.394964 244.125126 
L 688.54209 244.125126 
L 688.54209 243.707126 
L 689.689216 243.707126 
L 689.689216 244.229626 
L 693.130595 244.177376 
L 693.130595 243.759376 
L 694.277721 243.759376 
L 694.277721 244.490876 
L 695.424847 244.490876 
L 695.424847 243.863876 
L 696.571973 243.863876 
L 696.571973 244.438626 
L 697.7191 244.438626 
L 697.7191 244.699877 
L 698.866226 244.699877 
L 698.866226 244.334126 
L 702.307604 244.438626 
L 702.307604 244.543126 
L 704.601857 244.438626 
L 704.601857 243.968376 
L 705.748983 243.968376 
L 705.748983 244.543126 
L 709.190361 244.647626 
L 709.190361 244.281876 
L 710.337487 244.281876 
L 710.337487 245.170127 
L 711.484614 245.170127 
L 711.484614 244.229626 
L 712.63174 244.229626 
L 712.63174 244.856627 
L 713.778866 244.856627 
L 713.778866 245.013377 
L 714.925992 245.013377 
L 714.925992 244.595376 
L 717.220244 244.595376 
L 717.220244 245.013377 
L 718.367371 245.013377 
L 718.367371 244.543126 
L 720.661623 244.647626 
L 720.661623 244.856627 
L 724.103001 244.856627 
L 724.103001 244.699877 
L 725.250128 244.699877 
L 725.250128 245.117877 
L 727.54438 245.013377 
L 727.54438 244.961127 
L 729.838632 244.961127 
L 729.838632 245.222377 
L 730.985758 245.222377 
L 730.985758 244.752127 
L 732.132885 244.752127 
L 732.132885 244.961127 
L 739.015642 245.013377 
L 739.015642 245.170127 
L 742.45702 245.117877 
L 742.45702 245.013377 
L 744.751272 244.961127 
L 744.751272 245.379127 
L 745.898399 245.379127 
L 745.898399 244.961127 
L 747.045525 244.961127 
L 747.045525 245.170127 
L 748.192651 245.170127 
L 748.192651 245.326877 
L 752.781156 245.274627 
L 752.781156 245.065627 
L 753.928282 245.065627 
L 753.928282 245.222377 
L 755.075408 245.222377 
L 755.075408 244.804377 
L 756.222534 244.804377 
L 756.222534 245.588127 
L 757.36966 245.588127 
L 757.36966 245.326877 
L 759.663913 245.326877 
L 759.663913 245.588127 
L 761.958165 245.535877 
L 761.958165 245.117877 
L 763.105291 245.117877 
L 763.105291 245.483627 
L 764.252417 245.483627 
L 764.252417 245.640377 
L 765.399543 245.640377 
L 765.399543 245.431377 
L 766.54667 245.431377 
L 766.54667 245.692627 
L 767.693796 245.692627 
L 767.693796 245.431377 
L 771.135174 245.379127 
L 771.135174 245.640377 
L 773.429427 245.640377 
L 773.429427 245.431377 
L 774.576553 245.431377 
L 774.576553 245.274627 
L 775.723679 245.274627 
L 775.723679 245.588127 
L 780.312184 245.483627 
L 780.312184 245.431377 
L 786.047814 245.535877 
L 786.047814 245.692627 
L 788.342067 245.744877 
L 788.342067 245.431377 
L 789.489193 245.431377 
L 789.489193 245.588127 
L 802.107581 245.640377 
L 802.107581 245.744877 
L 805.548959 245.640377 
L 805.548959 245.535877 
L 811.28459 245.535877 
L 811.28459 245.692627 
L 820.461599 245.692627 
L 820.461599 245.535877 
L 823.902978 245.483627 
L 823.902978 245.692627 
L 827.344357 245.692627 
L 827.344357 245.431377 
L 828.491483 245.431377 
L 828.491483 245.797127 
L 831.932861 245.692627 
L 831.932861 245.588127 
L 833.079987 245.588127 
L 833.079987 245.744877 
L 836.521366 245.692627 
L 836.521366 245.535877 
L 838.815618 245.640377 
L 838.815618 245.692627 
L 839.962744 245.692627 
L 839.962744 245.535877 
L 841.10987 245.535877 
L 841.10987 245.744877 
L 847.992627 245.640377 
L 847.992627 245.640377 
" clip-path="url(#p054b1a51ba)" style="fill: none; stroke: #1f77b4; stroke-width: 1.5; stroke-linecap: square"/>
   </g>
   <g id="patch_8">
    <path d="M 486.647885 257.158895 
L 486.647885 7.2 
" style="fill: none; stroke: #000000; stroke-width: 0.8; stroke-linejoin: miter; stroke-linecap: square"/>
   </g>
   <g id="patch_9">
    <path d="M 865.19952 257.158895 
L 865.19952 7.2 
" style="fill: none; stroke: #000000; stroke-width: 0.8; stroke-linejoin: miter; stroke-linecap: square"/>
   </g>
   <g id="patch_10">
    <path d="M 486.647885 257.158895 
L 865.19952 257.158895 
" style="fill: none; stroke: #000000; stroke-width: 0.8; stroke-linejoin: miter; stroke-linecap: square"/>
   </g>
   <g id="patch_11">
    <path d="M 486.647885 7.2 
L 865.19952 7.2 
" style="fill: none; stroke: #000000; stroke-width: 0.8; stroke-linejoin: miter; stroke-linecap: square"/>
   </g>
  </g>
 </g>
 <defs>
  <clipPath id="pbb19a94254">
   <rect x="53.328125" y="7.2" width="378.551635" height="249.958895"/>
  </clipPath>
  <clipPath id="p054b1a51ba">
   <rect x="486.647885" y="7.2" width="378.551635" height="249.958895"/>
  </clipPath>
 </defs>
</svg>
