<?xml version="1.0" encoding="utf-8" standalone="no"?>
<!DOCTYPE svg PUBLIC "-//W3C//DTD SVG 1.1//EN"
  "http://www.w3.org/Graphics/SVG/1.1/DTD/svg11.dtd">
<svg xmlns:xlink="http://www.w3.org/1999/xlink" width="388.965625pt" height="268.691937pt" viewBox="0 0 388.965625 268.691937" xmlns="http://www.w3.org/2000/svg" version="1.1">
 <metadata>
  <rdf:RDF xmlns:dc="http://purl.org/dc/elements/1.1/" xmlns:cc="http://creativecommons.org/ns#" xmlns:rdf="http://www.w3.org/1999/02/22-rdf-syntax-ns#">
   <cc:Work>
    <dc:type rdf:resource="http://purl.org/dc/dcmitype/StillImage"/>
    <dc:date>2025-11-27T11:57:47.392637</dc:date>
    <dc:format>image/svg+xml</dc:format>
    <dc:creator>
     <cc:Agent>
      <dc:title>Matplotlib v3.10.7, https://matplotlib.org/</dc:title>
     </cc:Agent>
    </dc:creator>
   </cc:Work>
  </rdf:RDF>
 </metadata>
 <defs>
  <style type="text/css">*{stroke-linejoin: round; stroke-linecap: butt}</style>
 </defs>
 <g id="figure_1">
  <g id="patch_1">
   <path d="M 0 268.691937 
L 388.965625 268.691937 
L 388.965625 0 
L 0 0 
z
" style="fill: #ffffff"/>
  </g>
  <g id="axes_1">
   <g id="patch_2">
    <path d="M 46.965625 229.451312 
L 381.765625 229.451312 
L 381.765625 7.691312 
L 46.965625 7.691312 
z
" style="fill: #ffffff"/>
   </g>
   <g id="matplotlib.axis_1">
    <g id="xtick_1">
     <g id="line2d_1">
      <defs>
       <path id="m6175e6209f" d="M 0 0 
L 0 3.5 
" style="stroke: #000000; stroke-width: 0.8"/>
      </defs>
      <g>
       <use xlink:href="#m6175e6209f" x="78.202946" y="229.451312" style="stroke: #000000; stroke-width: 0.8"/>
      </g>
     </g>
     <g id="text_1">
      <!-- 1.0 -->
      <g transform="translate(70.251383 244.049749) scale(0.1 -0.1)">
       <defs>
        <path id="DejaVuSans-31" d="M 794 531 
L 1825 531 
L 1825 4091 
L 703 3866 
L 703 4441 
L 1819 4666 
L 2450 4666 
L 2450 531 
L 3481 531 
L 3481 0 
L 794 0 
L 794 531 
z
" transform="scale(0.015625)"/>
        <path id="DejaVuSans-2e" d="M 684 794 
L 1344 794 
L 1344 0 
L 684 0 
L 684 794 
z
" transform="scale(0.015625)"/>
        <path id="DejaVuSans-30" d="M 2034 4250 
Q 1547 4250 1301 3770 
Q 1056 3291 1056 2328 
Q 1056 1369 1301 889 
Q 1547 409 2034 409 
Q 2525 409 2770 889 
Q 3016 1369 3016 2328 
Q 3016 3291 2770 3770 
Q 2525 4250 2034 4250 
z
M 2034 4750 
Q 2819 4750 3233 4129 
Q 3647 3509 3647 2328 
Q 3647 1150 3233 529 
Q 2819 -91 2034 -91 
Q 1250 -91 836 529 
Q 422 1150 422 2328 
Q 422 3509 836 4129 
Q 1250 4750 2034 4750 
z
" transform="scale(0.015625)"/>
       </defs>
       <use xlink:href="#DejaVuSans-31"/>
       <use xlink:href="#DejaVuSans-2e" transform="translate(63.623047 0)"/>
       <use xlink:href="#DejaVuSans-30" transform="translate(95.410156 0)"/>
      </g>
     </g>
    </g>
    <g id="xtick_2">
     <g id="line2d_2">
      <g>
       <use xlink:href="#m6175e6209f" x="118.250792" y="229.451312" style="stroke: #000000; stroke-width: 0.8"/>
      </g>
     </g>
     <g id="text_2">
      <!-- 1.5 -->
      <g transform="translate(110.29923 244.049749) scale(0.1 -0.1)">
       <defs>
        <path id="DejaVuSans-35" d="M 691 4666 
L 3169 4666 
L 3169 4134 
L 1269 4134 
L 1269 2991 
Q 1406 3038 1543 3061 
Q 1681 3084 1819 3084 
Q 2600 3084 3056 2656 
Q 3513 2228 3513 1497 
Q 3513 744 3044 326 
Q 2575 -91 1722 -91 
Q 1428 -91 1123 -41 
Q 819 9 494 109 
L 494 744 
Q 775 591 1075 516 
Q 1375 441 1709 441 
Q 2250 441 2565 725 
Q 2881 1009 2881 1497 
Q 2881 1984 2565 2268 
Q 2250 2553 1709 2553 
Q 1456 2553 1204 2497 
Q 953 2441 691 2322 
L 691 4666 
z
" transform="scale(0.015625)"/>
       </defs>
       <use xlink:href="#DejaVuSans-31"/>
       <use xlink:href="#DejaVuSans-2e" transform="translate(63.623047 0)"/>
       <use xlink:href="#DejaVuSans-35" transform="translate(95.410156 0)"/>
      </g>
     </g>
    </g>
    <g id="xtick_3">
     <g id="line2d_3">
      <g>
       <use xlink:href="#m6175e6209f" x="158.298639" y="229.451312" style="stroke: #000000; stroke-width: 0.8"/>
      </g>
     </g>
     <g id="text_3">
      <!-- 2.0 -->
      <g transform="translate(150.347077 244.049749) scale(0.1 -0.1)">
       <defs>
        <path id="DejaVuSans-32" d="M 1228 531 
L 3431 531 
L 3431 0 
L 469 0 
L 469 531 
Q 828 903 1448 1529 
Q 2069 2156 2228 2338 
Q 2531 2678 2651 2914 
Q 2772 3150 2772 3378 
Q 2772 3750 2511 3984 
Q 2250 4219 1831 4219 
Q 1534 4219 1204 4116 
Q 875 4013 500 3803 
L 500 4441 
Q 881 4594 1212 4672 
Q 1544 4750 1819 4750 
Q 2544 4750 2975 4387 
Q 3406 4025 3406 3419 
Q 3406 3131 3298 2873 
Q 3191 2616 2906 2266 
Q 2828 2175 2409 1742 
Q 1991 1309 1228 531 
z
" transform="scale(0.015625)"/>
       </defs>
       <use xlink:href="#DejaVuSans-32"/>
       <use xlink:href="#DejaVuSans-2e" transform="translate(63.623047 0)"/>
       <use xlink:href="#DejaVuSans-30" transform="translate(95.410156 0)"/>
      </g>
     </g>
    </g>
    <g id="xtick_4">
     <g id="line2d_4">
      <g>
       <use xlink:href="#m6175e6209f" x="198.346486" y="229.451312" style="stroke: #000000; stroke-width: 0.8"/>
      </g>
     </g>
     <g id="text_4">
      <!-- 2.5 -->
      <g transform="translate(190.394924 244.049749) scale(0.1 -0.1)">
       <use xlink:href="#DejaVuSans-32"/>
       <use xlink:href="#DejaVuSans-2e" transform="translate(63.623047 0)"/>
       <use xlink:href="#DejaVuSans-35" transform="translate(95.410156 0)"/>
      </g>
     </g>
    </g>
    <g id="xtick_5">
     <g id="line2d_5">
      <g>
       <use xlink:href="#m6175e6209f" x="238.394333" y="229.451312" style="stroke: #000000; stroke-width: 0.8"/>
      </g>
     </g>
     <g id="text_5">
      <!-- 3.0 -->
      <g transform="translate(230.442771 244.049749) scale(0.1 -0.1)">
       <defs>
        <path id="DejaVuSans-33" d="M 2597 2516 
Q 3050 2419 3304 2112 
Q 3559 1806 3559 1356 
Q 3559 666 3084 287 
Q 2609 -91 1734 -91 
Q 1441 -91 1130 -33 
Q 819 25 488 141 
L 488 750 
Q 750 597 1062 519 
Q 1375 441 1716 441 
Q 2309 441 2620 675 
Q 2931 909 2931 1356 
Q 2931 1769 2642 2001 
Q 2353 2234 1838 2234 
L 1294 2234 
L 1294 2753 
L 1863 2753 
Q 2328 2753 2575 2939 
Q 2822 3125 2822 3475 
Q 2822 3834 2567 4026 
Q 2313 4219 1838 4219 
Q 1578 4219 1281 4162 
Q 984 4106 628 3988 
L 628 4550 
Q 988 4650 1302 4700 
Q 1616 4750 1894 4750 
Q 2613 4750 3031 4423 
Q 3450 4097 3450 3541 
Q 3450 3153 3228 2886 
Q 3006 2619 2597 2516 
z
" transform="scale(0.015625)"/>
       </defs>
       <use xlink:href="#DejaVuSans-33"/>
       <use xlink:href="#DejaVuSans-2e" transform="translate(63.623047 0)"/>
       <use xlink:href="#DejaVuSans-30" transform="translate(95.410156 0)"/>
      </g>
     </g>
    </g>
    <g id="xtick_6">
     <g id="line2d_6">
      <g>
       <use xlink:href="#m6175e6209f" x="278.44218" y="229.451312" style="stroke: #000000; stroke-width: 0.8"/>
      </g>
     </g>
     <g id="text_6">
      <!-- 3.5 -->
      <g transform="translate(270.490618 244.049749) scale(0.1 -0.1)">
       <use xlink:href="#DejaVuSans-33"/>
       <use xlink:href="#DejaVuSans-2e" transform="translate(63.623047 0)"/>
       <use xlink:href="#DejaVuSans-35" transform="translate(95.410156 0)"/>
      </g>
     </g>
    </g>
    <g id="xtick_7">
     <g id="line2d_7">
      <g>
       <use xlink:href="#m6175e6209f" x="318.490027" y="229.451312" style="stroke: #000000; stroke-width: 0.8"/>
      </g>
     </g>
     <g id="text_7">
      <!-- 4.0 -->
      <g transform="translate(310.538464 244.049749) scale(0.1 -0.1)">
       <defs>
        <path id="DejaVuSans-34" d="M 2419 4116 
L 825 1625 
L 2419 1625 
L 2419 4116 
z
M 2253 4666 
L 3047 4666 
L 3047 1625 
L 3713 1625 
L 3713 1100 
L 3047 1100 
L 3047 0 
L 2419 0 
L 2419 1100 
L 313 1100 
L 313 1709 
L 2253 4666 
z
" transform="scale(0.015625)"/>
       </defs>
       <use xlink:href="#DejaVuSans-34"/>
       <use xlink:href="#DejaVuSans-2e" transform="translate(63.623047 0)"/>
       <use xlink:href="#DejaVuSans-30" transform="translate(95.410156 0)"/>
      </g>
     </g>
    </g>
    <g id="xtick_8">
     <g id="line2d_8">
      <g>
       <use xlink:href="#m6175e6209f" x="358.537874" y="229.451312" style="stroke: #000000; stroke-width: 0.8"/>
      </g>
     </g>
     <g id="text_8">
      <!-- 4.5 -->
      <g transform="translate(350.586311 244.049749) scale(0.1 -0.1)">
       <use xlink:href="#DejaVuSans-34"/>
       <use xlink:href="#DejaVuSans-2e" transform="translate(63.623047 0)"/>
       <use xlink:href="#DejaVuSans-35" transform="translate(95.410156 0)"/>
      </g>
     </g>
    </g>
    <g id="text_9">
     <!-- wavelength [Å] -->
     <g transform="translate(176.328125 259.412249) scale(0.1 -0.1)">
      <defs>
       <path id="DejaVuSans-77" d="M 269 3500 
L 844 3500 
L 1563 769 
L 2278 3500 
L 2956 3500 
L 3675 769 
L 4391 3500 
L 4966 3500 
L 4050 0 
L 3372 0 
L 2619 2869 
L 1863 0 
L 1184 0 
L 269 3500 
z
" transform="scale(0.015625)"/>
       <path id="DejaVuSans-61" d="M 2194 1759 
Q 1497 1759 1228 1600 
Q 959 1441 959 1056 
Q 959 750 1161 570 
Q 1363 391 1709 391 
Q 2188 391 2477 730 
Q 2766 1069 2766 1631 
L 2766 1759 
L 2194 1759 
z
M 3341 1997 
L 3341 0 
L 2766 0 
L 2766 531 
Q 2569 213 2275 61 
Q 1981 -91 1556 -91 
Q 1019 -91 701 211 
Q 384 513 384 1019 
Q 384 1609 779 1909 
Q 1175 2209 1959 2209 
L 2766 2209 
L 2766 2266 
Q 2766 2663 2505 2880 
Q 2244 3097 1772 3097 
Q 1472 3097 1187 3025 
Q 903 2953 641 2809 
L 641 3341 
Q 956 3463 1253 3523 
Q 1550 3584 1831 3584 
Q 2591 3584 2966 3190 
Q 3341 2797 3341 1997 
z
" transform="scale(0.015625)"/>
       <path id="DejaVuSans-76" d="M 191 3500 
L 800 3500 
L 1894 563 
L 2988 3500 
L 3597 3500 
L 2284 0 
L 1503 0 
L 191 3500 
z
" transform="scale(0.015625)"/>
       <path id="DejaVuSans-65" d="M 3597 1894 
L 3597 1613 
L 953 1613 
Q 991 1019 1311 708 
Q 1631 397 2203 397 
Q 2534 397 2845 478 
Q 3156 559 3463 722 
L 3463 178 
Q 3153 47 2828 -22 
Q 2503 -91 2169 -91 
Q 1331 -91 842 396 
Q 353 884 353 1716 
Q 353 2575 817 3079 
Q 1281 3584 2069 3584 
Q 2775 3584 3186 3129 
Q 3597 2675 3597 1894 
z
M 3022 2063 
Q 3016 2534 2758 2815 
Q 2500 3097 2075 3097 
Q 1594 3097 1305 2825 
Q 1016 2553 972 2059 
L 3022 2063 
z
" transform="scale(0.015625)"/>
       <path id="DejaVuSans-6c" d="M 603 4863 
L 1178 4863 
L 1178 0 
L 603 0 
L 603 4863 
z
" transform="scale(0.015625)"/>
       <path id="DejaVuSans-6e" d="M 3513 2113 
L 3513 0 
L 2938 0 
L 2938 2094 
Q 2938 2591 2744 2837 
Q 2550 3084 2163 3084 
Q 1697 3084 1428 2787 
Q 1159 2491 1159 1978 
L 1159 0 
L 581 0 
L 581 3500 
L 1159 3500 
L 1159 2956 
Q 1366 3272 1645 3428 
Q 1925 3584 2291 3584 
Q 2894 3584 3203 3211 
Q 3513 2838 3513 2113 
z
" transform="scale(0.015625)"/>
       <path id="DejaVuSans-67" d="M 2906 1791 
Q 2906 2416 2648 2759 
Q 2391 3103 1925 3103 
Q 1463 3103 1205 2759 
Q 947 2416 947 1791 
Q 947 1169 1205 825 
Q 1463 481 1925 481 
Q 2391 481 2648 825 
Q 2906 1169 2906 1791 
z
M 3481 434 
Q 3481 -459 3084 -895 
Q 2688 -1331 1869 -1331 
Q 1566 -1331 1297 -1286 
Q 1028 -1241 775 -1147 
L 775 -588 
Q 1028 -725 1275 -790 
Q 1522 -856 1778 -856 
Q 2344 -856 2625 -561 
Q 2906 -266 2906 331 
L 2906 616 
Q 2728 306 2450 153 
Q 2172 0 1784 0 
Q 1141 0 747 490 
Q 353 981 353 1791 
Q 353 2603 747 3093 
Q 1141 3584 1784 3584 
Q 2172 3584 2450 3431 
Q 2728 3278 2906 2969 
L 2906 3500 
L 3481 3500 
L 3481 434 
z
" transform="scale(0.015625)"/>
       <path id="DejaVuSans-74" d="M 1172 4494 
L 1172 3500 
L 2356 3500 
L 2356 3053 
L 1172 3053 
L 1172 1153 
Q 1172 725 1289 603 
Q 1406 481 1766 481 
L 2356 481 
L 2356 0 
L 1766 0 
Q 1100 0 847 248 
Q 594 497 594 1153 
L 594 3053 
L 172 3053 
L 172 3500 
L 594 3500 
L 594 4494 
L 1172 4494 
z
" transform="scale(0.015625)"/>
       <path id="DejaVuSans-68" d="M 3513 2113 
L 3513 0 
L 2938 0 
L 2938 2094 
Q 2938 2591 2744 2837 
Q 2550 3084 2163 3084 
Q 1697 3084 1428 2787 
Q 1159 2491 1159 1978 
L 1159 0 
L 581 0 
L 581 4863 
L 1159 4863 
L 1159 2956 
Q 1366 3272 1645 3428 
Q 1925 3584 2291 3584 
Q 2894 3584 3203 3211 
Q 3513 2838 3513 2113 
z
" transform="scale(0.015625)"/>
       <path id="DejaVuSans-20" transform="scale(0.015625)"/>
       <path id="DejaVuSans-5b" d="M 550 4863 
L 1875 4863 
L 1875 4416 
L 1125 4416 
L 1125 -397 
L 1875 -397 
L 1875 -844 
L 550 -844 
L 550 4863 
z
" transform="scale(0.015625)"/>
       <path id="DejaVuSans-c5" d="M 2663 5081 
Q 2663 5278 2523 5417 
Q 2384 5556 2188 5556 
Q 1988 5556 1852 5420 
Q 1716 5284 1716 5081 
Q 1716 4884 1853 4746 
Q 1991 4609 2188 4609 
Q 2384 4609 2523 4746 
Q 2663 4884 2663 5081 
z
M 2188 4044 
L 1338 1722 
L 3041 1722 
L 2188 4044 
z
M 1716 4366 
Q 1525 4494 1428 4673 
Q 1331 4853 1331 5081 
Q 1331 5441 1579 5691 
Q 1828 5941 2188 5941 
Q 2544 5941 2795 5689 
Q 3047 5438 3047 5081 
Q 3047 4863 2948 4678 
Q 2850 4494 2663 4366 
L 4325 0 
L 3669 0 
L 3244 1197 
L 1141 1197 
L 716 0 
L 50 0 
L 1716 4366 
z
" transform="scale(0.015625)"/>
       <path id="DejaVuSans-5d" d="M 1947 4863 
L 1947 -844 
L 622 -844 
L 622 -397 
L 1369 -397 
L 1369 4416 
L 622 4416 
L 622 4863 
L 1947 4863 
z
" transform="scale(0.015625)"/>
      </defs>
      <use xlink:href="#DejaVuSans-77"/>
      <use xlink:href="#DejaVuSans-61" transform="translate(81.787109 0)"/>
      <use xlink:href="#DejaVuSans-76" transform="translate(143.066406 0)"/>
      <use xlink:href="#DejaVuSans-65" transform="translate(202.246094 0)"/>
      <use xlink:href="#DejaVuSans-6c" transform="translate(263.769531 0)"/>
      <use xlink:href="#DejaVuSans-65" transform="translate(291.552734 0)"/>
      <use xlink:href="#DejaVuSans-6e" transform="translate(353.076172 0)"/>
      <use xlink:href="#DejaVuSans-67" transform="translate(416.455078 0)"/>
      <use xlink:href="#DejaVuSans-74" transform="translate(479.931641 0)"/>
      <use xlink:href="#DejaVuSans-68" transform="translate(519.140625 0)"/>
      <use xlink:href="#DejaVuSans-20" transform="translate(582.519531 0)"/>
      <use xlink:href="#DejaVuSans-5b" transform="translate(614.306641 0)"/>
      <use xlink:href="#DejaVuSans-c5" transform="translate(653.320312 0)"/>
      <use xlink:href="#DejaVuSans-5d" transform="translate(721.728516 0)"/>
     </g>
    </g>
   </g>
   <g id="matplotlib.axis_2">
    <g id="ytick_1">
     <g id="line2d_9">
      <defs>
       <path id="m6d7cc78659" d="M 0 0 
L -3.5 0 
" style="stroke: #000000; stroke-width: 0.8"/>
      </defs>
      <g>
       <use xlink:href="#m6d7cc78659" x="46.965625" y="219.371312" style="stroke: #000000; stroke-width: 0.8"/>
      </g>
     </g>
     <g id="text_10">
      <!-- 0 -->
      <g transform="translate(33.603125 223.170531) scale(0.1 -0.1)">
       <use xlink:href="#DejaVuSans-30"/>
      </g>
     </g>
    </g>
    <g id="ytick_2">
     <g id="line2d_10">
      <g>
       <use xlink:href="#m6d7cc78659" x="46.965625" y="193.3248" style="stroke: #000000; stroke-width: 0.8"/>
      </g>
     </g>
     <g id="text_11">
      <!-- 100 -->
      <g transform="translate(20.878125 197.124019) scale(0.1 -0.1)">
       <use xlink:href="#DejaVuSans-31"/>
       <use xlink:href="#DejaVuSans-30" transform="translate(63.623047 0)"/>
       <use xlink:href="#DejaVuSans-30" transform="translate(127.246094 0)"/>
      </g>
     </g>
    </g>
    <g id="ytick_3">
     <g id="line2d_11">
      <g>
       <use xlink:href="#m6d7cc78659" x="46.965625" y="167.278289" style="stroke: #000000; stroke-width: 0.8"/>
      </g>
     </g>
     <g id="text_12">
      <!-- 200 -->
      <g transform="translate(20.878125 171.077507) scale(0.1 -0.1)">
       <use xlink:href="#DejaVuSans-32"/>
       <use xlink:href="#DejaVuSans-30" transform="translate(63.623047 0)"/>
       <use xlink:href="#DejaVuSans-30" transform="translate(127.246094 0)"/>
      </g>
     </g>
    </g>
    <g id="ytick_4">
     <g id="line2d_12">
      <g>
       <use xlink:href="#m6d7cc78659" x="46.965625" y="141.231777" style="stroke: #000000; stroke-width: 0.8"/>
      </g>
     </g>
     <g id="text_13">
      <!-- 300 -->
      <g transform="translate(20.878125 145.030996) scale(0.1 -0.1)">
       <use xlink:href="#DejaVuSans-33"/>
       <use xlink:href="#DejaVuSans-30" transform="translate(63.623047 0)"/>
       <use xlink:href="#DejaVuSans-30" transform="translate(127.246094 0)"/>
      </g>
     </g>
    </g>
    <g id="ytick_5">
     <g id="line2d_13">
      <g>
       <use xlink:href="#m6d7cc78659" x="46.965625" y="115.185265" style="stroke: #000000; stroke-width: 0.8"/>
      </g>
     </g>
     <g id="text_14">
      <!-- 400 -->
      <g transform="translate(20.878125 118.984484) scale(0.1 -0.1)">
       <use xlink:href="#DejaVuSans-34"/>
       <use xlink:href="#DejaVuSans-30" transform="translate(63.623047 0)"/>
       <use xlink:href="#DejaVuSans-30" transform="translate(127.246094 0)"/>
      </g>
     </g>
    </g>
    <g id="ytick_6">
     <g id="line2d_14">
      <g>
       <use xlink:href="#m6d7cc78659" x="46.965625" y="89.138754" style="stroke: #000000; stroke-width: 0.8"/>
      </g>
     </g>
     <g id="text_15">
      <!-- 500 -->
      <g transform="translate(20.878125 92.937972) scale(0.1 -0.1)">
       <use xlink:href="#DejaVuSans-35"/>
       <use xlink:href="#DejaVuSans-30" transform="translate(63.623047 0)"/>
       <use xlink:href="#DejaVuSans-30" transform="translate(127.246094 0)"/>
      </g>
     </g>
    </g>
    <g id="ytick_7">
     <g id="line2d_15">
      <g>
       <use xlink:href="#m6d7cc78659" x="46.965625" y="63.092242" style="stroke: #000000; stroke-width: 0.8"/>
      </g>
     </g>
     <g id="text_16">
      <!-- 600 -->
      <g transform="translate(20.878125 66.891461) scale(0.1 -0.1)">
       <defs>
        <path id="DejaVuSans-36" d="M 2113 2584 
Q 1688 2584 1439 2293 
Q 1191 2003 1191 1497 
Q 1191 994 1439 701 
Q 1688 409 2113 409 
Q 2538 409 2786 701 
Q 3034 994 3034 1497 
Q 3034 2003 2786 2293 
Q 2538 2584 2113 2584 
z
M 3366 4563 
L 3366 3988 
Q 3128 4100 2886 4159 
Q 2644 4219 2406 4219 
Q 1781 4219 1451 3797 
Q 1122 3375 1075 2522 
Q 1259 2794 1537 2939 
Q 1816 3084 2150 3084 
Q 2853 3084 3261 2657 
Q 3669 2231 3669 1497 
Q 3669 778 3244 343 
Q 2819 -91 2113 -91 
Q 1303 -91 875 529 
Q 447 1150 447 2328 
Q 447 3434 972 4092 
Q 1497 4750 2381 4750 
Q 2619 4750 2861 4703 
Q 3103 4656 3366 4563 
z
" transform="scale(0.015625)"/>
       </defs>
       <use xlink:href="#DejaVuSans-36"/>
       <use xlink:href="#DejaVuSans-30" transform="translate(63.623047 0)"/>
       <use xlink:href="#DejaVuSans-30" transform="translate(127.246094 0)"/>
      </g>
     </g>
    </g>
    <g id="ytick_8">
     <g id="line2d_16">
      <g>
       <use xlink:href="#m6d7cc78659" x="46.965625" y="37.04573" style="stroke: #000000; stroke-width: 0.8"/>
      </g>
     </g>
     <g id="text_17">
      <!-- 700 -->
      <g transform="translate(20.878125 40.844949) scale(0.1 -0.1)">
       <defs>
        <path id="DejaVuSans-37" d="M 525 4666 
L 3525 4666 
L 3525 4397 
L 1831 0 
L 1172 0 
L 2766 4134 
L 525 4134 
L 525 4666 
z
" transform="scale(0.015625)"/>
       </defs>
       <use xlink:href="#DejaVuSans-37"/>
       <use xlink:href="#DejaVuSans-30" transform="translate(63.623047 0)"/>
       <use xlink:href="#DejaVuSans-30" transform="translate(127.246094 0)"/>
      </g>
     </g>
    </g>
    <g id="ytick_9">
     <g id="line2d_17">
      <g>
       <use xlink:href="#m6d7cc78659" x="46.965625" y="10.999219" style="stroke: #000000; stroke-width: 0.8"/>
      </g>
     </g>
     <g id="text_18">
      <!-- 800 -->
      <g transform="translate(20.878125 14.798437) scale(0.1 -0.1)">
       <defs>
        <path id="DejaVuSans-38" d="M 2034 2216 
Q 1584 2216 1326 1975 
Q 1069 1734 1069 1313 
Q 1069 891 1326 650 
Q 1584 409 2034 409 
Q 2484 409 2743 651 
Q 3003 894 3003 1313 
Q 3003 1734 2745 1975 
Q 2488 2216 2034 2216 
z
M 1403 2484 
Q 997 2584 770 2862 
Q 544 3141 544 3541 
Q 544 4100 942 4425 
Q 1341 4750 2034 4750 
Q 2731 4750 3128 4425 
Q 3525 4100 3525 3541 
Q 3525 3141 3298 2862 
Q 3072 2584 2669 2484 
Q 3125 2378 3379 2068 
Q 3634 1759 3634 1313 
Q 3634 634 3220 271 
Q 2806 -91 2034 -91 
Q 1263 -91 848 271 
Q 434 634 434 1313 
Q 434 1759 690 2068 
Q 947 2378 1403 2484 
z
M 1172 3481 
Q 1172 3119 1398 2916 
Q 1625 2713 2034 2713 
Q 2441 2713 2670 2916 
Q 2900 3119 2900 3481 
Q 2900 3844 2670 4047 
Q 2441 4250 2034 4250 
Q 1625 4250 1398 4047 
Q 1172 3844 1172 3481 
z
" transform="scale(0.015625)"/>
       </defs>
       <use xlink:href="#DejaVuSans-38"/>
       <use xlink:href="#DejaVuSans-30" transform="translate(63.623047 0)"/>
       <use xlink:href="#DejaVuSans-30" transform="translate(127.246094 0)"/>
      </g>
     </g>
    </g>
    <g id="text_19">
     <!-- [counts] -->
     <g transform="translate(14.798438 139.183812) rotate(-90) scale(0.1 -0.1)">
      <defs>
       <path id="DejaVuSans-63" d="M 3122 3366 
L 3122 2828 
Q 2878 2963 2633 3030 
Q 2388 3097 2138 3097 
Q 1578 3097 1268 2742 
Q 959 2388 959 1747 
Q 959 1106 1268 751 
Q 1578 397 2138 397 
Q 2388 397 2633 464 
Q 2878 531 3122 666 
L 3122 134 
Q 2881 22 2623 -34 
Q 2366 -91 2075 -91 
Q 1284 -91 818 406 
Q 353 903 353 1747 
Q 353 2603 823 3093 
Q 1294 3584 2113 3584 
Q 2378 3584 2631 3529 
Q 2884 3475 3122 3366 
z
" transform="scale(0.015625)"/>
       <path id="DejaVuSans-6f" d="M 1959 3097 
Q 1497 3097 1228 2736 
Q 959 2375 959 1747 
Q 959 1119 1226 758 
Q 1494 397 1959 397 
Q 2419 397 2687 759 
Q 2956 1122 2956 1747 
Q 2956 2369 2687 2733 
Q 2419 3097 1959 3097 
z
M 1959 3584 
Q 2709 3584 3137 3096 
Q 3566 2609 3566 1747 
Q 3566 888 3137 398 
Q 2709 -91 1959 -91 
Q 1206 -91 779 398 
Q 353 888 353 1747 
Q 353 2609 779 3096 
Q 1206 3584 1959 3584 
z
" transform="scale(0.015625)"/>
       <path id="DejaVuSans-75" d="M 544 1381 
L 544 3500 
L 1119 3500 
L 1119 1403 
Q 1119 906 1312 657 
Q 1506 409 1894 409 
Q 2359 409 2629 706 
Q 2900 1003 2900 1516 
L 2900 3500 
L 3475 3500 
L 3475 0 
L 2900 0 
L 2900 538 
Q 2691 219 2414 64 
Q 2138 -91 1772 -91 
Q 1169 -91 856 284 
Q 544 659 544 1381 
z
M 1991 3584 
L 1991 3584 
z
" transform="scale(0.015625)"/>
       <path id="DejaVuSans-73" d="M 2834 3397 
L 2834 2853 
Q 2591 2978 2328 3040 
Q 2066 3103 1784 3103 
Q 1356 3103 1142 2972 
Q 928 2841 928 2578 
Q 928 2378 1081 2264 
Q 1234 2150 1697 2047 
L 1894 2003 
Q 2506 1872 2764 1633 
Q 3022 1394 3022 966 
Q 3022 478 2636 193 
Q 2250 -91 1575 -91 
Q 1294 -91 989 -36 
Q 684 19 347 128 
L 347 722 
Q 666 556 975 473 
Q 1284 391 1588 391 
Q 1994 391 2212 530 
Q 2431 669 2431 922 
Q 2431 1156 2273 1281 
Q 2116 1406 1581 1522 
L 1381 1569 
Q 847 1681 609 1914 
Q 372 2147 372 2553 
Q 372 3047 722 3315 
Q 1072 3584 1716 3584 
Q 2034 3584 2315 3537 
Q 2597 3491 2834 3397 
z
" transform="scale(0.015625)"/>
      </defs>
      <use xlink:href="#DejaVuSans-5b"/>
      <use xlink:href="#DejaVuSans-63" transform="translate(39.013672 0)"/>
      <use xlink:href="#DejaVuSans-6f" transform="translate(93.994141 0)"/>
      <use xlink:href="#DejaVuSans-75" transform="translate(155.175781 0)"/>
      <use xlink:href="#DejaVuSans-6e" transform="translate(218.554688 0)"/>
      <use xlink:href="#DejaVuSans-74" transform="translate(281.933594 0)"/>
      <use xlink:href="#DejaVuSans-73" transform="translate(321.142578 0)"/>
      <use xlink:href="#DejaVuSans-5d" transform="translate(373.242188 0)"/>
     </g>
    </g>
   </g>
   <g id="line2d_18">
    <path d="M 62.183807 219.371312 
L 69.792898 219.371312 
L 69.792898 217.027126 
L 71.314716 217.027126 
L 71.314716 209.213172 
L 72.836534 209.213172 
L 72.836534 199.575963 
L 74.358352 199.575963 
L 74.358352 192.28294 
L 75.88017 192.28294 
L 75.88017 186.552707 
L 77.401989 186.552707 
L 77.401989 178.999219 
L 78.923807 178.999219 
L 78.923807 165.975963 
L 80.445625 165.975963 
L 80.445625 167.017823 
L 81.967443 167.017823 
L 81.967443 152.952707 
L 83.489261 152.952707 
L 83.489261 151.129451 
L 85.01108 151.129451 
L 85.01108 126.906195 
L 86.532898 126.906195 
L 86.532898 133.938754 
L 88.054716 133.938754 
L 88.054716 118.310847 
L 89.576534 118.310847 
L 89.576534 116.748056 
L 91.098352 116.748056 
L 91.098352 113.101544 
L 92.62017 113.101544 
L 92.62017 99.817823 
L 94.141989 99.817823 
L 94.141989 88.357358 
L 95.663807 88.357358 
L 95.663807 82.887591 
L 97.185625 82.887591 
L 97.185625 74.292242 
L 100.229261 74.292242 
L 100.229261 55.017823 
L 101.75108 55.017823 
L 101.75108 76.636428 
L 103.272898 76.636428 
L 103.272898 55.538754 
L 104.794716 55.538754 
L 104.794716 42.775963 
L 106.316534 42.775963 
L 106.316534 58.143405 
L 107.838352 58.143405 
L 107.838352 38.348056 
L 109.36017 38.348056 
L 109.36017 31.575963 
L 110.881989 31.575963 
L 110.881989 30.534102 
L 112.403807 30.534102 
L 112.403807 20.115498 
L 113.925625 20.115498 
L 113.925625 37.566661 
L 115.447443 37.566661 
L 115.447443 22.199219 
L 116.969261 22.199219 
L 116.969261 24.543405 
L 118.49108 24.543405 
L 118.49108 37.566661 
L 120.012898 37.566661 
L 120.012898 21.678289 
L 121.534716 21.678289 
L 121.534716 17.771312 
L 123.056534 17.771312 
L 123.056534 21.938754 
L 124.578352 21.938754 
L 124.578352 33.138754 
L 126.10017 33.138754 
L 126.10017 29.492242 
L 127.621989 29.492242 
L 127.621989 28.710847 
L 129.143807 28.710847 
L 129.143807 24.022475 
L 130.665625 24.022475 
L 130.665625 35.222475 
L 132.187443 35.222475 
L 132.187443 53.975963 
L 133.709261 53.975963 
L 133.709261 41.994568 
L 135.23108 41.994568 
L 135.23108 57.622475 
L 136.752898 57.622475 
L 136.752898 39.129451 
L 138.274716 39.129451 
L 138.274716 44.859684 
L 139.796534 44.859684 
L 139.796534 43.557358 
L 141.318352 43.557358 
L 141.318352 55.799219 
L 142.84017 55.799219 
L 142.84017 43.036428 
L 144.361989 43.036428 
L 144.361989 54.496893 
L 145.883807 54.496893 
L 145.883807 59.185265 
L 147.405625 59.185265 
L 147.405625 64.394568 
L 148.927443 64.394568 
L 148.927443 64.134102 
L 150.449261 64.134102 
L 150.449261 56.320149 
L 151.97108 56.320149 
L 151.97108 47.20387 
L 153.492898 47.20387 
L 153.492898 52.673637 
L 155.014716 52.673637 
L 155.014716 51.631777 
L 156.536534 51.631777 
L 156.536534 59.706195 
L 158.058352 59.706195 
L 158.058352 62.571312 
L 159.58017 62.571312 
L 159.58017 67.780614 
L 161.101989 67.780614 
L 161.101989 64.394568 
L 162.623807 64.394568 
L 162.623807 69.343405 
L 164.145625 69.343405 
L 164.145625 66.478289 
L 165.667443 66.478289 
L 165.667443 72.208521 
L 167.189261 72.208521 
L 167.189261 66.999219 
L 168.71108 66.999219 
L 168.71108 57.622475 
L 170.232898 57.622475 
L 170.232898 69.864335 
L 171.754716 69.864335 
L 171.754716 83.668986 
L 173.276534 83.668986 
L 173.276534 63.613172 
L 174.798352 63.613172 
L 174.798352 64.134102 
L 176.32017 64.134102 
L 176.32017 80.80387 
L 177.841989 80.80387 
L 177.841989 83.148056 
L 179.363807 83.148056 
L 179.363807 87.575963 
L 180.885625 87.575963 
L 180.885625 94.087591 
L 182.407443 94.087591 
L 182.407443 87.575963 
L 183.929261 87.575963 
L 183.929261 106.329451 
L 185.45108 106.329451 
L 185.45108 110.757358 
L 186.972898 110.757358 
L 186.972898 115.966661 
L 188.494716 115.966661 
L 188.494716 129.250382 
L 190.016534 129.250382 
L 190.016534 134.459684 
L 191.538352 134.459684 
L 191.538352 144.617823 
L 193.06017 144.617823 
L 193.06017 140.450382 
L 194.581989 140.450382 
L 194.581989 157.641079 
L 196.103807 157.641079 
L 196.103807 160.506195 
L 197.625625 160.506195 
L 197.625625 172.487591 
L 199.147443 172.487591 
L 199.147443 180.562009 
L 200.669261 180.562009 
L 200.669261 183.948056 
L 202.19108 183.948056 
L 202.19108 168.320149 
L 203.712898 168.320149 
L 203.712898 165.194568 
L 205.234716 165.194568 
L 205.234716 159.464335 
L 206.756534 159.464335 
L 206.756534 139.408521 
L 208.278352 139.408521 
L 208.278352 145.399219 
L 209.80017 145.399219 
L 209.80017 127.427126 
L 211.321989 127.427126 
L 211.321989 121.957358 
L 212.843807 121.957358 
L 212.843807 123.780614 
L 214.365625 123.780614 
L 214.365625 103.464335 
L 215.887443 103.464335 
L 215.887443 96.692242 
L 217.409261 96.692242 
L 217.409261 100.338754 
L 218.93108 100.338754 
L 218.93108 103.7248 
L 220.452898 103.7248 
L 220.452898 97.734102 
L 221.974716 97.734102 
L 221.974716 75.855033 
L 223.496534 75.855033 
L 223.496534 80.80387 
L 225.018352 80.80387 
L 225.018352 64.655033 
L 226.54017 64.655033 
L 226.54017 81.3248 
L 228.061989 81.3248 
L 228.061989 71.166661 
L 229.583807 71.166661 
L 229.583807 72.989916 
L 231.105625 72.989916 
L 231.105625 59.706195 
L 232.627443 59.706195 
L 232.627443 58.664335 
L 234.149261 58.664335 
L 234.149261 50.589916 
L 235.67108 50.589916 
L 235.67108 40.431777 
L 237.192898 40.431777 
L 237.192898 35.743405 
L 238.714716 35.743405 
L 238.714716 51.892242 
L 240.236534 51.892242 
L 240.236534 41.734102 
L 241.758352 41.734102 
L 241.758352 54.757358 
L 243.28017 54.757358 
L 243.28017 64.655033 
L 244.801989 64.655033 
L 244.801989 61.008521 
L 246.323807 61.008521 
L 246.323807 57.622475 
L 247.845625 57.622475 
L 247.845625 67.520149 
L 249.367443 67.520149 
L 249.367443 62.571312 
L 250.889261 62.571312 
L 250.889261 70.906195 
L 252.41108 70.906195 
L 252.41108 67.520149 
L 253.932898 67.520149 
L 253.932898 65.175963 
L 255.454716 65.175963 
L 255.454716 75.594568 
L 256.976534 75.594568 
L 256.976534 84.971312 
L 258.498352 84.971312 
L 258.498352 77.938754 
L 260.02017 77.938754 
L 260.02017 85.752707 
L 261.541989 85.752707 
L 261.541989 90.441079 
L 263.063807 90.441079 
L 263.063807 93.04573 
L 264.585625 93.04573 
L 264.585625 92.264335 
L 266.107443 92.264335 
L 266.107443 91.222475 
L 267.629261 91.222475 
L 267.629261 97.473637 
L 269.15108 97.473637 
L 269.15108 81.585265 
L 270.672898 81.585265 
L 270.672898 95.910847 
L 272.194716 95.910847 
L 272.194716 101.641079 
L 273.716534 101.641079 
L 273.716534 104.24573 
L 275.238352 104.24573 
L 275.238352 104.506195 
L 276.76017 104.506195 
L 276.76017 105.808521 
L 278.281989 105.808521 
L 278.281989 106.068986 
L 279.803807 106.068986 
L 279.803807 108.673637 
L 281.325625 108.673637 
L 281.325625 109.975963 
L 282.847443 109.975963 
L 282.847443 107.371312 
L 284.369261 107.371312 
L 284.369261 110.236428 
L 285.89108 110.236428 
L 285.89108 104.766661 
L 287.412898 104.766661 
L 287.412898 115.44573 
L 288.934716 115.44573 
L 288.934716 119.873637 
L 290.456534 119.873637 
L 290.456534 114.143405 
L 291.978352 114.143405 
L 291.978352 117.268986 
L 293.50017 117.268986 
L 293.50017 130.813172 
L 295.021989 130.813172 
L 295.021989 118.571312 
L 296.543807 118.571312 
L 296.543807 122.999219 
L 298.065625 122.999219 
L 298.065625 122.217823 
L 299.587443 122.217823 
L 299.587443 131.594568 
L 301.109261 131.594568 
L 301.109261 129.250382 
L 302.63108 129.250382 
L 302.63108 140.450382 
L 304.152898 140.450382 
L 304.152898 128.468986 
L 305.674716 128.468986 
L 305.674716 141.492242 
L 307.196534 141.492242 
L 307.196534 145.399219 
L 308.718352 145.399219 
L 308.718352 141.231777 
L 310.24017 141.231777 
L 310.24017 142.534102 
L 311.761989 142.534102 
L 311.761989 146.180614 
L 313.283807 146.180614 
L 313.283807 153.213172 
L 314.805625 153.213172 
L 314.805625 146.962009 
L 316.327443 146.962009 
L 316.327443 158.68294 
L 319.37108 158.68294 
L 319.37108 159.985265 
L 320.892898 159.985265 
L 320.892898 163.371312 
L 322.414716 163.371312 
L 322.414716 161.027126 
L 323.936534 161.027126 
L 323.936534 168.841079 
L 325.458352 168.841079 
L 325.458352 167.278289 
L 326.98017 167.278289 
L 326.98017 173.268986 
L 328.501989 173.268986 
L 328.501989 174.050382 
L 330.023807 174.050382 
L 330.023807 183.687591 
L 331.545625 183.687591 
L 331.545625 182.385265 
L 333.067443 182.385265 
L 333.067443 186.292242 
L 334.589261 186.292242 
L 334.589261 191.501544 
L 336.11108 191.501544 
L 336.11108 189.678289 
L 337.632898 189.678289 
L 337.632898 190.459684 
L 339.154716 190.459684 
L 339.154716 193.585265 
L 340.676534 193.585265 
L 340.676534 202.180614 
L 342.198352 202.180614 
L 342.198352 204.785265 
L 343.72017 204.785265 
L 343.72017 206.087591 
L 345.241989 206.087591 
L 345.241989 209.213172 
L 346.763807 209.213172 
L 346.763807 209.473637 
L 348.285625 209.473637 
L 348.285625 212.338754 
L 349.807443 212.338754 
L 349.807443 214.162009 
L 351.329261 214.162009 
L 351.329261 213.120149 
L 352.85108 213.120149 
L 352.85108 216.506195 
L 354.372898 216.506195 
L 354.372898 218.068986 
L 355.894716 218.068986 
L 355.894716 216.766661 
L 357.416534 216.766661 
L 357.416534 219.371312 
L 366.547443 219.371312 
L 366.547443 219.371312 
" clip-path="url(#p193dcd4a7d)" style="fill: none; stroke: #1f77b4; stroke-width: 1.5; stroke-linecap: square"/>
   </g>
   <g id="line2d_19">
    <path d="M 62.183807 219.371312 
L 69.792898 219.371312 
L 69.792898 216.766661 
L 71.314716 216.766661 
L 71.314716 209.213172 
L 72.836534 209.213172 
L 72.836534 198.273637 
L 74.358352 198.273637 
L 74.358352 192.543405 
L 75.88017 192.543405 
L 75.88017 188.115498 
L 77.401989 188.115498 
L 77.401989 178.738754 
L 78.923807 178.738754 
L 78.923807 168.059684 
L 80.445625 168.059684 
L 80.445625 165.194568 
L 81.967443 165.194568 
L 81.967443 154.775963 
L 83.489261 154.775963 
L 83.489261 148.00387 
L 85.01108 148.00387 
L 85.01108 127.427126 
L 86.532898 127.427126 
L 86.532898 135.501544 
L 88.054716 135.501544 
L 88.054716 120.394568 
L 89.576534 120.394568 
L 89.576534 118.571312 
L 91.098352 118.571312 
L 91.098352 102.943405 
L 92.62017 102.943405 
L 92.62017 101.380614 
L 94.141989 101.380614 
L 94.141989 93.566661 
L 95.663807 93.566661 
L 95.663807 77.938754 
L 97.185625 77.938754 
L 97.185625 84.450382 
L 98.707443 84.450382 
L 98.707443 61.268986 
L 100.229261 61.268986 
L 100.229261 69.864335 
L 101.75108 69.864335 
L 101.75108 73.250382 
L 103.272898 73.250382 
L 103.272898 49.808521 
L 104.794716 49.808521 
L 104.794716 44.338754 
L 106.316534 44.338754 
L 106.316534 49.808521 
L 107.838352 49.808521 
L 107.838352 43.296893 
L 109.36017 43.296893 
L 109.36017 36.5248 
L 110.881989 36.5248 
L 110.881989 26.106195 
L 112.403807 26.106195 
L 112.403807 20.115498 
L 113.925625 20.115498 
L 113.925625 32.357358 
L 115.447443 32.357358 
L 115.447443 30.794568 
L 116.969261 30.794568 
L 116.969261 23.501544 
L 118.49108 23.501544 
L 118.49108 28.450382 
L 120.012898 28.450382 
L 120.012898 31.315498 
L 121.534716 31.315498 
L 121.534716 17.771312 
L 123.056534 17.771312 
L 123.056534 24.28294 
L 124.578352 24.28294 
L 124.578352 34.180614 
L 126.10017 34.180614 
L 126.10017 18.292242 
L 127.621989 18.292242 
L 127.621989 33.659684 
L 129.143807 33.659684 
L 129.143807 33.399219 
L 130.665625 33.399219 
L 130.665625 37.566661 
L 132.187443 37.566661 
L 132.187443 44.338754 
L 133.709261 44.338754 
L 133.709261 48.766661 
L 135.23108 48.766661 
L 135.23108 41.994568 
L 136.752898 41.994568 
L 136.752898 48.24573 
L 138.274716 48.24573 
L 138.274716 45.380614 
L 139.796534 45.380614 
L 139.796534 50.850382 
L 141.318352 50.850382 
L 141.318352 46.422475 
L 142.84017 46.422475 
L 142.84017 44.859684 
L 144.361989 44.859684 
L 144.361989 61.789916 
L 145.883807 61.789916 
L 145.883807 45.641079 
L 147.405625 45.641079 
L 147.405625 67.780614 
L 148.927443 67.780614 
L 148.927443 54.757358 
L 150.449261 54.757358 
L 150.449261 60.487591 
L 151.97108 60.487591 
L 151.97108 56.841079 
L 153.492898 56.841079 
L 153.492898 45.901544 
L 155.014716 45.901544 
L 155.014716 61.268986 
L 156.536534 61.268986 
L 156.536534 52.673637 
L 158.058352 52.673637 
L 158.058352 70.385265 
L 159.58017 70.385265 
L 159.58017 54.496893 
L 161.101989 54.496893 
L 161.101989 74.031777 
L 162.623807 74.031777 
L 162.623807 70.385265 
L 164.145625 70.385265 
L 164.145625 67.259684 
L 165.667443 67.259684 
L 165.667443 75.334102 
L 167.189261 75.334102 
L 167.189261 60.487591 
L 168.71108 60.487591 
L 168.71108 61.789916 
L 170.232898 61.789916 
L 170.232898 68.562009 
L 171.754716 68.562009 
L 171.754716 69.343405 
L 173.276534 69.343405 
L 173.276534 72.729451 
L 174.798352 72.729451 
L 174.798352 70.906195 
L 176.32017 70.906195 
L 176.32017 77.417823 
L 177.841989 77.417823 
L 177.841989 80.543405 
L 179.363807 80.543405 
L 179.363807 91.222475 
L 180.885625 91.222475 
L 180.885625 88.357358 
L 182.407443 88.357358 
L 182.407443 92.264335 
L 183.929261 92.264335 
L 183.929261 104.506195 
L 185.45108 104.506195 
L 185.45108 107.631777 
L 186.972898 107.631777 
L 186.972898 120.394568 
L 188.494716 120.394568 
L 188.494716 132.636428 
L 190.016534 132.636428 
L 190.016534 127.687591 
L 191.538352 127.687591 
L 191.538352 142.534102 
L 193.06017 142.534102 
L 193.06017 134.459684 
L 194.581989 134.459684 
L 194.581989 152.431777 
L 196.103807 152.431777 
L 196.103807 150.868986 
L 197.625625 150.868986 
L 197.625625 153.473637 
L 199.147443 153.473637 
L 199.147443 159.20387 
L 200.669261 159.20387 
L 200.669261 152.692242 
L 202.19108 152.692242 
L 202.19108 147.743405 
L 203.712898 147.743405 
L 203.712898 148.264335 
L 205.234716 148.264335 
L 205.234716 144.096893 
L 206.756534 144.096893 
L 206.756534 130.813172 
L 208.278352 130.813172 
L 208.278352 133.157358 
L 209.80017 133.157358 
L 209.80017 125.864335 
L 211.321989 125.864335 
L 211.321989 121.696893 
L 212.843807 121.696893 
L 212.843807 120.655033 
L 214.365625 120.655033 
L 214.365625 102.943405 
L 215.887443 102.943405 
L 215.887443 102.162009 
L 217.409261 102.162009 
L 217.409261 103.20387 
L 218.93108 103.20387 
L 218.93108 99.036428 
L 220.452898 99.036428 
L 220.452898 96.431777 
L 221.974716 96.431777 
L 221.974716 77.157358 
L 223.496534 77.157358 
L 223.496534 73.250382 
L 225.018352 73.250382 
L 225.018352 74.292242 
L 226.54017 74.292242 
L 226.54017 75.073637 
L 228.061989 75.073637 
L 228.061989 74.292242 
L 229.583807 74.292242 
L 229.583807 72.989916 
L 231.105625 72.989916 
L 231.105625 59.966661 
L 232.627443 59.966661 
L 232.627443 62.050382 
L 234.149261 62.050382 
L 234.149261 44.859684 
L 235.67108 44.859684 
L 235.67108 47.464335 
L 237.192898 47.464335 
L 237.192898 36.5248 
L 238.714716 36.5248 
L 238.714716 32.096893 
L 240.236534 32.096893 
L 240.236534 55.538754 
L 241.758352 55.538754 
L 241.758352 60.227126 
L 243.28017 60.227126 
L 243.28017 65.175963 
L 244.801989 65.175963 
L 244.801989 57.88294 
L 246.323807 57.88294 
L 246.323807 61.789916 
L 247.845625 61.789916 
L 247.845625 59.185265 
L 249.367443 59.185265 
L 249.367443 67.780614 
L 250.889261 67.780614 
L 250.889261 65.436428 
L 252.41108 65.436428 
L 252.41108 69.343405 
L 253.932898 69.343405 
L 253.932898 67.780614 
L 255.454716 67.780614 
L 255.454716 78.199219 
L 256.976534 78.199219 
L 256.976534 77.678289 
L 258.498352 77.678289 
L 258.498352 83.668986 
L 260.02017 83.668986 
L 260.02017 88.878289 
L 261.541989 88.878289 
L 261.541989 86.013172 
L 263.063807 86.013172 
L 263.063807 88.617823 
L 264.585625 88.617823 
L 264.585625 97.473637 
L 266.107443 97.473637 
L 266.107443 79.501544 
L 267.629261 79.501544 
L 267.629261 103.7248 
L 269.15108 103.7248 
L 269.15108 88.878289 
L 270.672898 88.878289 
L 270.672898 96.431777 
L 272.194716 96.431777 
L 272.194716 96.952707 
L 273.716534 96.952707 
L 273.716534 108.934102 
L 275.238352 108.934102 
L 275.238352 104.766661 
L 276.76017 104.766661 
L 276.76017 99.817823 
L 278.281989 99.817823 
L 278.281989 109.455033 
L 279.803807 109.455033 
L 279.803807 104.506195 
L 281.325625 104.506195 
L 281.325625 118.831777 
L 282.847443 118.831777 
L 282.847443 99.817823 
L 284.369261 99.817823 
L 284.369261 102.68294 
L 285.89108 102.68294 
L 285.89108 113.622475 
L 287.412898 113.622475 
L 287.412898 113.88294 
L 288.934716 113.88294 
L 288.934716 121.436428 
L 290.456534 121.436428 
L 290.456534 115.44573 
L 293.50017 115.44573 
L 293.50017 117.008521 
L 295.021989 117.008521 
L 295.021989 130.031777 
L 296.543807 130.031777 
L 296.543807 122.999219 
L 298.065625 122.999219 
L 298.065625 127.427126 
L 299.587443 127.427126 
L 299.587443 133.157358 
L 301.109261 133.157358 
L 301.109261 125.864335 
L 302.63108 125.864335 
L 302.63108 138.366661 
L 304.152898 138.366661 
L 304.152898 128.729451 
L 305.674716 128.729451 
L 305.674716 140.971312 
L 307.196534 140.971312 
L 307.196534 144.878289 
L 308.718352 144.878289 
L 308.718352 139.668986 
L 310.24017 139.668986 
L 310.24017 148.00387 
L 311.761989 148.00387 
L 311.761989 149.04573 
L 313.283807 149.04573 
L 313.283807 147.222475 
L 314.805625 147.222475 
L 314.805625 149.566661 
L 316.327443 149.566661 
L 316.327443 155.817823 
L 317.849261 155.817823 
L 317.849261 162.068986 
L 319.37108 162.068986 
L 319.37108 156.078289 
L 320.892898 156.078289 
L 320.892898 166.496893 
L 322.414716 166.496893 
L 322.414716 161.548056 
L 323.936534 161.548056 
L 323.936534 167.538754 
L 326.98017 167.538754 
L 326.98017 174.831777 
L 328.501989 174.831777 
L 328.501989 174.571312 
L 330.023807 174.571312 
L 330.023807 179.780614 
L 331.545625 179.780614 
L 331.545625 184.208521 
L 333.067443 184.208521 
L 333.067443 188.115498 
L 334.589261 188.115498 
L 334.589261 188.896893 
L 336.11108 188.896893 
L 336.11108 189.157358 
L 337.632898 189.157358 
L 337.632898 192.543405 
L 339.154716 192.543405 
L 339.154716 195.668986 
L 340.676534 195.668986 
L 340.676534 197.752707 
L 342.198352 197.752707 
L 342.198352 206.087591 
L 343.72017 206.087591 
L 343.72017 206.348056 
L 345.241989 206.348056 
L 345.241989 207.910847 
L 346.763807 207.910847 
L 346.763807 210.515498 
L 348.285625 210.515498 
L 348.285625 211.817823 
L 349.807443 211.817823 
L 349.807443 212.599219 
L 351.329261 212.599219 
L 351.329261 214.162009 
L 352.85108 214.162009 
L 352.85108 216.766661 
L 354.372898 216.766661 
L 354.372898 218.068986 
L 355.894716 218.068986 
L 355.894716 217.027126 
L 357.416534 217.027126 
L 357.416534 218.329451 
L 358.938352 218.329451 
L 358.938352 219.371312 
L 366.547443 219.371312 
L 366.547443 219.371312 
" clip-path="url(#p193dcd4a7d)" style="fill: none; stroke: #ff7f0e; stroke-width: 1.5; stroke-linecap: square"/>
   </g>
   <g id="patch_3">
    <path d="M 46.965625 229.451312 
L 46.965625 7.691312 
" style="fill: none; stroke: #000000; stroke-width: 0.8; stroke-linejoin: miter; stroke-linecap: square"/>
   </g>
   <g id="patch_4">
    <path d="M 381.765625 229.451312 
L 381.765625 7.691312 
" style="fill: none; stroke: #000000; stroke-width: 0.8; stroke-linejoin: miter; stroke-linecap: square"/>
   </g>
   <g id="patch_5">
    <path d="M 46.965625 229.451312 
L 381.765625 229.451312 
" style="fill: none; stroke: #000000; stroke-width: 0.8; stroke-linejoin: miter; stroke-linecap: square"/>
   </g>
   <g id="patch_6">
    <path d="M 46.965625 7.691312 
L 381.765625 7.691312 
" style="fill: none; stroke: #000000; stroke-width: 0.8; stroke-linejoin: miter; stroke-linecap: square"/>
   </g>
   <g id="legend_1">
    <g id="patch_7">
     <path d="M 277.7625 45.325687 
L 374.765625 45.325687 
Q 376.765625 45.325687 376.765625 43.325687 
L 376.765625 14.691312 
Q 376.765625 12.691312 374.765625 12.691312 
L 277.7625 12.691312 
Q 275.7625 12.691312 275.7625 14.691312 
L 275.7625 43.325687 
Q 275.7625 45.325687 277.7625 45.325687 
z
" style="fill: #ffffff; opacity: 0.8; stroke: #cccccc; stroke-linejoin: miter"/>
    </g>
    <g id="line2d_20">
     <path d="M 279.7625 20.789749 
L 279.7625 20.789749 
L 289.7625 20.789749 
L 289.7625 20.789749 
L 299.7625 20.789749 
" style="fill: none; stroke: #1f77b4; stroke-width: 1.5; stroke-linecap: square"/>
    </g>
    <g id="text_20">
     <!-- wfm -->
     <g transform="translate(307.7625 24.289749) scale(0.1 -0.1)">
      <defs>
       <path id="DejaVuSans-66" d="M 2375 4863 
L 2375 4384 
L 1825 4384 
Q 1516 4384 1395 4259 
Q 1275 4134 1275 3809 
L 1275 3500 
L 2222 3500 
L 2222 3053 
L 1275 3053 
L 1275 0 
L 697 0 
L 697 3053 
L 147 3053 
L 147 3500 
L 697 3500 
L 697 3744 
Q 697 4328 969 4595 
Q 1241 4863 1831 4863 
L 2375 4863 
z
" transform="scale(0.015625)"/>
       <path id="DejaVuSans-6d" d="M 3328 2828 
Q 3544 3216 3844 3400 
Q 4144 3584 4550 3584 
Q 5097 3584 5394 3201 
Q 5691 2819 5691 2113 
L 5691 0 
L 5113 0 
L 5113 2094 
Q 5113 2597 4934 2840 
Q 4756 3084 4391 3084 
Q 3944 3084 3684 2787 
Q 3425 2491 3425 1978 
L 3425 0 
L 2847 0 
L 2847 2094 
Q 2847 2600 2669 2842 
Q 2491 3084 2119 3084 
Q 1678 3084 1418 2786 
Q 1159 2488 1159 1978 
L 1159 0 
L 581 0 
L 581 3500 
L 1159 3500 
L 1159 2956 
Q 1356 3278 1631 3431 
Q 1906 3584 2284 3584 
Q 2666 3584 2933 3390 
Q 3200 3197 3328 2828 
z
" transform="scale(0.015625)"/>
      </defs>
      <use xlink:href="#DejaVuSans-77"/>
      <use xlink:href="#DejaVuSans-66" transform="translate(81.787109 0)"/>
      <use xlink:href="#DejaVuSans-6d" transform="translate(116.992188 0)"/>
     </g>
    </g>
    <g id="line2d_21">
     <path d="M 279.7625 35.467874 
L 279.7625 35.467874 
L 289.7625 35.467874 
L 289.7625 35.467874 
L 299.7625 35.467874 
" style="fill: none; stroke: #ff7f0e; stroke-width: 1.5; stroke-linecap: square"/>
    </g>
    <g id="text_21">
     <!-- ground_truth -->
     <g transform="translate(307.7625 38.967874) scale(0.1 -0.1)">
      <defs>
       <path id="DejaVuSans-72" d="M 2631 2963 
Q 2534 3019 2420 3045 
Q 2306 3072 2169 3072 
Q 1681 3072 1420 2755 
Q 1159 2438 1159 1844 
L 1159 0 
L 581 0 
L 581 3500 
L 1159 3500 
L 1159 2956 
Q 1341 3275 1631 3429 
Q 1922 3584 2338 3584 
Q 2397 3584 2469 3576 
Q 2541 3569 2628 3553 
L 2631 2963 
z
" transform="scale(0.015625)"/>
       <path id="DejaVuSans-64" d="M 2906 2969 
L 2906 4863 
L 3481 4863 
L 3481 0 
L 2906 0 
L 2906 525 
Q 2725 213 2448 61 
Q 2172 -91 1784 -91 
Q 1150 -91 751 415 
Q 353 922 353 1747 
Q 353 2572 751 3078 
Q 1150 3584 1784 3584 
Q 2172 3584 2448 3432 
Q 2725 3281 2906 2969 
z
M 947 1747 
Q 947 1113 1208 752 
Q 1469 391 1925 391 
Q 2381 391 2643 752 
Q 2906 1113 2906 1747 
Q 2906 2381 2643 2742 
Q 2381 3103 1925 3103 
Q 1469 3103 1208 2742 
Q 947 2381 947 1747 
z
" transform="scale(0.015625)"/>
       <path id="DejaVuSans-5f" d="M 3263 -1063 
L 3263 -1509 
L -63 -1509 
L -63 -1063 
L 3263 -1063 
z
" transform="scale(0.015625)"/>
      </defs>
      <use xlink:href="#DejaVuSans-67"/>
      <use xlink:href="#DejaVuSans-72" transform="translate(63.476562 0)"/>
      <use xlink:href="#DejaVuSans-6f" transform="translate(102.339844 0)"/>
      <use xlink:href="#DejaVuSans-75" transform="translate(163.521484 0)"/>
      <use xlink:href="#DejaVuSans-6e" transform="translate(226.900391 0)"/>
      <use xlink:href="#DejaVuSans-64" transform="translate(290.279297 0)"/>
      <use xlink:href="#DejaVuSans-5f" transform="translate(353.755859 0)"/>
      <use xlink:href="#DejaVuSans-74" transform="translate(403.755859 0)"/>
      <use xlink:href="#DejaVuSans-72" transform="translate(442.964844 0)"/>
      <use xlink:href="#DejaVuSans-75" transform="translate(484.078125 0)"/>
      <use xlink:href="#DejaVuSans-74" transform="translate(547.457031 0)"/>
      <use xlink:href="#DejaVuSans-68" transform="translate(586.666016 0)"/>
     </g>
    </g>
   </g>
  </g>
 </g>
 <defs>
  <clipPath id="p193dcd4a7d">
   <rect x="46.965625" y="7.691312" width="334.8" height="221.76"/>
  </clipPath>
 </defs>
</svg>
