<?xml version="1.0" encoding="utf-8" standalone="no"?>
<!DOCTYPE svg PUBLIC "-//W3C//DTD SVG 1.1//EN"
  "http://www.w3.org/Graphics/SVG/1.1/DTD/svg11.dtd">
<svg xmlns:xlink="http://www.w3.org/1999/xlink" width="872.39952pt" height="296.39952pt" viewBox="0 0 872.39952 296.39952" xmlns="http://www.w3.org/2000/svg" version="1.1">
 <metadata>
  <rdf:RDF xmlns:dc="http://purl.org/dc/elements/1.1/" xmlns:cc="http://creativecommons.org/ns#" xmlns:rdf="http://www.w3.org/1999/02/22-rdf-syntax-ns#">
   <cc:Work>
    <dc:type rdf:resource="http://purl.org/dc/dcmitype/StillImage"/>
    <dc:date>2025-03-02T06:37:24.194697</dc:date>
    <dc:format>image/svg+xml</dc:format>
    <dc:creator>
     <cc:Agent>
      <dc:title>Matplotlib v3.10.0, https://matplotlib.org/</dc:title>
     </cc:Agent>
    </dc:creator>
   </cc:Work>
  </rdf:RDF>
 </metadata>
 <defs>
  <style type="text/css">*{stroke-linejoin: round; stroke-linecap: butt}</style>
 </defs>
 <g id="figure_1">
  <g id="patch_1">
   <path d="M 0 296.39952 
L 872.39952 296.39952 
L 872.39952 0 
L 0 0 
z
" style="fill: #ffffff"/>
  </g>
  <g id="axes_1">
   <g id="patch_2">
    <path d="M 53.328125 257.158895 
L 431.87976 257.158895 
L 431.87976 7.2 
L 53.328125 7.2 
z
" style="fill: #ffffff"/>
   </g>
   <g id="matplotlib.axis_1">
    <g id="xtick_1">
     <g id="line2d_1">
      <defs>
       <path id="mb95d06c26a" d="M 0 0 
L 0 3.5 
" style="stroke: #000000; stroke-width: 0.8"/>
      </defs>
      <g>
       <use xlink:href="#mb95d06c26a" x="69.664644" y="257.158895" style="stroke: #000000; stroke-width: 0.8"/>
      </g>
     </g>
     <g id="text_1">
      <!-- 0 -->
      <g transform="translate(66.483394 271.757332) scale(0.1 -0.1)">
       <defs>
        <path id="DejaVuSans-30" d="M 2034 4250 
Q 1547 4250 1301 3770 
Q 1056 3291 1056 2328 
Q 1056 1369 1301 889 
Q 1547 409 2034 409 
Q 2525 409 2770 889 
Q 3016 1369 3016 2328 
Q 3016 3291 2770 3770 
Q 2525 4250 2034 4250 
z
M 2034 4750 
Q 2819 4750 3233 4129 
Q 3647 3509 3647 2328 
Q 3647 1150 3233 529 
Q 2819 -91 2034 -91 
Q 1250 -91 836 529 
Q 422 1150 422 2328 
Q 422 3509 836 4129 
Q 1250 4750 2034 4750 
z
" transform="scale(0.015625)"/>
       </defs>
       <use xlink:href="#DejaVuSans-30"/>
      </g>
     </g>
    </g>
    <g id="xtick_2">
     <g id="line2d_2">
      <g>
       <use xlink:href="#mb95d06c26a" x="139.004811" y="257.158895" style="stroke: #000000; stroke-width: 0.8"/>
      </g>
     </g>
     <g id="text_2">
      <!-- 1000 -->
      <g transform="translate(126.279811 271.757332) scale(0.1 -0.1)">
       <defs>
        <path id="DejaVuSans-31" d="M 794 531 
L 1825 531 
L 1825 4091 
L 703 3866 
L 703 4441 
L 1819 4666 
L 2450 4666 
L 2450 531 
L 3481 531 
L 3481 0 
L 794 0 
L 794 531 
z
" transform="scale(0.015625)"/>
       </defs>
       <use xlink:href="#DejaVuSans-31"/>
       <use xlink:href="#DejaVuSans-30" transform="translate(63.623047 0)"/>
       <use xlink:href="#DejaVuSans-30" transform="translate(127.246094 0)"/>
       <use xlink:href="#DejaVuSans-30" transform="translate(190.869141 0)"/>
      </g>
     </g>
    </g>
    <g id="xtick_3">
     <g id="line2d_3">
      <g>
       <use xlink:href="#mb95d06c26a" x="208.344978" y="257.158895" style="stroke: #000000; stroke-width: 0.8"/>
      </g>
     </g>
     <g id="text_3">
      <!-- 2000 -->
      <g transform="translate(195.619978 271.757332) scale(0.1 -0.1)">
       <defs>
        <path id="DejaVuSans-32" d="M 1228 531 
L 3431 531 
L 3431 0 
L 469 0 
L 469 531 
Q 828 903 1448 1529 
Q 2069 2156 2228 2338 
Q 2531 2678 2651 2914 
Q 2772 3150 2772 3378 
Q 2772 3750 2511 3984 
Q 2250 4219 1831 4219 
Q 1534 4219 1204 4116 
Q 875 4013 500 3803 
L 500 4441 
Q 881 4594 1212 4672 
Q 1544 4750 1819 4750 
Q 2544 4750 2975 4387 
Q 3406 4025 3406 3419 
Q 3406 3131 3298 2873 
Q 3191 2616 2906 2266 
Q 2828 2175 2409 1742 
Q 1991 1309 1228 531 
z
" transform="scale(0.015625)"/>
       </defs>
       <use xlink:href="#DejaVuSans-32"/>
       <use xlink:href="#DejaVuSans-30" transform="translate(63.623047 0)"/>
       <use xlink:href="#DejaVuSans-30" transform="translate(127.246094 0)"/>
       <use xlink:href="#DejaVuSans-30" transform="translate(190.869141 0)"/>
      </g>
     </g>
    </g>
    <g id="xtick_4">
     <g id="line2d_4">
      <g>
       <use xlink:href="#mb95d06c26a" x="277.685145" y="257.158895" style="stroke: #000000; stroke-width: 0.8"/>
      </g>
     </g>
     <g id="text_4">
      <!-- 3000 -->
      <g transform="translate(264.960145 271.757332) scale(0.1 -0.1)">
       <defs>
        <path id="DejaVuSans-33" d="M 2597 2516 
Q 3050 2419 3304 2112 
Q 3559 1806 3559 1356 
Q 3559 666 3084 287 
Q 2609 -91 1734 -91 
Q 1441 -91 1130 -33 
Q 819 25 488 141 
L 488 750 
Q 750 597 1062 519 
Q 1375 441 1716 441 
Q 2309 441 2620 675 
Q 2931 909 2931 1356 
Q 2931 1769 2642 2001 
Q 2353 2234 1838 2234 
L 1294 2234 
L 1294 2753 
L 1863 2753 
Q 2328 2753 2575 2939 
Q 2822 3125 2822 3475 
Q 2822 3834 2567 4026 
Q 2313 4219 1838 4219 
Q 1578 4219 1281 4162 
Q 984 4106 628 3988 
L 628 4550 
Q 988 4650 1302 4700 
Q 1616 4750 1894 4750 
Q 2613 4750 3031 4423 
Q 3450 4097 3450 3541 
Q 3450 3153 3228 2886 
Q 3006 2619 2597 2516 
z
" transform="scale(0.015625)"/>
       </defs>
       <use xlink:href="#DejaVuSans-33"/>
       <use xlink:href="#DejaVuSans-30" transform="translate(63.623047 0)"/>
       <use xlink:href="#DejaVuSans-30" transform="translate(127.246094 0)"/>
       <use xlink:href="#DejaVuSans-30" transform="translate(190.869141 0)"/>
      </g>
     </g>
    </g>
    <g id="xtick_5">
     <g id="line2d_5">
      <g>
       <use xlink:href="#mb95d06c26a" x="347.025313" y="257.158895" style="stroke: #000000; stroke-width: 0.8"/>
      </g>
     </g>
     <g id="text_5">
      <!-- 4000 -->
      <g transform="translate(334.300313 271.757332) scale(0.1 -0.1)">
       <defs>
        <path id="DejaVuSans-34" d="M 2419 4116 
L 825 1625 
L 2419 1625 
L 2419 4116 
z
M 2253 4666 
L 3047 4666 
L 3047 1625 
L 3713 1625 
L 3713 1100 
L 3047 1100 
L 3047 0 
L 2419 0 
L 2419 1100 
L 313 1100 
L 313 1709 
L 2253 4666 
z
" transform="scale(0.015625)"/>
       </defs>
       <use xlink:href="#DejaVuSans-34"/>
       <use xlink:href="#DejaVuSans-30" transform="translate(63.623047 0)"/>
       <use xlink:href="#DejaVuSans-30" transform="translate(127.246094 0)"/>
       <use xlink:href="#DejaVuSans-30" transform="translate(190.869141 0)"/>
      </g>
     </g>
    </g>
    <g id="xtick_6">
     <g id="line2d_6">
      <g>
       <use xlink:href="#mb95d06c26a" x="416.36548" y="257.158895" style="stroke: #000000; stroke-width: 0.8"/>
      </g>
     </g>
     <g id="text_6">
      <!-- 5000 -->
      <g transform="translate(403.64048 271.757332) scale(0.1 -0.1)">
       <defs>
        <path id="DejaVuSans-35" d="M 691 4666 
L 3169 4666 
L 3169 4134 
L 1269 4134 
L 1269 2991 
Q 1406 3038 1543 3061 
Q 1681 3084 1819 3084 
Q 2600 3084 3056 2656 
Q 3513 2228 3513 1497 
Q 3513 744 3044 326 
Q 2575 -91 1722 -91 
Q 1428 -91 1123 -41 
Q 819 9 494 109 
L 494 744 
Q 775 591 1075 516 
Q 1375 441 1709 441 
Q 2250 441 2565 725 
Q 2881 1009 2881 1497 
Q 2881 1984 2565 2268 
Q 2250 2553 1709 2553 
Q 1456 2553 1204 2497 
Q 953 2441 691 2322 
L 691 4666 
z
" transform="scale(0.015625)"/>
       </defs>
       <use xlink:href="#DejaVuSans-35"/>
       <use xlink:href="#DejaVuSans-30" transform="translate(63.623047 0)"/>
       <use xlink:href="#DejaVuSans-30" transform="translate(127.246094 0)"/>
       <use xlink:href="#DejaVuSans-30" transform="translate(190.869141 0)"/>
      </g>
     </g>
    </g>
    <g id="text_7">
     <!-- time [µs] -->
     <g transform="translate(220.031286 285.435457) scale(0.1 -0.1)">
      <defs>
       <path id="DejaVuSans-74" d="M 1172 4494 
L 1172 3500 
L 2356 3500 
L 2356 3053 
L 1172 3053 
L 1172 1153 
Q 1172 725 1289 603 
Q 1406 481 1766 481 
L 2356 481 
L 2356 0 
L 1766 0 
Q 1100 0 847 248 
Q 594 497 594 1153 
L 594 3053 
L 172 3053 
L 172 3500 
L 594 3500 
L 594 4494 
L 1172 4494 
z
" transform="scale(0.015625)"/>
       <path id="DejaVuSans-69" d="M 603 3500 
L 1178 3500 
L 1178 0 
L 603 0 
L 603 3500 
z
M 603 4863 
L 1178 4863 
L 1178 4134 
L 603 4134 
L 603 4863 
z
" transform="scale(0.015625)"/>
       <path id="DejaVuSans-6d" d="M 3328 2828 
Q 3544 3216 3844 3400 
Q 4144 3584 4550 3584 
Q 5097 3584 5394 3201 
Q 5691 2819 5691 2113 
L 5691 0 
L 5113 0 
L 5113 2094 
Q 5113 2597 4934 2840 
Q 4756 3084 4391 3084 
Q 3944 3084 3684 2787 
Q 3425 2491 3425 1978 
L 3425 0 
L 2847 0 
L 2847 2094 
Q 2847 2600 2669 2842 
Q 2491 3084 2119 3084 
Q 1678 3084 1418 2786 
Q 1159 2488 1159 1978 
L 1159 0 
L 581 0 
L 581 3500 
L 1159 3500 
L 1159 2956 
Q 1356 3278 1631 3431 
Q 1906 3584 2284 3584 
Q 2666 3584 2933 3390 
Q 3200 3197 3328 2828 
z
" transform="scale(0.015625)"/>
       <path id="DejaVuSans-65" d="M 3597 1894 
L 3597 1613 
L 953 1613 
Q 991 1019 1311 708 
Q 1631 397 2203 397 
Q 2534 397 2845 478 
Q 3156 559 3463 722 
L 3463 178 
Q 3153 47 2828 -22 
Q 2503 -91 2169 -91 
Q 1331 -91 842 396 
Q 353 884 353 1716 
Q 353 2575 817 3079 
Q 1281 3584 2069 3584 
Q 2775 3584 3186 3129 
Q 3597 2675 3597 1894 
z
M 3022 2063 
Q 3016 2534 2758 2815 
Q 2500 3097 2075 3097 
Q 1594 3097 1305 2825 
Q 1016 2553 972 2059 
L 3022 2063 
z
" transform="scale(0.015625)"/>
       <path id="DejaVuSans-20" transform="scale(0.015625)"/>
       <path id="DejaVuSans-5b" d="M 550 4863 
L 1875 4863 
L 1875 4416 
L 1125 4416 
L 1125 -397 
L 1875 -397 
L 1875 -844 
L 550 -844 
L 550 4863 
z
" transform="scale(0.015625)"/>
       <path id="DejaVuSans-b5" d="M 544 -1331 
L 544 3500 
L 1119 3500 
L 1119 1325 
Q 1119 872 1334 640 
Q 1550 409 1972 409 
Q 2434 409 2667 671 
Q 2900 934 2900 1459 
L 2900 3500 
L 3475 3500 
L 3475 806 
Q 3475 619 3529 530 
Q 3584 441 3700 441 
Q 3728 441 3778 458 
Q 3828 475 3916 513 
L 3916 50 
Q 3788 -22 3673 -56 
Q 3559 -91 3450 -91 
Q 3234 -91 3106 31 
Q 2978 153 2931 403 
Q 2775 156 2548 32 
Q 2322 -91 2016 -91 
Q 1697 -91 1473 31 
Q 1250 153 1119 397 
L 1119 -1331 
L 544 -1331 
z
" transform="scale(0.015625)"/>
       <path id="DejaVuSans-73" d="M 2834 3397 
L 2834 2853 
Q 2591 2978 2328 3040 
Q 2066 3103 1784 3103 
Q 1356 3103 1142 2972 
Q 928 2841 928 2578 
Q 928 2378 1081 2264 
Q 1234 2150 1697 2047 
L 1894 2003 
Q 2506 1872 2764 1633 
Q 3022 1394 3022 966 
Q 3022 478 2636 193 
Q 2250 -91 1575 -91 
Q 1294 -91 989 -36 
Q 684 19 347 128 
L 347 722 
Q 666 556 975 473 
Q 1284 391 1588 391 
Q 1994 391 2212 530 
Q 2431 669 2431 922 
Q 2431 1156 2273 1281 
Q 2116 1406 1581 1522 
L 1381 1569 
Q 847 1681 609 1914 
Q 372 2147 372 2553 
Q 372 3047 722 3315 
Q 1072 3584 1716 3584 
Q 2034 3584 2315 3537 
Q 2597 3491 2834 3397 
z
" transform="scale(0.015625)"/>
       <path id="DejaVuSans-5d" d="M 1947 4863 
L 1947 -844 
L 622 -844 
L 622 -397 
L 1369 -397 
L 1369 4416 
L 622 4416 
L 622 4863 
L 1947 4863 
z
" transform="scale(0.015625)"/>
      </defs>
      <use xlink:href="#DejaVuSans-74"/>
      <use xlink:href="#DejaVuSans-69" transform="translate(39.208984 0)"/>
      <use xlink:href="#DejaVuSans-6d" transform="translate(66.992188 0)"/>
      <use xlink:href="#DejaVuSans-65" transform="translate(164.404297 0)"/>
      <use xlink:href="#DejaVuSans-20" transform="translate(225.927734 0)"/>
      <use xlink:href="#DejaVuSans-5b" transform="translate(257.714844 0)"/>
      <use xlink:href="#DejaVuSans-b5" transform="translate(296.728516 0)"/>
      <use xlink:href="#DejaVuSans-73" transform="translate(360.351562 0)"/>
      <use xlink:href="#DejaVuSans-5d" transform="translate(412.451172 0)"/>
     </g>
    </g>
   </g>
   <g id="matplotlib.axis_2">
    <g id="ytick_1">
     <g id="line2d_7">
      <defs>
       <path id="m982b7ca966" d="M 0 0 
L -3.5 0 
" style="stroke: #000000; stroke-width: 0.8"/>
      </defs>
      <g>
       <use xlink:href="#m982b7ca966" x="53.328125" y="245.797127" style="stroke: #000000; stroke-width: 0.8"/>
      </g>
     </g>
     <g id="text_8">
      <!-- 0 -->
      <g transform="translate(39.965625 249.596346) scale(0.1 -0.1)">
       <use xlink:href="#DejaVuSans-30"/>
      </g>
     </g>
    </g>
    <g id="ytick_2">
     <g id="line2d_8">
      <g>
       <use xlink:href="#m982b7ca966" x="53.328125" y="208.90827" style="stroke: #000000; stroke-width: 0.8"/>
      </g>
     </g>
     <g id="text_9">
      <!-- 200 -->
      <g transform="translate(27.240625 212.707489) scale(0.1 -0.1)">
       <use xlink:href="#DejaVuSans-32"/>
       <use xlink:href="#DejaVuSans-30" transform="translate(63.623047 0)"/>
       <use xlink:href="#DejaVuSans-30" transform="translate(127.246094 0)"/>
      </g>
     </g>
    </g>
    <g id="ytick_3">
     <g id="line2d_9">
      <g>
       <use xlink:href="#m982b7ca966" x="53.328125" y="172.019413" style="stroke: #000000; stroke-width: 0.8"/>
      </g>
     </g>
     <g id="text_10">
      <!-- 400 -->
      <g transform="translate(27.240625 175.818632) scale(0.1 -0.1)">
       <use xlink:href="#DejaVuSans-34"/>
       <use xlink:href="#DejaVuSans-30" transform="translate(63.623047 0)"/>
       <use xlink:href="#DejaVuSans-30" transform="translate(127.246094 0)"/>
      </g>
     </g>
    </g>
    <g id="ytick_4">
     <g id="line2d_10">
      <g>
       <use xlink:href="#m982b7ca966" x="53.328125" y="135.130556" style="stroke: #000000; stroke-width: 0.8"/>
      </g>
     </g>
     <g id="text_11">
      <!-- 600 -->
      <g transform="translate(27.240625 138.929775) scale(0.1 -0.1)">
       <defs>
        <path id="DejaVuSans-36" d="M 2113 2584 
Q 1688 2584 1439 2293 
Q 1191 2003 1191 1497 
Q 1191 994 1439 701 
Q 1688 409 2113 409 
Q 2538 409 2786 701 
Q 3034 994 3034 1497 
Q 3034 2003 2786 2293 
Q 2538 2584 2113 2584 
z
M 3366 4563 
L 3366 3988 
Q 3128 4100 2886 4159 
Q 2644 4219 2406 4219 
Q 1781 4219 1451 3797 
Q 1122 3375 1075 2522 
Q 1259 2794 1537 2939 
Q 1816 3084 2150 3084 
Q 2853 3084 3261 2657 
Q 3669 2231 3669 1497 
Q 3669 778 3244 343 
Q 2819 -91 2113 -91 
Q 1303 -91 875 529 
Q 447 1150 447 2328 
Q 447 3434 972 4092 
Q 1497 4750 2381 4750 
Q 2619 4750 2861 4703 
Q 3103 4656 3366 4563 
z
" transform="scale(0.015625)"/>
       </defs>
       <use xlink:href="#DejaVuSans-36"/>
       <use xlink:href="#DejaVuSans-30" transform="translate(63.623047 0)"/>
       <use xlink:href="#DejaVuSans-30" transform="translate(127.246094 0)"/>
      </g>
     </g>
    </g>
    <g id="ytick_5">
     <g id="line2d_11">
      <g>
       <use xlink:href="#m982b7ca966" x="53.328125" y="98.241699" style="stroke: #000000; stroke-width: 0.8"/>
      </g>
     </g>
     <g id="text_12">
      <!-- 800 -->
      <g transform="translate(27.240625 102.040918) scale(0.1 -0.1)">
       <defs>
        <path id="DejaVuSans-38" d="M 2034 2216 
Q 1584 2216 1326 1975 
Q 1069 1734 1069 1313 
Q 1069 891 1326 650 
Q 1584 409 2034 409 
Q 2484 409 2743 651 
Q 3003 894 3003 1313 
Q 3003 1734 2745 1975 
Q 2488 2216 2034 2216 
z
M 1403 2484 
Q 997 2584 770 2862 
Q 544 3141 544 3541 
Q 544 4100 942 4425 
Q 1341 4750 2034 4750 
Q 2731 4750 3128 4425 
Q 3525 4100 3525 3541 
Q 3525 3141 3298 2862 
Q 3072 2584 2669 2484 
Q 3125 2378 3379 2068 
Q 3634 1759 3634 1313 
Q 3634 634 3220 271 
Q 2806 -91 2034 -91 
Q 1263 -91 848 271 
Q 434 634 434 1313 
Q 434 1759 690 2068 
Q 947 2378 1403 2484 
z
M 1172 3481 
Q 1172 3119 1398 2916 
Q 1625 2713 2034 2713 
Q 2441 2713 2670 2916 
Q 2900 3119 2900 3481 
Q 2900 3844 2670 4047 
Q 2441 4250 2034 4250 
Q 1625 4250 1398 4047 
Q 1172 3844 1172 3481 
z
" transform="scale(0.015625)"/>
       </defs>
       <use xlink:href="#DejaVuSans-38"/>
       <use xlink:href="#DejaVuSans-30" transform="translate(63.623047 0)"/>
       <use xlink:href="#DejaVuSans-30" transform="translate(127.246094 0)"/>
      </g>
     </g>
    </g>
    <g id="ytick_6">
     <g id="line2d_12">
      <g>
       <use xlink:href="#m982b7ca966" x="53.328125" y="61.352842" style="stroke: #000000; stroke-width: 0.8"/>
      </g>
     </g>
     <g id="text_13">
      <!-- 1000 -->
      <g transform="translate(20.878125 65.152061) scale(0.1 -0.1)">
       <use xlink:href="#DejaVuSans-31"/>
       <use xlink:href="#DejaVuSans-30" transform="translate(63.623047 0)"/>
       <use xlink:href="#DejaVuSans-30" transform="translate(127.246094 0)"/>
       <use xlink:href="#DejaVuSans-30" transform="translate(190.869141 0)"/>
      </g>
     </g>
    </g>
    <g id="ytick_7">
     <g id="line2d_13">
      <g>
       <use xlink:href="#m982b7ca966" x="53.328125" y="24.463985" style="stroke: #000000; stroke-width: 0.8"/>
      </g>
     </g>
     <g id="text_14">
      <!-- 1200 -->
      <g transform="translate(20.878125 28.263204) scale(0.1 -0.1)">
       <use xlink:href="#DejaVuSans-31"/>
       <use xlink:href="#DejaVuSans-32" transform="translate(63.623047 0)"/>
       <use xlink:href="#DejaVuSans-30" transform="translate(127.246094 0)"/>
       <use xlink:href="#DejaVuSans-30" transform="translate(190.869141 0)"/>
      </g>
     </g>
    </g>
    <g id="text_15">
     <!-- [counts] -->
     <g transform="translate(14.798438 152.791947) rotate(-90) scale(0.1 -0.1)">
      <defs>
       <path id="DejaVuSans-63" d="M 3122 3366 
L 3122 2828 
Q 2878 2963 2633 3030 
Q 2388 3097 2138 3097 
Q 1578 3097 1268 2742 
Q 959 2388 959 1747 
Q 959 1106 1268 751 
Q 1578 397 2138 397 
Q 2388 397 2633 464 
Q 2878 531 3122 666 
L 3122 134 
Q 2881 22 2623 -34 
Q 2366 -91 2075 -91 
Q 1284 -91 818 406 
Q 353 903 353 1747 
Q 353 2603 823 3093 
Q 1294 3584 2113 3584 
Q 2378 3584 2631 3529 
Q 2884 3475 3122 3366 
z
" transform="scale(0.015625)"/>
       <path id="DejaVuSans-6f" d="M 1959 3097 
Q 1497 3097 1228 2736 
Q 959 2375 959 1747 
Q 959 1119 1226 758 
Q 1494 397 1959 397 
Q 2419 397 2687 759 
Q 2956 1122 2956 1747 
Q 2956 2369 2687 2733 
Q 2419 3097 1959 3097 
z
M 1959 3584 
Q 2709 3584 3137 3096 
Q 3566 2609 3566 1747 
Q 3566 888 3137 398 
Q 2709 -91 1959 -91 
Q 1206 -91 779 398 
Q 353 888 353 1747 
Q 353 2609 779 3096 
Q 1206 3584 1959 3584 
z
" transform="scale(0.015625)"/>
       <path id="DejaVuSans-75" d="M 544 1381 
L 544 3500 
L 1119 3500 
L 1119 1403 
Q 1119 906 1312 657 
Q 1506 409 1894 409 
Q 2359 409 2629 706 
Q 2900 1003 2900 1516 
L 2900 3500 
L 3475 3500 
L 3475 0 
L 2900 0 
L 2900 538 
Q 2691 219 2414 64 
Q 2138 -91 1772 -91 
Q 1169 -91 856 284 
Q 544 659 544 1381 
z
M 1991 3584 
L 1991 3584 
z
" transform="scale(0.015625)"/>
       <path id="DejaVuSans-6e" d="M 3513 2113 
L 3513 0 
L 2938 0 
L 2938 2094 
Q 2938 2591 2744 2837 
Q 2550 3084 2163 3084 
Q 1697 3084 1428 2787 
Q 1159 2491 1159 1978 
L 1159 0 
L 581 0 
L 581 3500 
L 1159 3500 
L 1159 2956 
Q 1366 3272 1645 3428 
Q 1925 3584 2291 3584 
Q 2894 3584 3203 3211 
Q 3513 2838 3513 2113 
z
" transform="scale(0.015625)"/>
      </defs>
      <use xlink:href="#DejaVuSans-5b"/>
      <use xlink:href="#DejaVuSans-63" transform="translate(39.013672 0)"/>
      <use xlink:href="#DejaVuSans-6f" transform="translate(93.994141 0)"/>
      <use xlink:href="#DejaVuSans-75" transform="translate(155.175781 0)"/>
      <use xlink:href="#DejaVuSans-6e" transform="translate(218.554688 0)"/>
      <use xlink:href="#DejaVuSans-74" transform="translate(281.933594 0)"/>
      <use xlink:href="#DejaVuSans-73" transform="translate(321.142578 0)"/>
      <use xlink:href="#DejaVuSans-5d" transform="translate(373.242188 0)"/>
     </g>
    </g>
   </g>
   <g id="patch_3">
    <path d="M 53.328125 257.158895 
L 53.328125 7.2 
" style="fill: none; stroke: #000000; stroke-width: 0.8; stroke-linejoin: miter; stroke-linecap: square"/>
   </g>
   <g id="patch_4">
    <path d="M 431.87976 257.158895 
L 431.87976 7.2 
" style="fill: none; stroke: #000000; stroke-width: 0.8; stroke-linejoin: miter; stroke-linecap: square"/>
   </g>
   <g id="patch_5">
    <path d="M 53.328125 257.158895 
L 431.87976 257.158895 
" style="fill: none; stroke: #000000; stroke-width: 0.8; stroke-linejoin: miter; stroke-linecap: square"/>
   </g>
   <g id="patch_6">
    <path d="M 53.328125 7.2 
L 431.87976 7.2 
" style="fill: none; stroke: #000000; stroke-width: 0.8; stroke-linejoin: miter; stroke-linecap: square"/>
   </g>
   <g id="line2d_14">
    <path d="M 70.535017 232.14825 
L 71.682144 232.14825 
L 71.682144 227.168254 
L 72.82927 227.168254 
L 72.82927 222.557147 
L 73.976396 222.557147 
L 73.976396 213.334933 
L 75.123522 213.334933 
L 75.123522 203.006053 
L 76.270648 203.006053 
L 76.270648 190.094953 
L 77.417774 190.094953 
L 77.417774 186.9594 
L 78.564901 186.9594 
L 78.564901 180.872739 
L 79.712027 180.872739 
L 79.712027 171.281636 
L 80.859153 171.281636 
L 80.859153 165.748307 
L 82.006279 165.748307 
L 82.006279 150.80832 
L 83.153405 150.80832 
L 83.153405 145.64388 
L 84.300531 145.64388 
L 84.300531 145.828325 
L 85.447658 145.828325 
L 85.447658 135.683889 
L 86.594784 135.683889 
L 86.594784 129.966116 
L 87.74191 129.966116 
L 87.74191 127.56834 
L 88.889036 127.56834 
L 88.889036 126.646119 
L 90.036162 126.646119 
L 90.036162 114.288352 
L 91.183288 114.288352 
L 91.183288 113.919463 
L 92.330415 113.919463 
L 92.330415 92.892815 
L 93.477541 92.892815 
L 93.477541 103.959472 
L 94.624667 103.959472 
L 94.624667 103.03725 
L 95.771793 103.03725 
L 95.771793 86.068376 
L 96.918919 86.068376 
L 96.918919 85.146155 
L 98.066045 85.146155 
L 98.066045 94.737258 
L 99.213172 94.737258 
L 99.213172 84.592822 
L 100.360298 84.592822 
L 100.360298 82.563935 
L 101.507424 82.563935 
L 101.507424 82.195046 
L 102.65455 82.195046 
L 102.65455 75.555052 
L 103.801676 75.555052 
L 103.801676 67.808392 
L 104.948802 67.808392 
L 104.948802 69.099502 
L 106.095929 69.099502 
L 106.095929 75.923941 
L 107.243055 75.923941 
L 107.243055 72.603943 
L 108.390181 72.603943 
L 108.390181 66.517282 
L 109.537307 66.517282 
L 109.537307 59.323955 
L 110.684433 59.323955 
L 110.684433 67.808392 
L 111.831559 67.808392 
L 111.831559 67.439503 
L 112.978686 67.439503 
L 112.978686 65.226172 
L 114.125812 65.226172 
L 114.125812 59.508399 
L 115.272938 59.508399 
L 115.272938 60.246176 
L 116.420064 60.246176 
L 116.420064 50.101741 
L 117.56719 50.101741 
L 117.56719 39.957305 
L 118.714316 39.957305 
L 118.714316 63.381729 
L 119.861443 63.381729 
L 119.861443 52.868405 
L 121.008569 52.868405 
L 121.008569 59.323955 
L 122.155695 59.323955 
L 122.155695 58.032845 
L 123.302821 58.032845 
L 123.302821 45.121745 
L 124.449947 45.121745 
L 124.449947 48.072854 
L 125.597073 48.072854 
L 125.597073 48.810631 
L 126.7442 48.810631 
L 126.7442 42.355081 
L 127.891326 42.355081 
L 127.891326 35.899531 
L 129.038452 35.899531 
L 129.038452 46.228411 
L 130.185578 46.228411 
L 130.185578 36.268419 
L 131.332704 36.268419 
L 131.332704 42.170636 
L 132.47983 42.170636 
L 132.47983 33.132866 
L 133.626957 33.132866 
L 133.626957 46.966188 
L 134.774083 46.966188 
L 134.774083 44.199524 
L 135.921209 44.199524 
L 135.921209 51.761739 
L 137.068335 51.761739 
L 137.068335 48.257298 
L 138.215461 48.257298 
L 138.215461 45.306189 
L 139.362587 45.306189 
L 139.362587 32.026201 
L 140.509714 32.026201 
L 140.509714 38.666195 
L 141.65684 38.666195 
L 141.65684 34.423976 
L 142.803966 34.423976 
L 142.803966 44.752856 
L 143.951092 44.752856 
L 143.951092 33.870644 
L 145.098218 33.870644 
L 145.098218 37.928418 
L 146.245344 37.928418 
L 146.245344 36.821752 
L 147.392471 36.821752 
L 147.392471 32.579534 
L 148.539597 32.579534 
L 148.539597 43.092858 
L 149.686723 43.092858 
L 149.686723 37.743974 
L 150.833849 37.743974 
L 150.833849 38.297306 
L 151.980975 38.297306 
L 151.980975 26.308428 
L 153.128101 26.308428 
L 153.128101 42.539525 
L 154.275228 42.539525 
L 154.275228 35.161754 
L 155.422354 35.161754 
L 155.422354 37.006196 
L 156.56948 37.006196 
L 156.56948 36.637308 
L 157.716606 36.637308 
L 157.716606 41.986192 
L 158.863732 41.986192 
L 158.863732 41.432859 
L 160.010858 41.432859 
L 160.010858 44.752856 
L 161.157985 44.752856 
L 161.157985 35.346198 
L 162.305111 35.346198 
L 162.305111 35.530642 
L 163.452237 35.530642 
L 163.452237 31.841756 
L 164.599363 31.841756 
L 164.599363 18.561768 
L 165.746489 18.561768 
L 165.746489 40.141749 
L 166.893615 40.141749 
L 166.893615 33.686199 
L 168.040742 33.686199 
L 168.040742 38.666195 
L 169.187868 38.666195 
L 169.187868 39.035084 
L 170.334994 39.035084 
L 170.334994 31.841756 
L 171.48212 31.841756 
L 171.48212 22.435098 
L 172.629246 22.435098 
L 172.629246 32.210645 
L 173.776372 32.210645 
L 173.776372 35.161754 
L 174.923499 35.161754 
L 174.923499 26.492872 
L 176.070625 26.492872 
L 176.070625 35.715086 
L 177.217751 35.715086 
L 177.217751 24.832874 
L 178.364877 24.832874 
L 178.364877 29.075092 
L 179.512003 29.075092 
L 179.512003 37.190641 
L 180.659129 37.190641 
L 180.659129 30.181758 
L 181.806256 30.181758 
L 181.806256 44.015079 
L 182.953382 44.015079 
L 182.953382 38.481751 
L 184.100508 38.481751 
L 184.100508 29.259536 
L 185.247634 29.259536 
L 185.247634 28.890648 
L 186.39476 28.890648 
L 186.39476 24.279541 
L 187.541886 24.279541 
L 187.541886 34.608421 
L 188.689013 34.608421 
L 188.689013 32.395089 
L 189.836139 32.395089 
L 189.836139 35.899531 
L 190.983265 35.899531 
L 190.983265 27.230649 
L 192.130391 27.230649 
L 192.130391 44.568412 
L 193.277517 44.568412 
L 193.277517 36.452864 
L 194.424643 36.452864 
L 194.424643 39.219528 
L 195.57177 39.219528 
L 195.57177 29.997314 
L 196.718896 29.997314 
L 196.718896 34.239532 
L 197.866022 34.239532 
L 197.866022 20.037322 
L 199.013148 20.037322 
L 199.013148 32.948422 
L 200.160274 32.948422 
L 200.160274 46.228411 
L 201.3074 46.228411 
L 201.3074 27.968426 
L 202.454527 27.968426 
L 202.454527 42.908414 
L 203.601653 42.908414 
L 203.601653 29.997314 
L 204.748779 29.997314 
L 204.748779 36.821752 
L 205.895905 36.821752 
L 205.895905 41.248415 
L 207.043031 41.248415 
L 207.043031 34.239532 
L 208.190157 34.239532 
L 208.190157 26.123984 
L 209.337284 26.123984 
L 209.337284 22.250654 
L 210.48441 22.250654 
L 210.48441 34.977309 
L 211.631536 34.977309 
L 211.631536 37.375085 
L 212.778662 37.375085 
L 212.778662 27.415094 
L 213.925788 27.415094 
L 213.925788 33.686199 
L 216.220041 33.686199 
L 216.220041 34.423976 
L 217.367167 34.423976 
L 217.367167 44.937301 
L 218.514293 44.937301 
L 218.514293 25.755095 
L 219.661419 25.755095 
L 219.661419 24.279541 
L 220.808545 24.279541 
L 220.808545 23.541764 
L 221.955671 23.541764 
L 221.955671 37.006196 
L 223.102798 37.006196 
L 223.102798 37.190641 
L 224.249924 37.190641 
L 224.249924 25.386206 
L 225.39705 25.386206 
L 225.39705 27.968426 
L 226.544176 27.968426 
L 226.544176 32.948422 
L 227.691302 32.948422 
L 227.691302 41.801748 
L 228.838428 41.801748 
L 228.838428 30.366202 
L 229.985555 30.366202 
L 229.985555 26.492872 
L 231.132681 26.492872 
L 231.132681 32.763978 
L 232.279807 32.763978 
L 232.279807 27.415094 
L 233.426933 27.415094 
L 233.426933 38.666195 
L 234.574059 38.666195 
L 234.574059 37.006196 
L 235.721185 37.006196 
L 235.721185 32.763978 
L 236.868312 32.763978 
L 236.868312 43.830635 
L 238.015438 43.830635 
L 238.015438 28.337315 
L 239.162564 28.337315 
L 239.162564 29.812869 
L 240.30969 29.812869 
L 240.30969 27.783982 
L 241.456816 27.783982 
L 241.456816 29.443981 
L 242.603942 29.443981 
L 242.603942 28.521759 
L 243.751069 28.521759 
L 243.751069 23.172875 
L 244.898195 23.172875 
L 244.898195 32.210645 
L 246.045321 32.210645 
L 246.045321 48.810631 
L 247.192447 48.810631 
L 247.192447 32.210645 
L 248.339573 32.210645 
L 248.339573 33.132866 
L 249.486699 33.132866 
L 249.486699 34.977309 
L 250.633826 34.977309 
L 250.633826 25.017318 
L 251.780952 25.017318 
L 251.780952 38.481751 
L 252.928078 38.481751 
L 252.928078 39.588416 
L 254.075204 39.588416 
L 254.075204 29.997314 
L 255.22233 29.997314 
L 255.22233 32.948422 
L 256.369456 32.948422 
L 256.369456 30.919535 
L 257.516583 30.919535 
L 257.516583 35.346198 
L 258.663709 35.346198 
L 258.663709 37.743974 
L 259.810835 37.743974 
L 259.810835 35.346198 
L 260.957961 35.346198 
L 260.957961 29.075092 
L 262.105087 29.075092 
L 262.105087 40.695082 
L 263.252213 40.695082 
L 263.252213 20.221767 
L 264.39934 20.221767 
L 264.39934 36.821752 
L 265.546466 36.821752 
L 265.546466 38.666195 
L 266.693592 38.666195 
L 266.693592 37.375085 
L 267.840718 37.375085 
L 267.840718 33.686199 
L 268.987844 33.686199 
L 268.987844 47.519521 
L 270.13497 47.519521 
L 270.13497 46.043966 
L 271.282097 46.043966 
L 271.282097 57.663956 
L 272.429223 57.663956 
L 272.429223 72.603943 
L 273.576349 72.603943 
L 273.576349 79.797271 
L 274.723475 79.797271 
L 274.723475 89.757262 
L 275.870601 89.757262 
L 275.870601 98.241699 
L 277.017727 98.241699 
L 277.017727 103.03725 
L 278.164854 103.03725 
L 278.164854 115.395018 
L 279.31198 115.395018 
L 279.31198 114.472796 
L 280.459106 114.472796 
L 280.459106 123.510566 
L 281.606232 123.510566 
L 281.606232 131.626115 
L 282.753358 131.626115 
L 282.753358 138.081665 
L 283.900484 138.081665 
L 283.900484 144.721659 
L 285.047611 144.721659 
L 285.047611 150.254987 
L 286.194737 150.254987 
L 286.194737 155.234983 
L 287.341863 155.234983 
L 287.341863 162.42831 
L 288.488989 162.42831 
L 288.488989 159.477202 
L 289.636115 159.477202 
L 289.636115 166.854973 
L 290.783241 166.854973 
L 290.783241 168.514972 
L 291.930368 168.514972 
L 291.930368 174.786077 
L 293.077494 174.786077 
L 293.077494 178.474963 
L 294.22462 178.474963 
L 294.22462 181.241627 
L 295.371746 181.241627 
L 295.371746 184.561624 
L 296.518872 184.561624 
L 296.518872 190.648286 
L 297.665998 190.648286 
L 297.665998 193.968283 
L 298.813125 193.968283 
L 298.813125 192.861617 
L 299.960251 192.861617 
L 299.960251 201.16161 
L 301.107377 201.16161 
L 301.107377 193.783839 
L 302.254503 193.783839 
L 302.254503 204.297163 
L 303.401629 204.297163 
L 303.401629 209.646047 
L 304.548755 209.646047 
L 304.548755 202.821609 
L 305.695882 202.821609 
L 305.695882 204.850496 
L 306.843008 204.850496 
L 306.843008 213.150489 
L 307.990134 213.150489 
L 307.990134 211.859379 
L 309.13726 211.859379 
L 309.13726 213.888266 
L 310.284386 213.888266 
L 310.284386 213.703821 
L 311.431512 213.703821 
L 311.431512 221.81937 
L 312.578639 221.81937 
L 312.578639 216.470486 
L 313.725765 216.470486 
L 313.725765 220.897149 
L 314.872891 220.897149 
L 314.872891 219.23715 
L 316.020017 219.23715 
L 316.020017 224.217146 
L 317.167143 224.217146 
L 317.167143 225.508256 
L 318.314269 225.508256 
L 318.314269 228.643809 
L 319.461396 228.643809 
L 319.461396 229.56603 
L 320.608522 229.56603 
L 320.608522 226.614921 
L 321.755648 226.614921 
L 321.755648 228.828253 
L 322.902774 228.828253 
L 322.902774 227.906031 
L 324.0499 227.906031 
L 324.0499 230.119363 
L 325.197026 230.119363 
L 325.197026 232.14825 
L 326.344153 232.14825 
L 326.344153 229.56603 
L 327.491279 229.56603 
L 327.491279 233.43936 
L 328.638405 233.43936 
L 328.638405 237.681579 
L 329.785531 237.681579 
L 329.785531 232.701583 
L 330.932657 232.701583 
L 330.932657 234.914914 
L 332.079783 234.914914 
L 332.079783 237.497134 
L 333.22691 237.497134 
L 333.22691 235.468247 
L 334.374036 235.468247 
L 334.374036 236.943801 
L 335.521162 236.943801 
L 335.521162 237.497134 
L 336.668288 237.497134 
L 336.668288 235.283803 
L 337.815414 235.283803 
L 337.815414 237.681579 
L 338.96254 237.681579 
L 338.96254 238.419356 
L 341.256793 238.419356 
L 341.256793 241.739353 
L 342.403919 241.739353 
L 342.403919 239.341577 
L 343.551045 239.341577 
L 343.551045 238.788244 
L 344.698171 238.788244 
L 344.698171 239.526021 
L 345.845297 239.526021 
L 345.845297 241.370464 
L 346.992424 241.370464 
L 346.992424 241.923797 
L 348.13955 241.923797 
L 348.13955 240.079354 
L 349.286676 240.079354 
L 349.286676 240.817131 
L 350.433802 240.817131 
L 350.433802 243.214907 
L 351.580928 243.214907 
L 351.580928 239.89491 
L 352.728054 239.89491 
L 352.728054 242.108241 
L 353.875181 242.108241 
L 353.875181 241.739353 
L 355.022307 241.739353 
L 355.022307 243.030463 
L 356.169433 243.030463 
L 356.169433 242.661574 
L 357.316559 242.661574 
L 357.316559 242.47713 
L 358.463685 242.47713 
L 358.463685 241.18602 
L 359.610811 241.18602 
L 359.610811 243.399351 
L 360.757938 243.399351 
L 360.757938 243.214907 
L 361.905064 243.214907 
L 361.905064 242.846018 
L 363.05219 242.846018 
L 363.05219 243.399351 
L 364.199316 243.399351 
L 364.199316 243.214907 
L 365.346442 243.214907 
L 365.346442 243.76824 
L 366.493568 243.76824 
L 366.493568 243.030463 
L 367.640695 243.030463 
L 367.640695 243.583796 
L 368.787821 243.583796 
L 368.787821 243.214907 
L 369.934947 243.214907 
L 369.934947 244.321573 
L 372.229199 244.321573 
L 372.229199 244.506017 
L 373.376325 244.506017 
L 373.376325 243.76824 
L 374.523452 243.76824 
L 374.523452 243.214907 
L 375.670578 243.214907 
L 375.670578 244.321573 
L 376.817704 244.321573 
L 376.817704 244.506017 
L 377.96483 244.506017 
L 377.96483 244.137128 
L 379.111956 244.137128 
L 379.111956 244.690461 
L 380.259082 244.690461 
L 380.259082 245.243794 
L 381.406209 245.243794 
L 381.406209 245.05935 
L 382.553335 245.05935 
L 382.553335 244.506017 
L 383.700461 244.506017 
L 383.700461 244.874906 
L 385.994713 244.874906 
L 385.994713 244.137128 
L 387.141839 244.137128 
L 387.141839 244.874906 
L 388.288966 244.874906 
L 388.288966 245.05935 
L 389.436092 245.05935 
L 389.436092 244.874906 
L 390.583218 244.874906 
L 390.583218 244.506017 
L 391.730344 244.506017 
L 391.730344 244.874906 
L 392.87747 244.874906 
L 392.87747 244.506017 
L 394.024596 244.506017 
L 394.024596 245.243794 
L 397.465975 245.243794 
L 397.465975 244.874906 
L 398.613101 244.874906 
L 398.613101 245.428238 
L 400.907353 245.428238 
L 400.907353 245.612683 
L 402.05448 245.612683 
L 402.05448 245.243794 
L 403.201606 245.243794 
L 403.201606 245.428238 
L 404.348732 245.428238 
L 404.348732 245.243794 
L 405.495858 245.243794 
L 405.495858 245.797127 
L 406.642984 245.797127 
L 406.642984 245.612683 
L 407.79011 245.612683 
L 407.79011 245.428238 
L 408.937237 245.428238 
L 408.937237 245.243794 
L 410.084363 245.243794 
L 410.084363 245.612683 
L 411.231489 245.612683 
L 411.231489 245.428238 
L 412.378615 245.428238 
L 412.378615 245.243794 
L 413.525741 245.243794 
L 413.525741 245.428238 
L 414.672867 245.428238 
L 414.672867 245.428238 
" clip-path="url(#pce6a2489d6)" style="fill: none; stroke: #1f77b4; stroke-width: 1.5; stroke-linecap: square"/>
   </g>
  </g>
  <g id="axes_2">
   <g id="patch_7">
    <path d="M 486.647885 257.158895 
L 865.19952 257.158895 
L 865.19952 7.2 
L 486.647885 7.2 
z
" style="fill: #ffffff"/>
   </g>
   <g id="matplotlib.axis_3">
    <g id="xtick_7">
     <g id="line2d_15">
      <g>
       <use xlink:href="#mb95d06c26a" x="500.386946" y="257.158895" style="stroke: #000000; stroke-width: 0.8"/>
      </g>
     </g>
     <g id="text_16">
      <!-- 0.0 -->
      <g transform="translate(492.435383 271.757332) scale(0.1 -0.1)">
       <defs>
        <path id="DejaVuSans-2e" d="M 684 794 
L 1344 794 
L 1344 0 
L 684 0 
L 684 794 
z
" transform="scale(0.015625)"/>
       </defs>
       <use xlink:href="#DejaVuSans-30"/>
       <use xlink:href="#DejaVuSans-2e" transform="translate(63.623047 0)"/>
       <use xlink:href="#DejaVuSans-30" transform="translate(95.410156 0)"/>
      </g>
     </g>
    </g>
    <g id="xtick_8">
     <g id="line2d_16">
      <g>
       <use xlink:href="#mb95d06c26a" x="544.059034" y="257.158895" style="stroke: #000000; stroke-width: 0.8"/>
      </g>
     </g>
     <g id="text_17">
      <!-- 2.5 -->
      <g transform="translate(536.107471 271.757332) scale(0.1 -0.1)">
       <use xlink:href="#DejaVuSans-32"/>
       <use xlink:href="#DejaVuSans-2e" transform="translate(63.623047 0)"/>
       <use xlink:href="#DejaVuSans-35" transform="translate(95.410156 0)"/>
      </g>
     </g>
    </g>
    <g id="xtick_9">
     <g id="line2d_17">
      <g>
       <use xlink:href="#mb95d06c26a" x="587.731122" y="257.158895" style="stroke: #000000; stroke-width: 0.8"/>
      </g>
     </g>
     <g id="text_18">
      <!-- 5.0 -->
      <g transform="translate(579.77956 271.757332) scale(0.1 -0.1)">
       <use xlink:href="#DejaVuSans-35"/>
       <use xlink:href="#DejaVuSans-2e" transform="translate(63.623047 0)"/>
       <use xlink:href="#DejaVuSans-30" transform="translate(95.410156 0)"/>
      </g>
     </g>
    </g>
    <g id="xtick_10">
     <g id="line2d_18">
      <g>
       <use xlink:href="#mb95d06c26a" x="631.403211" y="257.158895" style="stroke: #000000; stroke-width: 0.8"/>
      </g>
     </g>
     <g id="text_19">
      <!-- 7.5 -->
      <g transform="translate(623.451648 271.757332) scale(0.1 -0.1)">
       <defs>
        <path id="DejaVuSans-37" d="M 525 4666 
L 3525 4666 
L 3525 4397 
L 1831 0 
L 1172 0 
L 2766 4134 
L 525 4134 
L 525 4666 
z
" transform="scale(0.015625)"/>
       </defs>
       <use xlink:href="#DejaVuSans-37"/>
       <use xlink:href="#DejaVuSans-2e" transform="translate(63.623047 0)"/>
       <use xlink:href="#DejaVuSans-35" transform="translate(95.410156 0)"/>
      </g>
     </g>
    </g>
    <g id="xtick_11">
     <g id="line2d_19">
      <g>
       <use xlink:href="#mb95d06c26a" x="675.075299" y="257.158895" style="stroke: #000000; stroke-width: 0.8"/>
      </g>
     </g>
     <g id="text_20">
      <!-- 10.0 -->
      <g transform="translate(663.942487 271.757332) scale(0.1 -0.1)">
       <use xlink:href="#DejaVuSans-31"/>
       <use xlink:href="#DejaVuSans-30" transform="translate(63.623047 0)"/>
       <use xlink:href="#DejaVuSans-2e" transform="translate(127.246094 0)"/>
       <use xlink:href="#DejaVuSans-30" transform="translate(159.033203 0)"/>
      </g>
     </g>
    </g>
    <g id="xtick_12">
     <g id="line2d_20">
      <g>
       <use xlink:href="#mb95d06c26a" x="718.747387" y="257.158895" style="stroke: #000000; stroke-width: 0.8"/>
      </g>
     </g>
     <g id="text_21">
      <!-- 12.5 -->
      <g transform="translate(707.614575 271.757332) scale(0.1 -0.1)">
       <use xlink:href="#DejaVuSans-31"/>
       <use xlink:href="#DejaVuSans-32" transform="translate(63.623047 0)"/>
       <use xlink:href="#DejaVuSans-2e" transform="translate(127.246094 0)"/>
       <use xlink:href="#DejaVuSans-35" transform="translate(159.033203 0)"/>
      </g>
     </g>
    </g>
    <g id="xtick_13">
     <g id="line2d_21">
      <g>
       <use xlink:href="#mb95d06c26a" x="762.419476" y="257.158895" style="stroke: #000000; stroke-width: 0.8"/>
      </g>
     </g>
     <g id="text_22">
      <!-- 15.0 -->
      <g transform="translate(751.286663 271.757332) scale(0.1 -0.1)">
       <use xlink:href="#DejaVuSans-31"/>
       <use xlink:href="#DejaVuSans-35" transform="translate(63.623047 0)"/>
       <use xlink:href="#DejaVuSans-2e" transform="translate(127.246094 0)"/>
       <use xlink:href="#DejaVuSans-30" transform="translate(159.033203 0)"/>
      </g>
     </g>
    </g>
    <g id="xtick_14">
     <g id="line2d_22">
      <g>
       <use xlink:href="#mb95d06c26a" x="806.091564" y="257.158895" style="stroke: #000000; stroke-width: 0.8"/>
      </g>
     </g>
     <g id="text_23">
      <!-- 17.5 -->
      <g transform="translate(794.958752 271.757332) scale(0.1 -0.1)">
       <use xlink:href="#DejaVuSans-31"/>
       <use xlink:href="#DejaVuSans-37" transform="translate(63.623047 0)"/>
       <use xlink:href="#DejaVuSans-2e" transform="translate(127.246094 0)"/>
       <use xlink:href="#DejaVuSans-35" transform="translate(159.033203 0)"/>
      </g>
     </g>
    </g>
    <g id="xtick_15">
     <g id="line2d_23">
      <g>
       <use xlink:href="#mb95d06c26a" x="849.763652" y="257.158895" style="stroke: #000000; stroke-width: 0.8"/>
      </g>
     </g>
     <g id="text_24">
      <!-- 20.0 -->
      <g transform="translate(838.63084 271.757332) scale(0.1 -0.1)">
       <use xlink:href="#DejaVuSans-32"/>
       <use xlink:href="#DejaVuSans-30" transform="translate(63.623047 0)"/>
       <use xlink:href="#DejaVuSans-2e" transform="translate(127.246094 0)"/>
       <use xlink:href="#DejaVuSans-30" transform="translate(159.033203 0)"/>
      </g>
     </g>
    </g>
    <g id="text_25">
     <!-- wavelength [Å] -->
     <g transform="translate(637.886202 287.119832) scale(0.1 -0.1)">
      <defs>
       <path id="DejaVuSans-77" d="M 269 3500 
L 844 3500 
L 1563 769 
L 2278 3500 
L 2956 3500 
L 3675 769 
L 4391 3500 
L 4966 3500 
L 4050 0 
L 3372 0 
L 2619 2869 
L 1863 0 
L 1184 0 
L 269 3500 
z
" transform="scale(0.015625)"/>
       <path id="DejaVuSans-61" d="M 2194 1759 
Q 1497 1759 1228 1600 
Q 959 1441 959 1056 
Q 959 750 1161 570 
Q 1363 391 1709 391 
Q 2188 391 2477 730 
Q 2766 1069 2766 1631 
L 2766 1759 
L 2194 1759 
z
M 3341 1997 
L 3341 0 
L 2766 0 
L 2766 531 
Q 2569 213 2275 61 
Q 1981 -91 1556 -91 
Q 1019 -91 701 211 
Q 384 513 384 1019 
Q 384 1609 779 1909 
Q 1175 2209 1959 2209 
L 2766 2209 
L 2766 2266 
Q 2766 2663 2505 2880 
Q 2244 3097 1772 3097 
Q 1472 3097 1187 3025 
Q 903 2953 641 2809 
L 641 3341 
Q 956 3463 1253 3523 
Q 1550 3584 1831 3584 
Q 2591 3584 2966 3190 
Q 3341 2797 3341 1997 
z
" transform="scale(0.015625)"/>
       <path id="DejaVuSans-76" d="M 191 3500 
L 800 3500 
L 1894 563 
L 2988 3500 
L 3597 3500 
L 2284 0 
L 1503 0 
L 191 3500 
z
" transform="scale(0.015625)"/>
       <path id="DejaVuSans-6c" d="M 603 4863 
L 1178 4863 
L 1178 0 
L 603 0 
L 603 4863 
z
" transform="scale(0.015625)"/>
       <path id="DejaVuSans-67" d="M 2906 1791 
Q 2906 2416 2648 2759 
Q 2391 3103 1925 3103 
Q 1463 3103 1205 2759 
Q 947 2416 947 1791 
Q 947 1169 1205 825 
Q 1463 481 1925 481 
Q 2391 481 2648 825 
Q 2906 1169 2906 1791 
z
M 3481 434 
Q 3481 -459 3084 -895 
Q 2688 -1331 1869 -1331 
Q 1566 -1331 1297 -1286 
Q 1028 -1241 775 -1147 
L 775 -588 
Q 1028 -725 1275 -790 
Q 1522 -856 1778 -856 
Q 2344 -856 2625 -561 
Q 2906 -266 2906 331 
L 2906 616 
Q 2728 306 2450 153 
Q 2172 0 1784 0 
Q 1141 0 747 490 
Q 353 981 353 1791 
Q 353 2603 747 3093 
Q 1141 3584 1784 3584 
Q 2172 3584 2450 3431 
Q 2728 3278 2906 2969 
L 2906 3500 
L 3481 3500 
L 3481 434 
z
" transform="scale(0.015625)"/>
       <path id="DejaVuSans-68" d="M 3513 2113 
L 3513 0 
L 2938 0 
L 2938 2094 
Q 2938 2591 2744 2837 
Q 2550 3084 2163 3084 
Q 1697 3084 1428 2787 
Q 1159 2491 1159 1978 
L 1159 0 
L 581 0 
L 581 4863 
L 1159 4863 
L 1159 2956 
Q 1366 3272 1645 3428 
Q 1925 3584 2291 3584 
Q 2894 3584 3203 3211 
Q 3513 2838 3513 2113 
z
" transform="scale(0.015625)"/>
       <path id="DejaVuSans-c5" d="M 2663 5081 
Q 2663 5278 2523 5417 
Q 2384 5556 2188 5556 
Q 1988 5556 1852 5420 
Q 1716 5284 1716 5081 
Q 1716 4884 1853 4746 
Q 1991 4609 2188 4609 
Q 2384 4609 2523 4746 
Q 2663 4884 2663 5081 
z
M 2188 4044 
L 1338 1722 
L 3041 1722 
L 2188 4044 
z
M 1716 4366 
Q 1525 4494 1428 4673 
Q 1331 4853 1331 5081 
Q 1331 5441 1579 5691 
Q 1828 5941 2188 5941 
Q 2544 5941 2795 5689 
Q 3047 5438 3047 5081 
Q 3047 4863 2948 4678 
Q 2850 4494 2663 4366 
L 4325 0 
L 3669 0 
L 3244 1197 
L 1141 1197 
L 716 0 
L 50 0 
L 1716 4366 
z
" transform="scale(0.015625)"/>
      </defs>
      <use xlink:href="#DejaVuSans-77"/>
      <use xlink:href="#DejaVuSans-61" transform="translate(81.787109 0)"/>
      <use xlink:href="#DejaVuSans-76" transform="translate(143.066406 0)"/>
      <use xlink:href="#DejaVuSans-65" transform="translate(202.246094 0)"/>
      <use xlink:href="#DejaVuSans-6c" transform="translate(263.769531 0)"/>
      <use xlink:href="#DejaVuSans-65" transform="translate(291.552734 0)"/>
      <use xlink:href="#DejaVuSans-6e" transform="translate(353.076172 0)"/>
      <use xlink:href="#DejaVuSans-67" transform="translate(416.455078 0)"/>
      <use xlink:href="#DejaVuSans-74" transform="translate(479.931641 0)"/>
      <use xlink:href="#DejaVuSans-68" transform="translate(519.140625 0)"/>
      <use xlink:href="#DejaVuSans-20" transform="translate(582.519531 0)"/>
      <use xlink:href="#DejaVuSans-5b" transform="translate(614.306641 0)"/>
      <use xlink:href="#DejaVuSans-c5" transform="translate(653.320312 0)"/>
      <use xlink:href="#DejaVuSans-5d" transform="translate(721.728516 0)"/>
     </g>
    </g>
   </g>
   <g id="matplotlib.axis_4">
    <g id="ytick_8">
     <g id="line2d_24">
      <g>
       <use xlink:href="#m982b7ca966" x="486.647885" y="245.797127" style="stroke: #000000; stroke-width: 0.8"/>
      </g>
     </g>
     <g id="text_26">
      <!-- 0 -->
      <g transform="translate(473.285385 249.596346) scale(0.1 -0.1)">
       <use xlink:href="#DejaVuSans-30"/>
      </g>
     </g>
    </g>
    <g id="ytick_9">
     <g id="line2d_25">
      <g>
       <use xlink:href="#m982b7ca966" x="486.647885" y="193.462867" style="stroke: #000000; stroke-width: 0.8"/>
      </g>
     </g>
     <g id="text_27">
      <!-- 1000 -->
      <g transform="translate(454.197885 197.262085) scale(0.1 -0.1)">
       <use xlink:href="#DejaVuSans-31"/>
       <use xlink:href="#DejaVuSans-30" transform="translate(63.623047 0)"/>
       <use xlink:href="#DejaVuSans-30" transform="translate(127.246094 0)"/>
       <use xlink:href="#DejaVuSans-30" transform="translate(190.869141 0)"/>
      </g>
     </g>
    </g>
    <g id="ytick_10">
     <g id="line2d_26">
      <g>
       <use xlink:href="#m982b7ca966" x="486.647885" y="141.128606" style="stroke: #000000; stroke-width: 0.8"/>
      </g>
     </g>
     <g id="text_28">
      <!-- 2000 -->
      <g transform="translate(454.197885 144.927825) scale(0.1 -0.1)">
       <use xlink:href="#DejaVuSans-32"/>
       <use xlink:href="#DejaVuSans-30" transform="translate(63.623047 0)"/>
       <use xlink:href="#DejaVuSans-30" transform="translate(127.246094 0)"/>
       <use xlink:href="#DejaVuSans-30" transform="translate(190.869141 0)"/>
      </g>
     </g>
    </g>
    <g id="ytick_11">
     <g id="line2d_27">
      <g>
       <use xlink:href="#m982b7ca966" x="486.647885" y="88.794346" style="stroke: #000000; stroke-width: 0.8"/>
      </g>
     </g>
     <g id="text_29">
      <!-- 3000 -->
      <g transform="translate(454.197885 92.593564) scale(0.1 -0.1)">
       <use xlink:href="#DejaVuSans-33"/>
       <use xlink:href="#DejaVuSans-30" transform="translate(63.623047 0)"/>
       <use xlink:href="#DejaVuSans-30" transform="translate(127.246094 0)"/>
       <use xlink:href="#DejaVuSans-30" transform="translate(190.869141 0)"/>
      </g>
     </g>
    </g>
    <g id="ytick_12">
     <g id="line2d_28">
      <g>
       <use xlink:href="#m982b7ca966" x="486.647885" y="36.460085" style="stroke: #000000; stroke-width: 0.8"/>
      </g>
     </g>
     <g id="text_30">
      <!-- 4000 -->
      <g transform="translate(454.197885 40.259304) scale(0.1 -0.1)">
       <use xlink:href="#DejaVuSans-34"/>
       <use xlink:href="#DejaVuSans-30" transform="translate(63.623047 0)"/>
       <use xlink:href="#DejaVuSans-30" transform="translate(127.246094 0)"/>
       <use xlink:href="#DejaVuSans-30" transform="translate(190.869141 0)"/>
      </g>
     </g>
    </g>
    <g id="text_31">
     <!-- [counts] -->
     <g transform="translate(448.118197 152.791947) rotate(-90) scale(0.1 -0.1)">
      <use xlink:href="#DejaVuSans-5b"/>
      <use xlink:href="#DejaVuSans-63" transform="translate(39.013672 0)"/>
      <use xlink:href="#DejaVuSans-6f" transform="translate(93.994141 0)"/>
      <use xlink:href="#DejaVuSans-75" transform="translate(155.175781 0)"/>
      <use xlink:href="#DejaVuSans-6e" transform="translate(218.554688 0)"/>
      <use xlink:href="#DejaVuSans-74" transform="translate(281.933594 0)"/>
      <use xlink:href="#DejaVuSans-73" transform="translate(321.142578 0)"/>
      <use xlink:href="#DejaVuSans-5d" transform="translate(373.242188 0)"/>
     </g>
    </g>
   </g>
   <g id="patch_8">
    <path d="M 486.647885 257.158895 
L 486.647885 7.2 
" style="fill: none; stroke: #000000; stroke-width: 0.8; stroke-linejoin: miter; stroke-linecap: square"/>
   </g>
   <g id="patch_9">
    <path d="M 865.19952 257.158895 
L 865.19952 7.2 
" style="fill: none; stroke: #000000; stroke-width: 0.8; stroke-linejoin: miter; stroke-linecap: square"/>
   </g>
   <g id="patch_10">
    <path d="M 486.647885 257.158895 
L 865.19952 257.158895 
" style="fill: none; stroke: #000000; stroke-width: 0.8; stroke-linejoin: miter; stroke-linecap: square"/>
   </g>
   <g id="patch_11">
    <path d="M 486.647885 7.2 
L 865.19952 7.2 
" style="fill: none; stroke: #000000; stroke-width: 0.8; stroke-linejoin: miter; stroke-linecap: square"/>
   </g>
   <g id="line2d_29">
    <path d="M 503.854777 152.799146 
L 505.001904 152.799146 
L 505.001904 145.001341 
L 506.14903 145.001341 
L 506.14903 140.395926 
L 507.296156 140.395926 
L 507.296156 138.250222 
L 508.443282 138.250222 
L 508.443282 148.036728 
L 509.590408 148.036728 
L 509.590408 153.060817 
L 510.737534 153.060817 
L 510.737534 146.100361 
L 511.884661 146.100361 
L 511.884661 125.114322 
L 513.031787 125.114322 
L 513.031787 108.053353 
L 514.178913 108.053353 
L 514.178913 87.119649 
L 515.326039 87.119649 
L 515.326039 60.010502 
L 516.473165 60.010502 
L 516.473165 36.721756 
L 517.620291 36.721756 
L 517.620291 23.428854 
L 518.767418 23.428854 
L 518.767418 22.591506 
L 519.914544 22.591506 
L 519.914544 18.561768 
L 521.06167 18.561768 
L 521.06167 27.144587 
L 522.208796 27.144587 
L 522.208796 31.174325 
L 523.355922 31.174325 
L 523.355922 37.925444 
L 524.503048 37.925444 
L 524.503048 49.020308 
L 525.650175 49.020308 
L 525.650175 61.737533 
L 526.797301 61.737533 
L 526.797301 74.193087 
L 527.944427 74.193087 
L 527.944427 76.181789 
L 529.091553 76.181789 
L 529.091553 84.869276 
L 530.238679 84.869276 
L 530.238679 93.609098 
L 531.385805 93.609098 
L 531.385805 95.283794 
L 532.532932 95.283794 
L 532.532932 91.829733 
L 533.680058 91.829733 
L 533.680058 93.713766 
L 534.827184 93.713766 
L 534.827184 97.377164 
L 535.97431 97.377164 
L 535.97431 91.67273 
L 537.121436 91.67273 
L 537.121436 88.899014 
L 538.268562 88.899014 
L 538.268562 84.345933 
L 539.415689 84.345933 
L 539.415689 76.495794 
L 540.562815 76.495794 
L 540.562815 58.597477 
L 541.709941 58.597477 
L 541.709941 52.579037 
L 542.857067 52.579037 
L 542.857067 38.134781 
L 544.004193 38.134781 
L 544.004193 38.97213 
L 545.151319 38.97213 
L 545.151319 36.878759 
L 546.298446 36.878759 
L 546.298446 43.106536 
L 547.445572 43.106536 
L 547.445572 49.54365 
L 548.592698 49.54365 
L 548.592698 66.238279 
L 549.739824 66.238279 
L 549.739824 73.25107 
L 550.88695 73.25107 
L 550.88695 80.525532 
L 552.034076 80.525532 
L 552.034076 93.39976 
L 553.181203 93.39976 
L 553.181203 100.621888 
L 554.328329 100.621888 
L 554.328329 109.780384 
L 555.475455 109.780384 
L 555.475455 115.066144 
L 556.622581 115.066144 
L 556.622581 122.078935 
L 557.769707 122.078935 
L 557.769707 127.41703 
L 558.916833 127.41703 
L 558.916833 128.830055 
L 560.06396 128.830055 
L 560.06396 135.319503 
L 561.211086 135.319503 
L 561.211086 140.709932 
L 562.358212 140.709932 
L 562.358212 148.036728 
L 563.505338 148.036728 
L 563.505338 156.357876 
L 564.652464 156.357876 
L 564.652464 157.14289 
L 565.79959 157.14289 
L 565.79959 157.456895 
L 566.946717 157.456895 
L 566.946717 167.452739 
L 568.093843 167.452739 
L 568.093843 168.970433 
L 569.240969 168.970433 
L 569.240969 174.09919 
L 570.388095 174.09919 
L 570.388095 175.669218 
L 571.535221 175.669218 
L 571.535221 181.268984 
L 572.682347 181.268984 
L 572.682347 183.781028 
L 573.829474 183.781028 
L 573.829474 186.345407 
L 574.9766 186.345407 
L 574.9766 188.648115 
L 576.123726 188.648115 
L 576.123726 193.096527 
L 577.270852 193.096527 
L 577.270852 192.15451 
L 578.417978 192.15451 
L 578.417978 193.515201 
L 579.565104 193.515201 
L 579.565104 197.858944 
L 580.712231 197.858944 
L 580.712231 199.324304 
L 581.859357 199.324304 
L 581.859357 204.348393 
L 583.006483 204.348393 
L 583.006483 203.45871 
L 584.153609 203.45871 
L 584.153609 205.761418 
L 585.300735 205.761418 
L 585.300735 209.47715 
L 586.447861 209.47715 
L 586.447861 210.890175 
L 587.594988 210.890175 
L 587.594988 211.361184 
L 588.742114 211.361184 
L 588.742114 215.181585 
L 589.88924 215.181585 
L 589.88924 215.443256 
L 591.036366 215.443256 
L 591.036366 215.86193 
L 592.183492 215.86193 
L 592.183492 216.437607 
L 593.330618 216.437607 
L 593.330618 216.071267 
L 594.477745 216.071267 
L 594.477745 219.891668 
L 596.771997 219.944002 
L 596.771997 220.153339 
L 597.919123 220.153339 
L 597.919123 221.409362 
L 599.066249 221.409362 
L 599.066249 223.502732 
L 600.213375 223.502732 
L 600.213375 224.392415 
L 601.360502 224.392415 
L 601.360502 223.188727 
L 602.507628 223.188727 
L 602.507628 226.695122 
L 604.80188 226.642788 
L 604.80188 227.480136 
L 605.949006 227.480136 
L 605.949006 229.050164 
L 608.243259 229.102498 
L 608.243259 228.579155 
L 609.390385 228.579155 
L 609.390385 231.509874 
L 610.537511 231.509874 
L 610.537511 231.248203 
L 611.684637 231.248203 
L 611.684637 232.608893 
L 612.831763 232.608893 
L 612.831763 232.922899 
L 613.978889 232.922899 
L 613.978889 231.300537 
L 615.126016 231.300537 
L 615.126016 233.079902 
L 616.273142 233.079902 
L 616.273142 233.969584 
L 618.567394 234.021918 
L 618.567394 235.016269 
L 619.71452 235.016269 
L 619.71452 233.55091 
L 620.861646 233.55091 
L 620.861646 235.644281 
L 622.008773 235.644281 
L 622.008773 235.487278 
L 623.155899 235.487278 
L 623.155899 235.748949 
L 624.303025 235.748949 
L 624.303025 236.01062 
L 625.450151 236.01062 
L 625.450151 236.481629 
L 626.597277 236.481629 
L 626.597277 237.318977 
L 627.744403 237.318977 
L 627.744403 237.894654 
L 628.89153 237.894654 
L 628.89153 236.900303 
L 630.038656 236.900303 
L 630.038656 237.894654 
L 632.332908 237.842319 
L 632.332908 239.307679 
L 633.480034 239.307679 
L 633.480034 238.993673 
L 635.774287 239.098342 
L 635.774287 238.784336 
L 636.921413 238.784336 
L 636.921413 239.674019 
L 638.068539 239.674019 
L 638.068539 240.197361 
L 639.215665 240.197361 
L 639.215665 238.417996 
L 640.362791 238.417996 
L 640.362791 239.988024 
L 641.509917 239.988024 
L 641.509917 240.563701 
L 642.657044 240.563701 
L 642.657044 240.825372 
L 643.80417 240.825372 
L 643.80417 240.563701 
L 644.951296 240.563701 
L 644.951296 240.720704 
L 646.098422 240.720704 
L 646.098422 239.831021 
L 647.245548 239.831021 
L 647.245548 241.087044 
L 648.392674 241.087044 
L 648.392674 240.930041 
L 649.539801 240.930041 
L 649.539801 240.773038 
L 651.834053 240.825372 
L 651.834053 241.715055 
L 654.128305 241.610386 
L 654.128305 241.558052 
L 655.275431 241.558052 
L 655.275431 241.715055 
L 656.422558 241.715055 
L 656.422558 242.238397 
L 657.569684 242.238397 
L 657.569684 241.715055 
L 658.71681 241.715055 
L 658.71681 242.500069 
L 659.863936 242.500069 
L 659.863936 241.244046 
L 661.011062 241.244046 
L 661.011062 242.081395 
L 663.305315 242.133729 
L 663.305315 241.715055 
L 664.452441 241.715055 
L 664.452441 242.133729 
L 665.599567 242.133729 
L 665.599567 242.918743 
L 666.746693 242.918743 
L 666.746693 243.389751 
L 667.893819 243.389751 
L 667.893819 243.12808 
L 670.188072 243.180414 
L 670.188072 242.866408 
L 671.335198 242.866408 
L 671.335198 242.709406 
L 672.482324 242.709406 
L 672.482324 243.180414 
L 673.62945 243.180414 
L 673.62945 243.599088 
L 674.776576 243.599088 
L 674.776576 243.808425 
L 675.923702 243.808425 
L 675.923702 243.389751 
L 677.070829 243.389751 
L 677.070829 243.546754 
L 678.217955 243.546754 
L 678.217955 243.703757 
L 679.365081 243.703757 
L 679.365081 242.971077 
L 680.512207 242.971077 
L 680.512207 244.174765 
L 681.659333 244.174765 
L 681.659333 243.965428 
L 682.806459 243.965428 
L 682.806459 244.331768 
L 683.953586 244.331768 
L 683.953586 243.49442 
L 685.100712 243.49442 
L 685.100712 244.279433 
L 686.247838 244.279433 
L 686.247838 243.703757 
L 687.394964 243.703757 
L 687.394964 243.965428 
L 691.983469 243.860759 
L 691.983469 243.49442 
L 693.130595 243.49442 
L 693.130595 243.913094 
L 694.277721 243.913094 
L 694.277721 244.227099 
L 695.424847 244.227099 
L 695.424847 244.070096 
L 697.7191 244.174765 
L 697.7191 243.808425 
L 698.866226 243.808425 
L 698.866226 244.331768 
L 701.160478 244.227099 
L 701.160478 244.750442 
L 702.307604 244.750442 
L 702.307604 244.541105 
L 703.45473 244.541105 
L 703.45473 244.698108 
L 704.601857 244.698108 
L 704.601857 244.436436 
L 706.896109 244.331768 
L 706.896109 244.698108 
L 708.043235 244.698108 
L 708.043235 244.541105 
L 709.190361 244.541105 
L 709.190361 244.070096 
L 710.337487 244.070096 
L 710.337487 244.593439 
L 712.63174 244.541105 
L 712.63174 245.064447 
L 716.073118 245.064447 
L 716.073118 244.645773 
L 717.220244 244.645773 
L 717.220244 245.169116 
L 718.367371 245.169116 
L 718.367371 244.645773 
L 719.514497 244.645773 
L 719.514497 244.802776 
L 721.808749 244.802776 
L 721.808749 244.959779 
L 727.54438 245.064447 
L 727.54438 244.802776 
L 728.691506 244.802776 
L 728.691506 245.064447 
L 735.574263 245.169116 
L 735.574263 244.85511 
L 736.721389 244.85511 
L 736.721389 245.064447 
L 737.868515 245.064447 
L 737.868515 244.541105 
L 739.015642 244.541105 
L 739.015642 245.116782 
L 740.162768 245.116782 
L 740.162768 244.959779 
L 741.309894 244.959779 
L 741.309894 245.378453 
L 742.45702 245.378453 
L 742.45702 245.064447 
L 743.604146 245.064447 
L 743.604146 244.85511 
L 744.751272 244.85511 
L 744.751272 245.273784 
L 745.898399 245.273784 
L 745.898399 244.959779 
L 747.045525 244.959779 
L 747.045525 245.169116 
L 749.339777 245.273784 
L 749.339777 245.430787 
L 751.634029 245.378453 
L 751.634029 245.22145 
L 756.222534 245.169116 
L 756.222534 245.483121 
L 757.36966 245.483121 
L 757.36966 245.326119 
L 760.811039 245.273784 
L 760.811039 245.116782 
L 761.958165 245.116782 
L 761.958165 245.430787 
L 764.252417 245.430787 
L 764.252417 245.22145 
L 765.399543 245.22145 
L 765.399543 245.535456 
L 766.54667 245.535456 
L 766.54667 245.326119 
L 768.840922 245.378453 
L 768.840922 245.535456 
L 769.988048 245.535456 
L 769.988048 245.273784 
L 773.429427 245.22145 
L 773.429427 245.430787 
L 775.723679 245.483121 
L 775.723679 245.273784 
L 776.870805 245.273784 
L 776.870805 245.535456 
L 781.45931 245.58779 
L 781.45931 245.378453 
L 783.753562 245.326119 
L 783.753562 245.692459 
L 787.194941 245.640124 
L 787.194941 245.535456 
L 790.636319 245.483121 
L 790.636319 245.378453 
L 791.783445 245.378453 
L 791.783445 245.58779 
L 797.519076 245.640124 
L 797.519076 245.430787 
L 798.666202 245.430787 
L 798.666202 245.58779 
L 800.960455 245.640124 
L 800.960455 245.430787 
L 802.107581 245.430787 
L 802.107581 245.744793 
L 803.254707 245.744793 
L 803.254707 245.58779 
L 806.696085 245.640124 
L 806.696085 245.430787 
L 807.843212 245.430787 
L 807.843212 245.58779 
L 813.578842 245.58779 
L 813.578842 245.797127 
L 814.725969 245.797127 
L 814.725969 245.483121 
L 815.873095 245.483121 
L 815.873095 245.692459 
L 817.020221 245.692459 
L 817.020221 245.483121 
L 818.167347 245.483121 
L 818.167347 245.692459 
L 834.227113 245.744793 
L 834.227113 245.535456 
L 836.521366 245.640124 
L 836.521366 245.692459 
L 847.992628 245.692459 
L 847.992628 245.692459 
" clip-path="url(#p1a82ce946b)" style="fill: none; stroke: #1f77b4; stroke-width: 1.5; stroke-linecap: square"/>
   </g>
  </g>
 </g>
 <defs>
  <clipPath id="pce6a2489d6">
   <rect x="53.328125" y="7.2" width="378.551635" height="249.958895"/>
  </clipPath>
  <clipPath id="p1a82ce946b">
   <rect x="486.647885" y="7.2" width="378.551635" height="249.958895"/>
  </clipPath>
 </defs>
</svg>
