<?xml version="1.0" encoding="utf-8" standalone="no"?>
<!DOCTYPE svg PUBLIC "-//W3C//DTD SVG 1.1//EN"
  "http://www.w3.org/Graphics/SVG/1.1/DTD/svg11.dtd">
<svg xmlns:xlink="http://www.w3.org/1999/xlink" width="388.965625pt" height="268.549642pt" viewBox="0 0 388.965625 268.549642" xmlns="http://www.w3.org/2000/svg" version="1.1">
 <metadata>
  <rdf:RDF xmlns:dc="http://purl.org/dc/elements/1.1/" xmlns:cc="http://creativecommons.org/ns#" xmlns:rdf="http://www.w3.org/1999/02/22-rdf-syntax-ns#">
   <cc:Work>
    <dc:type rdf:resource="http://purl.org/dc/dcmitype/StillImage"/>
    <dc:date>2025-05-22T08:31:09.090296</dc:date>
    <dc:format>image/svg+xml</dc:format>
    <dc:creator>
     <cc:Agent>
      <dc:title>Matplotlib v3.10.3, https://matplotlib.org/</dc:title>
     </cc:Agent>
    </dc:creator>
   </cc:Work>
  </rdf:RDF>
 </metadata>
 <defs>
  <style type="text/css">*{stroke-linejoin: round; stroke-linecap: butt}</style>
 </defs>
 <g id="figure_1">
  <g id="patch_1">
   <path d="M 0 268.549642 
L 388.965625 268.549642 
L 388.965625 0 
L 0 0 
z
" style="fill: #ffffff"/>
  </g>
  <g id="axes_1">
   <g id="patch_2">
    <path d="M 46.965625 230.715267 
L 381.765625 230.715267 
L 381.765625 8.955267 
L 46.965625 8.955267 
z
" style="fill: #ffffff"/>
   </g>
   <g id="matplotlib.axis_1">
    <g id="xtick_1">
     <g id="line2d_1">
      <defs>
       <path id="mf05a230bdd" d="M 0 0 
L 0 3.5 
" style="stroke: #000000; stroke-width: 0.8"/>
      </defs>
      <g>
       <use xlink:href="#mf05a230bdd" x="62.179832" y="230.715267" style="stroke: #000000; stroke-width: 0.8"/>
      </g>
     </g>
     <g id="text_1">
      <!-- 0 -->
      <g transform="translate(58.998582 245.313705) scale(0.1 -0.1)">
       <defs>
        <path id="DejaVuSans-30" d="M 2034 4250 
Q 1547 4250 1301 3770 
Q 1056 3291 1056 2328 
Q 1056 1369 1301 889 
Q 1547 409 2034 409 
Q 2525 409 2770 889 
Q 3016 1369 3016 2328 
Q 3016 3291 2770 3770 
Q 2525 4250 2034 4250 
z
M 2034 4750 
Q 2819 4750 3233 4129 
Q 3647 3509 3647 2328 
Q 3647 1150 3233 529 
Q 2819 -91 2034 -91 
Q 1250 -91 836 529 
Q 422 1150 422 2328 
Q 422 3509 836 4129 
Q 1250 4750 2034 4750 
z
" transform="scale(0.015625)"/>
       </defs>
       <use xlink:href="#DejaVuSans-30"/>
      </g>
     </g>
    </g>
    <g id="xtick_2">
     <g id="line2d_2">
      <g>
       <use xlink:href="#mf05a230bdd" x="104.791339" y="230.715267" style="stroke: #000000; stroke-width: 0.8"/>
      </g>
     </g>
     <g id="text_2">
      <!-- 10000 -->
      <g transform="translate(88.885089 245.313705) scale(0.1 -0.1)">
       <defs>
        <path id="DejaVuSans-31" d="M 794 531 
L 1825 531 
L 1825 4091 
L 703 3866 
L 703 4441 
L 1819 4666 
L 2450 4666 
L 2450 531 
L 3481 531 
L 3481 0 
L 794 0 
L 794 531 
z
" transform="scale(0.015625)"/>
       </defs>
       <use xlink:href="#DejaVuSans-31"/>
       <use xlink:href="#DejaVuSans-30" transform="translate(63.623047 0)"/>
       <use xlink:href="#DejaVuSans-30" transform="translate(127.246094 0)"/>
       <use xlink:href="#DejaVuSans-30" transform="translate(190.869141 0)"/>
       <use xlink:href="#DejaVuSans-30" transform="translate(254.492188 0)"/>
      </g>
     </g>
    </g>
    <g id="xtick_3">
     <g id="line2d_3">
      <g>
       <use xlink:href="#mf05a230bdd" x="147.402846" y="230.715267" style="stroke: #000000; stroke-width: 0.8"/>
      </g>
     </g>
     <g id="text_3">
      <!-- 20000 -->
      <g transform="translate(131.496596 245.313705) scale(0.1 -0.1)">
       <defs>
        <path id="DejaVuSans-32" d="M 1228 531 
L 3431 531 
L 3431 0 
L 469 0 
L 469 531 
Q 828 903 1448 1529 
Q 2069 2156 2228 2338 
Q 2531 2678 2651 2914 
Q 2772 3150 2772 3378 
Q 2772 3750 2511 3984 
Q 2250 4219 1831 4219 
Q 1534 4219 1204 4116 
Q 875 4013 500 3803 
L 500 4441 
Q 881 4594 1212 4672 
Q 1544 4750 1819 4750 
Q 2544 4750 2975 4387 
Q 3406 4025 3406 3419 
Q 3406 3131 3298 2873 
Q 3191 2616 2906 2266 
Q 2828 2175 2409 1742 
Q 1991 1309 1228 531 
z
" transform="scale(0.015625)"/>
       </defs>
       <use xlink:href="#DejaVuSans-32"/>
       <use xlink:href="#DejaVuSans-30" transform="translate(63.623047 0)"/>
       <use xlink:href="#DejaVuSans-30" transform="translate(127.246094 0)"/>
       <use xlink:href="#DejaVuSans-30" transform="translate(190.869141 0)"/>
       <use xlink:href="#DejaVuSans-30" transform="translate(254.492188 0)"/>
      </g>
     </g>
    </g>
    <g id="xtick_4">
     <g id="line2d_4">
      <g>
       <use xlink:href="#mf05a230bdd" x="190.014352" y="230.715267" style="stroke: #000000; stroke-width: 0.8"/>
      </g>
     </g>
     <g id="text_4">
      <!-- 30000 -->
      <g transform="translate(174.108102 245.313705) scale(0.1 -0.1)">
       <defs>
        <path id="DejaVuSans-33" d="M 2597 2516 
Q 3050 2419 3304 2112 
Q 3559 1806 3559 1356 
Q 3559 666 3084 287 
Q 2609 -91 1734 -91 
Q 1441 -91 1130 -33 
Q 819 25 488 141 
L 488 750 
Q 750 597 1062 519 
Q 1375 441 1716 441 
Q 2309 441 2620 675 
Q 2931 909 2931 1356 
Q 2931 1769 2642 2001 
Q 2353 2234 1838 2234 
L 1294 2234 
L 1294 2753 
L 1863 2753 
Q 2328 2753 2575 2939 
Q 2822 3125 2822 3475 
Q 2822 3834 2567 4026 
Q 2313 4219 1838 4219 
Q 1578 4219 1281 4162 
Q 984 4106 628 3988 
L 628 4550 
Q 988 4650 1302 4700 
Q 1616 4750 1894 4750 
Q 2613 4750 3031 4423 
Q 3450 4097 3450 3541 
Q 3450 3153 3228 2886 
Q 3006 2619 2597 2516 
z
" transform="scale(0.015625)"/>
       </defs>
       <use xlink:href="#DejaVuSans-33"/>
       <use xlink:href="#DejaVuSans-30" transform="translate(63.623047 0)"/>
       <use xlink:href="#DejaVuSans-30" transform="translate(127.246094 0)"/>
       <use xlink:href="#DejaVuSans-30" transform="translate(190.869141 0)"/>
       <use xlink:href="#DejaVuSans-30" transform="translate(254.492188 0)"/>
      </g>
     </g>
    </g>
    <g id="xtick_5">
     <g id="line2d_5">
      <g>
       <use xlink:href="#mf05a230bdd" x="232.625859" y="230.715267" style="stroke: #000000; stroke-width: 0.8"/>
      </g>
     </g>
     <g id="text_5">
      <!-- 40000 -->
      <g transform="translate(216.719609 245.313705) scale(0.1 -0.1)">
       <defs>
        <path id="DejaVuSans-34" d="M 2419 4116 
L 825 1625 
L 2419 1625 
L 2419 4116 
z
M 2253 4666 
L 3047 4666 
L 3047 1625 
L 3713 1625 
L 3713 1100 
L 3047 1100 
L 3047 0 
L 2419 0 
L 2419 1100 
L 313 1100 
L 313 1709 
L 2253 4666 
z
" transform="scale(0.015625)"/>
       </defs>
       <use xlink:href="#DejaVuSans-34"/>
       <use xlink:href="#DejaVuSans-30" transform="translate(63.623047 0)"/>
       <use xlink:href="#DejaVuSans-30" transform="translate(127.246094 0)"/>
       <use xlink:href="#DejaVuSans-30" transform="translate(190.869141 0)"/>
       <use xlink:href="#DejaVuSans-30" transform="translate(254.492188 0)"/>
      </g>
     </g>
    </g>
    <g id="xtick_6">
     <g id="line2d_6">
      <g>
       <use xlink:href="#mf05a230bdd" x="275.237365" y="230.715267" style="stroke: #000000; stroke-width: 0.8"/>
      </g>
     </g>
     <g id="text_6">
      <!-- 50000 -->
      <g transform="translate(259.331115 245.313705) scale(0.1 -0.1)">
       <defs>
        <path id="DejaVuSans-35" d="M 691 4666 
L 3169 4666 
L 3169 4134 
L 1269 4134 
L 1269 2991 
Q 1406 3038 1543 3061 
Q 1681 3084 1819 3084 
Q 2600 3084 3056 2656 
Q 3513 2228 3513 1497 
Q 3513 744 3044 326 
Q 2575 -91 1722 -91 
Q 1428 -91 1123 -41 
Q 819 9 494 109 
L 494 744 
Q 775 591 1075 516 
Q 1375 441 1709 441 
Q 2250 441 2565 725 
Q 2881 1009 2881 1497 
Q 2881 1984 2565 2268 
Q 2250 2553 1709 2553 
Q 1456 2553 1204 2497 
Q 953 2441 691 2322 
L 691 4666 
z
" transform="scale(0.015625)"/>
       </defs>
       <use xlink:href="#DejaVuSans-35"/>
       <use xlink:href="#DejaVuSans-30" transform="translate(63.623047 0)"/>
       <use xlink:href="#DejaVuSans-30" transform="translate(127.246094 0)"/>
       <use xlink:href="#DejaVuSans-30" transform="translate(190.869141 0)"/>
       <use xlink:href="#DejaVuSans-30" transform="translate(254.492188 0)"/>
      </g>
     </g>
    </g>
    <g id="xtick_7">
     <g id="line2d_7">
      <g>
       <use xlink:href="#mf05a230bdd" x="317.848872" y="230.715267" style="stroke: #000000; stroke-width: 0.8"/>
      </g>
     </g>
     <g id="text_7">
      <!-- 60000 -->
      <g transform="translate(301.942622 245.313705) scale(0.1 -0.1)">
       <defs>
        <path id="DejaVuSans-36" d="M 2113 2584 
Q 1688 2584 1439 2293 
Q 1191 2003 1191 1497 
Q 1191 994 1439 701 
Q 1688 409 2113 409 
Q 2538 409 2786 701 
Q 3034 994 3034 1497 
Q 3034 2003 2786 2293 
Q 2538 2584 2113 2584 
z
M 3366 4563 
L 3366 3988 
Q 3128 4100 2886 4159 
Q 2644 4219 2406 4219 
Q 1781 4219 1451 3797 
Q 1122 3375 1075 2522 
Q 1259 2794 1537 2939 
Q 1816 3084 2150 3084 
Q 2853 3084 3261 2657 
Q 3669 2231 3669 1497 
Q 3669 778 3244 343 
Q 2819 -91 2113 -91 
Q 1303 -91 875 529 
Q 447 1150 447 2328 
Q 447 3434 972 4092 
Q 1497 4750 2381 4750 
Q 2619 4750 2861 4703 
Q 3103 4656 3366 4563 
z
" transform="scale(0.015625)"/>
       </defs>
       <use xlink:href="#DejaVuSans-36"/>
       <use xlink:href="#DejaVuSans-30" transform="translate(63.623047 0)"/>
       <use xlink:href="#DejaVuSans-30" transform="translate(127.246094 0)"/>
       <use xlink:href="#DejaVuSans-30" transform="translate(190.869141 0)"/>
       <use xlink:href="#DejaVuSans-30" transform="translate(254.492188 0)"/>
      </g>
     </g>
    </g>
    <g id="xtick_8">
     <g id="line2d_8">
      <g>
       <use xlink:href="#mf05a230bdd" x="360.460379" y="230.715267" style="stroke: #000000; stroke-width: 0.8"/>
      </g>
     </g>
     <g id="text_8">
      <!-- 70000 -->
      <g transform="translate(344.554129 245.313705) scale(0.1 -0.1)">
       <defs>
        <path id="DejaVuSans-37" d="M 525 4666 
L 3525 4666 
L 3525 4397 
L 1831 0 
L 1172 0 
L 2766 4134 
L 525 4134 
L 525 4666 
z
" transform="scale(0.015625)"/>
       </defs>
       <use xlink:href="#DejaVuSans-37"/>
       <use xlink:href="#DejaVuSans-30" transform="translate(63.623047 0)"/>
       <use xlink:href="#DejaVuSans-30" transform="translate(127.246094 0)"/>
       <use xlink:href="#DejaVuSans-30" transform="translate(190.869141 0)"/>
       <use xlink:href="#DejaVuSans-30" transform="translate(254.492188 0)"/>
      </g>
     </g>
    </g>
    <g id="text_9">
     <!-- event_time_offset [µs] -->
     <g transform="translate(158.330469 258.99183) scale(0.1 -0.1)">
      <defs>
       <path id="DejaVuSans-65" d="M 3597 1894 
L 3597 1613 
L 953 1613 
Q 991 1019 1311 708 
Q 1631 397 2203 397 
Q 2534 397 2845 478 
Q 3156 559 3463 722 
L 3463 178 
Q 3153 47 2828 -22 
Q 2503 -91 2169 -91 
Q 1331 -91 842 396 
Q 353 884 353 1716 
Q 353 2575 817 3079 
Q 1281 3584 2069 3584 
Q 2775 3584 3186 3129 
Q 3597 2675 3597 1894 
z
M 3022 2063 
Q 3016 2534 2758 2815 
Q 2500 3097 2075 3097 
Q 1594 3097 1305 2825 
Q 1016 2553 972 2059 
L 3022 2063 
z
" transform="scale(0.015625)"/>
       <path id="DejaVuSans-76" d="M 191 3500 
L 800 3500 
L 1894 563 
L 2988 3500 
L 3597 3500 
L 2284 0 
L 1503 0 
L 191 3500 
z
" transform="scale(0.015625)"/>
       <path id="DejaVuSans-6e" d="M 3513 2113 
L 3513 0 
L 2938 0 
L 2938 2094 
Q 2938 2591 2744 2837 
Q 2550 3084 2163 3084 
Q 1697 3084 1428 2787 
Q 1159 2491 1159 1978 
L 1159 0 
L 581 0 
L 581 3500 
L 1159 3500 
L 1159 2956 
Q 1366 3272 1645 3428 
Q 1925 3584 2291 3584 
Q 2894 3584 3203 3211 
Q 3513 2838 3513 2113 
z
" transform="scale(0.015625)"/>
       <path id="DejaVuSans-74" d="M 1172 4494 
L 1172 3500 
L 2356 3500 
L 2356 3053 
L 1172 3053 
L 1172 1153 
Q 1172 725 1289 603 
Q 1406 481 1766 481 
L 2356 481 
L 2356 0 
L 1766 0 
Q 1100 0 847 248 
Q 594 497 594 1153 
L 594 3053 
L 172 3053 
L 172 3500 
L 594 3500 
L 594 4494 
L 1172 4494 
z
" transform="scale(0.015625)"/>
       <path id="DejaVuSans-5f" d="M 3263 -1063 
L 3263 -1509 
L -63 -1509 
L -63 -1063 
L 3263 -1063 
z
" transform="scale(0.015625)"/>
       <path id="DejaVuSans-69" d="M 603 3500 
L 1178 3500 
L 1178 0 
L 603 0 
L 603 3500 
z
M 603 4863 
L 1178 4863 
L 1178 4134 
L 603 4134 
L 603 4863 
z
" transform="scale(0.015625)"/>
       <path id="DejaVuSans-6d" d="M 3328 2828 
Q 3544 3216 3844 3400 
Q 4144 3584 4550 3584 
Q 5097 3584 5394 3201 
Q 5691 2819 5691 2113 
L 5691 0 
L 5113 0 
L 5113 2094 
Q 5113 2597 4934 2840 
Q 4756 3084 4391 3084 
Q 3944 3084 3684 2787 
Q 3425 2491 3425 1978 
L 3425 0 
L 2847 0 
L 2847 2094 
Q 2847 2600 2669 2842 
Q 2491 3084 2119 3084 
Q 1678 3084 1418 2786 
Q 1159 2488 1159 1978 
L 1159 0 
L 581 0 
L 581 3500 
L 1159 3500 
L 1159 2956 
Q 1356 3278 1631 3431 
Q 1906 3584 2284 3584 
Q 2666 3584 2933 3390 
Q 3200 3197 3328 2828 
z
" transform="scale(0.015625)"/>
       <path id="DejaVuSans-6f" d="M 1959 3097 
Q 1497 3097 1228 2736 
Q 959 2375 959 1747 
Q 959 1119 1226 758 
Q 1494 397 1959 397 
Q 2419 397 2687 759 
Q 2956 1122 2956 1747 
Q 2956 2369 2687 2733 
Q 2419 3097 1959 3097 
z
M 1959 3584 
Q 2709 3584 3137 3096 
Q 3566 2609 3566 1747 
Q 3566 888 3137 398 
Q 2709 -91 1959 -91 
Q 1206 -91 779 398 
Q 353 888 353 1747 
Q 353 2609 779 3096 
Q 1206 3584 1959 3584 
z
" transform="scale(0.015625)"/>
       <path id="DejaVuSans-66" d="M 2375 4863 
L 2375 4384 
L 1825 4384 
Q 1516 4384 1395 4259 
Q 1275 4134 1275 3809 
L 1275 3500 
L 2222 3500 
L 2222 3053 
L 1275 3053 
L 1275 0 
L 697 0 
L 697 3053 
L 147 3053 
L 147 3500 
L 697 3500 
L 697 3744 
Q 697 4328 969 4595 
Q 1241 4863 1831 4863 
L 2375 4863 
z
" transform="scale(0.015625)"/>
       <path id="DejaVuSans-73" d="M 2834 3397 
L 2834 2853 
Q 2591 2978 2328 3040 
Q 2066 3103 1784 3103 
Q 1356 3103 1142 2972 
Q 928 2841 928 2578 
Q 928 2378 1081 2264 
Q 1234 2150 1697 2047 
L 1894 2003 
Q 2506 1872 2764 1633 
Q 3022 1394 3022 966 
Q 3022 478 2636 193 
Q 2250 -91 1575 -91 
Q 1294 -91 989 -36 
Q 684 19 347 128 
L 347 722 
Q 666 556 975 473 
Q 1284 391 1588 391 
Q 1994 391 2212 530 
Q 2431 669 2431 922 
Q 2431 1156 2273 1281 
Q 2116 1406 1581 1522 
L 1381 1569 
Q 847 1681 609 1914 
Q 372 2147 372 2553 
Q 372 3047 722 3315 
Q 1072 3584 1716 3584 
Q 2034 3584 2315 3537 
Q 2597 3491 2834 3397 
z
" transform="scale(0.015625)"/>
       <path id="DejaVuSans-20" transform="scale(0.015625)"/>
       <path id="DejaVuSans-5b" d="M 550 4863 
L 1875 4863 
L 1875 4416 
L 1125 4416 
L 1125 -397 
L 1875 -397 
L 1875 -844 
L 550 -844 
L 550 4863 
z
" transform="scale(0.015625)"/>
       <path id="DejaVuSans-b5" d="M 544 -1331 
L 544 3500 
L 1119 3500 
L 1119 1325 
Q 1119 872 1334 640 
Q 1550 409 1972 409 
Q 2434 409 2667 671 
Q 2900 934 2900 1459 
L 2900 3500 
L 3475 3500 
L 3475 806 
Q 3475 619 3529 530 
Q 3584 441 3700 441 
Q 3728 441 3778 458 
Q 3828 475 3916 513 
L 3916 50 
Q 3788 -22 3673 -56 
Q 3559 -91 3450 -91 
Q 3234 -91 3106 31 
Q 2978 153 2931 403 
Q 2775 156 2548 32 
Q 2322 -91 2016 -91 
Q 1697 -91 1473 31 
Q 1250 153 1119 397 
L 1119 -1331 
L 544 -1331 
z
" transform="scale(0.015625)"/>
       <path id="DejaVuSans-5d" d="M 1947 4863 
L 1947 -844 
L 622 -844 
L 622 -397 
L 1369 -397 
L 1369 4416 
L 622 4416 
L 622 4863 
L 1947 4863 
z
" transform="scale(0.015625)"/>
      </defs>
      <use xlink:href="#DejaVuSans-65"/>
      <use xlink:href="#DejaVuSans-76" transform="translate(61.523438 0)"/>
      <use xlink:href="#DejaVuSans-65" transform="translate(120.703125 0)"/>
      <use xlink:href="#DejaVuSans-6e" transform="translate(182.226562 0)"/>
      <use xlink:href="#DejaVuSans-74" transform="translate(245.605469 0)"/>
      <use xlink:href="#DejaVuSans-5f" transform="translate(284.814453 0)"/>
      <use xlink:href="#DejaVuSans-74" transform="translate(334.814453 0)"/>
      <use xlink:href="#DejaVuSans-69" transform="translate(374.023438 0)"/>
      <use xlink:href="#DejaVuSans-6d" transform="translate(401.806641 0)"/>
      <use xlink:href="#DejaVuSans-65" transform="translate(499.21875 0)"/>
      <use xlink:href="#DejaVuSans-5f" transform="translate(560.742188 0)"/>
      <use xlink:href="#DejaVuSans-6f" transform="translate(610.742188 0)"/>
      <use xlink:href="#DejaVuSans-66" transform="translate(671.923828 0)"/>
      <use xlink:href="#DejaVuSans-66" transform="translate(707.128906 0)"/>
      <use xlink:href="#DejaVuSans-73" transform="translate(742.333984 0)"/>
      <use xlink:href="#DejaVuSans-65" transform="translate(794.433594 0)"/>
      <use xlink:href="#DejaVuSans-74" transform="translate(855.957031 0)"/>
      <use xlink:href="#DejaVuSans-20" transform="translate(895.166016 0)"/>
      <use xlink:href="#DejaVuSans-5b" transform="translate(926.953125 0)"/>
      <use xlink:href="#DejaVuSans-b5" transform="translate(965.966797 0)"/>
      <use xlink:href="#DejaVuSans-73" transform="translate(1029.589844 0)"/>
      <use xlink:href="#DejaVuSans-5d" transform="translate(1081.689453 0)"/>
     </g>
    </g>
   </g>
   <g id="matplotlib.axis_2">
    <g id="ytick_1">
     <g id="line2d_9">
      <defs>
       <path id="m6d3141c336" d="M 0 0 
L -3.5 0 
" style="stroke: #000000; stroke-width: 0.8"/>
      </defs>
      <g>
       <use xlink:href="#m6d3141c336" x="46.965625" y="220.635267" style="stroke: #000000; stroke-width: 0.8"/>
      </g>
     </g>
     <g id="text_10">
      <!-- 0 -->
      <g transform="translate(33.603125 224.434486) scale(0.1 -0.1)">
       <use xlink:href="#DejaVuSans-30"/>
      </g>
     </g>
    </g>
    <g id="ytick_2">
     <g id="line2d_10">
      <g>
       <use xlink:href="#m6d3141c336" x="46.965625" y="185.695926" style="stroke: #000000; stroke-width: 0.8"/>
      </g>
     </g>
     <g id="text_11">
      <!-- 100 -->
      <g transform="translate(20.878125 189.495145) scale(0.1 -0.1)">
       <use xlink:href="#DejaVuSans-31"/>
       <use xlink:href="#DejaVuSans-30" transform="translate(63.623047 0)"/>
       <use xlink:href="#DejaVuSans-30" transform="translate(127.246094 0)"/>
      </g>
     </g>
    </g>
    <g id="ytick_3">
     <g id="line2d_11">
      <g>
       <use xlink:href="#m6d3141c336" x="46.965625" y="150.756584" style="stroke: #000000; stroke-width: 0.8"/>
      </g>
     </g>
     <g id="text_12">
      <!-- 200 -->
      <g transform="translate(20.878125 154.555803) scale(0.1 -0.1)">
       <use xlink:href="#DejaVuSans-32"/>
       <use xlink:href="#DejaVuSans-30" transform="translate(63.623047 0)"/>
       <use xlink:href="#DejaVuSans-30" transform="translate(127.246094 0)"/>
      </g>
     </g>
    </g>
    <g id="ytick_4">
     <g id="line2d_12">
      <g>
       <use xlink:href="#m6d3141c336" x="46.965625" y="115.817243" style="stroke: #000000; stroke-width: 0.8"/>
      </g>
     </g>
     <g id="text_13">
      <!-- 300 -->
      <g transform="translate(20.878125 119.616462) scale(0.1 -0.1)">
       <use xlink:href="#DejaVuSans-33"/>
       <use xlink:href="#DejaVuSans-30" transform="translate(63.623047 0)"/>
       <use xlink:href="#DejaVuSans-30" transform="translate(127.246094 0)"/>
      </g>
     </g>
    </g>
    <g id="ytick_5">
     <g id="line2d_13">
      <g>
       <use xlink:href="#m6d3141c336" x="46.965625" y="80.877902" style="stroke: #000000; stroke-width: 0.8"/>
      </g>
     </g>
     <g id="text_14">
      <!-- 400 -->
      <g transform="translate(20.878125 84.67712) scale(0.1 -0.1)">
       <use xlink:href="#DejaVuSans-34"/>
       <use xlink:href="#DejaVuSans-30" transform="translate(63.623047 0)"/>
       <use xlink:href="#DejaVuSans-30" transform="translate(127.246094 0)"/>
      </g>
     </g>
    </g>
    <g id="ytick_6">
     <g id="line2d_14">
      <g>
       <use xlink:href="#m6d3141c336" x="46.965625" y="45.93856" style="stroke: #000000; stroke-width: 0.8"/>
      </g>
     </g>
     <g id="text_15">
      <!-- 500 -->
      <g transform="translate(20.878125 49.737779) scale(0.1 -0.1)">
       <use xlink:href="#DejaVuSans-35"/>
       <use xlink:href="#DejaVuSans-30" transform="translate(63.623047 0)"/>
       <use xlink:href="#DejaVuSans-30" transform="translate(127.246094 0)"/>
      </g>
     </g>
    </g>
    <g id="ytick_7">
     <g id="line2d_15">
      <g>
       <use xlink:href="#m6d3141c336" x="46.965625" y="10.999219" style="stroke: #000000; stroke-width: 0.8"/>
      </g>
     </g>
     <g id="text_16">
      <!-- 600 -->
      <g transform="translate(20.878125 14.798437) scale(0.1 -0.1)">
       <use xlink:href="#DejaVuSans-36"/>
       <use xlink:href="#DejaVuSans-30" transform="translate(63.623047 0)"/>
       <use xlink:href="#DejaVuSans-30" transform="translate(127.246094 0)"/>
      </g>
     </g>
    </g>
    <g id="text_17">
     <!-- [counts] -->
     <g transform="translate(14.798438 140.447767) rotate(-90) scale(0.1 -0.1)">
      <defs>
       <path id="DejaVuSans-63" d="M 3122 3366 
L 3122 2828 
Q 2878 2963 2633 3030 
Q 2388 3097 2138 3097 
Q 1578 3097 1268 2742 
Q 959 2388 959 1747 
Q 959 1106 1268 751 
Q 1578 397 2138 397 
Q 2388 397 2633 464 
Q 2878 531 3122 666 
L 3122 134 
Q 2881 22 2623 -34 
Q 2366 -91 2075 -91 
Q 1284 -91 818 406 
Q 353 903 353 1747 
Q 353 2603 823 3093 
Q 1294 3584 2113 3584 
Q 2378 3584 2631 3529 
Q 2884 3475 3122 3366 
z
" transform="scale(0.015625)"/>
       <path id="DejaVuSans-75" d="M 544 1381 
L 544 3500 
L 1119 3500 
L 1119 1403 
Q 1119 906 1312 657 
Q 1506 409 1894 409 
Q 2359 409 2629 706 
Q 2900 1003 2900 1516 
L 2900 3500 
L 3475 3500 
L 3475 0 
L 2900 0 
L 2900 538 
Q 2691 219 2414 64 
Q 2138 -91 1772 -91 
Q 1169 -91 856 284 
Q 544 659 544 1381 
z
M 1991 3584 
L 1991 3584 
z
" transform="scale(0.015625)"/>
      </defs>
      <use xlink:href="#DejaVuSans-5b"/>
      <use xlink:href="#DejaVuSans-63" transform="translate(39.013672 0)"/>
      <use xlink:href="#DejaVuSans-6f" transform="translate(93.994141 0)"/>
      <use xlink:href="#DejaVuSans-75" transform="translate(155.175781 0)"/>
      <use xlink:href="#DejaVuSans-6e" transform="translate(218.554688 0)"/>
      <use xlink:href="#DejaVuSans-74" transform="translate(281.933594 0)"/>
      <use xlink:href="#DejaVuSans-73" transform="translate(321.142578 0)"/>
      <use xlink:href="#DejaVuSans-5d" transform="translate(373.242188 0)"/>
     </g>
    </g>
   </g>
   <g id="line2d_16">
    <path d="M 62.183807 116.865423 
L 63.198352 116.865423 
L 63.198352 122.106324 
L 64.212898 122.106324 
L 64.212898 131.539947 
L 65.227443 131.539947 
L 65.227443 127.347226 
L 66.241989 127.347226 
L 66.241989 127.696619 
L 67.256534 127.696619 
L 67.256534 128.395406 
L 68.27108 128.395406 
L 68.27108 124.901472 
L 69.285625 124.901472 
L 69.285625 126.648439 
L 70.30017 126.648439 
L 70.30017 134.335094 
L 71.314716 134.335094 
L 71.314716 123.853292 
L 72.329261 123.853292 
L 72.329261 124.901472 
L 73.343807 124.901472 
L 73.343807 131.190553 
L 74.358352 131.190553 
L 74.358352 135.732668 
L 75.372898 135.732668 
L 75.372898 135.033881 
L 76.387443 135.033881 
L 76.387443 137.130241 
L 77.401989 137.130241 
L 77.401989 134.684487 
L 78.416534 134.684487 
L 78.416534 144.467503 
L 79.43108 144.467503 
L 79.43108 137.479635 
L 80.445625 137.479635 
L 80.445625 139.575995 
L 81.46017 139.575995 
L 81.46017 138.877208 
L 82.474716 138.877208 
L 82.474716 147.961437 
L 83.489261 147.961437 
L 83.489261 143.768716 
L 84.503807 143.768716 
L 84.503807 139.226602 
L 85.518352 139.226602 
L 85.518352 143.419323 
L 86.532898 143.419323 
L 86.532898 136.780848 
L 87.547443 136.780848 
L 87.547443 151.455371 
L 88.561989 151.455371 
L 88.561989 158.093846 
L 89.576534 158.093846 
L 89.576534 153.551732 
L 90.59108 153.551732 
L 90.59108 155.997486 
L 91.605625 155.997486 
L 91.605625 150.756584 
L 92.62017 150.756584 
L 92.62017 153.551732 
L 93.634716 153.551732 
L 93.634716 156.346879 
L 94.649261 156.346879 
L 94.649261 157.395059 
L 95.663807 157.395059 
L 95.663807 158.792633 
L 96.678352 158.792633 
L 96.678352 166.129895 
L 97.692898 166.129895 
L 97.692898 172.069583 
L 98.707443 172.069583 
L 98.707443 164.732321 
L 99.721989 164.732321 
L 99.721989 173.117763 
L 100.736534 173.117763 
L 100.736534 170.322616 
L 101.75108 170.322616 
L 101.75108 167.876862 
L 102.765625 167.876862 
L 102.765625 169.973222 
L 103.78017 169.973222 
L 103.78017 187.0935 
L 104.794716 187.0935 
L 104.794716 178.009271 
L 105.809261 178.009271 
L 105.809261 180.804418 
L 106.823807 180.804418 
L 106.823807 185.346532 
L 107.838352 185.346532 
L 107.838352 186.394713 
L 108.852898 186.394713 
L 108.852898 191.985007 
L 109.867443 191.985007 
L 109.867443 194.780155 
L 110.881989 194.780155 
L 110.881989 191.635614 
L 111.896534 191.635614 
L 111.896534 196.527122 
L 112.91108 196.527122 
L 112.91108 196.177728 
L 113.925625 196.177728 
L 113.925625 199.322269 
L 114.94017 199.322269 
L 114.94017 200.370449 
L 115.954716 200.370449 
L 115.954716 200.719843 
L 116.969261 200.719843 
L 116.969261 202.46681 
L 117.983807 202.46681 
L 117.983807 208.406498 
L 118.998352 208.406498 
L 118.998352 205.960744 
L 120.012898 205.960744 
L 120.012898 211.551039 
L 121.027443 211.551039 
L 121.027443 209.105285 
L 122.041989 209.105285 
L 122.041989 206.310137 
L 123.056534 206.310137 
L 123.056534 213.996792 
L 124.07108 213.996792 
L 124.07108 213.298006 
L 125.085625 213.298006 
L 125.085625 214.346186 
L 126.10017 214.346186 
L 126.10017 217.84012 
L 127.114716 217.84012 
L 127.114716 218.189513 
L 129.143807 218.189513 
L 129.143807 217.490727 
L 130.158352 217.490727 
L 130.158352 219.237694 
L 132.187443 219.237694 
L 132.187443 219.587087 
L 133.201989 219.587087 
L 133.201989 220.285874 
L 134.216534 220.285874 
L 134.216534 220.635267 
L 149.434716 220.635267 
L 149.434716 218.538907 
L 150.449261 218.538907 
L 150.449261 211.900432 
L 151.463807 211.900432 
L 151.463807 208.406498 
L 152.478352 208.406498 
L 152.478352 201.069236 
L 153.492898 201.069236 
L 153.492898 198.972876 
L 154.507443 198.972876 
L 154.507443 186.394713 
L 155.521989 186.394713 
L 155.521989 186.744106 
L 156.536534 186.744106 
L 156.536534 181.852598 
L 157.55108 181.852598 
L 157.55108 175.214123 
L 158.565625 175.214123 
L 158.565625 172.418976 
L 159.58017 172.418976 
L 159.58017 167.876862 
L 160.594716 167.876862 
L 160.594716 153.901125 
L 161.609261 153.901125 
L 161.609261 146.563863 
L 163.638352 146.563863 
L 163.638352 143.069929 
L 164.652898 143.069929 
L 164.652898 141.672356 
L 165.667443 141.672356 
L 165.667443 134.335094 
L 166.681989 134.335094 
L 166.681989 130.491766 
L 167.696534 130.491766 
L 167.696534 108.130588 
L 168.71108 108.130588 
L 168.71108 102.540293 
L 169.725625 102.540293 
L 169.725625 111.624522 
L 170.74017 111.624522 
L 170.74017 104.28726 
L 171.754716 104.28726 
L 171.754716 93.456065 
L 172.769261 93.456065 
L 172.769261 89.263344 
L 173.783807 89.263344 
L 173.783807 90.660917 
L 174.798352 90.660917 
L 174.798352 87.166983 
L 176.827443 87.166983 
L 176.827443 88.91395 
L 177.841989 88.91395 
L 177.841989 78.432148 
L 178.856534 78.432148 
L 178.856534 67.251558 
L 179.87108 67.251558 
L 179.87108 70.396099 
L 180.885625 70.396099 
L 180.885625 62.010657 
L 181.90017 62.010657 
L 181.90017 63.058837 
L 182.914716 63.058837 
L 182.914716 41.396446 
L 183.929261 41.396446 
L 183.929261 72.841853 
L 184.943807 72.841853 
L 184.943807 40.348266 
L 185.958352 40.348266 
L 185.958352 51.878248 
L 186.972898 51.878248 
L 186.972898 44.191593 
L 187.987443 44.191593 
L 187.987443 44.540987 
L 189.001989 44.540987 
L 189.001989 42.794019 
L 190.016534 42.794019 
L 190.016534 49.083101 
L 191.03108 49.083101 
L 191.03108 19.035267 
L 192.045625 19.035267 
L 192.045625 39.998872 
L 193.06017 39.998872 
L 193.06017 22.179808 
L 194.074716 22.179808 
L 194.074716 37.902512 
L 195.089261 37.902512 
L 195.089261 36.504938 
L 197.118352 36.504938 
L 197.118352 22.529201 
L 198.132898 22.529201 
L 198.132898 50.131281 
L 199.147443 50.131281 
L 199.147443 47.336134 
L 200.161989 47.336134 
L 200.161989 33.709791 
L 201.176534 33.709791 
L 201.176534 40.348266 
L 202.19108 40.348266 
L 202.19108 32.312217 
L 203.205625 32.312217 
L 203.205625 34.408578 
L 204.22017 34.408578 
L 204.22017 55.022789 
L 205.234716 55.022789 
L 205.234716 34.408578 
L 206.249261 34.408578 
L 206.249261 52.227642 
L 207.263807 52.227642 
L 207.263807 36.155545 
L 208.278352 36.155545 
L 208.278352 60.962477 
L 209.292898 60.962477 
L 209.292898 47.336134 
L 210.307443 47.336134 
L 210.307443 56.769756 
L 211.321989 56.769756 
L 211.321989 51.528855 
L 212.336534 51.528855 
L 212.336534 44.540987 
L 213.35108 44.540987 
L 213.35108 36.854331 
L 214.365625 36.854331 
L 214.365625 78.432148 
L 215.38017 78.432148 
L 215.38017 57.468543 
L 216.394716 57.468543 
L 216.394716 60.962477 
L 217.409261 60.962477 
L 217.409261 60.613084 
L 218.423807 60.613084 
L 218.423807 53.625215 
L 219.438352 53.625215 
L 219.438352 78.781541 
L 220.452898 78.781541 
L 220.452898 65.155198 
L 221.467443 65.155198 
L 221.467443 84.022442 
L 222.481989 84.022442 
L 222.481989 57.119149 
L 223.496534 57.119149 
L 223.496534 58.516723 
L 224.51108 58.516723 
L 224.51108 73.191246 
L 225.525625 73.191246 
L 225.525625 64.456411 
L 226.54017 64.456411 
L 226.54017 71.793673 
L 227.554716 71.793673 
L 227.554716 70.396099 
L 228.569261 70.396099 
L 228.569261 82.275475 
L 229.583807 82.275475 
L 229.583807 71.444279 
L 230.598352 71.444279 
L 230.598352 73.191246 
L 232.627443 73.191246 
L 232.627443 75.637 
L 233.641989 75.637 
L 233.641989 83.323655 
L 234.656534 83.323655 
L 234.656534 81.576688 
L 235.67108 81.576688 
L 235.67108 81.926082 
L 236.685625 81.926082 
L 236.685625 85.420016 
L 237.70017 85.420016 
L 237.70017 76.335787 
L 238.714716 76.335787 
L 238.714716 73.191246 
L 239.729261 73.191246 
L 239.729261 77.383967 
L 240.743807 77.383967 
L 240.743807 73.890033 
L 241.758352 73.890033 
L 241.758352 75.637 
L 242.772898 75.637 
L 242.772898 77.383967 
L 243.787443 77.383967 
L 243.787443 73.890033 
L 244.801989 73.890033 
L 244.801989 83.673049 
L 245.816534 83.673049 
L 245.816534 85.070623 
L 246.83108 85.070623 
L 246.83108 78.432148 
L 247.845625 78.432148 
L 247.845625 85.420016 
L 248.86017 85.420016 
L 248.86017 94.853638 
L 249.874716 94.853638 
L 249.874716 104.28726 
L 250.889261 104.28726 
L 250.889261 94.154851 
L 251.903807 94.154851 
L 251.903807 86.468196 
L 252.918352 86.468196 
L 252.918352 109.178768 
L 253.932898 109.178768 
L 253.932898 95.203032 
L 254.947443 95.203032 
L 254.947443 91.709097 
L 255.961989 91.709097 
L 255.961989 115.46785 
L 256.976534 115.46785 
L 256.976534 115.817243 
L 257.99108 115.817243 
L 257.99108 113.720883 
L 259.005625 113.720883 
L 259.005625 116.865423 
L 260.02017 116.865423 
L 260.02017 123.154505 
L 261.034716 123.154505 
L 261.034716 131.539947 
L 262.049261 131.539947 
L 262.049261 127.696619 
L 263.063807 127.696619 
L 263.063807 149.009617 
L 264.078352 149.009617 
L 264.078352 144.467503 
L 265.092898 144.467503 
L 265.092898 139.226602 
L 266.107443 139.226602 
L 266.107443 146.563863 
L 267.121989 146.563863 
L 267.121989 147.961437 
L 268.136534 147.961437 
L 268.136534 161.937174 
L 269.15108 161.937174 
L 269.15108 167.876862 
L 270.165625 167.876862 
L 270.165625 156.696272 
L 271.18017 156.696272 
L 271.18017 173.117763 
L 272.194716 173.117763 
L 272.194716 174.165943 
L 273.209261 174.165943 
L 273.209261 181.503205 
L 274.223807 181.503205 
L 274.223807 184.997139 
L 275.238352 184.997139 
L 275.238352 188.14168 
L 276.252898 188.14168 
L 276.252898 197.225909 
L 277.267443 197.225909 
L 277.267443 195.828335 
L 278.281989 195.828335 
L 278.281989 200.370449 
L 279.296534 200.370449 
L 279.296534 208.057104 
L 280.31108 208.057104 
L 280.31108 210.852252 
L 281.325625 210.852252 
L 281.325625 211.201645 
L 282.34017 211.201645 
L 282.34017 215.394366 
L 283.354716 215.394366 
L 283.354716 215.044973 
L 284.369261 215.044973 
L 284.369261 216.79194 
L 285.383807 216.79194 
L 285.383807 219.587087 
L 287.412898 219.587087 
L 287.412898 220.635267 
L 297.558352 220.635267 
L 297.558352 220.285874 
L 298.572898 220.285874 
L 298.572898 217.141333 
L 299.587443 217.141333 
L 299.587443 211.900432 
L 300.601989 211.900432 
L 300.601989 208.755891 
L 301.616534 208.755891 
L 301.616534 203.864383 
L 303.645625 203.864383 
L 303.645625 194.780155 
L 304.66017 194.780155 
L 304.66017 184.298352 
L 305.674716 184.298352 
L 305.674716 183.948959 
L 306.689261 183.948959 
L 306.689261 173.467156 
L 307.703807 173.467156 
L 307.703807 175.563517 
L 308.718352 175.563517 
L 308.718352 175.214123 
L 309.732898 175.214123 
L 309.732898 168.925042 
L 310.747443 168.925042 
L 310.747443 173.117763 
L 311.761989 173.117763 
L 311.761989 172.76837 
L 312.776534 172.76837 
L 312.776534 157.395059 
L 313.79108 157.395059 
L 313.79108 155.648092 
L 314.805625 155.648092 
L 314.805625 158.093846 
L 315.82017 158.093846 
L 315.82017 150.756584 
L 316.834716 150.756584 
L 316.834716 144.11811 
L 317.849261 144.11811 
L 317.849261 145.865077 
L 318.863807 145.865077 
L 318.863807 141.322962 
L 319.878352 141.322962 
L 319.878352 130.84116 
L 320.892898 130.84116 
L 320.892898 131.88934 
L 322.921989 131.88934 
L 322.921989 135.033881 
L 323.936534 135.033881 
L 323.936534 139.575995 
L 324.95108 139.575995 
L 324.95108 127.347226 
L 325.965625 127.347226 
L 325.965625 134.335094 
L 326.98017 134.335094 
L 326.98017 116.51603 
L 327.994716 116.51603 
L 327.994716 119.660571 
L 329.009261 119.660571 
L 329.009261 112.672702 
L 330.023807 112.672702 
L 330.023807 102.1909 
L 331.038352 102.1909 
L 331.038352 117.913603 
L 332.052898 117.913603 
L 332.052898 104.636654 
L 334.081989 104.636654 
L 334.081989 103.23908 
L 335.096534 103.23908 
L 335.096534 107.781194 
L 336.11108 107.781194 
L 336.11108 86.81759 
L 337.125625 86.81759 
L 337.125625 102.540293 
L 338.14017 102.540293 
L 338.14017 101.492113 
L 339.154716 101.492113 
L 339.154716 95.901818 
L 340.169261 95.901818 
L 340.169261 89.263344 
L 341.183807 89.263344 
L 341.183807 94.853638 
L 342.198352 94.853638 
L 342.198352 90.660917 
L 343.212898 90.660917 
L 343.212898 103.23908 
L 344.227443 103.23908 
L 344.227443 105.684834 
L 345.241989 105.684834 
L 345.241989 95.203032 
L 346.256534 95.203032 
L 346.256534 103.937867 
L 347.27108 103.937867 
L 347.27108 93.106671 
L 348.285625 93.106671 
L 348.285625 91.010311 
L 349.30017 91.010311 
L 349.30017 108.829375 
L 350.314716 108.829375 
L 350.314716 103.937867 
L 351.329261 103.937867 
L 351.329261 85.420016 
L 352.343807 85.420016 
L 352.343807 96.600605 
L 353.358352 96.600605 
L 353.358352 105.684834 
L 354.372898 105.684834 
L 354.372898 107.082408 
L 355.387443 107.082408 
L 355.387443 110.226948 
L 356.401989 110.226948 
L 356.401989 110.925735 
L 357.416534 110.925735 
L 357.416534 100.094539 
L 358.43108 100.094539 
L 358.43108 113.022096 
L 360.46017 113.022096 
L 360.46017 121.058144 
L 361.474716 121.058144 
L 361.474716 111.275129 
L 362.489261 111.275129 
L 362.489261 119.660571 
L 363.503807 119.660571 
L 363.503807 110.226948 
L 364.518352 110.226948 
L 364.518352 122.805111 
L 365.532898 122.805111 
L 365.532898 116.865423 
L 366.547443 116.865423 
L 366.547443 116.865423 
" clip-path="url(#pcc3cbdf923)" style="fill: none; stroke: #1f77b4; stroke-width: 1.5; stroke-linecap: square"/>
   </g>
   <g id="line2d_17">
    <path d="M 62.183807 121.058144 
L 63.198352 121.058144 
L 63.198352 133.286914 
L 64.212898 133.286914 
L 64.212898 120.708751 
L 65.227443 120.708751 
L 65.227443 129.094193 
L 66.241989 129.094193 
L 66.241989 118.262997 
L 67.256534 118.262997 
L 67.256534 133.636307 
L 68.27108 133.636307 
L 68.27108 135.383274 
L 69.285625 135.383274 
L 69.285625 136.431454 
L 70.30017 136.431454 
L 70.30017 131.539947 
L 71.314716 131.539947 
L 71.314716 137.130241 
L 72.329261 137.130241 
L 72.329261 137.479635 
L 73.343807 137.479635 
L 73.343807 139.925389 
L 75.372898 139.925389 
L 75.372898 143.768716 
L 76.387443 143.768716 
L 76.387443 142.021749 
L 77.401989 142.021749 
L 77.401989 136.082061 
L 78.416534 136.082061 
L 78.416534 139.575995 
L 79.43108 139.575995 
L 79.43108 137.479635 
L 80.445625 137.479635 
L 80.445625 148.310831 
L 81.46017 148.310831 
L 81.46017 157.744453 
L 82.474716 157.744453 
L 82.474716 151.804765 
L 83.489261 151.804765 
L 83.489261 154.250519 
L 84.503807 154.250519 
L 84.503807 149.359011 
L 85.518352 149.359011 
L 85.518352 150.756584 
L 86.532898 150.756584 
L 86.532898 155.997486 
L 88.561989 155.997486 
L 88.561989 158.093846 
L 89.576534 158.093846 
L 89.576534 169.973222 
L 90.59108 169.973222 
L 90.59108 168.575649 
L 91.605625 168.575649 
L 91.605625 164.732321 
L 92.62017 164.732321 
L 92.62017 168.925042 
L 93.634716 168.925042 
L 93.634716 166.129895 
L 94.649261 166.129895 
L 94.649261 168.925042 
L 95.663807 168.925042 
L 95.663807 174.165943 
L 96.678352 174.165943 
L 96.678352 184.298352 
L 97.692898 184.298352 
L 97.692898 176.961091 
L 98.707443 176.961091 
L 98.707443 184.997139 
L 99.721989 184.997139 
L 99.721989 181.153811 
L 100.736534 181.153811 
L 100.736534 189.539253 
L 101.75108 189.539253 
L 101.75108 190.587434 
L 102.765625 190.587434 
L 102.765625 193.033188 
L 103.78017 193.033188 
L 103.78017 195.478941 
L 104.794716 195.478941 
L 104.794716 193.731974 
L 105.809261 193.731974 
L 105.809261 198.274089 
L 107.838352 198.274089 
L 107.838352 201.418629 
L 108.852898 201.418629 
L 108.852898 204.213777 
L 109.867443 204.213777 
L 109.867443 202.46681 
L 110.881989 202.46681 
L 110.881989 206.659531 
L 111.896534 206.659531 
L 111.896534 210.502858 
L 112.91108 210.502858 
L 112.91108 209.804071 
L 113.925625 209.804071 
L 113.925625 206.659531 
L 114.94017 206.659531 
L 114.94017 211.551039 
L 115.954716 211.551039 
L 115.954716 213.647399 
L 116.969261 213.647399 
L 116.969261 212.948612 
L 117.983807 212.948612 
L 117.983807 217.84012 
L 118.998352 217.84012 
L 118.998352 217.490727 
L 120.012898 217.490727 
L 120.012898 218.189513 
L 121.027443 218.189513 
L 121.027443 217.490727 
L 122.041989 217.490727 
L 122.041989 219.237694 
L 123.056534 219.237694 
L 123.056534 219.587087 
L 124.07108 219.587087 
L 124.07108 219.237694 
L 125.085625 219.237694 
L 125.085625 220.285874 
L 126.10017 220.285874 
L 126.10017 220.635267 
L 147.405625 220.635267 
L 147.405625 219.93648 
L 148.42017 219.93648 
L 148.42017 213.996792 
L 149.434716 213.996792 
L 149.434716 210.852252 
L 150.449261 210.852252 
L 150.449261 202.117416 
L 151.463807 202.117416 
L 151.463807 199.322269 
L 152.478352 199.322269 
L 152.478352 189.888647 
L 153.492898 189.888647 
L 153.492898 185.346532 
L 154.507443 185.346532 
L 154.507443 181.852598 
L 155.521989 181.852598 
L 155.521989 175.91291 
L 156.536534 175.91291 
L 156.536534 173.117763 
L 157.55108 173.117763 
L 157.55108 162.985354 
L 158.565625 162.985354 
L 158.565625 154.250519 
L 159.58017 154.250519 
L 159.58017 148.310831 
L 160.594716 148.310831 
L 160.594716 142.371142 
L 162.623807 142.371142 
L 162.623807 138.877208 
L 163.638352 138.877208 
L 163.638352 133.985701 
L 164.652898 133.985701 
L 164.652898 125.250865 
L 165.667443 125.250865 
L 165.667443 104.28726 
L 166.681989 104.28726 
L 166.681989 103.588474 
L 167.696534 103.588474 
L 167.696534 106.383621 
L 168.71108 106.383621 
L 168.71108 103.23908 
L 169.725625 103.23908 
L 169.725625 83.673049 
L 170.74017 83.673049 
L 170.74017 89.263344 
L 171.754716 89.263344 
L 171.754716 87.86577 
L 172.769261 87.86577 
L 172.769261 82.624869 
L 173.783807 82.624869 
L 173.783807 87.516376 
L 174.798352 87.516376 
L 174.798352 85.769409 
L 175.812898 85.769409 
L 175.812898 69.697312 
L 176.827443 69.697312 
L 176.827443 59.21551 
L 177.841989 59.21551 
L 177.841989 71.793673 
L 178.856534 71.793673 
L 178.856534 51.528855 
L 179.87108 51.528855 
L 179.87108 53.275822 
L 180.885625 53.275822 
L 180.885625 45.589167 
L 181.90017 45.589167 
L 181.90017 58.866116 
L 182.914716 58.866116 
L 182.914716 38.950692 
L 183.929261 38.950692 
L 183.929261 44.191593 
L 184.943807 44.191593 
L 184.943807 44.540987 
L 185.958352 44.540987 
L 185.958352 32.66161 
L 186.972898 32.66161 
L 186.972898 45.93856 
L 187.987443 45.93856 
L 187.987443 20.432841 
L 189.001989 20.432841 
L 189.001989 26.372529 
L 190.016534 26.372529 
L 190.016534 31.264037 
L 191.03108 31.264037 
L 191.03108 22.878595 
L 192.045625 22.878595 
L 192.045625 37.902512 
L 193.06017 37.902512 
L 193.06017 27.420709 
L 194.074716 27.420709 
L 194.074716 34.059184 
L 195.089261 34.059184 
L 195.089261 28.468889 
L 196.103807 28.468889 
L 196.103807 45.589167 
L 197.118352 45.589167 
L 197.118352 30.56525 
L 198.132898 30.56525 
L 198.132898 34.059184 
L 199.147443 34.059184 
L 199.147443 23.577382 
L 200.161989 23.577382 
L 200.161989 32.312217 
L 201.176534 32.312217 
L 201.176534 50.830068 
L 202.19108 50.830068 
L 202.19108 33.360397 
L 203.205625 33.360397 
L 203.205625 45.93856 
L 204.22017 45.93856 
L 204.22017 34.408578 
L 205.234716 34.408578 
L 205.234716 56.769756 
L 206.249261 56.769756 
L 206.249261 43.143413 
L 207.263807 43.143413 
L 207.263807 54.673396 
L 208.278352 54.673396 
L 208.278352 43.8422 
L 209.292898 43.8422 
L 209.292898 40.697659 
L 210.307443 40.697659 
L 210.307443 39.649479 
L 211.321989 39.649479 
L 211.321989 67.600952 
L 212.336534 67.600952 
L 212.336534 53.275822 
L 213.35108 53.275822 
L 213.35108 65.155198 
L 214.365625 65.155198 
L 214.365625 52.577035 
L 215.38017 52.577035 
L 215.38017 50.131281 
L 216.394716 50.131281 
L 216.394716 76.685181 
L 217.409261 76.685181 
L 217.409261 62.360051 
L 218.423807 62.360051 
L 218.423807 80.528508 
L 219.438352 80.528508 
L 219.438352 50.830068 
L 220.452898 50.830068 
L 220.452898 58.866116 
L 221.467443 58.866116 
L 221.467443 60.613084 
L 222.481989 60.613084 
L 222.481989 68.998526 
L 223.496534 68.998526 
L 223.496534 63.408231 
L 224.51108 63.408231 
L 224.51108 77.733361 
L 225.525625 77.733361 
L 225.525625 65.853985 
L 226.54017 65.853985 
L 226.54017 75.986394 
L 227.554716 75.986394 
L 227.554716 77.034574 
L 228.569261 77.034574 
L 228.569261 66.552772 
L 229.583807 66.552772 
L 229.583807 68.998526 
L 230.598352 68.998526 
L 230.598352 79.829721 
L 231.612898 79.829721 
L 231.612898 81.926082 
L 232.627443 81.926082 
L 232.627443 77.733361 
L 233.641989 77.733361 
L 233.641989 81.227295 
L 234.656534 81.227295 
L 234.656534 68.299739 
L 235.67108 68.299739 
L 235.67108 67.600952 
L 236.685625 67.600952 
L 236.685625 70.396099 
L 237.70017 70.396099 
L 237.70017 72.49246 
L 238.714716 72.49246 
L 238.714716 81.227295 
L 239.729261 81.227295 
L 239.729261 65.155198 
L 240.743807 65.155198 
L 240.743807 80.179115 
L 241.758352 80.179115 
L 241.758352 85.769409 
L 242.772898 85.769409 
L 242.772898 71.094886 
L 243.787443 71.094886 
L 243.787443 80.528508 
L 244.801989 80.528508 
L 244.801989 91.709097 
L 245.816534 91.709097 
L 245.816534 104.28726 
L 246.83108 104.28726 
L 246.83108 91.359704 
L 247.845625 91.359704 
L 247.845625 81.576688 
L 248.86017 81.576688 
L 248.86017 107.781194 
L 249.874716 107.781194 
L 249.874716 91.010311 
L 250.889261 91.010311 
L 250.889261 91.359704 
L 251.903807 91.359704 
L 251.903807 115.118456 
L 252.918352 115.118456 
L 252.918352 111.973915 
L 253.932898 111.973915 
L 253.932898 110.925735 
L 254.947443 110.925735 
L 254.947443 115.817243 
L 255.961989 115.817243 
L 255.961989 124.202685 
L 256.976534 124.202685 
L 256.976534 125.600259 
L 257.99108 125.600259 
L 257.99108 133.286914 
L 259.005625 133.286914 
L 259.005625 144.816896 
L 260.02017 144.816896 
L 260.02017 142.720536 
L 261.034716 142.720536 
L 261.034716 139.575995 
L 262.049261 139.575995 
L 262.049261 144.467503 
L 263.063807 144.467503 
L 263.063807 145.515683 
L 264.078352 145.515683 
L 264.078352 167.876862 
L 265.092898 167.876862 
L 265.092898 161.58778 
L 266.107443 161.58778 
L 266.107443 160.888993 
L 267.121989 160.888993 
L 267.121989 173.81655 
L 268.136534 173.81655 
L 268.136534 177.310484 
L 269.15108 177.310484 
L 269.15108 180.804418 
L 270.165625 180.804418 
L 270.165625 184.647746 
L 271.18017 184.647746 
L 271.18017 194.780155 
L 272.194716 194.780155 
L 272.194716 193.731974 
L 273.209261 193.731974 
L 273.209261 199.322269 
L 274.223807 199.322269 
L 274.223807 205.960744 
L 275.238352 205.960744 
L 275.238352 208.057104 
L 276.252898 208.057104 
L 276.252898 211.900432 
L 277.267443 211.900432 
L 277.267443 212.599219 
L 278.281989 212.599219 
L 278.281989 216.093153 
L 280.31108 216.093153 
L 280.31108 218.538907 
L 281.325625 218.538907 
L 281.325625 219.93648 
L 282.34017 219.93648 
L 282.34017 220.285874 
L 283.354716 220.285874 
L 283.354716 220.635267 
L 293.50017 220.635267 
L 293.50017 217.141333 
L 294.514716 217.141333 
L 294.514716 212.948612 
L 295.529261 212.948612 
L 295.529261 211.201645 
L 296.543807 211.201645 
L 296.543807 202.117416 
L 297.558352 202.117416 
L 297.558352 203.51499 
L 298.572898 203.51499 
L 298.572898 195.478941 
L 299.587443 195.478941 
L 299.587443 183.250172 
L 300.601989 183.250172 
L 300.601989 184.298352 
L 301.616534 184.298352 
L 301.616534 173.467156 
L 302.63108 173.467156 
L 302.63108 173.81655 
L 303.645625 173.81655 
L 303.645625 173.467156 
L 304.66017 173.467156 
L 304.66017 167.876862 
L 305.674716 167.876862 
L 305.674716 173.467156 
L 306.689261 173.467156 
L 306.689261 169.274435 
L 307.703807 169.274435 
L 307.703807 156.696272 
L 308.718352 156.696272 
L 308.718352 155.298699 
L 309.732898 155.298699 
L 309.732898 152.503552 
L 311.761989 152.503552 
L 311.761989 137.829028 
L 312.776534 137.829028 
L 312.776534 146.21447 
L 313.79108 146.21447 
L 313.79108 134.684487 
L 314.805625 134.684487 
L 314.805625 127.347226 
L 315.82017 127.347226 
L 315.82017 130.491766 
L 316.834716 130.491766 
L 316.834716 137.130241 
L 317.849261 137.130241 
L 317.849261 125.949652 
L 318.863807 125.949652 
L 318.863807 136.780848 
L 319.878352 136.780848 
L 319.878352 126.648439 
L 320.892898 126.648439 
L 320.892898 127.696619 
L 321.907443 127.696619 
L 321.907443 108.829375 
L 322.921989 108.829375 
L 322.921989 113.720883 
L 323.936534 113.720883 
L 323.936534 107.431801 
L 324.95108 107.431801 
L 324.95108 102.889687 
L 325.965625 102.889687 
L 325.965625 106.034227 
L 326.98017 106.034227 
L 326.98017 103.937867 
L 327.994716 103.937867 
L 327.994716 105.684834 
L 329.009261 105.684834 
L 329.009261 102.1909 
L 330.023807 102.1909 
L 330.023807 92.407884 
L 331.038352 92.407884 
L 331.038352 94.853638 
L 332.052898 94.853638 
L 332.052898 101.492113 
L 333.067443 101.492113 
L 333.067443 92.407884 
L 334.081989 92.407884 
L 334.081989 85.070623 
L 335.096534 85.070623 
L 335.096534 90.660917 
L 336.11108 90.660917 
L 336.11108 87.86577 
L 337.125625 87.86577 
L 337.125625 96.600605 
L 338.14017 96.600605 
L 338.14017 106.383621 
L 339.154716 106.383621 
L 339.154716 92.407884 
L 340.169261 92.407884 
L 340.169261 96.600605 
L 342.198352 96.600605 
L 342.198352 86.118803 
L 343.212898 86.118803 
L 343.212898 104.636654 
L 344.227443 104.636654 
L 344.227443 101.841506 
L 345.241989 101.841506 
L 345.241989 82.624869 
L 346.256534 82.624869 
L 346.256534 93.106671 
L 347.27108 93.106671 
L 347.27108 105.684834 
L 348.285625 105.684834 
L 348.285625 98.696966 
L 349.30017 98.696966 
L 349.30017 114.769063 
L 350.314716 114.769063 
L 350.314716 103.588474 
L 351.329261 103.588474 
L 351.329261 98.696966 
L 352.343807 98.696966 
L 352.343807 107.431801 
L 353.358352 107.431801 
L 353.358352 113.022096 
L 354.372898 113.022096 
L 354.372898 120.359357 
L 355.387443 120.359357 
L 355.387443 109.528162 
L 356.401989 109.528162 
L 356.401989 110.226948 
L 357.416534 110.226948 
L 357.416534 117.56421 
L 358.43108 117.56421 
L 358.43108 120.009964 
L 359.445625 120.009964 
L 359.445625 105.684834 
L 360.46017 105.684834 
L 360.46017 124.901472 
L 361.474716 124.901472 
L 361.474716 123.503898 
L 362.489261 123.503898 
L 362.489261 118.961784 
L 363.503807 118.961784 
L 363.503807 135.033881 
L 364.518352 135.033881 
L 364.518352 126.299045 
L 365.532898 126.299045 
L 365.532898 120.359357 
L 366.547443 120.359357 
L 366.547443 120.359357 
" clip-path="url(#pcc3cbdf923)" style="fill: none; stroke: #ff7f0e; stroke-width: 1.5; stroke-linecap: square"/>
   </g>
   <g id="patch_3">
    <path d="M 46.965625 230.715267 
L 46.965625 8.955267 
" style="fill: none; stroke: #000000; stroke-width: 0.8; stroke-linejoin: miter; stroke-linecap: square"/>
   </g>
   <g id="patch_4">
    <path d="M 381.765625 230.715267 
L 381.765625 8.955267 
" style="fill: none; stroke: #000000; stroke-width: 0.8; stroke-linejoin: miter; stroke-linecap: square"/>
   </g>
   <g id="patch_5">
    <path d="M 46.965625 230.715267 
L 381.765625 230.715267 
" style="fill: none; stroke: #000000; stroke-width: 0.8; stroke-linejoin: miter; stroke-linecap: square"/>
   </g>
   <g id="patch_6">
    <path d="M 46.965625 8.955267 
L 381.765625 8.955267 
" style="fill: none; stroke: #000000; stroke-width: 0.8; stroke-linejoin: miter; stroke-linecap: square"/>
   </g>
   <g id="legend_1">
    <g id="patch_7">
     <path d="M 246.957813 46.867767 
L 374.765625 46.867767 
Q 376.765625 46.867767 376.765625 44.867767 
L 376.765625 15.955267 
Q 376.765625 13.955267 374.765625 13.955267 
L 246.957813 13.955267 
Q 244.957813 13.955267 244.957813 15.955267 
L 244.957813 44.867767 
Q 244.957813 46.867767 246.957813 46.867767 
z
" style="fill: #ffffff; opacity: 0.8; stroke: #cccccc; stroke-linejoin: miter"/>
    </g>
    <g id="line2d_18">
     <path d="M 248.957813 22.053705 
L 248.957813 22.053705 
L 258.957813 22.053705 
L 258.957813 22.053705 
L 268.957813 22.053705 
" style="fill: none; stroke: #1f77b4; stroke-width: 1.5; stroke-linecap: square"/>
    </g>
    <g id="text_18">
     <!-- detector_number:0 -->
     <g transform="translate(276.957813 25.553705) scale(0.1 -0.1)">
      <defs>
       <path id="DejaVuSans-64" d="M 2906 2969 
L 2906 4863 
L 3481 4863 
L 3481 0 
L 2906 0 
L 2906 525 
Q 2725 213 2448 61 
Q 2172 -91 1784 -91 
Q 1150 -91 751 415 
Q 353 922 353 1747 
Q 353 2572 751 3078 
Q 1150 3584 1784 3584 
Q 2172 3584 2448 3432 
Q 2725 3281 2906 2969 
z
M 947 1747 
Q 947 1113 1208 752 
Q 1469 391 1925 391 
Q 2381 391 2643 752 
Q 2906 1113 2906 1747 
Q 2906 2381 2643 2742 
Q 2381 3103 1925 3103 
Q 1469 3103 1208 2742 
Q 947 2381 947 1747 
z
" transform="scale(0.015625)"/>
       <path id="DejaVuSans-72" d="M 2631 2963 
Q 2534 3019 2420 3045 
Q 2306 3072 2169 3072 
Q 1681 3072 1420 2755 
Q 1159 2438 1159 1844 
L 1159 0 
L 581 0 
L 581 3500 
L 1159 3500 
L 1159 2956 
Q 1341 3275 1631 3429 
Q 1922 3584 2338 3584 
Q 2397 3584 2469 3576 
Q 2541 3569 2628 3553 
L 2631 2963 
z
" transform="scale(0.015625)"/>
       <path id="DejaVuSans-62" d="M 3116 1747 
Q 3116 2381 2855 2742 
Q 2594 3103 2138 3103 
Q 1681 3103 1420 2742 
Q 1159 2381 1159 1747 
Q 1159 1113 1420 752 
Q 1681 391 2138 391 
Q 2594 391 2855 752 
Q 3116 1113 3116 1747 
z
M 1159 2969 
Q 1341 3281 1617 3432 
Q 1894 3584 2278 3584 
Q 2916 3584 3314 3078 
Q 3713 2572 3713 1747 
Q 3713 922 3314 415 
Q 2916 -91 2278 -91 
Q 1894 -91 1617 61 
Q 1341 213 1159 525 
L 1159 0 
L 581 0 
L 581 4863 
L 1159 4863 
L 1159 2969 
z
" transform="scale(0.015625)"/>
       <path id="DejaVuSans-3a" d="M 750 794 
L 1409 794 
L 1409 0 
L 750 0 
L 750 794 
z
M 750 3309 
L 1409 3309 
L 1409 2516 
L 750 2516 
L 750 3309 
z
" transform="scale(0.015625)"/>
      </defs>
      <use xlink:href="#DejaVuSans-64"/>
      <use xlink:href="#DejaVuSans-65" transform="translate(63.476562 0)"/>
      <use xlink:href="#DejaVuSans-74" transform="translate(125 0)"/>
      <use xlink:href="#DejaVuSans-65" transform="translate(164.208984 0)"/>
      <use xlink:href="#DejaVuSans-63" transform="translate(225.732422 0)"/>
      <use xlink:href="#DejaVuSans-74" transform="translate(280.712891 0)"/>
      <use xlink:href="#DejaVuSans-6f" transform="translate(319.921875 0)"/>
      <use xlink:href="#DejaVuSans-72" transform="translate(381.103516 0)"/>
      <use xlink:href="#DejaVuSans-5f" transform="translate(422.216797 0)"/>
      <use xlink:href="#DejaVuSans-6e" transform="translate(472.216797 0)"/>
      <use xlink:href="#DejaVuSans-75" transform="translate(535.595703 0)"/>
      <use xlink:href="#DejaVuSans-6d" transform="translate(598.974609 0)"/>
      <use xlink:href="#DejaVuSans-62" transform="translate(696.386719 0)"/>
      <use xlink:href="#DejaVuSans-65" transform="translate(759.863281 0)"/>
      <use xlink:href="#DejaVuSans-72" transform="translate(821.386719 0)"/>
      <use xlink:href="#DejaVuSans-3a" transform="translate(860.75 0)"/>
      <use xlink:href="#DejaVuSans-30" transform="translate(894.441406 0)"/>
     </g>
    </g>
    <g id="line2d_19">
     <path d="M 248.957813 37.009955 
L 248.957813 37.009955 
L 258.957813 37.009955 
L 258.957813 37.009955 
L 268.957813 37.009955 
" style="fill: none; stroke: #ff7f0e; stroke-width: 1.5; stroke-linecap: square"/>
    </g>
    <g id="text_19">
     <!-- detector_number:1 -->
     <g transform="translate(276.957813 40.509955) scale(0.1 -0.1)">
      <use xlink:href="#DejaVuSans-64"/>
      <use xlink:href="#DejaVuSans-65" transform="translate(63.476562 0)"/>
      <use xlink:href="#DejaVuSans-74" transform="translate(125 0)"/>
      <use xlink:href="#DejaVuSans-65" transform="translate(164.208984 0)"/>
      <use xlink:href="#DejaVuSans-63" transform="translate(225.732422 0)"/>
      <use xlink:href="#DejaVuSans-74" transform="translate(280.712891 0)"/>
      <use xlink:href="#DejaVuSans-6f" transform="translate(319.921875 0)"/>
      <use xlink:href="#DejaVuSans-72" transform="translate(381.103516 0)"/>
      <use xlink:href="#DejaVuSans-5f" transform="translate(422.216797 0)"/>
      <use xlink:href="#DejaVuSans-6e" transform="translate(472.216797 0)"/>
      <use xlink:href="#DejaVuSans-75" transform="translate(535.595703 0)"/>
      <use xlink:href="#DejaVuSans-6d" transform="translate(598.974609 0)"/>
      <use xlink:href="#DejaVuSans-62" transform="translate(696.386719 0)"/>
      <use xlink:href="#DejaVuSans-65" transform="translate(759.863281 0)"/>
      <use xlink:href="#DejaVuSans-72" transform="translate(821.386719 0)"/>
      <use xlink:href="#DejaVuSans-3a" transform="translate(860.75 0)"/>
      <use xlink:href="#DejaVuSans-31" transform="translate(894.441406 0)"/>
     </g>
    </g>
   </g>
  </g>
 </g>
 <defs>
  <clipPath id="pcc3cbdf923">
   <rect x="46.965625" y="8.955267" width="334.8" height="221.76"/>
  </clipPath>
 </defs>
</svg>
