<?xml version="1.0" encoding="utf-8" standalone="no"?>
<!DOCTYPE svg PUBLIC "-//W3C//DTD SVG 1.1//EN"
  "http://www.w3.org/Graphics/SVG/1.1/DTD/svg11.dtd">
<svg xmlns:xlink="http://www.w3.org/1999/xlink" width="395.328125pt" height="266.794375pt" viewBox="0 0 395.328125 266.794375" xmlns="http://www.w3.org/2000/svg" version="1.1">
 <metadata>
  <rdf:RDF xmlns:dc="http://purl.org/dc/elements/1.1/" xmlns:cc="http://creativecommons.org/ns#" xmlns:rdf="http://www.w3.org/1999/02/22-rdf-syntax-ns#">
   <cc:Work>
    <dc:type rdf:resource="http://purl.org/dc/dcmitype/StillImage"/>
    <dc:date>2025-11-19T12:42:16.979117</dc:date>
    <dc:format>image/svg+xml</dc:format>
    <dc:creator>
     <cc:Agent>
      <dc:title>Matplotlib v3.10.7, https://matplotlib.org/</dc:title>
     </cc:Agent>
    </dc:creator>
   </cc:Work>
  </rdf:RDF>
 </metadata>
 <defs>
  <style type="text/css">*{stroke-linejoin: round; stroke-linecap: butt}</style>
 </defs>
 <g id="figure_1">
  <g id="patch_1">
   <path d="M 0 266.794375 
L 395.328125 266.794375 
L 395.328125 0 
L 0 0 
z
" style="fill: #ffffff"/>
  </g>
  <g id="axes_1">
   <g id="patch_2">
    <path d="M 53.328125 228.96 
L 388.128125 228.96 
L 388.128125 7.2 
L 53.328125 7.2 
z
" style="fill: #ffffff"/>
   </g>
   <g id="matplotlib.axis_1">
    <g id="xtick_1">
     <g id="line2d_1">
      <defs>
       <path id="me5f3cf44af" d="M 0 0 
L 0 3.5 
" style="stroke: #000000; stroke-width: 0.8"/>
      </defs>
      <g>
       <use xlink:href="#me5f3cf44af" x="94.278241" y="228.96" style="stroke: #000000; stroke-width: 0.8"/>
      </g>
     </g>
     <g id="text_1">
      <!-- 20000 -->
      <g transform="translate(78.371991 243.558437) scale(0.1 -0.1)">
       <defs>
        <path id="DejaVuSans-32" d="M 1228 531 
L 3431 531 
L 3431 0 
L 469 0 
L 469 531 
Q 828 903 1448 1529 
Q 2069 2156 2228 2338 
Q 2531 2678 2651 2914 
Q 2772 3150 2772 3378 
Q 2772 3750 2511 3984 
Q 2250 4219 1831 4219 
Q 1534 4219 1204 4116 
Q 875 4013 500 3803 
L 500 4441 
Q 881 4594 1212 4672 
Q 1544 4750 1819 4750 
Q 2544 4750 2975 4387 
Q 3406 4025 3406 3419 
Q 3406 3131 3298 2873 
Q 3191 2616 2906 2266 
Q 2828 2175 2409 1742 
Q 1991 1309 1228 531 
z
" transform="scale(0.015625)"/>
        <path id="DejaVuSans-30" d="M 2034 4250 
Q 1547 4250 1301 3770 
Q 1056 3291 1056 2328 
Q 1056 1369 1301 889 
Q 1547 409 2034 409 
Q 2525 409 2770 889 
Q 3016 1369 3016 2328 
Q 3016 3291 2770 3770 
Q 2525 4250 2034 4250 
z
M 2034 4750 
Q 2819 4750 3233 4129 
Q 3647 3509 3647 2328 
Q 3647 1150 3233 529 
Q 2819 -91 2034 -91 
Q 1250 -91 836 529 
Q 422 1150 422 2328 
Q 422 3509 836 4129 
Q 1250 4750 2034 4750 
z
" transform="scale(0.015625)"/>
       </defs>
       <use xlink:href="#DejaVuSans-32"/>
       <use xlink:href="#DejaVuSans-30" transform="translate(63.623047 0)"/>
       <use xlink:href="#DejaVuSans-30" transform="translate(127.246094 0)"/>
       <use xlink:href="#DejaVuSans-30" transform="translate(190.869141 0)"/>
       <use xlink:href="#DejaVuSans-30" transform="translate(254.492188 0)"/>
      </g>
     </g>
    </g>
    <g id="xtick_2">
     <g id="line2d_2">
      <g>
       <use xlink:href="#me5f3cf44af" x="159.759999" y="228.96" style="stroke: #000000; stroke-width: 0.8"/>
      </g>
     </g>
     <g id="text_2">
      <!-- 30000 -->
      <g transform="translate(143.853749 243.558437) scale(0.1 -0.1)">
       <defs>
        <path id="DejaVuSans-33" d="M 2597 2516 
Q 3050 2419 3304 2112 
Q 3559 1806 3559 1356 
Q 3559 666 3084 287 
Q 2609 -91 1734 -91 
Q 1441 -91 1130 -33 
Q 819 25 488 141 
L 488 750 
Q 750 597 1062 519 
Q 1375 441 1716 441 
Q 2309 441 2620 675 
Q 2931 909 2931 1356 
Q 2931 1769 2642 2001 
Q 2353 2234 1838 2234 
L 1294 2234 
L 1294 2753 
L 1863 2753 
Q 2328 2753 2575 2939 
Q 2822 3125 2822 3475 
Q 2822 3834 2567 4026 
Q 2313 4219 1838 4219 
Q 1578 4219 1281 4162 
Q 984 4106 628 3988 
L 628 4550 
Q 988 4650 1302 4700 
Q 1616 4750 1894 4750 
Q 2613 4750 3031 4423 
Q 3450 4097 3450 3541 
Q 3450 3153 3228 2886 
Q 3006 2619 2597 2516 
z
" transform="scale(0.015625)"/>
       </defs>
       <use xlink:href="#DejaVuSans-33"/>
       <use xlink:href="#DejaVuSans-30" transform="translate(63.623047 0)"/>
       <use xlink:href="#DejaVuSans-30" transform="translate(127.246094 0)"/>
       <use xlink:href="#DejaVuSans-30" transform="translate(190.869141 0)"/>
       <use xlink:href="#DejaVuSans-30" transform="translate(254.492188 0)"/>
      </g>
     </g>
    </g>
    <g id="xtick_3">
     <g id="line2d_3">
      <g>
       <use xlink:href="#me5f3cf44af" x="225.241757" y="228.96" style="stroke: #000000; stroke-width: 0.8"/>
      </g>
     </g>
     <g id="text_3">
      <!-- 40000 -->
      <g transform="translate(209.335507 243.558437) scale(0.1 -0.1)">
       <defs>
        <path id="DejaVuSans-34" d="M 2419 4116 
L 825 1625 
L 2419 1625 
L 2419 4116 
z
M 2253 4666 
L 3047 4666 
L 3047 1625 
L 3713 1625 
L 3713 1100 
L 3047 1100 
L 3047 0 
L 2419 0 
L 2419 1100 
L 313 1100 
L 313 1709 
L 2253 4666 
z
" transform="scale(0.015625)"/>
       </defs>
       <use xlink:href="#DejaVuSans-34"/>
       <use xlink:href="#DejaVuSans-30" transform="translate(63.623047 0)"/>
       <use xlink:href="#DejaVuSans-30" transform="translate(127.246094 0)"/>
       <use xlink:href="#DejaVuSans-30" transform="translate(190.869141 0)"/>
       <use xlink:href="#DejaVuSans-30" transform="translate(254.492188 0)"/>
      </g>
     </g>
    </g>
    <g id="xtick_4">
     <g id="line2d_4">
      <g>
       <use xlink:href="#me5f3cf44af" x="290.723515" y="228.96" style="stroke: #000000; stroke-width: 0.8"/>
      </g>
     </g>
     <g id="text_4">
      <!-- 50000 -->
      <g transform="translate(274.817265 243.558437) scale(0.1 -0.1)">
       <defs>
        <path id="DejaVuSans-35" d="M 691 4666 
L 3169 4666 
L 3169 4134 
L 1269 4134 
L 1269 2991 
Q 1406 3038 1543 3061 
Q 1681 3084 1819 3084 
Q 2600 3084 3056 2656 
Q 3513 2228 3513 1497 
Q 3513 744 3044 326 
Q 2575 -91 1722 -91 
Q 1428 -91 1123 -41 
Q 819 9 494 109 
L 494 744 
Q 775 591 1075 516 
Q 1375 441 1709 441 
Q 2250 441 2565 725 
Q 2881 1009 2881 1497 
Q 2881 1984 2565 2268 
Q 2250 2553 1709 2553 
Q 1456 2553 1204 2497 
Q 953 2441 691 2322 
L 691 4666 
z
" transform="scale(0.015625)"/>
       </defs>
       <use xlink:href="#DejaVuSans-35"/>
       <use xlink:href="#DejaVuSans-30" transform="translate(63.623047 0)"/>
       <use xlink:href="#DejaVuSans-30" transform="translate(127.246094 0)"/>
       <use xlink:href="#DejaVuSans-30" transform="translate(190.869141 0)"/>
       <use xlink:href="#DejaVuSans-30" transform="translate(254.492188 0)"/>
      </g>
     </g>
    </g>
    <g id="xtick_5">
     <g id="line2d_5">
      <g>
       <use xlink:href="#me5f3cf44af" x="356.205273" y="228.96" style="stroke: #000000; stroke-width: 0.8"/>
      </g>
     </g>
     <g id="text_5">
      <!-- 60000 -->
      <g transform="translate(340.299023 243.558437) scale(0.1 -0.1)">
       <defs>
        <path id="DejaVuSans-36" d="M 2113 2584 
Q 1688 2584 1439 2293 
Q 1191 2003 1191 1497 
Q 1191 994 1439 701 
Q 1688 409 2113 409 
Q 2538 409 2786 701 
Q 3034 994 3034 1497 
Q 3034 2003 2786 2293 
Q 2538 2584 2113 2584 
z
M 3366 4563 
L 3366 3988 
Q 3128 4100 2886 4159 
Q 2644 4219 2406 4219 
Q 1781 4219 1451 3797 
Q 1122 3375 1075 2522 
Q 1259 2794 1537 2939 
Q 1816 3084 2150 3084 
Q 2853 3084 3261 2657 
Q 3669 2231 3669 1497 
Q 3669 778 3244 343 
Q 2819 -91 2113 -91 
Q 1303 -91 875 529 
Q 447 1150 447 2328 
Q 447 3434 972 4092 
Q 1497 4750 2381 4750 
Q 2619 4750 2861 4703 
Q 3103 4656 3366 4563 
z
" transform="scale(0.015625)"/>
       </defs>
       <use xlink:href="#DejaVuSans-36"/>
       <use xlink:href="#DejaVuSans-30" transform="translate(63.623047 0)"/>
       <use xlink:href="#DejaVuSans-30" transform="translate(127.246094 0)"/>
       <use xlink:href="#DejaVuSans-30" transform="translate(190.869141 0)"/>
       <use xlink:href="#DejaVuSans-30" transform="translate(254.492188 0)"/>
      </g>
     </g>
    </g>
    <g id="text_6">
     <!-- event_time_offset [µs] -->
     <g transform="translate(164.692969 257.236562) scale(0.1 -0.1)">
      <defs>
       <path id="DejaVuSans-65" d="M 3597 1894 
L 3597 1613 
L 953 1613 
Q 991 1019 1311 708 
Q 1631 397 2203 397 
Q 2534 397 2845 478 
Q 3156 559 3463 722 
L 3463 178 
Q 3153 47 2828 -22 
Q 2503 -91 2169 -91 
Q 1331 -91 842 396 
Q 353 884 353 1716 
Q 353 2575 817 3079 
Q 1281 3584 2069 3584 
Q 2775 3584 3186 3129 
Q 3597 2675 3597 1894 
z
M 3022 2063 
Q 3016 2534 2758 2815 
Q 2500 3097 2075 3097 
Q 1594 3097 1305 2825 
Q 1016 2553 972 2059 
L 3022 2063 
z
" transform="scale(0.015625)"/>
       <path id="DejaVuSans-76" d="M 191 3500 
L 800 3500 
L 1894 563 
L 2988 3500 
L 3597 3500 
L 2284 0 
L 1503 0 
L 191 3500 
z
" transform="scale(0.015625)"/>
       <path id="DejaVuSans-6e" d="M 3513 2113 
L 3513 0 
L 2938 0 
L 2938 2094 
Q 2938 2591 2744 2837 
Q 2550 3084 2163 3084 
Q 1697 3084 1428 2787 
Q 1159 2491 1159 1978 
L 1159 0 
L 581 0 
L 581 3500 
L 1159 3500 
L 1159 2956 
Q 1366 3272 1645 3428 
Q 1925 3584 2291 3584 
Q 2894 3584 3203 3211 
Q 3513 2838 3513 2113 
z
" transform="scale(0.015625)"/>
       <path id="DejaVuSans-74" d="M 1172 4494 
L 1172 3500 
L 2356 3500 
L 2356 3053 
L 1172 3053 
L 1172 1153 
Q 1172 725 1289 603 
Q 1406 481 1766 481 
L 2356 481 
L 2356 0 
L 1766 0 
Q 1100 0 847 248 
Q 594 497 594 1153 
L 594 3053 
L 172 3053 
L 172 3500 
L 594 3500 
L 594 4494 
L 1172 4494 
z
" transform="scale(0.015625)"/>
       <path id="DejaVuSans-5f" d="M 3263 -1063 
L 3263 -1509 
L -63 -1509 
L -63 -1063 
L 3263 -1063 
z
" transform="scale(0.015625)"/>
       <path id="DejaVuSans-69" d="M 603 3500 
L 1178 3500 
L 1178 0 
L 603 0 
L 603 3500 
z
M 603 4863 
L 1178 4863 
L 1178 4134 
L 603 4134 
L 603 4863 
z
" transform="scale(0.015625)"/>
       <path id="DejaVuSans-6d" d="M 3328 2828 
Q 3544 3216 3844 3400 
Q 4144 3584 4550 3584 
Q 5097 3584 5394 3201 
Q 5691 2819 5691 2113 
L 5691 0 
L 5113 0 
L 5113 2094 
Q 5113 2597 4934 2840 
Q 4756 3084 4391 3084 
Q 3944 3084 3684 2787 
Q 3425 2491 3425 1978 
L 3425 0 
L 2847 0 
L 2847 2094 
Q 2847 2600 2669 2842 
Q 2491 3084 2119 3084 
Q 1678 3084 1418 2786 
Q 1159 2488 1159 1978 
L 1159 0 
L 581 0 
L 581 3500 
L 1159 3500 
L 1159 2956 
Q 1356 3278 1631 3431 
Q 1906 3584 2284 3584 
Q 2666 3584 2933 3390 
Q 3200 3197 3328 2828 
z
" transform="scale(0.015625)"/>
       <path id="DejaVuSans-6f" d="M 1959 3097 
Q 1497 3097 1228 2736 
Q 959 2375 959 1747 
Q 959 1119 1226 758 
Q 1494 397 1959 397 
Q 2419 397 2687 759 
Q 2956 1122 2956 1747 
Q 2956 2369 2687 2733 
Q 2419 3097 1959 3097 
z
M 1959 3584 
Q 2709 3584 3137 3096 
Q 3566 2609 3566 1747 
Q 3566 888 3137 398 
Q 2709 -91 1959 -91 
Q 1206 -91 779 398 
Q 353 888 353 1747 
Q 353 2609 779 3096 
Q 1206 3584 1959 3584 
z
" transform="scale(0.015625)"/>
       <path id="DejaVuSans-66" d="M 2375 4863 
L 2375 4384 
L 1825 4384 
Q 1516 4384 1395 4259 
Q 1275 4134 1275 3809 
L 1275 3500 
L 2222 3500 
L 2222 3053 
L 1275 3053 
L 1275 0 
L 697 0 
L 697 3053 
L 147 3053 
L 147 3500 
L 697 3500 
L 697 3744 
Q 697 4328 969 4595 
Q 1241 4863 1831 4863 
L 2375 4863 
z
" transform="scale(0.015625)"/>
       <path id="DejaVuSans-73" d="M 2834 3397 
L 2834 2853 
Q 2591 2978 2328 3040 
Q 2066 3103 1784 3103 
Q 1356 3103 1142 2972 
Q 928 2841 928 2578 
Q 928 2378 1081 2264 
Q 1234 2150 1697 2047 
L 1894 2003 
Q 2506 1872 2764 1633 
Q 3022 1394 3022 966 
Q 3022 478 2636 193 
Q 2250 -91 1575 -91 
Q 1294 -91 989 -36 
Q 684 19 347 128 
L 347 722 
Q 666 556 975 473 
Q 1284 391 1588 391 
Q 1994 391 2212 530 
Q 2431 669 2431 922 
Q 2431 1156 2273 1281 
Q 2116 1406 1581 1522 
L 1381 1569 
Q 847 1681 609 1914 
Q 372 2147 372 2553 
Q 372 3047 722 3315 
Q 1072 3584 1716 3584 
Q 2034 3584 2315 3537 
Q 2597 3491 2834 3397 
z
" transform="scale(0.015625)"/>
       <path id="DejaVuSans-20" transform="scale(0.015625)"/>
       <path id="DejaVuSans-5b" d="M 550 4863 
L 1875 4863 
L 1875 4416 
L 1125 4416 
L 1125 -397 
L 1875 -397 
L 1875 -844 
L 550 -844 
L 550 4863 
z
" transform="scale(0.015625)"/>
       <path id="DejaVuSans-b5" d="M 544 -1331 
L 544 3500 
L 1119 3500 
L 1119 1325 
Q 1119 872 1334 640 
Q 1550 409 1972 409 
Q 2434 409 2667 671 
Q 2900 934 2900 1459 
L 2900 3500 
L 3475 3500 
L 3475 806 
Q 3475 619 3529 530 
Q 3584 441 3700 441 
Q 3728 441 3778 458 
Q 3828 475 3916 513 
L 3916 50 
Q 3788 -22 3673 -56 
Q 3559 -91 3450 -91 
Q 3234 -91 3106 31 
Q 2978 153 2931 403 
Q 2775 156 2548 32 
Q 2322 -91 2016 -91 
Q 1697 -91 1473 31 
Q 1250 153 1119 397 
L 1119 -1331 
L 544 -1331 
z
" transform="scale(0.015625)"/>
       <path id="DejaVuSans-5d" d="M 1947 4863 
L 1947 -844 
L 622 -844 
L 622 -397 
L 1369 -397 
L 1369 4416 
L 622 4416 
L 622 4863 
L 1947 4863 
z
" transform="scale(0.015625)"/>
      </defs>
      <use xlink:href="#DejaVuSans-65"/>
      <use xlink:href="#DejaVuSans-76" transform="translate(61.523438 0)"/>
      <use xlink:href="#DejaVuSans-65" transform="translate(120.703125 0)"/>
      <use xlink:href="#DejaVuSans-6e" transform="translate(182.226562 0)"/>
      <use xlink:href="#DejaVuSans-74" transform="translate(245.605469 0)"/>
      <use xlink:href="#DejaVuSans-5f" transform="translate(284.814453 0)"/>
      <use xlink:href="#DejaVuSans-74" transform="translate(334.814453 0)"/>
      <use xlink:href="#DejaVuSans-69" transform="translate(374.023438 0)"/>
      <use xlink:href="#DejaVuSans-6d" transform="translate(401.806641 0)"/>
      <use xlink:href="#DejaVuSans-65" transform="translate(499.21875 0)"/>
      <use xlink:href="#DejaVuSans-5f" transform="translate(560.742188 0)"/>
      <use xlink:href="#DejaVuSans-6f" transform="translate(610.742188 0)"/>
      <use xlink:href="#DejaVuSans-66" transform="translate(671.923828 0)"/>
      <use xlink:href="#DejaVuSans-66" transform="translate(707.128906 0)"/>
      <use xlink:href="#DejaVuSans-73" transform="translate(742.333984 0)"/>
      <use xlink:href="#DejaVuSans-65" transform="translate(794.433594 0)"/>
      <use xlink:href="#DejaVuSans-74" transform="translate(855.957031 0)"/>
      <use xlink:href="#DejaVuSans-20" transform="translate(895.166016 0)"/>
      <use xlink:href="#DejaVuSans-5b" transform="translate(926.953125 0)"/>
      <use xlink:href="#DejaVuSans-b5" transform="translate(965.966797 0)"/>
      <use xlink:href="#DejaVuSans-73" transform="translate(1029.589844 0)"/>
      <use xlink:href="#DejaVuSans-5d" transform="translate(1081.689453 0)"/>
     </g>
    </g>
   </g>
   <g id="matplotlib.axis_2">
    <g id="ytick_1">
     <g id="line2d_6">
      <defs>
       <path id="md1644b3f38" d="M 0 0 
L -3.5 0 
" style="stroke: #000000; stroke-width: 0.8"/>
      </defs>
      <g>
       <use xlink:href="#md1644b3f38" x="53.328125" y="218.88" style="stroke: #000000; stroke-width: 0.8"/>
      </g>
     </g>
     <g id="text_7">
      <!-- 0 -->
      <g transform="translate(39.965625 222.679219) scale(0.1 -0.1)">
       <use xlink:href="#DejaVuSans-30"/>
      </g>
     </g>
    </g>
    <g id="ytick_2">
     <g id="line2d_7">
      <g>
       <use xlink:href="#md1644b3f38" x="53.328125" y="186.910447" style="stroke: #000000; stroke-width: 0.8"/>
      </g>
     </g>
     <g id="text_8">
      <!-- 500 -->
      <g transform="translate(27.240625 190.709666) scale(0.1 -0.1)">
       <use xlink:href="#DejaVuSans-35"/>
       <use xlink:href="#DejaVuSans-30" transform="translate(63.623047 0)"/>
       <use xlink:href="#DejaVuSans-30" transform="translate(127.246094 0)"/>
      </g>
     </g>
    </g>
    <g id="ytick_3">
     <g id="line2d_8">
      <g>
       <use xlink:href="#md1644b3f38" x="53.328125" y="154.940894" style="stroke: #000000; stroke-width: 0.8"/>
      </g>
     </g>
     <g id="text_9">
      <!-- 1000 -->
      <g transform="translate(20.878125 158.740113) scale(0.1 -0.1)">
       <defs>
        <path id="DejaVuSans-31" d="M 794 531 
L 1825 531 
L 1825 4091 
L 703 3866 
L 703 4441 
L 1819 4666 
L 2450 4666 
L 2450 531 
L 3481 531 
L 3481 0 
L 794 0 
L 794 531 
z
" transform="scale(0.015625)"/>
       </defs>
       <use xlink:href="#DejaVuSans-31"/>
       <use xlink:href="#DejaVuSans-30" transform="translate(63.623047 0)"/>
       <use xlink:href="#DejaVuSans-30" transform="translate(127.246094 0)"/>
       <use xlink:href="#DejaVuSans-30" transform="translate(190.869141 0)"/>
      </g>
     </g>
    </g>
    <g id="ytick_4">
     <g id="line2d_9">
      <g>
       <use xlink:href="#md1644b3f38" x="53.328125" y="122.971342" style="stroke: #000000; stroke-width: 0.8"/>
      </g>
     </g>
     <g id="text_10">
      <!-- 1500 -->
      <g transform="translate(20.878125 126.77056) scale(0.1 -0.1)">
       <use xlink:href="#DejaVuSans-31"/>
       <use xlink:href="#DejaVuSans-35" transform="translate(63.623047 0)"/>
       <use xlink:href="#DejaVuSans-30" transform="translate(127.246094 0)"/>
       <use xlink:href="#DejaVuSans-30" transform="translate(190.869141 0)"/>
      </g>
     </g>
    </g>
    <g id="ytick_5">
     <g id="line2d_10">
      <g>
       <use xlink:href="#md1644b3f38" x="53.328125" y="91.001789" style="stroke: #000000; stroke-width: 0.8"/>
      </g>
     </g>
     <g id="text_11">
      <!-- 2000 -->
      <g transform="translate(20.878125 94.801008) scale(0.1 -0.1)">
       <use xlink:href="#DejaVuSans-32"/>
       <use xlink:href="#DejaVuSans-30" transform="translate(63.623047 0)"/>
       <use xlink:href="#DejaVuSans-30" transform="translate(127.246094 0)"/>
       <use xlink:href="#DejaVuSans-30" transform="translate(190.869141 0)"/>
      </g>
     </g>
    </g>
    <g id="ytick_6">
     <g id="line2d_11">
      <g>
       <use xlink:href="#md1644b3f38" x="53.328125" y="59.032236" style="stroke: #000000; stroke-width: 0.8"/>
      </g>
     </g>
     <g id="text_12">
      <!-- 2500 -->
      <g transform="translate(20.878125 62.831455) scale(0.1 -0.1)">
       <use xlink:href="#DejaVuSans-32"/>
       <use xlink:href="#DejaVuSans-35" transform="translate(63.623047 0)"/>
       <use xlink:href="#DejaVuSans-30" transform="translate(127.246094 0)"/>
       <use xlink:href="#DejaVuSans-30" transform="translate(190.869141 0)"/>
      </g>
     </g>
    </g>
    <g id="ytick_7">
     <g id="line2d_12">
      <g>
       <use xlink:href="#md1644b3f38" x="53.328125" y="27.062683" style="stroke: #000000; stroke-width: 0.8"/>
      </g>
     </g>
     <g id="text_13">
      <!-- 3000 -->
      <g transform="translate(20.878125 30.861902) scale(0.1 -0.1)">
       <use xlink:href="#DejaVuSans-33"/>
       <use xlink:href="#DejaVuSans-30" transform="translate(63.623047 0)"/>
       <use xlink:href="#DejaVuSans-30" transform="translate(127.246094 0)"/>
       <use xlink:href="#DejaVuSans-30" transform="translate(190.869141 0)"/>
      </g>
     </g>
    </g>
    <g id="text_14">
     <!-- [counts] -->
     <g transform="translate(14.798438 138.6925) rotate(-90) scale(0.1 -0.1)">
      <defs>
       <path id="DejaVuSans-63" d="M 3122 3366 
L 3122 2828 
Q 2878 2963 2633 3030 
Q 2388 3097 2138 3097 
Q 1578 3097 1268 2742 
Q 959 2388 959 1747 
Q 959 1106 1268 751 
Q 1578 397 2138 397 
Q 2388 397 2633 464 
Q 2878 531 3122 666 
L 3122 134 
Q 2881 22 2623 -34 
Q 2366 -91 2075 -91 
Q 1284 -91 818 406 
Q 353 903 353 1747 
Q 353 2603 823 3093 
Q 1294 3584 2113 3584 
Q 2378 3584 2631 3529 
Q 2884 3475 3122 3366 
z
" transform="scale(0.015625)"/>
       <path id="DejaVuSans-75" d="M 544 1381 
L 544 3500 
L 1119 3500 
L 1119 1403 
Q 1119 906 1312 657 
Q 1506 409 1894 409 
Q 2359 409 2629 706 
Q 2900 1003 2900 1516 
L 2900 3500 
L 3475 3500 
L 3475 0 
L 2900 0 
L 2900 538 
Q 2691 219 2414 64 
Q 2138 -91 1772 -91 
Q 1169 -91 856 284 
Q 544 659 544 1381 
z
M 1991 3584 
L 1991 3584 
z
" transform="scale(0.015625)"/>
      </defs>
      <use xlink:href="#DejaVuSans-5b"/>
      <use xlink:href="#DejaVuSans-63" transform="translate(39.013672 0)"/>
      <use xlink:href="#DejaVuSans-6f" transform="translate(93.994141 0)"/>
      <use xlink:href="#DejaVuSans-75" transform="translate(155.175781 0)"/>
      <use xlink:href="#DejaVuSans-6e" transform="translate(218.554688 0)"/>
      <use xlink:href="#DejaVuSans-74" transform="translate(281.933594 0)"/>
      <use xlink:href="#DejaVuSans-73" transform="translate(321.142578 0)"/>
      <use xlink:href="#DejaVuSans-5d" transform="translate(373.242188 0)"/>
     </g>
    </g>
   </g>
   <g id="line2d_13">
    <path d="M 68.546307 183.457735 
L 69.560852 183.457735 
L 69.560852 119.646508 
L 70.575398 119.646508 
L 70.575398 98.674481 
L 71.589943 98.674481 
L 71.589943 93.879049 
L 72.604489 93.879049 
L 72.604489 87.421199 
L 73.619034 87.421199 
L 73.619034 84.352122 
L 74.63358 84.352122 
L 74.63358 82.242131 
L 75.648125 82.242131 
L 75.648125 71.564301 
L 76.66267 71.564301 
L 76.66267 73.418535 
L 77.677216 73.418535 
L 77.677216 58.392845 
L 78.691761 58.392845 
L 78.691761 59.543749 
L 79.706307 59.543749 
L 79.706307 45.221389 
L 80.720852 45.221389 
L 80.720852 38.124148 
L 81.735398 38.124148 
L 81.735398 36.781427 
L 82.749943 36.781427 
L 82.749943 29.748126 
L 83.764489 29.748126 
L 83.764489 27.382379 
L 84.779034 27.382379 
L 84.779034 19.773625 
L 85.79358 19.773625 
L 85.79358 17.28 
L 86.808125 17.28 
L 86.808125 29.812065 
L 87.82267 29.812065 
L 87.82267 22.842702 
L 88.837216 22.842702 
L 88.837216 26.167536 
L 89.851761 26.167536 
L 89.851761 28.533283 
L 90.866307 28.533283 
L 90.866307 27.702074 
L 91.880852 27.702074 
L 91.880852 37.165062 
L 92.895398 37.165062 
L 92.895398 38.571722 
L 93.909943 38.571722 
L 93.909943 37.740514 
L 94.924489 37.740514 
L 94.924489 43.04746 
L 95.939034 43.04746 
L 95.939034 45.605024 
L 96.95358 45.605024 
L 96.95358 58.904358 
L 97.968125 58.904358 
L 97.968125 74.633378 
L 98.98267 74.633378 
L 98.98267 88.06059 
L 99.997216 88.06059 
L 99.997216 101.168107 
L 101.011761 101.168107 
L 101.011761 110.631094 
L 102.026307 110.631094 
L 102.026307 118.623482 
L 103.040852 118.623482 
L 103.040852 126.935566 
L 104.055398 126.935566 
L 104.055398 137.037945 
L 105.069943 137.037945 
L 105.069943 151.807878 
L 106.084489 151.807878 
L 106.084489 160.503597 
L 107.099034 160.503597 
L 107.099034 168.559924 
L 108.11358 168.559924 
L 108.11358 177.639277 
L 109.128125 177.639277 
L 109.128125 186.526813 
L 110.14267 186.526813 
L 110.14267 197.332521 
L 111.157216 197.332521 
L 111.157216 205.005214 
L 112.171761 205.005214 
L 112.171761 213.828811 
L 113.186307 213.828811 
L 113.186307 217.537279 
L 114.200852 217.537279 
L 114.200852 218.88 
L 126.375398 218.88 
L 126.375398 218.048792 
L 127.389943 218.048792 
L 127.389943 190.682854 
L 128.404489 190.682854 
L 128.404489 142.920343 
L 129.419034 142.920343 
L 129.419034 107.498078 
L 130.43358 107.498078 
L 130.43358 80.835471 
L 131.448125 80.835471 
L 131.448125 79.748506 
L 132.46267 79.748506 
L 132.46267 85.694843 
L 133.477216 85.694843 
L 133.477216 84.416061 
L 134.491761 84.416061 
L 134.491761 88.955737 
L 135.506307 88.955737 
L 135.506307 93.879049 
L 136.520852 93.879049 
L 136.520852 99.889324 
L 137.535398 99.889324 
L 137.535398 108.521104 
L 138.549943 108.521104 
L 138.549943 95.029952 
L 139.564489 95.029952 
L 139.564489 103.405975 
L 140.579034 103.405975 
L 140.579034 104.365062 
L 141.59358 104.365062 
L 141.59358 109.608069 
L 142.608125 109.608069 
L 142.608125 106.411113 
L 143.62267 106.411113 
L 143.62267 108.585043 
L 144.637216 108.585043 
L 144.637216 109.672008 
L 145.651761 109.672008 
L 145.651761 114.019867 
L 146.666307 114.019867 
L 146.666307 118.687422 
L 147.680852 118.687422 
L 147.680852 112.229572 
L 148.695398 112.229572 
L 148.695398 116.577431 
L 149.709943 116.577431 
L 149.709943 120.349838 
L 150.724489 120.349838 
L 150.724489 121.62862 
L 151.739034 121.62862 
L 151.739034 125.592845 
L 152.75358 125.592845 
L 152.75358 127.38314 
L 153.768125 127.38314 
L 153.768125 126.871627 
L 154.78267 126.871627 
L 154.78267 129.876765 
L 155.797216 129.876765 
L 155.797216 133.968868 
L 156.811761 133.968868 
L 156.811761 132.242512 
L 157.826307 132.242512 
L 157.826307 128.981618 
L 158.840852 128.981618 
L 158.840852 134.288563 
L 159.855398 134.288563 
L 159.855398 135.24765 
L 160.869943 135.24765 
L 160.869943 141.513682 
L 161.884489 141.513682 
L 161.884489 144.710637 
L 162.899034 144.710637 
L 162.899034 142.280951 
L 163.91358 142.280951 
L 163.91358 144.710637 
L 164.928125 144.710637 
L 164.928125 150.017583 
L 165.94267 150.017583 
L 165.94267 157.882093 
L 166.957216 157.882093 
L 166.957216 162.485709 
L 167.971761 162.485709 
L 167.971761 165.810542 
L 168.986307 165.810542 
L 168.986307 175.017774 
L 170.000852 175.017774 
L 170.000852 182.882284 
L 171.015398 182.882284 
L 171.015398 187.038325 
L 172.029943 187.038325 
L 172.029943 194.966775 
L 173.044489 194.966775 
L 173.044489 202.064015 
L 174.059034 202.064015 
L 174.059034 206.02824 
L 175.07358 206.02824 
L 175.07358 209.992464 
L 176.088125 209.992464 
L 176.088125 215.043654 
L 177.10267 215.043654 
L 177.10267 217.281522 
L 178.117216 217.281522 
L 178.117216 218.88 
L 182.175398 218.88 
L 182.175398 217.665157 
L 183.189943 217.665157 
L 183.189943 207.818535 
L 184.204489 207.818535 
L 184.204489 188.189229 
L 185.219034 188.189229 
L 185.219034 173.163539 
L 186.23358 173.163539 
L 186.23358 156.923007 
L 187.248125 156.923007 
L 187.248125 148.483045 
L 188.26267 148.483045 
L 188.26267 147.843654 
L 189.277216 147.843654 
L 189.277216 153.022721 
L 190.291761 153.022721 
L 190.291761 154.237564 
L 191.306307 154.237564 
L 191.306307 151.552122 
L 192.320852 151.552122 
L 192.320852 154.301503 
L 193.335398 154.301503 
L 193.335398 153.08666 
L 194.349943 153.08666 
L 194.349943 156.923007 
L 195.364489 156.923007 
L 195.364489 153.981808 
L 196.379034 153.981808 
L 196.379034 155.772103 
L 197.39358 155.772103 
L 197.39358 159.032997 
L 198.408125 159.032997 
L 198.408125 159.224814 
L 199.42267 159.224814 
L 199.42267 159.928145 
L 200.437216 159.928145 
L 200.437216 162.038135 
L 201.451761 162.038135 
L 201.451761 158.265728 
L 202.466307 158.265728 
L 202.466307 164.276004 
L 203.480852 164.276004 
L 203.480852 165.554786 
L 204.495398 165.554786 
L 204.495398 167.345081 
L 205.509943 167.345081 
L 205.509943 170.350219 
L 206.524489 170.350219 
L 206.524489 169.838706 
L 207.539034 169.838706 
L 207.539034 174.698078 
L 208.55358 174.698078 
L 208.55358 176.360495 
L 209.568125 176.360495 
L 209.568125 179.941085 
L 210.58267 179.941085 
L 210.58267 180.068963 
L 211.597216 180.068963 
L 211.597216 182.370771 
L 212.611761 182.370771 
L 212.611761 186.143178 
L 213.626307 186.143178 
L 213.626307 187.677716 
L 214.640852 187.677716 
L 214.640852 189.404072 
L 215.655398 189.404072 
L 215.655398 193.048601 
L 216.669943 193.048601 
L 216.669943 191.450124 
L 217.684489 191.450124 
L 217.684489 199.250695 
L 218.699034 199.250695 
L 218.699034 196.757069 
L 219.71358 196.757069 
L 219.71358 200.657355 
L 220.728125 200.657355 
L 220.728125 203.15098 
L 221.74267 203.15098 
L 221.74267 202.831284 
L 222.757216 202.831284 
L 222.757216 207.754596 
L 223.771761 207.754596 
L 223.771761 209.417012 
L 224.786307 209.417012 
L 224.786307 211.590942 
L 225.800852 211.590942 
L 225.800852 214.532141 
L 226.815398 214.532141 
L 226.815398 217.217583 
L 227.829943 217.217583 
L 227.829943 218.88 
L 233.917216 218.816061 
L 233.917216 216.194558 
L 234.931761 216.194558 
L 234.931761 208.074291 
L 235.946307 208.074291 
L 235.946307 202.319772 
L 236.960852 202.319772 
L 236.960852 192.792845 
L 237.975398 192.792845 
L 237.975398 188.381047 
L 238.989943 188.381047 
L 238.989943 189.851646 
L 240.004489 189.851646 
L 240.004489 187.805595 
L 241.019034 187.805595 
L 241.019034 188.700742 
L 242.03358 188.700742 
L 242.03358 193.240419 
L 243.048125 193.240419 
L 243.048125 193.560114 
L 244.06267 193.560114 
L 244.06267 195.414348 
L 245.077216 195.414348 
L 245.077216 196.821009 
L 246.091761 196.821009 
L 246.091761 197.652217 
L 247.106307 197.652217 
L 247.106307 197.907973 
L 248.120852 197.907973 
L 248.120852 200.913111 
L 249.135398 200.913111 
L 249.135398 201.424624 
L 250.149943 201.424624 
L 250.149943 199.442512 
L 251.164489 199.442512 
L 251.164489 203.598554 
L 252.179034 203.598554 
L 252.179034 205.197031 
L 253.19358 205.197031 
L 253.19358 204.365823 
L 254.208125 204.365823 
L 254.208125 204.55764 
L 255.22267 204.55764 
L 255.22267 207.562778 
L 256.237216 207.562778 
L 256.237216 205.32491 
L 257.251761 205.32491 
L 257.251761 207.882474 
L 258.266307 207.882474 
L 258.266307 207.498839 
L 259.280852 207.498839 
L 259.280852 209.417012 
L 260.295398 209.417012 
L 260.295398 210.695794 
L 261.309943 210.695794 
L 261.309943 210.31216 
L 262.324489 210.31216 
L 262.324489 210.056403 
L 263.339034 210.056403 
L 263.339034 213.89275 
L 264.35358 213.89275 
L 264.35358 213.381237 
L 265.368125 213.381237 
L 265.368125 213.828811 
L 267.397216 213.89275 
L 267.397216 215.491227 
L 268.411761 215.491227 
L 268.411761 216.066679 
L 269.426307 216.066679 
L 269.426307 216.897888 
L 270.440852 216.897888 
L 270.440852 217.217583 
L 271.455398 217.217583 
L 271.455398 217.537279 
L 272.469943 217.537279 
L 272.469943 218.112731 
L 273.484489 218.112731 
L 273.484489 218.432426 
L 274.499034 218.432426 
L 274.499034 218.88 
L 280.586307 218.88 
L 280.586307 218.112731 
L 281.600852 218.112731 
L 281.600852 214.532141 
L 282.615398 214.532141 
L 282.615398 211.335186 
L 283.629943 211.335186 
L 283.629943 208.84156 
L 284.644489 208.84156 
L 284.644489 202.767345 
L 285.659034 202.767345 
L 285.659034 203.342797 
L 286.67358 203.342797 
L 286.67358 205.516727 
L 287.688125 205.516727 
L 287.688125 205.836422 
L 288.70267 205.836422 
L 288.70267 204.237945 
L 289.717216 204.237945 
L 289.717216 207.051265 
L 290.731761 207.051265 
L 290.731761 207.818535 
L 291.746307 207.818535 
L 291.746307 209.289134 
L 293.775398 209.225195 
L 293.775398 209.672769 
L 294.789943 209.672769 
L 294.789943 208.649743 
L 295.804489 208.649743 
L 295.804489 212.102455 
L 296.819034 212.102455 
L 296.819034 211.143368 
L 297.83358 211.143368 
L 297.83358 211.71882 
L 298.848125 211.71882 
L 298.848125 212.294272 
L 300.877216 212.294272 
L 300.877216 213.12548 
L 301.891761 213.12548 
L 301.891761 214.084567 
L 302.906307 214.084567 
L 302.906307 212.997602 
L 303.920852 212.997602 
L 303.920852 214.59608 
L 304.935398 214.59608 
L 304.935398 213.636993 
L 305.949943 213.636993 
L 305.949943 215.555167 
L 306.964489 215.555167 
L 306.964489 215.235471 
L 307.979034 215.235471 
L 307.979034 215.491227 
L 308.99358 215.491227 
L 308.99358 216.386375 
L 310.008125 216.386375 
L 310.008125 215.746984 
L 311.02267 215.746984 
L 311.02267 216.833949 
L 312.037216 216.833949 
L 312.037216 217.153644 
L 313.051761 217.153644 
L 313.051761 217.345461 
L 314.066307 217.345461 
L 314.066307 217.537279 
L 315.080852 217.537279 
L 315.080852 217.856974 
L 316.095398 217.856974 
L 316.095398 218.368487 
L 317.109943 218.368487 
L 317.109943 218.624244 
L 318.124489 218.624244 
L 318.124489 218.816061 
L 328.269943 218.816061 
L 328.269943 218.560304 
L 329.284489 218.560304 
L 329.284489 217.409401 
L 330.299034 217.409401 
L 330.299034 215.171532 
L 331.31358 215.171532 
L 331.31358 211.335186 
L 332.328125 211.335186 
L 332.328125 209.672769 
L 333.34267 209.672769 
L 333.34267 208.010352 
L 334.357216 208.010352 
L 334.357216 204.685519 
L 335.371761 204.685519 
L 335.371761 202.831284 
L 336.386307 202.831284 
L 336.386307 205.069153 
L 337.400852 205.069153 
L 337.400852 202.639467 
L 338.415398 202.639467 
L 338.415398 204.110067 
L 339.429943 204.110067 
L 339.429943 202.767345 
L 341.459034 202.703406 
L 341.459034 203.406736 
L 343.488125 203.406736 
L 343.488125 203.726432 
L 344.50267 203.726432 
L 344.50267 203.406736 
L 345.517216 203.406736 
L 345.517216 204.046127 
L 346.531761 204.046127 
L 346.531761 204.941275 
L 347.546307 204.941275 
L 347.546307 204.685519 
L 348.560852 204.685519 
L 348.560852 204.174006 
L 349.575398 204.174006 
L 349.575398 205.069153 
L 350.589943 205.069153 
L 350.589943 206.02824 
L 351.604489 206.02824 
L 351.604489 205.069153 
L 352.619034 205.069153 
L 352.619034 205.964301 
L 353.63358 205.964301 
L 353.63358 209.161256 
L 354.648125 209.161256 
L 354.648125 206.539753 
L 355.66267 206.539753 
L 355.66267 207.626717 
L 356.677216 207.626717 
L 356.677216 208.713682 
L 357.691761 208.713682 
L 357.691761 210.184282 
L 359.720852 210.248221 
L 359.720852 208.713682 
L 360.735398 208.713682 
L 360.735398 209.864586 
L 361.749943 209.864586 
L 361.749943 210.184282 
L 362.764489 210.184282 
L 362.764489 212.294272 
L 363.779034 212.294272 
L 363.779034 210.887612 
L 364.79358 210.887612 
L 364.79358 212.42215 
L 365.808125 212.42215 
L 365.808125 212.869724 
L 366.82267 212.869724 
L 366.82267 214.915775 
L 367.837216 214.915775 
L 367.837216 214.660019 
L 368.851761 214.660019 
L 368.851761 215.107593 
L 369.866307 215.107593 
L 369.866307 216.386375 
L 370.880852 216.386375 
L 370.880852 217.217583 
L 371.895398 217.217583 
L 371.895398 218.112731 
L 372.909943 218.112731 
L 372.909943 218.112731 
" clip-path="url(#p2f9382829a)" style="fill: none; stroke: #1f77b4; stroke-width: 1.5; stroke-linecap: square"/>
   </g>
   <g id="patch_3">
    <path d="M 53.328125 228.96 
L 53.328125 7.2 
" style="fill: none; stroke: #000000; stroke-width: 0.8; stroke-linejoin: miter; stroke-linecap: square"/>
   </g>
   <g id="patch_4">
    <path d="M 388.128125 228.96 
L 388.128125 7.2 
" style="fill: none; stroke: #000000; stroke-width: 0.8; stroke-linejoin: miter; stroke-linecap: square"/>
   </g>
   <g id="patch_5">
    <path d="M 53.328125 228.96 
L 388.128125 228.96 
" style="fill: none; stroke: #000000; stroke-width: 0.8; stroke-linejoin: miter; stroke-linecap: square"/>
   </g>
   <g id="patch_6">
    <path d="M 53.328125 7.2 
L 388.128125 7.2 
" style="fill: none; stroke: #000000; stroke-width: 0.8; stroke-linejoin: miter; stroke-linecap: square"/>
   </g>
  </g>
 </g>
 <defs>
  <clipPath id="p2f9382829a">
   <rect x="53.328125" y="7.2" width="334.8" height="221.76"/>
  </clipPath>
 </defs>
</svg>
