<?xml version="1.0" encoding="utf-8" standalone="no"?>
<!DOCTYPE svg PUBLIC "-//W3C//DTD SVG 1.1//EN"
  "http://www.w3.org/Graphics/SVG/1.1/DTD/svg11.dtd">
<svg xmlns:xlink="http://www.w3.org/1999/xlink" width="395.328125pt" height="268.200625pt" viewBox="0 0 395.328125 268.200625" xmlns="http://www.w3.org/2000/svg" version="1.1">
 <metadata>
  <rdf:RDF xmlns:dc="http://purl.org/dc/elements/1.1/" xmlns:cc="http://creativecommons.org/ns#" xmlns:rdf="http://www.w3.org/1999/02/22-rdf-syntax-ns#">
   <cc:Work>
    <dc:type rdf:resource="http://purl.org/dc/dcmitype/StillImage"/>
    <dc:date>2025-11-19T12:42:19.127544</dc:date>
    <dc:format>image/svg+xml</dc:format>
    <dc:creator>
     <cc:Agent>
      <dc:title>Matplotlib v3.10.7, https://matplotlib.org/</dc:title>
     </cc:Agent>
    </dc:creator>
   </cc:Work>
  </rdf:RDF>
 </metadata>
 <defs>
  <style type="text/css">*{stroke-linejoin: round; stroke-linecap: butt}</style>
 </defs>
 <g id="figure_1">
  <g id="patch_1">
   <path d="M 0 268.200625 
L 395.328125 268.200625 
L 395.328125 0 
L 0 0 
z
" style="fill: #ffffff"/>
  </g>
  <g id="axes_1">
   <g id="patch_2">
    <path d="M 53.328125 228.96 
L 388.128125 228.96 
L 388.128125 7.2 
L 53.328125 7.2 
z
" style="fill: #ffffff"/>
   </g>
   <g id="matplotlib.axis_1">
    <g id="xtick_1">
     <g id="line2d_1">
      <defs>
       <path id="m285aef1d5f" d="M 0 0 
L 0 3.5 
" style="stroke: #000000; stroke-width: 0.8"/>
      </defs>
      <g>
       <use xlink:href="#m285aef1d5f" x="68.546307" y="228.96" style="stroke: #000000; stroke-width: 0.8"/>
      </g>
     </g>
     <g id="text_1">
      <!-- 2 -->
      <g transform="translate(65.365057 243.558437) scale(0.1 -0.1)">
       <defs>
        <path id="DejaVuSans-32" d="M 1228 531 
L 3431 531 
L 3431 0 
L 469 0 
L 469 531 
Q 828 903 1448 1529 
Q 2069 2156 2228 2338 
Q 2531 2678 2651 2914 
Q 2772 3150 2772 3378 
Q 2772 3750 2511 3984 
Q 2250 4219 1831 4219 
Q 1534 4219 1204 4116 
Q 875 4013 500 3803 
L 500 4441 
Q 881 4594 1212 4672 
Q 1544 4750 1819 4750 
Q 2544 4750 2975 4387 
Q 3406 4025 3406 3419 
Q 3406 3131 3298 2873 
Q 3191 2616 2906 2266 
Q 2828 2175 2409 1742 
Q 1991 1309 1228 531 
z
" transform="scale(0.015625)"/>
       </defs>
       <use xlink:href="#DejaVuSans-32"/>
      </g>
     </g>
    </g>
    <g id="xtick_2">
     <g id="line2d_2">
      <g>
       <use xlink:href="#m285aef1d5f" x="106.591761" y="228.96" style="stroke: #000000; stroke-width: 0.8"/>
      </g>
     </g>
     <g id="text_2">
      <!-- 3 -->
      <g transform="translate(103.410511 243.558437) scale(0.1 -0.1)">
       <defs>
        <path id="DejaVuSans-33" d="M 2597 2516 
Q 3050 2419 3304 2112 
Q 3559 1806 3559 1356 
Q 3559 666 3084 287 
Q 2609 -91 1734 -91 
Q 1441 -91 1130 -33 
Q 819 25 488 141 
L 488 750 
Q 750 597 1062 519 
Q 1375 441 1716 441 
Q 2309 441 2620 675 
Q 2931 909 2931 1356 
Q 2931 1769 2642 2001 
Q 2353 2234 1838 2234 
L 1294 2234 
L 1294 2753 
L 1863 2753 
Q 2328 2753 2575 2939 
Q 2822 3125 2822 3475 
Q 2822 3834 2567 4026 
Q 2313 4219 1838 4219 
Q 1578 4219 1281 4162 
Q 984 4106 628 3988 
L 628 4550 
Q 988 4650 1302 4700 
Q 1616 4750 1894 4750 
Q 2613 4750 3031 4423 
Q 3450 4097 3450 3541 
Q 3450 3153 3228 2886 
Q 3006 2619 2597 2516 
z
" transform="scale(0.015625)"/>
       </defs>
       <use xlink:href="#DejaVuSans-33"/>
      </g>
     </g>
    </g>
    <g id="xtick_3">
     <g id="line2d_3">
      <g>
       <use xlink:href="#m285aef1d5f" x="144.637216" y="228.96" style="stroke: #000000; stroke-width: 0.8"/>
      </g>
     </g>
     <g id="text_3">
      <!-- 4 -->
      <g transform="translate(141.455966 243.558437) scale(0.1 -0.1)">
       <defs>
        <path id="DejaVuSans-34" d="M 2419 4116 
L 825 1625 
L 2419 1625 
L 2419 4116 
z
M 2253 4666 
L 3047 4666 
L 3047 1625 
L 3713 1625 
L 3713 1100 
L 3047 1100 
L 3047 0 
L 2419 0 
L 2419 1100 
L 313 1100 
L 313 1709 
L 2253 4666 
z
" transform="scale(0.015625)"/>
       </defs>
       <use xlink:href="#DejaVuSans-34"/>
      </g>
     </g>
    </g>
    <g id="xtick_4">
     <g id="line2d_4">
      <g>
       <use xlink:href="#m285aef1d5f" x="182.68267" y="228.96" style="stroke: #000000; stroke-width: 0.8"/>
      </g>
     </g>
     <g id="text_4">
      <!-- 5 -->
      <g transform="translate(179.50142 243.558437) scale(0.1 -0.1)">
       <defs>
        <path id="DejaVuSans-35" d="M 691 4666 
L 3169 4666 
L 3169 4134 
L 1269 4134 
L 1269 2991 
Q 1406 3038 1543 3061 
Q 1681 3084 1819 3084 
Q 2600 3084 3056 2656 
Q 3513 2228 3513 1497 
Q 3513 744 3044 326 
Q 2575 -91 1722 -91 
Q 1428 -91 1123 -41 
Q 819 9 494 109 
L 494 744 
Q 775 591 1075 516 
Q 1375 441 1709 441 
Q 2250 441 2565 725 
Q 2881 1009 2881 1497 
Q 2881 1984 2565 2268 
Q 2250 2553 1709 2553 
Q 1456 2553 1204 2497 
Q 953 2441 691 2322 
L 691 4666 
z
" transform="scale(0.015625)"/>
       </defs>
       <use xlink:href="#DejaVuSans-35"/>
      </g>
     </g>
    </g>
    <g id="xtick_5">
     <g id="line2d_5">
      <g>
       <use xlink:href="#m285aef1d5f" x="220.728125" y="228.96" style="stroke: #000000; stroke-width: 0.8"/>
      </g>
     </g>
     <g id="text_5">
      <!-- 6 -->
      <g transform="translate(217.546875 243.558437) scale(0.1 -0.1)">
       <defs>
        <path id="DejaVuSans-36" d="M 2113 2584 
Q 1688 2584 1439 2293 
Q 1191 2003 1191 1497 
Q 1191 994 1439 701 
Q 1688 409 2113 409 
Q 2538 409 2786 701 
Q 3034 994 3034 1497 
Q 3034 2003 2786 2293 
Q 2538 2584 2113 2584 
z
M 3366 4563 
L 3366 3988 
Q 3128 4100 2886 4159 
Q 2644 4219 2406 4219 
Q 1781 4219 1451 3797 
Q 1122 3375 1075 2522 
Q 1259 2794 1537 2939 
Q 1816 3084 2150 3084 
Q 2853 3084 3261 2657 
Q 3669 2231 3669 1497 
Q 3669 778 3244 343 
Q 2819 -91 2113 -91 
Q 1303 -91 875 529 
Q 447 1150 447 2328 
Q 447 3434 972 4092 
Q 1497 4750 2381 4750 
Q 2619 4750 2861 4703 
Q 3103 4656 3366 4563 
z
" transform="scale(0.015625)"/>
       </defs>
       <use xlink:href="#DejaVuSans-36"/>
      </g>
     </g>
    </g>
    <g id="xtick_6">
     <g id="line2d_6">
      <g>
       <use xlink:href="#m285aef1d5f" x="258.77358" y="228.96" style="stroke: #000000; stroke-width: 0.8"/>
      </g>
     </g>
     <g id="text_6">
      <!-- 7 -->
      <g transform="translate(255.59233 243.558437) scale(0.1 -0.1)">
       <defs>
        <path id="DejaVuSans-37" d="M 525 4666 
L 3525 4666 
L 3525 4397 
L 1831 0 
L 1172 0 
L 2766 4134 
L 525 4134 
L 525 4666 
z
" transform="scale(0.015625)"/>
       </defs>
       <use xlink:href="#DejaVuSans-37"/>
      </g>
     </g>
    </g>
    <g id="xtick_7">
     <g id="line2d_7">
      <g>
       <use xlink:href="#m285aef1d5f" x="296.819034" y="228.96" style="stroke: #000000; stroke-width: 0.8"/>
      </g>
     </g>
     <g id="text_7">
      <!-- 8 -->
      <g transform="translate(293.637784 243.558437) scale(0.1 -0.1)">
       <defs>
        <path id="DejaVuSans-38" d="M 2034 2216 
Q 1584 2216 1326 1975 
Q 1069 1734 1069 1313 
Q 1069 891 1326 650 
Q 1584 409 2034 409 
Q 2484 409 2743 651 
Q 3003 894 3003 1313 
Q 3003 1734 2745 1975 
Q 2488 2216 2034 2216 
z
M 1403 2484 
Q 997 2584 770 2862 
Q 544 3141 544 3541 
Q 544 4100 942 4425 
Q 1341 4750 2034 4750 
Q 2731 4750 3128 4425 
Q 3525 4100 3525 3541 
Q 3525 3141 3298 2862 
Q 3072 2584 2669 2484 
Q 3125 2378 3379 2068 
Q 3634 1759 3634 1313 
Q 3634 634 3220 271 
Q 2806 -91 2034 -91 
Q 1263 -91 848 271 
Q 434 634 434 1313 
Q 434 1759 690 2068 
Q 947 2378 1403 2484 
z
M 1172 3481 
Q 1172 3119 1398 2916 
Q 1625 2713 2034 2713 
Q 2441 2713 2670 2916 
Q 2900 3119 2900 3481 
Q 2900 3844 2670 4047 
Q 2441 4250 2034 4250 
Q 1625 4250 1398 4047 
Q 1172 3844 1172 3481 
z
" transform="scale(0.015625)"/>
       </defs>
       <use xlink:href="#DejaVuSans-38"/>
      </g>
     </g>
    </g>
    <g id="xtick_8">
     <g id="line2d_8">
      <g>
       <use xlink:href="#m285aef1d5f" x="334.864489" y="228.96" style="stroke: #000000; stroke-width: 0.8"/>
      </g>
     </g>
     <g id="text_8">
      <!-- 9 -->
      <g transform="translate(331.683239 243.558437) scale(0.1 -0.1)">
       <defs>
        <path id="DejaVuSans-39" d="M 703 97 
L 703 672 
Q 941 559 1184 500 
Q 1428 441 1663 441 
Q 2288 441 2617 861 
Q 2947 1281 2994 2138 
Q 2813 1869 2534 1725 
Q 2256 1581 1919 1581 
Q 1219 1581 811 2004 
Q 403 2428 403 3163 
Q 403 3881 828 4315 
Q 1253 4750 1959 4750 
Q 2769 4750 3195 4129 
Q 3622 3509 3622 2328 
Q 3622 1225 3098 567 
Q 2575 -91 1691 -91 
Q 1453 -91 1209 -44 
Q 966 3 703 97 
z
M 1959 2075 
Q 2384 2075 2632 2365 
Q 2881 2656 2881 3163 
Q 2881 3666 2632 3958 
Q 2384 4250 1959 4250 
Q 1534 4250 1286 3958 
Q 1038 3666 1038 3163 
Q 1038 2656 1286 2365 
Q 1534 2075 1959 2075 
z
" transform="scale(0.015625)"/>
       </defs>
       <use xlink:href="#DejaVuSans-39"/>
      </g>
     </g>
    </g>
    <g id="xtick_9">
     <g id="line2d_9">
      <g>
       <use xlink:href="#m285aef1d5f" x="372.909943" y="228.96" style="stroke: #000000; stroke-width: 0.8"/>
      </g>
     </g>
     <g id="text_9">
      <!-- 10 -->
      <g transform="translate(366.547443 243.558437) scale(0.1 -0.1)">
       <defs>
        <path id="DejaVuSans-31" d="M 794 531 
L 1825 531 
L 1825 4091 
L 703 3866 
L 703 4441 
L 1819 4666 
L 2450 4666 
L 2450 531 
L 3481 531 
L 3481 0 
L 794 0 
L 794 531 
z
" transform="scale(0.015625)"/>
        <path id="DejaVuSans-30" d="M 2034 4250 
Q 1547 4250 1301 3770 
Q 1056 3291 1056 2328 
Q 1056 1369 1301 889 
Q 1547 409 2034 409 
Q 2525 409 2770 889 
Q 3016 1369 3016 2328 
Q 3016 3291 2770 3770 
Q 2525 4250 2034 4250 
z
M 2034 4750 
Q 2819 4750 3233 4129 
Q 3647 3509 3647 2328 
Q 3647 1150 3233 529 
Q 2819 -91 2034 -91 
Q 1250 -91 836 529 
Q 422 1150 422 2328 
Q 422 3509 836 4129 
Q 1250 4750 2034 4750 
z
" transform="scale(0.015625)"/>
       </defs>
       <use xlink:href="#DejaVuSans-31"/>
       <use xlink:href="#DejaVuSans-30" transform="translate(63.623047 0)"/>
      </g>
     </g>
    </g>
    <g id="text_10">
     <!-- wavelength [Å] -->
     <g transform="translate(182.690625 258.920937) scale(0.1 -0.1)">
      <defs>
       <path id="DejaVuSans-77" d="M 269 3500 
L 844 3500 
L 1563 769 
L 2278 3500 
L 2956 3500 
L 3675 769 
L 4391 3500 
L 4966 3500 
L 4050 0 
L 3372 0 
L 2619 2869 
L 1863 0 
L 1184 0 
L 269 3500 
z
" transform="scale(0.015625)"/>
       <path id="DejaVuSans-61" d="M 2194 1759 
Q 1497 1759 1228 1600 
Q 959 1441 959 1056 
Q 959 750 1161 570 
Q 1363 391 1709 391 
Q 2188 391 2477 730 
Q 2766 1069 2766 1631 
L 2766 1759 
L 2194 1759 
z
M 3341 1997 
L 3341 0 
L 2766 0 
L 2766 531 
Q 2569 213 2275 61 
Q 1981 -91 1556 -91 
Q 1019 -91 701 211 
Q 384 513 384 1019 
Q 384 1609 779 1909 
Q 1175 2209 1959 2209 
L 2766 2209 
L 2766 2266 
Q 2766 2663 2505 2880 
Q 2244 3097 1772 3097 
Q 1472 3097 1187 3025 
Q 903 2953 641 2809 
L 641 3341 
Q 956 3463 1253 3523 
Q 1550 3584 1831 3584 
Q 2591 3584 2966 3190 
Q 3341 2797 3341 1997 
z
" transform="scale(0.015625)"/>
       <path id="DejaVuSans-76" d="M 191 3500 
L 800 3500 
L 1894 563 
L 2988 3500 
L 3597 3500 
L 2284 0 
L 1503 0 
L 191 3500 
z
" transform="scale(0.015625)"/>
       <path id="DejaVuSans-65" d="M 3597 1894 
L 3597 1613 
L 953 1613 
Q 991 1019 1311 708 
Q 1631 397 2203 397 
Q 2534 397 2845 478 
Q 3156 559 3463 722 
L 3463 178 
Q 3153 47 2828 -22 
Q 2503 -91 2169 -91 
Q 1331 -91 842 396 
Q 353 884 353 1716 
Q 353 2575 817 3079 
Q 1281 3584 2069 3584 
Q 2775 3584 3186 3129 
Q 3597 2675 3597 1894 
z
M 3022 2063 
Q 3016 2534 2758 2815 
Q 2500 3097 2075 3097 
Q 1594 3097 1305 2825 
Q 1016 2553 972 2059 
L 3022 2063 
z
" transform="scale(0.015625)"/>
       <path id="DejaVuSans-6c" d="M 603 4863 
L 1178 4863 
L 1178 0 
L 603 0 
L 603 4863 
z
" transform="scale(0.015625)"/>
       <path id="DejaVuSans-6e" d="M 3513 2113 
L 3513 0 
L 2938 0 
L 2938 2094 
Q 2938 2591 2744 2837 
Q 2550 3084 2163 3084 
Q 1697 3084 1428 2787 
Q 1159 2491 1159 1978 
L 1159 0 
L 581 0 
L 581 3500 
L 1159 3500 
L 1159 2956 
Q 1366 3272 1645 3428 
Q 1925 3584 2291 3584 
Q 2894 3584 3203 3211 
Q 3513 2838 3513 2113 
z
" transform="scale(0.015625)"/>
       <path id="DejaVuSans-67" d="M 2906 1791 
Q 2906 2416 2648 2759 
Q 2391 3103 1925 3103 
Q 1463 3103 1205 2759 
Q 947 2416 947 1791 
Q 947 1169 1205 825 
Q 1463 481 1925 481 
Q 2391 481 2648 825 
Q 2906 1169 2906 1791 
z
M 3481 434 
Q 3481 -459 3084 -895 
Q 2688 -1331 1869 -1331 
Q 1566 -1331 1297 -1286 
Q 1028 -1241 775 -1147 
L 775 -588 
Q 1028 -725 1275 -790 
Q 1522 -856 1778 -856 
Q 2344 -856 2625 -561 
Q 2906 -266 2906 331 
L 2906 616 
Q 2728 306 2450 153 
Q 2172 0 1784 0 
Q 1141 0 747 490 
Q 353 981 353 1791 
Q 353 2603 747 3093 
Q 1141 3584 1784 3584 
Q 2172 3584 2450 3431 
Q 2728 3278 2906 2969 
L 2906 3500 
L 3481 3500 
L 3481 434 
z
" transform="scale(0.015625)"/>
       <path id="DejaVuSans-74" d="M 1172 4494 
L 1172 3500 
L 2356 3500 
L 2356 3053 
L 1172 3053 
L 1172 1153 
Q 1172 725 1289 603 
Q 1406 481 1766 481 
L 2356 481 
L 2356 0 
L 1766 0 
Q 1100 0 847 248 
Q 594 497 594 1153 
L 594 3053 
L 172 3053 
L 172 3500 
L 594 3500 
L 594 4494 
L 1172 4494 
z
" transform="scale(0.015625)"/>
       <path id="DejaVuSans-68" d="M 3513 2113 
L 3513 0 
L 2938 0 
L 2938 2094 
Q 2938 2591 2744 2837 
Q 2550 3084 2163 3084 
Q 1697 3084 1428 2787 
Q 1159 2491 1159 1978 
L 1159 0 
L 581 0 
L 581 4863 
L 1159 4863 
L 1159 2956 
Q 1366 3272 1645 3428 
Q 1925 3584 2291 3584 
Q 2894 3584 3203 3211 
Q 3513 2838 3513 2113 
z
" transform="scale(0.015625)"/>
       <path id="DejaVuSans-20" transform="scale(0.015625)"/>
       <path id="DejaVuSans-5b" d="M 550 4863 
L 1875 4863 
L 1875 4416 
L 1125 4416 
L 1125 -397 
L 1875 -397 
L 1875 -844 
L 550 -844 
L 550 4863 
z
" transform="scale(0.015625)"/>
       <path id="DejaVuSans-c5" d="M 2663 5081 
Q 2663 5278 2523 5417 
Q 2384 5556 2188 5556 
Q 1988 5556 1852 5420 
Q 1716 5284 1716 5081 
Q 1716 4884 1853 4746 
Q 1991 4609 2188 4609 
Q 2384 4609 2523 4746 
Q 2663 4884 2663 5081 
z
M 2188 4044 
L 1338 1722 
L 3041 1722 
L 2188 4044 
z
M 1716 4366 
Q 1525 4494 1428 4673 
Q 1331 4853 1331 5081 
Q 1331 5441 1579 5691 
Q 1828 5941 2188 5941 
Q 2544 5941 2795 5689 
Q 3047 5438 3047 5081 
Q 3047 4863 2948 4678 
Q 2850 4494 2663 4366 
L 4325 0 
L 3669 0 
L 3244 1197 
L 1141 1197 
L 716 0 
L 50 0 
L 1716 4366 
z
" transform="scale(0.015625)"/>
       <path id="DejaVuSans-5d" d="M 1947 4863 
L 1947 -844 
L 622 -844 
L 622 -397 
L 1369 -397 
L 1369 4416 
L 622 4416 
L 622 4863 
L 1947 4863 
z
" transform="scale(0.015625)"/>
      </defs>
      <use xlink:href="#DejaVuSans-77"/>
      <use xlink:href="#DejaVuSans-61" transform="translate(81.787109 0)"/>
      <use xlink:href="#DejaVuSans-76" transform="translate(143.066406 0)"/>
      <use xlink:href="#DejaVuSans-65" transform="translate(202.246094 0)"/>
      <use xlink:href="#DejaVuSans-6c" transform="translate(263.769531 0)"/>
      <use xlink:href="#DejaVuSans-65" transform="translate(291.552734 0)"/>
      <use xlink:href="#DejaVuSans-6e" transform="translate(353.076172 0)"/>
      <use xlink:href="#DejaVuSans-67" transform="translate(416.455078 0)"/>
      <use xlink:href="#DejaVuSans-74" transform="translate(479.931641 0)"/>
      <use xlink:href="#DejaVuSans-68" transform="translate(519.140625 0)"/>
      <use xlink:href="#DejaVuSans-20" transform="translate(582.519531 0)"/>
      <use xlink:href="#DejaVuSans-5b" transform="translate(614.306641 0)"/>
      <use xlink:href="#DejaVuSans-c5" transform="translate(653.320312 0)"/>
      <use xlink:href="#DejaVuSans-5d" transform="translate(721.728516 0)"/>
     </g>
    </g>
   </g>
   <g id="matplotlib.axis_2">
    <g id="ytick_1">
     <g id="line2d_10">
      <defs>
       <path id="m2c78a549c4" d="M 0 0 
L -3.5 0 
" style="stroke: #000000; stroke-width: 0.8"/>
      </defs>
      <g>
       <use xlink:href="#m2c78a549c4" x="53.328125" y="218.88" style="stroke: #000000; stroke-width: 0.8"/>
      </g>
     </g>
     <g id="text_11">
      <!-- 0 -->
      <g transform="translate(39.965625 222.679219) scale(0.1 -0.1)">
       <use xlink:href="#DejaVuSans-30"/>
      </g>
     </g>
    </g>
    <g id="ytick_2">
     <g id="line2d_11">
      <g>
       <use xlink:href="#m2c78a549c4" x="53.328125" y="180.842264" style="stroke: #000000; stroke-width: 0.8"/>
      </g>
     </g>
     <g id="text_12">
      <!-- 500 -->
      <g transform="translate(27.240625 184.641483) scale(0.1 -0.1)">
       <use xlink:href="#DejaVuSans-35"/>
       <use xlink:href="#DejaVuSans-30" transform="translate(63.623047 0)"/>
       <use xlink:href="#DejaVuSans-30" transform="translate(127.246094 0)"/>
      </g>
     </g>
    </g>
    <g id="ytick_3">
     <g id="line2d_12">
      <g>
       <use xlink:href="#m2c78a549c4" x="53.328125" y="142.804528" style="stroke: #000000; stroke-width: 0.8"/>
      </g>
     </g>
     <g id="text_13">
      <!-- 1000 -->
      <g transform="translate(20.878125 146.603747) scale(0.1 -0.1)">
       <use xlink:href="#DejaVuSans-31"/>
       <use xlink:href="#DejaVuSans-30" transform="translate(63.623047 0)"/>
       <use xlink:href="#DejaVuSans-30" transform="translate(127.246094 0)"/>
       <use xlink:href="#DejaVuSans-30" transform="translate(190.869141 0)"/>
      </g>
     </g>
    </g>
    <g id="ytick_4">
     <g id="line2d_13">
      <g>
       <use xlink:href="#m2c78a549c4" x="53.328125" y="104.766792" style="stroke: #000000; stroke-width: 0.8"/>
      </g>
     </g>
     <g id="text_14">
      <!-- 1500 -->
      <g transform="translate(20.878125 108.566011) scale(0.1 -0.1)">
       <use xlink:href="#DejaVuSans-31"/>
       <use xlink:href="#DejaVuSans-35" transform="translate(63.623047 0)"/>
       <use xlink:href="#DejaVuSans-30" transform="translate(127.246094 0)"/>
       <use xlink:href="#DejaVuSans-30" transform="translate(190.869141 0)"/>
      </g>
     </g>
    </g>
    <g id="ytick_5">
     <g id="line2d_14">
      <g>
       <use xlink:href="#m2c78a549c4" x="53.328125" y="66.729057" style="stroke: #000000; stroke-width: 0.8"/>
      </g>
     </g>
     <g id="text_15">
      <!-- 2000 -->
      <g transform="translate(20.878125 70.528275) scale(0.1 -0.1)">
       <use xlink:href="#DejaVuSans-32"/>
       <use xlink:href="#DejaVuSans-30" transform="translate(63.623047 0)"/>
       <use xlink:href="#DejaVuSans-30" transform="translate(127.246094 0)"/>
       <use xlink:href="#DejaVuSans-30" transform="translate(190.869141 0)"/>
      </g>
     </g>
    </g>
    <g id="ytick_6">
     <g id="line2d_15">
      <g>
       <use xlink:href="#m2c78a549c4" x="53.328125" y="28.691321" style="stroke: #000000; stroke-width: 0.8"/>
      </g>
     </g>
     <g id="text_16">
      <!-- 2500 -->
      <g transform="translate(20.878125 32.49054) scale(0.1 -0.1)">
       <use xlink:href="#DejaVuSans-32"/>
       <use xlink:href="#DejaVuSans-35" transform="translate(63.623047 0)"/>
       <use xlink:href="#DejaVuSans-30" transform="translate(127.246094 0)"/>
       <use xlink:href="#DejaVuSans-30" transform="translate(190.869141 0)"/>
      </g>
     </g>
    </g>
    <g id="text_17">
     <!-- [counts] -->
     <g transform="translate(14.798438 138.6925) rotate(-90) scale(0.1 -0.1)">
      <defs>
       <path id="DejaVuSans-63" d="M 3122 3366 
L 3122 2828 
Q 2878 2963 2633 3030 
Q 2388 3097 2138 3097 
Q 1578 3097 1268 2742 
Q 959 2388 959 1747 
Q 959 1106 1268 751 
Q 1578 397 2138 397 
Q 2388 397 2633 464 
Q 2878 531 3122 666 
L 3122 134 
Q 2881 22 2623 -34 
Q 2366 -91 2075 -91 
Q 1284 -91 818 406 
Q 353 903 353 1747 
Q 353 2603 823 3093 
Q 1294 3584 2113 3584 
Q 2378 3584 2631 3529 
Q 2884 3475 3122 3366 
z
" transform="scale(0.015625)"/>
       <path id="DejaVuSans-6f" d="M 1959 3097 
Q 1497 3097 1228 2736 
Q 959 2375 959 1747 
Q 959 1119 1226 758 
Q 1494 397 1959 397 
Q 2419 397 2687 759 
Q 2956 1122 2956 1747 
Q 2956 2369 2687 2733 
Q 2419 3097 1959 3097 
z
M 1959 3584 
Q 2709 3584 3137 3096 
Q 3566 2609 3566 1747 
Q 3566 888 3137 398 
Q 2709 -91 1959 -91 
Q 1206 -91 779 398 
Q 353 888 353 1747 
Q 353 2609 779 3096 
Q 1206 3584 1959 3584 
z
" transform="scale(0.015625)"/>
       <path id="DejaVuSans-75" d="M 544 1381 
L 544 3500 
L 1119 3500 
L 1119 1403 
Q 1119 906 1312 657 
Q 1506 409 1894 409 
Q 2359 409 2629 706 
Q 2900 1003 2900 1516 
L 2900 3500 
L 3475 3500 
L 3475 0 
L 2900 0 
L 2900 538 
Q 2691 219 2414 64 
Q 2138 -91 1772 -91 
Q 1169 -91 856 284 
Q 544 659 544 1381 
z
M 1991 3584 
L 1991 3584 
z
" transform="scale(0.015625)"/>
       <path id="DejaVuSans-73" d="M 2834 3397 
L 2834 2853 
Q 2591 2978 2328 3040 
Q 2066 3103 1784 3103 
Q 1356 3103 1142 2972 
Q 928 2841 928 2578 
Q 928 2378 1081 2264 
Q 1234 2150 1697 2047 
L 1894 2003 
Q 2506 1872 2764 1633 
Q 3022 1394 3022 966 
Q 3022 478 2636 193 
Q 2250 -91 1575 -91 
Q 1294 -91 989 -36 
Q 684 19 347 128 
L 347 722 
Q 666 556 975 473 
Q 1284 391 1588 391 
Q 1994 391 2212 530 
Q 2431 669 2431 922 
Q 2431 1156 2273 1281 
Q 2116 1406 1581 1522 
L 1381 1569 
Q 847 1681 609 1914 
Q 372 2147 372 2553 
Q 372 3047 722 3315 
Q 1072 3584 1716 3584 
Q 2034 3584 2315 3537 
Q 2597 3491 2834 3397 
z
" transform="scale(0.015625)"/>
      </defs>
      <use xlink:href="#DejaVuSans-5b"/>
      <use xlink:href="#DejaVuSans-63" transform="translate(39.013672 0)"/>
      <use xlink:href="#DejaVuSans-6f" transform="translate(93.994141 0)"/>
      <use xlink:href="#DejaVuSans-75" transform="translate(155.175781 0)"/>
      <use xlink:href="#DejaVuSans-6e" transform="translate(218.554688 0)"/>
      <use xlink:href="#DejaVuSans-74" transform="translate(281.933594 0)"/>
      <use xlink:href="#DejaVuSans-73" transform="translate(321.142578 0)"/>
      <use xlink:href="#DejaVuSans-5d" transform="translate(373.242188 0)"/>
     </g>
    </g>
   </g>
   <g id="line2d_16">
    <path d="M 68.546307 218.88 
L 69.560852 218.88 
L 69.560852 199.480755 
L 70.575398 199.480755 
L 70.575398 148.205887 
L 71.589943 148.205887 
L 71.589943 111.765736 
L 72.604489 111.765736 
L 72.604489 107.581585 
L 73.619034 107.581585 
L 73.619034 91.910038 
L 74.63358 91.910038 
L 74.63358 91.453585 
L 75.648125 91.453585 
L 75.648125 84.758943 
L 76.66267 84.758943 
L 76.66267 88.410566 
L 77.677216 88.410566 
L 77.677216 82.780981 
L 78.691761 82.780981 
L 78.691761 69.011321 
L 79.706307 69.011321 
L 79.706307 73.880151 
L 80.720852 73.880151 
L 80.720852 60.947321 
L 81.735398 60.947321 
L 81.735398 57.828226 
L 83.764489 57.828226 
L 83.764489 45.884377 
L 84.779034 45.884377 
L 84.779034 38.809358 
L 85.79358 38.809358 
L 85.79358 39.341887 
L 86.808125 39.341887 
L 86.808125 32.57117 
L 87.82267 32.57117 
L 87.82267 29.299925 
L 88.837216 29.299925 
L 88.837216 22.909585 
L 89.851761 22.909585 
L 89.851761 20.246943 
L 90.866307 20.246943 
L 90.866307 17.28 
L 91.880852 17.28 
L 91.880852 30.973585 
L 92.895398 30.973585 
L 92.895398 22.377057 
L 93.909943 22.377057 
L 93.909943 24.811472 
L 94.924489 24.811472 
L 94.924489 30.897509 
L 95.939034 30.897509 
L 95.939034 25.572226 
L 96.95358 25.572226 
L 96.95358 28.158792 
L 97.968125 28.158792 
L 97.968125 39.494038 
L 98.98267 39.494038 
L 98.98267 42.232755 
L 101.011761 42.232755 
L 101.011761 43.678189 
L 102.026307 43.678189 
L 102.026307 47.253736 
L 103.040852 47.253736 
L 103.040852 51.285736 
L 104.055398 51.285736 
L 104.055398 63.914264 
L 105.069943 63.914264 
L 105.069943 80.042264 
L 106.084489 80.042264 
L 106.084489 90.768906 
L 107.099034 90.768906 
L 107.099034 101.191245 
L 108.11358 101.191245 
L 108.11358 111.309283 
L 109.128125 111.309283 
L 109.128125 117.014943 
L 110.14267 117.014943 
L 110.14267 124.47034 
L 111.157216 124.47034 
L 111.157216 131.621434 
L 112.171761 131.621434 
L 112.171761 133.37117 
L 113.186307 133.37117 
L 113.186307 141.283019 
L 114.200852 141.283019 
L 114.200852 153.379019 
L 115.215398 153.379019 
L 115.215398 160.301887 
L 116.229943 160.301887 
L 116.229943 166.996528 
L 117.244489 166.996528 
L 117.244489 171.180679 
L 118.259034 171.180679 
L 118.259034 182.211623 
L 119.27358 182.211623 
L 119.27358 185.406792 
L 120.288125 185.406792 
L 120.288125 183.42883 
L 121.30267 183.42883 
L 121.30267 162.964528 
L 122.317216 162.964528 
L 122.317216 146.912604 
L 123.331761 146.912604 
L 123.331761 131.545358 
L 124.346307 131.545358 
L 124.346307 105.984 
L 125.360852 105.984 
L 125.360852 88.410566 
L 126.375398 88.410566 
L 126.375398 82.780981 
L 127.389943 82.780981 
L 127.389943 86.356528 
L 128.404489 86.356528 
L 128.404489 80.11834 
L 129.419034 80.11834 
L 129.419034 87.345509 
L 130.43358 87.345509 
L 130.43358 92.746868 
L 131.448125 92.746868 
L 131.448125 96.474566 
L 132.46267 96.474566 
L 132.46267 100.354415 
L 133.477216 100.354415 
L 133.477216 108.570566 
L 134.491761 108.570566 
L 134.491761 102.408453 
L 135.506307 102.408453 
L 135.506307 100.963019 
L 136.520852 100.963019 
L 136.520852 107.353358 
L 137.535398 107.353358 
L 137.535398 103.017057 
L 138.549943 103.017057 
L 138.549943 111.765736 
L 139.564489 111.765736 
L 139.564489 107.201208 
L 140.579034 107.201208 
L 140.579034 103.169208 
L 141.59358 103.169208 
L 141.59358 112.37434 
L 142.608125 112.37434 
L 142.608125 113.819774 
L 143.62267 113.819774 
L 143.62267 117.851774 
L 144.637216 117.851774 
L 144.637216 121.807698 
L 145.651761 121.807698 
L 145.651761 113.135094 
L 146.666307 113.135094 
L 146.666307 109.939925 
L 147.680852 109.939925 
L 147.680852 116.862792 
L 148.695398 116.862792 
L 148.695398 121.27517 
L 149.709943 121.27517 
L 149.709943 124.166038 
L 150.724489 124.166038 
L 150.724489 130.632453 
L 151.739034 130.632453 
L 151.739034 128.578415 
L 152.75358 128.578415 
L 152.75358 124.318189 
L 153.768125 124.318189 
L 153.768125 127.361208 
L 154.78267 127.361208 
L 154.78267 131.241057 
L 155.797216 131.241057 
L 155.797216 128.198038 
L 156.811761 128.198038 
L 156.811761 123.633509 
L 157.826307 123.633509 
L 157.826307 134.740528 
L 158.840852 134.740528 
L 158.840852 136.946717 
L 159.855398 136.946717 
L 159.855398 126.296151 
L 160.869943 126.296151 
L 160.869943 134.588377 
L 161.884489 134.588377 
L 161.884489 148.66234 
L 162.899034 148.66234 
L 162.899034 152.313962 
L 163.91358 152.313962 
L 163.91358 145.238943 
L 164.928125 145.238943 
L 164.928125 144.478189 
L 165.94267 144.478189 
L 165.94267 151.020679 
L 166.957216 151.020679 
L 166.957216 149.955623 
L 167.971761 149.955623 
L 167.971761 160.454038 
L 168.986307 160.454038 
L 168.986307 165.018566 
L 170.000852 165.018566 
L 170.000852 163.344906 
L 171.015398 163.344906 
L 171.015398 150.944604 
L 172.029943 150.944604 
L 172.029943 149.194868 
L 173.044489 149.194868 
L 173.044489 141.663396 
L 174.059034 141.663396 
L 174.059034 139.07683 
L 175.07358 139.07683 
L 175.07358 132.306113 
L 176.088125 132.306113 
L 176.088125 129.795623 
L 177.10267 129.795623 
L 177.10267 138.468226 
L 178.117216 138.468226 
L 178.117216 146.608302 
L 179.131761 146.608302 
L 179.131761 153.607245 
L 180.146307 153.607245 
L 180.146307 151.629283 
L 181.160852 151.629283 
L 181.160852 151.020679 
L 182.175398 151.020679 
L 182.175398 152.390038 
L 183.189943 152.390038 
L 183.189943 156.422038 
L 184.204489 156.422038 
L 184.204489 157.030642 
L 185.219034 157.030642 
L 185.219034 156.269887 
L 186.23358 156.269887 
L 186.23358 151.705358 
L 187.248125 151.705358 
L 187.248125 159.23683 
L 188.26267 159.23683 
L 188.26267 160.682264 
L 189.277216 160.682264 
L 189.277216 158.476075 
L 190.291761 158.476075 
L 190.291761 158.628226 
L 191.306307 158.628226 
L 191.306307 163.573132 
L 192.320852 163.573132 
L 192.320852 163.192755 
L 193.335398 163.192755 
L 193.335398 160.606189 
L 194.349943 160.606189 
L 194.349943 165.018566 
L 195.364489 165.018566 
L 195.364489 166.844377 
L 196.379034 166.844377 
L 196.379034 168.365887 
L 197.39358 168.365887 
L 197.39358 173.843321 
L 198.408125 173.843321 
L 198.408125 173.158642 
L 199.42267 173.158642 
L 199.42267 172.930415 
L 200.437216 172.930415 
L 200.437216 171.408906 
L 201.451761 171.408906 
L 201.451761 180.690113 
L 202.466307 180.690113 
L 202.466307 181.298717 
L 203.480852 181.298717 
L 203.480852 180.23366 
L 204.495398 180.23366 
L 204.495398 181.831245 
L 205.509943 181.831245 
L 205.509943 189.514868 
L 206.524489 189.514868 
L 206.524489 192.862189 
L 207.539034 192.862189 
L 207.539034 188.601962 
L 208.55358 188.601962 
L 208.55358 189.81917 
L 209.568125 189.81917 
L 209.568125 193.318642 
L 210.58267 193.318642 
L 210.58267 196.057358 
L 211.597216 196.057358 
L 211.597216 193.775094 
L 212.611761 193.775094 
L 212.611761 198.339623 
L 214.640852 198.263547 
L 214.640852 194.840151 
L 215.655398 194.840151 
L 215.655398 191.721057 
L 216.669943 191.721057 
L 216.669943 196.133434 
L 217.684489 196.133434 
L 217.684489 186.928302 
L 218.699034 186.928302 
L 218.699034 188.069434 
L 219.71358 188.069434 
L 219.71358 184.26566 
L 220.728125 184.26566 
L 220.728125 183.352755 
L 221.74267 183.352755 
L 221.74267 185.254642 
L 223.771761 185.330717 
L 223.771761 192.557887 
L 224.786307 192.557887 
L 224.786307 190.579925 
L 225.800852 190.579925 
L 225.800852 194.383698 
L 226.815398 194.383698 
L 226.815398 192.786113 
L 227.829943 192.786113 
L 227.829943 196.818113 
L 228.844489 196.818113 
L 228.844489 200.089358 
L 229.859034 200.089358 
L 229.859034 199.632906 
L 230.87358 199.632906 
L 230.87358 200.013283 
L 231.888125 200.013283 
L 231.888125 197.502792 
L 232.90267 197.502792 
L 232.90267 199.785057 
L 233.917216 199.785057 
L 233.917216 200.317585 
L 234.931761 200.317585 
L 234.931761 201.458717 
L 235.946307 201.458717 
L 235.946307 199.937208 
L 236.960852 199.937208 
L 236.960852 203.360604 
L 237.975398 203.360604 
L 237.975398 204.806038 
L 238.989943 204.806038 
L 238.989943 205.718943 
L 240.004489 205.718943 
L 240.004489 205.262491 
L 241.019034 205.262491 
L 241.019034 205.414642 
L 242.03358 205.414642 
L 242.03358 207.696906 
L 243.048125 207.696906 
L 243.048125 204.958189 
L 244.06267 204.958189 
L 244.06267 205.94717 
L 245.077216 205.94717 
L 245.077216 208.153358 
L 246.091761 208.153358 
L 246.091761 208.001208 
L 247.106307 208.001208 
L 247.106307 211.65283 
L 248.120852 211.65283 
L 248.120852 213.17434 
L 250.149943 213.098264 
L 250.149943 210.816 
L 251.164489 210.816 
L 251.164489 211.65283 
L 252.179034 211.65283 
L 252.179034 210.511698 
L 253.19358 210.511698 
L 253.19358 214.163321 
L 254.208125 214.163321 
L 254.208125 214.391547 
L 255.22267 214.391547 
L 255.22267 214.163321 
L 256.237216 214.163321 
L 256.237216 213.402566 
L 257.251761 213.402566 
L 257.251761 212.793962 
L 258.266307 212.793962 
L 258.266307 212.033208 
L 259.280852 212.033208 
L 259.280852 209.97917 
L 261.309943 210.055245 
L 261.309943 207.012226 
L 262.324489 207.012226 
L 262.324489 204.806038 
L 263.339034 204.806038 
L 263.339034 201.839094 
L 264.35358 201.839094 
L 264.35358 206.023245 
L 265.368125 206.023245 
L 265.368125 204.501736 
L 266.38267 204.501736 
L 266.38267 207.316528 
L 267.397216 207.316528 
L 267.397216 205.034264 
L 268.411761 205.034264 
L 268.411761 208.153358 
L 269.426307 208.153358 
L 269.426307 208.381585 
L 270.440852 208.381585 
L 270.440852 208.533736 
L 271.455398 208.533736 
L 271.455398 209.370566 
L 272.469943 209.370566 
L 272.469943 208.914113 
L 273.484489 208.914113 
L 273.484489 212.033208 
L 274.499034 212.033208 
L 274.499034 209.903094 
L 275.51358 209.903094 
L 275.51358 209.066264 
L 276.528125 209.066264 
L 276.528125 211.881057 
L 277.54267 211.881057 
L 277.54267 211.576755 
L 278.557216 211.576755 
L 278.557216 211.804981 
L 279.571761 211.804981 
L 279.571761 213.326491 
L 280.586307 213.326491 
L 280.586307 211.881057 
L 281.600852 211.881057 
L 281.600852 213.022189 
L 282.615398 213.022189 
L 282.615398 213.859019 
L 283.629943 213.859019 
L 283.629943 214.01117 
L 284.644489 214.01117 
L 284.644489 214.239396 
L 285.659034 214.239396 
L 285.659034 213.402566 
L 286.67358 213.402566 
L 286.67358 214.924075 
L 287.688125 214.924075 
L 287.688125 213.706868 
L 288.70267 213.706868 
L 288.70267 214.695849 
L 289.717216 214.695849 
L 289.717216 216.217358 
L 290.731761 216.217358 
L 290.731761 215.456604 
L 291.746307 215.456604 
L 291.746307 215.836981 
L 292.760852 215.836981 
L 292.760852 216.825962 
L 293.775398 216.825962 
L 293.775398 215.989132 
L 294.789943 215.989132 
L 294.789943 215.836981 
L 295.804489 215.836981 
L 295.804489 217.054189 
L 297.83358 217.130264 
L 297.83358 216.749887 
L 298.848125 216.749887 
L 298.848125 215.68483 
L 299.86267 215.68483 
L 299.86267 214.924075 
L 300.877216 214.924075 
L 300.877216 212.641811 
L 301.891761 212.641811 
L 301.891761 212.793962 
L 302.906307 212.793962 
L 302.906307 211.576755 
L 303.920852 211.576755 
L 303.920852 211.120302 
L 304.935398 211.120302 
L 304.935398 211.424604 
L 305.949943 211.424604 
L 305.949943 207.62083 
L 306.964489 207.62083 
L 306.964489 208.45766 
L 307.979034 208.45766 
L 307.979034 205.338566 
L 308.99358 205.338566 
L 308.99358 202.371623 
L 310.008125 202.371623 
L 310.008125 199.708981 
L 311.02267 199.708981 
L 311.02267 200.469736 
L 312.037216 200.469736 
L 312.037216 203.436679 
L 313.051761 203.436679 
L 313.051761 203.893132 
L 314.066307 203.893132 
L 314.066307 203.664906 
L 315.080852 203.664906 
L 315.080852 206.631849 
L 316.095398 206.631849 
L 316.095398 203.208453 
L 317.109943 203.208453 
L 317.109943 201.991245 
L 318.124489 201.991245 
L 318.124489 200.850113 
L 319.139034 200.850113 
L 319.139034 202.828075 
L 320.15358 202.828075 
L 320.15358 203.969208 
L 321.168125 203.969208 
L 321.168125 207.696906 
L 322.18267 207.696906 
L 322.18267 206.555774 
L 324.211761 206.479698 
L 324.211761 203.740981 
L 325.226307 203.740981 
L 325.226307 204.501736 
L 326.240852 204.501736 
L 326.240852 205.338566 
L 327.255398 205.338566 
L 327.255398 204.577811 
L 328.269943 204.577811 
L 328.269943 208.077283 
L 329.284489 208.077283 
L 329.284489 210.587774 
L 330.299034 210.587774 
L 330.299034 210.207396 
L 331.31358 210.207396 
L 331.31358 208.609811 
L 332.328125 208.609811 
L 332.328125 207.544755 
L 333.34267 207.544755 
L 333.34267 207.925132 
L 334.357216 207.925132 
L 334.357216 209.14234 
L 335.371761 209.14234 
L 335.371761 210.739925 
L 336.386307 210.739925 
L 336.386307 209.750943 
L 337.400852 209.750943 
L 337.400852 209.598792 
L 338.415398 209.598792 
L 338.415398 210.207396 
L 339.429943 210.207396 
L 339.429943 211.576755 
L 340.444489 211.576755 
L 340.444489 209.827019 
L 341.459034 209.827019 
L 341.459034 213.098264 
L 342.47358 213.098264 
L 342.47358 210.663849 
L 343.488125 210.663849 
L 343.488125 212.793962 
L 344.50267 212.793962 
L 344.50267 212.033208 
L 345.517216 212.033208 
L 345.517216 214.924075 
L 346.531761 214.924075 
L 346.531761 214.543698 
L 348.560852 214.543698 
L 348.560852 215.304453 
L 349.575398 215.304453 
L 349.575398 216.597736 
L 350.589943 216.597736 
L 350.589943 217.20634 
L 351.604489 217.20634 
L 351.604489 218.651774 
L 352.619034 218.651774 
L 352.619034 218.88 
L 372.909943 218.88 
L 372.909943 218.88 
" clip-path="url(#p3045ada083)" style="fill: none; stroke: #1f77b4; stroke-width: 1.5; stroke-linecap: square"/>
   </g>
   <g id="line2d_17">
    <path d="M 68.546307 210.283472 
L 69.560852 210.283472 
L 69.560852 184.189585 
L 70.575398 184.189585 
L 70.575398 154.824453 
L 71.589943 154.824453 
L 71.589943 122.720604 
L 72.604489 122.720604 
L 72.604489 105.375396 
L 73.619034 105.375396 
L 73.619034 94.953057 
L 74.63358 94.953057 
L 74.63358 89.779925 
L 75.648125 89.779925 
L 75.648125 88.790943 
L 76.66267 88.790943 
L 76.66267 85.595774 
L 77.677216 85.595774 
L 77.677216 77.912151 
L 78.691761 77.912151 
L 78.691761 71.978264 
L 79.706307 71.978264 
L 79.706307 69.467774 
L 80.720852 69.467774 
L 80.720852 69.011321 
L 81.735398 69.011321 
L 81.735398 64.218566 
L 82.749943 64.218566 
L 82.749943 48.014491 
L 83.764489 48.014491 
L 83.764489 46.721208 
L 84.779034 46.721208 
L 84.779034 40.026566 
L 85.79358 40.026566 
L 85.79358 39.265811 
L 86.808125 39.265811 
L 86.808125 30.897509 
L 87.82267 30.897509 
L 87.82267 28.691321 
L 88.837216 28.691321 
L 88.837216 24.583245 
L 89.851761 24.583245 
L 89.851761 21.692377 
L 90.866307 21.692377 
L 90.866307 20.855547 
L 91.880852 20.855547 
L 91.880852 26.789434 
L 92.895398 26.789434 
L 92.895398 28.463094 
L 93.909943 28.463094 
L 93.909943 22.757434 
L 94.924489 22.757434 
L 94.924489 31.04966 
L 95.939034 31.04966 
L 95.939034 28.158792 
L 96.95358 28.158792 
L 96.95358 32.114717 
L 97.968125 32.114717 
L 97.968125 47.025509 
L 98.98267 47.025509 
L 98.98267 35.385962 
L 99.997216 35.385962 
L 99.997216 36.451019 
L 101.011761 36.451019 
L 101.011761 41.167698 
L 102.026307 41.167698 
L 102.026307 50.753208 
L 103.040852 50.753208 
L 103.040852 59.501887 
L 104.055398 59.501887 
L 104.055398 67.870189 
L 105.069943 67.870189 
L 105.069943 79.205434 
L 106.084489 79.205434 
L 106.084489 90.768906 
L 107.099034 90.768906 
L 107.099034 99.441509 
L 108.11358 99.441509 
L 108.11358 111.157132 
L 109.128125 111.157132 
L 109.128125 113.21117 
L 110.14267 113.21117 
L 110.14267 121.579472 
L 111.157216 121.579472 
L 111.157216 130.176 
L 112.171761 130.176 
L 112.171761 133.599396 
L 113.186307 133.599396 
L 113.186307 142.500226 
L 114.200852 142.500226 
L 114.200852 152.313962 
L 115.215398 152.313962 
L 115.215398 162.432 
L 116.229943 162.432 
L 116.229943 165.475019 
L 117.244489 165.475019 
L 117.244489 172.321811 
L 118.259034 172.321811 
L 118.259034 179.853283 
L 119.27358 179.853283 
L 119.27358 181.070491 
L 120.288125 181.070491 
L 120.288125 172.778264 
L 121.30267 172.778264 
L 121.30267 160.07366 
L 122.317216 160.07366 
L 122.317216 140.674415 
L 123.331761 140.674415 
L 123.331761 131.84966 
L 124.346307 131.84966 
L 124.346307 120.894792 
L 125.360852 120.894792 
L 125.360852 94.116226 
L 126.375398 94.116226 
L 126.375398 86.280453 
L 127.389943 86.280453 
L 127.389943 83.237434 
L 128.404489 83.237434 
L 128.404489 86.736906 
L 129.419034 86.736906 
L 129.419034 89.703849 
L 130.43358 89.703849 
L 130.43358 90.388528 
L 131.448125 90.388528 
L 131.448125 97.767849 
L 132.46267 97.767849 
L 132.46267 98.300377 
L 133.477216 98.300377 
L 133.477216 101.343396 
L 134.491761 101.343396 
L 134.491761 103.245283 
L 135.506307 103.245283 
L 135.506307 104.234264 
L 136.520852 104.234264 
L 136.520852 101.11517 
L 137.535398 101.11517 
L 137.535398 108.418415 
L 138.549943 108.418415 
L 138.549943 103.777811 
L 139.564489 103.777811 
L 139.564489 107.201208 
L 140.579034 107.201208 
L 140.579034 111.841811 
L 141.59358 111.841811 
L 141.59358 110.85283 
L 142.608125 110.85283 
L 142.608125 107.277283 
L 143.62267 107.277283 
L 143.62267 114.048 
L 144.637216 114.048 
L 144.637216 113.439396 
L 145.651761 113.439396 
L 145.651761 122.872755 
L 146.666307 122.872755 
L 146.666307 118.612528 
L 147.680852 118.612528 
L 147.680852 115.113057 
L 148.695398 115.113057 
L 148.695398 122.94883 
L 149.709943 122.94883 
L 149.709943 120.666566 
L 150.724489 120.666566 
L 150.724489 125.078943 
L 151.739034 125.078943 
L 151.739034 125.30717 
L 152.75358 125.30717 
L 152.75358 133.066868 
L 153.768125 133.066868 
L 153.768125 128.045887 
L 154.78267 128.045887 
L 154.78267 130.556377 
L 155.797216 130.556377 
L 155.797216 134.436226 
L 156.811761 134.436226 
L 156.811761 129.33917 
L 157.826307 129.33917 
L 157.826307 132.914717 
L 158.840852 132.914717 
L 158.840852 133.675472 
L 159.855398 133.675472 
L 159.855398 137.859623 
L 160.869943 137.859623 
L 160.869943 140.141887 
L 161.884489 140.141887 
L 161.884489 141.739472 
L 162.899034 141.739472 
L 162.899034 143.94566 
L 163.91358 143.94566 
L 163.91358 141.891623 
L 164.928125 141.891623 
L 164.928125 145.695396 
L 165.94267 145.695396 
L 165.94267 149.423094 
L 166.957216 149.423094 
L 166.957216 156.574189 
L 167.971761 156.574189 
L 167.971761 159.084679 
L 168.986307 159.084679 
L 168.986307 154.596226 
L 170.000852 154.596226 
L 170.000852 153.607245 
L 171.015398 153.607245 
L 171.015398 148.890566 
L 172.029943 148.890566 
L 172.029943 143.869585 
L 173.044489 143.869585 
L 173.044489 141.130868 
L 174.059034 141.130868 
L 174.059034 139.457208 
L 175.07358 139.457208 
L 175.07358 141.587321 
L 176.088125 141.587321 
L 176.088125 137.555321 
L 177.10267 137.555321 
L 177.10267 136.338113 
L 178.117216 136.338113 
L 178.117216 143.641358 
L 179.131761 143.641358 
L 179.131761 147.064755 
L 180.146307 147.064755 
L 180.146307 148.738415 
L 181.160852 148.738415 
L 181.160852 152.998642 
L 182.175398 152.998642 
L 182.175398 154.976604 
L 183.189943 154.976604 
L 183.189943 155.889509 
L 184.204489 155.889509 
L 184.204489 152.846491 
L 185.219034 152.846491 
L 185.219034 156.193811 
L 186.23358 156.193811 
L 186.23358 154.596226 
L 187.248125 154.596226 
L 187.248125 153.150792 
L 188.26267 153.150792 
L 188.26267 159.693283 
L 189.277216 159.693283 
L 189.277216 161.443019 
L 190.291761 161.443019 
L 190.291761 161.138717 
L 191.306307 161.138717 
L 191.306307 162.051623 
L 192.320852 162.051623 
L 192.320852 162.888453 
L 193.335398 162.888453 
L 193.335398 162.203774 
L 194.349943 162.203774 
L 194.349943 167.376906 
L 195.364489 167.376906 
L 195.364489 168.974491 
L 196.379034 168.974491 
L 196.379034 170.267774 
L 197.39358 170.267774 
L 197.39358 170.419925 
L 198.408125 170.419925 
L 198.408125 176.582038 
L 199.42267 176.582038 
L 199.42267 176.734189 
L 200.437216 176.734189 
L 200.437216 178.788226 
L 201.451761 178.788226 
L 201.451761 180.385811 
L 202.466307 180.385811 
L 202.466307 178.027472 
L 203.480852 178.027472 
L 203.480852 181.070491 
L 204.495398 181.070491 
L 204.495398 184.646038 
L 205.509943 184.646038 
L 205.509943 184.95034 
L 206.524489 184.95034 
L 206.524489 189.134491 
L 207.539034 189.134491 
L 207.539034 189.362717 
L 208.55358 189.362717 
L 208.55358 189.210566 
L 209.568125 189.210566 
L 209.568125 192.32966 
L 210.58267 192.32966 
L 210.58267 191.797132 
L 211.597216 191.797132 
L 211.597216 194.231547 
L 212.611761 194.231547 
L 212.611761 196.742038 
L 213.626307 196.742038 
L 213.626307 196.209509 
L 214.640852 196.209509 
L 214.640852 194.688 
L 215.655398 194.688 
L 215.655398 192.938264 
L 216.669943 192.938264 
L 216.669943 190.123472 
L 218.699034 190.047396 
L 218.699034 187.308679 
L 219.71358 187.308679 
L 219.71358 184.874264 
L 220.728125 184.874264 
L 220.728125 188.98234 
L 221.74267 188.98234 
L 221.74267 185.635019 
L 222.757216 185.635019 
L 222.757216 186.471849 
L 223.771761 186.471849 
L 223.771761 189.286642 
L 224.786307 189.286642 
L 224.786307 188.754113 
L 225.800852 188.754113 
L 225.800852 194.688 
L 226.815398 194.688 
L 226.815398 193.01434 
L 227.829943 193.01434 
L 227.829943 198.491774 
L 228.844489 198.491774 
L 228.844489 195.372679 
L 229.859034 195.372679 
L 229.859034 198.035321 
L 230.87358 198.035321 
L 230.87358 198.339623 
L 231.888125 198.339623 
L 231.888125 198.491774 
L 232.90267 198.491774 
L 232.90267 200.317585 
L 233.917216 200.317585 
L 233.917216 200.165434 
L 234.931761 200.165434 
L 234.931761 203.512755 
L 235.946307 203.512755 
L 235.946307 203.740981 
L 236.960852 203.740981 
L 236.960852 202.752 
L 237.975398 202.752 
L 237.975398 203.512755 
L 238.989943 203.512755 
L 238.989943 206.784 
L 240.004489 206.784 
L 240.004489 205.11034 
L 241.019034 205.11034 
L 241.019034 205.94717 
L 242.03358 205.94717 
L 242.03358 207.392604 
L 243.048125 207.392604 
L 243.048125 206.555774 
L 244.06267 206.555774 
L 244.06267 208.229434 
L 245.077216 208.229434 
L 245.077216 207.468679 
L 246.091761 207.468679 
L 246.091761 209.14234 
L 247.106307 209.14234 
L 247.106307 208.990189 
L 248.120852 208.990189 
L 248.120852 210.283472 
L 249.135398 210.283472 
L 249.135398 211.120302 
L 250.149943 211.120302 
L 250.149943 211.881057 
L 251.164489 211.881057 
L 251.164489 210.587774 
L 252.179034 210.587774 
L 252.179034 210.968151 
L 253.19358 210.968151 
L 253.19358 213.630792 
L 254.208125 213.630792 
L 254.208125 214.239396 
L 255.22267 214.239396 
L 255.22267 213.630792 
L 256.237216 213.630792 
L 256.237216 210.207396 
L 257.251761 210.207396 
L 257.251761 211.881057 
L 258.266307 211.881057 
L 258.266307 212.033208 
L 259.280852 212.033208 
L 259.280852 208.229434 
L 260.295398 208.229434 
L 260.295398 209.294491 
L 261.309943 209.294491 
L 261.309943 206.784 
L 262.324489 206.784 
L 262.324489 207.392604 
L 263.339034 207.392604 
L 263.339034 203.740981 
L 264.35358 203.740981 
L 264.35358 204.577811 
L 265.368125 204.577811 
L 265.368125 207.088302 
L 266.38267 207.088302 
L 266.38267 205.718943 
L 267.397216 205.718943 
L 267.397216 205.566792 
L 268.411761 205.566792 
L 268.411761 208.077283 
L 269.426307 208.077283 
L 269.426307 207.62083 
L 270.440852 207.62083 
L 270.440852 208.45766 
L 271.455398 208.45766 
L 271.455398 210.435623 
L 272.469943 210.435623 
L 272.469943 209.750943 
L 273.484489 209.750943 
L 273.484489 210.283472 
L 274.499034 210.283472 
L 274.499034 209.674868 
L 275.51358 209.674868 
L 275.51358 211.044226 
L 276.528125 211.044226 
L 276.528125 210.435623 
L 277.54267 210.435623 
L 277.54267 212.337509 
L 278.557216 212.337509 
L 278.557216 211.728906 
L 279.571761 211.728906 
L 279.571761 212.793962 
L 280.586307 212.793962 
L 280.586307 213.326491 
L 281.600852 213.326491 
L 281.600852 212.565736 
L 282.615398 212.565736 
L 282.615398 213.402566 
L 283.629943 213.402566 
L 283.629943 213.630792 
L 284.644489 213.630792 
L 284.644489 213.859019 
L 285.659034 213.859019 
L 285.659034 214.087245 
L 288.70267 214.163321 
L 288.70267 215.380528 
L 289.717216 215.380528 
L 289.717216 215.532679 
L 290.731761 215.532679 
L 290.731761 215.304453 
L 291.746307 215.304453 
L 291.746307 215.913057 
L 292.760852 215.913057 
L 292.760852 216.293434 
L 294.789943 216.369509 
L 294.789943 215.608755 
L 295.804489 215.608755 
L 295.804489 216.749887 
L 297.83358 216.825962 
L 297.83358 215.989132 
L 298.848125 215.989132 
L 298.848125 215.304453 
L 299.86267 215.304453 
L 299.86267 212.185358 
L 300.877216 212.185358 
L 300.877216 212.717887 
L 301.891761 212.717887 
L 301.891761 212.109283 
L 302.906307 212.109283 
L 302.906307 211.500679 
L 303.920852 211.500679 
L 303.920852 210.055245 
L 304.935398 210.055245 
L 304.935398 208.001208 
L 305.949943 208.001208 
L 305.949943 206.936151 
L 306.964489 206.936151 
L 306.964489 207.392604 
L 307.979034 207.392604 
L 307.979034 207.164377 
L 308.99358 207.164377 
L 308.99358 204.045283 
L 310.008125 204.045283 
L 310.008125 204.197434 
L 311.02267 204.197434 
L 311.02267 202.752 
L 312.037216 202.752 
L 312.037216 202.904151 
L 313.051761 202.904151 
L 313.051761 203.740981 
L 315.080852 203.664906 
L 315.080852 203.132377 
L 316.095398 203.132377 
L 316.095398 203.58883 
L 317.109943 203.58883 
L 317.109943 204.121358 
L 318.124489 204.121358 
L 318.124489 204.958189 
L 319.139034 204.958189 
L 319.139034 204.577811 
L 320.15358 204.577811 
L 320.15358 205.186415 
L 321.168125 205.186415 
L 321.168125 203.817057 
L 322.18267 203.817057 
L 322.18267 204.42566 
L 323.197216 204.42566 
L 323.197216 207.164377 
L 324.211761 207.164377 
L 324.211761 204.121358 
L 325.226307 204.121358 
L 325.226307 206.175396 
L 327.255398 206.099321 
L 327.255398 206.403623 
L 328.269943 206.403623 
L 328.269943 207.468679 
L 329.284489 207.468679 
L 329.284489 208.153358 
L 330.299034 208.153358 
L 330.299034 207.012226 
L 331.31358 207.012226 
L 331.31358 208.761962 
L 332.328125 208.761962 
L 332.328125 209.446642 
L 333.34267 209.446642 
L 333.34267 209.827019 
L 334.357216 209.827019 
L 334.357216 209.294491 
L 335.371761 209.294491 
L 335.371761 209.446642 
L 336.386307 209.446642 
L 336.386307 210.283472 
L 338.415398 210.283472 
L 338.415398 209.903094 
L 339.429943 209.903094 
L 339.429943 211.272453 
L 340.444489 211.272453 
L 340.444489 211.957132 
L 341.459034 211.957132 
L 341.459034 209.97917 
L 342.47358 209.97917 
L 342.47358 211.881057 
L 343.488125 211.881057 
L 343.488125 211.424604 
L 344.50267 211.424604 
L 344.50267 212.641811 
L 345.517216 212.641811 
L 345.517216 213.782943 
L 346.531761 213.782943 
L 346.531761 214.239396 
L 347.546307 214.239396 
L 347.546307 214.619774 
L 348.560852 214.619774 
L 348.560852 216.141283 
L 349.575398 216.141283 
L 349.575398 217.358491 
L 350.589943 217.358491 
L 350.589943 216.825962 
L 351.604489 216.825962 
L 351.604489 217.814943 
L 352.619034 217.814943 
L 352.619034 218.119245 
L 353.63358 218.119245 
L 353.63358 218.803925 
L 372.909943 218.88 
L 372.909943 218.88 
" clip-path="url(#p3045ada083)" style="fill: none; stroke: #ff7f0e; stroke-width: 1.5; stroke-linecap: square"/>
   </g>
   <g id="patch_3">
    <path d="M 53.328125 228.96 
L 53.328125 7.2 
" style="fill: none; stroke: #000000; stroke-width: 0.8; stroke-linejoin: miter; stroke-linecap: square"/>
   </g>
   <g id="patch_4">
    <path d="M 388.128125 228.96 
L 388.128125 7.2 
" style="fill: none; stroke: #000000; stroke-width: 0.8; stroke-linejoin: miter; stroke-linecap: square"/>
   </g>
   <g id="patch_5">
    <path d="M 53.328125 228.96 
L 388.128125 228.96 
" style="fill: none; stroke: #000000; stroke-width: 0.8; stroke-linejoin: miter; stroke-linecap: square"/>
   </g>
   <g id="patch_6">
    <path d="M 53.328125 7.2 
L 388.128125 7.2 
" style="fill: none; stroke: #000000; stroke-width: 0.8; stroke-linejoin: miter; stroke-linecap: square"/>
   </g>
   <g id="legend_1">
    <g id="patch_7">
     <path d="M 284.125 44.834375 
L 381.128125 44.834375 
Q 383.128125 44.834375 383.128125 42.834375 
L 383.128125 14.2 
Q 383.128125 12.2 381.128125 12.2 
L 284.125 12.2 
Q 282.125 12.2 282.125 14.2 
L 282.125 42.834375 
Q 282.125 44.834375 284.125 44.834375 
z
" style="fill: #ffffff; opacity: 0.8; stroke: #cccccc; stroke-linejoin: miter"/>
    </g>
    <g id="line2d_18">
     <path d="M 286.125 20.298437 
L 286.125 20.298437 
L 296.125 20.298437 
L 296.125 20.298437 
L 306.125 20.298437 
" style="fill: none; stroke: #1f77b4; stroke-width: 1.5; stroke-linecap: square"/>
    </g>
    <g id="text_18">
     <!-- wfm -->
     <g transform="translate(314.125 23.798437) scale(0.1 -0.1)">
      <defs>
       <path id="DejaVuSans-66" d="M 2375 4863 
L 2375 4384 
L 1825 4384 
Q 1516 4384 1395 4259 
Q 1275 4134 1275 3809 
L 1275 3500 
L 2222 3500 
L 2222 3053 
L 1275 3053 
L 1275 0 
L 697 0 
L 697 3053 
L 147 3053 
L 147 3500 
L 697 3500 
L 697 3744 
Q 697 4328 969 4595 
Q 1241 4863 1831 4863 
L 2375 4863 
z
" transform="scale(0.015625)"/>
       <path id="DejaVuSans-6d" d="M 3328 2828 
Q 3544 3216 3844 3400 
Q 4144 3584 4550 3584 
Q 5097 3584 5394 3201 
Q 5691 2819 5691 2113 
L 5691 0 
L 5113 0 
L 5113 2094 
Q 5113 2597 4934 2840 
Q 4756 3084 4391 3084 
Q 3944 3084 3684 2787 
Q 3425 2491 3425 1978 
L 3425 0 
L 2847 0 
L 2847 2094 
Q 2847 2600 2669 2842 
Q 2491 3084 2119 3084 
Q 1678 3084 1418 2786 
Q 1159 2488 1159 1978 
L 1159 0 
L 581 0 
L 581 3500 
L 1159 3500 
L 1159 2956 
Q 1356 3278 1631 3431 
Q 1906 3584 2284 3584 
Q 2666 3584 2933 3390 
Q 3200 3197 3328 2828 
z
" transform="scale(0.015625)"/>
      </defs>
      <use xlink:href="#DejaVuSans-77"/>
      <use xlink:href="#DejaVuSans-66" transform="translate(81.787109 0)"/>
      <use xlink:href="#DejaVuSans-6d" transform="translate(116.992188 0)"/>
     </g>
    </g>
    <g id="line2d_19">
     <path d="M 286.125 34.976562 
L 286.125 34.976562 
L 296.125 34.976562 
L 296.125 34.976562 
L 306.125 34.976562 
" style="fill: none; stroke: #ff7f0e; stroke-width: 1.5; stroke-linecap: square"/>
    </g>
    <g id="text_19">
     <!-- ground_truth -->
     <g transform="translate(314.125 38.476562) scale(0.1 -0.1)">
      <defs>
       <path id="DejaVuSans-72" d="M 2631 2963 
Q 2534 3019 2420 3045 
Q 2306 3072 2169 3072 
Q 1681 3072 1420 2755 
Q 1159 2438 1159 1844 
L 1159 0 
L 581 0 
L 581 3500 
L 1159 3500 
L 1159 2956 
Q 1341 3275 1631 3429 
Q 1922 3584 2338 3584 
Q 2397 3584 2469 3576 
Q 2541 3569 2628 3553 
L 2631 2963 
z
" transform="scale(0.015625)"/>
       <path id="DejaVuSans-64" d="M 2906 2969 
L 2906 4863 
L 3481 4863 
L 3481 0 
L 2906 0 
L 2906 525 
Q 2725 213 2448 61 
Q 2172 -91 1784 -91 
Q 1150 -91 751 415 
Q 353 922 353 1747 
Q 353 2572 751 3078 
Q 1150 3584 1784 3584 
Q 2172 3584 2448 3432 
Q 2725 3281 2906 2969 
z
M 947 1747 
Q 947 1113 1208 752 
Q 1469 391 1925 391 
Q 2381 391 2643 752 
Q 2906 1113 2906 1747 
Q 2906 2381 2643 2742 
Q 2381 3103 1925 3103 
Q 1469 3103 1208 2742 
Q 947 2381 947 1747 
z
" transform="scale(0.015625)"/>
       <path id="DejaVuSans-5f" d="M 3263 -1063 
L 3263 -1509 
L -63 -1509 
L -63 -1063 
L 3263 -1063 
z
" transform="scale(0.015625)"/>
      </defs>
      <use xlink:href="#DejaVuSans-67"/>
      <use xlink:href="#DejaVuSans-72" transform="translate(63.476562 0)"/>
      <use xlink:href="#DejaVuSans-6f" transform="translate(102.339844 0)"/>
      <use xlink:href="#DejaVuSans-75" transform="translate(163.521484 0)"/>
      <use xlink:href="#DejaVuSans-6e" transform="translate(226.900391 0)"/>
      <use xlink:href="#DejaVuSans-64" transform="translate(290.279297 0)"/>
      <use xlink:href="#DejaVuSans-5f" transform="translate(353.755859 0)"/>
      <use xlink:href="#DejaVuSans-74" transform="translate(403.755859 0)"/>
      <use xlink:href="#DejaVuSans-72" transform="translate(442.964844 0)"/>
      <use xlink:href="#DejaVuSans-75" transform="translate(484.078125 0)"/>
      <use xlink:href="#DejaVuSans-74" transform="translate(547.457031 0)"/>
      <use xlink:href="#DejaVuSans-68" transform="translate(586.666016 0)"/>
     </g>
    </g>
   </g>
  </g>
 </g>
 <defs>
  <clipPath id="p3045ada083">
   <rect x="53.328125" y="7.2" width="334.8" height="221.76"/>
  </clipPath>
 </defs>
</svg>
