<?xml version="1.0" encoding="utf-8" standalone="no"?>
<!DOCTYPE svg PUBLIC "-//W3C//DTD SVG 1.1//EN"
  "http://www.w3.org/Graphics/SVG/1.1/DTD/svg11.dtd">
<svg xmlns:xlink="http://www.w3.org/1999/xlink" width="872.39952pt" height="296.39952pt" viewBox="0 0 872.39952 296.39952" xmlns="http://www.w3.org/2000/svg" version="1.1">
 <metadata>
  <rdf:RDF xmlns:dc="http://purl.org/dc/elements/1.1/" xmlns:cc="http://creativecommons.org/ns#" xmlns:rdf="http://www.w3.org/1999/02/22-rdf-syntax-ns#">
   <cc:Work>
    <dc:type rdf:resource="http://purl.org/dc/dcmitype/StillImage"/>
    <dc:date>2025-01-30T11:57:48.666583</dc:date>
    <dc:format>image/svg+xml</dc:format>
    <dc:creator>
     <cc:Agent>
      <dc:title>Matplotlib v3.10.0, https://matplotlib.org/</dc:title>
     </cc:Agent>
    </dc:creator>
   </cc:Work>
  </rdf:RDF>
 </metadata>
 <defs>
  <style type="text/css">*{stroke-linejoin: round; stroke-linecap: butt}</style>
 </defs>
 <g id="figure_1">
  <g id="patch_1">
   <path d="M 0 296.39952 
L 872.39952 296.39952 
L 872.39952 0 
L 0 0 
z
" style="fill: #ffffff"/>
  </g>
  <g id="axes_1">
   <g id="patch_2">
    <path d="M 53.328125 257.158895 
L 431.87976 257.158895 
L 431.87976 7.2 
L 53.328125 7.2 
z
" style="fill: #ffffff"/>
   </g>
   <g id="matplotlib.axis_1">
    <g id="xtick_1">
     <g id="line2d_1">
      <defs>
       <path id="m9855f1f73a" d="M 0 0 
L 0 3.5 
" style="stroke: #000000; stroke-width: 0.8"/>
      </defs>
      <g>
       <use xlink:href="#m9855f1f73a" x="69.64317" y="257.158895" style="stroke: #000000; stroke-width: 0.8"/>
      </g>
     </g>
     <g id="text_1">
      <!-- 0 -->
      <g transform="translate(66.46192 271.757332) scale(0.1 -0.1)">
       <defs>
        <path id="DejaVuSans-30" d="M 2034 4250 
Q 1547 4250 1301 3770 
Q 1056 3291 1056 2328 
Q 1056 1369 1301 889 
Q 1547 409 2034 409 
Q 2525 409 2770 889 
Q 3016 1369 3016 2328 
Q 3016 3291 2770 3770 
Q 2525 4250 2034 4250 
z
M 2034 4750 
Q 2819 4750 3233 4129 
Q 3647 3509 3647 2328 
Q 3647 1150 3233 529 
Q 2819 -91 2034 -91 
Q 1250 -91 836 529 
Q 422 1150 422 2328 
Q 422 3509 836 4129 
Q 1250 4750 2034 4750 
z
" transform="scale(0.015625)"/>
       </defs>
       <use xlink:href="#DejaVuSans-30"/>
      </g>
     </g>
    </g>
    <g id="xtick_2">
     <g id="line2d_2">
      <g>
       <use xlink:href="#m9855f1f73a" x="139.016455" y="257.158895" style="stroke: #000000; stroke-width: 0.8"/>
      </g>
     </g>
     <g id="text_2">
      <!-- 1000 -->
      <g transform="translate(126.291455 271.757332) scale(0.1 -0.1)">
       <defs>
        <path id="DejaVuSans-31" d="M 794 531 
L 1825 531 
L 1825 4091 
L 703 3866 
L 703 4441 
L 1819 4666 
L 2450 4666 
L 2450 531 
L 3481 531 
L 3481 0 
L 794 0 
L 794 531 
z
" transform="scale(0.015625)"/>
       </defs>
       <use xlink:href="#DejaVuSans-31"/>
       <use xlink:href="#DejaVuSans-30" transform="translate(63.623047 0)"/>
       <use xlink:href="#DejaVuSans-30" transform="translate(127.246094 0)"/>
       <use xlink:href="#DejaVuSans-30" transform="translate(190.869141 0)"/>
      </g>
     </g>
    </g>
    <g id="xtick_3">
     <g id="line2d_3">
      <g>
       <use xlink:href="#m9855f1f73a" x="208.389739" y="257.158895" style="stroke: #000000; stroke-width: 0.8"/>
      </g>
     </g>
     <g id="text_3">
      <!-- 2000 -->
      <g transform="translate(195.664739 271.757332) scale(0.1 -0.1)">
       <defs>
        <path id="DejaVuSans-32" d="M 1228 531 
L 3431 531 
L 3431 0 
L 469 0 
L 469 531 
Q 828 903 1448 1529 
Q 2069 2156 2228 2338 
Q 2531 2678 2651 2914 
Q 2772 3150 2772 3378 
Q 2772 3750 2511 3984 
Q 2250 4219 1831 4219 
Q 1534 4219 1204 4116 
Q 875 4013 500 3803 
L 500 4441 
Q 881 4594 1212 4672 
Q 1544 4750 1819 4750 
Q 2544 4750 2975 4387 
Q 3406 4025 3406 3419 
Q 3406 3131 3298 2873 
Q 3191 2616 2906 2266 
Q 2828 2175 2409 1742 
Q 1991 1309 1228 531 
z
" transform="scale(0.015625)"/>
       </defs>
       <use xlink:href="#DejaVuSans-32"/>
       <use xlink:href="#DejaVuSans-30" transform="translate(63.623047 0)"/>
       <use xlink:href="#DejaVuSans-30" transform="translate(127.246094 0)"/>
       <use xlink:href="#DejaVuSans-30" transform="translate(190.869141 0)"/>
      </g>
     </g>
    </g>
    <g id="xtick_4">
     <g id="line2d_4">
      <g>
       <use xlink:href="#m9855f1f73a" x="277.763024" y="257.158895" style="stroke: #000000; stroke-width: 0.8"/>
      </g>
     </g>
     <g id="text_4">
      <!-- 3000 -->
      <g transform="translate(265.038024 271.757332) scale(0.1 -0.1)">
       <defs>
        <path id="DejaVuSans-33" d="M 2597 2516 
Q 3050 2419 3304 2112 
Q 3559 1806 3559 1356 
Q 3559 666 3084 287 
Q 2609 -91 1734 -91 
Q 1441 -91 1130 -33 
Q 819 25 488 141 
L 488 750 
Q 750 597 1062 519 
Q 1375 441 1716 441 
Q 2309 441 2620 675 
Q 2931 909 2931 1356 
Q 2931 1769 2642 2001 
Q 2353 2234 1838 2234 
L 1294 2234 
L 1294 2753 
L 1863 2753 
Q 2328 2753 2575 2939 
Q 2822 3125 2822 3475 
Q 2822 3834 2567 4026 
Q 2313 4219 1838 4219 
Q 1578 4219 1281 4162 
Q 984 4106 628 3988 
L 628 4550 
Q 988 4650 1302 4700 
Q 1616 4750 1894 4750 
Q 2613 4750 3031 4423 
Q 3450 4097 3450 3541 
Q 3450 3153 3228 2886 
Q 3006 2619 2597 2516 
z
" transform="scale(0.015625)"/>
       </defs>
       <use xlink:href="#DejaVuSans-33"/>
       <use xlink:href="#DejaVuSans-30" transform="translate(63.623047 0)"/>
       <use xlink:href="#DejaVuSans-30" transform="translate(127.246094 0)"/>
       <use xlink:href="#DejaVuSans-30" transform="translate(190.869141 0)"/>
      </g>
     </g>
    </g>
    <g id="xtick_5">
     <g id="line2d_5">
      <g>
       <use xlink:href="#m9855f1f73a" x="347.136309" y="257.158895" style="stroke: #000000; stroke-width: 0.8"/>
      </g>
     </g>
     <g id="text_5">
      <!-- 4000 -->
      <g transform="translate(334.411309 271.757332) scale(0.1 -0.1)">
       <defs>
        <path id="DejaVuSans-34" d="M 2419 4116 
L 825 1625 
L 2419 1625 
L 2419 4116 
z
M 2253 4666 
L 3047 4666 
L 3047 1625 
L 3713 1625 
L 3713 1100 
L 3047 1100 
L 3047 0 
L 2419 0 
L 2419 1100 
L 313 1100 
L 313 1709 
L 2253 4666 
z
" transform="scale(0.015625)"/>
       </defs>
       <use xlink:href="#DejaVuSans-34"/>
       <use xlink:href="#DejaVuSans-30" transform="translate(63.623047 0)"/>
       <use xlink:href="#DejaVuSans-30" transform="translate(127.246094 0)"/>
       <use xlink:href="#DejaVuSans-30" transform="translate(190.869141 0)"/>
      </g>
     </g>
    </g>
    <g id="xtick_6">
     <g id="line2d_6">
      <g>
       <use xlink:href="#m9855f1f73a" x="416.509594" y="257.158895" style="stroke: #000000; stroke-width: 0.8"/>
      </g>
     </g>
     <g id="text_6">
      <!-- 5000 -->
      <g transform="translate(403.784594 271.757332) scale(0.1 -0.1)">
       <defs>
        <path id="DejaVuSans-35" d="M 691 4666 
L 3169 4666 
L 3169 4134 
L 1269 4134 
L 1269 2991 
Q 1406 3038 1543 3061 
Q 1681 3084 1819 3084 
Q 2600 3084 3056 2656 
Q 3513 2228 3513 1497 
Q 3513 744 3044 326 
Q 2575 -91 1722 -91 
Q 1428 -91 1123 -41 
Q 819 9 494 109 
L 494 744 
Q 775 591 1075 516 
Q 1375 441 1709 441 
Q 2250 441 2565 725 
Q 2881 1009 2881 1497 
Q 2881 1984 2565 2268 
Q 2250 2553 1709 2553 
Q 1456 2553 1204 2497 
Q 953 2441 691 2322 
L 691 4666 
z
" transform="scale(0.015625)"/>
       </defs>
       <use xlink:href="#DejaVuSans-35"/>
       <use xlink:href="#DejaVuSans-30" transform="translate(63.623047 0)"/>
       <use xlink:href="#DejaVuSans-30" transform="translate(127.246094 0)"/>
       <use xlink:href="#DejaVuSans-30" transform="translate(190.869141 0)"/>
      </g>
     </g>
    </g>
    <g id="text_7">
     <!-- time [µs] -->
     <g transform="translate(220.031286 285.435457) scale(0.1 -0.1)">
      <defs>
       <path id="DejaVuSans-74" d="M 1172 4494 
L 1172 3500 
L 2356 3500 
L 2356 3053 
L 1172 3053 
L 1172 1153 
Q 1172 725 1289 603 
Q 1406 481 1766 481 
L 2356 481 
L 2356 0 
L 1766 0 
Q 1100 0 847 248 
Q 594 497 594 1153 
L 594 3053 
L 172 3053 
L 172 3500 
L 594 3500 
L 594 4494 
L 1172 4494 
z
" transform="scale(0.015625)"/>
       <path id="DejaVuSans-69" d="M 603 3500 
L 1178 3500 
L 1178 0 
L 603 0 
L 603 3500 
z
M 603 4863 
L 1178 4863 
L 1178 4134 
L 603 4134 
L 603 4863 
z
" transform="scale(0.015625)"/>
       <path id="DejaVuSans-6d" d="M 3328 2828 
Q 3544 3216 3844 3400 
Q 4144 3584 4550 3584 
Q 5097 3584 5394 3201 
Q 5691 2819 5691 2113 
L 5691 0 
L 5113 0 
L 5113 2094 
Q 5113 2597 4934 2840 
Q 4756 3084 4391 3084 
Q 3944 3084 3684 2787 
Q 3425 2491 3425 1978 
L 3425 0 
L 2847 0 
L 2847 2094 
Q 2847 2600 2669 2842 
Q 2491 3084 2119 3084 
Q 1678 3084 1418 2786 
Q 1159 2488 1159 1978 
L 1159 0 
L 581 0 
L 581 3500 
L 1159 3500 
L 1159 2956 
Q 1356 3278 1631 3431 
Q 1906 3584 2284 3584 
Q 2666 3584 2933 3390 
Q 3200 3197 3328 2828 
z
" transform="scale(0.015625)"/>
       <path id="DejaVuSans-65" d="M 3597 1894 
L 3597 1613 
L 953 1613 
Q 991 1019 1311 708 
Q 1631 397 2203 397 
Q 2534 397 2845 478 
Q 3156 559 3463 722 
L 3463 178 
Q 3153 47 2828 -22 
Q 2503 -91 2169 -91 
Q 1331 -91 842 396 
Q 353 884 353 1716 
Q 353 2575 817 3079 
Q 1281 3584 2069 3584 
Q 2775 3584 3186 3129 
Q 3597 2675 3597 1894 
z
M 3022 2063 
Q 3016 2534 2758 2815 
Q 2500 3097 2075 3097 
Q 1594 3097 1305 2825 
Q 1016 2553 972 2059 
L 3022 2063 
z
" transform="scale(0.015625)"/>
       <path id="DejaVuSans-20" transform="scale(0.015625)"/>
       <path id="DejaVuSans-5b" d="M 550 4863 
L 1875 4863 
L 1875 4416 
L 1125 4416 
L 1125 -397 
L 1875 -397 
L 1875 -844 
L 550 -844 
L 550 4863 
z
" transform="scale(0.015625)"/>
       <path id="DejaVuSans-b5" d="M 544 -1331 
L 544 3500 
L 1119 3500 
L 1119 1325 
Q 1119 872 1334 640 
Q 1550 409 1972 409 
Q 2434 409 2667 671 
Q 2900 934 2900 1459 
L 2900 3500 
L 3475 3500 
L 3475 806 
Q 3475 619 3529 530 
Q 3584 441 3700 441 
Q 3728 441 3778 458 
Q 3828 475 3916 513 
L 3916 50 
Q 3788 -22 3673 -56 
Q 3559 -91 3450 -91 
Q 3234 -91 3106 31 
Q 2978 153 2931 403 
Q 2775 156 2548 32 
Q 2322 -91 2016 -91 
Q 1697 -91 1473 31 
Q 1250 153 1119 397 
L 1119 -1331 
L 544 -1331 
z
" transform="scale(0.015625)"/>
       <path id="DejaVuSans-73" d="M 2834 3397 
L 2834 2853 
Q 2591 2978 2328 3040 
Q 2066 3103 1784 3103 
Q 1356 3103 1142 2972 
Q 928 2841 928 2578 
Q 928 2378 1081 2264 
Q 1234 2150 1697 2047 
L 1894 2003 
Q 2506 1872 2764 1633 
Q 3022 1394 3022 966 
Q 3022 478 2636 193 
Q 2250 -91 1575 -91 
Q 1294 -91 989 -36 
Q 684 19 347 128 
L 347 722 
Q 666 556 975 473 
Q 1284 391 1588 391 
Q 1994 391 2212 530 
Q 2431 669 2431 922 
Q 2431 1156 2273 1281 
Q 2116 1406 1581 1522 
L 1381 1569 
Q 847 1681 609 1914 
Q 372 2147 372 2553 
Q 372 3047 722 3315 
Q 1072 3584 1716 3584 
Q 2034 3584 2315 3537 
Q 2597 3491 2834 3397 
z
" transform="scale(0.015625)"/>
       <path id="DejaVuSans-5d" d="M 1947 4863 
L 1947 -844 
L 622 -844 
L 622 -397 
L 1369 -397 
L 1369 4416 
L 622 4416 
L 622 4863 
L 1947 4863 
z
" transform="scale(0.015625)"/>
      </defs>
      <use xlink:href="#DejaVuSans-74"/>
      <use xlink:href="#DejaVuSans-69" transform="translate(39.208984 0)"/>
      <use xlink:href="#DejaVuSans-6d" transform="translate(66.992188 0)"/>
      <use xlink:href="#DejaVuSans-65" transform="translate(164.404297 0)"/>
      <use xlink:href="#DejaVuSans-20" transform="translate(225.927734 0)"/>
      <use xlink:href="#DejaVuSans-5b" transform="translate(257.714844 0)"/>
      <use xlink:href="#DejaVuSans-b5" transform="translate(296.728516 0)"/>
      <use xlink:href="#DejaVuSans-73" transform="translate(360.351562 0)"/>
      <use xlink:href="#DejaVuSans-5d" transform="translate(412.451172 0)"/>
     </g>
    </g>
   </g>
   <g id="matplotlib.axis_2">
    <g id="ytick_1">
     <g id="line2d_7">
      <defs>
       <path id="m1bb8a76d23" d="M 0 0 
L -3.5 0 
" style="stroke: #000000; stroke-width: 0.8"/>
      </defs>
      <g>
       <use xlink:href="#m1bb8a76d23" x="53.328125" y="245.797127" style="stroke: #000000; stroke-width: 0.8"/>
      </g>
     </g>
     <g id="text_8">
      <!-- 0 -->
      <g transform="translate(39.965625 249.596346) scale(0.1 -0.1)">
       <use xlink:href="#DejaVuSans-30"/>
      </g>
     </g>
    </g>
    <g id="ytick_2">
     <g id="line2d_8">
      <g>
       <use xlink:href="#m1bb8a76d23" x="53.328125" y="208.575938" style="stroke: #000000; stroke-width: 0.8"/>
      </g>
     </g>
     <g id="text_9">
      <!-- 200 -->
      <g transform="translate(27.240625 212.375157) scale(0.1 -0.1)">
       <use xlink:href="#DejaVuSans-32"/>
       <use xlink:href="#DejaVuSans-30" transform="translate(63.623047 0)"/>
       <use xlink:href="#DejaVuSans-30" transform="translate(127.246094 0)"/>
      </g>
     </g>
    </g>
    <g id="ytick_3">
     <g id="line2d_9">
      <g>
       <use xlink:href="#m1bb8a76d23" x="53.328125" y="171.354749" style="stroke: #000000; stroke-width: 0.8"/>
      </g>
     </g>
     <g id="text_10">
      <!-- 400 -->
      <g transform="translate(27.240625 175.153968) scale(0.1 -0.1)">
       <use xlink:href="#DejaVuSans-34"/>
       <use xlink:href="#DejaVuSans-30" transform="translate(63.623047 0)"/>
       <use xlink:href="#DejaVuSans-30" transform="translate(127.246094 0)"/>
      </g>
     </g>
    </g>
    <g id="ytick_4">
     <g id="line2d_10">
      <g>
       <use xlink:href="#m1bb8a76d23" x="53.328125" y="134.13356" style="stroke: #000000; stroke-width: 0.8"/>
      </g>
     </g>
     <g id="text_11">
      <!-- 600 -->
      <g transform="translate(27.240625 137.932779) scale(0.1 -0.1)">
       <defs>
        <path id="DejaVuSans-36" d="M 2113 2584 
Q 1688 2584 1439 2293 
Q 1191 2003 1191 1497 
Q 1191 994 1439 701 
Q 1688 409 2113 409 
Q 2538 409 2786 701 
Q 3034 994 3034 1497 
Q 3034 2003 2786 2293 
Q 2538 2584 2113 2584 
z
M 3366 4563 
L 3366 3988 
Q 3128 4100 2886 4159 
Q 2644 4219 2406 4219 
Q 1781 4219 1451 3797 
Q 1122 3375 1075 2522 
Q 1259 2794 1537 2939 
Q 1816 3084 2150 3084 
Q 2853 3084 3261 2657 
Q 3669 2231 3669 1497 
Q 3669 778 3244 343 
Q 2819 -91 2113 -91 
Q 1303 -91 875 529 
Q 447 1150 447 2328 
Q 447 3434 972 4092 
Q 1497 4750 2381 4750 
Q 2619 4750 2861 4703 
Q 3103 4656 3366 4563 
z
" transform="scale(0.015625)"/>
       </defs>
       <use xlink:href="#DejaVuSans-36"/>
       <use xlink:href="#DejaVuSans-30" transform="translate(63.623047 0)"/>
       <use xlink:href="#DejaVuSans-30" transform="translate(127.246094 0)"/>
      </g>
     </g>
    </g>
    <g id="ytick_5">
     <g id="line2d_11">
      <g>
       <use xlink:href="#m1bb8a76d23" x="53.328125" y="96.912371" style="stroke: #000000; stroke-width: 0.8"/>
      </g>
     </g>
     <g id="text_12">
      <!-- 800 -->
      <g transform="translate(27.240625 100.71159) scale(0.1 -0.1)">
       <defs>
        <path id="DejaVuSans-38" d="M 2034 2216 
Q 1584 2216 1326 1975 
Q 1069 1734 1069 1313 
Q 1069 891 1326 650 
Q 1584 409 2034 409 
Q 2484 409 2743 651 
Q 3003 894 3003 1313 
Q 3003 1734 2745 1975 
Q 2488 2216 2034 2216 
z
M 1403 2484 
Q 997 2584 770 2862 
Q 544 3141 544 3541 
Q 544 4100 942 4425 
Q 1341 4750 2034 4750 
Q 2731 4750 3128 4425 
Q 3525 4100 3525 3541 
Q 3525 3141 3298 2862 
Q 3072 2584 2669 2484 
Q 3125 2378 3379 2068 
Q 3634 1759 3634 1313 
Q 3634 634 3220 271 
Q 2806 -91 2034 -91 
Q 1263 -91 848 271 
Q 434 634 434 1313 
Q 434 1759 690 2068 
Q 947 2378 1403 2484 
z
M 1172 3481 
Q 1172 3119 1398 2916 
Q 1625 2713 2034 2713 
Q 2441 2713 2670 2916 
Q 2900 3119 2900 3481 
Q 2900 3844 2670 4047 
Q 2441 4250 2034 4250 
Q 1625 4250 1398 4047 
Q 1172 3844 1172 3481 
z
" transform="scale(0.015625)"/>
       </defs>
       <use xlink:href="#DejaVuSans-38"/>
       <use xlink:href="#DejaVuSans-30" transform="translate(63.623047 0)"/>
       <use xlink:href="#DejaVuSans-30" transform="translate(127.246094 0)"/>
      </g>
     </g>
    </g>
    <g id="ytick_6">
     <g id="line2d_12">
      <g>
       <use xlink:href="#m1bb8a76d23" x="53.328125" y="59.691182" style="stroke: #000000; stroke-width: 0.8"/>
      </g>
     </g>
     <g id="text_13">
      <!-- 1000 -->
      <g transform="translate(20.878125 63.490401) scale(0.1 -0.1)">
       <use xlink:href="#DejaVuSans-31"/>
       <use xlink:href="#DejaVuSans-30" transform="translate(63.623047 0)"/>
       <use xlink:href="#DejaVuSans-30" transform="translate(127.246094 0)"/>
       <use xlink:href="#DejaVuSans-30" transform="translate(190.869141 0)"/>
      </g>
     </g>
    </g>
    <g id="ytick_7">
     <g id="line2d_13">
      <g>
       <use xlink:href="#m1bb8a76d23" x="53.328125" y="22.469993" style="stroke: #000000; stroke-width: 0.8"/>
      </g>
     </g>
     <g id="text_14">
      <!-- 1200 -->
      <g transform="translate(20.878125 26.269212) scale(0.1 -0.1)">
       <use xlink:href="#DejaVuSans-31"/>
       <use xlink:href="#DejaVuSans-32" transform="translate(63.623047 0)"/>
       <use xlink:href="#DejaVuSans-30" transform="translate(127.246094 0)"/>
       <use xlink:href="#DejaVuSans-30" transform="translate(190.869141 0)"/>
      </g>
     </g>
    </g>
    <g id="text_15">
     <!-- [counts] -->
     <g transform="translate(14.798438 152.791947) rotate(-90) scale(0.1 -0.1)">
      <defs>
       <path id="DejaVuSans-63" d="M 3122 3366 
L 3122 2828 
Q 2878 2963 2633 3030 
Q 2388 3097 2138 3097 
Q 1578 3097 1268 2742 
Q 959 2388 959 1747 
Q 959 1106 1268 751 
Q 1578 397 2138 397 
Q 2388 397 2633 464 
Q 2878 531 3122 666 
L 3122 134 
Q 2881 22 2623 -34 
Q 2366 -91 2075 -91 
Q 1284 -91 818 406 
Q 353 903 353 1747 
Q 353 2603 823 3093 
Q 1294 3584 2113 3584 
Q 2378 3584 2631 3529 
Q 2884 3475 3122 3366 
z
" transform="scale(0.015625)"/>
       <path id="DejaVuSans-6f" d="M 1959 3097 
Q 1497 3097 1228 2736 
Q 959 2375 959 1747 
Q 959 1119 1226 758 
Q 1494 397 1959 397 
Q 2419 397 2687 759 
Q 2956 1122 2956 1747 
Q 2956 2369 2687 2733 
Q 2419 3097 1959 3097 
z
M 1959 3584 
Q 2709 3584 3137 3096 
Q 3566 2609 3566 1747 
Q 3566 888 3137 398 
Q 2709 -91 1959 -91 
Q 1206 -91 779 398 
Q 353 888 353 1747 
Q 353 2609 779 3096 
Q 1206 3584 1959 3584 
z
" transform="scale(0.015625)"/>
       <path id="DejaVuSans-75" d="M 544 1381 
L 544 3500 
L 1119 3500 
L 1119 1403 
Q 1119 906 1312 657 
Q 1506 409 1894 409 
Q 2359 409 2629 706 
Q 2900 1003 2900 1516 
L 2900 3500 
L 3475 3500 
L 3475 0 
L 2900 0 
L 2900 538 
Q 2691 219 2414 64 
Q 2138 -91 1772 -91 
Q 1169 -91 856 284 
Q 544 659 544 1381 
z
M 1991 3584 
L 1991 3584 
z
" transform="scale(0.015625)"/>
       <path id="DejaVuSans-6e" d="M 3513 2113 
L 3513 0 
L 2938 0 
L 2938 2094 
Q 2938 2591 2744 2837 
Q 2550 3084 2163 3084 
Q 1697 3084 1428 2787 
Q 1159 2491 1159 1978 
L 1159 0 
L 581 0 
L 581 3500 
L 1159 3500 
L 1159 2956 
Q 1366 3272 1645 3428 
Q 1925 3584 2291 3584 
Q 2894 3584 3203 3211 
Q 3513 2838 3513 2113 
z
" transform="scale(0.015625)"/>
      </defs>
      <use xlink:href="#DejaVuSans-5b"/>
      <use xlink:href="#DejaVuSans-63" transform="translate(39.013672 0)"/>
      <use xlink:href="#DejaVuSans-6f" transform="translate(93.994141 0)"/>
      <use xlink:href="#DejaVuSans-75" transform="translate(155.175781 0)"/>
      <use xlink:href="#DejaVuSans-6e" transform="translate(218.554688 0)"/>
      <use xlink:href="#DejaVuSans-74" transform="translate(281.933594 0)"/>
      <use xlink:href="#DejaVuSans-73" transform="translate(321.142578 0)"/>
      <use xlink:href="#DejaVuSans-5d" transform="translate(373.242188 0)"/>
     </g>
    </g>
   </g>
   <g id="patch_3">
    <path d="M 53.328125 257.158895 
L 53.328125 7.2 
" style="fill: none; stroke: #000000; stroke-width: 0.8; stroke-linejoin: miter; stroke-linecap: square"/>
   </g>
   <g id="patch_4">
    <path d="M 431.87976 257.158895 
L 431.87976 7.2 
" style="fill: none; stroke: #000000; stroke-width: 0.8; stroke-linejoin: miter; stroke-linecap: square"/>
   </g>
   <g id="patch_5">
    <path d="M 53.328125 257.158895 
L 431.87976 257.158895 
" style="fill: none; stroke: #000000; stroke-width: 0.8; stroke-linejoin: miter; stroke-linecap: square"/>
   </g>
   <g id="patch_6">
    <path d="M 53.328125 7.2 
L 431.87976 7.2 
" style="fill: none; stroke: #000000; stroke-width: 0.8; stroke-linejoin: miter; stroke-linecap: square"/>
   </g>
   <g id="line2d_14">
    <path d="M 70.535017 231.653075 
L 71.682144 231.653075 
L 71.682144 226.256003 
L 72.82927 226.256003 
L 72.82927 220.114507 
L 73.976396 220.114507 
L 73.976396 211.739739 
L 75.123522 211.739739 
L 75.123522 200.015065 
L 76.270648 200.015065 
L 76.270648 193.873568 
L 77.417774 193.873568 
L 77.417774 181.40447 
L 78.564901 181.40447 
L 78.564901 176.565715 
L 79.712027 176.565715 
L 79.712027 166.7021 
L 80.859153 166.7021 
L 80.859153 159.443968 
L 82.006279 159.443968 
L 82.006279 157.210697 
L 83.153405 157.210697 
L 83.153405 141.01948 
L 84.300531 141.01948 
L 84.300531 146.04434 
L 85.447658 146.04434 
L 85.447658 130.225335 
L 86.594784 130.225335 
L 86.594784 134.691878 
L 87.74191 134.691878 
L 87.74191 118.500661 
L 88.889036 118.500661 
L 88.889036 119.803402 
L 90.036162 119.803402 
L 90.036162 120.36172 
L 91.183288 120.36172 
L 91.183288 117.197919 
L 92.330415 117.197919 
L 92.330415 111.986952 
L 93.477541 111.986952 
L 93.477541 93.376358 
L 94.624667 93.376358 
L 94.624667 99.331748 
L 95.771793 99.331748 
L 95.771793 89.282027 
L 98.066045 89.282027 
L 98.066045 84.257167 
L 99.213172 84.257167 
L 99.213172 89.840345 
L 100.360298 89.840345 
L 100.360298 74.765763 
L 101.507424 74.765763 
L 101.507424 74.393552 
L 102.65455 74.393552 
L 102.65455 70.857539 
L 103.801676 70.857539 
L 103.801676 70.671433 
L 104.948802 70.671433 
L 104.948802 69.554797 
L 106.095929 69.554797 
L 106.095929 73.835234 
L 107.243055 73.835234 
L 107.243055 64.34383 
L 108.390181 64.34383 
L 108.390181 67.693737 
L 109.537307 67.693737 
L 109.537307 66.577102 
L 110.684433 66.577102 
L 110.684433 65.832678 
L 111.831559 65.832678 
L 111.831559 72.718598 
L 112.978686 72.718598 
L 112.978686 48.338719 
L 114.125812 48.338719 
L 114.125812 61.180029 
L 115.272938 61.180029 
L 115.272938 56.155169 
L 116.420064 56.155169 
L 116.420064 48.152613 
L 117.56719 48.152613 
L 117.56719 58.202334 
L 118.714316 58.202334 
L 118.714316 42.569435 
L 119.861443 42.569435 
L 119.861443 52.246944 
L 121.008569 52.246944 
L 121.008569 33.264138 
L 122.155695 33.264138 
L 122.155695 47.594295 
L 123.302821 47.594295 
L 123.302821 55.969063 
L 124.449947 55.969063 
L 124.449947 43.872177 
L 125.597073 43.872177 
L 125.597073 50.013673 
L 126.7442 50.013673 
L 126.7442 49.083143 
L 127.891326 49.083143 
L 127.891326 44.244388 
L 129.038452 44.244388 
L 129.038452 41.080587 
L 130.185578 41.080587 
L 130.185578 43.872177 
L 131.332704 43.872177 
L 131.332704 51.688626 
L 132.47983 51.688626 
L 132.47983 57.271805 
L 133.626957 57.271805 
L 133.626957 50.199779 
L 134.774083 50.199779 
L 134.774083 35.869621 
L 135.921209 35.869621 
L 135.921209 47.222084 
L 137.068335 47.222084 
L 137.068335 40.150058 
L 138.215461 40.150058 
L 138.215461 30.658654 
L 139.362587 30.658654 
L 139.362587 39.777846 
L 140.509714 39.777846 
L 140.509714 46.291554 
L 141.65684 46.291554 
L 141.65684 31.589184 
L 142.803966 31.589184 
L 142.803966 39.777846 
L 143.951092 39.777846 
L 143.951092 34.008561 
L 145.098218 34.008561 
L 145.098218 35.497409 
L 146.245344 35.497409 
L 146.245344 37.172362 
L 147.392471 37.172362 
L 147.392471 40.150058 
L 148.539597 40.150058 
L 148.539597 30.472548 
L 149.686723 30.472548 
L 149.686723 30.286443 
L 150.833849 30.286443 
L 150.833849 44.6166 
L 151.980975 44.6166 
L 151.980975 34.008561 
L 153.128101 34.008561 
L 153.128101 30.100337 
L 154.275228 30.100337 
L 154.275228 41.825011 
L 155.422354 41.825011 
L 155.422354 32.519714 
L 156.56948 32.519714 
L 156.56948 35.869621 
L 157.716606 35.869621 
L 157.716606 28.983701 
L 158.863732 28.983701 
L 158.863732 36.800151 
L 160.010858 36.800151 
L 160.010858 30.84476 
L 161.157985 30.84476 
L 161.157985 29.169807 
L 162.305111 29.169807 
L 162.305111 27.122641 
L 163.452237 27.122641 
L 163.452237 36.986257 
L 164.599363 36.986257 
L 164.599363 22.842205 
L 165.746489 22.842205 
L 165.746489 20.608933 
L 166.893615 20.608933 
L 166.893615 38.66121 
L 168.040742 38.66121 
L 168.040742 28.053171 
L 169.187868 28.053171 
L 169.187868 34.939091 
L 170.334994 34.939091 
L 170.334994 40.708375 
L 171.48212 40.708375 
L 171.48212 23.586628 
L 172.629246 23.586628 
L 172.629246 20.981145 
L 173.776372 20.981145 
L 173.776372 28.425383 
L 174.923499 28.425383 
L 174.923499 31.030866 
L 176.070625 31.030866 
L 176.070625 31.403078 
L 177.217751 31.403078 
L 177.217751 34.752985 
L 178.364877 34.752985 
L 178.364877 31.589184 
L 179.512003 31.589184 
L 179.512003 38.102892 
L 180.659129 38.102892 
L 180.659129 36.614045 
L 181.806256 36.614045 
L 181.806256 27.680959 
L 182.953382 27.680959 
L 182.953382 40.708375 
L 184.100508 40.708375 
L 184.100508 33.264138 
L 185.247634 33.264138 
L 185.247634 23.586628 
L 186.39476 23.586628 
L 186.39476 34.752985 
L 187.541886 34.752985 
L 187.541886 42.569435 
L 188.689013 42.569435 
L 188.689013 44.802706 
L 190.983265 44.802706 
L 190.983265 29.728125 
L 192.130391 29.728125 
L 192.130391 35.311303 
L 193.277517 35.311303 
L 193.277517 29.728125 
L 194.424643 29.728125 
L 194.424643 29.542019 
L 195.57177 29.542019 
L 195.57177 19.86451 
L 196.718896 19.86451 
L 196.718896 30.286443 
L 197.866022 30.286443 
L 197.866022 24.517158 
L 199.013148 24.517158 
L 199.013148 22.842205 
L 200.160274 22.842205 
L 200.160274 25.8199 
L 201.3074 25.8199 
L 201.3074 20.795039 
L 202.454527 20.795039 
L 202.454527 35.497409 
L 203.601653 35.497409 
L 203.601653 34.566879 
L 204.748779 34.566879 
L 204.748779 26.378218 
L 205.895905 26.378218 
L 205.895905 42.011117 
L 207.043031 42.011117 
L 207.043031 32.147502 
L 208.190157 32.147502 
L 208.190157 26.378218 
L 209.337284 26.378218 
L 209.337284 30.286443 
L 210.48441 30.286443 
L 210.48441 30.100337 
L 211.631536 30.100337 
L 211.631536 25.261582 
L 212.778662 25.261582 
L 212.778662 33.264138 
L 215.072914 33.264138 
L 215.072914 42.011117 
L 216.220041 42.011117 
L 216.220041 20.981145 
L 217.367167 20.981145 
L 217.367167 30.286443 
L 218.514293 30.286443 
L 218.514293 30.472548 
L 219.661419 30.472548 
L 219.661419 31.216972 
L 220.808545 31.216972 
L 220.808545 30.100337 
L 221.955671 30.100337 
L 221.955671 21.725569 
L 223.102798 21.725569 
L 223.102798 25.075476 
L 224.249924 25.075476 
L 224.249924 18.561768 
L 225.39705 18.561768 
L 225.39705 25.447688 
L 226.544176 25.447688 
L 226.544176 29.914231 
L 227.691302 29.914231 
L 227.691302 27.867065 
L 228.838428 27.867065 
L 228.838428 30.100337 
L 229.985555 30.100337 
L 229.985555 43.686071 
L 231.132681 43.686071 
L 231.132681 20.422827 
L 232.279807 20.422827 
L 232.279807 36.800151 
L 233.426933 36.800151 
L 233.426933 30.84476 
L 234.574059 30.84476 
L 234.574059 23.772734 
L 235.721185 23.772734 
L 235.721185 22.469993 
L 236.868312 22.469993 
L 236.868312 31.216972 
L 238.015438 31.216972 
L 238.015438 27.867065 
L 239.162564 27.867065 
L 239.162564 28.239277 
L 240.30969 28.239277 
L 240.30969 34.752985 
L 241.456816 34.752985 
L 241.456816 35.869621 
L 242.603942 35.869621 
L 242.603942 33.822455 
L 243.751069 33.822455 
L 243.751069 29.355913 
L 244.898195 29.355913 
L 244.898195 36.427939 
L 246.045321 36.427939 
L 246.045321 32.147502 
L 247.192447 32.147502 
L 247.192447 38.847316 
L 248.339573 38.847316 
L 248.339573 31.961396 
L 249.486699 31.961396 
L 249.486699 32.333608 
L 250.633826 32.333608 
L 250.633826 30.84476 
L 251.780952 30.84476 
L 251.780952 29.542019 
L 252.928078 29.542019 
L 252.928078 29.169807 
L 254.075204 29.169807 
L 254.075204 27.122641 
L 255.22233 27.122641 
L 255.22233 29.169807 
L 256.369456 29.169807 
L 256.369456 34.566879 
L 257.516583 34.566879 
L 257.516583 27.680959 
L 258.663709 27.680959 
L 258.663709 34.380773 
L 259.810835 34.380773 
L 259.810835 26.192112 
L 260.957961 26.192112 
L 260.957961 31.216972 
L 262.105087 31.216972 
L 262.105087 20.608933 
L 263.252213 20.608933 
L 263.252213 37.172362 
L 264.39934 37.172362 
L 264.39934 28.983701 
L 265.546466 28.983701 
L 265.546466 37.172362 
L 266.693592 37.172362 
L 266.693592 33.822455 
L 267.840718 33.822455 
L 267.840718 44.802706 
L 268.987844 44.802706 
L 268.987844 34.194667 
L 270.13497 34.194667 
L 270.13497 53.177474 
L 271.282097 53.177474 
L 271.282097 46.663766 
L 272.429223 46.663766 
L 272.429223 76.812929 
L 273.576349 76.812929 
L 273.576349 73.649128 
L 274.723475 73.649128 
L 274.723475 81.279471 
L 275.870601 81.279471 
L 275.870601 92.631934 
L 277.017727 92.631934 
L 277.017727 109.195363 
L 278.164854 109.195363 
L 278.164854 108.823151 
L 279.31198 108.823151 
L 279.31198 112.54527 
L 280.459106 112.54527 
L 280.459106 127.992064 
L 281.606232 127.992064 
L 281.606232 132.2725 
L 282.753358 132.2725 
L 282.753358 143.066645 
L 283.900484 143.066645 
L 283.900484 140.08895 
L 285.047611 140.08895 
L 285.047611 147.9054 
L 286.194737 147.9054 
L 286.194737 157.769015 
L 287.341863 157.769015 
L 287.341863 155.163532 
L 288.488989 155.163532 
L 288.488989 158.327333 
L 289.636115 158.327333 
L 289.636115 165.399359 
L 290.783241 165.399359 
L 290.783241 173.960232 
L 291.930368 173.960232 
L 291.930368 175.262974 
L 293.077494 175.262974 
L 293.077494 175.635186 
L 294.22462 175.635186 
L 294.22462 186.057119 
L 295.371746 186.057119 
L 295.371746 185.871013 
L 296.518872 185.871013 
L 296.518872 182.893318 
L 297.665998 182.893318 
L 297.665998 194.617992 
L 298.813125 194.617992 
L 298.813125 197.037369 
L 299.960251 197.037369 
L 299.960251 194.617992 
L 301.107377 194.617992 
L 301.107377 203.551077 
L 302.254503 203.551077 
L 302.254503 204.481607 
L 303.401629 204.481607 
L 303.401629 208.575938 
L 304.548755 208.575938 
L 304.548755 206.714879 
L 305.695882 206.714879 
L 305.695882 206.156561 
L 306.843008 206.156561 
L 306.843008 213.600799 
L 307.990134 213.600799 
L 307.990134 213.228587 
L 309.13726 213.228587 
L 309.13726 216.578494 
L 310.284386 216.578494 
L 310.284386 219.370083 
L 311.431512 219.370083 
L 311.431512 219.183977 
L 312.578639 219.183977 
L 312.578639 220.114507 
L 313.725765 220.114507 
L 313.725765 221.975566 
L 314.872891 221.975566 
L 314.872891 220.672824 
L 316.020017 220.672824 
L 316.020017 221.603354 
L 317.167143 221.603354 
L 317.167143 224.767155 
L 318.314269 224.767155 
L 318.314269 224.394943 
L 319.461396 224.394943 
L 319.461396 223.65052 
L 320.608522 223.65052 
L 320.608522 226.814321 
L 321.755648 226.814321 
L 321.755648 229.60591 
L 322.902774 229.60591 
L 322.902774 232.211393 
L 324.0499 232.211393 
L 324.0499 229.792016 
L 325.197026 229.792016 
L 325.197026 230.722545 
L 326.344153 230.722545 
L 326.344153 232.955817 
L 327.491279 232.955817 
L 327.491279 231.466969 
L 328.638405 231.466969 
L 328.638405 235.189088 
L 329.785531 235.189088 
L 329.785531 230.53644 
L 330.932657 230.53644 
L 330.932657 231.839181 
L 332.079783 231.839181 
L 332.079783 237.236254 
L 333.22691 237.236254 
L 333.22691 236.305724 
L 334.374036 236.305724 
L 334.374036 238.538995 
L 335.521162 238.538995 
L 335.521162 237.050148 
L 336.668288 237.050148 
L 336.668288 238.166783 
L 337.815414 238.166783 
L 337.815414 238.911207 
L 338.96254 238.911207 
L 338.96254 237.236254 
L 340.109667 237.236254 
L 340.109667 238.166783 
L 341.256793 238.166783 
L 341.256793 238.725101 
L 342.403919 238.725101 
L 342.403919 238.352889 
L 343.551045 238.352889 
L 343.551045 239.469525 
L 344.698171 239.469525 
L 344.698171 239.097313 
L 345.845297 239.097313 
L 345.845297 240.400055 
L 346.992424 240.400055 
L 346.992424 239.097313 
L 348.13955 239.097313 
L 348.13955 242.633326 
L 349.286676 242.633326 
L 349.286676 239.841737 
L 350.433802 239.841737 
L 350.433802 241.144478 
L 351.580928 241.144478 
L 351.580928 244.122174 
L 352.728054 244.122174 
L 352.728054 242.819432 
L 353.875181 242.819432 
L 353.875181 242.261114 
L 355.022307 242.261114 
L 355.022307 240.772267 
L 356.169433 240.772267 
L 356.169433 242.819432 
L 357.316559 242.819432 
L 357.316559 243.191644 
L 358.463685 243.191644 
L 358.463685 241.330584 
L 359.610811 241.330584 
L 359.610811 243.191644 
L 360.757938 243.191644 
L 360.757938 242.261114 
L 363.05219 242.261114 
L 363.05219 243.749962 
L 364.199316 243.749962 
L 364.199316 243.936068 
L 367.640695 243.936068 
L 367.640695 243.563856 
L 368.787821 243.563856 
L 368.787821 244.308279 
L 369.934947 244.308279 
L 369.934947 243.936068 
L 371.082073 243.936068 
L 371.082073 244.680491 
L 372.229199 244.680491 
L 372.229199 244.308279 
L 373.376325 244.308279 
L 373.376325 243.749962 
L 374.523452 243.749962 
L 374.523452 245.052703 
L 375.670578 245.052703 
L 375.670578 244.866597 
L 377.96483 244.866597 
L 377.96483 245.611021 
L 379.111956 245.611021 
L 379.111956 243.005538 
L 380.259082 243.005538 
L 380.259082 244.680491 
L 381.406209 244.680491 
L 381.406209 244.308279 
L 383.700461 244.308279 
L 383.700461 244.122174 
L 384.847587 244.122174 
L 384.847587 244.866597 
L 385.994713 244.866597 
L 385.994713 244.308279 
L 387.141839 244.308279 
L 387.141839 245.424915 
L 388.288966 245.424915 
L 388.288966 244.866597 
L 389.436092 244.866597 
L 389.436092 245.424915 
L 391.730344 245.424915 
L 391.730344 245.052703 
L 392.87747 245.052703 
L 392.87747 244.866597 
L 394.024596 244.866597 
L 394.024596 245.052703 
L 395.171723 245.052703 
L 395.171723 245.238809 
L 396.318849 245.238809 
L 396.318849 245.424915 
L 398.613101 245.424915 
L 398.613101 244.866597 
L 399.760227 244.866597 
L 399.760227 245.611021 
L 400.907353 245.611021 
L 400.907353 245.052703 
L 402.05448 245.052703 
L 402.05448 244.866597 
L 403.201606 244.866597 
L 403.201606 245.052703 
L 404.348732 245.052703 
L 404.348732 245.611021 
L 405.495858 245.611021 
L 405.495858 245.424915 
L 406.642984 245.424915 
L 406.642984 244.866597 
L 407.79011 244.866597 
L 407.79011 245.424915 
L 408.937237 245.424915 
L 408.937237 245.238809 
L 410.084363 245.238809 
L 410.084363 245.424915 
L 411.231489 245.424915 
L 411.231489 245.797127 
L 412.378615 245.797127 
L 412.378615 245.611021 
L 413.525741 245.611021 
L 413.525741 245.424915 
L 414.672867 245.424915 
L 414.672867 245.424915 
" clip-path="url(#p26fee094f0)" style="fill: none; stroke: #1f77b4; stroke-width: 1.5; stroke-linecap: square"/>
   </g>
  </g>
  <g id="axes_2">
   <g id="patch_7">
    <path d="M 486.647885 257.158895 
L 865.19952 257.158895 
L 865.19952 7.2 
L 486.647885 7.2 
z
" style="fill: #ffffff"/>
   </g>
   <g id="matplotlib.axis_3">
    <g id="xtick_7">
     <g id="line2d_15">
      <g>
       <use xlink:href="#m9855f1f73a" x="500.38727" y="257.158895" style="stroke: #000000; stroke-width: 0.8"/>
      </g>
     </g>
     <g id="text_16">
      <!-- 0.0 -->
      <g transform="translate(492.435708 271.757332) scale(0.1 -0.1)">
       <defs>
        <path id="DejaVuSans-2e" d="M 684 794 
L 1344 794 
L 1344 0 
L 684 0 
L 684 794 
z
" transform="scale(0.015625)"/>
       </defs>
       <use xlink:href="#DejaVuSans-30"/>
       <use xlink:href="#DejaVuSans-2e" transform="translate(63.623047 0)"/>
       <use xlink:href="#DejaVuSans-30" transform="translate(95.410156 0)"/>
      </g>
     </g>
    </g>
    <g id="xtick_8">
     <g id="line2d_16">
      <g>
       <use xlink:href="#m9855f1f73a" x="544.054245" y="257.158895" style="stroke: #000000; stroke-width: 0.8"/>
      </g>
     </g>
     <g id="text_17">
      <!-- 2.5 -->
      <g transform="translate(536.102682 271.757332) scale(0.1 -0.1)">
       <use xlink:href="#DejaVuSans-32"/>
       <use xlink:href="#DejaVuSans-2e" transform="translate(63.623047 0)"/>
       <use xlink:href="#DejaVuSans-35" transform="translate(95.410156 0)"/>
      </g>
     </g>
    </g>
    <g id="xtick_9">
     <g id="line2d_17">
      <g>
       <use xlink:href="#m9855f1f73a" x="587.721219" y="257.158895" style="stroke: #000000; stroke-width: 0.8"/>
      </g>
     </g>
     <g id="text_18">
      <!-- 5.0 -->
      <g transform="translate(579.769657 271.757332) scale(0.1 -0.1)">
       <use xlink:href="#DejaVuSans-35"/>
       <use xlink:href="#DejaVuSans-2e" transform="translate(63.623047 0)"/>
       <use xlink:href="#DejaVuSans-30" transform="translate(95.410156 0)"/>
      </g>
     </g>
    </g>
    <g id="xtick_10">
     <g id="line2d_18">
      <g>
       <use xlink:href="#m9855f1f73a" x="631.388194" y="257.158895" style="stroke: #000000; stroke-width: 0.8"/>
      </g>
     </g>
     <g id="text_19">
      <!-- 7.5 -->
      <g transform="translate(623.436631 271.757332) scale(0.1 -0.1)">
       <defs>
        <path id="DejaVuSans-37" d="M 525 4666 
L 3525 4666 
L 3525 4397 
L 1831 0 
L 1172 0 
L 2766 4134 
L 525 4134 
L 525 4666 
z
" transform="scale(0.015625)"/>
       </defs>
       <use xlink:href="#DejaVuSans-37"/>
       <use xlink:href="#DejaVuSans-2e" transform="translate(63.623047 0)"/>
       <use xlink:href="#DejaVuSans-35" transform="translate(95.410156 0)"/>
      </g>
     </g>
    </g>
    <g id="xtick_11">
     <g id="line2d_19">
      <g>
       <use xlink:href="#m9855f1f73a" x="675.055168" y="257.158895" style="stroke: #000000; stroke-width: 0.8"/>
      </g>
     </g>
     <g id="text_20">
      <!-- 10.0 -->
      <g transform="translate(663.922356 271.757332) scale(0.1 -0.1)">
       <use xlink:href="#DejaVuSans-31"/>
       <use xlink:href="#DejaVuSans-30" transform="translate(63.623047 0)"/>
       <use xlink:href="#DejaVuSans-2e" transform="translate(127.246094 0)"/>
       <use xlink:href="#DejaVuSans-30" transform="translate(159.033203 0)"/>
      </g>
     </g>
    </g>
    <g id="xtick_12">
     <g id="line2d_20">
      <g>
       <use xlink:href="#m9855f1f73a" x="718.722143" y="257.158895" style="stroke: #000000; stroke-width: 0.8"/>
      </g>
     </g>
     <g id="text_21">
      <!-- 12.5 -->
      <g transform="translate(707.58933 271.757332) scale(0.1 -0.1)">
       <use xlink:href="#DejaVuSans-31"/>
       <use xlink:href="#DejaVuSans-32" transform="translate(63.623047 0)"/>
       <use xlink:href="#DejaVuSans-2e" transform="translate(127.246094 0)"/>
       <use xlink:href="#DejaVuSans-35" transform="translate(159.033203 0)"/>
      </g>
     </g>
    </g>
    <g id="xtick_13">
     <g id="line2d_21">
      <g>
       <use xlink:href="#m9855f1f73a" x="762.389117" y="257.158895" style="stroke: #000000; stroke-width: 0.8"/>
      </g>
     </g>
     <g id="text_22">
      <!-- 15.0 -->
      <g transform="translate(751.256305 271.757332) scale(0.1 -0.1)">
       <use xlink:href="#DejaVuSans-31"/>
       <use xlink:href="#DejaVuSans-35" transform="translate(63.623047 0)"/>
       <use xlink:href="#DejaVuSans-2e" transform="translate(127.246094 0)"/>
       <use xlink:href="#DejaVuSans-30" transform="translate(159.033203 0)"/>
      </g>
     </g>
    </g>
    <g id="xtick_14">
     <g id="line2d_22">
      <g>
       <use xlink:href="#m9855f1f73a" x="806.056092" y="257.158895" style="stroke: #000000; stroke-width: 0.8"/>
      </g>
     </g>
     <g id="text_23">
      <!-- 17.5 -->
      <g transform="translate(794.923279 271.757332) scale(0.1 -0.1)">
       <use xlink:href="#DejaVuSans-31"/>
       <use xlink:href="#DejaVuSans-37" transform="translate(63.623047 0)"/>
       <use xlink:href="#DejaVuSans-2e" transform="translate(127.246094 0)"/>
       <use xlink:href="#DejaVuSans-35" transform="translate(159.033203 0)"/>
      </g>
     </g>
    </g>
    <g id="xtick_15">
     <g id="line2d_23">
      <g>
       <use xlink:href="#m9855f1f73a" x="849.723066" y="257.158895" style="stroke: #000000; stroke-width: 0.8"/>
      </g>
     </g>
     <g id="text_24">
      <!-- 20.0 -->
      <g transform="translate(838.590254 271.757332) scale(0.1 -0.1)">
       <use xlink:href="#DejaVuSans-32"/>
       <use xlink:href="#DejaVuSans-30" transform="translate(63.623047 0)"/>
       <use xlink:href="#DejaVuSans-2e" transform="translate(127.246094 0)"/>
       <use xlink:href="#DejaVuSans-30" transform="translate(159.033203 0)"/>
      </g>
     </g>
    </g>
    <g id="text_25">
     <!-- wavelength [Å] -->
     <g transform="translate(637.886202 287.119832) scale(0.1 -0.1)">
      <defs>
       <path id="DejaVuSans-77" d="M 269 3500 
L 844 3500 
L 1563 769 
L 2278 3500 
L 2956 3500 
L 3675 769 
L 4391 3500 
L 4966 3500 
L 4050 0 
L 3372 0 
L 2619 2869 
L 1863 0 
L 1184 0 
L 269 3500 
z
" transform="scale(0.015625)"/>
       <path id="DejaVuSans-61" d="M 2194 1759 
Q 1497 1759 1228 1600 
Q 959 1441 959 1056 
Q 959 750 1161 570 
Q 1363 391 1709 391 
Q 2188 391 2477 730 
Q 2766 1069 2766 1631 
L 2766 1759 
L 2194 1759 
z
M 3341 1997 
L 3341 0 
L 2766 0 
L 2766 531 
Q 2569 213 2275 61 
Q 1981 -91 1556 -91 
Q 1019 -91 701 211 
Q 384 513 384 1019 
Q 384 1609 779 1909 
Q 1175 2209 1959 2209 
L 2766 2209 
L 2766 2266 
Q 2766 2663 2505 2880 
Q 2244 3097 1772 3097 
Q 1472 3097 1187 3025 
Q 903 2953 641 2809 
L 641 3341 
Q 956 3463 1253 3523 
Q 1550 3584 1831 3584 
Q 2591 3584 2966 3190 
Q 3341 2797 3341 1997 
z
" transform="scale(0.015625)"/>
       <path id="DejaVuSans-76" d="M 191 3500 
L 800 3500 
L 1894 563 
L 2988 3500 
L 3597 3500 
L 2284 0 
L 1503 0 
L 191 3500 
z
" transform="scale(0.015625)"/>
       <path id="DejaVuSans-6c" d="M 603 4863 
L 1178 4863 
L 1178 0 
L 603 0 
L 603 4863 
z
" transform="scale(0.015625)"/>
       <path id="DejaVuSans-67" d="M 2906 1791 
Q 2906 2416 2648 2759 
Q 2391 3103 1925 3103 
Q 1463 3103 1205 2759 
Q 947 2416 947 1791 
Q 947 1169 1205 825 
Q 1463 481 1925 481 
Q 2391 481 2648 825 
Q 2906 1169 2906 1791 
z
M 3481 434 
Q 3481 -459 3084 -895 
Q 2688 -1331 1869 -1331 
Q 1566 -1331 1297 -1286 
Q 1028 -1241 775 -1147 
L 775 -588 
Q 1028 -725 1275 -790 
Q 1522 -856 1778 -856 
Q 2344 -856 2625 -561 
Q 2906 -266 2906 331 
L 2906 616 
Q 2728 306 2450 153 
Q 2172 0 1784 0 
Q 1141 0 747 490 
Q 353 981 353 1791 
Q 353 2603 747 3093 
Q 1141 3584 1784 3584 
Q 2172 3584 2450 3431 
Q 2728 3278 2906 2969 
L 2906 3500 
L 3481 3500 
L 3481 434 
z
" transform="scale(0.015625)"/>
       <path id="DejaVuSans-68" d="M 3513 2113 
L 3513 0 
L 2938 0 
L 2938 2094 
Q 2938 2591 2744 2837 
Q 2550 3084 2163 3084 
Q 1697 3084 1428 2787 
Q 1159 2491 1159 1978 
L 1159 0 
L 581 0 
L 581 4863 
L 1159 4863 
L 1159 2956 
Q 1366 3272 1645 3428 
Q 1925 3584 2291 3584 
Q 2894 3584 3203 3211 
Q 3513 2838 3513 2113 
z
" transform="scale(0.015625)"/>
       <path id="DejaVuSans-c5" d="M 2663 5081 
Q 2663 5278 2523 5417 
Q 2384 5556 2188 5556 
Q 1988 5556 1852 5420 
Q 1716 5284 1716 5081 
Q 1716 4884 1853 4746 
Q 1991 4609 2188 4609 
Q 2384 4609 2523 4746 
Q 2663 4884 2663 5081 
z
M 2188 4044 
L 1338 1722 
L 3041 1722 
L 2188 4044 
z
M 1716 4366 
Q 1525 4494 1428 4673 
Q 1331 4853 1331 5081 
Q 1331 5441 1579 5691 
Q 1828 5941 2188 5941 
Q 2544 5941 2795 5689 
Q 3047 5438 3047 5081 
Q 3047 4863 2948 4678 
Q 2850 4494 2663 4366 
L 4325 0 
L 3669 0 
L 3244 1197 
L 1141 1197 
L 716 0 
L 50 0 
L 1716 4366 
z
" transform="scale(0.015625)"/>
      </defs>
      <use xlink:href="#DejaVuSans-77"/>
      <use xlink:href="#DejaVuSans-61" transform="translate(81.787109 0)"/>
      <use xlink:href="#DejaVuSans-76" transform="translate(143.066406 0)"/>
      <use xlink:href="#DejaVuSans-65" transform="translate(202.246094 0)"/>
      <use xlink:href="#DejaVuSans-6c" transform="translate(263.769531 0)"/>
      <use xlink:href="#DejaVuSans-65" transform="translate(291.552734 0)"/>
      <use xlink:href="#DejaVuSans-6e" transform="translate(353.076172 0)"/>
      <use xlink:href="#DejaVuSans-67" transform="translate(416.455078 0)"/>
      <use xlink:href="#DejaVuSans-74" transform="translate(479.931641 0)"/>
      <use xlink:href="#DejaVuSans-68" transform="translate(519.140625 0)"/>
      <use xlink:href="#DejaVuSans-20" transform="translate(582.519531 0)"/>
      <use xlink:href="#DejaVuSans-5b" transform="translate(614.306641 0)"/>
      <use xlink:href="#DejaVuSans-c5" transform="translate(653.320312 0)"/>
      <use xlink:href="#DejaVuSans-5d" transform="translate(721.728516 0)"/>
     </g>
    </g>
   </g>
   <g id="matplotlib.axis_4">
    <g id="ytick_8">
     <g id="line2d_24">
      <g>
       <use xlink:href="#m1bb8a76d23" x="486.647885" y="245.797127" style="stroke: #000000; stroke-width: 0.8"/>
      </g>
     </g>
     <g id="text_26">
      <!-- 0 -->
      <g transform="translate(473.285385 249.596346) scale(0.1 -0.1)">
       <use xlink:href="#DejaVuSans-30"/>
      </g>
     </g>
    </g>
    <g id="ytick_9">
     <g id="line2d_25">
      <g>
       <use xlink:href="#m1bb8a76d23" x="486.647885" y="193.269305" style="stroke: #000000; stroke-width: 0.8"/>
      </g>
     </g>
     <g id="text_27">
      <!-- 1000 -->
      <g transform="translate(454.197885 197.068524) scale(0.1 -0.1)">
       <use xlink:href="#DejaVuSans-31"/>
       <use xlink:href="#DejaVuSans-30" transform="translate(63.623047 0)"/>
       <use xlink:href="#DejaVuSans-30" transform="translate(127.246094 0)"/>
       <use xlink:href="#DejaVuSans-30" transform="translate(190.869141 0)"/>
      </g>
     </g>
    </g>
    <g id="ytick_10">
     <g id="line2d_26">
      <g>
       <use xlink:href="#m1bb8a76d23" x="486.647885" y="140.741483" style="stroke: #000000; stroke-width: 0.8"/>
      </g>
     </g>
     <g id="text_28">
      <!-- 2000 -->
      <g transform="translate(454.197885 144.540701) scale(0.1 -0.1)">
       <use xlink:href="#DejaVuSans-32"/>
       <use xlink:href="#DejaVuSans-30" transform="translate(63.623047 0)"/>
       <use xlink:href="#DejaVuSans-30" transform="translate(127.246094 0)"/>
       <use xlink:href="#DejaVuSans-30" transform="translate(190.869141 0)"/>
      </g>
     </g>
    </g>
    <g id="ytick_11">
     <g id="line2d_27">
      <g>
       <use xlink:href="#m1bb8a76d23" x="486.647885" y="88.21366" style="stroke: #000000; stroke-width: 0.8"/>
      </g>
     </g>
     <g id="text_29">
      <!-- 3000 -->
      <g transform="translate(454.197885 92.012879) scale(0.1 -0.1)">
       <use xlink:href="#DejaVuSans-33"/>
       <use xlink:href="#DejaVuSans-30" transform="translate(63.623047 0)"/>
       <use xlink:href="#DejaVuSans-30" transform="translate(127.246094 0)"/>
       <use xlink:href="#DejaVuSans-30" transform="translate(190.869141 0)"/>
      </g>
     </g>
    </g>
    <g id="ytick_12">
     <g id="line2d_28">
      <g>
       <use xlink:href="#m1bb8a76d23" x="486.647885" y="35.685838" style="stroke: #000000; stroke-width: 0.8"/>
      </g>
     </g>
     <g id="text_30">
      <!-- 4000 -->
      <g transform="translate(454.197885 39.485057) scale(0.1 -0.1)">
       <use xlink:href="#DejaVuSans-34"/>
       <use xlink:href="#DejaVuSans-30" transform="translate(63.623047 0)"/>
       <use xlink:href="#DejaVuSans-30" transform="translate(127.246094 0)"/>
       <use xlink:href="#DejaVuSans-30" transform="translate(190.869141 0)"/>
      </g>
     </g>
    </g>
    <g id="text_31">
     <!-- [counts] -->
     <g transform="translate(448.118197 152.791947) rotate(-90) scale(0.1 -0.1)">
      <use xlink:href="#DejaVuSans-5b"/>
      <use xlink:href="#DejaVuSans-63" transform="translate(39.013672 0)"/>
      <use xlink:href="#DejaVuSans-6f" transform="translate(93.994141 0)"/>
      <use xlink:href="#DejaVuSans-75" transform="translate(155.175781 0)"/>
      <use xlink:href="#DejaVuSans-6e" transform="translate(218.554688 0)"/>
      <use xlink:href="#DejaVuSans-74" transform="translate(281.933594 0)"/>
      <use xlink:href="#DejaVuSans-73" transform="translate(321.142578 0)"/>
      <use xlink:href="#DejaVuSans-5d" transform="translate(373.242188 0)"/>
     </g>
    </g>
   </g>
   <g id="patch_8">
    <path d="M 486.647885 257.158895 
L 486.647885 7.2 
" style="fill: none; stroke: #000000; stroke-width: 0.8; stroke-linejoin: miter; stroke-linecap: square"/>
   </g>
   <g id="patch_9">
    <path d="M 865.19952 257.158895 
L 865.19952 7.2 
" style="fill: none; stroke: #000000; stroke-width: 0.8; stroke-linejoin: miter; stroke-linecap: square"/>
   </g>
   <g id="patch_10">
    <path d="M 486.647885 257.158895 
L 865.19952 257.158895 
" style="fill: none; stroke: #000000; stroke-width: 0.8; stroke-linejoin: miter; stroke-linecap: square"/>
   </g>
   <g id="patch_11">
    <path d="M 486.647885 7.2 
L 865.19952 7.2 
" style="fill: none; stroke: #000000; stroke-width: 0.8; stroke-linejoin: miter; stroke-linecap: square"/>
   </g>
   <g id="line2d_29">
    <path d="M 503.854777 153.925966 
L 505.001904 153.925966 
L 505.001904 144.838653 
L 506.14903 144.838653 
L 506.14903 140.688955 
L 507.296156 140.688955 
L 507.296156 136.329145 
L 508.443282 136.329145 
L 508.443282 143.262818 
L 509.590408 143.262818 
L 509.590408 153.82091 
L 510.737534 153.82091 
L 510.737534 145.363931 
L 511.884661 145.363931 
L 511.884661 125.61347 
L 513.031787 125.61347 
L 513.031787 109.539956 
L 514.178913 109.539956 
L 514.178913 85.061991 
L 515.326039 85.061991 
L 515.326039 62.89525 
L 516.473165 62.89525 
L 516.473165 33.006919 
L 517.620291 33.006919 
L 517.620291 22.816522 
L 518.767418 22.816522 
L 518.767418 24.497412 
L 519.914544 24.497412 
L 519.914544 20.820464 
L 521.06167 20.820464 
L 521.06167 18.561768 
L 522.208796 18.561768 
L 522.208796 33.164503 
L 523.355922 33.164503 
L 523.355922 43.722595 
L 524.503048 43.722595 
L 524.503048 47.241959 
L 525.650175 47.241959 
L 525.650175 64.208445 
L 526.797301 64.208445 
L 526.797301 63.368 
L 527.944427 63.368 
L 527.944427 79.073819 
L 529.091553 79.073819 
L 529.091553 81.122404 
L 530.238679 81.122404 
L 530.238679 92.836109 
L 531.385805 92.836109 
L 531.385805 94.674582 
L 532.532932 94.674582 
L 532.532932 98.141419 
L 533.680058 98.141419 
L 533.680058 98.82428 
L 534.827184 98.82428 
L 534.827184 96.302945 
L 535.97431 96.302945 
L 535.97431 87.320687 
L 537.121436 87.320687 
L 537.121436 86.900465 
L 538.268562 86.900465 
L 538.268562 83.538684 
L 539.415689 83.538684 
L 539.415689 72.192674 
L 540.562815 72.192674 
L 540.562815 63.735695 
L 541.709941 63.735695 
L 541.709941 53.96552 
L 542.857067 53.96552 
L 542.857067 41.779065 
L 544.004193 41.779065 
L 544.004193 35.843421 
L 545.151319 35.843421 
L 545.151319 37.051561 
L 546.298446 37.051561 
L 546.298446 46.086347 
L 547.445572 46.086347 
L 547.445572 57.012134 
L 548.592698 57.012134 
L 548.592698 60.268859 
L 549.739824 60.268859 
L 549.739824 67.780337 
L 550.88695 67.780337 
L 550.88695 77.760624 
L 552.034076 77.760624 
L 552.034076 90.734996 
L 553.181203 90.734996 
L 553.181203 94.464471 
L 554.328329 94.464471 
L 554.328329 105.180147 
L 555.475455 105.180147 
L 555.475455 117.051435 
L 556.622581 117.051435 
L 556.622581 116.473629 
L 557.769707 116.473629 
L 557.769707 127.346888 
L 558.916833 127.346888 
L 558.916833 128.97525 
L 560.06396 128.97525 
L 560.06396 139.11312 
L 561.211086 139.11312 
L 561.211086 144.260847 
L 562.358212 144.260847 
L 562.358212 149.461101 
L 563.505338 149.461101 
L 563.505338 152.61277 
L 564.652464 152.61277 
L 564.652464 155.449273 
L 565.79959 155.449273 
L 565.79959 160.229305 
L 566.946717 160.229305 
L 566.946717 165.009336 
L 568.093843 165.009336 
L 568.093843 172.993565 
L 569.240969 172.993565 
L 569.240969 171.995537 
L 570.388095 171.995537 
L 570.388095 174.937095 
L 571.535221 174.937095 
L 571.535221 179.664599 
L 572.682347 179.664599 
L 572.682347 181.81824 
L 573.829474 181.81824 
L 573.829474 181.450545 
L 574.9766 181.450545 
L 574.9766 190.01258 
L 576.123726 190.01258 
L 576.123726 191.69347 
L 577.270852 191.69347 
L 577.270852 192.481387 
L 578.417978 192.481387 
L 578.417978 196.210863 
L 579.565104 196.210863 
L 579.565104 199.940338 
L 581.859357 199.835283 
L 581.859357 201.936395 
L 583.006483 201.936395 
L 583.006483 202.986952 
L 584.153609 202.986952 
L 584.153609 205.560815 
L 585.300735 205.560815 
L 585.300735 208.134678 
L 586.447861 208.134678 
L 586.447861 211.443931 
L 587.594988 211.443931 
L 587.594988 210.918653 
L 588.742114 210.918653 
L 588.742114 214.332962 
L 589.88924 214.332962 
L 589.88924 213.019766 
L 591.036366 213.019766 
L 591.036366 215.961324 
L 593.330618 215.961324 
L 593.330618 217.852326 
L 594.477745 217.852326 
L 594.477745 219.060466 
L 595.624871 219.060466 
L 595.624871 220.6363 
L 596.771997 220.6363 
L 596.771997 219.533216 
L 597.919123 219.533216 
L 597.919123 220.478717 
L 599.066249 220.478717 
L 599.066249 222.842469 
L 600.213375 222.842469 
L 600.213375 225.311276 
L 601.360502 225.311276 
L 601.360502 224.628415 
L 602.507628 224.628415 
L 602.507628 226.571944 
L 603.654754 226.571944 
L 603.654754 228.35789 
L 604.80188 228.35789 
L 604.80188 228.200307 
L 605.949006 228.200307 
L 605.949006 229.723613 
L 607.096132 229.723613 
L 607.096132 230.196364 
L 608.243259 230.196364 
L 608.243259 229.198335 
L 609.390385 229.198335 
L 609.390385 230.248892 
L 610.537511 230.248892 
L 610.537511 231.772199 
L 611.684637 231.772199 
L 611.684637 232.875283 
L 612.831763 232.875283 
L 612.831763 229.56603 
L 613.978889 229.56603 
L 613.978889 233.242978 
L 617.420268 233.242978 
L 617.420268 234.293534 
L 619.71452 234.241006 
L 619.71452 233.925839 
L 620.861646 233.925839 
L 620.861646 235.869369 
L 622.008773 235.869369 
L 622.008773 236.972453 
L 623.155899 236.972453 
L 623.155899 235.449146 
L 624.303025 235.449146 
L 624.303025 235.974424 
L 626.597277 236.07948 
L 626.597277 235.816841 
L 627.744403 235.816841 
L 627.744403 237.182564 
L 628.89153 237.182564 
L 628.89153 238.863455 
L 630.038656 238.863455 
L 630.038656 239.126094 
L 631.185782 239.126094 
L 631.185782 237.445203 
L 632.332908 237.445203 
L 632.332908 239.178621 
L 633.480034 239.178621 
L 633.480034 239.388733 
L 634.62716 239.388733 
L 634.62716 238.49576 
L 636.921413 238.600815 
L 636.921413 238.96851 
L 638.068539 238.96851 
L 638.068539 238.023009 
L 639.215665 238.023009 
L 639.215665 239.441261 
L 640.362791 239.441261 
L 640.362791 239.283677 
L 641.509917 239.283677 
L 641.509917 239.966539 
L 642.657044 239.966539 
L 642.657044 239.598844 
L 643.80417 239.598844 
L 643.80417 240.491817 
L 644.951296 240.491817 
L 644.951296 241.594901 
L 646.098422 241.594901 
L 646.098422 239.598844 
L 647.245548 239.598844 
L 647.245548 240.964567 
L 649.539801 240.964567 
L 649.539801 241.542373 
L 650.686927 241.542373 
L 650.686927 241.85754 
L 651.834053 241.85754 
L 651.834053 241.279734 
L 652.981179 241.279734 
L 652.981179 240.6494 
L 654.128305 240.6494 
L 654.128305 241.332262 
L 656.422558 241.437318 
L 656.422558 242.015124 
L 658.71681 242.120179 
L 658.71681 241.489846 
L 659.863936 241.489846 
L 659.863936 242.330291 
L 662.158188 242.382819 
L 662.158188 242.697986 
L 663.305315 242.697986 
L 663.305315 242.172707 
L 664.452441 242.172707 
L 664.452441 242.382819 
L 666.746693 242.277763 
L 666.746693 242.067652 
L 667.893819 242.067652 
L 667.893819 242.960625 
L 669.040945 242.960625 
L 669.040945 243.223264 
L 670.188072 243.223264 
L 670.188072 242.855569 
L 672.482324 242.960625 
L 672.482324 243.380847 
L 673.62945 243.380847 
L 673.62945 243.958653 
L 674.776576 243.958653 
L 674.776576 243.170736 
L 675.923702 243.170736 
L 675.923702 243.380847 
L 678.217955 243.275792 
L 678.217955 243.118208 
L 679.365081 243.118208 
L 679.365081 243.433375 
L 680.512207 243.433375 
L 680.512207 242.855569 
L 681.659333 242.855569 
L 681.659333 243.380847 
L 682.806459 243.380847 
L 682.806459 243.013152 
L 683.953586 243.013152 
L 683.953586 243.643486 
L 685.100712 243.643486 
L 685.100712 243.853598 
L 686.247838 243.853598 
L 686.247838 244.116237 
L 688.54209 244.116237 
L 688.54209 243.590959 
L 689.689216 243.590959 
L 689.689216 243.748542 
L 690.836343 243.748542 
L 690.836343 244.011181 
L 691.983469 244.011181 
L 691.983469 243.643486 
L 693.130595 243.643486 
L 693.130595 244.851626 
L 694.277721 244.851626 
L 694.277721 244.326348 
L 696.571973 244.27382 
L 696.571973 243.748542 
L 697.7191 243.748542 
L 697.7191 244.641515 
L 700.013352 244.536459 
L 700.013352 244.221292 
L 701.160478 244.221292 
L 701.160478 244.011181 
L 702.307604 244.011181 
L 702.307604 244.851626 
L 704.601857 244.746571 
L 704.601857 244.116237 
L 705.748983 244.116237 
L 705.748983 245.00921 
L 706.896109 245.00921 
L 706.896109 244.799098 
L 708.043235 244.799098 
L 708.043235 244.326348 
L 709.190361 244.326348 
L 709.190361 244.641515 
L 710.337487 244.641515 
L 710.337487 244.326348 
L 711.484614 244.326348 
L 711.484614 244.588987 
L 712.63174 244.588987 
L 712.63174 244.326348 
L 713.778866 244.326348 
L 713.778866 244.851626 
L 714.925992 244.851626 
L 714.925992 245.00921 
L 716.073118 245.00921 
L 716.073118 244.799098 
L 717.220244 244.799098 
L 717.220244 245.00921 
L 718.367371 245.00921 
L 718.367371 244.588987 
L 719.514497 244.588987 
L 719.514497 244.956682 
L 720.661623 244.956682 
L 720.661623 244.588987 
L 721.808749 244.588987 
L 721.808749 244.746571 
L 722.955875 244.746571 
L 722.955875 245.061738 
L 724.103001 245.061738 
L 724.103001 244.641515 
L 725.250128 244.641515 
L 725.250128 245.00921 
L 730.985758 245.061738 
L 730.985758 244.851626 
L 732.132885 244.851626 
L 732.132885 245.166793 
L 733.280011 245.166793 
L 733.280011 245.00921 
L 735.574263 245.114265 
L 735.574263 245.376904 
L 736.721389 245.376904 
L 736.721389 245.114265 
L 737.868515 245.114265 
L 737.868515 244.746571 
L 740.162768 244.694043 
L 740.162768 245.114265 
L 742.45702 245.166793 
L 742.45702 245.429432 
L 744.751272 245.324377 
L 744.751272 245.219321 
L 748.192651 245.324377 
L 748.192651 245.00921 
L 749.339777 245.00921 
L 749.339777 245.324377 
L 752.781156 245.219321 
L 752.781156 245.061738 
L 753.928282 245.061738 
L 753.928282 245.429432 
L 755.075408 245.429432 
L 755.075408 245.00921 
L 756.222534 245.00921 
L 756.222534 245.376904 
L 757.36966 245.376904 
L 757.36966 244.904154 
L 758.516786 244.904154 
L 758.516786 245.48196 
L 759.663913 245.48196 
L 759.663913 245.166793 
L 761.958165 245.271849 
L 761.958165 245.376904 
L 764.252417 245.376904 
L 764.252417 245.587016 
L 766.54667 245.48196 
L 766.54667 245.324377 
L 768.840922 245.376904 
L 768.840922 245.48196 
L 769.988048 245.48196 
L 769.988048 245.324377 
L 771.135174 245.324377 
L 771.135174 245.534488 
L 775.723679 245.429432 
L 775.723679 245.061738 
L 778.017931 245.114265 
L 778.017931 245.48196 
L 782.606436 245.48196 
L 782.606436 245.744599 
L 783.753562 245.744599 
L 783.753562 245.376904 
L 786.047814 245.48196 
L 786.047814 245.692071 
L 787.194941 245.692071 
L 787.194941 245.324377 
L 788.342067 245.324377 
L 788.342067 245.534488 
L 792.930571 245.587016 
L 792.930571 245.692071 
L 795.224824 245.692071 
L 795.224824 245.534488 
L 797.519076 245.429432 
L 797.519076 245.692071 
L 802.107581 245.587016 
L 802.107581 245.376904 
L 803.254707 245.376904 
L 803.254707 245.692071 
L 811.28459 245.587016 
L 811.28459 245.48196 
L 813.578842 245.587016 
L 813.578842 245.692071 
L 814.725969 245.692071 
L 814.725969 245.48196 
L 817.020221 245.429432 
L 817.020221 245.639544 
L 821.608726 245.692071 
L 821.608726 245.429432 
L 822.755852 245.429432 
L 822.755852 245.639544 
L 836.521366 245.692071 
L 836.521366 245.797127 
L 839.962744 245.744599 
L 839.962744 245.639544 
L 847.992628 245.692071 
L 847.992628 245.692071 
" clip-path="url(#p74d76065c2)" style="fill: none; stroke: #1f77b4; stroke-width: 1.5; stroke-linecap: square"/>
   </g>
  </g>
 </g>
 <defs>
  <clipPath id="p26fee094f0">
   <rect x="53.328125" y="7.2" width="378.551635" height="249.958895"/>
  </clipPath>
  <clipPath id="p74d76065c2">
   <rect x="486.647885" y="7.2" width="378.551635" height="249.958895"/>
  </clipPath>
 </defs>
</svg>
