<?xml version="1.0" encoding="utf-8" standalone="no"?>
<!DOCTYPE svg PUBLIC "-//W3C//DTD SVG 1.1//EN"
  "http://www.w3.org/Graphics/SVG/1.1/DTD/svg11.dtd">
<svg xmlns:xlink="http://www.w3.org/1999/xlink" width="398.301631pt" height="266.51625pt" viewBox="0 0 398.301631 266.51625" xmlns="http://www.w3.org/2000/svg" version="1.1">
 <metadata>
  <rdf:RDF xmlns:dc="http://purl.org/dc/elements/1.1/" xmlns:cc="http://creativecommons.org/ns#" xmlns:rdf="http://www.w3.org/1999/02/22-rdf-syntax-ns#">
   <cc:Work>
    <dc:type rdf:resource="http://purl.org/dc/dcmitype/StillImage"/>
    <dc:date>2025-07-15T15:00:46.481542</dc:date>
    <dc:format>image/svg+xml</dc:format>
    <dc:creator>
     <cc:Agent>
      <dc:title>Matplotlib v3.10.3, https://matplotlib.org/</dc:title>
     </cc:Agent>
    </dc:creator>
   </cc:Work>
  </rdf:RDF>
 </metadata>
 <defs>
  <style type="text/css">*{stroke-linejoin: round; stroke-linecap: butt}</style>
 </defs>
 <g id="figure_1">
  <g id="patch_1">
   <path d="M 0 266.51625 
L 398.301631 266.51625 
L 398.301631 0 
L 0 0 
z
" style="fill: #ffffff"/>
  </g>
  <g id="axes_1">
   <g id="patch_2">
    <path d="M 46.965625 228.96 
L 381.765625 228.96 
L 381.765625 7.2 
L 46.965625 7.2 
z
" style="fill: #ffffff"/>
   </g>
   <g id="matplotlib.axis_1">
    <g id="xtick_1">
     <g id="line2d_1">
      <defs>
       <path id="m34b35b71a4" d="M 0 0 
L 0 3.5 
" style="stroke: #000000; stroke-width: 0.8"/>
      </defs>
      <g>
       <use xlink:href="#m34b35b71a4" x="71.635629" y="228.96" style="stroke: #000000; stroke-width: 0.8"/>
      </g>
     </g>
     <g id="text_1">
      <!-- 20000 -->
      <g transform="translate(55.729379 243.558437) scale(0.1 -0.1)">
       <defs>
        <path id="DejaVuSans-32" d="M 1228 531 
L 3431 531 
L 3431 0 
L 469 0 
L 469 531 
Q 828 903 1448 1529 
Q 2069 2156 2228 2338 
Q 2531 2678 2651 2914 
Q 2772 3150 2772 3378 
Q 2772 3750 2511 3984 
Q 2250 4219 1831 4219 
Q 1534 4219 1204 4116 
Q 875 4013 500 3803 
L 500 4441 
Q 881 4594 1212 4672 
Q 1544 4750 1819 4750 
Q 2544 4750 2975 4387 
Q 3406 4025 3406 3419 
Q 3406 3131 3298 2873 
Q 3191 2616 2906 2266 
Q 2828 2175 2409 1742 
Q 1991 1309 1228 531 
z
" transform="scale(0.015625)"/>
        <path id="DejaVuSans-30" d="M 2034 4250 
Q 1547 4250 1301 3770 
Q 1056 3291 1056 2328 
Q 1056 1369 1301 889 
Q 1547 409 2034 409 
Q 2525 409 2770 889 
Q 3016 1369 3016 2328 
Q 3016 3291 2770 3770 
Q 2525 4250 2034 4250 
z
M 2034 4750 
Q 2819 4750 3233 4129 
Q 3647 3509 3647 2328 
Q 3647 1150 3233 529 
Q 2819 -91 2034 -91 
Q 1250 -91 836 529 
Q 422 1150 422 2328 
Q 422 3509 836 4129 
Q 1250 4750 2034 4750 
z
" transform="scale(0.015625)"/>
       </defs>
       <use xlink:href="#DejaVuSans-32"/>
       <use xlink:href="#DejaVuSans-30" transform="translate(63.623047 0)"/>
       <use xlink:href="#DejaVuSans-30" transform="translate(127.246094 0)"/>
       <use xlink:href="#DejaVuSans-30" transform="translate(190.869141 0)"/>
       <use xlink:href="#DejaVuSans-30" transform="translate(254.492188 0)"/>
      </g>
     </g>
    </g>
    <g id="xtick_2">
     <g id="line2d_2">
      <g>
       <use xlink:href="#m34b35b71a4" x="115.001308" y="228.96" style="stroke: #000000; stroke-width: 0.8"/>
      </g>
     </g>
     <g id="text_2">
      <!-- 30000 -->
      <g transform="translate(99.095058 243.558437) scale(0.1 -0.1)">
       <defs>
        <path id="DejaVuSans-33" d="M 2597 2516 
Q 3050 2419 3304 2112 
Q 3559 1806 3559 1356 
Q 3559 666 3084 287 
Q 2609 -91 1734 -91 
Q 1441 -91 1130 -33 
Q 819 25 488 141 
L 488 750 
Q 750 597 1062 519 
Q 1375 441 1716 441 
Q 2309 441 2620 675 
Q 2931 909 2931 1356 
Q 2931 1769 2642 2001 
Q 2353 2234 1838 2234 
L 1294 2234 
L 1294 2753 
L 1863 2753 
Q 2328 2753 2575 2939 
Q 2822 3125 2822 3475 
Q 2822 3834 2567 4026 
Q 2313 4219 1838 4219 
Q 1578 4219 1281 4162 
Q 984 4106 628 3988 
L 628 4550 
Q 988 4650 1302 4700 
Q 1616 4750 1894 4750 
Q 2613 4750 3031 4423 
Q 3450 4097 3450 3541 
Q 3450 3153 3228 2886 
Q 3006 2619 2597 2516 
z
" transform="scale(0.015625)"/>
       </defs>
       <use xlink:href="#DejaVuSans-33"/>
       <use xlink:href="#DejaVuSans-30" transform="translate(63.623047 0)"/>
       <use xlink:href="#DejaVuSans-30" transform="translate(127.246094 0)"/>
       <use xlink:href="#DejaVuSans-30" transform="translate(190.869141 0)"/>
       <use xlink:href="#DejaVuSans-30" transform="translate(254.492188 0)"/>
      </g>
     </g>
    </g>
    <g id="xtick_3">
     <g id="line2d_3">
      <g>
       <use xlink:href="#m34b35b71a4" x="158.366986" y="228.96" style="stroke: #000000; stroke-width: 0.8"/>
      </g>
     </g>
     <g id="text_3">
      <!-- 40000 -->
      <g transform="translate(142.460736 243.558437) scale(0.1 -0.1)">
       <defs>
        <path id="DejaVuSans-34" d="M 2419 4116 
L 825 1625 
L 2419 1625 
L 2419 4116 
z
M 2253 4666 
L 3047 4666 
L 3047 1625 
L 3713 1625 
L 3713 1100 
L 3047 1100 
L 3047 0 
L 2419 0 
L 2419 1100 
L 313 1100 
L 313 1709 
L 2253 4666 
z
" transform="scale(0.015625)"/>
       </defs>
       <use xlink:href="#DejaVuSans-34"/>
       <use xlink:href="#DejaVuSans-30" transform="translate(63.623047 0)"/>
       <use xlink:href="#DejaVuSans-30" transform="translate(127.246094 0)"/>
       <use xlink:href="#DejaVuSans-30" transform="translate(190.869141 0)"/>
       <use xlink:href="#DejaVuSans-30" transform="translate(254.492188 0)"/>
      </g>
     </g>
    </g>
    <g id="xtick_4">
     <g id="line2d_4">
      <g>
       <use xlink:href="#m34b35b71a4" x="201.732665" y="228.96" style="stroke: #000000; stroke-width: 0.8"/>
      </g>
     </g>
     <g id="text_4">
      <!-- 50000 -->
      <g transform="translate(185.826415 243.558437) scale(0.1 -0.1)">
       <defs>
        <path id="DejaVuSans-35" d="M 691 4666 
L 3169 4666 
L 3169 4134 
L 1269 4134 
L 1269 2991 
Q 1406 3038 1543 3061 
Q 1681 3084 1819 3084 
Q 2600 3084 3056 2656 
Q 3513 2228 3513 1497 
Q 3513 744 3044 326 
Q 2575 -91 1722 -91 
Q 1428 -91 1123 -41 
Q 819 9 494 109 
L 494 744 
Q 775 591 1075 516 
Q 1375 441 1709 441 
Q 2250 441 2565 725 
Q 2881 1009 2881 1497 
Q 2881 1984 2565 2268 
Q 2250 2553 1709 2553 
Q 1456 2553 1204 2497 
Q 953 2441 691 2322 
L 691 4666 
z
" transform="scale(0.015625)"/>
       </defs>
       <use xlink:href="#DejaVuSans-35"/>
       <use xlink:href="#DejaVuSans-30" transform="translate(63.623047 0)"/>
       <use xlink:href="#DejaVuSans-30" transform="translate(127.246094 0)"/>
       <use xlink:href="#DejaVuSans-30" transform="translate(190.869141 0)"/>
       <use xlink:href="#DejaVuSans-30" transform="translate(254.492188 0)"/>
      </g>
     </g>
    </g>
    <g id="xtick_5">
     <g id="line2d_5">
      <g>
       <use xlink:href="#m34b35b71a4" x="245.098344" y="228.96" style="stroke: #000000; stroke-width: 0.8"/>
      </g>
     </g>
     <g id="text_5">
      <!-- 60000 -->
      <g transform="translate(229.192094 243.558437) scale(0.1 -0.1)">
       <defs>
        <path id="DejaVuSans-36" d="M 2113 2584 
Q 1688 2584 1439 2293 
Q 1191 2003 1191 1497 
Q 1191 994 1439 701 
Q 1688 409 2113 409 
Q 2538 409 2786 701 
Q 3034 994 3034 1497 
Q 3034 2003 2786 2293 
Q 2538 2584 2113 2584 
z
M 3366 4563 
L 3366 3988 
Q 3128 4100 2886 4159 
Q 2644 4219 2406 4219 
Q 1781 4219 1451 3797 
Q 1122 3375 1075 2522 
Q 1259 2794 1537 2939 
Q 1816 3084 2150 3084 
Q 2853 3084 3261 2657 
Q 3669 2231 3669 1497 
Q 3669 778 3244 343 
Q 2819 -91 2113 -91 
Q 1303 -91 875 529 
Q 447 1150 447 2328 
Q 447 3434 972 4092 
Q 1497 4750 2381 4750 
Q 2619 4750 2861 4703 
Q 3103 4656 3366 4563 
z
" transform="scale(0.015625)"/>
       </defs>
       <use xlink:href="#DejaVuSans-36"/>
       <use xlink:href="#DejaVuSans-30" transform="translate(63.623047 0)"/>
       <use xlink:href="#DejaVuSans-30" transform="translate(127.246094 0)"/>
       <use xlink:href="#DejaVuSans-30" transform="translate(190.869141 0)"/>
       <use xlink:href="#DejaVuSans-30" transform="translate(254.492188 0)"/>
      </g>
     </g>
    </g>
    <g id="xtick_6">
     <g id="line2d_6">
      <g>
       <use xlink:href="#m34b35b71a4" x="288.464023" y="228.96" style="stroke: #000000; stroke-width: 0.8"/>
      </g>
     </g>
     <g id="text_6">
      <!-- 70000 -->
      <g transform="translate(272.557773 243.558437) scale(0.1 -0.1)">
       <defs>
        <path id="DejaVuSans-37" d="M 525 4666 
L 3525 4666 
L 3525 4397 
L 1831 0 
L 1172 0 
L 2766 4134 
L 525 4134 
L 525 4666 
z
" transform="scale(0.015625)"/>
       </defs>
       <use xlink:href="#DejaVuSans-37"/>
       <use xlink:href="#DejaVuSans-30" transform="translate(63.623047 0)"/>
       <use xlink:href="#DejaVuSans-30" transform="translate(127.246094 0)"/>
       <use xlink:href="#DejaVuSans-30" transform="translate(190.869141 0)"/>
       <use xlink:href="#DejaVuSans-30" transform="translate(254.492188 0)"/>
      </g>
     </g>
    </g>
    <g id="xtick_7">
     <g id="line2d_7">
      <g>
       <use xlink:href="#m34b35b71a4" x="331.829702" y="228.96" style="stroke: #000000; stroke-width: 0.8"/>
      </g>
     </g>
     <g id="text_7">
      <!-- 80000 -->
      <g transform="translate(315.923452 243.558437) scale(0.1 -0.1)">
       <defs>
        <path id="DejaVuSans-38" d="M 2034 2216 
Q 1584 2216 1326 1975 
Q 1069 1734 1069 1313 
Q 1069 891 1326 650 
Q 1584 409 2034 409 
Q 2484 409 2743 651 
Q 3003 894 3003 1313 
Q 3003 1734 2745 1975 
Q 2488 2216 2034 2216 
z
M 1403 2484 
Q 997 2584 770 2862 
Q 544 3141 544 3541 
Q 544 4100 942 4425 
Q 1341 4750 2034 4750 
Q 2731 4750 3128 4425 
Q 3525 4100 3525 3541 
Q 3525 3141 3298 2862 
Q 3072 2584 2669 2484 
Q 3125 2378 3379 2068 
Q 3634 1759 3634 1313 
Q 3634 634 3220 271 
Q 2806 -91 2034 -91 
Q 1263 -91 848 271 
Q 434 634 434 1313 
Q 434 1759 690 2068 
Q 947 2378 1403 2484 
z
M 1172 3481 
Q 1172 3119 1398 2916 
Q 1625 2713 2034 2713 
Q 2441 2713 2670 2916 
Q 2900 3119 2900 3481 
Q 2900 3844 2670 4047 
Q 2441 4250 2034 4250 
Q 1625 4250 1398 4047 
Q 1172 3844 1172 3481 
z
" transform="scale(0.015625)"/>
       </defs>
       <use xlink:href="#DejaVuSans-38"/>
       <use xlink:href="#DejaVuSans-30" transform="translate(63.623047 0)"/>
       <use xlink:href="#DejaVuSans-30" transform="translate(127.246094 0)"/>
       <use xlink:href="#DejaVuSans-30" transform="translate(190.869141 0)"/>
       <use xlink:href="#DejaVuSans-30" transform="translate(254.492188 0)"/>
      </g>
     </g>
    </g>
    <g id="xtick_8">
     <g id="line2d_8">
      <g>
       <use xlink:href="#m34b35b71a4" x="375.195381" y="228.96" style="stroke: #000000; stroke-width: 0.8"/>
      </g>
     </g>
     <g id="text_8">
      <!-- 90000 -->
      <g transform="translate(359.289131 243.558437) scale(0.1 -0.1)">
       <defs>
        <path id="DejaVuSans-39" d="M 703 97 
L 703 672 
Q 941 559 1184 500 
Q 1428 441 1663 441 
Q 2288 441 2617 861 
Q 2947 1281 2994 2138 
Q 2813 1869 2534 1725 
Q 2256 1581 1919 1581 
Q 1219 1581 811 2004 
Q 403 2428 403 3163 
Q 403 3881 828 4315 
Q 1253 4750 1959 4750 
Q 2769 4750 3195 4129 
Q 3622 3509 3622 2328 
Q 3622 1225 3098 567 
Q 2575 -91 1691 -91 
Q 1453 -91 1209 -44 
Q 966 3 703 97 
z
M 1959 2075 
Q 2384 2075 2632 2365 
Q 2881 2656 2881 3163 
Q 2881 3666 2632 3958 
Q 2384 4250 1959 4250 
Q 1534 4250 1286 3958 
Q 1038 3666 1038 3163 
Q 1038 2656 1286 2365 
Q 1534 2075 1959 2075 
z
" transform="scale(0.015625)"/>
       </defs>
       <use xlink:href="#DejaVuSans-39"/>
       <use xlink:href="#DejaVuSans-30" transform="translate(63.623047 0)"/>
       <use xlink:href="#DejaVuSans-30" transform="translate(127.246094 0)"/>
       <use xlink:href="#DejaVuSans-30" transform="translate(190.869141 0)"/>
       <use xlink:href="#DejaVuSans-30" transform="translate(254.492188 0)"/>
      </g>
     </g>
    </g>
    <g id="text_9">
     <!-- tof [µs] -->
     <g transform="translate(196.309375 257.236562) scale(0.1 -0.1)">
      <defs>
       <path id="DejaVuSans-74" d="M 1172 4494 
L 1172 3500 
L 2356 3500 
L 2356 3053 
L 1172 3053 
L 1172 1153 
Q 1172 725 1289 603 
Q 1406 481 1766 481 
L 2356 481 
L 2356 0 
L 1766 0 
Q 1100 0 847 248 
Q 594 497 594 1153 
L 594 3053 
L 172 3053 
L 172 3500 
L 594 3500 
L 594 4494 
L 1172 4494 
z
" transform="scale(0.015625)"/>
       <path id="DejaVuSans-6f" d="M 1959 3097 
Q 1497 3097 1228 2736 
Q 959 2375 959 1747 
Q 959 1119 1226 758 
Q 1494 397 1959 397 
Q 2419 397 2687 759 
Q 2956 1122 2956 1747 
Q 2956 2369 2687 2733 
Q 2419 3097 1959 3097 
z
M 1959 3584 
Q 2709 3584 3137 3096 
Q 3566 2609 3566 1747 
Q 3566 888 3137 398 
Q 2709 -91 1959 -91 
Q 1206 -91 779 398 
Q 353 888 353 1747 
Q 353 2609 779 3096 
Q 1206 3584 1959 3584 
z
" transform="scale(0.015625)"/>
       <path id="DejaVuSans-66" d="M 2375 4863 
L 2375 4384 
L 1825 4384 
Q 1516 4384 1395 4259 
Q 1275 4134 1275 3809 
L 1275 3500 
L 2222 3500 
L 2222 3053 
L 1275 3053 
L 1275 0 
L 697 0 
L 697 3053 
L 147 3053 
L 147 3500 
L 697 3500 
L 697 3744 
Q 697 4328 969 4595 
Q 1241 4863 1831 4863 
L 2375 4863 
z
" transform="scale(0.015625)"/>
       <path id="DejaVuSans-20" transform="scale(0.015625)"/>
       <path id="DejaVuSans-5b" d="M 550 4863 
L 1875 4863 
L 1875 4416 
L 1125 4416 
L 1125 -397 
L 1875 -397 
L 1875 -844 
L 550 -844 
L 550 4863 
z
" transform="scale(0.015625)"/>
       <path id="DejaVuSans-b5" d="M 544 -1331 
L 544 3500 
L 1119 3500 
L 1119 1325 
Q 1119 872 1334 640 
Q 1550 409 1972 409 
Q 2434 409 2667 671 
Q 2900 934 2900 1459 
L 2900 3500 
L 3475 3500 
L 3475 806 
Q 3475 619 3529 530 
Q 3584 441 3700 441 
Q 3728 441 3778 458 
Q 3828 475 3916 513 
L 3916 50 
Q 3788 -22 3673 -56 
Q 3559 -91 3450 -91 
Q 3234 -91 3106 31 
Q 2978 153 2931 403 
Q 2775 156 2548 32 
Q 2322 -91 2016 -91 
Q 1697 -91 1473 31 
Q 1250 153 1119 397 
L 1119 -1331 
L 544 -1331 
z
" transform="scale(0.015625)"/>
       <path id="DejaVuSans-73" d="M 2834 3397 
L 2834 2853 
Q 2591 2978 2328 3040 
Q 2066 3103 1784 3103 
Q 1356 3103 1142 2972 
Q 928 2841 928 2578 
Q 928 2378 1081 2264 
Q 1234 2150 1697 2047 
L 1894 2003 
Q 2506 1872 2764 1633 
Q 3022 1394 3022 966 
Q 3022 478 2636 193 
Q 2250 -91 1575 -91 
Q 1294 -91 989 -36 
Q 684 19 347 128 
L 347 722 
Q 666 556 975 473 
Q 1284 391 1588 391 
Q 1994 391 2212 530 
Q 2431 669 2431 922 
Q 2431 1156 2273 1281 
Q 2116 1406 1581 1522 
L 1381 1569 
Q 847 1681 609 1914 
Q 372 2147 372 2553 
Q 372 3047 722 3315 
Q 1072 3584 1716 3584 
Q 2034 3584 2315 3537 
Q 2597 3491 2834 3397 
z
" transform="scale(0.015625)"/>
       <path id="DejaVuSans-5d" d="M 1947 4863 
L 1947 -844 
L 622 -844 
L 622 -397 
L 1369 -397 
L 1369 4416 
L 622 4416 
L 622 4863 
L 1947 4863 
z
" transform="scale(0.015625)"/>
      </defs>
      <use xlink:href="#DejaVuSans-74"/>
      <use xlink:href="#DejaVuSans-6f" transform="translate(39.208984 0)"/>
      <use xlink:href="#DejaVuSans-66" transform="translate(100.390625 0)"/>
      <use xlink:href="#DejaVuSans-20" transform="translate(135.595703 0)"/>
      <use xlink:href="#DejaVuSans-5b" transform="translate(167.382812 0)"/>
      <use xlink:href="#DejaVuSans-b5" transform="translate(206.396484 0)"/>
      <use xlink:href="#DejaVuSans-73" transform="translate(270.019531 0)"/>
      <use xlink:href="#DejaVuSans-5d" transform="translate(322.119141 0)"/>
     </g>
    </g>
   </g>
   <g id="matplotlib.axis_2">
    <g id="ytick_1">
     <g id="line2d_9">
      <defs>
       <path id="m584c1a9088" d="M 0 0 
L -3.5 0 
" style="stroke: #000000; stroke-width: 0.8"/>
      </defs>
      <g>
       <use xlink:href="#m584c1a9088" x="46.965625" y="218.88" style="stroke: #000000; stroke-width: 0.8"/>
      </g>
     </g>
     <g id="text_10">
      <!-- 0 -->
      <g transform="translate(33.603125 222.679219) scale(0.1 -0.1)">
       <use xlink:href="#DejaVuSans-30"/>
      </g>
     </g>
    </g>
    <g id="ytick_2">
     <g id="line2d_10">
      <g>
       <use xlink:href="#m584c1a9088" x="46.965625" y="180.842264" style="stroke: #000000; stroke-width: 0.8"/>
      </g>
     </g>
     <g id="text_11">
      <!-- 100 -->
      <g transform="translate(20.878125 184.641483) scale(0.1 -0.1)">
       <defs>
        <path id="DejaVuSans-31" d="M 794 531 
L 1825 531 
L 1825 4091 
L 703 3866 
L 703 4441 
L 1819 4666 
L 2450 4666 
L 2450 531 
L 3481 531 
L 3481 0 
L 794 0 
L 794 531 
z
" transform="scale(0.015625)"/>
       </defs>
       <use xlink:href="#DejaVuSans-31"/>
       <use xlink:href="#DejaVuSans-30" transform="translate(63.623047 0)"/>
       <use xlink:href="#DejaVuSans-30" transform="translate(127.246094 0)"/>
      </g>
     </g>
    </g>
    <g id="ytick_3">
     <g id="line2d_11">
      <g>
       <use xlink:href="#m584c1a9088" x="46.965625" y="142.804528" style="stroke: #000000; stroke-width: 0.8"/>
      </g>
     </g>
     <g id="text_12">
      <!-- 200 -->
      <g transform="translate(20.878125 146.603747) scale(0.1 -0.1)">
       <use xlink:href="#DejaVuSans-32"/>
       <use xlink:href="#DejaVuSans-30" transform="translate(63.623047 0)"/>
       <use xlink:href="#DejaVuSans-30" transform="translate(127.246094 0)"/>
      </g>
     </g>
    </g>
    <g id="ytick_4">
     <g id="line2d_12">
      <g>
       <use xlink:href="#m584c1a9088" x="46.965625" y="104.766792" style="stroke: #000000; stroke-width: 0.8"/>
      </g>
     </g>
     <g id="text_13">
      <!-- 300 -->
      <g transform="translate(20.878125 108.566011) scale(0.1 -0.1)">
       <use xlink:href="#DejaVuSans-33"/>
       <use xlink:href="#DejaVuSans-30" transform="translate(63.623047 0)"/>
       <use xlink:href="#DejaVuSans-30" transform="translate(127.246094 0)"/>
      </g>
     </g>
    </g>
    <g id="ytick_5">
     <g id="line2d_13">
      <g>
       <use xlink:href="#m584c1a9088" x="46.965625" y="66.729057" style="stroke: #000000; stroke-width: 0.8"/>
      </g>
     </g>
     <g id="text_14">
      <!-- 400 -->
      <g transform="translate(20.878125 70.528275) scale(0.1 -0.1)">
       <use xlink:href="#DejaVuSans-34"/>
       <use xlink:href="#DejaVuSans-30" transform="translate(63.623047 0)"/>
       <use xlink:href="#DejaVuSans-30" transform="translate(127.246094 0)"/>
      </g>
     </g>
    </g>
    <g id="ytick_6">
     <g id="line2d_14">
      <g>
       <use xlink:href="#m584c1a9088" x="46.965625" y="28.691321" style="stroke: #000000; stroke-width: 0.8"/>
      </g>
     </g>
     <g id="text_15">
      <!-- 500 -->
      <g transform="translate(20.878125 32.49054) scale(0.1 -0.1)">
       <use xlink:href="#DejaVuSans-35"/>
       <use xlink:href="#DejaVuSans-30" transform="translate(63.623047 0)"/>
       <use xlink:href="#DejaVuSans-30" transform="translate(127.246094 0)"/>
      </g>
     </g>
    </g>
    <g id="text_16">
     <!-- [counts] -->
     <g transform="translate(14.798438 138.6925) rotate(-90) scale(0.1 -0.1)">
      <defs>
       <path id="DejaVuSans-63" d="M 3122 3366 
L 3122 2828 
Q 2878 2963 2633 3030 
Q 2388 3097 2138 3097 
Q 1578 3097 1268 2742 
Q 959 2388 959 1747 
Q 959 1106 1268 751 
Q 1578 397 2138 397 
Q 2388 397 2633 464 
Q 2878 531 3122 666 
L 3122 134 
Q 2881 22 2623 -34 
Q 2366 -91 2075 -91 
Q 1284 -91 818 406 
Q 353 903 353 1747 
Q 353 2603 823 3093 
Q 1294 3584 2113 3584 
Q 2378 3584 2631 3529 
Q 2884 3475 3122 3366 
z
" transform="scale(0.015625)"/>
       <path id="DejaVuSans-75" d="M 544 1381 
L 544 3500 
L 1119 3500 
L 1119 1403 
Q 1119 906 1312 657 
Q 1506 409 1894 409 
Q 2359 409 2629 706 
Q 2900 1003 2900 1516 
L 2900 3500 
L 3475 3500 
L 3475 0 
L 2900 0 
L 2900 538 
Q 2691 219 2414 64 
Q 2138 -91 1772 -91 
Q 1169 -91 856 284 
Q 544 659 544 1381 
z
M 1991 3584 
L 1991 3584 
z
" transform="scale(0.015625)"/>
       <path id="DejaVuSans-6e" d="M 3513 2113 
L 3513 0 
L 2938 0 
L 2938 2094 
Q 2938 2591 2744 2837 
Q 2550 3084 2163 3084 
Q 1697 3084 1428 2787 
Q 1159 2491 1159 1978 
L 1159 0 
L 581 0 
L 581 3500 
L 1159 3500 
L 1159 2956 
Q 1366 3272 1645 3428 
Q 1925 3584 2291 3584 
Q 2894 3584 3203 3211 
Q 3513 2838 3513 2113 
z
" transform="scale(0.015625)"/>
      </defs>
      <use xlink:href="#DejaVuSans-5b"/>
      <use xlink:href="#DejaVuSans-63" transform="translate(39.013672 0)"/>
      <use xlink:href="#DejaVuSans-6f" transform="translate(93.994141 0)"/>
      <use xlink:href="#DejaVuSans-75" transform="translate(155.175781 0)"/>
      <use xlink:href="#DejaVuSans-6e" transform="translate(218.554688 0)"/>
      <use xlink:href="#DejaVuSans-74" transform="translate(281.933594 0)"/>
      <use xlink:href="#DejaVuSans-73" transform="translate(321.142578 0)"/>
      <use xlink:href="#DejaVuSans-5d" transform="translate(373.242188 0)"/>
     </g>
    </g>
   </g>
   <g id="line2d_15">
    <path d="M 62.183807 213.935094 
L 63.198352 213.935094 
L 63.198352 210.511698 
L 64.212898 210.511698 
L 64.212898 205.566792 
L 65.227443 205.566792 
L 65.227443 199.100377 
L 66.241989 199.100377 
L 66.241989 197.198491 
L 67.256534 197.198491 
L 67.256534 189.971321 
L 68.27108 189.971321 
L 68.27108 183.885283 
L 69.285625 183.885283 
L 69.285625 182.744151 
L 70.30017 182.744151 
L 70.30017 173.615094 
L 71.314716 173.615094 
L 71.314716 171.713208 
L 72.329261 171.713208 
L 72.329261 169.050566 
L 73.343807 169.050566 
L 73.343807 161.062642 
L 74.358352 161.062642 
L 74.358352 154.976604 
L 75.372898 154.976604 
L 75.372898 150.792453 
L 76.387443 150.792453 
L 76.387443 146.988679 
L 77.401989 146.988679 
L 77.401989 143.565283 
L 78.416534 143.565283 
L 78.416534 147.749434 
L 79.43108 147.749434 
L 79.43108 143.184906 
L 80.445625 143.184906 
L 80.445625 124.166038 
L 81.46017 124.166038 
L 81.46017 131.393208 
L 82.474716 131.393208 
L 82.474716 124.926792 
L 83.489261 124.926792 
L 83.489261 127.969811 
L 84.503807 127.969811 
L 84.503807 122.264151 
L 85.518352 122.264151 
L 85.518352 97.159245 
L 86.532898 97.159245 
L 86.532898 101.723774 
L 87.547443 101.723774 
L 87.547443 92.21434 
L 88.561989 92.21434 
L 88.561989 94.876981 
L 89.576534 94.876981 
L 89.576534 102.864906 
L 90.59108 102.864906 
L 90.59108 83.46566 
L 91.605625 83.46566 
L 91.605625 92.975094 
L 92.62017 92.975094 
L 92.62017 80.042264 
L 94.649261 80.042264 
L 94.649261 63.686038 
L 95.663807 63.686038 
L 95.663807 68.630943 
L 96.678352 68.630943 
L 96.678352 77.379623 
L 97.692898 77.379623 
L 97.692898 75.477736 
L 98.707443 75.477736 
L 98.707443 67.489811 
L 99.721989 67.489811 
L 99.721989 64.82717 
L 100.736534 64.82717 
L 100.736534 49.231698 
L 101.75108 49.231698 
L 101.75108 65.968302 
L 102.765625 65.968302 
L 102.765625 44.66717 
L 103.78017 44.66717 
L 103.78017 47.329811 
L 104.794716 47.329811 
L 104.794716 47.710189 
L 105.809261 47.710189 
L 105.809261 58.360755 
L 106.823807 58.360755 
L 106.823807 59.121509 
L 107.838352 59.121509 
L 107.838352 46.949434 
L 108.852898 46.949434 
L 108.852898 40.483019 
L 109.867443 40.483019 
L 109.867443 30.21283 
L 110.881989 30.21283 
L 110.881989 50.753208 
L 111.896534 50.753208 
L 111.896534 38.581132 
L 112.91108 38.581132 
L 112.91108 26.028679 
L 113.925625 26.028679 
L 113.925625 45.047547 
L 114.94017 45.047547 
L 114.94017 17.28 
L 115.954716 17.28 
L 115.954716 30.593208 
L 116.969261 30.593208 
L 116.969261 33.636226 
L 117.983807 33.636226 
L 117.983807 41.624151 
L 118.998352 41.624151 
L 118.998352 38.200755 
L 120.012898 38.200755 
L 120.012898 36.298868 
L 121.027443 36.298868 
L 121.027443 29.452075 
L 122.041989 29.452075 
L 122.041989 45.427925 
L 123.056534 45.427925 
L 123.056534 53.035472 
L 124.07108 53.035472 
L 124.07108 49.992453 
L 125.085625 49.992453 
L 125.085625 57.219623 
L 126.10017 57.219623 
L 126.10017 43.14566 
L 127.114716 43.14566 
L 127.114716 55.698113 
L 128.129261 55.698113 
L 128.129261 47.329811 
L 129.143807 47.329811 
L 129.143807 61.403774 
L 130.158352 61.403774 
L 130.158352 56.458868 
L 131.172898 56.458868 
L 131.172898 42.004528 
L 132.187443 42.004528 
L 132.187443 57.219623 
L 133.201989 57.219623 
L 133.201989 64.82717 
L 134.216534 64.82717 
L 134.216534 65.207547 
L 135.23108 65.207547 
L 135.23108 73.575849 
L 136.245625 73.575849 
L 136.245625 64.446792 
L 137.26017 64.446792 
L 137.26017 58.360755 
L 138.274716 58.360755 
L 138.274716 55.698113 
L 139.289261 55.698113 
L 139.289261 71.293585 
L 140.303807 71.293585 
L 140.303807 68.630943 
L 141.318352 68.630943 
L 141.318352 63.686038 
L 142.332898 63.686038 
L 142.332898 62.925283 
L 143.347443 62.925283 
L 143.347443 81.183396 
L 144.361989 81.183396 
L 144.361989 65.587925 
L 145.376534 65.587925 
L 145.376534 55.317736 
L 146.39108 55.317736 
L 146.39108 73.956226 
L 147.405625 73.956226 
L 147.405625 65.207547 
L 148.42017 65.207547 
L 148.42017 64.066415 
L 149.434716 64.066415 
L 149.434716 65.587925 
L 150.449261 65.587925 
L 150.449261 80.042264 
L 151.463807 80.042264 
L 151.463807 71.673962 
L 152.478352 71.673962 
L 152.478352 87.649811 
L 153.492898 87.649811 
L 153.492898 59.882264 
L 154.507443 59.882264 
L 154.507443 75.477736 
L 155.521989 75.477736 
L 155.521989 89.551698 
L 156.536534 89.551698 
L 156.536534 79.661887 
L 157.55108 79.661887 
L 157.55108 76.238491 
L 158.565625 76.238491 
L 158.565625 81.183396 
L 159.58017 81.183396 
L 159.58017 89.551698 
L 160.594716 89.551698 
L 160.594716 87.269434 
L 161.609261 87.269434 
L 161.609261 61.784151 
L 162.623807 61.784151 
L 162.623807 80.042264 
L 163.638352 80.042264 
L 163.638352 84.98717 
L 164.652898 84.98717 
L 164.652898 93.735849 
L 165.667443 93.735849 
L 165.667443 64.82717 
L 166.681989 64.82717 
L 166.681989 84.226415 
L 167.696534 84.226415 
L 167.696534 55.698113 
L 168.71108 55.698113 
L 168.71108 79.661887 
L 169.725625 79.661887 
L 169.725625 67.109434 
L 170.74017 67.109434 
L 170.74017 86.889057 
L 171.754716 86.889057 
L 171.754716 82.324528 
L 172.769261 82.324528 
L 172.769261 91.453585 
L 173.783807 91.453585 
L 173.783807 78.520755 
L 174.798352 78.520755 
L 174.798352 85.367547 
L 175.812898 85.367547 
L 175.812898 90.69283 
L 176.827443 90.69283 
L 176.827443 84.606792 
L 177.841989 84.606792 
L 177.841989 86.889057 
L 179.87108 86.889057 
L 179.87108 89.551698 
L 180.885625 89.551698 
L 180.885625 93.355472 
L 181.90017 93.355472 
L 181.90017 88.790943 
L 182.914716 88.790943 
L 182.914716 110.472453 
L 183.929261 110.472453 
L 183.929261 102.484528 
L 184.943807 102.484528 
L 184.943807 123.78566 
L 185.958352 123.78566 
L 185.958352 119.221132 
L 186.972898 119.221132 
L 186.972898 115.797736 
L 187.987443 115.797736 
L 187.987443 127.969811 
L 189.001989 127.969811 
L 189.001989 140.902642 
L 190.016534 140.902642 
L 190.016534 140.522264 
L 191.03108 140.522264 
L 191.03108 152.313962 
L 192.045625 152.313962 
L 192.045625 151.17283 
L 193.06017 151.17283 
L 193.06017 153.074717 
L 194.074716 153.074717 
L 194.074716 154.976604 
L 195.089261 154.976604 
L 195.089261 169.050566 
L 196.103807 169.050566 
L 196.103807 168.670189 
L 197.118352 168.670189 
L 197.118352 172.85434 
L 198.132898 172.85434 
L 198.132898 178.940377 
L 199.147443 178.940377 
L 199.147443 182.363774 
L 200.161989 182.363774 
L 200.161989 176.658113 
L 201.176534 176.658113 
L 201.176534 192.253585 
L 202.19108 192.253585 
L 202.19108 189.590943 
L 203.205625 189.590943 
L 203.205625 192.633962 
L 204.22017 192.633962 
L 204.22017 198.72 
L 205.234716 198.72 
L 205.234716 201.382642 
L 206.249261 201.382642 
L 206.249261 205.186415 
L 207.263807 205.186415 
L 207.263807 208.229434 
L 208.278352 208.229434 
L 208.278352 213.935094 
L 209.292898 213.935094 
L 209.292898 215.076226 
L 210.307443 215.076226 
L 210.307443 215.836981 
L 211.321989 215.836981 
L 211.321989 216.597736 
L 212.336534 216.597736 
L 212.336534 218.499623 
L 213.35108 218.499623 
L 213.35108 214.695849 
L 214.365625 214.695849 
L 214.365625 212.413585 
L 215.38017 212.413585 
L 215.38017 206.707925 
L 216.394716 206.707925 
L 216.394716 205.94717 
L 217.409261 205.94717 
L 217.409261 197.959245 
L 218.423807 197.959245 
L 218.423807 198.72 
L 219.438352 198.72 
L 219.438352 194.535849 
L 220.452898 194.535849 
L 220.452898 188.830189 
L 221.467443 188.830189 
L 221.467443 185.406792 
L 222.481989 185.406792 
L 222.481989 181.222642 
L 223.496534 181.222642 
L 223.496534 180.842264 
L 224.51108 180.842264 
L 224.51108 175.897358 
L 225.525625 175.897358 
L 225.525625 170.952453 
L 226.54017 170.952453 
L 226.54017 171.33283 
L 227.554716 171.33283 
L 227.554716 171.713208 
L 228.569261 171.713208 
L 228.569261 167.909434 
L 229.583807 167.909434 
L 229.583807 154.596226 
L 230.598352 154.596226 
L 230.598352 151.553208 
L 231.612898 151.553208 
L 231.612898 156.117736 
L 232.627443 156.117736 
L 232.627443 141.663396 
L 233.641989 141.663396 
L 233.641989 145.086792 
L 234.656534 145.086792 
L 234.656534 146.608302 
L 236.685625 146.608302 
L 236.685625 145.847547 
L 237.70017 145.847547 
L 237.70017 131.773585 
L 238.714716 131.773585 
L 238.714716 138.620377 
L 239.729261 138.620377 
L 239.729261 142.424151 
L 240.743807 142.424151 
L 240.743807 128.350189 
L 241.758352 128.350189 
L 241.758352 123.024906 
L 242.772898 123.024906 
L 242.772898 120.742642 
L 243.787443 120.742642 
L 243.787443 121.503396 
L 244.801989 121.503396 
L 244.801989 138.24 
L 245.816534 138.24 
L 245.816534 130.252075 
L 246.83108 130.252075 
L 246.83108 122.644528 
L 247.845625 122.644528 
L 247.845625 116.558491 
L 248.86017 116.558491 
L 248.86017 124.166038 
L 249.874716 124.166038 
L 249.874716 110.472453 
L 250.889261 110.472453 
L 250.889261 107.809811 
L 251.903807 107.809811 
L 251.903807 103.62566 
L 252.918352 103.62566 
L 252.918352 113.895849 
L 253.932898 113.895849 
L 253.932898 88.790943 
L 254.947443 88.790943 
L 254.947443 113.515472 
L 255.961989 113.515472 
L 255.961989 107.809811 
L 256.976534 107.809811 
L 256.976534 92.594717 
L 257.99108 92.594717 
L 257.99108 102.484528 
L 259.005625 102.484528 
L 259.005625 115.797736 
L 260.02017 115.797736 
L 260.02017 98.300377 
L 261.034716 98.300377 
L 261.034716 95.257358 
L 262.049261 95.257358 
L 262.049261 93.735849 
L 263.063807 93.735849 
L 263.063807 89.551698 
L 264.078352 89.551698 
L 264.078352 97.159245 
L 265.092898 97.159245 
L 265.092898 98.300377 
L 266.107443 98.300377 
L 266.107443 106.288302 
L 268.136534 106.288302 
L 268.136534 95.637736 
L 269.15108 95.637736 
L 269.15108 109.331321 
L 270.165625 109.331321 
L 270.165625 110.472453 
L 271.18017 110.472453 
L 271.18017 96.778868 
L 272.194716 96.778868 
L 272.194716 117.699623 
L 273.209261 117.699623 
L 273.209261 99.061132 
L 274.223807 99.061132 
L 274.223807 105.14717 
L 275.238352 105.14717 
L 275.238352 109.711698 
L 276.252898 109.711698 
L 276.252898 110.472453 
L 277.267443 110.472453 
L 277.267443 98.680755 
L 278.281989 98.680755 
L 278.281989 95.637736 
L 279.296534 95.637736 
L 279.296534 120.742642 
L 280.31108 120.742642 
L 280.31108 104.386415 
L 281.325625 104.386415 
L 281.325625 117.319245 
L 282.34017 117.319245 
L 282.34017 115.417358 
L 283.354716 115.417358 
L 283.354716 118.08 
L 284.369261 118.08 
L 284.369261 124.926792 
L 285.383807 124.926792 
L 285.383807 109.331321 
L 286.398352 109.331321 
L 286.398352 121.123019 
L 287.412898 121.123019 
L 287.412898 121.503396 
L 288.427443 121.503396 
L 288.427443 134.436226 
L 289.441989 134.436226 
L 289.441989 118.08 
L 290.456534 118.08 
L 290.456534 139.000755 
L 291.47108 139.000755 
L 291.47108 135.957736 
L 292.485625 135.957736 
L 292.485625 126.067925 
L 293.50017 126.067925 
L 293.50017 127.589434 
L 294.514716 127.589434 
L 294.514716 124.166038 
L 295.529261 124.166038 
L 295.529261 142.424151 
L 296.543807 142.424151 
L 296.543807 131.01283 
L 297.558352 131.01283 
L 297.558352 127.589434 
L 298.572898 127.589434 
L 298.572898 132.153962 
L 299.587443 132.153962 
L 299.587443 138.24 
L 300.601989 138.24 
L 300.601989 133.675472 
L 301.616534 133.675472 
L 301.616534 128.730566 
L 302.63108 128.730566 
L 302.63108 142.804528 
L 303.645625 142.804528 
L 303.645625 143.565283 
L 304.66017 143.565283 
L 304.66017 130.632453 
L 305.674716 130.632453 
L 305.674716 138.24 
L 306.689261 138.24 
L 306.689261 130.632453 
L 307.703807 130.632453 
L 307.703807 140.902642 
L 308.718352 140.902642 
L 308.718352 136.718491 
L 309.732898 136.718491 
L 309.732898 146.608302 
L 310.747443 146.608302 
L 310.747443 142.043774 
L 311.761989 142.043774 
L 311.761989 156.498113 
L 312.776534 156.498113 
L 312.776534 147.369057 
L 313.79108 147.369057 
L 313.79108 135.957736 
L 314.805625 135.957736 
L 314.805625 140.522264 
L 315.82017 140.522264 
L 315.82017 149.270943 
L 316.834716 149.270943 
L 316.834716 151.17283 
L 317.849261 151.17283 
L 317.849261 148.890566 
L 318.863807 148.890566 
L 318.863807 156.878491 
L 319.878352 156.878491 
L 319.878352 136.338113 
L 320.892898 136.338113 
L 320.892898 146.227925 
L 321.907443 146.227925 
L 321.907443 155.356981 
L 322.921989 155.356981 
L 322.921989 164.866415 
L 323.936534 164.866415 
L 323.936534 155.356981 
L 324.95108 155.356981 
L 324.95108 148.129811 
L 325.965625 148.129811 
L 325.965625 163.344906 
L 326.98017 163.344906 
L 326.98017 159.541132 
L 327.994716 159.541132 
L 327.994716 161.443019 
L 329.009261 161.443019 
L 329.009261 161.062642 
L 330.023807 161.062642 
L 330.023807 162.203774 
L 331.038352 162.203774 
L 331.038352 164.10566 
L 332.052898 164.10566 
L 332.052898 168.670189 
L 333.067443 168.670189 
L 333.067443 173.234717 
L 334.081989 173.234717 
L 334.081989 181.603019 
L 335.096534 181.603019 
L 335.096534 169.811321 
L 336.11108 169.811321 
L 336.11108 181.222642 
L 337.125625 181.222642 
L 337.125625 178.940377 
L 338.14017 178.940377 
L 338.14017 184.646038 
L 339.154716 184.646038 
L 339.154716 185.78717 
L 340.169261 185.78717 
L 340.169261 184.646038 
L 341.183807 184.646038 
L 341.183807 186.547925 
L 342.198352 186.547925 
L 342.198352 182.744151 
L 343.212898 182.744151 
L 343.212898 196.057358 
L 344.227443 196.057358 
L 344.227443 193.394717 
L 345.241989 193.394717 
L 345.241989 191.873208 
L 346.256534 191.873208 
L 346.256534 193.775094 
L 347.27108 193.775094 
L 347.27108 200.621887 
L 348.285625 200.621887 
L 348.285625 202.523774 
L 349.30017 202.523774 
L 349.30017 198.339623 
L 350.314716 198.339623 
L 350.314716 203.664906 
L 351.329261 203.664906 
L 351.329261 202.523774 
L 352.343807 202.523774 
L 352.343807 205.186415 
L 354.372898 205.186415 
L 354.372898 208.990189 
L 355.387443 208.990189 
L 355.387443 207.849057 
L 356.401989 207.849057 
L 356.401989 214.315472 
L 357.416534 214.315472 
L 357.416534 213.17434 
L 358.43108 213.17434 
L 358.43108 213.935094 
L 359.445625 213.935094 
L 359.445625 213.554717 
L 360.46017 213.554717 
L 360.46017 215.076226 
L 361.474716 215.076226 
L 361.474716 218.499623 
L 362.489261 218.499623 
L 362.489261 215.836981 
L 363.503807 215.836981 
L 363.503807 218.88 
L 364.518352 218.88 
L 364.518352 216.978113 
L 366.547443 216.978113 
L 366.547443 216.978113 
" clip-path="url(#p18d249b920)" style="fill: none; stroke: #1f77b4; stroke-width: 1.5; stroke-linecap: square"/>
   </g>
   <g id="patch_3">
    <path d="M 46.965625 228.96 
L 46.965625 7.2 
" style="fill: none; stroke: #000000; stroke-width: 0.8; stroke-linejoin: miter; stroke-linecap: square"/>
   </g>
   <g id="patch_4">
    <path d="M 381.765625 228.96 
L 381.765625 7.2 
" style="fill: none; stroke: #000000; stroke-width: 0.8; stroke-linejoin: miter; stroke-linecap: square"/>
   </g>
   <g id="patch_5">
    <path d="M 46.965625 228.96 
L 381.765625 228.96 
" style="fill: none; stroke: #000000; stroke-width: 0.8; stroke-linejoin: miter; stroke-linecap: square"/>
   </g>
   <g id="patch_6">
    <path d="M 46.965625 7.2 
L 381.765625 7.2 
" style="fill: none; stroke: #000000; stroke-width: 0.8; stroke-linejoin: miter; stroke-linecap: square"/>
   </g>
  </g>
 </g>
 <defs>
  <clipPath id="p18d249b920">
   <rect x="46.965625" y="7.2" width="334.8" height="221.76"/>
  </clipPath>
 </defs>
</svg>
