<?xml version="1.0" encoding="utf-8" standalone="no"?>
<!DOCTYPE svg PUBLIC "-//W3C//DTD SVG 1.1//EN"
  "http://www.w3.org/Graphics/SVG/1.1/DTD/svg11.dtd">
<svg xmlns:xlink="http://www.w3.org/1999/xlink" width="395.909428pt" height="266.51625pt" viewBox="0 0 395.909428 266.51625" xmlns="http://www.w3.org/2000/svg" version="1.1">
 <metadata>
  <rdf:RDF xmlns:dc="http://purl.org/dc/elements/1.1/" xmlns:cc="http://creativecommons.org/ns#" xmlns:rdf="http://www.w3.org/1999/02/22-rdf-syntax-ns#">
   <cc:Work>
    <dc:type rdf:resource="http://purl.org/dc/dcmitype/StillImage"/>
    <dc:date>2025-04-10T08:50:57.228702</dc:date>
    <dc:format>image/svg+xml</dc:format>
    <dc:creator>
     <cc:Agent>
      <dc:title>Matplotlib v3.10.1, https://matplotlib.org/</dc:title>
     </cc:Agent>
    </dc:creator>
   </cc:Work>
  </rdf:RDF>
 </metadata>
 <defs>
  <style type="text/css">*{stroke-linejoin: round; stroke-linecap: butt}</style>
 </defs>
 <g id="figure_1">
  <g id="patch_1">
   <path d="M 0 266.51625 
L 395.909428 266.51625 
L 395.909428 0 
L 0 0 
z
" style="fill: #ffffff"/>
  </g>
  <g id="axes_1">
   <g id="patch_2">
    <path d="M 46.965625 228.96 
L 381.765625 228.96 
L 381.765625 7.2 
L 46.965625 7.2 
z
" style="fill: #ffffff"/>
   </g>
   <g id="matplotlib.axis_1">
    <g id="xtick_1">
     <g id="line2d_1">
      <defs>
       <path id="m41d8f36d98" d="M 0 0 
L 0 3.5 
" style="stroke: #000000; stroke-width: 0.8"/>
      </defs>
      <g>
       <use xlink:href="#m41d8f36d98" x="71.702845" y="228.96" style="stroke: #000000; stroke-width: 0.8"/>
      </g>
     </g>
     <g id="text_1">
      <!-- 20000 -->
      <g transform="translate(55.796595 243.558437) scale(0.1 -0.1)">
       <defs>
        <path id="DejaVuSans-32" d="M 1228 531 
L 3431 531 
L 3431 0 
L 469 0 
L 469 531 
Q 828 903 1448 1529 
Q 2069 2156 2228 2338 
Q 2531 2678 2651 2914 
Q 2772 3150 2772 3378 
Q 2772 3750 2511 3984 
Q 2250 4219 1831 4219 
Q 1534 4219 1204 4116 
Q 875 4013 500 3803 
L 500 4441 
Q 881 4594 1212 4672 
Q 1544 4750 1819 4750 
Q 2544 4750 2975 4387 
Q 3406 4025 3406 3419 
Q 3406 3131 3298 2873 
Q 3191 2616 2906 2266 
Q 2828 2175 2409 1742 
Q 1991 1309 1228 531 
z
" transform="scale(0.015625)"/>
        <path id="DejaVuSans-30" d="M 2034 4250 
Q 1547 4250 1301 3770 
Q 1056 3291 1056 2328 
Q 1056 1369 1301 889 
Q 1547 409 2034 409 
Q 2525 409 2770 889 
Q 3016 1369 3016 2328 
Q 3016 3291 2770 3770 
Q 2525 4250 2034 4250 
z
M 2034 4750 
Q 2819 4750 3233 4129 
Q 3647 3509 3647 2328 
Q 3647 1150 3233 529 
Q 2819 -91 2034 -91 
Q 1250 -91 836 529 
Q 422 1150 422 2328 
Q 422 3509 836 4129 
Q 1250 4750 2034 4750 
z
" transform="scale(0.015625)"/>
       </defs>
       <use xlink:href="#DejaVuSans-32"/>
       <use xlink:href="#DejaVuSans-30" transform="translate(63.623047 0)"/>
       <use xlink:href="#DejaVuSans-30" transform="translate(127.246094 0)"/>
       <use xlink:href="#DejaVuSans-30" transform="translate(190.869141 0)"/>
       <use xlink:href="#DejaVuSans-30" transform="translate(254.492188 0)"/>
      </g>
     </g>
    </g>
    <g id="xtick_2">
     <g id="line2d_2">
      <g>
       <use xlink:href="#m41d8f36d98" x="114.717179" y="228.96" style="stroke: #000000; stroke-width: 0.8"/>
      </g>
     </g>
     <g id="text_2">
      <!-- 30000 -->
      <g transform="translate(98.810929 243.558437) scale(0.1 -0.1)">
       <defs>
        <path id="DejaVuSans-33" d="M 2597 2516 
Q 3050 2419 3304 2112 
Q 3559 1806 3559 1356 
Q 3559 666 3084 287 
Q 2609 -91 1734 -91 
Q 1441 -91 1130 -33 
Q 819 25 488 141 
L 488 750 
Q 750 597 1062 519 
Q 1375 441 1716 441 
Q 2309 441 2620 675 
Q 2931 909 2931 1356 
Q 2931 1769 2642 2001 
Q 2353 2234 1838 2234 
L 1294 2234 
L 1294 2753 
L 1863 2753 
Q 2328 2753 2575 2939 
Q 2822 3125 2822 3475 
Q 2822 3834 2567 4026 
Q 2313 4219 1838 4219 
Q 1578 4219 1281 4162 
Q 984 4106 628 3988 
L 628 4550 
Q 988 4650 1302 4700 
Q 1616 4750 1894 4750 
Q 2613 4750 3031 4423 
Q 3450 4097 3450 3541 
Q 3450 3153 3228 2886 
Q 3006 2619 2597 2516 
z
" transform="scale(0.015625)"/>
       </defs>
       <use xlink:href="#DejaVuSans-33"/>
       <use xlink:href="#DejaVuSans-30" transform="translate(63.623047 0)"/>
       <use xlink:href="#DejaVuSans-30" transform="translate(127.246094 0)"/>
       <use xlink:href="#DejaVuSans-30" transform="translate(190.869141 0)"/>
       <use xlink:href="#DejaVuSans-30" transform="translate(254.492188 0)"/>
      </g>
     </g>
    </g>
    <g id="xtick_3">
     <g id="line2d_3">
      <g>
       <use xlink:href="#m41d8f36d98" x="157.731512" y="228.96" style="stroke: #000000; stroke-width: 0.8"/>
      </g>
     </g>
     <g id="text_3">
      <!-- 40000 -->
      <g transform="translate(141.825262 243.558437) scale(0.1 -0.1)">
       <defs>
        <path id="DejaVuSans-34" d="M 2419 4116 
L 825 1625 
L 2419 1625 
L 2419 4116 
z
M 2253 4666 
L 3047 4666 
L 3047 1625 
L 3713 1625 
L 3713 1100 
L 3047 1100 
L 3047 0 
L 2419 0 
L 2419 1100 
L 313 1100 
L 313 1709 
L 2253 4666 
z
" transform="scale(0.015625)"/>
       </defs>
       <use xlink:href="#DejaVuSans-34"/>
       <use xlink:href="#DejaVuSans-30" transform="translate(63.623047 0)"/>
       <use xlink:href="#DejaVuSans-30" transform="translate(127.246094 0)"/>
       <use xlink:href="#DejaVuSans-30" transform="translate(190.869141 0)"/>
       <use xlink:href="#DejaVuSans-30" transform="translate(254.492188 0)"/>
      </g>
     </g>
    </g>
    <g id="xtick_4">
     <g id="line2d_4">
      <g>
       <use xlink:href="#m41d8f36d98" x="200.745845" y="228.96" style="stroke: #000000; stroke-width: 0.8"/>
      </g>
     </g>
     <g id="text_4">
      <!-- 50000 -->
      <g transform="translate(184.839595 243.558437) scale(0.1 -0.1)">
       <defs>
        <path id="DejaVuSans-35" d="M 691 4666 
L 3169 4666 
L 3169 4134 
L 1269 4134 
L 1269 2991 
Q 1406 3038 1543 3061 
Q 1681 3084 1819 3084 
Q 2600 3084 3056 2656 
Q 3513 2228 3513 1497 
Q 3513 744 3044 326 
Q 2575 -91 1722 -91 
Q 1428 -91 1123 -41 
Q 819 9 494 109 
L 494 744 
Q 775 591 1075 516 
Q 1375 441 1709 441 
Q 2250 441 2565 725 
Q 2881 1009 2881 1497 
Q 2881 1984 2565 2268 
Q 2250 2553 1709 2553 
Q 1456 2553 1204 2497 
Q 953 2441 691 2322 
L 691 4666 
z
" transform="scale(0.015625)"/>
       </defs>
       <use xlink:href="#DejaVuSans-35"/>
       <use xlink:href="#DejaVuSans-30" transform="translate(63.623047 0)"/>
       <use xlink:href="#DejaVuSans-30" transform="translate(127.246094 0)"/>
       <use xlink:href="#DejaVuSans-30" transform="translate(190.869141 0)"/>
       <use xlink:href="#DejaVuSans-30" transform="translate(254.492188 0)"/>
      </g>
     </g>
    </g>
    <g id="xtick_5">
     <g id="line2d_5">
      <g>
       <use xlink:href="#m41d8f36d98" x="243.760179" y="228.96" style="stroke: #000000; stroke-width: 0.8"/>
      </g>
     </g>
     <g id="text_5">
      <!-- 60000 -->
      <g transform="translate(227.853929 243.558437) scale(0.1 -0.1)">
       <defs>
        <path id="DejaVuSans-36" d="M 2113 2584 
Q 1688 2584 1439 2293 
Q 1191 2003 1191 1497 
Q 1191 994 1439 701 
Q 1688 409 2113 409 
Q 2538 409 2786 701 
Q 3034 994 3034 1497 
Q 3034 2003 2786 2293 
Q 2538 2584 2113 2584 
z
M 3366 4563 
L 3366 3988 
Q 3128 4100 2886 4159 
Q 2644 4219 2406 4219 
Q 1781 4219 1451 3797 
Q 1122 3375 1075 2522 
Q 1259 2794 1537 2939 
Q 1816 3084 2150 3084 
Q 2853 3084 3261 2657 
Q 3669 2231 3669 1497 
Q 3669 778 3244 343 
Q 2819 -91 2113 -91 
Q 1303 -91 875 529 
Q 447 1150 447 2328 
Q 447 3434 972 4092 
Q 1497 4750 2381 4750 
Q 2619 4750 2861 4703 
Q 3103 4656 3366 4563 
z
" transform="scale(0.015625)"/>
       </defs>
       <use xlink:href="#DejaVuSans-36"/>
       <use xlink:href="#DejaVuSans-30" transform="translate(63.623047 0)"/>
       <use xlink:href="#DejaVuSans-30" transform="translate(127.246094 0)"/>
       <use xlink:href="#DejaVuSans-30" transform="translate(190.869141 0)"/>
       <use xlink:href="#DejaVuSans-30" transform="translate(254.492188 0)"/>
      </g>
     </g>
    </g>
    <g id="xtick_6">
     <g id="line2d_6">
      <g>
       <use xlink:href="#m41d8f36d98" x="286.774512" y="228.96" style="stroke: #000000; stroke-width: 0.8"/>
      </g>
     </g>
     <g id="text_6">
      <!-- 70000 -->
      <g transform="translate(270.868262 243.558437) scale(0.1 -0.1)">
       <defs>
        <path id="DejaVuSans-37" d="M 525 4666 
L 3525 4666 
L 3525 4397 
L 1831 0 
L 1172 0 
L 2766 4134 
L 525 4134 
L 525 4666 
z
" transform="scale(0.015625)"/>
       </defs>
       <use xlink:href="#DejaVuSans-37"/>
       <use xlink:href="#DejaVuSans-30" transform="translate(63.623047 0)"/>
       <use xlink:href="#DejaVuSans-30" transform="translate(127.246094 0)"/>
       <use xlink:href="#DejaVuSans-30" transform="translate(190.869141 0)"/>
       <use xlink:href="#DejaVuSans-30" transform="translate(254.492188 0)"/>
      </g>
     </g>
    </g>
    <g id="xtick_7">
     <g id="line2d_7">
      <g>
       <use xlink:href="#m41d8f36d98" x="329.788845" y="228.96" style="stroke: #000000; stroke-width: 0.8"/>
      </g>
     </g>
     <g id="text_7">
      <!-- 80000 -->
      <g transform="translate(313.882595 243.558437) scale(0.1 -0.1)">
       <defs>
        <path id="DejaVuSans-38" d="M 2034 2216 
Q 1584 2216 1326 1975 
Q 1069 1734 1069 1313 
Q 1069 891 1326 650 
Q 1584 409 2034 409 
Q 2484 409 2743 651 
Q 3003 894 3003 1313 
Q 3003 1734 2745 1975 
Q 2488 2216 2034 2216 
z
M 1403 2484 
Q 997 2584 770 2862 
Q 544 3141 544 3541 
Q 544 4100 942 4425 
Q 1341 4750 2034 4750 
Q 2731 4750 3128 4425 
Q 3525 4100 3525 3541 
Q 3525 3141 3298 2862 
Q 3072 2584 2669 2484 
Q 3125 2378 3379 2068 
Q 3634 1759 3634 1313 
Q 3634 634 3220 271 
Q 2806 -91 2034 -91 
Q 1263 -91 848 271 
Q 434 634 434 1313 
Q 434 1759 690 2068 
Q 947 2378 1403 2484 
z
M 1172 3481 
Q 1172 3119 1398 2916 
Q 1625 2713 2034 2713 
Q 2441 2713 2670 2916 
Q 2900 3119 2900 3481 
Q 2900 3844 2670 4047 
Q 2441 4250 2034 4250 
Q 1625 4250 1398 4047 
Q 1172 3844 1172 3481 
z
" transform="scale(0.015625)"/>
       </defs>
       <use xlink:href="#DejaVuSans-38"/>
       <use xlink:href="#DejaVuSans-30" transform="translate(63.623047 0)"/>
       <use xlink:href="#DejaVuSans-30" transform="translate(127.246094 0)"/>
       <use xlink:href="#DejaVuSans-30" transform="translate(190.869141 0)"/>
       <use xlink:href="#DejaVuSans-30" transform="translate(254.492188 0)"/>
      </g>
     </g>
    </g>
    <g id="xtick_8">
     <g id="line2d_8">
      <g>
       <use xlink:href="#m41d8f36d98" x="372.803178" y="228.96" style="stroke: #000000; stroke-width: 0.8"/>
      </g>
     </g>
     <g id="text_8">
      <!-- 90000 -->
      <g transform="translate(356.896928 243.558437) scale(0.1 -0.1)">
       <defs>
        <path id="DejaVuSans-39" d="M 703 97 
L 703 672 
Q 941 559 1184 500 
Q 1428 441 1663 441 
Q 2288 441 2617 861 
Q 2947 1281 2994 2138 
Q 2813 1869 2534 1725 
Q 2256 1581 1919 1581 
Q 1219 1581 811 2004 
Q 403 2428 403 3163 
Q 403 3881 828 4315 
Q 1253 4750 1959 4750 
Q 2769 4750 3195 4129 
Q 3622 3509 3622 2328 
Q 3622 1225 3098 567 
Q 2575 -91 1691 -91 
Q 1453 -91 1209 -44 
Q 966 3 703 97 
z
M 1959 2075 
Q 2384 2075 2632 2365 
Q 2881 2656 2881 3163 
Q 2881 3666 2632 3958 
Q 2384 4250 1959 4250 
Q 1534 4250 1286 3958 
Q 1038 3666 1038 3163 
Q 1038 2656 1286 2365 
Q 1534 2075 1959 2075 
z
" transform="scale(0.015625)"/>
       </defs>
       <use xlink:href="#DejaVuSans-39"/>
       <use xlink:href="#DejaVuSans-30" transform="translate(63.623047 0)"/>
       <use xlink:href="#DejaVuSans-30" transform="translate(127.246094 0)"/>
       <use xlink:href="#DejaVuSans-30" transform="translate(190.869141 0)"/>
       <use xlink:href="#DejaVuSans-30" transform="translate(254.492188 0)"/>
      </g>
     </g>
    </g>
    <g id="text_9">
     <!-- tof [µs] -->
     <g transform="translate(196.309375 257.236562) scale(0.1 -0.1)">
      <defs>
       <path id="DejaVuSans-74" d="M 1172 4494 
L 1172 3500 
L 2356 3500 
L 2356 3053 
L 1172 3053 
L 1172 1153 
Q 1172 725 1289 603 
Q 1406 481 1766 481 
L 2356 481 
L 2356 0 
L 1766 0 
Q 1100 0 847 248 
Q 594 497 594 1153 
L 594 3053 
L 172 3053 
L 172 3500 
L 594 3500 
L 594 4494 
L 1172 4494 
z
" transform="scale(0.015625)"/>
       <path id="DejaVuSans-6f" d="M 1959 3097 
Q 1497 3097 1228 2736 
Q 959 2375 959 1747 
Q 959 1119 1226 758 
Q 1494 397 1959 397 
Q 2419 397 2687 759 
Q 2956 1122 2956 1747 
Q 2956 2369 2687 2733 
Q 2419 3097 1959 3097 
z
M 1959 3584 
Q 2709 3584 3137 3096 
Q 3566 2609 3566 1747 
Q 3566 888 3137 398 
Q 2709 -91 1959 -91 
Q 1206 -91 779 398 
Q 353 888 353 1747 
Q 353 2609 779 3096 
Q 1206 3584 1959 3584 
z
" transform="scale(0.015625)"/>
       <path id="DejaVuSans-66" d="M 2375 4863 
L 2375 4384 
L 1825 4384 
Q 1516 4384 1395 4259 
Q 1275 4134 1275 3809 
L 1275 3500 
L 2222 3500 
L 2222 3053 
L 1275 3053 
L 1275 0 
L 697 0 
L 697 3053 
L 147 3053 
L 147 3500 
L 697 3500 
L 697 3744 
Q 697 4328 969 4595 
Q 1241 4863 1831 4863 
L 2375 4863 
z
" transform="scale(0.015625)"/>
       <path id="DejaVuSans-20" transform="scale(0.015625)"/>
       <path id="DejaVuSans-5b" d="M 550 4863 
L 1875 4863 
L 1875 4416 
L 1125 4416 
L 1125 -397 
L 1875 -397 
L 1875 -844 
L 550 -844 
L 550 4863 
z
" transform="scale(0.015625)"/>
       <path id="DejaVuSans-b5" d="M 544 -1331 
L 544 3500 
L 1119 3500 
L 1119 1325 
Q 1119 872 1334 640 
Q 1550 409 1972 409 
Q 2434 409 2667 671 
Q 2900 934 2900 1459 
L 2900 3500 
L 3475 3500 
L 3475 806 
Q 3475 619 3529 530 
Q 3584 441 3700 441 
Q 3728 441 3778 458 
Q 3828 475 3916 513 
L 3916 50 
Q 3788 -22 3673 -56 
Q 3559 -91 3450 -91 
Q 3234 -91 3106 31 
Q 2978 153 2931 403 
Q 2775 156 2548 32 
Q 2322 -91 2016 -91 
Q 1697 -91 1473 31 
Q 1250 153 1119 397 
L 1119 -1331 
L 544 -1331 
z
" transform="scale(0.015625)"/>
       <path id="DejaVuSans-73" d="M 2834 3397 
L 2834 2853 
Q 2591 2978 2328 3040 
Q 2066 3103 1784 3103 
Q 1356 3103 1142 2972 
Q 928 2841 928 2578 
Q 928 2378 1081 2264 
Q 1234 2150 1697 2047 
L 1894 2003 
Q 2506 1872 2764 1633 
Q 3022 1394 3022 966 
Q 3022 478 2636 193 
Q 2250 -91 1575 -91 
Q 1294 -91 989 -36 
Q 684 19 347 128 
L 347 722 
Q 666 556 975 473 
Q 1284 391 1588 391 
Q 1994 391 2212 530 
Q 2431 669 2431 922 
Q 2431 1156 2273 1281 
Q 2116 1406 1581 1522 
L 1381 1569 
Q 847 1681 609 1914 
Q 372 2147 372 2553 
Q 372 3047 722 3315 
Q 1072 3584 1716 3584 
Q 2034 3584 2315 3537 
Q 2597 3491 2834 3397 
z
" transform="scale(0.015625)"/>
       <path id="DejaVuSans-5d" d="M 1947 4863 
L 1947 -844 
L 622 -844 
L 622 -397 
L 1369 -397 
L 1369 4416 
L 622 4416 
L 622 4863 
L 1947 4863 
z
" transform="scale(0.015625)"/>
      </defs>
      <use xlink:href="#DejaVuSans-74"/>
      <use xlink:href="#DejaVuSans-6f" transform="translate(39.208984 0)"/>
      <use xlink:href="#DejaVuSans-66" transform="translate(100.390625 0)"/>
      <use xlink:href="#DejaVuSans-20" transform="translate(135.595703 0)"/>
      <use xlink:href="#DejaVuSans-5b" transform="translate(167.382812 0)"/>
      <use xlink:href="#DejaVuSans-b5" transform="translate(206.396484 0)"/>
      <use xlink:href="#DejaVuSans-73" transform="translate(270.019531 0)"/>
      <use xlink:href="#DejaVuSans-5d" transform="translate(322.119141 0)"/>
     </g>
    </g>
   </g>
   <g id="matplotlib.axis_2">
    <g id="ytick_1">
     <g id="line2d_9">
      <defs>
       <path id="mb70a164059" d="M 0 0 
L -3.5 0 
" style="stroke: #000000; stroke-width: 0.8"/>
      </defs>
      <g>
       <use xlink:href="#mb70a164059" x="46.965625" y="219.284008" style="stroke: #000000; stroke-width: 0.8"/>
      </g>
     </g>
     <g id="text_10">
      <!-- 0 -->
      <g transform="translate(33.603125 223.083227) scale(0.1 -0.1)">
       <use xlink:href="#DejaVuSans-30"/>
      </g>
     </g>
    </g>
    <g id="ytick_2">
     <g id="line2d_10">
      <g>
       <use xlink:href="#mb70a164059" x="46.965625" y="178.883206" style="stroke: #000000; stroke-width: 0.8"/>
      </g>
     </g>
     <g id="text_11">
      <!-- 100 -->
      <g transform="translate(20.878125 182.682425) scale(0.1 -0.1)">
       <defs>
        <path id="DejaVuSans-31" d="M 794 531 
L 1825 531 
L 1825 4091 
L 703 3866 
L 703 4441 
L 1819 4666 
L 2450 4666 
L 2450 531 
L 3481 531 
L 3481 0 
L 794 0 
L 794 531 
z
" transform="scale(0.015625)"/>
       </defs>
       <use xlink:href="#DejaVuSans-31"/>
       <use xlink:href="#DejaVuSans-30" transform="translate(63.623047 0)"/>
       <use xlink:href="#DejaVuSans-30" transform="translate(127.246094 0)"/>
      </g>
     </g>
    </g>
    <g id="ytick_3">
     <g id="line2d_11">
      <g>
       <use xlink:href="#mb70a164059" x="46.965625" y="138.482405" style="stroke: #000000; stroke-width: 0.8"/>
      </g>
     </g>
     <g id="text_12">
      <!-- 200 -->
      <g transform="translate(20.878125 142.281624) scale(0.1 -0.1)">
       <use xlink:href="#DejaVuSans-32"/>
       <use xlink:href="#DejaVuSans-30" transform="translate(63.623047 0)"/>
       <use xlink:href="#DejaVuSans-30" transform="translate(127.246094 0)"/>
      </g>
     </g>
    </g>
    <g id="ytick_4">
     <g id="line2d_12">
      <g>
       <use xlink:href="#mb70a164059" x="46.965625" y="98.081603" style="stroke: #000000; stroke-width: 0.8"/>
      </g>
     </g>
     <g id="text_13">
      <!-- 300 -->
      <g transform="translate(20.878125 101.880822) scale(0.1 -0.1)">
       <use xlink:href="#DejaVuSans-33"/>
       <use xlink:href="#DejaVuSans-30" transform="translate(63.623047 0)"/>
       <use xlink:href="#DejaVuSans-30" transform="translate(127.246094 0)"/>
      </g>
     </g>
    </g>
    <g id="ytick_5">
     <g id="line2d_13">
      <g>
       <use xlink:href="#mb70a164059" x="46.965625" y="57.680802" style="stroke: #000000; stroke-width: 0.8"/>
      </g>
     </g>
     <g id="text_14">
      <!-- 400 -->
      <g transform="translate(20.878125 61.48002) scale(0.1 -0.1)">
       <use xlink:href="#DejaVuSans-34"/>
       <use xlink:href="#DejaVuSans-30" transform="translate(63.623047 0)"/>
       <use xlink:href="#DejaVuSans-30" transform="translate(127.246094 0)"/>
      </g>
     </g>
    </g>
    <g id="ytick_6">
     <g id="line2d_14">
      <g>
       <use xlink:href="#mb70a164059" x="46.965625" y="17.28" style="stroke: #000000; stroke-width: 0.8"/>
      </g>
     </g>
     <g id="text_15">
      <!-- 500 -->
      <g transform="translate(20.878125 21.079219) scale(0.1 -0.1)">
       <use xlink:href="#DejaVuSans-35"/>
       <use xlink:href="#DejaVuSans-30" transform="translate(63.623047 0)"/>
       <use xlink:href="#DejaVuSans-30" transform="translate(127.246094 0)"/>
      </g>
     </g>
    </g>
    <g id="text_16">
     <!-- [counts] -->
     <g transform="translate(14.798438 138.6925) rotate(-90) scale(0.1 -0.1)">
      <defs>
       <path id="DejaVuSans-63" d="M 3122 3366 
L 3122 2828 
Q 2878 2963 2633 3030 
Q 2388 3097 2138 3097 
Q 1578 3097 1268 2742 
Q 959 2388 959 1747 
Q 959 1106 1268 751 
Q 1578 397 2138 397 
Q 2388 397 2633 464 
Q 2878 531 3122 666 
L 3122 134 
Q 2881 22 2623 -34 
Q 2366 -91 2075 -91 
Q 1284 -91 818 406 
Q 353 903 353 1747 
Q 353 2603 823 3093 
Q 1294 3584 2113 3584 
Q 2378 3584 2631 3529 
Q 2884 3475 3122 3366 
z
" transform="scale(0.015625)"/>
       <path id="DejaVuSans-75" d="M 544 1381 
L 544 3500 
L 1119 3500 
L 1119 1403 
Q 1119 906 1312 657 
Q 1506 409 1894 409 
Q 2359 409 2629 706 
Q 2900 1003 2900 1516 
L 2900 3500 
L 3475 3500 
L 3475 0 
L 2900 0 
L 2900 538 
Q 2691 219 2414 64 
Q 2138 -91 1772 -91 
Q 1169 -91 856 284 
Q 544 659 544 1381 
z
M 1991 3584 
L 1991 3584 
z
" transform="scale(0.015625)"/>
       <path id="DejaVuSans-6e" d="M 3513 2113 
L 3513 0 
L 2938 0 
L 2938 2094 
Q 2938 2591 2744 2837 
Q 2550 3084 2163 3084 
Q 1697 3084 1428 2787 
Q 1159 2491 1159 1978 
L 1159 0 
L 581 0 
L 581 3500 
L 1159 3500 
L 1159 2956 
Q 1366 3272 1645 3428 
Q 1925 3584 2291 3584 
Q 2894 3584 3203 3211 
Q 3513 2838 3513 2113 
z
" transform="scale(0.015625)"/>
      </defs>
      <use xlink:href="#DejaVuSans-5b"/>
      <use xlink:href="#DejaVuSans-63" transform="translate(39.013672 0)"/>
      <use xlink:href="#DejaVuSans-6f" transform="translate(93.994141 0)"/>
      <use xlink:href="#DejaVuSans-75" transform="translate(155.175781 0)"/>
      <use xlink:href="#DejaVuSans-6e" transform="translate(218.554688 0)"/>
      <use xlink:href="#DejaVuSans-74" transform="translate(281.933594 0)"/>
      <use xlink:href="#DejaVuSans-73" transform="translate(321.142578 0)"/>
      <use xlink:href="#DejaVuSans-5d" transform="translate(373.242188 0)"/>
     </g>
    </g>
   </g>
   <g id="patch_3">
    <path d="M 46.965625 228.96 
L 46.965625 7.2 
" style="fill: none; stroke: #000000; stroke-width: 0.8; stroke-linejoin: miter; stroke-linecap: square"/>
   </g>
   <g id="patch_4">
    <path d="M 381.765625 228.96 
L 381.765625 7.2 
" style="fill: none; stroke: #000000; stroke-width: 0.8; stroke-linejoin: miter; stroke-linecap: square"/>
   </g>
   <g id="patch_5">
    <path d="M 46.965625 228.96 
L 381.765625 228.96 
" style="fill: none; stroke: #000000; stroke-width: 0.8; stroke-linejoin: miter; stroke-linecap: square"/>
   </g>
   <g id="patch_6">
    <path d="M 46.965625 7.2 
L 381.765625 7.2 
" style="fill: none; stroke: #000000; stroke-width: 0.8; stroke-linejoin: miter; stroke-linecap: square"/>
   </g>
   <g id="line2d_15">
    <path d="M 62.183807 214.031904 
L 63.198352 214.031904 
L 63.198352 210.79984 
L 64.212898 210.79984 
L 64.212898 205.547735 
L 65.227443 205.547735 
L 65.227443 200.699639 
L 66.241989 200.699639 
L 66.241989 190.195431 
L 67.256534 190.195431 
L 67.256534 195.447535 
L 68.27108 195.447535 
L 68.27108 183.731303 
L 69.285625 183.731303 
L 69.285625 191.407455 
L 70.30017 191.407455 
L 70.30017 179.287214 
L 71.314716 179.287214 
L 71.314716 169.591022 
L 72.329261 169.591022 
L 72.329261 169.99503 
L 73.343807 169.99503 
L 73.343807 161.91487 
L 74.358352 161.91487 
L 74.358352 156.258758 
L 75.372898 156.258758 
L 75.372898 146.158557 
L 76.387443 146.158557 
L 76.387443 142.522485 
L 77.401989 142.522485 
L 77.401989 144.946533 
L 78.416534 144.946533 
L 78.416534 133.230301 
L 79.43108 133.230301 
L 79.43108 132.826293 
L 80.445625 132.826293 
L 80.445625 114.645932 
L 81.46017 114.645932 
L 81.46017 122.726092 
L 82.474716 122.726092 
L 82.474716 106.161764 
L 83.489261 106.161764 
L 83.489261 108.98982 
L 84.503807 108.98982 
L 84.503807 98.485611 
L 85.518352 98.485611 
L 85.518352 90.405451 
L 86.532898 90.405451 
L 86.532898 99.293627 
L 87.547443 99.293627 
L 87.547443 96.061563 
L 88.561989 96.061563 
L 88.561989 102.121683 
L 89.576534 102.121683 
L 89.576534 80.709259 
L 90.59108 80.709259 
L 90.59108 88.789419 
L 91.605625 88.789419 
L 91.605625 90.405451 
L 92.62017 90.405451 
L 92.62017 66.568978 
L 93.634716 66.568978 
L 93.634716 72.629098 
L 95.663807 72.629098 
L 95.663807 67.781002 
L 96.678352 67.781002 
L 96.678352 66.16497 
L 97.692898 66.16497 
L 97.692898 48.792625 
L 98.707443 48.792625 
L 98.707443 72.22509 
L 99.721989 72.22509 
L 99.721989 41.116473 
L 100.736534 41.116473 
L 100.736534 49.196633 
L 101.75108 49.196633 
L 101.75108 32.228297 
L 102.765625 32.228297 
L 102.765625 48.388617 
L 103.78017 48.388617 
L 103.78017 44.752545 
L 104.794716 44.752545 
L 104.794716 54.448737 
L 105.809261 54.448737 
L 105.809261 37.076393 
L 106.823807 37.076393 
L 106.823807 34.652345 
L 107.838352 34.652345 
L 107.838352 27.784208 
L 108.852898 27.784208 
L 108.852898 28.188216 
L 109.867443 28.188216 
L 109.867443 29.40024 
L 110.881989 29.40024 
L 110.881989 18.492024 
L 111.896534 18.492024 
L 111.896534 25.36016 
L 112.91108 25.36016 
L 112.91108 22.936112 
L 113.925625 22.936112 
L 113.925625 17.28 
L 114.94017 17.28 
L 114.94017 31.016273 
L 115.954716 31.016273 
L 115.954716 35.056353 
L 116.969261 35.056353 
L 116.969261 34.652345 
L 117.983807 34.652345 
L 117.983807 28.996232 
L 118.998352 28.996232 
L 118.998352 29.804248 
L 120.012898 29.804248 
L 120.012898 30.208257 
L 121.027443 30.208257 
L 121.027443 29.40024 
L 122.041989 29.40024 
L 122.041989 38.288417 
L 123.056534 38.288417 
L 123.056534 41.116473 
L 124.07108 41.116473 
L 124.07108 46.772585 
L 125.085625 46.772585 
L 125.085625 24.956152 
L 126.10017 24.956152 
L 126.10017 44.752545 
L 128.129261 44.752545 
L 128.129261 40.712465 
L 129.143807 40.712465 
L 129.143807 62.528898 
L 130.158352 62.528898 
L 130.158352 33.440321 
L 131.172898 33.440321 
L 131.172898 57.276794 
L 132.187443 57.276794 
L 132.187443 58.488818 
L 133.201989 58.488818 
L 133.201989 61.316874 
L 134.216534 61.316874 
L 134.216534 26.572184 
L 135.23108 26.572184 
L 135.23108 48.388617 
L 136.245625 48.388617 
L 136.245625 50.004649 
L 137.26017 50.004649 
L 137.26017 65.760962 
L 138.274716 65.760962 
L 138.274716 50.812665 
L 139.289261 50.812665 
L 139.289261 52.428697 
L 140.303807 52.428697 
L 140.303807 59.700842 
L 141.318352 59.700842 
L 141.318352 81.517275 
L 142.332898 81.517275 
L 142.332898 58.892826 
L 143.347443 58.892826 
L 143.347443 50.004649 
L 144.361989 50.004649 
L 144.361989 65.760962 
L 145.376534 65.760962 
L 145.376534 35.056353 
L 146.39108 35.056353 
L 146.39108 68.589018 
L 147.405625 68.589018 
L 147.405625 58.08481 
L 148.42017 58.08481 
L 148.42017 58.488818 
L 149.434716 58.488818 
L 149.434716 60.10485 
L 150.449261 60.10485 
L 150.449261 73.437114 
L 151.463807 73.437114 
L 151.463807 55.660762 
L 153.492898 55.660762 
L 153.492898 58.08481 
L 154.507443 58.08481 
L 154.507443 75.861162 
L 155.521989 75.861162 
L 155.521989 60.508858 
L 156.536534 60.508858 
L 156.536534 76.26517 
L 157.55108 76.26517 
L 157.55108 68.993026 
L 158.565625 68.993026 
L 158.565625 70.20505 
L 159.58017 70.20505 
L 159.58017 71.821082 
L 160.594716 71.821082 
L 160.594716 66.972986 
L 161.609261 66.972986 
L 161.609261 73.033106 
L 162.623807 73.033106 
L 162.623807 73.437114 
L 163.638352 73.437114 
L 163.638352 79.497234 
L 164.652898 79.497234 
L 164.652898 68.993026 
L 165.667443 68.993026 
L 165.667443 57.680802 
L 166.681989 57.680802 
L 166.681989 63.740922 
L 167.696534 63.740922 
L 167.696534 65.760962 
L 168.71108 65.760962 
L 168.71108 79.093226 
L 169.725625 79.093226 
L 169.725625 83.133307 
L 170.74017 83.133307 
L 170.74017 79.901242 
L 171.754716 79.901242 
L 171.754716 71.013066 
L 172.769261 71.013066 
L 172.769261 74.649138 
L 173.783807 74.649138 
L 173.783807 71.821082 
L 174.798352 71.821082 
L 174.798352 76.26517 
L 175.812898 76.26517 
L 175.812898 83.537315 
L 176.827443 83.537315 
L 176.827443 79.497234 
L 177.841989 79.497234 
L 177.841989 81.113267 
L 178.856534 81.113267 
L 178.856534 82.729299 
L 179.87108 82.729299 
L 179.87108 93.233507 
L 180.885625 93.233507 
L 180.885625 96.465571 
L 181.90017 96.465571 
L 181.90017 112.221884 
L 182.914716 112.221884 
L 182.914716 87.173387 
L 183.929261 87.173387 
L 183.929261 111.00986 
L 184.943807 111.00986 
L 184.943807 109.393828 
L 185.958352 109.393828 
L 185.958352 115.857956 
L 186.972898 115.857956 
L 186.972898 116.665972 
L 187.987443 116.665972 
L 187.987443 132.826293 
L 189.001989 132.826293 
L 189.001989 138.482405 
L 190.016534 138.482405 
L 190.016534 139.290421 
L 191.03108 139.290421 
L 191.03108 151.814669 
L 192.045625 151.814669 
L 192.045625 153.026693 
L 193.06017 153.026693 
L 193.06017 153.430701 
L 194.074716 153.430701 
L 194.074716 156.258758 
L 195.089261 156.258758 
L 195.089261 166.358958 
L 196.103807 166.358958 
L 196.103807 171.611062 
L 197.118352 171.611062 
L 197.118352 175.247134 
L 198.132898 175.247134 
L 198.132898 178.479198 
L 199.147443 178.479198 
L 199.147443 183.327295 
L 200.161989 183.327295 
L 200.161989 190.195431 
L 201.176534 190.195431 
L 201.176534 189.387415 
L 202.19108 189.387415 
L 202.19108 194.639519 
L 203.205625 194.639519 
L 203.205625 206.75976 
L 204.22017 206.75976 
L 204.22017 203.123687 
L 205.234716 203.123687 
L 205.234716 206.355752 
L 206.249261 206.355752 
L 206.249261 209.991824 
L 207.263807 209.991824 
L 207.263807 211.203848 
L 208.278352 211.203848 
L 208.278352 214.031904 
L 209.292898 214.031904 
L 209.292898 215.647936 
L 210.307443 215.647936 
L 210.307443 218.475992 
L 211.321989 218.475992 
L 211.321989 218.071984 
L 212.336534 218.071984 
L 212.336534 213.627896 
L 213.35108 213.627896 
L 213.35108 207.567776 
L 214.365625 207.567776 
L 214.365625 202.719679 
L 215.38017 202.719679 
L 215.38017 198.679599 
L 216.394716 198.679599 
L 216.394716 197.063567 
L 217.409261 197.063567 
L 217.409261 189.791423 
L 218.423807 189.791423 
L 218.423807 182.115271 
L 219.438352 182.115271 
L 219.438352 180.499238 
L 221.467443 180.499238 
L 221.467443 168.378998 
L 222.481989 168.378998 
L 222.481989 176.863166 
L 223.496534 176.863166 
L 223.496534 165.146934 
L 224.51108 165.146934 
L 224.51108 163.126894 
L 225.525625 163.126894 
L 225.525625 169.187014 
L 226.54017 169.187014 
L 226.54017 166.358958 
L 227.554716 166.358958 
L 227.554716 159.490822 
L 228.569261 159.490822 
L 228.569261 148.986613 
L 229.583807 148.986613 
L 229.583807 152.622685 
L 230.598352 152.622685 
L 230.598352 153.430701 
L 231.612898 153.430701 
L 231.612898 147.370581 
L 232.627443 147.370581 
L 232.627443 144.138517 
L 233.641989 144.138517 
L 233.641989 135.250341 
L 234.656534 135.250341 
L 234.656534 145.350541 
L 235.67108 145.350541 
L 235.67108 124.342124 
L 236.685625 124.342124 
L 236.685625 126.766172 
L 237.70017 126.766172 
L 237.70017 130.402244 
L 238.714716 130.402244 
L 238.714716 124.746132 
L 239.729261 124.746132 
L 239.729261 129.998236 
L 240.743807 129.998236 
L 240.743807 132.422285 
L 241.758352 132.422285 
L 241.758352 125.15014 
L 242.772898 125.15014 
L 242.772898 114.241924 
L 243.787443 114.241924 
L 243.787443 115.04994 
L 244.801989 115.04994 
L 244.801989 111.00986 
L 245.816534 111.00986 
L 245.816534 124.746132 
L 246.83108 124.746132 
L 246.83108 108.181804 
L 247.845625 108.181804 
L 247.845625 104.949739 
L 248.86017 104.949739 
L 248.86017 92.425491 
L 249.874716 92.425491 
L 249.874716 97.677595 
L 250.889261 97.677595 
L 250.889261 85.961363 
L 251.903807 85.961363 
L 251.903807 87.981403 
L 252.918352 87.981403 
L 252.918352 106.565772 
L 253.932898 106.565772 
L 253.932898 86.769379 
L 254.947443 86.769379 
L 254.947443 101.717675 
L 255.961989 101.717675 
L 255.961989 83.133307 
L 256.976534 83.133307 
L 256.976534 90.405451 
L 257.99108 90.405451 
L 257.99108 88.385411 
L 259.005625 88.385411 
L 259.005625 98.485611 
L 260.02017 98.485611 
L 260.02017 97.273587 
L 261.034716 97.273587 
L 261.034716 80.709259 
L 262.049261 80.709259 
L 262.049261 77.881202 
L 263.063807 77.881202 
L 263.063807 94.445531 
L 264.078352 94.445531 
L 264.078352 88.789419 
L 265.092898 88.789419 
L 265.092898 92.829499 
L 266.107443 92.829499 
L 266.107443 90.809459 
L 267.121989 90.809459 
L 267.121989 96.061563 
L 268.136534 96.061563 
L 268.136534 103.737715 
L 269.15108 103.737715 
L 269.15108 97.677595 
L 270.165625 97.677595 
L 270.165625 83.941323 
L 271.18017 83.941323 
L 271.18017 100.505651 
L 272.194716 100.505651 
L 272.194716 101.717675 
L 273.209261 101.717675 
L 273.209261 112.625892 
L 274.223807 112.625892 
L 274.223807 103.333707 
L 275.238352 103.333707 
L 275.238352 95.253547 
L 276.252898 95.253547 
L 276.252898 90.001443 
L 277.267443 90.001443 
L 277.267443 93.233507 
L 278.281989 93.233507 
L 278.281989 106.565772 
L 279.296534 106.565772 
L 279.296534 104.545731 
L 280.31108 104.545731 
L 280.31108 101.313667 
L 281.325625 101.313667 
L 281.325625 111.413868 
L 282.34017 111.413868 
L 282.34017 103.333707 
L 283.354716 103.333707 
L 283.354716 97.677595 
L 284.369261 97.677595 
L 284.369261 96.869579 
L 285.383807 96.869579 
L 285.383807 118.686012 
L 286.398352 118.686012 
L 286.398352 108.585812 
L 287.412898 108.585812 
L 287.412898 116.261964 
L 288.427443 116.261964 
L 288.427443 109.393828 
L 289.441989 109.393828 
L 289.441989 112.221884 
L 290.456534 112.221884 
L 290.456534 122.322084 
L 291.47108 122.322084 
L 291.47108 121.918076 
L 293.50017 121.918076 
L 293.50017 105.757756 
L 294.514716 105.757756 
L 294.514716 127.17018 
L 295.529261 127.17018 
L 295.529261 134.846333 
L 296.543807 134.846333 
L 296.543807 130.806253 
L 297.558352 130.806253 
L 297.558352 129.594228 
L 298.572898 129.594228 
L 298.572898 130.806253 
L 299.587443 130.806253 
L 299.587443 119.09002 
L 300.601989 119.09002 
L 300.601989 126.362164 
L 301.616534 126.362164 
L 301.616534 122.322084 
L 302.63108 122.322084 
L 302.63108 118.282004 
L 303.645625 118.282004 
L 303.645625 131.614269 
L 304.66017 131.614269 
L 304.66017 142.118477 
L 305.674716 142.118477 
L 305.674716 136.058357 
L 306.689261 136.058357 
L 306.689261 126.362164 
L 307.703807 126.362164 
L 307.703807 146.158557 
L 308.718352 146.158557 
L 308.718352 148.178597 
L 309.732898 148.178597 
L 309.732898 137.674389 
L 310.747443 137.674389 
L 310.747443 140.906453 
L 311.761989 140.906453 
L 311.761989 134.846333 
L 312.776534 134.846333 
L 312.776534 148.582605 
L 313.79108 148.582605 
L 313.79108 140.906453 
L 314.805625 140.906453 
L 314.805625 148.178597 
L 315.82017 148.178597 
L 315.82017 133.634309 
L 316.834716 133.634309 
L 316.834716 150.602645 
L 317.849261 150.602645 
L 317.849261 146.158557 
L 318.863807 146.158557 
L 318.863807 145.350541 
L 319.878352 145.350541 
L 319.878352 154.642725 
L 320.892898 154.642725 
L 320.892898 153.834709 
L 321.907443 153.834709 
L 321.907443 151.814669 
L 322.921989 151.814669 
L 322.921989 162.318878 
L 324.95108 162.318878 
L 324.95108 168.783006 
L 325.965625 168.783006 
L 325.965625 161.510862 
L 326.98017 161.510862 
L 326.98017 162.722886 
L 327.994716 162.722886 
L 327.994716 165.146934 
L 329.009261 165.146934 
L 329.009261 166.762966 
L 330.023807 166.762966 
L 330.023807 161.510862 
L 331.038352 161.510862 
L 331.038352 168.783006 
L 332.052898 168.783006 
L 332.052898 173.631102 
L 333.067443 173.631102 
L 333.067443 181.307255 
L 334.081989 181.307255 
L 334.081989 170.399038 
L 335.096534 170.399038 
L 335.096534 177.267174 
L 336.11108 177.267174 
L 336.11108 186.963367 
L 337.125625 186.963367 
L 337.125625 184.539319 
L 338.14017 184.539319 
L 338.14017 184.135311 
L 339.154716 184.135311 
L 339.154716 182.519279 
L 340.169261 182.519279 
L 340.169261 188.175391 
L 341.183807 188.175391 
L 341.183807 188.983407 
L 342.198352 188.983407 
L 342.198352 198.275591 
L 343.212898 198.275591 
L 343.212898 199.083607 
L 344.227443 199.083607 
L 344.227443 195.851543 
L 345.241989 195.851543 
L 345.241989 201.507655 
L 346.256534 201.507655 
L 346.256534 197.871583 
L 347.27108 197.871583 
L 347.27108 202.719679 
L 348.285625 202.719679 
L 348.285625 205.547735 
L 349.30017 205.547735 
L 349.30017 208.7798 
L 350.314716 208.7798 
L 350.314716 203.931703 
L 351.329261 203.931703 
L 351.329261 205.951743 
L 352.343807 205.951743 
L 352.343807 211.203848 
L 353.358352 211.203848 
L 353.358352 208.7798 
L 354.372898 208.7798 
L 354.372898 212.81988 
L 356.401989 212.81988 
L 356.401989 214.83992 
L 357.416534 214.83992 
L 357.416534 215.243928 
L 358.43108 215.243928 
L 358.43108 213.627896 
L 359.445625 213.627896 
L 359.445625 215.647936 
L 360.46017 215.647936 
L 360.46017 214.83992 
L 361.474716 214.83992 
L 361.474716 217.667976 
L 362.489261 217.667976 
L 362.489261 218.071984 
L 363.503807 218.071984 
L 363.503807 218.475992 
L 364.518352 218.475992 
L 364.518352 218.88 
L 365.532898 218.88 
L 365.532898 218.475992 
L 366.547443 218.475992 
L 366.547443 218.475992 
" clip-path="url(#p8e21a1a2c6)" style="fill: none; stroke: #1f77b4; stroke-width: 1.5; stroke-linecap: square"/>
   </g>
  </g>
 </g>
 <defs>
  <clipPath id="p8e21a1a2c6">
   <rect x="46.965625" y="7.2" width="334.8" height="221.76"/>
  </clipPath>
 </defs>
</svg>
