<?xml version="1.0" encoding="utf-8" standalone="no"?>
<!DOCTYPE svg PUBLIC "-//W3C//DTD SVG 1.1//EN"
  "http://www.w3.org/Graphics/SVG/1.1/DTD/svg11.dtd">
<svg xmlns:xlink="http://www.w3.org/1999/xlink" width="395.328125pt" height="266.51625pt" viewBox="0 0 395.328125 266.51625" xmlns="http://www.w3.org/2000/svg" version="1.1">
 <metadata>
  <rdf:RDF xmlns:dc="http://purl.org/dc/elements/1.1/" xmlns:cc="http://creativecommons.org/ns#" xmlns:rdf="http://www.w3.org/1999/02/22-rdf-syntax-ns#">
   <cc:Work>
    <dc:type rdf:resource="http://purl.org/dc/dcmitype/StillImage"/>
    <dc:date>2025-05-26T10:50:21.732570</dc:date>
    <dc:format>image/svg+xml</dc:format>
    <dc:creator>
     <cc:Agent>
      <dc:title>Matplotlib v3.10.3, https://matplotlib.org/</dc:title>
     </cc:Agent>
    </dc:creator>
   </cc:Work>
  </rdf:RDF>
 </metadata>
 <defs>
  <style type="text/css">*{stroke-linejoin: round; stroke-linecap: butt}</style>
 </defs>
 <g id="figure_1">
  <g id="patch_1">
   <path d="M 0 266.51625 
L 395.328125 266.51625 
L 395.328125 0 
L 0 0 
z
" style="fill: #ffffff"/>
  </g>
  <g id="axes_1">
   <g id="patch_2">
    <path d="M 53.328125 228.96 
L 388.128125 228.96 
L 388.128125 7.2 
L 53.328125 7.2 
z
" style="fill: #ffffff"/>
   </g>
   <g id="matplotlib.axis_1">
    <g id="xtick_1">
     <g id="line2d_1">
      <defs>
       <path id="mf143c1e39c" d="M 0 0 
L 0 3.5 
" style="stroke: #000000; stroke-width: 0.8"/>
      </defs>
      <g>
       <use xlink:href="#mf143c1e39c" x="109.920028" y="228.96" style="stroke: #000000; stroke-width: 0.8"/>
      </g>
     </g>
     <g id="text_1">
      <!-- 20000 -->
      <g transform="translate(94.013778 243.558437) scale(0.1 -0.1)">
       <defs>
        <path id="DejaVuSans-32" d="M 1228 531 
L 3431 531 
L 3431 0 
L 469 0 
L 469 531 
Q 828 903 1448 1529 
Q 2069 2156 2228 2338 
Q 2531 2678 2651 2914 
Q 2772 3150 2772 3378 
Q 2772 3750 2511 3984 
Q 2250 4219 1831 4219 
Q 1534 4219 1204 4116 
Q 875 4013 500 3803 
L 500 4441 
Q 881 4594 1212 4672 
Q 1544 4750 1819 4750 
Q 2544 4750 2975 4387 
Q 3406 4025 3406 3419 
Q 3406 3131 3298 2873 
Q 3191 2616 2906 2266 
Q 2828 2175 2409 1742 
Q 1991 1309 1228 531 
z
" transform="scale(0.015625)"/>
        <path id="DejaVuSans-30" d="M 2034 4250 
Q 1547 4250 1301 3770 
Q 1056 3291 1056 2328 
Q 1056 1369 1301 889 
Q 1547 409 2034 409 
Q 2525 409 2770 889 
Q 3016 1369 3016 2328 
Q 3016 3291 2770 3770 
Q 2525 4250 2034 4250 
z
M 2034 4750 
Q 2819 4750 3233 4129 
Q 3647 3509 3647 2328 
Q 3647 1150 3233 529 
Q 2819 -91 2034 -91 
Q 1250 -91 836 529 
Q 422 1150 422 2328 
Q 422 3509 836 4129 
Q 1250 4750 2034 4750 
z
" transform="scale(0.015625)"/>
       </defs>
       <use xlink:href="#DejaVuSans-32"/>
       <use xlink:href="#DejaVuSans-30" transform="translate(63.623047 0)"/>
       <use xlink:href="#DejaVuSans-30" transform="translate(127.246094 0)"/>
       <use xlink:href="#DejaVuSans-30" transform="translate(190.869141 0)"/>
       <use xlink:href="#DejaVuSans-30" transform="translate(254.492188 0)"/>
      </g>
     </g>
    </g>
    <g id="xtick_2">
     <g id="line2d_2">
      <g>
       <use xlink:href="#mf143c1e39c" x="172.293669" y="228.96" style="stroke: #000000; stroke-width: 0.8"/>
      </g>
     </g>
     <g id="text_2">
      <!-- 30000 -->
      <g transform="translate(156.387419 243.558437) scale(0.1 -0.1)">
       <defs>
        <path id="DejaVuSans-33" d="M 2597 2516 
Q 3050 2419 3304 2112 
Q 3559 1806 3559 1356 
Q 3559 666 3084 287 
Q 2609 -91 1734 -91 
Q 1441 -91 1130 -33 
Q 819 25 488 141 
L 488 750 
Q 750 597 1062 519 
Q 1375 441 1716 441 
Q 2309 441 2620 675 
Q 2931 909 2931 1356 
Q 2931 1769 2642 2001 
Q 2353 2234 1838 2234 
L 1294 2234 
L 1294 2753 
L 1863 2753 
Q 2328 2753 2575 2939 
Q 2822 3125 2822 3475 
Q 2822 3834 2567 4026 
Q 2313 4219 1838 4219 
Q 1578 4219 1281 4162 
Q 984 4106 628 3988 
L 628 4550 
Q 988 4650 1302 4700 
Q 1616 4750 1894 4750 
Q 2613 4750 3031 4423 
Q 3450 4097 3450 3541 
Q 3450 3153 3228 2886 
Q 3006 2619 2597 2516 
z
" transform="scale(0.015625)"/>
       </defs>
       <use xlink:href="#DejaVuSans-33"/>
       <use xlink:href="#DejaVuSans-30" transform="translate(63.623047 0)"/>
       <use xlink:href="#DejaVuSans-30" transform="translate(127.246094 0)"/>
       <use xlink:href="#DejaVuSans-30" transform="translate(190.869141 0)"/>
       <use xlink:href="#DejaVuSans-30" transform="translate(254.492188 0)"/>
      </g>
     </g>
    </g>
    <g id="xtick_3">
     <g id="line2d_3">
      <g>
       <use xlink:href="#mf143c1e39c" x="234.667311" y="228.96" style="stroke: #000000; stroke-width: 0.8"/>
      </g>
     </g>
     <g id="text_3">
      <!-- 40000 -->
      <g transform="translate(218.761061 243.558437) scale(0.1 -0.1)">
       <defs>
        <path id="DejaVuSans-34" d="M 2419 4116 
L 825 1625 
L 2419 1625 
L 2419 4116 
z
M 2253 4666 
L 3047 4666 
L 3047 1625 
L 3713 1625 
L 3713 1100 
L 3047 1100 
L 3047 0 
L 2419 0 
L 2419 1100 
L 313 1100 
L 313 1709 
L 2253 4666 
z
" transform="scale(0.015625)"/>
       </defs>
       <use xlink:href="#DejaVuSans-34"/>
       <use xlink:href="#DejaVuSans-30" transform="translate(63.623047 0)"/>
       <use xlink:href="#DejaVuSans-30" transform="translate(127.246094 0)"/>
       <use xlink:href="#DejaVuSans-30" transform="translate(190.869141 0)"/>
       <use xlink:href="#DejaVuSans-30" transform="translate(254.492188 0)"/>
      </g>
     </g>
    </g>
    <g id="xtick_4">
     <g id="line2d_4">
      <g>
       <use xlink:href="#mf143c1e39c" x="297.040952" y="228.96" style="stroke: #000000; stroke-width: 0.8"/>
      </g>
     </g>
     <g id="text_4">
      <!-- 50000 -->
      <g transform="translate(281.134702 243.558437) scale(0.1 -0.1)">
       <defs>
        <path id="DejaVuSans-35" d="M 691 4666 
L 3169 4666 
L 3169 4134 
L 1269 4134 
L 1269 2991 
Q 1406 3038 1543 3061 
Q 1681 3084 1819 3084 
Q 2600 3084 3056 2656 
Q 3513 2228 3513 1497 
Q 3513 744 3044 326 
Q 2575 -91 1722 -91 
Q 1428 -91 1123 -41 
Q 819 9 494 109 
L 494 744 
Q 775 591 1075 516 
Q 1375 441 1709 441 
Q 2250 441 2565 725 
Q 2881 1009 2881 1497 
Q 2881 1984 2565 2268 
Q 2250 2553 1709 2553 
Q 1456 2553 1204 2497 
Q 953 2441 691 2322 
L 691 4666 
z
" transform="scale(0.015625)"/>
       </defs>
       <use xlink:href="#DejaVuSans-35"/>
       <use xlink:href="#DejaVuSans-30" transform="translate(63.623047 0)"/>
       <use xlink:href="#DejaVuSans-30" transform="translate(127.246094 0)"/>
       <use xlink:href="#DejaVuSans-30" transform="translate(190.869141 0)"/>
       <use xlink:href="#DejaVuSans-30" transform="translate(254.492188 0)"/>
      </g>
     </g>
    </g>
    <g id="xtick_5">
     <g id="line2d_5">
      <g>
       <use xlink:href="#mf143c1e39c" x="359.414594" y="228.96" style="stroke: #000000; stroke-width: 0.8"/>
      </g>
     </g>
     <g id="text_5">
      <!-- 60000 -->
      <g transform="translate(343.508344 243.558437) scale(0.1 -0.1)">
       <defs>
        <path id="DejaVuSans-36" d="M 2113 2584 
Q 1688 2584 1439 2293 
Q 1191 2003 1191 1497 
Q 1191 994 1439 701 
Q 1688 409 2113 409 
Q 2538 409 2786 701 
Q 3034 994 3034 1497 
Q 3034 2003 2786 2293 
Q 2538 2584 2113 2584 
z
M 3366 4563 
L 3366 3988 
Q 3128 4100 2886 4159 
Q 2644 4219 2406 4219 
Q 1781 4219 1451 3797 
Q 1122 3375 1075 2522 
Q 1259 2794 1537 2939 
Q 1816 3084 2150 3084 
Q 2853 3084 3261 2657 
Q 3669 2231 3669 1497 
Q 3669 778 3244 343 
Q 2819 -91 2113 -91 
Q 1303 -91 875 529 
Q 447 1150 447 2328 
Q 447 3434 972 4092 
Q 1497 4750 2381 4750 
Q 2619 4750 2861 4703 
Q 3103 4656 3366 4563 
z
" transform="scale(0.015625)"/>
       </defs>
       <use xlink:href="#DejaVuSans-36"/>
       <use xlink:href="#DejaVuSans-30" transform="translate(63.623047 0)"/>
       <use xlink:href="#DejaVuSans-30" transform="translate(127.246094 0)"/>
       <use xlink:href="#DejaVuSans-30" transform="translate(190.869141 0)"/>
       <use xlink:href="#DejaVuSans-30" transform="translate(254.492188 0)"/>
      </g>
     </g>
    </g>
    <g id="text_6">
     <!-- tof [µs] -->
     <g transform="translate(202.671875 257.236562) scale(0.1 -0.1)">
      <defs>
       <path id="DejaVuSans-74" d="M 1172 4494 
L 1172 3500 
L 2356 3500 
L 2356 3053 
L 1172 3053 
L 1172 1153 
Q 1172 725 1289 603 
Q 1406 481 1766 481 
L 2356 481 
L 2356 0 
L 1766 0 
Q 1100 0 847 248 
Q 594 497 594 1153 
L 594 3053 
L 172 3053 
L 172 3500 
L 594 3500 
L 594 4494 
L 1172 4494 
z
" transform="scale(0.015625)"/>
       <path id="DejaVuSans-6f" d="M 1959 3097 
Q 1497 3097 1228 2736 
Q 959 2375 959 1747 
Q 959 1119 1226 758 
Q 1494 397 1959 397 
Q 2419 397 2687 759 
Q 2956 1122 2956 1747 
Q 2956 2369 2687 2733 
Q 2419 3097 1959 3097 
z
M 1959 3584 
Q 2709 3584 3137 3096 
Q 3566 2609 3566 1747 
Q 3566 888 3137 398 
Q 2709 -91 1959 -91 
Q 1206 -91 779 398 
Q 353 888 353 1747 
Q 353 2609 779 3096 
Q 1206 3584 1959 3584 
z
" transform="scale(0.015625)"/>
       <path id="DejaVuSans-66" d="M 2375 4863 
L 2375 4384 
L 1825 4384 
Q 1516 4384 1395 4259 
Q 1275 4134 1275 3809 
L 1275 3500 
L 2222 3500 
L 2222 3053 
L 1275 3053 
L 1275 0 
L 697 0 
L 697 3053 
L 147 3053 
L 147 3500 
L 697 3500 
L 697 3744 
Q 697 4328 969 4595 
Q 1241 4863 1831 4863 
L 2375 4863 
z
" transform="scale(0.015625)"/>
       <path id="DejaVuSans-20" transform="scale(0.015625)"/>
       <path id="DejaVuSans-5b" d="M 550 4863 
L 1875 4863 
L 1875 4416 
L 1125 4416 
L 1125 -397 
L 1875 -397 
L 1875 -844 
L 550 -844 
L 550 4863 
z
" transform="scale(0.015625)"/>
       <path id="DejaVuSans-b5" d="M 544 -1331 
L 544 3500 
L 1119 3500 
L 1119 1325 
Q 1119 872 1334 640 
Q 1550 409 1972 409 
Q 2434 409 2667 671 
Q 2900 934 2900 1459 
L 2900 3500 
L 3475 3500 
L 3475 806 
Q 3475 619 3529 530 
Q 3584 441 3700 441 
Q 3728 441 3778 458 
Q 3828 475 3916 513 
L 3916 50 
Q 3788 -22 3673 -56 
Q 3559 -91 3450 -91 
Q 3234 -91 3106 31 
Q 2978 153 2931 403 
Q 2775 156 2548 32 
Q 2322 -91 2016 -91 
Q 1697 -91 1473 31 
Q 1250 153 1119 397 
L 1119 -1331 
L 544 -1331 
z
" transform="scale(0.015625)"/>
       <path id="DejaVuSans-73" d="M 2834 3397 
L 2834 2853 
Q 2591 2978 2328 3040 
Q 2066 3103 1784 3103 
Q 1356 3103 1142 2972 
Q 928 2841 928 2578 
Q 928 2378 1081 2264 
Q 1234 2150 1697 2047 
L 1894 2003 
Q 2506 1872 2764 1633 
Q 3022 1394 3022 966 
Q 3022 478 2636 193 
Q 2250 -91 1575 -91 
Q 1294 -91 989 -36 
Q 684 19 347 128 
L 347 722 
Q 666 556 975 473 
Q 1284 391 1588 391 
Q 1994 391 2212 530 
Q 2431 669 2431 922 
Q 2431 1156 2273 1281 
Q 2116 1406 1581 1522 
L 1381 1569 
Q 847 1681 609 1914 
Q 372 2147 372 2553 
Q 372 3047 722 3315 
Q 1072 3584 1716 3584 
Q 2034 3584 2315 3537 
Q 2597 3491 2834 3397 
z
" transform="scale(0.015625)"/>
       <path id="DejaVuSans-5d" d="M 1947 4863 
L 1947 -844 
L 622 -844 
L 622 -397 
L 1369 -397 
L 1369 4416 
L 622 4416 
L 622 4863 
L 1947 4863 
z
" transform="scale(0.015625)"/>
      </defs>
      <use xlink:href="#DejaVuSans-74"/>
      <use xlink:href="#DejaVuSans-6f" transform="translate(39.208984 0)"/>
      <use xlink:href="#DejaVuSans-66" transform="translate(100.390625 0)"/>
      <use xlink:href="#DejaVuSans-20" transform="translate(135.595703 0)"/>
      <use xlink:href="#DejaVuSans-5b" transform="translate(167.382812 0)"/>
      <use xlink:href="#DejaVuSans-b5" transform="translate(206.396484 0)"/>
      <use xlink:href="#DejaVuSans-73" transform="translate(270.019531 0)"/>
      <use xlink:href="#DejaVuSans-5d" transform="translate(322.119141 0)"/>
     </g>
    </g>
   </g>
   <g id="matplotlib.axis_2">
    <g id="ytick_1">
     <g id="line2d_6">
      <defs>
       <path id="m9dc9e527d4" d="M 0 0 
L -3.5 0 
" style="stroke: #000000; stroke-width: 0.8"/>
      </defs>
      <g>
       <use xlink:href="#m9dc9e527d4" x="53.328125" y="219.534811" style="stroke: #000000; stroke-width: 0.8"/>
      </g>
     </g>
     <g id="text_7">
      <!-- 0 -->
      <g transform="translate(39.965625 223.33403) scale(0.1 -0.1)">
       <use xlink:href="#DejaVuSans-30"/>
      </g>
     </g>
    </g>
    <g id="ytick_2">
     <g id="line2d_7">
      <g>
       <use xlink:href="#m9dc9e527d4" x="53.328125" y="178.609111" style="stroke: #000000; stroke-width: 0.8"/>
      </g>
     </g>
     <g id="text_8">
      <!-- 500 -->
      <g transform="translate(27.240625 182.40833) scale(0.1 -0.1)">
       <use xlink:href="#DejaVuSans-35"/>
       <use xlink:href="#DejaVuSans-30" transform="translate(63.623047 0)"/>
       <use xlink:href="#DejaVuSans-30" transform="translate(127.246094 0)"/>
      </g>
     </g>
    </g>
    <g id="ytick_3">
     <g id="line2d_8">
      <g>
       <use xlink:href="#m9dc9e527d4" x="53.328125" y="137.68341" style="stroke: #000000; stroke-width: 0.8"/>
      </g>
     </g>
     <g id="text_9">
      <!-- 1000 -->
      <g transform="translate(20.878125 141.482629) scale(0.1 -0.1)">
       <defs>
        <path id="DejaVuSans-31" d="M 794 531 
L 1825 531 
L 1825 4091 
L 703 3866 
L 703 4441 
L 1819 4666 
L 2450 4666 
L 2450 531 
L 3481 531 
L 3481 0 
L 794 0 
L 794 531 
z
" transform="scale(0.015625)"/>
       </defs>
       <use xlink:href="#DejaVuSans-31"/>
       <use xlink:href="#DejaVuSans-30" transform="translate(63.623047 0)"/>
       <use xlink:href="#DejaVuSans-30" transform="translate(127.246094 0)"/>
       <use xlink:href="#DejaVuSans-30" transform="translate(190.869141 0)"/>
      </g>
     </g>
    </g>
    <g id="ytick_4">
     <g id="line2d_9">
      <g>
       <use xlink:href="#m9dc9e527d4" x="53.328125" y="96.75771" style="stroke: #000000; stroke-width: 0.8"/>
      </g>
     </g>
     <g id="text_10">
      <!-- 1500 -->
      <g transform="translate(20.878125 100.556929) scale(0.1 -0.1)">
       <use xlink:href="#DejaVuSans-31"/>
       <use xlink:href="#DejaVuSans-35" transform="translate(63.623047 0)"/>
       <use xlink:href="#DejaVuSans-30" transform="translate(127.246094 0)"/>
       <use xlink:href="#DejaVuSans-30" transform="translate(190.869141 0)"/>
      </g>
     </g>
    </g>
    <g id="ytick_5">
     <g id="line2d_10">
      <g>
       <use xlink:href="#m9dc9e527d4" x="53.328125" y="55.83201" style="stroke: #000000; stroke-width: 0.8"/>
      </g>
     </g>
     <g id="text_11">
      <!-- 2000 -->
      <g transform="translate(20.878125 59.631228) scale(0.1 -0.1)">
       <use xlink:href="#DejaVuSans-32"/>
       <use xlink:href="#DejaVuSans-30" transform="translate(63.623047 0)"/>
       <use xlink:href="#DejaVuSans-30" transform="translate(127.246094 0)"/>
       <use xlink:href="#DejaVuSans-30" transform="translate(190.869141 0)"/>
      </g>
     </g>
    </g>
    <g id="ytick_6">
     <g id="line2d_11">
      <g>
       <use xlink:href="#m9dc9e527d4" x="53.328125" y="14.906309" style="stroke: #000000; stroke-width: 0.8"/>
      </g>
     </g>
     <g id="text_12">
      <!-- 2500 -->
      <g transform="translate(20.878125 18.705528) scale(0.1 -0.1)">
       <use xlink:href="#DejaVuSans-32"/>
       <use xlink:href="#DejaVuSans-35" transform="translate(63.623047 0)"/>
       <use xlink:href="#DejaVuSans-30" transform="translate(127.246094 0)"/>
       <use xlink:href="#DejaVuSans-30" transform="translate(190.869141 0)"/>
      </g>
     </g>
    </g>
    <g id="text_13">
     <!-- [counts] -->
     <g transform="translate(14.798438 138.6925) rotate(-90) scale(0.1 -0.1)">
      <defs>
       <path id="DejaVuSans-63" d="M 3122 3366 
L 3122 2828 
Q 2878 2963 2633 3030 
Q 2388 3097 2138 3097 
Q 1578 3097 1268 2742 
Q 959 2388 959 1747 
Q 959 1106 1268 751 
Q 1578 397 2138 397 
Q 2388 397 2633 464 
Q 2878 531 3122 666 
L 3122 134 
Q 2881 22 2623 -34 
Q 2366 -91 2075 -91 
Q 1284 -91 818 406 
Q 353 903 353 1747 
Q 353 2603 823 3093 
Q 1294 3584 2113 3584 
Q 2378 3584 2631 3529 
Q 2884 3475 3122 3366 
z
" transform="scale(0.015625)"/>
       <path id="DejaVuSans-75" d="M 544 1381 
L 544 3500 
L 1119 3500 
L 1119 1403 
Q 1119 906 1312 657 
Q 1506 409 1894 409 
Q 2359 409 2629 706 
Q 2900 1003 2900 1516 
L 2900 3500 
L 3475 3500 
L 3475 0 
L 2900 0 
L 2900 538 
Q 2691 219 2414 64 
Q 2138 -91 1772 -91 
Q 1169 -91 856 284 
Q 544 659 544 1381 
z
M 1991 3584 
L 1991 3584 
z
" transform="scale(0.015625)"/>
       <path id="DejaVuSans-6e" d="M 3513 2113 
L 3513 0 
L 2938 0 
L 2938 2094 
Q 2938 2591 2744 2837 
Q 2550 3084 2163 3084 
Q 1697 3084 1428 2787 
Q 1159 2491 1159 1978 
L 1159 0 
L 581 0 
L 581 3500 
L 1159 3500 
L 1159 2956 
Q 1366 3272 1645 3428 
Q 1925 3584 2291 3584 
Q 2894 3584 3203 3211 
Q 3513 2838 3513 2113 
z
" transform="scale(0.015625)"/>
      </defs>
      <use xlink:href="#DejaVuSans-5b"/>
      <use xlink:href="#DejaVuSans-63" transform="translate(39.013672 0)"/>
      <use xlink:href="#DejaVuSans-6f" transform="translate(93.994141 0)"/>
      <use xlink:href="#DejaVuSans-75" transform="translate(155.175781 0)"/>
      <use xlink:href="#DejaVuSans-6e" transform="translate(218.554688 0)"/>
      <use xlink:href="#DejaVuSans-74" transform="translate(281.933594 0)"/>
      <use xlink:href="#DejaVuSans-73" transform="translate(321.142578 0)"/>
      <use xlink:href="#DejaVuSans-5d" transform="translate(373.242188 0)"/>
     </g>
    </g>
   </g>
   <g id="line2d_12">
    <path d="M 68.546307 191.214227 
L 69.560852 191.214227 
L 69.560852 144.558928 
L 70.575398 144.558928 
L 70.575398 112.227625 
L 71.589943 112.227625 
L 71.589943 94.138465 
L 72.604489 94.138465 
L 72.604489 92.583289 
L 73.619034 92.583289 
L 73.619034 88.981827 
L 74.63358 88.981827 
L 74.63358 84.48 
L 75.648125 84.48 
L 75.648125 84.152594 
L 76.66267 84.152594 
L 76.66267 83.90704 
L 77.677216 83.90704 
L 77.677216 77.113374 
L 78.691761 77.113374 
L 78.691761 65.981583 
L 79.706307 65.981583 
L 79.706307 67.209354 
L 80.720852 67.209354 
L 80.720852 65.817881 
L 81.735398 65.817881 
L 81.735398 55.177199 
L 82.749943 55.177199 
L 82.749943 49.4476 
L 83.764489 49.4476 
L 83.764489 45.35503 
L 84.779034 45.35503 
L 84.779034 48.219829 
L 85.79358 48.219829 
L 85.79358 44.863922 
L 86.808125 44.863922 
L 86.808125 25.956248 
L 87.82267 25.956248 
L 87.82267 24.401072 
L 88.837216 24.401072 
L 88.837216 18.42592 
L 89.851761 18.42592 
L 89.851761 20.472205 
L 90.866307 20.472205 
L 90.866307 17.28 
L 91.880852 17.28 
L 91.880852 23.255152 
L 92.895398 23.255152 
L 92.895398 28.902899 
L 93.909943 28.902899 
L 93.909943 25.792546 
L 94.924489 25.792546 
L 94.924489 18.262217 
L 95.939034 18.262217 
L 95.939034 26.201803 
L 96.95358 26.201803 
L 96.95358 29.394007 
L 97.968125 29.394007 
L 97.968125 33.977686 
L 98.98267 33.977686 
L 98.98267 39.298027 
L 99.997216 39.298027 
L 99.997216 34.959903 
L 101.011761 34.959903 
L 101.011761 29.639562 
L 102.026307 29.639562 
L 102.026307 35.36916 
L 103.040852 35.36916 
L 103.040852 48.792789 
L 104.055398 48.792789 
L 104.055398 49.856857 
L 105.069943 49.856857 
L 105.069943 62.29827 
L 106.084489 62.29827 
L 106.084489 69.255639 
L 107.099034 69.255639 
L 107.099034 82.679269 
L 108.11358 82.679269 
L 108.11358 97.494373 
L 109.128125 97.494373 
L 109.128125 101.013983 
L 110.14267 101.013983 
L 110.14267 106.170621 
L 111.157216 106.170621 
L 111.157216 111.409111 
L 112.171761 111.409111 
L 112.171761 124.750889 
L 113.186307 124.750889 
L 113.186307 132.035664 
L 114.200852 132.035664 
L 114.200852 139.074884 
L 115.215398 139.074884 
L 115.215398 143.413009 
L 116.229943 143.413009 
L 116.229943 149.797418 
L 117.244489 149.797418 
L 117.244489 157.082192 
L 118.259034 157.082192 
L 118.259034 163.875859 
L 119.27358 163.875859 
L 119.27358 170.423971 
L 120.288125 170.423971 
L 120.288125 181.146504 
L 121.30267 181.146504 
L 121.30267 184.011303 
L 122.317216 184.011303 
L 122.317216 190.150158 
L 123.331761 190.150158 
L 123.331761 182.456127 
L 124.346307 182.456127 
L 124.346307 158.801072 
L 125.360852 158.801072 
L 125.360852 142.185238 
L 126.375398 142.185238 
L 126.375398 129.416419 
L 127.389943 129.416419 
L 127.389943 95.857345 
L 128.404489 95.857345 
L 128.404489 97.90363 
L 129.419034 97.90363 
L 129.419034 90.946261 
L 130.43358 90.946261 
L 130.43358 88.327016 
L 131.448125 88.327016 
L 131.448125 94.465871 
L 132.46267 94.465871 
L 132.46267 91.846626 
L 133.477216 91.846626 
L 133.477216 99.295104 
L 134.491761 99.295104 
L 134.491761 104.533593 
L 135.506307 104.533593 
L 135.506307 98.803995 
L 136.520852 98.803995 
L 136.520852 96.266602 
L 137.535398 96.266602 
L 137.535398 98.558441 
L 138.549943 98.558441 
L 138.549943 102.732862 
L 139.564489 102.732862 
L 139.564489 104.615445 
L 140.579034 104.615445 
L 140.579034 105.843216 
L 141.59358 105.843216 
L 141.59358 104.615445 
L 142.608125 104.615445 
L 142.608125 107.725798 
L 143.62267 107.725798 
L 143.62267 107.152838 
L 144.637216 107.152838 
L 144.637216 119.266845 
L 145.651761 119.266845 
L 145.651761 113.537247 
L 146.666307 113.537247 
L 146.666307 113.209842 
L 147.680852 113.209842 
L 147.680852 113.864653 
L 148.695398 113.864653 
L 148.695398 109.935786 
L 149.709943 109.935786 
L 149.709943 115.337978 
L 150.724489 115.337978 
L 150.724489 117.138709 
L 151.739034 117.138709 
L 151.739034 114.355761 
L 152.75358 114.355761 
L 152.75358 122.540901 
L 153.768125 122.540901 
L 153.768125 119.676102 
L 154.78267 119.676102 
L 154.78267 123.195713 
L 155.797216 123.195713 
L 155.797216 122.950158 
L 156.811761 122.950158 
L 156.811761 120.822022 
L 157.826307 120.822022 
L 157.826307 126.633471 
L 158.840852 126.633471 
L 158.840852 125.160146 
L 159.855398 125.160146 
L 159.855398 127.69754 
L 160.869943 127.69754 
L 160.869943 130.398636 
L 161.884489 130.398636 
L 161.884489 134.900463 
L 162.899034 134.900463 
L 162.899034 127.615688 
L 163.91358 127.615688 
L 163.91358 133.427138 
L 164.928125 133.427138 
L 164.928125 134.491206 
L 165.94267 134.491206 
L 165.94267 140.630061 
L 166.957216 140.630061 
L 166.957216 140.138952 
L 167.971761 140.138952 
L 167.971761 148.242241 
L 168.986307 148.242241 
L 168.986307 149.633715 
L 170.000852 149.633715 
L 170.000852 150.124823 
L 171.015398 150.124823 
L 171.015398 148.242241 
L 172.029943 148.242241 
L 172.029943 147.58743 
L 173.044489 147.58743 
L 173.044489 150.206675 
L 174.059034 150.206675 
L 174.059034 159.537734 
L 175.07358 159.537734 
L 175.07358 163.139196 
L 176.088125 163.139196 
L 176.088125 156.836638 
L 177.10267 156.836638 
L 177.10267 154.381096 
L 178.117216 154.381096 
L 178.117216 151.516297 
L 179.131761 151.516297 
L 179.131761 148.978904 
L 180.146307 148.978904 
L 180.146307 143.003752 
L 181.160852 143.003752 
L 181.160852 140.957467 
L 182.175398 140.957467 
L 182.175398 130.480487 
L 183.189943 130.480487 
L 183.189943 129.580122 
L 184.204489 129.580122 
L 184.204489 139.238587 
L 185.219034 139.238587 
L 185.219034 142.103386 
L 186.23358 142.103386 
L 186.23358 141.775981 
L 187.248125 141.775981 
L 187.248125 150.861486 
L 188.26267 150.861486 
L 188.26267 153.562582 
L 189.277216 153.562582 
L 189.277216 157.000341 
L 190.291761 157.000341 
L 190.291761 153.971839 
L 191.306307 153.971839 
L 191.306307 156.34553 
L 192.320852 156.34553 
L 192.320852 160.274397 
L 193.335398 160.274397 
L 193.335398 158.71922 
L 194.349943 158.71922 
L 194.349943 161.747722 
L 195.364489 161.747722 
L 195.364489 159.046626 
L 196.379034 159.046626 
L 196.379034 163.38475 
L 197.39358 163.38475 
L 197.39358 160.519951 
L 198.408125 160.519951 
L 198.408125 162.648088 
L 199.42267 162.648088 
L 199.42267 161.256614 
L 200.437216 161.256614 
L 200.437216 161.502168 
L 201.451761 161.502168 
L 201.451761 162.975493 
L 202.466307 162.975493 
L 202.466307 166.413252 
L 203.480852 166.413252 
L 203.480852 167.231766 
L 204.495398 167.231766 
L 204.495398 166.904361 
L 205.509943 166.904361 
L 205.509943 173.698027 
L 206.524489 173.698027 
L 206.524489 170.996931 
L 207.539034 170.996931 
L 207.539034 175.089501 
L 208.55358 175.089501 
L 208.55358 173.943581 
L 209.568125 173.943581 
L 209.568125 180.737247 
L 210.58267 180.737247 
L 210.58267 174.352838 
L 211.597216 174.352838 
L 211.597216 180.164287 
L 212.611761 180.164287 
L 212.611761 183.438343 
L 213.626307 183.438343 
L 213.626307 186.466845 
L 214.640852 186.466845 
L 214.640852 188.840536 
L 215.655398 188.840536 
L 215.655398 190.23201 
L 216.669943 190.23201 
L 216.669943 191.214227 
L 217.684489 191.214227 
L 217.684489 189.08609 
L 218.699034 189.08609 
L 218.699034 190.80497 
L 219.71358 190.80497 
L 219.71358 195.306797 
L 220.728125 195.306797 
L 220.728125 194.570134 
L 222.757216 194.651985 
L 222.757216 198.007893 
L 223.771761 198.007893 
L 223.771761 198.744555 
L 224.786307 198.744555 
L 224.786307 198.253447 
L 225.800852 198.253447 
L 225.800852 196.289013 
L 226.815398 196.289013 
L 226.815398 192.114592 
L 227.829943 192.114592 
L 227.829943 191.296078 
L 228.844489 191.296078 
L 228.844489 190.559415 
L 229.859034 190.559415 
L 229.859034 188.676833 
L 230.87358 188.676833 
L 230.87358 184.338709 
L 231.888125 184.338709 
L 231.888125 183.602046 
L 232.90267 183.602046 
L 232.90267 186.548697 
L 233.917216 186.548697 
L 233.917216 191.623484 
L 234.931761 191.623484 
L 234.931761 193.997174 
L 235.946307 193.997174 
L 235.946307 195.961608 
L 236.960852 195.961608 
L 236.960852 194.488283 
L 237.975398 194.488283 
L 237.975398 198.662704 
L 238.989943 198.662704 
L 238.989943 196.207162 
L 240.004489 196.207162 
L 240.004489 198.41715 
L 241.019034 198.41715 
L 241.019034 200.954543 
L 242.03358 200.954543 
L 242.03358 198.826407 
L 243.048125 198.826407 
L 243.048125 198.335298 
L 244.06267 198.335298 
L 244.06267 201.854909 
L 245.077216 201.854909 
L 245.077216 201.609354 
L 246.091761 201.609354 
L 246.091761 200.627138 
L 247.106307 200.627138 
L 247.106307 201.281949 
L 248.120852 201.281949 
L 248.120852 202.673423 
L 249.135398 202.673423 
L 249.135398 205.374519 
L 250.149943 205.374519 
L 250.149943 204.146748 
L 251.164489 204.146748 
L 251.164489 207.911912 
L 252.179034 207.911912 
L 252.179034 207.011547 
L 253.19358 207.011547 
L 253.19358 205.783776 
L 254.208125 205.783776 
L 254.208125 203.08268 
L 255.22267 203.08268 
L 255.22267 208.157467 
L 256.237216 208.157467 
L 256.237216 208.566724 
L 257.251761 208.566724 
L 257.251761 209.794495 
L 258.266307 209.794495 
L 258.266307 210.285603 
L 259.280852 210.285603 
L 259.280852 212.331888 
L 260.295398 212.331888 
L 260.295398 212.004482 
L 261.309943 212.004482 
L 261.309943 211.104117 
L 262.324489 211.104117 
L 262.324489 211.26782 
L 263.339034 211.26782 
L 263.339034 211.431523 
L 264.35358 211.431523 
L 264.35358 212.250037 
L 265.368125 212.250037 
L 265.368125 213.232253 
L 266.38267 213.232253 
L 266.38267 213.968916 
L 267.397216 213.968916 
L 267.397216 214.378173 
L 268.411761 214.378173 
L 268.411761 214.869281 
L 270.440852 214.951133 
L 270.440852 213.559659 
L 271.455398 213.559659 
L 271.455398 211.922631 
L 272.469943 211.922631 
L 272.469943 212.250037 
L 273.484489 212.250037 
L 273.484489 208.648575 
L 274.499034 208.648575 
L 274.499034 206.847844 
L 275.51358 206.847844 
L 275.51358 206.111181 
L 276.528125 206.111181 
L 276.528125 207.093398 
L 277.54267 207.093398 
L 277.54267 205.210816 
L 279.571761 205.128965 
L 279.571761 208.075615 
L 280.586307 208.075615 
L 280.586307 207.093398 
L 281.600852 207.093398 
L 281.600852 209.54894 
L 282.615398 209.54894 
L 282.615398 208.075615 
L 283.629943 208.075615 
L 283.629943 208.239318 
L 284.644489 208.239318 
L 284.644489 209.876346 
L 285.659034 209.876346 
L 285.659034 208.566724 
L 286.67358 208.566724 
L 286.67358 210.285603 
L 287.688125 210.285603 
L 287.688125 208.403021 
L 288.70267 208.403021 
L 288.70267 211.513374 
L 289.717216 211.513374 
L 289.717216 212.986699 
L 290.731761 212.986699 
L 290.731761 212.250037 
L 291.746307 212.250037 
L 291.746307 210.858563 
L 292.760852 210.858563 
L 292.760852 212.086334 
L 294.789943 212.168185 
L 294.789943 213.068551 
L 295.804489 213.068551 
L 295.804489 213.805213 
L 296.819034 213.805213 
L 296.819034 213.968916 
L 297.83358 213.968916 
L 297.83358 213.64151 
L 298.848125 213.64151 
L 298.848125 214.21447 
L 300.877216 214.21447 
L 300.877216 215.196687 
L 301.891761 215.196687 
L 301.891761 215.605944 
L 302.906307 215.605944 
L 302.906307 216.015201 
L 303.920852 216.015201 
L 303.920852 215.442241 
L 305.949943 215.524093 
L 305.949943 216.260755 
L 306.964489 216.260755 
L 306.964489 216.097052 
L 307.979034 216.097052 
L 307.979034 217.079269 
L 308.99358 217.079269 
L 308.99358 216.751864 
L 310.008125 216.751864 
L 310.008125 217.161121 
L 311.02267 217.161121 
L 311.02267 217.406675 
L 312.037216 217.406675 
L 312.037216 216.833715 
L 313.051761 216.833715 
L 313.051761 217.815932 
L 314.066307 217.815932 
L 314.066307 216.997418 
L 315.080852 216.997418 
L 315.080852 216.751864 
L 316.095398 216.751864 
L 316.095398 214.951133 
L 317.109943 214.951133 
L 317.109943 215.769647 
L 318.124489 215.769647 
L 318.124489 213.150402 
L 319.139034 213.150402 
L 319.139034 213.723362 
L 320.15358 213.723362 
L 320.15358 212.495591 
L 321.168125 212.495591 
L 321.168125 210.449306 
L 322.18267 210.449306 
L 322.18267 210.69486 
L 323.197216 210.69486 
L 323.197216 205.538222 
L 324.211761 205.538222 
L 324.211761 205.047113 
L 325.226307 205.047113 
L 325.226307 203.737491 
L 326.240852 203.737491 
L 326.240852 204.146748 
L 327.255398 204.146748 
L 327.255398 202.182314 
L 328.269943 202.182314 
L 328.269943 204.88341 
L 329.284489 204.88341 
L 329.284489 204.392302 
L 330.299034 204.392302 
L 330.299034 202.918977 
L 331.31358 202.918977 
L 331.31358 203.410085 
L 332.328125 203.410085 
L 332.328125 205.128965 
L 333.34267 205.128965 
L 333.34267 206.765993 
L 334.357216 206.765993 
L 334.357216 204.88341 
L 335.371761 204.88341 
L 335.371761 204.064896 
L 336.386307 204.064896 
L 336.386307 205.783776 
L 337.400852 205.783776 
L 337.400852 205.45637 
L 338.415398 205.45637 
L 338.415398 206.765993 
L 339.429943 206.765993 
L 339.429943 205.047113 
L 340.444489 205.047113 
L 340.444489 206.193033 
L 341.459034 206.193033 
L 341.459034 207.502655 
L 342.47358 207.502655 
L 342.47358 205.538222 
L 343.488125 205.538222 
L 343.488125 207.011547 
L 344.50267 207.011547 
L 344.50267 207.584507 
L 345.517216 207.584507 
L 345.517216 207.993764 
L 346.531761 207.993764 
L 346.531761 208.239318 
L 347.546307 208.239318 
L 347.546307 207.911912 
L 348.560852 207.911912 
L 348.560852 208.484872 
L 349.575398 208.484872 
L 349.575398 208.730426 
L 350.589943 208.730426 
L 350.589943 207.420804 
L 351.604489 207.420804 
L 351.604489 209.467089 
L 352.619034 209.467089 
L 352.619034 209.139683 
L 353.63358 209.139683 
L 353.63358 210.449306 
L 354.648125 210.449306 
L 354.648125 211.677077 
L 355.66267 211.677077 
L 355.66267 209.54894 
L 356.677216 209.54894 
L 356.677216 209.303386 
L 358.706307 209.221535 
L 358.706307 208.321169 
L 359.720852 208.321169 
L 359.720852 210.613009 
L 360.735398 210.613009 
L 360.735398 211.922631 
L 361.749943 211.922631 
L 361.749943 212.822996 
L 362.764489 212.822996 
L 362.764489 213.150402 
L 363.779034 213.150402 
L 363.779034 213.887065 
L 364.79358 213.887065 
L 364.79358 214.460024 
L 365.808125 214.460024 
L 365.808125 213.968916 
L 366.82267 213.968916 
L 366.82267 214.869281 
L 367.837216 214.869281 
L 367.837216 215.442241 
L 368.851761 215.442241 
L 368.851761 214.705579 
L 369.866307 214.705579 
L 369.866307 217.570378 
L 370.880852 217.570378 
L 370.880852 218.143337 
L 371.895398 218.143337 
L 371.895398 218.88 
L 372.909943 218.88 
L 372.909943 218.88 
" clip-path="url(#p89a8b34788)" style="fill: none; stroke: #1f77b4; stroke-width: 1.5; stroke-linecap: square"/>
   </g>
   <g id="patch_3">
    <path d="M 53.328125 228.96 
L 53.328125 7.2 
" style="fill: none; stroke: #000000; stroke-width: 0.8; stroke-linejoin: miter; stroke-linecap: square"/>
   </g>
   <g id="patch_4">
    <path d="M 388.128125 228.96 
L 388.128125 7.2 
" style="fill: none; stroke: #000000; stroke-width: 0.8; stroke-linejoin: miter; stroke-linecap: square"/>
   </g>
   <g id="patch_5">
    <path d="M 53.328125 228.96 
L 388.128125 228.96 
" style="fill: none; stroke: #000000; stroke-width: 0.8; stroke-linejoin: miter; stroke-linecap: square"/>
   </g>
   <g id="patch_6">
    <path d="M 53.328125 7.2 
L 388.128125 7.2 
" style="fill: none; stroke: #000000; stroke-width: 0.8; stroke-linejoin: miter; stroke-linecap: square"/>
   </g>
  </g>
 </g>
 <defs>
  <clipPath id="p89a8b34788">
   <rect x="53.328125" y="7.2" width="334.8" height="221.76"/>
  </clipPath>
 </defs>
</svg>
