<?xml version="1.0" encoding="UTF-8" standalone="no"?>
<!DOCTYPE svg PUBLIC "-//W3C//DTD SVG 1.1//EN"
 "http://www.w3.org/Graphics/SVG/1.1/DTD/svg11.dtd">
<!-- Generated by graphviz version 2.43.0 (0)
 -->
<!-- Title: %3 Pages: 1 -->
<svg width="1396pt" height="652pt"
 viewBox="0.00 0.00 1395.50 652.00" xmlns="http://www.w3.org/2000/svg" xmlns:xlink="http://www.w3.org/1999/xlink">
<g id="graph0" class="graph" transform="scale(1 1) rotate(0) translate(4 648)">
<title>%3</title>
<polygon fill="white" stroke="transparent" points="-4,4 -4,-648 1391.5,-648 1391.5,4 -4,4"/>
<!-- DetectorData[SampleRun] -->
<g id="node1" class="node">
<title>DetectorData[SampleRun]</title>
<polygon fill="none" stroke="black" points="279,-97 74,-97 74,-74 279,-74 279,-97"/>
<text text-anchor="middle" x="176.5" y="-81.8" font-family="Times,serif" font-size="14.00">DetectorData[SampleRun]</text>
</g>
<!-- DetectorTofData[SampleRun] -->
<g id="node3" class="node">
<title>DetectorTofData[SampleRun]</title>
<polygon fill="none" stroke="black" points="613,-33 386,-33 386,0 613,0 613,-33"/>
<text text-anchor="start" x="394" y="-18.8" font-family="Times,serif" font-size="14.00">DetectorTofData[SampleRun]</text>
<text text-anchor="start" x="409.5" y="-7.2" font-family="Times,serif" font-size="11.00">via:</text>
<text text-anchor="start" x="430.5" y="-7.2" font-family="Times,serif" font-style="italic" font-size="11.00">detector_time_of_flight_data</text>
</g>
<!-- DetectorData[SampleRun]&#45;&gt;DetectorTofData[SampleRun] -->
<g id="edge1" class="edge">
<title>DetectorData[SampleRun]&#45;&gt;DetectorTofData[SampleRun]</title>
<path fill="none" stroke="black" d="M227.32,-73.96C277.46,-63.56 355,-47.47 414.51,-35.13"/>
<polygon fill="black" stroke="black" points="415.57,-38.48 424.65,-33.03 414.15,-31.63 415.57,-38.48"/>
</g>
<!-- DetectorLtotal[SampleRun] -->
<g id="node2" class="node">
<title>DetectorLtotal[SampleRun]</title>
<polygon fill="none" stroke="black" points="499,-97 286,-97 286,-74 499,-74 499,-97"/>
<text text-anchor="middle" x="392.5" y="-81.8" font-family="Times,serif" font-size="14.00">DetectorLtotal[SampleRun]</text>
</g>
<!-- DetectorLtotal[SampleRun]&#45;&gt;DetectorTofData[SampleRun] -->
<g id="edge3" class="edge">
<title>DetectorLtotal[SampleRun]&#45;&gt;DetectorTofData[SampleRun]</title>
<path fill="none" stroke="black" d="M409.69,-73.74C424.79,-64.28 447.18,-50.26 465.84,-38.58"/>
<polygon fill="black" stroke="black" points="467.75,-41.51 474.37,-33.23 464.04,-35.58 467.75,-41.51"/>
</g>
<!-- TimeOfFlightLookupTable -->
<g id="node4" class="node">
<title>TimeOfFlightLookupTable</title>
<polygon fill="none" stroke="black" points="707,-102 506,-102 506,-69 707,-69 707,-102"/>
<text text-anchor="start" x="514" y="-87.8" font-family="Times,serif" font-size="14.00">TimeOfFlightLookupTable</text>
<text text-anchor="start" x="523.5" y="-76.2" font-family="Times,serif" font-size="11.00">via:</text>
<text text-anchor="start" x="544.5" y="-76.2" font-family="Times,serif" font-style="italic" font-size="11.00">compute_tof_lookup_table</text>
</g>
<!-- TimeOfFlightLookupTable&#45;&gt;DetectorTofData[SampleRun] -->
<g id="edge2" class="edge">
<title>TimeOfFlightLookupTable&#45;&gt;DetectorTofData[SampleRun]</title>
<path fill="none" stroke="black" d="M581.68,-68.96C567.34,-59.98 549.08,-48.55 533.42,-38.74"/>
<polygon fill="black" stroke="black" points="534.89,-35.53 524.55,-33.19 531.17,-41.46 534.89,-35.53"/>
</g>
<!-- PulseStrideOffset -->
<g id="node5" class="node">
<title>PulseStrideOffset</title>
<polygon fill="none" stroke="black" points="857,-97 714,-97 714,-74 857,-74 857,-97"/>
<text text-anchor="middle" x="785.5" y="-81.8" font-family="Times,serif" font-size="14.00">PulseStrideOffset</text>
</g>
<!-- PulseStrideOffset&#45;&gt;DetectorTofData[SampleRun] -->
<g id="edge4" class="edge">
<title>PulseStrideOffset&#45;&gt;DetectorTofData[SampleRun]</title>
<path fill="none" stroke="black" d="M740.5,-73.96C696.38,-63.62 628.3,-47.67 575.73,-35.36"/>
<polygon fill="black" stroke="black" points="576.31,-31.9 565.77,-33.03 574.71,-38.71 576.31,-31.9"/>
</g>
<!-- DiskChoppers[SampleRun] -->
<g id="node6" class="node">
<title>DiskChoppers[SampleRun]</title>
<polygon fill="none" stroke="red" stroke-dasharray="5,2" points="770,-235 561,-235 561,-212 770,-212 770,-235"/>
<text text-anchor="middle" x="665.5" y="-219.8" font-family="Times,serif" font-size="14.00" fill="red">DiskChoppers[SampleRun]</text>
</g>
<!-- SimulationResults -->
<g id="node23" class="node">
<title>SimulationResults</title>
<polygon fill="none" stroke="black" points="1013.5,-171 771.5,-171 771.5,-138 1013.5,-138 1013.5,-171"/>
<text text-anchor="start" x="827" y="-156.8" font-family="Times,serif" font-size="14.00">SimulationResults</text>
<text text-anchor="start" x="779.5" y="-145.2" font-family="Times,serif" font-size="11.00">via:</text>
<text text-anchor="start" x="800.5" y="-145.2" font-family="Times,serif" font-style="italic" font-size="11.00">simulate_chopper_cascade_using_tof</text>
</g>
<!-- DiskChoppers[SampleRun]&#45;&gt;SimulationResults -->
<g id="edge14" class="edge">
<title>DiskChoppers[SampleRun]&#45;&gt;SimulationResults</title>
<path fill="none" stroke="black" d="M701.22,-211.96C735.66,-201.79 788.53,-186.19 829.96,-173.96"/>
<polygon fill="black" stroke="black" points="831.08,-177.28 839.68,-171.09 829.1,-170.56 831.08,-177.28"/>
</g>
<!-- DistanceResolution -->
<g id="node7" class="node">
<title>DistanceResolution</title>
<polygon fill="none" stroke="black" points="155,-166 0,-166 0,-143 155,-143 155,-166"/>
<text text-anchor="middle" x="77.5" y="-150.8" font-family="Times,serif" font-size="14.00">DistanceResolution</text>
</g>
<!-- DistanceResolution&#45;&gt;TimeOfFlightLookupTable -->
<g id="edge19" class="edge">
<title>DistanceResolution&#45;&gt;TimeOfFlightLookupTable</title>
<path fill="none" stroke="black" d="M129.24,-142.92C138.94,-141.13 149.01,-139.4 158.5,-138 306.87,-116.06 347.68,-120.97 495.99,-102.67"/>
<polygon fill="black" stroke="black" points="496.43,-106.15 505.92,-101.44 495.56,-99.2 496.43,-106.15"/>
</g>
<!-- Filename[SampleRun] -->
<g id="node8" class="node">
<title>Filename[SampleRun]</title>
<polygon fill="none" stroke="red" stroke-dasharray="5,2" points="1143,-644 968,-644 968,-621 1143,-621 1143,-644"/>
<text text-anchor="middle" x="1055.5" y="-628.8" font-family="Times,serif" font-size="14.00" fill="red">Filename[SampleRun]</text>
</g>
<!-- NeXusFileSpec[SampleRun] -->
<g id="node12" class="node">
<title>NeXusFileSpec[SampleRun]</title>
<polygon fill="none" stroke="black" points="1248,-585 1031,-585 1031,-552 1248,-552 1248,-585"/>
<text text-anchor="start" x="1039" y="-570.8" font-family="Times,serif" font-size="14.00">NeXusFileSpec[SampleRun]</text>
<text text-anchor="start" x="1069.5" y="-559.2" font-family="Times,serif" font-size="11.00">via:</text>
<text text-anchor="start" x="1090.5" y="-559.2" font-family="Times,serif" font-style="italic" font-size="11.00">file_path_to_file_spec</text>
</g>
<!-- Filename[SampleRun]&#45;&gt;NeXusFileSpec[SampleRun] -->
<g id="edge8" class="edge">
<title>Filename[SampleRun]&#45;&gt;NeXusFileSpec[SampleRun]</title>
<path fill="none" stroke="black" d="M1069.75,-620.98C1080.76,-612.86 1096.37,-601.33 1110.03,-591.25"/>
<polygon fill="black" stroke="black" points="1112.26,-593.95 1118.23,-585.2 1108.11,-588.32 1112.26,-593.95"/>
</g>
<!-- LookupTableRelativeErrorThreshold -->
<g id="node9" class="node">
<title>LookupTableRelativeErrorThreshold</title>
<polygon fill="none" stroke="black" points="437,-166 162,-166 162,-143 437,-143 437,-166"/>
<text text-anchor="middle" x="299.5" y="-150.8" font-family="Times,serif" font-size="14.00">LookupTableRelativeErrorThreshold</text>
</g>
<!-- LookupTableRelativeErrorThreshold&#45;&gt;TimeOfFlightLookupTable -->
<g id="edge23" class="edge">
<title>LookupTableRelativeErrorThreshold&#45;&gt;TimeOfFlightLookupTable</title>
<path fill="none" stroke="black" d="M347.81,-142.96C395.36,-132.58 468.85,-116.54 525.37,-104.21"/>
<polygon fill="black" stroke="black" points="526.34,-107.58 535.36,-102.03 524.84,-100.74 526.34,-107.58"/>
</g>
<!-- LtotalRange -->
<g id="node10" class="node">
<title>LtotalRange</title>
<polygon fill="none" stroke="black" points="548.5,-166 444.5,-166 444.5,-143 548.5,-143 548.5,-166"/>
<text text-anchor="middle" x="496.5" y="-150.8" font-family="Times,serif" font-size="14.00">LtotalRange</text>
</g>
<!-- LtotalRange&#45;&gt;TimeOfFlightLookupTable -->
<g id="edge18" class="edge">
<title>LtotalRange&#45;&gt;TimeOfFlightLookupTable</title>
<path fill="none" stroke="black" d="M514.17,-142.74C529.69,-133.28 552.72,-119.26 571.89,-107.58"/>
<polygon fill="black" stroke="black" points="573.95,-110.43 580.67,-102.23 570.31,-104.45 573.95,-110.43"/>
</g>
<!-- NeXusClass[NXsource] -->
<g id="node11" class="node">
<title>NeXusClass[NXsource]</title>
<polygon fill="none" stroke="black" points="927,-516 746,-516 746,-483 927,-483 927,-516"/>
<text text-anchor="start" x="754" y="-501.8" font-family="Times,serif" font-size="14.00">NeXusClass[NXsource]</text>
<text text-anchor="start" x="770.5" y="-490.2" font-family="Times,serif" font-size="11.00">via:</text>
<text text-anchor="start" x="791.5" y="-490.2" font-family="Times,serif" font-style="italic" font-size="11.00">nx_class_for_source</text>
</g>
<!-- NeXusComponent[NXsource, SampleRun] -->
<g id="node14" class="node">
<title>NeXusComponent[NXsource, SampleRun]</title>
<polygon fill="none" stroke="black" points="1145,-447 830,-447 830,-414 1145,-414 1145,-447"/>
<text text-anchor="start" x="838" y="-432.8" font-family="Times,serif" font-size="14.00">NeXusComponent[NXsource, SampleRun]</text>
<text text-anchor="start" x="912.5" y="-421.2" font-family="Times,serif" font-size="11.00">via:</text>
<text text-anchor="start" x="933.5" y="-421.2" font-family="Times,serif" font-style="italic" font-size="11.00">load_nexus_component</text>
</g>
<!-- NeXusClass[NXsource]&#45;&gt;NeXusComponent[NXsource, SampleRun] -->
<g id="edge7" class="edge">
<title>NeXusClass[NXsource]&#45;&gt;NeXusComponent[NXsource, SampleRun]</title>
<path fill="none" stroke="black" d="M871.52,-482.96C892.89,-473.48 920.39,-461.28 943.25,-451.13"/>
<polygon fill="black" stroke="black" points="944.69,-454.33 952.41,-447.07 941.85,-447.93 944.69,-454.33"/>
</g>
<!-- NeXusComponentLocationSpec[NXsource, SampleRun] -->
<g id="node13" class="node">
<title>NeXusComponentLocationSpec[NXsource, SampleRun]</title>
<polygon fill="none" stroke="black" points="1344.5,-516 934.5,-516 934.5,-483 1344.5,-483 1344.5,-516"/>
<text text-anchor="start" x="942.5" y="-501.8" font-family="Times,serif" font-size="14.00">NeXusComponentLocationSpec[NXsource, SampleRun]</text>
<text text-anchor="start" x="1061" y="-490.2" font-family="Times,serif" font-size="11.00">via:</text>
<text text-anchor="start" x="1082" y="-490.2" font-family="Times,serif" font-style="italic" font-size="11.00">unique_component_spec</text>
</g>
<!-- NeXusFileSpec[SampleRun]&#45;&gt;NeXusComponentLocationSpec[NXsource, SampleRun] -->
<g id="edge5" class="edge">
<title>NeXusFileSpec[SampleRun]&#45;&gt;NeXusComponentLocationSpec[NXsource, SampleRun]</title>
<path fill="none" stroke="black" d="M1139.5,-551.96C1139.5,-544.38 1139.5,-535.05 1139.5,-526.42"/>
<polygon fill="black" stroke="black" points="1143,-526.42 1139.5,-516.42 1136,-526.42 1143,-526.42"/>
</g>
<!-- NeXusComponentLocationSpec[NXsource, SampleRun]&#45;&gt;NeXusComponent[NXsource, SampleRun] -->
<g id="edge6" class="edge">
<title>NeXusComponentLocationSpec[NXsource, SampleRun]&#45;&gt;NeXusComponent[NXsource, SampleRun]</title>
<path fill="none" stroke="black" d="M1104.25,-482.96C1082.74,-473.48 1055.06,-461.28 1032.04,-451.13"/>
<polygon fill="black" stroke="black" points="1033.39,-447.9 1022.83,-447.07 1030.56,-454.31 1033.39,-447.9"/>
</g>
<!-- NeXusTransformationChain[NXsource, SampleRun] -->
<g id="node16" class="node">
<title>NeXusTransformationChain[NXsource, SampleRun]</title>
<polygon fill="none" stroke="black" points="1180,-378 795,-378 795,-345 1180,-345 1180,-378"/>
<text text-anchor="start" x="803" y="-363.8" font-family="Times,serif" font-size="14.00">NeXusTransformationChain[NXsource, SampleRun]</text>
<text text-anchor="start" x="905.5" y="-352.2" font-family="Times,serif" font-size="11.00">via:</text>
<text text-anchor="start" x="926.5" y="-352.2" font-family="Times,serif" font-style="italic" font-size="11.00">get_transformation_chain</text>
</g>
<!-- NeXusComponent[NXsource, SampleRun]&#45;&gt;NeXusTransformationChain[NXsource, SampleRun] -->
<g id="edge10" class="edge">
<title>NeXusComponent[NXsource, SampleRun]&#45;&gt;NeXusTransformationChain[NXsource, SampleRun]</title>
<path fill="none" stroke="black" d="M987.5,-413.96C987.5,-406.38 987.5,-397.05 987.5,-388.42"/>
<polygon fill="black" stroke="black" points="991,-388.42 987.5,-378.42 984,-388.42 991,-388.42"/>
</g>
<!-- PreopenNeXusFile -->
<g id="node15" class="node">
<title>PreopenNeXusFile</title>
<polygon fill="none" stroke="black" points="1299,-644 1150,-644 1150,-621 1299,-621 1299,-644"/>
<text text-anchor="middle" x="1224.5" y="-628.8" font-family="Times,serif" font-size="14.00">PreopenNeXusFile</text>
</g>
<!-- PreopenNeXusFile&#45;&gt;NeXusFileSpec[SampleRun] -->
<g id="edge9" class="edge">
<title>PreopenNeXusFile&#45;&gt;NeXusFileSpec[SampleRun]</title>
<path fill="none" stroke="black" d="M1210.08,-620.98C1198.94,-612.86 1183.14,-601.33 1169.32,-591.25"/>
<polygon fill="black" stroke="black" points="1171.16,-588.26 1161.02,-585.2 1167.04,-593.92 1171.16,-588.26"/>
</g>
<!-- NeXusTransformation[NXsource, SampleRun] -->
<g id="node17" class="node">
<title>NeXusTransformation[NXsource, SampleRun]</title>
<polygon fill="none" stroke="black" points="1309.5,-309 965.5,-309 965.5,-276 1309.5,-276 1309.5,-309"/>
<text text-anchor="start" x="973.5" y="-294.8" font-family="Times,serif" font-size="14.00">NeXusTransformation[NXsource, SampleRun]</text>
<text text-anchor="start" x="1076.5" y="-283.2" font-family="Times,serif" font-size="11.00">via:</text>
<text text-anchor="start" x="1097.5" y="-283.2" font-family="Times,serif" font-style="italic" font-size="11.00">to_transformation</text>
</g>
<!-- NeXusTransformationChain[NXsource, SampleRun]&#45;&gt;NeXusTransformation[NXsource, SampleRun] -->
<g id="edge11" class="edge">
<title>NeXusTransformationChain[NXsource, SampleRun]&#45;&gt;NeXusTransformation[NXsource, SampleRun]</title>
<path fill="none" stroke="black" d="M1022.29,-344.96C1043.42,-335.52 1070.59,-323.39 1093.24,-313.27"/>
<polygon fill="black" stroke="black" points="1094.94,-316.35 1102.64,-309.07 1092.08,-309.95 1094.94,-316.35"/>
</g>
<!-- Position[NXsource, SampleRun] -->
<g id="node20" class="node">
<title>Position[NXsource, SampleRun]</title>
<polygon fill="none" stroke="black" points="1259.5,-240 1015.5,-240 1015.5,-207 1259.5,-207 1259.5,-240"/>
<text text-anchor="start" x="1023.5" y="-225.8" font-family="Times,serif" font-size="14.00">Position[NXsource, SampleRun]</text>
<text text-anchor="start" x="1077.5" y="-214.2" font-family="Times,serif" font-size="11.00">via:</text>
<text text-anchor="start" x="1098.5" y="-214.2" font-family="Times,serif" font-style="italic" font-size="11.00">compute_position</text>
</g>
<!-- NeXusTransformation[NXsource, SampleRun]&#45;&gt;Position[NXsource, SampleRun] -->
<g id="edge13" class="edge">
<title>NeXusTransformation[NXsource, SampleRun]&#45;&gt;Position[NXsource, SampleRun]</title>
<path fill="none" stroke="black" d="M1137.5,-275.96C1137.5,-268.38 1137.5,-259.05 1137.5,-250.42"/>
<polygon fill="black" stroke="black" points="1141,-250.42 1137.5,-240.42 1134,-250.42 1141,-250.42"/>
</g>
<!-- TimeInterval[SampleRun] -->
<g id="node18" class="node">
<title>TimeInterval[SampleRun]</title>
<polygon fill="none" stroke="black" points="1387.5,-378 1187.5,-378 1187.5,-345 1387.5,-345 1387.5,-378"/>
<text text-anchor="start" x="1195.5" y="-363.8" font-family="Times,serif" font-size="14.00">TimeInterval[SampleRun]</text>
<text text-anchor="start" x="1228" y="-352.2" font-family="Times,serif" font-size="11.00">via:</text>
<text text-anchor="start" x="1249" y="-352.2" font-family="Times,serif" font-style="italic" font-size="11.00">full_time_interval</text>
</g>
<!-- TimeInterval[SampleRun]&#45;&gt;NeXusTransformation[NXsource, SampleRun] -->
<g id="edge12" class="edge">
<title>TimeInterval[SampleRun]&#45;&gt;NeXusTransformation[NXsource, SampleRun]</title>
<path fill="none" stroke="black" d="M1252.71,-344.96C1231.58,-335.52 1204.41,-323.39 1181.76,-313.27"/>
<polygon fill="black" stroke="black" points="1182.92,-309.95 1172.36,-309.07 1180.06,-316.35 1182.92,-309.95"/>
</g>
<!-- NumberOfSimulatedNeutrons -->
<g id="node19" class="node">
<title>NumberOfSimulatedNeutrons</title>
<polygon fill="none" stroke="red" stroke-dasharray="5,2" points="1008,-235 777,-235 777,-212 1008,-212 1008,-235"/>
<text text-anchor="middle" x="892.5" y="-219.8" font-family="Times,serif" font-size="14.00" fill="red">NumberOfSimulatedNeutrons</text>
</g>
<!-- NumberOfSimulatedNeutrons&#45;&gt;SimulationResults -->
<g id="edge15" class="edge">
<title>NumberOfSimulatedNeutrons&#45;&gt;SimulationResults</title>
<path fill="none" stroke="black" d="M892.5,-211.74C892.5,-203.52 892.5,-191.86 892.5,-181.28"/>
<polygon fill="black" stroke="black" points="896,-181.23 892.5,-171.23 889,-181.24 896,-181.23"/>
</g>
<!-- Position[NXsource, SampleRun]&#45;&gt;SimulationResults -->
<g id="edge16" class="edge">
<title>Position[NXsource, SampleRun]&#45;&gt;SimulationResults</title>
<path fill="none" stroke="black" d="M1080.68,-206.96C1044.47,-197.06 997.4,-184.19 959.4,-173.79"/>
<polygon fill="black" stroke="black" points="960.01,-170.33 949.44,-171.07 958.16,-177.09 960.01,-170.33"/>
</g>
<!-- PulsePeriod -->
<g id="node21" class="node">
<title>PulsePeriod</title>
<polygon fill="none" stroke="black" points="657,-166 556,-166 556,-143 657,-143 657,-166"/>
<text text-anchor="middle" x="606.5" y="-150.8" font-family="Times,serif" font-size="14.00">PulsePeriod</text>
</g>
<!-- PulsePeriod&#45;&gt;TimeOfFlightLookupTable -->
<g id="edge21" class="edge">
<title>PulsePeriod&#45;&gt;TimeOfFlightLookupTable</title>
<path fill="none" stroke="black" d="M606.5,-142.74C606.5,-134.52 606.5,-122.86 606.5,-112.28"/>
<polygon fill="black" stroke="black" points="610,-112.23 606.5,-102.23 603,-112.24 610,-112.23"/>
</g>
<!-- PulseStride -->
<g id="node22" class="node">
<title>PulseStride</title>
<polygon fill="none" stroke="black" points="764.5,-166 664.5,-166 664.5,-143 764.5,-143 764.5,-166"/>
<text text-anchor="middle" x="714.5" y="-150.8" font-family="Times,serif" font-size="14.00">PulseStride</text>
</g>
<!-- PulseStride&#45;&gt;TimeOfFlightLookupTable -->
<g id="edge22" class="edge">
<title>PulseStride&#45;&gt;TimeOfFlightLookupTable</title>
<path fill="none" stroke="black" d="M697.15,-142.74C681.91,-133.28 659.3,-119.26 640.48,-107.58"/>
<polygon fill="black" stroke="black" points="642.21,-104.53 631.86,-102.23 638.52,-110.48 642.21,-104.53"/>
</g>
<!-- SimulationResults&#45;&gt;TimeOfFlightLookupTable -->
<g id="edge17" class="edge">
<title>SimulationResults&#45;&gt;TimeOfFlightLookupTable</title>
<path fill="none" stroke="black" d="M826.17,-137.96C783.37,-127.93 727.55,-114.86 682.9,-104.4"/>
<polygon fill="black" stroke="black" points="683.5,-100.94 672.97,-102.07 681.91,-107.76 683.5,-100.94"/>
</g>
<!-- TimeResolution -->
<g id="node24" class="node">
<title>TimeResolution</title>
<polygon fill="none" stroke="black" points="1148.5,-166 1020.5,-166 1020.5,-143 1148.5,-143 1148.5,-166"/>
<text text-anchor="middle" x="1084.5" y="-150.8" font-family="Times,serif" font-size="14.00">TimeResolution</text>
</g>
<!-- TimeResolution&#45;&gt;TimeOfFlightLookupTable -->
<g id="edge20" class="edge">
<title>TimeResolution&#45;&gt;TimeOfFlightLookupTable</title>
<path fill="none" stroke="black" d="M1041.47,-142.96C1033.22,-141.15 1024.61,-139.4 1016.5,-138 884.84,-115.32 848.02,-119.85 717.22,-102.88"/>
<polygon fill="black" stroke="black" points="717.6,-99.4 707.23,-101.56 716.68,-106.34 717.6,-99.4"/>
</g>
</g>
</svg>
