<?xml version="1.0" encoding="utf-8" standalone="no"?>
<!DOCTYPE svg PUBLIC "-//W3C//DTD SVG 1.1//EN"
  "http://www.w3.org/Graphics/SVG/1.1/DTD/svg11.dtd">
<svg xmlns:xlink="http://www.w3.org/1999/xlink" width="401.690625pt" height="266.51625pt" viewBox="0 0 401.690625 266.51625" xmlns="http://www.w3.org/2000/svg" version="1.1">
 <metadata>
  <rdf:RDF xmlns:dc="http://purl.org/dc/elements/1.1/" xmlns:cc="http://creativecommons.org/ns#" xmlns:rdf="http://www.w3.org/1999/02/22-rdf-syntax-ns#">
   <cc:Work>
    <dc:type rdf:resource="http://purl.org/dc/dcmitype/StillImage"/>
    <dc:date>2025-05-22T08:31:26.231401</dc:date>
    <dc:format>image/svg+xml</dc:format>
    <dc:creator>
     <cc:Agent>
      <dc:title>Matplotlib v3.10.3, https://matplotlib.org/</dc:title>
     </cc:Agent>
    </dc:creator>
   </cc:Work>
  </rdf:RDF>
 </metadata>
 <defs>
  <style type="text/css">*{stroke-linejoin: round; stroke-linecap: butt}</style>
 </defs>
 <g id="figure_1">
  <g id="patch_1">
   <path d="M 0 266.51625 
L 401.690625 266.51625 
L 401.690625 0 
L 0 0 
z
" style="fill: #ffffff"/>
  </g>
  <g id="axes_1">
   <g id="patch_2">
    <path d="M 59.690625 228.96 
L 394.490625 228.96 
L 394.490625 7.2 
L 59.690625 7.2 
z
" style="fill: #ffffff"/>
   </g>
   <g id="matplotlib.axis_1">
    <g id="xtick_1">
     <g id="line2d_1">
      <defs>
       <path id="mea735e6c17" d="M 0 0 
L 0 3.5 
" style="stroke: #000000; stroke-width: 0.8"/>
      </defs>
      <g>
       <use xlink:href="#mea735e6c17" x="79.826073" y="228.96" style="stroke: #000000; stroke-width: 0.8"/>
      </g>
     </g>
     <g id="text_1">
      <!-- 20000 -->
      <g transform="translate(63.919823 243.558437) scale(0.1 -0.1)">
       <defs>
        <path id="DejaVuSans-32" d="M 1228 531 
L 3431 531 
L 3431 0 
L 469 0 
L 469 531 
Q 828 903 1448 1529 
Q 2069 2156 2228 2338 
Q 2531 2678 2651 2914 
Q 2772 3150 2772 3378 
Q 2772 3750 2511 3984 
Q 2250 4219 1831 4219 
Q 1534 4219 1204 4116 
Q 875 4013 500 3803 
L 500 4441 
Q 881 4594 1212 4672 
Q 1544 4750 1819 4750 
Q 2544 4750 2975 4387 
Q 3406 4025 3406 3419 
Q 3406 3131 3298 2873 
Q 3191 2616 2906 2266 
Q 2828 2175 2409 1742 
Q 1991 1309 1228 531 
z
" transform="scale(0.015625)"/>
        <path id="DejaVuSans-30" d="M 2034 4250 
Q 1547 4250 1301 3770 
Q 1056 3291 1056 2328 
Q 1056 1369 1301 889 
Q 1547 409 2034 409 
Q 2525 409 2770 889 
Q 3016 1369 3016 2328 
Q 3016 3291 2770 3770 
Q 2525 4250 2034 4250 
z
M 2034 4750 
Q 2819 4750 3233 4129 
Q 3647 3509 3647 2328 
Q 3647 1150 3233 529 
Q 2819 -91 2034 -91 
Q 1250 -91 836 529 
Q 422 1150 422 2328 
Q 422 3509 836 4129 
Q 1250 4750 2034 4750 
z
" transform="scale(0.015625)"/>
       </defs>
       <use xlink:href="#DejaVuSans-32"/>
       <use xlink:href="#DejaVuSans-30" transform="translate(63.623047 0)"/>
       <use xlink:href="#DejaVuSans-30" transform="translate(127.246094 0)"/>
       <use xlink:href="#DejaVuSans-30" transform="translate(190.869141 0)"/>
       <use xlink:href="#DejaVuSans-30" transform="translate(254.492188 0)"/>
      </g>
     </g>
    </g>
    <g id="xtick_2">
     <g id="line2d_2">
      <g>
       <use xlink:href="#mea735e6c17" x="120.543616" y="228.96" style="stroke: #000000; stroke-width: 0.8"/>
      </g>
     </g>
     <g id="text_2">
      <!-- 40000 -->
      <g transform="translate(104.637366 243.558437) scale(0.1 -0.1)">
       <defs>
        <path id="DejaVuSans-34" d="M 2419 4116 
L 825 1625 
L 2419 1625 
L 2419 4116 
z
M 2253 4666 
L 3047 4666 
L 3047 1625 
L 3713 1625 
L 3713 1100 
L 3047 1100 
L 3047 0 
L 2419 0 
L 2419 1100 
L 313 1100 
L 313 1709 
L 2253 4666 
z
" transform="scale(0.015625)"/>
       </defs>
       <use xlink:href="#DejaVuSans-34"/>
       <use xlink:href="#DejaVuSans-30" transform="translate(63.623047 0)"/>
       <use xlink:href="#DejaVuSans-30" transform="translate(127.246094 0)"/>
       <use xlink:href="#DejaVuSans-30" transform="translate(190.869141 0)"/>
       <use xlink:href="#DejaVuSans-30" transform="translate(254.492188 0)"/>
      </g>
     </g>
    </g>
    <g id="xtick_3">
     <g id="line2d_3">
      <g>
       <use xlink:href="#mea735e6c17" x="161.26116" y="228.96" style="stroke: #000000; stroke-width: 0.8"/>
      </g>
     </g>
     <g id="text_3">
      <!-- 60000 -->
      <g transform="translate(145.35491 243.558437) scale(0.1 -0.1)">
       <defs>
        <path id="DejaVuSans-36" d="M 2113 2584 
Q 1688 2584 1439 2293 
Q 1191 2003 1191 1497 
Q 1191 994 1439 701 
Q 1688 409 2113 409 
Q 2538 409 2786 701 
Q 3034 994 3034 1497 
Q 3034 2003 2786 2293 
Q 2538 2584 2113 2584 
z
M 3366 4563 
L 3366 3988 
Q 3128 4100 2886 4159 
Q 2644 4219 2406 4219 
Q 1781 4219 1451 3797 
Q 1122 3375 1075 2522 
Q 1259 2794 1537 2939 
Q 1816 3084 2150 3084 
Q 2853 3084 3261 2657 
Q 3669 2231 3669 1497 
Q 3669 778 3244 343 
Q 2819 -91 2113 -91 
Q 1303 -91 875 529 
Q 447 1150 447 2328 
Q 447 3434 972 4092 
Q 1497 4750 2381 4750 
Q 2619 4750 2861 4703 
Q 3103 4656 3366 4563 
z
" transform="scale(0.015625)"/>
       </defs>
       <use xlink:href="#DejaVuSans-36"/>
       <use xlink:href="#DejaVuSans-30" transform="translate(63.623047 0)"/>
       <use xlink:href="#DejaVuSans-30" transform="translate(127.246094 0)"/>
       <use xlink:href="#DejaVuSans-30" transform="translate(190.869141 0)"/>
       <use xlink:href="#DejaVuSans-30" transform="translate(254.492188 0)"/>
      </g>
     </g>
    </g>
    <g id="xtick_4">
     <g id="line2d_4">
      <g>
       <use xlink:href="#mea735e6c17" x="201.978703" y="228.96" style="stroke: #000000; stroke-width: 0.8"/>
      </g>
     </g>
     <g id="text_4">
      <!-- 80000 -->
      <g transform="translate(186.072453 243.558437) scale(0.1 -0.1)">
       <defs>
        <path id="DejaVuSans-38" d="M 2034 2216 
Q 1584 2216 1326 1975 
Q 1069 1734 1069 1313 
Q 1069 891 1326 650 
Q 1584 409 2034 409 
Q 2484 409 2743 651 
Q 3003 894 3003 1313 
Q 3003 1734 2745 1975 
Q 2488 2216 2034 2216 
z
M 1403 2484 
Q 997 2584 770 2862 
Q 544 3141 544 3541 
Q 544 4100 942 4425 
Q 1341 4750 2034 4750 
Q 2731 4750 3128 4425 
Q 3525 4100 3525 3541 
Q 3525 3141 3298 2862 
Q 3072 2584 2669 2484 
Q 3125 2378 3379 2068 
Q 3634 1759 3634 1313 
Q 3634 634 3220 271 
Q 2806 -91 2034 -91 
Q 1263 -91 848 271 
Q 434 634 434 1313 
Q 434 1759 690 2068 
Q 947 2378 1403 2484 
z
M 1172 3481 
Q 1172 3119 1398 2916 
Q 1625 2713 2034 2713 
Q 2441 2713 2670 2916 
Q 2900 3119 2900 3481 
Q 2900 3844 2670 4047 
Q 2441 4250 2034 4250 
Q 1625 4250 1398 4047 
Q 1172 3844 1172 3481 
z
" transform="scale(0.015625)"/>
       </defs>
       <use xlink:href="#DejaVuSans-38"/>
       <use xlink:href="#DejaVuSans-30" transform="translate(63.623047 0)"/>
       <use xlink:href="#DejaVuSans-30" transform="translate(127.246094 0)"/>
       <use xlink:href="#DejaVuSans-30" transform="translate(190.869141 0)"/>
       <use xlink:href="#DejaVuSans-30" transform="translate(254.492188 0)"/>
      </g>
     </g>
    </g>
    <g id="xtick_5">
     <g id="line2d_5">
      <g>
       <use xlink:href="#mea735e6c17" x="242.696246" y="228.96" style="stroke: #000000; stroke-width: 0.8"/>
      </g>
     </g>
     <g id="text_5">
      <!-- 100000 -->
      <g transform="translate(223.608746 243.558437) scale(0.1 -0.1)">
       <defs>
        <path id="DejaVuSans-31" d="M 794 531 
L 1825 531 
L 1825 4091 
L 703 3866 
L 703 4441 
L 1819 4666 
L 2450 4666 
L 2450 531 
L 3481 531 
L 3481 0 
L 794 0 
L 794 531 
z
" transform="scale(0.015625)"/>
       </defs>
       <use xlink:href="#DejaVuSans-31"/>
       <use xlink:href="#DejaVuSans-30" transform="translate(63.623047 0)"/>
       <use xlink:href="#DejaVuSans-30" transform="translate(127.246094 0)"/>
       <use xlink:href="#DejaVuSans-30" transform="translate(190.869141 0)"/>
       <use xlink:href="#DejaVuSans-30" transform="translate(254.492188 0)"/>
       <use xlink:href="#DejaVuSans-30" transform="translate(318.115234 0)"/>
      </g>
     </g>
    </g>
    <g id="xtick_6">
     <g id="line2d_6">
      <g>
       <use xlink:href="#mea735e6c17" x="283.413789" y="228.96" style="stroke: #000000; stroke-width: 0.8"/>
      </g>
     </g>
     <g id="text_6">
      <!-- 120000 -->
      <g transform="translate(264.326289 243.558437) scale(0.1 -0.1)">
       <use xlink:href="#DejaVuSans-31"/>
       <use xlink:href="#DejaVuSans-32" transform="translate(63.623047 0)"/>
       <use xlink:href="#DejaVuSans-30" transform="translate(127.246094 0)"/>
       <use xlink:href="#DejaVuSans-30" transform="translate(190.869141 0)"/>
       <use xlink:href="#DejaVuSans-30" transform="translate(254.492188 0)"/>
       <use xlink:href="#DejaVuSans-30" transform="translate(318.115234 0)"/>
      </g>
     </g>
    </g>
    <g id="xtick_7">
     <g id="line2d_7">
      <g>
       <use xlink:href="#mea735e6c17" x="324.131333" y="228.96" style="stroke: #000000; stroke-width: 0.8"/>
      </g>
     </g>
     <g id="text_7">
      <!-- 140000 -->
      <g transform="translate(305.043833 243.558437) scale(0.1 -0.1)">
       <use xlink:href="#DejaVuSans-31"/>
       <use xlink:href="#DejaVuSans-34" transform="translate(63.623047 0)"/>
       <use xlink:href="#DejaVuSans-30" transform="translate(127.246094 0)"/>
       <use xlink:href="#DejaVuSans-30" transform="translate(190.869141 0)"/>
       <use xlink:href="#DejaVuSans-30" transform="translate(254.492188 0)"/>
       <use xlink:href="#DejaVuSans-30" transform="translate(318.115234 0)"/>
      </g>
     </g>
    </g>
    <g id="xtick_8">
     <g id="line2d_8">
      <g>
       <use xlink:href="#mea735e6c17" x="364.848876" y="228.96" style="stroke: #000000; stroke-width: 0.8"/>
      </g>
     </g>
     <g id="text_8">
      <!-- 160000 -->
      <g transform="translate(345.761376 243.558437) scale(0.1 -0.1)">
       <use xlink:href="#DejaVuSans-31"/>
       <use xlink:href="#DejaVuSans-36" transform="translate(63.623047 0)"/>
       <use xlink:href="#DejaVuSans-30" transform="translate(127.246094 0)"/>
       <use xlink:href="#DejaVuSans-30" transform="translate(190.869141 0)"/>
       <use xlink:href="#DejaVuSans-30" transform="translate(254.492188 0)"/>
       <use xlink:href="#DejaVuSans-30" transform="translate(318.115234 0)"/>
      </g>
     </g>
    </g>
    <g id="text_9">
     <!-- tof [µs] -->
     <g transform="translate(209.034375 257.236562) scale(0.1 -0.1)">
      <defs>
       <path id="DejaVuSans-74" d="M 1172 4494 
L 1172 3500 
L 2356 3500 
L 2356 3053 
L 1172 3053 
L 1172 1153 
Q 1172 725 1289 603 
Q 1406 481 1766 481 
L 2356 481 
L 2356 0 
L 1766 0 
Q 1100 0 847 248 
Q 594 497 594 1153 
L 594 3053 
L 172 3053 
L 172 3500 
L 594 3500 
L 594 4494 
L 1172 4494 
z
" transform="scale(0.015625)"/>
       <path id="DejaVuSans-6f" d="M 1959 3097 
Q 1497 3097 1228 2736 
Q 959 2375 959 1747 
Q 959 1119 1226 758 
Q 1494 397 1959 397 
Q 2419 397 2687 759 
Q 2956 1122 2956 1747 
Q 2956 2369 2687 2733 
Q 2419 3097 1959 3097 
z
M 1959 3584 
Q 2709 3584 3137 3096 
Q 3566 2609 3566 1747 
Q 3566 888 3137 398 
Q 2709 -91 1959 -91 
Q 1206 -91 779 398 
Q 353 888 353 1747 
Q 353 2609 779 3096 
Q 1206 3584 1959 3584 
z
" transform="scale(0.015625)"/>
       <path id="DejaVuSans-66" d="M 2375 4863 
L 2375 4384 
L 1825 4384 
Q 1516 4384 1395 4259 
Q 1275 4134 1275 3809 
L 1275 3500 
L 2222 3500 
L 2222 3053 
L 1275 3053 
L 1275 0 
L 697 0 
L 697 3053 
L 147 3053 
L 147 3500 
L 697 3500 
L 697 3744 
Q 697 4328 969 4595 
Q 1241 4863 1831 4863 
L 2375 4863 
z
" transform="scale(0.015625)"/>
       <path id="DejaVuSans-20" transform="scale(0.015625)"/>
       <path id="DejaVuSans-5b" d="M 550 4863 
L 1875 4863 
L 1875 4416 
L 1125 4416 
L 1125 -397 
L 1875 -397 
L 1875 -844 
L 550 -844 
L 550 4863 
z
" transform="scale(0.015625)"/>
       <path id="DejaVuSans-b5" d="M 544 -1331 
L 544 3500 
L 1119 3500 
L 1119 1325 
Q 1119 872 1334 640 
Q 1550 409 1972 409 
Q 2434 409 2667 671 
Q 2900 934 2900 1459 
L 2900 3500 
L 3475 3500 
L 3475 806 
Q 3475 619 3529 530 
Q 3584 441 3700 441 
Q 3728 441 3778 458 
Q 3828 475 3916 513 
L 3916 50 
Q 3788 -22 3673 -56 
Q 3559 -91 3450 -91 
Q 3234 -91 3106 31 
Q 2978 153 2931 403 
Q 2775 156 2548 32 
Q 2322 -91 2016 -91 
Q 1697 -91 1473 31 
Q 1250 153 1119 397 
L 1119 -1331 
L 544 -1331 
z
" transform="scale(0.015625)"/>
       <path id="DejaVuSans-73" d="M 2834 3397 
L 2834 2853 
Q 2591 2978 2328 3040 
Q 2066 3103 1784 3103 
Q 1356 3103 1142 2972 
Q 928 2841 928 2578 
Q 928 2378 1081 2264 
Q 1234 2150 1697 2047 
L 1894 2003 
Q 2506 1872 2764 1633 
Q 3022 1394 3022 966 
Q 3022 478 2636 193 
Q 2250 -91 1575 -91 
Q 1294 -91 989 -36 
Q 684 19 347 128 
L 347 722 
Q 666 556 975 473 
Q 1284 391 1588 391 
Q 1994 391 2212 530 
Q 2431 669 2431 922 
Q 2431 1156 2273 1281 
Q 2116 1406 1581 1522 
L 1381 1569 
Q 847 1681 609 1914 
Q 372 2147 372 2553 
Q 372 3047 722 3315 
Q 1072 3584 1716 3584 
Q 2034 3584 2315 3537 
Q 2597 3491 2834 3397 
z
" transform="scale(0.015625)"/>
       <path id="DejaVuSans-5d" d="M 1947 4863 
L 1947 -844 
L 622 -844 
L 622 -397 
L 1369 -397 
L 1369 4416 
L 622 4416 
L 622 4863 
L 1947 4863 
z
" transform="scale(0.015625)"/>
      </defs>
      <use xlink:href="#DejaVuSans-74"/>
      <use xlink:href="#DejaVuSans-6f" transform="translate(39.208984 0)"/>
      <use xlink:href="#DejaVuSans-66" transform="translate(100.390625 0)"/>
      <use xlink:href="#DejaVuSans-20" transform="translate(135.595703 0)"/>
      <use xlink:href="#DejaVuSans-5b" transform="translate(167.382812 0)"/>
      <use xlink:href="#DejaVuSans-b5" transform="translate(206.396484 0)"/>
      <use xlink:href="#DejaVuSans-73" transform="translate(270.019531 0)"/>
      <use xlink:href="#DejaVuSans-5d" transform="translate(322.119141 0)"/>
     </g>
    </g>
   </g>
   <g id="matplotlib.axis_2">
    <g id="ytick_1">
     <g id="line2d_9">
      <defs>
       <path id="mba7981f318" d="M 0 0 
L -3.5 0 
" style="stroke: #000000; stroke-width: 0.8"/>
      </defs>
      <g>
       <use xlink:href="#mba7981f318" x="59.690625" y="218.88" style="stroke: #000000; stroke-width: 0.8"/>
      </g>
     </g>
     <g id="text_10">
      <!-- 0 -->
      <g transform="translate(46.328125 222.679219) scale(0.1 -0.1)">
       <use xlink:href="#DejaVuSans-30"/>
      </g>
     </g>
    </g>
    <g id="ytick_2">
     <g id="line2d_10">
      <g>
       <use xlink:href="#mba7981f318" x="59.690625" y="186.39269" style="stroke: #000000; stroke-width: 0.8"/>
      </g>
     </g>
     <g id="text_11">
      <!-- 2000 -->
      <g transform="translate(27.240625 190.191909) scale(0.1 -0.1)">
       <use xlink:href="#DejaVuSans-32"/>
       <use xlink:href="#DejaVuSans-30" transform="translate(63.623047 0)"/>
       <use xlink:href="#DejaVuSans-30" transform="translate(127.246094 0)"/>
       <use xlink:href="#DejaVuSans-30" transform="translate(190.869141 0)"/>
      </g>
     </g>
    </g>
    <g id="ytick_3">
     <g id="line2d_11">
      <g>
       <use xlink:href="#mba7981f318" x="59.690625" y="153.905381" style="stroke: #000000; stroke-width: 0.8"/>
      </g>
     </g>
     <g id="text_12">
      <!-- 4000 -->
      <g transform="translate(27.240625 157.704599) scale(0.1 -0.1)">
       <use xlink:href="#DejaVuSans-34"/>
       <use xlink:href="#DejaVuSans-30" transform="translate(63.623047 0)"/>
       <use xlink:href="#DejaVuSans-30" transform="translate(127.246094 0)"/>
       <use xlink:href="#DejaVuSans-30" transform="translate(190.869141 0)"/>
      </g>
     </g>
    </g>
    <g id="ytick_4">
     <g id="line2d_12">
      <g>
       <use xlink:href="#mba7981f318" x="59.690625" y="121.418071" style="stroke: #000000; stroke-width: 0.8"/>
      </g>
     </g>
     <g id="text_13">
      <!-- 6000 -->
      <g transform="translate(27.240625 125.21729) scale(0.1 -0.1)">
       <use xlink:href="#DejaVuSans-36"/>
       <use xlink:href="#DejaVuSans-30" transform="translate(63.623047 0)"/>
       <use xlink:href="#DejaVuSans-30" transform="translate(127.246094 0)"/>
       <use xlink:href="#DejaVuSans-30" transform="translate(190.869141 0)"/>
      </g>
     </g>
    </g>
    <g id="ytick_5">
     <g id="line2d_13">
      <g>
       <use xlink:href="#mba7981f318" x="59.690625" y="88.930761" style="stroke: #000000; stroke-width: 0.8"/>
      </g>
     </g>
     <g id="text_14">
      <!-- 8000 -->
      <g transform="translate(27.240625 92.72998) scale(0.1 -0.1)">
       <use xlink:href="#DejaVuSans-38"/>
       <use xlink:href="#DejaVuSans-30" transform="translate(63.623047 0)"/>
       <use xlink:href="#DejaVuSans-30" transform="translate(127.246094 0)"/>
       <use xlink:href="#DejaVuSans-30" transform="translate(190.869141 0)"/>
      </g>
     </g>
    </g>
    <g id="ytick_6">
     <g id="line2d_14">
      <g>
       <use xlink:href="#mba7981f318" x="59.690625" y="56.443452" style="stroke: #000000; stroke-width: 0.8"/>
      </g>
     </g>
     <g id="text_15">
      <!-- 10000 -->
      <g transform="translate(20.878125 60.242671) scale(0.1 -0.1)">
       <use xlink:href="#DejaVuSans-31"/>
       <use xlink:href="#DejaVuSans-30" transform="translate(63.623047 0)"/>
       <use xlink:href="#DejaVuSans-30" transform="translate(127.246094 0)"/>
       <use xlink:href="#DejaVuSans-30" transform="translate(190.869141 0)"/>
       <use xlink:href="#DejaVuSans-30" transform="translate(254.492188 0)"/>
      </g>
     </g>
    </g>
    <g id="ytick_7">
     <g id="line2d_15">
      <g>
       <use xlink:href="#mba7981f318" x="59.690625" y="23.956142" style="stroke: #000000; stroke-width: 0.8"/>
      </g>
     </g>
     <g id="text_16">
      <!-- 12000 -->
      <g transform="translate(20.878125 27.755361) scale(0.1 -0.1)">
       <use xlink:href="#DejaVuSans-31"/>
       <use xlink:href="#DejaVuSans-32" transform="translate(63.623047 0)"/>
       <use xlink:href="#DejaVuSans-30" transform="translate(127.246094 0)"/>
       <use xlink:href="#DejaVuSans-30" transform="translate(190.869141 0)"/>
       <use xlink:href="#DejaVuSans-30" transform="translate(254.492188 0)"/>
      </g>
     </g>
    </g>
    <g id="text_17">
     <!-- [counts] -->
     <g transform="translate(14.798438 138.6925) rotate(-90) scale(0.1 -0.1)">
      <defs>
       <path id="DejaVuSans-63" d="M 3122 3366 
L 3122 2828 
Q 2878 2963 2633 3030 
Q 2388 3097 2138 3097 
Q 1578 3097 1268 2742 
Q 959 2388 959 1747 
Q 959 1106 1268 751 
Q 1578 397 2138 397 
Q 2388 397 2633 464 
Q 2878 531 3122 666 
L 3122 134 
Q 2881 22 2623 -34 
Q 2366 -91 2075 -91 
Q 1284 -91 818 406 
Q 353 903 353 1747 
Q 353 2603 823 3093 
Q 1294 3584 2113 3584 
Q 2378 3584 2631 3529 
Q 2884 3475 3122 3366 
z
" transform="scale(0.015625)"/>
       <path id="DejaVuSans-75" d="M 544 1381 
L 544 3500 
L 1119 3500 
L 1119 1403 
Q 1119 906 1312 657 
Q 1506 409 1894 409 
Q 2359 409 2629 706 
Q 2900 1003 2900 1516 
L 2900 3500 
L 3475 3500 
L 3475 0 
L 2900 0 
L 2900 538 
Q 2691 219 2414 64 
Q 2138 -91 1772 -91 
Q 1169 -91 856 284 
Q 544 659 544 1381 
z
M 1991 3584 
L 1991 3584 
z
" transform="scale(0.015625)"/>
       <path id="DejaVuSans-6e" d="M 3513 2113 
L 3513 0 
L 2938 0 
L 2938 2094 
Q 2938 2591 2744 2837 
Q 2550 3084 2163 3084 
Q 1697 3084 1428 2787 
Q 1159 2491 1159 1978 
L 1159 0 
L 581 0 
L 581 3500 
L 1159 3500 
L 1159 2956 
Q 1366 3272 1645 3428 
Q 1925 3584 2291 3584 
Q 2894 3584 3203 3211 
Q 3513 2838 3513 2113 
z
" transform="scale(0.015625)"/>
      </defs>
      <use xlink:href="#DejaVuSans-5b"/>
      <use xlink:href="#DejaVuSans-63" transform="translate(39.013672 0)"/>
      <use xlink:href="#DejaVuSans-6f" transform="translate(93.994141 0)"/>
      <use xlink:href="#DejaVuSans-75" transform="translate(155.175781 0)"/>
      <use xlink:href="#DejaVuSans-6e" transform="translate(218.554688 0)"/>
      <use xlink:href="#DejaVuSans-74" transform="translate(281.933594 0)"/>
      <use xlink:href="#DejaVuSans-73" transform="translate(321.142578 0)"/>
      <use xlink:href="#DejaVuSans-5d" transform="translate(373.242188 0)"/>
     </g>
    </g>
   </g>
   <g id="line2d_16">
    <path d="M 74.908807 218.733807 
L 77.962623 218.652589 
L 77.962623 218.506396 
L 81.016438 218.457665 
L 81.016438 218.636345 
L 82.034377 218.636345 
L 82.034377 218.262741 
L 83.052315 218.262741 
L 83.052315 218.100305 
L 85.088193 218.067817 
L 85.088193 217.67797 
L 87.12407 217.612995 
L 87.12407 217.401827 
L 88.142008 217.401827 
L 88.142008 217.255635 
L 89.159947 217.255635 
L 89.159947 216.443452 
L 91.195824 216.475939 
L 91.195824 215.793706 
L 92.213763 215.793706 
L 92.213763 214.575431 
L 93.231701 214.575431 
L 93.231701 214.071878 
L 94.24964 214.071878 
L 94.24964 212.821117 
L 95.267578 212.821117 
L 95.267578 211.716548 
L 96.285517 211.716548 
L 96.285517 209.28 
L 97.303456 209.28 
L 97.303456 208.061726 
L 98.321394 208.061726 
L 98.321394 203.432284 
L 99.339333 203.432284 
L 99.339333 202.327716 
L 100.357271 202.327716 
L 100.357271 197.730761 
L 101.37521 197.730761 
L 101.37521 188.910457 
L 102.393149 188.910457 
L 102.393149 186.831269 
L 103.411087 186.831269 
L 103.411087 178.758173 
L 104.429026 178.758173 
L 104.429026 170.782538 
L 105.446964 170.782538 
L 105.446964 166.981523 
L 106.464903 166.981523 
L 106.464903 160.25665 
L 107.482841 160.25665 
L 107.482841 150.039391 
L 108.50078 150.039391 
L 108.50078 140.439391 
L 109.518719 140.439391 
L 109.518719 137.093198 
L 110.536657 137.093198 
L 110.536657 123.887107 
L 111.554596 123.887107 
L 111.554596 117.714518 
L 112.572534 117.714518 
L 112.572534 105.612995 
L 113.590473 105.612995 
L 113.590473 99.115533 
L 114.608412 99.115533 
L 114.608412 85.292183 
L 115.62635 85.292183 
L 115.62635 81.361218 
L 116.644289 81.361218 
L 116.644289 59.156142 
L 117.662227 59.156142 
L 117.662227 52.431269 
L 118.680166 52.431269 
L 118.680166 54.250558 
L 119.698104 54.250558 
L 119.698104 41.937868 
L 120.716043 41.937868 
L 120.716043 46.209949 
L 121.733982 46.209949 
L 121.733982 37.14599 
L 122.75192 37.14599 
L 122.75192 33.734822 
L 123.769859 33.734822 
L 123.769859 38.234315 
L 124.787797 38.234315 
L 124.787797 33.76731 
L 125.805736 33.76731 
L 125.805736 28.260711 
L 126.823675 28.260711 
L 126.823675 30.502335 
L 127.841613 30.502335 
L 127.841613 17.28 
L 128.859552 17.28 
L 128.859552 27.90335 
L 129.87749 27.90335 
L 129.87749 26.555127 
L 130.895429 26.555127 
L 130.895429 20.041421 
L 131.913367 20.041421 
L 131.913367 29.024162 
L 132.931306 29.024162 
L 132.931306 26.782538 
L 133.949245 26.782538 
L 133.949245 26.52264 
L 134.967183 26.52264 
L 134.967183 32.370355 
L 135.985122 32.370355 
L 135.985122 27.156142 
L 137.00306 27.156142 
L 137.00306 32.061726 
L 138.020999 32.061726 
L 138.020999 27.318579 
L 139.038938 27.318579 
L 139.038938 35.407919 
L 140.056876 35.407919 
L 140.056876 21.763249 
L 141.074815 21.763249 
L 141.074815 31.753096 
L 142.092753 31.753096 
L 142.092753 33.003858 
L 143.110692 33.003858 
L 143.110692 38.542944 
L 144.12863 38.542944 
L 144.12863 44.796751 
L 145.146569 44.796751 
L 145.146569 52.544975 
L 146.164508 52.544975 
L 146.164508 57.288122 
L 147.182446 57.288122 
L 147.182446 60.601827 
L 148.200385 60.601827 
L 148.200385 65.166294 
L 149.218323 65.166294 
L 149.218323 69.763249 
L 150.236262 69.763249 
L 150.236262 68.220102 
L 151.254201 68.220102 
L 151.254201 70.396751 
L 152.272139 70.396751 
L 152.272139 83.846497 
L 153.290078 83.846497 
L 153.290078 79.655635 
L 154.308016 79.655635 
L 154.308016 83.586599 
L 155.325955 83.586599 
L 155.325955 90.863756 
L 156.343893 90.863756 
L 156.343893 87.891168 
L 157.361832 87.891168 
L 157.361832 98.108426 
L 158.379771 98.108426 
L 158.379771 100.187614 
L 159.397709 100.187614 
L 159.397709 99.667817 
L 160.415648 99.667817 
L 160.415648 106.262741 
L 161.433586 106.262741 
L 161.433586 105.223147 
L 162.451525 105.223147 
L 162.451525 107.789645 
L 163.469464 107.789645 
L 163.469464 110.713503 
L 164.487402 110.713503 
L 164.487402 111.59066 
L 165.505341 111.59066 
L 165.505341 123.838376 
L 166.523279 123.838376 
L 166.523279 120.930761 
L 167.541218 120.930761 
L 167.541218 119.744975 
L 168.559156 119.744975 
L 168.559156 120.605888 
L 169.577095 120.605888 
L 169.577095 127.525685 
L 170.595034 127.525685 
L 170.595034 124.683046 
L 171.612972 124.683046 
L 171.612972 136.849543 
L 172.630911 136.849543 
L 172.630911 132.593706 
L 173.648849 132.593706 
L 173.648849 130.628223 
L 174.666788 130.628223 
L 174.666788 136.979492 
L 175.684727 136.979492 
L 175.684727 137.174416 
L 177.720604 137.271878 
L 177.720604 144.467817 
L 178.738542 144.467817 
L 178.738542 145.848528 
L 179.756481 145.848528 
L 179.756481 146.953096 
L 180.774419 146.953096 
L 180.774419 149.698274 
L 181.792358 149.698274 
L 181.792358 148.853604 
L 182.810297 148.853604 
L 182.810297 149.389645 
L 183.828235 149.389645 
L 183.828235 151.761218 
L 184.846174 151.761218 
L 184.846174 151.062741 
L 185.864112 151.062741 
L 185.864112 156.017056 
L 186.882051 156.017056 
L 186.882051 155.757157 
L 187.89999 155.757157 
L 187.89999 154.52264 
L 188.917928 154.52264 
L 188.917928 160.711472 
L 189.935867 160.711472 
L 189.935867 161.182538 
L 190.953805 161.182538 
L 190.953805 161.068832 
L 191.971744 161.068832 
L 191.971744 163.326701 
L 192.989682 163.326701 
L 192.989682 164.544975 
L 194.007621 164.544975 
L 194.007621 167.712487 
L 195.02556 167.712487 
L 195.02556 167.127716 
L 196.043498 167.127716 
L 196.043498 172.601827 
L 197.061437 172.601827 
L 197.061437 168.70335 
L 198.079375 168.70335 
L 198.079375 173.657665 
L 199.097314 173.657665 
L 199.097314 173.154112 
L 200.115253 173.154112 
L 200.115253 178.189645 
L 201.133191 178.189645 
L 201.133191 174.486091 
L 202.15113 174.486091 
L 202.15113 181.974416 
L 203.169068 181.974416 
L 203.169068 179.976447 
L 204.187007 179.976447 
L 204.187007 186.555127 
L 205.204945 186.555127 
L 205.204945 187.789645 
L 206.222884 187.789645 
L 206.222884 186.441421 
L 207.240823 186.441421 
L 207.240823 189.332792 
L 208.258761 189.332792 
L 208.258761 191.379492 
L 209.2767 191.379492 
L 209.2767 192.500305 
L 210.294638 192.500305 
L 210.294638 194.839391 
L 211.312577 194.839391 
L 211.312577 193.45868 
L 212.330516 193.45868 
L 212.330516 197.422132 
L 213.348454 197.422132 
L 213.348454 197.048528 
L 214.366393 197.048528 
L 214.366393 198.884061 
L 215.384331 198.884061 
L 215.384331 200.88203 
L 216.40227 200.88203 
L 216.40227 201.060711 
L 217.420208 201.060711 
L 217.420208 201.531777 
L 218.438147 201.531777 
L 218.438147 204.471878 
L 220.474024 204.536853 
L 220.474024 205.05665 
L 221.491963 205.05665 
L 221.491963 206.810964 
L 222.509901 206.810964 
L 222.509901 206.957157 
L 223.52784 206.957157 
L 223.52784 208.61401 
L 224.545779 208.61401 
L 224.545779 208.305381 
L 225.563717 208.305381 
L 225.563717 211.14802 
L 226.581656 211.14802 
L 226.581656 209.751066 
L 227.599594 209.751066 
L 227.599594 212.138883 
L 228.617533 212.138883 
L 228.617533 211.943959 
L 229.635471 211.943959 
L 229.635471 213.243452 
L 230.65341 213.243452 
L 230.65341 213.470863 
L 231.671349 213.470863 
L 231.671349 214.34802 
L 232.689287 214.34802 
L 232.689287 214.672893 
L 233.707226 214.672893 
L 233.707226 215.874924 
L 234.725164 215.874924 
L 234.725164 216.264772 
L 235.743103 216.264772 
L 235.743103 216.557157 
L 236.761042 216.557157 
L 236.761042 216.281015 
L 237.77898 216.281015 
L 237.77898 217.434315 
L 238.796919 217.434315 
L 238.796919 217.759188 
L 239.814857 217.759188 
L 239.814857 217.986599 
L 240.832796 217.986599 
L 240.832796 218.246497 
L 241.850734 218.246497 
L 241.850734 218.717563 
L 242.868673 218.717563 
L 242.868673 218.88 
L 379.272443 218.88 
L 379.272443 218.88 
" clip-path="url(#p3dcc21d6b7)" style="fill: none; stroke: #1f77b4; stroke-width: 1.5; stroke-linecap: square"/>
   </g>
   <g id="line2d_17">
    <path d="M 74.908807 218.88 
L 103.411087 218.88 
L 103.411087 218.636345 
L 106.464903 218.571371 
L 106.464903 218.766294 
L 109.518719 218.733807 
L 109.518719 218.506396 
L 114.608412 218.425178 
L 114.608412 218.181523 
L 119.698104 218.21401 
L 119.698104 217.889137 
L 121.733982 217.921624 
L 121.733982 217.596751 
L 122.75192 217.596751 
L 122.75192 217.742944 
L 123.769859 217.742944 
L 123.769859 217.141929 
L 124.787797 217.141929 
L 124.787797 217.499289 
L 125.805736 217.499289 
L 125.805736 217.271878 
L 126.823675 217.271878 
L 126.823675 216.605888 
L 127.841613 216.605888 
L 127.841613 216.216041 
L 130.895429 216.151066 
L 130.895429 215.160203 
L 132.931306 215.160203 
L 132.931306 214.640406 
L 133.949245 214.640406 
L 133.949245 213.617056 
L 134.967183 213.617056 
L 134.967183 212.788629 
L 137.00306 212.772386 
L 137.00306 211.472893 
L 138.020999 211.472893 
L 138.020999 209.361218 
L 139.038938 209.361218 
L 139.038938 210.563249 
L 140.056876 210.563249 
L 140.056876 207.996751 
L 141.074815 207.996751 
L 141.074815 205.917563 
L 142.092753 205.917563 
L 142.092753 204.520609 
L 143.110692 204.520609 
L 143.110692 203.042437 
L 144.12863 203.042437 
L 144.12863 200.410964 
L 145.146569 200.410964 
L 145.146569 198.542944 
L 146.164508 198.542944 
L 146.164508 194.806904 
L 147.182446 194.806904 
L 147.182446 193.344975 
L 148.200385 193.344975 
L 148.200385 191.168325 
L 149.218323 191.168325 
L 149.218323 189.05665 
L 150.236262 189.05665 
L 150.236262 187.740914 
L 151.254201 187.740914 
L 151.254201 180.772386 
L 152.272139 180.772386 
L 152.272139 184.264772 
L 153.290078 184.264772 
L 153.290078 176.938883 
L 154.308016 176.938883 
L 154.308016 175.152081 
L 155.325955 175.152081 
L 155.325955 172.975431 
L 156.343893 172.975431 
L 156.343893 168.264772 
L 157.361832 168.264772 
L 157.361832 166.461726 
L 158.379771 166.461726 
L 158.379771 162.287107 
L 159.397709 162.287107 
L 159.397709 159.785584 
L 160.415648 159.785584 
L 160.415648 157.950051 
L 161.433586 157.950051 
L 161.433586 151.923655 
L 162.451525 151.923655 
L 162.451525 148.886091 
L 164.487402 148.804873 
L 164.487402 142.551066 
L 165.505341 142.551066 
L 165.505341 137.01198 
L 166.523279 137.01198 
L 166.523279 134.039391 
L 167.541218 134.039391 
L 167.541218 133.14599 
L 168.559156 133.14599 
L 168.559156 127.200812 
L 169.577095 127.200812 
L 169.577095 120.443452 
L 170.595034 120.443452 
L 170.595034 118.624162 
L 171.612972 118.624162 
L 171.612972 117.99066 
L 172.630911 117.99066 
L 172.630911 119.387614 
L 173.648849 119.387614 
L 173.648849 109.41401 
L 174.666788 109.41401 
L 174.666788 118.315533 
L 175.684727 118.315533 
L 175.684727 109.755127 
L 176.702665 109.755127 
L 176.702665 112.224162 
L 177.720604 112.224162 
L 177.720604 111.022132 
L 178.738542 111.022132 
L 178.738542 112.662741 
L 179.756481 112.662741 
L 179.756481 104.329746 
L 180.774419 104.329746 
L 180.774419 110.697259 
L 181.792358 110.697259 
L 181.792358 109.982538 
L 182.810297 109.982538 
L 182.810297 101.032284 
L 183.828235 101.032284 
L 183.828235 107.123655 
L 184.846174 107.123655 
L 184.846174 102.023147 
L 185.864112 102.023147 
L 185.864112 103.273909 
L 186.882051 103.273909 
L 186.882051 102.786599 
L 187.89999 102.786599 
L 187.89999 98.579492 
L 188.917928 98.579492 
L 188.917928 105.872893 
L 189.935867 105.872893 
L 189.935867 99.911472 
L 190.953805 99.911472 
L 190.953805 105.67797 
L 191.971744 105.67797 
L 191.971744 101.958173 
L 192.989682 101.958173 
L 192.989682 107.773401 
L 194.007621 107.773401 
L 194.007621 103.68 
L 195.02556 103.68 
L 195.02556 101.14599 
L 196.043498 101.14599 
L 196.043498 98.660711 
L 197.061437 98.660711 
L 197.061437 106.636345 
L 198.079375 106.636345 
L 198.079375 105.759188 
L 199.097314 105.759188 
L 199.097314 106.685076 
L 200.115253 106.685076 
L 200.115253 101.828223 
L 201.133191 101.828223 
L 201.133191 103.728731 
L 202.15113 103.728731 
L 202.15113 106.652589 
L 203.169068 106.652589 
L 203.169068 104.947005 
L 204.187007 104.947005 
L 204.187007 114.888122 
L 205.204945 114.888122 
L 205.204945 105.450558 
L 206.222884 105.450558 
L 206.222884 104.557157 
L 207.240823 104.557157 
L 207.240823 101.097259 
L 208.258761 101.097259 
L 208.258761 108.017056 
L 209.2767 108.017056 
L 209.2767 109.007919 
L 210.294638 109.007919 
L 210.294638 110.940914 
L 211.312577 110.940914 
L 211.312577 105.499289 
L 212.330516 105.499289 
L 212.330516 111.671878 
L 213.348454 111.671878 
L 213.348454 111.168325 
L 214.366393 111.168325 
L 214.366393 115.846497 
L 215.384331 115.846497 
L 215.384331 118.266802 
L 216.40227 118.266802 
L 216.40227 116.382538 
L 217.420208 116.382538 
L 217.420208 120.70335 
L 218.438147 120.70335 
L 218.438147 117.340914 
L 219.456086 117.340914 
L 219.456086 122.668832 
L 220.474024 122.668832 
L 220.474024 129.003858 
L 221.491963 129.003858 
L 221.491963 127.265787 
L 222.509901 127.265787 
L 222.509901 128.240406 
L 223.52784 128.240406 
L 223.52784 126.843452 
L 224.545779 126.843452 
L 224.545779 128.857665 
L 225.563717 128.857665 
L 225.563717 131.830254 
L 226.581656 131.830254 
L 226.581656 132.707411 
L 227.599594 132.707411 
L 227.599594 132.902335 
L 228.617533 132.902335 
L 228.617533 134.672893 
L 229.635471 134.672893 
L 229.635471 136.492183 
L 230.65341 136.492183 
L 230.65341 138.002843 
L 231.671349 138.002843 
L 231.671349 142.648528 
L 232.689287 142.648528 
L 232.689287 138.311472 
L 233.707226 138.311472 
L 233.707226 132.106396 
L 234.725164 132.106396 
L 234.725164 145.751066 
L 235.743103 145.751066 
L 235.743103 153.028223 
L 236.761042 153.028223 
L 236.761042 145.994721 
L 238.796919 145.913503 
L 238.796919 145.166294 
L 239.814857 145.166294 
L 239.814857 149.162234 
L 241.850734 149.113503 
L 241.850734 146.595736 
L 242.868673 146.595736 
L 242.868673 150.039391 
L 243.886612 150.039391 
L 243.886612 152.622132 
L 244.90455 152.622132 
L 244.90455 149.194721 
L 245.922489 149.194721 
L 245.922489 156.358173 
L 246.940427 156.358173 
L 246.940427 154.912487 
L 247.958366 154.912487 
L 247.958366 155.156142 
L 248.976305 155.156142 
L 248.976305 159.005888 
L 249.994243 159.005888 
L 249.994243 159.704365 
L 251.012182 159.704365 
L 251.012182 157.608934 
L 252.03012 157.608934 
L 252.03012 158.339898 
L 253.048059 158.339898 
L 253.048059 159.249543 
L 254.065997 159.249543 
L 254.065997 158.128731 
L 255.083936 158.128731 
L 255.083936 160.419086 
L 256.101875 160.419086 
L 256.101875 166.461726 
L 257.119813 166.461726 
L 257.119813 162.871878 
L 258.137752 162.871878 
L 258.137752 167.208934 
L 259.15569 167.208934 
L 259.15569 165.941929 
L 260.173629 165.941929 
L 260.173629 164.577462 
L 261.191568 164.577462 
L 261.191568 164.983553 
L 262.209506 164.983553 
L 262.209506 162.335838 
L 263.227445 162.335838 
L 263.227445 169.921624 
L 264.245383 169.921624 
L 264.245383 170.620102 
L 265.263322 170.620102 
L 265.263322 168.248528 
L 266.28126 168.248528 
L 266.28126 168.589645 
L 267.299199 168.589645 
L 267.299199 171.692183 
L 268.317138 171.692183 
L 268.317138 170.52264 
L 269.335076 170.52264 
L 269.335076 176.029239 
L 270.353015 176.029239 
L 270.353015 170.993706 
L 271.370953 170.993706 
L 271.370953 172.195736 
L 272.388892 172.195736 
L 272.388892 175.249543 
L 273.406831 175.249543 
L 273.406831 174.031269 
L 274.424769 174.031269 
L 274.424769 173.917563 
L 275.442708 173.917563 
L 275.442708 177.523655 
L 276.460646 177.523655 
L 276.460646 178.693198 
L 277.478585 178.693198 
L 277.478585 175.200812 
L 278.496523 175.200812 
L 278.496523 176.354112 
L 279.514462 176.354112 
L 279.514462 178.725685 
L 280.532401 178.725685 
L 280.532401 182.023147 
L 281.550339 182.023147 
L 281.550339 180.512487 
L 282.568278 180.512487 
L 282.568278 177.426193 
L 283.586216 177.426193 
L 283.586216 179.391675 
L 284.604155 179.391675 
L 284.604155 179.911472 
L 285.622094 179.911472 
L 285.622094 181.617056 
L 286.640032 181.617056 
L 286.640032 180.268832 
L 287.657971 180.268832 
L 287.657971 182.754112 
L 288.675909 182.754112 
L 288.675909 184.540914 
L 289.693848 184.540914 
L 289.693848 184.70335 
L 290.711786 184.70335 
L 290.711786 178.254619 
L 291.729725 178.254619 
L 291.729725 187.675939 
L 292.747664 187.675939 
L 292.747664 183.338883 
L 293.765602 183.338883 
L 293.765602 187.302335 
L 294.783541 187.302335 
L 294.783541 185.661726 
L 295.801479 185.661726 
L 295.801479 186.327716 
L 297.837357 186.39269 
L 297.837357 186.52264 
L 298.855295 186.52264 
L 298.855295 189.72264 
L 299.873234 189.72264 
L 299.873234 189.202843 
L 300.891172 189.202843 
L 300.891172 190.047513 
L 301.909111 190.047513 
L 301.909111 188.358173 
L 302.927049 188.358173 
L 302.927049 191.070863 
L 303.944988 191.070863 
L 303.944988 191.28203 
L 304.962927 191.28203 
L 304.962927 193.507411 
L 305.980865 193.507411 
L 305.980865 189.284061 
L 306.998804 189.284061 
L 306.998804 193.003858 
L 308.016742 193.003858 
L 308.016742 192.743959 
L 309.034681 192.743959 
L 309.034681 192.61401 
L 310.05262 192.61401 
L 310.05262 194.498274 
L 311.070558 194.498274 
L 311.070558 195.765279 
L 312.088497 195.765279 
L 312.088497 198.542944 
L 314.124374 198.591675 
L 314.124374 194.61198 
L 315.142312 194.61198 
L 315.142312 199.095228 
L 316.160251 199.095228 
L 316.160251 199.956142 
L 317.17819 199.956142 
L 317.17819 197.795736 
L 318.196128 197.795736 
L 318.196128 199.078985 
L 319.214067 199.078985 
L 319.214067 203.610964 
L 320.232005 203.610964 
L 320.232005 201.775431 
L 321.249944 201.775431 
L 321.249944 203.269848 
L 322.267883 203.269848 
L 322.267883 200.963249 
L 323.285821 200.963249 
L 323.285821 203.675939 
L 324.30376 203.675939 
L 324.30376 202.766294 
L 325.321698 202.766294 
L 325.321698 204.406904 
L 326.339637 204.406904 
L 326.339637 204.163249 
L 327.357575 204.163249 
L 327.357575 205.024162 
L 328.375514 205.024162 
L 328.375514 205.641421 
L 329.393453 205.641421 
L 329.393453 205.917563 
L 330.411391 205.917563 
L 330.411391 205.608934 
L 331.42933 205.608934 
L 331.42933 206.583553 
L 332.447268 206.583553 
L 332.447268 207.834315 
L 333.465207 207.834315 
L 333.465207 208.743959 
L 334.483146 208.743959 
L 334.483146 207.866802 
L 336.519023 207.931777 
L 336.519023 209.669848 
L 337.536961 209.669848 
L 337.536961 208.532792 
L 338.5549 208.532792 
L 338.5549 210.189645 
L 339.572838 210.189645 
L 339.572838 210.043452 
L 340.590777 210.043452 
L 340.590777 210.270863 
L 341.608716 210.270863 
L 341.608716 209.897259 
L 342.626654 209.897259 
L 342.626654 211.651574 
L 343.644593 211.651574 
L 343.644593 211.537868 
L 344.662531 211.537868 
L 344.662531 212.041421 
L 345.68047 212.041421 
L 345.68047 212.609949 
L 346.698409 212.609949 
L 346.698409 212.236345 
L 348.734286 212.236345 
L 348.734286 213.194721 
L 349.752224 213.194721 
L 349.752224 212.83736 
L 350.770163 212.83736 
L 350.770163 213.958173 
L 351.788101 213.958173 
L 351.788101 213.779492 
L 352.80604 213.779492 
L 352.80604 214.34802 
L 353.823979 214.34802 
L 353.823979 214.802843 
L 355.859856 214.83533 
L 355.859856 215.111472 
L 358.913672 215.062741 
L 358.913672 216.183553 
L 360.949549 216.102335 
L 360.949549 215.923655 
L 361.967487 215.923655 
L 361.967487 216.378477 
L 362.985426 216.378477 
L 362.985426 216.768325 
L 364.003364 216.768325 
L 364.003364 217.028223 
L 365.021303 217.028223 
L 365.021303 217.320609 
L 368.075119 217.418071 
L 368.075119 217.450558 
L 370.110996 217.515533 
L 370.110996 217.661726 
L 371.128935 217.661726 
L 371.128935 218.149036 
L 373.164812 218.132792 
L 373.164812 218.262741 
L 375.200689 218.343959 
L 375.200689 218.457665 
L 376.218627 218.457665 
L 376.218627 218.603858 
L 377.236566 218.603858 
L 377.236566 218.766294 
L 379.272443 218.863756 
L 379.272443 218.863756 
" clip-path="url(#p3dcc21d6b7)" style="fill: none; stroke: #ff7f0e; stroke-width: 1.5; stroke-linecap: square"/>
   </g>
   <g id="patch_3">
    <path d="M 59.690625 228.96 
L 59.690625 7.2 
" style="fill: none; stroke: #000000; stroke-width: 0.8; stroke-linejoin: miter; stroke-linecap: square"/>
   </g>
   <g id="patch_4">
    <path d="M 394.490625 228.96 
L 394.490625 7.2 
" style="fill: none; stroke: #000000; stroke-width: 0.8; stroke-linejoin: miter; stroke-linecap: square"/>
   </g>
   <g id="patch_5">
    <path d="M 59.690625 228.96 
L 394.490625 228.96 
" style="fill: none; stroke: #000000; stroke-width: 0.8; stroke-linejoin: miter; stroke-linecap: square"/>
   </g>
   <g id="patch_6">
    <path d="M 59.690625 7.2 
L 394.490625 7.2 
" style="fill: none; stroke: #000000; stroke-width: 0.8; stroke-linejoin: miter; stroke-linecap: square"/>
   </g>
   <g id="legend_1">
    <g id="patch_7">
     <path d="M 313.267188 44.55625 
L 387.490625 44.55625 
Q 389.490625 44.55625 389.490625 42.55625 
L 389.490625 14.2 
Q 389.490625 12.2 387.490625 12.2 
L 313.267188 12.2 
Q 311.267188 12.2 311.267188 14.2 
L 311.267188 42.55625 
Q 311.267188 44.55625 313.267188 44.55625 
z
" style="fill: #ffffff; opacity: 0.8; stroke: #cccccc; stroke-linejoin: miter"/>
    </g>
    <g id="line2d_18">
     <path d="M 315.267188 20.298437 
L 315.267188 20.298437 
L 325.267188 20.298437 
L 325.267188 20.298437 
L 335.267188 20.298437 
" style="fill: none; stroke: #1f77b4; stroke-width: 1.5; stroke-linecap: square"/>
    </g>
    <g id="text_18">
     <!-- monitor -->
     <g transform="translate(343.267188 23.798437) scale(0.1 -0.1)">
      <defs>
       <path id="DejaVuSans-6d" d="M 3328 2828 
Q 3544 3216 3844 3400 
Q 4144 3584 4550 3584 
Q 5097 3584 5394 3201 
Q 5691 2819 5691 2113 
L 5691 0 
L 5113 0 
L 5113 2094 
Q 5113 2597 4934 2840 
Q 4756 3084 4391 3084 
Q 3944 3084 3684 2787 
Q 3425 2491 3425 1978 
L 3425 0 
L 2847 0 
L 2847 2094 
Q 2847 2600 2669 2842 
Q 2491 3084 2119 3084 
Q 1678 3084 1418 2786 
Q 1159 2488 1159 1978 
L 1159 0 
L 581 0 
L 581 3500 
L 1159 3500 
L 1159 2956 
Q 1356 3278 1631 3431 
Q 1906 3584 2284 3584 
Q 2666 3584 2933 3390 
Q 3200 3197 3328 2828 
z
" transform="scale(0.015625)"/>
       <path id="DejaVuSans-69" d="M 603 3500 
L 1178 3500 
L 1178 0 
L 603 0 
L 603 3500 
z
M 603 4863 
L 1178 4863 
L 1178 4134 
L 603 4134 
L 603 4863 
z
" transform="scale(0.015625)"/>
       <path id="DejaVuSans-72" d="M 2631 2963 
Q 2534 3019 2420 3045 
Q 2306 3072 2169 3072 
Q 1681 3072 1420 2755 
Q 1159 2438 1159 1844 
L 1159 0 
L 581 0 
L 581 3500 
L 1159 3500 
L 1159 2956 
Q 1341 3275 1631 3429 
Q 1922 3584 2338 3584 
Q 2397 3584 2469 3576 
Q 2541 3569 2628 3553 
L 2631 2963 
z
" transform="scale(0.015625)"/>
      </defs>
      <use xlink:href="#DejaVuSans-6d"/>
      <use xlink:href="#DejaVuSans-6f" transform="translate(97.412109 0)"/>
      <use xlink:href="#DejaVuSans-6e" transform="translate(158.59375 0)"/>
      <use xlink:href="#DejaVuSans-69" transform="translate(221.972656 0)"/>
      <use xlink:href="#DejaVuSans-74" transform="translate(249.755859 0)"/>
      <use xlink:href="#DejaVuSans-6f" transform="translate(288.964844 0)"/>
      <use xlink:href="#DejaVuSans-72" transform="translate(350.146484 0)"/>
     </g>
    </g>
    <g id="line2d_19">
     <path d="M 315.267188 34.976562 
L 315.267188 34.976562 
L 325.267188 34.976562 
L 325.267188 34.976562 
L 335.267188 34.976562 
" style="fill: none; stroke: #ff7f0e; stroke-width: 1.5; stroke-linecap: square"/>
    </g>
    <g id="text_19">
     <!-- detector -->
     <g transform="translate(343.267188 38.476562) scale(0.1 -0.1)">
      <defs>
       <path id="DejaVuSans-64" d="M 2906 2969 
L 2906 4863 
L 3481 4863 
L 3481 0 
L 2906 0 
L 2906 525 
Q 2725 213 2448 61 
Q 2172 -91 1784 -91 
Q 1150 -91 751 415 
Q 353 922 353 1747 
Q 353 2572 751 3078 
Q 1150 3584 1784 3584 
Q 2172 3584 2448 3432 
Q 2725 3281 2906 2969 
z
M 947 1747 
Q 947 1113 1208 752 
Q 1469 391 1925 391 
Q 2381 391 2643 752 
Q 2906 1113 2906 1747 
Q 2906 2381 2643 2742 
Q 2381 3103 1925 3103 
Q 1469 3103 1208 2742 
Q 947 2381 947 1747 
z
" transform="scale(0.015625)"/>
       <path id="DejaVuSans-65" d="M 3597 1894 
L 3597 1613 
L 953 1613 
Q 991 1019 1311 708 
Q 1631 397 2203 397 
Q 2534 397 2845 478 
Q 3156 559 3463 722 
L 3463 178 
Q 3153 47 2828 -22 
Q 2503 -91 2169 -91 
Q 1331 -91 842 396 
Q 353 884 353 1716 
Q 353 2575 817 3079 
Q 1281 3584 2069 3584 
Q 2775 3584 3186 3129 
Q 3597 2675 3597 1894 
z
M 3022 2063 
Q 3016 2534 2758 2815 
Q 2500 3097 2075 3097 
Q 1594 3097 1305 2825 
Q 1016 2553 972 2059 
L 3022 2063 
z
" transform="scale(0.015625)"/>
      </defs>
      <use xlink:href="#DejaVuSans-64"/>
      <use xlink:href="#DejaVuSans-65" transform="translate(63.476562 0)"/>
      <use xlink:href="#DejaVuSans-74" transform="translate(125 0)"/>
      <use xlink:href="#DejaVuSans-65" transform="translate(164.208984 0)"/>
      <use xlink:href="#DejaVuSans-63" transform="translate(225.732422 0)"/>
      <use xlink:href="#DejaVuSans-74" transform="translate(280.712891 0)"/>
      <use xlink:href="#DejaVuSans-6f" transform="translate(319.921875 0)"/>
      <use xlink:href="#DejaVuSans-72" transform="translate(381.103516 0)"/>
     </g>
    </g>
   </g>
  </g>
 </g>
 <defs>
  <clipPath id="p3dcc21d6b7">
   <rect x="59.690625" y="7.2" width="334.8" height="221.76"/>
  </clipPath>
 </defs>
</svg>
