<?xml version="1.0" encoding="utf-8" standalone="no"?>
<!DOCTYPE svg PUBLIC "-//W3C//DTD SVG 1.1//EN"
  "http://www.w3.org/Graphics/SVG/1.1/DTD/svg11.dtd">
<svg xmlns:xlink="http://www.w3.org/1999/xlink" width="395.328125pt" height="266.51625pt" viewBox="0 0 395.328125 266.51625" xmlns="http://www.w3.org/2000/svg" version="1.1">
 <metadata>
  <rdf:RDF xmlns:dc="http://purl.org/dc/elements/1.1/" xmlns:cc="http://creativecommons.org/ns#" xmlns:rdf="http://www.w3.org/1999/02/22-rdf-syntax-ns#">
   <cc:Work>
    <dc:type rdf:resource="http://purl.org/dc/dcmitype/StillImage"/>
    <dc:date>2025-05-14T12:11:26.834886</dc:date>
    <dc:format>image/svg+xml</dc:format>
    <dc:creator>
     <cc:Agent>
      <dc:title>Matplotlib v3.10.1, https://matplotlib.org/</dc:title>
     </cc:Agent>
    </dc:creator>
   </cc:Work>
  </rdf:RDF>
 </metadata>
 <defs>
  <style type="text/css">*{stroke-linejoin: round; stroke-linecap: butt}</style>
 </defs>
 <g id="figure_1">
  <g id="patch_1">
   <path d="M 0 266.51625 
L 395.328125 266.51625 
L 395.328125 0 
L 0 0 
z
" style="fill: #ffffff"/>
  </g>
  <g id="axes_1">
   <g id="patch_2">
    <path d="M 53.328125 228.96 
L 388.128125 228.96 
L 388.128125 7.2 
L 53.328125 7.2 
z
" style="fill: #ffffff"/>
   </g>
   <g id="matplotlib.axis_1">
    <g id="xtick_1">
     <g id="line2d_1">
      <defs>
       <path id="m1cd2d68036" d="M 0 0 
L 0 3.5 
" style="stroke: #000000; stroke-width: 0.8"/>
      </defs>
      <g>
       <use xlink:href="#m1cd2d68036" x="109.995777" y="228.96" style="stroke: #000000; stroke-width: 0.8"/>
      </g>
     </g>
     <g id="text_1">
      <!-- 20000 -->
      <g transform="translate(94.089527 243.558437) scale(0.1 -0.1)">
       <defs>
        <path id="DejaVuSans-32" d="M 1228 531 
L 3431 531 
L 3431 0 
L 469 0 
L 469 531 
Q 828 903 1448 1529 
Q 2069 2156 2228 2338 
Q 2531 2678 2651 2914 
Q 2772 3150 2772 3378 
Q 2772 3750 2511 3984 
Q 2250 4219 1831 4219 
Q 1534 4219 1204 4116 
Q 875 4013 500 3803 
L 500 4441 
Q 881 4594 1212 4672 
Q 1544 4750 1819 4750 
Q 2544 4750 2975 4387 
Q 3406 4025 3406 3419 
Q 3406 3131 3298 2873 
Q 3191 2616 2906 2266 
Q 2828 2175 2409 1742 
Q 1991 1309 1228 531 
z
" transform="scale(0.015625)"/>
        <path id="DejaVuSans-30" d="M 2034 4250 
Q 1547 4250 1301 3770 
Q 1056 3291 1056 2328 
Q 1056 1369 1301 889 
Q 1547 409 2034 409 
Q 2525 409 2770 889 
Q 3016 1369 3016 2328 
Q 3016 3291 2770 3770 
Q 2525 4250 2034 4250 
z
M 2034 4750 
Q 2819 4750 3233 4129 
Q 3647 3509 3647 2328 
Q 3647 1150 3233 529 
Q 2819 -91 2034 -91 
Q 1250 -91 836 529 
Q 422 1150 422 2328 
Q 422 3509 836 4129 
Q 1250 4750 2034 4750 
z
" transform="scale(0.015625)"/>
       </defs>
       <use xlink:href="#DejaVuSans-32"/>
       <use xlink:href="#DejaVuSans-30" transform="translate(63.623047 0)"/>
       <use xlink:href="#DejaVuSans-30" transform="translate(127.246094 0)"/>
       <use xlink:href="#DejaVuSans-30" transform="translate(190.869141 0)"/>
       <use xlink:href="#DejaVuSans-30" transform="translate(254.492188 0)"/>
      </g>
     </g>
    </g>
    <g id="xtick_2">
     <g id="line2d_2">
      <g>
       <use xlink:href="#m1cd2d68036" x="172.397355" y="228.96" style="stroke: #000000; stroke-width: 0.8"/>
      </g>
     </g>
     <g id="text_2">
      <!-- 30000 -->
      <g transform="translate(156.491105 243.558437) scale(0.1 -0.1)">
       <defs>
        <path id="DejaVuSans-33" d="M 2597 2516 
Q 3050 2419 3304 2112 
Q 3559 1806 3559 1356 
Q 3559 666 3084 287 
Q 2609 -91 1734 -91 
Q 1441 -91 1130 -33 
Q 819 25 488 141 
L 488 750 
Q 750 597 1062 519 
Q 1375 441 1716 441 
Q 2309 441 2620 675 
Q 2931 909 2931 1356 
Q 2931 1769 2642 2001 
Q 2353 2234 1838 2234 
L 1294 2234 
L 1294 2753 
L 1863 2753 
Q 2328 2753 2575 2939 
Q 2822 3125 2822 3475 
Q 2822 3834 2567 4026 
Q 2313 4219 1838 4219 
Q 1578 4219 1281 4162 
Q 984 4106 628 3988 
L 628 4550 
Q 988 4650 1302 4700 
Q 1616 4750 1894 4750 
Q 2613 4750 3031 4423 
Q 3450 4097 3450 3541 
Q 3450 3153 3228 2886 
Q 3006 2619 2597 2516 
z
" transform="scale(0.015625)"/>
       </defs>
       <use xlink:href="#DejaVuSans-33"/>
       <use xlink:href="#DejaVuSans-30" transform="translate(63.623047 0)"/>
       <use xlink:href="#DejaVuSans-30" transform="translate(127.246094 0)"/>
       <use xlink:href="#DejaVuSans-30" transform="translate(190.869141 0)"/>
       <use xlink:href="#DejaVuSans-30" transform="translate(254.492188 0)"/>
      </g>
     </g>
    </g>
    <g id="xtick_3">
     <g id="line2d_3">
      <g>
       <use xlink:href="#m1cd2d68036" x="234.798934" y="228.96" style="stroke: #000000; stroke-width: 0.8"/>
      </g>
     </g>
     <g id="text_3">
      <!-- 40000 -->
      <g transform="translate(218.892684 243.558437) scale(0.1 -0.1)">
       <defs>
        <path id="DejaVuSans-34" d="M 2419 4116 
L 825 1625 
L 2419 1625 
L 2419 4116 
z
M 2253 4666 
L 3047 4666 
L 3047 1625 
L 3713 1625 
L 3713 1100 
L 3047 1100 
L 3047 0 
L 2419 0 
L 2419 1100 
L 313 1100 
L 313 1709 
L 2253 4666 
z
" transform="scale(0.015625)"/>
       </defs>
       <use xlink:href="#DejaVuSans-34"/>
       <use xlink:href="#DejaVuSans-30" transform="translate(63.623047 0)"/>
       <use xlink:href="#DejaVuSans-30" transform="translate(127.246094 0)"/>
       <use xlink:href="#DejaVuSans-30" transform="translate(190.869141 0)"/>
       <use xlink:href="#DejaVuSans-30" transform="translate(254.492188 0)"/>
      </g>
     </g>
    </g>
    <g id="xtick_4">
     <g id="line2d_4">
      <g>
       <use xlink:href="#m1cd2d68036" x="297.200512" y="228.96" style="stroke: #000000; stroke-width: 0.8"/>
      </g>
     </g>
     <g id="text_4">
      <!-- 50000 -->
      <g transform="translate(281.294262 243.558437) scale(0.1 -0.1)">
       <defs>
        <path id="DejaVuSans-35" d="M 691 4666 
L 3169 4666 
L 3169 4134 
L 1269 4134 
L 1269 2991 
Q 1406 3038 1543 3061 
Q 1681 3084 1819 3084 
Q 2600 3084 3056 2656 
Q 3513 2228 3513 1497 
Q 3513 744 3044 326 
Q 2575 -91 1722 -91 
Q 1428 -91 1123 -41 
Q 819 9 494 109 
L 494 744 
Q 775 591 1075 516 
Q 1375 441 1709 441 
Q 2250 441 2565 725 
Q 2881 1009 2881 1497 
Q 2881 1984 2565 2268 
Q 2250 2553 1709 2553 
Q 1456 2553 1204 2497 
Q 953 2441 691 2322 
L 691 4666 
z
" transform="scale(0.015625)"/>
       </defs>
       <use xlink:href="#DejaVuSans-35"/>
       <use xlink:href="#DejaVuSans-30" transform="translate(63.623047 0)"/>
       <use xlink:href="#DejaVuSans-30" transform="translate(127.246094 0)"/>
       <use xlink:href="#DejaVuSans-30" transform="translate(190.869141 0)"/>
       <use xlink:href="#DejaVuSans-30" transform="translate(254.492188 0)"/>
      </g>
     </g>
    </g>
    <g id="xtick_5">
     <g id="line2d_5">
      <g>
       <use xlink:href="#m1cd2d68036" x="359.60209" y="228.96" style="stroke: #000000; stroke-width: 0.8"/>
      </g>
     </g>
     <g id="text_5">
      <!-- 60000 -->
      <g transform="translate(343.69584 243.558437) scale(0.1 -0.1)">
       <defs>
        <path id="DejaVuSans-36" d="M 2113 2584 
Q 1688 2584 1439 2293 
Q 1191 2003 1191 1497 
Q 1191 994 1439 701 
Q 1688 409 2113 409 
Q 2538 409 2786 701 
Q 3034 994 3034 1497 
Q 3034 2003 2786 2293 
Q 2538 2584 2113 2584 
z
M 3366 4563 
L 3366 3988 
Q 3128 4100 2886 4159 
Q 2644 4219 2406 4219 
Q 1781 4219 1451 3797 
Q 1122 3375 1075 2522 
Q 1259 2794 1537 2939 
Q 1816 3084 2150 3084 
Q 2853 3084 3261 2657 
Q 3669 2231 3669 1497 
Q 3669 778 3244 343 
Q 2819 -91 2113 -91 
Q 1303 -91 875 529 
Q 447 1150 447 2328 
Q 447 3434 972 4092 
Q 1497 4750 2381 4750 
Q 2619 4750 2861 4703 
Q 3103 4656 3366 4563 
z
" transform="scale(0.015625)"/>
       </defs>
       <use xlink:href="#DejaVuSans-36"/>
       <use xlink:href="#DejaVuSans-30" transform="translate(63.623047 0)"/>
       <use xlink:href="#DejaVuSans-30" transform="translate(127.246094 0)"/>
       <use xlink:href="#DejaVuSans-30" transform="translate(190.869141 0)"/>
       <use xlink:href="#DejaVuSans-30" transform="translate(254.492188 0)"/>
      </g>
     </g>
    </g>
    <g id="text_6">
     <!-- tof [µs] -->
     <g transform="translate(202.671875 257.236562) scale(0.1 -0.1)">
      <defs>
       <path id="DejaVuSans-74" d="M 1172 4494 
L 1172 3500 
L 2356 3500 
L 2356 3053 
L 1172 3053 
L 1172 1153 
Q 1172 725 1289 603 
Q 1406 481 1766 481 
L 2356 481 
L 2356 0 
L 1766 0 
Q 1100 0 847 248 
Q 594 497 594 1153 
L 594 3053 
L 172 3053 
L 172 3500 
L 594 3500 
L 594 4494 
L 1172 4494 
z
" transform="scale(0.015625)"/>
       <path id="DejaVuSans-6f" d="M 1959 3097 
Q 1497 3097 1228 2736 
Q 959 2375 959 1747 
Q 959 1119 1226 758 
Q 1494 397 1959 397 
Q 2419 397 2687 759 
Q 2956 1122 2956 1747 
Q 2956 2369 2687 2733 
Q 2419 3097 1959 3097 
z
M 1959 3584 
Q 2709 3584 3137 3096 
Q 3566 2609 3566 1747 
Q 3566 888 3137 398 
Q 2709 -91 1959 -91 
Q 1206 -91 779 398 
Q 353 888 353 1747 
Q 353 2609 779 3096 
Q 1206 3584 1959 3584 
z
" transform="scale(0.015625)"/>
       <path id="DejaVuSans-66" d="M 2375 4863 
L 2375 4384 
L 1825 4384 
Q 1516 4384 1395 4259 
Q 1275 4134 1275 3809 
L 1275 3500 
L 2222 3500 
L 2222 3053 
L 1275 3053 
L 1275 0 
L 697 0 
L 697 3053 
L 147 3053 
L 147 3500 
L 697 3500 
L 697 3744 
Q 697 4328 969 4595 
Q 1241 4863 1831 4863 
L 2375 4863 
z
" transform="scale(0.015625)"/>
       <path id="DejaVuSans-20" transform="scale(0.015625)"/>
       <path id="DejaVuSans-5b" d="M 550 4863 
L 1875 4863 
L 1875 4416 
L 1125 4416 
L 1125 -397 
L 1875 -397 
L 1875 -844 
L 550 -844 
L 550 4863 
z
" transform="scale(0.015625)"/>
       <path id="DejaVuSans-b5" d="M 544 -1331 
L 544 3500 
L 1119 3500 
L 1119 1325 
Q 1119 872 1334 640 
Q 1550 409 1972 409 
Q 2434 409 2667 671 
Q 2900 934 2900 1459 
L 2900 3500 
L 3475 3500 
L 3475 806 
Q 3475 619 3529 530 
Q 3584 441 3700 441 
Q 3728 441 3778 458 
Q 3828 475 3916 513 
L 3916 50 
Q 3788 -22 3673 -56 
Q 3559 -91 3450 -91 
Q 3234 -91 3106 31 
Q 2978 153 2931 403 
Q 2775 156 2548 32 
Q 2322 -91 2016 -91 
Q 1697 -91 1473 31 
Q 1250 153 1119 397 
L 1119 -1331 
L 544 -1331 
z
" transform="scale(0.015625)"/>
       <path id="DejaVuSans-73" d="M 2834 3397 
L 2834 2853 
Q 2591 2978 2328 3040 
Q 2066 3103 1784 3103 
Q 1356 3103 1142 2972 
Q 928 2841 928 2578 
Q 928 2378 1081 2264 
Q 1234 2150 1697 2047 
L 1894 2003 
Q 2506 1872 2764 1633 
Q 3022 1394 3022 966 
Q 3022 478 2636 193 
Q 2250 -91 1575 -91 
Q 1294 -91 989 -36 
Q 684 19 347 128 
L 347 722 
Q 666 556 975 473 
Q 1284 391 1588 391 
Q 1994 391 2212 530 
Q 2431 669 2431 922 
Q 2431 1156 2273 1281 
Q 2116 1406 1581 1522 
L 1381 1569 
Q 847 1681 609 1914 
Q 372 2147 372 2553 
Q 372 3047 722 3315 
Q 1072 3584 1716 3584 
Q 2034 3584 2315 3537 
Q 2597 3491 2834 3397 
z
" transform="scale(0.015625)"/>
       <path id="DejaVuSans-5d" d="M 1947 4863 
L 1947 -844 
L 622 -844 
L 622 -397 
L 1369 -397 
L 1369 4416 
L 622 4416 
L 622 4863 
L 1947 4863 
z
" transform="scale(0.015625)"/>
      </defs>
      <use xlink:href="#DejaVuSans-74"/>
      <use xlink:href="#DejaVuSans-6f" transform="translate(39.208984 0)"/>
      <use xlink:href="#DejaVuSans-66" transform="translate(100.390625 0)"/>
      <use xlink:href="#DejaVuSans-20" transform="translate(135.595703 0)"/>
      <use xlink:href="#DejaVuSans-5b" transform="translate(167.382812 0)"/>
      <use xlink:href="#DejaVuSans-b5" transform="translate(206.396484 0)"/>
      <use xlink:href="#DejaVuSans-73" transform="translate(270.019531 0)"/>
      <use xlink:href="#DejaVuSans-5d" transform="translate(322.119141 0)"/>
     </g>
    </g>
   </g>
   <g id="matplotlib.axis_2">
    <g id="ytick_1">
     <g id="line2d_6">
      <defs>
       <path id="m1cc92cfdd4" d="M 0 0 
L -3.5 0 
" style="stroke: #000000; stroke-width: 0.8"/>
      </defs>
      <g>
       <use xlink:href="#m1cc92cfdd4" x="53.328125" y="220.157465" style="stroke: #000000; stroke-width: 0.8"/>
      </g>
     </g>
     <g id="text_7">
      <!-- 0 -->
      <g transform="translate(39.965625 223.956684) scale(0.1 -0.1)">
       <use xlink:href="#DejaVuSans-30"/>
      </g>
     </g>
    </g>
    <g id="ytick_2">
     <g id="line2d_7">
      <g>
       <use xlink:href="#m1cc92cfdd4" x="53.328125" y="180.236673" style="stroke: #000000; stroke-width: 0.8"/>
      </g>
     </g>
     <g id="text_8">
      <!-- 500 -->
      <g transform="translate(27.240625 184.035892) scale(0.1 -0.1)">
       <use xlink:href="#DejaVuSans-35"/>
       <use xlink:href="#DejaVuSans-30" transform="translate(63.623047 0)"/>
       <use xlink:href="#DejaVuSans-30" transform="translate(127.246094 0)"/>
      </g>
     </g>
    </g>
    <g id="ytick_3">
     <g id="line2d_8">
      <g>
       <use xlink:href="#m1cc92cfdd4" x="53.328125" y="140.315881" style="stroke: #000000; stroke-width: 0.8"/>
      </g>
     </g>
     <g id="text_9">
      <!-- 1000 -->
      <g transform="translate(20.878125 144.1151) scale(0.1 -0.1)">
       <defs>
        <path id="DejaVuSans-31" d="M 794 531 
L 1825 531 
L 1825 4091 
L 703 3866 
L 703 4441 
L 1819 4666 
L 2450 4666 
L 2450 531 
L 3481 531 
L 3481 0 
L 794 0 
L 794 531 
z
" transform="scale(0.015625)"/>
       </defs>
       <use xlink:href="#DejaVuSans-31"/>
       <use xlink:href="#DejaVuSans-30" transform="translate(63.623047 0)"/>
       <use xlink:href="#DejaVuSans-30" transform="translate(127.246094 0)"/>
       <use xlink:href="#DejaVuSans-30" transform="translate(190.869141 0)"/>
      </g>
     </g>
    </g>
    <g id="ytick_4">
     <g id="line2d_9">
      <g>
       <use xlink:href="#m1cc92cfdd4" x="53.328125" y="100.395089" style="stroke: #000000; stroke-width: 0.8"/>
      </g>
     </g>
     <g id="text_10">
      <!-- 1500 -->
      <g transform="translate(20.878125 104.194308) scale(0.1 -0.1)">
       <use xlink:href="#DejaVuSans-31"/>
       <use xlink:href="#DejaVuSans-35" transform="translate(63.623047 0)"/>
       <use xlink:href="#DejaVuSans-30" transform="translate(127.246094 0)"/>
       <use xlink:href="#DejaVuSans-30" transform="translate(190.869141 0)"/>
      </g>
     </g>
    </g>
    <g id="ytick_5">
     <g id="line2d_10">
      <g>
       <use xlink:href="#m1cc92cfdd4" x="53.328125" y="60.474297" style="stroke: #000000; stroke-width: 0.8"/>
      </g>
     </g>
     <g id="text_11">
      <!-- 2000 -->
      <g transform="translate(20.878125 64.273516) scale(0.1 -0.1)">
       <use xlink:href="#DejaVuSans-32"/>
       <use xlink:href="#DejaVuSans-30" transform="translate(63.623047 0)"/>
       <use xlink:href="#DejaVuSans-30" transform="translate(127.246094 0)"/>
       <use xlink:href="#DejaVuSans-30" transform="translate(190.869141 0)"/>
      </g>
     </g>
    </g>
    <g id="ytick_6">
     <g id="line2d_11">
      <g>
       <use xlink:href="#m1cc92cfdd4" x="53.328125" y="20.553505" style="stroke: #000000; stroke-width: 0.8"/>
      </g>
     </g>
     <g id="text_12">
      <!-- 2500 -->
      <g transform="translate(20.878125 24.352724) scale(0.1 -0.1)">
       <use xlink:href="#DejaVuSans-32"/>
       <use xlink:href="#DejaVuSans-35" transform="translate(63.623047 0)"/>
       <use xlink:href="#DejaVuSans-30" transform="translate(127.246094 0)"/>
       <use xlink:href="#DejaVuSans-30" transform="translate(190.869141 0)"/>
      </g>
     </g>
    </g>
    <g id="text_13">
     <!-- [counts] -->
     <g transform="translate(14.798438 138.6925) rotate(-90) scale(0.1 -0.1)">
      <defs>
       <path id="DejaVuSans-63" d="M 3122 3366 
L 3122 2828 
Q 2878 2963 2633 3030 
Q 2388 3097 2138 3097 
Q 1578 3097 1268 2742 
Q 959 2388 959 1747 
Q 959 1106 1268 751 
Q 1578 397 2138 397 
Q 2388 397 2633 464 
Q 2878 531 3122 666 
L 3122 134 
Q 2881 22 2623 -34 
Q 2366 -91 2075 -91 
Q 1284 -91 818 406 
Q 353 903 353 1747 
Q 353 2603 823 3093 
Q 1294 3584 2113 3584 
Q 2378 3584 2631 3529 
Q 2884 3475 3122 3366 
z
" transform="scale(0.015625)"/>
       <path id="DejaVuSans-75" d="M 544 1381 
L 544 3500 
L 1119 3500 
L 1119 1403 
Q 1119 906 1312 657 
Q 1506 409 1894 409 
Q 2359 409 2629 706 
Q 2900 1003 2900 1516 
L 2900 3500 
L 3475 3500 
L 3475 0 
L 2900 0 
L 2900 538 
Q 2691 219 2414 64 
Q 2138 -91 1772 -91 
Q 1169 -91 856 284 
Q 544 659 544 1381 
z
M 1991 3584 
L 1991 3584 
z
" transform="scale(0.015625)"/>
       <path id="DejaVuSans-6e" d="M 3513 2113 
L 3513 0 
L 2938 0 
L 2938 2094 
Q 2938 2591 2744 2837 
Q 2550 3084 2163 3084 
Q 1697 3084 1428 2787 
Q 1159 2491 1159 1978 
L 1159 0 
L 581 0 
L 581 3500 
L 1159 3500 
L 1159 2956 
Q 1366 3272 1645 3428 
Q 1925 3584 2291 3584 
Q 2894 3584 3203 3211 
Q 3513 2838 3513 2113 
z
" transform="scale(0.015625)"/>
      </defs>
      <use xlink:href="#DejaVuSans-5b"/>
      <use xlink:href="#DejaVuSans-63" transform="translate(39.013672 0)"/>
      <use xlink:href="#DejaVuSans-6f" transform="translate(93.994141 0)"/>
      <use xlink:href="#DejaVuSans-75" transform="translate(155.175781 0)"/>
      <use xlink:href="#DejaVuSans-6e" transform="translate(218.554688 0)"/>
      <use xlink:href="#DejaVuSans-74" transform="translate(281.933594 0)"/>
      <use xlink:href="#DejaVuSans-73" transform="translate(321.142578 0)"/>
      <use xlink:href="#DejaVuSans-5d" transform="translate(373.242188 0)"/>
     </g>
    </g>
   </g>
   <g id="line2d_12">
    <path d="M 68.546307 195.007366 
L 69.560852 195.007366 
L 69.560852 151.493703 
L 70.575398 151.493703 
L 70.575398 116.443248 
L 71.589943 116.443248 
L 71.589943 105.025901 
L 72.604489 105.025901 
L 72.604489 93.768238 
L 73.619034 93.768238 
L 73.619034 95.205386 
L 74.63358 95.205386 
L 74.63358 96.802218 
L 75.648125 96.802218 
L 75.648125 88.418851 
L 76.66267 88.418851 
L 76.66267 79.077386 
L 77.677216 79.077386 
L 77.677216 78.917703 
L 78.691761 78.917703 
L 78.691761 67.739881 
L 79.706307 67.739881 
L 79.706307 70.773861 
L 80.720852 70.773861 
L 80.720852 69.496396 
L 81.735398 69.496396 
L 81.735398 60.474297 
L 82.749943 60.474297 
L 82.749943 60.953347 
L 83.764489 60.953347 
L 83.764489 52.809505 
L 84.779034 52.809505 
L 84.779034 50.094891 
L 85.79358 50.094891 
L 85.79358 44.98503 
L 86.808125 44.98503 
L 86.808125 37.799287 
L 87.82267 37.799287 
L 87.82267 32.689426 
L 88.837216 32.689426 
L 88.837216 30.453861 
L 89.851761 30.453861 
L 89.851761 29.815129 
L 90.866307 29.815129 
L 90.866307 19.595406 
L 91.880852 19.595406 
L 91.880852 34.046733 
L 92.895398 34.046733 
L 92.895398 17.28 
L 93.909943 17.28 
L 93.909943 31.731327 
L 94.924489 31.731327 
L 94.924489 28.697347 
L 95.939034 28.697347 
L 95.939034 36.92103 
L 96.95358 36.92103 
L 96.95358 38.118653 
L 97.968125 38.118653 
L 97.968125 39.635644 
L 98.98267 39.635644 
L 98.98267 34.046733 
L 99.997216 34.046733 
L 99.997216 40.99295 
L 101.011761 40.99295 
L 101.011761 50.494099 
L 102.026307 50.494099 
L 102.026307 41.152634 
L 103.040852 41.152634 
L 103.040852 57.440317 
L 104.055398 57.440317 
L 104.055398 62.550178 
L 105.069943 62.550178 
L 105.069943 66.861624 
L 106.084489 66.861624 
L 106.084489 81.073426 
L 107.099034 81.073426 
L 107.099034 90.973782 
L 108.11358 90.973782 
L 108.11358 96.163485 
L 109.128125 96.163485 
L 109.128125 104.147644 
L 110.14267 104.147644 
L 110.14267 112.770535 
L 111.157216 112.770535 
L 111.157216 120.435327 
L 112.171761 120.435327 
L 112.171761 125.066139 
L 113.186307 125.066139 
L 113.186307 133.369663 
L 114.200852 133.369663 
L 114.200852 140.794931 
L 115.215398 140.794931 
L 115.215398 147.341941 
L 116.229943 147.341941 
L 116.229943 153.090535 
L 117.244489 153.090535 
L 117.244489 154.84705 
L 118.259034 154.84705 
L 118.259034 167.861228 
L 119.27358 167.861228 
L 119.27358 173.769505 
L 120.288125 173.769505 
L 120.288125 176.723644 
L 121.30267 176.723644 
L 121.30267 184.707802 
L 122.317216 184.707802 
L 122.317216 192.851644 
L 123.331761 192.851644 
L 123.331761 184.787644 
L 124.346307 184.787644 
L 124.346307 166.663604 
L 125.360852 166.663604 
L 125.360852 147.102416 
L 126.375398 147.102416 
L 126.375398 134.008396 
L 127.389943 134.008396 
L 127.389943 105.904158 
L 128.404489 105.904158 
L 128.404489 95.205386 
L 129.419034 95.205386 
L 129.419034 94.247287 
L 130.43358 94.247287 
L 130.43358 91.692356 
L 131.448125 91.692356 
L 131.448125 96.722376 
L 132.46267 96.722376 
L 132.46267 93.608554 
L 133.477216 93.608554 
L 133.477216 101.43303 
L 134.491761 101.43303 
L 134.491761 104.786376 
L 135.506307 104.786376 
L 135.506307 102.710495 
L 136.520852 102.710495 
L 136.520852 97.600634 
L 137.535398 97.600634 
L 137.535398 104.946059 
L 138.549943 104.946059 
L 138.549943 102.95002 
L 139.564489 102.95002 
L 139.564489 101.43303 
L 140.579034 101.43303 
L 140.579034 118.439287 
L 141.59358 118.439287 
L 141.59358 111.652752 
L 142.608125 111.652752 
L 142.608125 109.01798 
L 143.62267 109.01798 
L 143.62267 109.337347 
L 144.637216 109.337347 
L 144.637216 112.53101 
L 145.651761 112.53101 
L 145.651761 111.493069 
L 146.666307 111.493069 
L 146.666307 117.880396 
L 147.680852 117.880396 
L 147.680852 119.716752 
L 148.695398 119.716752 
L 148.695398 118.519129 
L 149.709943 118.519129 
L 149.709943 119.557069 
L 150.724489 119.557069 
L 150.724489 120.355485 
L 151.739034 120.355485 
L 151.739034 124.826614 
L 152.75358 124.826614 
L 152.75358 126.183921 
L 153.768125 126.183921 
L 153.768125 125.385505 
L 154.78267 125.385505 
L 154.78267 125.704871 
L 155.797216 125.704871 
L 155.797216 126.104079 
L 156.811761 126.104079 
L 156.811761 123.309624 
L 157.826307 123.309624 
L 157.826307 130.894574 
L 158.840852 130.894574 
L 158.840852 125.704871 
L 159.855398 125.704871 
L 159.855398 132.331723 
L 160.869943 132.331723 
L 160.869943 131.852673 
L 161.884489 131.852673 
L 161.884489 132.012356 
L 162.899034 132.012356 
L 162.899034 131.533307 
L 163.91358 131.533307 
L 163.91358 130.894574 
L 164.928125 130.894574 
L 164.928125 133.369663 
L 165.94267 133.369663 
L 165.94267 137.521426 
L 166.957216 137.521426 
L 166.957216 144.387802 
L 167.971761 144.387802 
L 167.971761 153.250218 
L 170.000852 153.170376 
L 170.000852 155.246257 
L 171.015398 155.246257 
L 171.015398 159.637545 
L 172.029943 159.637545 
L 172.029943 153.569584 
L 173.044489 153.569584 
L 173.044489 155.326099 
L 174.059034 155.326099 
L 174.059034 160.276277 
L 175.07358 160.276277 
L 175.07358 164.028832 
L 176.088125 164.028832 
L 176.088125 158.120554 
L 177.10267 158.120554 
L 177.10267 155.88499 
L 178.117216 155.88499 
L 178.117216 154.048634 
L 179.131761 154.048634 
L 179.131761 153.010693 
L 180.146307 153.010693 
L 180.146307 149.178297 
L 181.160852 149.178297 
L 181.160852 141.27398 
L 182.175398 141.27398 
L 182.175398 137.76095 
L 183.189943 137.76095 
L 183.189943 133.369663 
L 184.204489 133.369663 
L 184.204489 142.711129 
L 185.219034 142.711129 
L 185.219034 145.266059 
L 186.23358 145.266059 
L 186.23358 149.81703 
L 187.248125 149.81703 
L 187.248125 151.653386 
L 188.26267 151.653386 
L 188.26267 156.922931 
L 190.291761 156.922931 
L 190.291761 158.759287 
L 191.306307 158.759287 
L 191.306307 156.044673 
L 192.320852 156.044673 
L 192.320852 157.481822 
L 193.335398 157.481822 
L 193.335398 157.88103 
L 194.349943 157.88103 
L 194.349943 158.759287 
L 195.364489 158.759287 
L 195.364489 161.873109 
L 196.379034 161.873109 
L 196.379034 158.759287 
L 197.39358 158.759287 
L 197.39358 163.390099 
L 198.408125 163.390099 
L 198.408125 164.667564 
L 199.42267 164.667564 
L 199.42267 165.625663 
L 200.437216 165.625663 
L 200.437216 167.781386 
L 201.451761 167.781386 
L 201.451761 164.507881 
L 202.466307 164.507881 
L 202.466307 167.302337 
L 203.480852 167.302337 
L 203.480852 167.541861 
L 204.495398 167.541861 
L 204.495398 173.689663 
L 205.509943 173.689663 
L 205.509943 174.168713 
L 206.524489 174.168713 
L 206.524489 178.160792 
L 207.539034 178.160792 
L 207.539034 177.362376 
L 208.55358 177.362376 
L 208.55358 176.484119 
L 209.568125 176.484119 
L 209.568125 178.879366 
L 210.58267 178.879366 
L 210.58267 181.59398 
L 211.597216 181.59398 
L 211.597216 183.510178 
L 212.611761 183.510178 
L 212.611761 181.434297 
L 213.626307 181.434297 
L 213.626307 183.909386 
L 214.640852 183.909386 
L 214.640852 190.536238 
L 215.655398 190.536238 
L 215.655398 192.053228 
L 216.669943 192.053228 
L 216.669943 194.288792 
L 217.684489 194.288792 
L 217.684489 195.007366 
L 218.699034 195.007366 
L 218.699034 193.250851 
L 219.71358 193.250851 
L 219.71358 194.129109 
L 220.728125 194.129109 
L 220.728125 196.763881 
L 221.74267 196.763881 
L 221.74267 197.642139 
L 222.757216 197.642139 
L 222.757216 198.999446 
L 223.771761 198.999446 
L 223.771761 197.083248 
L 224.786307 197.083248 
L 224.786307 199.957545 
L 225.800852 199.957545 
L 225.800852 197.083248 
L 226.815398 197.083248 
L 226.815398 193.969426 
L 227.829943 193.969426 
L 227.829943 194.129109 
L 228.844489 194.129109 
L 228.844489 192.69196 
L 229.859034 192.69196 
L 229.859034 190.216871 
L 230.87358 190.216871 
L 230.87358 185.186851 
L 231.888125 185.186851 
L 231.888125 187.10305 
L 232.90267 187.10305 
L 232.90267 184.228752 
L 233.917216 184.228752 
L 233.917216 190.057188 
L 234.931761 190.057188 
L 234.931761 195.406574 
L 235.946307 195.406574 
L 235.946307 196.444515 
L 236.960852 196.444515 
L 236.960852 197.322772 
L 237.975398 197.322772 
L 237.975398 197.72198 
L 238.989943 197.72198 
L 238.989943 199.159129 
L 240.004489 199.159129 
L 240.004489 197.72198 
L 241.019034 197.72198 
L 241.019034 200.197069 
L 243.048125 200.117228 
L 243.048125 200.356752 
L 244.06267 200.356752 
L 244.06267 202.113267 
L 245.077216 202.113267 
L 245.077216 201.394693 
L 246.091761 201.394693 
L 246.091761 202.27295 
L 247.106307 202.27295 
L 247.106307 203.949624 
L 248.120852 203.949624 
L 248.120852 204.508515 
L 249.135398 204.508515 
L 249.135398 205.147248 
L 250.149943 205.147248 
L 250.149943 208.340911 
L 251.164489 208.340911 
L 251.164489 206.105347 
L 252.179034 206.105347 
L 252.179034 205.067406 
L 253.19358 205.067406 
L 253.19358 208.021545 
L 254.208125 208.021545 
L 254.208125 208.420752 
L 256.237216 208.340911 
L 256.237216 206.744079 
L 257.251761 206.744079 
L 257.251761 210.656317 
L 258.266307 210.656317 
L 258.266307 210.017584 
L 259.280852 210.017584 
L 259.280852 212.013624 
L 260.295398 212.013624 
L 260.295398 212.891881 
L 263.339034 212.81204 
L 263.339034 212.492673 
L 264.35358 212.492673 
L 264.35358 213.291089 
L 265.368125 213.291089 
L 265.368125 213.770139 
L 266.38267 213.770139 
L 266.38267 214.249188 
L 267.397216 214.249188 
L 267.397216 215.127446 
L 268.411761 215.127446 
L 268.411761 216.325069 
L 269.426307 216.325069 
L 269.426307 215.36697 
L 270.440852 215.36697 
L 270.440852 215.127446 
L 271.455398 215.127446 
L 271.455398 212.572515 
L 272.469943 212.572515 
L 272.469943 210.736158 
L 273.484489 210.736158 
L 273.484489 210.576475 
L 274.499034 210.576475 
L 274.499034 207.622337 
L 275.51358 207.622337 
L 275.51358 206.744079 
L 276.528125 206.744079 
L 276.528125 205.865822 
L 277.54267 205.865822 
L 277.54267 206.105347 
L 278.557216 206.105347 
L 278.557216 206.504554 
L 279.571761 206.504554 
L 279.571761 207.941703 
L 281.600852 207.861861 
L 281.600852 209.458693 
L 282.615398 209.458693 
L 282.615398 207.941703 
L 283.629943 207.941703 
L 283.629943 210.656317 
L 284.644489 210.656317 
L 284.644489 209.778059 
L 285.659034 209.778059 
L 285.659034 210.975683 
L 286.67358 210.975683 
L 286.67358 210.496634 
L 287.688125 210.496634 
L 287.688125 210.975683 
L 288.70267 210.975683 
L 288.70267 211.29505 
L 289.717216 211.29505 
L 289.717216 212.732198 
L 290.731761 212.732198 
L 290.731761 213.131406 
L 291.746307 213.131406 
L 291.746307 213.610455 
L 292.760852 213.610455 
L 292.760852 212.253149 
L 294.789943 212.173307 
L 294.789943 212.81204 
L 295.804489 212.81204 
L 295.804489 215.686337 
L 296.819034 215.686337 
L 296.819034 215.287129 
L 297.83358 215.287129 
L 297.83358 214.32903 
L 298.848125 214.32903 
L 298.848125 215.127446 
L 299.86267 215.127446 
L 299.86267 214.568554 
L 300.877216 214.568554 
L 300.877216 216.165386 
L 301.891761 216.165386 
L 301.891761 215.84602 
L 302.906307 215.84602 
L 302.906307 215.36697 
L 303.920852 215.36697 
L 303.920852 216.245228 
L 304.935398 216.245228 
L 304.935398 217.602535 
L 305.949943 217.602535 
L 305.949943 216.88396 
L 306.964489 216.88396 
L 306.964489 215.84602 
L 307.979034 215.84602 
L 307.979034 217.682376 
L 310.008125 217.682376 
L 310.008125 217.522693 
L 311.02267 217.522693 
L 311.02267 217.842059 
L 312.037216 217.842059 
L 312.037216 218.001743 
L 313.051761 218.001743 
L 313.051761 218.480792 
L 314.066307 218.480792 
L 314.066307 218.88 
L 315.080852 218.88 
L 315.080852 218.640475 
L 316.095398 218.640475 
L 316.095398 215.766178 
L 317.109943 215.766178 
L 317.109943 216.245228 
L 318.124489 216.245228 
L 318.124489 214.488713 
L 319.139034 214.488713 
L 319.139034 213.370931 
L 320.15358 213.370931 
L 320.15358 213.530614 
L 321.168125 213.530614 
L 321.168125 211.29505 
L 322.18267 211.29505 
L 322.18267 210.895842 
L 323.197216 210.895842 
L 323.197216 209.857901 
L 324.211761 209.857901 
L 324.211761 206.983604 
L 325.226307 206.983604 
L 325.226307 207.941703 
L 326.240852 207.941703 
L 326.240852 204.74804 
L 327.255398 204.74804 
L 327.255398 206.105347 
L 328.269943 206.105347 
L 328.269943 203.071366 
L 329.284489 203.071366 
L 329.284489 202.512475 
L 330.299034 202.512475 
L 330.299034 205.945663 
L 331.31358 205.945663 
L 331.31358 205.147248 
L 332.328125 205.147248 
L 332.328125 207.542495 
L 333.34267 207.542495 
L 333.34267 204.987564 
L 334.357216 204.987564 
L 334.357216 206.26503 
L 335.371761 206.26503 
L 335.371761 205.865822 
L 336.386307 205.865822 
L 336.386307 206.584396 
L 337.400852 206.584396 
L 337.400852 205.386772 
L 338.415398 205.386772 
L 338.415398 206.424713 
L 339.429943 206.424713 
L 339.429943 203.949624 
L 340.444489 203.949624 
L 340.444489 205.626297 
L 341.459034 205.626297 
L 341.459034 206.584396 
L 342.47358 206.584396 
L 342.47358 203.789941 
L 343.488125 203.789941 
L 343.488125 208.340911 
L 344.50267 208.340911 
L 344.50267 208.580436 
L 345.517216 208.580436 
L 345.517216 209.139327 
L 346.531761 209.139327 
L 346.531761 207.941703 
L 347.546307 207.941703 
L 347.546307 209.618376 
L 348.560852 209.618376 
L 348.560852 208.740119 
L 349.575398 208.740119 
L 349.575398 208.181228 
L 351.604489 208.261069 
L 351.604489 210.097426 
L 352.619034 210.097426 
L 352.619034 211.454733 
L 353.63358 211.454733 
L 353.63358 211.29505 
L 354.648125 211.29505 
L 354.648125 209.059485 
L 355.66267 209.059485 
L 355.66267 211.055525 
L 356.677216 211.055525 
L 356.677216 210.177267 
L 357.691761 210.177267 
L 357.691761 212.891881 
L 358.706307 212.891881 
L 358.706307 214.249188 
L 359.720852 214.249188 
L 359.720852 213.211248 
L 360.735398 213.211248 
L 360.735398 214.249188 
L 361.749943 214.249188 
L 361.749943 211.614416 
L 362.764489 211.614416 
L 362.764489 212.891881 
L 363.779034 212.891881 
L 363.779034 213.690297 
L 364.79358 213.690297 
L 364.79358 214.32903 
L 365.808125 214.32903 
L 365.808125 215.606495 
L 366.82267 215.606495 
L 366.82267 214.967762 
L 367.837216 214.967762 
L 367.837216 216.085545 
L 368.851761 216.085545 
L 368.851761 216.404911 
L 369.866307 216.404911 
L 369.866307 216.88396 
L 370.880852 216.88396 
L 370.880852 218.241267 
L 371.895398 218.241267 
L 371.895398 218.88 
L 372.909943 218.88 
L 372.909943 218.88 
" clip-path="url(#p84a6688a91)" style="fill: none; stroke: #1f77b4; stroke-width: 1.5; stroke-linecap: square"/>
   </g>
   <g id="patch_3">
    <path d="M 53.328125 228.96 
L 53.328125 7.2 
" style="fill: none; stroke: #000000; stroke-width: 0.8; stroke-linejoin: miter; stroke-linecap: square"/>
   </g>
   <g id="patch_4">
    <path d="M 388.128125 228.96 
L 388.128125 7.2 
" style="fill: none; stroke: #000000; stroke-width: 0.8; stroke-linejoin: miter; stroke-linecap: square"/>
   </g>
   <g id="patch_5">
    <path d="M 53.328125 228.96 
L 388.128125 228.96 
" style="fill: none; stroke: #000000; stroke-width: 0.8; stroke-linejoin: miter; stroke-linecap: square"/>
   </g>
   <g id="patch_6">
    <path d="M 53.328125 7.2 
L 388.128125 7.2 
" style="fill: none; stroke: #000000; stroke-width: 0.8; stroke-linejoin: miter; stroke-linecap: square"/>
   </g>
  </g>
 </g>
 <defs>
  <clipPath id="p84a6688a91">
   <rect x="53.328125" y="7.2" width="334.8" height="221.76"/>
  </clipPath>
 </defs>
</svg>
