<?xml version="1.0" encoding="utf-8" standalone="no"?>
<!DOCTYPE svg PUBLIC "-//W3C//DTD SVG 1.1//EN"
  "http://www.w3.org/Graphics/SVG/1.1/DTD/svg11.dtd">
<svg xmlns:xlink="http://www.w3.org/1999/xlink" width="388.965625pt" height="266.794375pt" viewBox="0 0 388.965625 266.794375" xmlns="http://www.w3.org/2000/svg" version="1.1">
 <metadata>
  <rdf:RDF xmlns:dc="http://purl.org/dc/elements/1.1/" xmlns:cc="http://creativecommons.org/ns#" xmlns:rdf="http://www.w3.org/1999/02/22-rdf-syntax-ns#">
   <cc:Work>
    <dc:type rdf:resource="http://purl.org/dc/dcmitype/StillImage"/>
    <dc:date>2026-02-02T14:27:13.494484</dc:date>
    <dc:format>image/svg+xml</dc:format>
    <dc:creator>
     <cc:Agent>
      <dc:title>Matplotlib v3.10.8, https://matplotlib.org/</dc:title>
     </cc:Agent>
    </dc:creator>
   </cc:Work>
  </rdf:RDF>
 </metadata>
 <defs>
  <style type="text/css">*{stroke-linejoin: round; stroke-linecap: butt}</style>
 </defs>
 <g id="figure_1">
  <g id="patch_1">
   <path d="M 0 266.794375 
L 388.965625 266.794375 
L 388.965625 0 
L 0 0 
z
" style="fill: #ffffff"/>
  </g>
  <g id="axes_1">
   <g id="patch_2">
    <path d="M 46.965625 228.96 
L 381.765625 228.96 
L 381.765625 7.2 
L 46.965625 7.2 
z
" style="fill: #ffffff"/>
   </g>
   <g id="matplotlib.axis_1">
    <g id="xtick_1">
     <g id="line2d_1">
      <defs>
       <path id="m5e885668f2" d="M 0 0 
L 0 3.5 
" style="stroke: #000000; stroke-width: 0.8"/>
      </defs>
      <g>
       <use xlink:href="#m5e885668f2" x="62.181741" y="228.96" style="stroke: #000000; stroke-width: 0.8"/>
      </g>
     </g>
     <g id="text_1">
      <!-- 0 -->
      <g transform="translate(59.000491 243.558437) scale(0.1 -0.1)">
       <defs>
        <path id="DejaVuSans-30" d="M 2034 4250 
Q 1547 4250 1301 3770 
Q 1056 3291 1056 2328 
Q 1056 1369 1301 889 
Q 1547 409 2034 409 
Q 2525 409 2770 889 
Q 3016 1369 3016 2328 
Q 3016 3291 2770 3770 
Q 2525 4250 2034 4250 
z
M 2034 4750 
Q 2819 4750 3233 4129 
Q 3647 3509 3647 2328 
Q 3647 1150 3233 529 
Q 2819 -91 2034 -91 
Q 1250 -91 836 529 
Q 422 1150 422 2328 
Q 422 3509 836 4129 
Q 1250 4750 2034 4750 
z
" transform="scale(0.015625)"/>
       </defs>
       <use xlink:href="#DejaVuSans-30"/>
      </g>
     </g>
    </g>
    <g id="xtick_2">
     <g id="line2d_2">
      <g>
       <use xlink:href="#m5e885668f2" x="104.792975" y="228.96" style="stroke: #000000; stroke-width: 0.8"/>
      </g>
     </g>
     <g id="text_2">
      <!-- 10000 -->
      <g transform="translate(88.886725 243.558437) scale(0.1 -0.1)">
       <defs>
        <path id="DejaVuSans-31" d="M 794 531 
L 1825 531 
L 1825 4091 
L 703 3866 
L 703 4441 
L 1819 4666 
L 2450 4666 
L 2450 531 
L 3481 531 
L 3481 0 
L 794 0 
L 794 531 
z
" transform="scale(0.015625)"/>
       </defs>
       <use xlink:href="#DejaVuSans-31"/>
       <use xlink:href="#DejaVuSans-30" transform="translate(63.623047 0)"/>
       <use xlink:href="#DejaVuSans-30" transform="translate(127.246094 0)"/>
       <use xlink:href="#DejaVuSans-30" transform="translate(190.869141 0)"/>
       <use xlink:href="#DejaVuSans-30" transform="translate(254.492188 0)"/>
      </g>
     </g>
    </g>
    <g id="xtick_3">
     <g id="line2d_3">
      <g>
       <use xlink:href="#m5e885668f2" x="147.404209" y="228.96" style="stroke: #000000; stroke-width: 0.8"/>
      </g>
     </g>
     <g id="text_3">
      <!-- 20000 -->
      <g transform="translate(131.497959 243.558437) scale(0.1 -0.1)">
       <defs>
        <path id="DejaVuSans-32" d="M 1228 531 
L 3431 531 
L 3431 0 
L 469 0 
L 469 531 
Q 828 903 1448 1529 
Q 2069 2156 2228 2338 
Q 2531 2678 2651 2914 
Q 2772 3150 2772 3378 
Q 2772 3750 2511 3984 
Q 2250 4219 1831 4219 
Q 1534 4219 1204 4116 
Q 875 4013 500 3803 
L 500 4441 
Q 881 4594 1212 4672 
Q 1544 4750 1819 4750 
Q 2544 4750 2975 4387 
Q 3406 4025 3406 3419 
Q 3406 3131 3298 2873 
Q 3191 2616 2906 2266 
Q 2828 2175 2409 1742 
Q 1991 1309 1228 531 
z
" transform="scale(0.015625)"/>
       </defs>
       <use xlink:href="#DejaVuSans-32"/>
       <use xlink:href="#DejaVuSans-30" transform="translate(63.623047 0)"/>
       <use xlink:href="#DejaVuSans-30" transform="translate(127.246094 0)"/>
       <use xlink:href="#DejaVuSans-30" transform="translate(190.869141 0)"/>
       <use xlink:href="#DejaVuSans-30" transform="translate(254.492188 0)"/>
      </g>
     </g>
    </g>
    <g id="xtick_4">
     <g id="line2d_4">
      <g>
       <use xlink:href="#m5e885668f2" x="190.015442" y="228.96" style="stroke: #000000; stroke-width: 0.8"/>
      </g>
     </g>
     <g id="text_4">
      <!-- 30000 -->
      <g transform="translate(174.109192 243.558437) scale(0.1 -0.1)">
       <defs>
        <path id="DejaVuSans-33" d="M 2597 2516 
Q 3050 2419 3304 2112 
Q 3559 1806 3559 1356 
Q 3559 666 3084 287 
Q 2609 -91 1734 -91 
Q 1441 -91 1130 -33 
Q 819 25 488 141 
L 488 750 
Q 750 597 1062 519 
Q 1375 441 1716 441 
Q 2309 441 2620 675 
Q 2931 909 2931 1356 
Q 2931 1769 2642 2001 
Q 2353 2234 1838 2234 
L 1294 2234 
L 1294 2753 
L 1863 2753 
Q 2328 2753 2575 2939 
Q 2822 3125 2822 3475 
Q 2822 3834 2567 4026 
Q 2313 4219 1838 4219 
Q 1578 4219 1281 4162 
Q 984 4106 628 3988 
L 628 4550 
Q 988 4650 1302 4700 
Q 1616 4750 1894 4750 
Q 2613 4750 3031 4423 
Q 3450 4097 3450 3541 
Q 3450 3153 3228 2886 
Q 3006 2619 2597 2516 
z
" transform="scale(0.015625)"/>
       </defs>
       <use xlink:href="#DejaVuSans-33"/>
       <use xlink:href="#DejaVuSans-30" transform="translate(63.623047 0)"/>
       <use xlink:href="#DejaVuSans-30" transform="translate(127.246094 0)"/>
       <use xlink:href="#DejaVuSans-30" transform="translate(190.869141 0)"/>
       <use xlink:href="#DejaVuSans-30" transform="translate(254.492188 0)"/>
      </g>
     </g>
    </g>
    <g id="xtick_5">
     <g id="line2d_5">
      <g>
       <use xlink:href="#m5e885668f2" x="232.626676" y="228.96" style="stroke: #000000; stroke-width: 0.8"/>
      </g>
     </g>
     <g id="text_5">
      <!-- 40000 -->
      <g transform="translate(216.720426 243.558437) scale(0.1 -0.1)">
       <defs>
        <path id="DejaVuSans-34" d="M 2419 4116 
L 825 1625 
L 2419 1625 
L 2419 4116 
z
M 2253 4666 
L 3047 4666 
L 3047 1625 
L 3713 1625 
L 3713 1100 
L 3047 1100 
L 3047 0 
L 2419 0 
L 2419 1100 
L 313 1100 
L 313 1709 
L 2253 4666 
z
" transform="scale(0.015625)"/>
       </defs>
       <use xlink:href="#DejaVuSans-34"/>
       <use xlink:href="#DejaVuSans-30" transform="translate(63.623047 0)"/>
       <use xlink:href="#DejaVuSans-30" transform="translate(127.246094 0)"/>
       <use xlink:href="#DejaVuSans-30" transform="translate(190.869141 0)"/>
       <use xlink:href="#DejaVuSans-30" transform="translate(254.492188 0)"/>
      </g>
     </g>
    </g>
    <g id="xtick_6">
     <g id="line2d_6">
      <g>
       <use xlink:href="#m5e885668f2" x="275.23791" y="228.96" style="stroke: #000000; stroke-width: 0.8"/>
      </g>
     </g>
     <g id="text_6">
      <!-- 50000 -->
      <g transform="translate(259.33166 243.558437) scale(0.1 -0.1)">
       <defs>
        <path id="DejaVuSans-35" d="M 691 4666 
L 3169 4666 
L 3169 4134 
L 1269 4134 
L 1269 2991 
Q 1406 3038 1543 3061 
Q 1681 3084 1819 3084 
Q 2600 3084 3056 2656 
Q 3513 2228 3513 1497 
Q 3513 744 3044 326 
Q 2575 -91 1722 -91 
Q 1428 -91 1123 -41 
Q 819 9 494 109 
L 494 744 
Q 775 591 1075 516 
Q 1375 441 1709 441 
Q 2250 441 2565 725 
Q 2881 1009 2881 1497 
Q 2881 1984 2565 2268 
Q 2250 2553 1709 2553 
Q 1456 2553 1204 2497 
Q 953 2441 691 2322 
L 691 4666 
z
" transform="scale(0.015625)"/>
       </defs>
       <use xlink:href="#DejaVuSans-35"/>
       <use xlink:href="#DejaVuSans-30" transform="translate(63.623047 0)"/>
       <use xlink:href="#DejaVuSans-30" transform="translate(127.246094 0)"/>
       <use xlink:href="#DejaVuSans-30" transform="translate(190.869141 0)"/>
       <use xlink:href="#DejaVuSans-30" transform="translate(254.492188 0)"/>
      </g>
     </g>
    </g>
    <g id="xtick_7">
     <g id="line2d_7">
      <g>
       <use xlink:href="#m5e885668f2" x="317.849143" y="228.96" style="stroke: #000000; stroke-width: 0.8"/>
      </g>
     </g>
     <g id="text_7">
      <!-- 60000 -->
      <g transform="translate(301.942893 243.558437) scale(0.1 -0.1)">
       <defs>
        <path id="DejaVuSans-36" d="M 2113 2584 
Q 1688 2584 1439 2293 
Q 1191 2003 1191 1497 
Q 1191 994 1439 701 
Q 1688 409 2113 409 
Q 2538 409 2786 701 
Q 3034 994 3034 1497 
Q 3034 2003 2786 2293 
Q 2538 2584 2113 2584 
z
M 3366 4563 
L 3366 3988 
Q 3128 4100 2886 4159 
Q 2644 4219 2406 4219 
Q 1781 4219 1451 3797 
Q 1122 3375 1075 2522 
Q 1259 2794 1537 2939 
Q 1816 3084 2150 3084 
Q 2853 3084 3261 2657 
Q 3669 2231 3669 1497 
Q 3669 778 3244 343 
Q 2819 -91 2113 -91 
Q 1303 -91 875 529 
Q 447 1150 447 2328 
Q 447 3434 972 4092 
Q 1497 4750 2381 4750 
Q 2619 4750 2861 4703 
Q 3103 4656 3366 4563 
z
" transform="scale(0.015625)"/>
       </defs>
       <use xlink:href="#DejaVuSans-36"/>
       <use xlink:href="#DejaVuSans-30" transform="translate(63.623047 0)"/>
       <use xlink:href="#DejaVuSans-30" transform="translate(127.246094 0)"/>
       <use xlink:href="#DejaVuSans-30" transform="translate(190.869141 0)"/>
       <use xlink:href="#DejaVuSans-30" transform="translate(254.492188 0)"/>
      </g>
     </g>
    </g>
    <g id="xtick_8">
     <g id="line2d_8">
      <g>
       <use xlink:href="#m5e885668f2" x="360.460377" y="228.96" style="stroke: #000000; stroke-width: 0.8"/>
      </g>
     </g>
     <g id="text_8">
      <!-- 70000 -->
      <g transform="translate(344.554127 243.558437) scale(0.1 -0.1)">
       <defs>
        <path id="DejaVuSans-37" d="M 525 4666 
L 3525 4666 
L 3525 4397 
L 1831 0 
L 1172 0 
L 2766 4134 
L 525 4134 
L 525 4666 
z
" transform="scale(0.015625)"/>
       </defs>
       <use xlink:href="#DejaVuSans-37"/>
       <use xlink:href="#DejaVuSans-30" transform="translate(63.623047 0)"/>
       <use xlink:href="#DejaVuSans-30" transform="translate(127.246094 0)"/>
       <use xlink:href="#DejaVuSans-30" transform="translate(190.869141 0)"/>
       <use xlink:href="#DejaVuSans-30" transform="translate(254.492188 0)"/>
      </g>
     </g>
    </g>
    <g id="text_9">
     <!-- event_time_offset [µs] -->
     <g transform="translate(158.330469 257.236562) scale(0.1 -0.1)">
      <defs>
       <path id="DejaVuSans-65" d="M 3597 1894 
L 3597 1613 
L 953 1613 
Q 991 1019 1311 708 
Q 1631 397 2203 397 
Q 2534 397 2845 478 
Q 3156 559 3463 722 
L 3463 178 
Q 3153 47 2828 -22 
Q 2503 -91 2169 -91 
Q 1331 -91 842 396 
Q 353 884 353 1716 
Q 353 2575 817 3079 
Q 1281 3584 2069 3584 
Q 2775 3584 3186 3129 
Q 3597 2675 3597 1894 
z
M 3022 2063 
Q 3016 2534 2758 2815 
Q 2500 3097 2075 3097 
Q 1594 3097 1305 2825 
Q 1016 2553 972 2059 
L 3022 2063 
z
" transform="scale(0.015625)"/>
       <path id="DejaVuSans-76" d="M 191 3500 
L 800 3500 
L 1894 563 
L 2988 3500 
L 3597 3500 
L 2284 0 
L 1503 0 
L 191 3500 
z
" transform="scale(0.015625)"/>
       <path id="DejaVuSans-6e" d="M 3513 2113 
L 3513 0 
L 2938 0 
L 2938 2094 
Q 2938 2591 2744 2837 
Q 2550 3084 2163 3084 
Q 1697 3084 1428 2787 
Q 1159 2491 1159 1978 
L 1159 0 
L 581 0 
L 581 3500 
L 1159 3500 
L 1159 2956 
Q 1366 3272 1645 3428 
Q 1925 3584 2291 3584 
Q 2894 3584 3203 3211 
Q 3513 2838 3513 2113 
z
" transform="scale(0.015625)"/>
       <path id="DejaVuSans-74" d="M 1172 4494 
L 1172 3500 
L 2356 3500 
L 2356 3053 
L 1172 3053 
L 1172 1153 
Q 1172 725 1289 603 
Q 1406 481 1766 481 
L 2356 481 
L 2356 0 
L 1766 0 
Q 1100 0 847 248 
Q 594 497 594 1153 
L 594 3053 
L 172 3053 
L 172 3500 
L 594 3500 
L 594 4494 
L 1172 4494 
z
" transform="scale(0.015625)"/>
       <path id="DejaVuSans-5f" d="M 3263 -1063 
L 3263 -1509 
L -63 -1509 
L -63 -1063 
L 3263 -1063 
z
" transform="scale(0.015625)"/>
       <path id="DejaVuSans-69" d="M 603 3500 
L 1178 3500 
L 1178 0 
L 603 0 
L 603 3500 
z
M 603 4863 
L 1178 4863 
L 1178 4134 
L 603 4134 
L 603 4863 
z
" transform="scale(0.015625)"/>
       <path id="DejaVuSans-6d" d="M 3328 2828 
Q 3544 3216 3844 3400 
Q 4144 3584 4550 3584 
Q 5097 3584 5394 3201 
Q 5691 2819 5691 2113 
L 5691 0 
L 5113 0 
L 5113 2094 
Q 5113 2597 4934 2840 
Q 4756 3084 4391 3084 
Q 3944 3084 3684 2787 
Q 3425 2491 3425 1978 
L 3425 0 
L 2847 0 
L 2847 2094 
Q 2847 2600 2669 2842 
Q 2491 3084 2119 3084 
Q 1678 3084 1418 2786 
Q 1159 2488 1159 1978 
L 1159 0 
L 581 0 
L 581 3500 
L 1159 3500 
L 1159 2956 
Q 1356 3278 1631 3431 
Q 1906 3584 2284 3584 
Q 2666 3584 2933 3390 
Q 3200 3197 3328 2828 
z
" transform="scale(0.015625)"/>
       <path id="DejaVuSans-6f" d="M 1959 3097 
Q 1497 3097 1228 2736 
Q 959 2375 959 1747 
Q 959 1119 1226 758 
Q 1494 397 1959 397 
Q 2419 397 2687 759 
Q 2956 1122 2956 1747 
Q 2956 2369 2687 2733 
Q 2419 3097 1959 3097 
z
M 1959 3584 
Q 2709 3584 3137 3096 
Q 3566 2609 3566 1747 
Q 3566 888 3137 398 
Q 2709 -91 1959 -91 
Q 1206 -91 779 398 
Q 353 888 353 1747 
Q 353 2609 779 3096 
Q 1206 3584 1959 3584 
z
" transform="scale(0.015625)"/>
       <path id="DejaVuSans-66" d="M 2375 4863 
L 2375 4384 
L 1825 4384 
Q 1516 4384 1395 4259 
Q 1275 4134 1275 3809 
L 1275 3500 
L 2222 3500 
L 2222 3053 
L 1275 3053 
L 1275 0 
L 697 0 
L 697 3053 
L 147 3053 
L 147 3500 
L 697 3500 
L 697 3744 
Q 697 4328 969 4595 
Q 1241 4863 1831 4863 
L 2375 4863 
z
" transform="scale(0.015625)"/>
       <path id="DejaVuSans-73" d="M 2834 3397 
L 2834 2853 
Q 2591 2978 2328 3040 
Q 2066 3103 1784 3103 
Q 1356 3103 1142 2972 
Q 928 2841 928 2578 
Q 928 2378 1081 2264 
Q 1234 2150 1697 2047 
L 1894 2003 
Q 2506 1872 2764 1633 
Q 3022 1394 3022 966 
Q 3022 478 2636 193 
Q 2250 -91 1575 -91 
Q 1294 -91 989 -36 
Q 684 19 347 128 
L 347 722 
Q 666 556 975 473 
Q 1284 391 1588 391 
Q 1994 391 2212 530 
Q 2431 669 2431 922 
Q 2431 1156 2273 1281 
Q 2116 1406 1581 1522 
L 1381 1569 
Q 847 1681 609 1914 
Q 372 2147 372 2553 
Q 372 3047 722 3315 
Q 1072 3584 1716 3584 
Q 2034 3584 2315 3537 
Q 2597 3491 2834 3397 
z
" transform="scale(0.015625)"/>
       <path id="DejaVuSans-20" transform="scale(0.015625)"/>
       <path id="DejaVuSans-5b" d="M 550 4863 
L 1875 4863 
L 1875 4416 
L 1125 4416 
L 1125 -397 
L 1875 -397 
L 1875 -844 
L 550 -844 
L 550 4863 
z
" transform="scale(0.015625)"/>
       <path id="DejaVuSans-b5" d="M 544 -1331 
L 544 3500 
L 1119 3500 
L 1119 1325 
Q 1119 872 1334 640 
Q 1550 409 1972 409 
Q 2434 409 2667 671 
Q 2900 934 2900 1459 
L 2900 3500 
L 3475 3500 
L 3475 806 
Q 3475 619 3529 530 
Q 3584 441 3700 441 
Q 3728 441 3778 458 
Q 3828 475 3916 513 
L 3916 50 
Q 3788 -22 3673 -56 
Q 3559 -91 3450 -91 
Q 3234 -91 3106 31 
Q 2978 153 2931 403 
Q 2775 156 2548 32 
Q 2322 -91 2016 -91 
Q 1697 -91 1473 31 
Q 1250 153 1119 397 
L 1119 -1331 
L 544 -1331 
z
" transform="scale(0.015625)"/>
       <path id="DejaVuSans-5d" d="M 1947 4863 
L 1947 -844 
L 622 -844 
L 622 -397 
L 1369 -397 
L 1369 4416 
L 622 4416 
L 622 4863 
L 1947 4863 
z
" transform="scale(0.015625)"/>
      </defs>
      <use xlink:href="#DejaVuSans-65"/>
      <use xlink:href="#DejaVuSans-76" transform="translate(61.523438 0)"/>
      <use xlink:href="#DejaVuSans-65" transform="translate(120.703125 0)"/>
      <use xlink:href="#DejaVuSans-6e" transform="translate(182.226562 0)"/>
      <use xlink:href="#DejaVuSans-74" transform="translate(245.605469 0)"/>
      <use xlink:href="#DejaVuSans-5f" transform="translate(284.814453 0)"/>
      <use xlink:href="#DejaVuSans-74" transform="translate(334.814453 0)"/>
      <use xlink:href="#DejaVuSans-69" transform="translate(374.023438 0)"/>
      <use xlink:href="#DejaVuSans-6d" transform="translate(401.806641 0)"/>
      <use xlink:href="#DejaVuSans-65" transform="translate(499.21875 0)"/>
      <use xlink:href="#DejaVuSans-5f" transform="translate(560.742188 0)"/>
      <use xlink:href="#DejaVuSans-6f" transform="translate(610.742188 0)"/>
      <use xlink:href="#DejaVuSans-66" transform="translate(671.923828 0)"/>
      <use xlink:href="#DejaVuSans-66" transform="translate(707.128906 0)"/>
      <use xlink:href="#DejaVuSans-73" transform="translate(742.333984 0)"/>
      <use xlink:href="#DejaVuSans-65" transform="translate(794.433594 0)"/>
      <use xlink:href="#DejaVuSans-74" transform="translate(855.957031 0)"/>
      <use xlink:href="#DejaVuSans-20" transform="translate(895.166016 0)"/>
      <use xlink:href="#DejaVuSans-5b" transform="translate(926.953125 0)"/>
      <use xlink:href="#DejaVuSans-b5" transform="translate(965.966797 0)"/>
      <use xlink:href="#DejaVuSans-73" transform="translate(1029.589844 0)"/>
      <use xlink:href="#DejaVuSans-5d" transform="translate(1081.689453 0)"/>
     </g>
    </g>
   </g>
   <g id="matplotlib.axis_2">
    <g id="ytick_1">
     <g id="line2d_9">
      <defs>
       <path id="mdc8e18f8f6" d="M 0 0 
L -3.5 0 
" style="stroke: #000000; stroke-width: 0.8"/>
      </defs>
      <g>
       <use xlink:href="#mdc8e18f8f6" x="46.965625" y="218.88" style="stroke: #000000; stroke-width: 0.8"/>
      </g>
     </g>
     <g id="text_10">
      <!-- 0 -->
      <g transform="translate(33.603125 222.679219) scale(0.1 -0.1)">
       <use xlink:href="#DejaVuSans-30"/>
      </g>
     </g>
    </g>
    <g id="ytick_2">
     <g id="line2d_10">
      <g>
       <use xlink:href="#mdc8e18f8f6" x="46.965625" y="183.008114" style="stroke: #000000; stroke-width: 0.8"/>
      </g>
     </g>
     <g id="text_11">
      <!-- 100 -->
      <g transform="translate(20.878125 186.807333) scale(0.1 -0.1)">
       <use xlink:href="#DejaVuSans-31"/>
       <use xlink:href="#DejaVuSans-30" transform="translate(63.623047 0)"/>
       <use xlink:href="#DejaVuSans-30" transform="translate(127.246094 0)"/>
      </g>
     </g>
    </g>
    <g id="ytick_3">
     <g id="line2d_11">
      <g>
       <use xlink:href="#mdc8e18f8f6" x="46.965625" y="147.136228" style="stroke: #000000; stroke-width: 0.8"/>
      </g>
     </g>
     <g id="text_12">
      <!-- 200 -->
      <g transform="translate(20.878125 150.935447) scale(0.1 -0.1)">
       <use xlink:href="#DejaVuSans-32"/>
       <use xlink:href="#DejaVuSans-30" transform="translate(63.623047 0)"/>
       <use xlink:href="#DejaVuSans-30" transform="translate(127.246094 0)"/>
      </g>
     </g>
    </g>
    <g id="ytick_4">
     <g id="line2d_12">
      <g>
       <use xlink:href="#mdc8e18f8f6" x="46.965625" y="111.264342" style="stroke: #000000; stroke-width: 0.8"/>
      </g>
     </g>
     <g id="text_13">
      <!-- 300 -->
      <g transform="translate(20.878125 115.06356) scale(0.1 -0.1)">
       <use xlink:href="#DejaVuSans-33"/>
       <use xlink:href="#DejaVuSans-30" transform="translate(63.623047 0)"/>
       <use xlink:href="#DejaVuSans-30" transform="translate(127.246094 0)"/>
      </g>
     </g>
    </g>
    <g id="ytick_5">
     <g id="line2d_13">
      <g>
       <use xlink:href="#mdc8e18f8f6" x="46.965625" y="75.392456" style="stroke: #000000; stroke-width: 0.8"/>
      </g>
     </g>
     <g id="text_14">
      <!-- 400 -->
      <g transform="translate(20.878125 79.191674) scale(0.1 -0.1)">
       <use xlink:href="#DejaVuSans-34"/>
       <use xlink:href="#DejaVuSans-30" transform="translate(63.623047 0)"/>
       <use xlink:href="#DejaVuSans-30" transform="translate(127.246094 0)"/>
      </g>
     </g>
    </g>
    <g id="ytick_6">
     <g id="line2d_14">
      <g>
       <use xlink:href="#mdc8e18f8f6" x="46.965625" y="39.520569" style="stroke: #000000; stroke-width: 0.8"/>
      </g>
     </g>
     <g id="text_15">
      <!-- 500 -->
      <g transform="translate(20.878125 43.319788) scale(0.1 -0.1)">
       <use xlink:href="#DejaVuSans-35"/>
       <use xlink:href="#DejaVuSans-30" transform="translate(63.623047 0)"/>
       <use xlink:href="#DejaVuSans-30" transform="translate(127.246094 0)"/>
      </g>
     </g>
    </g>
    <g id="text_16">
     <!-- [counts] -->
     <g transform="translate(14.798438 138.6925) rotate(-90) scale(0.1 -0.1)">
      <defs>
       <path id="DejaVuSans-63" d="M 3122 3366 
L 3122 2828 
Q 2878 2963 2633 3030 
Q 2388 3097 2138 3097 
Q 1578 3097 1268 2742 
Q 959 2388 959 1747 
Q 959 1106 1268 751 
Q 1578 397 2138 397 
Q 2388 397 2633 464 
Q 2878 531 3122 666 
L 3122 134 
Q 2881 22 2623 -34 
Q 2366 -91 2075 -91 
Q 1284 -91 818 406 
Q 353 903 353 1747 
Q 353 2603 823 3093 
Q 1294 3584 2113 3584 
Q 2378 3584 2631 3529 
Q 2884 3475 3122 3366 
z
" transform="scale(0.015625)"/>
       <path id="DejaVuSans-75" d="M 544 1381 
L 544 3500 
L 1119 3500 
L 1119 1403 
Q 1119 906 1312 657 
Q 1506 409 1894 409 
Q 2359 409 2629 706 
Q 2900 1003 2900 1516 
L 2900 3500 
L 3475 3500 
L 3475 0 
L 2900 0 
L 2900 538 
Q 2691 219 2414 64 
Q 2138 -91 1772 -91 
Q 1169 -91 856 284 
Q 544 659 544 1381 
z
M 1991 3584 
L 1991 3584 
z
" transform="scale(0.015625)"/>
      </defs>
      <use xlink:href="#DejaVuSans-5b"/>
      <use xlink:href="#DejaVuSans-63" transform="translate(39.013672 0)"/>
      <use xlink:href="#DejaVuSans-6f" transform="translate(93.994141 0)"/>
      <use xlink:href="#DejaVuSans-75" transform="translate(155.175781 0)"/>
      <use xlink:href="#DejaVuSans-6e" transform="translate(218.554688 0)"/>
      <use xlink:href="#DejaVuSans-74" transform="translate(281.933594 0)"/>
      <use xlink:href="#DejaVuSans-73" transform="translate(321.142578 0)"/>
      <use xlink:href="#DejaVuSans-5d" transform="translate(373.242188 0)"/>
     </g>
    </g>
   </g>
   <g id="line2d_15">
    <path d="M 62.183807 119.514875 
L 63.198352 119.514875 
L 63.198352 112.699217 
L 64.212898 112.699217 
L 64.212898 128.124128 
L 65.227443 128.124128 
L 65.227443 117.721281 
L 66.241989 117.721281 
L 66.241989 120.591032 
L 67.256534 120.591032 
L 67.256534 125.613096 
L 68.27108 125.613096 
L 68.27108 129.200285 
L 69.285625 129.200285 
L 69.285625 129.559004 
L 70.30017 129.559004 
L 70.30017 124.53694 
L 71.314716 124.53694 
L 71.314716 136.015943 
L 72.329261 136.015943 
L 72.329261 125.971815 
L 73.343807 125.971815 
L 73.343807 125.613096 
L 74.358352 125.613096 
L 74.358352 131.711317 
L 75.372898 131.711317 
L 75.372898 128.841566 
L 76.387443 128.841566 
L 76.387443 134.222349 
L 77.401989 134.222349 
L 77.401989 129.200285 
L 78.416534 129.200285 
L 78.416534 141.396726 
L 79.43108 141.396726 
L 79.43108 138.526975 
L 80.445625 138.526975 
L 80.445625 129.559004 
L 81.46017 129.559004 
L 81.46017 137.809537 
L 82.474716 137.809537 
L 82.474716 143.907758 
L 83.489261 143.907758 
L 83.489261 146.777509 
L 84.503807 146.777509 
L 84.503807 141.755445 
L 85.518352 141.755445 
L 85.518352 142.472883 
L 86.532898 142.472883 
L 86.532898 147.136228 
L 87.547443 147.136228 
L 87.547443 156.462918 
L 88.561989 156.462918 
L 88.561989 152.87573 
L 89.576534 152.87573 
L 89.576534 149.64726 
L 90.59108 149.64726 
L 90.59108 146.060071 
L 91.605625 146.060071 
L 91.605625 159.691388 
L 92.62017 159.691388 
L 92.62017 152.87573 
L 93.634716 152.87573 
L 93.634716 156.821637 
L 94.649261 156.821637 
L 94.649261 153.234448 
L 95.663807 153.234448 
L 95.663807 164.354733 
L 96.678352 164.354733 
L 96.678352 167.583203 
L 97.692898 167.583203 
L 97.692898 158.615231 
L 98.707443 158.615231 
L 98.707443 168.300641 
L 99.721989 168.300641 
L 99.721989 170.811673 
L 100.736534 170.811673 
L 100.736534 180.497082 
L 101.75108 180.497082 
L 101.75108 169.376797 
L 102.765625 169.376797 
L 102.765625 170.452954 
L 103.78017 170.452954 
L 103.78017 174.040142 
L 104.794716 174.040142 
L 104.794716 170.811673 
L 105.809261 170.811673 
L 105.809261 177.268612 
L 106.823807 177.268612 
L 106.823807 179.420925 
L 107.838352 179.420925 
L 107.838352 181.931957 
L 108.852898 181.931957 
L 108.852898 176.551174 
L 109.867443 176.551174 
L 109.867443 192.693523 
L 110.881989 192.693523 
L 110.881989 193.410961 
L 111.896534 193.410961 
L 111.896534 196.280712 
L 112.91108 196.280712 
L 112.91108 197.356868 
L 113.925625 197.356868 
L 113.925625 192.334804 
L 114.94017 192.334804 
L 114.94017 196.280712 
L 115.954716 196.280712 
L 115.954716 199.8679 
L 116.969261 199.8679 
L 116.969261 203.09637 
L 117.983807 203.09637 
L 117.983807 203.813808 
L 118.998352 203.813808 
L 118.998352 204.172527 
L 120.012898 204.172527 
L 120.012898 207.042278 
L 121.027443 207.042278 
L 121.027443 207.400996 
L 122.041989 207.400996 
L 122.041989 206.32484 
L 123.056534 206.32484 
L 123.056534 210.270747 
L 124.07108 210.270747 
L 124.07108 210.988185 
L 125.085625 210.988185 
L 125.085625 211.346904 
L 126.10017 211.346904 
L 126.10017 212.42306 
L 127.114716 212.42306 
L 127.114716 217.445125 
L 128.129261 217.445125 
L 128.129261 216.368968 
L 129.143807 216.368968 
L 129.143807 216.010249 
L 130.158352 216.010249 
L 130.158352 216.368968 
L 131.172898 216.368968 
L 131.172898 217.445125 
L 132.187443 217.445125 
L 132.187443 218.162562 
L 133.201989 218.162562 
L 133.201989 217.803843 
L 134.216534 217.803843 
L 134.216534 218.162562 
L 135.23108 218.162562 
L 135.23108 218.88 
L 148.42017 218.88 
L 148.42017 218.162562 
L 149.434716 218.162562 
L 149.434716 214.575374 
L 150.449261 214.575374 
L 150.449261 208.477153 
L 151.463807 208.477153 
L 151.463807 207.400996 
L 152.478352 207.400996 
L 152.478352 204.531246 
L 153.492898 204.531246 
L 153.492898 196.639431 
L 154.507443 196.639431 
L 154.507443 188.030178 
L 155.521989 188.030178 
L 155.521989 185.519146 
L 156.536534 185.519146 
L 156.536534 180.138363 
L 157.55108 180.138363 
L 157.55108 172.963986 
L 158.565625 172.963986 
L 158.565625 164.713452 
L 159.58017 164.713452 
L 159.58017 160.767544 
L 160.594716 160.767544 
L 160.594716 156.821637 
L 161.609261 156.821637 
L 161.609261 145.701352 
L 162.623807 145.701352 
L 162.623807 150.005979 
L 163.638352 150.005979 
L 163.638352 141.755445 
L 164.652898 141.755445 
L 164.652898 132.787473 
L 165.667443 132.787473 
L 165.667443 122.743345 
L 166.681989 122.743345 
L 166.681989 125.971815 
L 167.696534 125.971815 
L 167.696534 124.895658 
L 168.71108 124.895658 
L 168.71108 110.188185 
L 169.725625 110.188185 
L 169.725625 97.633025 
L 170.74017 97.633025 
L 170.74017 96.556868 
L 171.754716 96.556868 
L 171.754716 100.144057 
L 172.769261 100.144057 
L 172.769261 101.578932 
L 173.783807 101.578932 
L 173.783807 86.154021 
L 174.798352 86.154021 
L 174.798352 86.51274 
L 175.812898 86.51274 
L 175.812898 78.262206 
L 176.827443 78.262206 
L 176.827443 69.294235 
L 177.841989 69.294235 
L 177.841989 81.131957 
L 178.856534 81.131957 
L 178.856534 56.021637 
L 179.87108 56.021637 
L 179.87108 63.554733 
L 180.885625 63.554733 
L 180.885625 61.043701 
L 181.90017 61.043701 
L 181.90017 43.825196 
L 182.914716 43.825196 
L 182.914716 59.967544 
L 183.929261 59.967544 
L 183.929261 41.672883 
L 184.943807 41.672883 
L 184.943807 35.574662 
L 185.958352 35.574662 
L 185.958352 49.205979 
L 186.972898 49.205979 
L 186.972898 49.564698 
L 187.987443 49.564698 
L 187.987443 17.28 
L 189.001989 17.28 
L 189.001989 29.476441 
L 190.016534 29.476441 
L 190.016534 30.552598 
L 191.03108 30.552598 
L 191.03108 22.302064 
L 192.045625 22.302064 
L 192.045625 31.628754 
L 193.06017 31.628754 
L 193.06017 19.073594 
L 194.074716 19.073594 
L 194.074716 31.987473 
L 195.089261 31.987473 
L 195.089261 29.83516 
L 196.103807 29.83516 
L 196.103807 35.574662 
L 197.118352 35.574662 
L 197.118352 24.813096 
L 198.132898 24.813096 
L 198.132898 33.06363 
L 199.147443 33.06363 
L 199.147443 37.009537 
L 200.161989 37.009537 
L 200.161989 31.628754 
L 201.176534 31.628754 
L 201.176534 44.183915 
L 202.19108 44.183915 
L 202.19108 26.60669 
L 203.205625 26.60669 
L 203.205625 36.650819 
L 204.22017 36.650819 
L 204.22017 45.260071 
L 205.234716 45.260071 
L 205.234716 47.412384 
L 206.249261 47.412384 
L 206.249261 32.346192 
L 207.263807 32.346192 
L 207.263807 47.412384 
L 208.278352 47.412384 
L 208.278352 54.228043 
L 209.292898 54.228043 
L 209.292898 44.901352 
L 210.307443 44.901352 
L 210.307443 42.39032 
L 211.321989 42.39032 
L 211.321989 44.901352 
L 212.336534 44.901352 
L 212.336534 46.694947 
L 213.35108 46.694947 
L 213.35108 51.717011 
L 214.365625 51.717011 
L 214.365625 47.053665 
L 215.38017 47.053665 
L 215.38017 61.043701 
L 216.394716 61.043701 
L 216.394716 49.923416 
L 217.409261 49.923416 
L 217.409261 46.694947 
L 218.423807 46.694947 
L 218.423807 70.370391 
L 219.438352 70.370391 
L 219.438352 59.967544 
L 220.452898 59.967544 
L 220.452898 50.999573 
L 221.467443 50.999573 
L 221.467443 53.869324 
L 222.481989 53.869324 
L 222.481989 50.282135 
L 223.496534 50.282135 
L 223.496534 51.717011 
L 224.51108 51.717011 
L 224.51108 59.250107 
L 225.525625 59.250107 
L 225.525625 65.707046 
L 226.54017 65.707046 
L 226.54017 55.662918 
L 227.554716 55.662918 
L 227.554716 71.805267 
L 228.569261 71.805267 
L 228.569261 73.598861 
L 229.583807 73.598861 
L 229.583807 68.576797 
L 230.598352 68.576797 
L 230.598352 69.294235 
L 231.612898 69.294235 
L 231.612898 64.63089 
L 232.627443 64.63089 
L 232.627443 61.043701 
L 233.641989 61.043701 
L 233.641989 76.109893 
L 234.656534 76.109893 
L 234.656534 80.773238 
L 235.67108 80.773238 
L 235.67108 73.240142 
L 236.685625 73.240142 
L 236.685625 71.446548 
L 237.70017 71.446548 
L 237.70017 62.119858 
L 238.714716 62.119858 
L 238.714716 68.935516 
L 239.729261 68.935516 
L 239.729261 84.719146 
L 240.743807 84.719146 
L 240.743807 69.294235 
L 241.758352 69.294235 
L 241.758352 75.392456 
L 242.772898 75.392456 
L 242.772898 78.262206 
L 243.787443 78.262206 
L 243.787443 80.773238 
L 245.816534 80.773238 
L 245.816534 79.338363 
L 246.83108 79.338363 
L 246.83108 82.925552 
L 247.845625 82.925552 
L 247.845625 87.588897 
L 248.86017 87.588897 
L 248.86017 78.979644 
L 249.874716 78.979644 
L 249.874716 76.468612 
L 250.889261 76.468612 
L 250.889261 82.566833 
L 251.903807 82.566833 
L 251.903807 109.829466 
L 252.918352 109.829466 
L 252.918352 96.198149 
L 254.947443 96.198149 
L 254.947443 89.023772 
L 255.961989 89.023772 
L 255.961989 91.534804 
L 256.976534 91.534804 
L 256.976534 110.188185 
L 257.99108 110.188185 
L 257.99108 94.763274 
L 259.005625 94.763274 
L 259.005625 110.188185 
L 260.02017 110.188185 
L 260.02017 122.025907 
L 261.034716 122.025907 
L 261.034716 118.08 
L 262.049261 118.08 
L 262.049261 132.070036 
L 263.063807 132.070036 
L 263.063807 136.374662 
L 264.078352 136.374662 
L 264.078352 142.472883 
L 265.092898 142.472883 
L 265.092898 144.266477 
L 266.107443 144.266477 
L 266.107443 152.517011 
L 267.121989 152.517011 
L 267.121989 146.777509 
L 268.136534 146.777509 
L 268.136534 158.97395 
L 269.15108 158.97395 
L 269.15108 162.561139 
L 270.165625 162.561139 
L 270.165625 171.52911 
L 271.18017 171.52911 
L 271.18017 172.246548 
L 272.194716 172.246548 
L 272.194716 179.062206 
L 273.209261 179.062206 
L 273.209261 178.703488 
L 274.223807 178.703488 
L 274.223807 185.877865 
L 275.238352 185.877865 
L 275.238352 180.497082 
L 276.252898 180.497082 
L 276.252898 191.976085 
L 277.267443 191.976085 
L 277.267443 196.998149 
L 278.281989 196.998149 
L 278.281989 200.585338 
L 279.296534 200.585338 
L 279.296534 202.378932 
L 280.31108 202.378932 
L 280.31108 208.835872 
L 282.34017 208.835872 
L 282.34017 211.346904 
L 283.354716 211.346904 
L 283.354716 213.499217 
L 284.369261 213.499217 
L 284.369261 216.727687 
L 285.383807 216.727687 
L 285.383807 217.086406 
L 286.398352 217.086406 
L 286.398352 218.88 
L 297.558352 218.88 
L 297.558352 218.521281 
L 298.572898 218.521281 
L 298.572898 215.65153 
L 299.587443 215.65153 
L 299.587443 211.346904 
L 300.601989 211.346904 
L 300.601989 207.400996 
L 301.616534 207.400996 
L 301.616534 202.737651 
L 302.63108 202.737651 
L 302.63108 193.76968 
L 303.645625 193.76968 
L 303.645625 194.845836 
L 304.66017 194.845836 
L 304.66017 186.236584 
L 305.674716 186.236584 
L 305.674716 181.931957 
L 306.689261 181.931957 
L 306.689261 180.855801 
L 307.703807 180.855801 
L 307.703807 162.919858 
L 308.718352 162.919858 
L 308.718352 172.605267 
L 309.732898 172.605267 
L 309.732898 164.713452 
L 310.747443 164.713452 
L 310.747443 169.376797 
L 311.761989 169.376797 
L 311.761989 165.789609 
L 312.776534 165.789609 
L 312.776534 160.050107 
L 313.79108 160.050107 
L 313.79108 151.440854 
L 314.805625 151.440854 
L 314.805625 152.158292 
L 315.82017 152.158292 
L 315.82017 146.41879 
L 316.834716 146.41879 
L 316.834716 148.212384 
L 317.849261 148.212384 
L 317.849261 143.19032 
L 318.863807 143.19032 
L 318.863807 138.885694 
L 319.878352 138.885694 
L 319.878352 141.396726 
L 320.892898 141.396726 
L 320.892898 123.819502 
L 321.907443 123.819502 
L 321.907443 127.047972 
L 322.921989 127.047972 
L 322.921989 123.819502 
L 323.936534 123.819502 
L 323.936534 117.362562 
L 324.95108 117.362562 
L 324.95108 120.232313 
L 325.965625 120.232313 
L 325.965625 113.416655 
L 326.98017 113.416655 
L 326.98017 122.025907 
L 327.994716 122.025907 
L 327.994716 114.85153 
L 329.009261 114.85153 
L 329.009261 111.981779 
L 330.023807 111.981779 
L 330.023807 101.578932 
L 331.038352 101.578932 
L 331.038352 107.677153 
L 332.052898 107.677153 
L 332.052898 98.350463 
L 333.067443 98.350463 
L 333.067443 100.861495 
L 334.081989 100.861495 
L 334.081989 97.633025 
L 335.096534 97.633025 
L 335.096534 99.0679 
L 336.11108 99.0679 
L 336.11108 95.480712 
L 337.125625 95.480712 
L 337.125625 89.74121 
L 338.14017 89.74121 
L 338.14017 91.893523 
L 339.154716 91.893523 
L 339.154716 109.829466 
L 340.169261 109.829466 
L 340.169261 94.763274 
L 341.183807 94.763274 
L 341.183807 95.480712 
L 342.198352 95.480712 
L 342.198352 93.687117 
L 343.212898 93.687117 
L 343.212898 94.045836 
L 344.227443 94.045836 
L 344.227443 84.719146 
L 345.241989 84.719146 
L 345.241989 86.51274 
L 346.256534 86.51274 
L 346.256534 89.382491 
L 347.27108 89.382491 
L 347.27108 93.687117 
L 348.285625 93.687117 
L 348.285625 90.099929 
L 349.30017 90.099929 
L 349.30017 93.687117 
L 350.314716 93.687117 
L 350.314716 89.382491 
L 351.329261 89.382491 
L 351.329261 99.785338 
L 352.343807 99.785338 
L 352.343807 97.633025 
L 353.358352 97.633025 
L 353.358352 95.480712 
L 354.372898 95.480712 
L 354.372898 93.687117 
L 355.387443 93.687117 
L 355.387443 102.29637 
L 356.401989 102.29637 
L 356.401989 93.687117 
L 357.416534 93.687117 
L 357.416534 116.645125 
L 358.43108 116.645125 
L 358.43108 113.775374 
L 359.445625 113.775374 
L 359.445625 114.85153 
L 360.46017 114.85153 
L 360.46017 120.591032 
L 361.474716 120.591032 
L 361.474716 101.220214 
L 362.489261 101.220214 
L 362.489261 104.807402 
L 363.503807 104.807402 
L 363.503807 115.210249 
L 364.518352 115.210249 
L 364.518352 110.905623 
L 365.532898 110.905623 
L 365.532898 123.819502 
L 366.547443 123.819502 
L 366.547443 123.819502 
" clip-path="url(#pb3194dd880)" style="fill: none; stroke: #1f77b4; stroke-width: 1.5; stroke-linecap: square"/>
   </g>
   <g id="patch_3">
    <path d="M 46.965625 228.96 
L 46.965625 7.2 
" style="fill: none; stroke: #000000; stroke-width: 0.8; stroke-linejoin: miter; stroke-linecap: square"/>
   </g>
   <g id="patch_4">
    <path d="M 381.765625 228.96 
L 381.765625 7.2 
" style="fill: none; stroke: #000000; stroke-width: 0.8; stroke-linejoin: miter; stroke-linecap: square"/>
   </g>
   <g id="patch_5">
    <path d="M 46.965625 228.96 
L 381.765625 228.96 
" style="fill: none; stroke: #000000; stroke-width: 0.8; stroke-linejoin: miter; stroke-linecap: square"/>
   </g>
   <g id="patch_6">
    <path d="M 46.965625 7.2 
L 381.765625 7.2 
" style="fill: none; stroke: #000000; stroke-width: 0.8; stroke-linejoin: miter; stroke-linecap: square"/>
   </g>
  </g>
 </g>
 <defs>
  <clipPath id="pb3194dd880">
   <rect x="46.965625" y="7.2" width="334.8" height="221.76"/>
  </clipPath>
 </defs>
</svg>
