<?xml version="1.0" encoding="utf-8" standalone="no"?>
<!DOCTYPE svg PUBLIC "-//W3C//DTD SVG 1.1//EN"
  "http://www.w3.org/Graphics/SVG/1.1/DTD/svg11.dtd">
<svg xmlns:xlink="http://www.w3.org/1999/xlink" width="395.328125pt" height="266.51625pt" viewBox="0 0 395.328125 266.51625" xmlns="http://www.w3.org/2000/svg" version="1.1">
 <metadata>
  <rdf:RDF xmlns:dc="http://purl.org/dc/elements/1.1/" xmlns:cc="http://creativecommons.org/ns#" xmlns:rdf="http://www.w3.org/1999/02/22-rdf-syntax-ns#">
   <cc:Work>
    <dc:type rdf:resource="http://purl.org/dc/dcmitype/StillImage"/>
    <dc:date>2025-05-22T08:31:20.861889</dc:date>
    <dc:format>image/svg+xml</dc:format>
    <dc:creator>
     <cc:Agent>
      <dc:title>Matplotlib v3.10.3, https://matplotlib.org/</dc:title>
     </cc:Agent>
    </dc:creator>
   </cc:Work>
  </rdf:RDF>
 </metadata>
 <defs>
  <style type="text/css">*{stroke-linejoin: round; stroke-linecap: butt}</style>
 </defs>
 <g id="figure_1">
  <g id="patch_1">
   <path d="M 0 266.51625 
L 395.328125 266.51625 
L 395.328125 0 
L 0 0 
z
" style="fill: #ffffff"/>
  </g>
  <g id="axes_1">
   <g id="patch_2">
    <path d="M 53.328125 228.96 
L 388.128125 228.96 
L 388.128125 7.2 
L 53.328125 7.2 
z
" style="fill: #ffffff"/>
   </g>
   <g id="matplotlib.axis_1">
    <g id="xtick_1">
     <g id="line2d_1">
      <defs>
       <path id="m25c380430c" d="M 0 0 
L 0 3.5 
" style="stroke: #000000; stroke-width: 0.8"/>
      </defs>
      <g>
       <use xlink:href="#m25c380430c" x="59.305709" y="228.96" style="stroke: #000000; stroke-width: 0.8"/>
      </g>
     </g>
     <g id="text_1">
      <!-- 25000 -->
      <g transform="translate(43.399459 243.558437) scale(0.1 -0.1)">
       <defs>
        <path id="DejaVuSans-32" d="M 1228 531 
L 3431 531 
L 3431 0 
L 469 0 
L 469 531 
Q 828 903 1448 1529 
Q 2069 2156 2228 2338 
Q 2531 2678 2651 2914 
Q 2772 3150 2772 3378 
Q 2772 3750 2511 3984 
Q 2250 4219 1831 4219 
Q 1534 4219 1204 4116 
Q 875 4013 500 3803 
L 500 4441 
Q 881 4594 1212 4672 
Q 1544 4750 1819 4750 
Q 2544 4750 2975 4387 
Q 3406 4025 3406 3419 
Q 3406 3131 3298 2873 
Q 3191 2616 2906 2266 
Q 2828 2175 2409 1742 
Q 1991 1309 1228 531 
z
" transform="scale(0.015625)"/>
        <path id="DejaVuSans-35" d="M 691 4666 
L 3169 4666 
L 3169 4134 
L 1269 4134 
L 1269 2991 
Q 1406 3038 1543 3061 
Q 1681 3084 1819 3084 
Q 2600 3084 3056 2656 
Q 3513 2228 3513 1497 
Q 3513 744 3044 326 
Q 2575 -91 1722 -91 
Q 1428 -91 1123 -41 
Q 819 9 494 109 
L 494 744 
Q 775 591 1075 516 
Q 1375 441 1709 441 
Q 2250 441 2565 725 
Q 2881 1009 2881 1497 
Q 2881 1984 2565 2268 
Q 2250 2553 1709 2553 
Q 1456 2553 1204 2497 
Q 953 2441 691 2322 
L 691 4666 
z
" transform="scale(0.015625)"/>
        <path id="DejaVuSans-30" d="M 2034 4250 
Q 1547 4250 1301 3770 
Q 1056 3291 1056 2328 
Q 1056 1369 1301 889 
Q 1547 409 2034 409 
Q 2525 409 2770 889 
Q 3016 1369 3016 2328 
Q 3016 3291 2770 3770 
Q 2525 4250 2034 4250 
z
M 2034 4750 
Q 2819 4750 3233 4129 
Q 3647 3509 3647 2328 
Q 3647 1150 3233 529 
Q 2819 -91 2034 -91 
Q 1250 -91 836 529 
Q 422 1150 422 2328 
Q 422 3509 836 4129 
Q 1250 4750 2034 4750 
z
" transform="scale(0.015625)"/>
       </defs>
       <use xlink:href="#DejaVuSans-32"/>
       <use xlink:href="#DejaVuSans-35" transform="translate(63.623047 0)"/>
       <use xlink:href="#DejaVuSans-30" transform="translate(127.246094 0)"/>
       <use xlink:href="#DejaVuSans-30" transform="translate(190.869141 0)"/>
       <use xlink:href="#DejaVuSans-30" transform="translate(254.492188 0)"/>
      </g>
     </g>
    </g>
    <g id="xtick_2">
     <g id="line2d_2">
      <g>
       <use xlink:href="#m25c380430c" x="97.067947" y="228.96" style="stroke: #000000; stroke-width: 0.8"/>
      </g>
     </g>
     <g id="text_2">
      <!-- 50000 -->
      <g transform="translate(81.161697 243.558437) scale(0.1 -0.1)">
       <use xlink:href="#DejaVuSans-35"/>
       <use xlink:href="#DejaVuSans-30" transform="translate(63.623047 0)"/>
       <use xlink:href="#DejaVuSans-30" transform="translate(127.246094 0)"/>
       <use xlink:href="#DejaVuSans-30" transform="translate(190.869141 0)"/>
       <use xlink:href="#DejaVuSans-30" transform="translate(254.492188 0)"/>
      </g>
     </g>
    </g>
    <g id="xtick_3">
     <g id="line2d_3">
      <g>
       <use xlink:href="#m25c380430c" x="134.830184" y="228.96" style="stroke: #000000; stroke-width: 0.8"/>
      </g>
     </g>
     <g id="text_3">
      <!-- 75000 -->
      <g transform="translate(118.923934 243.558437) scale(0.1 -0.1)">
       <defs>
        <path id="DejaVuSans-37" d="M 525 4666 
L 3525 4666 
L 3525 4397 
L 1831 0 
L 1172 0 
L 2766 4134 
L 525 4134 
L 525 4666 
z
" transform="scale(0.015625)"/>
       </defs>
       <use xlink:href="#DejaVuSans-37"/>
       <use xlink:href="#DejaVuSans-35" transform="translate(63.623047 0)"/>
       <use xlink:href="#DejaVuSans-30" transform="translate(127.246094 0)"/>
       <use xlink:href="#DejaVuSans-30" transform="translate(190.869141 0)"/>
       <use xlink:href="#DejaVuSans-30" transform="translate(254.492188 0)"/>
      </g>
     </g>
    </g>
    <g id="xtick_4">
     <g id="line2d_4">
      <g>
       <use xlink:href="#m25c380430c" x="172.592422" y="228.96" style="stroke: #000000; stroke-width: 0.8"/>
      </g>
     </g>
     <g id="text_4">
      <!-- 100000 -->
      <g transform="translate(153.504922 243.558437) scale(0.1 -0.1)">
       <defs>
        <path id="DejaVuSans-31" d="M 794 531 
L 1825 531 
L 1825 4091 
L 703 3866 
L 703 4441 
L 1819 4666 
L 2450 4666 
L 2450 531 
L 3481 531 
L 3481 0 
L 794 0 
L 794 531 
z
" transform="scale(0.015625)"/>
       </defs>
       <use xlink:href="#DejaVuSans-31"/>
       <use xlink:href="#DejaVuSans-30" transform="translate(63.623047 0)"/>
       <use xlink:href="#DejaVuSans-30" transform="translate(127.246094 0)"/>
       <use xlink:href="#DejaVuSans-30" transform="translate(190.869141 0)"/>
       <use xlink:href="#DejaVuSans-30" transform="translate(254.492188 0)"/>
       <use xlink:href="#DejaVuSans-30" transform="translate(318.115234 0)"/>
      </g>
     </g>
    </g>
    <g id="xtick_5">
     <g id="line2d_5">
      <g>
       <use xlink:href="#m25c380430c" x="210.35466" y="228.96" style="stroke: #000000; stroke-width: 0.8"/>
      </g>
     </g>
     <g id="text_5">
      <!-- 125000 -->
      <g transform="translate(191.26716 243.558437) scale(0.1 -0.1)">
       <use xlink:href="#DejaVuSans-31"/>
       <use xlink:href="#DejaVuSans-32" transform="translate(63.623047 0)"/>
       <use xlink:href="#DejaVuSans-35" transform="translate(127.246094 0)"/>
       <use xlink:href="#DejaVuSans-30" transform="translate(190.869141 0)"/>
       <use xlink:href="#DejaVuSans-30" transform="translate(254.492188 0)"/>
       <use xlink:href="#DejaVuSans-30" transform="translate(318.115234 0)"/>
      </g>
     </g>
    </g>
    <g id="xtick_6">
     <g id="line2d_6">
      <g>
       <use xlink:href="#m25c380430c" x="248.116898" y="228.96" style="stroke: #000000; stroke-width: 0.8"/>
      </g>
     </g>
     <g id="text_6">
      <!-- 150000 -->
      <g transform="translate(229.029398 243.558437) scale(0.1 -0.1)">
       <use xlink:href="#DejaVuSans-31"/>
       <use xlink:href="#DejaVuSans-35" transform="translate(63.623047 0)"/>
       <use xlink:href="#DejaVuSans-30" transform="translate(127.246094 0)"/>
       <use xlink:href="#DejaVuSans-30" transform="translate(190.869141 0)"/>
       <use xlink:href="#DejaVuSans-30" transform="translate(254.492188 0)"/>
       <use xlink:href="#DejaVuSans-30" transform="translate(318.115234 0)"/>
      </g>
     </g>
    </g>
    <g id="xtick_7">
     <g id="line2d_7">
      <g>
       <use xlink:href="#m25c380430c" x="285.879136" y="228.96" style="stroke: #000000; stroke-width: 0.8"/>
      </g>
     </g>
     <g id="text_7">
      <!-- 175000 -->
      <g transform="translate(266.791636 243.558437) scale(0.1 -0.1)">
       <use xlink:href="#DejaVuSans-31"/>
       <use xlink:href="#DejaVuSans-37" transform="translate(63.623047 0)"/>
       <use xlink:href="#DejaVuSans-35" transform="translate(127.246094 0)"/>
       <use xlink:href="#DejaVuSans-30" transform="translate(190.869141 0)"/>
       <use xlink:href="#DejaVuSans-30" transform="translate(254.492188 0)"/>
       <use xlink:href="#DejaVuSans-30" transform="translate(318.115234 0)"/>
      </g>
     </g>
    </g>
    <g id="xtick_8">
     <g id="line2d_8">
      <g>
       <use xlink:href="#m25c380430c" x="323.641373" y="228.96" style="stroke: #000000; stroke-width: 0.8"/>
      </g>
     </g>
     <g id="text_8">
      <!-- 200000 -->
      <g transform="translate(304.553873 243.558437) scale(0.1 -0.1)">
       <use xlink:href="#DejaVuSans-32"/>
       <use xlink:href="#DejaVuSans-30" transform="translate(63.623047 0)"/>
       <use xlink:href="#DejaVuSans-30" transform="translate(127.246094 0)"/>
       <use xlink:href="#DejaVuSans-30" transform="translate(190.869141 0)"/>
       <use xlink:href="#DejaVuSans-30" transform="translate(254.492188 0)"/>
       <use xlink:href="#DejaVuSans-30" transform="translate(318.115234 0)"/>
      </g>
     </g>
    </g>
    <g id="xtick_9">
     <g id="line2d_9">
      <g>
       <use xlink:href="#m25c380430c" x="361.403611" y="228.96" style="stroke: #000000; stroke-width: 0.8"/>
      </g>
     </g>
     <g id="text_9">
      <!-- 225000 -->
      <g transform="translate(342.316111 243.558437) scale(0.1 -0.1)">
       <use xlink:href="#DejaVuSans-32"/>
       <use xlink:href="#DejaVuSans-32" transform="translate(63.623047 0)"/>
       <use xlink:href="#DejaVuSans-35" transform="translate(127.246094 0)"/>
       <use xlink:href="#DejaVuSans-30" transform="translate(190.869141 0)"/>
       <use xlink:href="#DejaVuSans-30" transform="translate(254.492188 0)"/>
       <use xlink:href="#DejaVuSans-30" transform="translate(318.115234 0)"/>
      </g>
     </g>
    </g>
    <g id="text_10">
     <!-- tof [µs] -->
     <g transform="translate(202.671875 257.236562) scale(0.1 -0.1)">
      <defs>
       <path id="DejaVuSans-74" d="M 1172 4494 
L 1172 3500 
L 2356 3500 
L 2356 3053 
L 1172 3053 
L 1172 1153 
Q 1172 725 1289 603 
Q 1406 481 1766 481 
L 2356 481 
L 2356 0 
L 1766 0 
Q 1100 0 847 248 
Q 594 497 594 1153 
L 594 3053 
L 172 3053 
L 172 3500 
L 594 3500 
L 594 4494 
L 1172 4494 
z
" transform="scale(0.015625)"/>
       <path id="DejaVuSans-6f" d="M 1959 3097 
Q 1497 3097 1228 2736 
Q 959 2375 959 1747 
Q 959 1119 1226 758 
Q 1494 397 1959 397 
Q 2419 397 2687 759 
Q 2956 1122 2956 1747 
Q 2956 2369 2687 2733 
Q 2419 3097 1959 3097 
z
M 1959 3584 
Q 2709 3584 3137 3096 
Q 3566 2609 3566 1747 
Q 3566 888 3137 398 
Q 2709 -91 1959 -91 
Q 1206 -91 779 398 
Q 353 888 353 1747 
Q 353 2609 779 3096 
Q 1206 3584 1959 3584 
z
" transform="scale(0.015625)"/>
       <path id="DejaVuSans-66" d="M 2375 4863 
L 2375 4384 
L 1825 4384 
Q 1516 4384 1395 4259 
Q 1275 4134 1275 3809 
L 1275 3500 
L 2222 3500 
L 2222 3053 
L 1275 3053 
L 1275 0 
L 697 0 
L 697 3053 
L 147 3053 
L 147 3500 
L 697 3500 
L 697 3744 
Q 697 4328 969 4595 
Q 1241 4863 1831 4863 
L 2375 4863 
z
" transform="scale(0.015625)"/>
       <path id="DejaVuSans-20" transform="scale(0.015625)"/>
       <path id="DejaVuSans-5b" d="M 550 4863 
L 1875 4863 
L 1875 4416 
L 1125 4416 
L 1125 -397 
L 1875 -397 
L 1875 -844 
L 550 -844 
L 550 4863 
z
" transform="scale(0.015625)"/>
       <path id="DejaVuSans-b5" d="M 544 -1331 
L 544 3500 
L 1119 3500 
L 1119 1325 
Q 1119 872 1334 640 
Q 1550 409 1972 409 
Q 2434 409 2667 671 
Q 2900 934 2900 1459 
L 2900 3500 
L 3475 3500 
L 3475 806 
Q 3475 619 3529 530 
Q 3584 441 3700 441 
Q 3728 441 3778 458 
Q 3828 475 3916 513 
L 3916 50 
Q 3788 -22 3673 -56 
Q 3559 -91 3450 -91 
Q 3234 -91 3106 31 
Q 2978 153 2931 403 
Q 2775 156 2548 32 
Q 2322 -91 2016 -91 
Q 1697 -91 1473 31 
Q 1250 153 1119 397 
L 1119 -1331 
L 544 -1331 
z
" transform="scale(0.015625)"/>
       <path id="DejaVuSans-73" d="M 2834 3397 
L 2834 2853 
Q 2591 2978 2328 3040 
Q 2066 3103 1784 3103 
Q 1356 3103 1142 2972 
Q 928 2841 928 2578 
Q 928 2378 1081 2264 
Q 1234 2150 1697 2047 
L 1894 2003 
Q 2506 1872 2764 1633 
Q 3022 1394 3022 966 
Q 3022 478 2636 193 
Q 2250 -91 1575 -91 
Q 1294 -91 989 -36 
Q 684 19 347 128 
L 347 722 
Q 666 556 975 473 
Q 1284 391 1588 391 
Q 1994 391 2212 530 
Q 2431 669 2431 922 
Q 2431 1156 2273 1281 
Q 2116 1406 1581 1522 
L 1381 1569 
Q 847 1681 609 1914 
Q 372 2147 372 2553 
Q 372 3047 722 3315 
Q 1072 3584 1716 3584 
Q 2034 3584 2315 3537 
Q 2597 3491 2834 3397 
z
" transform="scale(0.015625)"/>
       <path id="DejaVuSans-5d" d="M 1947 4863 
L 1947 -844 
L 622 -844 
L 622 -397 
L 1369 -397 
L 1369 4416 
L 622 4416 
L 622 4863 
L 1947 4863 
z
" transform="scale(0.015625)"/>
      </defs>
      <use xlink:href="#DejaVuSans-74"/>
      <use xlink:href="#DejaVuSans-6f" transform="translate(39.208984 0)"/>
      <use xlink:href="#DejaVuSans-66" transform="translate(100.390625 0)"/>
      <use xlink:href="#DejaVuSans-20" transform="translate(135.595703 0)"/>
      <use xlink:href="#DejaVuSans-5b" transform="translate(167.382812 0)"/>
      <use xlink:href="#DejaVuSans-b5" transform="translate(206.396484 0)"/>
      <use xlink:href="#DejaVuSans-73" transform="translate(270.019531 0)"/>
      <use xlink:href="#DejaVuSans-5d" transform="translate(322.119141 0)"/>
     </g>
    </g>
   </g>
   <g id="matplotlib.axis_2">
    <g id="ytick_1">
     <g id="line2d_10">
      <defs>
       <path id="mc65905d443" d="M 0 0 
L -3.5 0 
" style="stroke: #000000; stroke-width: 0.8"/>
      </defs>
      <g>
       <use xlink:href="#mc65905d443" x="53.328125" y="218.88" style="stroke: #000000; stroke-width: 0.8"/>
      </g>
     </g>
     <g id="text_11">
      <!-- 0 -->
      <g transform="translate(39.965625 222.679219) scale(0.1 -0.1)">
       <use xlink:href="#DejaVuSans-30"/>
      </g>
     </g>
    </g>
    <g id="ytick_2">
     <g id="line2d_11">
      <g>
       <use xlink:href="#mc65905d443" x="53.328125" y="189.492245" style="stroke: #000000; stroke-width: 0.8"/>
      </g>
     </g>
     <g id="text_12">
      <!-- 200 -->
      <g transform="translate(27.240625 193.291464) scale(0.1 -0.1)">
       <use xlink:href="#DejaVuSans-32"/>
       <use xlink:href="#DejaVuSans-30" transform="translate(63.623047 0)"/>
       <use xlink:href="#DejaVuSans-30" transform="translate(127.246094 0)"/>
      </g>
     </g>
    </g>
    <g id="ytick_3">
     <g id="line2d_12">
      <g>
       <use xlink:href="#mc65905d443" x="53.328125" y="160.10449" style="stroke: #000000; stroke-width: 0.8"/>
      </g>
     </g>
     <g id="text_13">
      <!-- 400 -->
      <g transform="translate(27.240625 163.903709) scale(0.1 -0.1)">
       <defs>
        <path id="DejaVuSans-34" d="M 2419 4116 
L 825 1625 
L 2419 1625 
L 2419 4116 
z
M 2253 4666 
L 3047 4666 
L 3047 1625 
L 3713 1625 
L 3713 1100 
L 3047 1100 
L 3047 0 
L 2419 0 
L 2419 1100 
L 313 1100 
L 313 1709 
L 2253 4666 
z
" transform="scale(0.015625)"/>
       </defs>
       <use xlink:href="#DejaVuSans-34"/>
       <use xlink:href="#DejaVuSans-30" transform="translate(63.623047 0)"/>
       <use xlink:href="#DejaVuSans-30" transform="translate(127.246094 0)"/>
      </g>
     </g>
    </g>
    <g id="ytick_4">
     <g id="line2d_13">
      <g>
       <use xlink:href="#mc65905d443" x="53.328125" y="130.716735" style="stroke: #000000; stroke-width: 0.8"/>
      </g>
     </g>
     <g id="text_14">
      <!-- 600 -->
      <g transform="translate(27.240625 134.515953) scale(0.1 -0.1)">
       <defs>
        <path id="DejaVuSans-36" d="M 2113 2584 
Q 1688 2584 1439 2293 
Q 1191 2003 1191 1497 
Q 1191 994 1439 701 
Q 1688 409 2113 409 
Q 2538 409 2786 701 
Q 3034 994 3034 1497 
Q 3034 2003 2786 2293 
Q 2538 2584 2113 2584 
z
M 3366 4563 
L 3366 3988 
Q 3128 4100 2886 4159 
Q 2644 4219 2406 4219 
Q 1781 4219 1451 3797 
Q 1122 3375 1075 2522 
Q 1259 2794 1537 2939 
Q 1816 3084 2150 3084 
Q 2853 3084 3261 2657 
Q 3669 2231 3669 1497 
Q 3669 778 3244 343 
Q 2819 -91 2113 -91 
Q 1303 -91 875 529 
Q 447 1150 447 2328 
Q 447 3434 972 4092 
Q 1497 4750 2381 4750 
Q 2619 4750 2861 4703 
Q 3103 4656 3366 4563 
z
" transform="scale(0.015625)"/>
       </defs>
       <use xlink:href="#DejaVuSans-36"/>
       <use xlink:href="#DejaVuSans-30" transform="translate(63.623047 0)"/>
       <use xlink:href="#DejaVuSans-30" transform="translate(127.246094 0)"/>
      </g>
     </g>
    </g>
    <g id="ytick_5">
     <g id="line2d_14">
      <g>
       <use xlink:href="#mc65905d443" x="53.328125" y="101.32898" style="stroke: #000000; stroke-width: 0.8"/>
      </g>
     </g>
     <g id="text_15">
      <!-- 800 -->
      <g transform="translate(27.240625 105.128198) scale(0.1 -0.1)">
       <defs>
        <path id="DejaVuSans-38" d="M 2034 2216 
Q 1584 2216 1326 1975 
Q 1069 1734 1069 1313 
Q 1069 891 1326 650 
Q 1584 409 2034 409 
Q 2484 409 2743 651 
Q 3003 894 3003 1313 
Q 3003 1734 2745 1975 
Q 2488 2216 2034 2216 
z
M 1403 2484 
Q 997 2584 770 2862 
Q 544 3141 544 3541 
Q 544 4100 942 4425 
Q 1341 4750 2034 4750 
Q 2731 4750 3128 4425 
Q 3525 4100 3525 3541 
Q 3525 3141 3298 2862 
Q 3072 2584 2669 2484 
Q 3125 2378 3379 2068 
Q 3634 1759 3634 1313 
Q 3634 634 3220 271 
Q 2806 -91 2034 -91 
Q 1263 -91 848 271 
Q 434 634 434 1313 
Q 434 1759 690 2068 
Q 947 2378 1403 2484 
z
M 1172 3481 
Q 1172 3119 1398 2916 
Q 1625 2713 2034 2713 
Q 2441 2713 2670 2916 
Q 2900 3119 2900 3481 
Q 2900 3844 2670 4047 
Q 2441 4250 2034 4250 
Q 1625 4250 1398 4047 
Q 1172 3844 1172 3481 
z
" transform="scale(0.015625)"/>
       </defs>
       <use xlink:href="#DejaVuSans-38"/>
       <use xlink:href="#DejaVuSans-30" transform="translate(63.623047 0)"/>
       <use xlink:href="#DejaVuSans-30" transform="translate(127.246094 0)"/>
      </g>
     </g>
    </g>
    <g id="ytick_6">
     <g id="line2d_15">
      <g>
       <use xlink:href="#mc65905d443" x="53.328125" y="71.941224" style="stroke: #000000; stroke-width: 0.8"/>
      </g>
     </g>
     <g id="text_16">
      <!-- 1000 -->
      <g transform="translate(20.878125 75.740443) scale(0.1 -0.1)">
       <use xlink:href="#DejaVuSans-31"/>
       <use xlink:href="#DejaVuSans-30" transform="translate(63.623047 0)"/>
       <use xlink:href="#DejaVuSans-30" transform="translate(127.246094 0)"/>
       <use xlink:href="#DejaVuSans-30" transform="translate(190.869141 0)"/>
      </g>
     </g>
    </g>
    <g id="ytick_7">
     <g id="line2d_16">
      <g>
       <use xlink:href="#mc65905d443" x="53.328125" y="42.553469" style="stroke: #000000; stroke-width: 0.8"/>
      </g>
     </g>
     <g id="text_17">
      <!-- 1200 -->
      <g transform="translate(20.878125 46.352688) scale(0.1 -0.1)">
       <use xlink:href="#DejaVuSans-31"/>
       <use xlink:href="#DejaVuSans-32" transform="translate(63.623047 0)"/>
       <use xlink:href="#DejaVuSans-30" transform="translate(127.246094 0)"/>
       <use xlink:href="#DejaVuSans-30" transform="translate(190.869141 0)"/>
      </g>
     </g>
    </g>
    <g id="ytick_8">
     <g id="line2d_17">
      <g>
       <use xlink:href="#mc65905d443" x="53.328125" y="13.165714" style="stroke: #000000; stroke-width: 0.8"/>
      </g>
     </g>
     <g id="text_18">
      <!-- 1400 -->
      <g transform="translate(20.878125 16.964933) scale(0.1 -0.1)">
       <use xlink:href="#DejaVuSans-31"/>
       <use xlink:href="#DejaVuSans-34" transform="translate(63.623047 0)"/>
       <use xlink:href="#DejaVuSans-30" transform="translate(127.246094 0)"/>
       <use xlink:href="#DejaVuSans-30" transform="translate(190.869141 0)"/>
      </g>
     </g>
    </g>
    <g id="text_19">
     <!-- [counts] -->
     <g transform="translate(14.798438 138.6925) rotate(-90) scale(0.1 -0.1)">
      <defs>
       <path id="DejaVuSans-63" d="M 3122 3366 
L 3122 2828 
Q 2878 2963 2633 3030 
Q 2388 3097 2138 3097 
Q 1578 3097 1268 2742 
Q 959 2388 959 1747 
Q 959 1106 1268 751 
Q 1578 397 2138 397 
Q 2388 397 2633 464 
Q 2878 531 3122 666 
L 3122 134 
Q 2881 22 2623 -34 
Q 2366 -91 2075 -91 
Q 1284 -91 818 406 
Q 353 903 353 1747 
Q 353 2603 823 3093 
Q 1294 3584 2113 3584 
Q 2378 3584 2631 3529 
Q 2884 3475 3122 3366 
z
" transform="scale(0.015625)"/>
       <path id="DejaVuSans-75" d="M 544 1381 
L 544 3500 
L 1119 3500 
L 1119 1403 
Q 1119 906 1312 657 
Q 1506 409 1894 409 
Q 2359 409 2629 706 
Q 2900 1003 2900 1516 
L 2900 3500 
L 3475 3500 
L 3475 0 
L 2900 0 
L 2900 538 
Q 2691 219 2414 64 
Q 2138 -91 1772 -91 
Q 1169 -91 856 284 
Q 544 659 544 1381 
z
M 1991 3584 
L 1991 3584 
z
" transform="scale(0.015625)"/>
       <path id="DejaVuSans-6e" d="M 3513 2113 
L 3513 0 
L 2938 0 
L 2938 2094 
Q 2938 2591 2744 2837 
Q 2550 3084 2163 3084 
Q 1697 3084 1428 2787 
Q 1159 2491 1159 1978 
L 1159 0 
L 581 0 
L 581 3500 
L 1159 3500 
L 1159 2956 
Q 1366 3272 1645 3428 
Q 1925 3584 2291 3584 
Q 2894 3584 3203 3211 
Q 3513 2838 3513 2113 
z
" transform="scale(0.015625)"/>
      </defs>
      <use xlink:href="#DejaVuSans-5b"/>
      <use xlink:href="#DejaVuSans-63" transform="translate(39.013672 0)"/>
      <use xlink:href="#DejaVuSans-6f" transform="translate(93.994141 0)"/>
      <use xlink:href="#DejaVuSans-75" transform="translate(155.175781 0)"/>
      <use xlink:href="#DejaVuSans-6e" transform="translate(218.554688 0)"/>
      <use xlink:href="#DejaVuSans-74" transform="translate(281.933594 0)"/>
      <use xlink:href="#DejaVuSans-73" transform="translate(321.142578 0)"/>
      <use xlink:href="#DejaVuSans-5d" transform="translate(373.242188 0)"/>
     </g>
    </g>
   </g>
   <g id="line2d_18">
    <path d="M 68.546307 216.969796 
L 69.301552 216.969796 
L 69.301552 217.116735 
L 70.056796 217.116735 
L 70.056796 215.647347 
L 70.812041 215.647347 
L 70.812041 208.888163 
L 71.567286 208.888163 
L 71.567286 204.039184 
L 72.322531 204.039184 
L 72.322531 195.075918 
L 73.077775 195.075918 
L 73.077775 173.182041 
L 73.83302 173.182041 
L 73.83302 127.924898 
L 74.588265 127.924898 
L 74.588265 72.235102 
L 75.34351 72.235102 
L 75.34351 44.757551 
L 76.098754 44.757551 
L 76.098754 37.116735 
L 76.853999 37.116735 
L 76.853999 17.28 
L 77.609244 17.28 
L 77.609244 44.463673 
L 78.364489 44.463673 
L 78.364489 55.63102 
L 79.119733 55.63102 
L 79.119733 57.541224 
L 79.874978 57.541224 
L 79.874978 57.982041 
L 80.630223 57.982041 
L 80.630223 69.443265 
L 81.385468 69.443265 
L 81.385468 82.667755 
L 82.140712 82.667755 
L 82.140712 88.839184 
L 82.895957 88.839184 
L 82.895957 104.267755 
L 83.651202 104.267755 
L 83.651202 110.145306 
L 84.406447 110.145306 
L 84.406447 135.859592 
L 85.161691 135.859592 
L 85.161691 170.243265 
L 85.916936 170.243265 
L 85.916936 206.243265 
L 86.672181 206.243265 
L 86.672181 218.88 
L 372.909943 218.88 
L 372.909943 218.88 
" clip-path="url(#p53fbe7be20)" style="fill: none; stroke: #1f77b4; stroke-width: 1.5; stroke-linecap: square"/>
   </g>
   <g id="line2d_19">
    <path d="M 68.546307 218.88 
L 168.993859 218.88 
L 168.993859 217.116735 
L 169.749104 217.116735 
L 169.749104 216.52898 
L 170.504349 216.52898 
L 170.504349 216.382041 
L 171.259594 216.382041 
L 171.259594 213.002449 
L 172.014838 213.002449 
L 172.014838 214.618776 
L 172.770083 214.618776 
L 172.770083 214.471837 
L 173.525328 214.471837 
L 173.525328 211.092245 
L 175.035817 211.092245 
L 175.035817 211.239184 
L 175.791062 211.239184 
L 175.791062 207.271837 
L 176.546307 207.271837 
L 176.546307 202.275918 
L 177.301552 202.275918 
L 177.301552 200.806531 
L 178.056796 200.806531 
L 178.056796 200.218776 
L 178.812041 200.218776 
L 178.812041 193.900408 
L 179.567286 193.900408 
L 179.567286 183.467755 
L 180.322531 183.467755 
L 180.322531 178.618776 
L 181.077775 178.618776 
L 181.077775 169.802449 
L 181.83302 169.802449 
L 181.83302 167.745306 
L 182.588265 167.745306 
L 182.588265 165.835102 
L 183.34351 165.835102 
L 183.34351 163.484082 
L 184.098754 163.484082 
L 184.098754 157.606531 
L 184.853999 157.606531 
L 184.853999 152.90449 
L 185.609244 152.90449 
L 185.609244 158.047347 
L 186.364489 158.047347 
L 186.364489 164.071837 
L 187.119733 164.071837 
L 187.119733 150.847347 
L 187.874978 150.847347 
L 187.874978 154.520816 
L 188.630223 154.520816 
L 188.630223 158.194286 
L 189.385468 158.194286 
L 189.385468 158.488163 
L 190.140712 158.488163 
L 190.140712 164.365714 
L 190.895957 164.365714 
L 190.895957 159.222857 
L 191.651202 159.222857 
L 191.651202 162.749388 
L 192.406447 162.749388 
L 192.406447 164.659592 
L 193.161691 164.659592 
L 193.161691 169.067755 
L 193.916936 169.067755 
L 193.916936 160.398367 
L 194.672181 160.398367 
L 194.672181 159.957551 
L 195.427426 159.957551 
L 195.427426 165.982041 
L 196.18267 165.982041 
L 196.18267 169.949388 
L 196.937915 169.949388 
L 196.937915 164.953469 
L 197.69316 164.953469 
L 197.69316 167.010612 
L 198.448405 167.010612 
L 198.448405 163.777959 
L 199.203649 163.777959 
L 199.203649 175.973878 
L 199.958894 175.973878 
L 199.958894 159.810612 
L 200.714139 159.810612 
L 200.714139 174.063673 
L 202.224628 174.063673 
L 202.224628 163.777959 
L 202.979873 163.777959 
L 202.979873 173.475918 
L 203.735118 173.475918 
L 203.735118 180.822857 
L 204.490363 180.822857 
L 204.490363 175.239184 
L 205.245608 175.239184 
L 205.245608 174.945306 
L 206.000852 174.945306 
L 206.000852 185.084082 
L 206.756097 185.084082 
L 206.756097 179.647347 
L 207.511342 179.647347 
L 207.511342 182.145306 
L 208.266587 182.145306 
L 208.266587 185.23102 
L 209.021831 185.23102 
L 209.021831 183.467755 
L 209.777076 183.467755 
L 209.777076 184.05551 
L 210.532321 184.05551 
L 210.532321 194.635102 
L 211.287566 194.635102 
L 211.287566 190.961633 
L 212.04281 190.961633 
L 212.04281 195.516735 
L 212.798055 195.516735 
L 212.798055 202.12898 
L 214.308545 202.12898 
L 214.308545 209.035102 
L 215.063789 209.035102 
L 215.063789 210.798367 
L 215.819034 210.798367 
L 215.819034 215.500408 
L 216.574279 215.500408 
L 216.574279 218.292245 
L 217.329524 218.292245 
L 217.329524 218.88 
L 372.909943 218.88 
L 372.909943 218.88 
" clip-path="url(#p53fbe7be20)" style="fill: none; stroke: #ff7f0e; stroke-width: 1.5; stroke-linecap: square"/>
   </g>
   <g id="line2d_20">
    <path d="M 68.546307 218.88 
L 218.084768 218.88 
L 218.084768 218.586122 
L 218.840013 218.586122 
L 218.840013 215.647347 
L 219.595258 215.647347 
L 219.595258 218.88 
L 221.105747 218.88 
L 221.105747 217.851429 
L 221.860992 217.851429 
L 221.860992 215.500408 
L 222.616237 215.500408 
L 222.616237 217.410612 
L 223.371482 217.410612 
L 223.371482 215.059592 
L 224.126726 215.059592 
L 224.126726 214.471837 
L 224.881971 214.471837 
L 224.881971 212.120816 
L 225.637216 212.120816 
L 225.637216 213.296327 
L 226.392461 213.296327 
L 226.392461 212.561633 
L 227.147705 212.561633 
L 227.147705 210.945306 
L 227.90295 210.945306 
L 227.90295 209.035102 
L 228.658195 209.035102 
L 228.658195 206.096327 
L 229.41344 206.096327 
L 229.41344 205.361633 
L 230.168684 205.361633 
L 230.168684 203.30449 
L 230.923929 203.30449 
L 230.923929 201.835102 
L 231.679174 201.835102 
L 231.679174 199.190204 
L 232.434419 199.190204 
L 232.434419 195.516735 
L 233.189663 195.516735 
L 233.189663 188.022857 
L 233.944908 188.022857 
L 233.944908 180.822857 
L 234.700153 180.822857 
L 234.700153 187.582041 
L 235.455398 187.582041 
L 235.455398 175.826939 
L 236.210642 175.826939 
L 236.210642 180.235102 
L 236.965887 180.235102 
L 236.965887 175.68 
L 237.721132 175.68 
L 237.721132 177.737143 
L 238.476377 177.737143 
L 238.476377 175.092245 
L 239.231622 175.092245 
L 239.231622 165.100408 
L 239.986866 165.100408 
L 239.986866 171.859592 
L 240.742111 171.859592 
L 240.742111 178.177959 
L 241.497356 178.177959 
L 241.497356 172.300408 
L 242.252601 172.300408 
L 242.252601 166.422857 
L 243.007845 166.422857 
L 243.007845 176.414694 
L 243.76309 176.414694 
L 243.76309 168.48 
L 244.518335 168.48 
L 244.518335 175.386122 
L 245.27358 175.386122 
L 245.27358 176.120816 
L 246.028824 176.120816 
L 246.028824 174.357551 
L 246.784069 174.357551 
L 246.784069 179.206531 
L 247.539314 179.206531 
L 247.539314 170.83102 
L 248.294559 170.83102 
L 248.294559 177.296327 
L 249.049803 177.296327 
L 249.049803 179.794286 
L 249.805048 179.794286 
L 249.805048 178.765714 
L 250.560293 178.765714 
L 250.560293 180.088163 
L 251.315538 180.088163 
L 251.315538 173.769796 
L 252.070782 173.769796 
L 252.070782 174.50449 
L 252.826027 174.50449 
L 252.826027 177.149388 
L 253.581272 177.149388 
L 253.581272 178.177959 
L 254.336517 178.177959 
L 254.336517 188.169796 
L 255.091761 188.169796 
L 255.091761 173.916735 
L 255.847006 173.916735 
L 255.847006 181.557551 
L 256.602251 181.557551 
L 256.602251 180.52898 
L 257.357496 180.52898 
L 257.357496 178.324898 
L 258.11274 178.324898 
L 258.11274 181.410612 
L 258.867985 181.410612 
L 258.867985 181.557551 
L 259.62323 181.557551 
L 259.62323 173.916735 
L 260.378475 173.916735 
L 260.378475 188.610612 
L 261.133719 188.610612 
L 261.133719 177.296327 
L 261.888964 177.296327 
L 261.888964 186.994286 
L 262.644209 186.994286 
L 262.644209 180.675918 
L 263.399454 180.675918 
L 263.399454 178.765714 
L 264.154698 178.765714 
L 264.154698 195.369796 
L 264.909943 195.369796 
L 264.909943 185.671837 
L 265.665188 185.671837 
L 265.665188 187.582041 
L 266.420433 187.582041 
L 266.420433 183.908571 
L 267.175677 183.908571 
L 267.175677 191.843265 
L 267.930922 191.843265 
L 267.930922 191.696327 
L 268.686167 191.696327 
L 268.686167 190.08 
L 269.441412 190.08 
L 269.441412 188.610612 
L 270.196656 188.610612 
L 270.196656 193.459592 
L 270.951901 193.459592 
L 270.951901 192.137143 
L 271.707146 192.137143 
L 271.707146 194.782041 
L 272.462391 194.782041 
L 272.462391 191.990204 
L 273.217635 191.990204 
L 273.217635 197.867755 
L 273.97288 197.867755 
L 273.97288 201.247347 
L 274.728125 201.247347 
L 274.728125 195.516735 
L 275.48337 195.516735 
L 275.48337 202.716735 
L 276.238615 202.716735 
L 276.238615 202.12898 
L 276.993859 202.12898 
L 276.993859 208.300408 
L 277.749104 208.300408 
L 277.749104 206.684082 
L 278.504349 206.684082 
L 278.504349 211.386122 
L 279.259594 211.386122 
L 279.259594 209.769796 
L 280.014838 209.769796 
L 280.014838 215.353469 
L 280.770083 215.353469 
L 280.770083 216.382041 
L 281.525328 216.382041 
L 281.525328 217.263673 
L 282.280573 217.263673 
L 282.280573 218.88 
L 372.909943 218.88 
L 372.909943 218.88 
" clip-path="url(#p53fbe7be20)" style="fill: none; stroke: #2ca02c; stroke-width: 1.5; stroke-linecap: square"/>
   </g>
   <g id="line2d_21">
    <path d="M 68.546307 218.88 
L 286.812041 218.88 
L 286.812041 218.733061 
L 287.567286 218.733061 
L 287.567286 216.088163 
L 288.322531 216.088163 
L 288.322531 218.145306 
L 289.077775 218.145306 
L 289.077775 218.88 
L 292.098754 218.88 
L 292.098754 216.52898 
L 292.853999 216.52898 
L 292.853999 218.88 
L 293.609244 218.88 
L 293.609244 216.675918 
L 294.364489 216.675918 
L 294.364489 215.500408 
L 295.119733 215.500408 
L 295.119733 216.088163 
L 295.874978 216.088163 
L 295.874978 214.765714 
L 296.630223 214.765714 
L 296.630223 213.149388 
L 297.385468 213.149388 
L 297.385468 215.206531 
L 298.140712 215.206531 
L 298.140712 213.737143 
L 298.895957 213.737143 
L 298.895957 214.765714 
L 299.651202 214.765714 
L 299.651202 210.945306 
L 301.161691 210.945306 
L 301.161691 210.651429 
L 301.916936 210.651429 
L 301.916936 208.594286 
L 302.672181 208.594286 
L 302.672181 210.063673 
L 303.427426 210.063673 
L 303.427426 209.769796 
L 304.18267 209.769796 
L 304.18267 201.982041 
L 304.937915 201.982041 
L 304.937915 206.243265 
L 305.69316 206.243265 
L 305.69316 203.30449 
L 306.448405 203.30449 
L 306.448405 200.218776 
L 307.203649 200.218776 
L 307.203649 195.663673 
L 307.958894 195.663673 
L 307.958894 195.075918 
L 308.714139 195.075918 
L 308.714139 192.43102 
L 309.469384 192.43102 
L 309.469384 195.075918 
L 310.224628 195.075918 
L 310.224628 185.524898 
L 310.979873 185.524898 
L 310.979873 191.696327 
L 311.735118 191.696327 
L 311.735118 188.610612 
L 312.490363 188.610612 
L 312.490363 188.022857 
L 314.000852 188.022857 
L 314.000852 188.610612 
L 314.756097 188.610612 
L 314.756097 183.614694 
L 315.511342 183.614694 
L 315.511342 179.059592 
L 316.266587 179.059592 
L 316.266587 186.994286 
L 317.021831 186.994286 
L 317.021831 181.116735 
L 317.777076 181.116735 
L 317.777076 190.373878 
L 318.532321 190.373878 
L 318.532321 179.647347 
L 319.287566 179.647347 
L 319.287566 182.733061 
L 320.04281 182.733061 
L 320.04281 184.643265 
L 320.798055 184.643265 
L 320.798055 188.463673 
L 321.5533 188.463673 
L 321.5533 181.998367 
L 322.308545 181.998367 
L 322.308545 185.23102 
L 323.063789 185.23102 
L 323.063789 185.377959 
L 323.819034 185.377959 
L 323.819034 186.847347 
L 324.574279 186.847347 
L 324.574279 184.643265 
L 325.329524 184.643265 
L 325.329524 189.786122 
L 326.084768 189.786122 
L 326.084768 189.933061 
L 326.840013 189.933061 
L 326.840013 181.116735 
L 327.595258 181.116735 
L 327.595258 186.700408 
L 328.350503 186.700408 
L 328.350503 190.373878 
L 329.105747 190.373878 
L 329.105747 187.72898 
L 329.860992 187.72898 
L 329.860992 190.08 
L 330.616237 190.08 
L 330.616237 192.137143 
L 331.371482 192.137143 
L 331.371482 189.492245 
L 332.126726 189.492245 
L 332.126726 181.70449 
L 332.881971 181.70449 
L 332.881971 186.259592 
L 333.637216 186.259592 
L 333.637216 190.08 
L 334.392461 190.08 
L 334.392461 188.610612 
L 335.147705 188.610612 
L 335.147705 188.169796 
L 335.90295 188.169796 
L 335.90295 194.488163 
L 336.658195 194.488163 
L 336.658195 187.582041 
L 337.41344 187.582041 
L 337.41344 188.169796 
L 338.168684 188.169796 
L 338.168684 189.051429 
L 338.923929 189.051429 
L 338.923929 194.047347 
L 339.679174 194.047347 
L 339.679174 188.610612 
L 340.434419 188.610612 
L 340.434419 190.814694 
L 341.189663 190.814694 
L 341.189663 193.312653 
L 341.944908 193.312653 
L 341.944908 188.463673 
L 342.700153 188.463673 
L 342.700153 186.406531 
L 343.455398 186.406531 
L 343.455398 190.373878 
L 344.210642 190.373878 
L 344.210642 194.488163 
L 344.965887 194.488163 
L 344.965887 187.72898 
L 345.721132 187.72898 
L 345.721132 195.810612 
L 346.476377 195.810612 
L 346.476377 191.696327 
L 347.986866 191.696327 
L 347.986866 191.108571 
L 348.742111 191.108571 
L 348.742111 193.165714 
L 349.497356 193.165714 
L 349.497356 201.688163 
L 350.252601 201.688163 
L 350.252601 193.753469 
L 351.007845 193.753469 
L 351.007845 193.312653 
L 351.76309 193.312653 
L 351.76309 197.867755 
L 352.518335 197.867755 
L 352.518335 191.549388 
L 353.27358 191.549388 
L 353.27358 198.45551 
L 354.028824 198.45551 
L 354.028824 198.896327 
L 354.784069 198.896327 
L 354.784069 198.749388 
L 355.539314 198.749388 
L 355.539314 197.867755 
L 356.294559 197.867755 
L 356.294559 196.251429 
L 357.049803 196.251429 
L 357.049803 196.839184 
L 357.805048 196.839184 
L 357.805048 201.100408 
L 358.560293 201.100408 
L 358.560293 199.484082 
L 359.315538 199.484082 
L 359.315538 201.982041 
L 360.070782 201.982041 
L 360.070782 200.512653 
L 360.826027 200.512653 
L 360.826027 199.337143 
L 361.581272 199.337143 
L 361.581272 203.010612 
L 362.336517 203.010612 
L 362.336517 207.565714 
L 363.091761 207.565714 
L 363.091761 204.333061 
L 363.847006 204.333061 
L 363.847006 200.806531 
L 364.602251 200.806531 
L 364.602251 205.949388 
L 365.357496 205.949388 
L 365.357496 205.361633 
L 366.11274 205.361633 
L 366.11274 211.973878 
L 366.867985 211.973878 
L 366.867985 210.945306 
L 367.62323 210.945306 
L 367.62323 208.594286 
L 368.378475 208.594286 
L 368.378475 213.443265 
L 369.133719 213.443265 
L 369.133719 213.296327 
L 369.888964 213.296327 
L 369.888964 212.414694 
L 370.644209 212.414694 
L 370.644209 216.675918 
L 371.399454 216.675918 
L 371.399454 218.586122 
L 372.154698 218.586122 
L 372.154698 217.70449 
L 372.909943 217.70449 
L 372.909943 217.70449 
" clip-path="url(#p53fbe7be20)" style="fill: none; stroke: #d62728; stroke-width: 1.5; stroke-linecap: square"/>
   </g>
   <g id="patch_3">
    <path d="M 53.328125 228.96 
L 53.328125 7.2 
" style="fill: none; stroke: #000000; stroke-width: 0.8; stroke-linejoin: miter; stroke-linecap: square"/>
   </g>
   <g id="patch_4">
    <path d="M 388.128125 228.96 
L 388.128125 7.2 
" style="fill: none; stroke: #000000; stroke-width: 0.8; stroke-linejoin: miter; stroke-linecap: square"/>
   </g>
   <g id="patch_5">
    <path d="M 53.328125 228.96 
L 388.128125 228.96 
" style="fill: none; stroke: #000000; stroke-width: 0.8; stroke-linejoin: miter; stroke-linecap: square"/>
   </g>
   <g id="patch_6">
    <path d="M 53.328125 7.2 
L 388.128125 7.2 
" style="fill: none; stroke: #000000; stroke-width: 0.8; stroke-linejoin: miter; stroke-linecap: square"/>
   </g>
   <g id="legend_1">
    <g id="patch_7">
     <path d="M 306.904688 73.9125 
L 381.128125 73.9125 
Q 383.128125 73.9125 383.128125 71.9125 
L 383.128125 14.2 
Q 383.128125 12.2 381.128125 12.2 
L 306.904688 12.2 
Q 304.904688 12.2 304.904688 14.2 
L 304.904688 71.9125 
Q 304.904688 73.9125 306.904688 73.9125 
z
" style="fill: #ffffff; opacity: 0.8; stroke: #cccccc; stroke-linejoin: miter"/>
    </g>
    <g id="line2d_22">
     <path d="M 308.904688 20.298437 
L 308.904688 20.298437 
L 318.904688 20.298437 
L 318.904688 20.298437 
L 328.904688 20.298437 
" style="fill: none; stroke: #1f77b4; stroke-width: 1.5; stroke-linecap: square"/>
    </g>
    <g id="text_20">
     <!-- beam -->
     <g transform="translate(336.904688 23.798437) scale(0.1 -0.1)">
      <defs>
       <path id="DejaVuSans-62" d="M 3116 1747 
Q 3116 2381 2855 2742 
Q 2594 3103 2138 3103 
Q 1681 3103 1420 2742 
Q 1159 2381 1159 1747 
Q 1159 1113 1420 752 
Q 1681 391 2138 391 
Q 2594 391 2855 752 
Q 3116 1113 3116 1747 
z
M 1159 2969 
Q 1341 3281 1617 3432 
Q 1894 3584 2278 3584 
Q 2916 3584 3314 3078 
Q 3713 2572 3713 1747 
Q 3713 922 3314 415 
Q 2916 -91 2278 -91 
Q 1894 -91 1617 61 
Q 1341 213 1159 525 
L 1159 0 
L 581 0 
L 581 4863 
L 1159 4863 
L 1159 2969 
z
" transform="scale(0.015625)"/>
       <path id="DejaVuSans-65" d="M 3597 1894 
L 3597 1613 
L 953 1613 
Q 991 1019 1311 708 
Q 1631 397 2203 397 
Q 2534 397 2845 478 
Q 3156 559 3463 722 
L 3463 178 
Q 3153 47 2828 -22 
Q 2503 -91 2169 -91 
Q 1331 -91 842 396 
Q 353 884 353 1716 
Q 353 2575 817 3079 
Q 1281 3584 2069 3584 
Q 2775 3584 3186 3129 
Q 3597 2675 3597 1894 
z
M 3022 2063 
Q 3016 2534 2758 2815 
Q 2500 3097 2075 3097 
Q 1594 3097 1305 2825 
Q 1016 2553 972 2059 
L 3022 2063 
z
" transform="scale(0.015625)"/>
       <path id="DejaVuSans-61" d="M 2194 1759 
Q 1497 1759 1228 1600 
Q 959 1441 959 1056 
Q 959 750 1161 570 
Q 1363 391 1709 391 
Q 2188 391 2477 730 
Q 2766 1069 2766 1631 
L 2766 1759 
L 2194 1759 
z
M 3341 1997 
L 3341 0 
L 2766 0 
L 2766 531 
Q 2569 213 2275 61 
Q 1981 -91 1556 -91 
Q 1019 -91 701 211 
Q 384 513 384 1019 
Q 384 1609 779 1909 
Q 1175 2209 1959 2209 
L 2766 2209 
L 2766 2266 
Q 2766 2663 2505 2880 
Q 2244 3097 1772 3097 
Q 1472 3097 1187 3025 
Q 903 2953 641 2809 
L 641 3341 
Q 956 3463 1253 3523 
Q 1550 3584 1831 3584 
Q 2591 3584 2966 3190 
Q 3341 2797 3341 1997 
z
" transform="scale(0.015625)"/>
       <path id="DejaVuSans-6d" d="M 3328 2828 
Q 3544 3216 3844 3400 
Q 4144 3584 4550 3584 
Q 5097 3584 5394 3201 
Q 5691 2819 5691 2113 
L 5691 0 
L 5113 0 
L 5113 2094 
Q 5113 2597 4934 2840 
Q 4756 3084 4391 3084 
Q 3944 3084 3684 2787 
Q 3425 2491 3425 1978 
L 3425 0 
L 2847 0 
L 2847 2094 
Q 2847 2600 2669 2842 
Q 2491 3084 2119 3084 
Q 1678 3084 1418 2786 
Q 1159 2488 1159 1978 
L 1159 0 
L 581 0 
L 581 3500 
L 1159 3500 
L 1159 2956 
Q 1356 3278 1631 3431 
Q 1906 3584 2284 3584 
Q 2666 3584 2933 3390 
Q 3200 3197 3328 2828 
z
" transform="scale(0.015625)"/>
      </defs>
      <use xlink:href="#DejaVuSans-62"/>
      <use xlink:href="#DejaVuSans-65" transform="translate(63.476562 0)"/>
      <use xlink:href="#DejaVuSans-61" transform="translate(125 0)"/>
      <use xlink:href="#DejaVuSans-6d" transform="translate(186.279297 0)"/>
     </g>
    </g>
    <g id="line2d_23">
     <path d="M 308.904688 34.976562 
L 308.904688 34.976562 
L 318.904688 34.976562 
L 318.904688 34.976562 
L 328.904688 34.976562 
" style="fill: none; stroke: #ff7f0e; stroke-width: 1.5; stroke-linecap: square"/>
    </g>
    <g id="text_21">
     <!-- sample -->
     <g transform="translate(336.904688 38.476562) scale(0.1 -0.1)">
      <defs>
       <path id="DejaVuSans-70" d="M 1159 525 
L 1159 -1331 
L 581 -1331 
L 581 3500 
L 1159 3500 
L 1159 2969 
Q 1341 3281 1617 3432 
Q 1894 3584 2278 3584 
Q 2916 3584 3314 3078 
Q 3713 2572 3713 1747 
Q 3713 922 3314 415 
Q 2916 -91 2278 -91 
Q 1894 -91 1617 61 
Q 1341 213 1159 525 
z
M 3116 1747 
Q 3116 2381 2855 2742 
Q 2594 3103 2138 3103 
Q 1681 3103 1420 2742 
Q 1159 2381 1159 1747 
Q 1159 1113 1420 752 
Q 1681 391 2138 391 
Q 2594 391 2855 752 
Q 3116 1113 3116 1747 
z
" transform="scale(0.015625)"/>
       <path id="DejaVuSans-6c" d="M 603 4863 
L 1178 4863 
L 1178 0 
L 603 0 
L 603 4863 
z
" transform="scale(0.015625)"/>
      </defs>
      <use xlink:href="#DejaVuSans-73"/>
      <use xlink:href="#DejaVuSans-61" transform="translate(52.099609 0)"/>
      <use xlink:href="#DejaVuSans-6d" transform="translate(113.378906 0)"/>
      <use xlink:href="#DejaVuSans-70" transform="translate(210.791016 0)"/>
      <use xlink:href="#DejaVuSans-6c" transform="translate(274.267578 0)"/>
      <use xlink:href="#DejaVuSans-65" transform="translate(302.050781 0)"/>
     </g>
    </g>
    <g id="line2d_24">
     <path d="M 308.904688 49.654687 
L 308.904688 49.654687 
L 318.904688 49.654687 
L 318.904688 49.654687 
L 328.904688 49.654687 
" style="fill: none; stroke: #2ca02c; stroke-width: 1.5; stroke-linecap: square"/>
    </g>
    <g id="text_22">
     <!-- monitor -->
     <g transform="translate(336.904688 53.154687) scale(0.1 -0.1)">
      <defs>
       <path id="DejaVuSans-69" d="M 603 3500 
L 1178 3500 
L 1178 0 
L 603 0 
L 603 3500 
z
M 603 4863 
L 1178 4863 
L 1178 4134 
L 603 4134 
L 603 4863 
z
" transform="scale(0.015625)"/>
       <path id="DejaVuSans-72" d="M 2631 2963 
Q 2534 3019 2420 3045 
Q 2306 3072 2169 3072 
Q 1681 3072 1420 2755 
Q 1159 2438 1159 1844 
L 1159 0 
L 581 0 
L 581 3500 
L 1159 3500 
L 1159 2956 
Q 1341 3275 1631 3429 
Q 1922 3584 2338 3584 
Q 2397 3584 2469 3576 
Q 2541 3569 2628 3553 
L 2631 2963 
z
" transform="scale(0.015625)"/>
      </defs>
      <use xlink:href="#DejaVuSans-6d"/>
      <use xlink:href="#DejaVuSans-6f" transform="translate(97.412109 0)"/>
      <use xlink:href="#DejaVuSans-6e" transform="translate(158.59375 0)"/>
      <use xlink:href="#DejaVuSans-69" transform="translate(221.972656 0)"/>
      <use xlink:href="#DejaVuSans-74" transform="translate(249.755859 0)"/>
      <use xlink:href="#DejaVuSans-6f" transform="translate(288.964844 0)"/>
      <use xlink:href="#DejaVuSans-72" transform="translate(350.146484 0)"/>
     </g>
    </g>
    <g id="line2d_25">
     <path d="M 308.904688 64.332812 
L 308.904688 64.332812 
L 318.904688 64.332812 
L 318.904688 64.332812 
L 328.904688 64.332812 
" style="fill: none; stroke: #d62728; stroke-width: 1.5; stroke-linecap: square"/>
    </g>
    <g id="text_23">
     <!-- detector -->
     <g transform="translate(336.904688 67.832812) scale(0.1 -0.1)">
      <defs>
       <path id="DejaVuSans-64" d="M 2906 2969 
L 2906 4863 
L 3481 4863 
L 3481 0 
L 2906 0 
L 2906 525 
Q 2725 213 2448 61 
Q 2172 -91 1784 -91 
Q 1150 -91 751 415 
Q 353 922 353 1747 
Q 353 2572 751 3078 
Q 1150 3584 1784 3584 
Q 2172 3584 2448 3432 
Q 2725 3281 2906 2969 
z
M 947 1747 
Q 947 1113 1208 752 
Q 1469 391 1925 391 
Q 2381 391 2643 752 
Q 2906 1113 2906 1747 
Q 2906 2381 2643 2742 
Q 2381 3103 1925 3103 
Q 1469 3103 1208 2742 
Q 947 2381 947 1747 
z
" transform="scale(0.015625)"/>
      </defs>
      <use xlink:href="#DejaVuSans-64"/>
      <use xlink:href="#DejaVuSans-65" transform="translate(63.476562 0)"/>
      <use xlink:href="#DejaVuSans-74" transform="translate(125 0)"/>
      <use xlink:href="#DejaVuSans-65" transform="translate(164.208984 0)"/>
      <use xlink:href="#DejaVuSans-63" transform="translate(225.732422 0)"/>
      <use xlink:href="#DejaVuSans-74" transform="translate(280.712891 0)"/>
      <use xlink:href="#DejaVuSans-6f" transform="translate(319.921875 0)"/>
      <use xlink:href="#DejaVuSans-72" transform="translate(381.103516 0)"/>
     </g>
    </g>
   </g>
  </g>
 </g>
 <defs>
  <clipPath id="p53fbe7be20">
   <rect x="53.328125" y="7.2" width="334.8" height="221.76"/>
  </clipPath>
 </defs>
</svg>
