<?xml version="1.0" encoding="utf-8" standalone="no"?>
<!DOCTYPE svg PUBLIC "-//W3C//DTD SVG 1.1//EN"
  "http://www.w3.org/Graphics/SVG/1.1/DTD/svg11.dtd">
<svg xmlns:xlink="http://www.w3.org/1999/xlink" width="388.965625pt" height="268.200625pt" viewBox="0 0 388.965625 268.200625" xmlns="http://www.w3.org/2000/svg" version="1.1">
 <metadata>
  <rdf:RDF xmlns:dc="http://purl.org/dc/elements/1.1/" xmlns:cc="http://creativecommons.org/ns#" xmlns:rdf="http://www.w3.org/1999/02/22-rdf-syntax-ns#">
   <cc:Work>
    <dc:type rdf:resource="http://purl.org/dc/dcmitype/StillImage"/>
    <dc:date>2025-04-10T08:50:57.501631</dc:date>
    <dc:format>image/svg+xml</dc:format>
    <dc:creator>
     <cc:Agent>
      <dc:title>Matplotlib v3.10.1, https://matplotlib.org/</dc:title>
     </cc:Agent>
    </dc:creator>
   </cc:Work>
  </rdf:RDF>
 </metadata>
 <defs>
  <style type="text/css">*{stroke-linejoin: round; stroke-linecap: butt}</style>
 </defs>
 <g id="figure_1">
  <g id="patch_1">
   <path d="M 0 268.200625 
L 388.965625 268.200625 
L 388.965625 0 
L 0 0 
z
" style="fill: #ffffff"/>
  </g>
  <g id="axes_1">
   <g id="patch_2">
    <path d="M 46.965625 228.96 
L 381.765625 228.96 
L 381.765625 7.2 
L 46.965625 7.2 
z
" style="fill: #ffffff"/>
   </g>
   <g id="matplotlib.axis_1">
    <g id="xtick_1">
     <g id="line2d_1">
      <defs>
       <path id="mc6d83eb9fd" d="M 0 0 
L 0 3.5 
" style="stroke: #000000; stroke-width: 0.8"/>
      </defs>
      <g>
       <use xlink:href="#mc6d83eb9fd" x="78.202946" y="228.96" style="stroke: #000000; stroke-width: 0.8"/>
      </g>
     </g>
     <g id="text_1">
      <!-- 1.0 -->
      <g transform="translate(70.251383 243.558437) scale(0.1 -0.1)">
       <defs>
        <path id="DejaVuSans-31" d="M 794 531 
L 1825 531 
L 1825 4091 
L 703 3866 
L 703 4441 
L 1819 4666 
L 2450 4666 
L 2450 531 
L 3481 531 
L 3481 0 
L 794 0 
L 794 531 
z
" transform="scale(0.015625)"/>
        <path id="DejaVuSans-2e" d="M 684 794 
L 1344 794 
L 1344 0 
L 684 0 
L 684 794 
z
" transform="scale(0.015625)"/>
        <path id="DejaVuSans-30" d="M 2034 4250 
Q 1547 4250 1301 3770 
Q 1056 3291 1056 2328 
Q 1056 1369 1301 889 
Q 1547 409 2034 409 
Q 2525 409 2770 889 
Q 3016 1369 3016 2328 
Q 3016 3291 2770 3770 
Q 2525 4250 2034 4250 
z
M 2034 4750 
Q 2819 4750 3233 4129 
Q 3647 3509 3647 2328 
Q 3647 1150 3233 529 
Q 2819 -91 2034 -91 
Q 1250 -91 836 529 
Q 422 1150 422 2328 
Q 422 3509 836 4129 
Q 1250 4750 2034 4750 
z
" transform="scale(0.015625)"/>
       </defs>
       <use xlink:href="#DejaVuSans-31"/>
       <use xlink:href="#DejaVuSans-2e" transform="translate(63.623047 0)"/>
       <use xlink:href="#DejaVuSans-30" transform="translate(95.410156 0)"/>
      </g>
     </g>
    </g>
    <g id="xtick_2">
     <g id="line2d_2">
      <g>
       <use xlink:href="#mc6d83eb9fd" x="118.250792" y="228.96" style="stroke: #000000; stroke-width: 0.8"/>
      </g>
     </g>
     <g id="text_2">
      <!-- 1.5 -->
      <g transform="translate(110.29923 243.558437) scale(0.1 -0.1)">
       <defs>
        <path id="DejaVuSans-35" d="M 691 4666 
L 3169 4666 
L 3169 4134 
L 1269 4134 
L 1269 2991 
Q 1406 3038 1543 3061 
Q 1681 3084 1819 3084 
Q 2600 3084 3056 2656 
Q 3513 2228 3513 1497 
Q 3513 744 3044 326 
Q 2575 -91 1722 -91 
Q 1428 -91 1123 -41 
Q 819 9 494 109 
L 494 744 
Q 775 591 1075 516 
Q 1375 441 1709 441 
Q 2250 441 2565 725 
Q 2881 1009 2881 1497 
Q 2881 1984 2565 2268 
Q 2250 2553 1709 2553 
Q 1456 2553 1204 2497 
Q 953 2441 691 2322 
L 691 4666 
z
" transform="scale(0.015625)"/>
       </defs>
       <use xlink:href="#DejaVuSans-31"/>
       <use xlink:href="#DejaVuSans-2e" transform="translate(63.623047 0)"/>
       <use xlink:href="#DejaVuSans-35" transform="translate(95.410156 0)"/>
      </g>
     </g>
    </g>
    <g id="xtick_3">
     <g id="line2d_3">
      <g>
       <use xlink:href="#mc6d83eb9fd" x="158.298639" y="228.96" style="stroke: #000000; stroke-width: 0.8"/>
      </g>
     </g>
     <g id="text_3">
      <!-- 2.0 -->
      <g transform="translate(150.347077 243.558437) scale(0.1 -0.1)">
       <defs>
        <path id="DejaVuSans-32" d="M 1228 531 
L 3431 531 
L 3431 0 
L 469 0 
L 469 531 
Q 828 903 1448 1529 
Q 2069 2156 2228 2338 
Q 2531 2678 2651 2914 
Q 2772 3150 2772 3378 
Q 2772 3750 2511 3984 
Q 2250 4219 1831 4219 
Q 1534 4219 1204 4116 
Q 875 4013 500 3803 
L 500 4441 
Q 881 4594 1212 4672 
Q 1544 4750 1819 4750 
Q 2544 4750 2975 4387 
Q 3406 4025 3406 3419 
Q 3406 3131 3298 2873 
Q 3191 2616 2906 2266 
Q 2828 2175 2409 1742 
Q 1991 1309 1228 531 
z
" transform="scale(0.015625)"/>
       </defs>
       <use xlink:href="#DejaVuSans-32"/>
       <use xlink:href="#DejaVuSans-2e" transform="translate(63.623047 0)"/>
       <use xlink:href="#DejaVuSans-30" transform="translate(95.410156 0)"/>
      </g>
     </g>
    </g>
    <g id="xtick_4">
     <g id="line2d_4">
      <g>
       <use xlink:href="#mc6d83eb9fd" x="198.346486" y="228.96" style="stroke: #000000; stroke-width: 0.8"/>
      </g>
     </g>
     <g id="text_4">
      <!-- 2.5 -->
      <g transform="translate(190.394924 243.558437) scale(0.1 -0.1)">
       <use xlink:href="#DejaVuSans-32"/>
       <use xlink:href="#DejaVuSans-2e" transform="translate(63.623047 0)"/>
       <use xlink:href="#DejaVuSans-35" transform="translate(95.410156 0)"/>
      </g>
     </g>
    </g>
    <g id="xtick_5">
     <g id="line2d_5">
      <g>
       <use xlink:href="#mc6d83eb9fd" x="238.394333" y="228.96" style="stroke: #000000; stroke-width: 0.8"/>
      </g>
     </g>
     <g id="text_5">
      <!-- 3.0 -->
      <g transform="translate(230.442771 243.558437) scale(0.1 -0.1)">
       <defs>
        <path id="DejaVuSans-33" d="M 2597 2516 
Q 3050 2419 3304 2112 
Q 3559 1806 3559 1356 
Q 3559 666 3084 287 
Q 2609 -91 1734 -91 
Q 1441 -91 1130 -33 
Q 819 25 488 141 
L 488 750 
Q 750 597 1062 519 
Q 1375 441 1716 441 
Q 2309 441 2620 675 
Q 2931 909 2931 1356 
Q 2931 1769 2642 2001 
Q 2353 2234 1838 2234 
L 1294 2234 
L 1294 2753 
L 1863 2753 
Q 2328 2753 2575 2939 
Q 2822 3125 2822 3475 
Q 2822 3834 2567 4026 
Q 2313 4219 1838 4219 
Q 1578 4219 1281 4162 
Q 984 4106 628 3988 
L 628 4550 
Q 988 4650 1302 4700 
Q 1616 4750 1894 4750 
Q 2613 4750 3031 4423 
Q 3450 4097 3450 3541 
Q 3450 3153 3228 2886 
Q 3006 2619 2597 2516 
z
" transform="scale(0.015625)"/>
       </defs>
       <use xlink:href="#DejaVuSans-33"/>
       <use xlink:href="#DejaVuSans-2e" transform="translate(63.623047 0)"/>
       <use xlink:href="#DejaVuSans-30" transform="translate(95.410156 0)"/>
      </g>
     </g>
    </g>
    <g id="xtick_6">
     <g id="line2d_6">
      <g>
       <use xlink:href="#mc6d83eb9fd" x="278.44218" y="228.96" style="stroke: #000000; stroke-width: 0.8"/>
      </g>
     </g>
     <g id="text_6">
      <!-- 3.5 -->
      <g transform="translate(270.490618 243.558437) scale(0.1 -0.1)">
       <use xlink:href="#DejaVuSans-33"/>
       <use xlink:href="#DejaVuSans-2e" transform="translate(63.623047 0)"/>
       <use xlink:href="#DejaVuSans-35" transform="translate(95.410156 0)"/>
      </g>
     </g>
    </g>
    <g id="xtick_7">
     <g id="line2d_7">
      <g>
       <use xlink:href="#mc6d83eb9fd" x="318.490027" y="228.96" style="stroke: #000000; stroke-width: 0.8"/>
      </g>
     </g>
     <g id="text_7">
      <!-- 4.0 -->
      <g transform="translate(310.538464 243.558437) scale(0.1 -0.1)">
       <defs>
        <path id="DejaVuSans-34" d="M 2419 4116 
L 825 1625 
L 2419 1625 
L 2419 4116 
z
M 2253 4666 
L 3047 4666 
L 3047 1625 
L 3713 1625 
L 3713 1100 
L 3047 1100 
L 3047 0 
L 2419 0 
L 2419 1100 
L 313 1100 
L 313 1709 
L 2253 4666 
z
" transform="scale(0.015625)"/>
       </defs>
       <use xlink:href="#DejaVuSans-34"/>
       <use xlink:href="#DejaVuSans-2e" transform="translate(63.623047 0)"/>
       <use xlink:href="#DejaVuSans-30" transform="translate(95.410156 0)"/>
      </g>
     </g>
    </g>
    <g id="xtick_8">
     <g id="line2d_8">
      <g>
       <use xlink:href="#mc6d83eb9fd" x="358.537874" y="228.96" style="stroke: #000000; stroke-width: 0.8"/>
      </g>
     </g>
     <g id="text_8">
      <!-- 4.5 -->
      <g transform="translate(350.586311 243.558437) scale(0.1 -0.1)">
       <use xlink:href="#DejaVuSans-34"/>
       <use xlink:href="#DejaVuSans-2e" transform="translate(63.623047 0)"/>
       <use xlink:href="#DejaVuSans-35" transform="translate(95.410156 0)"/>
      </g>
     </g>
    </g>
    <g id="text_9">
     <!-- wavelength [Å] -->
     <g transform="translate(176.328125 258.920937) scale(0.1 -0.1)">
      <defs>
       <path id="DejaVuSans-77" d="M 269 3500 
L 844 3500 
L 1563 769 
L 2278 3500 
L 2956 3500 
L 3675 769 
L 4391 3500 
L 4966 3500 
L 4050 0 
L 3372 0 
L 2619 2869 
L 1863 0 
L 1184 0 
L 269 3500 
z
" transform="scale(0.015625)"/>
       <path id="DejaVuSans-61" d="M 2194 1759 
Q 1497 1759 1228 1600 
Q 959 1441 959 1056 
Q 959 750 1161 570 
Q 1363 391 1709 391 
Q 2188 391 2477 730 
Q 2766 1069 2766 1631 
L 2766 1759 
L 2194 1759 
z
M 3341 1997 
L 3341 0 
L 2766 0 
L 2766 531 
Q 2569 213 2275 61 
Q 1981 -91 1556 -91 
Q 1019 -91 701 211 
Q 384 513 384 1019 
Q 384 1609 779 1909 
Q 1175 2209 1959 2209 
L 2766 2209 
L 2766 2266 
Q 2766 2663 2505 2880 
Q 2244 3097 1772 3097 
Q 1472 3097 1187 3025 
Q 903 2953 641 2809 
L 641 3341 
Q 956 3463 1253 3523 
Q 1550 3584 1831 3584 
Q 2591 3584 2966 3190 
Q 3341 2797 3341 1997 
z
" transform="scale(0.015625)"/>
       <path id="DejaVuSans-76" d="M 191 3500 
L 800 3500 
L 1894 563 
L 2988 3500 
L 3597 3500 
L 2284 0 
L 1503 0 
L 191 3500 
z
" transform="scale(0.015625)"/>
       <path id="DejaVuSans-65" d="M 3597 1894 
L 3597 1613 
L 953 1613 
Q 991 1019 1311 708 
Q 1631 397 2203 397 
Q 2534 397 2845 478 
Q 3156 559 3463 722 
L 3463 178 
Q 3153 47 2828 -22 
Q 2503 -91 2169 -91 
Q 1331 -91 842 396 
Q 353 884 353 1716 
Q 353 2575 817 3079 
Q 1281 3584 2069 3584 
Q 2775 3584 3186 3129 
Q 3597 2675 3597 1894 
z
M 3022 2063 
Q 3016 2534 2758 2815 
Q 2500 3097 2075 3097 
Q 1594 3097 1305 2825 
Q 1016 2553 972 2059 
L 3022 2063 
z
" transform="scale(0.015625)"/>
       <path id="DejaVuSans-6c" d="M 603 4863 
L 1178 4863 
L 1178 0 
L 603 0 
L 603 4863 
z
" transform="scale(0.015625)"/>
       <path id="DejaVuSans-6e" d="M 3513 2113 
L 3513 0 
L 2938 0 
L 2938 2094 
Q 2938 2591 2744 2837 
Q 2550 3084 2163 3084 
Q 1697 3084 1428 2787 
Q 1159 2491 1159 1978 
L 1159 0 
L 581 0 
L 581 3500 
L 1159 3500 
L 1159 2956 
Q 1366 3272 1645 3428 
Q 1925 3584 2291 3584 
Q 2894 3584 3203 3211 
Q 3513 2838 3513 2113 
z
" transform="scale(0.015625)"/>
       <path id="DejaVuSans-67" d="M 2906 1791 
Q 2906 2416 2648 2759 
Q 2391 3103 1925 3103 
Q 1463 3103 1205 2759 
Q 947 2416 947 1791 
Q 947 1169 1205 825 
Q 1463 481 1925 481 
Q 2391 481 2648 825 
Q 2906 1169 2906 1791 
z
M 3481 434 
Q 3481 -459 3084 -895 
Q 2688 -1331 1869 -1331 
Q 1566 -1331 1297 -1286 
Q 1028 -1241 775 -1147 
L 775 -588 
Q 1028 -725 1275 -790 
Q 1522 -856 1778 -856 
Q 2344 -856 2625 -561 
Q 2906 -266 2906 331 
L 2906 616 
Q 2728 306 2450 153 
Q 2172 0 1784 0 
Q 1141 0 747 490 
Q 353 981 353 1791 
Q 353 2603 747 3093 
Q 1141 3584 1784 3584 
Q 2172 3584 2450 3431 
Q 2728 3278 2906 2969 
L 2906 3500 
L 3481 3500 
L 3481 434 
z
" transform="scale(0.015625)"/>
       <path id="DejaVuSans-74" d="M 1172 4494 
L 1172 3500 
L 2356 3500 
L 2356 3053 
L 1172 3053 
L 1172 1153 
Q 1172 725 1289 603 
Q 1406 481 1766 481 
L 2356 481 
L 2356 0 
L 1766 0 
Q 1100 0 847 248 
Q 594 497 594 1153 
L 594 3053 
L 172 3053 
L 172 3500 
L 594 3500 
L 594 4494 
L 1172 4494 
z
" transform="scale(0.015625)"/>
       <path id="DejaVuSans-68" d="M 3513 2113 
L 3513 0 
L 2938 0 
L 2938 2094 
Q 2938 2591 2744 2837 
Q 2550 3084 2163 3084 
Q 1697 3084 1428 2787 
Q 1159 2491 1159 1978 
L 1159 0 
L 581 0 
L 581 4863 
L 1159 4863 
L 1159 2956 
Q 1366 3272 1645 3428 
Q 1925 3584 2291 3584 
Q 2894 3584 3203 3211 
Q 3513 2838 3513 2113 
z
" transform="scale(0.015625)"/>
       <path id="DejaVuSans-20" transform="scale(0.015625)"/>
       <path id="DejaVuSans-5b" d="M 550 4863 
L 1875 4863 
L 1875 4416 
L 1125 4416 
L 1125 -397 
L 1875 -397 
L 1875 -844 
L 550 -844 
L 550 4863 
z
" transform="scale(0.015625)"/>
       <path id="DejaVuSans-c5" d="M 2663 5081 
Q 2663 5278 2523 5417 
Q 2384 5556 2188 5556 
Q 1988 5556 1852 5420 
Q 1716 5284 1716 5081 
Q 1716 4884 1853 4746 
Q 1991 4609 2188 4609 
Q 2384 4609 2523 4746 
Q 2663 4884 2663 5081 
z
M 2188 4044 
L 1338 1722 
L 3041 1722 
L 2188 4044 
z
M 1716 4366 
Q 1525 4494 1428 4673 
Q 1331 4853 1331 5081 
Q 1331 5441 1579 5691 
Q 1828 5941 2188 5941 
Q 2544 5941 2795 5689 
Q 3047 5438 3047 5081 
Q 3047 4863 2948 4678 
Q 2850 4494 2663 4366 
L 4325 0 
L 3669 0 
L 3244 1197 
L 1141 1197 
L 716 0 
L 50 0 
L 1716 4366 
z
" transform="scale(0.015625)"/>
       <path id="DejaVuSans-5d" d="M 1947 4863 
L 1947 -844 
L 622 -844 
L 622 -397 
L 1369 -397 
L 1369 4416 
L 622 4416 
L 622 4863 
L 1947 4863 
z
" transform="scale(0.015625)"/>
      </defs>
      <use xlink:href="#DejaVuSans-77"/>
      <use xlink:href="#DejaVuSans-61" transform="translate(81.787109 0)"/>
      <use xlink:href="#DejaVuSans-76" transform="translate(143.066406 0)"/>
      <use xlink:href="#DejaVuSans-65" transform="translate(202.246094 0)"/>
      <use xlink:href="#DejaVuSans-6c" transform="translate(263.769531 0)"/>
      <use xlink:href="#DejaVuSans-65" transform="translate(291.552734 0)"/>
      <use xlink:href="#DejaVuSans-6e" transform="translate(353.076172 0)"/>
      <use xlink:href="#DejaVuSans-67" transform="translate(416.455078 0)"/>
      <use xlink:href="#DejaVuSans-74" transform="translate(479.931641 0)"/>
      <use xlink:href="#DejaVuSans-68" transform="translate(519.140625 0)"/>
      <use xlink:href="#DejaVuSans-20" transform="translate(582.519531 0)"/>
      <use xlink:href="#DejaVuSans-5b" transform="translate(614.306641 0)"/>
      <use xlink:href="#DejaVuSans-c5" transform="translate(653.320312 0)"/>
      <use xlink:href="#DejaVuSans-5d" transform="translate(721.728516 0)"/>
     </g>
    </g>
   </g>
   <g id="matplotlib.axis_2">
    <g id="ytick_1">
     <g id="line2d_9">
      <defs>
       <path id="me7346e883d" d="M 0 0 
L -3.5 0 
" style="stroke: #000000; stroke-width: 0.8"/>
      </defs>
      <g>
       <use xlink:href="#me7346e883d" x="46.965625" y="218.88" style="stroke: #000000; stroke-width: 0.8"/>
      </g>
     </g>
     <g id="text_10">
      <!-- 0 -->
      <g transform="translate(33.603125 222.679219) scale(0.1 -0.1)">
       <use xlink:href="#DejaVuSans-30"/>
      </g>
     </g>
    </g>
    <g id="ytick_2">
     <g id="line2d_10">
      <g>
       <use xlink:href="#me7346e883d" x="46.965625" y="193.263736" style="stroke: #000000; stroke-width: 0.8"/>
      </g>
     </g>
     <g id="text_11">
      <!-- 100 -->
      <g transform="translate(20.878125 197.062954) scale(0.1 -0.1)">
       <use xlink:href="#DejaVuSans-31"/>
       <use xlink:href="#DejaVuSans-30" transform="translate(63.623047 0)"/>
       <use xlink:href="#DejaVuSans-30" transform="translate(127.246094 0)"/>
      </g>
     </g>
    </g>
    <g id="ytick_3">
     <g id="line2d_11">
      <g>
       <use xlink:href="#me7346e883d" x="46.965625" y="167.647471" style="stroke: #000000; stroke-width: 0.8"/>
      </g>
     </g>
     <g id="text_12">
      <!-- 200 -->
      <g transform="translate(20.878125 171.44669) scale(0.1 -0.1)">
       <use xlink:href="#DejaVuSans-32"/>
       <use xlink:href="#DejaVuSans-30" transform="translate(63.623047 0)"/>
       <use xlink:href="#DejaVuSans-30" transform="translate(127.246094 0)"/>
      </g>
     </g>
    </g>
    <g id="ytick_4">
     <g id="line2d_12">
      <g>
       <use xlink:href="#me7346e883d" x="46.965625" y="142.031207" style="stroke: #000000; stroke-width: 0.8"/>
      </g>
     </g>
     <g id="text_13">
      <!-- 300 -->
      <g transform="translate(20.878125 145.830426) scale(0.1 -0.1)">
       <use xlink:href="#DejaVuSans-33"/>
       <use xlink:href="#DejaVuSans-30" transform="translate(63.623047 0)"/>
       <use xlink:href="#DejaVuSans-30" transform="translate(127.246094 0)"/>
      </g>
     </g>
    </g>
    <g id="ytick_5">
     <g id="line2d_13">
      <g>
       <use xlink:href="#me7346e883d" x="46.965625" y="116.414943" style="stroke: #000000; stroke-width: 0.8"/>
      </g>
     </g>
     <g id="text_14">
      <!-- 400 -->
      <g transform="translate(20.878125 120.214162) scale(0.1 -0.1)">
       <use xlink:href="#DejaVuSans-34"/>
       <use xlink:href="#DejaVuSans-30" transform="translate(63.623047 0)"/>
       <use xlink:href="#DejaVuSans-30" transform="translate(127.246094 0)"/>
      </g>
     </g>
    </g>
    <g id="ytick_6">
     <g id="line2d_14">
      <g>
       <use xlink:href="#me7346e883d" x="46.965625" y="90.798679" style="stroke: #000000; stroke-width: 0.8"/>
      </g>
     </g>
     <g id="text_15">
      <!-- 500 -->
      <g transform="translate(20.878125 94.597897) scale(0.1 -0.1)">
       <use xlink:href="#DejaVuSans-35"/>
       <use xlink:href="#DejaVuSans-30" transform="translate(63.623047 0)"/>
       <use xlink:href="#DejaVuSans-30" transform="translate(127.246094 0)"/>
      </g>
     </g>
    </g>
    <g id="ytick_7">
     <g id="line2d_15">
      <g>
       <use xlink:href="#me7346e883d" x="46.965625" y="65.182414" style="stroke: #000000; stroke-width: 0.8"/>
      </g>
     </g>
     <g id="text_16">
      <!-- 600 -->
      <g transform="translate(20.878125 68.981633) scale(0.1 -0.1)">
       <defs>
        <path id="DejaVuSans-36" d="M 2113 2584 
Q 1688 2584 1439 2293 
Q 1191 2003 1191 1497 
Q 1191 994 1439 701 
Q 1688 409 2113 409 
Q 2538 409 2786 701 
Q 3034 994 3034 1497 
Q 3034 2003 2786 2293 
Q 2538 2584 2113 2584 
z
M 3366 4563 
L 3366 3988 
Q 3128 4100 2886 4159 
Q 2644 4219 2406 4219 
Q 1781 4219 1451 3797 
Q 1122 3375 1075 2522 
Q 1259 2794 1537 2939 
Q 1816 3084 2150 3084 
Q 2853 3084 3261 2657 
Q 3669 2231 3669 1497 
Q 3669 778 3244 343 
Q 2819 -91 2113 -91 
Q 1303 -91 875 529 
Q 447 1150 447 2328 
Q 447 3434 972 4092 
Q 1497 4750 2381 4750 
Q 2619 4750 2861 4703 
Q 3103 4656 3366 4563 
z
" transform="scale(0.015625)"/>
       </defs>
       <use xlink:href="#DejaVuSans-36"/>
       <use xlink:href="#DejaVuSans-30" transform="translate(63.623047 0)"/>
       <use xlink:href="#DejaVuSans-30" transform="translate(127.246094 0)"/>
      </g>
     </g>
    </g>
    <g id="ytick_8">
     <g id="line2d_16">
      <g>
       <use xlink:href="#me7346e883d" x="46.965625" y="39.56615" style="stroke: #000000; stroke-width: 0.8"/>
      </g>
     </g>
     <g id="text_17">
      <!-- 700 -->
      <g transform="translate(20.878125 43.365369) scale(0.1 -0.1)">
       <defs>
        <path id="DejaVuSans-37" d="M 525 4666 
L 3525 4666 
L 3525 4397 
L 1831 0 
L 1172 0 
L 2766 4134 
L 525 4134 
L 525 4666 
z
" transform="scale(0.015625)"/>
       </defs>
       <use xlink:href="#DejaVuSans-37"/>
       <use xlink:href="#DejaVuSans-30" transform="translate(63.623047 0)"/>
       <use xlink:href="#DejaVuSans-30" transform="translate(127.246094 0)"/>
      </g>
     </g>
    </g>
    <g id="ytick_9">
     <g id="line2d_17">
      <g>
       <use xlink:href="#me7346e883d" x="46.965625" y="13.949886" style="stroke: #000000; stroke-width: 0.8"/>
      </g>
     </g>
     <g id="text_18">
      <!-- 800 -->
      <g transform="translate(20.878125 17.749104) scale(0.1 -0.1)">
       <defs>
        <path id="DejaVuSans-38" d="M 2034 2216 
Q 1584 2216 1326 1975 
Q 1069 1734 1069 1313 
Q 1069 891 1326 650 
Q 1584 409 2034 409 
Q 2484 409 2743 651 
Q 3003 894 3003 1313 
Q 3003 1734 2745 1975 
Q 2488 2216 2034 2216 
z
M 1403 2484 
Q 997 2584 770 2862 
Q 544 3141 544 3541 
Q 544 4100 942 4425 
Q 1341 4750 2034 4750 
Q 2731 4750 3128 4425 
Q 3525 4100 3525 3541 
Q 3525 3141 3298 2862 
Q 3072 2584 2669 2484 
Q 3125 2378 3379 2068 
Q 3634 1759 3634 1313 
Q 3634 634 3220 271 
Q 2806 -91 2034 -91 
Q 1263 -91 848 271 
Q 434 634 434 1313 
Q 434 1759 690 2068 
Q 947 2378 1403 2484 
z
M 1172 3481 
Q 1172 3119 1398 2916 
Q 1625 2713 2034 2713 
Q 2441 2713 2670 2916 
Q 2900 3119 2900 3481 
Q 2900 3844 2670 4047 
Q 2441 4250 2034 4250 
Q 1625 4250 1398 4047 
Q 1172 3844 1172 3481 
z
" transform="scale(0.015625)"/>
       </defs>
       <use xlink:href="#DejaVuSans-38"/>
       <use xlink:href="#DejaVuSans-30" transform="translate(63.623047 0)"/>
       <use xlink:href="#DejaVuSans-30" transform="translate(127.246094 0)"/>
      </g>
     </g>
    </g>
    <g id="text_19">
     <!-- [counts] -->
     <g transform="translate(14.798438 138.6925) rotate(-90) scale(0.1 -0.1)">
      <defs>
       <path id="DejaVuSans-63" d="M 3122 3366 
L 3122 2828 
Q 2878 2963 2633 3030 
Q 2388 3097 2138 3097 
Q 1578 3097 1268 2742 
Q 959 2388 959 1747 
Q 959 1106 1268 751 
Q 1578 397 2138 397 
Q 2388 397 2633 464 
Q 2878 531 3122 666 
L 3122 134 
Q 2881 22 2623 -34 
Q 2366 -91 2075 -91 
Q 1284 -91 818 406 
Q 353 903 353 1747 
Q 353 2603 823 3093 
Q 1294 3584 2113 3584 
Q 2378 3584 2631 3529 
Q 2884 3475 3122 3366 
z
" transform="scale(0.015625)"/>
       <path id="DejaVuSans-6f" d="M 1959 3097 
Q 1497 3097 1228 2736 
Q 959 2375 959 1747 
Q 959 1119 1226 758 
Q 1494 397 1959 397 
Q 2419 397 2687 759 
Q 2956 1122 2956 1747 
Q 2956 2369 2687 2733 
Q 2419 3097 1959 3097 
z
M 1959 3584 
Q 2709 3584 3137 3096 
Q 3566 2609 3566 1747 
Q 3566 888 3137 398 
Q 2709 -91 1959 -91 
Q 1206 -91 779 398 
Q 353 888 353 1747 
Q 353 2609 779 3096 
Q 1206 3584 1959 3584 
z
" transform="scale(0.015625)"/>
       <path id="DejaVuSans-75" d="M 544 1381 
L 544 3500 
L 1119 3500 
L 1119 1403 
Q 1119 906 1312 657 
Q 1506 409 1894 409 
Q 2359 409 2629 706 
Q 2900 1003 2900 1516 
L 2900 3500 
L 3475 3500 
L 3475 0 
L 2900 0 
L 2900 538 
Q 2691 219 2414 64 
Q 2138 -91 1772 -91 
Q 1169 -91 856 284 
Q 544 659 544 1381 
z
M 1991 3584 
L 1991 3584 
z
" transform="scale(0.015625)"/>
       <path id="DejaVuSans-73" d="M 2834 3397 
L 2834 2853 
Q 2591 2978 2328 3040 
Q 2066 3103 1784 3103 
Q 1356 3103 1142 2972 
Q 928 2841 928 2578 
Q 928 2378 1081 2264 
Q 1234 2150 1697 2047 
L 1894 2003 
Q 2506 1872 2764 1633 
Q 3022 1394 3022 966 
Q 3022 478 2636 193 
Q 2250 -91 1575 -91 
Q 1294 -91 989 -36 
Q 684 19 347 128 
L 347 722 
Q 666 556 975 473 
Q 1284 391 1588 391 
Q 1994 391 2212 530 
Q 2431 669 2431 922 
Q 2431 1156 2273 1281 
Q 2116 1406 1581 1522 
L 1381 1569 
Q 847 1681 609 1914 
Q 372 2147 372 2553 
Q 372 3047 722 3315 
Q 1072 3584 1716 3584 
Q 2034 3584 2315 3537 
Q 2597 3491 2834 3397 
z
" transform="scale(0.015625)"/>
      </defs>
      <use xlink:href="#DejaVuSans-5b"/>
      <use xlink:href="#DejaVuSans-63" transform="translate(39.013672 0)"/>
      <use xlink:href="#DejaVuSans-6f" transform="translate(93.994141 0)"/>
      <use xlink:href="#DejaVuSans-75" transform="translate(155.175781 0)"/>
      <use xlink:href="#DejaVuSans-6e" transform="translate(218.554688 0)"/>
      <use xlink:href="#DejaVuSans-74" transform="translate(281.933594 0)"/>
      <use xlink:href="#DejaVuSans-73" transform="translate(321.142578 0)"/>
      <use xlink:href="#DejaVuSans-5d" transform="translate(373.242188 0)"/>
     </g>
    </g>
   </g>
   <g id="patch_3">
    <path d="M 46.965625 228.96 
L 46.965625 7.2 
" style="fill: none; stroke: #000000; stroke-width: 0.8; stroke-linejoin: miter; stroke-linecap: square"/>
   </g>
   <g id="patch_4">
    <path d="M 381.765625 228.96 
L 381.765625 7.2 
" style="fill: none; stroke: #000000; stroke-width: 0.8; stroke-linejoin: miter; stroke-linecap: square"/>
   </g>
   <g id="patch_5">
    <path d="M 46.965625 228.96 
L 381.765625 228.96 
" style="fill: none; stroke: #000000; stroke-width: 0.8; stroke-linejoin: miter; stroke-linecap: square"/>
   </g>
   <g id="patch_6">
    <path d="M 46.965625 7.2 
L 381.765625 7.2 
" style="fill: none; stroke: #000000; stroke-width: 0.8; stroke-linejoin: miter; stroke-linecap: square"/>
   </g>
   <g id="legend_1">
    <g id="patch_7">
     <path d="M 277.7625 44.834375 
L 374.765625 44.834375 
Q 376.765625 44.834375 376.765625 42.834375 
L 376.765625 14.2 
Q 376.765625 12.2 374.765625 12.2 
L 277.7625 12.2 
Q 275.7625 12.2 275.7625 14.2 
L 275.7625 42.834375 
Q 275.7625 44.834375 277.7625 44.834375 
z
" style="fill: #ffffff; opacity: 0.8; stroke: #cccccc; stroke-linejoin: miter"/>
    </g>
    <g id="line2d_18">
     <path d="M 279.7625 20.298437 
L 279.7625 20.298437 
L 289.7625 20.298437 
L 289.7625 20.298437 
L 299.7625 20.298437 
" style="fill: none; stroke: #1f77b4; stroke-width: 1.5; stroke-linecap: square"/>
    </g>
    <g id="text_20">
     <!-- wfm -->
     <g transform="translate(307.7625 23.798437) scale(0.1 -0.1)">
      <defs>
       <path id="DejaVuSans-66" d="M 2375 4863 
L 2375 4384 
L 1825 4384 
Q 1516 4384 1395 4259 
Q 1275 4134 1275 3809 
L 1275 3500 
L 2222 3500 
L 2222 3053 
L 1275 3053 
L 1275 0 
L 697 0 
L 697 3053 
L 147 3053 
L 147 3500 
L 697 3500 
L 697 3744 
Q 697 4328 969 4595 
Q 1241 4863 1831 4863 
L 2375 4863 
z
" transform="scale(0.015625)"/>
       <path id="DejaVuSans-6d" d="M 3328 2828 
Q 3544 3216 3844 3400 
Q 4144 3584 4550 3584 
Q 5097 3584 5394 3201 
Q 5691 2819 5691 2113 
L 5691 0 
L 5113 0 
L 5113 2094 
Q 5113 2597 4934 2840 
Q 4756 3084 4391 3084 
Q 3944 3084 3684 2787 
Q 3425 2491 3425 1978 
L 3425 0 
L 2847 0 
L 2847 2094 
Q 2847 2600 2669 2842 
Q 2491 3084 2119 3084 
Q 1678 3084 1418 2786 
Q 1159 2488 1159 1978 
L 1159 0 
L 581 0 
L 581 3500 
L 1159 3500 
L 1159 2956 
Q 1356 3278 1631 3431 
Q 1906 3584 2284 3584 
Q 2666 3584 2933 3390 
Q 3200 3197 3328 2828 
z
" transform="scale(0.015625)"/>
      </defs>
      <use xlink:href="#DejaVuSans-77"/>
      <use xlink:href="#DejaVuSans-66" transform="translate(81.787109 0)"/>
      <use xlink:href="#DejaVuSans-6d" transform="translate(116.992188 0)"/>
     </g>
    </g>
    <g id="line2d_19">
     <path d="M 279.7625 34.976562 
L 279.7625 34.976562 
L 289.7625 34.976562 
L 289.7625 34.976562 
L 299.7625 34.976562 
" style="fill: none; stroke: #ff7f0e; stroke-width: 1.5; stroke-linecap: square"/>
    </g>
    <g id="text_21">
     <!-- ground_truth -->
     <g transform="translate(307.7625 38.476562) scale(0.1 -0.1)">
      <defs>
       <path id="DejaVuSans-72" d="M 2631 2963 
Q 2534 3019 2420 3045 
Q 2306 3072 2169 3072 
Q 1681 3072 1420 2755 
Q 1159 2438 1159 1844 
L 1159 0 
L 581 0 
L 581 3500 
L 1159 3500 
L 1159 2956 
Q 1341 3275 1631 3429 
Q 1922 3584 2338 3584 
Q 2397 3584 2469 3576 
Q 2541 3569 2628 3553 
L 2631 2963 
z
" transform="scale(0.015625)"/>
       <path id="DejaVuSans-64" d="M 2906 2969 
L 2906 4863 
L 3481 4863 
L 3481 0 
L 2906 0 
L 2906 525 
Q 2725 213 2448 61 
Q 2172 -91 1784 -91 
Q 1150 -91 751 415 
Q 353 922 353 1747 
Q 353 2572 751 3078 
Q 1150 3584 1784 3584 
Q 2172 3584 2448 3432 
Q 2725 3281 2906 2969 
z
M 947 1747 
Q 947 1113 1208 752 
Q 1469 391 1925 391 
Q 2381 391 2643 752 
Q 2906 1113 2906 1747 
Q 2906 2381 2643 2742 
Q 2381 3103 1925 3103 
Q 1469 3103 1208 2742 
Q 947 2381 947 1747 
z
" transform="scale(0.015625)"/>
       <path id="DejaVuSans-5f" d="M 3263 -1063 
L 3263 -1509 
L -63 -1509 
L -63 -1063 
L 3263 -1063 
z
" transform="scale(0.015625)"/>
      </defs>
      <use xlink:href="#DejaVuSans-67"/>
      <use xlink:href="#DejaVuSans-72" transform="translate(63.476562 0)"/>
      <use xlink:href="#DejaVuSans-6f" transform="translate(102.339844 0)"/>
      <use xlink:href="#DejaVuSans-75" transform="translate(163.521484 0)"/>
      <use xlink:href="#DejaVuSans-6e" transform="translate(226.900391 0)"/>
      <use xlink:href="#DejaVuSans-64" transform="translate(290.279297 0)"/>
      <use xlink:href="#DejaVuSans-5f" transform="translate(353.755859 0)"/>
      <use xlink:href="#DejaVuSans-74" transform="translate(403.755859 0)"/>
      <use xlink:href="#DejaVuSans-72" transform="translate(442.964844 0)"/>
      <use xlink:href="#DejaVuSans-75" transform="translate(484.078125 0)"/>
      <use xlink:href="#DejaVuSans-74" transform="translate(547.457031 0)"/>
      <use xlink:href="#DejaVuSans-68" transform="translate(586.666016 0)"/>
     </g>
    </g>
   </g>
   <g id="line2d_20">
    <path d="M 62.183807 218.88 
L 69.792898 218.88 
L 69.792898 216.574536 
L 71.314716 216.574536 
L 71.314716 210.426633 
L 72.836534 210.426633 
L 72.836534 203.254079 
L 74.358352 203.254079 
L 74.358352 188.908971 
L 75.88017 188.908971 
L 75.88017 189.933621 
L 77.401989 189.933621 
L 77.401989 187.88432 
L 78.923807 187.88432 
L 78.923807 170.977586 
L 80.445625 170.977586 
L 80.445625 163.805032 
L 81.967443 163.805032 
L 81.967443 157.144803 
L 83.489261 157.144803 
L 83.489261 141.006557 
L 85.01108 141.006557 
L 85.01108 139.469581 
L 86.532898 139.469581 
L 86.532898 134.090165 
L 88.054716 134.090165 
L 88.054716 118.976569 
L 89.576534 118.976569 
L 89.576534 107.44925 
L 91.098352 107.44925 
L 91.098352 102.069835 
L 92.62017 102.069835 
L 92.62017 88.749377 
L 94.141989 88.749377 
L 94.141989 100.532859 
L 95.663807 100.532859 
L 95.663807 93.616468 
L 97.185625 93.616468 
L 97.185625 86.700076 
L 98.707443 86.700076 
L 98.707443 75.941245 
L 100.229261 75.941245 
L 100.229261 75.172757 
L 101.75108 75.172757 
L 101.75108 68.000203 
L 103.272898 68.000203 
L 103.272898 60.059161 
L 104.794716 60.059161 
L 104.794716 63.389276 
L 106.316534 63.389276 
L 106.316534 44.945565 
L 107.838352 44.945565 
L 107.838352 32.905921 
L 109.36017 32.905921 
L 109.36017 43.664752 
L 110.881989 43.664752 
L 110.881989 50.581144 
L 112.403807 50.581144 
L 112.403807 37.516849 
L 113.925625 37.516849 
L 113.925625 25.477205 
L 116.969261 25.477205 
L 116.969261 22.403253 
L 118.49108 22.403253 
L 118.49108 19.585464 
L 120.012898 19.585464 
L 120.012898 22.403253 
L 121.534716 22.403253 
L 121.534716 41.103126 
L 123.056534 41.103126 
L 123.056534 25.733367 
L 124.578352 25.733367 
L 124.578352 29.575807 
L 126.10017 29.575807 
L 126.10017 26.245693 
L 127.621989 26.245693 
L 127.621989 43.40859 
L 129.143807 43.40859 
L 129.143807 31.625108 
L 130.665625 31.625108 
L 130.665625 41.359288 
L 132.187443 41.359288 
L 132.187443 46.738704 
L 133.709261 46.738704 
L 133.709261 49.044168 
L 135.23108 49.044168 
L 135.23108 40.590801 
L 136.752898 40.590801 
L 136.752898 60.059161 
L 138.274716 60.059161 
L 138.274716 43.920915 
L 139.796534 43.920915 
L 139.796534 43.664752 
L 141.318352 43.664752 
L 141.318352 60.315324 
L 142.84017 60.315324 
L 142.84017 47.251029 
L 144.361989 47.251029 
L 144.361989 64.413926 
L 145.883807 64.413926 
L 145.883807 69.024854 
L 147.405625 69.024854 
L 147.405625 52.374282 
L 148.927443 52.374282 
L 148.927443 49.30033 
L 150.449261 49.30033 
L 150.449261 61.339975 
L 151.97108 61.339975 
L 151.97108 55.704396 
L 153.492898 55.704396 
L 153.492898 68.256366 
L 155.014716 68.256366 
L 155.014716 57.241372 
L 156.536534 57.241372 
L 156.536534 52.630445 
L 158.058352 52.630445 
L 158.058352 73.123456 
L 159.58017 73.123456 
L 159.58017 68.256366 
L 161.101989 68.256366 
L 161.101989 66.71939 
L 162.623807 66.71939 
L 162.623807 68.768691 
L 164.145625 68.768691 
L 164.145625 74.660432 
L 165.667443 74.660432 
L 165.667443 70.817992 
L 167.189261 70.817992 
L 167.189261 75.172757 
L 168.71108 75.172757 
L 168.71108 56.216722 
L 170.232898 56.216722 
L 170.232898 65.182414 
L 171.754716 65.182414 
L 171.754716 77.990546 
L 173.276534 77.990546 
L 173.276534 85.675426 
L 174.798352 85.675426 
L 174.798352 68.256366 
L 176.32017 68.256366 
L 176.32017 70.817992 
L 177.841989 70.817992 
L 177.841989 81.320661 
L 180.885625 81.320661 
L 180.885625 81.576823 
L 182.407443 81.576823 
L 182.407443 89.774028 
L 183.929261 89.774028 
L 183.929261 109.498551 
L 185.45108 109.498551 
L 185.45108 96.690419 
L 186.972898 96.690419 
L 186.972898 110.779365 
L 188.494716 110.779365 
L 188.494716 116.927268 
L 190.016534 116.927268 
L 190.016534 134.60249 
L 191.538352 134.60249 
L 191.538352 138.957255 
L 193.06017 138.957255 
L 193.06017 150.9969 
L 194.581989 150.9969 
L 194.581989 149.972249 
L 196.103807 149.972249 
L 196.103807 167.647471 
L 197.625625 167.647471 
L 197.625625 169.696773 
L 199.147443 169.696773 
L 199.147443 179.943278 
L 200.669261 179.943278 
L 200.669261 186.85967 
L 202.19108 186.85967 
L 202.19108 188.396645 
L 203.712898 188.396645 
L 203.712898 199.923964 
L 205.234716 199.923964 
L 205.234716 202.741753 
L 206.756534 202.741753 
L 206.756534 209.658145 
L 208.278352 209.658145 
L 208.278352 211.707446 
L 209.80017 211.707446 
L 209.80017 215.293723 
L 211.321989 215.293723 
L 211.321989 218.111512 
L 212.843807 218.111512 
L 212.843807 212.732097 
L 214.365625 212.732097 
L 214.365625 203.254079 
L 215.887443 203.254079 
L 215.887443 196.59385 
L 217.409261 196.59385 
L 217.409261 193.263736 
L 218.93108 193.263736 
L 218.93108 181.224091 
L 220.452898 181.224091 
L 220.452898 175.332351 
L 221.974716 175.332351 
L 221.974716 175.844676 
L 223.496534 175.844676 
L 223.496534 163.805032 
L 225.018352 163.805032 
L 225.018352 166.366658 
L 226.54017 166.366658 
L 226.54017 160.218755 
L 228.061989 160.218755 
L 228.061989 154.327014 
L 229.583807 154.327014 
L 229.583807 154.839339 
L 231.105625 154.839339 
L 231.105625 146.642135 
L 232.627443 146.642135 
L 232.627443 135.627141 
L 234.149261 135.627141 
L 234.149261 140.750394 
L 235.67108 140.750394 
L 235.67108 123.331334 
L 237.192898 123.331334 
L 237.192898 126.917611 
L 238.714716 126.917611 
L 238.714716 124.612147 
L 240.236534 124.612147 
L 240.236534 132.809352 
L 241.758352 132.809352 
L 241.758352 115.646455 
L 243.28017 115.646455 
L 243.28017 110.010877 
L 244.801989 110.010877 
L 244.801989 118.720407 
L 246.323807 118.720407 
L 246.323807 103.350648 
L 247.845625 103.350648 
L 247.845625 94.641118 
L 249.367443 94.641118 
L 249.367443 89.00554 
L 250.889261 89.00554 
L 250.889261 94.897281 
L 252.41108 94.897281 
L 252.41108 93.360305 
L 253.932898 93.360305 
L 253.932898 87.468564 
L 255.454716 87.468564 
L 255.454716 90.798679 
L 256.976534 90.798679 
L 256.976534 93.87263 
L 258.498352 93.87263 
L 258.498352 86.187751 
L 260.02017 86.187751 
L 260.02017 81.064498 
L 261.541989 81.064498 
L 261.541989 91.823329 
L 263.063807 91.823329 
L 263.063807 91.054841 
L 264.585625 91.054841 
L 264.585625 94.897281 
L 266.107443 94.897281 
L 266.107443 102.838323 
L 267.629261 102.838323 
L 267.629261 88.493215 
L 269.15108 88.493215 
L 269.15108 96.690419 
L 270.672898 96.690419 
L 270.672898 108.730064 
L 272.194716 108.730064 
L 272.194716 97.458907 
L 273.716534 97.458907 
L 273.716534 95.665769 
L 276.76017 95.665769 
L 276.76017 103.862973 
L 278.281989 103.862973 
L 278.281989 109.498551 
L 279.803807 109.498551 
L 279.803807 97.458907 
L 281.325625 97.458907 
L 281.325625 101.813672 
L 282.847443 101.813672 
L 282.847443 114.877967 
L 284.369261 114.877967 
L 284.369261 114.109479 
L 285.89108 114.109479 
L 285.89108 110.523202 
L 287.412898 110.523202 
L 287.412898 122.050521 
L 288.934716 122.050521 
L 288.934716 113.340991 
L 290.456534 113.340991 
L 290.456534 122.050521 
L 291.978352 122.050521 
L 291.978352 132.040864 
L 293.50017 132.040864 
L 293.50017 130.503888 
L 295.021989 130.503888 
L 295.021989 124.355985 
L 296.543807 124.355985 
L 296.543807 121.282033 
L 298.065625 121.282033 
L 298.065625 121.794358 
L 299.587443 121.794358 
L 299.587443 134.60249 
L 301.109261 134.60249 
L 301.109261 134.346328 
L 302.63108 134.346328 
L 302.63108 134.858653 
L 304.152898 134.858653 
L 304.152898 143.824346 
L 305.674716 143.824346 
L 305.674716 138.188767 
L 307.196534 138.188767 
L 307.196534 140.494231 
L 308.718352 140.494231 
L 308.718352 143.055858 
L 310.24017 143.055858 
L 310.24017 138.957255 
L 311.761989 138.957255 
L 311.761989 149.459924 
L 313.283807 149.459924 
L 313.283807 144.848996 
L 314.805625 144.848996 
L 314.805625 150.228412 
L 316.327443 150.228412 
L 316.327443 154.327014 
L 317.849261 154.327014 
L 317.849261 162.011893 
L 319.37108 162.011893 
L 319.37108 163.548869 
L 320.892898 163.548869 
L 320.892898 159.962592 
L 322.414716 159.962592 
L 322.414716 167.391309 
L 323.936534 167.391309 
L 323.936534 162.268056 
L 325.458352 162.268056 
L 325.458352 169.44061 
L 326.98017 169.44061 
L 326.98017 178.15014 
L 328.501989 178.15014 
L 328.501989 173.539212 
L 330.023807 173.539212 
L 330.023807 181.224091 
L 331.545625 181.224091 
L 331.545625 184.041881 
L 333.067443 184.041881 
L 333.067443 184.810368 
L 334.589261 184.810368 
L 334.589261 185.835019 
L 336.11108 185.835019 
L 336.11108 199.667802 
L 337.632898 199.667802 
L 337.632898 195.569199 
L 339.154716 195.569199 
L 339.154716 199.667802 
L 340.676534 199.667802 
L 340.676534 200.43629 
L 342.198352 200.43629 
L 342.198352 207.096518 
L 343.72017 207.096518 
L 343.72017 203.766404 
L 345.241989 203.766404 
L 345.241989 209.914307 
L 346.763807 209.914307 
L 346.763807 210.17047 
L 348.285625 210.17047 
L 348.285625 211.963609 
L 349.807443 211.963609 
L 349.807443 214.269072 
L 352.85108 214.269072 
L 352.85108 214.781398 
L 354.372898 214.781398 
L 354.372898 217.086861 
L 355.894716 217.086861 
L 355.894716 218.111512 
L 357.416534 218.111512 
L 357.416534 218.367675 
L 358.938352 218.367675 
L 358.938352 218.623837 
L 360.46017 218.623837 
L 360.46017 218.88 
L 366.547443 218.88 
L 366.547443 218.88 
" clip-path="url(#p5aa5e7e5dd)" style="fill: none; stroke: #1f77b4; stroke-width: 1.5; stroke-linecap: square"/>
   </g>
   <g id="line2d_21">
    <path d="M 62.183807 218.88 
L 69.792898 218.88 
L 69.792898 215.806048 
L 71.314716 215.806048 
L 71.314716 210.682795 
L 72.836534 210.682795 
L 72.836534 202.997916 
L 74.358352 202.997916 
L 74.358352 189.677459 
L 75.88017 189.677459 
L 75.88017 190.445947 
L 77.401989 190.445947 
L 77.401989 188.396645 
L 78.923807 188.396645 
L 78.923807 169.44061 
L 80.445625 169.44061 
L 80.445625 164.061194 
L 81.967443 164.061194 
L 81.967443 156.88864 
L 83.489261 156.88864 
L 83.489261 141.006557 
L 85.01108 141.006557 
L 85.01108 142.543532 
L 86.532898 142.543532 
L 86.532898 127.173774 
L 88.054716 127.173774 
L 88.054716 120.257382 
L 89.576534 120.257382 
L 89.576534 113.340991 
L 91.098352 113.340991 
L 91.098352 94.128793 
L 92.62017 94.128793 
L 92.62017 92.84798 
L 94.141989 92.84798 
L 94.141989 104.631461 
L 95.663807 104.631461 
L 95.663807 91.311004 
L 97.185625 91.311004 
L 97.185625 88.237052 
L 98.707443 88.237052 
L 98.707443 75.42892 
L 100.229261 75.42892 
L 100.229261 67.744041 
L 101.75108 67.744041 
L 101.75108 72.867294 
L 103.272898 72.867294 
L 103.272898 59.546836 
L 104.794716 59.546836 
L 104.794716 56.729047 
L 106.316534 56.729047 
L 106.316534 50.324981 
L 107.838352 50.324981 
L 107.838352 38.029174 
L 109.36017 38.029174 
L 109.36017 44.945565 
L 110.881989 44.945565 
L 110.881989 47.251029 
L 112.403807 47.251029 
L 112.403807 28.294994 
L 113.925625 28.294994 
L 113.925625 33.674409 
L 115.447443 33.674409 
L 115.447443 23.684066 
L 116.969261 23.684066 
L 116.969261 23.427903 
L 118.49108 23.427903 
L 118.49108 29.575807 
L 120.012898 29.575807 
L 120.012898 17.28 
L 121.534716 17.28 
L 121.534716 35.467548 
L 123.056534 35.467548 
L 123.056534 31.368945 
L 124.578352 31.368945 
L 124.578352 28.807319 
L 126.10017 28.807319 
L 126.10017 29.063482 
L 127.621989 29.063482 
L 127.621989 43.664752 
L 129.143807 43.664752 
L 129.143807 29.575807 
L 130.665625 29.575807 
L 130.665625 42.896264 
L 132.187443 42.896264 
L 132.187443 37.773011 
L 133.709261 37.773011 
L 133.709261 48.531842 
L 135.23108 48.531842 
L 135.23108 50.068818 
L 136.752898 50.068818 
L 136.752898 52.630445 
L 138.274716 52.630445 
L 138.274716 52.118119 
L 139.796534 52.118119 
L 139.796534 43.40859 
L 141.318352 43.40859 
L 141.318352 47.763355 
L 142.84017 47.763355 
L 142.84017 56.472884 
L 144.361989 56.472884 
L 144.361989 62.87695 
L 145.883807 62.87695 
L 145.883807 62.108463 
L 147.405625 62.108463 
L 147.405625 57.497535 
L 148.927443 57.497535 
L 148.927443 58.778348 
L 150.449261 58.778348 
L 150.449261 53.911258 
L 151.97108 53.911258 
L 151.97108 59.034511 
L 153.492898 59.034511 
L 153.492898 57.497535 
L 155.014716 57.497535 
L 155.014716 55.960559 
L 156.536534 55.960559 
L 156.536534 65.438577 
L 158.058352 65.438577 
L 158.058352 65.69474 
L 159.58017 65.69474 
L 159.58017 73.635781 
L 161.101989 73.635781 
L 161.101989 73.379619 
L 162.623807 73.379619 
L 162.623807 71.58648 
L 164.145625 71.58648 
L 164.145625 58.266023 
L 165.667443 58.266023 
L 165.667443 74.404269 
L 167.189261 74.404269 
L 167.189261 69.793342 
L 168.71108 69.793342 
L 168.71108 69.024854 
L 170.232898 69.024854 
L 170.232898 62.364625 
L 171.754716 62.364625 
L 171.754716 73.891944 
L 173.276534 73.891944 
L 173.276534 76.965896 
L 174.798352 76.965896 
L 174.798352 74.148107 
L 176.32017 74.148107 
L 176.32017 72.354968 
L 177.841989 72.354968 
L 177.841989 82.857637 
L 179.363807 82.857637 
L 179.363807 82.089149 
L 180.885625 82.089149 
L 180.885625 88.493215 
L 182.407443 88.493215 
L 182.407443 87.212402 
L 183.929261 87.212402 
L 183.929261 104.119136 
L 185.45108 104.119136 
L 185.45108 102.325997 
L 186.972898 102.325997 
L 186.972898 106.936925 
L 188.494716 106.936925 
L 188.494716 115.13413 
L 190.016534 115.13413 
L 190.016534 137.42028 
L 191.538352 137.42028 
L 191.538352 132.297027 
L 193.06017 132.297027 
L 193.06017 154.070851 
L 194.581989 154.070851 
L 194.581989 155.095502 
L 196.103807 155.095502 
L 196.103807 162.780381 
L 197.625625 162.780381 
L 197.625625 171.746074 
L 199.147443 171.746074 
L 199.147443 176.100839 
L 200.669261 176.100839 
L 200.669261 186.091182 
L 202.19108 186.091182 
L 202.19108 191.214435 
L 203.712898 191.214435 
L 203.712898 199.411639 
L 205.234716 199.411639 
L 205.234716 204.278729 
L 206.756534 204.278729 
L 206.756534 208.633494 
L 208.278352 208.633494 
L 208.278352 211.451283 
L 209.80017 211.451283 
L 209.80017 215.293723 
L 211.321989 215.293723 
L 211.321989 217.599187 
L 212.843807 217.599187 
L 212.843807 212.475934 
L 214.365625 212.475934 
L 214.365625 203.254079 
L 215.887443 203.254079 
L 215.887443 197.106175 
L 217.409261 197.106175 
L 217.409261 192.75141 
L 218.93108 192.75141 
L 218.93108 181.992579 
L 220.452898 181.992579 
L 220.452898 176.100839 
L 221.974716 176.100839 
L 221.974716 174.563863 
L 223.496534 174.563863 
L 223.496534 162.524219 
L 225.018352 162.524219 
L 225.018352 166.366658 
L 226.54017 166.366658 
L 226.54017 162.524219 
L 228.061989 162.524219 
L 228.061989 154.070851 
L 229.583807 154.070851 
L 229.583807 152.790038 
L 231.105625 152.790038 
L 231.105625 146.642135 
L 232.627443 146.642135 
L 232.627443 137.42028 
L 234.149261 137.42028 
L 234.149261 136.139466 
L 235.67108 136.139466 
L 235.67108 124.099822 
L 237.192898 124.099822 
L 237.192898 129.991563 
L 238.714716 129.991563 
L 238.714716 128.71075 
L 240.236534 128.71075 
L 240.236534 125.124473 
L 241.758352 125.124473 
L 241.758352 114.877967 
L 243.28017 114.877967 
L 243.28017 114.109479 
L 244.801989 114.109479 
L 244.801989 118.720407 
L 246.323807 118.720407 
L 246.323807 99.252046 
L 247.845625 99.252046 
L 247.845625 97.971233 
L 249.367443 97.971233 
L 249.367443 86.956239 
L 250.889261 86.956239 
L 250.889261 97.971233 
L 252.41108 97.971233 
L 252.41108 87.468564 
L 253.932898 87.468564 
L 253.932898 96.434257 
L 255.454716 96.434257 
L 255.454716 81.576823 
L 256.976534 81.576823 
L 256.976534 98.483558 
L 258.498352 98.483558 
L 258.498352 90.286353 
L 260.02017 90.286353 
L 260.02017 80.29601 
L 261.541989 80.29601 
L 261.541989 89.774028 
L 263.063807 89.774028 
L 263.063807 96.434257 
L 264.585625 96.434257 
L 264.585625 86.443914 
L 266.107443 86.443914 
L 266.107443 99.252046 
L 267.629261 99.252046 
L 267.629261 97.971233 
L 269.15108 97.971233 
L 269.15108 96.690419 
L 270.672898 96.690419 
L 270.672898 108.730064 
L 272.194716 108.730064 
L 272.194716 97.971233 
L 273.716534 97.971233 
L 273.716534 89.00554 
L 275.238352 89.00554 
L 275.238352 101.55751 
L 276.76017 101.55751 
L 276.76017 103.606811 
L 278.281989 103.606811 
L 278.281989 102.58216 
L 279.803807 102.58216 
L 279.803807 97.971233 
L 281.325625 97.971233 
L 281.325625 110.267039 
L 282.847443 110.267039 
L 282.847443 109.498551 
L 284.369261 109.498551 
L 284.369261 107.961576 
L 285.89108 107.961576 
L 285.89108 116.927268 
L 287.412898 116.927268 
L 287.412898 118.720407 
L 288.934716 118.720407 
L 288.934716 121.02587 
L 290.456534 121.02587 
L 290.456534 120.00122 
L 291.978352 120.00122 
L 291.978352 133.321677 
L 293.50017 133.321677 
L 293.50017 126.149123 
L 295.021989 126.149123 
L 295.021989 127.173774 
L 296.543807 127.173774 
L 296.543807 123.587497 
L 298.065625 123.587497 
L 298.065625 119.745057 
L 299.587443 119.745057 
L 299.587443 135.114816 
L 301.109261 135.114816 
L 301.109261 134.346328 
L 302.63108 134.346328 
L 302.63108 135.370978 
L 304.152898 135.370978 
L 304.152898 139.981906 
L 305.674716 139.981906 
L 305.674716 141.775044 
L 307.196534 141.775044 
L 307.196534 137.932605 
L 308.718352 137.932605 
L 308.718352 149.716086 
L 310.24017 149.716086 
L 310.24017 138.44493 
L 311.761989 138.44493 
L 311.761989 143.568183 
L 313.283807 143.568183 
L 313.283807 148.435273 
L 314.805625 148.435273 
L 314.805625 150.228412 
L 316.327443 150.228412 
L 316.327443 154.839339 
L 317.849261 154.839339 
L 317.849261 157.913291 
L 319.37108 157.913291 
L 319.37108 160.474917 
L 320.892898 160.474917 
L 320.892898 165.854333 
L 322.414716 165.854333 
L 322.414716 167.647471 
L 323.936534 167.647471 
L 323.936534 160.987243 
L 325.458352 160.987243 
L 325.458352 169.44061 
L 326.98017 169.44061 
L 326.98017 172.002236 
L 328.501989 172.002236 
L 328.501989 181.992579 
L 330.023807 181.992579 
L 330.023807 181.224091 
L 331.545625 181.224091 
L 331.545625 179.17479 
L 333.067443 179.17479 
L 333.067443 183.01723 
L 334.589261 183.01723 
L 334.589261 192.495248 
L 336.11108 192.495248 
L 336.11108 196.081525 
L 337.632898 196.081525 
L 337.632898 195.825362 
L 339.154716 195.825362 
L 339.154716 200.180127 
L 340.676534 200.180127 
L 340.676534 200.43629 
L 342.198352 200.43629 
L 342.198352 206.32803 
L 343.72017 206.32803 
L 343.72017 205.30338 
L 345.241989 205.30338 
L 345.241989 208.889657 
L 346.763807 208.889657 
L 346.763807 209.658145 
L 348.285625 209.658145 
L 348.285625 212.219771 
L 349.807443 212.219771 
L 349.807443 214.525235 
L 352.85108 214.525235 
L 352.85108 214.269072 
L 354.372898 214.269072 
L 354.372898 217.086861 
L 355.894716 217.086861 
L 355.894716 218.111512 
L 357.416534 218.111512 
L 357.416534 218.367675 
L 358.938352 218.367675 
L 358.938352 218.623837 
L 360.46017 218.623837 
L 360.46017 218.88 
L 366.547443 218.88 
L 366.547443 218.88 
" clip-path="url(#p5aa5e7e5dd)" style="fill: none; stroke: #ff7f0e; stroke-width: 1.5; stroke-linecap: square"/>
   </g>
  </g>
 </g>
 <defs>
  <clipPath id="p5aa5e7e5dd">
   <rect x="46.965625" y="7.2" width="334.8" height="221.76"/>
  </clipPath>
 </defs>
</svg>
