<?xml version="1.0" encoding="utf-8" standalone="no"?>
<!DOCTYPE svg PUBLIC "-//W3C//DTD SVG 1.1//EN"
  "http://www.w3.org/Graphics/SVG/1.1/DTD/svg11.dtd">
<svg xmlns:xlink="http://www.w3.org/1999/xlink" width="656.390956pt" height="440.39952pt" viewBox="0 0 656.390956 440.39952" xmlns="http://www.w3.org/2000/svg" version="1.1">
 <metadata>
  <rdf:RDF xmlns:dc="http://purl.org/dc/elements/1.1/" xmlns:cc="http://creativecommons.org/ns#" xmlns:rdf="http://www.w3.org/1999/02/22-rdf-syntax-ns#">
   <cc:Work>
    <dc:type rdf:resource="http://purl.org/dc/dcmitype/StillImage"/>
    <dc:date>2025-02-17T17:53:10.926110</dc:date>
    <dc:format>image/svg+xml</dc:format>
    <dc:creator>
     <cc:Agent>
      <dc:title>Matplotlib v3.10.0, https://matplotlib.org/</dc:title>
     </cc:Agent>
    </dc:creator>
   </cc:Work>
  </rdf:RDF>
 </metadata>
 <defs>
  <style type="text/css">*{stroke-linejoin: round; stroke-linecap: butt}</style>
 </defs>
 <g id="figure_1">
  <g id="patch_1">
   <path d="M 0 440.39952 
L 656.390956 440.39952 
L 656.390956 0 
L 0 0 
z
" style="fill: #ffffff"/>
  </g>
  <g id="axes_1">
   <g id="patch_2">
    <path d="M 46.965625 186.565145 
L 319.692144 186.565145 
L 319.692144 22.318125 
L 46.965625 22.318125 
z
" style="fill: #ffffff"/>
   </g>
   <g id="matplotlib.axis_1">
    <g id="xtick_1">
     <g id="line2d_1">
      <defs>
       <path id="mc3f09b9550" d="M 0 0 
L 0 3.5 
" style="stroke: #000000; stroke-width: 0.8"/>
      </defs>
      <g>
       <use xlink:href="#mc3f09b9550" x="91.623691" y="186.565145" style="stroke: #000000; stroke-width: 0.8"/>
      </g>
     </g>
     <g id="text_1">
      <!-- 36000 -->
      <g transform="translate(75.717441 201.163582) scale(0.1 -0.1)">
       <defs>
        <path id="DejaVuSans-33" d="M 2597 2516 
Q 3050 2419 3304 2112 
Q 3559 1806 3559 1356 
Q 3559 666 3084 287 
Q 2609 -91 1734 -91 
Q 1441 -91 1130 -33 
Q 819 25 488 141 
L 488 750 
Q 750 597 1062 519 
Q 1375 441 1716 441 
Q 2309 441 2620 675 
Q 2931 909 2931 1356 
Q 2931 1769 2642 2001 
Q 2353 2234 1838 2234 
L 1294 2234 
L 1294 2753 
L 1863 2753 
Q 2328 2753 2575 2939 
Q 2822 3125 2822 3475 
Q 2822 3834 2567 4026 
Q 2313 4219 1838 4219 
Q 1578 4219 1281 4162 
Q 984 4106 628 3988 
L 628 4550 
Q 988 4650 1302 4700 
Q 1616 4750 1894 4750 
Q 2613 4750 3031 4423 
Q 3450 4097 3450 3541 
Q 3450 3153 3228 2886 
Q 3006 2619 2597 2516 
z
" transform="scale(0.015625)"/>
        <path id="DejaVuSans-36" d="M 2113 2584 
Q 1688 2584 1439 2293 
Q 1191 2003 1191 1497 
Q 1191 994 1439 701 
Q 1688 409 2113 409 
Q 2538 409 2786 701 
Q 3034 994 3034 1497 
Q 3034 2003 2786 2293 
Q 2538 2584 2113 2584 
z
M 3366 4563 
L 3366 3988 
Q 3128 4100 2886 4159 
Q 2644 4219 2406 4219 
Q 1781 4219 1451 3797 
Q 1122 3375 1075 2522 
Q 1259 2794 1537 2939 
Q 1816 3084 2150 3084 
Q 2853 3084 3261 2657 
Q 3669 2231 3669 1497 
Q 3669 778 3244 343 
Q 2819 -91 2113 -91 
Q 1303 -91 875 529 
Q 447 1150 447 2328 
Q 447 3434 972 4092 
Q 1497 4750 2381 4750 
Q 2619 4750 2861 4703 
Q 3103 4656 3366 4563 
z
" transform="scale(0.015625)"/>
        <path id="DejaVuSans-30" d="M 2034 4250 
Q 1547 4250 1301 3770 
Q 1056 3291 1056 2328 
Q 1056 1369 1301 889 
Q 1547 409 2034 409 
Q 2525 409 2770 889 
Q 3016 1369 3016 2328 
Q 3016 3291 2770 3770 
Q 2525 4250 2034 4250 
z
M 2034 4750 
Q 2819 4750 3233 4129 
Q 3647 3509 3647 2328 
Q 3647 1150 3233 529 
Q 2819 -91 2034 -91 
Q 1250 -91 836 529 
Q 422 1150 422 2328 
Q 422 3509 836 4129 
Q 1250 4750 2034 4750 
z
" transform="scale(0.015625)"/>
       </defs>
       <use xlink:href="#DejaVuSans-33"/>
       <use xlink:href="#DejaVuSans-36" transform="translate(63.623047 0)"/>
       <use xlink:href="#DejaVuSans-30" transform="translate(127.246094 0)"/>
       <use xlink:href="#DejaVuSans-30" transform="translate(190.869141 0)"/>
       <use xlink:href="#DejaVuSans-30" transform="translate(254.492188 0)"/>
      </g>
     </g>
    </g>
    <g id="xtick_2">
     <g id="line2d_2">
      <g>
       <use xlink:href="#mc3f09b9550" x="149.260585" y="186.565145" style="stroke: #000000; stroke-width: 0.8"/>
      </g>
     </g>
     <g id="text_2">
      <!-- 38000 -->
      <g transform="translate(133.354335 201.163582) scale(0.1 -0.1)">
       <defs>
        <path id="DejaVuSans-38" d="M 2034 2216 
Q 1584 2216 1326 1975 
Q 1069 1734 1069 1313 
Q 1069 891 1326 650 
Q 1584 409 2034 409 
Q 2484 409 2743 651 
Q 3003 894 3003 1313 
Q 3003 1734 2745 1975 
Q 2488 2216 2034 2216 
z
M 1403 2484 
Q 997 2584 770 2862 
Q 544 3141 544 3541 
Q 544 4100 942 4425 
Q 1341 4750 2034 4750 
Q 2731 4750 3128 4425 
Q 3525 4100 3525 3541 
Q 3525 3141 3298 2862 
Q 3072 2584 2669 2484 
Q 3125 2378 3379 2068 
Q 3634 1759 3634 1313 
Q 3634 634 3220 271 
Q 2806 -91 2034 -91 
Q 1263 -91 848 271 
Q 434 634 434 1313 
Q 434 1759 690 2068 
Q 947 2378 1403 2484 
z
M 1172 3481 
Q 1172 3119 1398 2916 
Q 1625 2713 2034 2713 
Q 2441 2713 2670 2916 
Q 2900 3119 2900 3481 
Q 2900 3844 2670 4047 
Q 2441 4250 2034 4250 
Q 1625 4250 1398 4047 
Q 1172 3844 1172 3481 
z
" transform="scale(0.015625)"/>
       </defs>
       <use xlink:href="#DejaVuSans-33"/>
       <use xlink:href="#DejaVuSans-38" transform="translate(63.623047 0)"/>
       <use xlink:href="#DejaVuSans-30" transform="translate(127.246094 0)"/>
       <use xlink:href="#DejaVuSans-30" transform="translate(190.869141 0)"/>
       <use xlink:href="#DejaVuSans-30" transform="translate(254.492188 0)"/>
      </g>
     </g>
    </g>
    <g id="xtick_3">
     <g id="line2d_3">
      <g>
       <use xlink:href="#mc3f09b9550" x="206.897479" y="186.565145" style="stroke: #000000; stroke-width: 0.8"/>
      </g>
     </g>
     <g id="text_3">
      <!-- 40000 -->
      <g transform="translate(190.991229 201.163582) scale(0.1 -0.1)">
       <defs>
        <path id="DejaVuSans-34" d="M 2419 4116 
L 825 1625 
L 2419 1625 
L 2419 4116 
z
M 2253 4666 
L 3047 4666 
L 3047 1625 
L 3713 1625 
L 3713 1100 
L 3047 1100 
L 3047 0 
L 2419 0 
L 2419 1100 
L 313 1100 
L 313 1709 
L 2253 4666 
z
" transform="scale(0.015625)"/>
       </defs>
       <use xlink:href="#DejaVuSans-34"/>
       <use xlink:href="#DejaVuSans-30" transform="translate(63.623047 0)"/>
       <use xlink:href="#DejaVuSans-30" transform="translate(127.246094 0)"/>
       <use xlink:href="#DejaVuSans-30" transform="translate(190.869141 0)"/>
       <use xlink:href="#DejaVuSans-30" transform="translate(254.492188 0)"/>
      </g>
     </g>
    </g>
    <g id="xtick_4">
     <g id="line2d_4">
      <g>
       <use xlink:href="#mc3f09b9550" x="264.534372" y="186.565145" style="stroke: #000000; stroke-width: 0.8"/>
      </g>
     </g>
     <g id="text_4">
      <!-- 42000 -->
      <g transform="translate(248.628122 201.163582) scale(0.1 -0.1)">
       <defs>
        <path id="DejaVuSans-32" d="M 1228 531 
L 3431 531 
L 3431 0 
L 469 0 
L 469 531 
Q 828 903 1448 1529 
Q 2069 2156 2228 2338 
Q 2531 2678 2651 2914 
Q 2772 3150 2772 3378 
Q 2772 3750 2511 3984 
Q 2250 4219 1831 4219 
Q 1534 4219 1204 4116 
Q 875 4013 500 3803 
L 500 4441 
Q 881 4594 1212 4672 
Q 1544 4750 1819 4750 
Q 2544 4750 2975 4387 
Q 3406 4025 3406 3419 
Q 3406 3131 3298 2873 
Q 3191 2616 2906 2266 
Q 2828 2175 2409 1742 
Q 1991 1309 1228 531 
z
" transform="scale(0.015625)"/>
       </defs>
       <use xlink:href="#DejaVuSans-34"/>
       <use xlink:href="#DejaVuSans-32" transform="translate(63.623047 0)"/>
       <use xlink:href="#DejaVuSans-30" transform="translate(127.246094 0)"/>
       <use xlink:href="#DejaVuSans-30" transform="translate(190.869141 0)"/>
       <use xlink:href="#DejaVuSans-30" transform="translate(254.492188 0)"/>
      </g>
     </g>
    </g>
    <g id="text_5">
     <!-- event_time_offset [µs] -->
     <g transform="translate(127.293728 214.841707) scale(0.1 -0.1)">
      <defs>
       <path id="DejaVuSans-65" d="M 3597 1894 
L 3597 1613 
L 953 1613 
Q 991 1019 1311 708 
Q 1631 397 2203 397 
Q 2534 397 2845 478 
Q 3156 559 3463 722 
L 3463 178 
Q 3153 47 2828 -22 
Q 2503 -91 2169 -91 
Q 1331 -91 842 396 
Q 353 884 353 1716 
Q 353 2575 817 3079 
Q 1281 3584 2069 3584 
Q 2775 3584 3186 3129 
Q 3597 2675 3597 1894 
z
M 3022 2063 
Q 3016 2534 2758 2815 
Q 2500 3097 2075 3097 
Q 1594 3097 1305 2825 
Q 1016 2553 972 2059 
L 3022 2063 
z
" transform="scale(0.015625)"/>
       <path id="DejaVuSans-76" d="M 191 3500 
L 800 3500 
L 1894 563 
L 2988 3500 
L 3597 3500 
L 2284 0 
L 1503 0 
L 191 3500 
z
" transform="scale(0.015625)"/>
       <path id="DejaVuSans-6e" d="M 3513 2113 
L 3513 0 
L 2938 0 
L 2938 2094 
Q 2938 2591 2744 2837 
Q 2550 3084 2163 3084 
Q 1697 3084 1428 2787 
Q 1159 2491 1159 1978 
L 1159 0 
L 581 0 
L 581 3500 
L 1159 3500 
L 1159 2956 
Q 1366 3272 1645 3428 
Q 1925 3584 2291 3584 
Q 2894 3584 3203 3211 
Q 3513 2838 3513 2113 
z
" transform="scale(0.015625)"/>
       <path id="DejaVuSans-74" d="M 1172 4494 
L 1172 3500 
L 2356 3500 
L 2356 3053 
L 1172 3053 
L 1172 1153 
Q 1172 725 1289 603 
Q 1406 481 1766 481 
L 2356 481 
L 2356 0 
L 1766 0 
Q 1100 0 847 248 
Q 594 497 594 1153 
L 594 3053 
L 172 3053 
L 172 3500 
L 594 3500 
L 594 4494 
L 1172 4494 
z
" transform="scale(0.015625)"/>
       <path id="DejaVuSans-5f" d="M 3263 -1063 
L 3263 -1509 
L -63 -1509 
L -63 -1063 
L 3263 -1063 
z
" transform="scale(0.015625)"/>
       <path id="DejaVuSans-69" d="M 603 3500 
L 1178 3500 
L 1178 0 
L 603 0 
L 603 3500 
z
M 603 4863 
L 1178 4863 
L 1178 4134 
L 603 4134 
L 603 4863 
z
" transform="scale(0.015625)"/>
       <path id="DejaVuSans-6d" d="M 3328 2828 
Q 3544 3216 3844 3400 
Q 4144 3584 4550 3584 
Q 5097 3584 5394 3201 
Q 5691 2819 5691 2113 
L 5691 0 
L 5113 0 
L 5113 2094 
Q 5113 2597 4934 2840 
Q 4756 3084 4391 3084 
Q 3944 3084 3684 2787 
Q 3425 2491 3425 1978 
L 3425 0 
L 2847 0 
L 2847 2094 
Q 2847 2600 2669 2842 
Q 2491 3084 2119 3084 
Q 1678 3084 1418 2786 
Q 1159 2488 1159 1978 
L 1159 0 
L 581 0 
L 581 3500 
L 1159 3500 
L 1159 2956 
Q 1356 3278 1631 3431 
Q 1906 3584 2284 3584 
Q 2666 3584 2933 3390 
Q 3200 3197 3328 2828 
z
" transform="scale(0.015625)"/>
       <path id="DejaVuSans-6f" d="M 1959 3097 
Q 1497 3097 1228 2736 
Q 959 2375 959 1747 
Q 959 1119 1226 758 
Q 1494 397 1959 397 
Q 2419 397 2687 759 
Q 2956 1122 2956 1747 
Q 2956 2369 2687 2733 
Q 2419 3097 1959 3097 
z
M 1959 3584 
Q 2709 3584 3137 3096 
Q 3566 2609 3566 1747 
Q 3566 888 3137 398 
Q 2709 -91 1959 -91 
Q 1206 -91 779 398 
Q 353 888 353 1747 
Q 353 2609 779 3096 
Q 1206 3584 1959 3584 
z
" transform="scale(0.015625)"/>
       <path id="DejaVuSans-66" d="M 2375 4863 
L 2375 4384 
L 1825 4384 
Q 1516 4384 1395 4259 
Q 1275 4134 1275 3809 
L 1275 3500 
L 2222 3500 
L 2222 3053 
L 1275 3053 
L 1275 0 
L 697 0 
L 697 3053 
L 147 3053 
L 147 3500 
L 697 3500 
L 697 3744 
Q 697 4328 969 4595 
Q 1241 4863 1831 4863 
L 2375 4863 
z
" transform="scale(0.015625)"/>
       <path id="DejaVuSans-73" d="M 2834 3397 
L 2834 2853 
Q 2591 2978 2328 3040 
Q 2066 3103 1784 3103 
Q 1356 3103 1142 2972 
Q 928 2841 928 2578 
Q 928 2378 1081 2264 
Q 1234 2150 1697 2047 
L 1894 2003 
Q 2506 1872 2764 1633 
Q 3022 1394 3022 966 
Q 3022 478 2636 193 
Q 2250 -91 1575 -91 
Q 1294 -91 989 -36 
Q 684 19 347 128 
L 347 722 
Q 666 556 975 473 
Q 1284 391 1588 391 
Q 1994 391 2212 530 
Q 2431 669 2431 922 
Q 2431 1156 2273 1281 
Q 2116 1406 1581 1522 
L 1381 1569 
Q 847 1681 609 1914 
Q 372 2147 372 2553 
Q 372 3047 722 3315 
Q 1072 3584 1716 3584 
Q 2034 3584 2315 3537 
Q 2597 3491 2834 3397 
z
" transform="scale(0.015625)"/>
       <path id="DejaVuSans-20" transform="scale(0.015625)"/>
       <path id="DejaVuSans-5b" d="M 550 4863 
L 1875 4863 
L 1875 4416 
L 1125 4416 
L 1125 -397 
L 1875 -397 
L 1875 -844 
L 550 -844 
L 550 4863 
z
" transform="scale(0.015625)"/>
       <path id="DejaVuSans-b5" d="M 544 -1331 
L 544 3500 
L 1119 3500 
L 1119 1325 
Q 1119 872 1334 640 
Q 1550 409 1972 409 
Q 2434 409 2667 671 
Q 2900 934 2900 1459 
L 2900 3500 
L 3475 3500 
L 3475 806 
Q 3475 619 3529 530 
Q 3584 441 3700 441 
Q 3728 441 3778 458 
Q 3828 475 3916 513 
L 3916 50 
Q 3788 -22 3673 -56 
Q 3559 -91 3450 -91 
Q 3234 -91 3106 31 
Q 2978 153 2931 403 
Q 2775 156 2548 32 
Q 2322 -91 2016 -91 
Q 1697 -91 1473 31 
Q 1250 153 1119 397 
L 1119 -1331 
L 544 -1331 
z
" transform="scale(0.015625)"/>
       <path id="DejaVuSans-5d" d="M 1947 4863 
L 1947 -844 
L 622 -844 
L 622 -397 
L 1369 -397 
L 1369 4416 
L 622 4416 
L 622 4863 
L 1947 4863 
z
" transform="scale(0.015625)"/>
      </defs>
      <use xlink:href="#DejaVuSans-65"/>
      <use xlink:href="#DejaVuSans-76" transform="translate(61.523438 0)"/>
      <use xlink:href="#DejaVuSans-65" transform="translate(120.703125 0)"/>
      <use xlink:href="#DejaVuSans-6e" transform="translate(182.226562 0)"/>
      <use xlink:href="#DejaVuSans-74" transform="translate(245.605469 0)"/>
      <use xlink:href="#DejaVuSans-5f" transform="translate(284.814453 0)"/>
      <use xlink:href="#DejaVuSans-74" transform="translate(334.814453 0)"/>
      <use xlink:href="#DejaVuSans-69" transform="translate(374.023438 0)"/>
      <use xlink:href="#DejaVuSans-6d" transform="translate(401.806641 0)"/>
      <use xlink:href="#DejaVuSans-65" transform="translate(499.21875 0)"/>
      <use xlink:href="#DejaVuSans-5f" transform="translate(560.742188 0)"/>
      <use xlink:href="#DejaVuSans-6f" transform="translate(610.742188 0)"/>
      <use xlink:href="#DejaVuSans-66" transform="translate(671.923828 0)"/>
      <use xlink:href="#DejaVuSans-66" transform="translate(707.128906 0)"/>
      <use xlink:href="#DejaVuSans-73" transform="translate(742.333984 0)"/>
      <use xlink:href="#DejaVuSans-65" transform="translate(794.433594 0)"/>
      <use xlink:href="#DejaVuSans-74" transform="translate(855.957031 0)"/>
      <use xlink:href="#DejaVuSans-20" transform="translate(895.166016 0)"/>
      <use xlink:href="#DejaVuSans-5b" transform="translate(926.953125 0)"/>
      <use xlink:href="#DejaVuSans-b5" transform="translate(965.966797 0)"/>
      <use xlink:href="#DejaVuSans-73" transform="translate(1029.589844 0)"/>
      <use xlink:href="#DejaVuSans-5d" transform="translate(1081.689453 0)"/>
     </g>
    </g>
   </g>
   <g id="matplotlib.axis_2">
    <g id="ytick_1">
     <g id="line2d_5">
      <defs>
       <path id="meb8471341e" d="M 0 0 
L -3.5 0 
" style="stroke: #000000; stroke-width: 0.8"/>
      </defs>
      <g>
       <use xlink:href="#meb8471341e" x="46.965625" y="179.099371" style="stroke: #000000; stroke-width: 0.8"/>
      </g>
     </g>
     <g id="text_6">
      <!-- 0 -->
      <g transform="translate(33.603125 182.89859) scale(0.1 -0.1)">
       <use xlink:href="#DejaVuSans-30"/>
      </g>
     </g>
    </g>
    <g id="ytick_2">
     <g id="line2d_6">
      <g>
       <use xlink:href="#meb8471341e" x="46.965625" y="145.31759" style="stroke: #000000; stroke-width: 0.8"/>
      </g>
     </g>
     <g id="text_7">
      <!-- 50 -->
      <g transform="translate(27.240625 149.116809) scale(0.1 -0.1)">
       <defs>
        <path id="DejaVuSans-35" d="M 691 4666 
L 3169 4666 
L 3169 4134 
L 1269 4134 
L 1269 2991 
Q 1406 3038 1543 3061 
Q 1681 3084 1819 3084 
Q 2600 3084 3056 2656 
Q 3513 2228 3513 1497 
Q 3513 744 3044 326 
Q 2575 -91 1722 -91 
Q 1428 -91 1123 -41 
Q 819 9 494 109 
L 494 744 
Q 775 591 1075 516 
Q 1375 441 1709 441 
Q 2250 441 2565 725 
Q 2881 1009 2881 1497 
Q 2881 1984 2565 2268 
Q 2250 2553 1709 2553 
Q 1456 2553 1204 2497 
Q 953 2441 691 2322 
L 691 4666 
z
" transform="scale(0.015625)"/>
       </defs>
       <use xlink:href="#DejaVuSans-35"/>
       <use xlink:href="#DejaVuSans-30" transform="translate(63.623047 0)"/>
      </g>
     </g>
    </g>
    <g id="ytick_3">
     <g id="line2d_7">
      <g>
       <use xlink:href="#meb8471341e" x="46.965625" y="111.535809" style="stroke: #000000; stroke-width: 0.8"/>
      </g>
     </g>
     <g id="text_8">
      <!-- 100 -->
      <g transform="translate(20.878125 115.335028) scale(0.1 -0.1)">
       <defs>
        <path id="DejaVuSans-31" d="M 794 531 
L 1825 531 
L 1825 4091 
L 703 3866 
L 703 4441 
L 1819 4666 
L 2450 4666 
L 2450 531 
L 3481 531 
L 3481 0 
L 794 0 
L 794 531 
z
" transform="scale(0.015625)"/>
       </defs>
       <use xlink:href="#DejaVuSans-31"/>
       <use xlink:href="#DejaVuSans-30" transform="translate(63.623047 0)"/>
       <use xlink:href="#DejaVuSans-30" transform="translate(127.246094 0)"/>
      </g>
     </g>
    </g>
    <g id="ytick_4">
     <g id="line2d_8">
      <g>
       <use xlink:href="#meb8471341e" x="46.965625" y="77.754028" style="stroke: #000000; stroke-width: 0.8"/>
      </g>
     </g>
     <g id="text_9">
      <!-- 150 -->
      <g transform="translate(20.878125 81.553247) scale(0.1 -0.1)">
       <use xlink:href="#DejaVuSans-31"/>
       <use xlink:href="#DejaVuSans-35" transform="translate(63.623047 0)"/>
       <use xlink:href="#DejaVuSans-30" transform="translate(127.246094 0)"/>
      </g>
     </g>
    </g>
    <g id="ytick_5">
     <g id="line2d_9">
      <g>
       <use xlink:href="#meb8471341e" x="46.965625" y="43.972247" style="stroke: #000000; stroke-width: 0.8"/>
      </g>
     </g>
     <g id="text_10">
      <!-- 200 -->
      <g transform="translate(20.878125 47.771465) scale(0.1 -0.1)">
       <use xlink:href="#DejaVuSans-32"/>
       <use xlink:href="#DejaVuSans-30" transform="translate(63.623047 0)"/>
       <use xlink:href="#DejaVuSans-30" transform="translate(127.246094 0)"/>
      </g>
     </g>
    </g>
    <g id="text_11">
     <!-- [counts] -->
     <g transform="translate(14.798437 125.054135) rotate(-90) scale(0.1 -0.1)">
      <defs>
       <path id="DejaVuSans-63" d="M 3122 3366 
L 3122 2828 
Q 2878 2963 2633 3030 
Q 2388 3097 2138 3097 
Q 1578 3097 1268 2742 
Q 959 2388 959 1747 
Q 959 1106 1268 751 
Q 1578 397 2138 397 
Q 2388 397 2633 464 
Q 2878 531 3122 666 
L 3122 134 
Q 2881 22 2623 -34 
Q 2366 -91 2075 -91 
Q 1284 -91 818 406 
Q 353 903 353 1747 
Q 353 2603 823 3093 
Q 1294 3584 2113 3584 
Q 2378 3584 2631 3529 
Q 2884 3475 3122 3366 
z
" transform="scale(0.015625)"/>
       <path id="DejaVuSans-75" d="M 544 1381 
L 544 3500 
L 1119 3500 
L 1119 1403 
Q 1119 906 1312 657 
Q 1506 409 1894 409 
Q 2359 409 2629 706 
Q 2900 1003 2900 1516 
L 2900 3500 
L 3475 3500 
L 3475 0 
L 2900 0 
L 2900 538 
Q 2691 219 2414 64 
Q 2138 -91 1772 -91 
Q 1169 -91 856 284 
Q 544 659 544 1381 
z
M 1991 3584 
L 1991 3584 
z
" transform="scale(0.015625)"/>
      </defs>
      <use xlink:href="#DejaVuSans-5b"/>
      <use xlink:href="#DejaVuSans-63" transform="translate(39.013672 0)"/>
      <use xlink:href="#DejaVuSans-6f" transform="translate(93.994141 0)"/>
      <use xlink:href="#DejaVuSans-75" transform="translate(155.175781 0)"/>
      <use xlink:href="#DejaVuSans-6e" transform="translate(218.554688 0)"/>
      <use xlink:href="#DejaVuSans-74" transform="translate(281.933594 0)"/>
      <use xlink:href="#DejaVuSans-73" transform="translate(321.142578 0)"/>
      <use xlink:href="#DejaVuSans-5d" transform="translate(373.242188 0)"/>
     </g>
    </g>
   </g>
   <g id="patch_3">
    <path d="M 46.965625 186.565145 
L 46.965625 22.318125 
" style="fill: none; stroke: #000000; stroke-width: 0.8; stroke-linejoin: miter; stroke-linecap: square"/>
   </g>
   <g id="patch_4">
    <path d="M 319.692144 186.565145 
L 319.692144 22.318125 
" style="fill: none; stroke: #000000; stroke-width: 0.8; stroke-linejoin: miter; stroke-linecap: square"/>
   </g>
   <g id="patch_5">
    <path d="M 46.965625 186.565145 
L 319.692144 186.565145 
" style="fill: none; stroke: #000000; stroke-width: 0.8; stroke-linejoin: miter; stroke-linecap: square"/>
   </g>
   <g id="patch_6">
    <path d="M 46.965625 22.318125 
L 319.692144 22.318125 
" style="fill: none; stroke: #000000; stroke-width: 0.8; stroke-linejoin: miter; stroke-linecap: square"/>
   </g>
   <g id="text_12">
    <!-- beam=20.0 m -->
    <g transform="translate(140.168259 16.318125) scale(0.12 -0.12)">
     <defs>
      <path id="DejaVuSans-62" d="M 3116 1747 
Q 3116 2381 2855 2742 
Q 2594 3103 2138 3103 
Q 1681 3103 1420 2742 
Q 1159 2381 1159 1747 
Q 1159 1113 1420 752 
Q 1681 391 2138 391 
Q 2594 391 2855 752 
Q 3116 1113 3116 1747 
z
M 1159 2969 
Q 1341 3281 1617 3432 
Q 1894 3584 2278 3584 
Q 2916 3584 3314 3078 
Q 3713 2572 3713 1747 
Q 3713 922 3314 415 
Q 2916 -91 2278 -91 
Q 1894 -91 1617 61 
Q 1341 213 1159 525 
L 1159 0 
L 581 0 
L 581 4863 
L 1159 4863 
L 1159 2969 
z
" transform="scale(0.015625)"/>
      <path id="DejaVuSans-61" d="M 2194 1759 
Q 1497 1759 1228 1600 
Q 959 1441 959 1056 
Q 959 750 1161 570 
Q 1363 391 1709 391 
Q 2188 391 2477 730 
Q 2766 1069 2766 1631 
L 2766 1759 
L 2194 1759 
z
M 3341 1997 
L 3341 0 
L 2766 0 
L 2766 531 
Q 2569 213 2275 61 
Q 1981 -91 1556 -91 
Q 1019 -91 701 211 
Q 384 513 384 1019 
Q 384 1609 779 1909 
Q 1175 2209 1959 2209 
L 2766 2209 
L 2766 2266 
Q 2766 2663 2505 2880 
Q 2244 3097 1772 3097 
Q 1472 3097 1187 3025 
Q 903 2953 641 2809 
L 641 3341 
Q 956 3463 1253 3523 
Q 1550 3584 1831 3584 
Q 2591 3584 2966 3190 
Q 3341 2797 3341 1997 
z
" transform="scale(0.015625)"/>
      <path id="DejaVuSans-3d" d="M 678 2906 
L 4684 2906 
L 4684 2381 
L 678 2381 
L 678 2906 
z
M 678 1631 
L 4684 1631 
L 4684 1100 
L 678 1100 
L 678 1631 
z
" transform="scale(0.015625)"/>
      <path id="DejaVuSans-2e" d="M 684 794 
L 1344 794 
L 1344 0 
L 684 0 
L 684 794 
z
" transform="scale(0.015625)"/>
     </defs>
     <use xlink:href="#DejaVuSans-62"/>
     <use xlink:href="#DejaVuSans-65" transform="translate(63.476562 0)"/>
     <use xlink:href="#DejaVuSans-61" transform="translate(125 0)"/>
     <use xlink:href="#DejaVuSans-6d" transform="translate(186.279297 0)"/>
     <use xlink:href="#DejaVuSans-3d" transform="translate(283.691406 0)"/>
     <use xlink:href="#DejaVuSans-32" transform="translate(367.480469 0)"/>
     <use xlink:href="#DejaVuSans-30" transform="translate(431.103516 0)"/>
     <use xlink:href="#DejaVuSans-2e" transform="translate(494.726562 0)"/>
     <use xlink:href="#DejaVuSans-30" transform="translate(526.513672 0)"/>
     <use xlink:href="#DejaVuSans-20" transform="translate(590.136719 0)"/>
     <use xlink:href="#DejaVuSans-6d" transform="translate(621.923828 0)"/>
    </g>
   </g>
   <g id="line2d_10">
    <path d="M 59.362285 178.423736 
L 60.601951 178.423736 
L 60.601951 179.099371 
L 64.320949 179.099371 
L 64.320949 178.423736 
L 65.560615 178.423736 
L 65.560615 179.099371 
L 75.477943 179.099371 
L 75.477943 177.072464 
L 76.717609 177.072464 
L 76.717609 179.099371 
L 77.957275 179.099371 
L 77.957275 177.7481 
L 79.196941 177.7481 
L 79.196941 179.099371 
L 80.436607 179.099371 
L 80.436607 178.423736 
L 81.676273 178.423736 
L 81.676273 179.099371 
L 82.915939 179.099371 
L 82.915939 178.423736 
L 87.874603 178.423736 
L 87.874603 177.7481 
L 89.114269 177.7481 
L 89.114269 178.423736 
L 90.353935 178.423736 
L 90.353935 179.099371 
L 92.833267 179.099371 
L 92.833267 177.7481 
L 94.072933 177.7481 
L 94.072933 175.045558 
L 95.312599 175.045558 
L 95.312599 177.7481 
L 96.552265 177.7481 
L 96.552265 176.396829 
L 97.791931 176.396829 
L 97.791931 177.7481 
L 99.031597 177.7481 
L 99.031597 175.045558 
L 101.510929 175.045558 
L 101.510929 177.072464 
L 102.750595 177.072464 
L 102.750595 176.396829 
L 103.990261 176.396829 
L 103.990261 177.7481 
L 105.229927 177.7481 
L 105.229927 176.396829 
L 106.469593 176.396829 
L 106.469593 175.721193 
L 108.948925 175.721193 
L 108.948925 177.072464 
L 110.188591 177.072464 
L 110.188591 175.721193 
L 111.428257 175.721193 
L 111.428257 174.369922 
L 112.667923 174.369922 
L 112.667923 170.316108 
L 113.907589 170.316108 
L 113.907589 174.369922 
L 115.147255 174.369922 
L 115.147255 172.343015 
L 117.626587 172.343015 
L 117.626587 175.045558 
L 118.866253 175.045558 
L 118.866253 174.369922 
L 120.105919 174.369922 
L 120.105919 170.316108 
L 121.345585 170.316108 
L 121.345585 169.640473 
L 122.585251 169.640473 
L 122.585251 172.343015 
L 123.824917 172.343015 
L 123.824917 165.586659 
L 125.064583 165.586659 
L 125.064583 164.235388 
L 126.304249 164.235388 
L 126.304249 165.586659 
L 127.543915 165.586659 
L 127.543915 160.85721 
L 128.783581 160.85721 
L 128.783581 163.559752 
L 130.023247 163.559752 
L 130.023247 160.181574 
L 131.262913 160.181574 
L 131.262913 162.884116 
L 132.502579 162.884116 
L 132.502579 158.154667 
L 133.742245 158.154667 
L 133.742245 151.398311 
L 134.981911 151.398311 
L 134.981911 156.803396 
L 136.221577 156.803396 
L 136.221577 149.371404 
L 137.461243 149.371404 
L 137.461243 153.425218 
L 138.700909 153.425218 
L 138.700909 150.722675 
L 139.940575 150.722675 
L 139.940575 139.912505 
L 141.180241 139.912505 
L 141.180241 141.263776 
L 142.419907 141.263776 
L 142.419907 135.858691 
L 143.659573 135.858691 
L 143.659573 133.156149 
L 144.899239 133.156149 
L 144.899239 143.966319 
L 146.138904 143.966319 
L 146.138904 130.453606 
L 147.37857 130.453606 
L 147.37857 131.129242 
L 148.618236 131.129242 
L 148.618236 135.183056 
L 149.857902 135.183056 
L 149.857902 121.670343 
L 151.097568 121.670343 
L 151.097568 104.103817 
L 152.337234 104.103817 
L 152.337234 111.535809 
L 153.5769 111.535809 
L 153.5769 82.483477 
L 154.816566 82.483477 
L 154.816566 110.184538 
L 156.056232 110.184538 
L 156.056232 89.915469 
L 157.295898 89.915469 
L 157.295898 81.807842 
L 158.535564 81.807842 
L 158.535564 91.26674 
L 159.77523 91.26674 
L 159.77523 77.754028 
L 161.014896 77.754028 
L 161.014896 86.537291 
L 162.254562 86.537291 
L 162.254562 87.888562 
L 163.494228 87.888562 
L 163.494228 87.212927 
L 164.733894 87.212927 
L 164.733894 69.6464 
L 165.97356 69.6464 
L 165.97356 79.780935 
L 167.213226 79.780935 
L 167.213226 64.916951 
L 168.452892 64.916951 
L 168.452892 75.051485 
L 169.692558 75.051485 
L 169.692558 58.83623 
L 170.932224 58.83623 
L 170.932224 60.863137 
L 172.17189 60.863137 
L 172.17189 62.214409 
L 173.411556 62.214409 
L 173.411556 37.21589 
L 174.651222 37.21589 
L 174.651222 60.863137 
L 175.890888 60.863137 
L 175.890888 48.701696 
L 177.130554 48.701696 
L 177.130554 54.106781 
L 178.37022 54.106781 
L 178.37022 62.890044 
L 179.609886 62.890044 
L 179.609886 52.079874 
L 180.849552 52.079874 
L 180.849552 52.75551 
L 183.328884 52.75551 
L 183.328884 62.890044 
L 184.56855 62.890044 
L 184.56855 52.079874 
L 185.808216 52.079874 
L 185.808216 45.323518 
L 187.047882 45.323518 
L 187.047882 34.513348 
L 188.287548 34.513348 
L 188.287548 45.323518 
L 189.527214 45.323518 
L 189.527214 56.809324 
L 190.76688 56.809324 
L 190.76688 52.75551 
L 192.006546 52.75551 
L 192.006546 50.728603 
L 193.246212 50.728603 
L 193.246212 47.350425 
L 194.485878 47.350425 
L 194.485878 46.674789 
L 195.725544 46.674789 
L 195.725544 48.02606 
L 196.96521 48.02606 
L 196.96521 56.809324 
L 198.204876 56.809324 
L 198.204876 66.943858 
L 199.444542 66.943858 
L 199.444542 29.783899 
L 200.684208 29.783899 
L 200.684208 50.052967 
L 201.923874 50.052967 
L 201.923874 74.37585 
L 203.16354 74.37585 
L 203.16354 77.078392 
L 204.403206 77.078392 
L 204.403206 52.079874 
L 205.642872 52.079874 
L 205.642872 55.458052 
L 206.882538 55.458052 
L 206.882538 61.538773 
L 208.122204 61.538773 
L 208.122204 66.268222 
L 209.36187 66.268222 
L 209.36187 76.402757 
L 210.601536 76.402757 
L 210.601536 64.241315 
L 211.841202 64.241315 
L 211.841202 71.673307 
L 213.080868 71.673307 
L 213.080868 77.754028 
L 214.320534 77.754028 
L 214.320534 59.511866 
L 215.5602 59.511866 
L 215.5602 78.429664 
L 216.799866 78.429664 
L 216.799866 68.970765 
L 218.039532 68.970765 
L 218.039532 70.322036 
L 219.279198 70.322036 
L 219.279198 76.402757 
L 220.518864 76.402757 
L 220.518864 88.564198 
L 221.75853 88.564198 
L 221.75853 73.700214 
L 222.998196 73.700214 
L 222.998196 91.26674 
L 224.237862 91.26674 
L 224.237862 58.83623 
L 225.477528 58.83623 
L 225.477528 81.807842 
L 226.717194 81.807842 
L 226.717194 90.591105 
L 227.95686 90.591105 
L 227.95686 79.105299 
L 229.196526 79.105299 
L 229.196526 89.239833 
L 230.436192 89.239833 
L 230.436192 86.537291 
L 231.675858 86.537291 
L 231.675858 84.510384 
L 232.915524 84.510384 
L 232.915524 93.293647 
L 234.15519 93.293647 
L 234.15519 71.673307 
L 235.394856 71.673307 
L 235.394856 83.834748 
L 236.634522 83.834748 
L 236.634522 85.861655 
L 237.874188 85.861655 
L 237.874188 86.537291 
L 239.113854 86.537291 
L 239.113854 102.07691 
L 240.35352 102.07691 
L 240.35352 77.754028 
L 241.593186 77.754028 
L 241.593186 93.293647 
L 242.832852 93.293647 
L 242.832852 97.347461 
L 244.072518 97.347461 
L 244.072518 105.455088 
L 245.312184 105.455088 
L 245.312184 98.698732 
L 247.791516 98.698732 
L 247.791516 97.347461 
L 249.031182 97.347461 
L 249.031182 100.725639 
L 250.270848 100.725639 
L 250.270848 105.455088 
L 251.510514 105.455088 
L 251.510514 110.860173 
L 252.75018 110.860173 
L 252.75018 95.99619 
L 253.989846 95.99619 
L 253.989846 102.752546 
L 255.229512 102.752546 
L 255.229512 107.481995 
L 256.469178 107.481995 
L 256.469178 102.07691 
L 257.708844 102.07691 
L 257.708844 111.535809 
L 258.94851 111.535809 
L 258.94851 113.562716 
L 260.188176 113.562716 
L 260.188176 108.157631 
L 261.427842 108.157631 
L 261.427842 107.481995 
L 262.667508 107.481995 
L 262.667508 114.913987 
L 263.907174 114.913987 
L 263.907174 108.157631 
L 265.14684 108.157631 
L 265.14684 108.833267 
L 266.386506 108.833267 
L 266.386506 123.69725 
L 267.626172 123.69725 
L 267.626172 118.967801 
L 268.865838 118.967801 
L 268.865838 121.670343 
L 270.105504 121.670343 
L 270.105504 116.940894 
L 271.34517 116.940894 
L 271.34517 124.372886 
L 272.584836 124.372886 
L 272.584836 129.102335 
L 273.824502 129.102335 
L 273.824502 141.263776 
L 275.064168 141.263776 
L 275.064168 130.453606 
L 276.303834 130.453606 
L 276.303834 139.23687 
L 277.5435 139.23687 
L 277.5435 142.615048 
L 278.783166 142.615048 
L 278.783166 145.31759 
L 280.022832 145.31759 
L 280.022832 149.371404 
L 281.262498 149.371404 
L 281.262498 145.993226 
L 282.502164 145.993226 
L 282.502164 144.641955 
L 283.74183 144.641955 
L 283.74183 153.425218 
L 284.981496 153.425218 
L 284.981496 152.073946 
L 287.460828 152.073946 
L 287.460828 162.208481 
L 288.700494 162.208481 
L 288.700494 156.12776 
L 289.94016 156.12776 
L 289.94016 165.586659 
L 291.179826 165.586659 
L 291.179826 159.505938 
L 292.419492 159.505938 
L 292.419492 169.640473 
L 293.659158 169.640473 
L 293.659158 162.884116 
L 294.898824 162.884116 
L 294.898824 166.93793 
L 296.13849 166.93793 
L 296.13849 164.911023 
L 297.378156 164.911023 
L 297.378156 165.586659 
L 298.617822 165.586659 
L 298.617822 176.396829 
L 299.857488 176.396829 
L 299.857488 175.045558 
L 301.097154 175.045558 
L 301.097154 175.721193 
L 303.576486 175.721193 
L 303.576486 178.423736 
L 304.816152 178.423736 
L 304.816152 179.099371 
L 306.055818 179.099371 
L 306.055818 177.072464 
L 307.295484 177.072464 
L 307.295484 177.072464 
" clip-path="url(#pda55035286)" style="fill: none; stroke: #1f77b4; stroke-width: 1.5; stroke-linecap: square"/>
   </g>
  </g>
  <g id="axes_2">
   <g id="patch_7">
    <path d="M 365.937769 186.565145 
L 638.664287 186.565145 
L 638.664287 22.318125 
L 365.937769 22.318125 
z
" style="fill: #ffffff"/>
   </g>
   <g id="matplotlib.axis_3">
    <g id="xtick_5">
     <g id="line2d_11">
      <g>
       <use xlink:href="#mc3f09b9550" x="389.667621" y="186.565145" style="stroke: #000000; stroke-width: 0.8"/>
      </g>
     </g>
     <g id="text_13">
      <!-- 25000 -->
      <g transform="translate(373.761371 201.163582) scale(0.1 -0.1)">
       <use xlink:href="#DejaVuSans-32"/>
       <use xlink:href="#DejaVuSans-35" transform="translate(63.623047 0)"/>
       <use xlink:href="#DejaVuSans-30" transform="translate(127.246094 0)"/>
       <use xlink:href="#DejaVuSans-30" transform="translate(190.869141 0)"/>
       <use xlink:href="#DejaVuSans-30" transform="translate(254.492188 0)"/>
      </g>
     </g>
    </g>
    <g id="xtick_6">
     <g id="line2d_12">
      <g>
       <use xlink:href="#mc3f09b9550" x="424.470061" y="186.565145" style="stroke: #000000; stroke-width: 0.8"/>
      </g>
     </g>
     <g id="text_14">
      <!-- 30000 -->
      <g transform="translate(408.563811 201.163582) scale(0.1 -0.1)">
       <use xlink:href="#DejaVuSans-33"/>
       <use xlink:href="#DejaVuSans-30" transform="translate(63.623047 0)"/>
       <use xlink:href="#DejaVuSans-30" transform="translate(127.246094 0)"/>
       <use xlink:href="#DejaVuSans-30" transform="translate(190.869141 0)"/>
       <use xlink:href="#DejaVuSans-30" transform="translate(254.492188 0)"/>
      </g>
     </g>
    </g>
    <g id="xtick_7">
     <g id="line2d_13">
      <g>
       <use xlink:href="#mc3f09b9550" x="459.272502" y="186.565145" style="stroke: #000000; stroke-width: 0.8"/>
      </g>
     </g>
     <g id="text_15">
      <!-- 35000 -->
      <g transform="translate(443.366252 201.163582) scale(0.1 -0.1)">
       <use xlink:href="#DejaVuSans-33"/>
       <use xlink:href="#DejaVuSans-35" transform="translate(63.623047 0)"/>
       <use xlink:href="#DejaVuSans-30" transform="translate(127.246094 0)"/>
       <use xlink:href="#DejaVuSans-30" transform="translate(190.869141 0)"/>
       <use xlink:href="#DejaVuSans-30" transform="translate(254.492188 0)"/>
      </g>
     </g>
    </g>
    <g id="xtick_8">
     <g id="line2d_14">
      <g>
       <use xlink:href="#mc3f09b9550" x="494.074943" y="186.565145" style="stroke: #000000; stroke-width: 0.8"/>
      </g>
     </g>
     <g id="text_16">
      <!-- 40000 -->
      <g transform="translate(478.168693 201.163582) scale(0.1 -0.1)">
       <use xlink:href="#DejaVuSans-34"/>
       <use xlink:href="#DejaVuSans-30" transform="translate(63.623047 0)"/>
       <use xlink:href="#DejaVuSans-30" transform="translate(127.246094 0)"/>
       <use xlink:href="#DejaVuSans-30" transform="translate(190.869141 0)"/>
       <use xlink:href="#DejaVuSans-30" transform="translate(254.492188 0)"/>
      </g>
     </g>
    </g>
    <g id="xtick_9">
     <g id="line2d_15">
      <g>
       <use xlink:href="#mc3f09b9550" x="528.877384" y="186.565145" style="stroke: #000000; stroke-width: 0.8"/>
      </g>
     </g>
     <g id="text_17">
      <!-- 45000 -->
      <g transform="translate(512.971134 201.163582) scale(0.1 -0.1)">
       <use xlink:href="#DejaVuSans-34"/>
       <use xlink:href="#DejaVuSans-35" transform="translate(63.623047 0)"/>
       <use xlink:href="#DejaVuSans-30" transform="translate(127.246094 0)"/>
       <use xlink:href="#DejaVuSans-30" transform="translate(190.869141 0)"/>
       <use xlink:href="#DejaVuSans-30" transform="translate(254.492188 0)"/>
      </g>
     </g>
    </g>
    <g id="xtick_10">
     <g id="line2d_16">
      <g>
       <use xlink:href="#mc3f09b9550" x="563.679825" y="186.565145" style="stroke: #000000; stroke-width: 0.8"/>
      </g>
     </g>
     <g id="text_18">
      <!-- 50000 -->
      <g transform="translate(547.773575 201.163582) scale(0.1 -0.1)">
       <use xlink:href="#DejaVuSans-35"/>
       <use xlink:href="#DejaVuSans-30" transform="translate(63.623047 0)"/>
       <use xlink:href="#DejaVuSans-30" transform="translate(127.246094 0)"/>
       <use xlink:href="#DejaVuSans-30" transform="translate(190.869141 0)"/>
       <use xlink:href="#DejaVuSans-30" transform="translate(254.492188 0)"/>
      </g>
     </g>
    </g>
    <g id="xtick_11">
     <g id="line2d_17">
      <g>
       <use xlink:href="#mc3f09b9550" x="598.482266" y="186.565145" style="stroke: #000000; stroke-width: 0.8"/>
      </g>
     </g>
     <g id="text_19">
      <!-- 55000 -->
      <g transform="translate(582.576016 201.163582) scale(0.1 -0.1)">
       <use xlink:href="#DejaVuSans-35"/>
       <use xlink:href="#DejaVuSans-35" transform="translate(63.623047 0)"/>
       <use xlink:href="#DejaVuSans-30" transform="translate(127.246094 0)"/>
       <use xlink:href="#DejaVuSans-30" transform="translate(190.869141 0)"/>
       <use xlink:href="#DejaVuSans-30" transform="translate(254.492188 0)"/>
      </g>
     </g>
    </g>
    <g id="xtick_12">
     <g id="line2d_18">
      <g>
       <use xlink:href="#mc3f09b9550" x="633.284706" y="186.565145" style="stroke: #000000; stroke-width: 0.8"/>
      </g>
     </g>
     <g id="text_20">
      <!-- 60000 -->
      <g transform="translate(617.378456 201.163582) scale(0.1 -0.1)">
       <use xlink:href="#DejaVuSans-36"/>
       <use xlink:href="#DejaVuSans-30" transform="translate(63.623047 0)"/>
       <use xlink:href="#DejaVuSans-30" transform="translate(127.246094 0)"/>
       <use xlink:href="#DejaVuSans-30" transform="translate(190.869141 0)"/>
       <use xlink:href="#DejaVuSans-30" transform="translate(254.492188 0)"/>
      </g>
     </g>
    </g>
    <g id="text_21">
     <!-- event_time_offset [µs] -->
     <g transform="translate(446.265872 214.841707) scale(0.1 -0.1)">
      <use xlink:href="#DejaVuSans-65"/>
      <use xlink:href="#DejaVuSans-76" transform="translate(61.523438 0)"/>
      <use xlink:href="#DejaVuSans-65" transform="translate(120.703125 0)"/>
      <use xlink:href="#DejaVuSans-6e" transform="translate(182.226562 0)"/>
      <use xlink:href="#DejaVuSans-74" transform="translate(245.605469 0)"/>
      <use xlink:href="#DejaVuSans-5f" transform="translate(284.814453 0)"/>
      <use xlink:href="#DejaVuSans-74" transform="translate(334.814453 0)"/>
      <use xlink:href="#DejaVuSans-69" transform="translate(374.023438 0)"/>
      <use xlink:href="#DejaVuSans-6d" transform="translate(401.806641 0)"/>
      <use xlink:href="#DejaVuSans-65" transform="translate(499.21875 0)"/>
      <use xlink:href="#DejaVuSans-5f" transform="translate(560.742188 0)"/>
      <use xlink:href="#DejaVuSans-6f" transform="translate(610.742188 0)"/>
      <use xlink:href="#DejaVuSans-66" transform="translate(671.923828 0)"/>
      <use xlink:href="#DejaVuSans-66" transform="translate(707.128906 0)"/>
      <use xlink:href="#DejaVuSans-73" transform="translate(742.333984 0)"/>
      <use xlink:href="#DejaVuSans-65" transform="translate(794.433594 0)"/>
      <use xlink:href="#DejaVuSans-74" transform="translate(855.957031 0)"/>
      <use xlink:href="#DejaVuSans-20" transform="translate(895.166016 0)"/>
      <use xlink:href="#DejaVuSans-5b" transform="translate(926.953125 0)"/>
      <use xlink:href="#DejaVuSans-b5" transform="translate(965.966797 0)"/>
      <use xlink:href="#DejaVuSans-73" transform="translate(1029.589844 0)"/>
      <use xlink:href="#DejaVuSans-5d" transform="translate(1081.689453 0)"/>
     </g>
    </g>
   </g>
   <g id="matplotlib.axis_4">
    <g id="ytick_6">
     <g id="line2d_19">
      <g>
       <use xlink:href="#meb8471341e" x="365.937769" y="179.099371" style="stroke: #000000; stroke-width: 0.8"/>
      </g>
     </g>
     <g id="text_22">
      <!-- 0 -->
      <g transform="translate(352.575269 182.89859) scale(0.1 -0.1)">
       <use xlink:href="#DejaVuSans-30"/>
      </g>
     </g>
    </g>
    <g id="ytick_7">
     <g id="line2d_20">
      <g>
       <use xlink:href="#meb8471341e" x="365.937769" y="143.377966" style="stroke: #000000; stroke-width: 0.8"/>
      </g>
     </g>
     <g id="text_23">
      <!-- 50 -->
      <g transform="translate(346.212769 147.177185) scale(0.1 -0.1)">
       <use xlink:href="#DejaVuSans-35"/>
       <use xlink:href="#DejaVuSans-30" transform="translate(63.623047 0)"/>
      </g>
     </g>
    </g>
    <g id="ytick_8">
     <g id="line2d_21">
      <g>
       <use xlink:href="#meb8471341e" x="365.937769" y="107.656561" style="stroke: #000000; stroke-width: 0.8"/>
      </g>
     </g>
     <g id="text_24">
      <!-- 100 -->
      <g transform="translate(339.850269 111.45578) scale(0.1 -0.1)">
       <use xlink:href="#DejaVuSans-31"/>
       <use xlink:href="#DejaVuSans-30" transform="translate(63.623047 0)"/>
       <use xlink:href="#DejaVuSans-30" transform="translate(127.246094 0)"/>
      </g>
     </g>
    </g>
    <g id="ytick_9">
     <g id="line2d_22">
      <g>
       <use xlink:href="#meb8471341e" x="365.937769" y="71.935156" style="stroke: #000000; stroke-width: 0.8"/>
      </g>
     </g>
     <g id="text_25">
      <!-- 150 -->
      <g transform="translate(339.850269 75.734375) scale(0.1 -0.1)">
       <use xlink:href="#DejaVuSans-31"/>
       <use xlink:href="#DejaVuSans-35" transform="translate(63.623047 0)"/>
       <use xlink:href="#DejaVuSans-30" transform="translate(127.246094 0)"/>
      </g>
     </g>
    </g>
    <g id="ytick_10">
     <g id="line2d_23">
      <g>
       <use xlink:href="#meb8471341e" x="365.937769" y="36.213752" style="stroke: #000000; stroke-width: 0.8"/>
      </g>
     </g>
     <g id="text_26">
      <!-- 200 -->
      <g transform="translate(339.850269 40.01297) scale(0.1 -0.1)">
       <use xlink:href="#DejaVuSans-32"/>
       <use xlink:href="#DejaVuSans-30" transform="translate(63.623047 0)"/>
       <use xlink:href="#DejaVuSans-30" transform="translate(127.246094 0)"/>
      </g>
     </g>
    </g>
    <g id="text_27">
     <!-- [counts] -->
     <g transform="translate(333.770581 125.054135) rotate(-90) scale(0.1 -0.1)">
      <use xlink:href="#DejaVuSans-5b"/>
      <use xlink:href="#DejaVuSans-63" transform="translate(39.013672 0)"/>
      <use xlink:href="#DejaVuSans-6f" transform="translate(93.994141 0)"/>
      <use xlink:href="#DejaVuSans-75" transform="translate(155.175781 0)"/>
      <use xlink:href="#DejaVuSans-6e" transform="translate(218.554688 0)"/>
      <use xlink:href="#DejaVuSans-74" transform="translate(281.933594 0)"/>
      <use xlink:href="#DejaVuSans-73" transform="translate(321.142578 0)"/>
      <use xlink:href="#DejaVuSans-5d" transform="translate(373.242188 0)"/>
     </g>
    </g>
   </g>
   <g id="patch_8">
    <path d="M 365.937769 186.565145 
L 365.937769 22.318125 
" style="fill: none; stroke: #000000; stroke-width: 0.8; stroke-linejoin: miter; stroke-linecap: square"/>
   </g>
   <g id="patch_9">
    <path d="M 638.664287 186.565145 
L 638.664287 22.318125 
" style="fill: none; stroke: #000000; stroke-width: 0.8; stroke-linejoin: miter; stroke-linecap: square"/>
   </g>
   <g id="patch_10">
    <path d="M 365.937769 186.565145 
L 638.664287 186.565145 
" style="fill: none; stroke: #000000; stroke-width: 0.8; stroke-linejoin: miter; stroke-linecap: square"/>
   </g>
   <g id="patch_11">
    <path d="M 365.937769 22.318125 
L 638.664287 22.318125 
" style="fill: none; stroke: #000000; stroke-width: 0.8; stroke-linejoin: miter; stroke-linecap: square"/>
   </g>
   <g id="text_28">
    <!-- sample=60.0 m -->
    <g transform="translate(454.347903 16.318125) scale(0.12 -0.12)">
     <defs>
      <path id="DejaVuSans-70" d="M 1159 525 
L 1159 -1331 
L 581 -1331 
L 581 3500 
L 1159 3500 
L 1159 2969 
Q 1341 3281 1617 3432 
Q 1894 3584 2278 3584 
Q 2916 3584 3314 3078 
Q 3713 2572 3713 1747 
Q 3713 922 3314 415 
Q 2916 -91 2278 -91 
Q 1894 -91 1617 61 
Q 1341 213 1159 525 
z
M 3116 1747 
Q 3116 2381 2855 2742 
Q 2594 3103 2138 3103 
Q 1681 3103 1420 2742 
Q 1159 2381 1159 1747 
Q 1159 1113 1420 752 
Q 1681 391 2138 391 
Q 2594 391 2855 752 
Q 3116 1113 3116 1747 
z
" transform="scale(0.015625)"/>
      <path id="DejaVuSans-6c" d="M 603 4863 
L 1178 4863 
L 1178 0 
L 603 0 
L 603 4863 
z
" transform="scale(0.015625)"/>
     </defs>
     <use xlink:href="#DejaVuSans-73"/>
     <use xlink:href="#DejaVuSans-61" transform="translate(52.099609 0)"/>
     <use xlink:href="#DejaVuSans-6d" transform="translate(113.378906 0)"/>
     <use xlink:href="#DejaVuSans-70" transform="translate(210.791016 0)"/>
     <use xlink:href="#DejaVuSans-6c" transform="translate(274.267578 0)"/>
     <use xlink:href="#DejaVuSans-65" transform="translate(302.050781 0)"/>
     <use xlink:href="#DejaVuSans-3d" transform="translate(363.574219 0)"/>
     <use xlink:href="#DejaVuSans-36" transform="translate(447.363281 0)"/>
     <use xlink:href="#DejaVuSans-30" transform="translate(510.986328 0)"/>
     <use xlink:href="#DejaVuSans-2e" transform="translate(574.609375 0)"/>
     <use xlink:href="#DejaVuSans-30" transform="translate(606.396484 0)"/>
     <use xlink:href="#DejaVuSans-20" transform="translate(670.019531 0)"/>
     <use xlink:href="#DejaVuSans-6d" transform="translate(701.806641 0)"/>
    </g>
   </g>
   <g id="line2d_24">
    <path d="M 378.334429 178.384943 
L 379.574095 178.384943 
L 379.574095 179.099371 
L 383.293093 179.099371 
L 383.293093 178.384943 
L 384.532759 178.384943 
L 384.532759 179.099371 
L 391.970754 179.099371 
L 391.970754 178.384943 
L 394.450086 178.384943 
L 394.450086 177.670515 
L 395.689752 177.670515 
L 395.689752 178.384943 
L 398.169084 178.384943 
L 398.169084 179.099371 
L 401.888082 179.099371 
L 401.888082 177.670515 
L 404.367414 177.670515 
L 404.367414 179.099371 
L 405.60708 179.099371 
L 405.60708 178.384943 
L 406.846746 178.384943 
L 406.846746 177.670515 
L 408.086412 177.670515 
L 408.086412 179.099371 
L 409.326078 179.099371 
L 409.326078 176.956087 
L 410.565744 176.956087 
L 410.565744 177.670515 
L 411.80541 177.670515 
L 411.80541 178.384943 
L 413.045076 178.384943 
L 413.045076 176.241659 
L 415.524408 176.241659 
L 415.524408 176.956087 
L 416.764074 176.956087 
L 416.764074 177.670515 
L 418.00374 177.670515 
L 418.00374 176.241659 
L 420.483072 176.241659 
L 420.483072 174.812803 
L 422.962404 174.812803 
L 422.962404 177.670515 
L 424.20207 177.670515 
L 424.20207 176.241659 
L 425.441736 176.241659 
L 425.441736 176.956087 
L 426.681402 176.956087 
L 426.681402 172.669518 
L 427.921068 172.669518 
L 427.921068 174.098375 
L 429.160734 174.098375 
L 429.160734 175.527231 
L 432.879732 175.527231 
L 432.879732 171.240662 
L 434.119398 171.240662 
L 434.119398 173.383947 
L 436.59873 173.383947 
L 436.59873 172.669518 
L 437.838396 172.669518 
L 437.838396 171.240662 
L 439.078062 171.240662 
L 439.078062 170.526234 
L 440.317728 170.526234 
L 440.317728 169.811806 
L 441.557394 169.811806 
L 441.557394 171.240662 
L 442.79706 171.240662 
L 442.79706 167.668522 
L 444.036726 167.668522 
L 444.036726 172.669518 
L 445.276392 172.669518 
L 445.276392 161.953097 
L 446.516058 161.953097 
L 446.516058 169.097378 
L 447.755724 169.097378 
L 447.755724 158.380956 
L 448.99539 158.380956 
L 448.99539 161.238669 
L 450.235056 161.238669 
L 450.235056 160.524241 
L 451.474722 160.524241 
L 451.474722 151.951104 
L 452.714388 151.951104 
L 452.714388 156.9521 
L 455.19372 156.9521 
L 455.19372 148.378963 
L 456.433386 148.378963 
L 456.433386 145.521251 
L 457.673052 145.521251 
L 457.673052 149.093391 
L 458.912718 149.093391 
L 458.912718 151.951104 
L 460.152384 151.951104 
L 460.152384 144.806823 
L 461.39205 144.806823 
L 461.39205 137.662542 
L 462.631716 137.662542 
L 462.631716 130.518261 
L 463.871382 130.518261 
L 463.871382 127.660548 
L 465.111048 127.660548 
L 465.111048 131.232689 
L 466.350714 131.232689 
L 466.350714 135.519257 
L 467.59038 135.519257 
L 467.59038 121.945123 
L 468.830046 121.945123 
L 468.830046 129.803833 
L 470.069712 129.803833 
L 470.069712 116.944127 
L 471.309378 116.944127 
L 471.309378 111.228702 
L 472.549044 111.228702 
L 472.549044 101.226709 
L 473.78871 101.226709 
L 473.78871 99.083424 
L 475.028376 99.083424 
L 475.028376 81.222722 
L 476.268042 81.222722 
L 476.268042 74.792869 
L 477.507708 74.792869 
L 477.507708 60.504307 
L 478.747374 60.504307 
L 478.747374 77.650581 
L 479.98704 77.650581 
L 479.98704 63.362019 
L 481.226706 63.362019 
L 481.226706 70.5063 
L 482.466372 70.5063 
L 482.466372 64.790875 
L 483.706038 64.790875 
L 483.706038 63.362019 
L 484.945704 63.362019 
L 484.945704 51.93117 
L 486.18537 51.93117 
L 486.18537 61.218735 
L 487.425036 61.218735 
L 487.425036 71.220728 
L 488.664702 71.220728 
L 488.664702 39.785892 
L 489.904368 39.785892 
L 489.904368 51.216742 
L 491.144034 51.216742 
L 491.144034 56.217738 
L 492.3837 56.217738 
L 492.3837 50.502314 
L 493.623366 50.502314 
L 493.623366 29.783899 
L 494.863032 29.783899 
L 494.863032 46.930173 
L 496.102698 46.930173 
L 496.102698 55.50331 
L 497.342364 55.50331 
L 497.342364 56.932166 
L 498.58203 56.932166 
L 498.58203 41.929176 
L 499.821696 41.929176 
L 499.821696 47.644601 
L 501.061362 47.644601 
L 501.061362 41.929176 
L 502.301028 41.929176 
L 502.301028 65.505304 
L 503.540694 65.505304 
L 503.540694 42.643604 
L 506.020026 42.643604 
L 506.020026 40.50032 
L 507.259692 40.50032 
L 507.259692 29.783899 
L 508.499358 29.783899 
L 508.499358 44.072461 
L 509.739024 44.072461 
L 509.739024 50.502314 
L 510.97869 50.502314 
L 510.97869 59.075451 
L 512.218356 59.075451 
L 512.218356 49.073457 
L 513.458022 49.073457 
L 513.458022 54.074454 
L 514.697688 54.074454 
L 514.697688 54.788882 
L 515.937354 54.788882 
L 515.937354 48.359029 
L 517.17702 48.359029 
L 517.17702 49.073457 
L 518.416686 49.073457 
L 518.416686 57.646595 
L 519.656352 57.646595 
L 519.656352 61.933163 
L 520.896018 61.933163 
L 520.896018 46.930173 
L 522.135684 46.930173 
L 522.135684 64.076447 
L 523.37535 64.076447 
L 523.37535 58.361023 
L 524.615016 58.361023 
L 524.615016 70.5063 
L 525.854682 70.5063 
L 525.854682 44.072461 
L 527.094348 44.072461 
L 527.094348 72.649585 
L 528.334014 72.649585 
L 528.334014 74.078441 
L 529.57368 74.078441 
L 529.57368 61.933163 
L 530.813346 61.933163 
L 530.813346 66.219732 
L 532.053012 66.219732 
L 532.053012 61.218735 
L 533.292678 61.218735 
L 533.292678 67.648588 
L 534.532344 67.648588 
L 534.532344 61.933163 
L 535.77201 61.933163 
L 535.77201 64.076447 
L 537.011676 64.076447 
L 537.011676 76.936153 
L 538.251342 76.936153 
L 538.251342 86.938147 
L 539.491008 86.938147 
L 539.491008 74.078441 
L 540.730674 74.078441 
L 540.730674 71.935156 
L 541.97034 71.935156 
L 541.97034 74.078441 
L 543.210006 74.078441 
L 543.210006 77.650581 
L 544.449672 77.650581 
L 544.449672 79.793866 
L 545.689338 79.793866 
L 545.689338 78.365009 
L 546.929004 78.365009 
L 546.929004 82.651578 
L 548.16867 82.651578 
L 548.16867 99.083424 
L 549.408336 99.083424 
L 549.408336 92.653571 
L 550.648002 92.653571 
L 550.648002 64.076447 
L 551.887668 64.076447 
L 551.887668 75.507297 
L 553.127334 75.507297 
L 553.127334 72.649585 
L 554.367 72.649585 
L 554.367 99.083424 
L 556.846332 99.083424 
L 556.846332 85.50929 
L 558.085998 85.50929 
L 558.085998 73.364013 
L 559.325664 73.364013 
L 559.325664 82.651578 
L 560.56533 82.651578 
L 560.56533 84.080434 
L 561.804996 84.080434 
L 561.804996 99.797852 
L 563.044662 99.797852 
L 563.044662 91.224715 
L 564.284328 91.224715 
L 564.284328 102.655565 
L 565.523994 102.655565 
L 565.523994 96.225712 
L 566.76366 96.225712 
L 566.76366 97.654568 
L 568.003326 97.654568 
L 568.003326 86.223718 
L 569.242992 86.223718 
L 569.242992 104.084421 
L 570.482658 104.084421 
L 570.482658 98.368996 
L 571.722324 98.368996 
L 571.722324 85.50929 
L 572.96199 85.50929 
L 572.96199 98.368996 
L 574.201656 98.368996 
L 574.201656 93.367999 
L 575.441322 93.367999 
L 575.441322 104.798849 
L 576.680988 104.798849 
L 576.680988 107.656561 
L 577.920654 107.656561 
L 577.920654 101.941137 
L 579.16032 101.941137 
L 579.16032 114.086414 
L 580.399986 114.086414 
L 580.399986 94.082428 
L 581.639652 94.082428 
L 581.639652 114.086414 
L 584.118984 114.086414 
L 584.118984 106.942133 
L 585.35865 106.942133 
L 585.35865 98.368996 
L 586.598315 98.368996 
L 586.598315 106.942133 
L 587.837981 106.942133 
L 587.837981 107.656561 
L 589.077647 107.656561 
L 589.077647 110.514274 
L 590.317313 110.514274 
L 590.317313 121.945123 
L 591.556979 121.945123 
L 591.556979 102.655565 
L 592.796645 102.655565 
L 592.796645 114.800842 
L 594.036311 114.800842 
L 594.036311 126.231692 
L 595.275977 126.231692 
L 595.275977 133.375973 
L 596.515643 133.375973 
L 596.515643 124.088408 
L 597.755309 124.088408 
L 597.755309 144.806823 
L 598.994975 144.806823 
L 598.994975 129.089404 
L 600.234641 129.089404 
L 600.234641 141.234682 
L 601.474307 141.234682 
L 601.474307 135.519257 
L 602.713973 135.519257 
L 602.713973 139.091398 
L 603.953639 139.091398 
L 603.953639 148.378963 
L 605.193305 148.378963 
L 605.193305 153.37996 
L 606.432971 153.37996 
L 606.432971 155.523244 
L 607.672637 155.523244 
L 607.672637 156.9521 
L 610.151969 156.9521 
L 610.151969 164.096381 
L 611.391635 164.096381 
L 611.391635 161.238669 
L 612.631301 161.238669 
L 612.631301 159.809813 
L 613.870967 159.809813 
L 613.870967 162.667525 
L 615.110633 162.667525 
L 615.110633 161.238669 
L 616.350299 161.238669 
L 616.350299 169.811806 
L 617.589965 169.811806 
L 617.589965 171.95509 
L 618.829631 171.95509 
L 618.829631 176.956087 
L 620.069297 176.956087 
L 620.069297 173.383947 
L 621.308963 173.383947 
L 621.308963 177.670515 
L 622.548629 177.670515 
L 622.548629 178.384943 
L 623.788295 178.384943 
L 623.788295 177.670515 
L 625.027961 177.670515 
L 625.027961 178.384943 
L 626.267627 178.384943 
L 626.267627 178.384943 
" clip-path="url(#pd261f4d4f0)" style="fill: none; stroke: #ff7f0e; stroke-width: 1.5; stroke-linecap: square"/>
   </g>
  </g>
  <g id="axes_3">
   <g id="patch_12">
    <path d="M 46.965625 402.565145 
L 319.692144 402.565145 
L 319.692144 238.318125 
L 46.965625 238.318125 
z
" style="fill: #ffffff"/>
   </g>
   <g id="matplotlib.axis_5">
    <g id="xtick_13">
     <g id="line2d_25">
      <g>
       <use xlink:href="#mc3f09b9550" x="59.353236" y="402.565145" style="stroke: #000000; stroke-width: 0.8"/>
      </g>
     </g>
     <g id="text_29">
      <!-- 0 -->
      <g transform="translate(56.171986 417.163582) scale(0.1 -0.1)">
       <use xlink:href="#DejaVuSans-30"/>
      </g>
     </g>
    </g>
    <g id="xtick_14">
     <g id="line2d_26">
      <g>
       <use xlink:href="#mc3f09b9550" x="94.065387" y="402.565145" style="stroke: #000000; stroke-width: 0.8"/>
      </g>
     </g>
     <g id="text_30">
      <!-- 10000 -->
      <g transform="translate(78.159137 417.163582) scale(0.1 -0.1)">
       <use xlink:href="#DejaVuSans-31"/>
       <use xlink:href="#DejaVuSans-30" transform="translate(63.623047 0)"/>
       <use xlink:href="#DejaVuSans-30" transform="translate(127.246094 0)"/>
       <use xlink:href="#DejaVuSans-30" transform="translate(190.869141 0)"/>
       <use xlink:href="#DejaVuSans-30" transform="translate(254.492188 0)"/>
      </g>
     </g>
    </g>
    <g id="xtick_15">
     <g id="line2d_27">
      <g>
       <use xlink:href="#mc3f09b9550" x="128.777539" y="402.565145" style="stroke: #000000; stroke-width: 0.8"/>
      </g>
     </g>
     <g id="text_31">
      <!-- 20000 -->
      <g transform="translate(112.871289 417.163582) scale(0.1 -0.1)">
       <use xlink:href="#DejaVuSans-32"/>
       <use xlink:href="#DejaVuSans-30" transform="translate(63.623047 0)"/>
       <use xlink:href="#DejaVuSans-30" transform="translate(127.246094 0)"/>
       <use xlink:href="#DejaVuSans-30" transform="translate(190.869141 0)"/>
       <use xlink:href="#DejaVuSans-30" transform="translate(254.492188 0)"/>
      </g>
     </g>
    </g>
    <g id="xtick_16">
     <g id="line2d_28">
      <g>
       <use xlink:href="#mc3f09b9550" x="163.48969" y="402.565145" style="stroke: #000000; stroke-width: 0.8"/>
      </g>
     </g>
     <g id="text_32">
      <!-- 30000 -->
      <g transform="translate(147.58344 417.163582) scale(0.1 -0.1)">
       <use xlink:href="#DejaVuSans-33"/>
       <use xlink:href="#DejaVuSans-30" transform="translate(63.623047 0)"/>
       <use xlink:href="#DejaVuSans-30" transform="translate(127.246094 0)"/>
       <use xlink:href="#DejaVuSans-30" transform="translate(190.869141 0)"/>
       <use xlink:href="#DejaVuSans-30" transform="translate(254.492188 0)"/>
      </g>
     </g>
    </g>
    <g id="xtick_17">
     <g id="line2d_29">
      <g>
       <use xlink:href="#mc3f09b9550" x="198.201841" y="402.565145" style="stroke: #000000; stroke-width: 0.8"/>
      </g>
     </g>
     <g id="text_33">
      <!-- 40000 -->
      <g transform="translate(182.295591 417.163582) scale(0.1 -0.1)">
       <use xlink:href="#DejaVuSans-34"/>
       <use xlink:href="#DejaVuSans-30" transform="translate(63.623047 0)"/>
       <use xlink:href="#DejaVuSans-30" transform="translate(127.246094 0)"/>
       <use xlink:href="#DejaVuSans-30" transform="translate(190.869141 0)"/>
       <use xlink:href="#DejaVuSans-30" transform="translate(254.492188 0)"/>
      </g>
     </g>
    </g>
    <g id="xtick_18">
     <g id="line2d_30">
      <g>
       <use xlink:href="#mc3f09b9550" x="232.913992" y="402.565145" style="stroke: #000000; stroke-width: 0.8"/>
      </g>
     </g>
     <g id="text_34">
      <!-- 50000 -->
      <g transform="translate(217.007742 417.163582) scale(0.1 -0.1)">
       <use xlink:href="#DejaVuSans-35"/>
       <use xlink:href="#DejaVuSans-30" transform="translate(63.623047 0)"/>
       <use xlink:href="#DejaVuSans-30" transform="translate(127.246094 0)"/>
       <use xlink:href="#DejaVuSans-30" transform="translate(190.869141 0)"/>
       <use xlink:href="#DejaVuSans-30" transform="translate(254.492188 0)"/>
      </g>
     </g>
    </g>
    <g id="xtick_19">
     <g id="line2d_31">
      <g>
       <use xlink:href="#mc3f09b9550" x="267.626143" y="402.565145" style="stroke: #000000; stroke-width: 0.8"/>
      </g>
     </g>
     <g id="text_35">
      <!-- 60000 -->
      <g transform="translate(251.719893 417.163582) scale(0.1 -0.1)">
       <use xlink:href="#DejaVuSans-36"/>
       <use xlink:href="#DejaVuSans-30" transform="translate(63.623047 0)"/>
       <use xlink:href="#DejaVuSans-30" transform="translate(127.246094 0)"/>
       <use xlink:href="#DejaVuSans-30" transform="translate(190.869141 0)"/>
       <use xlink:href="#DejaVuSans-30" transform="translate(254.492188 0)"/>
      </g>
     </g>
    </g>
    <g id="xtick_20">
     <g id="line2d_32">
      <g>
       <use xlink:href="#mc3f09b9550" x="302.338294" y="402.565145" style="stroke: #000000; stroke-width: 0.8"/>
      </g>
     </g>
     <g id="text_36">
      <!-- 70000 -->
      <g transform="translate(286.432044 417.163582) scale(0.1 -0.1)">
       <defs>
        <path id="DejaVuSans-37" d="M 525 4666 
L 3525 4666 
L 3525 4397 
L 1831 0 
L 1172 0 
L 2766 4134 
L 525 4134 
L 525 4666 
z
" transform="scale(0.015625)"/>
       </defs>
       <use xlink:href="#DejaVuSans-37"/>
       <use xlink:href="#DejaVuSans-30" transform="translate(63.623047 0)"/>
       <use xlink:href="#DejaVuSans-30" transform="translate(127.246094 0)"/>
       <use xlink:href="#DejaVuSans-30" transform="translate(190.869141 0)"/>
       <use xlink:href="#DejaVuSans-30" transform="translate(254.492188 0)"/>
      </g>
     </g>
    </g>
    <g id="text_37">
     <!-- event_time_offset [µs] -->
     <g transform="translate(127.293728 430.841707) scale(0.1 -0.1)">
      <use xlink:href="#DejaVuSans-65"/>
      <use xlink:href="#DejaVuSans-76" transform="translate(61.523438 0)"/>
      <use xlink:href="#DejaVuSans-65" transform="translate(120.703125 0)"/>
      <use xlink:href="#DejaVuSans-6e" transform="translate(182.226562 0)"/>
      <use xlink:href="#DejaVuSans-74" transform="translate(245.605469 0)"/>
      <use xlink:href="#DejaVuSans-5f" transform="translate(284.814453 0)"/>
      <use xlink:href="#DejaVuSans-74" transform="translate(334.814453 0)"/>
      <use xlink:href="#DejaVuSans-69" transform="translate(374.023438 0)"/>
      <use xlink:href="#DejaVuSans-6d" transform="translate(401.806641 0)"/>
      <use xlink:href="#DejaVuSans-65" transform="translate(499.21875 0)"/>
      <use xlink:href="#DejaVuSans-5f" transform="translate(560.742188 0)"/>
      <use xlink:href="#DejaVuSans-6f" transform="translate(610.742188 0)"/>
      <use xlink:href="#DejaVuSans-66" transform="translate(671.923828 0)"/>
      <use xlink:href="#DejaVuSans-66" transform="translate(707.128906 0)"/>
      <use xlink:href="#DejaVuSans-73" transform="translate(742.333984 0)"/>
      <use xlink:href="#DejaVuSans-65" transform="translate(794.433594 0)"/>
      <use xlink:href="#DejaVuSans-74" transform="translate(855.957031 0)"/>
      <use xlink:href="#DejaVuSans-20" transform="translate(895.166016 0)"/>
      <use xlink:href="#DejaVuSans-5b" transform="translate(926.953125 0)"/>
      <use xlink:href="#DejaVuSans-b5" transform="translate(965.966797 0)"/>
      <use xlink:href="#DejaVuSans-73" transform="translate(1029.589844 0)"/>
      <use xlink:href="#DejaVuSans-5d" transform="translate(1081.689453 0)"/>
     </g>
    </g>
   </g>
   <g id="matplotlib.axis_6">
    <g id="ytick_11">
     <g id="line2d_33">
      <g>
       <use xlink:href="#meb8471341e" x="46.965625" y="395.099371" style="stroke: #000000; stroke-width: 0.8"/>
      </g>
     </g>
     <g id="text_38">
      <!-- 0 -->
      <g transform="translate(33.603125 398.89859) scale(0.1 -0.1)">
       <use xlink:href="#DejaVuSans-30"/>
      </g>
     </g>
    </g>
    <g id="ytick_12">
     <g id="line2d_34">
      <g>
       <use xlink:href="#meb8471341e" x="46.965625" y="370.296137" style="stroke: #000000; stroke-width: 0.8"/>
      </g>
     </g>
     <g id="text_39">
      <!-- 50 -->
      <g transform="translate(27.240625 374.095355) scale(0.1 -0.1)">
       <use xlink:href="#DejaVuSans-35"/>
       <use xlink:href="#DejaVuSans-30" transform="translate(63.623047 0)"/>
      </g>
     </g>
    </g>
    <g id="ytick_13">
     <g id="line2d_35">
      <g>
       <use xlink:href="#meb8471341e" x="46.965625" y="345.492902" style="stroke: #000000; stroke-width: 0.8"/>
      </g>
     </g>
     <g id="text_40">
      <!-- 100 -->
      <g transform="translate(20.878125 349.292121) scale(0.1 -0.1)">
       <use xlink:href="#DejaVuSans-31"/>
       <use xlink:href="#DejaVuSans-30" transform="translate(63.623047 0)"/>
       <use xlink:href="#DejaVuSans-30" transform="translate(127.246094 0)"/>
      </g>
     </g>
    </g>
    <g id="ytick_14">
     <g id="line2d_36">
      <g>
       <use xlink:href="#meb8471341e" x="46.965625" y="320.689667" style="stroke: #000000; stroke-width: 0.8"/>
      </g>
     </g>
     <g id="text_41">
      <!-- 150 -->
      <g transform="translate(20.878125 324.488886) scale(0.1 -0.1)">
       <use xlink:href="#DejaVuSans-31"/>
       <use xlink:href="#DejaVuSans-35" transform="translate(63.623047 0)"/>
       <use xlink:href="#DejaVuSans-30" transform="translate(127.246094 0)"/>
      </g>
     </g>
    </g>
    <g id="ytick_15">
     <g id="line2d_37">
      <g>
       <use xlink:href="#meb8471341e" x="46.965625" y="295.886433" style="stroke: #000000; stroke-width: 0.8"/>
      </g>
     </g>
     <g id="text_42">
      <!-- 200 -->
      <g transform="translate(20.878125 299.685651) scale(0.1 -0.1)">
       <use xlink:href="#DejaVuSans-32"/>
       <use xlink:href="#DejaVuSans-30" transform="translate(63.623047 0)"/>
       <use xlink:href="#DejaVuSans-30" transform="translate(127.246094 0)"/>
      </g>
     </g>
    </g>
    <g id="ytick_16">
     <g id="line2d_38">
      <g>
       <use xlink:href="#meb8471341e" x="46.965625" y="271.083198" style="stroke: #000000; stroke-width: 0.8"/>
      </g>
     </g>
     <g id="text_43">
      <!-- 250 -->
      <g transform="translate(20.878125 274.882417) scale(0.1 -0.1)">
       <use xlink:href="#DejaVuSans-32"/>
       <use xlink:href="#DejaVuSans-35" transform="translate(63.623047 0)"/>
       <use xlink:href="#DejaVuSans-30" transform="translate(127.246094 0)"/>
      </g>
     </g>
    </g>
    <g id="ytick_17">
     <g id="line2d_39">
      <g>
       <use xlink:href="#meb8471341e" x="46.965625" y="246.279963" style="stroke: #000000; stroke-width: 0.8"/>
      </g>
     </g>
     <g id="text_44">
      <!-- 300 -->
      <g transform="translate(20.878125 250.079182) scale(0.1 -0.1)">
       <use xlink:href="#DejaVuSans-33"/>
       <use xlink:href="#DejaVuSans-30" transform="translate(63.623047 0)"/>
       <use xlink:href="#DejaVuSans-30" transform="translate(127.246094 0)"/>
      </g>
     </g>
    </g>
    <g id="text_45">
     <!-- [counts] -->
     <g transform="translate(14.798437 341.054135) rotate(-90) scale(0.1 -0.1)">
      <use xlink:href="#DejaVuSans-5b"/>
      <use xlink:href="#DejaVuSans-63" transform="translate(39.013672 0)"/>
      <use xlink:href="#DejaVuSans-6f" transform="translate(93.994141 0)"/>
      <use xlink:href="#DejaVuSans-75" transform="translate(155.175781 0)"/>
      <use xlink:href="#DejaVuSans-6e" transform="translate(218.554688 0)"/>
      <use xlink:href="#DejaVuSans-74" transform="translate(281.933594 0)"/>
      <use xlink:href="#DejaVuSans-73" transform="translate(321.142578 0)"/>
      <use xlink:href="#DejaVuSans-5d" transform="translate(373.242188 0)"/>
     </g>
    </g>
   </g>
   <g id="patch_13">
    <path d="M 46.965625 402.565145 
L 46.965625 238.318125 
" style="fill: none; stroke: #000000; stroke-width: 0.8; stroke-linejoin: miter; stroke-linecap: square"/>
   </g>
   <g id="patch_14">
    <path d="M 319.692144 402.565145 
L 319.692144 238.318125 
" style="fill: none; stroke: #000000; stroke-width: 0.8; stroke-linejoin: miter; stroke-linecap: square"/>
   </g>
   <g id="patch_15">
    <path d="M 46.965625 402.565145 
L 319.692144 402.565145 
" style="fill: none; stroke: #000000; stroke-width: 0.8; stroke-linejoin: miter; stroke-linecap: square"/>
   </g>
   <g id="patch_16">
    <path d="M 46.965625 238.318125 
L 319.692144 238.318125 
" style="fill: none; stroke: #000000; stroke-width: 0.8; stroke-linejoin: miter; stroke-linecap: square"/>
   </g>
   <g id="text_46">
    <!-- monitor=80.0 m -->
    <g transform="translate(133.715447 232.318125) scale(0.12 -0.12)">
     <defs>
      <path id="DejaVuSans-72" d="M 2631 2963 
Q 2534 3019 2420 3045 
Q 2306 3072 2169 3072 
Q 1681 3072 1420 2755 
Q 1159 2438 1159 1844 
L 1159 0 
L 581 0 
L 581 3500 
L 1159 3500 
L 1159 2956 
Q 1341 3275 1631 3429 
Q 1922 3584 2338 3584 
Q 2397 3584 2469 3576 
Q 2541 3569 2628 3553 
L 2631 2963 
z
" transform="scale(0.015625)"/>
     </defs>
     <use xlink:href="#DejaVuSans-6d"/>
     <use xlink:href="#DejaVuSans-6f" transform="translate(97.412109 0)"/>
     <use xlink:href="#DejaVuSans-6e" transform="translate(158.59375 0)"/>
     <use xlink:href="#DejaVuSans-69" transform="translate(221.972656 0)"/>
     <use xlink:href="#DejaVuSans-74" transform="translate(249.755859 0)"/>
     <use xlink:href="#DejaVuSans-6f" transform="translate(288.964844 0)"/>
     <use xlink:href="#DejaVuSans-72" transform="translate(350.146484 0)"/>
     <use xlink:href="#DejaVuSans-3d" transform="translate(391.259766 0)"/>
     <use xlink:href="#DejaVuSans-38" transform="translate(475.048828 0)"/>
     <use xlink:href="#DejaVuSans-30" transform="translate(538.671875 0)"/>
     <use xlink:href="#DejaVuSans-2e" transform="translate(602.294922 0)"/>
     <use xlink:href="#DejaVuSans-30" transform="translate(634.082031 0)"/>
     <use xlink:href="#DejaVuSans-20" transform="translate(697.705078 0)"/>
     <use xlink:href="#DejaVuSans-6d" transform="translate(729.492188 0)"/>
    </g>
   </g>
   <g id="line2d_40">
    <path d="M 59.362285 333.091285 
L 60.601951 333.091285 
L 60.601951 323.169991 
L 61.841617 323.169991 
L 61.841617 317.217214 
L 63.081283 317.217214 
L 63.081283 288.941527 
L 64.320949 288.941527 
L 64.320949 282.492686 
L 65.560615 282.492686 
L 65.560615 288.445462 
L 66.800281 288.445462 
L 66.800281 283.484815 
L 69.279613 283.484815 
L 69.279613 270.091069 
L 70.519279 270.091069 
L 70.519279 265.626486 
L 71.758945 265.626486 
L 71.758945 277.035974 
L 72.998611 277.035974 
L 72.998611 264.138292 
L 74.238277 264.138292 
L 74.238277 268.10681 
L 75.477943 268.10681 
L 75.477943 245.783899 
L 76.717609 245.783899 
L 76.717609 267.11468 
L 77.957275 267.11468 
L 77.957275 275.54778 
L 79.196941 275.54778 
L 79.196941 257.689451 
L 80.436607 257.689451 
L 80.436607 261.657969 
L 81.676273 261.657969 
L 81.676273 273.563521 
L 82.915939 273.563521 
L 82.915939 252.23274 
L 84.155605 252.23274 
L 84.155605 253.224869 
L 85.395271 253.224869 
L 85.395271 262.154034 
L 86.634937 262.154034 
L 86.634937 256.201257 
L 87.874603 256.201257 
L 87.874603 277.532039 
L 89.114269 277.532039 
L 89.114269 265.130422 
L 90.353935 265.130422 
L 90.353935 265.626486 
L 91.593601 265.626486 
L 91.593601 268.602875 
L 94.072933 268.602875 
L 94.072933 272.571392 
L 95.312599 272.571392 
L 95.312599 273.563521 
L 96.552265 273.563521 
L 96.552265 278.028104 
L 97.791931 278.028104 
L 97.791931 269.595004 
L 99.031597 269.595004 
L 99.031597 291.42185 
L 100.271263 291.42185 
L 100.271263 279.020233 
L 101.510929 279.020233 
L 101.510929 274.555651 
L 102.750595 274.555651 
L 102.750595 281.996621 
L 103.990261 281.996621 
L 103.990261 275.051716 
L 105.229927 275.051716 
L 105.229927 298.366756 
L 106.469593 298.366756 
L 106.469593 293.902174 
L 108.948925 293.902174 
L 108.948925 285.469074 
L 110.188591 285.469074 
L 110.188591 290.429721 
L 111.428257 290.429721 
L 111.428257 298.862821 
L 112.667923 298.862821 
L 112.667923 301.839209 
L 113.907589 301.839209 
L 113.907589 307.295921 
L 115.147255 307.295921 
L 115.147255 284.973009 
L 116.386921 284.973009 
L 116.386921 292.910045 
L 117.626587 292.910045 
L 117.626587 311.760503 
L 118.866253 311.760503 
L 118.866253 307.791985 
L 120.105919 307.791985 
L 120.105919 290.429721 
L 121.345585 290.429721 
L 121.345585 302.831338 
L 122.585251 302.831338 
L 122.585251 303.327403 
L 123.824917 303.327403 
L 123.824917 307.791985 
L 125.064583 307.791985 
L 125.064583 321.681797 
L 126.304249 321.681797 
L 126.304249 308.28805 
L 127.543915 308.28805 
L 127.543915 311.760503 
L 128.783581 311.760503 
L 128.783581 314.736891 
L 130.023247 314.736891 
L 130.023247 301.839209 
L 131.262913 301.839209 
L 131.262913 312.752632 
L 132.502579 312.752632 
L 132.502579 318.705409 
L 133.742245 318.705409 
L 133.742245 325.15425 
L 134.981911 325.15425 
L 134.981911 317.713279 
L 136.221577 317.713279 
L 136.221577 325.650314 
L 137.461243 325.650314 
L 137.461243 325.15425 
L 138.700909 325.15425 
L 138.700909 313.744762 
L 139.940575 313.744762 
L 139.940575 325.15425 
L 141.180241 325.15425 
L 141.180241 327.634573 
L 143.659573 327.634573 
L 143.659573 328.130638 
L 144.899239 328.130638 
L 144.899239 339.540126 
L 146.138904 339.540126 
L 146.138904 342.516514 
L 147.37857 342.516514 
L 147.37857 354.422067 
L 148.618236 354.422067 
L 148.618236 351.445678 
L 149.857902 351.445678 
L 149.857902 350.453549 
L 151.097568 350.453549 
L 151.097568 360.374843 
L 152.337234 360.374843 
L 152.337234 367.319749 
L 153.5769 367.319749 
L 153.5769 370.296137 
L 154.816566 370.296137 
L 154.816566 373.272525 
L 156.056232 373.272525 
L 156.056232 380.713495 
L 157.295898 380.713495 
L 157.295898 374.760719 
L 158.535564 374.760719 
L 158.535564 376.744978 
L 159.77523 376.744978 
L 159.77523 382.201689 
L 161.014896 382.201689 
L 161.014896 389.64266 
L 162.254562 389.64266 
L 162.254562 391.130854 
L 163.494228 391.130854 
L 163.494228 392.619048 
L 164.733894 392.619048 
L 164.733894 394.603307 
L 165.97356 394.603307 
L 165.97356 394.107242 
L 167.213226 394.107242 
L 167.213226 395.099371 
L 244.072518 395.099371 
L 244.072518 394.603307 
L 245.312184 394.603307 
L 245.312184 395.099371 
L 247.791516 395.099371 
L 247.791516 394.603307 
L 249.031182 394.603307 
L 249.031182 395.099371 
L 253.989846 395.099371 
L 253.989846 394.107242 
L 255.229512 394.107242 
L 255.229512 393.611177 
L 256.469178 393.611177 
L 256.469178 395.099371 
L 257.708844 395.099371 
L 257.708844 394.603307 
L 261.427842 394.603307 
L 261.427842 394.107242 
L 262.667508 394.107242 
L 262.667508 394.603307 
L 263.907174 394.603307 
L 263.907174 394.107242 
L 265.14684 394.107242 
L 265.14684 393.115113 
L 266.386506 393.115113 
L 266.386506 394.603307 
L 267.626172 394.603307 
L 267.626172 393.115113 
L 268.865838 393.115113 
L 268.865838 392.619048 
L 270.105504 392.619048 
L 270.105504 393.611177 
L 271.34517 393.611177 
L 271.34517 392.122983 
L 272.584836 392.122983 
L 272.584836 391.626919 
L 273.824502 391.626919 
L 273.824502 390.138724 
L 275.064168 390.138724 
L 275.064168 394.107242 
L 276.303834 394.107242 
L 276.303834 391.626919 
L 277.5435 391.626919 
L 277.5435 389.64266 
L 278.783166 389.64266 
L 278.783166 390.138724 
L 280.022832 390.138724 
L 280.022832 392.619048 
L 281.262498 392.619048 
L 281.262498 391.130854 
L 282.502164 391.130854 
L 282.502164 387.658401 
L 283.74183 387.658401 
L 283.74183 389.146595 
L 284.981496 389.146595 
L 284.981496 387.162336 
L 286.221162 387.162336 
L 286.221162 385.674142 
L 287.460828 385.674142 
L 287.460828 387.162336 
L 288.700494 387.162336 
L 288.700494 385.178077 
L 289.94016 385.178077 
L 289.94016 383.193819 
L 291.179826 383.193819 
L 291.179826 382.201689 
L 292.419492 382.201689 
L 292.419492 375.752848 
L 293.659158 375.752848 
L 293.659158 375.256784 
L 294.898824 375.256784 
L 294.898824 370.792201 
L 296.13849 370.792201 
L 296.13849 369.800072 
L 297.378156 369.800072 
L 297.378156 366.327619 
L 298.617822 366.327619 
L 298.617822 362.359102 
L 299.857488 362.359102 
L 299.857488 366.823684 
L 301.097154 366.823684 
L 301.097154 356.90239 
L 302.33682 356.90239 
L 302.33682 347.973225 
L 303.576486 347.973225 
L 303.576486 338.547996 
L 304.816152 338.547996 
L 304.816152 349.46142 
L 306.055818 349.46142 
L 306.055818 343.508643 
L 307.295484 343.508643 
L 307.295484 343.508643 
" clip-path="url(#p458f8b5b26)" style="fill: none; stroke: #2ca02c; stroke-width: 1.5; stroke-linecap: square"/>
   </g>
  </g>
  <g id="axes_4">
   <g id="patch_17">
    <path d="M 365.937769 402.565145 
L 638.664287 402.565145 
L 638.664287 238.318125 
L 365.937769 238.318125 
z
" style="fill: #ffffff"/>
   </g>
   <g id="matplotlib.axis_7">
    <g id="xtick_21">
     <g id="line2d_41">
      <g>
       <use xlink:href="#mc3f09b9550" x="378.321364" y="402.565145" style="stroke: #000000; stroke-width: 0.8"/>
      </g>
     </g>
     <g id="text_47">
      <!-- 0 -->
      <g transform="translate(375.140114 417.163582) scale(0.1 -0.1)">
       <use xlink:href="#DejaVuSans-30"/>
      </g>
     </g>
    </g>
    <g id="xtick_22">
     <g id="line2d_42">
      <g>
       <use xlink:href="#mc3f09b9550" x="413.037454" y="402.565145" style="stroke: #000000; stroke-width: 0.8"/>
      </g>
     </g>
     <g id="text_48">
      <!-- 10000 -->
      <g transform="translate(397.131204 417.163582) scale(0.1 -0.1)">
       <use xlink:href="#DejaVuSans-31"/>
       <use xlink:href="#DejaVuSans-30" transform="translate(63.623047 0)"/>
       <use xlink:href="#DejaVuSans-30" transform="translate(127.246094 0)"/>
       <use xlink:href="#DejaVuSans-30" transform="translate(190.869141 0)"/>
       <use xlink:href="#DejaVuSans-30" transform="translate(254.492188 0)"/>
      </g>
     </g>
    </g>
    <g id="xtick_23">
     <g id="line2d_43">
      <g>
       <use xlink:href="#mc3f09b9550" x="447.753543" y="402.565145" style="stroke: #000000; stroke-width: 0.8"/>
      </g>
     </g>
     <g id="text_49">
      <!-- 20000 -->
      <g transform="translate(431.847293 417.163582) scale(0.1 -0.1)">
       <use xlink:href="#DejaVuSans-32"/>
       <use xlink:href="#DejaVuSans-30" transform="translate(63.623047 0)"/>
       <use xlink:href="#DejaVuSans-30" transform="translate(127.246094 0)"/>
       <use xlink:href="#DejaVuSans-30" transform="translate(190.869141 0)"/>
       <use xlink:href="#DejaVuSans-30" transform="translate(254.492188 0)"/>
      </g>
     </g>
    </g>
    <g id="xtick_24">
     <g id="line2d_44">
      <g>
       <use xlink:href="#mc3f09b9550" x="482.469633" y="402.565145" style="stroke: #000000; stroke-width: 0.8"/>
      </g>
     </g>
     <g id="text_50">
      <!-- 30000 -->
      <g transform="translate(466.563383 417.163582) scale(0.1 -0.1)">
       <use xlink:href="#DejaVuSans-33"/>
       <use xlink:href="#DejaVuSans-30" transform="translate(63.623047 0)"/>
       <use xlink:href="#DejaVuSans-30" transform="translate(127.246094 0)"/>
       <use xlink:href="#DejaVuSans-30" transform="translate(190.869141 0)"/>
       <use xlink:href="#DejaVuSans-30" transform="translate(254.492188 0)"/>
      </g>
     </g>
    </g>
    <g id="xtick_25">
     <g id="line2d_45">
      <g>
       <use xlink:href="#mc3f09b9550" x="517.185723" y="402.565145" style="stroke: #000000; stroke-width: 0.8"/>
      </g>
     </g>
     <g id="text_51">
      <!-- 40000 -->
      <g transform="translate(501.279473 417.163582) scale(0.1 -0.1)">
       <use xlink:href="#DejaVuSans-34"/>
       <use xlink:href="#DejaVuSans-30" transform="translate(63.623047 0)"/>
       <use xlink:href="#DejaVuSans-30" transform="translate(127.246094 0)"/>
       <use xlink:href="#DejaVuSans-30" transform="translate(190.869141 0)"/>
       <use xlink:href="#DejaVuSans-30" transform="translate(254.492188 0)"/>
      </g>
     </g>
    </g>
    <g id="xtick_26">
     <g id="line2d_46">
      <g>
       <use xlink:href="#mc3f09b9550" x="551.901812" y="402.565145" style="stroke: #000000; stroke-width: 0.8"/>
      </g>
     </g>
     <g id="text_52">
      <!-- 50000 -->
      <g transform="translate(535.995562 417.163582) scale(0.1 -0.1)">
       <use xlink:href="#DejaVuSans-35"/>
       <use xlink:href="#DejaVuSans-30" transform="translate(63.623047 0)"/>
       <use xlink:href="#DejaVuSans-30" transform="translate(127.246094 0)"/>
       <use xlink:href="#DejaVuSans-30" transform="translate(190.869141 0)"/>
       <use xlink:href="#DejaVuSans-30" transform="translate(254.492188 0)"/>
      </g>
     </g>
    </g>
    <g id="xtick_27">
     <g id="line2d_47">
      <g>
       <use xlink:href="#mc3f09b9550" x="586.617902" y="402.565145" style="stroke: #000000; stroke-width: 0.8"/>
      </g>
     </g>
     <g id="text_53">
      <!-- 60000 -->
      <g transform="translate(570.711652 417.163582) scale(0.1 -0.1)">
       <use xlink:href="#DejaVuSans-36"/>
       <use xlink:href="#DejaVuSans-30" transform="translate(63.623047 0)"/>
       <use xlink:href="#DejaVuSans-30" transform="translate(127.246094 0)"/>
       <use xlink:href="#DejaVuSans-30" transform="translate(190.869141 0)"/>
       <use xlink:href="#DejaVuSans-30" transform="translate(254.492188 0)"/>
      </g>
     </g>
    </g>
    <g id="xtick_28">
     <g id="line2d_48">
      <g>
       <use xlink:href="#mc3f09b9550" x="621.333992" y="402.565145" style="stroke: #000000; stroke-width: 0.8"/>
      </g>
     </g>
     <g id="text_54">
      <!-- 70000 -->
      <g transform="translate(605.427742 417.163582) scale(0.1 -0.1)">
       <use xlink:href="#DejaVuSans-37"/>
       <use xlink:href="#DejaVuSans-30" transform="translate(63.623047 0)"/>
       <use xlink:href="#DejaVuSans-30" transform="translate(127.246094 0)"/>
       <use xlink:href="#DejaVuSans-30" transform="translate(190.869141 0)"/>
       <use xlink:href="#DejaVuSans-30" transform="translate(254.492188 0)"/>
      </g>
     </g>
    </g>
    <g id="text_55">
     <!-- event_time_offset [µs] -->
     <g transform="translate(446.265872 430.841707) scale(0.1 -0.1)">
      <use xlink:href="#DejaVuSans-65"/>
      <use xlink:href="#DejaVuSans-76" transform="translate(61.523438 0)"/>
      <use xlink:href="#DejaVuSans-65" transform="translate(120.703125 0)"/>
      <use xlink:href="#DejaVuSans-6e" transform="translate(182.226562 0)"/>
      <use xlink:href="#DejaVuSans-74" transform="translate(245.605469 0)"/>
      <use xlink:href="#DejaVuSans-5f" transform="translate(284.814453 0)"/>
      <use xlink:href="#DejaVuSans-74" transform="translate(334.814453 0)"/>
      <use xlink:href="#DejaVuSans-69" transform="translate(374.023438 0)"/>
      <use xlink:href="#DejaVuSans-6d" transform="translate(401.806641 0)"/>
      <use xlink:href="#DejaVuSans-65" transform="translate(499.21875 0)"/>
      <use xlink:href="#DejaVuSans-5f" transform="translate(560.742188 0)"/>
      <use xlink:href="#DejaVuSans-6f" transform="translate(610.742188 0)"/>
      <use xlink:href="#DejaVuSans-66" transform="translate(671.923828 0)"/>
      <use xlink:href="#DejaVuSans-66" transform="translate(707.128906 0)"/>
      <use xlink:href="#DejaVuSans-73" transform="translate(742.333984 0)"/>
      <use xlink:href="#DejaVuSans-65" transform="translate(794.433594 0)"/>
      <use xlink:href="#DejaVuSans-74" transform="translate(855.957031 0)"/>
      <use xlink:href="#DejaVuSans-20" transform="translate(895.166016 0)"/>
      <use xlink:href="#DejaVuSans-5b" transform="translate(926.953125 0)"/>
      <use xlink:href="#DejaVuSans-b5" transform="translate(965.966797 0)"/>
      <use xlink:href="#DejaVuSans-73" transform="translate(1029.589844 0)"/>
      <use xlink:href="#DejaVuSans-5d" transform="translate(1081.689453 0)"/>
     </g>
    </g>
   </g>
   <g id="matplotlib.axis_8">
    <g id="ytick_18">
     <g id="line2d_49">
      <g>
       <use xlink:href="#meb8471341e" x="365.937769" y="395.099371" style="stroke: #000000; stroke-width: 0.8"/>
      </g>
     </g>
     <g id="text_56">
      <!-- 0 -->
      <g transform="translate(352.575269 398.89859) scale(0.1 -0.1)">
       <use xlink:href="#DejaVuSans-30"/>
      </g>
     </g>
    </g>
    <g id="ytick_19">
     <g id="line2d_50">
      <g>
       <use xlink:href="#meb8471341e" x="365.937769" y="361.009081" style="stroke: #000000; stroke-width: 0.8"/>
      </g>
     </g>
     <g id="text_57">
      <!-- 50 -->
      <g transform="translate(346.212769 364.8083) scale(0.1 -0.1)">
       <use xlink:href="#DejaVuSans-35"/>
       <use xlink:href="#DejaVuSans-30" transform="translate(63.623047 0)"/>
      </g>
     </g>
    </g>
    <g id="ytick_20">
     <g id="line2d_51">
      <g>
       <use xlink:href="#meb8471341e" x="365.937769" y="326.91879" style="stroke: #000000; stroke-width: 0.8"/>
      </g>
     </g>
     <g id="text_58">
      <!-- 100 -->
      <g transform="translate(339.850269 330.718009) scale(0.1 -0.1)">
       <use xlink:href="#DejaVuSans-31"/>
       <use xlink:href="#DejaVuSans-30" transform="translate(63.623047 0)"/>
       <use xlink:href="#DejaVuSans-30" transform="translate(127.246094 0)"/>
      </g>
     </g>
    </g>
    <g id="ytick_21">
     <g id="line2d_52">
      <g>
       <use xlink:href="#meb8471341e" x="365.937769" y="292.8285" style="stroke: #000000; stroke-width: 0.8"/>
      </g>
     </g>
     <g id="text_59">
      <!-- 150 -->
      <g transform="translate(339.850269 296.627718) scale(0.1 -0.1)">
       <use xlink:href="#DejaVuSans-31"/>
       <use xlink:href="#DejaVuSans-35" transform="translate(63.623047 0)"/>
       <use xlink:href="#DejaVuSans-30" transform="translate(127.246094 0)"/>
      </g>
     </g>
    </g>
    <g id="ytick_22">
     <g id="line2d_53">
      <g>
       <use xlink:href="#meb8471341e" x="365.937769" y="258.738209" style="stroke: #000000; stroke-width: 0.8"/>
      </g>
     </g>
     <g id="text_60">
      <!-- 200 -->
      <g transform="translate(339.850269 262.537428) scale(0.1 -0.1)">
       <use xlink:href="#DejaVuSans-32"/>
       <use xlink:href="#DejaVuSans-30" transform="translate(63.623047 0)"/>
       <use xlink:href="#DejaVuSans-30" transform="translate(127.246094 0)"/>
      </g>
     </g>
    </g>
    <g id="text_61">
     <!-- [counts] -->
     <g transform="translate(333.770581 341.054135) rotate(-90) scale(0.1 -0.1)">
      <use xlink:href="#DejaVuSans-5b"/>
      <use xlink:href="#DejaVuSans-63" transform="translate(39.013672 0)"/>
      <use xlink:href="#DejaVuSans-6f" transform="translate(93.994141 0)"/>
      <use xlink:href="#DejaVuSans-75" transform="translate(155.175781 0)"/>
      <use xlink:href="#DejaVuSans-6e" transform="translate(218.554688 0)"/>
      <use xlink:href="#DejaVuSans-74" transform="translate(281.933594 0)"/>
      <use xlink:href="#DejaVuSans-73" transform="translate(321.142578 0)"/>
      <use xlink:href="#DejaVuSans-5d" transform="translate(373.242188 0)"/>
     </g>
    </g>
   </g>
   <g id="patch_18">
    <path d="M 365.937769 402.565145 
L 365.937769 238.318125 
" style="fill: none; stroke: #000000; stroke-width: 0.8; stroke-linejoin: miter; stroke-linecap: square"/>
   </g>
   <g id="patch_19">
    <path d="M 638.664287 402.565145 
L 638.664287 238.318125 
" style="fill: none; stroke: #000000; stroke-width: 0.8; stroke-linejoin: miter; stroke-linecap: square"/>
   </g>
   <g id="patch_20">
    <path d="M 365.937769 402.565145 
L 638.664287 402.565145 
" style="fill: none; stroke: #000000; stroke-width: 0.8; stroke-linejoin: miter; stroke-linecap: square"/>
   </g>
   <g id="patch_21">
    <path d="M 365.937769 238.318125 
L 638.664287 238.318125 
" style="fill: none; stroke: #000000; stroke-width: 0.8; stroke-linejoin: miter; stroke-linecap: square"/>
   </g>
   <g id="text_62">
    <!-- detector=108.0 m -->
    <g transform="translate(447.011028 232.318125) scale(0.12 -0.12)">
     <defs>
      <path id="DejaVuSans-64" d="M 2906 2969 
L 2906 4863 
L 3481 4863 
L 3481 0 
L 2906 0 
L 2906 525 
Q 2725 213 2448 61 
Q 2172 -91 1784 -91 
Q 1150 -91 751 415 
Q 353 922 353 1747 
Q 353 2572 751 3078 
Q 1150 3584 1784 3584 
Q 2172 3584 2448 3432 
Q 2725 3281 2906 2969 
z
M 947 1747 
Q 947 1113 1208 752 
Q 1469 391 1925 391 
Q 2381 391 2643 752 
Q 2906 1113 2906 1747 
Q 2906 2381 2643 2742 
Q 2381 3103 1925 3103 
Q 1469 3103 1208 2742 
Q 947 2381 947 1747 
z
" transform="scale(0.015625)"/>
     </defs>
     <use xlink:href="#DejaVuSans-64"/>
     <use xlink:href="#DejaVuSans-65" transform="translate(63.476562 0)"/>
     <use xlink:href="#DejaVuSans-74" transform="translate(125 0)"/>
     <use xlink:href="#DejaVuSans-65" transform="translate(164.208984 0)"/>
     <use xlink:href="#DejaVuSans-63" transform="translate(225.732422 0)"/>
     <use xlink:href="#DejaVuSans-74" transform="translate(280.712891 0)"/>
     <use xlink:href="#DejaVuSans-6f" transform="translate(319.921875 0)"/>
     <use xlink:href="#DejaVuSans-72" transform="translate(381.103516 0)"/>
     <use xlink:href="#DejaVuSans-3d" transform="translate(422.216797 0)"/>
     <use xlink:href="#DejaVuSans-31" transform="translate(506.005859 0)"/>
     <use xlink:href="#DejaVuSans-30" transform="translate(569.628906 0)"/>
     <use xlink:href="#DejaVuSans-38" transform="translate(633.251953 0)"/>
     <use xlink:href="#DejaVuSans-2e" transform="translate(696.875 0)"/>
     <use xlink:href="#DejaVuSans-30" transform="translate(728.662109 0)"/>
     <use xlink:href="#DejaVuSans-20" transform="translate(792.285156 0)"/>
     <use xlink:href="#DejaVuSans-6d" transform="translate(824.072266 0)"/>
    </g>
   </g>
   <g id="line2d_54">
    <path d="M 378.334429 290.101276 
L 379.574095 290.101276 
L 379.574095 293.510305 
L 380.813761 293.510305 
L 380.813761 304.419198 
L 382.053427 304.419198 
L 382.053427 320.100732 
L 383.293093 320.100732 
L 383.293093 306.464616 
L 384.532759 306.464616 
L 384.532759 285.328636 
L 385.772425 285.328636 
L 385.772425 299.646558 
L 387.012091 299.646558 
L 387.012091 307.828227 
L 388.251757 307.828227 
L 388.251757 309.191839 
L 389.491422 309.191839 
L 389.491422 309.873645 
L 390.731088 309.873645 
L 390.731088 309.191839 
L 391.970754 309.191839 
L 391.970754 324.191567 
L 393.21042 324.191567 
L 393.21042 310.555451 
L 394.450086 310.555451 
L 394.450086 316.009897 
L 395.689752 316.009897 
L 395.689752 307.146422 
L 396.929418 307.146422 
L 396.929418 313.96448 
L 398.169084 313.96448 
L 398.169084 296.919335 
L 399.40875 296.919335 
L 399.40875 314.646286 
L 400.648416 314.646286 
L 400.648416 319.418926 
L 401.888082 319.418926 
L 401.888082 314.646286 
L 403.127748 314.646286 
L 403.127748 329.646013 
L 404.367414 329.646013 
L 404.367414 328.964208 
L 405.60708 328.964208 
L 405.60708 309.191839 
L 406.846746 309.191839 
L 406.846746 322.14615 
L 408.086412 322.14615 
L 408.086412 331.009625 
L 409.326078 331.009625 
L 409.326078 320.100732 
L 410.565744 320.100732 
L 410.565744 311.919062 
L 411.80541 311.919062 
L 411.80541 328.282402 
L 413.045076 328.282402 
L 413.045076 318.055315 
L 414.284742 318.055315 
L 414.284742 337.145877 
L 415.524408 337.145877 
L 415.524408 330.327819 
L 416.764074 330.327819 
L 416.764074 326.236984 
L 418.00374 326.236984 
L 418.00374 328.282402 
L 419.243406 328.282402 
L 419.243406 342.600324 
L 420.483072 342.600324 
L 420.483072 341.236712 
L 421.722738 341.236712 
L 421.722738 354.872828 
L 422.962404 354.872828 
L 422.962404 348.736576 
L 424.20207 348.736576 
L 424.20207 350.100188 
L 425.441736 350.100188 
L 425.441736 352.827411 
L 426.681402 352.827411 
L 426.681402 354.191023 
L 427.921068 354.191023 
L 427.921068 360.327275 
L 429.160734 360.327275 
L 429.160734 367.827139 
L 430.4004 367.827139 
L 430.4004 369.190751 
L 431.640066 369.190751 
L 431.640066 373.281585 
L 432.879732 373.281585 
L 432.879732 372.59978 
L 434.119398 372.59978 
L 434.119398 381.463255 
L 435.359064 381.463255 
L 435.359064 376.690614 
L 437.838396 376.690614 
L 437.838396 376.008809 
L 439.078062 376.008809 
L 439.078062 379.417838 
L 440.317728 379.417838 
L 440.317728 384.872284 
L 441.557394 384.872284 
L 441.557394 391.690342 
L 442.79706 391.690342 
L 442.79706 391.008536 
L 445.276392 391.008536 
L 445.276392 394.417566 
L 450.235056 394.417566 
L 450.235056 395.099371 
L 460.152384 395.099371 
L 460.152384 394.417566 
L 461.39205 394.417566 
L 461.39205 395.099371 
L 466.350714 395.099371 
L 466.350714 394.417566 
L 467.59038 394.417566 
L 467.59038 395.099371 
L 473.78871 395.099371 
L 473.78871 393.73576 
L 475.028376 393.73576 
L 475.028376 395.099371 
L 476.268042 395.099371 
L 476.268042 393.053954 
L 477.507708 393.053954 
L 477.507708 395.099371 
L 478.747374 395.099371 
L 478.747374 394.417566 
L 479.98704 394.417566 
L 479.98704 395.099371 
L 481.226706 395.099371 
L 481.226706 394.417566 
L 482.466372 394.417566 
L 482.466372 395.099371 
L 483.706038 395.099371 
L 483.706038 393.73576 
L 484.945704 393.73576 
L 484.945704 394.417566 
L 486.18537 394.417566 
L 486.18537 395.099371 
L 487.425036 395.099371 
L 487.425036 394.417566 
L 488.664702 394.417566 
L 488.664702 393.73576 
L 489.904368 393.73576 
L 489.904368 392.372148 
L 491.144034 392.372148 
L 491.144034 394.417566 
L 493.623366 394.417566 
L 493.623366 393.73576 
L 494.863032 393.73576 
L 494.863032 391.008536 
L 496.102698 391.008536 
L 496.102698 393.73576 
L 498.58203 393.73576 
L 498.58203 391.690342 
L 499.821696 391.690342 
L 499.821696 393.053954 
L 501.061362 393.053954 
L 501.061362 391.008536 
L 502.301028 391.008536 
L 502.301028 389.644925 
L 503.540694 389.644925 
L 503.540694 393.73576 
L 504.78036 393.73576 
L 504.78036 391.690342 
L 507.259692 391.690342 
L 507.259692 391.008536 
L 508.499358 391.008536 
L 508.499358 389.644925 
L 509.739024 389.644925 
L 509.739024 392.372148 
L 510.97869 392.372148 
L 510.97869 391.008536 
L 512.218356 391.008536 
L 512.218356 389.644925 
L 513.458022 389.644925 
L 513.458022 388.281313 
L 514.697688 388.281313 
L 514.697688 391.008536 
L 515.937354 391.008536 
L 515.937354 386.917702 
L 517.17702 386.917702 
L 517.17702 387.599507 
L 518.416686 387.599507 
L 518.416686 386.917702 
L 519.656352 386.917702 
L 519.656352 384.872284 
L 520.896018 384.872284 
L 520.896018 391.008536 
L 522.135684 391.008536 
L 522.135684 384.190478 
L 523.37535 384.190478 
L 523.37535 383.508673 
L 524.615016 383.508673 
L 524.615016 384.190478 
L 525.854682 384.190478 
L 525.854682 382.145061 
L 527.094348 382.145061 
L 527.094348 380.099644 
L 528.334014 380.099644 
L 528.334014 371.917974 
L 529.57368 371.917974 
L 529.57368 378.054226 
L 530.813346 378.054226 
L 530.813346 367.827139 
L 532.053012 367.827139 
L 532.053012 372.59978 
L 533.292678 372.59978 
L 533.292678 371.236168 
L 534.532344 371.236168 
L 534.532344 365.781721 
L 535.77201 365.781721 
L 535.77201 360.327275 
L 537.011676 360.327275 
L 537.011676 365.781721 
L 538.251342 365.781721 
L 538.251342 369.872556 
L 539.491008 369.872556 
L 539.491008 355.554634 
L 540.730674 355.554634 
L 540.730674 351.463799 
L 541.97034 351.463799 
L 541.97034 347.372965 
L 543.210006 347.372965 
L 543.210006 341.236712 
L 544.449672 341.236712 
L 544.449672 352.827411 
L 545.689338 352.827411 
L 545.689338 341.236712 
L 546.929004 341.236712 
L 546.929004 340.554906 
L 548.16867 340.554906 
L 548.16867 336.464072 
L 549.408336 336.464072 
L 549.408336 330.327819 
L 550.648002 330.327819 
L 550.648002 322.14615 
L 551.887668 322.14615 
L 551.887668 316.691703 
L 553.127334 316.691703 
L 553.127334 300.328364 
L 554.367 300.328364 
L 554.367 281.237801 
L 555.606666 281.237801 
L 555.606666 285.328636 
L 556.846332 285.328636 
L 556.846332 284.64683 
L 558.085998 284.64683 
L 558.085998 291.464888 
L 559.325664 291.464888 
L 559.325664 276.46516 
L 560.56533 276.46516 
L 560.56533 282.601412 
L 561.804996 282.601412 
L 561.804996 268.28349 
L 563.044662 268.28349 
L 563.044662 267.601685 
L 564.284328 267.601685 
L 564.284328 275.101549 
L 565.523994 275.101549 
L 565.523994 274.419743 
L 566.76366 274.419743 
L 566.76366 268.28349 
L 568.003326 268.28349 
L 568.003326 267.601685 
L 569.242992 267.601685 
L 569.242992 264.874461 
L 570.482658 264.874461 
L 570.482658 245.783899 
L 571.722324 245.783899 
L 571.722324 270.328908 
L 572.96199 270.328908 
L 572.96199 265.556267 
L 574.201656 265.556267 
L 574.201656 276.46516 
L 575.441322 276.46516 
L 575.441322 250.556539 
L 576.680988 250.556539 
L 576.680988 268.28349 
L 577.920654 268.28349 
L 577.920654 265.556267 
L 579.16032 265.556267 
L 579.16032 269.647102 
L 580.399986 269.647102 
L 580.399986 270.328908 
L 581.639652 270.328908 
L 581.639652 245.783899 
L 582.879318 245.783899 
L 582.879318 258.738209 
L 584.118984 258.738209 
L 584.118984 251.238345 
L 585.35865 251.238345 
L 585.35865 264.874461 
L 586.598315 264.874461 
L 586.598315 271.692519 
L 587.837981 271.692519 
L 587.837981 276.46516 
L 589.077647 276.46516 
L 589.077647 264.192656 
L 590.317313 264.192656 
L 590.317313 272.374325 
L 591.556979 272.374325 
L 591.556979 262.829044 
L 592.796645 262.829044 
L 592.796645 271.010714 
L 594.036311 271.010714 
L 594.036311 263.51085 
L 595.275977 263.51085 
L 595.275977 277.828772 
L 597.755309 277.828772 
L 597.755309 275.783354 
L 598.994975 275.783354 
L 598.994975 275.101549 
L 600.234641 275.101549 
L 600.234641 266.238073 
L 601.474307 266.238073 
L 601.474307 278.510578 
L 602.713973 278.510578 
L 602.713973 292.146694 
L 603.953639 292.146694 
L 603.953639 289.419471 
L 605.193305 289.419471 
L 605.193305 279.192383 
L 607.672637 279.192383 
L 607.672637 269.647102 
L 608.912303 269.647102 
L 608.912303 288.055859 
L 610.151969 288.055859 
L 610.151969 278.510578 
L 611.391635 278.510578 
L 611.391635 283.965024 
L 612.631301 283.965024 
L 612.631301 296.237529 
L 613.870967 296.237529 
L 613.870967 303.737393 
L 615.110633 303.737393 
L 615.110633 286.010442 
L 616.350299 286.010442 
L 616.350299 294.873917 
L 617.589965 294.873917 
L 617.589965 288.737665 
L 618.829631 288.737665 
L 618.829631 292.146694 
L 620.069297 292.146694 
L 620.069297 294.192111 
L 621.308963 294.192111 
L 621.308963 308.510033 
L 622.548629 308.510033 
L 622.548629 301.691975 
L 623.788295 301.691975 
L 623.788295 305.101004 
L 625.027961 305.101004 
L 625.027961 290.101276 
L 626.267627 290.101276 
L 626.267627 290.101276 
" clip-path="url(#p280f551653)" style="fill: none; stroke: #d62728; stroke-width: 1.5; stroke-linecap: square"/>
   </g>
  </g>
 </g>
 <defs>
  <clipPath id="pda55035286">
   <rect x="46.965625" y="22.318125" width="272.726519" height="164.24702"/>
  </clipPath>
  <clipPath id="pd261f4d4f0">
   <rect x="365.937769" y="22.318125" width="272.726519" height="164.24702"/>
  </clipPath>
  <clipPath id="p458f8b5b26">
   <rect x="46.965625" y="238.318125" width="272.726519" height="164.24702"/>
  </clipPath>
  <clipPath id="p280f551653">
   <rect x="365.937769" y="238.318125" width="272.726519" height="164.24702"/>
  </clipPath>
 </defs>
</svg>
