<?xml version="1.0" encoding="utf-8" standalone="no"?>
<!DOCTYPE svg PUBLIC "-//W3C//DTD SVG 1.1//EN"
  "http://www.w3.org/Graphics/SVG/1.1/DTD/svg11.dtd">
<svg xmlns:xlink="http://www.w3.org/1999/xlink" width="395.328125pt" height="266.794375pt" viewBox="0 0 395.328125 266.794375" xmlns="http://www.w3.org/2000/svg" version="1.1">
 <metadata>
  <rdf:RDF xmlns:dc="http://purl.org/dc/elements/1.1/" xmlns:cc="http://creativecommons.org/ns#" xmlns:rdf="http://www.w3.org/1999/02/22-rdf-syntax-ns#">
   <cc:Work>
    <dc:type rdf:resource="http://purl.org/dc/dcmitype/StillImage"/>
    <dc:date>2026-02-12T13:04:48.992141</dc:date>
    <dc:format>image/svg+xml</dc:format>
    <dc:creator>
     <cc:Agent>
      <dc:title>Matplotlib v3.10.8, https://matplotlib.org/</dc:title>
     </cc:Agent>
    </dc:creator>
   </cc:Work>
  </rdf:RDF>
 </metadata>
 <defs>
  <style type="text/css">*{stroke-linejoin: round; stroke-linecap: butt}</style>
 </defs>
 <g id="figure_1">
  <g id="patch_1">
   <path d="M 0 266.794375 
L 395.328125 266.794375 
L 395.328125 0 
L 0 0 
z
" style="fill: #ffffff"/>
  </g>
  <g id="axes_1">
   <g id="patch_2">
    <path d="M 53.328125 228.96 
L 388.128125 228.96 
L 388.128125 7.2 
L 53.328125 7.2 
z
" style="fill: #ffffff"/>
   </g>
   <g id="matplotlib.axis_1">
    <g id="xtick_1">
     <g id="line2d_1">
      <defs>
       <path id="mcf2206c1c0" d="M 0 0 
L 0 3.5 
" style="stroke: #000000; stroke-width: 0.8"/>
      </defs>
      <g>
       <use xlink:href="#mcf2206c1c0" x="94.27436" y="228.96" style="stroke: #000000; stroke-width: 0.8"/>
      </g>
     </g>
     <g id="text_1">
      <!-- 20000 -->
      <g transform="translate(78.36811 243.558437) scale(0.1 -0.1)">
       <defs>
        <path id="DejaVuSans-32" d="M 1228 531 
L 3431 531 
L 3431 0 
L 469 0 
L 469 531 
Q 828 903 1448 1529 
Q 2069 2156 2228 2338 
Q 2531 2678 2651 2914 
Q 2772 3150 2772 3378 
Q 2772 3750 2511 3984 
Q 2250 4219 1831 4219 
Q 1534 4219 1204 4116 
Q 875 4013 500 3803 
L 500 4441 
Q 881 4594 1212 4672 
Q 1544 4750 1819 4750 
Q 2544 4750 2975 4387 
Q 3406 4025 3406 3419 
Q 3406 3131 3298 2873 
Q 3191 2616 2906 2266 
Q 2828 2175 2409 1742 
Q 1991 1309 1228 531 
z
" transform="scale(0.015625)"/>
        <path id="DejaVuSans-30" d="M 2034 4250 
Q 1547 4250 1301 3770 
Q 1056 3291 1056 2328 
Q 1056 1369 1301 889 
Q 1547 409 2034 409 
Q 2525 409 2770 889 
Q 3016 1369 3016 2328 
Q 3016 3291 2770 3770 
Q 2525 4250 2034 4250 
z
M 2034 4750 
Q 2819 4750 3233 4129 
Q 3647 3509 3647 2328 
Q 3647 1150 3233 529 
Q 2819 -91 2034 -91 
Q 1250 -91 836 529 
Q 422 1150 422 2328 
Q 422 3509 836 4129 
Q 1250 4750 2034 4750 
z
" transform="scale(0.015625)"/>
       </defs>
       <use xlink:href="#DejaVuSans-32"/>
       <use xlink:href="#DejaVuSans-30" transform="translate(63.623047 0)"/>
       <use xlink:href="#DejaVuSans-30" transform="translate(127.246094 0)"/>
       <use xlink:href="#DejaVuSans-30" transform="translate(190.869141 0)"/>
       <use xlink:href="#DejaVuSans-30" transform="translate(254.492188 0)"/>
      </g>
     </g>
    </g>
    <g id="xtick_2">
     <g id="line2d_2">
      <g>
       <use xlink:href="#mcf2206c1c0" x="159.753726" y="228.96" style="stroke: #000000; stroke-width: 0.8"/>
      </g>
     </g>
     <g id="text_2">
      <!-- 30000 -->
      <g transform="translate(143.847476 243.558437) scale(0.1 -0.1)">
       <defs>
        <path id="DejaVuSans-33" d="M 2597 2516 
Q 3050 2419 3304 2112 
Q 3559 1806 3559 1356 
Q 3559 666 3084 287 
Q 2609 -91 1734 -91 
Q 1441 -91 1130 -33 
Q 819 25 488 141 
L 488 750 
Q 750 597 1062 519 
Q 1375 441 1716 441 
Q 2309 441 2620 675 
Q 2931 909 2931 1356 
Q 2931 1769 2642 2001 
Q 2353 2234 1838 2234 
L 1294 2234 
L 1294 2753 
L 1863 2753 
Q 2328 2753 2575 2939 
Q 2822 3125 2822 3475 
Q 2822 3834 2567 4026 
Q 2313 4219 1838 4219 
Q 1578 4219 1281 4162 
Q 984 4106 628 3988 
L 628 4550 
Q 988 4650 1302 4700 
Q 1616 4750 1894 4750 
Q 2613 4750 3031 4423 
Q 3450 4097 3450 3541 
Q 3450 3153 3228 2886 
Q 3006 2619 2597 2516 
z
" transform="scale(0.015625)"/>
       </defs>
       <use xlink:href="#DejaVuSans-33"/>
       <use xlink:href="#DejaVuSans-30" transform="translate(63.623047 0)"/>
       <use xlink:href="#DejaVuSans-30" transform="translate(127.246094 0)"/>
       <use xlink:href="#DejaVuSans-30" transform="translate(190.869141 0)"/>
       <use xlink:href="#DejaVuSans-30" transform="translate(254.492188 0)"/>
      </g>
     </g>
    </g>
    <g id="xtick_3">
     <g id="line2d_3">
      <g>
       <use xlink:href="#mcf2206c1c0" x="225.233092" y="228.96" style="stroke: #000000; stroke-width: 0.8"/>
      </g>
     </g>
     <g id="text_3">
      <!-- 40000 -->
      <g transform="translate(209.326842 243.558437) scale(0.1 -0.1)">
       <defs>
        <path id="DejaVuSans-34" d="M 2419 4116 
L 825 1625 
L 2419 1625 
L 2419 4116 
z
M 2253 4666 
L 3047 4666 
L 3047 1625 
L 3713 1625 
L 3713 1100 
L 3047 1100 
L 3047 0 
L 2419 0 
L 2419 1100 
L 313 1100 
L 313 1709 
L 2253 4666 
z
" transform="scale(0.015625)"/>
       </defs>
       <use xlink:href="#DejaVuSans-34"/>
       <use xlink:href="#DejaVuSans-30" transform="translate(63.623047 0)"/>
       <use xlink:href="#DejaVuSans-30" transform="translate(127.246094 0)"/>
       <use xlink:href="#DejaVuSans-30" transform="translate(190.869141 0)"/>
       <use xlink:href="#DejaVuSans-30" transform="translate(254.492188 0)"/>
      </g>
     </g>
    </g>
    <g id="xtick_4">
     <g id="line2d_4">
      <g>
       <use xlink:href="#mcf2206c1c0" x="290.712459" y="228.96" style="stroke: #000000; stroke-width: 0.8"/>
      </g>
     </g>
     <g id="text_4">
      <!-- 50000 -->
      <g transform="translate(274.806209 243.558437) scale(0.1 -0.1)">
       <defs>
        <path id="DejaVuSans-35" d="M 691 4666 
L 3169 4666 
L 3169 4134 
L 1269 4134 
L 1269 2991 
Q 1406 3038 1543 3061 
Q 1681 3084 1819 3084 
Q 2600 3084 3056 2656 
Q 3513 2228 3513 1497 
Q 3513 744 3044 326 
Q 2575 -91 1722 -91 
Q 1428 -91 1123 -41 
Q 819 9 494 109 
L 494 744 
Q 775 591 1075 516 
Q 1375 441 1709 441 
Q 2250 441 2565 725 
Q 2881 1009 2881 1497 
Q 2881 1984 2565 2268 
Q 2250 2553 1709 2553 
Q 1456 2553 1204 2497 
Q 953 2441 691 2322 
L 691 4666 
z
" transform="scale(0.015625)"/>
       </defs>
       <use xlink:href="#DejaVuSans-35"/>
       <use xlink:href="#DejaVuSans-30" transform="translate(63.623047 0)"/>
       <use xlink:href="#DejaVuSans-30" transform="translate(127.246094 0)"/>
       <use xlink:href="#DejaVuSans-30" transform="translate(190.869141 0)"/>
       <use xlink:href="#DejaVuSans-30" transform="translate(254.492188 0)"/>
      </g>
     </g>
    </g>
    <g id="xtick_5">
     <g id="line2d_5">
      <g>
       <use xlink:href="#mcf2206c1c0" x="356.191825" y="228.96" style="stroke: #000000; stroke-width: 0.8"/>
      </g>
     </g>
     <g id="text_5">
      <!-- 60000 -->
      <g transform="translate(340.285575 243.558437) scale(0.1 -0.1)">
       <defs>
        <path id="DejaVuSans-36" d="M 2113 2584 
Q 1688 2584 1439 2293 
Q 1191 2003 1191 1497 
Q 1191 994 1439 701 
Q 1688 409 2113 409 
Q 2538 409 2786 701 
Q 3034 994 3034 1497 
Q 3034 2003 2786 2293 
Q 2538 2584 2113 2584 
z
M 3366 4563 
L 3366 3988 
Q 3128 4100 2886 4159 
Q 2644 4219 2406 4219 
Q 1781 4219 1451 3797 
Q 1122 3375 1075 2522 
Q 1259 2794 1537 2939 
Q 1816 3084 2150 3084 
Q 2853 3084 3261 2657 
Q 3669 2231 3669 1497 
Q 3669 778 3244 343 
Q 2819 -91 2113 -91 
Q 1303 -91 875 529 
Q 447 1150 447 2328 
Q 447 3434 972 4092 
Q 1497 4750 2381 4750 
Q 2619 4750 2861 4703 
Q 3103 4656 3366 4563 
z
" transform="scale(0.015625)"/>
       </defs>
       <use xlink:href="#DejaVuSans-36"/>
       <use xlink:href="#DejaVuSans-30" transform="translate(63.623047 0)"/>
       <use xlink:href="#DejaVuSans-30" transform="translate(127.246094 0)"/>
       <use xlink:href="#DejaVuSans-30" transform="translate(190.869141 0)"/>
       <use xlink:href="#DejaVuSans-30" transform="translate(254.492188 0)"/>
      </g>
     </g>
    </g>
    <g id="text_6">
     <!-- event_time_offset [µs] -->
     <g transform="translate(164.692969 257.236562) scale(0.1 -0.1)">
      <defs>
       <path id="DejaVuSans-65" d="M 3597 1894 
L 3597 1613 
L 953 1613 
Q 991 1019 1311 708 
Q 1631 397 2203 397 
Q 2534 397 2845 478 
Q 3156 559 3463 722 
L 3463 178 
Q 3153 47 2828 -22 
Q 2503 -91 2169 -91 
Q 1331 -91 842 396 
Q 353 884 353 1716 
Q 353 2575 817 3079 
Q 1281 3584 2069 3584 
Q 2775 3584 3186 3129 
Q 3597 2675 3597 1894 
z
M 3022 2063 
Q 3016 2534 2758 2815 
Q 2500 3097 2075 3097 
Q 1594 3097 1305 2825 
Q 1016 2553 972 2059 
L 3022 2063 
z
" transform="scale(0.015625)"/>
       <path id="DejaVuSans-76" d="M 191 3500 
L 800 3500 
L 1894 563 
L 2988 3500 
L 3597 3500 
L 2284 0 
L 1503 0 
L 191 3500 
z
" transform="scale(0.015625)"/>
       <path id="DejaVuSans-6e" d="M 3513 2113 
L 3513 0 
L 2938 0 
L 2938 2094 
Q 2938 2591 2744 2837 
Q 2550 3084 2163 3084 
Q 1697 3084 1428 2787 
Q 1159 2491 1159 1978 
L 1159 0 
L 581 0 
L 581 3500 
L 1159 3500 
L 1159 2956 
Q 1366 3272 1645 3428 
Q 1925 3584 2291 3584 
Q 2894 3584 3203 3211 
Q 3513 2838 3513 2113 
z
" transform="scale(0.015625)"/>
       <path id="DejaVuSans-74" d="M 1172 4494 
L 1172 3500 
L 2356 3500 
L 2356 3053 
L 1172 3053 
L 1172 1153 
Q 1172 725 1289 603 
Q 1406 481 1766 481 
L 2356 481 
L 2356 0 
L 1766 0 
Q 1100 0 847 248 
Q 594 497 594 1153 
L 594 3053 
L 172 3053 
L 172 3500 
L 594 3500 
L 594 4494 
L 1172 4494 
z
" transform="scale(0.015625)"/>
       <path id="DejaVuSans-5f" d="M 3263 -1063 
L 3263 -1509 
L -63 -1509 
L -63 -1063 
L 3263 -1063 
z
" transform="scale(0.015625)"/>
       <path id="DejaVuSans-69" d="M 603 3500 
L 1178 3500 
L 1178 0 
L 603 0 
L 603 3500 
z
M 603 4863 
L 1178 4863 
L 1178 4134 
L 603 4134 
L 603 4863 
z
" transform="scale(0.015625)"/>
       <path id="DejaVuSans-6d" d="M 3328 2828 
Q 3544 3216 3844 3400 
Q 4144 3584 4550 3584 
Q 5097 3584 5394 3201 
Q 5691 2819 5691 2113 
L 5691 0 
L 5113 0 
L 5113 2094 
Q 5113 2597 4934 2840 
Q 4756 3084 4391 3084 
Q 3944 3084 3684 2787 
Q 3425 2491 3425 1978 
L 3425 0 
L 2847 0 
L 2847 2094 
Q 2847 2600 2669 2842 
Q 2491 3084 2119 3084 
Q 1678 3084 1418 2786 
Q 1159 2488 1159 1978 
L 1159 0 
L 581 0 
L 581 3500 
L 1159 3500 
L 1159 2956 
Q 1356 3278 1631 3431 
Q 1906 3584 2284 3584 
Q 2666 3584 2933 3390 
Q 3200 3197 3328 2828 
z
" transform="scale(0.015625)"/>
       <path id="DejaVuSans-6f" d="M 1959 3097 
Q 1497 3097 1228 2736 
Q 959 2375 959 1747 
Q 959 1119 1226 758 
Q 1494 397 1959 397 
Q 2419 397 2687 759 
Q 2956 1122 2956 1747 
Q 2956 2369 2687 2733 
Q 2419 3097 1959 3097 
z
M 1959 3584 
Q 2709 3584 3137 3096 
Q 3566 2609 3566 1747 
Q 3566 888 3137 398 
Q 2709 -91 1959 -91 
Q 1206 -91 779 398 
Q 353 888 353 1747 
Q 353 2609 779 3096 
Q 1206 3584 1959 3584 
z
" transform="scale(0.015625)"/>
       <path id="DejaVuSans-66" d="M 2375 4863 
L 2375 4384 
L 1825 4384 
Q 1516 4384 1395 4259 
Q 1275 4134 1275 3809 
L 1275 3500 
L 2222 3500 
L 2222 3053 
L 1275 3053 
L 1275 0 
L 697 0 
L 697 3053 
L 147 3053 
L 147 3500 
L 697 3500 
L 697 3744 
Q 697 4328 969 4595 
Q 1241 4863 1831 4863 
L 2375 4863 
z
" transform="scale(0.015625)"/>
       <path id="DejaVuSans-73" d="M 2834 3397 
L 2834 2853 
Q 2591 2978 2328 3040 
Q 2066 3103 1784 3103 
Q 1356 3103 1142 2972 
Q 928 2841 928 2578 
Q 928 2378 1081 2264 
Q 1234 2150 1697 2047 
L 1894 2003 
Q 2506 1872 2764 1633 
Q 3022 1394 3022 966 
Q 3022 478 2636 193 
Q 2250 -91 1575 -91 
Q 1294 -91 989 -36 
Q 684 19 347 128 
L 347 722 
Q 666 556 975 473 
Q 1284 391 1588 391 
Q 1994 391 2212 530 
Q 2431 669 2431 922 
Q 2431 1156 2273 1281 
Q 2116 1406 1581 1522 
L 1381 1569 
Q 847 1681 609 1914 
Q 372 2147 372 2553 
Q 372 3047 722 3315 
Q 1072 3584 1716 3584 
Q 2034 3584 2315 3537 
Q 2597 3491 2834 3397 
z
" transform="scale(0.015625)"/>
       <path id="DejaVuSans-20" transform="scale(0.015625)"/>
       <path id="DejaVuSans-5b" d="M 550 4863 
L 1875 4863 
L 1875 4416 
L 1125 4416 
L 1125 -397 
L 1875 -397 
L 1875 -844 
L 550 -844 
L 550 4863 
z
" transform="scale(0.015625)"/>
       <path id="DejaVuSans-b5" d="M 544 -1331 
L 544 3500 
L 1119 3500 
L 1119 1325 
Q 1119 872 1334 640 
Q 1550 409 1972 409 
Q 2434 409 2667 671 
Q 2900 934 2900 1459 
L 2900 3500 
L 3475 3500 
L 3475 806 
Q 3475 619 3529 530 
Q 3584 441 3700 441 
Q 3728 441 3778 458 
Q 3828 475 3916 513 
L 3916 50 
Q 3788 -22 3673 -56 
Q 3559 -91 3450 -91 
Q 3234 -91 3106 31 
Q 2978 153 2931 403 
Q 2775 156 2548 32 
Q 2322 -91 2016 -91 
Q 1697 -91 1473 31 
Q 1250 153 1119 397 
L 1119 -1331 
L 544 -1331 
z
" transform="scale(0.015625)"/>
       <path id="DejaVuSans-5d" d="M 1947 4863 
L 1947 -844 
L 622 -844 
L 622 -397 
L 1369 -397 
L 1369 4416 
L 622 4416 
L 622 4863 
L 1947 4863 
z
" transform="scale(0.015625)"/>
      </defs>
      <use xlink:href="#DejaVuSans-65"/>
      <use xlink:href="#DejaVuSans-76" transform="translate(61.523438 0)"/>
      <use xlink:href="#DejaVuSans-65" transform="translate(120.703125 0)"/>
      <use xlink:href="#DejaVuSans-6e" transform="translate(182.226562 0)"/>
      <use xlink:href="#DejaVuSans-74" transform="translate(245.605469 0)"/>
      <use xlink:href="#DejaVuSans-5f" transform="translate(284.814453 0)"/>
      <use xlink:href="#DejaVuSans-74" transform="translate(334.814453 0)"/>
      <use xlink:href="#DejaVuSans-69" transform="translate(374.023438 0)"/>
      <use xlink:href="#DejaVuSans-6d" transform="translate(401.806641 0)"/>
      <use xlink:href="#DejaVuSans-65" transform="translate(499.21875 0)"/>
      <use xlink:href="#DejaVuSans-5f" transform="translate(560.742188 0)"/>
      <use xlink:href="#DejaVuSans-6f" transform="translate(610.742188 0)"/>
      <use xlink:href="#DejaVuSans-66" transform="translate(671.923828 0)"/>
      <use xlink:href="#DejaVuSans-66" transform="translate(707.128906 0)"/>
      <use xlink:href="#DejaVuSans-73" transform="translate(742.333984 0)"/>
      <use xlink:href="#DejaVuSans-65" transform="translate(794.433594 0)"/>
      <use xlink:href="#DejaVuSans-74" transform="translate(855.957031 0)"/>
      <use xlink:href="#DejaVuSans-20" transform="translate(895.166016 0)"/>
      <use xlink:href="#DejaVuSans-5b" transform="translate(926.953125 0)"/>
      <use xlink:href="#DejaVuSans-b5" transform="translate(965.966797 0)"/>
      <use xlink:href="#DejaVuSans-73" transform="translate(1029.589844 0)"/>
      <use xlink:href="#DejaVuSans-5d" transform="translate(1081.689453 0)"/>
     </g>
    </g>
   </g>
   <g id="matplotlib.axis_2">
    <g id="ytick_1">
     <g id="line2d_6">
      <defs>
       <path id="mba9416a90b" d="M 0 0 
L -3.5 0 
" style="stroke: #000000; stroke-width: 0.8"/>
      </defs>
      <g>
       <use xlink:href="#mba9416a90b" x="53.328125" y="218.88" style="stroke: #000000; stroke-width: 0.8"/>
      </g>
     </g>
     <g id="text_7">
      <!-- 0 -->
      <g transform="translate(39.965625 222.679219) scale(0.1 -0.1)">
       <use xlink:href="#DejaVuSans-30"/>
      </g>
     </g>
    </g>
    <g id="ytick_2">
     <g id="line2d_7">
      <g>
       <use xlink:href="#mba9416a90b" x="53.328125" y="186.634319" style="stroke: #000000; stroke-width: 0.8"/>
      </g>
     </g>
     <g id="text_8">
      <!-- 500 -->
      <g transform="translate(27.240625 190.433537) scale(0.1 -0.1)">
       <use xlink:href="#DejaVuSans-35"/>
       <use xlink:href="#DejaVuSans-30" transform="translate(63.623047 0)"/>
       <use xlink:href="#DejaVuSans-30" transform="translate(127.246094 0)"/>
      </g>
     </g>
    </g>
    <g id="ytick_3">
     <g id="line2d_8">
      <g>
       <use xlink:href="#mba9416a90b" x="53.328125" y="154.388637" style="stroke: #000000; stroke-width: 0.8"/>
      </g>
     </g>
     <g id="text_9">
      <!-- 1000 -->
      <g transform="translate(20.878125 158.187856) scale(0.1 -0.1)">
       <defs>
        <path id="DejaVuSans-31" d="M 794 531 
L 1825 531 
L 1825 4091 
L 703 3866 
L 703 4441 
L 1819 4666 
L 2450 4666 
L 2450 531 
L 3481 531 
L 3481 0 
L 794 0 
L 794 531 
z
" transform="scale(0.015625)"/>
       </defs>
       <use xlink:href="#DejaVuSans-31"/>
       <use xlink:href="#DejaVuSans-30" transform="translate(63.623047 0)"/>
       <use xlink:href="#DejaVuSans-30" transform="translate(127.246094 0)"/>
       <use xlink:href="#DejaVuSans-30" transform="translate(190.869141 0)"/>
      </g>
     </g>
    </g>
    <g id="ytick_4">
     <g id="line2d_9">
      <g>
       <use xlink:href="#mba9416a90b" x="53.328125" y="122.142956" style="stroke: #000000; stroke-width: 0.8"/>
      </g>
     </g>
     <g id="text_10">
      <!-- 1500 -->
      <g transform="translate(20.878125 125.942175) scale(0.1 -0.1)">
       <use xlink:href="#DejaVuSans-31"/>
       <use xlink:href="#DejaVuSans-35" transform="translate(63.623047 0)"/>
       <use xlink:href="#DejaVuSans-30" transform="translate(127.246094 0)"/>
       <use xlink:href="#DejaVuSans-30" transform="translate(190.869141 0)"/>
      </g>
     </g>
    </g>
    <g id="ytick_5">
     <g id="line2d_10">
      <g>
       <use xlink:href="#mba9416a90b" x="53.328125" y="89.897274" style="stroke: #000000; stroke-width: 0.8"/>
      </g>
     </g>
     <g id="text_11">
      <!-- 2000 -->
      <g transform="translate(20.878125 93.696493) scale(0.1 -0.1)">
       <use xlink:href="#DejaVuSans-32"/>
       <use xlink:href="#DejaVuSans-30" transform="translate(63.623047 0)"/>
       <use xlink:href="#DejaVuSans-30" transform="translate(127.246094 0)"/>
       <use xlink:href="#DejaVuSans-30" transform="translate(190.869141 0)"/>
      </g>
     </g>
    </g>
    <g id="ytick_6">
     <g id="line2d_11">
      <g>
       <use xlink:href="#mba9416a90b" x="53.328125" y="57.651593" style="stroke: #000000; stroke-width: 0.8"/>
      </g>
     </g>
     <g id="text_12">
      <!-- 2500 -->
      <g transform="translate(20.878125 61.450812) scale(0.1 -0.1)">
       <use xlink:href="#DejaVuSans-32"/>
       <use xlink:href="#DejaVuSans-35" transform="translate(63.623047 0)"/>
       <use xlink:href="#DejaVuSans-30" transform="translate(127.246094 0)"/>
       <use xlink:href="#DejaVuSans-30" transform="translate(190.869141 0)"/>
      </g>
     </g>
    </g>
    <g id="ytick_7">
     <g id="line2d_12">
      <g>
       <use xlink:href="#mba9416a90b" x="53.328125" y="25.405912" style="stroke: #000000; stroke-width: 0.8"/>
      </g>
     </g>
     <g id="text_13">
      <!-- 3000 -->
      <g transform="translate(20.878125 29.20513) scale(0.1 -0.1)">
       <use xlink:href="#DejaVuSans-33"/>
       <use xlink:href="#DejaVuSans-30" transform="translate(63.623047 0)"/>
       <use xlink:href="#DejaVuSans-30" transform="translate(127.246094 0)"/>
       <use xlink:href="#DejaVuSans-30" transform="translate(190.869141 0)"/>
      </g>
     </g>
    </g>
    <g id="text_14">
     <!-- [counts] -->
     <g transform="translate(14.798438 138.6925) rotate(-90) scale(0.1 -0.1)">
      <defs>
       <path id="DejaVuSans-63" d="M 3122 3366 
L 3122 2828 
Q 2878 2963 2633 3030 
Q 2388 3097 2138 3097 
Q 1578 3097 1268 2742 
Q 959 2388 959 1747 
Q 959 1106 1268 751 
Q 1578 397 2138 397 
Q 2388 397 2633 464 
Q 2878 531 3122 666 
L 3122 134 
Q 2881 22 2623 -34 
Q 2366 -91 2075 -91 
Q 1284 -91 818 406 
Q 353 903 353 1747 
Q 353 2603 823 3093 
Q 1294 3584 2113 3584 
Q 2378 3584 2631 3529 
Q 2884 3475 3122 3366 
z
" transform="scale(0.015625)"/>
       <path id="DejaVuSans-75" d="M 544 1381 
L 544 3500 
L 1119 3500 
L 1119 1403 
Q 1119 906 1312 657 
Q 1506 409 1894 409 
Q 2359 409 2629 706 
Q 2900 1003 2900 1516 
L 2900 3500 
L 3475 3500 
L 3475 0 
L 2900 0 
L 2900 538 
Q 2691 219 2414 64 
Q 2138 -91 1772 -91 
Q 1169 -91 856 284 
Q 544 659 544 1381 
z
M 1991 3584 
L 1991 3584 
z
" transform="scale(0.015625)"/>
      </defs>
      <use xlink:href="#DejaVuSans-5b"/>
      <use xlink:href="#DejaVuSans-63" transform="translate(39.013672 0)"/>
      <use xlink:href="#DejaVuSans-6f" transform="translate(93.994141 0)"/>
      <use xlink:href="#DejaVuSans-75" transform="translate(155.175781 0)"/>
      <use xlink:href="#DejaVuSans-6e" transform="translate(218.554688 0)"/>
      <use xlink:href="#DejaVuSans-74" transform="translate(281.933594 0)"/>
      <use xlink:href="#DejaVuSans-73" transform="translate(321.142578 0)"/>
      <use xlink:href="#DejaVuSans-5d" transform="translate(373.242188 0)"/>
     </g>
    </g>
   </g>
   <g id="line2d_13">
    <path d="M 68.546307 182.506871 
L 69.560852 182.506871 
L 69.560852 126.205912 
L 70.575398 126.205912 
L 70.575398 97.055816 
L 71.589943 97.055816 
L 71.589943 91.058119 
L 72.604489 91.058119 
L 72.604489 80.997466 
L 73.619034 80.997466 
L 73.619034 87.059655 
L 74.63358 87.059655 
L 74.63358 78.998234 
L 75.648125 78.998234 
L 75.648125 68.292668 
L 76.66267 68.292668 
L 76.66267 61.521075 
L 77.677216 61.521075 
L 77.677216 58.683455 
L 78.691761 58.683455 
L 78.691761 52.621267 
L 79.706307 52.621267 
L 79.706307 53.524146 
L 80.720852 53.524146 
L 80.720852 42.947562 
L 81.735398 42.947562 
L 81.735398 37.594779 
L 82.749943 37.594779 
L 82.749943 32.177505 
L 83.764489 32.177505 
L 83.764489 19.408215 
L 84.779034 19.408215 
L 84.779034 18.118388 
L 85.79358 18.118388 
L 85.79358 20.762534 
L 86.808125 20.762534 
L 86.808125 17.28 
L 87.82267 17.28 
L 87.82267 18.892284 
L 88.837216 18.892284 
L 88.837216 20.375585 
L 89.851761 20.375585 
L 89.851761 23.213205 
L 90.866307 23.213205 
L 90.866307 26.373282 
L 91.880852 26.373282 
L 91.880852 31.855048 
L 92.895398 31.855048 
L 92.895398 29.920307 
L 93.909943 29.920307 
L 93.909943 38.691132 
L 94.924489 38.691132 
L 94.924489 38.239693 
L 95.939034 38.239693 
L 95.939034 45.333743 
L 96.95358 45.333743 
L 96.95358 55.007447 
L 97.968125 55.007447 
L 97.968125 69.582495 
L 98.98267 69.582495 
L 98.98267 82.545259 
L 99.997216 82.545259 
L 99.997216 94.798618 
L 101.011761 94.798618 
L 101.011761 113.694587 
L 102.026307 113.694587 
L 102.026307 116.919155 
L 103.040852 116.919155 
L 103.040852 129.559463 
L 104.055398 129.559463 
L 104.055398 138.717236 
L 105.069943 138.717236 
L 105.069943 146.714165 
L 106.084489 146.714165 
L 106.084489 158.451593 
L 107.099034 158.451593 
L 107.099034 167.673858 
L 108.11358 167.673858 
L 108.11358 178.250441 
L 109.128125 178.250441 
L 109.128125 188.375585 
L 110.14267 188.375585 
L 110.14267 195.663109 
L 111.157216 195.663109 
L 111.157216 205.401305 
L 112.171761 205.401305 
L 112.171761 213.398234 
L 113.186307 213.398234 
L 113.186307 217.848138 
L 114.200852 217.848138 
L 114.200852 218.88 
L 126.375398 218.88 
L 126.375398 218.170595 
L 127.389943 218.170595 
L 127.389943 189.278464 
L 128.404489 189.278464 
L 128.404489 146.649674 
L 129.419034 146.649674 
L 129.419034 101.118772 
L 130.43358 101.118772 
L 130.43358 82.60975 
L 131.448125 82.60975 
L 131.448125 85.834319 
L 132.46267 85.834319 
L 132.46267 84.157543 
L 133.477216 84.157543 
L 133.477216 90.606679 
L 134.491761 90.606679 
L 134.491761 95.443532 
L 135.506307 95.443532 
L 135.506307 96.346411 
L 137.535398 96.346411 
L 137.535398 99.119539 
L 138.549943 99.119539 
L 138.549943 95.508023 
L 139.564489 95.508023 
L 139.564489 97.055816 
L 140.579034 97.055816 
L 140.579034 102.537582 
L 141.59358 102.537582 
L 141.59358 104.988253 
L 142.608125 104.988253 
L 142.608125 106.922994 
L 143.62267 106.922994 
L 143.62267 106.72952 
L 144.637216 106.72952 
L 144.637216 109.051209 
L 145.651761 109.051209 
L 145.651761 112.791708 
L 146.666307 112.791708 
L 146.666307 110.01858 
L 147.680852 110.01858 
L 147.680852 118.08 
L 148.695398 118.08 
L 148.695398 113.694587 
L 149.709943 113.694587 
L 149.709943 120.982111 
L 150.724489 120.982111 
L 150.724489 124.142188 
L 151.739034 124.142188 
L 151.739034 119.885758 
L 152.75358 119.885758 
L 152.75358 124.271171 
L 153.768125 124.271171 
L 153.768125 120.724146 
L 154.78267 120.724146 
L 154.78267 124.916084 
L 155.797216 124.916084 
L 155.797216 125.947946 
L 156.811761 125.947946 
L 156.811761 131.042764 
L 157.826307 131.042764 
L 157.826307 132.526065 
L 158.840852 132.526065 
L 158.840852 137.298426 
L 159.855398 137.298426 
L 159.855398 136.331056 
L 160.869943 136.331056 
L 160.869943 143.747562 
L 161.884489 143.747562 
L 161.884489 141.361382 
L 162.899034 141.361382 
L 162.899034 145.359846 
L 163.91358 145.359846 
L 163.91358 150.325681 
L 164.928125 150.325681 
L 164.928125 152.389405 
L 165.94267 152.389405 
L 165.94267 156.000921 
L 166.957216 156.000921 
L 166.957216 162.901497 
L 167.971761 162.901497 
L 167.971761 170.898426 
L 168.986307 170.898426 
L 168.986307 177.154088 
L 170.000852 177.154088 
L 170.000852 181.217044 
L 171.015398 181.217044 
L 171.015398 188.698042 
L 172.029943 188.698042 
L 172.029943 195.663109 
L 173.044489 195.663109 
L 173.044489 200.113013 
L 174.059034 200.113013 
L 174.059034 204.885374 
L 175.07358 204.885374 
L 175.07358 210.883071 
L 176.088125 210.883071 
L 176.088125 214.752553 
L 177.10267 214.752553 
L 177.10267 217.654664 
L 178.117216 217.654664 
L 178.117216 218.88 
L 182.175398 218.88 
L 182.175398 217.977121 
L 183.189943 217.977121 
L 183.189943 209.077313 
L 184.204489 209.077313 
L 184.204489 190.826257 
L 185.219034 190.826257 
L 185.219034 170.189021 
L 186.23358 170.189021 
L 186.23358 157.032783 
L 187.248125 157.032783 
L 187.248125 148.84238 
L 188.26267 148.84238 
L 188.26267 146.585182 
L 189.277216 146.585182 
L 189.277216 151.099578 
L 190.291761 151.099578 
L 190.291761 150.841612 
L 191.306307 150.841612 
L 191.306307 154.453129 
L 192.320852 154.453129 
L 192.320852 149.035854 
L 194.349943 149.100345 
L 194.349943 154.711094 
L 195.364489 154.711094 
L 195.364489 158.064645 
L 196.379034 158.064645 
L 196.379034 158.387102 
L 198.408125 158.32261 
L 198.408125 160.902265 
L 199.42267 160.902265 
L 199.42267 162.385566 
L 200.437216 162.385566 
L 200.437216 163.094971 
L 201.451761 163.094971 
L 201.451761 160.708791 
L 202.466307 160.708791 
L 202.466307 167.544875 
L 203.480852 167.544875 
L 203.480852 165.545643 
L 204.495398 165.545643 
L 204.495398 168.963685 
L 205.509943 168.963685 
L 205.509943 170.962917 
L 206.524489 170.962917 
L 206.524489 173.220115 
L 207.539034 173.220115 
L 207.539034 176.057735 
L 208.55358 176.057735 
L 208.55358 176.444683 
L 209.568125 176.444683 
L 209.568125 179.927217 
L 210.58267 179.927217 
L 210.58267 177.089597 
L 211.597216 177.089597 
L 211.597216 185.473474 
L 212.611761 185.473474 
L 212.611761 182.571363 
L 213.626307 182.571363 
L 213.626307 185.022035 
L 214.640852 185.022035 
L 214.640852 190.890749 
L 215.655398 190.890749 
L 215.655398 193.663877 
L 216.669943 193.663877 
L 216.669943 195.663109 
L 217.684489 195.663109 
L 217.684489 196.759463 
L 218.699034 196.759463 
L 218.699034 198.242764 
L 219.71358 198.242764 
L 219.71358 199.145643 
L 220.728125 199.145643 
L 220.728125 202.821651 
L 221.74267 202.821651 
L 221.74267 204.756392 
L 222.757216 204.756392 
L 222.757216 208.561382 
L 223.771761 208.561382 
L 223.771761 210.496123 
L 224.786307 210.496123 
L 224.786307 211.012054 
L 225.800852 211.012054 
L 225.800852 214.043148 
L 226.815398 214.043148 
L 226.815398 217.074242 
L 227.829943 217.074242 
L 227.829943 218.88 
L 233.917216 218.815509 
L 233.917216 215.913397 
L 234.931761 215.913397 
L 234.931761 209.012821 
L 235.946307 209.012821 
L 235.946307 200.564453 
L 236.960852 200.564453 
L 236.960852 195.727601 
L 237.975398 195.727601 
L 237.975398 189.407447 
L 238.989943 189.407447 
L 238.989943 189.987869 
L 240.004489 189.987869 
L 240.004489 186.569827 
L 241.019034 186.569827 
L 241.019034 189.600921 
L 242.03358 189.600921 
L 242.03358 192.760998 
L 243.048125 192.760998 
L 243.048125 193.083455 
L 244.06267 193.083455 
L 244.06267 195.985566 
L 245.077216 195.985566 
L 245.077216 196.565988 
L 246.091761 196.565988 
L 246.091761 195.598618 
L 247.106307 195.598618 
L 247.106307 196.952937 
L 248.120852 196.952937 
L 248.120852 197.791324 
L 249.135398 197.791324 
L 249.135398 201.402841 
L 250.149943 201.402841 
L 250.149943 199.984031 
L 251.164489 199.984031 
L 251.164489 202.950633 
L 252.179034 202.950633 
L 252.179034 204.304952 
L 253.19358 204.304952 
L 253.19358 205.207831 
L 254.208125 205.207831 
L 254.208125 204.562917 
L 255.22267 204.562917 
L 255.22267 206.691132 
L 256.237216 206.691132 
L 256.237216 206.368676 
L 257.251761 206.368676 
L 257.251761 207.658503 
L 258.266307 207.658503 
L 258.266307 208.367908 
L 260.295398 208.367908 
L 260.295398 211.270019 
L 261.309943 211.270019 
L 261.309943 209.915701 
L 262.324489 209.915701 
L 262.324489 211.592476 
L 264.35358 211.527985 
L 264.35358 212.366372 
L 265.368125 212.366372 
L 265.368125 213.978656 
L 266.38267 213.978656 
L 266.38267 215.139501 
L 267.397216 215.139501 
L 267.397216 216.171363 
L 268.411761 216.171363 
L 268.411761 215.461958 
L 269.426307 215.461958 
L 269.426307 215.655432 
L 270.440852 215.655432 
L 270.440852 217.977121 
L 271.455398 217.977121 
L 271.455398 217.719155 
L 272.469943 217.719155 
L 272.469943 218.235086 
L 273.484489 218.235086 
L 273.484489 218.364069 
L 274.499034 218.364069 
L 274.499034 218.88 
L 280.586307 218.88 
L 280.586307 218.299578 
L 281.600852 218.299578 
L 281.600852 214.752553 
L 282.615398 214.752553 
L 282.615398 210.302649 
L 283.629943 210.302649 
L 283.629943 207.52952 
L 284.644489 207.52952 
L 284.644489 205.14334 
L 285.659034 205.14334 
L 285.659034 203.918004 
L 286.67358 203.918004 
L 286.67358 205.594779 
L 287.688125 205.594779 
L 287.688125 206.755624 
L 288.70267 206.755624 
L 288.70267 206.304184 
L 289.717216 206.304184 
L 289.717216 207.658503 
L 290.731761 207.658503 
L 290.731761 208.174434 
L 291.746307 208.174434 
L 291.746307 208.303417 
L 292.760852 208.303417 
L 292.760852 209.593244 
L 293.775398 209.593244 
L 293.775398 209.077313 
L 294.789943 209.077313 
L 294.789943 210.173666 
L 295.804489 210.173666 
L 295.804489 210.044683 
L 296.819034 210.044683 
L 296.819034 211.141036 
L 297.83358 211.141036 
L 297.83358 209.851209 
L 298.848125 209.851209 
L 298.848125 211.334511 
L 299.86267 211.334511 
L 299.86267 212.430864 
L 300.877216 212.430864 
L 300.877216 213.849674 
L 301.891761 213.849674 
L 301.891761 213.527217 
L 302.906307 213.527217 
L 302.906307 214.752553 
L 303.920852 214.752553 
L 303.920852 213.333743 
L 304.935398 213.333743 
L 304.935398 214.817044 
L 305.949943 214.817044 
L 305.949943 215.07501 
L 306.964489 215.07501 
L 306.964489 214.881536 
L 307.979034 214.881536 
L 307.979034 215.268484 
L 308.99358 215.268484 
L 308.99358 216.429328 
L 310.008125 216.429328 
L 310.008125 216.687294 
L 311.02267 216.687294 
L 311.02267 215.848906 
L 312.037216 215.848906 
L 312.037216 217.074242 
L 313.051761 217.074242 
L 313.051761 217.332207 
L 314.066307 217.332207 
L 314.066307 217.654664 
L 315.080852 217.654664 
L 315.080852 218.041612 
L 316.095398 218.041612 
L 316.095398 218.557543 
L 317.109943 218.557543 
L 317.109943 218.751017 
L 319.139034 218.815509 
L 319.139034 218.88 
L 328.269943 218.88 
L 328.269943 218.622035 
L 329.284489 218.622035 
L 329.284489 217.138733 
L 330.299034 217.138733 
L 330.299034 214.430096 
L 331.31358 214.430096 
L 331.31358 212.430864 
L 332.328125 212.430864 
L 332.328125 209.270787 
L 333.34267 209.270787 
L 333.34267 208.238925 
L 334.357216 208.238925 
L 334.357216 206.11071 
L 335.371761 206.11071 
L 335.371761 202.047754 
L 336.386307 202.047754 
L 336.386307 202.692668 
L 337.400852 202.692668 
L 337.400852 203.079616 
L 338.415398 203.079616 
L 338.415398 200.693436 
L 339.429943 200.693436 
L 339.429943 204.304952 
L 340.444489 204.304952 
L 340.444489 203.789021 
L 341.459034 203.789021 
L 341.459034 199.855048 
L 342.47358 199.855048 
L 342.47358 203.853512 
L 343.488125 203.853512 
L 343.488125 205.078848 
L 344.50267 205.078848 
L 344.50267 204.820883 
L 345.517216 204.820883 
L 345.517216 204.498426 
L 346.531761 204.498426 
L 346.531761 204.756392 
L 347.546307 204.756392 
L 347.546307 203.982495 
L 348.560852 203.982495 
L 348.560852 204.304952 
L 349.575398 204.304952 
L 349.575398 203.660038 
L 350.589943 203.660038 
L 350.589943 206.56215 
L 352.619034 206.626641 
L 352.619034 207.336046 
L 353.63358 207.336046 
L 353.63358 205.723762 
L 354.648125 205.723762 
L 354.648125 207.465029 
L 355.66267 207.465029 
L 355.66267 207.013589 
L 356.677216 207.013589 
L 356.677216 207.851977 
L 357.691761 207.851977 
L 357.691761 208.238925 
L 358.706307 208.238925 
L 358.706307 210.044683 
L 359.720852 210.044683 
L 359.720852 211.012054 
L 360.735398 211.012054 
L 360.735398 210.754088 
L 361.749943 210.754088 
L 361.749943 211.721459 
L 362.764489 211.721459 
L 362.764489 211.141036 
L 363.779034 211.141036 
L 363.779034 211.78595 
L 364.79358 211.78595 
L 364.79358 212.624338 
L 365.808125 212.624338 
L 365.808125 214.107639 
L 366.82267 214.107639 
L 366.82267 213.591708 
L 367.837216 213.591708 
L 367.837216 215.07501 
L 368.851761 215.07501 
L 368.851761 213.527217 
L 369.866307 213.527217 
L 369.866307 215.977889 
L 370.880852 215.977889 
L 370.880852 217.138733 
L 371.895398 217.138733 
L 371.895398 218.557543 
L 372.909943 218.557543 
L 372.909943 218.557543 
" clip-path="url(#pfd619e9c89)" style="fill: none; stroke: #1f77b4; stroke-width: 1.5; stroke-linecap: square"/>
   </g>
   <g id="patch_3">
    <path d="M 53.328125 228.96 
L 53.328125 7.2 
" style="fill: none; stroke: #000000; stroke-width: 0.8; stroke-linejoin: miter; stroke-linecap: square"/>
   </g>
   <g id="patch_4">
    <path d="M 388.128125 228.96 
L 388.128125 7.2 
" style="fill: none; stroke: #000000; stroke-width: 0.8; stroke-linejoin: miter; stroke-linecap: square"/>
   </g>
   <g id="patch_5">
    <path d="M 53.328125 228.96 
L 388.128125 228.96 
" style="fill: none; stroke: #000000; stroke-width: 0.8; stroke-linejoin: miter; stroke-linecap: square"/>
   </g>
   <g id="patch_6">
    <path d="M 53.328125 7.2 
L 388.128125 7.2 
" style="fill: none; stroke: #000000; stroke-width: 0.8; stroke-linejoin: miter; stroke-linecap: square"/>
   </g>
  </g>
 </g>
 <defs>
  <clipPath id="pfd619e9c89">
   <rect x="53.328125" y="7.2" width="334.8" height="221.76"/>
  </clipPath>
 </defs>
</svg>
