<?xml version="1.0" encoding="utf-8" standalone="no"?>
<!DOCTYPE svg PUBLIC "-//W3C//DTD SVG 1.1//EN"
  "http://www.w3.org/Graphics/SVG/1.1/DTD/svg11.dtd">
<svg xmlns:xlink="http://www.w3.org/1999/xlink" width="395.328125pt" height="268.200625pt" viewBox="0 0 395.328125 268.200625" xmlns="http://www.w3.org/2000/svg" version="1.1">
 <metadata>
  <rdf:RDF xmlns:dc="http://purl.org/dc/elements/1.1/" xmlns:cc="http://creativecommons.org/ns#" xmlns:rdf="http://www.w3.org/1999/02/22-rdf-syntax-ns#">
   <cc:Work>
    <dc:type rdf:resource="http://purl.org/dc/dcmitype/StillImage"/>
    <dc:date>2025-11-27T11:58:09.661385</dc:date>
    <dc:format>image/svg+xml</dc:format>
    <dc:creator>
     <cc:Agent>
      <dc:title>Matplotlib v3.10.7, https://matplotlib.org/</dc:title>
     </cc:Agent>
    </dc:creator>
   </cc:Work>
  </rdf:RDF>
 </metadata>
 <defs>
  <style type="text/css">*{stroke-linejoin: round; stroke-linecap: butt}</style>
 </defs>
 <g id="figure_1">
  <g id="patch_1">
   <path d="M 0 268.200625 
L 395.328125 268.200625 
L 395.328125 0 
L 0 0 
z
" style="fill: #ffffff"/>
  </g>
  <g id="axes_1">
   <g id="patch_2">
    <path d="M 53.328125 228.96 
L 388.128125 228.96 
L 388.128125 7.2 
L 53.328125 7.2 
z
" style="fill: #ffffff"/>
   </g>
   <g id="matplotlib.axis_1">
    <g id="xtick_1">
     <g id="line2d_1">
      <defs>
       <path id="mf235cfd966" d="M 0 0 
L 0 3.5 
" style="stroke: #000000; stroke-width: 0.8"/>
      </defs>
      <g>
       <use xlink:href="#mf235cfd966" x="68.546307" y="228.96" style="stroke: #000000; stroke-width: 0.8"/>
      </g>
     </g>
     <g id="text_1">
      <!-- 2 -->
      <g transform="translate(65.365057 243.558437) scale(0.1 -0.1)">
       <defs>
        <path id="DejaVuSans-32" d="M 1228 531 
L 3431 531 
L 3431 0 
L 469 0 
L 469 531 
Q 828 903 1448 1529 
Q 2069 2156 2228 2338 
Q 2531 2678 2651 2914 
Q 2772 3150 2772 3378 
Q 2772 3750 2511 3984 
Q 2250 4219 1831 4219 
Q 1534 4219 1204 4116 
Q 875 4013 500 3803 
L 500 4441 
Q 881 4594 1212 4672 
Q 1544 4750 1819 4750 
Q 2544 4750 2975 4387 
Q 3406 4025 3406 3419 
Q 3406 3131 3298 2873 
Q 3191 2616 2906 2266 
Q 2828 2175 2409 1742 
Q 1991 1309 1228 531 
z
" transform="scale(0.015625)"/>
       </defs>
       <use xlink:href="#DejaVuSans-32"/>
      </g>
     </g>
    </g>
    <g id="xtick_2">
     <g id="line2d_2">
      <g>
       <use xlink:href="#mf235cfd966" x="106.591761" y="228.96" style="stroke: #000000; stroke-width: 0.8"/>
      </g>
     </g>
     <g id="text_2">
      <!-- 3 -->
      <g transform="translate(103.410511 243.558437) scale(0.1 -0.1)">
       <defs>
        <path id="DejaVuSans-33" d="M 2597 2516 
Q 3050 2419 3304 2112 
Q 3559 1806 3559 1356 
Q 3559 666 3084 287 
Q 2609 -91 1734 -91 
Q 1441 -91 1130 -33 
Q 819 25 488 141 
L 488 750 
Q 750 597 1062 519 
Q 1375 441 1716 441 
Q 2309 441 2620 675 
Q 2931 909 2931 1356 
Q 2931 1769 2642 2001 
Q 2353 2234 1838 2234 
L 1294 2234 
L 1294 2753 
L 1863 2753 
Q 2328 2753 2575 2939 
Q 2822 3125 2822 3475 
Q 2822 3834 2567 4026 
Q 2313 4219 1838 4219 
Q 1578 4219 1281 4162 
Q 984 4106 628 3988 
L 628 4550 
Q 988 4650 1302 4700 
Q 1616 4750 1894 4750 
Q 2613 4750 3031 4423 
Q 3450 4097 3450 3541 
Q 3450 3153 3228 2886 
Q 3006 2619 2597 2516 
z
" transform="scale(0.015625)"/>
       </defs>
       <use xlink:href="#DejaVuSans-33"/>
      </g>
     </g>
    </g>
    <g id="xtick_3">
     <g id="line2d_3">
      <g>
       <use xlink:href="#mf235cfd966" x="144.637216" y="228.96" style="stroke: #000000; stroke-width: 0.8"/>
      </g>
     </g>
     <g id="text_3">
      <!-- 4 -->
      <g transform="translate(141.455966 243.558437) scale(0.1 -0.1)">
       <defs>
        <path id="DejaVuSans-34" d="M 2419 4116 
L 825 1625 
L 2419 1625 
L 2419 4116 
z
M 2253 4666 
L 3047 4666 
L 3047 1625 
L 3713 1625 
L 3713 1100 
L 3047 1100 
L 3047 0 
L 2419 0 
L 2419 1100 
L 313 1100 
L 313 1709 
L 2253 4666 
z
" transform="scale(0.015625)"/>
       </defs>
       <use xlink:href="#DejaVuSans-34"/>
      </g>
     </g>
    </g>
    <g id="xtick_4">
     <g id="line2d_4">
      <g>
       <use xlink:href="#mf235cfd966" x="182.68267" y="228.96" style="stroke: #000000; stroke-width: 0.8"/>
      </g>
     </g>
     <g id="text_4">
      <!-- 5 -->
      <g transform="translate(179.50142 243.558437) scale(0.1 -0.1)">
       <defs>
        <path id="DejaVuSans-35" d="M 691 4666 
L 3169 4666 
L 3169 4134 
L 1269 4134 
L 1269 2991 
Q 1406 3038 1543 3061 
Q 1681 3084 1819 3084 
Q 2600 3084 3056 2656 
Q 3513 2228 3513 1497 
Q 3513 744 3044 326 
Q 2575 -91 1722 -91 
Q 1428 -91 1123 -41 
Q 819 9 494 109 
L 494 744 
Q 775 591 1075 516 
Q 1375 441 1709 441 
Q 2250 441 2565 725 
Q 2881 1009 2881 1497 
Q 2881 1984 2565 2268 
Q 2250 2553 1709 2553 
Q 1456 2553 1204 2497 
Q 953 2441 691 2322 
L 691 4666 
z
" transform="scale(0.015625)"/>
       </defs>
       <use xlink:href="#DejaVuSans-35"/>
      </g>
     </g>
    </g>
    <g id="xtick_5">
     <g id="line2d_5">
      <g>
       <use xlink:href="#mf235cfd966" x="220.728125" y="228.96" style="stroke: #000000; stroke-width: 0.8"/>
      </g>
     </g>
     <g id="text_5">
      <!-- 6 -->
      <g transform="translate(217.546875 243.558437) scale(0.1 -0.1)">
       <defs>
        <path id="DejaVuSans-36" d="M 2113 2584 
Q 1688 2584 1439 2293 
Q 1191 2003 1191 1497 
Q 1191 994 1439 701 
Q 1688 409 2113 409 
Q 2538 409 2786 701 
Q 3034 994 3034 1497 
Q 3034 2003 2786 2293 
Q 2538 2584 2113 2584 
z
M 3366 4563 
L 3366 3988 
Q 3128 4100 2886 4159 
Q 2644 4219 2406 4219 
Q 1781 4219 1451 3797 
Q 1122 3375 1075 2522 
Q 1259 2794 1537 2939 
Q 1816 3084 2150 3084 
Q 2853 3084 3261 2657 
Q 3669 2231 3669 1497 
Q 3669 778 3244 343 
Q 2819 -91 2113 -91 
Q 1303 -91 875 529 
Q 447 1150 447 2328 
Q 447 3434 972 4092 
Q 1497 4750 2381 4750 
Q 2619 4750 2861 4703 
Q 3103 4656 3366 4563 
z
" transform="scale(0.015625)"/>
       </defs>
       <use xlink:href="#DejaVuSans-36"/>
      </g>
     </g>
    </g>
    <g id="xtick_6">
     <g id="line2d_6">
      <g>
       <use xlink:href="#mf235cfd966" x="258.77358" y="228.96" style="stroke: #000000; stroke-width: 0.8"/>
      </g>
     </g>
     <g id="text_6">
      <!-- 7 -->
      <g transform="translate(255.59233 243.558437) scale(0.1 -0.1)">
       <defs>
        <path id="DejaVuSans-37" d="M 525 4666 
L 3525 4666 
L 3525 4397 
L 1831 0 
L 1172 0 
L 2766 4134 
L 525 4134 
L 525 4666 
z
" transform="scale(0.015625)"/>
       </defs>
       <use xlink:href="#DejaVuSans-37"/>
      </g>
     </g>
    </g>
    <g id="xtick_7">
     <g id="line2d_7">
      <g>
       <use xlink:href="#mf235cfd966" x="296.819034" y="228.96" style="stroke: #000000; stroke-width: 0.8"/>
      </g>
     </g>
     <g id="text_7">
      <!-- 8 -->
      <g transform="translate(293.637784 243.558437) scale(0.1 -0.1)">
       <defs>
        <path id="DejaVuSans-38" d="M 2034 2216 
Q 1584 2216 1326 1975 
Q 1069 1734 1069 1313 
Q 1069 891 1326 650 
Q 1584 409 2034 409 
Q 2484 409 2743 651 
Q 3003 894 3003 1313 
Q 3003 1734 2745 1975 
Q 2488 2216 2034 2216 
z
M 1403 2484 
Q 997 2584 770 2862 
Q 544 3141 544 3541 
Q 544 4100 942 4425 
Q 1341 4750 2034 4750 
Q 2731 4750 3128 4425 
Q 3525 4100 3525 3541 
Q 3525 3141 3298 2862 
Q 3072 2584 2669 2484 
Q 3125 2378 3379 2068 
Q 3634 1759 3634 1313 
Q 3634 634 3220 271 
Q 2806 -91 2034 -91 
Q 1263 -91 848 271 
Q 434 634 434 1313 
Q 434 1759 690 2068 
Q 947 2378 1403 2484 
z
M 1172 3481 
Q 1172 3119 1398 2916 
Q 1625 2713 2034 2713 
Q 2441 2713 2670 2916 
Q 2900 3119 2900 3481 
Q 2900 3844 2670 4047 
Q 2441 4250 2034 4250 
Q 1625 4250 1398 4047 
Q 1172 3844 1172 3481 
z
" transform="scale(0.015625)"/>
       </defs>
       <use xlink:href="#DejaVuSans-38"/>
      </g>
     </g>
    </g>
    <g id="xtick_8">
     <g id="line2d_8">
      <g>
       <use xlink:href="#mf235cfd966" x="334.864489" y="228.96" style="stroke: #000000; stroke-width: 0.8"/>
      </g>
     </g>
     <g id="text_8">
      <!-- 9 -->
      <g transform="translate(331.683239 243.558437) scale(0.1 -0.1)">
       <defs>
        <path id="DejaVuSans-39" d="M 703 97 
L 703 672 
Q 941 559 1184 500 
Q 1428 441 1663 441 
Q 2288 441 2617 861 
Q 2947 1281 2994 2138 
Q 2813 1869 2534 1725 
Q 2256 1581 1919 1581 
Q 1219 1581 811 2004 
Q 403 2428 403 3163 
Q 403 3881 828 4315 
Q 1253 4750 1959 4750 
Q 2769 4750 3195 4129 
Q 3622 3509 3622 2328 
Q 3622 1225 3098 567 
Q 2575 -91 1691 -91 
Q 1453 -91 1209 -44 
Q 966 3 703 97 
z
M 1959 2075 
Q 2384 2075 2632 2365 
Q 2881 2656 2881 3163 
Q 2881 3666 2632 3958 
Q 2384 4250 1959 4250 
Q 1534 4250 1286 3958 
Q 1038 3666 1038 3163 
Q 1038 2656 1286 2365 
Q 1534 2075 1959 2075 
z
" transform="scale(0.015625)"/>
       </defs>
       <use xlink:href="#DejaVuSans-39"/>
      </g>
     </g>
    </g>
    <g id="xtick_9">
     <g id="line2d_9">
      <g>
       <use xlink:href="#mf235cfd966" x="372.909943" y="228.96" style="stroke: #000000; stroke-width: 0.8"/>
      </g>
     </g>
     <g id="text_9">
      <!-- 10 -->
      <g transform="translate(366.547443 243.558437) scale(0.1 -0.1)">
       <defs>
        <path id="DejaVuSans-31" d="M 794 531 
L 1825 531 
L 1825 4091 
L 703 3866 
L 703 4441 
L 1819 4666 
L 2450 4666 
L 2450 531 
L 3481 531 
L 3481 0 
L 794 0 
L 794 531 
z
" transform="scale(0.015625)"/>
        <path id="DejaVuSans-30" d="M 2034 4250 
Q 1547 4250 1301 3770 
Q 1056 3291 1056 2328 
Q 1056 1369 1301 889 
Q 1547 409 2034 409 
Q 2525 409 2770 889 
Q 3016 1369 3016 2328 
Q 3016 3291 2770 3770 
Q 2525 4250 2034 4250 
z
M 2034 4750 
Q 2819 4750 3233 4129 
Q 3647 3509 3647 2328 
Q 3647 1150 3233 529 
Q 2819 -91 2034 -91 
Q 1250 -91 836 529 
Q 422 1150 422 2328 
Q 422 3509 836 4129 
Q 1250 4750 2034 4750 
z
" transform="scale(0.015625)"/>
       </defs>
       <use xlink:href="#DejaVuSans-31"/>
       <use xlink:href="#DejaVuSans-30" transform="translate(63.623047 0)"/>
      </g>
     </g>
    </g>
    <g id="text_10">
     <!-- wavelength [Å] -->
     <g transform="translate(182.690625 258.920937) scale(0.1 -0.1)">
      <defs>
       <path id="DejaVuSans-77" d="M 269 3500 
L 844 3500 
L 1563 769 
L 2278 3500 
L 2956 3500 
L 3675 769 
L 4391 3500 
L 4966 3500 
L 4050 0 
L 3372 0 
L 2619 2869 
L 1863 0 
L 1184 0 
L 269 3500 
z
" transform="scale(0.015625)"/>
       <path id="DejaVuSans-61" d="M 2194 1759 
Q 1497 1759 1228 1600 
Q 959 1441 959 1056 
Q 959 750 1161 570 
Q 1363 391 1709 391 
Q 2188 391 2477 730 
Q 2766 1069 2766 1631 
L 2766 1759 
L 2194 1759 
z
M 3341 1997 
L 3341 0 
L 2766 0 
L 2766 531 
Q 2569 213 2275 61 
Q 1981 -91 1556 -91 
Q 1019 -91 701 211 
Q 384 513 384 1019 
Q 384 1609 779 1909 
Q 1175 2209 1959 2209 
L 2766 2209 
L 2766 2266 
Q 2766 2663 2505 2880 
Q 2244 3097 1772 3097 
Q 1472 3097 1187 3025 
Q 903 2953 641 2809 
L 641 3341 
Q 956 3463 1253 3523 
Q 1550 3584 1831 3584 
Q 2591 3584 2966 3190 
Q 3341 2797 3341 1997 
z
" transform="scale(0.015625)"/>
       <path id="DejaVuSans-76" d="M 191 3500 
L 800 3500 
L 1894 563 
L 2988 3500 
L 3597 3500 
L 2284 0 
L 1503 0 
L 191 3500 
z
" transform="scale(0.015625)"/>
       <path id="DejaVuSans-65" d="M 3597 1894 
L 3597 1613 
L 953 1613 
Q 991 1019 1311 708 
Q 1631 397 2203 397 
Q 2534 397 2845 478 
Q 3156 559 3463 722 
L 3463 178 
Q 3153 47 2828 -22 
Q 2503 -91 2169 -91 
Q 1331 -91 842 396 
Q 353 884 353 1716 
Q 353 2575 817 3079 
Q 1281 3584 2069 3584 
Q 2775 3584 3186 3129 
Q 3597 2675 3597 1894 
z
M 3022 2063 
Q 3016 2534 2758 2815 
Q 2500 3097 2075 3097 
Q 1594 3097 1305 2825 
Q 1016 2553 972 2059 
L 3022 2063 
z
" transform="scale(0.015625)"/>
       <path id="DejaVuSans-6c" d="M 603 4863 
L 1178 4863 
L 1178 0 
L 603 0 
L 603 4863 
z
" transform="scale(0.015625)"/>
       <path id="DejaVuSans-6e" d="M 3513 2113 
L 3513 0 
L 2938 0 
L 2938 2094 
Q 2938 2591 2744 2837 
Q 2550 3084 2163 3084 
Q 1697 3084 1428 2787 
Q 1159 2491 1159 1978 
L 1159 0 
L 581 0 
L 581 3500 
L 1159 3500 
L 1159 2956 
Q 1366 3272 1645 3428 
Q 1925 3584 2291 3584 
Q 2894 3584 3203 3211 
Q 3513 2838 3513 2113 
z
" transform="scale(0.015625)"/>
       <path id="DejaVuSans-67" d="M 2906 1791 
Q 2906 2416 2648 2759 
Q 2391 3103 1925 3103 
Q 1463 3103 1205 2759 
Q 947 2416 947 1791 
Q 947 1169 1205 825 
Q 1463 481 1925 481 
Q 2391 481 2648 825 
Q 2906 1169 2906 1791 
z
M 3481 434 
Q 3481 -459 3084 -895 
Q 2688 -1331 1869 -1331 
Q 1566 -1331 1297 -1286 
Q 1028 -1241 775 -1147 
L 775 -588 
Q 1028 -725 1275 -790 
Q 1522 -856 1778 -856 
Q 2344 -856 2625 -561 
Q 2906 -266 2906 331 
L 2906 616 
Q 2728 306 2450 153 
Q 2172 0 1784 0 
Q 1141 0 747 490 
Q 353 981 353 1791 
Q 353 2603 747 3093 
Q 1141 3584 1784 3584 
Q 2172 3584 2450 3431 
Q 2728 3278 2906 2969 
L 2906 3500 
L 3481 3500 
L 3481 434 
z
" transform="scale(0.015625)"/>
       <path id="DejaVuSans-74" d="M 1172 4494 
L 1172 3500 
L 2356 3500 
L 2356 3053 
L 1172 3053 
L 1172 1153 
Q 1172 725 1289 603 
Q 1406 481 1766 481 
L 2356 481 
L 2356 0 
L 1766 0 
Q 1100 0 847 248 
Q 594 497 594 1153 
L 594 3053 
L 172 3053 
L 172 3500 
L 594 3500 
L 594 4494 
L 1172 4494 
z
" transform="scale(0.015625)"/>
       <path id="DejaVuSans-68" d="M 3513 2113 
L 3513 0 
L 2938 0 
L 2938 2094 
Q 2938 2591 2744 2837 
Q 2550 3084 2163 3084 
Q 1697 3084 1428 2787 
Q 1159 2491 1159 1978 
L 1159 0 
L 581 0 
L 581 4863 
L 1159 4863 
L 1159 2956 
Q 1366 3272 1645 3428 
Q 1925 3584 2291 3584 
Q 2894 3584 3203 3211 
Q 3513 2838 3513 2113 
z
" transform="scale(0.015625)"/>
       <path id="DejaVuSans-20" transform="scale(0.015625)"/>
       <path id="DejaVuSans-5b" d="M 550 4863 
L 1875 4863 
L 1875 4416 
L 1125 4416 
L 1125 -397 
L 1875 -397 
L 1875 -844 
L 550 -844 
L 550 4863 
z
" transform="scale(0.015625)"/>
       <path id="DejaVuSans-c5" d="M 2663 5081 
Q 2663 5278 2523 5417 
Q 2384 5556 2188 5556 
Q 1988 5556 1852 5420 
Q 1716 5284 1716 5081 
Q 1716 4884 1853 4746 
Q 1991 4609 2188 4609 
Q 2384 4609 2523 4746 
Q 2663 4884 2663 5081 
z
M 2188 4044 
L 1338 1722 
L 3041 1722 
L 2188 4044 
z
M 1716 4366 
Q 1525 4494 1428 4673 
Q 1331 4853 1331 5081 
Q 1331 5441 1579 5691 
Q 1828 5941 2188 5941 
Q 2544 5941 2795 5689 
Q 3047 5438 3047 5081 
Q 3047 4863 2948 4678 
Q 2850 4494 2663 4366 
L 4325 0 
L 3669 0 
L 3244 1197 
L 1141 1197 
L 716 0 
L 50 0 
L 1716 4366 
z
" transform="scale(0.015625)"/>
       <path id="DejaVuSans-5d" d="M 1947 4863 
L 1947 -844 
L 622 -844 
L 622 -397 
L 1369 -397 
L 1369 4416 
L 622 4416 
L 622 4863 
L 1947 4863 
z
" transform="scale(0.015625)"/>
      </defs>
      <use xlink:href="#DejaVuSans-77"/>
      <use xlink:href="#DejaVuSans-61" transform="translate(81.787109 0)"/>
      <use xlink:href="#DejaVuSans-76" transform="translate(143.066406 0)"/>
      <use xlink:href="#DejaVuSans-65" transform="translate(202.246094 0)"/>
      <use xlink:href="#DejaVuSans-6c" transform="translate(263.769531 0)"/>
      <use xlink:href="#DejaVuSans-65" transform="translate(291.552734 0)"/>
      <use xlink:href="#DejaVuSans-6e" transform="translate(353.076172 0)"/>
      <use xlink:href="#DejaVuSans-67" transform="translate(416.455078 0)"/>
      <use xlink:href="#DejaVuSans-74" transform="translate(479.931641 0)"/>
      <use xlink:href="#DejaVuSans-68" transform="translate(519.140625 0)"/>
      <use xlink:href="#DejaVuSans-20" transform="translate(582.519531 0)"/>
      <use xlink:href="#DejaVuSans-5b" transform="translate(614.306641 0)"/>
      <use xlink:href="#DejaVuSans-c5" transform="translate(653.320312 0)"/>
      <use xlink:href="#DejaVuSans-5d" transform="translate(721.728516 0)"/>
     </g>
    </g>
   </g>
   <g id="matplotlib.axis_2">
    <g id="ytick_1">
     <g id="line2d_10">
      <defs>
       <path id="m55bef2a232" d="M 0 0 
L -3.5 0 
" style="stroke: #000000; stroke-width: 0.8"/>
      </defs>
      <g>
       <use xlink:href="#m55bef2a232" x="53.328125" y="218.88" style="stroke: #000000; stroke-width: 0.8"/>
      </g>
     </g>
     <g id="text_11">
      <!-- 0 -->
      <g transform="translate(39.965625 222.679219) scale(0.1 -0.1)">
       <use xlink:href="#DejaVuSans-30"/>
      </g>
     </g>
    </g>
    <g id="ytick_2">
     <g id="line2d_11">
      <g>
       <use xlink:href="#m55bef2a232" x="53.328125" y="182.010944" style="stroke: #000000; stroke-width: 0.8"/>
      </g>
     </g>
     <g id="text_12">
      <!-- 500 -->
      <g transform="translate(27.240625 185.810162) scale(0.1 -0.1)">
       <use xlink:href="#DejaVuSans-35"/>
       <use xlink:href="#DejaVuSans-30" transform="translate(63.623047 0)"/>
       <use xlink:href="#DejaVuSans-30" transform="translate(127.246094 0)"/>
      </g>
     </g>
    </g>
    <g id="ytick_3">
     <g id="line2d_12">
      <g>
       <use xlink:href="#m55bef2a232" x="53.328125" y="145.141887" style="stroke: #000000; stroke-width: 0.8"/>
      </g>
     </g>
     <g id="text_13">
      <!-- 1000 -->
      <g transform="translate(20.878125 148.941106) scale(0.1 -0.1)">
       <use xlink:href="#DejaVuSans-31"/>
       <use xlink:href="#DejaVuSans-30" transform="translate(63.623047 0)"/>
       <use xlink:href="#DejaVuSans-30" transform="translate(127.246094 0)"/>
       <use xlink:href="#DejaVuSans-30" transform="translate(190.869141 0)"/>
      </g>
     </g>
    </g>
    <g id="ytick_4">
     <g id="line2d_13">
      <g>
       <use xlink:href="#m55bef2a232" x="53.328125" y="108.272831" style="stroke: #000000; stroke-width: 0.8"/>
      </g>
     </g>
     <g id="text_14">
      <!-- 1500 -->
      <g transform="translate(20.878125 112.07205) scale(0.1 -0.1)">
       <use xlink:href="#DejaVuSans-31"/>
       <use xlink:href="#DejaVuSans-35" transform="translate(63.623047 0)"/>
       <use xlink:href="#DejaVuSans-30" transform="translate(127.246094 0)"/>
       <use xlink:href="#DejaVuSans-30" transform="translate(190.869141 0)"/>
      </g>
     </g>
    </g>
    <g id="ytick_5">
     <g id="line2d_14">
      <g>
       <use xlink:href="#m55bef2a232" x="53.328125" y="71.403775" style="stroke: #000000; stroke-width: 0.8"/>
      </g>
     </g>
     <g id="text_15">
      <!-- 2000 -->
      <g transform="translate(20.878125 75.202993) scale(0.1 -0.1)">
       <use xlink:href="#DejaVuSans-32"/>
       <use xlink:href="#DejaVuSans-30" transform="translate(63.623047 0)"/>
       <use xlink:href="#DejaVuSans-30" transform="translate(127.246094 0)"/>
       <use xlink:href="#DejaVuSans-30" transform="translate(190.869141 0)"/>
      </g>
     </g>
    </g>
    <g id="ytick_6">
     <g id="line2d_15">
      <g>
       <use xlink:href="#m55bef2a232" x="53.328125" y="34.534718" style="stroke: #000000; stroke-width: 0.8"/>
      </g>
     </g>
     <g id="text_16">
      <!-- 2500 -->
      <g transform="translate(20.878125 38.333937) scale(0.1 -0.1)">
       <use xlink:href="#DejaVuSans-32"/>
       <use xlink:href="#DejaVuSans-35" transform="translate(63.623047 0)"/>
       <use xlink:href="#DejaVuSans-30" transform="translate(127.246094 0)"/>
       <use xlink:href="#DejaVuSans-30" transform="translate(190.869141 0)"/>
      </g>
     </g>
    </g>
    <g id="text_17">
     <!-- [counts] -->
     <g transform="translate(14.798438 138.6925) rotate(-90) scale(0.1 -0.1)">
      <defs>
       <path id="DejaVuSans-63" d="M 3122 3366 
L 3122 2828 
Q 2878 2963 2633 3030 
Q 2388 3097 2138 3097 
Q 1578 3097 1268 2742 
Q 959 2388 959 1747 
Q 959 1106 1268 751 
Q 1578 397 2138 397 
Q 2388 397 2633 464 
Q 2878 531 3122 666 
L 3122 134 
Q 2881 22 2623 -34 
Q 2366 -91 2075 -91 
Q 1284 -91 818 406 
Q 353 903 353 1747 
Q 353 2603 823 3093 
Q 1294 3584 2113 3584 
Q 2378 3584 2631 3529 
Q 2884 3475 3122 3366 
z
" transform="scale(0.015625)"/>
       <path id="DejaVuSans-6f" d="M 1959 3097 
Q 1497 3097 1228 2736 
Q 959 2375 959 1747 
Q 959 1119 1226 758 
Q 1494 397 1959 397 
Q 2419 397 2687 759 
Q 2956 1122 2956 1747 
Q 2956 2369 2687 2733 
Q 2419 3097 1959 3097 
z
M 1959 3584 
Q 2709 3584 3137 3096 
Q 3566 2609 3566 1747 
Q 3566 888 3137 398 
Q 2709 -91 1959 -91 
Q 1206 -91 779 398 
Q 353 888 353 1747 
Q 353 2609 779 3096 
Q 1206 3584 1959 3584 
z
" transform="scale(0.015625)"/>
       <path id="DejaVuSans-75" d="M 544 1381 
L 544 3500 
L 1119 3500 
L 1119 1403 
Q 1119 906 1312 657 
Q 1506 409 1894 409 
Q 2359 409 2629 706 
Q 2900 1003 2900 1516 
L 2900 3500 
L 3475 3500 
L 3475 0 
L 2900 0 
L 2900 538 
Q 2691 219 2414 64 
Q 2138 -91 1772 -91 
Q 1169 -91 856 284 
Q 544 659 544 1381 
z
M 1991 3584 
L 1991 3584 
z
" transform="scale(0.015625)"/>
       <path id="DejaVuSans-73" d="M 2834 3397 
L 2834 2853 
Q 2591 2978 2328 3040 
Q 2066 3103 1784 3103 
Q 1356 3103 1142 2972 
Q 928 2841 928 2578 
Q 928 2378 1081 2264 
Q 1234 2150 1697 2047 
L 1894 2003 
Q 2506 1872 2764 1633 
Q 3022 1394 3022 966 
Q 3022 478 2636 193 
Q 2250 -91 1575 -91 
Q 1294 -91 989 -36 
Q 684 19 347 128 
L 347 722 
Q 666 556 975 473 
Q 1284 391 1588 391 
Q 1994 391 2212 530 
Q 2431 669 2431 922 
Q 2431 1156 2273 1281 
Q 2116 1406 1581 1522 
L 1381 1569 
Q 847 1681 609 1914 
Q 372 2147 372 2553 
Q 372 3047 722 3315 
Q 1072 3584 1716 3584 
Q 2034 3584 2315 3537 
Q 2597 3491 2834 3397 
z
" transform="scale(0.015625)"/>
      </defs>
      <use xlink:href="#DejaVuSans-5b"/>
      <use xlink:href="#DejaVuSans-63" transform="translate(39.013672 0)"/>
      <use xlink:href="#DejaVuSans-6f" transform="translate(93.994141 0)"/>
      <use xlink:href="#DejaVuSans-75" transform="translate(155.175781 0)"/>
      <use xlink:href="#DejaVuSans-6e" transform="translate(218.554688 0)"/>
      <use xlink:href="#DejaVuSans-74" transform="translate(281.933594 0)"/>
      <use xlink:href="#DejaVuSans-73" transform="translate(321.142578 0)"/>
      <use xlink:href="#DejaVuSans-5d" transform="translate(373.242188 0)"/>
     </g>
    </g>
   </g>
   <g id="line2d_16">
    <path d="M 68.546307 218.88 
L 69.560852 218.88 
L 69.560852 202.583877 
L 70.575398 202.583877 
L 70.575398 153.031865 
L 71.589943 153.031865 
L 71.589943 108.051617 
L 72.604489 108.051617 
L 72.604489 98.17071 
L 73.619034 98.17071 
L 73.619034 101.857615 
L 74.63358 101.857615 
L 74.63358 98.686876 
L 75.648125 98.686876 
L 75.648125 88.289802 
L 76.66267 88.289802 
L 76.66267 89.54335 
L 77.677216 89.54335 
L 77.677216 80.473563 
L 78.691761 80.473563 
L 78.691761 69.855274 
L 79.706307 69.855274 
L 79.706307 71.403775 
L 80.720852 71.403775 
L 80.720852 69.339108 
L 81.735398 69.339108 
L 81.735398 58.057176 
L 83.764489 58.057176 
L 83.764489 46.037864 
L 84.779034 46.037864 
L 84.779034 50.388413 
L 85.79358 50.388413 
L 85.79358 46.922721 
L 86.808125 46.922721 
L 86.808125 35.419576 
L 87.82267 35.419576 
L 87.82267 27.087169 
L 88.837216 27.087169 
L 88.837216 30.405384 
L 89.851761 30.405384 
L 89.851761 32.248837 
L 90.866307 32.248837 
L 90.866307 34.018552 
L 92.895398 34.09229 
L 92.895398 17.28 
L 93.909943 17.28 
L 93.909943 21.335596 
L 94.924489 21.335596 
L 94.924489 39.180219 
L 95.939034 39.180219 
L 95.939034 32.986218 
L 96.95358 32.986218 
L 96.95358 38.147886 
L 97.968125 38.147886 
L 97.968125 40.138815 
L 98.98267 40.138815 
L 98.98267 51.863175 
L 99.997216 51.863175 
L 99.997216 37.041814 
L 101.011761 37.041814 
L 101.011761 40.360029 
L 102.026307 40.360029 
L 102.026307 47.438888 
L 103.040852 47.438888 
L 103.040852 60.343058 
L 104.055398 60.343058 
L 104.055398 73.615918 
L 105.069943 73.615918 
L 105.069943 78.703848 
L 106.084489 78.703848 
L 106.084489 94.999971 
L 107.099034 94.999971 
L 107.099034 102.226306 
L 108.11358 102.226306 
L 108.11358 108.420307 
L 109.128125 108.420307 
L 109.128125 114.614309 
L 110.14267 114.614309 
L 110.14267 128.108383 
L 111.157216 128.108383 
L 111.157216 126.633621 
L 112.171761 126.633621 
L 112.171761 139.1691 
L 113.186307 139.1691 
L 113.186307 149.566174 
L 114.200852 149.566174 
L 114.200852 155.833914 
L 115.215398 155.833914 
L 115.215398 160.626891 
L 116.229943 160.626891 
L 116.229943 166.304726 
L 117.244489 166.304726 
L 117.244489 174.34218 
L 118.259034 174.34218 
L 118.259034 184.370563 
L 119.27358 184.370563 
L 119.27358 185.697849 
L 120.288125 185.697849 
L 120.288125 186.287754 
L 121.30267 186.287754 
L 121.30267 167.558274 
L 122.317216 167.558274 
L 122.317216 153.695508 
L 123.331761 153.695508 
L 123.331761 132.606408 
L 124.346307 132.606408 
L 124.346307 101.636401 
L 125.360852 101.636401 
L 125.360852 92.935304 
L 126.375398 92.935304 
L 126.375398 97.949495 
L 127.389943 97.949495 
L 127.389943 93.820161 
L 128.404489 93.820161 
L 128.404489 94.852495 
L 129.419034 94.852495 
L 129.419034 100.530329 
L 130.43358 100.530329 
L 130.43358 96.032304 
L 131.448125 96.032304 
L 131.448125 98.465662 
L 132.46267 98.465662 
L 132.46267 93.303994 
L 133.477216 93.303994 
L 133.477216 104.659663 
L 134.491761 104.659663 
L 134.491761 103.332377 
L 135.506307 103.332377 
L 135.506307 109.895069 
L 136.520852 109.895069 
L 136.520852 108.272831 
L 137.535398 108.272831 
L 137.535398 107.387974 
L 138.549943 107.387974 
L 138.549943 105.765735 
L 139.564489 105.765735 
L 139.564489 111.148617 
L 140.579034 111.148617 
L 140.579034 114.982999 
L 141.59358 114.982999 
L 141.59358 111.074879 
L 142.608125 111.074879 
L 142.608125 114.909261 
L 143.62267 114.909261 
L 143.62267 115.941595 
L 144.637216 115.941595 
L 144.637216 116.678976 
L 145.651761 116.678976 
L 145.651761 111.959737 
L 146.666307 111.959737 
L 146.666307 122.061858 
L 147.680852 122.061858 
L 147.680852 121.693168 
L 148.695398 121.693168 
L 148.695398 127.223526 
L 149.709943 127.223526 
L 149.709943 123.16793 
L 150.724489 123.16793 
L 150.724489 123.53662 
L 151.739034 123.53662 
L 151.739034 125.453811 
L 152.75358 125.453811 
L 152.75358 129.435669 
L 153.768125 129.435669 
L 153.768125 131.057908 
L 154.78267 131.057908 
L 154.78267 130.836693 
L 155.797216 130.836693 
L 155.797216 129.80436 
L 156.811761 129.80436 
L 156.811761 134.302385 
L 157.826307 134.302385 
L 157.826307 126.117454 
L 158.840852 126.117454 
L 158.840852 132.753884 
L 159.855398 132.753884 
L 159.855398 133.786218 
L 160.869943 133.786218 
L 160.869943 140.201434 
L 161.884489 140.201434 
L 161.884489 150.89346 
L 162.899034 150.89346 
L 162.899034 151.262151 
L 163.91358 151.262151 
L 163.91358 147.427769 
L 164.928125 147.427769 
L 164.928125 149.123745 
L 165.94267 149.123745 
L 165.94267 152.810651 
L 166.957216 152.810651 
L 166.957216 156.276342 
L 167.971761 156.276342 
L 167.971761 161.43801 
L 168.986307 161.43801 
L 168.986307 162.765296 
L 170.000852 162.765296 
L 170.000852 158.267271 
L 171.015398 158.267271 
L 171.015398 156.645033 
L 172.029943 156.645033 
L 172.029943 147.132816 
L 173.044489 147.132816 
L 173.044489 144.478244 
L 174.059034 144.478244 
L 174.059034 143.593387 
L 175.07358 143.593387 
L 175.07358 136.956957 
L 176.088125 136.956957 
L 176.088125 132.975099 
L 177.10267 132.975099 
L 177.10267 145.289364 
L 178.117216 145.289364 
L 178.117216 143.667125 
L 179.131761 143.667125 
L 179.131761 142.044887 
L 180.146307 142.044887 
L 180.146307 153.990461 
L 181.160852 153.990461 
L 181.160852 157.234938 
L 182.175398 157.234938 
L 182.175398 159.742034 
L 183.189943 159.742034 
L 183.189943 151.557103 
L 184.204489 151.557103 
L 184.204489 159.815772 
L 185.219034 159.815772 
L 185.219034 162.470344 
L 186.23358 162.470344 
L 186.23358 164.535011 
L 187.248125 164.535011 
L 187.248125 162.322868 
L 188.26267 162.322868 
L 188.26267 163.133987 
L 189.277216 163.133987 
L 189.277216 162.839034 
L 190.291761 162.839034 
L 190.291761 160.2582 
L 191.306307 160.2582 
L 191.306307 159.88951 
L 192.320852 159.88951 
L 192.320852 161.143058 
L 193.335398 161.143058 
L 193.335398 160.700629 
L 194.349943 160.700629 
L 194.349943 164.387535 
L 195.364489 164.387535 
L 195.364489 171.835084 
L 196.379034 171.835084 
L 196.379034 174.637132 
L 197.39358 174.637132 
L 197.39358 171.466394 
L 198.408125 171.466394 
L 198.408125 173.604799 
L 199.42267 173.604799 
L 199.42267 178.397776 
L 200.437216 178.397776 
L 200.437216 178.2503 
L 201.451761 178.2503 
L 201.451761 172.203775 
L 202.466307 172.203775 
L 202.466307 179.282634 
L 203.480852 179.282634 
L 203.480852 186.361492 
L 204.495398 186.361492 
L 204.495398 185.697849 
L 205.509943 185.697849 
L 205.509943 192.334279 
L 206.524489 192.334279 
L 206.524489 196.832304 
L 207.539034 196.832304 
L 207.539034 192.70297 
L 208.55358 192.70297 
L 208.55358 192.113065 
L 209.568125 192.113065 
L 209.568125 193.514089 
L 210.58267 193.514089 
L 210.58267 192.039327 
L 211.597216 192.039327 
L 211.597216 197.643424 
L 212.611761 197.643424 
L 212.611761 196.979781 
L 213.626307 196.979781 
L 213.626307 198.528281 
L 214.640852 198.528281 
L 214.640852 198.012114 
L 215.655398 198.012114 
L 215.655398 193.292875 
L 216.669943 193.292875 
L 216.669943 192.997922 
L 217.684489 192.997922 
L 217.684489 190.933255 
L 218.699034 190.933255 
L 218.699034 191.080732 
L 219.71358 191.080732 
L 219.71358 188.057469 
L 220.728125 188.057469 
L 220.728125 183.780658 
L 221.74267 183.780658 
L 221.74267 188.278683 
L 222.757216 188.278683 
L 222.757216 188.499898 
L 223.771761 188.499898 
L 223.771761 189.532231 
L 224.786307 189.532231 
L 224.786307 194.030256 
L 225.800852 194.030256 
L 225.800852 195.210066 
L 226.815398 195.210066 
L 226.815398 196.979781 
L 227.829943 196.979781 
L 227.829943 195.799971 
L 228.844489 195.799971 
L 228.844489 197.938376 
L 229.859034 197.938376 
L 229.859034 196.168661 
L 230.87358 196.168661 
L 230.87358 200.51921 
L 231.888125 200.51921 
L 231.888125 199.486876 
L 232.90267 199.486876 
L 232.90267 203.026306 
L 233.917216 203.026306 
L 233.917216 202.06771 
L 234.931761 202.06771 
L 234.931761 201.330329 
L 235.946307 201.330329 
L 235.946307 202.87883 
L 236.960852 202.87883 
L 236.960852 202.215187 
L 237.975398 202.215187 
L 237.975398 203.026306 
L 238.989943 203.026306 
L 238.989943 205.459663 
L 240.004489 205.459663 
L 240.004489 205.017235 
L 241.019034 205.017235 
L 241.019034 204.353592 
L 242.03358 204.353592 
L 242.03358 206.197045 
L 243.048125 206.197045 
L 243.048125 204.279854 
L 244.06267 204.279854 
L 244.06267 206.123307 
L 245.077216 206.123307 
L 245.077216 211.358713 
L 246.091761 211.358713 
L 246.091761 212.391046 
L 247.106307 212.391046 
L 247.106307 212.022356 
L 248.120852 212.022356 
L 248.120852 213.202165 
L 249.135398 213.202165 
L 249.135398 212.685999 
L 250.149943 212.685999 
L 250.149943 211.579927 
L 251.164489 211.579927 
L 251.164489 212.022356 
L 252.179034 212.022356 
L 252.179034 213.202165 
L 253.19358 213.202165 
L 253.19358 212.833475 
L 254.208125 212.833475 
L 254.208125 213.497118 
L 255.22267 213.497118 
L 255.22267 213.644594 
L 256.237216 213.644594 
L 256.237216 214.234499 
L 257.251761 214.234499 
L 257.251761 214.529451 
L 258.266307 214.529451 
L 258.266307 210.400117 
L 259.280852 210.400117 
L 259.280852 208.925355 
L 260.295398 208.925355 
L 260.295398 207.819283 
L 261.309943 207.819283 
L 261.309943 207.671807 
L 262.324489 207.671807 
L 262.324489 206.639473 
L 263.339034 206.639473 
L 263.339034 205.385925 
L 264.35358 205.385925 
L 264.35358 207.081902 
L 265.368125 207.081902 
L 265.368125 207.303116 
L 266.38267 207.303116 
L 266.38267 209.441522 
L 267.397216 209.441522 
L 267.397216 208.040497 
L 268.411761 208.040497 
L 268.411761 209.662736 
L 269.426307 209.662736 
L 269.426307 209.367783 
L 270.440852 209.367783 
L 270.440852 208.851617 
L 271.455398 208.851617 
L 271.455398 210.326379 
L 272.469943 210.326379 
L 272.469943 209.146569 
L 273.484489 209.146569 
L 273.484489 208.925355 
L 274.499034 208.925355 
L 274.499034 210.990022 
L 275.51358 210.990022 
L 275.51358 212.538522 
L 276.528125 212.538522 
L 276.528125 211.579927 
L 277.54267 211.579927 
L 277.54267 212.24357 
L 278.557216 212.24357 
L 278.557216 212.685999 
L 279.571761 212.685999 
L 279.571761 212.317308 
L 280.586307 212.317308 
L 280.586307 212.464784 
L 281.600852 212.464784 
L 281.600852 212.907213 
L 282.615398 212.907213 
L 282.615398 213.054689 
L 283.629943 213.054689 
L 283.629943 213.202165 
L 284.644489 213.202165 
L 284.644489 213.718332 
L 285.659034 213.718332 
L 285.659034 214.087023 
L 286.67358 214.087023 
L 286.67358 214.234499 
L 287.688125 214.234499 
L 287.688125 214.898142 
L 288.70267 214.898142 
L 288.70267 215.414309 
L 290.731761 215.488047 
L 290.731761 216.225428 
L 292.760852 216.225428 
L 292.760852 216.446642 
L 293.775398 216.446642 
L 293.775398 216.815333 
L 294.789943 216.815333 
L 294.789943 216.667857 
L 295.804489 216.667857 
L 295.804489 216.889071 
L 296.819034 216.889071 
L 296.819034 216.446642 
L 297.83358 216.446642 
L 297.83358 216.962809 
L 298.848125 216.962809 
L 298.848125 217.626452 
L 300.877216 217.70019 
L 300.877216 213.128427 
L 301.891761 213.128427 
L 301.891761 212.980951 
L 302.906307 212.980951 
L 302.906307 211.653665 
L 303.920852 211.653665 
L 303.920852 209.220307 
L 304.935398 209.220307 
L 304.935398 208.777879 
L 305.949943 208.777879 
L 305.949943 206.565735 
L 307.979034 206.491997 
L 307.979034 202.362663 
L 308.99358 202.362663 
L 308.99358 203.100044 
L 310.008125 203.100044 
L 310.008125 203.984901 
L 311.02267 203.984901 
L 311.02267 204.353592 
L 312.037216 204.353592 
L 312.037216 202.952568 
L 313.051761 202.952568 
L 313.051761 203.689949 
L 314.066307 203.689949 
L 314.066307 203.911163 
L 315.080852 203.911163 
L 315.080852 201.920234 
L 316.095398 201.920234 
L 316.095398 207.671807 
L 317.109943 207.671807 
L 317.109943 204.501068 
L 318.124489 204.501068 
L 318.124489 205.828354 
L 319.139034 205.828354 
L 319.139034 205.238449 
L 320.15358 205.238449 
L 320.15358 206.78695 
L 321.168125 206.78695 
L 321.168125 205.60714 
L 322.18267 205.60714 
L 322.18267 206.491997 
L 323.197216 206.491997 
L 323.197216 206.639473 
L 324.211761 206.639473 
L 324.211761 204.574806 
L 325.226307 204.574806 
L 325.226307 206.123307 
L 327.255398 206.197045 
L 327.255398 208.556664 
L 328.269943 208.556664 
L 328.269943 207.745545 
L 329.284489 207.745545 
L 329.284489 209.51526 
L 330.299034 209.51526 
L 330.299034 208.925355 
L 331.31358 208.925355 
L 331.31358 208.409188 
L 332.328125 208.409188 
L 332.328125 210.621331 
L 333.34267 210.621331 
L 333.34267 212.169832 
L 334.357216 212.169832 
L 334.357216 209.220307 
L 335.371761 209.220307 
L 335.371761 211.137498 
L 336.386307 211.137498 
L 336.386307 210.252641 
L 337.400852 210.252641 
L 337.400852 208.409188 
L 338.415398 208.409188 
L 338.415398 210.252641 
L 340.444489 210.252641 
L 340.444489 210.842546 
L 341.459034 210.842546 
L 341.459034 211.284974 
L 342.47358 211.284974 
L 342.47358 213.128427 
L 343.488125 213.128427 
L 343.488125 213.42338 
L 344.50267 213.42338 
L 344.50267 214.234499 
L 345.517216 214.234499 
L 345.517216 214.087023 
L 346.531761 214.087023 
L 346.531761 213.79207 
L 347.546307 213.79207 
L 347.546307 214.455713 
L 348.560852 214.455713 
L 348.560852 215.414309 
L 349.575398 215.414309 
L 349.575398 218.585048 
L 350.589943 218.585048 
L 350.589943 218.88 
L 372.909943 218.88 
L 372.909943 218.88 
" clip-path="url(#p940e272393)" style="fill: none; stroke: #1f77b4; stroke-width: 1.5; stroke-linecap: square"/>
   </g>
   <g id="line2d_17">
    <path d="M 68.546307 211.874879 
L 69.560852 211.874879 
L 69.560852 183.411968 
L 70.575398 183.411968 
L 70.575398 160.405677 
L 71.589943 160.405677 
L 71.589943 131.057908 
L 72.604489 131.057908 
L 72.604489 98.613138 
L 73.619034 98.613138 
L 73.619034 95.737352 
L 74.63358 95.737352 
L 74.63358 94.852495 
L 75.648125 94.852495 
L 75.648125 93.820161 
L 76.66267 93.820161 
L 76.66267 86.81504 
L 77.677216 86.81504 
L 77.677216 79.80992 
L 78.691761 79.80992 
L 78.691761 69.560322 
L 79.706307 69.560322 
L 79.706307 70.297703 
L 80.720852 70.297703 
L 80.720852 66.684535 
L 81.735398 66.684535 
L 81.735398 62.923892 
L 82.749943 62.923892 
L 82.749943 59.310724 
L 83.764489 59.310724 
L 83.764489 52.674294 
L 84.779034 52.674294 
L 84.779034 47.143936 
L 85.79358 47.143936 
L 85.79358 41.613577 
L 86.808125 41.613577 
L 86.808125 37.263029 
L 87.82267 37.263029 
L 87.82267 28.709407 
L 88.837216 28.709407 
L 88.837216 25.612407 
L 89.851761 25.612407 
L 89.851761 33.207432 
L 90.866307 33.207432 
L 90.866307 32.248837 
L 91.880852 32.248837 
L 91.880852 27.308383 
L 92.895398 27.308383 
L 92.895398 26.497264 
L 93.909943 26.497264 
L 93.909943 30.55286 
L 94.924489 30.55286 
L 94.924489 34.166028 
L 95.939034 34.166028 
L 95.939034 31.511456 
L 96.95358 31.511456 
L 96.95358 41.318625 
L 97.968125 41.318625 
L 97.968125 42.572173 
L 98.98267 42.572173 
L 98.98267 33.944813 
L 99.997216 33.944813 
L 99.997216 43.530768 
L 101.011761 43.530768 
L 101.011761 49.577293 
L 102.026307 49.577293 
L 102.026307 53.63289 
L 103.040852 53.63289 
L 103.040852 67.200702 
L 104.055398 67.200702 
L 104.055398 74.132085 
L 105.069943 74.132085 
L 105.069943 75.459371 
L 106.084489 75.459371 
L 106.084489 86.44635 
L 107.099034 86.44635 
L 107.099034 103.406116 
L 108.11358 103.406116 
L 108.11358 111.959737 
L 109.128125 111.959737 
L 109.128125 112.549642 
L 110.14267 112.549642 
L 110.14267 123.610358 
L 111.157216 123.610358 
L 111.157216 132.385194 
L 112.171761 132.385194 
L 112.171761 138.505457 
L 113.186307 138.505457 
L 113.186307 145.658054 
L 114.200852 145.658054 
L 114.200852 154.359151 
L 115.215398 154.359151 
L 115.215398 160.405677 
L 116.229943 160.405677 
L 116.229943 165.198654 
L 117.244489 165.198654 
L 117.244489 176.480585 
L 118.259034 176.480585 
L 118.259034 182.822063 
L 119.27358 182.822063 
L 119.27358 182.305896 
L 120.288125 182.305896 
L 120.288125 178.324038 
L 121.30267 178.324038 
L 121.30267 160.848105 
L 122.317216 160.848105 
L 122.317216 145.289364 
L 123.331761 145.289364 
L 123.331761 130.025574 
L 124.346307 130.025574 
L 124.346307 115.72038 
L 125.360852 115.72038 
L 125.360852 106.134426 
L 126.375398 106.134426 
L 126.375398 98.391924 
L 127.389943 98.391924 
L 127.389943 94.041375 
L 128.404489 94.041375 
L 128.404489 96.253519 
L 129.419034 96.253519 
L 129.419034 98.318186 
L 130.43358 98.318186 
L 130.43358 95.958566 
L 131.448125 95.958566 
L 131.448125 96.179781 
L 132.46267 96.179781 
L 132.46267 97.285852 
L 133.477216 97.285852 
L 133.477216 103.037425 
L 134.491761 103.037425 
L 134.491761 110.632451 
L 135.506307 110.632451 
L 135.506307 103.184901 
L 136.520852 103.184901 
L 136.520852 108.051617 
L 137.535398 108.051617 
L 137.535398 104.364711 
L 138.549943 104.364711 
L 138.549943 108.125355 
L 139.564489 108.125355 
L 139.564489 106.208164 
L 140.579034 106.208164 
L 140.579034 109.673855 
L 141.59358 109.673855 
L 141.59358 110.337498 
L 142.608125 110.337498 
L 142.608125 116.752714 
L 143.62267 116.752714 
L 143.62267 115.056737 
L 144.637216 115.056737 
L 144.637216 116.162809 
L 145.651761 116.162809 
L 145.651761 119.775977 
L 146.666307 119.775977 
L 146.666307 116.236547 
L 147.680852 116.236547 
L 147.680852 120.882048 
L 148.695398 120.882048 
L 148.695398 128.698288 
L 149.709943 128.698288 
L 149.709943 123.094192 
L 150.724489 123.094192 
L 150.724489 127.592217 
L 151.739034 127.592217 
L 151.739034 124.790168 
L 152.75358 124.790168 
L 152.75358 127.739693 
L 153.768125 127.739693 
L 153.768125 133.196313 
L 154.78267 133.196313 
L 154.78267 132.606408 
L 155.797216 132.606408 
L 155.797216 136.072099 
L 156.811761 136.072099 
L 156.811761 132.385194 
L 157.826307 132.385194 
L 157.826307 139.021624 
L 158.840852 139.021624 
L 158.840852 137.546862 
L 159.855398 137.546862 
L 159.855398 135.924623 
L 160.869943 135.924623 
L 160.869943 142.339839 
L 161.884489 142.339839 
L 161.884489 145.363102 
L 162.899034 145.363102 
L 162.899034 141.602458 
L 163.91358 141.602458 
L 163.91358 144.846935 
L 164.928125 144.846935 
L 164.928125 148.017674 
L 165.94267 148.017674 
L 165.94267 155.391485 
L 166.957216 155.391485 
L 166.957216 155.244009 
L 167.971761 155.244009 
L 167.971761 161.954177 
L 168.986307 161.954177 
L 168.986307 156.35008 
L 170.000852 156.35008 
L 170.000852 157.234938 
L 171.015398 157.234938 
L 171.015398 152.958127 
L 172.029943 152.958127 
L 172.029943 146.837864 
L 173.044489 146.837864 
L 173.044489 142.192363 
L 174.059034 142.192363 
L 174.059034 143.372173 
L 175.07358 143.372173 
L 175.07358 140.201434 
L 176.088125 140.201434 
L 176.088125 143.003482 
L 177.10267 143.003482 
L 177.10267 136.219576 
L 178.117216 136.219576 
L 178.117216 139.316576 
L 179.131761 139.316576 
L 179.131761 149.861127 
L 180.146307 149.861127 
L 180.146307 153.695508 
L 181.160852 153.695508 
L 181.160852 152.220746 
L 182.175398 152.220746 
L 182.175398 157.677366 
L 183.189943 157.677366 
L 183.189943 159.447081 
L 184.204489 159.447081 
L 184.204489 158.930914 
L 185.219034 158.930914 
L 185.219034 156.276342 
L 186.23358 156.276342 
L 186.23358 162.61782 
L 187.248125 162.61782 
L 187.248125 160.553153 
L 188.26267 160.553153 
L 188.26267 159.004653 
L 189.277216 159.004653 
L 189.277216 164.240059 
L 190.291761 164.240059 
L 190.291761 162.470344 
L 191.306307 162.470344 
L 191.306307 161.511748 
L 192.320852 161.511748 
L 192.320852 167.263321 
L 193.335398 167.263321 
L 193.335398 165.936035 
L 194.349943 165.936035 
L 194.349943 164.387535 
L 195.364489 164.387535 
L 195.364489 172.351251 
L 196.379034 172.351251 
L 196.379034 174.858347 
L 197.39358 174.858347 
L 197.39358 175.964418 
L 199.42267 176.038157 
L 199.42267 176.111895 
L 200.437216 176.111895 
L 200.437216 176.554323 
L 201.451761 176.554323 
L 201.451761 181.642253 
L 203.480852 181.642253 
L 203.480852 183.043277 
L 204.495398 183.043277 
L 204.495398 185.402897 
L 205.509943 185.402897 
L 205.509943 187.61504 
L 206.524489 187.61504 
L 206.524489 186.656445 
L 207.539034 186.656445 
L 207.539034 189.827184 
L 208.55358 189.827184 
L 208.55358 193.145399 
L 209.568125 193.145399 
L 209.568125 193.292875 
L 210.58267 193.292875 
L 210.58267 194.398947 
L 211.597216 194.398947 
L 211.597216 197.717162 
L 212.611761 197.717162 
L 212.611761 195.873709 
L 213.626307 195.873709 
L 213.626307 196.094923 
L 214.640852 196.094923 
L 214.640852 193.956518 
L 215.655398 193.956518 
L 215.655398 193.514089 
L 216.669943 193.514089 
L 216.669943 194.767637 
L 217.684489 194.767637 
L 217.684489 188.057469 
L 218.699034 188.057469 
L 218.699034 189.97466 
L 219.71358 189.97466 
L 219.71358 186.361492 
L 220.728125 186.361492 
L 220.728125 187.983731 
L 221.74267 187.983731 
L 221.74267 187.762516 
L 222.757216 187.762516 
L 222.757216 185.624111 
L 223.771761 185.624111 
L 223.771761 194.25147 
L 224.786307 194.25147 
L 224.786307 194.030256 
L 225.800852 194.030256 
L 225.800852 193.292875 
L 226.815398 193.292875 
L 226.815398 196.463614 
L 227.829943 196.463614 
L 227.829943 198.012114 
L 228.844489 198.012114 
L 228.844489 198.15959 
L 229.859034 198.15959 
L 229.859034 196.61109 
L 230.87358 196.61109 
L 230.87358 200.003043 
L 231.888125 200.003043 
L 231.888125 199.265662 
L 233.917216 199.191924 
L 233.917216 201.625282 
L 234.931761 201.625282 
L 234.931761 202.731353 
L 235.946307 202.731353 
L 235.946307 200.51921 
L 236.960852 200.51921 
L 236.960852 205.754616 
L 237.975398 205.754616 
L 237.975398 203.321258 
L 238.989943 203.321258 
L 238.989943 204.722282 
L 240.004489 204.722282 
L 240.004489 207.598069 
L 241.019034 207.598069 
L 241.019034 206.270783 
L 242.03358 206.270783 
L 242.03358 206.860688 
L 243.048125 206.860688 
L 243.048125 208.556664 
L 244.06267 208.556664 
L 244.06267 207.081902 
L 245.077216 207.081902 
L 245.077216 208.556664 
L 246.091761 208.556664 
L 246.091761 210.695069 
L 247.106307 210.695069 
L 247.106307 210.990022 
L 248.120852 210.990022 
L 248.120852 211.211236 
L 250.149943 211.284974 
L 250.149943 211.579927 
L 251.164489 211.579927 
L 251.164489 212.24357 
L 252.179034 212.24357 
L 252.179034 214.013285 
L 253.19358 214.013285 
L 253.19358 212.169832 
L 254.208125 212.169832 
L 254.208125 213.275903 
L 255.22267 213.275903 
L 255.22267 213.42338 
L 256.237216 213.42338 
L 256.237216 213.054689 
L 257.251761 213.054689 
L 257.251761 212.096094 
L 258.266307 212.096094 
L 258.266307 210.252641 
L 259.280852 210.252641 
L 259.280852 208.261712 
L 260.295398 208.261712 
L 260.295398 208.114236 
L 261.309943 208.114236 
L 261.309943 208.556664 
L 262.324489 208.556664 
L 262.324489 207.450593 
L 263.339034 207.450593 
L 263.339034 206.491997 
L 264.35358 206.491997 
L 264.35358 207.008164 
L 265.368125 207.008164 
L 265.368125 208.040497 
L 266.38267 208.040497 
L 266.38267 207.524331 
L 267.397216 207.524331 
L 267.397216 208.409188 
L 268.411761 208.409188 
L 268.411761 208.777879 
L 269.426307 208.777879 
L 269.426307 209.51526 
L 271.455398 209.441522 
L 271.455398 209.294045 
L 272.469943 209.294045 
L 272.469943 209.88395 
L 273.484489 209.88395 
L 273.484489 209.736474 
L 275.51358 209.662736 
L 275.51358 212.096094 
L 276.528125 212.096094 
L 276.528125 212.61226 
L 277.54267 212.61226 
L 277.54267 212.317308 
L 279.571761 212.24357 
L 279.571761 211.948617 
L 280.586307 211.948617 
L 280.586307 212.759737 
L 283.629943 212.685999 
L 283.629943 214.013285 
L 286.67358 213.939546 
L 286.67358 214.603189 
L 288.70267 214.676928 
L 288.70267 214.898142 
L 289.717216 214.898142 
L 289.717216 215.561785 
L 290.731761 215.561785 
L 290.731761 216.225428 
L 291.746307 216.225428 
L 291.746307 215.856737 
L 292.760852 215.856737 
L 292.760852 216.594119 
L 293.775398 216.594119 
L 293.775398 216.741595 
L 294.789943 216.741595 
L 294.789943 216.372904 
L 295.804489 216.372904 
L 295.804489 216.52038 
L 296.819034 216.52038 
L 296.819034 215.709261 
L 297.83358 215.709261 
L 297.83358 215.856737 
L 298.848125 215.856737 
L 298.848125 215.635523 
L 299.86267 215.635523 
L 299.86267 214.750666 
L 300.877216 214.750666 
L 300.877216 212.538522 
L 301.891761 212.538522 
L 301.891761 211.653665 
L 302.906307 211.653665 
L 302.906307 210.252641 
L 303.920852 210.252641 
L 303.920852 208.851617 
L 304.935398 208.851617 
L 304.935398 207.229378 
L 305.949943 207.229378 
L 305.949943 207.745545 
L 306.964489 207.745545 
L 306.964489 206.197045 
L 307.979034 206.197045 
L 307.979034 205.017235 
L 310.008125 204.943497 
L 310.008125 204.869759 
L 311.02267 204.869759 
L 311.02267 202.215187 
L 312.037216 202.215187 
L 312.037216 205.312187 
L 313.051761 205.312187 
L 313.051761 203.468734 
L 314.066307 203.468734 
L 314.066307 205.164711 
L 315.080852 205.164711 
L 315.080852 205.017235 
L 316.095398 205.017235 
L 316.095398 204.869759 
L 317.109943 204.869759 
L 317.109943 205.164711 
L 318.124489 205.164711 
L 318.124489 203.911163 
L 319.139034 203.911163 
L 319.139034 206.197045 
L 320.15358 206.197045 
L 320.15358 205.238449 
L 321.168125 205.238449 
L 321.168125 204.279854 
L 322.18267 204.279854 
L 322.18267 206.344521 
L 323.197216 206.344521 
L 323.197216 207.229378 
L 324.211761 207.229378 
L 324.211761 206.565735 
L 325.226307 206.565735 
L 325.226307 207.524331 
L 326.240852 207.524331 
L 326.240852 207.303116 
L 327.255398 207.303116 
L 327.255398 208.261712 
L 328.269943 208.261712 
L 328.269943 207.819283 
L 329.284489 207.819283 
L 329.284489 207.524331 
L 330.299034 207.524331 
L 330.299034 209.146569 
L 331.31358 209.146569 
L 331.31358 208.851617 
L 332.328125 208.851617 
L 332.328125 208.999093 
L 333.34267 208.999093 
L 333.34267 208.851617 
L 334.357216 208.851617 
L 334.357216 209.588998 
L 335.371761 209.588998 
L 335.371761 209.294045 
L 336.386307 209.294045 
L 336.386307 210.473855 
L 337.400852 210.473855 
L 337.400852 212.24357 
L 338.415398 212.24357 
L 338.415398 211.506189 
L 339.429943 211.506189 
L 339.429943 210.547593 
L 340.444489 210.547593 
L 340.444489 213.202165 
L 341.459034 213.202165 
L 341.459034 212.24357 
L 342.47358 212.24357 
L 342.47358 211.284974 
L 343.488125 211.284974 
L 343.488125 211.948617 
L 344.50267 211.948617 
L 344.50267 213.054689 
L 345.517216 213.054689 
L 345.517216 214.603189 
L 346.531761 214.603189 
L 346.531761 214.750666 
L 347.546307 214.750666 
L 347.546307 214.529451 
L 348.560852 214.529451 
L 348.560852 215.266832 
L 349.575398 215.266832 
L 349.575398 216.299166 
L 350.589943 216.299166 
L 350.589943 217.626452 
L 351.604489 217.626452 
L 351.604489 217.773928 
L 352.619034 217.773928 
L 352.619034 218.437571 
L 353.63358 218.437571 
L 353.63358 218.88 
L 372.909943 218.88 
L 372.909943 218.88 
" clip-path="url(#p940e272393)" style="fill: none; stroke: #ff7f0e; stroke-width: 1.5; stroke-linecap: square"/>
   </g>
   <g id="patch_3">
    <path d="M 53.328125 228.96 
L 53.328125 7.2 
" style="fill: none; stroke: #000000; stroke-width: 0.8; stroke-linejoin: miter; stroke-linecap: square"/>
   </g>
   <g id="patch_4">
    <path d="M 388.128125 228.96 
L 388.128125 7.2 
" style="fill: none; stroke: #000000; stroke-width: 0.8; stroke-linejoin: miter; stroke-linecap: square"/>
   </g>
   <g id="patch_5">
    <path d="M 53.328125 228.96 
L 388.128125 228.96 
" style="fill: none; stroke: #000000; stroke-width: 0.8; stroke-linejoin: miter; stroke-linecap: square"/>
   </g>
   <g id="patch_6">
    <path d="M 53.328125 7.2 
L 388.128125 7.2 
" style="fill: none; stroke: #000000; stroke-width: 0.8; stroke-linejoin: miter; stroke-linecap: square"/>
   </g>
   <g id="legend_1">
    <g id="patch_7">
     <path d="M 284.125 44.834375 
L 381.128125 44.834375 
Q 383.128125 44.834375 383.128125 42.834375 
L 383.128125 14.2 
Q 383.128125 12.2 381.128125 12.2 
L 284.125 12.2 
Q 282.125 12.2 282.125 14.2 
L 282.125 42.834375 
Q 282.125 44.834375 284.125 44.834375 
z
" style="fill: #ffffff; opacity: 0.8; stroke: #cccccc; stroke-linejoin: miter"/>
    </g>
    <g id="line2d_18">
     <path d="M 286.125 20.298437 
L 286.125 20.298437 
L 296.125 20.298437 
L 296.125 20.298437 
L 306.125 20.298437 
" style="fill: none; stroke: #1f77b4; stroke-width: 1.5; stroke-linecap: square"/>
    </g>
    <g id="text_18">
     <!-- wfm -->
     <g transform="translate(314.125 23.798437) scale(0.1 -0.1)">
      <defs>
       <path id="DejaVuSans-66" d="M 2375 4863 
L 2375 4384 
L 1825 4384 
Q 1516 4384 1395 4259 
Q 1275 4134 1275 3809 
L 1275 3500 
L 2222 3500 
L 2222 3053 
L 1275 3053 
L 1275 0 
L 697 0 
L 697 3053 
L 147 3053 
L 147 3500 
L 697 3500 
L 697 3744 
Q 697 4328 969 4595 
Q 1241 4863 1831 4863 
L 2375 4863 
z
" transform="scale(0.015625)"/>
       <path id="DejaVuSans-6d" d="M 3328 2828 
Q 3544 3216 3844 3400 
Q 4144 3584 4550 3584 
Q 5097 3584 5394 3201 
Q 5691 2819 5691 2113 
L 5691 0 
L 5113 0 
L 5113 2094 
Q 5113 2597 4934 2840 
Q 4756 3084 4391 3084 
Q 3944 3084 3684 2787 
Q 3425 2491 3425 1978 
L 3425 0 
L 2847 0 
L 2847 2094 
Q 2847 2600 2669 2842 
Q 2491 3084 2119 3084 
Q 1678 3084 1418 2786 
Q 1159 2488 1159 1978 
L 1159 0 
L 581 0 
L 581 3500 
L 1159 3500 
L 1159 2956 
Q 1356 3278 1631 3431 
Q 1906 3584 2284 3584 
Q 2666 3584 2933 3390 
Q 3200 3197 3328 2828 
z
" transform="scale(0.015625)"/>
      </defs>
      <use xlink:href="#DejaVuSans-77"/>
      <use xlink:href="#DejaVuSans-66" transform="translate(81.787109 0)"/>
      <use xlink:href="#DejaVuSans-6d" transform="translate(116.992188 0)"/>
     </g>
    </g>
    <g id="line2d_19">
     <path d="M 286.125 34.976562 
L 286.125 34.976562 
L 296.125 34.976562 
L 296.125 34.976562 
L 306.125 34.976562 
" style="fill: none; stroke: #ff7f0e; stroke-width: 1.5; stroke-linecap: square"/>
    </g>
    <g id="text_19">
     <!-- ground_truth -->
     <g transform="translate(314.125 38.476562) scale(0.1 -0.1)">
      <defs>
       <path id="DejaVuSans-72" d="M 2631 2963 
Q 2534 3019 2420 3045 
Q 2306 3072 2169 3072 
Q 1681 3072 1420 2755 
Q 1159 2438 1159 1844 
L 1159 0 
L 581 0 
L 581 3500 
L 1159 3500 
L 1159 2956 
Q 1341 3275 1631 3429 
Q 1922 3584 2338 3584 
Q 2397 3584 2469 3576 
Q 2541 3569 2628 3553 
L 2631 2963 
z
" transform="scale(0.015625)"/>
       <path id="DejaVuSans-64" d="M 2906 2969 
L 2906 4863 
L 3481 4863 
L 3481 0 
L 2906 0 
L 2906 525 
Q 2725 213 2448 61 
Q 2172 -91 1784 -91 
Q 1150 -91 751 415 
Q 353 922 353 1747 
Q 353 2572 751 3078 
Q 1150 3584 1784 3584 
Q 2172 3584 2448 3432 
Q 2725 3281 2906 2969 
z
M 947 1747 
Q 947 1113 1208 752 
Q 1469 391 1925 391 
Q 2381 391 2643 752 
Q 2906 1113 2906 1747 
Q 2906 2381 2643 2742 
Q 2381 3103 1925 3103 
Q 1469 3103 1208 2742 
Q 947 2381 947 1747 
z
" transform="scale(0.015625)"/>
       <path id="DejaVuSans-5f" d="M 3263 -1063 
L 3263 -1509 
L -63 -1509 
L -63 -1063 
L 3263 -1063 
z
" transform="scale(0.015625)"/>
      </defs>
      <use xlink:href="#DejaVuSans-67"/>
      <use xlink:href="#DejaVuSans-72" transform="translate(63.476562 0)"/>
      <use xlink:href="#DejaVuSans-6f" transform="translate(102.339844 0)"/>
      <use xlink:href="#DejaVuSans-75" transform="translate(163.521484 0)"/>
      <use xlink:href="#DejaVuSans-6e" transform="translate(226.900391 0)"/>
      <use xlink:href="#DejaVuSans-64" transform="translate(290.279297 0)"/>
      <use xlink:href="#DejaVuSans-5f" transform="translate(353.755859 0)"/>
      <use xlink:href="#DejaVuSans-74" transform="translate(403.755859 0)"/>
      <use xlink:href="#DejaVuSans-72" transform="translate(442.964844 0)"/>
      <use xlink:href="#DejaVuSans-75" transform="translate(484.078125 0)"/>
      <use xlink:href="#DejaVuSans-74" transform="translate(547.457031 0)"/>
      <use xlink:href="#DejaVuSans-68" transform="translate(586.666016 0)"/>
     </g>
    </g>
   </g>
  </g>
 </g>
 <defs>
  <clipPath id="p940e272393">
   <rect x="53.328125" y="7.2" width="334.8" height="221.76"/>
  </clipPath>
 </defs>
</svg>
