<?xml version="1.0" encoding="utf-8" standalone="no"?>
<!DOCTYPE svg PUBLIC "-//W3C//DTD SVG 1.1//EN"
  "http://www.w3.org/Graphics/SVG/1.1/DTD/svg11.dtd">
<svg xmlns:xlink="http://www.w3.org/1999/xlink" width="872.39952pt" height="296.39952pt" viewBox="0 0 872.39952 296.39952" xmlns="http://www.w3.org/2000/svg" version="1.1">
 <metadata>
  <rdf:RDF xmlns:dc="http://purl.org/dc/elements/1.1/" xmlns:cc="http://creativecommons.org/ns#" xmlns:rdf="http://www.w3.org/1999/02/22-rdf-syntax-ns#">
   <cc:Work>
    <dc:type rdf:resource="http://purl.org/dc/dcmitype/StillImage"/>
    <dc:date>2025-11-27T11:58:07.357066</dc:date>
    <dc:format>image/svg+xml</dc:format>
    <dc:creator>
     <cc:Agent>
      <dc:title>Matplotlib v3.10.7, https://matplotlib.org/</dc:title>
     </cc:Agent>
    </dc:creator>
   </cc:Work>
  </rdf:RDF>
 </metadata>
 <defs>
  <style type="text/css">*{stroke-linejoin: round; stroke-linecap: butt}</style>
 </defs>
 <g id="figure_1">
  <g id="patch_1">
   <path d="M 0 296.39952 
L 872.39952 296.39952 
L 872.39952 0 
L 0 0 
z
" style="fill: #ffffff"/>
  </g>
  <g id="axes_1">
   <g id="patch_2">
    <path d="M 53.328125 257.158895 
L 414.59976 257.158895 
L 414.59976 7.2 
L 53.328125 7.2 
z
" style="fill: #ffffff"/>
   </g>
   <g id="matplotlib.axis_1">
    <g id="xtick_1">
     <g id="line2d_1">
      <defs>
       <path id="mb7897cbbfa" d="M 0 0 
L 0 3.5 
" style="stroke: #000000; stroke-width: 0.8"/>
      </defs>
      <g>
       <use xlink:href="#mb7897cbbfa" x="68.871606" y="257.158895" style="stroke: #000000; stroke-width: 0.8"/>
      </g>
     </g>
     <g id="text_1">
      <!-- 0 -->
      <g transform="translate(65.690356 271.757332) scale(0.1 -0.1)">
       <defs>
        <path id="DejaVuSans-30" d="M 2034 4250 
Q 1547 4250 1301 3770 
Q 1056 3291 1056 2328 
Q 1056 1369 1301 889 
Q 1547 409 2034 409 
Q 2525 409 2770 889 
Q 3016 1369 3016 2328 
Q 3016 3291 2770 3770 
Q 2525 4250 2034 4250 
z
M 2034 4750 
Q 2819 4750 3233 4129 
Q 3647 3509 3647 2328 
Q 3647 1150 3233 529 
Q 2819 -91 2034 -91 
Q 1250 -91 836 529 
Q 422 1150 422 2328 
Q 422 3509 836 4129 
Q 1250 4750 2034 4750 
z
" transform="scale(0.015625)"/>
       </defs>
       <use xlink:href="#DejaVuSans-30"/>
      </g>
     </g>
    </g>
    <g id="xtick_2">
     <g id="line2d_2">
      <g>
       <use xlink:href="#mb7897cbbfa" x="134.93373" y="257.158895" style="stroke: #000000; stroke-width: 0.8"/>
      </g>
     </g>
     <g id="text_2">
      <!-- 1000 -->
      <g transform="translate(122.20873 271.757332) scale(0.1 -0.1)">
       <defs>
        <path id="DejaVuSans-31" d="M 794 531 
L 1825 531 
L 1825 4091 
L 703 3866 
L 703 4441 
L 1819 4666 
L 2450 4666 
L 2450 531 
L 3481 531 
L 3481 0 
L 794 0 
L 794 531 
z
" transform="scale(0.015625)"/>
       </defs>
       <use xlink:href="#DejaVuSans-31"/>
       <use xlink:href="#DejaVuSans-30" transform="translate(63.623047 0)"/>
       <use xlink:href="#DejaVuSans-30" transform="translate(127.246094 0)"/>
       <use xlink:href="#DejaVuSans-30" transform="translate(190.869141 0)"/>
      </g>
     </g>
    </g>
    <g id="xtick_3">
     <g id="line2d_3">
      <g>
       <use xlink:href="#mb7897cbbfa" x="200.995855" y="257.158895" style="stroke: #000000; stroke-width: 0.8"/>
      </g>
     </g>
     <g id="text_3">
      <!-- 2000 -->
      <g transform="translate(188.270855 271.757332) scale(0.1 -0.1)">
       <defs>
        <path id="DejaVuSans-32" d="M 1228 531 
L 3431 531 
L 3431 0 
L 469 0 
L 469 531 
Q 828 903 1448 1529 
Q 2069 2156 2228 2338 
Q 2531 2678 2651 2914 
Q 2772 3150 2772 3378 
Q 2772 3750 2511 3984 
Q 2250 4219 1831 4219 
Q 1534 4219 1204 4116 
Q 875 4013 500 3803 
L 500 4441 
Q 881 4594 1212 4672 
Q 1544 4750 1819 4750 
Q 2544 4750 2975 4387 
Q 3406 4025 3406 3419 
Q 3406 3131 3298 2873 
Q 3191 2616 2906 2266 
Q 2828 2175 2409 1742 
Q 1991 1309 1228 531 
z
" transform="scale(0.015625)"/>
       </defs>
       <use xlink:href="#DejaVuSans-32"/>
       <use xlink:href="#DejaVuSans-30" transform="translate(63.623047 0)"/>
       <use xlink:href="#DejaVuSans-30" transform="translate(127.246094 0)"/>
       <use xlink:href="#DejaVuSans-30" transform="translate(190.869141 0)"/>
      </g>
     </g>
    </g>
    <g id="xtick_4">
     <g id="line2d_4">
      <g>
       <use xlink:href="#mb7897cbbfa" x="267.05798" y="257.158895" style="stroke: #000000; stroke-width: 0.8"/>
      </g>
     </g>
     <g id="text_4">
      <!-- 3000 -->
      <g transform="translate(254.33298 271.757332) scale(0.1 -0.1)">
       <defs>
        <path id="DejaVuSans-33" d="M 2597 2516 
Q 3050 2419 3304 2112 
Q 3559 1806 3559 1356 
Q 3559 666 3084 287 
Q 2609 -91 1734 -91 
Q 1441 -91 1130 -33 
Q 819 25 488 141 
L 488 750 
Q 750 597 1062 519 
Q 1375 441 1716 441 
Q 2309 441 2620 675 
Q 2931 909 2931 1356 
Q 2931 1769 2642 2001 
Q 2353 2234 1838 2234 
L 1294 2234 
L 1294 2753 
L 1863 2753 
Q 2328 2753 2575 2939 
Q 2822 3125 2822 3475 
Q 2822 3834 2567 4026 
Q 2313 4219 1838 4219 
Q 1578 4219 1281 4162 
Q 984 4106 628 3988 
L 628 4550 
Q 988 4650 1302 4700 
Q 1616 4750 1894 4750 
Q 2613 4750 3031 4423 
Q 3450 4097 3450 3541 
Q 3450 3153 3228 2886 
Q 3006 2619 2597 2516 
z
" transform="scale(0.015625)"/>
       </defs>
       <use xlink:href="#DejaVuSans-33"/>
       <use xlink:href="#DejaVuSans-30" transform="translate(63.623047 0)"/>
       <use xlink:href="#DejaVuSans-30" transform="translate(127.246094 0)"/>
       <use xlink:href="#DejaVuSans-30" transform="translate(190.869141 0)"/>
      </g>
     </g>
    </g>
    <g id="xtick_5">
     <g id="line2d_5">
      <g>
       <use xlink:href="#mb7897cbbfa" x="333.120105" y="257.158895" style="stroke: #000000; stroke-width: 0.8"/>
      </g>
     </g>
     <g id="text_5">
      <!-- 4000 -->
      <g transform="translate(320.395105 271.757332) scale(0.1 -0.1)">
       <defs>
        <path id="DejaVuSans-34" d="M 2419 4116 
L 825 1625 
L 2419 1625 
L 2419 4116 
z
M 2253 4666 
L 3047 4666 
L 3047 1625 
L 3713 1625 
L 3713 1100 
L 3047 1100 
L 3047 0 
L 2419 0 
L 2419 1100 
L 313 1100 
L 313 1709 
L 2253 4666 
z
" transform="scale(0.015625)"/>
       </defs>
       <use xlink:href="#DejaVuSans-34"/>
       <use xlink:href="#DejaVuSans-30" transform="translate(63.623047 0)"/>
       <use xlink:href="#DejaVuSans-30" transform="translate(127.246094 0)"/>
       <use xlink:href="#DejaVuSans-30" transform="translate(190.869141 0)"/>
      </g>
     </g>
    </g>
    <g id="xtick_6">
     <g id="line2d_6">
      <g>
       <use xlink:href="#mb7897cbbfa" x="399.18223" y="257.158895" style="stroke: #000000; stroke-width: 0.8"/>
      </g>
     </g>
     <g id="text_6">
      <!-- 5000 -->
      <g transform="translate(386.45723 271.757332) scale(0.1 -0.1)">
       <defs>
        <path id="DejaVuSans-35" d="M 691 4666 
L 3169 4666 
L 3169 4134 
L 1269 4134 
L 1269 2991 
Q 1406 3038 1543 3061 
Q 1681 3084 1819 3084 
Q 2600 3084 3056 2656 
Q 3513 2228 3513 1497 
Q 3513 744 3044 326 
Q 2575 -91 1722 -91 
Q 1428 -91 1123 -41 
Q 819 9 494 109 
L 494 744 
Q 775 591 1075 516 
Q 1375 441 1709 441 
Q 2250 441 2565 725 
Q 2881 1009 2881 1497 
Q 2881 1984 2565 2268 
Q 2250 2553 1709 2553 
Q 1456 2553 1204 2497 
Q 953 2441 691 2322 
L 691 4666 
z
" transform="scale(0.015625)"/>
       </defs>
       <use xlink:href="#DejaVuSans-35"/>
       <use xlink:href="#DejaVuSans-30" transform="translate(63.623047 0)"/>
       <use xlink:href="#DejaVuSans-30" transform="translate(127.246094 0)"/>
       <use xlink:href="#DejaVuSans-30" transform="translate(190.869141 0)"/>
      </g>
     </g>
    </g>
    <g id="text_7">
     <!-- birth_time [µs] -->
     <g transform="translate(197.14363 285.435457) scale(0.1 -0.1)">
      <defs>
       <path id="DejaVuSans-62" d="M 3116 1747 
Q 3116 2381 2855 2742 
Q 2594 3103 2138 3103 
Q 1681 3103 1420 2742 
Q 1159 2381 1159 1747 
Q 1159 1113 1420 752 
Q 1681 391 2138 391 
Q 2594 391 2855 752 
Q 3116 1113 3116 1747 
z
M 1159 2969 
Q 1341 3281 1617 3432 
Q 1894 3584 2278 3584 
Q 2916 3584 3314 3078 
Q 3713 2572 3713 1747 
Q 3713 922 3314 415 
Q 2916 -91 2278 -91 
Q 1894 -91 1617 61 
Q 1341 213 1159 525 
L 1159 0 
L 581 0 
L 581 4863 
L 1159 4863 
L 1159 2969 
z
" transform="scale(0.015625)"/>
       <path id="DejaVuSans-69" d="M 603 3500 
L 1178 3500 
L 1178 0 
L 603 0 
L 603 3500 
z
M 603 4863 
L 1178 4863 
L 1178 4134 
L 603 4134 
L 603 4863 
z
" transform="scale(0.015625)"/>
       <path id="DejaVuSans-72" d="M 2631 2963 
Q 2534 3019 2420 3045 
Q 2306 3072 2169 3072 
Q 1681 3072 1420 2755 
Q 1159 2438 1159 1844 
L 1159 0 
L 581 0 
L 581 3500 
L 1159 3500 
L 1159 2956 
Q 1341 3275 1631 3429 
Q 1922 3584 2338 3584 
Q 2397 3584 2469 3576 
Q 2541 3569 2628 3553 
L 2631 2963 
z
" transform="scale(0.015625)"/>
       <path id="DejaVuSans-74" d="M 1172 4494 
L 1172 3500 
L 2356 3500 
L 2356 3053 
L 1172 3053 
L 1172 1153 
Q 1172 725 1289 603 
Q 1406 481 1766 481 
L 2356 481 
L 2356 0 
L 1766 0 
Q 1100 0 847 248 
Q 594 497 594 1153 
L 594 3053 
L 172 3053 
L 172 3500 
L 594 3500 
L 594 4494 
L 1172 4494 
z
" transform="scale(0.015625)"/>
       <path id="DejaVuSans-68" d="M 3513 2113 
L 3513 0 
L 2938 0 
L 2938 2094 
Q 2938 2591 2744 2837 
Q 2550 3084 2163 3084 
Q 1697 3084 1428 2787 
Q 1159 2491 1159 1978 
L 1159 0 
L 581 0 
L 581 4863 
L 1159 4863 
L 1159 2956 
Q 1366 3272 1645 3428 
Q 1925 3584 2291 3584 
Q 2894 3584 3203 3211 
Q 3513 2838 3513 2113 
z
" transform="scale(0.015625)"/>
       <path id="DejaVuSans-5f" d="M 3263 -1063 
L 3263 -1509 
L -63 -1509 
L -63 -1063 
L 3263 -1063 
z
" transform="scale(0.015625)"/>
       <path id="DejaVuSans-6d" d="M 3328 2828 
Q 3544 3216 3844 3400 
Q 4144 3584 4550 3584 
Q 5097 3584 5394 3201 
Q 5691 2819 5691 2113 
L 5691 0 
L 5113 0 
L 5113 2094 
Q 5113 2597 4934 2840 
Q 4756 3084 4391 3084 
Q 3944 3084 3684 2787 
Q 3425 2491 3425 1978 
L 3425 0 
L 2847 0 
L 2847 2094 
Q 2847 2600 2669 2842 
Q 2491 3084 2119 3084 
Q 1678 3084 1418 2786 
Q 1159 2488 1159 1978 
L 1159 0 
L 581 0 
L 581 3500 
L 1159 3500 
L 1159 2956 
Q 1356 3278 1631 3431 
Q 1906 3584 2284 3584 
Q 2666 3584 2933 3390 
Q 3200 3197 3328 2828 
z
" transform="scale(0.015625)"/>
       <path id="DejaVuSans-65" d="M 3597 1894 
L 3597 1613 
L 953 1613 
Q 991 1019 1311 708 
Q 1631 397 2203 397 
Q 2534 397 2845 478 
Q 3156 559 3463 722 
L 3463 178 
Q 3153 47 2828 -22 
Q 2503 -91 2169 -91 
Q 1331 -91 842 396 
Q 353 884 353 1716 
Q 353 2575 817 3079 
Q 1281 3584 2069 3584 
Q 2775 3584 3186 3129 
Q 3597 2675 3597 1894 
z
M 3022 2063 
Q 3016 2534 2758 2815 
Q 2500 3097 2075 3097 
Q 1594 3097 1305 2825 
Q 1016 2553 972 2059 
L 3022 2063 
z
" transform="scale(0.015625)"/>
       <path id="DejaVuSans-20" transform="scale(0.015625)"/>
       <path id="DejaVuSans-5b" d="M 550 4863 
L 1875 4863 
L 1875 4416 
L 1125 4416 
L 1125 -397 
L 1875 -397 
L 1875 -844 
L 550 -844 
L 550 4863 
z
" transform="scale(0.015625)"/>
       <path id="DejaVuSans-b5" d="M 544 -1331 
L 544 3500 
L 1119 3500 
L 1119 1325 
Q 1119 872 1334 640 
Q 1550 409 1972 409 
Q 2434 409 2667 671 
Q 2900 934 2900 1459 
L 2900 3500 
L 3475 3500 
L 3475 806 
Q 3475 619 3529 530 
Q 3584 441 3700 441 
Q 3728 441 3778 458 
Q 3828 475 3916 513 
L 3916 50 
Q 3788 -22 3673 -56 
Q 3559 -91 3450 -91 
Q 3234 -91 3106 31 
Q 2978 153 2931 403 
Q 2775 156 2548 32 
Q 2322 -91 2016 -91 
Q 1697 -91 1473 31 
Q 1250 153 1119 397 
L 1119 -1331 
L 544 -1331 
z
" transform="scale(0.015625)"/>
       <path id="DejaVuSans-73" d="M 2834 3397 
L 2834 2853 
Q 2591 2978 2328 3040 
Q 2066 3103 1784 3103 
Q 1356 3103 1142 2972 
Q 928 2841 928 2578 
Q 928 2378 1081 2264 
Q 1234 2150 1697 2047 
L 1894 2003 
Q 2506 1872 2764 1633 
Q 3022 1394 3022 966 
Q 3022 478 2636 193 
Q 2250 -91 1575 -91 
Q 1294 -91 989 -36 
Q 684 19 347 128 
L 347 722 
Q 666 556 975 473 
Q 1284 391 1588 391 
Q 1994 391 2212 530 
Q 2431 669 2431 922 
Q 2431 1156 2273 1281 
Q 2116 1406 1581 1522 
L 1381 1569 
Q 847 1681 609 1914 
Q 372 2147 372 2553 
Q 372 3047 722 3315 
Q 1072 3584 1716 3584 
Q 2034 3584 2315 3537 
Q 2597 3491 2834 3397 
z
" transform="scale(0.015625)"/>
       <path id="DejaVuSans-5d" d="M 1947 4863 
L 1947 -844 
L 622 -844 
L 622 -397 
L 1369 -397 
L 1369 4416 
L 622 4416 
L 622 4863 
L 1947 4863 
z
" transform="scale(0.015625)"/>
      </defs>
      <use xlink:href="#DejaVuSans-62"/>
      <use xlink:href="#DejaVuSans-69" transform="translate(63.476562 0)"/>
      <use xlink:href="#DejaVuSans-72" transform="translate(91.259766 0)"/>
      <use xlink:href="#DejaVuSans-74" transform="translate(132.373047 0)"/>
      <use xlink:href="#DejaVuSans-68" transform="translate(171.582031 0)"/>
      <use xlink:href="#DejaVuSans-5f" transform="translate(234.960938 0)"/>
      <use xlink:href="#DejaVuSans-74" transform="translate(284.960938 0)"/>
      <use xlink:href="#DejaVuSans-69" transform="translate(324.169922 0)"/>
      <use xlink:href="#DejaVuSans-6d" transform="translate(351.953125 0)"/>
      <use xlink:href="#DejaVuSans-65" transform="translate(449.365234 0)"/>
      <use xlink:href="#DejaVuSans-20" transform="translate(510.888672 0)"/>
      <use xlink:href="#DejaVuSans-5b" transform="translate(542.675781 0)"/>
      <use xlink:href="#DejaVuSans-b5" transform="translate(581.689453 0)"/>
      <use xlink:href="#DejaVuSans-73" transform="translate(645.3125 0)"/>
      <use xlink:href="#DejaVuSans-5d" transform="translate(697.412109 0)"/>
     </g>
    </g>
   </g>
   <g id="matplotlib.axis_2">
    <g id="ytick_1">
     <g id="line2d_7">
      <defs>
       <path id="mcdb6e73578" d="M 0 0 
L -3.5 0 
" style="stroke: #000000; stroke-width: 0.8"/>
      </defs>
      <g>
       <use xlink:href="#mcdb6e73578" x="53.328125" y="245.797127" style="stroke: #000000; stroke-width: 0.8"/>
      </g>
     </g>
     <g id="text_8">
      <!-- 0 -->
      <g transform="translate(39.965625 249.596346) scale(0.1 -0.1)">
       <use xlink:href="#DejaVuSans-30"/>
      </g>
     </g>
    </g>
    <g id="ytick_2">
     <g id="line2d_8">
      <g>
       <use xlink:href="#mcdb6e73578" x="53.328125" y="208.788111" style="stroke: #000000; stroke-width: 0.8"/>
      </g>
     </g>
     <g id="text_9">
      <!-- 200 -->
      <g transform="translate(27.240625 212.58733) scale(0.1 -0.1)">
       <use xlink:href="#DejaVuSans-32"/>
       <use xlink:href="#DejaVuSans-30" transform="translate(63.623047 0)"/>
       <use xlink:href="#DejaVuSans-30" transform="translate(127.246094 0)"/>
      </g>
     </g>
    </g>
    <g id="ytick_3">
     <g id="line2d_9">
      <g>
       <use xlink:href="#mcdb6e73578" x="53.328125" y="171.779095" style="stroke: #000000; stroke-width: 0.8"/>
      </g>
     </g>
     <g id="text_10">
      <!-- 400 -->
      <g transform="translate(27.240625 175.578314) scale(0.1 -0.1)">
       <use xlink:href="#DejaVuSans-34"/>
       <use xlink:href="#DejaVuSans-30" transform="translate(63.623047 0)"/>
       <use xlink:href="#DejaVuSans-30" transform="translate(127.246094 0)"/>
      </g>
     </g>
    </g>
    <g id="ytick_4">
     <g id="line2d_10">
      <g>
       <use xlink:href="#mcdb6e73578" x="53.328125" y="134.770079" style="stroke: #000000; stroke-width: 0.8"/>
      </g>
     </g>
     <g id="text_11">
      <!-- 600 -->
      <g transform="translate(27.240625 138.569297) scale(0.1 -0.1)">
       <defs>
        <path id="DejaVuSans-36" d="M 2113 2584 
Q 1688 2584 1439 2293 
Q 1191 2003 1191 1497 
Q 1191 994 1439 701 
Q 1688 409 2113 409 
Q 2538 409 2786 701 
Q 3034 994 3034 1497 
Q 3034 2003 2786 2293 
Q 2538 2584 2113 2584 
z
M 3366 4563 
L 3366 3988 
Q 3128 4100 2886 4159 
Q 2644 4219 2406 4219 
Q 1781 4219 1451 3797 
Q 1122 3375 1075 2522 
Q 1259 2794 1537 2939 
Q 1816 3084 2150 3084 
Q 2853 3084 3261 2657 
Q 3669 2231 3669 1497 
Q 3669 778 3244 343 
Q 2819 -91 2113 -91 
Q 1303 -91 875 529 
Q 447 1150 447 2328 
Q 447 3434 972 4092 
Q 1497 4750 2381 4750 
Q 2619 4750 2861 4703 
Q 3103 4656 3366 4563 
z
" transform="scale(0.015625)"/>
       </defs>
       <use xlink:href="#DejaVuSans-36"/>
       <use xlink:href="#DejaVuSans-30" transform="translate(63.623047 0)"/>
       <use xlink:href="#DejaVuSans-30" transform="translate(127.246094 0)"/>
      </g>
     </g>
    </g>
    <g id="ytick_5">
     <g id="line2d_11">
      <g>
       <use xlink:href="#mcdb6e73578" x="53.328125" y="97.761062" style="stroke: #000000; stroke-width: 0.8"/>
      </g>
     </g>
     <g id="text_12">
      <!-- 800 -->
      <g transform="translate(27.240625 101.560281) scale(0.1 -0.1)">
       <defs>
        <path id="DejaVuSans-38" d="M 2034 2216 
Q 1584 2216 1326 1975 
Q 1069 1734 1069 1313 
Q 1069 891 1326 650 
Q 1584 409 2034 409 
Q 2484 409 2743 651 
Q 3003 894 3003 1313 
Q 3003 1734 2745 1975 
Q 2488 2216 2034 2216 
z
M 1403 2484 
Q 997 2584 770 2862 
Q 544 3141 544 3541 
Q 544 4100 942 4425 
Q 1341 4750 2034 4750 
Q 2731 4750 3128 4425 
Q 3525 4100 3525 3541 
Q 3525 3141 3298 2862 
Q 3072 2584 2669 2484 
Q 3125 2378 3379 2068 
Q 3634 1759 3634 1313 
Q 3634 634 3220 271 
Q 2806 -91 2034 -91 
Q 1263 -91 848 271 
Q 434 634 434 1313 
Q 434 1759 690 2068 
Q 947 2378 1403 2484 
z
M 1172 3481 
Q 1172 3119 1398 2916 
Q 1625 2713 2034 2713 
Q 2441 2713 2670 2916 
Q 2900 3119 2900 3481 
Q 2900 3844 2670 4047 
Q 2441 4250 2034 4250 
Q 1625 4250 1398 4047 
Q 1172 3844 1172 3481 
z
" transform="scale(0.015625)"/>
       </defs>
       <use xlink:href="#DejaVuSans-38"/>
       <use xlink:href="#DejaVuSans-30" transform="translate(63.623047 0)"/>
       <use xlink:href="#DejaVuSans-30" transform="translate(127.246094 0)"/>
      </g>
     </g>
    </g>
    <g id="ytick_6">
     <g id="line2d_12">
      <g>
       <use xlink:href="#mcdb6e73578" x="53.328125" y="60.752046" style="stroke: #000000; stroke-width: 0.8"/>
      </g>
     </g>
     <g id="text_13">
      <!-- 1000 -->
      <g transform="translate(20.878125 64.551265) scale(0.1 -0.1)">
       <use xlink:href="#DejaVuSans-31"/>
       <use xlink:href="#DejaVuSans-30" transform="translate(63.623047 0)"/>
       <use xlink:href="#DejaVuSans-30" transform="translate(127.246094 0)"/>
       <use xlink:href="#DejaVuSans-30" transform="translate(190.869141 0)"/>
      </g>
     </g>
    </g>
    <g id="ytick_7">
     <g id="line2d_13">
      <g>
       <use xlink:href="#mcdb6e73578" x="53.328125" y="23.74303" style="stroke: #000000; stroke-width: 0.8"/>
      </g>
     </g>
     <g id="text_14">
      <!-- 1200 -->
      <g transform="translate(20.878125 27.542249) scale(0.1 -0.1)">
       <use xlink:href="#DejaVuSans-31"/>
       <use xlink:href="#DejaVuSans-32" transform="translate(63.623047 0)"/>
       <use xlink:href="#DejaVuSans-30" transform="translate(127.246094 0)"/>
       <use xlink:href="#DejaVuSans-30" transform="translate(190.869141 0)"/>
      </g>
     </g>
    </g>
    <g id="text_15">
     <!-- [counts] -->
     <g transform="translate(14.798438 152.791947) rotate(-90) scale(0.1 -0.1)">
      <defs>
       <path id="DejaVuSans-63" d="M 3122 3366 
L 3122 2828 
Q 2878 2963 2633 3030 
Q 2388 3097 2138 3097 
Q 1578 3097 1268 2742 
Q 959 2388 959 1747 
Q 959 1106 1268 751 
Q 1578 397 2138 397 
Q 2388 397 2633 464 
Q 2878 531 3122 666 
L 3122 134 
Q 2881 22 2623 -34 
Q 2366 -91 2075 -91 
Q 1284 -91 818 406 
Q 353 903 353 1747 
Q 353 2603 823 3093 
Q 1294 3584 2113 3584 
Q 2378 3584 2631 3529 
Q 2884 3475 3122 3366 
z
" transform="scale(0.015625)"/>
       <path id="DejaVuSans-6f" d="M 1959 3097 
Q 1497 3097 1228 2736 
Q 959 2375 959 1747 
Q 959 1119 1226 758 
Q 1494 397 1959 397 
Q 2419 397 2687 759 
Q 2956 1122 2956 1747 
Q 2956 2369 2687 2733 
Q 2419 3097 1959 3097 
z
M 1959 3584 
Q 2709 3584 3137 3096 
Q 3566 2609 3566 1747 
Q 3566 888 3137 398 
Q 2709 -91 1959 -91 
Q 1206 -91 779 398 
Q 353 888 353 1747 
Q 353 2609 779 3096 
Q 1206 3584 1959 3584 
z
" transform="scale(0.015625)"/>
       <path id="DejaVuSans-75" d="M 544 1381 
L 544 3500 
L 1119 3500 
L 1119 1403 
Q 1119 906 1312 657 
Q 1506 409 1894 409 
Q 2359 409 2629 706 
Q 2900 1003 2900 1516 
L 2900 3500 
L 3475 3500 
L 3475 0 
L 2900 0 
L 2900 538 
Q 2691 219 2414 64 
Q 2138 -91 1772 -91 
Q 1169 -91 856 284 
Q 544 659 544 1381 
z
M 1991 3584 
L 1991 3584 
z
" transform="scale(0.015625)"/>
       <path id="DejaVuSans-6e" d="M 3513 2113 
L 3513 0 
L 2938 0 
L 2938 2094 
Q 2938 2591 2744 2837 
Q 2550 3084 2163 3084 
Q 1697 3084 1428 2787 
Q 1159 2491 1159 1978 
L 1159 0 
L 581 0 
L 581 3500 
L 1159 3500 
L 1159 2956 
Q 1366 3272 1645 3428 
Q 1925 3584 2291 3584 
Q 2894 3584 3203 3211 
Q 3513 2838 3513 2113 
z
" transform="scale(0.015625)"/>
      </defs>
      <use xlink:href="#DejaVuSans-5b"/>
      <use xlink:href="#DejaVuSans-63" transform="translate(39.013672 0)"/>
      <use xlink:href="#DejaVuSans-6f" transform="translate(93.994141 0)"/>
      <use xlink:href="#DejaVuSans-75" transform="translate(155.175781 0)"/>
      <use xlink:href="#DejaVuSans-6e" transform="translate(218.554688 0)"/>
      <use xlink:href="#DejaVuSans-74" transform="translate(281.933594 0)"/>
      <use xlink:href="#DejaVuSans-73" transform="translate(321.142578 0)"/>
      <use xlink:href="#DejaVuSans-5d" transform="translate(373.242188 0)"/>
     </g>
    </g>
   </g>
   <g id="line2d_14">
    <path d="M 69.749563 234.139287 
L 70.844325 234.139287 
L 70.844325 227.477664 
L 71.939088 227.477664 
L 71.939088 218.5955 
L 73.033851 218.5955 
L 73.033851 213.229193 
L 74.128613 213.229193 
L 74.128613 201.571353 
L 75.223376 201.571353 
L 75.223376 192.319099 
L 76.318138 192.319099 
L 76.318138 185.472431 
L 77.412901 185.472431 
L 77.412901 169.188464 
L 79.602426 169.188464 
L 79.602426 155.310083 
L 80.697188 155.310083 
L 80.697188 153.274587 
L 81.791951 153.274587 
L 81.791951 142.356927 
L 82.886713 142.356927 
L 82.886713 136.99062 
L 83.981476 136.99062 
L 83.981476 133.659808 
L 85.076238 133.659808 
L 85.076238 129.958907 
L 86.171001 129.958907 
L 86.171001 119.781427 
L 87.265763 119.781427 
L 87.265763 115.1553 
L 88.360526 115.1553 
L 88.360526 117.930976 
L 89.455288 117.930976 
L 89.455288 106.828271 
L 90.550051 106.828271 
L 90.550051 103.312415 
L 91.644814 103.312415 
L 91.644814 104.23764 
L 93.834339 104.23764 
L 93.834339 98.686288 
L 94.929101 98.686288 
L 94.929101 86.473313 
L 96.023864 86.473313 
L 96.023864 85.548087 
L 97.118626 85.548087 
L 97.118626 92.20971 
L 98.213389 92.20971 
L 98.213389 89.248989 
L 99.308151 89.248989 
L 99.308151 82.032231 
L 100.402914 82.032231 
L 100.402914 77.591149 
L 101.497676 77.591149 
L 101.497676 74.815472 
L 102.592439 74.815472 
L 102.592439 60.196911 
L 103.687201 60.196911 
L 103.687201 66.673489 
L 104.781964 66.673489 
L 104.781964 69.819255 
L 105.876726 69.819255 
L 105.876726 61.677272 
L 106.971489 61.677272 
L 106.971489 65.378173 
L 108.066252 65.378173 
L 108.066252 71.114571 
L 109.161014 71.114571 
L 109.161014 49.834387 
L 110.255777 49.834387 
L 110.255777 65.933309 
L 111.350539 65.933309 
L 111.350539 50.944657 
L 112.445302 50.944657 
L 112.445302 44.283034 
L 113.540064 44.283034 
L 113.540064 55.755829 
L 114.634827 55.755829 
L 114.634827 57.051145 
L 115.729589 57.051145 
L 115.729589 47.428801 
L 116.824352 47.428801 
L 116.824352 54.830604 
L 117.919114 54.830604 
L 117.919114 57.23619 
L 119.013877 57.23619 
L 119.013877 52.795108 
L 120.108639 52.795108 
L 120.108639 47.613846 
L 121.203402 47.613846 
L 121.203402 52.425018 
L 122.298164 52.425018 
L 122.298164 51.129702 
L 123.392927 51.129702 
L 123.392927 45.763395 
L 124.487689 45.763395 
L 124.487689 40.026997 
L 125.582452 40.026997 
L 125.582452 43.357809 
L 126.677215 43.357809 
L 126.677215 40.212042 
L 127.771977 40.212042 
L 127.771977 39.101772 
L 128.86674 39.101772 
L 128.86674 54.645559 
L 129.961502 54.645559 
L 129.961502 46.31853 
L 131.056265 46.31853 
L 131.056265 43.912944 
L 132.151027 43.912944 
L 132.151027 34.2906 
L 133.24579 34.2906 
L 133.24579 43.172764 
L 134.340552 43.172764 
L 134.340552 35.77096 
L 135.435315 35.77096 
L 135.435315 27.999067 
L 136.530077 27.999067 
L 136.530077 38.916727 
L 138.719602 38.916727 
L 138.719602 30.589698 
L 139.814365 30.589698 
L 139.814365 30.219608 
L 140.909127 30.219608 
L 140.909127 28.554202 
L 142.00389 28.554202 
L 142.00389 30.774743 
L 143.098652 30.774743 
L 143.098652 31.885014 
L 144.193415 31.885014 
L 144.193415 52.610063 
L 145.288178 52.610063 
L 145.288178 31.144833 
L 146.38294 31.144833 
L 146.38294 41.692403 
L 147.477703 41.692403 
L 147.477703 37.621411 
L 148.572465 37.621411 
L 148.572465 26.703752 
L 149.667228 26.703752 
L 149.667228 36.141051 
L 150.76199 36.141051 
L 150.76199 35.77096 
L 151.856753 35.77096 
L 151.856753 35.585915 
L 152.951515 35.585915 
L 152.951515 39.101772 
L 154.046278 39.101772 
L 154.046278 40.212042 
L 155.14104 40.212042 
L 155.14104 34.66069 
L 156.235803 34.66069 
L 156.235803 30.034563 
L 157.330565 30.034563 
L 157.330565 32.995284 
L 159.52009 32.995284 
L 159.52009 25.408436 
L 160.614853 25.408436 
L 160.614853 30.589698 
L 161.709615 30.589698 
L 161.709615 46.873665 
L 162.804378 46.873665 
L 162.804378 28.739247 
L 163.899141 28.739247 
L 163.899141 33.550419 
L 164.993903 33.550419 
L 164.993903 26.518706 
L 166.088666 26.518706 
L 166.088666 22.26267 
L 167.183428 22.26267 
L 167.183428 38.731682 
L 168.278191 38.731682 
L 168.278191 27.999067 
L 169.372953 27.999067 
L 169.372953 42.617628 
L 170.467716 42.617628 
L 170.467716 39.471862 
L 171.562478 39.471862 
L 171.562478 31.699969 
L 172.657241 31.699969 
L 172.657241 41.322313 
L 173.752003 41.322313 
L 173.752003 38.546637 
L 174.846766 38.546637 
L 174.846766 34.475645 
L 175.941528 34.475645 
L 175.941528 23.00285 
L 177.036291 23.00285 
L 177.036291 29.849518 
L 178.131053 29.849518 
L 178.131053 30.959788 
L 179.225816 30.959788 
L 179.225816 37.436366 
L 180.320579 37.436366 
L 180.320579 34.475645 
L 181.415341 34.475645 
L 181.415341 34.66069 
L 182.510104 34.66069 
L 182.510104 37.066276 
L 183.604866 37.066276 
L 183.604866 33.550419 
L 184.699629 33.550419 
L 184.699629 33.92051 
L 185.794391 33.92051 
L 185.794391 34.66069 
L 186.889154 34.66069 
L 186.889154 42.802674 
L 187.983916 42.802674 
L 187.983916 33.365374 
L 189.078679 33.365374 
L 189.078679 33.550419 
L 190.173441 33.550419 
L 190.173441 35.03078 
L 191.268204 35.03078 
L 191.268204 34.475645 
L 192.362966 34.475645 
L 192.362966 32.440149 
L 193.457729 32.440149 
L 193.457729 18.561768 
L 194.552491 18.561768 
L 194.552491 27.258887 
L 195.647254 27.258887 
L 195.647254 36.881231 
L 196.742016 36.881231 
L 196.742016 34.2906 
L 197.836779 34.2906 
L 197.836779 20.042129 
L 198.931542 20.042129 
L 198.931542 24.298165 
L 200.026304 24.298165 
L 200.026304 34.105555 
L 201.121067 34.105555 
L 201.121067 37.436366 
L 202.215829 37.436366 
L 202.215829 25.408436 
L 203.310592 25.408436 
L 203.310592 33.365374 
L 204.405354 33.365374 
L 204.405354 31.885014 
L 205.500117 31.885014 
L 205.500117 30.959788 
L 206.594879 30.959788 
L 206.594879 33.550419 
L 207.689642 33.550419 
L 207.689642 32.810239 
L 208.784404 32.810239 
L 208.784404 28.924292 
L 209.879167 28.924292 
L 209.879167 23.928075 
L 210.973929 23.928075 
L 210.973929 25.038346 
L 212.068692 25.038346 
L 212.068692 35.03078 
L 213.163454 35.03078 
L 213.163454 40.397087 
L 214.258217 40.397087 
L 214.258217 32.995284 
L 215.352979 32.995284 
L 215.352979 28.369157 
L 216.447742 28.369157 
L 216.447742 32.810239 
L 217.542505 32.810239 
L 217.542505 32.070059 
L 218.637267 32.070059 
L 218.637267 27.073842 
L 219.73203 27.073842 
L 219.73203 31.699969 
L 220.826792 31.699969 
L 220.826792 39.286817 
L 221.921555 39.286817 
L 221.921555 36.696186 
L 223.016317 36.696186 
L 223.016317 33.92051 
L 224.11108 33.92051 
L 224.11108 31.329879 
L 225.205842 31.329879 
L 225.205842 36.511141 
L 226.300605 36.511141 
L 226.300605 40.026997 
L 227.395367 40.026997 
L 227.395367 36.881231 
L 228.49013 36.881231 
L 228.49013 25.408436 
L 229.584892 25.408436 
L 229.584892 31.699969 
L 230.679655 31.699969 
L 230.679655 33.180329 
L 231.774417 33.180329 
L 231.774417 35.77096 
L 232.86918 35.77096 
L 232.86918 22.26267 
L 233.963942 22.26267 
L 233.963942 19.672038 
L 235.058705 19.672038 
L 235.058705 31.144833 
L 236.153468 31.144833 
L 236.153468 32.255104 
L 237.24823 32.255104 
L 237.24823 22.63276 
L 238.342993 22.63276 
L 238.342993 26.888797 
L 239.437755 26.888797 
L 239.437755 29.109338 
L 241.62728 29.109338 
L 241.62728 26.703752 
L 242.722043 26.703752 
L 242.722043 30.404653 
L 243.816805 30.404653 
L 243.816805 32.440149 
L 244.911568 32.440149 
L 244.911568 33.365374 
L 246.00633 33.365374 
L 246.00633 35.77096 
L 247.101093 35.77096 
L 247.101093 32.440149 
L 248.195855 32.440149 
L 248.195855 25.963571 
L 249.290618 25.963571 
L 249.290618 27.258887 
L 250.38538 27.258887 
L 250.38538 41.137268 
L 251.480143 41.137268 
L 251.480143 25.963571 
L 252.574906 25.963571 
L 252.574906 18.746813 
L 253.669668 18.746813 
L 253.669668 27.628977 
L 254.764431 27.628977 
L 254.764431 28.369157 
L 255.859193 28.369157 
L 255.859193 22.077624 
L 256.953956 22.077624 
L 256.953956 38.916727 
L 258.048718 38.916727 
L 258.048718 48.724116 
L 259.143481 48.724116 
L 259.143481 45.94844 
L 260.238243 45.94844 
L 260.238243 54.830604 
L 261.333006 54.830604 
L 261.333006 54.090423 
L 262.427768 54.090423 
L 262.427768 70.374391 
L 263.522531 70.374391 
L 263.522531 78.146284 
L 264.617293 78.146284 
L 264.617293 90.359259 
L 265.712056 90.359259 
L 265.712056 90.174214 
L 266.806818 90.174214 
L 266.806818 109.048812 
L 267.901581 109.048812 
L 267.901581 115.89548 
L 268.996343 115.89548 
L 268.996343 123.297284 
L 270.091106 123.297284 
L 270.091106 125.887915 
L 271.185869 125.887915 
L 271.185869 132.919628 
L 272.280631 132.919628 
L 272.280631 139.766296 
L 273.375394 139.766296 
L 273.375394 146.427919 
L 274.470156 146.427919 
L 274.470156 143.837288 
L 275.564919 143.837288 
L 275.564919 162.526841 
L 276.659681 162.526841 
L 276.659681 163.452066 
L 277.754444 163.452066 
L 277.754444 169.003419 
L 278.849206 169.003419 
L 278.849206 165.487562 
L 279.943969 165.487562 
L 279.943969 177.885582 
L 281.038731 177.885582 
L 281.038731 176.960357 
L 282.133494 176.960357 
L 282.133494 180.661259 
L 283.228256 180.661259 
L 283.228256 185.842521 
L 284.323019 185.842521 
L 284.323019 189.173332 
L 285.417781 189.173332 
L 285.417781 193.429369 
L 286.512544 193.429369 
L 286.512544 193.799459 
L 287.607306 193.799459 
L 287.607306 196.945226 
L 288.702069 196.945226 
L 288.702069 199.720902 
L 289.796832 199.720902 
L 289.796832 196.575136 
L 290.891594 196.575136 
L 290.891594 204.161984 
L 291.986357 204.161984 
L 291.986357 207.122705 
L 293.081119 207.122705 
L 293.081119 210.638562 
L 294.175882 210.638562 
L 294.175882 216.004869 
L 295.270644 216.004869 
L 295.270644 211.748832 
L 296.365407 211.748832 
L 296.365407 215.634779 
L 297.460169 215.634779 
L 297.460169 213.784328 
L 298.554932 213.784328 
L 298.554932 218.040365 
L 299.649694 218.040365 
L 299.649694 219.705771 
L 300.744457 219.705771 
L 300.744457 217.85532 
L 301.839219 217.85532 
L 301.839219 224.701988 
L 302.933982 224.701988 
L 302.933982 224.146853 
L 304.028744 224.146853 
L 304.028744 224.887033 
L 305.123507 224.887033 
L 305.123507 223.776762 
L 306.218269 223.776762 
L 306.218269 227.662709 
L 307.313032 227.662709 
L 307.313032 228.032799 
L 308.407795 228.032799 
L 308.407795 228.402889 
L 309.502557 228.402889 
L 309.502557 228.587935 
L 310.59732 228.587935 
L 310.59732 234.324332 
L 311.692082 234.324332 
L 311.692082 231.918746 
L 312.786845 231.918746 
L 312.786845 230.62343 
L 313.881607 230.62343 
L 313.881607 232.103791 
L 314.97637 232.103791 
L 314.97637 234.879467 
L 316.071132 234.879467 
L 316.071132 234.694422 
L 318.260657 234.694422 
L 318.260657 236.729918 
L 319.35542 236.729918 
L 319.35542 236.544873 
L 320.450182 236.544873 
L 320.450182 236.914963 
L 321.544945 236.914963 
L 321.544945 235.989738 
L 322.639707 235.989738 
L 322.639707 237.100008 
L 323.73447 237.100008 
L 323.73447 239.135504 
L 325.923995 239.135504 
L 325.923995 238.950459 
L 327.018758 238.950459 
L 327.018758 240.43082 
L 328.11352 240.43082 
L 328.11352 240.80091 
L 329.208283 240.80091 
L 329.208283 239.135504 
L 330.303045 239.135504 
L 330.303045 238.395324 
L 331.397808 238.395324 
L 331.397808 240.985955 
L 332.49257 240.985955 
L 332.49257 240.615865 
L 333.587333 240.615865 
L 333.587333 241.171 
L 334.682095 241.171 
L 334.682095 239.320549 
L 335.776858 239.320549 
L 335.776858 241.171 
L 336.87162 241.171 
L 336.87162 242.281271 
L 337.966383 242.281271 
L 337.966383 241.726135 
L 340.155908 241.726135 
L 340.155908 241.356045 
L 341.25067 241.356045 
L 341.25067 241.54109 
L 342.345433 241.54109 
L 342.345433 242.096225 
L 343.440196 242.096225 
L 343.440196 243.391541 
L 344.534958 243.391541 
L 344.534958 241.91118 
L 345.629721 241.91118 
L 345.629721 243.761631 
L 346.724483 243.761631 
L 346.724483 244.131721 
L 347.819246 244.131721 
L 347.819246 242.651361 
L 348.914008 242.651361 
L 348.914008 243.206496 
L 350.008771 243.206496 
L 350.008771 243.576586 
L 351.103533 243.576586 
L 351.103533 241.91118 
L 352.198296 241.91118 
L 352.198296 244.501811 
L 353.293058 244.501811 
L 353.293058 244.316766 
L 354.387821 244.316766 
L 354.387821 244.131721 
L 356.577346 244.131721 
L 356.577346 243.391541 
L 357.672108 243.391541 
L 357.672108 243.946676 
L 358.766871 243.946676 
L 358.766871 244.686857 
L 359.861633 244.686857 
L 359.861633 243.946676 
L 360.956396 243.946676 
L 360.956396 243.576586 
L 362.051159 243.576586 
L 362.051159 244.686857 
L 363.145921 244.686857 
L 363.145921 244.871902 
L 364.240684 244.871902 
L 364.240684 244.501811 
L 365.335446 244.501811 
L 365.335446 245.241992 
L 366.430209 245.241992 
L 366.430209 244.501811 
L 367.524971 244.501811 
L 367.524971 243.946676 
L 368.619734 243.946676 
L 368.619734 245.612082 
L 369.714496 245.612082 
L 369.714496 244.871902 
L 370.809259 244.871902 
L 370.809259 244.501811 
L 371.904021 244.501811 
L 371.904021 244.871902 
L 374.093546 244.871902 
L 374.093546 245.427037 
L 375.188309 245.427037 
L 375.188309 245.612082 
L 376.283071 245.612082 
L 376.283071 245.241992 
L 377.377834 245.241992 
L 377.377834 245.427037 
L 378.472596 245.427037 
L 378.472596 245.241992 
L 379.567359 245.241992 
L 379.567359 245.427037 
L 380.662122 245.427037 
L 380.662122 245.056947 
L 381.756884 245.056947 
L 381.756884 245.612082 
L 382.851647 245.612082 
L 382.851647 245.427037 
L 383.946409 245.427037 
L 383.946409 245.241992 
L 385.041172 245.241992 
L 385.041172 245.612082 
L 386.135934 245.612082 
L 386.135934 245.241992 
L 387.230697 245.241992 
L 387.230697 245.427037 
L 388.325459 245.427037 
L 388.325459 245.612082 
L 389.420222 245.612082 
L 389.420222 245.427037 
L 390.514984 245.427037 
L 390.514984 245.797127 
L 391.609747 245.797127 
L 391.609747 245.056947 
L 392.704509 245.056947 
L 392.704509 245.241992 
L 393.799272 245.241992 
L 393.799272 245.797127 
L 394.894034 245.797127 
L 394.894034 245.612082 
L 395.988797 245.612082 
L 395.988797 245.241992 
L 398.178322 245.241992 
L 398.178322 245.241992 
" clip-path="url(#p7b3a898fc9)" style="fill: none; stroke: #1f77b4; stroke-width: 1.5; stroke-linecap: square"/>
   </g>
   <g id="patch_3">
    <path d="M 53.328125 257.158895 
L 53.328125 7.2 
" style="fill: none; stroke: #000000; stroke-width: 0.8; stroke-linejoin: miter; stroke-linecap: square"/>
   </g>
   <g id="patch_4">
    <path d="M 414.59976 257.158895 
L 414.59976 7.2 
" style="fill: none; stroke: #000000; stroke-width: 0.8; stroke-linejoin: miter; stroke-linecap: square"/>
   </g>
   <g id="patch_5">
    <path d="M 53.328125 257.158895 
L 414.59976 257.158895 
" style="fill: none; stroke: #000000; stroke-width: 0.8; stroke-linejoin: miter; stroke-linecap: square"/>
   </g>
   <g id="patch_6">
    <path d="M 53.328125 7.2 
L 414.59976 7.2 
" style="fill: none; stroke: #000000; stroke-width: 0.8; stroke-linejoin: miter; stroke-linecap: square"/>
   </g>
  </g>
  <g id="axes_2">
   <g id="patch_7">
    <path d="M 503.927885 257.158895 
L 865.19952 257.158895 
L 865.19952 7.2 
L 503.927885 7.2 
z
" style="fill: #ffffff"/>
   </g>
   <g id="matplotlib.axis_3">
    <g id="xtick_7">
     <g id="line2d_15">
      <g>
       <use xlink:href="#mb7897cbbfa" x="517.036507" y="257.158895" style="stroke: #000000; stroke-width: 0.8"/>
      </g>
     </g>
     <g id="text_16">
      <!-- 0.0 -->
      <g transform="translate(509.084944 271.757332) scale(0.1 -0.1)">
       <defs>
        <path id="DejaVuSans-2e" d="M 684 794 
L 1344 794 
L 1344 0 
L 684 0 
L 684 794 
z
" transform="scale(0.015625)"/>
       </defs>
       <use xlink:href="#DejaVuSans-30"/>
       <use xlink:href="#DejaVuSans-2e" transform="translate(63.623047 0)"/>
       <use xlink:href="#DejaVuSans-30" transform="translate(95.410156 0)"/>
      </g>
     </g>
    </g>
    <g id="xtick_8">
     <g id="line2d_16">
      <g>
       <use xlink:href="#mb7897cbbfa" x="558.756038" y="257.158895" style="stroke: #000000; stroke-width: 0.8"/>
      </g>
     </g>
     <g id="text_17">
      <!-- 2.5 -->
      <g transform="translate(550.804475 271.757332) scale(0.1 -0.1)">
       <use xlink:href="#DejaVuSans-32"/>
       <use xlink:href="#DejaVuSans-2e" transform="translate(63.623047 0)"/>
       <use xlink:href="#DejaVuSans-35" transform="translate(95.410156 0)"/>
      </g>
     </g>
    </g>
    <g id="xtick_9">
     <g id="line2d_17">
      <g>
       <use xlink:href="#mb7897cbbfa" x="600.475568" y="257.158895" style="stroke: #000000; stroke-width: 0.8"/>
      </g>
     </g>
     <g id="text_18">
      <!-- 5.0 -->
      <g transform="translate(592.524006 271.757332) scale(0.1 -0.1)">
       <use xlink:href="#DejaVuSans-35"/>
       <use xlink:href="#DejaVuSans-2e" transform="translate(63.623047 0)"/>
       <use xlink:href="#DejaVuSans-30" transform="translate(95.410156 0)"/>
      </g>
     </g>
    </g>
    <g id="xtick_10">
     <g id="line2d_18">
      <g>
       <use xlink:href="#mb7897cbbfa" x="642.195099" y="257.158895" style="stroke: #000000; stroke-width: 0.8"/>
      </g>
     </g>
     <g id="text_19">
      <!-- 7.5 -->
      <g transform="translate(634.243537 271.757332) scale(0.1 -0.1)">
       <defs>
        <path id="DejaVuSans-37" d="M 525 4666 
L 3525 4666 
L 3525 4397 
L 1831 0 
L 1172 0 
L 2766 4134 
L 525 4134 
L 525 4666 
z
" transform="scale(0.015625)"/>
       </defs>
       <use xlink:href="#DejaVuSans-37"/>
       <use xlink:href="#DejaVuSans-2e" transform="translate(63.623047 0)"/>
       <use xlink:href="#DejaVuSans-35" transform="translate(95.410156 0)"/>
      </g>
     </g>
    </g>
    <g id="xtick_11">
     <g id="line2d_19">
      <g>
       <use xlink:href="#mb7897cbbfa" x="683.91463" y="257.158895" style="stroke: #000000; stroke-width: 0.8"/>
      </g>
     </g>
     <g id="text_20">
      <!-- 10.0 -->
      <g transform="translate(672.781817 271.757332) scale(0.1 -0.1)">
       <use xlink:href="#DejaVuSans-31"/>
       <use xlink:href="#DejaVuSans-30" transform="translate(63.623047 0)"/>
       <use xlink:href="#DejaVuSans-2e" transform="translate(127.246094 0)"/>
       <use xlink:href="#DejaVuSans-30" transform="translate(159.033203 0)"/>
      </g>
     </g>
    </g>
    <g id="xtick_12">
     <g id="line2d_20">
      <g>
       <use xlink:href="#mb7897cbbfa" x="725.634161" y="257.158895" style="stroke: #000000; stroke-width: 0.8"/>
      </g>
     </g>
     <g id="text_21">
      <!-- 12.5 -->
      <g transform="translate(714.501348 271.757332) scale(0.1 -0.1)">
       <use xlink:href="#DejaVuSans-31"/>
       <use xlink:href="#DejaVuSans-32" transform="translate(63.623047 0)"/>
       <use xlink:href="#DejaVuSans-2e" transform="translate(127.246094 0)"/>
       <use xlink:href="#DejaVuSans-35" transform="translate(159.033203 0)"/>
      </g>
     </g>
    </g>
    <g id="xtick_13">
     <g id="line2d_21">
      <g>
       <use xlink:href="#mb7897cbbfa" x="767.353691" y="257.158895" style="stroke: #000000; stroke-width: 0.8"/>
      </g>
     </g>
     <g id="text_22">
      <!-- 15.0 -->
      <g transform="translate(756.220879 271.757332) scale(0.1 -0.1)">
       <use xlink:href="#DejaVuSans-31"/>
       <use xlink:href="#DejaVuSans-35" transform="translate(63.623047 0)"/>
       <use xlink:href="#DejaVuSans-2e" transform="translate(127.246094 0)"/>
       <use xlink:href="#DejaVuSans-30" transform="translate(159.033203 0)"/>
      </g>
     </g>
    </g>
    <g id="xtick_14">
     <g id="line2d_22">
      <g>
       <use xlink:href="#mb7897cbbfa" x="809.073222" y="257.158895" style="stroke: #000000; stroke-width: 0.8"/>
      </g>
     </g>
     <g id="text_23">
      <!-- 17.5 -->
      <g transform="translate(797.94041 271.757332) scale(0.1 -0.1)">
       <use xlink:href="#DejaVuSans-31"/>
       <use xlink:href="#DejaVuSans-37" transform="translate(63.623047 0)"/>
       <use xlink:href="#DejaVuSans-2e" transform="translate(127.246094 0)"/>
       <use xlink:href="#DejaVuSans-35" transform="translate(159.033203 0)"/>
      </g>
     </g>
    </g>
    <g id="xtick_15">
     <g id="line2d_23">
      <g>
       <use xlink:href="#mb7897cbbfa" x="850.792753" y="257.158895" style="stroke: #000000; stroke-width: 0.8"/>
      </g>
     </g>
     <g id="text_24">
      <!-- 20.0 -->
      <g transform="translate(839.65994 271.757332) scale(0.1 -0.1)">
       <use xlink:href="#DejaVuSans-32"/>
       <use xlink:href="#DejaVuSans-30" transform="translate(63.623047 0)"/>
       <use xlink:href="#DejaVuSans-2e" transform="translate(127.246094 0)"/>
       <use xlink:href="#DejaVuSans-30" transform="translate(159.033203 0)"/>
      </g>
     </g>
    </g>
    <g id="text_25">
     <!-- wavelength [Å] -->
     <g transform="translate(646.526202 287.119832) scale(0.1 -0.1)">
      <defs>
       <path id="DejaVuSans-77" d="M 269 3500 
L 844 3500 
L 1563 769 
L 2278 3500 
L 2956 3500 
L 3675 769 
L 4391 3500 
L 4966 3500 
L 4050 0 
L 3372 0 
L 2619 2869 
L 1863 0 
L 1184 0 
L 269 3500 
z
" transform="scale(0.015625)"/>
       <path id="DejaVuSans-61" d="M 2194 1759 
Q 1497 1759 1228 1600 
Q 959 1441 959 1056 
Q 959 750 1161 570 
Q 1363 391 1709 391 
Q 2188 391 2477 730 
Q 2766 1069 2766 1631 
L 2766 1759 
L 2194 1759 
z
M 3341 1997 
L 3341 0 
L 2766 0 
L 2766 531 
Q 2569 213 2275 61 
Q 1981 -91 1556 -91 
Q 1019 -91 701 211 
Q 384 513 384 1019 
Q 384 1609 779 1909 
Q 1175 2209 1959 2209 
L 2766 2209 
L 2766 2266 
Q 2766 2663 2505 2880 
Q 2244 3097 1772 3097 
Q 1472 3097 1187 3025 
Q 903 2953 641 2809 
L 641 3341 
Q 956 3463 1253 3523 
Q 1550 3584 1831 3584 
Q 2591 3584 2966 3190 
Q 3341 2797 3341 1997 
z
" transform="scale(0.015625)"/>
       <path id="DejaVuSans-76" d="M 191 3500 
L 800 3500 
L 1894 563 
L 2988 3500 
L 3597 3500 
L 2284 0 
L 1503 0 
L 191 3500 
z
" transform="scale(0.015625)"/>
       <path id="DejaVuSans-6c" d="M 603 4863 
L 1178 4863 
L 1178 0 
L 603 0 
L 603 4863 
z
" transform="scale(0.015625)"/>
       <path id="DejaVuSans-67" d="M 2906 1791 
Q 2906 2416 2648 2759 
Q 2391 3103 1925 3103 
Q 1463 3103 1205 2759 
Q 947 2416 947 1791 
Q 947 1169 1205 825 
Q 1463 481 1925 481 
Q 2391 481 2648 825 
Q 2906 1169 2906 1791 
z
M 3481 434 
Q 3481 -459 3084 -895 
Q 2688 -1331 1869 -1331 
Q 1566 -1331 1297 -1286 
Q 1028 -1241 775 -1147 
L 775 -588 
Q 1028 -725 1275 -790 
Q 1522 -856 1778 -856 
Q 2344 -856 2625 -561 
Q 2906 -266 2906 331 
L 2906 616 
Q 2728 306 2450 153 
Q 2172 0 1784 0 
Q 1141 0 747 490 
Q 353 981 353 1791 
Q 353 2603 747 3093 
Q 1141 3584 1784 3584 
Q 2172 3584 2450 3431 
Q 2728 3278 2906 2969 
L 2906 3500 
L 3481 3500 
L 3481 434 
z
" transform="scale(0.015625)"/>
       <path id="DejaVuSans-c5" d="M 2663 5081 
Q 2663 5278 2523 5417 
Q 2384 5556 2188 5556 
Q 1988 5556 1852 5420 
Q 1716 5284 1716 5081 
Q 1716 4884 1853 4746 
Q 1991 4609 2188 4609 
Q 2384 4609 2523 4746 
Q 2663 4884 2663 5081 
z
M 2188 4044 
L 1338 1722 
L 3041 1722 
L 2188 4044 
z
M 1716 4366 
Q 1525 4494 1428 4673 
Q 1331 4853 1331 5081 
Q 1331 5441 1579 5691 
Q 1828 5941 2188 5941 
Q 2544 5941 2795 5689 
Q 3047 5438 3047 5081 
Q 3047 4863 2948 4678 
Q 2850 4494 2663 4366 
L 4325 0 
L 3669 0 
L 3244 1197 
L 1141 1197 
L 716 0 
L 50 0 
L 1716 4366 
z
" transform="scale(0.015625)"/>
      </defs>
      <use xlink:href="#DejaVuSans-77"/>
      <use xlink:href="#DejaVuSans-61" transform="translate(81.787109 0)"/>
      <use xlink:href="#DejaVuSans-76" transform="translate(143.066406 0)"/>
      <use xlink:href="#DejaVuSans-65" transform="translate(202.246094 0)"/>
      <use xlink:href="#DejaVuSans-6c" transform="translate(263.769531 0)"/>
      <use xlink:href="#DejaVuSans-65" transform="translate(291.552734 0)"/>
      <use xlink:href="#DejaVuSans-6e" transform="translate(353.076172 0)"/>
      <use xlink:href="#DejaVuSans-67" transform="translate(416.455078 0)"/>
      <use xlink:href="#DejaVuSans-74" transform="translate(479.931641 0)"/>
      <use xlink:href="#DejaVuSans-68" transform="translate(519.140625 0)"/>
      <use xlink:href="#DejaVuSans-20" transform="translate(582.519531 0)"/>
      <use xlink:href="#DejaVuSans-5b" transform="translate(614.306641 0)"/>
      <use xlink:href="#DejaVuSans-c5" transform="translate(653.320312 0)"/>
      <use xlink:href="#DejaVuSans-5d" transform="translate(721.728516 0)"/>
     </g>
    </g>
   </g>
   <g id="matplotlib.axis_4">
    <g id="ytick_8">
     <g id="line2d_24">
      <g>
       <use xlink:href="#mcdb6e73578" x="503.927885" y="245.797127" style="stroke: #000000; stroke-width: 0.8"/>
      </g>
     </g>
     <g id="text_26">
      <!-- 0 -->
      <g transform="translate(490.565385 249.596346) scale(0.1 -0.1)">
       <use xlink:href="#DejaVuSans-30"/>
      </g>
     </g>
    </g>
    <g id="ytick_9">
     <g id="line2d_25">
      <g>
       <use xlink:href="#mcdb6e73578" x="503.927885" y="193.000808" style="stroke: #000000; stroke-width: 0.8"/>
      </g>
     </g>
     <g id="text_27">
      <!-- 1000 -->
      <g transform="translate(471.477885 196.800026) scale(0.1 -0.1)">
       <use xlink:href="#DejaVuSans-31"/>
       <use xlink:href="#DejaVuSans-30" transform="translate(63.623047 0)"/>
       <use xlink:href="#DejaVuSans-30" transform="translate(127.246094 0)"/>
       <use xlink:href="#DejaVuSans-30" transform="translate(190.869141 0)"/>
      </g>
     </g>
    </g>
    <g id="ytick_10">
     <g id="line2d_26">
      <g>
       <use xlink:href="#mcdb6e73578" x="503.927885" y="140.204488" style="stroke: #000000; stroke-width: 0.8"/>
      </g>
     </g>
     <g id="text_28">
      <!-- 2000 -->
      <g transform="translate(471.477885 144.003707) scale(0.1 -0.1)">
       <use xlink:href="#DejaVuSans-32"/>
       <use xlink:href="#DejaVuSans-30" transform="translate(63.623047 0)"/>
       <use xlink:href="#DejaVuSans-30" transform="translate(127.246094 0)"/>
       <use xlink:href="#DejaVuSans-30" transform="translate(190.869141 0)"/>
      </g>
     </g>
    </g>
    <g id="ytick_11">
     <g id="line2d_27">
      <g>
       <use xlink:href="#mcdb6e73578" x="503.927885" y="87.408169" style="stroke: #000000; stroke-width: 0.8"/>
      </g>
     </g>
     <g id="text_29">
      <!-- 3000 -->
      <g transform="translate(471.477885 91.207387) scale(0.1 -0.1)">
       <use xlink:href="#DejaVuSans-33"/>
       <use xlink:href="#DejaVuSans-30" transform="translate(63.623047 0)"/>
       <use xlink:href="#DejaVuSans-30" transform="translate(127.246094 0)"/>
       <use xlink:href="#DejaVuSans-30" transform="translate(190.869141 0)"/>
      </g>
     </g>
    </g>
    <g id="ytick_12">
     <g id="line2d_28">
      <g>
       <use xlink:href="#mcdb6e73578" x="503.927885" y="34.611849" style="stroke: #000000; stroke-width: 0.8"/>
      </g>
     </g>
     <g id="text_30">
      <!-- 4000 -->
      <g transform="translate(471.477885 38.411068) scale(0.1 -0.1)">
       <use xlink:href="#DejaVuSans-34"/>
       <use xlink:href="#DejaVuSans-30" transform="translate(63.623047 0)"/>
       <use xlink:href="#DejaVuSans-30" transform="translate(127.246094 0)"/>
       <use xlink:href="#DejaVuSans-30" transform="translate(190.869141 0)"/>
      </g>
     </g>
    </g>
    <g id="text_31">
     <!-- [counts] -->
     <g transform="translate(465.398197 152.791947) rotate(-90) scale(0.1 -0.1)">
      <use xlink:href="#DejaVuSans-5b"/>
      <use xlink:href="#DejaVuSans-63" transform="translate(39.013672 0)"/>
      <use xlink:href="#DejaVuSans-6f" transform="translate(93.994141 0)"/>
      <use xlink:href="#DejaVuSans-75" transform="translate(155.175781 0)"/>
      <use xlink:href="#DejaVuSans-6e" transform="translate(218.554688 0)"/>
      <use xlink:href="#DejaVuSans-74" transform="translate(281.933594 0)"/>
      <use xlink:href="#DejaVuSans-73" transform="translate(321.142578 0)"/>
      <use xlink:href="#DejaVuSans-5d" transform="translate(373.242188 0)"/>
     </g>
    </g>
   </g>
   <g id="line2d_29">
    <path d="M 520.349323 154.723476 
L 521.444085 154.723476 
L 521.444085 146.540046 
L 522.538848 146.540046 
L 522.538848 136.87832 
L 523.633611 136.87832 
L 523.633611 135.87519 
L 524.728373 135.87519 
L 524.728373 145.589713 
L 525.823136 145.589713 
L 525.823136 153.773142 
L 526.917898 153.773142 
L 526.917898 150.394178 
L 528.012661 150.394178 
L 528.012661 130.173187 
L 529.107423 130.173187 
L 529.107423 108.579493 
L 530.202186 108.579493 
L 530.202186 83.923611 
L 531.296948 83.923611 
L 531.296948 62.541102 
L 532.391711 62.541102 
L 532.391711 43.164853 
L 533.486473 43.164853 
L 533.486473 27.43155 
L 534.581236 27.43155 
L 534.581236 20.356843 
L 535.675998 20.356843 
L 535.675998 18.561768 
L 536.770761 18.561768 
L 536.770761 25.583678 
L 537.865523 25.583678 
L 537.865523 30.810514 
L 538.960286 30.810514 
L 538.960286 40.841815 
L 540.055048 40.841815 
L 540.055048 55.571988 
L 541.149811 55.571988 
L 541.149811 62.329917 
L 542.244574 62.329917 
L 542.244574 66.8704 
L 543.339336 66.8704 
L 543.339336 80.597443 
L 544.434099 80.597443 
L 544.434099 79.911091 
L 545.528861 79.911091 
L 545.528861 88.094521 
L 546.623624 88.094521 
L 546.623624 96.911506 
L 547.718386 96.911506 
L 547.718386 91.420689 
L 548.813149 91.420689 
L 548.813149 89.942392 
L 549.907911 89.942392 
L 549.907911 95.697191 
L 551.002674 95.697191 
L 551.002674 90.311966 
L 552.097436 90.311966 
L 552.097436 81.864555 
L 553.192199 81.864555 
L 553.192199 77.324072 
L 554.286961 77.324072 
L 554.286961 68.823864 
L 555.381724 68.823864 
L 555.381724 59.584508 
L 556.476486 59.584508 
L 556.476486 52.140227 
L 557.571249 52.140227 
L 557.571249 40.472241 
L 558.666012 40.472241 
L 558.666012 32.869571 
L 559.760774 32.869571 
L 559.760774 33.291941 
L 560.855537 33.291941 
L 560.855537 46.332632 
L 561.950299 46.332632 
L 561.950299 50.820319 
L 563.045062 50.820319 
L 563.045062 62.963473 
L 564.139824 62.963473 
L 564.139824 65.972863 
L 565.234587 65.972863 
L 565.234587 83.07887 
L 566.329349 83.07887 
L 566.329349 84.926742 
L 567.424112 84.926742 
L 567.424112 98.970563 
L 568.518874 98.970563 
L 568.518874 102.930287 
L 569.613637 102.930287 
L 569.613637 111.008123 
L 570.708399 111.008123 
L 570.708399 113.331161 
L 571.803162 113.331161 
L 571.803162 128.906076 
L 572.897924 128.906076 
L 572.897924 129.909206 
L 573.992687 129.909206 
L 573.992687 139.306951 
L 575.087449 139.306951 
L 575.087449 140.574062 
L 576.182212 140.574062 
L 576.182212 146.698435 
L 577.276975 146.698435 
L 577.276975 149.127066 
L 578.371737 149.127066 
L 578.371737 156.888125 
L 579.4665 156.888125 
L 579.4665 160.214293 
L 580.561262 160.214293 
L 580.561262 165.177147 
L 582.750787 165.124351 
L 582.750787 171.037539 
L 583.84555 171.037539 
L 583.84555 175.789207 
L 584.940312 175.789207 
L 584.940312 177.637079 
L 586.035075 177.637079 
L 586.035075 179.696135 
L 587.129837 179.696135 
L 587.129837 184.606193 
L 588.2246 184.606193 
L 588.2246 188.037954 
L 589.319362 188.037954 
L 589.319362 190.730566 
L 590.414125 190.730566 
L 590.414125 194.848679 
L 591.508887 194.848679 
L 591.508887 194.215123 
L 592.60365 194.215123 
L 592.60365 199.28357 
L 593.698412 199.28357 
L 593.698412 200.181107 
L 594.793175 200.181107 
L 594.793175 202.451349 
L 595.887938 202.451349 
L 595.887938 204.193627 
L 596.9827 204.193627 
L 596.9827 206.411073 
L 598.077463 206.411073 
L 598.077463 208.417333 
L 599.172225 208.417333 
L 599.172225 207.836573 
L 600.266988 207.836573 
L 600.266988 210.423593 
L 601.36175 210.423593 
L 601.36175 212.693835 
L 602.456513 212.693835 
L 602.456513 216.020003 
L 603.551275 216.020003 
L 603.551275 215.756021 
L 604.646038 215.756021 
L 604.646038 215.597632 
L 605.7408 215.597632 
L 605.7408 217.551096 
L 606.835563 217.551096 
L 606.835563 218.50143 
L 607.930325 218.50143 
L 607.930325 219.768542 
L 609.025088 219.768542 
L 609.025088 221.563616 
L 610.11985 221.563616 
L 610.11985 222.408358 
L 611.214613 222.408358 
L 611.214613 222.725135 
L 612.309375 222.725135 
L 612.309375 223.147506 
L 613.404138 223.147506 
L 613.404138 226.737656 
L 614.498901 226.737656 
L 614.498901 224.836988 
L 615.593663 224.836988 
L 615.593663 226.051304 
L 617.783188 225.945711 
L 617.783188 228.374342 
L 618.877951 228.374342 
L 618.877951 229.641453 
L 619.972713 229.641453 
L 619.972713 230.486194 
L 621.067476 230.486194 
L 621.067476 229.69425 
L 622.162238 229.69425 
L 622.162238 228.796712 
L 623.257001 228.796712 
L 623.257001 231.70051 
L 624.351763 231.70051 
L 624.351763 232.070084 
L 625.446526 232.070084 
L 625.446526 232.439658 
L 626.541288 232.439658 
L 626.541288 231.70051 
L 627.636051 231.70051 
L 627.636051 233.653974 
L 628.730813 233.653974 
L 628.730813 234.498715 
L 629.825576 234.498715 
L 629.825576 233.653974 
L 630.920339 233.653974 
L 630.920339 233.970751 
L 632.015101 233.970751 
L 632.015101 234.551511 
L 633.109864 234.551511 
L 633.109864 235.607437 
L 634.204626 235.607437 
L 634.204626 235.185067 
L 635.299389 235.185067 
L 635.299389 236.399382 
L 636.394151 236.399382 
L 636.394151 236.610567 
L 637.488914 236.610567 
L 637.488914 237.244123 
L 640.773201 237.349716 
L 640.773201 237.824883 
L 641.867964 237.824883 
L 641.867964 237.983272 
L 642.962726 237.983272 
L 642.962726 239.672754 
L 644.057489 239.672754 
L 644.057489 238.458439 
L 645.152251 238.458439 
L 645.152251 238.669624 
L 646.247014 238.669624 
L 646.247014 239.144791 
L 647.341776 239.144791 
L 647.341776 239.989532 
L 648.436539 239.989532 
L 648.436539 239.408772 
L 649.531302 239.408772 
L 649.531302 239.144791 
L 650.626064 239.144791 
L 650.626064 239.831143 
L 651.720827 239.831143 
L 651.720827 240.253513 
L 652.815589 240.253513 
L 652.815589 239.514365 
L 653.910352 239.514365 
L 653.910352 240.887069 
L 655.005114 240.887069 
L 655.005114 239.778347 
L 656.099877 239.778347 
L 656.099877 240.200717 
L 657.194639 240.200717 
L 657.194639 241.573421 
L 658.289402 241.573421 
L 658.289402 240.623088 
L 659.384164 240.623088 
L 659.384164 240.781477 
L 660.478927 240.781477 
L 660.478927 241.520625 
L 662.668452 241.626218 
L 662.668452 241.73181 
L 663.763214 241.73181 
L 663.763214 241.151051 
L 664.857977 241.151051 
L 664.857977 241.942996 
L 665.952739 241.942996 
L 665.952739 241.626218 
L 667.047502 241.626218 
L 667.047502 241.784607 
L 668.142265 241.784607 
L 668.142265 242.787737 
L 669.237027 242.787737 
L 669.237027 242.418163 
L 672.521315 242.418163 
L 672.521315 242.206977 
L 673.616077 242.206977 
L 673.616077 242.576552 
L 675.805602 242.576552 
L 675.805602 242.893329 
L 676.900365 242.893329 
L 676.900365 242.734941 
L 679.08989 242.840533 
L 679.08989 242.523755 
L 680.184652 242.523755 
L 680.184652 242.734941 
L 682.374177 242.840533 
L 682.374177 243.104515 
L 683.46894 243.104515 
L 683.46894 242.787737 
L 684.563702 242.787737 
L 684.563702 243.210107 
L 685.658465 243.210107 
L 685.658465 243.738071 
L 686.753228 243.738071 
L 686.753228 243.157311 
L 687.84799 243.157311 
L 687.84799 243.843663 
L 690.037515 243.738071 
L 690.037515 243.579682 
L 691.132278 243.579682 
L 691.132278 244.107645 
L 692.22704 244.107645 
L 692.22704 242.998922 
L 693.321803 242.998922 
L 693.321803 243.790867 
L 695.511328 243.790867 
L 695.511328 244.107645 
L 696.60609 244.107645 
L 696.60609 243.632478 
L 697.700853 243.632478 
L 697.700853 244.107645 
L 698.795615 244.107645 
L 698.795615 243.949256 
L 699.890378 243.949256 
L 699.890378 244.213237 
L 700.98514 244.213237 
L 700.98514 244.424423 
L 702.079903 244.424423 
L 702.079903 243.89646 
L 703.174666 243.89646 
L 703.174666 244.530015 
L 704.269428 244.530015 
L 704.269428 244.107645 
L 705.364191 244.107645 
L 705.364191 243.843663 
L 706.458953 243.843663 
L 706.458953 244.160441 
L 707.553716 244.160441 
L 707.553716 243.949256 
L 708.648478 243.949256 
L 708.648478 244.424423 
L 710.838003 244.371626 
L 710.838003 244.582812 
L 711.932766 244.582812 
L 711.932766 244.424423 
L 715.217053 244.371626 
L 715.217053 243.949256 
L 716.311816 243.949256 
L 716.311816 244.635608 
L 717.406578 244.635608 
L 717.406578 245.005182 
L 718.501341 245.005182 
L 718.501341 244.477219 
L 720.690866 244.582812 
L 720.690866 245.057979 
L 721.785629 245.057979 
L 721.785629 244.266034 
L 722.880391 244.266034 
L 722.880391 244.688404 
L 725.069916 244.741201 
L 725.069916 245.163571 
L 727.259441 245.057979 
L 727.259441 244.89959 
L 729.448966 244.846793 
L 729.448966 245.057979 
L 730.543729 245.057979 
L 730.543729 244.793997 
L 731.638491 244.793997 
L 731.638491 245.427553 
L 732.733254 245.427553 
L 732.733254 245.005182 
L 738.207066 244.89959 
L 738.207066 245.269164 
L 739.301829 245.269164 
L 739.301829 245.005182 
L 740.396592 245.005182 
L 740.396592 245.163571 
L 741.491354 245.163571 
L 741.491354 245.427553 
L 742.586117 245.427553 
L 742.586117 245.216368 
L 745.870404 245.32196 
L 745.870404 245.057979 
L 746.965167 245.057979 
L 746.965167 245.216368 
L 748.059929 245.216368 
L 748.059929 245.057979 
L 749.154692 245.057979 
L 749.154692 244.846793 
L 750.249454 244.846793 
L 750.249454 245.374756 
L 751.344217 245.374756 
L 751.344217 245.216368 
L 754.628504 245.163571 
L 754.628504 245.374756 
L 762.291842 245.32196 
L 762.291842 245.216368 
L 763.386605 245.216368 
L 763.386605 245.374756 
L 764.481367 245.374756 
L 764.481367 245.585942 
L 765.57613 245.585942 
L 765.57613 245.163571 
L 767.765655 245.216368 
L 767.765655 245.427553 
L 775.428993 245.32196 
L 775.428993 245.110775 
L 776.523755 245.110775 
L 776.523755 245.32196 
L 781.997568 245.32196 
L 781.997568 245.480349 
L 784.187093 245.533145 
L 784.187093 245.691534 
L 785.281855 245.691534 
L 785.281855 245.427553 
L 786.376618 245.427553 
L 786.376618 245.638738 
L 788.566143 245.533145 
L 788.566143 245.216368 
L 789.660905 245.216368 
L 789.660905 245.427553 
L 790.755668 245.427553 
L 790.755668 245.585942 
L 791.85043 245.585942 
L 791.85043 245.427553 
L 796.229481 245.374756 
L 796.229481 245.585942 
L 798.419006 245.533145 
L 798.419006 245.269164 
L 799.513768 245.269164 
L 799.513768 245.691534 
L 804.987581 245.797127 
L 804.987581 245.533145 
L 808.271868 245.638738 
L 808.271868 245.691534 
L 810.461393 245.585942 
L 810.461393 245.533145 
L 817.029969 245.638738 
L 817.029969 245.691534 
L 821.409019 245.585942 
L 821.409019 245.533145 
L 822.503781 245.533145 
L 822.503781 245.744331 
L 826.882831 245.744331 
L 826.882831 245.533145 
L 827.977594 245.533145 
L 827.977594 245.744331 
L 840.019982 245.744331 
L 840.019982 245.533145 
L 841.114744 245.533145 
L 841.114744 245.797127 
L 843.304269 245.691534 
L 843.304269 245.638738 
L 848.778082 245.638738 
L 848.778082 245.638738 
" clip-path="url(#p7096b3f12e)" style="fill: none; stroke: #1f77b4; stroke-width: 1.5; stroke-linecap: square"/>
   </g>
   <g id="patch_8">
    <path d="M 503.927885 257.158895 
L 503.927885 7.2 
" style="fill: none; stroke: #000000; stroke-width: 0.8; stroke-linejoin: miter; stroke-linecap: square"/>
   </g>
   <g id="patch_9">
    <path d="M 865.19952 257.158895 
L 865.19952 7.2 
" style="fill: none; stroke: #000000; stroke-width: 0.8; stroke-linejoin: miter; stroke-linecap: square"/>
   </g>
   <g id="patch_10">
    <path d="M 503.927885 257.158895 
L 865.19952 257.158895 
" style="fill: none; stroke: #000000; stroke-width: 0.8; stroke-linejoin: miter; stroke-linecap: square"/>
   </g>
   <g id="patch_11">
    <path d="M 503.927885 7.2 
L 865.19952 7.2 
" style="fill: none; stroke: #000000; stroke-width: 0.8; stroke-linejoin: miter; stroke-linecap: square"/>
   </g>
  </g>
 </g>
 <defs>
  <clipPath id="p7b3a898fc9">
   <rect x="53.328125" y="7.2" width="361.271635" height="249.958895"/>
  </clipPath>
  <clipPath id="p7096b3f12e">
   <rect x="503.927885" y="7.2" width="361.271635" height="249.958895"/>
  </clipPath>
 </defs>
</svg>
