<?xml version="1.0" encoding="utf-8" standalone="no"?>
<!DOCTYPE svg PUBLIC "-//W3C//DTD SVG 1.1//EN"
  "http://www.w3.org/Graphics/SVG/1.1/DTD/svg11.dtd">
<svg xmlns:xlink="http://www.w3.org/1999/xlink" width="388.965625pt" height="268.200625pt" viewBox="0 0 388.965625 268.200625" xmlns="http://www.w3.org/2000/svg" version="1.1">
 <metadata>
  <rdf:RDF xmlns:dc="http://purl.org/dc/elements/1.1/" xmlns:cc="http://creativecommons.org/ns#" xmlns:rdf="http://www.w3.org/1999/02/22-rdf-syntax-ns#">
   <cc:Work>
    <dc:type rdf:resource="http://purl.org/dc/dcmitype/StillImage"/>
    <dc:date>2025-03-02T06:37:04.296186</dc:date>
    <dc:format>image/svg+xml</dc:format>
    <dc:creator>
     <cc:Agent>
      <dc:title>Matplotlib v3.10.0, https://matplotlib.org/</dc:title>
     </cc:Agent>
    </dc:creator>
   </cc:Work>
  </rdf:RDF>
 </metadata>
 <defs>
  <style type="text/css">*{stroke-linejoin: round; stroke-linecap: butt}</style>
 </defs>
 <g id="figure_1">
  <g id="patch_1">
   <path d="M 0 268.200625 
L 388.965625 268.200625 
L 388.965625 0 
L 0 0 
z
" style="fill: #ffffff"/>
  </g>
  <g id="axes_1">
   <g id="patch_2">
    <path d="M 46.965625 228.96 
L 381.765625 228.96 
L 381.765625 7.2 
L 46.965625 7.2 
z
" style="fill: #ffffff"/>
   </g>
   <g id="matplotlib.axis_1">
    <g id="xtick_1">
     <g id="line2d_1">
      <defs>
       <path id="m3860b072d7" d="M 0 0 
L 0 3.5 
" style="stroke: #000000; stroke-width: 0.8"/>
      </defs>
      <g>
       <use xlink:href="#m3860b072d7" x="62.183807" y="228.96" style="stroke: #000000; stroke-width: 0.8"/>
      </g>
     </g>
     <g id="text_1">
      <!-- 6.0 -->
      <g transform="translate(54.232244 243.558437) scale(0.1 -0.1)">
       <defs>
        <path id="DejaVuSans-36" d="M 2113 2584 
Q 1688 2584 1439 2293 
Q 1191 2003 1191 1497 
Q 1191 994 1439 701 
Q 1688 409 2113 409 
Q 2538 409 2786 701 
Q 3034 994 3034 1497 
Q 3034 2003 2786 2293 
Q 2538 2584 2113 2584 
z
M 3366 4563 
L 3366 3988 
Q 3128 4100 2886 4159 
Q 2644 4219 2406 4219 
Q 1781 4219 1451 3797 
Q 1122 3375 1075 2522 
Q 1259 2794 1537 2939 
Q 1816 3084 2150 3084 
Q 2853 3084 3261 2657 
Q 3669 2231 3669 1497 
Q 3669 778 3244 343 
Q 2819 -91 2113 -91 
Q 1303 -91 875 529 
Q 447 1150 447 2328 
Q 447 3434 972 4092 
Q 1497 4750 2381 4750 
Q 2619 4750 2861 4703 
Q 3103 4656 3366 4563 
z
" transform="scale(0.015625)"/>
        <path id="DejaVuSans-2e" d="M 684 794 
L 1344 794 
L 1344 0 
L 684 0 
L 684 794 
z
" transform="scale(0.015625)"/>
        <path id="DejaVuSans-30" d="M 2034 4250 
Q 1547 4250 1301 3770 
Q 1056 3291 1056 2328 
Q 1056 1369 1301 889 
Q 1547 409 2034 409 
Q 2525 409 2770 889 
Q 3016 1369 3016 2328 
Q 3016 3291 2770 3770 
Q 2525 4250 2034 4250 
z
M 2034 4750 
Q 2819 4750 3233 4129 
Q 3647 3509 3647 2328 
Q 3647 1150 3233 529 
Q 2819 -91 2034 -91 
Q 1250 -91 836 529 
Q 422 1150 422 2328 
Q 422 3509 836 4129 
Q 1250 4750 2034 4750 
z
" transform="scale(0.015625)"/>
       </defs>
       <use xlink:href="#DejaVuSans-36"/>
       <use xlink:href="#DejaVuSans-2e" transform="translate(63.623047 0)"/>
       <use xlink:href="#DejaVuSans-30" transform="translate(95.410156 0)"/>
      </g>
     </g>
    </g>
    <g id="xtick_2">
     <g id="line2d_2">
      <g>
       <use xlink:href="#m3860b072d7" x="112.91108" y="228.96" style="stroke: #000000; stroke-width: 0.8"/>
      </g>
     </g>
     <g id="text_2">
      <!-- 6.5 -->
      <g transform="translate(104.959517 243.558437) scale(0.1 -0.1)">
       <defs>
        <path id="DejaVuSans-35" d="M 691 4666 
L 3169 4666 
L 3169 4134 
L 1269 4134 
L 1269 2991 
Q 1406 3038 1543 3061 
Q 1681 3084 1819 3084 
Q 2600 3084 3056 2656 
Q 3513 2228 3513 1497 
Q 3513 744 3044 326 
Q 2575 -91 1722 -91 
Q 1428 -91 1123 -41 
Q 819 9 494 109 
L 494 744 
Q 775 591 1075 516 
Q 1375 441 1709 441 
Q 2250 441 2565 725 
Q 2881 1009 2881 1497 
Q 2881 1984 2565 2268 
Q 2250 2553 1709 2553 
Q 1456 2553 1204 2497 
Q 953 2441 691 2322 
L 691 4666 
z
" transform="scale(0.015625)"/>
       </defs>
       <use xlink:href="#DejaVuSans-36"/>
       <use xlink:href="#DejaVuSans-2e" transform="translate(63.623047 0)"/>
       <use xlink:href="#DejaVuSans-35" transform="translate(95.410156 0)"/>
      </g>
     </g>
    </g>
    <g id="xtick_3">
     <g id="line2d_3">
      <g>
       <use xlink:href="#m3860b072d7" x="163.638352" y="228.96" style="stroke: #000000; stroke-width: 0.8"/>
      </g>
     </g>
     <g id="text_3">
      <!-- 7.0 -->
      <g transform="translate(155.68679 243.558437) scale(0.1 -0.1)">
       <defs>
        <path id="DejaVuSans-37" d="M 525 4666 
L 3525 4666 
L 3525 4397 
L 1831 0 
L 1172 0 
L 2766 4134 
L 525 4134 
L 525 4666 
z
" transform="scale(0.015625)"/>
       </defs>
       <use xlink:href="#DejaVuSans-37"/>
       <use xlink:href="#DejaVuSans-2e" transform="translate(63.623047 0)"/>
       <use xlink:href="#DejaVuSans-30" transform="translate(95.410156 0)"/>
      </g>
     </g>
    </g>
    <g id="xtick_4">
     <g id="line2d_4">
      <g>
       <use xlink:href="#m3860b072d7" x="214.365625" y="228.96" style="stroke: #000000; stroke-width: 0.8"/>
      </g>
     </g>
     <g id="text_4">
      <!-- 7.5 -->
      <g transform="translate(206.414063 243.558437) scale(0.1 -0.1)">
       <use xlink:href="#DejaVuSans-37"/>
       <use xlink:href="#DejaVuSans-2e" transform="translate(63.623047 0)"/>
       <use xlink:href="#DejaVuSans-35" transform="translate(95.410156 0)"/>
      </g>
     </g>
    </g>
    <g id="xtick_5">
     <g id="line2d_5">
      <g>
       <use xlink:href="#m3860b072d7" x="265.092898" y="228.96" style="stroke: #000000; stroke-width: 0.8"/>
      </g>
     </g>
     <g id="text_5">
      <!-- 8.0 -->
      <g transform="translate(257.141335 243.558437) scale(0.1 -0.1)">
       <defs>
        <path id="DejaVuSans-38" d="M 2034 2216 
Q 1584 2216 1326 1975 
Q 1069 1734 1069 1313 
Q 1069 891 1326 650 
Q 1584 409 2034 409 
Q 2484 409 2743 651 
Q 3003 894 3003 1313 
Q 3003 1734 2745 1975 
Q 2488 2216 2034 2216 
z
M 1403 2484 
Q 997 2584 770 2862 
Q 544 3141 544 3541 
Q 544 4100 942 4425 
Q 1341 4750 2034 4750 
Q 2731 4750 3128 4425 
Q 3525 4100 3525 3541 
Q 3525 3141 3298 2862 
Q 3072 2584 2669 2484 
Q 3125 2378 3379 2068 
Q 3634 1759 3634 1313 
Q 3634 634 3220 271 
Q 2806 -91 2034 -91 
Q 1263 -91 848 271 
Q 434 634 434 1313 
Q 434 1759 690 2068 
Q 947 2378 1403 2484 
z
M 1172 3481 
Q 1172 3119 1398 2916 
Q 1625 2713 2034 2713 
Q 2441 2713 2670 2916 
Q 2900 3119 2900 3481 
Q 2900 3844 2670 4047 
Q 2441 4250 2034 4250 
Q 1625 4250 1398 4047 
Q 1172 3844 1172 3481 
z
" transform="scale(0.015625)"/>
       </defs>
       <use xlink:href="#DejaVuSans-38"/>
       <use xlink:href="#DejaVuSans-2e" transform="translate(63.623047 0)"/>
       <use xlink:href="#DejaVuSans-30" transform="translate(95.410156 0)"/>
      </g>
     </g>
    </g>
    <g id="xtick_6">
     <g id="line2d_6">
      <g>
       <use xlink:href="#m3860b072d7" x="315.82017" y="228.96" style="stroke: #000000; stroke-width: 0.8"/>
      </g>
     </g>
     <g id="text_6">
      <!-- 8.5 -->
      <g transform="translate(307.868608 243.558437) scale(0.1 -0.1)">
       <use xlink:href="#DejaVuSans-38"/>
       <use xlink:href="#DejaVuSans-2e" transform="translate(63.623047 0)"/>
       <use xlink:href="#DejaVuSans-35" transform="translate(95.410156 0)"/>
      </g>
     </g>
    </g>
    <g id="xtick_7">
     <g id="line2d_7">
      <g>
       <use xlink:href="#m3860b072d7" x="366.547443" y="228.96" style="stroke: #000000; stroke-width: 0.8"/>
      </g>
     </g>
     <g id="text_7">
      <!-- 9.0 -->
      <g transform="translate(358.595881 243.558437) scale(0.1 -0.1)">
       <defs>
        <path id="DejaVuSans-39" d="M 703 97 
L 703 672 
Q 941 559 1184 500 
Q 1428 441 1663 441 
Q 2288 441 2617 861 
Q 2947 1281 2994 2138 
Q 2813 1869 2534 1725 
Q 2256 1581 1919 1581 
Q 1219 1581 811 2004 
Q 403 2428 403 3163 
Q 403 3881 828 4315 
Q 1253 4750 1959 4750 
Q 2769 4750 3195 4129 
Q 3622 3509 3622 2328 
Q 3622 1225 3098 567 
Q 2575 -91 1691 -91 
Q 1453 -91 1209 -44 
Q 966 3 703 97 
z
M 1959 2075 
Q 2384 2075 2632 2365 
Q 2881 2656 2881 3163 
Q 2881 3666 2632 3958 
Q 2384 4250 1959 4250 
Q 1534 4250 1286 3958 
Q 1038 3666 1038 3163 
Q 1038 2656 1286 2365 
Q 1534 2075 1959 2075 
z
" transform="scale(0.015625)"/>
       </defs>
       <use xlink:href="#DejaVuSans-39"/>
       <use xlink:href="#DejaVuSans-2e" transform="translate(63.623047 0)"/>
       <use xlink:href="#DejaVuSans-30" transform="translate(95.410156 0)"/>
      </g>
     </g>
    </g>
    <g id="text_8">
     <!-- wavelength [Å] -->
     <g transform="translate(176.328125 258.920937) scale(0.1 -0.1)">
      <defs>
       <path id="DejaVuSans-77" d="M 269 3500 
L 844 3500 
L 1563 769 
L 2278 3500 
L 2956 3500 
L 3675 769 
L 4391 3500 
L 4966 3500 
L 4050 0 
L 3372 0 
L 2619 2869 
L 1863 0 
L 1184 0 
L 269 3500 
z
" transform="scale(0.015625)"/>
       <path id="DejaVuSans-61" d="M 2194 1759 
Q 1497 1759 1228 1600 
Q 959 1441 959 1056 
Q 959 750 1161 570 
Q 1363 391 1709 391 
Q 2188 391 2477 730 
Q 2766 1069 2766 1631 
L 2766 1759 
L 2194 1759 
z
M 3341 1997 
L 3341 0 
L 2766 0 
L 2766 531 
Q 2569 213 2275 61 
Q 1981 -91 1556 -91 
Q 1019 -91 701 211 
Q 384 513 384 1019 
Q 384 1609 779 1909 
Q 1175 2209 1959 2209 
L 2766 2209 
L 2766 2266 
Q 2766 2663 2505 2880 
Q 2244 3097 1772 3097 
Q 1472 3097 1187 3025 
Q 903 2953 641 2809 
L 641 3341 
Q 956 3463 1253 3523 
Q 1550 3584 1831 3584 
Q 2591 3584 2966 3190 
Q 3341 2797 3341 1997 
z
" transform="scale(0.015625)"/>
       <path id="DejaVuSans-76" d="M 191 3500 
L 800 3500 
L 1894 563 
L 2988 3500 
L 3597 3500 
L 2284 0 
L 1503 0 
L 191 3500 
z
" transform="scale(0.015625)"/>
       <path id="DejaVuSans-65" d="M 3597 1894 
L 3597 1613 
L 953 1613 
Q 991 1019 1311 708 
Q 1631 397 2203 397 
Q 2534 397 2845 478 
Q 3156 559 3463 722 
L 3463 178 
Q 3153 47 2828 -22 
Q 2503 -91 2169 -91 
Q 1331 -91 842 396 
Q 353 884 353 1716 
Q 353 2575 817 3079 
Q 1281 3584 2069 3584 
Q 2775 3584 3186 3129 
Q 3597 2675 3597 1894 
z
M 3022 2063 
Q 3016 2534 2758 2815 
Q 2500 3097 2075 3097 
Q 1594 3097 1305 2825 
Q 1016 2553 972 2059 
L 3022 2063 
z
" transform="scale(0.015625)"/>
       <path id="DejaVuSans-6c" d="M 603 4863 
L 1178 4863 
L 1178 0 
L 603 0 
L 603 4863 
z
" transform="scale(0.015625)"/>
       <path id="DejaVuSans-6e" d="M 3513 2113 
L 3513 0 
L 2938 0 
L 2938 2094 
Q 2938 2591 2744 2837 
Q 2550 3084 2163 3084 
Q 1697 3084 1428 2787 
Q 1159 2491 1159 1978 
L 1159 0 
L 581 0 
L 581 3500 
L 1159 3500 
L 1159 2956 
Q 1366 3272 1645 3428 
Q 1925 3584 2291 3584 
Q 2894 3584 3203 3211 
Q 3513 2838 3513 2113 
z
" transform="scale(0.015625)"/>
       <path id="DejaVuSans-67" d="M 2906 1791 
Q 2906 2416 2648 2759 
Q 2391 3103 1925 3103 
Q 1463 3103 1205 2759 
Q 947 2416 947 1791 
Q 947 1169 1205 825 
Q 1463 481 1925 481 
Q 2391 481 2648 825 
Q 2906 1169 2906 1791 
z
M 3481 434 
Q 3481 -459 3084 -895 
Q 2688 -1331 1869 -1331 
Q 1566 -1331 1297 -1286 
Q 1028 -1241 775 -1147 
L 775 -588 
Q 1028 -725 1275 -790 
Q 1522 -856 1778 -856 
Q 2344 -856 2625 -561 
Q 2906 -266 2906 331 
L 2906 616 
Q 2728 306 2450 153 
Q 2172 0 1784 0 
Q 1141 0 747 490 
Q 353 981 353 1791 
Q 353 2603 747 3093 
Q 1141 3584 1784 3584 
Q 2172 3584 2450 3431 
Q 2728 3278 2906 2969 
L 2906 3500 
L 3481 3500 
L 3481 434 
z
" transform="scale(0.015625)"/>
       <path id="DejaVuSans-74" d="M 1172 4494 
L 1172 3500 
L 2356 3500 
L 2356 3053 
L 1172 3053 
L 1172 1153 
Q 1172 725 1289 603 
Q 1406 481 1766 481 
L 2356 481 
L 2356 0 
L 1766 0 
Q 1100 0 847 248 
Q 594 497 594 1153 
L 594 3053 
L 172 3053 
L 172 3500 
L 594 3500 
L 594 4494 
L 1172 4494 
z
" transform="scale(0.015625)"/>
       <path id="DejaVuSans-68" d="M 3513 2113 
L 3513 0 
L 2938 0 
L 2938 2094 
Q 2938 2591 2744 2837 
Q 2550 3084 2163 3084 
Q 1697 3084 1428 2787 
Q 1159 2491 1159 1978 
L 1159 0 
L 581 0 
L 581 4863 
L 1159 4863 
L 1159 2956 
Q 1366 3272 1645 3428 
Q 1925 3584 2291 3584 
Q 2894 3584 3203 3211 
Q 3513 2838 3513 2113 
z
" transform="scale(0.015625)"/>
       <path id="DejaVuSans-20" transform="scale(0.015625)"/>
       <path id="DejaVuSans-5b" d="M 550 4863 
L 1875 4863 
L 1875 4416 
L 1125 4416 
L 1125 -397 
L 1875 -397 
L 1875 -844 
L 550 -844 
L 550 4863 
z
" transform="scale(0.015625)"/>
       <path id="DejaVuSans-c5" d="M 2663 5081 
Q 2663 5278 2523 5417 
Q 2384 5556 2188 5556 
Q 1988 5556 1852 5420 
Q 1716 5284 1716 5081 
Q 1716 4884 1853 4746 
Q 1991 4609 2188 4609 
Q 2384 4609 2523 4746 
Q 2663 4884 2663 5081 
z
M 2188 4044 
L 1338 1722 
L 3041 1722 
L 2188 4044 
z
M 1716 4366 
Q 1525 4494 1428 4673 
Q 1331 4853 1331 5081 
Q 1331 5441 1579 5691 
Q 1828 5941 2188 5941 
Q 2544 5941 2795 5689 
Q 3047 5438 3047 5081 
Q 3047 4863 2948 4678 
Q 2850 4494 2663 4366 
L 4325 0 
L 3669 0 
L 3244 1197 
L 1141 1197 
L 716 0 
L 50 0 
L 1716 4366 
z
" transform="scale(0.015625)"/>
       <path id="DejaVuSans-5d" d="M 1947 4863 
L 1947 -844 
L 622 -844 
L 622 -397 
L 1369 -397 
L 1369 4416 
L 622 4416 
L 622 4863 
L 1947 4863 
z
" transform="scale(0.015625)"/>
      </defs>
      <use xlink:href="#DejaVuSans-77"/>
      <use xlink:href="#DejaVuSans-61" transform="translate(81.787109 0)"/>
      <use xlink:href="#DejaVuSans-76" transform="translate(143.066406 0)"/>
      <use xlink:href="#DejaVuSans-65" transform="translate(202.246094 0)"/>
      <use xlink:href="#DejaVuSans-6c" transform="translate(263.769531 0)"/>
      <use xlink:href="#DejaVuSans-65" transform="translate(291.552734 0)"/>
      <use xlink:href="#DejaVuSans-6e" transform="translate(353.076172 0)"/>
      <use xlink:href="#DejaVuSans-67" transform="translate(416.455078 0)"/>
      <use xlink:href="#DejaVuSans-74" transform="translate(479.931641 0)"/>
      <use xlink:href="#DejaVuSans-68" transform="translate(519.140625 0)"/>
      <use xlink:href="#DejaVuSans-20" transform="translate(582.519531 0)"/>
      <use xlink:href="#DejaVuSans-5b" transform="translate(614.306641 0)"/>
      <use xlink:href="#DejaVuSans-c5" transform="translate(653.320312 0)"/>
      <use xlink:href="#DejaVuSans-5d" transform="translate(721.728516 0)"/>
     </g>
    </g>
   </g>
   <g id="matplotlib.axis_2">
    <g id="ytick_1">
     <g id="line2d_8">
      <defs>
       <path id="mbbce21efcb" d="M 0 0 
L -3.5 0 
" style="stroke: #000000; stroke-width: 0.8"/>
      </defs>
      <g>
       <use xlink:href="#mbbce21efcb" x="46.965625" y="218.88" style="stroke: #000000; stroke-width: 0.8"/>
      </g>
     </g>
     <g id="text_9">
      <!-- 0 -->
      <g transform="translate(33.603125 222.679219) scale(0.1 -0.1)">
       <use xlink:href="#DejaVuSans-30"/>
      </g>
     </g>
    </g>
    <g id="ytick_2">
     <g id="line2d_9">
      <g>
       <use xlink:href="#mbbce21efcb" x="46.965625" y="175.431724" style="stroke: #000000; stroke-width: 0.8"/>
      </g>
     </g>
     <g id="text_10">
      <!-- 100 -->
      <g transform="translate(20.878125 179.230943) scale(0.1 -0.1)">
       <defs>
        <path id="DejaVuSans-31" d="M 794 531 
L 1825 531 
L 1825 4091 
L 703 3866 
L 703 4441 
L 1819 4666 
L 2450 4666 
L 2450 531 
L 3481 531 
L 3481 0 
L 794 0 
L 794 531 
z
" transform="scale(0.015625)"/>
       </defs>
       <use xlink:href="#DejaVuSans-31"/>
       <use xlink:href="#DejaVuSans-30" transform="translate(63.623047 0)"/>
       <use xlink:href="#DejaVuSans-30" transform="translate(127.246094 0)"/>
      </g>
     </g>
    </g>
    <g id="ytick_3">
     <g id="line2d_10">
      <g>
       <use xlink:href="#mbbce21efcb" x="46.965625" y="131.983448" style="stroke: #000000; stroke-width: 0.8"/>
      </g>
     </g>
     <g id="text_11">
      <!-- 200 -->
      <g transform="translate(20.878125 135.782667) scale(0.1 -0.1)">
       <defs>
        <path id="DejaVuSans-32" d="M 1228 531 
L 3431 531 
L 3431 0 
L 469 0 
L 469 531 
Q 828 903 1448 1529 
Q 2069 2156 2228 2338 
Q 2531 2678 2651 2914 
Q 2772 3150 2772 3378 
Q 2772 3750 2511 3984 
Q 2250 4219 1831 4219 
Q 1534 4219 1204 4116 
Q 875 4013 500 3803 
L 500 4441 
Q 881 4594 1212 4672 
Q 1544 4750 1819 4750 
Q 2544 4750 2975 4387 
Q 3406 4025 3406 3419 
Q 3406 3131 3298 2873 
Q 3191 2616 2906 2266 
Q 2828 2175 2409 1742 
Q 1991 1309 1228 531 
z
" transform="scale(0.015625)"/>
       </defs>
       <use xlink:href="#DejaVuSans-32"/>
       <use xlink:href="#DejaVuSans-30" transform="translate(63.623047 0)"/>
       <use xlink:href="#DejaVuSans-30" transform="translate(127.246094 0)"/>
      </g>
     </g>
    </g>
    <g id="ytick_4">
     <g id="line2d_11">
      <g>
       <use xlink:href="#mbbce21efcb" x="46.965625" y="88.535172" style="stroke: #000000; stroke-width: 0.8"/>
      </g>
     </g>
     <g id="text_12">
      <!-- 300 -->
      <g transform="translate(20.878125 92.334391) scale(0.1 -0.1)">
       <defs>
        <path id="DejaVuSans-33" d="M 2597 2516 
Q 3050 2419 3304 2112 
Q 3559 1806 3559 1356 
Q 3559 666 3084 287 
Q 2609 -91 1734 -91 
Q 1441 -91 1130 -33 
Q 819 25 488 141 
L 488 750 
Q 750 597 1062 519 
Q 1375 441 1716 441 
Q 2309 441 2620 675 
Q 2931 909 2931 1356 
Q 2931 1769 2642 2001 
Q 2353 2234 1838 2234 
L 1294 2234 
L 1294 2753 
L 1863 2753 
Q 2328 2753 2575 2939 
Q 2822 3125 2822 3475 
Q 2822 3834 2567 4026 
Q 2313 4219 1838 4219 
Q 1578 4219 1281 4162 
Q 984 4106 628 3988 
L 628 4550 
Q 988 4650 1302 4700 
Q 1616 4750 1894 4750 
Q 2613 4750 3031 4423 
Q 3450 4097 3450 3541 
Q 3450 3153 3228 2886 
Q 3006 2619 2597 2516 
z
" transform="scale(0.015625)"/>
       </defs>
       <use xlink:href="#DejaVuSans-33"/>
       <use xlink:href="#DejaVuSans-30" transform="translate(63.623047 0)"/>
       <use xlink:href="#DejaVuSans-30" transform="translate(127.246094 0)"/>
      </g>
     </g>
    </g>
    <g id="ytick_5">
     <g id="line2d_12">
      <g>
       <use xlink:href="#mbbce21efcb" x="46.965625" y="45.086897" style="stroke: #000000; stroke-width: 0.8"/>
      </g>
     </g>
     <g id="text_13">
      <!-- 400 -->
      <g transform="translate(20.878125 48.886115) scale(0.1 -0.1)">
       <defs>
        <path id="DejaVuSans-34" d="M 2419 4116 
L 825 1625 
L 2419 1625 
L 2419 4116 
z
M 2253 4666 
L 3047 4666 
L 3047 1625 
L 3713 1625 
L 3713 1100 
L 3047 1100 
L 3047 0 
L 2419 0 
L 2419 1100 
L 313 1100 
L 313 1709 
L 2253 4666 
z
" transform="scale(0.015625)"/>
       </defs>
       <use xlink:href="#DejaVuSans-34"/>
       <use xlink:href="#DejaVuSans-30" transform="translate(63.623047 0)"/>
       <use xlink:href="#DejaVuSans-30" transform="translate(127.246094 0)"/>
      </g>
     </g>
    </g>
    <g id="text_14">
     <!-- [counts] -->
     <g transform="translate(14.798438 138.6925) rotate(-90) scale(0.1 -0.1)">
      <defs>
       <path id="DejaVuSans-63" d="M 3122 3366 
L 3122 2828 
Q 2878 2963 2633 3030 
Q 2388 3097 2138 3097 
Q 1578 3097 1268 2742 
Q 959 2388 959 1747 
Q 959 1106 1268 751 
Q 1578 397 2138 397 
Q 2388 397 2633 464 
Q 2878 531 3122 666 
L 3122 134 
Q 2881 22 2623 -34 
Q 2366 -91 2075 -91 
Q 1284 -91 818 406 
Q 353 903 353 1747 
Q 353 2603 823 3093 
Q 1294 3584 2113 3584 
Q 2378 3584 2631 3529 
Q 2884 3475 3122 3366 
z
" transform="scale(0.015625)"/>
       <path id="DejaVuSans-6f" d="M 1959 3097 
Q 1497 3097 1228 2736 
Q 959 2375 959 1747 
Q 959 1119 1226 758 
Q 1494 397 1959 397 
Q 2419 397 2687 759 
Q 2956 1122 2956 1747 
Q 2956 2369 2687 2733 
Q 2419 3097 1959 3097 
z
M 1959 3584 
Q 2709 3584 3137 3096 
Q 3566 2609 3566 1747 
Q 3566 888 3137 398 
Q 2709 -91 1959 -91 
Q 1206 -91 779 398 
Q 353 888 353 1747 
Q 353 2609 779 3096 
Q 1206 3584 1959 3584 
z
" transform="scale(0.015625)"/>
       <path id="DejaVuSans-75" d="M 544 1381 
L 544 3500 
L 1119 3500 
L 1119 1403 
Q 1119 906 1312 657 
Q 1506 409 1894 409 
Q 2359 409 2629 706 
Q 2900 1003 2900 1516 
L 2900 3500 
L 3475 3500 
L 3475 0 
L 2900 0 
L 2900 538 
Q 2691 219 2414 64 
Q 2138 -91 1772 -91 
Q 1169 -91 856 284 
Q 544 659 544 1381 
z
M 1991 3584 
L 1991 3584 
z
" transform="scale(0.015625)"/>
       <path id="DejaVuSans-73" d="M 2834 3397 
L 2834 2853 
Q 2591 2978 2328 3040 
Q 2066 3103 1784 3103 
Q 1356 3103 1142 2972 
Q 928 2841 928 2578 
Q 928 2378 1081 2264 
Q 1234 2150 1697 2047 
L 1894 2003 
Q 2506 1872 2764 1633 
Q 3022 1394 3022 966 
Q 3022 478 2636 193 
Q 2250 -91 1575 -91 
Q 1294 -91 989 -36 
Q 684 19 347 128 
L 347 722 
Q 666 556 975 473 
Q 1284 391 1588 391 
Q 1994 391 2212 530 
Q 2431 669 2431 922 
Q 2431 1156 2273 1281 
Q 2116 1406 1581 1522 
L 1381 1569 
Q 847 1681 609 1914 
Q 372 2147 372 2553 
Q 372 3047 722 3315 
Q 1072 3584 1716 3584 
Q 2034 3584 2315 3537 
Q 2597 3491 2834 3397 
z
" transform="scale(0.015625)"/>
      </defs>
      <use xlink:href="#DejaVuSans-5b"/>
      <use xlink:href="#DejaVuSans-63" transform="translate(39.013672 0)"/>
      <use xlink:href="#DejaVuSans-6f" transform="translate(93.994141 0)"/>
      <use xlink:href="#DejaVuSans-75" transform="translate(155.175781 0)"/>
      <use xlink:href="#DejaVuSans-6e" transform="translate(218.554688 0)"/>
      <use xlink:href="#DejaVuSans-74" transform="translate(281.933594 0)"/>
      <use xlink:href="#DejaVuSans-73" transform="translate(321.142578 0)"/>
      <use xlink:href="#DejaVuSans-5d" transform="translate(373.242188 0)"/>
     </g>
    </g>
   </g>
   <g id="patch_3">
    <path d="M 46.965625 228.96 
L 46.965625 7.2 
" style="fill: none; stroke: #000000; stroke-width: 0.8; stroke-linejoin: miter; stroke-linecap: square"/>
   </g>
   <g id="patch_4">
    <path d="M 381.765625 228.96 
L 381.765625 7.2 
" style="fill: none; stroke: #000000; stroke-width: 0.8; stroke-linejoin: miter; stroke-linecap: square"/>
   </g>
   <g id="patch_5">
    <path d="M 46.965625 228.96 
L 381.765625 228.96 
" style="fill: none; stroke: #000000; stroke-width: 0.8; stroke-linejoin: miter; stroke-linecap: square"/>
   </g>
   <g id="patch_6">
    <path d="M 46.965625 7.2 
L 381.765625 7.2 
" style="fill: none; stroke: #000000; stroke-width: 0.8; stroke-linejoin: miter; stroke-linecap: square"/>
   </g>
   <g id="legend_1">
    <g id="patch_7">
     <path d="M 300.542188 88.590625 
L 374.765625 88.590625 
Q 376.765625 88.590625 376.765625 86.590625 
L 376.765625 14.2 
Q 376.765625 12.2 374.765625 12.2 
L 300.542188 12.2 
Q 298.542188 12.2 298.542188 14.2 
L 298.542188 86.590625 
Q 298.542188 88.590625 300.542188 88.590625 
z
" style="fill: #ffffff; opacity: 0.8; stroke: #cccccc; stroke-linejoin: miter"/>
    </g>
    <g id="line2d_13">
     <path d="M 302.542188 20.298437 
L 302.542188 20.298437 
L 312.542188 20.298437 
L 312.542188 20.298437 
L 322.542188 20.298437 
" style="fill: none; stroke: #1f77b4; stroke-width: 1.5; stroke-linecap: square"/>
    </g>
    <g id="text_15">
     <!-- beam -->
     <g transform="translate(330.542188 23.798437) scale(0.1 -0.1)">
      <defs>
       <path id="DejaVuSans-62" d="M 3116 1747 
Q 3116 2381 2855 2742 
Q 2594 3103 2138 3103 
Q 1681 3103 1420 2742 
Q 1159 2381 1159 1747 
Q 1159 1113 1420 752 
Q 1681 391 2138 391 
Q 2594 391 2855 752 
Q 3116 1113 3116 1747 
z
M 1159 2969 
Q 1341 3281 1617 3432 
Q 1894 3584 2278 3584 
Q 2916 3584 3314 3078 
Q 3713 2572 3713 1747 
Q 3713 922 3314 415 
Q 2916 -91 2278 -91 
Q 1894 -91 1617 61 
Q 1341 213 1159 525 
L 1159 0 
L 581 0 
L 581 4863 
L 1159 4863 
L 1159 2969 
z
" transform="scale(0.015625)"/>
       <path id="DejaVuSans-6d" d="M 3328 2828 
Q 3544 3216 3844 3400 
Q 4144 3584 4550 3584 
Q 5097 3584 5394 3201 
Q 5691 2819 5691 2113 
L 5691 0 
L 5113 0 
L 5113 2094 
Q 5113 2597 4934 2840 
Q 4756 3084 4391 3084 
Q 3944 3084 3684 2787 
Q 3425 2491 3425 1978 
L 3425 0 
L 2847 0 
L 2847 2094 
Q 2847 2600 2669 2842 
Q 2491 3084 2119 3084 
Q 1678 3084 1418 2786 
Q 1159 2488 1159 1978 
L 1159 0 
L 581 0 
L 581 3500 
L 1159 3500 
L 1159 2956 
Q 1356 3278 1631 3431 
Q 1906 3584 2284 3584 
Q 2666 3584 2933 3390 
Q 3200 3197 3328 2828 
z
" transform="scale(0.015625)"/>
      </defs>
      <use xlink:href="#DejaVuSans-62"/>
      <use xlink:href="#DejaVuSans-65" transform="translate(63.476562 0)"/>
      <use xlink:href="#DejaVuSans-61" transform="translate(125 0)"/>
      <use xlink:href="#DejaVuSans-6d" transform="translate(186.279297 0)"/>
     </g>
    </g>
    <g id="line2d_14">
     <path d="M 302.542188 34.976562 
L 302.542188 34.976562 
L 312.542188 34.976562 
L 312.542188 34.976562 
L 322.542188 34.976562 
" style="fill: none; stroke: #ff7f0e; stroke-width: 1.5; stroke-linecap: square"/>
    </g>
    <g id="text_16">
     <!-- sample -->
     <g transform="translate(330.542188 38.476562) scale(0.1 -0.1)">
      <defs>
       <path id="DejaVuSans-70" d="M 1159 525 
L 1159 -1331 
L 581 -1331 
L 581 3500 
L 1159 3500 
L 1159 2969 
Q 1341 3281 1617 3432 
Q 1894 3584 2278 3584 
Q 2916 3584 3314 3078 
Q 3713 2572 3713 1747 
Q 3713 922 3314 415 
Q 2916 -91 2278 -91 
Q 1894 -91 1617 61 
Q 1341 213 1159 525 
z
M 3116 1747 
Q 3116 2381 2855 2742 
Q 2594 3103 2138 3103 
Q 1681 3103 1420 2742 
Q 1159 2381 1159 1747 
Q 1159 1113 1420 752 
Q 1681 391 2138 391 
Q 2594 391 2855 752 
Q 3116 1113 3116 1747 
z
" transform="scale(0.015625)"/>
      </defs>
      <use xlink:href="#DejaVuSans-73"/>
      <use xlink:href="#DejaVuSans-61" transform="translate(52.099609 0)"/>
      <use xlink:href="#DejaVuSans-6d" transform="translate(113.378906 0)"/>
      <use xlink:href="#DejaVuSans-70" transform="translate(210.791016 0)"/>
      <use xlink:href="#DejaVuSans-6c" transform="translate(274.267578 0)"/>
      <use xlink:href="#DejaVuSans-65" transform="translate(302.050781 0)"/>
     </g>
    </g>
    <g id="line2d_15">
     <path d="M 302.542188 49.654687 
L 302.542188 49.654687 
L 312.542188 49.654687 
L 312.542188 49.654687 
L 322.542188 49.654687 
" style="fill: none; stroke: #2ca02c; stroke-width: 1.5; stroke-linecap: square"/>
    </g>
    <g id="text_17">
     <!-- monitor -->
     <g transform="translate(330.542188 53.154687) scale(0.1 -0.1)">
      <defs>
       <path id="DejaVuSans-69" d="M 603 3500 
L 1178 3500 
L 1178 0 
L 603 0 
L 603 3500 
z
M 603 4863 
L 1178 4863 
L 1178 4134 
L 603 4134 
L 603 4863 
z
" transform="scale(0.015625)"/>
       <path id="DejaVuSans-72" d="M 2631 2963 
Q 2534 3019 2420 3045 
Q 2306 3072 2169 3072 
Q 1681 3072 1420 2755 
Q 1159 2438 1159 1844 
L 1159 0 
L 581 0 
L 581 3500 
L 1159 3500 
L 1159 2956 
Q 1341 3275 1631 3429 
Q 1922 3584 2338 3584 
Q 2397 3584 2469 3576 
Q 2541 3569 2628 3553 
L 2631 2963 
z
" transform="scale(0.015625)"/>
      </defs>
      <use xlink:href="#DejaVuSans-6d"/>
      <use xlink:href="#DejaVuSans-6f" transform="translate(97.412109 0)"/>
      <use xlink:href="#DejaVuSans-6e" transform="translate(158.59375 0)"/>
      <use xlink:href="#DejaVuSans-69" transform="translate(221.972656 0)"/>
      <use xlink:href="#DejaVuSans-74" transform="translate(249.755859 0)"/>
      <use xlink:href="#DejaVuSans-6f" transform="translate(288.964844 0)"/>
      <use xlink:href="#DejaVuSans-72" transform="translate(350.146484 0)"/>
     </g>
    </g>
    <g id="line2d_16">
     <path d="M 302.542188 64.332812 
L 302.542188 64.332812 
L 312.542188 64.332812 
L 312.542188 64.332812 
L 322.542188 64.332812 
" style="fill: none; stroke: #d62728; stroke-width: 1.5; stroke-linecap: square"/>
    </g>
    <g id="text_18">
     <!-- detector -->
     <g transform="translate(330.542188 67.832812) scale(0.1 -0.1)">
      <defs>
       <path id="DejaVuSans-64" d="M 2906 2969 
L 2906 4863 
L 3481 4863 
L 3481 0 
L 2906 0 
L 2906 525 
Q 2725 213 2448 61 
Q 2172 -91 1784 -91 
Q 1150 -91 751 415 
Q 353 922 353 1747 
Q 353 2572 751 3078 
Q 1150 3584 1784 3584 
Q 2172 3584 2448 3432 
Q 2725 3281 2906 2969 
z
M 947 1747 
Q 947 1113 1208 752 
Q 1469 391 1925 391 
Q 2381 391 2643 752 
Q 2906 1113 2906 1747 
Q 2906 2381 2643 2742 
Q 2381 3103 1925 3103 
Q 1469 3103 1208 2742 
Q 947 2381 947 1747 
z
" transform="scale(0.015625)"/>
      </defs>
      <use xlink:href="#DejaVuSans-64"/>
      <use xlink:href="#DejaVuSans-65" transform="translate(63.476562 0)"/>
      <use xlink:href="#DejaVuSans-74" transform="translate(125 0)"/>
      <use xlink:href="#DejaVuSans-65" transform="translate(164.208984 0)"/>
      <use xlink:href="#DejaVuSans-63" transform="translate(225.732422 0)"/>
      <use xlink:href="#DejaVuSans-74" transform="translate(280.712891 0)"/>
      <use xlink:href="#DejaVuSans-6f" transform="translate(319.921875 0)"/>
      <use xlink:href="#DejaVuSans-72" transform="translate(381.103516 0)"/>
     </g>
    </g>
    <g id="line2d_17">
     <path d="M 302.542188 79.010937 
L 302.542188 79.010937 
L 312.542188 79.010937 
L 312.542188 79.010937 
L 322.542188 79.010937 
" style="fill: none; stroke: #9467bd; stroke-width: 1.5; stroke-linecap: square"/>
    </g>
    <g id="text_19">
     <!-- true -->
     <g transform="translate(330.542188 82.510937) scale(0.1 -0.1)">
      <use xlink:href="#DejaVuSans-74"/>
      <use xlink:href="#DejaVuSans-72" transform="translate(39.208984 0)"/>
      <use xlink:href="#DejaVuSans-75" transform="translate(80.322266 0)"/>
      <use xlink:href="#DejaVuSans-65" transform="translate(143.701172 0)"/>
     </g>
    </g>
   </g>
   <g id="line2d_18">
    <path d="M 62.183807 218.88 
L 83.489261 218.88 
L 83.489261 218.011034 
L 86.532898 218.011034 
L 86.532898 218.445517 
L 89.576534 218.445517 
L 89.576534 215.838621 
L 92.62017 215.838621 
L 92.62017 214.969655 
L 95.663807 214.969655 
L 95.663807 216.707586 
L 98.707443 216.707586 
L 98.707443 214.535172 
L 101.75108 214.535172 
L 101.75108 212.797241 
L 104.794716 212.797241 
L 104.794716 213.231724 
L 107.838352 213.231724 
L 107.838352 213.666207 
L 110.881989 213.666207 
L 110.881989 208.886897 
L 113.925625 208.886897 
L 113.925625 212.797241 
L 116.969261 212.797241 
L 116.969261 208.886897 
L 120.012898 208.886897 
L 120.012898 207.148966 
L 123.056534 207.148966 
L 123.056534 200.197241 
L 126.10017 200.197241 
L 126.10017 199.328276 
L 129.143807 199.328276 
L 129.143807 195.417931 
L 132.187443 195.417931 
L 132.187443 202.369655 
L 135.23108 202.369655 
L 135.23108 196.721379 
L 138.274716 196.721379 
L 138.274716 181.514483 
L 141.318352 181.514483 
L 141.318352 181.948966 
L 144.361989 181.948966 
L 144.361989 173.25931 
L 147.405625 173.25931 
L 147.405625 164.135172 
L 150.449261 164.135172 
L 150.449261 137.631724 
L 153.492898 137.631724 
L 153.492898 127.204138 
L 156.536534 127.204138 
L 156.536534 121.990345 
L 159.58017 121.990345 
L 159.58017 85.493793 
L 162.623807 85.493793 
L 162.623807 90.707586 
L 165.667443 90.707586 
L 165.667443 42.48 
L 168.71108 42.48 
L 168.71108 44.217931 
L 171.754716 44.217931 
L 171.754716 27.273103 
L 174.798352 27.273103 
L 174.798352 54.211034 
L 177.841989 54.211034 
L 177.841989 49.431724 
L 180.885625 49.431724 
L 180.885625 40.742069 
L 183.929261 40.742069 
L 183.929261 32.921379 
L 186.972898 32.921379 
L 186.972898 27.273103 
L 190.016534 27.273103 
L 190.016534 17.28 
L 193.06017 17.28 
L 193.06017 29.88 
L 196.103807 29.88 
L 196.103807 51.169655 
L 199.147443 51.169655 
L 199.147443 67.68 
L 202.19108 67.68 
L 202.19108 55.514483 
L 205.234716 55.514483 
L 205.234716 58.121379 
L 208.278352 58.121379 
L 208.278352 63.769655 
L 211.321989 63.769655 
L 211.321989 68.114483 
L 214.365625 68.114483 
L 214.365625 65.507586 
L 217.409261 65.507586 
L 217.409261 46.824828 
L 220.452898 46.824828 
L 220.452898 70.721379 
L 223.496534 70.721379 
L 223.496534 77.238621 
L 226.54017 77.238621 
L 226.54017 70.721379 
L 229.583807 70.721379 
L 229.583807 89.404138 
L 232.627443 89.404138 
L 232.627443 79.845517 
L 235.67108 79.845517 
L 235.67108 74.631724 
L 238.714716 74.631724 
L 238.714716 86.797241 
L 241.758352 86.797241 
L 241.758352 72.893793 
L 244.801989 72.893793 
L 244.801989 76.804138 
L 247.845625 76.804138 
L 247.845625 89.404138 
L 250.889261 89.404138 
L 250.889261 89.838621 
L 253.932898 89.838621 
L 253.932898 83.321379 
L 256.976534 83.321379 
L 256.976534 98.962759 
L 260.02017 98.962759 
L 260.02017 105.045517 
L 263.063807 105.045517 
L 263.063807 104.611034 
L 266.107443 104.611034 
L 266.107443 70.286897 
L 269.15108 70.286897 
L 269.15108 91.142069 
L 272.194716 91.142069 
L 272.194716 107.217931 
L 275.238352 107.217931 
L 275.238352 122.85931 
L 278.281989 122.85931 
L 278.281989 117.211034 
L 281.325625 117.211034 
L 281.325625 130.68 
L 284.369261 130.68 
L 284.369261 127.204138 
L 287.412898 127.204138 
L 287.412898 120.252414 
L 290.456534 120.252414 
L 290.456534 132.417931 
L 293.50017 132.417931 
L 293.50017 145.886897 
L 296.543807 145.886897 
L 296.543807 158.921379 
L 299.587443 158.921379 
L 299.587443 169.348966 
L 302.63108 169.348966 
L 302.63108 171.955862 
L 305.674716 171.955862 
L 305.674716 183.686897 
L 308.718352 183.686897 
L 308.718352 192.811034 
L 311.761989 192.811034 
L 311.761989 199.762759 
L 314.805625 199.762759 
L 314.805625 207.148966 
L 317.849261 207.148966 
L 317.849261 214.535172 
L 320.892898 214.535172 
L 320.892898 218.88 
L 366.547443 218.88 
L 366.547443 218.88 
" clip-path="url(#pe80fe34a97)" style="fill: none; stroke: #1f77b4; stroke-width: 1.5; stroke-linecap: square"/>
   </g>
   <g id="line2d_19">
    <path d="M 62.183807 218.88 
L 92.62017 218.88 
L 92.62017 216.707586 
L 95.663807 216.707586 
L 95.663807 215.838621 
L 98.707443 215.838621 
L 98.707443 218.88 
L 101.75108 218.88 
L 101.75108 217.142069 
L 104.794716 217.142069 
L 104.794716 214.10069 
L 107.838352 214.10069 
L 107.838352 212.362759 
L 110.881989 212.362759 
L 110.881989 209.321379 
L 113.925625 209.321379 
L 113.925625 210.190345 
L 116.969261 210.190345 
L 116.969261 208.886897 
L 120.012898 208.886897 
L 120.012898 204.976552 
L 123.056534 204.976552 
L 123.056534 200.197241 
L 126.10017 200.197241 
L 126.10017 198.45931 
L 129.143807 198.45931 
L 129.143807 199.762759 
L 132.187443 199.762759 
L 132.187443 200.631724 
L 135.23108 200.631724 
L 135.23108 187.597241 
L 138.274716 187.597241 
L 138.274716 180.645517 
L 141.318352 180.645517 
L 141.318352 176.30069 
L 144.361989 176.30069 
L 144.361989 166.307586 
L 147.405625 166.307586 
L 147.405625 160.224828 
L 150.449261 160.224828 
L 150.449261 132.417931 
L 153.492898 132.417931 
L 153.492898 139.804138 
L 156.536534 139.804138 
L 156.536534 108.521379 
L 159.58017 108.521379 
L 159.58017 75.935172 
L 162.623807 75.935172 
L 162.623807 77.673103 
L 165.667443 77.673103 
L 165.667443 84.190345 
L 168.71108 84.190345 
L 168.71108 47.693793 
L 171.754716 47.693793 
L 171.754716 55.514483 
L 174.798352 55.514483 
L 174.798352 24.666207 
L 177.841989 24.666207 
L 177.841989 39.438621 
L 180.885625 39.438621 
L 180.885625 32.921379 
L 183.929261 32.921379 
L 183.929261 33.355862 
L 186.972898 33.355862 
L 186.972898 36.397241 
L 190.016534 36.397241 
L 190.016534 51.604138 
L 193.06017 51.604138 
L 193.06017 54.211034 
L 196.103807 54.211034 
L 196.103807 25.10069 
L 199.147443 25.10069 
L 199.147443 53.776552 
L 202.19108 53.776552 
L 202.19108 65.942069 
L 205.234716 65.942069 
L 205.234716 54.645517 
L 208.278352 54.645517 
L 208.278352 66.811034 
L 211.321989 66.811034 
L 211.321989 59.85931 
L 214.365625 59.85931 
L 214.365625 62.031724 
L 217.409261 62.031724 
L 217.409261 53.776552 
L 220.452898 53.776552 
L 220.452898 65.942069 
L 223.496534 65.942069 
L 223.496534 79.411034 
L 226.54017 79.411034 
L 226.54017 80.714483 
L 229.583807 80.714483 
L 229.583807 91.576552 
L 232.627443 91.576552 
L 232.627443 65.942069 
L 235.67108 65.942069 
L 235.67108 74.197241 
L 238.714716 74.197241 
L 238.714716 83.321379 
L 241.758352 83.321379 
L 241.758352 69.852414 
L 244.801989 69.852414 
L 244.801989 85.928276 
L 247.845625 85.928276 
L 247.845625 71.590345 
L 250.889261 71.590345 
L 250.889261 108.955862 
L 253.932898 108.955862 
L 253.932898 94.183448 
L 256.976534 94.183448 
L 256.976534 101.569655 
L 260.02017 101.569655 
L 260.02017 68.548966 
L 263.063807 68.548966 
L 263.063807 116.342069 
L 266.107443 116.342069 
L 266.107443 100.70069 
L 269.15108 100.70069 
L 269.15108 118.08 
L 272.194716 118.08 
L 272.194716 109.824828 
L 275.238352 109.824828 
L 275.238352 108.086897 
L 278.281989 108.086897 
L 278.281989 107.217931 
L 281.325625 107.217931 
L 281.325625 115.473103 
L 284.369261 115.473103 
L 284.369261 128.942069 
L 287.412898 128.942069 
L 287.412898 121.990345 
L 290.456534 121.990345 
L 290.456534 140.238621 
L 293.50017 140.238621 
L 293.50017 140.673103 
L 296.543807 140.673103 
L 296.543807 159.355862 
L 302.63108 159.355862 
L 302.63108 171.955862 
L 305.674716 171.955862 
L 305.674716 182.817931 
L 308.718352 182.817931 
L 308.718352 192.376552 
L 311.761989 192.376552 
L 311.761989 198.45931 
L 314.805625 198.45931 
L 314.805625 210.190345 
L 317.849261 210.190345 
L 317.849261 211.928276 
L 320.892898 211.928276 
L 320.892898 218.88 
L 366.547443 218.88 
L 366.547443 218.88 
" clip-path="url(#pe80fe34a97)" style="fill: none; stroke: #ff7f0e; stroke-width: 1.5; stroke-linecap: square"/>
   </g>
   <g id="line2d_20">
    <path d="M 62.183807 218.88 
L 95.663807 218.88 
L 95.663807 214.969655 
L 98.707443 214.969655 
L 98.707443 218.88 
L 101.75108 218.88 
L 101.75108 218.011034 
L 104.794716 218.011034 
L 104.794716 217.142069 
L 107.838352 217.142069 
L 107.838352 218.88 
L 110.881989 218.88 
L 110.881989 208.017931 
L 113.925625 208.017931 
L 113.925625 218.88 
L 116.969261 218.88 
L 116.969261 214.535172 
L 120.012898 214.535172 
L 120.012898 211.928276 
L 123.056534 211.928276 
L 123.056534 204.976552 
L 126.10017 204.976552 
L 126.10017 199.328276 
L 129.143807 199.328276 
L 129.143807 196.286897 
L 132.187443 196.286897 
L 132.187443 197.155862 
L 135.23108 197.155862 
L 135.23108 195.417931 
L 138.274716 195.417931 
L 138.274716 180.211034 
L 141.318352 180.211034 
L 141.318352 174.997241 
L 144.361989 174.997241 
L 144.361989 165.438621 
L 147.405625 165.438621 
L 147.405625 156.748966 
L 150.449261 156.748966 
L 150.449261 140.238621 
L 153.492898 140.238621 
L 153.492898 135.45931 
L 156.536534 135.45931 
L 156.536534 105.045517 
L 159.58017 105.045517 
L 159.58017 76.804138 
L 162.623807 76.804138 
L 162.623807 88.535172 
L 165.667443 88.535172 
L 165.667443 72.893793 
L 168.71108 72.893793 
L 168.71108 58.121379 
L 171.754716 58.121379 
L 171.754716 47.693793 
L 174.798352 47.693793 
L 174.798352 30.748966 
L 177.841989 30.748966 
L 177.841989 26.838621 
L 180.885625 26.838621 
L 180.885625 31.617931 
L 183.929261 31.617931 
L 183.929261 39.438621 
L 186.972898 39.438621 
L 186.972898 33.355862 
L 190.016534 33.355862 
L 190.016534 53.342069 
L 193.06017 53.342069 
L 193.06017 52.473103 
L 196.103807 52.473103 
L 196.103807 36.831724 
L 199.147443 36.831724 
L 199.147443 56.383448 
L 202.19108 56.383448 
L 202.19108 60.293793 
L 205.234716 60.293793 
L 205.234716 58.555862 
L 208.278352 58.555862 
L 208.278352 58.990345 
L 211.321989 58.990345 
L 211.321989 56.383448 
L 214.365625 56.383448 
L 214.365625 69.852414 
L 217.409261 69.852414 
L 217.409261 49.431724 
L 220.452898 49.431724 
L 220.452898 66.376552 
L 223.496534 66.376552 
L 223.496534 81.148966 
L 226.54017 81.148966 
L 226.54017 79.845517 
L 229.583807 79.845517 
L 229.583807 86.362759 
L 232.627443 86.362759 
L 232.627443 68.548966 
L 235.67108 68.548966 
L 235.67108 72.45931 
L 238.714716 72.45931 
L 238.714716 82.886897 
L 241.758352 82.886897 
L 241.758352 81.148966 
L 244.801989 81.148966 
L 244.801989 76.369655 
L 247.845625 76.369655 
L 247.845625 79.845517 
L 250.889261 79.845517 
L 250.889261 102.873103 
L 253.932898 102.873103 
L 253.932898 88.969655 
L 256.976534 88.969655 
L 256.976534 111.562759 
L 260.02017 111.562759 
L 260.02017 76.804138 
L 263.063807 76.804138 
L 263.063807 100.266207 
L 266.107443 100.266207 
L 266.107443 104.611034 
L 269.15108 104.611034 
L 269.15108 112.866207 
L 272.194716 112.866207 
L 272.194716 112.431724 
L 275.238352 112.431724 
L 275.238352 114.169655 
L 278.281989 114.169655 
L 278.281989 106.783448 
L 281.325625 106.783448 
L 281.325625 117.211034 
L 284.369261 117.211034 
L 284.369261 126.335172 
L 287.412898 126.335172 
L 287.412898 120.252414 
L 290.456534 120.252414 
L 290.456534 141.107586 
L 293.50017 141.107586 
L 293.50017 140.238621 
L 296.543807 140.238621 
L 296.543807 159.355862 
L 299.587443 159.355862 
L 299.587443 155.011034 
L 302.63108 155.011034 
L 302.63108 172.390345 
L 305.674716 172.390345 
L 305.674716 184.555862 
L 308.718352 184.555862 
L 308.718352 193.68 
L 311.761989 193.68 
L 311.761989 199.762759 
L 314.805625 199.762759 
L 314.805625 208.452414 
L 317.849261 208.452414 
L 317.849261 216.707586 
L 320.892898 216.707586 
L 320.892898 218.88 
L 366.547443 218.88 
L 366.547443 218.88 
" clip-path="url(#pe80fe34a97)" style="fill: none; stroke: #2ca02c; stroke-width: 1.5; stroke-linecap: square"/>
   </g>
   <g id="line2d_21">
    <path d="M 62.183807 218.88 
L 95.663807 218.88 
L 95.663807 218.445517 
L 98.707443 218.445517 
L 98.707443 218.88 
L 110.881989 218.88 
L 110.881989 211.493793 
L 113.925625 211.493793 
L 113.925625 218.88 
L 116.969261 218.88 
L 116.969261 211.928276 
L 120.012898 211.928276 
L 120.012898 200.197241 
L 123.056534 200.197241 
L 123.056534 204.976552 
L 126.10017 204.976552 
L 126.10017 199.762759 
L 129.143807 199.762759 
L 129.143807 196.721379 
L 132.187443 196.721379 
L 132.187443 194.983448 
L 135.23108 194.983448 
L 135.23108 196.721379 
L 138.274716 196.721379 
L 138.274716 181.514483 
L 141.318352 181.514483 
L 141.318352 171.086897 
L 144.361989 171.086897 
L 144.361989 163.70069 
L 147.405625 163.70069 
L 147.405625 155.88 
L 150.449261 155.88 
L 150.449261 143.28 
L 153.492898 143.28 
L 153.492898 133.286897 
L 156.536534 133.286897 
L 156.536534 109.824828 
L 159.58017 109.824828 
L 159.58017 76.804138 
L 162.623807 76.804138 
L 162.623807 91.576552 
L 165.667443 91.576552 
L 165.667443 66.811034 
L 168.71108 66.811034 
L 168.71108 61.597241 
L 171.754716 61.597241 
L 171.754716 43.783448 
L 174.798352 43.783448 
L 174.798352 37.70069 
L 177.841989 37.70069 
L 177.841989 21.624828 
L 180.885625 21.624828 
L 180.885625 32.486897 
L 183.929261 32.486897 
L 183.929261 40.742069 
L 186.972898 40.742069 
L 186.972898 30.748966 
L 190.016534 30.748966 
L 190.016534 51.169655 
L 193.06017 51.169655 
L 193.06017 50.735172 
L 196.103807 50.735172 
L 196.103807 43.783448 
L 199.147443 43.783448 
L 199.147443 54.211034 
L 202.19108 54.211034 
L 202.19108 61.597241 
L 205.234716 61.597241 
L 205.234716 62.031724 
L 208.278352 62.031724 
L 208.278352 48.128276 
L 211.321989 48.128276 
L 211.321989 65.073103 
L 214.365625 65.073103 
L 214.365625 71.155862 
L 217.409261 71.155862 
L 217.409261 44.652414 
L 220.452898 44.652414 
L 220.452898 76.369655 
L 223.496534 76.369655 
L 223.496534 68.548966 
L 226.54017 68.548966 
L 226.54017 81.148966 
L 229.583807 81.148966 
L 229.583807 81.583448 
L 232.627443 81.583448 
L 232.627443 75.935172 
L 235.67108 75.935172 
L 235.67108 65.073103 
L 238.714716 65.073103 
L 238.714716 88.10069 
L 241.758352 88.10069 
L 241.758352 90.273103 
L 244.801989 90.273103 
L 244.801989 72.45931 
L 247.845625 72.45931 
L 247.845625 78.976552 
L 250.889261 78.976552 
L 250.889261 104.176552 
L 253.932898 104.176552 
L 253.932898 87.666207 
L 256.976534 87.666207 
L 256.976534 115.907586 
L 260.02017 115.907586 
L 260.02017 81.583448 
L 263.063807 81.583448 
L 263.063807 86.797241 
L 266.107443 86.797241 
L 266.107443 106.783448 
L 269.15108 106.783448 
L 269.15108 115.907586 
L 272.194716 115.907586 
L 272.194716 109.390345 
L 275.238352 109.390345 
L 275.238352 113.735172 
L 278.281989 113.735172 
L 278.281989 114.604138 
L 281.325625 114.604138 
L 281.325625 109.824828 
L 284.369261 109.824828 
L 284.369261 122.85931 
L 287.412898 122.85931 
L 287.412898 117.211034 
L 290.456534 117.211034 
L 290.456534 149.797241 
L 293.50017 149.797241 
L 293.50017 143.28 
L 296.543807 143.28 
L 296.543807 151.969655 
L 299.587443 151.969655 
L 299.587443 155.445517 
L 302.63108 155.445517 
L 302.63108 176.30069 
L 305.674716 176.30069 
L 305.674716 182.817931 
L 308.718352 182.817931 
L 308.718352 193.68 
L 311.761989 193.68 
L 311.761989 197.590345 
L 314.805625 197.590345 
L 314.805625 210.190345 
L 317.849261 210.190345 
L 317.849261 218.88 
L 366.547443 218.88 
L 366.547443 218.88 
" clip-path="url(#pe80fe34a97)" style="fill: none; stroke: #d62728; stroke-width: 1.5; stroke-linecap: square"/>
   </g>
   <g id="line2d_22">
    <path d="M 62.183807 218.88 
L 65.227443 218.88 
L 65.227443 218.011034 
L 68.27108 218.011034 
L 68.27108 218.445517 
L 77.401989 218.445517 
L 77.401989 217.576552 
L 80.445625 217.576552 
L 80.445625 218.445517 
L 86.532898 218.445517 
L 86.532898 216.273103 
L 89.576534 216.273103 
L 89.576534 216.707586 
L 92.62017 216.707586 
L 92.62017 214.969655 
L 95.663807 214.969655 
L 95.663807 216.273103 
L 98.707443 216.273103 
L 98.707443 214.969655 
L 101.75108 214.969655 
L 101.75108 215.838621 
L 104.794716 215.838621 
L 104.794716 213.666207 
L 107.838352 213.666207 
L 107.838352 213.231724 
L 110.881989 213.231724 
L 110.881989 210.624828 
L 113.925625 210.624828 
L 113.925625 209.755862 
L 116.969261 209.755862 
L 116.969261 206.28 
L 120.012898 206.28 
L 120.012898 207.148966 
L 123.056534 207.148966 
L 123.056534 199.328276 
L 126.10017 199.328276 
L 126.10017 200.631724 
L 129.143807 200.631724 
L 129.143807 197.155862 
L 132.187443 197.155862 
L 132.187443 198.893793 
L 135.23108 198.893793 
L 135.23108 191.073103 
L 138.274716 191.073103 
L 138.274716 182.817931 
L 141.318352 182.817931 
L 141.318352 168.48 
L 144.361989 168.48 
L 144.361989 166.742069 
L 147.405625 166.742069 
L 147.405625 153.273103 
L 150.449261 153.273103 
L 150.449261 149.362759 
L 153.492898 149.362759 
L 153.492898 125.90069 
L 156.536534 125.90069 
L 156.536534 100.70069 
L 159.58017 100.70069 
L 159.58017 96.355862 
L 162.623807 96.355862 
L 162.623807 87.231724 
L 165.667443 87.231724 
L 165.667443 61.597241 
L 168.71108 61.597241 
L 168.71108 66.376552 
L 171.754716 66.376552 
L 171.754716 46.390345 
L 174.798352 46.390345 
L 174.798352 33.790345 
L 177.841989 33.790345 
L 177.841989 19.452414 
L 180.885625 19.452414 
L 180.885625 37.70069 
L 183.929261 37.70069 
L 183.929261 35.093793 
L 186.972898 35.093793 
L 186.972898 31.183448 
L 190.016534 31.183448 
L 190.016534 53.342069 
L 193.06017 53.342069 
L 193.06017 45.086897 
L 196.103807 45.086897 
L 196.103807 53.776552 
L 199.147443 53.776552 
L 199.147443 60.293793 
L 202.19108 60.293793 
L 202.19108 55.514483 
L 205.234716 55.514483 
L 205.234716 57.686897 
L 208.278352 57.686897 
L 208.278352 48.997241 
L 211.321989 48.997241 
L 211.321989 73.328276 
L 214.365625 73.328276 
L 214.365625 55.948966 
L 217.409261 55.948966 
L 217.409261 56.817931 
L 220.452898 56.817931 
L 220.452898 66.376552 
L 223.496534 66.376552 
L 223.496534 69.852414 
L 226.54017 69.852414 
L 226.54017 82.452414 
L 229.583807 82.452414 
L 229.583807 82.886897 
L 232.627443 82.886897 
L 232.627443 75.50069 
L 235.67108 75.50069 
L 235.67108 69.417931 
L 238.714716 69.417931 
L 238.714716 74.631724 
L 241.758352 74.631724 
L 241.758352 90.707586 
L 244.801989 90.707586 
L 244.801989 75.935172 
L 247.845625 75.935172 
L 247.845625 90.707586 
L 250.889261 90.707586 
L 250.889261 96.355862 
L 253.932898 96.355862 
L 253.932898 92.88 
L 256.976534 92.88 
L 256.976534 106.783448 
L 260.02017 106.783448 
L 260.02017 85.05931 
L 263.063807 85.05931 
L 263.063807 99.831724 
L 266.107443 99.831724 
L 266.107443 97.65931 
L 269.15108 97.65931 
L 269.15108 109.390345 
L 272.194716 109.390345 
L 272.194716 108.086897 
L 275.238352 108.086897 
L 275.238352 119.817931 
L 278.281989 119.817931 
L 278.281989 111.562759 
L 281.325625 111.562759 
L 281.325625 117.211034 
L 284.369261 117.211034 
L 284.369261 115.038621 
L 287.412898 115.038621 
L 287.412898 125.031724 
L 290.456534 125.031724 
L 290.456534 143.714483 
L 293.50017 143.714483 
L 293.50017 142.411034 
L 296.543807 142.411034 
L 296.543807 157.617931 
L 299.587443 157.617931 
L 299.587443 149.797241 
L 302.63108 149.797241 
L 302.63108 175.431724 
L 305.674716 175.431724 
L 305.674716 184.555862 
L 308.718352 184.555862 
L 308.718352 194.983448 
L 311.761989 194.983448 
L 311.761989 198.893793 
L 314.805625 198.893793 
L 314.805625 208.017931 
L 317.849261 208.017931 
L 317.849261 210.190345 
L 320.892898 210.190345 
L 320.892898 216.707586 
L 323.936534 216.707586 
L 323.936534 217.576552 
L 326.98017 217.576552 
L 326.98017 218.88 
L 366.547443 218.88 
L 366.547443 218.88 
" clip-path="url(#pe80fe34a97)" style="fill: none; stroke: #9467bd; stroke-width: 1.5; stroke-linecap: square"/>
   </g>
  </g>
 </g>
 <defs>
  <clipPath id="pe80fe34a97">
   <rect x="46.965625" y="7.2" width="334.8" height="221.76"/>
  </clipPath>
 </defs>
</svg>
