<?xml version="1.0" encoding="utf-8" standalone="no"?>
<!DOCTYPE svg PUBLIC "-//W3C//DTD SVG 1.1//EN"
  "http://www.w3.org/Graphics/SVG/1.1/DTD/svg11.dtd">
<svg xmlns:xlink="http://www.w3.org/1999/xlink" width="872.39952pt" height="296.39952pt" viewBox="0 0 872.39952 296.39952" xmlns="http://www.w3.org/2000/svg" version="1.1">
 <metadata>
  <rdf:RDF xmlns:dc="http://purl.org/dc/elements/1.1/" xmlns:cc="http://creativecommons.org/ns#" xmlns:rdf="http://www.w3.org/1999/02/22-rdf-syntax-ns#">
   <cc:Work>
    <dc:type rdf:resource="http://purl.org/dc/dcmitype/StillImage"/>
    <dc:date>2025-05-26T10:49:47.086158</dc:date>
    <dc:format>image/svg+xml</dc:format>
    <dc:creator>
     <cc:Agent>
      <dc:title>Matplotlib v3.10.3, https://matplotlib.org/</dc:title>
     </cc:Agent>
    </dc:creator>
   </cc:Work>
  </rdf:RDF>
 </metadata>
 <defs>
  <style type="text/css">*{stroke-linejoin: round; stroke-linecap: butt}</style>
 </defs>
 <g id="figure_1">
  <g id="patch_1">
   <path d="M 0 296.39952 
L 872.39952 296.39952 
L 872.39952 0 
L 0 0 
z
" style="fill: #ffffff"/>
  </g>
  <g id="axes_1">
   <g id="patch_2">
    <path d="M 53.328125 257.158895 
L 431.87976 257.158895 
L 431.87976 7.2 
L 53.328125 7.2 
z
" style="fill: #ffffff"/>
   </g>
   <g id="matplotlib.axis_1">
    <g id="xtick_1">
     <g id="line2d_1">
      <defs>
       <path id="m532d465eea" d="M 0 0 
L 0 3.5 
" style="stroke: #000000; stroke-width: 0.8"/>
      </defs>
      <g>
       <use xlink:href="#m532d465eea" x="69.614847" y="257.158895" style="stroke: #000000; stroke-width: 0.8"/>
      </g>
     </g>
     <g id="text_1">
      <!-- 0 -->
      <g transform="translate(66.433597 271.757332) scale(0.1 -0.1)">
       <defs>
        <path id="DejaVuSans-30" d="M 2034 4250 
Q 1547 4250 1301 3770 
Q 1056 3291 1056 2328 
Q 1056 1369 1301 889 
Q 1547 409 2034 409 
Q 2525 409 2770 889 
Q 3016 1369 3016 2328 
Q 3016 3291 2770 3770 
Q 2525 4250 2034 4250 
z
M 2034 4750 
Q 2819 4750 3233 4129 
Q 3647 3509 3647 2328 
Q 3647 1150 3233 529 
Q 2819 -91 2034 -91 
Q 1250 -91 836 529 
Q 422 1150 422 2328 
Q 422 3509 836 4129 
Q 1250 4750 2034 4750 
z
" transform="scale(0.015625)"/>
       </defs>
       <use xlink:href="#DejaVuSans-30"/>
      </g>
     </g>
    </g>
    <g id="xtick_2">
     <g id="line2d_2">
      <g>
       <use xlink:href="#m532d465eea" x="138.957775" y="257.158895" style="stroke: #000000; stroke-width: 0.8"/>
      </g>
     </g>
     <g id="text_2">
      <!-- 1000 -->
      <g transform="translate(126.232775 271.757332) scale(0.1 -0.1)">
       <defs>
        <path id="DejaVuSans-31" d="M 794 531 
L 1825 531 
L 1825 4091 
L 703 3866 
L 703 4441 
L 1819 4666 
L 2450 4666 
L 2450 531 
L 3481 531 
L 3481 0 
L 794 0 
L 794 531 
z
" transform="scale(0.015625)"/>
       </defs>
       <use xlink:href="#DejaVuSans-31"/>
       <use xlink:href="#DejaVuSans-30" transform="translate(63.623047 0)"/>
       <use xlink:href="#DejaVuSans-30" transform="translate(127.246094 0)"/>
       <use xlink:href="#DejaVuSans-30" transform="translate(190.869141 0)"/>
      </g>
     </g>
    </g>
    <g id="xtick_3">
     <g id="line2d_3">
      <g>
       <use xlink:href="#m532d465eea" x="208.300704" y="257.158895" style="stroke: #000000; stroke-width: 0.8"/>
      </g>
     </g>
     <g id="text_3">
      <!-- 2000 -->
      <g transform="translate(195.575704 271.757332) scale(0.1 -0.1)">
       <defs>
        <path id="DejaVuSans-32" d="M 1228 531 
L 3431 531 
L 3431 0 
L 469 0 
L 469 531 
Q 828 903 1448 1529 
Q 2069 2156 2228 2338 
Q 2531 2678 2651 2914 
Q 2772 3150 2772 3378 
Q 2772 3750 2511 3984 
Q 2250 4219 1831 4219 
Q 1534 4219 1204 4116 
Q 875 4013 500 3803 
L 500 4441 
Q 881 4594 1212 4672 
Q 1544 4750 1819 4750 
Q 2544 4750 2975 4387 
Q 3406 4025 3406 3419 
Q 3406 3131 3298 2873 
Q 3191 2616 2906 2266 
Q 2828 2175 2409 1742 
Q 1991 1309 1228 531 
z
" transform="scale(0.015625)"/>
       </defs>
       <use xlink:href="#DejaVuSans-32"/>
       <use xlink:href="#DejaVuSans-30" transform="translate(63.623047 0)"/>
       <use xlink:href="#DejaVuSans-30" transform="translate(127.246094 0)"/>
       <use xlink:href="#DejaVuSans-30" transform="translate(190.869141 0)"/>
      </g>
     </g>
    </g>
    <g id="xtick_4">
     <g id="line2d_4">
      <g>
       <use xlink:href="#m532d465eea" x="277.643633" y="257.158895" style="stroke: #000000; stroke-width: 0.8"/>
      </g>
     </g>
     <g id="text_4">
      <!-- 3000 -->
      <g transform="translate(264.918633 271.757332) scale(0.1 -0.1)">
       <defs>
        <path id="DejaVuSans-33" d="M 2597 2516 
Q 3050 2419 3304 2112 
Q 3559 1806 3559 1356 
Q 3559 666 3084 287 
Q 2609 -91 1734 -91 
Q 1441 -91 1130 -33 
Q 819 25 488 141 
L 488 750 
Q 750 597 1062 519 
Q 1375 441 1716 441 
Q 2309 441 2620 675 
Q 2931 909 2931 1356 
Q 2931 1769 2642 2001 
Q 2353 2234 1838 2234 
L 1294 2234 
L 1294 2753 
L 1863 2753 
Q 2328 2753 2575 2939 
Q 2822 3125 2822 3475 
Q 2822 3834 2567 4026 
Q 2313 4219 1838 4219 
Q 1578 4219 1281 4162 
Q 984 4106 628 3988 
L 628 4550 
Q 988 4650 1302 4700 
Q 1616 4750 1894 4750 
Q 2613 4750 3031 4423 
Q 3450 4097 3450 3541 
Q 3450 3153 3228 2886 
Q 3006 2619 2597 2516 
z
" transform="scale(0.015625)"/>
       </defs>
       <use xlink:href="#DejaVuSans-33"/>
       <use xlink:href="#DejaVuSans-30" transform="translate(63.623047 0)"/>
       <use xlink:href="#DejaVuSans-30" transform="translate(127.246094 0)"/>
       <use xlink:href="#DejaVuSans-30" transform="translate(190.869141 0)"/>
      </g>
     </g>
    </g>
    <g id="xtick_5">
     <g id="line2d_5">
      <g>
       <use xlink:href="#m532d465eea" x="346.986562" y="257.158895" style="stroke: #000000; stroke-width: 0.8"/>
      </g>
     </g>
     <g id="text_5">
      <!-- 4000 -->
      <g transform="translate(334.261562 271.757332) scale(0.1 -0.1)">
       <defs>
        <path id="DejaVuSans-34" d="M 2419 4116 
L 825 1625 
L 2419 1625 
L 2419 4116 
z
M 2253 4666 
L 3047 4666 
L 3047 1625 
L 3713 1625 
L 3713 1100 
L 3047 1100 
L 3047 0 
L 2419 0 
L 2419 1100 
L 313 1100 
L 313 1709 
L 2253 4666 
z
" transform="scale(0.015625)"/>
       </defs>
       <use xlink:href="#DejaVuSans-34"/>
       <use xlink:href="#DejaVuSans-30" transform="translate(63.623047 0)"/>
       <use xlink:href="#DejaVuSans-30" transform="translate(127.246094 0)"/>
       <use xlink:href="#DejaVuSans-30" transform="translate(190.869141 0)"/>
      </g>
     </g>
    </g>
    <g id="xtick_6">
     <g id="line2d_6">
      <g>
       <use xlink:href="#m532d465eea" x="416.32949" y="257.158895" style="stroke: #000000; stroke-width: 0.8"/>
      </g>
     </g>
     <g id="text_6">
      <!-- 5000 -->
      <g transform="translate(403.60449 271.757332) scale(0.1 -0.1)">
       <defs>
        <path id="DejaVuSans-35" d="M 691 4666 
L 3169 4666 
L 3169 4134 
L 1269 4134 
L 1269 2991 
Q 1406 3038 1543 3061 
Q 1681 3084 1819 3084 
Q 2600 3084 3056 2656 
Q 3513 2228 3513 1497 
Q 3513 744 3044 326 
Q 2575 -91 1722 -91 
Q 1428 -91 1123 -41 
Q 819 9 494 109 
L 494 744 
Q 775 591 1075 516 
Q 1375 441 1709 441 
Q 2250 441 2565 725 
Q 2881 1009 2881 1497 
Q 2881 1984 2565 2268 
Q 2250 2553 1709 2553 
Q 1456 2553 1204 2497 
Q 953 2441 691 2322 
L 691 4666 
z
" transform="scale(0.015625)"/>
       </defs>
       <use xlink:href="#DejaVuSans-35"/>
       <use xlink:href="#DejaVuSans-30" transform="translate(63.623047 0)"/>
       <use xlink:href="#DejaVuSans-30" transform="translate(127.246094 0)"/>
       <use xlink:href="#DejaVuSans-30" transform="translate(190.869141 0)"/>
      </g>
     </g>
    </g>
    <g id="text_7">
     <!-- birth_time [µs] -->
     <g transform="translate(205.78363 285.435457) scale(0.1 -0.1)">
      <defs>
       <path id="DejaVuSans-62" d="M 3116 1747 
Q 3116 2381 2855 2742 
Q 2594 3103 2138 3103 
Q 1681 3103 1420 2742 
Q 1159 2381 1159 1747 
Q 1159 1113 1420 752 
Q 1681 391 2138 391 
Q 2594 391 2855 752 
Q 3116 1113 3116 1747 
z
M 1159 2969 
Q 1341 3281 1617 3432 
Q 1894 3584 2278 3584 
Q 2916 3584 3314 3078 
Q 3713 2572 3713 1747 
Q 3713 922 3314 415 
Q 2916 -91 2278 -91 
Q 1894 -91 1617 61 
Q 1341 213 1159 525 
L 1159 0 
L 581 0 
L 581 4863 
L 1159 4863 
L 1159 2969 
z
" transform="scale(0.015625)"/>
       <path id="DejaVuSans-69" d="M 603 3500 
L 1178 3500 
L 1178 0 
L 603 0 
L 603 3500 
z
M 603 4863 
L 1178 4863 
L 1178 4134 
L 603 4134 
L 603 4863 
z
" transform="scale(0.015625)"/>
       <path id="DejaVuSans-72" d="M 2631 2963 
Q 2534 3019 2420 3045 
Q 2306 3072 2169 3072 
Q 1681 3072 1420 2755 
Q 1159 2438 1159 1844 
L 1159 0 
L 581 0 
L 581 3500 
L 1159 3500 
L 1159 2956 
Q 1341 3275 1631 3429 
Q 1922 3584 2338 3584 
Q 2397 3584 2469 3576 
Q 2541 3569 2628 3553 
L 2631 2963 
z
" transform="scale(0.015625)"/>
       <path id="DejaVuSans-74" d="M 1172 4494 
L 1172 3500 
L 2356 3500 
L 2356 3053 
L 1172 3053 
L 1172 1153 
Q 1172 725 1289 603 
Q 1406 481 1766 481 
L 2356 481 
L 2356 0 
L 1766 0 
Q 1100 0 847 248 
Q 594 497 594 1153 
L 594 3053 
L 172 3053 
L 172 3500 
L 594 3500 
L 594 4494 
L 1172 4494 
z
" transform="scale(0.015625)"/>
       <path id="DejaVuSans-68" d="M 3513 2113 
L 3513 0 
L 2938 0 
L 2938 2094 
Q 2938 2591 2744 2837 
Q 2550 3084 2163 3084 
Q 1697 3084 1428 2787 
Q 1159 2491 1159 1978 
L 1159 0 
L 581 0 
L 581 4863 
L 1159 4863 
L 1159 2956 
Q 1366 3272 1645 3428 
Q 1925 3584 2291 3584 
Q 2894 3584 3203 3211 
Q 3513 2838 3513 2113 
z
" transform="scale(0.015625)"/>
       <path id="DejaVuSans-5f" d="M 3263 -1063 
L 3263 -1509 
L -63 -1509 
L -63 -1063 
L 3263 -1063 
z
" transform="scale(0.015625)"/>
       <path id="DejaVuSans-6d" d="M 3328 2828 
Q 3544 3216 3844 3400 
Q 4144 3584 4550 3584 
Q 5097 3584 5394 3201 
Q 5691 2819 5691 2113 
L 5691 0 
L 5113 0 
L 5113 2094 
Q 5113 2597 4934 2840 
Q 4756 3084 4391 3084 
Q 3944 3084 3684 2787 
Q 3425 2491 3425 1978 
L 3425 0 
L 2847 0 
L 2847 2094 
Q 2847 2600 2669 2842 
Q 2491 3084 2119 3084 
Q 1678 3084 1418 2786 
Q 1159 2488 1159 1978 
L 1159 0 
L 581 0 
L 581 3500 
L 1159 3500 
L 1159 2956 
Q 1356 3278 1631 3431 
Q 1906 3584 2284 3584 
Q 2666 3584 2933 3390 
Q 3200 3197 3328 2828 
z
" transform="scale(0.015625)"/>
       <path id="DejaVuSans-65" d="M 3597 1894 
L 3597 1613 
L 953 1613 
Q 991 1019 1311 708 
Q 1631 397 2203 397 
Q 2534 397 2845 478 
Q 3156 559 3463 722 
L 3463 178 
Q 3153 47 2828 -22 
Q 2503 -91 2169 -91 
Q 1331 -91 842 396 
Q 353 884 353 1716 
Q 353 2575 817 3079 
Q 1281 3584 2069 3584 
Q 2775 3584 3186 3129 
Q 3597 2675 3597 1894 
z
M 3022 2063 
Q 3016 2534 2758 2815 
Q 2500 3097 2075 3097 
Q 1594 3097 1305 2825 
Q 1016 2553 972 2059 
L 3022 2063 
z
" transform="scale(0.015625)"/>
       <path id="DejaVuSans-20" transform="scale(0.015625)"/>
       <path id="DejaVuSans-5b" d="M 550 4863 
L 1875 4863 
L 1875 4416 
L 1125 4416 
L 1125 -397 
L 1875 -397 
L 1875 -844 
L 550 -844 
L 550 4863 
z
" transform="scale(0.015625)"/>
       <path id="DejaVuSans-b5" d="M 544 -1331 
L 544 3500 
L 1119 3500 
L 1119 1325 
Q 1119 872 1334 640 
Q 1550 409 1972 409 
Q 2434 409 2667 671 
Q 2900 934 2900 1459 
L 2900 3500 
L 3475 3500 
L 3475 806 
Q 3475 619 3529 530 
Q 3584 441 3700 441 
Q 3728 441 3778 458 
Q 3828 475 3916 513 
L 3916 50 
Q 3788 -22 3673 -56 
Q 3559 -91 3450 -91 
Q 3234 -91 3106 31 
Q 2978 153 2931 403 
Q 2775 156 2548 32 
Q 2322 -91 2016 -91 
Q 1697 -91 1473 31 
Q 1250 153 1119 397 
L 1119 -1331 
L 544 -1331 
z
" transform="scale(0.015625)"/>
       <path id="DejaVuSans-73" d="M 2834 3397 
L 2834 2853 
Q 2591 2978 2328 3040 
Q 2066 3103 1784 3103 
Q 1356 3103 1142 2972 
Q 928 2841 928 2578 
Q 928 2378 1081 2264 
Q 1234 2150 1697 2047 
L 1894 2003 
Q 2506 1872 2764 1633 
Q 3022 1394 3022 966 
Q 3022 478 2636 193 
Q 2250 -91 1575 -91 
Q 1294 -91 989 -36 
Q 684 19 347 128 
L 347 722 
Q 666 556 975 473 
Q 1284 391 1588 391 
Q 1994 391 2212 530 
Q 2431 669 2431 922 
Q 2431 1156 2273 1281 
Q 2116 1406 1581 1522 
L 1381 1569 
Q 847 1681 609 1914 
Q 372 2147 372 2553 
Q 372 3047 722 3315 
Q 1072 3584 1716 3584 
Q 2034 3584 2315 3537 
Q 2597 3491 2834 3397 
z
" transform="scale(0.015625)"/>
       <path id="DejaVuSans-5d" d="M 1947 4863 
L 1947 -844 
L 622 -844 
L 622 -397 
L 1369 -397 
L 1369 4416 
L 622 4416 
L 622 4863 
L 1947 4863 
z
" transform="scale(0.015625)"/>
      </defs>
      <use xlink:href="#DejaVuSans-62"/>
      <use xlink:href="#DejaVuSans-69" transform="translate(63.476562 0)"/>
      <use xlink:href="#DejaVuSans-72" transform="translate(91.259766 0)"/>
      <use xlink:href="#DejaVuSans-74" transform="translate(132.373047 0)"/>
      <use xlink:href="#DejaVuSans-68" transform="translate(171.582031 0)"/>
      <use xlink:href="#DejaVuSans-5f" transform="translate(234.960938 0)"/>
      <use xlink:href="#DejaVuSans-74" transform="translate(284.960938 0)"/>
      <use xlink:href="#DejaVuSans-69" transform="translate(324.169922 0)"/>
      <use xlink:href="#DejaVuSans-6d" transform="translate(351.953125 0)"/>
      <use xlink:href="#DejaVuSans-65" transform="translate(449.365234 0)"/>
      <use xlink:href="#DejaVuSans-20" transform="translate(510.888672 0)"/>
      <use xlink:href="#DejaVuSans-5b" transform="translate(542.675781 0)"/>
      <use xlink:href="#DejaVuSans-b5" transform="translate(581.689453 0)"/>
      <use xlink:href="#DejaVuSans-73" transform="translate(645.3125 0)"/>
      <use xlink:href="#DejaVuSans-5d" transform="translate(697.412109 0)"/>
     </g>
    </g>
   </g>
   <g id="matplotlib.axis_2">
    <g id="ytick_1">
     <g id="line2d_7">
      <defs>
       <path id="mae5db8e3ba" d="M 0 0 
L -3.5 0 
" style="stroke: #000000; stroke-width: 0.8"/>
      </defs>
      <g>
       <use xlink:href="#mae5db8e3ba" x="53.328125" y="245.797127" style="stroke: #000000; stroke-width: 0.8"/>
      </g>
     </g>
     <g id="text_8">
      <!-- 0 -->
      <g transform="translate(39.965625 249.596346) scale(0.1 -0.1)">
       <use xlink:href="#DejaVuSans-30"/>
      </g>
     </g>
    </g>
    <g id="ytick_2">
     <g id="line2d_8">
      <g>
       <use xlink:href="#mae5db8e3ba" x="53.328125" y="209.670679" style="stroke: #000000; stroke-width: 0.8"/>
      </g>
     </g>
     <g id="text_9">
      <!-- 200 -->
      <g transform="translate(27.240625 213.469898) scale(0.1 -0.1)">
       <use xlink:href="#DejaVuSans-32"/>
       <use xlink:href="#DejaVuSans-30" transform="translate(63.623047 0)"/>
       <use xlink:href="#DejaVuSans-30" transform="translate(127.246094 0)"/>
      </g>
     </g>
    </g>
    <g id="ytick_3">
     <g id="line2d_9">
      <g>
       <use xlink:href="#mae5db8e3ba" x="53.328125" y="173.544231" style="stroke: #000000; stroke-width: 0.8"/>
      </g>
     </g>
     <g id="text_10">
      <!-- 400 -->
      <g transform="translate(27.240625 177.343449) scale(0.1 -0.1)">
       <use xlink:href="#DejaVuSans-34"/>
       <use xlink:href="#DejaVuSans-30" transform="translate(63.623047 0)"/>
       <use xlink:href="#DejaVuSans-30" transform="translate(127.246094 0)"/>
      </g>
     </g>
    </g>
    <g id="ytick_4">
     <g id="line2d_10">
      <g>
       <use xlink:href="#mae5db8e3ba" x="53.328125" y="137.417782" style="stroke: #000000; stroke-width: 0.8"/>
      </g>
     </g>
     <g id="text_11">
      <!-- 600 -->
      <g transform="translate(27.240625 141.217001) scale(0.1 -0.1)">
       <defs>
        <path id="DejaVuSans-36" d="M 2113 2584 
Q 1688 2584 1439 2293 
Q 1191 2003 1191 1497 
Q 1191 994 1439 701 
Q 1688 409 2113 409 
Q 2538 409 2786 701 
Q 3034 994 3034 1497 
Q 3034 2003 2786 2293 
Q 2538 2584 2113 2584 
z
M 3366 4563 
L 3366 3988 
Q 3128 4100 2886 4159 
Q 2644 4219 2406 4219 
Q 1781 4219 1451 3797 
Q 1122 3375 1075 2522 
Q 1259 2794 1537 2939 
Q 1816 3084 2150 3084 
Q 2853 3084 3261 2657 
Q 3669 2231 3669 1497 
Q 3669 778 3244 343 
Q 2819 -91 2113 -91 
Q 1303 -91 875 529 
Q 447 1150 447 2328 
Q 447 3434 972 4092 
Q 1497 4750 2381 4750 
Q 2619 4750 2861 4703 
Q 3103 4656 3366 4563 
z
" transform="scale(0.015625)"/>
       </defs>
       <use xlink:href="#DejaVuSans-36"/>
       <use xlink:href="#DejaVuSans-30" transform="translate(63.623047 0)"/>
       <use xlink:href="#DejaVuSans-30" transform="translate(127.246094 0)"/>
      </g>
     </g>
    </g>
    <g id="ytick_5">
     <g id="line2d_11">
      <g>
       <use xlink:href="#mae5db8e3ba" x="53.328125" y="101.291334" style="stroke: #000000; stroke-width: 0.8"/>
      </g>
     </g>
     <g id="text_12">
      <!-- 800 -->
      <g transform="translate(27.240625 105.090553) scale(0.1 -0.1)">
       <defs>
        <path id="DejaVuSans-38" d="M 2034 2216 
Q 1584 2216 1326 1975 
Q 1069 1734 1069 1313 
Q 1069 891 1326 650 
Q 1584 409 2034 409 
Q 2484 409 2743 651 
Q 3003 894 3003 1313 
Q 3003 1734 2745 1975 
Q 2488 2216 2034 2216 
z
M 1403 2484 
Q 997 2584 770 2862 
Q 544 3141 544 3541 
Q 544 4100 942 4425 
Q 1341 4750 2034 4750 
Q 2731 4750 3128 4425 
Q 3525 4100 3525 3541 
Q 3525 3141 3298 2862 
Q 3072 2584 2669 2484 
Q 3125 2378 3379 2068 
Q 3634 1759 3634 1313 
Q 3634 634 3220 271 
Q 2806 -91 2034 -91 
Q 1263 -91 848 271 
Q 434 634 434 1313 
Q 434 1759 690 2068 
Q 947 2378 1403 2484 
z
M 1172 3481 
Q 1172 3119 1398 2916 
Q 1625 2713 2034 2713 
Q 2441 2713 2670 2916 
Q 2900 3119 2900 3481 
Q 2900 3844 2670 4047 
Q 2441 4250 2034 4250 
Q 1625 4250 1398 4047 
Q 1172 3844 1172 3481 
z
" transform="scale(0.015625)"/>
       </defs>
       <use xlink:href="#DejaVuSans-38"/>
       <use xlink:href="#DejaVuSans-30" transform="translate(63.623047 0)"/>
       <use xlink:href="#DejaVuSans-30" transform="translate(127.246094 0)"/>
      </g>
     </g>
    </g>
    <g id="ytick_6">
     <g id="line2d_12">
      <g>
       <use xlink:href="#mae5db8e3ba" x="53.328125" y="65.164886" style="stroke: #000000; stroke-width: 0.8"/>
      </g>
     </g>
     <g id="text_13">
      <!-- 1000 -->
      <g transform="translate(20.878125 68.964105) scale(0.1 -0.1)">
       <use xlink:href="#DejaVuSans-31"/>
       <use xlink:href="#DejaVuSans-30" transform="translate(63.623047 0)"/>
       <use xlink:href="#DejaVuSans-30" transform="translate(127.246094 0)"/>
       <use xlink:href="#DejaVuSans-30" transform="translate(190.869141 0)"/>
      </g>
     </g>
    </g>
    <g id="ytick_7">
     <g id="line2d_13">
      <g>
       <use xlink:href="#mae5db8e3ba" x="53.328125" y="29.038438" style="stroke: #000000; stroke-width: 0.8"/>
      </g>
     </g>
     <g id="text_14">
      <!-- 1200 -->
      <g transform="translate(20.878125 32.837657) scale(0.1 -0.1)">
       <use xlink:href="#DejaVuSans-31"/>
       <use xlink:href="#DejaVuSans-32" transform="translate(63.623047 0)"/>
       <use xlink:href="#DejaVuSans-30" transform="translate(127.246094 0)"/>
       <use xlink:href="#DejaVuSans-30" transform="translate(190.869141 0)"/>
      </g>
     </g>
    </g>
    <g id="text_15">
     <!-- [counts] -->
     <g transform="translate(14.798438 152.791947) rotate(-90) scale(0.1 -0.1)">
      <defs>
       <path id="DejaVuSans-63" d="M 3122 3366 
L 3122 2828 
Q 2878 2963 2633 3030 
Q 2388 3097 2138 3097 
Q 1578 3097 1268 2742 
Q 959 2388 959 1747 
Q 959 1106 1268 751 
Q 1578 397 2138 397 
Q 2388 397 2633 464 
Q 2878 531 3122 666 
L 3122 134 
Q 2881 22 2623 -34 
Q 2366 -91 2075 -91 
Q 1284 -91 818 406 
Q 353 903 353 1747 
Q 353 2603 823 3093 
Q 1294 3584 2113 3584 
Q 2378 3584 2631 3529 
Q 2884 3475 3122 3366 
z
" transform="scale(0.015625)"/>
       <path id="DejaVuSans-6f" d="M 1959 3097 
Q 1497 3097 1228 2736 
Q 959 2375 959 1747 
Q 959 1119 1226 758 
Q 1494 397 1959 397 
Q 2419 397 2687 759 
Q 2956 1122 2956 1747 
Q 2956 2369 2687 2733 
Q 2419 3097 1959 3097 
z
M 1959 3584 
Q 2709 3584 3137 3096 
Q 3566 2609 3566 1747 
Q 3566 888 3137 398 
Q 2709 -91 1959 -91 
Q 1206 -91 779 398 
Q 353 888 353 1747 
Q 353 2609 779 3096 
Q 1206 3584 1959 3584 
z
" transform="scale(0.015625)"/>
       <path id="DejaVuSans-75" d="M 544 1381 
L 544 3500 
L 1119 3500 
L 1119 1403 
Q 1119 906 1312 657 
Q 1506 409 1894 409 
Q 2359 409 2629 706 
Q 2900 1003 2900 1516 
L 2900 3500 
L 3475 3500 
L 3475 0 
L 2900 0 
L 2900 538 
Q 2691 219 2414 64 
Q 2138 -91 1772 -91 
Q 1169 -91 856 284 
Q 544 659 544 1381 
z
M 1991 3584 
L 1991 3584 
z
" transform="scale(0.015625)"/>
       <path id="DejaVuSans-6e" d="M 3513 2113 
L 3513 0 
L 2938 0 
L 2938 2094 
Q 2938 2591 2744 2837 
Q 2550 3084 2163 3084 
Q 1697 3084 1428 2787 
Q 1159 2491 1159 1978 
L 1159 0 
L 581 0 
L 581 3500 
L 1159 3500 
L 1159 2956 
Q 1366 3272 1645 3428 
Q 1925 3584 2291 3584 
Q 2894 3584 3203 3211 
Q 3513 2838 3513 2113 
z
" transform="scale(0.015625)"/>
      </defs>
      <use xlink:href="#DejaVuSans-5b"/>
      <use xlink:href="#DejaVuSans-63" transform="translate(39.013672 0)"/>
      <use xlink:href="#DejaVuSans-6f" transform="translate(93.994141 0)"/>
      <use xlink:href="#DejaVuSans-75" transform="translate(155.175781 0)"/>
      <use xlink:href="#DejaVuSans-6e" transform="translate(218.554688 0)"/>
      <use xlink:href="#DejaVuSans-74" transform="translate(281.933594 0)"/>
      <use xlink:href="#DejaVuSans-73" transform="translate(321.142578 0)"/>
      <use xlink:href="#DejaVuSans-5d" transform="translate(373.242188 0)"/>
     </g>
    </g>
   </g>
   <g id="line2d_14">
    <path d="M 70.535018 232.069077 
L 71.682144 232.069077 
L 71.682144 229.178961 
L 72.82927 229.178961 
L 72.82927 220.689246 
L 73.976396 220.689246 
L 73.976396 213.283324 
L 75.123522 213.283324 
L 75.123522 204.974241 
L 76.270648 204.974241 
L 76.270648 191.788087 
L 77.417775 191.788087 
L 77.417775 187.99481 
L 78.564901 187.99481 
L 78.564901 179.14383 
L 79.712027 179.14383 
L 79.712027 174.086127 
L 80.859153 174.086127 
L 80.859153 163.428825 
L 82.006279 163.428825 
L 82.006279 159.635548 
L 83.153405 159.635548 
L 83.153405 155.481007 
L 84.300532 155.481007 
L 84.300532 140.488531 
L 85.447658 140.488531 
L 85.447658 147.71382 
L 86.594784 147.71382 
L 86.594784 130.553757 
L 87.74191 130.553757 
L 87.74191 122.244674 
L 88.889036 122.244674 
L 88.889036 121.88341 
L 90.036162 121.88341 
L 90.036162 118.270765 
L 91.183289 118.270765 
L 91.183289 112.129269 
L 92.330415 112.129269 
L 92.330415 104.542715 
L 93.477541 104.542715 
L 93.477541 98.220586 
L 94.624667 98.220586 
L 94.624667 105.987773 
L 95.771793 105.987773 
L 95.771793 87.924548 
L 96.918919 87.924548 
L 96.918919 86.840755 
L 98.066045 86.840755 
L 98.066045 95.33047 
L 99.213172 95.33047 
L 99.213172 85.215065 
L 100.360298 85.215065 
L 100.360298 94.969206 
L 101.507424 94.969206 
L 101.507424 77.809143 
L 102.65455 77.809143 
L 102.65455 88.466445 
L 103.801676 88.466445 
L 103.801676 78.35104 
L 104.948802 78.35104 
L 104.948802 79.796098 
L 106.095929 79.796098 
L 106.095929 78.712304 
L 107.243055 78.712304 
L 107.243055 75.822188 
L 108.390181 75.822188 
L 108.390181 71.848279 
L 109.537307 71.848279 
L 109.537307 79.434833 
L 110.684433 79.434833 
L 110.684433 58.481493 
L 111.831559 58.481493 
L 111.831559 67.693737 
L 112.978686 67.693737 
L 112.978686 54.868848 
L 114.125812 54.868848 
L 114.125812 64.081093 
L 115.272938 64.081093 
L 115.272938 58.481493 
L 116.420064 58.481493 
L 116.420064 57.217068 
L 117.56719 57.217068 
L 117.56719 48.727352 
L 118.714316 48.727352 
L 118.714316 59.02339 
L 119.861443 59.02339 
L 119.861443 57.758964 
L 121.008569 57.758964 
L 121.008569 53.785055 
L 122.155695 53.785055 
L 122.155695 57.758964 
L 123.302821 57.758964 
L 123.302821 44.934075 
L 124.449947 44.934075 
L 124.449947 39.69574 
L 125.597073 39.69574 
L 125.597073 62.455403 
L 126.7442 62.455403 
L 126.7442 58.481493 
L 127.891326 58.481493 
L 127.891326 52.520629 
L 129.038452 52.520629 
L 129.038452 47.824191 
L 130.185578 47.824191 
L 130.185578 43.127753 
L 131.332704 43.127753 
L 131.332704 41.502063 
L 132.47983 41.502063 
L 132.47983 46.017869 
L 133.626957 46.017869 
L 133.626957 45.29534 
L 135.921209 45.29534 
L 135.921209 44.934075 
L 137.068335 44.934075 
L 137.068335 47.643559 
L 138.215461 47.643559 
L 138.215461 43.850282 
L 139.362587 43.850282 
L 139.362587 35.360566 
L 140.509714 35.360566 
L 140.509714 40.779534 
L 141.65684 40.779534 
L 141.65684 39.876372 
L 142.803966 39.876372 
L 142.803966 40.598901 
L 143.951092 40.598901 
L 143.951092 42.224592 
L 145.098218 42.224592 
L 145.098218 39.876372 
L 146.245344 39.876372 
L 146.245344 40.598901 
L 147.392471 40.598901 
L 147.392471 54.688216 
L 148.539597 54.688216 
L 148.539597 44.211546 
L 149.686723 44.211546 
L 149.686723 41.863327 
L 150.833849 41.863327 
L 150.833849 45.475972 
L 151.980975 45.475972 
L 151.980975 41.140798 
L 153.128101 41.140798 
L 153.128101 38.611947 
L 155.422354 38.611947 
L 155.422354 34.457405 
L 156.56948 34.457405 
L 156.56948 39.334476 
L 157.716606 39.334476 
L 157.716606 35.360566 
L 158.863732 35.360566 
L 158.863732 29.580335 
L 160.010858 29.580335 
L 160.010858 42.94712 
L 161.157985 42.94712 
L 161.157985 40.598901 
L 162.305111 40.598901 
L 162.305111 42.405224 
L 163.452237 42.405224 
L 163.452237 40.779534 
L 164.599363 40.779534 
L 164.599363 52.339997 
L 165.746489 52.339997 
L 165.746489 43.308385 
L 166.893615 43.308385 
L 166.893615 32.651083 
L 168.040742 32.651083 
L 168.040742 36.44436 
L 169.187868 36.44436 
L 169.187868 46.559765 
L 170.334994 46.559765 
L 170.334994 36.986257 
L 171.48212 36.986257 
L 171.48212 39.515108 
L 172.629246 39.515108 
L 172.629246 38.611947 
L 173.776372 38.611947 
L 173.776372 21.632516 
L 174.923499 21.632516 
L 174.923499 54.326952 
L 176.070625 54.326952 
L 176.070625 38.973211 
L 177.217751 38.973211 
L 177.217751 48.366088 
L 178.364877 48.366088 
L 178.364877 38.07005 
L 179.512003 38.07005 
L 179.512003 30.483496 
L 180.659129 30.483496 
L 180.659129 35.179934 
L 181.806256 35.179934 
L 181.806256 42.043959 
L 182.953382 42.043959 
L 182.953382 36.083095 
L 184.100508 36.083095 
L 184.100508 39.153843 
L 185.247634 39.153843 
L 185.247634 27.954644 
L 186.39476 27.954644 
L 186.39476 23.258206 
L 187.541886 23.258206 
L 187.541886 41.32143 
L 188.689013 41.32143 
L 188.689013 33.915508 
L 189.836139 33.915508 
L 189.836139 33.012347 
L 190.983265 33.012347 
L 190.983265 40.057005 
L 192.130391 40.057005 
L 192.130391 41.32143 
L 193.277517 41.32143 
L 193.277517 40.057005 
L 194.424643 40.057005 
L 194.424643 37.708785 
L 195.57177 37.708785 
L 195.57177 36.624992 
L 196.718896 36.624992 
L 196.718896 40.779534 
L 197.866022 40.779534 
L 197.866022 18.561768 
L 199.013148 18.561768 
L 199.013148 34.999302 
L 200.160274 34.999302 
L 200.160274 34.096141 
L 201.3074 34.096141 
L 201.3074 31.386657 
L 202.454527 31.386657 
L 202.454527 40.598901 
L 203.601653 40.598901 
L 203.601653 31.567289 
L 204.748779 31.567289 
L 204.748779 45.114707 
L 205.895905 45.114707 
L 205.895905 37.889418 
L 207.043031 37.889418 
L 207.043031 28.135277 
L 208.190157 28.135277 
L 208.190157 36.44436 
L 209.337284 36.44436 
L 209.337284 29.399702 
L 210.48441 29.399702 
L 210.48441 39.515108 
L 211.631536 39.515108 
L 211.631536 28.496541 
L 212.778662 28.496541 
L 212.778662 34.096141 
L 213.925788 34.096141 
L 213.925788 30.122231 
L 215.072914 30.122231 
L 215.072914 52.701261 
L 216.220041 52.701261 
L 216.220041 35.360566 
L 217.367167 35.360566 
L 217.367167 37.166889 
L 218.514293 37.166889 
L 218.514293 43.489017 
L 219.661419 43.489017 
L 219.661419 50.17241 
L 220.808545 50.17241 
L 220.808545 37.708785 
L 221.955671 37.708785 
L 221.955671 30.664128 
L 223.102798 30.664128 
L 223.102798 29.760967 
L 224.249924 29.760967 
L 224.249924 41.140798 
L 225.39705 41.140798 
L 225.39705 33.554244 
L 226.544176 33.554244 
L 226.544176 42.585856 
L 227.691302 42.585856 
L 227.691302 36.083095 
L 228.838428 36.083095 
L 228.838428 37.347521 
L 229.985555 37.347521 
L 229.985555 33.012347 
L 231.132681 33.012347 
L 231.132681 34.638037 
L 232.279807 34.638037 
L 232.279807 31.747922 
L 233.426933 31.747922 
L 233.426933 40.237637 
L 234.574059 40.237637 
L 234.574059 37.347521 
L 235.721185 37.347521 
L 235.721185 32.470451 
L 236.868312 32.470451 
L 236.868312 31.567289 
L 238.015438 31.567289 
L 238.015438 42.766488 
L 239.162564 42.766488 
L 239.162564 42.585856 
L 240.30969 42.585856 
L 240.30969 37.166889 
L 241.456816 37.166889 
L 241.456816 41.863327 
L 242.603942 41.863327 
L 242.603942 35.360566 
L 243.751069 35.360566 
L 243.751069 39.515108 
L 244.898195 39.515108 
L 244.898195 35.541199 
L 246.045321 35.541199 
L 246.045321 26.870851 
L 247.192447 26.870851 
L 247.192447 31.025393 
L 248.339573 31.025393 
L 248.339573 33.554244 
L 249.486699 33.554244 
L 249.486699 31.747922 
L 250.633826 31.747922 
L 250.633826 35.902463 
L 251.780952 35.902463 
L 251.780952 43.850282 
L 252.928078 43.850282 
L 252.928078 44.572811 
L 254.075204 44.572811 
L 254.075204 44.030914 
L 255.22233 44.030914 
L 255.22233 27.051483 
L 256.369456 27.051483 
L 256.369456 34.81867 
L 257.516583 34.81867 
L 257.516583 44.934075 
L 258.663709 44.934075 
L 258.663709 48.54672 
L 259.810835 48.54672 
L 259.810835 38.792579 
L 260.957961 38.792579 
L 260.957961 40.237637 
L 262.105087 40.237637 
L 262.105087 52.881894 
L 263.252213 52.881894 
L 263.252213 42.585856 
L 264.39934 42.585856 
L 264.39934 39.515108 
L 265.546466 39.515108 
L 265.546466 43.850282 
L 266.693592 43.850282 
L 266.693592 35.179934 
L 267.840718 35.179934 
L 267.840718 38.431314 
L 268.987844 38.431314 
L 268.987844 46.559765 
L 270.13497 46.559765 
L 270.13497 55.410745 
L 271.282097 55.410745 
L 271.282097 69.319428 
L 272.429223 69.319428 
L 272.429223 80.157362 
L 273.576349 80.157362 
L 273.576349 83.22811 
L 274.723475 83.22811 
L 274.723475 92.440354 
L 275.870601 92.440354 
L 275.870601 103.820186 
L 277.017727 103.820186 
L 277.017727 106.710302 
L 278.164854 106.710302 
L 278.164854 111.948637 
L 279.31198 111.948637 
L 279.31198 121.341513 
L 280.459106 121.341513 
L 280.459106 125.857319 
L 281.606232 125.857319 
L 281.606232 126.399216 
L 282.753358 126.399216 
L 282.753358 134.527667 
L 283.900484 134.527667 
L 283.900484 141.752956 
L 285.047611 141.752956 
L 285.047611 152.229626 
L 286.194737 152.229626 
L 286.194737 154.577845 
L 287.341863 154.577845 
L 287.341863 164.512619 
L 288.488989 164.512619 
L 288.488989 168.486528 
L 289.636115 168.486528 
L 289.636115 165.957677 
L 290.783241 165.957677 
L 290.783241 173.905495 
L 291.930368 173.905495 
L 291.930368 180.76952 
L 293.077494 180.76952 
L 293.077494 183.298372 
L 294.22462 183.298372 
L 294.22462 189.801132 
L 295.371746 189.801132 
L 295.371746 189.6205 
L 296.518872 189.6205 
L 296.518872 189.078603 
L 297.665998 189.078603 
L 297.665998 193.233145 
L 298.813125 193.233145 
L 298.813125 196.123261 
L 299.960251 196.123261 
L 299.960251 197.026422 
L 301.107377 197.026422 
L 301.107377 204.251712 
L 302.254503 204.251712 
L 302.254503 204.793608 
L 303.401629 204.793608 
L 303.401629 208.94815 
L 304.548755 208.94815 
L 304.548755 211.296369 
L 306.843008 211.296369 
L 306.843008 211.657634 
L 307.990134 211.657634 
L 307.990134 215.992807 
L 309.13726 215.992807 
L 309.13726 216.715336 
L 310.284386 216.715336 
L 310.284386 220.327981 
L 311.431512 220.327981 
L 311.431512 222.314936 
L 313.725765 222.314936 
L 313.725765 221.953671 
L 314.872891 221.953671 
L 314.872891 222.856832 
L 316.020017 222.856832 
L 316.020017 222.134303 
L 317.167143 222.134303 
L 317.167143 226.288845 
L 318.314269 226.288845 
L 318.314269 224.663155 
L 320.608522 224.663155 
L 320.608522 227.372638 
L 321.755648 227.372638 
L 321.755648 229.178961 
L 322.902774 229.178961 
L 322.902774 227.011374 
L 324.0499 227.011374 
L 324.0499 232.430341 
L 325.197026 232.430341 
L 325.197026 234.236664 
L 326.344153 234.236664 
L 326.344153 234.417296 
L 327.491279 234.417296 
L 327.491279 232.972238 
L 328.638405 232.972238 
L 328.638405 233.15287 
L 329.785531 233.15287 
L 329.785531 234.597928 
L 330.932657 234.597928 
L 330.932657 237.849308 
L 332.079783 237.849308 
L 332.079783 237.307412 
L 333.22691 237.307412 
L 333.22691 238.029941 
L 334.374036 238.029941 
L 334.374036 236.223618 
L 335.521162 236.223618 
L 335.521162 237.488044 
L 336.668288 237.488044 
L 336.668288 235.139825 
L 337.815414 235.139825 
L 337.815414 238.391205 
L 338.96254 238.391205 
L 338.96254 237.849308 
L 340.109667 237.849308 
L 340.109667 237.307412 
L 341.256793 237.307412 
L 341.256793 240.016895 
L 342.403919 240.016895 
L 342.403919 236.765515 
L 343.551045 236.765515 
L 343.551045 240.920057 
L 345.845297 240.920057 
L 345.845297 238.75247 
L 346.992424 238.75247 
L 346.992424 240.558792 
L 348.13955 240.558792 
L 348.13955 242.365114 
L 349.286676 242.365114 
L 349.286676 241.642586 
L 350.433802 241.642586 
L 350.433802 240.197528 
L 351.580928 240.197528 
L 351.580928 241.461953 
L 353.875181 241.461953 
L 353.875181 242.00385 
L 355.022307 242.00385 
L 355.022307 242.365114 
L 356.169433 242.365114 
L 356.169433 242.545747 
L 357.316559 242.545747 
L 357.316559 244.532701 
L 358.463685 244.532701 
L 358.463685 241.823218 
L 359.610811 241.823218 
L 359.610811 243.268276 
L 360.757938 243.268276 
L 360.757938 240.920057 
L 361.905064 240.920057 
L 361.905064 243.62954 
L 363.05219 243.62954 
L 363.05219 243.990805 
L 364.199316 243.990805 
L 364.199316 244.171437 
L 365.346442 244.171437 
L 365.346442 244.352069 
L 366.493568 244.352069 
L 366.493568 243.448908 
L 367.640695 243.448908 
L 367.640695 244.352069 
L 368.787821 244.352069 
L 368.787821 244.171437 
L 371.082073 244.171437 
L 371.082073 243.990805 
L 372.229199 243.990805 
L 372.229199 244.713334 
L 373.376325 244.713334 
L 373.376325 244.532701 
L 374.523452 244.532701 
L 374.523452 244.713334 
L 376.817704 244.713334 
L 376.817704 244.352069 
L 377.96483 244.352069 
L 377.96483 245.074598 
L 379.111956 245.074598 
L 379.111956 244.352069 
L 380.259082 244.352069 
L 380.259082 244.171437 
L 381.406209 244.171437 
L 381.406209 245.074598 
L 382.553335 245.074598 
L 382.553335 244.532701 
L 383.700461 244.532701 
L 383.700461 244.352069 
L 384.847587 244.352069 
L 384.847587 245.074598 
L 385.994713 245.074598 
L 385.994713 244.893966 
L 388.288966 244.893966 
L 388.288966 245.074598 
L 389.436092 245.074598 
L 389.436092 245.797127 
L 390.583218 245.797127 
L 390.583218 245.616495 
L 391.730344 245.616495 
L 391.730344 244.893966 
L 392.87747 244.893966 
L 392.87747 245.25523 
L 394.024596 245.25523 
L 394.024596 244.713334 
L 395.171723 244.713334 
L 395.171723 244.893966 
L 396.318849 244.893966 
L 396.318849 245.25523 
L 398.613101 245.25523 
L 398.613101 245.074598 
L 399.760227 245.074598 
L 399.760227 245.25523 
L 404.348732 245.25523 
L 404.348732 245.435863 
L 405.495858 245.435863 
L 405.495858 245.616495 
L 407.79011 245.616495 
L 407.79011 245.797127 
L 408.937237 245.797127 
L 408.937237 245.616495 
L 410.084363 245.616495 
L 410.084363 245.25523 
L 411.231489 245.25523 
L 411.231489 245.797127 
L 412.378615 245.797127 
L 412.378615 245.616495 
L 413.525741 245.616495 
L 413.525741 245.074598 
L 414.672867 245.074598 
L 414.672867 245.074598 
" clip-path="url(#p973c70a3af)" style="fill: none; stroke: #1f77b4; stroke-width: 1.5; stroke-linecap: square"/>
   </g>
   <g id="patch_3">
    <path d="M 53.328125 257.158895 
L 53.328125 7.2 
" style="fill: none; stroke: #000000; stroke-width: 0.8; stroke-linejoin: miter; stroke-linecap: square"/>
   </g>
   <g id="patch_4">
    <path d="M 431.87976 257.158895 
L 431.87976 7.2 
" style="fill: none; stroke: #000000; stroke-width: 0.8; stroke-linejoin: miter; stroke-linecap: square"/>
   </g>
   <g id="patch_5">
    <path d="M 53.328125 257.158895 
L 431.87976 257.158895 
" style="fill: none; stroke: #000000; stroke-width: 0.8; stroke-linejoin: miter; stroke-linecap: square"/>
   </g>
   <g id="patch_6">
    <path d="M 53.328125 7.2 
L 431.87976 7.2 
" style="fill: none; stroke: #000000; stroke-width: 0.8; stroke-linejoin: miter; stroke-linecap: square"/>
   </g>
  </g>
  <g id="axes_2">
   <g id="patch_7">
    <path d="M 486.647885 257.158895 
L 865.19952 257.158895 
L 865.19952 7.2 
L 486.647885 7.2 
z
" style="fill: #ffffff"/>
   </g>
   <g id="matplotlib.axis_3">
    <g id="xtick_7">
     <g id="line2d_15">
      <g>
       <use xlink:href="#m532d465eea" x="500.379176" y="257.158895" style="stroke: #000000; stroke-width: 0.8"/>
      </g>
     </g>
     <g id="text_16">
      <!-- 0.0 -->
      <g transform="translate(492.427614 271.757332) scale(0.1 -0.1)">
       <defs>
        <path id="DejaVuSans-2e" d="M 684 794 
L 1344 794 
L 1344 0 
L 684 0 
L 684 794 
z
" transform="scale(0.015625)"/>
       </defs>
       <use xlink:href="#DejaVuSans-30"/>
       <use xlink:href="#DejaVuSans-2e" transform="translate(63.623047 0)"/>
       <use xlink:href="#DejaVuSans-30" transform="translate(95.410156 0)"/>
      </g>
     </g>
    </g>
    <g id="xtick_8">
     <g id="line2d_16">
      <g>
       <use xlink:href="#m532d465eea" x="544.148614" y="257.158895" style="stroke: #000000; stroke-width: 0.8"/>
      </g>
     </g>
     <g id="text_17">
      <!-- 2.5 -->
      <g transform="translate(536.197051 271.757332) scale(0.1 -0.1)">
       <use xlink:href="#DejaVuSans-32"/>
       <use xlink:href="#DejaVuSans-2e" transform="translate(63.623047 0)"/>
       <use xlink:href="#DejaVuSans-35" transform="translate(95.410156 0)"/>
      </g>
     </g>
    </g>
    <g id="xtick_9">
     <g id="line2d_17">
      <g>
       <use xlink:href="#m532d465eea" x="587.918051" y="257.158895" style="stroke: #000000; stroke-width: 0.8"/>
      </g>
     </g>
     <g id="text_18">
      <!-- 5.0 -->
      <g transform="translate(579.966488 271.757332) scale(0.1 -0.1)">
       <use xlink:href="#DejaVuSans-35"/>
       <use xlink:href="#DejaVuSans-2e" transform="translate(63.623047 0)"/>
       <use xlink:href="#DejaVuSans-30" transform="translate(95.410156 0)"/>
      </g>
     </g>
    </g>
    <g id="xtick_10">
     <g id="line2d_18">
      <g>
       <use xlink:href="#m532d465eea" x="631.687488" y="257.158895" style="stroke: #000000; stroke-width: 0.8"/>
      </g>
     </g>
     <g id="text_19">
      <!-- 7.5 -->
      <g transform="translate(623.735926 271.757332) scale(0.1 -0.1)">
       <defs>
        <path id="DejaVuSans-37" d="M 525 4666 
L 3525 4666 
L 3525 4397 
L 1831 0 
L 1172 0 
L 2766 4134 
L 525 4134 
L 525 4666 
z
" transform="scale(0.015625)"/>
       </defs>
       <use xlink:href="#DejaVuSans-37"/>
       <use xlink:href="#DejaVuSans-2e" transform="translate(63.623047 0)"/>
       <use xlink:href="#DejaVuSans-35" transform="translate(95.410156 0)"/>
      </g>
     </g>
    </g>
    <g id="xtick_11">
     <g id="line2d_19">
      <g>
       <use xlink:href="#m532d465eea" x="675.456925" y="257.158895" style="stroke: #000000; stroke-width: 0.8"/>
      </g>
     </g>
     <g id="text_20">
      <!-- 10.0 -->
      <g transform="translate(664.324113 271.757332) scale(0.1 -0.1)">
       <use xlink:href="#DejaVuSans-31"/>
       <use xlink:href="#DejaVuSans-30" transform="translate(63.623047 0)"/>
       <use xlink:href="#DejaVuSans-2e" transform="translate(127.246094 0)"/>
       <use xlink:href="#DejaVuSans-30" transform="translate(159.033203 0)"/>
      </g>
     </g>
    </g>
    <g id="xtick_12">
     <g id="line2d_20">
      <g>
       <use xlink:href="#m532d465eea" x="719.226363" y="257.158895" style="stroke: #000000; stroke-width: 0.8"/>
      </g>
     </g>
     <g id="text_21">
      <!-- 12.5 -->
      <g transform="translate(708.09355 271.757332) scale(0.1 -0.1)">
       <use xlink:href="#DejaVuSans-31"/>
       <use xlink:href="#DejaVuSans-32" transform="translate(63.623047 0)"/>
       <use xlink:href="#DejaVuSans-2e" transform="translate(127.246094 0)"/>
       <use xlink:href="#DejaVuSans-35" transform="translate(159.033203 0)"/>
      </g>
     </g>
    </g>
    <g id="xtick_13">
     <g id="line2d_21">
      <g>
       <use xlink:href="#m532d465eea" x="762.9958" y="257.158895" style="stroke: #000000; stroke-width: 0.8"/>
      </g>
     </g>
     <g id="text_22">
      <!-- 15.0 -->
      <g transform="translate(751.862987 271.757332) scale(0.1 -0.1)">
       <use xlink:href="#DejaVuSans-31"/>
       <use xlink:href="#DejaVuSans-35" transform="translate(63.623047 0)"/>
       <use xlink:href="#DejaVuSans-2e" transform="translate(127.246094 0)"/>
       <use xlink:href="#DejaVuSans-30" transform="translate(159.033203 0)"/>
      </g>
     </g>
    </g>
    <g id="xtick_14">
     <g id="line2d_22">
      <g>
       <use xlink:href="#m532d465eea" x="806.765237" y="257.158895" style="stroke: #000000; stroke-width: 0.8"/>
      </g>
     </g>
     <g id="text_23">
      <!-- 17.5 -->
      <g transform="translate(795.632425 271.757332) scale(0.1 -0.1)">
       <use xlink:href="#DejaVuSans-31"/>
       <use xlink:href="#DejaVuSans-37" transform="translate(63.623047 0)"/>
       <use xlink:href="#DejaVuSans-2e" transform="translate(127.246094 0)"/>
       <use xlink:href="#DejaVuSans-35" transform="translate(159.033203 0)"/>
      </g>
     </g>
    </g>
    <g id="xtick_15">
     <g id="line2d_23">
      <g>
       <use xlink:href="#m532d465eea" x="850.534674" y="257.158895" style="stroke: #000000; stroke-width: 0.8"/>
      </g>
     </g>
     <g id="text_24">
      <!-- 20.0 -->
      <g transform="translate(839.401862 271.757332) scale(0.1 -0.1)">
       <use xlink:href="#DejaVuSans-32"/>
       <use xlink:href="#DejaVuSans-30" transform="translate(63.623047 0)"/>
       <use xlink:href="#DejaVuSans-2e" transform="translate(127.246094 0)"/>
       <use xlink:href="#DejaVuSans-30" transform="translate(159.033203 0)"/>
      </g>
     </g>
    </g>
    <g id="text_25">
     <!-- wavelength [Å] -->
     <g transform="translate(637.886202 287.119832) scale(0.1 -0.1)">
      <defs>
       <path id="DejaVuSans-77" d="M 269 3500 
L 844 3500 
L 1563 769 
L 2278 3500 
L 2956 3500 
L 3675 769 
L 4391 3500 
L 4966 3500 
L 4050 0 
L 3372 0 
L 2619 2869 
L 1863 0 
L 1184 0 
L 269 3500 
z
" transform="scale(0.015625)"/>
       <path id="DejaVuSans-61" d="M 2194 1759 
Q 1497 1759 1228 1600 
Q 959 1441 959 1056 
Q 959 750 1161 570 
Q 1363 391 1709 391 
Q 2188 391 2477 730 
Q 2766 1069 2766 1631 
L 2766 1759 
L 2194 1759 
z
M 3341 1997 
L 3341 0 
L 2766 0 
L 2766 531 
Q 2569 213 2275 61 
Q 1981 -91 1556 -91 
Q 1019 -91 701 211 
Q 384 513 384 1019 
Q 384 1609 779 1909 
Q 1175 2209 1959 2209 
L 2766 2209 
L 2766 2266 
Q 2766 2663 2505 2880 
Q 2244 3097 1772 3097 
Q 1472 3097 1187 3025 
Q 903 2953 641 2809 
L 641 3341 
Q 956 3463 1253 3523 
Q 1550 3584 1831 3584 
Q 2591 3584 2966 3190 
Q 3341 2797 3341 1997 
z
" transform="scale(0.015625)"/>
       <path id="DejaVuSans-76" d="M 191 3500 
L 800 3500 
L 1894 563 
L 2988 3500 
L 3597 3500 
L 2284 0 
L 1503 0 
L 191 3500 
z
" transform="scale(0.015625)"/>
       <path id="DejaVuSans-6c" d="M 603 4863 
L 1178 4863 
L 1178 0 
L 603 0 
L 603 4863 
z
" transform="scale(0.015625)"/>
       <path id="DejaVuSans-67" d="M 2906 1791 
Q 2906 2416 2648 2759 
Q 2391 3103 1925 3103 
Q 1463 3103 1205 2759 
Q 947 2416 947 1791 
Q 947 1169 1205 825 
Q 1463 481 1925 481 
Q 2391 481 2648 825 
Q 2906 1169 2906 1791 
z
M 3481 434 
Q 3481 -459 3084 -895 
Q 2688 -1331 1869 -1331 
Q 1566 -1331 1297 -1286 
Q 1028 -1241 775 -1147 
L 775 -588 
Q 1028 -725 1275 -790 
Q 1522 -856 1778 -856 
Q 2344 -856 2625 -561 
Q 2906 -266 2906 331 
L 2906 616 
Q 2728 306 2450 153 
Q 2172 0 1784 0 
Q 1141 0 747 490 
Q 353 981 353 1791 
Q 353 2603 747 3093 
Q 1141 3584 1784 3584 
Q 2172 3584 2450 3431 
Q 2728 3278 2906 2969 
L 2906 3500 
L 3481 3500 
L 3481 434 
z
" transform="scale(0.015625)"/>
       <path id="DejaVuSans-c5" d="M 2663 5081 
Q 2663 5278 2523 5417 
Q 2384 5556 2188 5556 
Q 1988 5556 1852 5420 
Q 1716 5284 1716 5081 
Q 1716 4884 1853 4746 
Q 1991 4609 2188 4609 
Q 2384 4609 2523 4746 
Q 2663 4884 2663 5081 
z
M 2188 4044 
L 1338 1722 
L 3041 1722 
L 2188 4044 
z
M 1716 4366 
Q 1525 4494 1428 4673 
Q 1331 4853 1331 5081 
Q 1331 5441 1579 5691 
Q 1828 5941 2188 5941 
Q 2544 5941 2795 5689 
Q 3047 5438 3047 5081 
Q 3047 4863 2948 4678 
Q 2850 4494 2663 4366 
L 4325 0 
L 3669 0 
L 3244 1197 
L 1141 1197 
L 716 0 
L 50 0 
L 1716 4366 
z
" transform="scale(0.015625)"/>
      </defs>
      <use xlink:href="#DejaVuSans-77"/>
      <use xlink:href="#DejaVuSans-61" transform="translate(81.787109 0)"/>
      <use xlink:href="#DejaVuSans-76" transform="translate(143.066406 0)"/>
      <use xlink:href="#DejaVuSans-65" transform="translate(202.246094 0)"/>
      <use xlink:href="#DejaVuSans-6c" transform="translate(263.769531 0)"/>
      <use xlink:href="#DejaVuSans-65" transform="translate(291.552734 0)"/>
      <use xlink:href="#DejaVuSans-6e" transform="translate(353.076172 0)"/>
      <use xlink:href="#DejaVuSans-67" transform="translate(416.455078 0)"/>
      <use xlink:href="#DejaVuSans-74" transform="translate(479.931641 0)"/>
      <use xlink:href="#DejaVuSans-68" transform="translate(519.140625 0)"/>
      <use xlink:href="#DejaVuSans-20" transform="translate(582.519531 0)"/>
      <use xlink:href="#DejaVuSans-5b" transform="translate(614.306641 0)"/>
      <use xlink:href="#DejaVuSans-c5" transform="translate(653.320312 0)"/>
      <use xlink:href="#DejaVuSans-5d" transform="translate(721.728516 0)"/>
     </g>
    </g>
   </g>
   <g id="matplotlib.axis_4">
    <g id="ytick_8">
     <g id="line2d_24">
      <g>
       <use xlink:href="#mae5db8e3ba" x="486.647885" y="245.797127" style="stroke: #000000; stroke-width: 0.8"/>
      </g>
     </g>
     <g id="text_26">
      <!-- 0 -->
      <g transform="translate(473.285385 249.596346) scale(0.1 -0.1)">
       <use xlink:href="#DejaVuSans-30"/>
      </g>
     </g>
    </g>
    <g id="ytick_9">
     <g id="line2d_25">
      <g>
       <use xlink:href="#mae5db8e3ba" x="486.647885" y="192.679932" style="stroke: #000000; stroke-width: 0.8"/>
      </g>
     </g>
     <g id="text_27">
      <!-- 1000 -->
      <g transform="translate(454.197885 196.479151) scale(0.1 -0.1)">
       <use xlink:href="#DejaVuSans-31"/>
       <use xlink:href="#DejaVuSans-30" transform="translate(63.623047 0)"/>
       <use xlink:href="#DejaVuSans-30" transform="translate(127.246094 0)"/>
       <use xlink:href="#DejaVuSans-30" transform="translate(190.869141 0)"/>
      </g>
     </g>
    </g>
    <g id="ytick_10">
     <g id="line2d_26">
      <g>
       <use xlink:href="#mae5db8e3ba" x="486.647885" y="139.562738" style="stroke: #000000; stroke-width: 0.8"/>
      </g>
     </g>
     <g id="text_28">
      <!-- 2000 -->
      <g transform="translate(454.197885 143.361956) scale(0.1 -0.1)">
       <use xlink:href="#DejaVuSans-32"/>
       <use xlink:href="#DejaVuSans-30" transform="translate(63.623047 0)"/>
       <use xlink:href="#DejaVuSans-30" transform="translate(127.246094 0)"/>
       <use xlink:href="#DejaVuSans-30" transform="translate(190.869141 0)"/>
      </g>
     </g>
    </g>
    <g id="ytick_11">
     <g id="line2d_27">
      <g>
       <use xlink:href="#mae5db8e3ba" x="486.647885" y="86.445543" style="stroke: #000000; stroke-width: 0.8"/>
      </g>
     </g>
     <g id="text_29">
      <!-- 3000 -->
      <g transform="translate(454.197885 90.244762) scale(0.1 -0.1)">
       <use xlink:href="#DejaVuSans-33"/>
       <use xlink:href="#DejaVuSans-30" transform="translate(63.623047 0)"/>
       <use xlink:href="#DejaVuSans-30" transform="translate(127.246094 0)"/>
       <use xlink:href="#DejaVuSans-30" transform="translate(190.869141 0)"/>
      </g>
     </g>
    </g>
    <g id="ytick_12">
     <g id="line2d_28">
      <g>
       <use xlink:href="#mae5db8e3ba" x="486.647885" y="33.328348" style="stroke: #000000; stroke-width: 0.8"/>
      </g>
     </g>
     <g id="text_30">
      <!-- 4000 -->
      <g transform="translate(454.197885 37.127567) scale(0.1 -0.1)">
       <use xlink:href="#DejaVuSans-34"/>
       <use xlink:href="#DejaVuSans-30" transform="translate(63.623047 0)"/>
       <use xlink:href="#DejaVuSans-30" transform="translate(127.246094 0)"/>
       <use xlink:href="#DejaVuSans-30" transform="translate(190.869141 0)"/>
      </g>
     </g>
    </g>
    <g id="text_31">
     <!-- [counts] -->
     <g transform="translate(448.118197 152.791947) rotate(-90) scale(0.1 -0.1)">
      <use xlink:href="#DejaVuSans-5b"/>
      <use xlink:href="#DejaVuSans-63" transform="translate(39.013672 0)"/>
      <use xlink:href="#DejaVuSans-6f" transform="translate(93.994141 0)"/>
      <use xlink:href="#DejaVuSans-75" transform="translate(155.175781 0)"/>
      <use xlink:href="#DejaVuSans-6e" transform="translate(218.554688 0)"/>
      <use xlink:href="#DejaVuSans-74" transform="translate(281.933594 0)"/>
      <use xlink:href="#DejaVuSans-73" transform="translate(321.142578 0)"/>
      <use xlink:href="#DejaVuSans-5d" transform="translate(373.242188 0)"/>
     </g>
    </g>
   </g>
   <g id="line2d_29">
    <path d="M 503.854777 155.019841 
L 505.001904 155.019841 
L 505.001904 146.52109 
L 506.14903 146.52109 
L 506.14903 138.925331 
L 507.296156 138.925331 
L 507.296156 135.632065 
L 508.443282 135.632065 
L 508.443282 144.927574 
L 509.590408 144.927574 
L 509.590408 154.648021 
L 510.737534 154.648021 
L 510.737534 149.54877 
L 511.884661 149.54877 
L 511.884661 126.602142 
L 513.031787 126.602142 
L 513.031787 111.038804 
L 514.178913 111.038804 
L 514.178913 82.939808 
L 515.326039 82.939808 
L 515.326039 64.667493 
L 516.473165 64.667493 
L 516.473165 29.025855 
L 517.620291 29.025855 
L 517.620291 25.838824 
L 518.767418 25.838824 
L 518.767418 18.561768 
L 519.914544 18.561768 
L 519.914544 20.580221 
L 521.06167 20.580221 
L 521.06167 30.141316 
L 522.208796 30.141316 
L 522.208796 35.665505 
L 523.355922 35.665505 
L 523.355922 40.021115 
L 524.503048 40.021115 
L 524.503048 50.963257 
L 525.650175 50.963257 
L 525.650175 60.046297 
L 526.797301 60.046297 
L 526.797301 66.367243 
L 527.944427 66.367243 
L 527.944427 80.071479 
L 529.091553 80.071479 
L 529.091553 80.390183 
L 530.238679 80.390183 
L 530.238679 82.408636 
L 531.385805 82.408636 
L 531.385805 92.129083 
L 532.532932 92.129083 
L 532.532932 94.625591 
L 533.680058 94.625591 
L 533.680058 93.085192 
L 534.827184 93.085192 
L 534.827184 97.759505 
L 535.97431 97.759505 
L 535.97431 90.216864 
L 537.121436 90.216864 
L 537.121436 85.276965 
L 538.268562 85.276965 
L 538.268562 77.574971 
L 539.415689 77.574971 
L 539.415689 69.607392 
L 540.562815 69.607392 
L 540.562815 62.330336 
L 541.709941 62.330336 
L 541.709941 49.95403 
L 542.857067 49.95403 
L 542.857067 34.018872 
L 544.004193 34.018872 
L 544.004193 38.002661 
L 545.151319 38.002661 
L 545.151319 30.778723 
L 546.298446 30.778723 
L 546.298446 38.21513 
L 547.445572 38.21513 
L 547.445572 49.58221 
L 548.592698 49.58221 
L 548.592698 55.796921 
L 549.739824 55.796921 
L 549.739824 67.00465 
L 550.88695 67.00465 
L 550.88695 78.690432 
L 552.034076 78.690432 
L 552.034076 87.507887 
L 553.181203 87.507887 
L 553.181203 94.784942 
L 554.328329 94.784942 
L 554.328329 102.59317 
L 555.475455 102.59317 
L 555.475455 109.657757 
L 556.622581 109.657757 
L 556.622581 115.925586 
L 557.769707 115.925586 
L 557.769707 123.468228 
L 558.916833 123.468228 
L 558.916833 131.223338 
L 560.06396 131.223338 
L 560.06396 137.756753 
L 561.211086 137.756753 
L 561.211086 142.112363 
L 562.358212 142.112363 
L 562.358212 147.902137 
L 563.505338 147.902137 
L 563.505338 148.433309 
L 564.652464 148.433309 
L 564.652464 152.523333 
L 565.79959 152.523333 
L 565.79959 162.084428 
L 566.946717 162.084428 
L 566.946717 160.756498 
L 568.093843 160.756498 
L 568.093843 168.777195 
L 569.240969 168.777195 
L 569.240969 168.989663 
L 570.388095 168.989663 
L 570.388095 173.770211 
L 571.535221 173.770211 
L 571.535221 178.922579 
L 572.682347 178.922579 
L 572.682347 178.391407 
L 573.829474 178.391407 
L 573.829474 186.730806 
L 574.9766 186.730806 
L 574.9766 185.774697 
L 576.123726 185.774697 
L 576.123726 192.573698 
L 577.270852 192.573698 
L 577.270852 195.866964 
L 578.417978 195.866964 
L 578.417978 196.079433 
L 579.565104 196.079433 
L 579.565104 194.592151 
L 580.712231 194.592151 
L 580.712231 199.319582 
L 581.859357 199.319582 
L 581.859357 199.850754 
L 583.006483 199.850754 
L 583.006483 202.134793 
L 584.153609 202.134793 
L 584.153609 206.490403 
L 585.300735 206.490403 
L 585.300735 206.968458 
L 586.447861 206.968458 
L 586.447861 210.155489 
L 587.594988 210.155489 
L 587.594988 209.040028 
L 588.742114 209.040028 
L 588.742114 211.324068 
L 589.88924 211.324068 
L 589.88924 213.076935 
L 591.036366 213.076935 
L 591.036366 214.457982 
L 592.183492 214.457982 
L 592.183492 215.467209 
L 593.330618 215.467209 
L 593.330618 218.016834 
L 594.477745 218.016834 
L 594.477745 218.654241 
L 595.624871 218.654241 
L 595.624871 219.397881 
L 596.771997 219.397881 
L 596.771997 218.972944 
L 597.919123 218.972944 
L 597.919123 222.797382 
L 599.066249 222.797382 
L 599.066249 223.116085 
L 600.213375 223.116085 
L 600.213375 223.96596 
L 601.360502 223.96596 
L 601.360502 225.347007 
L 602.507628 225.347007 
L 602.507628 227.259226 
L 603.654754 227.259226 
L 603.654754 228.374687 
L 604.80188 228.374687 
L 604.80188 226.674937 
L 605.949006 226.674937 
L 605.949006 228.534039 
L 607.096132 228.534039 
L 607.096132 229.6495 
L 608.243259 229.6495 
L 608.243259 228.32157 
L 609.390385 228.32157 
L 609.390385 229.861969 
L 610.537511 229.861969 
L 610.537511 232.092891 
L 611.684637 232.092891 
L 611.684637 232.624063 
L 612.831763 232.624063 
L 612.831763 230.871195 
L 613.978889 230.871195 
L 613.978889 232.783414 
L 615.126016 232.783414 
L 615.126016 232.624063 
L 616.273142 232.624063 
L 616.273142 232.783414 
L 618.567394 232.889649 
L 618.567394 235.439274 
L 619.71452 235.439274 
L 619.71452 234.589399 
L 620.861647 234.589399 
L 620.861647 234.801868 
L 622.008773 234.801868 
L 622.008773 235.173688 
L 623.155899 235.173688 
L 623.155899 234.323813 
L 624.303025 234.323813 
L 624.303025 236.342266 
L 625.450151 236.342266 
L 625.450151 236.182915 
L 626.597277 236.182915 
L 626.597277 236.979673 
L 627.744403 236.979673 
L 627.744403 237.670196 
L 628.89153 237.670196 
L 628.89153 236.023563 
L 630.038656 236.023563 
L 630.038656 236.236032 
L 631.185782 236.236032 
L 631.185782 237.03279 
L 632.332908 237.03279 
L 632.332908 236.873438 
L 633.480034 236.873438 
L 633.480034 238.042017 
L 634.62716 238.042017 
L 634.62716 239.476181 
L 635.774287 239.476181 
L 635.774287 239.316829 
L 636.921413 239.316829 
L 636.921413 239.848001 
L 638.068539 239.848001 
L 638.068539 238.838775 
L 639.215665 238.838775 
L 639.215665 239.051243 
L 640.362791 239.051243 
L 640.362791 239.794884 
L 642.657044 239.794884 
L 642.657044 239.582415 
L 643.80417 239.582415 
L 643.80417 240.485408 
L 644.951296 240.485408 
L 644.951296 240.644759 
L 646.098422 240.644759 
L 646.098422 239.157478 
L 647.245548 239.157478 
L 647.245548 240.697876 
L 648.392674 240.697876 
L 648.392674 240.166704 
L 649.539801 240.166704 
L 649.539801 240.963462 
L 650.686927 240.963462 
L 650.686927 241.282165 
L 651.834053 241.282165 
L 651.834053 241.547751 
L 654.128305 241.441517 
L 654.128305 242.397627 
L 655.275431 242.397627 
L 655.275431 242.078923 
L 656.422558 242.078923 
L 656.422558 241.494634 
L 657.569684 241.494634 
L 657.569684 242.078923 
L 658.71681 242.078923 
L 658.71681 242.291392 
L 659.863936 242.291392 
L 659.863936 241.919572 
L 661.011062 241.919572 
L 661.011062 242.185158 
L 663.305315 242.132041 
L 663.305315 241.76022 
L 664.452441 241.76022 
L 664.452441 242.397627 
L 665.599567 242.397627 
L 665.599567 243.035033 
L 666.746693 243.035033 
L 666.746693 242.822564 
L 667.893819 242.822564 
L 667.893819 243.194385 
L 669.040945 243.194385 
L 669.040945 242.238275 
L 670.188072 242.238275 
L 670.188072 242.450744 
L 671.335198 242.450744 
L 671.335198 242.663213 
L 672.482324 242.663213 
L 672.482324 243.406853 
L 673.62945 243.406853 
L 673.62945 242.556978 
L 674.776576 242.556978 
L 674.776576 243.247502 
L 675.923702 243.247502 
L 675.923702 243.45997 
L 677.070829 243.45997 
L 677.070829 242.981916 
L 678.217955 242.981916 
L 678.217955 243.353736 
L 679.365081 243.353736 
L 679.365081 243.991142 
L 680.512207 243.991142 
L 680.512207 243.566205 
L 682.806459 243.513088 
L 682.806459 243.035033 
L 683.953586 243.035033 
L 683.953586 244.150494 
L 685.100712 244.150494 
L 685.100712 243.991142 
L 687.394964 243.884908 
L 687.394964 243.406853 
L 689.689216 243.513088 
L 689.689216 244.150494 
L 695.424847 244.203611 
L 695.424847 243.778674 
L 696.571974 243.778674 
L 696.571974 244.362963 
L 698.866226 244.362963 
L 698.866226 243.991142 
L 700.013352 243.991142 
L 700.013352 244.841018 
L 701.160478 244.841018 
L 701.160478 244.41608 
L 704.601857 244.469197 
L 704.601857 244.628549 
L 710.337487 244.628549 
L 710.337487 244.469197 
L 711.484614 244.469197 
L 711.484614 244.628549 
L 712.63174 244.628549 
L 712.63174 244.947252 
L 713.778866 244.947252 
L 713.778866 244.522314 
L 714.925992 244.522314 
L 714.925992 244.734783 
L 718.367371 244.734783 
L 718.367371 244.469197 
L 719.514497 244.469197 
L 719.514497 244.628549 
L 720.661623 244.628549 
L 720.661623 245.000369 
L 721.808749 245.000369 
L 721.808749 244.469197 
L 722.955875 244.469197 
L 722.955875 244.681666 
L 725.250128 244.575432 
L 725.250128 245.212838 
L 726.397254 245.212838 
L 726.397254 245.000369 
L 729.838632 245.000369 
L 729.838632 244.841018 
L 730.985758 244.841018 
L 730.985758 245.425307 
L 732.132885 245.425307 
L 732.132885 244.7879 
L 733.280011 244.7879 
L 733.280011 245.265955 
L 734.427137 245.265955 
L 734.427137 245.106604 
L 736.721389 245.053486 
L 736.721389 245.372189 
L 737.868516 245.372189 
L 737.868516 244.841018 
L 740.162768 244.841018 
L 740.162768 245.212838 
L 741.309894 245.212838 
L 741.309894 245.531541 
L 742.45702 245.531541 
L 742.45702 245.106604 
L 743.604146 245.106604 
L 743.604146 245.478424 
L 744.751272 245.478424 
L 744.751272 245.265955 
L 745.898399 245.265955 
L 745.898399 245.478424 
L 747.045525 245.478424 
L 747.045525 245.212838 
L 752.781156 245.319072 
L 752.781156 244.947252 
L 753.928282 244.947252 
L 753.928282 245.319072 
L 755.075408 245.319072 
L 755.075408 245.106604 
L 756.222534 245.106604 
L 756.222534 245.319072 
L 766.54667 245.319072 
L 766.54667 245.531541 
L 772.282301 245.531541 
L 772.282301 245.319072 
L 773.429427 245.319072 
L 773.429427 245.531541 
L 775.723679 245.478424 
L 775.723679 245.319072 
L 776.870805 245.319072 
L 776.870805 245.637775 
L 778.017931 245.637775 
L 778.017931 245.425307 
L 782.606436 245.319072 
L 782.606436 245.265955 
L 783.753562 245.265955 
L 783.753562 245.425307 
L 788.342067 245.372189 
L 788.342067 245.690893 
L 792.930572 245.690893 
L 792.930572 245.319072 
L 796.37195 245.319072 
L 796.37195 245.637775 
L 798.666202 245.584658 
L 798.666202 245.478424 
L 799.813328 245.478424 
L 799.813328 245.637775 
L 800.960455 245.637775 
L 800.960455 245.425307 
L 803.254707 245.531541 
L 803.254707 245.584658 
L 807.843212 245.690893 
L 807.843212 245.425307 
L 810.137464 245.531541 
L 810.137464 245.797127 
L 811.28459 245.797127 
L 811.28459 245.531541 
L 812.431716 245.531541 
L 812.431716 245.74401 
L 813.578842 245.74401 
L 813.578842 245.584658 
L 830.785735 245.690893 
L 830.785735 245.797127 
L 834.227113 245.797127 
L 834.227113 245.531541 
L 835.37424 245.531541 
L 835.37424 245.690893 
L 842.256997 245.690893 
L 842.256997 245.531541 
L 844.551249 245.637775 
L 844.551249 245.690893 
L 847.992628 245.584658 
L 847.992628 245.584658 
" clip-path="url(#pde2701c1c1)" style="fill: none; stroke: #1f77b4; stroke-width: 1.5; stroke-linecap: square"/>
   </g>
   <g id="patch_8">
    <path d="M 486.647885 257.158895 
L 486.647885 7.2 
" style="fill: none; stroke: #000000; stroke-width: 0.8; stroke-linejoin: miter; stroke-linecap: square"/>
   </g>
   <g id="patch_9">
    <path d="M 865.19952 257.158895 
L 865.19952 7.2 
" style="fill: none; stroke: #000000; stroke-width: 0.8; stroke-linejoin: miter; stroke-linecap: square"/>
   </g>
   <g id="patch_10">
    <path d="M 486.647885 257.158895 
L 865.19952 257.158895 
" style="fill: none; stroke: #000000; stroke-width: 0.8; stroke-linejoin: miter; stroke-linecap: square"/>
   </g>
   <g id="patch_11">
    <path d="M 486.647885 7.2 
L 865.19952 7.2 
" style="fill: none; stroke: #000000; stroke-width: 0.8; stroke-linejoin: miter; stroke-linecap: square"/>
   </g>
  </g>
 </g>
 <defs>
  <clipPath id="p973c70a3af">
   <rect x="53.328125" y="7.2" width="378.551635" height="249.958895"/>
  </clipPath>
  <clipPath id="pde2701c1c1">
   <rect x="486.647885" y="7.2" width="378.551635" height="249.958895"/>
  </clipPath>
 </defs>
</svg>
